<svg width="10" height="12" viewBox="0 0 10 12" fill="none" xmlns="http://www.w3.org/2000/svg">
  <path fill-rule="evenodd" clip-rule="evenodd" d="M1.10557 6.90907C0.917284 7.10708 0.917284 7.42813 1.10557 7.62614L5.12343 11.8515C5.31172 12.0495 5.61699 12.0495 5.80528 11.8515L9.82314 7.62614C10.0114 7.42813 10.0114 7.10708 9.82314 6.90907C9.63485 6.71106 9.32957 6.71106 9.14129 6.90907L5.9465 10.2688L5.9465 0.507043C5.9465 0.22701 5.73064 -3.70124e-07 5.46436 -3.93402e-07C5.19808 -4.16681e-07 4.98221 0.22701 4.98221 0.507042L4.98221 10.2688L1.78743 6.90907C1.59914 6.71106 1.29386 6.71106 1.10557 6.90907Z" fill="#808080"/>
</svg>
