<svg width="131" height="31" viewBox="0 0 131 31" version="1.1" xmlns="http://www.w3.org/2000/svg" xmlns:xlink="http://www.w3.org/1999/xlink">
<g id="Canvas" fill="none">
<g id="apr">
<g id="Page 1">
<g id="Artboard Copy">
<g id="apandor">
<path fill-rule="evenodd" clip-rule="evenodd" d="M 15.674 20.366C 15.674 20.842 15.7363 21.182 15.861 21.386C 15.9857 21.59 16.2293 21.692 16.592 21.692L 17 21.692C 17.1587 21.692 17.34 21.6694 17.544 21.624L 17.544 24.31C 17.408 24.3553 17.2323 24.4063 17.017 24.463C 16.8017 24.5197 16.5807 24.5707 16.354 24.616C 16.1273 24.6614 15.9007 24.6954 15.674 24.718C 15.4473 24.7407 15.2547 24.752 15.096 24.752C 14.3027 24.752 13.6453 24.5933 13.124 24.276C 12.6027 23.9587 12.2627 23.4033 12.104 22.61C 11.3333 23.358 10.387 23.902 9.26501 24.242C 8.14301 24.582 7.06068 24.752 6.01801 24.752C 5.22467 24.752 4.46533 24.6444 3.73999 24.429C 3.01465 24.2137 2.37434 23.8963 1.819 23.477C 1.26366 23.0577 0.821679 22.525 0.493011 21.879C 0.164343 21.233 0 20.4793 0 19.618C 0 18.53 0.198332 17.646 0.595001 16.966C 0.99167 16.286 1.51299 15.7533 2.159 15.368C 2.805 14.9826 3.53032 14.705 4.33499 14.535C 5.13966 14.365 5.94999 14.2346 6.76599 14.144C 7.46866 14.008 8.13733 13.9116 8.772 13.855C 9.40667 13.7983 9.96765 13.702 10.455 13.566C 10.9423 13.43 11.3277 13.2203 11.611 12.937C 11.8943 12.6537 12.036 12.2287 12.036 11.662C 12.036 11.1633 11.917 10.7553 11.679 10.438C 11.441 10.1207 11.1463 9.87697 10.795 9.70697C 10.4437 9.53697 10.0527 9.42367 9.62201 9.367C 9.19134 9.31034 8.78335 9.28198 8.39801 9.28198C 7.31001 9.28198 6.41468 9.50864 5.71201 9.96198C 5.00934 10.4153 4.61267 11.118 4.522 12.07L 0.645996 12.07C 0.713996 10.9367 0.986004 9.99599 1.46201 9.24799C 1.93801 8.49998 2.54434 7.89932 3.28101 7.44598C 4.01768 6.99265 4.85066 6.67535 5.78 6.49402C 6.70934 6.31268 7.66131 6.22198 8.63599 6.22198C 9.49732 6.22198 10.3473 6.31268 11.186 6.49402C 12.0247 6.67535 12.7783 6.96999 13.447 7.37799C 14.1157 7.78599 14.654 8.31298 15.062 8.95898C 15.47 9.60499 15.674 10.3927 15.674 11.322L 15.674 20.366ZM 11.798 15.47C 11.2087 15.8553 10.4833 16.0877 9.62201 16.167C 8.76067 16.2463 7.89933 16.3653 7.03799 16.524C 6.62999 16.592 6.23333 16.6883 5.84799 16.813C 5.46266 16.9377 5.12267 17.1077 4.828 17.323C 4.53333 17.5383 4.30101 17.8216 4.13101 18.173C 3.96101 18.5243 3.87601 18.9493 3.87601 19.448C 3.87601 19.8787 4.00067 20.2413 4.25 20.536C 4.49933 20.8307 4.79967 21.063 5.151 21.233C 5.50234 21.403 5.88767 21.522 6.30701 21.59C 6.72634 21.658 7.10601 21.692 7.44601 21.692C 7.87668 21.692 8.34133 21.6353 8.84 21.522C 9.33867 21.4086 9.809 21.216 10.251 20.944C 10.693 20.672 11.0613 20.3263 11.356 19.907C 11.6507 19.4876 11.798 18.972 11.798 18.36L 11.798 15.47ZM 19.958 6.698L 23.63 6.698L 23.63 9.078L 23.698 9.078C 24.242 8.058 25.0013 7.32701 25.976 6.88501C 26.9507 6.44301 28.0047 6.22198 29.138 6.22198C 30.5207 6.22198 31.7277 6.46567 32.759 6.953C 33.7903 7.44034 34.646 8.10898 35.326 8.95898C 36.006 9.80899 36.516 10.8007 36.856 11.934C 37.196 13.0674 37.366 14.28 37.366 15.572C 37.366 16.7507 37.213 17.8953 36.907 19.006C 36.601 20.1167 36.1363 21.097 35.513 21.947C 34.8897 22.797 34.102 23.477 33.15 23.987C 32.198 24.497 31.076 24.752 29.784 24.752C 29.2173 24.752 28.6507 24.701 28.084 24.599C 27.5173 24.497 26.9733 24.3327 26.452 24.106C 25.9307 23.8794 25.449 23.5903 25.007 23.239C 24.565 22.8877 24.1967 22.474 23.902 21.998L 23.834 21.998L 23.834 30.77L 19.958 30.77L 19.958 6.698ZM 33.49 15.504C 33.49 14.7107 33.388 13.94 33.184 13.192C 32.98 12.444 32.674 11.781 32.266 11.203C 31.858 10.625 31.348 10.1604 30.736 9.80902C 30.124 9.45769 29.4213 9.28198 28.628 9.28198C 26.996 9.28198 25.7663 9.84866 24.939 10.982C 24.1117 12.1153 23.698 13.6227 23.698 15.504C 23.698 16.388 23.8057 17.2097 24.021 17.969C 24.2363 18.7283 24.5593 19.38 24.99 19.924C 25.4207 20.468 25.9363 20.8987 26.537 21.216C 27.1377 21.5333 27.8347 21.692 28.628 21.692C 29.512 21.692 30.26 21.5107 30.872 21.148C 31.484 20.7853 31.9883 20.315 32.385 19.737C 32.7817 19.159 33.065 18.5017 33.235 17.765C 33.405 17.0283 33.49 16.2747 33.49 15.504ZM 55.352 20.366C 55.352 20.842 55.4143 21.182 55.539 21.386C 55.6637 21.59 55.9073 21.692 56.27 21.692L 56.678 21.692C 56.8367 21.692 57.018 21.6694 57.222 21.624L 57.222 24.31C 57.086 24.3553 56.9103 24.4063 56.695 24.463C 56.4797 24.5197 56.2587 24.5707 56.032 24.616C 55.8053 24.6614 55.5787 24.6954 55.352 24.718C 55.1253 24.7407 54.9327 24.752 54.774 24.752C 53.9806 24.752 53.3233 24.5933 52.802 24.276C 52.2807 23.9587 51.9407 23.4033 51.782 22.61C 51.0113 23.358 50.065 23.902 48.943 24.242C 47.821 24.582 46.7387 24.752 45.696 24.752C 44.9027 24.752 44.1433 24.6444 43.418 24.429C 42.6927 24.2137 42.0523 23.8963 41.497 23.477C 40.9417 23.0577 40.4997 22.525 40.171 21.879C 39.8423 21.233 39.678 20.4793 39.678 19.618C 39.678 18.53 39.8763 17.646 40.273 16.966C 40.6697 16.286 41.191 15.7533 41.837 15.368C 42.483 14.9826 43.2083 14.705 44.013 14.535C 44.8177 14.365 45.628 14.2346 46.444 14.144C 47.1467 14.008 47.8153 13.9116 48.45 13.855C 49.0847 13.7983 49.6457 13.702 50.133 13.566C 50.6203 13.43 51.0057 13.2203 51.289 12.937C 51.5723 12.6537 51.714 12.2287 51.714 11.662C 51.714 11.1633 51.595 10.7553 51.357 10.438C 51.119 10.1207 50.8243 9.87697 50.473 9.70697C 50.1217 9.53697 49.7307 9.42367 49.3 9.367C 48.8693 9.31034 48.4613 9.28198 48.076 9.28198C 46.988 9.28198 46.0927 9.50864 45.39 9.96198C 44.6873 10.4153 44.2907 11.118 44.2 12.07L 40.324 12.07C 40.392 10.9367 40.664 9.99599 41.14 9.24799C 41.616 8.49998 42.2223 7.89932 42.959 7.44598C 43.6957 6.99265 44.5287 6.67535 45.458 6.49402C 46.3873 6.31268 47.3393 6.22198 48.314 6.22198C 49.1753 6.22198 50.0253 6.31268 50.864 6.49402C 51.7027 6.67535 52.4563 6.96999 53.125 7.37799C 53.7937 7.78599 54.332 8.31298 54.74 8.95898C 55.148 9.60499 55.352 10.3927 55.352 11.322L 55.352 20.366ZM 51.476 15.47C 50.8867 15.8553 50.1613 16.0877 49.3 16.167C 48.4386 16.2463 47.5773 16.3653 46.716 16.524C 46.308 16.592 45.9113 16.6883 45.526 16.813C 45.1407 16.9377 44.8007 17.1077 44.506 17.323C 44.2113 17.5383 43.979 17.8216 43.809 18.173C 43.639 18.5243 43.554 18.9493 43.554 19.448C 43.554 19.8787 43.6787 20.2413 43.928 20.536C 44.1773 20.8307 44.4777 21.063 44.829 21.233C 45.1803 21.403 45.5657 21.522 45.985 21.59C 46.4043 21.658 46.784 21.692 47.124 21.692C 47.5547 21.692 48.0193 21.6353 48.518 21.522C 49.0167 21.4086 49.487 21.216 49.929 20.944C 50.371 20.672 50.7393 20.3263 51.034 19.907C 51.3287 19.4876 51.476 18.972 51.476 18.36L 51.476 15.47ZM 59.534 6.698L 63.206 6.698L 63.206 9.28198L 63.274 9.34998C 63.8633 8.3753 64.634 7.61033 65.586 7.05499C 66.538 6.49966 67.592 6.22198 68.748 6.22198C 70.6747 6.22198 72.1933 6.72068 73.304 7.71802C 74.4147 8.71536 74.97 10.2113 74.97 12.206L 74.97 24.276L 71.094 24.276L 71.094 13.226C 71.0487 11.8433 70.754 10.8403 70.21 10.217C 69.666 9.59364 68.816 9.28198 67.66 9.28198C 67.0027 9.28198 66.4133 9.40098 65.892 9.63898C 65.3707 9.87698 64.9287 10.2057 64.566 10.625C 64.2033 11.0443 63.92 11.5373 63.716 12.104C 63.512 12.6707 63.41 13.2713 63.41 13.906L 63.41 24.276L 59.534 24.276L 59.534 6.698ZM 95.608 24.276L 91.936 24.276L 91.936 21.896L 91.868 21.896C 91.3467 22.916 90.5873 23.647 89.59 24.089C 88.5927 24.531 87.5387 24.752 86.428 24.752C 85.0453 24.752 83.8383 24.5083 82.807 24.021C 81.7757 23.5337 80.92 22.8707 80.24 22.032C 79.56 21.1933 79.05 20.2017 78.71 19.057C 78.37 17.9123 78.2 16.6827 78.2 15.368C 78.2 13.7813 78.4153 12.41 78.846 11.254C 79.2767 10.098 79.849 9.14601 80.563 8.39801C 81.277 7.65001 82.093 7.10036 83.011 6.74902C 83.929 6.39769 84.864 6.22198 85.816 6.22198C 86.36 6.22198 86.9153 6.273 87.482 6.375C 88.0487 6.477 88.5927 6.64131 89.114 6.86798C 89.6354 7.09465 90.117 7.38365 90.559 7.73499C 91.001 8.08632 91.3693 8.50001 91.664 8.97601L 91.732 8.97601L 91.732 0L 95.608 0L 95.608 24.276ZM 82.076 15.674C 82.076 16.422 82.1723 17.1586 82.365 17.884C 82.5577 18.6093 82.8523 19.2554 83.249 19.822C 83.6457 20.3887 84.15 20.842 84.762 21.182C 85.374 21.522 86.0993 21.692 86.938 21.692C 87.7993 21.692 88.5417 21.5107 89.165 21.148C 89.7883 20.7853 90.2983 20.3093 90.695 19.72C 91.0917 19.1306 91.3863 18.4677 91.579 17.731C 91.7717 16.9943 91.868 16.2406 91.868 15.47C 91.868 13.5206 91.4317 12.002 90.559 10.914C 89.6863 9.826 88.502 9.28198 87.006 9.28198C 86.0993 9.28198 85.3343 9.46902 84.711 9.84302C 84.0877 10.217 83.5777 10.7043 83.181 11.305C 82.7843 11.9057 82.501 12.5856 82.331 13.345C 82.161 14.1043 82.076 14.8807 82.076 15.674ZM 107.882 24.752C 106.477 24.752 105.224 24.5197 104.125 24.055C 103.026 23.5903 102.096 22.95 101.337 22.134C 100.578 21.318 99.9997 20.3434 99.603 19.21C 99.2063 18.0767 99.008 16.83 99.008 15.47C 99.008 14.1326 99.2063 12.8973 99.603 11.764C 99.9997 10.6306 100.578 9.65603 101.337 8.84003C 102.096 8.02402 103.026 7.38368 104.125 6.91901C 105.224 6.45434 106.477 6.22198 107.882 6.22198C 109.287 6.22198 110.54 6.45434 111.639 6.91901C 112.738 7.38368 113.668 8.02402 114.427 8.84003C 115.186 9.65603 115.764 10.6306 116.161 11.764C 116.558 12.8973 116.756 14.1326 116.756 15.47C 116.756 16.83 116.558 18.0767 116.161 19.21C 115.764 20.3434 115.186 21.318 114.427 22.134C 113.668 22.95 112.738 23.5903 111.639 24.055C 110.54 24.5197 109.287 24.752 107.882 24.752ZM 107.882 21.692C 108.743 21.692 109.491 21.5107 110.126 21.148C 110.761 20.7853 111.282 20.3093 111.69 19.72C 112.098 19.1306 112.398 18.4677 112.591 17.731C 112.784 16.9943 112.88 16.2406 112.88 15.47C 112.88 14.722 112.784 13.974 112.591 13.226C 112.398 12.478 112.098 11.815 111.69 11.237C 111.282 10.659 110.761 10.1887 110.126 9.82599C 109.491 9.46332 108.743 9.28198 107.882 9.28198C 107.021 9.28198 106.273 9.46332 105.638 9.82599C 105.003 10.1887 104.482 10.659 104.074 11.237C 103.666 11.815 103.366 12.478 103.173 13.226C 102.98 13.974 102.884 14.722 102.884 15.47C 102.884 16.2406 102.98 16.9943 103.173 17.731C 103.366 18.4677 103.666 19.1306 104.074 19.72C 104.482 20.3093 105.003 20.7853 105.638 21.148C 106.273 21.5107 107.021 21.692 107.882 21.692ZM 119.986 6.698L 123.624 6.698L 123.624 10.098L 123.692 10.098C 123.805 9.62202 124.026 9.15732 124.355 8.70398C 124.684 8.25064 125.08 7.83701 125.545 7.46301C 126.01 7.08901 126.525 6.78868 127.092 6.56201C 127.659 6.33534 128.237 6.22198 128.826 6.22198C 129.279 6.22198 129.591 6.23331 129.761 6.25598C 129.931 6.27865 130.107 6.30131 130.288 6.32397L 130.288 10.064C 130.016 10.0187 129.738 9.97901 129.455 9.94501C 129.172 9.91101 128.894 9.89398 128.622 9.89398C 127.965 9.89398 127.347 10.0243 126.769 10.285C 126.191 10.5456 125.687 10.931 125.256 11.441C 124.825 11.951 124.485 12.58 124.236 13.328C 123.987 14.076 123.862 14.9373 123.862 15.912L 123.862 24.276L 119.986 24.276L 119.986 6.698Z" fill="white"/>
</g>
</g>
</g>
</g>
</g>
</svg>

