<?xml version="1.0" encoding="UTF-8"?>
<svg width="135px" height="34px" viewBox="0 0 135 34" version="1.1" xmlns="http://www.w3.org/2000/svg" xmlns:xlink="http://www.w3.org/1999/xlink">
    <!-- Generator: Sketch 51.2 (57519) - http://www.bohemiancoding.com/sketch -->
    <title>efforce</title>
    <desc>Created with Sketch.</desc>
    <defs>
        <polygon id="path-1" points="0 0.0387341772 29.9766838 0.0387341772 29.9766838 34 0 34"></polygon>
        <polygon id="path-3" points="0.166262963 0.279410256 10.9564074 0.279410256 10.9564074 16.927641 0.166262963 16.927641"></polygon>
    </defs>
    <g id="Page-1" stroke="none" stroke-width="1" fill="none" fill-rule="evenodd">
        <g id="Artboard-Copy" transform="translate(-1017.000000, -557.000000)">
            <g id="efforce" transform="translate(1017.000000, 557.000000)">
                <g id="Group-3">
                    <mask id="mask-2" fill="white">
                        <use xlink:href="#path-1"></use>
                    </mask>
                    <g id="Clip-2"></g>
                    <path d="M24.7283571,11.5049114 C21.7185,9.75068354 19.0052143,8.06531646 16.1809286,6.59643038 C15.4737857,6.2284557 14.2356429,6.23663291 13.5379286,6.61837975 C10.6763571,8.18367089 6.89207143,9.34827848 5.43664286,11.8345823 C4.02535714,14.2455696 5.05007143,18.0944557 5.0055,21.3119747 C5.00335714,21.4548608 4.95664286,21.6248608 5.01578571,21.7371899 C5.35178571,22.3728608 5.55878571,23.2430886 6.09278571,23.5792152 C8.62692857,25.1729114 11.2300714,26.6611646 13.8645,28.0822785 C14.3800714,28.3603038 15.2813571,28.4257215 15.7725,28.1588861 C18.7103571,26.5621772 21.5800714,24.8393671 24.5097857,23.1376456 C20.7889286,19.958 20.3205,19.9278734 16.3232143,22.1189367 C15.7146429,22.452481 14.7850714,22.7662278 14.2395,22.532962 C12.8277857,21.9291392 11.5476429,21.0150127 10.0549286,20.1301519 C11.7049286,19.1166076 13.1277857,18.2425063 14.7409286,17.2517722 C13.0712143,16.2227342 11.6676429,15.3581013 10.1963571,14.4517215 C14.3822143,11.3366329 14.3715,11.3564304 18.5299286,13.6021519 C19.0853571,13.9021266 19.9412143,14.1762785 20.4340714,13.9563544 C21.8449286,13.3271392 23.1405,12.4375443 24.7283571,11.5049114 Z M15.4656429,0.0387341772 C18.1605,1.71678481 20.6890714,3.81101266 23.5866429,4.98207595 C28.7012143,7.04832911 30.6546429,10.3639747 29.7717857,15.8341013 C29.3209286,18.6281266 29.7773571,21.5607342 29.6346429,24.421038 C29.5973571,25.1729114 29.0359286,26.1886076 28.4063571,26.5729367 C24.3246429,29.0644051 20.1795,31.4547342 15.9936429,33.7663038 C15.4086429,34.089519 14.3367857,34.0727342 13.7462143,33.7460759 C9.56164286,31.4327848 5.41607143,29.0424557 1.33307143,26.5527089 C0.704357143,26.1692405 0.111214286,25.1591392 0.0940714286,24.424481 C-0.0169285714,19.6954684 0.0932142857,14.9617215 0.000642857143,10.2318481 C-0.0246428571,8.93124051 0.510642857,8.33903797 1.53578571,7.74812658 C5.91792857,5.22093671 10.2550714,2.61541772 14.6085,0.0387341772 L15.4656429,0.0387341772 Z" id="Fill-1" fill="#FFFFFF" mask="url(#mask-2)"></path>
                </g>
                <path d="M86.7683175,14.4275811 C86.7420469,12.054116 84.8209046,10.178061 82.4501963,10.2114187 C80.0849964,10.2447764 78.2049549,12.1761461 78.2350389,14.5415884 C78.265123,16.8711395 80.2544841,18.8198215 82.5654479,18.783508 C84.9022587,18.7467723 86.7941644,16.7858451 86.7683175,14.4275811 M91,14.4862737 C91,19.141998 87.2166123,22.9582899 82.5586684,22.9996704 C77.8647084,23.0414731 73.9550525,19.101462 74.0003904,14.3747999 C74.0444572,9.73596563 77.9062329,5.95978737 82.5641768,6.00032333 C87.2589842,6.04085929 91,9.80394782 91,14.4862737" id="Fill-4" fill="#FFFFFF"></path>
                <path d="M97.227357,13.6749672 C98.9611695,13.7303479 100.815474,13.8994952 100.701324,11.7555317 C100.593515,9.73477967 98.8047416,9.95115083 97.227357,10.0103953 L97.227357,13.6749672 Z M93,6.00752887 C95.1223454,6.00752887 97.0781164,5.98778071 99.0334645,6.01225126 C101.652574,6.04530796 103.935998,6.73177122 104.981105,9.50638789 C105.993658,12.1960016 105.2056,14.8122037 102.699795,17.0244271 C103.807896,18.7794376 104.930372,20.5563428 106,22.2508209 C100.914826,24.8846246 99.9453966,19.9316998 97.7105922,17.3047651 C97.5550099,17.4254006 97.3998504,17.5464654 97.2446909,17.6671009 L97.2446909,22.5547708 L93,22.5547708 L93,6.00752887 Z" id="Fill-6" fill="#FFFFFF"></path>
                <g id="Group-10" transform="translate(124.000000, 6.000000)">
                    <mask id="mask-4" fill="white">
                        <use xlink:href="#path-3"></use>
                    </mask>
                    <g id="Clip-9"></g>
                    <path d="M0.166262963,16.927641 L0.166262963,0.279410256 L10.5087074,0.279410256 L10.5087074,4.10310256 L4.29696667,4.10310256 C4.25826296,5.02023077 4.22974444,5.69630769 4.19144815,6.60384615 L9.09907778,6.60384615 L9.09907778,10.5892564 L4.31407778,10.5892564 L4.31407778,13.0446667 L10.9564481,13.0446667 L10.9564481,16.927641 L0.166262963,16.927641 Z" id="Fill-8" fill="#FFFFFF" mask="url(#mask-4)"></path>
                </g>
                <path d="M35,7 L45.513483,7 L45.513483,10.7069811 L39.2458535,10.7069811 L39.2458535,13.2218512 L44.0953026,13.2218512 L44.0953026,16.910049 L39.2681936,16.910049 C39.2235135,17.7803402 39.1900034,18.4323281 39.1473918,19.2679745 L46,19.2679745 L46,23 L35,23 L35,15.130648 L35,7 Z" id="Fill-11" fill="#FFFFFF"></path>
                <path d="M122,9.41648372 C120.972913,10.2554962 120.057102,11.0041469 119.166064,11.7321074 C115.677917,9.80875476 113.586792,9.87589265 112.057919,11.9170532 C110.851953,13.5266735 110.946852,15.8672099 112.278789,17.3569109 C113.952529,19.2283267 116.06003,19.2004581 119.100139,17.2006781 C120.033167,17.9603074 120.995168,18.7427382 121.947932,19.5179908 C119.940368,22.5007708 116.571054,23.6509821 113.061911,22.6422248 C109.575444,21.6398013 107.097587,18.3728465 107.002688,14.6545055 C106.911149,11.0657955 109.165197,7.78026168 112.568103,6.54137769 C116.097401,5.25604611 119.600665,6.27704866 122,9.41648372" id="Fill-13" fill="#FFFFFF"></path>
                <path d="M53.011575,23 L49,23 L49,7 L60,7 L60,10.6868205 L53.2899915,10.6868205 L53.2899915,13.8163212 L58.787445,13.8163212 L58.787445,17.5452744 L53.2963577,17.5452744 C53.1974689,19.4420806 53.1074929,21.1691044 53.011575,23" id="Fill-15" fill="#FFFFFF"></path>
                <polygon id="Fill-17" fill="#FFFFFF" points="66.1987979 10.7625695 66.1987979 13.7924962 71.6819539 13.7924962 71.6819539 17.5901323 66.1314218 17.5901323 66.1314218 23 62 23 62 7 73 7 73 10.7625695"></polygon>
            </g>
        </g>
    </g>
</svg>