<?xml version="1.0" encoding="UTF-8"?>
<svg width="301px" height="153px" viewBox="0 0 301 153" version="1.1" xmlns="http://www.w3.org/2000/svg" xmlns:xlink="http://www.w3.org/1999/xlink">
    <!-- Generator: Sketch 53.2 (72643) - https://sketchapp.com -->
    <title>Group 2</title>
    <desc>Created with Sketch.</desc>
    <g id="Page-1" stroke="none" stroke-width="1" fill="none" fill-rule="evenodd">
        <g id="Group-2" transform="translate(1.000000, 0.000000)" fill="#FFFFFF" fill-rule="nonzero">
            <g id="Group" stroke="#FFFFFF">
                <path d="M26.2,76 L26.1,76.1 L26.1,76.2 C26.2,76.2 26.2,76.1 26.2,76 Z M26.9,76.2 L26.9,76.1 C26.9,76.2 26.9,76.3 26.9,76.4 L26.9,76.2 Z M50.3,35.7 L26.9,76.2 L50.3,35.7 L50.3,35.7 Z" id="Shape"></path>
                <g transform="translate(49.000000, 17.000000)" id="Path">
                    <polygon points="1 0.1 1 17.9 1 17.9 1 17.9 1 17.9"></polygon>
                    <path d="M51,104.4 C51,104.4 51,104.4 51,104.4 C51,104.4 51,104.3 51,104.4 C51,104.3 51,104.3 51,104.3 C51,104.3 51,104.4 51,104.4 Z"></path>
                </g>
                <g transform="translate(0.000000, 75.000000)" id="Path">
                    <polygon points="0.9 46 0.9 46 0.9 46 26.4 2"></polygon>
                    <path d="M26.2,1 L26.1,1.1 L26.1,1.2 C26.2,1.2 26.2,1.1 26.2,1 Z"></path>
                </g>
                <g transform="translate(0.000000, 120.000000)" id="Path">
                    <polygon points="41.1 1.7 41.1 1.7 48 23.7"></polygon>
                    <polygon points="0.9 1 0.9 1 1 1"></polygon>
                </g>
                <g transform="translate(60.000000, 120.000000)" id="Path">
                    <polygon points="0.2 1.6 0.2 1.6 38.4 1.7"></polygon>
                    <polygon points="0.4 1 0.4 1 0.4 1 0.4 1 21.6 1"></polygon>
                </g>
                <g transform="translate(40.000000, 120.000000)" id="Path">
                    <polygon points="0.9 1 19.7 1 19.7 1"></polygon>
                    <path d="M0.4,1.7 C3.3,10.9 6.1,20.1 9,29.2"></path>
                </g>
                <g transform="translate(1.000000, 75.000000)" id="Path">
                    <polygon points="0.2 44.1 0.2 44.1 25.1 1.1"></polygon>
                    <path d="M25.9,1.2 L25.9,1.1 C25.9,1.2 25.9,1.3 25.9,1.4 L25.9,1.2 Z"></path>
                    <path d="M25.2,1 L25.1,1.1 L25.1,1.2 C25.2,1.2 25.2,1.1 25.2,1 Z"></path>
                </g>
                <g id="Shape">
                    <path d="M60.4,121 L60.4,121 L60.4,121 L60.4,121 L69.8,91 L60.4,121 Z M50,34.9 L27,74.6 L50,34.9 L50,34.9 L50,34.9 L50,34.9 Z M26.9,76.2 L26.9,76.1 C26.9,76.2 26.9,76.3 26.9,76.4 L26.9,76.2 Z"></path>
                    <path d="M100,121.3 C100,121.3 100,121.3 100,121.3 C100,121.3 100,121.3 100,121.3 L83.4,47.6 L83.4,47.6 C83.4,47.6 83.4,47.5 83.4,47.5 C83.4,47.5 83.4,47.5 83.4,47.5 C83.4,47.5 83.4,47.5 83.4,47.5 L50.6,0.6 C50.5,0.5 50.4,0.5 50.3,0.5 L50.3,0.5 C50.2,0.5 50.1,0.6 50,0.6 L17.3,47.5 C17.3,47.5 17.3,47.5 17.3,47.5 C17.3,47.5 17.3,47.5 17.3,47.5 C17.3,47.5 17.3,47.5 17.3,47.5 L17.3,47.5 L0,121.2 C0,121.2 0,121.2 0,121.2 C0,121.2 0,121.2 0,121.2 C0,121.2 0,121.2 0,121.2 L0,121.2 C0,121.4 0,121.5 0.2,121.6 C0.2,121.6 0.3,121.6 0.3,121.6 C0.3,121.6 0.3,121.6 0.3,121.6 L0.3,121.6 L41.2,147 C42.3,147.2 47.9,150.8 48.7,151.2 C49.4,151.6 50,152 50.7,152.3 L99.8,121.6 C99.8,121.6 99.8,121.6 99.8,121.6 C99.8,121.6 99.8,121.6 99.8,121.6 C99.8,121.6 99.8,121.6 99.8,121.6 C99.8,121.6 99.8,121.6 99.8,121.6 C99.8,121.6 99.8,121.6 99.8,121.6 C99.8,121.6 99.8,121.6 99.8,121.6 C99.8,121.6 99.8,121.6 99.8,121.6 C99.8,121.6 99.8,121.6 99.8,121.6 L99.8,121.6 C99.8,121.6 99.8,121.6 99.8,121.6 C99.8,121.6 99.8,121.6 99.8,121.6 C99.8,121.6 99.8,121.6 99.8,121.6 C99.8,121.6 99.8,121.6 99.8,121.6 L99.8,121.6 C99.8,121.6 99.8,121.6 99.8,121.6 C100,121.4 100,121.4 100,121.3 C100,121.4 100,121.4 100,121.3 C100,121.4 100,121.4 100,121.3 C100,121.4 100,121.3 100,121.3 Z M50.7,1.8 L82.7,47.7 L74,75.3 L50.7,35 L50.7,35 L50.7,18.2 L50.7,1.8 Z M50,1.8 L50,17.1 L50,34.8 L50,34.8 L50,34.8 L27,74.6 L26.6,75.3 L18,47.7 L50,1.8 Z M1.2,119.1 L17.6,48.9 L26.1,76.1 L26.2,76 C26.2,76.1 26.1,76.2 26.2,76.3 L26.2,76.2 L1.2,119.1 L1.2,119.1 Z M49.7,151.5 L1.5,121.7 L40.3,121.8 L49.7,151.5 L49.7,151.5 Z M48,143.7 L41.1,121.7 L41.1,121.7 L59.5,121.6 L50.3,151.1 L48,143.7 Z M50.9,151.5 L60.2,121.7 L60.2,121.7 L98.4,121.8 L50.9,151.5 Z M74.5,76.1 L74.5,76.1 L83,49 L98.8,119.2 L74.5,76.1 Z"></path>
                </g>
            </g>
            <path d="M150.67,79.785 L135.73,79.785 C135.73,82.2450123 136.284995,84.1349934 137.395,85.455 C138.505006,86.7750066 140.12499,87.435 142.255,87.435 C143.515006,87.435 144.572496,87.2400019 145.4275,86.85 C146.282504,86.459998 147.159996,85.8150045 148.06,84.915 L150.265,86.85 C149.064994,88.050006 147.865006,88.9199973 146.665,89.46 C145.464994,90.0000027 143.965009,90.27 142.165,90.27 C139.104985,90.27 136.727509,89.3325094 135.0325,87.4575 C133.337492,85.5824906 132.49,82.7400191 132.49,78.93 C132.49,75.3599822 133.299992,72.57751 134.92,70.5825 C136.540008,68.58749 138.759986,67.59 141.58,67.59 C144.430014,67.59 146.657492,68.5424905 148.2625,70.4475 C149.867508,72.3525095 150.67,74.9849832 150.67,78.345 L150.67,79.785 Z M147.475,77.355 C147.355,75.6449914 147.115002,74.4150038 146.755,73.665 C145.704995,71.4449889 143.980012,70.335 141.58,70.335 C139.179988,70.335 137.455005,71.4449889 136.405,73.665 C136.044998,74.4450039 135.820001,75.6749916 135.73,77.355 L147.475,77.355 Z M176.696875,78.93 C176.696875,82.9800202 175.796884,85.9199909 173.996875,87.75 C172.376867,89.4300084 170.261888,90.27 167.651875,90.27 C165.041862,90.27 162.926883,89.4300084 161.306875,87.75 C159.506866,85.9199909 158.606875,82.9800202 158.606875,78.93 C158.606875,74.8499796 159.506866,71.910009 161.306875,70.11 C162.926883,68.4299916 165.041862,67.59 167.651875,67.59 C170.261888,67.59 172.376867,68.4299916 173.996875,70.11 C175.796884,71.910009 176.696875,74.8499796 176.696875,78.93 Z M173.456875,78.93 C173.456875,75.5399831 172.871881,73.2600058 171.701875,72.09 C170.62187,71.0099946 169.271883,70.47 167.651875,70.47 C166.061867,70.47 164.726881,71.0099946 163.646875,72.09 C162.446869,73.290006 161.846875,75.5699832 161.846875,78.93 C161.846875,82.2900168 162.446869,84.569994 163.646875,85.77 C164.726881,86.8500054 166.061867,87.39 167.651875,87.39 C169.271883,87.39 170.62187,86.8500054 171.701875,85.77 C172.871881,84.569994 173.456875,82.2900168 173.456875,78.93 Z M201.82375,83.52 C201.82375,85.6200105 201.006258,87.269994 199.37125,88.47 C197.736242,89.670006 195.553764,90.27 192.82375,90.27 C188.923731,90.27 185.893761,89.2050106 183.73375,87.075 L185.89375,84.915 C187.513758,86.6250086 189.808735,87.48 192.77875,87.48 C194.638759,87.48 196.086245,87.1500033 197.12125,86.49 C198.156255,85.8299967 198.67375,84.8550065 198.67375,83.565 C198.67375,81.6149903 197.443762,80.5350011 194.98375,80.325 L191.33875,80.01 C186.928728,79.6499982 184.72375,77.670018 184.72375,74.07 C184.72375,72.0899901 185.473743,70.5150058 186.97375,69.345 C188.473758,68.1749942 190.438738,67.59 192.86875,67.59 C196.198767,67.59 198.85374,68.384992 200.83375,69.975 L198.71875,72.09 C197.188742,70.9199942 195.223762,70.335 192.82375,70.335 C191.233742,70.335 190.011254,70.6499969 189.15625,71.28 C188.301246,71.9100031 187.87375,72.8099941 187.87375,73.98 C187.87375,74.970005 188.188747,75.7199974 188.81875,76.23 C189.448753,76.7400026 190.453743,77.0699992 191.83375,77.22 L195.29875,77.535 C197.398761,77.7450011 199.011244,78.2999955 200.13625,79.2 C201.261256,80.1000045 201.82375,81.5399901 201.82375,83.52 Z M244.2025,90 L224.4025,90 L224.4025,57.96 L227.8225,57.96 L227.8225,86.94 L244.2025,86.94 L244.2025,90 Z M255.064375,90 L251.824375,90 L251.824375,67.86 L255.064375,67.86 L255.064375,90 Z M255.289375,61.56 L251.644375,61.56 L251.644375,57.915 L255.289375,57.915 L255.289375,61.56 Z M273.89125,90 L271.59625,90 C269.766241,90 268.363755,89.4450056 267.38875,88.335 C266.413745,87.2249944 265.92625,85.8000087 265.92625,84.06 L265.92625,70.335 L263.13625,70.335 L263.13625,67.86 L265.92625,67.86 L265.92625,61.065 L269.16625,61.065 L269.16625,67.86 L273.89125,67.86 L273.89125,70.335 L269.16625,70.335 L269.16625,83.97 C269.16625,86.1300108 270.17124,87.21 272.18125,87.21 L273.89125,87.21 L273.89125,90 Z M299.288125,79.785 L284.348125,79.785 C284.348125,82.2450123 284.903119,84.1349934 286.013125,85.455 C287.12313,86.7750066 288.743114,87.435 290.873125,87.435 C292.133131,87.435 293.190621,87.2400019 294.045625,86.85 C294.900629,86.459998 295.77812,85.8150045 296.678125,84.915 L298.883125,86.85 C297.683119,88.050006 296.483131,88.9199973 295.283125,89.46 C294.083119,90.0000027 292.583134,90.27 290.783125,90.27 C287.72311,90.27 285.345633,89.3325094 283.650625,87.4575 C281.955616,85.5824906 281.108125,82.7400191 281.108125,78.93 C281.108125,75.3599822 281.918117,72.57751 283.538125,70.5825 C285.158133,68.58749 287.378111,67.59 290.198125,67.59 C293.048139,67.59 295.275617,68.5424905 296.880625,70.4475 C298.485633,72.3525095 299.288125,74.9849832 299.288125,78.345 L299.288125,79.785 Z M296.093125,77.355 C295.973124,75.6449914 295.733127,74.4150038 295.373125,73.665 C294.32312,71.4449889 292.598137,70.335 290.198125,70.335 C287.798113,70.335 286.07313,71.4449889 285.023125,73.665 C284.663123,74.4450039 284.438125,75.6749916 284.348125,77.355 L296.093125,77.355 Z" id="eosLite"></path>
        </g>
    </g>
</svg>