<?xml version="1.0" encoding="UTF-8"?>
<svg width="128px" height="29px" viewBox="0 0 128 29" version="1.1" xmlns="http://www.w3.org/2000/svg" xmlns:xlink="http://www.w3.org/1999/xlink">
    <!-- Generator: Sketch 51.2 (57519) - http://www.bohemiancoding.com/sketch -->
    <title>finamo</title>
    <desc>Created with Sketch.</desc>
    <defs>
        <polygon id="path-1" points="0.0993574921 0.0736244681 22.9757958 0.0736244681 22.9757958 23 0.0993574921 23"></polygon>
    </defs>
    <g id="Page-1" stroke="none" stroke-width="1" fill="none" fill-rule="evenodd">
        <g id="Artboard-Copy" transform="translate(-806.000000, -350.000000)">
            <g id="finamo" transform="translate(806.000000, 350.000000)">
                <path d="M30.6621297,28 L30.6621297,13.1943298 C29.4542501,13.0505033 28.4947152,12.9362881 27,12.7582575 C28.527367,11.6545401 29.7885143,10.7431151 31.0497808,9.83169018 C30.8757966,9.64181501 30.7018124,9.45193984 30.5278282,9.26206468 C30.6483063,8.43959459 30.7686652,7.61700364 30.9064226,6.67584647 C31.785758,6.57988155 32.5952613,6.49153098 33.5750547,6.38444671 C35.7120815,4.33268298 37.9480172,2.18592123 40.224708,0 L46.8204978,0 C43.4404371,3.38681216 40.3647296,6.46844622 37.2202626,9.61909284 C39.6854761,12.5235423 45.1848077,18.376677 45.1848077,18.376677 L45.1848077,6.63849992 L50,6.63849992 L50,27.986826 L46.0988208,27.986826 C42.9881973,24.4210163 39.7101437,20.6631559 36.431971,16.9052955 C36.2330808,16.9770879 36.0340715,17.0490012 35.8350621,17.1209144 L35.8350621,28 L30.6621297,28 Z" id="Fill-1" fill="#FEFEFE"></path>
                <path d="M79,29 L79,7.03529525 L82.6523454,7.03529525 C85.0758813,10.7303597 87.5743757,14.5398851 90.3073276,18.7069613 C93.3328359,14.8514527 95.5287067,10.7707504 98.1761477,7 L102,7 L102,28.9896848 L96.8396309,28.9896848 L96.8396309,19.0942148 C96.6521134,19.0217601 96.4644746,18.9493054 96.2769572,18.876975 C94.8345524,21.0483784 93.3920264,23.2199061 91.909474,25.4518334 L88.9224153,25.4518334 C87.4912907,23.2898752 85.9912722,21.0238955 84.4912538,18.75804 C84.3124693,18.8046446 84.1335636,18.8512493 83.9549005,18.8977296 L83.9549005,29 L79,29 Z" id="Fill-3" fill="#FEFEFE"></path>
                <g id="Group-7" transform="translate(105.000000, 6.000000)">
                    <mask id="mask-2" fill="white">
                        <use xlink:href="#path-1"></use>
                    </mask>
                    <g id="Clip-6"></g>
                    <path d="M11.4645969,5.03734255 C8.12779058,5.09215106 5.31287958,8.17280532 5.39729319,11.6774915 C5.48206806,15.1949011 8.45087435,18.1707096 11.7414398,18.0365021 C14.9708325,17.9047415 17.6974764,14.9200021 17.6896492,11.524933 C17.6815812,8.0165766 14.7708168,4.9830234 11.4645969,5.03734255 M11.433288,0.0736244681 C18.2691047,0.277321277 22.8736806,5.02412979 22.9743508,11.4832149 C23.0744188,17.9062096 17.9735969,22.9841936 11.5372094,22.9999755 C5.29,23.0152681 0.23204712,18.0236564 0.101874346,11.714683 C-0.0297434555,5.34013511 5.01701047,0.155347872 11.433288,0.0736244681" id="Fill-5" fill="#FEFEFE" mask="url(#mask-2)"></path>
                </g>
                <path d="M67.2030761,20.3911426 C66.2347441,17.9266696 65.8474829,15.6761751 64.2658781,13.5485385 C63.3885472,15.9925559 62.6502821,18.0490316 61.809447,20.3911426 L67.2030761,20.3911426 Z M59.8847099,25.517207 C59.3706675,26.7362403 58.907433,27.8348952 58.4162899,29 L53,29 C56.0267678,21.5329404 58.9566904,14.3047781 61.9179803,7 L67.0881023,7 C69.9892815,14.1598528 72.949021,21.464135 76,28.9934294 L70.6374997,28.9934294 C70.1157049,27.8383665 69.6232499,26.7482658 69.0671061,25.517207 L59.8847099,25.517207 Z" id="Fill-8" fill="#FEFEFE"></path>
                <path d="M0,7 L16,7 L16,11.4568708 L5.33464503,11.4568708 L5.33464503,16.5503664 L14.3613991,16.5503664 L14.3613991,21.2795255 L5.23614452,21.2795255 C5.11809148,23.9427017 5.00889241,26.4051135 4.89391366,29 L0,29 L0,7 Z" id="Fill-10" fill="#FEFEFE"></path>
                <path d="M16.8742482,28 L10,28 C14.6286628,23.4405754 18.894048,19.2389648 23.197445,15 L30,15 C25.4468797,19.509537 21.1468508,23.7684077 16.8742482,28" id="Fill-12" fill="#FEFEFE"></path>
            </g>
        </g>
    </g>
</svg>