<?xml version="1.0" encoding="UTF-8"?>
<svg width="142px" height="18px" viewBox="0 0 142 18" version="1.1" xmlns="http://www.w3.org/2000/svg" xmlns:xlink="http://www.w3.org/1999/xlink">
    <!-- Generator: Sketch 51.2 (57519) - http://www.bohemiancoding.com/sketch -->
    <title>GBCoin</title>
    <desc>Created with Sketch.</desc>
    <defs>
        <polygon id="path-1" points="0.0601768868 0.0427921569 20.9539882 0.0427921569 20.9539882 16 0.0601768868 16"></polygon>
        <polygon id="path-3" points="0 0.0581931818 18.9677919 0.0581931818 18.9677919 17.9637514 0 17.9637514"></polygon>
    </defs>
    <g id="Page-1" stroke="none" stroke-width="1" fill="none" fill-rule="evenodd">
        <g id="Artboard-Copy" transform="translate(-1026.000000, -917.000000)">
            <g id="GBCoin" transform="translate(1026.000000, 917.000000)">
                <g id="Group-3" transform="translate(110.000000, 2.000000)">
                    <mask id="mask-2" fill="white">
                        <use xlink:href="#path-1"></use>
                    </mask>
                    <g id="Clip-2"></g>
                    <path d="M9.73364858,16.0000209 C7.95152123,13.1360209 6.16959198,10.2719163 4.38558255,7.40917124 C4.36279953,7.37267451 4.31475708,7.35385098 4.23293632,7.29288366 C4.08662972,8.53460915 3.94220519,9.73492288 3.80471462,10.9360732 C3.69179009,11.9210667 3.583125,12.906583 3.47990802,13.8928314 C3.37956368,14.8514719 3.52418632,15.0541386 4.40925708,15.2404915 C4.46661085,15.2526222 4.51881368,15.2919425 4.56368632,15.4107399 L0.0801863208,15.4107399 C0.0735495283,15.379681 0.0668136792,15.3486222 0.0601768868,15.3174588 C0.169139151,15.2880732 0.276714623,15.2456157 0.387459906,15.2313935 C1.42676179,15.0983739 1.819125,14.7308967 1.96850236,13.6434196 C2.38761085,10.5948444 2.78770047,7.54344575 3.19680425,4.49340654 C3.39254009,3.03364183 3.59194104,1.57450458 3.78965802,0.115053595 L3.94814858,0.0457202614 C6.18464858,3.57251765 8.42124764,7.09941961 10.7077712,10.7050667 C12.8363986,7.12158954 14.9387759,3.58213856 17.0411533,0.0427921569 C17.0998939,0.0657986928 17.1588325,0.0888052288 17.2176722,0.11170719 C17.3302005,0.911079739 17.4460967,1.70992941 17.555059,2.50982484 C18.0621297,6.23071373 18.5632571,9.95243922 19.0759741,13.6723869 C19.2107901,14.6503739 19.6196958,15.0553935 20.5515212,15.2080732 C20.6897052,15.230766 20.8264033,15.2640209 20.9539882,15.4099033 L14.4027807,15.4099033 C14.3961439,15.3695373 14.3895071,15.3291712 14.3829693,15.2889098 C14.5081769,15.2624523 14.6332854,15.2352627 14.758691,15.209851 C15.3227193,15.0953412 15.5453986,14.8213542 15.4871533,14.1828183 C15.4067193,13.2997856 15.2825024,12.4209359 15.1689835,11.5414588 C14.9823608,10.0944523 14.7894976,8.64838693 14.5864316,7.10475294 C14.4528042,7.2998902 14.364842,7.41429542 14.2909458,7.53821699 C13.1666533,9.42381176 12.0468184,11.3122301 10.9203467,13.1964654 C10.4044599,14.059315 9.9874316,14.9578248 9.93176179,16.0000209 L9.73364858,16.0000209 Z" id="Fill-1" fill="#FFFFFF" mask="url(#mask-2)"></path>
                </g>
                <path d="M142,14.0286154 C141.85611,14.4259285 141.744016,14.8380635 141.562618,15.2178888 C140.94233,16.5165672 139.811367,17.2417756 138.485857,17.6144565 C136.337103,18.2187434 134.199882,18.1225608 132.112349,17.2559577 C131.3098,16.9228375 130.956596,16.3838097 131.004236,15.5274432 C131.05414,14.6310896 131.17906,13.7618207 131.632285,12.9674078 C131.681434,12.8813553 131.757421,12.8102313 131.864988,12.6781136 C131.909502,12.8117242 131.956388,12.8841277 131.953801,12.9547185 C131.874365,15.090996 133.610635,17.1686256 136.493819,16.9172926 C137.128658,16.8620569 137.818467,16.6689452 138.346925,16.3310265 C139.49772,15.5953682 139.562712,14.1100827 138.502886,13.2445459 C137.718014,12.603684 136.839585,12.0727603 135.988426,11.5143254 C135.076694,10.9162231 134.125728,10.3745295 133.230917,9.75328797 C130.90928,8.14153622 130.614926,5.02839747 132.594784,3.15592902 C133.362088,2.43018755 134.301737,2.01922551 135.358114,2.00227092 C136.432383,1.98499644 137.508484,2.07040916 138.5834,2.11850046 C139.279244,2.14953054 139.974442,2.19431624 140.752848,2.23750244 C140.632347,3.35426566 140.512924,4.46175184 140.383692,5.66030226 C140.248856,5.54194007 140.183863,5.51197631 140.183001,5.48030643 C140.143768,4.01965308 138.963549,3.00429746 137.288284,3.02743674 C136.606236,3.03682041 135.868141,3.12628516 135.258523,3.40203706 C133.832667,4.04716429 133.715615,5.62745942 135.015042,6.48787787 C136.504813,7.47433605 138.064858,8.35640091 139.568102,9.32377186 C140.148295,9.69719922 140.731615,10.1171184 141.174493,10.6329003 C141.553026,11.0737195 141.732484,11.6817385 142,12.2158612 L142,14.0286154 Z" id="Fill-4" fill="#FFFFFF"></path>
                <path d="M24.8071143,16.9270596 C25.577599,16.8716288 26.3059349,16.8823509 27.0077594,16.7547993 C28.2151628,16.5354026 29.094696,15.8344256 29.4454529,14.6767514 C29.6414916,14.0293845 29.70021,13.3171797 29.6827084,12.6376467 C29.6287537,10.5424031 28.3804442,9.28094792 26.2418314,9.06347308 C26.0398898,9.04293941 25.8408479,8.9947915 25.7026992,8.97031293 C26.3600966,8.67181608 27.0597464,8.44614801 27.6507621,8.06126813 C28.3169621,7.62743112 28.579279,6.87608086 28.6151107,6.12614671 C28.6492854,5.41343616 28.6263987,4.66603078 28.4415445,3.98214829 C28.0434607,2.50989424 26.4072163,1.71049721 24.8071143,2.12319364 L24.8071143,16.9270596 Z M19.1372167,17.8074787 C19.3246599,17.7784483 19.5119995,17.7491145 19.6994427,17.7204888 C20.4073773,17.6120548 20.8821989,17.1685073 21.0013962,16.4759258 C21.0440628,16.2286114 21.053901,15.9735084 21.0541081,15.7220468 C21.0572149,11.5767741 21.05649,7.43160262 21.0561793,3.28643113 C21.0560757,1.87183319 20.7319336,1.49565231 19.2942133,1.23063646 C19.2384982,1.22031905 19.1899286,1.17267689 19,1.06191645 C19.2800256,1.03258264 19.4157925,1.0059799 19.5516629,1.00587875 C21.8116478,1.00345112 24.0717363,0.992526806 26.3316177,1.00860983 C27.8419334,1.01933184 29.3187993,1.19968423 30.6893094,1.90359463 C32.0410751,2.59789569 32.6639871,3.71895317 32.6458642,5.15681585 C32.6274305,6.61905595 32.0258518,7.80252365 30.6052188,8.46526556 C30.3607142,8.57926284 30.0889734,8.63742471 29.7203006,8.75698529 C30.770086,8.92631221 31.6325318,9.25808777 32.408298,9.84415716 C34.5060048,11.4287901 34.8191695,15.537446 31.5784736,17.0889014 C30.3442482,17.6797249 29.0343206,17.9571823 27.6820371,17.976401 C24.9222727,18.0155465 22.1616799,17.993799 19.4013977,17.9954174 C19.3208282,17.9954174 19.2401551,17.9751872 19.1595856,17.964364 L19.1372167,17.8074787 Z" id="Fill-6" fill="#FFFFFF"></path>
                <g id="Group-10">
                    <mask id="mask-4" fill="white">
                        <use xlink:href="#path-3"></use>
                    </mask>
                    <g id="Clip-9"></g>
                    <path d="M12.1163511,9.42059659 L18.9472597,9.42059659 C18.9541038,9.45649432 18.9609478,9.49249432 18.9677919,9.52839205 C18.8756522,9.55692614 18.7851468,9.60294886 18.6911683,9.61133523 C17.663636,9.70327841 17.3928349,9.99536932 17.3908941,11.0346648 C17.3888511,12.1425852 17.4069317,13.2509148 17.3774102,14.3581193 C17.3709747,14.5990739 17.257179,14.887892 17.0953726,15.0659489 C16.0193188,16.2500625 14.6173027,16.9216875 13.1259048,17.3670852 C10.6606038,18.1034489 8.1494371,18.2171761 5.69189946,17.374142 C2.4694586,16.2685739 0.607356452,13.9682557 0.128679032,10.5834375 C-0.133030645,8.73301705 -0.0230145161,6.90274432 0.71349086,5.1643125 C1.87065215,2.43322159 4.00467903,0.872130682 6.85937796,0.326914773 C9.79743172,-0.234153409 12.6821629,0.113471591 15.5024371,1.08884659 C15.9959263,1.25953977 16.2277059,1.48617614 16.2033941,2.05951705 C16.1600823,3.07948295 16.2221898,4.10384659 16.2363887,5.12647159 C16.238636,5.28427841 16.220964,5.44228977 16.2123833,5.60030114 C16.1622274,5.60960795 16.1120715,5.61891477 16.0619156,5.62822159 C15.9951091,5.45425568 15.9192113,5.28315341 15.8628242,5.10591477 C15.1406199,2.83085795 13.582007,1.51235795 11.2407167,1.18805114 C9.08523817,0.889517045 7.12905538,1.30730114 5.68648548,3.11517614 C4.76733495,4.26707386 4.31828118,5.62188068 4.13859839,7.05973295 C3.8651414,9.2480625 3.93031344,11.420233 4.75763065,13.5015852 C5.95932957,16.5245625 9.02016828,17.7501989 11.9173618,16.3640966 C12.3666199,16.1491193 12.7746091,15.8105966 13.1380608,15.462767 C13.5801683,15.039767 13.7974425,14.5075398 13.766593,13.855142 C13.7215446,12.9026761 13.7581145,11.9466307 13.7540285,10.9921193 C13.7497382,9.98585795 13.4699478,9.69090341 12.467136,9.61419886 C12.3454747,9.60489205 12.2250392,9.5799375 12.1039909,9.56224432 C12.1080769,9.51499432 12.1121629,9.46774432 12.1163511,9.42059659" id="Fill-8" fill="#FFFFFF" mask="url(#mask-4)"></path>
                </g>
                <path d="M51.7016262,0.145542853 C51.5917878,1.44273974 51.4916244,2.62544768 51.3914609,3.80815562 C51.3502004,3.81259879 51.3090348,3.81693862 51.2677742,3.82138178 C51.2284108,3.74336811 51.1686542,3.67010759 51.1528139,3.58692745 C50.8608602,2.0541396 50.1922502,1.29601203 48.729731,1.06031775 C47.5271055,0.866575181 46.3544533,0.973107759 45.4687276,2.08079858 C44.8264864,2.88397776 44.800497,3.92729438 45.4794458,4.69017511 C45.8488934,5.10514585 46.2922305,5.45357247 46.736611,5.77565011 C48.1038042,6.76647542 49.4969868,7.71483236 50.8628521,8.70782758 C53.1371126,10.3614075 53.6742581,13.4090038 52.0967786,15.7181052 C51.2806741,16.912696 50.1202577,17.5265758 48.8121571,17.7885158 C46.9121816,18.1688712 45.0338323,18.0654385 43.2317438,17.2380802 C42.1593498,16.7457158 41.9649037,16.3724901 42.0047415,15.1048454 C42.0330073,14.2001968 42.1958678,13.3303702 42.59434,12.526571 C42.6404379,12.4335746 42.7188803,12.3596941 42.845792,12.1942638 C42.877757,12.5480635 42.9085838,12.7944007 42.9211043,13.0416679 C43.0221214,15.0319982 44.5668771,16.827346 46.6851065,16.9228223 C47.5996671,16.9639474 48.4738209,16.8823172 49.2732315,16.314419 C50.292793,15.5901835 50.9063891,13.6622641 49.5214586,12.4373978 C49.1054388,12.0694419 48.6702589,11.7246318 48.226163,11.3975944 C46.8788886,10.4053224 45.5033485,9.45706883 44.1745702,8.43658799 C41.5115123,6.39138982 42.126626,2.82900653 43.6493761,1.28423249 C44.447269,0.474956877 45.4073585,0.033430489 46.4728283,0.00470492481 C47.6054531,-0.0258805681 48.7413029,0.101111225 49.8762041,0.141926325 C50.4570763,0.162798857 51.0391815,0.145542853 51.7016262,0.145542853" id="Fill-11" fill="#FFFFFF"></path>
                <path d="M97.0267301,2.29856339 C100.587161,2.103341 104.16732,2.53328046 107.751226,2 L107.751226,5.76570494 C107.703684,5.77082083 107.656043,5.77573209 107.608402,5.78084798 C107.587689,5.63473814 107.557211,5.48944684 107.547939,5.34262077 C107.468932,4.08881824 106.760042,3.31877434 105.542688,3.27354987 C104.382936,3.23047407 103.22062,3.26423895 102.034533,3.26423895 L102.034533,9.18537103 C103.024928,9.18537103 103.993623,9.24369218 104.952455,9.16818163 C105.831097,9.09901479 106.364121,8.43681388 106.474888,7.49968499 C106.490965,7.36390924 106.530124,7.23110072 106.55853,7.09685974 C106.601239,7.10320345 106.643948,7.10954715 106.686657,7.11589086 L106.686657,12.2724019 C106.64237,12.2795641 106.59828,12.2867264 106.554092,12.2938886 C106.525192,12.1492112 106.484653,12.0057617 106.469068,11.8594472 C106.368263,10.9077892 105.801407,10.2806833 104.875618,10.2312638 C103.944503,10.1815373 103.008752,10.2203157 102.041832,10.2203157 L102.041832,16.0777038 C103.35792,15.9959519 104.683576,16.0520221 105.951234,15.7975576 C107.34554,15.5177184 108.137284,14.3829115 108.641309,13.049608 C108.706803,12.8761793 108.775946,12.7041831 108.849528,12.5344378 C108.858208,12.5144858 108.905947,12.5127464 108.993141,12.4828696 C108.993141,12.6034 109.010106,12.7098106 108.990675,12.8084449 C108.741325,14.0758557 108.482211,15.3413225 108.237201,16.6096542 C108.19035,16.852659 108.136396,17.0008152 107.843351,16.9999966 C104.310341,16.9897648 100.777231,16.993346 97.2441219,16.9912996 C97.1693565,16.9911973 97.0946897,16.9677665 97,16.8359812 C97.1364123,16.8026256 97.2713452,16.7600613 97.4095329,16.7376537 C98.1705028,16.6135422 98.5792466,16.1538283 98.5806275,15.3542145 C98.5868415,11.5358159 98.5868415,7.71731499 98.5806275,3.89891637 C98.5792466,3.09950726 98.1706014,2.63897477 97.4089411,2.51701193 C97.2741069,2.49542287 97.1401605,2.46728547 97.0058195,2.44221761 C97.0128226,2.39433287 97.0198257,2.34644813 97.0267301,2.29856339" id="Fill-13" fill="#FFFFFF"></path>
                <path d="M80.7344786,2.2371897 C80.6081736,3.3796533 80.4871359,4.4748962 80.3535214,5.68344744 C80.2170045,5.53794802 80.1592805,5.50565034 80.1574531,5.47036807 C80.0745756,3.84802286 78.747245,2.99964931 77.3168281,3.02832282 C76.6505829,3.04175354 75.946715,3.11967301 75.3319593,3.35417757 C74.0192479,3.85495141 73.5166079,5.56768746 75.0517236,6.53352648 C76.3357343,7.34128811 77.6330741,8.12837069 78.9246094,8.92440709 C79.2436503,9.12117774 79.5612938,9.32029343 79.8824846,9.5136531 C81.488546,10.4804515 82.1763973,11.8943008 81.9617326,13.7381462 C81.7520127,15.5391413 80.7272765,16.7451343 79.0665009,17.3842658 C76.7431349,18.2783677 74.4155766,18.1693231 72.1094096,17.2478268 C71.3025629,16.9254896 70.8908625,16.3668358 71.0250145,15.522193 C71.1571241,14.6905545 71.3858704,13.8737325 71.5823687,13.0527533 C71.6055873,12.9559669 71.6900772,12.8719716 71.7537134,12.78755 C71.7715573,12.7637797 71.8163822,12.7601556 71.8867905,12.7321216 C71.910869,12.8090818 71.9555863,12.8825243 71.9530065,12.954368 C71.8774385,15.0800453 73.5893811,17.1376096 76.431726,16.9172819 C77.050244,16.8693151 77.7218638,16.6987663 78.2436376,16.3817588 C79.4906705,15.6242025 79.5762354,14.1161249 78.4415333,13.200811 C77.6537129,12.5654102 76.7762429,12.0373486 75.9263988,11.4800805 C75.0309773,10.8929663 74.0986856,10.3592552 73.2213231,9.74741151 C70.9089215,8.13465968 70.6196563,5.01915997 72.5974304,3.15079816 C73.3638596,2.42671203 74.3019559,2.01771475 75.3558229,2.00193899 C76.4274263,1.98605663 77.5007496,2.07154421 78.5728904,2.11972424 C79.2666539,2.15084939 79.9597724,2.1946591 80.7344786,2.2371897" id="Fill-15" fill="#FFFFFF"></path>
                <path d="M54.0159051,3 L61.3446022,3 C61.3559485,3.03532297 61.3671935,3.07075076 61.3785398,3.10617855 C61.2259725,3.15460352 61.0752288,3.21068005 60.9205342,3.24988121 C60.362438,3.39148755 60.0688525,3.93936048 60.3474447,4.45002376 C61.3906965,6.36260027 62.4615036,8.25913995 63.5579412,10.2262208 C64.2566505,8.99494787 64.9189908,7.8275079 65.5817363,6.66017274 C65.9320533,6.04322609 66.2837886,5.4272228 66.6334978,4.80996171 C67.1243266,3.9434483 66.9312369,3.45123264 66.0075265,3.20166587 C65.9367134,3.18258937 65.8731944,3.13521257 65.821123,3.01205383 L70.9812583,3.01205383 C70.9875393,3.04758644 70.993719,3.08301423 71,3.11854683 C70.8874488,3.14737122 70.7759106,3.19516729 70.6620423,3.20198032 C69.6654927,3.26162059 68.9504732,3.80823574 68.4262133,4.63366129 C67.0732683,6.76341644 65.7351139,8.90323392 64.4061785,11.0491307 C64.2885619,11.2389524 64.2334513,11.5014115 64.23102,11.7310633 C64.215824,13.2157811 64.2211933,14.7007086 64.2239285,16.1855312 C64.2258534,17.1943847 64.5967356,17.6322009 65.5734292,17.8005353 C65.6703792,17.8173058 65.7625679,17.8626911 65.8385476,18 L59.0891197,18 C59.0796982,17.9598555 59.0704794,17.9196062 59.0611592,17.8794617 C59.2009618,17.8478073 59.3396501,17.8085013 59.480871,17.7856514 C60.2483672,17.6614445 60.6957356,17.1673421 60.7019153,16.372418 C60.7142746,14.7827794 60.7123498,13.193036 60.6979643,11.6035023 C60.6962421,11.4094879 60.6183376,11.1929382 60.5155118,11.0267001 C59.196403,8.89516309 57.8637193,6.77253543 56.540153,4.64393325 C56.0049521,3.78318473 55.2895273,3.24181038 54.2700825,3.20061772 C54.1793121,3.19684434 54.08996,3.15439388 54,3.12997177 C54.0052679,3.08668279 54.0106372,3.04328898 54.0159051,3" id="Fill-17" fill="#FFFFFF"></path>
                <path d="M87.2283932,3.34587465 C86.1037214,3.34587465 85.0712659,3.28933647 84.0477476,3.36131275 C82.9596373,3.43788979 82.2852811,4.21838258 82.2054552,5.31724773 C82.1933696,5.48491974 82.1701124,5.65167161 82.1520348,5.81883243 L82,5.80952868 L82,2 C84.3058107,2.53317657 86.659659,2.3203149 89.0001016,2.31111338 C91.3272398,2.30201411 93.6709322,2.55996319 96,2.00674778 L96,5.79725999 C95.9599855,5.80339434 95.9198694,5.80952868 95.8798549,5.81566302 C95.8554806,5.70555158 95.8182082,5.59646253 95.8088647,5.48502198 C95.6943054,4.11675698 95.0645339,3.42817708 93.7127748,3.32317759 C92.854494,3.25651774 91.9879869,3.2983335 91.125136,3.29424394 C91.0266231,3.29383499 90.9280087,3.31131786 90.7560682,3.32726715 L90.7560682,3.93293119 C90.7560682,7.64707085 90.7558651,11.3612105 90.7562713,15.0754524 C90.7563729,16.2670484 91.0466304,16.6194663 92.1954733,16.8333504 C92.253667,16.8441877 92.3069859,16.8820162 92.3516721,17 L85.6771708,17 C85.6695539,16.9681014 85.66214,16.9361006 85.6546246,16.904202 C85.7634966,16.8741437 85.8707436,16.834066 85.9815452,16.8154585 C86.8526224,16.6694612 87.2095031,16.2631633 87.2257526,15.3650956 C87.2367211,14.7519681 87.2282916,14.1384317 87.2283932,13.5250997 L87.2283932,3.96697679 L87.2283932,3.34587465 Z" id="Fill-19" fill="#FFFFFF"></path>
            </g>
        </g>
    </g>
</svg>