<svg width="197" height="51" viewBox="0 0 197 51" version="1.1" xmlns="http://www.w3.org/2000/svg" xmlns:xlink="http://www.w3.org/1999/xlink">
<g id="Canvas" fill="none">
<g id="gs">
<g id="Page 1">
<g id="Artboard Copy">
<g id="Group 2">
<g id="path2">
<path d="M 17.5321 47.0769L 19.7188 33.5107L 17.5321 29.4231L 13.6361 27.4615L 17.5321 47.0769ZM 25.8962 47.0358L 29.2202 27.4615L 25.3242 29.4231L 23.015 33.3462L 25.8962 47.0358ZM 32.9099 16.2014C 32.8693 16.1197 30.1131 15.9784 30.0725 15.9375C 29.8696 15.774 28.8956 15.6923 27.1505 15.6923C 25.7301 15.6923 24.0357 15.8864 22.0674 16.2746C 21.9253 16.3155 21.7123 16.3359 21.4282 16.3359C 21.1441 16.3359 20.931 16.3155 20.789 16.2746C 18.8207 15.8864 17.1263 15.6923 15.7059 15.6923C 13.9608 15.6923 12.9868 15.774 12.7839 15.9375C 12.7433 15.9784 10.0266 16.0808 9.98599 16.1625C 10.0266 16.5303 9.99566 16.5799 10.0362 16.7638C 10.0768 16.8251 12.7167 16.6961 12.8283 16.7676C 12.9399 16.8391 13.1998 17.3269 13.2404 17.47C 13.281 17.5517 13.3571 17.7611 13.4687 18.0983C 13.5803 18.4354 13.6513 18.6448 13.6818 18.7266C 13.7122 18.8083 13.7883 18.982 13.9101 19.2476C 14.0318 19.5132 14.118 19.6869 14.1688 19.7686C 14.2195 19.8504 14.3108 19.9934 14.4427 20.1977C 14.5746 20.402 14.6964 20.54 14.808 20.6115C 14.9196 20.683 15.0616 20.78 15.2341 20.9026C 15.4066 21.0252 15.5841 21.107 15.7668 21.1478C 15.9494 21.1887 16.1574 21.2296 16.3907 21.2704C 16.6241 21.3113 16.8727 21.3317 17.1365 21.3317C 17.867 21.3317 18.6678 21.3349 19.1345 21.0795C 19.6012 20.8241 19.931 20.5176 20.1237 20.1601C 20.3165 19.8025 20.4203 19.3918 20.5218 19.0445C 20.6232 18.6971 20.7254 17.683 20.8573 17.4276C 20.9892 17.1722 20.9966 16.9193 21.39 17.0445L 21.943 17.0308C 22.1662 17.0253 22.156 17.1722 22.2879 17.4276C 22.4198 17.683 22.3776 18.2608 22.4791 18.6081C 22.5805 18.9555 22.7421 19.6716 22.9349 20.0291C 23.1276 20.3867 23.4574 20.6932 23.9241 20.9486C 24.3908 21.204 24.9894 21.3317 25.7199 21.3317C 25.9837 21.3317 26.2323 21.3113 26.4656 21.2704C 26.699 21.2296 26.907 21.1887 27.0896 21.1478C 27.2722 21.107 27.4498 21.0252 27.6223 20.9026C 27.7947 20.78 27.9368 20.683 28.0484 20.6115C 28.16 20.54 28.2818 20.402 28.4136 20.1977C 28.5455 19.9934 28.6369 19.8504 28.6876 19.7686C 28.7383 19.6869 28.8246 19.5132 28.9463 19.2476C 29.0681 18.982 29.1442 18.8083 29.1746 18.7266C 29.205 18.6448 29.2761 18.4354 29.3877 18.0983C 29.4993 17.7611 29.5754 17.5517 29.6159 17.47C 29.6565 17.3269 29.8482 16.8706 29.9598 16.799C 30.0714 16.7275 32.7891 16.8725 32.8297 16.8112C 32.8703 16.6273 32.8693 16.5692 32.9099 16.2014ZM 42.8564 43.0619C 42.8564 45.5343 42.1157 47.4754 40.6344 48.8852C 39.1531 50.2951 37.1848 51 34.7295 51L 8.12688 51C 5.67157 51 3.70326 50.2951 2.22196 48.8852C 0.740652 47.4754 0 45.5343 0 43.0619C 0 41.8155 0.0456566 40.61 0.13697 39.4453C 0.228283 38.2807 0.582172 37.0232 0.715287 35.5989C 0.846092 34.1992 0.65457 33.3489 0.794428 31.896C 0.911136 30.6836 1.41513 29.6325 2.23694 28.6415C 3.05876 27.6505 5.55996 26.8894 6.63543 26.3582L 3.89603 19.6154L 10.4097 19.6154C 9.96329 18.3077 9.74008 17 9.74008 15.6923C 9.74008 15.4471 9.76038 15.1202 9.80096 14.7115C 5.86434 13.8942 1.35371 13.1462 1.35371 12.002C 1.35371 10.8373 6.02668 9.59315 10.288 8.73498C 10.6329 7.46815 11.1554 6.09916 11.8555 4.62801C 12.5556 3.15685 13.2709 1.99219 14.0014 1.13401C 14.6507 0.378005 15.4218 0 16.3146 0C 16.9234 0 17.7757 0.316707 18.8714 0.95012C 19.9672 1.58353 20.935 2.13297 21.5437 2.13297C 22.1525 2.13297 22.8892 1.58353 23.985 0.95012C 25.0807 0.316707 25.933 0 26.5417 0C 27.4346 0 28.2057 0.378005 28.855 1.13401C 29.5855 1.99219 30.3008 3.15685 31.0009 4.62801C 31.7009 6.09916 32.2234 7.46815 32.5684 8.73498C 36.8297 9.59315 41.9649 10.3718 41.9649 11.5365C 41.9649 12.6807 36.992 13.8942 33.0554 14.7115C 33.1974 16.3666 32.9945 18.0012 32.4467 19.6154L 38.9603 19.6154L 35.3204 26.9228C 37.4977 27.0211 40.2226 28.0893 41.1256 29.3868C 42.0286 30.6842 42.4542 31.8507 42.5473 33.5381C 42.6466 35.3372 42.4505 37.0496 42.6129 38.5105C 42.7752 39.9715 42.8564 41.4886 42.8564 43.0619Z" fill="white"/>
</g>
<g id="Global Spy">
<path fill-rule="evenodd" clip-rule="evenodd" d="M 17.389 12.7876L 17.389 21.5166C 15.9747 22.2575 13.4033 23.1272 10.4462 23.1272C 4.14635 23.1272 0 18.7143 0 12.4977C 0 5.99116 4.37135 1.41726 10.9284 1.41726C 13.4033 1.41726 15.4604 2.02926 16.714 2.54463L 16.714 4.79937C 15.2033 4.02632 13.339 3.44653 11.0569 3.44653C 5.59276 3.44653 2.5071 7.08632 2.5071 12.24C 2.5071 17.6836 5.72132 21.0657 10.7355 21.0657C 12.5033 21.0657 14.0783 20.6792 15.0426 20.196L 15.0426 12.7876L 17.389 12.7876ZM 22.1139 20.0349L 22.1139 0L 24.4603 0L 24.4603 19.2941C 24.4603 20.5503 24.846 20.9046 25.6495 20.9046C 25.9067 20.9046 26.3567 20.7758 26.5817 20.6792L 27.0959 22.5474C 26.4852 22.8373 25.6817 22.9983 24.9745 22.9983C 23.046 22.9983 22.1139 21.8709 22.1139 20.0349ZM 35.9672 23.1272C 31.7244 23.1272 28.9602 19.6162 28.9602 15.1712C 28.9602 10.6939 31.6923 7.18295 35.9993 7.18295C 40.21 7.18295 43.0064 10.6939 43.0064 15.1712C 43.0064 19.6162 40.2421 23.1272 35.9672 23.1272ZM 35.9672 21.0979C 38.7636 21.0979 40.5314 18.6499 40.5314 15.1712C 40.5314 11.6602 38.7636 9.21221 35.9993 9.21221C 33.1708 9.21221 31.403 11.6602 31.403 15.1712C 31.403 18.6499 33.1708 21.0979 35.9672 21.0979ZM 50.7205 23.1272C 48.8241 23.1272 47.3456 22.6762 46.4777 22.1931L 46.4777 0L 48.8241 0L 48.8241 7.89158C 49.8205 7.50505 50.8169 7.18295 52.2633 7.18295C 56.0561 7.18295 59.0775 9.792 59.0775 14.7524C 59.0775 20.0672 55.5419 23.1272 50.7205 23.1272ZM 51.0419 21.0979C 54.3526 21.0979 56.6347 18.6821 56.6347 14.8491C 56.6347 11.5314 55.0276 9.21221 51.9419 9.21221C 50.3027 9.21221 49.3705 9.792 48.8241 10.0175L 48.8241 20.6792C 49.6277 20.9691 50.3991 21.0979 51.0419 21.0979ZM 71.388 22.8051L 70.938 21.0979C 69.7487 22.2253 68.2702 23.1272 66.3738 23.1272C 63.6096 23.1272 61.5525 21.3556 61.5525 18.4244C 61.5525 16.3952 62.581 15.0101 64.1238 14.3015C 65.1524 13.7861 66.3738 13.6251 67.9166 13.5606L 70.8094 13.464L 70.8094 12.4977C 70.8094 10.1785 69.4273 9.14779 67.5309 9.14779C 65.6988 9.14779 64.4131 9.75979 63.3524 10.404L 62.4524 8.72905C 64.2203 7.60168 66.1167 7.18295 67.7881 7.18295C 70.938 7.18295 73.188 8.72905 73.188 12.3688L 73.188 17.6192C 73.188 20.6147 73.2844 22.032 73.4772 22.8051L 71.388 22.8051ZM 70.8094 15.2678L 68.1416 15.3644C 66.8238 15.3966 65.9559 15.5899 65.281 15.9442C 64.4131 16.4274 63.9631 17.2971 63.9631 18.2956C 63.9631 19.9705 65.056 21.1301 66.7916 21.1301C 68.688 21.1301 70.1023 19.8739 70.8094 19.1331L 70.8094 15.2678ZM 77.3664 20.0349L 77.3664 0L 79.7128 0L 79.7128 19.2941C 79.7128 20.5503 80.0985 20.9046 80.9021 20.9046C 81.1592 20.9046 81.6092 20.7758 81.8342 20.6792L 82.3485 22.5474C 81.7378 22.8373 80.9342 22.9983 80.2271 22.9983C 78.2986 22.9983 77.3664 21.8709 77.3664 20.0349ZM 91.8948 21.5166L 92.8912 19.6484C 93.9197 20.3248 95.5268 21.0657 97.4875 21.0657C 99.7696 21.0657 101.762 20.1316 101.762 17.6192C 101.762 12.5299 92.4412 13.1419 92.4412 6.79642C 92.4412 3.80084 94.7233 1.41726 98.6768 1.41726C 100.605 1.41726 102.309 1.90042 103.273 2.38358L 103.273 4.60611C 101.955 3.86526 100.348 3.44653 98.7411 3.44653C 96.8447 3.44653 94.9161 4.284 94.9161 6.57095C 94.9161 11.3703 104.237 10.8549 104.237 17.4581C 104.237 21.0013 101.505 23.1272 97.4554 23.1272C 95.0447 23.1272 93.1483 22.3863 91.8948 21.5166ZM 108.062 30.4389L 108.062 8.11705C 109.669 7.50505 111.437 7.18295 113.077 7.18295C 117.898 7.18295 120.791 10.0819 120.791 15.1067C 120.791 20.0672 117.512 23.1272 113.109 23.1272C 112.144 23.1272 111.18 22.9017 110.441 22.5796L 110.441 30.4389L 108.062 30.4389ZM 110.441 20.4537C 111.309 20.8724 112.048 21.0979 113.044 21.0979C 116.484 21.0979 118.348 18.6821 118.348 15.0423C 118.348 11.016 116.034 9.21221 113.012 9.21221C 112.08 9.21221 111.277 9.34105 110.441 9.59874L 110.441 20.4537ZM 136.733 7.56947L 131.044 23.9968C 129.083 29.6015 126.769 30.4389 124.294 30.4389C 123.169 30.4389 122.366 30.2457 121.594 29.9236L 122.173 27.9587C 122.751 28.2164 123.458 28.4097 124.262 28.4097C 126.255 28.4097 127.894 26.9602 129.083 22.9017L 122.398 7.56947L 124.969 7.56947L 130.144 19.9061L 130.208 19.9061L 134.258 7.56947L 136.733 7.56947Z" transform="translate(60.2666 10.7368)" fill="white"/>
</g>
</g>
</g>
</g>
</g>
</g>
</svg>

