<?xml version="1.0" encoding="UTF-8"?>
<svg width="184px" height="31px" viewBox="0 0 184 31" version="1.1" xmlns="http://www.w3.org/2000/svg" xmlns:xlink="http://www.w3.org/1999/xlink">
    <!-- Generator: Sketch 51.2 (57519) - http://www.bohemiancoding.com/sketch -->
    <title>helios neural</title>
    <desc>Created with Sketch.</desc>
    <defs>
        <polygon id="path-1" points="8.1152071e-05 0.235973226 31.324258 0.235973226 31.324258 30.789826 8.1152071e-05 30.789826"></polygon>
        <polygon id="path-3" points="0 30.8001714 183.885216 30.8001714 183.885216 0.246318608 0 0.246318608"></polygon>
    </defs>
    <g id="Page-1" stroke="none" stroke-width="1" fill="none" fill-rule="evenodd">
        <g id="Artboard-Copy" transform="translate(-341.000000, -785.000000)">
            <g id="helios-neural" transform="translate(341.000000, 785.000000)">
                <g id="Group-3" transform="translate(0.000000, 0.010345)">
                    <mask id="mask-2" fill="white">
                        <use xlink:href="#path-1"></use>
                    </mask>
                    <g id="Clip-2"></g>
                    <path d="M9.74337885,8.33795877 C11.9218206,6.3977071 14.0482892,4.50400964 16.1742651,2.61031218 C16.120075,2.53001232 16.0656386,2.45020509 16.0112021,2.37015154 C12.6213655,3.33645944 9.23103614,4.30301365 5.57492905,5.345434 C7.10358233,6.4427834 8.38936546,7.36598554 9.74337885,8.33795877 Z M29.3360535,11.1989494 C26.5676787,8.56531084 24.0010388,6.12355448 21.4343989,3.68179813 C22.1502008,6.32036305 23.0625649,8.80744203 24.0397108,11.2689039 C24.143411,11.5307406 24.6431914,11.8189333 24.9316305,11.7923309 C26.3001767,11.6669548 27.6593628,11.4366469 29.3360535,11.1989494 Z M12.8649746,24.107276 C9.77244444,23.0301248 6.78607764,21.9901676 3.79946452,20.9502104 C3.76448728,21.0135143 3.72951004,21.0768182 3.6945328,21.1403684 C6.31117537,23.6328664 8.92806426,26.1253644 11.6996412,28.7656535 C12.1149344,27.1062051 12.467909,25.6950458 12.8649746,24.107276 Z M13.0211406,29.0959668 C16.716905,28.0424621 20.1929531,27.0515224 23.6690013,26.0605826 C23.6655529,25.9913671 23.6618581,25.9223979 23.6584096,25.8531823 C20.5215422,25.3886254 17.3846747,24.9240685 14.1628273,24.4471957 C13.7800482,26.0051609 13.4251031,27.4503122 13.0211406,29.0959668 Z M1.98064793,16.2334554 L2.21292637,16.3507031 C4.36919946,14.0340766 6.52522624,11.7172037 8.77189826,9.30303507 C7.31073628,8.25642731 5.95228916,7.28346881 4.44605087,6.20434699 C3.58295047,9.71586506 2.78167604,12.9746602 1.98064793,16.2334554 Z M24.6646212,13.235019 C25.5523534,16.4896268 26.3797376,19.5227941 27.2068755,22.5557151 C27.2842195,22.5623657 27.3615636,22.56877 27.4391539,22.5751743 C28.2554538,19.2767218 29.0717537,15.9782693 29.9338688,12.4953242 C28.0850013,12.754944 26.44649,12.9850056 24.6646212,13.235019 Z M22.7384096,11.6977446 C21.4412959,8.27071379 20.2579813,5.14468434 19.0263882,1.89155448 C16.3836359,4.23946345 13.8812851,6.46248889 11.1956734,8.84857724 C15.1182972,9.81660937 18.7938635,10.7240471 22.7384096,11.6977446 Z M12.679004,22.6335518 C11.5742651,18.5040203 10.5461312,14.6614501 9.4475502,10.5560578 C6.81021687,13.3968503 4.35712985,16.03911 1.78211513,18.8124112 C5.46383936,20.1036134 8.92190629,21.3159936 12.679004,22.6335518 Z M15.0000643,23.2188048 C18.973676,23.8008557 22.6356948,24.3375839 26.4425489,24.8952493 C25.4420027,21.2273189 24.4917055,17.7433885 23.4785971,14.0289039 C20.5969157,17.1522238 17.909826,20.064695 15.0000643,23.2188048 Z M13.9842463,22.3295946 C16.9048461,19.161691 19.6584418,16.1750779 22.5581044,13.0300819 C18.556166,12.0440685 14.7722195,11.1117526 10.7355502,10.1173644 C11.8331459,14.2427084 12.8696546,18.1389762 13.9842463,22.3295946 Z M11.881917,30.7898999 C8.13590361,27.2266549 4.40072825,23.6520793 0.632792503,20.1124809 C0.0472931727,19.5624514 -0.116016064,19.0328664 0.0775903614,18.2678008 C1.15375636,14.0163416 2.17253012,9.75010335 3.2881071,5.50923588 C3.41446854,5.02940723 3.9553842,4.44169103 4.42289692,4.30252102 C9.13669612,2.89973655 13.8689692,1.5568075 18.6162677,0.273241232 C19.0859973,0.146387149 19.8481071,0.356496921 20.2109344,0.693707095 C23.7874806,4.01974726 27.3251084,7.38864685 30.8193842,10.8011448 C31.1735904,11.1469762 31.4073467,11.913766 31.2965033,12.3923631 C30.2900455,16.7448129 29.2261954,21.0849467 28.0798286,25.402173 C27.9524819,25.8824942 27.2672236,26.4014876 26.7383775,26.5593778 C22.2221258,27.9069869 17.6817349,29.1738035 13.1507041,30.4716562 C12.8834485,30.548015 12.6326961,30.6822586 12.3745542,30.7898999 L11.881917,30.7898999 Z" id="Fill-1" fill="#FFFFFF" mask="url(#mask-2)"></path>
                </g>
                <path d="M85.9582972,21.0406833 L85.9582972,13.6205815 C86.568921,13.5284584 87.1807764,13.1924798 87.182747,14.2046029 C87.1886586,17.232105 87.1847175,20.2598533 87.1847175,23.2659256 C86.0794859,23.6324477 85.4570388,23.3937649 84.9567657,22.3634142 C83.7495582,19.8773205 82.403427,17.4587181 80.898913,15.073615 L80.898913,23.3272589 C80.4693333,23.3637141 80.1301526,23.3925333 79.7089478,23.4282495 L79.7089478,13.6838854 C81.540573,13.2402656 81.5491941,13.2449456 82.3773173,14.8189216 C83.479593,16.9138613 84.5838394,19.0078158 85.6871004,21.1022629 C85.7774993,21.0818185 85.8678983,21.0611277 85.9582972,21.0406833" id="Fill-4" fill="#FFFFFF"></path>
                <path d="M129.867717,15.1048728 L129.867717,23.2925033 C129.475578,23.3489103 129.137629,23.3974351 128.700413,23.4602463 L128.700413,13.6284391 C130.029302,13.2183186 130.824172,13.5833628 131.413859,14.8927925 C132.352333,16.975909 133.511755,18.9595127 134.88104,20.9756305 L134.88104,19.2656867 C134.881286,17.6658474 134.906164,16.0655154 134.871187,14.4666613 C134.853206,13.6429719 135.121939,13.3084712 136.025929,13.6208032 L136.025929,23.2925033 C135.010603,23.6412905 134.399733,23.3769906 133.905126,22.3599411 C132.7058,19.8950308 131.378389,17.4926854 130.102459,15.0649692 C130.024376,15.0782704 129.9458,15.0915716 129.867717,15.1048728" id="Fill-6" fill="#FFFFFF"></path>
                <path d="M40.1633574,18.6365644 L35.252996,18.6365644 L35.252996,23.3400182 C34.7778474,23.3693301 34.3982704,23.3929767 33.9450442,23.421057 L33.9450442,13.5720075 L35.1963427,13.5720075 L35.1963427,17.3214693 L40.0874913,17.3214693 L40.0874913,13.60797 C40.5687979,13.5596916 40.9138902,13.525207 41.3538153,13.4808696 L41.3538153,23.3230222 L40.1633574,23.3230222 L40.1633574,18.6365644 Z" id="Fill-8" fill="#FFFFFF"></path>
                <path d="M151.505501,16.1460616 C152.526985,15.7270736 152.848184,16.1603481 153.016912,16.9973387 C153.306583,18.4373173 153.676307,19.8615315 154.220425,21.3258956 C154.706412,19.8415797 155.164072,18.3469183 155.699076,16.8805837 C155.825437,16.5347523 156.213143,16.2844926 156.480645,15.9898956 C156.746915,16.2881874 157.129941,16.5431272 157.259012,16.8921606 C157.796725,18.3456867 158.257833,19.8272932 158.872398,21.675668 C159.281041,19.8649799 159.634754,18.419336 159.925657,16.9613762 C160.079606,16.1901526 160.376912,15.7627898 161.361941,16.116257 C160.785555,18.3784471 160.221485,20.655909 159.603472,22.9183454 C159.545095,23.1323963 159.127092,23.4107363 158.915997,23.3804391 C158.639135,23.3407818 158.264484,23.075004 158.170144,22.8185863 C157.59499,21.2601285 157.087327,19.6765462 156.435322,17.7387577 C155.822728,19.5772798 155.36556,21.0731727 154.809127,22.5316252 C154.672173,22.8905114 154.213036,23.1264846 153.901935,23.4191111 C153.655124,23.1112129 153.280966,22.8392771 153.182192,22.4895047 C152.593491,20.4061419 152.068339,18.3047979 151.505501,16.1460616" id="Fill-10" fill="#FFFFFF"></path>
                <path d="M116.270167,19.4297596 C115.288587,19.6177007 114.326959,19.6610527 113.503023,20.019939 C113.099061,20.1955641 112.711848,20.9830447 112.761851,21.4456311 C112.801262,21.808212 113.490707,22.3077462 113.949599,22.3809028 C115.744523,22.6676177 116.571168,21.6655936 116.270167,19.4297596 M116.311794,18.397192 C116.191591,16.8259256 115.480469,16.6264075 112.220196,17.2596926 C111.900967,16.5283727 111.948014,16.0155373 112.910873,15.9431197 C113.563125,15.8943486 114.216855,15.7748841 114.86615,15.7963138 C116.813053,15.8601103 117.615066,16.6813365 117.643885,18.6107502 C117.667039,20.1632964 117.648812,21.7163352 117.648812,23.56003 C117.013802,23.3321853 116.559837,23.1693687 116.081979,22.9979309 C115.485888,23.1846404 114.803339,23.5018988 114.090493,23.598702 C112.784512,23.776544 111.657604,22.9417703 111.423602,21.758702 C111.167677,20.4642977 111.743077,19.3802495 113.071966,18.994022 C114.121529,18.6890795 115.230702,18.5880889 116.311794,18.397192" id="Fill-12" fill="#FFFFFF"></path>
                <path d="M183.543769,16.355457 C182.991769,16.8419363 182.432379,17.320287 181.889739,17.8171116 C181.375672,18.2873339 180.879094,18.7767689 180.276106,19.3516766 C181.468534,20.6761317 182.604556,21.9377756 183.885166,23.3600193 C181.301777,23.6873767 180.964567,21.1446297 179.294526,20.3391679 C178.285605,20.6817971 178.581434,21.653524 178.604342,22.4446993 C178.628727,23.2853847 178.341766,23.5920514 177.432111,23.3376043 L177.432111,13.12154 C177.7607,13.1065146 178.099881,13.0909965 178.549659,13.0703058 L178.549659,19.3699041 C180.467742,18.5651813 180.94831,15.8756284 183.309766,15.9753874 C183.387603,16.1019952 183.465932,16.2288493 183.543769,16.355457" id="Fill-14" fill="#FFFFFF"></path>
                <path d="M94.6010999,18.8611084 C94.5082378,17.3735904 93.9673221,16.7954806 92.775879,16.7723266 C91.4839379,16.7469558 90.6991668,17.4967497 90.6215764,18.8611084 L94.6010999,18.8611084 Z M95.8001788,19.8091888 L93.1694961,19.8091888 L90.60729,19.8091888 C90.4215657,22.3103079 92.1911186,22.9985221 95.6536193,21.839593 C95.9972337,22.6802784 95.6683984,23.0923695 94.8407679,23.3502651 C91.3804841,24.4281553 88.8522699,22.5019438 89.2372659,19.0488032 C89.474717,16.9191325 91.1240664,15.5732477 93.226642,15.7937028 C95.1082699,15.991004 96.0181708,17.3376278 95.8001788,19.8091888 Z" id="Fill-16" fill="#FFFFFF"></path>
                <path d="M163.795938,19.6799207 C163.851606,19.7030747 163.906781,19.7262286 163.962449,19.7496289 C163.991022,19.9922527 164.011713,20.2361082 164.0494,20.4772541 C164.249903,21.7632835 164.882696,22.4150426 165.973641,22.4660305 C167.157202,22.5212059 167.932613,21.929056 168.111686,20.6041082 C168.217111,19.8210613 168.19174,18.9574683 167.967836,18.2066892 C167.559933,16.8386356 165.577068,16.3982179 164.696725,17.4933505 C164.223054,18.0827909 164.085362,18.9421965 163.795938,19.6799207 M169.514963,19.7018431 C169.514224,22.0921189 168.146171,23.6495914 166.065518,23.6293933 C164.032157,23.6094415 162.699327,22.0891631 162.671986,19.7584964 C162.643659,17.3741323 163.994471,15.7927668 166.070937,15.7787266 C168.16292,15.7644402 169.515702,17.305902 169.514963,19.7018431" id="Fill-18" fill="#FFFFFF"></path>
                <path d="M64.4484755,19.5453323 C64.4322185,19.3778356 64.4169467,19.0923523 64.3743336,18.8108102 C64.2090538,17.720604 63.6573001,17.0050485 62.4850699,16.9301676 C61.3212145,16.8560257 60.5509762,17.3989119 60.3531823,18.6410967 C60.2290378,19.420695 60.2600739,20.2700016 60.4322506,21.0409788 C60.6669922,22.0930056 61.4675277,22.5459855 62.5496054,22.459774 C63.8016428,22.360015 64.4600525,21.390505 64.4484755,19.5453323 M58.9294608,19.700513 C58.9292145,17.2897928 60.2645076,15.7658195 62.365359,15.7786281 C64.4393617,15.7914367 65.7968236,17.381177 65.7648021,19.7596295 C65.7332734,22.0915277 64.3984728,23.6122988 62.3683149,23.6292948 C60.2807647,23.6467834 58.9297071,22.103351 58.9294608,19.700513" id="Fill-20" fill="#FFFFFF"></path>
                <path d="M143.554756,18.8332005 C143.48086,17.4065232 142.954723,16.8170827 141.779291,16.7722527 C140.492523,16.7232353 139.684844,17.4634228 139.57203,18.8332005 L143.554756,18.8332005 Z M139.555034,19.8051738 C139.482863,22.3934897 141.214482,23.0361349 144.573529,21.8212916 C144.966407,22.7464643 144.527468,23.1408203 143.668308,23.3854147 C140.0792,24.4066517 137.586456,22.2422501 138.255457,18.6585606 C138.61927,16.7111657 140.342761,15.5088846 142.338681,15.8103786 C144.137053,16.0818217 145.046461,17.5274656 144.733636,19.8051738 L139.555034,19.8051738 Z" id="Fill-22" fill="#FFFFFF"></path>
                <path d="M48.8077119,18.838989 C48.7848043,17.4054147 48.2613772,16.815728 47.0711657,16.7733612 C45.7880921,16.7275459 45.0050452,17.4421162 44.8774522,18.838989 L48.8077119,18.838989 Z M50.0673853,19.8089917 L47.3238886,19.8089917 L44.791487,19.8089917 C44.9826303,22.4997762 46.5546356,23.0520225 49.9198404,21.7967829 C50.339321,22.804226 49.7892916,23.15523 48.9210185,23.3951443 C45.4341323,24.3587427 42.884981,22.2369542 43.5138324,18.8680546 C43.9113906,16.7393692 45.4797012,15.5452166 47.5445901,15.7994174 C49.3712889,16.02406 50.2191175,17.2908766 50.0673853,19.8089917 Z" id="Fill-24" fill="#FFFFFF"></path>
                <path d="M102.70146,16.0449232 L103.865069,16.0449232 L103.865069,23.5256193 C103.329818,23.3369392 102.88275,23.179049 102.230991,22.9489874 C102.124089,23.0044091 101.777519,23.2169821 101.406316,23.3709312 C99.5012884,24.1606286 97.8925815,23.1861922 97.7906056,21.121796 C97.7162174,19.6093997 97.7649885,18.0908455 97.7662201,16.5750008 C97.7662201,16.4195738 97.8152375,16.2641467 97.8507074,16.0547759 L98.8630768,16.0547759 C98.9091384,16.2124198 98.9899309,16.3621815 98.9914088,16.5124359 C99.0074195,17.8644787 98.9864825,19.2172605 99.0221987,20.5685644 C99.0593928,21.9804627 99.4769028,22.4509312 100.575976,22.4262993 C101.945508,22.3960021 102.694316,21.7181333 102.699982,20.4880182 C102.706386,19.0571534 102.70146,17.6260423 102.70146,16.0449232" id="Fill-26" fill="#FFFFFF"></path>
                <path d="M72.9008739,17.5061098 C71.7380037,17.2339277 70.8702233,16.8745489 70.0086008,16.889328 C69.5132541,16.8977028 69.0280064,17.5115288 68.538325,17.8529264 C68.9467213,18.2288086 69.3009274,18.7133173 69.7782929,18.9515074 C70.3120653,19.2180241 71.0433853,19.1261473 71.5310961,19.4372477 C72.0971363,19.7985971 72.8390479,20.4062651 72.8735325,20.9471807 C72.9168846,21.6299759 72.5104589,22.6046586 71.9670801,23.0098527 C70.6409007,23.9985756 69.0762849,23.7815689 67.6491149,23.1170013 C67.3490988,22.9773387 67.305993,22.2854297 67.1788926,21.94083 C68.4122099,22.1455207 69.4745821,22.4278019 70.5404027,22.4423347 C70.9271229,22.4475074 71.3227106,21.812498 71.7141108,21.4693762 C71.3724669,21.1269933 71.0884616,20.6565248 70.6761242,20.4720321 C70.0519529,20.1927068 69.2403331,20.2638929 68.6905499,19.9062383 C68.1089917,19.5278929 67.396392,18.8374618 67.3702822,18.2551647 C67.3404776,17.5952771 67.8459234,16.6723213 68.4090078,16.2745167 C69.5972487,15.434324 71.0081617,15.6513307 72.280151,16.2203266 C72.5796744,16.3545703 72.6602206,16.9777564 72.9008739,17.5061098" id="Fill-28" fill="#FFFFFF"></path>
                <path d="M150.446627,17.0561842 L148.075564,17.0561842 C148.075564,18.5572498 148.011029,19.9836809 148.09724,21.4007518 C148.159312,22.4244519 148.555393,22.5500744 150.440223,22.3939084 C150.824233,23.1781869 150.466825,23.4715523 149.705454,23.5905242 C147.959794,23.8631989 146.898161,23.0616782 146.816137,21.3174961 C146.767859,20.2942886 146.820324,19.2668937 146.782884,18.2427009 C146.76441,17.7375015 147.071816,17.0295818 146.127923,16.9332712 C146.048855,16.925389 145.957717,16.2312632 145.97225,16.2273221 C147.265176,15.8797665 146.574252,14.7292123 147.013192,13.6853141 C147.386611,13.9552793 147.873583,14.1264707 147.995018,14.4392953 C148.157096,14.856559 148.035168,15.3839272 148.035168,15.8344439 C150.492442,16.2246126 150.492442,16.2246126 150.446627,17.0561842" id="Fill-30" fill="#FFFFFF"></path>
                <path d="M172.720184,23.3704878 L171.546969,23.3704878 L171.546969,15.7799336 C172.144784,16.1067984 172.578305,16.3440032 173.056409,16.6055936 C173.861625,16.3915427 174.879906,16.1210849 176.027997,15.8158961 L176.027997,17.2295186 C175.595461,17.2295186 175.233866,17.2184343 174.873501,17.2314892 C173.284746,17.2896203 172.720923,17.8795534 172.720184,19.4739738 C172.719692,20.7375882 172.720184,22.0009564 172.720184,23.3704878" id="Fill-32" fill="#FFFFFF"></path>
                <path d="M106.469962,15.7452027 C107.061866,16.0875855 107.46238,16.319125 107.968318,16.6117515 C108.706042,16.3984396 109.689839,16.1139416 110.872907,15.7718051 C110.903204,16.4080461 110.920939,16.7787556 110.942615,17.2309965 C110.470669,17.2309965 110.111044,17.2189269 109.752404,17.2332134 C108.18902,17.2950394 107.630369,17.8635427 107.628398,19.3872696 C107.626428,20.6895561 107.627906,21.9920889 107.627906,23.3490581 C107.187981,23.3731973 106.875895,23.3906859 106.469962,23.4131009 L106.469962,15.7452027 Z" id="Fill-34" fill="#FFFFFF"></path>
                <path d="M120.131876,13.1110961 L121.226516,13.1110961 L121.226516,23.327653 C120.906055,23.3604134 120.565889,23.3951443 120.131876,23.4394817 L120.131876,13.1110961 Z" id="Fill-36" fill="#FFFFFF"></path>
                <mask id="mask-4" fill="white">
                    <use xlink:href="#path-3"></use>
                </mask>
                <g id="Clip-39"></g>
                <polygon id="Fill-38" fill="#FFFFFF" mask="url(#mask-4)" points="52.1261901 23.3739116 53.2314217 23.3739116 53.2314217 13.125826 52.1261901 13.125826"></polygon>
                <path d="M56.9190329,23.3711036 L55.8165108,23.3711036 L55.8165108,16.0640621 C56.1709633,16.043125 56.5086661,16.0231732 56.9190329,15.999034 L56.9190329,23.3711036 Z" id="Fill-40" fill="#FFFFFF" mask="url(#mask-4)"></path>
                <path d="M55.7988252,13.485525 C56.2522977,13.5160685 56.6045333,13.5397151 57.0156391,13.5675491 L57.0156391,14.7274635 C56.6057649,14.7513564 56.2520514,14.7715545 55.7988252,14.7979106 L55.7988252,13.485525 Z" id="Fill-41" fill="#FFFFFF" mask="url(#mask-4)"></path>
            </g>
        </g>
    </g>
</svg>