<?xml version="1.0" encoding="UTF-8"?>
<svg width="165px" height="21px" viewBox="0 0 165 21" version="1.1" xmlns="http://www.w3.org/2000/svg" xmlns:xlink="http://www.w3.org/1999/xlink">
    <!-- Generator: Sketch 51.2 (57519) - http://www.bohemiancoding.com/sketch -->
    <title>IZIChain</title>
    <desc>Created with Sketch.</desc>
    <defs></defs>
    <g id="Page-1" stroke="none" stroke-width="1" fill="none" fill-rule="evenodd">
        <g id="Artboard-Copy" transform="translate(-93.000000, -912.000000)" fill="#FFFFFF" fill-rule="nonzero">
            <g id="IZIChain" transform="translate(93.000000, 913.000000)">
                <g id="Group" transform="translate(0.000000, 1.000000)">
                    <polygon id="Shape" points="39.0095238 0 28.5460317 17.8 49.4222222 17.8"></polygon>
                    <polygon id="Shape" points="24.7873016 17.8 35.2507937 0 14.3746032 0"></polygon>
                    <polygon id="Shape" points="15.4920635 8.6 10.4634921 0 5.38412698 8.6"></polygon>
                    <polygon id="Shape" points="17.015873 11.25 3.86031746 11.25 0 17.8 20.8761905 17.8"></polygon>
                    <polygon id="Shape" points="48.0507937 9.15 53.0793651 17.8 58.1587302 9.15"></polygon>
                    <polygon id="Shape" points="46.4761905 6.55 59.6825397 6.55 63.5428571 0 42.6666667 0"></polygon>
                </g>
                <g id="Group" transform="translate(67.000000, 0.000000)" stroke="#FFFFFF">
                    <polygon id="Shape" points="0.4546875 1.18108108 13.4890625 1.18108108 0.303125 17.7162162 0.303125 18.4864865 14.4489583 18.4864865 14.4489583 17.6648649 1.41458333 17.6648649 14.55 1.12972973 14.55 0.359459459 0.4546875 0.359459459"></polygon>
                    <rect id="Rectangle-path" x="17.6822917" y="0.359459459" width="1" height="18.127027"></rect>
                    <path d="M35.5666667,15.7648649 C35.1119792,16.227027 34.6067708,16.5864865 34.0510417,16.8945946 C33.4953125,17.2027027 32.9395833,17.4081081 32.3333333,17.5621622 C31.7270833,17.7162162 31.1713542,17.7675676 30.615625,17.7675676 C29.5546875,17.7675676 28.5947917,17.5621622 27.6348958,17.1 C26.7255208,16.6378378 25.9171875,16.0216216 25.2098958,15.2513514 C24.553125,14.4810811 23.9973958,13.5567568 23.5932292,12.5810811 C23.1890625,11.5540541 23.0375,10.4756757 23.0375,9.3972973 C23.0375,8.37027027 23.1890625,7.39459459 23.5427083,6.41891892 C23.8458333,5.44324324 24.3510417,4.57027027 25.0078125,3.74864865 C25.6645833,2.97837838 26.4223958,2.31081081 27.3822917,1.84864865 C28.2916667,1.38648649 29.3526042,1.12972973 30.5651042,1.12972973 C31.1208333,1.12972973 31.6765625,1.18108108 32.2322917,1.28378378 C32.7880208,1.38648649 33.34375,1.59189189 33.8489583,1.84864865 C34.3541667,2.10540541 34.859375,2.46486486 35.3140625,2.92702703 C35.76875,3.38918919 36.1223958,3.9027027 36.4760417,4.57027027 L37.2338542,4.21081081 C36.678125,3.02972973 35.8697917,2.10540541 34.7583333,1.38648649 C33.646875,0.667567568 32.2828125,0.256756757 30.7166667,0.256756757 C29.3526042,0.256756757 28.190625,0.513513514 27.1296875,1.07837838 C26.06875,1.59189189 25.2098958,2.31081081 24.5026042,3.18378378 C23.7953125,4.05675676 23.2395833,5.03243243 22.8354167,6.05945946 C22.4817708,7.13783784 22.2796875,8.21621622 22.2796875,9.29459459 C22.2796875,10.4756757 22.4817708,11.6054054 22.8859375,12.6837838 C23.2901042,13.8135135 23.8458333,14.7891892 24.6036458,15.6621622 C25.3614583,16.5351351 26.2203125,17.2540541 27.2307292,17.8189189 C28.2411458,18.3837838 29.3526042,18.6405405 30.5651042,18.6405405 C31.221875,18.6405405 31.9291667,18.5378378 32.6364583,18.3837838 C33.34375,18.2297297 34.0005208,17.9216216 34.6572917,17.5621622 C35.3140625,17.2027027 35.8697917,16.7405405 36.375,16.227027 C36.8802083,15.7135135 37.284375,15.0972973 37.5875,14.4297297 L36.8296875,14.1216216 C36.4255208,14.7891892 36.0213542,15.3540541 35.5666667,15.7648649 Z" id="Shape"></path>
                    <polygon id="Shape" points="53.6026042 8.83243243 41.7302083 8.83243243 41.7302083 0.359459459 40.8713542 0.359459459 40.8713542 18.4864865 41.7302083 18.4864865 41.7302083 9.65405405 53.6026042 9.65405405 53.6026042 18.4864865 54.4614583 18.4864865 54.4614583 0.359459459 53.6026042 0.359459459"></polygon>
                    <path d="M64.9697917,0.359459459 L57.2401042,18.4864865 L58.2,18.4864865 L60.8270833,12.2216216 L69.7692708,12.2216216 L72.3963542,18.4864865 L73.3057292,18.4864865 L65.7276042,0.359459459 L64.9697917,0.359459459 Z M61.1302083,11.4513514 L65.3739583,1.43783784 L69.5671875,11.4513514 L61.1302083,11.4513514 Z" id="Shape"></path>
                    <rect id="Rectangle-path" x="76.2359375" y="0.359459459" width="1" height="18.127027"></rect>
                    <polygon id="Shape" points="95.7369792 0.359459459 95.7369792 17.1 82.6015625 0.359459459 81.9447917 0.359459459 81.9447917 18.4864865 82.8036458 18.4864865 82.8036458 2.05405405 95.7369792 18.4864865 96.5958333 18.4864865 96.5958333 0.359459459"></polygon>
                </g>
            </g>
        </g>
    </g>
</svg>