<?xml version="1.0" encoding="UTF-8"?>
<svg width="121px" height="64px" viewBox="0 0 121 64" version="1.1" xmlns="http://www.w3.org/2000/svg" xmlns:xlink="http://www.w3.org/1999/xlink">
    <!-- Generator: Sketch 51.2 (57519) - http://www.bohemiancoding.com/sketch -->
    <title>Kryptonium</title>
    <desc>Created with Sketch.</desc>
    <defs>
        <polygon id="path-1" points="0 0.134692221 13 0.134692221 13 13 0 13"></polygon>
        <polygon id="path-3" points="0 0.136575884 10 0.136575884 10 13 0 13"></polygon>
        <polygon id="path-5" points="-5.76923077e-05 0.130351145 9.84243204 0.130351145 9.84243204 13 -5.76923077e-05 13"></polygon>
        <polygon id="path-7" points="0 0.151037546 10 0.151037546 10 13 0 13"></polygon>
        <polygon id="path-9" points="0.189728123 0.0468764706 9.84992145 0.0468764706 9.84992145 13 0.189728123 13"></polygon>
        <polygon id="path-11" points="0.10952381 0.117191355 11.9904762 0.117191355 11.9904762 13 0.10952381 13"></polygon>
        <polygon id="path-13" points="0.0464705882 0.0673323529 9.94098039 0.0673323529 9.94098039 13 0.0464705882 13"></polygon>
        <polygon id="path-15" points="0 64 121 64 121 0 0 0"></polygon>
    </defs>
    <g id="Page-1" stroke="none" stroke-width="1" fill="none" fill-rule="evenodd">
        <g id="Artboard-Copy" transform="translate(-366.000000, -890.000000)">
            <g id="Kryptonium" transform="translate(366.000000, 890.000000)">
                <g id="Group-3" transform="translate(108.000000, 51.000000)">
                    <mask id="mask-2" fill="white">
                        <use xlink:href="#path-1"></use>
                    </mask>
                    <g id="Clip-2"></g>
                    <path d="M0,13.0000377 L0,0.254762319 C1.07364706,0.140211594 1.89991176,0.061457971 2.66155882,1.12651594 C3.74170588,2.63771884 5.14475,3.92509565 6.47170588,5.37544348 C7.61952941,4.12028406 8.83177941,3.01358841 9.76376471,1.71170435 C10.6102941,0.529646377 11.5558529,-0.0529043478 13,0.188443478 L13,13.0000377 L11.0882353,13.0000377 L11.0882353,3.01208116 C9.47929412,4.81154493 8.01239706,6.4518058 6.45526471,8.19324058 C4.91820588,6.47271884 3.40122059,4.77518261 1.72058824,2.89395072 L1.72058824,13.0000377 L0,13.0000377 Z" id="Fill-1" fill="#FFFFFF" mask="url(#mask-2)"></path>
                </g>
                <path d="M69.4900182,62.3134833 C72.1501054,62.3101102 74.2352491,60.3067158 74.2274645,57.5338949 C74.2194946,54.6849934 72.1704935,52.7582417 69.4811216,52.8019037 C66.6855464,52.8472523 64.8526588,54.6893033 64.7846368,57.5007267 C64.7251407,59.9555455 66.3660097,62.1832467 69.4900182,62.3134833 Z M67.8448862,64 C67.2677185,63.7048596 66.6801713,63.4286456 66.1152364,63.1113931 C62.6837387,61.1852036 61.8526468,56.1423312 64.8074343,52.9739284 C67.1151786,50.4992462 71.0484082,50.3785666 73.585611,52.4591661 C76.1226284,54.5392033 76.6736623,58.0282317 75.1751391,60.7988039 C74.370181,62.2870612 73.1252113,63.2539974 71.5510668,63.8077371 C71.4213246,63.853273 71.3041858,63.9351628 71.181116,64 L67.8448862,64 Z" id="Fill-4" fill="#FFFFFF"></path>
                <g id="Group-8" transform="translate(79.000000, 51.000000)">
                    <mask id="mask-4" fill="white">
                        <use xlink:href="#path-3"></use>
                    </mask>
                    <g id="Clip-7"></g>
                    <path d="M0,13.0000377 L0,0.319762319 C1.67901961,-0.00391884058 1.70529412,-0.0105130435 2.56137255,1.24144348 C4.39941176,3.92905217 6.21862745,6.62871884 8.21392157,9.5718058 L8.21392157,0.230081159 L10,0.230081159 L10,13.0000377 L8.23529412,13.0000377 C6.14156863,9.94729855 4.04784314,6.89455942 1.95411765,3.8420087 C1.89098039,3.86574783 1.82784314,3.88967536 1.76470588,3.91341449 L1.76470588,13.0000377 L0,13.0000377 Z" id="Fill-6" fill="#FFFFFF" mask="url(#mask-4)"></path>
                </g>
                <g id="Group-11" transform="translate(12.000000, 51.000000)">
                    <mask id="mask-6" fill="white">
                        <use xlink:href="#path-5"></use>
                    </mask>
                    <g id="Clip-10"></g>
                    <path d="M1.76898077,6.96958261 C3.09417308,6.96958261 4.34782692,7.08055362 5.57186538,6.94188696 C7.16513462,6.7613942 7.88090385,5.87230725 8.05801923,4.48394493 C8.19340385,3.4203942 7.01840385,1.99793043 5.89013462,1.91371304 C4.53571154,1.81272754 3.16725,1.88978551 1.76898077,1.88978551 L1.76898077,6.96958261 Z M-5.76923077e-05,13.0000754 L-5.76923077e-05,0.205626087 C2.22167308,0.205626087 4.40936538,0.00572753623 6.54148077,0.257437681 C9.06705769,0.555495652 10.5420577,3.67116232 9.50955769,6.04093043 C8.94090385,7.34601739 8.32571154,7.95814783 7.15398077,8.38714783 C8.03840385,9.92435072 8.92301923,11.4621188 9.80763462,13.0000754 L7.69225,13.0000754 C6.87725,11.6704957 6.07071154,10.335829 5.23686538,9.01774203 C5.13532692,8.85722029 4.89186538,8.69274203 4.70878846,8.68671304 C3.73513462,8.65411884 2.75955769,8.67126377 1.73071154,8.67126377 L1.73071154,13.0000754 L-5.76923077e-05,13.0000754 Z" id="Fill-9" fill="#FFFFFF" mask="url(#mask-6)"></path>
                </g>
                <g id="Group-14" transform="translate(0.000000, 51.000000)">
                    <mask id="mask-8" fill="white">
                        <use xlink:href="#path-7"></use>
                    </mask>
                    <g id="Clip-13"></g>
                    <path d="M0,0.188443478 L1.76039216,0.188443478 L1.76039216,9.0974 C1.8254902,9.1136029 1.89058824,9.1298058 1.95588235,9.1461971 C3.00117647,7.55153043 4.04745098,5.95742899 5.09156863,4.36182029 C5.82215686,3.24513913 6.60235294,2.15408116 7.25823529,0.998023188 C7.63490196,0.333892754 8.07509804,0.0554289855 8.84137255,0.179965217 C9.15803922,0.2314 9.49117647,0.188443478 9.99666667,0.188443478 C9.33098039,1.26122609 8.7254902,2.24225507 8.11411765,3.22008116 C7.81862745,3.6927913 7.5954902,4.2419942 7.19607843,4.61409565 C5.71509804,5.99341449 6.16411765,7.2091971 7.24117647,8.61150145 C8.29294118,9.98064638 9.09078431,11.5299072 10,13.0000377 L7.84313725,13.0000377 C6.84764706,11.4330667 5.85215686,9.86609565 4.80392157,8.21584928 C3.75568627,9.86609565 2.76019608,11.4330667 1.76470588,13.0000377 L0,13.0000377 L0,0.188443478 Z" id="Fill-12" fill="#FFFFFF" mask="url(#mask-8)"></path>
                </g>
                <path d="M40.8043418,57.9266368 C42.1487148,57.9266368 43.3876661,57.9573784 44.6242615,57.9169588 C45.6290076,57.8843196 46.7857024,56.948978 47.0259934,56.0654417 C47.3222344,54.9760126 46.8830752,53.8510979 45.8406364,53.2537241 C44.2398745,52.33641 42.5038507,53.0168999 40.8043418,52.7789372 L40.8043418,57.9266368 Z M39,64 L39,51.1023815 C41.2489979,51.1023815 43.476401,50.8289331 45.5950449,51.1758198 C47.9227655,51.5570535 49.7037457,53.9173251 48.7264839,56.7886283 C48.1681607,58.4295086 46.5173382,59.6314671 44.7271312,59.6348828 C43.4544135,59.6375395 42.1814996,59.6354521 40.7668454,59.6354521 L40.7668454,64 L39,64 Z" id="Fill-15" fill="#FFFFFF"></path>
                <g id="Group-19" transform="translate(96.000000, 51.000000)">
                    <mask id="mask-10" fill="white">
                        <use xlink:href="#path-9"></use>
                    </mask>
                    <g id="Clip-18"></g>
                    <path d="M4.61538462,13.0000382 C3.79846154,12.6666265 2.92423077,12.4274647 2.17730769,11.9789647 C0.848846154,11.1808029 0.201153846,9.9242 0.195384615,8.37395 C0.184807692,5.61355294 0.192307692,2.85315588 0.192307692,0.0468764706 L1.92307692,0.0468764706 L1.92307692,0.950185294 C1.92307692,3.30509706 1.91615385,5.65981765 1.92538462,8.01472941 C1.93211538,9.72767059 3.34230769,11.1045235 5.05,11.0882735 C6.755,11.0718324 8.07557692,9.73474412 8.07653846,8.01912647 C8.07807692,5.38395 8.07692308,2.74858235 8.07692308,0.0570088235 L9.8075,0.0570088235 C9.8075,3.12367059 9.9275,6.1607 9.76384615,9.18262647 C9.66038462,11.0955382 7.43807692,12.9092294 5.675,12.8228176 C5.58115385,12.8182294 5.48153846,12.9380971 5.38461538,13.0000382 L4.61538462,13.0000382 Z" id="Fill-17" fill="#FFFFFF" mask="url(#mask-10)"></path>
                </g>
                <g id="Group-22" transform="translate(24.000000, 51.000000)">
                    <mask id="mask-12" fill="white">
                        <use xlink:href="#path-11"></use>
                    </mask>
                    <g id="Clip-21"></g>
                    <path d="M5.14285714,13.0000377 C5.14285714,11.6512406 5.05828571,10.2956609 5.16819048,8.95553043 C5.26571429,7.76782029 4.76819048,6.9036029 4.09904762,6.01263188 C2.76495238,4.23615362 1.49485714,2.41257391 0.205904762,0.602936232 C0.141714286,0.512689855 0.149714286,0.37213913 0.10952381,0.189197101 C0.703238095,0.189197101 1.26933333,0.15113913 1.82552381,0.207472464 C2.0552381,0.230646377 2.33161905,0.406994203 2.47142857,0.596907246 C3.6407619,2.18573333 4.78342857,3.79377681 5.97885714,5.45853043 C6.92895238,4.09522609 7.86704762,2.78166087 8.76895238,1.44416812 C9.35790476,0.570342029 10.016,-0.0979333333 11.2072381,0.18166087 C11.4102857,0.229327536 11.6348571,0.188443478 11.9904762,0.188443478 C10.8188571,1.84113913 9.72380952,3.39266087 8.62057143,4.93853043 C8.26190476,5.4411971 7.79714286,5.88903768 7.53295238,6.43409565 C7.22152381,7.07618261 6.93161905,7.7876029 6.88666667,8.48489275 C6.79028571,9.9846029 6.85714286,11.4942986 6.85714286,13.0000377 L5.14285714,13.0000377 Z" id="Fill-20" fill="#FFFFFF" mask="url(#mask-12)"></path>
                </g>
                <g id="Group-25" transform="translate(51.000000, 51.000000)">
                    <mask id="mask-14" fill="white">
                        <use xlink:href="#path-13"></use>
                    </mask>
                    <g id="Clip-24"></g>
                    <polygon id="Fill-23" fill="#FFFFFF" mask="url(#mask-14)" points="4.11764706 13.0000382 4.11764706 1.73247941 0.0464705882 1.73247941 0.0464705882 0.0673323529 9.94098039 0.0673323529 9.94098039 1.69883235 5.88235294 1.69883235 5.88235294 13.0000382"></polygon>
                </g>
                <mask id="mask-16" fill="white">
                    <use xlink:href="#path-15"></use>
                </mask>
                <g id="Clip-27"></g>
                <polygon id="Fill-26" fill="#FFFFFF" mask="url(#mask-16)" points="91 64 93 64 93 51 91 51"></polygon>
                <path d="M69.7452572,9.38914151 C68.9426226,9.38914151 68.3292614,9.471998 67.7466451,9.37376212 C65.8377696,9.05214053 64.3814211,9.63348164 63.4041168,11.3417479 C63.234059,11.6391469 62.9957858,11.8992509 62.777689,12.1676214 C61.032146,14.3147771 59.2839128,16.4598181 57.520115,18.6256213 C58.3239026,19.3688306 59.0514043,20.0747448 59.8273293,20.722794 C59.9430071,20.8194919 60.3859262,20.7276001 60.5096745,20.5811113 C63.1589261,17.4464063 65.7872327,14.2942071 68.4107354,11.1379709 C68.8419329,10.6191086 69.2312405,10.0654504 69.7452572,9.38914151 Z M71.2569467,35.5337276 C71.2948013,35.4637513 71.3328482,35.3937751 71.3707029,35.3236066 C67.7549078,31.8490169 64.1391127,28.3744272 60.4341573,24.8142896 C59.2206936,26.2737942 58.0842844,27.6402534 56.9148244,29.046699 C57.455935,29.5001989 57.9232578,29.8735337 58.3702121,30.2697453 C60.1455393,31.8430574 61.9028038,33.4367471 63.6967701,34.9883358 C64.0065252,35.2563217 64.4578991,35.5004696 64.8497047,35.5096973 C66.9845553,35.560257 69.1209431,35.5337276 71.2569467,35.5337276 Z M42.5717413,10.518758 C38.7972255,15.5257121 37.4936408,21.0759433 38.9517187,27.1911751 C39.5894837,29.8669974 40.6982225,32.3305842 42.5717413,34.6740194 L42.5717413,10.518758 Z M53.3117115,29.282196 C52.3801404,28.4684338 51.4944944,27.6587086 50.5679193,26.8989666 C50.0206597,26.450465 49.8771193,25.9277578 49.8809624,25.2368385 C49.9092093,20.3742585 49.8959506,15.511294 49.8959506,10.6485217 L49.8959506,9.6573197 L45.1664206,9.6573197 L45.1664206,35.534112 C45.9102556,35.534112 46.5851067,35.4845135 47.2490049,35.5481457 C47.8984914,35.6104323 48.3389124,35.3570568 48.7247612,34.8837559 C50.2518231,33.0105457 51.786379,31.1434872 53.3117115,29.282196 Z M54.0330643,18.8763055 C54.5810925,18.1609714 55.0436115,17.5290705 55.5349538,16.920431 C57.7122708,14.2232697 59.9357052,11.5624422 62.0630617,8.82644792 C62.9952094,7.62781637 63.9386942,6.78771695 65.607567,7.0530115 C66.606777,7.21199599 67.6521044,7.08223235 68.676679,7.08223235 L71.2519506,7.08223235 C64.5105498,1.01198537 52.7608009,0.684788752 45.7784367,7.13375332 L52.3939756,7.13375332 L52.3939756,8.27413542 C52.3939756,13.5917533 52.3876344,18.9093712 52.4072343,24.2271813 C52.4085794,24.6064756 52.485826,25.0943869 52.7242913,25.3433408 C53.3962601,26.0440645 54.17084,26.6465522 54.9590629,27.3347801 C56.1813658,25.8720075 57.3690806,24.4503747 58.555066,23.0310489 C57.0522157,21.6501715 55.5835692,20.3010141 54.0330643,18.8763055 Z M45.5315166,37.8410212 C47.4277097,39.3864581 49.2320524,40.5281859 51.2658291,41.293503 C54.0169232,42.3289207 56.8652482,42.8489365 59.7962001,42.6293957 C62.994825,42.3896694 66.0036001,41.4549867 68.7869764,39.8195803 C69.197229,39.5785083 69.7095162,39.4297127 70.1854861,39.3981849 C71.1531825,39.3339759 72.1281809,39.3789607 73.240955,39.3789607 C65.4926579,46.5511412 52.6505035,47.0280947 44.1510695,39.8376511 C34.0475192,31.2897837 33.7861874,17.3810438 40.8909548,8.51501518 C48.8694545,-1.44141253 62.624733,-2.45741377 71.8572413,4.37372875 C81.9185173,11.8179324 83.6721309,25.5711481 77.1359524,35.0740759 C77.0846468,35.0592732 77.0162394,35.0600422 76.9814592,35.0262075 C76.4712856,34.5277229 75.6644235,34.0849886 75.5483614,33.5048009 C75.4434444,32.9801714 76.1111857,32.3123212 76.4092193,31.693685 C77.5890557,29.242594 78.3192476,26.6923059 78.5580973,23.9507366 C78.9985183,18.8972599 77.3970921,14.4991376 74.6212099,10.4182152 C74.2864745,9.92588238 73.8525868,9.50102661 73.4671223,9.04771896 C69.6647439,13.6473113 65.8779302,18.2282562 62.0770891,22.8263107 C67.2973849,27.8359562 72.4031558,32.7358312 77.6630357,37.783733 C77.1647758,37.8096857 76.867703,37.8387143 76.5708223,37.8389065 C72.4085362,37.8419824 68.2445207,37.7729674 64.0855012,37.884468 C62.9123902,37.9158035 62.3572522,37.1699029 61.6802874,36.6087472 C59.5367898,34.8318504 57.4834133,32.94576 55.3014845,31.0191063 C54.4542697,31.9974281 53.6228117,32.9236521 52.8295927,33.8815961 C51.8059789,35.1179072 50.8271374,36.3918978 49.7900727,37.6166743 C49.6451873,37.7875778 49.2800913,37.8254496 49.0147242,37.8312168 C47.9594047,37.8546704 46.9033166,37.8410212 45.5315166,37.8410212 Z" id="Fill-28" fill="#FFFFFF" mask="url(#mask-16)"></path>
            </g>
        </g>
    </g>
</svg>