<?xml version="1.0" encoding="UTF-8"?>
<svg width="142px" height="29px" viewBox="0 0 142 29" version="1.1" xmlns="http://www.w3.org/2000/svg" xmlns:xlink="http://www.w3.org/1999/xlink">
    <!-- Generator: Sketch 51.2 (57519) - http://www.bohemiancoding.com/sketch -->
    <title>likecoin</title>
    <desc>Created with Sketch.</desc>
    <defs>
        <polygon id="path-1" points="0 0.099822314 28.9029173 0.099822314 28.9029173 28.9999967 0 28.9999967"></polygon>
        <polygon id="path-3" points="0 29 142 29 142 0 0 0"></polygon>
    </defs>
    <g id="Page-1" stroke="none" stroke-width="1" fill="none" fill-rule="evenodd">
        <g id="Artboard-Copy" transform="translate(-351.000000, -466.000000)">
            <g id="likecoin" transform="translate(351.000000, 466.000000)">
                <g id="Group-3">
                    <mask id="mask-2" fill="white">
                        <use xlink:href="#path-1"></use>
                    </mask>
                    <g id="Clip-2"></g>
                    <path d="M1.70847149,14.4492979 C1.70475661,21.4348227 7.35879793,27.1022855 14.343364,27.1139095 C21.32805,27.1254136 27.0139674,21.4434508 27.0146864,14.4512153 C27.0155252,7.47575661 21.3406326,1.80613678 14.3593021,1.80745496 C7.37030207,1.80889298 1.71218636,7.46281446 1.70847149,14.4492979 M-1.19834711e-05,14.539893 C-1.19834711e-05,6.55926074 6.47561612,0.0930995868 14.4683517,0.0998103306 C22.4969178,0.106521074 29.0228764,6.67394256 28.9012442,14.7814798 C28.7842855,22.5821202 22.4217814,29.0086161 14.4183806,28.999988 C6.45464504,28.9914798 -0.000131818182,22.5210045 -1.19834711e-05,14.539893" id="Fill-1" fill="#FEFEFE" mask="url(#mask-2)"></path>
                </g>
                <path d="M11.3601329,14.8719111 C11.3601329,14.0313161 11.3620637,13.1906003 11.3591675,12.3500053 C11.3580814,12.0077104 11.3073982,11.9581217 10.9591318,11.9517271 C10.6823046,11.9467803 10.4052362,11.9519684 10.1282883,11.9523303 C9.87583745,11.952813 9.74937065,12.0735874 9.749612,12.3314246 C9.75130144,14.0126147 9.75081874,15.6939255 9.75021537,17.3752363 C9.75009469,17.6433291 9.89176647,17.7731526 10.1500097,17.7793059 C10.4070463,17.7854593 10.6643241,17.7829255 10.9214813,17.7802711 C11.2494744,17.7768928 11.3586848,17.6673392 11.3595295,17.3344553 C11.361581,16.5136475 11.3602536,15.6928396 11.3601329,14.8719111 M15.057718,11.9605348 C15.1125042,11.2799267 15.203372,10.6408235 15.2027686,10.0017203 C15.2024066,9.5024548 14.9499557,9.0743751 14.5279573,8.78492662 C14.233753,8.5830728 13.9840776,8.72990848 13.9671832,9.08631982 C13.9002089,10.4897649 13.3162653,11.5470542 11.9685733,12.1125586 C11.8510365,12.161906 11.7227595,12.3563999 11.7211908,12.4848962 C11.704055,13.9485476 11.7062271,15.4124402 11.7197427,16.8762122 C11.7207081,16.9798538 11.8351074,17.15263 11.9252512,17.1742271 C12.7509057,17.371496 13.5757154,17.6050818 14.415368,17.7035353 C15.2646746,17.8029541 16.1306343,17.7651894 16.9894742,17.7766515 C17.1324734,17.7784613 17.2833164,17.7432304 17.4181098,17.6921939 C17.6249457,17.6138895 17.7621526,17.3036886 17.7220886,17.0728779 C17.6755083,16.8044232 17.4668622,16.8109385 17.2685942,16.8008035 C17.1502125,16.7947708 17.0276073,16.812507 16.914294,16.786687 C16.8430961,16.7702781 16.7857758,16.6931803 16.7221804,16.6433503 C16.7909648,16.5872463 16.8541982,16.4939809 16.929861,16.4826395 C17.094461,16.4577848 17.2652153,16.4750383 17.4333147,16.4741937 C17.9570418,16.47166 18.2128715,16.2556896 18.3007225,15.7426697 C18.365766,15.3626102 18.21975,15.1817501 17.8311783,15.1701673 C17.6335136,15.1641347 17.4344008,15.1806642 17.2384255,15.161239 C17.1745888,15.154965 17.1188372,15.067129 17.0594654,15.0166957 C17.1201646,14.9681929 17.1779677,14.8832526 17.2422871,14.8780645 C17.4585357,14.8603284 17.6771978,14.8755308 17.8946531,14.86986 C18.3942452,14.8569501 18.6792782,14.5649679 18.6802436,14.0716144 C18.680847,13.7659984 18.4980252,13.5735555 18.1907881,13.5649891 C17.9932441,13.5595597 17.7929245,13.5812774 17.5983974,13.5552162 C17.5168214,13.5443573 17.447313,13.4415603 17.3723742,13.3806301 C17.4470716,13.3281457 17.5180282,13.2382586 17.5973113,13.2304161 C17.8326264,13.206768 18.0714411,13.2205225 18.3084457,13.2100256 C18.6370421,13.1953058 18.7916261,13.0619834 18.8366376,12.7691566 C18.8915445,12.4122626 18.7672499,12.1633538 18.448428,12.0758798 C18.214561,12.0115714 17.9671784,11.9688599 17.7251055,11.9654816 C16.8161857,11.9529336 15.9069039,11.9605348 15.057718,11.9605348 M8.00007416,14.0171996 C7.98378311,10.7280562 10.6535841,8.01587926 13.923137,8.00007361 C17.2949012,7.983906 19.9847341,10.6331016 19.9999391,13.984985 C20.0146614,17.2539792 17.3572899,19.9443178 14.1338346,19.9990946 C10.7601396,20.0565258 8.00646991,17.3743917 8.00007416,14.0171996" id="Fill-4" fill="#FEFEFE"></path>
                <path d="M14.9705441,23.146688 C14.3728244,23.3146863 13.7614155,23.4422815 13.1806206,23.6596757 C12.169114,24.0382909 11.2294135,24.5783876 10.3526832,25.2296578 C10.0881085,25.4261988 9.86634367,25.6864723 9.60114676,25.88171 C9.48603314,25.966426 9.25692591,26.0384997 9.17503967,25.9769829 C9.06527727,25.8947432 8.97268858,25.6555836 9.00740934,25.5221234 C9.07498415,25.2628926 9.19258672,24.9869792 9.36681275,24.7946088 C9.9550745,24.1445116 10.5755681,23.5262155 11.1868525,22.8990568 C11.7625451,22.3083911 12.3465757,21.7268486 12.915797,21.1297966 C13.0321551,21.0078057 13.1223793,20.974571 13.2837873,21.0184929 C14.4309412,21.33116 15.5804597,21.3198211 16.7310982,21.0248792 C16.8192068,21.0022014 16.9577165,21.0235759 17.0193178,21.0841804 C18.0448869,22.0937339 19.0719493,23.1019841 20.074869,24.1359097 C20.3836224,24.4543114 20.6262944,24.8446564 20.8873846,25.2111507 C20.9514749,25.3010799 21.0105873,25.4327155 20.9983914,25.5355476 C20.9797244,25.691034 20.9343012,25.9045182 20.82989,25.9696843 C20.7331945,26.0301584 20.5135453,25.9734639 20.4010451,25.8900513 C19.953533,25.5579647 19.5499509,25.1568021 19.0876297,24.8516943 C18.0233575,24.1490733 16.9008441,23.5684431 15.6537591,23.3037384 C15.4346076,23.2572098 15.209856,23.2400059 14.9877178,23.2091172 C14.9819933,23.1883943 14.9762687,23.1675412 14.9705441,23.146688" id="Fill-6" fill="#FEFEFE"></path>
                <path d="M2.85148053,14 C3.4714582,14.1543926 4.09431309,14.2998553 4.71078807,14.4652928 C5.77235597,14.7501083 6.83129686,15.0426788 7.88673504,15.3465291 C7.99556889,15.3779011 8.12529384,15.4944593 8.15556717,15.5952727 C8.47231121,16.6462938 9.03999859,17.5581972 9.84712046,18.3387375 C9.99911256,18.4857277 10.0302616,18.6080433 9.9735929,18.8174251 C9.64796702,20.0180214 9.3682515,21.2296626 9.03474455,22.4282614 C8.91202499,22.8687621 8.69423219,23.2875256 8.49908183,23.707699 C8.45004405,23.8130949 8.33545577,23.9214282 8.22336941,23.9630225 C8.10552861,24.0068494 7.91875971,24.0191867 7.82831503,23.9584401 C7.74099775,23.8998085 7.67657312,23.7139264 7.70722173,23.611938 C8.0298453,22.5418822 7.99619437,21.4531441 7.8637173,20.3719259 C7.78152898,19.6998364 7.59738711,19.0345617 7.40598964,18.3797444 C7.24061222,17.8142257 6.80390075,17.3976947 6.35055146,17.0184106 C5.16088485,16.0235535 3.8413682,15.2298534 2.31356608,14.7615057 C2.17846198,14.7200288 1.99306915,14.546249 2.00019964,14.4446131 C2.00883129,14.3241775 2.18071372,14.1750723 2.3195707,14.1125632 C2.46693424,14.0462943 2.6585819,14.066974 2.83083962,14.0495842 C2.83784502,14.033017 2.84460022,14.0165672 2.85148053,14" id="Fill-8" fill="#FEFEFE"></path>
                <path d="M26.1360209,14 C26.3819983,14.0305755 26.5660119,14.0122774 26.6989524,14.0813378 C26.8330194,14.1511065 26.983485,14.2999701 26.9995079,14.4282926 C27.0107741,14.5176579 26.8261346,14.6851737 26.6966991,14.7253114 C25.069493,15.2301016 23.6739939,16.0839716 22.4347185,17.1846883 C21.7622552,17.7819133 21.4442997,18.5357932 21.2768097,19.3725457 C21.0216943,20.647271 20.9697448,21.9234129 21.1797957,23.2065199 C21.1998244,23.3290578 21.2789378,23.4480542 21.2760586,23.5674048 C21.2725536,23.7072964 21.2508976,23.9239218 21.1618951,23.9660663 C21.0392194,24.024266 20.7859816,24.0065582 20.6957273,23.9209705 C20.507082,23.7417676 20.3274497,23.5142814 20.2523421,23.2761706 C20.0048626,22.4921874 19.8042001,21.6951004 19.5888916,20.9021452 C19.3911083,20.1740006 19.1930746,19.445856 19.0088106,18.714642 C18.9856525,18.6227975 19.0085603,18.4786561 19.0726521,18.4154983 C19.9189895,17.5838221 20.5281122,16.6268927 20.8578345,15.5130722 C20.8801164,15.4378731 20.9667405,15.3452023 21.0433503,15.3235988 C22.3946611,14.9438256 23.7475993,14.5683022 25.1041677,14.2055285 C25.4658108,14.1088439 25.8410984,14.0576094 26.1360209,14" id="Fill-10" fill="#FEFEFE"></path>
                <path d="M21,3.38183497 C20.8475763,3.67448744 20.7492184,3.98627183 20.5580701,4.20622298 C20.0284224,4.81567372 19.4635143,5.39055505 18.9062769,5.97216554 C18.2975717,6.60734542 17.6776079,7.23025448 17.0731093,7.86978852 C16.9563171,7.99342033 16.862042,8.02627447 16.7050406,7.97996202 C15.5366236,7.63505961 14.3667219,7.64284432 13.1942221,7.97151758 C13.1005656,7.99764255 12.9503689,7.9676912 12.88257,7.90000377 C11.8850111,6.90052567 10.8878233,5.90038784 9.91216296,4.87676393 C9.61201687,4.56181288 9.37237013,4.18022996 9.11626856,3.81975812 C9.05205759,3.72924433 8.99007359,3.59769585 9.00133216,3.49411958 C9.0190242,3.32773781 9.05824362,3.10963387 9.16550935,3.02637702 C9.24716492,2.96304375 9.49658558,3.02189091 9.58912856,3.11728664 C10.4343875,3.98851488 11.4491435,4.57184065 12.5020055,5.08312483 C13.3710188,5.50521465 14.2631678,5.86858927 15.2495919,5.77675603 C16.059343,5.70141583 16.8058728,5.39121478 17.5297619,5.02638878 C18.5390742,4.51800737 19.5179514,3.95420936 20.3294345,3.10897415 C20.4170287,3.01766869 20.6180746,2.97544652 20.7359803,3.01463398 C20.8385447,3.04880755 20.8979305,3.23036291 21,3.38183497" id="Fill-12" fill="#FEFEFE"></path>
                <path d="M2.86759125,14 C2.65637009,13.9750905 2.50291348,13.9946876 2.39948622,13.9356604 C2.24752675,13.8491266 2.13149859,13.7062809 2,13.5874002 C2.12164243,13.4739501 2.22307351,13.2992297 2.36779681,13.2567302 C3.78059568,12.8424777 4.97019628,12.0722915 6.11687894,11.2207659 C7.13555633,10.464392 7.6356003,9.4550278 7.8058997,8.26999882 C7.97332959,7.10539323 8.02947226,5.94031542 7.82074632,4.77452928 C7.80215686,4.67052345 7.77171506,4.56781622 7.73852851,4.4668798 C7.68038967,4.29027058 7.6427117,4.07659231 7.85118812,4.0159124 C8.00202473,3.97211426 8.26290096,4.02193317 8.36508061,4.12605705 C8.55334566,4.31813139 8.71528605,4.56592735 8.79213911,4.81691077 C9.02182498,5.56631942 9.20509957,6.32824182 9.40596554,7.08544205 C9.59460488,7.79601084 9.77476044,8.50882265 9.97712354,9.21584981 C10.0205405,9.36743152 10.0075653,9.45703473 9.89103813,9.56954047 C9.03717064,10.3935594 8.45029269,11.3638477 8.12591287,12.4782802 C8.10208343,12.560446 8.0043952,12.6598477 7.9195574,12.6841669 C6.60319915,13.0614684 5.28571804,13.4351102 3.96312171,13.7918703 C3.58284875,13.8944595 3.185733,13.9409729 2.86759125,14" id="Fill-14" fill="#FEFEFE"></path>
                <path d="M26.2127538,14 C25.5417332,13.836414 24.8670813,13.6844541 24.2004431,13.5066586 C23.1780725,13.2338587 22.1597088,12.9480236 21.144225,12.6532636 C21.0347882,12.6214389 20.9029381,12.5089368 20.8725111,12.40947 C20.5404442,11.324612 19.9673407,10.3724548 19.1259041,9.56685563 C18.9925514,9.43896969 18.9777761,9.33774133 19.0232288,9.16722674 C19.3412718,7.97644306 19.6250062,6.77732155 19.9555706,5.58970859 C20.0784053,5.14886028 20.2886393,4.72821066 20.4794651,4.30638669 C20.5277976,4.19928662 20.6374849,4.08420102 20.7484243,4.04298159 C20.8760171,3.99565557 21.0668429,3.97851016 21.1731494,4.03793191 C21.2579192,4.08537536 21.3142654,4.28090345 21.2857166,4.38765122 C20.8917941,5.85898542 21.0334108,7.32303868 21.3082551,8.79108472 C21.5337651,9.99560821 22.3288727,10.8218759 23.3256996,11.5132115 C24.3584629,12.2293258 25.4348006,12.8739226 26.6824307,13.2278696 C26.8174112,13.2662706 27.018755,13.4596848 26.9985955,13.5386007 C26.9644122,13.6735327 26.7963753,13.8021232 26.6520038,13.8813914 C26.537934,13.9438664 26.3750309,13.9284825 26.233915,13.9476243 C26.2267778,13.965122 26.219891,13.9826197 26.2127538,14" id="Fill-16" fill="#FEFEFE"></path>
                <path d="M15.9999998,24.5119781 C15.999556,25.3329227 15.3102221,26.0118104 14.4893012,25.9998442 C13.655843,25.9876585 12.9962438,25.3181023 13.0000161,24.4882654 C13.0037884,23.664686 13.6924566,22.9873353 14.5131555,23.0001797 C15.348278,23.0131339 16.0004436,23.6763228 15.9999998,24.5119781" id="Fill-18" fill="#FEFEFE"></path>
                <path d="M5.49603085,7.00000109 C6.31864084,6.99900983 6.99790056,7.67582128 6.99999567,8.4983482 C7.00198052,9.31735063 6.32062569,9.99944881 5.49966974,9.99999951 C4.67275925,10.0006604 4.00210055,9.33056745 4.00000543,8.5016524 C3.99780004,7.67383875 4.66812793,7.00099235 5.49603085,7.00000109" id="Fill-20" fill="#FEFEFE"></path>
                <path d="M23.5017596,7.00000086 C24.3269607,7.00077221 25.0027463,7.67757641 24.9999916,8.50038608 C24.9972369,9.32473844 24.3218921,9.99977956 23.4995559,9.99999995 C22.6806355,10.0002203 21.9987895,9.31757591 22.0000016,8.49840261 C22.0013239,7.6761439 22.679754,6.99911932 23.5017596,7.00000086" id="Fill-22" fill="#FEFEFE"></path>
                <path d="M23.4902475,20.9999988 C22.6623955,20.9990006 21.9921299,20.3191853 22.0000698,19.4887435 C22.0081201,18.6517577 22.672541,17.998008 23.5130749,18.0000046 C24.3456688,18.002112 25.0120748,18.6798199 24.999834,19.5121472 C24.987483,20.3563427 24.3334281,21.0009971 23.4902475,20.9999988" id="Fill-24" fill="#FEFEFE"></path>
                <path d="M5.48510221,20.9999993 C4.65234555,20.9993338 3.99212317,20.3273936 4.00007101,19.4887438 C4.00801885,18.6417752 4.66029338,17.9980081 5.50817301,18.0000046 C6.32911831,18.0021121 6.9925419,18.6621841 6.9999378,19.484418 C7.00744409,20.3276154 6.33463764,21.0007758 5.48510221,20.9999993" id="Fill-26" fill="#FEFEFE"></path>
                <path d="M14.4933398,4.99582566 C13.7653347,5.0590969 12.9800359,4.35535663 13.0003873,3.50058534 C13.0202963,2.67019176 13.6829336,1.9951507 14.508161,2.00002625 C15.3354898,2.0050126 15.9774439,2.67728346 15.999565,3.51510116 C16.0206906,4.31424694 15.2689053,5.06275356 14.4933398,4.99582566" id="Fill-28" fill="#FEFEFE"></path>
                <polygon id="Fill-30" fill="#FEFEFE" points="49 24 38 24 38 6 39.8999691 6 39.8999691 22.2808251 49 22.2808251"></polygon>
                <mask id="mask-4" fill="white">
                    <use xlink:href="#path-3"></use>
                </mask>
                <g id="Clip-33"></g>
                <polygon id="Fill-32" fill="#FEFEFE" mask="url(#mask-4)" points="52 24 54 24 54 6 52 6"></polygon>
                <polygon id="Fill-34" fill="#FEFEFE" mask="url(#mask-4)" points="72 24 69.8048321 24 64.5122395 14.4184981 60.8536263 18.9690675 60.8536263 24 59 24 59 6 60.8536263 6 60.8536263 16.3398279 68.9512148 6 71.2195195 6 65.7560378 12.9522622"></polygon>
                <polygon id="Fill-35" fill="#FEFEFE" mask="url(#mask-4)" points="86 24 75 24 75 6 86 6 86 7.71905219 76.8913759 7.71905219 76.8913759 14.0646045 84.6561244 14.0646045 84.6561244 15.7837794 76.8913759 15.7837794 76.8913759 22.2808251 86 22.2808251"></polygon>
                <path d="M101,18.7292711 C100.693494,20.3702517 100.008168,21.6591025 98.9435548,22.5953409 C97.8790585,23.5319411 96.5726206,24 95.0242411,24 C93.2822848,24 91.8464827,23.419993 90.7177739,22.2597378 C89.9594318,21.4808058 89.4838833,20.6273222 89.2904239,19.698925 C89.0968471,18.7708897 89,17.2045814 89,15 C89,12.7957805 89.0968471,11.2295928 89.2904239,10.301075 C89.4838833,9.3730397 89.9594318,8.51955607 90.7177739,7.74026218 C91.8464827,6.58036887 93.2822848,6 95.0242411,6 C96.5884683,6 97.8991323,6.46419859 98.955646,7.39223387 C100.011925,8.32063105 100.693494,9.61346272 101,11.2707289 L99.1129491,11.2707289 C98.8868552,10.1604161 98.4150631,9.28606278 97.697573,8.64778972 C96.9797306,8.00987856 96.0887374,7.69056108 95.0242411,7.69056108 C93.8465805,7.69056108 92.8547489,8.10505857 92.0483942,8.93369166 C91.5321112,9.48064499 91.2016572,10.1479908 91.0565626,10.9351259 C90.9113507,11.7225022 90.838686,13.0774603 90.838686,15 C90.838686,16.9229016 90.9113507,18.2778597 91.0565626,19.0648741 C91.2016572,19.8523711 91.5321112,20.519355 92.0483942,21.0663083 C92.8547489,21.8953033 93.8465805,22.3094389 95.0242411,22.3094389 C96.0887374,22.3094389 96.9877131,21.9904833 97.7217554,21.3522103 C98.4555628,20.7144198 98.9352201,19.8399458 99.161314,18.7292711 L101,18.7292711 Z" id="Fill-36" fill="#FEFEFE" mask="url(#mask-4)"></path>
                <path d="M114.95181,19.0648741 C115.096322,18.2778597 115.168578,16.9229016 115.168578,15 C115.168578,13.0774603 115.096322,11.7225022 114.95181,10.9350052 C114.807298,10.1479908 114.477703,9.48064499 113.963843,8.93369166 C113.160374,8.10505857 112.172524,7.69056108 110.999942,7.69056108 C109.827125,7.69056108 108.839275,8.10505857 108.036157,8.93369166 C107.52183,9.48064499 107.192819,10.1479908 107.04819,10.9350052 C106.903561,11.7225022 106.831305,13.0774603 106.831305,15 C106.831305,16.9229016 106.903561,18.2778597 107.04819,19.0648741 C107.192819,19.8522505 107.52183,20.519355 108.036157,21.0663083 C108.839275,21.8953033 109.827125,22.3094389 110.999942,22.3094389 C112.172524,22.3094389 113.160374,21.8953033 113.963843,21.0663083 C114.477703,20.519355 114.807298,19.8522505 114.95181,19.0648741 M116.710859,10.3259255 C116.903542,11.2543227 117,12.8120661 117,15 C117,17.1878133 116.903542,18.7459186 116.710859,19.6739538 C116.518059,20.6024717 116.036118,21.4640377 115.265036,22.2596172 C114.140508,23.419993 112.718653,24 110.999942,24 C109.264978,24 107.835056,23.419993 106.710878,22.2596172 C105.95558,21.4808058 105.481941,20.6273222 105.289141,19.6988044 C105.096341,18.7707691 105,17.2045814 105,15 C105,12.7957805 105.096341,11.2294722 105.289141,10.301075 C105.481941,9.3730397 105.95558,8.51955607 106.710878,7.74026218 C107.835056,6.58024824 109.264978,6 110.999942,6 C112.718653,6 114.140508,6.58024824 115.265036,7.74026218 C116.036118,8.53584162 116.518059,9.39789025 116.710859,10.3259255" id="Fill-37" fill="#FEFEFE" mask="url(#mask-4)"></path>
                <polygon id="Fill-38" fill="#FEFEFE" mask="url(#mask-4)" points="122 24 124 24 124 6 122 6"></polygon>
                <polygon id="Fill-39" fill="#FEFEFE" mask="url(#mask-4)" points="142 24 140.220514 24 130.8783 9.56457384 130.8783 24 129 24 129 6 130.779486 6 140.1217 20.3847648 140.1217 6 142 6"></polygon>
            </g>
        </g>
    </g>
</svg>