<svg width="141" height="66" viewBox="0 0 141 66" version="1.1" xmlns="http://www.w3.org/2000/svg" xmlns:xlink="http://www.w3.org/1999/xlink">
<g id="Canvas" fill="none">
<g id="on">
<g id="Page 1">
<g id="Artboard Copy">
<g id="Group">
<g id="Shape">
<path d="M -1.1958e-07 2.22168e-08L -1.1958e-07 3.74821L -1.1958e-07 4.02405L -1.1958e-07 9.41106L -1.1958e-07 9.68691L -1.1958e-07 13.4351L 3.31657 11.4231L 3.31657 9.68691L 3.31657 9.41106L 3.31657 4.02405L 3.31657 3.74821L 3.31657 2.01202L -1.1958e-07 2.22168e-08Z" transform="translate(52.125 25.6709)" fill="white"/>
</g>
<g id="Shape_2">
<path d="M 23.0803 20.1577L 23.0803 20.1508L 23.0803 16.4126L 23.0804 16.4126L 23.0804 16.4026L 23.0804 10.4739L 23.0804 10.4639L 23.0803 10.4639L 23.0803 6.72566L 23.0803 6.71873L 23.0822 6.71755L 23.0803 6.71646L 23.0803 6.71566L 23.0796 6.71604L 19.6244 4.70553L 19.6244 4.70554L 14.9953 2.01203L 14.9953 2.01202L 11.5449 0.0042786L 11.5447 4.19653e-07L 11.5411 0.00209087L 11.5375 4.19653e-07L 11.5374 0.0042786L 8.32389 1.8741L 3.2208 4.84345L 0.00259484 6.71604L 0.00187004 6.71566L 0.00187004 6.71646L 8.41113e-07 6.71755L 0.00187004 6.71873L 0.00187004 6.72566L 0.00187004 10.4639L 0.00187004 10.4739L 0.00187004 10.7397L 0.00187004 10.7497L 0.00187004 16.1267L 0.00187004 16.1367L 0.00187004 16.4026L 0.00187004 16.4126L 0.00187004 20.1508L 0.00187004 20.1577L 8.41113e-07 20.1589L 0.00187004 20.16L 0.00187004 20.1608L 0.00259484 20.1604L 3.45784 22.1709L 3.45784 22.1709L 8.08688 24.8644L 8.08688 24.8644L 11.5374 26.8721L 11.5375 26.8764L 11.5411 26.8743L 11.5447 26.8764L 11.5449 26.8721L 14.9953 24.8644L 14.9953 24.8644L 19.6244 22.1709L 19.6244 22.1709L 23.0796 20.1604L 23.0803 20.1608L 23.0803 20.16L 23.0822 20.1589L 23.0803 20.1577ZM 5.11612 19.2762L 3.31844 18.2301L 3.31844 16.4126L 3.31844 16.4026L 3.31844 16.1367L 3.31844 16.1267L 3.31844 10.7497L 3.31844 10.7397L 3.31844 10.4739L 3.31844 10.4639L 3.31844 8.64628L 5.11612 7.60026L 9.74516 4.90675L 11.5411 3.86174L 13.1 4.76884L 18.2031 7.73819L 18.2031 7.73818L 19.7638 8.64628L 19.7638 10.4639L 19.7638 10.4739L 19.7638 10.7397L 19.7638 10.7497L 19.7638 16.1267L 19.7638 16.1367L 19.7638 16.4026L 19.7638 16.4126L 19.7638 18.2301L 18.2031 19.1382L 18.2031 19.1382L 13.1 22.1076L 13.1 22.1076L 11.5411 23.0147L 9.74516 21.9697L 5.11612 19.2762Z" transform="translate(58.6748 18.9553)" fill="white"/>
</g>
<g id="Shape_3">
<path d="M 23.0822 6.71755L 23.0804 6.71646L 23.0804 6.71566L 23.0796 6.71604L 19.8614 4.84346L 19.8614 4.84345L 14.7583 1.8741L 14.7583 1.87411L 11.5449 0.0042786L 11.5447 4.19653e-07L 11.5411 0.00209087L 11.5375 4.19653e-07L 11.5374 0.0042786L 8.08688 2.01202L 3.45783 4.70553L 3.31844 4.78664L 3.31844 4.02404L 3.31844 3.7482L 3.31844 1.77297L 0.00187095 4.19653e-07L 0.00187095 3.7482L 0.00187095 4.02404L 0.00187095 6.71646L 1.74424e-06 6.71755L 0.00187095 6.71873L 0.00187095 16.1267L 0.00187095 16.9164L 0.00187095 20.1508L 3.31844 18.3778L 3.31844 16.9164L 3.31844 16.1267L 3.31844 8.64628L 4.87911 7.73818L 9.98219 4.76883L 11.5411 3.86175L 13.3371 4.90675L 13.3371 4.90674L 17.9661 7.60025L 17.9661 7.60026L 19.7638 8.64627L 19.7638 10.4639L 19.7638 10.7397L 19.7638 16.1267L 19.7638 16.4026L 19.7638 18.3778L 23.0804 20.1508L 23.0804 16.4026L 23.0804 16.1267L 23.0804 10.7397L 23.0804 10.4639L 23.0804 6.71873L 23.0822 6.71755Z" transform="translate(84.9883 18.9553)" fill="white"/>
</g>
<g id="Shape_4">
<path d="M 19.9004 18.1506L 17.9661 19.2762L 13.3371 21.9697L 11.5411 23.0147L 9.74516 21.9697L 9.74516 21.9697L 5.11612 19.2762L 5.11612 19.2762L 3.31844 18.2302L 3.31844 16.4126L 3.31844 16.4026L 3.31844 16.1367L 3.31844 16.1267L 3.31844 10.7497L 3.31844 10.7397L 3.31844 10.4739L 3.31844 10.4639L 3.31844 8.64627L 4.87909 7.73819L 9.98218 4.76884L 11.5411 3.86174L 13.1 4.76884L 18.2031 7.73819L 19.9004 8.7258L 23.0822 6.71755L 19.6244 4.70553L 14.9953 2.01202L 11.5449 0.0042786L 11.5447 4.19653e-07L 11.5411 0.00209087L 11.5375 4.19653e-07L 11.5374 0.0042786L 8.08687 2.01202L 3.45784 4.70553L 0.00259345 6.71604L 0.00186865 6.71566L 0.00186865 6.71646L -5.47852e-07 6.71755L 0.00186865 6.71873L 0.00186865 6.72566L 0.00186865 10.4639L 0.00186865 10.4739L 0.00186865 10.7397L 0.00186865 10.7497L 0.00186865 16.1267L 0.00186865 16.1367L 0.00186865 16.4026L 0.00186865 16.4126L 0.00186865 20.1508L 0.00186865 20.1577L -5.47852e-07 20.1589L 0.00186865 20.16L 0.00186865 20.1608L 0.00259345 20.1604L 3.45784 22.1709L 8.08687 24.8644L 11.5374 26.8721L 11.5375 26.8764L 11.5411 26.8743L 11.5447 26.8764L 11.5449 26.8721L 14.7583 25.0023L 19.8614 22.033L 23.0822 20.1589L 19.9004 18.1506Z" transform="translate(117.852 18.9553)" fill="white"/>
</g>
<g id="Shape_5">
<path d="M 1.80615e-06 2.22168e-08L 1.80615e-06 3.74821L 1.80615e-06 4.02405L 1.80615e-06 9.41106L 1.80615e-06 9.68691L 1.80615e-06 13.4351L 3.31657 11.4231L 3.31657 9.68691L 3.31657 9.41106L 3.31657 4.02405L 3.31657 3.74821L 3.31657 2.01202L 1.80615e-06 2.22168e-08Z" transform="translate(111.302 25.6709)" fill="white"/>
</g>
<g id="Shape_6">
<path d="M 6.98315 4.85654L 6.98315 3.25663L 6.98315 3.17474L 6.98315 2.0956C 6.98314 2.0955 6.98315 2.09541 6.98315 2.09532L 6.98315 2.06715C 6.98315 2.06705 6.98314 2.06696 6.98315 2.06687L 6.98315 2.06149C 6.98315 2.0605 6.98265 2.05968 6.98259 2.05869C 6.98243 2.03645 6.97196 2.01479 6.95146 2.00286L 5.92459 1.40529C 5.92446 1.40522 5.92434 1.40523 5.92421 1.40516L 4.5497 0.605352C 4.54969 0.605352 4.54969 0.605335 4.54969 0.605335L 3.53272 0.0135632C 3.52997 0.0113369 3.52683 0.0100929 3.52379 0.00836566L 3.52276 0.00776484C 3.52257 0.00765394 3.52233 0.00766975 3.52213 0.00755885C 3.51571 0.00416795 3.50914 0.00180613 3.50202 0.000728634C 3.49848 7.10336e-05 3.4951 4.76264e-05 3.49156 2.6416e-08C 3.48801 4.76264e-05 3.48464 6.34042e-05 3.48112 0.000721004C 3.47386 0.0018144 3.46716 0.0042159 3.46067 0.0077019C 3.46062 0.0077336 3.46055 0.00773314 3.46049 0.00776484L 3.46019 0.00793841C 3.45681 0.00979241 3.45334 0.0112191 3.45031 0.013691L 2.4335 0.605335C 2.4335 0.605335 2.4335 0.605352 2.43348 0.605352L 1.05891 1.4052C 1.05882 1.40525 1.05874 1.40524 1.05866 1.40529L 0.0316663 2.00286C 0.0109597 2.01491 0.000407276 2.03688 0.000454476 2.05935C 0.000438776 2.0601 2.72296e-05 2.06073 2.72296e-05 2.06149L 2.72296e-05 2.06551C 9.01296e-05 2.06616 -6.70704e-05 2.06679 2.72296e-05 2.06743L 2.72296e-05 2.09504C -6.70704e-05 2.09568 9.01296e-05 2.0963 2.72296e-05 2.09695L 2.72296e-05 3.17474L 2.72296e-05 3.25663L 2.72296e-05 4.85654L 2.72296e-05 4.93856L 2.72296e-05 6.04282C -6.70704e-05 6.04347 9.01296e-05 6.04409 2.72296e-05 6.04474L 2.72296e-05 6.05168C 2.72296e-05 6.05299 0.000688681 6.05408 0.000767281 6.05537C 0.00119188 6.06174 0.00220442 6.06779 0.00443702 6.07375C 0.00550612 6.07667 0.00695018 6.07922 0.00839668 6.08192C 0.0106922 6.08612 0.0130634 6.09003 0.016255 6.09367C 0.0193052 6.09722 0.0228288 6.09999 0.0265394 6.10279C 0.0284261 6.10417 0.0296224 6.10614 0.0316663 6.10733L 0.988286 6.66395L 0.988286 6.66396L 2.43348 7.5049C 2.4335 7.5049 2.4335 7.50492 2.4335 7.50492L 3.45575 8.09973C 3.4588 8.10176 3.46184 8.10303 3.46518 8.1045C 3.47093 8.10727 3.47728 8.10848 3.48382 8.10943C 3.48617 8.10969 3.48823 8.11124 3.49062 8.11124C 3.49092 8.11124 3.49121 8.11101 3.4915 8.111C 3.49184 8.11101 3.4921 8.11119 3.49244 8.11119C 3.49251 8.11119 3.49256 8.11124 3.49263 8.11124C 3.49263 8.11124 3.49265 8.11123 3.49266 8.11123C 3.49266 8.11123 3.49268 8.11124 3.4927 8.11124C 3.50325 8.11124 3.51278 8.10809 3.52156 8.10357C 3.52373 8.10247 3.52547 8.10107 3.5275 8.09973L 4.54969 7.50492C 4.54969 7.50492 4.54969 7.5049 4.5497 7.5049L 5.9245 6.70493C 5.92453 6.70492 5.92456 6.70492 5.92459 6.7049L 6.95146 6.10733C 6.95344 6.10619 6.95457 6.10429 6.95636 6.10297C 6.96025 6.10008 6.96388 6.0972 6.96701 6.09354C 6.97007 6.09004 6.97234 6.08629 6.97454 6.08228C 6.97611 6.07939 6.97767 6.07665 6.97879 6.07351C 6.98089 6.06782 6.98183 6.06206 6.98229 6.056C 6.9824 6.05449 6.98315 6.05321 6.98315 6.05168L 6.98315 6.04338C 6.98314 6.04329 6.98315 6.0432 6.98315 6.04311L 6.98315 4.93856L 6.98315 4.85654ZM 5.93063 6.55161C 5.93058 6.55163 5.93053 6.55162 5.9305 6.55164L 4.41491 7.43355C 4.41491 7.43356 4.41491 7.43356 4.4149 7.43357L 3.5571 7.93272L 3.5571 4.13467L 4.47931 3.59814L 4.50789 3.5815L 4.54969 3.55719C 4.54969 3.55719 4.54969 3.55718 4.5497 3.55718L 5.9245 2.7572C 5.92453 2.75719 5.92456 2.75719 5.92459 2.75718L 6.85436 2.21611L 6.85436 3.17474L 6.85436 3.25663L 6.85436 4.85654L 6.85436 4.93856L 6.85436 6.01405L 5.93063 6.55161ZM 2.56827 7.43356L 2.56827 7.43355L 1.12307 6.59261C 1.12306 6.59261 1.12306 6.59259 1.12306 6.59259L 0.128827 6.01408L 0.128827 4.93856L 0.128827 4.85654L 0.128827 3.25663L 0.128827 3.17474L 0.128827 2.21614L 0.988286 2.71622L 0.988286 2.71623L 2.43348 3.55718C 2.4335 3.55718 2.4335 3.55719 2.4335 3.55719L 2.46534 3.57572L 2.50387 3.59814C 2.50387 3.59814 2.50387 3.59815 2.50389 3.59815L 3.4283 4.13591L 3.4283 7.93397L 2.56827 7.43356ZM 1.05249 1.55879C 1.05256 1.55876 1.05262 1.55877 1.05269 1.55874L 2.56827 0.676832L 2.56827 0.676825L 3.49163 0.139561L 4.4149 0.676815C 4.41491 0.676823 4.41491 0.676824 4.41491 0.676832L 5.9305 1.55874C 5.93059 1.55879 5.93069 1.55876 5.93078 1.55882L 6.82851 2.08123L 5.93063 2.60375C 5.93058 2.60378 5.93053 2.60377 5.9305 2.60379L 4.41491 3.4857C 4.41491 3.48571 4.41491 3.48571 4.4149 3.48571L 3.49163 4.02297L 2.56827 3.48571L 2.56827 3.4857L 1.12307 2.64475C 1.12306 2.64475 1.12306 2.64474 1.12306 2.64474L 0.154614 2.08123L 1.05249 1.55879Z" transform="translate(66.7236 28.3384)" fill="white"/>
</g>
<g id="Shape_7">
<path d="M 10.2448 5.99769L 10.2449 5.99756L 10.1765 5.95724L 9.93701 5.81538L 9.93676 5.81583L 1.36432 0.759815L 1.35979 0.767801L 0.0635359 -2.70313e-07L 2.09692e-07 1.89519L 0.594206 2.23916L 9.42525 7.44769L 9.42567 7.44696L 9.80994 7.67317L 9.80994 8.24279L 9.80994 8.5024L 9.80994 18.3678L 9.80994 18.7183L 9.80994 19.1851L 9.42239 19.42L 9.42219 19.4196L 0.765145 24.5255L 0.76243 24.5207L 2.09692e-07 24.975L 0.0635359 26.8702L 1.3587 26.103L 1.36124 26.1075L 10.2418 20.8698L 10.2382 20.8634L 11.4492 20.1461L 11.4492 18.7183L 11.4492 18.3678L 11.4492 8.5024L 11.4492 8.24279L 11.4492 6.71105L 10.2448 5.99769Z" transform="translate(21.4365 18.9604)" fill="white"/>
</g>
<g id="Shape_8">
<path d="M 10.9118 24.6479L 2.03127 19.4102L 2.02598 19.4195L 1.62651 19.1774L 1.62651 18.7183L 1.63923 18.7183L 1.63923 8.24279L 1.62651 8.24279L 1.62651 7.68065L 2.02974 7.44328L 2.03433 7.45139L 10.9149 2.21366L 10.911 2.20673L 11.4492 1.89519L 11.3856 -2.70313e-07L 10.0956 0.764093L 10.0953 0.763515L 1.51653 5.82323L 1.51214 5.81538L -2.14954e-07 6.71105L -2.14954e-07 8.24279L -2.14954e-07 8.5024L -2.14954e-07 18.3678L -2.14954e-07 18.7183L -2.14954e-07 20.1461L 1.51214 21.0418L 1.51397 21.0386L 9.87579 25.9704L 9.87348 25.9745L 11.3856 26.8702L 11.4492 24.975L 10.9089 24.6531L 10.9118 24.6479Z" transform="translate(10.1143 18.9604)" fill="white"/>
</g>
<g id="Shape_9">
<path d="M 3.30006 15.3068L 6.59985 12.1866L 6.59985 -9.7168e-07L 3.30006 1.93691L -6.99316e-07 -9.7168e-07L -6.99316e-07 12.1858L 3.30006 15.3068Z" transform="translate(18.7002 50.6147)" fill="white"/>
</g>
<g id="Shape_10">
<path d="M 3.29978 -6.84314e-10L -6.99316e-07 3.12017L -6.99316e-07 15.3068L 3.29978 13.3699L 6.59985 15.3068L 6.59985 3.12101L 3.29978 -6.84314e-10Z" transform="translate(18.7002 0)" fill="white"/>
</g>
<g id="Shape_11">
<path d="M 0 -6.84314e-10L 0 13.3699L 17.3677 23.5636L 17.3677 24.2174L 17.3677 24.8317L 17.3677 39.783L 17.3677 40.3842L 17.3677 42.3553L 0 52.5386L 0 65.9216L 22 45.1152L 22 43.6515L 22 40.3842L 22 39.783L 22 39.6392L 22 26.2824L 22 24.8317L 22 24.2174L 22 20.9632L 22 20.8063L 0 -6.84314e-10Z" transform="translate(22 0)" fill="white"/>
</g>
<g id="Shape_12">
<path d="M 4.39966e-07 11.2004L 4.39966e-07 20.3228L 11.8452 13.3699L 11.8452 -6.84314e-10L 4.39966e-07 11.2004Z" transform="translate(10.1553 0)" fill="white"/>
</g>
<g id="Shape_13">
<path d="M 4.61935 23.9953L 4.63226 23.9953L 4.63226 7.82852L 4.61935 7.82852L 4.61935 7.08357L 4.61935 0.705746L 4.61935 6.88525e-07L 0 4.36515L 0 4.57426L 0 7.82852L 0 8.44278L 0 9.78891L 0 23.2503L 0 23.3941L 0 23.9953L 0 27.2626L 0 28.7263L 22 49.5327L 22 36.1497L 4.61935 25.9588L 4.61935 23.9953Z" transform="translate(0 16.3889)" fill="white"/>
</g>
</g>
</g>
</g>
</g>
</g>
</svg>

