<?xml version="1.0" encoding="UTF-8"?>
<svg width="99px" height="30px" viewBox="0 0 99 30" version="1.1" xmlns="http://www.w3.org/2000/svg" xmlns:xlink="http://www.w3.org/1999/xlink">
    <!-- Generator: Sketch 51.2 (57519) - http://www.bohemiancoding.com/sketch -->
    <title>OnyxToken</title>
    <desc>Created with Sketch.</desc>
    <defs>
        <polygon id="path-1" points="0.0162827527 0.0453187503 14.490917 0.0453187503 14.490917 24.5454545 0.0162827527 24.5454545"></polygon>
        <polygon id="path-3" points="0.130668643 0.0183879048 12.6137879 0.0183879048 12.6137879 18.033612 0.130668643 18.033612"></polygon>
    </defs>
    <g id="Page-1" stroke="none" stroke-width="1" fill="none" fill-rule="evenodd">
        <g id="Artboard-Copy" transform="translate(-1221.000000, -909.000000)">
            <g id="OnyxToken" transform="translate(1221.000000, 909.000000)">
                <path d="M0,13.7086998 C0.558174792,11.8337719 0.868045926,9.84044286 1.72037643,8.10577482 C4.42287426,2.60431055 10.1192523,-0.457907708 16.3009596,0.0557711624 C19.6984488,0.338112385 22.6241056,1.71047288 25.1478174,3.94406519 C25.2587498,4.04224707 25.3297465,4.183782 25.4545455,4.35300458 C24.1777137,5.58255506 22.9095716,6.80354424 21.5889216,8.07517267 C19.4982158,6.13776542 16.9772773,5.30713575 14.0529147,5.50513892 C9.09756503,5.84048743 5.04723871,10.4340881 5.57305822,15.7519394 C5.62630577,16.2903915 5.89735056,16.3823801 6.36289681,16.3765511 C7.73328156,16.3594285 9.10403609,16.3703578 10.5920092,16.3703578 C8.00432636,18.8635219 5.53682031,21.2410171 3.05064063,23.6363636 C1.4789136,21.7903985 0.631390168,19.3677287 0.176937157,16.7769292 C0.124983822,16.4816549 0.0593488269,16.1885665 0,15.8945673 L0,13.7086998 Z" id="Fill-1" fill="#FFFFFF"></path>
                <path d="M23.6282008,12.6245677 L18.8250727,12.6245677 C21.3512192,10.1657458 23.7804881,7.8010782 26.1911679,5.45454545 C30.1082769,10.1208667 30.4450249,18.9984907 24.7864425,24.8034573 C18.8240003,30.9203791 9.37753864,30.1222649 4.54545455,24.7485034 C5.77840994,23.5450124 7.01476141,22.3382241 8.28632486,21.096998 C11.7680207,24.04088 15.6760139,24.6821923 19.668194,22.0488001 C22.9044785,19.91384 24.1025794,16.6429821 23.6282008,12.6245677" id="Fill-3" fill="#FFFFFF"></path>
                <path d="M46.8918611,14.6672844 C46.8353427,14.6580992 46.7788244,14.6487302 46.7224873,14.6393613 C46.7224873,14.0272569 46.7310012,13.4151525 46.7210381,12.8032318 C46.6842649,10.5693815 44.9274873,8.7980998 42.7459166,8.78817974 C40.5210513,8.77807598 38.7477892,10.5655237 38.7247834,12.8533832 C38.7137333,13.9550609 38.7178997,15.0569223 38.7240588,16.1586 C38.7349277,18.1563897 39.9382968,19.7454362 41.7622805,20.1813677 C43.6145234,20.6239125 45.5254583,19.8349004 46.2842892,18.0338586 C46.7152413,17.0106228 46.703829,15.795783 46.8918611,14.6672844 M49.9806232,14.5702883 C50.0277218,16.3610427 50.0639515,18.1591452 49.1328485,19.8097329 C47.4639278,22.7679312 44.0731912,24.2515312 40.8724793,23.3962017 C37.6844478,22.5443625 35.4622998,19.6500934 35.462481,16.2462272 C35.462481,14.5713905 35.3878478,12.8579759 35.6963436,11.2299839 C36.2671424,8.21722523 38.249631,6.31588056 41.1487307,5.65821738 C44.0925741,4.99045043 46.5706849,5.98043559 48.5164003,8.39670481 C50.001093,10.2399988 50.0456555,12.3695048 49.9806232,14.5702883" id="Fill-5" fill="#FFFFFF"></path>
                <path d="M56.0258488,6.68091874 C59.8602288,4.32069649 64.4597856,5.53054748 66.4368087,9.46799557 C66.9131236,10.4172774 67.1783053,11.5683853 67.2140967,12.6379157 C67.3167711,15.7032398 67.253865,18.7744567 67.251515,21.8432796 C67.250792,22.7028815 66.8921549,23.3374548 66.0478031,23.5698493 C64.9516462,23.8714834 64.0709608,23.1199763 64.0648148,21.867403 C64.0499921,18.8906539 64.0785529,15.9135366 64.0523421,12.9369717 C64.0330002,10.7224103 62.3515274,8.92696936 60.2403769,8.79511954 C58.1489297,8.6647429 56.352129,10.1707035 56.0889357,12.2907971 C56.0361524,12.7154419 56.0229566,13.1472685 56.0220527,13.5757804 C56.0159067,16.3072446 56.0321756,19.0387088 56.0113876,21.7698047 C56.0025302,22.9315931 55.4005838,23.5936044 54.4277084,23.6201217 C53.411088,23.647928 52.7447894,22.9779983 52.7399088,21.7874828 C52.7202054,17.0000086 52.727436,12.2125343 52.7355704,7.42505997 C52.7371973,6.56914103 53.0144903,5.83991578 53.8951757,5.55246107 C54.7671845,5.26776859 55.3544889,5.59205285 56.0258488,6.68091874" id="Fill-7" fill="#FFFFFF"></path>
                <g id="Group-11" transform="translate(69.090909, 5.454545)">
                    <mask id="mask-2" fill="white">
                        <use xlink:href="#path-1"></use>
                    </mask>
                    <g id="Clip-10"></g>
                    <path d="M7.24758974,11.3782157 C8.12572494,9.14995421 8.90502564,7.18649701 9.67295105,5.21891904 C10.1837203,3.90976841 10.6584988,2.58718049 11.1867972,1.28465893 C11.5985455,0.269337094 12.4960746,-0.164956204 13.3751422,0.165063703 C14.3756084,0.540412077 14.7424149,1.45486463 14.3153753,2.5305647 C12.3849324,7.39181885 10.4485221,12.250923 8.52162238,17.1132522 C7.72833566,19.1146921 6.95668065,21.1240153 6.16898834,23.127426 C5.72274126,24.2618918 4.9223683,24.7535176 4.0198042,24.4641679 C2.87798601,24.098136 2.49122611,23.2773862 2.95295105,22.120704 C3.67332401,20.3156277 4.45057343,18.5304386 5.12432634,16.709775 C5.29253147,16.2559529 5.30894172,15.6441082 5.13700699,15.1965567 C3.54782284,11.0695163 1.90082984,6.96307963 0.275841492,2.84875979 C0.177379953,2.59918447 0.10372028,2.33653019 0.0539300699,2.07369675 C-0.123226107,1.13810285 0.333463869,0.396543464 1.24218182,0.116868613 C2.01532867,-0.121061048 2.80824242,0.241208361 3.17411655,1.10227007 C3.87584149,2.75398208 4.53150583,4.42414798 5.19127273,6.09198474 C5.85085315,7.75928401 6.49197203,9.43321234 7.24758974,11.3782157" id="Fill-9" fill="#FFFFFF" mask="url(#mask-2)"></path>
                </g>
                <g id="Group-14" transform="translate(85.454545, 5.454545)">
                    <mask id="mask-4" fill="white">
                        <use xlink:href="#path-3"></use>
                    </mask>
                    <g id="Clip-13"></g>
                    <path d="M6.38210859,6.03603306 C7.49433081,4.27166208 8.48635101,2.57854913 9.61147727,0.986997245 C9.94132576,0.520514233 10.6381439,0.130431589 11.1864773,0.101414141 C11.5965783,0.0793755739 12.2256944,0.607015611 12.4130682,1.04797062 C12.6006187,1.48892562 12.5293813,2.23327824 12.2790783,2.65917355 C11.1320328,4.61068871 9.90756313,6.51518825 8.65286616,8.3948944 C8.32513889,8.88561983 8.33097222,9.19471074 8.63854798,9.66596878 C9.87380051,11.5588981 11.101452,13.4588062 12.2695328,15.3969146 C12.8850379,16.4180349 12.6458712,17.3506336 11.7869571,17.8340129 C10.9722348,18.2927824 10.0433207,17.9403489 9.46157828,16.9858953 C8.53566919,15.4667034 7.59261364,13.9585308 6.65291667,12.4481543 C6.59210859,12.35045 6.49948232,12.2740496 6.34481061,12.1025161 C5.59160354,13.2729477 4.86526515,14.400955 4.13945707,15.5298806 C3.76400253,16.1139027 3.41099747,16.7148209 3.01079545,17.2795592 C2.47130051,18.0408081 1.63253788,18.237135 0.912739899,17.8150964 C0.209381313,17.4026079 -0.0992550505,16.5100459 0.321982323,15.6672544 C0.793244949,14.724371 1.39496212,13.8507254 1.95337121,12.9561433 C2.65637626,11.8297888 3.34647727,10.6931497 4.09561869,9.60077135 C4.42087121,9.12657484 4.29872475,8.79526171 4.03463384,8.38736455 C2.88723485,6.61528007 1.76352273,4.82685032 0.616300505,3.05494949 C-0.0591287879,2.01160698 0.031729798,0.834931129 0.860239899,0.298292011 C1.63625,-0.204370983 2.43188131,-0.0293480257 2.99135101,0.818034894 C4.10268939,2.5015978 5.19175505,4.20113866 6.38210859,6.03603306" id="Fill-12" fill="#FFFFFF" mask="url(#mask-4)"></path>
                </g>
            </g>
        </g>
    </g>
</svg>