<?xml version="1.0" encoding="UTF-8"?>
<svg width="109px" height="38px" viewBox="0 0 109 38" version="1.1" xmlns="http://www.w3.org/2000/svg" xmlns:xlink="http://www.w3.org/1999/xlink">
    <!-- Generator: Sketch 51.2 (57519) - http://www.bohemiancoding.com/sketch -->
    <title>ozex</title>
    <desc>Created with Sketch.</desc>
    <defs></defs>
    <g id="Page-1" stroke="none" stroke-width="1" fill="none" fill-rule="evenodd">
        <g id="Artboard-Copy" transform="translate(-1212.000000, -346.000000)" fill="#FFFFFF">
            <g id="ozex" transform="translate(1212.000000, 346.000000)">
                <path d="M32.3999176,19.1664336 C32.4995479,11.013358 27.2596992,5.66845042 19.0727748,5.57169412 C10.9925059,5.4758958 5.59618655,10.7039294 5.46813613,18.7522655 C5.3352958,27.0793748 10.4416655,32.3211395 18.8112454,32.4495092 C27.0444723,32.575963 32.2993294,27.4395765 32.3999176,19.1664336 Z M21.3949261,0.00804705882 C23.0592622,0.515139496 24.7839513,0.879492437 26.3780353,1.55295462 C34.7102538,5.0729042 39.3983042,14.0198286 37.5771782,22.7665345 C35.7017664,31.7734924 27.9210269,38.0629714 18.7323714,37.9997445 C9.78257311,37.937795 2.08581681,31.5017445 0.33174958,22.619963 C0.250640336,22.2086689 0.112052101,21.8085513 -3.19327733e-05,21.403005 L-3.19327733e-05,16.6130891 C0.112052101,16.2078622 0.242337815,15.8067866 0.333026891,15.3970891 C1.86324538,8.49609748 5.9030605,3.72150924 12.4914303,1.16177815 C13.8124891,0.64829916 15.2312622,0.386131092 16.6050101,0.00804705882 L21.3949261,0.00804705882 Z" id="Fill-1"></path>
                <path d="M109,27.8424885 C106.52125,28.3528852 104.713714,27.65264 103.49095,25.3051332 C102.698782,23.7844373 101.504402,22.467264 100.358403,20.8762891 C99.0582287,22.6857329 97.7167685,24.2261451 96.758813,25.971352 C95.6792585,27.9385258 94.1533032,28.1690788 92,27.7464512 C94.2590976,24.6478186 96.4365917,21.6614414 98.6434372,18.6346777 C96.5833491,15.8146167 94.5616438,13.0473444 92.4776875,10.194529 C94.7177551,9.69240043 96.3030585,10.113438 97.4258339,12.0329111 C98.2734793,13.4820561 99.3746443,14.7871453 100.482905,16.3218334 C101.56762,14.8348459 102.650078,13.5761854 103.47192,12.1693349 C104.571794,10.2857962 106.088719,9.64756184 108.406519,10.1862609 C106.309339,12.9859696 104.258282,15.7239855 102.094657,18.6124174 C104.41149,21.6026107 106.705745,24.5635475 109,27.5244843 L109,27.8424885 Z" id="Fill-4"></path>
                <path d="M58.2381724,19.0579401 C57.859905,17.7863126 57.6436626,16.4369003 57.0692101,15.2595481 C55.9507044,12.9664495 53.4178483,11.982315 51.0006349,12.6917132 C48.6508013,13.3815097 47.1502674,15.5125046 46.9835415,18.3964573 C46.7948778,21.6543998 48.0750952,24.236236 50.3703981,25.1472527 C50.8461313,25.3364256 51.3704407,25.4537252 51.8819008,25.4985293 C55.5254278,25.8180696 57.9689664,23.2639248 58.2381724,19.0579401 M52.3751841,27.9997803 C47.2047981,27.9683552 44.0106792,24.5507981 44.0000238,19.0389606 C43.9896817,13.5554367 47.3542874,9.9854212 52.5184055,10.0000448 C57.6446028,10.0143572 61.047756,13.665269 60.9994932,19.0999439 C60.9502903,24.6226714 57.64711,28.0315166 52.3751841,27.9997803" id="Fill-6"></path>
                <path d="M81.101599,25.5184927 L90.9888251,25.5184927 C91.0712813,27.5392749 90.7241143,27.9811509 89.0484852,27.9897963 C85.4037219,28.0086881 81.7592859,27.9955599 78,27.9955599 L78,10 L84.4898316,10 L90.8242397,10 C90.9626485,12.1126796 90.5821063,12.5369446 88.6368583,12.5443092 C86.1474643,12.553595 83.6577432,12.5465506 81.0894923,12.5465506 L81.0894923,17.4532953 L90.1874941,17.4532953 L90.1874941,19.9944024 L81.101599,19.9944024 L81.101599,25.5184927 Z" id="Fill-8"></path>
                <path d="M75.6272965,10 C75.9916117,11.4707369 75.6394185,12.6076986 74.6948857,13.7591583 C71.6250719,17.5028521 68.6705809,21.3373998 65.4471127,25.4213122 L75.933295,25.4213122 C76.170493,27.5641098 75.8333705,27.9868057 73.9688763,27.992927 C70.0488847,28.0061363 66.1285655,27.9967932 62.1623792,27.9967932 C61.8078927,26.5653619 62.0215019,25.4648061 62.9247545,24.343631 C65.999155,20.5271252 68.9746137,16.6332971 72.2062725,12.4897819 L62.4690329,12.4897819 L62.4690329,10 L75.6272965,10 Z" id="Fill-10"></path>
                <path d="M20,24.864066 L20,10.0392271 C21.61695,9.76056238 24.4634832,10.9910741 25.8750064,12.9516131 C26.540245,13.8759644 27.0926808,14.91864 27.4506063,15.979852 C28.4539225,18.9546441 28.2167389,19.5085752 25.6146668,21.3514078 C24.7436707,21.9683628 23.8660585,22.5772853 23.0020092,23.2028907 C22.1869182,23.7929678 21.3863824,24.4003457 20.5795614,25 C20.3863743,24.9548946 20.1931871,24.9094803 20,24.864066" id="Fill-12"></path>
                <path d="M17,13 L17,28 C13.9590368,27.6601461 11.3685747,25.3591838 10.5137447,22.2619654 C10.4582738,22.0598219 10.4560293,21.8422017 10.3893358,21.6447959 C9.71919528,19.6637889 9.72689068,18.030848 11.9345069,16.800299 C13.6653292,15.8356952 15.1383559,14.4229012 17,13" id="Fill-14"></path>
                <path d="M17,10 C15.3332354,11.3332333 13.6667646,12.6667667 12,14 C12.9034799,11.6902423 14.5252763,10.2991075 17,10" id="Fill-16"></path>
                <path d="M21,28 C22.666559,26.6667767 24.333118,25.3332233 26,24 C25.1788345,26.4105654 23.4454064,27.6734626 21,28" id="Fill-18"></path>
            </g>
        </g>
    </g>
</svg>