<?xml version="1.0" encoding="UTF-8"?>
<svg width="130px" height="16px" viewBox="0 0 130 16" version="1.1" xmlns="http://www.w3.org/2000/svg" xmlns:xlink="http://www.w3.org/1999/xlink">
    <!-- Generator: Sketch 51.2 (57519) - http://www.bohemiancoding.com/sketch -->
    <title>Peachcoin</title>
    <desc>Created with Sketch.</desc>
    <defs>
        <polygon id="path-1" points="0 0.381 9.88725 0.381 9.88725 14.6635 0 14.6635"></polygon>
        <polygon id="path-3" points="0.756022556 0.0590266667 14.9733158 0.0590266667 14.9733158 15.2 0.756022556 15.2"></polygon>
        <polygon id="path-5" points="0.0638571429 0.0590266667 14.2811504 0.0590266667 14.2811504 15.2 0.0638571429 15.2"></polygon>
        <polygon id="path-7" points="0 15 130 15 130 0 0 0"></polygon>
    </defs>
    <g id="Page-1" stroke="none" stroke-width="1" fill="none" fill-rule="evenodd">
        <g id="Artboard-Copy" transform="translate(-577.000000, -793.000000)">
            <g id="Peachcoin" transform="translate(577.000000, 793.000000)">
                <g id="Group-3">
                    <mask id="mask-2" fill="white">
                        <use xlink:href="#path-1"></use>
                    </mask>
                    <g id="Clip-2"></g>
                    <path d="M2.40225,7.251 C2.67475,7.3285 2.96975,7.4035 3.28225,7.471 C3.59475,7.5385 3.90725,7.5735 4.21975,7.5735 C4.73725,7.5735 5.18725,7.496 5.57475,7.3385 C5.95975,7.1835 6.28225,6.971 6.53975,6.701 C6.79975,6.4335 6.99225,6.1185 7.11975,5.756 C7.24475,5.396 7.30975,5.011 7.30975,4.5985 C7.30975,4.121 7.22725,3.686 7.05975,3.296 C6.89475,2.906 6.66725,2.5735 6.37975,2.301 C6.09225,2.026 5.75225,1.8135 5.36225,1.6635 C4.96975,1.511 4.54975,1.436 4.10225,1.436 L2.40225,1.436 L2.40225,7.251 Z M-0.00025,0.381 L4.52725,0.381 C5.26725,0.381 5.96725,0.471 6.61975,0.651 C7.27475,0.8335 7.84475,1.096 8.32725,1.4435 C8.80975,1.7885 9.19225,2.216 9.46975,2.7235 C9.74725,3.2335 9.88725,3.8135 9.88725,4.4685 C9.88725,5.1135 9.75225,5.676 9.48475,6.1585 C9.21725,6.6435 8.86225,7.041 8.42225,7.3535 C7.98225,7.666 7.48225,7.901 6.92225,8.056 C6.35975,8.2135 5.78725,8.291 5.19975,8.291 C4.94725,8.291 4.68475,8.2835 4.41725,8.2685 C4.14725,8.2535 3.88725,8.2385 3.63225,8.2185 C3.37975,8.1985 3.14475,8.1735 2.92975,8.1435 C2.71475,8.116 2.53975,8.086 2.40225,8.056 L2.40225,14.6635 L-0.00025,14.6635 L-0.00025,0.381 Z" id="Fill-1" fill="#FFFFFF" mask="url(#mask-2)"></path>
                </g>
                <polygon id="Fill-4" fill="#FFFFFF" points="22 1 22 1.90425346 14.4188271 1.90425346 14.4188271 6.91563102 19.4930783 6.91563102 19.4930783 7.81988447 14.4188271 7.81988447 14.4188271 14.0957465 22 14.0957465 22 15 12 15 12 1"></polygon>
                <path d="M25.8251232,8.55196028 L31.0073892,8.55196028 L28.4507389,3.13028591 L25.8251232,8.55196028 Z M29.3743842,0 L36,14 L33.58867,14 L31.4384236,9.43639788 L25.4064039,9.43639788 L23.1847291,14 L22,14 L28.7832512,0 L29.3743842,0 Z" id="Fill-6" fill="#FFFFFF"></path>
                <g id="Group-10" transform="translate(38.000000, 0.000000)">
                    <mask id="mask-4" fill="white">
                        <use xlink:href="#path-3"></use>
                    </mask>
                    <g id="Clip-9"></g>
                    <path d="M3.54737594,7.67422667 C3.54737594,8.68249333 3.69872932,9.59196 3.99895489,10.39756 C4.29918045,11.2056933 4.71106015,11.8846267 5.23459398,12.4394267 C5.75812782,12.9942267 6.37594737,13.4198267 7.08805263,13.7162267 C7.80015789,14.0126267 8.57181203,14.1620933 9.40549624,14.1620933 C9.90173684,14.1620933 10.380609,14.06076 10.844594,13.86316 C11.3110602,13.66556 11.7427895,13.4096933 12.139782,13.0930267 C12.5367744,12.77636 12.8915865,12.41916 13.2017368,12.02396 C13.5118872,11.62876 13.7674511,11.22596 13.9709098,10.8206267 L14.9733158,11.4742267 C14.683015,11.9580933 14.340609,12.42676 13.9411353,12.8776933 C13.5441429,13.3260933 13.0851203,13.7238267 12.5615865,14.0632933 C12.0380526,14.4052933 11.4475263,14.6814267 10.7875263,14.88916 C10.1275263,15.0968933 9.39060902,15.20076 8.57677444,15.20076 C7.40564662,15.20076 6.33624812,15.0006267 5.37106015,14.5978267 C4.40835338,14.19756 3.58459398,13.6528933 2.89978195,12.96636 C2.21745113,12.2772933 1.68895489,11.4792933 1.31677444,10.5698267 C0.942112782,9.65782667 0.756022556,8.69262667 0.756022556,7.67422667 C0.756022556,6.65582667 0.947075188,5.68556 1.32918045,4.76596 C1.71376692,3.84382667 2.25466917,3.03569333 2.95188722,2.33902667 C3.64910526,1.63982667 4.48527068,1.08502667 5.46038346,0.674626667 C6.43301504,0.264226667 7.51233835,0.0590266667 8.69339098,0.0590266667 C9.45015789,0.0590266667 10.1448947,0.162893333 10.7800827,0.370626667 C11.4152707,0.57836 11.993391,0.854493333 12.5169248,1.19396 C13.0404586,1.53596 13.509406,1.93116 13.9212857,2.38209333 C14.3331654,2.83302667 14.683015,3.29916 14.9733158,3.78556 L13.9411353,4.48222667 C13.3406842,3.30422667 12.678203,2.44796 11.9512105,1.90836 C11.224218,1.36876 10.380609,1.09769333 9.42038346,1.09769333 C8.60654887,1.09769333 7.83985714,1.24969333 7.12278947,1.55116 C6.4057218,1.85262667 5.78293985,2.28836 5.25444361,2.85836 C4.72842857,3.42582667 4.31158647,4.11742667 4.0063985,4.92809333 C3.70121053,5.73876 3.54737594,6.65582667 3.54737594,7.67422667" id="Fill-8" fill="#FFFFFF" mask="url(#mask-4)"></path>
                </g>
                <polygon id="Fill-11" fill="#FFFFFF" points="57.4060088 8.28058813 57.4060088 15 55 15 55 1 57.4060088 1 57.4060088 7.37633468 64.5939912 7.37633468 64.5939912 1 67 1 67 15 64.5939912 15 64.5939912 8.28058813"></polygon>
                <g id="Group-15" transform="translate(76.000000, 0.000000)">
                    <mask id="mask-6" fill="white">
                        <use xlink:href="#path-5"></use>
                    </mask>
                    <g id="Clip-14"></g>
                    <path d="M2.85521053,7.67422667 C2.85521053,8.68249333 3.00656391,9.59196 3.30678947,10.39756 C3.60701504,11.2056933 4.01889474,11.8846267 4.54242857,12.4394267 C5.06596241,12.9942267 5.68378195,13.4198267 6.39588722,13.7162267 C7.10799248,14.0126267 7.87964662,14.1620933 8.71333083,14.1620933 C9.20957143,14.1620933 9.68844361,14.06076 10.1524286,13.86316 C10.6188947,13.66556 11.0506241,13.4096933 11.4476165,13.0930267 C11.844609,12.77636 12.1994211,12.41916 12.5095714,12.02396 C12.8197218,11.62876 13.0752857,11.22596 13.2787444,10.8206267 L14.2811504,11.4742267 C13.9908496,11.9580933 13.6484436,12.42676 13.2489699,12.8776933 C12.8519774,13.3260933 12.3929549,13.7238267 11.8694211,14.0632933 C11.3458872,14.4052933 10.7553609,14.6814267 10.0953609,14.88916 C9.4353609,15.0968933 8.69844361,15.20076 7.88460902,15.20076 C6.7134812,15.20076 5.64408271,15.0006267 4.67889474,14.5978267 C3.71618797,14.19756 2.89242857,13.6528933 2.20761654,12.96636 C1.52528571,12.2772933 0.996789474,11.4792933 0.624609023,10.5698267 C0.249947368,9.65782667 0.0638571429,8.69262667 0.0638571429,7.67422667 C0.0638571429,6.65582667 0.254909774,5.68556 0.637015038,4.76596 C1.0216015,3.84382667 1.56250376,3.03569333 2.2597218,2.33902667 C2.95693985,1.63982667 3.79310526,1.08502667 4.76821805,0.674626667 C5.74084962,0.264226667 6.82017293,0.0590266667 8.00122556,0.0590266667 C8.75799248,0.0590266667 9.45272932,0.162893333 10.0879173,0.370626667 C10.7231053,0.57836 11.3012256,0.854493333 11.8247594,1.19396 C12.3482932,1.53596 12.8172406,1.93116 13.2291203,2.38209333 C13.641,2.83302667 13.9908496,3.29916 14.2811504,3.78556 L13.2489699,4.48222667 C12.6485188,3.30422667 11.9860376,2.44796 11.2590451,1.90836 C10.5320526,1.36876 9.68844361,1.09769333 8.72821805,1.09769333 C7.91438346,1.09769333 7.14769173,1.24969333 6.43062406,1.55116 C5.71355639,1.85262667 5.09077444,2.28836 4.5622782,2.85836 C4.03626316,3.42582667 3.61942105,4.11742667 3.31423308,4.92809333 C3.00904511,5.73876 2.85521053,6.65582667 2.85521053,7.67422667" id="Fill-13" fill="#FFFFFF" mask="url(#mask-6)"></path>
                </g>
                <path d="M101,14.2796185 C101.832487,14.2796185 102.56599,14.1089357 103.200508,13.7650602 C103.835025,13.4211847 104.370558,12.9467871 104.807107,12.3393574 C105.243655,11.7294177 105.573604,11.0040161 105.796954,10.1606426 C106.020305,9.31726908 106.129442,8.40110442 106.129442,7.41214859 C106.129442,6.43072289 106.020305,5.52961847 105.796954,4.7063253 C105.573604,3.88052209 105.243655,3.17269076 104.807107,2.58032129 C104.370558,1.98795181 103.835025,1.52610442 103.200508,1.19728916 C102.56599,0.868473896 101.832487,0.705321285 101,0.705321285 C100.15736,0.705321285 99.4137056,0.868473896 98.7690355,1.19728916 C98.1243655,1.52610442 97.5862944,1.98795181 97.1548223,2.58032129 C96.7233503,3.17269076 96.4010152,3.88052209 96.1827411,4.7063253 C95.964467,5.52961847 95.8553299,6.43072289 95.8553299,7.41214859 C95.8553299,8.40110442 95.964467,9.31726908 96.1827411,10.1606426 C96.4010152,11.0040161 96.7233503,11.7294177 97.1548223,12.3393574 C97.5862944,12.9467871 98.1243655,13.4211847 98.7690355,13.7650602 C99.4137056,14.1089357 100.15736,14.2796185 101,14.2796185 M101,15 C99.8807107,15 98.8324873,14.8017068 97.8553299,14.4051205 C96.8781726,14.0085341 96.0304569,13.4638554 95.3121827,12.7710843 C94.5939086,12.0808233 94.0279188,11.2776104 93.6167513,10.3589357 C93.2055838,9.44277108 93,8.46134538 93,7.41214859 C93,6.38303213 93.2055838,5.41666667 93.6167513,4.51305221 C94.0279188,3.61194779 94.5939086,2.82881526 95.3121827,2.16114458 C96.0304569,1.4934739 96.8781726,0.966365462 97.8553299,0.579819277 C98.8324873,0.193273092 99.8807107,0 101,0 C102.119289,0 103.167513,0.193273092 104.14467,0.579819277 C105.121827,0.966365462 105.969543,1.4934739 106.687817,2.16114458 C107.406091,2.82881526 107.972081,3.61194779 108.383249,4.51305221 C108.794416,5.41666667 109,6.38303213 109,7.41214859 C109,8.46134538 108.794416,9.44277108 108.383249,10.3589357 C107.972081,11.2776104 107.406091,12.0808233 106.687817,12.7710843 C105.969543,13.4638554 105.121827,14.0085341 104.14467,14.4051205 C103.167513,14.8017068 102.119289,15 101,15" id="Fill-16" fill="#FFFFFF"></path>
                <mask id="mask-8" fill="white">
                    <use xlink:href="#path-7"></use>
                </mask>
                <g id="Clip-19"></g>
                <polygon id="Fill-18" fill="#FFFFFF" mask="url(#mask-8)" points="112 15 114 15 114 1 112 1"></polygon>
                <polygon id="Fill-20" fill="#FFFFFF" mask="url(#mask-8)" points="118 1 119.362832 1 128.82933 11.002052 128.932996 11.002052 128.932996 1 130 1 130 15 129.436157 15 119.185841 3.875171 119.097345 3.875171 119.097345 14.6768126 118 14.6768126"></polygon>
            </g>
        </g>
    </g>
</svg>