<?xml version="1.0" encoding="UTF-8"?>
<svg width="154px" height="22px" viewBox="0 0 154 22" version="1.1" xmlns="http://www.w3.org/2000/svg" xmlns:xlink="http://www.w3.org/1999/xlink">
    <!-- Generator: Sketch 51.2 (57519) - http://www.bohemiancoding.com/sketch -->
    <title>Artboard-Copy</title>
    <desc>Created with Sketch.</desc>
    <defs></defs>
    <g id="Page-1" stroke="none" stroke-width="1" fill="none" fill-rule="evenodd">
        <g id="Artboard-Copy" fill="#FFFFFF" fill-rule="nonzero">
            <g id="Group">
                <path d="M35.7414973,10.563583 L37.6586765,10.563583 C38.9445019,10.563583 39.8761339,10.3249004 40.4536004,9.84752811 C41.0310669,9.37015579 41.3197959,8.6618075 41.3197959,7.72246197 C41.3197959,6.76771734 41.0079686,6.08246736 40.3843048,5.66669147 C39.760641,5.25091558 38.8213095,5.04303075 37.5662823,5.04303075 L35.7414973,5.04303075 L35.7414973,10.563583 Z M35.7414973,12.850339 L35.7414973,19.5951141 L32.9812211,19.5951141 L32.9812211,2.71007771 L37.7510707,2.71007771 C39.9300443,2.71007771 41.5430766,3.11814793 42.5902158,3.9343006 C43.6373551,4.75045327 44.1609169,5.98236334 44.1609169,7.63006779 C44.1609169,9.73204589 43.0675967,11.2295866 40.8809235,12.1227348 L45.6507731,19.5951141 L42.5093709,19.5951141 L38.4671256,12.850339 L35.7414973,12.850339 Z M61.9607915,2.71007771 L61.9607915,13.6356895 C61.9607915,14.8830171 61.693236,15.9744125 61.1581171,16.9099082 C60.6229981,17.845404 59.8492046,18.5653014 58.8367133,19.0696222 C57.824222,19.5739429 56.6134854,19.8260995 55.2044671,19.8260995 C53.1101886,19.8260995 51.4817574,19.27174 50.3191248,18.1630043 C49.1564923,17.0542686 48.5751847,15.5297799 48.5751847,13.5894924 L48.5751847,2.71007771 L51.3470101,2.71007771 L51.3470101,13.3931548 C51.3470101,14.7867739 51.6703865,15.8146489 52.317149,16.4768105 C52.9639115,17.1389721 53.957139,17.4700479 55.2968613,17.4700479 C57.8993104,17.4700479 59.2005154,16.1033977 59.2005154,13.3700562 L59.2005154,2.71007771 L61.9607915,2.71007771 Z M66.9063258,2.71007771 L71.9187101,2.71007771 C74.2439753,2.71007771 75.9243776,3.04885298 76.9599675,3.72641369 C77.9955575,4.4039744 78.5133447,5.47419628 78.5133447,6.93711144 C78.5133447,7.92265429 78.2592632,8.74264443 77.7510927,9.39710648 C77.2429222,10.0515685 76.5114756,10.4634885 75.5567309,10.6328786 L75.5567309,10.7483714 C76.7424622,10.9716584 77.6144235,11.4124512 78.1726412,12.0707631 C78.7308588,12.7290749 79.0099634,13.6202848 79.0099634,14.7444196 C79.0099634,16.2612317 78.4806271,17.44887 77.4219384,18.3073702 C76.3632498,19.1658704 74.8907323,19.5951141 73.0043417,19.5951141 L66.9063258,19.5951141 L66.9063258,2.71007771 Z M69.666602,9.68583829 L72.3229346,9.68583829 C73.4778677,9.68583829 74.3209561,9.50297664 74.8522253,9.13724785 C75.3834945,8.77151906 75.6491251,8.14978944 75.6491251,7.27204034 C75.6491251,6.47898633 75.3623211,5.9053782 74.7887043,5.55119874 C74.2150876,5.19701928 73.304629,5.01993221 72.0573014,5.01993221 L69.666602,5.01993221 L69.666602,9.68583829 Z M69.666602,11.9263972 L69.666602,17.2737103 L72.6001172,17.2737103 C73.7550502,17.2737103 74.6270116,17.0523515 75.2160274,16.6096271 C75.8050432,16.1669028 76.0995467,15.4681788 76.0995467,14.5134342 C76.0995467,13.6356851 75.7992687,12.9850826 75.1987035,12.5616071 C74.5981383,12.1381317 73.6857549,11.9263972 72.4615259,11.9263972 L69.666602,11.9263972 Z M87.6859128,10.4134425 L91.681961,2.71007771 L94.6847719,2.71007771 L89.0602762,13.0466766 L89.0602762,19.5951141 L86.2884508,19.5951141 L86.2884508,13.1390708 L80.6870536,2.71007771 L83.6898645,2.71007771 L87.6859128,10.4134425 Z M104.250015,4.83514385 C102.663907,4.83514385 101.416598,5.39720282 100.508051,6.52133763 C99.5995036,7.64547244 99.1452368,9.1969092 99.1452368,11.1756944 C99.1452368,13.2468743 99.5821799,14.81371 100.456079,15.8762483 C101.329979,16.9387867 102.594611,17.4700479 104.250015,17.4700479 C104.966074,17.4700479 105.659023,17.3988281 106.328884,17.2563864 C106.998745,17.1139447 107.695545,16.931083 108.419303,16.707796 L108.419303,19.0753968 C107.094979,19.5758678 105.593589,19.8260995 103.915086,19.8260995 C101.44353,19.8260995 99.5456182,19.0773292 98.221295,17.579766 C96.8969718,16.0822029 96.2348201,13.9398343 96.2348201,11.1525959 C96.2348201,9.3970977 96.5562717,7.86105982 97.1991844,6.54443618 C97.8420971,5.22781253 98.7718042,4.21918615 99.9883337,3.51852679 C101.204863,2.81786742 102.633109,2.46754299 104.273114,2.46754299 C105.997814,2.46754299 107.591597,2.82941658 109.054513,3.5531746 L108.061275,5.85147983 C107.491508,5.58199546 106.889027,5.34523774 106.253814,5.14119957 C105.618601,4.9371614 104.950675,4.83514385 104.250015,4.83514385 Z M127.200865,11.1294974 C127.200865,13.8782379 126.513691,16.014832 125.13932,17.5393436 C123.76495,19.0638552 121.818917,19.8260995 119.301163,19.8260995 C116.752611,19.8260995 114.795029,19.0696298 113.428358,17.5566675 C112.061687,16.0437052 111.378362,13.8936372 111.378362,11.1063988 C111.378362,8.31916045 112.065537,6.17871668 113.439907,4.68500331 C114.814277,3.19128993 116.775709,2.44444444 119.324262,2.44444444 C121.834316,2.44444444 123.774574,3.20283909 125.145095,4.71965112 C126.515615,6.23646316 127.200865,8.37305721 127.200865,11.1294974 Z M114.311877,11.1294974 C114.311877,13.2083768 114.731497,14.7848367 115.570748,15.8589244 C116.409999,16.9330121 117.653459,17.4700479 119.301163,17.4700479 C120.941168,17.4700479 122.178853,16.9387867 123.014254,15.8762483 C123.849656,14.81371 124.26735,13.2314755 124.26735,11.1294974 C124.26735,9.05831747 123.853505,7.48763211 123.025803,6.41739418 C122.198101,5.34715624 120.964266,4.8120453 119.324262,4.8120453 C117.668858,4.8120453 116.419624,5.34715624 115.576523,6.41739418 C114.733422,7.48763211 114.311877,9.05831747 114.311877,11.1294974 Z M131.453443,19.5951141 L131.453443,2.71007771 L134.213719,2.71007771 L134.213719,19.5951141 L131.453443,19.5951141 Z M153.364859,19.5951141 L149.980922,19.5951141 L141.676995,6.14021164 L141.584601,6.14021164 L141.642347,6.89091435 C141.750141,8.3230313 141.804037,9.63193576 141.804037,10.817667 L141.804037,19.5951141 L139.297845,19.5951141 L139.297845,2.71007771 L142.647134,2.71007771 L150.927962,16.0956845 L150.997258,16.0956845 C150.981859,15.9185948 150.951061,15.2737669 150.904864,14.1611814 C150.858667,13.0485959 150.835568,12.1804843 150.835568,11.5568204 L150.835568,2.71007771 L153.364859,2.71007771 L153.364859,19.5951141 Z" id="RUBYCOIN"></path>
                <path d="M8.90610767,20.0703821 C3.95423606,18.8439686 0.934308426,13.8394283 2.16209942,8.89177546 C2.9857508,5.57038829 5.58144056,2.97690547 8.90610767,2.15350117 L8.90610767,0.223994344 C2.88727356,1.44685235 -0.998636561,7.31281533 0.225261629,13.3265524 C1.11504585,17.6963309 4.5325958,21.1119113 8.90599645,22 L8.90599645,20.0703821 L8.90610767,20.0703821 Z M10.4076185,1.91384056 C10.6475266,1.89484104 10.8884357,1.88250802 11.1316804,1.88250802 C11.4961312,1.88251596 11.8602687,1.90384825 12.2222222,1.94639529 L12.2222222,0.0548875028 C11.8588937,0.0190365563 11.4953797,0.000740722036 11.1316804,0 C10.885099,0 10.6475266,0.0111108305 10.4076185,0.0257771268 L10.4076185,1.91384056 Z" id="Shape"></path>
                <path d="M13.7160023,0 L13.7160023,1.90616126 C16.3267696,2.67877396 18.4510091,4.59864681 19.4955724,7.12969666 L17.4382833,7.12969666 C15.5400541,3.65797792 11.2088907,2.39326716 7.76212587,4.30574598 C4.31536107,6.21822481 3.06137276,10.5821359 4.95949389,14.0543993 C6.85761503,17.5266626 11.1891028,18.790502 14.6356514,16.8781321 C16.0538668,16.0909235 17.1636544,14.8406503 17.7822461,13.3332168 L19.7577887,13.3332168 C18.8493536,16.2030911 16.5858388,18.4314576 13.7167592,19.2804399 L13.7167592,21.1851852 C19.5214156,19.7765865 23.0943686,13.8943907 21.6974319,8.04607007 C20.747274,4.06910015 17.6652712,0.963650726 13.7175161,0.00544617503 L13.7164348,1.58659344e-15 L13.7160023,0 Z M12.8747477,15.2569147 L10.7913992,12.2761142 L7.32300829,12.2761142 L7.32300829,10.4448923 L11.3950912,10.4448923 C12.389891,10.4448923 12.7473701,9.81694834 12.7473701,9.06929744 C12.7473701,8.32164653 12.2973313,7.6388051 11.2883665,7.6388051 L7.3240896,7.6388051 L7.3240896,5.92870614 L11.4964094,5.92870614 C12.8181955,5.92870614 14.9190611,6.51689304 14.9190611,9.00274518 C14.9190611,11.4885973 13.0622458,11.9834368 13.0622458,11.9834368 L15.4507383,15.2583307 L12.882425,15.2583307 L12.8747477,15.2572415 L12.8747477,15.2569147 Z" id="Shape"></path>
                <path d="M12.2222222,20.3703704 C11.8971649,20.406034 11.5701463,20.423915 11.2428463,20.4239215 C11.0214004,20.4239215 10.8080453,20.4135838 10.5925926,20.3976581 L10.5925926,21.9783933 C10.8080453,21.991525 11.024397,22 11.2428463,22 C11.5699239,21.9999143 11.8967917,21.9845593 12.2222222,21.9539926 L12.2222222,20.3703704" id="Shape"></path>
            </g>
        </g>
    </g>
</svg>