<?xml version="1.0" encoding="UTF-8"?>
<svg width="69px" height="31px" viewBox="0 0 69 31" version="1.1" xmlns="http://www.w3.org/2000/svg" xmlns:xlink="http://www.w3.org/1999/xlink">
    <!-- Generator: Sketch 51.2 (57519) - http://www.bohemiancoding.com/sketch -->
    <title>StairsGold</title>
    <desc>Created with Sketch.</desc>
    <defs>
        <polygon id="path-1" points="0.063559375 0.289634783 32.9253719 0.289634783 32.9253719 8 0.063559375 8"></polygon>
    </defs>
    <g id="Page-1" stroke="none" stroke-width="1" fill="none" fill-rule="evenodd">
        <g id="Artboard-Copy" transform="translate(-826.000000, -786.000000)">
            <g id="StairsGold" transform="translate(826.000000, 786.000000)">
                <path d="M35.3847952,0 C34.1128931,2.09874654 32.8042813,4.1750485 31.584472,6.30478995 C30.9415286,7.42737531 30.1772686,7.94360069 28.8200602,7.9222249 C22.4157989,7.82033362 16.0104887,7.83921557 9.60552817,7.80786441 C8.24936867,7.80109541 7.09074207,8.08966861 7.169056,9.80329462 C7.22639298,11.0637538 7.78193241,11.8763902 9.23143931,11.869265 C15.8112077,11.8372013 22.3913258,11.8115503 28.9700454,11.8870781 C31.7316602,11.9187855 34.0209441,13.0616779 35.5508627,15.5384197 C36.4860848,17.0532509 37.4492762,18.5513376 38.4390384,20.0294737 C39.7224778,21.946526 41.5890763,23.1229071 43.7934036,23.1763466 C49.6064647,23.3170705 55.42477,23.2240858 61.3930605,23.2240858 L61.3930605,19.5371179 L43.7948021,19.5371179 C45.436248,16.8708441 46.8633795,14.5056127 48.3597349,12.1870517 C48.5254528,11.930186 49.0858868,11.8389826 49.4638215,11.8382701 C55.9229725,11.8176068 62.3824731,11.823307 69,11.823307 L69,30.7889787 C68.9031564,30.8556 68.8115571,30.9731668 68.720657,30.9731668 C60.1075234,30.9671103 51.4915928,31.0771957 42.8823049,30.89087 C37.5754875,30.775797 33.6905572,27.6727445 31.5834231,23.018522 C30.1430062,19.8370915 28.3729017,19.2424883 25.2889411,19.3600551 C18.7762989,19.6087268 12.2475744,19.4448458 5.7261918,19.3939001 C5.16750583,19.389625 4.43960583,19.1245651 4.08334738,18.7152187 C1.62065403,15.8879139 -0.206088265,12.7788049 0.0187146625,8.76977506 C0.170447898,6.06466855 1.1381843,3.76997724 2.8984996,1.77525955 C3.39145781,1.21699511 3.81414325,0.5935345 4.26899335,0 L35.3847952,0 Z" id="Fill-1" fill="#FFFFFF"></path>
                <path d="M69,0 C67.6118842,2.34274962 66.2752574,4.71819997 64.7879905,6.9972692 C64.5228917,7.40344677 63.6340106,7.56935998 63.0304063,7.57555591 C57.9910938,7.62890975 52.9503896,7.56281984 47.9124687,7.64439957 C43.3915252,7.71737384 41.0178124,9.6164261 39.7455469,13.9219083 C39.6363067,14.291943 39.4268717,14.6330633 39.2581408,15 C38.8309212,12.5629346 36.4029363,10.9523372 34,10.0129656 C35.9621486,7.5734906 36.9077373,4.45728251 39.9288895,2.91656149 C41.7550097,1.98510682 43.5393821,0.97482617 45.342889,0 L69,0 Z" id="Fill-3" fill="#FFFFFF"></path>
                <g id="Group-7" transform="translate(0.000000, 23.000000)">
                    <mask id="mask-2" fill="white">
                        <use xlink:href="#path-1"></use>
                    </mask>
                    <g id="Clip-6"></g>
                    <path d="M28.2699656,0.289634783 C28.9619344,1.46633043 29.5480281,2.6325913 30.2943094,3.68198261 C30.9914344,4.66285217 31.8590594,5.51954783 32.9253719,6.74528696 C30.7109344,7.19572174 28.7701219,7.90633043 26.8200281,7.93346087 C18.1767781,8.05311304 9.53043437,7.97728696 0.885465625,7.96754783 C0.678871875,7.9672 0.472965625,7.91572174 0.063559375,7.86076522 C1.59565313,5.37346087 3.01362188,3.0312 4.49380937,0.729634783 C4.64299687,0.497634783 5.16652812,0.425286957 5.51646562,0.425286957 C12.6695594,0.424243478 19.8229969,0.448243478 26.9760906,0.452069565 C27.4631844,0.452417391 27.9499344,0.332069565 28.2699656,0.289634783" id="Fill-5" fill="#FFFFFF" mask="url(#mask-2)"></path>
                </g>
            </g>
        </g>
    </g>
</svg>