<?xml version="1.0" encoding="UTF-8"?>
<svg width="139px" height="33px" viewBox="0 0 139 33" version="1.1" xmlns="http://www.w3.org/2000/svg" xmlns:xlink="http://www.w3.org/1999/xlink">
    <!-- Generator: Sketch 51.2 (57519) - http://www.bohemiancoding.com/sketch -->
    <title>WINiotaToken</title>
    <desc>Created with Sketch.</desc>
    <defs></defs>
    <g id="Page-1" stroke="none" stroke-width="1" fill="none" fill-rule="evenodd">
        <g id="Artboard-Copy" transform="translate(-109.000000, -1037.000000)" fill="#FFFFFF" fill-rule="nonzero">
            <g id="WINiotaToken" transform="translate(109.000000, 1037.000000)">
                <path d="M67,30.228158 L67,12.771842 C67,12.3489149 67.3859649,12 67.8538012,12 L68.1461988,12 C68.6140351,12 69,12.3489149 69,12.771842 L69,30.228158 C69,30.6510851 68.6140351,31 68.1461988,31 L67.8538012,31 C67.374269,31 67,30.6510851 67,30.228158" id="Shape"></path>
                <path d="M95.1218619,21.8334229 C95.1218619,17.1692638 91.6182008,13.6442773 86.4890167,13.6442773 C81.4037657,13.6442773 77.9220711,17.1692638 77.9220711,21.8334229 C77.9220711,26.7125202 81.4037657,30.3557227 86.4890167,30.3557227 C91.6182008,30.3557227 95.1218619,26.7017732 95.1218619,21.8334229 M76,21.8334229 C76,16.1805481 80.2724895,12 86.4890167,12 C92.7604603,12 97,16.1805481 97,21.8334229 C97,27.7012359 92.7604603,32 86.4890167,32 C80.2615063,32 76,27.7012359 76,21.8334229" id="Shape"></path>
                <path d="M117.218105,13.5436839 L110.726033,13.5436839 C110.291781,13.5436839 109.933522,13.8925988 109.933522,14.3155259 L109.933522,30.228158 C109.933522,30.6510851 109.575264,31 109.141012,31 L108.869604,31 C108.435352,31 108.077094,30.6510851 108.077094,30.228158 L108.077094,14.3155259 C108.077094,13.8925988 107.718835,13.5436839 107.284583,13.5436839 L100.792511,13.5436839 C100.358258,13.5436839 100,13.1947691 100,12.771842 C100,12.3489149 100.358258,12 100.792511,12 L117.207249,12 C117.641501,12 117.99976,12.3489149 117.99976,12.771842 C118.010616,13.1947691 117.652358,13.5436839 117.218105,13.5436839" id="Shape"></path>
                <path d="M128.740515,17.3140097 L121.669814,31.5680591 C121.54145,31.8380222 121.263329,32 120.974511,32 L120.781965,32 C120.204328,32 119.819237,31.3844842 120.086662,30.8553566 L128.751212,13.4373402 C129.04003,12.8542199 129.853,12.8542199 130.141819,13.4373402 L138.913338,30.8553566 C139.180763,31.3844842 138.795672,32 138.218035,32 L137.929217,32 C137.629701,32 137.362277,31.8272236 137.233913,31.5680591 L130.141819,17.3032111 C129.853,16.7308895 129.029333,16.741688 128.740515,17.3140097" id="Shape"></path>
                <path d="M20.9191112,19.8359202 L18.0373284,30.578714 C17.9728109,30.8314856 17.7362466,31 17.4781765,31 L14.7254288,31 C14.4566058,31 14.2200415,30.8209534 14.155524,30.5576497 L10.0156495,12.695122 C9.9296261,12.3370288 10.209202,12 10.5855543,12 L12.9619498,12 C13.2307728,12 13.4673371,12.1790466 13.5318546,12.4423503 L15.8867443,22.6058758 C16.0265322,23.1851441 16.8545071,23.1956763 17.0158009,22.6269401 L19.725537,12.421286 C19.7900545,12.1685144 20.0266188,12 20.2846889,12 L22.9729191,12 C23.2417421,12 23.4675535,12.1790466 23.532071,12.4318182 L26.1665366,22.6374723 C26.3170775,23.2167406 27.1558053,23.2062084 27.2955933,22.6269401 L29.7042476,12.4423503 C29.7687651,12.1895787 29.9945764,12 30.2633994,12 L32.4247365,12 C32.8010888,12 33.0699118,12.3370288 32.9838884,12.695122 L28.7364847,30.5576497 C28.6719672,30.8104213 28.4461558,31 28.1665799,31 L25.435338,31 C25.166515,31 24.9407036,30.8209534 24.8761861,30.578714 L22.037415,19.8359202 C21.8868741,19.267184 21.0696521,19.267184 20.9191112,19.8359202" id="Shape"></path>
                <path d="M39.3702624,31 L36.6297376,31 C36.2798834,31 36,30.7472284 36,30.4312639 L36,12.5687361 C36,12.2527716 36.2798834,12 36.6297376,12 L39.3702624,12 C39.7201166,12 40,12.2527716 40,12.5687361 L40,30.4312639 C40,30.7472284 39.7201166,31 39.3702624,31" id="Shape"></path>
                <path d="M45,30.4312639 L45,12.5687361 C45,12.2527716 45.25,12 45.5625,12 L48.125,12 C48.3125,12 48.4895833,12.0947894 48.59375,12.2633038 L55.5833333,23.2588692 C55.8854167,23.732816 56.6145833,23.5221729 56.6145833,22.9534368 L56.6145833,12.5687361 C56.6145833,12.2527716 56.8645833,12 57.1770833,12 L59.4375,12 C59.75,12 60,12.2527716 60,12.5687361 L60,30.4312639 C60,30.7472284 59.75,31 59.4375,31 L56.8958333,31 C56.7083333,31 56.53125,30.9052106 56.4270833,30.7366962 L49.40625,19.6674058 C49.1041667,19.193459 48.375,19.404102 48.375,19.9728381 L48.375,30.4312639 C48.375,30.7472284 48.125,31 47.8125,31 L45.5625,31 C45.25,31 45,30.7472284 45,30.4312639" id="Shape"></path>
                <path d="M6.39457315,32.7602057 L6.33951752,32.7188433 C5.92660029,32.3603696 5.88530857,31.7537218 6.24317017,31.3400983 C6.60103177,30.9264747 7.2066437,30.8851124 7.61956093,31.2435861 C7.64708875,31.2573736 7.66085266,31.2849485 7.68838047,31.3125234 L7.7296722,31.3538857 C8.1012977,31.7399343 8.0875338,32.3603696 7.70214438,32.7326308 C7.34428278,33.077317 6.77996257,33.0911045 6.39457315,32.7602057" id="Shape"></path>
                <path d="M4.22804955,29.6090779 L4.19455686,29.5645133 C3.87079428,29.1300093 3.9601081,28.5172471 4.39551295,28.1941544 C4.83091781,27.8710616 5.4449503,27.9601906 5.76871288,28.3946947 C5.79104133,28.416977 5.80220556,28.4504003 5.82453402,28.4726826 L5.8580267,28.5172471 L5.8580267,28.5283883 C6.13713237,28.9851746 5.99199742,29.5867956 5.53426411,29.8653238 C5.0765308,30.1215698 4.51831945,29.9990174 4.22804955,29.6090779" id="Shape"></path>
                <path d="M2.10338441,26.4213423 L2.0844024,26.3745547 C1.8661093,25.8786056 2.0844024,25.3077962 2.58742563,25.0832154 C3.09044886,24.8679922 3.66940012,25.0832154 3.89718422,25.5791646 C3.90667522,25.6072372 3.91616623,25.6353098 3.92565723,25.6540248 L3.94463924,25.6914549 L3.94463924,25.7008125 C4.12496832,26.2061191 3.8497292,26.767571 3.33721497,26.9453641 C2.84368274,27.1137996 2.3121865,26.8798614 2.10338441,26.4213423" id="Shape"></path>
                <path d="M0.0423326092,22.818359 L0.0297416283,22.756662 C-0.133941123,21.966941 0.394880073,21.1895594 1.20070285,21.0291473 C2.00652562,20.8687353 2.79975741,21.3869897 2.96344017,22.1767107 C2.97603115,22.2137288 2.97603115,22.250747 2.97603115,22.2877652 L2.98862213,22.3494621 L2.98862213,22.3618015 C3.08934997,23.1638619 2.51016485,23.891886 1.6917511,23.9906011 C0.911110287,24.0769768 0.193424379,23.5587224 0.0423326092,22.818359" id="Shape"></path>
                <path d="M0.000638533091,18.491868 L0.000638533091,18.4357882 C0.0235332898,17.6282391 0.71037599,16.9889294 1.53458723,17.0001453 C2.35879847,17.0225773 3.01129904,17.6955349 2.99985166,18.503084 C2.99985166,18.5255159 2.99985166,18.5591638 2.99985166,18.5928117 L2.99985166,18.6488915 L2.99985166,18.6601075 C2.93116739,19.4676566 2.20998255,20.0621025 1.38577131,19.9948067 C0.57300745,19.916295 -0.0222562236,19.2545533 0.000638533091,18.491868" id="Shape"></path>
                <path d="M1.04501298,14.1607738 L1.05566983,14.1081781 C1.25814999,13.3192432 2.06807063,12.8458823 2.86733441,13.0457458 C3.6665982,13.2456093 4.15681332,14.0450633 3.95433316,14.8339982 C3.95433316,14.8550364 3.94367631,14.8760747 3.93301946,14.897113 L3.92236261,14.9391895 L3.92236261,14.9497086 C3.6879119,15.7281244 2.85667756,16.1699279 2.05741378,15.938507 C1.29012054,15.7070861 0.853189675,14.9181512 1.04501298,14.1607738" id="Shape"></path>
                <path d="M2.16369382,9.84755507 L2.19415711,9.79729512 C2.56987097,9.07355195 3.46346072,8.79209628 4.19457959,9.16401985 C4.92569847,9.53594342 5.21002248,10.4205184 4.83430861,11.1442616 C4.83430861,11.1543136 4.82415419,11.1643656 4.82415419,11.1744175 L4.82415419,11.1844695 L4.80384533,11.2246775 L4.80384533,11.2347295 C4.4078226,11.9484207 3.50407843,12.2097724 2.78311398,11.8177448 C2.06214953,11.4357692 1.79813438,10.5612462 2.16369382,9.84755507" id="Shape"></path>
                <path d="M4.34687933,6.56603107 L4.38647146,6.52634112 C4.91106713,5.90122448 5.84148209,5.82184458 6.4749561,6.34773637 C7.09853208,6.87362815 7.17771633,7.80634188 6.65312067,8.44138101 L6.64322263,8.4513035 L6.61352854,8.48107096 C6.07903484,9.10618761 5.14861988,9.17564501 4.5250439,8.63983074 C3.90146792,8.11393896 3.82228367,7.18122523 4.34687933,6.56603107" id="Shape"></path>
                <path d="M7.59341355,3.33119814 L7.63278709,3.30146611 C8.2824505,2.80593224 9.20772869,2.93477105 9.69989793,3.58887575 C10.1920672,4.23306978 10.0641032,5.16467344 9.42428315,5.66020731 L9.41443977,5.66020731 L9.37506623,5.68993934 C8.73524621,6.19538388 7.80996802,6.06654508 7.30795538,5.42235105 C6.80594275,4.77815703 6.93390675,3.84655336 7.57372678,3.34110882 L7.59341355,3.33119814 Z" id="Shape"></path>
                <path d="M10.8699557,2.15027112 L10.9201863,2.12995917 C11.6635983,1.794812 12.5376098,2.12995917 12.8691314,2.88150132 C13.2006529,3.62288749 12.8791775,4.48614536 12.1659038,4.8314485 L12.1558576,4.8314485 L12.1156732,4.85176045 C11.3823073,5.20721958 10.4982497,4.90254033 10.1466359,4.16115416 C9.7950221,3.41976799 10.0964054,2.52604219 10.8297713,2.17058307 C10.8398174,2.16042709 10.8599096,2.15027112 10.8699557,2.15027112" id="Shape"></path>
                <path d="M15.1874228,0.0393672891 L15.2398601,0.0287260781 C16.0369058,-0.130892087 16.8129766,0.390527252 16.9702883,1.19925929 C17.1275999,1.9867089 16.6451775,2.7528761 15.8795941,2.94441789 L15.8691067,2.94441789 L15.8271569,2.95505911 C15.0405986,3.15724211 14.2330655,2.6571052 14.0442915,1.85901437 C13.8450301,1.06092355 14.3379399,0.241550298 15.1244982,0.0500085001 C15.1454731,0.0500085001 15.166448,0.0500085001 15.1874228,0.0393672891 Z" id="Shape"></path>
                <path d="M19.5167271,0 L19.5724679,0 C20.3862827,0.0228091839 21.0217271,0.707084702 20.9994308,1.53961992 C20.9771345,2.33794135 20.3528382,2.96519391 19.583616,2.99940769 L19.5724679,2.99940769 L19.5167271,2.99940769 C18.7029123,3.02221687 18.0228753,2.38355972 18.000579,1.55102451 C17.9782827,0.718489294 18.602579,0.0342137759 19.4163938,0 C19.4498382,0 19.4721345,0 19.5167271,0 Z" id="Shape"></path>
                <path d="M23.8379963,1.04652623 L23.899379,1.05904675 C24.6850784,1.25937517 25.1515873,2.07320933 24.9551625,2.87452298 C24.7710142,3.63827504 24.0344211,4.11405502 23.2855514,3.97632924 L23.2732748,3.97632924 L23.2118921,3.96380871 C22.4139162,3.82608293 21.8860244,3.04981034 22.0210665,2.23597617 C22.1561086,1.422142 22.9172548,0.883759395 23.7152307,1.02148518 C23.7643369,1.02148518 23.78889,1.0340057 23.8379963,1.04652623 Z" id="Shape"></path>
                <path d="M26.4165589,2.12020536 L26.4633389,2.13895479 C26.9498511,2.38269733 27.1369712,2.97330425 26.8937151,3.46078932 C26.659815,3.92015026 26.1171667,4.11701924 25.6587225,3.92952498 L25.6493665,3.92015026 L25.6119425,3.90140084 C25.1067182,3.69515715 24.8728181,3.12329966 25.0692942,2.61706515 C25.2751263,2.11083065 25.8458426,1.86708811 26.3510668,2.0733318 C26.3697788,2.09208122 26.3978469,2.11083065 26.4165589,2.12020536 Z" id="Shape"></path>
                <path d="M30.6092108,4.23909398 L30.6534276,4.27234036 C31.0624326,4.61588628 31.1177036,5.23648537 30.7750237,5.64652405 C30.4544522,6.03439848 29.8906885,6.11197337 29.4816834,5.83492021 L29.4706292,5.82383808 L29.4264125,5.7905917 C28.9842449,5.48029216 28.8626488,4.88185732 29.1721661,4.42749013 C29.4816834,3.98420507 30.0786097,3.86230168 30.5318315,4.17260122 C30.5539399,4.19476547 30.5760483,4.21692973 30.6092108,4.23909398 Z" id="Shape"></path>
                <path d="M33.7512241,7.38645694 L33.7924207,7.44064558 C34.1219936,7.86060756 34.0533326,8.47022977 33.6276342,8.79536162 C33.2294003,9.10694631 32.6663798,9.05275767 32.3230747,8.7005315 L32.3093425,8.68698434 L32.2681458,8.6327957 C31.8973763,8.23992805 31.9111085,7.63030583 32.3093425,7.2645325 C32.7075764,6.89875917 33.3255257,6.91230633 33.6962953,7.30517398 C33.7100275,7.3322683 33.7237597,7.35936262 33.7512241,7.38645694" id="Shape"></path>
            </g>
        </g>
    </g>
</svg>