<?xml version="1.0" encoding="UTF-8"?>
<svg width="61px" height="61px" viewBox="0 0 61 61" version="1.1" xmlns="http://www.w3.org/2000/svg" xmlns:xlink="http://www.w3.org/1999/xlink">
    <!-- Generator: Sketch 51.2 (57519) - http://www.bohemiancoding.com/sketch -->
    <title>Group 22</title>
    <desc>Created with Sketch.</desc>
    <defs>
        <polygon id="path-1" points="0.000165986395 0.392972789 60.6070272 0.392972789 60.6070272 60.999917 0.000165986395 60.999917"></polygon>
    </defs>
    <g id="Page-1" stroke="none" stroke-width="1" fill="none" fill-rule="evenodd">
        <g id="Artboard-Copy" transform="translate(-1244.000000, -450.000000)">
            <g id="Group-22" transform="translate(1244.000000, 450.000000)">
                <path d="M32.5842163,21.9268506 L38.0827849,34.6688598 L43.9191693,20.9634253 L49,20.9634253 L41.8947468,38.5872625 C41.2463055,40.0549416 39.8072929,41 38.220383,41 L38.2034922,41 C36.6602512,41 35.2525484,40.1054504 34.5802127,38.6978811 L29.499794,26.5290014 L24.4197873,38.6978811 C23.7474516,40.1054504 22.3397488,41 20.7965078,41 L20.779617,41 C19.1927071,41 17.7532826,40.0549416 17.1052532,38.5872625 L10,20.9634253 L15.0808307,20.9634253 L20.9172151,34.6688598 L26.4153718,21.9268506 C27.0016056,20.7455276 28.1950838,20 29.499794,20 C30.8049162,20 31.9983944,20.7455276 32.5842163,21.9268506" id="Fill-1" fill="#FFFFFF"></path>
                <polygon id="Fill-3" fill="#FFFFFF" points="14.1140838 31 10 40 15.7033954 40 17 37.3138029"></polygon>
                <path d="M37.5374731,29.2953952 L38.8074096,26.2859038 L40.3537323,30 L43,23.6440502 L42.5084246,22.3960708 C41.8788561,20.9383678 40.4817259,20 38.9410029,20 L38.9246038,20 C37.4262787,20 36.059547,20.887802 35.4067797,22.2858209 C35.4067797,22.2858209 35.0615969,23.1309322 35,23.2818005 L37.5374731,29.2953952 Z" id="Fill-5" fill="#FFFFFF"></path>
                <path d="M19.6536059,29.2782864 L20.9006447,26.2832995 L22.4687391,30 L25,24.0000829 L24.299915,22.2848738 C23.6474087,20.8878485 22.2812234,20 20.7834974,20 L20.7671048,20 C19.226598,20 17.8300265,20.937979 17.2011095,22.3950781 L17,22.9054978 L19.6536059,29.2782864 Z" id="Fill-7" fill="#FFFFFF"></path>
                <path d="M31.3758454,31 C30.7411702,32.4482415 29.8372517,34.5131885 29.8372517,34.5131885 L28.619431,31.7328301 L26,37.7124253 L26.6217928,39.0856005 C27.2328502,40.25929 28.4768653,41 29.8372517,41 C31.1972088,41 32.4412238,40.25929 33.0518519,39.0856005 L34,36.9912077 L31.3758454,31 Z" id="Fill-9" fill="#FFFFFF"></path>
                <polygon id="Fill-11" fill="#FFFFFF" points="44 38.1074794 44.8505219 40 50 40 46.5974948 32"></polygon>
                <path d="M23.8386047,47.9867804 C24.0218605,48.0311301 24.2530233,48.0490405 24.5325581,48.0490405 C25.5446512,48.0490405 26.1613953,47.589339 26.1613953,46.7855011 C26.1613953,45.9897655 25.5446512,45.6102345 24.6288372,45.6102345 C24.2627907,45.6102345 23.9832558,45.6362473 23.8386047,45.6716418 L23.8386047,47.9867804 Z M23,45.1151386 C23.4051163,45.0533049 23.9353488,45 24.6097674,45 C25.4386047,45 26.0460465,45.1769723 26.4311628,45.4950959 C26.7781395,45.7778252 27,46.210661 27,46.7411514 C27,47.2801706 26.8265116,47.7040512 26.4986047,48.0132196 C26.0460465,48.4464819 25.3325581,48.6673774 24.5134884,48.6673774 C24.2627907,48.6673774 24.0316279,48.6584222 23.8386047,48.6144989 L23.8386047,51 L23,51 L23,45.1151386 Z" id="Fill-13" fill="#FFFFFF"></path>
                <path d="M28.7927888,47.8366738 L29.6036056,47.8366738 C30.4509179,47.8366738 30.9886776,47.3859275 30.9886776,46.7057569 C30.9886776,45.936887 30.4144223,45.6008529 29.5763438,45.6008529 C29.1938002,45.6008529 28.9295372,45.6272921 28.7927888,45.6626866 L28.7927888,47.8366738 Z M28,45.1240938 C28.4010113,45.0533049 28.9845004,45 29.5218204,45 C30.3691327,45 30.9249203,45.1590618 31.2986699,45.4861407 C31.5994284,45.7509595 31.7814664,46.1573561 31.7814664,46.6260128 C31.7814664,47.4034115 31.2714082,47.9249467 30.6333956,48.136887 L30.6333956,48.1637527 C31.0977245,48.3228145 31.3804551,48.7466951 31.5264373,49.3654584 C31.7269429,50.1957356 31.8724854,50.7701493 32,51 L31.1799494,51 C31.0796966,50.8234542 30.9433879,50.319403 30.7793778,49.5773987 C30.5969001,48.7552239 30.259646,48.4464819 29.5398483,48.4196162 L28.7927888,48.4196162 L28.7927888,51 L28,51 L28,45.1240938 Z" id="Fill-15" fill="#FFFFFF"></path>
                <path d="M32.8959574,48.0303282 C32.8959574,49.2787703 33.6555939,50.3892813 35,50.3892813 C36.3439361,50.3892813 37.1040426,49.2958039 37.1040426,47.9788118 C37.1040426,46.8163689 36.421968,45.6111342 35.0094014,45.6111342 C33.5973049,45.6111342 32.8959574,46.7648525 32.8959574,48.0303282 M38,47.944329 C38,49.9326963 36.6269195,51 34.9511125,51 C33.2076152,51 32,49.8039053 32,48.0473619 C32,46.2052347 33.2856471,45 35.039016,45 C36.8412723,45 38,46.2139593 38,47.944329" id="Fill-17" fill="#FFFFFF"></path>
                <g id="Group-21">
                    <mask id="mask-2" fill="white">
                        <use xlink:href="#path-1"></use>
                    </mask>
                    <g id="Clip-20"></g>
                    <path d="M30.3034721,1.63778776 C14.2803905,1.63778776 1.24506395,14.6735293 1.24506395,30.6961959 C1.24506395,46.7192776 14.2803905,59.755019 30.3034721,59.755019 C46.3265537,59.755019 59.3622952,46.7192776 59.3622952,30.6961959 C59.3622952,14.6735293 46.3265537,1.63778776 30.3034721,1.63778776 M30.3034721,60.999917 C13.5940367,60.999917 0.000165986395,47.4056313 0.000165986395,30.6961959 C0.000165986395,13.9867605 13.5940367,0.392889796 30.3034721,0.392889796 C47.0129075,0.392889796 60.6071932,13.9867605 60.6071932,30.6961959 C60.6071932,47.4056313 47.0129075,60.999917 30.3034721,60.999917" id="Fill-19" fill="#FFFFFF" mask="url(#mask-2)"></path>
                </g>
            </g>
        </g>
    </g>
</svg>