<svg width="23" height="17" viewBox="0 0 23 17" fill="none" xmlns="http://www.w3.org/2000/svg">
  <path fill-rule="evenodd" clip-rule="evenodd" d="M18.0599 8.79064H22.3822C22.6502 8.79064 22.8512 9.03596 22.9518 9.32217V11.2847C22.9518 11.6118 22.7172 11.8571 22.4827 11.8571H18.1604V16.0276C18.1604 16.3547 17.9258 16.6 17.6913 16.6H16.284C16.016 16.6 15.8149 16.3138 15.8149 16.0276V11.8571H7.23734V16.0276C7.23734 16.3547 7.0028 16.6 6.76826 16.6H5.361C5.09295 16.6 4.89191 16.3138 4.89191 16.0276V11.8571H0.569606C0.301556 11.8571 0.100519 11.6118 0 11.3665V9.40394C0 9.07685 0.234544 8.83153 0.469087 8.83153H4.79139V4.41576C4.6614 4.73301 4.51124 5.00103 4.35655 5.27711C4.31188 5.35684 4.26683 5.43725 4.22178 5.51971C4.13446 5.67954 4.03292 5.82202 3.93569 5.95845C3.88368 6.03141 3.83291 6.10265 3.7862 6.17389L2.88154 7.19606C2.1444 7.89113 1.30674 8.25912 0.502593 8.25912C0.234544 8.25912 0.0335062 7.97291 0.0335062 7.6867C0.0335062 7.35961 0.26805 7.11429 0.502593 7.11429C1.90985 7.11429 2.98205 5.68325 3.48465 4.82463C4.2888 3.51626 4.79139 1.88079 4.79139 0.613301V0.572414C4.79139 0.24532 5.02593 0 5.26048 0H6.66774C6.93579 0 7.13683 0.286207 7.13683 0.572414V0.613301C7.13683 3.0665 9.04668 5.02907 11.4256 5.02907C13.8046 5.02907 15.7144 3.02562 15.7144 0.613301V0.572414C15.7144 0.24532 15.949 0 16.1835 0H17.5908C17.8588 0 18.0599 0.24532 18.0264 0.531527V0.572414C18.0264 2.41232 19.1321 5.19261 20.7404 6.4601C20.9414 6.62365 21.0084 6.99163 20.8744 7.23695C20.8074 7.40049 20.6398 7.48227 20.5058 7.48227C20.4388 7.48227 20.3383 7.44138 20.2713 7.40049C20.221 7.35961 20.1791 7.31872 20.1372 7.27783C20.0954 7.23695 20.0535 7.19606 20.0032 7.15517L19.0985 6.17389C18.6965 5.64237 18.3614 5.02906 18.0599 4.37488V8.79064ZM17.1552 1.10394H16.6526V8.79064H17.1552V1.10394ZM15.7479 8.83153V3.72069C15.4799 4.17044 15.1113 4.57931 14.6757 4.94729L13.9386 5.43793V8.83153H14.6757H15.7479ZM11.2504 6.11427C11.1669 6.10351 11.0785 6.09212 10.99 6.09212L10.0854 5.92857V8.83153H10.99H13.0339V5.88769C13.0004 5.90813 12.9585 5.91835 12.9166 5.92857C12.8748 5.93879 12.8329 5.94902 12.7994 5.96946L11.8947 6.13301H11.4591C11.3959 6.13301 11.3251 6.12389 11.2504 6.11427ZM9.18071 8.79064V5.51971C8.37656 5.11084 7.67293 4.49754 7.20384 3.6798V8.79064H9.18071ZM6.29917 1.10394H5.79658V8.79064H6.29917V1.10394ZM5.79658 15.4552H6.26566H6.29917V11.8571H5.79658V15.4552ZM16.6526 15.4552H17.1552V11.8571H16.6526V15.4552ZM1.00519 9.89458V10.7532H21.9466V9.89458H1.00519ZM22.0816 6.55168C22.2365 6.58719 22.3932 6.60513 22.5471 6.60513C22.7973 6.60513 23.0002 6.85267 23.0001 7.158C23.0001 7.46332 22.7973 7.71081 22.5471 7.71081C22.3372 7.71081 22.1243 7.68642 21.9145 7.6384C21.6686 7.58203 21.5066 7.29313 21.5527 6.99306C21.5989 6.69299 21.8357 6.49542 22.0816 6.55168Z" fill="black" fill-opacity="0.2"/>
</svg>
