<svg width="18" height="21" viewBox="0 0 18 21" fill="none" xmlns="http://www.w3.org/2000/svg">
<path d="M1.48216 9.96429C0.526387 11.158 0 12.6737 0 14.2322C0 17.9638 3.03589 20.9997 6.76749 20.9997C10.4991 20.9997 13.535 17.9638 13.535 14.2322C13.535 12.6737 13.0086 11.1579 12.0528 9.96429L6.76753 3.36328L1.48216 9.96429ZM12.3046 14.2322C12.3046 17.2854 9.82065 19.7693 6.76753 19.7693C3.71441 19.7693 1.23049 17.2854 1.23049 14.2322C1.23049 12.9522 1.66099 11.7096 2.44269 10.7334L6.76753 5.33196L11.0924 10.7334C11.874 11.7096 12.3046 12.9522 12.3046 14.2322Z" fill="#4AA956"/>
<path d="M3.69139 14.2324H2.46094C2.46094 16.6071 4.39287 18.539 6.76752 18.539V17.3086C5.0713 17.3086 3.69139 15.9286 3.69139 14.2324Z" fill="#4AA956"/>
<path d="M17.2265 4.96303C17.2265 4.25675 16.9946 3.59366 16.5558 3.0452L14.1503 0L11.7449 3.04525C11.3062 3.59366 11.0742 4.25679 11.0742 4.96307C11.0742 6.65925 12.4542 8.0392 14.1503 8.0392C15.8465 8.0392 17.2265 6.65921 17.2265 4.96303ZM12.3047 4.96303C12.3047 4.53865 12.4437 4.14088 12.7067 3.81268L14.1503 1.98505L15.594 3.81268C15.857 4.14084 15.996 4.5386 15.996 4.96303C15.996 5.98073 15.1681 6.80871 14.1503 6.80871C13.1326 6.80871 12.3047 5.98073 12.3047 4.96303Z" fill="#4AA956"/>
</svg>
