<svg width="22" height="25" viewBox="0 0 22 25" fill="black" fill-opacity="0.2" xmlns="http://www.w3.org/2000/svg">
  <path d="M14.0872 8.45612C14.0872 6.90228 12.8236 5.63867 11.2696 5.63867C9.71576 5.63867 8.45215 6.90228 8.45215 8.45612C8.45215 10.0101 9.71576 11.2737 11.2696 11.2737C12.8236 11.2737 14.0872 10.0101 14.0872 8.45612Z"/>
  <path d="M17.6099 11.2737C17.9991 11.2737 18.3141 10.9586 18.3141 10.5693C18.3141 8.78473 16.975 7.32172 15.2515 7.09375C15.3992 7.52368 15.4966 7.97687 15.4966 8.45605C15.4966 9.54242 15.0733 10.5242 14.3975 11.2737H17.6099Z"/>
  <path d="M9.41493 0.862564C8.96596 1.43752 8.80904 2.1736 8.98647 2.88203L9.42262 4.67409C9.98329 4.39888 10.6048 4.23042 11.2702 4.23042C11.9357 4.23042 12.5574 4.39888 13.1181 4.67409L13.5546 2.88203C13.7315 2.1736 13.5745 1.43752 13.1254 0.862564C12.2271 -0.287521 10.3134 -0.287521 9.41493 0.862564Z"/>
  <path d="M8.34739 23.6649C8.47611 23.4573 8.48783 23.198 8.37833 22.9799L7.47929 21.1348H0.97355L0.0745019 22.9799C-0.0348121 23.198 -0.0232764 23.4573 0.105447 23.6649C0.233987 23.8727 0.460305 23.9993 0.704568 23.9993H7.74827C7.99253 23.9993 8.21885 23.8727 8.34739 23.6649Z"/>
  <path d="M1.40918 17.6147V19.7279H7.04407V16.2061C7.04407 14.5109 7.90485 13.0136 9.21149 12.1257C7.92499 11.4003 7.04407 10.037 7.04407 8.45776C7.04407 8.39935 7.05908 8.34497 7.06146 8.28711C3.66156 10.0914 1.40918 13.6695 1.40918 17.6147Z"/>s
  <path d="M22 16.03L16.9423 13L12.0105 15.9755L12 21.97L16.9738 25L22 22.0354V16.03ZM16.9528 13.9155L20.6884 16.1608L16.9738 18.406L13.2382 16.1608L16.9528 13.9155ZM16.5226 23.7575L12.766 21.5232V17.0545L16.5121 19.2997V23.7575H16.5226ZM17.4879 19.3651L21.234 17.1199V21.5777L17.4879 23.8338V19.3651Z"/>
</svg>
