<svg width="19" height="22" viewBox="0 0 19 22" fill="none" xmlns="http://www.w3.org/2000/svg">
  <path fill-rule="evenodd" clip-rule="evenodd" d="M9.5 0L3.66722 3.36973L5.81163 4.61335L9.49908 2.48907L13.1884 4.61335L15.3328 3.36973L9.5 0ZM13.1874 6.37468L15.3328 7.61921V10.1092L11.6444 12.2344V16.4848L9.5 17.7293L7.35558 16.4848V12.2344L3.66722 10.1092V7.61921L5.81163 6.37468L9.49908 8.49987L13.1884 6.37468H13.1874ZM15.3328 11.8696V14.3596L13.1884 15.6041V13.1141L15.3328 11.8705V11.8696ZM13.1672 17.3645L16.8547 15.2393V10.9899L19 9.74441V16.4848L13.1672 19.8545V17.3645ZM16.8547 6.73947L14.7112 5.49493L16.8556 4.24948L19 5.49493V7.98493L16.8556 9.22946L16.8547 6.73947ZM7.3565 20.7564V18.2655L9.50092 19.51L11.6453 18.2655V20.7555L9.50092 22L7.3565 20.7555V20.7564ZM5.8098 15.6032L3.66722 14.3596V11.8696L5.81163 13.1141V15.6041L5.8098 15.6032ZM9.49908 6.73855L7.35466 5.49493L9.49908 4.24948L11.6435 5.49493L9.49908 6.73947V6.73855ZM4.28884 5.49493L2.14442 6.73947V9.22946L0 7.98493V5.49493L2.14442 4.24948L4.28884 5.49493ZM0 9.74441L2.14442 10.9899V15.2393L5.83187 17.3645V19.8545L0.000919563 16.4848V9.74441H0Z" fill="#4AA956"/>
</svg>
