<svg xmlns="http://www.w3.org/2000/svg" viewBox="0 0 438.76 257.75"><defs><style>.cls-1{fill:#1418ff;}.cls-2{fill:none;stroke:#e6e6e6;stroke-miterlimit:10;stroke-width:10px;}.cls-3{fill:#fff;}</style></defs><title>Authio Logo Blue FillSVG</title><g id="Layer_2" data-name="Layer 2"><g id="Layer_1-2" data-name="Layer 1"><g id="Layer_1-2-2" data-name="Layer 1-2"><path class="cls-1" d="M305.85,252.75H124.91C60.48,252.82,5,197.34,5,128.91H5A123.91,123.91,0,0,1,128.91,5H309.85A123.91,123.91,0,0,1,433.76,128.91h0C433.76,197.34,378.29,252.82,305.85,252.75Z"/><path class="cls-2" d="M305.85,252.75H124.91C60.48,252.82,5,197.34,5,128.91H5A123.91,123.91,0,0,1,128.91,5H309.85A123.91,123.91,0,0,1,433.76,128.91h0C433.76,197.34,378.29,252.82,305.85,252.75Z"/><path class="cls-3" d="M104.56,63.1a68.8,68.8,0,0,1,21.54-3.43l186.7.19A69.11,69.11,0,0,1,354.56,184l27,13A96.75,96.75,0,0,0,312.83,32.2L126.13,32A96.27,96.27,0,0,0,73,47.85Z"/><path class="cls-3" d="M327.08,196.64a68.49,68.49,0,0,1-14.42,1.51L126,198A69.11,69.11,0,0,1,80.1,77.19L53.78,64.47a96.75,96.75,0,0,0,72.16,161.15l186.69.19A96.32,96.32,0,0,0,360.85,213Z"/><path class="cls-3" d="M84.07,112q11.76-5.16,20.57-5.16,10,0,14.46,4.25,4.23,3.89,4.22,12.35v24.33c0,2,.7,2.94,2.12,2.94a16.18,16.18,0,0,0,3.52-.58l1.88,7.05a24.26,24.26,0,0,1-11,2.82q-6.47,0-9.4-4.94Q103.89,160,98.12,160q-18.57,0-18.55-17.89,0-8.1,5.89-12.57,5.06-3.63,14.11-3.63a42.66,42.66,0,0,1,10.11,1.42V124q0-8.34-9-8.35a34.86,34.86,0,0,0-13.68,3Zm25.6,23.3a35.79,35.79,0,0,0-8.35-1.3q-7.51,0-7.53,8.69,0,8.1,7.4,8.11c2.51,0,5.34-1,8.47-2.93Z"/><path class="cls-3" d="M150,140.3c0,3.53.58,5.92,1.76,7.18q1.53,1.76,5.17,1.77,5.3,0,11.64-4.58V108.35h14.22l0,50.31h-14.2v-4.58q-8.46,6-15.29,6-17.38,0-17.38-17.18V108.34H150Z"/><path class="cls-3" d="M208.4,143.42q0,6.93,5.28,6.94A25.73,25.73,0,0,0,221,149l1.76,7.64q-7.29,3.53-12.7,3.51-15.87,0-15.85-17.06v-47h14.22v12.34H221.6v10.23H208.43Z"/><path class="cls-3" d="M228.37,158.72l.08-79.93h14.11v32.8q8.82-4.57,15.76-4.57,17,0,17,17.77v34H261V126.7c0-3.13-.58-5.39-1.75-6.76s-3.25-2.06-6.23-2.06a21.7,21.7,0,0,0-10.47,3v37.85Z"/><path class="cls-3" d="M285.1,91.07a7.94,7.94,0,0,1,2.53-5.88,9,9,0,0,1,12.34,0,7.89,7.89,0,0,1,2.52,5.88A7.72,7.72,0,0,1,300,96.9a9,9,0,0,1-12.28,0A7.63,7.63,0,0,1,285.1,91.07Zm1.46,67.71.05-50.31H301L301,158.78Z"/><path class="cls-3" d="M317.36,152.34q-7-7.51-7-18.69,0-12.7,7.19-19.74,6.82-6.81,18.94-6.8t19,6.83q7,7.07,7,19.76,0,11.18-7.08,18.68-7.41,7.88-19.05,7.86T317.36,152.34Zm19-1.15q11.29,0,11.31-17.51t-11.27-17.4q-11.29,0-11.3,17.38t11.3,17.53Z"/></g></g></g></svg>