<svg width="150" height="38" viewBox="0 0 150 38" fill="none" xmlns="http://www.w3.org/2000/svg">
<path fill-rule="evenodd" clip-rule="evenodd" d="M11.0499 0L2.34565 5.10099L11.0499 10.202L19.9192 5.10099L11.0499 0ZM12.4816 27.2338V37.4358L24.3074 30.69V20.4865L12.4816 27.2338ZM21.3509 8.30956V18.513L12.4816 23.614V13.4105L21.3509 8.30956ZM0 18.513L8.86933 23.614V13.4105L0 8.30956V18.513V18.513ZM0 32.3348L8.86933 37.4358V27.2338L0 22.1328V32.3348V32.3348ZM54.9373 13.9808V13.4841C54.9373 11.9924 54.1209 11.1655 52.6502 11.1655H45.2966V16.301H52.6502C54.1209 16.301 54.9373 15.4726 54.9373 13.9823V13.9808ZM60.3295 22.43V24.5835C60.3295 28.5594 58.3695 30.5474 54.4496 30.5474H42.034C41.9243 30.5532 41.8145 30.5356 41.7121 30.4958C41.6096 30.4561 41.5167 30.3951 41.4396 30.3168C41.3624 30.2385 41.3028 30.1447 41.2645 30.0417C41.2262 29.9387 41.2103 29.8287 41.2176 29.719V8.182C41.2103 8.07233 41.2262 7.96235 41.2645 7.85931C41.3028 7.75628 41.3624 7.66252 41.4396 7.58424C41.5167 7.50595 41.6096 7.44492 41.7121 7.40516C41.8145 7.3654 41.9243 7.34783 42.034 7.35359H53.1395C57.0594 7.35359 59.0193 9.34156 59.0193 13.3175V13.9808C59.0193 17.1324 56.7322 17.7912 56.7322 17.7912V17.9563C56.7322 17.9563 60.3295 18.6196 60.3295 22.43V22.43ZM56.2445 24.4169V22.43C56.2445 20.9382 55.4281 20.1113 53.9574 20.1113H45.3011V26.7386H53.9574C55.4281 26.7386 56.2445 25.9102 56.2445 24.4199V24.4169ZM71.9241 27.5685C73.5569 27.5685 74.7005 26.4084 74.7005 24.7516V23.5915H69.3113C68.1678 23.5915 67.5105 24.2548 67.5105 25.4134V25.7451C67.5105 26.9051 68.1633 27.567 69.3113 27.567H71.9241V27.5685ZM78.2947 18.6226V29.728C78.3021 29.8377 78.2861 29.9477 78.2479 30.0507C78.2096 30.1537 78.1499 30.2475 78.0728 30.3258C77.9956 30.4041 77.9028 30.4651 77.8003 30.5049C77.6978 30.5446 77.5881 30.5622 77.4783 30.5564H75.5184C75.4086 30.5622 75.2989 30.5446 75.1964 30.5049C75.0939 30.4651 75.0011 30.4041 74.9239 30.3258C74.8468 30.2475 74.7871 30.1537 74.7488 30.0507C74.7106 29.9477 74.6946 29.8377 74.702 29.728V28.8996H74.5384C74.5384 28.8996 73.722 30.8881 71.2713 30.8881H68.8206C65.554 30.8881 63.9207 29.2313 63.9207 25.9177V25.4209C63.9207 22.1073 65.554 20.4505 68.8206 20.4505H74.7005V18.7997C74.7005 17.4745 73.8841 16.6461 72.5769 16.6461H70.2913C69.1478 16.6461 68.4904 17.3095 68.4904 18.468C68.4978 18.5777 68.4818 18.6877 68.4436 18.7907C68.4053 18.8937 68.3457 18.9875 68.2685 19.0658C68.1914 19.1441 68.0985 19.2051 67.996 19.2449C67.8935 19.2846 67.7838 19.3022 67.674 19.2964H65.7171C65.6073 19.3022 65.4976 19.2846 65.3951 19.2449C65.2927 19.2051 65.1998 19.1441 65.1226 19.0658C65.0455 18.9875 64.9858 18.8937 64.9476 18.7907C64.9093 18.6877 64.8933 18.5777 64.9007 18.468C64.9007 15.1544 66.7016 13.3325 70.1277 13.3325H73.0677C76.4984 13.3325 78.2947 15.1544 78.2947 18.6346V18.6226ZM97.7322 18.6226C97.7322 15.1439 95.9314 13.3205 92.5052 13.3205H89.8939C87.4432 13.3205 86.6268 15.309 86.6268 15.309H86.4632V14.4776C86.4706 14.3679 86.4546 14.2579 86.4164 14.1549C86.3781 14.0518 86.3184 13.9581 86.2413 13.8798C86.1641 13.8015 86.0713 13.7405 85.9688 13.7007C85.8663 13.661 85.7566 13.6434 85.6468 13.6492H83.6839C83.5741 13.6434 83.4644 13.661 83.3619 13.7007C83.2594 13.7405 83.1666 13.8015 83.0894 13.8798C83.0123 13.9581 82.9526 14.0518 82.9143 14.1549C82.8761 14.2579 82.8601 14.3679 82.8675 14.4776V29.7145C82.8601 29.8242 82.8761 29.9342 82.9143 30.0372C82.9526 30.1402 83.0123 30.234 83.0894 30.3123C83.1666 30.3906 83.2594 30.4516 83.3619 30.4913C83.4644 30.5311 83.5741 30.5487 83.6839 30.5429H85.6438C85.7536 30.5487 85.8633 30.5311 85.9658 30.4913C86.0683 30.4516 86.1611 30.3906 86.2383 30.3123C86.3154 30.234 86.3751 30.1402 86.4134 30.0372C86.4516 29.9342 86.4676 29.8242 86.4602 29.7145V19.448C86.4602 17.7972 87.6038 16.6311 89.2366 16.6311H92.0129C93.3201 16.6311 94.1365 17.4595 94.1365 18.7847V29.7145C94.1291 29.8242 94.1451 29.9342 94.1833 30.0372C94.2216 30.1402 94.2813 30.234 94.3584 30.3123C94.4356 30.3906 94.5284 30.4516 94.6309 30.4913C94.7334 30.5311 94.8431 30.5487 94.9529 30.5429H96.9128C97.0226 30.5487 97.1323 30.5311 97.2348 30.4913C97.3373 30.4516 97.4301 30.3906 97.5073 30.3123C97.5844 30.234 97.6441 30.1402 97.6824 30.0372C97.7206 29.9342 97.7366 29.8242 97.7292 29.7145V18.6091L97.7322 18.6226ZM113.412 25.4149C113.412 26.7401 112.595 27.5685 111.288 27.5685H107.858C106.551 27.5685 105.734 26.7401 105.734 25.4149V18.7847C105.734 17.4595 106.551 16.6311 107.858 16.6311H111.288C112.595 16.6311 113.412 17.4595 113.412 18.7847V19.2814C113.405 19.3911 113.42 19.5011 113.459 19.6041C113.497 19.7071 113.557 19.8009 113.634 19.8792C113.711 19.9575 113.804 20.0185 113.906 20.0582C114.009 20.098 114.119 20.1156 114.228 20.1098H116.188C116.298 20.1156 116.408 20.098 116.51 20.0582C116.613 20.0185 116.706 19.9575 116.783 19.8792C116.86 19.8009 116.92 19.7071 116.958 19.6041C116.996 19.5011 117.012 19.3911 117.005 19.2814V18.6181C117.005 15.1394 115.204 13.316 111.778 13.316H107.368C103.938 13.316 102.141 15.1379 102.141 18.6181V25.5755C102.141 29.0542 103.942 30.8776 107.368 30.8776H111.779C115.21 30.8776 117.006 29.0557 117.006 25.5755V24.9122C117.014 24.8025 116.998 24.6925 116.959 24.5895C116.921 24.4864 116.861 24.3927 116.784 24.3144C116.707 24.2361 116.614 24.1751 116.512 24.1353C116.409 24.0956 116.299 24.078 116.19 24.0838H114.228C114.119 24.078 114.009 24.0956 113.906 24.1353C113.804 24.1751 113.711 24.2361 113.634 24.3144C113.557 24.3927 113.497 24.4864 113.459 24.5895C113.42 24.6925 113.405 24.8025 113.412 24.9122V25.4089V25.4149ZM124.517 18.7877V25.4149C124.517 26.7401 125.334 27.5685 126.641 27.5685H130.393C131.7 27.5685 132.516 26.7401 132.516 25.4149V18.7847C132.516 17.4595 131.7 16.6311 130.393 16.6311H126.641C125.334 16.6311 124.517 17.4595 124.517 18.7847V18.7877ZM120.925 25.58V18.6196C120.925 15.1409 122.725 13.3175 126.152 13.3175H130.888C134.316 13.3175 136.116 15.1394 136.116 18.6196V25.577C136.116 29.0557 134.316 30.8791 130.889 30.8791H126.152C122.721 30.8791 120.925 29.0572 120.925 25.577V25.58ZM147.548 13.3205C145.097 13.3205 144.28 15.309 144.28 15.309H144.117V14.4776C144.124 14.3679 144.108 14.2579 144.07 14.1549C144.032 14.0518 143.972 13.9581 143.895 13.8798C143.818 13.8015 143.725 13.7405 143.622 13.7007C143.52 13.661 143.41 13.6434 143.3 13.6492H141.342C141.232 13.6434 141.123 13.661 141.02 13.7007C140.918 13.7405 140.825 13.8015 140.748 13.8798C140.67 13.9581 140.611 14.0518 140.572 14.1549C140.534 14.2579 140.518 14.3679 140.526 14.4776V29.7145C140.518 29.8242 140.534 29.9342 140.572 30.0372C140.611 30.1402 140.67 30.234 140.748 30.3123C140.825 30.3906 140.918 30.4516 141.02 30.4913C141.123 30.5311 141.232 30.5487 141.342 30.5429H143.302C143.412 30.5487 143.521 30.5311 143.624 30.4913C143.726 30.4516 143.819 30.3906 143.896 30.3123C143.974 30.234 144.033 30.1402 144.072 30.0372C144.11 29.9342 144.126 29.8242 144.118 29.7145V19.6131C144.118 17.9623 145.262 16.7962 146.895 16.7962H149.182C149.292 16.802 149.401 16.7844 149.504 16.7446C149.606 16.7049 149.699 16.6438 149.776 16.5656C149.853 16.4873 149.913 16.3935 149.951 16.2905C149.99 16.1874 150.006 16.0775 149.998 15.9678V14.1459C150.006 14.0362 149.99 13.9263 149.951 13.8232C149.913 13.7202 149.853 13.6264 149.776 13.5481C149.699 13.4699 149.606 13.4088 149.504 13.3691C149.401 13.3293 149.292 13.3117 149.182 13.3175H147.549L147.548 13.3205Z" fill="black"/>
</svg>
