<svg width="148" height="38" viewBox="0 0 148 38" fill="none" xmlns="http://www.w3.org/2000/svg">
<g clip-path="url(#clip0)">
<path d="M6.02635 27.9256H4.87425V30.1349H1.41796V27.9256H0V8.92558H1.41796V6.71628H4.87425V8.92558H6.02635V6.71628H9.48263V9.10233C9.65988 9.10233 9.92575 9.1907 10.103 9.1907C10.9006 9.36744 11.6096 9.63256 12.2299 9.98605C12.8503 10.3395 13.382 10.8698 13.8252 11.4884C14.2683 12.107 14.4455 12.9023 14.4455 13.8744C14.4455 14.9349 14.1796 15.8186 13.5593 16.5256C12.9389 17.2326 12.2299 17.6744 11.2551 18.0279V18.1163C11.7868 18.2047 12.3186 18.3814 12.8503 18.6465C13.2934 18.9116 13.7365 19.1767 14.091 19.5302C14.4455 19.8837 14.7114 20.3256 14.9772 20.8558C15.1545 21.386 15.3317 21.9163 15.3317 22.5349C15.3317 23.5954 15.1545 24.4791 14.7114 25.186C14.2683 25.893 13.7365 26.4233 13.0275 26.8651C12.3186 27.307 11.521 27.6605 10.6347 27.7488C10.2802 27.8372 9.92575 27.8372 9.57126 27.9256V30.2233H6.02635V27.9256ZM9.92575 14.4047C9.92575 13.786 9.65988 13.2558 9.12814 12.9907C8.59641 12.7256 7.88743 12.5488 6.91258 12.5488H4.60838V16.4372H7.08982C7.97605 16.4372 8.68503 16.2605 9.12814 15.907C9.65988 15.6419 9.92575 15.1116 9.92575 14.4047ZM10.5461 22.0047C10.5461 21.2093 10.2802 20.6791 9.65988 20.3256C9.03952 20.0605 8.24192 19.8837 7.17844 19.8837H4.51976V24.214H7.17844C7.53293 24.214 7.88742 24.214 8.33054 24.1256C8.68503 24.0372 9.12814 23.9488 9.39401 23.7721C9.7485 23.5953 10.0144 23.4186 10.1916 23.0651C10.4575 22.8 10.5461 22.4465 10.5461 22.0047ZM18.4335 27.9256V8.92558H31.6383V12.814H23.0419V16.3488H31.1952V20.0605H23.0419V24.0372H32.1701V27.9256H18.4335ZM45.5521 13.8744C45.109 13.3442 44.5772 12.9907 43.9569 12.6372C43.3365 12.3721 42.6275 12.1954 42.0958 12.1954C41.7413 12.1954 41.4755 12.1954 41.121 12.2837C40.7665 12.3721 40.5006 12.4605 40.2347 12.5488C39.9689 12.7256 39.7916 12.9023 39.6144 13.1674C39.4371 13.4326 39.3485 13.6977 39.3485 14.0512C39.3485 14.4047 39.4371 14.6698 39.5257 14.8465C39.703 15.0233 39.8802 15.2884 40.1461 15.3767C40.412 15.5535 40.7665 15.6419 41.121 15.8186C41.4755 15.9954 41.9186 16.0837 42.3617 16.2605C43.0707 16.4372 43.691 16.7023 44.4 16.9674C45.109 17.2326 45.818 17.586 46.3497 18.0279C46.9701 18.4698 47.4132 19 47.8563 19.6186C48.2108 20.2372 48.4766 21.0326 48.4766 22.0047C48.4766 23.0651 48.2994 24.0372 47.8563 24.8326C47.5018 25.6279 46.8814 26.2465 46.1725 26.7767C45.4635 27.307 44.6659 27.6605 43.7796 27.9256C42.8934 28.1907 41.9186 28.2791 40.9437 28.2791C39.5257 28.2791 38.1964 28.014 36.8671 27.5721C35.5377 27.1302 34.4743 26.4233 33.588 25.5395L36.6898 22.4465C37.1329 22.9767 37.8419 23.507 38.5509 23.8605C39.3485 24.214 40.1461 24.4791 40.8551 24.4791C41.2096 24.4791 41.5641 24.4791 41.9186 24.3907C42.2731 24.3023 42.5389 24.214 42.8048 24.0372C43.0707 23.8605 43.2479 23.6837 43.4251 23.4186C43.6024 23.1535 43.6024 22.8 43.6024 22.4465C43.6024 22.093 43.5138 21.8279 43.3365 21.5628C43.1593 21.2977 42.8934 21.0326 42.5389 20.8558C42.0958 20.5907 41.7413 20.414 41.2982 20.3256C40.7665 20.1488 40.2347 19.9721 39.5257 19.7954C38.9054 19.6186 38.285 19.3535 37.6647 19.0884C37.0443 18.8233 36.5126 18.4698 36.0695 18.0279C35.6263 17.586 35.1832 17.0558 34.9174 16.5256C34.6515 15.907 34.4743 15.2 34.4743 14.3163C34.4743 13.2558 34.6515 12.3721 35.1832 11.5767C35.6263 10.8698 36.2467 10.2512 36.9557 9.72093C37.6647 9.1907 38.5509 8.83721 39.4371 8.66047C40.3234 8.39535 41.2982 8.30698 42.1844 8.30698C43.3365 8.30698 44.4 8.48372 45.5521 8.92558C46.7042 9.27907 47.679 9.89768 48.5653 10.693L45.5521 13.8744ZM59.6431 12.9023V28.014H54.9461V12.9023H49.3629V9.01396H65.1377V12.9023H59.6431Z" fill="black"/>
<path d="M84.6347 13.0791C84.2803 12.9023 83.9258 12.814 83.5713 12.814C83.2168 12.7256 82.8623 12.7256 82.5078 12.7256H80.0264V17.1442H82.2419C82.5964 17.1442 83.0395 17.1442 83.394 17.0558C83.8371 16.9674 84.1916 16.8791 84.5461 16.7023C84.9006 16.5256 85.1665 16.3488 85.3437 15.9953C85.521 15.7302 85.6982 15.2884 85.6982 14.8465C85.6982 14.4046 85.6096 14.0512 85.4324 13.786C85.2551 13.4326 84.9892 13.1674 84.6347 13.0791Z" fill="black"/>
<path d="M99.3461 20.5023H104.22L101.828 14.0512L99.3461 20.5023Z" fill="black"/>
<path d="M144.544 0H70.721C68.7713 0 67.2647 1.50233 67.2647 3.35814V34.6419C67.2647 36.4977 68.7713 38 70.721 38H144.544C146.493 38 148 36.4977 148 34.6419V3.35814C148 1.50233 146.493 0 144.544 0ZM107.056 27.9256L105.55 24.214H97.9282L96.5102 27.9256H85.8755L81.6216 20.414H80.0264V27.9256H75.3293V8.92558H82.7737C83.7485 8.92558 84.6347 9.01395 85.521 9.1907C86.4072 9.36744 87.2048 9.72093 87.9138 10.1628C88.6228 10.6047 89.1545 11.2233 89.5976 11.9302C90.0407 12.6372 90.218 13.6093 90.218 14.6698C90.218 15.9953 89.8635 17.0558 89.1545 17.9395C88.4455 18.8233 87.4707 19.4419 86.1413 19.7953L91.1928 27.8372L99.3461 8.92558H103.955L112.108 27.9256H107.056ZM126.199 12.9023H120.616V28.014H115.919V12.9023H110.335V9.01395H126.11V12.9023H126.199ZM142.062 27.9256H128.414V8.92558H141.619V12.814H132.934V16.3488H141.087V20.0605H132.934V24.0372H142.062V27.9256Z" fill="black"/>
</g>
<defs>
<clipPath id="clip0">
<rect width="148" height="38" fill="white"/>
</clipPath>
</defs>
</svg>
