<svg width="148" height="30" viewBox="0 0 148 30" fill="none" xmlns="http://www.w3.org/2000/svg">
<path d="M9.05194 12.4384L14.8004 6.69017L20.5519 12.4414L23.8968 9.09659L14.8004 0L5.70708 9.09355L9.05194 12.4384ZM3.34485 11.4551L6.68971 14.7997L3.34485 18.1448L0 14.7999L3.34485 11.4551ZM9.05194 17.1622L14.8004 22.9104L20.5517 17.1594L23.8984 20.5023L23.8968 20.5042L14.8004 29.6006L5.70685 20.5072L5.70217 20.5026L9.05194 17.1622ZM29.601 14.8013L26.2564 18.1462L22.9113 14.8016L26.2562 11.4565L29.601 14.8013Z" fill="#F4BB2B"/>
<path d="M18.1931 14.7985H18.1945L14.8004 11.4043L12.292 13.9127H12.2918L12.0037 14.201L11.4092 14.7955L11.4045 14.8002L11.4092 14.8051L14.8004 18.1962L18.1945 14.802L18.1962 14.8002L18.1931 14.7985ZM34.8155 7.17249H42.0904C43.8959 7.17249 45.2613 7.63587 46.1866 8.56261C46.9027 9.28035 47.2607 10.1699 47.2607 11.2311V11.276C47.2607 11.7244 47.2053 12.1207 47.0937 12.4644C46.9894 12.7938 46.8393 13.1071 46.6479 13.3948C46.4671 13.6663 46.2498 13.9115 46.0019 14.1236C45.759 14.3316 45.4937 14.5121 45.211 14.6618C46.1186 15.0059 46.8331 15.4728 47.3539 16.0633C47.8746 16.6541 48.1353 17.4726 48.1353 18.5189V18.5635C48.1353 19.2812 47.9973 19.909 47.7212 20.4474C47.4451 20.9854 47.0495 21.434 46.5345 21.7929C46.0195 22.1517 45.4001 22.4206 44.6763 22.6001C43.9525 22.7795 43.1504 22.869 42.2702 22.869H34.8155V7.17249V7.17249ZM41.363 13.5183C42.1257 13.5183 42.7312 13.3878 43.1794 13.126C43.6278 12.8644 43.852 12.4419 43.852 11.8591V11.8142C43.852 11.2912 43.6575 10.8914 43.2689 10.6146C42.8801 10.338 42.3195 10.1996 41.5872 10.1996H38.1788V13.5183H41.363V13.5183ZM42.2825 19.8421C43.0449 19.8421 43.6425 19.7042 44.0764 19.4274C44.5099 19.1508 44.7268 18.7208 44.7268 18.1378V18.0931C44.7268 17.5699 44.5248 17.1551 44.1213 16.8484C43.7176 16.5424 43.0674 16.389 42.1703 16.389H38.1788V19.8423H42.2825V19.8421ZM52.4679 7.17249H55.9215V22.8695H52.4679V7.17249V7.17249ZM61.1521 7.17249H64.3358L71.6912 16.8374V7.17249H75.0996V22.8695H72.1623L64.5603 12.8908V22.8695H61.1521V7.17249V7.17249ZM85.5548 7.0605H88.7388L95.4663 22.8695H91.8559L90.4207 19.349H83.7831L82.3481 22.8695H78.8269L85.5548 7.0605V7.0605ZM89.1874 16.299L87.1018 11.2089L85.0168 16.299H89.1874ZM99.1942 7.17249H102.379L109.733 16.8374V7.17249H113.142V22.8695H110.205L102.603 12.8908V22.8695H99.1942V7.17249V7.17249ZM125.57 23.1383C124.419 23.1383 123.35 22.9289 122.363 22.5106C121.377 22.0924 120.525 21.5203 119.807 20.795C119.089 20.0701 118.528 19.2141 118.125 18.2275C117.722 17.2407 117.52 16.1868 117.52 15.0655V15.0209C117.52 13.8996 117.722 12.8496 118.125 11.8703C118.529 10.8912 119.089 10.0315 119.807 9.29158C120.524 8.55163 121.384 7.96832 122.386 7.54235C123.387 7.11638 124.494 6.9034 125.705 6.9034C126.437 6.9034 127.106 6.96348 127.711 7.08271C128.317 7.20265 128.866 7.36677 129.36 7.57601C129.842 7.7795 130.301 8.03515 130.728 8.33841C131.143 8.63491 131.532 8.96496 131.893 9.32524L129.696 11.8591C129.083 11.3062 128.459 10.8722 127.824 10.5585C127.188 10.2447 126.474 10.0876 125.682 10.0876C125.024 10.0876 124.415 10.2148 123.855 10.4689C123.304 10.7155 122.812 11.0745 122.408 11.5226C122.005 11.9711 121.691 12.4908 121.466 13.0811C121.242 13.6719 121.13 14.3034 121.13 14.976V15.0206C121.13 15.6933 121.242 16.3289 121.466 16.9265C121.691 17.5248 122 18.0478 122.397 18.4962C122.793 18.9446 123.271 19.3 123.832 19.5616C124.393 19.8234 125.009 19.9539 125.682 19.9539C126.579 19.9539 127.337 19.7895 127.958 19.4606C128.578 19.1321 129.195 18.6834 129.808 18.1151L132.006 20.3352C131.617 20.7547 131.197 21.1445 130.75 21.5011C130.31 21.849 129.832 22.1463 129.326 22.3872C128.81 22.6336 128.245 22.8208 127.633 22.9476C127.02 23.0745 126.332 23.1383 125.57 23.1383V23.1383ZM136.07 7.17249H147.887V10.2447H139.479V13.429H146.878V16.501H139.479V19.7975H148V22.8695H136.07V7.17249V7.17249Z" fill="#F4BB2B"/>
</svg>
