<svg width="164" height="53" viewBox="0 0 164 53" fill="none" xmlns="http://www.w3.org/2000/svg">
<path d="M84.4327 26.45C84.4327 28.225 84.1568 29.9 83.5801 31.45C83.0033 33.025 82.2008 34.375 81.1226 35.55C80.0443 36.725 78.7403 37.65 77.1605 38.35C75.5807 39.05 73.8002 39.375 71.7941 39.375C69.788 39.375 68.0076 39.025 66.4278 38.35C64.8479 37.65 63.544 36.725 62.4657 35.55C61.3874 34.375 60.5599 33 60.0082 31.45C59.4565 29.875 59.1807 28.225 59.1807 26.45C59.1807 24.7 59.4565 23.025 60.0082 21.45C60.5599 19.875 61.3874 18.5 62.4657 17.325C63.544 16.15 64.873 15.225 66.4278 14.525C68.0076 13.825 69.788 13.5 71.7941 13.5C73.8002 13.5 75.5807 13.85 77.1605 14.525C78.7403 15.225 80.0443 16.15 81.1226 17.325C82.2008 18.5 83.0033 19.875 83.5801 21.45C84.1568 23.025 84.4327 24.7 84.4327 26.45ZM71.8192 35.275C73.0479 35.275 74.1262 35.05 75.029 34.6C75.9568 34.15 76.7091 33.525 77.336 32.75C77.9629 31.95 78.4143 31.025 78.7152 29.95C79.0161 28.875 79.1666 27.7 79.1666 26.45C79.1666 25.2 79.0161 24.025 78.7152 22.95C78.4143 21.875 77.9629 20.95 77.336 20.15C76.7091 19.35 75.9568 18.75 75.029 18.3C74.1012 17.85 73.0479 17.625 71.8192 17.625C70.5904 17.625 69.5122 17.85 68.6094 18.3C67.6816 18.75 66.9293 19.375 66.3024 20.15C65.6755 20.95 65.2241 21.875 64.9232 22.95C64.6223 24.025 64.4718 25.2 64.4718 26.45C64.4718 27.7 64.6223 28.875 64.9232 29.95C65.2241 31.025 65.6755 31.95 66.3024 32.75C66.9293 33.55 67.6816 34.15 68.6094 34.6C69.5122 35.05 70.5904 35.275 71.8192 35.275ZM87.7427 38.95V13.95H93.0088V25.95L101.71 13.95H107.804L98.5758 26.3L108.431 38.95H101.911L92.9837 26.675V38.95H87.7427ZM110.537 13.95H125.608V18.125H115.828V24.175H125.157V28.325H115.828V34.775H125.734V38.95H110.562V13.95H110.537ZM144.39 13.95H150.108L141.858 26.375L150.258 38.95H144.491L139.074 30.425L133.658 38.95H127.89L136.291 26.375L128.041 13.95H133.758L139.074 22.4L144.39 13.95Z" fill="#1A1A1A"/>
<path d="M26.5806 24C33.2283 24 38.6173 18.6274 38.6173 12C38.6173 5.37258 33.2283 0 26.5806 0C19.933 0 14.5439 5.37258 14.5439 12C14.5439 18.6274 19.933 24 26.5806 24Z" fill="#88BDF3"/>
<path d="M26.5806 53C33.2283 53 38.6173 47.6274 38.6173 41C38.6173 34.3726 33.2283 29 26.5806 29C19.933 29 14.5439 34.3726 14.5439 41C14.5439 47.6274 19.933 53 26.5806 53Z" fill="#3075EE"/>
<path d="M41.1256 38.5C47.7733 38.5 53.1623 33.1274 53.1623 26.5C53.1623 19.8726 47.7733 14.5 41.1256 14.5C34.4779 14.5 29.0889 19.8726 29.0889 26.5C29.0889 33.1274 34.4779 38.5 41.1256 38.5Z" fill="#5795F1"/>
<path d="M12.0367 38.5C18.6844 38.5 24.0734 33.1274 24.0734 26.5C24.0734 19.8726 18.6844 14.5 12.0367 14.5C5.38901 14.5 0 19.8726 0 26.5C0 33.1274 5.38901 38.5 12.0367 38.5Z" fill="#205FEC"/>
<path fill-rule="evenodd" clip-rule="evenodd" d="M23.735 23.6626C19.3734 22.6084 15.9402 19.1857 14.8828 14.8374C19.2444 15.8916 22.6775 19.3143 23.735 23.6626Z" fill="#134BEF"/>
<path fill-rule="evenodd" clip-rule="evenodd" d="M14.8828 38.1626C15.9402 33.8143 19.3734 30.3916 23.735 29.3374C22.6775 33.6857 19.2444 37.1084 14.8828 38.1626Z" fill="#0932E8"/>
<path fill-rule="evenodd" clip-rule="evenodd" d="M29.4268 29.3374C33.7883 30.3916 37.2215 33.8143 38.2789 38.1626C33.9173 37.1084 30.4842 33.6857 29.4268 29.3374Z" fill="#164BEA"/>
<path fill-rule="evenodd" clip-rule="evenodd" d="M38.2789 14.8374C37.2215 19.1857 33.7883 22.6084 29.4268 23.6626C30.4842 19.3143 33.9173 15.8916 38.2789 14.8374Z" fill="#3170F1"/>
</svg>
