<?xml version="1.0" encoding="UTF-8" standalone="no"?>
<!-- Created with Inkscape (http://www.inkscape.org/) -->

<svg
   xmlns:dc="http://purl.org/dc/elements/1.1/"
   xmlns:cc="http://creativecommons.org/ns#"
   xmlns:rdf="http://www.w3.org/1999/02/22-rdf-syntax-ns#"
   xmlns:svg="http://www.w3.org/2000/svg"
   xmlns="http://www.w3.org/2000/svg"
   xmlns:xlink="http://www.w3.org/1999/xlink"
   xmlns:sodipodi="http://sodipodi.sourceforge.net/DTD/sodipodi-0.dtd"
   xmlns:inkscape="http://www.inkscape.org/namespaces/inkscape"
   width="2040px"
   height="640px"
   viewBox="0 0 2040 640"
   version="1.1"
   id="SVGRoot"
   inkscape:version="0.92.3 (unknown)"
   sodipodi:docname="eos-park.svg">
  <sodipodi:namedview
     id="base"
     pagecolor="#ffffff"
     bordercolor="#666666"
     borderopacity="1.0"
     inkscape:pageopacity="0.0"
     inkscape:pageshadow="2"
     inkscape:zoom="0.25098039"
     inkscape:cx="589.88691"
     inkscape:cy="268.92252"
     inkscape:document-units="px"
     inkscape:current-layer="layer1"
     showgrid="false"
     inkscape:window-width="1920"
     inkscape:window-height="1025"
     inkscape:window-x="0"
     inkscape:window-y="27"
     inkscape:window-maximized="1" />
  <defs
     id="defs1586">
    <clipPath
       clipPathUnits="userSpaceOnUse"
       id="clipPath18">
      <path
         d="m 1403.585,1010.426 c -1.21,0 -2.192,-0.981 -2.192,-2.192 v 0 -214.739 c 0,-1.211 0.982,-2.193 2.192,-2.193 v 0 h 24.83 c 1.211,0 2.192,0.982 2.192,2.193 v 0 78.153 h 74.86 c 32.251,0 49.298,23.995 49.298,69.389 v 0 c 0,45.395 -17.047,69.389 -49.298,69.389 v 0 z m 27.022,-29.216 h 74.86 c 4.301,0 7.838,-0.224 10.944,-3.049 v 0 c 3.414,-3.103 9.14,-12.053 9.14,-37.124 v 0 c 0,-25.07 -5.726,-34.02 -9.14,-37.123 v 0 c -3.106,-2.825 -6.643,-3.049 -10.944,-3.049 v 0 h -74.86 z"
         id="path16"
         inkscape:connector-curvature="0" />
    </clipPath>
    <linearGradient
       x1="0"
       y1="0"
       x2="1"
       y2="0"
       gradientUnits="userSpaceOnUse"
       gradientTransform="matrix(554.83948,0,0,-554.83948,1403.0526,900.86475)"
       spreadMethod="pad"
       id="linearGradient30">
      <stop
         style="stop-opacity:1;stop-color:#ff5739"
         offset="0"
         id="stop24" />
      <stop
         style="stop-opacity:1;stop-color:#fc7d66"
         offset="0.994382"
         id="stop26" />
      <stop
         style="stop-opacity:1;stop-color:#fc7d66"
         offset="1"
         id="stop28" />
    </linearGradient>
    <clipPath
       clipPathUnits="userSpaceOnUse"
       id="clipPath40">
      <path
         d="m 1588.909,952.906 c -1.21,0 -2.191,-0.981 -2.191,-2.192 v 0 -24.832 c 0,-1.21 0.981,-2.192 2.191,-2.192 v 0 h 59.887 c 16.054,0 17.346,-21.693 17.346,-21.913 v 0 -13.695 h -52.95 c -34.156,0 -39.255,-30.318 -39.255,-48.389 v 0 c 0,-18.071 5.099,-48.391 39.255,-48.391 v 0 h 54.215 c 17.263,0 27.949,17.353 27.949,33.431 v 0 77.044 c 0,7.713 -2.362,19.689 -8.994,30.177 v 0 c -8.543,13.511 -21.884,20.952 -37.566,20.952 v 0 z m 17.961,-130.857 c -0.873,0.896 -3.72,4.81 -3.72,17.644 v 0 c 0,12.834 2.847,16.748 3.72,17.643 v 0 c 0.408,0.417 1.494,1.53 6.322,1.53 v 0 h 52.95 v -34.133 c 0,-1.608 -0.491,-3.199 -0.976,-4.214 v 0 h -51.974 c -4.828,0 -5.914,1.114 -6.322,1.53"
         id="path38"
         inkscape:connector-curvature="0" />
    </clipPath>
    <linearGradient
       x1="0"
       y1="0"
       x2="1"
       y2="0"
       gradientUnits="userSpaceOnUse"
       gradientTransform="matrix(554.83948,0,0,-554.83948,1403.0526,872.1048)"
       spreadMethod="pad"
       id="linearGradient52">
      <stop
         style="stop-opacity:1;stop-color:#ff5739"
         offset="0"
         id="stop46" />
      <stop
         style="stop-opacity:1;stop-color:#fc7d66"
         offset="0.994382"
         id="stop48" />
      <stop
         style="stop-opacity:1;stop-color:#fc7d66"
         offset="1"
         id="stop50" />
    </linearGradient>
    <clipPath
       clipPathUnits="userSpaceOnUse"
       id="clipPath62">
      <path
         d="m 1770.217,952.906 c -27.174,0 -44.734,-22.219 -44.734,-56.606 v 0 -102.805 c 0,-1.211 0.982,-2.193 2.192,-2.193 v 0 h 24.83 c 1.211,0 2.192,0.982 2.192,2.193 v 0 102.805 c 0,2.655 0.253,11.881 3.505,19.112 v 0 c 3.092,6.871 7.04,8.278 12.015,8.278 v 0 h 45.28 c 1.211,0 2.192,0.982 2.192,2.192 v 0 24.832 c 0,1.211 -0.981,2.192 -2.192,2.192 v 0 z"
         id="path60"
         inkscape:connector-curvature="0" />
    </clipPath>
    <clipPath
       clipPathUnits="userSpaceOnUse"
       id="clipPath84">
      <path
         d="m 1839.05,1010.426 c -1.21,0 -2.191,-0.981 -2.191,-2.192 v 0 l 10e-4,-214.739 c 0,-1.211 0.981,-2.193 2.192,-2.193 v 0 h 24.83 c 1.211,0 2.192,0.982 2.192,2.193 v 0 l -10e-4,56.757 c 0,0.99 1.211,1.47 1.891,0.751 v 0 l 55.73,-59.015 c 0.413,-0.437 0.988,-0.686 1.591,-0.686 v 0 h 34.169 c 1.918,0 2.906,2.295 1.589,3.69 v 0 l -75.277,79.713 64.251,71.818 c 1.26,1.408 0.261,3.645 -1.629,3.645 v 0 h -33.331 c -0.622,0 -1.215,-0.266 -1.63,-0.729 v 0 l -45.444,-50.795 c -0.669,-0.749 -1.91,-0.276 -1.91,0.73 v 0 108.86 c 0,1.211 -0.982,2.192 -2.193,2.192 v 0 z"
         id="path82"
         inkscape:connector-curvature="0" />
    </clipPath>
    <clipPath
       clipPathUnits="userSpaceOnUse"
       id="clipPath106">
      <path
         d="M 0,1800 H 2400 V 0 H 0 Z"
         id="path104"
         inkscape:connector-curvature="0" />
    </clipPath>
    <clipPath
       clipPathUnits="userSpaceOnUse"
       id="clipPath126">
      <path
         d="m 665.343,955.969 c 0,-0.012 0.001,-0.023 0.001,-0.036 v 0 0.071 c 0,-0.011 -0.001,-0.024 -0.001,-0.035"
         id="path124"
         inkscape:connector-curvature="0" />
    </clipPath>
    <linearGradient
       x1="0"
       y1="0"
       x2="1"
       y2="0"
       gradientUnits="userSpaceOnUse"
       gradientTransform="matrix(-0.1191746,-0.0685254,-0.0685254,0.1191746,665.38129,955.99042)"
       spreadMethod="pad"
       id="linearGradient140">
      <stop
         style="stop-opacity:1;stop-color:#ffdd61"
         offset="0"
         id="stop132" />
      <stop
         style="stop-opacity:1;stop-color:#ffdd61"
         offset="0.16291964"
         id="stop134" />
      <stop
         style="stop-opacity:1;stop-color:#ff6500"
         offset="0.646031"
         id="stop136" />
      <stop
         style="stop-opacity:1;stop-color:#ff6500"
         offset="1"
         id="stop138" />
    </linearGradient>
    <clipPath
       clipPathUnits="userSpaceOnUse"
       id="clipPath150">
      <path
         d="m 463.757,1103.022 c -14.585,0 -25.377,-11.311 -25.377,-25.899 v 0 -415.826 c 64.956,8.328 113.704,19.566 127.034,96.015 v 0 c 0.072,0.394 0.139,0.797 0.209,1.194 v 0 c 1.728,10.281 2.826,21.726 3.245,34.486 v 0 c 0.007,0.3 0.016,0.599 0.021,0.901 v 0 c 0.136,4.499 0.194,9.152 0.16,13.981 v 0 c 10e-4,0.069 10e-4,0.136 10e-4,0.204 v 0 c -0.002,0.193 0,0.382 -0.002,0.576 v 0 l 0.005,-10e-4 c 10e-4,0.094 0.003,0.19 0.003,0.286 v 0 l -0.002,-10e-4 c 0,0.031 0,0.062 0,0.094 v 0 h 8.661 c 81.332,0 147.689,65.601 147.708,146.937 v 0 c -0.019,81.335 -66.376,147.053 -147.708,147.053 v 0 z"
         id="path148"
         inkscape:connector-curvature="0" />
    </clipPath>
    <linearGradient
       x1="0"
       y1="0"
       x2="1"
       y2="0"
       gradientUnits="userSpaceOnUse"
       gradientTransform="matrix(279.82095,0,0,-279.82095,444.21774,882.15948)"
       spreadMethod="pad"
       id="linearGradient162">
      <stop
         style="stop-opacity:1;stop-color:#ff5739"
         offset="0"
         id="stop156" />
      <stop
         style="stop-opacity:1;stop-color:#fc7d66"
         offset="0.994382"
         id="stop158" />
      <stop
         style="stop-opacity:1;stop-color:#fc7d66"
         offset="1"
         id="stop160" />
    </linearGradient>
    <clipPath
       clipPathUnits="userSpaceOnUse"
       id="clipPath172">
      <path
         d="m 472.169,1104.078 c -0.272,-0.935 -0.533,-1.87 -0.781,-2.807 v 0 c -3.753,-14.148 -9.569,-38.906 -14.06,-52.837 v 0 c -2.896,-8.987 -9.34,-20.885 -18.972,-33.972 v 0 l 0.024,-353.165 c 64.924,8.389 113.974,20.427 127.432,98.388 v 0 c 1.655,10.218 2.695,21.575 3.077,34.208 v 0 c 0.023,1.172 0.047,2.35 0.082,3.538 v 0 c 0.013,0.403 0.085,11.664 0.085,11.891 v 0 c 0,0.016 -0.006,0.032 -0.01,0.046 v 0 c 1.811,9.271 2.869,17.574 4.603,24.812 v 0 c 0.871,3.636 1.79,7.091 2.748,10.266 v 0 c 1.436,4.762 2.964,9.054 4.56,12.875 v 0 c 1.597,3.822 3.264,7.215 4.982,10.211 v 0 c 1.144,1.997 2.312,3.831 3.495,5.503 v 0 c 2.365,3.345 4.797,6.08 7.244,8.332 v 0 c 1.223,1.125 2.452,2.134 3.678,3.039 v 0 c 0.991,0.73 1.979,1.378 2.963,1.983 v 0 c 0.845,0.519 1.686,1.01 2.52,1.449 v 0 c 1.208,0.635 2.403,1.193 3.583,1.69 v 0 c 4.126,1.74 8.045,2.745 11.5,3.746 v 0 c 8.641,2.504 14.989,7.171 19.651,12.77 v 0 c 0.412,0.495 0.809,0.998 1.195,1.508 v 0 c 0.593,0.778 1.153,1.572 1.686,2.379 v 0 c 0.278,0.42 0.549,0.844 0.812,1.27 v 0 c 0.489,0.796 0.955,1.6 1.394,2.412 v 0 c 0.258,0.479 0.511,0.959 0.752,1.441 v 0 c 0.012,0.023 0.024,0.045 0.036,0.068 v 0 c 0.856,1.718 1.606,3.46 2.266,5.2 v 0 c 0.316,0.832 0.611,1.664 0.886,2.493 v 0 c 0.156,0.469 0.305,0.937 0.448,1.403 v 0 c 0.073,0.236 0.144,0.472 0.215,0.707 v 0 c 0.164,0.559 0.322,1.117 0.47,1.672 v 0 c 0.157,0.582 0.304,1.16 0.443,1.734 v 0 c 0.141,0.585 0.275,1.166 0.398,1.739 v 0 c 0.032,0.147 0.063,0.292 0.093,0.436 v 0 c 0.143,0.677 0.275,1.347 0.396,2.003 v 0 c 0.197,1.076 0.365,2.122 0.509,3.131 v 0 c 0.291,2.037 0.48,3.915 0.602,5.569 v 0 c 0.039,0.513 0.069,1.004 0.096,1.471 v 0 c 0.042,0.76 0.071,1.458 0.088,2.084 v 0 c 0.023,0.82 0.029,1.518 0.027,2.073 v 0 c -0.002,0.555 -0.012,0.969 -0.02,1.222 v 0 c -0.006,0.189 -0.011,0.289 -0.011,0.289 v 0 c 0,0 5.178,15.202 0,17.475 v 0 c -0.52,0.228 -1.03,0.461 -1.529,0.699 v 0 c -1.499,0.711 -2.906,1.462 -4.238,2.242 v 0 c -0.954,0.56 -1.859,1.14 -2.731,1.731 v 0 c -0.043,0.031 -0.083,0.06 -0.126,0.089 v 0 c -0.854,0.584 -1.668,1.183 -2.448,1.795 v 0 c -0.043,0.026 -0.082,0.05 -0.127,0.076 v 0 l 0.01,0.017 c -16.176,12.798 -16.423,31.262 -18.379,40.685 v 0 c -0.019,0.093 -0.038,0.182 -0.058,0.272 v 0 c -0.06,0.275 -0.121,0.541 -0.184,0.799 v 0 c -0.028,0.114 -0.056,0.228 -0.085,0.34 v 0 c -0.06,0.227 -0.122,0.445 -0.185,0.659 v 0 c -0.033,0.112 -0.066,0.225 -0.101,0.332 v 0 c -0.068,0.212 -0.14,0.41 -0.213,0.604 v 0 c -0.033,0.088 -0.066,0.183 -0.101,0.268 v 0 c -0.109,0.27 -0.225,0.526 -0.349,0.759 v 0 c -11.835,22.192 -27.377,31.092 -42.77,35.278 v 0 c -0.64,0.175 -1.281,0.341 -1.922,0.5 v 0 c -3.747,0.928 -7.474,1.596 -11.128,2.131 v 0 c -0.181,0.027 -0.362,0.053 -0.542,0.079 v 0 c -1.079,0.154 -2.151,0.298 -3.215,0.433 v 0 c -0.155,0.02 -0.311,0.04 -0.465,0.059 v 0 c -1.08,0.135 -2.15,0.263 -3.211,0.385 v 0 c -0.139,0.018 -0.279,0.033 -0.418,0.049 v 0 c -1.066,0.122 -2.121,0.242 -3.163,0.36 v 0 c -3.099,0.351 -6.092,0.698 -8.936,1.13 v 0 c -0.901,0.137 -1.787,0.283 -2.657,0.44 v 0 c -0.726,0.131 -1.44,0.271 -2.142,0.419 v 0 c -0.775,0.164 -1.533,0.34 -2.278,0.529 v 0 c -1.263,0.322 -2.482,0.686 -3.651,1.1 v 0 c -0.552,0.194 -1.092,0.402 -1.621,0.622 v 0 c -0.376,0.156 -0.747,0.319 -1.111,0.488 v 0 c -0.418,0.193 -0.827,0.397 -1.228,0.609 v 0 c -0.889,0.47 -1.739,0.987 -2.544,1.558 v 0 c -0.509,0.361 -1.003,0.739 -1.476,1.144 v 0 c -2.663,2.281 -4.754,5.294 -6.127,9.349 v 0 c -0.456,1.525 -0.908,3.015 -1.355,4.469 v 0 c -0.448,1.456 -0.892,2.876 -1.332,4.263 v 0 c -0.586,1.847 -1.163,3.613 -1.734,5.342 v 0 c -2.003,6.061 -3.918,11.431 -5.729,16.152 v 0 h 10e-4 c -0.721,1.881 -1.425,3.661 -2.113,5.347 v 0 c -0.344,0.843 -0.683,1.663 -1.019,2.458 v 0 c -0.67,1.593 -1.323,3.094 -1.957,4.507 v 0 c -0.952,2.12 -1.862,4.045 -2.73,5.791 v 0 c -6.936,13.968 -11.078,16.52 -11.079,16.52 v 0 c -10.693,-8.512 -16.864,-21.43 -20.689,-34.623"
         id="path170"
         inkscape:connector-curvature="0" />
    </clipPath>
    <linearGradient
       x1="0"
       y1="0"
       x2="1"
       y2="0"
       gradientUnits="userSpaceOnUse"
       gradientTransform="matrix(122.88027,-3.9217107,-3.9217107,-122.88027,532.2807,897.87122)"
       spreadMethod="pad"
       id="linearGradient186">
      <stop
         style="stop-opacity:1;stop-color:#ffdd61"
         offset="0"
         id="stop178" />
      <stop
         style="stop-opacity:1;stop-color:#ffdd61"
         offset="0.0589443"
         id="stop180" />
      <stop
         style="stop-opacity:1;stop-color:#ffdd61"
         offset="0.29626489"
         id="stop182" />
      <stop
         style="stop-opacity:1;stop-color:#ffa500"
         offset="1"
         id="stop184" />
    </linearGradient>
    <clipPath
       clipPathUnits="userSpaceOnUse"
       id="clipPath196">
      <path
         d="m 569.047,808.654 c -0.004,-0.028 -13.805,-56.985 -86.502,-84.244 v 0 C 456.116,714.499 438.38,689.524 438.38,661.297 v 0 c 77.358,9.919 131.738,23.946 130.668,147.357 v 0 z"
         id="path194"
         inkscape:connector-curvature="0" />
    </clipPath>
    <mask
       maskUnits="userSpaceOnUse"
       x="0"
       y="0"
       width="1"
       height="1"
       id="mask212">
      <g
         id="g222">
        <g
           clip-path="url(#clipPath204)"
           id="g220">
          <g
             id="g218">
            <g
               id="g216">
              <path
                 d="M -32768,32767 H 32767 V -32768 H -32768 Z"
                 style="fill:url(#linearGradient210);stroke:none"
                 id="path214"
                 inkscape:connector-curvature="0" />
            </g>
          </g>
        </g>
      </g>
    </mask>
    <clipPath
       clipPathUnits="userSpaceOnUse"
       id="clipPath204">
      <path
         d="M -32768,32767 H 32767 V -32768 H -32768 Z"
         id="path202"
         inkscape:connector-curvature="0" />
    </clipPath>
    <linearGradient
       x1="0"
       y1="0"
       x2="1"
       y2="0"
       gradientUnits="userSpaceOnUse"
       gradientTransform="matrix(128.60301,0,0,-128.60301,462.40796,734.97498)"
       spreadMethod="pad"
       id="linearGradient210">
      <stop
         style="stop-opacity:0.50000763;stop-color:#ffffff"
         offset="0"
         id="stop206" />
      <stop
         style="stop-opacity:1;stop-color:#ffffff"
         offset="1"
         id="stop208" />
    </linearGradient>
    <linearGradient
       x1="0"
       y1="0"
       x2="1"
       y2="0"
       gradientUnits="userSpaceOnUse"
       gradientTransform="matrix(128.60301,0,0,-128.60301,462.40796,734.97498)"
       spreadMethod="pad"
       id="linearGradient232">
      <stop
         style="stop-opacity:1;stop-color:#ff1a00"
         offset="0"
         id="stop228" />
      <stop
         style="stop-opacity:1;stop-color:#fecb2b"
         offset="1"
         id="stop230" />
    </linearGradient>
    <clipPath
       clipPathUnits="userSpaceOnUse"
       id="clipPath242">
      <path
         d="m 547.006,858.962 c -25.101,-39.304 -108.646,16.44 -108.65,16.444 v 0 -117.107 c 10.462,0.328 20.111,1.045 29.007,2.074 v 0 c 4.448,0.516 8.708,1.108 12.787,1.77 v 0 c 1.36,0.22 2.7,0.449 4.02,0.684 v 0 c 2.64,0.471 5.2,0.971 7.684,1.497 v 0 c 3.727,0.789 7.279,1.638 10.666,2.536 v 0 c 2.259,0.6 4.443,1.22 6.556,1.861 v 0 c 1.057,0.319 2.095,0.645 3.117,0.974 v 0 c 1.776,0.573 3.489,1.162 5.16,1.76 v 0 c 1.213,0.434 2.407,0.872 3.565,1.317 v 0 c 2.756,1.059 5.361,2.15 7.823,3.261 v 0 c 4.104,1.853 7.812,3.766 11.158,5.694 v 0 c 2.007,1.156 3.885,2.318 5.64,3.476 v 0 c 1.17,0.772 2.285,1.543 3.348,2.31 v 0 c 2.126,1.531 4.043,3.045 5.769,4.518 v 0 c 0.864,0.738 1.678,1.465 2.448,2.178 v 0 c 0.765,0.709 1.484,1.404 2.16,2.084 v 0 c 0.005,0.005 0.01,0.011 0.015,0.015 v 0 c 0.009,0.009 0.017,0.017 0.026,0.027 v 0 c 0.496,0.499 0.961,0.987 1.411,1.467 v 0 c 0.469,0.502 0.922,0.996 1.344,1.474 v 0 c 0.277,0.315 0.545,0.626 0.804,0.932 v 0 c 4.651,5.498 6.159,9.268 6.16,9.269 v 0 h 0.005 l 10e-4,0.005 c 1.324,9.317 2.881,17.543 4.624,24.814 v 0 c 0.87,3.636 1.787,7.032 2.745,10.207 v 0 c 1.436,4.761 2.963,9.025 4.559,12.846 v 0 c 1.598,3.821 3.264,7.201 4.982,10.197 v 0 c 1.144,1.997 2.311,3.823 3.494,5.496 v 0 c 2.366,3.346 4.797,6.076 7.244,8.328 v 0 c 1.224,1.126 2.452,2.132 3.678,3.037 v 0 c 0.991,0.729 1.979,1.377 2.964,1.982 v 0 c 0.844,0.52 1.685,1.01 2.519,1.449 v 0 c 1.208,0.635 2.403,1.192 3.583,1.69 v 0 c 4.126,1.74 8.045,2.745 11.5,3.746 v 0 c 0,0 -2.004,0.205 -5.406,0.205 v 0 c -13.395,0 -48.493,-3.173 -68.51,-34.517"
         id="path240"
         inkscape:connector-curvature="0" />
    </clipPath>
    <linearGradient
       x1="0"
       y1="0"
       x2="1"
       y2="0"
       gradientUnits="userSpaceOnUse"
       gradientTransform="matrix(175.75378,205.88301,205.88301,-175.75378,514.97101,854.62964)"
       spreadMethod="pad"
       id="linearGradient254">
      <stop
         style="stop-opacity:1;stop-color:#ffdd61"
         offset="0"
         id="stop248" />
      <stop
         style="stop-opacity:1;stop-color:#ffdd61"
         offset="0.25218549"
         id="stop250" />
      <stop
         style="stop-opacity:1;stop-color:#ff1a00"
         offset="1"
         id="stop252" />
    </linearGradient>
    <clipPath
       clipPathUnits="userSpaceOnUse"
       id="clipPath264">
      <path
         d="m 472.169,1104.078 c -0.272,-0.935 -0.533,-1.87 -0.781,-2.807 v 0 c -3.753,-14.148 -9.569,-38.906 -14.06,-52.837 v 0 c -2.896,-8.987 -9.34,-20.885 -18.972,-33.972 v 0 -139.055 c 0.004,-0.004 83.549,-55.749 108.65,-16.445 v 0 c 25.1,39.305 73.916,34.313 73.916,34.313 v 0 c -3.455,-1.001 -7.374,-2.006 -11.5,-3.746 v 0 c 4.126,1.739 8.045,2.744 11.5,3.745 v 0 c 34.733,10.062 32.432,55.074 32.432,55.074 v 0 c 0,0 5.178,15.202 0,17.475 v 0 c -2.08,0.913 -3.99,1.9 -5.765,2.94 v 0 c 0,0 10e-4,-0.001 0.002,-0.001 v 0 c 16.91,-14.219 -35.098,-14.685 -70.515,-13.497 v 0 c -45.659,1.532 -85.449,32.589 -96.69,76.872 v 0 c -0.199,0.783 -0.39,1.573 -0.573,2.371 v 0 c -13.194,57.398 13.043,104.19 13.045,104.193 v 0 c -10.693,-8.513 -16.864,-21.43 -20.689,-34.623 m 175.42,-135.315 c -0.001,10e-4 -0.001,10e-4 -0.002,10e-4 v 0 c 0,0 10e-4,0 0.002,-10e-4"
         id="path262"
         inkscape:connector-curvature="0" />
    </clipPath>
    <linearGradient
       x1="0"
       y1="0"
       x2="1"
       y2="0"
       gradientUnits="userSpaceOnUse"
       gradientTransform="matrix(122.88029,-3.9217114,-3.9217114,-122.88029,535.24811,990.84894)"
       spreadMethod="pad"
       id="linearGradient278">
      <stop
         style="stop-opacity:1;stop-color:#ffdd61"
         offset="0"
         id="stop270" />
      <stop
         style="stop-opacity:1;stop-color:#ffdd61"
         offset="0.0589443"
         id="stop272" />
      <stop
         style="stop-opacity:1;stop-color:#ffdd61"
         offset="0.29626489"
         id="stop274" />
      <stop
         style="stop-opacity:1;stop-color:#ffa500"
         offset="1"
         id="stop276" />
    </linearGradient>
    <clipPath
       clipPathUnits="userSpaceOnUse"
       id="clipPath288">
      <path
         d="m 479.813,1034.51 c 0.183,-0.797 0.374,-1.587 0.573,-2.37 v 0 c 11.241,-44.284 51.031,-75.341 96.69,-76.873 v 0 c 35.417,-1.187 87.425,-0.722 70.515,13.497 v 0 l -0.004,0.003 c -0.954,0.56 -1.859,1.14 -2.731,1.732 v 0 c -0.043,0.029 -0.083,0.058 -0.126,0.087 v 0 c -0.854,0.585 -1.668,1.184 -2.448,1.796 v 0 c -0.043,0.026 -0.082,0.051 -0.127,0.076 v 0 l 0.01,0.016 c -16.176,12.799 -16.423,31.263 -18.379,40.686 v 0 c -0.019,0.091 -0.038,0.181 -0.058,0.272 v 0 c -0.06,0.275 -0.121,0.54 -0.184,0.799 v 0 c -0.028,0.115 -0.056,0.228 -0.085,0.339 v 0 c -0.06,0.228 -0.122,0.446 -0.185,0.66 v 0 c -0.033,0.11 -0.066,0.225 -0.101,0.332 v 0 c -0.068,0.211 -0.14,0.409 -0.213,0.604 v 0 c -0.033,0.089 -0.065,0.182 -0.101,0.268 v 0 c -0.109,0.27 -0.225,0.525 -0.349,0.759 v 0 c -11.835,22.192 -27.377,31.092 -42.77,35.278 v 0 c -0.64,0.174 -1.281,0.341 -1.922,0.499 v 0 c -3.747,0.928 -7.474,1.596 -11.128,2.131 v 0 c -0.181,0.027 -0.361,0.054 -0.542,0.08 v 0 c -1.079,0.154 -2.151,0.298 -3.215,0.433 v 0 c -0.155,0.019 -0.311,0.039 -0.465,0.059 v 0 c -1.08,0.135 -2.15,0.263 -3.211,0.385 v 0 c -0.139,0.016 -0.279,0.033 -0.418,0.049 v 0 c -1.066,0.122 -2.121,0.242 -3.163,0.359 v 0 c -3.099,0.352 -6.092,0.699 -8.936,1.131 v 0 c -0.901,0.137 -1.786,0.283 -2.657,0.439 v 0 c -0.726,0.132 -1.44,0.271 -2.142,0.42 v 0 c -0.775,0.164 -1.533,0.339 -2.278,0.529 v 0 c -1.263,0.322 -2.482,0.686 -3.651,1.1 v 0 c -0.552,0.195 -1.092,0.402 -1.621,0.622 v 0 c -0.376,0.155 -0.747,0.318 -1.111,0.487 v 0 c -0.418,0.194 -0.827,0.397 -1.228,0.61 v 0 c -0.889,0.47 -1.739,0.987 -2.544,1.558 v 0 c -0.509,0.36 -1.003,0.739 -1.476,1.144 v 0 c -2.663,2.281 -4.754,5.293 -6.127,9.349 v 0 c -0.456,1.525 -0.908,3.014 -1.355,4.469 v 0 c -0.448,1.455 -0.892,2.875 -1.332,4.263 v 0 c -0.586,1.846 -1.163,3.613 -1.734,5.342 v 0 c -2.003,6.061 -3.918,11.43 -5.729,16.152 v 0 h 10e-4 c -0.721,1.88 -1.425,3.661 -2.113,5.347 v 0 c -0.344,0.843 -0.683,1.662 -1.019,2.458 v 0 c -0.67,1.593 -1.323,3.093 -1.957,4.507 v 0 c -0.952,2.12 -1.862,4.045 -2.73,5.791 v 0 c -6.936,13.967 -11.078,16.519 -11.079,16.519 v 0 c -0.002,0 -26.239,-46.794 -13.045,-104.193"
         id="path286"
         inkscape:connector-curvature="0" />
    </clipPath>
    <mask
       maskUnits="userSpaceOnUse"
       x="0"
       y="0"
       width="1"
       height="1"
       id="mask308">
      <g
         id="g318">
        <g
           clip-path="url(#clipPath296)"
           id="g316">
          <g
             id="g314">
            <g
               id="g312">
              <path
                 d="M -32768,32767 H 32767 V -32768 H -32768 Z"
                 style="fill:url(#linearGradient306);stroke:none"
                 id="path310"
                 inkscape:connector-curvature="0" />
            </g>
          </g>
        </g>
      </g>
    </mask>
    <clipPath
       clipPathUnits="userSpaceOnUse"
       id="clipPath296">
      <path
         d="M -32768,32767 H 32767 V -32768 H -32768 Z"
         id="path294"
         inkscape:connector-curvature="0" />
    </clipPath>
    <linearGradient
       x1="0"
       y1="0"
       x2="1"
       y2="0"
       gradientUnits="userSpaceOnUse"
       gradientTransform="matrix(-81.321213,24.64279,24.64279,81.321213,538.8338,1043.9628)"
       spreadMethod="pad"
       id="linearGradient306">
      <stop
         style="stop-opacity:0.29999237;stop-color:#ffffff"
         offset="0"
         id="stop298" />
      <stop
         style="stop-opacity:0.29999237;stop-color:#ffffff"
         offset="0.0589443"
         id="stop300" />
      <stop
         style="stop-opacity:0.29999237;stop-color:#ffffff"
         offset="0.29626489"
         id="stop302" />
      <stop
         style="stop-opacity:1;stop-color:#ffffff"
         offset="1"
         id="stop304" />
    </linearGradient>
    <linearGradient
       x1="0"
       y1="0"
       x2="1"
       y2="0"
       gradientUnits="userSpaceOnUse"
       gradientTransform="matrix(-81.321213,24.64279,24.64279,81.321213,538.8338,1043.9628)"
       spreadMethod="pad"
       id="linearGradient332">
      <stop
         style="stop-opacity:1;stop-color:#ffdd61"
         offset="0"
         id="stop324" />
      <stop
         style="stop-opacity:1;stop-color:#ffdd61"
         offset="0.0589443"
         id="stop326" />
      <stop
         style="stop-opacity:1;stop-color:#ffdd61"
         offset="0.29626489"
         id="stop328" />
      <stop
         style="stop-opacity:1;stop-color:#ff1a00"
         offset="1"
         id="stop330" />
    </linearGradient>
    <clipPath
       clipPathUnits="userSpaceOnUse"
       id="clipPath342">
      <path
         d="m 602.797,989.272 -1.171,-1.302 c -1.46,-1.622 -2.075,-3.83 -1.663,-5.973 v 0 c 0.744,-3.862 2.892,-10.298 9.066,-17.113 v 0 c 3.564,-3.935 9.986,-2.259 11.199,2.909 v 0 c 1.556,6.628 1.147,15.5 -8.178,22.463 v 0 c -1.209,0.904 -2.63,1.339 -4.047,1.339 v 0 c -1.922,0 -3.836,-0.801 -5.206,-2.323"
         id="path340"
         inkscape:connector-curvature="0" />
    </clipPath>
    <linearGradient
       x1="0"
       y1="0"
       x2="1"
       y2="0"
       gradientUnits="userSpaceOnUse"
       gradientTransform="matrix(-62.192821,-35.760872,-35.760872,62.192821,630.78241,988.60083)"
       spreadMethod="pad"
       id="linearGradient356">
      <stop
         style="stop-opacity:1;stop-color:#ffdd61"
         offset="0"
         id="stop348" />
      <stop
         style="stop-opacity:1;stop-color:#ffdd61"
         offset="0.16291964"
         id="stop350" />
      <stop
         style="stop-opacity:1;stop-color:#ff6500"
         offset="0.646031"
         id="stop352" />
      <stop
         style="stop-opacity:1;stop-color:#ff6500"
         offset="1"
         id="stop354" />
    </linearGradient>
    <linearGradient
       inkscape:collect="always"
       xlink:href="#linearGradient30"
       id="linearGradient2671"
       gradientUnits="userSpaceOnUse"
       gradientTransform="matrix(554.83948,0,0,-554.83948,1403.0526,900.86475)"
       x1="0"
       y1="0"
       x2="1"
       y2="0"
       spreadMethod="pad" />
    <linearGradient
       inkscape:collect="always"
       xlink:href="#linearGradient52"
       id="linearGradient2673"
       gradientUnits="userSpaceOnUse"
       gradientTransform="matrix(554.83948,0,0,-554.83948,1403.0526,872.1048)"
       x1="0"
       y1="0"
       x2="1"
       y2="0"
       spreadMethod="pad" />
    <linearGradient
       inkscape:collect="always"
       xlink:href="#linearGradient52"
       id="linearGradient2675"
       gradientUnits="userSpaceOnUse"
       gradientTransform="matrix(554.83948,0,0,-554.83948,1403.0526,872.1048)"
       x1="0"
       y1="0"
       x2="1"
       y2="0"
       spreadMethod="pad" />
    <linearGradient
       inkscape:collect="always"
       xlink:href="#linearGradient30"
       id="linearGradient2677"
       gradientUnits="userSpaceOnUse"
       gradientTransform="matrix(554.83948,0,0,-554.83948,1403.0526,900.86475)"
       x1="0"
       y1="0"
       x2="1"
       y2="0"
       spreadMethod="pad" />
  </defs>
  <metadata
     id="metadata1589">
    <rdf:RDF>
      <cc:Work
         rdf:about="">
        <dc:format>image/svg+xml</dc:format>
        <dc:type
           rdf:resource="http://purl.org/dc/dcmitype/StillImage" />
        <dc:title></dc:title>
      </cc:Work>
    </rdf:RDF>
  </metadata>
  <g
     id="layer1"
     inkscape:groupmode="layer"
     inkscape:label="Layer 1">
    <g
       id="g12"
       transform="matrix(1.3333333,0,0,-1.3333333,-584.47465,1521.7293)">
      <g
         id="g14"
         clip-path="url(#clipPath18)">
        <g
           id="g20">
          <g
             id="g22">
            <path
               d="m 1403.585,1010.426 c -1.21,0 -2.192,-0.981 -2.192,-2.192 v 0 -214.739 c 0,-1.211 0.982,-2.193 2.192,-2.193 v 0 h 24.83 c 1.211,0 2.192,0.982 2.192,2.193 v 0 78.153 h 74.86 c 32.251,0 49.298,23.995 49.298,69.389 v 0 c 0,45.395 -17.047,69.389 -49.298,69.389 v 0 z m 27.022,-29.216 h 74.86 c 4.301,0 7.838,-0.224 10.944,-3.049 v 0 c 3.414,-3.103 9.14,-12.053 9.14,-37.124 v 0 c 0,-25.07 -5.726,-34.02 -9.14,-37.123 v 0 c -3.106,-2.825 -6.643,-3.049 -10.944,-3.049 v 0 h -74.86 z"
               style="fill:url(#linearGradient2671);stroke:none"
               id="path32"
               inkscape:connector-curvature="0" />
          </g>
        </g>
      </g>
    </g>
    <g
       id="g34"
       transform="matrix(1.3333333,0,0,-1.3333333,-584.47465,1521.7293)">
      <g
         id="g36"
         clip-path="url(#clipPath40)">
        <g
           id="g42">
          <g
             id="g44">
            <path
               d="m 1588.909,952.906 c -1.21,0 -2.191,-0.981 -2.191,-2.192 v 0 -24.832 c 0,-1.21 0.981,-2.192 2.191,-2.192 v 0 h 59.887 c 16.054,0 17.346,-21.693 17.346,-21.913 v 0 -13.695 h -52.95 c -34.156,0 -39.255,-30.318 -39.255,-48.389 v 0 c 0,-18.071 5.099,-48.391 39.255,-48.391 v 0 h 54.215 c 17.263,0 27.949,17.353 27.949,33.431 v 0 77.044 c 0,7.713 -2.362,19.689 -8.994,30.177 v 0 c -8.543,13.511 -21.884,20.952 -37.566,20.952 v 0 z m 17.961,-130.857 c -0.873,0.896 -3.72,4.81 -3.72,17.644 v 0 c 0,12.834 2.847,16.748 3.72,17.643 v 0 c 0.408,0.417 1.494,1.53 6.322,1.53 v 0 h 52.95 v -34.133 c 0,-1.608 -0.491,-3.199 -0.976,-4.214 v 0 h -51.974 c -4.828,0 -5.914,1.114 -6.322,1.53"
               style="fill:url(#linearGradient2673);stroke:none"
               id="path54"
               inkscape:connector-curvature="0" />
          </g>
        </g>
      </g>
    </g>
    <g
       id="g56"
       transform="matrix(1.3333333,0,0,-1.3333333,-584.47465,1521.7293)">
      <g
         id="g58"
         clip-path="url(#clipPath62)">
        <g
           id="g64">
          <g
             id="g66">
            <path
               d="m 1770.217,952.906 c -27.174,0 -44.734,-22.219 -44.734,-56.606 v 0 -102.805 c 0,-1.211 0.982,-2.193 2.192,-2.193 v 0 h 24.83 c 1.211,0 2.192,0.982 2.192,2.193 v 0 102.805 c 0,2.655 0.253,11.881 3.505,19.112 v 0 c 3.092,6.871 7.04,8.278 12.015,8.278 v 0 h 45.28 c 1.211,0 2.192,0.982 2.192,2.192 v 0 24.832 c 0,1.211 -0.981,2.192 -2.192,2.192 v 0 z"
               style="fill:url(#linearGradient2675);stroke:none"
               id="path76"
               inkscape:connector-curvature="0" />
          </g>
        </g>
      </g>
    </g>
    <g
       id="g78"
       transform="matrix(1.3333333,0,0,-1.3333333,-584.47465,1521.7293)">
      <g
         id="g80"
         clip-path="url(#clipPath84)">
        <g
           id="g86">
          <g
             id="g88">
            <path
               d="m 1839.05,1010.426 c -1.21,0 -2.191,-0.981 -2.191,-2.192 v 0 l 10e-4,-214.739 c 0,-1.211 0.981,-2.193 2.192,-2.193 v 0 h 24.83 c 1.211,0 2.192,0.982 2.192,2.193 v 0 l -10e-4,56.757 c 0,0.99 1.211,1.47 1.891,0.751 v 0 l 55.73,-59.015 c 0.413,-0.437 0.988,-0.686 1.591,-0.686 v 0 h 34.169 c 1.918,0 2.906,2.295 1.589,3.69 v 0 l -75.277,79.713 64.251,71.818 c 1.26,1.408 0.261,3.645 -1.629,3.645 v 0 h -33.331 c -0.622,0 -1.215,-0.266 -1.63,-0.729 v 0 l -45.444,-50.795 c -0.669,-0.749 -1.91,-0.276 -1.91,0.73 v 0 108.86 c 0,1.211 -0.982,2.192 -2.193,2.192 v 0 z"
               style="fill:url(#linearGradient2677);stroke:none"
               id="path98"
               inkscape:connector-curvature="0" />
          </g>
        </g>
      </g>
    </g>
    <g
       id="g100"
       transform="matrix(1.3333333,0,0,-1.3333333,-584.47465,1521.7293)">
      <g
         id="g102"
         clip-path="url(#clipPath106)">
        <g
           id="g108"
           transform="translate(1107.4302,820.5195)">
          <path
             d="m 0,0 h -7.304 c -48.068,0 -52.949,15.223 -52.949,80.345 0,65.122 4.881,80.345 52.949,80.345 H 0 c 48.068,0 52.95,-15.223 52.95,-80.345 C 52.95,15.223 48.068,0 0,0 m 0,189.907 h -7.304 c -22.686,0 -54.676,-3.284 -70.503,-31.693 -10.802,-19.391 -11.66,-45.609 -11.66,-77.869 0,-32.26 0.858,-58.477 11.66,-77.868 15.827,-28.409 47.817,-31.694 70.503,-31.694 H 0 c 22.686,0 54.677,3.285 70.503,31.694 10.802,19.391 11.661,45.608 11.661,77.868 0,32.26 -0.859,58.478 -11.661,77.869 C 54.677,186.623 22.686,189.907 0,189.907"
             style="fill:#225ac2;fill-opacity:1;fill-rule:nonzero;stroke:none"
             id="path110"
             inkscape:connector-curvature="0" />
        </g>
        <g
           id="g112"
           transform="translate(1328.3589,915.4731)">
          <path
             d="m 0,0 h -71.208 c -7.271,0 -18.259,0 -18.259,32.868 0,32.869 10.988,32.869 18.259,32.869 H 30.666 c 1.215,0 2.199,0.985 2.199,2.2 v 24.816 c 0,1.216 -0.984,2.201 -2.199,2.201 H -71.208 c -21.657,0 -47.473,-10.771 -47.473,-62.086 0,-51.314 25.816,-62.085 47.473,-62.085 H 0 c 7.271,0 18.259,0 18.259,-32.868 C 18.259,-94.954 7.271,-94.954 0,-94.954 h -101.875 c -1.214,0 -2.199,-0.984 -2.199,-2.199 v -24.817 c 0,-1.216 0.985,-2.2 2.199,-2.2 H 0 c 21.656,0 47.472,10.771 47.472,62.085 C 47.472,-10.771 21.656,0 0,0"
             style="fill:#225ac2;fill-opacity:1;fill-rule:nonzero;stroke:none"
             id="path114"
             inkscape:connector-curvature="0" />
        </g>
        <g
           id="g116"
           transform="translate(855.041,980.0669)">
          <path
             d="m 0,0 c -6.99,-14.945 -10.535,-35.527 -10.535,-61.175 v -36.054 c 0,-79.643 34.466,-91.535 55.011,-91.535 h 96.163 c 1.215,0 2.199,0.985 2.199,2.2 v 24.817 c 0,1.215 -0.984,2.2 -2.199,2.2 H 44.476 c -22.446,0 -25.797,39.044 -25.797,62.318 v 3.418 H 122.38 c 1.215,0 2.2,0.985 2.2,2.201 v 24.817 c 0,1.214 -0.985,2.199 -2.2,2.199 H 18.679 v 3.419 c 0,23.274 3.351,62.318 25.797,62.318 h 96.163 c 1.215,0 2.199,0.985 2.199,2.2 V 28.16 c 0,1.215 -0.984,2.2 -2.199,2.2 H 44.476 C 24.953,30.36 9.158,19.578 0,0"
             style="fill:#225ac2;fill-opacity:1;fill-rule:nonzero;stroke:none"
             id="path118"
             inkscape:connector-curvature="0" />
        </g>
      </g>
    </g>
    <g
       id="g120"
       transform="matrix(1.3333333,0,0,-1.3333333,-584.47465,1521.7293)">
      <g
         id="g122"
         clip-path="url(#clipPath126)">
        <g
           id="g128">
          <g
             id="g130">
            <path
               d="m 665.343,955.969 c 0,-0.012 0.001,-0.023 0.001,-0.036 v 0 0.071 c 0,-0.011 -0.001,-0.024 -0.001,-0.035"
               style="fill:url(#linearGradient140);stroke:none"
               id="path142"
               inkscape:connector-curvature="0" />
          </g>
        </g>
      </g>
    </g>
    <g
       id="g144"
       transform="matrix(1.3333333,0,0,-1.3333333,-584.47465,1521.7293)">
      <g
         id="g146"
         clip-path="url(#clipPath150)">
        <g
           id="g152">
          <g
             id="g154">
            <path
               d="m 463.757,1103.022 c -14.585,0 -25.377,-11.311 -25.377,-25.899 v 0 -415.826 c 64.956,8.328 113.704,19.566 127.034,96.015 v 0 c 0.072,0.394 0.139,0.797 0.209,1.194 v 0 c 1.728,10.281 2.826,21.726 3.245,34.486 v 0 c 0.007,0.3 0.016,0.599 0.021,0.901 v 0 c 0.136,4.499 0.194,9.152 0.16,13.981 v 0 c 10e-4,0.069 10e-4,0.136 10e-4,0.204 v 0 c -0.002,0.193 0,0.382 -0.002,0.576 v 0 l 0.005,-10e-4 c 10e-4,0.094 0.003,0.19 0.003,0.286 v 0 l -0.002,-10e-4 c 0,0.031 0,0.062 0,0.094 v 0 h 8.661 c 81.332,0 147.689,65.601 147.708,146.937 v 0 c -0.019,81.335 -66.376,147.053 -147.708,147.053 v 0 z"
               style="fill:url(#linearGradient162);stroke:none"
               id="path164"
               inkscape:connector-curvature="0" />
          </g>
        </g>
      </g>
    </g>
    <g
       id="g166"
       transform="matrix(1.3333333,0,0,-1.3333333,-584.47465,1521.7293)">
      <g
         id="g168"
         clip-path="url(#clipPath172)">
        <g
           id="g174">
          <g
             id="g176">
            <path
               d="m 472.169,1104.078 c -0.272,-0.935 -0.533,-1.87 -0.781,-2.807 v 0 c -3.753,-14.148 -9.569,-38.906 -14.06,-52.837 v 0 c -2.896,-8.987 -9.34,-20.885 -18.972,-33.972 v 0 l 0.024,-353.165 c 64.924,8.389 113.974,20.427 127.432,98.388 v 0 c 1.655,10.218 2.695,21.575 3.077,34.208 v 0 c 0.023,1.172 0.047,2.35 0.082,3.538 v 0 c 0.013,0.403 0.085,11.664 0.085,11.891 v 0 c 0,0.016 -0.006,0.032 -0.01,0.046 v 0 c 1.811,9.271 2.869,17.574 4.603,24.812 v 0 c 0.871,3.636 1.79,7.091 2.748,10.266 v 0 c 1.436,4.762 2.964,9.054 4.56,12.875 v 0 c 1.597,3.822 3.264,7.215 4.982,10.211 v 0 c 1.144,1.997 2.312,3.831 3.495,5.503 v 0 c 2.365,3.345 4.797,6.08 7.244,8.332 v 0 c 1.223,1.125 2.452,2.134 3.678,3.039 v 0 c 0.991,0.73 1.979,1.378 2.963,1.983 v 0 c 0.845,0.519 1.686,1.01 2.52,1.449 v 0 c 1.208,0.635 2.403,1.193 3.583,1.69 v 0 c 4.126,1.74 8.045,2.745 11.5,3.746 v 0 c 8.641,2.504 14.989,7.171 19.651,12.77 v 0 c 0.412,0.495 0.809,0.998 1.195,1.508 v 0 c 0.593,0.778 1.153,1.572 1.686,2.379 v 0 c 0.278,0.42 0.549,0.844 0.812,1.27 v 0 c 0.489,0.796 0.955,1.6 1.394,2.412 v 0 c 0.258,0.479 0.511,0.959 0.752,1.441 v 0 c 0.012,0.023 0.024,0.045 0.036,0.068 v 0 c 0.856,1.718 1.606,3.46 2.266,5.2 v 0 c 0.316,0.832 0.611,1.664 0.886,2.493 v 0 c 0.156,0.469 0.305,0.937 0.448,1.403 v 0 c 0.073,0.236 0.144,0.472 0.215,0.707 v 0 c 0.164,0.559 0.322,1.117 0.47,1.672 v 0 c 0.157,0.582 0.304,1.16 0.443,1.734 v 0 c 0.141,0.585 0.275,1.166 0.398,1.739 v 0 c 0.032,0.147 0.063,0.292 0.093,0.436 v 0 c 0.143,0.677 0.275,1.347 0.396,2.003 v 0 c 0.197,1.076 0.365,2.122 0.509,3.131 v 0 c 0.291,2.037 0.48,3.915 0.602,5.569 v 0 c 0.039,0.513 0.069,1.004 0.096,1.471 v 0 c 0.042,0.76 0.071,1.458 0.088,2.084 v 0 c 0.023,0.82 0.029,1.518 0.027,2.073 v 0 c -0.002,0.555 -0.012,0.969 -0.02,1.222 v 0 c -0.006,0.189 -0.011,0.289 -0.011,0.289 v 0 c 0,0 5.178,15.202 0,17.475 v 0 c -0.52,0.228 -1.03,0.461 -1.529,0.699 v 0 c -1.499,0.711 -2.906,1.462 -4.238,2.242 v 0 c -0.954,0.56 -1.859,1.14 -2.731,1.731 v 0 c -0.043,0.031 -0.083,0.06 -0.126,0.089 v 0 c -0.854,0.584 -1.668,1.183 -2.448,1.795 v 0 c -0.043,0.026 -0.082,0.05 -0.127,0.076 v 0 l 0.01,0.017 c -16.176,12.798 -16.423,31.262 -18.379,40.685 v 0 c -0.019,0.093 -0.038,0.182 -0.058,0.272 v 0 c -0.06,0.275 -0.121,0.541 -0.184,0.799 v 0 c -0.028,0.114 -0.056,0.228 -0.085,0.34 v 0 c -0.06,0.227 -0.122,0.445 -0.185,0.659 v 0 c -0.033,0.112 -0.066,0.225 -0.101,0.332 v 0 c -0.068,0.212 -0.14,0.41 -0.213,0.604 v 0 c -0.033,0.088 -0.066,0.183 -0.101,0.268 v 0 c -0.109,0.27 -0.225,0.526 -0.349,0.759 v 0 c -11.835,22.192 -27.377,31.092 -42.77,35.278 v 0 c -0.64,0.175 -1.281,0.341 -1.922,0.5 v 0 c -3.747,0.928 -7.474,1.596 -11.128,2.131 v 0 c -0.181,0.027 -0.362,0.053 -0.542,0.079 v 0 c -1.079,0.154 -2.151,0.298 -3.215,0.433 v 0 c -0.155,0.02 -0.311,0.04 -0.465,0.059 v 0 c -1.08,0.135 -2.15,0.263 -3.211,0.385 v 0 c -0.139,0.018 -0.279,0.033 -0.418,0.049 v 0 c -1.066,0.122 -2.121,0.242 -3.163,0.36 v 0 c -3.099,0.351 -6.092,0.698 -8.936,1.13 v 0 c -0.901,0.137 -1.787,0.283 -2.657,0.44 v 0 c -0.726,0.131 -1.44,0.271 -2.142,0.419 v 0 c -0.775,0.164 -1.533,0.34 -2.278,0.529 v 0 c -1.263,0.322 -2.482,0.686 -3.651,1.1 v 0 c -0.552,0.194 -1.092,0.402 -1.621,0.622 v 0 c -0.376,0.156 -0.747,0.319 -1.111,0.488 v 0 c -0.418,0.193 -0.827,0.397 -1.228,0.609 v 0 c -0.889,0.47 -1.739,0.987 -2.544,1.558 v 0 c -0.509,0.361 -1.003,0.739 -1.476,1.144 v 0 c -2.663,2.281 -4.754,5.294 -6.127,9.349 v 0 c -0.456,1.525 -0.908,3.015 -1.355,4.469 v 0 c -0.448,1.456 -0.892,2.876 -1.332,4.263 v 0 c -0.586,1.847 -1.163,3.613 -1.734,5.342 v 0 c -2.003,6.061 -3.918,11.431 -5.729,16.152 v 0 h 10e-4 c -0.721,1.881 -1.425,3.661 -2.113,5.347 v 0 c -0.344,0.843 -0.683,1.663 -1.019,2.458 v 0 c -0.67,1.593 -1.323,3.094 -1.957,4.507 v 0 c -0.952,2.12 -1.862,4.045 -2.73,5.791 v 0 c -6.936,13.968 -11.078,16.52 -11.079,16.52 v 0 c -10.693,-8.512 -16.864,-21.43 -20.689,-34.623"
               style="fill:url(#linearGradient186);stroke:none"
               id="path188"
               inkscape:connector-curvature="0" />
          </g>
        </g>
      </g>
    </g>
    <g
       id="g190"
       transform="matrix(1.3333333,0,0,-1.3333333,-584.47465,1521.7293)">
      <g
         id="g192"
         clip-path="url(#clipPath196)">
        <g
           id="g198">
          <g
             id="g200" />
          <g
             id="g224"
             mask="url(#mask212)">
            <g
               id="g226">
              <path
                 d="m 569.047,808.654 c -0.004,-0.028 -13.805,-56.985 -86.502,-84.244 v 0 C 456.116,714.499 438.38,689.524 438.38,661.297 v 0 c 77.358,9.919 131.738,23.946 130.668,147.357 v 0 z"
                 style="fill:url(#linearGradient232);stroke:none"
                 id="path234"
                 inkscape:connector-curvature="0" />
            </g>
          </g>
        </g>
      </g>
    </g>
    <g
       id="g236"
       transform="matrix(1.3333333,0,0,-1.3333333,-584.47465,1521.7293)">
      <g
         id="g238"
         clip-path="url(#clipPath242)">
        <g
           id="g244">
          <g
             id="g246">
            <path
               d="m 547.006,858.962 c -25.101,-39.304 -108.646,16.44 -108.65,16.444 v 0 -117.107 c 10.462,0.328 20.111,1.045 29.007,2.074 v 0 c 4.448,0.516 8.708,1.108 12.787,1.77 v 0 c 1.36,0.22 2.7,0.449 4.02,0.684 v 0 c 2.64,0.471 5.2,0.971 7.684,1.497 v 0 c 3.727,0.789 7.279,1.638 10.666,2.536 v 0 c 2.259,0.6 4.443,1.22 6.556,1.861 v 0 c 1.057,0.319 2.095,0.645 3.117,0.974 v 0 c 1.776,0.573 3.489,1.162 5.16,1.76 v 0 c 1.213,0.434 2.407,0.872 3.565,1.317 v 0 c 2.756,1.059 5.361,2.15 7.823,3.261 v 0 c 4.104,1.853 7.812,3.766 11.158,5.694 v 0 c 2.007,1.156 3.885,2.318 5.64,3.476 v 0 c 1.17,0.772 2.285,1.543 3.348,2.31 v 0 c 2.126,1.531 4.043,3.045 5.769,4.518 v 0 c 0.864,0.738 1.678,1.465 2.448,2.178 v 0 c 0.765,0.709 1.484,1.404 2.16,2.084 v 0 c 0.005,0.005 0.01,0.011 0.015,0.015 v 0 c 0.009,0.009 0.017,0.017 0.026,0.027 v 0 c 0.496,0.499 0.961,0.987 1.411,1.467 v 0 c 0.469,0.502 0.922,0.996 1.344,1.474 v 0 c 0.277,0.315 0.545,0.626 0.804,0.932 v 0 c 4.651,5.498 6.159,9.268 6.16,9.269 v 0 h 0.005 l 10e-4,0.005 c 1.324,9.317 2.881,17.543 4.624,24.814 v 0 c 0.87,3.636 1.787,7.032 2.745,10.207 v 0 c 1.436,4.761 2.963,9.025 4.559,12.846 v 0 c 1.598,3.821 3.264,7.201 4.982,10.197 v 0 c 1.144,1.997 2.311,3.823 3.494,5.496 v 0 c 2.366,3.346 4.797,6.076 7.244,8.328 v 0 c 1.224,1.126 2.452,2.132 3.678,3.037 v 0 c 0.991,0.729 1.979,1.377 2.964,1.982 v 0 c 0.844,0.52 1.685,1.01 2.519,1.449 v 0 c 1.208,0.635 2.403,1.192 3.583,1.69 v 0 c 4.126,1.74 8.045,2.745 11.5,3.746 v 0 c 0,0 -2.004,0.205 -5.406,0.205 v 0 c -13.395,0 -48.493,-3.173 -68.51,-34.517"
               style="fill:url(#linearGradient254);stroke:none"
               id="path256"
               inkscape:connector-curvature="0" />
          </g>
        </g>
      </g>
    </g>
    <g
       id="g258"
       transform="matrix(1.3333333,0,0,-1.3333333,-584.47465,1521.7293)">
      <g
         id="g260"
         clip-path="url(#clipPath264)">
        <g
           id="g266">
          <g
             id="g268">
            <path
               d="m 472.169,1104.078 c -0.272,-0.935 -0.533,-1.87 -0.781,-2.807 v 0 c -3.753,-14.148 -9.569,-38.906 -14.06,-52.837 v 0 c -2.896,-8.987 -9.34,-20.885 -18.972,-33.972 v 0 -139.055 c 0.004,-0.004 83.549,-55.749 108.65,-16.445 v 0 c 25.1,39.305 73.916,34.313 73.916,34.313 v 0 c -3.455,-1.001 -7.374,-2.006 -11.5,-3.746 v 0 c 4.126,1.739 8.045,2.744 11.5,3.745 v 0 c 34.733,10.062 32.432,55.074 32.432,55.074 v 0 c 0,0 5.178,15.202 0,17.475 v 0 c -2.08,0.913 -3.99,1.9 -5.765,2.94 v 0 c 0,0 10e-4,-0.001 0.002,-0.001 v 0 c 16.91,-14.219 -35.098,-14.685 -70.515,-13.497 v 0 c -45.659,1.532 -85.449,32.589 -96.69,76.872 v 0 c -0.199,0.783 -0.39,1.573 -0.573,2.371 v 0 c -13.194,57.398 13.043,104.19 13.045,104.193 v 0 c -10.693,-8.513 -16.864,-21.43 -20.689,-34.623 m 175.42,-135.315 c -0.001,10e-4 -0.001,10e-4 -0.002,10e-4 v 0 c 0,0 10e-4,0 0.002,-10e-4"
               style="fill:url(#linearGradient278);stroke:none"
               id="path280"
               inkscape:connector-curvature="0" />
          </g>
        </g>
      </g>
    </g>
    <g
       id="g282"
       transform="matrix(1.3333333,0,0,-1.3333333,-584.47465,1521.7293)">
      <g
         id="g284"
         clip-path="url(#clipPath288)">
        <g
           id="g290">
          <g
             id="g292" />
          <g
             id="g320"
             mask="url(#mask308)">
            <g
               id="g322">
              <path
                 d="m 479.813,1034.51 c 0.183,-0.797 0.374,-1.587 0.573,-2.37 v 0 c 11.241,-44.284 51.031,-75.341 96.69,-76.873 v 0 c 35.417,-1.187 87.425,-0.722 70.515,13.497 v 0 l -0.004,0.003 c -0.954,0.56 -1.859,1.14 -2.731,1.732 v 0 c -0.043,0.029 -0.083,0.058 -0.126,0.087 v 0 c -0.854,0.585 -1.668,1.184 -2.448,1.796 v 0 c -0.043,0.026 -0.082,0.051 -0.127,0.076 v 0 l 0.01,0.016 c -16.176,12.799 -16.423,31.263 -18.379,40.686 v 0 c -0.019,0.091 -0.038,0.181 -0.058,0.272 v 0 c -0.06,0.275 -0.121,0.54 -0.184,0.799 v 0 c -0.028,0.115 -0.056,0.228 -0.085,0.339 v 0 c -0.06,0.228 -0.122,0.446 -0.185,0.66 v 0 c -0.033,0.11 -0.066,0.225 -0.101,0.332 v 0 c -0.068,0.211 -0.14,0.409 -0.213,0.604 v 0 c -0.033,0.089 -0.065,0.182 -0.101,0.268 v 0 c -0.109,0.27 -0.225,0.525 -0.349,0.759 v 0 c -11.835,22.192 -27.377,31.092 -42.77,35.278 v 0 c -0.64,0.174 -1.281,0.341 -1.922,0.499 v 0 c -3.747,0.928 -7.474,1.596 -11.128,2.131 v 0 c -0.181,0.027 -0.361,0.054 -0.542,0.08 v 0 c -1.079,0.154 -2.151,0.298 -3.215,0.433 v 0 c -0.155,0.019 -0.311,0.039 -0.465,0.059 v 0 c -1.08,0.135 -2.15,0.263 -3.211,0.385 v 0 c -0.139,0.016 -0.279,0.033 -0.418,0.049 v 0 c -1.066,0.122 -2.121,0.242 -3.163,0.359 v 0 c -3.099,0.352 -6.092,0.699 -8.936,1.131 v 0 c -0.901,0.137 -1.786,0.283 -2.657,0.439 v 0 c -0.726,0.132 -1.44,0.271 -2.142,0.42 v 0 c -0.775,0.164 -1.533,0.339 -2.278,0.529 v 0 c -1.263,0.322 -2.482,0.686 -3.651,1.1 v 0 c -0.552,0.195 -1.092,0.402 -1.621,0.622 v 0 c -0.376,0.155 -0.747,0.318 -1.111,0.487 v 0 c -0.418,0.194 -0.827,0.397 -1.228,0.61 v 0 c -0.889,0.47 -1.739,0.987 -2.544,1.558 v 0 c -0.509,0.36 -1.003,0.739 -1.476,1.144 v 0 c -2.663,2.281 -4.754,5.293 -6.127,9.349 v 0 c -0.456,1.525 -0.908,3.014 -1.355,4.469 v 0 c -0.448,1.455 -0.892,2.875 -1.332,4.263 v 0 c -0.586,1.846 -1.163,3.613 -1.734,5.342 v 0 c -2.003,6.061 -3.918,11.43 -5.729,16.152 v 0 h 10e-4 c -0.721,1.88 -1.425,3.661 -2.113,5.347 v 0 c -0.344,0.843 -0.683,1.662 -1.019,2.458 v 0 c -0.67,1.593 -1.323,3.093 -1.957,4.507 v 0 c -0.952,2.12 -1.862,4.045 -2.73,5.791 v 0 c -6.936,13.967 -11.078,16.519 -11.079,16.519 v 0 c -0.002,0 -26.239,-46.794 -13.045,-104.193"
                 style="fill:url(#linearGradient332);stroke:none"
                 id="path334"
                 inkscape:connector-curvature="0" />
            </g>
          </g>
        </g>
      </g>
    </g>
    <g
       id="g336"
       transform="matrix(1.3333333,0,0,-1.3333333,-584.47465,1521.7293)">
      <g
         id="g338"
         clip-path="url(#clipPath342)">
        <g
           id="g344">
          <g
             id="g346">
            <path
               d="m 602.797,989.272 -1.171,-1.302 c -1.46,-1.622 -2.075,-3.83 -1.663,-5.973 v 0 c 0.744,-3.862 2.892,-10.298 9.066,-17.113 v 0 c 3.564,-3.935 9.986,-2.259 11.199,2.909 v 0 c 1.556,6.628 1.147,15.5 -8.178,22.463 v 0 c -1.209,0.904 -2.63,1.339 -4.047,1.339 v 0 c -1.922,0 -3.836,-0.801 -5.206,-2.323"
               style="fill:url(#linearGradient356);stroke:none"
               id="path358"
               inkscape:connector-curvature="0" />
          </g>
        </g>
      </g>
    </g>
  </g>
</svg>
