<svg width="146" height="46" viewBox="0 0 146 46" fill="none" xmlns="http://www.w3.org/2000/svg">
<path d="M92.5127 12.2947C92.3967 12.2947 92.3026 12.3887 92.3026 12.5048V33.0865C92.3026 33.2026 92.3967 33.2967 92.5127 33.2967H94.8925C95.0086 33.2967 95.1026 33.2026 95.1026 33.0865V25.5959H102.278C105.369 25.5959 107.003 23.2961 107.003 18.9453C107.003 14.5944 105.369 12.2947 102.278 12.2947H92.5127ZM95.1026 15.0949H102.278C102.69 15.0949 103.029 15.1164 103.327 15.3872C103.654 15.6846 104.203 16.5424 104.203 18.9453C104.203 21.3482 103.654 22.206 103.327 22.5034C103.029 22.7741 102.69 22.7956 102.278 22.7956H95.1026V15.0949Z" fill="url(#paint0_linear)"/>
<path d="M110.275 17.8077C110.159 17.8077 110.065 17.9018 110.065 18.0178V20.3978C110.065 20.5138 110.159 20.6079 110.275 20.6079H116.015C117.554 20.6079 117.677 22.6871 117.677 22.7082V24.0208H112.602C109.329 24.0208 108.84 26.9266 108.84 28.6587C108.84 30.3907 109.329 33.2967 112.602 33.2967H117.799C119.453 33.2967 120.477 31.6335 120.477 30.0925V22.7082C120.477 21.9689 120.251 20.8211 119.615 19.8159C118.797 18.5209 117.518 17.8077 116.015 17.8077H110.275ZM111.997 30.3498C111.913 30.2639 111.64 29.8887 111.64 28.6587C111.64 27.4286 111.913 27.0534 111.997 26.9677C112.036 26.9277 112.14 26.821 112.602 26.821H117.677V30.0925C117.677 30.2466 117.63 30.3991 117.584 30.4964H112.602C112.14 30.4964 112.036 30.3896 111.997 30.3498" fill="url(#paint1_linear)"/>
<path d="M127.653 17.8077C125.048 17.8077 123.365 19.9373 123.365 23.2331V33.0865C123.365 33.2026 123.459 33.2967 123.575 33.2967H125.955C126.071 33.2967 126.165 33.2026 126.165 33.0865V23.2331C126.165 22.9787 126.189 22.0944 126.501 21.4014C126.797 20.7428 127.176 20.6079 127.653 20.6079H131.992C132.108 20.6079 132.203 20.5138 132.203 20.3978V18.0178C132.203 17.9018 132.108 17.8077 131.992 17.8077H127.653Z" fill="url(#paint2_linear)"/>
<path d="M134.25 12.2947C134.134 12.2947 134.04 12.3887 134.04 12.5048L134.04 33.0865C134.04 33.2026 134.134 33.2967 134.25 33.2967H136.63C136.746 33.2967 136.84 33.2026 136.84 33.0865L136.84 27.6466C136.84 27.5517 136.956 27.5057 137.021 27.5746L142.363 33.231C142.402 33.2728 142.457 33.2967 142.515 33.2967H145.79C145.974 33.2967 146.069 33.0767 145.942 32.943L138.727 25.3029L144.886 18.4195C145.006 18.2846 144.911 18.0701 144.729 18.0701H141.535C141.475 18.0701 141.418 18.0956 141.379 18.14L137.023 23.0085C136.959 23.0803 136.84 23.0349 136.84 22.9385V12.5048C136.84 12.3887 136.746 12.2947 136.63 12.2947H134.25Z" fill="url(#paint3_linear)"/>
<path d="M64.1275 30.4964H63.4275C58.8204 30.4964 58.3526 29.0373 58.3526 22.7957C58.3526 16.5541 58.8204 15.095 63.4275 15.095H64.1275C68.7346 15.095 69.2025 16.5541 69.2025 22.7957C69.2025 29.0373 68.7346 30.4964 64.1275 30.4964ZM64.1275 12.2947H63.4275C61.2531 12.2947 58.187 12.6094 56.6701 15.3323C55.6348 17.1909 55.5525 19.7037 55.5525 22.7957C55.5525 25.8877 55.6348 28.4004 56.6701 30.259C58.187 32.9818 61.2531 33.2967 63.4275 33.2967H64.1275C66.3019 33.2967 69.3681 32.9818 70.8849 30.259C71.9202 28.4004 72.0026 25.8877 72.0026 22.7957C72.0026 19.7037 71.9202 17.1909 70.8849 15.3323C69.3681 12.6094 66.3019 12.2947 64.1275 12.2947Z" fill="#225AC2"/>
<path d="M85.3025 21.3955H78.4776C77.7807 21.3955 76.7275 21.3955 76.7275 18.2453C76.7275 15.0949 77.7807 15.0949 78.4776 15.0949H88.2417C88.3582 15.0949 88.4525 15.0005 88.4525 14.8841V12.5056C88.4525 12.389 88.3582 12.2946 88.2417 12.2946H78.4776C76.4019 12.2946 73.9275 13.327 73.9275 18.2453C73.9275 23.1635 76.4019 24.1958 78.4776 24.1958H85.3025C85.9994 24.1958 87.0526 24.1958 87.0526 27.3461C87.0526 30.4964 85.9994 30.4964 85.3025 30.4964H75.5383C75.4219 30.4964 75.3275 30.5907 75.3275 30.7072V33.0858C75.3275 33.2023 75.4219 33.2966 75.5383 33.2966H85.3025C87.3781 33.2966 89.8525 32.2643 89.8525 27.3461C89.8525 22.4279 87.3781 21.3955 85.3025 21.3955Z" fill="#225AC2"/>
<path d="M39.9373 15.204C39.2674 16.6365 38.9276 18.6091 38.9276 21.0674V24.523C38.9276 32.1564 42.231 33.2962 44.2002 33.2962H53.4169C53.5334 33.2962 53.6277 33.2018 53.6277 33.0853V30.7067C53.6277 30.5903 53.5334 30.4959 53.4169 30.4959H44.2002C42.0488 30.4959 41.7276 26.7537 41.7276 24.523V24.1954H51.6669C51.7833 24.1954 51.8778 24.101 51.8778 23.9844V21.6058C51.8778 21.4895 51.7833 21.3951 51.6669 21.3951H41.7276V21.0674C41.7276 18.8367 42.0488 15.0945 44.2002 15.0945H53.4169C53.5334 15.0945 53.6277 15.0001 53.6277 14.8836V12.505C53.6277 12.3886 53.5334 12.2942 53.4169 12.2942H44.2002C42.329 12.2942 40.8151 13.3276 39.9373 15.204Z" fill="#225AC2"/>
<path d="M21.7557 17.5136C21.7557 17.5149 21.7558 17.5161 21.7558 17.5176V17.5097C21.7558 17.5109 21.7557 17.5123 21.7557 17.5136" fill="url(#paint4_linear)"/>
<path d="M2.43459 3.41983C1.03669 3.41983 0.00232697 4.50393 0.00232697 5.90212V45.7571C6.22805 44.9589 10.9003 43.8818 12.1779 36.5545C12.1848 36.5167 12.1913 36.4781 12.198 36.4401C12.3636 35.4547 12.4688 34.3577 12.509 33.1347C12.5097 33.106 12.5105 33.0773 12.511 33.0484C12.524 32.6172 12.5296 32.1712 12.5263 31.7084C12.5264 31.7018 12.5264 31.6953 12.5264 31.6888C12.5262 31.6703 12.5264 31.6522 12.5262 31.6336L12.5267 31.6337C12.5268 31.6247 12.527 31.6155 12.527 31.6063L12.5268 31.6064C12.5268 31.6034 12.5268 31.6005 12.5268 31.5974H13.3569C21.1522 31.5974 27.5122 25.3098 27.514 17.5142C27.5122 9.71859 21.1522 3.41983 13.3569 3.41983H2.43459Z" fill="url(#paint5_linear)"/>
<path d="M3.24082 3.31862C3.21475 3.40823 3.18973 3.49785 3.16596 3.58766C2.80626 4.94368 2.24882 7.31662 1.81838 8.65184C1.54081 9.5132 0.923182 10.6536 0 11.9079L0.00230195 45.7571C6.22496 44.953 10.9262 43.7993 12.2161 36.3271C12.3747 35.3477 12.4744 34.2592 12.511 33.0484C12.5132 32.9361 12.5155 32.8232 12.5188 32.7093C12.5201 32.6707 12.527 31.5913 12.527 31.5696C12.527 31.5681 12.5264 31.5665 12.526 31.5652C12.6996 30.6766 12.801 29.8808 12.9672 29.1871C13.0507 28.8386 13.1388 28.5074 13.2306 28.2031C13.3682 27.7467 13.5147 27.3353 13.6676 26.9691C13.8207 26.6028 13.9805 26.2776 14.1451 25.9904C14.2548 25.799 14.3667 25.6233 14.4801 25.463C14.7068 25.1424 14.9399 24.8803 15.1744 24.6644C15.2916 24.5566 15.4094 24.4599 15.5269 24.3731C15.6219 24.3032 15.7166 24.2411 15.8109 24.1831C15.8919 24.1333 15.9725 24.0863 16.0525 24.0442C16.1682 23.9833 16.2828 23.9299 16.3959 23.8822C16.7913 23.7155 17.1669 23.6191 17.4981 23.5232C18.3263 23.2832 18.9347 22.8359 19.3815 22.2992C19.421 22.2518 19.4591 22.2036 19.4961 22.1547C19.5529 22.0801 19.6066 22.004 19.6577 21.9267C19.6843 21.8864 19.7103 21.8458 19.7355 21.805C19.7824 21.7287 19.827 21.6516 19.8691 21.5738C19.8938 21.5279 19.9181 21.4819 19.9412 21.4357C19.9423 21.4335 19.9435 21.4314 19.9446 21.4292C20.0267 21.2645 20.0986 21.0975 20.1618 20.9308C20.1921 20.851 20.2204 20.7713 20.2467 20.6918C20.2617 20.6469 20.276 20.602 20.2897 20.5574C20.2967 20.5347 20.3035 20.5121 20.3103 20.4896C20.326 20.436 20.3411 20.3825 20.3553 20.3293C20.3704 20.2736 20.3845 20.2182 20.3978 20.1631C20.4113 20.1071 20.4242 20.0514 20.4359 19.9965C20.439 19.9824 20.442 19.9685 20.4449 19.9547C20.4586 19.8898 20.4712 19.8256 20.4828 19.7627C20.5017 19.6596 20.5178 19.5593 20.5316 19.4626C20.5595 19.2674 20.5776 19.0874 20.5893 18.9288C20.593 18.8797 20.5959 18.8326 20.5985 18.7879C20.6025 18.715 20.6053 18.6481 20.6069 18.5881C20.6091 18.5095 20.6097 18.4426 20.6095 18.3894C20.6093 18.3362 20.6084 18.2966 20.6076 18.2723C20.607 18.2542 20.6065 18.2446 20.6065 18.2446C20.6065 18.2446 21.1028 16.7876 20.6065 16.5697C20.5567 16.5479 20.5078 16.5255 20.46 16.5027C20.3163 16.4346 20.1815 16.3626 20.0538 16.2878C19.9624 16.2342 19.8756 16.1786 19.7921 16.1219C19.7879 16.1189 19.7841 16.1162 19.78 16.1134C19.6981 16.0574 19.6201 16 19.5453 15.9413C19.5412 15.9389 19.5375 15.9366 19.5332 15.9341L19.5341 15.9324C17.9837 14.7058 17.9601 12.9361 17.7726 12.033C17.7708 12.0241 17.769 12.0155 17.767 12.0069C17.7613 11.9805 17.7554 11.955 17.7494 11.9303C17.7467 11.9194 17.744 11.9085 17.7412 11.8977C17.7355 11.876 17.7296 11.8551 17.7235 11.8346C17.7204 11.8238 17.7172 11.813 17.7138 11.8027C17.7073 11.7824 17.7004 11.7634 17.6934 11.7449C17.6903 11.7364 17.6871 11.7273 17.6837 11.7192C17.6733 11.6933 17.6622 11.6688 17.6503 11.6464C16.516 9.51943 15.0263 8.6664 13.551 8.26519C13.4896 8.24842 13.4282 8.23251 13.3668 8.21727C13.0076 8.12833 12.6504 8.0643 12.3002 8.01303C12.2829 8.01044 12.2655 8.00795 12.2483 8.00546C12.1448 7.9907 12.0421 7.9769 11.9401 7.96396C11.9253 7.96204 11.9103 7.96011 11.8956 7.95829C11.792 7.94535 11.6895 7.93309 11.5878 7.92139C11.5745 7.91967 11.5611 7.91823 11.5477 7.9167C11.4456 7.90501 11.3444 7.89351 11.2446 7.8822C10.9475 7.84856 10.6607 7.8153 10.3881 7.77389C10.3017 7.76076 10.2168 7.74676 10.1334 7.73171C10.0639 7.71916 9.99542 7.70575 9.92813 7.69156C9.85385 7.67584 9.78121 7.65897 9.7098 7.64085C9.58875 7.60999 9.47191 7.57511 9.35987 7.53543C9.30696 7.51683 9.2552 7.4969 9.2045 7.47581C9.16846 7.46086 9.13291 7.44524 9.09802 7.42904C9.05796 7.41054 9.01876 7.39099 8.98032 7.37067C8.89511 7.32562 8.81365 7.27607 8.73649 7.22134C8.68771 7.18674 8.64036 7.15051 8.59502 7.11169C8.33979 6.89307 8.13938 6.60429 8.00778 6.21563C7.96408 6.06947 7.92075 5.92666 7.87791 5.7873C7.83497 5.64775 7.79242 5.51166 7.75024 5.37872C7.69408 5.20169 7.63878 5.03243 7.58405 4.86671C7.39207 4.28579 7.20853 3.7711 7.03495 3.31862H7.03505C6.96594 3.13833 6.89847 2.96773 6.83252 2.80613C6.79955 2.72533 6.76706 2.64674 6.73486 2.57054C6.67064 2.41786 6.60805 2.274 6.54729 2.13857C6.45604 1.93538 6.36883 1.75088 6.28563 1.58353C5.62085 0.244762 5.22386 0.000163408 5.22376 0.000163408C4.19889 0.815998 3.60743 2.05413 3.24082 3.31862" fill="url(#paint6_linear)"/>
<path d="M12.5261 31.6336C12.5258 31.6363 11.203 37.0954 4.23533 39.708C1.70224 40.6579 0.00232697 43.0517 0.00232697 45.7571C7.41673 44.8064 12.6288 43.462 12.5262 31.6336H12.5261Z" fill="url(#paint7_linear)"/>
<path d="M10.4136 26.8118C8.00778 30.5789 0.000383381 25.2361 0 25.2357V36.4599C1.00273 36.4284 1.92755 36.3597 2.78019 36.2611C3.20651 36.2116 3.61481 36.1549 4.00576 36.0914C4.13611 36.0704 4.26454 36.0484 4.39106 36.0259C4.64409 35.9807 4.88945 35.9328 5.12753 35.8824C5.48475 35.8068 5.82519 35.7254 6.14982 35.6393C6.36633 35.5818 6.57566 35.5224 6.77818 35.461C6.87949 35.4304 6.97898 35.3991 7.07693 35.3676C7.24715 35.3127 7.41134 35.2562 7.57149 35.1989C7.68775 35.1573 7.80219 35.1154 7.91318 35.0727C8.17733 34.9712 8.42701 34.8666 8.66298 34.7601C9.05633 34.5825 9.41172 34.3992 9.73242 34.2144C9.92478 34.1036 10.1048 33.9922 10.273 33.8812C10.3851 33.8073 10.492 33.7334 10.5939 33.6598C10.7976 33.5131 10.9814 33.368 11.1468 33.2268C11.2296 33.1561 11.3076 33.0864 11.3814 33.0181C11.4548 32.9501 11.5237 32.8835 11.5885 32.8183C11.5889 32.8178 11.5894 32.8173 11.5899 32.8169C11.5908 32.816 11.5915 32.8153 11.5924 32.8143C11.6399 32.7665 11.6845 32.7197 11.7276 32.6737C11.7726 32.6256 11.816 32.5782 11.8564 32.5324C11.883 32.5022 11.9087 32.4724 11.9335 32.4431C12.3793 31.9161 12.5238 31.5548 12.5239 31.5547H12.5244L12.5245 31.5542C12.6514 30.6612 12.8006 29.8728 12.9677 29.1759C13.0511 28.8274 13.139 28.5019 13.2308 28.1976C13.3684 27.7413 13.5148 27.3326 13.6677 26.9664C13.8209 26.6002 13.9806 26.2762 14.1452 25.9891C14.2549 25.7977 14.3667 25.6226 14.4801 25.4623C14.7069 25.1416 14.9399 24.8799 15.1744 24.6641C15.2917 24.5562 15.4094 24.4598 15.5269 24.373C15.6219 24.3031 15.7166 24.241 15.811 24.183C15.8919 24.1332 15.9725 24.0862 16.0525 24.0442C16.1682 23.9833 16.2828 23.9299 16.3959 23.8822C16.7913 23.7154 17.1669 23.6191 17.4981 23.5232C17.4981 23.5232 17.306 23.5035 16.98 23.5035C15.6961 23.5035 12.3321 23.8076 10.4136 26.8118" fill="url(#paint8_linear)"/>
<path d="M3.24082 3.31862C3.21475 3.40824 3.18973 3.49786 3.16596 3.58766C2.80626 4.94368 2.24882 7.31662 1.81838 8.65184C1.54081 9.5132 0.923182 10.6536 0 11.9079V25.2357C0.000383381 25.236 8.00778 30.5789 10.4136 26.8118C12.8193 23.0446 17.4981 23.5231 17.4981 23.5231C17.1669 23.619 16.7913 23.7154 16.3959 23.8821C16.7913 23.7155 17.1669 23.6191 17.4981 23.5232C20.8271 22.5588 20.6065 18.2446 20.6065 18.2446C20.6065 18.2446 21.1028 16.7876 20.6065 16.5697C20.4072 16.4822 20.2241 16.3876 20.054 16.2879C20.054 16.2879 20.0541 16.288 20.0542 16.288C21.6749 17.6508 16.6902 17.6955 13.2957 17.5816C8.91946 17.4348 5.10577 14.4581 4.02838 10.2138C4.0093 10.1388 3.991 10.0631 3.97346 9.98657C2.70888 4.48525 5.22357 0.000455757 5.22376 0.000168221C4.19889 0.816099 3.60743 2.05414 3.24082 3.31862V3.31862ZM20.054 16.2879C20.0539 16.2878 20.0539 16.2878 20.0538 16.2878C20.0538 16.2878 20.0539 16.2878 20.054 16.2879Z" fill="url(#paint9_linear)"/>
<path d="M3.97344 9.98637C3.99098 10.0628 4.00928 10.1385 4.02836 10.2135C5.10575 14.4579 8.91944 17.4346 13.2956 17.5814C16.6902 17.6952 21.6749 17.6506 20.0542 16.2878L20.0538 16.2875C19.9623 16.2338 19.8756 16.1783 19.792 16.1215C19.7879 16.1187 19.7841 16.116 19.78 16.1132C19.6981 16.0571 19.6201 15.9997 19.5453 15.941C19.5412 15.9385 19.5375 15.9362 19.5332 15.9338L19.5341 15.9322C17.9837 14.7055 17.96 12.9358 17.7726 12.0327C17.7708 12.0239 17.7689 12.0153 17.767 12.0066C17.7613 11.9802 17.7554 11.9548 17.7494 11.93C17.7467 11.919 17.744 11.9082 17.7412 11.8975C17.7355 11.8757 17.7295 11.8548 17.7235 11.8343C17.7203 11.8237 17.7172 11.8127 17.7138 11.8024C17.7073 11.7822 17.7004 11.7632 17.6934 11.7446C17.6902 11.736 17.6872 11.7271 17.6837 11.7189C17.6733 11.693 17.6622 11.6685 17.6503 11.6461C16.5159 9.51912 15.0263 8.6661 13.551 8.26489C13.4896 8.24822 13.4282 8.23221 13.3668 8.21707C13.0076 8.12812 12.6504 8.0641 12.3002 8.01282C12.2828 8.01023 12.2656 8.00764 12.2482 8.00515C12.1448 7.99039 12.0421 7.97659 11.9401 7.96365C11.9252 7.96183 11.9103 7.95991 11.8955 7.958C11.792 7.94506 11.6895 7.93279 11.5878 7.92109C11.5745 7.91956 11.561 7.91792 11.5477 7.91639C11.4455 7.9047 11.3444 7.89321 11.2446 7.88199C10.9475 7.84826 10.6607 7.81499 10.3881 7.77358C10.3017 7.76045 10.2169 7.74646 10.1334 7.73151C10.0638 7.71886 9.9954 7.70553 9.92811 7.69125C9.85383 7.67553 9.78119 7.65877 9.70978 7.64055C9.58873 7.60969 9.47189 7.57481 9.35985 7.53513C9.30694 7.51644 9.25518 7.49659 9.20448 7.4755C9.16844 7.46065 9.13289 7.44503 9.098 7.42883C9.05794 7.41024 9.01873 7.39078 8.9803 7.37037C8.89509 7.32532 8.81362 7.27576 8.73647 7.22103C8.68768 7.18653 8.64033 7.15021 8.595 7.11139C8.33976 6.89277 8.13936 6.60408 8.00776 6.21534C7.96405 6.06917 7.92073 5.92646 7.87789 5.787C7.83495 5.64755 7.79239 5.51144 7.75022 5.37841C7.69406 5.20148 7.63875 5.03213 7.58403 4.86641C7.39205 4.28549 7.2085 3.77089 7.03493 3.31831H7.03502C6.96592 3.13812 6.89844 2.96743 6.8325 2.80583C6.79953 2.72503 6.76704 2.64654 6.73484 2.57024C6.67062 2.41756 6.60803 2.2738 6.54727 2.13827C6.45602 1.93508 6.3688 1.75058 6.28561 1.58323C5.62083 0.244559 5.22384 -4.22901e-05 5.22374 -4.22901e-05C5.22355 -4.22901e-05 2.70885 4.48494 3.97344 9.98637" fill="url(#paint10_linear)"/>
<path d="M15.7609 14.3223L15.6487 14.447C15.5088 14.6025 15.4498 14.8141 15.4893 15.0195C15.5606 15.3897 15.7665 16.0065 16.3583 16.6597C16.6998 17.0369 17.3154 16.8762 17.4316 16.3809C17.5808 15.7456 17.5416 14.8953 16.6478 14.2279C16.5319 14.1413 16.3957 14.0996 16.2599 14.0996C16.0757 14.0996 15.8923 14.1764 15.7609 14.3223" fill="url(#paint11_linear)"/>
<defs>
<linearGradient id="paint0_linear" x1="92.4617" y1="22.7956" x2="145.64" y2="22.7956" gradientUnits="userSpaceOnUse">
<stop stop-color="#FF5739"/>
<stop offset="0.994382" stop-color="#FC7D66"/>
<stop offset="1" stop-color="#FC7D66"/>
</linearGradient>
<linearGradient id="paint1_linear" x1="92.4616" y1="25.5521" x2="145.64" y2="25.5521" gradientUnits="userSpaceOnUse">
<stop stop-color="#FF5739"/>
<stop offset="0.994382" stop-color="#FC7D66"/>
<stop offset="1" stop-color="#FC7D66"/>
</linearGradient>
<linearGradient id="paint2_linear" x1="92.4616" y1="25.5521" x2="145.64" y2="25.5521" gradientUnits="userSpaceOnUse">
<stop stop-color="#FF5739"/>
<stop offset="0.994382" stop-color="#FC7D66"/>
<stop offset="1" stop-color="#FC7D66"/>
</linearGradient>
<linearGradient id="paint3_linear" x1="92.4616" y1="22.7956" x2="145.64" y2="22.7956" gradientUnits="userSpaceOnUse">
<stop stop-color="#FF5739"/>
<stop offset="0.994382" stop-color="#FC7D66"/>
<stop offset="1" stop-color="#FC7D66"/>
</linearGradient>
<linearGradient id="paint4_linear" x1="21.7599" y1="17.5112" x2="21.7467" y2="17.5186" gradientUnits="userSpaceOnUse">
<stop stop-color="#FFDD61"/>
<stop offset="0.16292" stop-color="#FFDD61"/>
<stop offset="0.646031" stop-color="#FF6500"/>
<stop offset="1" stop-color="#FF6500"/>
</linearGradient>
<linearGradient id="paint5_linear" x1="0.561847" y1="24.5885" x2="27.3814" y2="24.5885" gradientUnits="userSpaceOnUse">
<stop stop-color="#FF5739"/>
<stop offset="0.994382" stop-color="#FC7D66"/>
<stop offset="1" stop-color="#FC7D66"/>
</linearGradient>
<linearGradient id="paint6_linear" x1="9.00224" y1="23.0826" x2="20.7797" y2="23.4584" gradientUnits="userSpaceOnUse">
<stop stop-color="#FFDD61"/>
<stop offset="0.0589443" stop-color="#FFDD61"/>
<stop offset="0.296265" stop-color="#FFDD61"/>
<stop offset="1" stop-color="#FFA500"/>
</linearGradient>
<linearGradient id="paint7_linear" x1="2.30529" y1="38.6954" x2="14.6313" y2="38.6954" gradientUnits="userSpaceOnUse">
<stop stop-color="#FF1A00"/>
<stop offset="1" stop-color="#FECB2B"/>
</linearGradient>
<linearGradient id="paint8_linear" x1="7.34319" y1="27.227" x2="24.1884" y2="7.49412" gradientUnits="userSpaceOnUse">
<stop stop-color="#FFDD61"/>
<stop offset="0.252185" stop-color="#FFDD61"/>
<stop offset="1" stop-color="#FF1A00"/>
</linearGradient>
<linearGradient id="paint9_linear" x1="9.28665" y1="14.1711" x2="21.0641" y2="14.547" gradientUnits="userSpaceOnUse">
<stop stop-color="#FFDD61"/>
<stop offset="0.0589443" stop-color="#FFDD61"/>
<stop offset="0.296265" stop-color="#FFDD61"/>
<stop offset="1" stop-color="#FFA500"/>
</linearGradient>
<linearGradient id="paint10_linear" x1="9.6303" y1="9.08036" x2="1.83605" y2="6.71846" gradientUnits="userSpaceOnUse">
<stop stop-color="#FFDD61"/>
<stop offset="0.0589443" stop-color="#FFDD61"/>
<stop offset="0.296265" stop-color="#FFDD61"/>
<stop offset="1" stop-color="#FF1A00"/>
</linearGradient>
<linearGradient id="paint11_linear" x1="18.4432" y1="14.3866" x2="12.4823" y2="17.8141" gradientUnits="userSpaceOnUse">
<stop stop-color="#FFDD61"/>
<stop offset="0.16292" stop-color="#FFDD61"/>
<stop offset="0.646031" stop-color="#FF6500"/>
<stop offset="1" stop-color="#FF6500"/>
</linearGradient>
</defs>
</svg>
