<svg width="138" height="54" viewBox="0 0 138 54" fill="none" xmlns="http://www.w3.org/2000/svg">
<path d="M75.3696 16.7783C77.2339 18.4206 78.166 20.8619 78.166 24.0134V40.3923H74.0824V25.4338C74.0824 22.7705 73.5053 20.8175 72.3513 19.619C71.1972 18.4206 69.688 17.8436 67.7794 17.8436C66.4414 17.8416 65.1206 18.1453 63.9177 18.7313C62.6733 19.3971 61.654 20.4165 60.9881 21.6609C60.1892 22.9925 59.8341 24.7236 59.8341 26.7654V40.3923H55.7061V15.5354L59.479 17.089L59.5678 18.7757C60.349 17.2812 61.5954 16.0815 63.1187 15.3579C64.6932 14.5907 66.4279 14.2103 68.1789 14.2482C71.0788 14.2482 73.4758 15.0915 75.3696 16.7783Z" fill="#000033"/>
<path d="M107.328 29.118H88.0197C88.2416 31.7369 89.1294 33.7343 90.5942 35.1547C92.0589 36.5751 94.012 37.3297 96.3645 37.3297C97.9875 37.3748 99.5986 37.0404 101.07 36.3532C102.247 35.7676 103.154 34.7499 103.6 33.5124L107.017 35.3323C106.087 37.0761 104.667 38.5106 102.934 39.4603C101.247 40.4368 99.0277 40.9251 96.3645 40.9251C92.5028 40.9251 89.4845 39.7266 87.2651 37.3741C85.0458 35.0215 83.9805 31.7369 83.9805 27.5645C83.9805 23.3921 85.0014 20.1518 87.132 17.7993C89.2625 15.4468 92.1921 14.2483 96.0538 14.2483C98.2338 14.1901 100.387 14.7436 102.268 15.8462C103.975 16.8679 105.347 18.3638 106.218 20.1518C107.123 22.05 107.578 24.1306 107.55 26.2329C107.542 27.1985 107.468 28.1626 107.328 29.118ZM90.5942 19.8411C89.2182 21.1727 88.3748 23.037 88.0641 25.4783H103.6C103.333 23.0814 102.534 21.2171 101.247 19.8855C99.9599 18.5539 98.2288 17.8437 96.0538 17.8437C93.8788 17.8437 91.9702 18.5095 90.5942 19.8411Z" fill="#000033"/>
<path d="M134.671 17.7995C136.89 20.152 138 23.3923 138 27.5647C138 31.7371 136.89 35.0218 134.671 37.3743C132.452 39.7268 129.433 40.9253 125.572 40.9253C121.71 40.9253 118.692 39.7268 116.472 37.3743C114.253 35.0218 113.188 31.7371 113.188 27.5647C113.188 23.3923 114.297 20.152 116.472 17.7995C118.647 15.447 121.71 14.2485 125.572 14.2485C129.433 14.2485 132.496 15.447 134.671 17.7995ZM119.49 20.4184C118.026 22.1495 117.271 24.5464 117.271 27.5647C117.271 30.5831 118.026 33.0243 119.49 34.7555C120.955 36.4866 122.997 37.3743 125.572 37.3743C128.146 37.3743 130.232 36.4866 131.697 34.7555C133.162 33.0243 133.872 30.6274 133.872 27.5647C133.872 24.502 133.162 22.1495 131.697 20.4184C130.232 18.6873 128.19 17.7995 125.572 17.7995C122.953 17.7995 120.955 18.6429 119.49 20.4184Z" fill="#000033"/>
<path d="M0 9.32133V44.9643L23.1702 53.2647V17.311L48.1602 8.12287L25.4783 0L0 9.32133Z" fill="#00E599"/>
<path d="M25.0342 18.6429V37.8626L48.1599 46.1186V10.0762L25.0342 18.6429Z" fill="#00AF92"/>
</svg>
