<svg width="192" height="26" viewBox="0 0 192 26" fill="none" xmlns="http://www.w3.org/2000/svg">
<mask id="mask0" mask-type="alpha" maskUnits="userSpaceOnUse" x="0" y="0" width="20" height="26">
<path d="M0 0.185059H19.2903V25.3252H0V0.185059Z" fill="white"/>
</mask>
<g mask="url(#mask0)">
<path fill-rule="evenodd" clip-rule="evenodd" d="M5.37721 4.45949V12.5874H10.7986C11.4065 12.5874 11.9076 12.5291 12.303 12.4124C12.6976 12.295 13.0111 12.1145 13.2446 11.87C13.4774 11.6258 13.6397 11.3063 13.7305 10.913C13.8213 10.5197 13.8672 8.14357 13.8672 7.6014C13.8672 7.05949 13.8267 6.58858 13.7457 6.18995C13.6646 5.79106 13.5074 5.46419 13.275 5.20908C13.0417 4.95398 12.7203 4.76506 12.3102 4.64283C11.8997 4.5206 11.3606 4.45949 10.6926 4.45949H5.37721ZM12.5305 0.185059C14.8596 0.185059 16.5683 0.798481 17.6572 2.02685C18.7457 3.25496 19.2903 5.87905 19.2903 8.32488C19.2903 10.8027 18.7228 13.7734 17.5886 14.9959C16.4545 16.219 14.7683 16.8304 12.5305 16.8304H5.37721V25.3252H0V0.185059H12.5305Z" fill="url(#paint0_linear)"/>
</g>
<path fill-rule="evenodd" clip-rule="evenodd" d="M31.8286 4.76586C30.9828 4.76586 30.268 4.82663 29.6847 4.94691C29.1011 5.06795 28.623 5.29851 28.2507 5.63911C27.8784 5.97996 27.6089 6.45934 27.4433 7.07827C27.277 7.6967 27.1938 9.19012 27.1938 10.1867V15.2038C27.1938 16.2004 27.277 17.6908 27.4433 18.3045C27.6089 18.9172 27.8784 19.3973 28.2507 19.7431C28.623 20.0892 29.1011 20.3231 29.6847 20.4431C30.268 20.5636 30.9828 20.6241 31.8286 20.6241H32.1728C33.0184 20.6241 33.7327 20.5636 34.3163 20.4431C34.9001 20.3231 35.3784 20.0922 35.7505 19.7516C36.1228 19.4105 36.3923 18.9309 36.5583 18.312C36.7242 17.6938 36.8071 16.2004 36.8071 15.2038V10.1551C36.8071 9.15862 36.7242 7.66819 36.5583 7.05476C36.3923 6.44134 36.1252 5.9642 35.758 5.62336C35.3907 5.28276 34.9126 5.05494 34.3242 4.93916C33.7354 4.82388 33.0184 4.76586 32.1728 4.76586H31.8286ZM21.7363 8.46242C21.7363 6.95249 21.9101 5.66237 22.2579 4.59331C22.6059 3.52351 23.1448 2.64826 23.876 1.96631C24.6062 1.28487 25.5385 0.786975 26.6725 0.472135C27.806 0.157295 29.1643 0 30.747 0H33.2849C34.8773 0 36.2404 0.155044 37.3744 0.464383C38.5086 0.773721 39.4376 1.26636 40.1637 1.9428C40.8891 2.619 41.4203 3.49475 41.7587 4.5693C42.0961 5.64436 42.2646 6.94223 42.2646 8.46242V16.2106C42.2646 17.7208 42.0933 19.6961 41.7508 20.7657C41.4082 21.8355 40.8739 22.7107 40.1485 23.3924C39.4227 24.0739 38.493 24.572 37.359 24.8866C36.2255 25.2017 34.867 25.3585 33.2849 25.3585H30.747C29.1643 25.3585 27.806 25.2017 26.6725 24.8866C25.5385 24.572 24.6062 24.0739 23.876 23.3924C23.1448 22.7107 22.6059 21.8355 22.2579 20.7657C21.9101 19.6961 21.7363 17.7208 21.7363 16.2106V8.46242Z" fill="url(#paint1_linear)"/>
<path fill-rule="evenodd" clip-rule="evenodd" d="M50.2499 19.5085H59.774V24.1509H44.6797V0H50.2499V19.5085Z" fill="url(#paint2_linear)"/>
<path fill-rule="evenodd" clip-rule="evenodd" d="M71.0734 4.76586C70.2276 4.76586 69.5133 4.82663 68.9294 4.94691C68.3459 5.06795 67.8678 5.29851 67.4955 5.63911C67.1229 5.97996 66.8542 6.45934 66.6877 7.07827C66.5218 7.6967 66.4389 9.19012 66.4389 10.1867V15.2038C66.4389 16.2004 66.5218 17.6908 66.6877 18.3045C66.8542 18.9172 67.1229 19.3973 67.4955 19.7431C67.8678 20.0892 68.3459 20.3231 68.9294 20.4431C69.5133 20.5636 70.2276 20.6241 71.0734 20.6241H71.4176C72.2629 20.6241 72.9775 20.5636 73.5613 20.4431C74.1449 20.3231 74.6229 20.0922 74.9955 19.7516C75.3675 19.4105 75.6367 18.9309 75.8028 18.312C75.9694 17.6938 76.0521 16.2004 76.0521 15.2038V10.1551C76.0521 9.15862 75.9694 7.66819 75.8028 7.05476C75.6367 6.44134 75.3699 5.9642 75.0027 5.62336C74.6354 5.28276 74.1576 5.05494 73.5685 4.93916C72.9799 4.82388 72.2629 4.76586 71.4176 4.76586H71.0734ZM60.9814 8.46242C60.9814 6.95249 61.155 5.66237 61.5028 4.59331C61.8508 3.52351 62.3897 2.64826 63.1206 1.96631C63.8513 1.28487 64.7833 0.786975 65.9173 0.472135C67.0511 0.157295 68.4093 0 69.9918 0H72.5297C74.122 0 75.4851 0.155044 76.6188 0.464383C77.753 0.773721 78.6825 1.26636 79.4081 1.9428C80.134 2.619 80.6654 3.49475 81.0033 4.5693C81.341 5.64436 81.5097 6.94223 81.5097 8.46242V16.2106C81.5097 17.7208 81.3379 19.6961 80.9954 20.7657C80.6529 21.8355 80.1188 22.7107 79.3932 23.3924C78.6673 24.0739 77.7379 24.572 76.6037 24.8866C75.4699 25.2017 74.1119 25.3585 72.5297 25.3585H69.9918C68.4093 25.3585 67.0511 25.2017 65.9173 24.8866C64.7833 24.572 63.8513 24.0739 63.1206 23.3924C62.3897 22.7107 61.8508 21.8355 61.5028 20.7657C61.155 19.6961 60.9814 17.7208 60.9814 16.2106V8.46242Z" fill="url(#paint3_linear)"/>
<path fill-rule="evenodd" clip-rule="evenodd" d="M85.1328 0H91.4215L100.532 16.488V0H105.661V24.1509H99.3727L90.2626 7.47849V24.1509H85.1328V0Z" fill="url(#paint4_linear)"/>
<path fill-rule="evenodd" clip-rule="evenodd" d="M109.283 24.1509H115.321V0H109.283V24.1509Z" fill="url(#paint5_linear)"/>
<path fill-rule="evenodd" clip-rule="evenodd" d="M131.014 19.4766C134.937 19.4766 138.521 17.6912 138.521 11.9456C138.521 6.19986 134.937 4.60933 131.014 4.60933H129.84V19.4766H131.014ZM124.378 0H131.374C138.795 0 143.699 3.53818 143.699 11.9456C143.699 20.3531 138.795 24.1509 131.701 24.1509H124.378V0Z" fill="url(#paint6_linear)"/>
<path fill-rule="evenodd" clip-rule="evenodd" d="M147.32 0H164.528V4.64246H152.914V9.58578H164.148V14.1978H152.914V19.5087H164.528V24.1509H147.32V0Z" fill="url(#paint7_linear)"/>
<path fill-rule="evenodd" clip-rule="evenodd" d="M185.428 10.2642L192 0H184.825L181.736 4.67687L185.428 10.2642Z" fill="url(#paint8_linear)"/>
<path fill-rule="evenodd" clip-rule="evenodd" d="M185.285 15.0942L181.736 20.3692L185.093 25.3584H192L185.285 15.0942Z" fill="url(#paint9_linear)"/>
<path fill-rule="evenodd" clip-rule="evenodd" d="M182.943 12.0755L173.939 24.1509H166.642L175.368 12.0979L167.039 0H174.368L182.943 12.0755Z" fill="url(#paint10_linear)"/>
<defs>
<linearGradient id="paint0_linear" x1="9.64516" y1="0.185059" x2="9.64516" y2="25.3252" gradientUnits="userSpaceOnUse">
<stop stop-color="#31A6A9"/>
<stop offset="1" stop-color="#198A8E"/>
</linearGradient>
<linearGradient id="paint1_linear" x1="32.0005" y1="0" x2="32.0005" y2="25.3585" gradientUnits="userSpaceOnUse">
<stop stop-color="#31A6A9"/>
<stop offset="1" stop-color="#198A8E"/>
</linearGradient>
<linearGradient id="paint2_linear" x1="52.2269" y1="0" x2="52.2269" y2="24.1509" gradientUnits="userSpaceOnUse">
<stop stop-color="#31A6A9"/>
<stop offset="1" stop-color="#198A8E"/>
</linearGradient>
<linearGradient id="paint3_linear" x1="71.2456" y1="0" x2="71.2456" y2="25.3585" gradientUnits="userSpaceOnUse">
<stop stop-color="#31A6A9"/>
<stop offset="1" stop-color="#198A8E"/>
</linearGradient>
<linearGradient id="paint4_linear" x1="95.397" y1="0" x2="95.397" y2="24.1509" gradientUnits="userSpaceOnUse">
<stop stop-color="#31A6A9"/>
<stop offset="1" stop-color="#198A8E"/>
</linearGradient>
<linearGradient id="paint5_linear" x1="112.302" y1="0" x2="112.302" y2="24.1509" gradientUnits="userSpaceOnUse">
<stop stop-color="#31A6A9"/>
<stop offset="1" stop-color="#198A8E"/>
</linearGradient>
<linearGradient id="paint6_linear" x1="134.038" y1="0" x2="134.038" y2="24.1509" gradientUnits="userSpaceOnUse">
<stop stop-color="#E6E7E7"/>
<stop offset="1" stop-color="#C9CACA"/>
</linearGradient>
<linearGradient id="paint7_linear" x1="155.924" y1="0" x2="155.924" y2="24.1509" gradientUnits="userSpaceOnUse">
<stop stop-color="#E6E7E7"/>
<stop offset="1" stop-color="#C9CACA"/>
</linearGradient>
<linearGradient id="paint8_linear" x1="186.868" y1="0" x2="186.868" y2="10.2642" gradientUnits="userSpaceOnUse">
<stop stop-color="#E6E7E7"/>
<stop offset="1" stop-color="#C9CACA"/>
</linearGradient>
<linearGradient id="paint9_linear" x1="186.868" y1="15.0942" x2="186.868" y2="25.3584" gradientUnits="userSpaceOnUse">
<stop stop-color="#E6E7E7"/>
<stop offset="1" stop-color="#C9CACA"/>
</linearGradient>
<linearGradient id="paint10_linear" x1="174.793" y1="0" x2="174.793" y2="24.1509" gradientUnits="userSpaceOnUse">
<stop stop-color="#E6E7E7"/>
<stop offset="1" stop-color="#C9CACA"/>
</linearGradient>
</defs>
</svg>
