<svg width="147" height="13" viewBox="0 0 147 13" fill="none" xmlns="http://www.w3.org/2000/svg">
<path d="M0.470118 10.6658C0.205677 10.4602 0 10.0782 0 9.69622C0 9.02043 0.528883 8.52093 1.20468 8.52093C1.52788 8.52093 1.76294 8.63846 1.93924 8.75599C2.82071 9.4024 3.79033 9.81375 4.93624 9.81375C5.99401 9.81375 6.61104 9.4024 6.61104 8.69722V8.66784C6.61104 8.02143 6.19968 7.66884 4.26045 7.16934C1.90986 6.58169 0.381971 5.9059 0.381971 3.58469V3.55531C0.381971 1.43977 2.08615 0.0294189 4.46612 0.0294189C5.87648 0.0294189 7.11054 0.382008 8.1683 1.0578C8.46213 1.2341 8.72657 1.58669 8.72657 2.08619C8.72657 2.76198 8.19769 3.26148 7.52189 3.26148C7.25745 3.26148 7.08116 3.20272 6.87548 3.08519C6.02339 2.58569 5.23006 2.29186 4.40736 2.29186C3.40836 2.29186 2.90886 2.7326 2.90886 3.32025V3.34963C2.90886 4.11357 3.40836 4.37801 5.43574 4.87751C7.81572 5.49454 9.13792 6.34663 9.13792 8.37402V8.4034C9.13792 10.7246 7.37498 12.0174 4.84809 12.0174C3.34959 12.0468 1.79233 11.5767 0.470118 10.6658Z" fill="black" fill-opacity="0.5"/>
<path d="M9.84303 1.85116C9.78426 1.70425 9.75488 1.52796 9.75488 1.38105C9.75488 0.67587 10.3425 0.117603 11.0771 0.117603C11.6647 0.117603 12.1642 0.499575 12.3405 1.02846L14.6617 8.19776L17.0123 1.08722C17.218 0.499575 17.6587 0.0588379 18.3052 0.0588379H18.5108C19.1572 0.0588379 19.6274 0.470193 19.8037 1.08722L22.1543 8.19776L24.4755 1.02846C24.6518 0.528958 25.0631 0.117603 25.7095 0.117603C26.4147 0.117603 26.973 0.646487 26.973 1.35166C26.973 1.49858 26.9142 1.70425 26.8848 1.85116L23.5646 11.0185C23.3295 11.6649 22.8594 12.0762 22.2424 12.0762H21.978C21.3609 12.0762 20.8908 11.6943 20.6557 11.0185L18.3639 4.31929L16.0721 11.0185C15.837 11.6943 15.3669 12.0762 14.7499 12.0762H14.4854C13.8684 12.0762 13.3689 11.6649 13.1632 11.0185L9.84303 1.85116Z" fill="black" fill-opacity="0.5"/>
<path d="M25.7389 10.2251L29.8232 1.02838C30.117 0.381971 30.6165 0 31.3217 0H31.4686C32.1737 0 32.6732 0.381971 32.9671 1.02838L37.0218 10.2251C37.11 10.4014 37.1687 10.5777 37.1687 10.754C37.1687 11.4297 36.6399 11.988 35.9641 11.988C35.3764 11.988 34.9651 11.6354 34.73 11.1065L33.9367 9.25545H28.7947L27.972 11.1653C27.7663 11.6648 27.3256 11.9586 26.7967 11.9586C26.1209 11.9586 25.6214 11.4297 25.6214 10.754C25.592 10.607 25.6508 10.4307 25.7389 10.2251ZM32.9671 6.99301L31.351 3.14392L29.735 6.99301H32.9671Z" fill="black" fill-opacity="0.5"/>
<path d="M38.344 1.4987C38.344 0.793521 38.9023 0.205872 39.6368 0.205872H43.1333C45.9247 0.205872 47.5994 1.85129 47.5994 4.26064V4.29002C47.5994 6.9932 45.4839 8.40356 42.8689 8.40356H40.9296V10.7248C40.9296 11.4299 40.3714 12.0176 39.6368 12.0176C38.9023 12.0176 38.344 11.4593 38.344 10.7248V1.4987ZM42.957 6.08235C44.2499 6.08235 44.9844 5.31841 44.9844 4.31941V4.29002C44.9844 3.14411 44.1911 2.52708 42.8983 2.52708H40.9003V6.11173H42.957V6.08235Z" fill="black" fill-opacity="0.5"/>
<path d="M59.9107 9.10852C60.7334 9.10852 61.3504 9.72555 61.3504 10.5189V10.5776C61.3504 11.371 60.7334 11.988 59.9107 11.988C59.088 11.988 58.4709 11.371 58.4709 10.5776V10.5483C58.4709 9.72555 59.088 9.10852 59.9107 9.10852Z" fill="black" fill-opacity="0.5"/>
<path d="M62.8782 1.4102C62.8782 0.705018 63.4364 0.117371 64.171 0.117371H64.4354C65.0525 0.117371 65.4344 0.411194 65.7576 0.881312L70.7233 7.4042V1.38081C70.7233 0.675635 71.2815 0.117371 71.9867 0.117371C72.6919 0.117371 73.2502 0.675635 73.2502 1.38081V10.695C73.2502 11.4002 72.6919 11.9879 71.9573 11.9879H71.8692C71.2522 11.9879 70.8702 11.694 70.547 11.2239L65.4051 4.46596V10.7244C65.4051 11.4296 64.8468 11.9879 64.1416 11.9879C63.4364 11.9879 62.8782 11.4296 62.8782 10.7244V1.4102Z" fill="black" fill-opacity="0.5"/>
<path d="M74.8074 10.6072V1.4987C74.8074 0.793521 75.3656 0.205872 76.1002 0.205872H82.5643C83.2107 0.205872 83.7102 0.734756 83.7102 1.35179C83.7102 1.9982 83.1814 2.4977 82.5643 2.4977H77.3636V4.87767H81.8298C82.4762 4.87767 82.9757 5.40656 82.9757 6.02359C82.9757 6.64062 82.4468 7.1695 81.8298 7.1695H77.3636V9.63762H82.6525C83.2989 9.63762 83.7984 10.1665 83.7984 10.7835C83.7984 11.4299 83.2695 11.9294 82.6525 11.9294H76.1002C75.3656 11.9001 74.8074 11.3124 74.8074 10.6072Z" fill="black" fill-opacity="0.5"/>
<path d="M88.294 2.58564H85.8259C85.1795 2.58564 84.6506 2.05675 84.6506 1.41034C84.6506 0.763928 85.1795 0.235046 85.8259 0.235046H93.3478C93.9942 0.235046 94.5231 0.763928 94.5231 1.41034C94.5231 2.05675 93.9942 2.58564 93.3478 2.58564H90.8797V10.7246C90.8797 11.4297 90.3214 12.0174 89.5869 12.0174C88.8523 12.0174 88.294 11.4591 88.294 10.7246V2.58564Z" fill="black" fill-opacity="0.5"/>
<path d="M95.2578 1.85116C95.1991 1.70425 95.1697 1.52796 95.1697 1.38105C95.1697 0.67587 95.7573 0.117603 96.4919 0.117603C97.0795 0.117603 97.579 0.499575 97.7553 1.02846L100.077 8.19776L102.427 1.08722C102.633 0.499575 103.074 0.0588379 103.72 0.0588379H103.926C104.572 0.0588379 105.042 0.470193 105.218 1.08722L107.569 8.19776L109.89 1.02846C110.067 0.528958 110.478 0.117603 111.124 0.117603C111.829 0.117603 112.388 0.646487 112.388 1.35166C112.388 1.49858 112.329 1.70425 112.3 1.85116L109.038 11.0479C108.803 11.6943 108.333 12.1056 107.716 12.1056H107.452C106.834 12.1056 106.364 11.7236 106.129 11.0479L103.837 4.34867L101.546 11.0479C101.311 11.7236 100.84 12.1056 100.223 12.1056H99.959C99.342 12.1056 98.8425 11.6943 98.6368 11.0479L95.2578 1.85116Z" fill="black" fill-opacity="0.5"/>
<path d="M112.123 6.08215V6.05277C112.123 2.73256 114.738 0 118.352 0C121.966 0 124.552 2.6738 124.552 6.02339V6.05277C124.552 9.37298 121.937 12.1055 118.323 12.1055C114.709 12.0762 112.123 9.40236 112.123 6.08215ZM121.849 6.08215V6.05277C121.849 4.05477 120.38 2.37997 118.323 2.37997C116.266 2.37997 114.826 4.02539 114.826 6.02339V6.05277C114.826 8.05077 116.296 9.72557 118.352 9.72557C120.409 9.72557 121.849 8.08016 121.849 6.08215Z" fill="black" fill-opacity="0.5"/>
<path d="M125.992 1.4987C125.992 0.793521 126.55 0.205872 127.285 0.205872H131.339C132.838 0.205872 133.984 0.617227 134.748 1.38117C135.394 2.02758 135.747 2.93844 135.747 4.05497V4.08435C135.747 5.93544 134.836 7.05197 133.396 7.63962L135.188 9.81391C135.453 10.1371 135.6 10.4016 135.6 10.8129C135.6 11.5181 135.012 11.9882 134.395 11.9882C133.807 11.9882 133.425 11.6944 133.132 11.3124L130.634 8.13912H128.577V10.6954C128.577 11.4006 128.019 11.9882 127.285 11.9882C126.55 11.9882 125.992 11.4299 125.992 10.6954V1.4987ZM131.163 5.87667C132.426 5.87667 133.132 5.20088 133.132 4.23126V4.20188C133.132 3.08535 132.368 2.52708 131.104 2.52708H128.548V5.87667H131.163Z" fill="black" fill-opacity="0.5"/>
<path d="M137.245 1.38078C137.245 0.675598 137.803 0.0879517 138.538 0.0879517C139.272 0.0879517 139.831 0.646215 139.831 1.38078V5.31802L144.561 0.616833C144.884 0.293628 145.208 0.117334 145.648 0.117334C146.354 0.117334 146.824 0.675598 146.824 1.29263C146.824 1.70398 146.647 1.99781 146.354 2.26225L143.063 5.3474L146.647 9.8429C146.853 10.1073 147 10.3718 147 10.7538C147 11.4589 146.442 12.0172 145.707 12.0172C145.208 12.0172 144.914 11.7528 144.62 11.4002L141.27 7.02219L139.801 8.40317V10.7538C139.801 11.4589 139.243 12.0466 138.508 12.0466C137.774 12.0466 137.216 11.4883 137.216 10.7538V1.38078H137.245Z" fill="black" fill-opacity="0.5"/>
<path d="M53.9402 4.83684C53.2897 4.66713 52.8087 4.52568 52.4411 4.41256L51.9037 5.4874L50.0085 1.86685L54.0533 1.21628L53.5159 2.31941C54.1382 2.40427 54.7606 2.65884 55.3829 3.05483C55.5806 3.16798 55.7787 3.22454 56.0334 3.22454C56.6839 3.22454 57.2213 2.71541 57.2213 2.03656C57.2213 1.52742 56.9384 1.18799 56.6557 1.01828C55.6091 0.367712 54.3927 0 52.9785 0C50.5742 0 48.9052 1.38599 48.9052 3.50741V3.5357C48.9052 5.85512 50.4043 6.50567 52.7523 7.09967C53.431 7.26938 53.912 7.43909 54.2514 7.58054L54.7606 6.56223L56.6557 10.1828L52.6106 10.8334L53.1766 9.70195C52.13 9.64536 51.2247 9.27767 50.4043 8.65538C50.2348 8.54222 50.0085 8.4291 49.6689 8.4291C49.0184 8.4291 48.481 8.93824 48.481 9.61709C48.481 10.0131 48.679 10.3808 48.9619 10.5788C50.263 11.5122 51.7903 11.9648 53.3179 11.9648C55.8354 11.9648 57.5889 10.6637 57.5889 8.37251V8.34425C57.6174 6.30766 56.2879 5.4591 53.9402 4.83684Z" fill="#FCD600"/>
</svg>
