<svg width="501" height="42" viewBox="0 0 501 42" fill="none" xmlns="http://www.w3.org/2000/svg">
<path d="M1.6 36.3001C0.7 35.6001 0 34.3001 0 33.0001C0 30.7001 1.8 29.0001 4.1 29.0001C5.2 29.0001 6 29.4001 6.6 29.8001C9.6 32.0001 12.9 33.4001 16.8 33.4001C20.4 33.4001 22.5 32.0001 22.5 29.6001V29.5001C22.5 27.3001 21.1 26.1001 14.5 24.4001C6.5 22.4001 1.3 20.1001 1.3 12.2001V12.1001C1.3 4.9001 7.1 0.100098 15.2 0.100098C20 0.100098 24.2 1.3001 27.8 3.6001C28.8 4.2001 29.7 5.4001 29.7 7.1001C29.7 9.4001 27.9 11.1001 25.6 11.1001C24.7 11.1001 24.1 10.9001 23.4 10.5001C20.5 8.8001 17.8 7.8001 15 7.8001C11.6 7.8001 9.9 9.3001 9.9 11.3001V11.4001C9.9 14.0001 11.6 14.9001 18.5 16.6001C26.6 18.7001 31.1 21.6001 31.1 28.5001V28.6001C31.1 36.5001 25.1 40.9001 16.5 40.9001C11.4 41.0001 6.1 39.4001 1.6 36.3001Z" fill="#525252"/>
<path d="M33.5002 6.3002C33.3002 5.8002 33.2002 5.2002 33.2002 4.7002C33.2002 2.3002 35.2002 0.400195 37.7002 0.400195C39.7002 0.400195 41.4002 1.7002 42.0002 3.5002L49.9002 27.9002L57.9002 3.7002C58.6002 1.7002 60.1002 0.200195 62.3002 0.200195H63.0002C65.2002 0.200195 66.8002 1.6002 67.4002 3.7002L75.4002 27.9002L83.3002 3.5002C83.9002 1.8002 85.3002 0.400195 87.5002 0.400195C89.9002 0.400195 91.8002 2.2002 91.8002 4.6002C91.8002 5.1002 91.6002 5.8002 91.5002 6.3002L80.2002 37.5002C79.4002 39.7002 77.8002 41.1002 75.7002 41.1002H74.8002C72.7002 41.1002 71.1002 39.8002 70.3002 37.5002L62.5002 14.7002L54.7002 37.5002C53.9002 39.8002 52.3002 41.1002 50.2002 41.1002H49.3002C47.2002 41.1002 45.5002 39.7002 44.8002 37.5002L33.5002 6.3002Z" fill="#525252"/>
<path d="M87.5998 34.8L101.5 3.5C102.5 1.3 104.2 0 106.6 0H107.1C109.5 0 111.2 1.3 112.2 3.5L126 34.8C126.3 35.4 126.5 36 126.5 36.6C126.5 38.9 124.7 40.8 122.4 40.8C120.4 40.8 119 39.6 118.2 37.8L115.5 31.5H97.9998L95.1998 38C94.4998 39.7 92.9998 40.7 91.1998 40.7C88.8998 40.7 87.1998 38.9 87.1998 36.6C87.0998 36.1 87.2998 35.5 87.5998 34.8ZM112.2 23.8L106.7 10.7L101.2 23.8H112.2Z" fill="#525252"/>
<path d="M130.5 5.1002C130.5 2.7002 132.4 0.700195 134.9 0.700195H146.8C156.3 0.700195 162 6.3002 162 14.5002V14.6002C162 23.8002 154.8 28.6002 145.9 28.6002H139.3V36.5002C139.3 38.9002 137.4 40.9002 134.9 40.9002C132.4 40.9002 130.5 39.0002 130.5 36.5002V5.1002ZM146.2 20.7002C150.6 20.7002 153.1 18.1002 153.1 14.7002V14.6002C153.1 10.7002 150.4 8.6002 146 8.6002H139.2V20.8002H146.2V20.7002Z" fill="#525252"/>
<path d="M203.9 31C206.7 31 208.8 33.1 208.8 35.8V36C208.8 38.7 206.7 40.8 203.9 40.8C201.1 40.8 199 38.7 199 36V35.9C199 33.1 201.1 31 203.9 31Z" fill="#525252"/>
<path d="M214 4.7999C214 2.3999 215.9 0.399902 218.4 0.399902H219.3C221.4 0.399902 222.7 1.3999 223.8 2.9999L240.7 25.1999V4.6999C240.7 2.2999 242.6 0.399902 245 0.399902C247.4 0.399902 249.3 2.2999 249.3 4.6999V36.3999C249.3 38.7999 247.4 40.7999 244.9 40.7999H244.6C242.5 40.7999 241.2 39.7999 240.1 38.1999L222.6 15.1999V36.4999C222.6 38.8999 220.7 40.7999 218.3 40.7999C215.9 40.7999 214 38.8999 214 36.4999V4.7999Z" fill="#525252"/>
<path d="M254.6 36.1002V5.1002C254.6 2.7002 256.5 0.700195 259 0.700195H281C283.2 0.700195 284.9 2.5002 284.9 4.6002C284.9 6.8002 283.1 8.5002 281 8.5002H263.3V16.6002H278.5C280.7 16.6002 282.4 18.4002 282.4 20.5002C282.4 22.6002 280.6 24.4002 278.5 24.4002H263.3V32.8002H281.3C283.5 32.8002 285.2 34.6002 285.2 36.7002C285.2 38.9002 283.4 40.6002 281.3 40.6002H259C256.5 40.5002 254.6 38.5002 254.6 36.1002Z" fill="#525252"/>
<path d="M300.5 8.7998H292.1C289.9 8.7998 288.1 6.9998 288.1 4.7998C288.1 2.5998 289.9 0.799805 292.1 0.799805H317.7C319.9 0.799805 321.7 2.5998 321.7 4.7998C321.7 6.9998 319.9 8.7998 317.7 8.7998H309.3V36.4998C309.3 38.8998 307.4 40.8998 304.9 40.8998C302.4 40.8998 300.5 38.9998 300.5 36.4998V8.7998Z" fill="#525252"/>
<path d="M324.2 6.3002C324 5.8002 323.9 5.2002 323.9 4.7002C323.9 2.3002 325.9 0.400195 328.4 0.400195C330.4 0.400195 332.1 1.7002 332.7 3.5002L340.6 27.9002L348.6 3.7002C349.3 1.7002 350.8 0.200195 353 0.200195H353.7C355.9 0.200195 357.5 1.6002 358.1 3.7002L366.1 27.9002L374 3.5002C374.6 1.8002 376 0.400195 378.2 0.400195C380.6 0.400195 382.5 2.2002 382.5 4.6002C382.5 5.1002 382.3 5.8002 382.2 6.3002L371.1 37.6002C370.3 39.8002 368.7 41.2002 366.6 41.2002H365.7C363.6 41.2002 362 39.9002 361.2 37.6002L353.4 14.8002L345.6 37.6002C344.8 39.9002 343.2 41.2002 341.1 41.2002H340.2C338.1 41.2002 336.4 39.8002 335.7 37.6002L324.2 6.3002Z" fill="#525252"/>
<path d="M381.6 20.7V20.6C381.6 9.3 390.5 0 402.8 0C415.1 0 423.9 9.1 423.9 20.5V20.6C423.9 31.9 415 41.2 402.7 41.2C390.4 41.1 381.6 32 381.6 20.7ZM414.7 20.7V20.6C414.7 13.8 409.7 8.1 402.7 8.1C395.7 8.1 390.8 13.7 390.8 20.5V20.6C390.8 27.4 395.8 33.1 402.8 33.1C409.8 33.1 414.7 27.5 414.7 20.7Z" fill="#525252"/>
<path d="M428.8 5.1002C428.8 2.7002 430.7 0.700195 433.2 0.700195H447C452.1 0.700195 456 2.1002 458.6 4.7002C460.8 6.9002 462 10.0002 462 13.8002V13.9002C462 20.2002 458.9 24.0002 454 26.0002L460.1 33.4002C461 34.5002 461.5 35.4002 461.5 36.8002C461.5 39.2002 459.5 40.8002 457.4 40.8002C455.4 40.8002 454.1 39.8002 453.1 38.5002L444.6 27.7002H437.6V36.4002C437.6 38.8002 435.7 40.8002 433.2 40.8002C430.7 40.8002 428.8 38.9002 428.8 36.4002V5.1002ZM446.4 20.0002C450.7 20.0002 453.1 17.7002 453.1 14.4002V14.3002C453.1 10.5002 450.5 8.6002 446.2 8.6002H437.5V20.0002H446.4Z" fill="#525252"/>
<path d="M467.1 4.6998C467.1 2.2998 469 0.299805 471.5 0.299805C474 0.299805 475.9 2.1998 475.9 4.6998V18.0998L492 2.0998C493.1 0.999805 494.2 0.399805 495.7 0.399805C498.1 0.399805 499.7 2.2998 499.7 4.3998C499.7 5.7998 499.1 6.7998 498.1 7.6998L486.9 18.1998L499.1 33.4998C499.8 34.3998 500.3 35.2998 500.3 36.5998C500.3 38.9998 498.4 40.8998 495.9 40.8998C494.2 40.8998 493.2 39.9998 492.2 38.7998L480.8 23.8998L475.8 28.5998V36.5998C475.8 38.9998 473.9 40.9998 471.4 40.9998C468.9 40.9998 467 39.0998 467 36.5998V4.6998H467.1Z" fill="#525252"/>
<path d="M183.58 16.4617C181.366 15.8841 179.729 15.4027 178.478 15.0177L176.649 18.6758L170.199 6.35362L183.965 4.13948L182.136 7.89389C184.254 8.18269 186.372 9.0491 188.49 10.3968C189.163 10.7819 189.837 10.9744 190.704 10.9744C192.918 10.9744 194.747 9.24163 194.747 6.93122C194.747 5.19842 193.784 4.04321 192.822 3.46561C189.26 1.25147 185.12 0 180.307 0C172.124 0 166.444 4.71708 166.444 11.9371V12.0334C166.444 19.9273 171.546 22.1414 179.537 24.163C181.847 24.7406 183.484 25.3182 184.639 25.7996L186.372 22.3339L192.822 34.6561L179.055 36.8703L180.981 33.0196C177.419 32.827 174.338 31.5756 171.546 29.4577C170.969 29.0726 170.199 28.6876 169.043 28.6876C166.829 28.6876 165 30.4204 165 32.7308C165 34.0785 165.674 35.33 166.637 36.0039C171.065 39.1807 176.263 40.7209 181.462 40.7209C190.03 40.7209 195.998 36.2927 195.998 28.495V28.3988C196.095 21.4675 191.57 18.5795 183.58 16.4617Z" fill="#F8DB14"/>
</svg>
