<svg width="116" height="24" viewBox="0 0 116 24" xmlns="http://www.w3.org/2000/svg"><title>waves_logo</title><g fill="none" fill-rule="evenodd"><path fill="#05F" d="M115.989 6.122l-6.046 6.034-6.045-6.034 6.045-6.034z"/><g fill="#000"><path d="M27.045 6.351h-3.411l-.357.308-3.5 11.831h-.023L15.83 6.66l-.357-.308h-3.567l-.357.308-3.902 11.765-.066-.044-.023-.021-3.5-11.7-.358-.31H.223L0 6.66l5.462 16.66.38.33h3.433l.38-.33 3.9-11.919h.09l3.924 11.92.38.329h3.477l.38-.33 5.462-16.66zm38.594 0h-3.434l-.379.308-4.793 12.314-.045.022L52.24 6.66l-.379-.308h-3.5l-.223.308 6.844 16.66.402.33h3.166l.401-.33 6.912-16.66z"/><path d="M83.342 15.922l.334-.307v-.505c0-2.7-.78-5.027-2.319-6.651C79.82 6.834 77.745 6 75.204 6c-2.453 0-4.504.9-6.087 2.656-1.583 1.756-2.363 3.885-2.363 6.3 0 2.568.825 4.72 2.452 6.41 1.628 1.69 3.768 2.546 6.354 2.546 1.873 0 3.479-.439 4.772-1.339 1.293-.878 2.653-2.327 3.121-4.302l-.245-.33h-3.21l-.447.33c-.802 1.58-2.028 2.327-4.057 2.327a5.024 5.024 0 0 1-3.479-1.361c-.936-.857-1.471-1.888-1.605-3.359l12.932.044zm-12.709-3.073c.558-2.042 2.297-3.556 4.57-3.556 3.01 0 4.26 2.107 4.616 3.556h-9.186zm-28.07-6.498l-.335.33v1.712l-.067.066c-.446-.571-1.048-1.076-1.761-1.493a10.537 10.537 0 0 0-.513-.264c-.959-.46-2.051-.68-3.233-.68-2.207 0-4.147.878-5.752 2.59-1.605 1.712-2.408 3.864-2.408 6.388s.803 4.676 2.408 6.388c1.605 1.712 3.545 2.59 5.752 2.59 1.182 0 2.252-.22 3.21-.68.18-.088.38-.176.558-.286.691-.417 1.271-.878 1.717-1.427.022-.022.09.022.112 0v1.778l.334.33h2.92l.335-.33V6.66l-.334-.33h-2.943v.022zm-1.806 12.776c-.981 1.032-2.163 1.536-3.59 1.536-1.382 0-2.408-.504-3.411-1.558-1.003-1.032-1.494-2.415-1.494-4.149 0-1.712.513-3.095 1.494-4.149 1.003-1.031 2.006-1.558 3.411-1.558 1.405 0 2.586.505 3.59 1.536.646.68 1.07 1.493 1.315 2.48v3.337c-.223 1.032-.669 1.866-1.315 2.525z" fill-rule="nonzero"/><path d="M95.716 13.639s-1.918-.395-3.5-.746c-1.45-.33-2.186-.747-2.186-1.756 0-1.076 1.048-1.976 3.3-1.976 2.208 0 3.434.966 3.434 1.822l.379.33h3.21l.246-.308c0-2.261-1.985-4.961-7.18-4.961-5.417 0-7.112 3.139-7.112 5.158 0 1.69.624 3.688 4.771 4.632l3.568.79c1.806.396 2.564 1.01 2.564 2.042 0 .944-.959 2.085-3.456 2.085-2.319 0-3.724-1.097-3.79-2.392l-.402-.33h-3.277l-.245.33c.29 2.897 2.474 5.619 7.692 5.619 5.908 0 7.112-3.556 7.112-5.422 0-2.502-1.45-4.127-5.128-4.917z"/></g></g></svg>