<svg width="147" height="31" viewBox="0 0 147 31" fill="none" xmlns="http://www.w3.org/2000/svg">
<path fill-rule="evenodd" clip-rule="evenodd" d="M147 7.64726L139.337 15.2945L131.676 7.64726L139.337 0L147 7.64726Z" fill="#105CFB"/>
<path fill-rule="evenodd" clip-rule="evenodd" d="M34.2758 7.93755H29.9528L29.5004 8.32789L25.0646 23.322H25.0355L20.0623 8.32916L19.6099 7.93881H15.0892L14.6368 8.32916L9.69151 23.2397L9.60787 23.1839L9.57872 23.1573L5.14295 8.32916L4.68924 7.93628H0.282622L0 8.32916L6.92233 29.4434L7.40393 29.8616H11.7548L12.2364 29.4434L17.1791 14.3377H17.2932L22.2663 29.4447L22.7479 29.8616H27.1545L27.6361 29.4434L34.5584 8.32916L34.2758 7.93755ZM83.1884 7.93755H78.8362L78.3559 8.32789L72.2814 23.9342L72.2244 23.9621L66.207 8.32916L65.7266 7.93881H61.2909L61.0083 8.32916L69.6821 29.4434L70.1916 29.8616H74.204L74.7122 29.4434L83.4722 8.32916L83.1884 7.93755Z" fill="black"/>
<path d="M105.625 20.0674L106.048 19.6784V19.0383C106.048 15.6165 105.059 12.6673 103.109 10.6091C101.161 8.54965 98.5311 7.49268 95.3108 7.49268C92.2019 7.49268 89.6026 8.6333 87.5963 10.8588C85.5901 13.0843 84.6016 15.7825 84.6016 18.8432C84.6016 22.0978 85.6471 24.8251 87.7091 26.967C89.7724 29.1088 92.4845 30.1937 95.7619 30.1937C98.1357 30.1937 100.171 29.6373 101.81 28.4967C103.448 27.3839 105.172 25.5475 105.765 23.0445L105.455 22.6262H101.386L100.82 23.0445C99.8036 25.0469 98.2498 25.9936 95.6783 25.9936C94.0415 26.0068 92.4625 25.3891 91.2691 24.2687C90.0829 23.1826 89.4049 21.876 89.235 20.0117L105.625 20.0674V20.0674ZM89.5177 16.1728C90.2248 13.5849 92.4288 11.6661 95.3095 11.6661C99.1243 11.6661 100.708 14.3364 101.16 16.1728H89.5177V16.1728ZM53.9428 7.93752L53.5182 8.35575V10.5255L53.4333 10.6091C52.8681 9.88545 52.1051 9.24544 51.2015 8.71695C50.9879 8.59951 50.7711 8.48794 50.5514 8.38236C49.336 7.79938 47.952 7.52056 46.454 7.52056C43.6569 7.52056 41.1982 8.6333 39.1641 10.803C37.13 12.9727 36.1123 15.7001 36.1123 18.8989C36.1123 22.0978 37.13 24.8251 39.1641 26.9948C41.1982 29.1646 43.6569 30.2773 46.454 30.2773C47.952 30.2773 49.3081 29.9985 50.5222 29.4155C50.7503 29.304 51.0038 29.1924 51.2294 29.053C52.1051 28.5245 52.8402 27.9403 53.4055 27.2445C53.4333 27.2166 53.5195 27.2724 53.5474 27.2445V29.4979L53.9707 29.9161H57.6714L58.096 29.4979V8.32913L57.6727 7.91091H53.9428V7.93879V7.93752ZM51.654 24.1293C50.4107 25.4373 48.9127 26.076 47.1041 26.076C45.3526 26.076 44.0523 25.4372 42.7812 24.1014C41.51 22.7935 40.8877 21.0408 40.8877 18.8432C40.8877 16.6734 41.5379 14.9207 42.7812 13.5849C44.0523 12.2782 45.3235 11.6103 47.1041 11.6103C48.8848 11.6103 50.3815 12.2504 51.654 13.557C52.4727 14.4188 53.01 15.4492 53.3205 16.7001V20.9292C53.0379 22.2372 52.4727 23.2941 51.654 24.1293V24.1293Z" fill="black"/>
<path fill-rule="evenodd" clip-rule="evenodd" d="M121.307 17.174C121.307 17.174 118.876 16.6733 116.871 16.2285C115.033 15.8103 114.101 15.2818 114.101 14.003C114.101 12.6393 115.429 11.4987 118.283 11.4987C121.081 11.4987 122.635 12.723 122.635 13.8078L123.115 14.2261H127.184L127.495 13.8357C127.495 10.9702 124.98 7.54834 118.396 7.54834C111.531 7.54834 109.382 11.5266 109.382 14.0854C109.382 16.2272 110.173 18.7594 115.429 19.9558L119.951 20.957C122.24 21.4589 123.2 22.2371 123.2 23.545C123.2 24.7414 121.985 26.1874 118.82 26.1874C115.881 26.1874 114.101 24.7971 114.017 23.1559L113.508 22.7377H109.354L109.044 23.1559C109.411 26.8274 112.179 30.2772 118.792 30.2772C126.28 30.2772 127.806 25.7705 127.806 23.4056C127.806 20.2346 125.968 18.1752 121.307 17.174V17.174Z" fill="black"/>
</svg>
