<svg width="29" height="26" viewBox="0 0 29 26" fill="none" xmlns="http://www.w3.org/2000/svg">
<path d="M13.8289 8.71354V6.58594H15.9565V8.71354H19.6798V10.9638H19.1479H13.8289H12.557C12.0298 10.9638 11.5449 11.2526 11.2938 11.7162L11.2742 11.7525C11.0444 12.1766 11.0557 12.6906 11.3039 13.1042C11.5505 13.5151 11.9946 13.7666 12.4738 13.7666H14.3608H16.0383C16.8561 13.7666 17.6598 13.98 18.3698 14.3857L18.6272 14.5328C18.9712 14.7294 19.275 14.9893 19.5226 15.2987C19.9687 15.8563 20.2117 16.5492 20.2117 17.2633V17.4899V17.8488C20.2117 18.3124 20.1038 18.7695 19.8965 19.1841C19.753 19.4711 19.5641 19.7332 19.3372 19.9601L19.3055 19.9918C18.6938 20.6035 17.864 20.9472 16.9989 20.9472H15.9565V23.3408H13.8289V20.9472H9.57373V19.0856H16.4323C16.9658 19.0856 17.464 18.8189 17.76 18.375C18.1173 17.839 18.1173 17.1407 17.76 16.6047C17.464 16.1608 16.9658 15.8942 16.4323 15.8942H12.0399C11.6406 15.8942 11.2449 15.818 10.8741 15.6697C10.3704 15.4682 9.9275 15.1396 9.58862 14.716L9.5705 14.6934C9.22383 14.26 8.99393 13.7451 8.9027 13.1978L8.87965 13.0595C8.81094 12.6472 8.81094 12.2264 8.87965 11.8142L8.88995 11.7524C8.98954 11.1549 9.24052 10.5928 9.61895 10.1197C9.93958 9.71894 10.3434 9.39251 10.8024 9.16298L10.8747 9.12684C11.4183 8.85504 12.0177 8.71354 12.6255 8.71354H13.8289Z" fill="white"/>
<path fill-rule="evenodd" clip-rule="evenodd" d="M2.61591 6.02504L4.64475 3.85135C5.09353 3.37053 5.58921 2.93573 6.12442 2.55344C6.82596 2.05235 7.59008 1.64525 8.39731 1.34254L9.30885 1.00071L10.558 0.584346C11.3188 0.330735 12.1043 0.158211 12.9014 0.0696462C13.6956 -0.018596 14.4968 -0.0229984 15.2919 0.0565118L15.7168 0.0989956C16.4083 0.16815 17.0939 0.287481 17.7682 0.456043C18.5102 0.64156 19.2363 0.886144 19.9393 1.18745L20.7447 1.53261L20.8029 1.56587C22.0029 2.25157 23.1403 3.04137 24.202 3.92616L25.5318 5.25591L25.5649 5.29564C26.4248 6.32749 27.1303 7.4787 27.6594 8.71326L28.1913 10.309L28.4481 11.2078C28.6312 11.8485 28.7602 12.5035 28.8338 13.1658C28.937 14.0948 28.9306 15.0327 28.8146 15.9602L28.7232 16.6918L28.3532 18.4185C28.0697 19.7411 27.5781 21.0104 26.8965 22.1788C26.3436 23.1266 25.6709 23.9993 24.895 24.7752L23.6701 26L21.8085 23.8724L22.6625 22.9116C23.5071 21.9615 24.2092 20.8937 24.7468 19.7417L24.9084 19.3954C25.4961 18.136 25.8422 16.7776 25.9289 15.3906C26.0179 13.9665 25.8317 12.5385 25.3805 11.1848L25.2793 10.8812C24.9179 9.79696 24.3918 8.77476 23.7196 7.85045C22.9827 6.83721 22.0802 5.95548 21.0501 5.24234L20.972 5.18827C19.7674 4.35428 18.4169 3.7539 16.9906 3.41832L16.6901 3.34761C15.3273 3.02694 13.904 2.96577 12.5181 3.16376C11.4544 3.31571 10.409 3.62299 9.43343 4.07324C8.12195 4.67854 6.94152 5.53452 5.95864 6.59298L5.00625 7.6186L7.4466 9.2455L0 12.4369L0.26595 4.4584L2.61591 6.02504Z" fill="white"/>
</svg>
