<svg width="26" height="26" viewBox="0 0 26 26" fill="none" xmlns="http://www.w3.org/2000/svg">
<path d="M23.4104 8.00776C23.6447 7.77344 23.6447 7.39356 23.4104 7.15925L20.863 4.61176C20.674 4.42277 20.3509 4.55662 20.3509 4.82389V6.771H7.3138C6.86507 6.771 6.5013 7.13477 6.5013 7.5835C6.5013 8.03223 6.86507 8.396 7.3138 8.396H20.3509V10.3431C20.3509 10.6104 20.674 10.7443 20.863 10.5553L23.4104 8.00776ZM5.65175 15.6573C5.65175 15.39 5.3286 15.2561 5.13962 15.4451L2.59221 17.9926C2.35791 18.2269 2.35791 18.6068 2.59221 18.8411L5.13962 21.3886C5.32861 21.5776 5.65175 21.4438 5.65175 21.1765V19.2294H18.6888C19.1375 19.2294 19.5013 18.8656 19.5013 18.4169C19.5013 17.9681 19.1375 17.6044 18.6888 17.6044H5.65175V15.6573Z" fill="#00e28e"/>
</svg>
