<svg width="18" height="19" viewBox="0 0 18 19" fill="none" xmlns="http://www.w3.org/2000/svg">
  <g clip-path="url(#clip0_798:5661)">
    <path fill-rule="evenodd" clip-rule="evenodd" d="M2.25 6.00437H13.0162L11.565 7.45563C11.3625 7.66937 11.2387 7.95062 11.2387 8.25437C11.2387 8.87313 11.745 9.37937 12.3638 9.37937C12.6788 9.37937 12.96 9.25562 13.1625 9.05313L16.5262 5.67813C16.7288 5.47563 16.8525 5.19438 16.8525 4.87937C16.8525 4.56437 16.7288 4.28313 16.5262 4.08063L13.1625 0.705625C12.9487 0.514375 12.6675 0.390625 12.3638 0.390625C11.745 0.390625 11.2387 0.896875 11.2387 1.51562C11.2387 1.83062 11.3625 2.11188 11.565 2.31438L13.0162 3.76562H2.25C1.63125 3.76562 1.125 4.27187 1.125 4.89062C1.13625 5.50938 1.63125 6.00437 2.25 6.00437ZM15.75 12.7769H4.98375L6.435 11.3256C6.6375 11.1119 6.76125 10.8306 6.76125 10.5269C6.76125 9.90812 6.255 9.40188 5.63625 9.40188C5.32125 9.40188 5.04 9.52563 4.8375 9.72812L1.47375 13.1031C1.27125 13.3056 1.1475 13.5869 1.1475 13.8906C1.1475 14.2056 1.27125 14.4869 1.47375 14.6894L4.8375 18.0644C5.05125 18.2669 5.3325 18.3906 5.63625 18.3906C6.255 18.3906 6.76125 17.8844 6.76125 17.2656C6.76125 16.9506 6.6375 16.6694 6.435 16.4669L4.98375 15.0156H15.75C16.3687 15.0156 16.875 14.5094 16.875 13.8906C16.875 13.2719 16.3687 12.7769 15.75 12.7769Z" fill="#4AA956"/>
  </g>
  <defs>
    <clipPath id="clip0_798:5661">
      <rect width="18" height="18" fill="white" transform="translate(0 0.390625)"/>
    </clipPath>
  </defs>
</svg>
