<svg xmlns="http://www.w3.org/2000/svg" width="22" height="18" viewBox="0 0 22 18" fill="none">
  <path d="M21.4104 4.00766C21.6447 3.77334 21.6447 3.39346 21.4104 3.15915L18.863 0.611663C18.674 0.422673 18.3509 0.556523 18.3509 0.823793V2.7709H5.3138C4.86507 2.7709 4.5013 3.13467 4.5013 3.5834C4.5013 4.03213 4.86507 4.3959 5.3138 4.3959H18.3509V6.343C18.3509 6.6103 18.674 6.7442 18.863 6.5552L21.4104 4.00766ZM3.65175 11.6572C3.65175 11.3899 3.3286 11.256 3.13962 11.445L0.592214 13.9925C0.357914 14.2268 0.357914 14.6067 0.592214 14.841L3.13962 17.3885C3.32861 17.5775 3.65175 17.4437 3.65175 17.1764V15.2293H16.6888C17.1375 15.2293 17.5013 14.8655 17.5013 14.4168C17.5013 13.968 17.1375 13.6043 16.6888 13.6043H3.65175V11.6572Z" fill="#00E28E"/>
</svg>
