<svg width="26" height="26" viewBox="0 0 26 26" fill="none" xmlns="http://www.w3.org/2000/svg">
<path d="M13.0013 7.42018C12.8049 7.42018 12.6129 7.47841 12.4497 7.58751C12.2864 7.69661 12.1591 7.85167 12.084 8.0331C12.0089 8.21453 11.9893 8.41416 12.0275 8.60676C12.0658 8.79935 12.1604 8.97627 12.2992 9.11512C12.4381 9.25398 12.615 9.34855 12.8076 9.38685C13.0002 9.42516 13.1999 9.4055 13.3812 9.33036C13.5627 9.25521 13.7177 9.12795 13.8268 8.96467C13.936 8.80139 13.9942 8.60943 13.9942 8.41306C13.9942 8.14973 13.8895 7.89718 13.7034 7.71099C13.5172 7.52479 13.2647 7.42018 13.0013 7.42018ZM13.0013 2.16602C10.8587 2.16602 8.76416 2.80138 6.98263 3.99176C5.2011 5.18215 3.81257 6.87407 2.99261 8.85362C2.17266 10.8331 1.95813 13.0114 2.37613 15.1128C2.79414 17.2143 3.82591 19.1446 5.34099 20.6597C6.85605 22.1747 8.78637 23.2065 10.8878 23.6246C12.9893 24.0425 15.1675 23.828 17.147 23.008C19.1266 22.1881 20.8185 20.7996 22.0089 19.018C23.1993 17.2365 23.8346 15.142 23.8346 12.9993C23.8346 11.5767 23.5544 10.168 23.01 8.85362C22.4656 7.53925 21.6676 6.345 20.6617 5.33902C19.6557 4.33306 18.4614 3.53508 17.147 2.99065C15.8327 2.44623 14.4239 2.16602 13.0013 2.16602ZM13.0013 22.2077C11.1801 22.2077 9.39974 21.6676 7.88544 20.6558C6.37113 19.644 5.19087 18.2058 4.49392 16.5232C3.79696 14.8406 3.61461 12.9892 3.96991 11.2029C4.32521 9.41665 5.20222 7.77588 6.49004 6.48807C7.77784 5.20027 9.41861 4.32326 11.2048 3.96796C12.9911 3.61264 14.8425 3.795 16.5252 4.49195C18.2078 5.18892 19.6459 6.36917 20.6578 7.88347C21.6696 9.39777 22.2096 11.1782 22.2096 12.9993C22.2068 15.4406 21.2357 17.7812 19.5094 19.5075C17.7831 21.2338 15.4426 22.2049 13.0013 22.2077ZM12.1888 17.6035C12.1888 18.0522 12.5526 18.416 13.0013 18.416C13.45 18.416 13.8138 18.0522 13.8138 17.6035V12.1868C13.8138 11.7381 13.45 11.3743 13.0013 11.3743C12.5526 11.3743 12.1888 11.7381 12.1888 12.1868V17.6035Z" fill="#F3BA2F" fill-opacity="0.8"/>
</svg>
