<svg width="77" height="77" viewBox="0 0 77 77" fill="none" xmlns="http://www.w3.org/2000/svg">
<path d="M38.5 77C46.7641 77 54.8089 74.3408 61.4451 69.4156C68.0812 64.4904 72.9564 57.5605 75.3499 49.6506C77.7434 41.7407 77.5282 33.2705 74.736 25.4923C71.9439 17.7142 66.7231 11.0409 59.8454 6.45902C52.9677 1.87717 44.7982 -0.370018 36.5448 0.0496814C28.2913 0.469381 20.3919 3.53369 14.0145 8.78958C7.63705 14.0455 3.12009 21.2139 1.13138 29.2352C-0.857333 37.2565 -0.212225 45.7048 2.97132 53.3312L7.95228 51.2519C5.21505 44.6947 4.66038 37.4308 6.37028 30.5341C8.08018 23.6374 11.9639 17.4739 17.4472 12.9548C22.9306 8.4358 29.7225 5.80109 36.8189 5.44023C43.9152 5.07937 50.9394 7.01152 56.8529 10.951C62.7663 14.8905 67.2552 20.6282 69.6559 27.3159C72.0566 34.0037 72.2417 41.2864 70.1837 48.0873C68.1258 54.8883 63.934 60.8466 58.2283 65.0814C52.5225 69.3161 45.6055 71.6025 38.5 71.6025V77Z" fill="url(#paint0_radial_2020_2660)"/>
<defs>
<radialGradient id="paint0_radial_2020_2660" cx="0" cy="0" r="1" gradientUnits="userSpaceOnUse" gradientTransform="translate(52 22.5) rotate(85.5328) scale(64.195 129.413)">
<stop stop-color="#00E28D"/>
<stop offset="0.761783" stop-color="#007C4D" stop-opacity="0"/>
</radialGradient>
</defs>
</svg>
