<svg width="20" height="21" viewBox="0 0 20 21" fill="none" xmlns="http://www.w3.org/2000/svg">
  <path d="M0.75 10.5C0.75 8.08903 0.776233 6.31632 0.955744 4.98794C1.13522 3.65981 1.45326 2.9074 1.93033 2.43033C2.4074 1.95326 3.15981 1.63522 4.48794 1.45574C5.81632 1.27623 7.58903 1.25 10 1.25C12.411 1.25 14.1837 1.27623 15.5121 1.45574C16.8402 1.63522 17.5926 1.95326 18.0697 2.43033C18.5467 2.9074 18.8648 3.65981 19.0443 4.98794C19.2238 6.31632 19.25 8.08903 19.25 10.5C19.25 12.911 19.2238 14.6837 19.0443 16.0121C18.8648 17.3402 18.5467 18.0926 18.0697 18.5697C17.5926 19.0467 16.8402 19.3648 15.5121 19.5443C14.1837 19.7238 12.411 19.75 10 19.75C7.58903 19.75 5.81632 19.7238 4.48794 19.5443C3.15981 19.3648 2.4074 19.0467 1.93033 18.5697C1.45326 18.0926 1.13522 17.3402 0.955744 16.0121C0.776233 14.6837 0.75 12.911 0.75 10.5Z" stroke="#4AA956" stroke-width="1.5"/>
  <path d="M10 16C10.5523 16 11 15.5523 11 15C11 14.4477 10.5523 14 10 14C9.44772 14 9 14.4477 9 15C9 15.5523 9.44772 16 10 16Z" fill="#4AA956"/>
  <path d="M7.19995 9.2V8.56C7.19995 7.14615 8.45355 6 9.99995 6C11.5464 6 12.8 7.14615 12.8 8.56V8.71529C12.8 9.43543 12.4871 10.1261 11.9301 10.6353L9.99995 12.4" stroke="#4AA956" stroke-width="2" stroke-linecap="round" stroke-linejoin="round"/>
</svg>
