<svg width="26" height="26" viewBox="0 0 26 26" fill="none" xmlns="http://www.w3.org/2000/svg">
<path d="M13.0013 2.16602C10.8587 2.16602 8.76416 2.80138 6.98263 3.99176C5.2011 5.18215 3.81257 6.87407 2.99261 8.85362C2.17266 10.8331 1.95813 13.0114 2.37613 15.1128C2.79414 17.2143 3.82591 19.1446 5.34099 20.6597C6.85605 22.1747 8.78637 23.2065 10.8878 23.6246C12.9893 24.0425 15.1675 23.828 17.147 23.008C19.1266 22.1881 20.8185 20.7996 22.0089 19.018C23.1993 17.2365 23.8346 15.142 23.8346 12.9993C23.8346 11.5767 23.5544 10.168 23.01 8.85362C22.4656 7.53925 21.6676 6.345 20.6617 5.33902C19.6557 4.33306 18.4614 3.53508 17.147 2.99065C15.8327 2.44623 14.4239 2.16602 13.0013 2.16602ZM13.0013 22.2077C11.1801 22.2077 9.39974 21.6676 7.88544 20.6558C6.37113 19.644 5.19087 18.2058 4.49392 16.5232C3.79696 14.8406 3.61461 12.9892 3.96991 11.2029C4.32521 9.41665 5.20222 7.77588 6.49004 6.48807C7.77784 5.20027 9.41861 4.32326 11.2048 3.96796C12.9911 3.61264 14.8425 3.795 16.5252 4.49195C18.2078 5.18892 19.6459 6.36917 20.6578 7.88347C21.6696 9.39777 22.2096 11.1782 22.2096 12.9993C22.2068 15.4406 21.2357 17.7812 19.5094 19.5075C17.7831 21.2338 15.4426 22.2049 13.0013 22.2077ZM12.8707 16.4581C12.6742 16.4581 12.4823 16.5164 12.3189 16.6255C12.1557 16.7346 12.0284 16.8897 11.9532 17.0712C11.878 17.2526 11.8583 17.4523 11.8966 17.6449C11.935 17.8376 12.0296 18.0145 12.1684 18.1534C12.3073 18.2923 12.4842 18.3869 12.677 18.4252C12.8696 18.4636 13.0692 18.4439 13.2507 18.3687C13.4321 18.2935 13.5873 18.1662 13.6964 18.0029C13.8055 17.8396 13.8637 17.6476 13.8637 17.4512C13.8637 17.1878 13.7591 16.9352 13.5729 16.749C13.3866 16.5628 13.134 16.4581 12.8707 16.4581ZM13.1523 7.55517C11.6346 7.55517 10.1041 8.49697 9.80089 10.5781C9.73905 11.0027 10.0946 11.3532 10.5237 11.3532C10.9527 11.3532 11.2851 10.9999 11.3761 10.5806C11.6607 9.2684 12.6763 9.10823 13.153 9.10823C13.5886 9.07348 14.0206 9.20946 14.3579 9.48742C14.6951 9.76539 14.911 10.1636 14.96 10.5978C14.96 11.3204 14.6489 11.5626 13.9465 12.043C13.3791 12.3391 12.9055 12.7877 12.5791 13.3383C12.3842 13.6672 12.2465 14.0247 12.1698 14.3956C12.0834 14.8138 12.4411 15.1596 12.8682 15.1596C13.3013 15.1596 13.6195 14.7935 13.7751 14.3893C13.9575 13.9154 14.332 13.6595 14.8214 13.3252C15.3259 13.0689 15.7505 12.679 16.0487 12.1981C16.347 11.7172 16.5076 11.1636 16.513 10.5978C16.4678 9.74991 16.0892 8.95427 15.4598 8.38433C14.8304 7.81437 14.0006 7.51634 13.1523 7.55517Z" fill="#00e28e"/>
</svg>
