<svg width="21" height="21" viewBox="0 0 21 21" fill="none" xmlns="http://www.w3.org/2000/svg">
<path d="M10.5013 0.916016C8.60591 0.916016 6.75306 1.47807 5.17709 2.53109C3.60112 3.58413 2.37281 5.08084 1.64746 6.83197C0.922119 8.58307 0.73234 10.51 1.10211 12.369C1.47189 14.2279 2.38461 15.9355 3.72487 17.2758C5.06512 18.616 6.77271 19.5288 8.63169 19.8986C10.4907 20.2683 12.4176 20.0786 14.1687 19.3532C15.9198 18.6278 17.4165 17.3995 18.4696 15.8236C19.5226 14.2476 20.0846 12.3947 20.0846 10.4993C20.0846 9.24086 19.8367 7.99467 19.3552 6.83197C18.8736 5.66926 18.1677 4.61281 17.2778 3.72291C16.3879 2.83302 15.3314 2.12711 14.1687 1.6455C13.006 1.1639 11.7598 0.916016 10.5013 0.916016ZM10.5013 18.6452C8.89025 18.6452 7.3153 18.1675 5.97573 17.2724C4.63615 16.3773 3.59207 15.1051 2.97554 13.6166C2.359 12.1281 2.19769 10.4903 2.51199 8.91014C2.8263 7.33003 3.60212 5.87859 4.74134 4.73937C5.88055 3.60016 7.332 2.82434 8.9121 2.51004C10.4923 2.19573 12.1301 2.35704 13.6186 2.97358C15.1071 3.59012 16.3792 4.6342 17.2743 5.97376C18.1694 7.31334 18.6471 8.88829 18.6471 10.4993C18.6446 12.659 17.7856 14.7294 16.2585 16.2565C14.7314 17.7836 12.6609 18.6427 10.5013 18.6452ZM10.3857 13.559C10.212 13.559 10.0422 13.6106 9.89765 13.7071C9.75323 13.8036 9.64062 13.9408 9.57412 14.1013C9.50761 14.2619 9.49017 14.4385 9.52409 14.6089C9.55802 14.7794 9.64168 14.9359 9.76454 15.0587C9.88739 15.1816 10.0439 15.2652 10.2144 15.2992C10.3848 15.3331 10.5614 15.3156 10.7219 15.2491C10.8824 15.1826 11.0197 15.07 11.1162 14.9256C11.2127 14.7811 11.2642 14.6113 11.2642 14.4375C11.2642 14.2046 11.1717 13.9811 11.0069 13.8163C10.8422 13.6516 10.6187 13.559 10.3857 13.559ZM10.6349 5.68334C9.29228 5.68334 7.93838 6.51648 7.67017 8.35751C7.61546 8.73306 7.93003 9.04316 8.30955 9.04316C8.68906 9.04316 8.98312 8.73058 9.06359 8.35969C9.31543 7.1989 10.2138 7.05721 10.6355 7.05721C11.0208 7.02646 11.403 7.14675 11.7013 7.39264C11.9997 7.63854 12.1907 7.99078 12.234 8.37492C12.234 9.01412 11.9588 9.22841 11.3374 9.65333C10.8355 9.91524 10.4166 10.3121 10.1278 10.7992C9.95543 11.0901 9.83355 11.4064 9.76574 11.7345C9.68929 12.1045 10.0057 12.4104 10.3835 12.4104C10.7667 12.4104 11.0482 12.0865 11.1858 11.7289C11.3472 11.3097 11.6784 11.0833 12.1114 10.7876C12.5577 10.5609 12.9333 10.216 13.1971 9.79056C13.4609 9.36516 13.603 8.87545 13.6078 8.37492C13.5678 7.62485 13.2329 6.92101 12.6761 6.41683C12.1194 5.91264 11.3853 5.64899 10.6349 5.68334Z" fill="#F35E42"/>
</svg>
