<svg width="16" height="16" viewBox="0 0 16 16" fill="none" xmlns="http://www.w3.org/2000/svg">
  <path fill-rule="evenodd" clip-rule="evenodd" d="M8 15.5C12.1421 15.5 15.5 12.1421 15.5 8C15.5 6.53401 15.0794 5.16626 14.3523 4.01084L8.52169 10.4893C7.82902 11.2589 6.66346 11.3726 5.83511 10.7513L3.23333 8.8C2.7915 8.46863 2.70196 7.84183 3.03333 7.4C3.3647 6.95817 3.9915 6.86863 4.43333 7.2L7.03511 9.15133L13.0565 2.46085C11.7231 1.24289 9.94829 0.5 8 0.5C3.85786 0.5 0.5 3.85786 0.5 8C0.5 12.1421 3.85786 15.5 8 15.5Z" fill="#00e28e"/>
</svg>
