<svg width="24" height="24" viewBox="0 0 24 24" fill="none" xmlns="http://www.w3.org/2000/svg">
<g clip-path="url(#clip0_21_17)">
<path d="M12 23C12 23 21 18.6 21 12V4.3L12 1L3 4.3V12C3 18.6 12 23 12 23Z" fill="#00E28E" fill-opacity="0.3" stroke="#00E28E" stroke-width="2" stroke-linecap="round" stroke-linejoin="round"/>
<path d="M11.5223 6.54585C11.6675 6.07601 12.3325 6.07601 12.4777 6.54585L13.3075 9.23116C13.3723 9.44066 13.5659 9.58354 13.7852 9.58354H16.5218C17.0001 9.58354 17.2054 10.1905 16.8254 10.4809L14.5689 12.2046C14.4024 12.3318 14.3329 12.5494 14.3948 12.7496L15.2463 15.5054C15.3901 15.9705 14.8519 16.3458 14.4651 16.0503L12.3035 14.399C12.1243 14.2621 11.8757 14.2621 11.6965 14.399L9.53489 16.0503C9.14804 16.3458 8.60992 15.9705 8.75365 15.5054L9.60523 12.7496C9.66709 12.5494 9.59756 12.3318 9.43105 12.2046L7.17461 10.4809C6.79456 10.1905 6.99988 9.58354 7.47814 9.58354H10.2148C10.434 9.58354 10.6277 9.44066 10.6925 9.23116L11.5223 6.54585Z" fill="#00E28E"/>
</g>
<defs>
<clipPath id="clip0_21_17">
<rect width="24" height="24" fill="white"/>
</clipPath>
</defs>
</svg>
