<svg width="24" height="24" viewBox="0 0 24 24" fill="none" xmlns="http://www.w3.org/2000/svg">
<g clip-path="url(#clip0_33_5)">
<path d="M13 23C13 23 22 18.6 22 12V4.3L13 1L4 4.3V12C4 18.6 13 23 13 23Z" fill="#00E28E" fill-opacity="0.3" stroke="#00E28E" stroke-width="2" stroke-linecap="round" stroke-linejoin="round"/>
<path d="M18.1034 8.49112V8.39172L18.0181 8.34081L13.0018 5.34969L12.9119 5.29606L12.8221 5.34997L7.93072 8.28731L7.84599 8.33819L7.84581 8.43703L7.83541 14.3547L7.83523 14.4535L7.91967 14.5047L12.8527 17.4958L12.942 17.5499L13.032 17.4971L18.017 14.5705L18.1034 14.5198V14.4196V8.49112ZM12.3105 11.8183V15.8064L8.94513 13.8141V9.8107L12.3105 11.8183ZM12.9432 10.6326L9.57862 8.61982L12.9229 6.60787L16.2874 8.62066L12.9432 10.6326ZM13.6284 15.886V11.8829L16.9937 9.87526V13.8686L13.6284 15.886Z" fill="#00E28E" stroke="#00E28E" stroke-width="0.35"/>
</g>
<defs>
<clipPath id="clip0_33_5">
<rect width="24" height="24" fill="white"/>
</clipPath>
</defs>
</svg>
