<svg width="24" height="24" viewBox="0 0 24 24" fill="none" xmlns="http://www.w3.org/2000/svg">
<g clip-path="url(#clip0_29_2)">
<path d="M13 23C13 23 22 18.6 22 12V4.3L13 1L4 4.3V12C4 18.6 13 23 13 23Z" fill="#D9D9D9" fill-opacity="0.1" stroke="#FF2828" stroke-width="2" stroke-linecap="round" stroke-linejoin="round"/>
<path fill-rule="evenodd" clip-rule="evenodd" d="M17.1924 7.22185C16.8019 6.83132 16.1687 6.83132 15.7782 7.22185L12.9142 10.0858L10.055 7.22652C9.66445 6.836 9.03129 6.83599 8.64076 7.22652C8.25024 7.61704 8.25024 8.25021 8.64076 8.64073L11.5 11.5L8.70711 14.2929C8.31659 14.6834 8.31659 15.3166 8.70711 15.7071C9.09764 16.0977 9.7308 16.0977 10.1213 15.7071L12.9142 12.9142L15.7118 15.7118C16.1024 16.1023 16.7355 16.1023 17.126 15.7118C17.5166 15.3213 17.5166 14.6881 17.126 14.2976L14.3285 11.5L17.1924 8.63606C17.5829 8.24554 17.5829 7.61237 17.1924 7.22185Z" fill="#FF2828"/>
</g>
<defs>
<clipPath id="clip0_29_2">
<rect width="24" height="24" fill="white"/>
</clipPath>
</defs>
</svg>
