<svg width="24" height="24" viewBox="0 0 24 24" fill="none" xmlns="http://www.w3.org/2000/svg">
<g clip-path="url(#clip0_21_26)">
<path d="M13 23C13 23 22 18.6 22 12V4.3L13 1L4 4.3V12C4 18.6 13 23 13 23Z" fill="#D9D9D9" fill-opacity="0.1" stroke="#595959" stroke-width="2" stroke-linecap="round" stroke-linejoin="round"/>
<path d="M13.7159 13.6216H12.0178C12.0222 13.1781 12.0533 12.7961 12.111 12.4758C12.1731 12.1505 12.2775 11.8573 12.424 11.5961C12.5749 11.3349 12.7747 11.0762 13.0233 10.8199C13.232 10.6129 13.414 10.4158 13.5694 10.2285C13.7248 10.0412 13.8468 9.84901 13.9356 9.65188C14.0244 9.44982 14.0688 9.22558 14.0688 8.97917C14.0688 8.69332 14.0289 8.45677 13.9489 8.26949C13.8735 8.07729 13.758 7.9319 13.6027 7.83333C13.4517 7.73477 13.2608 7.68548 13.03 7.68548C12.8391 7.68548 12.6615 7.7323 12.4972 7.82594C12.333 7.91465 12.1976 8.05264 12.091 8.23992C11.9889 8.4272 11.9356 8.67361 11.9312 8.97917H10C10.0133 8.30399 10.1532 7.74709 10.4195 7.30847C10.6903 6.86492 11.0522 6.53719 11.505 6.32527C11.9578 6.10842 12.4661 6 13.03 6C13.6515 6 14.1842 6.11335 14.6282 6.34005C15.0721 6.56183 15.4118 6.88956 15.6471 7.32325C15.8824 7.75202 16 8.27442 16 8.89046C16 9.31922 15.9245 9.70117 15.7736 10.0363C15.6226 10.3665 15.4251 10.6745 15.1809 10.9603C14.9367 11.2462 14.6681 11.5419 14.3751 11.8474C14.1221 12.0988 13.9489 12.3625 13.8557 12.6384C13.7669 12.9144 13.7203 13.2422 13.7159 13.6216ZM11.818 15.9059C11.818 15.5905 11.9156 15.3293 12.111 15.1223C12.3063 14.9104 12.5683 14.8044 12.8968 14.8044C13.2209 14.8044 13.4806 14.9104 13.6759 15.1223C13.8757 15.3293 13.9756 15.5905 13.9756 15.9059C13.9756 16.2115 13.8757 16.4702 13.6759 16.6821C13.4806 16.894 13.2209 17 12.8968 17C12.5683 17 12.3063 16.894 12.111 16.6821C11.9156 16.4702 11.818 16.2115 11.818 15.9059Z" fill="#AAAAAA"/>
</g>
<defs>
<clipPath id="clip0_21_26">
<rect width="24" height="24" fill="white"/>
</clipPath>
</defs>
</svg>
