<svg width="22" height="20" viewBox="0 0 22 20" fill="none" xmlns="http://www.w3.org/2000/svg">
  <path d="M12.9487 1.875L20.7429 15.375C21.609 16.875 20.5264 18.75 18.7944 18.75H3.20591C1.47387 18.75 0.391335 16.875 1.25736 15.375L9.05159 1.875C9.91762 0.374998 12.0827 0.374999 12.9487 1.875Z" stroke="#F3BA2F" stroke-width="1.5"/>
  <path d="M11.0002 16.0029C11.5525 16.0029 12.0002 15.5552 12.0002 15.0029C12.0002 14.4506 11.5525 14.0029 11.0002 14.0029C10.448 14.0029 10.0002 14.4506 10.0002 15.0029C10.0002 15.5552 10.448 16.0029 11.0002 16.0029Z" fill="#F3BA2F"/>
  <path d="M11.0003 6L11.0004 9.5C11.0004 8.08615 11.0006 7.62094 11.0003 6ZM11.0003 6C11.0004 8.44971 11.0004 7.14615 11.0004 8.56L11.0002 9.89291C11.0002 10.6131 11.0004 10.5 11.0004 10.5V12.4" stroke="#F3BA2F" stroke-width="2" stroke-linecap="round" stroke-linejoin="round"/>
</svg>
