<svg width="30" height="30" viewBox="0 0 30 30" fill="none" xmlns="http://www.w3.org/2000/svg">
  <path d="M16.9486 4.875L24.7428 18.375C25.6088 19.875 24.5263 21.75 22.7942 21.75H7.20577C5.47372 21.75 4.39119 19.875 5.25721 18.375L13.0514 4.875C13.9175 3.375 16.0825 3.375 16.9486 4.875Z" stroke="#F3BA2F" stroke-width="1.5"/>
  <path d="M15 19.0029C15.5523 19.0029 16 18.5552 16 18.0029C16 17.4506 15.5523 17.0029 15 17.0029C14.4477 17.0029 14 17.4506 14 18.0029C14 18.5552 14.4477 19.0029 15 19.0029Z" fill="#F3BA2F"/>
  <path d="M15.0001 9L15.0001 12.5C15.0001 11.0862 15.0003 10.6209 15.0001 9ZM15.0001 9C15.0001 11.4497 15.0001 10.1462 15.0001 11.56L15 12.8929C15 13.6131 15.0001 13.5 15.0001 13.5V15.4" stroke="#F3BA2F" stroke-width="2" stroke-linecap="round" stroke-linejoin="round"/>
</svg>
