<svg width="26" height="26" viewBox="0 0 26 26" fill="none" xmlns="http://www.w3.org/2000/svg">
<path d="M13.0014 14.6257C13.3638 14.6257 13.6662 14.3492 13.6986 13.9883L13.9385 11.3174C13.988 10.7667 13.5543 10.2923 13.0014 10.2923C12.4486 10.2923 12.0149 10.7667 12.0643 11.3174L12.3043 13.9883C12.3367 14.3492 12.6391 14.6257 13.0014 14.6257ZM13.0014 16.4594C12.805 16.4594 12.6131 16.5177 12.4497 16.6268C12.2864 16.7359 12.1591 16.891 12.084 17.0725C12.0088 17.2539 11.9891 17.4536 12.0274 17.6462C12.0658 17.8389 12.1603 18.0158 12.2992 18.1547C12.4381 18.2936 12.615 18.3882 12.8077 18.4265C13.0004 18.4649 13.2 18.4452 13.3815 18.37C13.5629 18.2948 13.7181 18.1675 13.8272 18.0042C13.9362 17.8409 13.9945 17.6489 13.9945 17.4525C13.9945 17.1891 13.8899 16.9365 13.7037 16.7503C13.5174 16.5641 13.2648 16.4594 13.0014 16.4594ZM13.8675 2.58399C13.4826 1.91732 12.5203 1.91732 12.1354 2.58399L1.35821 21.2507C0.973313 21.9173 1.45444 22.7507 2.22424 22.7507H23.7786C24.5484 22.7507 25.0296 21.9173 24.6447 21.2507L13.8675 2.58399ZM12.7416 4.78399C12.8571 4.58399 13.1458 4.58399 13.2612 4.78399L22.4363 20.6757C22.5517 20.8757 22.4074 21.1257 22.1765 21.1257H3.82641C3.59547 21.1257 3.45113 20.8757 3.5666 20.6757L12.7416 4.78399Z" fill="#F3BA2F" fill-opacity="0.8"/>
</svg>
