<svg width="262" height="22" viewBox="0 0 262 22" fill="none" xmlns="http://www.w3.org/2000/svg">
<path d="M0.835608 19.3848C0.365579 19.0111 0 18.3168 0 17.6226C0 16.3945 0.940059 15.4867 2.14125 15.4867C2.71572 15.4867 3.13353 15.7003 3.44688 15.9139C5.01364 17.0887 6.73708 17.8363 8.77389 17.8363C10.654 17.8363 11.7507 17.0887 11.7507 15.8071V15.7538C11.7507 14.579 11.0196 13.9381 7.5727 13.0304C3.39466 11.9625 0.678932 10.7343 0.678932 6.51585V6.46246C0.678932 2.61779 3.70801 0.0546875 7.93827 0.0546875C10.4451 0.0546875 12.6386 0.695465 14.5187 1.92362C15.041 2.24401 15.511 2.88479 15.511 3.79255C15.511 5.02071 14.5709 5.92848 13.3697 5.92848C12.8996 5.92848 12.5863 5.82167 12.2208 5.60808C10.7062 4.70032 9.29614 4.16634 7.83383 4.16634C6.05816 4.16634 5.17032 4.96731 5.17032 6.03527V6.08866C5.17032 7.47702 6.05816 7.9576 9.66171 8.86536C13.8919 9.98673 16.2421 11.5353 16.2421 15.2197V15.2731C16.2421 19.4916 13.1086 21.841 8.6172 21.841C5.9537 21.8945 3.18576 21.0401 0.835608 19.3848Z" fill="#3B4352"/>
<path d="M17.4948 3.36372C17.3903 3.09674 17.3381 2.77635 17.3381 2.50936C17.3381 1.2278 18.3826 0.213241 19.6883 0.213241C20.7327 0.213241 21.6206 0.907416 21.934 1.86858L26.0598 14.8977L30.2378 1.97538C30.6034 0.907416 31.3868 0.106445 32.5358 0.106445H32.9013C34.0503 0.106445 34.8859 0.854018 35.1992 1.97538L39.3773 14.8977L43.5031 1.86858C43.8165 0.960814 44.5475 0.213241 45.6965 0.213241C46.95 0.213241 47.9423 1.17441 47.9423 2.45595C47.9423 2.72296 47.8378 3.09674 47.7856 3.36372L41.8841 20.0239C41.4663 21.1987 40.6307 21.9462 39.534 21.9462H39.0639C37.9672 21.9462 37.1315 21.252 36.7137 20.0239L32.6402 7.84916L28.5665 20.0239C28.1487 21.252 27.3131 21.9462 26.2164 21.9462H25.7464C24.6497 21.9462 23.7618 21.1987 23.3963 20.0239L17.4948 3.36372Z" fill="#3B4352"/>
<path d="M45.7491 18.5825L53.0084 1.86893C53.5307 0.694174 54.4185 0 55.672 0H55.9331C57.1865 0 58.0743 0.694174 58.5965 1.86893L65.8036 18.5825C65.9603 18.9029 66.0648 19.2233 66.0648 19.5436C66.0648 20.7719 65.1247 21.7863 63.9236 21.7863C62.879 21.7863 62.1479 21.1456 61.7301 20.1845L60.32 16.8204H51.1805L49.7182 20.2912C49.3526 21.1991 48.5692 21.733 47.6292 21.733C46.4281 21.733 45.5402 20.7719 45.5402 19.5436C45.488 19.2767 45.5924 18.9562 45.7491 18.5825ZM58.5965 12.7087L55.7241 5.71359L52.8517 12.7087H58.5965Z" fill="#3B4352"/>
<path d="M68.1541 2.72647C68.1541 1.44492 69.1464 0.376953 70.4521 0.376953H76.6668C81.6282 0.376953 84.6051 3.36724 84.6051 7.74587V7.79928C84.6051 12.7119 80.8449 15.2749 76.1968 15.2749H72.7499V19.4934C72.7499 20.7749 71.7576 21.843 70.4521 21.843C69.1464 21.843 68.1541 20.8284 68.1541 19.4934V2.72647ZM76.3535 11.0565C78.6514 11.0565 79.9571 9.6682 79.9571 7.85267V7.79928C79.9571 5.71676 78.547 4.59539 76.2491 4.59539H72.6977V11.11H76.3535V11.0565Z" fill="#3B4352"/>
<path d="M106.488 16.5547C107.95 16.5547 109.047 17.676 109.047 19.1178V19.2246C109.047 20.6664 107.95 21.7877 106.488 21.7877C105.026 21.7877 103.929 20.6664 103.929 19.2246V19.1711C103.929 17.676 105.026 16.5547 106.488 16.5547Z" fill="#3B4352"/>
<path d="M111.762 2.56142C111.762 1.27987 112.754 0.211914 114.06 0.211914H114.53C115.627 0.211914 116.306 0.745894 116.88 1.60027L125.706 13.4547V2.50803C125.706 1.22648 126.699 0.211914 127.952 0.211914C129.205 0.211914 130.198 1.22648 130.198 2.50803V19.4352C130.198 20.7167 129.205 21.7846 127.9 21.7846H127.743C126.646 21.7846 125.967 21.2507 125.393 20.3963L116.253 8.11482V19.4886C116.253 20.7702 115.261 21.7846 114.008 21.7846C112.754 21.7846 111.762 20.7702 111.762 19.4886V2.56142Z" fill="#3B4352"/>
<path d="M132.966 19.2798V2.72647C132.966 1.44492 133.958 0.376953 135.264 0.376953H146.754C147.902 0.376953 148.791 1.33811 148.791 2.45948C148.791 3.63423 147.85 4.542 146.754 4.542H137.509V8.86724H145.448C146.597 8.86724 147.484 9.82839 147.484 10.9498C147.484 12.0711 146.545 13.0322 145.448 13.0322H137.509V17.5176H146.91C148.059 17.5176 148.948 18.4789 148.948 19.6003C148.948 20.7749 148.007 21.6828 146.91 21.6828H135.264C133.958 21.6293 132.966 20.5614 132.966 19.2798Z" fill="#3B4352"/>
<path d="M156.937 4.69567H152.55C151.402 4.69567 150.461 3.73451 150.461 2.55975C150.461 1.385 151.402 0.423828 152.55 0.423828H165.919C167.069 0.423828 168.009 1.385 168.009 2.55975C168.009 3.73451 167.069 4.69567 165.919 4.69567H161.533V19.4869C161.533 20.7685 160.54 21.8365 159.235 21.8365C157.929 21.8365 156.937 20.8219 156.937 19.4869V4.69567Z" fill="#3B4352"/>
<path d="M169.315 3.36372C169.21 3.09674 169.158 2.77634 169.158 2.50935C169.158 1.2278 170.203 0.213241 171.509 0.213241C172.553 0.213241 173.442 0.907415 173.754 1.86858L177.88 14.8977L182.058 1.97537C182.424 0.907415 183.208 0.106445 184.356 0.106445H184.722C185.871 0.106445 186.706 0.854017 187.02 1.97537L191.198 14.8977L195.323 1.86858C195.637 0.960812 196.368 0.213241 197.516 0.213241C198.771 0.213241 199.763 1.17441 199.763 2.45595C199.763 2.72294 199.658 3.09674 199.606 3.36372L193.809 20.0772C193.392 21.252 192.555 21.9996 191.459 21.9996H190.989C189.892 21.9996 189.057 21.3055 188.639 20.0772L184.565 7.90254L180.492 20.0772C180.074 21.3055 179.238 21.9996 178.141 21.9996H177.672C176.574 21.9996 175.687 21.252 175.321 20.0772L169.315 3.36372Z" fill="#3B4352"/>
<path d="M199.292 11.0534V11C199.292 4.96602 203.94 0 210.364 0C216.788 0 221.384 4.85922 221.384 10.9466V11C221.384 17.034 216.736 22 210.311 22C203.888 21.9466 199.292 17.0874 199.292 11.0534ZM216.579 11.0534V11C216.579 7.36893 213.968 4.32524 210.311 4.32524C206.656 4.32524 204.097 7.31553 204.097 10.9466V11C204.097 14.631 206.708 17.6748 210.364 17.6748C214.02 17.6748 216.579 14.6845 216.579 11.0534Z" fill="#3B4352"/>
<path d="M223.943 2.72647C223.943 1.44492 224.935 0.376953 226.241 0.376953H233.448C236.111 0.376953 238.148 1.12452 239.506 2.51287C240.655 3.68763 241.282 5.34297 241.282 7.3721V7.4255C241.282 10.7896 239.663 12.8187 237.104 13.8866L240.289 17.8381C240.76 18.4255 241.021 18.9061 241.021 19.6536C241.021 20.9352 239.977 21.7895 238.879 21.7895C237.835 21.7895 237.156 21.2556 236.634 20.5614L232.195 14.7944H228.539V19.4401C228.539 20.7216 227.546 21.7895 226.241 21.7895C224.935 21.7895 223.943 20.7751 223.943 19.4401V2.72647ZM233.134 10.6828C235.381 10.6828 236.634 9.45462 236.634 7.69249V7.63909C236.634 5.60997 235.276 4.59539 233.031 4.59539H228.487V10.6828H233.134Z" fill="#3B4352"/>
<path d="M243.945 2.50968C243.945 1.22812 244.937 0.160156 246.243 0.160156C247.548 0.160156 248.54 1.17472 248.54 2.50968V9.66501L256.949 1.12132C257.523 0.533943 258.098 0.213555 258.881 0.213555C260.134 0.213555 260.971 1.22812 260.971 2.34948C260.971 3.09705 260.657 3.63103 260.134 4.11161L254.285 9.7184L260.657 17.8882C261.023 18.3689 261.284 18.8495 261.284 19.5437C261.284 20.8252 260.291 21.8397 258.986 21.8397C258.098 21.8397 257.576 21.3592 257.054 20.7183L251.1 12.7621L248.489 15.2718V19.5437C248.489 20.8252 247.496 21.8932 246.19 21.8932C244.885 21.8932 243.893 20.8786 243.893 19.5437V2.50968H243.945Z" fill="#3B4352"/>
<path d="M95.8745 8.79019C94.7182 8.48176 93.8634 8.22474 93.2098 8.01913L92.2546 9.9725L88.8861 3.39271L96.0756 2.2104L95.1204 4.21519C96.2265 4.36939 97.3326 4.83204 98.4387 5.5517C98.7905 5.75732 99.1425 5.86013 99.595 5.86013C100.751 5.86013 101.707 4.93485 101.707 3.70114C101.707 2.77586 101.204 2.15899 100.701 1.85056C98.8408 0.66826 96.679 0 94.1652 0C89.8915 0 86.9252 2.51883 86.9252 6.37418V6.42558C86.9252 10.6408 89.5899 11.8231 93.7629 12.9026C94.9695 13.211 95.8243 13.5194 96.4276 13.7764L97.3326 11.9259L100.701 18.5056L93.5116 19.6879L94.517 17.6318C92.6568 17.529 91.048 16.8607 89.5899 15.7299C89.2883 15.5242 88.8861 15.3186 88.2827 15.3186C87.1264 15.3186 86.1711 16.2439 86.1711 17.4776C86.1711 18.1972 86.523 18.8655 87.0259 19.2253C89.3386 20.9217 92.0535 21.7442 94.7684 21.7442C99.243 21.7442 102.36 19.3795 102.36 15.2157V15.1643C102.41 11.4632 100.048 9.92109 95.8745 8.79019Z" fill="#F8DB14"/>
</svg>
