<?xml version="1.0" encoding="UTF-8"?>
<svg width="195px" height="31px" viewBox="0 0 195 31" version="1.1" xmlns="http://www.w3.org/2000/svg" xmlns:xlink="http://www.w3.org/1999/xlink">
    <!-- Generator: Sketch 53.2 (72643) - https://sketchapp.com -->
    <title>Group 17</title>
    <desc>Created with Sketch.</desc>
    <g id="Page-2" stroke="none" stroke-width="1" fill="none" fill-rule="evenodd">
        <g id="ts_01-copy-7" transform="translate(-408.000000, -53.000000)">
            <g id="Group-17" transform="translate(407.984000, 53.000000)">
                <g id="Group-9">
                    <path d="M124.722,28.064 L124.051,27.888 C123.691665,27.7926662 123.396501,27.6735007 123.1655,27.5305 C122.934499,27.3874993 122.776834,27.2298342 122.6925,27.0575 C122.608166,26.8851658 122.555,26.7421672 122.533,26.6285 C122.511,26.5148328 122.503667,26.3773341 122.511,26.216 C122.518333,25.8346648 122.719998,25.4955015 123.116,25.1985 C123.512002,24.9014985 123.977664,24.753 124.513,24.753 C125.092336,24.753 125.587331,24.8923319 125.998,25.171 C126.408669,25.4496681 126.617667,25.8786638 126.625,26.458 L125.184,26.458 C125.176667,26.1573318 124.982335,26.007 124.601,26.007 C124.432332,26.007 124.2985,26.041833 124.1995,26.1115 C124.1005,26.181167 124.054667,26.2746661 124.062,26.392 C124.076667,26.5753343 124.226999,26.7036663 124.513,26.777 L125.382,27.008 C125.763335,27.1106672 126.065832,27.2683323 126.2895,27.481 C126.513168,27.6936677 126.650666,27.8788325 126.702,28.0365 C126.753334,28.1941675 126.779,28.3499992 126.779,28.504 C126.779,29.0173359 126.557169,29.4133319 126.1135,29.692 C125.669831,29.9706681 125.151003,30.11 124.557,30.11 C123.992331,30.11 123.495502,29.9505016 123.0665,29.6315 C122.637498,29.3124984 122.419333,28.8816694 122.412,28.339 L123.842,28.339 C123.849333,28.4930008 123.926333,28.6304994 124.073,28.7515 C124.219667,28.8725006 124.395666,28.933 124.601,28.933 C124.777001,28.9256666 124.925499,28.8835004 125.0465,28.8065 C125.167501,28.7294996 125.228,28.6286673 125.228,28.504 C125.228,28.3939995 125.1895,28.3060003 125.1125,28.24 C125.0355,28.1739997 124.905334,28.1153336 124.722,28.064 Z M129.375,24.863 L129.375,30 L127.857,30 L127.857,24.863 L129.375,24.863 Z M127.934,23.598 C127.750666,23.4219991 127.659,23.2093346 127.659,22.96 C127.659,22.7106654 127.752499,22.4998342 127.9395,22.3275 C128.126501,22.1551658 128.351999,22.069 128.616,22.069 C128.872668,22.069 129.092666,22.1551658 129.276,22.3275 C129.459334,22.4998342 129.551,22.7106654 129.551,22.96 C129.551,23.2093346 129.459334,23.4219991 129.276,23.598 C129.092666,23.7740009 128.872668,23.862 128.616,23.862 C128.351999,23.862 128.124668,23.7740009 127.934,23.598 Z M132.312,27.283 L132.312,30 L130.783,30 L130.783,24.863 L132.312,24.863 L132.312,25.611 C132.451334,25.3543321 132.658499,25.1471675 132.9335,24.9895 C133.208501,24.8318325 133.496332,24.753 133.797,24.753 C134.391003,24.753 134.852998,24.9363315 135.183,25.303 C135.513002,25.6696685 135.678,26.2123297 135.678,26.931 L135.678,30 L134.149,30 L134.149,27.261 C134.149,26.9309984 134.068334,26.6780009 133.907,26.502 C133.745666,26.3259991 133.529335,26.238 133.258,26.238 C132.62733,26.238 132.312,26.5863299 132.312,27.283 Z M137.548,29.351 C136.997997,28.8449975 136.723,28.1996706 136.723,27.415 C136.723,26.6303294 136.997997,25.9905025 137.548,25.4955 C138.098003,25.0004975 138.75433,24.753 139.517,24.753 C139.971669,24.753 140.395165,24.8483324 140.7875,25.039 C141.179835,25.2296676 141.500665,25.4973316 141.75,25.842 L140.507,26.733 C140.286999,26.3883316 139.957002,26.216 139.517,26.216 C139.179665,26.216 138.882668,26.3278322 138.626,26.5515 C138.369332,26.7751678 138.241,27.0629982 138.241,27.415 C138.241,27.7743351 138.369332,28.0694988 138.626,28.3005 C138.882668,28.5315012 139.179665,28.647 139.517,28.647 C139.957002,28.647 140.286999,28.4746684 140.507,28.13 L141.75,29.01 C141.507999,29.3546684 141.190835,29.6241657 140.7985,29.8185 C140.406165,30.0128343 139.979002,30.11 139.517,30.11 C138.75433,30.11 138.098003,29.8570025 137.548,29.351 Z M146.348,28.306 L147.459,29.065 C146.989664,29.7616702 146.208672,30.11 145.116,30.11 C144.360663,30.11 143.724503,29.8588358 143.2075,29.3565 C142.690497,28.8541642 142.432,28.207004 142.432,27.415 C142.432,26.622996 142.690497,25.9813358 143.2075,25.49 C143.724503,24.9986642 144.360663,24.753 145.116,24.753 C145.864004,24.753 146.489164,25.0041642 146.9915,25.5065 C147.493836,26.0088358 147.745,26.6596627 147.745,27.459 C147.745,27.598334 147.737667,27.7559991 147.723,27.932 L143.961,27.932 C143.997667,28.2106681 144.142499,28.4233326 144.3955,28.57 C144.648501,28.7166674 144.925332,28.79 145.226,28.79 C145.724669,28.79 146.098665,28.6286683 146.348,28.306 Z M143.983,26.975 L146.205,26.975 C146.168333,26.6889986 146.041834,26.4708341 145.8255,26.3205 C145.609166,26.1701659 145.376335,26.095 145.127,26.095 C144.877665,26.095 144.639334,26.1683326 144.412,26.315 C144.184666,26.4616674 144.041667,26.6816652 143.983,26.975 Z M156.017,30 L151.331,30 L151.331,29.164 L154.29,25.655 C154.546668,25.3616652 154.675,25.0903346 154.675,24.841 C154.675,24.642999 154.594334,24.474334 154.433,24.335 C154.271666,24.195666 154.051668,24.126 153.773,24.126 C153.501665,24.126 153.274334,24.2194991 153.091,24.4065 C152.907666,24.5935009 152.794,24.8336652 152.75,25.127 L151.342,24.885 C151.452001,24.1956632 151.730664,23.6511687 152.178,23.2515 C152.625336,22.8518313 153.18633,22.652 153.861,22.652 C154.51367,22.652 155.069164,22.8573313 155.5275,23.268 C155.985836,23.6786687 156.215,24.2029968 156.215,24.841 C156.215,25.4863366 155.962003,26.0949971 155.456,26.667 L153.795,28.548 L156.017,28.548 L156.017,30 Z M157.436,26.392 C157.436,23.8986542 158.334324,22.652 160.131,22.652 C160.637003,22.652 161.069665,22.7473324 161.429,22.938 C161.788335,23.1286676 162.065166,23.3999982 162.2595,23.752 C162.453834,24.1040018 162.593166,24.4944979 162.6775,24.9235 C162.761834,25.3525021 162.804,25.8419973 162.804,26.392 C162.804,26.9420028 162.761834,27.4278312 162.6775,27.8495 C162.593166,28.2711688 162.453834,28.6579982 162.2595,29.01 C162.065166,29.3620018 161.788335,29.6333324 161.429,29.824 C161.069665,30.0146676 160.637003,30.11 160.131,30.11 C158.334324,30.11 157.436,28.8706791 157.436,26.392 Z M158.976,26.392 C158.976,27.8733407 159.360996,28.614 160.131,28.614 C160.886337,28.614 161.264,27.8733407 161.264,26.392 C161.264,24.8959925 160.886337,24.148 160.131,24.148 C159.360996,24.148 158.976,24.8959925 158.976,26.392 Z M166.643,22.696 L166.643,30 L165.103,30 L165.103,24.841 L163.871,25.369 L163.871,24.016 L166.643,22.696 Z M168.062,22.795 L173.496,22.795 L170.317,30 L168.568,30 L171.109,24.214 L168.062,24.214 L168.062,22.795 Z" id="since2017" fill="#FFFFFF" fill-rule="nonzero" opacity="0.5"></path>
                    <path d="M7.008,23.24 C4.8,23.24 2.568,22.568 0.696,21.224 C0.288,20.936 -5.68434189e-14,20.408 -5.68434189e-14,19.832 C-5.68434189e-14,18.872 0.768,18.128 1.728,18.128 C2.208,18.128 2.544,18.296 2.784,18.464 C4.056,19.4 5.448,19.976 7.08,19.976 C8.592,19.976 9.504,19.376 9.504,18.392 L9.504,18.344 C9.504,17.408 8.928,16.928 6.12,16.208 C2.736,15.344 0.552,14.408 0.552,11.072 L0.552,11.024 C0.552,7.976 3,5.96 6.432,5.96 C8.472,5.96 10.248,6.488 11.76,7.448 C12.168,7.688 12.576,8.192 12.576,8.912 C12.576,9.872 11.808,10.616 10.848,10.616 C10.488,10.616 10.2,10.52 9.912,10.352 C8.688,9.632 7.536,9.224 6.384,9.224 C4.968,9.224 4.224,9.872 4.224,10.688 L4.224,10.736 C4.224,11.84 4.944,12.2 7.848,12.944 C11.256,13.832 13.176,15.056 13.176,17.984 L13.176,18.032 C13.176,21.368 10.632,23.24 7.008,23.24 Z M19.68,21.752 L14.976,8.552 C14.904,8.336 14.832,8.072 14.832,7.856 C14.832,6.824 15.696,6.056 16.728,6.056 C17.592,6.056 18.288,6.608 18.528,7.376 L21.864,17.672 L25.224,7.472 C25.512,6.608 26.16,6.008 27.096,6.008 L27.384,6.008 C28.32,6.008 28.968,6.584 29.256,7.472 L32.616,17.672 L35.952,7.376 C36.192,6.656 36.816,6.056 37.728,6.056 C38.736,6.056 39.552,6.824 39.552,7.832 C39.552,8.048 39.48,8.336 39.408,8.552 L34.704,21.752 C34.368,22.688 33.672,23.264 32.784,23.264 L32.4,23.264 C31.512,23.264 30.84,22.712 30.504,21.752 L27.192,12.128 L23.88,21.752 C23.544,22.712 22.872,23.264 21.984,23.264 L21.6,23.264 C20.712,23.264 20.016,22.688 19.68,21.752 Z M39.792,21.416 C39.792,21.152 39.888,20.888 40.008,20.624 L45.864,7.4 C46.272,6.488 47.016,5.936 48.024,5.936 L48.24,5.936 C49.248,5.936 49.968,6.488 50.376,7.4 L56.232,20.624 C56.352,20.888 56.424,21.128 56.424,21.368 C56.424,22.352 55.656,23.144 54.672,23.144 C53.808,23.144 53.232,22.64 52.896,21.872 L51.768,19.232 L44.376,19.232 L43.2,21.992 C42.888,22.712 42.264,23.144 41.496,23.144 C40.536,23.144 39.792,22.376 39.792,21.416 Z M45.744,15.968 L50.4,15.968 L48.072,10.424 L45.744,15.968 Z M59.328,21.296 L59.328,8.048 C59.328,7.016 60.144,6.2 61.176,6.2 L66.192,6.2 C70.2,6.2 72.624,8.576 72.624,12.008 L72.624,12.056 C72.624,15.944 69.6,17.96 65.832,17.96 L63.024,17.96 L63.024,21.296 C63.024,22.328 62.208,23.144 61.176,23.144 C60.144,23.144 59.328,22.328 59.328,21.296 Z M63.024,14.672 L65.952,14.672 C67.8,14.672 68.88,13.568 68.88,12.128 L68.88,12.08 C68.88,10.424 67.728,9.536 65.88,9.536 L63.024,9.536 L63.024,14.672 Z M81.336,23.24 C79.128,23.24 76.896,22.568 75.024,21.224 C74.616,20.936 74.328,20.408 74.328,19.832 C74.328,18.872 75.096,18.128 76.056,18.128 C76.536,18.128 76.872,18.296 77.112,18.464 C78.384,19.4 79.776,19.976 81.408,19.976 C82.92,19.976 83.832,19.376 83.832,18.392 L83.832,18.344 C83.832,17.408 83.256,16.928 80.448,16.208 C77.064,15.344 74.88,14.408 74.88,11.072 L74.88,11.024 C74.88,7.976 77.328,5.96 80.76,5.96 C82.8,5.96 84.576,6.488 86.088,7.448 C86.496,7.688 86.904,8.192 86.904,8.912 C86.904,9.872 86.136,10.616 85.176,10.616 C84.816,10.616 84.528,10.52 84.24,10.352 C83.016,9.632 81.864,9.224 80.712,9.224 C79.296,9.224 78.552,9.872 78.552,10.688 L78.552,10.736 C78.552,11.84 79.272,12.2 82.176,12.944 C85.584,13.832 87.504,15.056 87.504,17.984 L87.504,18.032 C87.504,21.368 84.96,23.24 81.336,23.24 Z" id="SWAPS" fill="#FFFFFF" fill-rule="nonzero"></path>
                    <g id="my_logo-copy" transform="translate(122.016000, 0.000000)">
                        <path d="M14.91551,11.6755651 C14.0032198,11.6755651 13.2637544,10.9374861 13.2637544,10.0270856 L13.2637544,6.21967526 L13.2637544,5.95539749 C13.2637544,5.0448866 12.5241787,4.30691797 11.6119987,4.30691797 C10.6997085,4.30691797 10.1221561,5.04499699 10.1221561,5.95539749 L10.1221561,6.29385849 L10.1221561,10.0269752 C10.1221561,10.9373757 9.22055722,11.6754547 8.3083772,11.6754547 C7.39608697,11.6754547 6.65662156,10.9373757 6.65662156,10.0269752 L6.65662156,9.09747694 L6.65662156,6.2471628 C6.64030901,6.23811068 6.6236658,6.22994169 6.60735325,6.22099996 L6.60735325,5.95539749 C6.60735325,5.0448866 6.01569275,4.30691797 5.10351273,4.30691797 C4.19122249,4.30691797 3.45175708,5.04499699 3.45175708,5.95539749 L3.45175708,6.29264419 C3.45175708,6.29264419 3.50102538,10.1476334 3.69831903,11.2315696 C3.89550246,12.3156163 4.53654149,12.9833758 5.37476394,13.8702628 C6.2129864,14.7571499 4.93101856,16.7992863 3.25457365,15.6660049 C1.57812875,14.5327235 0.727231,13.0937675 0.444076038,11.2315696 C0.1555203,9.33559188 0,5.9912748 0,5.9912748 C0,5.9912748 0.0658012893,4.7929727 0.22043983,4.52494161 C0.845276529,2.50201339 2.72871444,1.03225806 4.95548739,1.03225806 C6.23657346,1.03225806 7.40413302,1.51886476 8.28368794,2.31732805 C9.16324287,1.51886476 10.3308024,1.03225806 11.6119987,1.03225806 C13.8386614,1.03225806 15.7220994,2.50201339 16.3469361,4.52494161 C16.5015746,4.7929727 16.5673759,5.9912748 16.5673759,5.9912748 L16.5673759,9.09758734 L16.5673759,10.0270856 C16.5673759,10.9374861 15.8278003,11.6755651 14.91551,11.6755651 Z" id="Path" fill="#4D525D"></path>
                        <path d="M4.75846929,4.32443489 C5.67075952,4.32443489 6.41022494,5.06251391 6.41022494,5.9729144 L6.41022494,9.78032474 L6.41022494,10.0446025 C6.41022494,10.9551134 7.14980057,11.6931924 8.06198058,11.6931924 C8.97427082,11.6931924 9.71384645,10.9551134 9.71384645,10.0446025 L9.71384645,9.70614151 L9.71384645,5.9729144 C9.71384645,5.06251391 10.4533119,4.32443489 11.3656021,4.32443489 C12.2778923,4.32443489 13.017468,5.06251391 13.017468,5.9729144 L13.017468,6.90241266 L13.017468,9.75272681 C13.0337805,9.76177893 13.0504237,9.76994792 13.0667363,9.77888965 L13.0667363,10.0446025 C13.0667363,10.9551134 13.6583968,11.6931924 14.5705768,11.6931924 C15.482867,11.6931924 16.2223324,10.9551134 16.2223324,10.0446025 L16.2223324,9.70735581 C16.2223324,9.70735581 16.1730641,5.85236665 15.9757705,4.76843037 C15.7784768,3.6844941 15.137548,3.01662421 14.2993256,2.12973715 C13.4611031,1.24285009 14.743071,-0.799286289 16.4195159,0.333995083 C18.0959608,1.46727645 18.9468585,2.90623249 19.2300135,4.76843037 C19.5183488,6.66440812 19.6737589,10.0087252 19.6737589,10.0087252 C19.6737589,10.0087252 19.6079576,11.2070273 19.453319,11.4750584 C18.8284823,13.4979866 16.9450444,14.9677419 14.7182715,14.9677419 C13.4371854,14.9677419 12.2696258,14.4811352 11.3900709,13.682672 C10.510516,14.4811352 9.34295644,14.9677419 8.06176014,14.9677419 C5.83509742,14.9677419 3.95165951,13.4979866 3.32682281,11.4750584 C3.17218427,11.2070273 3.10638298,10.0087252 3.10638298,10.0087252 L3.10638298,6.90241266 L3.10638298,5.9729144 C3.10671364,5.06251391 3.84617905,4.32443489 4.75846929,4.32443489 Z" id="Path" fill="#FCD600"></path>
                        <path d="M32.3915155,3.4354768 C32.1944777,3.30621813 31.9287108,3.24153534 31.5939971,3.24153534 L31.050482,3.24153534 C30.7235016,3.24153534 30.486272,3.27050896 30.3385754,3.32834927 C30.1908787,3.38618958 30.0816311,3.49043044 30.0107236,3.64085801 C29.9398161,3.79128559 29.8591058,4.0364387 29.7684837,4.3758897 L28.5101211,9.02332134 L27.2517585,4.3758897 C27.1611364,4.0364387 27.080426,3.7913925 27.0095186,3.64085801 C26.9386111,3.49043044 26.8293635,3.38618958 26.6816668,3.32834927 C26.5339701,3.27050896 26.2966316,3.24153534 25.9697602,3.24153534 L25.4262451,3.24153534 C25.0914224,3.24153534 24.8255466,3.30621813 24.6287267,3.4354768 C24.4317978,3.56473546 24.3333333,3.81459278 24.3333333,4.18494183 L24.3333333,10.8984807 C24.3333333,11.226492 24.408053,11.4705759 24.5578192,11.6306257 C24.7074764,11.7906756 24.9004842,11.8708608 25.1367335,11.8708608 C25.380934,11.8708608 25.5768827,11.7898202 25.7245793,11.627846 C25.872276,11.4657648 25.9461243,11.22275 25.9461243,10.8985876 L25.9461243,5.0415344 L27.3344295,10.4470911 C27.3817011,10.6245678 27.4278835,10.795309 27.4733035,10.9593146 C27.5185057,11.1233202 27.5805906,11.2727856 27.6593403,11.4078176 C27.7380901,11.5429565 27.8484269,11.653826 27.990133,11.7406399 C28.1319479,11.8274539 28.305241,11.8708608 28.5100122,11.8708608 C28.7817697,11.8708608 28.9944921,11.8032914 29.1480705,11.6682594 C29.3016489,11.5332274 29.4069754,11.383762 29.4641588,11.2197564 C29.5212333,11.0557508 29.5950817,10.7983026 29.6857038,10.4470911 L31.0740089,5.0415344 L31.0740089,10.8985876 C31.0740089,11.2226431 31.1488376,11.4657648 31.2984948,11.627846 C31.448152,11.7899272 31.6390903,11.8708608 31.8715274,11.8708608 C32.1196491,11.8708608 32.3175583,11.7898202 32.4652549,11.627846 C32.6129516,11.4657648 32.6867999,11.22275 32.6867999,10.8985876 L32.6867999,4.18494183 C32.6867999,3.81448586 32.5883355,3.56473546 32.3915155,3.4354768 Z M40.0655339,3.09688111 C39.9237189,3.09688111 39.8035792,3.12200583 39.7051148,3.17214835 C39.6066503,3.22229088 39.5170085,3.29467145 39.4362981,3.38918316 C39.3554789,3.48380179 39.2817394,3.58504906 39.2147531,3.6930319 C39.1477668,3.80112165 39.064987,3.93422921 38.9666314,4.09235457 L37.3302046,6.66779869 L35.7116408,4.09235457 C35.4635191,3.69495635 35.2773734,3.42970346 35.1533125,3.2965959 C35.0292517,3.16348834 34.8470271,3.09688111 34.6068566,3.09688111 C34.3784496,3.09688111 34.1864222,3.16829946 34.0308832,3.31102925 C33.8752353,3.45386595 33.7975747,3.62353799 33.7975747,3.82036612 C33.7975747,3.94000255 33.8360238,4.08080789 33.912813,4.24288906 C33.9896022,4.40497023 34.1205251,4.63066505 34.3056905,4.92008044 L36.4206066,8.13219565 L36.4206066,10.8234273 C36.4206066,11.1784877 36.501317,11.4418161 36.6628466,11.6134126 C36.8242673,11.7850091 37.0350291,11.8709677 37.2949143,11.8709677 C37.5508782,11.8709677 37.7616401,11.7841538 37.9270909,11.610526 C38.0925416,11.4368981 38.1752125,11.1745319 38.1752125,10.8234273 L38.1752125,8.13208873 L40.3433909,4.87367989 C40.5245263,4.60746478 40.6525083,4.39908998 40.7274459,4.2486624 C40.8021656,4.09823482 40.8397433,3.94770033 40.8397433,3.79727276 C40.8397433,3.61209823 40.7658949,3.44916175 40.6181982,3.30824949 C40.4702837,3.16733724 40.2860986,3.09688111 40.0655339,3.09688111 Z M51.8504033,3.09688111 C51.6218873,3.09688111 51.447614,3.15472142 51.3275832,3.27050896 C51.2074435,3.38629649 51.1227031,3.5174796 51.0735798,3.66405829 C51.0242386,3.81074388 50.9721745,4.01323843 50.9170605,4.27175576 L49.7826499,9.2259228 L48.5006515,4.59014476 C48.3943447,4.20814211 48.3096043,3.93422921 48.2466481,3.76829914 C48.1835829,3.602476 48.0703052,3.44905484 47.9069239,3.30824949 C47.7434338,3.16744415 47.5140464,3.09698802 47.2186531,3.09698802 C46.9271809,3.09698802 46.6967044,3.16455748 46.5274414,3.29958948 C46.3580695,3.4347284 46.2359692,3.59477821 46.1611406,3.77995274 C46.086312,3.96512727 46.0015716,4.23529819 45.9071372,4.59025167 L44.6371201,9.2259228 L43.5028184,4.27175576 C43.4201475,3.88975311 43.3235347,3.59852019 43.2133068,3.39784317 C43.1029699,3.19727307 42.8883959,3.09688111 42.5693667,3.09688111 C42.3369296,3.09688111 42.1419613,3.17214835 41.9844618,3.32257593 C41.8268533,3.4730035 41.7481035,3.65828495 41.7481035,3.87820643 C41.7481035,4.05183428 41.7913451,4.30457826 41.8780461,4.63633148 L43.3195046,10.3486236 C43.3628551,10.5185094 43.4119784,10.7026148 43.4672013,10.9013674 C43.5223152,11.10012 43.5932227,11.2717165 43.6799237,11.4164776 C43.7665158,11.5611318 43.8797934,11.6731774 44.0196478,11.7521866 C44.1593932,11.8311958 44.3375878,11.8708608 44.5543402,11.8708608 C44.8220677,11.8708608 45.0367507,11.8043605 45.1982803,11.6712529 C45.359701,11.5381454 45.4729787,11.3876109 45.5380044,11.2198633 C45.6030302,11.0520088 45.6906025,10.7752092 45.8009394,10.3893577 L47.218762,5.30208309 L48.6188306,10.3893577 C48.7329797,10.7867559 48.8216412,11.0675113 48.8847064,11.23141 C48.9476627,11.3954156 49.05996,11.5430634 49.2214897,11.6741396 C49.3829104,11.8053227 49.5975934,11.8709677 49.8654297,11.8709677 C50.1489507,11.8709677 50.3685351,11.8033983 50.524183,11.6683663 C50.679722,11.5333343 50.7900588,11.3760642 50.8549756,11.196663 C50.9200014,11.0172618 51.001692,10.7346889 51.1001564,10.3488374 L52.541615,4.6365453 C52.628207,4.28928961 52.6715575,4.03665253 52.6715575,3.87842026 C52.6715575,3.65464988 52.5918275,3.46851313 52.4322584,3.31990309 C52.2727983,3.17118613 52.0788103,3.09688111 51.8504033,3.09688111 Z M54.7747102,3.09688111 C54.5186373,3.09688111 54.3099449,3.18369503 54.1485242,3.35732288 C53.9869946,3.53095073 53.9062843,3.7913925 53.9062843,4.1386482 L53.9062843,10.8232135 C53.9062843,11.1704692 53.9879749,11.4318732 54.1514651,11.6074255 C54.3148464,11.7829778 54.5226673,11.8707539 54.7747102,11.8707539 C55.0385165,11.8707539 55.2522192,11.78394 55.4157094,11.6103121 C55.5790906,11.4366843 55.6608902,11.1743181 55.6608902,10.8232135 L55.6608902,4.1386482 C55.6608902,3.78765052 55.5790906,3.52613961 55.4157094,3.35443621 C55.2522192,3.18283972 55.0385165,3.09688111 54.7747102,3.09688111 Z M63.3202042,7.36231009 C63.042565,7.16943778 62.7057817,7.00543216 62.3099634,6.87040016 C61.914145,6.73536815 61.4720353,6.61198974 60.9836342,6.5000511 C60.5936976,6.40361494 60.3139888,6.33027214 60.1447258,6.28012962 C59.9753539,6.22998709 59.8080515,6.1606001 59.6426007,6.07175482 C59.47715,5.98301644 59.3472074,5.87695805 59.2526641,5.75347273 C59.1581208,5.63009432 59.1108491,5.48340872 59.1108491,5.31362977 C59.1108491,5.03971687 59.2497232,4.80536204 59.5273625,4.61045836 C59.8050017,4.4156616 60.1703222,4.3181563 60.6232151,4.3181563 C61.1115073,4.3181563 61.4659357,4.4078569 61.6866094,4.58725809 C61.9071741,4.76665928 62.0961517,5.01651659 62.2537602,5.33672313 C62.3757516,5.5604935 62.4890292,5.72161245 62.5934843,5.81997305 C62.6978305,5.91833366 62.8504286,5.96751396 63.0512787,5.96751396 C63.2718434,5.96751396 63.4559196,5.88561806 63.6036163,5.72150553 C63.751313,5.55760683 63.8251613,5.37339453 63.8251613,5.1687617 C63.8251613,4.94499133 63.7661262,4.71544761 63.6479471,4.48002365 C63.5297679,4.24470659 63.3426419,4.01986708 63.0866779,3.80571894 C62.830605,3.5915708 62.508635,3.41997431 62.1207679,3.29060873 C61.7327918,3.16135007 61.2730369,3.09677419 60.7412853,3.09677419 C60.07567,3.09677419 59.4967557,3.19427949 59.0044335,3.38907625 C58.5120023,3.58397993 58.1360076,3.86270394 57.8760135,4.22535521 C57.6160194,4.5881134 57.4860769,5.00283164 57.4860769,5.46972377 C57.4860769,5.95981617 57.6091574,6.3697233 57.8553185,6.69955206 C58.1013707,7.02948774 58.4342328,7.2898226 58.853687,7.48087738 C59.2731412,7.67182525 59.7938918,7.83882445 60.4162655,7.98144733 C60.8809218,8.08558127 61.252233,8.18404879 61.5298723,8.27663605 C61.8075115,8.36922332 62.0339579,8.5032931 62.2092116,8.67884539 C62.3844652,8.8545046 62.4721465,9.0830861 62.4721465,9.36469678 C62.4721465,9.71975718 62.3097455,10.0158012 61.9847257,10.2530427 C61.6598148,10.4902842 61.2374198,10.6089584 60.7175406,10.6089584 C60.3394763,10.6089584 60.0341712,10.5501559 59.801843,10.4324439 C59.5694059,10.3148388 59.3892508,10.1652666 59.2612688,9.98394093 C59.1332868,9.8026153 59.0140185,9.57692048 58.9038995,9.30674956 C58.8132774,9.07913029 58.7039209,8.90742689 58.5760478,8.79163935 C58.4480658,8.67585181 58.2914376,8.6180115 58.1063811,8.6180115 C57.8778651,8.6180115 57.6898678,8.69231652 57.5421711,8.84081965 C57.3944744,8.98942969 57.3206261,9.16776175 57.3206261,9.37613655 C57.3206261,9.73493893 57.4437066,10.1044327 57.6898678,10.484404 C57.93592,10.8644822 58.2560383,11.1683309 58.6498961,11.3959502 C59.2051746,11.7124147 59.9102192,11.8705401 60.7648122,11.8705401 C61.4775902,11.8705401 62.0940822,11.7547525 62.6139615,11.5232844 C63.1338407,11.2918162 63.5286787,10.9716097 63.7984757,10.5625579 C64.0681637,10.153613 64.2031166,9.69249419 64.2031166,9.17930843 C64.2031166,8.75101214 64.1253471,8.38932309 63.9698082,8.09413437 C63.814487,7.79926638 63.5978435,7.55528932 63.3202042,7.36231009 Z M72.7548192,3.35443621 C72.591329,3.18283972 72.3776263,3.09688111 72.11382,3.09688111 C71.8539348,3.09688111 71.6441533,3.18369503 71.4846932,3.35732288 C71.3251241,3.53095073 71.2453941,3.7913925 71.2453941,4.1386482 L71.2453941,6.56943809 L67.4585429,6.56943809 L67.4585429,4.1386482 C67.4585429,3.78765052 67.3767434,3.52613961 67.2133621,3.35443621 C67.0498719,3.18283972 66.8361692,3.09688111 66.5723629,3.09688111 C66.3045265,3.09688111 66.0927844,3.18369503 65.9372455,3.35732288 C65.7815976,3.53095073 65.703937,3.7913925 65.703937,4.1386482 L65.703937,10.8232135 C65.703937,11.1704692 65.7826868,11.4318732 65.9402952,11.6074255 C66.0977948,11.7829778 66.3085566,11.8707539 66.5723629,11.8707539 C66.832357,11.8707539 67.0449705,11.78394 67.2104212,11.6103121 C67.375872,11.4366843 67.4585429,11.1743181 67.4585429,10.8232135 L67.4585429,7.97000756 L71.2453941,7.97000756 L71.2453941,10.8233204 C71.2453941,11.1705761 71.3241438,11.4319801 71.4817523,11.6075324 C71.6392518,11.7830847 71.8500137,11.8708608 72.11382,11.8708608 C72.373814,11.8708608 72.5864275,11.7840469 72.7518783,11.6104191 C72.9173291,11.4367912 73,11.174425 73,10.8232135 L73,4.1386482 C73,3.78754361 72.9182004,3.52613961 72.7548192,3.35443621 Z" id="Shape" fill="#FFFFFF" fill-rule="nonzero"></path>
                    </g>
                </g>
                <rect id="Rectangle-Copy-26" fill="#FFFFFF" opacity="0.5" x="105.016" y="8" width="1" height="20"></rect>
            </g>
        </g>
    </g>
</svg>