<svg xmlns="http://www.w3.org/2000/svg" xmlns:xlink="http://www.w3.org/1999/xlink" width="92.89474196711376" height="27.894736947775527" version="1.1" style=""><rect id="backgroundrect" width="100%" height="100%" x="0" y="0" fill="none" stroke="none" class="" style=""/>
    <!-- Generator: Sketch 53.2 (72643) - https://sketchapp.com -->
    <title>Group 17</title>
    <desc>Created with Sketch.</desc>
    
<g class="currentLayer" style=""><title>Layer 1</title><g id="Page-2" stroke="none" stroke-width="1" fill="none" fill-rule="evenodd" class="">
        <g id="ts_01-copy-7">
            <g id="Group-17">
                <g id="Group-9">
                    <path d="M124.72200000000004,28.064 L124.05100000000004,27.888 C123.69166500000006,27.7926662 123.39650100000006,27.673500699999998 123.16550000000007,27.5305 C122.93449900000007,27.3874993 122.77683400000006,27.2298342 122.69250000000005,27.0575 C122.60816600000004,26.8851658 122.55500000000006,26.7421672 122.53300000000007,26.6285 C122.51100000000002,26.5148328 122.50366700000006,26.3773341 122.51100000000002,26.216 C122.51833300000004,25.8346648 122.71999800000009,25.4955015 123.11600000000004,25.1985 C123.51200200000005,24.9014985 123.97766400000006,24.753 124.51300000000009,24.753 C125.09233600000005,24.753 125.58733100000006,24.8923319 125.99800000000005,25.171 C126.40866900000009,25.4496681 126.61766700000004,25.878663799999998 126.62500000000006,26.458 L125.18400000000003,26.458 C125.17666700000007,26.1573318 124.98233500000009,26.007 124.60100000000006,26.007 C124.43233200000003,26.007 124.29850000000005,26.041833 124.19950000000006,26.1115 C124.10050000000007,26.181167 124.05466700000005,26.2746661 124.06200000000007,26.392 C124.07666700000004,26.5753343 124.22699900000003,26.7036663 124.51300000000009,26.777 L125.38200000000006,27.008 C125.76333500000004,27.1106672 126.06583200000006,27.2683323 126.28950000000003,27.481 C126.51316800000006,27.6936677 126.65066600000006,27.8788325 126.70200000000006,28.0365 C126.75333400000005,28.1941675 126.77900000000005,28.3499992 126.77900000000005,28.504 C126.77900000000005,29.0173359 126.55716900000004,29.4133319 126.11350000000004,29.692 C125.66983100000004,29.9706681 125.15100300000006,30.11 124.55700000000007,30.11 C123.99233100000004,30.11 123.49550200000004,29.9505016 123.06650000000008,29.6315 C122.63749800000005,29.3124984 122.41933300000005,28.8816694 122.41200000000009,28.339 L123.84200000000004,28.339 C123.84933300000006,28.4930008 123.92633300000006,28.6304994 124.07300000000004,28.7515 C124.21966700000007,28.8725006 124.39566600000006,28.933 124.60100000000006,28.933 C124.77700100000004,28.9256666 124.92549900000006,28.8835004 125.04650000000004,28.8065 C125.16750100000007,28.7294996 125.22800000000007,28.6286673 125.22800000000007,28.504 C125.22800000000007,28.3939995 125.18950000000007,28.3060003 125.11250000000007,28.24 C125.03550000000007,28.1739997 124.90533400000004,28.1153336 124.72200000000004,28.064 zM129.37500000000006,24.863 L129.37500000000006,30 L127.85700000000003,30 L127.85700000000003,24.863 L129.37500000000006,24.863 zM127.93400000000003,23.598 C127.75066600000008,23.4219991 127.65900000000005,23.2093346 127.65900000000005,22.96 C127.65900000000005,22.7106654 127.75249900000006,22.4998342 127.93950000000007,22.3275 C128.12650100000002,22.1551658 128.35199900000003,22.069 128.61600000000004,22.069 C128.87266800000003,22.069 129.09266600000007,22.1551658 129.27600000000007,22.3275 C129.45933400000007,22.4998342 129.55100000000004,22.7106654 129.55100000000004,22.96 C129.55100000000004,23.2093346 129.45933400000007,23.4219991 129.27600000000007,23.598 C129.09266600000007,23.7740009 128.87266800000003,23.862000000000002 128.61600000000004,23.862000000000002 C128.35199900000003,23.862000000000002 128.1246680000001,23.7740009 127.93400000000003,23.598 zM132.31200000000007,27.283 L132.31200000000007,30 L130.78300000000007,30 L130.78300000000007,24.863 L132.31200000000007,24.863 L132.31200000000007,25.611 C132.45133400000003,25.3543321 132.65849900000006,25.1471675 132.93350000000004,24.9895 C133.20850100000007,24.8318325 133.49633200000005,24.753 133.79700000000008,24.753 C134.39100300000007,24.753 134.85299800000007,24.9363315 135.18300000000005,25.303 C135.51300200000009,25.6696685 135.67800000000005,26.2123297 135.67800000000005,26.931 L135.67800000000005,30 L134.14900000000006,30 L134.14900000000006,27.261 C134.14900000000006,26.9309984 134.06833400000005,26.6780009 133.9070000000001,26.502 C133.74566600000009,26.3259991 133.52933500000006,26.238 133.2580000000001,26.238 C132.6273300000001,26.238 132.31200000000007,26.5863299 132.31200000000007,27.283 zM137.54800000000006,29.351 C136.99799700000005,28.8449975 136.72300000000007,28.1996706 136.72300000000007,27.415 C136.72300000000007,26.6303294 136.99799700000005,25.990502499999998 137.54800000000006,25.4955 C138.09800300000006,25.0004975 138.75433000000004,24.753 139.51700000000005,24.753 C139.97166900000008,24.753 140.39516500000008,24.8483324 140.78750000000008,25.039 C141.17983500000008,25.2296676 141.50066500000008,25.4973316 141.75000000000006,25.842 L140.50700000000006,26.733 C140.2869990000001,26.3883316 139.95700200000005,26.216 139.51700000000005,26.216 C139.17966500000006,26.216 138.88266800000002,26.3278322 138.62600000000003,26.5515 C138.36933200000004,26.7751678 138.24100000000004,27.0629982 138.24100000000004,27.415 C138.24100000000004,27.7743351 138.36933200000004,28.0694988 138.62600000000003,28.3005 C138.88266800000002,28.5315012 139.17966500000006,28.647 139.51700000000005,28.647 C139.95700200000005,28.647 140.2869990000001,28.4746684 140.50700000000006,28.13 L141.75000000000006,29.01 C141.5079990000001,29.3546684 141.19083500000005,29.6241657 140.79850000000005,29.8185 C140.40616500000004,30.0128343 139.9790020000001,30.11 139.51700000000005,30.11 C138.75433000000004,30.11 138.09800300000006,29.8570025 137.54800000000006,29.351 zM146.34800000000007,28.306 L147.45900000000006,29.065 C146.98966400000006,29.7616702 146.20867200000004,30.11 145.11600000000004,30.11 C144.36066300000005,30.11 143.72450300000008,29.8588358 143.20750000000004,29.3565 C142.69049700000005,28.8541642 142.43200000000007,28.207004 142.43200000000007,27.415 C142.43200000000007,26.622996 142.69049700000005,25.9813358 143.20750000000004,25.49 C143.72450300000008,24.9986642 144.36066300000005,24.753 145.11600000000004,24.753 C145.86400400000008,24.753 146.48916400000002,25.004164199999998 146.99150000000003,25.5065 C147.49383600000004,26.0088358 147.74500000000006,26.6596627 147.74500000000006,27.459 C147.74500000000006,27.598334 147.73766700000004,27.7559991 147.72300000000007,27.932 L143.96100000000007,27.932 C143.99766700000004,28.2106681 144.14249900000004,28.4233326 144.39550000000003,28.57 C144.64850100000007,28.7166674 144.92533200000008,28.79 145.22600000000006,28.79 C145.72466900000006,28.79 146.09866500000004,28.6286683 146.34800000000007,28.306 zM143.98300000000006,26.975 L146.2050000000001,26.975 C146.16833300000002,26.6889986 146.04183400000005,26.4708341 145.8255000000001,26.3205 C145.60916600000002,26.1701659 145.3763350000001,26.095 145.12700000000007,26.095 C144.87766500000004,26.095 144.63933400000002,26.1683326 144.4120000000001,26.315 C144.18466600000005,26.4616674 144.04166700000002,26.6816652 143.98300000000006,26.975 zM156.01700000000005,30 L151.33100000000007,30 L151.33100000000007,29.164 L154.29000000000005,25.655 C154.54666800000007,25.3616652 154.67500000000007,25.0903346 154.67500000000007,24.841 C154.67500000000007,24.642999 154.59433400000006,24.474334 154.43300000000005,24.335 C154.27166600000007,24.195666 154.05166800000006,24.126 153.77300000000005,24.126 C153.50166500000006,24.126 153.27433400000007,24.2194991 153.09100000000007,24.4065 C152.90766600000006,24.5935009 152.79400000000007,24.8336652 152.75000000000006,25.127 L151.34200000000004,24.885 C151.45200100000005,24.1956632 151.73066400000005,23.6511687 152.17800000000005,23.2515 C152.62533600000006,22.8518313 153.18633000000005,22.652 153.86100000000005,22.652 C154.51367000000005,22.652 155.06916400000006,22.8573313 155.52750000000006,23.268 C155.98583600000006,23.6786687 156.21500000000006,24.2029968 156.21500000000006,24.841 C156.21500000000006,25.4863366 155.96200300000007,26.0949971 155.45600000000005,26.667 L153.79500000000004,28.548000000000002 L156.01700000000005,28.548000000000002 L156.01700000000005,30 zM157.43600000000006,26.392 C157.43600000000006,23.8986542 158.33432400000007,22.652 160.13100000000006,22.652 C160.63700300000005,22.652 161.06966500000004,22.7473324 161.42900000000006,22.938 C161.78833500000005,23.1286676 162.06516600000006,23.3999982 162.25950000000006,23.752 C162.45383400000006,24.1040018 162.59316600000005,24.4944979 162.67750000000007,24.9235 C162.76183400000005,25.3525021 162.80400000000006,25.8419973 162.80400000000006,26.392 C162.80400000000006,26.9420028 162.76183400000005,27.4278312 162.67750000000007,27.8495 C162.59316600000005,28.271168799999998 162.45383400000006,28.6579982 162.25950000000006,29.01 C162.06516600000006,29.3620018 161.78833500000005,29.6333324 161.42900000000006,29.824 C161.06966500000004,30.0146676 160.63700300000005,30.11 160.13100000000006,30.11 C158.33432400000007,30.11 157.43600000000006,28.8706791 157.43600000000006,26.392 zM158.97600000000006,26.392 C158.97600000000006,27.8733407 159.36099600000006,28.614 160.13100000000006,28.614 C160.88633700000005,28.614 161.26400000000007,27.8733407 161.26400000000007,26.392 C161.26400000000007,24.8959925 160.88633700000005,24.148 160.13100000000006,24.148 C159.36099600000006,24.148 158.97600000000006,24.8959925 158.97600000000006,26.392 zM166.64300000000006,22.696 L166.64300000000006,30 L165.10300000000007,30 L165.10300000000007,24.841 L163.87100000000007,25.369 L163.87100000000007,24.016 L166.64300000000006,22.696 zM168.06200000000007,22.795 L173.49600000000007,22.795 L170.31700000000006,30 L168.56800000000007,30 L171.10900000000007,24.214 L168.06200000000007,24.214 L168.06200000000007,22.795 z" id="since2017" fill="#FFFFFF" fill-rule="nonzero" opacity="0.5"/>
                    <path d="M7.008000000000038,23.24 C4.800000000000068,23.24 2.5680000000000405,22.568 0.6960000000000836,21.224 C0.2880000000000678,20.936 -1.0408340855860843e-17,20.408 -1.0408340855860843e-17,19.832 C-1.0408340855860843e-17,18.872 0.7680000000000293,18.128 1.7280000000000655,18.128 C2.2080000000000837,18.128 2.5440000000000396,18.296 2.7840000000000487,18.464 C4.05600000000004,19.4 5.448000000000036,19.976 7.080000000000041,19.976 C8.592000000000041,19.976 9.504000000000076,19.376000000000005 9.504000000000076,18.391999999999996 L9.504000000000076,18.344 C9.504000000000076,17.408 8.928000000000054,16.927999999999997 6.120000000000061,16.208 C2.736000000000047,15.344000000000001 0.5520000000000778,14.408000000000001 0.5520000000000778,11.072000000000003 L0.5520000000000778,11.024000000000001 C0.5520000000000778,7.975999999999999 3.000000000000057,5.960000000000001 6.432000000000073,5.960000000000001 C8.472000000000037,5.960000000000001 10.248000000000047,6.4879999999999995 11.760000000000048,7.448 C12.168000000000063,7.688000000000002 12.576000000000079,8.192 12.576000000000079,8.911999999999999 C12.576000000000079,9.872 11.80800000000005,10.616 10.84800000000007,10.616 C10.488000000000056,10.616 10.200000000000045,10.519999999999996 9.912000000000035,10.352000000000004 C8.688000000000045,9.631999999999998 7.536000000000058,9.224000000000004 6.384000000000071,9.224000000000004 C4.9680000000000755,9.224000000000004 4.224000000000046,9.872 4.224000000000046,10.688000000000002 L4.224000000000046,10.736000000000004 C4.224000000000046,11.840000000000003 4.944000000000074,12.200000000000003 7.84800000000007,12.944000000000003 C11.256000000000029,13.832 13.176000000000045,15.055999999999997 13.176000000000045,17.984 L13.176000000000045,18.031999999999996 C13.176000000000045,21.368 10.632000000000062,23.24 7.008000000000038,23.24 zM19.680000000000064,21.752 L14.976000000000056,8.552 C14.904000000000053,8.335999999999999 14.83200000000005,8.072000000000003 14.83200000000005,7.856000000000002 C14.83200000000005,6.823999999999998 15.696000000000083,6.055999999999997 16.728000000000065,6.055999999999997 C17.59200000000004,6.055999999999997 18.288000000000068,6.608000000000004 18.528000000000077,7.375999999999998 L21.864000000000033,17.671999999999997 L25.224000000000046,7.472000000000001 C25.512000000000057,6.608000000000004 26.160000000000082,6.008000000000003 27.09600000000006,6.008000000000003 L27.38400000000007,6.008000000000003 C28.32000000000005,6.008000000000003 28.968000000000075,6.584000000000003 29.25600000000003,7.472000000000001 L32.61600000000004,17.671999999999997 L35.952000000000055,7.375999999999998 C36.192000000000064,6.655999999999999 36.81600000000009,6.055999999999997 37.728000000000065,6.055999999999997 C38.73600000000005,6.055999999999997 39.55200000000008,6.823999999999998 39.55200000000008,7.832000000000001 C39.55200000000008,8.048000000000002 39.480000000000075,8.335999999999999 39.40800000000007,8.552 L34.704000000000065,21.752 C34.36800000000005,22.688 33.67200000000008,23.264 32.78400000000005,23.264 L32.400000000000034,23.264 C31.512000000000057,23.264 30.840000000000032,22.712 30.504000000000076,21.752 L27.192000000000064,12.128 L23.880000000000052,21.752 C23.54400000000004,22.712 22.87200000000007,23.264 21.984000000000037,23.264 L21.60000000000008,23.264 C20.712000000000046,23.264 20.016000000000076,22.688 19.680000000000064,21.752 zM39.79200000000009,21.416 C39.79200000000009,21.152 39.888000000000034,20.888000000000005 40.00800000000004,20.623999999999995 L45.86400000000003,7.3999999999999995 C46.27200000000005,6.4879999999999995 47.016000000000076,5.936 48.02400000000006,5.936 L48.240000000000066,5.936 C49.24800000000005,5.936 49.968000000000075,6.4879999999999995 50.37600000000003,7.3999999999999995 L56.23200000000003,20.623999999999995 C56.35200000000003,20.888000000000005 56.424000000000035,21.128 56.424000000000035,21.368 C56.424000000000035,22.352 55.65600000000006,23.144 54.67200000000008,23.144 C53.80800000000005,23.144 53.23200000000003,22.64 52.89600000000007,21.872 L51.768000000000086,19.232 L44.37600000000003,19.232 L43.200000000000045,21.992 C42.888000000000034,22.712 42.26400000000007,23.144 41.49600000000004,23.144 C40.53600000000006,23.144 39.79200000000009,22.376 39.79200000000009,21.416 zM45.744000000000085,15.968000000000004 L50.400000000000034,15.968000000000004 L48.07200000000006,10.424 L45.744000000000085,15.968000000000004 zM59.32800000000003,21.296 L59.32800000000003,8.048000000000002 C59.32800000000003,7.015999999999998 60.14400000000006,6.200000000000003 61.176000000000045,6.200000000000003 L66.19200000000006,6.200000000000003 C70.20000000000005,6.200000000000003 72.62400000000008,8.576 72.62400000000008,12.007999999999996 L72.62400000000008,12.055999999999997 C72.62400000000008,15.944000000000003 69.60000000000008,17.96 65.83200000000005,17.96 L63.02400000000006,17.96 L63.02400000000006,21.296 C63.02400000000006,22.328 62.20800000000003,23.144 61.176000000000045,23.144 C60.14400000000006,23.144 59.32800000000003,22.328 59.32800000000003,21.296 zM63.02400000000006,14.671999999999997 L65.95200000000006,14.671999999999997 C67.80000000000007,14.671999999999997 68.88000000000005,13.567999999999998 68.88000000000005,12.128 L68.88000000000005,12.079999999999998 C68.88000000000005,10.424 67.72800000000007,9.536000000000001 65.88000000000005,9.536000000000001 L63.02400000000006,9.536000000000001 L63.02400000000006,14.671999999999997 zM81.33600000000007,23.24 C79.12800000000004,23.24 76.89600000000007,22.568 75.02400000000006,21.224 C74.61600000000004,20.936 74.32800000000003,20.408 74.32800000000003,19.832 C74.32800000000003,18.872 75.09600000000006,18.128 76.05600000000004,18.128 C76.53600000000006,18.128 76.87200000000007,18.296 77.11200000000002,18.464 C78.38400000000007,19.4 79.77600000000007,19.976 81.40800000000007,19.976 C82.92000000000007,19.976 83.83200000000005,19.376000000000005 83.83200000000005,18.391999999999996 L83.83200000000005,18.344 C83.83200000000005,17.408 83.25600000000003,16.927999999999997 80.44800000000004,16.208 C77.06400000000002,15.344000000000001 74.88000000000005,14.408000000000001 74.88000000000005,11.072000000000003 L74.88000000000005,11.024000000000001 C74.88000000000005,7.975999999999999 77.32800000000003,5.960000000000001 80.76000000000005,5.960000000000001 C82.80000000000007,5.960000000000001 84.57600000000008,6.4879999999999995 86.08800000000002,7.448 C86.49600000000004,7.688000000000002 86.90400000000005,8.192 86.90400000000005,8.911999999999999 C86.90400000000005,9.872 86.13600000000002,10.616 85.17600000000004,10.616 C84.81600000000009,10.616 84.52800000000008,10.519999999999996 84.24000000000007,10.352000000000004 C83.01600000000008,9.631999999999998 81.86400000000009,9.224000000000004 80.71200000000005,9.224000000000004 C79.29600000000005,9.224000000000004 78.55200000000008,9.872 78.55200000000008,10.688000000000002 L78.55200000000008,10.736000000000004 C78.55200000000008,11.840000000000003 79.27200000000005,12.200000000000003 82.17600000000004,12.944000000000003 C85.58400000000006,13.832 87.50400000000008,15.055999999999997 87.50400000000008,17.984 L87.50400000000008,18.031999999999996 C87.50400000000008,21.368 84.96000000000004,23.24 81.33600000000007,23.24 z" id="SWAPS" fill="#FFFFFF" fill-rule="nonzero"/>
                    <g id="my_logo-copy">
                        <path d="M136.93150884033207,11.6755651 C136.0192186403321,11.6755651 135.27975324033207,10.937486100000001 135.27975324033207,10.0270856 L135.27975324033207,6.2196752600000025 L135.27975324033207,5.955397490000003 C135.27975324033207,5.044886599999998 134.54017754033208,4.306917970000001 133.6279975403321,4.306917970000001 C132.71570734033207,4.306917970000001 132.13815494033207,5.044996990000001 132.13815494033207,5.955397490000003 L132.13815494033207,6.293858489999998 L132.13815494033207,10.026975200000003 C132.13815494033207,10.937375700000004 131.23655606033208,11.675454700000003 130.32437604033208,11.675454700000003 C129.4120858103321,11.675454700000003 128.6726204003321,10.937375700000004 128.6726204003321,10.026975200000003 L128.6726204003321,9.09747694 L128.6726204003321,6.247162799999998 C128.6563078503321,6.238110679999998 128.63966464033211,6.229941690000004 128.6233520903321,6.22099996 L128.6233520903321,5.955397490000003 C128.6233520903321,5.044886599999998 128.03169159033212,4.306917970000001 127.11951157033207,4.306917970000001 C126.20722133033206,4.306917970000001 125.46775592033208,5.044996990000001 125.46775592033208,5.955397490000003 L125.46775592033208,6.292644189999997 C125.46775592033208,6.292644189999997 125.51702422033208,10.147633400000004 125.71431787033208,11.2315696 C125.91150130033208,12.315616300000002 126.55254033033208,12.983375799999997 127.39076278033207,13.870262799999999 C128.22898524033207,14.757149900000002 126.94701740033207,16.7992863 125.27057249033209,15.666004900000004 C123.5941275903321,14.532723500000003 122.7432298403321,13.093767499999998 122.46007487833208,11.2315696 C122.17151914033207,9.335591880000003 122.01599884033209,5.991274799999999 122.01599884033209,5.991274799999999 C122.01599884033209,5.991274799999999 122.08180012963209,4.7929727 122.23643867033206,4.524941609999999 C122.86127536933208,2.502013390000002 124.74471328033206,1.0322580599999966 126.97148623033206,1.0322580599999966 C128.25257230033208,1.0322580599999966 129.4201318603321,1.5188647599999996 130.29968678033208,2.3173280500000004 C131.17924171033206,1.5188647599999996 132.34680124033207,1.0322580599999966 133.6279975403321,1.0322580599999966 C135.85466024033207,1.0322580599999966 137.73809824033208,2.502013390000002 138.36293494033208,4.524941609999999 C138.51757344033211,4.7929727 138.5833747403321,5.991274799999999 138.5833747403321,5.991274799999999 L138.5833747403321,9.097587340000004 L138.5833747403321,10.0270856 C138.5833747403321,10.937486100000001 137.84379914033207,11.6755651 136.93150884033207,11.6755651 z" id="Path" fill="#4D525D"/>
                        <path d="M126.77446813033208,4.324434889999999 C127.68675836033208,4.324434889999999 128.42622378033207,5.06251391 128.42622378033207,5.9729144000000005 L128.42622378033207,9.780324739999998 L128.42622378033207,10.044602499999996 C128.42622378033207,10.955113400000002 129.1657994103321,11.693192400000001 130.0779794203321,11.693192400000001 C130.9902696603321,11.693192400000001 131.7298452903321,10.955113400000002 131.7298452903321,10.044602499999996 L131.7298452903321,9.706141510000002 L131.7298452903321,5.9729144000000005 C131.7298452903321,5.06251391 132.4693107403321,4.324434889999999 133.38160094033208,4.324434889999999 C134.2938911403321,4.324434889999999 135.0334668403321,5.06251391 135.0334668403321,5.9729144000000005 L135.0334668403321,6.902412659999996 L135.0334668403321,9.752726809999999 C135.04977934033207,9.761778929999998 135.0664225403321,9.76994792 135.0827351403321,9.778889649999996 L135.0827351403321,10.044602499999996 C135.0827351403321,10.955113400000002 135.67439564033208,11.693192400000001 136.58657564033211,11.693192400000001 C137.4988658403321,11.693192400000001 138.23833124033212,10.955113400000002 138.23833124033212,10.044602499999996 L138.23833124033212,9.707355809999996 C138.23833124033212,9.707355809999996 138.18906294033206,5.8523666500000004 137.9917693403321,4.768430369999997 C137.7944756403321,3.684494100000002 137.15354684033207,3.0166242100000034 136.31532444033206,2.129737149999997 C135.4771019403321,1.2428500899999975 136.75906984033207,-0.7992862890000009 138.4355147403321,0.33399508299999797 C140.1119596403321,1.46727645 140.9628573403321,2.9062324900000007 141.24601234033207,4.768430369999997 C141.5343476403321,6.664408119999997 141.68975774033208,10.0087252 141.68975774033208,10.0087252 C141.68975774033208,10.0087252 141.6239564403321,11.2070273 141.4693178403321,11.475058400000002 C140.8444811403321,13.497986600000004 138.96104324033212,14.9677419 136.7342703403321,14.9677419 C135.45318424033206,14.9677419 134.28562464033206,14.481135199999997 133.4060697403321,13.682671999999997 C132.52651484033208,14.481135199999997 131.3589552803321,14.9677419 130.07775898033208,14.9677419 C127.8510962603321,14.9677419 125.9676583503321,13.497986600000004 125.3428216503321,11.475058400000002 C125.18818311033209,11.2070273 125.12238182033207,10.0087252 125.12238182033207,10.0087252 L125.12238182033207,6.902412659999996 L125.12238182033207,5.9729144000000005 C125.1227124803321,5.06251391 125.86217789033208,4.324434889999999 126.77446813033208,4.324434889999999 z" id="Path" fill="#FCD600" transform=""/>
                        <path d="M154.40751434033206,3.4354768000000035 C154.21047654033208,3.3062181299999978 153.94470964033206,3.2415353399999987 153.6099959403321,3.2415353399999987 L153.06648084033208,3.2415353399999987 C152.7395004403321,3.2415353399999987 152.50227084033207,3.2705089600000012 152.3545742403321,3.3283492699999973 C152.20687754033207,3.38618958 152.09762994033207,3.4904304399999972 152.0267224403321,3.6408580100000023 C151.95581494033212,3.791285590000001 151.8751046403321,4.036438699999998 151.78448254033208,4.375889700000002 L150.52611994033208,9.023321340000003 L149.26775734033208,4.375889700000002 C149.17713524033206,4.036438699999998 149.09642484033208,3.7913925000000006 149.02551744033207,3.6408580100000023 C148.9546099403321,3.4904304399999972 148.8453623403321,3.38618958 148.6976656403321,3.3283492699999973 C148.54996894033206,3.2705089600000012 148.3126304403321,3.2415353399999987 147.98575904033208,3.2415353399999987 L147.4422439403321,3.2415353399999987 C147.1074212403321,3.2415353399999987 146.84154544033208,3.3062181299999978 146.6447255403321,3.4354768000000035 C146.44779664033211,3.5647354600000014 146.34933214033208,3.814592779999998 146.34933214033208,4.18494183 L146.34933214033208,10.8984807 C146.34933214033208,11.226492 146.42405184033208,11.4705759 146.57381804033207,11.630625699999996 C146.7234752403321,11.7906756 146.91648304033208,11.870860800000003 147.15273234033208,11.870860800000003 C147.3969328403321,11.870860800000003 147.5928815403321,11.789820200000001 147.7405781403321,11.627845999999998 C147.8882748403321,11.465764800000002 147.9621231403321,11.222749999999998 147.9621231403321,10.898587599999999 L147.9621231403321,5.041534400000003 L149.3504283403321,10.447091100000002 C149.39769994033207,10.624567800000001 149.4438823403321,10.795309000000003 149.48930234033207,10.959314599999999 C149.53450454033208,11.123320200000002 149.59658944033208,11.272785599999999 149.67533914033208,11.407817600000001 C149.7540889403321,11.542956500000003 149.86442574033208,11.653826000000002 150.0061318403321,11.740639899999998 C150.1479467403321,11.827453900000002 150.3212398403321,11.870860800000003 150.5260110403321,11.870860800000003 C150.79776854033207,11.870860800000003 151.0104909403321,11.803291399999999 151.1640693403321,11.668259399999997 C151.31764774033206,11.533227400000001 151.4229742403321,11.383762000000004 151.4801576403321,11.219756400000001 C151.5372321403321,11.055750799999998 151.61108054033207,10.7983026 151.7017026403321,10.447091100000002 L153.0900077403321,5.041534400000003 L153.0900077403321,10.898587599999999 C153.0900077403321,11.222643099999999 153.16483644033207,11.465764800000002 153.3144936403321,11.627845999999998 C153.46415084033208,11.789927200000001 153.6550891403321,11.870860800000003 153.88752624033208,11.870860800000003 C154.1356479403321,11.870860800000003 154.33355714033206,11.789820200000001 154.48125374033208,11.627845999999998 C154.62895044033206,11.465764800000002 154.70279874033207,11.222749999999998 154.70279874033207,10.898587599999999 L154.70279874033207,4.18494183 C154.70279874033207,3.814485859999998 154.60433434033206,3.5647354600000014 154.40751434033206,3.4354768000000035 zM162.08153274033208,3.096881109999998 C161.93971774033207,3.096881109999998 161.8195780403321,3.122005829999999 161.72111364033208,3.1721483500000005 C161.6226491403321,3.2222908800000027 161.53300734033206,3.2946714500000027 161.45229694033208,3.3891831600000017 C161.37147774033207,3.483801790000001 161.29773824033208,3.585049060000003 161.23075194033208,3.693031900000001 C161.1637656403321,3.801121649999999 161.08098584033206,3.934229209999998 160.98263024033207,4.092354569999998 L159.3462034403321,6.667798689999998 L157.7276396403321,4.092354569999998 C157.47951794033207,3.6949563499999982 157.29337224033208,3.429703459999999 157.16931134033206,3.2965959 C157.04525054033212,3.1634883400000007 156.86302594033208,3.096881109999998 156.6228554403321,3.096881109999998 C156.3944484403321,3.096881109999998 156.20242104033207,3.16829946 156.0468820403321,3.311029249999997 C155.89123414033207,3.453865950000001 155.81357354033207,3.6235379900000027 155.81357354033207,3.8203661200000028 C155.81357354033207,3.9400025500000027 155.8520226403321,4.080807890000003 155.92881184033212,4.242889060000003 C156.00560104033207,4.404970229999996 156.1365239403321,4.6306650499999975 156.32168934033206,4.9200804399999996 L158.43660544033207,8.13219565 L158.43660544033207,10.823427299999999 C158.43660544033207,11.178487699999998 158.51731584033206,11.441816099999997 158.6788454403321,11.613412600000004 C158.84026614033206,11.785009099999996 159.05102794033206,11.870967700000001 159.3109131403321,11.870967700000001 C159.5668770403321,11.870967700000001 159.7776389403321,11.784153799999999 159.94308974033208,11.610526 C160.1085404403321,11.4368981 160.19121134033207,11.174531899999998 160.19121134033207,10.823427299999999 L160.19121134033207,8.13208873 L162.35938974033212,4.873679889999998 C162.54052514033208,4.607464780000001 162.6685071403321,4.399089979999999 162.7434447403321,4.248662400000001 C162.8181644403321,4.098234820000002 162.8557421403321,3.9477003300000035 162.8557421403321,3.7972727599999985 C162.8557421403321,3.6120982300000017 162.78189374033207,3.449161750000002 162.63419704033208,3.3082494900000015 C162.48628254033207,3.167337240000002 162.3020974403321,3.096881109999998 162.08153274033208,3.096881109999998 zM173.86640214033207,3.096881109999998 C173.6378861403321,3.096881109999998 173.46361284033208,3.1547214200000013 173.34358204033208,3.2705089600000012 C173.2234423403321,3.3862964899999994 173.1387019403321,3.5174796000000015 173.0895786403321,3.6640582900000007 C173.04023744033208,3.810743879999997 172.98817334033208,4.013238430000001 172.93305934033208,4.271755759999998 L171.7986487403321,9.2259228 L170.5166503403321,4.590144760000001 C170.41034354033206,4.208142109999997 170.32560314033208,3.934229209999998 170.2626469403321,3.7682991399999963 C170.19958174033206,3.602476000000003 170.0863040403321,3.4490548400000023 169.92292274033207,3.3082494900000015 C169.75943264033208,3.1674441500000015 169.53004524033207,3.0969880199999977 169.23465194033207,3.0969880199999977 C168.94317974033208,3.0969880199999977 168.71270324033208,3.164557479999999 168.54344024033207,3.2995894800000016 C168.3740683403321,3.4347283999999974 168.2519680403321,3.594778210000001 168.1771394403321,3.779952739999999 C168.1023108403321,3.9651272699999964 168.01757044033207,4.235298190000002 167.9231360403321,4.590251670000001 L166.6531189403321,9.2259228 L165.5188172403321,4.271755759999998 C165.43614634033207,3.889753110000001 165.33953354033207,3.598520190000002 165.2293056403321,3.3978431700000016 C165.1189687403321,3.1972730700000014 164.90439474033207,3.096881109999998 164.58536554033208,3.096881109999998 C164.3529284403321,3.096881109999998 164.15796014033208,3.1721483500000005 164.0004606403321,3.3225759299999993 C163.84285214033207,3.4730034999999972 163.7641023403321,3.6582849500000023 163.7641023403321,3.8782064299999988 C163.7641023403321,4.051834280000001 163.8073439403321,4.3045782599999995 163.8940449403321,4.636331480000003 L165.3355034403321,10.348623599999996 C165.37885394033208,10.5185094 165.4279772403321,10.7026148 165.4832001403321,10.901367399999998 C165.53831404033207,11.100120000000004 165.6092215403321,11.271716499999997 165.6959225403321,11.4164776 C165.78251464033207,11.561131799999998 165.89579224033207,11.6731774 166.03564664033212,11.752186600000002 C166.1753920403321,11.831195800000003 166.35358664033208,11.870860800000003 166.5703390403321,11.870860800000003 C166.83806654033208,11.870860800000003 167.05274954033206,11.804360500000001 167.2142791403321,11.671252899999999 C167.37569984033206,11.538145399999998 167.4889775403321,11.387610899999999 167.55400324033207,11.2198633 C167.61902904033207,11.052008799999996 167.7066013403321,10.775209199999999 167.8169382403321,10.389357699999998 L169.23476084033206,5.3020830899999964 L170.6348294403321,10.389357699999998 C170.74897854033208,10.786755900000003 170.83764004033208,11.0675113 170.90070524033212,11.231409999999997 C170.9636615403321,11.3954156 171.07595884033208,11.543063400000001 171.2374885403321,11.674139600000004 C171.3989092403321,11.805322699999998 171.61359224033208,11.870967700000001 171.88142854033208,11.870967700000001 C172.1649495403321,11.870967700000001 172.38453394033212,11.803398299999998 172.54018184033208,11.668366300000002 C172.69572084033206,11.5333343 172.80605764033209,11.376064200000002 172.87097444033208,11.196663000000001 C172.93600024033208,11.0172618 173.01769084033208,10.734688900000002 173.1161552403321,10.3488374 L174.55761384033207,4.636545300000002 C174.64420584033206,4.289289609999997 174.6875563403321,4.036652529999998 174.6875563403321,3.8784202599999986 C174.6875563403321,3.6546498800000022 174.6078263403321,3.468513129999998 174.4482572403321,3.3199030899999973 C174.28879714033206,3.1711861300000024 174.09480914033207,3.096881109999998 173.86640214033207,3.096881109999998 zM176.7907090403321,3.096881109999998 C176.5346361403321,3.096881109999998 176.3259437403321,3.1836950300000026 176.16452304033209,3.357322879999998 C176.0029934403321,3.5309507300000007 175.92228314033207,3.7913925000000006 175.92228314033207,4.138648199999999 L175.92228314033207,10.823213500000001 C175.92228314033207,11.1704692 176.00397374033207,11.431873199999998 176.16746394033208,11.607425499999998 C176.3308452403321,11.782977799999998 176.5386661403321,11.870753899999997 176.7907090403321,11.870753899999997 C177.0545153403321,11.870753899999997 177.2682180403321,11.783940000000001 177.43170824033206,11.610312100000002 C177.59508944033206,11.436684299999996 177.67688904033207,11.1743181 177.67688904033207,10.823213500000001 L177.67688904033207,4.138648199999999 C177.67688904033207,3.7876505199999997 177.59508944033206,3.5261396100000013 177.43170824033206,3.354436210000003 C177.2682180403321,3.182839719999997 177.0545153403321,3.096881109999998 176.7907090403321,3.096881109999998 zM185.33620304033207,7.362310090000001 C185.0585638403321,7.169437780000003 184.72178054033208,7.005432159999998 184.3259622403321,6.870400160000003 C183.9301438403321,6.735368149999999 183.4880341403321,6.6119897399999985 182.99963304033207,6.5000511 C182.60969644033207,6.403614939999997 182.3299876403321,6.330272139999998 182.1607246403321,6.280129619999997 C181.9913527403321,6.229987090000002 181.82405034033206,6.160600099999996 181.6585995403321,6.071754820000002 C181.49314884033208,5.98301644 181.3632062403321,5.876958049999999 181.2686629403321,5.753472729999999 C181.1741196403321,5.630094319999998 181.12684794033208,5.48340872 181.12684794033208,5.3136297699999995 C181.12684794033208,5.0397168699999995 181.2657220403321,4.805362039999999 181.54336134033207,4.610458360000003 C181.82100054033208,4.4156616 182.18632104033207,4.318156299999998 182.63921394033207,4.318156299999998 C183.12750614033206,4.318156299999998 183.48193454033208,4.407856899999999 183.7026082403321,4.587258089999999 C183.9231729403321,4.766659279999999 184.1121505403321,5.016516590000002 184.26975904033208,5.336723130000003 C184.3917504403321,5.5604935 184.5050280403321,5.721612450000002 184.6094831403321,5.8199730500000015 C184.7138293403321,5.918333660000002 184.86642744033207,5.967513959999998 185.0672775403321,5.967513959999998 C185.2878422403321,5.967513959999998 185.4719184403321,5.885618059999999 185.6196151403321,5.721505530000002 C185.76731184033207,5.5576068299999974 185.84116014033208,5.373394529999999 185.84116014033208,5.1687616999999975 C185.84116014033208,4.9449913300000015 185.78212504033212,4.715447609999998 185.6639459403321,4.48002365 C185.5457667403321,4.24470659 185.35864074033208,4.019867079999997 185.10267674033207,3.8057189399999984 C184.84660384033208,3.5915707999999995 184.52463384033211,3.4199743100000006 184.13676674033206,3.2906087300000024 C183.74879064033206,3.1613500699999975 183.2890357403321,3.096774189999998 182.7572841403321,3.096774189999998 C182.0916688403321,3.096774189999998 181.51275454033208,3.1942794899999996 181.0204323403321,3.3890762500000022 C180.5280011403321,3.583979929999998 180.15200644033206,3.862703940000003 179.8920123403321,4.225355210000004 C179.63201824033212,4.5881133999999975 179.5020757403321,5.002831639999997 179.5020757403321,5.469723770000002 C179.5020757403321,5.959816169999996 179.6251562403321,6.369723300000004 179.8713173403321,6.699552060000002 C180.1173695403321,7.02948774 180.4502316403321,7.289822600000001 180.86968584033207,7.4808773800000035 C181.2891400403321,7.671825249999998 181.80989064033207,7.838824450000004 182.4322643403321,7.981447330000002 C182.8969206403321,8.085581269999999 183.26823184033208,8.184048789999999 183.5458711403321,8.27663605 C183.82351034033206,8.369223320000003 184.0499567403321,8.5032931 184.2252104403321,8.67884539 C184.4004640403321,8.854504599999999 184.4881453403321,9.083086100000003 184.4881453403321,9.364696780000003 C184.4881453403321,9.719757180000002 184.3257443403321,10.015801199999999 184.0007245403321,10.253042700000002 C183.67581364033208,10.490284199999998 183.2534186403321,10.608958399999999 182.7335394403321,10.608958399999999 C182.3554751403321,10.608958399999999 182.0501700403321,10.5501559 181.8178418403321,10.432443900000003 C181.58540474033208,10.314838800000004 181.4052496403321,10.165266600000002 181.27726764033207,9.983940930000003 C181.1492856403321,9.8026153 181.0300173403321,9.576920479999998 180.9198983403321,9.30674956 C180.8292762403321,9.079130290000002 180.7199197403321,8.907426889999996 180.59204664033206,8.791639349999997 C180.46406464033208,8.675851809999997 180.30743644033208,8.618011500000001 180.1223799403321,8.618011500000001 C179.8938639403321,8.618011500000001 179.7058666403321,8.692316519999999 179.5581699403321,8.84081965 C179.41047324033207,8.989429690000001 179.33662494033211,9.167761749999997 179.33662494033211,9.376136549999998 C179.33662494033211,9.734938929999998 179.45970544033207,10.104432700000004 179.7058666403321,10.484403999999998 C179.9519188403321,10.864482199999998 180.2720371403321,11.1683309 180.66589494033207,11.395950200000001 C181.2211734403321,11.712414699999997 181.92621804033212,11.8705401 182.78081104033208,11.8705401 C183.4935890403321,11.8705401 184.1100810403321,11.754752500000002 184.6299603403321,11.523284400000001 C185.1498395403321,11.2918162 185.5446775403321,10.971609700000002 185.81447454033207,10.562557900000002 C186.0841625403321,10.153613 186.21911544033208,9.692494189999998 186.21911544033208,9.179308429999999 C186.21911544033208,8.75101214 186.1413459403321,8.389323089999998 185.98580704033208,8.094134369999999 C185.83048584033207,7.799266379999999 185.6138423403321,7.55528932 185.33620304033207,7.362310090000001 zM194.77081804033207,3.354436210000003 C194.60732784033206,3.182839719999997 194.39362514033206,3.096881109999998 194.12981884033212,3.096881109999998 C193.86993364033208,3.096881109999998 193.66015214033206,3.1836950300000026 193.50069204033207,3.357322879999998 C193.34112294033207,3.5309507300000007 193.2613929403321,3.7913925000000006 193.2613929403321,4.138648199999999 L193.2613929403321,6.5694380899999985 L189.47454174033209,6.5694380899999985 L189.47454174033209,4.138648199999999 C189.47454174033209,3.7876505199999997 189.3927422403321,3.5261396100000013 189.22936094033207,3.354436210000003 C189.06587074033206,3.182839719999997 188.85216804033206,3.096881109999998 188.58836174033212,3.096881109999998 C188.3205253403321,3.096881109999998 188.10878324033212,3.1836950300000026 187.9532443403321,3.357322879999998 C187.7975964403321,3.5309507300000007 187.71993584033208,3.7913925000000006 187.71993584033208,4.138648199999999 L187.71993584033208,10.823213500000001 C187.71993584033208,11.1704692 187.79868564033205,11.431873199999998 187.95629404033207,11.607425499999998 C188.11379364033206,11.782977799999998 188.32455544033206,11.870753899999997 188.58836174033212,11.870753899999997 C188.8483558403321,11.870753899999997 189.06096934033206,11.783940000000001 189.22642004033207,11.610312100000002 C189.3918708403321,11.436684299999996 189.47454174033209,11.1743181 189.47454174033209,10.823213500000001 L189.47454174033209,7.970007559999999 L193.2613929403321,7.970007559999999 L193.2613929403321,10.8233204 C193.2613929403321,11.170576099999998 193.3401426403321,11.431980100000004 193.49775114033207,11.607532399999997 C193.6552506403321,11.783084700000003 193.86601254033206,11.870860800000003 194.12981884033212,11.870860800000003 C194.38981284033207,11.870860800000003 194.6024263403321,11.7840469 194.76787714033208,11.610419100000001 C194.9333279403321,11.436791200000002 195.0159988403321,11.174425 195.0159988403321,10.823213500000001 L195.0159988403321,4.138648199999999 C195.0159988403321,3.78754361 194.93419924033208,3.5261396100000013 194.77081804033207,3.354436210000003 z" id="Shape" fill="#FFFFFF" fill-rule="nonzero"/>
                    </g>
                </g>
                <rect id="Rectangle-Copy-26" fill="#FFFFFF" opacity="0.5" x="105.01599884033209" y="8" width="1" height="20"/>
            </g>
        </g>
    </g></g></svg>