<svg width="157" height="49" viewBox="0 0 157 49" fill="none" xmlns="http://www.w3.org/2000/svg">
<path opacity="0.5" d="M55.168 39.289C56.3047 39.289 57.1773 39.4907 57.786 39.894C58.3947 40.29 58.699 40.9427 58.699 41.852C58.699 42.7687 58.391 43.4323 57.775 43.843C57.159 44.2463 56.279 44.448 55.135 44.448H54.596V47H52.88V39.487C53.254 39.4137 53.65 39.3623 54.068 39.333C54.486 39.3037 54.8527 39.289 55.168 39.289ZM55.278 40.752C55.1533 40.752 55.0287 40.7557 54.904 40.763C54.7867 40.7703 54.684 40.7777 54.596 40.785V42.985H55.135C55.729 42.985 56.1763 42.9043 56.477 42.743C56.7777 42.5817 56.928 42.281 56.928 41.841C56.928 41.6283 56.8877 41.4523 56.807 41.313C56.7337 41.1737 56.6237 41.0637 56.477 40.983C56.3377 40.895 56.1653 40.8363 55.96 40.807C55.7547 40.7703 55.5273 40.752 55.278 40.752ZM64.5351 41.379C64.5351 41.6577 64.4801 41.9253 64.3701 42.182C64.2601 42.4387 64.1171 42.688 63.9411 42.93C63.7651 43.1647 63.5671 43.392 63.3471 43.612C63.1271 43.832 62.9108 44.041 62.6981 44.239C62.5881 44.3417 62.4671 44.459 62.3351 44.591C62.2104 44.7157 62.0894 44.844 61.9721 44.976C61.8548 45.108 61.7484 45.2327 61.6531 45.35C61.5651 45.46 61.5101 45.5517 61.4881 45.625H64.7661V47H59.6841C59.6694 46.9193 59.6621 46.8167 59.6621 46.692C59.6621 46.5673 59.6621 46.4793 59.6621 46.428C59.6621 46.076 59.7171 45.7533 59.8271 45.46C59.9444 45.1667 60.0948 44.8953 60.2781 44.646C60.4614 44.3893 60.6668 44.151 60.8941 43.931C61.1288 43.711 61.3598 43.491 61.5871 43.271C61.7631 43.1023 61.9281 42.9447 62.0821 42.798C62.2361 42.644 62.3718 42.4973 62.4891 42.358C62.6064 42.2113 62.6981 42.0683 62.7641 41.929C62.8301 41.7823 62.8631 41.6357 62.8631 41.489C62.8631 41.1663 62.7714 40.939 62.5881 40.807C62.4048 40.675 62.1774 40.609 61.9061 40.609C61.7081 40.609 61.5211 40.642 61.3451 40.708C61.1764 40.7667 61.0188 40.84 60.8721 40.928C60.7328 41.0087 60.6118 41.093 60.5091 41.181C60.4064 41.2617 60.3294 41.3277 60.2781 41.379L59.4641 40.235C59.7868 39.9343 60.1608 39.6887 60.5861 39.498C61.0188 39.3 61.4808 39.201 61.9721 39.201C62.4194 39.201 62.8044 39.2523 63.1271 39.355C63.4498 39.4577 63.7138 39.6043 63.9191 39.795C64.1318 39.9783 64.2858 40.2057 64.3811 40.477C64.4838 40.741 64.5351 41.0417 64.5351 41.379ZM68.4991 39.289C69.6357 39.289 70.5084 39.4907 71.1171 39.894C71.7257 40.29 72.0301 40.9427 72.0301 41.852C72.0301 42.7687 71.7221 43.4323 71.1061 43.843C70.4901 44.2463 69.6101 44.448 68.4661 44.448H67.9271V47H66.2111V39.487C66.5851 39.4137 66.9811 39.3623 67.3991 39.333C67.8171 39.3037 68.1837 39.289 68.4991 39.289ZM68.6091 40.752C68.4844 40.752 68.3597 40.7557 68.2351 40.763C68.1177 40.7703 68.0151 40.7777 67.9271 40.785V42.985H68.4661C69.0601 42.985 69.5074 42.9043 69.8081 42.743C70.1087 42.5817 70.2591 42.281 70.2591 41.841C70.2591 41.6283 70.2187 41.4523 70.1381 41.313C70.0647 41.1737 69.9547 41.0637 69.8081 40.983C69.6687 40.895 69.4964 40.8363 69.2911 40.807C69.0857 40.7703 68.8584 40.752 68.6091 40.752ZM81.5867 39.377V40.84H79.2877V47H77.5717V40.84H75.2727V39.377H81.5867ZM84.9226 39.289C86.0666 39.289 86.9429 39.4943 87.5516 39.905C88.1602 40.3083 88.4646 40.939 88.4646 41.797C88.4646 42.3323 88.3399 42.7687 88.0906 43.106C87.8486 43.436 87.4966 43.6963 87.0346 43.887C87.1886 44.0777 87.3499 44.2977 87.5186 44.547C87.6872 44.789 87.8522 45.0457 88.0136 45.317C88.1822 45.581 88.3436 45.8597 88.4976 46.153C88.6516 46.439 88.7946 46.7213 88.9266 47H87.0016C86.8622 46.7507 86.7192 46.4977 86.5726 46.241C86.4332 45.9843 86.2866 45.735 86.1326 45.493C85.9859 45.251 85.8392 45.0237 85.6926 44.811C85.5459 44.591 85.3992 44.393 85.2526 44.217H84.4056V47H82.6896V39.487C83.0636 39.4137 83.4486 39.3623 83.8446 39.333C84.2479 39.3037 84.6072 39.289 84.9226 39.289ZM85.0216 40.752C84.8969 40.752 84.7832 40.7557 84.6806 40.763C84.5852 40.7703 84.4936 40.7777 84.4056 40.785V42.853H84.8896C85.5349 42.853 85.9969 42.7723 86.2756 42.611C86.5542 42.4497 86.6936 42.1747 86.6936 41.786C86.6936 41.412 86.5506 41.148 86.2646 40.994C85.9859 40.8327 85.5716 40.752 85.0216 40.752ZM95.4742 47C95.3936 46.736 95.3019 46.4647 95.1992 46.186C95.1039 45.9073 95.0086 45.6287 94.9132 45.35H91.9432C91.8479 45.6287 91.7489 45.9073 91.6462 46.186C91.5509 46.4647 91.4629 46.736 91.3822 47H89.6002C89.8862 46.1787 90.1576 45.4197 90.4142 44.723C90.6709 44.0263 90.9202 43.37 91.1622 42.754C91.4116 42.138 91.6536 41.555 91.8882 41.005C92.1302 40.4477 92.3796 39.905 92.6362 39.377H94.2752C94.5246 39.905 94.7702 40.4477 95.0122 41.005C95.2542 41.555 95.4962 42.138 95.7382 42.754C95.9876 43.37 96.2406 44.0263 96.4972 44.723C96.7539 45.4197 97.0252 46.1787 97.3112 47H95.4742ZM93.4172 41.104C93.3806 41.214 93.3256 41.3643 93.2522 41.555C93.1789 41.7457 93.0946 41.9657 92.9992 42.215C92.9039 42.4643 92.7976 42.7393 92.6802 43.04C92.5702 43.3407 92.4566 43.656 92.3392 43.986H94.5062C94.3889 43.656 94.2752 43.3407 94.1652 43.04C94.0552 42.7393 93.9489 42.4643 93.8462 42.215C93.7509 41.9657 93.6666 41.7457 93.5932 41.555C93.5199 41.3643 93.4612 41.214 93.4172 41.104ZM100.014 45.603C100.095 45.6103 100.186 45.6177 100.289 45.625C100.399 45.625 100.527 45.625 100.674 45.625C101.532 45.625 102.166 45.4087 102.577 44.976C102.995 44.5433 103.204 43.9457 103.204 43.183C103.204 42.3837 103.006 41.7787 102.61 41.368C102.214 40.9573 101.587 40.752 100.729 40.752C100.612 40.752 100.491 40.7557 100.366 40.763C100.241 40.763 100.124 40.7703 100.014 40.785V45.603ZM104.975 43.183C104.975 43.843 104.872 44.4187 104.667 44.91C104.462 45.4013 104.168 45.8083 103.787 46.131C103.413 46.4537 102.955 46.6957 102.412 46.857C101.869 47.0183 101.261 47.099 100.586 47.099C100.278 47.099 99.9186 47.0843 99.508 47.055C99.0973 47.033 98.694 46.9817 98.298 46.901V39.476C98.694 39.4027 99.1046 39.355 99.53 39.333C99.9626 39.3037 100.333 39.289 100.641 39.289C101.294 39.289 101.884 39.3623 102.412 39.509C102.947 39.6557 103.406 39.8867 103.787 40.202C104.168 40.5173 104.462 40.9207 104.667 41.412C104.872 41.9033 104.975 42.4937 104.975 43.183ZM106.408 47V39.377H111.556V40.818H108.124V42.314H111.171V43.722H108.124V45.559H111.809V47H106.408ZM115.158 45.691C115.4 45.691 115.598 45.6727 115.752 45.636C115.914 45.592 116.042 45.537 116.137 45.471C116.233 45.3977 116.299 45.3133 116.335 45.218C116.372 45.1227 116.39 45.0163 116.39 44.899C116.39 44.6497 116.273 44.4443 116.038 44.283C115.804 44.1143 115.4 43.9347 114.828 43.744C114.579 43.656 114.33 43.557 114.08 43.447C113.831 43.3297 113.607 43.1867 113.409 43.018C113.211 42.842 113.05 42.633 112.925 42.391C112.801 42.1417 112.738 41.841 112.738 41.489C112.738 41.137 112.804 40.8217 112.936 40.543C113.068 40.257 113.255 40.015 113.497 39.817C113.739 39.619 114.033 39.4687 114.377 39.366C114.722 39.256 115.111 39.201 115.543 39.201C116.057 39.201 116.5 39.256 116.874 39.366C117.248 39.476 117.556 39.597 117.798 39.729L117.303 41.082C117.091 40.972 116.852 40.8767 116.588 40.796C116.332 40.708 116.02 40.664 115.653 40.664C115.243 40.664 114.946 40.7227 114.762 40.84C114.586 40.95 114.498 41.1223 114.498 41.357C114.498 41.4963 114.531 41.6137 114.597 41.709C114.663 41.8043 114.755 41.8923 114.872 41.973C114.997 42.0463 115.136 42.116 115.29 42.182C115.452 42.2407 115.628 42.303 115.818 42.369C116.214 42.5157 116.559 42.6623 116.852 42.809C117.146 42.9483 117.388 43.1133 117.578 43.304C117.776 43.4947 117.923 43.7183 118.018 43.975C118.114 44.2317 118.161 44.5433 118.161 44.91C118.161 45.6213 117.912 46.175 117.413 46.571C116.915 46.9597 116.163 47.154 115.158 47.154C114.821 47.154 114.517 47.132 114.245 47.088C113.974 47.0513 113.732 47.0037 113.519 46.945C113.314 46.8863 113.134 46.824 112.98 46.758C112.834 46.692 112.709 46.6297 112.606 46.571L113.09 45.207C113.318 45.3317 113.596 45.4453 113.926 45.548C114.264 45.6433 114.674 45.691 115.158 45.691Z" fill="black"/>
<path fill-rule="evenodd" clip-rule="evenodd" d="M31.5074 24.8698C29.5803 24.8698 28.0182 23.3131 28.0182 21.393V13.3628V12.8054C28.0182 10.885 26.456 9.32859 24.5291 9.32859C22.602 9.32859 21.382 10.8853 21.382 12.8054V13.5193V21.3928C21.382 23.3129 19.4774 24.8696 17.5505 24.8696C15.6234 24.8696 14.0614 23.3129 14.0614 21.3928V19.4324V13.4208C14.0269 13.4017 13.9918 13.3844 13.9573 13.3656V12.8054C13.9573 10.885 12.7075 9.32859 10.7806 9.32859C8.8535 9.32859 7.29146 10.8853 7.29146 12.8054V13.5167C7.29146 13.5167 7.39553 21.6473 7.8123 23.9334C8.22882 26.2198 9.58295 27.6281 11.3536 29.4987C13.1243 31.3692 10.4162 35.6763 6.87493 33.2861C3.33362 30.8959 1.5362 27.861 0.938062 23.9334C0.32852 19.9346 0 12.8811 0 12.8811C0 12.8811 0.138998 10.3537 0.465655 9.78843C1.78555 5.52186 5.76411 2.422 10.4679 2.422C13.1741 2.422 15.6404 3.4483 17.4984 5.13234C19.3563 3.4483 21.8227 2.422 24.5291 2.422C29.2327 2.422 33.2112 5.52186 34.5311 9.78843C34.8578 10.3537 34.9968 12.8811 34.9968 12.8811V19.4326V21.393C34.9968 23.3131 33.4345 24.8698 31.5074 24.8698Z" fill="#4D525D"/>
<path fill-rule="evenodd" clip-rule="evenodd" d="M10.7613 9.12068C12.6885 9.12068 14.2505 10.6774 14.2505 12.5975V20.6277V21.1851C14.2505 23.1055 15.8128 24.6621 17.7396 24.6621C19.6668 24.6621 21.229 23.1055 21.229 21.1851V20.4713V12.5975C21.229 10.6774 22.7911 9.12068 24.7182 9.12068C26.6453 9.12068 28.2076 10.6774 28.2076 12.5975V14.5579V20.5695C28.242 20.5886 28.2772 20.6058 28.3116 20.6247V21.1851C28.3116 23.1055 29.5615 24.6621 31.4883 24.6621C33.4155 24.6621 34.9775 23.1055 34.9775 21.1851V20.4738C34.9775 20.4738 34.8734 12.3432 34.4567 10.0571C34.0399 7.77098 32.686 6.36237 30.9154 4.49184C29.1447 2.6213 31.8527 -1.68578 35.394 0.70443C38.9353 3.09464 40.7328 6.12954 41.3309 10.0571C41.94 14.0559 42.2683 21.1094 42.2683 21.1094C42.2683 21.1094 42.1293 23.6368 41.8026 24.2021C40.4827 28.4686 36.5041 31.5685 31.8003 31.5685C29.0942 31.5685 26.6278 30.5422 24.7699 28.8582C22.9119 30.5422 20.4456 31.5685 17.7392 31.5685C13.0356 31.5685 9.05704 28.4686 7.73714 24.2021C7.41048 23.6368 7.27148 21.1094 7.27148 21.1094V14.5579V12.5975C7.27218 10.6774 8.83422 9.12068 10.7613 9.12068Z" fill="#FCD600"/>
<path d="M69.478 7.25005C69.0568 6.96856 68.4887 6.8277 67.7732 6.8277H66.6114C65.9125 6.8277 65.4054 6.8908 65.0896 7.01676C64.7739 7.14272 64.5404 7.36972 64.3888 7.69731C64.2373 8.0249 64.0647 8.55877 63.871 9.298L61.1812 19.4188L58.4913 9.298C58.2976 8.55877 58.1251 8.02513 57.9735 7.69731C57.8219 7.36972 57.5884 7.14272 57.2727 7.01676C56.957 6.8908 56.4496 6.8277 55.7509 6.8277H54.5891C53.8734 6.8277 53.3051 6.96856 52.8844 7.25005C52.4634 7.53154 52.2529 8.07566 52.2529 8.88217V23.5023C52.2529 24.2167 52.4127 24.7482 52.7328 25.0967C53.0527 25.4453 53.4653 25.6199 53.9703 25.6199C54.4923 25.6199 54.9111 25.4434 55.2268 25.0907C55.5426 24.7377 55.7004 24.2085 55.7004 23.5026V10.7476L58.668 22.5193C58.7691 22.9058 58.8678 23.2777 58.9649 23.6348C59.0615 23.992 59.1942 24.3175 59.3626 24.6115C59.5309 24.9058 59.7667 25.1473 60.0696 25.3363C60.3728 25.5254 60.7432 25.6199 61.1809 25.6199C61.7618 25.6199 62.2166 25.4728 62.5448 25.1787C62.8731 24.8846 63.0983 24.5591 63.2205 24.202C63.3425 23.8448 63.5004 23.2842 63.6941 22.5193L66.6617 10.7476V23.5026C66.6617 24.2083 66.8216 24.7377 67.1416 25.0907C67.4615 25.4437 67.8696 25.6199 68.3665 25.6199C68.8968 25.6199 69.3199 25.4434 69.6356 25.0907C69.9513 24.7377 70.1092 24.2085 70.1092 23.5026V8.88217C70.1092 8.07542 69.8987 7.53154 69.478 7.25005ZM85.8818 6.51268C85.5787 6.51268 85.3219 6.5674 85.1114 6.67659C84.9009 6.78579 84.7093 6.94342 84.5368 7.14923C84.364 7.35529 84.2064 7.57577 84.0632 7.81093C83.92 8.04632 83.7431 8.33619 83.5328 8.68054L80.0348 14.2891L76.575 8.68054C76.0446 7.81512 75.6467 7.23748 75.3816 6.94761C75.1164 6.65774 74.7268 6.51268 74.2135 6.51268C73.7252 6.51268 73.3147 6.66821 72.9823 6.97904C72.6496 7.2901 72.4835 7.65959 72.4835 8.08823C72.4835 8.34876 72.5657 8.6554 72.7299 9.00836C72.894 9.36133 73.1739 9.85283 73.5697 10.4831L78.0905 17.4782V23.3389C78.0905 24.1121 78.263 24.6856 78.6083 25.0593C78.9534 25.4329 79.4039 25.6201 79.9594 25.6201C80.5066 25.6201 80.9571 25.4311 81.3107 25.053C81.6644 24.6749 81.8411 24.1035 81.8411 23.3389V17.4779L86.4758 10.382C86.863 9.8023 87.1366 9.34852 87.2967 9.02093C87.4565 8.69335 87.5368 8.36553 87.5368 8.03794C87.5368 7.63468 87.3789 7.27985 87.0632 6.97298C86.747 6.66612 86.3533 6.51268 85.8818 6.51268ZM111.717 6.51268C111.229 6.51268 110.856 6.63864 110.6 6.8908C110.343 7.14295 110.162 7.42863 110.057 7.74783C109.951 8.06727 109.84 8.50825 109.722 9.07123L107.297 19.86L104.557 9.76459C104.329 8.93269 104.148 8.33619 104.014 7.97484C103.879 7.61373 103.637 7.27962 103.288 6.97298C102.938 6.66635 102.448 6.51292 101.816 6.51292C101.193 6.51292 100.701 6.66006 100.339 6.95412C99.9768 7.24842 99.7158 7.59696 99.5558 8.00022C99.3958 8.40348 99.2147 8.99183 99.0128 9.76482L96.2981 19.86L93.8734 9.07123C93.6967 8.23933 93.4902 7.60511 93.2546 7.16809C93.0187 6.73131 92.56 6.51268 91.8781 6.51268C91.3812 6.51268 90.9645 6.67659 90.6278 7.00418C90.2909 7.33177 90.1226 7.73526 90.1226 8.21419C90.1226 8.5923 90.215 9.1427 90.4003 9.86517L93.4816 22.3049C93.5742 22.6749 93.6792 23.0758 93.7973 23.5086C93.9151 23.9415 94.0667 24.3151 94.252 24.6304C94.4371 24.9454 94.6792 25.1894 94.9782 25.3615C95.2769 25.5335 95.6578 25.6199 96.1211 25.6199C96.6934 25.6199 97.1523 25.4751 97.4976 25.1852C97.8427 24.8953 98.0848 24.5675 98.2238 24.2022C98.3628 23.8367 98.55 23.2339 98.7858 22.3936L101.817 11.315L104.809 22.3936C105.053 23.259 105.243 23.8704 105.378 24.2274C105.512 24.5845 105.752 24.9061 106.098 25.1915C106.443 25.4772 106.902 25.6201 107.474 25.6201C108.08 25.6201 108.549 25.473 108.882 25.1789C109.215 24.8849 109.451 24.5424 109.589 24.1517C109.728 23.761 109.903 23.1457 110.113 22.3054L113.195 9.86563C113.38 9.10941 113.472 8.55924 113.472 8.21465C113.472 7.72735 113.302 7.32199 112.961 6.99836C112.62 6.6745 112.205 6.51268 111.717 6.51268ZM117.968 6.51268C117.421 6.51268 116.975 6.70174 116.63 7.07985C116.284 7.45796 116.112 8.02513 116.112 8.78136V23.3384C116.112 24.0947 116.286 24.6639 116.636 25.0462C116.985 25.4285 117.429 25.6197 117.968 25.6197C118.532 25.6197 118.989 25.4306 119.338 25.0525C119.687 24.6744 119.862 24.103 119.862 23.3384V8.78136C119.862 8.01698 119.687 7.44749 119.338 7.07357C118.989 6.69988 118.532 6.51268 117.968 6.51268ZM136.235 15.8016C135.641 15.3816 134.921 15.0244 134.075 14.7303C133.229 14.4363 132.284 14.1676 131.24 13.9238C130.407 13.7138 129.809 13.5541 129.447 13.4449C129.085 13.3357 128.727 13.1846 128.374 12.9911C128.02 12.7979 127.742 12.5669 127.54 12.298C127.338 12.0293 127.237 11.7099 127.237 11.3401C127.237 10.7436 127.534 10.2333 128.127 9.80882C128.721 9.38461 129.502 9.17227 130.47 9.17227C131.513 9.17227 132.271 9.36761 132.743 9.7583C133.214 10.149 133.618 10.6931 133.955 11.3904C134.216 11.8777 134.458 12.2286 134.681 12.4428C134.904 12.657 135.231 12.7641 135.66 12.7641C136.131 12.7641 136.525 12.5858 136.841 12.2284C137.156 11.8714 137.314 11.4703 137.314 11.0246C137.314 10.5373 137.188 10.0375 136.935 9.52477C136.683 9.01232 136.283 8.52268 135.736 8.05633C135.188 7.58998 134.5 7.21629 133.671 6.93457C132.842 6.65308 131.859 6.51245 130.722 6.51245C129.299 6.51245 128.062 6.72479 127.009 7.149C125.957 7.57345 125.153 8.18043 124.597 8.97018C124.042 9.76016 123.764 10.6633 123.764 11.6801C123.764 12.7473 124.027 13.64 124.553 14.3583C125.079 15.0768 125.791 15.6437 126.687 16.0598C127.584 16.4756 128.697 16.8393 130.027 17.1499C131.021 17.3767 131.814 17.5911 132.408 17.7927C133.001 17.9943 133.485 18.2863 133.86 18.6686C134.235 19.0511 134.422 19.5489 134.422 20.1622C134.422 20.9354 134.075 21.5801 133.38 22.0968C132.686 22.6134 131.783 22.8718 130.671 22.8718C129.863 22.8718 129.211 22.7438 128.714 22.4874C128.217 22.2313 127.832 21.9056 127.558 21.5107C127.285 21.1159 127.03 20.6244 126.795 20.036C126.601 19.5403 126.367 19.1664 126.094 18.9142C125.82 18.6621 125.485 18.5361 125.09 18.5361C124.601 18.5361 124.199 18.6979 123.884 19.0213C123.568 19.345 123.41 19.7333 123.41 20.1871C123.41 20.9685 123.673 21.7731 124.199 22.6006C124.725 23.4283 125.41 24.09 126.252 24.5857C127.439 25.2749 128.946 25.6192 130.772 25.6192C132.296 25.6192 133.614 25.3671 134.725 24.863C135.836 24.3589 136.68 23.6616 137.257 22.7708C137.834 21.8802 138.122 20.876 138.122 19.7585C138.122 18.8258 137.956 18.0381 137.623 17.3953C137.291 16.7531 136.828 16.2218 136.235 15.8016ZM156.402 7.07357C156.053 6.69988 155.596 6.51268 155.032 6.51268C154.476 6.51268 154.028 6.70174 153.687 7.07985C153.346 7.45796 153.176 8.02513 153.176 8.78136V14.0749H145.081V8.78136C145.081 8.01698 144.906 7.44749 144.557 7.07357C144.207 6.69988 143.75 6.51268 143.187 6.51268C142.614 6.51268 142.161 6.70174 141.829 7.07985C141.496 7.45796 141.33 8.02513 141.33 8.78136V23.3384C141.33 24.0947 141.499 24.6639 141.835 25.0462C142.172 25.4285 142.623 25.6197 143.187 25.6197C143.742 25.6197 144.197 25.4306 144.55 25.0525C144.904 24.6744 145.081 24.103 145.081 23.3384V17.125H153.176V23.3387C153.176 24.0949 153.344 24.6642 153.681 25.0465C154.017 25.4288 154.468 25.6199 155.032 25.6199C155.588 25.6199 156.042 25.4309 156.396 25.0527C156.749 24.6746 156.926 24.1033 156.926 23.3384V8.78136C156.926 8.01675 156.751 7.44749 156.402 7.07357Z" fill="#4D525D"/>
</svg>
