<svg width="207" height="17" viewBox="0 0 207 17" fill="none" xmlns="http://www.w3.org/2000/svg">
<path d="M0.660194 14.9789C0.288835 14.6901 0 14.1536 0 13.6172C0 12.6682 0.742718 11.9667 1.69175 11.9667C2.14563 11.9667 2.47573 12.1318 2.7233 12.2968C3.96116 13.2046 5.32281 13.7823 6.93204 13.7823C8.41747 13.7823 9.28398 13.2046 9.28398 12.2143V12.1731C9.28398 11.2653 8.70631 10.7701 5.98301 10.0687C2.68204 9.24345 0.536408 8.29442 0.536408 5.03471V4.99345C0.536408 2.02257 2.92961 0.0419922 6.27184 0.0419922C8.25243 0.0419922 9.98543 0.537138 11.4709 1.48617C11.8835 1.73374 12.2549 2.22889 12.2549 2.93034C12.2549 3.87937 11.5121 4.58083 10.5631 4.58083C10.1917 4.58083 9.94417 4.4983 9.65534 4.33325C8.45874 3.6318 7.34466 3.21918 6.18932 3.21918C4.78641 3.21918 4.08495 3.83811 4.08495 4.66335V4.70461C4.08495 5.77743 4.78641 6.14879 7.63349 6.85024C10.9757 7.71675 12.8325 8.91335 12.8325 11.7604V11.8017C12.8325 15.0614 10.3568 16.8769 6.80825 16.8769C4.70388 16.9182 2.51699 16.258 0.660194 14.9789Z" fill="white"/>
<path d="M13.8223 2.59902C13.7397 2.39271 13.6985 2.14514 13.6985 1.93883C13.6985 0.948536 14.5237 0.164555 15.5553 0.164555C16.3805 0.164555 17.082 0.700963 17.3296 1.44368L20.5893 11.5116L23.8902 1.52621C24.1791 0.700963 24.798 0.0820312 25.7058 0.0820312H25.9946C26.9024 0.0820312 27.5626 0.659701 27.8101 1.52621L31.1111 11.5116L34.3708 1.44368C34.6184 0.742225 35.196 0.164555 36.1038 0.164555C37.0941 0.164555 37.8781 0.907274 37.8781 1.89756C37.8781 2.10388 37.7956 2.39271 37.7543 2.59902L33.0917 15.4728C32.7616 16.3806 32.1014 16.9582 31.2349 16.9582H30.8635C29.997 16.9582 29.3368 16.4218 29.0067 15.4728L25.7883 6.06504L22.5698 15.4728C22.2397 16.4218 21.5795 16.9582 20.713 16.9582H20.3417C19.4752 16.9582 18.7737 16.3806 18.4849 15.4728L13.8223 2.59902Z" fill="white"/>
<path d="M36.1453 14.3592L41.8807 1.44417C42.2933 0.536407 42.9948 0 43.9851 0H44.1914C45.1817 0 45.8831 0.536407 46.2957 1.44417L51.9899 14.3592C52.1137 14.6068 52.1962 14.8544 52.1962 15.1019C52.1962 16.051 51.4535 16.8349 50.5045 16.8349C49.6792 16.8349 49.1016 16.3398 48.7715 15.5971L47.6574 12.9976H40.4365L39.2812 15.6796C38.9923 16.3811 38.3734 16.7937 37.6307 16.7937C36.6817 16.7937 35.9802 16.051 35.9802 15.1019C35.939 14.8956 36.0215 14.648 36.1453 14.3592ZM46.2957 9.82038L44.0263 4.41505L41.7569 9.82038H46.2957Z" fill="white"/>
<path d="M53.8469 2.10655C53.8469 1.11626 54.6309 0.291016 55.6625 0.291016H60.5726C64.4925 0.291016 66.8445 2.60169 66.8445 5.98518V6.02645C66.8445 9.82256 63.8736 11.8031 60.2013 11.8031H57.478V15.0628C57.478 16.0531 56.694 16.8784 55.6625 16.8784C54.6309 16.8784 53.8469 16.0944 53.8469 15.0628V2.10655ZM60.3251 8.54343C62.1406 8.54343 63.1722 7.47062 63.1722 6.06771V6.02645C63.1722 4.41723 62.0581 3.55072 60.2426 3.55072H57.4367V8.5847H60.3251V8.54343Z" fill="white"/>
<path d="M84.1339 12.792C85.2892 12.792 86.1557 13.6585 86.1557 14.7726V14.8551C86.1557 15.9692 85.2892 16.8357 84.1339 16.8357C82.9786 16.8357 82.1121 15.9692 82.1121 14.8551V14.8138C82.1121 13.6585 82.9786 12.792 84.1339 12.792Z" fill="white"/>
<path d="M88.3005 1.97959C88.3005 0.989304 89.0845 0.164062 90.1161 0.164062H90.4874C91.3539 0.164062 91.8903 0.576683 92.3442 1.23688L99.3175 10.3971V1.93833C99.3175 0.948042 100.102 0.164062 101.092 0.164062C102.082 0.164062 102.866 0.948042 102.866 1.93833V15.0184C102.866 16.0087 102.082 16.8339 101.051 16.8339H100.927C100.06 16.8339 99.5238 16.4213 99.07 15.7611L91.8491 6.27085V15.0597C91.8491 16.05 91.0651 16.8339 90.0748 16.8339C89.0845 16.8339 88.3005 16.05 88.3005 15.0597V1.97959Z" fill="white"/>
<path d="M105.053 14.8978V2.10655C105.053 1.11626 105.837 0.291016 106.869 0.291016H115.947C116.854 0.291016 117.556 1.03373 117.556 1.90024C117.556 2.808 116.813 3.50946 115.947 3.50946H108.643V6.85169H114.915C115.823 6.85169 116.524 7.5944 116.524 8.46091C116.524 9.32741 115.782 10.0701 114.915 10.0701H108.643V13.5361H116.07C116.978 13.5361 117.68 14.2789 117.68 15.1454C117.68 16.0531 116.937 16.7546 116.07 16.7546H106.869C105.837 16.7133 105.053 15.8881 105.053 14.8978Z" fill="white"/>
<path d="M123.992 3.62812H120.526C119.619 3.62812 118.876 2.8854 118.876 1.97763C118.876 1.06987 119.619 0.327148 120.526 0.327148H131.089C131.997 0.327148 132.74 1.06987 132.74 1.97763C132.74 2.8854 131.997 3.62812 131.089 3.62812H127.623V15.0577C127.623 16.048 126.839 16.8733 125.808 16.8733C124.776 16.8733 123.992 16.0893 123.992 15.0577V3.62812V3.62812Z" fill="white"/>
<path d="M133.772 2.59902C133.689 2.39271 133.648 2.14513 133.648 1.93882C133.648 0.948535 134.473 0.164555 135.505 0.164555C136.33 0.164555 137.032 0.700962 137.279 1.44368L140.539 11.5116L143.84 1.5262C144.129 0.700962 144.748 0.0820312 145.655 0.0820312H145.944C146.852 0.0820312 147.512 0.6597 147.76 1.5262L151.061 11.5116L154.32 1.44368C154.568 0.742224 155.146 0.164555 156.053 0.164555C157.044 0.164555 157.828 0.907273 157.828 1.89756C157.828 2.10387 157.745 2.39271 157.704 2.59902L153.124 15.514C152.794 16.4218 152.133 16.9995 151.267 16.9995H150.896C150.029 16.9995 149.369 16.4631 149.039 15.514L145.82 6.10629L142.602 15.514C142.272 16.4631 141.612 16.9995 140.745 16.9995H140.374C139.507 16.9995 138.806 16.4218 138.517 15.514L133.772 2.59902Z" fill="white"/>
<path d="M157.456 8.54126V8.5C157.456 3.83738 161.128 0 166.204 0C171.279 0 174.91 3.75485 174.91 8.45874V8.5C174.91 13.1626 171.238 17 166.162 17C161.087 16.9587 157.456 13.2039 157.456 8.54126ZM171.114 8.54126V8.5C171.114 5.69417 169.051 3.34223 166.162 3.34223C163.274 3.34223 161.252 5.65291 161.252 8.45874V8.5C161.252 11.3058 163.315 13.6578 166.204 13.6578C169.092 13.6578 171.114 11.3471 171.114 8.54126Z" fill="white"/>
<path d="M176.932 2.10655C176.932 1.11626 177.716 0.291016 178.748 0.291016H184.442C186.546 0.291016 188.155 0.868685 189.228 1.9415C190.136 2.84927 190.631 4.12839 190.631 5.69636V5.73762C190.631 8.33713 189.352 9.90509 187.33 10.7303L189.847 13.7837C190.219 14.2376 190.425 14.609 190.425 15.1866C190.425 16.1769 189.6 16.8371 188.733 16.8371C187.908 16.8371 187.371 16.4245 186.959 15.8881L183.452 11.4318H180.563V15.0216C180.563 16.0119 179.779 16.8371 178.748 16.8371C177.716 16.8371 176.932 16.0532 176.932 15.0216V2.10655ZM184.194 8.25461C185.969 8.25461 186.959 7.30558 186.959 5.94393V5.90267C186.959 4.33471 185.886 3.55072 184.112 3.55072H180.522V8.25461H184.194Z" fill="white"/>
<path d="M192.735 1.93956C192.735 0.949266 193.519 0.124023 194.551 0.124023C195.582 0.124023 196.366 0.908004 196.366 1.93956V7.46868L203.009 0.866742C203.463 0.412858 203.917 0.165286 204.536 0.165286C205.526 0.165286 206.187 0.949266 206.187 1.81577C206.187 2.39344 205.939 2.80606 205.526 3.17742L200.905 7.50994L205.939 13.823C206.228 14.1944 206.434 14.5658 206.434 15.1022C206.434 16.0925 205.65 16.8764 204.619 16.8764C203.917 16.8764 203.505 16.5051 203.092 16.0099L198.388 9.86188L196.325 11.8012V15.1022C196.325 16.0925 195.541 16.9177 194.509 16.9177C193.478 16.9177 192.694 16.1337 192.694 15.1022V1.93956H192.735Z" fill="white"/>
<path d="M75.7482 6.79242C74.8346 6.55409 74.1593 6.35548 73.6429 6.1966L72.8882 7.70602L70.2268 2.62164L75.9071 1.70804L75.1524 3.25719C76.0263 3.37635 76.9002 3.73385 77.7741 4.28995C78.0521 4.44884 78.3302 4.52828 78.6877 4.52828C79.6013 4.52828 80.356 3.81329 80.356 2.85997C80.356 2.14498 79.9588 1.66831 79.5616 1.42998C78.0918 0.516383 76.3838 0 74.3977 0C71.0212 0 68.6776 1.94637 68.6776 4.9255V4.96522C68.6776 8.22241 70.7829 9.13601 74.0799 9.97016C75.0332 10.2085 75.7085 10.4468 76.1852 10.6454L76.9002 9.21545L79.5616 14.2998L73.8813 15.2134L74.6757 13.6246C73.206 13.5451 71.9349 13.0287 70.7829 12.1549C70.5446 11.996 70.2268 11.8371 69.7501 11.8371C68.8365 11.8371 68.0818 12.5521 68.0818 13.5054C68.0818 14.0615 68.3598 14.5779 68.7571 14.8559C70.5843 16.1668 72.7293 16.8023 74.8743 16.8023C78.4096 16.8023 80.8724 14.9751 80.8724 11.7576V11.7179C80.9121 8.85796 79.0452 7.6663 75.7482 6.79242Z" fill="#F8DB14"/>
</svg>
