<svg width="114" height="112" viewBox="0 0 114 112" fill="none" xmlns="http://www.w3.org/2000/svg">
<path d="M68.0468 65.7832L78.0685 71.6004C78.9555 72.1153 80.0533 72.1175 80.9424 71.6061L91.0696 65.7814C91.9498 65.2752 92.4915 64.3426 92.4915 63.3338V52.0192C92.4915 51.0034 91.9424 50.0656 91.0526 49.5619L80.9254 43.8289C80.0449 43.3304 78.9639 43.3326 78.0854 43.8345L68.0638 49.56C67.1796 50.0652 66.6348 50.9999 66.6348 52.0117V63.3413C66.6348 64.3461 67.1722 65.2755 68.0468 65.7832Z" stroke="#DDDDDD" stroke-width="1.01817"/>
<path d="M10.9843 98.7731L21.006 104.59C21.893 105.105 22.9908 105.107 23.8799 104.596L34.0071 98.7713C34.8873 98.265 35.429 97.3325 35.429 96.3236V85.0091C35.429 83.9933 34.8799 83.0554 33.9901 82.5518L23.8629 76.8187C22.9824 76.3203 21.9014 76.3224 21.0229 76.8243L11.0013 82.5499C10.1171 83.055 9.57227 83.9898 9.57227 85.0016V96.3311C9.57227 97.336 10.1097 98.2654 10.9843 98.7731Z" stroke="#DDDDDD" stroke-width="1.01817"/>
<path d="M25.5817 94.2783C25.5817 95.7779 26.7974 96.9935 28.2969 96.9935C29.7964 96.9935 31.012 95.7779 31.012 94.2783C31.012 92.7788 29.7964 91.5632 28.2969 91.5632C26.7974 91.5632 25.5817 92.7788 25.5817 94.2783ZM37.213 103.64L37.717 103.568L37.213 103.64ZM47.4665 110.773L47.3945 111.277L47.4665 110.773ZM53.262 106.315L53.3905 105.823L53.3683 105.817L53.3457 105.813L53.262 106.315ZM45.6833 102.749L45.1841 102.849L45.6833 102.749ZM51.033 98.2906L50.9377 98.7907L51.033 98.2906ZM65.2988 96.0616L65.3449 95.5546L65.2988 96.0616ZM61.7323 88.0371L61.6882 87.5299L61.7323 88.0371ZM66.6362 83.1332L67.1301 83.2567L66.6362 83.1332ZM63.0697 77.3377L62.69 77.6768L62.6996 77.6875L62.7098 77.6977L63.0697 77.3377ZM57.7201 78.2293L58.199 78.4019L57.7201 78.2293ZM56.8285 88.0371L56.9122 87.5349L56.8285 88.0371ZM73.7691 81.35L73.9301 80.867L73.7691 81.35ZM99.18 73.7713L99.1533 73.2629L99.18 73.7713ZM83.0907 60.8429C83.0907 62.3424 84.3063 63.558 85.8058 63.558C87.3054 63.558 88.521 62.3424 88.521 60.8429C88.521 59.3434 87.3054 58.1278 85.8058 58.1278C84.3063 58.1278 83.0907 59.3434 83.0907 60.8429ZM28.0587 94.7283C29.3228 95.3975 31.3282 96.4672 33.1052 97.9765C34.8861 99.489 36.3776 101.392 36.709 103.712L37.717 103.568C37.3351 100.895 35.6316 98.7863 33.7643 97.2004C31.8932 95.6113 29.7972 94.4966 28.5351 93.8284L28.0587 94.7283ZM36.709 103.712C37.1841 107.038 39.1056 108.838 41.2913 109.843C43.4374 110.829 45.87 111.059 47.3945 111.277L47.5385 110.269C45.9424 110.041 43.6941 109.826 41.7164 108.917C39.7784 108.027 38.1335 106.484 37.717 103.568L36.709 103.712ZM47.3945 111.277C49.5497 111.585 51.6506 111.626 53.4317 111.47C55.1963 111.316 56.7032 110.964 57.6335 110.446C58.0905 110.191 58.5 109.846 58.6519 109.377C58.8203 108.858 58.6227 108.365 58.2444 107.962C57.8767 107.57 57.2928 107.205 56.5104 106.859C55.7197 106.509 54.6885 106.161 53.3905 105.823L53.1335 106.808C54.3989 107.138 55.3738 107.469 56.0981 107.79C56.8309 108.114 57.2709 108.413 57.5022 108.659C57.723 108.894 57.6995 109.013 57.6833 109.063C57.6506 109.164 57.5168 109.345 57.1379 109.556C56.3965 109.969 55.0614 110.306 53.3431 110.456C51.6414 110.605 49.6186 110.566 47.5385 110.269L47.3945 111.277ZM53.3457 105.813C52.4617 105.666 50.7145 105.337 49.142 104.777C48.3543 104.496 47.6361 104.166 47.0973 103.788C46.5502 103.404 46.2565 103.019 46.1825 102.649L45.1841 102.849C45.333 103.593 45.8752 104.174 46.5123 104.621C47.1576 105.074 47.9719 105.441 48.8003 105.736C50.4599 106.327 52.2791 106.667 53.1783 106.817L53.3457 105.813ZM46.1825 102.649C46.1311 102.392 46.2142 102.003 46.5022 101.514C46.7819 101.04 47.2161 100.54 47.737 100.094C48.257 99.649 48.845 99.2736 49.4191 99.0356C49.9997 98.7949 50.5237 98.7118 50.9377 98.7907L51.1282 97.7905C50.4474 97.6608 49.7116 97.8121 49.0292 98.095C48.3404 98.3806 47.6622 98.8179 47.0748 99.3208C46.4882 99.823 45.9737 100.406 45.6252 100.997C45.2852 101.574 45.0607 102.231 45.1841 102.849L46.1825 102.649ZM50.9377 98.7907C53.3112 99.2428 54.9788 99.2934 56.2615 99.1052C57.5566 98.9152 58.4279 98.4861 59.2016 98.0368C59.9802 97.5846 60.5926 97.1599 61.4759 96.8641C62.3423 96.5739 63.4859 96.4079 65.2527 96.5686L65.3449 95.5546C63.4708 95.3842 62.1809 95.5542 61.1526 95.8986C60.1412 96.2373 59.3976 96.7456 58.6903 97.1563C57.978 97.57 57.2333 97.9336 56.1137 98.0978C54.9816 98.2639 53.4357 98.23 51.1282 97.7905L50.9377 98.7907ZM65.2527 96.5686C70.0843 97.0078 74.4749 98.654 78.0684 99.8331C79.8464 100.417 81.4586 100.895 82.8055 101.02C84.1573 101.144 85.3666 100.923 86.1924 99.9593L85.4193 99.2967C84.9076 99.8937 84.1109 100.118 82.8992 100.006C81.6828 99.8933 80.1743 99.4525 78.3859 98.8657C74.8465 97.7043 70.321 96.0069 65.3449 95.5546L65.2527 96.5686ZM86.1924 99.9593C86.6564 99.418 86.7476 98.7471 86.5814 98.0658C86.4196 97.4023 86.0121 96.7058 85.4429 96.0138C84.3007 94.6252 82.402 93.1284 80.0281 91.7841C75.2773 89.0938 68.4879 86.9386 61.6882 87.5299L61.7764 88.5442C68.3237 87.9749 74.9084 90.0549 79.5264 92.6701C81.8369 93.9785 83.6212 95.402 84.6566 96.6606C85.1761 97.2922 85.481 97.851 85.5923 98.307C85.6991 98.7452 85.6241 99.0579 85.4193 99.2967L86.1924 99.9593ZM61.6882 87.5299C56.5956 87.9727 53.8825 87.1769 52.5414 85.9848C51.2407 84.8285 51.1026 83.1706 51.5269 81.4734L50.5391 81.2265C50.0718 83.0958 50.1566 85.2272 51.865 86.7458C53.5331 88.2286 56.6155 88.993 61.7764 88.5442L61.6882 87.5299ZM51.5269 81.4734C51.76 80.5408 51.8462 79.6998 51.9027 78.9796C51.9609 78.2382 51.9859 77.681 52.0872 77.2253C52.1832 76.7932 52.3303 76.5442 52.5727 76.3798C52.8375 76.2 53.2998 76.0636 54.1536 76.0636V75.0454C53.2243 75.0454 52.5162 75.1876 52.001 75.5373C51.4631 75.9022 51.2202 76.4334 51.0933 77.0044C50.9716 77.5517 50.941 78.2204 50.8877 78.9C50.8327 79.6009 50.7517 80.3759 50.5391 81.2265L51.5269 81.4734ZM54.1536 76.0636C55.0772 76.0636 55.8823 75.9769 56.5813 75.8851C57.295 75.7914 57.8568 75.6993 58.3598 75.6728C58.8524 75.6469 59.2175 75.6903 59.5213 75.8293C59.8167 75.9645 60.1087 76.2155 60.4042 76.708L61.2773 76.1842C60.9041 75.5622 60.4715 75.1445 59.945 74.9035C59.4269 74.6664 58.8725 74.6262 58.3063 74.656C57.7505 74.6853 57.1142 74.7882 56.4487 74.8756C55.7685 74.9649 55.0132 75.0454 54.1536 75.0454V76.0636ZM60.4042 76.708C61.0313 77.7533 61.2232 78.5553 61.2232 79.3439C61.2232 80.17 61.0177 80.9899 60.7873 82.1418L61.7857 82.3414C62.0011 81.2643 62.2414 80.3009 62.2414 79.3439C62.2414 78.3491 61.9875 77.368 61.2773 76.1842L60.4042 76.708ZM60.7873 82.1418C60.3633 84.2619 59.1496 85.7448 57.2743 85.7448V86.7629C59.857 86.7629 61.3181 84.6794 61.7857 82.3414L60.7873 82.1418ZM57.2743 85.7448C56.7867 85.7448 56.0881 85.6199 55.3406 85.3909C54.5979 85.1634 53.8447 84.8447 53.2481 84.4816C52.6255 84.1026 52.2739 83.7357 52.1755 83.4533C52.1348 83.3366 52.1384 83.2395 52.1851 83.1368C52.2382 83.0201 52.3665 82.8561 52.6528 82.6652L52.088 81.818C51.7056 82.0729 51.416 82.3686 51.2583 82.7152C51.0943 83.0757 51.0944 83.4453 51.214 83.7883C51.436 84.4254 52.0596 84.9501 52.7187 85.3513C53.4038 85.7683 54.2388 86.1183 55.0424 86.3645C55.8413 86.6092 56.6473 86.7629 57.2743 86.7629V85.7448ZM52.6528 82.6652C54.0765 81.7161 55.0159 80.4169 55.7366 79.419C56.1072 78.9058 56.403 78.4963 56.6839 78.2092C56.9687 77.918 57.1498 77.8468 57.2743 77.8468V76.8286C56.73 76.8286 56.2981 77.1475 55.956 77.4972C55.61 77.8509 55.2649 78.333 54.9112 78.8229C54.183 79.8312 53.3392 80.9839 52.088 81.818L52.6528 82.6652ZM57.2743 77.8468C57.5985 77.8468 57.9806 77.8171 58.188 77.8118C58.4385 77.8054 58.6129 77.8209 58.7653 77.8741C59.0447 77.9716 59.4133 78.2571 59.9363 79.342L60.8535 78.8999C60.302 77.7558 59.779 77.1496 59.101 76.9128C58.7747 76.7989 58.4541 76.7865 58.1619 76.794C57.8268 76.8026 57.6188 76.8286 57.2743 76.8286V77.8468ZM59.9363 79.342C60.4979 80.5069 61.3363 81.4772 61.8866 82.2566C62.4697 83.0826 62.7394 83.6928 62.5759 84.3472L63.5636 84.5941C63.8458 83.4652 63.3154 82.5151 62.7184 81.6694C62.0884 80.777 61.3665 79.964 60.8535 78.8999L59.9363 79.342ZM62.5759 84.3472C62.5578 84.4195 62.4944 84.5321 62.3157 84.6679C62.1388 84.8025 61.8819 84.9338 61.5502 85.0481C60.8879 85.2765 60.0066 85.4104 59.0888 85.4104C58.1709 85.4104 57.2534 85.2765 56.514 84.9974C55.7668 84.7153 55.2732 84.3144 55.0688 83.8277L54.1301 84.222C54.4874 85.0727 55.2778 85.6191 56.1544 85.95C57.0389 86.2839 58.0852 86.4286 59.0888 86.4286C60.0924 86.4286 61.0901 86.2838 61.8821 86.0107C62.2777 85.8743 62.6418 85.6991 62.932 85.4784C63.2205 85.259 63.4703 84.9675 63.5636 84.5941L62.5759 84.3472ZM55.0688 83.8277C54.5529 82.5995 54.6967 81.6868 55.0903 81.1492C55.4802 80.6169 56.2117 80.3192 57.1744 80.5118L57.3741 79.5134C56.1078 79.2601 54.9401 79.6311 54.2689 80.5477C53.6015 81.459 53.5224 82.7753 54.1301 84.222L55.0688 83.8277ZM57.1744 80.5118C57.7302 80.6229 57.8123 80.7343 57.8119 80.7338C57.8056 80.7243 57.8391 80.7473 57.7765 81.0917C57.724 81.3803 57.6272 81.8155 57.6431 82.3473C57.6593 82.8892 57.7895 83.5188 58.1563 84.2525L59.067 83.7971C58.7651 83.1934 58.6725 82.7085 58.6608 82.317C58.6488 81.9154 58.7192 81.5983 58.7782 81.2739C58.827 81.0054 58.9162 80.5547 58.6591 80.169C58.408 79.7924 57.9329 79.6251 57.3741 79.5134L57.1744 80.5118ZM58.1563 84.2525C58.7951 85.5301 58.8865 86.3358 59.0679 87.0008C59.1586 87.3333 59.285 87.6749 59.5682 87.9582C59.8494 88.2394 60.2301 88.4092 60.7172 88.5309L60.9642 87.5432C60.5597 87.4421 60.3831 87.3332 60.2882 87.2382C60.1953 87.1454 60.1266 87.0133 60.0502 86.7329C59.8972 86.1719 59.7656 85.1944 59.067 83.7971L58.1563 84.2525ZM60.7172 88.5309C61.1879 88.6486 61.6316 88.3964 61.9538 88.1362C62.303 87.8542 62.6595 87.4422 63.0034 86.9607C63.6947 85.9929 64.3961 84.6579 64.9375 83.2615C65.4777 81.8686 65.874 80.3752 65.9259 79.0928C65.9764 77.8429 65.7013 76.5993 64.6597 76.0041L64.1546 76.8881C64.6734 77.1846 64.9555 77.8914 64.9085 79.0516C64.8629 80.1793 64.5069 81.5558 63.9882 82.8934C63.4709 84.2276 62.807 85.4838 62.1748 86.3689C61.857 86.8139 61.5622 87.1437 61.3141 87.3441C61.039 87.5663 60.9393 87.537 60.9642 87.5432L60.7172 88.5309ZM64.6597 76.0041C63.8926 75.5658 63.206 75.1264 62.5735 74.7164C61.9459 74.3094 61.3607 73.924 60.8172 73.6093C59.7446 72.9884 58.6969 72.5565 57.5966 72.8316L57.8435 73.8194C58.5265 73.6486 59.262 73.8855 60.307 74.4905C60.8223 74.7888 61.3795 75.1557 62.0196 75.5707C62.6549 75.9826 63.3614 76.4349 64.1546 76.8881L64.6597 76.0041ZM57.5966 72.8316C56.6316 73.0728 55.2212 73.7329 54.1545 74.6575C53.1051 75.5672 52.2239 76.8928 52.7846 78.4062L53.7394 78.0524C53.4086 77.1596 53.8647 76.2562 54.8214 75.4269C55.7609 74.6126 57.0253 74.0239 57.8435 73.8194L57.5966 72.8316ZM52.7846 78.4062C53.0046 78.9998 53.1631 79.5241 53.344 80.059C53.521 80.5823 53.7131 81.095 53.985 81.5949C54.5401 82.6156 55.3956 83.5251 57.0191 84.4654L57.5294 83.5843C56.0323 82.7173 55.3275 81.9322 54.8795 81.1085C54.6498 80.6862 54.4798 80.2393 54.3085 79.7328C54.1411 79.2378 53.9652 78.6619 53.7394 78.0524L52.7846 78.4062ZM57.0191 84.4654C58.7096 85.4444 61.0627 85.6641 63.0186 85.4309C64.0031 85.3136 64.9233 85.0775 65.6411 84.7395C66.3293 84.4154 66.9605 83.935 67.1301 83.2567L66.1423 83.0097C66.089 83.223 65.8285 83.5258 65.2072 83.8184C64.6154 84.0971 63.8082 84.3114 62.898 84.4199C61.0645 84.6385 58.9595 84.4125 57.5294 83.5843L57.0191 84.4654ZM67.1301 83.2567C67.2604 82.7353 67.1115 82.1497 66.8866 81.6162C66.6541 81.0646 66.3007 80.4774 65.9059 79.9109C65.1151 78.7763 64.1131 77.6611 63.4297 76.9777L62.7098 77.6977C63.3638 78.3518 64.3233 79.421 65.0706 80.4931C65.4448 81.03 65.7545 81.5518 65.9483 82.0116C66.1498 82.4895 66.1903 82.8178 66.1423 83.0097L67.1301 83.2567ZM63.4495 76.9987C62.8209 76.2947 61.7279 75.4233 60.5274 75.3042C59.9024 75.2422 59.2566 75.3866 58.6703 75.8462C58.0957 76.2967 57.6143 77.0211 57.2411 78.0568L58.199 78.4019C58.5326 77.476 58.9241 76.941 59.2985 76.6475C59.6611 76.3632 60.0405 76.2791 60.4269 76.3174C61.2494 76.399 62.1244 77.0433 62.69 77.6768L63.4495 76.9987ZM57.2411 78.0568C56.8312 79.1943 56.0467 80.2704 55.1907 81.2953C54.3634 82.2858 53.423 83.2759 52.8462 84.13C52.5527 84.5645 52.3117 85.0199 52.226 85.4806C52.1354 85.9671 52.221 86.4502 52.5563 86.8803C52.8731 87.2867 53.3804 87.604 54.0497 87.8645C54.7252 88.1275 55.6127 88.3505 56.7448 88.5392L56.9122 87.5349C55.8152 87.3521 55.0036 87.1433 54.4191 86.9157C53.8284 86.6858 53.5149 86.4539 53.3593 86.2543C53.2222 86.0784 53.1838 85.8985 53.2269 85.667C53.2748 85.4097 53.4252 85.0918 53.69 84.6998C54.2297 83.9007 55.0735 83.024 55.9722 81.948C56.8422 80.9064 57.7254 79.7163 58.199 78.4019L57.2411 78.0568ZM56.7448 88.5392C57.4653 88.6593 58.071 88.6279 58.5575 88.4145C59.0636 88.1925 59.3778 87.8018 59.5539 87.3412C59.7235 86.8977 59.7672 86.3873 59.7589 85.8816C59.7506 85.3713 59.6879 84.8242 59.618 84.2928C59.4727 83.1888 59.3085 82.1937 59.4023 81.456C59.4476 81.0998 59.5462 80.88 59.6737 80.7493C59.7893 80.6307 59.991 80.5217 60.3949 80.5217V79.5035C59.7958 79.5035 59.3009 79.6731 58.9446 80.0386C58.6001 80.392 58.4515 80.8618 58.3923 81.3276C58.2771 82.2337 58.4751 83.412 58.6085 84.4256C58.6779 84.953 58.7336 85.4506 58.7409 85.8982C58.7483 86.3503 58.705 86.7106 58.6029 86.9776C58.5073 87.2274 58.3653 87.387 58.1486 87.482C57.9125 87.5856 57.529 87.6377 56.9122 87.5349L56.7448 88.5392ZM60.3949 80.5217C61.4241 80.5217 62.2976 80.4413 63.1321 80.3645C63.9694 80.2876 64.7646 80.2146 65.6722 80.2199C67.4752 80.2303 69.7609 80.5505 73.6081 81.8329L73.9301 80.867C70.0133 79.5614 67.6181 79.213 65.6781 79.2017C64.7141 79.1961 63.8723 79.274 63.0389 79.3507C62.2027 79.4275 61.3718 79.5035 60.3949 79.5035V80.5217ZM73.6081 81.8329C79.0885 83.6597 82.3287 83.189 92.1159 81.8544L91.9783 80.8456C82.1501 82.1858 79.1491 82.6067 73.9301 80.867L73.6081 81.8329ZM92.1159 81.8544C96.9525 81.1949 102.101 81.9282 106.169 82.1916C108.167 82.321 109.952 82.3398 111.247 81.9633C111.905 81.7721 112.481 81.4673 112.89 80.9836C113.307 80.4922 113.509 79.8669 113.509 79.121H112.491C112.491 79.6747 112.345 80.0521 112.114 80.3255C111.875 80.6066 111.503 80.8286 110.963 80.9856C109.862 81.3055 108.248 81.3059 106.234 81.1755C102.278 80.9193 96.9495 80.1677 91.9783 80.8456L92.1159 81.8544ZM113.509 79.121C113.509 78.3688 113.068 77.6058 112.394 76.924C111.707 76.2298 110.719 75.5573 109.481 74.9815C107.002 73.8283 103.463 73.0361 99.1533 73.2629L99.2068 74.2797C103.368 74.0607 106.739 74.8288 109.052 75.9047C110.21 76.4434 111.089 77.0525 111.67 77.64C112.263 78.2399 112.491 78.7586 112.491 79.121H113.509ZM99.1533 73.2629C96.8678 73.3832 95.5801 72.7814 94.7346 71.8689C93.8526 70.9169 93.386 69.5659 92.8928 68.0111C92.4127 66.4978 91.9108 64.8053 90.9123 63.3924C89.8918 61.9484 88.3695 60.813 85.9011 60.3428L85.7106 61.343C87.9231 61.7644 89.2144 62.754 90.0808 63.98C90.9693 65.2373 91.4277 66.7601 91.9223 68.319C92.4036 69.8365 92.9259 71.4148 93.9877 72.5609C95.0862 73.7465 96.6974 74.4117 99.2068 74.2797L99.1533 73.2629Z" fill="#DDDDDD"/>
<path d="M42.1156 77.5609C42.999 78.5705 43.9756 79.5889 44.9621 80.5494C44.9621 82.0399 42.9201 81.5761 42.116 81.04C40.1801 79.7494 40.5342 77.5653 40.5342 75.531C41.0566 76.275 41.5917 76.9622 42.1156 77.5609Z" fill="#14141D"/>
<path d="M27.6962 68.1748C26.7473 66.2771 22.3194 66.9096 22.3194 59.6352C25.3956 58.6097 29.0303 56.7854 28.4808 52.9888C25.1838 50.7884 20.1518 47.535 17.9707 51.3695C16.1336 57.0903 17.436 62.8266 19.7892 68.1748C23.9008 71.9701 29.5833 71.949 27.6962 68.1748Z" fill="#14141D"/>
<path d="M44.6031 70.71C43.6116 66.9922 45.5077 60.338 47.2909 63.0129C46.8451 65.6877 44.9192 69.1219 44.9192 71.8188C44.8057 71.4458 44.7006 71.0759 44.6031 70.71Z" fill="#14141D"/>
<path d="M7.16836 21.1065C6.32425 24.5404 4.27006 31.2904 8.50578 36.7097C6.06772 41.7485 4.46881 50.0508 5.20797 55.964C5.84053 61.0245 9.31969 70.8292 9.31969 70.8292C17.543 77.7874 19.3439 71.0972 16.9104 69.8804C11.8499 67.3502 11.2174 62.1842 11.8499 60.7082C12.3771 60.7082 15.8476 60.8934 17.543 53.4338C17.7218 52.647 17.9627 52.0068 18.2546 51.4936C20.4358 47.6591 25.4678 50.9125 28.7648 53.1129C28.9295 53.2228 29.0899 53.3301 29.2454 53.4338C33.9896 56.5966 39.0107 60.0757 36.836 63.5546C35.3397 65.9485 37.7458 71.4659 40.5075 75.3987C41.0299 76.1427 41.565 76.8299 42.0889 77.4286C42.9723 78.4383 43.9489 79.4566 44.9354 80.4171C47.6573 83.0673 50.4544 85.2776 51.5773 85.6519C54.4239 86.6008 57.2704 84.7031 55.0564 83.1217C50.1881 79.6443 46.8331 76.1635 45.0594 71.9381C44.9459 71.5651 44.8408 71.1951 44.7432 70.8292C43.7518 67.1114 45.3758 60.392 47.2735 62.9222C47.3855 63.0716 47.5055 63.2207 47.6332 63.3688C49.6687 65.7282 53.6735 67.8152 58.9758 66.4013C63.72 65.1362 61.8223 62.7285 61.8223 58.4943C61.8223 57.5454 62.7712 53.4338 60.2409 50.9035C58.4788 49.1414 63.0875 48.6896 63.72 45.5268C60.2409 44.894 56.8884 45.5268 54.8642 48.057C53.5991 49.6384 51.7014 49.0059 46.9572 47.4244C42.213 45.843 38.7339 33.8243 29.2454 30.029C19.757 26.2336 15.329 35.553 11.8499 33.4655C6.69975 30.3754 13.3428 20.6876 12.518 12.1904C12.1604 8.50571 9.31974 1.67775 5.208 1.04521C1.67129 0.501129 -1.09905 4.97642 3.15611 8.62393C4.85345 10.0789 9.33055 12.3106 7.16836 21.1065Z" fill="#14141D"/>
<path d="M8.50578 36.7097L8.96404 36.9314L9.10214 36.646L8.90689 36.3962L8.50578 36.7097ZM7.16836 21.1065L6.67399 20.985L7.16836 21.1065ZM3.15611 8.62393L2.82479 9.01044L3.15611 8.62393ZM5.208 1.04521L5.13059 1.54838L5.208 1.04521ZM12.518 12.1904L12.0113 12.2396L12.518 12.1904ZM11.8499 33.4655L12.1119 33.029L11.8499 33.4655ZM54.8642 48.057L55.2617 48.375L54.8642 48.057ZM63.72 45.5268L64.2192 45.6266L64.3208 45.1186L63.8111 45.0259L63.72 45.5268ZM58.9758 66.4013L58.8446 65.9094L58.9758 66.4013ZM47.2735 62.9222L46.8662 63.2277L47.2735 62.9222ZM44.7432 70.8292L44.2513 70.9604L44.7432 70.8292ZM55.0564 83.1217L54.7605 83.5359L55.0564 83.1217ZM51.5773 85.6519L51.4163 86.1349L51.5773 85.6519ZM42.0889 77.4286L41.7058 77.7638L42.0889 77.4286ZM36.836 63.5546L36.4044 63.2848L36.836 63.5546ZM29.2454 53.4338L29.5278 53.0102L29.2454 53.4338ZM17.543 53.4338L18.0394 53.5466L17.543 53.4338ZM11.8499 60.7082V60.1992H11.5142L11.382 60.5077L11.8499 60.7082ZM9.31969 70.8292L8.83991 70.9995L8.88589 71.1291L8.99085 71.2179L9.31969 70.8292ZM5.20797 55.964L5.71312 55.9009L5.20797 55.964ZM22.6033 59.7593L22.4423 59.2763L22.0942 59.3923V59.7593H22.6033ZM20.0731 68.2988L19.6071 68.5039L19.6499 68.601L19.7278 68.6729L20.0731 68.2988ZM47.816 57.8522C47.9855 58.0765 48.3048 58.121 48.5291 57.9514C48.7534 57.7819 48.7978 57.4626 48.6283 57.2383L47.816 57.8522ZM49.6796 51.1773H50.1887C50.1887 50.9901 50.086 50.8181 49.9213 50.7292C49.7566 50.6404 49.5564 50.6491 49.4 50.7518L49.6796 51.1773ZM51.086 54.4733C51.1595 54.7447 51.4392 54.905 51.7105 54.8314C51.9819 54.7579 52.1423 54.4783 52.0687 54.2069L51.086 54.4733ZM45.0594 71.9381L44.5723 72.0863L44.5799 72.1112L44.59 72.1351L45.0594 71.9381ZM28.7648 53.1129L29.0474 52.6894L28.7648 53.1129ZM18.2546 51.4936L17.8121 51.2418L18.2546 51.4936ZM42.0893 80.9077L41.8069 81.3313L42.0893 80.9077ZM40.5075 75.3987L40.9241 75.1062L40.5075 75.3987ZM47.6332 63.3688L48.0187 63.0363L47.6332 63.3688ZM8.90689 36.3962C4.8511 31.2071 6.80159 24.7312 7.66273 21.228L6.67399 20.985C5.84691 24.3496 3.68903 31.3737 8.10467 37.0232L8.90689 36.3962ZM7.66273 21.228C8.76695 16.736 8.19271 13.8376 7.05052 11.8579C5.93153 9.91844 4.2625 8.9018 3.48743 8.23741L2.82479 9.01044C3.74705 9.801 5.16524 10.6277 6.1686 12.3668C7.14874 14.0656 7.73197 16.6811 6.67399 20.985L7.66273 21.228ZM3.48743 8.23741C1.4879 6.52342 1.22785 4.71396 1.73277 3.45182C2.24959 2.15992 3.60166 1.31317 5.13059 1.54838L5.2854 0.542043C3.27763 0.23317 1.47617 1.35202 0.787436 3.07363C0.086801 4.82499 0.56916 7.07693 2.82479 9.01044L3.48743 8.23741ZM5.13059 1.54838C6.94212 1.82706 8.57524 3.50627 9.82752 5.7236C11.0648 7.91435 11.84 10.4745 12.0113 12.2396L13.0247 12.1412C12.8384 10.2216 12.0145 7.52542 10.7141 5.2229C9.42868 2.94694 7.58561 0.895903 5.2854 0.542043L5.13059 1.54838ZM11.588 33.9021C12.6875 34.5618 13.8292 34.2751 14.9272 33.7318C15.4802 33.4581 16.0578 33.102 16.6534 32.7249C17.2556 32.3436 17.8792 31.939 18.5511 31.5463C21.211 29.9916 24.5178 28.6862 29.0563 30.5016L29.4345 29.5563C24.4846 27.5763 20.8332 29.033 18.0373 30.6673C17.3451 31.0718 16.6987 31.4911 16.1087 31.8647C15.5121 32.2424 14.9753 32.572 14.4756 32.8192C13.4684 33.3176 12.7519 33.413 12.1119 33.029L11.588 33.9021ZM29.0563 30.5016C33.6534 32.3405 36.8225 36.1833 39.4673 39.8545C40.7747 41.6693 41.9737 43.4705 43.1271 44.8935C44.2754 46.3104 45.461 47.4623 46.7962 47.9074L47.1182 46.9415C46.0813 46.5958 45.0528 45.6525 43.918 44.2524C42.7883 42.8585 41.6349 41.1214 40.2934 39.2594C37.6406 35.577 34.3259 31.5128 29.4345 29.5563L29.0563 30.5016ZM46.7962 47.9074C49.1447 48.6902 50.8631 49.2656 52.1502 49.4317C52.8045 49.5161 53.391 49.502 53.9181 49.3323C54.4559 49.1592 54.8919 48.8373 55.2617 48.375L54.4667 47.739C54.204 48.0674 53.9283 48.2594 53.6062 48.3631C53.2735 48.4702 52.8518 48.4956 52.2805 48.4219C51.1164 48.2717 49.5139 47.7401 47.1182 46.9415L46.7962 47.9074ZM55.2617 48.375C57.122 46.0497 60.2457 45.4123 63.6289 46.0276L63.8111 45.0259C60.2362 44.3758 56.6548 45.0038 54.4667 47.739L55.2617 48.375ZM63.2208 45.4269C62.9504 46.779 61.8325 47.5724 60.7848 48.3274C60.534 48.5082 60.2826 48.6916 60.0683 48.8762C59.8566 49.0586 59.6497 49.2682 59.5102 49.5121C59.363 49.7697 59.2878 50.0729 59.3615 50.4062C59.4315 50.723 59.6227 51.0053 59.881 51.2635L60.6009 50.5436C60.4186 50.3613 60.3684 50.244 60.3556 50.1864C60.3466 50.1454 60.3473 50.0994 60.3941 50.0175C60.4488 49.9218 60.5543 49.8014 60.7329 49.6475C60.9088 49.4959 61.1255 49.3369 61.3801 49.1534C62.3544 48.4513 63.8571 47.4373 64.2192 45.6266L63.2208 45.4269ZM59.881 51.2635C61.0204 52.4029 61.3964 53.9175 61.4721 55.3194C61.5098 56.0168 61.4723 56.6721 61.424 57.2189C61.3996 57.494 61.3732 57.7349 61.3517 57.9484C61.3312 58.1514 61.3133 58.3455 61.3133 58.4943H62.3314C62.3314 58.4058 62.3432 58.2639 62.3647 58.0506C62.3852 57.8476 62.4131 57.592 62.4382 57.3086C62.4886 56.7385 62.5302 56.0298 62.4888 55.2645C62.4065 53.7407 61.9917 51.9344 60.6009 50.5436L59.881 51.2635ZM47.6807 62.6168C47.4088 62.2541 47.0834 61.9759 46.6925 61.8867C46.2758 61.7916 45.9036 61.9365 45.6146 62.1744C45.3367 62.4031 45.1098 62.7348 44.9236 63.1013C44.7344 63.4738 44.5713 63.9146 44.4352 64.3936C43.897 66.2887 43.7268 68.9935 44.2513 70.9604L45.2351 70.6981C44.7682 68.9471 44.9143 66.4333 45.4146 64.6718C45.5382 64.2367 45.6798 63.8609 45.8314 63.5623C45.9861 63.2579 46.1359 63.0639 46.2616 62.9605C46.3763 62.8661 46.4345 62.8722 46.4659 62.8793C46.5233 62.8924 46.6637 62.9577 46.8662 63.2277L47.6807 62.6168ZM54.7605 83.5359C55.2429 83.8805 55.338 84.1608 55.338 84.3176C55.338 84.4777 55.239 84.6971 54.9226 84.9186C54.2853 85.3647 53.0352 85.6013 51.7383 85.169L51.4163 86.1349C52.966 86.6514 54.5624 86.4136 55.5065 85.7527C55.9808 85.4207 56.3562 84.9285 56.3562 84.3176C56.3562 83.7035 55.977 83.1536 55.3523 82.7074L54.7605 83.5359ZM37.2677 63.8245C37.8884 62.8315 38.0016 61.8143 37.7253 60.8147C37.4554 59.8385 36.8231 58.9079 36.0086 58.0295C34.3834 56.277 31.8873 54.5832 29.5278 53.0102L28.963 53.8574C31.3477 55.4472 33.7343 57.0744 35.262 58.7218C36.0239 59.5434 36.5357 60.3326 36.7439 61.086C36.9457 61.816 36.871 62.5383 36.4044 63.2848L37.2677 63.8245ZM17.0466 53.321C16.2143 56.9827 14.9668 58.6766 13.9469 59.4657C12.9391 60.2453 12.0832 60.1992 11.8499 60.1992V61.2173C12.1438 61.2173 13.2867 61.2637 14.5699 60.271C15.8408 59.2878 17.1763 57.3445 18.0394 53.5466L17.0466 53.321ZM11.382 60.5077C11.1791 60.9811 11.1021 61.6719 11.1542 62.4426C11.2072 63.2269 11.3969 64.1419 11.7721 65.0868C12.5244 66.9816 14.028 69.0083 16.6828 70.3357L17.1381 69.4251C14.7324 68.2222 13.3894 66.4009 12.7184 64.7111C12.382 63.8638 12.2159 63.0524 12.1701 62.3739C12.1233 61.6818 12.2044 61.1734 12.3179 60.9088L11.382 60.5077ZM16.6828 70.3357C17.0922 70.5405 17.3633 70.9989 17.3994 71.5535C17.4352 72.1038 17.2309 72.667 16.7901 73.0255C16.3607 73.3748 15.62 73.5981 14.4444 73.2947C13.2596 72.9888 11.6732 72.1538 9.64853 70.4406L8.99085 71.2179C11.0778 72.9838 12.8003 73.9218 14.1899 74.2805C15.5887 74.6416 16.688 74.421 17.4326 73.8154C18.1658 73.219 18.4694 72.3164 18.4154 71.4874C18.3618 70.6628 17.9454 69.8287 17.1381 69.4251L16.6828 70.3357ZM9.31969 70.8292C9.79946 70.659 9.79946 70.659 9.79944 70.6589C9.79942 70.6589 9.79939 70.6588 9.79934 70.6587C9.79924 70.6584 9.7991 70.658 9.7989 70.6574C9.7985 70.6563 9.79789 70.6546 9.79708 70.6523C9.79545 70.6477 9.793 70.6407 9.78975 70.6315C9.78325 70.6131 9.77354 70.5855 9.76082 70.5493C9.73539 70.4768 9.69792 70.3697 9.64996 70.2313C9.55403 69.9546 9.41615 69.5533 9.24867 69.0558C8.91363 68.0605 8.46041 66.6812 7.98761 65.1446C7.03823 62.0592 6.02323 58.3818 5.71312 55.9009L4.70281 56.0272C5.02526 58.6068 6.06613 62.362 7.01446 65.444C7.49053 66.9912 7.94663 68.3793 8.2837 69.3806C8.45227 69.8813 8.59114 70.2856 8.68795 70.5648C8.73636 70.7045 8.77426 70.8129 8.8001 70.8865C8.81302 70.9233 8.82292 70.9514 8.82962 70.9704C8.83297 70.9799 8.83552 70.9871 8.83724 70.992C8.83811 70.9944 8.83876 70.9962 8.83921 70.9975C8.83943 70.9981 8.8396 70.9986 8.83972 70.9989C8.83977 70.9991 8.83982 70.9992 8.83985 70.9993C8.83989 70.9994 8.83991 70.9995 9.31969 70.8292ZM61.3133 58.4943C61.3133 59.5885 61.4361 60.5625 61.5395 61.4005C61.6451 62.2567 61.7245 62.9354 61.6712 63.5146C61.6204 64.0668 61.4511 64.4939 61.0695 64.8603C60.6695 65.2444 59.9937 65.603 58.8446 65.9094L59.107 66.8932C60.33 66.5671 61.1961 66.1503 61.7747 65.5948C62.3715 65.0217 62.6173 64.345 62.6851 63.6079C62.7504 62.8977 62.6519 62.1015 62.55 61.2758C62.4458 60.432 62.3314 59.5172 62.3314 58.4943H61.3133ZM5.71312 55.9009C4.98724 50.0938 6.56477 41.8901 8.96404 36.9314L8.04752 36.488C5.57066 41.6069 3.95038 50.0077 4.70281 56.0272L5.71312 55.9009ZM12.0113 12.2396C12.4131 16.3789 10.9956 20.804 10.0665 24.7386C9.6096 26.6736 9.26891 28.5092 9.39001 30.0719C9.51353 31.6659 10.1237 33.0235 11.588 33.9021L12.1119 33.029C11.001 32.3625 10.5103 31.3504 10.4051 29.9932C10.2976 28.6048 10.6004 26.908 11.0574 24.9726C11.9562 21.1664 13.4477 16.4991 13.0247 12.1412L12.0113 12.2396ZM22.0942 59.7593C22.0942 63.5211 23.2498 65.3396 24.6163 66.4416C25.2682 66.9673 25.9656 67.3235 26.4825 67.6262C27.0324 67.9482 27.3616 68.2002 27.5248 68.5265L28.4355 68.0712C28.1242 67.4487 27.5442 67.068 26.997 66.7476C26.4168 66.4079 25.8293 66.1118 25.2555 65.6491C24.1709 64.7744 23.1124 63.2719 23.1124 59.7593H22.0942ZM27.5248 68.5265C27.9605 69.3979 27.8769 69.8832 27.702 70.1328C27.5113 70.405 27.0592 70.6271 26.2754 70.6284C24.7327 70.6308 22.4026 69.7564 20.4184 67.9248L19.7278 68.6729C21.8553 70.6367 24.4222 71.6494 26.277 71.6465C27.1918 71.6451 28.0635 71.3915 28.536 70.7169C29.0244 70.0196 28.9434 69.0869 28.4355 68.0712L27.5248 68.5265ZM49.1706 51.1773C49.1706 51.7276 49.2749 52.1544 49.4684 52.5054C49.6594 52.852 49.9161 53.0841 50.1396 53.2684C50.5855 53.6361 50.9155 53.8445 51.086 54.4733L52.0687 54.2069C51.7989 53.2119 51.1801 52.8067 50.7873 52.4828C50.5914 52.3213 50.4561 52.1882 50.3601 52.014C50.2666 51.8443 50.1887 51.5948 50.1887 51.1773H49.1706ZM44.2513 70.9604C44.3503 71.3317 44.457 71.7073 44.5723 72.0863L45.5464 71.7899C45.4347 71.4228 45.3312 71.0586 45.2351 70.6981L44.2513 70.9604ZM44.59 72.1351C46.4159 76.4848 49.8567 80.0332 54.7605 83.5359L55.3523 82.7074C50.5196 79.2555 47.2503 75.8421 45.5288 71.741L44.59 72.1351ZM29.5278 53.0102C29.3722 52.9065 29.2129 52.7999 29.0474 52.6894L28.4822 53.5363C28.6461 53.6457 28.8076 53.7538 28.963 53.8574L29.5278 53.0102ZM28.2609 53.1858C28.5055 54.8752 27.8351 56.118 26.7107 57.0902C25.5639 58.0818 23.9643 58.769 22.4423 59.2763L22.7643 60.2422C24.3186 59.7241 26.0745 58.9864 27.3767 57.8603C28.7014 56.7149 29.5736 55.1472 29.2686 53.0399L28.2609 53.1858ZM29.0474 52.6894C27.4112 51.5975 25.2682 50.1891 23.2436 49.5544C22.2269 49.2356 21.1892 49.0946 20.2342 49.3245C19.2569 49.5598 18.4214 50.1707 17.8121 51.2418L18.6971 51.7453C19.1784 50.8992 19.7898 50.4788 20.4725 50.3144C21.1776 50.1447 22.0129 50.2356 22.939 50.5259C24.7999 51.1094 26.8214 52.4279 28.4822 53.5363L29.0474 52.6894ZM17.8121 51.2418C17.4901 51.8079 17.2337 52.4973 17.0466 53.321L18.0394 53.5466C18.2098 52.7967 18.4352 52.2057 18.6971 51.7453L17.8121 51.2418ZM20.5391 68.0938C18.2082 62.7962 16.9572 57.1991 18.7393 51.6492L17.7699 51.3379C15.8779 57.2297 17.2317 63.1051 19.6071 68.5039L20.5391 68.0938ZM48.6283 57.2383C47.8715 56.237 47.7217 55.1652 47.9865 54.1844C48.2549 53.1903 48.9592 52.2599 49.9592 51.6027L49.4 50.7518C48.2231 51.5253 47.346 52.6508 47.0036 53.9189C46.6576 55.2003 46.8675 56.5972 47.816 57.8522L48.6283 57.2383ZM51.7383 85.169C51.5218 85.0968 51.181 84.9182 50.7263 84.6221C50.2805 84.3318 49.7534 83.9475 49.1712 83.4883C48.0073 82.5702 46.6408 81.3671 45.2906 80.0524L44.5803 80.7818C45.9518 82.1173 47.3449 83.3445 48.5407 84.2877C49.1384 84.7591 49.6913 85.1632 50.1708 85.4754C50.6414 85.7818 51.0714 86.0199 51.4163 86.1349L51.7383 85.169ZM45.2906 80.0524C44.3122 79.0997 43.3452 78.0913 42.472 77.0934L41.7058 77.7638C42.5995 78.7852 43.5857 79.8134 44.5803 80.7818L45.2906 80.0524ZM42.472 77.0934C41.9617 76.5102 41.4377 75.8375 40.9241 75.1062L40.0909 75.6913C40.6222 76.4479 41.1684 77.1497 41.7058 77.7638L42.472 77.0934ZM40.9241 75.1062C39.5638 73.169 38.2965 70.848 37.5555 68.7314C37.1849 67.6727 36.9525 66.6834 36.8981 65.8298C36.8434 64.9708 36.9718 64.2979 37.2677 63.8245L36.4044 63.2848C35.9521 64.0083 35.8201 64.9228 35.882 65.8945C35.9443 66.8715 36.2054 67.9562 36.5945 69.0678C37.373 71.2915 38.6895 73.6956 40.0909 75.6913L40.9241 75.1062ZM41.8069 81.3313C42.2856 81.6504 43.0952 81.9354 43.8167 81.9314C44.1806 81.9294 44.5882 81.8535 44.9152 81.6007C45.2654 81.3299 45.4445 80.918 45.4445 80.4171H44.4263C44.4263 80.6614 44.3502 80.7505 44.2924 80.7952C44.2113 80.8579 44.0582 80.9119 43.8111 80.9133C43.3105 80.916 42.697 80.701 42.3716 80.4841L41.8069 81.3313ZM39.9984 75.3987C39.9984 76.3541 39.9078 77.4977 40.0697 78.5123C40.2392 79.5746 40.6912 80.5875 41.8069 81.3313L42.3716 80.4841C41.5514 79.9373 41.2125 79.2129 41.0751 78.3519C40.9302 77.4433 41.0166 76.4777 41.0166 75.3987H39.9984ZM58.8446 65.9094C53.7482 67.2685 49.9388 65.262 48.0187 63.0363L47.2478 63.7014C49.3985 66.1944 53.5989 68.362 59.107 66.8932L58.8446 65.9094ZM48.0187 63.0363C47.8984 62.8968 47.7857 62.7567 47.6807 62.6168L46.8662 63.2277C46.9853 63.3865 47.1126 63.5447 47.2478 63.7014L48.0187 63.0363ZM45.0594 71.9381C45.5663 71.9844 45.5663 71.9844 45.5663 71.9845C45.5663 71.9845 45.5663 71.9845 45.5663 71.9845C45.5663 71.9845 45.5663 71.9844 45.5664 71.9842C45.5664 71.9838 45.5665 71.9832 45.5665 71.9822C45.5667 71.9803 45.567 71.9773 45.5674 71.9731C45.5682 71.9647 45.5695 71.9517 45.5713 71.9342C45.5749 71.8994 45.5805 71.847 45.5885 71.7785C45.6044 71.6414 45.6296 71.4401 45.6664 71.1865C45.7402 70.679 45.8605 69.9636 46.046 69.1359C46.4186 67.4735 47.048 65.3884 48.0733 63.6247L47.1931 63.113C46.093 65.0054 45.4354 67.2049 45.0525 68.9131C44.8603 69.7707 44.7356 70.5121 44.6588 71.0401C44.6205 71.3042 44.594 71.5153 44.5771 71.6612C44.5686 71.7341 44.5625 71.7909 44.5585 71.8298C44.5565 71.8493 44.555 71.8643 44.554 71.8747C44.5535 71.8799 44.5531 71.8839 44.5529 71.8868C44.5527 71.8882 44.5526 71.8894 44.5525 71.8902C44.5525 71.8906 44.5525 71.891 44.5524 71.8912C44.5524 71.8914 44.5524 71.8915 44.5524 71.8916C44.5524 71.8917 44.5524 71.8918 45.0594 71.9381Z" fill="#DDDDDD"/>
</svg>
