<svg width="66" height="22" viewBox="0 0 66 22" fill="none" xmlns="http://www.w3.org/2000/svg">
<path d="M25.8789 4.38215H28.5247V14.9653H31.1705V1.73636H28.5247C27.0695 1.73636 25.8789 2.92697 25.8789 4.38215Z" fill="black"/>
<path d="M33.8164 14.9653H36.4622V9.67373C36.4622 8.21855 35.2716 7.02794 33.8164 7.02794V14.9653Z" fill="black"/>
<path d="M39.1094 7.02794V14.9653H41.7552V9.67373H44.401V12.3195C44.401 13.7747 45.5916 14.9653 47.0468 14.9653V9.67373C47.0468 8.21855 45.8561 7.02794 44.401 7.02794H39.1094Z" fill="black"/>
<path d="M62.9204 7.02795H60.2746V4.38215C60.2746 2.92697 59.084 1.73636 57.6288 1.73636V12.3195H52.3372V9.67374H54.983V7.02795H52.3372C50.882 7.02795 49.6914 8.21855 49.6914 9.67374V12.3195C49.6914 13.7747 50.882 14.9653 52.3372 14.9653H60.2746V9.67374H62.9204V12.3195C62.9204 13.7747 64.111 14.9653 65.5662 14.9653V9.67374C65.5662 8.21855 64.3756 7.02795 62.9204 7.02795Z" fill="black"/>
<path d="M33.8164 4.38215H36.4622C36.4622 2.92697 35.2716 1.73636 33.8164 1.73636V4.38215Z" fill="black"/>
<path d="M29.6219 19.435H28.5254V17.6393H29.5954V17.9344H28.8504V18.3807H29.5162V18.6757H28.8504V19.1399H29.6219V19.435Z" fill="#2F7AEA"/>
<path d="M34.4276 17.6393H34.8081L34.1846 18.5192L34.8319 19.435H34.4515L33.9732 18.7603L33.4976 19.435H33.1172L33.7645 18.5192L33.1462 17.6393H33.5267L33.9811 18.2883L34.4276 17.6393Z" fill="#2F7AEA"/>
<path d="M39.6031 19.0245L39.7273 19.2605C39.6692 19.3204 39.5855 19.3691 39.4763 19.4067C39.3688 19.4443 39.2552 19.4632 39.1354 19.4632C38.8536 19.4632 38.6238 19.3785 38.4459 19.2092C38.2697 19.0399 38.1816 18.8159 38.1816 18.5371C38.1816 18.2704 38.2653 18.0489 38.4326 17.8728C38.5982 17.6983 38.8298 17.6111 39.1275 17.6111C39.3636 17.6111 39.5511 17.6718 39.6903 17.7932L39.545 18.0267C39.4199 17.9463 39.2807 17.9061 39.1275 17.9061C38.9514 17.9061 38.8069 17.9634 38.6942 18.078C38.5815 18.1926 38.5251 18.3456 38.5251 18.5371C38.5251 18.7253 38.5841 18.8774 38.7022 18.9938C38.8219 19.11 38.976 19.1682 39.1645 19.1682C39.3266 19.1682 39.4727 19.1203 39.6031 19.0245Z" fill="#2F7AEA"/>
<path d="M44.8462 19.435H44.5238V18.668H43.6785V19.435H43.3535V17.6393H43.6785V18.373H44.5238V17.6393H44.8462V19.435Z" fill="#2F7AEA"/>
<path d="M48.7515 19.4349H48.4238L49.2057 17.6342H49.491L50.2732 19.4349H49.9271L49.7344 18.9758H48.9442L48.7515 19.4349ZM49.61 18.6808L49.3406 18.0421L49.0685 18.6808H49.61Z" fill="#2F7AEA"/>
<path d="M55.4315 17.6393V19.435H55.1723L54.1554 18.1909V19.435H53.8516V17.6393H54.1104L55.1277 18.8886V17.6393H55.4315Z" fill="#2F7AEA"/>
<path d="M60.4623 18.7629H60.0156V18.4679H60.7661V19.2118C60.6867 19.2887 60.5809 19.3503 60.449 19.3965C60.3167 19.4409 60.192 19.4632 60.0738 19.4632C59.7744 19.4632 59.5384 19.3794 59.3656 19.2118C59.1949 19.0459 59.1094 18.821 59.1094 18.5371C59.1094 18.2738 59.194 18.054 59.3629 17.8779C59.5323 17.7001 59.7549 17.6111 60.0314 17.6111C60.2674 17.6111 60.4658 17.6718 60.6259 17.7932L60.4887 18.0446C60.4429 18.0019 60.382 17.9685 60.3062 17.9446C60.2303 17.919 60.1523 17.9061 60.0711 17.9061C59.8864 17.9061 59.7373 17.9626 59.6244 18.0754C59.5102 18.1866 59.4529 18.3405 59.4529 18.5371C59.4529 18.727 59.5102 18.88 59.6244 18.9963C59.7373 19.1109 59.889 19.1682 60.0791 19.1682C60.1461 19.1682 60.2184 19.1562 60.2956 19.1323C60.3732 19.1066 60.4287 19.0775 60.4623 19.045V18.7629Z" fill="#2F7AEA"/>
<path d="M65.5674 19.435H64.4707V17.6393H65.5409V17.9344H64.7957V18.3807H65.4615V18.6757H64.7957V19.1399H65.5674V19.435Z" fill="#2F7AEA"/>
<path d="M5.5623 12.1224L6.17965 7.47296L0.816406 3.74953L5.71664 5.40867L6.87417 3.63378L11.0992 1.01004L20.4173 6.14177L20.8997 13.9744L16.7518 19.7428L13.4721 20.2444L15.1698 17.1383V14.1481L13.9351 11.8137L12.6812 10.9841L10.7519 12.9712V15.0741L9.24714 16.4824L7.33718 16.7139L6.48833 17.1962L5.09928 16.7525L4.52052 14.6689L5.5623 13.2027V12.1224Z" fill="white"/>
<path d="M14.1282 3.71097C13.1058 3.49877 11.9868 3.55663 11.9868 3.55663C11.9868 3.55663 11.6202 5.25434 9.34375 5.69809C9.36306 5.69809 12.3533 6.72055 14.1282 3.71097Z" fill="#94A6C3"/>
<path d="M15.054 19.1062C16.2887 18.1416 17.2147 16.8104 17.6391 15.3056C17.6584 15.2478 17.8321 15.1513 17.9478 15.0741C18.1407 14.9583 18.3337 14.8619 18.3722 14.7076C18.4494 14.2638 18.488 13.8008 18.488 13.3378C18.488 13.1642 18.3144 12.9905 18.1407 12.8169C18.0057 12.7012 17.8707 12.5661 17.8707 12.4697C17.6777 10.7141 16.8675 9.07424 15.5749 7.87812L15.4398 8.01314C16.6938 9.18999 17.5041 10.7912 17.6777 12.4889C17.697 12.6433 17.8513 12.7976 18.0057 12.952C18.1407 13.0677 18.2951 13.2414 18.2951 13.3185C18.2951 13.7622 18.2565 14.206 18.1793 14.6497C18.16 14.7268 17.9864 14.804 17.8513 14.8812C17.6584 14.9777 17.4848 15.0741 17.4462 15.2284C16.9832 16.8683 15.9221 18.2959 14.5138 19.222C14.7646 18.6818 15.5556 16.9262 15.98 16.0387L15.9028 13.1835L13.4527 10.8105L12.0637 11.0035L10.5396 13.4729C10.5396 13.4729 11.2534 14.3796 10.2502 15.4407C9.26631 16.4825 8.49462 16.714 8.49462 16.714L7.78079 16.3281C7.99302 16.058 8.41745 15.6529 8.7454 15.3828C9.3049 14.9198 9.86435 14.8812 9.86435 14.3796C9.88366 13.3378 8.76471 13.6272 8.76471 13.6272L8.35955 14.0131L8.18595 15.4407L7.33709 16.5017L7.2406 16.4825L5.85156 16.1738C5.85156 16.1738 6.70042 15.73 6.83549 15.2284C6.97051 14.7462 6.5654 13.1449 6.54608 13.0484C6.5654 13.0677 6.95124 13.3957 7.12485 13.9359C7.43353 13.087 7.83869 12.2767 7.95444 12.1996C8.07019 12.1224 9.63284 11.2928 9.63284 11.2928L9.11197 12.6626L9.49782 12.4504L10.4238 10.1739C10.4238 10.1739 11.3306 9.73017 12.0058 9.73017C13.2212 9.71086 15.0154 8.22538 14.2051 5.56305C14.4366 5.65949 18.4494 7.66588 19.1439 11.6015C19.6648 14.6304 17.9478 17.4663 15.054 19.1062Z" fill="#94A6C3"/>
<path d="M10.4625 4.13537C10.9062 3.61446 10.7326 2.84277 10.7326 2.84277L9.44001 4.75272C9.42074 4.75272 9.90303 4.77199 10.4625 4.13537Z" fill="#1B314F"/>
<path d="M6.12288 14.5725L6.27721 13.8008C6.27721 13.8008 5.64055 14.9198 5.58269 15.0741C5.52479 15.2478 5.62128 15.5564 5.87205 15.5371C6.12288 15.5178 6.43155 15.1513 6.43155 14.8812C6.43155 14.5339 6.12288 14.5725 6.12288 14.5725Z" fill="#1B314F"/>
<path d="M17.5814 2.30263C17.5814 2.30263 18.546 2.34121 19.5492 2.45696C17.292 0.682078 15.1506 0.161187 13.4143 0.161187C11.022 0.161187 9.4015 1.14509 9.30502 1.20297L10.0574 0.0068493C10.0574 0.0068493 7.04785 -0.282534 5.98675 2.90069C5.71666 2.22546 5.46588 1.24155 5.46588 1.24155C5.46588 1.24155 3.90319 2.6113 4.63629 4.8878C2.84213 4.23187 0.276265 3.32511 0.179804 3.30584C0.044758 3.28653 0.0061735 3.34442 0.0061735 3.34442C0.0061735 3.34442 -0.0324109 3.40228 0.0833425 3.49876C0.295557 3.67237 4.34693 6.66269 5.23438 7.24146C5.04145 7.93598 5.04145 8.26392 5.23438 8.59191C5.50447 9.03561 5.52374 9.26712 5.48515 9.59511C5.44657 9.92306 5.09931 12.759 5.02214 13.1063C4.94497 13.4536 4.1347 14.6883 4.17328 15.0548C4.21186 15.4214 4.71346 16.984 5.15721 17.1577C5.48515 17.2734 6.29543 17.5242 6.83561 17.5242C7.02853 17.5242 7.20218 17.4856 7.27935 17.4084C7.6073 17.1191 7.70378 17.0612 7.93529 17.0612C7.95456 17.0612 7.97387 17.0612 7.99314 17.0612C8.08963 17.0612 8.20538 17.0805 8.3404 17.0805C8.64908 17.0805 9.05424 17.0226 9.3436 16.7525C9.76803 16.3281 10.5011 15.7493 10.7326 15.4792C11.022 15.1127 11.1764 14.6111 11.0992 14.1095C11.0413 13.6465 11.2921 13.2413 11.5815 12.8362C11.9481 12.3539 12.6233 11.4858 12.6233 11.4858C13.9545 12.4889 14.784 14.013 14.784 15.7107C14.784 18.7203 12.1603 21.1511 8.91917 21.1511C8.41757 21.1511 7.93529 21.0933 7.45296 20.9775C8.93849 21.4984 10.1925 21.6721 11.215 21.6721C13.395 21.6721 14.5525 20.8811 14.5525 20.8811C14.5525 20.8811 14.1474 21.402 13.4915 22C13.5107 22 13.5107 22 13.5107 22C17.1184 21.4984 18.874 18.5274 18.874 18.5274C18.874 18.5274 18.7389 19.492 18.5653 20.1479C23.3691 16.5403 22.5588 12.0259 22.5395 11.8716C22.5781 11.9295 23.0604 12.5082 23.3112 12.8169C24.0829 4.86849 17.5814 2.30263 17.5814 2.30263ZM10.1925 14.9969C10.1153 15.0934 9.78734 15.3828 9.55584 15.595C9.32433 15.8072 9.07351 16.0194 8.88059 16.2123C8.80342 16.2895 8.64908 16.3281 8.41757 16.3281C8.3404 16.3281 8.26324 16.3281 8.20538 16.3281C8.1668 16.3281 8.12821 16.3281 8.08963 16.3281C8.05104 16.3281 8.03173 16.3281 8.01246 16.3281C7.95456 16.3281 7.8967 16.3281 7.83881 16.3281C8.12821 15.9422 8.97707 15.0548 9.26643 14.8619C9.61369 14.6304 9.78734 14.3989 9.57511 13.9937C9.36291 13.5886 8.80342 13.6851 8.80342 13.6851C8.80342 13.6851 9.13141 13.55 9.42077 13.55C9.05424 13.4536 8.59122 13.55 8.37899 13.7622C8.14748 13.9744 8.18607 14.7268 8.08963 15.2091C7.99314 15.7107 7.6652 15.9616 7.1636 16.4246C6.89351 16.6753 6.70059 16.7525 6.54625 16.7525C6.21826 16.6947 5.83241 16.5982 5.56232 16.5017C5.3694 16.2509 5.08004 15.4214 5.00287 15.0741C5.06072 14.8812 5.29223 14.476 5.40798 14.2445C5.63949 13.8008 5.77456 13.55 5.81314 13.3185C5.89031 12.9905 6.14109 10.9648 6.23757 10.116C6.48835 10.444 6.83561 10.9842 6.75844 11.3314C7.31794 10.5404 6.91278 9.76872 6.71986 9.46004C6.54625 9.15137 6.31474 8.53402 6.50766 7.87808C6.70059 7.22214 7.39511 5.40867 7.39511 5.40867C7.39511 5.40867 7.62661 5.81383 7.95456 5.73666C8.28255 5.65949 10.9256 1.68527 10.9256 1.68527C10.9256 1.68527 11.6394 3.24794 10.887 4.38621C10.1153 5.52443 9.36291 5.73666 9.36291 5.73666C9.36291 5.73666 10.424 5.92959 11.4079 5.21575C11.813 6.16109 12.1989 7.14497 12.2182 7.28004C12.1603 7.41507 11.3886 9.26712 11.3114 9.38287C11.2728 9.42146 11.0027 9.49863 10.8098 9.53721C10.4819 9.6337 10.2889 9.69155 10.2118 9.74945C10.0767 9.8652 9.45935 11.5629 9.16999 12.3925C8.82273 12.4889 8.47547 12.6819 8.22465 13.0677C8.35972 12.9712 8.78415 12.9134 9.09282 12.8748C9.36291 12.8555 10.1925 13.2992 10.4047 14.1288C10.4047 14.1481 10.4047 14.1481 10.4047 14.1673C10.4433 14.476 10.3468 14.7654 10.1925 14.9969ZM8.37899 15.2284C8.55264 14.9776 8.53333 14.5532 8.55264 14.4182C8.57191 14.2831 8.61049 14.0323 8.76483 13.9937C8.91917 13.9552 9.28574 14.013 9.28574 14.2831C9.28574 14.5339 9.01565 14.5918 8.82273 14.7654C8.68766 14.9005 8.41757 15.1899 8.37899 15.2284ZM16.0766 11.5436C16.2695 10.5597 16.2888 9.71086 16.231 9.01634C16.9833 10.0195 17.4463 11.2349 17.5814 12.4889C17.6007 12.6433 17.755 12.7976 17.9094 12.952C18.0444 13.0677 18.1988 13.2221 18.1988 13.3185C18.1988 13.7622 18.1602 14.2059 18.083 14.6497C18.0637 14.7075 17.8901 14.804 17.755 14.8812C17.5621 14.9776 17.3885 15.0741 17.3499 15.2284C16.9255 16.7139 16.0187 18.0258 14.8033 18.9518C16.5975 17.0805 17.4657 13.9937 16.0766 11.5436ZM14.8612 19.1255C16.1152 18.1609 17.0798 16.8104 17.5042 15.2863C17.5235 15.2284 17.6972 15.132 17.8129 15.0548C18.0058 14.9584 18.1988 14.8426 18.2373 14.6883C18.3145 14.2445 18.3531 13.7815 18.3531 13.3185C18.3531 13.1449 18.1794 12.9712 18.0058 12.7976C17.9094 12.6819 17.755 12.5468 17.755 12.4504C17.6007 11.042 17.0412 9.71087 16.1731 8.61119C15.7872 6.29612 14.2438 5.58233 14.2052 5.56301C14.2438 5.62091 15.247 7.0678 14.5525 8.76552C13.8387 10.4826 12.0059 10.2125 11.8516 10.2317C11.6973 10.2317 11.0992 11.0034 10.3468 12.431C10.2504 12.3925 9.8452 12.296 9.38218 12.3732C9.72944 11.4086 10.2504 10.0388 10.3468 9.92306C10.3854 9.88447 10.6748 9.8073 10.8677 9.74945C11.2342 9.65297 11.4079 9.59511 11.4657 9.51794C11.5043 9.46004 11.6973 9.01634 11.8902 8.55333C12.0638 8.55333 12.5075 8.51475 12.5461 8.49543C12.5847 8.45685 12.9513 7.51155 12.9513 7.3958C12.9513 7.29931 12.1989 5.42799 11.9095 4.71415C12.0445 4.55981 12.1796 4.36689 12.3146 4.1547C16.2695 4.57913 19.3563 7.93598 19.3563 12.0066C19.3563 15.132 17.5235 17.8522 14.8612 19.1255Z" fill="#1B314F"/>
<path d="M9.72926 8.70763C10.0958 8.2832 9.90291 7.49224 9.22766 7.35717C9.40131 6.95206 9.65209 6.14178 9.65209 6.14178C9.65209 6.14178 7.68428 9.22854 7.51067 9.2864C7.33702 9.3443 7.16341 8.66905 7.16341 8.66905C6.79684 10.0774 7.78077 10.2703 7.89652 9.82658C8.4367 9.69156 9.36273 9.11279 9.72926 8.70763Z" fill="#1B314F"/>
<path d="M8.05078 9.46015L9.05398 7.74312C9.05398 7.74312 9.63275 8.03252 9.34334 8.49554C8.97681 9.03572 8.05078 9.46015 8.05078 9.46015Z" fill="#FFD923"/>
<path d="M20.4544 17.4085C20.165 17.7944 19.837 18.1995 19.4512 18.5853C21.9398 13.8009 19.5669 9.42155 19.4704 9.24789C19.6441 9.42155 19.8177 9.61447 19.972 9.78808C21.882 11.9102 22.1135 15.0935 20.4544 17.4085Z" fill="#D82122"/>
<path d="M22.7708 11.2543C21.9027 8.91996 20.668 6.93284 17.9478 5.13868C15.324 3.40238 12.5074 3.53741 12.353 3.55672C12.3337 3.55672 12.3145 3.55672 12.3145 3.55672C12.4109 3.51814 12.5074 3.49882 12.6038 3.47955C13.2019 3.28663 13.9736 3.13229 14.7453 3.03582C16.7903 2.74644 18.8545 3.44097 20.2629 4.92645C20.2821 4.94576 20.2821 4.94576 20.3014 4.96503C21.9027 6.66275 22.7323 8.78489 22.7708 11.2543Z" fill="#D82122"/>
<path d="M17.3304 1.7047C14.4558 1.16452 12.6038 1.43461 11.2726 1.93621C11.234 1.78187 11.099 1.47319 10.9832 1.22239C10.5781 1.7047 10.1537 2.28347 9.88358 2.65002C9.15047 3.1516 8.8418 3.63393 8.8418 3.63393C9.26623 2.187 10.5009 1.10664 12.0057 0.836548C12.4302 0.759379 12.8932 0.720795 13.3948 0.720795C14.7259 0.740087 16.0571 1.06806 17.3304 1.7047Z" fill="#D82122"/>
<path d="M6.70101 5.40881C4.44384 5.33165 5.19621 2.7079 5.2348 2.55356C5.2348 2.57285 5.38913 4.61781 6.70101 5.40881Z" fill="#D82122"/>
<path d="M8.91993 0.682175C7.18363 1.72395 7.53089 4.21264 7.53089 4.21264C5.87176 1.68537 8.78486 0.740051 8.91993 0.682175Z" fill="#D82122"/>
<path d="M6.06454 6.10321C6.1803 6.19969 6.29605 6.3733 6.16103 6.62412C6.08386 6.75914 5.9681 6.73987 5.79445 6.6627C5.56295 6.54695 4.1739 5.73668 2.91992 4.90709C4.34756 5.40869 5.79445 5.94887 6.02596 6.06462C6.02596 6.06462 6.04527 6.08394 6.06454 6.10321Z" fill="white"/>
</svg>
