<svg width="205" height="207" viewBox="0 0 205 207" fill="none" xmlns="http://www.w3.org/2000/svg">
<path d="M19.7484 161.252L91.4865 203.251C97.8362 206.968 105.695 206.984 112.059 203.292L184.552 161.239C190.853 157.584 194.731 150.851 194.731 143.567V61.8791C194.731 54.5453 190.8 47.7742 184.431 44.1379L111.937 2.74673C105.634 -0.85178 97.8959 -0.836443 91.6077 2.78701L19.8702 44.1241C13.541 47.7712 9.64062 54.5202 9.64062 61.8251V143.622C9.64062 150.876 13.4879 157.587 19.7484 161.252Z" fill="#00E28D"/>
<g filter="url(#filter0_f_1096_2553)">
<path d="M167.355 103.169C167.355 139.199 138.147 168.407 102.117 168.407C66.0869 168.407 36.8789 139.199 36.8789 103.169C36.8789 67.1396 66.0869 37.9316 102.117 37.9316C138.147 37.9316 167.355 67.1396 167.355 103.169Z" fill="white"/>
</g>
<path fill-rule="evenodd" clip-rule="evenodd" d="M91.5406 89.1336C97.8875 92.8465 105.74 92.8622 112.102 89.1746L184.505 47.2051L192.702 61.3448L120.146 103.402C113.843 107.056 109.962 113.791 109.962 121.077V202.865H93.6186V121.001C93.6186 113.744 89.7688 107.032 83.505 103.367L11.6445 61.3284L19.8972 47.2215L91.5406 89.1336Z" fill="#00E28D"/>
<defs>
<filter id="filter0_f_1096_2553" x="0.10603" y="1.15876" width="204.022" height="204.022" filterUnits="userSpaceOnUse" color-interpolation-filters="sRGB">
<feFlood flood-opacity="0" result="BackgroundImageFix"/>
<feBlend mode="normal" in="SourceGraphic" in2="BackgroundImageFix" result="shape"/>
<feGaussianBlur stdDeviation="18.3864" result="effect1_foregroundBlur_1096_2553"/>
</filter>
</defs>
</svg>
