<svg width="1053" height="418" viewBox="0 0 1053 418" fill="none" xmlns="http://www.w3.org/2000/svg">
<path d="M40.4781 326.573L185.817 411.662C198.682 419.193 214.603 419.225 227.497 411.745L374.367 326.546C387.131 319.142 394.988 305.501 394.988 290.745V125.247C394.988 110.389 387.023 96.6705 374.12 89.3034L227.25 5.44608C214.481 -1.84439 198.803 -1.81332 186.063 5.5277L40.7249 89.2755C27.902 96.6644 20 110.338 20 125.137V290.855C20 305.552 27.7944 319.148 40.4781 326.573Z" fill="#00E28D"/>
<g filter="url(#filter0_f_2315_1747)">
<path d="M339.527 208.9C339.527 281.896 280.353 341.07 207.357 341.07C134.362 341.07 75.1875 281.896 75.1875 208.9C75.1875 135.905 134.362 76.7305 207.357 76.7305C280.353 76.7305 339.527 135.905 339.527 208.9Z" fill="white"/>
</g>
<path fill-rule="evenodd" clip-rule="evenodd" d="M185.926 180.465C198.784 187.988 214.694 188.02 227.582 180.549L374.27 95.5195L390.875 124.166L243.88 209.374C231.109 216.776 223.247 230.421 223.247 245.182V410.881H190.136V245.028C190.136 230.326 182.336 216.727 169.646 209.303L24.0586 124.133L40.7782 95.5528L185.926 180.465Z" fill="#00E28D"/>
<path d="M490.163 218.145C488.645 218.145 487.403 217.662 486.437 216.696C485.471 215.592 484.988 214.35 484.988 212.97V78.42C484.988 76.902 485.471 75.66 486.437 74.694C487.403 73.728 488.645 73.245 490.163 73.245H546.467C564.407 73.245 578.483 77.385 588.695 85.665C598.907 93.807 604.013 105.399 604.013 120.441C604.013 130.239 601.667 138.519 596.975 145.281C592.283 152.043 586.073 157.149 578.345 160.599L606.704 211.521C607.118 212.349 607.325 213.108 607.325 213.798C607.325 214.902 606.842 215.937 605.876 216.903C605.048 217.731 604.082 218.145 602.978 218.145H575.447C572.825 218.145 570.893 217.524 569.651 216.282C568.409 214.902 567.512 213.66 566.96 212.556L543.362 167.016H522.248V212.97C522.248 214.35 521.696 215.592 520.592 216.696C519.626 217.662 518.384 218.145 516.866 218.145H490.163ZM522.248 137.622H546.053C552.539 137.622 557.369 136.035 560.543 132.861C563.855 129.687 565.511 125.409 565.511 120.027C565.511 114.645 563.924 110.298 560.75 106.986C557.714 103.674 552.815 102.018 546.053 102.018H522.248V137.622Z" fill="#504E4E"/>
<path d="M665.369 220.215C657.503 220.215 650.465 218.421 644.255 214.833C638.183 211.245 633.422 206.001 629.972 199.101C626.522 192.063 624.797 183.507 624.797 173.433V115.68C624.797 114.162 625.28 112.92 626.246 111.954C627.212 110.988 628.454 110.505 629.972 110.505H655.847C657.365 110.505 658.607 110.988 659.573 111.954C660.677 112.92 661.229 114.162 661.229 115.68V172.191C661.229 185.715 667.232 192.477 679.238 192.477C684.896 192.477 689.381 190.752 692.693 187.302C696.143 183.714 697.868 178.677 697.868 172.191V115.68C697.868 114.162 698.351 112.92 699.317 111.954C700.283 110.988 701.525 110.505 703.043 110.505H728.918C730.436 110.505 731.678 110.988 732.644 111.954C733.61 112.92 734.093 114.162 734.093 115.68V212.97C734.093 214.35 733.61 215.592 732.644 216.696C731.678 217.662 730.436 218.145 728.918 218.145H704.906C703.526 218.145 702.284 217.662 701.18 216.696C700.214 215.592 699.731 214.35 699.731 212.97V205.104C696.143 210.072 691.451 213.867 685.655 216.489C679.997 218.973 673.235 220.215 665.369 220.215Z" fill="#504E4E"/>
<path d="M824.268 220.215C816.678 220.215 810.261 218.904 805.017 216.282C799.773 213.66 795.495 210.348 792.183 206.346V212.97C792.183 214.35 791.631 215.592 790.527 216.696C789.561 217.662 788.388 218.145 787.008 218.145H763.617C762.099 218.145 760.857 217.662 759.891 216.696C758.925 215.592 758.442 214.35 758.442 212.97V76.35C758.442 74.832 758.925 73.59 759.891 72.624C760.857 71.658 762.099 71.175 763.617 71.175H788.871C790.389 71.175 791.631 71.658 792.597 72.624C793.563 73.59 794.046 74.832 794.046 76.35V120.648C797.496 117.06 801.705 114.162 806.673 111.954C811.641 109.608 817.506 108.435 824.268 108.435C831.168 108.435 837.24 109.608 842.484 111.954C847.866 114.162 852.42 117.405 856.146 121.683C859.872 125.823 862.77 130.929 864.84 137.001C866.91 142.935 868.083 149.559 868.359 156.873C868.497 159.633 868.566 162.117 868.566 164.325C868.566 166.395 868.497 168.81 868.359 171.57C868.083 179.298 866.91 186.198 864.84 192.27C862.77 198.204 859.803 203.31 855.939 207.588C852.213 211.728 847.728 214.902 842.484 217.11C837.24 219.18 831.168 220.215 824.268 220.215ZM813.09 192.477C817.782 192.477 821.439 191.511 824.061 189.579C826.683 187.647 828.546 185.025 829.65 181.713C830.892 178.401 831.651 174.744 831.927 170.742C832.203 166.464 832.203 162.186 831.927 157.908C831.651 153.906 830.892 150.249 829.65 146.937C828.546 143.625 826.683 141.003 824.061 139.071C821.439 137.139 817.782 136.173 813.09 136.173C808.812 136.173 805.293 137.139 802.533 139.071C799.773 140.865 797.703 143.28 796.323 146.316C794.943 149.214 794.184 152.388 794.046 155.838C793.908 158.46 793.839 161.013 793.839 163.497C793.839 165.981 793.908 168.603 794.046 171.363C794.322 175.089 795.081 178.539 796.323 181.713C797.565 184.887 799.566 187.509 802.326 189.579C805.086 191.511 808.674 192.477 813.09 192.477Z" fill="#504E4E"/>
<path d="M894.205 218.145C892.687 218.145 891.445 217.662 890.479 216.696C889.513 215.592 889.03 214.35 889.03 212.97V115.68C889.03 114.162 889.513 112.92 890.479 111.954C891.445 110.988 892.687 110.505 894.205 110.505H918.631C920.149 110.505 921.391 110.988 922.357 111.954C923.323 112.92 923.806 114.162 923.806 115.68V212.97C923.806 214.35 923.323 215.592 922.357 216.696C921.391 217.662 920.149 218.145 918.631 218.145H894.205ZM893.998 94.98C892.48 94.98 891.238 94.497 890.272 93.531C889.306 92.565 888.823 91.323 888.823 89.805V71.175C888.823 69.795 889.306 68.622 890.272 67.656C891.238 66.552 892.48 66 893.998 66H918.838C920.218 66 921.391 66.552 922.357 67.656C923.461 68.622 924.013 69.795 924.013 71.175V89.805C924.013 91.323 923.461 92.565 922.357 93.531C921.391 94.497 920.218 94.98 918.838 94.98H893.998Z" fill="#504E4E"/>
<path d="M998.743 220.215C988.531 220.215 979.492 218.352 971.626 214.626C963.76 210.9 957.481 205.518 952.789 198.48C948.235 191.304 945.751 182.748 945.337 172.812C945.199 170.604 945.13 167.844 945.13 164.532C945.13 161.082 945.199 158.253 945.337 156.045C945.751 145.971 948.235 137.415 952.789 130.377C957.343 123.201 963.553 117.75 971.419 114.024C979.423 110.298 988.531 108.435 998.743 108.435C1008.26 108.435 1016.41 109.815 1023.17 112.575C1030.07 115.197 1035.59 118.509 1039.73 122.511C1044.01 126.513 1047.18 130.653 1049.25 134.931C1051.46 139.071 1052.63 142.728 1052.77 145.902C1052.91 147.282 1052.42 148.524 1051.32 149.628C1050.22 150.594 1048.97 151.077 1047.59 151.077H1021.31C1019.79 151.077 1018.61 150.732 1017.79 150.042C1016.96 149.352 1016.2 148.317 1015.51 146.937C1013.85 142.659 1011.71 139.623 1009.09 137.829C1006.61 136.035 1003.37 135.138 999.364 135.138C993.844 135.138 989.566 136.932 986.53 140.52C983.632 144.108 982.045 149.628 981.769 157.08C981.631 162.6 981.631 167.499 981.769 171.777C982.183 179.367 983.839 184.887 986.737 188.337C989.635 191.787 993.844 193.512 999.364 193.512C1003.64 193.512 1007.02 192.615 1009.51 190.821C1011.99 188.889 1013.99 185.853 1015.51 181.713C1016.2 180.333 1016.96 179.298 1017.79 178.608C1018.61 177.918 1019.79 177.573 1021.31 177.573H1047.59C1048.97 177.573 1050.22 178.056 1051.32 179.022C1052.42 179.988 1052.91 181.23 1052.77 182.748C1052.63 184.956 1051.94 187.647 1050.7 190.821C1049.46 193.995 1047.53 197.307 1044.9 200.757C1042.28 204.207 1038.83 207.381 1034.55 210.279C1030.41 213.177 1025.38 215.592 1019.44 217.524C1013.51 219.318 1006.61 220.215 998.743 220.215Z" fill="#504E4E"/>
<path d="M484.988 285C484.988 265.118 501.106 249 520.988 249H1016.99C1036.87 249 1052.99 265.118 1052.99 285V315C1052.99 334.882 1036.87 351 1016.99 351H520.988C501.106 351 484.988 334.882 484.988 315V285Z" fill="#FFB800"/>
<path d="M655.557 321V282.759H640.059V276.9H677.67V282.759H662.172V321H655.557ZM692.39 321.567C689.24 321.567 686.384 320.832 683.822 319.362C681.302 317.892 679.286 315.897 677.774 313.377C676.304 310.857 675.569 308.043 675.569 304.935C675.569 301.869 676.283 299.097 677.711 296.619C679.139 294.099 681.071 292.104 683.507 290.634C685.943 289.122 688.652 288.366 691.634 288.366C694.616 288.366 697.262 289.122 699.572 290.634C701.882 292.104 703.709 294.12 705.053 296.682C706.439 299.202 707.132 302.058 707.132 305.25V307.014H681.869C682.205 308.778 682.856 310.353 683.822 311.739C684.83 313.125 686.09 314.217 687.602 315.015C689.156 315.813 690.836 316.212 692.642 316.212C694.196 316.212 695.687 315.981 697.115 315.519C698.585 315.015 699.803 314.301 700.769 313.377L704.801 317.346C702.911 318.774 700.958 319.845 698.942 320.559C696.968 321.231 694.784 321.567 692.39 321.567ZM681.932 302.289H700.895C700.643 300.609 700.055 299.139 699.131 297.879C698.249 296.577 697.136 295.569 695.792 294.855C694.49 294.099 693.062 293.721 691.508 293.721C689.912 293.721 688.442 294.078 687.098 294.792C685.754 295.506 684.62 296.514 683.696 297.816C682.814 299.076 682.226 300.567 681.932 302.289ZM726.355 321.63C723.583 321.63 720.979 321.231 718.543 320.433C716.149 319.593 714.07 318.417 712.306 316.905L715.771 312.747C717.409 314.049 719.089 315.057 720.811 315.771C722.575 316.443 724.36 316.779 726.166 316.779C728.434 316.779 730.282 316.338 731.71 315.456C733.138 314.574 733.852 313.419 733.852 311.991C733.852 310.815 733.432 309.891 732.592 309.219C731.752 308.547 730.45 308.085 728.686 307.833L722.89 307.014C719.698 306.552 717.304 305.565 715.708 304.053C714.112 302.541 713.314 300.525 713.314 298.005C713.314 296.073 713.839 294.393 714.889 292.965C715.939 291.495 717.409 290.361 719.299 289.563C721.189 288.723 723.394 288.303 725.914 288.303C728.224 288.303 730.45 288.639 732.592 289.311C734.734 289.983 736.792 291.033 738.766 292.461L735.553 296.619C733.789 295.443 732.067 294.582 730.387 294.036C728.749 293.49 727.09 293.217 725.41 293.217C723.478 293.217 721.924 293.637 720.748 294.477C719.572 295.275 718.984 296.325 718.984 297.627C718.984 298.803 719.383 299.727 720.181 300.399C721.021 301.029 722.386 301.47 724.276 301.722L730.072 302.541C733.264 303.003 735.679 303.99 737.317 305.502C738.955 306.972 739.774 308.967 739.774 311.487C739.774 313.419 739.186 315.162 738.01 316.716C736.834 318.228 735.238 319.425 733.222 320.307C731.206 321.189 728.917 321.63 726.355 321.63ZM759.624 321.567C756.516 321.567 754.143 320.853 752.505 319.425C750.867 317.955 750.048 315.834 750.048 313.062V294.225H743.244V288.933H750.048V280.743L756.285 279.231V288.933H765.735V294.225H756.285V311.613C756.285 313.251 756.642 314.427 757.356 315.141C758.112 315.813 759.33 316.149 761.01 316.149C761.892 316.149 762.669 316.086 763.341 315.96C764.055 315.834 764.811 315.645 765.609 315.393V320.685C764.769 320.979 763.782 321.189 762.648 321.315C761.556 321.483 760.548 321.567 759.624 321.567ZM772.266 321V288.933H778.566V292.209C781.044 289.605 784.257 288.303 788.205 288.303C790.683 288.303 792.846 288.828 794.694 289.878C796.584 290.928 798.054 292.398 799.104 294.288C800.196 296.178 800.742 298.362 800.742 300.84V321H794.442V301.911C794.442 299.391 793.728 297.417 792.3 295.989C790.914 294.519 788.961 293.784 786.441 293.784C784.761 293.784 783.249 294.141 781.905 294.855C780.561 295.569 779.448 296.598 778.566 297.942V321H772.266ZM825.273 321.567C822.123 321.567 819.267 320.832 816.705 319.362C814.185 317.892 812.169 315.897 810.657 313.377C809.187 310.857 808.452 308.043 808.452 304.935C808.452 301.869 809.166 299.097 810.594 296.619C812.022 294.099 813.954 292.104 816.39 290.634C818.826 289.122 821.535 288.366 824.517 288.366C827.499 288.366 830.145 289.122 832.455 290.634C834.765 292.104 836.592 294.12 837.936 296.682C839.322 299.202 840.015 302.058 840.015 305.25V307.014H814.752C815.088 308.778 815.739 310.353 816.705 311.739C817.713 313.125 818.973 314.217 820.485 315.015C822.039 315.813 823.719 316.212 825.525 316.212C827.079 316.212 828.57 315.981 829.998 315.519C831.468 315.015 832.686 314.301 833.652 313.377L837.684 317.346C835.794 318.774 833.841 319.845 831.825 320.559C829.851 321.231 827.667 321.567 825.273 321.567ZM814.815 302.289H833.778C833.526 300.609 832.938 299.139 832.014 297.879C831.132 296.577 830.019 295.569 828.675 294.855C827.373 294.099 825.945 293.721 824.391 293.721C822.795 293.721 821.325 294.078 819.981 294.792C818.637 295.506 817.503 296.514 816.579 297.816C815.697 299.076 815.109 300.567 814.815 302.289ZM860.717 321.567C857.609 321.567 855.236 320.853 853.598 319.425C851.96 317.955 851.141 315.834 851.141 313.062V294.225H844.337V288.933H851.141V280.743L857.378 279.231V288.933H866.828V294.225H857.378V311.613C857.378 313.251 857.735 314.427 858.449 315.141C859.205 315.813 860.423 316.149 862.103 316.149C862.985 316.149 863.762 316.086 864.434 315.96C865.148 315.834 865.904 315.645 866.702 315.393V320.685C865.862 320.979 864.875 321.189 863.741 321.315C862.649 321.483 861.641 321.567 860.717 321.567ZM884.999 321.63C882.227 321.63 879.623 321.231 877.187 320.433C874.793 319.593 872.714 318.417 870.95 316.905L874.415 312.747C876.053 314.049 877.733 315.057 879.455 315.771C881.219 316.443 883.004 316.779 884.81 316.779C887.078 316.779 888.926 316.338 890.354 315.456C891.782 314.574 892.496 313.419 892.496 311.991C892.496 310.815 892.076 309.891 891.236 309.219C890.396 308.547 889.094 308.085 887.33 307.833L881.534 307.014C878.342 306.552 875.948 305.565 874.352 304.053C872.756 302.541 871.958 300.525 871.958 298.005C871.958 296.073 872.483 294.393 873.533 292.965C874.583 291.495 876.053 290.361 877.943 289.563C879.833 288.723 882.038 288.303 884.558 288.303C886.868 288.303 889.094 288.639 891.236 289.311C893.378 289.983 895.436 291.033 897.41 292.461L894.197 296.619C892.433 295.443 890.711 294.582 889.031 294.036C887.393 293.49 885.734 293.217 884.054 293.217C882.122 293.217 880.568 293.637 879.392 294.477C878.216 295.275 877.628 296.325 877.628 297.627C877.628 298.803 878.027 299.727 878.825 300.399C879.665 301.029 881.03 301.47 882.92 301.722L888.716 302.541C891.908 303.003 894.323 303.99 895.961 305.502C897.599 306.972 898.418 308.967 898.418 311.487C898.418 313.419 897.83 315.162 896.654 316.716C895.478 318.228 893.882 319.425 891.866 320.307C889.85 321.189 887.561 321.63 884.999 321.63Z" fill="#241F2A"/>
<defs>
<filter id="filter0_f_2315_1747" x="0.686668" y="2.22964" width="413.342" height="413.342" filterUnits="userSpaceOnUse" color-interpolation-filters="sRGB">
<feFlood flood-opacity="0" result="BackgroundImageFix"/>
<feBlend mode="normal" in="SourceGraphic" in2="BackgroundImageFix" result="shape"/>
<feGaussianBlur stdDeviation="37.2504" result="effect1_foregroundBlur_2315_1747"/>
</filter>
</defs>
</svg>
