<svg width="132" height="41" viewBox="0 0 132 41" fill="none" xmlns="http://www.w3.org/2000/svg">
<path d="M66.76 24L62.11 16.98H59.2V24H54.85V1.92H61.54C64.28 1.92 66.4 2.59 67.9 3.93C69.42 5.25 70.18 7.06 70.18 9.36C70.18 10.72 69.89 12 69.31 13.2C68.75 14.38 67.88 15.31 66.7 15.99L71.83 24H66.76ZM59.2 12.78H62.29C63.47 12.78 64.33 12.44 64.87 11.76C65.41 11.06 65.68 10.31 65.68 9.51C65.68 8.71 65.45 7.95 64.99 7.23C64.53 6.49 63.64 6.12 62.32 6.12H59.2V12.78ZM87.9264 10.89V24H84.1164L83.8164 21.9C83.3564 22.74 82.7064 23.41 81.8664 23.91C81.0464 24.39 80.0764 24.63 78.9564 24.63C77.7564 24.63 76.7564 24.26 75.9564 23.52C75.1564 22.78 74.7464 21.84 74.7264 20.7V10.89H78.9264V19.14C78.9864 20.42 79.5764 21.06 80.6964 21.06C81.6164 21.06 82.3464 20.61 82.8864 19.71C83.4464 18.81 83.7264 17.65 83.7264 16.23V10.89H87.9264ZM101.426 10.23C102.566 10.23 103.606 10.51 104.546 11.07C105.506 11.61 106.266 12.4 106.826 13.44C107.386 14.48 107.666 15.72 107.666 17.16C107.666 18.6 107.356 19.87 106.736 20.97C106.116 22.05 105.286 22.89 104.246 23.49C103.206 24.07 102.076 24.36 100.856 24.36C99.0759 24.36 97.6059 23.8 96.4459 22.68V24H92.2459V0.329997H96.4159V11.79C96.9759 11.33 97.6859 10.96 98.5459 10.68C99.4059 10.38 100.366 10.23 101.426 10.23ZM99.9259 20.82C100.546 20.82 101.116 20.66 101.636 20.34C102.176 20.02 102.606 19.58 102.926 19.02C103.246 18.44 103.406 17.81 103.406 17.13C103.406 16.09 103.066 15.23 102.386 14.55C101.706 13.87 100.886 13.53 99.9259 13.53C99.1059 13.53 98.3859 13.72 97.7659 14.1C97.1459 14.48 96.7059 14.99 96.4459 15.63V18.84C97.1659 20.16 98.3259 20.82 99.9259 20.82ZM115.167 10.89V24H110.967V10.89H115.167ZM110.877 6.24C110.877 5.64 111.107 5.14 111.567 4.74C112.047 4.32 112.587 4.11 113.187 4.11C113.767 4.11 114.287 4.32 114.747 4.74C115.207 5.14 115.437 5.64 115.437 6.24C115.437 6.84 115.207 7.34 114.747 7.74C114.287 8.14 113.767 8.34 113.187 8.34C112.587 8.34 112.047 8.14 111.567 7.74C111.107 7.34 110.877 6.84 110.877 6.24ZM130.622 22.83C130.042 23.29 129.312 23.66 128.432 23.94C127.572 24.22 126.722 24.36 125.882 24.36C123.602 24.36 121.792 23.75 120.452 22.53C119.132 21.29 118.472 19.59 118.472 17.43C118.472 16.03 118.792 14.81 119.432 13.77C120.092 12.71 120.952 11.91 122.012 11.37C123.072 10.81 124.212 10.53 125.432 10.53C127.612 10.53 129.382 11.11 130.742 12.27L128.702 14.97C127.842 14.29 126.882 13.95 125.822 13.95C124.942 13.95 124.192 14.28 123.572 14.94C122.972 15.6 122.672 16.43 122.672 17.43C122.672 18.43 123.002 19.27 123.662 19.95C124.322 20.61 125.182 20.94 126.242 20.94C127.162 20.94 127.922 20.69 128.522 20.19L130.622 22.83Z" fill="#4AA956"/>
<path d="M30.7928 9.26623L16.4892 17.5108L6.6 11.798L16.4892 6.08525L21.9856 9.26623L26.4 6.71279L16.4892 1L0 10.5213V13.0531L14.3036 21.3193V32.7449L4.41443 27.0321V20.6918L0 18.1384V29.5639L16.4892 39.0852L18.6964 37.8302V21.3193L28.5856 15.6066V27.0321L23.0892 30.1915V35.2984L33 29.5639V10.5213L30.7928 9.26623Z" fill="#4AA956"/>
<path opacity="0.4" d="M57.168 31.289C58.3047 31.289 59.1773 31.4907 59.786 31.894C60.3947 32.29 60.699 32.9427 60.699 33.852C60.699 34.7687 60.391 35.4323 59.775 35.843C59.159 36.2463 58.279 36.448 57.135 36.448H56.596V39H54.88V31.487C55.254 31.4137 55.65 31.3623 56.068 31.333C56.486 31.3037 56.8527 31.289 57.168 31.289ZM57.278 32.752C57.1533 32.752 57.0287 32.7557 56.904 32.763C56.7867 32.7703 56.684 32.7777 56.596 32.785V34.985H57.135C57.729 34.985 58.1763 34.9043 58.477 34.743C58.7777 34.5817 58.928 34.281 58.928 33.841C58.928 33.6283 58.8877 33.4523 58.807 33.313C58.7337 33.1737 58.6237 33.0637 58.477 32.983C58.3377 32.895 58.1653 32.8363 57.96 32.807C57.7547 32.7703 57.5273 32.752 57.278 32.752ZM66.5351 33.379C66.5351 33.6577 66.4801 33.9253 66.3701 34.182C66.2601 34.4387 66.1171 34.688 65.9411 34.93C65.7651 35.1647 65.5671 35.392 65.3471 35.612C65.1271 35.832 64.9108 36.041 64.6981 36.239C64.5881 36.3417 64.4671 36.459 64.3351 36.591C64.2104 36.7157 64.0894 36.844 63.9721 36.976C63.8548 37.108 63.7484 37.2327 63.6531 37.35C63.5651 37.46 63.5101 37.5517 63.4881 37.625H66.7661V39H61.6841C61.6694 38.9193 61.6621 38.8167 61.6621 38.692C61.6621 38.5673 61.6621 38.4793 61.6621 38.428C61.6621 38.076 61.7171 37.7533 61.8271 37.46C61.9444 37.1667 62.0948 36.8953 62.2781 36.646C62.4614 36.3893 62.6668 36.151 62.8941 35.931C63.1288 35.711 63.3598 35.491 63.5871 35.271C63.7631 35.1023 63.9281 34.9447 64.0821 34.798C64.2361 34.644 64.3718 34.4973 64.4891 34.358C64.6064 34.2113 64.6981 34.0683 64.7641 33.929C64.8301 33.7823 64.8631 33.6357 64.8631 33.489C64.8631 33.1663 64.7714 32.939 64.5881 32.807C64.4048 32.675 64.1774 32.609 63.9061 32.609C63.7081 32.609 63.5211 32.642 63.3451 32.708C63.1764 32.7667 63.0188 32.84 62.8721 32.928C62.7328 33.0087 62.6118 33.093 62.5091 33.181C62.4064 33.2617 62.3294 33.3277 62.2781 33.379L61.4641 32.235C61.7868 31.9343 62.1608 31.6887 62.5861 31.498C63.0188 31.3 63.4808 31.201 63.9721 31.201C64.4194 31.201 64.8044 31.2523 65.1271 31.355C65.4498 31.4577 65.7138 31.6043 65.9191 31.795C66.1318 31.9783 66.2858 32.2057 66.3811 32.477C66.4838 32.741 66.5351 33.0417 66.5351 33.379ZM70.4991 31.289C71.6357 31.289 72.5084 31.4907 73.1171 31.894C73.7257 32.29 74.0301 32.9427 74.0301 33.852C74.0301 34.7687 73.7221 35.4323 73.1061 35.843C72.4901 36.2463 71.6101 36.448 70.4661 36.448H69.9271V39H68.2111V31.487C68.5851 31.4137 68.9811 31.3623 69.3991 31.333C69.8171 31.3037 70.1837 31.289 70.4991 31.289ZM70.6091 32.752C70.4844 32.752 70.3597 32.7557 70.2351 32.763C70.1177 32.7703 70.0151 32.7777 69.9271 32.785V34.985H70.4661C71.0601 34.985 71.5074 34.9043 71.8081 34.743C72.1087 34.5817 72.2591 34.281 72.2591 33.841C72.2591 33.6283 72.2187 33.4523 72.1381 33.313C72.0647 33.1737 71.9547 33.0637 71.8081 32.983C71.6687 32.895 71.4964 32.8363 71.2911 32.807C71.0857 32.7703 70.8584 32.752 70.6091 32.752ZM83.5867 31.377V32.84H81.2877V39H79.5717V32.84H77.2727V31.377H83.5867ZM86.9226 31.289C88.0666 31.289 88.9429 31.4943 89.5516 31.905C90.1602 32.3083 90.4646 32.939 90.4646 33.797C90.4646 34.3323 90.3399 34.7687 90.0906 35.106C89.8486 35.436 89.4966 35.6963 89.0346 35.887C89.1886 36.0777 89.3499 36.2977 89.5186 36.547C89.6872 36.789 89.8522 37.0457 90.0136 37.317C90.1822 37.581 90.3436 37.8597 90.4976 38.153C90.6516 38.439 90.7946 38.7213 90.9266 39H89.0016C88.8622 38.7507 88.7192 38.4977 88.5726 38.241C88.4332 37.9843 88.2866 37.735 88.1326 37.493C87.9859 37.251 87.8392 37.0237 87.6926 36.811C87.5459 36.591 87.3992 36.393 87.2526 36.217H86.4056V39H84.6896V31.487C85.0636 31.4137 85.4486 31.3623 85.8446 31.333C86.2479 31.3037 86.6072 31.289 86.9226 31.289ZM87.0216 32.752C86.8969 32.752 86.7832 32.7557 86.6806 32.763C86.5852 32.7703 86.4936 32.7777 86.4056 32.785V34.853H86.8896C87.5349 34.853 87.9969 34.7723 88.2756 34.611C88.5542 34.4497 88.6936 34.1747 88.6936 33.786C88.6936 33.412 88.5506 33.148 88.2646 32.994C87.9859 32.8327 87.5716 32.752 87.0216 32.752ZM97.4742 39C97.3936 38.736 97.3019 38.4647 97.1992 38.186C97.1039 37.9073 97.0086 37.6287 96.9132 37.35H93.9432C93.8479 37.6287 93.7489 37.9073 93.6462 38.186C93.5509 38.4647 93.4629 38.736 93.3822 39H91.6002C91.8862 38.1787 92.1576 37.4197 92.4142 36.723C92.6709 36.0263 92.9202 35.37 93.1622 34.754C93.4116 34.138 93.6536 33.555 93.8882 33.005C94.1302 32.4477 94.3796 31.905 94.6362 31.377H96.2752C96.5246 31.905 96.7702 32.4477 97.0122 33.005C97.2542 33.555 97.4962 34.138 97.7382 34.754C97.9876 35.37 98.2406 36.0263 98.4972 36.723C98.7539 37.4197 99.0252 38.1787 99.3112 39H97.4742ZM95.4172 33.104C95.3806 33.214 95.3256 33.3643 95.2522 33.555C95.1789 33.7457 95.0946 33.9657 94.9992 34.215C94.9039 34.4643 94.7976 34.7393 94.6802 35.04C94.5702 35.3407 94.4566 35.656 94.3392 35.986H96.5062C96.3889 35.656 96.2752 35.3407 96.1652 35.04C96.0552 34.7393 95.9489 34.4643 95.8462 34.215C95.7509 33.9657 95.6666 33.7457 95.5932 33.555C95.5199 33.3643 95.4612 33.214 95.4172 33.104ZM102.014 37.603C102.095 37.6103 102.186 37.6177 102.289 37.625C102.399 37.625 102.527 37.625 102.674 37.625C103.532 37.625 104.166 37.4087 104.577 36.976C104.995 36.5433 105.204 35.9457 105.204 35.183C105.204 34.3837 105.006 33.7787 104.61 33.368C104.214 32.9573 103.587 32.752 102.729 32.752C102.612 32.752 102.491 32.7557 102.366 32.763C102.241 32.763 102.124 32.7703 102.014 32.785V37.603ZM106.975 35.183C106.975 35.843 106.872 36.4187 106.667 36.91C106.462 37.4013 106.168 37.8083 105.787 38.131C105.413 38.4537 104.955 38.6957 104.412 38.857C103.869 39.0183 103.261 39.099 102.586 39.099C102.278 39.099 101.919 39.0843 101.508 39.055C101.097 39.033 100.694 38.9817 100.298 38.901V31.476C100.694 31.4027 101.105 31.355 101.53 31.333C101.963 31.3037 102.333 31.289 102.641 31.289C103.294 31.289 103.884 31.3623 104.412 31.509C104.947 31.6557 105.406 31.8867 105.787 32.202C106.168 32.5173 106.462 32.9207 106.667 33.412C106.872 33.9033 106.975 34.4937 106.975 35.183ZM108.408 39V31.377H113.556V32.818H110.124V34.314H113.171V35.722H110.124V37.559H113.809V39H108.408ZM117.158 37.691C117.4 37.691 117.598 37.6727 117.752 37.636C117.914 37.592 118.042 37.537 118.137 37.471C118.233 37.3977 118.299 37.3133 118.335 37.218C118.372 37.1227 118.39 37.0163 118.39 36.899C118.39 36.6497 118.273 36.4443 118.038 36.283C117.804 36.1143 117.4 35.9347 116.828 35.744C116.579 35.656 116.33 35.557 116.08 35.447C115.831 35.3297 115.607 35.1867 115.409 35.018C115.211 34.842 115.05 34.633 114.925 34.391C114.801 34.1417 114.738 33.841 114.738 33.489C114.738 33.137 114.804 32.8217 114.936 32.543C115.068 32.257 115.255 32.015 115.497 31.817C115.739 31.619 116.033 31.4687 116.377 31.366C116.722 31.256 117.111 31.201 117.543 31.201C118.057 31.201 118.5 31.256 118.874 31.366C119.248 31.476 119.556 31.597 119.798 31.729L119.303 33.082C119.091 32.972 118.852 32.8767 118.588 32.796C118.332 32.708 118.02 32.664 117.653 32.664C117.243 32.664 116.946 32.7227 116.762 32.84C116.586 32.95 116.498 33.1223 116.498 33.357C116.498 33.4963 116.531 33.6137 116.597 33.709C116.663 33.8043 116.755 33.8923 116.872 33.973C116.997 34.0463 117.136 34.116 117.29 34.182C117.452 34.2407 117.628 34.303 117.818 34.369C118.214 34.5157 118.559 34.6623 118.852 34.809C119.146 34.9483 119.388 35.1133 119.578 35.304C119.776 35.4947 119.923 35.7183 120.018 35.975C120.114 36.2317 120.161 36.5433 120.161 36.91C120.161 37.6213 119.912 38.175 119.413 38.571C118.915 38.9597 118.163 39.154 117.158 39.154C116.821 39.154 116.517 39.132 116.245 39.088C115.974 39.0513 115.732 39.0037 115.519 38.945C115.314 38.8863 115.134 38.824 114.98 38.758C114.834 38.692 114.709 38.6297 114.606 38.571L115.09 37.207C115.318 37.3317 115.596 37.4453 115.926 37.548C116.264 37.6433 116.674 37.691 117.158 37.691Z" fill="black"/>
</svg>
