<svg width="132" height="39" viewBox="0 0 132 39" fill="none" xmlns="http://www.w3.org/2000/svg">
<path d="M61.5396 4.91999C62.9196 4.91999 64.1496 5.09999 65.2296 5.45999C66.3096 5.79999 67.2096 6.29999 67.9296 6.95999C68.6696 7.59999 69.2296 8.37999 69.6096 9.29999C69.9896 10.2 70.1796 11.22 70.1796 12.36C70.1796 13.26 70.0396 14.16 69.7596 15.06C69.4996 15.96 69.0596 16.78 68.4396 17.52C67.8396 18.26 67.0396 18.86 66.0396 19.32C65.0396 19.76 63.7996 19.98 62.3196 19.98H59.1996V27H54.8496V4.91999H61.5396ZM62.2896 15.78C62.9496 15.78 63.4996 15.67 63.9396 15.45C64.3796 15.23 64.7196 14.95 64.9596 14.61C65.2196 14.27 65.3996 13.92 65.4996 13.56C65.6196 13.18 65.6796 12.83 65.6796 12.51C65.6796 12.27 65.6396 11.97 65.5596 11.61C65.4996 11.23 65.3596 10.85 65.1396 10.47C64.9196 10.09 64.5796 9.76999 64.1196 9.50999C63.6796 9.24999 63.0796 9.11999 62.3196 9.11999H59.1996V15.78H62.2896ZM66.3696 18.48L71.8296 27H66.7596L61.1796 18.6L66.3696 18.48Z" fill="#4AA956"/>
<path d="M78.956 27.63C77.776 27.63 76.786 27.27 75.986 26.55C75.186 25.81 74.766 24.86 74.726 23.7V13.89H78.926V22.14C78.966 22.72 79.116 23.19 79.376 23.55C79.636 23.89 80.076 24.06 80.696 24.06C81.316 24.06 81.846 23.85 82.286 23.43C82.746 23.01 83.096 22.44 83.336 21.72C83.596 20.98 83.726 20.15 83.726 19.23V13.89H87.926V27H84.116L83.786 24.6L83.846 24.87C83.546 25.41 83.166 25.89 82.706 26.31C82.246 26.73 81.696 27.05 81.056 27.27C80.436 27.51 79.736 27.63 78.956 27.63Z" fill="#4AA956"/>
<path d="M100.856 27.36C99.7556 27.36 98.8256 27.18 98.0656 26.82C97.3256 26.44 96.6756 25.95 96.1156 25.35L96.4456 24.45V27H92.2456V3.32999H96.4156V16.14V14.79C96.9356 14.35 97.6255 13.98 98.4855 13.68C99.3456 13.38 100.326 13.23 101.426 13.23C102.566 13.23 103.606 13.5 104.546 14.04C105.486 14.58 106.236 15.37 106.796 16.41C107.376 17.43 107.666 18.68 107.666 20.16C107.666 21.64 107.346 22.92 106.706 24C106.086 25.08 105.256 25.91 104.216 26.49C103.176 27.07 102.056 27.36 100.856 27.36ZM99.9256 23.82C100.546 23.82 101.116 23.66 101.636 23.34C102.176 23.02 102.606 22.58 102.926 22.02C103.246 21.46 103.406 20.83 103.406 20.13C103.406 19.43 103.246 18.81 102.926 18.27C102.606 17.73 102.176 17.31 101.636 17.01C101.116 16.69 100.546 16.53 99.9256 16.53C99.3856 16.53 98.8755 16.62 98.3955 16.8C97.9356 16.96 97.5356 17.2 97.1956 17.52C96.8756 17.82 96.6256 18.19 96.4456 18.63V21.84C96.6856 22.28 96.9655 22.65 97.2855 22.95C97.6255 23.23 98.0156 23.45 98.4556 23.61C98.8955 23.75 99.3856 23.82 99.9256 23.82Z" fill="#4AA956"/>
<path d="M110.966 13.89H115.166V27H110.966V13.89ZM110.876 9.23999C110.876 8.61999 111.116 8.10999 111.596 7.70999C112.096 7.30999 112.626 7.10999 113.186 7.10999C113.746 7.10999 114.256 7.30999 114.716 7.70999C115.196 8.10999 115.436 8.61999 115.436 9.23999C115.436 9.85999 115.196 10.37 114.716 10.77C114.256 11.15 113.746 11.34 113.186 11.34C112.626 11.34 112.096 11.15 111.596 10.77C111.116 10.37 110.876 9.85999 110.876 9.23999Z" fill="#4AA956"/>
<path d="M130.622 25.83C130.042 26.29 129.312 26.66 128.432 26.94C127.572 27.22 126.722 27.36 125.882 27.36C124.382 27.36 123.072 27.09 121.952 26.55C120.852 25.99 119.992 25.2 119.372 24.18C118.772 23.14 118.472 21.89 118.472 20.43C118.472 18.97 118.802 17.73 119.462 16.71C120.122 15.67 120.982 14.88 122.042 14.34C123.122 13.8 124.252 13.53 125.432 13.53C126.612 13.53 127.632 13.69 128.492 14.01C129.372 14.33 130.122 14.75 130.742 15.27L128.702 17.97C128.422 17.75 128.032 17.53 127.532 17.31C127.052 17.07 126.482 16.95 125.822 16.95C125.242 16.95 124.712 17.1 124.232 17.4C123.752 17.7 123.372 18.11 123.092 18.63C122.812 19.15 122.672 19.75 122.672 20.43C122.672 21.07 122.822 21.66 123.122 22.2C123.422 22.74 123.832 23.17 124.352 23.49C124.892 23.79 125.522 23.94 126.242 23.94C126.702 23.94 127.122 23.88 127.502 23.76C127.902 23.62 128.242 23.43 128.522 23.19L130.622 25.83Z" fill="#4AA956"/>
<path d="M33 9.72116L16.3095 0L0.0346275 9.54632L0 28.7788L16.4134 38.5L33 28.9886V9.72116ZM16.3442 2.93733L28.6716 10.1408L16.4134 17.3442L4.08604 10.1408L16.3442 2.93733ZM14.9244 34.5136L2.52781 27.3451V13.0082L14.8898 20.2116V34.5136H14.9244ZM18.1102 20.4214L30.4722 13.218V27.52L18.1102 34.7584V20.4214Z" fill="#4AA956"/>
</svg>
