<svg width="149" height="47" viewBox="0 0 149 47" fill="none" xmlns="http://www.w3.org/2000/svg">
<path d="M78.54 7.92C79.92 7.92 81.15 8.1 82.23 8.46C83.31 8.8 84.21 9.3 84.93 9.96C85.67 10.6 86.23 11.38 86.61 12.3C86.99 13.2 87.18 14.22 87.18 15.36C87.18 16.26 87.04 17.16 86.76 18.06C86.5 18.96 86.06 19.78 85.44 20.52C84.84 21.26 84.04 21.86 83.04 22.32C82.04 22.76 80.8 22.98 79.32 22.98H76.2V30H71.85V7.92H78.54ZM79.29 18.78C79.95 18.78 80.5 18.67 80.94 18.45C81.38 18.23 81.72 17.95 81.96 17.61C82.22 17.27 82.4 16.92 82.5 16.56C82.62 16.18 82.68 15.83 82.68 15.51C82.68 15.27 82.64 14.97 82.56 14.61C82.5 14.23 82.36 13.85 82.14 13.47C81.92 13.09 81.58 12.77 81.12 12.51C80.68 12.25 80.08 12.12 79.32 12.12H76.2V18.78H79.29ZM83.37 21.48L88.83 30H83.76L78.18 21.6L83.37 21.48ZM95.9564 30.63C94.7764 30.63 93.7864 30.27 92.9864 29.55C92.1864 28.81 91.7664 27.86 91.7264 26.7V16.89H95.9264V25.14C95.9664 25.72 96.1164 26.19 96.3764 26.55C96.6364 26.89 97.0764 27.06 97.6964 27.06C98.3164 27.06 98.8464 26.85 99.2864 26.43C99.7464 26.01 100.096 25.44 100.336 24.72C100.596 23.98 100.726 23.15 100.726 22.23V16.89H104.926V30H101.116L100.786 27.6L100.846 27.87C100.546 28.41 100.166 28.89 99.7064 29.31C99.2464 29.73 98.6964 30.05 98.0564 30.27C97.4364 30.51 96.7364 30.63 95.9564 30.63ZM117.856 30.36C116.756 30.36 115.826 30.18 115.066 29.82C114.326 29.44 113.676 28.95 113.116 28.35L113.446 27.45V30H109.246V6.33H113.416V19.14V17.79C113.936 17.35 114.626 16.98 115.486 16.68C116.346 16.38 117.326 16.23 118.426 16.23C119.566 16.23 120.606 16.5 121.546 17.04C122.486 17.58 123.236 18.37 123.796 19.41C124.376 20.43 124.666 21.68 124.666 23.16C124.666 24.64 124.346 25.92 123.706 27C123.086 28.08 122.256 28.91 121.216 29.49C120.176 30.07 119.056 30.36 117.856 30.36ZM116.926 26.82C117.546 26.82 118.116 26.66 118.636 26.34C119.176 26.02 119.606 25.58 119.926 25.02C120.246 24.46 120.406 23.83 120.406 23.13C120.406 22.43 120.246 21.81 119.926 21.27C119.606 20.73 119.176 20.31 118.636 20.01C118.116 19.69 117.546 19.53 116.926 19.53C116.386 19.53 115.876 19.62 115.396 19.8C114.936 19.96 114.536 20.2 114.196 20.52C113.876 20.82 113.626 21.19 113.446 21.63V24.84C113.686 25.28 113.966 25.65 114.286 25.95C114.626 26.23 115.016 26.45 115.456 26.61C115.896 26.75 116.386 26.82 116.926 26.82ZM127.967 16.89H132.167V30H127.967V16.89ZM127.877 12.24C127.877 11.62 128.117 11.11 128.597 10.71C129.097 10.31 129.627 10.11 130.187 10.11C130.747 10.11 131.257 10.31 131.717 10.71C132.197 11.11 132.437 11.62 132.437 12.24C132.437 12.86 132.197 13.37 131.717 13.77C131.257 14.15 130.747 14.34 130.187 14.34C129.627 14.34 129.097 14.15 128.597 13.77C128.117 13.37 127.877 12.86 127.877 12.24ZM147.622 28.83C147.042 29.29 146.312 29.66 145.432 29.94C144.572 30.22 143.722 30.36 142.882 30.36C141.382 30.36 140.072 30.09 138.952 29.55C137.852 28.99 136.992 28.2 136.372 27.18C135.772 26.14 135.472 24.89 135.472 23.43C135.472 21.97 135.802 20.73 136.462 19.71C137.122 18.67 137.982 17.88 139.042 17.34C140.122 16.8 141.252 16.53 142.432 16.53C143.612 16.53 144.632 16.69 145.492 17.01C146.372 17.33 147.122 17.75 147.742 18.27L145.702 20.97C145.422 20.75 145.032 20.53 144.532 20.31C144.052 20.07 143.482 19.95 142.822 19.95C142.242 19.95 141.712 20.1 141.232 20.4C140.752 20.7 140.372 21.11 140.092 21.63C139.812 22.15 139.672 22.75 139.672 23.43C139.672 24.07 139.822 24.66 140.122 25.2C140.422 25.74 140.832 26.17 141.352 26.49C141.892 26.79 142.522 26.94 143.242 26.94C143.702 26.94 144.122 26.88 144.502 26.76C144.902 26.62 145.242 26.43 145.522 26.19L147.622 28.83Z" fill="#4AA956"/>
<path opacity="0.4" d="M74.168 37.289C75.3047 37.289 76.1773 37.4907 76.786 37.894C77.3947 38.29 77.699 38.9427 77.699 39.852C77.699 40.7687 77.391 41.4323 76.775 41.843C76.159 42.2463 75.279 42.448 74.135 42.448H73.596V45H71.88V37.487C72.254 37.4137 72.65 37.3623 73.068 37.333C73.486 37.3037 73.8527 37.289 74.168 37.289ZM74.278 38.752C74.1533 38.752 74.0287 38.7557 73.904 38.763C73.7867 38.7703 73.684 38.7777 73.596 38.785V40.985H74.135C74.729 40.985 75.1763 40.9043 75.477 40.743C75.7777 40.5817 75.928 40.281 75.928 39.841C75.928 39.6283 75.8877 39.4523 75.807 39.313C75.7337 39.1737 75.6237 39.0637 75.477 38.983C75.3377 38.895 75.1653 38.8363 74.96 38.807C74.7547 38.7703 74.5273 38.752 74.278 38.752ZM83.5351 39.379C83.5351 39.6577 83.4801 39.9253 83.3701 40.182C83.2601 40.4387 83.1171 40.688 82.9411 40.93C82.7651 41.1647 82.5671 41.392 82.3471 41.612C82.1271 41.832 81.9108 42.041 81.6981 42.239C81.5881 42.3417 81.4671 42.459 81.3351 42.591C81.2104 42.7157 81.0894 42.844 80.9721 42.976C80.8548 43.108 80.7484 43.2327 80.6531 43.35C80.5651 43.46 80.5101 43.5517 80.4881 43.625H83.7661V45H78.6841C78.6694 44.9193 78.6621 44.8167 78.6621 44.692C78.6621 44.5673 78.6621 44.4793 78.6621 44.428C78.6621 44.076 78.7171 43.7533 78.8271 43.46C78.9444 43.1667 79.0948 42.8953 79.2781 42.646C79.4614 42.3893 79.6668 42.151 79.8941 41.931C80.1288 41.711 80.3598 41.491 80.5871 41.271C80.7631 41.1023 80.9281 40.9447 81.0821 40.798C81.2361 40.644 81.3718 40.4973 81.4891 40.358C81.6064 40.2113 81.6981 40.0683 81.7641 39.929C81.8301 39.7823 81.8631 39.6357 81.8631 39.489C81.8631 39.1663 81.7714 38.939 81.5881 38.807C81.4048 38.675 81.1774 38.609 80.9061 38.609C80.7081 38.609 80.5211 38.642 80.3451 38.708C80.1764 38.7667 80.0188 38.84 79.8721 38.928C79.7328 39.0087 79.6118 39.093 79.5091 39.181C79.4064 39.2617 79.3294 39.3277 79.2781 39.379L78.4641 38.235C78.7868 37.9343 79.1608 37.6887 79.5861 37.498C80.0188 37.3 80.4808 37.201 80.9721 37.201C81.4194 37.201 81.8044 37.2523 82.1271 37.355C82.4498 37.4577 82.7138 37.6043 82.9191 37.795C83.1318 37.9783 83.2858 38.2057 83.3811 38.477C83.4838 38.741 83.5351 39.0417 83.5351 39.379ZM87.4991 37.289C88.6357 37.289 89.5084 37.4907 90.1171 37.894C90.7257 38.29 91.0301 38.9427 91.0301 39.852C91.0301 40.7687 90.7221 41.4323 90.1061 41.843C89.4901 42.2463 88.6101 42.448 87.4661 42.448H86.9271V45H85.2111V37.487C85.5851 37.4137 85.9811 37.3623 86.3991 37.333C86.8171 37.3037 87.1837 37.289 87.4991 37.289ZM87.6091 38.752C87.4844 38.752 87.3597 38.7557 87.2351 38.763C87.1177 38.7703 87.0151 38.7777 86.9271 38.785V40.985H87.4661C88.0601 40.985 88.5074 40.9043 88.8081 40.743C89.1087 40.5817 89.2591 40.281 89.2591 39.841C89.2591 39.6283 89.2187 39.4523 89.1381 39.313C89.0647 39.1737 88.9547 39.0637 88.8081 38.983C88.6687 38.895 88.4964 38.8363 88.2911 38.807C88.0857 38.7703 87.8584 38.752 87.6091 38.752ZM100.587 37.377V38.84H98.2877V45H96.5717V38.84H94.2727V37.377H100.587ZM103.923 37.289C105.067 37.289 105.943 37.4943 106.552 37.905C107.16 38.3083 107.465 38.939 107.465 39.797C107.465 40.3323 107.34 40.7687 107.091 41.106C106.849 41.436 106.497 41.6963 106.035 41.887C106.189 42.0777 106.35 42.2977 106.519 42.547C106.687 42.789 106.852 43.0457 107.014 43.317C107.182 43.581 107.344 43.8597 107.498 44.153C107.652 44.439 107.795 44.7213 107.927 45H106.002C105.862 44.7507 105.719 44.4977 105.573 44.241C105.433 43.9843 105.287 43.735 105.133 43.493C104.986 43.251 104.839 43.0237 104.693 42.811C104.546 42.591 104.399 42.393 104.253 42.217H103.406V45H101.69V37.487C102.064 37.4137 102.449 37.3623 102.845 37.333C103.248 37.3037 103.607 37.289 103.923 37.289ZM104.022 38.752C103.897 38.752 103.783 38.7557 103.681 38.763C103.585 38.7703 103.494 38.7777 103.406 38.785V40.853H103.89C104.535 40.853 104.997 40.7723 105.276 40.611C105.554 40.4497 105.694 40.1747 105.694 39.786C105.694 39.412 105.551 39.148 105.265 38.994C104.986 38.8327 104.572 38.752 104.022 38.752ZM114.474 45C114.394 44.736 114.302 44.4647 114.199 44.186C114.104 43.9073 114.009 43.6287 113.913 43.35H110.943C110.848 43.6287 110.749 43.9073 110.646 44.186C110.551 44.4647 110.463 44.736 110.382 45H108.6C108.886 44.1787 109.158 43.4197 109.414 42.723C109.671 42.0263 109.92 41.37 110.162 40.754C110.412 40.138 110.654 39.555 110.888 39.005C111.13 38.4477 111.38 37.905 111.636 37.377H113.275C113.525 37.905 113.77 38.4477 114.012 39.005C114.254 39.555 114.496 40.138 114.738 40.754C114.988 41.37 115.241 42.0263 115.497 42.723C115.754 43.4197 116.025 44.1787 116.311 45H114.474ZM112.417 39.104C112.381 39.214 112.326 39.3643 112.252 39.555C112.179 39.7457 112.095 39.9657 111.999 40.215C111.904 40.4643 111.798 40.7393 111.68 41.04C111.57 41.3407 111.457 41.656 111.339 41.986H113.506C113.389 41.656 113.275 41.3407 113.165 41.04C113.055 40.7393 112.949 40.4643 112.846 40.215C112.751 39.9657 112.667 39.7457 112.593 39.555C112.52 39.3643 112.461 39.214 112.417 39.104ZM119.014 43.603C119.095 43.6103 119.186 43.6177 119.289 43.625C119.399 43.625 119.527 43.625 119.674 43.625C120.532 43.625 121.166 43.4087 121.577 42.976C121.995 42.5433 122.204 41.9457 122.204 41.183C122.204 40.3837 122.006 39.7787 121.61 39.368C121.214 38.9573 120.587 38.752 119.729 38.752C119.612 38.752 119.491 38.7557 119.366 38.763C119.241 38.763 119.124 38.7703 119.014 38.785V43.603ZM123.975 41.183C123.975 41.843 123.872 42.4187 123.667 42.91C123.462 43.4013 123.168 43.8083 122.787 44.131C122.413 44.4537 121.955 44.6957 121.412 44.857C120.869 45.0183 120.261 45.099 119.586 45.099C119.278 45.099 118.919 45.0843 118.508 45.055C118.097 45.033 117.694 44.9817 117.298 44.901V37.476C117.694 37.4027 118.105 37.355 118.53 37.333C118.963 37.3037 119.333 37.289 119.641 37.289C120.294 37.289 120.884 37.3623 121.412 37.509C121.947 37.6557 122.406 37.8867 122.787 38.202C123.168 38.5173 123.462 38.9207 123.667 39.412C123.872 39.9033 123.975 40.4937 123.975 41.183ZM125.408 45V37.377H130.556V38.818H127.124V40.314H130.171V41.722H127.124V43.559H130.809V45H125.408ZM134.158 43.691C134.4 43.691 134.598 43.6727 134.752 43.636C134.914 43.592 135.042 43.537 135.137 43.471C135.233 43.3977 135.299 43.3133 135.335 43.218C135.372 43.1227 135.39 43.0163 135.39 42.899C135.39 42.6497 135.273 42.4443 135.038 42.283C134.804 42.1143 134.4 41.9347 133.828 41.744C133.579 41.656 133.33 41.557 133.08 41.447C132.831 41.3297 132.607 41.1867 132.409 41.018C132.211 40.842 132.05 40.633 131.925 40.391C131.801 40.1417 131.738 39.841 131.738 39.489C131.738 39.137 131.804 38.8217 131.936 38.543C132.068 38.257 132.255 38.015 132.497 37.817C132.739 37.619 133.033 37.4687 133.377 37.366C133.722 37.256 134.111 37.201 134.543 37.201C135.057 37.201 135.5 37.256 135.874 37.366C136.248 37.476 136.556 37.597 136.798 37.729L136.303 39.082C136.091 38.972 135.852 38.8767 135.588 38.796C135.332 38.708 135.02 38.664 134.653 38.664C134.243 38.664 133.946 38.7227 133.762 38.84C133.586 38.95 133.498 39.1223 133.498 39.357C133.498 39.4963 133.531 39.6137 133.597 39.709C133.663 39.8043 133.755 39.8923 133.872 39.973C133.997 40.0463 134.136 40.116 134.29 40.182C134.452 40.2407 134.628 40.303 134.818 40.369C135.214 40.5157 135.559 40.6623 135.852 40.809C136.146 40.9483 136.388 41.1133 136.578 41.304C136.776 41.4947 136.923 41.7183 137.018 41.975C137.114 42.2317 137.161 42.5433 137.161 42.91C137.161 43.6213 136.912 44.175 136.413 44.571C135.915 44.9597 135.163 45.154 134.158 45.154C133.821 45.154 133.517 45.132 133.245 45.088C132.974 45.0513 132.732 45.0037 132.519 44.945C132.314 44.8863 132.134 44.824 131.98 44.758C131.834 44.692 131.709 44.6297 131.606 44.571L132.09 43.207C132.318 43.3317 132.596 43.4453 132.926 43.548C133.264 43.6433 133.674 43.691 134.158 43.691Z" fill="black"/>
<path d="M50 16.7212L33.3095 7L17.0346 16.5463L17 35.7788L33.4134 45.5L50 35.9886V16.7212ZM33.3442 9.93733L45.6716 17.1408L33.4134 24.3442L21.086 17.1408L33.3442 9.93733ZM31.9244 41.5136L19.5278 34.3451V20.0082L31.8898 27.2116V41.5136H31.9244ZM35.1102 27.4214L47.4722 20.218V34.52L35.1102 41.7584V27.4214Z" fill="#4AA956"/>
<path fill-rule="evenodd" clip-rule="evenodd" d="M4.84194 10.8331C7.52739 10.8331 9.68388 8.47427 9.68388 5.63496C9.68388 2.79564 7.52739 0.436829 4.84194 0.436829C2.19718 0.436829 0 2.79564 0 5.63496C0 8.51795 2.19718 10.8331 4.84194 10.8331Z" fill="#E0DEDC"/>
<path fill-rule="evenodd" clip-rule="evenodd" d="M4.84104 0.436829C3.9052 0.436829 3.05074 0.742601 2.31835 1.2231C2.1556 1.65992 2.07422 2.1841 2.07422 2.6646C2.07422 5.19814 3.98658 7.25118 6.34652 7.25118C7.68924 7.25118 8.9099 6.55227 9.68298 5.50391C9.64229 2.70828 7.4858 0.436829 4.84104 0.436829Z" fill="#F9F7F6"/>
<path fill-rule="evenodd" clip-rule="evenodd" d="M48.4609 11.6625C47.3216 6.28962 40.4046 -0.48105 30.6393 0.0431313C20.8334 0.567312 17.6597 8.86685 12.2074 8.03689C6.79581 7.20694 6.59236 6.07121 8.91161 10.5268C11.2309 14.9823 14.4453 26.6453 22.0947 20.7046C29.7442 14.8076 24.0478 7.73112 48.4609 11.6625Z" fill="#D95152"/>
<path fill-rule="evenodd" clip-rule="evenodd" d="M16.6805 19.1326C15.3378 21.404 13.5475 24.3744 14.6054 24.8986C15.6633 25.4228 17.4942 25.4664 18.186 26.8206C19.2845 29.0483 20.5052 27.6942 21.0342 26.0343C21.97 23.2824 25.8354 17.0359 35.7227 15.4633C45.6101 13.8908 50.2079 20.6615 50.5741 20.7925C50.9403 20.9672 52.1609 18.8705 51.9575 18.0842C51.754 17.298 49.923 15.4196 49.923 14.8955C49.923 14.3713 50.1672 12.3619 49.6789 11.663C49.1906 10.9641 28.6429 -1.92201 16.6805 19.1326Z" fill="#E0DEDC"/>
<path fill-rule="evenodd" clip-rule="evenodd" d="M12.6133 8.3869C14.0374 11.7067 16.5194 13.1919 17.7807 12.3183C19.3269 11.3136 25.9998 2.35882 38.2471 4.84868C40.9325 5.37286 43.0077 5.89704 44.6759 6.37754C41.5429 2.83932 36.3347 4.14252e-06 29.8652 0.349458C20.7917 0.829957 17.3738 7.99376 12.6133 8.3869Z" fill="#EA5D5E"/>
<path fill-rule="evenodd" clip-rule="evenodd" d="M24.7793 18.0406C28.3193 15.3323 34.626 11.532 42.4789 14.1966C43.7809 14.6334 44.9202 15.1139 45.9374 15.5944C47.5243 16.337 48.7856 17.0796 49.8435 17.7785C50.5759 18.259 51.2269 18.7395 51.7559 19.1763C51.9186 18.7831 52.0407 18.6521 51.9186 18.1716C51.7966 17.6474 50.82 15.376 50.4132 14.9828C50.0063 14.5897 51.6745 13.585 50.9828 12.624C50.3318 11.7067 49.0297 11.2699 48.1346 10.7457C43.2927 7.99375 27.7089 1.70358 17.4961 17.7785C19.1236 20.6615 20.385 21.6661 22.8263 19.6568C23.3552 19.1763 24.0063 18.6084 24.7793 18.0406Z" fill="#F9F7F6"/>
<path fill-rule="evenodd" clip-rule="evenodd" d="M40.1998 4.84867C34.1372 0.436808 25.9588 1.35413 19.8555 5.06707C26.4877 -1.48519 37.4329 -0.742599 43.2514 4.54289C43.6583 4.97971 44.5534 5.94071 44.3093 5.85334C43.7397 5.67862 40.7287 5.2418 40.1998 4.84867Z" fill="#C33841"/>
</svg>
