<?xml version="1.0" encoding="UTF-8" standalone="no"?>
<svg
   xmlns:dc="http://purl.org/dc/elements/1.1/"
   xmlns:cc="http://creativecommons.org/ns#"
   xmlns:rdf="http://www.w3.org/1999/02/22-rdf-syntax-ns#"
   xmlns:svg="http://www.w3.org/2000/svg"
   xmlns="http://www.w3.org/2000/svg"
   xmlns:sodipodi="http://sodipodi.sourceforge.net/DTD/sodipodi-0.dtd"
   xmlns:inkscape="http://www.inkscape.org/namespaces/inkscape"
   width="132"
   height="41"
   viewBox="0 0 132 41"
   fill="none"
   version="1.1"
   id="svg8"
   sodipodi:docname="rubic-logo.svg"
   inkscape:version="1.0.1 (0767f8302a, 2020-10-17)">
  <metadata
     id="metadata14">
    <rdf:RDF>
      <cc:Work
         rdf:about="">
        <dc:format>image/svg+xml</dc:format>
        <dc:type
           rdf:resource="http://purl.org/dc/dcmitype/StillImage" />
      </cc:Work>
    </rdf:RDF>
  </metadata>
  <defs
     id="defs12" />
  <sodipodi:namedview
     pagecolor="#ffffff"
     bordercolor="#666666"
     borderopacity="1"
     objecttolerance="10"
     gridtolerance="10"
     guidetolerance="10"
     inkscape:pageopacity="0"
     inkscape:pageshadow="2"
     inkscape:window-width="1764"
     inkscape:window-height="750"
     id="namedview10"
     showgrid="false"
     inkscape:zoom="5.9659091"
     inkscape:cx="61.35304"
     inkscape:cy="16.35457"
     inkscape:window-x="2687"
     inkscape:window-y="147"
     inkscape:window-maximized="0"
     inkscape:current-layer="svg8" />
  <path
     d="M 60.76,32 56.11,24.98 H 53.2 V 32 H 48.85 V 9.92 h 6.69 c 2.74,0 4.86,0.67 6.36,2.01 1.52,1.32 2.28,3.13 2.28,5.43 0,1.36 -0.29,2.64 -0.87,3.84 -0.56,1.18 -1.43,2.11 -2.61,2.79 L 65.83,32 Z M 53.2,20.78 h 3.09 c 1.18,0 2.04,-0.34 2.58,-1.02 0.54,-0.7 0.81,-1.45 0.81,-2.25 0,-0.8 -0.23,-1.56 -0.69,-2.28 -0.46,-0.74 -1.35,-1.11 -2.67,-1.11 H 53.2 Z M 81.9264,18.89 V 32 h -3.81 l -0.3,-2.1 c -0.46,0.84 -1.11,1.51 -1.95,2.01 -0.82,0.48 -1.79,0.72 -2.91,0.72 -1.2,0 -2.2,-0.37 -3,-1.11 -0.8,-0.74 -1.21,-1.68 -1.23,-2.82 v -9.81 h 4.2 v 8.25 c 0.06,1.28 0.65,1.92 1.77,1.92 0.92,0 1.65,-0.45 2.19,-1.35 0.56,-0.9 0.84,-2.06 0.84,-3.48 V 18.89 Z M 95.426,18.23 c 1.14,0 2.18,0.28 3.12,0.84 0.96,0.54 1.72,1.33 2.28,2.37 0.56,1.04 0.84,2.28 0.84,3.72 0,1.44 -0.31,2.71 -0.93,3.81 -0.62,1.08 -1.45,1.92 -2.49,2.52 -1.04,0.58 -2.17,0.87 -3.39,0.87 -1.7801,0 -3.2501,-0.56 -4.4101,-1.68 V 32 h -4.2 V 8.329997 h 4.17 V 19.79 c 0.56,-0.46 1.27,-0.83 2.13,-1.11 0.86,-0.3 1.8201,-0.45 2.8801,-0.45 z m -1.5001,10.59 c 0.6201,0 1.1901,-0.16 1.7101,-0.48 0.54,-0.32 0.97,-0.76 1.29,-1.32 0.32,-0.58 0.48,-1.21 0.48,-1.89 0,-1.04 -0.34,-1.9 -1.02,-2.58 -0.68,-0.68 -1.5,-1.02 -2.4601,-1.02 -0.82,0 -1.54,0.19 -2.16,0.57 -0.62,0.38 -1.06,0.89 -1.32,1.53 v 3.21 c 0.72,1.32 1.88,1.98 3.48,1.98 z M 109.167,18.89 V 32 h -4.2 V 18.89 Z m -4.29,-4.65 c 0,-0.6 0.23,-1.1 0.69,-1.5 0.48,-0.42 1.02,-0.63 1.62,-0.63 0.58,0 1.1,0.21 1.56,0.63 0.46,0.4 0.69,0.9 0.69,1.5 0,0.6 -0.23,1.1 -0.69,1.5 -0.46,0.4 -0.98,0.6 -1.56,0.6 -0.6,0 -1.14,-0.2 -1.62,-0.6 -0.46,-0.4 -0.69,-0.9 -0.69,-1.5 z m 19.745,16.59 c -0.58,0.46 -1.31,0.83 -2.19,1.11 -0.86,0.28 -1.71,0.42 -2.55,0.42 -2.28,0 -4.09,-0.61 -5.43,-1.83 -1.32,-1.24 -1.98,-2.94 -1.98,-5.1 0,-1.4 0.32,-2.62 0.96,-3.66 0.66,-1.06 1.52,-1.86 2.58,-2.4 1.06,-0.56 2.2,-0.84 3.42,-0.84 2.18,0 3.95,0.58 5.31,1.74 l -2.04,2.7 c -0.86,-0.68 -1.82,-1.02 -2.88,-1.02 -0.88,0 -1.63,0.33 -2.25,0.99 -0.6,0.66 -0.9,1.49 -0.9,2.49 0,1 0.33,1.84 0.99,2.52 0.66,0.66 1.52,0.99 2.58,0.99 0.92,0 1.68,-0.25 2.28,-0.75 z"
     fill="#4aa956"
     id="path2" />
  <path
     d="M30.7928 9.26623L16.4892 17.5108L6.6 11.798L16.4892 6.08525L21.9856 9.26623L26.4 6.71279L16.4892 1L0 10.5213V13.0531L14.3036 21.3193V32.7449L4.41443 27.0321V20.6918L0 18.1384V29.5639L16.4892 39.0852L18.6964 37.8302V21.3193L28.5856 15.6066V27.0321L23.0892 30.1915V35.2984L33 29.5639V10.5213L30.7928 9.26623Z"
     fill="#4AA956"
     id="path4" />
</svg>
