<svg width="132" height="39" viewBox="0 0 132 39" fill="none" xmlns="http://www.w3.org/2000/svg">
<path d="M66.76 27L62.11 19.98H59.2V27H54.85V4.92H61.54C64.28 4.92 66.4 5.59 67.9 6.93C69.42 8.25 70.18 10.06 70.18 12.36C70.18 13.72 69.89 15 69.31 16.2C68.75 17.38 67.88 18.31 66.7 18.99L71.83 27H66.76ZM59.2 15.78H62.29C63.47 15.78 64.33 15.44 64.87 14.76C65.41 14.06 65.68 13.31 65.68 12.51C65.68 11.71 65.45 10.95 64.99 10.23C64.53 9.49 63.64 9.12 62.32 9.12H59.2V15.78ZM87.9264 13.89V27H84.1164L83.8164 24.9C83.3564 25.74 82.7064 26.41 81.8664 26.91C81.0464 27.39 80.0764 27.63 78.9564 27.63C77.7564 27.63 76.7564 27.26 75.9564 26.52C75.1564 25.78 74.7464 24.84 74.7264 23.7V13.89H78.9264V22.14C78.9864 23.42 79.5764 24.06 80.6964 24.06C81.6164 24.06 82.3464 23.61 82.8864 22.71C83.4464 21.81 83.7264 20.65 83.7264 19.23V13.89H87.9264ZM101.426 13.23C102.566 13.23 103.606 13.51 104.546 14.07C105.506 14.61 106.266 15.4 106.826 16.44C107.386 17.48 107.666 18.72 107.666 20.16C107.666 21.6 107.356 22.87 106.736 23.97C106.116 25.05 105.286 25.89 104.246 26.49C103.206 27.07 102.076 27.36 100.856 27.36C99.0759 27.36 97.6059 26.8 96.4459 25.68V27H92.2459V3.33H96.4159V14.79C96.9759 14.33 97.6859 13.96 98.5459 13.68C99.4059 13.38 100.366 13.23 101.426 13.23ZM99.9259 23.82C100.546 23.82 101.116 23.66 101.636 23.34C102.176 23.02 102.606 22.58 102.926 22.02C103.246 21.44 103.406 20.81 103.406 20.13C103.406 19.09 103.066 18.23 102.386 17.55C101.706 16.87 100.886 16.53 99.9259 16.53C99.1059 16.53 98.3859 16.72 97.7659 17.1C97.1459 17.48 96.7059 17.99 96.4459 18.63V21.84C97.1659 23.16 98.3259 23.82 99.9259 23.82ZM115.167 13.89V27H110.967V13.89H115.167ZM110.877 9.24C110.877 8.64 111.107 8.14 111.567 7.74C112.047 7.32 112.587 7.11 113.187 7.11C113.767 7.11 114.287 7.32 114.747 7.74C115.207 8.14 115.437 8.64 115.437 9.24C115.437 9.84 115.207 10.34 114.747 10.74C114.287 11.14 113.767 11.34 113.187 11.34C112.587 11.34 112.047 11.14 111.567 10.74C111.107 10.34 110.877 9.84 110.877 9.24ZM130.622 25.83C130.042 26.29 129.312 26.66 128.432 26.94C127.572 27.22 126.722 27.36 125.882 27.36C123.602 27.36 121.792 26.75 120.452 25.53C119.132 24.29 118.472 22.59 118.472 20.43C118.472 19.03 118.792 17.81 119.432 16.77C120.092 15.71 120.952 14.91 122.012 14.37C123.072 13.81 124.212 13.53 125.432 13.53C127.612 13.53 129.382 14.11 130.742 15.27L128.702 17.97C127.842 17.29 126.882 16.95 125.822 16.95C124.942 16.95 124.192 17.28 123.572 17.94C122.972 18.6 122.672 19.43 122.672 20.43C122.672 21.43 123.002 22.27 123.662 22.95C124.322 23.61 125.182 23.94 126.242 23.94C127.162 23.94 127.922 23.69 128.522 23.19L130.622 25.83Z" fill="#4AA956"/>
<path d="M30.7928 8.26623L16.4892 16.5108L6.6 10.798L16.4892 5.08525L21.9856 8.26623L26.4 5.71279L16.4892 0L0 9.52131V12.0531L14.3036 20.3193V31.7449L4.41443 26.0321V19.6918L0 17.1384V28.5639L16.4892 38.0852L18.6964 36.8302V20.3193L28.5856 14.6066V26.0321L23.0892 29.1915V34.2984L33 28.5639V9.52131L30.7928 8.26623Z" fill="#4AA956"/>
</svg>
