<svg width="340" height="149" viewBox="0 0 340 149" fill="none" xmlns="http://www.w3.org/2000/svg">
<path d="M461.277 99.7604L446.642 96.0742L448.007 90.0147L462.642 93.7009L461.277 99.7604Z" fill="#00B934"/>
<path d="M418.435 -10.9301L427.124 -23.9174L431.933 -20.3201L423.245 -7.33278L418.435 -10.9301Z" fill="#00B934"/>
<path d="M353.643 18.5826L368.077 23.0706L366.415 29.0466L351.981 24.5586L353.643 18.5826Z" fill="#00B934"/>
<path d="M343.65 186.983L358.084 191.471L356.422 197.447L341.988 192.959L343.65 186.983Z" fill="#00B934"/>
<path d="M484.624 164.041L480.678 179.392L474.993 177.758L478.94 162.407L484.624 164.041Z" fill="#00B934"/>
<path d="M370.204 -121.471L366.258 -106.12L360.573 -107.754L364.519 -123.105L370.204 -121.471Z" fill="#00B934"/>
<path d="M543.813 30.2447L539.866 45.596L534.182 43.962L538.128 28.6108L543.813 30.2447Z" fill="#00B934"/>
<path d="M482.271 -157.703L478.325 -142.351L472.64 -143.985L476.587 -159.336L482.271 -157.703Z" fill="#00B934"/>
<path d="M454.923 28.3053L449.723 23.6262L452.722 19.9004L457.922 24.5795L454.923 28.3053Z" fill="#00E28D"/>
<path d="M483.512 9.46251L489.556 6.1037L491.709 10.4343L485.665 13.7932L483.512 9.46251Z" fill="#00E28D"/>
<path d="M331.866 106.198L336.828 111.157L333.65 114.713L328.688 109.753L331.866 106.198Z" fill="#00E28D"/>
<path d="M346.473 258.692L351.435 263.651L348.256 267.207L343.294 262.247L346.473 258.692Z" fill="#00E28D"/>
<path d="M416.88 168.499L412.293 173.846L408.866 170.56L413.453 165.212L416.88 168.499Z" fill="#00E28D"/>
<path d="M302.46 -117.014L297.873 -111.666L294.446 -114.953L299.033 -120.301L302.46 -117.014Z" fill="#00E28D"/>
<path d="M476.069 34.7027L471.482 40.0506L468.054 36.7639L472.642 31.416L476.069 34.7027Z" fill="#00E28D"/>
<path d="M414.531 -153.245L409.944 -147.898L406.517 -151.184L411.104 -156.532L414.531 -153.245Z" fill="#00E28D"/>
<path d="M385.694 97.8416C383.812 97.8972 382.244 96.329 382.191 94.3388C382.138 92.3487 383.621 90.6902 385.504 90.6346C387.386 90.5789 388.954 92.1472 389.007 94.1373C389.059 96.1274 387.576 97.7859 385.694 97.8416Z" fill="#00D33B" fill-opacity="0.6"/>
<path d="M448.283 -84.3774C448.935 -86.245 450.896 -87.1996 452.662 -86.5097C454.428 -85.8198 455.331 -83.7465 454.678 -81.879C454.026 -80.0114 452.065 -79.0567 450.299 -79.7467C448.533 -80.4366 447.63 -82.5098 448.283 -84.3774Z" fill="#00D33B" fill-opacity="0.6"/>
<path d="M404.432 40.5716C406.314 40.6197 407.803 42.2723 407.757 44.2626C407.712 46.253 406.149 47.8274 404.267 47.7792C402.384 47.7311 400.895 46.0785 400.941 44.0882C400.987 42.0978 402.549 40.5234 404.432 40.5716Z" fill="#00D33B" fill-opacity="0.6"/>
<path d="M419.035 193.066C420.917 193.114 422.406 194.766 422.361 196.757C422.315 198.747 420.752 200.322 418.87 200.273C416.988 200.225 415.499 198.573 415.544 196.582C415.59 194.592 417.153 193.018 419.035 193.066Z" fill="#00D33B" fill-opacity="0.6"/>
<path d="M480.425 243.861C480.419 245.852 478.887 247.46 477.004 247.453C475.121 247.446 473.6 245.826 473.607 243.835C473.614 241.844 475.146 240.236 477.029 240.243C478.911 240.25 480.432 241.87 480.425 243.861Z" fill="#00D33B" fill-opacity="0.6"/>
<path d="M366.005 -41.6507C365.998 -39.6597 364.466 -38.0516 362.583 -38.0588C360.701 -38.0661 359.18 -39.6858 359.187 -41.6768C359.194 -43.6677 360.725 -45.2758 362.608 -45.2686C364.491 -45.2614 366.012 -43.6416 366.005 -41.6507Z" fill="#00D33B" fill-opacity="0.6"/>
<path d="M539.614 110.069C539.607 112.06 538.075 113.668 536.192 113.661C534.309 113.654 532.789 112.034 532.795 110.043C532.802 108.052 534.334 106.444 536.217 106.451C538.1 106.458 539.621 108.078 539.614 110.069Z" fill="#00D33B" fill-opacity="0.6"/>
<path d="M478.072 -77.8821C478.065 -75.8912 476.533 -74.2831 474.651 -74.2903C472.768 -74.2975 471.247 -75.9173 471.254 -77.9082C471.261 -79.8991 472.793 -81.5072 474.675 -81.5C476.558 -81.4928 478.079 -79.873 478.072 -77.8821Z" fill="#00D33B" fill-opacity="0.6"/>
<path d="M385.585 21.8561C384.75 21.8808 384.053 21.1848 384.03 20.3016C384.007 19.4184 384.665 18.6823 385.5 18.6576C386.336 18.6329 387.032 19.3289 387.055 20.2121C387.078 21.0954 386.42 21.8314 385.585 21.8561Z" fill="#8000E4"/>
<path d="M511.99 -54.7017C512.73 -56.819 514.953 -57.9013 516.955 -57.1192C518.957 -56.337 519.981 -53.9865 519.241 -51.8692C518.501 -49.7519 516.278 -48.6696 514.276 -49.4518C512.274 -50.234 511.25 -52.5844 511.99 -54.7017Z" fill="#8000E4"/>
<path d="M400.797 116.465C401.632 116.486 402.293 117.219 402.273 118.103C402.252 118.986 401.559 119.685 400.723 119.663C399.888 119.642 399.227 118.909 399.247 118.025C399.268 117.142 399.961 116.443 400.797 116.465Z" fill="#8000E4"/>
<path d="M415.4 268.956C416.235 268.977 416.896 269.711 416.876 270.594C416.856 271.477 416.162 272.176 415.327 272.155C414.491 272.133 413.83 271.4 413.851 270.516C413.871 269.633 414.564 268.934 415.4 268.956Z" fill="#8000E4"/>
<path d="M408.596 241.58C408.593 242.463 407.914 243.177 407.078 243.174C406.242 243.171 405.567 242.452 405.57 241.568C405.574 240.685 406.253 239.971 407.089 239.974C407.925 239.977 408.6 240.696 408.596 241.58Z" fill="#8000E4"/>
<path d="M294.176 -43.9319C294.173 -43.0483 293.493 -42.3347 292.658 -42.3379C291.822 -42.3411 291.147 -43.0599 291.15 -43.9435C291.153 -44.8271 291.833 -45.5408 292.669 -45.5376C293.504 -45.5343 294.179 -44.8155 294.176 -43.9319Z" fill="#8000E4"/>
<path d="M467.785 107.784C467.782 108.667 467.102 109.381 466.266 109.378C465.431 109.375 464.756 108.656 464.759 107.772C464.762 106.889 465.442 106.175 466.277 106.178C467.113 106.181 467.788 106.9 467.785 107.784Z" fill="#8000E4"/>
<path d="M406.243 -80.1643C406.24 -79.2808 405.56 -78.5671 404.725 -78.5703C403.889 -78.5735 403.214 -79.2924 403.217 -80.1759C403.22 -81.0595 403.9 -81.7732 404.736 -81.77C405.571 -81.7668 406.246 -81.0479 406.243 -80.1643Z" fill="#8000E4"/>
<path d="M435.887 94.918C434.703 94.953 433.716 93.9663 433.683 92.7141C433.65 91.4619 434.583 90.4184 435.767 90.3834C436.951 90.3484 437.938 91.3351 437.971 92.5873C438.004 93.8395 437.071 94.883 435.887 94.918Z" fill="#880F9C"/>
<path d="M432.148 -34.0399C432.558 -35.215 433.792 -35.8156 434.903 -35.3815C436.015 -34.9474 436.583 -33.643 436.172 -32.4679C435.762 -31.2928 434.528 -30.6921 433.417 -31.1262C432.305 -31.5603 431.737 -32.8648 432.148 -34.0399Z" fill="#880F9C"/>
<path d="M354.162 40.7245C355.347 40.7548 356.284 41.7946 356.255 43.0469C356.226 44.2993 355.243 45.2899 354.059 45.2596C352.874 45.2293 351.937 44.1895 351.966 42.9372C351.995 41.6848 352.978 40.6942 354.162 40.7245Z" fill="#880F9C"/>
<path d="M368.769 193.219C369.953 193.249 370.89 194.289 370.862 195.541C370.833 196.793 369.85 197.784 368.665 197.754C367.481 197.723 366.544 196.684 366.573 195.431C366.602 194.179 367.585 193.188 368.769 193.219Z" fill="#880F9C"/>
<path d="M479.246 190.722C479.242 191.974 478.278 192.986 477.094 192.982C475.909 192.977 474.952 191.958 474.956 190.705C474.961 189.453 475.924 188.441 477.109 188.445C478.294 188.45 479.251 189.469 479.246 190.722Z" fill="#880F9C"/>
<path d="M364.826 -94.79C364.822 -93.5373 363.858 -92.5255 362.673 -92.53C361.489 -92.5346 360.532 -93.5537 360.536 -94.8064C360.54 -96.0591 361.504 -97.0709 362.689 -97.0664C363.873 -97.0618 364.83 -96.0427 364.826 -94.79Z" fill="#880F9C"/>
<path d="M538.435 56.9258C538.431 58.1785 537.467 59.1903 536.282 59.1858C535.097 59.1813 534.14 58.1621 534.145 56.9094C534.149 55.6567 535.113 54.6449 536.298 54.6494C537.482 54.654 538.439 55.6732 538.435 56.9258Z" fill="#880F9C"/>
<path d="M476.893 -131.022C476.889 -129.77 475.925 -128.758 474.74 -128.762C473.556 -128.767 472.599 -129.786 472.603 -131.039C472.607 -132.292 473.571 -133.303 474.756 -133.299C475.941 -133.294 476.897 -132.275 476.893 -131.022Z" fill="#880F9C"/>
<path d="M468.65 75.8852L465.019 73.4488L466.088 69.0445L470.38 68.7588L471.963 72.9866L468.65 75.8852Z" fill="#A35BFE"/>
<path d="M436.642 5.2007L440.134 2.54565L443.6 5.23605L442.252 9.55386L437.952 9.53201L436.642 5.2007Z" fill="#A35BFE"/>
<path d="M320.507 57.926L324.013 60.5592L322.728 64.8986L318.427 64.9473L317.055 60.638L320.507 57.926Z" fill="#A35BFE"/>
<path d="M335.11 210.42L338.616 213.053L337.331 217.393L333.031 217.441L331.658 213.132L335.11 210.42Z" fill="#A35BFE"/>
<path d="M462.289 155.495L459.872 159.255L455.742 157.986L455.608 153.441L459.654 151.901L462.289 155.495Z" fill="#A35BFE"/>
<path d="M347.869 -130.017L345.451 -126.256L341.322 -127.526L341.187 -132.071L345.234 -133.61L347.869 -130.017Z" fill="#A35BFE"/>
<path d="M521.478 21.6998L519.06 25.4603L514.931 24.1911L514.796 19.6462L518.842 18.1064L521.478 21.6998Z" fill="#A35BFE"/>
<path d="M459.936 -166.249L457.518 -162.489L453.389 -163.758L453.254 -168.303L457.301 -169.843L459.936 -166.249Z" fill="#A35BFE"/>
<path d="M408.499 155.445L404.553 152.255L409.139 150.236L408.499 155.445Z" fill="#00E894"/>
<path d="M389.237 -83.4605L393.507 -86.1441L393.57 -80.8919L389.237 -83.4605Z" fill="#00E894"/>
<path d="M384.494 -18.2068L388.278 -14.8034L383.599 -13.0402L384.494 -18.2068Z" fill="#00E894"/>
<path d="M399.101 134.288L402.885 137.692L398.206 139.455L399.101 134.288Z" fill="#00E894"/>
<path d="M535.592 221.576L532.452 225.646L530.688 220.736L535.592 221.576Z" fill="#00E894"/>
<path d="M421.171 -63.9358L418.031 -59.8657L416.268 -64.7763L421.171 -63.9358Z" fill="#00E894"/>
<path d="M594.78 87.781L591.64 91.8511L589.877 86.9406L594.78 87.781Z" fill="#00E894"/>
<path d="M533.239 -100.168L530.098 -96.0981L528.335 -101.009L533.239 -100.168Z" fill="#00E894"/>
<path d="M417.589 75.2639L415.193 71.3015L417.24 67.1256L421.683 66.9121L424.08 70.8745L422.033 75.0504L417.589 75.2639Z" fill="#771AED" fill-opacity="0.35"/>
<path d="M456.214 -44.6677L460.585 -45.5429L463.487 -41.9784L462.018 -37.5386L457.648 -36.6633L454.746 -40.2279L456.214 -44.6677Z" fill="#771AED" fill-opacity="0.35"/>
<path d="M371.466 61.3612L373.664 65.4503L371.414 69.5077L366.966 69.476L364.768 65.3869L367.018 61.3295L371.466 61.3612Z" fill="#771AED" fill-opacity="0.35"/>
<path d="M386.073 213.855L388.271 217.944L386.021 222.002L381.573 221.97L379.375 217.881L381.625 213.824L386.073 213.855Z" fill="#771AED" fill-opacity="0.35"/>
<path d="M460.089 209.44L456.268 211.848L452.385 209.553L452.324 204.85L456.145 202.442L460.028 204.737L460.089 209.44Z" fill="#771AED" fill-opacity="0.35"/>
<path d="M345.669 -76.0717L341.848 -73.6638L337.965 -75.959L337.904 -80.662L341.725 -83.0699L345.607 -80.7747L345.669 -76.0717Z" fill="#771AED" fill-opacity="0.35"/>
<path d="M519.278 75.6442L515.456 78.052L511.574 75.7568L511.512 71.0538L515.333 68.6459L519.216 70.9411L519.278 75.6442Z" fill="#771AED" fill-opacity="0.35"/>
<path d="M457.736 -112.304L453.915 -109.896L450.032 -112.191L449.971 -116.894L453.792 -119.302L457.674 -117.007L457.736 -112.304Z" fill="#771AED" fill-opacity="0.35"/>
<path d="M448.713 146.107L447.083 143.602L444.662 145.244L445.899 142.499L443.344 141.103L446.211 140.863L446.076 137.825L447.707 140.33L450.127 138.689L448.89 141.434L451.445 142.83L448.579 143.07L448.713 146.107Z" fill="#15CC11"/>
<path d="M382.446 -40.5247L385.252 -41.1907L384.713 -44.1776L386.662 -41.9412L388.839 -43.928L387.981 -41.0255L390.697 -40.0254L387.891 -39.3593L388.43 -36.3725L386.481 -38.6088L384.305 -36.6221L385.162 -39.5245L382.446 -40.5247Z" fill="#15CC11"/>
<path d="M343.88 -11.0982L345.384 -8.50674L347.883 -10.0126L346.512 -7.33932L348.995 -5.80453L346.12 -5.72273L346.104 -2.68207L344.6 -5.27356L342.102 -3.76767L343.472 -6.44096L340.99 -7.97575L343.864 -8.05756L343.88 -11.0982Z" fill="#15CC11"/>
<path d="M358.483 141.396L359.988 143.987L362.486 142.482L361.116 145.155L363.598 146.69L360.723 146.771L360.708 149.812L359.203 147.221L356.705 148.726L358.075 146.053L355.593 144.518L358.468 144.437L358.483 141.396Z" fill="#15CC11"/>
<path d="M528.035 178.783L525.616 180.427L527.091 183.037L524.536 181.643L523.135 184.299L522.999 181.262L520.124 181.308L522.543 179.664L521.068 177.054L523.624 178.448L525.024 175.792L525.16 178.829L528.035 178.783Z" fill="#15CC11"/>
<path d="M413.615 -106.729L411.196 -105.085L412.671 -102.475L410.115 -103.868L408.715 -101.212L408.579 -104.25L405.703 -104.204L408.123 -105.848L406.647 -108.458L409.203 -107.064L410.603 -109.72L410.74 -106.683L413.615 -106.729Z" fill="#15CC11"/>
<path d="M587.224 44.9883L584.805 46.6319L586.28 49.242L583.724 47.8484L582.324 50.5043L582.187 47.4671L579.312 47.5129L581.731 45.8693L580.256 43.2592L582.812 44.6528L584.212 41.9969L584.349 45.0342L587.224 44.9883Z" fill="#15CC11"/>
<path d="M525.682 -142.961L523.263 -141.317L524.738 -138.707L522.182 -140.101L520.782 -137.445L520.646 -140.482L517.77 -140.436L520.19 -142.08L518.715 -144.69L521.27 -143.296L522.67 -145.952L522.807 -142.915L525.682 -142.961Z" fill="#15CC11"/>
<path d="M374.963 128.874L374.171 126.064L371.399 125.993L373.682 124.328L372.889 121.518L375.092 123.299L377.374 121.634L376.453 124.4L378.656 126.18L375.884 126.109L374.963 128.874Z" fill="#480CA7" fill-opacity="0.35"/>
<path d="M425.052 -106.467L427.813 -106.197L428.909 -108.89L429.52 -106.031L432.28 -105.761L429.897 -104.263L430.508 -101.404L428.424 -103.338L426.041 -101.84L427.136 -104.533L425.052 -106.467Z" fill="#480CA7" fill-opacity="0.35"/>
<path d="M416.677 10.1764L417.329 13.0258L420.094 13.25L417.733 14.7867L418.385 17.6361L416.274 15.7365L413.912 17.2733L414.968 14.5625L412.857 12.6629L415.621 12.8872L416.677 10.1764Z" fill="#480CA7" fill-opacity="0.35"/>
<path d="M431.28 162.672L431.933 165.521L434.697 165.745L432.336 167.282L432.989 170.131L430.877 168.232L428.516 169.768L429.572 167.058L427.46 165.158L430.224 165.382L431.28 162.672Z" fill="#480CA7" fill-opacity="0.35"/>
<path d="M509.417 256.18L506.736 256.928L506.581 259.855L505.079 257.391L502.399 258.139L504.151 255.868L502.65 253.403L505.235 254.464L506.987 252.192L506.832 255.119L509.417 256.18Z" fill="#480CA7" fill-opacity="0.35"/>
<path d="M394.997 -29.3319L392.316 -28.5834L392.161 -25.6563L390.659 -28.1208L387.978 -27.3723L389.731 -29.6439L388.229 -32.1084L390.814 -31.0479L392.567 -33.3196L392.412 -30.3925L394.997 -29.3319Z" fill="#480CA7" fill-opacity="0.35"/>
<path d="M568.605 122.388L565.925 123.136L565.77 126.063L564.268 123.599L561.587 124.347L563.34 122.076L561.838 119.611L564.423 120.672L566.176 118.4L566.021 121.327L568.605 122.388Z" fill="#480CA7" fill-opacity="0.35"/>
<path d="M507.064 -65.5643L504.383 -64.8158L504.228 -61.8887L502.726 -64.3532L500.046 -63.6047L501.798 -65.8764L500.297 -68.3408L502.881 -67.2803L504.634 -69.552L504.479 -66.6249L507.064 -65.5643Z" fill="#480CA7" fill-opacity="0.35"/>
<path d="M406.4 86.7002L405.185 90.3883L407.574 93.3673L404.086 92.0825L401.268 94.6079L402.484 90.9199L400.095 87.9408L403.583 89.2256L406.4 86.7002Z" fill="#7D00C9" fill-opacity="0.75"/>
<path d="M450.347 -59.9077L447.563 -62.4743L444.059 -61.2408L446.486 -64.1845L445.319 -67.8901L448.103 -65.3235L451.608 -66.557L449.18 -63.6133L450.347 -59.9077Z" fill="#7D00C9" fill-opacity="0.75"/>
<path d="M383.205 50.5575L384.601 46.9415L382.363 43.8348L385.782 45.3101L388.72 42.9435L387.325 46.5595L389.563 49.6662L386.143 48.1909L383.205 50.5575Z" fill="#7D00C9" fill-opacity="0.75"/>
<path d="M397.809 203.052L399.204 199.436L396.966 196.329L400.385 197.804L403.323 195.438L401.928 199.054L404.166 202.16L400.747 200.685L397.809 203.052Z" fill="#7D00C9" fill-opacity="0.75"/>
<path d="M470.547 221.626L473.994 223.026L476.886 220.596L475.561 224.242L477.859 227.299L474.411 225.899L471.52 228.329L472.845 224.683L470.547 221.626Z" fill="#7D00C9" fill-opacity="0.75"/>
<path d="M356.126 -63.8861L359.574 -62.4855L362.465 -64.9155L361.141 -61.2699L363.439 -58.2126L359.991 -59.6132L357.1 -57.1831L358.424 -60.8288L356.126 -63.8861Z" fill="#7D00C9" fill-opacity="0.75"/>
<path d="M529.735 87.8307L533.183 89.2313L536.074 86.8013L534.75 90.4469L537.048 93.5042L533.6 92.1036L530.709 94.5337L532.033 90.888L529.735 87.8307Z" fill="#7D00C9" fill-opacity="0.75"/>
<path d="M468.193 -100.118L471.641 -98.7169L474.532 -101.147L473.208 -97.5013L475.506 -94.444L472.058 -95.8446L469.167 -93.4146L470.492 -97.0602L468.193 -100.118Z" fill="#7D00C9" fill-opacity="0.75"/>
<path d="M440.251 44.4396C439.978 43.5615 441.001 42.8457 441.658 43.4553C441.885 43.6659 442.206 43.732 442.499 43.63C443.354 43.3319 444.02 44.3961 443.426 45.112C443.222 45.3572 443.155 45.695 443.249 45.9983C443.523 46.8764 442.5 47.5922 441.842 46.9826C441.615 46.772 441.295 46.7059 441.002 46.8079C440.146 47.106 439.481 46.0418 440.074 45.3259C440.278 45.0807 440.346 44.7429 440.251 44.4396Z" fill="#03F529"/>
<path d="M474.833 -10.9453C475.747 -10.8838 475.988 -9.64278 475.171 -9.20534C474.896 -9.05803 474.713 -8.77527 474.695 -8.46429C474.64 -7.55727 473.425 -7.29314 473.036 -8.1039C472.903 -8.38187 472.629 -8.56537 472.322 -8.58606C471.408 -8.64749 471.167 -9.88857 471.984 -10.326C472.259 -10.4733 472.442 -10.7561 472.46 -11.067C472.515 -11.9741 473.73 -12.2382 474.119 -11.4274C474.252 -11.1495 474.526 -10.966 474.833 -10.9453Z" fill="#03F529"/>
<path d="M347.314 90.8921C347.544 91.7812 346.484 92.4411 345.86 91.798C345.645 91.5762 345.328 91.4932 345.03 91.579C344.159 91.8302 343.547 90.7322 344.177 90.048C344.393 89.8144 344.477 89.4814 344.398 89.1746C344.169 88.2855 345.228 87.6256 345.853 88.2687C346.068 88.4905 346.385 88.5735 346.682 88.4877C347.554 88.2365 348.165 89.3345 347.535 90.0187C347.32 90.2523 347.235 90.5854 347.314 90.8921Z" fill="#03F529"/>
<path d="M361.917 243.386C362.147 244.275 361.087 244.935 360.463 244.292C360.248 244.07 359.931 243.987 359.634 244.073C358.762 244.324 358.15 243.226 358.781 242.542C358.996 242.309 359.081 241.975 359.002 241.669C358.772 240.78 359.832 240.12 360.456 240.763C360.671 240.985 360.988 241.068 361.285 240.982C362.157 240.731 362.769 241.829 362.138 242.513C361.923 242.746 361.838 243.08 361.917 243.386Z" fill="#03F529"/>
<path d="M431.659 184.517C430.794 184.787 430.16 183.702 430.777 183.005C430.987 182.767 431.065 182.432 430.98 182.126C430.733 181.241 431.779 180.559 432.416 181.189C432.636 181.407 432.954 181.483 433.25 181.391C434.116 181.121 434.749 182.206 434.133 182.903C433.922 183.141 433.844 183.476 433.929 183.782C434.176 184.667 433.131 185.349 432.493 184.719C432.273 184.502 431.955 184.425 431.659 184.517Z" fill="#03F529"/>
<path d="M317.239 -100.995C316.373 -100.725 315.74 -101.81 316.356 -102.507C316.567 -102.746 316.645 -103.081 316.56 -103.386C316.313 -104.271 317.358 -104.953 317.996 -104.323C318.216 -104.106 318.534 -104.03 318.83 -104.122C319.695 -104.392 320.329 -103.307 319.713 -102.61C319.502 -102.371 319.424 -102.036 319.509 -101.731C319.756 -100.846 318.71 -100.164 318.073 -100.794C317.853 -101.011 317.535 -101.088 317.239 -100.995Z" fill="#03F529"/>
<path d="M490.848 50.7215C489.982 50.9913 489.349 49.9063 489.965 49.2094C490.176 48.9711 490.254 48.6361 490.169 48.3306C489.922 47.4455 490.967 46.7634 491.605 47.3934C491.825 47.6109 492.143 47.6873 492.439 47.595C493.304 47.3252 493.937 48.4102 493.321 49.1072C493.111 49.3455 493.033 49.6805 493.118 49.986C493.365 50.871 492.319 51.5532 491.682 50.9231C491.462 50.7057 491.143 50.6293 490.848 50.7215Z" fill="#03F529"/>
<path d="M429.306 -137.228C428.44 -136.958 427.807 -138.043 428.423 -138.74C428.634 -138.978 428.712 -139.313 428.627 -139.619C428.38 -140.504 429.425 -141.186 430.063 -140.556C430.283 -140.338 430.601 -140.262 430.897 -140.354C431.763 -140.624 432.396 -139.539 431.78 -138.842C431.569 -138.604 431.491 -138.269 431.576 -137.963C431.823 -137.078 430.778 -136.396 430.14 -137.026C429.92 -137.244 429.602 -137.32 429.306 -137.228Z" fill="#03F529"/>
<path d="M177.569 -18.4731L191.868 -13.5276L190.037 -7.6073L175.737 -12.5528L177.569 -18.4731Z" fill="#00B934"/>
<path d="M181.636 95.8901L171.967 108.079L167.454 104.076L177.123 91.8871L181.636 95.8901Z" fill="#00B934"/>
<path d="M318.916 91.812L304.88 86.085L307.001 80.2737L321.037 86.0007L318.916 91.812Z" fill="#00B934"/>
<path d="M301.575 -95.1753L287.539 -100.902L289.66 -106.714L303.696 -100.987L301.575 -95.1753Z" fill="#00B934"/>
<path d="M159.297 -84.561L164.423 -99.5174L169.962 -97.395L164.835 -82.4387L159.297 -84.561Z" fill="#00B934"/>
<path d="M251.138 209.928L256.265 194.972L261.803 197.094L256.677 212.051L251.138 209.928Z" fill="#00B934"/>
<path d="M89.909 43.6353L95.0352 28.6789L100.573 30.8013L95.4473 45.7576L89.909 43.6353Z" fill="#00B934"/>
<path d="M136.637 236.299L141.763 221.343L147.301 223.465L142.175 238.422L136.637 236.299Z" fill="#00B934"/>
<path d="M178.348 53.2925L183.167 58.4076L179.889 61.8602L175.07 56.7451L178.348 53.2925Z" fill="#00E28D"/>
<path d="M148.392 69.5874L142.107 72.4097L140.299 67.9067L146.583 65.0844L148.392 69.5874Z" fill="#00E28D"/>
<path d="M307.043 -13.6431L302.483 -19.0169L305.927 -22.2841L310.487 -16.9103L307.043 -13.6431Z" fill="#00E28D"/>
<path d="M304.339 -166.887L299.779 -172.261L303.223 -175.528L307.782 -170.154L304.339 -166.887Z" fill="#00E28D"/>
<path d="M227.156 -83.1167L232.143 -88.0478L235.303 -84.4744L230.316 -79.5433L227.156 -83.1167Z" fill="#00E28D"/>
<path d="M319.001 211.373L323.988 206.441L327.148 210.015L322.161 214.946L319.001 211.373Z" fill="#00E28D"/>
<path d="M157.771 45.0796L162.759 40.1485L165.919 43.7219L160.931 48.653L157.771 45.0796Z" fill="#00E28D"/>
<path d="M204.496 237.744L209.483 232.812L212.643 236.386L207.656 241.317L204.496 237.744Z" fill="#00E28D"/>
<path d="M252.748 -9.99321C254.628 -9.88513 256.069 -8.18593 255.967 -6.19794C255.865 -4.20995 254.258 -2.68597 252.378 -2.79405C250.498 -2.90213 249.057 -4.60133 249.159 -6.58932C249.261 -8.57732 250.868 -10.1013 252.748 -9.99321Z" fill="#00D33B" fill-opacity="0.6"/>
<path d="M176.209 166.175C175.414 167.98 173.386 168.761 171.679 167.92C169.972 167.078 169.234 164.934 170.029 163.129C170.825 161.325 172.853 160.544 174.56 161.385C176.266 162.226 177.005 164.37 176.209 166.175Z" fill="#00D33B" fill-opacity="0.6"/>
<path d="M229.621 45.4553C227.748 45.2437 226.393 43.4674 226.593 41.4877C226.793 39.5081 228.473 38.0748 230.345 38.2863C232.217 38.4979 233.573 40.2742 233.373 42.2539C233.173 44.2336 231.493 45.6669 229.621 45.4553Z" fill="#00D33B" fill-opacity="0.6"/>
<path d="M226.92 -107.789C225.048 -108 223.692 -109.777 223.893 -111.756C224.093 -113.736 225.773 -115.169 227.645 -114.958C229.517 -114.746 230.872 -112.97 230.672 -110.99C230.472 -109.011 228.792 -107.577 226.92 -107.789Z" fill="#00D33B" fill-opacity="0.6"/>
<path d="M169.686 -163.747C169.848 -165.73 171.499 -167.2 173.375 -167.029C175.251 -166.858 176.641 -165.112 176.479 -163.128C176.318 -161.145 174.666 -159.675 172.79 -159.846C170.914 -160.017 169.525 -161.763 169.686 -163.747Z" fill="#00D33B" fill-opacity="0.6"/>
<path d="M261.528 130.743C261.689 128.759 263.341 127.289 265.217 127.46C267.093 127.631 268.482 129.377 268.321 131.361C268.159 133.345 266.508 134.814 264.632 134.643C262.756 134.473 261.366 132.726 261.528 130.743Z" fill="#00D33B" fill-opacity="0.6"/>
<path d="M100.298 -35.5504C100.46 -37.534 102.111 -39.0036 103.987 -38.8328C105.863 -38.662 107.253 -36.9155 107.091 -34.9319C106.93 -32.9483 105.278 -31.4788 103.402 -31.6496C101.526 -31.8204 100.137 -33.5669 100.298 -35.5504Z" fill="#00D33B" fill-opacity="0.6"/>
<path d="M147.026 157.114C147.187 155.13 148.839 153.66 150.715 153.831C152.591 154.002 153.981 155.749 153.819 157.732C153.658 159.716 152.006 161.185 150.13 161.014C148.254 160.844 146.864 159.097 147.026 157.114Z" fill="#00D33B" fill-opacity="0.6"/>
<path d="M246.951 65.7459C247.785 65.7938 248.425 66.5479 248.379 67.4302C248.334 68.3125 247.621 68.9888 246.787 68.9409C245.952 68.8929 245.313 68.1388 245.358 67.2565C245.403 66.3742 246.116 65.6979 246.951 65.7459Z" fill="#8000E4"/>
<path d="M115.024 131.064C114.123 133.11 111.823 133.995 109.888 133.042C107.954 132.088 107.116 129.657 108.018 127.611C108.92 125.565 111.219 124.68 113.154 125.633C115.089 126.587 115.926 129.018 115.024 131.064Z" fill="#8000E4"/>
<path d="M239.142 -29.861C238.311 -29.9549 237.71 -30.7432 237.799 -31.6218C237.888 -32.5004 238.633 -33.1365 239.464 -33.0426C240.295 -32.9487 240.896 -32.1603 240.808 -31.2818C240.719 -30.4032 239.973 -29.7671 239.142 -29.861Z" fill="#8000E4"/>
<path d="M236.442 -183.105C235.611 -183.199 235.009 -183.987 235.098 -184.866C235.187 -185.744 235.933 -186.381 236.763 -186.287C237.594 -186.193 238.196 -185.404 238.107 -184.526C238.018 -183.647 237.273 -183.011 236.442 -183.105Z" fill="#8000E4"/>
<path d="M241.094 -155.231C241.166 -156.112 241.899 -156.764 242.731 -156.688C243.564 -156.612 244.181 -155.837 244.109 -154.957C244.037 -154.076 243.304 -153.424 242.472 -153.5C241.639 -153.576 241.022 -154.351 241.094 -155.231Z" fill="#8000E4"/>
<path d="M332.939 139.257C333.011 138.377 333.744 137.725 334.576 137.8C335.409 137.876 336.026 138.651 335.954 139.532C335.882 140.412 335.149 141.064 334.317 140.988C333.484 140.912 332.868 140.137 332.939 139.257Z" fill="#8000E4"/>
<path d="M171.706 -27.0349C171.778 -27.9153 172.511 -28.5675 173.343 -28.4917C174.176 -28.4158 174.793 -27.6408 174.721 -26.7605C174.649 -25.8801 173.916 -25.2279 173.084 -25.3037C172.251 -25.3795 171.634 -26.1546 171.706 -27.0349Z" fill="#8000E4"/>
<path d="M218.434 165.629C218.506 164.749 219.239 164.097 220.071 164.172C220.904 164.248 221.52 165.023 221.449 165.904C221.377 166.784 220.644 167.436 219.811 167.36C218.979 167.285 218.362 166.509 218.434 165.629Z" fill="#8000E4"/>
<path d="M202.496 -11.4402C203.679 -11.3722 204.586 -10.3031 204.522 -9.05226C204.458 -7.80142 203.446 -6.84253 202.264 -6.91054C201.081 -6.97855 200.174 -8.04768 200.238 -9.29852C200.302 -10.5494 201.313 -11.5083 202.496 -11.4402Z" fill="#880F9C"/>
<path d="M196.203 117.406C195.703 118.542 194.427 119.033 193.353 118.504C192.279 117.975 191.814 116.625 192.315 115.49C192.815 114.355 194.091 113.863 195.165 114.392C196.239 114.921 196.704 116.271 196.203 117.406Z" fill="#880F9C"/>
<path d="M279.732 49.6706C278.554 49.5374 277.702 48.4198 277.827 47.1742C277.953 45.9286 279.01 45.0267 280.188 45.1599C281.366 45.293 282.219 46.4106 282.093 47.6562C281.967 48.9019 280.91 49.8037 279.732 49.6706Z" fill="#880F9C"/>
<path d="M277.028 -103.574C275.85 -103.707 274.997 -104.824 275.123 -106.07C275.249 -107.316 276.306 -108.217 277.484 -108.084C278.662 -107.951 279.515 -106.833 279.389 -105.588C279.263 -104.342 278.206 -103.44 277.028 -103.574Z" fill="#880F9C"/>
<path d="M166.733 -110.685C166.834 -111.933 167.874 -112.857 169.054 -112.75C170.234 -112.642 171.109 -111.544 171.007 -110.295C170.905 -109.047 169.866 -108.123 168.686 -108.23C167.505 -108.338 166.631 -109.437 166.733 -110.685Z" fill="#880F9C"/>
<path d="M258.574 183.805C258.676 182.557 259.715 181.632 260.895 181.739C262.076 181.847 262.95 182.946 262.848 184.194C262.747 185.442 261.708 186.366 260.527 186.259C259.347 186.152 258.472 185.053 258.574 183.805Z" fill="#880F9C"/>
<path d="M97.3446 17.5126C97.4462 16.2645 98.4854 15.3399 99.6657 15.4474C100.846 15.5548 101.721 16.6537 101.619 17.9018C101.517 19.1499 100.478 20.0745 99.2977 19.967C98.1174 19.8596 97.243 18.7607 97.3446 17.5126Z" fill="#880F9C"/>
<path d="M144.069 210.176C144.17 208.928 145.21 208.003 146.39 208.11C147.57 208.218 148.445 209.317 148.343 210.565C148.241 211.813 147.202 212.738 146.022 212.63C144.842 212.523 143.967 211.424 144.069 210.176Z" fill="#880F9C"/>
<path d="M168.366 4.68102L171.796 7.42467L170.388 11.7212L166.088 11.633L164.839 7.28189L168.366 4.68102Z" fill="#A35BFE"/>
<path d="M194.773 77.908L191.088 80.2507L187.842 77.2682L189.521 73.0821L193.805 73.4776L194.773 77.908Z" fill="#A35BFE"/>
<path d="M314.613 35.4524L311.324 32.5235L312.942 28.3104L317.231 28.6355L318.264 33.0495L314.613 35.4524Z" fill="#A35BFE"/>
<path d="M311.909 -117.792L308.62 -120.721L310.238 -124.934L314.527 -124.609L315.56 -120.195L311.909 -117.792Z" fill="#A35BFE"/>
<path d="M180.891 -74.1028L183.593 -77.6405L187.61 -76.0168L187.391 -71.4755L183.238 -70.2926L180.891 -74.1028Z" fill="#A35BFE"/>
<path d="M272.736 220.386L275.438 216.848L279.455 218.471L279.236 223.013L275.084 224.196L272.736 220.386Z" fill="#A35BFE"/>
<path d="M111.503 54.0935L114.205 50.5558L118.222 52.1795L118.003 56.7207L113.85 57.9037L111.503 54.0935Z" fill="#A35BFE"/>
<path d="M158.231 246.757L160.933 243.219L164.95 244.843L164.73 249.384L160.578 250.567L158.231 246.757Z" fill="#A35BFE"/>
<path d="M234.495 -69.3792L238.181 -65.8569L233.453 -64.2435L234.495 -69.3792Z" fill="#00E894"/>
<path d="M235.128 170.392L230.663 172.695L231.009 167.456L235.128 170.392Z" fill="#00E894"/>
<path d="M244.924 105.768L241.418 102.047L246.218 100.696L244.924 105.768Z" fill="#00E894"/>
<path d="M242.22 -47.4766L238.713 -51.1973L243.514 -52.5479L242.22 -47.4766Z" fill="#00E894"/>
<path d="M112.975 -146.33L116.421 -150.114L117.797 -145.067L112.975 -146.33Z" fill="#00E894"/>
<path d="M204.817 148.158L208.263 144.374L209.638 149.422L204.817 148.158Z" fill="#00E894"/>
<path d="M43.5874 -18.1342L47.0332 -21.9176L48.409 -16.8705L43.5874 -18.1342Z" fill="#00E894"/>
<path d="M90.3153 174.53L93.7611 170.746L95.1369 175.794L90.3153 174.53Z" fill="#00E894"/>
<path d="M219.205 9.73708L221.286 13.8943L218.921 17.8782L214.476 17.7049L212.396 13.5477L214.76 9.56374L219.205 9.73708Z" fill="#771AED" fill-opacity="0.35"/>
<path d="M171.392 125.91L166.968 126.403L164.353 122.598L166.161 118.301L170.585 117.809L173.2 121.613L171.392 125.91Z" fill="#771AED" fill-opacity="0.35"/>
<path d="M264.09 27.6016L262.217 23.3353L264.775 19.4872L269.205 19.9053L271.078 24.1716L268.52 28.0197L264.09 27.6016Z" fill="#771AED" fill-opacity="0.35"/>
<path d="M261.389 -125.644L259.517 -129.91L262.074 -133.758L266.505 -133.34L268.378 -129.074L265.82 -125.225L261.389 -125.644Z" fill="#771AED" fill-opacity="0.35"/>
<path d="M187.277 -127.675L191.272 -129.743L194.963 -127.118L194.659 -122.425L190.664 -120.358L186.973 -122.982L187.277 -127.675Z" fill="#771AED" fill-opacity="0.35"/>
<path d="M279.118 166.814L283.113 164.747L286.805 167.371L286.5 172.064L282.505 174.132L278.814 171.507L279.118 166.814Z" fill="#771AED" fill-opacity="0.35"/>
<path d="M117.889 0.521347L121.884 -1.54634L125.575 1.07846L125.271 5.77094L121.276 7.83861L117.584 5.21382L117.889 0.521347Z" fill="#771AED" fill-opacity="0.35"/>
<path d="M164.617 193.185L168.612 191.118L172.303 193.743L171.999 198.435L168.003 200.503L164.312 197.878L164.617 193.185Z" fill="#771AED" fill-opacity="0.35"/>
<path d="M193.693 -63.5678L195.123 -60.9296L197.663 -62.3552L196.217 -59.7268L198.655 -58.1137L195.779 -58.1234L195.677 -55.0846L194.247 -57.7228L191.707 -56.2972L193.153 -58.9256L190.715 -60.5388L193.591 -60.529L193.693 -63.5678Z" fill="#15CC11"/>
<path d="M245.23 128.191L242.382 128.611L242.686 131.634L240.918 129.236L238.594 131.027L239.674 128.209L237.046 126.976L239.894 126.556L239.589 123.533L241.357 125.931L243.681 124.14L242.601 126.958L245.23 128.191Z" fill="#15CC11"/>
<path d="M285.955 102.213L284.657 99.5L282.05 100.784L283.624 98.2385L281.269 96.4932L284.14 96.6614L284.392 93.6324L285.69 96.3459L288.297 95.0622L286.723 97.6073L289.078 99.3527L286.207 99.1844L285.955 102.213Z" fill="#15CC11"/>
<path d="M283.251 -51.0307L281.953 -53.7442L279.346 -52.4605L280.92 -55.0057L278.565 -56.751L281.436 -56.5827L281.688 -59.6117L282.986 -56.8983L285.593 -58.182L284.019 -55.6368L286.374 -53.8915L283.503 -54.0598L283.251 -51.0307Z" fill="#15CC11"/>
<path d="M117.179 -103.025L119.718 -104.453L118.451 -107.182L120.89 -105.571L122.491 -108.097L122.391 -105.058L125.261 -104.854L122.722 -103.426L123.989 -100.696L121.55 -102.307L119.948 -99.782L120.048 -102.821L117.179 -103.025Z" fill="#15CC11"/>
<path d="M209.024 191.463L211.563 190.035L210.296 187.306L212.735 188.917L214.337 186.392L214.237 189.431L217.106 189.635L214.567 191.062L215.834 193.792L213.395 192.181L211.794 194.706L211.894 191.667L209.024 191.463Z" fill="#15CC11"/>
<path d="M47.7912 25.1703L50.3301 23.7424L49.0627 21.013L51.5016 22.624L53.1033 20.0987L53.0033 23.1376L55.8725 23.3417L53.3336 24.7695L54.601 27.499L52.1621 25.888L50.5604 28.4133L50.6604 25.3744L47.7912 25.1703Z" fill="#15CC11"/>
<path d="M94.5191 217.834L97.058 216.407L95.7906 213.677L98.2295 215.288L99.8312 212.763L99.7312 215.802L102.6 216.006L100.061 217.434L101.329 220.163L98.89 218.552L97.2882 221.077L97.3883 218.038L94.5191 217.834Z" fill="#15CC11"/>
<path d="M265.853 -39.9849L266.424 -37.1161L269.181 -36.804L266.777 -35.3431L267.348 -32.4742L265.291 -34.4402L262.888 -32.9793L264.02 -35.6552L261.964 -37.6212L264.72 -37.309L265.853 -39.9849Z" fill="#480CA7" fill-opacity="0.35"/>
<path d="M197.644 190.208L194.913 189.7L193.612 192.288L193.226 189.385L190.495 188.877L192.987 187.591L192.6 184.688L194.527 186.797L197.018 185.511L195.717 188.1L197.644 190.208Z" fill="#480CA7" fill-opacity="0.35"/>
<path d="M215.057 74.6836L214.628 71.7872L211.891 71.3235L214.363 69.9971L213.934 67.1007L215.891 69.1773L218.364 67.8509L217.101 70.4608L219.058 72.5374L216.32 72.0737L215.057 74.6836Z" fill="#480CA7" fill-opacity="0.35"/>
<path d="M212.353 -78.5606L211.924 -81.457L209.187 -81.9207L211.659 -83.247L211.23 -86.1435L213.187 -84.0668L215.66 -85.3932L214.397 -82.7834L216.354 -80.7067L213.616 -81.1704L212.353 -78.5606Z" fill="#480CA7" fill-opacity="0.35"/>
<path d="M141.751 -178.543L144.481 -179.056L144.863 -181.96L146.168 -179.373L148.898 -179.886L146.974 -177.775L148.279 -175.188L145.786 -176.469L143.862 -174.358L144.245 -177.261L141.751 -178.543Z" fill="#480CA7" fill-opacity="0.35"/>
<path d="M233.592 115.946L236.322 115.433L236.704 112.529L238.009 115.116L240.739 114.603L238.816 116.715L240.121 119.301L237.627 118.02L235.704 120.132L236.086 117.228L233.592 115.946Z" fill="#480CA7" fill-opacity="0.35"/>
<path d="M72.3629 -50.3457L75.0926 -50.8588L75.4747 -53.7625L76.7797 -51.1759L79.5095 -51.6889L77.5863 -49.5773L78.8913 -46.9906L76.3976 -48.2722L74.4744 -46.1605L74.8565 -49.0642L72.3629 -50.3457Z" fill="#480CA7" fill-opacity="0.35"/>
<path d="M119.091 142.317L121.821 141.804L122.203 138.901L123.508 141.487L126.237 140.974L124.314 143.086L125.619 145.672L123.126 144.391L121.202 146.503L121.584 143.599L119.091 142.317Z" fill="#480CA7" fill-opacity="0.35"/>
<path d="M231.246 -0.687729L232.744 -4.25772L230.595 -7.43425L233.972 -5.85069L236.976 -8.12271L235.478 -4.55272L237.627 -1.37619L234.251 -2.95976L231.246 -0.687729Z" fill="#7D00C9" fill-opacity="0.75"/>
<path d="M176.055 141.609L178.63 144.409L182.218 143.484L179.57 146.207L180.445 150.001L177.87 147.202L174.281 148.126L176.929 145.403L176.055 141.609Z" fill="#7D00C9" fill-opacity="0.75"/>
<path d="M251.552 37.3481L249.88 40.8307L251.87 44.1214L248.576 42.3538L245.464 44.4572L247.136 40.9746L245.147 37.6839L248.44 39.4514L251.552 37.3481Z" fill="#7D00C9" fill-opacity="0.75"/>
<path d="M248.852 -115.896L247.18 -112.413L249.169 -109.123L245.876 -110.89L242.764 -108.787L244.435 -112.27L242.446 -115.56L245.74 -113.793L248.852 -115.896Z" fill="#7D00C9" fill-opacity="0.75"/>
<path d="M177.801 -140.728L174.474 -142.424L171.403 -140.253L173.007 -143.771L170.954 -147.018L174.281 -145.322L177.352 -147.493L175.748 -143.975L177.801 -140.728Z" fill="#7D00C9" fill-opacity="0.75"/>
<path d="M269.646 153.76L266.319 152.065L263.248 154.235L264.852 150.717L262.799 147.47L266.126 149.166L269.197 146.995L267.593 150.513L269.646 153.76Z" fill="#7D00C9" fill-opacity="0.75"/>
<path d="M108.417 -12.5318L105.089 -14.2273L102.019 -12.0567L103.622 -15.575L101.57 -18.8216L104.897 -17.1261L107.967 -19.2968L106.364 -15.7785L108.417 -12.5318Z" fill="#7D00C9" fill-opacity="0.75"/>
<path d="M155.141 180.132L151.814 178.437L148.743 180.607L150.347 177.089L148.294 173.842L151.621 175.538L154.691 173.367L153.088 176.886L155.141 180.132Z" fill="#7D00C9" fill-opacity="0.75"/>
<path d="M194.222 38.4875C194.427 39.3864 193.351 40.0109 192.744 39.3462C192.534 39.1165 192.219 39.0228 191.919 39.099C191.044 39.3217 190.463 38.2033 191.11 37.5415C191.332 37.3147 191.426 36.9839 191.355 36.6734C191.151 35.7745 192.226 35.1501 192.834 35.8148C193.044 36.0444 193.358 36.1382 193.658 36.0619C194.534 35.8392 195.115 36.9577 194.467 37.6195C194.245 37.8462 194.152 38.177 194.222 38.4875Z" fill="#03F529"/>
<path d="M155.454 90.6805C154.548 90.5399 154.404 89.2821 155.252 88.9171C155.538 88.7942 155.742 88.5283 155.785 88.2199C155.91 87.3206 157.141 87.163 157.465 88.0049C157.577 88.2935 157.835 88.5002 158.14 88.5475C159.046 88.6881 159.19 89.946 158.342 90.311C158.056 90.4339 157.852 90.6998 157.809 91.0082C157.684 91.9076 156.453 92.0652 156.128 91.2233C156.017 90.9346 155.759 90.7279 155.454 90.6805Z" fill="#03F529"/>
<path d="M290.456 0.268951C290.297 -0.637192 291.404 -1.2027 291.976 -0.507538C292.174 -0.267715 292.483 -0.157455 292.786 -0.217102C293.674 -0.391739 294.198 0.755737 293.517 1.38283C293.284 1.59698 293.174 1.92152 293.229 2.23413C293.388 3.14027 292.281 3.70578 291.709 3.01062C291.512 2.7708 291.203 2.66054 290.899 2.72018C290.011 2.89482 289.487 1.74733 290.168 1.12024C290.401 0.906082 290.511 0.581558 290.456 0.268951Z" fill="#03F529"/>
<path d="M287.756 -152.975C287.596 -153.881 288.703 -154.447 289.276 -153.752C289.473 -153.512 289.782 -153.402 290.085 -153.461C290.973 -153.636 291.498 -152.488 290.816 -151.861C290.584 -151.647 290.473 -151.323 290.528 -151.01C290.688 -150.104 289.581 -149.538 289.009 -150.234C288.811 -150.473 288.502 -150.584 288.199 -150.524C287.311 -150.349 286.787 -151.497 287.468 -152.124C287.7 -152.338 287.811 -152.663 287.756 -152.975Z" fill="#03F529"/>
<path d="M213.676 -100.365C214.559 -100.559 215.106 -99.4224 214.438 -98.7813C214.21 -98.5622 214.106 -98.235 214.167 -97.9232C214.344 -97.0196 213.249 -96.4306 212.663 -97.114C212.461 -97.3498 212.149 -97.4536 211.847 -97.3874C210.964 -97.1937 210.417 -98.3301 211.085 -98.9711C211.314 -99.1903 211.417 -99.5174 211.356 -99.8293C211.179 -100.733 212.274 -101.322 212.86 -100.639C213.063 -100.403 213.374 -100.299 213.676 -100.365Z" fill="#03F529"/>
<path d="M305.517 194.123C306.401 193.93 306.948 195.066 306.28 195.707C306.051 195.926 305.947 196.253 306.008 196.565C306.186 197.469 305.091 198.058 304.504 197.374C304.302 197.138 303.991 197.035 303.689 197.101C302.805 197.295 302.258 196.158 302.927 195.517C303.155 195.298 303.259 194.971 303.198 194.659C303.021 193.755 304.115 193.166 304.702 193.85C304.904 194.086 305.215 194.189 305.517 194.123Z" fill="#03F529"/>
<path d="M144.288 27.8312C145.171 27.6375 145.718 28.7739 145.05 29.4149C144.822 29.6341 144.718 29.9613 144.779 30.2731C144.956 31.1767 143.861 31.7657 143.275 31.0823C143.072 30.8464 142.761 30.7427 142.459 30.8089C141.576 31.0026 141.029 29.8662 141.697 29.2251C141.926 29.006 142.029 28.6788 141.968 28.367C141.791 27.4634 142.886 26.8744 143.472 27.5578C143.675 27.7937 143.986 27.8974 144.288 27.8312Z" fill="#03F529"/>
<path d="M191.016 220.495C191.899 220.302 192.446 221.438 191.778 222.079C191.549 222.298 191.446 222.625 191.507 222.937C191.684 223.841 190.589 224.43 190.003 223.746C189.8 223.511 189.489 223.407 189.187 223.473C188.304 223.667 187.757 222.53 188.425 221.889C188.653 221.67 188.757 221.343 188.696 221.031C188.519 220.127 189.614 219.538 190.2 220.222C190.403 220.458 190.714 220.561 191.016 220.495Z" fill="#03F529"/>
<path d="M-31.8094 71.5709L-17.4697 76.3837L-19.2519 82.3208L-33.5916 77.508L-31.8094 71.5709Z" fill="#00B934"/>
<path d="M3.22635 185.29L-6.34064 197.567L-10.887 193.606L-1.32002 181.329L3.22635 185.29Z" fill="#00B934"/>
<path d="M95.5295 146.935L81.4466 141.338L83.5191 135.508L97.602 141.104L95.5295 146.935Z" fill="#00B934"/>
<path d="M91.5546 -6.27872L77.4717 -11.8755L79.5441 -17.7062L93.627 -12.1095L91.5546 -6.27872Z" fill="#00B934"/>
<path d="M-50.6313 5.65488L-45.6293 -9.34843L-40.0736 -7.27745L-45.0756 7.72586L-50.6313 5.65488Z" fill="#00B934"/>
<path d="M43.6483 299.281L48.6503 284.278L54.206 286.349L49.204 301.352L43.6483 299.281Z" fill="#00B934"/>
<path d="M-118.952 134.489L-113.95 119.486L-108.394 121.557L-113.396 136.56L-118.952 134.489Z" fill="#00B934"/>
<path d="M-70.6317 326.713L-65.6297 311.709L-60.074 313.78L-65.076 328.784L-70.6317 326.713Z" fill="#00B934"/>
<path d="M-30.4389 143.327L-25.5781 148.397L-28.8273 151.88L-33.6881 146.81L-30.4389 143.327Z" fill="#00E28D"/>
<path d="M-60.2584 159.899L-66.5194 162.779L-68.3652 158.293L-62.1043 155.413L-60.2584 159.899Z" fill="#00E28D"/>
<path d="M97.6943 75.2008L93.0901 69.8694L96.5067 66.5704L101.111 71.9018L97.6943 75.2008Z" fill="#00E28D"/>
<path d="M93.7231 -78.0131L89.1189 -83.3445L92.5354 -86.6435L97.1396 -81.3121L93.7231 -78.0131Z" fill="#00E28D"/>
<path d="M17.2384 6.47029L22.1846 1.49312L25.3741 5.03711L20.428 10.0143L17.2384 6.47029Z" fill="#00E28D"/>
<path d="M111.522 300.096L116.468 295.119L119.657 298.663L114.711 303.64L111.522 300.096Z" fill="#00E28D"/>
<path d="M-51.082 135.304L-46.1359 130.327L-42.9464 133.871L-47.8925 138.848L-51.082 135.304Z" fill="#00E28D"/>
<path d="M-2.76195 327.528L2.18419 322.551L5.37373 326.095L0.427612 331.072L-2.76195 327.528Z" fill="#00E28D"/>
<path d="M43.4338 79.3531C45.3147 79.4437 46.7699 81.1295 46.6842 83.1183C46.5984 85.1072 45.0042 86.646 43.1233 86.5554C41.2424 86.4647 39.7871 84.7789 39.8729 82.79C39.9586 80.8012 41.5529 79.2624 43.4338 79.3531Z" fill="#00D33B" fill-opacity="0.6"/>
<path d="M-31.6425 256.224C-32.4229 258.036 -34.4446 258.835 -36.1581 258.01C-37.8716 257.185 -38.628 255.047 -37.8476 253.235C-37.0672 251.423 -35.0455 250.624 -33.332 251.449C-31.6185 252.274 -30.8621 254.412 -31.6425 256.224Z" fill="#00D33B" fill-opacity="0.6"/>
<path d="M20.7682 135.015C18.8944 134.821 17.5242 133.057 17.7079 131.075C17.8915 129.094 19.5595 127.645 21.4334 127.839C23.3073 128.034 24.6774 129.797 24.4937 131.779C24.3101 133.76 22.6421 135.209 20.7682 135.015Z" fill="#00D33B" fill-opacity="0.6"/>
<path d="M16.797 -18.1991C14.9231 -18.3934 13.5529 -20.1571 13.7366 -22.1385C13.9203 -24.1199 15.5882 -25.5687 17.4621 -25.3745C19.336 -25.1803 20.7061 -23.4166 20.5225 -21.4352C20.3388 -19.4537 18.6708 -18.0049 16.797 -18.1991Z" fill="#00D33B" fill-opacity="0.6"/>
<path d="M-40.8975 -73.6247C-40.7525 -75.6097 -39.113 -77.0945 -37.2358 -76.9411C-35.3586 -76.7877 -33.9543 -75.0542 -34.0994 -73.0692C-34.2445 -71.0842 -35.8839 -69.5994 -37.7612 -69.7528C-39.6384 -69.9062 -41.0426 -71.6397 -40.8975 -73.6247Z" fill="#00D33B" fill-opacity="0.6"/>
<path d="M53.382 220.001C53.5271 218.016 55.1665 216.531 57.0438 216.685C58.9211 216.838 60.3253 218.572 60.1802 220.557C60.0351 222.542 58.3957 224.027 56.5184 223.873C54.6412 223.72 53.237 221.986 53.382 220.001Z" fill="#00D33B" fill-opacity="0.6"/>
<path d="M-109.222 55.2103C-109.077 53.2252 -107.437 51.7404 -105.56 51.8938C-103.683 52.0473 -102.279 53.7808 -102.424 55.7658C-102.569 57.7508 -104.208 59.2356 -106.085 59.0822C-107.963 58.9288 -109.367 57.1953 -109.222 55.2103Z" fill="#00D33B" fill-opacity="0.6"/>
<path d="M-60.8979 247.434C-60.7528 245.449 -59.1134 243.964 -57.2362 244.117C-55.3589 244.271 -53.9547 246.004 -54.0998 247.989C-54.2449 249.974 -55.8843 251.459 -57.7615 251.306C-59.6388 251.152 -61.043 249.419 -60.8979 247.434Z" fill="#00D33B" fill-opacity="0.6"/>
<path d="M38.2674 155.144C39.1022 155.184 39.748 155.932 39.7099 156.815C39.6719 157.697 38.9644 158.38 38.1296 158.34C37.2949 158.3 36.649 157.552 36.6871 156.669C36.7251 155.786 37.4327 155.103 38.2674 155.144Z" fill="#8000E4"/>
<path d="M-93.1159 221.681C-94.0007 223.735 -96.2928 224.642 -98.2354 223.706C-100.178 222.771 -101.036 220.347 -100.151 218.293C-99.266 216.239 -96.974 215.332 -95.0313 216.268C-93.0887 217.203 -92.2312 219.627 -93.1159 221.681Z" fill="#8000E4"/>
<path d="M29.6638 59.612C28.8322 59.5258 28.2241 58.743 28.3056 57.8637C28.3871 56.9843 29.1274 56.3413 29.959 56.4275C30.7906 56.5137 31.3987 57.2964 31.3172 58.1758C31.2357 59.0552 30.4954 59.6982 29.6638 59.612Z" fill="#8000E4"/>
<path d="M25.6926 -93.6009C24.8609 -93.6871 24.2529 -94.4699 24.3344 -95.3492C24.4159 -96.2286 25.1561 -96.8716 25.9877 -96.7854C26.8194 -96.6992 27.4274 -95.9165 27.3459 -95.0371C27.2644 -94.1577 26.5242 -93.5147 25.6926 -93.6009Z" fill="#8000E4"/>
<path d="M30.5777 -65.7707C30.6421 -66.6517 31.3696 -67.3107 32.2028 -67.2426C33.0359 -67.1745 33.6591 -66.4052 33.5947 -65.5242C33.5303 -64.6432 32.8027 -63.9843 31.9696 -64.0524C31.1365 -64.1205 30.5133 -64.8898 30.5777 -65.7707Z" fill="#8000E4"/>
<path d="M124.857 227.855C124.922 226.974 125.649 226.315 126.482 226.383C127.315 226.451 127.939 227.221 127.874 228.102C127.81 228.983 127.082 229.642 126.249 229.574C125.416 229.506 124.793 228.736 124.857 227.855Z" fill="#8000E4"/>
<path d="M-37.7428 63.0632C-37.6784 62.1823 -36.9508 61.5233 -36.1177 61.5914C-35.2846 61.6595 -34.6614 62.4288 -34.7258 63.3098C-34.7901 64.1907 -35.5177 64.8497 -36.3508 64.7816C-37.184 64.7135 -37.8072 63.9442 -37.7428 63.0632Z" fill="#8000E4"/>
<path d="M10.5773 255.287C10.6417 254.406 11.3693 253.747 12.2024 253.815C13.0355 253.883 13.6587 254.652 13.5943 255.533C13.5299 256.414 12.8024 257.073 11.9692 257.005C11.1361 256.937 10.5129 256.168 10.5773 255.287Z" fill="#8000E4"/>
<path d="M-6.82579 78.3719C-5.64233 78.429 -4.72667 79.4897 -4.78061 80.7411C-4.83455 81.9925 -5.83768 82.9607 -7.02113 82.9037C-8.20459 82.8466 -9.12024 81.7859 -9.0663 80.5345C-9.01236 79.2831 -8.00925 78.3149 -6.82579 78.3719Z" fill="#880F9C"/>
<path d="M-12.0522 207.271C-12.5432 208.411 -13.8153 208.915 -14.8934 208.395C-15.9715 207.876 -16.4474 206.531 -15.9564 205.391C-15.4654 204.251 -14.1933 203.748 -13.1152 204.267C-12.037 204.786 -11.5611 206.131 -12.0522 207.271Z" fill="#880F9C"/>
<path d="M70.9144 138.765C69.7354 138.643 68.8733 137.533 68.9889 136.286C69.1044 135.039 70.1539 134.128 71.333 134.25C72.512 134.372 73.3741 135.482 73.2585 136.729C73.143 137.975 72.0935 138.887 70.9144 138.765Z" fill="#880F9C"/>
<path d="M66.9395 -14.4481C65.7605 -14.5703 64.8983 -15.6801 65.0139 -16.9268C65.1295 -18.1735 66.179 -19.0851 67.358 -18.9629C68.537 -18.8407 69.3992 -17.731 69.2836 -16.4842C69.168 -15.2375 68.1185 -14.3259 66.9395 -14.4481Z" fill="#880F9C"/>
<path d="M-43.4133 -20.5362C-43.3221 -21.7852 -42.2905 -22.7194 -41.1094 -22.6229C-39.9282 -22.5264 -39.0447 -21.4356 -39.136 -20.1867C-39.2272 -18.9377 -40.2588 -18.0035 -41.4399 -18.1C-42.6211 -18.1965 -43.5046 -19.2872 -43.4133 -20.5362Z" fill="#880F9C"/>
<path d="M50.8662 273.09C50.9575 271.841 51.9891 270.907 53.1702 271.003C54.3514 271.1 55.2349 272.19 55.1436 273.439C55.0524 274.688 54.0208 275.623 52.8397 275.526C51.6585 275.429 50.775 274.339 50.8662 273.09Z" fill="#880F9C"/>
<path d="M-111.734 108.298C-111.643 107.049 -110.611 106.115 -109.43 106.211C-108.249 106.308 -107.365 107.398 -107.456 108.647C-107.548 109.896 -108.579 110.831 -109.76 110.734C-110.942 110.637 -111.825 109.547 -111.734 108.298Z" fill="#880F9C"/>
<path d="M-63.4137 300.521C-63.3224 299.272 -62.2909 298.338 -61.1097 298.435C-59.9286 298.531 -59.0451 299.622 -59.1363 300.871C-59.2276 302.12 -60.2591 303.054 -61.4403 302.958C-62.6215 302.861 -63.505 301.77 -63.4137 300.521Z" fill="#880F9C"/>
<path d="M-40.8226 94.8093L-37.3707 97.5211L-38.743 101.831L-43.0431 101.782L-44.3284 97.4428L-40.8226 94.8093Z" fill="#A35BFE"/>
<path d="M-13.8103 167.788L-17.4764 170.165L-20.747 167.213L-19.1023 163.011L-14.8151 163.367L-13.8103 167.788Z" fill="#A35BFE"/>
<path d="M105.673 124.224L102.359 121.325L103.942 117.097L108.234 117.383L109.304 121.787L105.673 124.224Z" fill="#A35BFE"/>
<path d="M101.702 -28.9893L98.388 -31.8876L99.9709 -36.1155L104.263 -35.8302L105.332 -31.4259L101.702 -28.9893Z" fill="#A35BFE"/>
<path d="M-28.9509 15.9123L-26.2786 12.3497L-22.2485 13.9361L-22.43 18.4792L-26.5723 19.7006L-28.9509 15.9123Z" fill="#A35BFE"/>
<path d="M65.3324 309.538L68.0047 305.976L72.0348 307.562L71.8533 312.105L67.711 313.327L65.3324 309.538Z" fill="#A35BFE"/>
<path d="M-97.2713 144.746L-94.5991 141.184L-90.5689 142.77L-90.7505 147.313L-94.8928 148.535L-97.2713 144.746Z" fill="#A35BFE"/>
<path d="M-48.9512 336.97L-46.279 333.407L-42.2489 334.994L-42.4304 339.537L-46.5727 340.758L-48.9512 336.97Z" fill="#A35BFE"/>
<path d="M24.6885 20.1385L28.4027 23.6266L23.6888 25.2837L24.6885 20.1385Z" fill="#00E894"/>
<path d="M27.308 259.896L22.8629 262.241L23.1651 256.998L27.308 259.896Z" fill="#00E894"/>
<path d="M36.5684 195.182L33.0313 191.494L37.8204 190.099L36.5684 195.182Z" fill="#00E894"/>
<path d="M32.5972 41.9691L29.0601 38.281L33.8492 36.886L32.5972 41.9691Z" fill="#00E894"/>
<path d="M-97.4647 -55.6833L-94.0504 -59.4985L-92.6328 -54.4643L-97.4647 -55.6833Z" fill="#00E894"/>
<path d="M-3.1814 237.943L0.232925 234.127L1.65048 239.162L-3.1814 237.943Z" fill="#00E894"/>
<path d="M-165.785 73.1517L-162.371 69.3364L-160.953 74.3707L-165.785 73.1517Z" fill="#00E894"/>
<path d="M-117.461 265.374L-114.047 261.559L-112.629 266.593L-117.461 265.374Z" fill="#00E894"/>
<path d="M10.0586 99.3936L12.1736 103.531L9.84215 107.537L5.39575 107.405L3.28076 103.267L5.61218 99.2614L10.0586 99.3936Z" fill="#771AED" fill-opacity="0.35"/>
<path d="M-36.792 216.006L-41.2114 216.54L-43.8581 212.759L-42.0853 208.446L-37.6659 207.912L-35.0192 211.692L-36.792 216.006Z" fill="#771AED" fill-opacity="0.35"/>
<path d="M55.0886 116.841L53.1805 112.592L55.7063 108.72L60.1401 109.097L62.0482 113.346L59.5224 117.218L55.0886 116.841Z" fill="#771AED" fill-opacity="0.35"/>
<path d="M51.1136 -36.3723L49.2056 -40.6211L51.7313 -44.4928L56.1651 -44.1157L58.0732 -39.8669L55.5475 -35.9952L51.1136 -36.3723Z" fill="#771AED" fill-opacity="0.35"/>
<path d="M-23.0092 -37.7163L-19.0312 -39.8209L-15.3185 -37.2304L-15.5838 -32.5353L-19.5618 -30.4307L-23.2745 -33.0211L-23.0092 -37.7163Z" fill="#771AED" fill-opacity="0.35"/>
<path d="M71.2704 255.91L75.2484 253.805L78.9611 256.396L78.6958 261.091L74.7178 263.195L71.0051 260.605L71.2704 255.91Z" fill="#771AED" fill-opacity="0.35"/>
<path d="M-91.3297 91.1177L-87.3517 89.0131L-83.639 91.6036L-83.9043 96.2987L-87.8823 98.4033L-91.595 95.8128L-91.3297 91.1177Z" fill="#771AED" fill-opacity="0.35"/>
<path d="M-43.0096 283.341L-39.0316 281.237L-35.3189 283.827L-35.5842 288.522L-39.5622 290.627L-43.2749 288.036L-43.0096 283.341Z" fill="#771AED" fill-opacity="0.35"/>
<path d="M-16.0594 26.3278L-14.6077 28.9526L-12.0797 27.5035L-13.5036 30.1452L-11.0527 31.7357L-13.9283 31.7526L-14.0055 34.7922L-15.4572 32.1674L-17.9852 33.6165L-16.5613 30.9748L-19.0122 29.3843L-16.1366 29.3674L-16.0594 26.3278Z" fill="#15CC11"/>
<path d="M37.0624 217.602L34.2179 218.049L34.5477 221.069L32.7599 218.688L30.4508 220.5L31.5075 217.672L28.8686 216.464L31.7131 216.017L31.3834 212.997L33.1712 215.378L35.4803 213.566L34.4236 216.394L37.0624 217.602Z" fill="#15CC11"/>
<path d="M77.5703 191.248L76.2501 188.547L73.654 189.855L75.2063 187.295L72.8371 185.572L75.7096 185.713L75.9366 182.682L77.2568 185.383L79.8529 184.075L78.3006 186.635L80.6698 188.359L77.7973 188.217L77.5703 191.248Z" fill="#15CC11"/>
<path d="M73.5954 38.0343L72.2751 35.3329L69.679 36.6408L71.2313 34.0811L68.8622 32.3577L71.7347 32.4993L71.9616 29.4681L73.2819 32.1694L75.8779 30.8616L74.3257 33.4212L76.6948 35.1447L73.8223 35.003L73.5954 38.0343Z" fill="#15CC11"/>
<path d="M-92.899 -12.4191L-90.372 -13.8704L-91.662 -16.588L-89.2099 -14.9997L-87.6291 -17.5397L-87.7039 -14.5001L-84.8332 -14.3225L-87.3601 -12.8712L-86.0702 -10.1536L-88.5223 -11.7419L-90.1031 -9.20187L-90.0283 -12.2416L-92.899 -12.4191Z" fill="#15CC11"/>
<path d="M1.38058 281.208L3.90755 279.757L2.61758 277.039L5.0697 278.627L6.65048 276.087L6.57565 279.127L9.44641 279.304L6.91945 280.756L8.20941 283.473L5.75728 281.885L4.1765 284.425L4.25133 281.385L1.38058 281.208Z" fill="#15CC11"/>
<path d="M-161.219 116.415L-158.693 114.964L-159.982 112.246L-157.53 113.834L-155.95 111.294L-156.024 114.334L-153.154 114.511L-155.681 115.963L-154.391 118.68L-156.843 117.092L-158.424 119.632L-158.349 116.592L-161.219 116.415Z" fill="#15CC11"/>
<path d="M-112.899 308.639L-110.372 307.188L-111.662 304.471L-109.21 306.059L-107.629 303.519L-107.704 306.559L-104.834 306.736L-107.361 308.187L-106.071 310.905L-108.523 309.317L-110.103 311.857L-110.029 308.817L-112.899 308.639Z" fill="#15CC11"/>
<path d="M56.29 49.2427L56.8849 52.1061L59.6441 52.3927L57.2525 53.8758L57.8474 56.7392L55.7744 54.7924L53.3828 56.2755L54.4933 53.5892L52.4203 51.6424L55.1795 51.929L56.29 49.2427Z" fill="#480CA7" fill-opacity="0.35"/>
<path d="M-10.0054 280.058L-12.7401 279.575L-14.0197 282.175L-14.4302 279.276L-17.1648 278.793L-14.6838 277.484L-15.0943 274.585L-13.1505 276.675L-10.6695 275.366L-11.9492 277.967L-10.0054 280.058Z" fill="#480CA7" fill-opacity="0.35"/>
<path d="M6.44626 164.377L5.99335 161.484L3.25195 161.046L5.71342 159.697L5.26051 156.805L7.23471 158.863L9.69618 157.514L8.45482 160.135L10.429 162.194L7.68762 161.755L6.44626 164.377Z" fill="#480CA7" fill-opacity="0.35"/>
<path d="M2.47499 11.1629L2.02208 8.27061L-0.719315 7.83231L1.74216 6.48306L1.28925 3.59074L3.26344 5.64919L5.72491 4.29993L4.48355 6.92137L6.45775 8.9798L3.71635 8.5415L2.47499 11.1629Z" fill="#480CA7" fill-opacity="0.35"/>
<path d="M-68.9568 -88.1609L-66.2314 -88.6993L-65.8734 -91.6064L-64.547 -89.032L-61.8216 -89.5703L-63.7273 -87.4409L-62.4009 -84.8664L-64.905 -86.1248L-66.8107 -83.9954L-66.4527 -86.9025L-68.9568 -88.1609Z" fill="#480CA7" fill-opacity="0.35"/>
<path d="M25.3265 205.466L28.0519 204.928L28.4099 202.021L29.7363 204.595L32.4617 204.057L30.556 206.186L31.8824 208.761L29.3783 207.502L27.4726 209.632L27.8306 206.724L25.3265 205.466Z" fill="#480CA7" fill-opacity="0.35"/>
<path d="M-137.277 40.674L-134.552 40.1357L-134.194 37.2285L-132.867 39.803L-130.142 39.2646L-132.048 41.3941L-130.721 43.9685L-133.225 42.7101L-135.131 44.8396L-134.773 41.9324L-137.277 40.674Z" fill="#480CA7" fill-opacity="0.35"/>
<path d="M-88.9572 232.897L-86.2318 232.358L-85.8738 229.451L-84.5474 232.026L-81.822 231.487L-83.7276 233.617L-82.4013 236.191L-84.9054 234.933L-86.8111 237.062L-86.453 234.155L-88.9572 232.897Z" fill="#480CA7" fill-opacity="0.35"/>
<path d="M22.0097 88.8578L23.4777 85.274L21.3027 82.1175L24.6919 83.6697L27.6771 81.37L26.2091 84.9537L28.3841 88.1102L24.9949 86.558L22.0097 88.8578Z" fill="#7D00C9" fill-opacity="0.75"/>
<path d="M-32.0017 231.66L-29.4035 234.436L-25.823 233.478L-28.4481 236.225L-27.5421 240.012L-30.1402 237.236L-33.7208 238.194L-31.0957 235.447L-32.0017 231.66Z" fill="#7D00C9" fill-opacity="0.75"/>
<path d="M42.6329 126.704L40.9902 130.202L43.0066 133.474L39.6985 131.737L36.604 133.869L38.2467 130.371L36.2303 127.099L39.5384 128.836L42.6329 126.704Z" fill="#7D00C9" fill-opacity="0.75"/>
<path d="M38.6616 -26.5092L37.019 -23.0113L39.0353 -19.7392L35.7273 -21.4762L32.6328 -19.3441L34.2754 -22.842L32.2591 -26.1141L35.5671 -24.3772L38.6616 -26.5092Z" fill="#7D00C9" fill-opacity="0.75"/>
<path d="M-32.5924 -50.6821L-35.9335 -52.3467L-38.9858 -50.1477L-37.4116 -53.6806L-39.4912 -56.9082L-36.1501 -55.2436L-33.0977 -57.4426L-34.672 -53.9096L-32.5924 -50.6821Z" fill="#7D00C9" fill-opacity="0.75"/>
<path d="M61.6909 242.944L58.3498 241.279L55.2974 243.478L56.8717 239.945L54.7921 236.718L58.1332 238.382L61.1855 236.183L59.6113 239.716L61.6909 242.944Z" fill="#7D00C9" fill-opacity="0.75"/>
<path d="M-100.913 78.1529L-104.254 76.4883L-107.306 78.6872L-105.732 75.1543L-107.812 71.9268L-104.471 73.5913L-101.418 71.3924L-102.992 74.9253L-100.913 78.1529Z" fill="#7D00C9" fill-opacity="0.75"/>
<path d="M-52.5928 270.376L-55.9339 268.711L-58.9862 270.91L-57.412 267.377L-59.4916 264.149L-56.1504 265.814L-53.0981 263.615L-54.6723 267.148L-52.5928 270.376Z" fill="#7D00C9" fill-opacity="0.75"/>
<path d="M-14.6872 128.375C-14.4753 129.272 -15.5454 129.907 -16.1586 129.247C-16.3704 129.02 -16.6855 128.929 -16.9848 129.008C-17.8584 129.239 -18.4486 128.126 -17.8067 127.458C-17.5868 127.229 -17.4957 126.898 -17.5689 126.588C-17.7808 125.691 -16.7107 125.056 -16.0976 125.715C-15.8858 125.943 -15.5706 126.034 -15.2713 125.955C-14.3977 125.724 -13.8075 126.837 -14.4494 127.505C-14.6694 127.734 -14.7604 128.065 -14.6872 128.375Z" fill="#03F529"/>
<path d="M-53.0213 180.925C-53.9281 180.793 -54.0825 179.536 -53.2378 179.164C-52.9533 179.038 -52.7511 178.77 -52.7108 178.462C-52.5934 177.561 -51.363 177.392 -51.0319 178.231C-50.9184 178.519 -50.6582 178.723 -50.3528 178.767C-49.446 178.9 -49.2916 180.156 -50.1364 180.529C-50.4209 180.654 -50.6231 180.922 -50.6633 181.231C-50.7807 182.131 -52.0112 182.3 -52.3422 181.462C-52.4558 181.174 -52.716 180.97 -53.0213 180.925Z" fill="#03F529"/>
<path d="M81.2289 89.2657C81.062 88.3611 82.1642 87.7854 82.7422 88.4752C82.9417 88.7132 83.2516 88.8206 83.5544 88.7581C84.4409 88.5753 84.9747 89.7178 84.2986 90.3512C84.0678 90.5675 83.9601 90.8931 84.0177 91.2051C84.1846 92.1097 83.0824 92.6855 82.5043 91.9957C82.3049 91.7577 81.995 91.6503 81.6922 91.7128C80.8057 91.8956 80.2719 90.7531 80.9479 90.1197C81.1788 89.9034 81.2865 89.5778 81.2289 89.2657Z" fill="#03F529"/>
<path d="M77.2539 -63.9471C77.0871 -64.8517 78.1893 -65.4275 78.7673 -64.7377C78.9667 -64.4997 79.2766 -64.3923 79.5794 -64.4548C80.4659 -64.6376 80.9997 -63.495 80.3237 -62.8617C80.0928 -62.6454 79.9852 -62.3198 80.0427 -62.0077C80.2096 -61.1031 79.1074 -60.5274 78.5294 -61.2172C78.33 -61.4552 78.02 -61.5625 77.7173 -61.5001C76.8307 -61.3172 76.2969 -62.4598 76.973 -63.0932C77.2038 -63.3095 77.3115 -63.635 77.2539 -63.9471Z" fill="#03F529"/>
<path d="M3.61514 -10.6531C4.4969 -10.855 5.05312 -9.72371 4.39032 -9.07649C4.1637 -8.85521 4.06253 -8.52713 4.12627 -8.21585C4.31094 -7.314 3.22105 -6.71486 2.62901 -7.39276C2.42467 -7.62675 2.11259 -7.72765 1.81111 -7.65862C0.929352 -7.45674 0.373138 -8.58801 1.03593 -9.23523C1.26256 -9.45651 1.36371 -9.78458 1.29997 -10.0959C1.1153 -10.9977 2.2052 -11.5969 2.79724 -10.919C3.00159 -10.685 3.31366 -10.5841 3.61514 -10.6531Z" fill="#03F529"/>
<path d="M97.8947 282.974C98.7765 282.772 99.3327 283.903 98.6699 284.55C98.4433 284.772 98.3421 285.1 98.4058 285.411C98.5905 286.313 97.5006 286.912 96.9086 286.234C96.7042 286 96.3922 285.899 96.0907 285.968C95.2089 286.17 94.6527 285.039 95.3155 284.392C95.5421 284.17 95.6433 283.842 95.5795 283.531C95.3949 282.629 96.4848 282.03 97.0768 282.708C97.2812 282.942 97.5932 283.043 97.8947 282.974Z" fill="#03F529"/>
<path d="M-64.7053 118.181C-63.8236 117.979 -63.2673 119.11 -63.9301 119.758C-64.1568 119.979 -64.2579 120.307 -64.1942 120.618C-64.0095 121.52 -65.0994 122.119 -65.6915 121.441C-65.8958 121.207 -66.2079 121.106 -66.5094 121.175C-67.3911 121.377 -67.9473 120.246 -67.2845 119.599C-67.0579 119.378 -66.9567 119.049 -67.0205 118.738C-67.2052 117.836 -66.1153 117.237 -65.5232 117.915C-65.3189 118.149 -65.0068 118.25 -64.7053 118.181Z" fill="#03F529"/>
<path d="M-16.3852 310.405C-15.5035 310.203 -14.9473 311.334 -15.6101 311.981C-15.8367 312.202 -15.9379 312.53 -15.8741 312.842C-15.6894 313.744 -16.7793 314.343 -17.3714 313.665C-17.5757 313.431 -17.8878 313.33 -18.1893 313.399C-19.071 313.601 -19.6272 312.47 -18.9644 311.822C-18.7378 311.601 -18.6367 311.273 -18.7004 310.962C-18.8851 310.06 -17.7952 309.461 -17.2031 310.139C-16.9988 310.373 -16.6867 310.474 -16.3852 310.405Z" fill="#03F529"/>
</svg>
