<svg width="201" height="90" viewBox="0 0 201 90" fill="none" xmlns="http://www.w3.org/2000/svg">
<g filter="url(#filter0_i_1450_5102)">
<path d="M75.4186 109.329L75.3385 87.5762L56.3613 98.2642L56.2363 119.898L75.4186 109.329Z" fill="url(#paint0_linear_1450_5102)"/>
<path d="M37.1846 87.4069L56.1933 76.1875L75.3364 87.5776L56.1875 97.9482L37.1846 87.4069Z" fill="url(#paint1_linear_1450_5102)"/>
<path d="M56.1895 98.3887L37.0674 87.6152L37.1132 109.245L56.3221 120.225L56.1895 98.3887Z" fill="url(#paint2_linear_1450_5102)"/>
<path fill-rule="evenodd" clip-rule="evenodd" d="M56.4308 75.8978L56.1914 75.7578L55.952 75.8978L36.8766 87.0433L36.6392 87.1824V87.4576V109.351V109.632L36.8833 109.769L55.9587 120.516L56.1914 120.648L56.425 120.516L75.5005 109.769L75.7446 109.632V109.351V87.4576V87.1824L75.5072 87.0433L56.4308 75.8978ZM37.5928 109.07V88.2766L55.7108 98.4833L55.6421 119.238L37.5928 109.07ZM56.5948 119.32L74.791 109.07V88.2766L56.6644 98.489L56.5948 119.32ZM56.1914 97.6557L74.3056 87.45L56.1914 76.8674L38.0782 87.45L56.1914 97.6557Z" fill="#2AC574"/>
</g>
<path fill-rule="evenodd" clip-rule="evenodd" d="M56.1933 69.1403L56.0731 69.0703L55.9539 69.1403L30.9278 83.7622L30.8086 83.8313V83.9693V112.691V112.831L30.9307 112.9L55.9567 127L56.0731 127.065L56.1894 127L81.2165 112.9L81.3376 112.831V112.691V83.9693V83.8313L81.2193 83.7622L56.1933 69.1403ZM31.2854 112.55V84.3779L55.8328 98.2086L55.9119 126.424L31.2854 112.55ZM56.3887 126.338L80.8608 112.55V84.3779L56.3096 98.2105L56.3887 126.338ZM56.0731 97.7943L80.6186 83.9655L56.0731 69.6246L31.5286 83.9655L56.0731 97.7943Z" fill="white" fill-opacity="0.15"/>
<g filter="url(#filter1_i_1450_5102)">
<path d="M8.43257 70.8039L8.16937 22.498L-34.0239 46.1518L-33.9963 94.5642L8.43257 70.8039Z" fill="url(#paint3_linear_1450_5102)"/>
<path d="M-75.8386 22.4818L-33.9381 -2.24805L7.97296 22.3849L-33.6682 46.2171L-75.8386 22.4818Z" fill="url(#paint4_linear_1450_5102)"/>
<path fill-rule="evenodd" clip-rule="evenodd" d="M-33.6424 -2.45179L-33.8818 -2.5918L-34.1211 -2.45179L-76.1685 22.115L-76.406 22.254V22.5302V70.7862V71.0672L-76.1628 71.2044L-34.1144 94.8946L-33.8818 95.025L-33.6491 94.8946L8.39929 71.2044L8.64247 71.0672V70.7862V22.5302V22.254L8.40502 22.115L-33.6424 -2.45179ZM-75.4524 70.5052V23.3482L-34.3672 46.4957L-34.5798 93.5328L-75.4524 70.5052ZM-33.6271 93.7831L7.68884 70.5052V23.3482L-33.4135 46.5053L-33.6271 93.7831ZM-33.8818 45.67L7.20345 22.5225L-33.8818 -1.48223L-74.967 22.5225L-33.8818 45.67Z" fill="#2AC574"/>
</g>
<path d="M21.0131 78.2237L20.8968 15.0273L-34.0237 46.147L-33.9464 109.176L21.0131 78.2237Z" fill="#33BE95" fill-opacity="0.15"/>
<path d="M-89.3142 14.963L-34.1086 -17.457L20.9215 14.9016L-33.8645 46.096L-89.3142 14.963Z" fill="#33BE95" fill-opacity="0.15"/>
<path fill-rule="evenodd" clip-rule="evenodd" d="M-33.6699 -18.2239L-34.1496 -18.5039L-34.6283 -18.2239L-89.792 14.0063L-90.2668 14.2834V14.8358V78.1453V78.7072L-89.7796 78.9815L-34.6159 110.061L-34.1496 110.324L-33.6833 110.061L21.4804 78.9815L21.9677 78.7072V78.1453V14.8358V14.2834L21.4938 14.0063L-33.6699 -18.2239ZM-88.3596 77.5833V16.4718L-35.1089 46.4733L-34.9993 107.646L-88.3596 77.5833ZM-33.092 107.529L20.0604 77.5833V16.4718L-33.2017 46.48L-33.092 107.529ZM-34.1496 44.8152L19.0906 14.8204L-34.1496 -16.2857L-87.3888 14.8204L-34.1496 44.8152Z" fill="#33BE95" fill-opacity="0.2"/>
<path fill-rule="evenodd" clip-rule="evenodd" d="M56.3869 -36.7643L56.1475 -36.9043L55.9082 -36.7643L30.9574 -22.1865L30.72 -22.0474V-21.7722V6.86356V7.14454L30.9632 7.28168L55.9148 21.3397L56.1475 21.4711L56.3812 21.3397L81.3319 7.28168L81.5761 7.14454V6.86356V-21.7722V-22.0474L81.3386 -22.1865L56.3869 -36.7643ZM31.6736 6.58257V-20.9532L55.666 -7.4361L55.5325 20.0249L31.6736 6.58257ZM56.4851 20.1812L80.6225 6.58257V-20.9532L56.6196 -7.43035L56.4851 20.1812ZM56.1475 -8.26373L80.1371 -21.7799L56.1475 -35.7957L32.159 -21.7799L56.1475 -8.26373Z" fill="white" fill-opacity="0.15"/>
<path d="M56.0132 20.6367V80.8908" stroke="white" stroke-opacity="0.15" stroke-linecap="round"/>
<defs>
<filter id="filter0_i_1450_5102" x="36.6392" y="75.7578" width="39.1055" height="44.8906" filterUnits="userSpaceOnUse" color-interpolation-filters="sRGB">
<feFlood flood-opacity="0" result="BackgroundImageFix"/>
<feBlend mode="normal" in="SourceGraphic" in2="BackgroundImageFix" result="shape"/>
<feColorMatrix in="SourceAlpha" type="matrix" values="0 0 0 0 0 0 0 0 0 0 0 0 0 0 0 0 0 0 127 0" result="hardAlpha"/>
<feOffset/>
<feGaussianBlur stdDeviation="17"/>
<feComposite in2="hardAlpha" operator="arithmetic" k2="-1" k3="1"/>
<feColorMatrix type="matrix" values="0 0 0 0 0.290196 0 0 0 0 0.662745 0 0 0 0 0.337255 0 0 0 0.5 0"/>
<feBlend mode="normal" in2="shape" result="effect1_innerShadow_1450_5102"/>
</filter>
<filter id="filter1_i_1450_5102" x="-76.406" y="-2.5918" width="85.0486" height="97.6172" filterUnits="userSpaceOnUse" color-interpolation-filters="sRGB">
<feFlood flood-opacity="0" result="BackgroundImageFix"/>
<feBlend mode="normal" in="SourceGraphic" in2="BackgroundImageFix" result="shape"/>
<feColorMatrix in="SourceAlpha" type="matrix" values="0 0 0 0 0 0 0 0 0 0 0 0 0 0 0 0 0 0 127 0" result="hardAlpha"/>
<feOffset/>
<feGaussianBlur stdDeviation="17"/>
<feComposite in2="hardAlpha" operator="arithmetic" k2="-1" k3="1"/>
<feColorMatrix type="matrix" values="0 0 0 0 0.164706 0 0 0 0 0.772549 0 0 0 0 0.454902 0 0 0 0.5 0"/>
<feBlend mode="normal" in2="shape" result="effect1_innerShadow_1450_5102"/>
</filter>
<linearGradient id="paint0_linear_1450_5102" x1="56.6721" y1="87.5762" x2="75.8525" y2="119.639" gradientUnits="userSpaceOnUse">
<stop stop-color="#008D43"/>
<stop offset="1" stop-color="#90FF87"/>
</linearGradient>
<linearGradient id="paint1_linear_1450_5102" x1="38.0514" y1="76.1875" x2="43.7534" y2="104.344" gradientUnits="userSpaceOnUse">
<stop stop-color="#008D43"/>
<stop offset="1" stop-color="#90FF87"/>
</linearGradient>
<linearGradient id="paint2_linear_1450_5102" x1="37.5051" y1="87.6152" x2="56.9033" y2="119.876" gradientUnits="userSpaceOnUse">
<stop stop-color="#008D43"/>
<stop offset="1" stop-color="#90FF87"/>
</linearGradient>
<linearGradient id="paint3_linear_1450_5102" x1="-33.0598" y1="22.498" x2="9.85443" y2="93.7071" gradientUnits="userSpaceOnUse">
<stop stop-color="#008D43"/>
<stop offset="1" stop-color="#90FF87"/>
</linearGradient>
<linearGradient id="paint4_linear_1450_5102" x1="-73.9342" y1="-2.24805" x2="-61.0739" y2="60.3935" gradientUnits="userSpaceOnUse">
<stop stop-color="#008D43"/>
<stop offset="1" stop-color="#90FF87"/>
</linearGradient>
</defs>
</svg>
