<svg width="359" height="78" viewBox="0 0 359 78" fill="none" xmlns="http://www.w3.org/2000/svg">
<g filter="url(#filter0_i_1450_4312)">
<path d="M231.153 114.695L230.879 63.4316L185.844 88.5333L185.875 139.91L231.153 114.695Z" fill="url(#paint0_linear_1450_4312)"/>
<path d="M141.217 63.4153L185.936 37.1719L230.665 63.3132L186.231 88.6047L141.217 63.4153Z" fill="url(#paint1_linear_1450_4312)"/>
<path d="M186.017 88.4803L141.319 63.5176L141.105 114.438L185.753 139.906L186.017 88.4803Z" fill="url(#paint2_linear_1450_4312)"/>
<path fill-rule="evenodd" clip-rule="evenodd" d="M186.251 36.9551L185.997 36.8066L185.743 36.9551L140.871 63.0264L140.617 63.1735V63.4663V114.678V114.976L140.871 115.122L185.753 140.261L185.997 140.401L186.251 140.261L231.123 115.122L231.377 114.976V114.678V63.4663V63.1735L231.123 63.0264L186.251 36.9551ZM141.634 114.379V64.3347L185.478 88.8993L185.254 138.817L141.634 114.379ZM186.272 139.083L230.36 114.379V64.3347L186.496 88.9099L186.272 139.083ZM185.997 88.0232L229.841 63.4583L185.997 37.9836L142.153 63.4583L185.997 88.0232Z" fill="#2AC574"/>
</g>
<path d="M244.587 122.572L244.455 55.5059L185.844 88.5309L185.926 155.419L244.587 122.572Z" fill="#0DEDAB" fill-opacity="0.29"/>
<path d="M126.837 55.4379L185.753 21.0332L244.486 55.3731L186.017 88.4781L126.837 55.4379Z" fill="#0DEDAB" fill-opacity="0.29"/>
<path d="M185.987 89.0384L126.837 55.4355L126.969 122.501L185.692 155.323L185.987 89.0384Z" fill="#0DEDAB" fill-opacity="0.29"/>
<path fill-rule="evenodd" clip-rule="evenodd" d="M186.221 20.2189L185.712 19.9219L185.203 20.2189L126.328 54.4226L125.819 54.717V55.3027V122.489V123.085L126.348 123.376L185.213 156.359L185.712 156.638L186.211 156.359L245.086 123.376L245.605 123.085V122.489V55.3027V54.717L245.096 54.4226L186.221 20.2189ZM127.854 121.893V57.0394L184.684 88.8776L184.806 153.796L127.854 121.893ZM186.842 153.672L243.57 121.893V57.0394L186.72 88.8848L186.842 153.672ZM185.712 87.1183L242.532 55.2866L185.712 22.2759L128.893 55.2866L185.712 87.1183Z" fill="#B8FFFB" fill-opacity="0.2"/>
<g filter="url(#filter1_i_1450_4312)">
<path d="M354.247 51.7547V36.2344L341.159 43.6841V59.2044L354.247 51.7547Z" fill="url(#paint3_linear_1450_4312)"/>
<path d="M327.44 36.2231L340.844 28.4629L354.247 36.2231L340.844 43.6728L327.44 36.2231Z" fill="url(#paint4_linear_1450_4312)"/>
<path d="M340.844 43.9888L327.44 36.5391L327.135 51.7489L340.844 59.1988V43.9888Z" fill="url(#paint5_linear_1450_4312)"/>
<path fill-rule="evenodd" clip-rule="evenodd" d="M341.098 27.7657L340.844 27.6172L340.589 27.7657L326.881 35.7325L326.626 35.8795V36.1724V51.8213V52.1195L326.881 52.2653L340.599 59.9476L340.844 60.0869L341.098 59.9476L354.807 52.2653L355.071 52.1195V51.8213V36.1724V35.8795L354.817 35.7325L341.098 27.7657ZM327.644 51.5231V37.0408L340.335 44.152V58.6344L327.644 51.5231ZM341.353 58.636L354.054 51.5231V37.0408L341.353 44.1537V58.636ZM340.844 43.2713L353.535 36.1644L340.844 28.7942L328.163 36.1644L340.844 43.2713Z" fill="#40F9CB"/>
</g>
<path fill-rule="evenodd" clip-rule="evenodd" d="M340.884 23.0079L340.762 22.9336L340.63 23.0079L322.647 33.4597L322.515 33.5333V33.6796V54.2101V54.3592L322.647 54.432L340.64 64.5106L340.762 64.5803L340.884 64.5106L358.878 54.432L359 54.3592V54.2101V33.6796V33.5333L358.878 33.4597L340.884 23.0079ZM323.023 54.061V34.1139L340.498 43.903V63.8501L323.023 54.061ZM340.62 63.9184L340.762 63.997L340.905 63.9184H340.62ZM341.007 63.8588L358.491 54.061V34.1139L341.007 43.9117V63.8588ZM340.762 43.4666L358.237 33.6757L340.762 23.5221L323.288 33.6757L340.762 43.4666Z" fill="#C2C5CD" fill-opacity="0.8"/>
<path fill-rule="evenodd" clip-rule="evenodd" d="M282.335 0.543018L282.08 0.394531L281.826 0.543018L255.192 16.0137L254.938 16.1609V16.4537V46.8427V47.1409L255.202 47.2866L281.826 62.2048L282.08 62.3442L282.325 62.2048L308.958 47.2866L309.213 47.1409V46.8427V16.4537V16.1609L308.958 16.0137L282.335 0.543018ZM255.955 46.5445V17.3221L281.561 31.6671L281.419 60.8095L255.955 46.5445ZM282.436 60.976L308.195 46.5445V17.3221L282.579 31.6731L282.436 60.976ZM282.08 30.7886L307.676 16.4457L282.08 1.57153L256.474 16.4457L282.08 30.7886Z" fill="#C2C5CD" fill-opacity="0.8"/>
<path d="M332.58 48.2227L281.958 76.6628" stroke="#C2C5CD" stroke-opacity="0.8" stroke-linecap="round"/>
<path d="M86.3213 61.5898L86.5248 126.326" stroke="#C2C5CD" stroke-opacity="0.8" stroke-linecap="round"/>
<path fill-rule="evenodd" clip-rule="evenodd" d="M86.6062 0.148588L86.3518 0L86.0974 0.148588L59.4737 15.6193L59.2192 15.7664V16.0593V46.4483V46.7465L59.4737 46.8922L86.1075 61.8104L86.3518 61.9497L86.6062 61.8104L113.23 46.8922L113.494 46.7465V46.4483V16.0593V15.7664L113.24 15.6193L86.6062 0.148588ZM60.237 46.1501V16.9277L86.0464 31.3861V60.6085L60.237 46.1501ZM87.0641 60.3877L112.477 46.1501V16.9277L87.0641 31.1653V60.3877ZM86.3518 30.3942L111.958 16.0513L86.3518 1.1771L60.756 16.0513L86.3518 30.3942Z" fill="#C2C5CD" fill-opacity="0.8"/>
<path d="M281.938 61.459V125.403" stroke="#C2C5CD" stroke-opacity="0.8" stroke-linecap="round"/>
<defs>
<filter id="filter0_i_1450_4312" x="140.617" y="36.8066" width="90.7606" height="103.594" filterUnits="userSpaceOnUse" color-interpolation-filters="sRGB">
<feFlood flood-opacity="0" result="BackgroundImageFix"/>
<feBlend mode="normal" in="SourceGraphic" in2="BackgroundImageFix" result="shape"/>
<feColorMatrix in="SourceAlpha" type="matrix" values="0 0 0 0 0 0 0 0 0 0 0 0 0 0 0 0 0 0 127 0" result="hardAlpha"/>
<feOffset/>
<feGaussianBlur stdDeviation="17"/>
<feComposite in2="hardAlpha" operator="arithmetic" k2="-1" k3="1"/>
<feColorMatrix type="matrix" values="0 0 0 0 0.164706 0 0 0 0 0.772549 0 0 0 0 0.454902 0 0 0 0.5 0"/>
<feBlend mode="normal" in2="shape" result="effect1_innerShadow_1450_4312"/>
</filter>
<filter id="filter1_i_1450_4312" x="326.626" y="27.6172" width="28.4453" height="32.4688" filterUnits="userSpaceOnUse" color-interpolation-filters="sRGB">
<feFlood flood-opacity="0" result="BackgroundImageFix"/>
<feBlend mode="normal" in="SourceGraphic" in2="BackgroundImageFix" result="shape"/>
<feColorMatrix in="SourceAlpha" type="matrix" values="0 0 0 0 0 0 0 0 0 0 0 0 0 0 0 0 0 0 127 0" result="hardAlpha"/>
<feOffset/>
<feGaussianBlur stdDeviation="17"/>
<feComposite in2="hardAlpha" operator="arithmetic" k2="-1" k3="1"/>
<feColorMatrix type="matrix" values="0 0 0 0 0.164706 0 0 0 0 0.772549 0 0 0 0 0.454902 0 0 0 0.4 0"/>
<feBlend mode="normal" in2="shape" result="effect1_innerShadow_1450_4312"/>
</filter>
<linearGradient id="paint0_linear_1450_4312" x1="186.872" y1="63.4316" x2="232.293" y2="139.226" gradientUnits="userSpaceOnUse">
<stop stop-color="#08532C"/>
<stop offset="1" stop-color="#90FF87"/>
</linearGradient>
<linearGradient id="paint1_linear_1450_4312" x1="143.253" y1="37.1719" x2="156.829" y2="103.678" gradientUnits="userSpaceOnUse">
<stop stop-color="#008D43"/>
<stop offset="1" stop-color="#90FF87"/>
</linearGradient>
<linearGradient id="paint2_linear_1450_4312" x1="142.133" y1="63.5176" x2="187.666" y2="138.911" gradientUnits="userSpaceOnUse">
<stop stop-color="#05AD55"/>
<stop offset="1" stop-color="#90FF87"/>
</linearGradient>
<linearGradient id="paint3_linear_1450_4312" x1="341.454" y1="36.2344" x2="355.336" y2="58.5227" gradientUnits="userSpaceOnUse">
<stop stop-color="#20978D"/>
<stop offset="1" stop-color="#79F2BB"/>
</linearGradient>
<linearGradient id="paint4_linear_1450_4312" x1="328.051" y1="28.4629" x2="332.02" y2="48.151" gradientUnits="userSpaceOnUse">
<stop stop-color="#20978D"/>
<stop offset="1" stop-color="#79F2BB"/>
</linearGradient>
<linearGradient id="paint5_linear_1450_4312" x1="327.44" y1="36.5391" x2="340.762" y2="59.2456" gradientUnits="userSpaceOnUse">
<stop stop-color="#20978D"/>
<stop offset="1" stop-color="#79F2BB"/>
</linearGradient>
</defs>
</svg>
