<svg width="528" height="90" viewBox="0 0 528 90" fill="none" xmlns="http://www.w3.org/2000/svg">
<path fill-rule="evenodd" clip-rule="evenodd" d="M351.66 -70.1982L351.514 -70.2832L351.369 -70.1982L320.893 -52.4508L320.748 -52.367V-52.1994V-17.339V-17.1679L320.897 -17.0852L351.372 0.0289536L351.514 0.108093L351.656 0.0289536L382.133 -17.0852L382.28 -17.1679V-17.339V-52.1994V-52.367L382.136 -52.4508L351.66 -70.1982ZM321.329 -17.5089V-51.7035L351.221 -34.9164L351.318 -0.669449L321.329 -17.5089ZM351.898 -0.774208L381.7 -17.5089V-51.7035L351.802 -34.9141L351.898 -0.774208ZM351.514 -35.4193L381.405 -52.2041L351.514 -69.6104L321.625 -52.2041L351.514 -35.4193Z" fill="#C2C5CD" fill-opacity="0.8"/>
<path d="M270.285 10.3137L334.724 -28.9629" stroke="#C2C5CD" stroke-opacity="0.8" stroke-linecap="square"/>
<g filter="url(#filter0_i_1450_4338)">
<path d="M151.895 106.542L151.799 80.1387L128.439 92.9671L128.537 119.369L151.895 106.542Z" fill="url(#paint0_linear_1450_4338)"/>
<path d="M105.339 79.936L128.488 66.3184L151.55 79.9988L128.515 92.7015L105.339 79.936Z" fill="url(#paint1_linear_1450_4338)"/>
<path d="M128.51 93.2265L105.19 80.1816L105.279 106.404L128.39 119.619L128.51 93.2265Z" fill="url(#paint2_linear_1450_4338)"/>
<path fill-rule="evenodd" clip-rule="evenodd" d="M128.806 65.9305L128.515 65.7617L128.223 65.9305L104.993 79.4584L104.704 79.6272V79.9624V106.534V106.875L105.001 107.042L128.23 120.086L128.515 120.246L128.798 120.086L152.028 107.042L152.325 106.875V106.534V79.9624V79.6272L152.036 79.4584L128.806 65.9305ZM105.865 106.193V80.9553L127.93 93.3448L127.816 118.519L105.865 106.193ZM128.976 118.652L151.164 106.193V80.9553L129.091 93.3495L128.976 118.652ZM128.515 92.3392L150.572 79.9531L128.515 67.1073L106.456 79.9531L128.515 92.3392Z" fill="#2AC574"/>
</g>
<path fill-rule="evenodd" clip-rule="evenodd" d="M128.514 57.7315L128.367 57.6465L128.222 57.7315L97.7465 75.4788L97.6013 75.5627V75.7303V110.591V110.762L97.75 110.846L128.226 127.959L128.367 128.038L128.509 127.959L158.985 110.846L159.133 110.762V110.591V75.7303V75.5627L158.989 75.4788L128.514 57.7315ZM98.182 110.421V76.2273L128.075 93.0133L128.136 127.242L98.182 110.421ZM128.717 127.175L158.553 110.421V76.2273L128.655 93.0156L128.717 127.175ZM128.367 92.5104L158.258 75.7256L128.367 58.3193L98.4781 75.7256L128.367 92.5104Z" fill="#C2C5CD" fill-opacity="0.8"/>
<path d="M127.301 78.2594C127.304 78.9019 127.825 79.4211 128.467 79.4187C129.108 79.4176 129.626 78.8938 129.624 78.2513L127.301 78.2594ZM127.042 -1.20866L127.301 78.2594L129.624 78.2513L129.365 -1.2168L127.042 -1.20866Z" fill="#C2C5CD" fill-opacity="0.8"/>
<path d="M184.108 124.881L184.148 60.5137" stroke="#C2C5CD" stroke-opacity="0.8" stroke-linecap="round"/>
<path d="M128.135 30.0977L71.3447 62.2646" stroke="#C2C5CD" stroke-opacity="0.8"/>
<path fill-rule="evenodd" clip-rule="evenodd" d="M240.228 -7.96678L239.936 -8.13672L239.645 -7.96678L209.259 9.72706L208.97 9.89587V10.2311V44.9879V45.329L209.268 45.4954L239.652 62.5572L239.936 62.7167L240.219 62.5572L270.605 45.4954L270.901 45.329V44.9879V10.2311V9.89587L270.612 9.72706L240.228 -7.96678ZM210.132 44.6469V11.224L239.35 27.6305V61.0533L210.132 44.6469ZM240.511 61.0603L269.739 44.6469V11.224L240.511 27.6375V61.0603ZM239.936 26.6259L269.148 10.2218L239.936 -6.79L210.723 10.2218L239.936 26.6259Z" fill="#C2C5CD" fill-opacity="0.8"/>
<path fill-rule="evenodd" clip-rule="evenodd" d="M295.806 49.7637L295.514 49.5938L295.222 49.7637L274.695 61.7179L274.406 61.8855V62.2207V85.702V86.043L274.703 86.2095L295.23 97.7365L295.514 97.896L295.798 97.7365L316.325 86.2095L316.622 86.043V85.702V62.2207V61.8855L316.333 61.7179L295.806 49.7637ZM275.567 85.3609V63.2136L294.923 74.083V96.2303L275.567 85.3609ZM296.084 96.2408L315.461 85.3609V63.2136L296.084 74.0946V96.2408ZM295.514 73.0808L314.869 62.2114L295.514 50.9393L276.158 62.2114L295.514 73.0808Z" fill="#C2C5CD" fill-opacity="0.8"/>
<g filter="url(#filter1_i_1450_4338)">
<path d="M164.462 31.7822L166.705 23.668L158.415 25.7213L156.269 33.9333L164.462 31.7822Z" fill="url(#paint3_linear_1450_4338)"/>
<path d="M152.467 19.7808L160.634 17.5762L166.608 23.5788L158.484 25.6193L152.467 19.7808Z" fill="url(#paint4_linear_1450_4338)"/>
<path d="M158.446 25.7853L152.271 19.7559L150.114 27.9457L156.295 33.8285L158.446 25.7853Z" fill="url(#paint5_linear_1450_4338)"/>
<path fill-rule="evenodd" clip-rule="evenodd" d="M161.088 17.0347L160.85 16.7949L160.525 16.8834L152.163 19.1532L151.841 19.2416L151.755 19.5641L149.542 27.8401L149.454 28.1695L149.698 28.4081L155.847 34.4143L156.079 34.6413L156.395 34.561L164.716 32.4413L165.046 32.3575L165.134 32.0281L167.346 23.7521L167.432 23.4285L167.196 23.1911L161.088 17.0347ZM150.752 27.8121L152.62 20.8247L157.814 25.8985L155.946 32.886L150.752 27.8121ZM157.068 33.1886L164.1 31.3972L165.968 24.4098L158.935 26.2012L157.068 33.1886ZM158.636 25.0767L165.655 23.2889L160.503 18.0951L153.449 20.0099L158.636 25.0767Z" fill="#20B18D"/>
</g>
<path fill-rule="evenodd" clip-rule="evenodd" d="M161.535 14.5945L161.416 14.4746L161.253 14.5188L150.283 17.4963L150.122 17.5406L150.079 17.7024L147.177 28.5601L147.133 28.7242L147.255 28.8441L155.321 36.7231L155.437 36.836L155.595 36.7964L166.512 34.0156L166.677 33.9738L166.72 33.8085L169.624 22.952L169.666 22.7902L169.549 22.6714L161.535 14.5945ZM147.782 28.5461L150.512 18.3332L158.101 25.7467L155.371 35.9595L147.782 28.5461ZM155.932 36.1097L166.204 33.493L168.934 23.2802L158.662 25.8969L155.932 36.1097ZM158.512 25.3346L168.778 22.7192L161.241 15.1241L150.927 17.9258L158.512 25.3346Z" fill="#C2C5CD" fill-opacity="0.8"/>
<g filter="url(#filter2_i_1450_4338)">
<path d="M43.256 4.9836L39.1179 -2.34375L34.7041 4.9836L38.98 12.3109L43.256 4.9836Z" fill="url(#paint6_linear_1450_4338)"/>
<path d="M26.3079 4.99554L30.528 -2.35156L38.9868 -2.34108L34.682 4.85939L26.3079 4.99554Z" fill="url(#paint7_linear_1450_4338)"/>
<path d="M34.7684 5.00977L26.1492 5.12266L30.4009 12.4431L38.9224 12.2207L34.7684 5.00977Z" fill="url(#paint8_linear_1450_4338)"/>
<path fill-rule="evenodd" clip-rule="evenodd" d="M30.4566 -3.05937L30.1193 -3.06055L29.9515 -2.7672L25.6407 4.76385L25.4744 5.05485L25.6415 5.34468L29.9155 12.7652L30.0856 13.0596L30.4258 13.0562L39.0105 12.9444L39.3358 12.9397L39.5021 12.6604L43.8906 5.26319L44.0645 4.97102L43.8944 4.67536L39.6204 -2.74511L39.4533 -3.03494L39.1191 -3.03611L30.4566 -3.05937ZM30.751 11.8875L27.1426 5.62285L34.4003 5.52858L38.0088 11.7932L30.751 11.8875ZM39.0125 11.2077L42.7185 4.96171L39.1101 -1.3029L35.4041 4.9431L39.0125 11.2077ZM34.3963 4.36458L38.0983 -1.87442L30.7909 -1.89421L27.1544 4.45886L34.3963 4.36458Z" fill="#20B18D"/>
</g>
<path fill-rule="evenodd" clip-rule="evenodd" d="M29.0613 -5.09847L28.8925 -5.09961L28.8086 -4.95297L23.1532 4.92819L23.0701 5.07251L23.1536 5.21801L28.7607 14.9525L28.8457 15.1003L29.0159 15.098L40.2785 14.9525L40.4411 14.9502L40.5243 14.8093L46.2817 5.10626L46.3687 4.95962L46.2836 4.81178L40.6764 -4.92271L40.5929 -5.06704L40.4258 -5.06821L29.0613 -5.09847ZM29.1786 14.5137L23.9041 5.35655L34.5024 5.21919L39.7767 14.3763L29.1786 14.5137ZM40.2791 14.0842L45.6957 4.95497L40.4213 -4.20104L35.0046 4.92819L40.2791 14.0842ZM34.5012 4.63719L39.9154 -4.48735L29.2284 -4.51648L23.91 4.77455L34.5012 4.63719Z" fill="#C2C5CD" fill-opacity="0.8"/>
<path fill-rule="evenodd" clip-rule="evenodd" d="M51.139 49.7559L50.8473 49.5859L50.5556 49.7559L30.0283 61.7101L29.7393 61.8777V62.2129V85.6941V86.0352L30.0362 86.2017L50.5635 97.7287L50.8473 97.8881L51.1312 97.7287L71.6582 86.2017L71.9555 86.0352V85.6941V62.2129V61.8777L71.6664 61.7101L51.139 49.7559ZM30.9005 85.3531V63.2058L50.2584 74.0764L50.3418 96.2702L30.9005 85.3531ZM51.5028 96.1864L70.7942 85.3531V63.2058L51.4197 74.0857L51.5028 96.1864ZM50.8473 73.073L70.2031 62.2036L50.8473 50.9327L31.4915 62.2036L50.8473 73.073Z" fill="#C2C5CD" fill-opacity="0.8"/>
<path d="M158.452 75.6548L223.056 37.0742" stroke="#C2C5CD" stroke-opacity="0.8" stroke-linecap="round"/>
<path d="M295.186 59.8271V-5.22852" stroke="#C2C5CD" stroke-opacity="0.8" stroke-linecap="round"/>
<defs>
<filter id="filter0_i_1450_4338" x="104.704" y="65.7617" width="47.6211" height="54.4844" filterUnits="userSpaceOnUse" color-interpolation-filters="sRGB">
<feFlood flood-opacity="0" result="BackgroundImageFix"/>
<feBlend mode="normal" in="SourceGraphic" in2="BackgroundImageFix" result="shape"/>
<feColorMatrix in="SourceAlpha" type="matrix" values="0 0 0 0 0 0 0 0 0 0 0 0 0 0 0 0 0 0 127 0" result="hardAlpha"/>
<feOffset/>
<feGaussianBlur stdDeviation="17"/>
<feComposite in2="hardAlpha" operator="arithmetic" k2="-1" k3="1"/>
<feColorMatrix type="matrix" values="0 0 0 0 0.164706 0 0 0 0 0.772549 0 0 0 0 0.454902 0 0 0 0.5 0"/>
<feBlend mode="normal" in2="shape" result="effect1_innerShadow_1450_4338"/>
</filter>
<filter id="filter1_i_1450_4338" x="149.454" y="16.7949" width="17.978" height="17.8457" filterUnits="userSpaceOnUse" color-interpolation-filters="sRGB">
<feFlood flood-opacity="0" result="BackgroundImageFix"/>
<feBlend mode="normal" in="SourceGraphic" in2="BackgroundImageFix" result="shape"/>
<feColorMatrix in="SourceAlpha" type="matrix" values="0 0 0 0 0 0 0 0 0 0 0 0 0 0 0 0 0 0 127 0" result="hardAlpha"/>
<feOffset/>
<feGaussianBlur stdDeviation="17"/>
<feComposite in2="hardAlpha" operator="arithmetic" k2="-1" k3="1"/>
<feColorMatrix type="matrix" values="0 0 0 0 0.290196 0 0 0 0 0.662745 0 0 0 0 0.337255 0 0 0 1 0"/>
<feBlend mode="normal" in2="shape" result="effect1_innerShadow_1450_4338"/>
</filter>
<filter id="filter2_i_1450_4338" x="25.4744" y="-3.06055" width="18.5901" height="16.1211" filterUnits="userSpaceOnUse" color-interpolation-filters="sRGB">
<feFlood flood-opacity="0" result="BackgroundImageFix"/>
<feBlend mode="normal" in="SourceGraphic" in2="BackgroundImageFix" result="shape"/>
<feColorMatrix in="SourceAlpha" type="matrix" values="0 0 0 0 0 0 0 0 0 0 0 0 0 0 0 0 0 0 127 0" result="hardAlpha"/>
<feOffset/>
<feGaussianBlur stdDeviation="17"/>
<feComposite in2="hardAlpha" operator="arithmetic" k2="-1" k3="1"/>
<feColorMatrix type="matrix" values="0 0 0 0 0.290196 0 0 0 0 0.662745 0 0 0 0 0.337255 0 0 0 1 0"/>
<feBlend mode="normal" in2="shape" result="effect1_innerShadow_1450_4338"/>
</filter>
<linearGradient id="paint0_linear_1450_4338" x1="128.972" y1="80.1387" x2="152.171" y2="119.205" gradientUnits="userSpaceOnUse">
<stop stop-color="#008D43"/>
<stop offset="1" stop-color="#90FF87"/>
</linearGradient>
<linearGradient id="paint1_linear_1450_4338" x1="106.39" y1="66.3184" x2="113.309" y2="100.453" gradientUnits="userSpaceOnUse">
<stop stop-color="#008D43"/>
<stop offset="1" stop-color="#90FF87"/>
</linearGradient>
<linearGradient id="paint2_linear_1450_4338" x1="105.721" y1="80.1816" x2="129.164" y2="119.226" gradientUnits="userSpaceOnUse">
<stop stop-color="#008D43"/>
<stop offset="1" stop-color="#90FF87"/>
</linearGradient>
<linearGradient id="paint3_linear_1450_4338" x1="159.646" y1="21.7718" x2="163.646" y2="35.8036" gradientUnits="userSpaceOnUse">
<stop stop-color="#00e28e"/>
<stop offset="1" stop-color="#20B18D"/>
</linearGradient>
<linearGradient id="paint4_linear_1450_4338" x1="153.884" y1="15.7627" x2="153.191" y2="26.7365" gradientUnits="userSpaceOnUse">
<stop stop-color="#00e28e"/>
<stop offset="1" stop-color="#20B18D"/>
</linearGradient>
<linearGradient id="paint5_linear_1450_4338" x1="152.436" y1="19.8001" x2="156.354" y2="33.8122" gradientUnits="userSpaceOnUse">
<stop stop-color="#00e28e"/>
<stop offset="1" stop-color="#20B18D"/>
</linearGradient>
<linearGradient id="paint6_linear_1450_4338" x1="32.7894" y1="1.31818" x2="45.5212" y2="8.3957" gradientUnits="userSpaceOnUse">
<stop stop-color="#00e28e"/>
<stop offset="1" stop-color="#20B18D"/>
</linearGradient>
<linearGradient id="paint7_linear_1450_4338" x1="24.4766" y1="1.14972" x2="31.7491" y2="9.38217" gradientUnits="userSpaceOnUse">
<stop stop-color="#00e28e"/>
<stop offset="1" stop-color="#20B18D"/>
</linearGradient>
<linearGradient id="paint8_linear_1450_4338" x1="26.2972" y1="5.03654" x2="38.9575" y2="12.1583" gradientUnits="userSpaceOnUse">
<stop stop-color="#00e28e"/>
<stop offset="1" stop-color="#20B18D"/>
</linearGradient>
</defs>
</svg>
