<svg width="26" height="25" viewBox="0 0 26 25" fill="none" xmlns="http://www.w3.org/2000/svg">
<path fill-rule="evenodd" clip-rule="evenodd" d="M11.7559 0.257619C12.3838 -0.0858894 13.166 -0.0858569 13.7939 0.257619C15.4514 1.16439 19.0323 2.7852 23.8066 3.02813C24.7609 3.07669 25.5498 3.83823 25.5498 4.79375V14.658C25.5495 17.2516 24.0769 19.6209 21.751 20.7684L13.5283 24.824C13.1128 25.0289 12.6344 25.0549 12.2031 24.9012L12.0215 24.824L3.7998 20.7684C1.54628 19.6566 0.0935038 17.4012 0.00488281 14.9031L0 14.6609L0.000976562 4.7918C0.000858374 3.89555 0.694044 3.17282 1.56738 3.04571L1.74414 3.02813C6.51784 2.78496 10.0985 1.16431 11.7559 0.257619ZM13.0586 1.60332C12.8891 1.51057 12.6618 1.51064 12.4922 1.60332C10.7052 2.58093 6.89704 4.30088 1.82227 4.55938C1.72851 4.56425 1.64808 4.6039 1.5957 4.65606C1.54777 4.70407 1.5332 4.75015 1.5332 4.7918C1.53352 7.21256 1.53345 11.459 1.5332 14.6609C1.53335 16.6702 2.67415 18.5036 4.47754 19.3934L12.6992 23.45C12.7466 23.4733 12.8032 23.4733 12.8506 23.45L21.0723 19.3934C22.8749 18.5041 24.0163 16.6679 24.0166 14.658V4.79375C24.0166 4.75177 24.002 4.70508 23.9531 4.65606C23.9002 4.60323 23.8209 4.56415 23.7295 4.55938C18.6543 4.3012 14.846 2.58109 13.0586 1.60332ZM17.7432 7.77813C17.9636 7.4169 18.4355 7.30197 18.7969 7.52227C19.1582 7.74262 19.2719 8.21461 19.0518 8.57598L14.1543 16.6102C13.5311 17.6318 12.0989 17.7648 11.2979 16.8758L7.60645 12.7772C7.32346 12.4626 7.34962 11.9783 7.66406 11.6951C7.97862 11.412 8.46285 11.4373 8.74609 11.7518L12.4365 15.8494C12.5508 15.9763 12.7555 15.9577 12.8447 15.8123L17.7432 7.77813Z" fill="white"/>
</svg>
