<svg width="24" height="25" viewBox="0 0 24 25" fill="none" xmlns="http://www.w3.org/2000/svg">
<path fill-rule="evenodd" clip-rule="evenodd" d="M10.8711 5.36496C10.5826 5.02382 10.0717 4.98088 9.73047 5.26925L7.19824 7.41183C6.3069 8.16573 6.30626 9.53934 7.19727 10.2937L9.73047 12.4382C10.0714 12.7267 10.5814 12.6843 10.8701 12.3435C11.1588 12.0025 11.1164 11.4916 10.7754 11.2028L9.12891 9.80929H18.0967C20.3578 9.80947 22.1903 11.6419 22.1904 13.903V19.0964C22.1902 21.3575 20.3578 23.19 18.0967 23.1902H13.5068C13.0601 23.1903 12.6982 23.553 12.6982 23.9997C12.6983 24.4465 13.0601 24.8091 13.5068 24.8093H18.0967C21.2515 24.8091 23.8094 22.2512 23.8096 19.0964V13.903C23.8094 10.7482 21.2515 8.19033 18.0967 8.19015H8.7832L10.7754 6.50558C11.1165 6.21711 11.1594 5.70615 10.8711 5.36496ZM6.36035 23.1902C5.9135 23.1902 5.55078 23.5529 5.55078 23.9997C5.5508 24.4466 5.91351 24.8093 6.36035 24.8093H10.3799C10.8267 24.8093 11.1894 24.4466 11.1895 23.9997C11.1895 23.5529 10.8267 23.1902 10.3799 23.1902H6.36035ZM1 23.1902C0.553148 23.1902 0.19043 23.5529 0.19043 23.9997C0.190712 24.4463 0.553322 24.8083 1 24.8083H3.2334C3.68008 24.8083 4.04269 24.4463 4.04297 23.9997C4.04297 23.5529 3.68025 23.1902 3.2334 23.1902H1ZM10.9424 0.516325C10.0767 -0.149405 8.77636 -0.180165 7.88477 0.475309C6.78851 1.28147 4.78842 2.41285 2.00781 2.61984C0.9512 2.6986 0.00548172 3.55125 0.00488281 4.71164C0.00425339 6.83693 0.00201607 8.91924 0 10.5212C-0.00255585 12.6462 1.17332 14.5964 3.05371 15.5857L8.45605 18.4275C9.06557 18.7479 9.79652 18.7384 10.3975 18.4021L16.4297 15.0261C16.9491 14.7354 17.4134 14.1634 17.7314 13.6374C18.0078 13.1803 18.2699 12.5993 18.3311 12.0525L18.3447 11.82C18.3445 11.3734 17.9818 11.0115 17.5352 11.0114C17.0883 11.0115 16.7256 11.3742 16.7256 11.821C16.7252 11.9881 16.611 12.3634 16.3467 12.8005C16.0841 13.2347 15.7982 13.5252 15.6396 13.614L9.60645 16.99C9.48345 17.0586 9.3337 17.0604 9.20898 16.9948L3.80762 14.153C2.45951 13.4439 1.61654 12.0471 1.61816 10.5241C1.62018 8.92181 1.62242 6.83877 1.62305 4.71261C1.62311 4.49794 1.81326 4.25664 2.12793 4.23312C5.29478 3.99738 7.579 2.70834 8.84277 1.77902C9.14203 1.55895 9.65009 1.56412 9.95605 1.79953C11.1359 2.70723 13.2335 3.92311 16.2334 4.20675C16.5418 4.2361 16.7254 4.47337 16.7256 4.68429V5.88742C16.7259 6.33399 17.0885 6.69601 17.5352 6.69601C17.9818 6.69599 18.3444 6.33397 18.3447 5.88742V4.68429C18.3445 3.54164 17.4247 2.69488 16.3857 2.5964C13.7595 2.3481 11.9435 1.28651 10.9424 0.516325Z" fill="white"/>
</svg>
