<svg width="24" height="25" viewBox="0 0 24 25" fill="none" xmlns="http://www.w3.org/2000/svg">
<path fill-rule="evenodd" clip-rule="evenodd" d="M10.4443 0.370505C11.2955 -0.123487 12.3793 -0.123516 13.2305 0.370505C14.6505 1.19477 17.5372 2.56376 21.3447 2.80117C22.5883 2.87879 23.6747 3.87812 23.6748 5.20547V14.6811C23.6748 17.3224 22.2217 19.7476 19.8945 20.9955L12.9404 24.724C12.2512 25.0934 11.4226 25.0936 10.7334 24.724L3.62012 20.9096C1.391 19.7142 -0.000219257 17.3893 2.59187e-08 14.8598C0.000243744 14.4597 0.324525 14.1352 0.724609 14.1352C1.1247 14.1352 1.44898 14.4597 1.44922 14.8598C1.44905 16.855 2.54718 18.6892 4.30566 19.6322L11.4189 23.4467C11.6803 23.5867 11.9945 23.5868 12.2559 23.4467L19.21 19.7172C21.0668 18.7213 22.2256 16.7874 22.2256 14.6811V5.20547C22.2255 4.7236 21.8161 4.28349 21.2539 4.24843C17.1522 3.99259 14.0461 2.52013 12.5029 1.62441C12.1017 1.39155 11.5731 1.39155 11.1719 1.62441C9.62887 2.52004 6.52315 3.99237 2.42188 4.24843C1.85961 4.28354 1.44937 4.72463 1.44922 5.20742V8.21426C1.4492 8.61452 1.12487 8.93888 0.724609 8.93886C0.324352 8.93884 -1.80938e-05 8.61451 2.59187e-08 8.21426V5.20742C0.000142726 3.88004 1.08665 2.879 2.33105 2.80117C6.13797 2.56351 9.02449 1.19466 10.4443 0.370505ZM9.59961 7.73769C9.86316 7.43649 10.3218 7.40582 10.623 7.66933L13.6572 10.3246C14.4267 10.9983 14.4267 12.1958 13.6572 12.8695L10.623 15.5248C10.3219 15.7881 9.86316 15.7574 9.59961 15.4564C9.33649 15.1553 9.36717 14.6975 9.66797 14.434L12.082 12.3217H0.96582C0.565666 12.3217 0.24137 11.9972 0.241211 11.5971C0.241211 11.1968 0.565568 10.8725 0.96582 10.8725H12.0811L9.66797 8.76113C9.36683 8.49764 9.3363 8.03892 9.59961 7.73769Z" fill="white"/>
</svg>
