<svg width="26" height="25" viewBox="0 0 26 25" fill="none" xmlns="http://www.w3.org/2000/svg">
<path fill-rule="evenodd" clip-rule="evenodd" d="M11.7559 0.257622C12.3838 -0.0858665 13.166 -0.0858813 13.7939 0.257622C15.4514 1.16439 19.0321 2.78522 23.8066 3.02813C24.7609 3.07669 25.5498 3.83823 25.5498 4.79375V14.658L25.5459 14.9002C25.4572 17.3983 24.0043 19.6567 21.751 20.7684L13.5283 24.824C13.1128 25.029 12.6344 25.0548 12.2031 24.9012L12.0215 24.824L3.7998 20.7684C1.54627 19.6566 0.09347 17.4012 0.00488281 14.9031L0 14.6609L0.000976562 4.7918C0.000858373 3.89554 0.694033 3.17281 1.56738 3.04571L1.74414 3.02813C6.51788 2.78496 10.0986 1.16429 11.7559 0.257622ZM13.0576 1.60332C12.888 1.51065 12.6607 1.51058 12.4912 1.60332C10.7041 2.58097 6.8966 4.3009 1.82227 4.55938C1.7285 4.56425 1.64809 4.6039 1.5957 4.65606C1.54788 4.70393 1.5333 4.74928 1.5332 4.79082C1.53352 7.21146 1.53345 11.4588 1.5332 14.6609C1.53331 16.6702 2.67408 18.5036 4.47754 19.3934L12.6992 23.45C12.7466 23.4733 12.8032 23.4733 12.8506 23.45L21.0723 19.3934C22.8749 18.5041 24.0164 16.668 24.0166 14.658V4.79375C24.0166 4.75177 24.002 4.70509 23.9531 4.65606C23.9001 4.60315 23.8201 4.56404 23.7285 4.55938C18.653 4.30112 14.8447 2.58101 13.0576 1.60332ZM7.63379 12.7439C7.93309 12.4448 8.41847 12.4448 8.71777 12.7439C9.01678 13.0433 9.01688 13.5287 8.71777 13.8279L7.98242 14.5633H18.3936C18.8166 14.5636 19.1592 14.9068 19.1592 15.3299C19.159 15.7528 18.8164 16.0961 18.3936 16.0965H7.98242L8.71777 16.8318C9.01677 17.1311 9.01685 17.6166 8.71777 17.9158C8.41853 18.215 7.93313 18.2149 7.63379 17.9158L5.04785 15.3299L7.63379 12.7439ZM16.8311 6.61211C17.1304 6.31278 17.6157 6.31278 17.915 6.61211L20.501 9.19805L17.915 11.784C17.6158 12.083 17.1304 12.0829 16.8311 11.784C16.5318 11.4847 16.5319 10.9993 16.8311 10.7L17.5664 9.96465H7.15332C6.73018 9.96457 6.3869 9.62117 6.38672 9.19805C6.38672 8.77478 6.73007 8.43153 7.15332 8.43145H17.5664L16.8311 7.6961C16.5318 7.39682 16.5319 6.91146 16.8311 6.61211Z" fill="white"/>
</svg>
