<svg width="27" height="25" viewBox="0 0 27 25" fill="none" xmlns="http://www.w3.org/2000/svg">
<path fill-rule="evenodd" clip-rule="evenodd" d="M15.4922 6.85456C16.3578 6.18899 17.6583 6.15826 18.5498 6.81355C19.646 7.61971 21.6461 8.75107 24.4268 8.95808C25.4833 9.03683 26.4289 9.88966 26.4297 11.0499C26.4303 13.1751 26.4326 15.2574 26.4346 16.8594C26.4372 18.9845 25.2613 20.9346 23.3809 21.9239L17.9785 24.7657C17.3689 25.0862 16.6381 25.0767 16.0371 24.7403L10.0049 21.3643C9.48543 21.0735 9.02114 20.5016 8.70312 19.9757C8.42674 19.5185 8.16459 18.9375 8.10352 18.3907L8.08984 18.1583C8.09029 17.7118 8.45286 17.3497 8.89941 17.3497C9.34615 17.3497 9.70883 17.7126 9.70898 18.1593C9.70918 18.3262 9.82357 18.7015 10.0879 19.1387C10.3504 19.5729 10.6363 19.8633 10.7949 19.9522L16.8281 23.3282C16.9512 23.397 17.1008 23.3987 17.2256 23.3331L22.627 20.4913C23.9751 19.7821 24.8181 18.3854 24.8164 16.8624C24.8144 15.26 24.8122 13.177 24.8115 11.0509C24.8113 10.8363 24.6211 10.5949 24.3066 10.5714C21.1397 10.3356 18.8555 9.04658 17.5918 8.11726C17.2926 7.89737 16.7844 7.90252 16.4785 8.13777C15.2987 9.04548 13.2013 10.2613 10.2012 10.545C9.89294 10.5743 9.70939 10.8117 9.70898 11.0225V12.2257C9.70882 12.6724 9.34617 13.0343 8.89941 13.0343C8.45269 13.0342 8.09001 12.6724 8.08984 12.2257V11.0225C8.09022 9.88004 9.0099 9.03308 10.0488 8.93464C12.6752 8.68632 14.4912 7.62476 15.4922 6.85456ZM7.52832 0.555735C8.44933 -0.190625 9.8917 -0.182104 10.8066 0.562571C11.9671 1.50757 14.1148 2.78705 17.2598 2.78718C17.7065 2.78724 18.0693 3.14903 18.0693 3.59577C18.0693 4.04256 17.7065 4.40529 17.2598 4.40534C13.6458 4.40521 11.149 2.92814 9.78516 1.81745C9.45979 1.5527 8.86951 1.55235 8.54785 1.81257C7.31729 2.80982 5.16611 4.11318 2.13086 4.3653C1.80612 4.39232 1.61814 4.63674 1.61816 4.84773C1.61834 6.18872 1.61828 8.31225 1.61816 10.2872C1.61807 12.5486 3.45131 14.3819 5.71289 14.3819H17.4766L15.6592 12.8448C15.3181 12.5564 15.2754 12.0454 15.5635 11.7042C15.852 11.363 16.3629 11.3201 16.7041 11.6085L19.2363 13.751C20.1275 14.505 20.1283 15.8786 19.2373 16.6329L16.7041 18.7774C16.3632 19.0657 15.8531 19.0233 15.5645 18.6827C15.2758 18.3417 15.3184 17.8308 15.6592 17.5421L17.4805 16.0001H5.71289C2.55768 16.0001 -0.000145998 13.4425 1.85723e-08 10.2872C0.000113841 8.31211 0.000176458 6.18855 1.85723e-08 4.84773C-0.000153404 3.68241 0.95026 2.83897 1.99707 2.75202C4.62252 2.53391 6.4741 1.41003 7.52832 0.555735Z" fill="white"/>
</svg>
