<svg width="24" height="25" viewBox="0 0 24 25" fill="none" xmlns="http://www.w3.org/2000/svg">
<path fill-rule="evenodd" clip-rule="evenodd" d="M10.4443 0.370494C11.2955 -0.123508 12.3793 -0.123488 13.2305 0.370494C14.6503 1.19465 17.5368 2.5635 21.3438 2.80116C22.5881 2.87899 23.6746 3.88007 23.6748 5.20741V8.21424C23.6748 8.6145 23.3505 8.93883 22.9502 8.93885C22.5499 8.93887 22.2256 8.61451 22.2256 8.21424V5.20741C22.2254 4.72466 21.8152 4.28352 21.2529 4.24842C17.1517 3.99236 14.0459 2.52003 12.5029 1.6244C12.1017 1.39157 11.5731 1.39156 11.1719 1.6244C9.62861 2.52015 6.52189 3.99265 2.41992 4.24842C1.85805 4.2837 1.44936 4.72376 1.44922 5.20545V14.681C1.44922 16.7874 2.60805 18.7213 4.46484 19.7172L11.4189 23.4467C11.6803 23.5868 11.9945 23.5867 12.2559 23.4467L19.3691 19.6322C21.1276 18.6892 22.2258 16.855 22.2256 14.8598C22.2259 14.4598 22.5501 14.1352 22.9502 14.1351C23.3502 14.1352 23.6745 14.4598 23.6748 14.8598C23.675 17.3893 22.2838 19.7142 20.0547 20.9096L12.9414 24.724C12.2522 25.0936 11.4236 25.0934 10.7344 24.724L3.78027 20.9955C1.4531 19.7475 0 17.3224 0 14.681V5.20545C0.000131507 3.87813 1.08651 2.87875 2.33008 2.80116C6.1376 2.56374 9.02429 1.19476 10.4443 0.370494ZM18.2979 7.7367C18.5614 7.43556 19.0201 7.40487 19.3213 7.66835L22.3555 10.3236C23.1252 10.9972 23.1249 12.1948 22.3555 12.8685L19.3213 15.5238C19.0201 15.7874 18.5614 15.7567 18.2979 15.4555C18.0347 15.1543 18.0652 14.6965 18.3662 14.433L20.7803 12.3207H11.1133C10.713 12.3207 10.3887 11.9963 10.3887 11.5961C10.3889 11.196 10.7131 10.8715 11.1133 10.8715H20.7793L18.3662 8.76014C18.065 8.49658 18.0343 8.03793 18.2979 7.7367Z" fill="white"/>
</svg>
