<svg width="26" height="25" viewBox="0 0 26 25" fill="none" xmlns="http://www.w3.org/2000/svg">
<path fill-rule="evenodd" clip-rule="evenodd" d="M11.7559 0.257622C12.3838 -0.0858665 13.166 -0.0858813 13.7939 0.257622C15.4514 1.16438 19.032 2.78522 23.8066 3.02813C24.7609 3.07668 25.5498 3.83823 25.5498 4.79375V14.658L25.5459 14.9002C25.4573 17.3984 24.0044 19.6567 21.751 20.7684L13.5283 24.824C13.1127 25.029 12.6344 25.0549 12.2031 24.9012L12.0215 24.824L3.7998 20.7684C1.54618 19.6566 0.0933654 17.4013 0.00488281 14.9031L0 14.6609L0.000976562 4.7918C0.000858371 3.89553 0.694013 3.17279 1.56738 3.04571L1.74414 3.02813C6.518 2.78496 10.0986 1.16428 11.7559 0.257622ZM13.0576 1.60332C12.888 1.51065 12.6607 1.51058 12.4912 1.60332C10.7041 2.58096 6.89672 4.30089 1.82227 4.55938C1.72849 4.56425 1.64809 4.6039 1.5957 4.65606C1.54776 4.70398 1.5333 4.74923 1.5332 4.79082C1.53352 7.21141 1.53345 11.4586 1.5332 14.6609C1.5332 16.6704 2.674 18.5036 4.47754 19.3934L12.6992 23.45C12.7467 23.4734 12.8031 23.4734 12.8506 23.45L21.0723 19.3934C22.875 18.504 24.0165 16.6681 24.0166 14.658V4.79375C24.0166 4.75173 24.0022 4.70514 23.9531 4.65606C23.9001 4.60314 23.8201 4.56404 23.7285 4.55938C18.6529 4.30111 14.8447 2.581 13.0576 1.60332ZM15.4746 4.98321C17.1042 4.48836 18.7496 5.70789 18.75 7.41094V8.11211C19.8821 8.36682 20.7283 9.37676 20.7285 10.5857V15.7127C20.7283 17.1138 19.5925 18.2496 18.1914 18.2498H7.28711C5.886 18.2496 4.75022 17.1138 4.75 15.7127V8.24297L5.28223 8.08086L15.4746 4.98321ZM6.25 15.7127C6.25022 16.2854 6.71443 16.7496 7.28711 16.7498H18.1914C18.7641 16.7496 19.2283 16.2854 19.2285 15.7127V10.5857C19.2282 10.0131 18.764 9.54884 18.1914 9.54864H6.25V15.7127ZM17.0156 11.9998C17.5762 12 18.0303 12.4549 18.0303 13.0154C18.0302 13.576 17.5761 14.0309 17.0156 14.0311C16.4549 14.0311 16 13.5761 16 13.0154C16 12.4547 16.4549 11.9998 17.0156 11.9998ZM17.25 7.41094C17.2496 6.71476 16.5764 6.21634 15.9102 6.41875L10.5469 8.04864H17.25V7.41094Z" fill="white"/>
</svg>
