<svg width="20" height="20" viewBox="0 0 20 20" fill="none" xmlns="http://www.w3.org/2000/svg">
<circle cx="10" cy="10" r="10" fill="white"/>
<g clip-path="url(#clip0_562_2294)">
<path d="M10.0032 16C10.3388 16 10.6669 15.9034 10.946 15.7224C11.225 15.5414 11.4425 15.2842 11.571 14.9832C11.6994 14.6823 11.733 14.3511 11.6675 14.0316C11.6021 13.7121 11.4404 13.4186 11.2031 13.1883C10.9658 12.9579 10.6634 12.8011 10.3342 12.7375C10.0051 12.674 9.66386 12.7066 9.35378 12.8312C9.0437 12.9559 8.77867 13.167 8.5922 13.4379C8.40574 13.7087 8.30621 14.0272 8.30621 14.3529C8.30621 14.7898 8.485 15.2087 8.80324 15.5176C9.12149 15.8265 9.55312 16 10.0032 16Z" fill="#1C1C1C"/>
<path d="M11.8444 2H8.15348L3.00317 15.7941H6.12136L10.0032 5.40735L13.8765 15.7941H17.0032L11.8444 2Z" fill="#1C1C1C"/>
</g>
<defs>
<clipPath id="clip0_562_2294">
<rect width="14" height="14" fill="white" transform="translate(3.00317 2)"/>
</clipPath>
</defs>
</svg>
