<svg width="52" height="50" viewBox="0 0 52 50" fill="none" xmlns="http://www.w3.org/2000/svg">
<ellipse cx="26.0908" cy="24.9999" rx="25.4089" ry="24.9999" fill="white"/>
<mask id="mask0_57_2" style="mask-type:luminance" maskUnits="userSpaceOnUse" x="11" y="10" width="30" height="30">
<path d="M41 10H11V40H41V10Z" fill="white"/>
</mask>
<g mask="url(#mask0_57_2)">
<path d="M25.9999 40C26.7191 40 27.4221 39.793 28.0202 39.4051C28.6181 39.0173 29.0841 38.4661 29.3595 37.8211C29.6346 37.1763 29.7066 36.4666 29.5663 35.782C29.4261 35.0973 29.0796 34.4684 28.5711 33.9749C28.0626 33.4812 27.4146 33.1452 26.7092 33.0089C26.004 32.8728 25.2728 32.9427 24.6083 33.2097C23.9439 33.4769 23.3759 33.9293 22.9764 34.5098C22.5768 35.0901 22.3635 35.7726 22.3635 36.4705C22.3635 37.4067 22.7466 38.3043 23.4286 38.9663C24.1106 39.6282 25.0355 40 25.9999 40Z" fill="#1C1C1C"/>
<path d="M29.9455 10H22.0364L11 39.5588H17.6818L26.0001 17.3015L34.3 39.5588H41.0001L29.9455 10Z" fill="#1C1C1C"/>
</g>
</svg>
