<svg width="20" height="20" viewBox="0 0 20 20" fill="none" xmlns="http://www.w3.org/2000/svg">
<circle cx="10" cy="10" r="10" fill="black"/>
<path d="M14.3362 7.35017H12.9269C12.8456 7.35009 12.7652 7.33266 12.6912 7.29905C12.6171 7.26543 12.5511 7.2164 12.4975 7.15524L11.9259 6.50985C11.8836 6.46257 11.8319 6.42474 11.774 6.39885C11.7161 6.37295 11.6534 6.35956 11.59 6.35956C11.5266 6.35956 11.4639 6.37295 11.406 6.39885C11.3481 6.42474 11.2964 6.46257 11.2541 6.50985L10.7642 7.06304C10.6852 7.15305 10.588 7.22522 10.479 7.27473C10.37 7.32424 10.2517 7.34996 10.1319 7.35017H2.41885C2.19647 7.98753 2.05573 8.65049 2 9.32323H9.28108C9.34416 9.32314 9.40657 9.31026 9.46453 9.28536C9.52249 9.26045 9.57479 9.22405 9.61827 9.17835L10.2979 8.46973C10.34 8.42633 10.3903 8.39184 10.446 8.3683C10.5016 8.34477 10.5615 8.33268 10.6219 8.33275H10.6483C10.7118 8.33304 10.7746 8.34654 10.8326 8.37239C10.8907 8.39823 10.9427 8.43587 10.9854 8.4829L11.5571 9.12829C11.6106 9.18959 11.6766 9.23871 11.7506 9.27234C11.8247 9.30596 11.9051 9.32332 11.9865 9.32323H17.9267C17.8722 8.65031 17.7315 7.98719 17.5079 7.35017H14.3467H14.3362ZM6.40448 13.4722C6.46751 13.4718 6.52983 13.4588 6.58774 13.4339C6.64566 13.409 6.69799 13.3728 6.74166 13.3273L7.41866 12.6187C7.46099 12.5756 7.5114 12.5414 7.56701 12.5179C7.62261 12.4944 7.68231 12.4821 7.74268 12.4817H7.77165C7.83519 12.482 7.89798 12.4955 7.95603 12.5213C8.01407 12.5472 8.06611 12.5848 8.10884 12.6319L8.67784 13.2772C8.73164 13.3381 8.7977 13.387 8.8717 13.4206C8.94569 13.4542 9.02595 13.4718 9.10722 13.4722H17.1601C17.4669 12.8414 17.6884 12.1726 17.8187 11.4833H10.0872C10.0065 11.483 9.92683 11.4658 9.85331 11.4326C9.77978 11.3995 9.71406 11.3512 9.66042 11.291L9.08878 10.6456C9.04661 10.5977 8.99474 10.5593 8.93661 10.533C8.87848 10.5067 8.81541 10.493 8.7516 10.4928C8.68811 10.4927 8.62533 10.5062 8.56758 10.5326C8.50983 10.559 8.45848 10.5975 8.41704 10.6456L7.92707 11.1988C7.84737 11.2884 7.74959 11.3601 7.64016 11.4091C7.53072 11.4582 7.41214 11.4835 7.29222 11.4833H2.10801C2.237 12.1742 2.45758 12.8449 2.76393 13.4774L6.40448 13.4722ZM12.1182 5.19272C12.1817 5.19269 12.2445 5.17984 12.3029 5.15494C12.3612 5.13004 12.414 5.09361 12.458 5.04783L13.135 4.34185C13.1767 4.29786 13.227 4.26279 13.2827 4.23879C13.3384 4.21479 13.3984 4.20236 13.459 4.20224H13.488C13.5515 4.20206 13.6142 4.21562 13.672 4.24199C13.7297 4.26837 13.7811 4.30693 13.8225 4.35503L14.3942 5.00042C14.4484 5.06058 14.5146 5.10876 14.5886 5.14188C14.6625 5.17499 14.7425 5.19231 14.8236 5.19272H16.3541C15.6095 4.20131 14.6444 3.39672 13.5353 2.8426C12.4261 2.28847 11.2032 2 9.96335 2C8.72347 2 7.5006 2.28847 6.39143 2.8426C5.28227 3.39672 4.31723 4.20131 3.57265 5.19272H12.1182ZM9.04136 15.4479H6.94713C6.8662 15.4478 6.78624 15.4303 6.71262 15.3967C6.63901 15.363 6.57346 15.314 6.52039 15.2529L5.95138 14.6075C5.90889 14.5602 5.8569 14.5223 5.79881 14.4964C5.74071 14.4705 5.67781 14.4571 5.6142 14.4571C5.55058 14.4571 5.48768 14.4705 5.42959 14.4964C5.37149 14.5223 5.31951 14.5602 5.27701 14.6075L4.78441 15.1713C4.70557 15.2614 4.60838 15.3337 4.49934 15.3832C4.39031 15.4327 4.27194 15.4584 4.15219 15.4584H4.12058C4.86818 16.2604 5.77284 16.8999 6.77825 17.3371C7.78366 17.7744 8.8683 18 9.96467 18C11.061 18 12.1457 17.7744 13.1511 17.3371C14.1565 16.8999 15.0612 16.2604 15.8088 15.4584L9.04136 15.4479Z" fill="white"/>
</svg>
