<svg width="52" height="50" viewBox="0 0 52 50" fill="none" xmlns="http://www.w3.org/2000/svg">
<ellipse cx="26.0908" cy="24.9999" rx="25.4089" ry="24.9999" fill="black"/>
<path d="M34.2368 20.0316H31.5822C31.4291 20.0314 31.2776 19.9987 31.1383 19.9357C30.9987 19.8727 30.8744 19.7808 30.7734 19.6661L29.6967 18.456C29.617 18.3673 29.5197 18.2964 29.4106 18.2478C29.3015 18.1993 29.1834 18.1742 29.064 18.1742C28.9446 18.1742 28.8265 18.1993 28.7174 18.2478C28.6084 18.2964 28.511 18.3673 28.4313 18.456L27.5085 19.4932C27.3597 19.662 27.1766 19.7973 26.9713 19.8901C26.766 19.983 26.5431 20.0312 26.3175 20.0316H11.789C11.3701 21.2266 11.105 22.4697 11 23.7311H24.7149C24.8337 23.7309 24.9512 23.7067 25.0604 23.6601C25.1696 23.6133 25.2681 23.5451 25.35 23.4594L26.6302 22.1307C26.7095 22.0494 26.8042 21.9847 26.9091 21.9406C27.0139 21.8964 27.1267 21.8738 27.2405 21.8739H27.2902C27.4098 21.8745 27.5281 21.8998 27.6373 21.9482C27.7468 21.9967 27.8447 22.0673 27.9252 22.1554L29.002 23.3655C29.1028 23.4805 29.2271 23.5726 29.3665 23.6356C29.5061 23.6987 29.6575 23.7312 29.8109 23.7311H41C40.8973 22.4693 40.6323 21.226 40.2111 20.0316H34.2566H34.2368ZM19.2964 31.5104C19.4151 31.5096 19.5325 31.4852 19.6416 31.4386C19.7507 31.3919 19.8493 31.324 19.9315 31.2387L21.2067 29.9101C21.2865 29.8293 21.3814 29.7651 21.4862 29.7211C21.5909 29.677 21.7034 29.6539 21.8171 29.6532H21.8716C21.9913 29.6537 22.1096 29.6791 22.219 29.7274C22.3283 29.776 22.4263 29.8465 22.5068 29.9348L23.5786 31.1447C23.6799 31.2589 23.8043 31.3506 23.9437 31.4136C24.0831 31.4766 24.2343 31.5096 24.3874 31.5104H39.556C40.1339 30.3276 40.5511 29.0736 40.7966 27.7812H26.2333C26.0813 27.7806 25.9312 27.7484 25.7927 27.6861C25.6542 27.6241 25.5304 27.5335 25.4294 27.4206L24.3526 26.2105C24.2732 26.1207 24.1755 26.0487 24.066 25.9994C23.9565 25.9501 23.8377 25.9244 23.7175 25.924C23.5979 25.9238 23.4797 25.9491 23.3709 25.9986C23.2621 26.0481 23.1654 26.1203 23.0873 26.2105L22.1644 27.2478C22.0143 27.4158 21.8301 27.5502 21.624 27.6421C21.4178 27.7341 21.1945 27.7816 20.9686 27.7812H11.2035C11.4464 29.0766 11.8619 30.3342 12.439 31.5201L19.2964 31.5104ZM30.0589 15.9863C30.1785 15.9863 30.2968 15.9622 30.4068 15.9155C30.5167 15.8688 30.6161 15.8005 30.699 15.7147L31.9742 14.391C32.0528 14.3085 32.1475 14.2427 32.2524 14.1977C32.3573 14.1527 32.4704 14.1294 32.5845 14.1292H32.6391C32.7587 14.1289 32.8768 14.1543 32.9857 14.2037C33.0944 14.2532 33.1912 14.3255 33.2692 14.4157L34.3461 15.6258C34.4482 15.7386 34.5729 15.8289 34.7123 15.891C34.8515 15.9531 35.0021 15.9856 35.1549 15.9863H38.0378C36.6353 14.1275 34.8174 12.6189 32.7282 11.5799C30.6389 10.5409 28.3354 10 26 10C23.6645 10 21.3611 10.5409 19.2718 11.5799C17.1826 12.6189 15.3648 14.1275 13.9623 15.9863H30.0589ZM24.2633 35.2148H20.3186C20.1661 35.2146 20.0155 35.1818 19.8768 35.1188C19.7382 35.0556 19.6147 34.9638 19.5147 34.8492L18.4429 33.6391C18.3629 33.5504 18.265 33.4793 18.1555 33.4307C18.0461 33.3822 17.9276 33.3571 17.8078 33.3571C17.688 33.3571 17.5695 33.3822 17.4601 33.4307C17.3506 33.4793 17.2527 33.5504 17.1727 33.6391L16.2448 34.6962C16.0963 34.8651 15.9132 35.0007 15.7078 35.0935C15.5025 35.1863 15.2795 35.2345 15.0539 35.2345H14.9944C16.4026 36.7382 18.1066 37.9373 20.0005 38.7571C21.8943 39.577 23.9373 40 26.0025 40C28.0676 40 30.1107 39.577 32.0045 38.7571C33.8983 37.9373 35.6025 36.7382 37.0107 35.2345L24.2633 35.2148Z" fill="white"/>
</svg>
