<svg width="135" height="148" viewBox="0 0 135 148" fill="none" xmlns="http://www.w3.org/2000/svg">
<path d="M134.521 100.926C134.521 104.444 133.593 107.899 131.831 110.944C130.07 113.988 127.536 116.514 124.486 118.267L77.486 145.274C74.4541 147.016 71.0183 147.933 67.5215 147.933C64.0247 147.933 60.5889 147.016 57.557 145.274L10.557 118.267C7.5069 116.514 4.97299 113.988 3.21094 110.944C1.44889 107.899 0.521039 104.444 0.520996 100.926V47.074C0.520938 43.5564 1.44864 40.1009 3.21051 37.0563C4.97238 34.0117 7.50609 31.4857 10.556 29.733L57.556 2.726C60.5879 0.983786 64.0237 0.0669556 67.5205 0.0669556C71.0173 0.0669556 74.4531 0.983786 77.485 2.726L124.485 29.733C127.535 31.4855 130.069 34.0115 131.831 37.0562C133.593 40.1008 134.521 43.5563 134.521 47.074L134.521 100.926Z" fill="#1D86CC"/>
<path d="M61.7279 10.245L15.328 37.045C13.564 38.0634 12.0991 39.5285 11.0809 41.2927C10.0628 43.0569 9.52723 45.058 9.52795 47.095L9.55701 100.754C9.55831 102.788 10.0943 104.785 11.1112 106.547C12.1281 108.308 13.5902 109.771 15.351 110.789L61.8051 137.643C63.5685 138.661 65.5686 139.197 67.6049 139.197C69.6411 139.197 71.6415 138.661 73.4049 137.643L119.805 110.851C121.569 109.832 123.034 108.367 124.052 106.603C125.07 104.839 125.606 102.838 125.605 100.801L125.576 47.142C125.575 45.1083 125.038 43.1108 124.021 41.3497C123.004 39.5886 121.542 38.1258 119.782 37.108L73.328 10.253C71.5646 9.23485 69.5642 8.69885 67.528 8.69885C65.4917 8.69885 63.4913 9.23485 61.7279 10.253V10.245Z" fill="white"/>
<path d="M46.4129 119.506C46.4844 119.156 46.6408 118.83 46.8687 118.555C60.7487 95.003 74.6312 71.452 88.5159 47.902C88.7089 47.575 88.8878 47.239 89.0518 46.946C88.9298 46.733 88.7909 46.777 88.6729 46.777C82.7409 46.798 76.8088 46.836 70.8728 46.829C70.6191 46.8245 70.3702 46.8978 70.1594 47.039C69.9487 47.1802 69.7862 47.3827 69.6939 47.619C65.2192 55.019 60.7387 62.417 56.2527 69.813C46.7494 85.4923 37.2451 101.171 27.7398 116.85C27.6558 116.989 27.5677 117.125 27.4927 117.268C27.3247 117.592 27.1337 117.643 26.7927 117.445C25.3177 116.574 23.8268 115.731 22.2598 114.83L64.5598 46.988C64.4688 46.712 64.2817 46.781 64.1377 46.776C61.8707 46.708 59.6029 46.61 57.3379 46.59C54.156 46.4957 50.9849 47.0068 47.9937 48.096C45.2696 49.1047 42.9546 50.9843 41.4077 53.443C33.6791 65.4977 25.9211 77.5337 18.1338 89.551C18.0118 89.741 17.8819 89.927 17.7559 90.115C17.3099 90.115 17.3757 89.747 17.3347 89.49C17.2953 89.103 17.2861 88.7135 17.3069 88.325C17.3069 75.033 17.3529 61.741 17.2659 48.45C17.196 47.3048 17.4713 46.1649 18.0564 45.1779C18.6415 44.1909 19.5096 43.4023 20.5479 42.914C30.7689 37.087 40.9238 31.14 51.1118 25.254C55.6588 22.627 60.2199 20.025 64.7339 17.343C65.583 16.7733 66.5822 16.4691 67.6048 16.4691C68.6273 16.4691 69.6267 16.7733 70.4758 17.343C78.7758 22.214 87.1497 26.972 95.4927 31.774C101.785 35.3973 108.081 39.0143 114.38 42.625C114.831 42.882 115.27 43.157 115.723 43.41C116.459 43.8014 117.068 44.3955 117.478 45.122C117.888 45.8485 118.081 46.6772 118.035 47.51C118.047 61.9687 118.047 76.4273 118.035 90.886C118.064 91.2417 118.025 91.5998 117.921 91.941C117.421 92.424 117.24 91.882 117.058 91.625C116.308 90.57 115.635 89.459 114.938 88.367C109.356 79.6303 103.756 70.9053 98.1377 62.192C96.2497 59.247 94.3377 56.314 92.4697 53.357C92.0337 52.667 91.9548 52.657 91.5188 53.398C88.7002 58.1673 85.8832 62.9377 83.0679 67.709C82.9135 67.9742 82.8468 68.2815 82.8777 68.5869C82.9086 68.8923 83.0353 69.1801 83.2398 69.409C85.5611 73.1543 87.878 76.9023 90.1907 80.653L102.048 99.833C103.648 102.425 105.25 105.015 106.856 107.602C107.154 107.949 107.321 108.389 107.33 108.846C107.009 109.484 106.34 109.663 105.783 109.953C104.869 110.613 103.864 111.138 102.8 111.51C102.226 111.367 102.023 110.849 101.751 110.425C98.0798 104.699 94.4559 98.944 90.8089 93.204C87.0579 87.304 83.3249 81.382 79.5579 75.488C79.0749 74.732 78.9977 74.727 78.5437 75.488C75.2667 81.001 72.0348 86.54 68.7498 92.047C68.5818 92.3051 68.4992 92.6095 68.5137 92.9171C68.5282 93.2246 68.6393 93.5199 68.8308 93.761C73.2558 100.581 77.5788 107.461 81.9568 114.315C83.1778 116.225 84.4077 118.128 85.6067 120.052C85.8407 120.426 86.1608 120.799 85.9488 121.305C84.7994 122.199 83.5593 122.97 82.2488 123.605C78.1595 125.984 74.0682 128.36 69.9749 130.733C69.3192 131.156 68.5551 131.381 67.7747 131.381C66.9942 131.381 66.2304 131.156 65.5747 130.733C59.5454 127.245 53.5052 123.773 47.4539 120.316C47.037 120.15 46.6759 119.869 46.4129 119.506V119.506Z" fill="#2D374B"/>
<path d="M117.742 92.086C117.751 91.729 117.769 91.373 117.769 91.017C117.769 76.591 117.774 62.1657 117.783 47.741C117.834 46.8662 117.629 45.9955 117.192 45.2357C116.756 44.4759 116.107 43.8601 115.325 43.464C100.177 34.78 85.0399 26.0763 69.9139 17.353C69.2329 16.9098 68.4384 16.673 67.6259 16.6708C66.8133 16.6687 66.0175 16.9014 65.3341 17.341C56.9341 22.223 48.5233 27.0923 40.1019 31.949C33.3453 35.8603 26.5891 39.7727 19.8331 43.686C19.1115 44.0603 18.5133 44.6349 18.1105 45.341C17.7076 46.047 17.5172 46.8543 17.5621 47.666C17.5968 61.508 17.6163 75.35 17.621 89.192C17.621 89.5 17.496 89.843 17.765 90.115C16.165 92.779 14.407 95.339 12.722 97.946C11.878 99.2513 11.0307 100.554 10.1801 101.855C10.0441 102.063 9.88704 102.255 9.61804 102.626C9.59804 102.19 9.57703 101.949 9.57703 101.709C9.57703 83.455 9.58037 65.201 9.58704 46.947C9.54247 44.921 10.0568 42.9219 11.0736 41.169C12.0904 39.4161 13.5702 37.9772 15.351 37.01C21.225 33.522 27.177 30.164 33.09 26.738C38.079 23.849 43.051 20.938 48.037 18.044C52.687 15.344 57.2899 12.563 62.0189 10.01C63.8301 9.00142 65.8789 8.49774 67.9513 8.55157C70.0237 8.6054 72.0435 9.21476 73.7999 10.316C77.5999 12.472 81.384 14.668 85.173 16.846C88.737 18.8973 92.3008 20.95 95.8641 23.004C99.1481 24.8947 102.433 26.7833 105.719 28.67C108.977 30.5413 112.235 32.4116 115.494 34.281C116.926 35.104 118.357 35.928 119.78 36.766C121.351 37.6548 122.702 38.886 123.732 40.3683C124.762 41.8505 125.445 43.5457 125.73 45.328C125.797 45.8427 125.818 46.3625 125.792 46.8809C125.792 64.8429 125.794 82.8053 125.799 100.768C125.808 102.475 125.44 104.162 124.721 105.71C124.001 107.258 122.948 108.627 121.637 109.72C120.889 110.29 120.085 110.783 119.237 111.191C114.37 114.03 109.497 116.858 104.616 119.674C99.4301 122.674 94.2416 125.669 89.0509 128.659C84.0636 131.548 79.0818 134.448 74.1051 137.359C72.866 138.193 71.4715 138.768 70.005 139.05C67.5689 139.525 65.0445 139.204 62.8051 138.134C60.3231 136.803 57.9051 135.359 55.4581 133.957C52.1721 132.072 48.8878 130.183 45.6051 128.29C44.6778 127.757 43.7496 127.226 42.8209 126.699C42.4799 126.505 42.2471 126.308 42.5131 125.863C43.7411 123.806 44.95 121.737 46.172 119.676C46.215 119.601 46.3249 119.566 46.4039 119.511C47.5426 120.043 48.645 120.649 49.704 121.326C55.066 124.393 60.4197 127.474 65.765 130.571C66.3826 130.961 67.0998 131.165 67.8304 131.157C68.5611 131.15 69.2739 130.931 69.8829 130.527C74.9599 127.548 80.0629 124.612 85.1549 121.661C85.4069 121.515 85.665 121.382 85.921 121.244C86.4011 120.631 87.0424 120.163 87.7731 119.893C92.3731 117.257 96.939 114.569 101.538 111.94C101.922 111.721 102.268 111.383 102.768 111.44L107.274 108.83C107.549 108.254 108.136 108.068 108.628 107.784C110.895 106.475 113.141 105.13 115.428 103.863C116.09 103.515 116.637 102.983 117.004 102.331C117.371 101.679 117.542 100.936 117.497 100.189C117.52 97.895 117.497 95.6 117.508 93.305C117.428 92.8837 117.512 92.4479 117.742 92.086V92.086Z" fill="#96BEDC"/>
<path d="M117.747 92.085C117.759 94.933 117.822 97.785 117.758 100.629C117.776 101.295 117.608 101.954 117.275 102.531C116.942 103.108 116.455 103.581 115.869 103.899C113.001 105.523 110.185 107.239 107.291 108.819C106.14 106.719 104.811 104.719 103.553 102.679C97.0195 92.0896 90.479 81.5063 83.931 70.929C83.539 70.295 83.1798 69.637 82.7418 69.038C82.5993 68.8661 82.5214 68.6498 82.5214 68.4265C82.5214 68.2031 82.5993 67.9868 82.7418 67.8149C84.3048 65.2009 85.842 62.572 87.389 59.947L91.683 52.663C91.7592 52.4898 91.893 52.3484 92.0619 52.2629C92.8089 53.4139 93.5618 54.5749 94.3138 55.7369C98.8312 62.7703 103.348 69.8036 107.863 76.837C110.925 81.609 113.987 86.3813 117.048 91.154C117.216 91.5082 117.454 91.8248 117.747 92.085V92.085Z" fill="#28A0F0"/>
<path d="M102.785 111.429C100.92 112.653 98.9419 113.694 97.0199 114.829C93.5349 116.878 90.0279 118.889 86.5309 120.915C86.3309 121.028 86.1309 121.134 85.9379 121.243C85.8936 120.92 85.7545 120.616 85.538 120.372C82.424 115.478 79.3097 110.585 76.195 105.693C73.6357 101.676 71.0688 97.6623 68.4948 93.653C68.3205 93.4451 68.2195 93.1856 68.2072 92.9146C68.1949 92.6435 68.2722 92.3759 68.4269 92.153C71.8676 86.3583 75.294 80.555 78.706 74.743C78.787 74.609 78.8519 74.453 79.0529 74.41C79.3329 74.473 79.4009 74.753 79.5339 74.962C85.7339 84.728 91.934 94.4947 98.134 104.262C99.453 106.341 100.766 108.425 102.093 110.5C102.262 110.851 102.496 111.167 102.783 111.431L102.785 111.429Z" fill="#28A0F0"/>
</svg>
