<svg width="40" height="40" viewBox="0 0 40 40" fill="none" xmlns="http://www.w3.org/2000/svg">
<path d="M20 40C31.0457 40 40 31.0457 40 20C40 8.95431 31.0457 0 20 0C8.95431 0 0 8.95431 0 20C0 31.0457 8.95431 40 20 40Z" fill="#2D374B"/>
<path d="M23.1966 18.8546L25.2795 15.4441L30.894 23.882L30.8966 25.5014L30.8783 14.3582C30.865 14.0858 30.7151 13.8365 30.476 13.6895L20.3679 8.07927C20.1316 7.96712 19.8315 7.96846 19.5956 8.08281C19.5636 8.0983 19.5338 8.11498 19.5052 8.13333L19.4699 8.15472L9.65832 13.641L9.62028 13.6578C9.57123 13.6794 9.52184 13.7072 9.47525 13.7392C9.2892 13.8678 9.16564 14.0583 9.12567 14.2717C9.11974 14.304 9.1152 14.337 9.11328 14.3704L9.12864 23.4509L14.3583 15.6297C15.0166 14.5927 16.4512 14.2584 17.783 14.2767L19.3458 14.3165L10.1367 28.5674L11.2222 29.1704L20.5417 14.331L24.661 14.3165L15.3656 29.5305L19.2392 31.6805L19.702 31.9371C19.8979 32.0139 20.1286 32.0178 20.326 31.9489L30.5762 26.2171L28.6164 27.3129L23.1966 18.8546ZM23.9912 29.8994L20.0788 23.9741L22.4672 20.0634L27.6054 27.8782L23.9912 29.8994Z" fill="#2D374B"/>
<path d="M20.0791 23.9751L23.9916 29.9003L27.6057 27.8793L22.4675 20.0645L20.0791 23.9751Z" fill="#28A0F0"/>
<path d="M30.8973 25.5006L30.8947 23.8813L25.2802 15.4434L23.1973 18.8539L28.6173 27.3122L30.577 26.2164C30.7692 26.0658 30.8856 25.8447 30.8978 25.6062L30.8973 25.5006Z" fill="#28A0F0"/>
<path d="M7.36914 27.028L10.1366 28.5667L19.3457 14.3158L17.7829 14.2761C16.4512 14.2579 15.0166 14.592 14.3582 15.629L9.12852 23.4503L7.36914 26.0587V27.028V27.028Z" fill="white"/>
<path d="M24.6604 14.3164L20.5411 14.3309L11.2217 29.1704L14.4792 30.98L15.3649 29.5304L24.6604 14.3164Z" fill="white"/>
<path d="M32.6323 14.2958C32.5979 13.4646 32.1314 12.7037 31.4009 12.2606L21.1603 6.57801C20.4376 6.22688 19.5347 6.22638 18.8106 6.57784C18.7251 6.61943 8.8519 12.1448 8.8519 12.1448C8.71525 12.2079 8.58366 12.2832 8.45992 12.3688C7.80772 12.8199 7.41015 13.5208 7.36914 14.2908V26.0594L9.12852 23.451L9.11317 14.3702C9.11526 14.3371 9.11962 14.3042 9.12556 14.2721C9.16535 14.0584 9.28909 13.8679 9.47513 13.7391C9.52173 13.7071 19.5634 8.09819 19.5953 8.0827C19.8314 7.96835 20.1313 7.96701 20.3676 8.07916L30.4757 13.6894C30.7148 13.8364 30.8647 14.0856 30.878 14.3581V25.6067C30.8658 25.8452 30.768 26.0663 30.5759 26.2168L28.6161 27.3126L27.6049 27.8781L23.9909 29.8992L20.3257 31.9486C20.1283 32.0175 19.8974 32.0137 19.7018 31.9369L15.3653 29.5302L14.4795 30.9798L18.3766 33.1448C18.5054 33.2156 18.6202 33.2782 18.7145 33.3294C18.8604 33.4084 18.9599 33.4611 18.9949 33.4776C19.2719 33.6074 19.6703 33.6829 20.0295 33.6829C20.3587 33.6829 20.6798 33.6246 20.9836 33.5098L31.6295 27.5609C32.2405 27.104 32.6 26.415 32.6323 25.6688V14.2958Z" fill="#96BEDC"/>
</svg>
