<svg width="51" height="50" viewBox="0 0 51 50" fill="none" xmlns="http://www.w3.org/2000/svg">
<ellipse cx="25.6819" cy="24.9999" rx="25" ry="24.9999" fill="#2D374B"/>
<path d="M26.0869 29.3588L30.4232 35.8537L34.4289 33.6384L28.734 25.0722L26.0869 29.3588Z" fill="#28A0F0"/>
<path d="M38.077 31.0309L38.0741 29.2559L31.8514 20.0067L29.5428 23.7451L35.55 33.0167L37.722 31.8156C37.935 31.6505 38.064 31.4081 38.0776 31.1467L38.077 31.0309Z" fill="#28A0F0"/>
<path d="M12 32.7052L15.0673 34.3919L25.274 18.7707L23.5419 18.7272C22.0659 18.7072 20.4759 19.0734 19.7462 20.2102L13.95 28.7835L12 31.6427V32.7052Z" fill="white"/>
<path d="M31.1645 18.7714L26.5989 18.7873L16.2699 35.0536L19.8803 37.0372L20.8619 35.4482L31.1645 18.7714Z" fill="white"/>
<path d="M40 18.7488C39.9619 17.8377 39.4448 17.0036 38.6352 16.5179L27.2852 10.2889C26.4842 9.90401 25.4835 9.90346 24.6809 10.2887C24.5862 10.3343 13.6434 16.391 13.6434 16.391C13.4919 16.4601 13.3461 16.5427 13.2089 16.6365C12.4861 17.131 12.0455 17.8993 12 18.7433V31.6427L13.95 28.7835L13.933 18.8303C13.9353 18.794 13.9401 18.758 13.9467 18.7228C13.9908 18.4885 14.1279 18.2797 14.3341 18.1385C14.3858 18.1035 25.5153 11.9552 25.5507 11.9383C25.8123 11.8129 26.1447 11.8115 26.4066 11.9344L37.6098 18.0841C37.8748 18.2452 38.0409 18.5184 38.0557 18.8171V31.1473C38.0421 31.4087 37.9337 31.651 37.7208 31.816L26.3602 38.0989C26.1414 38.1745 25.8855 38.1703 25.6687 38.0861L20.8619 35.4482L19.8803 37.0372L24.1999 39.4102C24.3427 39.4878 24.4699 39.5564 24.5744 39.6125C24.7361 39.6991 24.8464 39.7569 24.8852 39.775C25.1922 39.9172 25.6338 40 26.0319 40C26.3968 40 26.7526 39.9361 27.0894 39.8103L38.8886 33.2894C39.5658 32.7885 39.9642 32.0333 40 31.2153V18.7488Z" fill="#96BEDC"/>
</svg>
