<svg width="418" height="418" viewBox="0 0 418 418" fill="none" xmlns="http://www.w3.org/2000/svg">
<circle cx="209" cy="209" r="209" fill="#3D006C"/>
<path d="M339.694 199.939C334.798 127.06 272.491 71.9982 200.524 76.9545C164.674 79.4242 133.195 96.3282 111.229 121.675L111.168 121.631C111.02 121.837 110.881 122.043 110.734 122.249C88.9148 147.721 76.6428 181.589 79.081 217.889C79.3133 221.35 79.7154 224.753 80.2012 228.127C80.2011 228.127 80.2014 228.129 80.2012 228.127C80.2231 228.28 80.2457 228.433 80.2669 228.586C80.5953 230.812 80.9767 233.019 81.4118 235.206C81.4121 235.206 81.4122 235.207 81.4125 235.207C81.4205 235.247 81.428 235.287 81.4357 235.327C81.8318 237.307 82.2718 239.268 82.7533 241.212L82.7542 241.216C82.7546 241.218 82.755 241.22 82.7553 241.222C97.8395 302.14 154.201 345.286 218.251 340.874C290.217 335.917 344.59 272.817 339.694 199.939ZM311.263 201.897C311.866 210.87 311.309 219.655 309.731 228.107C309.712 228.057 309.697 228.006 309.676 227.959C300.207 204.519 281.476 187.598 265.005 178.25C268.34 138.533 255.034 121.801 239.976 119.079C239.566 118.999 239.154 118.931 238.735 118.878C226.784 117.325 215.855 125.881 214.324 137.984C212.791 150.087 221.239 161.155 233.189 162.707C234.232 162.841 235.263 162.879 236.284 162.862C236.351 164.203 236.392 165.626 236.403 167.115C222.48 163.621 209.464 162.937 197.598 164.018C193.16 164.318 188.719 164.883 184.303 165.721C185.784 152.308 190.752 137.253 200.393 126.234C209.713 115.583 223.57 109.478 238.685 111.044C241.551 111.341 244.608 112.053 247.36 112.99C247.487 113.032 247.621 113.07 247.746 113.113C247.748 113.111 247.75 113.108 247.752 113.106C282.763 127.548 308.529 161.197 311.263 201.897ZM220.228 222.1C220.218 222.113 220.209 222.128 220.199 222.143C217.082 226.695 213.375 231.182 209.025 235.525C202.502 228.496 197.263 220.928 193.288 213.098C193.083 212.678 192.866 212.28 192.667 211.853C192.659 211.837 192.652 211.822 192.645 211.807C190.309 206.796 188.324 201.298 186.787 195.31C196.068 193.099 205.171 192.286 213.863 192.713C214.323 192.745 214.773 192.752 215.237 192.793C215.254 192.793 215.271 192.794 215.289 192.796C220.733 193.252 226.417 194.257 232.297 195.899C229.548 205.14 225.693 213.527 220.982 220.934C220.726 221.321 220.493 221.712 220.228 222.1ZM175.597 111.352C175.573 111.382 175.546 111.413 175.522 111.445C160.218 131.459 155.11 156.332 155.346 175.448C119.717 192.382 112.061 212.417 117.263 226.984C117.399 227.383 117.547 227.778 117.711 228.171C122.359 239.429 135.14 244.736 146.255 240.027C157.372 235.321 162.613 222.377 157.966 211.121C157.559 210.14 157.075 209.216 156.551 208.33C157.676 207.591 158.886 206.836 160.17 206.072C164.144 220.032 170.022 231.842 176.88 241.709C179.351 245.445 182.05 249.048 184.966 252.497C172.755 257.907 157.392 261.079 143.145 258.133C129.376 255.286 117.228 246.186 111.01 232.146C109.831 229.484 108.912 226.448 108.336 223.566C107.982 221.047 107.685 218.509 107.512 215.932C104.329 168.551 133.356 126.37 175.597 111.352ZM216.317 312.083C188.534 313.997 162.563 304.399 142.935 287.34C167.701 290.755 191.526 282.798 207.756 273.033C240.066 295.83 261.034 292.531 270.895 280.682C271.167 280.364 271.431 280.035 271.686 279.695C278.99 269.99 277.138 256.127 267.554 248.733C257.969 241.337 244.28 243.212 236.977 252.916C236.341 253.765 235.794 254.649 235.298 255.552C234.113 254.938 232.868 254.26 231.582 253.521C241.543 243.051 248.641 231.971 253.654 221.015C255.617 216.975 257.353 212.797 258.847 208.504C269.583 216.51 279.987 228.403 284.594 242.376C289.042 255.877 287.336 271.081 278.438 283.554C276.752 285.92 274.613 288.244 272.436 290.19C272.404 290.218 272.374 290.249 272.342 290.277C256.776 302.667 237.516 310.622 216.317 312.083Z" fill="url(#paint0_linear_685_841)"/>
<g style="mix-blend-mode:hard-light" opacity="0.69">
<path d="M339.694 199.939C334.798 127.06 272.491 71.9982 200.524 76.9545C164.674 79.4242 133.195 96.3282 111.229 121.675L111.168 121.631C111.02 121.837 110.881 122.043 110.734 122.249C88.9148 147.721 76.6428 181.589 79.081 217.889C79.3133 221.35 79.7154 224.753 80.2012 228.127C80.2231 228.28 80.2457 228.433 80.2669 228.586C80.5953 230.812 80.9767 233.019 81.4118 235.206L81.4125 235.207C81.4205 235.247 81.428 235.287 81.4357 235.327C81.8318 237.307 82.2718 239.268 82.7533 241.212L82.7542 241.216C82.7546 241.218 82.755 241.22 82.7553 241.222C97.8395 302.14 154.201 345.286 218.251 340.874C290.217 335.917 344.59 272.817 339.694 199.939ZM311.263 201.897C311.866 210.87 311.309 219.655 309.731 228.107C309.712 228.057 309.697 228.006 309.676 227.959C300.207 204.519 281.476 187.598 265.005 178.25C268.34 138.533 255.034 121.801 239.976 119.079C239.566 118.999 239.154 118.931 238.735 118.878C226.784 117.325 215.855 125.881 214.324 137.984C212.791 150.087 221.239 161.155 233.189 162.707C234.232 162.841 235.263 162.879 236.284 162.862C236.351 164.203 236.392 165.626 236.403 167.115C222.48 163.621 209.464 162.937 197.598 164.018C193.16 164.318 188.719 164.883 184.303 165.721C185.784 152.308 190.752 137.253 200.393 126.234C209.713 115.583 223.57 109.478 238.685 111.044C241.551 111.341 244.608 112.053 247.36 112.99C247.487 113.032 247.621 113.07 247.746 113.113C247.748 113.111 247.75 113.108 247.752 113.106C282.763 127.548 308.529 161.197 311.263 201.897ZM220.228 222.1C220.218 222.113 220.209 222.128 220.199 222.143C217.082 226.695 213.375 231.182 209.025 235.525C202.502 228.496 197.263 220.928 193.288 213.098C193.083 212.678 192.866 212.28 192.667 211.853C192.659 211.837 192.652 211.822 192.645 211.807C190.309 206.796 188.324 201.298 186.787 195.31C196.068 193.099 205.171 192.286 213.863 192.713C214.323 192.745 214.773 192.752 215.237 192.793C215.254 192.793 215.271 192.794 215.289 192.796C220.733 193.252 226.417 194.257 232.297 195.899C229.548 205.14 225.693 213.527 220.982 220.934C220.726 221.321 220.493 221.712 220.228 222.1ZM175.597 111.352C175.573 111.382 175.546 111.413 175.522 111.445C160.218 131.459 155.11 156.332 155.346 175.448C119.717 192.382 112.061 212.417 117.263 226.984C117.399 227.383 117.547 227.778 117.711 228.171C122.359 239.429 135.14 244.736 146.255 240.027C157.372 235.321 162.613 222.377 157.966 211.121C157.559 210.14 157.075 209.216 156.551 208.33C157.676 207.591 158.886 206.836 160.17 206.072C164.144 220.032 170.022 231.842 176.88 241.709C179.351 245.445 182.05 249.048 184.966 252.497C172.755 257.907 157.392 261.079 143.145 258.133C129.376 255.286 117.228 246.186 111.01 232.146C109.831 229.484 108.912 226.448 108.336 223.566C107.982 221.047 107.685 218.509 107.512 215.932C104.329 168.551 133.356 126.37 175.597 111.352ZM216.317 312.083C188.534 313.997 162.563 304.399 142.935 287.34C167.701 290.755 191.526 282.798 207.756 273.033C240.066 295.83 261.034 292.531 270.895 280.682C271.167 280.364 271.431 280.035 271.686 279.695C278.99 269.99 277.138 256.127 267.554 248.733C257.969 241.337 244.28 243.212 236.977 252.916C236.341 253.765 235.794 254.649 235.298 255.552C234.112 254.938 232.868 254.26 231.582 253.521C241.543 243.051 248.641 231.971 253.654 221.015C255.617 216.975 257.353 212.797 258.847 208.504C269.583 216.51 279.987 228.403 284.594 242.376C289.042 255.877 287.336 271.081 278.438 283.554C276.752 285.92 274.613 288.244 272.436 290.19C272.404 290.218 272.374 290.249 272.342 290.277C256.776 302.667 237.516 310.622 216.317 312.083Z" fill="url(#paint1_linear_685_841)"/>
<path style="mix-blend-mode:overlay" d="M239.98 119.083C239.571 119.003 239.159 118.935 238.74 118.882C236.626 118.608 234.547 118.665 232.542 118.986C245.038 125.87 254.147 145.049 249.358 182.882C247.771 195.411 244.092 207.336 238.779 218.279C234.474 227.685 228.617 237.184 220.742 246.311C224.524 249.183 228.211 251.587 231.587 253.525C241.548 243.055 248.646 231.975 253.659 221.019C258.972 210.078 262.652 198.153 264.237 185.623C269.94 140.578 255.94 121.968 239.98 119.083Z" fill="url(#paint2_radial_685_841)"/>
<path d="M249.355 182.876C254.144 145.043 245.034 125.864 232.539 118.98C232.052 119.058 231.573 119.164 231.095 119.275C243.328 126.397 252.129 145.557 247.405 182.876C245.818 195.406 242.139 207.331 236.826 218.273C232.663 227.369 227.034 236.547 219.55 245.396C219.949 245.708 220.344 246.004 220.74 246.305C228.614 237.178 234.472 227.679 238.776 218.273C244.089 207.331 247.768 195.406 249.355 182.876Z" fill="white"/>
<path style="mix-blend-mode:overlay" d="M201.854 268.687C200.68 267.782 199.55 266.833 198.42 265.885C179.981 273.676 154.419 278.56 129.038 272.597C133.195 277.961 137.833 282.916 142.928 287.343C167.694 290.757 191.519 282.8 207.749 273.035C205.823 271.677 203.862 270.237 201.854 268.687Z" fill="url(#paint3_radial_685_841)"/>
<path style="mix-blend-mode:overlay" d="M198.428 265.884C197.864 265.41 197.295 264.941 196.742 264.457C178.162 271.975 152.485 276.469 127.161 270.078C127.778 270.927 128.405 271.768 129.047 272.595C154.428 278.559 179.99 273.675 198.428 265.884Z" fill="url(#paint4_linear_685_841)"/>
<path style="mix-blend-mode:overlay" d="M117.269 227.008C117.405 227.405 117.553 227.802 117.717 228.195C118.54 230.186 119.628 231.982 120.905 233.578C120.544 219.178 132.391 201.599 167.14 186.883C178.648 182.01 190.685 179.274 202.699 178.463C212.897 177.534 223.949 177.923 235.691 180.264C236.256 175.512 236.468 171.077 236.438 167.147C222.503 163.645 209.478 162.961 197.604 164.042C185.59 164.853 173.553 167.589 162.044 172.462C120.671 189.984 111.756 211.567 117.269 227.008Z" fill="url(#paint5_radial_685_841)"/>
<path d="M167.133 186.881C132.385 201.597 120.538 219.176 120.898 233.576C121.209 233.965 121.539 234.332 121.873 234.694C121.846 220.408 133.832 203.106 168.108 188.591C179.616 183.718 191.653 180.981 203.667 180.171C213.528 179.273 224.192 179.621 235.5 181.76C235.568 181.253 235.625 180.759 235.684 180.262C223.941 177.921 212.891 177.531 202.692 178.461C190.678 179.271 178.642 182.008 167.133 186.881Z" fill="white"/>
<path style="mix-blend-mode:overlay" d="M264.269 185.632C264.082 187.115 263.835 188.58 263.591 190.046C279.471 202.32 296.43 222.297 304.018 247.538C306.529 241.211 308.447 234.666 309.685 227.983C300.222 204.556 281.506 187.639 265.039 178.289C264.84 180.658 264.59 183.096 264.269 185.632Z" fill="url(#paint6_linear_685_841)"/>
<path style="mix-blend-mode:overlay" d="M263.588 190.041C263.465 190.773 263.348 191.505 263.21 192.233C278.931 204.769 295.614 225.04 302.81 250.445C303.225 249.479 303.631 248.51 304.017 247.533C296.429 222.292 279.469 202.316 263.588 190.041Z" fill="url(#paint7_linear_685_841)"/>
<path style="mix-blend-mode:overlay" d="M270.908 280.656C271.18 280.336 271.444 280.01 271.697 279.668C272.99 277.95 273.982 276.098 274.708 274.18C262.575 281.697 241.619 280.096 211.659 256.979C201.736 249.323 193.379 240.134 186.678 230.004C180.785 221.524 175.592 211.637 171.722 200.17C167.377 202.05 163.477 204.081 160.131 206.073C164.105 220.042 170.031 231.808 176.894 241.682C183.594 251.814 191.951 261.002 201.874 268.659C237.545 296.182 260.459 293.21 270.908 280.656Z" fill="url(#paint8_radial_685_841)"/>
<path d="M211.663 256.973C241.622 280.09 262.578 281.69 274.711 274.174C274.889 273.707 275.038 273.233 275.181 272.759C262.977 279.926 242.189 278.064 212.637 255.263C202.715 247.607 194.357 238.418 187.657 228.286C181.959 220.089 176.925 210.562 173.099 199.574C172.634 199.769 172.181 199.967 171.725 200.164C175.595 211.631 180.789 221.517 186.682 229.998C193.382 240.128 201.739 249.317 211.663 256.973Z" fill="white"/>
<path style="mix-blend-mode:overlay" d="M162.034 172.425C163.395 171.849 164.771 171.333 166.148 170.815C168.704 150.748 177.308 125.889 195.099 106.611C188.434 107.573 181.878 109.164 175.543 111.418C160.241 131.433 155.133 156.305 155.369 175.421C157.495 174.413 159.705 173.411 162.034 172.425Z" fill="url(#paint9_radial_685_841)"/>
<path style="mix-blend-mode:overlay" d="M166.138 170.811C166.826 170.554 167.511 170.29 168.203 170.046C171.062 149.992 180.057 125.226 198.185 106.213C197.151 106.328 196.119 106.458 195.09 106.608C177.299 125.885 168.695 150.744 166.138 170.811Z" fill="url(#paint10_linear_685_841)"/>
<path style="mix-blend-mode:multiply" d="M200.524 76.955C164.673 79.4246 133.195 96.3286 111.229 121.675C111.063 121.868 110.898 122.059 110.733 122.252L110.734 122.25C115.011 126.547 128.987 135.017 134.652 138.549C145.774 126.435 159.757 116.984 175.597 111.353C176.704 109.909 177.85 108.484 179.065 107.095C193.818 90.2367 213.967 81.3255 237.335 81.3255C239.936 81.3255 245.233 81.745 245.347 81.7526C231.181 77.6314 216.082 75.8836 200.524 76.955Z" fill="url(#paint11_linear_685_841)"/>
<path style="mix-blend-mode:multiply" d="M216.319 312.083C188.536 313.997 162.565 304.4 142.937 287.341C141.11 287.09 139.279 286.787 137.445 286.407C115.65 281.897 97.9557 268.683 86.2713 248.189C84.9708 245.909 83.8071 243.584 82.7583 241.225C97.8429 302.142 154.204 345.287 218.254 340.874C218.537 334.195 216.593 318.697 216.319 312.083Z" fill="url(#paint12_linear_685_841)"/>
<path style="mix-blend-mode:multiply" d="M339.691 199.938C335.68 199.521 316.08 201.09 311.261 201.896C311.864 210.87 311.307 219.654 309.729 228.106C310.405 229.786 311.046 231.494 311.624 233.242C318.664 254.611 316.21 276.736 304.527 297.23C303.249 299.469 301.872 301.614 300.409 303.677C300.381 303.718 300.349 303.763 300.324 303.795C300.324 303.795 300.385 303.744 300.421 303.712C326.948 277.574 342.401 240.264 339.691 199.938Z" fill="url(#paint13_linear_685_841)"/>
<path style="mix-blend-mode:multiply" d="M238.68 111.042C241.545 111.338 244.603 112.051 247.355 112.988C247.482 113.03 247.616 113.067 247.741 113.111C247.741 113.111 247.745 113.105 247.747 113.101C259.014 117.75 269.315 124.397 278.208 132.619C278.227 132.634 278.248 132.647 278.267 132.664C282.552 127.702 290.804 122.249 290.804 122.249C290.804 122.249 278.168 109.16 258.842 105.097C245.312 102.253 214.796 99.4966 195.55 132.664C195.55 132.664 195.626 132.59 195.739 132.485C197.162 130.306 198.677 128.188 200.388 126.232C209.708 115.581 223.565 109.475 238.68 111.042Z" fill="url(#paint14_linear_685_841)"/>
<path style="mix-blend-mode:multiply" d="M278.436 283.546C276.751 285.909 274.612 288.236 272.435 290.182C272.335 290.271 272.236 290.37 272.137 290.459C272.137 290.459 272.14 290.465 272.142 290.469C262.532 298.025 251.698 303.737 240.222 307.426C240.198 307.433 240.177 307.443 240.154 307.452C242.254 313.692 242.791 323.655 242.791 323.655C242.791 323.655 260.303 319.119 273.44 304.2C282.637 293.757 300.251 268.372 281.513 234.91C281.513 234.91 281.535 235.014 281.569 235.165C282.722 237.503 283.776 239.889 284.592 242.368C289.042 255.869 287.336 271.073 278.436 283.546Z" fill="url(#paint15_linear_685_841)"/>
<path style="mix-blend-mode:multiply" d="M111.057 232.182C109.878 229.521 108.958 226.483 108.383 223.602C108.356 223.469 108.32 223.333 108.295 223.201H108.285C106.627 210.995 107.16 198.636 109.744 186.729C109.748 186.702 109.75 186.679 109.754 186.655C103.368 185.377 94.5791 180.865 94.5791 180.865C94.5791 180.865 89.7033 198.493 95.8923 217.472C100.225 230.761 113.126 258.903 151.112 259.197C151.112 259.197 151.011 259.167 150.865 259.119C148.29 258.961 145.722 258.693 143.192 258.169C129.424 255.322 117.275 246.224 111.057 232.182Z" fill="url(#paint16_linear_685_841)"/>
<path style="mix-blend-mode:multiply" d="M233.194 162.705C234.237 162.84 235.268 162.877 236.289 162.86C236.289 162.86 235.607 149.117 233.94 142.065C232.274 135.016 229.817 130.345 227.116 127.703C225.183 125.81 219.077 123.452 214.328 137.982C212.795 150.085 221.243 161.154 233.194 162.705Z" fill="url(#paint17_linear_685_841)"/>
<path style="mix-blend-mode:multiply" d="M157.973 211.142C157.565 210.159 157.081 209.237 156.557 208.35C156.557 208.35 145.145 215.819 139.948 220.807C134.751 225.794 131.987 230.283 131.077 233.974C130.425 236.615 131.461 243.149 146.262 240.049C157.378 235.342 162.62 222.398 157.973 211.142Z" fill="url(#paint18_linear_685_841)"/>
<path style="mix-blend-mode:multiply" d="M236.993 252.882C236.358 253.73 235.811 254.614 235.314 255.52C235.314 255.52 247.408 261.793 254.272 263.857C261.134 265.922 266.357 266.099 269.967 265.054C272.552 264.304 277.622 260.128 267.57 248.701C257.986 241.303 244.297 243.177 236.993 252.882Z" fill="url(#paint19_linear_685_841)"/>
<path style="mix-blend-mode:multiply" d="M232.299 195.898C229.55 205.141 225.694 213.526 220.984 220.933C220.727 221.321 220.494 221.712 220.229 222.099C220.219 222.112 220.21 222.127 220.2 222.143C217.083 226.695 213.377 231.183 209.026 235.525C212.016 238.745 215.25 241.864 218.801 244.823C223.26 248.387 227.631 251.251 231.584 253.521C241.545 243.051 248.642 231.97 253.655 221.015C255.618 216.975 257.354 212.797 258.848 208.504C254.253 205.078 249.598 202.354 245.308 200.502C240.873 198.586 236.537 197.083 232.299 195.898Z" fill="url(#paint20_linear_685_841)"/>
<path style="mix-blend-mode:multiply" d="M142.936 287.341C167.703 290.756 191.527 282.798 207.757 273.033C205.831 271.675 203.87 270.235 201.862 268.686C195.598 263.852 189.961 258.406 184.967 252.498C172.757 257.907 157.393 261.08 143.147 258.134C129.378 255.286 117.229 246.187 111.011 232.147C109.832 229.484 108.913 226.448 108.337 223.566C111.936 249.136 124.676 271.473 142.936 287.341Z" fill="url(#paint21_linear_685_841)"/>
<path style="mix-blend-mode:multiply" d="M209.029 235.522C202.508 228.493 197.268 220.926 193.292 213.095C193.089 212.676 192.871 212.277 192.673 211.85C192.665 211.835 192.658 211.819 192.65 211.804C190.315 206.793 188.329 201.295 186.792 195.307C182.552 196.318 178.277 197.591 173.981 199.222C168.715 201.346 164.086 203.741 160.175 206.07C164.148 220.03 170.027 231.839 176.886 241.707C179.356 245.442 182.054 249.046 184.971 252.494C190.206 250.178 194.872 247.453 198.605 244.613C202.454 241.686 205.904 238.64 209.029 235.522Z" fill="url(#paint22_linear_685_841)"/>
<path style="mix-blend-mode:multiply" d="M175.521 111.446C160.218 131.46 155.11 156.333 155.346 175.449C157.48 174.434 159.7 173.429 162.038 172.439C169.295 169.367 176.764 167.148 184.303 165.722C185.784 152.309 190.752 137.254 200.393 126.235C209.713 115.584 223.569 109.479 238.685 111.045C241.551 111.342 244.607 112.054 247.36 112.991C247.487 113.033 247.621 113.071 247.746 113.114L247.752 113.107C233.827 107.36 218.443 104.645 202.458 105.747C193.069 106.393 184.074 108.339 175.597 111.353C175.574 111.383 175.546 111.414 175.521 111.446Z" fill="url(#paint23_linear_685_841)"/>
<path style="mix-blend-mode:multiply" d="M309.677 228.172C300.209 204.731 281.478 187.811 265.006 178.463C264.808 180.84 264.557 183.289 264.234 185.832C263.234 193.734 261.398 201.393 258.849 208.717C269.585 216.723 279.989 228.616 284.596 242.589C289.043 256.09 287.337 271.293 278.439 283.767C276.754 286.132 274.615 288.457 272.438 290.402C272.406 290.431 272.376 290.461 272.344 290.49C291.521 275.227 305.082 253.231 309.733 228.319C309.714 228.27 309.699 228.219 309.677 228.172Z" fill="url(#paint24_linear_685_841)"/>
<path style="mix-blend-mode:multiply" d="M184.23 181.627C184.809 186.465 185.687 191.011 186.791 195.31C196.073 193.099 205.175 192.286 213.867 192.714C214.327 192.746 214.777 192.753 215.242 192.793C215.258 192.793 215.275 192.795 215.293 192.796C220.737 193.252 226.421 194.257 232.301 195.899C233.56 191.672 234.608 187.283 235.362 182.697C236.181 176.996 236.444 171.722 236.408 167.116C222.485 163.622 209.468 162.938 197.602 164.019C193.164 164.319 188.724 164.884 184.307 165.721C183.671 171.475 183.667 176.93 184.23 181.627Z" fill="url(#paint25_linear_685_841)"/>
</g>
<defs>
<linearGradient id="paint0_linear_685_841" x1="120.252" y1="299.186" x2="288.904" y2="132.648" gradientUnits="userSpaceOnUse">
<stop offset="0.001139" stop-color="#E6007A"/>
<stop offset="0.207149" stop-color="#703AC2"/>
<stop offset="0.456011" stop-color="#0070EB"/>
<stop offset="0.768132" stop-color="#0297FB"/>
<stop offset="1" stop-color="#0AE2FF"/>
</linearGradient>
<linearGradient id="paint1_linear_685_841" x1="120.252" y1="299.187" x2="288.904" y2="132.648" gradientUnits="userSpaceOnUse">
<stop offset="0.001139" stop-color="#E6007A"/>
<stop offset="0.207149" stop-color="#703AC2"/>
<stop offset="0.456011" stop-color="#0070EB"/>
<stop offset="0.768132" stop-color="#0297FB"/>
<stop offset="1" stop-color="#0AE2FF"/>
</linearGradient>
<radialGradient id="paint2_radial_685_841" cx="0" cy="0" r="1" gradientUnits="userSpaceOnUse" gradientTransform="translate(229.703 201.123) scale(289.623 98.6817)">
<stop stop-color="white"/>
<stop offset="1" stop-color="white" stop-opacity="0"/>
</radialGradient>
<radialGradient id="paint3_radial_685_841" cx="0" cy="0" r="1" gradientUnits="userSpaceOnUse" gradientTransform="translate(225.354 190.167) scale(95.8917 347.685)">
<stop stop-color="white"/>
<stop offset="1" stop-color="white" stop-opacity="0"/>
</radialGradient>
<linearGradient id="paint4_linear_685_841" x1="88.6418" y1="224.471" x2="190.748" y2="224.262" gradientUnits="userSpaceOnUse">
<stop stop-color="white" stop-opacity="0"/>
<stop offset="1" stop-color="white"/>
</linearGradient>
<radialGradient id="paint5_radial_685_841" cx="0" cy="0" r="1" gradientUnits="userSpaceOnUse" gradientTransform="translate(191.54 175.192) rotate(-108.091) scale(173.142 118.026)">
<stop stop-color="white"/>
<stop offset="1" stop-color="white" stop-opacity="0"/>
</radialGradient>
<linearGradient id="paint6_linear_685_841" x1="278.399" y1="284.582" x2="192.5" y2="61.0614" gradientUnits="userSpaceOnUse">
<stop offset="0.137043" stop-color="white" stop-opacity="0"/>
<stop offset="0.315161" stop-color="white"/>
</linearGradient>
<linearGradient id="paint7_linear_685_841" x1="325.896" y1="329.945" x2="275.163" y2="207.09" gradientUnits="userSpaceOnUse">
<stop stop-color="white" stop-opacity="0"/>
<stop offset="1" stop-color="white"/>
</linearGradient>
<radialGradient id="paint8_radial_685_841" cx="0" cy="0" r="1" gradientUnits="userSpaceOnUse" gradientTransform="translate(195.465 231.322) rotate(113.788) scale(140.355 119.632)">
<stop stop-color="white"/>
<stop offset="1" stop-color="white" stop-opacity="0"/>
</radialGradient>
<radialGradient id="paint9_radial_685_841" cx="0" cy="0" r="1" gradientUnits="userSpaceOnUse" gradientTransform="translate(178.853 220.095) rotate(134.27) scale(136.049 157.046)">
<stop stop-color="white"/>
<stop offset="1" stop-color="white" stop-opacity="0"/>
</radialGradient>
<linearGradient id="paint10_linear_685_841" x1="326.167" y1="85.4665" x2="291.348" y2="207.901" gradientUnits="userSpaceOnUse">
<stop offset="0.229866" stop-color="white" stop-opacity="0"/>
<stop offset="1" stop-color="white"/>
</linearGradient>
<linearGradient id="paint11_linear_685_841" x1="256.94" y1="158.721" x2="168.879" y2="170.207" gradientUnits="userSpaceOnUse">
<stop stop-color="#231F20"/>
<stop offset="1" stop-color="white"/>
</linearGradient>
<linearGradient id="paint12_linear_685_841" x1="154.674" y1="126.851" x2="246.336" y2="195.643" gradientUnits="userSpaceOnUse">
<stop stop-color="#231F20"/>
<stop offset="1" stop-color="white"/>
</linearGradient>
<linearGradient id="paint13_linear_685_841" x1="132.429" y1="248.509" x2="152.383" y2="105.803" gradientUnits="userSpaceOnUse">
<stop stop-color="#231F20"/>
<stop offset="0.48176" stop-color="white"/>
</linearGradient>
<linearGradient id="paint14_linear_685_841" x1="151.116" y1="204.953" x2="315.002" y2="216.15" gradientUnits="userSpaceOnUse">
<stop stop-color="#231F20"/>
<stop offset="0.764461" stop-color="white"/>
</linearGradient>
<linearGradient id="paint15_linear_685_841" x1="294.529" y1="167.978" x2="194.422" y2="355.77" gradientUnits="userSpaceOnUse">
<stop offset="0.0913852" stop-color="#231F20"/>
<stop offset="0.781029" stop-color="white"/>
</linearGradient>
<linearGradient id="paint16_linear_685_841" x1="223.5" y1="288.402" x2="176.846" y2="89.9561" gradientUnits="userSpaceOnUse">
<stop stop-color="#231F20"/>
<stop offset="0.635996" stop-color="white"/>
</linearGradient>
<linearGradient id="paint17_linear_685_841" x1="317.83" y1="168.308" x2="199.347" y2="359.187" gradientUnits="userSpaceOnUse">
<stop stop-color="#231F20"/>
<stop offset="1" stop-color="white"/>
</linearGradient>
<linearGradient id="paint18_linear_685_841" x1="134.453" y1="187.265" x2="355.426" y2="252.61" gradientUnits="userSpaceOnUse">
<stop stop-color="#231F20"/>
<stop offset="1" stop-color="white"/>
</linearGradient>
<linearGradient id="paint19_linear_685_841" x1="224.794" y1="342.931" x2="94.8747" y2="77.1222" gradientUnits="userSpaceOnUse">
<stop stop-color="#231F20"/>
<stop offset="1" stop-color="white"/>
</linearGradient>
<linearGradient id="paint20_linear_685_841" x1="131.903" y1="295.703" x2="180.098" y2="220.649" gradientUnits="userSpaceOnUse">
<stop stop-color="#231F20"/>
<stop offset="1" stop-color="white"/>
</linearGradient>
<linearGradient id="paint21_linear_685_841" x1="271.964" y1="131.91" x2="207.966" y2="151.211" gradientUnits="userSpaceOnUse">
<stop stop-color="#231F20"/>
<stop offset="1" stop-color="white"/>
</linearGradient>
<linearGradient id="paint22_linear_685_841" x1="152.735" y1="100.837" x2="181.511" y2="169.06" gradientUnits="userSpaceOnUse">
<stop stop-color="#231F20"/>
<stop offset="1" stop-color="white"/>
</linearGradient>
<linearGradient id="paint23_linear_685_841" x1="219.698" y1="271.362" x2="197.078" y2="213.859" gradientUnits="userSpaceOnUse">
<stop stop-color="#231F20"/>
<stop offset="0.0001" stop-color="#343131"/>
<stop offset="1" stop-color="white"/>
</linearGradient>
<linearGradient id="paint24_linear_685_841" x1="60.1616" y1="201.491" x2="118.383" y2="230.33" gradientUnits="userSpaceOnUse">
<stop stop-color="#231F20"/>
<stop offset="1" stop-color="white"/>
</linearGradient>
<linearGradient id="paint25_linear_685_841" x1="234.181" y1="185.246" x2="217.147" y2="182.187" gradientUnits="userSpaceOnUse">
<stop stop-color="#231F20"/>
<stop offset="1" stop-color="white"/>
</linearGradient>
</defs>
</svg>
