<svg width="51" height="50" viewBox="0 0 51 50" fill="none" xmlns="http://www.w3.org/2000/svg">
<ellipse cx="25.6819" cy="24.9999" rx="25" ry="24.9999" fill="#3D006C"/>
<path d="M40.5894 23.9822C40.0342 15.7173 32.9683 9.47309 24.8069 10.0352C20.7413 10.3152 17.1715 12.2322 14.6804 15.1067L14.6735 15.1017C14.6567 15.125 14.641 15.1484 14.6243 15.1718C12.1499 18.0604 10.7582 21.9012 11.0347 26.0178C11.0611 26.4103 11.1067 26.7962 11.1617 27.1788C11.1618 27.179 11.1617 27.1788 11.1617 27.1788C11.1642 27.1962 11.1668 27.2135 11.1692 27.2309C11.2064 27.4833 11.2497 27.7336 11.299 27.9816C11.2991 27.9816 11.2991 27.9817 11.2991 27.9817C11.3 27.9862 11.3009 27.9908 11.3017 27.9953C11.3467 28.2199 11.3966 28.4422 11.4512 28.6627L11.4513 28.6632C11.4513 28.6634 11.4514 28.6636 11.4514 28.6638C13.162 35.5722 19.5537 40.4652 26.8172 39.9648C34.9785 39.4027 41.1446 32.2469 40.5894 23.9822ZM37.3652 24.2042C37.4336 25.2218 37.3704 26.218 37.1915 27.1765C37.1893 27.1709 37.1876 27.1651 37.1852 27.1598C36.1114 24.5016 33.9872 22.5826 32.1193 21.5225C32.4975 17.0184 30.9886 15.121 29.2809 14.8123C29.2344 14.8032 29.1877 14.7955 29.1402 14.7895C27.7849 14.6134 26.5455 15.5836 26.3719 16.9562C26.198 18.3287 27.1561 19.5839 28.5113 19.7599C28.6295 19.7751 28.7465 19.7794 28.8622 19.7775C28.8698 19.9295 28.8745 20.0909 28.8757 20.2598C27.2968 19.8635 25.8207 19.786 24.4751 19.9086C23.9718 19.9426 23.4682 20.0066 22.9674 20.1017C23.1353 18.5806 23.6987 16.8733 24.792 15.6237C25.849 14.4158 27.4204 13.7235 29.1345 13.9011C29.4595 13.9347 29.8062 14.0155 30.1183 14.1217C30.1327 14.1265 30.1479 14.1308 30.1621 14.1357C30.1623 14.1355 30.1625 14.1351 30.1628 14.1349C34.1332 15.7727 37.0552 19.5886 37.3652 24.2042ZM27.0414 26.4953C27.0403 26.4968 27.0393 26.4985 27.0381 26.5002C26.6847 27.0164 26.2643 27.5253 25.771 28.0178C25.0312 27.2207 24.4371 26.3624 23.9863 25.4745C23.9631 25.4268 23.9384 25.3817 23.9159 25.3333C23.915 25.3314 23.9142 25.3297 23.9134 25.328C23.6485 24.7598 23.4234 24.1363 23.2491 23.4572C24.3016 23.2065 25.3339 23.1143 26.3196 23.1627C26.3718 23.1663 26.4228 23.1671 26.4754 23.1718C26.4773 23.1718 26.4793 23.1719 26.4813 23.1721C27.0987 23.2238 27.7433 23.3378 28.4101 23.524C28.0984 24.572 27.6612 25.5231 27.1269 26.3631C27.0979 26.407 27.0715 26.4513 27.0414 26.4953ZM21.9801 13.936C21.9773 13.9394 21.9743 13.9429 21.9716 13.9465C20.236 16.2162 19.6567 19.0369 19.6835 21.2048C15.643 23.1252 14.7748 25.3972 15.3647 27.0492C15.3801 27.0944 15.3969 27.1392 15.4155 27.1838C15.9426 28.4605 17.3921 29.0623 18.6526 28.5283C19.9133 27.9946 20.5076 26.5267 19.9806 25.2502C19.9345 25.139 19.8796 25.0342 19.8202 24.9337C19.9477 24.8499 20.085 24.7643 20.2306 24.6777C20.6812 26.2608 21.3478 27.6001 22.1256 28.7191C22.4058 29.1427 22.7119 29.5513 23.0426 29.9425C21.6578 30.556 19.9155 30.9157 18.2999 30.5816C16.7384 30.2588 15.3608 29.2268 14.6556 27.6346C14.5219 27.3327 14.4177 26.9884 14.3524 26.6616C14.3122 26.3759 14.2785 26.0881 14.2589 25.7958C13.898 20.4226 17.1897 15.6391 21.9801 13.936ZM26.5979 36.6998C23.4472 36.9169 20.502 35.8284 18.276 33.8938C21.0846 34.2811 23.7865 33.3787 25.627 32.2713C29.2911 34.8566 31.669 34.4825 32.7873 33.1388C32.8181 33.1027 32.8481 33.0654 32.877 33.0269C33.7053 31.9263 33.4953 30.3541 32.4084 29.5156C31.3214 28.6769 29.769 28.8895 28.9408 29.99C28.8687 30.0863 28.8067 30.1865 28.7504 30.2889C28.616 30.2193 28.4749 30.1424 28.329 30.0586C29.4586 28.8713 30.2636 27.6147 30.8321 26.3723C31.0547 25.9141 31.2516 25.4403 31.421 24.9535C32.6385 25.8614 33.8184 27.2101 34.3408 28.7947C34.8452 30.3258 34.6518 32.05 33.6427 33.4645C33.4515 33.7328 33.2089 33.9963 32.962 34.217C32.9584 34.2202 32.955 34.2237 32.9514 34.2269C31.1861 35.632 29.002 36.5341 26.5979 36.6998Z" fill="url(#paint0_linear_61_7)"/>
<g style="mix-blend-mode:hard-light" opacity="0.69">
<path d="M40.5894 23.9822C40.0342 15.7173 32.9683 9.47309 24.8069 10.0352C20.7413 10.3152 17.1715 12.2322 14.6804 15.1067L14.6735 15.1017C14.6567 15.125 14.641 15.1484 14.6243 15.1718C12.1499 18.0604 10.7582 21.9012 11.0347 26.0178C11.0611 26.4103 11.1067 26.7962 11.1617 27.1788C11.1642 27.1962 11.1668 27.2135 11.1692 27.2309C11.2064 27.4833 11.2497 27.7336 11.299 27.9816L11.2991 27.9817C11.3 27.9862 11.3009 27.9908 11.3017 27.9953C11.3467 28.2199 11.3966 28.4422 11.4512 28.6627L11.4513 28.6632C11.4513 28.6634 11.4514 28.6636 11.4514 28.6638C13.162 35.5722 19.5537 40.4652 26.8172 39.9648C34.9785 39.4027 41.1446 32.2469 40.5894 23.9822ZM37.3652 24.2042C37.4336 25.2218 37.3704 26.218 37.1915 27.1765C37.1893 27.1709 37.1876 27.1651 37.1852 27.1598C36.1114 24.5016 33.9872 22.5826 32.1193 21.5225C32.4975 17.0184 30.9886 15.121 29.2809 14.8123C29.2344 14.8032 29.1877 14.7955 29.1402 14.7895C27.7849 14.6134 26.5455 15.5836 26.3719 16.9562C26.198 18.3287 27.1561 19.5839 28.5113 19.7599C28.6295 19.7751 28.7465 19.7794 28.8622 19.7775C28.8698 19.9295 28.8745 20.0909 28.8757 20.2598C27.2968 19.8635 25.8207 19.786 24.4751 19.9086C23.9718 19.9426 23.4682 20.0066 22.9674 20.1017C23.1353 18.5806 23.6987 16.8733 24.792 15.6237C25.849 14.4158 27.4204 13.7235 29.1345 13.9011C29.4595 13.9347 29.8062 14.0155 30.1183 14.1217C30.1327 14.1265 30.1479 14.1308 30.1621 14.1357C30.1623 14.1355 30.1625 14.1351 30.1628 14.1349C34.1332 15.7727 37.0552 19.5886 37.3652 24.2042ZM27.0414 26.4953C27.0403 26.4968 27.0393 26.4985 27.0381 26.5002C26.6847 27.0164 26.2643 27.5253 25.771 28.0178C25.0312 27.2207 24.4371 26.3624 23.9863 25.4745C23.9631 25.4268 23.9384 25.3817 23.9159 25.3333C23.915 25.3314 23.9142 25.3297 23.9134 25.328C23.6485 24.7598 23.4234 24.1363 23.2491 23.4572C24.3016 23.2065 25.3339 23.1143 26.3196 23.1627C26.3718 23.1663 26.4228 23.1671 26.4754 23.1718C26.4773 23.1718 26.4793 23.1719 26.4813 23.1721C27.0987 23.2238 27.7433 23.3378 28.4101 23.524C28.0984 24.572 27.6612 25.5231 27.1269 26.3631C27.0979 26.407 27.0715 26.4513 27.0414 26.4953ZM21.9801 13.936C21.9773 13.9394 21.9743 13.9429 21.9716 13.9465C20.236 16.2162 19.6567 19.0369 19.6835 21.2048C15.643 23.1252 14.7748 25.3972 15.3647 27.0492C15.3801 27.0944 15.3969 27.1392 15.4155 27.1838C15.9426 28.4605 17.3921 29.0623 18.6526 28.5283C19.9133 27.9946 20.5076 26.5267 19.9806 25.2502C19.9345 25.139 19.8796 25.0342 19.8202 24.9337C19.9477 24.8499 20.085 24.7643 20.2306 24.6777C20.6812 26.2608 21.3478 27.6001 22.1256 28.7191C22.4058 29.1427 22.7119 29.5513 23.0426 29.9425C21.6578 30.556 19.9155 30.9157 18.2999 30.5816C16.7384 30.2588 15.3608 29.2268 14.6556 27.6346C14.5219 27.3327 14.4177 26.9884 14.3524 26.6616C14.3122 26.3759 14.2785 26.0881 14.2589 25.7958C13.898 20.4226 17.1897 15.6391 21.9801 13.936ZM26.5979 36.6998C23.4472 36.9169 20.502 35.8284 18.276 33.8938C21.0846 34.2811 23.7865 33.3787 25.627 32.2713C29.2911 34.8566 31.669 34.4825 32.7873 33.1388C32.8181 33.1027 32.8481 33.0654 32.877 33.0269C33.7053 31.9263 33.4953 30.3541 32.4084 29.5156C31.3214 28.6769 29.769 28.8895 28.9408 29.99C28.8687 30.0863 28.8067 30.1865 28.7504 30.2889C28.6159 30.2193 28.4749 30.1424 28.329 30.0586C29.4586 28.8713 30.2636 27.6147 30.8321 26.3723C31.0547 25.9141 31.2516 25.4403 31.421 24.9535C32.6385 25.8614 33.8184 27.2101 34.3408 28.7947C34.8452 30.3258 34.6518 32.05 33.6427 33.4645C33.4515 33.7328 33.2089 33.9963 32.962 34.217C32.9584 34.2202 32.955 34.2237 32.9514 34.2269C31.1861 35.632 29.002 36.5341 26.5979 36.6998Z" fill="url(#paint1_linear_61_7)"/>
<path style="mix-blend-mode:overlay" d="M29.2813 14.8127C29.2349 14.8037 29.1882 14.796 29.1407 14.7899C28.9009 14.7589 28.6652 14.7653 28.4378 14.8017C29.8549 15.5824 30.8879 17.7574 30.3448 22.0478C30.1648 23.4687 29.7476 24.821 29.1451 26.062C28.6569 27.1287 27.9927 28.2059 27.0996 29.241C27.5285 29.5667 27.9466 29.8393 28.3295 30.0591C29.4591 28.8717 30.264 27.6152 30.8325 26.3727C31.4351 25.132 31.8524 23.7796 32.0321 22.3587C32.6789 17.2504 31.0912 15.1399 29.2813 14.8127Z" fill="url(#paint2_radial_61_7)"/>
<path d="M30.3446 22.0471C30.8877 17.7567 29.8546 15.5817 28.4376 14.801C28.3824 14.8099 28.3281 14.8219 28.2739 14.8345C29.6611 15.6422 30.6592 17.815 30.1235 22.0471C29.9435 23.4681 29.5263 24.8204 28.9238 26.0613C28.4517 27.0928 27.8133 28.1337 26.9646 29.1372C27.0098 29.1726 27.0546 29.2061 27.0996 29.2403C27.9925 28.2052 28.6568 27.128 29.1449 26.0613C29.7474 24.8204 30.1646 23.4681 30.3446 22.0471Z" fill="white"/>
<path style="mix-blend-mode:overlay" d="M24.9579 31.7785C24.8247 31.6759 24.6966 31.5682 24.5684 31.4607C22.4774 32.3443 19.5785 32.8981 16.7002 32.2219C17.1716 32.8302 17.6976 33.3921 18.2754 33.8942C21.084 34.2813 23.7858 33.379 25.6264 32.2716C25.408 32.1176 25.1856 31.9543 24.9579 31.7785Z" fill="url(#paint3_radial_61_7)"/>
<path style="mix-blend-mode:overlay" d="M24.5691 31.4606C24.5051 31.4069 24.4406 31.3537 24.3779 31.2988C22.2708 32.1514 19.3589 32.661 16.4871 31.9362C16.557 32.0325 16.6281 32.1279 16.7009 32.2217C19.5793 32.898 22.4781 32.3442 24.5691 31.4606Z" fill="url(#paint4_linear_61_7)"/>
<path style="mix-blend-mode:overlay" d="M15.3655 27.0519C15.3809 27.0969 15.3977 27.1419 15.4163 27.1865C15.5096 27.4123 15.633 27.616 15.7778 27.797C15.7369 26.1639 17.0804 24.1704 21.0211 22.5015C22.3261 21.9489 23.6912 21.6386 25.0536 21.5467C26.2101 21.4413 27.4635 21.4854 28.7951 21.7509C28.8591 21.212 28.8832 20.7091 28.8798 20.2634C27.2995 19.8662 25.8224 19.7887 24.4758 19.9113C23.1134 20.0032 21.7483 20.3135 20.4432 20.8661C15.7513 22.8532 14.7403 25.3008 15.3655 27.0519Z" fill="url(#paint5_radial_61_7)"/>
<path d="M21.0203 22.5013C17.0797 24.1702 15.7362 26.1637 15.777 27.7968C15.8123 27.8409 15.8497 27.8825 15.8876 27.9235C15.8845 26.3035 17.2438 24.3413 21.1309 22.6953C22.4359 22.1426 23.801 21.8323 25.1634 21.7404C26.2817 21.6386 27.491 21.678 28.7734 21.9206C28.7811 21.8631 28.7876 21.8071 28.7943 21.7507C27.4626 21.4852 26.2094 21.441 25.0528 21.5465C23.6904 21.6383 22.3255 21.9487 21.0203 22.5013Z" fill="white"/>
<path style="mix-blend-mode:overlay" d="M32.0359 22.3597C32.0147 22.5279 31.9867 22.694 31.959 22.8603C33.7598 24.2522 35.6831 26.5177 36.5436 29.3801C36.8283 28.6626 37.0459 27.9204 37.1863 27.1625C36.1131 24.5058 33.9906 22.5873 32.1232 21.527C32.1006 21.7956 32.0723 22.0721 32.0359 22.3597Z" fill="url(#paint6_linear_61_7)"/>
<path style="mix-blend-mode:overlay" d="M31.9589 22.8597C31.9449 22.9427 31.9317 23.0257 31.916 23.1083C33.6988 24.5299 35.5908 26.8287 36.4068 29.7098C36.4539 29.6002 36.4999 29.4903 36.5437 29.3795C35.6832 26.5171 33.7599 24.2517 31.9589 22.8597Z" fill="url(#paint7_linear_61_7)"/>
<path style="mix-blend-mode:overlay" d="M32.7887 33.1358C32.8195 33.0995 32.8495 33.0626 32.8782 33.0238C33.0248 32.829 33.1373 32.6189 33.2196 32.4014C31.8437 33.2539 29.4672 33.0723 26.0696 30.4507C24.9443 29.5825 23.9965 28.5404 23.2366 27.3917C22.5683 26.43 21.9794 25.3088 21.5405 24.0083C21.0478 24.2215 20.6055 24.4519 20.2261 24.6778C20.6767 26.2619 21.3488 27.5962 22.1271 28.716C22.8869 29.865 23.8346 30.907 24.9599 31.7753C29.0052 34.8965 31.6037 34.5595 32.7887 33.1358Z" fill="url(#paint8_radial_61_7)"/>
<path d="M26.0702 30.4501C29.4677 33.0717 31.8442 33.2531 33.2201 32.4008C33.2403 32.3478 33.2572 32.294 33.2734 32.2403C31.8894 33.0531 29.532 32.8419 26.1806 30.2562C25.0554 29.3879 24.1076 28.3459 23.3478 27.1969C22.7016 26.2673 22.1307 25.1869 21.6968 23.9408C21.6441 23.9629 21.5927 23.9853 21.541 24.0077C21.9799 25.3081 22.5689 26.4292 23.2372 27.391C23.997 28.5398 24.9447 29.5819 26.0702 30.4501Z" fill="white"/>
<path style="mix-blend-mode:overlay" d="M20.442 20.8619C20.5964 20.7966 20.7524 20.7381 20.9086 20.6794C21.1984 18.4037 22.1742 15.5845 24.1917 13.3983C23.4359 13.5074 22.6924 13.6879 21.974 13.9435C20.2387 16.2133 19.6594 19.0339 19.6862 21.2017C19.9273 21.0874 20.1779 20.9738 20.442 20.8619Z" fill="url(#paint9_radial_61_7)"/>
<path style="mix-blend-mode:overlay" d="M20.9075 20.6789C20.9855 20.6498 21.0632 20.6198 21.1417 20.5922C21.4659 18.3179 22.4859 15.5094 24.5417 13.3532C24.4245 13.3663 24.3075 13.381 24.1908 13.398C22.1732 15.5841 21.1974 18.4032 20.9075 20.6789Z" fill="url(#paint10_linear_61_7)"/>
<path style="mix-blend-mode:multiply" d="M24.807 10.0352C20.7413 10.3153 17.1716 12.2323 14.6805 15.1067C14.6617 15.1286 14.643 15.1502 14.6243 15.1721L14.6244 15.1719C15.1094 15.6592 16.6944 16.6197 17.3368 17.0203C18.5981 15.6465 20.1838 14.5747 21.9801 13.9361C22.1057 13.7723 22.2356 13.6107 22.3734 13.4532C24.0465 11.5414 26.3315 10.5308 28.9815 10.5308C29.2765 10.5308 29.8772 10.5784 29.8901 10.5793C28.2836 10.1119 26.5713 9.91371 24.807 10.0352Z" fill="url(#paint11_linear_61_7)"/>
<path style="mix-blend-mode:multiply" d="M26.5981 36.6998C23.4473 36.9169 20.5021 35.8285 18.2762 33.8939C18.069 33.8655 17.8614 33.8311 17.6534 33.788C15.1817 33.2766 13.1751 31.778 11.8501 29.4539C11.7026 29.1954 11.5706 28.9317 11.4517 28.6642C13.1623 35.5725 19.5539 40.4653 26.8175 39.9648C26.8496 39.2074 26.6291 37.4499 26.5981 36.6998Z" fill="url(#paint12_linear_61_7)"/>
<path style="mix-blend-mode:multiply" d="M40.5889 23.9821C40.134 23.9348 37.9113 24.1127 37.3648 24.2041C37.4332 25.2218 37.37 26.2179 37.1911 27.1764C37.2677 27.367 37.3404 27.5606 37.406 27.7589C38.2043 30.1822 37.9261 32.6913 36.6012 35.0154C36.4562 35.2693 36.3001 35.5126 36.1342 35.7465C36.131 35.7512 36.1273 35.7563 36.1245 35.7599C36.1245 35.7599 36.1314 35.7541 36.1355 35.7505C39.1438 32.7863 40.8962 28.5552 40.5889 23.9821Z" fill="url(#paint13_linear_61_7)"/>
<path style="mix-blend-mode:multiply" d="M29.1341 13.9008C29.459 13.9344 29.8058 14.0153 30.1178 14.1215C30.1322 14.1263 30.1474 14.1305 30.1616 14.1355C30.1616 14.1355 30.1621 14.1348 30.1623 14.1343C31.44 14.6616 32.6082 15.4154 33.6167 16.3478C33.6189 16.3495 33.6212 16.3509 33.6234 16.3529C34.1093 15.7902 35.0452 15.1718 35.0452 15.1718C35.0452 15.1718 33.6122 13.6874 31.4205 13.2266C29.8862 12.9041 26.4255 12.5915 24.2429 16.3529C24.2429 16.3529 24.2515 16.3445 24.2644 16.3326C24.4257 16.0855 24.5975 15.8453 24.7916 15.6234C25.8485 14.4156 27.4199 13.7231 29.1341 13.9008Z" fill="url(#paint14_linear_61_7)"/>
<path style="mix-blend-mode:multiply" d="M33.6424 33.4636C33.4513 33.7315 33.2087 33.9954 32.9618 34.2161C32.9505 34.2262 32.9393 34.2374 32.928 34.2475C32.928 34.2475 32.9284 34.2482 32.9286 34.2487C31.8388 35.1056 30.6102 35.7533 29.3087 36.1717C29.306 36.1725 29.3036 36.1736 29.301 36.1746C29.5392 36.8823 29.6001 38.0121 29.6001 38.0121C29.6001 38.0121 31.586 37.4977 33.0758 35.8058C34.1188 34.6215 36.1163 31.7428 33.9913 27.948C33.9913 27.948 33.9938 27.9598 33.9977 27.9769C34.1284 28.2421 34.248 28.5127 34.3405 28.7938C34.8451 30.3249 34.6517 32.0491 33.6424 33.4636Z" fill="url(#paint15_linear_61_7)"/>
<path style="mix-blend-mode:multiply" d="M14.6608 27.6387C14.5271 27.3369 14.4228 26.9924 14.3576 26.6657C14.3545 26.6506 14.3504 26.6352 14.3476 26.6202H14.3464C14.1584 25.236 14.2189 23.8344 14.5119 22.4841C14.5124 22.481 14.5126 22.4784 14.513 22.4757C13.7888 22.3308 12.7921 21.8191 12.7921 21.8191C12.7921 21.8191 12.2392 23.8182 12.9411 25.9705C13.4324 27.4775 14.8954 30.669 19.2032 30.7023C19.2032 30.7023 19.1918 30.6989 19.1752 30.6934C18.8832 30.6755 18.592 30.6451 18.3051 30.5857C16.7437 30.2629 15.366 29.2311 14.6608 27.6387Z" fill="url(#paint16_linear_61_7)"/>
<path style="mix-blend-mode:multiply" d="M28.5117 19.7597C28.6299 19.775 28.7469 19.7792 28.8627 19.7772C28.8627 19.7772 28.7853 18.2187 28.5963 17.419C28.4073 16.6196 28.1287 16.0899 27.8224 15.7903C27.6032 15.5756 26.9107 15.3082 26.3722 16.956C26.1983 18.3285 27.1564 19.5838 28.5117 19.7597Z" fill="url(#paint17_linear_61_7)"/>
<path style="mix-blend-mode:multiply" d="M19.9815 25.2526C19.9353 25.1411 19.8804 25.0366 19.821 24.936C19.821 24.936 18.5268 25.783 17.9374 26.3487C17.3481 26.9142 17.0346 27.4233 16.9314 27.8419C16.8575 28.1414 16.975 28.8824 18.6535 28.5308C19.9141 27.997 20.5085 26.5291 19.9815 25.2526Z" fill="url(#paint18_linear_61_7)"/>
<path style="mix-blend-mode:multiply" d="M28.9428 29.9861C28.8708 30.0823 28.8088 30.1826 28.7524 30.2853C28.7524 30.2853 30.124 30.9967 30.9024 31.2308C31.6805 31.4649 32.2729 31.485 32.6823 31.3665C32.9754 31.2814 33.5504 30.8079 32.4104 29.512C31.3236 28.673 29.7712 28.8855 28.9428 29.9861Z" fill="url(#paint19_linear_61_7)"/>
<path style="mix-blend-mode:multiply" d="M28.4103 23.5239C28.0985 24.5721 27.6612 25.523 27.1271 26.363C27.0979 26.407 27.0715 26.4513 27.0415 26.4952C27.0403 26.4967 27.0393 26.4984 27.0382 26.5002C26.6847 27.0164 26.2644 27.5254 25.771 28.0178C26.1101 28.3829 26.4768 28.7366 26.8795 29.0722C27.3852 29.4764 27.8809 29.8012 28.3292 30.0586C29.4588 28.8713 30.2636 27.6146 30.8321 26.3723C31.0547 25.9141 31.2516 25.4403 31.421 24.9535C30.8999 24.5649 30.372 24.256 29.8855 24.046C29.3826 23.8287 28.8909 23.6583 28.4103 23.5239Z" fill="url(#paint20_linear_61_7)"/>
<path style="mix-blend-mode:multiply" d="M18.2762 33.8939C21.0849 34.2812 23.7867 33.3787 25.6272 32.2713C25.4088 32.1173 25.1864 31.954 24.9587 31.7784C24.2483 31.2302 23.6091 30.6126 23.0427 29.9426C21.6581 30.556 19.9157 30.9158 18.3002 30.5817C16.7387 30.2588 15.3609 29.2269 14.6558 27.6347C14.5221 27.3327 14.4179 26.9884 14.3525 26.6616C14.7607 29.5613 16.2055 32.0944 18.2762 33.8939Z" fill="url(#paint21_linear_61_7)"/>
<path style="mix-blend-mode:multiply" d="M25.7715 28.0174C25.032 27.2203 24.4377 26.3622 23.9868 25.4741C23.9638 25.4266 23.9391 25.3814 23.9166 25.3329C23.9157 25.3312 23.9149 25.3294 23.914 25.3277C23.6492 24.7594 23.424 24.1359 23.2497 23.4569C22.7689 23.5715 22.2841 23.7159 21.7969 23.9009C21.1997 24.1417 20.6747 24.4133 20.2312 24.6775C20.6818 26.2606 21.3485 27.5998 22.1263 28.7188C22.4064 29.1424 22.7124 29.5511 23.0432 29.9421C23.6369 29.6795 24.166 29.3705 24.5893 29.0484C25.0258 28.7165 25.4171 28.371 25.7715 28.0174Z" fill="url(#paint22_linear_61_7)"/>
<path style="mix-blend-mode:multiply" d="M21.9714 13.9467C20.236 16.2163 19.6567 19.037 19.6835 21.2049C19.9255 21.0898 20.1773 20.9758 20.4424 20.8635C21.2654 20.5152 22.1124 20.2635 22.9674 20.1018C23.1353 18.5807 23.6987 16.8734 24.792 15.6238C25.849 14.4159 27.4203 13.7236 29.1345 13.9012C29.4595 13.9349 29.8061 14.0156 30.1183 14.1219C30.1327 14.1266 30.1479 14.1309 30.1621 14.1358L30.1628 14.135C28.5836 13.4833 26.839 13.1754 25.0262 13.3004C23.9615 13.3736 22.9414 13.5943 21.9801 13.9361C21.9774 13.9395 21.9743 13.943 21.9714 13.9467Z" fill="url(#paint23_linear_61_7)"/>
<path style="mix-blend-mode:multiply" d="M37.1853 27.1839C36.1116 24.5256 33.9874 22.6068 32.1194 21.5467C32.0969 21.8162 32.0685 22.094 32.0318 22.3824C31.9184 23.2785 31.7102 24.147 31.4211 24.9776C32.6387 25.8855 33.8185 27.2343 34.341 28.8189C34.8453 30.3499 34.6518 32.074 33.6427 33.4886C33.4517 33.7568 33.2091 34.0205 32.9622 34.2411C32.9586 34.2444 32.9552 34.2478 32.9515 34.251C35.1263 32.5202 36.6642 30.0257 37.1916 27.2006C37.1895 27.195 37.1878 27.1892 37.1853 27.1839Z" fill="url(#paint24_linear_61_7)"/>
<path style="mix-blend-mode:multiply" d="M22.9593 21.9055C23.0249 22.4541 23.1245 22.9697 23.2497 23.4572C24.3023 23.2065 25.3345 23.1143 26.3202 23.1628C26.3724 23.1664 26.4234 23.1672 26.4762 23.1718C26.478 23.1718 26.4799 23.172 26.482 23.1721C27.0993 23.2238 27.7439 23.3378 28.4107 23.524C28.5535 23.0446 28.6724 22.5469 28.7579 22.0268C28.8508 21.3803 28.8806 20.7822 28.8765 20.2599C27.2976 19.8636 25.8214 19.7861 24.4757 19.9087C23.9724 19.9427 23.4689 20.0068 22.968 20.1017C22.8959 20.7542 22.8954 21.3728 22.9593 21.9055Z" fill="url(#paint25_linear_61_7)"/>
</g>
<defs>
<linearGradient id="paint0_linear_61_7" x1="15.7037" y1="35.2372" x2="34.8296" y2="16.3511" gradientUnits="userSpaceOnUse">
<stop offset="0.001139" stop-color="#E6007A"/>
<stop offset="0.207149" stop-color="#703AC2"/>
<stop offset="0.456011" stop-color="#0070EB"/>
<stop offset="0.768132" stop-color="#0297FB"/>
<stop offset="1" stop-color="#0AE2FF"/>
</linearGradient>
<linearGradient id="paint1_linear_61_7" x1="15.7037" y1="35.2373" x2="34.8296" y2="16.3511" gradientUnits="userSpaceOnUse">
<stop offset="0.001139" stop-color="#E6007A"/>
<stop offset="0.207149" stop-color="#703AC2"/>
<stop offset="0.456011" stop-color="#0070EB"/>
<stop offset="0.768132" stop-color="#0297FB"/>
<stop offset="1" stop-color="#0AE2FF"/>
</linearGradient>
<radialGradient id="paint2_radial_61_7" cx="0" cy="0" r="1" gradientUnits="userSpaceOnUse" gradientTransform="translate(28.1158 24.1164) scale(32.8446 11.191)">
<stop stop-color="white"/>
<stop offset="1" stop-color="white" stop-opacity="0"/>
</radialGradient>
<radialGradient id="paint3_radial_61_7" cx="0" cy="0" r="1" gradientUnits="userSpaceOnUse" gradientTransform="translate(27.6229 22.874) scale(10.8746 39.429)">
<stop stop-color="white"/>
<stop offset="1" stop-color="white" stop-opacity="0"/>
</radialGradient>
<linearGradient id="paint4_linear_61_7" x1="12.1188" y1="26.7642" x2="23.6981" y2="26.7405" gradientUnits="userSpaceOnUse">
<stop stop-color="white" stop-opacity="0"/>
<stop offset="1" stop-color="white"/>
</linearGradient>
<radialGradient id="paint5_radial_61_7" cx="0" cy="0" r="1" gradientUnits="userSpaceOnUse" gradientTransform="translate(23.7881 21.1757) rotate(-108.091) scale(19.6351 13.3847)">
<stop stop-color="white"/>
<stop offset="1" stop-color="white" stop-opacity="0"/>
</radialGradient>
<linearGradient id="paint6_linear_61_7" x1="33.6383" y1="33.5811" x2="23.8969" y2="8.23282" gradientUnits="userSpaceOnUse">
<stop offset="0.137043" stop-color="white" stop-opacity="0"/>
<stop offset="0.315161" stop-color="white"/>
</linearGradient>
<linearGradient id="paint7_linear_61_7" x1="39.0249" y1="38.7254" x2="33.2715" y2="24.7931" gradientUnits="userSpaceOnUse">
<stop stop-color="white" stop-opacity="0"/>
<stop offset="1" stop-color="white"/>
</linearGradient>
<radialGradient id="paint8_radial_61_7" cx="0" cy="0" r="1" gradientUnits="userSpaceOnUse" gradientTransform="translate(24.2331 27.5411) rotate(113.788) scale(15.9169 13.5668)">
<stop stop-color="white"/>
<stop offset="1" stop-color="white" stop-opacity="0"/>
</radialGradient>
<radialGradient id="paint9_radial_61_7" cx="0" cy="0" r="1" gradientUnits="userSpaceOnUse" gradientTransform="translate(22.3494 26.2679) rotate(134.27) scale(15.4286 17.8097)">
<stop stop-color="white"/>
<stop offset="1" stop-color="white" stop-opacity="0"/>
</radialGradient>
<linearGradient id="paint10_linear_61_7" x1="39.0555" y1="11.0005" x2="35.1069" y2="24.8851" gradientUnits="userSpaceOnUse">
<stop offset="0.229866" stop-color="white" stop-opacity="0"/>
<stop offset="1" stop-color="white"/>
</linearGradient>
<linearGradient id="paint11_linear_61_7" x1="31.2048" y1="19.3079" x2="21.2183" y2="20.6104" gradientUnits="userSpaceOnUse">
<stop stop-color="#231F20"/>
<stop offset="1" stop-color="white"/>
</linearGradient>
<linearGradient id="paint12_linear_61_7" x1="19.6072" y1="15.6937" x2="30.0021" y2="23.495" gradientUnits="userSpaceOnUse">
<stop stop-color="#231F20"/>
<stop offset="1" stop-color="white"/>
</linearGradient>
<linearGradient id="paint13_linear_61_7" x1="17.0845" y1="29.4902" x2="19.3473" y2="13.3067" gradientUnits="userSpaceOnUse">
<stop stop-color="#231F20"/>
<stop offset="0.48176" stop-color="white"/>
</linearGradient>
<linearGradient id="paint14_linear_61_7" x1="19.2039" y1="24.5508" x2="37.7893" y2="25.8206" gradientUnits="userSpaceOnUse">
<stop stop-color="#231F20"/>
<stop offset="0.764461" stop-color="white"/>
</linearGradient>
<linearGradient id="paint15_linear_61_7" x1="35.4674" y1="20.3576" x2="24.1148" y2="41.6541" gradientUnits="userSpaceOnUse">
<stop offset="0.0913852" stop-color="#231F20"/>
<stop offset="0.781029" stop-color="white"/>
</linearGradient>
<linearGradient id="paint16_linear_61_7" x1="27.4123" y1="34.0143" x2="22.1216" y2="11.5096" gradientUnits="userSpaceOnUse">
<stop stop-color="#231F20"/>
<stop offset="0.635996" stop-color="white"/>
</linearGradient>
<linearGradient id="paint17_linear_61_7" x1="38.1098" y1="20.3951" x2="24.6733" y2="42.0416" gradientUnits="userSpaceOnUse">
<stop stop-color="#231F20"/>
<stop offset="1" stop-color="white"/>
</linearGradient>
<linearGradient id="paint18_linear_61_7" x1="17.3143" y1="22.5449" x2="42.3736" y2="29.9553" gradientUnits="userSpaceOnUse">
<stop stop-color="#231F20"/>
<stop offset="1" stop-color="white"/>
</linearGradient>
<linearGradient id="paint19_linear_61_7" x1="27.5594" y1="40.1981" x2="12.826" y2="10.0542" gradientUnits="userSpaceOnUse">
<stop stop-color="#231F20"/>
<stop offset="1" stop-color="white"/>
</linearGradient>
<linearGradient id="paint20_linear_61_7" x1="17.0249" y1="34.8422" x2="22.4904" y2="26.3308" gradientUnits="userSpaceOnUse">
<stop stop-color="#231F20"/>
<stop offset="1" stop-color="white"/>
</linearGradient>
<linearGradient id="paint21_linear_61_7" x1="32.9086" y1="16.2674" x2="25.6509" y2="18.4562" gradientUnits="userSpaceOnUse">
<stop stop-color="#231F20"/>
<stop offset="1" stop-color="white"/>
</linearGradient>
<linearGradient id="paint22_linear_61_7" x1="19.3875" y1="12.7436" x2="22.6508" y2="20.4804" gradientUnits="userSpaceOnUse">
<stop stop-color="#231F20"/>
<stop offset="1" stop-color="white"/>
</linearGradient>
<linearGradient id="paint23_linear_61_7" x1="26.9813" y1="32.0819" x2="24.4161" y2="25.5608" gradientUnits="userSpaceOnUse">
<stop stop-color="#231F20"/>
<stop offset="0.0001" stop-color="#343131"/>
<stop offset="1" stop-color="white"/>
</linearGradient>
<linearGradient id="paint24_linear_61_7" x1="8.88909" y1="24.1582" x2="15.4917" y2="27.4286" gradientUnits="userSpaceOnUse">
<stop stop-color="#231F20"/>
<stop offset="1" stop-color="white"/>
</linearGradient>
<linearGradient id="paint25_linear_61_7" x1="28.6239" y1="22.3159" x2="26.6922" y2="21.969" gradientUnits="userSpaceOnUse">
<stop stop-color="#231F20"/>
<stop offset="1" stop-color="white"/>
</linearGradient>
</defs>
</svg>
