<svg width="32" height="32" viewBox="0 0 32 32" fill="none" xmlns="http://www.w3.org/2000/svg">
<rect width="32" height="32" rx="8" fill="#F9F6FF"/>
<path d="M27.9698 15.1857C27.5209 8.57395 21.7972 3.57735 15.1854 4.02853C11.8927 4.25172 9.00086 5.78526 6.98255 8.08677L6.97775 8.08197C6.96336 8.10117 6.95136 8.12037 6.93696 8.13717C4.93063 10.4483 3.80268 13.5202 4.02827 16.8128C4.04987 17.1272 4.08587 17.4344 4.13147 17.7416C4.13147 17.756 4.13627 17.7704 4.13867 17.7824C4.16986 17.984 4.20346 18.1856 4.24426 18.3823V18.3944C4.28266 18.5744 4.32346 18.752 4.36666 18.9272C5.7514 24.4541 10.9304 28.3684 16.815 27.9676C23.4267 27.5188 28.4209 21.7926 27.9721 15.1809L27.9698 15.1857ZM25.3586 15.3633C25.4138 16.1768 25.3634 16.9736 25.217 17.7416C25.217 17.7368 25.2146 17.732 25.2122 17.7272C24.3434 15.6009 22.6203 14.0649 21.1084 13.2178C21.4156 9.6155 20.1916 8.09637 18.8093 7.84918C18.7709 7.84198 18.7349 7.83478 18.6965 7.82998C17.5974 7.68839 16.5942 8.46595 16.4526 9.5627C16.311 10.6619 17.0885 11.665 18.1853 11.8066C18.2813 11.8186 18.3749 11.821 18.4685 11.821C18.4757 11.9434 18.4781 12.073 18.4805 12.2074C17.2013 11.8906 16.0062 11.8282 14.9142 11.9266C14.5063 11.953 14.0983 12.0058 13.6927 12.0802C13.8295 10.8635 14.2855 9.4979 15.171 8.49716C16.0278 7.52999 17.2997 6.97802 18.6893 7.11961C18.9533 7.14601 19.2341 7.21081 19.4861 7.2972C19.4981 7.302 19.5101 7.3044 19.5221 7.3092C22.7379 8.61955 25.1066 11.6722 25.3562 15.3633H25.3586ZM16.9949 17.1968V17.2016C16.707 17.6144 16.3662 18.0224 15.9654 18.4159C15.3654 17.7776 14.8854 17.0912 14.5207 16.3808C14.5015 16.3424 14.4823 16.3064 14.4631 16.268V16.2632C14.2471 15.8097 14.0647 15.3105 13.9231 14.7657C14.7751 14.5641 15.6126 14.4921 16.4094 14.5305C16.4526 14.5329 16.4934 14.5353 16.5366 14.5377H16.5414C17.0405 14.5785 17.5638 14.6697 18.1037 14.8185C17.8517 15.6561 17.4965 16.4168 17.0645 17.0888C17.0405 17.1248 17.0189 17.1584 16.9949 17.1944V17.1968ZM12.8935 7.14841C12.8935 7.14841 12.8887 7.15321 12.8863 7.15801C11.48 8.97473 11.012 11.2306 11.0336 12.9634C7.76012 14.4993 7.05695 16.316 7.53453 17.6384C7.54653 17.6744 7.56093 17.7104 7.57533 17.7464C8.00251 18.7688 9.17606 19.2487 10.1984 18.8216C11.2208 18.3943 11.7008 17.2208 11.2736 16.1984C11.2352 16.1096 11.192 16.0257 11.144 15.9441C11.2472 15.8769 11.3576 15.8097 11.4776 15.7401C11.8424 17.0072 12.3824 18.0776 13.0135 18.9728C13.2415 19.3111 13.4887 19.6375 13.7575 19.9519C12.6367 20.4415 11.2232 20.7295 9.91523 20.4631C8.65049 20.2039 7.53453 19.3783 6.96336 18.1064C6.85536 17.864 6.77136 17.5904 6.71856 17.3288C6.68496 17.1008 6.65857 16.8704 6.64177 16.6352C6.34898 12.337 9.01526 8.50916 12.8959 7.14841H12.8935ZM16.635 25.3589C14.0815 25.5317 11.696 24.6629 9.89363 23.115C12.1687 23.4245 14.3575 22.7022 15.8478 21.8166C18.8165 23.8854 20.7436 23.5853 21.6484 22.5102C21.6724 22.4814 21.6988 22.4526 21.7204 22.4214C22.3923 21.5406 22.2219 20.2831 21.3412 19.6135C20.4604 18.9416 19.2028 19.1119 18.5333 19.9927C18.4757 20.0695 18.4253 20.1511 18.3797 20.2327C18.2717 20.1775 18.1565 20.1151 18.0389 20.0479C18.9533 19.0975 19.6061 18.092 20.0668 17.0984C20.2468 16.7313 20.4076 16.352 20.5444 15.9633C21.5308 16.6904 22.4859 17.768 22.9107 19.0351C23.3187 20.2591 23.1627 21.639 22.3443 22.7718C22.1883 22.9854 21.994 23.1966 21.7924 23.3742L21.7828 23.3814C20.3524 24.5045 18.5837 25.2269 16.635 25.3589Z" fill="url(#paint0_linear_1852_6773)"/>
<path style="mix-blend-mode:overlay" opacity="0.9" d="M18.8093 7.84923C18.7709 7.84203 18.7349 7.83483 18.6965 7.83003C18.5021 7.80603 18.3101 7.81083 18.1277 7.83963C19.2749 8.46361 20.1124 10.2035 19.6733 13.6354C19.5269 14.773 19.1885 15.8529 18.7013 16.8465C18.3053 17.7009 17.7677 18.5624 17.0454 19.3904C17.3934 19.652 17.7317 19.868 18.0413 20.0456C18.9557 19.0952 19.6085 18.0896 20.0692 17.0961C20.5564 16.1025 20.8948 15.0225 21.0412 13.885C21.5644 9.79798 20.278 8.11082 18.8117 7.84923H18.8093Z" fill="url(#paint1_radial_1852_6773)"/>
<g style="mix-blend-mode:overlay" opacity="0.8">
<g style="mix-blend-mode:overlay">
<path d="M19.6709 13.6378C20.11 10.2059 19.2749 8.46602 18.1253 7.84204C18.0797 7.84924 18.0365 7.85884 17.9933 7.86844C19.1165 8.51402 19.9253 10.2539 19.4909 13.6378C19.3445 14.7754 19.0061 15.8554 18.5189 16.8489C18.1373 17.6745 17.619 18.5072 16.9326 19.3088C16.9686 19.3376 17.0046 19.364 17.043 19.3904C17.7653 18.5624 18.3053 17.7009 18.6989 16.8465C19.1861 15.8529 19.5245 14.773 19.6709 13.6354V13.6378Z" fill="white"/>
</g>
</g>
<path style="mix-blend-mode:overlay" opacity="0.5" d="M15.3079 21.4207C15.1999 21.3391 15.0966 21.2527 14.9934 21.1663C13.2991 21.8743 10.952 22.3158 8.61932 21.7759C9.00092 22.263 9.42808 22.7118 9.89605 23.1126C12.1712 23.4222 14.3599 22.6998 15.8502 21.8143C15.6727 21.6919 15.4927 21.5599 15.3079 21.4207Z" fill="url(#paint2_radial_1852_6773)"/>
<path style="mix-blend-mode:overlay" opacity="0.6" d="M14.991 21.1687C14.9382 21.1255 14.8878 21.0823 14.835 21.0391C13.1287 21.7207 10.7696 22.1287 8.4417 21.5503C8.4993 21.6271 8.5569 21.7039 8.6145 21.7783C10.9472 22.3182 13.2943 21.8767 14.9886 21.1687H14.991Z" fill="url(#paint3_linear_1852_6773)"/>
<path style="mix-blend-mode:overlay" opacity="0.9" d="M7.53699 17.6408C7.54899 17.6768 7.56339 17.7128 7.57779 17.7488C7.65219 17.9288 7.75298 18.092 7.87058 18.2384C7.83698 16.9328 8.92652 15.3369 12.1184 14.0026C13.1768 13.561 14.2807 13.3114 15.3847 13.2394C16.3206 13.1554 17.3358 13.1914 18.4157 13.4026C18.4685 12.9706 18.4877 12.5698 18.4853 12.2123C17.2062 11.8954 16.0087 11.833 14.9167 11.9314C13.8128 12.0058 12.7064 12.2531 11.6504 12.6946C7.84898 14.2834 7.03061 16.2417 7.53699 17.6432V17.6408Z" fill="url(#paint4_radial_1852_6773)"/>
<g style="mix-blend-mode:overlay" opacity="0.8">
<g style="mix-blend-mode:overlay">
<path d="M12.1184 14.0001C8.92652 15.3345 7.83697 16.9304 7.87057 18.236C7.89937 18.272 7.93056 18.3056 7.95936 18.3368C7.95696 17.0408 9.05852 15.4713 12.2072 14.1538C13.2655 13.7121 14.3695 13.4625 15.4735 13.3906C16.3782 13.309 17.3598 13.3402 18.3989 13.5345C18.4061 13.4889 18.4109 13.4434 18.4157 13.3978C17.3358 13.1842 16.3206 13.1506 15.3847 13.2346C14.2807 13.309 13.1743 13.5561 12.1184 13.9977V14.0001Z" fill="white"/>
</g>
</g>
<path style="mix-blend-mode:overlay" opacity="0.4" d="M21.0412 13.8874C21.0244 14.0218 21.0005 14.1538 20.9789 14.2881C22.438 15.4017 23.9955 17.2136 24.6939 19.5031C24.9243 18.9295 25.0995 18.3344 25.2147 17.7296C24.3459 15.6033 22.6252 14.0698 21.1132 13.2202C21.094 13.4362 21.0724 13.6569 21.0436 13.8874H21.0412Z" fill="url(#paint5_radial_1852_6773)"/>
<path style="mix-blend-mode:overlay" opacity="0.5" d="M20.9789 14.2881C20.9669 14.3553 20.9573 14.4201 20.9453 14.4873C22.39 15.6249 23.9211 17.4632 24.5835 19.7695C24.6219 19.6831 24.6579 19.5943 24.6939 19.5055C23.9956 17.216 22.438 15.4041 20.9789 14.2905V14.2881Z" fill="url(#paint6_linear_1852_6773)"/>
<path style="mix-blend-mode:overlay" opacity="0.9" d="M21.6508 22.5078C21.6748 22.479 21.7012 22.4502 21.7228 22.419C21.8404 22.263 21.9316 22.095 21.9988 21.9222C20.8829 22.6038 18.9581 22.4598 16.2054 20.3623C15.2935 19.6687 14.5255 18.8335 13.9111 17.9144C13.3687 17.144 12.8936 16.2489 12.536 15.2073C12.1376 15.3777 11.7776 15.5625 11.4704 15.7425C11.8352 17.0096 12.38 18.0776 13.0112 18.9727C13.628 19.8919 14.3935 20.7247 15.3055 21.4207C18.5837 23.9166 20.6885 23.6478 21.6484 22.5078H21.6508Z" fill="url(#paint7_radial_1852_6773)"/>
<g style="mix-blend-mode:overlay" opacity="0.8">
<g style="mix-blend-mode:overlay">
<path d="M16.2078 20.3599C18.9606 22.4574 20.8853 22.6014 22.0012 21.9198C22.018 21.8766 22.03 21.8334 22.0444 21.7926C20.9237 22.443 19.0134 22.275 16.299 20.2063C15.3871 19.5127 14.6191 18.6775 14.0047 17.7584C13.4815 17.0144 13.0184 16.1505 12.668 15.1545C12.6248 15.1713 12.584 15.1905 12.5408 15.2073C12.896 16.2489 13.3735 17.144 13.916 17.9144C14.5327 18.8335 15.2983 19.6663 16.2102 20.3623L16.2078 20.3599Z" fill="white"/>
</g>
</g>
<path style="mix-blend-mode:overlay" opacity="0.3" d="M11.648 12.6898C11.7728 12.637 11.9 12.5914 12.0248 12.5434C12.26 10.7219 13.0495 8.46837 14.6839 6.71884C14.0719 6.80524 13.4696 6.95163 12.8864 7.15562C11.48 8.97236 11.012 11.2283 11.0336 12.961C11.228 12.8698 11.432 12.7786 11.6456 12.6898H11.648Z" fill="url(#paint8_radial_1852_6773)"/>
<path style="mix-blend-mode:overlay" opacity="0.4" d="M12.0248 12.5434C12.0872 12.5194 12.152 12.4954 12.2144 12.4738C12.476 10.6547 13.304 8.40838 14.9695 6.68285C14.8735 6.69245 14.7799 6.70445 14.6863 6.71884C13.052 8.46838 12.2624 10.7219 12.0272 12.5434H12.0248Z" fill="url(#paint9_linear_1852_6773)"/>
<path style="mix-blend-mode:multiply" opacity="0.4" d="M15.1854 4.02857C11.8928 4.25176 9.00087 5.7853 6.98257 8.08681C6.96817 8.10361 6.95138 8.12041 6.93698 8.13961C7.33056 8.5284 8.61451 9.29877 9.13528 9.61793C10.1577 8.5188 11.4416 7.66203 12.8959 7.15085C12.9967 7.01885 13.1023 6.89166 13.2151 6.76446C14.5687 5.23333 16.419 4.42456 18.5669 4.42456C18.8069 4.42456 19.2917 4.46295 19.3037 4.46295C18.0005 4.08857 16.6134 3.93017 15.1854 4.02857Z" fill="url(#paint10_linear_1852_6773)"/>
<path style="mix-blend-mode:multiply" opacity="0.4" d="M16.635 25.3589C14.0815 25.5317 11.696 24.663 9.8937 23.115C9.72569 23.091 9.55769 23.0646 9.38973 23.031C7.38819 22.623 5.76105 21.4231 4.6883 19.5632C4.5683 19.3568 4.4627 19.1455 4.36671 18.932C5.75145 24.459 10.9304 28.3732 16.815 27.9724C16.8414 27.3676 16.6614 25.9613 16.6374 25.3613L16.635 25.3589Z" fill="url(#paint11_linear_1852_6773)"/>
<path style="mix-blend-mode:multiply" opacity="0.4" d="M27.9698 15.1857C27.6002 15.1473 25.8003 15.2889 25.3586 15.3633C25.4138 16.1769 25.3634 16.9737 25.217 17.7416C25.2794 17.8952 25.337 18.0488 25.3898 18.2072C26.0378 20.1463 25.8123 22.1526 24.7371 24.0126C24.6195 24.2166 24.4923 24.411 24.3579 24.5982L24.3507 24.6078C24.3507 24.6078 24.3555 24.603 24.3603 24.6006C26.7986 22.2294 28.2169 18.8456 27.9674 15.1857H27.9698Z" fill="url(#paint12_linear_1852_6773)"/>
<path style="mix-blend-mode:multiply" opacity="0.5" d="M18.6917 7.11965C18.9558 7.14605 19.2365 7.21085 19.4885 7.29724C19.5005 7.30204 19.5125 7.30444 19.5245 7.30924C20.5589 7.72923 21.5068 8.334 22.3228 9.07797L22.3276 9.08277C22.7212 8.63159 23.4795 8.13721 23.4795 8.13721C23.4795 8.13721 22.318 6.94926 20.5421 6.58207C19.2989 6.32288 16.4958 6.07329 14.7271 9.08277C14.7271 9.08277 14.7343 9.07557 14.7439 9.06597C14.8759 8.86916 15.0127 8.67719 15.1711 8.4996C16.0279 7.53244 17.2998 6.98046 18.6893 7.12205L18.6917 7.11965Z" fill="url(#paint13_linear_1852_6773)"/>
<path style="mix-blend-mode:multiply" opacity="0.5" d="M22.342 22.7695C22.186 22.9831 21.9916 23.1942 21.79 23.3718C21.7804 23.379 21.7708 23.3886 21.7636 23.3958C20.8805 24.0822 19.8845 24.6006 18.831 24.9342H18.8238C19.0158 25.5029 19.0662 26.4077 19.0662 26.4077C19.0662 26.4077 20.6741 25.9949 21.8812 24.6438C22.726 23.6958 24.3436 21.3943 22.6228 18.3584C22.6228 18.3584 22.6228 18.368 22.6276 18.3824C22.7332 18.5936 22.8292 18.812 22.906 19.0352C23.314 20.2591 23.158 21.6391 22.3396 22.7719L22.342 22.7695Z" fill="url(#paint14_linear_1852_6773)"/>
<path style="mix-blend-mode:multiply" opacity="0.5" d="M6.96581 18.1112C6.85781 17.8688 6.77381 17.5953 6.72102 17.3336C6.71862 17.3216 6.71622 17.3096 6.71382 17.2976C6.56262 16.1913 6.61062 15.0681 6.84821 13.9882V13.981C6.26263 13.8658 5.45386 13.4554 5.45386 13.4554C5.45386 13.4554 5.00508 15.0537 5.57386 16.7769C5.97224 17.9816 7.1578 20.5351 10.6473 20.5615C10.6473 20.5615 10.6377 20.5591 10.6257 20.5543C10.3881 20.5399 10.1529 20.5159 9.9201 20.4679C8.65534 20.2087 7.53938 19.3832 6.96821 18.1112H6.96581Z" fill="url(#paint15_linear_1852_6773)"/>
<path style="mix-blend-mode:multiply" opacity="0.6" d="M18.1854 11.8067C18.2813 11.8187 18.3749 11.8211 18.4685 11.8211C18.4685 11.8211 18.4061 10.5732 18.2525 9.93474C18.099 9.29397 17.8734 8.8716 17.6262 8.63161C17.4486 8.45882 16.887 8.24523 16.4502 9.56517C16.3086 10.6643 17.0862 11.6675 18.183 11.8091L18.1854 11.8067Z" fill="url(#paint16_linear_1852_6773)"/>
<path style="mix-blend-mode:multiply" opacity="0.5" d="M11.276 16.2009C11.2376 16.1121 11.1944 16.0281 11.1464 15.9465C11.1464 15.9465 10.0977 16.6233 9.62009 17.0769C9.14253 17.5305 8.88812 17.9361 8.80412 18.272C8.74414 18.512 8.84012 19.1048 10.1985 18.824C11.2208 18.3968 11.7008 17.2233 11.2736 16.2009H11.276Z" fill="url(#paint17_linear_1852_6773)"/>
<path style="mix-blend-mode:multiply" opacity="0.6" d="M18.5358 19.988C18.4782 20.0648 18.4278 20.1464 18.3822 20.228C18.3822 20.228 19.4933 20.7967 20.1245 20.9839C20.7557 21.1711 21.2357 21.1879 21.5668 21.0919C21.8044 21.0247 22.27 20.6455 21.3461 19.6088C20.4653 18.9368 19.2078 19.1072 18.5382 19.988H18.5358Z" fill="url(#paint18_linear_1852_6773)"/>
<path style="mix-blend-mode:multiply" opacity="0.3" d="M18.1037 14.8185C17.8517 15.6561 17.4965 16.4169 17.0646 17.0888C17.0406 17.1248 17.019 17.1584 16.995 17.1944V17.1992C16.7069 17.612 16.3662 18.02 15.9654 18.4136C16.239 18.7063 16.5365 18.9895 16.863 19.2584C17.2733 19.5823 17.6741 19.8415 18.0365 20.0479C18.9509 19.0976 19.6036 18.092 20.0644 17.0984C20.2444 16.7312 20.4052 16.3521 20.542 15.9633C20.1196 15.6513 19.6924 15.4041 19.2989 15.2361C18.8909 15.0633 18.4925 14.9265 18.1037 14.8185Z" fill="url(#paint19_linear_1852_6773)"/>
<path style="mix-blend-mode:multiply" opacity="0.3" d="M9.89365 23.115C12.1687 23.4246 14.3574 22.7022 15.8478 21.8166C15.6702 21.6943 15.4902 21.5623 15.3054 21.4231C14.7294 20.9839 14.2111 20.4895 13.7527 19.9543C12.6319 20.4439 11.2184 20.7319 9.91045 20.4655C8.64568 20.2063 7.52972 19.3808 6.95855 18.1088C6.85055 17.8664 6.76655 17.5928 6.71375 17.3312C7.04494 19.6519 8.21369 21.6775 9.89125 23.1174L9.89365 23.115Z" fill="url(#paint20_linear_1852_6773)"/>
<path style="mix-blend-mode:multiply" opacity="0.3" d="M15.9654 18.4136C15.3654 17.7752 14.8854 17.0888 14.5206 16.3785C14.5014 16.3401 14.4822 16.3041 14.463 16.2657V16.2609C14.247 15.8073 14.0646 15.3081 13.9231 14.7633C13.5343 14.8545 13.1407 14.9697 12.7471 15.1185C12.2623 15.3105 11.8375 15.5289 11.4799 15.7401C11.8447 17.0072 12.3847 18.0776 13.0159 18.9727C13.2438 19.3112 13.4911 19.6375 13.7599 19.9519C14.2398 19.7407 14.6694 19.4935 15.0126 19.2367C15.3654 18.9703 15.6822 18.6944 15.9702 18.4112L15.9654 18.4136Z" fill="url(#paint21_linear_1852_6773)"/>
<path style="mix-blend-mode:multiply" opacity="0.3" d="M12.8887 7.15803C11.4823 8.97476 11.0144 11.2307 11.036 12.9634C11.2328 12.8722 11.4367 12.781 11.6504 12.6898C12.3175 12.4114 13.0039 12.2098 13.6951 12.0803C13.8319 10.8635 14.2879 9.49793 15.1734 8.49717C16.0302 7.53001 17.3021 6.97803 18.6917 7.11963C18.9557 7.14603 19.2365 7.21082 19.4884 7.29722C19.5004 7.30202 19.5124 7.30442 19.5244 7.30922C18.2453 6.78844 16.8317 6.54125 15.363 6.64205C14.5014 6.69964 13.6735 6.87723 12.8959 7.15083C12.8959 7.15323 12.8911 7.15563 12.8887 7.16043V7.15803Z" fill="url(#paint22_linear_1852_6773)"/>
<path style="mix-blend-mode:multiply" opacity="0.3" d="M25.2122 17.7272C24.3435 15.6009 22.6203 14.065 21.1084 13.2178C21.0892 13.4338 21.0676 13.6546 21.0364 13.8873C20.9452 14.6049 20.7748 15.2985 20.542 15.9633C21.5284 16.6904 22.4835 17.768 22.9083 19.0351C23.3163 20.2591 23.1603 21.6391 22.342 22.7718C22.186 22.9854 21.9915 23.1966 21.7899 23.3742L21.7803 23.3814C23.5419 21.9966 24.7874 20.0023 25.2146 17.7416C25.2146 17.7368 25.2122 17.732 25.2098 17.7272H25.2122Z" fill="url(#paint23_linear_1852_6773)"/>
<path style="mix-blend-mode:multiply" opacity="0.3" d="M13.6879 13.5225C13.7407 13.9618 13.8223 14.3745 13.9231 14.7633C14.775 14.5617 15.6126 14.4897 16.4094 14.5281C16.4525 14.5305 16.4933 14.5329 16.5365 14.5353H16.5413C17.0406 14.5761 17.5637 14.6673 18.1037 14.8161C18.2189 14.4321 18.3149 14.0338 18.3845 13.6185C18.4589 13.1002 18.4829 12.6226 18.4805 12.205C17.2013 11.8882 16.0062 11.8258 14.9142 11.9242C14.5062 11.9506 14.0983 12.0034 13.6927 12.0778C13.6351 12.601 13.6351 13.0954 13.6855 13.5201L13.6879 13.5225Z" fill="url(#paint24_linear_1852_6773)"/>
<defs>
<linearGradient id="paint0_linear_1852_6773" x1="7.81052" y1="24.1877" x2="23.1123" y2="8.88833" gradientUnits="userSpaceOnUse">
<stop stop-color="#E6007A"/>
<stop offset="0.21" stop-color="#703AC2"/>
<stop offset="0.46" stop-color="#0070EB"/>
<stop offset="0.77" stop-color="#0297FB"/>
<stop offset="1" stop-color="#0AE2FF"/>
</linearGradient>
<radialGradient id="paint1_radial_1852_6773" cx="0" cy="0" r="1" gradientUnits="userSpaceOnUse" gradientTransform="translate(19.4189 13.5706) scale(4.56222)">
<stop stop-color="white"/>
<stop offset="1" stop-color="white" stop-opacity="0"/>
</radialGradient>
<radialGradient id="paint2_radial_1852_6773" cx="0" cy="0" r="1" gradientUnits="userSpaceOnUse" gradientTransform="translate(12.6752 22.0351) scale(2.6543)">
<stop stop-color="white"/>
<stop offset="1" stop-color="white" stop-opacity="0"/>
</radialGradient>
<linearGradient id="paint3_linear_1852_6773" x1="8.69129" y1="21.5863" x2="11.2496" y2="21.5503" gradientUnits="userSpaceOnUse">
<stop stop-color="white" stop-opacity="0"/>
<stop offset="1" stop-color="white"/>
</linearGradient>
<radialGradient id="paint4_radial_1852_6773" cx="0" cy="0" r="1" gradientUnits="userSpaceOnUse" gradientTransform="translate(12.1847 14.2535) rotate(-120) scale(4.56222)">
<stop stop-color="white"/>
<stop offset="1" stop-color="white" stop-opacity="0"/>
</radialGradient>
<radialGradient id="paint5_radial_1852_6773" cx="0" cy="0" r="1" gradientUnits="userSpaceOnUse" gradientTransform="translate(22.8871 15.8615) rotate(-120) scale(2.6543)">
<stop stop-color="white"/>
<stop offset="1" stop-color="white" stop-opacity="0"/>
</radialGradient>
<linearGradient id="paint6_linear_1852_6773" x1="24.4903" y1="19.5359" x2="23.1801" y2="17.3384" gradientUnits="userSpaceOnUse">
<stop stop-color="white" stop-opacity="0"/>
<stop offset="1" stop-color="white"/>
</linearGradient>
<radialGradient id="paint7_radial_1852_6773" cx="0" cy="0" r="1" gradientUnits="userSpaceOnUse" gradientTransform="translate(16.1769 19.9639) rotate(120) scale(4.56222)">
<stop stop-color="white"/>
<stop offset="1" stop-color="white" stop-opacity="0"/>
</radialGradient>
<radialGradient id="paint8_radial_1852_6773" cx="0" cy="0" r="1" gradientUnits="userSpaceOnUse" gradientTransform="translate(12.4347 10.1023) rotate(120) scale(2.6543)">
<stop stop-color="white"/>
<stop offset="1" stop-color="white" stop-opacity="0"/>
</radialGradient>
<linearGradient id="paint9_linear_1852_6773" x1="14.8153" y1="6.87656" x2="13.5662" y2="9.11219" gradientUnits="userSpaceOnUse">
<stop stop-color="white" stop-opacity="0"/>
<stop offset="1" stop-color="white"/>
</linearGradient>
<linearGradient id="paint10_linear_1852_6773" x1="15.3703" y1="5.74211" x2="11.4608" y2="6.87966" gradientUnits="userSpaceOnUse">
<stop stop-color="#231F20"/>
<stop offset="1" stop-color="white"/>
</linearGradient>
<linearGradient id="paint11_linear_1852_6773" x1="7.98337" y1="20.6527" x2="11.252" y2="24.063" gradientUnits="userSpaceOnUse">
<stop stop-color="#231F20"/>
<stop offset="1" stop-color="white"/>
</linearGradient>
<linearGradient id="paint12_linear_1852_6773" x1="25.5314" y1="20.1367" x2="26.6666" y2="16.6785" gradientUnits="userSpaceOnUse">
<stop stop-color="#231F20"/>
<stop offset="1" stop-color="white"/>
</linearGradient>
<linearGradient id="paint13_linear_1852_6773" x1="17.151" y1="7.71963" x2="22.3924" y2="8.91956" gradientUnits="userSpaceOnUse">
<stop stop-color="#231F20"/>
<stop offset="1" stop-color="white"/>
</linearGradient>
<linearGradient id="paint14_linear_1852_6773" x1="22.5922" y1="21.1349" x2="18.9323" y2="25.0741" gradientUnits="userSpaceOnUse">
<stop stop-color="#231F20"/>
<stop offset="1" stop-color="white"/>
</linearGradient>
<linearGradient id="paint15_linear_1852_6773" x1="8.25606" y1="19.1443" x2="6.67455" y2="14.0051" gradientUnits="userSpaceOnUse">
<stop stop-color="#231F20"/>
<stop offset="1" stop-color="white"/>
</linearGradient>
<linearGradient id="paint16_linear_1852_6773" x1="18.2981" y1="9.65398" x2="16.6398" y2="11.3123" gradientUnits="userSpaceOnUse">
<stop stop-color="#231F20"/>
<stop offset="1" stop-color="white"/>
</linearGradient>
<linearGradient id="paint17_linear_1852_6773" x1="9.35325" y1="17.1824" x2="11.6186" y2="17.7894" gradientUnits="userSpaceOnUse">
<stop stop-color="#231F20"/>
<stop offset="1" stop-color="white"/>
</linearGradient>
<linearGradient id="paint18_linear_1852_6773" x1="20.3456" y1="21.1625" x2="19.7386" y2="18.8972" gradientUnits="userSpaceOnUse">
<stop stop-color="#231F20"/>
<stop offset="1" stop-color="white"/>
</linearGradient>
<linearGradient id="paint19_linear_1852_6773" x1="16.8966" y1="19.148" x2="17.8925" y2="17.7728" gradientUnits="userSpaceOnUse">
<stop stop-color="#231F20"/>
<stop offset="1" stop-color="white"/>
</linearGradient>
<linearGradient id="paint20_linear_1852_6773" x1="13.4695" y1="18.5528" x2="11.4799" y2="19.5007" gradientUnits="userSpaceOnUse">
<stop stop-color="#231F20"/>
<stop offset="1" stop-color="white"/>
</linearGradient>
<linearGradient id="paint21_linear_1852_6773" x1="12.7471" y1="15.2385" x2="13.3639" y2="16.52" gradientUnits="userSpaceOnUse">
<stop stop-color="#231F20"/>
<stop offset="1" stop-color="white"/>
</linearGradient>
<linearGradient id="paint22_linear_1852_6773" x1="15.6126" y1="11.2883" x2="15.1878" y2="9.81954" gradientUnits="userSpaceOnUse">
<stop stop-color="#231F20"/>
<stop offset="1" stop-color="white"/>
</linearGradient>
<linearGradient id="paint23_linear_1852_6773" x1="20.2108" y1="18.0128" x2="21.442" y2="18.2984" gradientUnits="userSpaceOnUse">
<stop stop-color="#231F20"/>
<stop offset="1" stop-color="white"/>
</linearGradient>
<linearGradient id="paint24_linear_1852_6773" x1="18.2765" y1="13.8513" x2="16.7117" y2="13.5681" gradientUnits="userSpaceOnUse">
<stop stop-color="#231F20"/>
<stop offset="1" stop-color="white"/>
</linearGradient>
</defs>
</svg>
