<svg width="146" height="144" viewBox="0 0 146 144" fill="none" xmlns="http://www.w3.org/2000/svg">
<path d="M73 11C75.9727 10.9905 78.8887 11.8135 81.4178 13.3758C83.9468 14.9382 85.9879 17.1774 87.31 19.84L132.31 109.84C133.531 112.279 134.107 114.991 133.985 117.716C133.863 120.441 133.047 123.09 131.613 125.41C130.179 127.731 128.176 129.646 125.793 130.975C123.41 132.303 120.728 133 118 133H28C25.2721 133 22.5895 132.303 20.2069 130.975C17.8244 129.646 15.821 127.731 14.3871 125.41C12.9533 123.09 12.1366 120.441 12.0145 117.716C11.8925 114.991 12.4693 112.279 13.69 109.84L58.69 19.84C60.012 17.1774 62.0531 14.9382 64.5822 13.3758C67.1113 11.8135 70.0273 10.9905 73 11ZM73 1.76071e-07C67.9862 -0.000572306 63.0713 1.3949 58.806 4.03008C54.5406 6.66526 51.0932 10.436 48.85 14.92L3.84998 104.92C1.79052 109.037 0.817733 113.612 1.02402 118.21C1.2303 122.808 2.60881 127.278 5.02859 131.194C7.44838 135.109 10.8291 138.341 14.8496 140.583C18.8701 142.824 23.3969 144.001 28 144H118C122.603 144.001 127.13 142.824 131.15 140.583C135.171 138.341 138.552 135.109 140.971 131.194C143.391 127.278 144.77 122.808 144.976 118.21C145.182 113.612 144.209 109.037 142.15 104.92L97.15 14.92C94.9068 10.436 91.4594 6.66526 87.194 4.03008C82.9286 1.3949 78.0137 -0.000572306 73 1.76071e-07V1.76071e-07Z" fill="#70D44B"/>
</svg>
