<svg width="52" height="50" viewBox="0 0 52 50" fill="none" xmlns="http://www.w3.org/2000/svg">
<ellipse cx="26.0908" cy="24.9999" rx="25.4089" ry="24.9999" fill="white"/>
<path d="M26 12.2917C26.6108 12.2897 27.21 12.4611 27.7297 12.7866C28.2493 13.1121 28.6687 13.5786 28.9404 14.1333L38.187 32.8833C38.4379 33.3915 38.5562 33.9565 38.5312 34.5242C38.5061 35.0919 38.3384 35.6437 38.0438 36.1271C37.7491 36.6106 37.3375 37.0096 36.8479 37.2865C36.3582 37.5631 35.8071 37.7083 35.2466 37.7083H16.7534C16.1929 37.7083 15.6417 37.5631 15.1521 37.2865C14.6625 37.0096 14.2509 36.6106 13.9562 36.1271C13.6616 35.6437 13.4938 35.0919 13.4687 34.5242C13.4437 33.9565 13.5622 33.3915 13.813 32.8833L23.0596 14.1333C23.3312 13.5786 23.7506 13.1121 24.2703 12.7866C24.79 12.4611 25.3892 12.2897 26 12.2917ZM26 10C24.9698 9.99988 23.9599 10.2906 23.0834 10.8396C22.207 11.3886 21.4986 12.1742 21.0377 13.1083L11.7911 31.8583C11.3679 32.716 11.168 33.6692 11.2104 34.6271C11.2528 35.585 11.5361 36.5162 12.0333 37.3321C12.5305 38.1477 13.2252 38.821 14.0513 39.2881C14.8774 39.755 15.8076 40.0002 16.7534 40H35.2466C36.1924 40.0002 37.1226 39.755 37.9486 39.2881C38.7749 38.821 39.4696 38.1477 39.9666 37.3321C40.4639 36.5162 40.7473 35.585 40.7896 34.6271C40.8319 33.6692 40.632 32.716 40.2089 31.8583L30.9623 13.1083C30.5014 12.1742 29.793 11.3886 28.9166 10.8396C28.0401 10.2906 27.0302 9.99988 26 10Z" fill="#0038FF"/>
</svg>
