<svg width="51" height="50" viewBox="0 0 51 50" fill="none" xmlns="http://www.w3.org/2000/svg">
<ellipse cx="25.6816" cy="24.9999" rx="25" ry="24.9999" fill="white"/>
<path d="M25.9997 12.2917C26.6106 12.2897 27.2098 12.4611 27.7294 12.7866C28.2491 13.1121 28.6685 13.5786 28.9402 14.1333L38.1867 32.8833C38.4376 33.3915 38.556 33.9565 38.5309 34.5242C38.5058 35.0919 38.3382 35.6438 38.0435 36.1271C37.7489 36.6106 37.3373 37.0096 36.8476 37.2865C36.358 37.5631 35.8069 37.7083 35.2463 37.7083H16.7532C16.1926 37.7083 15.6414 37.5631 15.1519 37.2865C14.6623 37.0096 14.2506 36.6106 13.956 36.1271C13.6614 35.6438 13.4936 35.0919 13.4685 34.5242C13.4434 33.9565 13.5619 33.3915 13.8128 32.8833L23.0593 14.1333C23.331 13.5786 23.7504 13.1121 24.2701 12.7866C24.7897 12.4611 25.3889 12.2897 25.9997 12.2917ZM25.9997 10C24.9695 9.99988 23.9596 10.2906 23.0832 10.8396C22.2067 11.3886 21.4984 12.1742 21.0374 13.1083L11.7908 31.8583C11.3677 32.716 11.1678 33.6692 11.2102 34.6271C11.2526 35.585 11.5358 36.5162 12.033 37.3321C12.5302 38.1477 13.2249 38.821 14.051 39.2881C14.8772 39.755 15.8073 40.0002 16.7532 40H35.2463C36.1921 40.0002 37.1224 39.755 37.9484 39.2881C38.7746 38.821 39.4693 38.1477 39.9664 37.3321C40.4637 36.5162 40.747 35.585 40.7893 34.6271C40.8317 33.6692 40.6317 32.716 40.2087 31.8583L30.9621 13.1083C30.5011 12.1742 29.7928 11.3886 28.9163 10.8396C28.0399 10.2906 27.03 9.99988 25.9997 10Z" fill="#0038FF"/>
</svg>
