<svg width="40" height="40" viewBox="0 0 40 40" fill="none" xmlns="http://www.w3.org/2000/svg">
<rect width="40" height="40" rx="20" fill="#70D44B"/>
<path d="M19.9997 8.24525C20.5213 8.24359 21.0328 8.38797 21.4765 8.66206C21.9202 8.93617 22.2782 9.32901 22.5102 9.79613L30.4046 25.5856C30.6188 26.0135 30.7198 26.4893 30.6984 26.9674C30.677 27.4454 30.5339 27.9102 30.2823 28.3172C30.0307 28.7244 29.6793 29.0603 29.2613 29.2935C28.8432 29.5265 28.3727 29.6488 27.8941 29.6488H12.1053C11.6268 29.6488 11.1562 29.5265 10.7382 29.2935C10.3202 29.0603 9.96877 28.7244 9.71722 28.3172C9.46569 27.9102 9.32242 27.4454 9.301 26.9674C9.27959 26.4893 9.38078 26.0135 9.59493 25.5856L17.4893 9.79613C17.7212 9.32901 18.0793 8.93617 18.523 8.66206C18.9667 8.38797 19.4782 8.24359 19.9997 8.24525ZM19.9997 6.31543C19.1202 6.31533 18.2579 6.56015 17.5097 7.02246C16.7614 7.48477 16.1566 8.14631 15.7631 8.93297L7.86868 24.7224C7.50739 25.4447 7.33673 26.2474 7.37292 27.054C7.40911 27.8607 7.65095 28.6449 8.07545 29.3319C8.49996 30.0188 9.09304 30.5858 9.79836 30.9791C10.5037 31.3723 11.2978 31.5788 12.1053 31.5786H27.8941C28.7017 31.5788 29.4958 31.3723 30.2011 30.9791C30.9065 30.5858 31.4996 30.0188 31.924 29.3319C32.3485 28.6449 32.5904 27.8607 32.6266 27.054C32.6627 26.2474 32.492 25.4447 32.1308 24.7224L24.2364 8.93297C23.8429 8.14631 23.2381 7.48477 22.4898 7.02246C21.7415 6.56015 20.8793 6.31533 19.9997 6.31543Z" fill="white"/>
</svg>
