<svg width="51" height="50" viewBox="0 0 51 50" fill="none" xmlns="http://www.w3.org/2000/svg">
<ellipse cx="25.6816" cy="24.9999" rx="25" ry="24.9999" fill="#70D44B"/>
<path d="M25.9999 12.2917C26.6193 12.2897 27.2267 12.4611 27.7536 12.7866C28.2805 13.1121 28.7057 13.5786 28.9812 14.1333L38.3558 32.8833C38.6101 33.3914 38.7301 33.9565 38.7046 34.5242C38.6792 35.0918 38.5093 35.6438 38.2105 36.1271C37.9117 36.6106 37.4945 37.0095 36.9981 37.2864C36.5016 37.5631 35.9429 37.7084 35.3745 37.7084H16.6253C16.0571 37.7084 15.4983 37.5631 15.0019 37.2864C14.5055 37.0095 14.0882 36.6106 13.7895 36.1271C13.4908 35.6438 13.3207 35.0918 13.2952 34.5242C13.2698 33.9565 13.39 33.3914 13.6443 32.8833L23.0188 14.1333C23.2942 13.5786 23.7195 13.1121 24.2464 12.7866C24.7733 12.4611 25.3807 12.2897 25.9999 12.2917ZM25.9999 10C24.9555 9.99988 23.9316 10.2906 23.0431 10.8396C22.1545 11.3886 21.4363 12.1742 20.969 13.1083L11.5944 31.8583C11.1653 32.716 10.9627 33.6692 11.0057 34.627C11.0486 35.585 11.3358 36.5162 11.8399 37.332C12.344 38.1477 13.0483 38.821 13.8859 39.2881C14.7235 39.755 15.6664 40.0002 16.6253 40H35.3745C36.3336 40.0002 37.2766 39.755 38.1141 39.2881C38.9518 38.821 39.6561 38.1477 40.16 37.332C40.6641 36.5162 40.9514 35.585 40.9944 34.627C41.0372 33.6692 40.8345 32.716 40.4056 31.8583L31.031 13.1083C30.5637 12.1742 29.8455 11.3886 28.9569 10.8396C28.0683 10.2906 27.0445 9.99988 25.9999 10Z" fill="white"/>
</svg>
