<svg width="51" height="50" viewBox="0 0 51 50" fill="none" xmlns="http://www.w3.org/2000/svg">
<ellipse cx="25.6816" cy="24.9999" rx="25" ry="24.9999" fill="black"/>
<path d="M33.7153 28.4083C34.5222 26.9851 35.8241 26.9851 36.631 28.4083L41.6556 37.4157C42.4625 38.839 41.8023 40 40.1886 40H30.0661C28.4707 40 27.8106 38.839 28.5991 37.4157L33.7153 28.4083ZM23.9963 11.0674C24.8032 9.64419 26.0868 9.64419 26.8937 11.0674L28.0123 13.1273L30.653 17.8652C31.2947 19.2135 31.2947 20.8052 30.653 22.1535L21.7958 37.8278C20.9889 39.1012 19.6503 39.9063 18.1648 40H10.8114C9.19766 40 8.5375 38.8577 9.34436 37.4157L23.9963 11.0674Z" fill="white"/>
</svg>
