<svg width="40" height="40" viewBox="0 0 40 40" fill="none" xmlns="http://www.w3.org/2000/svg">
<path d="M20 40C31.0457 40 40 31.0457 40 20C40 8.95431 31.0457 0 20 0C8.95431 0 0 8.95431 0 20C0 31.0457 8.95431 40 20 40Z" fill="#E84142"/>
<path d="M26.289 20.5253C26.9067 19.4267 27.9034 19.4267 28.5211 20.5253L32.3677 27.4784C32.9854 28.5771 32.48 29.4733 31.2446 29.4733H23.4953C22.274 29.4733 21.7686 28.5771 22.3723 27.4784L26.289 20.5253ZM18.8486 7.1394C19.4663 6.04077 20.449 6.04077 21.0667 7.1394L21.923 8.72952L23.9446 12.3868C24.4359 13.4276 24.4359 14.6563 23.9446 15.6971L17.164 27.7965C16.5463 28.7795 15.5215 29.401 14.3843 29.4733H8.75488C7.51948 29.4733 7.0141 28.5915 7.63179 27.4784L18.8486 7.1394Z" fill="white"/>
</svg>
