<svg width="51" height="50" viewBox="0 0 51 50" fill="none" xmlns="http://www.w3.org/2000/svg">
<ellipse cx="25.6816" cy="24.9999" rx="25" ry="24.9999" fill="url(#paint0_linear_61_17)"/>
<path d="M26 40C34.2842 40 41 33.2842 41 25C41 16.7157 34.2842 10 26 10C17.7157 10 11 16.7157 11 25C11 33.2842 17.7157 40 26 40Z" fill="white"/>
<path d="M20.2915 30.8555L20.9495 29.5393H28.8523C29.94 29.5393 30.8264 28.6531 30.8264 27.5654C30.8264 26.4776 29.94 25.5912 28.8523 25.5912H22.2656V24.2753H28.8523C30.672 24.2753 32.1424 25.7525 32.1424 27.5654C32.1424 29.3849 30.6653 30.8555 28.8523 30.8555H20.2915Z" fill="#132365"/>
<path d="M28.8528 31.2173H19.7012L20.7285 29.1693H28.8597C29.7459 29.1693 30.471 28.4442 30.471 27.5578C30.471 26.6716 29.7459 25.9465 28.8597 25.9465H21.9035V23.8986H28.8528C30.8672 23.8986 32.5123 25.537 32.5123 27.5578C32.5123 29.5789 30.8672 31.2173 28.8528 31.2173ZM20.8829 30.4853H28.8528C30.4643 30.4853 31.7805 29.1693 31.7805 27.5578C31.7805 25.9465 30.4643 24.6304 28.8528 24.6304H22.6354V25.2146H28.8528C30.1421 25.2146 31.1963 26.2621 31.1963 27.5578C31.1963 28.8471 30.1488 29.9013 28.8528 29.9013H21.1783L20.8829 30.4853Z" fill="#132365"/>
<path d="M20.2915 18.9298L20.9495 20.2458H27.9728C29.0605 20.2458 29.9467 21.1321 29.9467 22.2198C29.9467 23.3076 29.0605 24.1939 27.9728 24.1939H22.9235V25.5099H27.9728C29.7923 25.5099 31.2629 24.0327 31.2629 22.2198C31.2629 20.4002 29.7856 18.9298 27.9728 18.9298H20.2915Z" fill="#132365"/>
<path d="M27.9736 25.8792H22.5619V23.8314H27.9736C28.86 23.8314 29.5851 23.1062 29.5851 22.2199C29.5851 21.3336 28.86 20.6084 27.9736 20.6084H20.7221L19.6948 18.5605H27.967C29.9813 18.5605 31.6264 20.1989 31.6264 22.2199C31.6331 24.2342 29.9947 25.8792 27.9736 25.8792ZM23.2937 25.1474H27.9736C29.5851 25.1474 30.9011 23.8314 30.9011 22.2199C30.9011 20.6084 29.5918 19.2924 27.9736 19.2924H20.8833L21.1787 19.8766H27.9736C29.2629 19.8766 30.3169 20.924 30.3169 22.2199C30.3169 23.5158 29.2696 24.5632 27.9736 24.5632H23.2937V25.1474Z" fill="#132365"/>
<path d="M23.5821 18.9973H22.2661V30.8481H23.5821V18.9973Z" fill="#132365"/>
<path d="M23.9512 31.2172H21.9033V18.6344H23.9512V31.2172ZM22.6352 30.4853H23.2193V19.3663H22.6352V30.4853Z" fill="#132365"/>
<path d="M25.1939 16.9487H23.8779V19.5807H25.1939V16.9487Z" fill="#132365"/>
<path d="M25.3757 19.7691H23.6904V16.7678H25.3757V19.7691ZM24.0597 19.3998H25.0132V17.1304H24.0597V19.3998Z" fill="#132365"/>
<path d="M28.0464 16.9487H26.7305V19.5807H28.0464V16.9487Z" fill="#132365"/>
<path d="M28.2287 19.7691H26.5435V16.7678H28.2287V19.7691ZM26.9128 19.3998H27.8663V17.1304H26.9128V19.3998Z" fill="#132365"/>
<path d="M25.1939 30.122H23.8779V32.7539H25.1939V30.122Z" fill="#132365"/>
<path d="M25.3757 32.9361H23.6904V29.9347H25.3757V32.9361ZM24.0597 32.5735H25.0132V30.304H24.0597V32.5735Z" fill="#132365"/>
<path d="M28.0464 30.122H26.7305V32.7539H28.0464V30.122Z" fill="#132365"/>
<path d="M28.2287 32.9361H26.5435V29.9347H28.2287V32.9361ZM26.9128 32.5735H27.8663V30.304H26.9128V32.5735Z" fill="#132365"/>
<path d="M26.0002 36.6697C19.5678 36.6697 14.3306 31.4391 14.3306 25C14.3306 18.5676 19.5611 13.3304 26.0002 13.3304C32.4326 13.3304 37.6698 18.5609 37.6698 25C37.6698 31.4325 32.4326 36.6697 26.0002 36.6697ZM26.0002 14.4987C20.2124 14.4987 15.4989 19.2122 15.4989 25C15.4989 30.7878 20.2124 35.5013 26.0002 35.5013C31.788 35.5013 36.5015 30.7878 36.5015 25C36.5015 19.2122 31.788 14.4987 26.0002 14.4987Z" fill="#132365"/>
<defs>
<linearGradient id="paint0_linear_61_17" x1="12.3031" y1="4.75334" x2="42.2695" y2="50.1037" gradientUnits="userSpaceOnUse">
<stop offset="0.0051282" stop-color="#F1D200"/>
<stop offset="1" stop-color="#D27D00"/>
</linearGradient>
</defs>
</svg>
