<?xml version="1.0" encoding="utf-8"?>
<!-- Generator: Adobe Illustrator 19.0.0, SVG Export Plug-In . SVG Version: 6.00 Build 0)  -->
<svg version="1.1" id="Layer_1" xmlns="http://www.w3.org/2000/svg" xmlns:xlink="http://www.w3.org/1999/xlink" x="0px" y="0px"
	 viewBox="0 0 334 334" style="enable-background:new 0 0 334 334;" xml:space="preserve">
<style type="text/css">
	.st0{fill:#FFFFFF;}
	.st1{fill:url(#XMLID_10_);}
	.st2{fill:url(#XMLID_11_);}
	.st3{fill:url(#XMLID_16_);}
	.st4{fill:url(#XMLID_23_);}
	.st5{fill:url(#XMLID_24_);}
	.st6{fill:url(#XMLID_25_);}
</style>
<path id="XMLID_104_" class="st0" d="M199.1,158.6c0,0,7.8-7.3,8.2-19.3c0.4-11.5-2.5-18.1-26.7-17.7v-17.7h-10.7v17.7h-8.2v-17.7
	h-11.1v16.9l-21.1,0.8v11.5h9.6c0,0,4.5-0.4,4.1,6.6c-0.4,7,0,46.1,0,46.1s0.4,3.3-3.3,3.7c-3.7,0.4-10.4,0-10.4,0v12.3h21.9v18.1
	h10.7v-17.3h8.2v17.3h9.9v-17.7c0,0,29.6,0.8,32.5-16.4C215.6,168.4,210.6,159.4,199.1,158.6z M160.9,133.9c0,0,25.9-4.9,26.7,10.3
	c0.8,15.2-26.7,10.3-26.7,10.3V133.9z M192.6,176.2c0,18.9-31.7,13.6-31.7,13.6v-23.1C194.6,163.8,192.6,176.2,192.6,176.2z"/>
<g id="XMLID_1_">
	<g id="XMLID_3_">
		<linearGradient id="XMLID_10_" gradientUnits="userSpaceOnUse" x1="283.6343" y1="118.6232" x2="283.6343" y2="159.4431">
			<stop  offset="0" style="stop-color:#F79421"/>
			<stop  offset="1" style="stop-color:#FAC239"/>
		</linearGradient>
		<polygon id="XMLID_22_" class="st1" points="244.9,159.4 243,155.2 322.3,118.6 324.3,122.8 		"/>
	</g>
	<g id="XMLID_4_">
		<g id="XMLID_7_">
			<linearGradient id="XMLID_11_" gradientUnits="userSpaceOnUse" x1="167.5467" y1="78.1121" x2="167.5467" y2="302.3427">
				<stop  offset="0" style="stop-color:#F79421"/>
				<stop  offset="1" style="stop-color:#FAC239"/>
			</linearGradient>
			<path id="XMLID_19_" class="st2" d="M168.4,302.3L88.7,162.5v-0.6c0-4.2,18.6-69.1,22.3-82.1l0.5-1.7h115l20,79.5L168.4,302.3z
				 M93.4,161.4l74.9,131.4L241.5,157l-18.7-74.3H114.9C106.5,112.2,94.4,155.2,93.4,161.4z"/>
		</g>
		<g id="XMLID_6_">
			<linearGradient id="XMLID_16_" gradientUnits="userSpaceOnUse" x1="167.6707" y1="30.0024" x2="167.6707" y2="301.0702">
				<stop  offset="0" style="stop-color:#F79421"/>
				<stop  offset="1" style="stop-color:#FAC239"/>
			</linearGradient>
			<path id="XMLID_15_" class="st3" d="M168.3,301.1L9,120.4l50.4-65.7L110.2,30h119.5l46.6,24.8l50,66.1L168.3,301.1z M15,120.2
				L168.3,294l152-173.4l-47.1-62.2l-44.7-23.7H111.3L62.5,58.4L15,120.2z"/>
		</g>
		<g id="XMLID_5_">
			<linearGradient id="XMLID_23_" gradientUnits="userSpaceOnUse" x1="87.0831" y1="54.4732" x2="87.0831" y2="82.5527">
				<stop  offset="0" style="stop-color:#F79421"/>
				<stop  offset="1" style="stop-color:#FAC239"/>
			</linearGradient>
			<polygon id="XMLID_14_" class="st4" points="112.2,82.6 60,58.7 61.9,54.5 114.2,78.3 			"/>
		</g>
		<g id="XMLID_8_">
			<linearGradient id="XMLID_24_" gradientUnits="userSpaceOnUse" x1="249.7105" y1="54.4887" x2="249.7105" y2="82.5372">
				<stop  offset="0" style="stop-color:#F79421"/>
				<stop  offset="1" style="stop-color:#FAC239"/>
			</linearGradient>
			<polygon id="XMLID_13_" class="st5" points="225.6,82.5 223.6,78.3 273.8,54.5 275.8,58.7 			"/>
		</g>
		<g id="XMLID_9_">
			<linearGradient id="XMLID_25_" gradientUnits="userSpaceOnUse" x1="51.5144" y1="118.2653" x2="51.5144" y2="163.9127">
				<stop  offset="0" style="stop-color:#F79421"/>
				<stop  offset="1" style="stop-color:#FAC239"/>
			</linearGradient>
			<polygon id="XMLID_12_" class="st6" points="89.9,163.9 11,122.4 13.1,118.3 92.1,159.8 			"/>
		</g>
	</g>
</g>
</svg>
