<svg width="20" height="21" viewBox="0 0 20 21" fill="none" xmlns="http://www.w3.org/2000/svg">
<path d="M10 21C15.5229 21 20.0001 16.5144 20.0001 10.9812C20.0001 5.44792 15.5229 0.962334 10 0.962334C4.4772 0.962334 4.57764e-05 5.44792 4.57764e-05 10.9812C4.57764e-05 16.5144 4.4772 21 10 21Z" fill="#0AC18E"/>
<path d="M13.3515 7.68283C12.8428 6.53389 11.6709 6.29026 10.2356 6.52787L9.77529 4.75333L8.6882 5.03304L9.14242 6.80157C8.85778 6.87376 8.56405 6.93391 8.27336 7.01512L7.81914 5.25561L6.73206 5.53533L7.19233 7.30987C6.95916 7.37604 4.99998 7.87532 4.99998 7.87532L5.29977 9.03028C5.29977 9.03028 6.09918 8.80771 6.0901 8.82576C6.5322 8.71146 6.74114 8.93103 6.83804 9.13856L8.10378 14.002C8.11892 14.1434 8.0947 14.384 7.78886 14.4652C7.80703 14.4742 6.99853 14.6667 6.99853 14.6667L7.11662 16.0142C7.11662 16.0142 9.05763 15.5209 9.31199 15.4577L9.77832 17.2533L10.8654 16.9736L10.3991 15.166C10.6989 15.0968 10.9896 15.0246 11.2712 14.9524L11.7345 16.7511L12.8216 16.4713L12.3552 14.6787C14.0298 14.2757 15.2107 13.226 14.9685 11.6229C14.814 10.6574 13.7512 9.86341 12.867 9.77318C13.412 9.29496 13.6876 8.59717 13.3515 7.68283ZM12.8276 11.9147C13.0426 13.5027 10.823 13.6982 10.0872 13.8877L9.44826 11.5116C10.1871 11.3222 12.4642 10.5161 12.8276 11.9147ZM11.4892 8.68139C11.7193 10.092 9.81768 10.2574 9.20601 10.4138L8.62461 8.2573C9.23932 8.10391 11.0229 7.37304 11.4892 8.68139Z" fill="white"/>
</svg>
