<svg width="51" height="50" viewBox="0 0 51 50" fill="none" xmlns="http://www.w3.org/2000/svg">
<ellipse cx="25.6816" cy="24.9999" rx="25" ry="24.9999" fill="#0AC18E"/>
<path d="M34.0436 17.0308C32.8227 14.2734 30.0102 13.6886 26.5654 14.2589L25.4607 10L22.8517 10.6713L23.9418 14.9158C23.2587 15.089 22.5537 15.2334 21.8561 15.4283L20.766 11.2055L18.157 11.8768L19.2616 16.1357C18.702 16.2945 14 17.4928 14 17.4928L14.7195 20.2647C14.7195 20.2647 16.6381 19.7305 16.6163 19.7739C17.6773 19.4995 18.1788 20.0265 18.4113 20.5246L21.4491 32.1969C21.4854 32.5362 21.4273 33.1137 20.6933 33.3085C20.7369 33.3301 18.7965 33.7921 18.7965 33.7921L19.0799 37.0262C19.0799 37.0262 23.7383 35.8422 24.3488 35.6905L25.468 40L28.077 39.3287L26.9578 34.9905C27.6774 34.8244 28.375 34.6511 29.0509 34.4778L30.1628 38.7947L32.7718 38.1232L31.6525 33.8209C35.6715 32.8537 38.5056 30.3345 37.9244 26.487C37.5536 24.1698 35.0029 22.2642 32.8808 22.0477C34.1888 20.8999 34.8502 19.2252 34.0436 17.0308ZM32.7862 27.1873C33.3022 30.9985 27.9752 31.4677 26.2093 31.9225L24.6758 26.2199C26.449 25.7653 31.9141 23.8307 32.7862 27.1873ZM29.5741 19.4274C30.1263 22.8128 25.5624 23.2098 24.0944 23.5852L22.6991 18.4095C24.1744 18.0414 28.455 16.2873 29.5741 19.4274Z" fill="white"/>
</svg>
