<svg width="51" height="50" viewBox="0 0 51 50" fill="none" xmlns="http://www.w3.org/2000/svg">
<ellipse cx="25.6816" cy="24.9999" rx="25" ry="24.9999" fill="#F7931A"/>
<path d="M36.6049 22.0606C37.0765 18.9083 34.6764 17.2137 31.3946 16.0832L32.4591 11.813L29.8599 11.1653L28.8234 15.3229C28.1401 15.1526 27.4383 14.992 26.7409 14.8328L27.7848 10.6478L25.187 10L24.1217 14.2687C23.5561 14.1399 23.0008 14.0125 22.4619 13.8785L22.4648 13.8652L18.8802 12.9702L18.1887 15.7464C18.1887 15.7464 20.1173 16.1883 20.0765 16.2157C21.1293 16.4785 21.3195 17.1752 21.2877 17.7275L20.0751 22.5921C20.1476 22.6106 20.2416 22.6373 20.3453 22.6787C20.2587 22.6573 20.1661 22.6336 20.0706 22.6106L18.3709 29.4253C18.242 29.7451 17.9156 30.2248 17.1797 30.0427C17.2056 30.0804 15.2904 29.5711 15.2904 29.5711L14 32.5465L17.3825 33.3897C18.0118 33.5474 18.6285 33.7125 19.2355 33.8679L18.1599 38.187L20.7562 38.8347L21.8215 34.5616C22.5307 34.7541 23.2192 34.9318 23.8929 35.0991L22.8313 39.3522L25.4305 40L26.5062 35.6891C30.9385 36.5279 34.2715 36.1896 35.6744 32.1807C36.8048 28.9529 35.6181 27.091 33.2861 25.8769C34.9844 25.4853 36.2637 24.3681 36.6049 22.0606ZM30.6661 30.3884C29.8628 33.6162 24.4282 31.8713 22.6662 31.4338L24.0935 25.7118C25.8555 26.1516 31.5056 27.0222 30.6661 30.3884ZM31.4701 22.0139C30.7372 24.95 26.2138 23.4583 24.7465 23.0926L26.0406 17.9029C27.5079 18.2686 32.2333 18.9512 31.4701 22.0139Z" fill="white"/>
</svg>
