<svg width="51" height="50" viewBox="0 0 51 50" fill="none" xmlns="http://www.w3.org/2000/svg">
<ellipse cx="25.6816" cy="24.9999" rx="25" ry="24.9999" fill="white"/>
<path fill-rule="evenodd" clip-rule="evenodd" d="M34.5082 31.732C34.6522 31.648 35.5762 30.52 35.5762 30.52V28.24L34.4962 26.8L32.2522 25.576L28.9402 27.484C28.9402 27.484 28.3162 27.94 28.7722 28.24C29.2282 28.54 30.4882 29.332 30.4882 29.332L20.5042 35.092L20.4202 33.052C20.4202 33.052 20.2642 32.38 19.6642 32.728C19.0642 33.076 16.4722 34.528 16.4722 34.528L16.4842 38.332C16.4842 38.776 17.6722 39.928 18.9322 39.976C20.1802 40.024 20.5042 39.844 20.9242 39.688L34.5202 31.72L34.5082 31.732Z" fill="url(#paint0_linear_61_18)"/>
<path fill-rule="evenodd" clip-rule="evenodd" d="M34.5082 23.188L35.5762 21.928V19.396L34.5202 18.172L20.3842 10L18.2242 10.048C18.2242 10.048 16.4002 10.432 16.4122 11.872L16.4482 15.364L19.6162 17.2C19.6162 17.2 20.3842 17.572 20.3602 16.756C20.3242 15.952 20.4202 14.764 20.4202 14.764L30.5242 20.596L20.5042 26.38V23.596L21.7762 24.208C21.7762 24.208 22.1962 24.436 22.3762 24.328C22.5562 24.22 25.4242 22.564 25.4242 22.564C25.4242 22.564 25.7842 22.288 25.7482 22.06C25.7242 21.832 25.5442 21.628 25.5442 21.628L17.0722 16.732C17.0722 16.732 16.7722 16.552 16.5442 16.684C16.3282 16.816 16.4722 33.616 16.4722 33.616L34.5082 23.188Z" fill="url(#paint1_linear_61_18)"/>
<path fill-rule="evenodd" clip-rule="evenodd" d="M34.5082 31.732C34.6522 31.648 35.5762 30.52 35.5762 30.52V28.24L34.4962 26.8L32.2522 25.576L28.9402 27.484C28.9402 27.484 28.3162 27.94 28.7722 28.24C29.2282 28.54 30.4882 29.332 30.4882 29.332L20.5042 35.092L20.4202 33.052C20.4202 33.052 20.2642 32.38 19.6642 32.728C19.0642 33.076 16.4722 34.528 16.4722 34.528L16.4842 38.332C16.4842 38.776 17.6722 39.928 18.9322 39.976C20.1802 40.024 20.5042 39.844 20.9242 39.688L34.5202 31.72L34.5082 31.732Z" fill="url(#paint2_linear_61_18)"/>
<path fill-rule="evenodd" clip-rule="evenodd" d="M34.5082 23.188L35.5762 21.928V19.396L34.5202 18.172L20.3842 10L18.2242 10.048C18.2242 10.048 16.4002 10.432 16.4122 11.872L16.4482 15.364L19.6162 17.2C19.6162 17.2 20.3842 17.572 20.3602 16.756C20.3242 15.952 20.4202 14.764 20.4202 14.764L30.5242 20.596L20.5042 26.38V23.596L21.7762 24.208C21.7762 24.208 22.1962 24.436 22.3762 24.328C22.5562 24.22 25.4242 22.564 25.4242 22.564C25.4242 22.564 25.7842 22.288 25.7482 22.06C25.7242 21.832 25.5442 21.628 25.5442 21.628L17.0722 16.732C17.0722 16.732 16.7722 16.552 16.5442 16.684C16.3282 16.816 16.4722 33.616 16.4722 33.616L34.5082 23.188Z" fill="url(#paint3_linear_61_18)"/>
<defs>
<linearGradient id="paint0_linear_61_18" x1="16.4701" y1="38.3953" x2="31.101" y2="23.5492" gradientUnits="userSpaceOnUse">
<stop stop-color="#7F0AE8"/>
<stop offset="1" stop-color="#11DBB7"/>
</linearGradient>
<linearGradient id="paint1_linear_61_18" x1="16.1673" y1="21.5523" x2="32.7836" y2="22.7859" gradientUnits="userSpaceOnUse">
<stop stop-color="#8109EA"/>
<stop offset="0.4392" stop-color="#750AE8"/>
<stop offset="1" stop-color="#3510DD"/>
</linearGradient>
<linearGradient id="paint2_linear_61_18" x1="16.4701" y1="38.3953" x2="31.101" y2="23.5492" gradientUnits="userSpaceOnUse">
<stop stop-color="#7F0AE8"/>
<stop offset="1" stop-color="#11DBB7"/>
</linearGradient>
<linearGradient id="paint3_linear_61_18" x1="16.1673" y1="21.5523" x2="32.7836" y2="22.7859" gradientUnits="userSpaceOnUse">
<stop stop-color="#8109EA"/>
<stop offset="0.4392" stop-color="#750AE8"/>
<stop offset="1" stop-color="#3510DD"/>
</linearGradient>
</defs>
</svg>
