<svg width="61" height="60" viewBox="0 0 61 60" fill="none" xmlns="http://www.w3.org/2000/svg">
<g clip-path="url(#clip0_10_5)">
<path d="M30.6816 57.4999C45.8695 57.4999 58.1816 45.1877 58.1816 29.9999C58.1816 14.8121 45.8695 2.5 30.6816 2.5C15.4938 2.5 3.18164 14.8121 3.18164 29.9999C3.18164 45.1877 15.4938 57.4999 30.6816 57.4999Z" fill="#E36E1B" stroke="#E36E1B" stroke-width="5"/>
<path fill-rule="evenodd" clip-rule="evenodd" d="M18.1138 15.0356C17.1395 14.9273 15.4615 15.0356 14 15.7934V21.6935C14.9563 21.2965 16.923 20.9356 18.1138 20.9356V15.0356ZM18.1138 26.8714C17.1395 26.7631 15.4615 26.8714 14 27.6292V33.5293C14.9563 33.1323 16.923 32.7715 18.1138 32.7715V26.8714ZM18.1138 20.9356C19.6294 20.7732 21.0914 20.8814 22.0658 21.0979V26.8898C20.9832 26.6732 19.1428 26.6732 18.1143 26.7815L18.1138 20.9356ZM25.9631 16.4596L25.8765 16.4244C24.9122 16.0325 23.642 15.5164 22.0658 15.3062V21.0979C23.5273 21.3144 24.9346 21.6935 25.9631 22.1806V16.4596ZM25.9631 22.1806C27.587 22.6136 28.6674 23.0383 29.5721 23.4144C29.6724 23.4561 29.7687 23.4961 29.8605 23.5339V17.8503L32.4046 18.554V15.7934C33 15.9558 34.3749 16.313 35.111 16.443V19.2036C35.7245 19.3479 37.0813 19.6366 37.601 19.6366V16.876C38.2505 16.9843 39.6904 17.2008 40.2533 17.2008V19.9614C40.3827 19.9796 40.5136 19.9975 40.6456 20.0156C42.3157 20.2445 44.1604 20.4973 45.2873 21.6935C46.9781 23.4881 46.9112 27.3771 44.1506 30.1918C49.1305 30.7872 48.5351 41.2883 40.3074 41.9378V44.6984C39.7662 44.7165 38.4779 44.7201 37.6551 44.5902V41.8296C37.0236 41.7935 35.6307 41.6888 35.111 41.5589V44.3737C34.4254 44.2834 32.9242 44.0597 32.4046 43.8865V41.0718C30.9254 40.9373 29.2374 40.3853 27.8983 39.9473C27.0812 39.6801 26.3939 39.4553 25.9632 39.3938V33.6561C26.6239 33.8146 27.3491 34.0635 28.0255 34.2956C28.7344 34.5389 29.3896 34.7638 29.8605 34.8469V29.2716L29.502 29.1335C28.2634 28.6558 27.2487 28.2645 25.9632 27.9184L25.9631 22.1806ZM35.1652 23.8045C36.1215 23.985 38.3003 24.276 39.3331 24.4C40.6864 24.5623 41.3359 25.481 41.3359 26.4569C41.3359 27.4853 40.7405 28.7664 39.0083 28.622C37.4494 28.4921 35.8147 28.207 35.1652 28.0807V23.8045ZM40.1992 33.0065C40.0777 32.9968 39.9286 32.9851 39.7586 32.9718C38.4781 32.8717 36.0094 32.6786 35.1652 32.5193V37.0121C35.8147 37.1384 38.1964 37.391 39.7662 37.391C41.6607 37.391 42.202 36.146 42.202 35.1175C42.202 33.8726 41.5524 33.1148 40.1992 33.0065ZM25.9631 27.9099C24.9888 27.5175 23.6897 27.0506 22.0658 26.8358V32.6818C23.6355 32.8983 24.7182 33.169 25.9632 33.6561L25.9631 27.9099ZM18.1143 32.6517C19.6299 32.4892 21.0914 32.4892 22.0658 32.7058V38.4976C20.9832 38.2811 19.1428 38.3893 18.1143 38.4976V32.6517Z" fill="white"/>
</g>
<defs>
<clipPath id="clip0_10_5">
<rect width="61" height="60" fill="white"/>
</clipPath>
</defs>
</svg>
