<svg width="40" height="40" viewBox="0 0 40 40" fill="none" xmlns="http://www.w3.org/2000/svg">
<path d="M20 40C31.0457 40 40 31.0457 40 20C40 8.9543 31.0457 0 20 0C8.9543 0 0 8.9543 0 20C0 31.0457 8.9543 40 20 40Z" fill="#F3BA2F"/>
<g clip-path="url(#clip0_3417_12905)">
<path fill-rule="evenodd" clip-rule="evenodd" d="M20.1402 5.54297L12.4711 9.96572L15.2907 11.598L20.1391 8.80985L24.9898 11.598L27.8093 9.96572L20.1402 5.54297ZM24.9886 13.9097L27.8093 15.5431V18.8112L22.9598 21.6005V27.1791L20.1402 28.8126L17.3207 27.1791V21.6005L12.4711 18.8112V15.5431L15.2907 13.9097L20.1391 16.699L24.9898 13.9097H24.9886ZM27.8093 21.1217V24.3898L24.9898 26.0233V22.7552L27.8093 21.1229V21.1217ZM24.962 28.3338L29.8103 25.5445V19.967L32.631 18.3324V27.1791L24.962 31.6019V28.3338ZM29.8103 14.3884L26.9919 12.755L29.8115 11.1204L32.631 12.755V16.0231L29.8115 17.6566L29.8103 14.3884ZM17.3219 32.7856V29.5163L20.1414 31.1497L22.961 29.5163V32.7843L20.1414 34.4177L17.3219 32.7843V32.7856ZM15.2883 26.022L12.4711 24.3898V21.1217L15.2907 22.7552V26.0233L15.2883 26.022ZM20.1391 14.3873L17.3195 12.755L20.1391 11.1204L22.9586 12.755L20.1391 14.3884V14.3873ZM13.2885 12.755L10.4689 14.3884V17.6566L7.64941 16.0231V12.755L10.4689 11.1204L13.2885 12.755ZM7.64941 18.3324L10.4689 19.967V25.5445L15.3173 28.3338V31.6019L7.65062 27.1791V18.3324H7.64941Z" fill="white"/>
</g>
<defs>
<clipPath id="clip0_3417_12905">
<rect width="25.2632" height="29.4737" fill="white" transform="translate(7.36816 5.2627)"/>
</clipPath>
</defs>
</svg>
