<svg width="30" height="35" viewBox="0 0 30 35" fill="none" xmlns="http://www.w3.org/2000/svg">
<path fill-rule="evenodd" clip-rule="evenodd" d="M15.1672 0.333008L6.06016 5.58502L9.40836 7.5233L15.1658 4.21243L20.926 7.5233L24.2742 5.58502L15.1672 0.333008ZM20.9246 10.2685L24.2742 12.2082V16.089L18.5154 19.4013V26.0259L15.1672 27.9657L11.819 26.0259V19.4013L6.06016 16.089V12.2082L9.40836 10.2685L15.1658 13.5808L20.926 10.2685H20.9246ZM24.2742 18.8328V22.7136L20.926 24.6534V20.7725L24.2742 18.8342V18.8328ZM20.893 27.3971L26.6504 24.0848V17.4616L30 15.5205V26.0259L20.893 31.278V27.3971ZM26.6504 10.837L23.3036 8.89732L26.6518 6.95617L30 8.89732V12.7782L26.6518 14.7179L26.6504 10.837ZM11.8204 32.6836V28.8013L15.1686 30.741L18.5168 28.8013V32.6821L15.1686 34.6218L11.8204 32.6821V32.6836ZM9.40549 24.6519L6.06016 22.7136V18.8328L9.40836 20.7725V24.6534L9.40549 24.6519ZM15.1658 10.8356L11.8176 8.89732L15.1658 6.95617L18.514 8.89732L15.1658 10.837V10.8356ZM7.03074 8.89732L3.68254 10.837V14.7179L0.334351 12.7782V8.89732L3.68254 6.95617L7.03074 8.89732ZM0.334351 15.5205L3.68254 17.4616V24.0848L9.43994 27.3971V31.278L0.335786 26.0259V15.5205H0.334351Z" fill="#F4BB2B"/>
</svg>
