<svg width="51" height="50" viewBox="0 0 51 50" fill="none" xmlns="http://www.w3.org/2000/svg">
<ellipse cx="25.6816" cy="24.9999" rx="25" ry="24.9999" fill="#F3BA2F"/>
<mask id="mask0_61_19" style="mask-type:luminance" maskUnits="userSpaceOnUse" x="13" y="10" width="26" height="31">
<path d="M39 10H13V40.3333H39V10Z" fill="white"/>
</mask>
<g mask="url(#mask0_61_19)">
<path fill-rule="evenodd" clip-rule="evenodd" d="M26.1446 10.2885L18.2519 14.8402L21.1537 16.5201L26.1435 13.6506L31.1357 16.5201L34.0374 14.8402L26.1446 10.2885ZM31.1344 18.8992L34.0374 20.5802V23.9436L29.0465 26.8143V32.5556L26.1446 34.2367L23.2429 32.5556V26.8143L18.2519 23.9436V20.5802L21.1537 18.8992L26.1435 21.7698L31.1357 18.8992H31.1344ZM34.0374 26.3215V29.6849L31.1357 31.3661V28.0027L34.0374 26.3228V26.3215ZM31.1071 33.744L36.0968 30.8733V25.1332L38.9997 23.4509V32.5556L31.1071 37.1074V33.744ZM36.0968 19.3919L33.1962 17.7108L36.098 16.0285L38.9997 17.7108V21.0742L36.098 22.7554L36.0968 19.3919ZM23.2441 38.3256V34.961L26.1459 36.642L29.0477 34.961V38.3243L26.1459 40.0053L23.2441 38.3243V38.3256ZM21.1512 31.3647L18.2519 29.6849V26.3215L21.1537 28.0027V31.3661L21.1512 31.3647ZM26.1435 19.3907L23.2417 17.7108L26.1435 16.0285L29.0452 17.7108L26.1435 19.3919V19.3907ZM19.0931 17.7108L16.1913 19.3919V22.7554L13.2896 21.0742V17.7108L16.1913 16.0285L19.0931 17.7108ZM13.2896 23.4509L16.1913 25.1332V30.8733L21.1811 33.744V37.1074L13.2908 32.5556V23.4509H13.2896Z" fill="white"/>
</g>
</svg>
