<svg width="418" height="418" viewBox="0 0 418 418" fill="none" xmlns="http://www.w3.org/2000/svg">
<circle cx="209" cy="209" r="209" fill="url(#paint0_linear_685_470)"/>
<path d="M150.551 269.135C144.812 269.135 139.931 265.036 138.955 259.336L106.161 66.7064C105.653 63.6221 106.356 60.4988 108.152 57.9221C109.948 55.3454 112.681 53.6666 115.804 53.1591C122.207 52.1049 128.297 56.3995 129.39 62.8022L162.146 255.431C162.653 258.516 161.951 261.639 160.155 264.216C158.32 266.792 155.626 268.471 152.542 269.018C151.878 269.096 151.214 269.135 150.551 269.135Z" fill="white"/>
<path d="M205.443 180.316C186.703 180.316 169.291 185.938 154.729 195.542L158.711 218.85C171.243 207.958 187.601 201.321 205.443 201.321C244.758 201.321 276.732 233.295 276.732 272.61C276.732 311.924 244.758 343.899 205.443 343.899C166.129 343.899 134.154 311.924 134.154 272.61C134.154 267.378 134.739 262.264 135.833 257.345L129.508 220.216C119.201 235.091 113.15 253.167 113.15 272.61C113.15 323.48 154.533 364.903 205.443 364.903C256.353 364.903 297.736 323.48 297.736 272.61C297.736 221.739 256.353 180.316 205.443 180.316Z" fill="white"/>
<path d="M200.406 326.449C207.349 326.449 212.978 320.821 212.978 313.878C212.978 306.935 207.349 301.307 200.406 301.307C193.464 301.307 187.835 306.935 187.835 313.878C187.835 320.821 193.464 326.449 200.406 326.449Z" fill="white"/>
<path d="M239.682 311.807C246.625 311.807 252.253 306.178 252.253 299.235C252.253 292.292 246.625 286.664 239.682 286.664C232.739 286.664 227.11 292.292 227.11 299.235C227.11 306.178 232.739 311.807 239.682 311.807Z" fill="white"/>
<path d="M208.798 284.871C215.741 284.871 221.37 279.243 221.37 272.3C221.37 265.357 215.741 259.729 208.798 259.729C201.855 259.729 196.227 265.357 196.227 272.3C196.227 279.243 201.855 284.871 208.798 284.871Z" fill="white"/>
<path d="M169.758 297.713C176.7 297.713 182.329 292.084 182.329 285.142C182.329 278.199 176.7 272.57 169.758 272.57C162.815 272.57 157.186 278.199 157.186 285.142C157.186 292.084 162.815 297.713 169.758 297.713Z" fill="white"/>
<path d="M247.685 271.984C254.628 271.984 260.256 266.356 260.256 259.413C260.256 252.47 254.628 246.842 247.685 246.842C240.742 246.842 235.114 252.47 235.114 259.413C235.114 266.356 240.742 271.984 247.685 271.984Z" fill="white"/>
<path d="M217.194 243.289C224.137 243.289 229.766 237.661 229.766 230.718C229.766 223.775 224.137 218.146 217.194 218.146C210.251 218.146 204.623 223.775 204.623 230.718C204.623 237.661 210.251 243.289 217.194 243.289Z" fill="white"/>
<path d="M177.8 257.891C184.743 257.891 190.371 252.262 190.371 245.319C190.371 238.376 184.743 232.748 177.8 232.748C170.857 232.748 165.229 238.376 165.229 245.319C165.229 252.262 170.857 257.891 177.8 257.891Z" fill="white"/>
<path fill-rule="evenodd" clip-rule="evenodd" d="M361.418 179.256C360.56 179.843 359.115 179.843 356.226 179.843H336.722C333.832 179.843 332.388 179.843 331.53 179.301C330.582 178.714 330.04 177.676 329.95 176.592C329.905 175.599 330.627 174.335 332.027 171.897L332.072 171.852L341.824 155.147C343.268 152.664 343.991 151.445 344.894 150.994C345.887 150.497 347.016 150.497 348.009 150.994C348.912 151.445 349.589 152.619 350.989 154.967L351.124 155.147L360.876 171.852C360.921 171.942 360.966 172.032 361.012 172.078C362.366 174.425 363.043 175.599 362.998 176.592C362.908 177.631 362.321 178.669 361.418 179.256Z" fill="white"/>
<path fill-rule="evenodd" clip-rule="evenodd" d="M336.586 135.01C336.225 136.454 335.457 137.854 333.877 140.563L316.224 171.76L316.179 171.85C314.644 174.559 313.831 175.959 312.748 176.997C311.574 178.126 310.129 178.939 308.549 179.435C307.104 179.842 305.524 179.842 302.319 179.842H288.729C285.885 179.842 284.44 179.842 283.582 179.3C282.634 178.713 282.092 177.72 282.002 176.591C281.957 175.553 282.634 174.334 284.079 171.85L317.714 112.616C319.159 110.088 319.881 108.824 320.784 108.372C321.777 107.876 322.951 107.876 323.899 108.372C324.802 108.824 325.525 110.088 326.969 112.616L333.877 124.671L333.922 124.716C335.457 127.425 336.27 128.779 336.586 130.224C336.947 131.804 336.947 133.43 336.586 135.01Z" fill="white"/>
<defs>
<linearGradient id="paint0_linear_685_470" x1="3.02886e-06" y1="38.5" x2="398" y2="393" gradientUnits="userSpaceOnUse">
<stop offset="0.838234" stop-color="#E84142"/>
</linearGradient>
</defs>
</svg>
