<svg width="418" height="418" viewBox="0 0 418 418" fill="none" xmlns="http://www.w3.org/2000/svg">
<circle cx="209" cy="209" r="209" fill="url(#paint0_linear_685_437)"/>
<path d="M302.038 106C302.081 106.086 302.167 106.173 302.254 106.216C311.101 115.08 319.991 123.987 328.838 132.85C329.054 133.066 329.054 133.066 328.838 133.282C325.645 136.482 322.494 139.638 319.3 142.838C319.085 143.054 319.085 143.054 318.869 142.838C313.302 137.26 307.778 131.726 302.21 126.148C301.951 125.889 301.995 125.889 301.779 126.148C296.255 131.683 290.688 137.26 285.163 142.795C284.904 143.054 284.948 143.054 284.689 142.795C281.538 139.638 278.345 136.439 275.194 133.282C274.935 133.023 274.935 133.066 275.194 132.807C284.041 123.943 292.889 115.08 301.736 106.216C301.822 106.13 301.908 106.086 301.951 106C301.951 106 301.995 106 302.038 106Z" fill="white"/>
<path d="M346 150.065C345.913 150.109 345.87 150.195 345.783 150.239C342.578 153.409 339.416 156.623 336.211 159.837C335.995 160.054 336.038 160.054 335.778 159.837C332.573 156.623 329.368 153.409 326.162 150.195C325.946 149.978 325.946 150.022 326.162 149.805C329.368 146.591 332.573 143.377 335.778 140.163C335.995 139.946 335.951 139.946 336.168 140.163C339.373 143.377 342.535 146.547 345.74 149.761C345.827 149.848 345.87 149.891 345.957 149.935C346 150.022 346 150.022 346 150.065Z" fill="white"/>
<path d="M329 166.925C329 166.968 329 166.968 328.957 167.011C328.914 167.055 328.871 167.098 328.828 167.141C319.955 176.04 311.083 184.939 302.21 193.838C301.995 194.054 302.038 194.054 301.779 193.838C292.907 184.939 284.034 176.04 275.162 167.141C274.946 166.925 274.946 166.968 275.162 166.752C278.349 163.555 281.536 160.359 284.723 157.162C284.939 156.946 284.939 156.946 285.154 157.162C290.71 162.735 296.223 168.264 301.779 173.837C302.038 174.096 301.952 174.096 302.21 173.837C307.766 168.264 313.322 162.735 318.835 157.162C319.051 156.946 319.051 156.946 319.266 157.162C322.453 160.359 325.64 163.555 328.828 166.752C328.914 166.795 328.957 166.839 329 166.925Z" fill="white"/>
<path d="M312 149.979C312 150.021 312 150.021 311.957 150.064C311.914 150.107 311.871 150.15 311.829 150.193C308.615 153.408 305.401 156.624 302.187 159.839C301.973 160.054 302.016 160.054 301.802 159.839C298.588 156.624 295.374 153.408 292.161 150.193C291.946 149.979 291.946 150.021 292.161 149.807C295.374 146.592 298.588 143.376 301.802 140.161C302.016 139.946 301.973 139.946 302.187 140.161C305.401 143.376 308.615 146.592 311.829 149.807C311.914 149.85 311.957 149.893 312 149.979Z" fill="white"/>
<path d="M278 150.022C278 150.022 278 150.065 277.957 150.065C277.913 150.109 277.87 150.152 277.826 150.195C274.614 153.409 271.402 156.623 268.19 159.837C267.973 160.054 268.016 160.054 267.799 159.837C264.587 156.623 261.375 153.409 258.163 150.195C257.946 149.978 257.946 150.022 258.163 149.805C261.375 146.591 264.587 143.377 267.799 140.163C268.016 139.946 267.973 139.946 268.19 140.163C271.402 143.377 274.614 146.591 277.826 149.805C277.87 149.848 277.913 149.891 277.957 149.935C277.957 149.978 278 149.978 278 150.022Z" fill="white"/>
<path d="M148.551 269.135C142.812 269.135 137.931 265.036 136.955 259.336L104.161 66.7064C103.653 63.6221 104.356 60.4988 106.152 57.9221C107.948 55.3454 110.681 53.6666 113.804 53.1591C120.207 52.1049 126.297 56.3995 127.39 62.8022L160.146 255.431C160.653 258.516 159.951 261.639 158.155 264.216C156.32 266.792 153.626 268.471 150.542 269.018C149.878 269.096 149.214 269.135 148.551 269.135Z" fill="white"/>
<path d="M203.443 180.316C184.703 180.316 167.291 185.938 152.729 195.542L156.711 218.85C169.243 207.958 185.601 201.321 203.443 201.321C242.758 201.321 274.732 233.295 274.732 272.61C274.732 311.924 242.758 343.899 203.443 343.899C164.129 343.899 132.154 311.924 132.154 272.61C132.154 267.378 132.739 262.264 133.833 257.345L127.508 220.216C117.201 235.091 111.15 253.167 111.15 272.61C111.15 323.48 152.533 364.903 203.443 364.903C254.353 364.903 295.736 323.48 295.736 272.61C295.736 221.739 254.353 180.316 203.443 180.316Z" fill="white"/>
<path d="M198.406 326.449C205.349 326.449 210.978 320.821 210.978 313.878C210.978 306.935 205.349 301.307 198.406 301.307C191.464 301.307 185.835 306.935 185.835 313.878C185.835 320.821 191.464 326.449 198.406 326.449Z" fill="white"/>
<path d="M237.682 311.807C244.625 311.807 250.253 306.178 250.253 299.235C250.253 292.292 244.625 286.664 237.682 286.664C230.739 286.664 225.11 292.292 225.11 299.235C225.11 306.178 230.739 311.807 237.682 311.807Z" fill="white"/>
<path d="M206.798 284.871C213.741 284.871 219.37 279.243 219.37 272.3C219.37 265.357 213.741 259.729 206.798 259.729C199.855 259.729 194.227 265.357 194.227 272.3C194.227 279.243 199.855 284.871 206.798 284.871Z" fill="white"/>
<path d="M167.758 297.713C174.7 297.713 180.329 292.084 180.329 285.142C180.329 278.199 174.7 272.57 167.758 272.57C160.815 272.57 155.186 278.199 155.186 285.142C155.186 292.084 160.815 297.713 167.758 297.713Z" fill="white"/>
<path d="M245.685 271.984C252.628 271.984 258.256 266.356 258.256 259.413C258.256 252.47 252.628 246.842 245.685 246.842C238.742 246.842 233.114 252.47 233.114 259.413C233.114 266.356 238.742 271.984 245.685 271.984Z" fill="white"/>
<path d="M215.194 243.289C222.137 243.289 227.766 237.661 227.766 230.718C227.766 223.775 222.137 218.146 215.194 218.146C208.251 218.146 202.623 223.775 202.623 230.718C202.623 237.661 208.251 243.289 215.194 243.289Z" fill="white"/>
<path d="M175.8 257.891C182.743 257.891 188.371 252.262 188.371 245.319C188.371 238.376 182.743 232.748 175.8 232.748C168.857 232.748 163.229 238.376 163.229 245.319C163.229 252.262 168.857 257.891 175.8 257.891Z" fill="white"/>
<defs>
<linearGradient id="paint0_linear_685_437" x1="3.02886e-06" y1="38.5" x2="398" y2="393" gradientUnits="userSpaceOnUse">
<stop offset="0.820934" stop-color="#F3BA2F"/>
</linearGradient>
</defs>
</svg>
