<svg width="52" height="50" viewBox="0 0 52 50" fill="none" xmlns="http://www.w3.org/2000/svg">
<ellipse cx="26.0908" cy="24.9999" rx="25.4089" ry="24.9999" fill="#E84142"/>
<path d="M19.2851 30.7887C18.7331 30.7887 18.2636 30.3944 18.1697 29.8462L15.0155 11.3183C14.9666 11.0217 15.0342 10.7213 15.207 10.4734C15.3797 10.2256 15.6426 10.0641 15.943 10.0153C16.5588 9.9139 17.1446 10.327 17.2497 10.9428L20.4003 29.4706C20.4491 29.7673 20.3816 30.0677 20.2088 30.3156C20.0323 30.5633 19.7732 30.7248 19.4766 30.7774C19.4127 30.7849 19.3488 30.7887 19.2851 30.7887Z" fill="white"/>
<path d="M24.5648 22.2457C22.7623 22.2457 21.0876 22.7865 19.687 23.7102L20.07 25.9521C21.2753 24.9044 22.8487 24.2661 24.5648 24.2661C28.3463 24.2661 31.4217 27.3414 31.4217 31.1229C31.4217 34.9043 28.3463 37.9798 24.5648 37.9798C20.7835 37.9798 17.708 34.9043 17.708 31.1229C17.708 30.6197 17.7643 30.1278 17.8695 29.6547L17.2611 26.0835C16.2698 27.5142 15.6877 29.2528 15.6877 31.1229C15.6877 36.0158 19.6681 40 24.5648 40C29.4616 40 33.4419 36.0158 33.4419 31.1229C33.4419 26.2299 29.4616 22.2457 24.5648 22.2457Z" fill="white"/>
<path d="M24.0805 36.3014C24.7483 36.3014 25.2897 35.76 25.2897 35.0922C25.2897 34.4244 24.7483 33.8831 24.0805 33.8831C23.4128 33.8831 22.8713 34.4244 22.8713 35.0922C22.8713 35.76 23.4128 36.3014 24.0805 36.3014Z" fill="white"/>
<path d="M27.8581 34.893C28.526 34.893 29.0673 34.3516 29.0673 33.6838C29.0673 33.016 28.526 32.4747 27.8581 32.4747C27.1903 32.4747 26.6489 33.016 26.6489 33.6838C26.6489 34.3516 27.1903 34.893 27.8581 34.893Z" fill="white"/>
<path d="M24.8873 32.3022C25.5552 32.3022 26.0966 31.7609 26.0966 31.0931C26.0966 30.4253 25.5552 29.884 24.8873 29.884C24.2195 29.884 23.6782 30.4253 23.6782 31.0931C23.6782 31.7609 24.2195 32.3022 24.8873 32.3022Z" fill="white"/>
<path d="M21.1326 33.5374C21.8003 33.5374 22.3417 32.996 22.3417 32.3283C22.3417 31.6605 21.8003 31.1191 21.1326 31.1191C20.4648 31.1191 19.9233 31.6605 19.9233 32.3283C19.9233 32.996 20.4648 33.5374 21.1326 33.5374Z" fill="white"/>
<path d="M28.6278 31.0627C29.2956 31.0627 29.837 30.5214 29.837 29.8536C29.837 29.1858 29.2956 28.6445 28.6278 28.6445C27.96 28.6445 27.4187 29.1858 27.4187 29.8536C27.4187 30.5214 27.96 31.0627 28.6278 31.0627Z" fill="white"/>
<path d="M25.6952 28.3027C26.363 28.3027 26.9044 27.7614 26.9044 27.0936C26.9044 26.4258 26.363 25.8844 25.6952 25.8844C25.0274 25.8844 24.4861 26.4258 24.4861 27.0936C24.4861 27.7614 25.0274 28.3027 25.6952 28.3027Z" fill="white"/>
<path d="M21.9059 29.7072C22.5737 29.7072 23.115 29.1658 23.115 28.498C23.115 27.8302 22.5737 27.2888 21.9059 27.2888C21.2381 27.2888 20.6968 27.8302 20.6968 28.498C20.6968 29.1658 21.2381 29.7072 21.9059 29.7072Z" fill="white"/>
<path fill-rule="evenodd" clip-rule="evenodd" d="M39.5672 22.1438C39.4847 22.2002 39.3457 22.2002 39.0678 22.2002H37.1918C36.9139 22.2002 36.775 22.2002 36.6924 22.1481C36.6013 22.0916 36.5491 21.9918 36.5405 21.8875C36.5361 21.792 36.6056 21.6705 36.7402 21.436L36.7446 21.4316L37.6826 19.8249C37.8214 19.5861 37.891 19.4688 37.9778 19.4254C38.0734 19.3776 38.1819 19.3776 38.2775 19.4254C38.3643 19.4688 38.4294 19.5817 38.5641 19.8076L38.5771 19.8249L39.5151 21.4316C39.5194 21.4403 39.5237 21.4489 39.5281 21.4534C39.6584 21.6791 39.7235 21.792 39.7192 21.8875C39.7105 21.9875 39.654 22.0873 39.5672 22.1438Z" fill="white"/>
<path fill-rule="evenodd" clip-rule="evenodd" d="M37.1785 17.888C37.1438 18.0269 37.0699 18.1616 36.918 18.4221L35.22 21.4228L35.2157 21.4315C35.0681 21.692 34.9899 21.8267 34.8857 21.9265C34.7728 22.0351 34.6338 22.1133 34.4818 22.161C34.3428 22.2002 34.1909 22.2002 33.8826 22.2002H32.5755C32.3019 22.2002 32.1629 22.2002 32.0804 22.148C31.9892 22.0916 31.9371 21.996 31.9284 21.8875C31.9241 21.7876 31.9892 21.6704 32.1282 21.4315L35.3633 15.7341C35.5023 15.4909 35.5718 15.3694 35.6586 15.3259C35.7541 15.2782 35.8671 15.2782 35.9582 15.3259C36.0451 15.3694 36.1146 15.4909 36.2535 15.7341L36.918 16.8936L36.9223 16.8979C37.0699 17.1585 37.1481 17.2887 37.1785 17.4277C37.2132 17.5797 37.2132 17.7361 37.1785 17.888Z" fill="white"/>
</svg>
