<svg width="185" height="300" viewBox="0 0 185 300" fill="none" xmlns="http://www.w3.org/2000/svg">
<path d="M22 181.5C16.089 192.573 17 197.571 17 211C17 254.63 52.3695 290 96 290C139.63 290 175 254.63 175 211C175 167.37 139.63 132 96 132C80.6292 132 66.2837 136.39 54.1488 143.984" stroke="#EBFF99" stroke-width="10"/>
<path d="M22 169.5C14 183.5 9.99997 192.364 9.99997 210.5C9.99997 257.72 48.2796 296 95.5 296C142.72 296 181 257.72 181 210.5C181 163.28 142.72 125 95.5 125C78.407 125 62.4855 130.016 49.1271 138.656" stroke="#CCFF00" stroke-width="7"/>
<path d="M26 192.5C23.5 201.5 24 200.627 24 210.5C24 249.988 56.0117 282 95.5 282C134.988 282 167 249.988 167 210.5C167 171.012 134.988 139 95.5 139C79.0573 139 63.9109 144.55 51.8322 153.88" stroke="#CCFF00" stroke-width="7"/>
<path d="M46.9999 136.107L53.5 132.5L57 154.5L51 159L46.9999 136.107Z" fill="#CCFF00"/>
<path d="M18.5 168.5L23.9006 160L29.5 194L23.9006 207L18.5 168.5Z" fill="#CCFF00"/>
<rect x="6.35452" y="7.79973" width="11.6519" height="196.631" rx="5.82595" transform="rotate(-9.60596 6.35452 7.79973)" fill="#EBFF99"/>
<rect x="19.349" y="3.45477" width="200.752" height="16.1161" rx="8.05804" transform="rotate(80.482 19.349 3.45477)" stroke="#CCFF00" stroke-width="6"/>
<path d="M96.4964 245.986C95.999 244.8 95.1617 243.789 94.0892 243.079C93.0167 242.37 91.7585 241.994 90.4726 242C89.1868 242.005 87.9314 242.393 86.8655 243.111C85.7995 243.83 84.9708 244.849 84.4839 246.039C83.9971 247.229 83.8741 248.536 84.1305 249.796C84.387 251.056 85.0112 252.211 85.9245 253.117C86.8377 254.021 87.9988 254.635 89.2612 254.881C90.5231 255.126 91.8297 254.991 93.0156 254.494C94.6045 253.826 95.8632 252.555 96.5154 250.96C97.1681 249.365 97.1611 247.576 96.4964 245.986Z" fill="#D9D9D9"/>
<path d="M100.894 244.326C99.978 242.142 98.436 240.279 96.461 238.972C94.486 237.665 92.169 236.973 89.801 236.984C87.433 236.994 85.121 237.707 83.158 239.031C81.195 240.355 79.669 242.231 78.773 244.423C77.876 246.615 77.65 249.023 78.122 251.343C78.594 253.664 79.744 255.792 81.425 257.459C83.107 259.126 85.245 260.256 87.57 260.708C89.894 261.16 92.3 260.912 94.484 259.996C97.41 258.765 99.728 256.424 100.93 253.487C102.131 250.549 102.118 247.254 100.894 244.326ZM92.134 254.376C91.416 254.682 90.644 254.838 89.864 254.836C88.505 254.837 87.187 254.367 86.135 253.506C85.082 252.646 84.361 251.447 84.092 250.115C83.823 248.782 84.024 247.398 84.661 246.197C85.297 244.995 86.33 244.052 87.584 243.526C88.302 243.22 89.074 243.064 89.854 243.066C91.213 243.065 92.531 243.535 93.583 244.396C94.636 245.256 95.357 246.455 95.626 247.787C95.895 249.12 95.693 250.504 95.057 251.705C94.42 252.907 93.387 253.85 92.134 254.376Z" fill="#1CD8D2"/>
<path d="M133.496 231.986C132.999 230.8 132.162 229.789 131.089 229.079C130.017 228.37 128.759 227.994 127.473 228C126.187 228.005 124.931 228.393 123.865 229.111C122.8 229.83 121.971 230.849 121.484 232.039C120.997 233.229 120.874 234.536 121.131 235.796C121.387 237.056 122.011 238.211 122.924 239.117C123.838 240.021 124.999 240.635 126.261 240.881C127.523 241.126 128.83 240.991 130.016 240.494C131.605 239.826 132.863 238.555 133.515 236.96C134.168 235.365 134.161 233.576 133.496 231.986Z" fill="#D9D9D9"/>
<path d="M138.264 230.386C137.348 228.202 135.806 226.339 133.831 225.032C131.857 223.725 129.539 223.033 127.171 223.044C124.803 223.054 122.492 223.767 120.528 225.091C118.565 226.415 117.039 228.291 116.143 230.483C115.246 232.675 115.02 235.083 115.492 237.403C115.964 239.724 117.114 241.852 118.796 243.519C120.477 245.186 122.616 246.316 124.94 246.768C127.264 247.22 129.67 246.972 131.854 246.056C134.78 244.825 137.098 242.484 138.3 239.547C139.501 236.609 139.489 233.314 138.264 230.386ZM129.504 240.436C128.786 240.742 128.014 240.898 127.234 240.896C125.875 240.897 124.557 240.427 123.505 239.566C122.452 238.706 121.731 237.507 121.462 236.175C121.193 234.842 121.394 233.458 122.031 232.257C122.668 231.055 123.7 230.112 124.954 229.586C125.672 229.28 126.444 229.124 127.224 229.126C128.583 229.125 129.901 229.595 130.953 230.455C132.006 231.316 132.727 232.515 132.996 233.847C133.265 235.18 133.064 236.564 132.427 237.765C131.79 238.967 130.758 239.91 129.504 240.436Z" fill="#1CD8D2"/>
<path d="M104.496 206.986C103.999 205.8 103.162 204.789 102.089 204.079C101.017 203.37 99.7585 202.994 98.4726 203C97.1868 203.005 95.9314 203.393 94.8655 204.111C93.7995 204.83 92.9708 205.849 92.4839 207.039C91.9971 208.229 91.8741 209.536 92.1305 210.796C92.387 212.056 93.0112 213.211 93.9245 214.117C94.8377 215.021 95.9988 215.635 97.2612 215.881C98.5231 216.126 99.8297 215.991 101.016 215.494C102.605 214.826 103.863 213.555 104.515 211.96C105.168 210.365 105.161 208.576 104.496 206.986Z" fill="#D9D9D9"/>
<path d="M108.874 204.726C107.958 202.542 106.416 200.679 104.441 199.372C102.466 198.066 100.149 197.374 97.781 197.384C95.413 197.394 93.101 198.107 91.138 199.431C89.175 200.755 87.649 202.631 86.753 204.823C85.856 207.015 85.63 209.423 86.102 211.743C86.574 214.064 87.724 216.192 89.405 217.859C91.087 219.526 93.225 220.656 95.55 221.108C97.874 221.56 100.28 221.312 102.464 220.396C105.39 219.165 107.708 216.824 108.909 213.887C110.111 210.949 110.098 207.654 108.874 204.726ZM103.284 211.586C102.993 212.302 102.563 212.954 102.019 213.503C101.475 214.053 100.827 214.489 100.114 214.786C99.396 215.092 98.624 215.248 97.844 215.246C96.485 215.247 95.167 214.777 94.114 213.916C93.062 213.056 92.341 211.857 92.072 210.525C91.803 209.192 92.004 207.808 92.641 206.607C93.277 205.405 94.31 204.462 95.564 203.936C96.282 203.631 97.054 203.474 97.834 203.476C98.993 203.475 100.126 203.817 101.091 204.459C102.056 205.102 102.808 206.016 103.254 207.086C103.558 207.796 103.717 208.56 103.723 209.333C103.728 210.106 103.579 210.872 103.284 211.586Z" fill="#1CD8D2"/>
<path d="M67.4964 218.986C66.999 217.8 66.1617 216.789 65.0892 216.079C64.0167 215.37 62.7585 214.994 61.4726 215C60.1868 215.005 58.9314 215.393 57.8655 216.111C56.7995 216.83 55.9708 217.849 55.4839 219.039C54.9971 220.229 54.8741 221.536 55.1305 222.796C55.387 224.056 56.0112 225.211 56.9245 226.117C57.8377 227.021 58.9988 227.635 60.2612 227.881C61.5231 228.126 62.8297 227.991 64.0156 227.494C65.6045 226.826 66.8632 225.555 67.5154 223.96C68.1681 222.365 68.1611 220.576 67.4964 218.986Z" fill="#D9D9D9"/>
<path d="M72.0124 217.342C71.0964 215.158 69.5544 213.295 67.5794 211.988C65.6044 210.681 63.2874 209.989 60.9194 210C58.5514 210.01 56.2394 210.723 54.2764 212.047C52.3134 213.371 50.7874 215.247 49.8914 217.439C48.9944 219.631 48.7684 222.039 49.2404 224.359C49.7124 226.68 50.8624 228.808 52.5434 230.475C54.2254 232.142 56.3634 233.272 58.6884 233.724C61.0124 234.176 63.4184 233.928 65.6024 233.012C68.5284 231.781 70.8464 229.44 72.0484 226.503C73.2494 223.565 73.2364 220.27 72.0124 217.342ZM63.2524 227.392C62.5344 227.698 61.7624 227.854 60.9824 227.852C59.6234 227.853 58.3054 227.383 57.2534 226.522C56.2004 225.662 55.4794 224.463 55.2104 223.131C54.9414 221.798 55.1424 220.414 55.7794 219.213C56.4154 218.011 57.4484 217.068 58.7024 216.542C59.4204 216.236 60.1924 216.08 60.9724 216.082C62.3314 216.081 63.6494 216.551 64.7014 217.412C65.7544 218.272 66.4754 219.471 66.7444 220.803C67.0134 222.136 66.8114 223.52 66.1754 224.721C65.5384 225.923 64.5054 226.866 63.2524 227.392Z" fill="#1CD8D2"/>
<path d="M111.496 166.986C110.999 165.8 110.162 164.789 109.089 164.079C108.017 163.37 106.759 162.994 105.473 163C104.187 163.005 102.931 163.393 101.865 164.111C100.8 164.83 99.9708 165.849 99.4839 167.039C98.9971 168.229 98.8741 169.536 99.1305 170.796C99.387 172.056 100.011 173.211 100.924 174.117C101.838 175.021 102.999 175.635 104.261 175.881C105.523 176.126 106.83 175.991 108.016 175.494C109.605 174.826 110.863 173.555 111.515 171.96C112.168 170.365 112.161 168.576 111.496 166.986Z" fill="#D9D9D9"/>
<path d="M116.864 165.136C115.948 162.952 114.406 161.089 112.431 159.782C110.457 158.475 108.139 157.783 105.771 157.794C103.403 157.804 101.092 158.517 99.129 159.841C97.166 161.165 95.639 163.041 94.743 165.233C93.846 167.425 93.62 169.833 94.092 172.153C94.564 174.474 95.714 176.602 97.396 178.269C99.077 179.936 101.216 181.066 103.54 181.518C105.864 181.97 108.271 181.722 110.454 180.806C113.38 179.575 115.698 177.234 116.9 174.297C118.101 171.359 118.089 168.064 116.864 165.136ZM108.104 175.186C107.386 175.492 106.614 175.648 105.834 175.646C104.674 175.647 103.539 175.305 102.573 174.663C101.606 174.021 100.852 173.106 100.404 172.036C100.03 171.142 99.883 170.17 99.975 169.205C100.067 168.24 100.395 167.313 100.931 166.506C101.468 165.699 102.195 165.037 103.048 164.578C103.902 164.119 104.855 163.878 105.824 163.876C107.184 163.875 108.501 164.345 109.554 165.206C110.606 166.066 111.328 167.265 111.596 168.597C111.865 169.93 111.664 171.314 111.027 172.515C110.391 173.717 109.358 174.66 108.104 175.186Z" fill="#1CD8D2"/>
<path d="M141.496 193.986C140.999 192.8 140.162 191.789 139.089 191.079C138.017 190.37 136.759 189.994 135.473 190C134.187 190.005 132.931 190.393 131.865 191.111C130.8 191.83 129.971 192.849 129.484 194.039C128.997 195.229 128.874 196.536 129.131 197.796C129.387 199.056 130.011 200.211 130.924 201.117C131.838 202.021 132.999 202.635 134.261 202.881C135.523 203.126 136.83 202.991 138.016 202.494C139.605 201.826 140.863 200.555 141.515 198.96C142.168 197.365 142.161 195.576 141.496 193.986Z" fill="#D9D9D9"/>
<path d="M145.914 192.476C144.998 190.292 143.456 188.429 141.481 187.122C139.506 185.816 137.189 185.124 134.821 185.134C132.453 185.144 130.141 185.857 128.178 187.181C126.215 188.505 124.689 190.381 123.793 192.573C122.896 194.765 122.67 197.173 123.142 199.493C123.614 201.814 124.764 203.942 126.445 205.609C128.127 207.276 130.265 208.406 132.59 208.858C134.914 209.31 137.32 209.062 139.504 208.146C142.43 206.915 144.748 204.574 145.95 201.637C147.151 198.699 147.138 195.404 145.914 192.476ZM137.154 202.526C136.436 202.832 135.664 202.988 134.884 202.986C133.525 202.987 132.207 202.517 131.155 201.657C130.102 200.796 129.381 199.597 129.112 198.265C128.843 196.932 129.044 195.548 129.681 194.347C130.318 193.145 131.35 192.202 132.604 191.676C133.322 191.371 134.094 191.214 134.874 191.216C136.231 191.219 137.546 191.69 138.596 192.551C139.646 193.412 140.366 194.609 140.634 195.94C140.902 197.27 140.702 198.653 140.068 199.853C139.434 201.054 138.404 201.998 137.154 202.526Z" fill="#1CD8D2"/>
<path d="M74.4964 180.986C73.999 179.8 73.1617 178.789 72.0892 178.079C71.0167 177.37 69.7585 176.994 68.4726 177C67.1868 177.005 65.9314 177.393 64.8655 178.111C63.7995 178.83 62.9708 179.849 62.4839 181.039C61.9971 182.229 61.8741 183.536 62.1305 184.796C62.387 186.056 63.0112 187.211 63.9245 188.117C64.8377 189.021 65.9988 189.635 67.2612 189.881C68.5231 190.126 69.8297 189.991 71.0156 189.494C72.6045 188.826 73.8632 187.555 74.5154 185.96C75.1681 184.365 75.1611 182.576 74.4964 180.986Z" fill="#D9D9D9"/>
<path d="M79.374 179.046C78.458 176.862 76.916 174.999 74.941 173.692C72.966 172.385 70.649 171.693 68.281 171.704C65.913 171.714 63.6013 172.427 61.6383 173.751C59.6753 175.075 58.1491 176.951 57.2526 179.143C56.3561 181.335 56.1296 183.743 56.6018 186.063C57.074 188.383 58.2236 190.512 59.9054 192.179C61.5871 193.845 63.7254 194.976 66.05 195.428C68.374 195.88 70.78 195.632 72.964 194.716C75.89 193.485 78.208 191.144 79.409 188.207C80.611 185.269 80.598 181.974 79.374 179.046ZM73.784 185.906C73.493 186.622 73.063 187.274 72.519 187.823C71.975 188.372 71.327 188.808 70.614 189.106C69.896 189.411 69.124 189.568 68.344 189.566C66.985 189.567 65.667 189.097 64.6145 188.236C63.5623 187.376 62.8405 186.177 62.5719 184.845C62.3032 183.512 62.5043 182.128 63.1409 180.927C63.7775 179.725 64.8103 178.782 66.064 178.256C66.782 177.95 67.554 177.794 68.334 177.796C69.298 177.799 70.247 178.039 71.097 178.494C71.947 178.949 72.673 179.605 73.21 180.405C73.748 181.205 74.082 182.125 74.182 183.084C74.282 184.043 74.145 185.012 73.784 185.906Z" fill="#1CD8D2"/>
</svg>
