<svg width="52" height="50" viewBox="0 0 52 50" fill="none" xmlns="http://www.w3.org/2000/svg">
<ellipse cx="26.0908" cy="24.9999" rx="25.4089" ry="24.9999" fill="#B1DD00"/>
<path d="M21.2851 30.7886C20.7331 30.7886 20.2636 30.3944 20.1697 29.8461L17.0154 11.3183C16.9667 11.0217 17.0342 10.7213 17.207 10.4734C17.3797 10.2256 17.6426 10.0641 17.943 10.0153C18.5588 9.91392 19.1446 10.327 19.2497 10.9428L22.4003 29.4706C22.4491 29.7673 22.3815 30.0676 22.2088 30.3155C22.0323 30.5633 21.7732 30.7249 21.4766 30.7774C21.4127 30.7849 21.3488 30.7886 21.2851 30.7886Z" fill="white"/>
<path d="M26.5648 22.2457C24.7624 22.2457 23.0876 22.7865 21.6869 23.7102L22.0699 25.952C23.2754 24.9043 24.8488 24.266 26.5648 24.266C30.3462 24.266 33.4217 27.3414 33.4217 31.1228C33.4217 34.9042 30.3462 37.9797 26.5648 37.9797C22.7834 37.9797 19.708 34.9042 19.708 31.1228C19.708 30.6197 19.7644 30.1277 19.8695 29.6545L19.2611 26.0834C18.2697 27.5142 17.6877 29.2528 17.6877 31.1228C17.6877 36.0158 21.6682 40 26.5648 40C31.4615 40 35.442 36.0158 35.442 31.1228C35.442 26.2299 31.4615 22.2457 26.5648 22.2457Z" fill="white"/>
<path d="M26.0804 36.3014C26.7483 36.3014 27.2896 35.7601 27.2896 35.0924C27.2896 34.4245 26.7483 33.8831 26.0804 33.8831C25.4127 33.8831 24.8713 34.4245 24.8713 35.0924C24.8713 35.7601 25.4127 36.3014 26.0804 36.3014Z" fill="white"/>
<path d="M29.8579 34.893C30.5256 34.893 31.067 34.3517 31.067 33.6839C31.067 33.016 30.5256 32.4747 29.8579 32.4747C29.19 32.4747 28.6487 33.016 28.6487 33.6839C28.6487 34.3517 29.19 34.893 29.8579 34.893Z" fill="white"/>
<path d="M26.8876 32.3023C27.5554 32.3023 28.0968 31.7609 28.0968 31.0931C28.0968 30.4253 27.5554 29.884 26.8876 29.884C26.2198 29.884 25.6785 30.4253 25.6785 31.0931C25.6785 31.7609 26.2198 32.3023 26.8876 32.3023Z" fill="white"/>
<path d="M23.1323 33.5373C23.8 33.5373 24.3414 32.996 24.3414 32.3281C24.3414 31.6604 23.8 31.119 23.1323 31.119C22.4645 31.119 21.9231 31.6604 21.9231 32.3281C21.9231 32.996 22.4645 33.5373 23.1323 33.5373Z" fill="white"/>
<path d="M30.6278 31.0628C31.2956 31.0628 31.837 30.5214 31.837 29.8537C31.837 29.1859 31.2956 28.6445 30.6278 28.6445C29.9601 28.6445 29.4187 29.1859 29.4187 29.8537C29.4187 30.5214 29.9601 31.0628 30.6278 31.0628Z" fill="white"/>
<path d="M27.6949 28.3027C28.3628 28.3027 28.9041 27.7613 28.9041 27.0936C28.9041 26.4258 28.3628 25.8844 27.6949 25.8844C27.0272 25.8844 26.4858 26.4258 26.4858 27.0936C26.4858 27.7613 27.0272 28.3027 27.6949 28.3027Z" fill="white"/>
<path d="M23.9059 29.7072C24.5737 29.7072 25.1151 29.1658 25.1151 28.498C25.1151 27.8302 24.5737 27.2889 23.9059 27.2889C23.2381 27.2889 22.6968 27.8302 22.6968 28.498C22.6968 29.1658 23.2381 29.7072 23.9059 29.7072Z" fill="white"/>
</svg>
