<svg width="51" height="50" viewBox="0 0 51 50" fill="none" xmlns="http://www.w3.org/2000/svg">
<ellipse cx="25.6819" cy="24.9999" rx="25" ry="24.9999" fill="#F3BA2F"/>
<path d="M34.0479 15.0977C34.052 15.106 34.0603 15.1144 34.0687 15.1185C34.9196 15.9711 35.7747 16.8278 36.6256 17.6803C36.6464 17.701 36.6464 17.701 36.6256 17.7218C36.3185 18.0296 36.0154 18.3331 35.7082 18.6409C35.6875 18.6617 35.6875 18.6617 35.6668 18.6409C35.1313 18.1044 34.6 17.5721 34.0644 17.0356C34.0395 17.0107 34.0438 17.0107 34.023 17.0356C33.4917 17.568 32.9562 18.1044 32.4248 18.6368C32.3999 18.6617 32.4041 18.6617 32.3792 18.6368C32.0761 18.3331 31.769 18.0255 31.4659 17.7218C31.441 17.6969 31.441 17.701 31.4659 17.6761C32.3169 16.8235 33.1679 15.9711 34.0189 15.1185C34.0271 15.1102 34.0354 15.106 34.0395 15.0977C34.0395 15.0977 34.0438 15.0977 34.0479 15.0977Z" fill="white"/>
<path d="M38.2765 19.3361C38.2681 19.3403 38.264 19.3486 38.2556 19.3528C37.9473 19.6577 37.6432 19.9668 37.3349 20.276C37.3141 20.2968 37.3183 20.2968 37.2933 20.276C36.985 19.9668 36.6767 19.6577 36.3684 19.3486C36.3476 19.3277 36.3476 19.3319 36.3684 19.3111C36.6767 19.0019 36.985 18.6928 37.2933 18.3837C37.3141 18.3628 37.3099 18.3628 37.3308 18.3837C37.639 18.6928 37.9432 18.9977 38.2514 19.3068C38.2598 19.3152 38.264 19.3193 38.2723 19.3236C38.2765 19.3319 38.2765 19.3319 38.2765 19.3361Z" fill="white"/>
<path d="M36.6414 20.9577C36.6414 20.9619 36.6414 20.9619 36.6373 20.966C36.6332 20.9702 36.629 20.9744 36.6249 20.9785C35.7714 21.8345 34.9181 22.6904 34.0647 23.5463C34.044 23.5671 34.0481 23.5671 34.0232 23.5463C33.1699 22.6904 32.3164 21.8345 31.4631 20.9785C31.4423 20.9577 31.4423 20.9619 31.4631 20.9411C31.7696 20.6336 32.0762 20.3262 32.3827 20.0187C32.4035 19.9979 32.4035 19.9979 32.4242 20.0187C32.9586 20.5547 33.4888 21.0865 34.0232 21.6226C34.0481 21.6475 34.0399 21.6475 34.0647 21.6226C34.5991 21.0865 35.1335 20.5547 35.6637 20.0187C35.6845 19.9979 35.6845 19.9979 35.7052 20.0187C36.0117 20.3262 36.3183 20.6336 36.6249 20.9411C36.6332 20.9452 36.6373 20.9495 36.6414 20.9577Z" fill="white"/>
<path d="M35.0062 19.3278C35.0062 19.3318 35.0062 19.3318 35.0021 19.336C34.9979 19.3401 34.9938 19.3442 34.9898 19.3484C34.6806 19.6576 34.3715 19.9669 34.0624 20.2761C34.0418 20.2968 34.0459 20.2968 34.0253 20.2761C33.7162 19.9669 33.4071 19.6576 33.098 19.3484C33.0773 19.3278 33.0773 19.3318 33.098 19.3112C33.4071 19.002 33.7162 18.6927 34.0253 18.3834C34.0459 18.3628 34.0418 18.3628 34.0624 18.3834C34.3715 18.6927 34.6806 19.002 34.9898 19.3112C34.9979 19.3154 35.0021 19.3195 35.0062 19.3278Z" fill="white"/>
<path d="M31.7362 19.3319C31.7362 19.3319 31.7362 19.3361 31.732 19.3361C31.7278 19.3403 31.7236 19.3444 31.7194 19.3486C31.4105 19.6577 31.1015 19.9668 30.7926 20.276C30.7717 20.2968 30.7759 20.2968 30.755 20.276C30.446 19.9668 30.1371 19.6577 29.8282 19.3486C29.8073 19.3277 29.8073 19.3319 29.8282 19.3111C30.1371 19.0019 30.446 18.6928 30.755 18.3837C30.7759 18.3628 30.7717 18.3628 30.7926 18.3837C31.1015 18.6928 31.4105 19.0019 31.7194 19.3111C31.7236 19.3152 31.7278 19.3193 31.732 19.3236C31.732 19.3277 31.7362 19.3277 31.7362 19.3319Z" fill="white"/>
<path d="M19.2851 30.7887C18.7331 30.7887 18.2636 30.3944 18.1697 29.8462L15.0155 11.3183C14.9666 11.0217 15.0342 10.7213 15.207 10.4734C15.3797 10.2256 15.6426 10.0641 15.943 10.0153C16.5588 9.9139 17.1446 10.327 17.2497 10.9428L20.4003 29.4706C20.4491 29.7673 20.3816 30.0677 20.2088 30.3155C20.0323 30.5633 19.7732 30.7248 19.4766 30.7774C19.4127 30.7849 19.3488 30.7887 19.2851 30.7887Z" fill="white"/>
<path d="M24.5646 22.2458C22.7621 22.2458 21.0873 22.7865 19.6867 23.7103L20.0697 25.9521C21.2751 24.9045 22.8485 24.2661 24.5646 24.2661C28.346 24.2661 31.4214 27.3415 31.4214 31.1229C31.4214 34.9043 28.346 37.9798 24.5646 37.9798C20.7832 37.9798 17.7077 34.9043 17.7077 31.1229C17.7077 30.6197 17.764 30.1278 17.8692 29.6547L17.2609 26.0835C16.2695 27.5142 15.6875 29.2528 15.6875 31.1229C15.6875 36.0158 19.6679 40 24.5646 40C29.4613 40 33.4417 36.0158 33.4417 31.1229C33.4417 26.23 29.4613 22.2458 24.5646 22.2458Z" fill="white"/>
<path d="M24.0805 36.3013C24.7483 36.3013 25.2897 35.76 25.2897 35.0922C25.2897 34.4244 24.7483 33.8831 24.0805 33.8831C23.4128 33.8831 22.8713 34.4244 22.8713 35.0922C22.8713 35.76 23.4128 36.3013 24.0805 36.3013Z" fill="white"/>
<path d="M27.8581 34.893C28.526 34.893 29.0673 34.3516 29.0673 33.6838C29.0673 33.016 28.526 32.4747 27.8581 32.4747C27.1903 32.4747 26.6489 33.016 26.6489 33.6838C26.6489 34.3516 27.1903 34.893 27.8581 34.893Z" fill="white"/>
<path d="M24.8873 32.3022C25.5552 32.3022 26.0966 31.7609 26.0966 31.0931C26.0966 30.4253 25.5552 29.884 24.8873 29.884C24.2195 29.884 23.6782 30.4253 23.6782 31.0931C23.6782 31.7609 24.2195 32.3022 24.8873 32.3022Z" fill="white"/>
<path d="M21.1328 33.5374C21.8005 33.5374 22.3419 32.996 22.3419 32.3283C22.3419 31.6605 21.8005 31.119 21.1328 31.119C20.465 31.119 19.9236 31.6605 19.9236 32.3283C19.9236 32.996 20.465 33.5374 21.1328 33.5374Z" fill="white"/>
<path d="M28.6276 31.0627C29.2954 31.0627 29.8367 30.5214 29.8367 29.8536C29.8367 29.1858 29.2954 28.6444 28.6276 28.6444C27.9598 28.6444 27.4185 29.1858 27.4185 29.8536C27.4185 30.5214 27.9598 31.0627 28.6276 31.0627Z" fill="white"/>
<path d="M25.695 28.3027C26.3628 28.3027 26.9042 27.7614 26.9042 27.0936C26.9042 26.4258 26.3628 25.8844 25.695 25.8844C25.0272 25.8844 24.4858 26.4258 24.4858 27.0936C24.4858 27.7614 25.0272 28.3027 25.695 28.3027Z" fill="white"/>
<path d="M21.9061 29.7072C22.574 29.7072 23.1153 29.1658 23.1153 28.498C23.1153 27.8302 22.574 27.2888 21.9061 27.2888C21.2383 27.2888 20.697 27.8302 20.697 28.498C20.697 29.1658 21.2383 29.7072 21.9061 29.7072Z" fill="white"/>
</svg>
