<svg width="418" height="418" viewBox="0 0 418 418" fill="none" xmlns="http://www.w3.org/2000/svg">
<circle cx="209" cy="209" r="209" fill="url(#paint0_linear_685_631)"/>
<path d="M162.98 262.96C157.83 262.96 153.45 259.282 152.574 254.166L123.144 81.3001C122.689 78.5323 123.319 75.7295 124.931 73.4171C126.543 71.1047 128.995 69.5982 131.798 69.1427C137.544 68.1968 143.009 72.0507 143.99 77.7966L173.385 250.663C173.841 253.431 173.21 256.233 171.599 258.546C169.952 260.858 167.534 262.365 164.767 262.855C164.171 262.925 163.575 262.96 162.98 262.96Z" fill="white"/>
<path d="M212.241 183.254C195.424 183.254 179.798 188.299 166.73 196.918L170.303 217.834C181.55 208.059 196.23 202.103 212.241 202.103C247.522 202.103 276.216 230.797 276.216 266.078C276.216 301.359 247.522 330.054 212.241 330.054C176.96 330.054 148.266 301.359 148.266 266.078C148.266 261.384 148.792 256.794 149.773 252.379L144.097 219.06C134.847 232.409 129.417 248.631 129.417 266.078C129.417 311.73 166.555 348.903 212.241 348.903C257.928 348.903 295.066 311.73 295.066 266.078C295.066 220.427 257.928 183.254 212.241 183.254Z" fill="white"/>
<path d="M207.721 314.395C213.952 314.395 219.003 309.344 219.003 303.114C219.003 296.883 213.952 291.832 207.721 291.832C201.491 291.832 196.44 296.883 196.44 303.114C196.44 309.344 201.491 314.395 207.721 314.395Z" fill="white"/>
<path d="M242.966 301.254C249.196 301.254 254.247 296.204 254.247 289.973C254.247 283.742 249.196 278.691 242.966 278.691C236.735 278.691 231.684 283.742 231.684 289.973C231.684 296.204 236.735 301.254 242.966 301.254Z" fill="white"/>
<path d="M215.251 277.083C221.482 277.083 226.533 272.032 226.533 265.801C226.533 259.57 221.482 254.52 215.251 254.52C209.021 254.52 203.97 259.57 203.97 265.801C203.97 272.032 209.021 277.083 215.251 277.083Z" fill="white"/>
<path d="M180.216 288.606C186.446 288.606 191.497 283.555 191.497 277.324C191.497 271.094 186.446 266.043 180.216 266.043C173.985 266.043 168.934 271.094 168.934 277.324C168.934 283.555 173.985 288.606 180.216 288.606Z" fill="white"/>
<path d="M250.148 265.518C256.379 265.518 261.43 260.467 261.43 254.237C261.43 248.006 256.379 242.955 250.148 242.955C243.918 242.955 238.867 248.006 238.867 254.237C238.867 260.467 243.918 265.518 250.148 265.518Z" fill="white"/>
<path d="M222.786 239.766C229.017 239.766 234.068 234.715 234.068 228.485C234.068 222.254 229.017 217.203 222.786 217.203C216.556 217.203 211.505 222.254 211.505 228.485C211.505 234.715 216.556 239.766 222.786 239.766Z" fill="white"/>
<path d="M187.433 252.87C193.664 252.87 198.715 247.819 198.715 241.588C198.715 235.358 193.664 230.307 187.433 230.307C181.203 230.307 176.152 235.358 176.152 241.588C176.152 247.819 181.203 252.87 187.433 252.87Z" fill="white"/>
<defs>
<linearGradient id="paint0_linear_685_631" x1="-34.5" y1="373" x2="511" y2="56.5" gradientUnits="userSpaceOnUse">
<stop offset="0.155824" stop-color="#B1DD00"/>
</linearGradient>
</defs>
</svg>
