<svg width="51" height="50" viewBox="0 0 51 50" fill="none" xmlns="http://www.w3.org/2000/svg">
<ellipse cx="25.6819" cy="24.9999" rx="25" ry="24.9999" fill="white"/>
<path d="M13.48 33.6024L23.9841 39.752C24.9139 40.2963 26.0645 40.2986 26.9964 39.758L37.6111 33.6005C38.5336 33.0653 39.1015 32.0795 39.1015 31.013V19.052C39.1015 17.9781 38.5259 16.9867 37.5933 16.4542L26.9786 10.3936C26.0557 9.8667 24.9226 9.86895 24.0019 10.3995L13.4978 16.4522C12.5711 16.9862 12 17.9744 12 19.044V31.0209C12 32.0832 12.5633 33.0657 13.48 33.6024Z" fill="#00E28D"/>
<g filter="url(#filter0_f_61_23)">
<path d="M35.0929 25.0978C35.0929 30.3734 30.8162 34.6501 25.5406 34.6501C20.265 34.6501 15.9883 30.3734 15.9883 25.0978C15.9883 19.8222 20.265 15.5455 25.5406 15.5455C30.8162 15.5455 35.0929 19.8222 35.0929 25.0978Z" fill="white"/>
</g>
<path fill-rule="evenodd" clip-rule="evenodd" d="M23.9422 23.0135C24.9022 23.5752 26.09 23.5775 27.0523 23.0197L37.604 16.9033L38.8041 18.9737L28.2296 25.1033C27.2761 25.656 26.6892 26.6747 26.6892 27.7768V39.6954H24.2961V27.7654C24.2961 26.6677 23.7138 25.6524 22.7663 25.0981L12.2932 18.9713L13.5016 16.9057L23.9422 23.0135Z" fill="#00E28D"/>
<defs>
<filter id="filter0_f_61_23" x="10.426" y="9.98317" width="30.2294" height="30.2293" filterUnits="userSpaceOnUse" color-interpolation-filters="sRGB">
<feFlood flood-opacity="0" result="BackgroundImageFix"/>
<feBlend mode="normal" in="SourceGraphic" in2="BackgroundImageFix" result="shape"/>
<feGaussianBlur stdDeviation="2.78116" result="effect1_foregroundBlur_61_23"/>
</filter>
</defs>
</svg>
