<svg width="51" height="50" viewBox="0 0 51 50" fill="none" xmlns="http://www.w3.org/2000/svg">
<ellipse cx="25.6819" cy="24.9999" rx="25" ry="24.9999" fill="#EAB300"/>
<path d="M35.3425 19.2335C35.0227 15.9573 32.1512 14.8594 28.5227 14.5463V10H25.7148V14.4249C24.9776 14.4249 24.2225 14.4386 23.4733 14.4543V10H20.6654L20.6634 14.5424C20.0554 14.5541 19.4572 14.5659 18.875 14.5659V14.5522L15.002 14.5502V17.5054C15.002 17.5054 17.0766 17.4662 17.0408 17.5034C18.1795 17.5034 18.5491 18.1532 18.6564 18.7149V23.8933C18.7359 23.8933 18.8372 23.8972 18.9525 23.9129H18.6564L18.6544 31.1676C18.6047 31.52 18.3941 32.0816 17.5992 32.0836C17.635 32.115 15.5584 32.0836 15.5584 32.0836L15 35.3872H18.6564C19.336 35.3872 20.0057 35.3989 20.6615 35.4028L20.6634 40H23.4693V35.4517C24.2384 35.4676 24.9836 35.4734 25.7128 35.4734L25.7108 40H28.5187V35.4125C33.2402 35.1464 36.5488 33.9741 36.9584 29.606C37.2902 26.0891 35.611 24.5176 32.9303 23.8835C34.5617 23.0694 35.5812 21.6309 35.3425 19.2335ZM31.4121 29.0619C31.4121 32.4965 25.4406 32.1072 23.5349 32.1072V26.0149C25.4406 26.0188 31.4121 25.4804 31.4121 29.0619ZM30.1045 20.4684C30.1045 23.5939 25.1207 23.2279 23.5349 23.2298V17.707C25.1227 17.707 30.1065 17.2099 30.1045 20.4684Z" fill="white"/>
</svg>
