<svg width="20" height="21" viewBox="0 0 20 21" fill="none" xmlns="http://www.w3.org/2000/svg">
<path d="M19.9999 10.0478C19.9999 15.5959 15.5224 20.0941 9.99754 20.0949C4.47666 20.0949 -0.000860734 15.5959 -6.06063e-05 10.047C-0.00166086 4.49822 4.47586 0 9.99914 0C15.5224 0 19.9999 4.49902 19.9999 10.0478V10.0478Z" fill="#EAB300"/>
<path d="M13.9342 7.5865C13.8054 6.24089 12.6492 5.78994 11.1882 5.66133V3.79404H10.0576V5.61149C9.76078 5.61149 9.45673 5.61712 9.15508 5.62355V3.79404H8.0245L8.0237 5.65972C7.77886 5.66454 7.53802 5.66937 7.30358 5.66937V5.66374L5.74413 5.66294V6.87672C5.74413 6.87672 6.57947 6.86064 6.56506 6.87591C7.02354 6.87591 7.17236 7.14278 7.21557 7.37348V9.50041C7.24757 9.50041 7.28838 9.50202 7.33479 9.50845H7.21557L7.21477 12.4882C7.19476 12.6329 7.10995 12.8636 6.7899 12.8644C6.8043 12.8773 5.96817 12.8644 5.96817 12.8644L5.74333 14.2213H7.21557C7.48921 14.2213 7.75886 14.2261 8.0229 14.2277L8.0237 16.1159H9.15348V14.2478C9.46313 14.2543 9.76318 14.2567 10.0568 14.2567L10.056 16.1159H11.1866V14.2317C13.0877 14.1224 14.4199 13.6409 14.5848 11.8468C14.7184 10.4023 14.0423 9.75683 12.9629 9.49639C13.6198 9.162 14.0303 8.57119 13.9342 7.5865V7.5865ZM12.3516 11.6233C12.3516 13.034 9.94721 12.8741 9.17988 12.8741V10.3718C9.94721 10.3734 12.3516 10.1523 12.3516 11.6233V11.6233ZM11.8251 8.09371C11.8251 9.37743 9.81839 9.22711 9.17988 9.22791V6.95951C9.81919 6.95951 11.8259 6.75534 11.8251 8.09371Z" fill="white"/>
</svg>
