<svg width="51" height="50" viewBox="0 0 51 50" fill="none" xmlns="http://www.w3.org/2000/svg">
<ellipse cx="25.6819" cy="24.9999" rx="25" ry="24.9999" fill="#0032AD"/>
<mask id="mask0_61_30" style="mask-type:luminance" maskUnits="userSpaceOnUse" x="10" y="9" width="32" height="32">
<path d="M42 9H10V41H42V9Z" fill="white"/>
</mask>
<g mask="url(#mask0_61_30)">
<path d="M25.6074 10.3032C26.3049 9.9395 27.1562 10.7832 26.7849 11.48C26.5699 12.0479 25.7539 12.199 25.3371 11.7661C24.896 11.3505 25.04 10.5292 25.6074 10.3032ZM18.1058 11.1116C18.5294 10.9371 19.0658 11.3254 19.0224 11.7872C19.0673 12.2885 18.4545 12.6577 18.0227 12.4193C17.4504 12.1977 17.5159 11.2687 18.1058 11.1116ZM33.47 12.4334C32.8078 12.3534 32.7032 11.3124 33.3406 11.1021C33.835 10.861 34.2885 11.3132 34.3608 11.7818C34.2571 12.1819 33.922 12.5491 33.47 12.4334ZM19.8123 14.304C20.5207 13.856 21.5313 14.5231 21.4224 15.3459C21.3858 16.1766 20.2822 16.6579 19.6598 16.0962C19.0582 15.6551 19.149 14.6428 19.8123 14.304ZM30.6252 14.7796C30.9416 13.966 32.2221 13.9404 32.5818 14.734C32.9373 15.351 32.5 16.115 31.8666 16.3247C31.0275 16.4814 30.2304 15.5737 30.6252 14.7796ZM24.704 16.2782C24.6971 15.5782 25.3347 15.0566 26 15.009C26.4413 15.0974 26.9222 15.2854 27.1115 15.7308C27.4643 16.3452 27.1511 17.1908 26.5136 17.4728C26.2222 17.636 25.8776 17.5751 25.5601 17.5558C25.0748 17.3176 24.666 16.8502 24.704 16.2782ZM13.548 17.2981C14.1951 16.9003 15.068 17.6263 14.823 18.3292C14.6881 18.9372 13.8709 19.1845 13.4036 18.7964C12.9044 18.4328 12.9839 17.5582 13.548 17.2981ZM37.504 17.2969C38.053 16.8707 38.9589 17.3596 38.8934 18.052C38.9304 18.6841 38.1471 19.1607 37.602 18.8354C37.0019 18.5656 36.9406 17.6429 37.504 17.2969ZM27.8412 18.5546C28.7472 18.2293 29.8232 18.6186 30.3395 19.4263C31.0206 20.4137 30.6583 21.9174 29.6012 22.4838C28.5061 23.1539 26.9069 22.5863 26.5024 21.3629C26.0432 20.268 26.7122 18.8978 27.8412 18.5546ZM22.5261 18.663C23.5301 18.1895 24.8812 18.5863 25.3662 19.6137C25.937 20.6134 25.4957 22.0054 24.4753 22.5215C23.4538 23.1017 22.0125 22.6623 21.5185 21.5885C20.9637 20.5507 21.456 19.141 22.5261 18.663ZM17.204 20.4826C17.2807 19.8356 17.8905 19.4148 18.5062 19.3711C19.1697 19.4511 19.6995 19.9664 19.7716 20.6384C19.7281 21.3029 19.2144 21.9526 18.5102 21.9486C17.7353 22.0153 17.056 21.244 17.204 20.4826ZM32.9237 19.5124C33.7191 19.0492 34.8238 19.7234 34.7884 20.6374C34.843 21.6056 33.6204 22.2885 32.8284 21.72C32.0054 21.2471 32.0694 19.9151 32.9237 19.5124ZM20.363 22.9247C21.2934 22.6687 22.3572 23.1073 22.8135 23.9624C23.3128 24.8232 23.1091 26.0189 22.3328 26.6504C21.3371 27.5765 19.5008 27.2047 18.9709 25.9408C18.362 24.7823 19.1015 23.2297 20.363 22.9247ZM30.4445 22.9198C31.3488 22.6612 32.4113 23.0094 32.8977 23.8337C33.5407 24.7762 33.2337 26.1818 32.2767 26.7893C31.2739 27.4948 29.7211 27.1244 29.1695 26.0213C28.5007 24.8803 29.1736 23.2678 30.4445 22.9198ZM14.3787 23.9951C15.1824 23.6911 16.0733 24.578 15.7476 25.3747C15.5489 26.1005 14.526 26.3693 13.9974 25.8338C13.379 25.3313 13.6079 24.2131 14.3787 23.9951ZM36.1632 25.1514C36.14 24.4857 36.6272 23.8957 37.3101 23.8586C37.8604 23.9457 38.3957 24.3897 38.3521 24.989C38.4026 25.7804 37.449 26.3183 36.7747 25.9464C36.4587 25.7858 36.2966 25.462 36.1632 25.1514ZM10.4272 24.3853C10.9107 24.1743 11.5088 24.5933 11.3985 25.1303C11.3729 25.7383 10.475 25.972 10.1452 25.464C9.85378 25.1119 10.0281 24.5678 10.4272 24.3853ZM40.9143 24.3725C41.2547 24.1301 41.801 24.3043 41.9359 24.7021C42.1647 25.1365 41.7451 25.7317 41.2562 25.6583C40.5696 25.7208 40.3473 24.6747 40.9143 24.3725ZM22.9894 27.291C24.2618 26.9601 25.6294 28.0205 25.6374 29.331C25.7206 30.6549 24.3734 31.829 23.0711 31.5233C22.0643 31.3612 21.2744 30.3915 21.3071 29.3739C21.3044 28.4012 22.0385 27.4968 22.9894 27.291ZM28.0284 27.2882C29.3197 26.9273 30.7279 28.0072 30.7075 29.3477C30.7758 30.6471 29.4708 31.7815 28.1955 31.5237C26.9955 31.3685 26.1102 30.0501 26.4452 28.8856C26.6142 28.1097 27.2625 27.4785 28.0284 27.2882ZM18.3131 28.0946C19.2067 27.9423 20.0444 28.9394 19.682 29.7875C19.4178 30.6919 18.1019 30.937 17.5201 30.1984C16.8377 29.4892 17.3472 28.1925 18.3131 28.0946ZM33.0897 28.1357C33.8865 27.8022 34.8647 28.4912 34.8034 29.356C34.8354 30.3082 33.6278 30.9645 32.8487 30.4088C31.9654 29.9096 32.1268 28.4419 33.0897 28.1357ZM37.2202 32.2784C36.9081 31.6969 37.4748 30.9261 38.1206 31.0336C38.4421 31.0284 38.6669 31.2814 38.8726 31.4944C38.9148 31.8393 38.9858 32.2496 38.6997 32.5159C38.3111 33.0075 37.4311 32.8666 37.2202 32.2784ZM13.5456 31.1958C14.1491 30.7939 15.0175 31.3932 14.8819 32.0988C14.8096 32.7228 14.0243 33.0795 13.5059 32.726C12.9502 32.4045 12.9707 31.4886 13.5456 31.1958ZM25.4688 32.5025C26.2588 32.1539 27.2655 32.8418 27.1906 33.7121C27.2491 34.6737 26.0042 35.3398 25.2321 34.7618C24.3746 34.2658 24.5167 32.8075 25.4688 32.5025ZM19.9455 33.7903C20.6184 33.4362 21.5217 34.0477 21.4603 34.8014C21.4809 35.4199 20.8773 35.9471 20.267 35.8555C19.7615 35.8447 19.4319 35.3915 19.2699 34.9609C19.2782 34.4911 19.4714 33.9674 19.9455 33.7903ZM31.1318 33.8018C31.8239 33.3741 32.8075 33.9885 32.7421 34.7938C32.7598 35.6356 31.6483 36.1749 31.0038 35.622C30.38 35.1885 30.4562 34.1466 31.1318 33.8018ZM33.0776 38.6109C32.7704 38.1452 33.132 37.5841 33.6319 37.478C34.0337 37.5597 34.4587 37.862 34.3742 38.3279C34.3157 38.9585 33.3935 39.1519 33.0776 38.6109ZM17.6356 38.2065C17.7583 37.8374 18.0553 37.4705 18.4899 37.5665C19.1233 37.6114 19.3113 38.5661 18.7569 38.8606C18.2583 39.1966 17.6799 38.7363 17.6356 38.2065ZM25.0853 38.6301C25.2067 38.084 25.9134 37.8184 26.3793 38.1086C26.6865 38.2406 26.7771 38.5852 26.8562 38.8778C26.814 39.0303 26.7762 39.1831 26.7391 39.3354C26.5483 39.5615 26.3039 39.7878 25.9858 39.7796C25.3959 39.8487 24.8638 39.1818 25.0853 38.6301Z" fill="white"/>
</g>
</svg>
