<svg width="418" height="418" viewBox="0 0 418 418" fill="none" xmlns="http://www.w3.org/2000/svg">
<circle cx="209" cy="209" r="209" fill="#0032AD"/>
<mask id="mask0_685_659" style="mask-type:luminance" maskUnits="userSpaceOnUse" x="68" y="68" width="282" height="282">
<path d="M350 68H68V350H350V68Z" fill="white"/>
</mask>
<g mask="url(#mask0_685_659)">
<path d="M205.54 79.4839C211.687 76.2792 219.189 83.7139 215.917 89.8548C214.022 94.8597 206.831 96.1907 203.158 92.3758C199.271 88.7132 200.54 81.4759 205.54 79.4839ZM139.432 86.6084C143.165 85.0709 147.892 88.4921 147.51 92.562C147.906 96.9794 142.505 100.233 138.7 98.1322C133.657 96.1795 134.234 87.9924 139.432 86.6084ZM274.829 98.2563C268.994 97.5513 268.072 88.3782 273.689 86.5249C278.046 84.3998 282.042 88.385 282.68 92.5146C281.766 96.0407 278.813 99.276 274.829 98.2563ZM154.471 114.741C160.714 110.793 169.62 116.672 168.66 123.923C168.337 131.244 158.612 135.485 153.127 130.535C147.825 126.648 148.626 117.727 154.471 114.741ZM249.76 118.933C252.548 111.763 263.832 111.537 267.002 118.531C270.135 123.968 266.281 130.701 260.699 132.549C253.305 133.93 246.28 125.931 249.76 118.933ZM197.579 132.139C197.518 125.97 203.137 121.374 209 120.954C212.889 121.733 217.127 123.39 218.795 127.315C221.904 132.729 219.144 140.181 213.526 142.666C210.958 144.105 207.921 143.568 205.123 143.398C200.847 141.299 197.244 137.18 197.579 132.139ZM99.2667 141.127C104.969 137.621 112.662 144.019 110.503 150.213C109.314 155.571 102.112 157.751 97.9944 154.331C93.5952 151.126 94.2957 143.419 99.2667 141.127ZM310.379 141.116C315.217 137.36 323.2 141.669 322.623 147.771C322.949 153.341 316.046 157.541 311.243 154.674C305.954 152.297 305.414 144.165 310.379 141.116ZM225.226 152.2C233.21 149.333 242.692 152.764 247.242 159.882C253.244 168.583 250.051 181.834 240.736 186.826C231.085 192.731 216.992 187.729 213.427 176.948C209.381 167.299 215.276 155.224 225.226 152.2ZM178.386 153.155C187.234 148.982 199.141 152.479 203.415 161.533C208.445 170.343 204.556 182.61 195.564 187.158C186.562 192.271 173.86 188.399 169.507 178.936C164.618 169.79 168.956 157.367 178.386 153.155ZM131.485 169.19C132.161 163.489 137.535 159.78 142.961 159.395C148.808 160.1 153.477 164.641 154.112 170.563C153.729 176.419 149.202 182.145 142.996 182.109C136.167 182.697 130.181 175.9 131.485 169.19ZM270.015 160.64C277.025 156.558 286.76 162.5 286.448 170.554C286.929 179.087 276.155 185.105 269.175 180.095C261.923 175.927 262.487 164.189 270.015 160.64ZM159.324 190.711C167.523 188.455 176.898 192.32 180.919 199.856C185.319 207.442 183.524 217.979 176.683 223.544C167.908 231.705 151.726 228.429 147.056 217.291C141.69 207.081 148.207 193.399 159.324 190.711ZM248.167 190.668C256.136 188.389 265.5 191.458 269.786 198.722C275.452 207.028 272.747 219.414 264.313 224.768C255.476 230.985 241.792 227.721 236.931 218C231.037 207.945 236.967 193.735 248.167 190.668ZM106.587 200.144C113.67 197.465 121.521 205.281 118.651 212.302C116.9 218.698 107.885 221.067 103.227 216.348C97.7778 211.919 99.7947 202.065 106.587 200.144ZM298.563 210.334C298.359 204.468 302.652 199.268 308.67 198.941C313.52 199.709 318.237 203.622 317.853 208.903C318.298 215.877 309.894 220.617 303.952 217.34C301.167 215.925 299.739 213.071 298.563 210.334ZM71.7649 203.583C76.0253 201.723 81.2965 205.416 80.3242 210.148C80.0986 215.506 72.1856 217.566 69.2799 213.089C66.7114 209.986 68.2478 205.191 71.7649 203.583ZM340.432 203.47C343.432 201.334 348.246 202.869 349.435 206.375C351.451 210.203 347.754 215.448 343.445 214.801C337.395 215.352 335.436 206.133 340.432 203.47ZM182.469 229.189C193.682 226.273 205.734 235.618 205.805 247.167C206.538 258.834 194.666 269.18 183.189 266.486C174.317 265.058 167.356 256.512 167.644 247.545C167.62 238.973 174.089 231.003 182.469 229.189ZM226.875 229.165C238.255 225.984 250.665 235.501 250.485 247.314C251.087 258.765 239.586 268.762 228.348 266.49C217.773 265.122 209.971 253.504 212.923 243.242C214.413 236.404 220.126 230.842 226.875 229.165ZM141.259 236.271C149.134 234.929 156.516 243.716 153.323 251.19C150.994 259.16 139.398 261.32 134.271 254.811C128.257 248.561 132.747 237.134 141.259 236.271ZM271.478 236.633C278.5 233.694 287.12 239.766 286.58 247.387C286.862 255.778 276.22 261.562 269.354 256.665C261.57 252.266 262.992 239.332 271.478 236.633ZM307.878 273.141C305.128 268.016 310.122 261.224 315.813 262.171C318.646 262.125 320.627 264.355 322.44 266.232C322.812 269.271 323.437 272.887 320.916 275.234C317.492 279.566 309.737 278.324 307.878 273.141ZM99.2453 263.6C104.564 260.059 112.217 265.34 111.022 271.558C110.385 277.057 103.464 280.2 98.8956 277.085C93.999 274.252 94.1795 266.181 99.2453 263.6ZM204.319 275.116C211.281 272.044 220.152 278.106 219.492 285.775C220.008 294.249 209.037 300.119 202.233 295.026C194.676 290.655 195.928 277.803 204.319 275.116ZM155.645 286.464C161.575 283.344 169.535 288.733 168.994 295.375C169.175 300.825 163.856 305.471 158.478 304.664C154.023 304.569 151.119 300.575 149.691 296.78C149.764 292.64 151.467 288.025 155.645 286.464ZM254.224 286.566C260.323 282.797 268.991 288.211 268.415 295.308C268.571 302.726 258.776 307.479 253.096 302.606C247.599 298.786 248.27 289.604 254.224 286.566ZM271.371 328.946C268.664 324.842 271.851 319.897 276.256 318.962C279.797 319.682 283.542 322.346 282.798 326.452C282.282 332.009 274.155 333.713 271.371 328.946ZM135.289 325.382C136.37 322.129 138.987 318.896 142.817 319.742C148.399 320.138 150.056 328.551 145.17 331.146C140.776 334.107 135.679 330.051 135.289 325.382ZM200.939 329.115C202.009 324.303 208.237 321.962 212.343 324.519C215.05 325.683 215.848 328.719 216.545 331.298C216.173 332.642 215.84 333.988 215.513 335.331C213.832 337.323 211.678 339.317 208.875 339.245C203.676 339.854 198.987 333.977 200.939 329.115Z" fill="white"/>
</g>
</svg>
