<svg width="20" height="20" viewBox="0 0 20 20" fill="none" xmlns="http://www.w3.org/2000/svg">
<g clip-path="url(#clip0_4814_59498)">
<path d="M9.75464 0.814445C10.1906 0.587163 10.7226 1.11445 10.4906 1.54997C10.3562 1.90493 9.84616 1.99933 9.58568 1.72877C9.31 1.46901 9.4 0.955726 9.75464 0.814445ZM5.06607 1.31973C5.33087 1.21069 5.66607 1.45333 5.63903 1.74197C5.66711 2.05526 5.28407 2.28598 5.01415 2.13702C4.65654 1.99853 4.69742 1.41797 5.06607 1.31981V1.31973ZM14.6687 2.14582C14.2549 2.09582 14.1895 1.44525 14.5879 1.31381C14.8969 1.16309 15.1803 1.44573 15.2255 1.73861C15.1607 1.98869 14.9513 2.21774 14.6687 2.14542V2.14582ZM6.13271 3.31495C6.57543 3.03494 7.20711 3.45191 7.13903 3.96615C7.11607 4.48536 6.42639 4.78616 6.03735 4.43512C5.66135 4.15943 5.71815 3.52687 6.13271 3.31511V3.31495ZM12.8908 3.61223C13.0885 3.10374 13.8888 3.08774 14.1136 3.58375C14.3358 3.96935 14.0625 4.44687 13.6666 4.57792C13.1422 4.67584 12.6442 4.10895 12.891 3.61263L12.8908 3.61223ZM9.19 4.54888C9.18568 4.11135 9.58416 3.78535 10 3.75559C10.2758 3.81087 10.5764 3.92839 10.6947 4.20671C10.9152 4.59072 10.7194 5.1192 10.321 5.29544C10.1389 5.39752 9.92344 5.35944 9.72504 5.34736C9.42176 5.19848 9.16632 4.90648 9.19008 4.54896L9.19 4.54888ZM2.2175 5.18632C2.6219 4.93768 3.1675 5.39144 3.01438 5.83073C2.93006 6.21073 2.41926 6.36529 2.12726 6.12273C1.81526 5.89545 1.86494 5.34888 2.2175 5.18632ZM17.19 5.18552C17.5331 4.91912 18.0993 5.22472 18.0584 5.65753C18.0815 6.05257 17.5919 6.35041 17.2513 6.14705C16.8762 5.97849 16.8379 5.40136 17.19 5.18512V5.18552ZM11.1508 5.97161C11.717 5.76825 12.3895 6.01161 12.7122 6.51641C13.1379 7.13354 12.9114 8.07331 12.2508 8.42739C11.5663 8.84619 10.5668 8.49139 10.314 7.72682C10.027 7.0425 10.4451 6.18609 11.1508 5.97161V5.97161ZM7.82879 6.03937C8.45631 5.74337 9.3008 5.99137 9.60392 6.63353C9.96064 7.25834 9.6848 8.12835 9.04712 8.45091C8.40863 8.81355 7.50783 8.53891 7.19911 7.86778C6.85231 7.21914 7.15999 6.33809 7.82879 6.03937ZM4.50246 7.17658C4.55046 6.77225 4.93159 6.50921 5.31639 6.48193C5.73103 6.53193 6.06223 6.85394 6.10727 7.27394C6.08007 7.6893 5.75903 8.09539 5.31887 8.09283C4.83454 8.13451 4.40998 7.65282 4.50246 7.1769V7.17658ZM14.3273 6.57017C14.8245 6.28073 15.5149 6.70209 15.4928 7.2733C15.5269 7.8785 14.7628 8.30531 14.2677 7.95002C13.7534 7.65442 13.7934 6.82201 14.3273 6.57025V6.57017ZM6.47687 8.70291C7.05839 8.54291 7.72327 8.81699 8.00847 9.35148C8.32047 9.88948 8.19319 10.6368 7.70799 11.0315C7.08567 11.6103 5.93799 11.3779 5.60679 10.588C5.22623 9.86388 5.68847 8.89347 6.47687 8.70283V8.70291ZM12.7778 8.69987C13.343 8.53819 14.0071 8.75587 14.3111 9.27108C14.7129 9.86012 14.5211 10.7386 13.9229 11.1183C13.2962 11.5592 12.3257 11.3277 11.9809 10.6383C11.5629 9.92516 11.9835 8.91739 12.7778 8.69987V8.69987ZM2.7367 9.37188C3.23902 9.18187 3.79582 9.7362 3.5923 10.2342C3.46806 10.6878 2.8287 10.8558 2.49838 10.5211C2.1119 10.207 2.25502 9.50812 2.73678 9.37188H2.7367ZM16.352 10.0946C16.3375 9.6786 16.642 9.3098 17.0688 9.2866C17.4128 9.34108 17.7473 9.6186 17.7201 9.99308C17.7516 10.4877 17.1556 10.8239 16.7342 10.5915C16.5367 10.4911 16.4354 10.2885 16.352 10.0944V10.0946ZM0.267012 9.6158C0.569173 9.48388 0.943014 9.7458 0.874054 10.0814C0.858054 10.4614 0.296852 10.6075 0.0907719 10.29C-0.0913886 10.0699 0.0175717 9.72988 0.267012 9.6158ZM19.3214 9.6078C19.5342 9.45628 19.8756 9.56516 19.9599 9.8138C20.1029 10.0853 19.8407 10.4573 19.5351 10.4114C19.106 10.4505 18.9671 9.79668 19.3214 9.6078ZM8.11839 11.4318C8.9136 11.225 9.7684 11.8878 9.77344 12.7069C9.82536 13.5343 8.98344 14.2681 8.16943 14.077C7.54023 13.9757 7.04655 13.3696 7.06695 12.7337C7.06527 12.1257 7.52415 11.5605 8.11847 11.4318H8.11839ZM11.2677 11.4301C12.0748 11.2045 12.955 11.8795 12.9422 12.7173C12.9849 13.5294 12.1692 14.2384 11.3722 14.0773C10.6222 13.9803 10.0689 13.1563 10.2782 12.4285C10.3839 11.9435 10.7891 11.5491 11.2677 11.4301V11.4301ZM5.19567 11.9341C5.75415 11.8389 6.27775 12.4621 6.05127 12.9922C5.88607 13.5574 5.06367 13.7106 4.70006 13.249C4.27358 12.8057 4.59198 11.9953 5.19567 11.9341V11.9341ZM14.4311 11.9598C14.9291 11.7513 15.5404 12.182 15.5021 12.7225C15.5221 13.3176 14.7674 13.7278 14.2804 13.3805C13.7284 13.0685 13.8292 12.1512 14.4311 11.9598ZM17.0126 14.549C16.8176 14.1855 17.1718 13.7038 17.5754 13.771C17.7763 13.7677 17.9168 13.9259 18.0454 14.059C18.0718 14.2745 18.1161 14.531 17.9373 14.6974C17.6945 15.0047 17.1445 14.917 17.0126 14.5494V14.549ZM2.21598 13.8723C2.59318 13.6212 3.13598 13.9957 3.05118 14.4367C3.00606 14.8267 2.51518 15.0496 2.19118 14.8287C1.8439 14.6278 1.8567 14.0558 2.21598 13.8727V13.8723ZM9.668 14.6891C10.1618 14.4712 10.7909 14.9011 10.7441 15.445C10.7807 16.046 10.0026 16.4623 9.52008 16.1011C8.98408 15.7911 9.0732 14.8794 9.66832 14.6889L9.668 14.6891ZM6.21599 15.4939C6.63655 15.2726 7.20103 15.6548 7.16271 16.1259C7.17551 16.5124 6.79831 16.8419 6.41687 16.7847C6.10095 16.7779 5.89495 16.4947 5.79367 16.2255C5.79887 15.9319 5.91967 15.605 6.21599 15.4943V15.4939ZM13.2074 15.5011C13.6399 15.2338 14.2547 15.6178 14.2138 16.1211C14.2249 16.6472 13.5302 16.9843 13.1274 16.6387C12.7375 16.3678 12.7851 15.7166 13.2074 15.5011ZM14.4235 18.5068C14.2315 18.2157 14.4575 17.865 14.7699 17.7987C15.0211 17.8498 15.2867 18.0387 15.2339 18.3299C15.1973 18.724 14.6209 18.8449 14.4235 18.5068ZM4.7723 18.254C4.84894 18.0233 5.03455 17.794 5.30615 17.854C5.70207 17.8821 5.81959 18.4788 5.47303 18.6628C5.16143 18.8728 4.7999 18.5852 4.7723 18.254ZM9.42832 18.5188C9.50416 18.1775 9.94592 18.0115 10.2371 18.1928C10.4291 18.2754 10.4857 18.4907 10.5351 18.6736C10.5087 18.7689 10.4851 18.8644 10.4619 18.9596C10.3427 19.1009 10.1899 19.2423 9.99112 19.2372C9.6224 19.2804 9.28984 18.8636 9.42832 18.5188Z" fill="#0032AD"/>
</g>
<defs>
<clipPath id="clip0_4814_59498">
<rect width="20" height="20" fill="white"/>
</clipPath>
</defs>
</svg>
