<svg width="51" height="50" viewBox="0 0 51 50" fill="none" xmlns="http://www.w3.org/2000/svg">
<ellipse cx="25.6816" cy="24.9999" rx="25" ry="24.9999" fill="white"/>
<path d="M36.5003 33.2155C35.7884 33.2155 35.1842 33.7148 35.0331 34.4097L29.3694 34.1384C29.391 34.0298 29.4016 33.921 29.4016 33.8125C29.4016 33.6171 29.3694 33.4217 29.3154 33.2264L31.376 32.032C31.8829 32.6618 32.7999 32.7919 33.458 32.3144C34.116 31.8366 34.2887 30.9246 33.8464 30.2406C33.4041 29.5566 32.5087 29.3395 31.8075 29.7411C31.1062 30.1429 30.8366 31.0332 31.2033 31.7607L29.2075 32.9222C28.7328 31.9125 27.557 31.4565 26.5321 31.8801C25.5072 32.3035 24.9894 33.4652 25.3561 34.5182L21.645 35.4193C21.6235 34.9092 21.4077 34.4314 21.0517 34.0622L21.7206 33.1287C22.4757 33.3891 23.3064 33.0092 23.6085 32.26C23.9105 31.5109 23.5761 30.6531 22.8533 30.3165C22.1305 29.9691 21.2567 30.2624 20.8791 30.9681C20.5015 31.6737 20.7388 32.5641 21.4185 32.9875L20.8036 33.8451C20.372 33.5194 19.8219 33.3782 19.2824 33.4435L18.646 29.7846C19.4443 29.611 20.0592 28.9812 20.2318 28.1886C20.4044 27.3852 20.1023 26.5602 19.455 26.0715C18.8078 25.572 17.9339 25.507 17.2219 25.887L15.6145 22.7276C15.9597 22.5539 16.2402 22.2825 16.4452 21.9567L17.7829 22.315C17.7721 22.391 17.7613 22.4562 17.7613 22.5322C17.7613 23.3139 18.3547 23.9761 19.1314 24.0522C19.9082 24.1281 20.6202 23.5962 20.7604 22.8144C20.9007 22.0328 20.4368 21.2836 19.6816 21.0773C18.9264 20.8602 18.1389 21.2619 17.8584 22.0002L16.5962 21.6636C16.7688 21.2511 16.8012 20.7951 16.6933 20.3608L20.4152 18.6345C21.1056 19.5031 22.3571 19.6876 23.2633 19.0362C24.1695 18.3848 24.4068 17.1363 23.8027 16.2026L26.176 13.8683C26.4674 14.0529 26.8018 14.1723 27.1363 14.194V15.2254C26.3487 15.3123 25.7553 16.0071 25.7986 16.8106C25.8416 17.614 26.4996 18.2437 27.298 18.2437C28.0963 18.2437 28.7544 17.614 28.7976 16.8106C28.8406 16.0071 28.2582 15.3123 27.4599 15.2254V14.194C27.7619 14.1723 28.0425 14.0855 28.3013 13.9443L30.9012 16.93C30.297 17.7334 30.3403 18.8517 30.9983 19.6008C31.6672 20.3499 32.7675 20.5236 33.6307 20.0025C34.4937 19.4814 34.8605 18.4282 34.5261 17.4837L35.3353 17.0277C35.853 17.6357 36.7484 17.7442 37.3849 17.2557C38.0215 16.778 38.1724 15.8769 37.7301 15.2146C37.2878 14.5523 36.4032 14.346 35.7235 14.7586C35.0439 15.1711 34.7957 16.0397 35.1625 16.7563L34.3966 17.1905C34.0838 16.6151 33.5228 16.2243 32.8862 16.1266C32.2498 16.0288 31.5917 16.2351 31.1278 16.6911L28.5819 13.7706C28.83 13.5752 29.035 13.3146 29.1751 13.0323L31.4084 13.4015C31.5809 14.1832 32.336 14.6934 33.1128 14.5523C33.9003 14.422 34.4398 13.6946 34.3534 12.902C34.2671 12.1095 33.5767 11.5124 32.7891 11.5558C31.9908 11.5992 31.376 12.2506 31.3652 13.054L29.2937 12.7066C29.5851 11.7078 29.1104 10.6438 28.1718 10.1987C27.2333 9.75353 26.1222 10.0792 25.5504 10.9478C24.9786 11.8163 25.1295 12.978 25.9064 13.6729L23.5977 15.942C23.2417 15.5294 22.7346 15.2689 22.1952 15.2254V13.6403C22.9828 13.5535 23.5761 12.8586 23.533 12.0552C23.4898 11.2518 22.8425 10.6329 22.0442 10.6329C21.2459 10.6329 20.5878 11.2626 20.5446 12.0661C20.5015 12.8695 21.0841 13.5643 21.8824 13.6512V15.2254C21.1704 15.2797 20.5339 15.7031 20.1994 16.3328C19.865 16.9734 19.8758 17.7334 20.2318 18.3631L16.607 20.0351C16.4775 19.7202 16.2726 19.4488 16.0136 19.2317L17.4269 16.6694C17.5563 16.702 17.675 16.7237 17.8045 16.7237C18.5704 16.7237 19.2069 16.1483 19.304 15.3883C19.4011 14.6283 18.9048 13.9226 18.1713 13.738C17.4269 13.5535 16.6717 13.9552 16.402 14.6717C16.1323 15.3883 16.4452 16.1917 17.114 16.55L15.7439 19.0471C14.9132 18.5477 13.8668 18.6888 13.1872 19.3837C12.5183 20.0785 12.3996 21.1316 12.9067 21.9567C13.4137 22.7819 14.4062 23.151 15.3232 22.8579L16.9522 26.0607C16.5423 26.3646 16.251 26.8206 16.1539 27.3201L14.9672 26.9727C14.9995 26.8532 15.0103 26.7229 15.0103 26.6035C15.0103 25.8327 14.4386 25.1922 13.6834 25.1054C12.9282 25.0184 12.227 25.507 12.0436 26.256C11.8602 27.0053 12.2702 27.7652 12.993 28.0259C13.705 28.2863 14.5033 27.9715 14.8485 27.2875L16.1107 27.6567C16.1107 27.6893 16.1107 27.7217 16.1107 27.7544C16.1107 28.471 16.4667 29.1332 17.0709 29.5133L16.2618 30.5772C15.6684 30.0452 14.7622 30.0779 14.2012 30.6531C13.6403 31.2285 13.6187 32.1297 14.1581 32.7269C14.6975 33.324 15.5929 33.3891 16.2186 32.8789C16.8443 32.3685 16.9522 31.4674 16.4883 30.816L17.3622 29.6652C17.6211 29.7846 17.9124 29.839 18.2036 29.839C18.2468 29.839 18.2899 29.839 18.3331 29.8281L18.9804 33.5085C18.1173 33.7692 17.5132 34.5617 17.4808 35.4628C17.4592 36.3748 18.0202 37.1892 18.8725 37.4931C19.7247 37.797 20.6741 37.5148 21.2243 36.7873L24.245 38.1445C24.2234 38.253 24.2018 38.3725 24.2018 38.481C24.2018 39.2518 24.7736 39.9034 25.5396 39.9902C26.3055 40.077 27.0068 39.5775 27.1793 38.8285C27.352 38.0794 26.9311 37.3193 26.2084 37.0588C25.4856 36.7982 24.6873 37.1348 24.3529 37.8297L21.4077 36.5052C21.5372 36.2663 21.6235 36.0057 21.645 35.7342L25.4856 34.7897C25.7769 35.3325 26.2947 35.7126 26.8989 35.8427C27.5029 35.9622 28.1287 35.8103 28.6035 35.4302L30.0382 36.6788C29.7038 37.4172 29.995 38.2857 30.7071 38.6548C31.419 39.0347 32.293 38.785 32.7029 38.0903C33.1128 37.3954 32.9186 36.5052 32.2606 36.0492C31.5917 35.5932 30.6963 35.745 30.2108 36.3857L28.8406 35.2022C29.0458 34.9851 29.1967 34.7136 29.2937 34.4314L35.0008 34.7136C35.0114 35.5497 35.6803 36.2119 36.5111 36.2119C37.3418 36.2119 38.0107 35.5279 37.9999 34.7029C37.9999 33.8886 37.331 33.2155 36.5003 33.2155Z" fill="#FF473E"/>
</svg>
