<svg width="20" height="20" viewBox="0 0 20 20" fill="none" xmlns="http://www.w3.org/2000/svg">
<circle cx="10" cy="10" r="10" fill="white"/>
<path d="M16.1502 14.3816C15.7681 14.3816 15.4438 14.6479 15.3627 15.0185L12.3228 14.8738C12.3344 14.8159 12.3401 14.7579 12.3401 14.7C12.3401 14.5958 12.3228 14.4916 12.2938 14.3874L13.3998 13.7504C13.6719 14.0863 14.1641 14.1557 14.5173 13.901C14.8705 13.6462 14.9632 13.1598 14.7258 12.795C14.4884 12.4302 14.0078 12.3144 13.6314 12.5286C13.255 12.7429 13.1103 13.2177 13.3071 13.6057L12.2359 14.2252C11.9811 13.6867 11.35 13.4435 10.7999 13.6694C10.2498 13.8952 9.97187 14.5148 10.1687 15.0764L8.17685 15.557C8.16527 15.2849 8.04946 15.0301 7.85838 14.8332L8.21739 14.3353C8.62271 14.4742 9.06857 14.2716 9.2307 13.872C9.39283 13.4725 9.21333 13.015 8.82538 12.8355C8.43742 12.6502 7.9684 12.8066 7.76574 13.183C7.56307 13.5593 7.69046 14.0342 8.05525 14.26L7.7252 14.7174C7.49359 14.5437 7.19828 14.4684 6.90876 14.5032L6.56713 12.5518C6.99561 12.4592 7.32567 12.1233 7.41831 11.7006C7.51096 11.2721 7.34883 10.8321 7.0014 10.5715C6.65398 10.3051 6.18496 10.2704 5.80279 10.4731L4.94003 8.78806C5.12532 8.69541 5.27587 8.55065 5.38589 8.37694L6.10389 8.56803C6.0981 8.60856 6.09231 8.6433 6.09231 8.68383C6.09231 9.10074 6.41078 9.45395 6.82769 9.49449C7.2446 9.53502 7.62677 9.25129 7.70204 8.83438C7.77732 8.41748 7.52833 8.01794 7.123 7.90792C6.71768 7.79211 6.29498 8.00636 6.14443 8.4001L5.46695 8.2206C5.5596 8.00057 5.57697 7.75737 5.51907 7.52576L7.51675 6.60508C7.88733 7.06831 8.55902 7.16675 9.04541 6.81933C9.5318 6.4719 9.65919 5.80601 9.33493 5.30804L10.6088 4.0631C10.7652 4.16154 10.9447 4.22523 11.1242 4.23682V4.7869C10.7015 4.83323 10.383 5.20381 10.4062 5.6323C10.4293 6.06079 10.7825 6.39663 11.211 6.39663C11.6395 6.39663 11.9927 6.06079 12.0159 5.6323C12.039 5.20381 11.7264 4.83323 11.2979 4.7869V4.23682C11.46 4.22523 11.6106 4.17891 11.7495 4.10364L13.145 5.69599C12.8207 6.12448 12.8439 6.72089 13.1971 7.12043C13.5561 7.51997 14.1467 7.61261 14.61 7.33467C15.0732 7.05673 15.2701 6.49507 15.0906 5.9913L15.5249 5.74811C15.8028 6.07237 16.2834 6.13027 16.625 5.8697C16.9667 5.61493 17.0477 5.13433 16.8103 4.78111C16.5729 4.4279 16.0981 4.31788 15.7333 4.53792C15.3685 4.75795 15.2353 5.22118 15.4322 5.60335L15.0211 5.83496C14.8532 5.52807 14.5521 5.31962 14.2104 5.2675C13.8688 5.21539 13.5156 5.32541 13.2666 5.5686L11.9001 4.01099C12.0333 3.90676 12.1433 3.76779 12.2185 3.61724L13.4172 3.81412C13.5098 4.23102 13.9151 4.50317 14.332 4.4279C14.7547 4.35841 15.0443 3.97046 14.9979 3.54776C14.9516 3.12506 14.581 2.80659 14.1583 2.82975C13.7298 2.85291 13.3998 3.20034 13.394 3.62882L12.2822 3.44353C12.4386 2.91082 12.1838 2.34336 11.68 2.10595C11.1763 1.86855 10.5799 2.04226 10.273 2.50549C9.96608 2.96872 10.0471 3.58829 10.4641 3.95888L9.22491 5.16907C9.03383 4.94903 8.76168 4.81006 8.47216 4.7869V3.94151C8.89486 3.89518 9.21333 3.5246 9.19017 3.09611C9.16701 2.66762 8.81959 2.33757 8.3911 2.33757C7.96261 2.33757 7.60939 2.67341 7.58623 3.1019C7.56307 3.53039 7.87575 3.90097 8.30424 3.9473V4.7869C7.92208 4.81585 7.58044 5.04168 7.40094 5.37752C7.22144 5.71915 7.22723 6.12448 7.41831 6.46032L5.47274 7.35204C5.40326 7.18412 5.29324 7.03936 5.15427 6.92356L5.91281 5.55702C5.9823 5.57439 6.04599 5.58598 6.11547 5.58598C6.52659 5.58598 6.86823 5.27908 6.92034 4.87376C6.97245 4.46843 6.70609 4.09206 6.31235 3.99362C5.91281 3.89518 5.50748 4.10943 5.36272 4.49159C5.21796 4.87376 5.38589 5.30225 5.74489 5.49333L5.00951 6.82512C4.56365 6.55876 4.00198 6.63404 3.63719 7.00462C3.27819 7.37521 3.21449 7.93687 3.48664 8.37694C3.75879 8.81701 4.2915 9.01389 4.78369 8.85754L5.65803 10.5657C5.438 10.7278 5.28166 10.971 5.22955 11.2374L4.5926 11.0521C4.60997 10.9884 4.61576 10.9189 4.61576 10.8552C4.61576 10.4441 4.30887 10.1025 3.90355 10.0562C3.49822 10.0098 3.12184 10.2704 3.02341 10.6699C2.92497 11.0695 3.14501 11.4748 3.53296 11.6138C3.91513 11.7527 4.34362 11.5848 4.52891 11.22L5.20638 11.4169C5.20638 11.4343 5.20638 11.4516 5.20638 11.469C5.20638 11.8512 5.39747 12.2044 5.72173 12.4071L5.28745 12.9745C4.96898 12.6908 4.48259 12.7082 4.18149 13.015C3.88039 13.3219 3.8688 13.8025 4.15832 14.121C4.44784 14.4395 4.92845 14.4742 5.26429 14.2021C5.60013 13.9299 5.65803 13.4493 5.40905 13.1019L5.87807 12.4881C6.01704 12.5518 6.17338 12.5808 6.32972 12.5808C6.35288 12.5808 6.37604 12.5808 6.3992 12.575L6.74663 14.5379C6.2834 14.6769 5.95913 15.0996 5.94176 15.5802C5.93018 16.0666 6.23128 16.5009 6.68872 16.663C7.14616 16.8251 7.65572 16.6746 7.95103 16.2866L9.57234 17.0104C9.56076 17.0683 9.54917 17.132 9.54917 17.1899C9.54917 17.601 9.85607 17.9485 10.2672 17.9948C10.6783 18.0411 11.0547 17.7747 11.1473 17.3752C11.24 16.9757 11.0141 16.5703 10.6262 16.4314C10.2382 16.2924 9.80974 16.4719 9.63024 16.8425L8.04946 16.1361C8.11895 16.0087 8.16527 15.8697 8.17685 15.7249L10.2382 15.2212C10.3946 15.5107 10.6725 15.7134 10.9968 15.7828C11.321 15.8465 11.6569 15.7655 11.9117 15.5628L12.6818 16.2287C12.5023 16.6225 12.6586 17.0857 13.0408 17.2826C13.4229 17.4852 13.892 17.352 14.112 16.9815C14.332 16.6109 14.2278 16.1361 13.8746 15.8929C13.5156 15.6497 13.035 15.7307 12.7744 16.0724L12.039 15.4412C12.1491 15.3254 12.2301 15.1806 12.2822 15.0301L15.3454 15.1806C15.3511 15.6265 15.7101 15.9797 16.156 15.9797C16.6019 15.9797 16.9609 15.6149 16.9551 15.1749C16.9551 14.7406 16.5961 14.3816 16.1502 14.3816Z" fill="#FF473E"/>
</svg>
