<svg width="51" height="50" viewBox="0 0 51 50" fill="none" xmlns="http://www.w3.org/2000/svg">
<ellipse cx="25.6816" cy="24.9999" rx="25" ry="24.9999" fill="#35D07F"/>
<path d="M22.8452 36.9987C27.7274 36.9987 31.6892 33.0369 31.6892 28.1547C31.6892 23.2726 27.7274 19.3108 22.8452 19.3108C17.9631 19.3108 14.0013 23.2726 14.0013 28.1547C14.0013 33.0369 17.9631 36.9987 22.8452 36.9987ZM22.8452 40C16.3024 40 11 34.6976 11 28.1547C11 21.6119 16.3024 16.3095 22.8452 16.3095C29.3881 16.3095 34.6905 21.6119 34.6905 28.1547C34.6905 34.6976 29.3781 40 22.8452 40Z" fill="white"/>
<path d="M29.1548 30.6892C34.037 30.6892 37.9987 26.7274 37.9987 21.8452C37.9987 16.9631 34.037 13.0013 29.1548 13.0013C24.2727 13.0013 20.3109 16.9631 20.3109 21.8452C20.3109 26.7274 24.2727 30.6892 29.1548 30.6892ZM29.1548 33.6905C22.612 33.6905 17.3096 28.3881 17.3096 21.8452C17.3096 15.3024 22.612 10 29.1548 10C35.6977 10 41 15.3024 41 21.8452C41 28.3881 35.6877 33.6905 29.1548 33.6905Z" fill="white"/>
</svg>
