<svg width="418" height="418" viewBox="0 0 418 418" fill="none" xmlns="http://www.w3.org/2000/svg">
<circle cx="209" cy="209" r="209" fill="#35D07F"/>
<path d="M182.5 309.789C223.51 309.789 256.789 276.51 256.789 235.5C256.789 194.49 223.51 161.211 182.5 161.211C141.49 161.211 108.211 194.49 108.211 235.5C108.211 276.51 141.49 309.789 182.5 309.789ZM182.5 335C127.54 335 83 290.46 83 235.5C83 180.54 127.54 136 182.5 136C237.46 136 282 180.54 282 235.5C282 290.46 237.376 335 182.5 335Z" fill="white"/>
<path d="M235.5 256.789C276.51 256.789 309.789 223.51 309.789 182.5C309.789 141.49 276.51 108.211 235.5 108.211C194.49 108.211 161.211 141.49 161.211 182.5C161.211 223.51 194.49 256.789 235.5 256.789ZM235.5 282C180.54 282 136 237.46 136 182.5C136 127.54 180.54 83 235.5 83C290.46 83 335 127.54 335 182.5C335 237.46 290.376 282 235.5 282Z" fill="white"/>
</svg>
