<svg width="51" height="50" viewBox="0 0 51 50" fill="none" xmlns="http://www.w3.org/2000/svg">
<ellipse cx="25.6816" cy="24.9999" rx="25" ry="24.9999" fill="#FF9211"/>
<path fill-rule="evenodd" clip-rule="evenodd" d="M26 13.0896L15.7878 18.9918V30.7963L26 36.6985L36.2122 30.7963V18.9918L26 13.0896ZM26.4289 10.115C26.1635 9.96165 25.8365 9.96165 25.5711 10.115L13.4289 17.1327C13.1635 17.2861 13 17.5696 13 17.8764V31.9117C13 32.2185 13.1635 32.502 13.4289 32.6554L25.5711 39.6731C25.8365 39.8265 26.1635 39.8265 26.4289 39.6731L38.5711 32.6554C38.8365 32.502 39 32.2185 39 31.9117V17.8764C39 17.5696 38.8365 17.2861 38.5711 17.1327L26.4289 10.115Z" fill="#121212"/>
<path d="M26.0002 17.3652L19.4869 21.1296V28.6585L25.9573 32.3981C25.9838 32.4134 26.0002 32.4418 26.0002 32.4725V33.7615C26.0002 33.8276 25.9287 33.8689 25.8716 33.8359L18.5219 29.588C18.3228 29.473 18.2002 29.2604 18.2002 29.0303V20.7578C18.2002 20.5277 18.3228 20.3151 18.5219 20.2L25.6785 16.0638C25.8776 15.9488 26.1228 15.9488 26.3219 16.0638L33.7009 20.3132C33.7576 20.3458 33.7581 20.4276 33.7018 20.461C33.2664 20.7196 33.0434 20.8346 32.5562 21.1058C32.5298 21.1205 32.4975 21.1204 32.4714 21.1053L26.0002 17.3652Z" fill="#121212"/>
<path d="M27.0723 25.0529C27.0723 25.0212 27.0898 24.992 27.1177 24.9771L33.594 21.5265C33.6511 21.4961 33.72 21.5375 33.72 21.6023V29.9967C33.72 30.0273 33.7037 30.0556 33.6773 30.0709L27.2011 33.8353C27.1439 33.8685 27.0723 33.8272 27.0723 33.761V25.0529Z" fill="#121212"/>
</svg>
