<svg width="51" height="50" viewBox="0 0 51 50" fill="none" xmlns="http://www.w3.org/2000/svg">
<ellipse cx="25.6816" cy="24.9999" rx="25" ry="24.9999" fill="black"/>
<path fill-rule="evenodd" clip-rule="evenodd" d="M26.3248 10.7981C26.1886 10.6729 26.1184 10.6705 26.1066 10.6705C26.0948 10.6705 26.0246 10.6729 25.8885 10.7981C25.7488 10.9267 25.5818 11.1485 25.4019 11.4908C25.0427 12.1739 24.699 13.2065 24.4027 14.5389C24.0695 16.0373 23.8063 17.8686 23.6402 19.9187C24.4424 20.3068 25.2673 20.7288 26.1064 21.1819C26.9457 20.7287 27.7707 20.3067 28.573 19.9185C28.4069 17.8685 28.1437 16.0372 27.8105 14.5389C27.5143 13.2065 27.1705 12.1739 26.8114 11.4908C26.6315 11.1485 26.4645 10.9267 26.3248 10.7981ZM25.4043 21.5665C24.7881 21.2391 24.181 20.9293 23.5866 20.6383C23.5415 21.2983 23.5064 21.9786 23.482 22.6756C23.7964 22.4874 24.1154 22.2998 24.4387 22.1133C24.762 21.9268 25.084 21.7445 25.4043 21.5665ZM22.9931 19.6106C23.4745 13.9889 24.687 10 26.1066 10C27.5263 10 28.7387 13.9888 29.2202 19.6104C34.3322 17.2164 38.395 16.2714 39.1049 17.5001C39.8147 18.7288 36.9644 21.7726 32.3336 25C36.9644 28.2274 39.8147 31.2712 39.1049 32.4999C38.395 33.7286 34.3322 32.7836 29.2202 30.3896C28.7387 36.0112 27.5263 40 26.1066 40C24.687 40 23.4745 36.0111 22.9931 30.3894C17.8808 32.7836 13.8178 33.7286 13.108 32.4999C12.3982 31.2712 15.2485 28.2274 19.8792 25C15.2485 21.7726 12.3982 18.7288 13.108 17.5001C13.8178 16.2714 17.8808 17.2164 22.9931 19.6106ZM20.47 24.5938C18.7764 23.4249 17.3209 22.2813 16.189 21.2437C15.1825 20.3211 14.4595 19.5073 14.0471 18.8548C13.8404 18.528 13.7317 18.2725 13.6902 18.0874C13.6497 17.9072 13.6828 17.8455 13.6885 17.8355C13.6943 17.8255 13.7315 17.7659 13.9081 17.7107C14.0895 17.654 14.3653 17.6204 14.7519 17.6358C15.5236 17.6666 16.5904 17.8854 17.8932 18.2952C19.3582 18.756 21.0769 19.4438 22.9365 20.3251C22.8717 21.2133 22.825 22.1381 22.7981 23.0908C21.9858 23.5905 21.2076 24.0936 20.47 24.5938ZM20.47 25.4062C18.7764 26.5751 17.3209 27.7187 16.189 28.7563C15.1825 29.6789 14.4595 30.4927 14.0471 31.1452C13.8404 31.472 13.7317 31.7275 13.6902 31.9126C13.6497 32.0928 13.6828 32.1545 13.6885 32.1645C13.6943 32.1745 13.7314 32.2341 13.9081 32.2893C14.0895 32.3459 14.3653 32.3796 14.7519 32.3642C15.5236 32.3334 16.5904 32.1146 17.8932 31.7048C19.3582 31.244 21.0769 30.5562 22.9365 29.6749C22.8717 28.7867 22.825 27.8618 22.7981 26.9092C21.9858 26.4095 21.2076 25.9064 20.47 25.4062ZM22.7803 26.1093C22.1883 25.7397 21.6162 25.3691 21.0667 25C21.6162 24.6309 22.1883 24.2603 22.7803 23.8907C22.7743 24.2569 22.7713 24.6269 22.7713 25C22.7713 25.3731 22.7743 25.743 22.7803 26.1093ZM23.4591 26.5274C23.4477 26.0256 23.4418 25.516 23.4418 25C23.4418 24.484 23.4477 23.9744 23.4591 23.4726C23.8882 23.2118 24.3267 22.952 24.7738 22.6941C25.2211 22.436 25.6657 22.1862 26.1064 21.9451C26.5471 22.1862 26.9917 22.436 27.439 22.6941C27.8863 22.9521 28.3249 23.212 28.7542 23.4728C28.7656 23.9746 28.7714 24.4841 28.7714 25C28.7714 25.5159 28.7656 26.0254 28.7542 26.5272C28.3249 26.788 27.8863 27.0479 27.439 27.3059C26.9917 27.564 26.5471 27.8138 26.1064 28.0549C25.6657 27.8138 25.2211 27.564 24.7738 27.3059C24.3267 27.048 23.8882 26.7882 23.4591 26.5274ZM23.482 27.3244C23.5064 28.0214 23.5415 28.7017 23.5866 29.3617C24.181 29.0707 24.7881 28.7609 25.4043 28.4335C25.084 28.2555 24.762 28.0732 24.4387 27.8867C24.1154 27.7002 23.7964 27.5126 23.482 27.3244ZM26.1064 28.818C25.2673 29.2712 24.4424 29.6931 23.6402 30.0813C23.8063 32.1313 24.0695 33.9627 24.4027 35.4611C24.699 36.7935 25.0427 37.8261 25.4019 38.5092C25.5818 38.8515 25.7488 39.0733 25.8885 39.2019C26.0246 39.3271 26.0948 39.3295 26.1066 39.3295C26.1184 39.3295 26.1886 39.3271 26.3248 39.2019C26.4645 39.0733 26.6315 38.8515 26.8114 38.5092C27.1705 37.8261 27.5143 36.7935 27.8105 35.4611C28.1437 33.9628 28.4069 32.1315 28.573 30.0815C27.7707 29.6933 26.9457 29.2713 26.1064 28.818ZM29.2768 29.6751C31.1362 30.5562 32.8547 31.2441 34.3196 31.7048C35.6224 32.1146 36.6892 32.3334 37.4609 32.3642C37.8476 32.3796 38.1234 32.3459 38.3047 32.2893C38.4814 32.2341 38.5185 32.1745 38.5242 32.1645C38.53 32.1546 38.5631 32.0929 38.5226 31.9126C38.4811 31.7275 38.3723 31.472 38.1657 31.1452C37.7533 30.4927 37.0303 29.6789 36.0238 28.7563C34.8919 27.7187 33.4364 26.5751 31.7428 25.4062C31.0054 25.9064 30.2273 26.4093 29.4152 26.909C29.3883 27.8618 29.3415 28.7867 29.2768 29.6751ZM31.7428 24.5938C33.4364 23.4249 34.8919 22.2813 36.0238 21.2437C37.0303 20.3211 37.7533 19.5073 38.1657 18.8548C38.3723 18.528 38.4811 18.2725 38.5226 18.0874C38.5631 17.9071 38.53 17.8454 38.5242 17.8355C38.5185 17.8255 38.4814 17.7659 38.3047 17.7107C38.1234 17.654 37.8476 17.6204 37.4609 17.6358C36.6892 17.6666 35.6224 17.8854 34.3196 18.2952C32.8547 18.7559 31.1362 19.4437 29.2768 20.3249C29.3415 21.2133 29.3883 22.1382 29.4152 23.091C30.2273 23.5907 31.0054 24.0936 31.7428 24.5938ZM29.433 23.8909C30.0248 24.2605 30.5967 24.631 31.1461 25C30.5967 25.369 30.0248 25.7395 29.433 26.109C29.4389 25.7428 29.4419 25.373 29.4419 25C29.4419 24.627 29.4389 24.2571 29.433 23.8909ZM28.7312 22.6759C28.7069 21.9787 28.6717 21.2982 28.6267 20.6381C28.0321 20.9292 27.4249 21.239 26.8085 21.5665C27.1288 21.7445 27.4508 21.9268 27.7741 22.1133C28.0976 22.2999 28.4167 22.4875 28.7312 22.6759ZM28.6267 29.3619C28.0321 29.0708 27.4249 28.761 26.8085 28.4335C27.1288 28.2555 27.4508 28.0732 27.7741 27.8867C28.0976 27.7001 28.4167 27.5124 28.7312 27.3241C28.7069 28.0213 28.6717 28.7017 28.6267 29.3619Z" fill="white"/>
<path fill-rule="evenodd" clip-rule="evenodd" d="M16.5192 20.7993C17.1017 20.7993 17.574 21.2718 17.574 21.8546C17.574 22.4375 17.1017 22.91 16.5192 22.91C15.9366 22.91 15.4644 22.4375 15.4644 21.8546C15.4644 21.2718 15.9366 20.7993 16.5192 20.7993Z" fill="white"/>
<path fill-rule="evenodd" clip-rule="evenodd" d="M33.2834 17.1855C33.8662 17.1855 34.3387 17.658 34.3387 18.2408C34.3387 18.8236 33.8662 19.2961 33.2834 19.2961C32.7005 19.2961 32.228 18.8236 32.228 18.2408C32.228 17.658 32.7005 17.1855 33.2834 17.1855Z" fill="white"/>
<path fill-rule="evenodd" clip-rule="evenodd" d="M23.9811 33.7494C24.5639 33.7494 25.0364 34.2217 25.0364 34.8042C25.0364 35.3867 24.5639 35.859 23.9811 35.859C23.3983 35.859 22.9258 35.3867 22.9258 34.8042C22.9258 34.2217 23.3983 33.7494 23.9811 33.7494Z" fill="white"/>
<path fill-rule="evenodd" clip-rule="evenodd" d="M26.0479 23.2055C27.0347 23.2055 27.8346 24.0054 27.8346 24.9922C27.8346 25.9789 27.0347 26.7789 26.0479 26.7789C25.0612 26.7789 24.2612 25.9789 24.2612 24.9922C24.2612 24.0054 25.0612 23.2055 26.0479 23.2055Z" fill="white"/>
</svg>
