<svg width="51" height="50" viewBox="0 0 51 50" fill="none" xmlns="http://www.w3.org/2000/svg">
<ellipse cx="25.6816" cy="24.9999" rx="25" ry="24.9999" fill="#048EE2"/>
<path d="M13 39.9601C13.3707 37.8166 13.7218 35.7859 14.0806 33.7105C14.7196 33.7105 15.2711 33.7126 15.8227 33.7102C19.5987 33.694 23.3786 33.781 27.1495 33.6265C30.0298 33.5083 32.5696 32.4583 34.0876 29.6158C34.8313 28.2226 35.1367 26.6746 35.4658 25.1395C35.7268 23.9222 35.8903 22.691 35.8441 21.4352C35.7496 18.869 34.4959 17.282 32.1082 16.6798C30.9955 16.3991 29.8702 16.3024 28.7329 16.3021C25.0885 16.3012 21.4444 16.3043 17.8002 16.3036C17.5664 16.3036 17.3326 16.2827 16.9676 16.2653C17.325 14.1609 17.6727 12.1137 18.0295 10.0133C18.5168 10.0133 18.9359 10.0127 19.3548 10.0135C23.7382 10.021 28.1233 9.9543 32.5048 10.0627C35.3887 10.1339 38.1595 10.7839 40.4005 12.9209C41.9653 14.413 42.7675 16.3535 42.9145 18.4843C43.3261 24.4508 42.3028 30.0769 38.689 34.9033C36.4759 37.8592 33.4237 39.2995 29.9263 39.808C28.5073 40.0144 27.0826 39.9943 25.6576 39.9964C21.6965 40.0021 17.7353 39.9997 13.7741 39.9982C13.5404 39.9979 13.3071 39.9757 13 39.9601Z" fill="white"/>
<path d="M25 22.0062C24.647 23.4186 24.4917 24.7715 23.9286 26.0014C23.3005 27.3727 22.0899 27.9673 20.6425 27.9787C16.1711 28.0144 11.6994 27.9946 7.22776 27.9934C7.18186 27.9934 7.13596 27.952 7 27.8863C7.31806 26.3176 7.47247 24.6678 8.42779 23.2891C9.034 22.4143 10.0375 22.0315 11.0704 22.0228C15.6703 21.9843 20.2708 22.0062 25 22.0062Z" fill="white"/>
</svg>
