<svg width="20" height="20" viewBox="0 0 20 20" fill="none" xmlns="http://www.w3.org/2000/svg">
<path d="M20 10.0011C19.9965 15.5221 15.5424 19.9723 10.0128 19.9999C4.56435 20.0271 -0.116041 15.5642 0.00219248 9.77633C0.11324 4.3396 4.55582 -0.00304516 9.99023 1.6022e-06C15.5212 0.00304836 20.0035 4.47699 20 10.0011Z" fill="#048EE2"/>
<path d="M6 14.9867C6.12356 14.2722 6.24061 13.5953 6.36021 12.9035C6.57319 12.9035 6.75705 12.9042 6.94091 12.9034C8.19955 12.898 9.45952 12.927 10.7165 12.8755C11.6766 12.8361 12.5232 12.4861 13.0292 11.5386C13.2771 11.0742 13.3789 10.5582 13.4886 10.0465C13.5756 9.64075 13.6301 9.23033 13.6147 8.81173C13.5832 7.95635 13.1653 7.42732 12.3694 7.22659C11.9985 7.13303 11.6234 7.1008 11.2443 7.10071C10.0295 7.10041 8.81481 7.10145 7.60005 7.10119C7.52214 7.10119 7.44419 7.09422 7.32253 7.08842C7.44168 6.38696 7.55757 5.70458 7.67651 5.00445C7.83893 5.00445 7.97862 5.00424 8.11826 5.0045C9.57941 5.00701 11.0411 4.98477 12.5016 5.0209C13.4629 5.04465 14.3865 5.26131 15.1335 5.97363C15.6551 6.47099 15.9225 7.11785 15.9715 7.82809C16.1087 9.81695 15.7676 11.6923 14.563 13.3011C13.8253 14.2864 12.8079 14.7665 11.6421 14.936C11.1691 15.0048 10.6942 14.9981 10.2192 14.9988C8.89882 15.0007 7.57844 14.9999 6.25805 14.9994C6.18015 14.9993 6.10236 14.9919 6 14.9867Z" fill="white"/>
<path d="M10 9.00206C9.88234 9.47288 9.83057 9.92384 9.64285 10.3338C9.43351 10.7909 9.02996 10.9891 8.5475 10.9929C7.05704 11.0048 5.56646 10.9982 4.07592 10.9978C4.06062 10.9978 4.04532 10.984 4 10.9621C4.10602 10.4392 4.15749 9.88926 4.47593 9.42969C4.678 9.1381 5.01249 9.0105 5.35679 9.0076C6.89011 8.99478 8.4236 9.00206 10 9.00206Z" fill="white"/>
</svg>
