<svg width="20" height="20" viewBox="0 0 20 20" fill="none" xmlns="http://www.w3.org/2000/svg">
<g clip-path="url(#clip0)">
<path d="M8.81073 11.8519H13.7425C15.5749 11.8519 17.0758 10.3704 17.0758 8.51856C17.0758 6.66671 15.5944 5.20472 13.762 5.20472H12.1831L8.81073 2.28074H13.7425C17.1928 2.26125 19.9998 5.04877 19.9998 8.49906C20.0193 11.0527 18.4599 13.3529 16.0817 14.308L19.9803 17.6804H15.5359L8.81073 11.8519Z" fill="url(#paint0_linear)"/>
<path d="M11.227 8.12872H6.29525C4.46289 8.12872 2.96192 9.6102 2.96192 11.462C2.96192 13.3139 4.4434 14.7954 6.29525 14.7954H7.8742L11.227 17.7194H6.29525C2.84496 17.7194 0.0379386 14.9318 0.0184454 11.501C-0.00104774 8.92794 1.55841 6.62774 3.93657 5.67257L0.0379386 2.28076H4.50188L11.227 8.12872Z" fill="#4971FA"/>
</g>
<defs>
<linearGradient id="paint0_linear" x1="8.82026" y1="9.98154" x2="19.9956" y2="9.98154" gradientUnits="userSpaceOnUse">
<stop stop-color="#62D0C9"/>
<stop offset="1" stop-color="#7DE2AC"/>
</linearGradient>
<clipPath id="clip0">
<rect width="20" height="20" fill="white"/>
</clipPath>
</defs>
</svg>
