<svg width="51" height="50" viewBox="0 0 51 50" fill="none" xmlns="http://www.w3.org/2000/svg">
<ellipse cx="25.6816" cy="24.9999" rx="25" ry="24.9999" fill="black"/>
<path d="M23.9609 28.2435H32.3526C35.4705 28.2435 38.0244 25.7227 38.0244 22.5717C38.0244 19.4207 35.5037 16.933 32.3858 16.933H29.6992L23.9609 11.9577H32.3526C38.2235 11.9245 42.9997 16.6676 42.9997 22.5385C43.0329 26.8836 40.3795 30.7976 36.3329 32.4227L42.9665 38.161H35.4042L23.9609 28.2435Z" fill="url(#paint0_linear_61_35)"/>
<path d="M28.0723 21.9083H19.6806C16.5628 21.9083 14.0088 24.4291 14.0088 27.58C14.0088 30.7311 16.5296 33.252 19.6806 33.252H22.3673L28.0723 38.2273H19.6806C13.8098 38.2273 9.03348 33.484 9.00031 27.6464C8.96714 23.2682 11.6206 19.3543 15.6672 17.729L9.03348 11.9576H16.6291L28.0723 21.9083Z" fill="#4971FA"/>
<defs>
<linearGradient id="paint0_linear_61_35" x1="23.9772" y1="25.061" x2="42.9926" y2="25.061" gradientUnits="userSpaceOnUse">
<stop stop-color="#62D0C9"/>
<stop offset="1" stop-color="#7DE2AC"/>
</linearGradient>
</defs>
</svg>
