<svg width="51" height="50" viewBox="0 0 51 50" fill="none" xmlns="http://www.w3.org/2000/svg">
<ellipse cx="25.6816" cy="24.9999" rx="25" ry="24.9999" fill="white"/>
<path d="M26.5839 40C34.5433 40 40.9958 33.2842 40.9958 25C40.9958 16.7157 34.5433 10 26.5839 10C18.6243 10 12.1719 16.7157 12.1719 25C12.1719 33.2842 18.6243 40 26.5839 40Z" fill="url(#paint0_linear_61_36)"/>
<path d="M25.412 40C33.3715 40 39.8239 33.2842 39.8239 25C39.8239 16.7157 33.3715 10 25.412 10C17.4525 10 11 16.7157 11 25C11 33.2842 17.4525 40 25.412 40Z" fill="url(#paint1_linear_61_36)"/>
<path d="M25.4285 37.6199C32.1252 37.6199 37.5538 31.9697 37.5538 24.9998C37.5538 18.03 32.1252 12.3798 25.4285 12.3798C18.7319 12.3798 13.3032 18.03 13.3032 24.9998C13.3032 31.9697 18.7319 37.6199 25.4285 37.6199Z" fill="url(#paint2_linear_61_36)"/>
<path fill-rule="evenodd" clip-rule="evenodd" d="M38.9131 24.9998C38.9131 32.6685 32.9267 38.979 25.4287 38.979C17.9308 38.979 11.9443 32.6685 11.9443 24.9998C11.9443 17.3311 17.9308 11.0207 25.4287 11.0207C32.9267 11.0207 38.9131 17.3311 38.9131 24.9998ZM37.554 24.9998C37.554 31.9697 32.1254 37.6199 25.4287 37.6199C18.7321 37.6199 13.3034 31.9697 13.3034 24.9998C13.3034 18.03 18.7321 12.3798 25.4287 12.3798C32.1254 12.3798 37.554 18.03 37.554 24.9998Z" fill="#79F2BB"/>
<path d="M24.4321 21.6179H21.6641V19.0813H30.1187V21.6179H27.3206V30.3235H24.4321V21.6179Z" fill="white"/>
<defs>
<linearGradient id="paint0_linear_61_36" x1="31.1454" y1="25.0093" x2="56.8435" y2="25.0093" gradientUnits="userSpaceOnUse">
<stop stop-color="#20978D"/>
<stop offset="0.995" stop-color="#33BE95"/>
</linearGradient>
<linearGradient id="paint1_linear_61_36" x1="36.2203" y1="36.2493" x2="12.9135" y2="13.8562" gradientUnits="userSpaceOnUse">
<stop stop-color="#20B18D"/>
<stop offset="0.995" stop-color="#66E2A9"/>
</linearGradient>
<linearGradient id="paint2_linear_61_36" x1="18.4202" y1="18.7409" x2="36.0252" y2="33.2579" gradientUnits="userSpaceOnUse">
<stop stop-color="#20B18D"/>
<stop offset="0.995" stop-color="#66E2A9"/>
</linearGradient>
</defs>
</svg>
