<svg width="25" height="26" viewBox="0 0 25 26" fill="none" xmlns="http://www.w3.org/2000/svg">
<path d="M12.5 25.5C19.4036 25.5 25 19.9036 25 13C25 6.09644 19.4036 0.5 12.5 0.5C5.59644 0.5 0 6.09644 0 13C0 19.9036 5.59644 25.5 12.5 25.5Z" fill="#5E5E5E"/>
<path fill-rule="evenodd" clip-rule="evenodd" d="M14.9898 18.9177C15.073 18.9656 15.1754 18.9658 15.2587 18.9182L18.5499 17.0391C18.6341 16.991 18.6861 16.9014 18.6861 16.8045V13.0959C18.6861 12.9996 18.6348 12.9105 18.5515 12.8622L18.543 12.8572L15.499 10.9677C15.1906 10.7762 15.0957 10.371 15.2872 10.0626C15.4786 9.75419 15.8838 9.65937 16.1923 9.85081L19.2207 11.7307C19.7038 12.0155 20.0006 12.5346 20.0006 13.0959V16.8045C20.0006 17.3733 19.6957 17.8986 19.2017 18.1807L15.9105 20.0598C15.4216 20.3389 14.8213 20.3377 14.3335 20.0567L11.0767 18.18C10.5858 17.8971 10.2832 17.3736 10.2832 16.8069V13.0934C10.2832 12.541 10.5708 12.0292 11.0408 11.7417L11.8832 11.1497C12.1802 10.941 12.5901 11.0125 12.7988 11.3095C13.0075 11.6065 12.936 12.0165 12.639 12.2252L11.755 12.8465L11.7314 12.8602C11.6486 12.9087 11.5977 12.9975 11.5977 13.0934V16.8069C11.5977 16.9035 11.6493 16.9928 11.733 17.041L14.9898 18.9177ZM9.60243 14.7704C9.9163 14.9527 10.0229 15.355 9.84059 15.6689C9.65825 15.9828 9.25598 16.0894 8.9421 15.907L5.79353 14.0779L5.7924 14.0773C5.30209 13.7942 5 13.271 5 12.7048V8.99134C5 8.42859 5.29844 7.90806 5.78408 7.62374L9.04091 5.71703C9.53347 5.42866 10.1431 5.42745 10.6368 5.71385L13.9279 7.62301C14.4166 7.90652 14.7174 8.4288 14.7174 8.99381V12.7024C14.7174 13.2713 14.4125 13.7965 13.9185 14.0786L13.9068 14.0853L13.0908 14.5079C12.7684 14.6748 12.3718 14.5488 12.2049 14.2265C12.0379 13.9042 12.1639 13.5075 12.4862 13.3406L13.2748 12.9322C13.3542 12.8831 13.4029 12.7962 13.4029 12.7024V8.99381C13.4029 8.89747 13.3516 8.80842 13.2683 8.76009L9.97716 6.85092C9.89298 6.80209 9.78904 6.80229 9.70506 6.85146L6.44823 8.75816C6.36543 8.80664 6.31454 8.89539 6.31454 8.99134V12.7048C6.31454 12.8014 6.36613 12.8907 6.44984 12.9389L9.60243 14.7704Z" fill="white"/>
</svg>
