<svg width="51" height="50" viewBox="0 0 51 50" fill="none" xmlns="http://www.w3.org/2000/svg">
<ellipse cx="25.6816" cy="24.9999" rx="25" ry="24.9999" fill="#286BCB"/>
<path d="M11.0622 17.8074H30.3426C30.3426 17.8074 36.9975 17.7459 32.3948 26.2293C32.3948 26.2293 29.0365 32.8688 20.7023 32.7458L25.1928 21.4098C25.247 21.2754 25.2675 21.13 25.2526 20.9861C25.2377 20.8421 25.1878 20.7039 25.1071 20.5831C25.0265 20.4624 24.9175 20.3627 24.7895 20.2925C24.6615 20.2224 24.5182 20.1839 24.3718 20.1803L18.4633 20.0819L11 38.0326C11 38.0326 13.4878 38.2786 14.8561 38.1556L14.1097 40H17.6299C17.7275 40.0006 17.823 39.9714 17.9032 39.9165C17.9834 39.8614 18.0443 39.7832 18.0777 39.6923L18.7121 38.0326L20.2048 37.9096L19.3341 40H22.7672C22.8936 40.0009 23.0172 39.9634 23.1216 39.8932C23.226 39.823 23.3064 39.723 23.3518 39.6065L24.3096 37.1719C24.3096 37.1719 34.7582 35.4506 39.485 27.09C39.485 27.09 45.8289 17.377 38.3657 13.9344C36.9109 13.2751 35.3556 12.8596 33.7633 12.7049L34.6341 10.5779C34.6603 10.5148 34.6708 10.4462 34.6642 10.3782C34.6576 10.3102 34.6344 10.2448 34.5962 10.1878C34.5583 10.1308 34.5066 10.0839 34.4461 10.0511C34.3852 10.0184 34.3174 10.0008 34.2482 10H31.0266L30.0317 12.582H28.6632L29.4346 10.5779C29.4581 10.5137 29.4662 10.4449 29.4575 10.3771C29.4492 10.3093 29.4244 10.2445 29.3853 10.188C29.3465 10.1316 29.2946 10.085 29.234 10.0524C29.1732 10.0196 29.1054 10.0017 29.0365 10H25.8023L24.8072 12.582H14.7565C14.4864 12.5811 14.2211 12.6526 13.9889 12.7891C13.7567 12.9254 13.5663 13.1216 13.438 13.3565L11.0622 17.8074Z" fill="white"/>
</svg>
