<svg width="51" height="50" viewBox="0 0 51 50" fill="none" xmlns="http://www.w3.org/2000/svg">
<ellipse cx="25.6816" cy="24.9999" rx="25" ry="24.9999" fill="#BFA64A"/>
<path fill-rule="evenodd" clip-rule="evenodd" d="M26.8719 10H16.0186V22.189H12V27.5296H16.0186V39.7182H26.8719C31.3204 39.7182 34.7872 38.407 37.2723 35.7846C39.7573 33.1622 41 29.4963 41 24.787C41 20.0914 39.7573 16.453 37.2723 13.8718C34.7872 11.2906 31.3204 10 26.8719 10ZM21.332 27.5296V35.2287H26.316C29.3091 35.2287 31.6019 34.3361 33.1945 32.5514C34.7872 30.7664 35.5836 28.1851 35.5836 24.8076C35.5836 21.485 34.7804 18.9381 33.1739 17.167C31.5676 15.3821 29.2816 14.4897 26.316 14.4897H21.332V22.189H30.7919V27.5296H21.332Z" fill="white"/>
</svg>
