<svg width="20" height="20" viewBox="0 0 20 20" fill="none" xmlns="http://www.w3.org/2000/svg">
<g clip-path="url(#clip0_4079_53856)">
<circle cx="10" cy="10" r="10" fill="#15161F"/>
<path d="M7.8299 14.1858L7.67961 12.9308L7.55664 13.5726L7.8299 14.1858Z" fill="#F1A018"/>
<path d="M7.68023 12.9308L7.27034 12.182L7.18837 12.289L7.02441 12.4958L7.68023 12.9308Z" fill="#CD7400"/>
<path d="M7.02441 12.4958L7.12005 12.9736L7.68023 12.9308L7.02441 12.4958Z" fill="#CF860D"/>
<path d="M7.55733 13.5726L7.68029 12.9308L7.12012 12.9736L7.55733 13.5726Z" fill="#F7AA0F"/>
<path d="M7.9871 12.9308H7.67969L7.82998 14.1858L7.9871 12.9308Z" fill="#CF860D"/>
<path d="M8.48604 10.6346L8.05566 11.1766L11.1776 10.4421L8.67732 10.3993L8.48604 10.6346Z" fill="#DB8A00"/>
<path d="M7.09272 11.3977L7.01758 11.5759L8.67761 10.3922L7.50261 10.3708L7.22252 11.0768L7.09272 11.3977Z" fill="#F3A70B"/>
<path d="M8.67744 10.3922L7.01741 11.5759L6.76465 12.8238L7.02424 12.4958L7.18819 12.289L8.05578 11.1766L8.48616 10.6346L8.67744 10.3922Z" fill="#E59108"/>
<path d="M6.7918 11.7827L6.65517 11.9111L6.49805 12.0537H6.50488L6.76447 12.8238L7.01723 11.5759L6.7918 11.7827Z" fill="#FFBB00"/>
<path d="M5.23438 14.3855L6.76461 12.8238L6.50501 12.0537L5.23438 14.3855Z" fill="#FEB11C"/>
<path d="M6.50487 12.0537L5.02246 13.9719L5.23423 14.3855L6.50487 12.0537Z" fill="#F9A406"/>
<path d="M4.18945 13.9505L5.23466 14.3855L5.02288 13.9719L4.18945 13.9505Z" fill="#FFBA00"/>
<path d="M5.23466 14.3855L4.18945 13.9505L5.14585 14.6279L5.23466 14.3855Z" fill="#D38800"/>
<path d="M13.364 11.0554L13.0976 10.8771L13.0225 11.8826L13.2206 12.0965L14.4161 13.4014L13.3845 11.0696L13.364 11.0554Z" fill="#FEB526"/>
<path d="M13.8893 11.419L13.5341 11.1766L13.3838 11.0696L14.4153 13.4014L13.9098 11.4333L13.8893 11.419Z" fill="#E68F00"/>
<path d="M14.0331 11.9039L14.1493 11.5973L13.9102 11.4333L14.0331 11.9039Z" fill="#D38800"/>
<path d="M13.2197 12.0965L13.6843 13.5512L14.4152 13.4014L13.2197 12.0965Z" fill="#EE9904"/>
<path d="M12.9336 14.8561L14.416 13.4014L13.685 13.5512L12.9336 14.8561Z" fill="#EFA721"/>
<path d="M12.5234 14.685L12.9333 14.8561L13.6848 13.5512L12.5234 14.685Z" fill="#E39516"/>
<path d="M12.523 14.685L11.8672 14.7848L12.9329 14.8561L12.523 14.685Z" fill="#FFBA00"/>
<path d="M12.8782 15.2697L12.9329 14.8561L11.8672 14.7848L12.8782 15.2697Z" fill="#D38800"/>
<path d="M11.5944 8.95889L12.1682 6.0281L11.2938 7.40436L11.1025 7.71099L11.5944 8.95889Z" fill="#FABB32"/>
<path d="M14.5459 9.19421L13.1933 7.41149L12.1686 6.0281L11.5947 8.95889L14.5459 9.19421Z" fill="#F9A925"/>
<path d="M7.64541 7.90352L7.50195 10.3708L9.64701 8.78062L7.64541 7.90352Z" fill="#FCB81D"/>
<path d="M6.6619 8.16023L7.64562 7.90352L6.34082 7.36158L6.6619 8.16023Z" fill="#FCB81D"/>
<path d="M6.34133 7.36158L5.9861 6.46309L5.6377 8.42408L6.6624 8.16023L6.34133 7.36158Z" fill="#F5A623"/>
<path d="M6.00598 6.30621L4.95394 6.45596L4.71484 6.49161L5.63708 8.42408L6.01281 6.29908L6.00598 6.30621Z" fill="#EC9608"/>
<path d="M6.6624 8.16024L5.6377 8.42408L7.50267 10.3708L7.64613 7.90352L6.6624 8.16024Z" fill="#EF9E00"/>
<path d="M8.64289 7.73238L7.64551 7.90352L9.64711 8.78062L8.64289 7.73238Z" fill="#FAA91E"/>
<path d="M9.97568 5.6573L8.64355 7.73238L9.64777 8.78062L9.97568 5.6573Z" fill="#FFB30E"/>
<path d="M11.5944 8.95889L11.0137 7.48993L10.9181 7.24748L10.3169 5.73574L9.97537 5.6573L9.64746 8.78062L11.5944 8.95889Z" fill="#F3A017"/>
<path d="M3.94336 6.2349L4.48987 6.52013L4.81778 5.64304L3.94336 6.2349Z" fill="#EC9F21"/>
<path d="M4.81776 5.64304L4.31907 5.5432L3.91602 5.79992L3.93651 6.2349L4.81776 5.64304Z" fill="#F9A42F"/>
<path d="M3.91572 5.79992L3.47168 6.17072L3.61514 6.49161L3.94305 6.37039L3.93621 6.2349L3.91572 5.79992Z" fill="#FFAD2D"/>
<path d="M5.69841 6.34899H5.66426L5.48664 6.03523L5.8692 5.77852L5.67792 5.53607L4.81716 5.64304L4.48926 6.52013L4.71469 6.49161L4.95379 6.45596L5.69841 6.34899Z" fill="#FFBA00"/>
<path d="M5.1248 5.42198L4.81738 5.64304L5.67814 5.53607L5.1248 5.42198Z" fill="#DE8C02"/>
<path d="M5.66492 6.34899L5.97917 5.70008L5.86986 5.77852L5.4873 6.03523L5.66492 6.34899Z" fill="#ECA403"/>
<path d="M5.6992 6.34899L6.00661 6.30621L6.01344 6.29908L6.13641 6.28482L5.97928 5.70008L5.66504 6.34899H5.6992Z" fill="#FAA91E"/>
<path d="M9.64701 8.78062L7.50195 10.3708L11.594 8.95889L9.64701 8.78062Z" fill="#E49005"/>
<path d="M7.50195 10.3708L8.67695 10.3922V10.3993L11.1772 10.4421L12.5162 10.4706L11.594 8.95889L7.50195 10.3708Z" fill="#ED9A11"/>
<path d="M11.5947 8.95889L12.517 10.4706L14.5459 9.19421L11.5947 8.95889Z" fill="#E18E01"/>
<path d="M13.1927 7.41149V7.40436L13.22 6.6271L12.168 6.0281L13.1927 7.41149Z" fill="#E69001"/>
<path d="M13.733 7.89639L13.2207 6.6271L13.1934 7.40436L13.733 7.89639Z" fill="#EEA504"/>
<path d="M13.1934 7.40436V7.41149L14.546 9.19421L14.5596 8.65226L13.733 7.89639L13.1934 7.40436Z" fill="#DE8C02"/>
<path d="M14.5459 9.20134V9.19421L14.826 10.7131L15.27 11.1766L14.5596 8.65226L14.5459 9.19421V9.20134Z" fill="#DC8900"/>
<path d="M13.5345 11.1766L13.8897 11.419H13.8965L14.5455 9.19421L12.5166 10.4706L13.0973 10.8771L13.3637 11.0554L13.5345 11.1766Z" fill="#F5A623"/>
<path d="M14.5455 9.19421V9.20134L13.8965 11.419H13.8896L14.8255 10.7131L14.5455 9.19421Z" fill="#EE9704"/>
<path d="M13.8896 11.419L16.4241 12.3674L15.2696 11.1766L14.8255 10.7131L13.8896 11.419Z" fill="#F7B13D"/>
<path d="M13.9101 11.4333L14.1492 11.5973L16.5334 13.2374L16.4241 12.3674L13.8896 11.419L13.9101 11.4333Z" fill="#F5A209"/>
<path d="M16.5337 13.2374L15.8643 12.781L16.7114 14.7634L16.5337 13.2374Z" fill="#DE8903"/>
<path d="M16.1104 13.3515L16.3426 14.6279L16.7115 14.7634L16.1104 13.3515Z" fill="#F3AB10"/>
<path d="M16.7113 14.7634L16.3424 14.6279L15.7822 15.0201L16.7113 14.7634Z" fill="#FFBA00"/>
<path d="M15.7822 15.0201L16.8274 15.0487L16.7113 14.7634L15.7822 15.0201Z" fill="#D38800"/>
<path d="M6.88745 11.3477L7.09239 11.3977L7.22219 11.0768L7.37248 10.6988L6.51855 11.255L6.88745 11.3477Z" fill="#E18E01"/>
<path d="M6.51842 11.255L7.37235 10.6988L6.46377 10.9341L6.32031 11.3763L6.51842 11.255Z" fill="#F4B819"/>
<path d="M6.51842 11.255L6.32031 11.3763L6.65505 11.9111L6.51842 11.255Z" fill="#F6A616"/>
<path d="M6.88745 11.3477L6.51855 11.255L6.65518 11.9111L6.79181 11.7827L6.98992 11.6044L6.88745 11.3477Z" fill="#D68600"/>
<path d="M11.0136 7.48993L11.0956 7.71099H11.1024L11.2937 7.40436L11.3552 7.30453L10.918 7.24748L11.0136 7.48993Z" fill="#C97E03"/>
</g>
<defs>
<clipPath id="clip0_4079_53856">
<rect width="20" height="20" fill="white"/>
</clipPath>
</defs>
</svg>
