<svg width="51" height="50" viewBox="0 0 51 50" fill="none" xmlns="http://www.w3.org/2000/svg">
<ellipse cx="25.6819" cy="24.9999" rx="25" ry="24.9999" fill="#14151F"/>
<path d="M19.8064 34.9718L19.4356 31.8762L19.1323 33.4593L19.8064 34.9718Z" fill="#F1A018"/>
<path d="M19.437 31.8761L18.426 30.0291L18.2238 30.293L17.8193 30.8032L19.437 31.8761Z" fill="#CD7400"/>
<path d="M17.8193 30.8032L18.0552 31.9818L19.437 31.8762L17.8193 30.8032Z" fill="#CF860D"/>
<path d="M19.1339 33.4593L19.4372 31.8762L18.0554 31.9818L19.1339 33.4593Z" fill="#F7AA0F"/>
<path d="M20.1941 31.8762H19.4358L19.8065 34.9718L20.1941 31.8762Z" fill="#CF860D"/>
<path d="M21.4244 26.2123L20.3628 27.5492L28.0636 25.7374L21.8962 25.6319L21.4244 26.2123Z" fill="#DB8A00"/>
<path d="M17.9878 28.0946L17.8025 28.5341L21.8972 25.6143L18.9989 25.5616L18.308 27.303L17.9878 28.0946Z" fill="#F3A70B"/>
<path d="M21.8967 25.6143L17.8019 28.5341L17.1785 31.6122L17.8188 30.8032L18.2232 30.2931L20.3632 27.5492L21.4248 26.2122L21.8967 25.6143Z" fill="#E59108"/>
<path d="M17.2456 29.0443L16.9086 29.361L16.521 29.7127H16.5378L17.1782 31.6123L17.8016 28.5341L17.2456 29.0443Z" fill="#FFBB00"/>
<path d="M13.4036 35.4644L17.1781 31.6123L16.5378 29.7127L13.4036 35.4644Z" fill="#FEB11C"/>
<path d="M16.5379 29.7127L12.8813 34.4442L13.4037 35.4644L16.5379 29.7127Z" fill="#F9A406"/>
<path d="M10.8264 34.3915L13.4046 35.4645L12.8822 34.4443L10.8264 34.3915Z" fill="#FFBA00"/>
<path d="M13.4046 35.4645L10.8264 34.3915L13.1855 36.0624L13.4046 35.4645Z" fill="#D38800"/>
<path d="M33.4571 27.2502L32.8 26.8104L32.6147 29.2906L33.1034 29.8182L36.0523 33.037L33.5077 27.2852L33.4571 27.2502Z" fill="#FEB526"/>
<path d="M34.7525 28.1471L33.8764 27.5492L33.5056 27.2853L36.05 33.037L34.8031 28.1824L34.7525 28.1471Z" fill="#E68F00"/>
<path d="M35.1071 29.3432L35.3937 28.5869L34.804 28.1824L35.1071 29.3432Z" fill="#D38800"/>
<path d="M33.1011 29.8183L34.2471 33.4065L36.05 33.037L33.1011 29.8183Z" fill="#EE9904"/>
<path d="M32.3953 36.6253L36.0518 33.037L34.2487 33.4065L32.3953 36.6253Z" fill="#EFA721"/>
<path d="M31.3833 36.2032L32.3944 36.6252L34.2481 33.4065L31.3833 36.2032Z" fill="#E39516"/>
<path d="M31.3823 36.2032L29.7646 36.4494L32.3934 36.6253L31.3823 36.2032Z" fill="#FFBA00"/>
<path d="M32.2584 37.6455L32.3934 36.6252L29.7646 36.4494L32.2584 37.6455Z" fill="#D38800"/>
<path d="M29.0918 22.0788L30.5071 14.8496L28.3503 18.2443L27.8784 19.0007L29.0918 22.0788Z" fill="#FABB32"/>
<path d="M36.3724 22.6593L33.036 18.2619L30.5084 14.8496L29.0928 22.0788L36.3724 22.6593Z" fill="#F9A925"/>
<path d="M19.3512 19.4756L18.9973 25.5615L24.2884 21.6391L19.3512 19.4756Z" fill="#FCB81D"/>
<path d="M16.9251 20.1089L19.3516 19.4756L16.1331 18.1389L16.9251 20.1089Z" fill="#FCB81D"/>
<path d="M16.1341 18.1388L15.2578 15.9226L14.3984 20.7597L16.926 20.1088L16.1341 18.1388Z" fill="#F5A623"/>
<path d="M15.3074 15.5356L12.7123 15.905L12.1226 15.9929L14.3974 20.7597L15.3242 15.518L15.3074 15.5356Z" fill="#EC9608"/>
<path d="M16.926 20.1088L14.3984 20.7596L18.9987 25.5615L19.3526 19.4756L16.926 20.1088Z" fill="#EF9E00"/>
<path d="M21.8118 19.0534L19.3516 19.4756L24.2888 21.6391L21.8118 19.0534Z" fill="#FAA91E"/>
<path d="M25.0989 13.935L21.813 19.0535L24.2901 21.6391L25.0989 13.935Z" fill="#FFB30E"/>
<path d="M29.0917 22.0789L27.6594 18.4554L27.4235 17.8574L25.9406 14.1285L25.0981 13.935L24.2893 21.6391L29.0917 22.0789Z" fill="#F3A017"/>
<path d="M10.2192 15.3598L11.5673 16.0633L12.3761 13.8998L10.2192 15.3598Z" fill="#EC9F21"/>
<path d="M12.3764 13.8998L11.1463 13.6535L10.1521 14.2867L10.2026 15.3597L12.3764 13.8998Z" fill="#F9A42F"/>
<path d="M10.1512 14.2867L9.05591 15.2013L9.40978 15.9929L10.2186 15.6939L10.2017 15.3597L10.1512 14.2867Z" fill="#FFAD2D"/>
<path d="M14.5485 15.6411H14.4642L14.0261 14.8672L14.9698 14.2339L14.4979 13.6359L12.3747 13.8998L11.5659 16.0632L12.122 15.9929L12.7118 15.905L14.5485 15.6411Z" fill="#FFBA00"/>
<path d="M13.1335 13.3545L12.3752 13.8998L14.4984 13.6359L13.1335 13.3545Z" fill="#DE8C02"/>
<path d="M14.4657 15.6411L15.2409 14.0405L14.9712 14.234L14.0276 14.8672L14.4657 15.6411Z" fill="#ECA403"/>
<path d="M14.5506 15.6411L15.3088 15.5356L15.3257 15.518L15.629 15.4828L15.2414 14.0405L14.4663 15.6411H14.5506Z" fill="#FAA91E"/>
<path d="M24.2884 21.6391L18.9973 25.5615L29.091 22.0788L24.2884 21.6391Z" fill="#E49005"/>
<path d="M18.9973 25.5615L21.8956 25.6143V25.6318L28.0629 25.7374L31.3658 25.8077L29.091 22.0788L18.9973 25.5615Z" fill="#ED9A11"/>
<path d="M29.0928 22.0788L31.3678 25.8077L36.3724 22.6593L29.0928 22.0788Z" fill="#E18E01"/>
<path d="M33.0344 18.2619V18.2443L33.1018 16.3271L30.5068 14.8496L33.0344 18.2619Z" fill="#E69001"/>
<path d="M34.3671 19.458L33.1035 16.3271L33.0361 18.2443L34.3671 19.458Z" fill="#EEA504"/>
<path d="M33.0361 18.2444V18.262L36.3725 22.6593L36.4061 21.3225L34.3671 19.4581L33.0361 18.2444Z" fill="#DE8C02"/>
<path d="M36.3721 22.6593L37.063 26.4059L38.1582 27.5492L36.4059 21.3225L36.3721 22.6593Z" fill="#DC8900"/>
<path d="M33.8778 27.5491L34.7539 28.147H34.7707L36.3715 22.6592L31.3669 25.8077L32.7993 26.8104L33.4565 27.2502L33.8778 27.5491Z" fill="#F5A623"/>
<path d="M36.3713 22.6592V22.6768L34.7704 28.147H34.7534L37.062 26.4058L36.3713 22.6592Z" fill="#EE9704"/>
<path d="M34.7534 28.1471L41.0052 30.4864L38.1574 27.5492L37.062 26.4059L34.7534 28.1471Z" fill="#F7B13D"/>
<path d="M34.804 28.1824L35.3938 28.5869L41.2748 32.6325L41.0052 30.4865L34.7534 28.1471L34.804 28.1824Z" fill="#F5A209"/>
<path d="M41.2757 32.6325L39.6245 31.5067L41.714 36.3966L41.2757 32.6325Z" fill="#DE8903"/>
<path d="M40.231 32.9139L40.8037 36.0623L41.7137 36.3966L40.231 32.9139Z" fill="#F3AB10"/>
<path d="M41.7134 36.3966L40.8035 36.0624L39.4216 37.0298L41.7134 36.3966Z" fill="#FFBA00"/>
<path d="M39.4216 37.0298L41.9998 37.1003L41.7134 36.3966L39.4216 37.0298Z" fill="#D38800"/>
<path d="M17.4815 27.9713L17.987 28.0946L18.3072 27.303L18.6779 26.3706L16.5715 27.7426L17.4815 27.9713Z" fill="#E18E01"/>
<path d="M16.5714 27.7426L18.6778 26.3706L16.4366 26.951L16.0828 28.0418L16.5714 27.7426Z" fill="#F4B819"/>
<path d="M16.5714 27.7425L16.0828 28.0417L16.9085 29.3609L16.5714 27.7425Z" fill="#F6A616"/>
<path d="M17.4815 27.9712L16.5715 27.7425L16.9086 29.3609L17.2456 29.0442L17.7342 28.6044L17.4815 27.9712Z" fill="#D68600"/>
<path d="M27.6589 18.4554L27.8612 19.0007H27.8779L28.3498 18.2444L28.5015 17.9981L27.4231 17.8574L27.6589 18.4554Z" fill="#C97E03"/>
</svg>
