<svg width="20" height="20" viewBox="0 0 20 20" fill="none" xmlns="http://www.w3.org/2000/svg">
<g clip-path="url(#clip0_2950_4901)">
<path d="M11.336 7.79845L8.85863 9.22501C8.82722 9.24305 8.80118 9.26914 8.78319 9.30058C8.7652 9.33203 8.75592 9.36769 8.75629 9.40392V10.6008C8.75595 10.6362 8.76532 10.671 8.78336 10.7014C8.8014 10.7318 8.82743 10.7568 8.85863 10.7734L9.89613 11.3719C9.92568 11.3906 9.95996 11.4006 9.99496 11.4006C10.03 11.4006 10.0642 11.3906 10.0938 11.3719L14.375 8.90626C15.1016 8.48595 15.1016 7.27501 14.375 6.8547L10.5274 4.63907C10.3669 4.5421 10.1829 4.49084 9.99535 4.49084C9.80781 4.49084 9.62384 4.5421 9.46332 4.63907L5.61644 6.85548C5.4522 6.94724 5.3156 7.08141 5.22091 7.24398C5.12623 7.40655 5.07693 7.59157 5.07816 7.7797C5.07816 9.26407 5.08441 10.7414 5.07816 12.2188C5.07662 12.4066 5.12545 12.5914 5.21957 12.7539C5.31369 12.9165 5.44965 13.0508 5.61332 13.143L9.46019 15.3656C9.62174 15.4596 9.80531 15.5092 9.99222 15.5092C10.1791 15.5092 10.3627 15.4596 10.5243 15.3656L14.375 13.143C14.5383 13.0509 14.6737 12.9164 14.7668 12.7537C14.8599 12.591 14.9073 12.4062 14.9039 12.2188V10.2891L10.3243 12.9391C10.224 12.9986 10.1096 13.0299 9.993 13.0299C9.87643 13.0299 9.76201 12.9986 9.66175 12.9391L7.61644 11.7539C7.51479 11.6969 7.43038 11.6136 7.37209 11.5127C7.3138 11.4118 7.28378 11.297 7.28519 11.1805V8.81798C7.28468 8.7033 7.31437 8.5905 7.37129 8.49094C7.4282 8.39137 7.51033 8.30855 7.60941 8.25079C8.29144 7.85548 8.97894 7.46095 9.66097 7.06564C9.76137 7.00656 9.87574 6.9754 9.99222 6.9754C10.1087 6.9754 10.2231 7.00656 10.3235 7.06564L11.3391 7.64532C11.3522 7.65348 11.363 7.66491 11.3704 7.67849C11.3777 7.69207 11.3814 7.70733 11.3811 7.72278C11.3808 7.73822 11.3765 7.75332 11.3686 7.76659C11.3606 7.77985 11.3494 7.79083 11.336 7.79845V7.79845Z" fill="white"/>
<path d="M9.99991 2.91565C8.59875 2.91565 7.22906 3.33114 6.06404 4.10958C4.89902 4.88802 3.991 5.99445 3.4548 7.28895C2.9186 8.58345 2.7783 10.0079 3.05165 11.3821C3.32501 12.7564 3.99973 14.0187 4.9905 15.0094C5.98126 16.0002 7.24358 16.6749 8.61781 16.9483C9.99205 17.2216 11.4165 17.0813 12.711 16.5451C14.0055 16.0089 15.1119 15.1009 15.8903 13.9359C16.6688 12.7709 17.0843 11.4012 17.0843 10C17.0843 9.06969 16.901 8.14847 16.545 7.28895C16.189 6.42944 15.6672 5.64846 15.0093 4.99061C14.3515 4.33277 13.5705 3.81094 12.711 3.45492C11.8515 3.09889 10.9302 2.91565 9.99991 2.91565V2.91565ZM11.3358 7.64534L10.3202 7.06565C10.2198 7.00657 10.1055 6.97541 9.98897 6.97541C9.87248 6.97541 9.75811 7.00657 9.65772 7.06565C8.97569 7.46096 8.28819 7.85549 7.60616 8.25081C7.50707 8.30856 7.42495 8.39138 7.36803 8.49095C7.31112 8.59051 7.28142 8.70331 7.28194 8.81799V11.1805C7.28053 11.297 7.31055 11.4118 7.36884 11.5127C7.42713 11.6136 7.51154 11.6969 7.61319 11.7539L9.65772 12.9391C9.75797 12.9986 9.8724 13.03 9.98897 13.03C10.1055 13.03 10.22 12.9986 10.3202 12.9391L14.8999 10.2891V12.2188C14.9036 12.4058 14.8568 12.5904 14.7644 12.753C14.672 12.9157 14.5375 13.0504 14.3749 13.143L10.528 15.3656C10.3665 15.4597 10.1829 15.5092 9.996 15.5092C9.80909 15.5092 9.62552 15.4597 9.46397 15.3656L5.61631 13.143C5.45207 13.0512 5.31547 12.9171 5.22078 12.7545C5.1261 12.5919 5.0768 12.4069 5.07803 12.2188C5.08428 10.7414 5.07803 9.26331 5.07803 7.77971C5.07649 7.59189 5.12532 7.40709 5.21944 7.24455C5.31356 7.082 5.44952 6.94765 5.61319 6.85549L9.46006 4.63909C9.62058 4.54211 9.80455 4.49086 9.99209 4.49086C10.1796 4.49086 10.3636 4.54211 10.5241 4.63909L14.3749 6.85549C15.1015 7.27581 15.1015 8.48674 14.3749 8.90706L10.0937 11.3719C10.0641 11.3907 10.0298 11.4006 9.99483 11.4006C9.95983 11.4006 9.92555 11.3907 9.896 11.3719L8.8585 10.7735C8.8273 10.7568 8.80127 10.7319 8.78323 10.7014C8.76519 10.671 8.75582 10.6362 8.75616 10.6008V9.40393C8.75578 9.36771 8.76507 9.33204 8.78306 9.30059C8.80105 9.26915 8.82709 9.24307 8.8585 9.22502L11.3358 7.79846C11.3491 7.79057 11.3601 7.77937 11.3678 7.76594C11.3754 7.75252 11.3794 7.73734 11.3794 7.7219C11.3794 7.70646 11.3754 7.69128 11.3678 7.67786C11.3601 7.66443 11.3491 7.65323 11.3358 7.64534V7.64534Z" fill="white"/>
<path d="M10 0C8.02219 0 6.08879 0.58649 4.4443 1.6853C2.79981 2.78412 1.51809 4.3459 0.761209 6.17317C0.00433281 8.00043 -0.193701 10.0111 0.192152 11.9509C0.578004 13.8907 1.53041 15.6725 2.92894 17.0711C4.32746 18.4696 6.10929 19.422 8.0491 19.8079C9.98891 20.1937 11.9996 19.9957 13.8268 19.2388C15.6541 18.4819 17.2159 17.2002 18.3147 15.5557C19.4135 13.9112 20 11.9778 20 10C20 7.34784 18.9464 4.8043 17.0711 2.92893C15.1957 1.05357 12.6522 0 10 0V0ZM11.3359 7.64531L10.3203 7.06563C10.2199 7.00655 10.1056 6.97539 9.98907 6.97539C9.87258 6.97539 9.75821 7.00655 9.65782 7.06563C8.97579 7.46094 8.28829 7.85547 7.60625 8.25078C7.50717 8.30853 7.42505 8.39136 7.36813 8.49092C7.31122 8.59049 7.28152 8.70329 7.28204 8.81797V11.1805C7.28063 11.297 7.31065 11.4118 7.36894 11.5127C7.42723 11.6136 7.51164 11.6969 7.61329 11.7539L9.65782 12.9391C9.75807 12.9985 9.8725 13.0299 9.98907 13.0299C10.1056 13.0299 10.2201 12.9985 10.3203 12.9391L14.9 10.2891V12.2187C14.9037 12.4058 14.8569 12.5904 14.7645 12.753C14.6721 12.9157 14.5376 13.0504 14.375 13.143L10.5281 15.3656C10.3666 15.4596 10.183 15.5092 9.9961 15.5092C9.80919 15.5092 9.62562 15.4596 9.46407 15.3656L5.61641 13.143C5.45217 13.0512 5.31557 12.917 5.22088 12.7545C5.1262 12.5919 5.0769 12.4069 5.07813 12.2187C5.08438 10.7414 5.07813 9.26328 5.07813 7.77969C5.07659 7.59187 5.12542 7.40707 5.21954 7.24452C5.31366 7.08198 5.44962 6.94763 5.61329 6.85547L9.46016 4.63906C9.62068 4.54209 9.80465 4.49083 9.99219 4.49083C10.1797 4.49083 10.3637 4.54209 10.5242 4.63906L14.375 6.85547C15.1016 7.27578 15.1016 8.48672 14.375 8.90703L10.0938 11.3719C10.0642 11.3906 10.0299 11.4006 9.99493 11.4006C9.95993 11.4006 9.92565 11.3906 9.8961 11.3719L8.8586 10.7734C8.8274 10.7567 8.80137 10.7318 8.78333 10.7014C8.76529 10.671 8.75592 10.6362 8.75625 10.6008V9.40391C8.75588 9.36768 8.76517 9.33201 8.78316 9.30057C8.80115 9.26913 8.82719 9.24304 8.8586 9.225L11.3359 7.79844C11.3492 7.79055 11.3602 7.77934 11.3679 7.76592C11.3755 7.7525 11.3795 7.73732 11.3795 7.72187C11.3795 7.70643 11.3755 7.69125 11.3679 7.67783C11.3602 7.66441 11.3492 7.6532 11.3359 7.64531V7.64531Z" fill="url(#paint0_linear_2950_4901)"/>
</g>
<defs>
<linearGradient id="paint0_linear_2950_4901" x1="-7.12656" y1="-10.5523" x2="26.782" y2="30.1383" gradientUnits="userSpaceOnUse">
<stop stop-color="#273498"/>
<stop offset="0.53" stop-color="#0074C2"/>
<stop offset="1" stop-color="#00ABE7"/>
</linearGradient>
<clipPath id="clip0_2950_4901">
<rect width="20" height="20" fill="white"/>
</clipPath>
</defs>
</svg>
