<svg width="51" height="50" viewBox="0 0 51 50" fill="none" xmlns="http://www.w3.org/2000/svg">
<ellipse cx="25.6819" cy="24.9999" rx="25" ry="24.9999" fill="#076ABC"/>
<path d="M29.1678 19.0057L22.3714 22.8899C22.2852 22.939 22.2138 23.01 22.1645 23.0956C22.1151 23.1812 22.0896 23.2783 22.0907 23.377V26.6358C22.0897 26.7321 22.1154 26.8269 22.1649 26.9097C22.2144 26.9924 22.2858 27.0605 22.3714 27.1057L25.2177 28.7353C25.2988 28.7862 25.3928 28.8134 25.4888 28.8134C25.5849 28.8134 25.6788 28.7862 25.76 28.7353L37.505 22.022C39.4983 20.8776 39.4983 17.5805 37.505 16.4361L26.9495 10.4036C26.5092 10.1396 26.0044 10 25.4899 10C24.9754 10 24.4707 10.1396 24.0303 10.4036L13.4768 16.4383C13.0262 16.6881 12.6515 17.0534 12.3917 17.4961C12.132 17.9387 11.9967 18.4424 12.0001 18.9547C12.0001 22.9962 12.0172 27.0186 12.0001 31.0411C11.9959 31.5525 12.1298 32.0556 12.388 32.4981C12.6462 32.9408 13.0192 33.3064 13.4683 33.5575L24.0217 39.609C24.4649 39.865 24.9685 40 25.4813 40C25.994 40 26.4977 39.865 26.941 39.609L37.505 33.5575C37.953 33.3067 38.3244 32.9405 38.5798 32.4975C38.8353 32.0545 38.9653 31.5514 38.956 31.0411V25.7871L26.3923 33.0023C26.1172 33.1643 25.8033 33.2495 25.4834 33.2495C25.1636 33.2495 24.8497 33.1643 24.5747 33.0023L18.9636 29.7753C18.6847 29.6201 18.4532 29.3933 18.2932 29.1186C18.1333 28.8439 18.051 28.5313 18.0548 28.2141V21.7816C18.0535 21.4694 18.1349 21.1623 18.2911 20.8912C18.4472 20.6201 18.6725 20.3946 18.9443 20.2373C20.8154 19.161 22.7015 18.0868 24.5725 17.0105C24.848 16.8496 25.1617 16.7648 25.4813 16.7648C25.8008 16.7648 26.1147 16.8496 26.3901 17.0105L29.1763 18.5888C29.2123 18.611 29.2419 18.6421 29.2622 18.6791C29.2822 18.7161 29.2924 18.7576 29.2915 18.7997C29.2907 18.8417 29.2789 18.8828 29.2572 18.919C29.2353 18.9551 29.2046 18.985 29.1678 19.0057Z" fill="white"/>
</svg>
