<svg width="50" height="50" viewBox="0 0 22 22" fill="none" xmlns="http://www.w3.org/2000/svg">
<path d="M12.1787 22C6.86296 22 2.55371 17.0751 2.55371 11C2.55371 4.92486 6.86296 0 12.1787 0C17.4945 0 21.8037 4.92486 21.8037 11C21.8037 17.0751 17.4945 22 12.1787 22Z" fill="#FCC62D"/>
<path d="M2.55343 11C2.55343 5.38136 6.2404 0.749571 10.9999 0.08525C10.6133 0.0310357 10.2204 0 9.82129 0C4.50554 0 0.196289 4.92486 0.196289 11C0.196289 17.0751 4.50554 22 9.82129 22C10.2204 22 10.6133 21.969 10.9999 21.9151C6.2404 21.2504 2.55343 16.6186 2.55343 11Z" fill="#E4AF18"/>
<path d="M2.55265 11.3932H0.196289C0.204146 11.6576 0.219075 11.9197 0.243039 12.179H2.60136C2.577 11.9201 2.5605 11.658 2.55265 11.3932Z" fill="#CE9912"/>
<path d="M2.64309 9.42896H0.287522C0.254915 9.68785 0.231737 9.95028 0.214844 10.2147H2.57159C2.58849 9.95067 2.61127 9.68824 2.64309 9.42896Z" fill="#CE9912"/>
<path d="M2.76964 13.3575H0.412109C0.463181 13.6231 0.522109 13.8851 0.589288 14.1432H2.94604C2.87886 13.8855 2.82032 13.6235 2.76964 13.3575Z" fill="#CE9912"/>
<path d="M3.31868 15.3218H0.959961C1.06014 15.5897 1.17053 15.851 1.28878 16.1075H3.64671C3.52846 15.8518 3.41885 15.5897 3.31868 15.3218Z" fill="#CE9912"/>
<path d="M3.05382 7.46468H0.698639C0.622425 7.72278 0.550925 7.98403 0.491211 8.25039H2.8511C2.91043 7.98521 2.97721 7.72239 3.05382 7.46468Z" fill="#CE9912"/>
<path d="M3.83577 5.50079H1.47823C1.34898 5.75654 1.22681 6.01818 1.11523 6.2865H3.47395C3.58552 6.01818 3.70613 5.75614 3.83577 5.50079Z" fill="#CE9912"/>
<path d="M5.43949 3.14365H3.0796C2.85606 3.3935 2.64353 3.65554 2.44238 3.92936H4.80149C5.00263 3.65554 5.21556 3.3935 5.43949 3.14365Z" fill="#CE9912"/>
<path d="M7.84127 1.17896H5.47862C5.07752 1.41074 4.69212 1.67317 4.3252 1.96467H6.68587C7.05319 1.67356 7.43898 1.41113 7.84127 1.17896Z" fill="#CE9912"/>
<path d="M4.5259 17.679H2.16797C2.35025 17.9512 2.54275 18.2132 2.74665 18.4647H5.10654C4.90225 18.2132 4.70897 17.9512 4.5259 17.679Z" fill="#CE9912"/>
<path d="M3.86328 19.6432C4.17875 19.9273 4.50953 20.1913 4.85485 20.429H7.21789C6.87021 20.1905 6.53667 19.9285 6.21925 19.6432H3.86328Z" fill="#CE9912"/>
<path d="M12.212 19.8487H12.1786C11.9036 19.8487 11.6267 19.8322 11.3556 19.8C11.1403 19.7741 10.9859 19.5788 11.0123 19.3631C11.0374 19.1479 11.2271 18.9978 11.4487 19.0198C11.6884 19.0485 11.9343 19.063 12.1783 19.063C12.3955 19.063 12.5876 19.239 12.5876 19.4559C12.588 19.6727 12.4293 19.8487 12.212 19.8487ZM14.4969 19.4256C14.3382 19.4256 14.1885 19.3286 14.1288 19.171C14.0522 18.9683 14.1551 18.7416 14.3578 18.665C14.5849 18.5794 14.8108 18.4792 15.028 18.3676C15.2217 18.2679 15.4578 18.3445 15.5576 18.5374C15.6566 18.7303 15.5808 18.9671 15.3871 19.0661C15.1431 19.1919 14.8901 19.3038 14.6348 19.4001C14.5896 19.4174 14.5429 19.4256 14.4969 19.4256ZM9.17958 19.1255C9.11947 19.1255 9.05858 19.1117 9.002 19.0826C8.75922 18.9597 8.51997 18.821 8.29133 18.6709C8.10943 18.5523 8.05875 18.3087 8.17779 18.1272C8.29722 17.9461 8.54 17.895 8.7219 18.0141C8.92658 18.148 9.14029 18.2722 9.35754 18.3822C9.55122 18.4804 9.62783 18.7169 9.52961 18.9102C9.46086 19.0469 9.32297 19.1255 9.17958 19.1255ZM17.0803 17.7277C16.9801 17.7277 16.8804 17.69 16.8041 17.6145C16.6498 17.4617 16.6482 17.213 16.8006 17.0586C16.9723 16.8858 17.1377 16.7 17.2952 16.5075C17.4319 16.3393 17.679 16.3138 17.8472 16.4505C18.0161 16.5876 18.0409 16.8351 17.9045 17.0033C17.7317 17.2154 17.5482 17.4201 17.3596 17.611C17.2826 17.6888 17.1813 17.7277 17.0803 17.7277ZM6.77961 17.1749C6.66568 17.1749 6.55333 17.1258 6.47593 17.0311C6.30622 16.8249 6.14279 16.6049 5.98958 16.3774C5.86779 16.1979 5.91493 15.9535 6.09447 15.8318C6.27479 15.7108 6.51836 15.7579 6.64054 15.9378C6.7804 16.1449 6.92968 16.3456 7.08408 16.5334C7.22118 16.7011 7.19722 16.9486 7.02868 17.0861C6.95561 17.1459 6.86722 17.1749 6.77961 17.1749ZM18.8061 15.156C18.7539 15.156 18.7009 15.1454 18.6494 15.1234C18.4506 15.0366 18.3599 14.8052 18.4463 14.606C18.5449 14.3798 18.6345 14.1456 18.7142 13.9111C18.7838 13.7056 19.0065 13.5952 19.2124 13.664C19.4174 13.7335 19.5282 13.9563 19.4591 14.1617C19.3723 14.4179 19.274 14.6728 19.1672 14.9199C19.102 15.0676 18.9578 15.156 18.8061 15.156ZM5.28204 14.4623C5.11861 14.4623 4.9654 14.3593 4.91 14.1959C4.82318 13.9413 4.74579 13.6789 4.68018 13.4173C4.62833 13.2067 4.7564 12.9938 4.96658 12.9415C5.17675 12.8881 5.39008 13.0169 5.44311 13.2275C5.50243 13.4675 5.57354 13.7084 5.65329 13.9425C5.724 14.1472 5.61361 14.3711 5.40854 14.441C5.3669 14.4552 5.32408 14.4623 5.28204 14.4623ZM19.549 12.1452C19.5396 12.1452 19.5286 12.1448 19.5184 12.144C19.3019 12.1275 19.1401 11.9385 19.157 11.7221C19.1758 11.4852 19.1845 11.2424 19.1845 11C19.1845 10.7831 19.3605 10.5942 19.5773 10.5942C19.7946 10.5942 19.9702 10.7572 19.9702 10.9745V11C19.9702 11.2628 19.9604 11.526 19.9403 11.7826C19.9242 11.9888 19.7525 12.1452 19.549 12.1452ZM4.77958 11.3972C4.56272 11.3972 4.38672 11.2259 4.38672 11.009V11C4.38672 10.7348 4.39772 10.4657 4.41854 10.2001C4.43504 9.98368 4.62833 9.82497 4.84086 9.8395C5.05693 9.8564 5.21879 10.0454 5.2019 10.2618C5.18265 10.507 5.17243 10.7553 5.17243 11C5.17243 11.2169 4.99683 11.3972 4.77958 11.3972ZM19.2909 9.05418C19.1153 9.05418 18.9546 8.93554 18.9099 8.75718C18.8501 8.51715 18.7783 8.27672 18.6977 8.04258C18.6274 7.83711 18.7374 7.61358 18.9417 7.54325C19.1495 7.47215 19.3707 7.58215 19.4414 7.78722C19.5286 8.04218 19.6064 8.30422 19.672 8.56547C19.7246 8.77604 19.597 8.98936 19.386 9.04201C19.3542 9.05065 19.3224 9.05418 19.2909 9.05418ZM5.27654 8.34075C5.2349 8.34075 5.19208 8.33368 5.15083 8.31954C4.94497 8.25 4.83497 8.02686 4.9049 7.8214C4.99172 7.56447 5.09072 7.3095 5.19875 7.06358C5.28636 6.86479 5.51618 6.77365 5.71575 6.86165C5.91454 6.94886 6.00529 7.18065 5.91847 7.37904C5.81947 7.60454 5.72872 7.83829 5.64858 8.07361C5.59318 8.23743 5.44036 8.34075 5.27654 8.34075ZM18.0334 6.22168C17.9073 6.22168 17.7831 6.16118 17.7077 6.04922C17.569 5.84493 17.4198 5.64497 17.2634 5.45483C17.1251 5.28747 17.1499 5.03958 17.3172 4.90168C17.485 4.76418 17.7321 4.78815 17.8704 4.95551C18.042 5.16451 18.2059 5.38451 18.3583 5.60843C18.4797 5.78836 18.4321 6.03233 18.2526 6.15411C18.1854 6.19968 18.1092 6.22168 18.0334 6.22168ZM6.76861 5.62454C6.681 5.62454 6.5934 5.59586 6.51993 5.53615C6.35179 5.39865 6.32743 5.15154 6.46454 4.9834C6.637 4.77204 6.82086 4.56775 7.01022 4.37683C7.16383 4.22243 7.41211 4.22204 7.56572 4.37447C7.7205 4.52729 7.72129 4.77597 7.56808 4.92997C7.3964 5.10322 7.23022 5.28865 7.07268 5.48036C6.99529 5.57543 6.88215 5.62454 6.76861 5.62454ZM15.8365 4.04133C15.7627 4.04133 15.6884 4.02051 15.622 3.97768C15.4166 3.84333 15.2025 3.71997 14.9856 3.61115C14.7923 3.51372 14.7145 3.27683 14.8124 3.08315C14.9098 2.88947 15.1451 2.81129 15.3396 2.90951C15.582 3.03129 15.8216 3.16958 16.0518 3.31965C16.2337 3.4379 16.2852 3.68147 16.1665 3.86336C16.0903 3.97847 15.9646 4.04133 15.8365 4.04133ZM9.16465 3.66851C9.02125 3.66851 8.88375 3.59033 8.81383 3.4544C8.71561 3.26072 8.79183 3.02422 8.98511 2.92561C9.23065 2.80068 9.48404 2.68833 9.73822 2.59365C9.94329 2.51704 10.168 2.62076 10.2442 2.82386C10.32 3.02697 10.2167 3.25326 10.014 3.32947C9.78733 3.41433 9.56104 3.51372 9.343 3.62529C9.28565 3.65436 9.22475 3.66851 9.16465 3.66851ZM12.9384 2.98101C12.9239 2.98101 12.9086 2.98022 12.8933 2.97826C12.6564 2.95076 12.4163 2.93701 12.1786 2.93701C11.9618 2.93701 11.7775 2.76101 11.7775 2.54415C11.7775 2.32729 11.9449 2.15129 12.1618 2.15129H12.1786C12.4462 2.15129 12.7173 2.16701 12.9832 2.19804C13.1989 2.22279 13.3533 2.41804 13.3281 2.63333C13.3054 2.83368 13.1356 2.98101 12.9384 2.98101Z" fill="#FFD949"/>
<path d="M12.8763 7.52714V15.3214H11.8328V7.52714H9.83398V6.57172H14.8751V7.52714H12.8763Z" fill="#CE9912"/>
</svg>
