<svg width="51" height="50" viewBox="0 0 51 50" fill="none" xmlns="http://www.w3.org/2000/svg">
<path d="M14.2143 25C14.2143 17.3382 19.242 11.0221 25.7322 10.1162C25.205 10.0423 24.6692 10 24.125 10C16.8763 10 11 16.7157 11 25C11 33.2842 16.8763 40 24.125 40C24.6692 40 25.205 39.9577 25.7322 39.8842C19.242 38.9778 14.2143 32.6617 14.2143 25Z" fill="#E4AF18"/>
<path d="M14.2132 25.5362H11C11.0107 25.8967 11.0311 26.2541 11.0637 26.6077H14.2796C14.2464 26.2547 14.2239 25.8973 14.2132 25.5362Z" fill="#CE9912"/>
<path d="M14.3366 22.8577H11.1245C11.08 23.2107 11.0484 23.5686 11.0254 23.9291H14.2391C14.2622 23.5691 14.2932 23.2112 14.3366 22.8577Z" fill="#CE9912"/>
<path d="M14.509 28.2148H11.2942C11.3638 28.577 11.4442 28.9342 11.5358 29.2862H14.7495C14.6579 28.9348 14.5781 28.5775 14.509 28.2148Z" fill="#CE9912"/>
<path d="M15.2577 30.8933H12.0413C12.1779 31.2587 12.3284 31.615 12.4896 31.9647H15.705C15.5438 31.6161 15.3943 31.2587 15.2577 30.8933Z" fill="#CE9912"/>
<path d="M14.8968 20.1791H11.6852C11.5813 20.5311 11.4838 20.8873 11.4023 21.2505H14.6204C14.7013 20.8889 14.7923 20.5305 14.8968 20.1791Z" fill="#CE9912"/>
<path d="M15.963 17.5011H12.7482C12.5719 17.8498 12.4053 18.2066 12.2532 18.5725H15.4696C15.6218 18.2066 15.7862 17.8493 15.963 17.5011Z" fill="#CE9912"/>
<path d="M18.1497 14.2868H14.9317C14.6269 14.6275 14.337 14.9848 14.0627 15.3582H17.2797C17.554 14.9848 17.8444 14.6275 18.1497 14.2868Z" fill="#CE9912"/>
<path d="M21.425 11.6077H18.2032C17.6563 11.9237 17.1307 12.2816 16.6304 12.6791H19.8495C20.3504 12.2821 20.8764 11.9243 21.425 11.6077Z" fill="#CE9912"/>
<path d="M16.9041 34.1077H13.6887C13.9373 34.4789 14.1998 34.8362 14.4778 35.1791H17.6959C17.4173 34.8362 17.1537 34.4789 16.9041 34.1077Z" fill="#CE9912"/>
<path d="M16.0005 36.7862C16.4307 37.1736 16.8817 37.5336 17.3526 37.8577H20.575C20.1008 37.5325 19.646 37.1752 19.2132 36.7862H16.0005Z" fill="#CE9912"/>
<ellipse cx="25.6819" cy="24.9999" rx="25" ry="24.9999" fill="white"/>
<path d="M27.3398 40C20.0911 40 14.2148 33.2842 14.2148 25C14.2148 16.7157 20.0911 10 27.3398 10C34.5886 10 40.4648 16.7157 40.4648 25C40.4648 33.2842 34.5886 40 27.3398 40Z" fill="#FCC62D"/>
<path d="M27.3849 37.0664H27.3394C26.9644 37.0664 26.5868 37.0439 26.2171 37C25.9235 36.9647 25.713 36.6984 25.749 36.4042C25.7832 36.1108 26.0419 35.9061 26.3441 35.9361C26.6709 35.9752 27.0063 35.995 27.339 35.995C27.6352 35.995 27.8971 36.235 27.8971 36.5308C27.8977 36.8264 27.6813 37.0664 27.3849 37.0664ZM30.5007 36.4895C30.2843 36.4895 30.0802 36.3572 29.9988 36.1423C29.8943 35.8659 30.0346 35.5567 30.311 35.4523C30.6207 35.3356 30.9288 35.1989 31.2249 35.0467C31.4891 34.9108 31.811 35.0152 31.9471 35.2783C32.0821 35.5413 31.9788 35.8642 31.7146 35.9992C31.3819 36.1708 31.0369 36.3234 30.6888 36.4547C30.6271 36.4783 30.5634 36.4895 30.5007 36.4895ZM23.2498 36.0802C23.1679 36.0802 23.0848 36.0614 23.0077 36.0217C22.6766 35.8541 22.3504 35.665 22.0386 35.4603C21.7905 35.2986 21.7214 34.9664 21.8838 34.7189C22.0466 34.472 22.3777 34.4023 22.6257 34.5647C22.9048 34.7473 23.1963 34.9167 23.4925 35.0667C23.7566 35.2006 23.8611 35.5231 23.7271 35.7867C23.6334 35.9731 23.4454 36.0802 23.2498 36.0802ZM34.0235 34.1742C33.8869 34.1742 33.7509 34.1227 33.6469 34.0198C33.4365 33.8114 33.4343 33.4723 33.6421 33.2617C33.8763 33.0261 34.1018 32.7727 34.3166 32.5102C34.503 32.2809 34.8399 32.2461 35.0693 32.4325C35.2996 32.6195 35.3334 32.957 35.1474 33.1863C34.9118 33.4756 34.6616 33.7547 34.4044 34.015C34.2994 34.1211 34.1613 34.1742 34.0235 34.1742ZM19.9771 33.4203C19.8218 33.4203 19.6686 33.3534 19.563 33.2242C19.3316 32.9431 19.1088 32.6431 18.8998 32.3328C18.7338 32.0881 18.798 31.7548 19.0429 31.5888C19.2888 31.4238 19.6209 31.4881 19.7875 31.7334C19.9782 32.0158 20.1818 32.2895 20.3923 32.5456C20.5793 32.7742 20.5466 33.1117 20.3168 33.2992C20.2171 33.3808 20.0966 33.4203 19.9771 33.4203ZM36.3769 30.6673C36.3057 30.6673 36.2334 30.6528 36.1632 30.6228C35.8921 30.5045 35.7684 30.1889 35.8863 29.9173C36.0207 29.6088 36.1429 29.2895 36.2516 28.9697C36.3465 28.6895 36.6502 28.5389 36.9309 28.6327C37.2105 28.7275 37.3616 29.0313 37.2674 29.3114C37.149 29.6608 37.0149 30.0084 36.8693 30.3453C36.7804 30.5467 36.5838 30.6673 36.3769 30.6673ZM17.935 29.7213C17.7121 29.7213 17.5032 29.5809 17.4277 29.3581C17.3093 29.0109 17.2038 28.6531 17.1143 28.2963C17.0436 28.0092 17.2182 27.7188 17.5048 27.6475C17.7914 27.5747 18.0823 27.7503 18.1546 28.0375C18.2355 28.3648 18.3325 28.6933 18.4413 29.0125C18.5377 29.2917 18.3871 29.597 18.1075 29.6923C18.0507 29.7117 17.9923 29.7213 17.935 29.7213ZM37.3899 26.5617C37.3771 26.5617 37.3621 26.5611 37.3482 26.56C37.053 26.5375 36.8324 26.2798 36.8554 25.9847C36.881 25.6617 36.8929 25.3306 36.8929 25C36.8929 24.7042 37.1329 24.4467 37.4285 24.4467C37.7249 24.4467 37.9643 24.6689 37.9643 24.9652V25C37.9643 25.3584 37.9509 25.7173 37.9235 26.0672C37.9016 26.3484 37.6674 26.5617 37.3899 26.5617ZM17.2498 25.5417C16.9541 25.5417 16.7141 25.3081 16.7141 25.0123V25C16.7141 24.6384 16.7291 24.2714 16.7575 23.9092C16.78 23.6141 17.0436 23.3977 17.3334 23.4175C17.628 23.4406 17.8488 23.6983 17.8257 23.9934C17.7995 24.3277 17.7855 24.6663 17.7855 25C17.7855 25.2958 17.5461 25.5417 17.2498 25.5417ZM37.038 22.3466C36.7985 22.3466 36.5794 22.1848 36.5184 21.9416C36.4369 21.6143 36.339 21.2865 36.2291 20.9672C36.1332 20.687 36.2832 20.3822 36.5618 20.2863C36.8452 20.1893 37.1468 20.3393 37.2432 20.619C37.3621 20.9666 37.4682 21.324 37.5577 21.6802C37.6294 21.9673 37.4554 22.2582 37.1677 22.33C37.1243 22.3418 37.0809 22.3466 37.038 22.3466ZM17.9275 21.3738C17.8707 21.3738 17.8123 21.3641 17.7561 21.3448C17.4754 21.25 17.3254 20.9457 17.4207 20.6656C17.5391 20.3152 17.6741 19.9675 17.8214 19.6322C17.9409 19.3611 18.2543 19.2368 18.5264 19.3568C18.7975 19.4757 18.9213 19.7918 18.8029 20.0623C18.6679 20.3698 18.5441 20.6886 18.4348 21.0095C18.3593 21.2329 18.1509 21.3738 17.9275 21.3738ZM35.3232 18.4841C35.1513 18.4841 34.9819 18.4016 34.8791 18.249C34.6899 17.9704 34.4865 17.6977 34.2732 17.4384C34.0846 17.2102 34.1184 16.8722 34.3466 16.6841C34.5754 16.4966 34.9124 16.5293 35.1009 16.7575C35.3349 17.0425 35.5584 17.3425 35.7663 17.6479C35.9318 17.8932 35.8669 18.2259 35.6221 18.392C35.5305 18.4541 35.4266 18.4841 35.3232 18.4841ZM19.9621 17.6698C19.8427 17.6698 19.7232 17.6307 19.623 17.5493C19.3938 17.3618 19.3605 17.0248 19.5475 16.7956C19.7827 16.5073 20.0334 16.2288 20.2916 15.9684C20.5011 15.7579 20.8396 15.7573 21.0491 15.9652C21.2602 16.1736 21.2613 16.5127 21.0523 16.7227C20.8182 16.959 20.5916 17.2118 20.3768 17.4732C20.2713 17.6029 20.117 17.6698 19.9621 17.6698ZM32.3274 15.5109C32.2268 15.5109 32.1255 15.4825 32.0349 15.4241C31.7549 15.2409 31.4629 15.0727 31.1671 14.9243C30.9035 14.7915 30.7974 14.4684 30.9309 14.2043C31.0638 13.9402 31.3846 13.8336 31.6499 13.9675C31.9804 14.1336 32.3071 14.3222 32.621 14.5268C32.8691 14.6881 32.9393 15.0202 32.7774 15.2682C32.6735 15.4252 32.5021 15.5109 32.3274 15.5109ZM23.2295 15.0025C23.0339 15.0025 22.8464 14.8959 22.7511 14.7106C22.6171 14.4465 22.7211 14.124 22.9846 13.9895C23.3195 13.8191 23.665 13.6659 24.0116 13.5368C24.2913 13.4323 24.5977 13.5738 24.7016 13.8507C24.8049 14.1277 24.6641 14.4363 24.3877 14.5402C24.0786 14.6559 23.77 14.7915 23.4727 14.9436C23.3945 14.9832 23.3114 15.0025 23.2295 15.0025ZM28.3755 14.065C28.3557 14.065 28.3349 14.064 28.314 14.0613C27.9909 14.0238 27.6635 14.005 27.3394 14.005C27.0438 14.005 26.7924 13.765 26.7924 13.4693C26.7924 13.1736 27.0207 12.9336 27.3165 12.9336H27.3394C27.7043 12.9336 28.074 12.955 28.4366 12.9973C28.7307 13.0311 28.9413 13.2973 28.9069 13.5909C28.8759 13.8641 28.6444 14.065 28.3755 14.065Z" fill="#FFD949"/>
<path d="M28.291 20.2643V30.8928H26.868V20.2643H24.1423V18.9615H31.0166V20.2643H28.291Z" fill="#CE9912"/>
</svg>
