<svg width="56" height="56" viewBox="0 0 56 56" fill="none" xmlns="http://www.w3.org/2000/svg">
<path fill-rule="evenodd" clip-rule="evenodd" d="M30.1357 20.3849C29.8062 20.1917 29.8062 19.7154 30.1357 19.5222L38.0971 14.8547C38.4304 14.6593 38.85 14.8997 38.85 15.286V24.621C38.85 25.0074 38.4304 25.2477 38.0971 25.0523L30.1357 20.3849ZM38.85 43.4108C38.85 43.5882 38.756 43.7524 38.6029 43.8421L26.5029 50.9359C26.3467 51.0275 26.1533 51.0275 25.9971 50.9359L13.8971 43.8421C13.744 43.7524 13.65 43.5882 13.65 43.4108V31.6428C13.65 31.2564 14.0696 31.0161 14.4029 31.2115L25.9971 38.0088C26.1533 38.1003 26.3467 38.1003 26.5029 38.0088L38.0971 31.2115C38.4304 31.0161 38.85 31.2564 38.85 31.6428V43.4108ZM13.65 15.286C13.65 14.8997 14.0696 14.6593 14.4029 14.8547L22.3643 19.5222C22.6938 19.7154 22.6938 20.1917 22.3643 20.3849L14.4029 25.0523C14.0696 25.2477 13.65 25.0074 13.65 24.621V15.286ZM27.825 23.4644C27.825 23.0781 28.2446 22.8377 28.5779 23.0331L36.5393 27.7006C36.8688 27.8937 36.8688 28.3701 36.5393 28.5632L28.5779 33.2307C28.2446 33.4261 27.825 33.1858 27.825 32.7994V23.4644ZM24.675 32.7994C24.675 33.1858 24.2554 33.4261 23.9221 33.2307L15.9607 28.5632C15.6312 28.3701 15.6312 27.8937 15.9607 27.7006L23.9221 23.0331C24.2554 22.8377 24.675 23.0781 24.675 23.4644V32.7994ZM36.543 11.3372C36.8708 11.5333 36.8666 12.0097 36.5354 12.1999L26.499 17.9638C26.3448 18.0523 26.1552 18.0523 26.001 17.9638L15.9646 12.1999C15.6334 12.0097 15.6292 11.5333 15.957 11.3372L25.9933 5.33321C26.1514 5.23865 26.3486 5.23865 26.5067 5.33321L36.543 11.3372ZM10.7526 10.576C10.5964 10.6649 10.5 10.8308 10.5 11.0105V44.9895C10.5 45.1692 10.5964 45.3351 10.7526 45.424L26.0026 54.1091C26.156 54.1964 26.344 54.1964 26.4974 54.1091L41.7474 45.424C41.9036 45.3351 42 45.1692 42 44.9895V11.0105C42 10.8308 41.9036 10.6649 41.7474 10.576L26.4974 1.89092C26.344 1.80356 26.156 1.80356 26.0026 1.89092L10.7526 10.576Z" fill="#3367F6" stroke="#3367F6" stroke-width="0.5" stroke-linejoin="round"/>
</svg>
