<svg width="51" height="50" viewBox="0 0 51 50" fill="none" xmlns="http://www.w3.org/2000/svg">
<ellipse cx="25.6816" cy="24.9999" rx="25" ry="24.9999" fill="#0C33FF"/>
<path d="M24.6825 10.2874C25.4217 9.90421 26.5466 9.90421 27.2859 10.2874L34.8292 14.1973C35.2744 14.428 35.519 14.7719 35.5628 15.1268H35.5699V34.7799C35.5601 35.1672 35.3134 35.5517 34.8292 35.8028L27.2859 39.7126C26.5466 40.0958 25.4217 40.0958 24.6825 39.7126L17.1391 35.8028C16.6571 35.5529 16.4257 35.1656 16.4143 34.7799C16.4131 34.742 16.413 34.7103 16.4141 34.6841V15.2531C16.4133 15.2318 16.4132 15.2106 16.4138 15.1894L16.4143 15.1268H16.4177C16.4512 14.768 16.6845 14.4329 17.1391 14.1973L24.6825 10.2874ZM34.3824 26.0913L27.2859 29.7696C26.5466 30.1527 25.4217 30.1527 24.6825 29.7696L17.6015 26.0994V34.741L24.6825 38.3919C25.0824 38.6016 25.4974 38.8061 25.9031 38.832L25.9842 38.8346C26.407 38.836 26.8175 38.6253 27.2338 38.4258L34.3824 34.7097V26.0913ZM15.1874 34.3527C15.1874 35.1055 15.2765 35.6005 15.4535 35.9492C15.6004 36.2382 15.8205 36.459 16.2226 36.7279L16.2455 36.7431C16.3338 36.8014 16.431 36.8626 16.5493 36.9343L16.6888 37.0182L17.1173 37.2721L16.5028 38.2691L16.0232 37.9848L15.9426 37.9363C15.8039 37.8522 15.689 37.7802 15.5819 37.7092C14.4359 36.951 14.0086 36.1246 14.0001 34.4049L14 34.3527H15.1874ZM25.3904 20.8236C25.3354 20.8422 25.2839 20.8635 25.237 20.8879L17.6937 24.7977C17.6858 24.8019 17.6782 24.8059 17.671 24.8099L17.6646 24.8136L17.6765 24.8202L17.6937 24.8293L25.237 28.7392C25.2839 28.7635 25.3354 28.7849 25.3904 28.8035V20.8236ZM26.578 20.8236V28.8035C26.6329 28.7849 26.6844 28.7635 26.7313 28.7392L34.2747 24.8293C34.2826 24.8252 34.2902 24.8212 34.2973 24.8172L34.3037 24.8136L34.2918 24.8069L34.2747 24.7977L26.7313 20.8879C26.6844 20.8635 26.6329 20.8422 26.578 20.8236ZM34.3824 16.521L27.6156 20.0284L34.3824 23.5358V16.521ZM17.6015 16.5292V23.5277L24.3526 20.0284L17.6015 16.5292ZM26.7313 11.3177C26.339 11.1144 25.6294 11.1144 25.237 11.3177L17.6937 15.2276C17.6858 15.2317 17.6782 15.2357 17.671 15.2398L17.6646 15.2433L17.6765 15.2501L17.6937 15.2592L25.237 19.1691C25.6294 19.3724 26.339 19.3724 26.7313 19.1691L34.2747 15.2592C34.2826 15.2551 34.2902 15.2511 34.2973 15.247L34.3037 15.2433L34.2918 15.2367L34.2747 15.2276L26.7313 11.3177ZM35.4973 11.7465L35.9768 12.0307L36.0575 12.0792C36.1961 12.1632 36.311 12.2354 36.4182 12.3063C37.5641 13.0644 37.9915 13.891 37.9998 15.6105L38 15.6629H36.8127C36.8127 14.9099 36.7235 14.4149 36.5464 14.0663C36.3997 13.7773 36.1795 13.5564 35.7774 13.2877L35.7545 13.2725C35.6663 13.2141 35.5691 13.1529 35.4507 13.081L35.3112 12.9972L34.8827 12.7435L35.4973 11.7465Z" fill="white"/>
</svg>
