<svg width="40" height="40" viewBox="0 0 40 40" fill="none" xmlns="http://www.w3.org/2000/svg">
<path d="M20 40C31.0457 40 40 31.0457 40 20C40 8.9543 31.0457 0 20 0C8.9543 0 0 8.9543 0 20C0 31.0457 8.9543 40 20 40Z" fill="#0C33FF"/>
<path d="M19.1782 6.58109C19.8498 6.22818 20.8717 6.22818 21.5433 6.58109L28.3961 10.1823C28.8005 10.3948 29.0227 10.7116 29.0625 11.0385H29.069V29.14C29.0601 29.4967 28.8359 29.8509 28.3961 30.0821L21.5433 33.6833C20.8717 34.0362 19.8498 34.0362 19.1782 33.6833L12.3254 30.0821C11.8875 29.852 11.6773 29.4952 11.6669 29.14C11.6658 29.1051 11.6657 29.0759 11.6667 29.0518L11.6667 11.1548C11.666 11.1352 11.6659 11.1156 11.6665 11.0961L11.6669 11.0385L11.67 11.0385C11.7004 10.708 11.9124 10.3993 12.3254 10.1823L19.1782 6.58109ZM27.9902 21.1373L21.5433 24.5252C20.8717 24.8781 19.8498 24.8781 19.1782 24.5252L12.7454 21.1448V29.1042L19.1782 32.4668C19.5415 32.66 19.9185 32.8483 20.2871 32.8722L20.3608 32.8746C20.7449 32.8759 21.1178 32.6818 21.496 32.4981L27.9902 29.0753V21.1373ZM10.5523 28.7465C10.5523 29.4399 10.6333 29.8958 10.7941 30.217C10.9275 30.4832 11.1275 30.6865 11.4928 30.9342L11.5136 30.9482C11.5938 31.0019 11.6821 31.0583 11.7896 31.1243L11.9163 31.2016L12.3056 31.4354L11.7473 32.3537L11.3116 32.0919L11.2384 32.0472C11.1124 31.9697 11.008 31.9034 10.9107 31.838C9.86965 31.1397 9.48141 30.3785 9.47375 28.7946L9.47363 28.7465H10.5523ZM19.8213 16.2855C19.7714 16.3026 19.7246 16.3223 19.682 16.3447L12.8292 19.9459C12.822 19.9497 12.8151 19.9534 12.8086 19.9571L12.8028 19.9605L12.8136 19.9666L12.8292 19.975L19.682 23.5762C19.7246 23.5986 19.7714 23.6183 19.8213 23.6354V16.2855ZM20.9002 16.2855V23.6354C20.9501 23.6183 20.9969 23.5986 21.0395 23.5762L27.8923 19.975C27.8995 19.9712 27.9064 19.9675 27.9129 19.9638L27.9187 19.9605L27.9079 19.9543L27.8923 19.9459L21.0395 16.3447C20.9969 16.3223 20.9501 16.3026 20.9002 16.2855ZM27.9902 12.3226L21.8428 15.5531L27.9902 18.7836V12.3226ZM12.7454 12.3301V18.7761L18.8785 15.5531L12.7454 12.3301ZM21.0395 7.53007C20.6831 7.34279 20.0384 7.34279 19.682 7.53007L12.8292 11.1313C12.822 11.1351 12.8151 11.1388 12.8086 11.1425L12.8028 11.1458L12.8136 11.152L12.8292 11.1604L19.682 14.7616C20.0384 14.9489 20.6831 14.9489 21.0395 14.7616L27.8923 11.1604C27.8995 11.1566 27.9064 11.1529 27.9129 11.1492L27.9187 11.1458L27.9079 11.1397L27.8923 11.1313L21.0395 7.53007ZM29.003 7.92498L29.4386 8.18677L29.5119 8.2315C29.6378 8.30886 29.7422 8.37532 29.8396 8.44065C30.8806 9.13892 31.2689 9.90024 31.2764 11.484L31.2766 11.5322H30.198C30.198 10.8387 30.117 10.3828 29.9561 10.0617C29.8228 9.7955 29.6228 9.59208 29.2575 9.34456L29.2367 9.33051C29.1565 9.27674 29.0682 9.22041 28.9607 9.15421L28.8339 9.07697L28.4447 8.84327L29.003 7.92498Z" fill="white"/>
</svg>
