<svg width="51" height="50" viewBox="0 0 51 50" fill="none" xmlns="http://www.w3.org/2000/svg">
<ellipse cx="25.6816" cy="24.9999" rx="25" ry="24.9999" fill="#0090FF"/>
<path fill-rule="evenodd" clip-rule="evenodd" d="M27.3846 22.4261L26.7385 25.9429L32.8769 26.822L32.4462 28.4705L26.4154 27.5913C25.9846 29.02 25.7692 30.5586 25.2308 31.8774C24.6923 33.416 24.1538 34.9546 23.5077 36.3832C22.6462 38.2515 21.1385 39.5703 19.0923 39.9C17.9077 40.1198 16.6154 40.0099 15.6462 39.2406C15.3231 39.0208 15 38.5812 15 38.2515C15 37.8119 15.2154 37.2624 15.5385 37.0426C15.7538 36.9327 16.2923 37.0426 16.6154 37.1525C16.9385 37.4822 17.2615 37.9218 17.4769 38.3614C18.1231 39.2406 18.9846 39.3505 19.8462 38.6911C20.8154 37.8119 21.3538 36.603 21.6769 35.3941C22.3231 32.7566 22.9692 30.2289 23.5077 27.5913V27.1517L17.8 26.2726L18.0154 24.6241L23.9385 25.5033L24.6923 22.0964L18.5538 21.1073L18.7692 19.3489L25.1231 20.2281C25.3385 19.5687 25.4462 19.0192 25.6615 18.4697C26.2 16.4916 26.7385 14.5134 28.0308 12.755C29.3231 10.9966 30.8308 9.89765 33.0923 10.0075C34.0615 10.0075 35.0308 10.3372 35.6769 11.1065C35.7846 11.2164 36 11.4362 36 11.656C36 12.0956 36 12.6451 35.6769 12.9748C35.2462 13.3045 34.7077 13.1946 34.2769 12.755C33.9538 12.4253 33.7385 12.0956 33.4154 11.7659C32.7692 10.8867 31.8 10.7768 31.0462 11.5461C30.5077 12.0956 29.9692 12.8649 29.6462 13.6342C28.8923 15.9421 28.3538 18.3598 27.6 20.7776L33.5231 21.6568L33.0923 23.3053L27.3846 22.4261Z" fill="white"/>
</svg>
