<svg width="20" height="20" viewBox="0 0 20 20" fill="none" xmlns="http://www.w3.org/2000/svg">
<circle cx="10" cy="10" r="10" fill="#080F25"/>
<path d="M6.83398 10.3611L10.3903 12.1392V17.1398C10.3903 17.3486 10.1665 17.481 9.98348 17.3806L7.11903 15.8086C6.94324 15.7121 6.83398 15.5275 6.83398 15.327L6.83398 10.3611Z" fill="#5453BF"/>
<path d="M13.166 2.84065C13.166 2.63647 12.9511 2.50368 12.7685 2.59499L6.83406 5.56222V9.71054L13.0195 6.44836C13.1096 6.40082 13.166 6.3073 13.166 6.20541V2.84065Z" fill="#3955B2"/>
<path d="M6.83398 5.50366L12.8623 8.51781C13.0484 8.61086 13.1659 8.80107 13.1659 9.00914V12.5946C13.1659 12.8014 12.9461 12.934 12.7631 12.8375L6.83398 9.71051L6.83398 5.50366Z" fill="#6EAFDF"/>
</svg>
