<svg width="51" height="50" viewBox="0 0 51 50" fill="none" xmlns="http://www.w3.org/2000/svg">
<ellipse cx="25.6816" cy="24.9999" rx="25" ry="24.9999" fill="#080F25"/>
<path d="M19 25.7992L26.6639 29.631V40.4073C26.6639 40.8572 26.1816 41.1426 25.7872 40.9262L19.6143 37.5385C19.2355 37.3306 19 36.9328 19 36.5007V25.7992Z" fill="#5453BF"/>
<path d="M32.6458 9.59265C32.6458 9.15264 32.1827 8.86648 31.7892 9.06325L19.0005 15.4576V24.3972L32.3301 17.3673C32.5243 17.2648 32.6458 17.0633 32.6458 16.8437V9.59265Z" fill="#3955B2"/>
<path d="M19 15.3314L31.991 21.8269C32.3921 22.0274 32.6453 22.4373 32.6453 22.8857V30.6124C32.6453 31.058 32.1716 31.3438 31.7772 31.1358L19 24.3972V15.3314Z" fill="#6EAFDF"/>
</svg>
