<svg width="51" height="50" viewBox="0 0 51 50" fill="none" xmlns="http://www.w3.org/2000/svg">
<ellipse cx="25.6816" cy="24.9999" rx="25" ry="24.9999" fill="white"/>
<path d="M25.9903 39.9714C34.2587 39.9714 40.9616 33.2686 40.9616 25.0002C40.9616 16.7318 34.2587 10.0289 25.9903 10.0289C17.7219 10.0289 11.019 16.7318 11.019 25.0002C11.019 33.2686 17.7219 39.9714 25.9903 39.9714Z" fill="#FEFEFE"/>
<path d="M19.8055 31.5706C20.1523 31.5706 20.4799 31.3779 20.634 31.0697L22.8402 26.8788H19.4298C18.9095 26.8788 18.4953 26.4548 18.4953 25.9443V24.0657C18.4953 23.5454 18.9192 23.1312 19.4298 23.1312H24.8248L29.0156 15.1927C29.1794 14.8845 29.4973 14.6918 29.8441 14.6918H36.9058C34.1698 11.8016 30.3066 10 26.0098 10C17.7246 10 11 16.7149 11 25.0098C11 27.3605 11.5395 29.5956 12.5125 31.5802H19.8055V31.5706Z" fill="#9B1C2E"/>
<path d="M32.1946 18.4297C31.8477 18.4297 31.5202 18.6224 31.3661 18.9307L29.1599 23.1215H32.5703C33.0906 23.1215 33.5048 23.5454 33.5048 24.056V25.9347C33.5048 26.4548 33.081 26.8692 32.5703 26.8692H27.1753L22.9845 34.8076C22.8207 35.1158 22.5028 35.3085 22.156 35.3085H15.0942C17.8303 38.1987 21.6935 40.0002 25.9903 40.0002C34.2755 40.0002 41.0001 33.2854 41.0001 24.9905C41.0001 22.6398 40.4606 20.4047 39.4876 18.4201H32.1946V18.4297Z" fill="#9B1C2E"/>
</svg>
