<svg width="20" height="20" viewBox="0 0 20 20" fill="none" xmlns="http://www.w3.org/2000/svg">
<g clip-path="url(#clip0_4538_58016)">
<path d="M9.98083 19.9615C15.4824 19.9615 19.9424 15.5016 19.9424 9.99999C19.9424 4.49838 15.4824 0.0384521 9.98083 0.0384521C4.47922 0.0384521 0.0192871 4.49838 0.0192871 9.99999C0.0192871 15.5016 4.47922 19.9615 9.98083 19.9615Z" fill="#FEFEFE"/>
<path d="M5.86532 14.3718C6.09609 14.3718 6.31404 14.2436 6.4166 14.0385L7.88455 11.25H5.61532C5.26917 11.25 4.99353 10.9679 4.99353 10.6282V9.3782C4.99353 9.03205 5.27558 8.75641 5.61532 8.75641H9.20507L11.9935 3.47435C12.1025 3.26923 12.314 3.14102 12.5448 3.14102H17.2435C15.423 1.21794 12.8525 0.0192261 9.99353 0.0192261C4.48071 0.0192261 0.00634766 4.48718 0.00634766 10.0064C0.00634766 11.5705 0.365322 13.0577 1.01276 14.3782H5.86532V14.3718Z" fill="#9B1C2E"/>
<path d="M14.1089 5.62818C13.8781 5.62818 13.6602 5.75638 13.5576 5.96151L12.0897 8.74997H14.3589C14.7051 8.74997 14.9807 9.03202 14.9807 9.37177V10.6218C14.9807 10.9679 14.6987 11.2436 14.3589 11.2436H10.7692L7.98071 16.5256C7.87174 16.7307 7.6602 16.8589 7.42943 16.8589H2.73071C4.55123 18.782 7.12174 19.9807 9.98071 19.9807C15.4935 19.9807 19.9679 15.5128 19.9679 9.99356C19.9679 8.42946 19.6089 6.94228 18.9615 5.62177H14.1089V5.62818Z" fill="#9B1C2E"/>
</g>
<defs>
<clipPath id="clip0_4538_58016">
<rect width="20" height="20" fill="white"/>
</clipPath>
</defs>
</svg>
