<svg width="51" height="50" viewBox="0 0 51 50" fill="none" xmlns="http://www.w3.org/2000/svg">
<ellipse cx="25.6816" cy="24.9999" rx="25" ry="24.9999" fill="white"/>
<path d="M40.8361 10H18.541C14.4426 10 11.1639 13.1967 11 17.2951C11 17.3771 11.082 17.541 11.1639 17.541H33.541C37.6394 17.541 40.918 14.3443 41.082 10.2459C41.082 10.082 41 10 40.8361 10Z" fill="#E62058"/>
<path d="M33.3771 21.2295H18.541C14.4426 21.2295 11.1639 24.4262 11 28.5246C11 28.6066 11.082 28.6885 11.1639 28.6885H26C30.0984 28.6885 33.3771 25.4918 33.541 21.3935C33.541 21.3115 33.459 21.2295 33.3771 21.2295Z" fill="#E62058"/>
<path d="M14.7705 40C16.8529 40 18.541 38.3119 18.541 36.2295C18.541 34.1471 16.8529 32.459 14.7705 32.459C12.6881 32.459 11 34.1471 11 36.2295C11 38.3119 12.6881 40 14.7705 40Z" fill="#E62058"/>
</svg>
