<svg width="51" height="50" viewBox="0 0 51 50" fill="none" xmlns="http://www.w3.org/2000/svg">
<ellipse cx="25.6816" cy="24.9999" rx="25" ry="24.9999" fill="#00EF8B"/>
<path d="M37.4494 20.6H30.3994V27.65H37.4494V20.6Z" fill="white"/>
<path d="M23.35 30.3C23.35 31.7501 22.15 32.9501 20.7 32.9501C19.25 32.9501 18.05 31.7501 18.05 30.3C18.05 28.85 19.25 27.65 20.7 27.65H23.35V20.6H20.7C15.35 20.6 11 24.95 11 30.3C11 35.6501 15.35 40.0001 20.7 40.0001C26.05 40.0001 30.4 35.6501 30.4 30.3V27.65H23.35V30.3Z" fill="white"/>
<path d="M33.0502 17.05H41.0002V10H33.0502C27.7001 10 23.3501 14.35 23.3501 19.7V20.6H30.4002V19.7C30.4002 18.25 31.6002 17.05 33.0502 17.05Z" fill="white"/>
<path d="M30.4002 20.6H23.3501V27.65H30.4002V20.6Z" fill="#16FF99"/>
</svg>
