<svg width="269" height="269" viewBox="0 0 269 269" fill="none" xmlns="http://www.w3.org/2000/svg">
<path d="M134.22 268.44C208.348 268.44 268.44 208.348 268.44 134.22C268.44 60.0923 208.348 0 134.22 0C60.0923 0 0 60.0923 0 134.22C0 208.348 60.0923 268.44 134.22 268.44Z" fill="black"/>
<path d="M228.25 90.15H202.56C200.87 84.7 197.86 79.55 193.53 75.21C189.28 70.96 184.16 67.88 178.59 66.16V40.49H160.34V65.36C153.9 66.76 148.01 69.95 143.26 74.7L131.1 86.86C127.54 90.42 127.54 96.2 131.1 99.77C134.66 103.33 140.44 103.33 144.01 99.77L156.17 87.61C159.33 84.45 163.6 82.75 168.17 82.8C172.84 82.86 177.26 84.75 180.63 88.12C187.51 95 187.74 105.98 181.14 112.58L155.57 138.15C148.97 144.75 137.99 144.52 131.11 137.64C127.55 134.08 121.77 134.08 118.2 137.64C114.64 141.2 114.64 146.98 118.2 150.55C125.29 157.64 134.58 161.2 143.81 161.2C152.79 161.2 161.71 157.83 168.48 151.06L194.05 125.49C198.9 120.64 201.99 114.69 203.37 108.41H228.27V90.15H228.25Z" fill="white"/>
<path d="M124.74 168.98L112.58 181.14C105.98 187.74 95.01 187.51 88.12 180.63C81.24 173.75 81.01 162.77 87.61 156.17L113.18 130.6C119.78 124 130.76 124.23 137.64 131.11C141.2 134.67 146.98 134.67 150.55 131.11C154.11 127.55 154.11 121.77 150.55 118.2C136.55 104.2 114 103.97 100.28 117.69L74.71 143.26C69.86 148.11 66.77 154.06 65.39 160.34H40.49V178.59H66.18C67.87 184.04 70.88 189.19 75.21 193.53C79.54 197.86 84.69 200.87 90.15 202.56V228.26H108.4V203.36C114.69 201.99 120.64 198.89 125.48 194.04L137.64 181.88C141.2 178.32 141.2 172.54 137.64 168.97C134.08 165.41 128.3 165.41 124.74 168.98Z" fill="white"/>
</svg>
