<svg width="51" height="50" viewBox="0 0 51 50" fill="none" xmlns="http://www.w3.org/2000/svg">
<ellipse cx="25.6816" cy="24.9999" rx="25" ry="24.9999" fill="#B4F9BA"/>
<path d="M21.0424 12.8037L25.7959 10.0586C25.9313 9.98048 26.0992 9.98048 26.2346 10.0586L38.7627 17.2917C38.8981 17.3698 38.9814 17.5143 38.9827 17.6705L38.9996 22.6453C38.9996 22.8027 38.9163 22.9486 38.7796 23.0267L34.0326 25.7678C33.741 25.9371 33.3753 25.7261 33.3739 25.3891L33.3583 20.9245C33.3583 20.7683 33.2738 20.6238 33.1384 20.5457L21.0424 13.5638C20.7495 13.3946 20.7495 12.9729 21.0424 12.8037Z" fill="#010101"/>
<path d="M17.9722 35.3374L13.22 32.5936C13.0833 32.5155 13 32.3709 13 32.2134V17.7472C13 17.591 13.0833 17.4465 13.2187 17.3671L17.5192 14.8641C17.6559 14.7847 17.8238 14.7847 17.9592 14.8641L22.7062 17.6053C22.9978 17.7745 22.9991 18.195 22.7075 18.3655L18.8495 20.6108C18.7141 20.6889 18.6308 20.8334 18.6308 20.9909V34.9586C18.6308 35.297 18.2651 35.5066 17.9722 35.3374Z" fill="#010101"/>
<path d="M38.9996 26.7245V32.2121C38.9996 32.3697 38.9163 32.5141 38.7796 32.5922L26.2515 39.8254C26.1161 39.9035 25.9495 39.9035 25.8142 39.8254L21.4967 37.3522C21.36 37.2742 21.2754 37.1284 21.2754 36.9708V31.4897C21.2754 31.1527 21.6399 30.9417 21.9327 31.1083L25.8064 33.3276C25.9417 33.4058 26.1083 33.4044 26.2437 33.3276L38.3397 26.3432C38.6325 26.174 38.9983 26.3848 38.9983 26.7232L38.9996 26.7245Z" fill="#010101"/>
</svg>
