<svg width="52" height="50" viewBox="0 0 52 50" fill="none" xmlns="http://www.w3.org/2000/svg">
<ellipse cx="26.0905" cy="24.9999" rx="25.4089" ry="24.9999" fill="#00A6C4"/>
<path d="M38.5396 16.7568L37.3994 17.8986C38.3057 19.3259 38.5908 21.1162 37.9695 22.8273C36.9331 25.733 33.7214 27.2642 30.7934 26.2264C30.3782 26.0712 29.9908 25.8897 29.6531 25.6555L26 29.3136L22.8131 26.096C21.3367 27.0812 19.4451 27.3666 17.6572 26.7445C14.6517 25.6555 13.0979 22.3604 14.1853 19.3771C14.3403 18.9101 14.5742 18.4943 14.8329 18.1065L13.4603 16.732L13.2016 17.1726C11.7641 19.5228 11.0023 22.2247 11.0001 24.9806C10.9737 33.2556 17.7099 40.0273 25.9736 40.0273H26C34.2637 40.0273 40.9751 33.3083 41 25.0318C40.9997 22.279 40.247 19.5787 38.8233 17.2238L38.5396 16.7568Z" fill="white"/>
<path d="M16.5187 19.7929C16.1149 20.3316 15.8968 20.9871 15.8975 21.6607C15.8975 23.3471 17.2701 24.7216 18.9541 24.7216C19.6544 24.7216 20.302 24.4873 20.8194 24.0731L16.5187 19.7929Z" fill="white"/>
<path d="M31.5186 23.8124C32.0112 24.1491 32.5813 24.3306 33.2289 24.3306C34.913 24.3306 36.2856 22.9561 36.2856 21.2697C36.2856 20.6476 36.1043 20.0504 35.7682 19.557L31.5186 23.8124Z" fill="white"/>
<path d="M26.0512 27.03L13.668 14.5772L14.1606 14.059C17.2173 10.8166 21.3879 9 25.8699 9H25.8962C30.4294 9 34.7828 10.9454 37.8131 14.3181L38.2794 14.8362L26.0512 27.03ZM15.6897 14.5772L26.0527 24.9806L36.2855 14.785C33.5387 12.036 29.8081 10.4521 25.9226 10.4521H25.8962C22.0355 10.4521 18.435 11.9057 15.6897 14.5772Z" fill="white"/>
</svg>
