<svg width="51" height="50" viewBox="0 0 51 50" fill="none" xmlns="http://www.w3.org/2000/svg">
<ellipse cx="25.6816" cy="24.9999" rx="25" ry="24.9999" fill="white"/>
<path d="M14.072 13.2015C14.072 13.2799 14.0455 13.3517 13.9858 13.4039C13.9261 13.4562 13.8466 13.4888 13.7472 13.4888C13.6477 13.4888 13.5616 13.4627 13.5085 13.4039C13.4489 13.3517 13.4224 13.2799 13.4224 13.2015C13.4224 13.1231 13.4489 13.0513 13.5085 12.9991C13.5682 12.9468 13.6477 12.9142 13.7472 12.9142C13.8466 12.9142 13.9328 12.9403 13.9858 12.9991C14.0455 13.0513 14.072 13.1166 14.072 13.2015Z" fill="black"/>
<path d="M17.1474 12.3918H15.3179V12H17.1474V12.3918Z" fill="black"/>
<path d="M19.6464 12.3918H17.8169V12H19.6464V12.3918Z" fill="black"/>
<path d="M22.1386 12.3918H20.3091V12H22.1386V12.3918Z" fill="black"/>
<path d="M24.6313 12.3918H22.8018V12H24.6313V12.3918Z" fill="black"/>
<path d="M27.1234 12.3918H25.2939V12H27.1234V12.3918Z" fill="black"/>
<path d="M29.623 12.3918H27.7935V12H29.623V12.3918Z" fill="black"/>
<path d="M32.1147 12.3918H30.2852V12H32.1147V12.3918Z" fill="black"/>
<path d="M34.6073 12.3918H32.7778V12H34.6073V12.3918Z" fill="black"/>
<path d="M37.0995 12.3918H35.27V12H37.0995V12.3918Z" fill="black"/>
<path d="M39.0148 13.2015C39.0148 13.2799 38.9883 13.3517 38.9287 13.4039C38.869 13.4562 38.7895 13.4888 38.69 13.4888C38.5906 13.4888 38.5044 13.4627 38.4514 13.4039C38.3984 13.3452 38.3652 13.2799 38.3652 13.2015C38.3652 13.1231 38.3917 13.0513 38.4514 12.9991C38.5111 12.9468 38.5906 12.9142 38.69 12.9142C38.7895 12.9142 38.8756 12.9403 38.9287 12.9991C38.9817 13.0578 39.0148 13.1166 39.0148 13.2015Z" fill="black"/>
<path d="M13.9595 14.8928V17.4591C13.9595 17.6093 13.9528 17.6942 13.9462 17.7203C13.9329 17.7595 13.9064 17.7987 13.8733 17.8248C13.8335 17.8574 13.7871 17.8705 13.7407 17.8705C13.6877 17.8705 13.6479 17.8574 13.6081 17.8248C13.5684 17.7921 13.5419 17.7595 13.5352 17.7138C13.5286 17.6876 13.522 17.6028 13.522 17.4526V14.8928C13.522 14.7426 13.5286 14.6577 13.5352 14.6316C13.5485 14.5924 13.575 14.5532 13.6081 14.5271C13.6479 14.4945 13.6943 14.4814 13.7407 14.4814C13.7871 14.4814 13.8335 14.4945 13.8733 14.5271C13.9131 14.5598 13.9396 14.5924 13.9462 14.6381C13.9528 14.6643 13.9595 14.7491 13.9595 14.8928Z" fill="black"/>
<path d="M16.5642 16.9889C16.5642 17.0673 16.5376 17.1391 16.478 17.1913C16.4183 17.2436 16.3388 17.2762 16.2394 17.2762C16.1399 17.2762 16.0538 17.2501 16.0007 17.1913C15.9411 17.1391 15.9146 17.0673 15.9146 16.9889C15.9146 16.9106 15.9411 16.8387 16.0007 16.7865C16.0604 16.7342 16.1399 16.7016 16.2394 16.7016C16.3388 16.7016 16.425 16.7277 16.478 16.7865C16.5376 16.8387 16.5642 16.904 16.5642 16.9889Z" fill="black"/>
<path d="M19.6464 16.1792H17.8169V15.7874H19.6464V16.1792Z" fill="black"/>
<path d="M22.1386 16.1792H20.3091V15.7874H22.1386V16.1792Z" fill="black"/>
<path d="M24.6313 16.1792H22.8018V15.7874H24.6313V16.1792Z" fill="black"/>
<path d="M27.1234 16.1792H25.2939V15.7874H27.1234V16.1792Z" fill="black"/>
<path d="M29.623 16.1792H27.7935V15.7874H29.623V16.1792Z" fill="black"/>
<path d="M32.1147 16.1792H30.2852V15.7874H32.1147V16.1792Z" fill="black"/>
<path d="M34.6073 16.1792H32.7778V15.7874H34.6073V16.1792Z" fill="black"/>
<path d="M36.5168 16.9889C36.5168 17.0673 36.4903 17.1391 36.4306 17.1913C36.371 17.2436 36.2914 17.2762 36.192 17.2762C36.0926 17.2762 36.0064 17.2501 35.9534 17.1913C35.9003 17.1326 35.8672 17.0673 35.8672 16.9889C35.8672 16.9106 35.8937 16.8387 35.9534 16.7865C36.013 16.7342 36.0926 16.7016 36.192 16.7016C36.2914 16.7016 36.3776 16.7277 36.4306 16.7865C36.4836 16.8453 36.5168 16.904 36.5168 16.9889Z" fill="black"/>
<path d="M38.9023 14.8928V17.4591C38.9023 17.6093 38.8957 17.6942 38.8891 17.7203C38.8758 17.7595 38.8493 17.7987 38.8162 17.8248C38.7764 17.8574 38.73 17.8705 38.6836 17.8705C38.6306 17.8705 38.5908 17.8574 38.551 17.8248C38.5112 17.7921 38.4847 17.7595 38.4781 17.7138C38.4715 17.6876 38.4648 17.6028 38.4648 17.4526V14.8928C38.4648 14.7426 38.4715 14.6577 38.4781 14.6316C38.4914 14.5924 38.5179 14.5532 38.551 14.5271C38.5908 14.4945 38.6372 14.4814 38.6836 14.4814C38.73 14.4814 38.7764 14.4945 38.8162 14.5271C38.8559 14.5598 38.8824 14.5924 38.8891 14.6381C38.8957 14.6643 38.9023 14.7491 38.9023 14.8928Z" fill="black"/>
<path d="M13.9595 18.6802V21.2465C13.9595 21.3967 13.9528 21.4816 13.9462 21.5077C13.9329 21.5469 13.9064 21.586 13.8733 21.6122C13.8335 21.6448 13.7871 21.6579 13.7407 21.6579C13.6877 21.6579 13.6479 21.6448 13.6081 21.6122C13.5684 21.5795 13.5419 21.5469 13.5352 21.5011C13.5286 21.475 13.522 21.3901 13.522 21.2399V18.6737C13.522 18.5235 13.5286 18.4386 13.5352 18.4125C13.5485 18.3733 13.575 18.3341 13.6081 18.308C13.6479 18.2753 13.6943 18.2623 13.7407 18.2623C13.7871 18.2623 13.8335 18.2753 13.8733 18.308C13.9131 18.3406 13.9396 18.3733 13.9462 18.419C13.9528 18.4516 13.9595 18.5365 13.9595 18.6802Z" fill="black"/>
<path d="M16.4512 18.6802V21.2465C16.4512 21.3967 16.4445 21.4816 16.4379 21.5077C16.4246 21.5469 16.3981 21.586 16.365 21.6122C16.3252 21.6448 16.2788 21.6579 16.2324 21.6579C16.1794 21.6579 16.1396 21.6448 16.0998 21.6122C16.0601 21.5795 16.0336 21.5469 16.0269 21.5011C16.0203 21.475 16.0137 21.3901 16.0137 21.2399V18.6737C16.0137 18.5235 16.0203 18.4386 16.0269 18.4125C16.0402 18.3733 16.0667 18.3341 16.0998 18.308C16.1396 18.2753 16.186 18.2623 16.2324 18.2623C16.2788 18.2623 16.3252 18.2753 16.365 18.308C16.4048 18.3406 16.4313 18.3733 16.4379 18.419C16.4512 18.4516 16.4512 18.5365 16.4512 18.6802Z" fill="black"/>
<path d="M19.1891 19.7642L17.7706 18.9871C17.6976 18.9479 17.6512 18.9153 17.6314 18.8826C17.6048 18.85 17.5982 18.8108 17.5982 18.7651C17.5982 18.7063 17.6181 18.6541 17.6645 18.6084C17.7109 18.5627 17.7639 18.5431 17.8236 18.5431C17.8634 18.5431 17.9164 18.5626 17.9959 18.6018L20.0972 19.7642L17.9827 20.92C17.9031 20.9592 17.8501 20.9853 17.8103 20.9853C17.7507 20.9853 17.6976 20.9657 17.6512 20.92C17.6048 20.8743 17.585 20.822 17.585 20.7633C17.585 20.7175 17.5982 20.6784 17.6181 20.6457C17.6446 20.6131 17.691 20.5804 17.7573 20.5412L19.1891 19.7642Z" fill="black"/>
<path d="M23.6236 19.0785V19.3462C23.8092 19.2156 23.955 19.1308 24.0611 19.085C24.1672 19.0393 24.2666 19.0197 24.3594 19.0197C24.4986 19.0197 24.6378 19.072 24.777 19.1765C24.8698 19.2483 24.9162 19.3201 24.9162 19.392C24.9162 19.4507 24.8963 19.503 24.8499 19.5487C24.8035 19.5944 24.7571 19.614 24.6908 19.614C24.6378 19.614 24.5781 19.5879 24.5185 19.5356C24.4588 19.4834 24.4058 19.4573 24.3594 19.4573C24.2997 19.4573 24.2069 19.4964 24.0876 19.5683C23.9683 19.6401 23.8158 19.7576 23.6302 19.9078V20.5608H24.2533C24.3594 20.5608 24.4323 20.5804 24.4787 20.6196C24.5251 20.6588 24.545 20.711 24.545 20.7763C24.545 20.8416 24.5251 20.8939 24.4787 20.933C24.4323 20.9722 24.3594 20.9918 24.2533 20.9918H22.9342C22.8282 20.9918 22.7553 20.9722 22.7089 20.933C22.6625 20.8939 22.6426 20.8416 22.6426 20.7763C22.6426 20.711 22.6625 20.6588 22.7089 20.6196C22.7553 20.5804 22.8282 20.5608 22.9342 20.5608H23.1928V19.516H23.0337C22.9276 19.516 22.8547 19.4964 22.8083 19.4573C22.7619 19.4181 22.742 19.3658 22.742 19.3005C22.742 19.2352 22.7619 19.183 22.8083 19.1438C22.8547 19.1046 22.9276 19.085 23.0337 19.085H23.6236V19.0785Z" fill="black"/>
<path d="M27.1371 19.0785V20.5608C27.2299 20.5608 27.2962 20.5804 27.3426 20.6196C27.389 20.6588 27.4088 20.711 27.4088 20.7763C27.4088 20.8416 27.389 20.8939 27.3426 20.933C27.2962 20.9722 27.2232 20.9918 27.1172 20.9918H26.6996V20.8939C26.5736 20.9526 26.4543 20.9918 26.3416 21.0179C26.229 21.044 26.1163 21.0571 26.0168 21.0571C25.871 21.0571 25.7517 21.0245 25.6456 20.9657C25.5396 20.9069 25.46 20.822 25.3938 20.7176C25.3474 20.6392 25.3275 20.5478 25.3275 20.4302V19.503H25.2545C25.1485 19.503 25.0756 19.4834 25.0292 19.4442C24.9828 19.405 24.9629 19.3528 24.9629 19.2875C24.9629 19.2222 24.9828 19.1699 25.0292 19.1308C25.0756 19.0916 25.1485 19.072 25.2545 19.072H25.765V20.3584C25.765 20.4498 25.7848 20.5151 25.8312 20.5608C25.8776 20.6065 25.9439 20.6261 26.0367 20.6261C26.1229 20.6261 26.2223 20.6065 26.3218 20.5739C26.4212 20.5412 26.5471 20.4759 26.6996 20.3845V19.503H26.5405C26.4344 19.503 26.3615 19.4834 26.3151 19.4442C26.2687 19.405 26.2488 19.3528 26.2488 19.2875C26.2488 19.2222 26.2687 19.1699 26.3151 19.1308C26.3615 19.0916 26.4344 19.072 26.5405 19.072H27.1371V19.0785Z" fill="black"/>
<path d="M28.2571 19.0785V19.2222C28.3367 19.1569 28.4228 19.1046 28.5223 19.072C28.6217 19.0393 28.7211 19.0197 28.8338 19.0197C29.0923 19.0197 29.2978 19.0981 29.4503 19.2548C29.5696 19.3789 29.6292 19.5487 29.6292 19.7511V20.5543C29.722 20.5543 29.7883 20.5739 29.8347 20.6131C29.8811 20.6522 29.901 20.7045 29.901 20.7698C29.901 20.8351 29.8811 20.8873 29.8347 20.9265C29.7883 20.9657 29.7154 20.9853 29.6094 20.9853H29.2116C29.1056 20.9853 29.0327 20.9657 28.9863 20.9265C28.9399 20.8873 28.92 20.8351 28.92 20.7698C28.92 20.7045 28.9399 20.6522 28.9863 20.6131C29.0327 20.5739 29.099 20.5543 29.1918 20.5543V19.738C29.1918 19.6466 29.1652 19.5748 29.1122 19.5291C29.0459 19.4703 28.9465 19.4442 28.8139 19.4442C28.7145 19.4442 28.6217 19.4638 28.5488 19.503C28.4759 19.5421 28.3764 19.6205 28.2571 19.7511V20.5543C28.3698 20.5543 28.4427 20.5674 28.4759 20.5869C28.5488 20.6261 28.5819 20.6914 28.5819 20.7698C28.5819 20.8351 28.562 20.8873 28.5156 20.9265C28.4692 20.9657 28.3963 20.9853 28.2903 20.9853H27.7931C27.6871 20.9853 27.6142 20.9657 27.5678 20.9265C27.5214 20.8873 27.5015 20.8351 27.5015 20.7698C27.5015 20.6914 27.5346 20.6327 27.6009 20.5869C27.634 20.5674 27.707 20.5543 27.8196 20.5543V19.5095C27.7268 19.5095 27.6606 19.4899 27.6142 19.4507C27.5677 19.4115 27.5479 19.3593 27.5479 19.294C27.5479 19.2287 27.5677 19.1765 27.6142 19.1373C27.6606 19.0981 27.7335 19.0785 27.8395 19.0785H28.2571Z" fill="black"/>
<path d="M36.4038 18.6802V21.2465C36.4038 21.3967 36.3972 21.4816 36.3905 21.5077C36.3773 21.5469 36.3508 21.586 36.3176 21.6122C36.2779 21.6448 36.2315 21.6579 36.1851 21.6579C36.132 21.6579 36.0923 21.6448 36.0525 21.6122C36.0127 21.5795 35.9862 21.5469 35.9796 21.5011C35.9729 21.475 35.9663 21.3901 35.9663 21.2399V18.6737C35.9663 18.5235 35.9729 18.4386 35.9796 18.4125C35.9928 18.3733 36.0193 18.3341 36.0525 18.308C36.0923 18.2753 36.1387 18.2623 36.1851 18.2623C36.2315 18.2623 36.2779 18.2753 36.3176 18.308C36.3574 18.3406 36.3839 18.3733 36.3905 18.419C36.4038 18.4516 36.4038 18.5365 36.4038 18.6802Z" fill="black"/>
<path d="M38.9023 18.6802V21.2465C38.9023 21.3967 38.8957 21.4816 38.8891 21.5077C38.8758 21.5469 38.8493 21.586 38.8162 21.6122C38.7764 21.6448 38.73 21.6579 38.6836 21.6579C38.6306 21.6579 38.5908 21.6448 38.551 21.6122C38.5112 21.5795 38.4847 21.5469 38.4781 21.5011C38.4715 21.475 38.4648 21.3901 38.4648 21.2399V18.6737C38.4648 18.5235 38.4715 18.4386 38.4781 18.4125C38.4914 18.3733 38.5179 18.3341 38.551 18.308C38.5908 18.2753 38.6372 18.2623 38.6836 18.2623C38.73 18.2623 38.7764 18.2753 38.8162 18.308C38.8559 18.3406 38.8824 18.3733 38.8891 18.419C38.8957 18.4516 38.9023 18.5365 38.9023 18.6802Z" fill="black"/>
<path d="M13.9595 22.4676V25.0339C13.9595 25.184 13.9528 25.2689 13.9462 25.2951C13.9329 25.3342 13.9064 25.3734 13.8733 25.3995C13.8335 25.4322 13.7871 25.4452 13.7407 25.4452C13.6877 25.4452 13.6479 25.4322 13.6081 25.3995C13.5684 25.3669 13.5419 25.3342 13.5352 25.2885C13.5286 25.2624 13.522 25.1775 13.522 25.0273V22.461C13.522 22.3109 13.5286 22.226 13.5352 22.1998C13.5485 22.1607 13.575 22.1215 13.6081 22.0954C13.6479 22.0627 13.6943 22.0497 13.7407 22.0497C13.7871 22.0497 13.8335 22.0627 13.8733 22.0954C13.9131 22.128 13.9396 22.1607 13.9462 22.2064C13.9528 22.239 13.9595 22.3239 13.9595 22.4676Z" fill="black"/>
<path d="M16.4512 22.4676V25.0339C16.4512 25.184 16.4445 25.2689 16.4379 25.2951C16.4246 25.3342 16.3981 25.3734 16.365 25.3995C16.3252 25.4322 16.2788 25.4452 16.2324 25.4452C16.1794 25.4452 16.1396 25.4322 16.0998 25.3995C16.0601 25.3669 16.0336 25.3342 16.0269 25.2885C16.0203 25.2624 16.0137 25.1775 16.0137 25.0273V22.461C16.0137 22.3109 16.0203 22.226 16.0269 22.1998C16.0402 22.1607 16.0667 22.1215 16.0998 22.0954C16.1396 22.0627 16.186 22.0497 16.2324 22.0497C16.2788 22.0497 16.3252 22.0627 16.365 22.0954C16.4048 22.128 16.4313 22.1607 16.4379 22.2064C16.4512 22.239 16.4512 22.3239 16.4512 22.4676Z" fill="black"/>
<path d="M36.4038 22.4676V25.0339C36.4038 25.184 36.3972 25.2689 36.3905 25.2951C36.3773 25.3342 36.3508 25.3734 36.3176 25.3995C36.2779 25.4322 36.2315 25.4452 36.1851 25.4452C36.132 25.4452 36.0923 25.4322 36.0525 25.3995C36.0127 25.3669 35.9862 25.3342 35.9796 25.2885C35.9729 25.2624 35.9663 25.1775 35.9663 25.0273V22.461C35.9663 22.3109 35.9729 22.226 35.9796 22.1998C35.9928 22.1607 36.0193 22.1215 36.0525 22.0954C36.0923 22.0627 36.1387 22.0497 36.1851 22.0497C36.2315 22.0497 36.2779 22.0627 36.3176 22.0954C36.3574 22.128 36.3839 22.1607 36.3905 22.2064C36.4038 22.239 36.4038 22.3239 36.4038 22.4676Z" fill="black"/>
<path d="M38.9023 22.4676V25.0339C38.9023 25.184 38.8957 25.2689 38.8891 25.2951C38.8758 25.3342 38.8493 25.3734 38.8162 25.3995C38.7764 25.4322 38.73 25.4452 38.6836 25.4452C38.6306 25.4452 38.5908 25.4322 38.551 25.3995C38.5112 25.3669 38.4847 25.3342 38.4781 25.2885C38.4715 25.2624 38.4648 25.1775 38.4648 25.0273V22.461C38.4648 22.3109 38.4715 22.226 38.4781 22.1998C38.4914 22.1607 38.5179 22.1215 38.551 22.0954C38.5908 22.0627 38.6372 22.0497 38.6836 22.0497C38.73 22.0497 38.7764 22.0627 38.8162 22.0954C38.8559 22.128 38.8824 22.1607 38.8891 22.2064C38.8957 22.239 38.9023 22.3239 38.9023 22.4676Z" fill="black"/>
<path d="M13.9595 26.255V28.8213C13.9595 28.9715 13.9528 29.0564 13.9462 29.0825C13.9329 29.1217 13.9064 29.1608 13.8733 29.187C13.8335 29.2196 13.7871 29.2327 13.7407 29.2327C13.6877 29.2327 13.6479 29.2196 13.6081 29.187C13.5684 29.1543 13.5419 29.1217 13.5352 29.0759C13.5286 29.0498 13.522 28.9649 13.522 28.8147V26.2485C13.522 26.0983 13.5286 26.0134 13.5352 25.9873C13.5485 25.9481 13.575 25.9089 13.6081 25.8828C13.6479 25.8501 13.6943 25.8371 13.7407 25.8371C13.7871 25.8371 13.8335 25.8501 13.8733 25.8828C13.9131 25.9154 13.9396 25.9481 13.9462 25.9938C13.9528 26.0264 13.9595 26.1113 13.9595 26.255Z" fill="black"/>
<path d="M15.4839 25.9612H16.0473L15.9081 26.9929C15.9015 27.0451 15.8882 27.0843 15.8617 27.1039C15.8352 27.1235 15.8087 27.1366 15.7689 27.1366C15.7291 27.1366 15.7026 27.1235 15.6761 27.1039C15.6562 27.0843 15.6363 27.0451 15.6297 26.9929L15.4839 25.9612ZM16.392 25.9612H16.9554L16.8162 26.9929C16.8096 27.0451 16.7964 27.0843 16.7698 27.1039C16.75 27.1235 16.7168 27.1366 16.677 27.1366C16.6373 27.1366 16.6108 27.1235 16.5842 27.1039C16.5644 27.0843 16.5445 27.0451 16.5378 26.9929L16.392 25.9612Z" fill="black"/>
<path d="M19.6464 27.5414H17.8169V27.1496H19.6464V27.5414Z" fill="black"/>
<path d="M22.1386 27.5414H20.3091V27.1496H22.1386V27.5414Z" fill="black"/>
<path d="M24.6313 27.5414H22.8018V27.1496H24.6313V27.5414Z" fill="black"/>
<path d="M27.1234 27.5414H25.2939V27.1496H27.1234V27.5414Z" fill="black"/>
<path d="M29.623 27.5414H27.7935V27.1496H29.623V27.5414Z" fill="black"/>
<path d="M32.1147 27.5414H30.2852V27.1496H32.1147V27.5414Z" fill="black"/>
<path d="M34.6073 27.5414H32.7778V27.1496H34.6073V27.5414Z" fill="black"/>
<path d="M35.8999 25.9285H36.4633L36.3241 27.0386C36.3175 27.0974 36.3042 27.1365 36.2777 27.1627C36.2512 27.1823 36.2247 27.1953 36.1849 27.1953C36.1518 27.1953 36.1186 27.1823 36.0988 27.1627C36.0722 27.1431 36.059 27.1039 36.0524 27.0451L35.8999 25.9285Z" fill="black"/>
<path d="M38.9023 26.255V28.8213C38.9023 28.9715 38.8957 29.0564 38.8891 29.0825C38.8758 29.1217 38.8493 29.1608 38.8162 29.187C38.7764 29.2196 38.73 29.2327 38.6836 29.2327C38.6306 29.2327 38.5908 29.2196 38.551 29.187C38.5112 29.1543 38.4847 29.1217 38.4781 29.0759C38.4715 29.0498 38.4648 28.9649 38.4648 28.8147V26.2485C38.4648 26.0983 38.4715 26.0134 38.4781 25.9873C38.4914 25.9481 38.5179 25.9089 38.551 25.8828C38.5908 25.8501 38.6372 25.8371 38.6836 25.8371C38.73 25.8371 38.7764 25.8501 38.8162 25.8828C38.8559 25.9154 38.8824 25.9481 38.8891 25.9938C38.8957 26.0264 38.9023 26.1113 38.9023 26.255Z" fill="black"/>
<path d="M9.08027 32.1385C9.08027 32.2168 9.05375 32.2887 8.9941 32.3409C8.93444 32.3932 8.8549 32.4258 8.75547 32.4258C8.65604 32.4258 8.56986 32.3997 8.51684 32.3409C8.45718 32.2887 8.43066 32.2168 8.43066 32.1385C8.43066 32.0601 8.45718 31.9883 8.51684 31.9361C8.57649 31.8838 8.65604 31.8512 8.75547 31.8512C8.8549 31.8512 8.94107 31.8773 8.9941 31.9361C9.05375 31.9883 9.08027 32.0536 9.08027 32.1385Z" fill="black"/>
<path d="M12.163 31.3288H10.3335V30.937H12.163V31.3288Z" fill="black"/>
<path d="M13.7338 30.186L13.2168 30.7933C13.1704 30.8521 13.1306 30.8848 13.1041 30.9043C13.0776 30.9239 13.0444 30.9305 13.0047 30.9305C12.945 30.9305 12.892 30.9109 12.8456 30.8652C12.7992 30.8195 12.7793 30.7672 12.7793 30.7084C12.7793 30.6562 12.8124 30.5974 12.8787 30.5191L13.7338 29.5004L14.5955 30.5191C14.6353 30.5713 14.6618 30.604 14.6751 30.6301C14.6883 30.6562 14.695 30.6823 14.695 30.7084C14.695 30.7672 14.6751 30.8195 14.6287 30.8652C14.5823 30.9109 14.5359 30.9305 14.4762 30.9305C14.4365 30.9305 14.4033 30.9239 14.3768 30.9043C14.3503 30.8848 14.3105 30.8521 14.2641 30.7999L13.7338 30.186Z" fill="black"/>
<path d="M17.1474 31.3288H15.3179V30.937H17.1474V31.3288Z" fill="black"/>
<path d="M19.6464 31.3288H17.8169V30.937H19.6464V31.3288Z" fill="black"/>
<path d="M22.1386 31.3288H20.3091V30.937H22.1386V31.3288Z" fill="black"/>
<path d="M24.6313 31.3288H22.8018V30.937H24.6313V31.3288Z" fill="black"/>
<path d="M27.1234 31.3288H25.2939V30.937H27.1234V31.3288Z" fill="black"/>
<path d="M29.623 31.3288H27.7935V30.937H29.623V31.3288Z" fill="black"/>
<path d="M32.1147 31.3288H30.2852V30.937H32.1147V31.3288Z" fill="black"/>
<path d="M34.6073 31.3288H32.7778V30.937H34.6073V31.3288Z" fill="black"/>
<path d="M37.0995 31.3288H35.27V30.937H37.0995V31.3288Z" fill="black"/>
<path d="M38.6708 30.186L38.1538 30.7933C38.1074 30.8521 38.0676 30.8848 38.0411 30.9043C38.0146 30.9239 37.9815 30.9305 37.9417 30.9305C37.882 30.9305 37.829 30.9109 37.7826 30.8652C37.7362 30.8195 37.7163 30.7672 37.7163 30.7084C37.7163 30.6562 37.7495 30.5974 37.8157 30.5191L38.6708 29.5004L39.5326 30.5191C39.5723 30.5713 39.5988 30.604 39.6121 30.6301C39.6253 30.6562 39.632 30.6823 39.632 30.7084C39.632 30.7672 39.6121 30.8195 39.5657 30.8652C39.5193 30.9109 39.4729 30.9305 39.4132 30.9305C39.3735 30.9305 39.3403 30.9239 39.3138 30.9043C39.2873 30.8848 39.2475 30.8521 39.2011 30.7999L38.6708 30.186Z" fill="black"/>
<path d="M42.0912 31.3288H40.2617V30.937H42.0912V31.3288Z" fill="black"/>
<path d="M44.0002 32.1385C44.0002 32.2168 43.9737 32.2887 43.914 32.3409C43.8544 32.3932 43.7748 32.4258 43.6754 32.4258C43.576 32.4258 43.4898 32.3997 43.4368 32.3409C43.3837 32.2821 43.3506 32.2168 43.3506 32.1385C43.3506 32.0601 43.3771 31.9883 43.4368 31.9361C43.4964 31.8838 43.576 31.8512 43.6754 31.8512C43.7748 31.8512 43.861 31.8773 43.914 31.9361C43.967 31.9948 44.0002 32.0536 44.0002 32.1385Z" fill="black"/>
<path d="M8.96776 33.8298V36.3961C8.96776 36.5463 8.96113 36.6312 8.9545 36.6573C8.94125 36.6965 8.91473 36.7356 8.88159 36.7618C8.84182 36.7944 8.79542 36.8075 8.74902 36.8075C8.69599 36.8075 8.65622 36.7944 8.61645 36.7618C8.57667 36.7291 8.55016 36.6965 8.54353 36.6507C8.5369 36.6246 8.53027 36.5397 8.53027 36.3895V33.8233C8.53027 33.6731 8.5369 33.5882 8.54353 33.5621C8.55679 33.5229 8.5833 33.4837 8.61645 33.4576C8.65622 33.4249 8.70262 33.4119 8.74902 33.4119C8.79542 33.4119 8.84182 33.4249 8.88159 33.4576C8.92136 33.4902 8.94788 33.5229 8.9545 33.5686C8.96776 33.6012 8.96776 33.6861 8.96776 33.8298Z" fill="black"/>
<path d="M12.3483 35.3513V35.9324C12.1495 36.0369 11.9837 36.1087 11.8445 36.1479C11.7053 36.1871 11.5529 36.2067 11.3938 36.2067C11.1684 36.2067 10.9629 36.174 10.7707 36.1087C10.6183 36.0565 10.5056 35.9912 10.4194 35.9194C10.3332 35.841 10.2537 35.73 10.1808 35.5798C10.1079 35.4296 10.0747 35.2598 10.0747 35.0705V34.757C10.0747 34.4697 10.1609 34.215 10.3399 33.9865C10.5785 33.6796 10.9033 33.5294 11.3143 33.5294C11.4336 33.5294 11.5463 33.5424 11.6523 33.562C11.7584 33.5882 11.8644 33.6208 11.9572 33.6665C12.0169 33.6143 12.0699 33.5882 12.1296 33.5882C12.1959 33.5882 12.2489 33.6077 12.2887 33.6535C12.3284 33.6992 12.3483 33.771 12.3483 33.8755V34.1563C12.3483 34.2607 12.3284 34.3326 12.2887 34.3783C12.2489 34.424 12.1959 34.4436 12.1296 34.4436C12.0765 34.4436 12.0368 34.4305 11.997 34.3979C11.9705 34.3783 11.944 34.3326 11.9241 34.2607C11.9042 34.1889 11.8843 34.1367 11.8578 34.1171C11.818 34.0779 11.7517 34.0387 11.6523 34.0061C11.5529 33.9734 11.4468 33.9604 11.3275 33.9604C11.1552 33.9604 11.0027 33.993 10.8768 34.0648C10.784 34.1171 10.7044 34.2085 10.6249 34.3391C10.5453 34.4697 10.5122 34.6068 10.5122 34.757V35.0705C10.5122 35.299 10.5785 35.4753 10.7177 35.5994C10.8569 35.7169 11.069 35.7822 11.3673 35.7822C11.5661 35.7822 11.7517 35.7431 11.9175 35.6712V35.3643H11.4733C11.3673 35.3643 11.2944 35.3447 11.248 35.3055C11.2016 35.2664 11.1817 35.2141 11.1817 35.1488C11.1817 35.0835 11.2016 35.0313 11.248 34.9921C11.2944 34.9529 11.3673 34.9333 11.4733 34.9333H12.2489C12.355 34.9333 12.4279 34.9529 12.4743 34.9921C12.5207 35.0313 12.5406 35.0835 12.5406 35.1488C12.5406 35.2011 12.5273 35.2468 12.4942 35.2794C12.4544 35.3055 12.408 35.3317 12.3483 35.3513Z" fill="black"/>
<path d="M14.8739 35.2207C14.8739 35.3839 14.8275 35.5472 14.7347 35.7039C14.6419 35.8606 14.5027 35.9847 14.3171 36.0761C14.1315 36.1675 13.9393 36.2132 13.7404 36.2132C13.5416 36.2132 13.3493 36.1675 13.1704 36.0761C12.9848 35.9847 12.8522 35.8606 12.7528 35.7039C12.66 35.5472 12.6069 35.3839 12.6069 35.2141C12.6069 35.0444 12.6533 34.8746 12.7528 34.7048C12.8522 34.5416 12.9914 34.411 13.1704 34.313C13.3493 34.2151 13.5416 34.1693 13.7404 34.1693C13.9393 34.1693 14.1315 34.2151 14.3171 34.313C14.5027 34.411 14.6419 34.5416 14.7347 34.7048C14.8275 34.8746 14.8739 35.0444 14.8739 35.2207ZM14.4364 35.2207C14.4364 35.0835 14.3834 34.9529 14.284 34.8354C14.1448 34.6787 13.9658 34.6003 13.7404 34.6003C13.5416 34.6003 13.3759 34.6656 13.2433 34.7897C13.1107 34.9138 13.0444 35.0574 13.0444 35.2207C13.0444 35.3578 13.1107 35.4819 13.2433 35.5994C13.3759 35.717 13.5416 35.7757 13.7338 35.7757C13.9327 35.7757 14.0984 35.717 14.2309 35.5994C14.3701 35.4884 14.4364 35.3578 14.4364 35.2207ZM13.5151 33.66C13.5151 33.7253 13.4952 33.7775 13.4488 33.8233C13.4024 33.869 13.3493 33.8886 13.2831 33.8886C13.2168 33.8886 13.1637 33.869 13.1173 33.8233C13.0709 33.7775 13.0511 33.7253 13.0511 33.66C13.0511 33.5947 13.0709 33.5425 13.1173 33.4968C13.1637 33.451 13.2168 33.4315 13.2831 33.4315C13.3493 33.4315 13.4024 33.451 13.4488 33.4968C13.4952 33.5425 13.5151 33.6012 13.5151 33.66ZM14.4232 33.66C14.4232 33.7253 14.4033 33.7775 14.3569 33.8233C14.3105 33.869 14.2575 33.8886 14.1912 33.8886C14.1249 33.8886 14.0719 33.869 14.0255 33.8233C13.9791 33.7775 13.9592 33.7253 13.9592 33.66C13.9592 33.5947 13.9791 33.5425 14.0255 33.4968C14.0719 33.451 14.1249 33.4315 14.1912 33.4315C14.2575 33.4315 14.3105 33.451 14.3569 33.4968C14.4033 33.549 14.4232 33.6012 14.4232 33.66Z" fill="black"/>
<path d="M16.1397 34.2281V34.4958C16.3253 34.3652 16.4712 34.2804 16.5772 34.2346C16.6833 34.1889 16.7827 34.1693 16.8755 34.1693C17.0147 34.1693 17.1539 34.2216 17.2931 34.3261C17.3859 34.3979 17.4323 34.4697 17.4323 34.5416C17.4323 34.6003 17.4124 34.6526 17.366 34.6983C17.3196 34.744 17.2732 34.7636 17.2069 34.7636C17.1539 34.7636 17.0942 34.7375 17.0346 34.6852C16.9749 34.633 16.9219 34.6069 16.8755 34.6069C16.8158 34.6069 16.723 34.646 16.6037 34.7179C16.4844 34.7897 16.332 34.9072 16.1464 35.0574V35.7104H16.7694C16.8755 35.7104 16.9484 35.73 16.9948 35.7692C17.0412 35.8084 17.0611 35.8606 17.0611 35.9259C17.0611 35.9912 17.0412 36.0435 16.9948 36.0826C16.9484 36.1218 16.8755 36.1414 16.7694 36.1414H15.4504C15.3443 36.1414 15.2714 36.1218 15.225 36.0826C15.1786 36.0435 15.1587 35.9912 15.1587 35.9259C15.1587 35.8606 15.1786 35.8084 15.225 35.7692C15.2714 35.73 15.3443 35.7104 15.4504 35.7104H15.7089V34.6656H15.5498C15.4437 34.6656 15.3708 34.646 15.3244 34.6069C15.278 34.5677 15.2581 34.5154 15.2581 34.4501C15.2581 34.3848 15.278 34.3326 15.3244 34.2934C15.3708 34.2542 15.4437 34.2346 15.5498 34.2346H16.1397V34.2281Z" fill="black"/>
<path d="M18.944 33.4119V35.7104H19.4677C19.5737 35.7104 19.6466 35.73 19.693 35.7692C19.7394 35.8084 19.7593 35.8606 19.7593 35.9259C19.7593 35.9912 19.7394 36.0435 19.693 36.0826C19.6466 36.1218 19.5737 36.1414 19.4677 36.1414H17.9762C17.8702 36.1414 17.7973 36.1218 17.7509 36.0826C17.7045 36.0435 17.6846 35.9912 17.6846 35.9259C17.6846 35.8606 17.7045 35.8084 17.7509 35.7692C17.7973 35.73 17.8702 35.7104 17.9762 35.7104H18.4999V33.8428H18.1486C18.0425 33.8428 17.9696 33.8233 17.9232 33.7841C17.8768 33.7449 17.8569 33.6927 17.8569 33.6274C17.8569 33.5621 17.8768 33.5098 17.9232 33.4706C17.9696 33.4315 18.0425 33.4119 18.1486 33.4119H18.944Z" fill="black"/>
<path d="M21.4357 34.2281V35.7104H21.9594C22.0654 35.7104 22.1383 35.73 22.1847 35.7692C22.2311 35.8084 22.251 35.8606 22.251 35.9259C22.251 35.9912 22.2311 36.0435 22.1847 36.0826C22.1383 36.1218 22.0654 36.1414 21.9594 36.1414H20.4679C20.3619 36.1414 20.289 36.1218 20.2426 36.0826C20.1962 36.0435 20.1763 35.9912 20.1763 35.9259C20.1763 35.8606 20.1962 35.8084 20.2426 35.7692C20.289 35.73 20.3619 35.7104 20.4679 35.7104H20.9916V34.6656H20.6403C20.5342 34.6656 20.4613 34.646 20.4149 34.6069C20.3685 34.5677 20.3486 34.5154 20.3486 34.4501C20.3486 34.3848 20.3685 34.3326 20.4149 34.2934C20.4613 34.2542 20.5342 34.2346 20.6403 34.2346H21.4357V34.2281ZM21.376 33.4119V33.869H20.8524V33.4119H21.376Z" fill="black"/>
<path d="M26.4209 34.0191V35.7039H26.7125C26.8186 35.7039 26.8915 35.7235 26.9379 35.7627C26.9843 35.8018 27.0042 35.8541 27.0042 35.9194C27.0042 35.9847 26.9843 36.0369 26.9379 36.0761C26.8915 36.1153 26.8186 36.1349 26.7125 36.1349H25.6851C25.579 36.1349 25.5061 36.1153 25.4597 36.0761C25.4133 36.0369 25.3934 35.9847 25.3934 35.9194C25.3934 35.8541 25.4133 35.8018 25.4597 35.7627C25.5061 35.7235 25.579 35.7039 25.6851 35.7039H25.9768V34.0191H25.4995V34.4305C25.4995 34.535 25.4796 34.6068 25.4398 34.6526C25.4001 34.6983 25.347 34.7179 25.2808 34.7179C25.2145 34.7179 25.1614 34.6983 25.1217 34.6526C25.0819 34.6068 25.062 34.535 25.062 34.4305V33.5882H27.329V34.4305C27.329 34.535 27.3091 34.6068 27.2693 34.6526C27.2296 34.6983 27.1765 34.7179 27.1103 34.7179C27.044 34.7179 26.9909 34.6983 26.9512 34.6526C26.9114 34.6068 26.8915 34.535 26.8915 34.4305V34.0191H26.4209Z" fill="black"/>
<path d="M29.8019 35.4035H28.0056C28.052 35.5145 28.1315 35.6059 28.2508 35.6777C28.3702 35.7496 28.5226 35.7822 28.7215 35.7822C28.8806 35.7822 29.0993 35.7496 29.3711 35.6777C29.4838 35.6516 29.5567 35.6386 29.6031 35.6386C29.6627 35.6386 29.7091 35.6582 29.7489 35.6973C29.7887 35.7365 29.8086 35.7888 29.8086 35.8541C29.8086 35.9128 29.7887 35.9585 29.7423 35.9977C29.6826 36.05 29.5434 36.1022 29.3247 36.1479C29.1059 36.1936 28.8938 36.2197 28.6883 36.2197C28.337 36.2197 28.0586 36.1218 27.8465 35.9259C27.6344 35.73 27.5283 35.4884 27.5283 35.2076C27.5283 34.9072 27.641 34.6591 27.8664 34.4697C28.0918 34.2803 28.3569 34.1824 28.6486 34.1824C28.8275 34.1824 28.9932 34.215 29.1391 34.2738C29.2849 34.3326 29.3976 34.4044 29.4705 34.4762C29.5699 34.5807 29.6561 34.7113 29.7224 34.8615C29.7688 34.966 29.7887 35.09 29.7887 35.2337V35.4035H29.8019ZM29.318 34.9725C29.2518 34.8484 29.1656 34.757 29.0529 34.6982C28.9402 34.6395 28.8143 34.6068 28.6684 34.6068C28.5226 34.6068 28.39 34.6395 28.284 34.6982C28.1779 34.757 28.0851 34.8484 28.0188 34.9725H29.318Z" fill="black"/>
<path d="M31.6707 34.7374C31.5978 34.6917 31.5249 34.6591 31.4453 34.6395C31.3658 34.6199 31.2862 34.6068 31.2001 34.6068C31.0277 34.6068 30.8951 34.6329 30.7957 34.6917C30.7493 34.7178 30.7294 34.744 30.7294 34.7701C30.7294 34.8027 30.7626 34.8354 30.8222 34.868C30.8686 34.8876 30.9681 34.9137 31.1272 34.9333C31.4188 34.9725 31.6177 35.0117 31.737 35.0509C31.8894 35.1031 32.0021 35.1815 32.0817 35.2794C32.1612 35.3774 32.201 35.4884 32.201 35.6059C32.201 35.7626 32.1347 35.8867 31.9955 35.9912C31.7966 36.1414 31.5381 36.2132 31.2266 36.2132C31.1006 36.2132 30.9813 36.2001 30.8753 36.1806C30.7692 36.161 30.6698 36.1283 30.577 36.0826C30.5571 36.1022 30.5306 36.1153 30.5107 36.1218C30.4842 36.1348 30.4643 36.1348 30.4378 36.1348C30.3715 36.1348 30.3118 36.1153 30.2721 36.0695C30.2323 36.0238 30.2124 35.952 30.2124 35.8475V35.7039C30.2124 35.5994 30.2323 35.5276 30.2721 35.4818C30.3118 35.4361 30.3649 35.4165 30.4311 35.4165C30.4842 35.4165 30.5306 35.4296 30.5637 35.4623C30.5969 35.4884 30.63 35.5406 30.6499 35.6124C30.7162 35.6712 30.7957 35.7104 30.8885 35.7365C30.9813 35.7626 31.0874 35.7822 31.2133 35.7822C31.4122 35.7822 31.5713 35.7496 31.684 35.6908C31.737 35.6582 31.7635 35.6255 31.7635 35.5929C31.7635 35.5341 31.7237 35.4884 31.6508 35.4557C31.5779 35.4165 31.4188 35.3904 31.1802 35.3643C30.8289 35.3251 30.5902 35.2598 30.4775 35.1553C30.3582 35.0509 30.2986 34.9268 30.2986 34.7766C30.2986 34.6199 30.3649 34.4958 30.4974 34.3913C30.6764 34.2542 30.915 34.1824 31.2001 34.1824C31.2995 34.1824 31.3989 34.1889 31.4917 34.2085C31.5845 34.2281 31.6773 34.2542 31.7569 34.2934C31.7834 34.2738 31.8099 34.2607 31.8298 34.2477C31.8497 34.2346 31.8762 34.2346 31.8961 34.2346C31.9557 34.2346 32.0088 34.2542 32.0485 34.2999C32.0883 34.3456 32.1082 34.4175 32.1082 34.5219V34.6264C32.1082 34.7178 32.0949 34.7831 32.075 34.8158C32.0286 34.8811 31.969 34.9137 31.8894 34.9137C31.8364 34.9137 31.79 34.9007 31.7502 34.868C31.7038 34.8288 31.684 34.7897 31.6707 34.7374Z" fill="black"/>
<path d="M33.5794 34.6591V35.521C33.5794 35.6125 33.5992 35.6778 33.639 35.7039C33.6987 35.7496 33.8047 35.7757 33.9572 35.7757C34.1826 35.7757 34.388 35.73 34.5737 35.632C34.6466 35.5929 34.7062 35.5798 34.746 35.5798C34.8057 35.5798 34.8521 35.5994 34.8918 35.6451C34.9316 35.6908 34.9581 35.7365 34.9581 35.8018C34.9581 35.8606 34.9382 35.9063 34.8918 35.9455C34.8189 36.0108 34.6863 36.0696 34.4809 36.1283C34.2754 36.1871 34.103 36.2132 33.9638 36.2132C33.692 36.2132 33.4866 36.1544 33.354 36.0369C33.2148 35.9194 33.1485 35.7822 33.1485 35.6125V34.6656H32.9894C32.8834 34.6656 32.8104 34.646 32.764 34.6068C32.7176 34.5677 32.6978 34.5154 32.6978 34.4501C32.6978 34.3848 32.7176 34.3326 32.764 34.2934C32.8104 34.2542 32.8834 34.2346 32.9894 34.2346H33.1485V33.8428C33.1485 33.7384 33.1684 33.6665 33.2082 33.6208C33.2479 33.5751 33.301 33.5555 33.3672 33.5555C33.4335 33.5555 33.4866 33.5751 33.5263 33.6208C33.5661 33.6665 33.586 33.7384 33.586 33.8428V34.2346H34.3947C34.5007 34.2346 34.5737 34.2542 34.6201 34.2934C34.6665 34.3326 34.6863 34.3848 34.6863 34.4501C34.6863 34.5154 34.6665 34.5677 34.6201 34.6068C34.5737 34.646 34.5007 34.6656 34.3947 34.6656H33.5794V34.6591Z" fill="black"/>
<path d="M35.741 34.2281V34.3718C35.8206 34.3065 35.9067 34.2542 36.0062 34.2216C36.1056 34.1889 36.205 34.1693 36.3177 34.1693C36.5762 34.1693 36.7817 34.2477 36.9342 34.4044C37.0535 34.5285 37.1131 34.6983 37.1131 34.9007V35.7039C37.2059 35.7039 37.2722 35.7235 37.3186 35.7627C37.365 35.8018 37.3849 35.8541 37.3849 35.9194C37.3849 35.9847 37.365 36.0369 37.3186 36.0761C37.2722 36.1153 37.1993 36.1349 37.0932 36.1349H36.6955C36.5895 36.1349 36.5166 36.1153 36.4702 36.0761C36.4238 36.0369 36.4039 35.9847 36.4039 35.9194C36.4039 35.8541 36.4238 35.8018 36.4702 35.7627C36.5166 35.7235 36.5828 35.7039 36.6756 35.7039V34.8876C36.6756 34.7962 36.6491 34.7244 36.5961 34.6787C36.5298 34.6199 36.4304 34.5938 36.2978 34.5938C36.1984 34.5938 36.1056 34.6134 36.0327 34.6526C35.9598 34.6917 35.8603 34.7701 35.741 34.9007V35.7039C35.8537 35.7039 35.9266 35.717 35.9598 35.7365C36.0327 35.7757 36.0658 35.841 36.0658 35.9194C36.0658 35.9847 36.0459 36.0369 35.9995 36.0761C35.9531 36.1153 35.8802 36.1349 35.7742 36.1349H35.277C35.171 36.1349 35.098 36.1153 35.0516 36.0761C35.0052 36.0369 34.9854 35.9847 34.9854 35.9194C34.9854 35.841 35.0185 35.7823 35.0848 35.7365C35.1179 35.717 35.1908 35.7039 35.3035 35.7039V34.6591C35.2107 34.6591 35.1444 34.6395 35.098 34.6003C35.0516 34.5611 35.0318 34.5089 35.0318 34.4436C35.0318 34.3783 35.0516 34.3261 35.098 34.2869C35.1444 34.2477 35.2174 34.2281 35.3234 34.2281H35.741Z" fill="black"/>
<path d="M39.7775 35.4035H37.9812C38.0276 35.5145 38.1071 35.6059 38.2264 35.6777C38.3457 35.7496 38.4982 35.7822 38.6971 35.7822C38.8561 35.7822 39.0749 35.7496 39.3467 35.6777C39.4593 35.6516 39.5323 35.6386 39.5787 35.6386C39.6383 35.6386 39.6847 35.6582 39.7245 35.6973C39.7643 35.7365 39.7841 35.7888 39.7841 35.8541C39.7841 35.9128 39.7643 35.9585 39.7179 35.9977C39.6582 36.05 39.519 36.1022 39.3003 36.1479C39.0815 36.1936 38.8694 36.2197 38.6639 36.2197C38.3126 36.2197 38.0342 36.1218 37.8221 35.9259C37.61 35.73 37.5039 35.4884 37.5039 35.2076C37.5039 34.9072 37.6166 34.6591 37.842 34.4697C38.0673 34.2803 38.3325 34.1824 38.6241 34.1824C38.8031 34.1824 38.9688 34.215 39.1147 34.2738C39.2605 34.3326 39.3732 34.4044 39.4461 34.4762C39.5455 34.5807 39.6317 34.7113 39.698 34.8615C39.7444 34.966 39.7643 35.09 39.7643 35.2337V35.4035H39.7775ZM39.2936 34.9725C39.2273 34.8484 39.1412 34.757 39.0285 34.6982C38.9158 34.6395 38.7899 34.6068 38.644 34.6068C38.4982 34.6068 38.3656 34.6395 38.2596 34.6982C38.1535 34.757 38.0607 34.8484 37.9944 34.9725H39.2936Z" fill="black"/>
<path d="M41.0632 34.6591V35.521C41.0632 35.6125 41.0831 35.6778 41.1229 35.7039C41.1826 35.7496 41.2886 35.7757 41.4411 35.7757C41.6665 35.7757 41.8719 35.73 42.0575 35.632C42.1305 35.5929 42.1901 35.5798 42.2299 35.5798C42.2895 35.5798 42.3359 35.5994 42.3757 35.6451C42.4155 35.6908 42.442 35.7365 42.442 35.8018C42.442 35.8606 42.4221 35.9063 42.3757 35.9455C42.3028 36.0108 42.1702 36.0696 41.9647 36.1283C41.7593 36.1871 41.5869 36.2132 41.4477 36.2132C41.1759 36.2132 40.9704 36.1544 40.8379 36.0369C40.7053 35.9194 40.6324 35.7822 40.6324 35.6125V34.6656H40.4733C40.3672 34.6656 40.2943 34.646 40.2479 34.6068C40.2015 34.5677 40.1816 34.5154 40.1816 34.4501C40.1816 34.3848 40.2015 34.3326 40.2479 34.2934C40.2943 34.2542 40.3672 34.2346 40.4733 34.2346H40.6324V33.8428C40.6324 33.7384 40.6523 33.6665 40.692 33.6208C40.7318 33.5751 40.7848 33.5555 40.8511 33.5555C40.9174 33.5555 40.9704 33.5751 41.0102 33.6208C41.05 33.6665 41.0699 33.7384 41.0699 33.8428V34.2346H41.8786C41.9846 34.2346 42.0575 34.2542 42.1039 34.2934C42.1503 34.3326 42.1702 34.3848 42.1702 34.4501C42.1702 34.5154 42.1503 34.5677 42.1039 34.6068C42.0575 34.646 41.9846 34.6656 41.8786 34.6656H41.0632V34.6591Z" fill="black"/>
<path d="M43.8877 33.8298V36.3961C43.8877 36.5463 43.8811 36.6312 43.8744 36.6573C43.8612 36.6965 43.8347 36.7356 43.8015 36.7618C43.7617 36.7944 43.7153 36.8075 43.6689 36.8075C43.6159 36.8075 43.5761 36.7944 43.5364 36.7618C43.4966 36.7291 43.4701 36.6965 43.4635 36.6507C43.4568 36.6246 43.4502 36.5397 43.4502 36.3895V33.8233C43.4502 33.6731 43.4568 33.5882 43.4635 33.5621C43.4767 33.5229 43.5032 33.4837 43.5364 33.4576C43.5761 33.4249 43.6225 33.4119 43.6689 33.4119C43.7153 33.4119 43.7617 33.4249 43.8015 33.4576C43.8413 33.4902 43.8678 33.5229 43.8744 33.5686C43.8877 33.6012 43.8877 33.6861 43.8877 33.8298Z" fill="black"/>
<path d="M8 37.3233H8.56343L8.42423 38.3551C8.4176 38.4073 8.40435 38.4465 8.37783 38.4661C8.35132 38.4857 8.3248 38.4987 8.28503 38.4987C8.24526 38.4987 8.21874 38.4857 8.19223 38.4661C8.17234 38.4465 8.15246 38.4073 8.14583 38.3551L8 37.3233ZM8.91475 37.3233H9.47818L9.33898 38.3551C9.33235 38.4073 9.31909 38.4465 9.29258 38.4661C9.27269 38.4857 9.23955 38.4987 9.19978 38.4987C9.16001 38.4987 9.13349 38.4857 9.10698 38.4661C9.08709 38.4465 9.06721 38.4073 9.06058 38.3551L8.91475 37.3233Z" fill="black"/>
<path d="M12.163 38.9036H10.3335V38.5118H12.163V38.9036Z" fill="black"/>
<path d="M14.6547 38.9036H12.8252V38.5118H14.6547V38.9036Z" fill="black"/>
<path d="M17.1474 38.9036H15.3179V38.5118H17.1474V38.9036Z" fill="black"/>
<path d="M19.6464 38.9036H17.8169V38.5118H19.6464V38.9036Z" fill="black"/>
<path d="M22.1386 38.9036H20.3091V38.5118H22.1386V38.9036Z" fill="black"/>
<path d="M24.6313 38.9036H22.8018V38.5118H24.6313V38.9036Z" fill="black"/>
<path d="M27.1234 38.9036H25.2939V38.5118H27.1234V38.9036Z" fill="black"/>
<path d="M29.623 38.9036H27.7935V38.5118H29.623V38.9036Z" fill="black"/>
<path d="M32.1147 38.9036H30.2852V38.5118H32.1147V38.9036Z" fill="black"/>
<path d="M34.6073 38.9036H32.7778V38.5118H34.6073V38.9036Z" fill="black"/>
<path d="M37.0995 38.9036H35.27V38.5118H37.0995V38.9036Z" fill="black"/>
<path d="M39.5985 38.9036H37.769V38.5118H39.5985V38.9036Z" fill="black"/>
<path d="M42.0912 38.9036H40.2617V38.5118H42.0912V38.9036Z" fill="black"/>
<path d="M43.3838 37.2907H43.9472L43.808 38.4008C43.8014 38.4595 43.7881 38.4987 43.7616 38.5248C43.7351 38.5444 43.7086 38.5575 43.6688 38.5575C43.6357 38.5575 43.6025 38.5444 43.5826 38.5248C43.5561 38.5053 43.5429 38.4661 43.5362 38.4073L43.3838 37.2907Z" fill="black"/>
</svg>
