<?xml version="1.0" encoding="UTF-8"?>
<svg id="Layer_1" data-name="Layer 1" xmlns="http://www.w3.org/2000/svg" viewBox="0 0 707.04 511.67">
  <defs>
    <style>
      .cls-1 {
        fill: #000;
        stroke-width: 0px;
      }
    </style>
  </defs>
  <path class="cls-1" d="M704.61,53.97c-5.08-8.77-16.39-11.66-25.06-6.4L214.24,330.18c-11.86-22.15-18.58-47.46-18.58-74.34,0-87.27,70.83-158.02,158.2-158.02,37.52,0,71.96,13.08,99.08,34.87l-98.99,67.87L611.21,52.21c5.54-3.19,7.44-10.28,4.23-15.8-3.38-5.84-11.01-7.57-16.59-3.75l-62.99,43.19C489.44,29.01,425.06,0,353.86,0,212.4,0,97.72,114.54,97.72,255.84c0,45.49,11.9,88.2,32.74,125.22L0,460.29l133.95-73.24c44.73,74.64,126.47,124.62,219.92,124.62,141.46,0,256.14-114.54,256.14-255.84v-30.55c0-23.93,9.72-54.55,44.18-72.99,2.95-1.58,4.02-5.28,2.35-8.19-1.64-2.83-5.26-3.81-8.09-2.17l-305.45,176.15c34.1-14.48,60.16-23.28,94.71-30.21,71.97-14.44,73.8,19.83,46.01,58.49-18.61,25.88-60.65,67.45-129.81,67.45-56.4,0-105.88-29.47-133.9-73.83L697.63,78.84c8.91-4.86,12.05-16.1,6.98-24.88Z"/>
</svg>