<svg width="51" height="50" viewBox="0 0 51 50" fill="none" xmlns="http://www.w3.org/2000/svg">
<ellipse cx="25.6816" cy="24.9999" rx="25" ry="24.9999" fill="white"/>
<path d="M34.5283 10C32.8148 9.99867 31.1708 10.6791 29.9572 11.8921C28.7435 13.105 28.0594 14.7512 28.055 16.4694V23.6424C27.3883 23.6875 26.7067 23.7159 26 23.7159C25.2933 23.7159 24.615 23.7443 23.945 23.7844V16.4694C23.9177 14.7661 23.2238 13.1418 22.013 11.947C20.8021 10.7521 19.1713 10.0824 17.4725 10.0824C15.7737 10.0824 14.1429 10.7521 12.932 11.947C11.7212 13.1418 11.0273 14.7661 11 16.4694V33.613C11.0273 35.3163 11.7212 36.9406 12.932 38.1355C14.1429 39.3303 15.7737 40 17.4725 40C19.1713 40 20.8021 39.3303 22.013 38.1355C23.2238 36.9406 23.9177 35.3163 23.945 33.613V26.44C24.6117 26.3949 25.2933 26.3665 26 26.3665C26.7067 26.3665 27.385 26.3381 28.055 26.298V33.613C28.0823 35.3163 28.7762 36.9406 29.987 38.1355C31.1979 39.3303 32.8287 40 34.5275 40C36.2263 40 37.8571 39.3303 39.068 38.1355C40.2788 36.9406 40.9727 35.3163 41 33.613V16.4694C40.9956 14.7515 40.3117 13.1055 39.0984 11.8926C37.8851 10.6798 36.2415 9.99911 34.5283 10ZM17.4717 12.6506C18.4829 12.6502 19.453 13.052 20.1692 13.7679C20.8853 14.4838 21.289 15.4554 21.2917 16.4694V24.0652C19.398 24.3404 17.5487 24.8646 15.7917 25.6245C15.0304 25.9595 14.3137 26.3884 13.6583 26.9013V16.4694C13.661 15.4565 14.0637 14.486 14.7785 13.7703C15.4932 13.0545 16.4616 12.6519 17.4717 12.6506ZM21.2917 33.613C21.2917 34.6289 20.8892 35.6032 20.1728 36.3216C19.4564 37.04 18.4848 37.4435 17.4717 37.4435C16.4585 37.4435 15.4869 37.04 14.7705 36.3216C14.0541 35.6032 13.6517 34.6289 13.6517 33.613V31.8933C13.6517 30.3742 14.8517 28.9352 16.8633 28.0394C18.2808 27.4262 19.7681 26.9901 21.2917 26.7409V33.613ZM34.5283 37.4318C33.5171 37.4323 32.547 37.0305 31.8308 36.3145C31.1147 35.5986 30.711 34.6271 30.7083 33.613V26.0172C32.602 25.7421 34.4513 25.2178 36.2083 24.4579C36.9696 24.1229 37.6863 23.694 38.3417 23.1811V33.613C38.339 34.6259 37.9363 35.5964 37.2215 36.3122C36.5068 37.0279 35.5384 37.4305 34.5283 37.4318ZM35.1367 22.033C33.7192 22.6462 32.2319 23.0823 30.7083 23.3315V16.4694C30.7083 15.4535 31.1108 14.4792 31.8272 13.7608C32.5436 13.0425 33.5152 12.6389 34.5283 12.6389C35.5415 12.6389 36.5131 13.0425 37.2295 13.7608C37.9459 14.4792 38.3483 15.4535 38.3483 16.4694V18.1891C38.3483 19.7016 37.1483 21.1405 35.1367 22.033Z" fill="url(#paint0_linear_62_125)"/>
<defs>
<linearGradient id="paint0_linear_62_125" x1="12.9" y1="37.7649" x2="39.0005" y2="11.6649" gradientUnits="userSpaceOnUse">
<stop stop-color="#00AEE9"/>
<stop offset="1" stop-color="#69FABD"/>
</linearGradient>
</defs>
</svg>
