<svg width="40" height="40" viewBox="0 0 40 40" fill="none" xmlns="http://www.w3.org/2000/svg">
<path d="M20 40C31.0457 40 40 31.0457 40 20C40 8.95431 31.0457 0 20 0C8.95431 0 0 8.95431 0 20C0 31.0457 8.95431 40 20 40Z" fill="url(#paint0_linear_3417_12939)"/>
<path d="M27.2056 7.5C24.2459 7.5 21.8314 9.91453 21.7535 12.8743V18.8716C21.2082 18.8716 20.6631 18.9495 20.0399 18.9495C19.4168 18.9495 18.8716 18.9495 18.3264 19.0274V12.8743C18.3264 9.91453 15.834 7.5 12.7964 7.57789C9.91453 7.57789 7.57789 9.99242 7.5 12.8743V27.2056C7.57789 30.1653 9.99241 32.5799 13.03 32.502C15.9898 32.4241 18.3264 30.0875 18.3264 27.2056V21.2082C18.8716 21.2082 19.4168 21.1304 20.0399 21.1304C20.6631 21.1304 21.2082 21.1304 21.7535 21.0525V27.1278C21.8314 30.0875 24.2459 32.502 27.2835 32.4241C30.2433 32.3463 32.5799 30.0096 32.5799 27.1278V12.8743C32.5799 9.91453 30.1653 7.5 27.2056 7.5ZM12.9522 9.68086C14.7436 9.68086 16.1456 11.0828 16.1456 12.8743V19.1832C14.5878 19.4168 13.03 19.8842 11.5502 20.5073C10.9271 20.8188 10.304 21.1304 9.75875 21.5977V12.8743C9.75875 11.1607 11.1607 9.68086 12.9522 9.68086ZM16.1456 27.2056C16.1456 28.997 14.7436 30.3991 12.9522 30.3991C11.1607 30.3991 9.75875 28.997 9.75875 27.2056V25.8036C9.75875 24.5575 10.7713 23.3112 12.4848 22.6103C13.6531 22.0651 14.8994 21.7535 16.2234 21.5198L16.1456 27.2056ZM27.2056 30.3991C25.4142 30.3991 24.0123 28.997 24.0123 27.2056V20.8967C25.57 20.6631 27.1278 20.1957 28.6076 19.5726C29.2307 19.261 29.8539 18.9495 30.399 18.4822V27.2056C30.399 28.997 28.9192 30.3991 27.2056 30.3991ZM27.6729 17.5475C26.5046 18.0927 25.2584 18.4043 23.9343 18.638V12.8743C23.9343 11.0828 25.3364 9.68086 27.1278 9.68086C28.9192 9.68086 30.3211 11.0828 30.3211 12.8743V14.2762C30.399 15.6003 29.3865 16.7687 27.6729 17.5475Z" fill="white"/>
<defs>
<linearGradient id="paint0_linear_3417_12939" x1="19.9999" y1="-8.24215e-07" x2="-7.66206" y2="27.5781" gradientUnits="userSpaceOnUse">
<stop stop-color="#00E8A2"/>
<stop offset="1" stop-color="#00ADE8"/>
</linearGradient>
</defs>
</svg>
