<svg viewBox="0 0 22 22" fill="none" xmlns="http://www.w3.org/2000/svg">
<path d="M16.2021 0.384308C13.7686 0.384308 11.7834 2.36955 11.7193 4.80306V9.73414C11.271 9.73414 10.8228 9.79818 10.3104 9.79818C9.79811 9.79818 9.34983 9.79818 8.90155 9.86222V4.80306C8.90155 2.36955 6.85228 0.384308 4.35472 0.448348C1.98524 0.448348 0.06404 2.43359 0 4.80306V16.5864C0.06404 19.0199 2.04928 21.0052 4.54684 20.9411C6.98036 20.8771 8.90155 18.9559 8.90155 16.5864V11.6553C9.34983 11.6553 9.79811 11.5913 10.3104 11.5913C10.8228 11.5913 11.271 11.5913 11.7193 11.5273V16.5224C11.7834 18.9559 13.7686 20.9411 16.2661 20.8771C18.6997 20.8131 20.6209 18.8919 20.6209 16.5224V4.80306C20.6209 2.36955 18.6356 0.384308 16.2021 0.384308ZM4.4828 2.17743C5.95572 2.17743 7.10844 3.33015 7.10844 4.80306V9.9903C5.82764 10.1824 4.54684 10.5667 3.33008 11.079C2.81776 11.3351 2.30544 11.5913 1.85716 11.9755V4.80306C1.85716 3.39419 3.00988 2.17743 4.4828 2.17743ZM7.10844 16.5864C7.10844 18.0593 5.95572 19.2121 4.4828 19.2121C3.00988 19.2121 1.85716 18.0593 1.85716 16.5864V15.4337C1.85716 14.4091 2.68968 13.3844 4.09856 12.8081C5.05916 12.3598 6.0838 12.1036 7.17248 11.9115L7.10844 16.5864ZM16.2021 19.2121C14.7292 19.2121 13.5765 18.0593 13.5765 16.5864V11.3992C14.8573 11.2071 16.1381 10.8228 17.3548 10.3105C17.8671 10.0543 18.3795 9.79818 18.8277 9.41394V16.5864C18.8277 18.0593 17.611 19.2121 16.2021 19.2121ZM16.5863 8.64546C15.6257 9.09374 14.6011 9.3499 13.5124 9.54202V4.80306C13.5124 3.33015 14.6652 2.17743 16.1381 2.17743C17.611 2.17743 18.7637 3.33015 18.7637 4.80306V5.95578C18.8277 7.04446 17.9952 8.00506 16.5863 8.64546Z" fill="url(#paint0_linear)"/>
<defs>
<linearGradient id="paint0_linear" x1="10.3104" y1="0.384308" x2="-3.90674" y2="14.6015" gradientUnits="userSpaceOnUse">
<stop stop-color="#00E8A2"/>
<stop offset="1" stop-color="#00ADE8"/>
</linearGradient>
</defs>
</svg>
