<svg width="20" height="20" viewBox="0 0 20 20" fill="none" xmlns="http://www.w3.org/2000/svg">
<g clip-path="url(#clip0_1802_1955)">
<circle cx="10" cy="10" r="10" fill="white"/>
<path d="M12.6598 5.20151C13.2422 4.61923 14.1904 4.61923 14.7728 5.20151C15.3551 5.78379 15.3551 6.73178 14.7728 7.31406C14.4354 7.65137 13.9738 7.80403 13.505 7.73658C13.4837 7.73302 13.4588 7.73302 13.4375 7.73658C13.299 7.71883 13.1534 7.73658 13.0149 7.80048C12.8196 7.88924 12.6811 8.05258 12.6137 8.24074C12.5462 8.42537 12.5498 8.63486 12.6385 8.82303C13.1392 9.90594 12.9084 11.2019 12.0632 12.0469C11.2181 12.8919 9.92189 13.1227 8.8388 12.6221C8.64349 12.5333 8.43397 12.5298 8.24576 12.6008C8.06109 12.6682 7.90485 12.8067 7.81607 12.9984C7.75926 13.1227 7.73795 13.2505 7.74504 13.3783C7.74149 13.4032 7.74149 13.428 7.74504 13.4529C7.82318 13.9287 7.66693 14.4151 7.32602 14.756C6.74362 15.3382 5.79547 15.3382 5.21309 14.756C4.92899 14.4719 4.77629 14.0991 4.77629 13.6979C4.77629 13.3002 4.93254 12.9239 5.21309 12.6398C5.55044 12.3025 6.01208 12.1499 6.48084 12.2173C6.48795 12.2173 6.49504 12.2173 6.5057 12.2173C6.55542 12.228 6.60512 12.2351 6.6584 12.2351C6.76848 12.2351 6.87856 12.2138 6.98155 12.1641C7.17331 12.0753 7.30825 11.9191 7.37927 11.738C7.4503 11.5498 7.4503 11.3368 7.35797 11.1415C6.85726 10.0586 7.08808 8.76268 7.93326 7.91765C8.77844 7.07262 10.0746 6.84185 11.1577 7.34246C11.3495 7.43124 11.5625 7.43477 11.7472 7.36732C11.9318 7.29987 12.0916 7.16139 12.1804 6.96967C12.2479 6.82054 12.2657 6.66077 12.2408 6.50809V6.50454C12.1627 6.02877 12.3189 5.54236 12.6598 5.20151ZM11.1826 11.1664C11.8289 10.5202 11.8289 9.47278 11.1826 8.82658C10.5362 8.1804 9.48865 8.1804 8.84235 8.82658C8.19604 9.47278 8.19604 10.5202 8.84235 11.1664C9.48865 11.8126 10.5362 11.8126 11.1826 11.1664ZM10 0C15.5221 0 20.0001 4.4772 20.0001 9.99825C20.0001 15.5193 15.5256 20 10 20C4.47444 20 0 15.5229 0 9.99825C0 4.47366 4.47799 0 10 0ZM15.3303 7.87149C16.2145 6.98742 16.2145 5.55655 15.3303 4.67249C14.4461 3.7884 13.0149 3.7884 12.1307 4.67249C11.804 4.99913 11.598 5.40389 11.5128 5.82639C9.91125 5.22282 8.07176 5.60626 6.84661 6.83119C5.62147 8.05612 5.23795 9.89529 5.84519 11.5001C5.41905 11.5853 5.01421 11.7913 4.68396 12.1215C3.79973 13.0055 3.79973 14.4364 4.68396 15.3205C5.5682 16.2046 6.99931 16.2046 7.88354 15.3205C8.21381 14.9903 8.42331 14.5784 8.505 14.1524C9.00215 14.337 9.52062 14.4293 10.0355 14.4293C11.1826 14.4293 12.3154 13.9855 13.157 13.144C14.375 11.9262 14.7621 10.0977 14.1691 8.49638C14.5917 8.40762 15 8.20169 15.3303 7.87149Z" fill="#474DFF"/>
</g>
<defs>
<clipPath id="clip0_1802_1955">
<rect width="20" height="20" fill="white"/>
</clipPath>
</defs>
</svg>
