<svg width="51" height="50" viewBox="0 0 51 50" fill="none" xmlns="http://www.w3.org/2000/svg">
<ellipse cx="25.6816" cy="24.9999" rx="25" ry="24.9999" fill="white"/>
<path d="M29.9948 17.8031C30.8653 16.9326 32.2953 16.9326 33.1658 17.8031C34.0363 18.6736 34.0363 20.1036 33.1658 20.9741C32.6529 21.487 31.9689 21.7047 31.2694 21.6114C31.2383 21.6114 31.2073 21.6114 31.1606 21.6114C30.9585 21.5803 30.7409 21.6114 30.5233 21.7047C30.228 21.8446 30.0259 22.0777 29.9171 22.3575C29.8083 22.6373 29.8238 22.9482 29.9482 23.228C30.6943 24.8446 30.3523 26.8031 29.0777 28.0622C27.8031 29.3368 25.8601 29.6788 24.2435 28.9326C23.9482 28.7927 23.6373 28.7927 23.3575 28.9016C23.0777 29.0104 22.8446 29.2124 22.7202 29.4922C22.6425 29.6788 22.5959 29.8653 22.6114 30.0674C22.6114 30.0984 22.6114 30.1451 22.6114 30.1762C22.7358 30.8912 22.487 31.6218 21.9896 32.1347C21.1192 33.0052 19.6891 33.0052 18.8187 32.1347C18.399 31.715 18.1658 31.1554 18.1658 30.5492C18.1658 29.9585 18.399 29.3834 18.8187 28.9637C19.3316 28.4508 20.0155 28.2332 20.715 28.3264C20.7306 28.3264 20.7306 28.3264 20.7461 28.3264C20.8238 28.342 20.9016 28.3575 20.9793 28.3575C21.1503 28.3575 21.3057 28.3264 21.4611 28.2487C21.7565 28.1088 21.9585 27.8756 22.0518 27.6114C22.1606 27.3316 22.1606 27.0052 22.0207 26.7098C21.2746 25.0777 21.6166 23.1347 22.8912 21.8756C24.1658 20.601 26.1088 20.2591 27.7254 21.0052C28.0052 21.1451 28.3316 21.1451 28.6114 21.0363C28.8912 20.9275 29.1244 20.7254 29.2642 20.4456C29.3731 20.228 29.3886 19.9793 29.3575 19.7461C29.2487 19.0466 29.4819 18.3161 29.9948 17.8031ZM27.772 26.7565C28.7358 25.7927 28.7358 24.2228 27.772 23.2435C26.8083 22.2798 25.2383 22.2798 24.2591 23.2435C23.2953 24.2073 23.2953 25.7772 24.2591 26.7565C25.2383 27.7202 26.8083 27.7202 27.772 26.7565ZM26 10C34.285 10 41 16.715 41 25C41 33.285 34.285 40 26 40C17.715 40 11 33.285 11 25C11 16.715 17.715 10 26 10ZM33.9896 21.8135C35.3109 20.4922 35.3109 18.3471 33.9896 17.0104C32.6684 15.6891 30.5233 15.6891 29.1865 17.0104C28.6891 17.5078 28.3938 18.114 28.2539 18.7358C25.8446 17.8342 23.0933 18.4093 21.2591 20.2435C19.4249 22.0777 18.8497 24.8446 19.7668 27.2539C19.1295 27.3782 18.5233 27.6891 18.0259 28.1865C16.7047 29.5078 16.7047 31.6528 18.0259 32.9896C19.3472 34.3109 21.4922 34.3109 22.829 32.9896C23.3264 32.4922 23.6373 31.8705 23.7617 31.2332C24.5078 31.513 25.285 31.6529 26.0622 31.6529C27.7876 31.6529 29.4819 30.9845 30.7409 29.7254C32.5751 27.8912 33.1503 25.1554 32.2642 22.7617C32.886 22.6062 33.4922 22.2953 33.9896 21.8135Z" fill="#38A2FF"/>
</svg>
