<svg width="331" height="325" viewBox="0 0 331 325" fill="none" xmlns="http://www.w3.org/2000/svg">
<path d="M196.9 0.149246C195.2 -0.150754 193.6 0.949246 193.3 2.64925L172.8 118.949H157.5L137 2.54925C136.7 0.849246 135.1 -0.250754 133.4 0.0492464C60.6 14.1492 4.8 76.2492 0.2 151.949C0.2 152.049 0 155.249 0 156.849V162.149C0 242.549 57.4 309.449 133.5 324.249C135.2 324.549 136.8 323.449 137.1 321.749L157.6 205.449H172.9L193.3 322.049C193.6 323.749 195.2 324.849 196.9 324.549C269.7 310.349 325.4 248.349 330.1 172.549C330.1 172.449 330.3 169.249 330.3 167.649V162.349C330.4 81.8492 273 14.9492 196.9 0.149246Z" fill="#FF6C15"/>
</svg>
