<svg width="51" height="50" viewBox="0 0 51 50" fill="none" xmlns="http://www.w3.org/2000/svg">
<ellipse cx="25.6816" cy="24.9999" rx="25" ry="24.9999" fill="#041742"/>
<path d="M38.1916 16.2688V16.2711L35.7382 20.071C36.4899 21.5512 36.9141 23.2252 36.9141 24.9984C36.9141 31.0278 32.0258 35.9137 25.9987 35.9137C24.2278 35.9137 22.5562 35.4895 21.0782 34.7402L17.2783 37.1957C19.7363 38.9574 22.7453 39.9972 26.0009 39.9972C34.2855 39.9972 40.9999 33.2806 40.9999 24.9984C40.9976 21.7426 39.9554 18.729 38.1916 16.2688Z" fill="url(#paint0_radial_61_42)"/>
<path d="M25.9984 32.5104C29.6922 32.5104 32.7612 29.852 33.4068 26.3472C32.2377 26.0982 31.0273 25.9622 29.7822 25.9622C26.0377 25.9622 22.5767 27.1589 19.7476 29.1856C21.101 31.1916 23.3953 32.5104 25.9984 32.5104Z" fill="url(#paint1_radial_61_42)"/>
<path d="M29.7112 24.5931C31.0232 24.5931 32.3004 24.736 33.5318 25.0036V25.0012C33.5318 20.8393 30.1584 17.4683 25.9988 17.4683C21.837 17.4683 18.466 20.8416 18.466 25.0012C18.466 25.3425 18.4914 25.6791 18.5352 26.0089L18.5329 26.011C16.6352 27.4522 15.736 28.5936 15.7083 28.6304C15.3071 27.4961 15.0835 26.2763 15.0835 25.0036C15.0835 18.974 19.9717 14.0881 25.9988 14.0881C27.765 14.0881 29.4299 14.51 30.9055 15.2548L34.7077 12.7969C32.252 11.0353 29.2478 10 25.9988 10C17.7143 10 11 16.7166 11 24.9988C11 28.333 12.0906 31.4112 13.9306 33.9014C14.6408 32.6171 15.5054 31.4296 16.4946 30.3621C16.4946 30.3621 17.9749 28.8173 19.107 28.0425C22.0837 25.8752 25.7476 24.5931 29.7112 24.5931Z" fill="white"/>
<defs>
<radialGradient id="paint0_radial_61_42" cx="0" cy="0" r="1" gradientUnits="userSpaceOnUse" gradientTransform="translate(38.1946 16.2519) scale(25.236 25.236)">
<stop offset="0.0986" stop-color="#26DB8D"/>
<stop offset="0.2628" stop-color="#23D29A"/>
<stop offset="0.5637" stop-color="#1ABBBB"/>
<stop offset="0.886" stop-color="#0E9DE5"/>
</radialGradient>
<radialGradient id="paint1_radial_61_42" cx="0" cy="0" r="1" gradientUnits="userSpaceOnUse" gradientTransform="translate(38.1943 16.2519) scale(25.236)">
<stop offset="0.0986" stop-color="#26DB8D"/>
<stop offset="0.2628" stop-color="#23D29A"/>
<stop offset="0.5637" stop-color="#1ABBBB"/>
<stop offset="0.886" stop-color="#0E9DE5"/>
</radialGradient>
</defs>
</svg>
