<svg width="20" height="20" viewBox="0 0 20 20" fill="none" xmlns="http://www.w3.org/2000/svg">
<circle cx="10" cy="10" r="10" fill="#041742"/>
<path d="M15.6904 5.9257V5.92678L14.5454 7.70022C14.8962 8.39108 15.0942 9.17234 15.0942 9.99988C15.0942 12.8139 12.8128 15.0942 9.99986 15.0942C9.1734 15.0942 8.39322 14.8962 7.70343 14.5465L5.92999 15.6925C7.07713 16.5147 8.48146 17 10.0009 17C13.8674 17 17.0011 13.8653 17.0011 9.99988C17 8.4804 16.5136 7.07392 15.6904 5.9257Z" fill="url(#paint0_radial_562_2009)"/>
<path d="M9.99987 13.5058C11.7238 13.5058 13.1561 12.2651 13.4574 10.6294C12.9118 10.5132 12.3469 10.4497 11.7658 10.4497C10.0182 10.4497 8.40291 11.0082 7.08252 11.9541C7.7142 12.8903 8.78494 13.5058 9.99987 13.5058Z" fill="url(#paint1_radial_562_2009)"/>
<path d="M11.7327 9.81073C12.345 9.81073 12.9411 9.87745 13.5158 10.0023V10.0012C13.5158 8.05882 11.9414 6.48554 10.0001 6.48554C8.05774 6.48554 6.48446 8.05989 6.48446 10.0012C6.48446 10.1605 6.4963 10.3176 6.51674 10.4715C6.51674 10.4715 6.51567 10.4715 6.51567 10.4725C5.63002 11.1451 5.21034 11.6778 5.19743 11.695C5.01018 11.1656 4.9058 10.5963 4.9058 10.0023C4.9058 7.18824 7.18716 4.90795 10.0001 4.90795C10.8244 4.90795 11.6014 5.10488 12.2901 5.45247L14.0646 4.30533C12.9185 3.48318 11.5164 3 10.0001 3C6.13365 3 3 6.13472 3 10.0001C3 11.5562 3.509 12.9928 4.36774 14.155C4.69919 13.5556 5.10273 13.0014 5.56438 12.5032C5.56438 12.5032 6.25525 11.7822 6.78362 11.4206C8.17288 10.4091 9.88283 9.81073 11.7327 9.81073Z" fill="white"/>
<defs>
<radialGradient id="paint0_radial_562_2009" cx="0" cy="0" r="1" gradientUnits="userSpaceOnUse" gradientTransform="translate(15.6918 5.91783) scale(11.7779)">
<stop offset="0.0986" stop-color="#26DB8D"/>
<stop offset="0.2628" stop-color="#23D29A"/>
<stop offset="0.5637" stop-color="#1ABBBB"/>
<stop offset="0.886" stop-color="#0E9DE5"/>
</radialGradient>
<radialGradient id="paint1_radial_562_2009" cx="0" cy="0" r="1" gradientUnits="userSpaceOnUse" gradientTransform="translate(15.6918 5.9178) scale(11.7779)">
<stop offset="0.0986" stop-color="#26DB8D"/>
<stop offset="0.2628" stop-color="#23D29A"/>
<stop offset="0.5637" stop-color="#1ABBBB"/>
<stop offset="0.886" stop-color="#0E9DE5"/>
</radialGradient>
</defs>
</svg>
