<svg width="20" height="20" viewBox="0 0 20 20" fill="none" xmlns="http://www.w3.org/2000/svg">
<circle cx="10" cy="10" r="10" fill="#18A0B1"/>
<path d="M14.9655 6.06897C15.5368 6.06897 16 5.60581 16 5.03448C16 4.46315 15.5368 4 14.9655 4C14.3942 4 13.931 4.46315 13.931 5.03448C13.931 5.60581 14.3942 6.06897 14.9655 6.06897Z" fill="white"/>
<path d="M7.0124 11.7752C6.6228 11.1138 6.46395 10.3417 6.56081 9.58024C6.65767 8.81876 7.00476 8.11104 7.54754 7.56826C8.09033 7.02547 8.79805 6.67839 9.55953 6.58152C10.321 6.48466 11.0931 6.64351 11.7545 7.03312L12.5821 6.20553L12.5407 6.17243C11.6505 5.58569 10.5845 5.32564 9.52421 5.43655C8.46388 5.54746 7.47477 6.02248 6.72532 6.78072C5.97586 7.53895 5.5124 8.53353 5.41385 9.59508C5.3153 10.6566 5.58775 11.7195 6.18482 12.6028L7.0124 11.7752Z" fill="white"/>
<path d="M12.9876 8.27037C13.3772 8.93175 13.5361 9.70383 13.4392 10.4653C13.3424 11.2268 12.9953 11.9345 12.4525 12.4773C11.9097 13.0201 11.202 13.3672 10.4405 13.464C9.67902 13.5609 8.90694 13.402 8.24555 13.0124L7.41797 13.84C8.30434 14.4418 9.37278 14.7157 10.4394 14.6146C11.5059 14.5136 12.5039 14.0438 13.2614 13.2863C14.019 12.5287 14.4888 11.5307 14.5898 10.4642C14.6909 9.3976 14.417 8.32916 13.8152 7.44278L12.9876 8.27037Z" fill="white"/>
<path d="M5.03448 16C5.60581 16 6.06897 15.5368 6.06897 14.9655C6.06897 14.3942 5.60581 13.931 5.03448 13.931C4.46315 13.931 4 14.3942 4 14.9655C4 15.5368 4.46315 16 5.03448 16Z" fill="white"/>
</svg>
