<svg width="52" height="50" viewBox="0 0 52 50" fill="none" xmlns="http://www.w3.org/2000/svg">
<g id="Group 1000006787">
<ellipse id="Ellipse 3018" cx="26.0908" cy="24.9999" rx="25.4089" ry="24.9999" fill="#18A0B1"/>
<g id="Group 1000006304">
<path id="Vector" d="M38.4137 15.1724C39.8419 15.1724 40.9999 14.0145 40.9999 12.5862C40.9999 11.1579 39.8419 10 38.4137 10C36.9854 10 35.8274 11.1579 35.8274 12.5862C35.8274 14.0145 36.9854 15.1724 38.4137 15.1724Z" fill="white"/>
<path id="Vector_2" d="M18.5309 29.4381C17.5569 27.7846 17.1597 25.8543 17.4019 23.9507C17.644 22.047 18.5118 20.2776 19.8687 18.9207C21.2257 17.5637 22.995 16.696 24.8987 16.4538C26.8024 16.2117 28.7327 16.6088 30.3862 17.5828L32.4552 15.5138L32.3517 15.4311C30.1262 13.9642 27.4612 13.3141 24.8104 13.5914C22.1596 13.8687 19.6868 15.0562 17.8132 16.9518C15.9395 18.8474 14.7808 21.3339 14.5345 23.9878C14.2881 26.6416 14.9692 29.2988 16.4619 31.5071L18.5309 29.4381Z" fill="white"/>
<path id="Vector_3" d="M33.4691 20.676C34.4431 22.3294 34.8403 24.2596 34.5981 26.1633C34.3561 28.0671 33.4883 29.8363 32.1313 31.1934C30.7743 32.5504 29.005 33.4181 27.1013 33.6601C25.1976 33.9024 23.2674 33.5051 21.6139 32.5311L19.5449 34.6001C21.7609 36.1046 24.432 36.7894 27.0985 36.5366C29.7648 36.2841 32.2598 35.1096 34.1536 33.2159C36.0476 31.3219 37.2221 28.8268 37.4746 26.1606C37.7273 23.4941 37.0426 20.823 35.5381 18.607L33.4691 20.676Z" fill="white"/>
<path id="Vector_4" d="M13.5862 40.0001C15.0145 40.0001 16.1724 38.8421 16.1724 37.4139C16.1724 35.9856 15.0145 34.8276 13.5862 34.8276C12.1579 34.8276 11 35.9856 11 37.4139C11 38.8421 12.1579 40.0001 13.5862 40.0001Z" fill="white"/>
</g>
</g>
</svg>
