<svg width="20" height="20" viewBox="0 0 20 20" fill="none" xmlns="http://www.w3.org/2000/svg">
<path d="M10 20C15.5228 20 20 15.5228 20 10C20 4.47715 15.5228 0 10 0C4.47715 0 0 4.47715 0 10C0 15.5228 4.47715 20 10 20Z" fill="white"/>
<path fill-rule="evenodd" clip-rule="evenodd" d="M3.28401 7.83899C2.84021 8.21814 2.48329 8.84521 2.48329 9.89315C2.48329 10.9385 2.85098 11.6365 3.32802 12.0783C3.82034 12.5342 4.48588 12.769 5.14581 12.769C5.35489 12.769 5.6421 12.6875 6.01946 12.4656C6.3916 12.2467 6.79121 11.9272 7.20951 11.5389C7.6253 11.1529 8.03556 10.7218 8.43521 10.2919C8.52072 10.1999 8.60648 10.1072 8.69195 10.0148C8.72013 9.98429 8.74827 9.95385 8.77637 9.92349C8.77142 9.91815 8.76645 9.91281 8.76149 9.90747C8.28746 9.39724 7.77458 8.84519 7.20448 8.3439C6.36993 7.61008 5.67036 7.23064 5.14581 7.23064C4.41719 7.23064 3.75175 7.43938 3.28401 7.83899ZM10.0305 8.59399C9.56186 8.09067 8.99374 7.48982 8.40819 6.97496C7.54917 6.21963 6.39953 5.40775 5.14581 5.40775C4.09616 5.40775 2.97461 5.70576 2.09994 6.45303C1.20133 7.22074 0.6604 8.38065 0.6604 9.89315C0.6604 11.4082 1.21287 12.6039 2.08941 13.4157C2.95066 14.2133 4.0721 14.5919 5.14581 14.5919C5.80355 14.5919 6.41649 14.3468 6.94345 14.0369C7.47564 13.724 7.98452 13.3067 8.4497 12.8749C8.91741 12.4407 9.36563 11.9683 9.77028 11.5331C9.84911 11.4483 9.9258 11.3654 10.0005 11.2847C10.0314 11.321 10.0623 11.3574 10.0933 11.3938C10.6137 12.0063 11.1497 12.6369 11.6766 13.1315C12.5169 13.9202 13.5325 14.5743 14.8689 14.5918C17.4832 14.6262 19.3396 12.4252 19.3396 9.89315C19.3396 8.63701 18.9229 7.50286 18.116 6.67848C17.3065 5.85152 16.174 5.40775 14.8808 5.40775C13.471 5.40775 12.4239 6.09901 11.6126 6.86218C11.2097 7.2411 10.8432 7.65851 10.5125 8.04042C10.4786 8.07954 10.4451 8.11822 10.4121 8.15645C10.2798 8.30935 10.1537 8.4552 10.0305 8.59399ZM11.2616 9.95154C11.3728 10.0816 11.4801 10.2083 11.5847 10.3318C12.0531 10.8849 12.4661 11.3725 12.9242 11.8024C13.6042 12.4406 14.2022 12.76 14.8928 12.7691C16.3325 12.7881 17.5167 11.5752 17.5167 9.89315C17.5167 9.04226 17.2399 8.38943 16.8133 7.95359C16.3892 7.52033 15.748 7.23064 14.8808 7.23064C14.1303 7.23064 13.5104 7.57957 12.8615 8.18996C12.5342 8.49783 12.2223 8.85055 11.8904 9.23377C11.8567 9.27274 11.8226 9.31214 11.7883 9.35188C11.6191 9.54767 11.4428 9.75163 11.2616 9.95154Z" fill="url(#paint0_linear_1467_266)"/>
<path fill-rule="evenodd" clip-rule="evenodd" d="M0.739502 8.93217C0.920166 7.88169 1.40226 7.04913 2.1 6.45303C2.97468 5.70576 4.09622 5.40775 5.14587 5.40775C6.39959 5.40775 7.54923 6.21963 8.40825 6.97496C9.05203 7.54102 9.67474 8.21101 10.1674 8.74107C10.3492 8.93669 10.5133 9.11326 10.6542 9.2585L10.6664 9.27101L10.678 9.28397C11.0132 9.65705 11.3086 10.0058 11.5848 10.3318C12.0532 10.8849 12.4662 11.3725 12.9242 11.8024C13.6042 12.4406 14.6319 12.7691 15.2987 12.8868C15.9654 13.0045 18.0713 12.9538 19.2124 11.0288C18.7519 13.0482 17.082 14.621 14.8689 14.5918C13.5326 14.5743 12.517 13.9202 11.6767 13.1315C11.1497 12.6369 10.6138 12.0063 10.0933 11.3938C9.83523 11.0901 9.58094 10.7909 9.33345 10.515C9.14864 10.3241 8.95845 10.1194 8.76155 9.90747C8.28753 9.39724 7.77465 8.84519 7.20455 8.3439C6.36999 7.61008 5.51906 7.31956 5.14587 7.23064C4.77268 7.14172 2.37689 6.30497 0.739502 8.93217Z" fill="#53A9DD"/>
<defs>
<linearGradient id="paint0_linear_1467_266" x1="1.9152" y1="8.06979" x2="18.1492" y2="12.9874" gradientUnits="userSpaceOnUse">
<stop stop-color="#4B2D80"/>
<stop offset="0.344818" stop-color="#DA3B78"/>
<stop offset="0.734375" stop-color="#E06337"/>
<stop offset="1" stop-color="#F1B254"/>
</linearGradient>
</defs>
</svg>
