<svg width="51" height="50" viewBox="0 0 51 50" fill="none" xmlns="http://www.w3.org/2000/svg">
<ellipse cx="25.6819" cy="24.9999" rx="25" ry="24.9999" fill="white"/>
<path fill-rule="evenodd" clip-rule="evenodd" d="M12.141 20.4428C11.2051 21.2424 10.4524 22.5648 10.4524 24.7747C10.4524 26.9792 11.2278 28.4512 12.2338 29.3829C13.272 30.3443 14.6756 30.8395 16.0673 30.8395C16.5082 30.8395 17.1139 30.6676 17.9097 30.1997C18.6945 29.738 19.5372 29.0643 20.4193 28.2454C21.2962 27.4314 22.1614 26.5222 23.0042 25.6156C23.1845 25.4216 23.3653 25.2261 23.5456 25.0313C23.605 24.9669 23.6644 24.9027 23.7236 24.8387C23.7132 24.8275 23.7027 24.8162 23.6922 24.8049C22.6926 23.7289 21.611 22.5647 20.4087 21.5076C18.6488 19.9601 17.1735 19.1599 16.0673 19.1599C14.5307 19.1599 13.1274 19.6001 12.141 20.4428ZM26.3684 22.035C25.3801 20.9736 24.182 19.7064 22.9472 18.6207C21.1356 17.0278 18.7112 15.3156 16.0673 15.3156C13.8537 15.3156 11.4885 15.9441 9.64395 17.52C7.7489 19.139 6.60815 21.5851 6.60815 24.7747C6.60815 27.9698 7.77324 30.4913 9.62174 32.2033C11.438 33.8853 13.803 34.6837 16.0673 34.6837C17.4544 34.6837 18.747 34.1669 19.8582 33.5133C20.9806 32.8535 22.0537 31.9734 23.0347 31.0628C24.0211 30.1472 24.9663 29.1509 25.8196 28.2332C25.9859 28.0543 26.1476 27.8795 26.3051 27.7093C26.3703 27.7859 26.4355 27.8626 26.5008 27.9394C27.5983 29.2311 28.7286 30.5609 29.8398 31.604C31.6119 33.2672 33.7536 34.6466 36.5719 34.6835C42.0851 34.7561 46 30.1145 46 24.7747C46 22.1257 45.1213 19.7339 43.4196 17.9954C41.7125 16.2515 39.3242 15.3156 36.597 15.3156C33.6239 15.3156 31.4158 16.7734 29.7048 18.3828C28.8552 19.1819 28.0823 20.0622 27.3849 20.8676C27.3134 20.9501 27.2427 21.0317 27.1731 21.1123C26.8941 21.4347 26.6282 21.7423 26.3684 22.035ZM28.9646 24.8979C29.1991 25.1721 29.4254 25.4393 29.646 25.6998C30.6338 26.8662 31.5048 27.8945 32.4708 28.8011C33.9048 30.147 35.1659 30.8205 36.6223 30.8397C39.6585 30.8798 42.1558 28.3219 42.1558 24.7747C42.1558 22.9803 41.572 21.6036 40.6724 20.6845C39.778 19.7708 38.4258 19.1599 36.597 19.1599C35.0143 19.1599 33.707 19.8957 32.3386 21.1829C31.6484 21.8322 30.9906 22.576 30.2907 23.3842C30.2196 23.4664 30.1477 23.5495 30.0754 23.6333C29.7185 24.0462 29.3468 24.4763 28.9646 24.8979Z" fill="url(#paint0_linear_61_54)"/>
<path fill-rule="evenodd" clip-rule="evenodd" d="M6.7749 22.7482C7.1559 20.5328 8.17257 18.7771 9.644 17.52C11.4886 15.9441 13.8538 15.3156 16.0673 15.3156C18.7112 15.3156 21.1357 17.0278 22.9472 18.6207C24.3049 19.8144 25.6181 21.2273 26.657 22.3452C27.0404 22.7577 27.3865 23.1301 27.6836 23.4363L27.7094 23.4627L27.7338 23.4901C28.4407 24.2768 29.0637 25.0123 29.6461 25.6998C30.6339 26.8662 31.5049 27.8945 32.4708 28.8011C33.9048 30.147 36.0721 30.8397 37.4782 31.0879C38.8842 31.3361 43.3253 31.2292 45.7317 27.1697C44.7606 31.4283 41.239 34.7451 36.5719 34.6835C33.7538 34.6466 31.612 33.2672 29.8399 31.604C28.7286 30.5609 27.5984 29.2311 26.5008 27.9394C25.9565 27.2989 25.4203 26.668 24.8984 26.0861C24.5086 25.6835 24.1075 25.2519 23.6923 24.8049C22.6927 23.7289 21.6111 22.5647 20.4088 21.5076C18.6488 19.9601 16.8543 19.3474 16.0673 19.1599C15.2803 18.9723 10.2279 17.2078 6.7749 22.7482Z" fill="#53A9DD"/>
<defs>
<linearGradient id="paint0_linear_61_54" x1="9.25435" y1="20.9295" x2="43.4896" y2="31.3001" gradientUnits="userSpaceOnUse">
<stop stop-color="#4B2D80"/>
<stop offset="0.344818" stop-color="#DA3B78"/>
<stop offset="0.734375" stop-color="#E06337"/>
<stop offset="1" stop-color="#F1B254"/>
</linearGradient>
</defs>
</svg>
