<svg width="20" height="20" viewBox="0 0 20 20" fill="none" xmlns="http://www.w3.org/2000/svg">
<path d="M11.1111 2.25694H8.15972L3.99303 3.75C3.69211 5.12732 3.05556 8.07639 2.91667 8.85417C2.77778 9.63195 2.97454 13.1366 3.09028 14.7917L10.5556 19.0278L17.6042 13.5417L17.3264 6.94444L16.5972 5.17361L11.1111 2.25694Z" fill="white"/>
<path d="M9.99997 0L1.11108 5V15L9.99997 20L18.8889 15V5L9.99997 0ZM10.1817 16.1971L3.35899 12.4057L3.38664 10.562L10.1778 14.3495L13.4528 12.5096L11.2563 11.2741L10.4345 11.736L8.8938 10.8737L9.71948 10.408L8.64096 9.79985L7.98911 10.1694L6.44442 9.30716L7.10022 8.93764L3.61973 6.97845L10.1778 3.29099L16.3644 6.72825L14.7052 7.66744L10.1778 5.13857L6.90269 6.97845L8.73578 8.01001L9.67207 7.47883L11.2168 8.34103L10.2726 8.87221L11.3511 9.48037L12.1175 9.04542L13.6622 9.90762L12.8879 10.3464L16.7279 12.5058L10.1817 16.1971V16.1971Z" fill="black"/>
</svg>
