<svg width="51" height="50" viewBox="0 0 51 50" fill="none" xmlns="http://www.w3.org/2000/svg">
<ellipse cx="25.6819" cy="24.9999" rx="25" ry="24.9999" fill="white"/>
<path d="M26 9L12 16.75V32.25L26 40L40 32.25V16.75L26 9ZM26.2862 34.1055L15.5404 28.2288L15.584 25.3711L26.28 31.2417L31.4382 28.3899L27.9787 26.4749L26.6844 27.1908L24.2578 25.8542L25.5582 25.1324L23.8595 24.1898L22.8329 24.7626L20.4 23.4261L21.4329 22.8533L15.9511 19.8166L26.28 14.101L36.0239 19.4288L33.4107 20.8845L26.28 16.9648L21.1218 19.8166L24.0089 21.4155L25.4835 20.5922L27.9165 21.9286L26.4294 22.7519L28.128 23.6946L29.3351 23.0204L31.768 24.3568L30.5484 25.0369L36.5964 28.384L26.2862 34.1055Z" fill="black"/>
</svg>
