<svg width="20" height="20" viewBox="0 0 20 20" fill="none" xmlns="http://www.w3.org/2000/svg">
<circle cx="10" cy="10" r="10" fill="black"/>
<path d="M12.909 4.62395C13.3669 4.62395 13.7389 4.25947 13.7389 3.81169C13.7389 3.3639 13.3669 3 12.909 3C12.4511 3.00231 12.079 3.36621 12.079 3.814C12.079 4.26179 12.4511 4.62395 12.909 4.62395ZM13.1538 6.73445C13.3416 6.73308 13.5212 6.65984 13.653 6.53085C13.7848 6.40186 13.858 6.22768 13.8566 6.04663C13.8566 5.66827 13.5421 5.35875 13.1538 5.35875C12.7656 5.35875 12.4511 5.66595 12.4511 6.04663C12.4511 6.42731 12.765 6.73445 13.1538 6.73445ZM15.0832 7.00347C15.4697 7.00347 15.7842 6.69627 15.7842 6.31733C15.7842 5.93839 15.4697 5.63118 15.0832 5.63118C14.6967 5.63118 14.3823 5.93839 14.3823 6.31733C14.3823 6.69627 14.6973 7.00347 15.0832 7.00347ZM14.8516 8.80908C15.1828 8.80908 15.4511 8.54643 15.4511 8.22303C15.4511 7.89962 15.1828 7.63697 14.8516 7.63697C14.5203 7.63697 14.252 7.89962 14.252 8.22303C14.252 8.54643 14.5203 8.80908 14.8516 8.80908ZM16.3963 9.39456C16.7299 9.39456 17 9.13017 17 8.80445C17 8.47874 16.7299 8.21435 16.3963 8.21435C16.3164 8.21488 16.2375 8.23056 16.164 8.26051C16.0904 8.29045 16.0237 8.33406 15.9676 8.38886C15.9116 8.44366 15.8673 8.50856 15.8372 8.57987C15.8072 8.65118 15.792 8.72749 15.7926 8.80445V8.80445C15.7926 9.13017 16.0632 9.39456 16.3963 9.39456ZM12.9102 8.56494C12.9914 8.56449 13.0716 8.54862 13.1465 8.51826C13.2213 8.48789 13.2891 8.44361 13.3462 8.38796C13.4033 8.3323 13.4484 8.26635 13.479 8.19388C13.5097 8.12141 13.5252 8.04383 13.5247 7.96558V7.96558V7.96442C13.5247 7.63292 13.2504 7.3639 12.9102 7.3639C12.5699 7.3639 12.2957 7.63234 12.2957 7.96442C12.2957 8.29419 12.5705 8.56494 12.9102 8.56494ZM12.3533 10.0014C12.6383 10.0014 12.8682 9.77582 12.8682 9.4987C12.8693 9.36644 12.8159 9.23918 12.7197 9.14489C12.6234 9.05061 12.4923 8.99704 12.3551 8.99595H12.3533C12.0682 8.99595 11.8384 9.22158 11.8384 9.4987C11.8384 9.77582 12.0682 10.0014 12.3533 10.0014ZM14.2857 10.2554C14.3532 10.255 14.42 10.2417 14.4822 10.2164C14.5444 10.1911 14.6008 10.1542 14.6482 10.1078C14.6957 10.0615 14.7332 10.0066 14.7586 9.94624C14.784 9.88592 14.7968 9.82137 14.7964 9.75626V9.75505C14.7964 9.47851 14.5683 9.25461 14.2857 9.25461C14.003 9.25461 13.775 9.47851 13.775 9.75505C13.7741 9.81992 13.7865 9.88432 13.8114 9.94458C13.8364 10.0048 13.8734 10.0598 13.9203 10.1062C13.9673 10.1527 14.0233 10.1898 14.0851 10.2154C14.147 10.241 14.2134 10.2546 14.2807 10.2554H14.2857V10.2554ZM15.8262 10.8386C16.1112 10.8386 16.3411 10.613 16.3411 10.3341C16.3411 10.0553 16.1112 9.82962 15.8262 9.82962C15.5411 9.82962 15.3113 10.0553 15.3113 10.3341C15.3098 10.4665 15.363 10.5941 15.4591 10.6887C15.5552 10.7833 15.6864 10.8372 15.8237 10.8386H15.8262ZM15.0652 11.9286C15.3059 11.9286 15.5003 11.7371 15.5003 11.5033C15.5003 11.2696 15.3059 11.0781 15.0652 11.0781C14.8246 11.0781 14.6301 11.2696 14.6301 11.5033C14.6301 11.7371 14.8246 11.9286 15.0652 11.9286ZM13.5175 11.3546C13.7624 11.3546 13.9628 11.1591 13.9628 10.919C13.9628 10.6789 13.7642 10.4834 13.5175 10.4834C13.2709 10.4834 13.0722 10.6789 13.0722 10.919C13.0722 11.1591 13.2727 11.3546 13.5175 11.3546ZM11.5875 11.0885C11.705 11.0867 11.817 11.0405 11.8995 10.9598C11.9819 10.8792 12.0282 10.7705 12.0282 10.6572C12.0283 10.544 11.9822 10.4352 11.8999 10.3544C11.8176 10.2736 11.7056 10.2273 11.5881 10.2253H11.5875C11.47 10.2271 11.358 10.2733 11.2756 10.354C11.1931 10.4347 11.1469 10.5434 11.1468 10.6566C11.1467 10.7699 11.1928 10.8786 11.2751 10.9594C11.3575 11.0402 11.4695 11.0866 11.5869 11.0885H11.5875ZM12.6605 12.1125C12.8736 12.1125 13.0446 11.9436 13.0446 11.7382C13.0456 11.6399 13.006 11.5452 12.9345 11.475C12.8631 11.4048 12.7656 11.3648 12.6636 11.3639H12.6605C12.4475 11.3639 12.2765 11.5328 12.2765 11.7382C12.2753 11.8364 12.3147 11.931 12.3859 12.0012C12.4572 12.0714 12.5544 12.1114 12.6563 12.1125H12.6605ZM14.2076 12.6963C14.4207 12.6963 14.5959 12.5273 14.5959 12.3179C14.5959 12.1085 14.4231 11.9395 14.2076 11.9395C14.1035 11.9395 14.0037 11.9794 13.9301 12.0504C13.8565 12.1213 13.8152 12.2176 13.8152 12.3179C13.8152 12.4183 13.8565 12.5145 13.9301 12.5854C14.0037 12.6564 14.1035 12.6963 14.2076 12.6963V12.6963ZM13.3363 13.1342C13.5049 13.1342 13.6423 13 13.6423 12.8351C13.6428 12.7563 13.6108 12.6806 13.5535 12.6245C13.4961 12.5685 13.418 12.5366 13.3363 12.536C13.1676 12.536 13.0302 12.6702 13.0302 12.8351C13.03 12.9138 13.0621 12.9894 13.1194 13.0454C13.1767 13.1014 13.2547 13.1333 13.3363 13.1342V13.1342ZM12.5105 13.3691C12.5471 13.3689 12.5832 13.3617 12.6169 13.348C12.6506 13.3343 12.6812 13.3144 12.7068 13.2893C12.7325 13.2642 12.7529 13.2345 12.7666 13.2019C12.7804 13.1692 12.7874 13.1343 12.7872 13.099V13.0984C12.7872 12.9479 12.6623 12.8276 12.5105 12.8276C12.4739 12.8278 12.4378 12.835 12.4041 12.8487C12.3704 12.8624 12.3398 12.8823 12.3142 12.9074C12.2885 12.9325 12.2681 12.9622 12.2544 12.9948C12.2406 13.0275 12.2336 13.0624 12.2338 13.0977V13.0984C12.2326 13.1689 12.2604 13.2371 12.3113 13.2878C12.3622 13.3386 12.4318 13.3678 12.505 13.369L12.5105 13.3691ZM11.7874 12.5904C11.9692 12.5904 12.1168 12.4458 12.1168 12.2687C12.1168 12.0917 11.9692 11.9471 11.7874 11.9471C11.6055 11.9471 11.4579 12.0917 11.4579 12.2687C11.4577 12.3534 11.4922 12.4347 11.5539 12.4949C11.6156 12.5552 11.6995 12.5895 11.7874 12.5904ZM10.7263 11.8528C10.9376 11.8528 11.1104 11.6861 11.1104 11.4784C11.1104 11.2708 10.9394 11.1041 10.7263 11.1041C10.5151 11.1041 10.3423 11.2708 10.3423 11.4784C10.3421 11.5771 10.3824 11.6718 10.4543 11.7419C10.5263 11.812 10.624 11.8518 10.7263 11.8528ZM13.8728 16.5424C14.3289 16.5424 14.6985 16.1802 14.6985 15.7342C14.6985 15.2881 14.3289 14.9259 13.8728 14.9259C13.4167 14.9259 13.047 15.2881 13.047 15.7342C13.047 16.1802 13.4167 16.5424 13.8728 16.5424ZM11.7754 15.5195C12.1552 15.5195 12.4637 15.2181 12.4637 14.8461C12.4637 14.4741 12.1552 14.1727 11.7754 14.1727C11.3955 14.1727 11.087 14.4741 11.087 14.8461C11.087 15.2181 11.3949 15.5195 11.7754 15.5195ZM10.5769 17C10.961 17 11.2713 16.6968 11.2713 16.3202C11.2713 15.9459 10.961 15.6404 10.5769 15.6404C10.1928 15.6404 9.88258 15.9436 9.88258 16.3202C9.88114 16.4991 9.95348 16.6712 10.0837 16.7987C10.2139 16.9262 10.3913 16.9986 10.5769 17H10.5769ZM10.2162 14.2722C10.2958 14.2717 10.3746 14.256 10.4479 14.2262C10.5212 14.1963 10.5877 14.1528 10.6436 14.0982C10.6995 14.0436 10.7437 13.9788 10.7736 13.9078C10.8036 13.8367 10.8187 13.7606 10.8182 13.6838V13.6838C10.8187 13.6071 10.8036 13.531 10.7736 13.4599C10.7437 13.3888 10.6995 13.3241 10.6436 13.2695C10.5877 13.2148 10.5212 13.1713 10.4479 13.1415C10.3746 13.1116 10.2958 13.096 10.2162 13.0955V13.0955C10.1366 13.096 10.0579 13.1116 9.98461 13.1415C9.91128 13.1713 9.84477 13.2148 9.78888 13.2695C9.73298 13.3241 9.6888 13.3888 9.65885 13.4599C9.6289 13.531 9.61377 13.6071 9.61432 13.6838V13.6838C9.61492 14.0078 9.88498 14.2722 10.2162 14.2722V14.2722ZM9.0208 15.7729C9.35207 15.7729 9.62032 15.5103 9.62032 15.1869C9.62032 14.8635 9.35207 14.6008 9.0208 14.6008C8.68954 14.6008 8.42128 14.8635 8.42128 15.1869C8.4197 15.3408 8.48159 15.4889 8.59333 15.5988C8.70507 15.7088 8.85752 15.7714 9.01714 15.7729H9.0208ZM7.73235 16.7911C8.06361 16.7911 8.33007 16.5285 8.33007 16.2068C8.33007 15.8834 8.06181 15.6225 7.73235 15.6225C7.40108 15.6225 7.13463 15.8852 7.13463 16.2068C7.13463 16.5285 7.40288 16.7911 7.73235 16.7911V16.7911ZM6.65993 15.4657C6.79614 15.4645 6.92631 15.4114 7.022 15.3179C7.11769 15.2245 7.17113 15.0983 7.17063 14.967C7.17063 14.6922 6.94259 14.4683 6.65993 14.4683C6.5241 14.4703 6.39453 14.5237 6.2992 14.617C6.20388 14.7104 6.15045 14.8361 6.15045 14.967C6.15045 15.098 6.20388 15.2237 6.2992 15.317C6.39453 15.4103 6.5241 15.4637 6.65993 15.4657ZM7.95079 14.4429C8.08709 14.442 8.21743 14.3889 8.31319 14.2954C8.40895 14.2019 8.46229 14.0756 8.46149 13.9442C8.46149 13.6676 8.23345 13.4455 7.95079 13.4455C7.81494 13.4472 7.68527 13.5004 7.58976 13.5936C7.49426 13.6867 7.44059 13.8123 7.44036 13.9433C7.44012 14.0743 7.49333 14.2001 7.5885 14.2936C7.68367 14.387 7.81315 14.4407 7.94899 14.4429H7.95079ZM9.15523 12.9427C9.22276 12.9423 9.28954 12.929 9.35176 12.9037C9.41397 12.8784 9.4704 12.8415 9.51782 12.7951C9.56525 12.7488 9.60273 12.6939 9.62815 12.6335C9.65356 12.5732 9.6664 12.5087 9.66593 12.4436V12.4423C9.66593 12.1658 9.43789 11.9419 9.15523 11.9419C9.0877 11.9424 9.02092 11.9556 8.95871 11.981C8.89649 12.0063 8.84006 12.0432 8.79264 12.0895C8.74522 12.1359 8.70773 12.1908 8.68232 12.2511C8.6569 12.3114 8.64406 12.376 8.64453 12.4411V12.4411V12.4423C8.64453 12.7188 8.87257 12.9427 9.15523 12.9427ZM7.31286 13.1493C7.55771 13.1493 7.75635 12.956 7.75635 12.7159C7.75635 12.4758 7.55771 12.2826 7.31286 12.2826C7.06801 12.2826 6.86937 12.4758 6.86937 12.7159C6.86937 12.956 7.06801 13.1493 7.31286 13.1493ZM6.02861 14.1681C6.08661 14.1678 6.14398 14.1564 6.19745 14.1348C6.25092 14.1131 6.29943 14.0815 6.34023 14.0417C6.38102 14.002 6.41329 13.9549 6.43519 13.9031C6.4571 13.8513 6.46821 13.7959 6.46789 13.7399V13.7399V13.7388C6.46901 13.626 6.42362 13.5174 6.3417 13.4369C6.25978 13.3564 6.14804 13.3106 6.03107 13.3095H6.02861C5.9706 13.3098 5.91323 13.3211 5.85976 13.3428C5.80629 13.3645 5.75778 13.3961 5.71699 13.4359C5.67619 13.4756 5.64392 13.5227 5.62202 13.5745C5.60011 13.6263 5.589 13.6817 5.58932 13.7376V13.7376V13.7388C5.58892 13.7948 5.59997 13.8503 5.62183 13.9022C5.6437 13.9541 5.67594 14.0013 5.71674 14.0411C5.75753 14.081 5.80607 14.1127 5.85958 14.1345C5.91309 14.1563 5.97052 14.1677 6.02861 14.1681ZM5.73335 12.974C5.83458 12.9732 5.93138 12.9338 6.00257 12.8644C6.07376 12.795 6.11354 12.7013 6.11322 12.6037C6.11322 12.3983 5.94219 12.2334 5.73335 12.2334C5.5245 12.2334 5.35347 12.4001 5.35347 12.6037C5.35347 12.8091 5.5245 12.974 5.73335 12.974ZM5.72254 11.9262C5.76565 11.9259 5.80826 11.9173 5.84794 11.901C5.88762 11.8848 5.92358 11.8612 5.95379 11.8315C5.98399 11.8019 6.00784 11.7668 6.02397 11.7282C6.04011 11.6897 6.04821 11.6484 6.04781 11.6069V11.6069C6.04781 11.4316 5.90198 11.2875 5.72254 11.2875C5.54311 11.2875 5.39728 11.4299 5.39728 11.6069C5.39728 11.7839 5.54311 11.9262 5.72254 11.9262V11.9262ZM5.90138 11.055C6.05561 11.055 6.17804 10.9329 6.17804 10.7842C6.17804 10.6355 6.05321 10.5135 5.90138 10.5135C5.74715 10.5135 5.62472 10.6355 5.62472 10.7842C5.62472 10.9329 5.74715 11.055 5.90138 11.055V11.055ZM7.0086 10.9092C7.19044 10.9092 7.33807 10.7645 7.33807 10.5875C7.33807 10.4105 7.19044 10.2658 7.0086 10.2658C6.82677 10.2658 6.67914 10.4105 6.67914 10.5875C6.67881 10.6722 6.71329 10.7536 6.77503 10.8139C6.83676 10.8741 6.92074 10.9084 7.0086 10.9092V10.9092ZM8.22384 10.4527C8.43509 10.4527 8.60792 10.2838 8.60792 10.0784C8.60888 9.98005 8.56928 9.88536 8.49782 9.81517C8.42637 9.74497 8.32892 9.70501 8.22691 9.70408H8.22384C8.0126 9.70408 7.83977 9.87301 7.83977 10.0784C7.83937 10.1272 7.84895 10.1755 7.86794 10.2208C7.88694 10.266 7.91499 10.3071 7.95049 10.3419C7.98599 10.3766 8.02824 10.4043 8.07483 10.4233C8.12143 10.4423 8.17145 10.4523 8.22204 10.4527H8.22384ZM8.5131 11.641C8.62867 11.6408 8.73942 11.5963 8.82101 11.5174C8.9026 11.4385 8.94837 11.3316 8.94825 11.2202C8.94813 11.1088 8.90214 11.002 8.82037 10.9233C8.73861 10.8445 8.62777 10.8003 8.5122 10.8003C8.39663 10.8003 8.28579 10.8445 8.20403 10.9233C8.12227 11.002 8.07627 11.1088 8.07616 11.2202C8.07604 11.3316 8.1218 11.4385 8.20339 11.5174C8.28499 11.5963 8.39573 11.6408 8.5113 11.641H8.5131ZM7.0242 11.9575C7.23545 11.9575 7.40408 11.7909 7.40408 11.5849C7.40408 11.3789 7.23305 11.2123 7.0242 11.2123C6.97401 11.2126 6.92436 11.2224 6.8781 11.2412C6.83184 11.26 6.78987 11.2874 6.7546 11.3219C6.71932 11.3563 6.69143 11.3971 6.67251 11.4419C6.65359 11.4867 6.64401 11.5347 6.64433 11.5831V11.5849C6.64361 11.6331 6.65276 11.681 6.67125 11.7259C6.68974 11.7707 6.7172 11.8116 6.75207 11.8461C6.78695 11.8807 6.82855 11.9084 6.8745 11.9275C6.92045 11.9466 6.96985 11.9567 7.01988 11.9574H7.0242V11.9575ZM2.82336 11.405C3.27706 11.405 3.64673 11.0445 3.64673 10.6008C3.64673 10.1571 3.27706 9.79665 2.82336 9.79665C2.36967 9.79665 2 10.1577 2 10.6014C2 11.0451 2.36967 11.405 2.82336 11.405V11.405ZM4.69214 9.96905C5.08282 9.96905 5.39728 9.65953 5.39728 9.27886C5.39728 8.89818 5.08042 8.58866 4.69214 8.58866C4.50386 8.58988 4.3238 8.66316 4.19156 8.79237C4.05932 8.92158 3.98574 9.09613 3.987 9.27764V9.27886C3.987 9.66185 4.30386 9.96905 4.69214 9.96905V9.96905ZM3.96299 8.19873C4.35127 8.19873 4.66393 7.89152 4.66393 7.51258C4.66393 7.13364 4.34947 6.82644 3.96299 6.82644C3.87032 6.82704 3.77867 6.84523 3.69328 6.87997C3.6079 6.91472 3.53045 6.96534 3.46536 7.02894C3.40027 7.09255 3.34882 7.16789 3.31393 7.25066C3.27905 7.33344 3.26142 7.42202 3.26205 7.51137V7.51258C3.26015 7.69271 3.33254 7.86618 3.4633 7.99486C3.59406 8.12353 3.77249 8.19686 3.95933 8.19873H3.96299ZM5.76455 7.35985C6.09582 7.35985 6.36647 7.09719 6.36647 6.77148C6.36647 6.44576 6.09642 6.18311 5.76455 6.18311C5.43269 6.18311 5.16263 6.44576 5.16263 6.77148C5.16263 7.09719 5.43329 7.35985 5.76455 7.35985V7.35985ZM6.5009 9.12612C6.83457 9.12612 7.10462 8.86173 7.10462 8.53601C7.10462 8.2103 6.83457 7.94591 6.5009 7.94591C6.16723 7.94591 5.89718 8.2103 5.89718 8.53601C5.89718 8.86173 6.16723 9.12612 6.5009 9.12612ZM8.14043 8.75933C8.27761 8.75824 8.40873 8.70468 8.50495 8.61041C8.60117 8.51614 8.65462 8.38889 8.65353 8.25664V8.25664C8.65456 8.19168 8.64231 8.12716 8.61748 8.06677C8.59265 8.00637 8.55572 7.95129 8.50881 7.90465C8.46189 7.85801 8.4059 7.82074 8.34405 7.79496C8.28219 7.76919 8.21567 7.75541 8.14829 7.75441C8.08091 7.75342 8.01398 7.76523 7.95134 7.78916C7.88869 7.8131 7.83154 7.8487 7.78317 7.89393C7.73479 7.93916 7.69613 7.99313 7.66939 8.05276C7.64265 8.1124 7.62836 8.17652 7.62733 8.24148C7.62733 8.24657 7.62733 8.25161 7.62733 8.25664C7.62574 8.38843 7.67852 8.51543 7.77406 8.60971C7.86959 8.70399 8.00006 8.75783 8.13677 8.75939L8.14043 8.75933ZM9.55671 8.76396C9.80156 8.76396 10.0002 8.57073 10.0002 8.33237C10.0002 8.09401 9.80156 7.90078 9.55671 7.90078C9.43798 7.90078 9.3241 7.94625 9.24015 8.02719C9.15619 8.10813 9.10902 8.21791 9.10902 8.33237C9.10902 8.44683 9.15619 8.55661 9.24015 8.63755C9.3241 8.71849 9.43798 8.76396 9.55671 8.76396V8.76396ZM10.7269 9.02372C10.9316 9.02372 11.1008 8.86115 11.1008 8.65924C11.1008 8.45733 10.934 8.29476 10.7269 8.29476C10.6273 8.29551 10.532 8.33428 10.462 8.40259C10.3919 8.4709 10.3527 8.56318 10.3531 8.65924C10.3555 8.85884 10.5217 9.02372 10.7269 9.02372ZM10.8794 7.69424C10.9662 7.69365 11.0492 7.65986 11.1102 7.60031C11.1712 7.54076 11.2051 7.46031 11.2046 7.37663C11.2046 7.20133 11.0588 7.05901 10.8794 7.05901C10.6999 7.05901 10.5541 7.20133 10.5541 7.37663C10.5536 7.46031 10.5876 7.54076 10.6486 7.60031C10.7096 7.65986 10.7926 7.69365 10.8794 7.69424V7.69424ZM9.9792 7.25918C10.0785 7.25895 10.1737 7.22071 10.2438 7.15287C10.3139 7.08503 10.3532 6.99314 10.3531 6.89738C10.353 6.80162 10.3134 6.70983 10.2431 6.64216C10.1729 6.57449 10.0776 6.53648 9.97827 6.53648C9.87893 6.53648 9.78366 6.57449 9.71338 6.64216C9.6431 6.70983 9.60355 6.80162 9.60343 6.89738C9.60331 6.99314 9.64262 7.08503 9.71272 7.15287C9.78283 7.22071 9.878 7.25895 9.97734 7.25918H9.9792ZM8.82276 6.99537C8.94002 6.99445 9.05211 6.94875 9.13446 6.86828C9.21681 6.78781 9.26269 6.67914 9.26205 6.5661C9.26205 6.32774 9.06581 6.13682 8.82276 6.13682C8.57972 6.13682 8.38348 6.33006 8.38348 6.5661C8.383 6.62202 8.39396 6.67748 8.41572 6.72931C8.43748 6.78115 8.46961 6.82834 8.51029 6.86821C8.55097 6.90807 8.5994 6.93982 8.65281 6.96163C8.70622 6.98345 8.76356 6.99492 8.82156 6.99537H8.82276ZM7.40888 6.99711C7.69394 6.99711 7.92378 6.77148 7.92378 6.49436C7.92378 6.21724 7.69394 5.99161 7.40888 5.99161C7.12382 5.99161 6.89398 6.21724 6.89398 6.49436C6.8935 6.62674 6.94738 6.75392 7.04386 6.84812C7.14034 6.94232 7.27157 6.99589 7.40888 6.99711V6.99711ZM5.5047 5.73995C5.82757 5.73995 6.08742 5.48539 6.08742 5.17009C6.08742 4.85479 5.82577 4.60023 5.5047 4.60023C5.18184 4.60023 4.92198 4.85479 4.92198 5.17009C4.92198 5.48539 5.18364 5.73995 5.5047 5.73995ZM7.14363 5.39456C7.42869 5.39456 7.65853 5.16893 7.65853 4.89181C7.65853 4.61469 7.42869 4.38907 7.14363 4.38907C6.85857 4.38907 6.62873 4.61469 6.62873 4.89181C6.62873 5.16893 6.85857 5.39456 7.14363 5.39456V5.39456ZM8.55931 5.40093C8.80416 5.40093 9.0028 5.20769 9.0028 4.9676C9.0028 4.72751 8.80416 4.53428 8.55931 4.53428C8.50076 4.53458 8.44284 4.546 8.38886 4.56788C8.33488 4.58977 8.2859 4.62168 8.24472 4.66181C8.20354 4.70194 8.17096 4.7495 8.14884 4.80177C8.12673 4.85404 8.11551 4.91 8.11582 4.96644V4.96644V4.9676C8.11533 5.08167 8.1617 5.19129 8.24481 5.27249C8.32791 5.3537 8.44099 5.39987 8.55931 5.40093V5.40093ZM9.72114 5.65895C9.92819 5.65895 10.095 5.49638 10.095 5.29448C10.095 5.09257 9.92819 4.93 9.72114 4.93C9.62087 4.93 9.52471 4.9684 9.4538 5.03675C9.3829 5.1051 9.34307 5.19781 9.34307 5.29448C9.34307 5.39114 9.3829 5.48385 9.4538 5.5522C9.52471 5.62055 9.62087 5.65895 9.72114 5.65895ZM10.6135 6.10558C10.7025 6.10497 10.7877 6.07033 10.8502 6.00926C10.9128 5.94819 10.9477 5.86569 10.9472 5.77987C10.9472 5.59879 10.7972 5.45415 10.6135 5.45415C10.4299 5.45415 10.2799 5.60052 10.2799 5.77987C10.2799 5.95921 10.4299 6.10558 10.6135 6.10558ZM11.2683 6.61817C11.3045 6.61794 11.3404 6.61083 11.3738 6.59725C11.4072 6.58366 11.4375 6.56387 11.4629 6.53899C11.4884 6.51412 11.5085 6.48465 11.5222 6.45228C11.5358 6.4199 11.5427 6.38525 11.5425 6.3503V6.34973C11.5428 6.31478 11.536 6.28011 11.5224 6.24771C11.5088 6.2153 11.4888 6.18579 11.4634 6.16086C11.4379 6.13594 11.4077 6.11608 11.3743 6.10243C11.3409 6.08877 11.3051 6.08159 11.2689 6.08128H11.2683C11.232 6.08151 11.1961 6.08862 11.1627 6.1022C11.1293 6.11579 11.099 6.13558 11.0736 6.16046C11.0481 6.18533 11.028 6.2148 11.0143 6.24717C11.0007 6.27955 10.9938 6.3142 10.994 6.34915V6.34973C10.9934 6.38444 11 6.41893 11.0133 6.45121C11.0265 6.48349 11.0463 6.51293 11.0713 6.53785C11.0964 6.56278 11.1264 6.58269 11.1594 6.59646C11.1925 6.61023 11.228 6.61759 11.2641 6.61811H11.2684L11.2683 6.61817Z" fill="white"/>
</svg>
