<svg width="51" height="50" viewBox="0 0 51 50" fill="none" xmlns="http://www.w3.org/2000/svg">
<ellipse cx="25.6819" cy="24.9999" rx="25" ry="24.9999" fill="black"/>
<path d="M33.2725 13.4799C34.2494 13.4799 35.043 12.6989 35.043 11.7393C35.043 10.7798 34.2494 10 33.2725 10C32.2957 10.0049 31.5019 10.7847 31.5019 11.7443C31.5019 12.7038 32.2957 13.4799 33.2725 13.4799ZM33.7948 18.0024C34.1954 17.9995 34.5786 17.8425 34.8597 17.5661C35.1409 17.2897 35.2971 16.9165 35.2941 16.5285C35.2941 15.7177 34.6231 15.0545 33.7948 15.0545C32.9666 15.0545 32.2957 15.7127 32.2957 16.5285C32.2957 17.3442 32.9653 18.0024 33.7948 18.0024ZM37.9108 18.5789C38.7354 18.5789 39.4063 17.9206 39.4063 17.1086C39.4063 16.2965 38.7354 15.6382 37.9108 15.6382C37.0863 15.6382 36.4156 16.2965 36.4156 17.1086C36.4156 17.9206 37.0876 18.5789 37.9108 18.5789ZM37.4167 22.448C38.1233 22.448 38.6957 21.8852 38.6957 21.1922C38.6957 20.4992 38.1233 19.9364 37.4167 19.9364C36.71 19.9364 36.1376 20.4992 36.1376 21.1922C36.1376 21.8852 36.71 22.448 37.4167 22.448ZM40.7121 23.7026C41.4238 23.7026 42 23.1361 42 22.4381C42 21.7402 41.4238 21.1736 40.7121 21.1736C40.5417 21.1747 40.3733 21.2083 40.2165 21.2725C40.0595 21.3367 39.9172 21.4301 39.7975 21.5476C39.6781 21.665 39.5836 21.8041 39.5194 21.9569C39.4554 22.1097 39.4229 22.2732 39.4242 22.4381C39.4242 23.1361 40.0015 23.7026 40.7121 23.7026ZM33.2751 21.9249C33.4483 21.9239 33.6194 21.8899 33.7792 21.8248C33.9388 21.7598 34.0834 21.6649 34.2052 21.5456C34.327 21.4264 34.4233 21.285 34.4885 21.1297C34.554 20.9744 34.5871 20.8082 34.586 20.6405V20.638C34.586 19.9277 34.0009 19.3512 33.2751 19.3512C32.5491 19.3512 31.9642 19.9264 31.9642 20.638C31.9642 21.3447 32.5504 21.9249 33.2751 21.9249ZM32.087 25.003C32.695 25.003 33.1855 24.5196 33.1855 23.9258C33.1878 23.6424 33.0739 23.3697 32.8687 23.1676C32.6633 22.9656 32.3836 22.8508 32.0909 22.8485H32.087C31.4788 22.8485 30.9886 23.332 30.9886 23.9258C30.9886 24.5196 31.4788 25.003 32.087 25.003ZM36.2095 25.5473C36.3535 25.5464 36.496 25.5179 36.6287 25.4637C36.7614 25.4095 36.8817 25.3304 36.9828 25.231C37.0842 25.1318 37.1642 25.0141 37.2183 24.8848C37.2725 24.7555 37.2998 24.6172 37.299 24.4777V24.4751C37.299 23.8825 36.8124 23.4027 36.2095 23.4027C35.6064 23.4027 35.12 23.8825 35.12 24.4751C35.1181 24.6141 35.1445 24.7521 35.1977 24.8812C35.251 25.0103 35.3299 25.1281 35.43 25.2276C35.5302 25.3272 35.6497 25.4067 35.7815 25.4616C35.9136 25.5164 36.0553 25.5456 36.1988 25.5473H36.2095ZM39.4959 26.797C40.1039 26.797 40.5943 26.3136 40.5943 25.7159C40.5943 25.1185 40.1039 24.6349 39.4959 24.6349C38.8877 24.6349 38.3974 25.1185 38.3974 25.7159C38.3942 25.9996 38.5077 26.2731 38.7127 26.4758C38.9178 26.6785 39.1977 26.794 39.4906 26.797H39.4959ZM37.8724 29.1327C38.3859 29.1327 38.8006 28.7224 38.8006 28.2214C38.8006 27.7206 38.3859 27.3102 37.8724 27.3102C37.3591 27.3102 36.9442 27.7206 36.9442 28.2214C36.9442 28.7224 37.3591 29.1327 37.8724 29.1327ZM34.5707 27.9027C35.0931 27.9027 35.5206 27.4838 35.5206 26.9693C35.5206 26.4548 35.097 26.0359 34.5707 26.0359C34.0446 26.0359 33.6207 26.4548 33.6207 26.9693C33.6207 27.4838 34.0484 27.9027 34.5707 27.9027ZM30.4533 27.3325C30.704 27.3286 30.9429 27.2296 31.1189 27.0567C31.2947 26.884 31.3935 26.6511 31.3935 26.4083C31.3937 26.1657 31.2954 25.9326 31.1198 25.7594C30.9442 25.5863 30.7053 25.4871 30.4546 25.4828C30.2039 25.4866 29.9637 25.5856 29.7879 25.7586C29.6119 25.9315 29.5134 26.1644 29.5132 26.407C29.513 26.6498 29.6113 26.8827 29.7869 27.0559C29.9627 27.229 30.2029 27.3284 30.4533 27.3325ZM32.7424 29.5268C33.197 29.5268 33.5618 29.1649 33.5618 28.7247C33.5639 28.5141 33.4795 28.3111 33.3269 28.1607C33.1746 28.0103 32.9666 27.9246 32.749 27.9226H32.7424C32.288 27.9226 31.9232 28.2846 31.9232 28.7247C31.9206 28.9351 32.0047 29.1379 32.1566 29.2883C32.3087 29.4387 32.5161 29.5244 32.7334 29.5268H32.7424ZM36.0429 30.7778C36.4975 30.7778 36.8713 30.4156 36.8713 29.9669C36.8713 29.5182 36.5026 29.1561 36.0429 29.1561C35.8208 29.1561 35.6079 29.2416 35.4509 29.3937C35.2939 29.5456 35.2058 29.752 35.2058 29.9669C35.2058 30.1821 35.2939 30.3882 35.4509 30.5401C35.6079 30.6923 35.8208 30.7778 36.0429 30.7778ZM34.1841 31.7161C34.5438 31.7161 34.8369 31.4286 34.8369 31.0752C34.838 30.9064 34.7697 30.7441 34.6475 30.6239C34.525 30.5039 34.3584 30.4356 34.1841 30.4343C33.8242 30.4343 33.5311 30.7219 33.5311 31.0752C33.5307 31.2439 33.5991 31.4059 33.7214 31.5259C33.8436 31.6459 34.01 31.7142 34.1841 31.7161ZM32.4224 32.2195C32.5005 32.2191 32.5775 32.2036 32.6494 32.1743C32.7213 32.1449 32.7866 32.1023 32.8412 32.0485C32.896 31.9947 32.9395 31.9311 32.9687 31.8612C32.9982 31.7911 33.0131 31.7164 33.0127 31.6407C33.0127 31.3182 32.7462 31.0591 32.4224 31.0591C32.3443 31.0596 32.2673 31.075 32.1954 31.1044C32.1235 31.1337 32.0582 31.1764 32.0036 31.2301C31.9488 31.2839 31.9053 31.3476 31.8761 31.4174C31.8466 31.4875 31.8317 31.5623 31.8321 31.6379C31.8295 31.789 31.8889 31.9366 31.9974 32.0453C32.106 32.1541 32.2545 32.2167 32.4107 32.2193L32.4224 32.2195ZM30.8798 30.5509C31.2676 30.5509 31.5825 30.241 31.5825 29.8615C31.5825 29.4822 31.2676 29.1724 30.8798 29.1724C30.4917 29.1724 30.1769 29.4822 30.1769 29.8615C30.1764 30.043 30.25 30.2172 30.3817 30.3462C30.5133 30.4754 30.6923 30.5489 30.8798 30.5509ZM28.6161 28.9703C29.0669 28.9703 29.4355 28.6131 29.4355 28.168C29.4355 27.7231 29.0707 27.3659 28.6161 27.3659C28.1655 27.3659 27.7969 27.7231 27.7969 28.168C27.7965 28.3795 27.8825 28.5824 28.0358 28.7326C28.1894 28.8829 28.3979 28.9681 28.6161 28.9703ZM35.3286 39.0194C36.3017 39.0194 37.0901 38.2433 37.0901 37.2876C37.0901 36.3316 36.3017 35.5555 35.3286 35.5555C34.3556 35.5555 33.5669 36.3316 33.5669 37.2876C33.5669 38.2433 34.3556 39.0194 35.3286 39.0194ZM30.8542 36.8275C31.6644 36.8275 32.3226 36.1816 32.3226 35.3845C32.3226 34.5874 31.6644 33.9415 30.8542 33.9415C30.0437 33.9415 29.3856 34.5874 29.3856 35.3845C29.3856 36.1816 30.0425 36.8275 30.8542 36.8275ZM28.2974 40C29.1168 40 29.7788 39.3503 29.7788 38.5433C29.7788 37.7412 29.1168 37.0866 28.2974 37.0866C27.478 37.0866 26.8162 37.7363 26.8162 38.5433C26.8131 38.9266 26.9674 39.2954 27.2452 39.5686C27.523 39.8419 27.9014 39.997 28.2974 40ZM27.5279 34.1547C27.6977 34.1536 27.8658 34.12 28.0222 34.0561C28.1786 33.9921 28.3204 33.8989 28.4397 33.7819C28.5589 33.6649 28.6532 33.526 28.717 33.3739C28.781 33.2215 28.8132 33.0584 28.8122 32.8939C28.8132 32.7295 28.781 32.5664 28.717 32.4141C28.6532 32.2617 28.5589 32.1231 28.4397 32.0061C28.3204 31.8889 28.1786 31.7956 28.0222 31.7318C27.8658 31.6677 27.6977 31.6343 27.5279 31.6332C27.3581 31.6343 27.1902 31.6677 27.0338 31.7318C26.8774 31.7956 26.7355 31.8889 26.6163 32.0061C26.497 32.1231 26.4028 32.2617 26.3389 32.4141C26.275 32.5664 26.2427 32.7295 26.2439 32.8939C26.2452 33.5881 26.8213 34.1547 27.5279 34.1547ZM24.9777 37.3705C25.6844 37.3705 26.2567 36.8078 26.2567 36.1148C26.2567 35.4218 25.6844 34.8589 24.9777 34.8589C24.271 34.8589 23.6987 35.4218 23.6987 36.1148C23.6954 36.4446 23.8274 36.7619 24.0658 36.9974C24.3042 37.2331 24.6294 37.3673 24.9699 37.3705H24.9777ZM22.229 39.5524C22.9357 39.5524 23.5041 38.9896 23.5041 38.3003C23.5041 37.6073 22.9319 37.0482 22.229 37.0482C21.5223 37.0482 20.9539 37.6111 20.9539 38.3003C20.9539 38.9896 21.5261 39.5524 22.229 39.5524ZM19.9412 36.7122C20.2318 36.7096 20.5095 36.5959 20.7136 36.3955C20.9177 36.1954 21.0317 35.9249 21.0307 35.6436C21.0307 35.0547 20.5442 34.5749 19.9412 34.5749C19.6514 34.5792 19.375 34.6936 19.1716 34.8936C18.9683 35.0937 18.8543 35.3631 18.8543 35.6436C18.8543 35.9243 18.9683 36.1936 19.1716 36.3936C19.375 36.5935 19.6514 36.7079 19.9412 36.7122ZM22.695 34.5205C22.9858 34.5186 23.2639 34.4048 23.4681 34.2044C23.6724 34.0041 23.7862 33.7334 23.7845 33.4519C23.7845 32.8591 23.298 32.3832 22.695 32.3832C22.4052 32.3869 22.1286 32.5009 21.9248 32.7006C21.7211 32.9001 21.6066 33.1692 21.6061 33.4499C21.6056 33.7306 21.7191 34.0002 21.9221 34.2006C22.1252 34.4007 22.4014 34.5158 22.6912 34.5205H22.695ZM25.2645 31.3058C25.4086 31.3049 25.551 31.2764 25.6838 31.2222C25.8165 31.168 25.9369 31.0889 26.038 30.9895C26.1392 30.8903 26.2192 30.7726 26.2734 30.6432C26.3276 30.514 26.355 30.3758 26.354 30.2363V30.2335C26.354 29.641 25.8675 29.1612 25.2645 29.1612C25.1204 29.1623 24.978 29.1906 24.8452 29.245C24.7125 29.2992 24.5921 29.3783 24.491 29.4775C24.3898 29.5769 24.3098 29.6946 24.2556 29.8238C24.2014 29.953 24.174 30.0914 24.175 30.2309V30.2335C24.175 30.826 24.6615 31.3058 25.2645 31.3058ZM21.3341 31.7485C21.8564 31.7485 22.2802 31.3343 22.2802 30.8198C22.2802 30.3053 21.8564 29.8913 21.3341 29.8913C20.8118 29.8913 20.388 30.3053 20.388 30.8198C20.388 31.3343 20.8118 31.7485 21.3341 31.7485ZM18.5944 33.9316C18.7181 33.931 18.8405 33.9066 18.9546 33.8603C19.0686 33.8138 19.1721 33.7461 19.2592 33.6608C19.3462 33.5757 19.415 33.4748 19.4617 33.3638C19.5085 33.2528 19.5322 33.1341 19.5315 33.0141V33.0117C19.5339 32.77 19.4371 32.5373 19.2623 32.3648C19.0875 32.1923 18.8492 32.0941 18.5996 32.0918H18.5944C18.4706 32.0924 18.3482 32.1166 18.2342 32.1631C18.1201 32.2096 18.0166 32.2774 17.9296 32.3626C17.8425 32.4477 17.7737 32.5486 17.727 32.6596C17.6802 32.7706 17.6565 32.8894 17.6572 33.0091V33.0117C17.6564 33.1317 17.6799 33.2506 17.7266 33.3619C17.7732 33.4731 17.842 33.5742 17.929 33.6595C18.0161 33.745 18.1196 33.8129 18.2338 33.8596C18.3479 33.9064 18.4704 33.9308 18.5944 33.9316ZM17.9645 31.3729C18.1804 31.3711 18.3869 31.2867 18.5388 31.138C18.6907 30.9893 18.7756 30.7885 18.7749 30.5794C18.7749 30.1392 18.41 29.7859 17.9645 29.7859C17.5189 29.7859 17.1541 30.1431 17.1541 30.5794C17.1541 31.0195 17.5189 31.3729 17.9645 31.3729ZM17.9414 29.1276C18.0334 29.1269 18.1243 29.1085 18.2089 29.0736C18.2936 29.0389 18.3703 28.9883 18.4348 28.9246C18.4992 28.8612 18.5501 28.786 18.5845 28.7033C18.6189 28.6208 18.6362 28.5323 18.6353 28.4434C18.6353 28.0677 18.3242 27.7589 17.9414 27.7589C17.5586 27.7589 17.2475 28.0641 17.2475 28.4434C17.2475 28.8226 17.5586 29.1276 17.9414 29.1276ZM18.3229 27.2607C18.652 27.2607 18.9132 26.9991 18.9132 26.6804C18.9132 26.3618 18.6468 26.1004 18.3229 26.1004C17.9939 26.1004 17.7327 26.3618 17.7327 26.6804C17.7327 26.9991 17.9939 27.2607 18.3229 27.2607ZM20.685 26.9483C21.0729 26.9483 21.3879 26.6382 21.3879 26.2589C21.3879 25.8796 21.0729 25.5696 20.685 25.5696C20.2971 25.5696 19.9822 25.8796 19.9822 26.2589C19.9815 26.4404 20.055 26.6149 20.1867 26.7441C20.3184 26.8731 20.4976 26.9466 20.685 26.9483ZM23.2775 25.9701C23.7282 25.9701 24.0969 25.6081 24.0969 25.168C24.0989 24.9572 24.0145 24.7543 23.862 24.6039C23.7096 24.4535 23.5017 24.3679 23.2841 24.3659H23.2775C22.8269 24.3659 22.4582 24.7279 22.4582 25.168C22.4573 25.2726 22.4778 25.3761 22.5183 25.4731C22.5588 25.57 22.6186 25.6581 22.6944 25.7326C22.7701 25.807 22.8602 25.8664 22.9596 25.9071C23.0591 25.9478 23.1658 25.9692 23.2737 25.9701H23.2775ZM23.8946 28.5164C24.1412 28.516 24.3774 28.4206 24.5515 28.2516C24.7255 28.0825 24.8232 27.8534 24.8229 27.6147C24.8227 27.376 24.7246 27.1471 24.5501 26.9785C24.3757 26.8096 24.1392 26.7149 23.8927 26.7149C23.6461 26.7149 23.4097 26.8096 23.2353 26.9785C23.0608 27.1471 22.9627 27.376 22.9625 27.6147C22.9622 27.8534 23.0598 28.0825 23.2339 28.2516C23.408 28.4206 23.6442 28.516 23.8908 28.5164H23.8946ZM20.7183 29.1946C21.169 29.1946 21.5287 28.8376 21.5287 28.3962C21.5287 27.9548 21.1638 27.5978 20.7183 27.5978C20.6112 27.5984 20.5053 27.6194 20.4066 27.6597C20.3079 27.7 20.2184 27.7587 20.1431 27.8326C20.0679 27.9064 20.0084 27.9938 19.968 28.0898C19.9277 28.1858 19.9072 28.2886 19.9079 28.3924V28.3962C19.9064 28.4995 19.9259 28.6021 19.9653 28.6984C20.0048 28.7944 20.0634 28.882 20.1377 28.9559C20.2122 29.0301 20.3009 29.0894 20.3989 29.1304C20.497 29.1713 20.6023 29.1929 20.7091 29.1944L20.7183 29.1946ZM11.7565 28.0107C12.7244 28.0107 13.513 27.2382 13.513 26.2874C13.513 25.3366 12.7244 24.5642 11.7565 24.5642C10.7886 24.5642 10 25.3379 10 26.2887C10 27.2395 10.7886 28.0107 11.7565 28.0107ZM15.7432 24.9337C16.5767 24.9337 17.2475 24.2704 17.2475 23.4547C17.2475 22.639 16.5716 21.9757 15.7432 21.9757C15.3416 21.9783 14.9574 22.1353 14.6753 22.4122C14.3932 22.6891 14.2362 23.0631 14.2389 23.4521V23.4547C14.2389 24.2754 14.9149 24.9337 15.7432 24.9337ZM14.1877 21.1401C15.016 21.1401 15.6831 20.4818 15.6831 19.6698C15.6831 18.8578 15.0122 18.1995 14.1877 18.1995C13.99 18.2008 13.7945 18.2398 13.6123 18.3142C13.4302 18.3887 13.265 18.4972 13.1261 18.6334C12.9872 18.7698 12.8775 18.9312 12.8031 19.1086C12.7286 19.2859 12.691 19.4758 12.6924 19.6672V19.6698C12.6883 20.0558 12.8428 20.4275 13.1217 20.7033C13.4007 20.979 13.7813 21.1361 14.1799 21.1401H14.1877ZM18.031 19.3425C18.7378 19.3425 19.3151 18.7797 19.3151 18.0817C19.3151 17.3838 18.739 16.821 18.031 16.821C17.3231 16.821 16.7469 17.3838 16.7469 18.0817C16.7469 18.7797 17.3244 19.3425 18.031 19.3425ZM19.6019 23.1274C20.3137 23.1274 20.8899 22.5608 20.8899 21.8629C20.8899 21.1649 20.3137 20.5984 19.6019 20.5984C18.8901 20.5984 18.314 21.1649 18.314 21.8629C18.314 22.5608 18.8901 23.1274 19.6019 23.1274ZM23.0996 22.3414C23.3922 22.3391 23.672 22.2243 23.8772 22.0223C24.0825 21.8203 24.1965 21.5476 24.1942 21.2642C24.1964 21.125 24.1703 20.9868 24.1173 20.8574C24.0643 20.7279 23.9855 20.6099 23.8855 20.51C23.7854 20.41 23.6659 20.3302 23.534 20.2749C23.402 20.2197 23.2601 20.1902 23.1164 20.188C22.9726 20.1859 22.8298 20.2112 22.6962 20.2625C22.5625 20.3138 22.4406 20.3901 22.3374 20.487C22.2342 20.5839 22.1517 20.6996 22.0947 20.8273C22.0377 20.9551 22.0072 21.0925 22.005 21.2317C22.005 21.2426 22.005 21.2535 22.005 21.2642C22.0016 21.5466 22.1142 21.8188 22.318 22.0208C22.5218 22.2228 22.8001 22.3382 23.0918 22.3415L23.0996 22.3414ZM26.121 22.3513C26.6433 22.3513 27.0671 21.9373 27.0671 21.4265C27.0671 20.9157 26.6433 20.5017 26.121 20.5017C25.8677 20.5017 25.6247 20.5991 25.4457 20.7726C25.2665 20.946 25.1659 21.1812 25.1659 21.4265C25.1659 21.6718 25.2665 21.907 25.4457 22.0805C25.6247 22.2539 25.8677 22.3513 26.121 22.3513ZM28.6174 22.908C29.0541 22.908 29.415 22.5596 29.415 22.1269C29.415 21.6943 29.0592 21.3459 28.6174 21.3459C28.4049 21.3475 28.2016 21.4306 28.0523 21.577C27.9027 21.7234 27.8191 21.9211 27.8199 22.1269C27.8251 22.5547 28.1796 22.908 28.6174 22.908ZM28.9427 20.0591C29.1279 20.0578 29.305 19.9854 29.4351 19.8578C29.5652 19.7302 29.6375 19.5578 29.6365 19.3785C29.6365 19.0028 29.3254 18.6979 28.9427 18.6979C28.5598 18.6979 28.2487 19.0028 28.2487 19.3785C28.2477 19.5578 28.3202 19.7302 28.4503 19.8578C28.5805 19.9854 28.7575 20.0578 28.9427 20.0591ZM27.0223 19.1268C27.2341 19.1263 27.4372 19.0444 27.5868 18.899C27.7363 18.7536 27.8202 18.5567 27.8199 18.3515C27.8197 18.1463 27.7353 17.9496 27.5853 17.8046C27.4355 17.6596 27.2322 17.5782 27.0203 17.5782C26.8084 17.5782 26.6051 17.6596 26.4552 17.8046C26.3053 17.9496 26.2209 18.1463 26.2207 18.3515C26.2204 18.5567 26.3043 18.7536 26.4538 18.899C26.6034 19.0444 26.8064 19.1263 27.0183 19.1268H27.0223ZM24.5552 18.5615C24.8054 18.5595 25.0445 18.4616 25.2202 18.2892C25.3959 18.1167 25.4937 17.8839 25.4924 17.6416C25.4924 17.1309 25.0737 16.7218 24.5552 16.7218C24.0367 16.7218 23.6181 17.1358 23.6181 17.6416C23.6171 17.7615 23.6404 17.8803 23.6869 17.9914C23.7333 18.1025 23.8018 18.2036 23.8886 18.289C23.9754 18.3744 24.0787 18.4425 24.1927 18.4892C24.3066 18.536 24.4289 18.5605 24.5527 18.5615H24.5552ZM21.5389 18.5652C22.1471 18.5652 22.6374 18.0817 22.6374 17.4879C22.6374 16.8941 22.1471 16.4106 21.5389 16.4106C20.9308 16.4106 20.4405 16.8941 20.4405 17.4879C20.4395 17.7716 20.5544 18.0441 20.7602 18.246C20.9661 18.4478 21.246 18.5626 21.5389 18.5652ZM17.4767 15.8713C18.1655 15.8713 18.7198 15.3258 18.7198 14.6502C18.7198 13.9746 18.1616 13.4291 17.4767 13.4291C16.7879 13.4291 16.2336 13.9746 16.2336 14.6502C16.2336 15.3258 16.7918 15.8713 17.4767 15.8713ZM20.9731 15.1312C21.5812 15.1312 22.0715 14.6477 22.0715 14.0539C22.0715 13.46 21.5812 12.9766 20.9731 12.9766C20.3649 12.9766 19.8746 13.46 19.8746 14.0539C19.8746 14.6477 20.3649 15.1312 20.9731 15.1312ZM23.9932 15.1448C24.5155 15.1448 24.9393 14.7308 24.9393 14.2163C24.9393 13.7018 24.5155 13.2877 23.9932 13.2877C23.8683 13.2884 23.7447 13.3129 23.6296 13.3597C23.5144 13.4067 23.4099 13.475 23.3221 13.561C23.2342 13.647 23.1647 13.7489 23.1175 13.8609C23.0704 13.9729 23.0464 14.0929 23.0471 14.2138V14.2163C23.046 14.4607 23.145 14.6956 23.3223 14.8696C23.4995 15.0436 23.7408 15.1426 23.9932 15.1448ZM26.4718 15.6977C26.9135 15.6977 27.2693 15.3494 27.2693 14.9167C27.2693 14.4841 26.9135 14.1357 26.4718 14.1357C26.2579 14.1357 26.0527 14.218 25.9014 14.3645C25.7502 14.5109 25.6652 14.7096 25.6652 14.9167C25.6652 15.1239 25.7502 15.3225 25.9014 15.469C26.0527 15.6155 26.2579 15.6977 26.4718 15.6977ZM28.3755 16.6548C28.5653 16.6535 28.7471 16.5793 28.8804 16.4484C29.014 16.3176 29.0884 16.1408 29.0874 15.9569C29.0874 15.5688 28.7674 15.2589 28.3755 15.2589C27.9838 15.2589 27.6638 15.5725 27.6638 15.9569C27.6638 16.3412 27.9838 16.6548 28.3755 16.6548ZM29.7724 17.7532C29.8496 17.7527 29.9262 17.7375 29.9974 17.7084C30.0687 17.6793 30.1333 17.6369 30.1875 17.5835C30.2419 17.5303 30.2848 17.4671 30.314 17.3977C30.343 17.3284 30.3578 17.2541 30.3573 17.1792C30.358 17.1043 30.3435 17.0288 30.3145 16.9594C30.2854 16.8899 30.2428 16.8267 30.1886 16.7733C30.1342 16.7199 30.0698 16.6773 29.9985 16.6481C29.9273 16.6188 29.8509 16.6034 29.7737 16.6027C29.6962 16.6032 29.6183 16.6185 29.5471 16.6476C29.4758 16.6767 29.4112 16.7191 29.357 16.7724C29.3026 16.8257 29.2597 16.8889 29.2305 16.9582C29.2015 17.0276 29.1868 17.1019 29.1872 17.1768C29.1859 17.2511 29.2 17.3263 29.2284 17.3954C29.2565 17.4646 29.2988 17.5277 29.3521 17.5811C29.4057 17.6345 29.4697 17.6772 29.5401 17.7067C29.6107 17.7362 29.6864 17.752 29.7634 17.7531L29.7724 17.7532Z" fill="white"/>
</svg>
