<svg width="51" height="50" viewBox="0 0 51 50" fill="none" xmlns="http://www.w3.org/2000/svg">
<ellipse cx="25.6819" cy="24.9999" rx="25" ry="24.9999" fill="#00D4D5"/>
<path d="M28.3635 10V17.2778L34.6824 13.6436L28.3635 10Z" fill="white"/>
<path opacity="0.9" d="M34.6826 13.6436V20.9214L41.0002 17.2778L34.6826 13.6436Z" fill="white"/>
<path opacity="0.8" d="M28.3635 17.2778V24.5557L34.6824 20.9214L28.3635 17.2778ZM34.6824 20.9214V28.1992L41 24.5557L34.6824 20.9214Z" fill="white"/>
<path opacity="0.8" d="M28.3635 24.5556V31.8335L34.6824 28.1992L28.3635 24.5556Z" fill="white"/>
<path d="M34.6826 28.1992V35.477L41.0002 31.8335L34.6826 28.1992Z" fill="white"/>
<path opacity="0.4" d="M12.0312 17.0324V24.3103L18.3502 20.6667L12.0312 17.0324Z" fill="white"/>
<path opacity="0.2" d="M20.0027 19.7384V27.0163L26.3109 23.382L20.0027 19.7384Z" fill="white"/>
<path opacity="0.3" d="M15.3188 24.3409V31.6187L21.6364 27.9752L15.3188 24.3409Z" fill="white"/>
<path opacity="0.9" d="M19.4827 29.8329V37.1108L25.7909 33.4672L19.4827 29.8329Z" fill="white"/>
<path opacity="0.7" d="M28.3115 32.9658V40.2449L34.6198 36.6L28.3115 32.9658Z" fill="white"/>
<path opacity="0.9" d="M21.0552 16.1442V23.4233L27.3634 19.7891L21.0552 16.1442Z" fill="white"/>
<path opacity="0.8" d="M28.3636 10V17.2778L22.0447 13.6436L28.3636 10Z" fill="white"/>
<path opacity="0.6" d="M21.0551 13.0941V20.3706L14.7349 16.727L21.0551 13.0941Z" fill="white"/>
<path opacity="0.6" d="M27.3741 16.695V23.9742L21.0552 20.3292L27.3741 16.695Z" fill="white"/>
<path opacity="0.95" d="M19.9735 19.7384V27.0163L13.6545 23.382L19.9735 19.7384Z" fill="white"/>
<path opacity="0.6" d="M28.3637 24.5556V31.8335L22.0554 28.1992L28.3637 24.5556Z" fill="white"/>
<path opacity="0.55" d="M15.3189 26.2507V33.5286L9 29.8836L15.3189 26.2507Z" fill="white"/>
<path d="M41.0002 17.2778V24.5557L34.6826 20.9214L41.0002 17.2778Z" fill="white"/>
<path opacity="0.95" d="M34.6824 20.9227V28.1992L28.3635 24.5556L34.6824 20.9227Z" fill="white"/>
<path opacity="0.9" d="M41.0002 24.5556V31.8335L34.6826 28.1992L41.0002 24.5556Z" fill="white"/>
<path opacity="0.7" d="M34.6824 28.1992V35.477L28.3635 31.8335L34.6824 28.1992Z" fill="white"/>
<path opacity="0.4" d="M26.9643 31.232V38.5098L20.6467 34.8756L26.9643 31.232Z" fill="white"/>
<path d="M34.6824 13.6436V20.9214L28.3635 17.2778L34.6824 13.6436Z" fill="white"/>
</svg>
