<svg width="51" height="50" viewBox="0 0 51 50" fill="none" xmlns="http://www.w3.org/2000/svg">
<ellipse cx="25.6819" cy="24.9999" rx="25" ry="24.9999" fill="white"/>
<path d="M27.6973 22.8571L28.3564 23.7684C28.3564 23.7684 32.3233 29.9723 34.3101 33.0694C35.6805 35.2182 37.051 37.3671 38.4238 39.5146C38.529 39.6685 38.6263 39.8286 38.7141 39.9936C36.2715 40.0047 33.829 39.9985 31.3877 39.9961C28.9566 36.154 24.1304 28.444 24.1304 28.444L23.7141 27.6364" fill="url(#paint0_linear_62_76)"/>
<path d="M20.1813 28.5968C20.0779 28.6761 20.0859 28.8076 20.0859 28.9227L19.9732 29.2857L19.4285 20.8417L20.0952 20.1541C20.2662 20.0416 26.8869 13.2935 30.0733 10.0805C30.149 9.97827 30.2855 10.0089 30.3969 10C33.1697 10.0089 38.7142 10.0064 38.7142 10.0064C38.7142 10.0064 20.9886 27.7711 20.1813 28.5968Z" fill="url(#paint1_linear_62_76)"/>
<path d="M13 10H21.5714V40H13V10Z" fill="#69009A"/>
<defs>
<linearGradient id="paint0_linear_62_76" x1="25.8928" y1="25.8145" x2="32.265" y2="34.387" gradientUnits="userSpaceOnUse">
<stop stop-color="#EA078C"/>
<stop offset="1" stop-color="#69009A"/>
</linearGradient>
<linearGradient id="paint1_linear_62_76" x1="18.8645" y1="23.3248" x2="32.262" y2="14.7847" gradientUnits="userSpaceOnUse">
<stop stop-color="#EA078C"/>
<stop offset="1" stop-color="#69009A"/>
</linearGradient>
</defs>
</svg>
