<svg width="53" height="75" viewBox="0 0 53 75" fill="none" xmlns="http://www.w3.org/2000/svg">
<g clip-path="url(#clip0_2214_14240)">
<path d="M27.3585 18.6762C27.3585 15.7066 29.7888 13.2873 32.7721 13.2873H42.4588V0.17627H37.6154H32.7721C22.5094 0.17627 14.1876 8.46026 14.1876 18.6762C14.1876 21.342 14.7578 23.876 15.7771 26.1632C7.80662 29.517 2.51406 36.643 1.28162 45.6607C-0.158138 55.5615 3.82712 66.2417 12.506 71.4013C20.2519 76.2571 32.3631 75.9361 38.9055 69.1998V73.6716H52.3874V24.065H32.7778C29.7947 24.065 27.3585 21.6459 27.3585 18.6762ZM39.205 37.1819V49.6336C39.205 56.5131 33.6015 62.0854 26.6964 62.0854C19.7912 62.0854 14.1876 56.5073 14.1876 49.6336C14.1876 42.7599 19.7912 37.1819 26.6964 37.1819H39.205Z" fill="#BFF009"/>
</g>
<defs>
<clipPath id="clip0_2214_14240">
<rect width="51.5725" height="74.714" fill="white" transform="translate(0.898376)"/>
</clipPath>
</defs>
</svg>
