<svg width="52" height="50" viewBox="0 0 52 50" fill="none" xmlns="http://www.w3.org/2000/svg">
<g id="Group 1000006813">
<ellipse id="Ellipse 3025" cx="26.0908" cy="24.9999" rx="25.4089" ry="24.9999" fill="white"/>
<path id="Vector" fill-rule="evenodd" clip-rule="evenodd" d="M35.4963 36.4616L26.0259 26.8904L16.4234 36.5336C18.3319 37.8049 21.3207 39.9758 25.9298 39.9998C30.539 40.0238 34.236 37.733 35.4843 36.4736L35.4963 36.4616ZM37.4648 15.4002L27.8623 24.9714C31.0792 28.1738 34.248 31.4122 37.4288 34.6385C42.4101 28.2817 41.954 21.733 37.4648 15.3883V15.4002ZM14.4669 34.4946L22.785 12.3658L11.118 24.0959C10.5178 27.5141 12.2943 31.8559 14.4669 34.4946ZM18.848 30.1408C19.4482 29.9849 32.6756 16.4077 35.5203 13.5892C34.044 11.6222 28.9786 9.91902 26.446 10.003L18.848 30.1408Z" fill="url(#paint0_linear_201_52)"/>
</g>
<defs>
<linearGradient id="paint0_linear_201_52" x1="19.2218" y1="38.4011" x2="34.1125" y2="12.3644" gradientUnits="userSpaceOnUse">
<stop stop-color="#850000"/>
<stop offset="0.251" stop-color="#C70158"/>
<stop offset="0.4824" stop-color="#DE1E41"/>
<stop offset="0.6392" stop-color="#F63B2A"/>
<stop offset="1" stop-color="#FF8700"/>
</linearGradient>
</defs>
</svg>
