<svg width="51" height="50" viewBox="0 0 51 50" fill="none" xmlns="http://www.w3.org/2000/svg">
<ellipse cx="25.6816" cy="24.9999" rx="25" ry="24.9999" fill="#22B4AB"/>
<path d="M11 24.9788C10.9933 28.956 12.5672 32.7728 15.3755 35.59C18.1838 38.4069 21.9964 39.9933 25.9747 40C29.9529 40.0067 33.7708 38.4333 36.5888 35.6257C39.4065 32.8182 40.9933 29.0066 41 25.0296V24.916C40.9994 23.7625 40.8633 22.613 40.5946 21.4913C40.4849 21.0884 40.2233 20.7439 39.8645 20.5302C39.5057 20.3165 39.078 20.2504 38.6714 20.3457C38.265 20.4411 37.9113 20.6905 37.685 21.0414C37.4589 21.3923 37.3778 21.8173 37.4587 22.2269C38.0653 24.7257 37.8385 27.3542 36.8133 29.7123C35.788 32.0705 34.0202 34.0292 31.7786 35.2904C29.5373 36.5515 26.9451 37.0462 24.3968 36.6991C21.8483 36.3518 19.4831 35.1818 17.661 33.3671C15.8389 31.5522 14.6598 29.1921 14.303 26.6455C13.9462 24.0991 14.4313 21.5059 15.6846 19.2604C16.9378 17.015 18.8904 15.2403 21.2454 14.2065C23.6004 13.1727 26.2287 12.9363 28.7304 13.5334C29.1452 13.6301 29.5814 13.5586 29.9433 13.3345C30.3053 13.1104 30.564 12.752 30.6621 12.3377C30.7121 12.1336 30.7209 11.9215 30.6881 11.7139C30.6554 11.5063 30.5818 11.3072 30.4715 11.1283C30.3613 10.9494 30.2165 10.7941 30.0455 10.6716C29.8747 10.5491 29.6813 10.4618 29.4764 10.4146C27.5622 9.95476 25.5763 9.87653 23.6319 10.1844C21.6876 10.4923 19.823 11.1802 18.1447 12.2089C16.4664 13.2376 15.0074 14.5869 13.8511 16.1796C12.6947 17.7724 11.8637 19.5773 11.4054 21.4913C11.1372 22.6345 11.0012 23.8046 11 24.9788Z" fill="white"/>
<path d="M33.2766 14.4235C33.2514 14.4488 33.2397 14.4741 33.226 14.4858C32.8717 14.8618 32.6538 15.346 32.6075 15.8606V16.1075C32.6075 16.1698 32.5958 16.2184 32.5958 16.2806C32.5431 16.8242 32.3834 17.352 32.126 17.8338C31.8687 18.3155 31.5186 18.7417 31.0961 19.0879C30.6735 19.4341 30.1867 19.6934 29.6637 19.8511C29.1406 20.0087 28.5914 20.0615 28.0479 20.0065C27.8647 19.9905 27.6828 19.9619 27.5033 19.9209C27.3978 19.899 27.2936 19.8697 27.1921 19.8334C26.7511 19.7221 26.2967 19.6724 25.8421 19.6856C24.5162 19.7115 23.2457 20.2221 22.2707 21.1207C22.2221 21.1693 22.1599 21.2082 22.1093 21.2685C21.5757 21.7613 21.1471 22.3568 20.8493 23.0192C20.5515 23.6816 20.3905 24.3972 20.3761 25.1234C20.3616 25.8495 20.494 26.5709 20.7652 27.2447C21.0364 27.9185 21.4409 28.5304 21.9545 29.0441C22.468 29.5578 23.08 29.9624 23.7538 30.234C24.4276 30.5053 25.1493 30.638 25.8756 30.6239C26.602 30.6099 27.3178 30.4494 27.9807 30.1519C28.6434 29.8545 29.2392 29.4265 29.7325 28.8934C29.9554 28.6682 30.1585 28.4243 30.3394 28.164C30.7744 27.5384 31.0721 26.8282 31.2134 26.0794C31.3546 25.3308 31.3357 24.5607 31.1584 23.8198C31.1277 23.7221 31.1023 23.6228 31.0824 23.5223C31.0824 23.5087 31.0707 23.497 31.0707 23.4717C30.947 22.9392 30.9295 22.3875 31.0196 21.8483C31.1096 21.309 31.3052 20.7929 31.5954 20.3294C31.8854 19.866 32.2642 19.4644 32.7099 19.1477C33.1558 18.831 33.6596 18.6054 34.1929 18.4838C34.3841 18.4369 34.5795 18.4083 34.7765 18.3983L34.862 18.3847C34.9484 18.375 35.0355 18.3711 35.1226 18.373H35.148C35.6857 18.3215 36.1889 18.085 36.5717 17.7041C36.6594 17.6049 36.7468 17.5096 36.8208 17.4065C36.998 17.1584 37.1243 16.8776 37.1921 16.5804C37.26 16.2832 37.2683 15.9754 37.2163 15.675C37.1644 15.3746 37.0533 15.0874 36.8897 14.8302C36.7258 14.573 36.5128 14.3508 36.2625 14.1766C35.815 13.861 35.2705 13.7128 34.7247 13.7579C34.1788 13.8031 33.6663 14.0387 33.2766 14.4235Z" fill="white"/>
</svg>
