<svg width="20" height="20" viewBox="0 0 20 20" fill="none" xmlns="http://www.w3.org/2000/svg">
<circle cx="10" cy="10" r="10" fill="#22B4AB"/>
<path d="M2.43751 9.98932C2.43412 11.9945 3.22763 13.9188 4.64348 15.3391C6.05933 16.7593 7.98153 17.5591 9.98723 17.5625C11.9929 17.5659 13.9178 16.7726 15.3385 15.3571C16.7591 13.9417 17.5591 12.02 17.5625 10.0149V9.95765C17.5622 9.37609 17.4936 8.79657 17.3581 8.23102C17.3028 8.02792 17.1709 7.85421 16.99 7.74647C16.8091 7.63874 16.5935 7.6054 16.3885 7.65348C16.1836 7.70157 16.0053 7.82731 15.8912 8.00423C15.7772 8.18114 15.7363 8.39541 15.7771 8.60188C16.0829 9.86169 15.9686 11.1869 15.4517 12.3758C14.9348 13.5647 14.0435 14.5522 12.9134 15.1881C11.7834 15.8239 10.4765 16.0733 9.1917 15.8983C7.90685 15.7232 6.71438 15.1333 5.79575 14.2184C4.87712 13.3034 4.28264 12.1135 4.10276 10.8296C3.92289 9.5458 4.16747 8.23837 4.7993 7.1063C5.43112 5.97423 6.41559 5.0795 7.60288 4.55829C8.79018 4.03707 10.1153 3.91789 11.3766 4.2189C11.5857 4.26767 11.8056 4.23162 11.9881 4.11864C12.1706 4.00566 12.301 3.82495 12.3505 3.61611C12.3757 3.51317 12.3801 3.40626 12.3636 3.30159C12.3471 3.19691 12.31 3.09656 12.2544 3.00635C12.1988 2.91614 12.1258 2.83788 12.0396 2.77612C11.9535 2.71435 11.856 2.6703 11.7527 2.64654C10.7876 2.41469 9.78637 2.37525 8.8061 2.53047C7.82582 2.6857 6.88575 3.03254 6.03963 3.55117C5.1935 4.06981 4.45792 4.75006 3.87492 5.55306C3.29191 6.35606 2.87293 7.26605 2.6419 8.23102C2.50669 8.80737 2.43811 9.39733 2.43751 9.98932Z" fill="white"/>
<path d="M13.6686 4.66769C13.6559 4.68044 13.65 4.69318 13.6431 4.69907C13.4645 4.88867 13.3546 5.13276 13.3313 5.39221V5.51672C13.3313 5.54809 13.3254 5.5726 13.3254 5.60398C13.2988 5.87804 13.2183 6.14415 13.0885 6.38703C12.9588 6.62992 12.7823 6.84479 12.5693 7.01932C12.3562 7.19386 12.1108 7.32461 11.8471 7.40408C11.5834 7.48355 11.3065 7.51018 11.0325 7.48242C10.9401 7.47435 10.8484 7.45994 10.7579 7.43929C10.7047 7.42822 10.6522 7.41348 10.601 7.39517C10.3787 7.33908 10.1496 7.31401 9.9204 7.32066C9.25192 7.33373 8.61139 7.59112 8.11983 8.04419C8.09531 8.0687 8.06393 8.08831 8.03843 8.1187C7.76942 8.36717 7.55335 8.66737 7.4032 9.00133C7.25304 9.33529 7.17189 9.69611 7.1646 10.0622C7.15731 10.4283 7.22404 10.792 7.36078 11.1317C7.49752 11.4714 7.70146 11.7799 7.96038 12.0389C8.21929 12.2979 8.52785 12.5019 8.86755 12.6388C9.20725 12.7756 9.5711 12.8425 9.93728 12.8354C10.3035 12.8283 10.6644 12.7474 10.9986 12.5974C11.3327 12.4475 11.6331 12.2317 11.8818 11.9629C11.9942 11.8494 12.0966 11.7264 12.1878 11.5952C12.4071 11.2798 12.5572 10.9217 12.6284 10.5442C12.6996 10.1668 12.6901 9.77853 12.6007 9.40499C12.5852 9.35573 12.5724 9.30565 12.5624 9.25499C12.5624 9.24813 12.5565 9.24224 12.5565 9.2295C12.4941 8.96103 12.4853 8.68288 12.5307 8.41101C12.5761 8.13914 12.6747 7.87892 12.821 7.64526C12.9672 7.41161 13.1582 7.20913 13.3829 7.04945C13.6077 6.88977 13.8617 6.77603 14.1306 6.71477C14.227 6.69111 14.3255 6.67667 14.4248 6.67163L14.4679 6.66477C14.5115 6.65987 14.5554 6.65791 14.5993 6.65889H14.6121C14.8832 6.6329 15.1369 6.51371 15.3299 6.32163C15.3741 6.27163 15.4182 6.22359 15.4555 6.17163C15.5448 6.04654 15.6085 5.90497 15.6427 5.75512C15.6769 5.60527 15.6811 5.45011 15.6549 5.29865C15.6287 5.14718 15.5727 5.00242 15.4902 4.87274C15.4076 4.74306 15.3002 4.63104 15.174 4.54318C14.9484 4.38408 14.6739 4.30937 14.3987 4.33213C14.1235 4.35489 13.8651 4.47368 13.6686 4.66769Z" fill="white"/>
</svg>
