<svg width="20" height="20" viewBox="0 0 20 20" fill="none" xmlns="http://www.w3.org/2000/svg">
<circle cx="10" cy="10" r="10" fill="black"/>
<path d="M16.6634 5.22645C16.4275 5.04051 16.1464 4.78654 15.6339 4.72305C15.1532 4.65956 14.6634 4.98155 14.3323 5.1947C14.0012 5.40785 13.3754 6.0337 13.1169 6.22418C12.8584 6.41465 12.1963 6.59153 11.1305 7.23098C10.0647 7.87043 5.88333 10.5552 5.88333 10.5552L6.97177 10.5688L2.11916 13.0677H2.60442L1.90601 13.5983C1.90601 13.5983 2.52279 13.7616 3.03979 13.435V13.5847C3.03979 13.5847 8.81757 11.3081 9.93322 11.8976L9.25294 12.0972C9.3119 12.0972 10.4094 12.1697 10.4094 12.1697C10.436 12.397 10.5124 12.6156 10.6331 12.81C10.7539 13.0044 10.9159 13.1698 11.1078 13.2945C11.77 13.7298 11.7836 13.9702 11.7836 13.9702C11.7836 13.9702 11.4389 14.1108 11.4389 14.2877C11.4389 14.2877 11.9468 14.1335 12.4185 14.1471C12.7178 14.1584 13.0147 14.2056 13.3028 14.2877C13.3028 14.2877 13.2666 14.0972 12.8085 13.9702C12.3505 13.8432 11.8969 13.3443 11.6747 13.0722C11.5386 12.899 11.4499 12.6934 11.4173 12.4755C11.3847 12.2577 11.4093 12.0351 11.4888 11.8296C11.6475 11.4169 12.2008 11.1902 13.3436 10.6006C14.6906 9.90217 14.999 9.38517 15.1895 8.98154C15.3799 8.57791 15.6611 7.7752 15.8198 7.39878C16.0194 6.91352 16.2643 6.65502 16.4684 6.50082C16.6724 6.34663 17.5795 6.00649 17.5795 6.00649C17.5795 6.00649 16.8856 5.40332 16.6634 5.22645Z" fill="white"/>
</svg>
