<svg width="51" height="50" viewBox="0 0 51 50" fill="none" xmlns="http://www.w3.org/2000/svg">
<ellipse cx="25.6816" cy="24.9999" rx="25" ry="24.9999" fill="black"/>
<path d="M40.8374 15.1756C40.2805 14.7483 39.6169 14.1646 38.4071 14.0187C37.2723 13.8728 36.116 14.6128 35.3344 15.1027C34.5528 15.5925 33.0755 17.0308 32.4653 17.4686C31.855 17.9063 30.292 18.3128 27.776 19.7824C25.26 21.252 15.3892 27.422 15.3892 27.422L17.9586 27.4533L6.50318 33.1962H7.64872L6 34.4156C6 34.4156 7.45602 34.7909 8.67648 34.0403V34.3844C8.67648 34.3844 22.3159 29.1523 24.9496 30.5071L23.3437 30.9658C23.4829 30.9658 26.0737 31.1325 26.0737 31.1325C26.1365 31.6548 26.3169 32.1572 26.6018 32.604C26.887 33.0507 27.2694 33.4309 27.7224 33.7174C29.2857 34.7178 29.3178 35.2703 29.3178 35.2703C29.3178 35.2703 28.504 35.5935 28.504 36C28.504 36 29.703 35.6456 30.8166 35.6769C31.5231 35.7028 32.224 35.8113 32.9041 36C32.9041 36 32.8186 35.5622 31.7372 35.2703C30.656 34.9785 29.5852 33.8319 29.0607 33.2066C28.7394 32.8085 28.53 32.336 28.4531 31.8352C28.3761 31.3347 28.4342 30.8231 28.6218 30.3508C28.9965 29.4024 30.3026 28.8814 33.0004 27.5264C36.1802 25.9213 36.9083 24.7331 37.358 23.8055C37.8075 22.8779 38.4713 21.0331 38.8459 20.168C39.3171 19.0528 39.8952 18.4587 40.3771 18.1044C40.8586 17.75 43 16.9683 43 16.9683C43 16.9683 41.3619 15.5821 40.8374 15.1756Z" fill="white"/>
</svg>
