<svg width="51" height="50" viewBox="0 0 51 50" fill="none" xmlns="http://www.w3.org/2000/svg">
<ellipse cx="25.6816" cy="24.9999" rx="25" ry="24.9999" fill="black"/>
<path d="M17.175 20.519L12.6256 18.2025C12.2686 18.9013 11.9686 19.6342 11.7256 20.3823L16.5825 21.9544C16.742 21.4608 16.9395 20.9785 17.175 20.519Z" fill="white"/>
<path d="M21.0366 16.4367L23.5543 20.7772C23.9227 20.5645 24.3176 20.4013 24.724 20.2911L23.4214 15.4456C23.7518 15.3582 24.0898 15.2823 24.4316 15.2291L23.6303 10.1861C22.8556 10.3076 22.0847 10.4937 21.3404 10.7367L22.8974 15.5139C22.3999 15.6772 21.9176 15.8785 21.4543 16.1139L19.1683 11.6443C18.4733 12.0013 17.7974 12.4152 17.167 12.8785L20.1746 16.9987C20.4518 16.7975 20.7404 16.6114 21.0366 16.4367Z" fill="white"/>
<path d="M34.5597 20.0329L30.2192 22.5544C30.4319 22.9228 30.599 23.3177 30.7091 23.724L35.5547 22.4177C35.6458 22.7481 35.718 23.0861 35.7711 23.424L40.8142 22.6228C40.6927 21.8481 40.5066 21.0772 40.2597 20.3329L35.4863 21.8975C35.323 21.4 35.1218 20.9177 34.8863 20.4544L39.3559 18.1607C38.999 17.4658 38.5851 16.7899 38.1218 16.1595L34.0015 19.1709C34.199 19.4481 34.3851 19.7367 34.5597 20.0329Z" fill="white"/>
<path d="M32.7896 11.6215C32.0909 11.2646 31.358 10.9646 30.6099 10.7215L29.0415 15.5785C29.5314 15.738 30.0137 15.9355 30.4769 16.1709L32.7896 11.6215Z" fill="white"/>
<path d="M30.9749 16.3493L28.4268 20.7734C28.7951 20.9861 29.1369 21.2481 29.4369 21.5481L36.5837 14.3747C36.0293 13.8202 35.4255 13.3076 34.7951 12.8481L31.8483 16.9152C31.5673 16.7101 31.2787 16.5202 30.9749 16.3493Z" fill="white"/>
<path d="M17.3495 20.0177L21.7698 22.5696C21.9824 22.2013 22.2445 21.8595 22.5445 21.5557L15.3786 14.4051C14.8242 14.9595 14.3115 15.5633 13.8521 16.1937L17.9153 19.1443C17.7141 19.4253 17.5242 19.7177 17.3495 20.0177Z" fill="white"/>
<path d="M27.5456 15.1418L28.3165 10.1785C27.5532 10.0608 26.7747 10 25.9963 10H25.9849V20.1241H25.9963C26.4216 20.1241 26.8469 20.1772 27.2532 20.2873L28.5633 15.3544C28.2292 15.2633 27.8912 15.1949 27.5456 15.1418Z" fill="white"/>
<path d="M21.2873 23.743L16.3544 22.4291C16.2671 22.7633 16.1949 23.1051 16.1418 23.4468L11.1785 22.6721C11.0608 23.4354 11 24.2215 11 25H21.1241C21.1241 24.5709 21.181 24.1494 21.2873 23.743Z" fill="white"/>
<path d="M34.8252 29.481L39.3746 31.7975C39.7315 31.0987 40.0315 30.3658 40.2746 29.6177L35.4176 28.0456C35.2581 28.5392 35.0606 29.0215 34.8252 29.481Z" fill="white"/>
<path d="M30.9593 33.5595L28.4416 29.219C28.0732 29.4317 27.6783 29.5949 27.272 29.7051L28.5745 34.5506C28.2441 34.638 27.9062 34.7139 27.5644 34.7671L28.3656 39.8101C29.1403 39.6886 29.9112 39.5025 30.6555 39.2595L29.0986 34.4823C29.596 34.319 30.0783 34.1177 30.5416 33.8823L32.8315 38.3519C33.5264 37.9949 34.2024 37.581 34.8327 37.1177L31.8251 32.9937C31.5479 33.2025 31.2593 33.3886 30.9593 33.5595Z" fill="white"/>
<path d="M17.4405 29.9671L21.781 27.4418C21.5683 27.0734 21.4012 26.6785 21.2911 26.2722L16.4455 27.5785C16.3544 27.2481 16.2822 26.9101 16.2291 26.5722L11.186 27.3734C11.3076 28.1481 11.4936 28.919 11.7405 29.6633L16.5139 28.1025C16.6772 28.5962 16.8784 29.0823 17.1139 29.5456L12.6443 31.8392C13.0012 32.5342 13.4151 33.2101 13.8784 33.8405L17.9987 30.8291C17.8012 30.5519 17.6151 30.2633 17.4405 29.9671Z" fill="white"/>
<path d="M19.21 38.3785C19.9087 38.7354 20.6416 39.0354 21.3897 39.2785L22.9581 34.4215C22.4682 34.262 21.9859 34.0645 21.5226 33.8291L19.21 38.3785Z" fill="white"/>
<path d="M21.0215 33.6506L23.5696 29.2266C23.2012 29.0139 22.8594 28.7519 22.5594 28.4519L15.4126 35.6253C15.967 36.1798 16.5708 36.6924 17.2012 37.1519L20.148 33.0848C20.4291 33.2861 20.7215 33.476 21.0215 33.6506Z" fill="white"/>
<path d="M34.6466 29.9823L30.2263 27.4304C30.0137 27.7987 29.7517 28.1405 29.4517 28.4443L36.6213 35.5949C37.1757 35.0405 37.6884 34.4367 38.1479 33.8063L34.0846 30.8557C34.2858 30.5709 34.4757 30.2823 34.6466 29.9823Z" fill="white"/>
<path d="M24.7432 29.7126L23.4331 34.6456C23.7673 34.7329 24.1091 34.8051 24.4508 34.8582L23.6799 39.8215C24.4432 39.9392 25.2217 40 26.0002 40H26.0116V29.8759H26.0002C25.5749 29.8759 25.1496 29.819 24.7432 29.7126Z" fill="white"/>
<path d="M30.8757 25C30.8757 25.4291 30.8225 25.8506 30.7124 26.257L35.6453 27.5709C35.7327 27.2367 35.8048 26.8949 35.858 26.5532L40.8213 27.3278C40.939 26.5646 40.9997 25.7785 40.9997 25H30.8757Z" fill="white"/>
</svg>
