<svg width="50" height="50" viewBox="0 0 50 50" fill="none" xmlns="http://www.w3.org/2000/svg">
<ellipse cx="25" cy="24.9999" rx="25" ry="24.9999" fill="white"/>
<path fill-rule="evenodd" clip-rule="evenodd" d="M15.904 37.1924C12.1924 34.4187 9.78947 29.9901 9.78947 25C9.78947 16.5995 16.5997 9.78947 24.9998 9.78947C31.9331 9.78947 39.5041 13.9328 41.3351 20.2783C39.2895 13.1873 32.7515 8 25.0002 8C15.6114 8 8 15.6113 8 25C8 34.389 15.6114 42 24.9998 42C34.3889 42 42 34.389 42 25V24.1053H41.0657L40.9413 24.1035C40.2563 24.0909 39.5719 24.0552 38.8893 23.9965C37.6138 23.8855 36.1591 23.6693 35.1683 23.2735C33.5745 22.6368 32.6746 21.7929 31.6462 20.8055L31.5869 20.7482C30.5567 19.759 29.3993 18.6474 27.3938 17.7036C25.4183 16.7738 23.2336 16.923 21.628 17.2534C20.9456 17.3947 20.2742 17.5846 19.6189 17.8217C19.3707 17.9115 19.1718 17.9917 19.0323 18.0504C18.2243 18.3904 17.4403 18.793 16.6473 19.1663C16.6473 19.1663 18.2032 19.5929 18.9722 19.8313C19.1783 19.8973 19.3818 19.9709 19.5824 20.0521C20.0932 20.2573 20.584 20.5088 21.0489 20.8037C21.8787 21.3369 22.5669 22.0084 22.8491 22.8326C21.0875 23.0641 19.435 23.8376 18.1992 24.5644C17.5736 24.9331 16.9696 25.3374 16.3901 25.7752C16.1716 25.9409 15.9981 26.0794 15.8786 26.1782C15.7778 26.2612 14.1868 27.6635 14.1868 27.6635C14.1868 27.6635 16.2392 27.8818 17.2521 28.0858C17.9256 28.2218 18.8338 28.4401 19.7813 28.7704C20.7331 29.1025 21.6949 29.5377 22.4925 30.0946C23.2923 30.6529 23.8778 31.2979 24.1664 32.0366C25.0084 34.1875 24.1825 36.2826 22.5243 37.4612C20.8861 38.6258 18.3949 38.9028 15.904 37.1924ZM21.7045 39.8526C22.367 39.6378 22.993 39.3233 23.5609 38.92C25.8175 37.3159 27.0046 34.3783 25.8332 31.3845C25.3729 30.2084 24.4933 29.3087 23.5169 28.6273C22.5386 27.9444 21.4126 27.4444 20.3711 27.0812C19.7384 26.8619 19.0953 26.6738 18.4443 26.5175C18.6616 26.3755 18.8823 26.2385 19.106 26.1066C20.4834 25.2967 22.2178 24.5526 23.881 24.5526C26.3883 24.5526 28.2554 25.3221 30.0381 26.1474C30.2001 26.2226 30.3629 26.2988 30.5263 26.3754C32.1194 27.123 33.7923 27.9079 35.7363 27.9079C37.6213 27.9079 39.0899 27.3746 40.1018 26.8235C39.2012 34.3647 32.7837 40.2105 24.9998 40.2105C23.8685 40.2105 22.7658 40.0871 21.7045 39.8526ZM38.1685 25.7247C37.4986 25.9534 36.6863 26.1184 35.7367 26.1184C34.2119 26.1184 32.9017 25.5075 31.2381 24.7319L30.7903 24.5236C29.1249 23.7524 27.1981 22.9349 24.6897 22.7868C24.3535 21.1261 23.0945 19.9916 22.0168 19.2984C21.8988 19.2226 21.7792 19.1495 21.658 19.079C21.7653 19.0539 21.8762 19.0289 21.9885 19.006C23.4371 18.7079 25.1672 18.6334 26.6319 19.3227C28.3706 20.1409 29.3514 21.0828 30.3718 22.0628L30.4069 22.0964C31.4567 23.1046 32.5673 24.1615 34.5045 24.9352C35.5811 25.3651 36.9739 25.5963 38.1685 25.7247Z" fill="url(#paint0_linear_78_17)"/>
<defs>
<linearGradient id="paint0_linear_78_17" x1="7.69526" y1="25.3142" x2="42.3048" y2="24.6812" gradientUnits="userSpaceOnUse">
<stop stop-color="#29CCB9"/>
<stop offset="0.49" stop-color="#0091FF"/>
<stop offset="1" stop-color="#FF66B7"/>
</linearGradient>
</defs>
</svg>
