<svg width="50" height="50" viewBox="0 0 50 50" fill="none" xmlns="http://www.w3.org/2000/svg">
    <circle cx="25" cy="25" r="24" fill="white"/>
    <path fill-rule="evenodd" clip-rule="evenodd"
          d="M25 50C38.807 50 50 38.807 50 25C50 11.1929 38.807 0 25 0C11.1929 0 0 11.1929 0 25C0 31.2924 2.3247 37.0419 6.16209 41.4363L19.285 29.2681C19.6341 28.7391 19.8976 28.1556 20.0628 27.5387L20.1128 27.3522L12.8525 26.2731C12.0013 26.1467 12.0013 24.9191 12.8525 24.7926L19.337 23.8287L11.8309 13.7016C11.3185 13.0103 12.1865 12.1422 12.8779 12.6547L23.007 20.1624L23.9715 13.6736C24.098 12.8224 25.3256 12.8224 25.452 13.6737L26.4159 20.1591L36.5407 12.6547C37.232 12.1422 38.1002 13.0103 37.5878 13.7016L30.082 23.8281L36.5709 24.7926C37.422 24.9191 37.422 26.1467 36.5709 26.2731L30.0817 27.2376L37.5878 37.3644C38.1002 38.0559 37.232 38.9239 36.5407 38.4115L26.4159 30.907L25.452 37.392C25.3256 38.2433 24.098 38.2431 23.9715 37.392L22.8919 30.1291L22.2807 30.2928C21.9385 30.3844 21.6152 30.5304 21.322 30.7233L8.91981 44.143C13.2666 47.7981 18.8761 50 25 50Z"
          fill="#7438ff"/>
</svg>
