<svg width="22" height="22" viewBox="0 0 22 22" fill="none" xmlns="http://www.w3.org/2000/svg">
<path fill-rule="evenodd" clip-rule="evenodd" d="M11 22C17.0751 22 22 17.0751 22 11C22 4.92487 17.0751 0 11 0C4.92487 0 0 4.92487 0 11C0 13.7687 1.02287 16.2984 2.71132 18.232L8.4854 12.878C8.63899 12.6452 8.75494 12.3884 8.82762 12.117L8.84962 12.035L5.65511 11.5602C5.28058 11.5045 5.28058 10.9644 5.65511 10.9087L8.5083 10.4846L5.2056 6.02872C4.98013 5.72452 5.36206 5.34259 5.66625 5.56805L10.1231 8.87146L10.5475 6.01641C10.6031 5.64188 11.1432 5.64188 11.1989 6.01641L11.623 8.86999L16.0779 5.56805C16.3821 5.34259 16.7641 5.72452 16.5386 6.02872L13.2361 10.4844L16.0912 10.9087C16.4657 10.9644 16.4657 11.5045 16.0912 11.5602L13.2359 11.9845L16.5386 16.4404C16.7641 16.7446 16.3821 17.1265 16.0779 16.9011L11.623 13.5991L11.1989 16.4525C11.1432 16.8271 10.6031 16.827 10.5475 16.4525L10.0724 13.2568L9.80352 13.3288C9.65295 13.3692 9.51068 13.4334 9.3817 13.5183L3.92472 19.4229C5.83733 21.0312 8.30549 22 11 22Z" fill="white"/>
</svg>
