<svg width="50" height="50" viewBox="0 0 50 50" fill="none" xmlns="http://www.w3.org/2000/svg">
<g clip-path="url(#clip0_70_794)">
<ellipse cx="25" cy="24.9999" rx="25" ry="24.9999" fill="#00D2FF"/>
<path d="M39.5214 23.1653C39.5214 23.1114 38.5527 22.4856 38.0429 22.1588C37.8226 22.0192 37.6182 21.8555 37.4332 21.6707C37.0513 21.2892 36.4153 20.6225 36.2079 20.2123C36.0755 19.9499 36.1301 19.4778 36.2329 19.0272C36.4122 18.2366 36.2767 17.4064 35.8556 16.716L35.1926 15.624C34.8874 15.1259 34.642 14.5927 34.4617 14.0359C34.2327 13.3197 33.8339 12.6712 33.3001 12.1466C32.2215 11.0824 29.2354 10.5585 26.7549 10.4747C26.6015 10.4283 26.4457 10.3909 26.288 10.3627C25.1831 10.1723 24.0058 9.8653 22.9488 10.0649C21.3791 10.3597 19.7928 10.8575 18.6088 12.0864C18.3697 12.334 17.997 12.4511 17.7396 12.6857C17.2294 13.151 16.5426 13.151 16.0895 13.6682C15.8242 13.9693 15.7018 14.9535 15.0067 15.3296C13.8564 15.9529 13.0051 16.6393 12.7265 16.9902C12.5158 17.2534 12.3517 17.5616 12.1472 17.8324C11.939 18.1087 10.9474 18.5762 10.6596 18.8684C10.3718 19.1607 9.98532 19.8724 10.1598 20.7135C10.1761 20.7901 10.1894 20.8533 10.2015 20.9046C10.3152 21.3321 10.6234 22.107 10.5521 22.4629C10.4688 22.884 9.39935 26.0177 11.7895 26.8528C12.2867 27.0272 12.4975 27.3662 12.552 27.8821C12.6022 28.3011 12.7217 28.7085 12.9056 29.0874C13.123 29.5507 13.5516 29.8033 13.5865 29.8345C13.7306 29.9609 14.4012 30.6709 14.4565 30.7741C15.3045 32.3588 15.0663 33.1506 16.6892 33.6892C17.105 33.828 17.5044 34.0129 17.8799 34.2405C18.3388 34.5193 18.8301 34.7394 19.3426 34.8958C19.3576 34.9 19.3805 34.908 19.4067 34.9177C19.7674 34.0366 20.133 33.2011 20.4974 32.4144C17.5759 29.3852 18.3439 25.9912 18.6233 25.0819C18.6315 25.0548 18.6463 25.0303 18.6663 25.0105C18.6864 24.9907 18.711 24.9763 18.738 24.9687C18.765 24.9611 18.7934 24.9605 18.8207 24.967C18.848 24.9735 18.8732 24.9868 18.894 25.0057C19.5075 25.549 21.3716 27.5081 21.1525 31.0457C21.7972 29.7435 22.4244 28.5989 22.9971 27.621C20.8889 24.008 22.4598 20.8406 22.9554 20.0059C22.9696 19.9808 22.99 19.9599 23.0145 19.945C23.039 19.9302 23.0669 19.9219 23.0954 19.9211C23.124 19.9203 23.1523 19.927 23.1776 19.9404C23.2029 19.9539 23.2244 19.9737 23.2399 19.9979C23.6693 20.6431 24.8375 22.7585 24.1145 25.8059C24.6388 24.9956 25.0645 24.3955 25.3427 24.019C26.096 18.9813 29.8584 17.3266 30.8471 16.9779C30.8736 16.9682 30.9022 16.9654 30.93 16.9698C30.9579 16.9742 30.9842 16.9857 31.0065 17.0032C31.0287 17.0207 31.0462 17.0437 31.0573 17.0699C31.0684 17.0961 31.0728 17.1248 31.07 17.1531C30.9787 18.1946 30.3436 22.2068 25.9799 24.2666C25.4551 24.9653 24.9499 25.7006 24.4668 26.4565C26.1356 25.138 28.4741 24.5193 30.4173 24.9939C30.4448 25.0002 30.4702 25.0133 30.4914 25.0321C30.5125 25.0509 30.5287 25.0747 30.5385 25.1013C30.5482 25.128 30.5513 25.1567 30.5473 25.1849C30.5433 25.2131 30.5324 25.2398 30.5156 25.2626C29.9571 26.0106 27.7353 28.5328 23.5493 27.955C22.8413 29.1607 22.1937 30.3828 21.6182 31.5511C23.4261 30.1685 26.0673 29.6387 28.1151 30.3348C28.1424 30.3436 28.1671 30.3593 28.1869 30.3802C28.2067 30.4012 28.2209 30.4269 28.2283 30.4549C28.2358 30.4829 28.2361 30.5123 28.2293 30.5405C28.2226 30.5687 28.2089 30.5947 28.1896 30.6161C27.5533 31.3085 25.1032 33.5818 21.0747 32.6797C20.6969 33.4866 20.1339 34.8137 19.859 35.4694C19.7645 35.6951 19.6774 35.9229 19.6004 36.155C19.4221 36.689 19.1814 37.3552 18.8957 38.0223C18.8552 38.1174 18.8345 38.2199 18.8349 38.3235C18.8353 38.427 18.8567 38.5294 18.8979 38.6242C18.939 38.719 18.9991 38.8042 19.0742 38.8746C19.1494 38.9449 19.238 38.9988 19.3347 39.0331C22.5136 40.1806 25.9649 40.31 29.2192 39.4037C29.3267 39.3728 29.4259 39.3178 29.5095 39.2428C29.5931 39.1678 29.6588 39.0746 29.7018 38.9703C29.7697 38.8077 29.8368 38.6536 29.8368 38.6536C29.8368 38.6536 31.2436 35.3514 31.451 33.9124C31.5097 33.4588 31.649 33.0197 31.8621 32.6161C31.9719 32.4145 32.1306 32.2445 32.3233 32.122C32.516 31.9996 32.7364 31.9288 32.9636 31.9162C34.0344 31.8589 36.3146 31.7077 37.1442 31.442C38.2466 31.0878 37.7689 29.0571 37.7093 28.8385C37.6498 28.6199 38.2399 28.1108 38.3611 27.8139C38.4823 27.517 38.0633 27.4151 37.8917 27.0887C37.7201 26.7623 38.3169 26.5286 38.4019 26.2325C38.4869 25.9364 38.2082 25.6113 38.095 25.3927C38.0196 25.237 37.967 25.071 37.9388 24.9C37.9388 24.9 38.7451 24.3028 39.1736 23.9259C39.6022 23.549 39.5226 23.2386 39.5214 23.1653Z" fill="black"/>
</g>
<defs>
<clipPath id="clip0_70_794">
<rect width="50" height="50" fill="white"/>
</clipPath>
</defs>
</svg>
