<svg width="287" height="287" viewBox="0 0 287 287" fill="none" xmlns="http://www.w3.org/2000/svg">
<path d="M263.128 144.073C261.728 77.4725 206.228 24.7725 139.428 27.0725C74.2278 29.2725 22.6278 83.8725 24.0278 149.173C25.0278 197.373 54.5278 238.372 96.0278 256.372C101.928 248.872 106.828 235.473 109.228 227.973C111.628 221.873 114.228 215.873 116.928 210.073C129.028 214.273 145.328 210.273 154.328 200.573L154.728 200.173C143.928 195.473 129.028 197.873 119.228 205.473C122.528 198.573 126.128 191.873 129.828 185.373C141.728 190.173 158.228 186.873 167.528 177.673L167.928 177.273C157.528 172.173 142.828 173.773 132.728 180.573C136.428 174.473 140.228 168.473 144.228 162.873C156.628 166.673 172.928 161.973 181.428 151.873L181.728 151.473C171.628 147.573 158.428 149.873 149.028 156.473C149.328 156.073 149.728 155.573 150.028 155.173C152.428 152.073 154.928 148.973 157.428 145.973C172.028 141.873 185.028 126.973 187.128 111.573L187.228 110.973H187.128C172.028 113.973 158.028 128.873 155.228 144.573C152.828 147.473 150.428 150.373 148.128 153.373C151.928 143.173 151.228 130.673 145.728 122.073L145.428 122.473C137.128 132.973 135.828 150.073 142.228 161.473C138.428 166.873 134.728 172.373 131.228 178.173C133.428 166.573 129.728 153.073 121.528 145.473L121.328 145.973C115.928 158.073 118.828 174.773 127.728 184.273C124.228 190.373 120.928 196.673 117.728 203.173C119.628 191.073 115.328 177.073 106.728 169.573L106.528 170.073C101.628 182.773 105.428 199.973 114.928 209.173C112.828 213.673 110.828 218.173 108.928 222.873C108.428 222.373 107.828 222.073 107.128 221.773C104.628 221.073 101.228 219.773 97.4278 217.473C94.9278 215.973 92.2278 214.773 89.5278 213.873C78.7278 210.373 80.3278 205.173 74.7278 194.673C74.3278 193.973 69.9278 189.373 68.9278 188.473C68.7278 188.273 65.8278 186.573 64.4278 183.573C63.1278 180.773 62.3278 178.173 62.1278 175.673C61.7278 172.273 60.3278 170.073 57.0278 168.873C41.1278 163.373 48.2278 142.773 48.8278 140.073C49.3278 137.773 47.2278 132.673 46.5278 129.873C46.4278 129.573 46.3278 129.173 46.2278 128.573C45.1278 123.073 47.6278 118.373 49.5278 116.473C51.4278 114.573 58.0278 111.473 59.4278 109.673C60.8278 107.873 61.8278 105.873 63.2278 104.173C65.1278 101.873 70.7278 97.3725 78.4278 93.2725C83.0278 90.7725 83.8278 84.3725 85.6278 82.3725C88.6278 78.9725 93.2278 78.9725 96.6278 75.9725C98.3278 74.4725 100.828 73.6725 102.428 72.0725C110.328 63.9725 120.828 60.7725 131.228 58.7725C138.228 57.4725 146.028 59.4725 153.428 60.7725C154.528 60.9725 155.528 61.1725 156.528 61.4725C173.028 62.0725 192.828 65.4725 200.028 72.4725C204.528 76.8725 206.728 81.5725 207.728 84.8725C208.928 88.5725 210.528 92.0725 212.528 95.2725L216.928 102.473C219.728 106.973 220.628 112.473 219.428 117.673C218.728 120.673 218.428 123.773 219.228 125.473C220.628 128.173 224.828 132.573 227.328 135.073C228.528 136.273 229.928 137.373 231.328 138.273C234.728 140.373 241.128 144.573 241.128 144.873C241.128 145.373 241.628 147.373 238.828 149.873C236.028 152.373 230.628 156.273 230.628 156.273C230.628 156.273 230.928 158.073 231.628 159.473C232.428 160.873 234.228 163.073 233.628 164.973C233.028 166.873 229.128 168.473 230.228 170.573C231.328 172.773 234.128 173.373 233.328 175.373C232.528 177.273 228.628 180.673 229.028 182.073C229.428 183.473 232.628 196.873 225.228 199.173C219.728 200.973 204.528 201.873 197.428 202.273C194.328 202.473 191.628 204.173 190.128 206.873C189.028 208.873 187.928 211.673 187.428 215.373C186.028 224.773 176.728 246.473 176.728 246.473C176.728 246.473 176.428 247.073 176.028 247.973C175.228 249.973 174.028 252.973 174.228 254.273C174.328 255.073 175.428 256.673 177.028 258.573C178.328 260.073 180.428 260.673 182.328 260.073C230.228 243.273 264.228 197.373 263.128 144.073Z" fill="#00DACC"/>
</svg>
