<svg width="52" height="50" viewBox="0 0 52 50" fill="none" xmlns="http://www.w3.org/2000/svg">
<g id="Group 1000006844">
<ellipse id="Ellipse 3032" cx="26.0905" cy="24.9999" rx="25.4089" ry="24.9999" fill="#00DACC"/>
<path id="Vector" d="M40.9967 25.0542C40.8211 16.4902 33.8591 9.71357 25.4795 10.0093C17.3007 10.2922 10.8279 17.3131 11.0035 25.71C11.1289 31.908 14.8295 37.1799 20.0353 39.4945C20.7755 38.5301 21.3901 36.8072 21.6912 35.8428C21.9923 35.0584 22.3184 34.2868 22.6571 33.541C24.1749 34.0811 26.2197 33.5667 27.3486 32.3194L27.3988 32.268C26.044 31.6636 24.1749 31.9723 22.9456 32.9495C23.3596 32.0623 23.8112 31.2007 24.2753 30.3649C25.7681 30.9821 27.8379 30.5578 29.0045 29.3748L29.0546 29.3233C27.75 28.6675 25.906 28.8733 24.6391 29.7477C25.1032 28.9633 25.5799 28.1918 26.0817 27.4717C27.6372 27.9603 29.6819 27.3559 30.7481 26.0572L30.7858 26.0058C29.5188 25.5043 27.8629 25.8 26.6838 26.6487C26.7214 26.5973 26.7716 26.533 26.8092 26.4815C27.1103 26.0829 27.4239 25.6843 27.7375 25.2985C29.569 24.7713 31.1997 22.8553 31.4631 20.8751L31.4757 20.7979H31.4631C29.569 21.1837 27.8128 23.0997 27.4615 25.1185C27.1605 25.4914 26.8594 25.8643 26.5709 26.2501C27.0476 24.9385 26.9598 23.3311 26.2698 22.2253L26.2322 22.2767C25.191 23.6269 25.028 25.8257 25.8308 27.2916C25.3541 27.986 24.89 28.6933 24.4509 29.4391C24.7269 27.9474 24.2628 26.2115 23.2341 25.2342L23.209 25.2985C22.5317 26.8544 22.8954 29.0019 24.0119 30.2235C23.5728 31.0078 23.1589 31.8179 22.7575 32.6538C22.9958 31.0979 22.4564 29.2976 21.3776 28.3332L21.3525 28.3975C20.7378 30.0306 21.2145 32.2423 22.4062 33.4253C22.1428 34.0039 21.8919 34.5826 21.6536 35.187C21.5908 35.1227 21.5156 35.0841 21.4278 35.0455C21.1142 34.9555 20.6877 34.7883 20.2109 34.4926C19.8973 34.2997 19.5587 34.1454 19.22 34.0297C17.8652 33.5796 18.0659 32.9109 17.3634 31.5608C17.3132 31.4708 16.7613 30.8793 16.6358 30.7635C16.6108 30.7378 16.247 30.5192 16.0714 30.1334C15.9083 29.7734 15.8079 29.4391 15.7828 29.1176C15.7327 28.6804 15.557 28.3975 15.1431 28.2432C13.1486 27.536 14.0392 24.887 14.1145 24.5399C14.1772 24.2441 13.9138 23.5883 13.8259 23.2283C13.8134 23.1897 13.8009 23.1382 13.7883 23.0611C13.6503 22.3539 13.9639 21.7495 14.2023 21.5052C14.4406 21.2609 15.2685 20.8622 15.4441 20.6308C15.6198 20.3993 15.7452 20.1421 15.9208 19.9235C16.1592 19.6278 16.8616 19.0491 17.8275 18.5219C18.4046 18.2004 18.5049 17.3774 18.7307 17.1203C19.1071 16.6831 19.6841 16.6831 20.1106 16.2973C20.3238 16.1044 20.6375 16.0015 20.8382 15.7958C21.8292 14.7542 23.1463 14.3427 24.4509 14.0856C25.329 13.9184 26.3075 14.1756 27.2357 14.3427C27.3737 14.3685 27.4992 14.3942 27.6246 14.4328C29.6944 14.5099 32.1782 14.9471 33.0813 15.8472C33.6458 16.413 33.9218 17.0174 34.0472 17.4417C34.1978 17.9175 34.3985 18.3676 34.6494 18.779L35.2013 19.7049C35.5526 20.2836 35.6655 20.9908 35.5149 21.6595C35.4271 22.0452 35.3895 22.4439 35.4898 22.6625C35.6655 23.0097 36.1923 23.5754 36.5059 23.8969C36.6564 24.0512 36.8321 24.1927 37.0077 24.3084C37.4342 24.5784 38.237 25.1185 38.237 25.1571C38.237 25.2214 38.2997 25.4785 37.9485 25.8C37.5973 26.1215 36.9199 26.623 36.9199 26.623C36.9199 26.623 36.9575 26.8544 37.0453 27.0345C37.1457 27.2145 37.3715 27.4974 37.2962 27.7417C37.2209 27.986 36.7317 28.1918 36.8697 28.4618C37.0077 28.7447 37.3589 28.8218 37.2586 29.079C37.1582 29.3233 36.669 29.7605 36.7192 29.9406C36.7693 30.1206 37.1708 31.8437 36.2425 32.1394C35.5526 32.3709 33.6458 32.4866 32.7552 32.538C32.3663 32.5638 32.0276 32.7824 31.8395 33.1295C31.7015 33.3867 31.5635 33.7468 31.5008 34.2225C31.3252 35.4313 30.1585 38.2216 30.1585 38.2216C30.1585 38.2216 30.1209 38.2988 30.0707 38.4145C29.9704 38.6717 29.8198 39.0575 29.8449 39.2246C29.8575 39.3275 29.9955 39.5332 30.1962 39.7776C30.3592 39.9704 30.6227 40.0476 30.861 39.9704C36.8697 37.8102 41.1347 31.908 40.9967 25.0542Z" fill="white"/>
</g>
</svg>
