<svg width="20" height="20" viewBox="0 0 20 20" fill="none" xmlns="http://www.w3.org/2000/svg">
<g clip-path="url(#clip0_4924_59721)">
<path d="M2.5 0.4375H17.5C18.625 0.4375 19.5625 1.375 19.5625 2.5V17.5C19.5625 18.625 18.625 19.5625 17.5 19.5625H2.5C1.375 19.5625 0.4375 18.625 0.4375 17.5V2.5C0.4375 1.375 1.375 0.4375 2.5 0.4375Z" fill="#2D2D2D" stroke="white" stroke-width="0.7" stroke-miterlimit="5.3333"/>
<path d="M10 16C10.2386 16 10.3977 15.9187 10.5568 15.8375C10.7159 15.675 10.7955 15.5125 10.7955 15.2688L10.9545 14.2937C10.3182 14.4562 9.68182 14.4562 9.04546 14.2937L9.20455 15.2688C9.20455 15.5125 9.28409 15.675 9.44318 15.8375C9.60227 15.9187 9.76136 16 10 16ZM15.4886 15.8375H17V6.98125C17 5.7625 16.4432 4.95 15.4886 4.625V15.8375ZM3 15.8375H4.51136V4.625C3.55682 4.95 3 5.7625 3 6.98125V15.8375V15.8375ZM10.9545 14.2937C11.9091 14.05 12.625 13.3188 12.7841 12.0188L13.7386 4.54375C12.625 4.7875 12.0682 5.68125 11.8295 7.0625L10.9545 14.2937ZM9.04546 14.2937L8.17046 7.0625C8.01136 5.68125 7.375 4.7875 6.34091 4.54375L7.29546 12.0188C7.45455 13.3188 8.09091 14.05 9.04546 14.2937ZM15.4886 4.625V3.975C15.4886 3.325 15.1705 3 14.6932 3C14.2159 3 13.8977 3.325 13.8182 3.89375L13.7386 4.54375C14.2955 4.4625 14.9318 4.4625 15.4886 4.625ZM4.51136 4.625C4.82955 4.54375 5.22727 4.4625 5.54545 4.4625C5.78409 4.4625 6.02273 4.4625 6.34091 4.54375L6.26136 3.89375C6.10227 3.24375 5.78409 3 5.30682 3C4.82955 3 4.51136 3.325 4.51136 3.975V4.625Z" fill="#2D2D2D" stroke="white" stroke-width="0.7" stroke-miterlimit="5.3333"/>
</g>
<defs>
<clipPath id="clip0_4924_59721">
<rect width="20" height="20" fill="white"/>
</clipPath>
</defs>
</svg>
