<svg width="51" height="50" viewBox="0 0 51 50" fill="none" xmlns="http://www.w3.org/2000/svg">
<ellipse cx="25.6816" cy="24.9999" rx="25" ry="24.9999" fill="#DE611A"/>
<path d="M25.4988 38.9969C24.976 39.0119 24.467 38.8282 24.0763 38.4836C23.6857 38.139 23.4428 37.6594 23.3977 37.1431L23.1613 35.3073C20.9091 34.6717 19.5916 33.0209 19.2494 30.4L17.2225 14.9326C16.7877 14.8634 16.3476 14.832 15.9073 14.839C15.2555 14.8337 14.606 14.9169 13.9772 15.0866V38.544H10V19.6883C10 17.1298 11.1598 15.323 13.2723 14.5713V13.3556C13.2723 11.9502 14.1348 11.0067 15.4163 11.0067C16.6977 11.0067 17.5017 11.7963 17.7089 13.2373L17.8665 14.3638C20.1794 15.004 21.5307 16.8443 21.9316 19.8312L23.8054 34.7408C24.9247 34.955 26.0753 34.955 27.1948 34.7408L29.0685 19.8333C29.4603 16.8443 30.8273 15.004 33.1335 14.3572L33.2911 13.2306C33.4983 11.7963 34.3136 11 35.5837 11C36.8539 11 37.7277 11.9435 37.7277 13.3489V14.5646C39.8402 15.3164 41 17.1231 41 19.6817V38.5373H37.0184V15.0843C36.3894 14.9147 35.74 14.8314 35.0882 14.8368C34.648 14.8297 34.2079 14.861 33.773 14.9304L31.7462 30.4C31.4106 32.9741 30.0617 34.6649 27.8343 35.3073L27.6114 37.1454C27.5766 37.6674 27.3351 38.1547 26.9395 38.5015C26.544 38.8481 26.0264 39.0262 25.4988 38.9969ZM23.8976 35.4858L24.1027 37.0673C24.1241 37.4141 24.2827 37.7386 24.5442 37.9704C24.8054 38.2021 25.1485 38.3224 25.4988 38.3054C25.6733 38.3178 25.8483 38.2953 26.0136 38.2395C26.1791 38.1837 26.3316 38.0956 26.4619 37.9803C26.5924 37.8651 26.6981 37.7251 26.7729 37.5686C26.8477 37.4122 26.8901 37.2425 26.8975 37.0695L27.1024 35.4858C26.0413 35.6583 24.9589 35.6583 23.8976 35.4858ZM37.7277 37.8525H40.2906V19.6883C40.2906 17.5201 39.4077 16.0234 37.7277 15.3252V37.8525ZM10.7026 37.8525H13.2723V15.3252C11.5945 16.0234 10.7207 17.5201 10.7207 19.6883L10.7026 37.8525ZM17.9679 15.1245L19.9542 30.3084C20.238 32.5056 21.2853 33.9266 23.0644 34.5467L21.2289 19.9181C20.8911 17.3396 19.8214 15.7646 17.9679 15.1245ZM33.0321 15.1245C31.1786 15.7646 30.1045 17.3396 29.7711 19.9203L27.9356 34.5378C29.717 33.9177 30.7621 32.4968 31.0458 30.2996L33.0321 15.1245ZM13.9817 14.3482C14.6134 14.1961 15.2616 14.1211 15.9118 14.1251C16.3183 14.1208 16.7247 14.1447 17.1279 14.1965L17.0063 13.3199C16.8509 12.2447 16.3149 11.7004 15.4163 11.7004C14.5177 11.7004 13.9817 12.3317 13.9817 13.3466V14.3482ZM35.0882 14.1251C35.7384 14.1211 36.3866 14.1961 37.0184 14.3482V13.3556C37.0184 12.3407 36.4688 11.7094 35.5837 11.7094C34.6987 11.7094 34.1491 12.2536 33.9937 13.3287L33.8721 14.2055C34.2753 14.1536 34.6817 14.1298 35.0882 14.1341V14.1251Z" fill="white"/>
</svg>
