<svg width="52" height="50" viewBox="0 0 52 50" fill="none" xmlns="http://www.w3.org/2000/svg">
<g id="Group 1000006854">
<ellipse id="Ellipse 3034" cx="26.0905" cy="24.9999" rx="25.4089" ry="24.9999" fill="#2D2D2D"/>
<g id="Group">
<path id="Vector" d="M15.0331 11H37.0919C38.7463 11 40.125 12.3787 40.125 14.0331V36.0919C40.125 37.7463 38.7463 39.125 37.0919 39.125H15.0331C13.3787 39.125 12 37.7463 12 36.0919V14.0331C12 12.3787 13.3787 11 15.0331 11Z" fill="#2D2D2D" stroke="white" stroke-width="0.7" stroke-miterlimit="5.3333"/>
<g id="Vector_2">
<path d="M26.0627 33.886C26.4136 33.886 26.6475 33.7665 26.8815 33.6471C27.1155 33.4081 27.2325 33.1691 27.2325 32.8108L27.4663 31.3768C26.5306 31.6158 25.5948 31.6158 24.6589 31.3768L24.8929 32.8108C24.8929 33.1691 25.0099 33.4081 25.2438 33.6471C25.4778 33.7665 25.7117 33.886 26.0627 33.886ZM34.1341 33.6471H36.3568V20.6232C36.3568 18.8309 35.538 17.636 34.1341 17.1581V33.6471ZM15.7686 33.6471H17.9911V17.1581C16.5874 17.636 15.7686 18.8309 15.7686 20.6232V33.6471ZM27.4663 31.3768C28.8702 31.0184 29.923 29.9431 30.1569 28.0313L31.5606 17.0386C29.923 17.3971 29.1041 18.7114 28.7531 20.7427L27.4663 31.3768ZM24.6589 31.3768L23.3722 20.7427C23.1382 18.7114 22.2024 17.3971 20.6817 17.0386L22.0854 28.0313C22.3194 29.9431 23.2552 31.0184 24.6589 31.3768ZM34.1341 17.1581V16.2022C34.1341 15.2463 33.6663 14.7684 32.9644 14.7684C32.2625 14.7684 31.7946 15.2463 31.6777 16.0827L31.5606 17.0386C32.3796 16.9191 33.3153 16.9191 34.1341 17.1581ZM17.9911 17.1581C18.4591 17.0386 19.044 16.9191 19.5119 16.9191C19.8628 16.9191 20.2137 16.9191 20.6817 17.0386L20.5647 16.0827C20.3307 15.1269 19.8628 14.7684 19.1609 14.7684C18.4591 14.7684 17.9911 15.2463 17.9911 16.2022V17.1581Z" fill="#2D2D2D"/>
<path d="M27.4663 31.3768L27.2325 32.8108C27.2325 33.1691 27.1155 33.4081 26.8815 33.6471C26.6475 33.7665 26.4136 33.886 26.0627 33.886C25.7117 33.886 25.4778 33.7665 25.2438 33.6471C25.0099 33.4081 24.8929 33.1691 24.8929 32.8108L24.6589 31.3768M27.4663 31.3768C26.5306 31.6158 25.5948 31.6158 24.6589 31.3768M27.4663 31.3768C28.8702 31.0184 29.923 29.9431 30.1569 28.0313L31.5606 17.0386M27.4663 31.3768L28.7531 20.7427C29.1041 18.7114 29.923 17.3971 31.5606 17.0386M24.6589 31.3768L23.3722 20.7427C23.1382 18.7114 22.2024 17.3971 20.6817 17.0386M24.6589 31.3768C23.2552 31.0184 22.3194 29.9431 22.0854 28.0313L20.6817 17.0386M34.1341 17.1581C35.538 17.636 36.3568 18.8309 36.3568 20.6232V33.6471H34.1341V17.1581ZM34.1341 17.1581V16.2022C34.1341 15.2463 33.6663 14.7684 32.9644 14.7684C32.2625 14.7684 31.7946 15.2463 31.6777 16.0827L31.5606 17.0386M34.1341 17.1581C33.3153 16.9191 32.3796 16.9191 31.5606 17.0386M17.9911 17.1581V33.6471H15.7686V20.6232C15.7686 18.8309 16.5874 17.636 17.9911 17.1581ZM17.9911 17.1581C18.4591 17.0386 19.044 16.9191 19.5119 16.9191C19.8628 16.9191 20.2137 16.9191 20.6817 17.0386M17.9911 17.1581V16.2022C17.9911 15.2463 18.4591 14.7684 19.1609 14.7684C19.8628 14.7684 20.3307 15.1269 20.5647 16.0827L20.6817 17.0386" stroke="white" stroke-width="0.7" stroke-miterlimit="5.3333"/>
</g>
</g>
</g>
</svg>
