<svg width="51" height="50" viewBox="0 0 51 50" fill="none" xmlns="http://www.w3.org/2000/svg">
<ellipse cx="25.6816" cy="24.9999" rx="25" ry="24.9999" fill="#2D2D2D"/>
<path d="M15.0331 11H37.0919C38.7463 11 40.125 12.3787 40.125 14.0331V36.0919C40.125 37.7463 38.7463 39.125 37.0919 39.125H15.0331C13.3787 39.125 12 37.7463 12 36.0919V14.0331C12 12.3787 13.3787 11 15.0331 11Z" fill="#2D2D2D"/>
<path fill-rule="evenodd" clip-rule="evenodd" d="M15.0329 10.3H37.0917C39.1327 10.3 40.8248 11.9921 40.8248 14.0331V36.0919C40.8248 38.1329 39.1327 39.825 37.0917 39.825H15.0329C12.9919 39.825 11.2998 38.1329 11.2998 36.0919V14.0331C11.2998 11.9921 12.9919 10.3 15.0329 10.3ZM37.0917 11H15.0329C13.3785 11 11.9998 12.3787 11.9998 14.0331V36.0919C11.9998 37.7463 13.3785 39.125 15.0329 39.125H37.0917C38.7461 39.125 40.1248 37.7463 40.1248 36.0919V14.0331C40.1248 12.3787 38.7461 11 37.0917 11Z" fill="white"/>
<path d="M26.0622 33.886C26.4131 33.886 26.647 33.7665 26.881 33.647C27.115 33.4081 27.232 33.1691 27.232 32.8107L27.4659 31.3768C26.5301 31.6157 25.5943 31.6157 24.6584 31.3768L24.8924 32.8107C24.8924 33.1691 25.0094 33.4081 25.2433 33.647C25.4773 33.7665 25.7112 33.886 26.0622 33.886ZM34.1337 33.647H36.3563V20.6232C36.3563 18.8309 35.5375 17.636 34.1337 17.1581V33.647ZM15.7681 33.647H17.9907V17.1581C16.5869 17.636 15.7681 18.8309 15.7681 20.6232V33.647ZM27.4659 31.3768C28.8697 31.0184 29.9225 29.9431 30.1564 28.0313L31.5601 17.0386C29.9225 17.397 29.1037 18.7114 28.7526 20.7426L27.4659 31.3768ZM24.6584 31.3768L23.3717 20.7426C23.1377 18.7114 22.2019 17.397 20.6812 17.0386L22.0849 28.0313C22.3189 29.9431 23.2547 31.0184 24.6584 31.3768ZM34.1337 17.1581V16.2022C34.1337 15.2463 33.6659 14.7684 32.9639 14.7684C32.262 14.7684 31.7941 15.2463 31.6772 16.0827L31.5601 17.0386C32.3791 16.9191 33.3148 16.9191 34.1337 17.1581ZM17.9907 17.1581C18.4586 17.0386 19.0435 16.9191 19.5114 16.9191C19.8623 16.9191 20.2133 16.9191 20.6812 17.0386L20.5642 16.0827C20.3302 15.1268 19.8623 14.7684 19.1604 14.7684C18.4586 14.7684 17.9907 15.2463 17.9907 16.2022V17.1581Z" fill="#2D2D2D"/>
<path fill-rule="evenodd" clip-rule="evenodd" d="M27.3014 34.2185L27.1995 34.2706C27.1936 34.2736 27.1876 34.2766 27.1816 34.2797C26.9427 34.4018 26.5823 34.586 26.0625 34.586C25.5426 34.586 25.1822 34.4018 24.9433 34.2797C24.9373 34.2766 24.9313 34.2736 24.9254 34.2705L24.8235 34.2185L24.7434 34.1368C24.4108 33.7971 24.2081 33.4049 24.1935 32.8726L24.0373 31.9148C23.3908 31.6732 22.8281 31.2799 22.3851 30.7218C21.8476 30.0448 21.5193 29.1673 21.3906 28.1182C21.3905 28.1176 21.3905 28.117 21.3904 28.1164L20.0521 17.6366C19.8738 17.6196 19.7034 17.6191 19.5117 17.6191C19.2764 17.6191 18.987 17.6584 18.6909 17.7166V34.3471H15.0684V20.6232C15.0684 19.6213 15.2977 18.7343 15.7671 18.0152C16.1471 17.4328 16.6666 16.9887 17.2909 16.6888V16.2022C17.2909 15.6186 17.4335 15.0772 17.781 14.6714C18.1409 14.2514 18.6421 14.0684 19.1607 14.0684C19.6371 14.0684 20.1113 14.1937 20.5045 14.5452C20.8831 14.8835 21.109 15.3629 21.2444 15.9163L21.2543 15.9566L21.3209 16.5015C22.9315 17.099 23.8352 18.6512 24.0671 20.6605C24.0672 20.6612 24.0673 20.6619 24.0674 20.6626L25.2934 30.7944C25.8066 30.8765 26.3184 30.8765 26.8315 30.7944L28.0601 20.6409L28.0631 20.6235C28.2483 19.5523 28.5672 18.6001 29.1068 17.8533C29.5654 17.2188 30.1673 16.7556 30.9221 16.4923L30.9841 15.9858C31.057 15.4643 31.2495 14.9816 31.6013 14.6222C31.964 14.2518 32.4424 14.0684 32.9642 14.0684C33.4829 14.0684 33.9841 14.2514 34.3439 14.6715C34.6915 15.0772 34.8339 15.6187 34.8339 16.2022V16.6888C35.4584 16.9887 35.9778 17.4328 36.3579 18.0152C36.8272 18.7343 37.0566 19.6213 37.0566 20.6232V34.3471H33.4339V17.7195C33.0321 17.6573 32.6048 17.6466 32.1848 17.6752L30.8516 28.1164C30.8515 28.117 30.8514 28.1177 30.8513 28.1184C30.7205 29.1849 30.3545 30.0656 29.7843 30.7389C29.318 31.2896 28.7356 31.6772 28.0875 31.9159L27.9315 32.8726C27.917 33.405 27.714 33.7971 27.3815 34.1368L27.3014 34.2185ZM28.2042 31.1045C27.9721 31.2202 27.7251 31.3107 27.4662 31.3768L28.7529 20.7427C29.0467 19.0428 29.668 17.845 30.8227 17.2894C31.0478 17.181 31.2932 17.0971 31.5604 17.0386L30.1567 28.0313C29.9659 29.5905 29.2305 30.5933 28.2042 31.1045ZM31.5604 17.0386C31.7908 17.005 32.0305 16.9808 32.2742 16.9688C32.6575 16.9499 33.0509 16.9609 33.4339 17.0123C33.6729 17.0444 33.9079 17.0921 34.1339 17.1581V33.6471H36.3566V20.6232C36.3566 19.1536 35.8061 18.0857 34.8339 17.4853C34.6205 17.3534 34.3867 17.2441 34.1339 17.1581V16.2022C34.1339 15.2463 33.6662 14.7684 32.9642 14.7684C32.2623 14.7684 31.7944 15.2463 31.6775 16.0827L31.5604 17.0386ZM26.7344 31.5149C26.9783 31.4851 27.2222 31.4391 27.4662 31.3768L27.2323 32.8107C27.2323 33.1691 27.1153 33.4081 26.8813 33.6471C26.6475 33.7664 26.4131 33.886 26.0625 33.886C25.7118 33.886 25.478 33.7667 25.2442 33.6474C25.0103 33.4084 24.8927 33.1691 24.8927 32.8107L24.6587 31.3768C24.9027 31.4391 25.1466 31.4851 25.3905 31.5149C25.8385 31.5697 26.2864 31.5697 26.7344 31.5149ZM23.92 31.0988C24.1488 31.2172 24.3955 31.3096 24.6587 31.3768L23.372 20.7427C23.1787 19.0651 22.5068 17.8765 21.422 17.3115C21.1933 17.1924 20.9462 17.101 20.6815 17.0386L20.5645 16.0827C20.3305 15.1268 19.8626 14.7684 19.1607 14.7684C18.4589 14.7684 17.9909 15.2463 17.9909 16.2022V17.1581C17.7382 17.2442 17.5044 17.3535 17.2909 17.4853C16.3189 18.0857 15.7684 19.1536 15.7684 20.6232V33.6471H17.9909V17.1581C18.207 17.1029 18.448 17.0477 18.6909 17.0043C18.9741 16.9537 19.2598 16.9191 19.5117 16.9191C19.6591 16.9191 19.8066 16.9191 19.9627 16.928C20.1782 16.9402 20.4101 16.9693 20.6815 17.0386L22.0852 28.0313C22.2753 29.5846 22.9287 30.5857 23.92 31.0988Z" fill="white"/>
</svg>
