<svg width="418" height="418" viewBox="0 0 418 418" fill="none" xmlns="http://www.w3.org/2000/svg">
<circle cx="209" cy="209" r="209" fill="#DE611A"/>
<path d="M208.491 317.976C204.46 318.093 200.536 316.663 197.524 313.98C194.512 311.297 192.64 307.563 192.292 303.543L190.469 289.25C173.106 284.301 162.948 271.449 160.31 251.043L144.683 130.618C141.331 130.079 137.938 129.835 134.543 129.889C129.518 129.848 124.511 130.496 119.663 131.817V314.45H89V167.645C89 147.725 97.9419 133.658 114.228 127.805V118.34C114.228 107.398 120.878 100.052 130.758 100.052C140.637 100.052 146.836 106.2 148.433 117.419L149.648 126.19C167.48 131.174 177.898 145.502 180.989 168.757L195.435 284.839C204.065 286.507 212.935 286.507 221.566 284.839L236.012 168.774C239.033 145.502 249.572 131.174 267.352 126.138L268.567 117.367C270.164 106.2 276.45 100 286.242 100C296.035 100 302.772 107.346 302.772 118.288V127.753C319.058 133.606 328 147.673 328 167.593V314.398H297.303V131.799C292.454 130.479 287.447 129.83 282.422 129.872C279.028 129.817 275.635 130.061 272.282 130.601L256.656 251.043C254.069 271.084 243.669 284.248 226.497 289.25L224.778 303.561C224.51 307.625 222.648 311.419 219.598 314.119C216.549 316.818 212.558 318.204 208.491 317.976ZM196.146 290.64L197.727 302.953C197.892 305.653 199.115 308.179 201.131 309.984C203.145 311.788 205.79 312.725 208.491 312.592C209.836 312.689 211.185 312.514 212.46 312.079C213.736 311.645 214.911 310.959 215.916 310.061C216.922 309.164 217.737 308.074 218.314 306.856C218.89 305.638 219.217 304.317 219.274 302.97L220.854 290.64C212.673 291.983 204.328 291.983 196.146 290.64ZM302.772 309.066H322.531V167.645C322.531 150.764 315.724 139.111 302.772 133.675V309.066ZM94.4172 309.066H114.228V133.675C101.293 139.111 94.5561 150.764 94.5561 167.645L94.4172 309.066ZM150.43 132.112L165.744 250.33C167.932 267.437 176.006 278.5 189.722 283.328L175.571 169.434C172.967 149.358 164.72 137.096 150.43 132.112ZM266.57 132.112C252.28 137.096 243.999 149.358 241.429 169.451L227.278 283.259C241.012 278.431 249.069 267.368 251.256 250.261L266.57 132.112ZM119.698 126.068C124.568 124.884 129.565 124.3 134.578 124.331C137.712 124.298 140.845 124.484 143.954 124.887L143.016 118.062C141.818 109.691 137.686 105.453 130.758 105.453C123.83 105.453 119.698 110.368 119.698 118.27V126.068ZM282.422 124.331C287.435 124.3 292.432 124.884 297.303 126.068V118.34C297.303 110.438 293.066 105.523 286.242 105.523C279.419 105.523 275.182 109.76 273.984 118.131L273.046 124.957C276.155 124.553 279.288 124.368 282.422 124.401V124.331Z" fill="white"/>
</svg>
