<svg width="25" height="25" viewBox="0 0 25 25" fill="none" xmlns="http://www.w3.org/2000/svg">
<path d="M12.5 25C19.4036 25 25 19.4036 25 12.5C25 5.59644 19.4036 0 12.5 0C5.59644 0 0 5.59644 0 12.5C0 19.4036 5.59644 25 12.5 25Z" fill="white"/>
<path d="M12.5788 2.995C9.8127 2.995 3 9.84127 3 12.6213C3 15.4013 9.8127 22.2477 12.5788 22.2477C15.345 22.2477 22.1578 15.4012 22.1578 12.6213C22.1578 9.84139 15.3451 2.995 12.5788 2.995ZM11.0862 18.126C9.91968 17.8066 6.78355 12.2935 7.10146 11.1212C7.41937 9.9489 12.9052 6.79729 14.0716 7.11677C15.2381 7.4362 18.3742 12.9492 18.0564 14.1215C17.7385 15.2938 12.2526 18.4454 11.0862 18.126Z" fill="#836EF9"/>
</svg>
