<svg width="51" height="50" viewBox="0 0 51 50" fill="none" xmlns="http://www.w3.org/2000/svg">
<ellipse cx="25.6816" cy="24.9999" rx="25" ry="24.9999" fill="white"/>
<path d="M26 40C34.2843 40 41 33.2843 41 25C41 16.7157 34.2843 10 26 10C17.7157 10 11 16.7157 11 25C11 33.2843 17.7157 40 26 40Z" fill="white"/>
<path d="M26.003 10C17.7157 10 11 16.6373 11 24.8205C11 26.4559 11.266 28.0316 11.7616 29.5H16.2468V17.0312L26.003 26.6648L35.7531 17.0312V29.5H40.2383C40.734 28.0256 41 26.4559 41 24.8205C41.006 16.6373 34.2903 10 26.003 10Z" fill="#FF6600"/>
<path d="M23.6386 29.214L19.1577 25V32.8651H12.5C15.2751 37.1449 20.2843 40 26 40C31.7157 40 36.7248 37.1449 39.5 32.8651H32.8422V25L28.3614 29.214L26 31.4345L23.6386 29.214Z" fill="#5E5E5E"/>
</svg>
