<svg width="51" height="50" viewBox="0 0 51 50" fill="none" xmlns="http://www.w3.org/2000/svg">
<ellipse cx="25.6819" cy="24.9999" rx="25" ry="24.9999" fill="white"/>
<path fill-rule="evenodd" clip-rule="evenodd" d="M13.3887 20.9663C13.3931 14.3576 18.7463 9 25.355 9L25.3594 9.01768C26.1639 9.01768 26.964 9.09725 27.7509 9.26081C34.2269 10.5914 38.3999 16.9171 37.0737 23.3932L36.3532 23.8838C33.9086 25.5636 29.939 25.5636 27.4901 23.8838L26.6104 23.2782L24.9881 22.1643C22.2739 20.2988 17.8666 20.2988 15.148 22.1643L13.6009 23.2208C13.4594 22.4781 13.3887 21.7222 13.3887 20.9663Z" fill="#F2B705"/>
<path fill-rule="evenodd" clip-rule="evenodd" d="M27.2561 26.7837C28.6883 27.7076 30.3681 28.185 32.0788 28.1541C33.7851 28.1806 35.4649 27.7032 36.8972 26.7837L37.8432 26.1339C38.1614 25.9129 38.2454 25.4753 38.0244 25.157C37.8034 24.8387 37.3657 24.7547 37.0475 24.9757L36.1015 25.6256C33.6304 27.1418 30.514 27.1418 28.0429 25.6256L25.5453 23.9148C22.2918 21.8946 18.1719 21.8946 14.9184 23.9148L13.305 25.0199C12.9867 25.241 12.9027 25.6786 13.1237 25.9969C13.3447 26.3151 13.7824 26.3991 14.1006 26.1781L15.7141 25.073C18.4902 23.3711 21.9868 23.3711 24.7585 25.073L27.2561 26.7837Z" fill="#53CBC8"/>
<path fill-rule="evenodd" clip-rule="evenodd" d="M20.1835 26.4168V33.1801L20.2012 35.6468V40.1469C20.1967 40.1557 20.1967 40.169 20.1967 40.1822C20.1746 40.611 20.5018 40.9779 20.9305 41H20.9438C21.3814 40.9823 21.7218 40.6198 21.7041 40.1822V26.6997C21.713 26.4654 21.7086 26.2267 21.6776 25.9924C21.6422 25.6167 21.3372 25.3293 20.9615 25.3161C20.5725 25.3161 20.2454 25.6078 20.2012 25.9924C20.1835 26.1339 20.1791 26.2753 20.1835 26.4168Z" fill="#53CBC8"/>
<path fill-rule="evenodd" clip-rule="evenodd" d="M18.7647 33.136V29.7764C18.7647 28.6536 18.7647 27.5352 18.7603 26.4345C18.7559 25.8421 18.4907 25.5062 18.0442 25.4664C17.5977 25.4266 17.2529 25.8245 17.2529 26.4124V33.136C17.2574 33.6797 17.5977 34.0819 18.0221 34.0819C18.4509 34.0819 18.7647 33.7106 18.7647 33.136Z" fill="#53CBC8"/>
<path fill-rule="evenodd" clip-rule="evenodd" d="M23.127 27.4159V29.772V32.1812C23.1314 32.7426 23.4054 33.0785 23.8563 33.0829C24.3116 33.0918 24.6255 32.7602 24.6255 32.2121C24.6388 30.603 24.6388 28.9984 24.6255 27.3937V27.3628C24.6476 26.9163 24.2984 26.5362 23.8519 26.5141C23.4187 26.5141 23.127 26.8677 23.127 27.4159Z" fill="#53CBC8"/>
<path fill-rule="evenodd" clip-rule="evenodd" d="M14.3259 27.8977V30.2582V32.6674C14.3303 33.2288 14.6133 33.5647 15.0597 33.5692C15.5106 33.5736 15.8245 33.2465 15.8245 32.6983C15.8377 31.0893 15.8377 29.4846 15.8245 27.8756V27.8446C15.8466 27.3981 15.4974 27.018 15.0509 26.9959C14.6177 26.9959 14.3259 27.3495 14.3259 27.8977Z" fill="#53CBC8"/>
<path fill-rule="evenodd" clip-rule="evenodd" d="M27.5344 28.9939C27.5344 28.5828 27.2028 28.2513 26.7917 28.2513C26.385 28.2513 26.0535 28.5872 26.0491 28.9939V30.2759C26.0491 30.687 26.3806 31.0185 26.7917 31.0185C27.2028 31.0185 27.5344 30.687 27.5344 30.2759V28.9939Z" fill="#53CBC8"/>
<path fill-rule="evenodd" clip-rule="evenodd" d="M30.4738 30.1212C30.4738 29.7101 30.1423 29.3785 29.7312 29.3785C29.3201 29.3785 28.9885 29.7101 28.9885 30.1212V37.3222C28.9885 37.7333 29.3201 38.0648 29.7312 38.0648C30.1423 38.0648 30.4738 37.7333 30.4738 37.3222V30.1212Z" fill="#53CBC8"/>
<path fill-rule="evenodd" clip-rule="evenodd" d="M33.3962 30.3997C33.3962 29.9886 33.0646 29.657 32.6535 29.657C32.2424 29.657 31.9109 29.9886 31.9109 30.3997V36.5176C31.9109 36.9287 32.2424 37.2603 32.6535 37.2603C33.0646 37.2603 33.3962 36.9287 33.3962 36.5176V30.3997Z" fill="#53CBC8"/>
<path fill-rule="evenodd" clip-rule="evenodd" d="M36.3535 29.7012C36.3535 29.2901 36.0219 28.9586 35.6108 28.9586C35.2041 28.9586 34.8682 29.2901 34.8682 29.7012V32.3402C34.8682 32.7513 35.1997 33.0829 35.6108 33.0829C36.0219 33.0829 36.3535 32.7513 36.3535 32.3402V29.7012Z" fill="#53CBC8"/>
</svg>
