<svg width="51" height="50" viewBox="0 0 51 50" fill="none" xmlns="http://www.w3.org/2000/svg">
<ellipse cx="25.6819" cy="24.9999" rx="25" ry="24.9999" fill="#E1177C"/>
<path d="M33.1258 10.8937C37.2306 12.6351 39.967 16.9264 39.656 21.2798C32.3173 21.2798 24.9786 21.3421 17.6399 21.2177C17.6399 18.2947 18.635 15.3094 20.7495 13.2571C23.8591 10.0852 29.0211 9.09016 33.1258 10.8937Z" fill="white"/>
<path d="M32.8147 38.8806C33.2501 38.8806 33.6233 39.1294 33.6233 39.4403C33.6233 39.7512 33.2501 40 32.8147 40H20.9982C20.5628 40 20.1897 39.7512 20.1897 39.4403C20.1897 39.1294 20.5628 38.8806 20.9982 38.8806H32.8147Z" fill="white"/>
<path d="M18.4484 39.9999C18.8949 39.9999 19.2569 39.6378 19.2569 39.1914C19.2569 38.7448 18.8949 38.3828 18.4484 38.3828C18.0018 38.3828 17.6399 38.7448 17.6399 39.1914C17.6399 39.6378 18.0018 39.9999 18.4484 39.9999Z" fill="white"/>
<path d="M25.5375 37.0151C25.984 37.0151 26.346 36.6531 26.346 36.2066C26.346 35.76 25.984 35.3981 25.5375 35.3981C25.0909 35.3981 24.729 35.76 24.729 36.2066C24.729 36.6531 25.0909 37.0151 25.5375 37.0151Z" fill="white"/>
<path d="M39.4069 35.3981C39.8422 35.3981 40.2154 35.7712 40.2154 36.2066C40.2154 36.642 39.8422 37.0151 39.4069 37.0151H27.839C27.4037 37.0151 27.0305 36.642 27.0305 36.2066C27.0305 35.7712 27.4037 35.3981 27.839 35.3981H39.4069Z" fill="white"/>
<path d="M10.3634 34.0294C10.81 34.0294 11.1719 33.6675 11.1719 33.221C11.1719 32.7744 10.81 32.4125 10.3634 32.4125C9.91691 32.4125 9.55493 32.7744 9.55493 33.221C9.55493 33.6675 9.91691 34.0294 10.3634 34.0294Z" fill="white"/>
<path d="M21.8681 32.4125C22.3035 32.4125 22.6766 32.7856 22.6766 33.221C22.6766 33.6563 22.3035 34.0294 21.8681 34.0294H12.3527C11.9173 34.0294 11.5442 33.6563 11.5442 33.221C11.5442 32.7856 11.9173 32.4125 12.3527 32.4125H21.8681Z" fill="white"/>
<path d="M43.2001 32.4125C43.6355 32.4125 44.0087 32.7856 44.0087 33.221C44.0087 33.6563 43.6355 34.0294 43.2001 34.0294H24.2936C23.8583 34.0294 23.4851 33.6563 23.4851 33.221C23.4851 32.7856 23.8583 32.4125 24.2936 32.4125H43.2001Z" fill="white"/>
<path d="M39.655 29.427C40.0904 29.427 40.4635 29.8002 40.4635 30.2355C40.4635 30.6708 40.0904 31.0441 39.655 31.0441H16.4572C16.0218 31.0441 15.6487 30.6708 15.6487 30.2355C15.6487 29.8002 16.0218 29.427 16.4572 29.427H39.655Z" fill="white"/>
<path d="M13.9079 31.0441C14.3543 31.0441 14.7164 30.682 14.7164 30.2355C14.7164 29.789 14.3543 29.427 13.9079 29.427C13.4614 29.427 13.0994 29.789 13.0994 30.2355C13.0994 30.682 13.4614 31.0441 13.9079 31.0441Z" fill="white"/>
<path d="M34.8052 26.5042C35.2404 26.5042 35.6137 26.8773 35.6137 27.3127C35.6137 27.7481 35.2404 28.1212 34.8052 28.1212H11.6073C11.172 28.1212 10.7988 27.7481 10.7988 27.3127C10.7988 26.8773 11.172 26.5042 11.6073 26.5042H34.8052Z" fill="white"/>
<path d="M8.8085 28.1212C9.25502 28.1212 9.61699 27.7592 9.61699 27.3127C9.61699 26.8662 9.25502 26.5042 8.8085 26.5042C8.36197 26.5042 8 26.8662 8 27.3127C8 27.7592 8.36197 28.1212 8.8085 28.1212Z" fill="white"/>
<path d="M13.9079 25.1356C14.3543 25.1356 14.7164 24.7736 14.7164 24.3271C14.7164 23.8805 14.3543 23.5186 13.9079 23.5186C13.4614 23.5186 13.0994 23.8805 13.0994 24.3271C13.0994 24.7736 13.4614 25.1356 13.9079 25.1356Z" fill="white"/>
<path d="M41.8948 23.5186C42.3301 23.5186 42.7033 23.8917 42.7033 24.3271C42.7033 24.7625 42.3301 25.1356 41.8948 25.1356H16.6447C16.2093 25.1356 15.8362 24.7625 15.8362 24.3271C15.8362 23.8917 16.2093 23.5186 16.6447 23.5186H41.8948Z" fill="white"/>
</svg>
