<svg width="418" height="418" viewBox="0 0 418 418" fill="none" xmlns="http://www.w3.org/2000/svg">
<circle cx="209" cy="209" r="209" fill="#E1177C"/>
<path d="M270.34 75.7777C305.667 90.7645 329.217 127.696 326.541 165.163C263.382 165.163 200.224 165.699 137.065 164.628C137.065 139.472 145.629 113.78 163.827 96.117C190.589 68.8196 235.014 60.2556 270.34 75.7777Z" fill="white"/>
<path d="M267.663 316.639C271.41 316.639 274.622 318.78 274.622 321.456C274.622 324.132 271.41 326.273 267.663 326.273H165.967C162.22 326.273 159.009 324.132 159.009 321.456C159.009 318.78 162.22 316.639 165.967 316.639H267.663Z" fill="white"/>
<path d="M144.023 326.272C147.866 326.272 150.981 323.156 150.981 319.314C150.981 315.471 147.866 312.355 144.023 312.355C140.18 312.355 137.065 315.471 137.065 319.314C137.065 323.156 140.18 326.272 144.023 326.272Z" fill="white"/>
<path d="M205.034 300.584C208.877 300.584 211.992 297.469 211.992 293.626C211.992 289.783 208.877 286.668 205.034 286.668C201.191 286.668 198.076 289.783 198.076 293.626C198.076 297.469 201.191 300.584 205.034 300.584Z" fill="white"/>
<path d="M324.398 286.668C328.144 286.668 331.356 289.879 331.356 293.626C331.356 297.373 328.144 300.584 324.398 300.584H224.842C221.096 300.584 217.884 297.373 217.884 293.626C217.884 289.879 221.096 286.668 224.842 286.668H324.398Z" fill="white"/>
<path d="M74.442 274.889C78.2849 274.889 81.4001 271.774 81.4001 267.931C81.4001 264.088 78.2849 260.973 74.442 260.973C70.5991 260.973 67.4838 264.088 67.4838 267.931C67.4838 271.774 70.5991 274.889 74.442 274.889Z" fill="white"/>
<path d="M173.455 260.973C177.202 260.973 180.413 264.184 180.413 267.931C180.413 271.678 177.202 274.889 173.455 274.889H91.563C87.8163 274.889 84.6048 271.678 84.6048 267.931C84.6048 264.184 87.8163 260.973 91.563 260.973H173.455Z" fill="white"/>
<path d="M357.042 260.973C360.789 260.973 364.001 264.184 364.001 267.931C364.001 271.678 360.789 274.889 357.042 274.889H194.328C190.582 274.889 187.37 271.678 187.37 267.931C187.37 264.184 190.582 260.973 194.328 260.973H357.042Z" fill="white"/>
<path d="M326.531 235.279C330.278 235.279 333.489 238.491 333.489 242.237C333.489 245.984 330.278 249.196 326.531 249.196H126.885C123.138 249.196 119.927 245.984 119.927 242.237C119.927 238.491 123.138 235.279 126.885 235.279H326.531Z" fill="white"/>
<path d="M104.947 249.196C108.789 249.196 111.905 246.08 111.905 242.237C111.905 238.395 108.789 235.279 104.947 235.279C101.104 235.279 97.9884 238.395 97.9884 242.237C97.9884 246.08 101.104 249.196 104.947 249.196Z" fill="white"/>
<path d="M284.792 210.125C288.538 210.125 291.75 213.336 291.75 217.083C291.75 220.83 288.538 224.041 284.792 224.041H85.1459C81.3992 224.041 78.1877 220.83 78.1877 217.083C78.1877 213.336 81.3992 210.125 85.1459 210.125H284.792Z" fill="white"/>
<path d="M61.0602 224.041C64.9031 224.041 68.0183 220.926 68.0183 217.083C68.0183 213.24 64.9031 210.125 61.0602 210.125C57.2173 210.125 54.1021 213.24 54.1021 217.083C54.1021 220.926 57.2173 224.041 61.0602 224.041Z" fill="white"/>
<path d="M104.947 198.346C108.789 198.346 111.905 195.231 111.905 191.388C111.905 187.545 108.789 184.43 104.947 184.43C101.104 184.43 97.9884 187.545 97.9884 191.388C97.9884 195.231 101.104 198.346 104.947 198.346Z" fill="white"/>
<path d="M345.809 184.43C349.555 184.43 352.767 187.641 352.767 191.388C352.767 195.135 349.555 198.346 345.809 198.346H128.5C124.753 198.346 121.542 195.135 121.542 191.388C121.542 187.641 124.753 184.43 128.5 184.43H345.809Z" fill="white"/>
</svg>
