<svg width="40" height="40" viewBox="0 0 40 40" fill="none" xmlns="http://www.w3.org/2000/svg">
<circle cx="20" cy="20" r="20" fill="#E1147B"/>
<path d="M30 19.5C27.5 22.5 20 19 20 19C20 19 13.5001 16.5 9 19.5C9.00012 11 13.9249 7 20 7C26.0751 7 31 11.5 30 19.5Z" fill="white"/>
<path d="M9 20.9997C9 20.9997 14 17.5 20.5 20.9997C28 24 30.5 20.9997 30.5 20.9997" stroke="white" stroke-linecap="round" stroke-linejoin="round"/>
<line x1="10.5" y1="22.5" x2="10.5" y2="26.5" stroke="white" stroke-linecap="round"/>
<line x1="13.5" y1="21.5" x2="13.5" y2="27.5" stroke="white" stroke-linecap="round"/>
<line x1="15.5" y1="21.5" x2="15.5" y2="33.5" stroke="white" stroke-linecap="round"/>
<line x1="18.5" y1="22.5" x2="18.5" y2="26.5" stroke="white" stroke-linecap="round"/>
<line x1="21.5" y1="23.5" x2="21.5" y2="24.5" stroke="white" stroke-linecap="round"/>
<line x1="23.5" y1="24.5" x2="23.5" y2="30.5" stroke="white" stroke-linecap="round"/>
<line x1="26.5" y1="25.5" x2="26.5" y2="30.5" stroke="white" stroke-linecap="round"/>
<line x1="29.5" y1="24.5" x2="29.5" y2="26.5" stroke="white" stroke-linecap="round"/>
</svg>
