<svg width="61" height="60" viewBox="0 0 61 60" fill="none" xmlns="http://www.w3.org/2000/svg">
<path d="M30.6816 57.4999C45.8695 57.4999 58.1816 45.1877 58.1816 29.9999C58.1816 14.8121 45.8695 2.5 30.6816 2.5C15.4938 2.5 3.18164 14.8121 3.18164 29.9999C3.18164 45.1877 15.4938 57.4999 30.6816 57.4999Z" fill="white"/>
<path fill-rule="evenodd" clip-rule="evenodd" d="M16 45H26.3306V29.5073C26.3306 29.0065 27.0508 28.929 27.1574 29.4183L29.5948 40.6056H35.7932V36.7553C35.7932 36.5243 35.9804 36.3371 36.2114 36.3371H46V15H35.6694V18.8502C35.6694 19.0812 35.4822 19.2684 35.2512 19.2684H24.946L25.7929 23.1556C25.8497 23.4164 25.6512 23.6629 25.3844 23.6629H16V45Z" fill="#14A800"/>
</svg>
