<svg width="20" height="20" viewBox="0 0 20 20" fill="none" xmlns="http://www.w3.org/2000/svg">
<circle cx="10" cy="10" r="10" fill="white"/>
<path d="M7.56315 6.02055C8.30373 5.5411 9.13991 5.2774 10.0478 5.2774C10.9317 5.2774 11.7679 5.51712 12.5324 6.02055L14.1331 4.43836C12.8907 3.47945 11.529 3 10.0478 3C8.56655 3 7.20479 3.47945 5.98634 4.41438L7.56315 6.02055Z" fill="black"/>
<path d="M14.3003 5.80479C14.2526 5.75685 14.2286 5.68493 14.2286 5.61301C14.2286 5.5411 14.2526 5.46918 14.3003 5.42123C14.4198 5.32534 14.587 5.32534 14.7065 5.42123C14.7542 5.46918 14.802 5.5411 14.802 5.61301C14.802 5.68493 14.7781 5.75685 14.7065 5.80479C14.6587 5.85274 14.587 5.87671 14.5153 5.87671C14.4198 5.87671 14.3481 5.85274 14.3003 5.80479Z" fill="black"/>
<path d="M13.5836 6.54794C13.5358 6.5 13.5119 6.42808 13.5119 6.35616C13.5119 6.28424 13.5358 6.21233 13.5836 6.16438C13.6791 6.06849 13.8464 6.06849 13.9658 6.16438C14.0137 6.21233 14.0375 6.28424 14.0375 6.35616C14.0375 6.42808 14.0137 6.5 13.9658 6.54794C13.9181 6.59589 13.8464 6.61986 13.7747 6.61986C13.7031 6.61986 13.6553 6.59589 13.5836 6.54794Z" fill="black"/>
<path d="M12.7474 7.09931C12.7474 7.17123 12.7713 7.24315 12.8191 7.29109C12.8669 7.33904 12.9386 7.36301 13.0102 7.36301C13.0819 7.36301 13.1536 7.33904 13.2013 7.29109C13.2491 7.24315 13.273 7.17123 13.273 7.09931C13.273 7.0274 13.2491 6.95548 13.2013 6.90753C13.0819 6.81164 12.9147 6.81164 12.8191 6.90753C12.7713 6.95548 12.7474 7.0274 12.7474 7.09931Z" fill="black"/>
<path d="M12.0785 8.03424C12.0307 7.9863 12.0068 7.91438 12.0068 7.84246C12.0068 7.77054 12.0307 7.69863 12.0785 7.65068C12.1979 7.55479 12.3652 7.55479 12.4846 7.65068C12.5324 7.69863 12.5563 7.77054 12.5563 7.84246C12.5563 7.91438 12.5324 7.9863 12.4846 8.03424C12.4368 8.08219 12.3652 8.10616 12.2935 8.10616C12.2218 8.10616 12.1262 8.08219 12.0785 8.03424Z" fill="black"/>
<path d="M11.2901 8.58561C11.2901 8.65753 11.314 8.72945 11.3618 8.7774C11.4334 8.82534 11.4812 8.84931 11.5529 8.84931C11.6246 8.84931 11.6962 8.82534 11.744 8.7774C11.7918 8.72945 11.8157 8.65753 11.8157 8.58561C11.8157 8.5137 11.7918 8.44178 11.744 8.39383C11.6246 8.29794 11.4573 8.29794 11.3618 8.39383C11.314 8.44178 11.2901 8.5137 11.2901 8.58561Z" fill="black"/>
<path d="M10.5256 9.32876C10.5256 9.25685 10.5495 9.18493 10.5973 9.13699C10.6928 9.04109 10.86 9.04109 10.9795 9.13699C11.0273 9.18493 11.0512 9.25685 11.0512 9.32876C11.0512 9.40068 11.0273 9.4726 10.9795 9.52054C10.9317 9.56849 10.86 9.59246 10.7884 9.59246C10.7167 9.59246 10.645 9.56849 10.5973 9.52054C10.5495 9.4726 10.5256 9.40068 10.5256 9.32876Z" fill="black"/>
<path d="M9.06822 10.7911C9.06822 10.863 9.09214 10.9349 9.13991 10.9829C9.21159 11.0308 9.25936 11.0548 9.33104 11.0548C9.40273 11.0548 9.47441 11.0308 9.52218 10.9829C9.56995 10.9349 9.59387 10.863 9.59387 10.7911C9.59387 10.7192 9.56995 10.6473 9.52218 10.5993C9.40273 10.5034 9.2355 10.5034 9.13991 10.5993C9.09214 10.6473 9.06822 10.7192 9.06822 10.7911Z" fill="black"/>
<path d="M8.37542 11.726C8.32765 11.6781 8.30373 11.6062 8.30373 11.5342C8.30373 11.4623 8.32765 11.3904 8.37542 11.3425C8.49487 11.2466 8.66209 11.2466 8.78155 11.3425C8.82932 11.3904 8.85323 11.4623 8.85323 11.5342C8.85323 11.6062 8.82932 11.6781 8.78155 11.726C8.73378 11.774 8.66209 11.7979 8.59041 11.7979C8.49487 11.7979 8.4471 11.774 8.37542 11.726Z" fill="black"/>
<path d="M7.58701 12.2774C7.58701 12.3493 7.61092 12.4212 7.65869 12.4692C7.73038 12.5171 7.77815 12.5411 7.84983 12.5411C7.92151 12.5411 7.99314 12.5171 8.04097 12.4692C8.08874 12.4212 8.11259 12.3493 8.11259 12.2774C8.11259 12.2055 8.08874 12.1336 8.04097 12.0856C7.92151 11.9897 7.75423 11.9897 7.65869 12.0856C7.61092 12.1336 7.58701 12.2055 7.58701 12.2774Z" fill="black"/>
<path d="M6.94197 13.2123C6.8942 13.1644 6.87029 13.0925 6.87029 13.0205C6.87029 12.9486 6.8942 12.8767 6.94197 12.8288C7.03751 12.7329 7.20479 12.7329 7.32425 12.8288C7.37202 12.8767 7.39587 12.9486 7.39587 13.0205C7.39587 13.0925 7.37202 13.1644 7.32425 13.2123C7.27642 13.2603 7.20479 13.2842 7.13311 13.2842C7.06142 13.2842 6.98974 13.2603 6.94197 13.2123Z" fill="black"/>
<path d="M6.05803 13.7637C6.05803 13.8356 6.1058 13.9075 6.15357 13.9555C6.22525 14.0034 6.29693 14.0274 6.36862 14.0274C6.44024 14.0274 6.51193 14.0034 6.5597 13.9555C6.60752 13.9075 6.63138 13.8356 6.63138 13.7637C6.63138 13.6918 6.60752 13.6199 6.5597 13.5719C6.44024 13.476 6.27302 13.476 6.15357 13.5719C6.08188 13.6199 6.05803 13.6918 6.05803 13.7637Z" fill="black"/>
<path d="M5.43684 14.6986C5.38907 14.6267 5.36516 14.5788 5.36516 14.5068C5.36516 14.4349 5.38907 14.363 5.43684 14.3151C5.53244 14.2192 5.69966 14.2192 5.81912 14.3151C5.86689 14.363 5.8908 14.4349 5.8908 14.5068C5.8908 14.5788 5.86689 14.6507 5.81912 14.6986C5.77135 14.7466 5.69966 14.7705 5.62798 14.7705C5.5563 14.7705 5.50853 14.7466 5.43684 14.6986Z" fill="black"/>
<path d="M5.8908 5.61301C5.8908 5.68493 5.86689 5.75685 5.81912 5.80479C5.77135 5.85274 5.69966 5.87671 5.62798 5.87671C5.5563 5.87671 5.48461 5.85274 5.43684 5.80479C5.38907 5.75685 5.36516 5.68493 5.36516 5.61301C5.36516 5.5411 5.38907 5.46918 5.43684 5.42123C5.5563 5.32534 5.72352 5.32534 5.81912 5.42123C5.86689 5.46918 5.8908 5.5411 5.8908 5.61301Z" fill="black"/>
<path d="M6.5597 6.54794C6.60752 6.5 6.63138 6.42808 6.63138 6.35616C6.63138 6.28424 6.60752 6.21233 6.5597 6.16438C6.44024 6.06849 6.27302 6.06849 6.15357 6.16438C6.1058 6.21233 6.08188 6.28424 6.08188 6.35616C6.08188 6.42808 6.1058 6.5 6.15357 6.54794C6.20133 6.59589 6.27302 6.61986 6.3447 6.61986C6.44024 6.61986 6.51193 6.59589 6.5597 6.54794Z" fill="black"/>
<path d="M7.37202 7.09931C7.37202 7.17123 7.3481 7.24315 7.30033 7.29109C7.25256 7.33904 7.18088 7.36301 7.10919 7.36301C7.03751 7.36301 6.96589 7.33904 6.91806 7.29109C6.87029 7.24315 6.84643 7.17123 6.84643 7.09931C6.84643 7.0274 6.87029 6.95548 6.91806 6.90753C7.03751 6.81164 7.20479 6.81164 7.30033 6.90753C7.3481 6.95548 7.37202 7.0274 7.37202 7.09931Z" fill="black"/>
<path d="M8.04097 8.03424C8.08874 7.9863 8.11259 7.91438 8.11259 7.84246C8.11259 7.77054 8.08874 7.69863 8.04097 7.65068C7.94537 7.55479 7.77815 7.55479 7.65869 7.65068C7.61092 7.69863 7.58701 7.77054 7.58701 7.84246C7.58701 7.91438 7.61092 7.9863 7.65869 8.03424C7.70646 8.08219 7.77815 8.10616 7.84983 8.10616C7.92151 8.10616 7.99314 8.08219 8.04097 8.03424Z" fill="black"/>
<path d="M8.87714 8.58561C8.87714 8.65753 8.82932 8.72945 8.78155 8.7774C8.73378 8.82534 8.63824 8.84931 8.56655 8.84931C8.49487 8.84931 8.42318 8.82534 8.37542 8.7774C8.32765 8.72945 8.30373 8.65753 8.30373 8.58561C8.30373 8.5137 8.32765 8.44178 8.37542 8.39383C8.49487 8.29794 8.68601 8.29794 8.78155 8.39383C8.85323 8.44178 8.87714 8.5137 8.87714 8.58561Z" fill="black"/>
<path d="M9.59387 9.32876C9.59387 9.25685 9.56995 9.18493 9.52218 9.13699C9.42658 9.04109 9.25936 9.04109 9.13991 9.13699C9.09214 9.18493 9.06822 9.25685 9.06822 9.32876C9.06822 9.40068 9.09214 9.4726 9.13991 9.52054C9.18768 9.56849 9.25936 9.59246 9.33104 9.59246C9.40273 9.59246 9.47441 9.56849 9.52218 9.52054C9.56995 9.4726 9.59387 9.40068 9.59387 9.32876Z" fill="black"/>
<path d="M10.3344 10.0719C10.3344 10.1438 10.3106 10.2158 10.2628 10.2637C10.215 10.3116 10.1433 10.3356 10.0717 10.3356C10 10.3356 9.92831 10.3116 9.88054 10.2637C9.83277 10.2158 9.80886 10.1438 9.80886 10.0719C9.80886 10 9.83277 9.92808 9.88054 9.88013C10 9.78424 10.1672 9.78424 10.2628 9.88013C10.3106 9.92808 10.3344 10 10.3344 10.0719Z" fill="black"/>
<path d="M11.0034 10.9829C11.0512 10.9349 11.0751 10.863 11.0751 10.7911C11.0751 10.7192 11.0512 10.6473 11.0034 10.5993C10.8839 10.5034 10.7167 10.5034 10.5973 10.5993C10.5495 10.6473 10.5017 10.7192 10.5017 10.7911C10.5017 10.863 10.5256 10.9349 10.5973 10.9829C10.645 11.0308 10.7167 11.0548 10.7884 11.0548C10.8839 11.0548 10.9556 11.0308 11.0034 10.9829Z" fill="black"/>
<path d="M11.8157 11.5342C11.8157 11.6062 11.7918 11.6781 11.744 11.726C11.6962 11.774 11.6246 11.7979 11.5529 11.7979C11.4812 11.7979 11.4095 11.774 11.3618 11.726C11.314 11.6781 11.2901 11.6062 11.2901 11.5342C11.2901 11.4623 11.314 11.3904 11.3618 11.3425C11.4812 11.2466 11.6484 11.2466 11.744 11.3425C11.7918 11.3904 11.8157 11.4623 11.8157 11.5342Z" fill="black"/>
<path d="M12.4846 12.4692C12.5324 12.4212 12.5563 12.3493 12.5563 12.2774C12.5563 12.2055 12.5324 12.1336 12.4846 12.0856C12.3891 11.9897 12.2218 11.9897 12.1024 12.0856C12.0546 12.1336 12.0307 12.2055 12.0307 12.2774C12.0307 12.3493 12.0546 12.4212 12.1024 12.4692C12.1502 12.5171 12.2218 12.5411 12.2935 12.5411C12.3652 12.5411 12.4368 12.5171 12.4846 12.4692Z" fill="black"/>
<path d="M13.2491 13.0205C13.2491 13.0925 13.2252 13.1644 13.1775 13.2123C13.1296 13.2603 13.0819 13.2842 12.9863 13.2842C12.9147 13.2842 12.843 13.2603 12.7952 13.2123C12.7474 13.1644 12.7235 13.0925 12.7235 13.0205C12.7235 12.9486 12.7474 12.8767 12.7952 12.8288C12.9147 12.7329 13.0819 12.7329 13.1775 12.8288C13.2252 12.8767 13.2491 12.9486 13.2491 13.0205Z" fill="black"/>
<path d="M13.9658 13.9555C14.0137 13.9075 14.0375 13.8356 14.0375 13.7637C14.0375 13.6918 14.0137 13.6199 13.9658 13.5719C13.8703 13.476 13.7031 13.476 13.5836 13.5719C13.5358 13.6199 13.5119 13.6918 13.5119 13.7637C13.5119 13.8356 13.5358 13.9075 13.5836 13.9555C13.6314 14.0034 13.7031 14.0274 13.7747 14.0274C13.8464 14.0274 13.9181 14.0034 13.9658 13.9555Z" fill="black"/>
<path d="M14.7781 14.5068C14.7781 14.5788 14.7542 14.6507 14.7065 14.6986C14.6587 14.7466 14.587 14.7705 14.5153 14.7705C14.4436 14.7705 14.372 14.7466 14.3242 14.6986C14.2526 14.6507 14.2286 14.5788 14.2286 14.5068C14.2286 14.4349 14.2526 14.363 14.3003 14.3151C14.4198 14.2192 14.587 14.2192 14.7065 14.3151C14.7542 14.363 14.7781 14.4349 14.7781 14.5068Z" fill="black"/>
<path d="M5.24571 10.0479C5.22185 10.9349 5.48461 11.774 5.98634 12.5411L4.40953 14.1233C3.4539 12.9007 3 11.5342 3 10.0479C3 8.56164 3.47781 7.1952 4.40953 5.9726L5.98634 7.55479C5.50853 8.32191 5.24571 9.13698 5.24571 10.0479Z" fill="black"/>
<path d="M15.7576 14.6267C16.3788 14.6267 16.8566 15.1301 16.8566 15.7294C16.8566 16.3527 16.3549 16.8322 15.7576 16.8322C15.1365 16.8322 14.6587 16.3288 14.6587 15.7294C14.6348 15.1301 15.1365 14.6267 15.7576 14.6267Z" fill="black"/>
<path d="M5.48461 15.7294C5.48461 15.1301 4.98294 14.6267 4.38567 14.6267C3.78841 14.6267 3.28668 15.1301 3.28668 15.7294C3.28668 16.3288 3.78841 16.8322 4.38567 16.8322C5.0068 16.8322 5.48461 16.3288 5.48461 15.7294Z" fill="black"/>
<path d="M15.7815 3.23973C16.3788 3.23973 16.8566 3.74315 16.8566 4.34247C16.8566 4.96575 16.3788 5.4452 15.7576 5.4452C15.1604 5.4452 14.6587 4.94178 14.6587 4.34247C14.6825 3.74315 15.1604 3.23973 15.7815 3.23973Z" fill="black"/>
<path d="M5.46076 4.34247C5.46076 3.71918 4.98294 3.23973 4.36176 3.23973C3.76449 3.23973 3.26282 3.71918 3.26282 4.34247C3.26282 4.96575 3.76449 5.4452 4.36176 5.4452C4.95903 5.4452 5.46076 4.94178 5.46076 4.34247Z" fill="black"/>
<path d="M12.4368 13.9794C11.6963 14.4589 10.8601 14.7226 9.95223 14.7226C9.06828 14.7226 8.23211 14.4829 7.46761 13.9794L5.86689 15.5616C7.10925 16.5205 8.47101 17 9.95223 17C11.4334 17 12.7952 16.5205 14.0137 15.5856L12.4368 13.9794Z" fill="black"/>
<path d="M14.7543 9.95205C14.7781 9.06507 14.5154 8.22603 14.0137 7.4589L15.5905 5.87671C16.5461 7.09931 17 8.46575 17 9.95205C17 11.4384 16.5222 12.8048 15.5905 14.0274L14.0137 12.4452C14.4915 11.6781 14.7543 10.863 14.7543 9.95205Z" fill="black"/>
</svg>
