<svg width="51" height="50" viewBox="0 0 51 50" fill="none" xmlns="http://www.w3.org/2000/svg">
<ellipse cx="25.6819" cy="24.9999" rx="25" ry="24.9999" fill="white"/>
<path d="M20.7781 16.4726C22.365 15.4452 24.1568 14.8802 26.1023 14.8802C27.9964 14.8802 29.7883 15.3938 31.4265 16.4726L34.8565 13.0822C32.1943 11.0274 29.2763 10 26.1023 10C22.9282 10 20.0101 11.0274 17.3992 13.0308L20.7781 16.4726Z" fill="black"/>
<path d="M35.2147 16.0103C35.1125 15.9075 35.061 15.7534 35.061 15.5993C35.061 15.4452 35.1125 15.2911 35.2147 15.1883C35.4708 14.9829 35.829 14.9829 36.0851 15.1883C36.1873 15.2911 36.2898 15.4452 36.2898 15.5993C36.2898 15.7534 36.2385 15.9075 36.0851 16.0103C35.9827 16.113 35.829 16.1644 35.6754 16.1644C35.4708 16.1644 35.3171 16.113 35.2147 16.0103Z" fill="black"/>
<path d="M33.6793 17.6028C33.5768 17.5 33.5256 17.3459 33.5256 17.1918C33.5256 17.0377 33.5768 16.8836 33.6793 16.7808C33.8839 16.5754 34.2424 16.5754 34.4983 16.7808C34.6009 16.8836 34.6519 17.0377 34.6519 17.1918C34.6519 17.3459 34.6009 17.5 34.4983 17.6028C34.3961 17.7055 34.2424 17.7569 34.0888 17.7569C33.9354 17.7569 33.8329 17.7055 33.6793 17.6028Z" fill="black"/>
<path d="M31.8872 18.7843C31.8872 18.9384 31.9384 19.0925 32.0409 19.1953C32.1433 19.298 32.2969 19.3494 32.4503 19.3494C32.604 19.3494 32.7576 19.298 32.8599 19.1953C32.9623 19.0925 33.0135 18.9384 33.0135 18.7843C33.0135 18.6302 32.9623 18.4761 32.8599 18.3733C32.604 18.1679 32.2457 18.1679 32.0409 18.3733C31.9384 18.4761 31.8872 18.6302 31.8872 18.7843Z" fill="black"/>
<path d="M30.4539 20.7876C30.3515 20.6849 30.3003 20.5308 30.3003 20.3767C30.3003 20.2225 30.3515 20.0684 30.4539 19.9657C30.7098 19.7602 31.0683 19.7602 31.3242 19.9657C31.4266 20.0684 31.4778 20.2225 31.4778 20.3767C31.4778 20.5308 31.4266 20.6849 31.3242 20.7876C31.2217 20.8904 31.0683 20.9417 30.9147 20.9417C30.761 20.9417 30.5562 20.8904 30.4539 20.7876Z" fill="black"/>
<path d="M28.7644 21.9692C28.7644 22.1233 28.8156 22.2774 28.918 22.3801C29.0715 22.4829 29.1739 22.5342 29.3275 22.5342C29.4812 22.5342 29.6346 22.4829 29.737 22.3801C29.8395 22.2774 29.8907 22.1233 29.8907 21.9692C29.8907 21.8151 29.8395 21.6609 29.737 21.5582C29.4812 21.3527 29.1227 21.3527 28.918 21.5582C28.8156 21.6609 28.7644 21.8151 28.7644 21.9692Z" fill="black"/>
<path d="M27.1265 23.5616C27.1265 23.4076 27.1777 23.2534 27.2801 23.1507C27.4847 22.9452 27.843 22.9452 28.0991 23.1507C28.2015 23.2534 28.2528 23.4076 28.2528 23.5616C28.2528 23.7158 28.2015 23.8699 28.0991 23.9726C27.9967 24.0754 27.843 24.1267 27.6896 24.1267C27.536 24.1267 27.3823 24.0754 27.2801 23.9726C27.1777 23.8699 27.1265 23.7158 27.1265 23.5616Z" fill="black"/>
<path d="M24.0032 26.6953C24.0032 26.8494 24.0544 27.0035 24.1568 27.1063C24.3104 27.209 24.4128 27.2604 24.5664 27.2604C24.72 27.2604 24.8736 27.209 24.9759 27.1063C25.0783 27.0035 25.1296 26.8494 25.1296 26.6953C25.1296 26.5412 25.0783 26.3872 24.9759 26.2843C24.72 26.0788 24.3616 26.0788 24.1568 26.2843C24.0544 26.3872 24.0032 26.5412 24.0032 26.6953Z" fill="black"/>
<path d="M22.5189 28.6986C22.4165 28.596 22.3652 28.4419 22.3652 28.2876C22.3652 28.1335 22.4165 27.9795 22.5189 27.8768C22.7748 27.6713 23.1332 27.6713 23.3891 27.8768C23.4915 27.9795 23.5427 28.1335 23.5427 28.2876C23.5427 28.4419 23.4915 28.596 23.3891 28.6986C23.2868 28.8015 23.1332 28.8527 22.9796 28.8527C22.7748 28.8527 22.6725 28.8015 22.5189 28.6986Z" fill="black"/>
<path d="M20.8291 29.8802C20.8291 30.0343 20.8803 30.1883 20.9827 30.2912C21.1363 30.3938 21.2387 30.4453 21.3923 30.4453C21.5459 30.4453 21.6994 30.3938 21.8019 30.2912C21.9042 30.1883 21.9553 30.0343 21.9553 29.8802C21.9553 29.7261 21.9042 29.572 21.8019 29.4692C21.5459 29.2637 21.1874 29.2637 20.9827 29.4692C20.8803 29.572 20.8291 29.7261 20.8291 29.8802Z" fill="black"/>
<path d="M19.4473 31.8836C19.3449 31.781 19.2937 31.6269 19.2937 31.4726C19.2937 31.3185 19.3449 31.1645 19.4473 31.0618C19.652 30.8563 20.0105 30.8563 20.2665 31.0618C20.3688 31.1645 20.4199 31.3185 20.4199 31.4726C20.4199 31.6269 20.3688 31.781 20.2665 31.8836C20.164 31.9865 20.0105 32.0377 19.8569 32.0377C19.7033 32.0377 19.5497 31.9865 19.4473 31.8836Z" fill="black"/>
<path d="M17.553 33.0652C17.553 33.2192 17.6553 33.3733 17.7577 33.4762C17.9113 33.5788 18.0649 33.6302 18.2185 33.6302C18.372 33.6302 18.5256 33.5788 18.628 33.4762C18.7305 33.3733 18.7816 33.2192 18.7816 33.0652C18.7816 32.9111 18.7305 32.757 18.628 32.6542C18.372 32.4487 18.0137 32.4487 17.7577 32.6542C17.6041 32.757 17.553 32.9111 17.553 33.0652Z" fill="black"/>
<path d="M16.222 35.0684C16.1196 34.9144 16.0684 34.8117 16.0684 34.6574C16.0684 34.5034 16.1196 34.3493 16.222 34.2467C16.4268 34.0412 16.7851 34.0412 17.0411 34.2467C17.1435 34.3493 17.1947 34.5034 17.1947 34.6574C17.1947 34.8117 17.1435 34.9658 17.0411 35.0684C16.9388 35.1713 16.7851 35.2225 16.6315 35.2225C16.4779 35.2225 16.3756 35.1713 16.222 35.0684Z" fill="black"/>
<path d="M17.1947 15.5993C17.1947 15.7534 17.1435 15.9075 17.0411 16.0103C16.9388 16.113 16.7851 16.1644 16.6315 16.1644C16.4779 16.1644 16.3243 16.113 16.222 16.0103C16.1196 15.9075 16.0684 15.7534 16.0684 15.5993C16.0684 15.4452 16.1196 15.2911 16.222 15.1883C16.4779 14.9829 16.8363 14.9829 17.0411 15.1883C17.1435 15.2911 17.1947 15.4452 17.1947 15.5993Z" fill="black"/>
<path d="M18.6277 17.6028C18.7301 17.5 18.7813 17.3459 18.7813 17.1918C18.7813 17.0377 18.7301 16.8836 18.6277 16.7808C18.3717 16.5754 18.0133 16.5754 17.7574 16.7808C17.655 16.8836 17.6038 17.0377 17.6038 17.1918C17.6038 17.3459 17.655 17.5 17.7574 17.6028C17.8597 17.7055 18.0133 17.7569 18.1669 17.7569C18.3717 17.7569 18.5253 17.7055 18.6277 17.6028Z" fill="black"/>
<path d="M20.3687 18.7843C20.3687 18.9384 20.3174 19.0925 20.2151 19.1953C20.1127 19.298 19.9591 19.3494 19.8055 19.3494C19.6519 19.3494 19.4984 19.298 19.3959 19.1953C19.2936 19.0925 19.2424 18.9384 19.2424 18.7843C19.2424 18.6302 19.2936 18.4761 19.3959 18.3733C19.6519 18.1679 20.0103 18.1679 20.2151 18.3733C20.3174 18.4761 20.3687 18.6302 20.3687 18.7843Z" fill="black"/>
<path d="M21.8019 20.7876C21.9042 20.6849 21.9553 20.5308 21.9553 20.3767C21.9553 20.2225 21.9042 20.0684 21.8019 19.9657C21.597 19.7602 21.2387 19.7602 20.9827 19.9657C20.8803 20.0684 20.8291 20.2225 20.8291 20.3767C20.8291 20.5308 20.8803 20.6849 20.9827 20.7876C21.0851 20.8904 21.2387 20.9417 21.3923 20.9417C21.5459 20.9417 21.6994 20.8904 21.8019 20.7876Z" fill="black"/>
<path d="M23.594 21.9692C23.594 22.1233 23.4915 22.2774 23.3891 22.3801C23.2868 22.4829 23.082 22.5342 22.9284 22.5342C22.7748 22.5342 22.6212 22.4829 22.5189 22.3801C22.4165 22.2774 22.3652 22.1233 22.3652 21.9692C22.3652 21.8151 22.4165 21.6609 22.5189 21.5582C22.7748 21.3527 23.1844 21.3527 23.3891 21.5582C23.5427 21.6609 23.594 21.8151 23.594 21.9692Z" fill="black"/>
<path d="M25.1296 23.5616C25.1296 23.4076 25.0783 23.2534 24.9759 23.1507C24.7711 22.9452 24.4128 22.9452 24.1568 23.1507C24.0544 23.2534 24.0032 23.4076 24.0032 23.5616C24.0032 23.7158 24.0544 23.8699 24.1568 23.9726C24.2592 24.0754 24.4128 24.1267 24.5664 24.1267C24.72 24.1267 24.8736 24.0754 24.9759 23.9726C25.0783 23.8699 25.1296 23.7158 25.1296 23.5616Z" fill="black"/>
<path d="M26.7165 25.1541C26.7165 25.3082 26.6655 25.4625 26.5631 25.5651C26.4606 25.6678 26.307 25.7192 26.1536 25.7192C25.9999 25.7192 25.8463 25.6678 25.7439 25.5651C25.6416 25.4625 25.5903 25.3082 25.5903 25.1541C25.5903 25.0001 25.6416 24.8459 25.7439 24.7432C25.9999 24.5377 26.3582 24.5377 26.5631 24.7432C26.6655 24.8459 26.7165 25.0001 26.7165 25.1541Z" fill="black"/>
<path d="M28.1503 27.1063C28.2527 27.0035 28.3039 26.8494 28.3039 26.6953C28.3039 26.5412 28.2527 26.3872 28.1503 26.2843C27.8942 26.0788 27.5359 26.0788 27.2801 26.2843C27.1776 26.3872 27.0752 26.5412 27.0752 26.6953C27.0752 26.8494 27.1264 27.0035 27.2801 27.1063C27.3823 27.209 27.5359 27.2604 27.6896 27.2604C27.8942 27.2604 28.0478 27.209 28.1503 27.1063Z" fill="black"/>
<path d="M29.8907 28.2876C29.8907 28.4419 29.8395 28.596 29.737 28.6986C29.6346 28.8015 29.4812 28.8527 29.3275 28.8527C29.1739 28.8527 29.0203 28.8015 28.918 28.6986C28.8156 28.596 28.7644 28.4419 28.7644 28.2876C28.7644 28.1335 28.8156 27.9795 28.918 27.8768C29.1739 27.6713 29.5322 27.6713 29.737 27.8768C29.8395 27.9795 29.8907 28.1335 29.8907 28.2876Z" fill="black"/>
<path d="M31.3242 30.2912C31.4266 30.1883 31.4779 30.0343 31.4779 29.8802C31.4779 29.7261 31.4266 29.572 31.3242 29.4692C31.1196 29.2637 30.7611 29.2637 30.5052 29.4692C30.4028 29.572 30.3516 29.7261 30.3516 29.8802C30.3516 30.0343 30.4028 30.1883 30.5052 30.2912C30.6076 30.3938 30.7611 30.4453 30.9147 30.4453C31.0684 30.4453 31.2218 30.3938 31.3242 30.2912Z" fill="black"/>
<path d="M32.9622 31.4726C32.9622 31.6269 32.911 31.781 32.8088 31.8836C32.7062 31.9865 32.6039 32.0377 32.3991 32.0377C32.2457 32.0377 32.092 31.9865 31.9896 31.8836C31.8872 31.781 31.8359 31.6269 31.8359 31.4726C31.8359 31.3185 31.8872 31.1645 31.9896 31.0618C32.2457 30.8563 32.6039 30.8563 32.8088 31.0618C32.911 31.1645 32.9622 31.3185 32.9622 31.4726Z" fill="black"/>
<path d="M34.4983 33.4762C34.6009 33.3733 34.6519 33.2192 34.6519 33.0652C34.6519 32.9111 34.6009 32.757 34.4983 32.6542C34.2936 32.4487 33.9354 32.4487 33.6793 32.6542C33.5768 32.757 33.5256 32.9111 33.5256 33.0652C33.5256 33.2192 33.5768 33.3733 33.6793 33.4762C33.7817 33.5788 33.9354 33.6302 34.0888 33.6302C34.2424 33.6302 34.3961 33.5788 34.4983 33.4762Z" fill="black"/>
<path d="M36.2385 34.6574C36.2385 34.8117 36.1873 34.9658 36.0851 35.0684C35.9827 35.1713 35.829 35.2225 35.6754 35.2225C35.5218 35.2225 35.3683 35.1713 35.2659 35.0684C35.1125 34.9658 35.061 34.8117 35.061 34.6574C35.061 34.5034 35.1125 34.3493 35.2147 34.2467C35.4708 34.0412 35.829 34.0412 36.0851 34.2467C36.1873 34.3493 36.2385 34.5034 36.2385 34.6574Z" fill="black"/>
<path d="M15.8122 25.1027C15.7611 27.0034 16.3242 28.8015 17.3993 30.4453L14.0204 33.8357C11.9726 31.2158 11 28.2876 11 25.1027C11 21.9178 12.0239 18.9897 14.0204 16.3699L17.3993 19.7603C16.3754 21.4041 15.8122 23.1507 15.8122 25.1027Z" fill="black"/>
<path d="M38.338 34.9144C39.6691 34.9144 40.693 35.9931 40.693 37.2774C40.693 38.613 39.6179 39.6405 38.338 39.6405C37.0071 39.6405 35.9832 38.5618 35.9832 37.2774C35.932 35.9931 37.0071 34.9144 38.338 34.9144Z" fill="black"/>
<path d="M16.3241 37.2774C16.3241 35.9931 15.2491 34.9144 13.9692 34.9144C12.6894 34.9144 11.6143 35.9931 11.6143 37.2774C11.6143 38.5618 12.6894 39.6405 13.9692 39.6405C15.3002 39.6405 16.3241 38.5618 16.3241 37.2774Z" fill="black"/>
<path d="M38.3889 10.5137C39.6688 10.5137 40.6927 11.5925 40.6927 12.8768C40.6927 14.2124 39.6688 15.2397 38.3377 15.2397C37.058 15.2397 35.9829 14.161 35.9829 12.8768C36.0339 11.5925 37.058 10.5137 38.3889 10.5137Z" fill="black"/>
<path d="M16.2734 12.8768C16.2734 11.5411 15.2495 10.5137 13.9184 10.5137C12.6385 10.5137 11.5635 11.5411 11.5635 12.8768C11.5635 14.2124 12.6385 15.2397 13.9184 15.2397C15.1982 15.2397 16.2734 14.161 16.2734 12.8768Z" fill="black"/>
<path d="M31.222 33.5273C29.6352 34.5548 27.8433 35.1199 25.8979 35.1199C24.0037 35.1199 22.2119 34.6062 20.5737 33.5273L17.1436 36.9177C19.8058 38.9725 22.7238 40 25.8979 40C29.0718 40 31.99 38.9725 34.601 36.9691L31.222 33.5273Z" fill="black"/>
<path d="M36.1878 24.8973C36.2388 22.9966 35.6759 21.1987 34.6008 19.5548L37.9797 16.1644C40.0274 18.7843 41.0001 21.7124 41.0001 24.8973C41.0001 28.0823 39.9762 31.0103 37.9797 33.6302L34.6008 30.2398C35.6247 28.596 36.1878 26.8493 36.1878 24.8973Z" fill="black"/>
</svg>
