<svg width="51" height="50" viewBox="0 0 51 50" fill="none" xmlns="http://www.w3.org/2000/svg">
<ellipse cx="25.6819" cy="24.9999" rx="25" ry="24.9999" fill="black"/>
<path d="M35.064 11.5234L28.7947 20.8334C28.6931 20.9678 28.6463 21.1357 28.6633 21.3032C28.6804 21.4709 28.7603 21.6259 28.8869 21.7369C29.0135 21.8479 29.1774 21.9069 29.3457 21.902C29.514 21.897 29.6742 21.8284 29.7942 21.71L35.9633 16.3767C35.9988 16.3441 36.0432 16.3226 36.0908 16.315C36.1386 16.3073 36.1875 16.3139 36.2313 16.3337C36.2753 16.3536 36.3125 16.3859 36.3383 16.4268C36.3641 16.4676 36.3773 16.5151 36.3763 16.5633V33.3267C36.3758 33.3776 36.3599 33.4271 36.3304 33.4687C36.3012 33.5103 36.2598 33.5418 36.2119 33.5592C36.1641 33.5766 36.1122 33.579 36.063 33.566C36.0138 33.5531 35.9697 33.5254 35.9366 33.4867L17.2825 11.1534C16.9846 10.7949 16.612 10.5058 16.1909 10.3066C15.7697 10.1074 15.31 10.0027 14.8442 10.0001H14.1945C13.3473 10.0001 12.5347 10.3369 11.9357 10.9363C11.3366 11.5359 11 12.3489 11 13.1968V36.8034C11 37.6512 11.3366 38.4643 11.9357 39.0638C12.5347 39.6633 13.3473 40 14.1945 40C14.7404 40 15.2772 39.86 15.7537 39.5932C16.23 39.3266 16.6302 38.9422 16.9161 38.4767L23.1852 29.1668C23.2868 29.0323 23.3338 28.8645 23.3167 28.6968C23.2995 28.5292 23.2196 28.3743 23.0931 28.2632C22.9664 28.1521 22.8025 28.0931 22.6342 28.0982C22.4659 28.1031 22.3057 28.1717 22.1859 28.2901L16.0166 33.6234C15.9811 33.656 15.9367 33.6774 15.8891 33.6852C15.8415 33.6927 15.7926 33.6863 15.7486 33.6663C15.7046 33.6465 15.6674 33.6141 15.6416 33.5733C15.6158 33.5325 15.6026 33.485 15.6036 33.4367V16.69C15.6041 16.6392 15.6201 16.5896 15.6495 16.548C15.6789 16.5066 15.7203 16.475 15.768 16.4576C15.8158 16.4402 15.8678 16.4377 15.917 16.4508C15.9661 16.4637 16.0103 16.4914 16.0433 16.53L34.6975 38.8633C34.9975 39.2187 35.3715 39.5041 35.7933 39.6999C36.215 39.8956 36.6743 39.997 37.1391 39.9967H37.8055C38.225 39.9967 38.6404 39.914 39.0279 39.7534C39.4155 39.5927 39.7677 39.3573 40.0643 39.0605C40.361 38.7636 40.5962 38.4112 40.7568 38.0234C40.9173 37.6355 41 37.2198 41 36.8001V13.1968C41 12.7753 40.9167 12.3579 40.7549 11.9688C40.5931 11.5797 40.356 11.2263 40.0573 10.9293C39.7585 10.6321 39.4039 10.3971 39.0141 10.2376C38.6241 10.0782 38.2066 9.99742 37.7854 10.0001C37.2395 10.0001 36.7028 10.1402 36.2264 10.4069C35.7499 10.6735 35.3497 11.0579 35.064 11.5234Z" fill="white"/>
</svg>
