<svg width="40" height="40" viewBox="0 0 40 40" fill="none" xmlns="http://www.w3.org/2000/svg">
<rect width="40" height="40" rx="20" fill="white"/>
<path d="M26.8047 9.59685L22.0153 16.7835C21.9377 16.8872 21.9018 17.0168 21.9149 17.1462C21.928 17.2756 21.989 17.3952 22.0857 17.4809C22.1824 17.5667 22.3077 17.6122 22.4363 17.6084C22.5648 17.6045 22.6872 17.5516 22.7788 17.4602L27.4918 13.3433C27.5189 13.3181 27.5528 13.3015 27.5892 13.2956C27.6256 13.2897 27.663 13.2947 27.6965 13.3101C27.7302 13.3254 27.7586 13.3504 27.7783 13.3819C27.7979 13.4134 27.8081 13.4501 27.8073 13.4874V26.4275C27.8069 26.4667 27.7947 26.505 27.7723 26.537C27.7498 26.5691 27.7182 26.5935 27.6817 26.6069C27.6452 26.6203 27.6055 26.6222 27.5679 26.6122C27.5303 26.6022 27.4967 26.5808 27.4714 26.551L13.2204 9.31124C12.9929 9.03447 12.7083 8.81137 12.3865 8.65757C12.0647 8.50378 11.7135 8.42302 11.3576 8.42095H10.8614C10.2141 8.42095 9.59338 8.68093 9.1357 9.14369C8.67802 9.60645 8.4209 10.2341 8.4209 10.8885V29.1112C8.4209 29.7656 8.67802 30.3933 9.1357 30.8561C9.59338 31.3188 10.2141 31.5788 10.8614 31.5788C11.2784 31.5787 11.6885 31.4706 12.0525 31.2648C12.4165 31.0589 12.7222 30.7622 12.9405 30.4029L17.7298 23.2162C17.8075 23.1125 17.8433 22.9829 17.8303 22.8535C17.8172 22.7241 17.7562 22.6045 17.6595 22.5188C17.5627 22.4331 17.4375 22.3875 17.3089 22.3914C17.1803 22.3952 17.0579 22.4481 16.9664 22.5395L12.2534 26.6565C12.2262 26.6817 12.1923 26.6982 12.1559 26.7041C12.1195 26.71 12.0822 26.705 12.0486 26.6897C12.015 26.6743 11.9866 26.6493 11.9669 26.6178C11.9472 26.5863 11.9371 26.5497 11.9378 26.5124V13.5851C11.9382 13.5459 11.9505 13.5076 11.9729 13.4756C11.9954 13.4435 12.027 13.4191 12.0635 13.4057C12.1 13.3923 12.1397 13.3904 12.1773 13.4004C12.2148 13.4104 12.2485 13.4318 12.2738 13.4616L26.5247 30.7014C26.754 30.9756 27.0397 31.196 27.3618 31.3471C27.684 31.4982 28.0349 31.5764 28.3901 31.5762H28.8991C29.2195 31.5762 29.5369 31.5124 29.833 31.3884C30.1291 31.2644 30.3981 31.0826 30.6247 30.8535C30.8514 30.6243 31.0311 30.3523 31.1538 30.0529C31.2764 29.7535 31.3395 29.4327 31.3395 29.1086V10.8885C31.3395 10.5632 31.2759 10.241 31.1523 9.94066C31.0287 9.64026 30.8476 9.36755 30.6194 9.13821C30.3911 8.90887 30.1203 8.72743 29.8224 8.60433C29.5245 8.48124 29.2056 8.41891 28.8838 8.42095C28.4667 8.421 28.0567 8.52911 27.6927 8.73497C27.3287 8.94082 27.023 9.23756 26.8047 9.59685Z" fill="black"/>
</svg>
