<svg width="42" height="42" viewBox="0 0 42 42" fill="none" xmlns="http://www.w3.org/2000/svg">
<rect width="42" height="42" rx="21" fill="black"/>
<path d="M28.1448 10.0785L23.1159 17.6245C23.0344 17.7334 22.9968 17.8695 23.0105 18.0053C23.0242 18.1412 23.0883 18.2668 23.1898 18.3568C23.2914 18.4468 23.4229 18.4946 23.5579 18.4906C23.6929 18.4866 23.8214 18.431 23.9176 18.335L28.8662 14.0122C28.8947 13.9858 28.9303 13.9684 28.9685 13.9622C29.0068 13.956 29.046 13.9613 29.0812 13.9774C29.1165 13.9935 29.1463 14.0197 29.167 14.0528C29.1877 14.0859 29.1983 14.1244 29.1975 14.1635V27.7506C29.1971 27.7919 29.1843 27.832 29.1607 27.8657C29.1372 27.8994 29.104 27.925 29.0656 27.9391C29.0273 27.9532 28.9856 27.9551 28.9462 27.9446C28.9067 27.9341 28.8713 27.9117 28.8448 27.8803L13.8813 9.7786C13.6424 9.488 13.3435 9.25374 13.0057 9.09226C12.6678 8.93078 12.2991 8.84597 11.9254 8.8438H11.4043C10.7247 8.8438 10.0729 9.11678 9.59234 9.60268C9.11177 10.0886 8.8418 10.7476 8.8418 11.4348V30.5686C8.8418 31.2557 9.11177 31.9148 9.59234 32.4007C10.0729 32.8866 10.7247 33.1595 11.4043 33.1595C11.8422 33.1595 12.2728 33.046 12.655 32.8298C13.0371 32.6137 13.3581 32.3021 13.5874 31.9248L18.6162 24.3789C18.6977 24.2699 18.7354 24.1339 18.7217 23.998C18.7079 23.8621 18.6438 23.7366 18.5423 23.6465C18.4407 23.5565 18.3092 23.5087 18.1742 23.5128C18.0392 23.5168 17.9107 23.5724 17.8146 23.6683L12.8659 27.9911C12.8374 28.0175 12.8018 28.0349 12.7636 28.0412C12.7254 28.0473 12.6862 28.0421 12.6509 28.0259C12.6156 28.0098 12.5858 27.9836 12.5651 27.9505C12.5444 27.9174 12.5338 27.8789 12.5346 27.8398V14.2662C12.535 14.225 12.5478 14.1848 12.5714 14.1511C12.595 14.1175 12.6282 14.0919 12.6665 14.0778C12.7048 14.0637 12.7465 14.0617 12.786 14.0723C12.8254 14.0827 12.8608 14.1052 12.8873 14.1365L27.8508 32.2382C28.0915 32.5262 28.3915 32.7576 28.7298 32.9163C29.0681 33.0749 29.4365 33.1571 29.8094 33.1568H30.3439C30.6804 33.1568 31.0136 33.0898 31.3245 32.9596C31.6354 32.8294 31.9179 32.6386 32.1558 32.398C32.3938 32.1574 32.5825 31.8717 32.7113 31.5574C32.8401 31.243 32.9064 30.9061 32.9064 30.5659V11.4348C32.9064 11.0932 32.8396 10.7549 32.7098 10.4395C32.58 10.1241 32.3898 9.83773 32.1502 9.59693C31.9105 9.35612 31.6261 9.16561 31.3134 9.03636C31.0006 8.9071 30.6657 8.84166 30.3278 8.8438C29.8899 8.84385 29.4594 8.95737 29.0772 9.17352C28.695 9.38967 28.374 9.70124 28.1448 10.0785Z" fill="white"/>
</svg>
