<svg width="20" height="20" viewBox="0 0 20 20" fill="none" xmlns="http://www.w3.org/2000/svg">
<path d="M2.00546 4.158C3.08092 3.53625 4.20679 3.04893 5.39148 2.69605C7.00468 2.21713 8.64308 1.99028 10.3235 2.02388C11.1049 2.04069 12.4072 2.16672 12.6256 2.25074C12.634 2.26754 12.6172 2.27594 12.6004 2.27594C12.5248 2.30955 12.4408 2.33476 12.3652 2.36836C10.9788 2.94811 9.9958 4.1664 9.71013 5.64516C9.66811 5.88882 9.64291 6.13248 9.63451 6.37614C9.62611 6.74583 9.59249 7.11552 9.48327 7.47681C9.11358 8.77913 8.04653 9.79578 6.7274 10.0982C4.99658 10.4931 3.24896 9.63614 2.49277 8.03134C2.45076 7.93892 2.41715 7.8465 2.40035 7.75408C2.27432 7.20795 2.1819 6.66181 2.11468 6.10728C2.03906 5.49392 1.99706 4.88057 1.99706 4.26723C2.00545 4.22522 2.00546 4.20002 2.00546 4.158Z" fill="#F7A800"/>
<path d="M14.3985 14.2239C14.4153 14.0642 14.4321 13.9214 14.4405 13.7702C14.4825 12.9384 14.3061 12.1486 13.9112 11.4176C13.5331 10.7202 13.0037 10.1657 12.3232 9.74558C12.2644 9.70356 12.1971 9.66996 12.1383 9.62795C11.2057 9.03981 10.6344 8.208 10.4327 7.12414C10.0714 5.17487 11.2981 3.29281 13.2222 2.8307C13.9028 2.67106 14.5665 2.68786 15.2303 2.89791C15.7764 3.06595 16.2973 3.29281 16.8183 3.53647C17.1796 3.70451 17.524 3.88935 17.8685 4.0826C17.9105 4.1078 17.9441 4.12461 17.9946 4.15822C17.9946 4.19182 18.003 4.21703 18.003 4.25064C18.003 4.69595 17.9778 5.14965 17.9441 5.59497C17.8853 6.25032 17.7845 6.90569 17.6501 7.54424C17.2384 9.4431 16.5074 11.1991 15.4487 12.8291C15.1547 13.2828 14.8354 13.7197 14.4993 14.1398C14.4657 14.1651 14.4489 14.1987 14.3985 14.2239Z" fill="#67B2E8"/>
<path d="M10.0042 17.9794C9.8782 17.9289 9.49171 17.6937 9.08001 17.4164C8.16418 16.8031 7.31558 16.0973 6.54258 15.3075C5.76959 14.5177 5.08062 13.6523 4.49248 12.7197C3.93794 11.8543 3.47583 10.9468 3.10614 9.98902C3.09774 9.96381 3.08933 9.947 3.08093 9.905C3.12295 9.9302 3.13975 9.9386 3.16495 9.95541C3.45903 10.1823 3.7699 10.3755 4.10599 10.5183C4.53449 10.7032 4.9798 10.8292 5.45032 10.8712C6.39975 10.9637 7.29037 10.7704 8.13058 10.2999C8.56748 10.0562 9.038 9.8966 9.53372 9.82938C11.2898 9.61093 13.0374 10.6528 13.5835 12.4676C13.8608 13.4003 13.7768 14.3077 13.3483 15.1899C13.2894 15.3075 13.239 15.4167 13.1802 15.526C13.1466 15.5932 13.1046 15.6604 13.0458 15.7108C12.1552 16.551 11.1805 17.2904 10.1219 17.9122C10.0799 17.9373 10.0378 17.9626 10.0042 17.9794Z" fill="#00C4B3"/>
</svg>
