<svg width="51" height="50" viewBox="0 0 51 50" fill="none" xmlns="http://www.w3.org/2000/svg">
<ellipse cx="25.6819" cy="24.9999" rx="25" ry="24.9999" fill="white"/>
<path d="M11.0158 14.0179C13.0375 12.8491 15.1539 11.933 17.381 11.2697C20.4135 10.3694 23.4935 9.94295 26.6524 10.0061C28.1213 10.0377 30.5694 10.2746 30.98 10.4326C30.9958 10.4642 30.9642 10.4799 30.9326 10.4799C30.7905 10.5431 30.6326 10.5905 30.4905 10.6537C27.8843 11.7435 26.0364 14.0337 25.4994 16.8136C25.4204 17.2716 25.373 17.7296 25.3572 18.1877C25.3414 18.8826 25.2782 19.5776 25.0729 20.2568C24.3779 22.7049 22.3721 24.6161 19.8923 25.1846C16.6386 25.9269 13.3534 24.316 11.9319 21.2992C11.8529 21.1255 11.7897 20.9517 11.7581 20.778C11.5212 19.7514 11.3475 18.7247 11.2211 17.6823C11.079 16.5292 11 15.3762 11 14.2233C11.0158 14.1443 11.0158 14.0969 11.0158 14.0179Z" fill="#F7A800"/>
<path d="M34.3126 32.9402C34.3442 32.64 34.3757 32.3716 34.3915 32.0873C34.4705 30.5237 34.1389 29.039 33.3965 27.6648C32.6858 26.3538 31.6906 25.3115 30.4113 24.5217C30.3008 24.4427 30.1743 24.3795 30.0638 24.3006C28.3106 23.195 27.2367 21.6313 26.8575 19.5938C26.1783 15.9295 28.4843 12.3915 32.1013 11.5228C33.3807 11.2227 34.6284 11.2543 35.8762 11.6491C36.9028 11.965 37.882 12.3915 38.8614 12.8495C39.5406 13.1654 40.188 13.5129 40.8356 13.8762C40.9146 13.9235 40.9778 13.9551 41.0727 14.0183C41.0727 14.0815 41.0885 14.1289 41.0885 14.1921C41.0885 15.0292 41.0411 15.8821 40.9778 16.7192C40.8672 17.9512 40.6777 19.1831 40.4251 20.3835C39.6512 23.9531 38.277 27.2541 36.2868 30.3182C35.7341 31.1711 35.1339 31.9924 34.5021 32.7821C34.4389 32.8297 34.4073 32.8929 34.3126 32.9402Z" fill="#67B2E8"/>
<path d="M26.052 40C25.8152 39.9051 25.0886 39.4629 24.3147 38.9417C22.5931 37.7887 20.9978 36.4619 19.5447 34.9772C18.0916 33.4925 16.7965 31.8657 15.6908 30.1126C14.6484 28.4858 13.7797 26.7798 13.0847 24.9793C13.069 24.9319 13.0531 24.9003 13.0374 24.8214C13.1163 24.8688 13.1479 24.8846 13.1953 24.9162C13.7481 25.3427 14.3325 25.7059 14.9643 25.9743C15.7698 26.3219 16.6069 26.5587 17.4914 26.6377C19.2762 26.8116 20.9504 26.4482 22.5299 25.5637C23.3512 25.1056 24.2357 24.8056 25.1676 24.6792C28.4687 24.2686 31.754 26.2271 32.7805 29.6387C33.3018 31.392 33.1439 33.0978 32.3384 34.7562C32.2277 34.9772 32.1329 35.1825 32.0224 35.388C31.9592 35.5143 31.8803 35.6406 31.7698 35.7354C30.0956 37.3148 28.2633 38.7048 26.2733 39.8737C26.1943 39.9209 26.1152 39.9684 26.052 40Z" fill="#00C4B3"/>
</svg>
