<svg width="51" height="50" viewBox="0 0 51 50" fill="none" xmlns="http://www.w3.org/2000/svg">
<ellipse cx="25.6816" cy="24.9999" rx="25" ry="24.9999" fill="white"/>
<mask id="mask0_62_82" style="mask-type:luminance" maskUnits="userSpaceOnUse" x="11" y="10" width="30" height="30">
<path d="M41 10H11V40H41V10Z" fill="white"/>
</mask>
<g mask="url(#mask0_62_82)">
<path fill-rule="evenodd" clip-rule="evenodd" d="M37.9531 15.9531C35.6797 13.0469 32.3516 11.1953 28.6719 11.1953C21.5469 11.1953 16.3203 17.8281 16.3203 25C16.3203 29.9922 19.6484 33.7422 23.3281 33.7422C23.6797 33.7422 24.0078 33.7188 24.3594 33.6484C21.875 31.8438 20.3047 28.5625 20.3047 25C20.3047 19.3281 24.1484 14.8984 28.6719 14.8984C33.6172 14.8984 37.0391 19.7969 37.0391 25C37.0156 28.8437 35.6563 32.6641 33.2422 35.4766C31.1328 37.9375 28.4141 39.4844 25.4141 39.9766C25.4141 39.9766 25.6719 40 26 40C34.2734 40 41 33.2734 41 25C41 21.6016 39.875 18.4609 37.9531 15.9531ZM35.6797 25C35.6797 20.0078 32.3516 16.2578 28.6719 16.2578C28.3203 16.2578 27.9922 16.2813 27.6406 16.3516C30.125 18.1563 31.6953 21.4375 31.6953 25C31.6953 30.6719 27.8516 35.1016 23.3281 35.1016C18.3828 35.1016 14.9609 30.2031 14.9609 25C14.9844 21.1563 16.3437 17.3359 18.7578 14.5234C20.8672 12.0625 23.5859 10.5156 26.5859 10.0234C26.5859 10.0234 26.3281 10 26 10C17.7266 10 11 16.7266 11 25C11 28.3984 12.125 31.5391 14.0469 34.0469C16.3203 36.9531 19.6484 38.7813 23.3281 38.7813C30.4531 38.8047 35.6797 32.1719 35.6797 25Z" fill="#0089DB"/>
</g>
</svg>
