<svg width="418" height="418" viewBox="0 0 418 418" fill="none" xmlns="http://www.w3.org/2000/svg">
<circle cx="209" cy="209" r="209" fill="black"/>
<path d="M172.877 176H110.955C109.246 176 107.8 174.554 107.8 172.845V110.923C107.8 109.214 109.246 107.768 110.955 107.768H172.877C174.586 107.768 176.033 109.214 176.033 110.923V172.845C176.164 174.554 174.718 176 172.877 176Z" fill="white"/>
<path d="M306.845 176.131H244.923C243.214 176.131 241.767 174.685 241.767 172.976V111.054C241.767 109.345 243.214 107.898 244.923 107.898H306.845C308.554 107.898 310 109.345 310 111.054V172.976C310 174.685 308.554 176.131 306.845 176.131Z" fill="white"/>
<path d="M172.877 310.231H110.955C109.246 310.231 107.8 308.785 107.8 307.075V245.153C107.8 243.444 109.246 241.998 110.955 241.998H172.877C174.586 241.998 176.033 243.444 176.033 245.153V307.075C176.164 308.653 174.718 310.231 172.877 310.231Z" fill="white"/>
<path d="M306.845 310.231H244.923C243.214 310.231 241.767 308.785 241.767 307.075V245.153C241.767 243.444 243.214 241.998 244.923 241.998H306.845C308.554 241.998 310 243.444 310 245.153V307.075C310 308.785 308.554 310.231 306.845 310.231Z" fill="white"/>
<path d="M239.927 243.446H178.005C176.296 243.446 174.849 241.999 174.849 240.29V178.368C174.849 176.659 176.296 175.213 178.005 175.213H239.927C241.636 175.213 243.082 176.659 243.082 178.368V240.29C243.214 241.999 241.767 243.446 239.927 243.446Z" fill="white"/>
</svg>
