<svg width="52" height="50" viewBox="0 0 52 50" fill="none" xmlns="http://www.w3.org/2000/svg">
<ellipse cx="26.0908" cy="24.9999" rx="25.4089" ry="24.9999" fill="black"/>
<path d="M20.6428 20.1103H11.4675C11.2143 20.1103 11 19.896 11 19.6428V10.4675C11 10.2143 11.2143 10 11.4675 10H20.6428C20.896 10 21.1104 10.2143 21.1104 10.4675V19.6428C21.1299 19.896 20.9156 20.1103 20.6428 20.1103Z" fill="white"/>
<path d="M40.4933 20.1297H31.318C31.0648 20.1297 30.8503 19.9154 30.8503 19.6622V10.4869C30.8503 10.2337 31.0648 10.0193 31.318 10.0193H40.4933C40.7465 10.0193 40.9608 10.2337 40.9608 10.4869V19.6622C40.9608 19.9154 40.7465 20.1297 40.4933 20.1297Z" fill="white"/>
<path d="M20.6428 40H11.4675C11.2143 40 11 39.7857 11 39.5324V30.357C11 30.1038 11.2143 29.8896 11.4675 29.8896H20.6428C20.896 29.8896 21.1104 30.1038 21.1104 30.357V39.5324C21.1299 39.7662 20.9156 40 20.6428 40Z" fill="white"/>
<path d="M40.4933 40H31.318C31.0648 40 30.8503 39.7857 30.8503 39.5324V30.357C30.8503 30.1038 31.0648 29.8896 31.318 29.8896H40.4933C40.7465 29.8896 40.9608 30.1038 40.9608 30.357V39.5324C40.9608 39.7857 40.7465 40 40.4933 40Z" fill="white"/>
<path d="M30.578 30.1041H21.4027C21.1495 30.1041 20.9351 29.8897 20.9351 29.6365V20.4612C20.9351 20.2079 21.1495 19.9937 21.4027 19.9937H30.578C30.8312 19.9937 31.0455 20.2079 31.0455 20.4612V29.6365C31.0651 29.8897 30.8507 30.1041 30.578 30.1041Z" fill="white"/>
</svg>
