<svg width="51" height="50" viewBox="0 0 51 50" fill="none" xmlns="http://www.w3.org/2000/svg">
<ellipse cx="25.6816" cy="24.9999" rx="25" ry="24.9999" fill="#FF0420"/>
<path fill-rule="evenodd" clip-rule="evenodd" d="M10.1875 33.3666C11.6653 34.4554 13.5611 35 15.875 35C18.6751 35 20.9111 34.3485 22.5833 33.0458C23.787 32.0941 24.7339 30.7947 25.4237 29.1478L24.398 33.979C24.3591 34.1735 24.3883 34.3483 24.4856 34.504C24.6021 34.6402 24.7675 34.7082 24.9814 34.7082H28.9481C29.1424 34.7082 29.3273 34.6402 29.5023 34.504C29.6772 34.3678 29.7841 34.1929 29.8231 33.979L31.1647 27.5915H35.1022C37.6494 27.5915 39.6523 27.0567 41.1106 25.9873C42.5884 24.9179 43.5703 23.2651 44.0564 21.0289C44.1732 20.504 44.2315 19.9983 44.2315 19.5123C44.2315 17.8206 43.5703 16.5276 42.248 15.633C40.9453 14.7387 39.2147 14.2915 37.0564 14.2915H29.298C29.1036 14.2915 28.9189 14.3595 28.7438 14.4955C28.5688 14.6317 28.4619 14.8067 28.4231 15.0207L27.3061 20.2814C27.2752 19.003 26.9356 17.9007 26.2875 16.975C25.607 15.9833 24.6737 15.2443 23.4875 14.7582C22.3014 14.2527 20.9598 14 19.4626 14C13.9598 14 10.5473 16.6736 9.22505 22.0208C8.75844 23.9846 8.39872 25.6667 8.14584 27.0665C8.04868 27.6888 8 28.2139 8 28.6416C8 30.6833 8.72918 32.2583 10.1875 33.3666ZM19.0542 29.8374C18.2958 30.4791 17.3724 30.7999 16.2833 30.7999C14.4168 30.7999 13.4833 29.9056 13.4833 28.1166C13.4833 27.6888 13.5222 27.2804 13.6001 26.8917C13.95 25.0056 14.3001 23.411 14.6501 22.1083C14.9806 20.7861 15.5251 19.8042 16.2833 19.1623C17.0611 18.5207 17.9944 18.1999 19.0834 18.1999C20.9305 18.1999 21.8542 19.0846 21.8542 20.854C21.8542 21.282 21.8153 21.6999 21.7376 22.1083C21.5043 23.4693 21.1639 25.0638 20.7167 26.8917C20.3862 28.2139 19.832 29.1958 19.0542 29.8374ZM37.4355 22.8956C36.8327 23.3428 36.123 23.5665 35.3065 23.5665H31.9522L33.0605 18.3456H36.5606C37.3578 18.3456 37.9216 18.5011 38.2522 18.8123C38.5829 19.1039 38.7481 19.5317 38.7481 20.0956C38.7481 20.3484 38.7189 20.64 38.6606 20.9706C38.4661 21.8067 38.0578 22.4484 37.4355 22.8956Z" fill="white"/>
</svg>
