<svg width="52" height="50" viewBox="0 0 52 50" fill="none" xmlns="http://www.w3.org/2000/svg">
<ellipse cx="26.0908" cy="24.9999" rx="25.4089" ry="24.9999" fill="#FF0420"/>
<path d="M15.875 35C13.5611 35 11.6653 34.4554 10.1875 33.3666C8.72918 32.2583 8 30.6833 8 28.6416C8 28.2139 8.04868 27.6888 8.14584 27.0665C8.39872 25.6667 8.75844 23.9846 9.22505 22.0208C10.5473 16.6736 13.9598 14 19.4626 14C20.9598 14 22.3014 14.2527 23.4875 14.7582C24.6737 15.2443 25.607 15.9833 26.2875 16.975C26.968 17.9471 27.3085 19.1139 27.3085 20.4749C27.3085 20.8833 27.2599 21.3986 27.1625 22.0208C26.8709 23.7513 26.5209 25.4333 26.1125 27.0665C25.432 29.7305 24.2556 31.7236 22.5833 33.0458C20.9111 34.3485 18.6751 35 15.875 35ZM16.2833 30.7999C17.3724 30.7999 18.2958 30.4791 19.0542 29.8374C19.832 29.1958 20.3862 28.2139 20.7167 26.8917C21.1639 25.0638 21.5043 23.4693 21.7376 22.1083C21.8153 21.6999 21.8542 21.282 21.8542 20.854C21.8542 19.0846 20.9305 18.1999 19.0834 18.1999C17.9944 18.1999 17.0611 18.5207 16.2833 19.1623C15.5251 19.8042 14.9806 20.7861 14.6501 22.1083C14.3001 23.411 13.95 25.0056 13.6001 26.8917C13.5222 27.2804 13.4833 27.6888 13.4833 28.1166C13.4833 29.9056 14.4168 30.7999 16.2833 30.7999Z" fill="white"/>
<path d="M24.9814 34.7082C24.7675 34.7082 24.6021 34.6402 24.4856 34.504C24.3883 34.3483 24.3591 34.1735 24.398 33.979L28.4231 15.0207C28.4619 14.8067 28.5688 14.6317 28.7438 14.4955C28.9189 14.3595 29.1036 14.2915 29.298 14.2915H37.0564C39.2147 14.2915 40.9453 14.7387 42.248 15.633C43.5703 16.5276 44.2315 17.8206 44.2315 19.5123C44.2315 19.9983 44.1732 20.504 44.0564 21.0289C43.5703 23.2651 42.5884 24.9179 41.1106 25.9873C39.6523 27.0567 37.6494 27.5915 35.1022 27.5915H31.1647L29.8231 33.979C29.7841 34.1929 29.6772 34.3678 29.5023 34.504C29.3273 34.6402 29.1424 34.7082 28.9481 34.7082H24.9814ZM35.3065 23.5665C36.123 23.5665 36.8327 23.3428 37.4355 22.8956C38.0578 22.4484 38.4661 21.8067 38.6606 20.9706C38.7189 20.64 38.7481 20.3484 38.7481 20.0956C38.7481 19.5317 38.5829 19.1039 38.2522 18.8123C37.9216 18.5011 37.3578 18.3456 36.5606 18.3456H33.0605L31.9522 23.5665H35.3065Z" fill="white"/>
</svg>
