<svg width="51" height="50" viewBox="0 0 51 50" fill="none" xmlns="http://www.w3.org/2000/svg">
<ellipse cx="25.6816" cy="24.9999" rx="25" ry="24.9999" fill="#A61FFF"/>
<path d="M39.4217 15.3011C39.1134 14.1279 38.1371 12.946 36.3643 11.6443C34.9427 10.5995 33.444 10 32.245 10C32.0052 10 31.7911 10.0257 31.5685 10.0685C31.0204 10.1798 30.5408 10.5824 30.241 11.1818C29.8728 11.8927 29.7871 12.8433 30.0269 13.4256C30.1125 13.6055 30.2239 13.8281 30.3524 14.0251C29.1963 14.736 28.5453 14.9329 28.4512 14.9586C31.4571 15.9778 33.9664 18.1102 35.5421 20.8849L35.5679 20.6194C35.6364 19.8915 35.8504 19.0437 36.1588 18.1787C36.4671 18.2643 36.7668 18.3157 37.0751 18.3157C37.8802 18.3157 38.5824 17.9817 39.0192 17.3822C39.4388 16.7656 39.6186 15.9691 39.4217 15.3011Z" fill="#5E12A0"/>
<path d="M36.2789 17.5193C38.2658 18.076 39.0708 16.5173 38.8053 15.481C38.5226 14.4362 37.6063 13.3743 35.9877 12.1753C34.3776 10.9763 32.7419 10.4882 31.6886 10.7109C30.6437 10.9335 30.3354 12.5521 30.6009 13.1773C30.7122 13.4171 30.952 13.7768 31.2774 14.1793C30.8664 14.4705 30.4724 14.6932 30.147 14.8901C32.151 15.7979 33.898 17.2195 35.2084 18.9923C35.3625 18.3928 35.5766 17.8619 35.7736 17.3908C35.9277 17.408 36.099 17.4508 36.2789 17.5193Z" fill="url(#paint0_radial_62_106)"/>
<path d="M24.915 39.2632C31.6464 39.2632 37.1102 33.7137 37.1102 26.8625C37.1102 20.0112 31.6549 14.4617 24.915 14.4617C18.1836 14.4617 12.7197 20.0112 12.7197 26.8625C12.7197 33.7137 18.1836 39.2632 24.915 39.2632Z" fill="url(#paint1_radial_62_106)"/>
<path opacity="0.6" d="M37.8034 14.4532C36.1419 12.6805 34.746 12.2094 33.0674 11.8326C31.7571 11.5243 32.1083 10.7707 33.7011 10.9248C32.9389 10.6593 32.2196 10.5908 31.6971 10.7022C30.6524 10.9248 30.3441 12.5434 30.6095 13.1686C30.7208 13.4085 30.9607 13.7681 31.2861 14.1706C30.6952 14.5731 30.1985 14.8557 29.7788 15.0784C29.9758 15.164 30.2156 15.2754 30.4982 15.4295C31.2433 15.832 32.0483 16.4915 32.0483 16.4915C30.8237 15.4295 31.0892 14.9414 32.7676 13.7424C33.2901 13.3656 34.2493 13.4085 35.1485 13.8794C36.0477 14.3505 37.0925 15.5237 37.0925 15.5237L36.0905 17.4763C36.1591 17.5021 36.219 17.5191 36.2875 17.5449C36.9212 17.7247 37.4179 17.6819 37.8119 17.5191C38.2658 17.228 39.4647 16.2517 37.8034 14.4532Z" fill="#A98698"/>
<path d="M33.0501 12.9031C33.4869 13.083 34.052 13.3913 34.7543 13.8538C35.5851 14.4104 36.3044 15.027 36.7583 15.5152C35.9961 16.5343 35.4909 17.9302 35.1911 18.9065C35.3453 19.1292 35.5165 19.3519 35.6707 19.5745C35.8248 19.0179 36.0817 18.1957 36.4329 17.3822C36.5185 17.4079 36.6298 17.4079 36.7412 17.4079C37.0067 17.4079 37.3065 17.3651 37.5462 17.1595C37.7175 17.0225 37.9144 16.7827 37.8973 16.3374C37.8973 15.9177 37.5719 15.3867 36.8953 14.7358C36.4158 14.2734 35.7649 13.7595 35.1054 13.2971C33.2299 12.0296 31.9196 11.6785 31.3287 12.278C30.9347 12.6805 30.9776 13.1686 31.1146 13.5198C30.421 13.9822 29.83 14.3162 29.436 14.5389C29.7015 14.6245 29.9413 14.7358 30.1983 14.8472C30.8919 14.479 31.894 13.8366 33.0501 12.9031ZM37.1694 16.0804C37.2379 16.1917 37.2551 16.3031 37.2551 16.3716C37.2551 16.5686 37.1865 16.6371 37.1437 16.6799C37.0581 16.7484 36.8782 16.7913 36.7327 16.7913C36.8697 16.5172 37.0152 16.2946 37.1694 16.0804ZM31.7826 12.7661C31.8511 12.6976 32.0224 12.6548 32.305 12.6976C32.0909 12.8775 31.8682 13.0316 31.6541 13.1858C31.6285 13.0402 31.6541 12.8775 31.7826 12.7661Z" fill="#5E12A0"/>
<path d="M24.9146 13.7255C17.7808 13.7255 12 19.6089 12 26.8627C12 34.1165 17.7808 40 24.9146 40C32.0485 40 37.8292 34.1165 37.8292 26.8627C37.8292 19.6089 32.0228 13.7255 24.9146 13.7255ZM24.9146 39.2635C18.1747 39.2635 12.7194 33.714 12.7194 26.8627C12.7194 20.0115 18.1747 14.462 24.9146 14.462C31.6545 14.462 37.1098 20.0115 37.1098 26.8627C37.1098 33.714 31.6289 39.2635 24.9146 39.2635Z" fill="#5E12A0"/>
<path opacity="0.6" d="M24.915 39.2632C31.6464 39.2632 37.1102 33.7137 37.1102 26.8625C37.1102 20.0112 31.6549 14.4617 24.915 14.4617C18.1836 14.4617 12.7197 20.0112 12.7197 26.8625C12.7197 33.7137 18.1836 39.2632 24.915 39.2632Z" fill="url(#paint2_linear_62_106)"/>
<path opacity="0.6" d="M24.8293 37.756C18.175 36.6684 13.6618 30.3053 14.7494 23.5311C15.229 20.5337 16.7107 17.9816 18.8088 16.1403C15.7515 17.9388 13.4905 21.0646 12.8739 24.8842C11.8034 31.6499 16.3167 38.0215 22.9538 39.1092C26.6621 39.7343 30.2418 38.5525 32.8796 36.2487C30.5416 37.619 27.7069 38.2185 24.8293 37.756Z" fill="#A98698"/>
<path opacity="0.6" d="M26.8586 14.633C23.7842 14.1192 20.7952 14.83 18.3546 16.4057C18.3118 16.4486 18.2689 16.4914 18.2689 16.4914C19.211 15.9176 20.5812 15.4038 20.5812 15.4038C17.0442 17.4934 15.9565 19.8656 15.9565 19.8656C17.3268 17.1594 21.369 15.2496 24.5293 15.1211C27.6894 14.9841 29.7619 15.9433 32.2969 18.0072C34.8233 20.0968 36.3562 24.3532 36.2021 27.7274C36.0736 31.1017 34.3265 33.8251 34.3265 33.8251C35.5254 32.2493 36.2449 31.0931 36.7073 29.9199C36.793 29.5688 36.8786 29.2091 36.9214 28.8322C38.0005 22.0923 33.5044 15.7207 26.8586 14.633Z" fill="url(#paint3_linear_62_106)"/>
<path d="M36.493 26.7513C36.493 33.2513 31.3032 38.5354 24.9144 38.5354C18.5256 38.5354 13.3101 33.2513 13.3101 26.7513H36.493Z" fill="url(#paint4_linear_62_106)"/>
<path opacity="0.6" d="M35.5768 26.7513C35.5768 33.0971 30.6439 38.287 24.4521 38.5354C24.6063 38.5354 24.7604 38.5354 24.906 38.5354C31.2948 38.5354 36.4847 33.2513 36.4847 26.7513H35.5768Z" fill="url(#paint5_linear_62_106)"/>
<path opacity="0.7" d="M14.9458 26.7513H13.3101C13.3101 33.2513 18.4998 38.5354 24.8886 38.5354C25.1713 38.5354 25.4368 38.5354 25.6938 38.5096C19.6988 38.0643 14.9458 32.9601 14.9458 26.7513Z" fill="url(#paint6_linear_62_106)"/>
<path d="M36.4758 26.8626C36.4758 25.5095 34.1635 24.7302 31.0891 24.4647C28.8624 24.2849 26.6186 24.5075 24.0408 25.304C21.8142 25.972 19.8102 25.8606 18.3457 25.6808C15.1 25.304 13.3101 25.2612 13.3101 26.8541C13.3101 29.1579 17.9347 32.0439 24.8716 31.0504C28.3828 30.5367 30.1899 29.5003 32.2624 28.7895C34.5147 28.0359 36.4758 28.0616 36.4758 26.8626Z" fill="url(#paint7_linear_62_106)"/>
<path d="M28.7087 21.2702C29.7963 21.2702 30.6699 20.3795 30.6699 19.2748C30.6699 18.17 29.7877 17.2793 28.7087 17.2793C27.621 17.2793 26.7476 18.17 26.7476 19.2748C26.7476 20.3795 27.621 21.2702 28.7087 21.2702Z" fill="white"/>
<path d="M31.9112 22.7517C32.3652 22.7517 32.742 22.375 32.742 21.9125C32.742 21.45 32.3738 21.0732 31.9112 21.0732C31.4488 21.0732 31.0806 21.45 31.0806 21.9125C31.0806 22.375 31.4574 22.7517 31.9112 22.7517Z" fill="white"/>
<path opacity="0.6" d="M34.8836 17.6734C34.8579 17.6734 34.8408 17.6734 34.8408 17.6734C34.7123 17.6477 34.6267 17.5192 34.6438 17.3651C34.8408 16.346 35.6715 15.3697 35.7143 15.3269C35.8 15.2155 35.9798 15.2155 36.0655 15.3011C36.1768 15.3868 36.1768 15.5666 36.0911 15.6523C36.0655 15.678 35.3032 16.5858 35.132 17.4679C35.0977 17.6049 34.995 17.6734 34.8836 17.6734Z" fill="url(#paint8_linear_62_106)"/>
<path opacity="0.2" d="M24.1095 36.1118C24.4435 36.1118 24.7175 35.8378 24.7175 35.4866C24.7175 35.1442 24.4435 34.8615 24.1095 34.8615C23.7755 34.8615 23.5015 35.1355 23.5015 35.4866C23.5015 35.8378 23.767 36.1118 24.1095 36.1118Z" fill="white"/>
<path opacity="0.6" d="M23.7581 35.8891C23.5184 35.6407 23.5184 35.2469 23.7581 34.9985C23.8009 34.9557 23.8438 34.9299 23.8866 34.8871C23.8009 34.9128 23.7325 34.9557 23.6726 35.0242C23.4327 35.264 23.4327 35.6665 23.6726 35.9149C23.8695 36.1118 24.1778 36.1546 24.4176 36.0262C24.1949 36.1118 23.9294 36.069 23.7581 35.8891Z" fill="url(#paint9_linear_62_106)"/>
<path opacity="0.3" d="M24.3238 35.3153C24.3923 35.3153 24.4522 35.2554 24.4522 35.1783C24.4522 35.1013 24.3923 35.0413 24.3238 35.0413C24.2552 35.0413 24.1953 35.1013 24.1953 35.1783C24.1953 35.2554 24.2552 35.3153 24.3238 35.3153Z" fill="white"/>
<path opacity="0.2" d="M27.2953 35.8034C27.6293 35.8034 27.9033 35.5294 27.9033 35.1782C27.9033 34.8356 27.6293 34.553 27.2953 34.553C26.9613 34.553 26.6872 34.8271 26.6872 35.1782C26.6787 35.5208 26.9527 35.8034 27.2953 35.8034Z" fill="white"/>
<path opacity="0.6" d="M26.9442 35.5809C26.7044 35.3411 26.7044 34.9386 26.9442 34.6902C26.987 34.6474 27.0298 34.6218 27.0726 34.579C26.987 34.6046 26.9184 34.6474 26.8585 34.716C26.6188 34.9557 26.6188 35.3582 26.8585 35.6066C27.0556 35.8036 27.3639 35.855 27.6036 35.7179C27.381 35.8036 27.1155 35.7607 26.9442 35.5809Z" fill="url(#paint10_linear_62_106)"/>
<path opacity="0.3" d="M27.5092 34.9985C27.5778 34.9985 27.6377 34.9386 27.6377 34.8614C27.6377 34.7843 27.5778 34.7244 27.5092 34.7244C27.4408 34.7244 27.3809 34.7843 27.3809 34.8614C27.3809 34.9386 27.4408 34.9985 27.5092 34.9985Z" fill="white"/>
<path opacity="0.2" d="M25.7195 37.2423C25.9764 37.2423 26.1734 37.0367 26.1734 36.7798C26.1734 36.5228 25.9679 36.3174 25.7195 36.3174C25.4626 36.3174 25.2656 36.5228 25.2656 36.7798C25.2656 37.0367 25.4712 37.2423 25.7195 37.2423Z" fill="white"/>
<path opacity="0.6" d="M25.4625 37.0625C25.2913 36.8827 25.2913 36.5744 25.4625 36.3945C25.4883 36.3688 25.5311 36.3517 25.5482 36.326C25.4797 36.3517 25.4369 36.3945 25.3941 36.4374C25.2228 36.6172 25.2228 36.9255 25.3941 37.1053C25.5482 37.2596 25.7623 37.2852 25.9593 37.1739C25.788 37.2424 25.591 37.1995 25.4625 37.0625Z" fill="url(#paint11_linear_62_106)"/>
<path opacity="0.3" d="M25.8738 36.6257C25.9252 36.6257 25.9594 36.5829 25.9594 36.5401C25.9594 36.4887 25.9166 36.4544 25.8738 36.4544C25.831 36.4544 25.7881 36.4972 25.7881 36.5401C25.7881 36.5829 25.8224 36.6257 25.8738 36.6257Z" fill="white"/>
<path opacity="0.2" d="M28.5372 36.9083C28.7941 36.9083 28.9911 36.7029 28.9911 36.4459C28.9911 36.189 28.7855 35.9834 28.5372 35.9834C28.2803 35.9834 28.0833 36.189 28.0833 36.4459C28.0747 36.7029 28.2803 36.9083 28.5372 36.9083Z" fill="white"/>
<path opacity="0.6" d="M28.2716 36.7371C28.1003 36.5571 28.1003 36.2488 28.2716 36.069C28.2973 36.0433 28.3402 36.0263 28.3573 36.0005C28.2888 36.0263 28.246 36.069 28.2032 36.1118C28.0319 36.2916 28.0319 36.6 28.2032 36.7798C28.3573 36.934 28.5714 36.9596 28.7683 36.8484C28.5971 36.9083 28.4001 36.8654 28.2716 36.7371Z" fill="url(#paint12_linear_62_106)"/>
<path opacity="0.3" d="M28.6917 36.2917C28.7431 36.2917 28.7774 36.2489 28.7774 36.2061C28.7774 36.1547 28.7345 36.1205 28.6917 36.1205C28.6489 36.1205 28.6061 36.1634 28.6061 36.2061C28.5975 36.2489 28.6403 36.2917 28.6917 36.2917Z" fill="white"/>
<path opacity="0.2" d="M21.5143 35.8891C22.0709 35.8891 22.5162 35.4353 22.5162 34.87C22.5162 34.3047 22.0709 33.8509 21.5143 33.8509C20.9576 33.8509 20.5123 34.3047 20.5123 34.87C20.5037 35.4353 20.9576 35.8891 21.5143 35.8891Z" fill="white"/>
<path opacity="0.6" d="M20.9408 35.5123C20.5468 35.1098 20.5468 34.4674 20.9408 34.0735C21.0094 34.005 21.0693 33.9622 21.1549 33.9194C21.0264 33.9622 20.9151 34.0564 20.8038 34.142C20.4098 34.5445 20.4098 35.1868 20.8038 35.5807C21.1292 35.9148 21.6345 35.9832 22.0285 35.7349C21.6602 35.8891 21.232 35.8206 20.9408 35.5123Z" fill="url(#paint13_linear_62_106)"/>
<path opacity="0.3" d="M21.8571 34.5615C21.977 34.5615 22.0712 34.4588 22.0712 34.3388C22.0712 34.2189 21.977 34.1162 21.8571 34.1162C21.7373 34.1162 21.6431 34.2189 21.6431 34.3388C21.6431 34.4588 21.7373 34.5615 21.8571 34.5615Z" fill="white"/>
<path opacity="0.2" d="M30.4731 33.3798C31.0298 33.3798 31.4752 32.9258 31.4752 32.3607C31.4752 31.7954 31.0298 31.3415 30.4731 31.3415C29.9165 31.3415 29.4712 31.7954 29.4712 32.3607C29.4712 32.9258 29.9251 33.3798 30.4731 33.3798Z" fill="white"/>
<path opacity="0.6" d="M29.8905 33.003C29.4965 32.6005 29.4965 31.9583 29.8905 31.5643C29.959 31.4958 30.019 31.4529 30.1046 31.4101C29.9761 31.4529 29.8649 31.5471 29.7535 31.6328C29.3595 32.0353 29.3595 32.6776 29.7535 33.0716C30.0789 33.4055 30.5842 33.4741 30.9782 33.2257C30.6098 33.3799 30.1903 33.3199 29.8905 33.003Z" fill="url(#paint14_linear_62_106)"/>
<path opacity="0.3" d="M30.8241 32.0524C30.9439 32.0524 31.0381 31.9495 31.0381 31.8297C31.0381 31.7098 30.9439 31.607 30.8241 31.607C30.7041 31.607 30.6099 31.7098 30.6099 31.8297C30.6099 31.9495 30.7041 32.0524 30.8241 32.0524Z" fill="white"/>
<defs>
<radialGradient id="paint0_radial_62_106" cx="0" cy="0" r="1" gradientUnits="userSpaceOnUse" gradientTransform="translate(38.41 14.0794) scale(9.74866 9.91652)">
<stop stop-color="#FFEAFF" stop-opacity="0.6"/>
<stop offset="0.6807" stop-color="#A087C9"/>
<stop offset="1" stop-color="#10002F"/>
</radialGradient>
<radialGradient id="paint1_radial_62_106" cx="0" cy="0" r="1" gradientUnits="userSpaceOnUse" gradientTransform="translate(32.9871 18.3086) scale(23.8515 24.2622)">
<stop stop-color="#FFEAFF" stop-opacity="0.6"/>
<stop offset="0.6807" stop-color="#A087C9"/>
<stop offset="1" stop-color="#10002F"/>
</radialGradient>
<linearGradient id="paint2_linear_62_106" x1="22.8971" y1="39.0934" x2="26.9314" y2="14.6254" gradientUnits="userSpaceOnUse">
<stop stop-color="#81FFFF"/>
<stop offset="0.6202" stop-color="white" stop-opacity="0"/>
</linearGradient>
<linearGradient id="paint3_linear_62_106" x1="33.6111" y1="18.5517" x2="23.3715" y2="27.7878" gradientUnits="userSpaceOnUse">
<stop offset="0.2888" stop-color="white"/>
<stop offset="0.7796" stop-color="white" stop-opacity="0"/>
</linearGradient>
<linearGradient id="paint4_linear_62_106" x1="13.3097" y1="32.6392" x2="36.4959" y2="32.6392" gradientUnits="userSpaceOnUse">
<stop stop-color="#0002E9"/>
<stop offset="0.9952" stop-color="#FF00C7"/>
</linearGradient>
<linearGradient id="paint5_linear_62_106" x1="37.6484" y1="27.848" x2="24.8337" y2="39.7536" gradientUnits="userSpaceOnUse">
<stop offset="0.2888" stop-color="white"/>
<stop offset="0.7796" stop-color="white" stop-opacity="0"/>
</linearGradient>
<linearGradient id="paint6_linear_62_106" x1="13.3097" y1="32.6392" x2="25.6989" y2="32.6392" gradientUnits="userSpaceOnUse">
<stop stop-color="#000292"/>
<stop offset="0.9952" stop-color="#7D00C7"/>
</linearGradient>
<linearGradient id="paint7_linear_62_106" x1="13.3351" y1="27.831" x2="36.4747" y2="27.831" gradientUnits="userSpaceOnUse">
<stop stop-color="#000292"/>
<stop offset="0.9952" stop-color="#BE00C7"/>
</linearGradient>
<linearGradient id="paint8_linear_62_106" x1="36.1246" y1="15.232" x2="34.4201" y2="17.9551" gradientUnits="userSpaceOnUse">
<stop offset="0.2888" stop-color="white"/>
<stop offset="0.7796" stop-color="white" stop-opacity="0"/>
</linearGradient>
<linearGradient id="paint9_linear_62_106" x1="23.4904" y1="35.4959" x2="24.4132" y2="35.4959" gradientUnits="userSpaceOnUse">
<stop offset="0.2888" stop-color="white"/>
<stop offset="0.7796" stop-color="white" stop-opacity="0"/>
</linearGradient>
<linearGradient id="paint10_linear_62_106" x1="26.6724" y1="35.185" x2="27.5952" y2="35.185" gradientUnits="userSpaceOnUse">
<stop offset="0.2888" stop-color="white"/>
<stop offset="0.7796" stop-color="white" stop-opacity="0"/>
</linearGradient>
<linearGradient id="paint11_linear_62_106" x1="25.26" y1="36.7905" x2="25.9528" y2="36.7905" gradientUnits="userSpaceOnUse">
<stop offset="0.2888" stop-color="white"/>
<stop offset="0.7796" stop-color="white" stop-opacity="0"/>
</linearGradient>
<linearGradient id="paint12_linear_62_106" x1="28.0642" y1="36.4575" x2="28.7571" y2="36.4575" gradientUnits="userSpaceOnUse">
<stop offset="0.2888" stop-color="white"/>
<stop offset="0.7796" stop-color="white" stop-opacity="0"/>
</linearGradient>
<linearGradient id="paint13_linear_62_106" x1="20.5093" y1="34.8978" x2="22.0163" y2="34.8978" gradientUnits="userSpaceOnUse">
<stop offset="0.2888" stop-color="white"/>
<stop offset="0.7796" stop-color="white" stop-opacity="0"/>
</linearGradient>
<linearGradient id="paint14_linear_62_106" x1="29.4602" y1="32.3908" x2="30.9674" y2="32.3908" gradientUnits="userSpaceOnUse">
<stop offset="0.2888" stop-color="white"/>
<stop offset="0.7796" stop-color="white" stop-opacity="0"/>
</linearGradient>
</defs>
</svg>
