<svg width="20" height="20" viewBox="0 0 20 20" fill="none" xmlns="http://www.w3.org/2000/svg">
<path d="M19.2611 3.53549C19.0577 2.75147 18.404 1.96746 17.2273 1.09467C16.2831 0.399407 15.2807 0 14.4817 0C14.3219 0 14.1767 0.0147892 14.0314 0.0443774C13.6683 0.118343 13.3487 0.384613 13.1453 0.78402C12.8983 1.25739 12.8402 1.89349 13 2.27811C13.0581 2.39645 13.1308 2.54436 13.2179 2.6775C12.448 3.15088 12.0122 3.28402 11.9541 3.29882C13.9588 3.97926 15.6294 5.39941 16.6753 7.24853L16.6898 7.07098C16.7334 6.58284 16.8787 6.02069 17.082 5.44377C17.2854 5.50294 17.4888 5.53255 17.6922 5.53255C18.2297 5.53255 18.6945 5.31064 18.9851 4.91122C19.2756 4.51181 19.3918 3.97926 19.2611 3.53549Z" fill="#5E12A0"/>
<path d="M17.168 5.0148C18.49 5.38466 19.0274 4.34917 18.8531 3.65387C18.6643 2.95863 18.0541 2.24855 16.9791 1.44974C15.9042 0.650922 14.8147 0.325476 14.1174 0.473408C13.4201 0.621334 13.2167 1.70122 13.391 2.11542C13.4636 2.27814 13.6234 2.5148 13.8413 2.78108C13.5653 2.97338 13.3039 3.12132 13.0859 3.25446C14.4224 3.86098 15.5846 4.80775 16.4562 5.99118C16.5578 5.59176 16.7031 5.23672 16.8339 4.92608C16.9355 4.94088 17.0518 4.97044 17.168 5.0148Z" fill="url(#paint0_radial_4536_58032)"/>
<path d="M9.59998 19.5118C14.0848 19.5118 17.7205 15.8096 17.7205 11.2426C17.7205 6.67564 14.0848 2.97338 9.59998 2.97338C5.11517 2.97338 1.47949 6.67564 1.47949 11.2426C1.47949 15.8096 5.11517 19.5118 9.59998 19.5118Z" fill="url(#paint1_radial_4536_58032)"/>
<path opacity="0.6" d="M18.1857 2.97333C17.0817 1.78989 16.152 1.47924 15.0334 1.22777C14.1618 1.02066 14.3943 0.517707 15.4547 0.621256C14.9463 0.443741 14.4669 0.399364 14.1182 0.473325C13.4209 0.621256 13.2176 1.70114 13.3919 2.11534C13.4645 2.27806 13.6243 2.51476 13.8422 2.78103C13.45 3.0473 13.1159 3.23961 12.8398 3.38755C12.9706 3.44672 13.1304 3.52064 13.3193 3.62422C13.8132 3.89049 14.3507 4.33427 14.3507 4.33427C13.5371 3.62422 13.7115 3.29877 14.83 2.49995C15.1787 2.24848 15.8179 2.27806 16.4135 2.58873C17.0091 2.89936 17.7064 3.68338 17.7064 3.68338L17.0381 4.98515C17.0817 4.99995 17.1253 5.01476 17.1689 5.02956C17.5901 5.14789 17.9243 5.11828 18.1857 5.01476C18.4908 4.82245 19.2898 4.17157 18.1857 2.97333Z" fill="#A98698"/>
<path d="M15.0188 1.93785C15.3094 2.05619 15.6871 2.2633 16.1519 2.57397C16.704 2.94377 17.1834 3.35799 17.4884 3.68343C16.98 4.36387 16.6459 5.29583 16.4425 5.94671C16.5442 6.09466 16.6604 6.2426 16.7621 6.39054C16.8637 6.02069 17.0381 5.47333 17.2705 4.92603C17.3286 4.94083 17.4012 4.94083 17.4739 4.94083C17.6482 4.94083 17.8516 4.91122 18.0114 4.77809C18.1276 4.68931 18.2584 4.52662 18.2438 4.23073C18.2438 3.9497 18.0259 3.59466 17.5756 3.16568C17.256 2.855 16.8202 2.51475 16.3844 2.20413C15.1351 1.36093 14.2635 1.12424 13.8712 1.52365C13.6098 1.78993 13.6388 2.11537 13.726 2.35206C13.2611 2.6627 12.8689 2.88461 12.6074 3.03255C12.7817 3.09171 12.9415 3.16569 13.1159 3.23961C13.5807 2.98814 14.2489 2.55917 15.0188 1.93785ZM17.7644 4.05323C17.808 4.1272 17.8225 4.20118 17.8225 4.24554C17.8225 4.37868 17.7789 4.42304 17.7499 4.45265C17.6918 4.49701 17.5756 4.52662 17.4739 4.52662C17.561 4.34912 17.6628 4.20118 17.7644 4.05323ZM14.1763 1.8491C14.2199 1.80472 14.3361 1.77513 14.525 1.80472C14.3797 1.92306 14.2344 2.02661 14.0891 2.13016C14.0746 2.02661 14.0891 1.92306 14.1763 1.8491Z" fill="#5E12A0"/>
<path d="M9.59991 2.4852C4.84962 2.4852 1 6.40535 1 11.2426C1 16.0799 4.84962 20 9.59991 20C14.3502 20 18.1998 16.0799 18.1998 11.2426C18.1998 6.40535 14.3356 2.4852 9.59991 2.4852ZM9.59991 19.5118C5.11109 19.5118 1.47939 15.8136 1.47939 11.2426C1.47939 6.67162 5.11109 2.97339 9.59991 2.97339C14.0887 2.97339 17.7204 6.67162 17.7204 11.2426C17.7204 15.8136 14.0742 19.5118 9.59991 19.5118Z" fill="#5E12A0"/>
<path opacity="0.6" d="M9.59998 19.5118C14.0848 19.5118 17.7205 15.8096 17.7205 11.2426C17.7205 6.67564 14.0848 2.97338 9.59998 2.97338C5.11517 2.97338 1.47949 6.67564 1.47949 11.2426C1.47949 15.8096 5.11517 19.5118 9.59998 19.5118Z" fill="url(#paint2_linear_4536_58032)"/>
<path opacity="0.6" d="M9.54158 18.5059C5.1109 17.781 2.10383 13.5355 2.83016 9.02362C3.14977 7.02661 4.13757 5.32544 5.53217 4.0976C3.4984 5.29583 1.98762 7.38161 1.58087 9.92603C0.86905 14.4378 3.87609 18.6834 8.29227 19.4083C10.7618 19.8224 13.1442 19.0384 14.902 17.4999C13.3476 18.4172 11.4591 18.8165 9.54158 18.5059Z" fill="#A98698"/>
<path opacity="0.6" d="M10.8933 3.09167C8.84498 2.75143 6.85483 3.22481 5.22782 4.2751C5.19876 4.30471 5.16974 4.33427 5.16974 4.33427C5.79434 3.94966 6.70954 3.60942 6.70954 3.60942C4.35621 4.99996 3.62988 6.5828 3.62988 6.5828C4.54508 4.77809 7.23253 3.50589 9.3389 3.41711C11.4453 3.32839 12.8254 3.96447 14.5105 5.3402C16.1956 6.73074 17.2125 9.57099 17.1108 11.8195C17.0236 14.068 15.8615 15.8876 15.8615 15.8876C16.6604 14.8373 17.1398 14.068 17.4449 13.284C17.503 13.0473 17.5611 12.8106 17.5902 12.5591C18.3165 8.06211 15.3239 3.81652 10.8933 3.09167Z" fill="url(#paint3_linear_4536_58032)"/>
<path d="M17.3141 11.1686C17.3141 15.5029 13.8567 19.0236 9.60036 19.0236C5.34399 19.0236 1.87207 15.5029 1.87207 11.1686H17.3141Z" fill="url(#paint4_linear_4536_58032)"/>
<g opacity="0.6">
<path opacity="0.6" d="M16.7036 11.1686C16.7036 15.3994 13.4206 18.8609 9.29492 19.0236C9.39664 19.0236 9.4983 19.0236 9.59997 19.0236C13.8563 19.0236 17.3137 15.5029 17.3137 11.1686H16.7036Z" fill="url(#paint5_linear_4536_58032)"/>
</g>
<g opacity="0.7">
<path opacity="0.7" d="M2.96061 11.1686H1.87109C1.87109 15.5029 5.3285 19.0236 9.58483 19.0236C9.7737 19.0236 9.94801 19.0236 10.1223 19.0088C6.12748 18.713 2.96061 15.3106 2.96061 11.1686Z" fill="url(#paint6_linear_4536_58032)"/>
</g>
<path d="M17.2996 11.2426C17.2996 10.3402 15.7597 9.82245 13.7114 9.64495C12.2297 9.52657 10.7335 9.67451 9.01928 10.2071C7.53752 10.6508 6.20105 10.5769 5.22777 10.4585C3.06326 10.2071 1.87207 10.1775 1.87207 11.2426C1.87207 12.781 4.95174 14.7041 9.57129 14.0384C11.9101 13.6982 13.1159 13.0029 14.4959 12.5296C15.9922 12.0266 17.2996 12.0414 17.2996 11.2426Z" fill="url(#paint7_linear_4536_58032)"/>
<path d="M12.1277 7.51475C12.8498 7.51475 13.4351 6.91873 13.4351 6.18343C13.4351 5.44814 12.8498 4.85206 12.1277 4.85206C11.4057 4.85206 10.8203 5.44814 10.8203 6.18343C10.8203 6.91873 11.4057 7.51475 12.1277 7.51475Z" fill="white"/>
<path d="M14.2629 8.50593C14.5678 8.50593 14.815 8.25427 14.815 7.94378C14.815 7.63333 14.5678 7.38167 14.2629 7.38167C13.9581 7.38167 13.7109 7.63333 13.7109 7.94378C13.7109 8.25427 13.9581 8.50593 14.2629 8.50593Z" fill="white"/>
<defs>
<radialGradient id="paint0_radial_4536_58032" cx="0" cy="0" r="1" gradientUnits="userSpaceOnUse" gradientTransform="translate(18.5881 2.72191) scale(6.4927 6.61162)">
<stop stop-color="#FFEAFF" stop-opacity="0.6"/>
<stop offset="0.6807" stop-color="#A087C9"/>
<stop offset="1" stop-color="#10002F"/>
</radialGradient>
<radialGradient id="paint1_radial_4536_58032" cx="0" cy="0" r="1" gradientUnits="userSpaceOnUse" gradientTransform="translate(14.9764 5.54162) scale(15.8852 16.1762)">
<stop stop-color="#FFEAFF" stop-opacity="0.6"/>
<stop offset="0.6807" stop-color="#A087C9"/>
<stop offset="1" stop-color="#10002F"/>
</radialGradient>
<linearGradient id="paint2_linear_4536_58032" x1="8.29738" y1="19.3945" x2="10.9882" y2="3.0924" gradientUnits="userSpaceOnUse">
<stop stop-color="#81FFFF"/>
<stop offset="0.6202" stop-color="white" stop-opacity="0"/>
</linearGradient>
<linearGradient id="paint3_linear_4536_58032" x1="15.3233" y1="5.62667" x2="8.49714" y2="11.7772" gradientUnits="userSpaceOnUse">
<stop offset="0.2888" stop-color="white"/>
<stop offset="0.7796" stop-color="white" stop-opacity="0"/>
</linearGradient>
<linearGradient id="paint4_linear_4536_58032" x1="1.8786" y1="15.0915" x2="17.3104" y2="15.0915" gradientUnits="userSpaceOnUse">
<stop stop-color="#0002E9"/>
<stop offset="0.9952" stop-color="#FF00C7"/>
</linearGradient>
<linearGradient id="paint5_linear_4536_58032" x1="18.0405" y1="11.8579" x2="9.49737" y2="19.7864" gradientUnits="userSpaceOnUse">
<stop offset="0.2888" stop-color="white"/>
<stop offset="0.7796" stop-color="white" stop-opacity="0"/>
</linearGradient>
<linearGradient id="paint6_linear_4536_58032" x1="1.87763" y1="15.0915" x2="10.1336" y2="15.0915" gradientUnits="userSpaceOnUse">
<stop stop-color="#000292"/>
<stop offset="0.9952" stop-color="#7D00C7"/>
</linearGradient>
<linearGradient id="paint7_linear_4536_58032" x1="1.88896" y1="11.8951" x2="17.3" y2="11.8951" gradientUnits="userSpaceOnUse">
<stop stop-color="#000292"/>
<stop offset="0.9952" stop-color="#BE00C7"/>
</linearGradient>
</defs>
</svg>
