<svg width="418" height="418" viewBox="0 0 418 418" fill="none" xmlns="http://www.w3.org/2000/svg">
<circle cx="209" cy="209" r="209" fill="#A61FFF"/>
<path d="M336.259 119.217C333.399 108.333 324.342 97.3691 307.896 85.293C294.708 75.6004 280.805 70.0391 269.682 70.0391C267.457 70.0391 265.471 70.2774 263.406 70.6747C258.321 71.7075 253.872 75.4415 251.091 81.0029C247.675 87.597 246.88 96.4157 249.105 101.818C249.899 103.487 250.932 105.552 252.124 107.379C241.399 113.974 235.36 115.801 234.487 116.039C262.373 125.494 285.651 145.276 300.269 171.017L300.508 168.554C301.143 161.801 303.129 153.936 305.99 145.912C308.85 146.706 311.63 147.183 314.49 147.183C321.959 147.183 328.473 144.084 332.525 138.523C336.418 132.803 338.086 125.414 336.259 119.217Z" fill="#5E12A0"/>
<path d="M307.102 139.795C325.534 144.959 333.002 130.499 330.539 120.886C327.917 111.193 319.416 101.342 304.401 90.2193C289.464 79.0966 274.29 74.5681 264.518 76.6337C254.825 78.6994 251.965 93.715 254.428 99.5147C255.461 101.739 257.685 105.076 260.704 108.81C256.891 111.511 253.236 113.577 250.217 115.404C268.808 123.826 285.015 137.014 297.171 153.46C298.601 147.898 300.587 142.973 302.414 138.603C303.844 138.762 305.433 139.159 307.102 139.795Z" fill="url(#paint0_radial_685_663)"/>
<path d="M201.675 341.51C264.121 341.51 314.808 290.028 314.808 226.47C314.808 162.912 264.2 111.43 201.675 111.43C139.229 111.43 88.5411 162.912 88.5411 226.47C88.5411 290.028 139.229 341.51 201.675 341.51Z" fill="url(#paint1_radial_685_663)"/>
<path opacity="0.6" d="M321.244 111.351C305.831 94.9055 292.881 90.5358 277.309 87.0401C265.153 84.18 268.411 77.1886 283.188 78.6187C276.117 76.1558 269.444 75.5202 264.597 76.553C254.905 78.6187 252.045 93.6343 254.507 99.434C255.54 101.659 257.765 104.995 260.784 108.729C255.302 112.463 250.694 115.085 246.801 117.151C248.628 117.945 250.853 118.978 253.475 120.408C260.387 124.142 267.855 130.26 267.855 130.26C256.494 120.408 258.957 115.88 274.528 104.757C279.375 101.261 288.273 101.659 296.615 106.028C304.957 110.398 314.649 121.282 314.649 121.282L305.354 139.396C305.99 139.635 306.546 139.793 307.181 140.032C313.06 141.7 317.668 141.303 321.323 139.793C325.534 137.092 336.656 128.035 321.244 111.351Z" fill="#A98698"/>
<path d="M277.15 96.9713C281.202 98.6397 286.445 101.5 292.96 105.79C300.667 110.954 307.34 116.674 311.551 121.203C304.48 130.657 299.793 143.607 297.012 152.664C298.442 154.73 300.031 156.796 301.461 158.861C302.891 153.697 305.274 146.07 308.532 138.523C309.326 138.761 310.359 138.761 311.392 138.761C313.855 138.761 316.636 138.364 318.86 136.457C320.449 135.186 322.276 132.961 322.117 128.83C322.117 124.937 319.098 120.011 312.822 113.973C308.373 109.683 302.335 104.916 296.217 100.626C278.818 88.8677 266.663 85.6103 261.181 91.1717C257.526 94.9057 257.924 99.4342 259.195 102.692C252.76 106.982 247.278 110.08 243.623 112.146C246.086 112.94 248.31 113.973 250.694 115.006C257.129 111.59 266.425 105.631 277.15 96.9713ZM315.364 126.446C316 127.479 316.159 128.512 316.159 129.148C316.159 130.975 315.523 131.611 315.126 132.008C314.332 132.643 312.663 133.041 311.313 133.041C312.584 130.498 313.934 128.433 315.364 126.446ZM265.392 95.7002C266.027 95.0646 267.616 94.6674 270.238 95.0646C268.252 96.733 266.186 98.1631 264.2 99.5931C263.962 98.2425 264.2 96.733 265.392 95.7002Z" fill="#5E12A0"/>
<path d="M201.675 104.6C135.495 104.6 81.8676 159.18 81.8676 226.472C81.8676 293.765 135.495 348.345 201.675 348.345C267.855 348.345 321.482 293.765 321.482 226.472C321.482 159.18 267.616 104.6 201.675 104.6ZM201.675 341.513C139.149 341.513 88.5412 290.031 88.5412 226.472C88.5412 162.914 139.149 111.432 201.675 111.432C264.2 111.432 314.808 162.914 314.808 226.472C314.808 290.031 263.962 341.513 201.675 341.513Z" fill="#5E12A0"/>
<path opacity="0.6" d="M201.675 341.51C264.121 341.51 314.808 290.028 314.808 226.47C314.808 162.912 264.2 111.43 201.675 111.43C139.229 111.43 88.5411 162.912 88.5411 226.47C88.5411 290.028 139.229 341.51 201.675 341.51Z" fill="url(#paint2_linear_685_663)"/>
<path opacity="0.6" d="M200.88 327.528C139.149 317.438 97.2803 258.409 107.37 195.565C111.819 167.759 125.564 144.083 145.028 127.002C116.666 143.686 95.6914 172.684 89.9711 208.118C80.0402 270.882 121.909 329.991 183.481 340.081C217.882 345.88 251.091 334.917 275.561 313.545C253.872 326.257 227.575 331.818 200.88 327.528Z" fill="#A98698"/>
<path opacity="0.6" d="M219.709 113.019C191.188 108.252 163.46 114.846 140.818 129.464C140.421 129.862 140.023 130.259 140.023 130.259C148.763 124.936 161.474 120.169 161.474 120.169C128.662 139.554 118.572 161.561 118.572 161.561C131.284 136.456 168.783 118.739 198.1 117.547C227.416 116.276 246.642 125.174 270.159 144.321C293.596 163.706 307.817 203.192 306.387 234.494C305.195 265.797 288.988 291.061 288.988 291.061C300.11 276.443 306.784 265.717 311.074 254.833C311.869 251.576 312.663 248.239 313.06 244.743C323.071 182.218 281.361 123.109 219.709 113.019Z" fill="url(#paint3_linear_685_663)"/>
<path d="M309.088 225.438C309.088 285.738 260.943 334.758 201.675 334.758C142.407 334.758 94.0231 285.738 94.0231 225.438H309.088Z" fill="url(#paint4_linear_685_663)"/>
<path opacity="0.6" d="M300.587 225.438C300.587 284.308 254.825 332.454 197.385 334.758C198.815 334.758 200.245 334.758 201.595 334.758C260.863 334.758 309.009 285.738 309.009 225.438H300.587Z" fill="url(#paint5_linear_685_663)"/>
<path opacity="0.7" d="M109.198 225.438H94.0231C94.0231 285.738 142.168 334.758 201.436 334.758C204.058 334.758 206.521 334.758 208.905 334.519C153.291 330.388 109.198 283.037 109.198 225.438Z" fill="url(#paint6_linear_685_663)"/>
<path d="M308.929 226.471C308.929 213.919 287.478 206.689 258.957 204.226C238.3 202.558 217.485 204.623 193.571 212.012C172.915 218.209 154.324 217.176 140.738 215.508C110.628 212.012 94.0231 211.615 94.0231 226.392C94.0231 247.764 136.925 274.537 201.278 265.321C233.851 260.555 250.615 250.941 269.841 244.347C290.736 237.356 308.929 237.594 308.929 226.471Z" fill="url(#paint7_linear_685_663)"/>
<path d="M236.87 174.591C246.96 174.591 255.064 166.328 255.064 156.08C255.064 145.831 246.88 137.568 236.87 137.568C226.78 137.568 218.677 145.831 218.677 156.08C218.677 166.328 226.78 174.591 236.87 174.591Z" fill="white"/>
<path d="M266.583 188.335C270.794 188.335 274.29 184.84 274.29 180.55C274.29 176.259 270.874 172.764 266.583 172.764C262.293 172.764 258.877 176.259 258.877 180.55C258.877 184.84 262.373 188.335 266.583 188.335Z" fill="white"/>
<path opacity="0.6" d="M294.152 141.224C293.914 141.224 293.755 141.224 293.755 141.224C292.563 140.986 291.769 139.794 291.927 138.364C293.755 128.91 301.461 119.853 301.858 119.456C302.653 118.423 304.321 118.423 305.116 119.217C306.149 120.012 306.149 121.68 305.354 122.475C305.116 122.713 298.045 131.135 296.456 139.318C296.138 140.589 295.185 141.224 294.152 141.224Z" fill="url(#paint8_linear_685_663)"/>
<path opacity="0.2" d="M194.207 312.275C197.305 312.275 199.847 309.733 199.847 306.475C199.847 303.298 197.305 300.676 194.207 300.676C191.108 300.676 188.566 303.218 188.566 306.475C188.566 309.733 191.029 312.275 194.207 312.275Z" fill="white"/>
<path opacity="0.6" d="M190.949 310.209C188.725 307.905 188.725 304.251 190.949 301.947C191.346 301.55 191.744 301.311 192.141 300.914C191.346 301.152 190.711 301.55 190.155 302.185C187.93 304.41 187.93 308.144 190.155 310.448C191.982 312.275 194.842 312.672 197.067 311.481C195.001 312.275 192.538 311.878 190.949 310.209Z" fill="url(#paint9_linear_685_663)"/>
<path opacity="0.3" d="M196.193 304.886C196.828 304.886 197.384 304.33 197.384 303.615C197.384 302.9 196.828 302.344 196.193 302.344C195.557 302.344 195.001 302.9 195.001 303.615C195.001 304.33 195.557 304.886 196.193 304.886Z" fill="white"/>
<path opacity="0.2" d="M223.761 309.414C226.86 309.414 229.402 306.872 229.402 303.614C229.402 300.436 226.86 297.814 223.761 297.814C220.663 297.814 218.12 300.357 218.12 303.614C218.041 306.792 220.583 309.414 223.761 309.414Z" fill="white"/>
<path opacity="0.6" d="M220.504 307.35C218.279 305.125 218.279 301.391 220.504 299.087C220.901 298.69 221.298 298.452 221.695 298.055C220.901 298.293 220.265 298.69 219.709 299.326C217.485 301.55 217.485 305.284 219.709 307.588C221.537 309.416 224.397 309.892 226.621 308.621C224.556 309.416 222.093 309.018 220.504 307.35Z" fill="url(#paint10_linear_685_663)"/>
<path opacity="0.3" d="M225.747 301.947C226.383 301.947 226.939 301.391 226.939 300.675C226.939 299.96 226.383 299.404 225.747 299.404C225.112 299.404 224.556 299.96 224.556 300.675C224.556 301.391 225.112 301.947 225.747 301.947Z" fill="white"/>
<path opacity="0.2" d="M209.143 322.762C211.526 322.762 213.353 320.855 213.353 318.472C213.353 316.088 211.447 314.182 209.143 314.182C206.759 314.182 204.932 316.088 204.932 318.472C204.932 320.855 206.839 322.762 209.143 322.762Z" fill="white"/>
<path opacity="0.6" d="M206.759 321.094C205.17 319.426 205.17 316.566 206.759 314.897C206.998 314.659 207.395 314.5 207.554 314.262C206.918 314.5 206.521 314.897 206.124 315.295C204.535 316.963 204.535 319.823 206.124 321.491C207.554 322.922 209.54 323.16 211.367 322.127C209.778 322.763 207.951 322.365 206.759 321.094Z" fill="url(#paint11_linear_685_663)"/>
<path opacity="0.3" d="M210.573 317.042C211.05 317.042 211.367 316.645 211.367 316.248C211.367 315.771 210.97 315.453 210.573 315.453C210.176 315.453 209.778 315.85 209.778 316.248C209.778 316.645 210.096 317.042 210.573 317.042Z" fill="white"/>
<path opacity="0.2" d="M235.281 319.664C237.664 319.664 239.492 317.758 239.492 315.374C239.492 312.991 237.585 311.084 235.281 311.084C232.898 311.084 231.07 312.991 231.07 315.374C230.991 317.758 232.898 319.664 235.281 319.664Z" fill="white"/>
<path opacity="0.6" d="M232.818 318.075C231.229 316.406 231.229 313.546 232.818 311.878C233.056 311.639 233.454 311.481 233.613 311.242C232.977 311.481 232.58 311.878 232.183 312.275C230.594 313.943 230.594 316.804 232.183 318.472C233.613 319.902 235.599 320.14 237.426 319.108C235.837 319.664 234.01 319.266 232.818 318.075Z" fill="url(#paint12_linear_685_663)"/>
<path opacity="0.3" d="M236.711 313.944C237.188 313.944 237.506 313.547 237.506 313.15C237.506 312.673 237.108 312.355 236.711 312.355C236.314 312.355 235.917 312.753 235.917 313.15C235.837 313.547 236.234 313.944 236.711 313.944Z" fill="white"/>
<path opacity="0.2" d="M170.134 310.209C175.298 310.209 179.429 305.999 179.429 300.755C179.429 295.511 175.298 291.301 170.134 291.301C164.97 291.301 160.839 295.511 160.839 300.755C160.759 305.999 164.97 310.209 170.134 310.209Z" fill="white"/>
<path opacity="0.6" d="M164.811 306.713C161.156 302.979 161.156 297.02 164.811 293.366C165.447 292.73 166.003 292.333 166.797 291.936C165.605 292.333 164.573 293.207 163.54 294.001C159.885 297.735 159.885 303.694 163.54 307.348C166.559 310.447 171.246 311.082 174.901 308.778C171.485 310.209 167.512 309.573 164.811 306.713Z" fill="url(#paint13_linear_685_663)"/>
<path opacity="0.3" d="M173.312 297.893C174.424 297.893 175.298 296.94 175.298 295.827C175.298 294.715 174.424 293.762 173.312 293.762C172.2 293.762 171.326 294.715 171.326 295.827C171.326 296.94 172.2 297.893 173.312 297.893Z" fill="white"/>
<path opacity="0.2" d="M253.236 286.93C258.4 286.93 262.532 282.719 262.532 277.476C262.532 272.232 258.4 268.021 253.236 268.021C248.072 268.021 243.941 272.232 243.941 277.476C243.941 282.719 248.152 286.93 253.236 286.93Z" fill="white"/>
<path opacity="0.6" d="M247.834 283.435C244.179 279.701 244.179 273.743 247.834 270.088C248.469 269.453 249.026 269.055 249.82 268.658C248.628 269.055 247.596 269.929 246.563 270.724C242.908 274.458 242.908 280.416 246.563 284.071C249.582 287.169 254.269 287.805 257.924 285.501C254.507 286.931 250.615 286.375 247.834 283.435Z" fill="url(#paint14_linear_685_663)"/>
<path opacity="0.3" d="M256.494 274.616C257.606 274.616 258.48 273.662 258.48 272.55C258.48 271.438 257.606 270.484 256.494 270.484C255.381 270.484 254.507 271.438 254.507 272.55C254.507 273.662 255.381 274.616 256.494 274.616Z" fill="white"/>
<defs>
<radialGradient id="paint0_radial_685_663" cx="0" cy="0" r="1" gradientUnits="userSpaceOnUse" gradientTransform="translate(326.872 107.883) scale(90.437 91.9942)">
<stop stop-color="#FFEAFF" stop-opacity="0.6"/>
<stop offset="0.6807" stop-color="#A087C9"/>
<stop offset="1" stop-color="#10002F"/>
</radialGradient>
<radialGradient id="paint1_radial_685_663" cx="0" cy="0" r="1" gradientUnits="userSpaceOnUse" gradientTransform="translate(276.559 147.117) scale(221.267 225.077)">
<stop stop-color="#FFEAFF" stop-opacity="0.6"/>
<stop offset="0.6807" stop-color="#A087C9"/>
<stop offset="1" stop-color="#10002F"/>
</radialGradient>
<linearGradient id="paint2_linear_685_663" x1="182.955" y1="339.935" x2="220.381" y2="112.948" gradientUnits="userSpaceOnUse">
<stop stop-color="#81FFFF"/>
<stop offset="0.6202" stop-color="white" stop-opacity="0"/>
</linearGradient>
<linearGradient id="paint3_linear_685_663" x1="282.351" y1="149.372" x2="187.36" y2="235.054" gradientUnits="userSpaceOnUse">
<stop offset="0.2888" stop-color="white"/>
<stop offset="0.7796" stop-color="white" stop-opacity="0"/>
</linearGradient>
<linearGradient id="paint4_linear_685_663" x1="94.0197" y1="280.06" x2="309.115" y2="280.06" gradientUnits="userSpaceOnUse">
<stop stop-color="#0002E9"/>
<stop offset="0.9952" stop-color="#FF00C7"/>
</linearGradient>
<linearGradient id="paint5_linear_685_663" x1="319.805" y1="235.612" x2="200.925" y2="346.059" gradientUnits="userSpaceOnUse">
<stop offset="0.2888" stop-color="white"/>
<stop offset="0.7796" stop-color="white" stop-opacity="0"/>
</linearGradient>
<linearGradient id="paint6_linear_685_663" x1="94.0197" y1="280.06" x2="208.953" y2="280.06" gradientUnits="userSpaceOnUse">
<stop stop-color="#000292"/>
<stop offset="0.9952" stop-color="#7D00C7"/>
</linearGradient>
<linearGradient id="paint7_linear_685_663" x1="94.255" y1="235.455" x2="308.918" y2="235.455" gradientUnits="userSpaceOnUse">
<stop stop-color="#000292"/>
<stop offset="0.9952" stop-color="#BE00C7"/>
</linearGradient>
<linearGradient id="paint8_linear_685_663" x1="305.665" y1="118.576" x2="289.852" y2="143.838" gradientUnits="userSpaceOnUse">
<stop offset="0.2888" stop-color="white"/>
<stop offset="0.7796" stop-color="white" stop-opacity="0"/>
</linearGradient>
<linearGradient id="paint9_linear_685_663" x1="188.465" y1="306.561" x2="197.026" y2="306.561" gradientUnits="userSpaceOnUse">
<stop offset="0.2888" stop-color="white"/>
<stop offset="0.7796" stop-color="white" stop-opacity="0"/>
</linearGradient>
<linearGradient id="paint10_linear_685_663" x1="217.982" y1="303.677" x2="226.543" y2="303.677" gradientUnits="userSpaceOnUse">
<stop offset="0.2888" stop-color="white"/>
<stop offset="0.7796" stop-color="white" stop-opacity="0"/>
</linearGradient>
<linearGradient id="paint11_linear_685_663" x1="204.88" y1="318.571" x2="211.307" y2="318.571" gradientUnits="userSpaceOnUse">
<stop offset="0.2888" stop-color="white"/>
<stop offset="0.7796" stop-color="white" stop-opacity="0"/>
</linearGradient>
<linearGradient id="paint12_linear_685_663" x1="230.894" y1="315.482" x2="237.322" y2="315.482" gradientUnits="userSpaceOnUse">
<stop offset="0.2888" stop-color="white"/>
<stop offset="0.7796" stop-color="white" stop-opacity="0"/>
</linearGradient>
<linearGradient id="paint13_linear_685_663" x1="160.808" y1="301.013" x2="174.788" y2="301.013" gradientUnits="userSpaceOnUse">
<stop offset="0.2888" stop-color="white"/>
<stop offset="0.7796" stop-color="white" stop-opacity="0"/>
</linearGradient>
<linearGradient id="paint14_linear_685_663" x1="243.842" y1="277.756" x2="257.824" y2="277.756" gradientUnits="userSpaceOnUse">
<stop offset="0.2888" stop-color="white"/>
<stop offset="0.7796" stop-color="white" stop-opacity="0"/>
</linearGradient>
</defs>
</svg>
