<svg width="20" height="21" viewBox="0 0 20 21" fill="none" xmlns="http://www.w3.org/2000/svg">
<rect x="4.03992" y="2.11292" width="12.2514" height="14.3209" fill="white"/>
<path d="M9.99508 0.283081L3.00482 1.40786L1.5636 1.63281V13.6062C1.5636 16.3771 7.52181 19.3117 9.99508 20.2831C11.436 19.7207 14.0524 18.4937 15.984 17.0214C16.1271 16.9089 16.2804 16.7964 16.4133 16.6839C17.0776 16.142 17.6295 15.5694 17.9873 14.9866C18.2632 14.5367 18.4267 14.0766 18.4267 13.6162V1.63281L9.99508 0.283081ZM5.9275 6.63269H10.8433V7.65523H5.9275V6.63269ZM15.5139 7.11334C15.5139 9.53661 13.8276 11.1013 11.4974 11.1013H8.26792V16.2138H6.99042V9.94565H11.3241C13.0615 9.94565 14.1959 8.89248 14.1959 7.11334C14.1959 5.35469 13.0615 4.33215 11.3444 4.33215H9.99508L6.76558 4.34239V3.17675H11.4869C13.8273 3.17675 15.5136 4.69007 15.5136 7.11334" fill="#7F6CA2"/>
<path d="M9.99508 0.283081L3.00482 1.40786L1.5636 1.63281V13.6062C1.5636 16.3771 7.52181 19.3117 9.99508 20.2831C11.436 19.7207 14.0524 18.4937 15.984 17.0214C16.1271 16.9089 16.2804 16.7964 16.4133 16.6839C17.0776 16.142 17.6295 15.5694 17.9873 14.9866C18.2632 14.5367 18.4267 14.0766 18.4267 13.6162V1.63281L9.99508 0.283081ZM5.9275 6.63269H10.8433V7.65523H5.9275V6.63269ZM15.5139 7.11334C15.5139 9.53661 13.8276 11.1013 11.4974 11.1013H8.26792V16.2138H6.99042V9.94565H11.3241C13.0615 9.94565 14.1959 8.89248 14.1959 7.11334C14.1959 5.35469 13.0615 4.33215 11.3444 4.33215H9.99508L6.76558 4.34239V3.17675H11.4869C13.8273 3.17675 15.5136 4.69007 15.5136 7.11334" fill="white"/>
<path d="M9.99508 0.283081L3.00482 1.40786L1.5636 1.63281V13.6062C1.5636 16.3771 7.52181 19.3117 9.99508 20.2831C11.436 19.7207 14.0524 18.4937 15.984 17.0214C16.1271 16.9089 16.2804 16.7964 16.4133 16.6839C17.0776 16.142 17.6295 15.5694 17.9873 14.9866C18.2632 14.5367 18.4267 14.0766 18.4267 13.6162V1.63281L9.99508 0.283081ZM5.9275 6.63269H10.8433V7.65523H5.9275V6.63269ZM15.5139 7.11334C15.5139 9.53661 13.8276 11.1013 11.4974 11.1013H8.26792V16.2138H6.99042V9.94565H11.3241C13.0615 9.94565 14.1959 8.89248 14.1959 7.11334C14.1959 5.35469 13.0615 4.33215 11.3444 4.33215H9.99508L6.76558 4.34239V3.17675H11.4869C13.8273 3.17675 15.5136 4.69007 15.5136 7.11334" fill="white"/>
<path d="M11.4864 11.0908H8.26743V11.6939C8.81467 12.1311 9.39562 12.5243 10.0048 12.8699C12.0386 14.0356 14.6549 14.8229 17.9969 14.9762C18.2729 14.5263 18.4363 14.0662 18.4363 13.6058V1.63281L10.0048 0.283081L3.00433 1.40785C3.33139 4.0357 4.30233 7.66547 6.99018 10.5183V9.94563H11.3238C13.0612 9.94563 14.1956 8.89247 14.1956 7.11333C14.1956 5.35468 13.0612 4.33214 11.3442 4.33214H9.9946L6.7651 4.34239V3.17675H11.4864C13.8166 3.17675 15.5029 4.70031 15.5029 7.10296C15.5029 9.52622 13.8269 11.0908 11.4864 11.0908ZM9.9946 6.63268H10.8321V7.65522H5.92702V6.63268H9.9946Z" fill="#A088CC"/>
<path d="M9.99508 12.8697C9.38585 12.5241 8.8049 12.1308 8.25767 11.6937V16.2125H6.98041V10.5179C4.29232 7.65496 3.33163 4.02507 3.00482 1.40759L1.5636 1.63255V13.6059C1.5636 16.3768 7.52181 19.3114 9.99508 20.2828C11.436 19.7204 14.0524 18.4934 15.984 17.0211C16.1271 16.9086 16.2804 16.7961 16.4133 16.6837C17.0776 16.1418 17.6295 15.5691 17.9873 14.9864C14.6453 14.8125 12.0392 14.0252 9.9952 12.8698" fill="#7F6CA2"/>
</svg>
