<svg width="51" height="50" viewBox="0 0 51 50" fill="none" xmlns="http://www.w3.org/2000/svg">
<ellipse cx="25.6816" cy="24.9999" rx="25" ry="24.9999" fill="white"/>
<path d="M25.9924 10L15.2208 11.7332L13 12.0799V30.5302C13 34.8 22.1813 39.322 25.9924 40.8189C28.2128 39.9522 32.2445 38.0615 35.221 35.7928C35.4415 35.6194 35.6777 35.4461 35.8825 35.2727C36.9062 34.4377 37.7566 33.5553 38.308 32.6573C38.7331 31.964 38.9851 31.255 38.9851 30.5456V12.0799L25.9924 10ZM19.7245 19.7844H27.2995V21.3601H19.7245V19.7844ZM34.4966 20.525C34.4966 24.2592 31.8981 26.6703 28.3074 26.6703H23.331V34.5483H21.3624V24.8895H28.0404C30.7176 24.8895 32.4656 23.2666 32.4656 20.525C32.4656 17.8151 30.7176 16.2394 28.0716 16.2394H25.9924L21.016 16.2552V14.459H28.2912C31.8977 14.459 34.4966 16.7909 34.4966 20.525Z" fill="#7F6CA2"/>
<path d="M25.9924 10L15.2208 11.7332L13 12.0799V30.5302C13 34.8 22.1813 39.322 25.9924 40.8189C28.2128 39.9522 32.2445 38.0615 35.221 35.7928C35.4415 35.6194 35.6777 35.4461 35.8825 35.2727C36.9062 34.4377 37.7566 33.5553 38.308 32.6573C38.7331 31.964 38.9851 31.255 38.9851 30.5456V12.0799L25.9924 10ZM19.7245 19.7844H27.2995V21.3601H19.7245V19.7844ZM34.4966 20.525C34.4966 24.2592 31.8981 26.6703 28.3074 26.6703H23.331V34.5483H21.3624V24.8895H28.0404C30.7176 24.8895 32.4656 23.2666 32.4656 20.525C32.4656 17.8151 30.7176 16.2394 28.0716 16.2394H25.9924L21.016 16.2552V14.459H28.2912C31.8977 14.459 34.4966 16.7909 34.4966 20.525Z" fill="white"/>
<path d="M25.9924 10L15.2208 11.7332L13 12.0799V30.5302C13 34.8 22.1813 39.322 25.9924 40.8189C28.2128 39.9522 32.2445 38.0615 35.221 35.7928C35.4415 35.6194 35.6777 35.4461 35.8825 35.2727C36.9062 34.4377 37.7566 33.5553 38.308 32.6573C38.7331 31.964 38.9851 31.255 38.9851 30.5456V12.0799L25.9924 10ZM19.7245 19.7844H27.2995V21.3601H19.7245V19.7844ZM34.4966 20.525C34.4966 24.2592 31.8981 26.6703 28.3074 26.6703H23.331V34.5483H21.3624V24.8895H28.0404C30.7176 24.8895 32.4656 23.2666 32.4656 20.525C32.4656 17.8151 30.7176 16.2394 28.0716 16.2394H25.9924L21.016 16.2552V14.459H28.2912C31.8977 14.459 34.4966 16.7909 34.4966 20.525Z" fill="white"/>
<path d="M28.2906 26.6541H23.3303V27.5834C24.1736 28.2571 25.0688 28.863 26.0075 29.3956C29.1415 31.1918 33.1731 32.405 38.3229 32.6412C38.7482 31.948 39 31.239 39 30.5295V12.0799L26.0075 10L15.2202 11.7332C15.7242 15.7826 17.2204 21.3758 21.3622 25.7719V24.8894H28.04C30.7173 24.8894 32.4653 23.2666 32.4653 20.525C32.4653 17.815 30.7173 16.2394 28.0715 16.2394H25.9918L21.0153 16.2552V14.459H28.2906C31.8813 14.459 34.4798 16.8067 34.4798 20.509C34.4798 24.2431 31.8972 26.6541 28.2906 26.6541ZM25.9918 19.7844H27.2824V21.36H19.7239V19.7844H25.9918Z" fill="#A088CC"/>
<path d="M25.9924 29.3953C25.0536 28.8627 24.1584 28.2567 23.3152 27.5831V34.5463H21.347V25.7713C17.2048 21.3597 15.7244 15.7662 15.2208 11.7328L13 12.0795V30.5297C13 34.7995 22.1813 39.3216 25.9924 40.8184C28.2128 39.9518 32.2445 38.0611 35.221 35.7923C35.4415 35.619 35.6777 35.4456 35.8825 35.2724C36.9062 34.4374 37.7566 33.5549 38.308 32.657C33.1581 32.389 29.1421 31.1757 25.9924 29.3953Z" fill="#7F6CA2"/>
</svg>
