<svg width="51" height="50" viewBox="0 0 51 50" fill="none" xmlns="http://www.w3.org/2000/svg">
<ellipse cx="25.6816" cy="24.9999" rx="25" ry="24.9999" fill="#E6007A"/>
<path d="M26.0002 16.2479C28.9653 16.2479 31.3691 14.8492 31.3691 13.1239C31.3691 11.3986 28.9653 10 26.0002 10C23.0351 10 20.6313 11.3986 20.6313 13.1239C20.6313 14.8492 23.0351 16.2479 26.0002 16.2479Z" fill="white"/>
<path d="M26.0002 39.7776C28.9653 39.7776 31.3691 38.379 31.3691 36.6537C31.3691 34.9282 28.9653 33.5295 26.0002 33.5295C23.0351 33.5295 20.6313 34.9282 20.6313 36.6537C20.6313 38.379 23.0351 39.7776 26.0002 39.7776Z" fill="white"/>
<path d="M18.5166 20.5684C19.9992 18.0005 19.9898 15.2195 18.4956 14.3568C17.0015 13.4942 14.5884 14.8766 13.1058 17.4444C11.6232 20.0123 11.6326 22.7933 13.1268 23.656C14.621 24.5186 17.0341 23.1363 18.5166 20.5684Z" fill="white"/>
<path d="M38.894 32.3333C40.3765 29.7653 40.3672 26.9845 38.8731 26.1218C37.3788 25.2592 34.9658 26.6414 33.4831 29.2094C32.0007 31.7772 32.0102 34.5582 33.5042 35.4207C34.9983 36.2835 37.4115 34.9011 38.894 32.3333Z" fill="white"/>
<path d="M18.4956 35.4207C19.9898 34.558 19.9992 31.777 18.5166 29.2092C17.0341 26.6412 14.6209 25.2588 13.1268 26.1216C11.6326 26.9841 11.6233 29.7651 13.1058 32.3331C14.5884 34.9009 17.0015 36.2833 18.4956 35.4207Z" fill="white"/>
<path d="M38.8721 23.6563C40.3662 22.7937 40.3757 20.0126 38.893 17.4447C37.4105 14.8768 34.9975 13.4944 33.5032 14.3571C32.0091 15.2198 31.9996 18.0008 33.4823 20.5687C34.9648 23.1366 37.378 24.519 38.8721 23.6563Z" fill="white"/>
</svg>
