<svg width="20" height="20" viewBox="0 0 20 20" fill="none" xmlns="http://www.w3.org/2000/svg">
<g clip-path="url(#clip0_4815_59827)">
<circle cx="10" cy="10" r="10" fill="#E6007A"/>
<path d="M10 5.89729C11.4043 5.89729 12.5427 5.2349 12.5427 4.41779C12.5427 3.60069 11.4043 2.93829 10 2.93829C8.59571 2.93829 7.45731 3.60069 7.45731 4.41779C7.45731 5.2349 8.59571 5.89729 10 5.89729Z" fill="white"/>
<path d="M10 17.041C11.4043 17.041 12.5427 16.3786 12.5427 15.5615C12.5427 14.7443 11.4043 14.0819 10 14.0819C8.59571 14.0819 7.45731 14.7443 7.45731 15.5615C7.45731 16.3786 8.59571 17.041 10 17.041Z" fill="white"/>
<path d="M6.45601 7.94351C7.15816 6.72735 7.15371 5.41027 6.44607 5.00172C5.73844 4.59317 4.59558 5.24786 3.89344 6.46401C3.19129 7.68016 3.19574 8.99724 3.90337 9.40579C4.61101 9.81435 5.75386 9.15966 6.45601 7.94351Z" fill="white"/>
<path d="M16.1066 13.5154C16.8087 12.2992 16.8043 10.9822 16.0967 10.5736C15.389 10.1651 14.2462 10.8197 13.544 12.0359C12.8419 13.252 12.8464 14.5691 13.554 14.9776C14.2616 15.3862 15.4045 14.7315 16.1066 13.5154Z" fill="white"/>
<path d="M6.44605 14.9776C7.15369 14.569 7.15813 13.2519 6.45599 12.0358C5.75385 10.8196 4.611 10.1649 3.90336 10.5735C3.19573 10.982 3.19129 12.2991 3.89343 13.5153C4.59558 14.7314 5.73842 15.3861 6.44605 14.9776Z" fill="white"/>
<path d="M16.0966 9.40592C16.8042 8.99736 16.8087 7.68026 16.1065 6.4641C15.4044 5.24793 14.2616 4.59323 13.5539 5.00179C12.8463 5.41035 12.8418 6.72745 13.544 7.94361C14.2461 9.15978 15.389 9.81448 16.0966 9.40592Z" fill="white"/>
</g>
<defs>
<clipPath id="clip0_4815_59827">
<rect width="20" height="20" fill="white"/>
</clipPath>
</defs>
</svg>
