<svg width="40" height="36" viewBox="0 0 40 36" fill="none" xmlns="http://www.w3.org/2000/svg">
<path d="M30 11.3C29.3 10.9 28.4 10.9 27.6 11.3L22 14.6L18.2 16.7L12.7 20C12 20.4 11.1 20.4 10.3 20L6 17.4C5.3 17 4.8 16.2 4.8 15.3V10.3C4.8 9.5 5.2 8.7 6 8.2L10.3 5.7C11 5.3 11.9 5.3 12.7 5.7L17 8.3C17.7 8.7 18.2 9.5 18.2 10.4V13.7L22 11.5V8.1C22 7.3 21.6 6.5 20.8 6L12.8 1.3C12.1 0.9 11.2 0.9 10.4 1.3L2.2 6.1C1.4 6.5 1 7.3 1 8.1V17.5C1 18.3 1.4 19.1 2.2 19.6L10.3 24.3C11 24.7 11.9 24.7 12.7 24.3L18.2 21.1L22 18.9L27.5 15.7C28.2 15.3 29.1 15.3 29.9 15.7L34.2 18.2C34.9 18.6 35.4 19.4 35.4 20.3V25.3C35.4 26.1 35 26.9 34.2 27.4L30 29.9C29.3 30.3 28.4 30.3 27.6 29.9L23.3 27.4C22.6 27 22.1 26.2 22.1 25.3V22.1L18.3 24.3V27.6C18.3 28.4 18.7 29.2 19.5 29.7L27.6 34.4C28.3 34.8 29.2 34.8 30 34.4L38.1 29.7C38.8 29.3 39.3 28.5 39.3 27.6V18.1C39.3 17.3 38.9 16.5 38.1 16L30 11.3Z" fill="#8247E5" stroke="white" stroke-linecap="round" stroke-linejoin="round"/>
</svg>
