<svg width="40" height="40" viewBox="0 0 40 40" fill="none" xmlns="http://www.w3.org/2000/svg">
<path d="M20 40C31.0457 40 40 31.0457 40 20C40 8.9543 31.0457 0 20 0C8.9543 0 0 8.9543 0 20C0 31.0457 8.9543 40 20 40Z" fill="#8247E5"/>
<path d="M26.4969 15.4988C26.0352 15.224 25.4415 15.224 24.9139 15.4988L21.22 17.7665L18.7135 19.2096L15.0856 21.4773C14.6239 21.7522 14.0303 21.7522 13.5025 21.4773L10.6662 19.6906C10.2045 19.4158 9.87469 18.866 9.87469 18.2475V14.8117C9.87469 14.2619 10.1385 13.7122 10.6662 13.3686L13.5025 11.6506C13.9643 11.3758 14.5579 11.3758 15.0856 11.6506L17.922 13.4373C18.3837 13.7122 18.7135 14.2619 18.7135 14.8804V17.1481L21.22 15.6363V13.2999C21.22 12.7501 20.9562 12.2004 20.4285 11.8568L15.1516 8.62705C14.6899 8.35218 14.0962 8.35218 13.5685 8.62705L8.1597 11.9255C7.63201 12.2004 7.36816 12.7501 7.36816 13.2999V19.7593C7.36816 20.3091 7.63201 20.8588 8.1597 21.2024L13.5025 24.4321C13.9643 24.707 14.5579 24.707 15.0856 24.4321L18.7135 22.2332L21.22 20.7214L24.8479 18.5224C25.3096 18.2475 25.9033 18.2475 26.431 18.5224L29.2673 20.2403C29.729 20.5152 30.0588 21.065 30.0588 21.6834V25.1193C30.0588 25.6691 29.795 26.2188 29.2673 26.5624L26.4969 28.2804C26.0352 28.5552 25.4415 28.5552 24.9139 28.2804L22.0775 26.5624C21.6158 26.2875 21.286 25.7378 21.286 25.1193V22.9203L18.7795 24.4321V26.6998C18.7795 27.2496 19.0433 27.7993 19.571 28.1429L24.9139 31.3726C25.3756 31.6475 25.9692 31.6475 26.4969 31.3726L31.8398 28.1429C32.3015 27.8681 32.6313 27.3183 32.6313 26.6998V20.1716C32.6313 19.6219 32.3675 19.0722 31.8398 18.7286L26.4969 15.4988Z" fill="white"/>
</svg>
