<svg width="51" height="50" viewBox="0 0 51 50" fill="none" xmlns="http://www.w3.org/2000/svg">
<ellipse cx="25.6816" cy="24.9999" rx="25" ry="24.9999" fill="white"/>
<path d="M30.043 24.2213C29.5816 24.6209 28.8302 24.8374 27.7524 24.8374H22.9321V32.003H24.9478V26.7011H28.0052C28.9657 26.7011 29.8061 26.5333 30.5213 26.1916C31.2492 25.8366 31.8217 25.3366 32.2319 24.6934C32.644 24.0472 32.8466 23.2836 32.8466 22.4093C32.8466 21.5397 32.6461 20.6541 32.2319 20.0048C31.8217 19.3615 31.2502 18.8688 30.5219 18.5274C29.8065 18.1717 28.9658 17.9969 28.0052 17.9969H22.9321V19.8607H27.7524C28.831 19.8607 29.5827 20.0775 30.0439 20.4776C30.5003 20.8733 30.7467 21.584 30.7467 22.4093C30.7467 23.2113 30.5056 23.8071 30.043 24.2213Z" fill="url(#paint0_linear_62_127)"/>
<path fill-rule="evenodd" clip-rule="evenodd" d="M41.75 25C41.75 33.2842 34.8665 40 26.375 40C17.8836 40 11 33.2842 11 25C11 16.7157 17.8836 10 26.375 10C34.8665 10 41.75 16.7157 41.75 25ZM39.7359 25C39.7359 32.199 33.7539 38.0349 26.375 38.0349C18.996 38.0349 13.0141 32.199 13.0141 25C13.0141 17.801 18.996 11.965 26.375 11.965C33.7539 11.965 39.7359 17.801 39.7359 25Z" fill="url(#paint1_linear_62_127)"/>
<defs>
<linearGradient id="paint0_linear_62_127" x1="81.9842" y1="17.7275" x2="81.9324" y2="44.7201" gradientUnits="userSpaceOnUse">
<stop stop-color="#FF2E72"/>
<stop offset="0.934908" stop-color="#4A125E"/>
</linearGradient>
<linearGradient id="paint1_linear_62_127" x1="81.9844" y1="17.7275" x2="81.9326" y2="44.7201" gradientUnits="userSpaceOnUse">
<stop stop-color="#FF2E72"/>
<stop offset="0.934908" stop-color="#4A125E"/>
</linearGradient>
</defs>
</svg>
