<svg width="20" height="20" viewBox="0 0 20 20" fill="none" xmlns="http://www.w3.org/2000/svg">
<g clip-path="url(#clip0_4523_57986)">
<path d="M12.3857 9.49356C12.0856 9.75341 11.5969 9.89424 10.8959 9.89424H7.76074V14.5548H9.07174V11.1064H11.0603C11.685 11.1064 12.2316 10.9973 12.6968 10.775L12.6976 10.7746C13.171 10.5437 13.5426 10.2189 13.8094 9.80059C14.0774 9.38029 14.2092 8.88366 14.2092 8.31502C14.2092 7.74937 14.0788 7.17337 13.8094 6.75107C13.5426 6.33268 13.1709 6.01224 12.6972 5.79019C12.2319 5.55883 11.6851 5.44517 11.0603 5.44517H7.76074V6.65737H10.8959C11.5974 6.65737 12.0863 6.79839 12.3863 7.05859C12.6831 7.316 12.8434 7.77824 12.8434 8.31502C12.8434 8.83663 12.6866 9.22415 12.3857 9.49356Z" fill="url(#paint0_linear_4523_57986)"/>
<path fill-rule="evenodd" clip-rule="evenodd" d="M20 10C20 15.3881 15.5229 19.7561 10 19.7561C4.47715 19.7561 0 15.3881 0 10C0 4.61185 4.47715 0.243902 10 0.243902C15.5229 0.243902 20 4.61185 20 10ZM18.69 10C18.69 14.6823 14.7993 18.478 10 18.478C5.20065 18.478 1.31 14.6823 1.31 10C1.31 5.31771 5.20065 1.52195 10 1.52195C14.7993 1.52195 18.69 5.31771 18.69 10Z" fill="url(#paint1_linear_4523_57986)"/>
</g>
<defs>
<linearGradient id="paint0_linear_4523_57986" x1="46.1686" y1="5.26995" x2="46.1349" y2="22.8261" gradientUnits="userSpaceOnUse">
<stop stop-color="#FF2E72"/>
<stop offset="0.934908" stop-color="#4A125E"/>
</linearGradient>
<linearGradient id="paint1_linear_4523_57986" x1="46.1687" y1="5.26995" x2="46.135" y2="22.8261" gradientUnits="userSpaceOnUse">
<stop stop-color="#FF2E72"/>
<stop offset="0.934908" stop-color="#4A125E"/>
</linearGradient>
<clipPath id="clip0_4523_57986">
<rect width="20" height="20" fill="white"/>
</clipPath>
</defs>
</svg>
