<svg width="51" height="50" viewBox="0 0 51 50" fill="none" xmlns="http://www.w3.org/2000/svg">
<ellipse cx="25.6816" cy="24.9999" rx="25" ry="24.9999" fill="white"/>
<path fill-rule="evenodd" clip-rule="evenodd" d="M42 26.7321C42 26.8857 41.9648 27.0317 41.8981 27.1584L35.0356 39.1763C34.7446 39.686 34.2067 40 33.6247 40H18.3753C17.7933 40 17.2554 39.686 16.9644 39.1763L10.1012 27.1572C10.0347 27.0307 10 26.8854 10 26.7321C10 26.2346 10.3988 25.8314 10.8908 25.8314H18.4202L20.3284 29.1085L20.3401 29.128C20.5948 29.5414 21.1305 29.6761 21.548 29.4277L21.5696 29.4144C21.7621 29.2923 21.9014 29.1001 21.9585 28.8771L24.3899 19.3735L26.4776 34.6737L26.4808 34.695C26.5579 35.1763 27.0015 35.5098 27.4818 35.4428L27.5036 35.4395C27.8513 35.3821 28.1338 35.1224 28.2224 34.7761L31.1532 23.321L32.3565 25.3877L32.3684 25.4076C32.5308 25.6707 32.8163 25.8314 33.1241 25.8314H41.1092C41.6012 25.8314 42 26.2346 42 26.7321ZM33.6247 10C34.2067 10 34.7446 10.314 35.0356 10.8237L41.8986 22.8422C41.9649 22.9687 42 23.1147 42 23.2679C42 23.7654 41.6012 24.1686 41.1092 24.1686H33.5551L31.6469 20.8916L31.6338 20.8697C31.513 20.6751 31.323 20.5342 31.1024 20.4765L31.0817 20.4714C30.6121 20.3604 30.1383 20.6483 30.0169 21.1229L27.5854 30.6264L25.4977 15.3263L25.4945 15.3043C25.4377 14.9527 25.1808 14.667 24.8384 14.5774C24.3621 14.4529 23.8761 14.7423 23.7529 15.2239L20.8221 26.6789L19.6188 24.6123L19.6069 24.5924C19.4445 24.3293 19.159 24.1686 18.8512 24.1686H10.8908C10.3988 24.1686 10 23.7654 10 23.2679C10 23.1159 10.0338 22.972 10.0991 22.8463L16.9644 10.8237C17.2554 10.314 17.7933 10 18.3753 10H33.6247Z" fill="url(#paint0_linear_62_131)"/>
<defs>
<linearGradient id="paint0_linear_62_131" x1="10" y1="44.5728" x2="39.2248" y2="4.93207" gradientUnits="userSpaceOnUse">
<stop offset="0.141877" stop-color="#00EAFF"/>
<stop offset="0.319998" stop-color="#0080FF"/>
<stop offset="0.486823" stop-color="#8000FF"/>
<stop offset="0.657691" stop-color="#E619E6"/>
<stop offset="0.851248" stop-color="#FF0000"/>
</linearGradient>
</defs>
</svg>
