<svg width="20" height="20" viewBox="0 0 20 20" fill="none" xmlns="http://www.w3.org/2000/svg">
<path d="M12.1235 18.5026H6.62532L2.18896 15.2517L0.498047 10.0008L2.18532 4.7499L6.62168 1.49899H12.1235L16.5599 4.7499L18.2471 10.0008L16.5599 15.2517L16.498 15.3135L12.1235 18.5026ZM6.74896 18.1244H11.9999L16.2508 15.0008L17.8762 10.0008L16.2508 5.00081L11.9999 1.87717H6.74896L2.50168 5.00081L0.876229 10.0008L2.50168 15.0008L6.74896 18.1244Z" fill="#2E9AD0"/>
<path d="M18.8764 17.6263L16.3127 15.3136L13.8109 14.3754L9.37454 14.939L4.87635 14.3754L2.37454 15.3136L2.2509 14.939L4.8109 13.939H4.87635L9.37454 14.5645L13.8764 13.939L13.9382 14.0008L16.5636 15.0008L19.1236 17.3754L18.8764 17.6263Z" fill="#2E9AD0"/>
<path d="M11.9998 18.688L9.37438 15.0626L6.62529 18.688L4.62529 14.2517L4.99984 14.0626L6.74893 17.9389L9.37438 14.3753L11.938 17.9389L13.6871 14.0626L16.0617 9.31348L16.6253 15.1244H16.2507L15.8107 10.688L14.0617 14.2517L11.9998 18.688Z" fill="#2E9AD0"/>
<path d="M0.749268 9.81094H18.1238V10.1855H0.749268V9.81094Z" fill="#2E9AD0"/>
<path d="M16.0619 10.6875L13.8764 6.37475L12.0001 10.4366L9.3746 5.74929L6.68732 10.4366L4.81096 6.37475L2.62551 10.6875L2.12369 4.93838L2.50187 4.87656L2.87641 9.37478L4.81096 5.56384L6.68732 9.62569L9.3746 5.00019L11.9382 9.62569L13.8764 5.56384L15.811 9.31296L16.1237 4.87656H16.5019L16.0619 10.6875Z" fill="#2E9AD0"/>
<path d="M13.6873 6.06227L11.9382 2.12409L9.3746 5.74955L6.74914 2.12409L5.00005 6.06227L4.68732 5.87682L6.6255 1.375L9.3746 5.06227L12.0001 1.375L14.0619 5.87682L13.6873 6.06227ZM16.251 15.1241L15.811 10.6877L13.8764 14.5641L11.9382 10.4368L9.3746 15.1241L6.68732 10.4368L4.81096 14.5641L2.87641 10.6877L2.50187 15.1241H2.12369L2.62551 9.31318L4.81096 13.6877L6.68732 9.62591L9.3746 14.3132L12.0001 9.62591L13.8764 13.7495L16.0619 9.31318L16.6255 15.1241H16.251Z" fill="#2E9AD0"/>
<path d="M13.8764 6.18964L9.31277 5.56419L4.81092 6.18964L2.2509 5.06238L2.37454 4.68784L4.87638 5.74964L9.31277 5.18965L13.8764 5.74964L16.3128 4.68784L16.5019 5.06238L13.8764 6.18964Z" fill="#2E9AD0"/>
<path d="M6.68746 19.0614C7.10117 19.0614 7.43655 18.726 7.43655 18.3123C7.43655 17.8985 7.10117 17.5631 6.68746 17.5631C6.27375 17.5631 5.93837 17.8985 5.93837 18.3123C5.93837 18.726 6.27375 19.0614 6.68746 19.0614Z" fill="#2E9AD0"/>
<path d="M11.9383 19.0614C12.352 19.0614 12.6874 18.726 12.6874 18.3123C12.6874 17.8985 12.352 17.5631 11.9383 17.5631C11.5246 17.5631 11.1892 17.8985 11.1892 18.3123C11.1892 18.726 11.5246 19.0614 11.9383 19.0614Z" fill="#2E9AD0"/>
<path d="M6.68746 2.49809C7.10117 2.49809 7.43655 2.16271 7.43655 1.749C7.43655 1.33529 7.10117 0.999908 6.68746 0.999908C6.27375 0.999908 5.93837 1.33529 5.93837 1.749C5.93837 2.16271 6.27375 2.49809 6.68746 2.49809Z" fill="#2E9AD0"/>
<path d="M11.9383 2.49809C12.352 2.49809 12.6874 2.16271 12.6874 1.749C12.6874 1.33529 12.352 0.999908 11.9383 0.999908C11.5246 0.999908 11.1892 1.33529 11.1892 1.749C11.1892 2.16271 11.5246 2.49809 11.9383 2.49809Z" fill="#2E9AD0"/>
<path d="M16.3127 5.62532C16.7264 5.62532 17.0618 5.28994 17.0618 4.87623C17.0618 4.46252 16.7264 4.12714 16.3127 4.12714C15.8989 4.12714 15.5635 4.46252 15.5635 4.87623C15.5635 5.28994 15.8989 5.62532 16.3127 5.62532Z" fill="#2E9AD0"/>
<path d="M2.31316 5.62532C2.72688 5.62532 3.06227 5.28994 3.06227 4.87623C3.06227 4.46252 2.72688 4.12714 2.31316 4.12714C1.89944 4.12714 1.56406 4.46252 1.56406 4.87623C1.56406 5.28994 1.89944 5.62532 2.31316 5.62532Z" fill="#2E9AD0"/>
<path d="M2.31316 15.938C2.72688 15.938 3.06227 15.6026 3.06227 15.1889C3.06227 14.7752 2.72688 14.4398 2.31316 14.4398C1.89944 14.4398 1.56406 14.7752 1.56406 15.1889C1.56406 15.6026 1.89944 15.938 2.31316 15.938Z" fill="#2E9AD0"/>
<path d="M0.749098 10.7493C1.16281 10.7493 1.4982 10.4139 1.4982 10.0002C1.4982 9.5865 1.16281 9.25113 0.749098 9.25113C0.335383 9.25113 0 9.5865 0 10.0002C0 10.4139 0.335383 10.7493 0.749098 10.7493Z" fill="#2E9AD0"/>
<path d="M18.0618 10.7493C18.4755 10.7493 18.8109 10.4139 18.8109 10.0002C18.8109 9.5865 18.4755 9.25113 18.0618 9.25113C17.6481 9.25113 17.3127 9.5865 17.3127 10.0002C17.3127 10.4139 17.6481 10.7493 18.0618 10.7493Z" fill="#2E9AD0"/>
<path d="M15.9384 10.7493C16.3521 10.7493 16.6875 10.4139 16.6875 10.0002C16.6875 9.5865 16.3521 9.25113 15.9384 9.25113C15.5246 9.25113 15.1892 9.5865 15.1892 10.0002C15.1892 10.4139 15.5246 10.7493 15.9384 10.7493Z" fill="#2E9AD0"/>
<path d="M2.74914 10.7493C3.16285 10.7493 3.49823 10.4139 3.49823 10.0002C3.49823 9.5865 3.16285 9.25113 2.74914 9.25113C2.33543 9.25113 2.00005 9.5865 2.00005 10.0002C2.00005 10.4139 2.33543 10.7493 2.74914 10.7493Z" fill="#2E9AD0"/>
<path d="M6.68746 10.7493C7.10117 10.7493 7.43655 10.4139 7.43655 10.0002C7.43655 9.5865 7.10117 9.25113 6.68746 9.25113C6.27375 9.25113 5.93837 9.5865 5.93837 10.0002C5.93837 10.4139 6.27375 10.7493 6.68746 10.7493Z" fill="#2E9AD0"/>
<path d="M11.9383 10.7493C12.352 10.7493 12.6874 10.4139 12.6874 10.0002C12.6874 9.5865 12.352 9.25113 11.9383 9.25113C11.5246 9.25113 11.1892 9.5865 11.1892 10.0002C11.1892 10.4139 11.5246 10.7493 11.9383 10.7493Z" fill="#2E9AD0"/>
<path d="M10.1142 5.495C10.1805 5.08663 9.90321 4.70186 9.49485 4.63558C9.08649 4.5693 8.70172 4.84662 8.63544 5.25498C8.56916 5.66334 8.84647 6.04811 9.25483 6.11439C9.6632 6.18067 10.048 5.90336 10.1142 5.495Z" fill="#2E9AD0"/>
<path d="M4.81064 6.7493C5.22436 6.7493 5.55974 6.41392 5.55974 6.00021C5.55974 5.58651 5.22436 5.25113 4.81064 5.25113C4.39693 5.25113 4.06155 5.58651 4.06155 6.00021C4.06155 6.41392 4.39693 6.7493 4.81064 6.7493Z" fill="#2E9AD0"/>
<path d="M13.8763 6.7493C14.29 6.7493 14.6254 6.41392 14.6254 6.00021C14.6254 5.58651 14.29 5.25113 13.8763 5.25113C13.4625 5.25113 13.1272 5.58651 13.1272 6.00021C13.1272 6.41392 13.4625 6.7493 13.8763 6.7493Z" fill="#2E9AD0"/>
<path d="M9.37467 15.4981C9.78838 15.4981 10.1238 15.1628 10.1238 14.7491C10.1238 14.3354 9.78838 14 9.37467 14C8.96096 14 8.62558 14.3354 8.62558 14.7491C8.62558 15.1628 8.96096 15.4981 9.37467 15.4981Z" fill="#2E9AD0"/>
<path d="M4.81064 14.8724C5.22436 14.8724 5.55974 14.537 5.55974 14.1233C5.55974 13.7096 5.22436 13.3743 4.81064 13.3743C4.39693 13.3743 4.06155 13.7096 4.06155 14.1233C4.06155 14.537 4.39693 14.8724 4.81064 14.8724Z" fill="#2E9AD0"/>
<path d="M13.8763 14.8724C14.29 14.8724 14.6254 14.537 14.6254 14.1233C14.6254 13.7096 14.29 13.3743 13.8763 13.3743C13.4625 13.3743 13.1272 13.7096 13.1272 14.1233C13.1272 14.537 13.4625 14.8724 13.8763 14.8724Z" fill="#2E9AD0"/>
<path d="M19 18.5014C19.5523 18.5014 20 18.0537 20 17.5014C20 16.9491 19.5523 16.5014 19 16.5014C18.4478 16.5014 18 16.9491 18 17.5014C18 18.0537 18.4478 18.5014 19 18.5014Z" fill="#2E9AD0"/>
</svg>
