<svg width="51" height="50" viewBox="0 0 51 50" fill="none" xmlns="http://www.w3.org/2000/svg">
<ellipse cx="25.6816" cy="24.9999" rx="25" ry="24.9999" fill="white"/>
<path d="M28.7949 38.1337H20.2713L13.3938 33.094L10.7725 24.9537L13.3882 16.8135L20.2657 11.7737H28.7949L35.6724 16.8135L38.288 24.9537L35.6724 33.094L35.5765 33.1898L28.7949 38.1337ZM20.463 37.5474H28.6033L35.1933 32.705L37.713 24.9537L35.1933 17.2025L28.6033 12.36H20.463L13.8786 17.2025L11.3587 24.9537L13.8786 32.705L20.463 37.5474Z" fill="#2E9AD0"/>
<path d="M39.2635 36.7752L35.2891 33.19L31.4107 31.7355L24.5332 32.6092L17.5599 31.7355L13.6814 33.19L13.4897 32.6092L17.4584 31.059H17.5599L24.5332 32.0287L31.5122 31.059L31.608 31.1548L35.6781 32.7051L39.6467 36.3863L39.2635 36.7752Z" fill="#2E9AD0"/>
<path d="M28.6033 38.4211L24.5332 32.8008L20.2714 38.4211L17.1709 31.5437L17.7515 31.2506L20.4631 37.2598L24.5332 31.7353L28.5075 37.2598L31.219 31.2506L34.9003 23.8882L35.774 32.8966H35.1933L34.5111 26.0191L31.7997 31.5437L28.6033 38.4211Z" fill="#2E9AD0"/>
<path d="M11.1621 24.6594H38.0971V25.24H11.1621V24.6594Z" fill="#2E9AD0"/>
<path d="M34.8998 26.0184L31.5117 19.3325L28.603 25.6294L24.5328 18.3629L20.3668 25.6294L17.4579 19.3325L14.0699 26.0184L13.292 17.1058L13.8783 17.0099L14.4589 23.9833L17.4579 18.0754L20.3668 24.3723L24.5328 17.2016L28.507 24.3723L31.5117 18.0754L34.5108 23.8875L34.9956 17.0099H35.5819L34.8998 26.0184Z" fill="#2E9AD0"/>
<path d="M31.2185 18.848L28.507 12.7428L24.5328 18.3632L20.4626 12.7428L17.7511 18.848L17.2663 18.5605L20.2709 11.5815L24.5328 17.2977L28.603 11.5815L31.7993 18.5605L31.2185 18.848ZM35.1929 32.8961L34.5108 26.0186L31.5117 32.028L28.507 25.6296L24.5328 32.8961L20.3668 25.6296L17.4579 32.028L14.4589 26.0186L13.8783 32.8961H13.292L14.0699 23.8877L17.4579 30.6693L20.3668 24.3725L24.5328 31.639L28.603 24.3725L31.5117 30.7651L34.8998 23.8877L35.7735 32.8961H35.1929Z" fill="#2E9AD0"/>
<path d="M31.5122 19.0455L24.4374 18.0759L17.4584 19.0455L13.4897 17.2979L13.6814 16.7173L17.5599 18.3634L24.4374 17.4952L31.5122 18.3634L35.2893 16.7173L35.5824 17.2979L31.5122 19.0455Z" fill="#2E9AD0"/>
<path d="M20.3678 39C21.0092 39 21.5291 38.48 21.5291 37.8387C21.5291 37.1972 21.0092 36.6772 20.3678 36.6772C19.7265 36.6772 19.2065 37.1972 19.2065 37.8387C19.2065 38.48 19.7265 39 20.3678 39Z" fill="#2E9AD0"/>
<path d="M28.507 39C29.1483 39 29.6683 38.48 29.6683 37.8387C29.6683 37.1972 29.1483 36.6772 28.507 36.6772C27.8657 36.6772 27.3457 37.1972 27.3457 37.8387C27.3457 38.48 27.8657 39 28.507 39Z" fill="#2E9AD0"/>
<path d="M20.3678 13.3226C21.0092 13.3226 21.5291 12.8026 21.5291 12.1613C21.5291 11.5199 21.0092 11 20.3678 11C19.7265 11 19.2065 11.5199 19.2065 12.1613C19.2065 12.8026 19.7265 13.3226 20.3678 13.3226Z" fill="#2E9AD0"/>
<path d="M28.507 13.3226C29.1483 13.3226 29.6683 12.8026 29.6683 12.1613C29.6683 11.5199 29.1483 11 28.507 11C27.8657 11 27.3457 11.5199 27.3457 12.1613C27.3457 12.8026 27.8657 13.3226 28.507 13.3226Z" fill="#2E9AD0"/>
<path d="M35.2889 18.1706C35.9302 18.1706 36.4502 17.6507 36.4502 17.0093C36.4502 16.368 35.9302 15.8481 35.2889 15.8481C34.6474 15.8481 34.1274 16.368 34.1274 17.0093C34.1274 17.6507 34.6474 18.1706 35.2889 18.1706Z" fill="#2E9AD0"/>
<path d="M13.5861 18.1706C14.2275 18.1706 14.7474 17.6507 14.7474 17.0093C14.7474 16.368 14.2275 15.8481 13.5861 15.8481C12.9447 15.8481 12.4248 16.368 12.4248 17.0093C12.4248 17.6507 12.9447 18.1706 13.5861 18.1706Z" fill="#2E9AD0"/>
<path d="M13.5861 34.1579C14.2275 34.1579 14.7474 33.638 14.7474 32.9966C14.7474 32.3553 14.2275 31.8353 13.5861 31.8353C12.9447 31.8353 12.4248 32.3553 12.4248 32.9966C12.4248 33.638 12.9447 34.1579 13.5861 34.1579Z" fill="#2E9AD0"/>
<path d="M11.1613 26.1141C11.8027 26.1141 12.3226 25.5942 12.3226 24.9528C12.3226 24.3115 11.8027 23.7916 11.1613 23.7916C10.5199 23.7916 10 24.3115 10 24.9528C10 25.5942 10.5199 26.1141 11.1613 26.1141Z" fill="#2E9AD0"/>
<path d="M38.0002 26.1141C38.6415 26.1141 39.1615 25.5942 39.1615 24.9528C39.1615 24.3115 38.6415 23.7916 38.0002 23.7916C37.3588 23.7916 36.8389 24.3115 36.8389 24.9528C36.8389 25.5942 37.3588 26.1141 38.0002 26.1141Z" fill="#2E9AD0"/>
<path d="M34.7088 26.1141C35.3502 26.1141 35.8701 25.5942 35.8701 24.9528C35.8701 24.3115 35.3502 23.7916 34.7088 23.7916C34.0673 23.7916 33.5474 24.3115 33.5474 24.9528C33.5474 25.5942 34.0673 26.1141 34.7088 26.1141Z" fill="#2E9AD0"/>
<path d="M14.2614 26.1141C14.9027 26.1141 15.4227 25.5942 15.4227 24.9528C15.4227 24.3115 14.9027 23.7916 14.2614 23.7916C13.62 23.7916 13.1001 24.3115 13.1001 24.9528C13.1001 25.5942 13.62 26.1141 14.2614 26.1141Z" fill="#2E9AD0"/>
<path d="M20.3678 26.1141C21.0092 26.1141 21.5291 25.5942 21.5291 24.9528C21.5291 24.3115 21.0092 23.7916 20.3678 23.7916C19.7265 23.7916 19.2065 24.3115 19.2065 24.9528C19.2065 25.5942 19.7265 26.1141 20.3678 26.1141Z" fill="#2E9AD0"/>
<path d="M28.507 26.1141C29.1483 26.1141 29.6683 25.5942 29.6683 24.9528C29.6683 24.3115 29.1483 23.7916 28.507 23.7916C27.8657 23.7916 27.3457 24.3115 27.3457 24.9528C27.3457 25.5942 27.8657 26.1141 28.507 26.1141Z" fill="#2E9AD0"/>
<path d="M25.6792 17.9686C25.782 17.3355 25.3521 16.7391 24.7191 16.6363C24.086 16.5335 23.4895 16.9635 23.3868 17.5965C23.284 18.2296 23.7139 18.8261 24.347 18.9288C24.98 19.0316 25.5766 18.6017 25.6792 17.9686Z" fill="#2E9AD0"/>
<path d="M17.4572 19.9131C18.0986 19.9131 18.6185 19.3932 18.6185 18.7518C18.6185 18.1105 18.0986 17.5905 17.4572 17.5905C16.8158 17.5905 16.2959 18.1105 16.2959 18.7518C16.2959 19.3932 16.8158 19.9131 17.4572 19.9131Z" fill="#2E9AD0"/>
<path d="M31.5119 19.9131C32.1532 19.9131 32.6732 19.3932 32.6732 18.7518C32.6732 18.1105 32.1532 17.5905 31.5119 17.5905C30.8704 17.5905 30.3506 18.1105 30.3506 18.7518C30.3506 19.3932 30.8704 19.9131 31.5119 19.9131Z" fill="#2E9AD0"/>
<path d="M24.5329 33.4759C25.1742 33.4759 25.6942 32.9561 25.6942 32.3148C25.6942 31.6735 25.1742 31.1535 24.5329 31.1535C23.8915 31.1535 23.3716 31.6735 23.3716 32.3148C23.3716 32.9561 23.8915 33.4759 24.5329 33.4759Z" fill="#2E9AD0"/>
<path d="M17.4572 32.506C18.0986 32.506 18.6185 31.986 18.6185 31.3447C18.6185 30.7033 18.0986 30.1835 17.4572 30.1835C16.8158 30.1835 16.2959 30.7033 16.2959 31.3447C16.2959 31.986 16.8158 32.506 17.4572 32.506Z" fill="#2E9AD0"/>
<path d="M31.5119 32.506C32.1532 32.506 32.6732 31.986 32.6732 31.3447C32.6732 30.7033 32.1532 30.1835 31.5119 30.1835C30.8704 30.1835 30.3506 30.7033 30.3506 31.3447C30.3506 31.986 30.8704 32.506 31.5119 32.506Z" fill="#2E9AD0"/>
<path d="M39.455 38.1318C40.3112 38.1318 41.0053 37.4378 41.0053 36.5816C41.0053 35.7254 40.3112 35.0313 39.455 35.0313C38.599 35.0313 37.9048 35.7254 37.9048 36.5816C37.9048 37.4378 38.599 38.1318 39.455 38.1318Z" fill="#2E9AD0"/>
</svg>
