<svg width="52" height="50" viewBox="0 0 52 50" fill="none" xmlns="http://www.w3.org/2000/svg">
<ellipse cx="26.0908" cy="24.9999" rx="25.4089" ry="24.9999" fill="white"/>
<mask id="mask0_201_130" style="mask-type:luminance" maskUnits="userSpaceOnUse" x="16" y="8" width="20" height="34">
<path d="M36 8H16V41.0053H36V8Z" fill="white"/>
</mask>
<g mask="url(#mask0_201_130)">
<path d="M24.6702 34.7797L16 41.0047L21.5041 15.6759L24.6702 34.7797ZM24.8456 34.7211L30.1257 34.7894L21.7087 15.7734L24.8456 34.7211ZM30.6224 34.3024L34.6653 19.3194L33.136 17.449L30.6224 34.3024ZM28.6741 10.8148L22.0205 15.296L31.7427 12.1494L28.6741 10.8148ZM27.8363 10.8148L23.7058 10.9512L23.1018 12.6755L27.8363 10.8148Z" fill="#384182"/>
<path d="M32.8434 16.8752L22.1956 15.4139L31.7913 12.3939L32.8434 16.8752ZM30.3203 11.2444L30.9047 9.65647L27.836 8.32184L30.3203 11.2444ZM31.2067 9.5006L31.8984 11.9945L35.99 10.9132L31.2067 9.5006Z" fill="#F79534"/>
<path d="M30.3598 34.6927L21.8259 15.5986L32.9511 17.1573L30.3598 34.6927ZM28.3529 10.8154L23.0924 12.8709L21.8259 15.209L28.3529 10.8154ZM25.0895 9.2567L23.7743 10.7082L28.1386 10.6011L25.0895 9.2567ZM27.3885 8.12664L25.3038 9.09109L30.0578 11.1856L27.3885 8.12664ZM29.7655 8H27.5249L30.9931 9.34437L29.7655 8ZM31.0612 9.78276L30.5255 11.3804L31.5971 11.8967L31.0612 9.78276Z" fill="#F0513A"/>
</g>
</svg>
