<svg width="20" height="20" viewBox="0 0 20 20" fill="none" xmlns="http://www.w3.org/2000/svg">
<circle cx="10" cy="10" r="10" fill="white"/>
<g clip-path="url(#clip0)">
<path d="M9.20307 14.982L5 17.9997L7.66824 5.72105L9.20307 14.982ZM9.28808 14.9536L11.8477 14.9867L7.76741 5.76828L9.28808 14.9536ZM12.0885 14.7506L14.0484 7.48729L13.307 6.58056L12.0885 14.7506ZM11.144 3.3645L7.91854 5.53688L12.6316 4.01149L11.144 3.3645ZM10.7379 3.3645L8.73554 3.43062L8.44274 4.26651L10.7379 3.3645Z" fill="#384182"/>
<path d="M13.1652 6.30241L8.00346 5.59403L12.6552 4.13004L13.1652 6.30241ZM11.9421 3.57277L12.2254 2.803L10.7378 2.15601L11.9421 3.57277ZM12.3718 2.72744L12.7071 3.93641L14.6906 3.41221L12.3718 2.72744Z" fill="#F79534"/>
<path d="M11.9612 14.9398L7.82423 5.68359L13.2174 6.4392L11.9612 14.9398ZM10.9883 3.36482L8.43817 4.36127L7.82423 5.49469L10.9883 3.36482ZM9.40629 2.60921L8.76874 3.31287L10.8844 3.26092L9.40629 2.60921ZM10.5208 2.06139L9.51018 2.52893L11.8148 3.54427L10.5208 2.06139ZM11.6731 2H10.5869L12.2682 2.65171L11.6731 2ZM12.3012 2.86423L12.0415 3.63872L12.561 3.88902L12.3012 2.86423Z" fill="#F0513A"/>
</g>
<defs>
<clipPath id="clip0">
<rect width="9.6954" height="16" fill="white" transform="translate(5 2)"/>
</clipPath>
</defs>
</svg>
