<svg width="51" height="50" viewBox="0 0 51 50" fill="none" xmlns="http://www.w3.org/2000/svg">
<ellipse cx="25.6819" cy="24.9999" rx="25" ry="24.9999" fill="black"/>
<path d="M15.2044 38.1562C13.8319 38.1562 12.5059 38.1562 11 38.1562C12.0315 37.0835 12.9623 36.116 13.8924 35.148C16.0078 32.946 18.0944 30.7154 20.245 28.5482C23.2989 25.4712 28.1122 25.3303 31.4063 28.171C31.6781 28.4052 31.9349 28.6585 32.1833 28.9176C35.0941 31.9531 38.0019 34.9912 41 38.1222C39.5454 38.1222 38.2058 38.1222 37.2336 38.1222C35.5767 36.5932 34.0658 35.2428 32.6072 33.838C31.5918 32.8596 30.6794 31.7745 29.6661 30.7936C27.5275 28.7235 24.2297 28.8216 22.1341 30.9898C19.9764 33.2223 17.8299 35.4658 15.6769 37.7027C15.5182 37.8677 15.3466 38.0203 15.2044 38.1562ZM11.611 12.5049C14.3956 15.4161 17.1814 18.326 19.9667 21.2363C23.3656 24.7877 28.7408 24.7374 32.1579 21.1424C34.7387 18.4276 37.3446 15.737 39.9367 13.033C40.2249 12.7323 40.4953 12.4145 40.8681 12C39.3133 12 37.9364 12 37.0709 12C35.6065 13.3279 34.396 14.3658 33.256 15.4761C32.1173 16.5852 31.0596 17.7772 29.948 18.9145C27.5932 21.3232 24.2892 21.2707 21.9836 18.8359C19.8146 16.5455 17.6134 14.2855 15.4181 12.0035C14.0534 12.0035 12.6956 12.0035 11.1728 12.0035C11.3849 12.2469 11.4926 12.3811 11.611 12.5049Z" fill="white"/>
</svg>
