<svg width="50" height="50" viewBox="0 0 50 50" fill="none" xmlns="http://www.w3.org/2000/svg">
<ellipse cx="25" cy="24.9999" rx="25" ry="24.9999" fill="#FF9100"/>
<path d="M24.8389 18.2395C27.1095 18.2395 28.9502 16.395 28.9502 14.1197C28.9502 11.8445 27.1095 10 24.8389 10C22.5682 10 20.7275 11.8445 20.7275 14.1197C20.7275 16.395 22.5682 18.2395 24.8389 18.2395Z" fill="black"/>
<path d="M36.2631 26.8484C34.297 25.7145 31.7797 26.3851 30.6481 28.3552C30.2607 29.0272 30.0815 29.7729 30.0969 30.5048C30.1413 32.3261 28.5028 33.2666 26.9548 32.3261C26.8951 32.2969 26.8353 32.2509 26.7618 32.2217C25.1985 31.341 25.1985 29.4752 26.7618 28.6099C28.0435 27.9087 28.9209 26.5508 28.9209 24.9827V24.8937C28.8765 23.0724 30.5149 22.1318 32.0629 23.0724C33.2986 23.8334 34.908 23.8933 36.2478 23.1169C38.2139 21.983 38.8846 19.4605 37.7514 17.4904C36.6199 15.5203 34.1025 14.8483 32.1364 15.9837C30.7966 16.7601 30.0509 18.1931 30.0815 19.64C30.1259 21.4613 28.4875 22.4019 26.9532 21.4613C26.327 21.0731 25.5981 20.8491 24.808 20.8491C24.0179 20.8491 23.289 21.0731 22.6628 21.446C21.1132 22.3712 19.4901 21.4306 19.5345 19.6247C19.5636 18.1625 18.8194 16.7447 17.4796 15.9683C15.5135 14.8345 12.9961 15.5203 11.8646 17.4904C10.733 19.4605 11.4174 21.983 13.3835 23.1169C14.7234 23.8933 16.3327 23.8181 17.5684 23.0724C19.118 22.1318 20.7411 23.0724 20.6967 24.8937V24.9827C20.6967 26.5492 21.5603 27.9087 22.8557 28.6099C24.4191 29.4906 24.4191 31.3564 22.8557 32.2217C22.796 32.2509 22.7363 32.2969 22.6765 32.3261C21.1269 33.2513 19.5038 32.3107 19.5482 30.5048C19.5636 29.7729 19.3844 29.0272 18.997 28.3414C17.8654 26.3712 15.3481 25.6992 13.382 26.8346C11.419 27.9977 10.7483 30.5201 11.8814 32.4902C13.013 34.4603 15.5303 35.1324 17.4964 33.997C17.5255 33.9816 17.5408 33.9678 17.5714 33.9525C19.121 33.0119 20.7441 33.9525 20.6997 35.7738V35.8781C20.6997 38.1474 22.5464 39.9978 24.8111 39.9978C27.0757 39.9978 28.9224 38.1474 28.9224 35.8781V35.7891C28.878 33.9678 30.5164 33.0273 32.0645 33.9678C32.0936 33.9832 32.1242 33.997 32.1533 34.0277C34.1194 35.1615 36.6367 34.491 37.7683 32.5209C38.8999 30.5063 38.2307 27.9838 36.2646 26.85L36.2631 26.8484Z" fill="black"/>
</svg>
