<svg width="888" height="981" viewBox="0 0 888 981" fill="none" xmlns="http://www.w3.org/2000/svg">
<g clip-path="url(#clip0_64_1219)">
<path d="M444.248 269.63C518.938 269.63 579.486 209.271 579.486 134.815C579.486 60.3587 518.938 0 444.248 0C369.558 0 309.01 60.3587 309.01 134.815C309.01 209.271 369.558 269.63 444.248 269.63Z" fill="#FF931E"/>
<path d="M820.277 551.57C755.556 514.379 672.873 536.527 635.565 601.046C622.72 623.246 616.95 647.554 617.498 671.42C618.856 730.838 565.257 761.757 514.295 731.072C512.285 729.849 510.222 728.651 508.133 727.532C456.597 698.852 456.623 637.768 508.186 609.114C550.402 586.315 579.094 541.732 579.094 490.513C579.094 489.472 579.042 488.457 579.016 487.442L579.068 487.52C577.736 428.025 631.466 397.132 682.48 428.051C723.339 452.775 776.129 455.092 820.433 429.56C885.102 392.317 907.241 309.84 869.881 245.374C832.521 180.907 749.786 158.837 685.117 196.08C640.839 221.586 616.532 268.251 617.551 315.852C618.882 375.218 565.335 406.111 514.425 375.478C493.879 362.933 469.755 355.698 443.909 355.698C418.062 355.698 393.939 362.933 373.418 375.452C322.612 405.98 269.222 375.14 270.58 315.904C271.624 268.198 247.187 221.43 202.778 195.95C138.031 158.837 55.3482 181.063 18.1187 245.608C-19.1109 310.152 3.18509 392.577 67.9321 429.69C112.185 455.066 164.818 452.697 205.598 428.051C256.482 397.262 310.081 428.129 308.723 487.468L308.775 487.39C308.775 488.431 308.697 489.472 308.697 490.539C308.697 541.784 337.363 586.341 379.605 609.14C431.194 637.821 431.168 698.982 379.553 727.61C377.465 728.73 375.428 729.927 373.418 731.15C322.612 761.626 269.248 730.76 270.606 671.524C271.18 647.554 265.358 623.116 252.435 600.837C214.997 536.397 132.261 514.431 67.6188 551.726C2.84569 589.022 -19.1892 671.498 18.2231 735.939C55.6615 800.379 138.397 822.345 203.039 785.05C203.875 784.555 204.684 784.035 205.519 783.54L205.441 783.644C256.377 752.83 309.976 783.723 308.593 843.088L308.645 843.01C308.645 844.103 308.566 845.222 308.566 846.315C308.645 920.776 369.241 981.078 443.935 981C518.629 980.922 579.12 920.515 579.042 846.055C579.042 845.066 578.99 844.077 578.964 843.088L579.016 843.166C577.658 783.644 631.414 752.726 682.454 783.644L682.376 783.514C683.316 784.087 684.203 784.66 685.143 785.206C749.864 822.397 832.547 800.249 869.855 735.731C907.163 671.212 884.945 588.787 820.224 551.596L820.277 551.57Z" fill="#FF931E"/>
</g>
<defs>
<clipPath id="clip0_64_1219">
<rect width="888" height="981" fill="white"/>
</clipPath>
</defs>
</svg>
