<svg width="903" height="1000" viewBox="0 0 903 1000" fill="none" xmlns="http://www.w3.org/2000/svg">
<path d="M451.431 274.852C527.329 274.852 588.857 213.324 588.857 137.426C588.857 61.5277 527.329 0 451.431 0C375.532 0 314.005 61.5277 314.005 137.426C314.005 213.324 375.532 274.852 451.431 274.852Z" fill="#FF931E"/>
<path d="M833.544 562.252C767.776 524.341 683.755 546.918 645.843 612.686C632.791 635.316 626.927 660.096 627.484 684.424C628.864 744.992 574.398 776.51 522.611 745.231C520.568 743.984 518.472 742.763 516.35 741.623C463.979 712.386 464.006 650.12 516.403 620.911C559.302 597.67 588.459 552.224 588.459 500.013C588.459 498.952 588.406 497.917 588.379 496.882L588.432 496.962C587.079 436.314 641.678 404.823 693.518 436.341C735.038 461.544 788.682 463.905 833.703 437.879C899.418 399.915 921.916 315.841 883.951 250.126C845.987 184.41 761.913 161.913 696.198 199.878C651.202 225.877 626.503 273.446 627.538 321.969C628.891 382.484 574.477 413.976 522.744 382.75C501.864 369.962 477.35 362.587 451.086 362.587C424.821 362.587 400.307 369.962 379.454 382.723C327.827 413.843 273.573 382.405 274.952 322.022C276.013 273.393 251.181 225.718 206.053 199.745C140.259 161.913 56.2379 184.57 18.4059 250.364C-19.4261 316.159 3.23068 400.18 69.0254 438.012C113.994 463.879 167.479 461.465 208.919 436.341C260.626 404.955 315.092 436.42 313.713 496.909L313.766 496.829C313.766 497.89 313.686 498.952 313.686 500.039C313.686 552.277 342.816 597.697 385.742 620.937C438.165 650.173 438.139 712.519 385.689 741.702C383.567 742.843 381.497 744.063 379.454 745.31C327.827 776.377 273.599 744.912 274.979 684.53C275.562 660.096 269.646 635.184 256.514 612.474C218.47 546.785 134.396 524.394 68.707 562.412C2.88578 600.429 -19.5056 684.503 18.512 750.192C56.5562 815.88 140.63 838.272 206.319 800.254C207.168 799.75 207.99 799.22 208.839 798.715L208.76 798.822C260.52 767.41 314.986 798.901 313.58 859.416L313.633 859.337C313.633 860.451 313.554 861.592 313.554 862.706C313.633 938.609 375.21 1000.08 451.112 1000C527.015 999.92 588.485 938.343 588.406 862.441C588.406 861.433 588.353 860.425 588.326 859.416L588.379 859.496C587 798.822 641.625 767.304 693.491 798.822L693.412 798.689C694.367 799.273 695.269 799.856 696.224 800.413C761.992 838.325 846.013 815.748 883.925 749.98C921.836 684.211 899.259 600.191 833.491 562.279L833.544 562.252Z" fill="#FF931E"/>
</svg>
