<svg width="50" height="50" viewBox="0 0 50 50" fill="none" xmlns="http://www.w3.org/2000/svg">
<ellipse cx="25" cy="24.9999" rx="25" ry="24.9999" fill="white"/>
<path d="M38.3233 30.3507V12.6794C38.2904 11.1999 37.1233 10.0164 35.6438 10.0164H17.1999C13.2218 10.0821 10.0164 13.3369 10.0164 17.3314C10.0164 18.6794 10.378 19.8301 10.9369 20.8493C11.3972 21.6876 12.1369 22.4767 12.8602 23.0849C13.0575 23.2493 12.9588 23.1835 13.5835 23.578C14.4547 24.1041 15.441 24.3671 15.441 24.3671V34.937C15.4575 35.4301 15.5232 35.9233 15.6383 36.3671C16.0492 37.8466 17.0849 38.9973 18.4821 39.5562C19.0739 39.7863 19.7315 39.9507 20.4383 39.9507L35.1671 40C38.1096 40 40.4932 37.6164 40.4932 34.674C40.4932 32.8822 39.6384 31.3205 38.3233 30.3507Z" fill="#FFEEDA"/>
<path d="M38.6685 34.7562C38.6028 36.6466 37.0576 38.1589 35.1672 38.1589L25.0247 38.126C25.8301 37.189 26.3233 35.9726 26.3233 34.6575C26.3233 32.5698 25.074 31.1397 25.074 31.1397H35.1672C37.1069 31.1397 38.6685 32.7178 38.6685 34.6575V34.7562Z" fill="#EBC28E"/>
<path d="M13.7972 21.5563C12.6301 20.4548 11.8082 19.0247 11.8082 17.3151V17.1343C11.9068 14.2412 14.2904 11.9068 17.1836 11.8082H35.6275C36.1041 11.8246 36.4987 12.1697 36.4987 12.6629V28.263C36.9261 28.3452 37.1234 28.3946 37.5343 28.5426C37.8467 28.6576 38.307 28.9205 38.307 28.9205V12.6629C38.274 11.1834 37.107 10 35.6275 10H17.1836C13.2055 10.0658 10 13.3204 10 17.3151C10 19.6328 11.0521 21.6218 12.7945 23.0191L12.8128 23.0351C12.8746 23.0884 12.9393 23.1446 13.0371 23.1835C13.1127 23.2133 13.2081 23.2329 13.337 23.2329C13.8794 23.2329 14.2576 22.8056 14.2411 22.3288C14.2306 22.0781 14.1605 21.9268 14.0431 21.791C13.9759 21.713 13.893 21.6401 13.7972 21.5563Z" fill="#190602"/>
<path fill-rule="evenodd" clip-rule="evenodd" d="M35.1671 29.3151H20.7013C19.7316 29.3151 18.9426 30.1207 18.9426 31.0906V33.1618C18.9753 34.1153 19.7972 34.9536 20.7508 34.9536H21.8193V33.1618H20.7508V31.1233H21.3425C23.1671 31.1233 24.5151 32.8166 24.5151 34.6412C24.5151 36.2523 23.0522 38.3071 20.6028 38.1427C18.4165 37.9947 17.2493 36.0549 17.2493 34.6412V17.003C17.2493 16.2138 16.6083 15.5563 15.8027 15.5563H14.3562V17.3645H15.4247V34.6412C15.3754 38.1591 17.9233 39.9346 20.5864 39.9346L35.1671 39.9837C38.1097 39.9837 40.4932 37.6001 40.4932 34.6576C40.4932 31.7154 38.1097 29.3151 35.1671 29.3151ZM38.6686 34.7565C38.6028 36.6469 37.0575 38.1591 35.1671 38.1591L25.0248 38.1264C25.8301 37.1892 26.3233 35.9727 26.3233 34.6576C26.3233 32.5701 25.074 31.14 25.074 31.14H35.1671C37.107 31.14 38.6686 32.7181 38.6686 34.6576V34.7565Z" fill="#190602"/>
<path d="M20.3726 17.6769H31.3863C31.8136 17.6769 32.1753 17.3318 32.1753 16.8878V16.6742C32.1753 16.2466 31.8302 15.8851 31.3863 15.8851H20.3726V17.6769Z" fill="#190602"/>
<path d="M31.3863 26.1755H20.3726V24.3836H31.3863C31.8302 24.3836 32.1753 24.7451 32.1753 25.1728V25.3863C32.1753 25.8136 31.8136 26.1755 31.3863 26.1755Z" fill="#190602"/>
<path d="M20.3562 21.9342H33.2932C33.7371 21.9342 34.0986 21.5724 34.0823 21.145V20.9315C34.0823 20.5039 33.7371 20.1424 33.2932 20.1424H20.3562V21.9342Z" fill="#190602"/>
</svg>
