<svg width="21" height="20" viewBox="0 0 21 20" fill="none" xmlns="http://www.w3.org/2000/svg">
<path d="M10.3306 20C15.8534 20 20.3306 15.5228 20.3306 10C20.3306 4.47715 15.8534 0 10.3306 0C4.80772 0 0.330566 4.47715 0.330566 10C0.330566 15.5228 4.80772 20 10.3306 20Z" fill="#040404"/>
<g clip-path="url(#clip0)">
<path d="M16.2894 11.5822C15.9684 10.8758 15.4383 10.3404 14.81 9.89491C13.955 9.28888 12.9953 8.88422 12.0344 8.47955C11.1702 8.11568 10.3073 7.74598 9.4581 7.34908C8.97043 7.12118 8.53636 6.80198 8.18793 6.38177C7.52834 5.58539 7.59044 4.57923 8.34548 3.92594C8.76908 3.55948 9.25545 3.30632 9.81568 3.2474C11.0035 3.12244 12.1449 3.30114 13.2189 3.83595C14.0354 4.24255 14.7179 4.82268 15.3526 5.46302C15.5082 5.61971 15.6592 5.78028 15.8305 5.95768C16.0259 5.71618 16.209 5.48439 16.3999 5.25907C16.4679 5.17814 16.4607 5.12699 16.3848 5.05836C15.9802 4.69124 15.5919 4.306 15.1748 3.95378C14.3544 3.26035 13.434 2.73073 12.3828 2.47174C10.7283 2.06384 9.08025 2.10657 7.478 2.70547C5.90974 3.29143 4.87884 4.36169 4.63304 6.05804C4.42059 7.52584 4.8285 8.78451 5.97381 9.77772C6.52227 10.2536 7.13415 10.6363 7.79571 10.9276C8.79785 11.3692 9.81568 11.7758 10.8244 12.2025C11.4794 12.4796 12.1259 12.7748 12.6744 13.2404C13.5699 14.0005 13.4399 15.0526 12.8914 15.7234C12.3514 16.3844 11.614 16.7049 10.7792 16.7749C8.96324 16.9277 7.34987 16.4265 5.97773 15.2222C5.61231 14.9017 5.26976 14.5547 4.91153 14.2251C4.871 14.1882 4.77098 14.152 4.74418 14.1727C4.50688 14.3605 4.28004 14.5599 4.01855 14.7826C4.38006 15.1284 4.71084 15.4612 5.05992 15.7752C6.05095 16.6661 7.17925 17.3148 8.49648 17.5997C9.87974 17.8989 11.261 17.8568 12.6279 17.4935C13.6203 17.2294 14.5329 16.8079 15.3114 16.1229C16.7084 14.8933 16.9536 13.0442 16.2894 11.5822ZM14.6858 15.2708C14.474 15.4838 14.2184 15.6541 13.9818 15.8419C13.9504 15.8665 13.9086 15.8781 13.8877 15.8885C13.9981 15.577 14.1406 15.2779 14.2099 14.9633C14.461 13.8231 14.0923 12.9095 13.1326 12.2303C12.4541 11.7505 11.6925 11.4359 10.9263 11.1277C10.1216 10.8039 9.31036 10.4938 8.51544 10.1461C7.66496 9.77383 6.86809 9.30831 6.27844 8.57085C5.56262 7.67476 5.37501 6.66471 5.69663 5.57309C5.90517 4.86541 6.29805 4.27557 6.93934 3.87091C6.98183 3.84436 7.02629 3.8217 7.07008 3.7971C7.08185 3.80746 7.09296 3.81717 7.10473 3.82753C7.08381 3.87868 7.0642 3.92983 7.04197 3.98033C6.75107 4.64333 6.61706 5.32511 6.80075 6.04185C6.9753 6.72234 7.40871 7.22218 7.95652 7.63656C8.605 8.12733 9.33389 8.47502 10.0791 8.79228C10.9224 9.15162 11.7729 9.49478 12.611 9.86513C13.3215 10.1791 14.0021 10.5488 14.595 11.0603C16.0083 12.2776 15.8579 14.0937 14.6858 15.2708Z" fill="white"/>
</g>
<defs>
<clipPath id="clip0">
<rect width="12.6238" height="15.5942" fill="white" transform="translate(4.01855 2.20293)"/>
</clipPath>
</defs>
</svg>
