<svg width="51" height="50" viewBox="0 0 51 50" fill="none" xmlns="http://www.w3.org/2000/svg">
<ellipse cx="25.6819" cy="24.9999" rx="25" ry="24.9999" fill="black"/>
<mask id="mask0_61_56" style="mask-type:luminance" maskUnits="userSpaceOnUse" x="14" y="10" width="25" height="30">
<path d="M38.2856 10H14V40H38.2856V10Z" fill="white"/>
</mask>
<g mask="url(#mask0_61_56)">
<path d="M37.6066 28.0436C36.989 26.6847 35.9692 25.6547 34.7605 24.7976C33.1157 23.6318 31.2694 22.8533 29.4208 22.0748C27.7583 21.3748 26.0982 20.6635 24.4646 19.9C23.5264 19.4616 22.6913 18.8475 22.021 18.0391C20.7521 16.507 20.8716 14.5714 22.3241 13.3146C23.139 12.6096 24.0747 12.1226 25.1525 12.0092C27.4376 11.7688 29.6334 12.1126 31.6996 13.1415C33.2703 13.9237 34.5833 15.0397 35.8044 16.2716C36.1037 16.573 36.3942 16.8819 36.7237 17.2232C37.0996 16.7586 37.4519 16.3127 37.8191 15.8792C37.95 15.7236 37.9361 15.6252 37.7901 15.4931C37.0117 14.7869 36.2647 14.0457 35.4623 13.3681C33.884 12.0341 32.1134 11.0152 30.0911 10.517C26.9082 9.73229 23.7377 9.81449 20.6553 10.9666C17.6383 12.0939 15.655 14.1529 15.1822 17.4163C14.7734 20.24 15.5582 22.6615 17.7615 24.5722C18.8166 25.4877 19.9938 26.2239 21.2665 26.7843C23.1944 27.6339 25.1525 28.4161 27.093 29.237C28.3531 29.77 29.5969 30.3379 30.6521 31.2337C32.3748 32.6959 32.1247 34.72 31.0695 36.0104C30.0307 37.2821 28.6121 37.8986 27.0061 38.0333C23.5126 38.3273 20.4088 37.3631 17.7691 35.0462C17.0661 34.4297 16.4071 33.7621 15.7179 33.128C15.6399 33.057 15.4475 32.9874 15.396 33.0272C14.9394 33.3885 14.5031 33.7721 14 34.2005C14.6955 34.8658 15.3318 35.506 16.0034 36.1101C17.9099 37.824 20.0805 39.072 22.6146 39.6201C25.2757 40.1957 27.933 40.1147 30.5626 39.4157C32.4718 38.9077 34.2274 38.0968 35.7251 36.779C38.4126 34.4135 38.8843 30.8562 37.6066 28.0436ZM34.5216 35.1397C34.1141 35.5495 33.6224 35.8771 33.1672 36.2384C33.1068 36.2857 33.0264 36.3081 32.9862 36.3281C33.1986 35.7288 33.4727 35.1534 33.606 34.5482C34.0891 32.3547 33.3798 30.5971 31.5335 29.2904C30.2282 28.3674 28.7631 27.7622 27.2891 27.1693C25.741 26.5463 24.1803 25.9498 22.6511 25.2809C21.0149 24.5647 19.4819 23.6691 18.3476 22.2504C16.9705 20.5265 16.6095 18.5834 17.2283 16.4834C17.6295 15.1219 18.3853 13.9872 19.619 13.2087C19.7007 13.1576 19.7863 13.114 19.8705 13.0667C19.8932 13.0866 19.9145 13.1053 19.9372 13.1253C19.8969 13.2237 19.8592 13.3221 19.8164 13.4192C19.2568 14.6947 18.999 16.0063 19.3524 17.3852C19.6882 18.6943 20.522 19.6559 21.5758 20.453C22.8234 21.3972 24.2256 22.0661 25.6592 22.6764C27.2816 23.3677 28.9178 24.0279 30.5301 24.7403C31.8969 25.3444 33.2063 26.0556 34.3469 27.0396C37.0658 29.3814 36.7764 32.8752 34.5216 35.1397Z" fill="white"/>
</g>
</svg>
