<svg width="51" height="50" viewBox="0 0 51 50" fill="none" xmlns="http://www.w3.org/2000/svg">
<ellipse cx="25.6819" cy="24.9999" rx="25" ry="24.9999" fill="#03C75F"/>
<path d="M33.4684 25.0031V33.4013H25.1538C23.5107 33.4013 21.9045 32.9087 20.5383 31.986C19.1721 31.063 18.1073 29.7516 17.4785 28.2169C16.8497 26.6823 16.6852 24.9938 17.0058 23.3647C17.3263 21.7356 18.1176 20.2392 19.2794 19.0647C20.4413 17.8902 21.9216 17.0903 23.5331 16.7663C25.1446 16.4422 26.815 16.6086 28.3331 17.2442C29.851 17.8798 31.1485 18.9562 32.0613 20.3373C32.9743 21.7184 33.4616 23.3421 33.4616 25.0031H33.4684ZM25.2635 11.0062C23.4452 10.9516 21.6341 11.2595 19.9335 11.9125C18.2329 12.5655 16.6763 13.5507 15.3524 14.8118C14.0284 16.0729 12.9632 17.5853 12.2175 19.2626C11.4717 20.9399 11.0601 22.7492 11.0061 24.5873C10.9521 26.4255 11.2568 28.2564 11.9027 29.9753C12.5486 31.6945 13.5232 33.2681 14.7707 34.6065C16.0183 35.9447 17.5144 37.0217 19.1736 37.7754C20.8328 38.5293 22.6226 38.9455 24.4409 39H39V25.1694C39 17.4503 32.8993 11.0616 25.2635 11.0062Z" fill="white"/>
</svg>
