<svg width="20" height="20" viewBox="0 0 20 20" fill="none" xmlns="http://www.w3.org/2000/svg">
<circle cx="10" cy="10" r="10" fill="#03C75F"/>
<path d="M12.923 9.50121V12.8005H9.62099C8.96845 12.8005 8.33057 12.607 7.78801 12.2445C7.24545 11.8819 6.82257 11.3667 6.57286 10.7638C6.32314 10.1609 6.25781 9.49755 6.38511 8.85756C6.51241 8.21756 6.82664 7.62969 7.28805 7.16827C7.74946 6.70686 8.33734 6.39264 8.97733 6.26533C9.61733 6.13803 10.2807 6.20337 10.8836 6.45308C11.4864 6.7028 12.0017 7.12567 12.3642 7.66824C12.7268 8.2108 12.9203 8.84868 12.9203 9.50121H12.923ZM9.66454 4.00243C8.94243 3.98098 8.22317 4.10197 7.54782 4.35849C6.87246 4.61502 6.25425 5.00205 5.72848 5.49749C5.2027 5.99293 4.77966 6.58708 4.4835 7.24602C4.18734 7.90496 4.02387 8.61577 4.00243 9.33788C3.98098 10.06 4.10197 10.7793 4.35849 11.4546C4.61502 12.13 5.00205 12.7482 5.49749 13.274C5.99293 13.7997 6.58709 14.2228 7.24602 14.5189C7.90496 14.8151 8.61577 14.9786 9.33788 15H15.1198V9.56655C15.1198 6.53405 12.697 4.0242 9.66454 4.00243Z" fill="white"/>
</svg>
