<svg xmlns="http://www.w3.org/2000/svg" fill="none" viewBox="0 0 107 96">
  <path fill="url(#a)" fill-rule="evenodd" d="M18.32 73.2c.3409-.3692.7528-.6658 1.211-.872.4582-.2061.9533-.3177 1.4557-.328h83.7863c.355.005.7.1123.995.309.295.1967.527.4745.668.7998.141.3254.185.6845.126 1.0342-.058.3497-.216.6751-.455.937L88.3467 94.8c-.3409.3692-.7527.6658-1.211.872-.4582.2062-.9533.3177-1.4557.328H1.84002c-.3545-.005-.70002-.1123-.99499-.309-.29496-.1967-.52681-.4745-.66766-.7998-.1408496-.3254-.18469972-.6845-.1262797-1.0342.0584197-.3497.2166297-.6751.4555997-.937L18.32 73.2Zm87.867-16.3467c.239.2619.397.5873.455.937.059.3497.015.7088-.126 1.0342-.141.3254-.373.6031-.668.7998-.295.1967-.64.304-.995.309L21.04 60c-.5023-.0103-.9975-.1218-1.4557-.328-.4582-.2062-.8701-.5028-1.2109-.872L.48002 39.1467c-.23896-.2619-.3971697-.5873-.4555997-.937-.05842-.3497-.01456992-.7088.1262797-1.0342.14085-.3254.3727-.6031.66767-.7998.29496-.1967.64048-.304.99499-.309L85.6267 36c.5024.0103.9975.1218 1.4557.328.4582.2062.8701.5028 1.211.872l17.8936 19.6533ZM18.32 1.2c.3409-.369182.7528-.665756 1.211-.871954C19.9892.121849 20.4843.0102714 20.9867 0l83.8403.0666667c.354.0049928.7.1123003.995.3090143.295.196713.527.474457.667.799819.141.32537.185.6845.127 1.03419-.059.3497-.217.67507-.456.93698L88.3467 22.8c-.3409.3692-.7527.6658-1.211.872-.4582.2062-.9533.3177-1.4557.328H1.84002c-.3545-.005-.70002-.1123-.99499-.309-.29496-.1967-.52681-.4745-.66766-.7998-.1408496-.3254-.18469972-.6845-.1262797-1.0342.0584197-.3497.2166297-.6751.4555997-.937L18.32 1.2Z" clip-rule="evenodd"/>
  <defs>
    <linearGradient id="a" x1="3.24002" x2="103.427" y1="98.0933" y2="-2.09332" gradientUnits="userSpaceOnUse">
      <stop stop-color="#9945FF"/>
      <stop offset=".14" stop-color="#8A53F4"/>
      <stop offset=".42" stop-color="#6377D6"/>
      <stop offset=".79" stop-color="#24B0A7"/>
      <stop offset=".99" stop-color="#00D18C"/>
      <stop offset="1" stop-color="#00D18C"/>
    </linearGradient>
  </defs>
</svg>
