<svg width="40" height="40" viewBox="0 0 40 40" fill="none" xmlns="http://www.w3.org/2000/svg">
<path d="M20 40C31.0457 40 40 31.0457 40 20C40 8.9543 31.0457 0 20 0C8.9543 0 0 8.9543 0 20C0 31.0457 8.9543 40 20 40Z" fill="url(#paint0_linear_3417_12956)"/>
<path fill-rule="evenodd" clip-rule="evenodd" d="M12.4386 25.5253C12.5134 25.4443 12.6037 25.3793 12.7042 25.3341C12.8047 25.2889 12.9132 25.2644 13.0234 25.2621H31.3976C31.4754 25.2632 31.5511 25.2868 31.6158 25.3299C31.6805 25.373 31.7314 25.434 31.7623 25.5053C31.7932 25.5766 31.8029 25.6554 31.7899 25.7321C31.7772 25.8088 31.7426 25.8801 31.6901 25.9376L27.7953 30.2621C27.7206 30.3431 27.6303 30.4081 27.5298 30.4534C27.4293 30.4986 27.3207 30.523 27.2105 30.5253H8.82457C8.74683 30.5242 8.67106 30.5007 8.60637 30.4575C8.54169 30.4144 8.49084 30.3535 8.45996 30.2821C8.42907 30.2108 8.41945 30.132 8.43226 30.0553C8.44507 29.9786 8.47977 29.9073 8.53218 29.8498L12.4386 25.5253ZM31.7077 21.9405C31.7601 21.9979 31.7947 22.0693 31.8075 22.146C31.8204 22.2227 31.8108 22.3014 31.7798 22.3728C31.7489 22.4441 31.698 22.505 31.6333 22.5482C31.5686 22.5913 31.493 22.6148 31.4151 22.6159L13.0351 22.6306C12.9249 22.6283 12.8163 22.6038 12.7159 22.5586C12.6154 22.5134 12.5251 22.4484 12.4503 22.3674L8.52633 18.0575C8.47392 18 8.43923 17.9287 8.42641 17.852C8.4136 17.7753 8.42322 17.6965 8.45411 17.6252C8.485 17.5538 8.53584 17.4929 8.60053 17.4498C8.66521 17.4066 8.74098 17.3831 8.81873 17.382L27.1988 17.3674C27.309 17.3697 27.4176 17.3941 27.5181 17.4393C27.6186 17.4845 27.7089 17.5496 27.7836 17.6306L31.7077 21.9405ZM12.4386 9.73581C12.5134 9.65485 12.6037 9.58982 12.7042 9.5446C12.8047 9.49938 12.9132 9.47491 13.0234 9.47266L31.4094 9.48728C31.4871 9.48837 31.5629 9.5119 31.6276 9.55504C31.6923 9.59818 31.7432 9.65909 31.7739 9.73044C31.8048 9.80179 31.8145 9.88055 31.8018 9.95724C31.7888 10.0339 31.7542 10.1053 31.7018 10.1627L27.7953 14.4727C27.7206 14.5536 27.6303 14.6187 27.5298 14.6639C27.4293 14.7091 27.3207 14.7336 27.2105 14.7358H8.82457C8.74683 14.7347 8.67106 14.7112 8.60637 14.6681C8.54169 14.6249 8.49084 14.564 8.45996 14.4927C8.42907 14.4213 8.41945 14.3425 8.43226 14.2659C8.44507 14.1892 8.47977 14.1178 8.53218 14.0604L12.4386 9.73581Z" fill="white"/>
<defs>
<linearGradient id="paint0_linear_3417_12956" x1="1.21526" y1="40.8722" x2="42.7291" y2="3.51041" gradientUnits="userSpaceOnUse">
<stop stop-color="#9945FF"/>
<stop offset="0.14" stop-color="#8A53F4"/>
<stop offset="0.42" stop-color="#6377D6"/>
<stop offset="0.79" stop-color="#24B0A7"/>
<stop offset="0.99" stop-color="#00D18C"/>
<stop offset="1" stop-color="#00D18C"/>
</linearGradient>
</defs>
</svg>
