<svg width="51" height="50" viewBox="0 0 51 50" fill="none" xmlns="http://www.w3.org/2000/svg">
<ellipse cx="25.6819" cy="24.9999" rx="25" ry="24.9999" fill="white"/>
<path fill-rule="evenodd" clip-rule="evenodd" d="M23.9452 10.239C22.6678 10.7224 21.5437 11.5763 20.62 12.7641C19.6857 13.9657 18.3679 16.5839 18.1564 17.658L18.0233 18.3348L19.392 17.4229C20.1447 16.9217 21.3483 16.227 22.0664 15.8793C22.7848 15.5318 23.3724 15.1843 23.3724 15.1077C23.3724 15.0307 22.9194 14.8789 22.3659 14.7703C21.5556 14.6111 21.3462 14.478 21.2915 14.0879C21.2519 13.8031 21.3392 13.5933 21.5034 13.5793C22.1184 13.5269 22.9007 13.6463 24.0721 13.9713C25.2369 14.2945 25.4096 14.2884 27.3566 13.8537C28.4868 13.6012 29.7318 13.369 30.1231 13.3374L30.8344 13.2801L29.9863 12.3034C28.3468 10.415 25.7887 9.54084 23.9452 10.239ZM28.2462 14.8869C22.8263 16.0652 17.4675 19.4996 14.3339 23.8028L13.4166 25.0627L14.0595 25.9569C14.4131 26.4489 15.0082 27.2152 15.382 27.6598L16.0618 28.4683V26.0442C16.0618 23.7657 16.0872 23.6201 16.4845 23.6201C16.8746 23.6201 16.9267 23.8525 17.1607 26.6359L17.4143 29.6518L18.2145 30.3375C21.1413 32.8452 26.2769 35.0418 30.1806 35.4555L31.5853 35.6044L32.2466 33.9894C33.1935 31.6773 33.1383 31.5795 31.5138 32.6869C29.9352 33.763 29.1334 34.0506 28.8787 33.6318C28.6096 33.189 28.8166 32.9215 29.9158 32.2935C30.4813 31.9704 31.5216 31.2739 32.2272 30.7456C33.6713 29.6649 33.6332 29.7838 33.9321 25.4511C34.0604 23.5962 34.1132 23.4047 34.4973 23.4047C34.9025 23.4047 34.9199 23.5378 34.8899 26.4205C34.8567 29.6347 34.525 31.4143 33.4607 34.0935L32.9356 35.415L33.8947 35.2815C36.6889 34.8921 38.6856 32.9916 38.983 30.4378C39.098 29.4514 38.6044 26.8474 38.2304 26.4673C38.137 26.3722 37.8309 26.6374 37.5504 27.0562C37.0256 27.8397 36.3739 28.0557 36.1695 27.514C36.1056 27.3453 36.392 26.6965 36.8056 26.0719L37.5577 24.9369L36.9956 24.1707C34.9258 21.3494 32.6514 19.3223 29.6059 17.5845C27.842 16.5781 27.5931 16.292 28.0644 15.8129C28.3316 15.5413 30.1467 16.37 31.7807 17.5093C33.1659 18.4753 33.1985 18.3755 32.2526 16.0654C31.6038 14.481 31.5892 14.4651 30.8223 14.4799C30.3962 14.4883 29.2369 14.6714 28.2462 14.8869ZM33.0215 14.8171C33.1188 15.0381 33.5467 16.2649 33.972 17.5432C34.4628 19.0181 34.9064 19.9825 35.1868 20.182C35.4297 20.355 36.2014 21.2205 36.9018 22.1057L38.1753 23.7151L38.5554 22.7033C39.095 21.2673 39.0574 18.9289 38.4771 17.8038C37.7102 16.3172 36.1211 15.1482 34.3913 14.7981C33.9835 14.7156 33.4682 14.5956 33.2469 14.5316C32.917 14.4362 32.8761 14.4881 33.0215 14.8171ZM15.7873 15.0883C12.7611 16.1509 11.417 18.7753 12.2358 22.0238C12.4266 22.7812 12.6601 23.4794 12.7544 23.5753C12.8489 23.6713 13.0996 23.4783 13.3115 23.1464C13.5236 22.8146 14.286 21.9129 15.0058 21.1428C16.1849 19.8817 16.3728 19.55 16.8996 17.8038C17.2213 16.7375 17.6199 15.5984 17.7852 15.2727C18.0782 14.6949 18.0712 14.6805 17.4976 14.6874C17.174 14.6913 16.4044 14.8716 15.7873 15.0883ZM26.1347 19.545C26.3636 20.0881 26.551 20.5728 26.551 20.6221C26.551 20.6714 26.0742 20.7119 25.4914 20.7119C24.9087 20.7119 24.4319 20.6757 24.4319 20.6316C24.4319 20.3102 25.342 18.5578 25.5088 18.5578C25.624 18.5578 25.9057 19.002 26.1347 19.545ZM23.1461 21.0695C23.2527 21.1624 21.869 22.6507 21.6761 22.6507C21.5058 22.6507 20.8465 20.5512 20.9756 20.4198C21.0669 20.327 22.9361 20.8864 23.1461 21.0695ZM29.7754 21.574C29.5892 22.1662 29.3782 22.6507 29.3068 22.6507C29.1129 22.6507 27.7306 21.1624 27.8367 21.0678C28.0324 20.8938 29.843 20.3436 29.9746 20.4183C30.0514 20.4618 29.9618 20.9819 29.7754 21.574ZM27.1356 22.2188C30.0072 23.9988 28.5946 28.4812 25.2537 28.1899C21.2144 27.838 21.4392 21.7905 25.4914 21.7905C26.0699 21.7905 26.7167 21.959 27.1356 22.2188ZM21.2534 25.0203C21.2534 25.6126 21.2082 26.0974 21.1531 26.0974C20.8717 26.0974 19.1343 25.1244 19.1343 24.9669C19.1343 24.7956 20.7452 23.9583 21.0944 23.9479C21.182 23.9454 21.2534 24.4279 21.2534 25.0203ZM30.8893 24.4169C31.4168 24.6776 31.8486 24.9664 31.8486 25.0588C31.8486 25.2469 30.2936 26.0974 29.9498 26.0974C29.8268 26.0974 29.7295 25.6222 29.7295 25.0203C29.7295 24.4279 29.7747 23.9432 29.8297 23.9432C29.8851 23.9432 30.3618 24.1565 30.8893 24.4169ZM12.5923 26.9142C11.3268 30.1386 12.2043 33.1887 14.7903 34.555C15.5962 34.9807 17.8729 35.6376 18.021 35.4868C18.0594 35.448 17.9793 35.1673 17.843 34.8634C17.7067 34.5594 17.6525 34.1592 17.7224 33.9739C17.9587 33.3478 18.5016 33.6316 18.9782 34.6303L19.4522 35.6236L20.7827 35.4853C22.4837 35.3086 23.373 35.1265 23.3699 34.9564C23.3684 34.8823 22.486 34.3588 21.4091 33.7927C18.3412 32.1805 15.6365 29.9586 13.692 27.4528L12.8213 26.3308L12.5923 26.9142ZM22.5661 27.9687C22.8931 28.2871 23.1605 28.6563 23.1605 28.7892C23.1605 29.0335 21.1459 29.7939 20.9709 29.6158C20.8067 29.449 21.5358 27.3898 21.759 27.3898C21.8762 27.3898 22.2394 27.6504 22.5661 27.9687ZM29.7716 28.4547C29.956 29.0404 30.062 29.5651 30.0072 29.6208C29.9159 29.7136 28.0468 29.1541 27.8367 28.971C27.7302 28.8783 29.1139 27.3898 29.3068 27.3898C29.3782 27.3898 29.5874 27.8692 29.7716 28.4547ZM26.4325 29.8134C26.2021 30.5725 25.709 31.4829 25.5283 31.4829C25.3844 31.4829 24.4319 29.6998 24.4319 29.4306C24.4319 29.3745 24.9151 29.3286 25.5057 29.3286C26.5214 29.3286 26.5715 29.3547 26.4325 29.8134ZM23.9022 36.1329C23.3194 36.2998 22.237 36.5091 21.4971 36.5983L20.1515 36.7605L20.9978 37.7373C23.611 40.752 27.3715 40.7545 29.9789 37.7433L30.8191 36.7728L29.0558 36.5133C28.0859 36.3706 27.0242 36.1498 26.6961 36.0225C25.933 35.7265 25.224 35.7546 23.9022 36.1329Z" fill="#F64A28"/>
</svg>
