<svg width="20" height="20" viewBox="0 0 20 20" fill="none" xmlns="http://www.w3.org/2000/svg">
<path fill-rule="evenodd" clip-rule="evenodd" d="M9.09551 0.159338C8.22982 0.481602 7.46796 1.05088 6.84196 1.84275C6.20878 2.64381 5.31566 4.38927 5.17234 5.10531L5.08215 5.55654L6.00973 4.94863C6.51984 4.61445 7.33555 4.1513 7.82225 3.91951C8.3091 3.68787 8.70733 3.45622 8.70733 3.4051C8.70733 3.35383 8.40029 3.25258 8.02518 3.1802C7.47601 3.07407 7.33412 2.98532 7.29707 2.72524C7.27021 2.53539 7.32938 2.39551 7.44068 2.38618C7.85744 2.35128 8.38765 2.43084 9.18153 2.64755C9.97097 2.86297 10.088 2.85894 11.4075 2.56914C12.1735 2.40082 13.0172 2.24601 13.2824 2.2249L13.7645 2.1867L13.1897 1.53557C12.0786 0.276669 10.3449 -0.306106 9.09551 0.159338ZM12.0104 3.2579C8.33724 4.04345 4.70546 6.33305 2.58173 9.20183L1.96004 10.0418L2.39575 10.6379C2.63544 10.9659 3.0387 11.4768 3.29203 11.7732L3.75274 12.3122V10.6961C3.75274 9.17712 3.76997 9.08004 4.03924 9.08004C4.30363 9.08004 4.33896 9.235 4.49751 11.0906L4.66941 13.1012L5.21169 13.5583C7.19525 15.2301 10.6758 16.6945 13.3214 16.9703L14.2734 17.0696L14.7216 15.9929C15.3633 14.4515 15.3259 14.3863 14.2249 15.1246C13.1551 15.842 12.6117 16.0337 12.4391 15.7545C12.2567 15.4593 12.397 15.281 13.1419 14.8623C13.5252 14.6469 14.2302 14.1826 14.7084 13.8304C15.6871 13.1099 15.6613 13.1892 15.8639 10.3007C15.9508 9.0641 15.9866 8.93643 16.2469 8.93643C16.5215 8.93643 16.5333 9.02518 16.513 10.947C16.4905 13.0898 16.2657 14.2762 15.5444 16.0623L15.1885 16.9433L15.8385 16.8543C17.7322 16.5947 19.0854 15.3277 19.287 13.6252C19.3649 12.9676 19.0304 11.2316 18.7769 10.9782C18.7136 10.9148 18.5062 11.0916 18.3161 11.3708C17.9604 11.8931 17.5187 12.0371 17.3802 11.676C17.3369 11.5635 17.531 11.131 17.8113 10.7146L18.321 9.95794L17.9401 9.44711C16.5373 7.56624 14.9959 6.21485 12.9319 5.05634C11.7365 4.38539 11.5678 4.19467 11.8872 3.87528C12.0683 3.69419 13.2984 4.24666 14.4058 5.00622C15.3446 5.65017 15.3667 5.58368 14.7256 4.04359C14.2859 2.98733 14.276 2.97671 13.7563 2.98661C13.4675 2.99222 12.6818 3.11429 12.0104 3.2579ZM15.2467 3.21137C15.3127 3.35871 15.6027 4.17658 15.8909 5.02877C16.2235 6.01207 16.5242 6.65502 16.7142 6.78801C16.8788 6.90333 17.4018 7.48036 17.8765 8.07046L18.7396 9.14338L18.9972 8.46883C19.3629 7.51152 19.3374 5.95262 18.9441 5.20254C18.4244 4.21148 17.3474 3.4321 16.1751 3.19873C15.8987 3.14373 15.5495 3.06373 15.3995 3.02108C15.1759 2.95746 15.1482 2.99207 15.2467 3.21137ZM3.56676 3.39217C1.51585 4.10061 0.604921 5.85022 1.15984 8.01588C1.28909 8.52082 1.44735 8.98627 1.51125 9.05017C1.5753 9.11422 1.7452 8.98555 1.88881 8.76424C2.03256 8.54308 2.54928 7.94192 3.03712 7.42851C3.83618 6.58781 3.96356 6.36665 4.32058 5.20254C4.53858 4.49166 4.80871 3.73224 4.92073 3.5151C5.11934 3.12994 5.1146 3.12032 4.72585 3.12491C4.50655 3.1275 3.98496 3.2477 3.56676 3.39217ZM10.5794 6.36335C10.7345 6.72539 10.8615 7.04852 10.8615 7.0814C10.8615 7.11429 10.5384 7.14129 10.1434 7.14129C9.74851 7.14129 9.42539 7.11716 9.42539 7.08772C9.42539 6.87346 10.0422 5.70518 10.1552 5.70518C10.2333 5.70518 10.4242 6.0013 10.5794 6.36335ZM8.55395 7.37969C8.62619 7.44158 7.68841 8.43379 7.55772 8.43379C7.44226 8.43379 6.99548 7.03416 7.08294 6.94655C7.14484 6.88466 8.41163 7.25762 8.55395 7.37969ZM13.0468 7.71602C12.9206 8.11081 12.7776 8.43379 12.7292 8.43379C12.5978 8.43379 11.661 7.44158 11.7329 7.37854C11.8655 7.2625 13.0926 6.89572 13.1818 6.94555C13.2338 6.97456 13.1731 7.32124 13.0468 7.71602ZM11.2577 8.14585C13.2039 9.33251 12.2465 12.3208 9.98231 12.1266C7.24479 11.892 7.39716 7.86035 10.1434 7.86035C10.5355 7.86035 10.9738 7.97266 11.2577 8.14585ZM7.27122 10.0135C7.27122 10.4084 7.24063 10.7316 7.20329 10.7316C7.01257 10.7316 5.8351 10.0829 5.8351 9.9779C5.8351 9.86373 6.92684 9.30551 7.16351 9.29862C7.22282 9.2969 7.27122 9.61859 7.27122 10.0135ZM13.8017 9.61126C14.1592 9.78503 14.4518 9.97761 14.4518 10.0392C14.4518 10.1646 13.398 10.7316 13.165 10.7316C13.0816 10.7316 13.0157 10.4148 13.0157 10.0135C13.0157 9.61859 13.0463 9.29546 13.0836 9.29546C13.1211 9.29546 13.4442 9.43764 13.8017 9.61126ZM1.40139 11.2761C0.543743 13.4257 1.13844 15.4591 2.89107 16.37C3.43722 16.6538 4.98018 17.0917 5.08057 16.9912C5.10656 16.9653 5.05228 16.7782 4.95994 16.5756C4.86759 16.3729 4.83083 16.1061 4.87822 15.9826C5.03835 15.5652 5.40628 15.7544 5.72926 16.4202L6.05052 17.0824L6.95226 16.9902C8.10502 16.8724 8.70776 16.751 8.70561 16.6376C8.7046 16.5882 8.1066 16.2392 7.37677 15.8618C5.29757 14.787 3.46451 13.3057 2.14673 11.6352L1.55663 10.8872L1.40139 11.2761ZM8.16089 11.9791C8.38248 12.1914 8.56372 12.4375 8.56372 12.5261C8.56372 12.689 7.19841 13.1959 7.07978 13.0772C6.96848 12.966 7.46265 11.5932 7.61387 11.5932C7.69329 11.5932 7.93944 11.7669 8.16089 11.9791ZM13.0442 12.3031C13.1692 12.6936 13.241 13.0434 13.2039 13.0805C13.142 13.1424 11.8753 12.7694 11.7329 12.6473C11.6607 12.5855 12.5985 11.5932 12.7292 11.5932C12.7776 11.5932 12.9194 11.9128 13.0442 12.3031ZM10.7812 13.2089C10.6251 13.715 10.2909 14.3219 10.1684 14.3219C10.0709 14.3219 9.42539 13.1332 9.42539 12.9537C9.42539 12.9163 9.75282 12.8857 10.1531 12.8857C10.8415 12.8857 10.8754 12.9031 10.7812 13.2089ZM9.06636 17.4219C8.67143 17.5332 7.93786 17.6727 7.43637 17.7322L6.52444 17.8403L7.09802 18.4915C8.86904 20.5013 11.4176 20.503 13.1847 18.4955L13.7541 17.8485L12.5591 17.6755C11.9018 17.5804 11.1822 17.4332 10.9599 17.3483C10.4427 17.151 9.96221 17.1697 9.06636 17.4219Z" fill="#F64A28"/>
</svg>
