<svg width="52" height="50" viewBox="0 0 52 50" fill="none" xmlns="http://www.w3.org/2000/svg">
<ellipse cx="26.0908" cy="24.9999" rx="25.4089" ry="24.9999" fill="black"/>
<path d="M14.3903 31.8438C14.5905 31.6436 14.8657 31.5269 15.1577 31.5269H41.6335C42.1173 31.5269 42.3592 32.1108 42.0172 32.4528L36.7871 37.6829C36.5869 37.8831 36.3117 37.9998 36.0197 37.9998H9.54388C9.06007 37.9998 8.81817 37.4159 9.16017 37.0739L14.3903 31.8438Z" fill="url(#paint0_linear_201_121)"/>
<path d="M14.3903 12.317C14.5988 12.1168 14.8741 12 15.1577 12H41.6335C42.1173 12 42.3592 12.5839 42.0172 12.9259L36.7871 18.156C36.5869 18.3562 36.3117 18.473 36.0197 18.473H9.54388C9.06007 18.473 8.81817 17.8891 9.16017 17.5471L14.3903 12.317Z" fill="url(#paint1_linear_201_121)"/>
<path d="M36.7871 22.0182C36.5869 21.818 36.3117 21.7012 36.0197 21.7012H9.54388C9.06007 21.7012 8.81817 22.2851 9.16017 22.6271L14.3903 27.8572C14.5905 28.0574 14.8657 28.1742 15.1577 28.1742H41.6335C42.1173 28.1742 42.3592 27.5903 42.0172 27.2483L36.7871 22.0182Z" fill="url(#paint2_linear_201_121)"/>
<defs>
<linearGradient id="paint0_linear_201_121" x1="39.1043" y1="8.87515" x2="20.7809" y2="43.9718" gradientUnits="userSpaceOnUse">
<stop stop-color="#00FFA3"/>
<stop offset="1" stop-color="#DC1FFF"/>
</linearGradient>
<linearGradient id="paint1_linear_201_121" x1="31.0923" y1="4.69275" x2="12.7689" y2="39.7894" gradientUnits="userSpaceOnUse">
<stop stop-color="#00FFA3"/>
<stop offset="1" stop-color="#DC1FFF"/>
</linearGradient>
<linearGradient id="paint2_linear_201_121" x1="35.0728" y1="6.771" x2="16.7494" y2="41.8677" gradientUnits="userSpaceOnUse">
<stop stop-color="#00FFA3"/>
<stop offset="1" stop-color="#DC1FFF"/>
</linearGradient>
</defs>
</svg>
