<svg width="20" height="20" viewBox="0 0 20 20" fill="none" xmlns="http://www.w3.org/2000/svg">
<path d="M10 20C15.5228 20 20 15.5228 20 10C20 4.47715 15.5228 0 10 0C4.47715 0 0 4.47715 0 10C0 15.5228 4.47715 20 10 20Z" fill="#5546FF"/>
<path d="M14.0799 15.2691L11.9272 11.8899H15.0185V10.6133H4.88086V11.8899H7.97222L5.81953 15.2691H7.42153L9.94969 11.3017L12.4779 15.2691H14.0799ZM15.0185 9.37425V8.09766H11.9897L14.1174 4.75598H12.5029L9.94969 8.78602L7.3965 4.75598H5.78199L7.90965 8.09766H4.88086V9.38677L15.0185 9.37425Z" fill="white"/>
</svg>
