<?xml version="1.0" encoding="UTF-8"?>
<svg xmlns="http://www.w3.org/2000/svg" xmlns:xlink="http://www.w3.org/1999/xlink" width="200px" height="200px" viewBox="0 0 200 200" version="1.1">
<g id="surface1">
<path style=" stroke:none;fill-rule:evenodd;fill:rgb(16.078431%,16.078431%,43.137255%);fill-opacity:1;" d="M 200 99.996094 C 200 155.226562 155.230469 199.996094 100 199.996094 C 44.773438 199.996094 0 155.226562 0 99.996094 C 0 44.769531 44.773438 0 100 0 C 155.230469 0 200 44.769531 200 99.996094 "/>
<path style=" stroke:none;fill-rule:evenodd;fill:rgb(98.039216%,98.039216%,98.039216%);fill-opacity:1;" d="M 146.535156 73.257812 L 143.992188 65.402344 C 143.476562 63.804688 142.214844 62.5625 140.609375 62.070312 L 132.714844 59.644531 C 131.625 59.308594 131.613281 57.769531 132.699219 57.417969 L 140.558594 54.875 C 142.152344 54.359375 143.394531 53.097656 143.890625 51.492188 L 146.3125 43.597656 C 146.648438 42.507812 148.1875 42.496094 148.539062 43.582031 L 151.082031 51.441406 C 151.601562 53.035156 152.859375 54.277344 154.464844 54.769531 L 162.359375 57.195312 C 163.453125 57.53125 163.464844 59.070312 162.378906 59.421875 L 154.519531 61.964844 C 152.921875 62.480469 151.679688 63.746094 151.1875 65.351562 L 148.761719 73.242188 C 148.429688 74.335938 146.886719 74.347656 146.535156 73.257812 "/>
<path style=" stroke:none;fill-rule:evenodd;fill:rgb(96.470588%,39.215686%,23.529412%);fill-opacity:1;" d="M 9.09375 98.414062 C 11.46875 93.753906 16.171875 90.246094 21.054688 88.027344 C 25.992188 85.835938 31.417969 84.488281 36.746094 84.050781 C 47.5 83.078125 57.980469 84.878906 67.523438 87.988281 C 72.441406 89.453125 76.84375 91.488281 81.386719 93.542969 C 83.597656 94.605469 85.671875 95.8125 87.8125 96.972656 L 93.71875 100.398438 C 100.203125 104.371094 106.492188 107.894531 112.398438 110.628906 C 118.320312 113.339844 123.671875 115.171875 128.714844 116.109375 C 133.761719 117.058594 138.886719 117.046875 145.191406 115.597656 C 151.449219 114.183594 158.484375 111.132812 165.84375 107.21875 C 173.242188 103.304688 180.832031 98.5 189.492188 93.808594 C 188.625 103.617188 185.847656 112.8125 181.511719 121.695312 C 177.070312 130.46875 170.890625 139.027344 161.882812 145.957031 C 153.046875 152.945312 140.914062 157.816406 128.558594 158.550781 C 116.199219 159.386719 104.441406 156.660156 94.4375 152.566406 C 84.398438 148.410156 75.71875 142.949219 68.03125 136.921875 C 65.90625 135.257812 64.765625 134.3125 63.199219 132.984375 L 58.816406 129.148438 C 55.867188 126.839844 53.007812 124.078125 50.085938 121.789062 C 44.261719 116.917969 38.496094 112.039062 32.175781 107.808594 C 28.988281 105.660156 25.703125 103.667969 21.976562 101.902344 C 20.121094 101.046875 18.15625 100.253906 16.042969 99.625 C 13.882812 98.921875 11.683594 98.5 9.09375 98.414062 "/>
<path style=" stroke:none;fill-rule:evenodd;fill:rgb(98.039216%,98.039216%,98.039216%);fill-opacity:1;" d="M 9.09375 98.414062 C 10.304688 88.320312 15.011719 78.855469 22.550781 70.796875 C 30.050781 62.820312 41.769531 56.667969 54.773438 55.851562 C 61.191406 55.421875 67.707031 56.136719 73.695312 57.796875 C 79.660156 59.453125 85.246094 61.863281 90.285156 64.699219 C 92.800781 66.125 95.152344 67.6875 97.5 69.261719 L 103.746094 73.992188 L 113.503906 81.6875 C 119.835938 86.730469 125.878906 91.394531 131.460938 95.242188 C 137.101562 99.101562 141.902344 101.917969 146.488281 103.570312 C 151.035156 105.371094 156.773438 105.832031 164.367188 103.921875 C 168.132812 103.054688 172.066406 101.46875 176.257812 99.75 C 180.429688 97.992188 184.757812 95.890625 189.492188 93.808594 C 188.921875 98.882812 187.890625 103.9375 185.933594 108.65625 C 184.050781 113.445312 181.574219 118.128906 178.109375 122.496094 C 176.339844 124.625 174.4375 126.761719 172.222656 128.734375 C 170.007812 130.660156 167.554688 132.488281 164.84375 134.09375 C 159.4375 137.226562 153.023438 139.515625 146.441406 140.328125 C 139.859375 141.15625 133.253906 140.742188 127.238281 139.46875 C 121.191406 138.226562 115.679688 136.226562 110.621094 133.917969 C 100.539062 129.226562 92.101562 123.332031 84.644531 117.09375 C 80.902344 113.976562 77.390625 110.722656 74.0625 107.417969 L 70.136719 103.476562 C 68.949219 102.332031 67.753906 101.183594 66.570312 100.132812 C 61.796875 95.910156 57.367188 92.6875 52.488281 90.675781 C 47.644531 88.570312 41.445312 87.703125 33.839844 89.128906 C 26.265625 90.535156 17.957031 93.8125 9.09375 98.414062 "/>
<path style=" stroke:none;fill-rule:evenodd;fill:rgb(98.039216%,98.039216%,98.039216%);fill-opacity:1;" d="M 49.066406 150.453125 C 49.066406 153.441406 46.644531 155.859375 43.65625 155.859375 C 40.671875 155.859375 38.253906 153.441406 38.253906 150.453125 C 38.253906 147.46875 40.671875 145.046875 43.65625 145.046875 C 46.644531 145.046875 49.066406 147.46875 49.066406 150.453125 "/>
<path style=" stroke:none;fill-rule:evenodd;fill:rgb(98.039216%,98.039216%,98.039216%);fill-opacity:1;" d="M 49.066406 150.453125 C 49.066406 153.441406 46.644531 155.859375 43.65625 155.859375 C 40.671875 155.859375 38.253906 153.441406 38.253906 150.453125 C 38.253906 147.46875 40.671875 145.046875 43.65625 145.046875 C 46.644531 145.046875 49.066406 147.46875 49.066406 150.453125 "/>
</g>
</svg>
