<svg width="51" height="50" viewBox="0 0 51 50" fill="none" xmlns="http://www.w3.org/2000/svg">
<ellipse cx="25.6816" cy="24.9999" rx="25" ry="24.9999" fill="white"/>
<path d="M26 10C17.7157 10 11 16.7157 11 25C11 33.2843 17.7157 40 26 40C34.2843 40 41 33.2843 41 25C41 16.7157 34.2843 10 26 10ZM22.2487 30.1827L22.1066 30.3248C21.8122 30.6192 21.4974 30.8985 21.1726 31.1574L20.7969 31.4518C20.7716 31.472 20.7411 31.4822 20.7107 31.4822C20.6853 31.4822 20.6599 31.4771 20.6396 31.462C20.5888 31.4315 20.5634 31.3756 20.5787 31.3147L20.7259 30.6497C20.8883 29.9289 20.8528 29.1726 20.6244 28.467L20.5431 28.2234C20.4518 27.9391 20.3401 27.6599 20.2233 27.3858L18.4924 23.2995L18.3046 22.7411C18.2487 22.5685 18.2081 22.3908 18.1878 22.2081L18.1574 21.9289C18.0711 21.1421 18.3401 20.3706 18.8985 19.8122L19.0406 19.67C19.335 19.3756 19.6497 19.0964 19.9746 18.8376L20.3503 18.5431C20.3959 18.5076 20.4569 18.5025 20.5076 18.533C20.5584 18.5634 20.5837 18.6193 20.5685 18.6802L20.4213 19.3452C20.2589 20.066 20.2944 20.8223 20.5228 21.5279L20.6041 21.7716C20.6954 22.0558 20.8071 22.335 20.9238 22.6091L22.6599 26.6955L22.8477 27.2538C22.9035 27.4264 22.9441 27.604 22.9645 27.7868L22.9949 28.0659C23.0761 28.8477 22.8071 29.6243 22.2487 30.1827ZM28.1065 31.5228L27.9239 31.7055C27.5533 32.0761 27.1574 32.4314 26.7461 32.7513L26.2589 33.137C26.2335 33.1574 26.198 33.1675 26.1675 33.1675C26.1422 33.1675 26.1117 33.1574 26.0862 33.1421C26.0304 33.1066 26.0051 33.0457 26.0202 32.9848L26.2131 32.1269C26.4162 31.2131 26.3706 30.2589 26.0811 29.3706L25.9797 29.0609C25.8629 28.7005 25.7259 28.3452 25.5736 27.9999L23.3858 22.8477L23.1523 22.1472C23.0812 21.934 23.0304 21.7056 23.0051 21.4822L22.9645 21.1269C22.8528 20.1421 23.1929 19.1777 23.8883 18.4721L24.0711 18.2893C24.4416 17.9188 24.8375 17.5634 25.2487 17.2436L25.736 16.8579C25.7868 16.8173 25.8528 16.8122 25.9086 16.8477C25.9645 16.8832 25.9898 16.9441 25.9746 17.0051L25.7817 17.8629C25.5787 18.7766 25.6244 19.731 25.9137 20.6193L26.0151 20.9289C26.132 21.2843 26.2691 21.6447 26.4213 21.9898L28.6091 27.1472L28.8426 27.8477C28.9137 28.0608 28.9644 28.2894 28.9899 28.5127L29.0304 28.868C29.1421 29.8527 28.802 30.8223 28.1065 31.5228ZM33.1014 30.1827L32.9594 30.3248C32.665 30.6192 32.3502 30.8985 32.0254 31.1574L31.6497 31.4518C31.6243 31.472 31.5939 31.4822 31.5635 31.4822C31.5381 31.4822 31.5126 31.4771 31.4924 31.462C31.4417 31.4315 31.4162 31.3756 31.4315 31.3147L31.5786 30.6497C31.7412 29.9289 31.7056 29.1726 31.4771 28.467L31.3959 28.2234C31.3046 27.9391 31.1929 27.6599 31.0762 27.3858L29.3401 23.2995L29.1523 22.7411C29.0964 22.5685 29.0559 22.3908 29.0355 22.2081L29.005 21.9289C28.9188 21.1421 29.1879 20.3706 29.7462 19.8122L29.8882 19.67C30.1828 19.3756 30.4974 19.0964 30.8223 18.8376L31.198 18.5431C31.2437 18.5076 31.3046 18.5025 31.3553 18.533C31.4061 18.5634 31.4315 18.6193 31.4162 18.6802L31.2691 19.3452C31.1066 20.066 31.1422 20.8223 31.3706 21.5279L31.4517 21.7716C31.5431 22.0558 31.6548 22.335 31.7716 22.6091L33.5076 26.6955L33.6953 27.2538C33.7513 27.4264 33.7919 27.604 33.8122 27.7868L33.8426 28.0659C33.9289 28.8477 33.6599 29.6243 33.1014 30.1827Z" fill="#171FC9"/>
</svg>
