<svg width="20" height="20" viewBox="0 0 20 20" fill="none" xmlns="http://www.w3.org/2000/svg">
<g clip-path="url(#clip0_562_1968)">
<circle cx="10" cy="10" r="9" fill="white"/>
<path d="M10.0017 0C4.47791 0 0 4.47791 0 10.0017C0 15.5255 4.47791 20.0034 10.0017 20.0034C15.5255 20.0034 20.0034 15.5255 20.0034 10.0017C20.0034 4.47791 15.5255 0 10.0017 0ZM7.50042 13.4574L7.40565 13.5522C7.20934 13.7485 6.99949 13.9347 6.78287 14.1073L6.53241 14.3036C6.51548 14.3171 6.49518 14.3239 6.47487 14.3239C6.45795 14.3239 6.44102 14.3205 6.42748 14.3104C6.39364 14.2901 6.37671 14.2528 6.38687 14.2122L6.48502 13.7688C6.59333 13.2882 6.56964 12.7839 6.41733 12.3134L6.36317 12.151C6.30225 11.9614 6.22779 11.7753 6.14994 11.5925L4.99577 8.86783L4.87054 8.49551C4.8333 8.38044 4.80623 8.26197 4.79269 8.14012L4.77238 7.95397C4.71484 7.42934 4.89423 6.91488 5.26654 6.54256L5.36131 6.44779C5.55762 6.25148 5.76747 6.06532 5.98409 5.89271L6.23456 5.6964C6.26502 5.6727 6.30564 5.66932 6.33948 5.68963C6.37333 5.70993 6.39025 5.74717 6.3801 5.78778L6.28194 6.23117C6.17363 6.7118 6.19733 7.21611 6.34964 7.68658L6.40379 7.84904C6.46471 8.03858 6.53918 8.22474 6.61702 8.40751L7.77458 11.1322L7.89981 11.5045C7.93704 11.6196 7.96412 11.738 7.97766 11.8599L7.99797 12.046C8.05212 12.5673 7.87274 13.0851 7.50042 13.4574ZM11.4063 14.351L11.2845 14.4728C11.0374 14.7199 10.7734 14.9568 10.4992 15.1701L10.1743 15.4273C10.1574 15.4409 10.1337 15.4476 10.1134 15.4476C10.0965 15.4476 10.0762 15.4409 10.0592 15.4307C10.022 15.407 10.0051 15.3664 10.0152 15.3258L10.1438 14.7538C10.2792 14.1445 10.2488 13.5082 10.0558 12.9159L9.98815 12.7094C9.91031 12.4691 9.81892 12.2322 9.71738 12.002L8.25859 8.56659L8.10289 8.09951C8.05551 7.95735 8.02166 7.80504 8.00474 7.65612L7.97766 7.41919C7.9032 6.76257 8.12997 6.11948 8.59367 5.64901L8.71552 5.52716C8.9626 5.28008 9.2266 5.04315 9.50076 4.82992L9.82569 4.57269C9.85954 4.54561 9.90354 4.54222 9.94077 4.56592C9.978 4.58961 9.99492 4.63022 9.98477 4.67084L9.85615 5.24285C9.72076 5.85209 9.75123 6.48841 9.94415 7.08072L10.0118 7.28719C10.0897 7.52412 10.1811 7.76443 10.2826 7.99458L11.7414 11.4334L11.8971 11.9005C11.9445 12.0426 11.9783 12.195 11.9953 12.3439L12.0223 12.5808C12.0968 13.2374 11.87 13.8839 11.4063 14.351ZM14.7368 13.4574L14.6421 13.5522C14.4458 13.7485 14.2359 13.9347 14.0193 14.1073L13.7688 14.3036C13.7519 14.3171 13.7316 14.3239 13.7113 14.3239C13.6944 14.3239 13.6774 14.3205 13.6639 14.3104C13.6301 14.2901 13.6131 14.2528 13.6233 14.2122L13.7214 13.7688C13.8298 13.2882 13.8061 12.7839 13.6537 12.3134L13.5996 12.151C13.5387 11.9614 13.4642 11.7753 13.3864 11.5925L12.2288 8.86783L12.1036 8.49551C12.0663 8.38044 12.0393 8.26197 12.0257 8.14012L12.0054 7.95397C11.9479 7.42934 12.1273 6.91488 12.4996 6.54256L12.5943 6.44779C12.7907 6.25148 13.0005 6.06532 13.2171 5.89271L13.4676 5.6964C13.4981 5.6727 13.5387 5.66932 13.5725 5.68963C13.6064 5.70993 13.6233 5.74717 13.6131 5.78778L13.515 6.23117C13.4067 6.7118 13.4304 7.21611 13.5827 7.68658L13.6368 7.84904C13.6977 8.03858 13.7722 8.22474 13.8501 8.40751L15.0076 11.1322L15.1328 11.5045C15.1701 11.6196 15.1972 11.738 15.2107 11.8599L15.231 12.046C15.2885 12.5673 15.1092 13.0851 14.7368 13.4574Z" fill="#171FC9"/>
</g>
<defs>
<clipPath id="clip0_562_1968">
<rect width="20" height="20" fill="white"/>
</clipPath>
</defs>
</svg>
