<svg width="52" height="50" viewBox="0 0 52 50" fill="none" xmlns="http://www.w3.org/2000/svg">
<ellipse cx="26.0908" cy="24.9999" rx="25.4089" ry="24.9999" fill="white"/>
<path d="M15.0466 26.5641C14.9834 26.0655 14.9516 25.5635 14.9514 25.0607C14.954 23.0548 15.4632 21.0844 16.4287 19.3447C17.3942 17.605 18.7825 16.1563 20.456 15.1421C22.1294 14.128 24.0301 13.5835 25.9696 13.5627C27.9091 13.542 29.8203 14.0455 31.5137 15.0236L34.0594 13.682C32.0302 12.1587 29.6332 11.2454 27.1332 11.0429C24.6333 10.8405 22.1279 11.3568 19.894 12.5347C17.6601 13.7126 15.7846 15.5064 14.4749 17.7177C13.1651 19.929 12.4721 22.4718 12.4723 25.0649C12.4723 25.4231 12.4854 25.7798 12.5117 26.1351C12.5486 26.6383 12.4407 27.1415 12.2016 27.5815C11.9625 28.0215 11.603 28.3783 11.1682 28.6075L10 29.2236V32.0968L42.1427 15.1586V12.2869L15.0466 26.5641Z" fill="black"/>
<path d="M42.1427 18.0343L16.7696 31.3945L10 34.9638V37.8344L37.103 23.5528C37.1662 24.0546 37.198 24.56 37.1983 25.0661C37.1969 27.0743 36.6878 29.0473 35.7214 30.789C34.7551 32.5308 33.3649 33.9811 31.689 34.9954C30.013 36.01 28.1097 36.5536 26.168 36.5721C24.2261 36.5909 22.3133 36.084 20.6195 35.1017L20.4835 35.1762L18.0819 36.442C20.1108 37.9652 22.5074 38.879 25.0069 39.0818C27.5064 39.2847 30.0115 38.7691 32.2454 37.592C34.4793 36.4148 36.355 34.622 37.6654 32.4115C38.9758 30.201 39.6697 27.6588 39.6704 25.0661C39.6704 24.7046 39.6569 24.3432 39.631 23.986C39.5944 23.4829 39.702 22.9799 39.9409 22.54C40.1797 22.1001 40.5388 21.7431 40.9733 21.5136L42.1427 20.8976V18.0343Z" fill="black"/>
</svg>
