<svg width="20" height="20" viewBox="0 0 20 20" fill="none" xmlns="http://www.w3.org/2000/svg">
<path d="M10 20C15.5228 20 20 15.5228 20 10C20 4.47715 15.5228 0 10 0C4.47715 0 0 4.47715 0 10C0 15.5228 4.47715 20 10 20Z" fill="white"/>
<path fill-rule="evenodd" clip-rule="evenodd" d="M9.85725 2.39028C10.0222 2.28439 10.2338 2.28464 10.3985 2.39091L17.9695 7.27618C18.1123 7.36835 18.1985 7.52678 18.1984 7.69677C18.1982 7.86677 18.1117 8.02503 17.9687 8.11694L10.2588 13.0717C10.0958 13.1764 9.88711 13.1776 9.723 13.0747L2.8017 8.73846V9.53589C2.8017 9.7058 2.88799 9.86409 3.03081 9.95615L9.99024 14.442L17.2911 9.79806C17.445 9.70013 17.6401 9.69384 17.8001 9.78167C17.96 9.86949 18.0594 10.0375 18.0594 10.2199V11.7806C18.0594 12.2912 17.7997 12.7668 17.37 13.0427L10.2586 17.6097C10.0938 17.7155 9.88236 17.7154 9.71769 17.6093L2.16983 12.7472L2.71137 11.9065L9.98887 16.5945L16.8296 12.2013C16.9728 12.1093 17.0594 11.9508 17.0594 11.7806V11.1306L10.2568 15.4576C10.0921 15.5624 9.8816 15.5618 9.71757 15.456L2.48903 10.7967C2.06057 10.5205 1.8017 10.0456 1.8017 9.53589V7.83518C1.8017 7.66494 1.88831 7.5064 2.03157 7.41443L9.85725 2.39028ZM3.23523 7.83002L9.98505 12.0589L16.7748 7.69545L10.1267 3.40565L3.23523 7.83002Z" fill="url(#paint0_linear_562_2469)"/>
<defs>
<linearGradient id="paint0_linear_562_2469" x1="4.2043" y1="6.37152" x2="18.0885" y2="12.9588" gradientUnits="userSpaceOnUse">
<stop stop-color="#21BBC0"/>
<stop offset="0.9999" stop-color="#1489C9"/>
<stop offset="1" stop-opacity="0"/>
</linearGradient>
</defs>
</svg>
