<svg width="51" height="50" viewBox="0 0 51 50" fill="none" xmlns="http://www.w3.org/2000/svg">
<ellipse cx="25.6816" cy="24.9999" rx="25" ry="24.9999" fill="white"/>
<path fill-rule="evenodd" clip-rule="evenodd" d="M25.7213 10.1546C26.0432 9.94802 26.4562 9.94851 26.7776 10.1558L41.5533 19.6862C41.832 19.8661 42.0002 20.1751 42 20.5068C41.9996 20.8384 41.8308 21.1471 41.5517 21.3264L26.505 30.9924C26.1869 31.1967 25.7796 31.199 25.4593 30.9983L11.9516 22.5389V24.0946C11.9516 24.4261 12.12 24.7349 12.3987 24.9145L25.9809 33.6657L40.2293 24.606C40.5297 24.415 40.9104 24.4027 41.2227 24.5741C41.5347 24.7454 41.7287 25.0732 41.7287 25.429V28.4737C41.7287 29.4698 41.2219 30.3976 40.3833 30.9358L26.5046 39.8454C26.183 40.0518 25.7703 40.0516 25.4489 39.8446L10.7184 30.3594L11.7753 28.7193L25.9782 37.8649L39.3286 29.2944C39.6081 29.1149 39.7771 28.8057 39.7771 28.4737V27.2056L26.5011 35.647C26.1796 35.8514 25.7688 35.8502 25.4487 35.6438L11.3414 26.5542C10.5052 26.0154 10 25.089 10 24.0946V20.7768C10 20.4447 10.169 20.1354 10.4486 19.9559L25.7213 10.1546ZM12.7977 20.7667L25.9707 29.0166L39.2217 20.5042L26.2472 12.1354L12.7977 20.7667Z" fill="url(#paint0_linear_62_93)"/>
<defs>
<linearGradient id="paint0_linear_62_93" x1="14.6889" y1="17.9214" x2="41.7816" y2="30.7804" gradientUnits="userSpaceOnUse">
<stop stop-color="#21BBC0"/>
<stop offset="0.9999" stop-color="#1489C9"/>
<stop offset="1" stop-opacity="0"/>
</linearGradient>
</defs>
</svg>
