<svg width="61" height="60" viewBox="0 0 61 60" fill="none" xmlns="http://www.w3.org/2000/svg">
    <path d="M30.6816 57.4999C45.8695 57.4999 58.1816 45.1877 58.1816 29.9999C58.1816 14.8121 45.8695 2.5 30.6816 2.5C15.4938 2.5 3.18164 14.8121 3.18164 29.9999C3.18164 45.1877 15.4938 57.4999 30.6816 57.4999Z" fill="white" stroke="white" stroke-width="5"/>
    <path fill-rule="evenodd" clip-rule="evenodd" d="M37.7808 27.5108C39.0045 29.0473 39.7363 30.9904 39.7363 33.1041C39.7363 35.2178 38.9823 37.2202 37.7264 38.7652L37.6176 38.8988L37.5892 38.7294C37.5645 38.586 37.5361 38.4402 37.5027 38.2943C36.8735 35.5305 34.8242 33.161 31.4509 31.2413C29.1728 29.9484 27.8688 28.3934 27.5264 26.6246C27.3052 25.4813 27.4695 24.3329 27.7872 23.349C28.1049 22.3663 28.577 21.5419 28.9788 21.0462L30.2915 19.4418C30.5214 19.16 30.9528 19.16 31.1826 19.4418L37.7821 27.5108H37.7808ZM39.8562 25.9077L31.0603 15.1539C30.8922 14.9487 30.5782 14.9487 30.4102 15.1539L21.6155 25.9077L21.5871 25.9436C19.9691 27.9522 19 30.5047 19 33.2833C19 39.7541 24.2545 45 30.7352 45C37.216 45 42.4704 39.7541 42.4704 33.2833C42.4704 30.5047 41.5014 27.9522 39.8834 25.9447L39.8549 25.9089L39.8562 25.9077ZM23.7205 27.4763L24.5067 26.5133L24.5302 26.6913C24.5487 26.8322 24.5722 26.9731 24.5994 27.1153C25.1086 29.7865 26.9269 32.0126 29.9664 33.7369C32.6091 35.2412 34.148 36.9705 34.5905 38.8666C34.7759 39.6577 34.808 40.4364 34.7277 41.1175L34.7228 41.1595L34.6844 41.1781C33.4917 41.7602 32.1505 42.0878 30.734 42.0878C25.7638 42.0878 21.7342 38.0657 21.7342 33.1028C21.7342 30.9719 22.4771 29.0151 23.7181 27.4738L23.7205 27.4763Z" fill="#4DA2FF"/>
</svg>
