<svg width="51" height="50" viewBox="0 0 51 50" fill="none" xmlns="http://www.w3.org/2000/svg">
<ellipse cx="25.6816" cy="24.9999" rx="25" ry="24.9999" fill="white"/>
<path d="M23.9028 26.6893V38.3956L30.5264 38.4941V26.6893L27.031 21.9353L23.9028 26.6893Z" fill="#F800C7"/>
<path d="M30.4821 25.2471L42.1175 18.8895L38.2113 12L26.4893 18.404L23.9028 24.4903L30.4821 25.2471Z" fill="#F800C7"/>
<path d="M24.6359 18.4568L13.2378 12L9 18.7395L20.4904 25.2471L27.2147 24.305L24.6359 18.4568Z" fill="#F800C7"/>
<path d="M42.0893 18.3266C41.907 17.6338 41.5119 16.4633 40.6873 15.0886C40.0339 14.0056 39.2967 13.0976 38.6357 12.332C38.1569 11.7741 37.2298 11.9491 37.002 12.6346C35.3568 17.5863 30.3796 21.2437 25.6075 18.6693L25.6001 18.6657L13.8788 12.1715C13.5141 11.9673 13.0506 12.0184 12.7467 12.3028C12.2109 12.7987 11.3523 13.7139 10.524 15.0886C9.87051 16.1716 9.42221 17.2436 9.06129 18.1734C8.79912 18.8517 9.41838 19.5335 10.1517 19.3804C15.4442 18.2719 21.2269 20.5727 21.2915 25.8271V25.8344V38.8228C21.2915 39.2275 21.5689 39.5848 21.9753 39.6979C22.6934 39.8947 23.9473 40.15 25.6001 40.15C26.9069 40.15 28.0961 39.9895 29.1143 39.8254C29.8553 39.7052 31.0356 39.0265 30.5265 38.4941C26.9019 34.6727 25.2086 28.5838 29.8287 25.8818C29.8553 25.8672 29.8818 25.8526 29.9123 25.8344L29.9161 25.8308L41.6373 19.3367C42.0095 19.1288 42.192 18.7204 42.0893 18.3266Z" fill="#441377"/>
</svg>
