<svg width="20" height="20" viewBox="0 0 20 20" fill="none" xmlns="http://www.w3.org/2000/svg">
<g clip-path="url(#clip0)">
<path d="M9 11.871V18.9405L13 19V11.871L10.8891 9L9 11.871Z" fill="#F800C7"/>
<path d="M12.9733 11L20 7.16061L17.641 3L10.562 6.86743L9 10.543L12.9733 11Z" fill="#F800C7"/>
<path d="M9.44262 6.89934L2.55922 3L0 7.07002L6.93915 11L11 10.4311L9.44262 6.89934Z" fill="#F800C7"/>
<path d="M19.9829 6.82069C19.8728 6.40227 19.6342 5.69541 19.1362 4.86522C18.7416 4.21119 18.2964 3.66287 17.8972 3.20047C17.6081 2.86358 17.0482 2.96923 16.9106 3.38326C15.9171 6.37363 12.9113 8.58232 10.0294 7.02767L10.0249 7.02547L2.94637 3.10359C2.7261 2.98026 2.44619 3.01109 2.26267 3.18286C1.93909 3.48233 1.42058 4.03504 0.920335 4.86522C0.52571 5.51926 0.254974 6.16665 0.0370135 6.72819C-0.121312 7.13777 0.252665 7.54954 0.695513 7.45705C3.8917 6.78766 7.38389 8.17713 7.42294 11.3503V11.3547V19.1985C7.42294 19.4429 7.59044 19.6587 7.83591 19.727C8.26958 19.8458 9.02677 20 10.0249 20C10.8141 20 11.5323 19.9031 12.1472 19.804C12.5947 19.7314 13.3075 19.3215 13 19C10.8111 16.6922 9.78852 13.0151 12.5786 11.3833C12.5947 11.3745 12.6107 11.3657 12.6291 11.3547L12.6314 11.3525L19.7099 7.43067C19.9347 7.30515 20.0449 7.0585 19.9829 6.82069Z" fill="#441377"/>
</g>
<defs>
<clipPath id="clip0">
<rect width="20" height="20" fill="white"/>
</clipPath>
</defs>
</svg>
