<svg width="51" height="50" viewBox="0 0 51 50" fill="none" xmlns="http://www.w3.org/2000/svg">
<ellipse cx="25.6816" cy="24.9999" rx="25" ry="24.9999" fill="white"/>
<path fill-rule="evenodd" clip-rule="evenodd" d="M38.4532 21.3707C36.8906 19.8905 34.6989 18.6704 31.8532 17.89C31.8478 17.8884 31.8424 17.8873 31.8365 17.8863L31.8359 17.8857H31.8349C25.0552 16.038 22.6352 20.4091 28.1323 23.1633C34.3644 26.2857 35.2315 31.4014 31.7129 34.5987C30.8172 35.413 27.9046 36.9305 25.2262 37.3023C20.9685 37.8926 16.2505 36.9877 12.4136 35.7665C14.6404 37.4863 17.0264 38.6314 19.4328 39.2914C25.4151 40.9372 32.6404 39.7258 37.4297 35.5566C42.2523 31.356 42.7115 25.4007 38.4532 21.3707ZM31.8559 17.8911C31.8769 17.8965 31.8975 17.903 31.9174 17.9089C31.8969 17.9035 31.8769 17.8965 31.8559 17.8911Z" fill="#008DD0"/>
<path fill-rule="evenodd" clip-rule="evenodd" d="M18.8212 11.5072C18.8234 11.5051 18.8261 11.5051 18.8282 11.5051C25.4925 8.78587 33.1883 9.78149 38.9547 14.2464C31.7914 11.9648 26.2344 12.1618 22.5874 13.6318C22.5696 13.6383 22.5513 13.6447 22.5335 13.6534C18.0324 15.4908 16.4719 19.2742 18.4316 22.689C19.4876 24.5291 21.3486 25.9047 23.2387 26.8495C28.2292 29.3524 26.6941 33.1859 21.2914 32.486C20.7399 32.4148 20.1453 32.2966 19.5151 32.1234C8.90661 29.2196 7.35049 20.1953 13.9397 14.4563C15.2994 13.2724 16.9597 12.2643 18.8212 11.5072Z" fill="#008DD0"/>
</svg>
