<?xml version="1.0" encoding="UTF-8"?>
<svg xmlns="http://www.w3.org/2000/svg" xmlns:xlink="http://www.w3.org/1999/xlink" width="256px" height="245px" viewBox="0 0 256 245" version="1.1">
<g id="surface1">
<path style=" stroke:none;fill-rule:evenodd;fill:rgb(0%,55.294118%,81.568627%);fill-opacity:1;" d="M 225.171875 97.230469 C 213.859375 86.515625 197.992188 77.683594 177.390625 72.035156 C 177.351562 72.023438 177.3125 72.015625 177.269531 72.007812 L 177.265625 72.003906 L 177.257812 72.003906 C 128.175781 58.628906 110.65625 90.269531 150.453125 110.207031 C 195.570312 132.808594 201.847656 169.839844 176.375 192.984375 C 169.890625 198.878906 148.804688 209.863281 129.414062 212.554688 C 98.589844 216.828125 64.433594 210.277344 36.65625 201.4375 C 52.777344 213.886719 70.050781 222.175781 87.472656 226.953125 C 130.78125 238.867188 183.089844 230.097656 217.761719 199.917969 C 252.675781 169.511719 256 126.402344 225.171875 97.230469 Z M 177.410156 72.042969 C 177.5625 72.082031 177.710938 72.128906 177.855469 72.171875 C 177.707031 72.132812 177.5625 72.082031 177.410156 72.042969 Z M 177.410156 72.042969 "/>
<path style=" stroke:none;fill-rule:evenodd;fill:rgb(0%,55.294118%,81.568627%);fill-opacity:1;" d="M 83.042969 25.832031 C 83.058594 25.816406 83.078125 25.816406 83.09375 25.816406 C 131.339844 6.132812 187.054688 13.339844 228.800781 45.660156 C 176.941406 29.144531 136.710938 30.570312 110.308594 41.210938 C 110.179688 41.257812 110.046875 41.304688 109.917969 41.367188 C 77.332031 54.667969 66.035156 82.054688 80.222656 106.773438 C 87.867188 120.09375 101.339844 130.050781 115.023438 136.890625 C 151.152344 155.007812 140.039062 182.757812 100.925781 177.691406 C 96.933594 177.175781 92.628906 176.320312 88.066406 175.066406 C 11.265625 154.046875 0 88.722656 47.703125 47.179688 C 57.546875 38.609375 69.566406 31.3125 83.042969 25.832031 Z M 83.042969 25.832031 "/>
</g>
</svg>
