<svg width="14" height="13" viewBox="0 0 14 13" fill="none" xmlns="http://www.w3.org/2000/svg">
<path d="M13.1037 10.205L10.9161 7.23283C10.6785 6.90986 10.3266 6.71639 9.95179 6.67373C9.86648 6.66383 9.79031 6.61432 9.74765 6.53967C9.70423 6.46502 9.69966 6.37438 9.73394 6.29516C9.884 5.94934 9.89314 5.54792 9.73165 5.18078L8.25165 1.8003C8.03228 1.29834 7.5364 0.974609 6.98873 0.974609C6.44106 0.974609 5.94519 1.2991 5.72582 1.8003L4.24581 5.18078C4.08509 5.54792 4.09347 5.94934 4.24353 6.29516C4.2778 6.37438 4.27247 6.46502 4.22982 6.53967C4.1864 6.61432 4.11099 6.66383 4.02568 6.67373C3.65092 6.71639 3.29901 6.90986 3.06135 7.23283L0.87372 10.205C0.549231 10.6461 0.516477 11.2371 0.789931 11.7117C1.06415 12.1855 1.59277 12.4528 2.13663 12.3927L5.80427 11.9844C6.20265 11.9402 6.54618 11.7323 6.77012 11.4291C6.82116 11.3598 6.90266 11.3186 6.98873 11.3186C7.07481 11.3186 7.15555 11.3598 7.20734 11.4291C7.43129 11.7323 7.77482 11.9402 8.17319 11.9844L11.8408 12.3927C12.3847 12.4536 12.9133 12.1862 13.1875 11.7117C13.461 11.2371 13.4282 10.6461 13.1037 10.205ZM5.20252 5.60505L6.68481 2.22077C6.73813 2.09966 6.85772 2.0212 6.98949 2.0212C7.12127 2.0212 7.24086 2.09966 7.29418 2.22077L8.77647 5.60505C8.82293 5.71169 8.81303 5.83509 8.74905 5.93258C8.68506 6.03008 8.5769 6.08874 8.4596 6.08874H5.51863C5.40209 6.08874 5.29317 6.03008 5.22918 5.93258C5.1652 5.83509 5.15605 5.71169 5.20252 5.60505ZM5.96347 10.7573C5.91091 10.8616 5.80884 10.9317 5.69306 10.9446L2.02162 11.3529C1.8906 11.3674 1.76263 11.3034 1.69637 11.1892C1.6301 11.0749 1.63848 10.9325 1.71693 10.8258L3.90685 7.85057C3.97617 7.75688 4.08738 7.70356 4.20392 7.71042C4.32046 7.71651 4.42558 7.78126 4.48423 7.88256L4.48651 7.88637L5.95281 10.4259L5.95509 10.4297C6.01374 10.531 6.01679 10.6544 5.96423 10.758L5.96347 10.7573ZM7.29037 9.6086C7.22791 9.716 7.11366 9.78303 6.98873 9.78303C6.86458 9.78303 6.74956 9.71677 6.6871 9.60937L5.56053 7.65862C5.49807 7.55122 5.49807 7.41792 5.56053 7.31052C5.62299 7.20312 5.73724 7.13609 5.86216 7.13609H8.11454C8.2387 7.13609 8.35372 7.2016 8.41618 7.30976C8.47864 7.41792 8.47864 7.55046 8.41618 7.65786L7.29037 9.6086ZM12.2819 11.1892C12.2156 11.3034 12.0884 11.3682 11.9566 11.3537L8.28516 10.9454C8.16938 10.9325 8.06732 10.8624 8.01476 10.758C7.9622 10.6537 7.96525 10.5303 8.0239 10.4297L8.02618 10.4259L9.49248 7.88637L9.49476 7.88256C9.55342 7.78126 9.65853 7.71651 9.77507 7.71042C9.89161 7.70433 10.0028 7.75688 10.0721 7.85057L12.2621 10.8258C12.3405 10.9325 12.3474 11.0749 12.2819 11.1892Z" fill="#E81899"/>
</svg>
