<svg width="50" height="50" viewBox="0 0 50 50" fill="none" xmlns="http://www.w3.org/2000/svg">
<ellipse cx="25" cy="24.9999" rx="25" ry="24.9999" fill="white"/>
<path d="M41.6039 32.046L35.7778 24.1304C35.1449 23.2702 34.2077 22.755 33.2096 22.6414C32.9825 22.615 32.7796 22.4832 32.6659 22.2844C32.5503 22.0855 32.5381 21.8442 32.6294 21.6332C33.0291 20.7122 33.0534 19.6432 32.6234 18.6654L28.6818 9.66245C28.0976 8.32559 26.7769 7.46344 25.3183 7.46344C23.8598 7.46344 22.5392 8.32762 21.955 9.66245L18.0134 18.6654C17.5853 19.6432 17.6077 20.7122 18.0073 21.6332C18.0986 21.8442 18.0844 22.0855 17.9708 22.2844C17.8551 22.4832 17.6543 22.615 17.4271 22.6414C16.429 22.755 15.4918 23.2702 14.8589 24.1304L9.03277 32.046C8.16859 33.2205 8.08135 34.7947 8.80962 36.0586C9.53992 37.3204 10.9478 38.0325 12.3962 37.8722L22.1639 36.7849C23.2248 36.6671 24.1398 36.1134 24.7362 35.306C24.8721 35.1214 25.0892 35.0118 25.3183 35.0118C25.5476 35.0118 25.7626 35.1214 25.9006 35.306C26.497 36.1134 27.4119 36.6671 28.4729 36.7849L38.2406 37.8722C39.689 38.0345 41.0968 37.3224 41.8271 36.0586C42.5553 34.7947 42.4682 33.2205 41.6039 32.046ZM20.5613 19.7953L24.5089 10.7822C24.651 10.4597 24.9694 10.2507 25.3203 10.2507C25.6713 10.2507 25.9898 10.4597 26.1319 10.7822L30.0795 19.7953C30.2033 20.0793 30.1769 20.4079 30.0065 20.6676C29.8361 20.9272 29.5481 21.0834 29.2357 21.0834H21.4032C21.0928 21.0834 20.8027 20.9272 20.6323 20.6676C20.4619 20.4079 20.4355 20.0793 20.5593 19.7953H20.5613ZM22.5878 33.5167C22.4479 33.7947 22.1761 33.9813 21.8677 34.0158L12.0899 35.1031C11.7409 35.1416 11.4001 34.9713 11.2237 34.667C11.0472 34.3626 11.0695 33.9833 11.2784 33.6993L17.1107 25.7756C17.2953 25.5261 17.5914 25.3841 17.9018 25.4023C18.2122 25.4186 18.4921 25.591 18.6483 25.8608L18.6544 25.8709L22.5595 32.6344L22.5656 32.6444C22.7218 32.9143 22.7298 33.2429 22.5898 33.5187L22.5878 33.5167ZM26.1217 30.4576C25.9553 30.7436 25.6511 30.9222 25.3183 30.9222C24.9877 30.9222 24.6814 30.7457 24.5151 30.4596L21.5147 25.2644C21.3484 24.9784 21.3484 24.6234 21.5147 24.3374C21.6811 24.0512 21.9854 23.8728 22.3181 23.8728H28.3167C28.6473 23.8728 28.9536 24.0472 29.1199 24.3354C29.2863 24.6234 29.2863 24.9764 29.1199 25.2624L26.1217 30.4576ZM39.4151 34.667C39.2386 34.9713 38.8998 35.1438 38.549 35.1051L28.7711 34.0178C28.4627 33.9833 28.1909 33.7967 28.051 33.5187C27.911 33.2409 27.919 32.9122 28.0752 32.6444L28.0814 32.6344L31.9864 25.8709L31.9924 25.8608C32.1486 25.591 32.4286 25.4186 32.739 25.4023C33.0494 25.3861 33.3455 25.5261 33.5302 25.7756L39.3624 33.6993C39.5713 33.9833 39.5915 34.3626 39.4171 34.667H39.4151Z" fill="#E91898"/>
</svg>
