<svg width="51" height="50" viewBox="0 0 51 50" fill="none" xmlns="http://www.w3.org/2000/svg">
<ellipse cx="25.6816" cy="24.9999" rx="25" ry="24.9999" fill="#A76FF2"/>
<path fill-rule="evenodd" clip-rule="evenodd" d="M30.0418 10.0038C29.4393 9.96385 28.8601 10.2432 28.5158 10.7397L27.3795 12.3785L18.6521 12.3269C17.8944 12.3224 17.1616 12.5963 16.5922 13.0966L14.0534 15.3275C13.1002 16.1652 12.754 17.5004 13.1797 18.6964L14.1842 21.518C13.5851 22.4999 13.2366 23.6187 13.175 24.7746L13.1545 25.1595C13.0189 27.7039 13.3182 30.2525 14.0398 32.6961L15.6379 38.1086C16.0361 39.457 17.4154 40.2547 18.7811 39.9263C20.3167 39.5571 22.9543 38.9227 25.0316 38.4219C26.9984 37.9478 28.8676 37.1396 30.5618 36.0359L31.5471 35.394C32.5163 34.7626 33.3097 33.9011 33.8595 32.8907L36.8025 32.3508C38.0501 32.1219 39.0319 31.1541 39.2798 29.9088L39.9403 26.5922C40.0884 25.8482 39.9588 25.0759 39.5762 24.4213L35.2778 17.0683C35.1898 16.9178 35.175 16.7353 35.2375 16.5726L36.7311 12.6842C37.1468 11.6018 36.3961 10.4257 35.2401 10.3489L30.0418 10.0038ZM18.255 14.9938C18.3605 14.9011 18.4962 14.8504 18.6365 14.8512L27.7869 14.9053C28.8419 14.9114 29.4519 13.9357 29.9847 13.0835C30.1014 12.8968 30.2144 12.716 30.3276 12.5527L33.9857 12.7956L32.8831 15.6661C32.5454 16.5452 32.6255 17.5304 33.1007 18.3433L37.399 25.6963C37.4699 25.8176 37.4939 25.9607 37.4665 26.0983L36.806 29.415C36.7601 29.6456 36.5782 29.8248 36.3473 29.8672L32.8041 30.5172C32.37 30.5969 32.0038 30.8894 31.8305 31.2973C31.486 32.1079 30.9083 32.7973 30.171 33.2776L29.1857 33.9195C27.7306 34.8675 26.1267 35.5607 24.4406 35.9671C22.364 36.4677 19.727 37.102 18.1915 37.4712C18.1307 37.4858 18.0732 37.4525 18.0555 37.3925L16.4573 31.9801C15.8172 29.8122 15.5517 27.5511 15.672 25.2937L15.6925 24.9088C15.7394 24.0292 16.0468 23.1836 16.5757 22.4799C16.8433 22.1238 16.9104 21.6609 16.7648 21.2485L16.7637 21.2454L15.5544 17.8485C15.4756 17.627 15.5397 17.3798 15.7162 17.2247L18.255 14.9938Z" fill="white"/>
</svg>
