<svg class="Logo_logoIcon__WIj2H" width="22.5" height="22.5" viewBox="0 0 25 25" fill="none" xmlns="http://www.w3.org/2000/svg" aria-label="Tempo"><path fill-rule="evenodd" clip-rule="evenodd" d="M24.511 24.4736H0V0H24.511V24.4736ZM8.35121 6.79148C8.20251 6.79148 8.07057 6.88658 8.02367 7.02743L6.97032 10.183C6.93107 10.3006 7.01871 10.4219 7.14268 10.4219H10.2014C10.3253 10.4219 10.4129 10.5432 10.3737 10.6608L8.10945 17.4433C8.07018 17.561 8.15782 17.6822 8.28179 17.6822H11.5619C11.7106 17.6822 11.8425 17.5871 11.8894 17.4463L14.156 10.6576C14.2028 10.5167 14.3348 10.4216 14.4835 10.4216H17.5487C17.6974 10.4216 17.8295 10.3265 17.8764 10.1857L18.9296 7.03033C18.9689 6.91273 18.8812 6.79148 18.7572 6.79148H8.35121Z" fill="currentColor"></path></svg>
