<svg width="50" height="50" viewBox="0 0 50 50" fill="none" xmlns="http://www.w3.org/2000/svg">
<ellipse cx="25" cy="24.9999" rx="25" ry="24.9999" fill="white"/>
<mask id="mask0_62_116" style="mask-type:luminance" maskUnits="userSpaceOnUse" x="9" y="7" width="34" height="33">
<path d="M42.3184 7H9.31836V40H42.3184V7Z" fill="white"/>
</mask>
<g mask="url(#mask0_62_116)">
<path d="M28.9101 11.2941C28.9696 11.3176 29.0282 11.3433 29.0884 11.3641C29.6369 11.5535 30.2005 11.7075 30.7303 11.9393C31.4159 12.2392 32.0942 12.5674 32.7387 12.9462C33.2933 13.272 33.8256 13.6515 34.3143 14.0696C34.9504 14.6136 35.552 15.2016 36.1328 15.8051C36.4717 16.1573 36.7652 16.5606 37.0355 16.9697C37.4288 17.5648 37.8304 18.1628 38.1413 18.802C38.4914 19.522 38.7617 20.283 39.0336 21.038C39.1861 21.4608 39.3052 22.1992 39.4861 22.6063C39.5842 22.8271 37.9101 21.6425 36.8916 21.3669C36.815 21.3416 36.7396 21.3118 36.6618 21.2915C35.5864 21.0121 34.4965 20.9275 33.3913 21.0471L32.4937 21.2021C32.4811 21.2014 32.4688 21.2022 32.4564 21.2044C31.5595 21.362 30.7252 21.6952 29.9454 22.1532C28.6282 22.9271 27.2337 23.3364 25.6974 23.1171C24.79 22.9876 23.965 22.6521 23.2534 22.0617C23.2245 22.0245 23.1998 21.9827 23.1659 21.9509C22.0237 20.8834 21.4534 19.5814 21.5963 18.0098C21.7075 16.7874 22.2884 15.7902 23.17 14.9576C23.9571 14.2143 24.9525 13.8102 25.8856 13.3066C27.0753 12.6648 28.2606 12.0211 29.0718 10.883C29.1655 10.7517 28.9421 11.2382 28.9101 11.2941Z" fill="#F5E25D"/>
<path d="M39.6913 24.3756C39.7071 24.9644 39.7292 25.5565 39.6875 26.1429C39.6465 26.7176 39.5327 27.2871 39.4459 27.8582C39.3766 28.3149 39.3215 28.7753 39.2199 29.2249C39.1448 29.5574 39.0164 29.88 38.8913 30.1989C38.665 30.7762 38.4597 31.3663 38.178 31.9164C37.866 32.5262 37.4816 33.0993 37.1224 33.6845C36.9995 33.8848 36.8579 34.0738 36.7247 34.2678L35.6697 34.5508L34.3715 34.4724L33.7557 34.3462C33.593 34.283 33.4293 34.2221 33.2676 34.1561C32.3648 33.7872 31.6379 33.1899 31.036 32.431C31.006 32.3787 30.9794 32.3239 30.9456 32.2741C30.4498 31.5461 30.1439 30.7482 30.0564 29.8694C30.0564 29.714 30.0617 29.5582 30.0556 29.4029C30.0048 28.1093 30.4028 26.9573 31.2182 25.9683C31.5667 25.5456 32.0143 25.2047 32.4167 24.8265C32.6411 24.7174 32.8565 24.581 33.0914 24.5047C33.7188 24.301 34.3545 24.1231 34.9868 23.935C35.0341 23.9347 35.0822 23.94 35.1285 23.933C36.5106 23.7271 37.8916 23.7781 39.2732 23.9413C39.468 23.9642 39.638 23.9959 39.6299 24.2544C39.6743 23.9731 39.685 24.1429 39.6913 24.3756Z" fill="#F5E25D"/>
<path d="M39.6719 22.7479C38.8467 22.0971 37.9105 21.6425 36.8921 21.367C36.8155 21.3416 36.7401 21.3118 36.6622 21.2915C35.5869 21.0122 34.497 20.9276 33.3918 21.0471L32.4942 21.2021C32.4816 21.2014 32.4691 21.2022 32.4567 21.2045C31.5598 21.362 30.7255 21.6953 29.9459 22.1533C28.6287 22.9271 27.2342 23.3364 25.6979 23.1171C24.7905 22.9876 23.9655 22.6521 23.2539 22.0617C23.2249 22.0246 23.2003 21.9827 23.1663 21.9509C22.0241 20.8835 21.4539 19.5814 21.5968 18.0099C21.7079 16.7874 22.2888 15.7902 23.1705 14.9577C23.9576 14.2143 24.9529 13.8102 25.8861 13.3067C27.0758 12.6648 28.2611 12.0211 29.0722 10.8831C29.166 10.7517 29.2605 10.62 29.3668 10.4991C29.4666 10.3856 29.5823 10.2863 29.691 10.1807C30.1377 9.32919 30.0774 8.408 30.0604 7.49275C30.0334 7.37462 30.0225 7.24916 29.9733 7.14113C29.9439 7.07667 29.8553 7.00118 29.792 7.00002C29.7162 6.99866 29.5935 7.05381 29.5701 7.11475C29.3787 7.61519 29.0213 7.9911 28.6206 8.30922C27.5625 9.14937 26.2895 9.5323 25.0234 9.91768C24.2486 10.1535 23.4509 10.325 22.6941 10.6074C21.5149 11.0473 20.3581 11.5484 19.1985 12.0395C17.9935 12.5498 16.8848 13.2298 15.8801 14.0646C14.8807 14.895 13.9882 15.8245 13.2414 16.9026C12.6207 17.7986 12.1057 18.7434 11.6669 19.733C11.4941 20.1227 11.3705 20.5371 11.2564 20.9491C11.0953 21.5305 10.9572 22.1185 10.8222 22.7066C10.7383 23.0724 10.6291 23.4421 10.6175 23.8128C10.5883 24.7461 10.6081 25.681 10.6082 26.6152C10.6157 26.8097 10.6062 27.0069 10.634 27.1985C10.6964 27.6275 10.7585 28.058 10.8561 28.4799C10.9521 28.8947 11.0918 29.2994 11.2123 29.7085C11.4028 30.1515 11.5755 30.6034 11.7902 31.0344C11.9354 31.3259 12.1397 31.5883 12.3176 31.8637C12.3546 31.9201 12.3897 31.978 12.4288 32.033C13.0244 32.8692 13.8136 33.4866 14.677 34.0201C15.1212 34.2004 15.555 34.4151 16.0123 34.5519C16.534 34.7078 17.0765 34.7942 17.61 34.9109L18.2174 34.955L19.2349 34.9551C20.296 34.8995 21.3345 34.7094 22.3177 34.3091C23.1673 33.9633 24.0196 33.6034 24.8172 33.1546C25.994 32.4927 26.757 31.4127 27.4496 30.2858C27.6371 29.9809 27.8296 29.6791 28.0199 29.376C28.4693 28.6792 28.8772 27.9509 29.3782 27.2933C30.105 26.3396 31.0153 25.5734 32.0675 24.9863C32.1789 24.9241 32.3 24.8794 32.4166 24.8266C32.6409 24.7175 32.8564 24.5811 33.0912 24.5047C33.7185 24.3011 34.3542 24.1232 34.9865 23.9349C35.0339 23.9346 35.082 23.9399 35.1282 23.933C36.5103 23.727 37.8915 23.7782 39.273 23.9412C39.4677 23.9641 39.6379 23.9958 39.6298 24.2545C39.6742 23.9731 39.7522 23.9387 39.9858 24.0905C40.2794 24.1184 40.5726 24.1549 40.8666 24.1663C40.9212 24.1684 40.9798 24.0688 41.0366 24.0161C40.5836 23.5909 40.1579 23.1311 39.6719 22.7479Z" fill="url(#paint0_linear_62_116)"/>
<path d="M37.6668 34.1556C37.6658 34.1242 37.5509 34.0591 37.51 34.0731C37.3244 34.1369 37.1465 34.2237 36.966 34.3023L36.7231 34.2678L35.6681 34.5506L34.3699 34.4724L33.7541 34.3462C33.5914 34.2828 33.4278 34.2221 33.2661 34.1561C32.3632 33.787 31.6364 33.1897 31.0344 32.431C31.0044 32.3785 30.9778 32.3239 30.944 32.2741C30.4482 31.5461 30.1423 30.7482 30.0548 29.8694C30.0548 29.7139 30.0601 29.5582 30.054 29.4029C30.0032 28.1093 30.4012 26.9573 31.2166 25.9681C31.5651 25.5455 32.0127 25.2047 32.4152 24.8265C32.2987 24.8793 32.1776 24.9242 32.0662 24.9862C31.014 25.5734 30.1037 26.3397 29.3768 27.2932C28.8759 27.9508 28.468 28.6792 28.0186 29.376C27.8283 29.6791 27.6358 29.9809 27.4483 30.2857C26.7557 31.4126 25.9927 32.4925 24.8158 33.1547C24.0182 33.6033 23.1659 33.9632 22.3163 34.3092C21.3331 34.7093 20.2947 34.8996 19.2335 34.955H18.2161L17.6086 34.9108C17.0751 34.7941 16.5326 34.7077 16.0109 34.5517C15.5537 34.4151 15.1198 34.2003 14.6756 34.0201C13.8122 33.4865 13.0231 32.8691 12.4275 32.0329C12.3883 31.9779 12.3532 31.9202 12.3163 31.8636C12.1384 31.5882 11.934 31.326 11.7888 31.0343C11.5741 30.6033 11.4015 30.1515 11.2109 29.7085C11.255 29.8898 11.2754 30.0812 11.3473 30.2507C11.6455 30.9534 11.9294 31.6649 12.2767 32.3435C12.5596 32.8965 12.9251 33.4071 13.254 33.9365C13.5357 34.2945 13.7895 34.6795 14.1052 35.0045C14.6496 35.565 15.2209 36.1009 15.8035 36.622C16.139 36.922 16.5057 37.1924 16.882 37.4404C17.3882 37.7739 17.9052 38.0954 18.4404 38.3789C18.8353 38.5881 19.2668 38.7284 19.682 38.8993C20.6421 39.29 21.6248 39.6032 22.6513 39.7671L23.6981 39.9215L25.5808 39.9994C25.6331 39.973 25.6838 39.9271 25.7374 39.9241C26.3131 39.8925 26.8891 39.8677 27.4652 39.8411C27.6046 39.8242 27.7476 39.8213 27.8828 39.7877C28.4928 39.6352 29.1086 39.4996 29.7068 39.3094C30.3475 39.1056 30.9711 38.8474 31.6022 38.6131C31.7872 38.5367 31.9837 38.4802 32.1553 38.3809C33.1053 37.8311 34.0722 37.3053 34.9877 36.702C35.6041 36.2958 36.1546 35.7861 36.7157 35.301C37.0324 35.0274 37.3157 34.7144 37.6021 34.4082C37.6556 34.3509 37.6696 34.2404 37.6668 34.1556Z" fill="url(#paint1_linear_62_116)"/>
</g>
<defs>
<linearGradient id="paint0_linear_62_116" x1="13.8971" y1="8.94515" x2="29.5638" y2="31.7667" gradientUnits="userSpaceOnUse">
<stop offset="0.18153" stop-color="#FEC63D"/>
<stop offset="1" stop-color="#F21526"/>
</linearGradient>
<linearGradient id="paint1_linear_62_116" x1="19.2409" y1="15.0079" x2="26.9847" y2="40.3055" gradientUnits="userSpaceOnUse">
<stop offset="0.60567" stop-color="#FEC63D"/>
<stop offset="1" stop-color="#F21526"/>
</linearGradient>
</defs>
</svg>
