<svg width="52" height="50" viewBox="0 0 52 50" fill="none" xmlns="http://www.w3.org/2000/svg">
<ellipse cx="26.0905" cy="24.9999" rx="25.4089" ry="24.9999" fill="white"/>
<mask id="mask0_201_105" style="mask-type:luminance" maskUnits="userSpaceOnUse" x="10" y="7" width="33" height="33">
<path d="M43 7H10V40H43V7Z" fill="white"/>
</mask>
<g mask="url(#mask0_201_105)">
<path d="M29.5917 11.2941C29.6513 11.3175 29.7098 11.3432 29.7701 11.3641C30.3185 11.5534 30.8822 11.7075 31.412 11.9393C32.0975 12.2392 32.7759 12.5674 33.4204 12.9461C33.9749 13.272 34.5072 13.6515 34.9959 14.0695C35.632 14.6136 36.2336 15.2016 36.8144 15.8051C37.1533 16.1573 37.4468 16.5606 37.7171 16.9696C38.1105 17.5648 38.5121 18.1628 38.8229 18.8019C39.1731 19.522 39.4433 20.283 39.7153 21.038C39.8677 21.4608 39.9869 22.1992 40.1677 22.6062C40.2659 22.8271 38.5918 21.6424 37.5732 21.3669C37.4967 21.3415 37.4213 21.3117 37.3434 21.2915C36.2681 21.0121 35.1781 20.9275 34.0729 21.0471L33.1753 21.202C33.1628 21.2014 33.1504 21.2022 33.138 21.2044C32.2411 21.362 31.4069 21.6952 30.6271 22.1532C29.3099 22.927 27.9153 23.3363 26.3791 23.1171C25.4717 22.9876 24.6467 22.6521 23.9351 22.0616C23.9061 22.0245 23.8815 21.9827 23.8475 21.9509C22.7053 20.8834 22.1351 19.5814 22.278 18.0098C22.3891 16.7873 22.97 15.7901 23.8517 14.9576C24.6388 14.2143 25.6341 13.8101 26.5672 13.3066C27.7569 12.6647 28.9423 12.0211 29.7534 10.883C29.8471 10.7517 29.6237 11.2381 29.5917 11.2941Z" fill="#F5E25D"/>
<path d="M40.3729 24.3756C40.3887 24.9644 40.4109 25.5565 40.3691 26.1429C40.3282 26.7176 40.2143 27.2871 40.1275 27.8582C40.0582 28.3149 40.0031 28.7753 39.9015 29.2249C39.8264 29.5574 39.6981 29.88 39.573 30.1989C39.3466 30.7762 39.1413 31.3663 38.8597 31.9164C38.5477 32.5262 38.1632 33.0993 37.804 33.6845C37.6811 33.8848 37.5395 34.0738 37.4064 34.2678L36.3514 34.5508L35.0531 34.4724L34.4374 34.3462C34.2747 34.283 34.111 34.2221 33.9493 34.1561C33.0464 33.7872 32.3196 33.1899 31.7177 32.431C31.6876 32.3787 31.6611 32.3239 31.6272 32.2741C31.1314 31.5461 30.8255 30.7482 30.7381 29.8694C30.7381 29.714 30.7433 29.5582 30.7372 29.4029C30.6864 28.1093 31.0844 26.9573 31.8998 25.9683C32.2483 25.5456 32.6959 25.2047 33.0984 24.8265C33.3228 24.7174 33.5381 24.581 33.7731 24.5047C34.4004 24.301 35.0361 24.1231 35.6684 23.935C35.7158 23.9347 35.7638 23.94 35.8102 23.933C37.1922 23.7271 38.5732 23.7781 39.9548 23.9413C40.1497 23.9642 40.3196 23.9959 40.3115 24.2544C40.3559 23.9731 40.3666 24.1429 40.3729 24.3756Z" fill="#F5E25D"/>
<path d="M40.3535 22.7479C39.5283 22.0971 38.5921 21.6425 37.5737 21.367C37.4972 21.3416 37.4218 21.3118 37.3439 21.2915C36.2686 21.0122 35.1786 20.9276 34.0734 21.0471L33.1758 21.2021C33.1633 21.2014 33.1507 21.2022 33.1384 21.2045C32.2414 21.362 31.4072 21.6953 30.6276 22.1533C29.3104 22.9271 27.9158 23.3364 26.3795 23.1171C25.4721 22.9876 24.6471 22.6521 23.9356 22.0617C23.9066 22.0246 23.8819 21.9827 23.8479 21.9509C22.7058 20.8835 22.1355 19.5814 22.2784 18.0099C22.3896 16.7874 22.9705 15.7902 23.8521 14.9577C24.6392 14.2143 25.6346 13.8102 26.5677 13.3067C27.7574 12.6648 28.9428 12.0211 29.7539 10.8831C29.8476 10.7517 29.9422 10.62 30.0484 10.4991C30.1482 10.3856 30.2639 10.2863 30.3726 10.1807C30.8193 9.32919 30.7591 8.408 30.7421 7.49275C30.715 7.37462 30.7041 7.24916 30.655 7.14113C30.6256 7.07667 30.537 7.00118 30.4736 7.00002C30.3979 6.99866 30.2751 7.05381 30.2517 7.11475C30.0603 7.61519 29.7029 7.9911 29.3023 8.30922C28.2441 9.14937 26.9712 9.5323 25.7051 9.91768C24.9302 10.1535 24.1325 10.325 23.3757 10.6074C22.1965 11.0473 21.0397 11.5484 19.8801 12.0395C18.6751 12.5498 17.5664 13.2298 16.5617 14.0646C15.5624 14.895 14.6699 15.8245 13.923 16.9026C13.3024 17.7986 12.7873 18.7434 12.3486 19.733C12.1758 20.1227 12.0521 20.5371 11.938 20.9491C11.7769 21.5305 11.6388 22.1185 11.5039 22.7066C11.42 23.0724 11.3107 23.4421 11.2991 23.8128C11.27 24.7461 11.2897 25.681 11.2899 26.6152C11.2973 26.8097 11.2878 27.0069 11.3156 27.1985C11.378 27.6275 11.4401 28.058 11.5377 28.4799C11.6337 28.8947 11.7734 29.2994 11.8939 29.7085C12.0845 30.1515 12.2571 30.6034 12.4718 31.0344C12.6171 31.3259 12.8214 31.5883 12.9993 31.8637C13.0362 31.9201 13.0714 31.978 13.1105 32.033C13.7061 32.8692 14.4953 33.4866 15.3586 34.0201C15.8028 34.2004 16.2367 34.4151 16.6939 34.5519C17.2156 34.7078 17.7581 34.7942 18.2916 34.9109L18.8991 34.955L19.9165 34.9551C20.9777 34.8995 22.0161 34.7094 22.9993 34.3091C23.849 33.9633 24.7012 33.6034 25.4988 33.1546C26.6757 32.4927 27.4386 31.4127 28.1313 30.2858C28.3187 29.9809 28.5113 29.6791 28.7015 29.376C29.151 28.6792 29.5589 27.9509 30.0598 27.2933C30.7866 26.3396 31.6969 25.5734 32.7491 24.9863C32.8605 24.9241 32.9816 24.8794 33.0983 24.8266C33.3225 24.7175 33.538 24.5811 33.7728 24.5047C34.4001 24.3011 35.0359 24.1232 35.6682 23.9349C35.7155 23.9346 35.7637 23.9399 35.8099 23.933C37.1919 23.727 38.5731 23.7782 39.9547 23.9412C40.1494 23.9641 40.3195 23.9958 40.3114 24.2545C40.3558 23.9731 40.4338 23.9387 40.6675 24.0905C40.961 24.1184 41.2542 24.1549 41.5483 24.1663C41.6029 24.1684 41.6614 24.0688 41.7182 24.0161C41.2653 23.5909 40.8396 23.1311 40.3535 22.7479Z" fill="url(#paint0_linear_201_105)"/>
<path d="M38.3484 34.1556C38.3474 34.1242 38.2326 34.0591 38.1917 34.0731C38.006 34.1369 37.8282 34.2237 37.6477 34.3023L37.4048 34.2678L36.3498 34.5506L35.0516 34.4724L34.4358 34.3462C34.2731 34.2828 34.1094 34.2221 33.9477 34.1561C33.0448 33.787 32.318 33.1897 31.7161 32.431C31.686 32.3785 31.6595 32.3239 31.6257 32.2741C31.1298 31.5461 30.8239 30.7482 30.7365 29.8694C30.7365 29.7139 30.7418 29.5582 30.7356 29.4029C30.6848 28.1093 31.0828 26.9573 31.8982 25.9681C32.2467 25.5455 32.6944 25.2047 33.0968 24.8265C32.9803 24.8793 32.8592 24.9242 32.7478 24.9862C31.6956 25.5734 30.7853 26.3397 30.0585 27.2932C29.5575 27.9508 29.1497 28.6792 28.7002 29.376C28.51 29.6791 28.3174 29.9809 28.13 30.2857C27.4373 31.4126 26.6743 32.4925 25.4974 33.1547C24.6998 33.6033 23.8476 33.9632 22.9979 34.3092C22.0148 34.7093 20.9763 34.8996 19.9151 34.955H18.8977L18.2903 34.9108C17.7567 34.7941 17.2142 34.7077 16.6925 34.5517C16.2353 34.4151 15.8014 34.2003 15.3572 34.0201C14.4939 33.4865 13.7047 32.8691 13.1091 32.0329C13.07 31.9779 13.0349 31.9202 12.9979 31.8636C12.82 31.5882 12.6157 31.326 12.4704 31.0343C12.2558 30.6033 12.0831 30.1515 11.8926 29.7085C11.9367 29.8898 11.9571 30.0812 12.029 30.2507C12.3272 30.9534 12.6111 31.6649 12.9583 32.3435C13.2412 32.8965 13.6068 33.4071 13.9357 33.9365C14.2173 34.2945 14.4712 34.6795 14.7868 35.0045C15.3312 35.565 15.9025 36.1009 16.4852 36.622C16.8207 36.922 17.1874 37.1924 17.5637 37.4404C18.0698 37.7739 18.5868 38.0954 19.122 38.3789C19.5169 38.5881 19.9484 38.7284 20.3636 38.8993C21.3237 39.29 22.3065 39.6032 23.3329 39.7671L24.3797 39.9215L26.2624 39.9994C26.3148 39.973 26.3654 39.9271 26.4191 39.9241C26.9948 39.8925 27.5708 39.8677 28.1468 39.8411C28.2862 39.8242 28.4293 39.8213 28.5644 39.7877C29.1744 39.6352 29.7902 39.4996 30.3885 39.3094C31.0292 39.1056 31.6527 38.8474 32.2838 38.6131C32.4688 38.5367 32.6653 38.4802 32.8369 38.3809C33.787 37.8311 34.7539 37.3053 35.6693 36.702C36.2858 36.2958 36.8362 35.7861 37.3974 35.301C37.714 35.0274 37.9973 34.7144 38.2837 34.4082C38.3372 34.3509 38.3512 34.2404 38.3484 34.1556Z" fill="url(#paint1_linear_201_105)"/>
</g>
<defs>
<linearGradient id="paint0_linear_201_105" x1="14.5787" y1="8.94515" x2="30.2454" y2="31.7667" gradientUnits="userSpaceOnUse">
<stop offset="0.18153" stop-color="#FEC63D"/>
<stop offset="1" stop-color="#F21526"/>
</linearGradient>
<linearGradient id="paint1_linear_201_105" x1="19.9225" y1="15.0079" x2="27.6663" y2="40.3055" gradientUnits="userSpaceOnUse">
<stop offset="0.60567" stop-color="#FEC63D"/>
<stop offset="1" stop-color="#F21526"/>
</linearGradient>
</defs>
</svg>
