<svg width="20" height="20" viewBox="0 0 20 20" fill="none" xmlns="http://www.w3.org/2000/svg">
<g clip-path="url(#clip0_3068_10107)">
<path d="M11.8734 2.60251C11.9095 2.61672 11.945 2.6323 11.9815 2.64492C12.3139 2.75968 12.6555 2.85307 12.9766 2.99352C13.3921 3.17529 13.8032 3.37419 14.1938 3.60375C14.5299 3.80125 14.8525 4.03122 15.1487 4.2846C15.5342 4.61432 15.8988 4.97068 16.2508 5.33643C16.4562 5.54989 16.6341 5.79431 16.7979 6.04223C17.0363 6.40291 17.2797 6.76534 17.4681 7.15272C17.6803 7.58909 17.8441 8.05031 18.0089 8.50791C18.1013 8.76415 18.1735 9.21167 18.2831 9.45835C18.3426 9.59221 17.328 8.87424 16.7107 8.70724C16.6643 8.69187 16.6186 8.6738 16.5714 8.66153C15.9197 8.49221 15.2591 8.44094 14.5893 8.51341L14.0453 8.60733C14.0377 8.60692 14.0302 8.6074 14.0227 8.60876C13.4791 8.70425 12.9735 8.90619 12.5009 9.18379C11.7026 9.65277 10.8574 9.90083 9.92636 9.76796C9.37641 9.68948 8.87642 9.48613 8.44515 9.1283C8.42758 9.10579 8.41267 9.08043 8.39207 9.06117C7.69984 8.41421 7.35423 7.62511 7.44084 6.67264C7.50821 5.93174 7.86027 5.32738 8.3946 4.8228C8.87164 4.37232 9.47486 4.12738 10.0404 3.82222C10.7614 3.4332 11.4798 3.04312 11.9714 2.35337C12.0282 2.27376 11.8928 2.56858 11.8734 2.60249L11.8734 2.60251Z" fill="#F5E25D"/>
<path d="M18.4074 10.5306C18.417 10.8875 18.4304 11.2463 18.4051 11.6017C18.3803 11.95 18.3113 12.2952 18.2587 12.6413C18.2167 12.9181 18.1833 13.1971 18.1217 13.4696C18.0762 13.6711 17.9984 13.8666 17.9226 14.0599C17.7854 14.4098 17.661 14.7674 17.4903 15.1008C17.3012 15.4704 17.0682 15.8177 16.8505 16.1724C16.776 16.2938 16.6902 16.4083 16.6095 16.5259L15.9701 16.6974L15.1833 16.6499L14.8101 16.5734C14.7115 16.5351 14.6123 16.4982 14.5143 16.4582C13.9671 16.2346 13.5266 15.8726 13.1618 15.4127C13.1436 15.381 13.1275 15.3478 13.107 15.3176C12.8065 14.8764 12.6211 14.3928 12.5681 13.8602C12.5681 13.766 12.5713 13.6716 12.5676 13.5775C12.5368 12.7935 12.778 12.0953 13.2722 11.4959C13.4834 11.2397 13.7547 11.0331 13.9986 10.8039C14.1346 10.7378 14.2651 10.6551 14.4075 10.6089C14.7877 10.4854 15.173 10.3776 15.5562 10.2636C15.5849 10.2634 15.614 10.2666 15.6421 10.2624C16.4797 10.1376 17.3167 10.1685 18.154 10.2674C18.2721 10.2813 18.3751 10.3005 18.3702 10.4572C18.3971 10.2867 18.4036 10.3896 18.4074 10.5306L18.4074 10.5306Z" fill="#F5E25D"/>
<path d="M18.3957 9.54416C17.8956 9.14974 17.3282 8.87426 16.711 8.70726L16.6661 8.71457L16.6221 8.72165L16.6661 8.71457L16.711 8.70726C16.6646 8.69188 16.6189 8.67381 16.5717 8.66154C15.92 8.49222 15.2594 8.44096 14.5896 8.51342L14.0456 8.60736C14.038 8.60694 14.0304 8.60742 14.0229 8.60878C13.4793 8.70427 12.9737 8.90622 12.5012 9.18381C11.7029 9.65279 10.8577 9.90084 9.92663 9.76797C9.37667 9.68948 8.87669 9.48615 8.44545 9.12831C8.42786 9.1058 8.41294 9.08045 8.39234 9.06118C7.70011 8.41422 7.3545 7.62512 7.44111 6.67266C7.50848 5.93176 7.86054 5.3274 8.39487 4.82282C8.87191 4.37233 9.47513 4.1274 10.0407 3.82223C10.7617 3.43321 11.4801 3.04312 11.9717 2.35337C12.0285 2.27376 12.0858 2.19395 12.1502 2.12066C12.2107 2.0519 12.2808 1.99168 12.3467 1.92771C12.6174 1.41163 12.5809 0.853335 12.5706 0.298635C12.5542 0.227045 12.5476 0.151005 12.5178 0.0855351C12.5 0.0464651 12.4463 0.000715136 12.4079 1.51361e-05C12.362 -0.000814864 12.2876 0.0326151 12.2734 0.0695451C12.1574 0.372845 11.9408 0.600665 11.698 0.793465C11.0567 1.30265 10.2852 1.53473 9.51787 1.76829C9.04825 1.91124 8.56482 2.01517 8.10614 2.1863C7.39148 2.45293 6.69037 2.7566 5.9876 3.05422C5.2573 3.3635 4.58535 3.77566 3.97645 4.28159C3.37078 4.78484 2.82986 5.34817 2.37723 6.0016C2.00109 6.54461 1.68892 7.11721 1.42301 7.71698C1.3183 7.95316 1.24336 8.20433 1.17419 8.45402C1.07658 8.80634 0.992857 9.1627 0.911087 9.51914C0.860227 9.74083 0.794017 9.96492 0.787007 10.1896C0.769327 10.7552 0.781297 11.3218 0.781387 11.888C0.785897 12.0059 0.780127 12.1254 0.797007 12.2415C0.834807 12.5015 0.872457 12.7624 0.931607 13.0181C0.989787 13.2695 1.07445 13.5148 1.14749 13.7627C1.26297 14.0312 1.36761 14.3051 1.4977 14.5663C1.58574 14.743 1.70956 14.902 1.81738 15.0689C1.81389 15.0487 1.81085 15.0284 1.80685 15.0083C1.81085 15.0284 1.8139 15.0487 1.81739 15.0689C1.8398 15.1031 1.86107 15.1382 1.88479 15.1715C2.24576 15.6783 2.72406 16.0525 3.24728 16.3758C3.51649 16.4851 3.77945 16.6152 4.05655 16.6981C4.37275 16.7926 4.70154 16.845 5.02488 16.9157L4.78872 16.7908L5.02489 16.9157L5.39302 16.9424L6.00964 16.9425C6.65277 16.9088 7.28213 16.7936 7.87801 16.551C8.39295 16.3414 8.90946 16.1233 9.39286 15.8513C10.1061 15.4501 10.5685 14.7956 10.9883 14.1126C11.1019 13.9278 11.2186 13.7449 11.3339 13.5612C11.6063 13.1389 11.8535 12.6975 12.1571 12.299C12.5976 11.721 13.1493 11.2566 13.787 10.9008C13.8545 10.8631 13.9279 10.836 13.9986 10.804C14.1345 10.7379 14.2651 10.6552 14.4074 10.6089C14.7876 10.4855 15.1729 10.3777 15.5561 10.2636C15.5848 10.2634 15.614 10.2666 15.642 10.2624C16.4796 10.1376 17.3167 10.1686 18.154 10.2674C18.272 10.2813 18.3751 10.3005 18.3702 10.4573C18.3971 10.2867 18.4444 10.2659 18.586 10.3579C18.7639 10.3748 18.9416 10.3969 19.1198 10.4038C19.1529 10.4051 19.1884 10.3447 19.2228 10.3128C18.9483 10.0551 18.6903 9.77647 18.3957 9.5442L18.3957 9.54416Z" fill="url(#paint0_linear_3068_10107)"/>
<path d="M17.1813 16.4579C17.1807 16.4389 17.1111 16.3994 17.0863 16.4079C16.9738 16.4466 16.866 16.4992 16.7566 16.5468L16.6094 16.5259L15.97 16.6973L15.1832 16.6499L14.81 16.5734C14.7114 16.535 14.6122 16.4982 14.5142 16.4582C13.967 16.2345 13.5265 15.8725 13.1617 15.4127L13.1617 15.4127C13.1435 15.3809 13.1274 15.3478 13.1069 15.3176C12.8064 14.8764 12.621 14.3928 12.568 13.8602C12.568 13.766 12.5712 13.6716 12.5675 13.5775C12.5367 12.7935 12.7779 12.0953 13.2721 11.4958C13.4833 11.2397 13.7546 11.0331 13.9985 10.8039C13.9279 10.8359 13.8545 10.8631 13.787 10.9007C13.1493 11.2566 12.5976 11.721 12.1571 12.2989C11.8535 12.6974 11.6063 13.1389 11.3339 13.5612C11.2186 13.7449 11.1019 13.9278 10.9883 14.1125C10.5685 14.7955 10.1061 15.45 9.39283 15.8513C8.90943 16.1232 8.39292 16.3413 7.87798 16.551C7.28211 16.7935 6.65275 16.9088 6.00961 16.9424L5.39299 16.9424L5.02484 16.9156C4.7015 16.8449 4.37271 16.7925 4.05651 16.698C3.77941 16.6152 3.51645 16.485 3.24724 16.3758C2.72401 16.0524 2.24571 15.6782 1.88475 15.1714C1.86103 15.1381 1.83977 15.1031 1.81735 15.0688C1.70953 14.9019 1.5857 14.743 1.49767 14.5662C1.36758 14.305 1.26294 14.0312 1.14746 13.7627C1.17418 13.8726 1.18654 13.9886 1.23012 14.0913C1.41084 14.5172 1.58291 14.9484 1.79336 15.3597C1.96483 15.6948 2.18636 16.0043 2.38569 16.3251C2.55639 16.5421 2.71024 16.7754 2.90154 16.9724C3.23147 17.3121 3.57774 17.6369 3.93084 17.9527C4.13419 18.1345 4.35643 18.2984 4.58449 18.4487C4.89126 18.6508 5.20458 18.8457 5.52894 19.0175C5.76829 19.1443 6.02979 19.2293 6.28142 19.3329L5.78738 19.0879C5.69986 19.0416 5.61114 18.9973 5.52265 18.9525C5.61114 18.9973 5.69986 19.0416 5.78738 19.0879L6.28142 19.3329C6.86331 19.5697 7.45892 19.7595 8.08099 19.8588C8.02593 19.8413 7.97079 19.824 7.9157 19.8066C7.97079 19.824 8.02594 19.8413 8.08099 19.8588L8.71542 19.9524L9.85645 19.9996L9.85609 20C9.88783 19.984 9.91889 19.9558 9.9514 19.954C10.3003 19.9348 10.6494 19.9198 10.9985 19.9037C11.083 19.8934 11.1697 19.8917 11.2516 19.8713C11.6213 19.7789 11.9945 19.6967 12.3571 19.5814C12.7454 19.4579 13.1233 19.3014 13.5058 19.1594C13.6179 19.1131 13.737 19.0789 13.841 19.0187C14.4168 18.6855 15.0028 18.3668 15.5576 18.0012C15.9312 17.755 16.2648 17.4461 16.6049 17.1521C16.7968 16.9863 16.9685 16.7966 17.1421 16.611C17.1745 16.5763 17.183 16.5093 17.1813 16.4579L17.1813 16.4579ZM3.19812 17.1892C3.17355 17.1543 3.15018 17.1184 3.1261 17.0831C3.15019 17.1184 3.17357 17.1543 3.19814 17.1893L3.19812 17.1892Z" fill="url(#paint1_linear_3068_10107)"/>
</g>
<defs>
<linearGradient id="paint0_linear_3068_10107" x1="2.77461" y1="1.17888" x2="12.2696" y2="15.0101" gradientUnits="userSpaceOnUse">
<stop offset="0.18153" stop-color="#FEC63D"/>
<stop offset="1" stop-color="#F21526"/>
</linearGradient>
<linearGradient id="paint1_linear_3068_10107" x1="6.01409" y1="4.85325" x2="10.7073" y2="20.1851" gradientUnits="userSpaceOnUse">
<stop offset="0.60567" stop-color="#FEC63D"/>
<stop offset="1" stop-color="#F21526"/>
</linearGradient>
<clipPath id="clip0_3068_10107">
<rect width="20" height="20" fill="white"/>
</clipPath>
</defs>
</svg>
