<svg width="40" height="40" viewBox="0 0 40 40" fill="none" xmlns="http://www.w3.org/2000/svg">
<path d="M20 40C31.0457 40 40 31.0457 40 20C40 8.9543 31.0457 0 20 0C8.9543 0 0 8.9543 0 20C0 31.0457 8.9543 40 20 40Z" fill="#5493F7"/>
<path fill-rule="evenodd" clip-rule="evenodd" d="M12.241 8.4878C7.70306 15.1575 25.1566 19.7999 31.3337 18.6789C32.4179 18.4823 35.7176 17.8836 33.4606 13.0792C33.1433 12.4785 32.7013 11.6895 32.3468 11.1147C31.9185 10.5144 31.3196 9.73745 30.8511 9.17488C30.7027 9.00944 30.5506 8.84781 30.396 8.68931C29.1908 7.51839 26.6822 5.08151 20.2564 5C16.452 5.08879 13.7551 6.26214 12.241 8.4878Z" fill="white" fill-opacity="0.6"/>
<path fill-rule="evenodd" clip-rule="evenodd" d="M18.122 29.3883C18.9266 32.6271 21.8136 35.099 23.2716 34.9968C23.3227 34.9932 28.8019 33.8817 31.8009 28.4293C34.1351 24.1859 33.3403 20.0892 30.1657 20C29.0237 20.0905 16.5887 23.2169 18.122 29.3883Z" fill="white" fill-opacity="0.6"/>
<path fill-rule="evenodd" clip-rule="evenodd" d="M15.4228 8.49446C13.5099 11.3489 7.13446 13.3602 6.0861 13.0472C6.08387 13.0431 6.08133 13.0377 6.0791 13.0339C6.12203 12.9478 6.16559 12.8623 6.21011 12.7771C6.57292 12.0822 6.98851 11.4193 7.45148 10.7923C7.91446 10.1656 8.42481 9.57585 8.97713 9.02742C9.52945 8.47932 10.1241 7.97286 10.7559 7.51374C11.148 7.22817 11.5546 6.96121 11.9741 6.71319C12.8666 6.20043 13.7811 6.16729 14.0816 6.15625C16.9205 6.21021 15.4381 8.47174 15.4228 8.49446Z" fill="white"/>
<path fill-rule="evenodd" clip-rule="evenodd" d="M14.687 30.0824C14.8293 31.0128 14.6833 34.6869 14.4919 34.9968C14.3268 35.0066 13.983 35.0276 12.9872 34.4729C12.4642 34.1764 11.96 33.8511 11.4765 33.4993C10.8221 33.0228 10.2058 32.4976 9.63339 31.9291C9.06065 31.3604 8.53173 30.7487 8.05224 30.0985C7.57242 29.4485 7.14171 28.7607 6.7657 28.0404C6.38969 27.3198 6.06805 26.5664 5.80639 25.7862C5.54474 25.0057 5.34306 24.1984 5.20695 23.3688C5.07085 22.5395 5 21.6883 5 20.8208C5 19.9532 5.07085 19.1024 5.20695 18.2731C5.34306 17.4435 5.54474 16.6362 5.80639 15.856C5.85912 15.6979 5.91482 15.5412 5.97249 15.3857L5.97347 15.3848C7.11403 16.8911 8.43352 18.2535 9.55529 19.7749C10.6233 21.2236 12.0931 23.5848 12.3923 24.0894C14.249 27.2216 14.5449 29.154 14.687 30.0824Z" fill="white"/>
<mask id="mask0_3417_12921" style="mask-type:alpha" maskUnits="userSpaceOnUse" x="12" y="7" width="23" height="20">
<path d="M12.8418 7.61719H34.977V26.8088H12.8418V7.61719Z" fill="white"/>
</mask>
<g mask="url(#mask0_3417_12921)">
<path fill-rule="evenodd" clip-rule="evenodd" d="M34.9771 20.4645C34.9771 22.5341 34.6029 24.5116 33.9221 26.3261C32.137 28.3465 20.0995 23.3735 19.9817 23.319C18.3349 22.5597 13.3238 20.2484 12.8719 16.6176C12.2214 11.3946 22.2862 7.75516 26.709 7.61719C27.2395 7.6235 28.8532 7.64345 29.7942 8.44801C32.9706 11.3733 34.9771 15.6724 34.9771 20.4645Z" fill="white"/>
</g>
<path fill-rule="evenodd" clip-rule="evenodd" d="M26.9286 34.7135C25.6134 35.3667 24.166 34.891 24.5419 33.5276C25.2641 30.9096 31.5691 28.2162 32.9622 28.0801C33.0112 28.0925 33.0761 28.1087 33.1251 28.1212C33.14 28.1811 33.1533 28.2711 33.1308 28.3287C31.6878 31.042 29.5293 33.2669 26.9286 34.7135Z" fill="white"/>
</svg>
