<svg width="20" height="20" viewBox="0 0 20 20" fill="none" xmlns="http://www.w3.org/2000/svg">
<path d="M9.99598 19.9981C15.5161 19.9981 19.991 15.5231 19.991 10.003C19.991 4.48292 15.5161 0.00799561 9.99598 0.00799561C4.47589 0.00799561 0.000976562 4.48292 0.000976562 10.003C0.000976562 15.5231 4.47589 19.9981 9.99598 19.9981Z" fill="#172852"/>
<path d="M8.05242 4.47477C9.22284 4.03699 10.5402 4.03599 11.7326 4.39581C13.2848 4.87757 14.5952 6.04898 15.2799 7.51925C15.4688 7.93804 15.6497 8.37482 15.6677 8.84059C14.7951 8.33484 13.8386 8.007 12.88 7.70815C11.3468 7.15543 9.74159 6.77162 8.2903 6.012C7.95247 5.8101 7.52168 5.60321 7.42972 5.18242C7.39274 4.8186 7.77755 4.6157 8.05242 4.47477Z" fill="#FFD83D"/>
<path d="M4.51889 8.01299C4.85772 7.09344 5.41344 6.23987 6.16807 5.60718C6.35997 7.1854 7.03164 8.71064 8.14108 9.85808C9.47142 11.2404 11.3665 12.089 13.2945 12.057C14.0601 12.081 14.8087 11.9041 15.5554 11.7611C14.8207 14.4158 11.9112 16.178 9.21554 15.7542C7.58836 15.5463 6.08611 14.5827 5.17956 13.2224C4.15707 11.7192 3.8992 9.72314 4.51889 8.01299Z" fill="#FFD83D"/>
<path d="M12.8794 7.70819C13.8379 8.00705 14.7944 8.33489 15.6669 8.84065L15.7259 8.87163C15.8068 9.48034 15.8658 10.101 15.7579 10.7108C15.3191 10.5248 14.9633 10.198 14.5915 9.90914C13.8759 9.31342 13.1453 8.63175 12.8794 7.70819Z" fill="#FF6F03"/>
</svg>
