<svg width="51" height="50" viewBox="0 0 51 50" fill="none" xmlns="http://www.w3.org/2000/svg">
<ellipse cx="25.6816" cy="24.9999" rx="25" ry="24.9999" fill="#172852"/>
<path d="M20.9307 10.8715C23.9365 9.74717 27.3197 9.74461 30.382 10.6687C34.3682 11.9059 37.7335 14.9142 39.4919 18.6901C39.977 19.7656 40.4416 20.8873 40.4878 22.0835C38.2469 20.7846 35.7905 19.9427 33.3286 19.1752C29.3912 17.7558 25.2688 16.7701 21.5416 14.8193C20.6741 14.3008 19.5677 13.7694 19.3316 12.6888C19.2366 11.7545 20.2248 11.2334 20.9307 10.8715Z" fill="#FFD83D"/>
<path d="M11.8561 19.9581C12.7262 17.5966 14.1534 15.4045 16.0914 13.7796C16.5842 17.8327 18.3092 21.7497 21.1584 24.6965C24.5749 28.2465 29.4417 30.4258 34.3931 30.3437C36.3592 30.4053 38.2817 29.951 40.1994 29.5837C38.3125 36.4014 30.8405 40.927 23.9177 39.8386C19.7389 39.3047 15.8809 36.83 13.5528 33.3366C10.9269 29.4761 10.2646 24.35 11.8561 19.9581Z" fill="#FFD83D"/>
<path d="M33.3271 19.1754C35.7887 19.9429 38.2451 20.7848 40.4858 22.0837L40.6374 22.1632C40.8451 23.7265 40.9966 25.3204 40.7195 26.8865C39.5926 26.4088 38.6789 25.5695 37.7241 24.8277C35.8863 23.2978 34.01 21.5472 33.3271 19.1754Z" fill="#FF6F03"/>
</svg>
