<svg width="51" height="50" viewBox="0 0 51 50" fill="none" xmlns="http://www.w3.org/2000/svg">
<ellipse cx="25.6816" cy="24.9999" rx="25" ry="24.9999" fill="#2C7DF7"/>
<path d="M29.2106 40C27.0731 40 25.5128 39.4842 24.5299 38.453C23.6194 37.5801 23.091 36.3816 23.0603 35.1197C23.0492 34.7364 23.1379 34.3567 23.3177 34.018C23.4854 33.7253 23.7277 33.4826 24.0197 33.3143C24.3592 33.1449 24.7333 33.0565 25.1127 33.0565C25.492 33.0565 25.8662 33.1449 26.2056 33.3143C26.4972 33.482 26.7383 33.7249 26.9036 34.018C27.0886 34.3549 27.1806 34.7353 27.1703 35.1197C27.1894 35.5787 27.058 36.0316 26.7959 36.4088C26.5775 36.7166 26.2654 36.9453 25.9063 37.0607C26.2574 37.5085 26.7544 37.8187 27.3105 37.9373C27.9326 38.1184 28.577 38.2115 29.2248 38.2137C30.0825 38.2214 30.9225 37.9697 31.6355 37.492C32.3749 36.9688 32.9264 36.2209 33.2081 35.3592C33.5652 34.3337 33.7396 33.2533 33.7229 32.1672C33.7517 31.0349 33.5612 29.9077 33.1613 28.8482C32.8607 28.001 32.2899 27.2761 31.537 26.7857C30.8374 26.3423 30.0252 26.1097 29.1971 26.1156C28.4755 26.1769 27.7798 26.4133 27.1703 26.8047L25.6674 27.5593V26.8047L32.4217 17.7307H23.0603V27.1467C23.0338 27.8263 23.2133 28.4981 23.5752 29.0733C23.7502 29.3241 23.987 29.5253 24.2625 29.6576C24.5381 29.7897 24.843 29.8485 25.1478 29.828C25.7111 29.8165 26.2558 29.6243 26.7017 29.2795C27.2072 28.9086 27.6471 28.4555 28.003 27.939C28.035 27.8484 28.0942 27.7698 28.1722 27.7141C28.235 27.6598 28.3151 27.6298 28.3979 27.6296C28.5606 27.6445 28.7145 27.7101 28.838 27.8171C28.9944 27.9922 29.0795 28.2195 29.0765 28.4546C29.0585 28.6125 29.0304 28.7689 28.9924 28.9233C28.6598 29.7293 28.1025 30.4224 27.3867 30.9195C26.7222 31.3699 25.9372 31.6088 25.1347 31.6047C23.1078 31.6047 21.7037 31.2045 20.9223 30.4046C20.5207 29.9625 20.2111 29.4445 20.0118 28.8811C19.8125 28.3176 19.7274 27.72 19.7615 27.1233V17.7307H15V15.9812H19.7837V11.9921L18.6885 10.8945V10H21.8665L23.0603 10.6188V15.9812L35.4265 15.9435L36.6577 17.181L29.075 24.8116C29.5331 24.6271 30.0155 24.5103 30.5071 24.4647C31.4803 24.5074 32.4296 24.7788 33.2786 25.2571C34.2618 25.7249 35.0903 26.4653 35.6659 27.3905C36.1818 28.1736 36.547 29.0465 36.7425 29.9638C36.9034 30.6876 36.9896 31.426 36.9999 32.1674C37.0049 33.5822 36.6847 34.9791 36.0639 36.25C35.4751 37.4807 34.4841 38.4729 33.2554 39.0626C31.9974 39.6834 30.6131 40.0042 29.2106 40Z" fill="white"/>
</svg>
