<svg width="20" height="20" viewBox="0 0 20 20" fill="none" xmlns="http://www.w3.org/2000/svg">
<g clip-path="url(#clip0)">
<circle cx="9.99999" cy="10" r="10" fill="#2C7DF7"/>
<path d="M11.0372 16.6568C10.0872 16.6568 9.39376 16.4279 8.95693 15.9703C8.55228 15.5829 8.31745 15.051 8.30379 14.491C8.29887 14.3209 8.3383 14.1524 8.4182 14.0021C8.49273 13.8722 8.6004 13.7645 8.73019 13.6898C8.88106 13.6146 9.04735 13.5754 9.21594 13.5754C9.38453 13.5754 9.55081 13.6146 9.70168 13.6898C9.83125 13.7642 9.93841 13.872 10.0119 14.0021C10.0941 14.1516 10.135 14.3204 10.1304 14.491C10.1389 14.6947 10.0805 14.8957 9.96403 15.0631C9.86696 15.1997 9.72823 15.3012 9.56863 15.3524C9.72471 15.5511 9.94555 15.6888 10.1927 15.7414C10.4692 15.8218 10.7556 15.8631 11.0435 15.8641C11.4247 15.8675 11.798 15.7558 12.1149 15.5438C12.4435 15.3116 12.6886 14.9797 12.8138 14.5973C12.9725 14.1422 13.05 13.6627 13.0426 13.1807C13.0554 12.6782 12.9707 12.178 12.793 11.7078C12.6594 11.3318 12.4057 11.0101 12.0711 10.7925C11.7602 10.5957 11.3992 10.4925 11.0312 10.4951C10.7105 10.5223 10.4013 10.6272 10.1304 10.8009L9.46249 11.1358V10.8009L12.4643 6.77397H8.30379V10.9527C8.29203 11.2543 8.37181 11.5524 8.53262 11.8077C8.61043 11.919 8.71565 12.0083 8.8381 12.067C8.96056 12.1256 9.09609 12.1517 9.23157 12.1426C9.48189 12.1375 9.72397 12.0522 9.92215 11.8992C10.1468 11.7346 10.3423 11.5335 10.5005 11.3043C10.5147 11.2641 10.541 11.2292 10.5757 11.2045C10.6036 11.1804 10.6392 11.1671 10.676 11.167C10.7483 11.1736 10.8167 11.2027 10.8716 11.2502C10.9411 11.3279 10.9789 11.4288 10.9776 11.5331C10.9696 11.6032 10.9571 11.6726 10.9402 11.7411C10.7924 12.0988 10.5447 12.4064 10.2266 12.627C9.93124 12.8269 9.58236 12.9329 9.22572 12.9311C8.32493 12.9311 7.7009 12.7535 7.35361 12.3985C7.17511 12.2023 7.03754 11.9724 6.94895 11.7224C6.86036 11.4723 6.82254 11.2071 6.8377 10.9423V6.77397H4.72156V5.99756H6.84756V4.22726L6.36082 3.74018V3.3432H7.77325L8.30379 3.61783V5.99756L13.7997 5.98084L14.3469 6.53002L10.9769 9.91641C11.1805 9.83453 11.3949 9.78267 11.6134 9.76246C12.0459 9.7814 12.4678 9.90185 12.8451 10.1141C13.2821 10.3217 13.6503 10.6503 13.9061 11.0609C14.1354 11.4084 14.2977 11.7958 14.3846 12.2029C14.4561 12.5241 14.4944 12.8518 14.499 13.1808C14.5012 13.8087 14.3589 14.4286 14.083 14.9926C13.8213 15.5388 13.3809 15.9791 12.8348 16.2408C12.2757 16.5163 11.6605 16.6587 11.0372 16.6568Z" fill="white"/>
</g>
<defs>
<clipPath id="clip0">
<rect width="20" height="20" fill="white"/>
</clipPath>
</defs>
</svg>
