<svg width="20" height="20" viewBox="0 0 20 20" fill="none" xmlns="http://www.w3.org/2000/svg">
<path d="M10 20C15.5229 20 20 15.5229 20 10C20 4.47715 15.5229 0 10 0C4.47715 0 0 4.47715 0 10C0 15.5229 4.47715 20 10 20Z" fill="#0088CC"/>
<path fill-rule="evenodd" clip-rule="evenodd" d="M7.21842 6.60712H12.8271C13.0256 6.60712 13.2239 6.63626 13.4311 6.73287C13.6794 6.84862 13.8111 7.03115 13.9034 7.16612C13.9106 7.17662 13.9174 7.18747 13.9236 7.19855C14.0321 7.39169 14.088 7.60019 14.088 7.82455C14.088 8.03769 14.0373 8.2699 13.9236 8.47226C13.9225 8.47419 13.9214 8.47612 13.9203 8.47805L10.3768 14.565C10.2986 14.6992 10.1548 14.7816 9.9995 14.781C9.84414 14.7805 9.70092 14.6971 9.62371 14.5623L6.1453 8.48833C6.1443 8.48676 6.1433 8.48505 6.1423 8.4834C6.0627 8.35226 5.93959 8.1494 5.91805 7.88755C5.89827 7.64683 5.95237 7.40562 6.07334 7.19647C6.1943 6.9873 6.37641 6.82008 6.59545 6.71772C6.8303 6.60797 7.0683 6.60712 7.21842 6.60712ZM9.56621 7.47669H7.21842C7.06416 7.47669 7.00495 7.48619 6.96355 7.50555C6.9063 7.53226 6.85823 7.57619 6.82609 7.63183C6.79395 7.6874 6.77941 7.75183 6.7847 7.81626C6.78773 7.85333 6.8028 7.89555 6.8917 8.04219C6.89355 8.04526 6.89537 8.0484 6.89716 8.05147L9.56621 12.7121V7.47669ZM10.4358 7.47669V12.7352L13.1667 8.04405C13.1975 7.98812 13.2184 7.90719 13.2184 7.82455C13.2184 7.75747 13.2045 7.69926 13.1734 7.63919C13.1409 7.5924 13.121 7.56755 13.1044 7.55055C13.0901 7.53605 13.0791 7.52826 13.0636 7.52105C12.9991 7.4909 12.933 7.47669 12.8271 7.47669H10.4358Z" fill="white"/>
</svg>
