<svg width="51" height="50" viewBox="0 0 51 50" fill="none" xmlns="http://www.w3.org/2000/svg">
<ellipse cx="25.6816" cy="24.9999" rx="25" ry="24.9999" fill="#0088CC"/>
<path fill-rule="evenodd" clip-rule="evenodd" d="M15.7873 10H36.3722C37.1008 10 37.8286 10.107 38.589 10.4615C39.5004 10.8864 39.9837 11.5563 40.3225 12.0517C40.3489 12.0902 40.3739 12.13 40.3966 12.1707C40.7948 12.8795 41 13.6448 41 14.4682C41 15.2505 40.8139 16.1028 40.3966 16.8455C40.3926 16.8526 40.3885 16.8597 40.3845 16.8667L27.3791 39.2072C27.0921 39.6998 26.5644 40.0022 25.9944 40C25.4242 39.9982 24.8985 39.6921 24.6152 39.1973L11.8487 16.9045L11.8377 16.8864C11.5455 16.4051 11.0937 15.6605 11.0146 14.6995C10.942 13.816 11.1406 12.9307 11.5846 12.163C12.0285 11.3953 12.6969 10.7816 13.5008 10.4059C14.3628 10.0031 15.2363 10 15.7873 10ZM24.4041 13.1915H15.7873C15.2211 13.1915 15.0038 13.2264 14.8518 13.2974C14.6417 13.3955 14.4653 13.5567 14.3473 13.7609C14.2294 13.9649 14.176 14.2013 14.1954 14.4378C14.2065 14.5739 14.2618 14.7288 14.5881 15.267C14.5949 15.2783 14.6016 15.2898 14.6082 15.3011L24.4041 32.4067V13.1915ZM27.5957 13.1915V32.4914L37.6186 15.2739C37.7317 15.0686 37.8084 14.7716 37.8084 14.4682C37.8084 14.222 37.7574 14.0084 37.6432 13.7879C37.5239 13.6162 37.4509 13.525 37.39 13.4626C37.3375 13.4094 37.2971 13.3808 37.2402 13.3543C37.0035 13.2437 36.7609 13.1915 36.3722 13.1915H27.5957Z" fill="white"/>
</svg>
