<svg width="51" height="50" viewBox="0 0 51 50" fill="none" xmlns="http://www.w3.org/2000/svg">
<ellipse cx="25.6819" cy="24.9999" rx="25" ry="24.9999" fill="#FF060A"/>
<path d="M40.1246 19.0378C38.7184 17.7394 36.7731 15.7566 35.1888 14.3503L35.095 14.2847C34.939 14.1595 34.7632 14.0612 34.5747 13.9941C30.7544 13.2816 12.975 9.95821 12.6281 10.0004C12.5309 10.014 12.438 10.0492 12.3562 10.1035L12.2672 10.1738C12.1575 10.2852 12.0742 10.4198 12.0234 10.5676L12 10.6285V10.9613V11.0129C14.0015 16.5862 21.9046 34.8438 23.4608 39.1281C23.5545 39.4188 23.7327 39.9719 24.0655 40H24.1405C24.3186 40 25.078 38.9969 25.078 38.9969C25.078 38.9969 38.6528 22.5346 40.0262 20.7815C40.204 20.5656 40.3609 20.3333 40.4949 20.0878C40.5291 19.8957 40.513 19.698 40.4481 19.514C40.3832 19.33 40.2718 19.1659 40.1246 19.0378ZM28.5607 20.9549L34.3544 16.1503L37.7528 19.2815L28.5607 20.9549ZM26.3107 20.6409L16.3359 12.466L32.4747 15.4425L26.3107 20.6409ZM27.2107 22.783L37.42 21.1378L25.7483 35.2001L27.2107 22.783ZM14.9812 13.2816L25.4764 22.1877L23.9577 35.2094L14.9812 13.2816Z" fill="white"/>
</svg>
