<svg width="40" height="40" viewBox="0 0 40 40" fill="none" xmlns="http://www.w3.org/2000/svg">
<path d="M20 40C31.0457 40 40 31.0457 40 20C40 8.9543 31.0457 0 20 0C8.9543 0 0 8.9543 0 20C0 31.0457 8.9543 40 20 40Z" fill="#FF060A"/>
<path d="M31.7576 15.8733C30.5857 14.7913 28.9646 13.1389 27.6443 11.9671L27.5662 11.9124C27.4362 11.808 27.2896 11.7262 27.1326 11.6702C23.949 11.0765 9.1328 8.30697 8.84374 8.34213C8.76275 8.35347 8.68533 8.38284 8.61718 8.42807L8.54297 8.48666C8.45158 8.57947 8.38217 8.69159 8.33984 8.81478L8.32031 8.86556V9.1429V9.18587C9.98826 13.8303 16.5741 29.045 17.871 32.6152C17.9491 32.8574 18.0975 33.3184 18.3749 33.3418H18.4373C18.5858 33.3418 19.2186 32.5059 19.2186 32.5059C19.2186 32.5059 30.531 18.7873 31.6755 17.3264C31.8236 17.1464 31.9544 16.9529 32.0661 16.7482C32.0946 16.5882 32.0812 16.4234 32.0271 16.2701C31.973 16.1168 31.8801 15.9801 31.7576 15.8733ZM22.1209 17.4709L26.949 13.4671L29.781 16.0764L22.1209 17.4709ZM20.2459 17.2092L11.9335 10.3968L25.3826 12.8772L20.2459 17.2092ZM20.9959 18.9943L29.5036 17.6232L19.7772 29.3418L20.9959 18.9943ZM10.8047 11.0765L19.5506 18.4982L18.285 29.3497L10.8047 11.0765Z" fill="white"/>
</svg>
