<svg width="51" height="50" viewBox="0 0 51 50" fill="none" xmlns="http://www.w3.org/2000/svg">
<ellipse cx="25.6819" cy="24.9999" rx="25" ry="24.9999" fill="#55BBF9"/>
<path d="M41.5507 10.0004H40.9525C40.6437 10.0004 40.3619 10.1775 40.2252 10.4572L30.3714 30.6067C29.5929 32.1987 27.4277 32.403 26.3714 30.9836L25.7874 30.199L25.4534 29.6967L16.2919 10.8832L15.9808 10.4008C15.8194 10.1508 15.5442 10 15.2489 10H10.5504C10.1209 10 9.85746 10.4757 10.0818 10.8458L10.2907 11.1908L23.0527 37.2264L23.6042 38.437C24.5404 40.4918 27.4155 40.5289 28.4032 38.499L41.9534 10.6544C42.1 10.3529 41.8829 10.0004 41.5507 10.0004Z" fill="white"/>
</svg>
