<svg width="20" height="20" viewBox="0 0 20 20" fill="none" xmlns="http://www.w3.org/2000/svg">
<path d="M19.6925 12.4199C18.3752 17.8018 12.9317 21.0348 7.585 19.6991C2.1996 18.3633 -1.03552 12.9426 0.301145 7.58008C1.61844 2.19817 7.06196 -1.03485 12.4086 0.30095C17.794 1.59803 21.0485 7.05737 19.6925 12.4199Z" fill="#F68E20"/>
<path d="M7.37072 8.18178L6.46163 10.6576L5.55253 8.18178H4.06317L3.15408 10.6769L2.24499 8.18178H1.00708L2.3417 11.8181H3.96646L4.81753 9.47772L5.64925 11.8181H7.274L8.58929 8.18178H7.37072Z" fill="white"/>
<path d="M17.448 9.6518L19.2082 8.18178H17.4287L16.539 8.91679L17.448 9.6518Z" fill="white"/>
<path d="M13.5215 7.02124H11.7227L15.2624 9.99996L14.1405 10.9284L11.8194 8.18178H10.3107L6.2875 12.9787H7.79621L11.0651 9.07153L12.0128 10.1934H10.7749L10.156 10.9477H12.6511L13.3668 11.8181H14.8755L16.1521 10.7543L17.4287 11.8181H19.2082L13.5215 7.02124Z" fill="white"/>
</svg>
