<svg width="51" height="50" viewBox="0 0 51 50" fill="none" xmlns="http://www.w3.org/2000/svg">
<ellipse cx="25.6819" cy="24.9999" rx="25" ry="24.9999" fill="#F68E20"/>
<path d="M19.8863 20.5324L17.9026 25.935L15.9188 20.5324H12.6688L10.6851 25.9771L8.70129 20.5324H6L8.91233 28.4674H12.4578L14.3149 23.3603L16.1299 28.4674H19.6753L22.5454 20.5324H19.8863Z" fill="white"/>
<path d="M41.8764 23.7402L45.7174 20.5324H41.8343L39.8928 22.1363L41.8764 23.7402Z" fill="white"/>
<path d="M33.3083 18H29.3831L37.1072 24.5L34.659 26.526L29.5941 20.5325H26.3019L17.5227 31H20.8149L27.9481 22.474L30.0161 24.9221H27.3148L25.9643 26.5681H31.409L32.9707 28.4674H36.2629L39.0486 26.1461L41.8343 28.4674H45.7175L33.3083 18Z" fill="white"/>
</svg>
