<svg width="51" height="50" viewBox="0 0 51 50" fill="none" xmlns="http://www.w3.org/2000/svg">
<ellipse cx="25.6819" cy="24.9999" rx="25" ry="24.9999" fill="#0A795C"/>
<path d="M19.8148 27.0781C20.7121 27.0781 21.5375 26.7758 22.1996 26.2671L16.7294 20.7969C16.216 21.4543 15.9185 22.2844 15.9185 23.1817C15.9185 25.3266 17.6651 27.0781 19.8148 27.0781Z" fill="white"/>
<path d="M36.0766 23.1759C36.0766 22.2785 35.7743 21.4532 35.2657 20.791L29.7954 26.2565C30.4528 26.7699 31.2829 27.0674 32.1802 27.0674C34.33 27.077 36.0766 25.3256 36.0766 23.1759Z" fill="white"/>
<path d="M38.8311 17.2227L36.4127 19.6411C37.214 20.6008 37.6939 21.8292 37.6939 23.1728C37.6939 26.215 35.2179 28.691 32.1756 28.691C30.8369 28.691 29.6036 28.2063 28.644 27.4098L25.9952 30.0586L23.3464 27.4098C22.3868 28.2111 21.1583 28.691 19.8148 28.691C16.7726 28.691 14.2966 26.215 14.2966 23.1728C14.2966 21.834 14.7812 20.6008 15.5777 19.6411L14.3397 18.4031L13.1641 17.2275C11.7918 19.4971 11 22.1555 11 25.001C11 33.2831 17.7131 40.001 26 40.001C34.287 40.001 41 33.2879 41 25.001C40.9952 22.1507 40.2035 19.4971 38.8311 17.2227Z" fill="white"/>
<path d="M36.8447 14.6449C34.1192 11.785 30.2612 9.99994 25.9954 9.99994C21.7296 9.99994 17.8716 11.785 15.1461 14.6449C14.7766 15.0383 14.4263 15.4462 14.0952 15.8732L25.9954 27.7831L37.8956 15.8732C37.5741 15.4414 37.219 15.0383 36.8447 14.6449ZM25.9954 11.9625C29.5079 11.9625 32.766 13.3157 35.2181 15.7821L25.9954 25.0048L16.7728 15.7821C19.2248 13.3109 22.4877 11.9625 25.9954 11.9625Z" fill="white"/>
</svg>
