<svg width="40" height="40" viewBox="0 0 40 40" fill="none" xmlns="http://www.w3.org/2000/svg">
<path d="M20 40C31.0457 40 40 31.0457 40 20C40 8.9543 31.0457 0 20 0C8.9543 0 0 8.9543 0 20C0 31.0457 8.9543 40 20 40Z" fill="#0A795C"/>
<path d="M13.8148 22.0781C14.7121 22.0781 15.5375 21.7758 16.1996 21.2671L10.7294 15.7969C10.216 16.4543 9.91846 17.2844 9.91846 18.1817C9.91846 20.3266 11.6651 22.0781 13.8148 22.0781Z" fill="white"/>
<path d="M30.0766 18.1759C30.0766 17.2785 29.7743 16.4532 29.2657 15.791L23.7954 21.2565C24.4528 21.7699 25.2829 22.0674 26.1802 22.0674C28.33 22.077 30.0766 20.3256 30.0766 18.1759Z" fill="white"/>
<path d="M32.8311 12.2227L30.4127 14.6411C31.214 15.6008 31.6939 16.8292 31.6939 18.1728C31.6939 21.215 29.2179 23.691 26.1756 23.691C24.8369 23.691 23.6036 23.2063 22.644 22.4098L19.9952 25.0586L17.3464 22.4098C16.3868 23.2111 15.1583 23.691 13.8148 23.691C10.7726 23.691 8.29655 21.215 8.29655 18.1728C8.29655 16.834 8.78119 15.6008 9.57774 14.6411L8.33973 13.4031L7.16411 12.2275C5.79175 14.4971 5 17.1555 5 20.001C5 28.2831 11.7131 35.001 20 35.001C28.287 35.001 35 28.2879 35 20.001C34.9952 17.1507 34.2035 14.4971 32.8311 12.2227Z" fill="white"/>
<path d="M30.8447 9.64491C28.1192 6.78503 24.2612 5 19.9954 5C15.7296 5 11.8716 6.78503 9.14608 9.64491C8.7766 10.0384 8.42631 10.4463 8.09521 10.8733L19.9954 22.7831L31.8956 10.8733C31.5741 10.4415 31.219 10.0384 30.8447 9.64491ZM19.9954 6.96257C23.5079 6.96257 26.766 8.31574 29.2181 10.7822L19.9954 20.0048L10.7728 10.7822C13.2248 8.31094 16.4877 6.96257 19.9954 6.96257Z" fill="white"/>
</svg>
