<svg width="52" height="50" viewBox="0 0 52 50" fill="none" xmlns="http://www.w3.org/2000/svg">
<ellipse cx="26.0908" cy="24.9999" rx="25.4089" ry="24.9999" fill="white"/>
<path d="M40.9988 23.565C37.5549 3.59785 11.48 7.46169 11.012 23.565C12.5119 24.345 13.4599 24.825 13.4599 24.825C13.4599 24.825 12.6679 25.305 11 26.3609C13.9999 45.9441 39.6308 43.1002 40.9988 26.3369C39.3668 25.341 38.4789 24.813 38.4789 24.813C38.4789 24.813 39.2468 24.453 40.9988 23.565ZM28.1713 30.5367L25.7234 26.3369L23.2395 30.5367L21.3556 30.4047L24.8954 24.441L21.7036 19.2932L23.6235 19.1252L25.8914 22.9411L28.1593 19.2932L29.9472 19.3412L26.9713 24.405L30.2472 30.5007L28.1473 30.5487L28.1713 30.5367Z" fill="#B7B5B1"/>
<path d="M39.7867 22.7851C35.1189 5.0378 13.6998 9.8376 12.2359 22.7851C15.2118 24.453 15.8837 24.849 15.8837 24.849C15.8837 24.849 14.7318 25.581 12.2239 27.1769C15.4157 44.2402 38.5148 40.9523 39.7867 27.1529C37.4588 25.689 36.0789 24.837 36.0789 24.837C36.0789 24.837 39.2228 23.0851 39.7867 22.7851ZM28.1712 30.5488L25.7233 26.3489L23.2394 30.5488L21.3675 30.4168L24.9074 24.453L21.7155 19.3052L23.6354 19.1372L25.9033 22.9531L28.1712 19.3052L29.9591 19.3532L26.9953 24.417L30.2711 30.5128L28.1712 30.5608V30.5488Z" fill="#244B81"/>
</svg>
