<svg width="63" height="50" viewBox="0 0 63 50" fill="none" xmlns="http://www.w3.org/2000/svg">
<mask id="mask0_11375_8559" style="mask-type:alpha" maskUnits="userSpaceOnUse" x="51" y="33" width="7" height="17">
<rect width="5.54422" height="16.3218" transform="matrix(-1 0 0 1 57.3105 33.2227)" fill="black"/>
</mask>
<g mask="url(#mask0_11375_8559)">
<path d="M56.2181 33.2227H42.0725C41.4715 33.2227 40.9844 33.7098 40.9844 34.3108V48.4562C40.9844 49.0571 41.4715 49.5443 42.0725 49.5443H56.2181C56.819 49.5443 57.3062 49.0571 57.3062 48.4562V34.3108C57.3062 33.7098 56.819 33.2227 56.2181 33.2227Z" fill="white" fill-opacity="0.5"/>
</g>
<mask id="mask1_11375_8559" style="mask-type:alpha" maskUnits="userSpaceOnUse" x="51" y="0" width="7" height="17">
<rect width="5.54422" height="16.3218" transform="matrix(-1 0 0 1 57.3105 0.542969)" fill="url(#paint0_linear_11375_8559)"/>
</mask>
<g mask="url(#mask1_11375_8559)">
<path d="M56.2181 0.542969H42.0725C41.4715 0.542969 40.9844 1.03013 40.9844 1.63108V15.7765C40.9844 16.3774 41.4715 16.8646 42.0725 16.8646H56.2181C56.819 16.8646 57.3062 16.3774 57.3062 15.7765V1.63108C57.3062 1.03013 56.819 0.542969 56.2181 0.542969Z" fill="white" fill-opacity="0.5"/>
</g>
<mask id="mask2_11375_8559" style="mask-type:alpha" maskUnits="userSpaceOnUse" x="60" y="0" width="3" height="17">
<rect width="2.75805" height="16.3218" transform="matrix(-1 0 0 1 62.8672 0.542969)" fill="black"/>
</mask>
<g mask="url(#mask2_11375_8559)">
<path d="M61.7747 0.542969H47.6291C47.0282 0.542969 46.541 1.03013 46.541 1.63108V15.7765C46.541 16.3774 47.0282 16.8646 47.6291 16.8646H61.7747C62.3757 16.8646 62.8629 16.3774 62.8629 15.7765V1.63108C62.8629 1.03013 62.3757 0.542969 61.7747 0.542969Z" fill="white" fill-opacity="0.3"/>
</g>
<mask id="mask3_11375_8559" style="mask-type:alpha" maskUnits="userSpaceOnUse" x="60" y="33" width="3" height="17">
<rect width="2.75805" height="16.3218" transform="matrix(-1 0 0 1 62.877 33.2227)" fill="black"/>
</mask>
<g mask="url(#mask3_11375_8559)">
<path d="M61.7845 33.2227H47.6389C47.038 33.2227 46.5508 33.7098 46.5508 34.3108V48.4562C46.5508 49.0571 47.038 49.5443 47.6389 49.5443H61.7845C62.3855 49.5443 62.8726 49.0571 62.8726 48.4562V34.3108C62.8726 33.7098 62.3855 33.2227 61.7845 33.2227Z" fill="white" fill-opacity="0.3"/>
</g>
<path d="M31.5287 16.9023H17.4502C16.852 16.9023 16.3672 17.3837 16.3672 17.9776V31.9554C16.3672 32.5492 16.852 33.0306 17.4502 33.0306H31.5287C32.1268 33.0306 32.6117 32.5492 32.6117 31.9554V17.9776C32.6117 17.3837 32.1268 16.9023 31.5287 16.9023Z" fill="white"/>
<path d="M15.2337 0.542969H1.08812C0.487169 0.542969 0 1.03013 0 1.63108V15.7765C0 16.3774 0.487169 16.8646 1.08812 16.8646H15.2337C15.8347 16.8646 16.3218 16.3774 16.3218 15.7765V1.63108C16.3218 1.03013 15.8347 0.542969 15.2337 0.542969Z" fill="white"/>
<path d="M47.8704 0.542969H33.7248C33.1239 0.542969 32.6367 1.03013 32.6367 1.63108V15.7765C32.6367 16.3774 33.1239 16.8646 33.7248 16.8646H47.8704C48.4714 16.8646 48.9586 16.3774 48.9586 15.7765V1.63108C48.9586 1.03013 48.4714 0.542969 47.8704 0.542969Z" fill="white"/>
<path d="M15.2337 33.1855H1.08812C0.487169 33.1855 0 33.6727 0 34.2737V48.4191C0 49.02 0.487169 49.5072 1.08812 49.5072H15.2337C15.8347 49.5072 16.3218 49.02 16.3218 48.4191V34.2737C16.3218 33.6727 15.8347 33.1855 15.2337 33.1855Z" fill="white"/>
<path d="M47.8704 33.1855H33.7248C33.1239 33.1855 32.6367 33.6727 32.6367 34.2737V48.4191C32.6367 49.02 33.1239 49.5072 33.7248 49.5072H47.8704C48.4714 49.5072 48.9586 49.02 48.9586 48.4191V34.2737C48.9586 33.6727 48.4714 33.1855 47.8704 33.1855Z" fill="white"/>
<defs>
<linearGradient id="paint0_linear_11375_8559" x1="6.01807" y1="9.10319" x2="0.0559558" y2="7.89601" gradientUnits="userSpaceOnUse">
<stop/>
<stop offset="1" stop-color="white"/>
</linearGradient>
</defs>
</svg>
