<svg width="51" height="50" viewBox="0 0 51 50" fill="none" xmlns="http://www.w3.org/2000/svg">
<ellipse cx="25.6816" cy="24.9999" rx="25" ry="24.9999" fill="#49C1BF"/>
<path d="M36.1939 22.3984L31.8703 24.327L20.415 30.1554L31.8703 35.6658V26.563L36.1939 24.6132V38.0713L31.8703 39.9999L15 31.925V27.6333L26.6778 21.9003L15 16.284V11.9286L19.3871 10L36.1939 18.0961V22.3984Z" fill="white" fill-opacity="0.54"/>
<path d="M15 11.9285L31.8703 20.0246L36.1939 18.096L19.3871 10.0105L15 11.9285Z" fill="white"/>
<path d="M31.8701 20.0035L36.1937 18.0748V22.3772L31.8701 24.3058V20.0035Z" fill="white"/>
<path d="M15 11.9394V16.2947L26.6778 21.9111L15 27.6334V31.9252L31.8703 40V35.6765L20.415 30.1555L31.8703 24.3272V20.0248L15 11.9394Z" fill="white" fill-opacity="0.54"/>
<path d="M31.8701 39.9682L36.1937 38.0396V24.5815L31.8701 26.5313V39.9682Z" fill="white"/>
</svg>
