<svg width="418" height="418" viewBox="0 0 418 418" fill="none" xmlns="http://www.w3.org/2000/svg">
<circle cx="209" cy="209" r="209" fill="#49C1BF"/>
<path d="M310 184.754L268.792 203.136L159.611 258.686L268.792 311.206V224.447L310 205.863V334.133L268.792 352.515L108 275.553V234.648L219.302 180.007L108 126.477V84.966L149.814 66.584L310 143.748V184.754Z" fill="white" fill-opacity="0.54"/>
<path d="M108 84.9665L268.792 162.131L310 143.749L149.814 66.6855L108 84.9665Z" fill="white"/>
<path d="M268.791 161.927L309.999 143.545V184.551L268.791 202.933V161.927Z" fill="white"/>
<path d="M108 85.0684V126.579L219.302 180.109L108 234.649V275.554L268.792 352.516V311.308L159.611 258.687L268.792 203.137V162.131L108 85.0684Z" fill="white" fill-opacity="0.54"/>
<path d="M268.791 352.213L309.999 333.831V205.561L268.791 224.145V352.213Z" fill="white"/>
</svg>
