<svg width="50" height="50" viewBox="0 0 50 50" fill="none" xmlns="http://www.w3.org/2000/svg">
<ellipse cx="25" cy="24.9999" rx="25" ry="24.9999" fill="black"/>
<path d="M39.3079 27.0426C39.3079 28.3873 39.3079 29.732 39.3079 31.0766C39.1091 31.2544 38.8622 31.2431 38.6221 31.2432C32.435 31.2465 26.2479 31.2479 20.0609 31.2423C19.2306 31.2416 19.0767 31.0815 19.0753 30.2271C19.0691 26.7285 19.0694 23.2302 19.0752 19.7316C19.0766 18.8578 19.229 18.7057 20.1028 18.7047C24.8077 18.6993 29.5125 18.7029 34.2175 18.7022C35.2075 18.7021 35.2083 18.7014 35.2082 17.7053C35.2081 17.0505 35.2028 16.3954 35.2092 15.7406C35.2126 15.3717 35.0612 15.198 34.6874 15.2138C34.4983 15.2219 34.3082 15.2127 34.1188 15.2127C26.8805 15.2126 19.642 15.213 12.4037 15.2123C11.33 15.2122 11.3177 15.2105 11.3336 14.1537C11.3491 13.1059 11.265 12.0562 11.3802 11.0099C20.5515 11.0099 29.7228 11.0127 38.8942 11C39.2484 10.9996 39.3197 11.0693 39.3183 11.4237C39.3019 15.2509 39.3079 19.0781 39.3079 22.9051C39.0416 23.127 38.72 23.0697 38.4155 23.0699C33.7828 23.0737 29.1504 23.0721 24.5179 23.0726C23.4429 23.0727 23.4424 23.0735 23.4426 24.1474C23.4428 24.8534 23.4334 25.5595 23.4465 26.2654C23.4561 26.789 23.5234 26.8501 24.0529 26.8711C24.3798 26.8839 24.7072 26.8752 25.0344 26.8752C29.4948 26.8755 33.9552 26.8741 38.4155 26.8778C38.72 26.8781 39.0416 26.8205 39.3079 27.0426Z" fill="#E13022"/>
<path d="M39.3182 38.7757C30.1767 38.7757 21.0354 38.7728 11.8939 38.7845C11.4699 38.7851 11.3169 38.7283 11.3184 38.2466C11.3392 31.9873 11.3363 25.7279 11.3225 19.4687C11.3217 19.0678 11.4212 18.9574 11.8267 18.9702C12.8106 19.0012 13.7968 18.9991 14.781 18.9719C15.2304 18.9595 15.3684 19.0957 15.367 19.5521C15.3509 24.5459 15.3601 29.5396 15.3496 34.5334C15.3489 34.8664 15.3934 34.9985 15.7824 34.998C23.5761 34.9851 31.3697 34.9883 39.1632 34.9878C39.215 34.9878 39.2667 34.9821 39.3184 34.9791C39.3182 36.2445 39.3182 37.5102 39.3182 38.7757Z" fill="#E13022"/>
</svg>
