<svg width="64" height="64" viewBox="0 0 64 64" fill="none" xmlns="http://www.w3.org/2000/svg">
<path d="M63.9765 36.6C63.9765 39.542 63.9765 42.4843 63.9765 45.4262C63.5221 45.8151 62.9575 45.7905 62.4086 45.7908C48.2668 45.7979 34.1247 45.801 19.983 45.7887C18.0853 45.7871 17.7336 45.4367 17.7304 43.5676C17.7163 35.913 17.7169 28.2586 17.7301 20.604C17.7333 18.6922 18.0814 18.3596 20.0787 18.3574C30.8329 18.3457 41.5868 18.3534 52.341 18.3519C54.6039 18.3516 54.6058 18.35 54.6055 16.1708C54.6052 14.7379 54.5933 13.3047 54.6077 11.8722C54.6158 11.0649 54.2696 10.6849 53.415 10.7197C52.983 10.7372 52.5485 10.7172 52.1153 10.7172C35.5706 10.7169 19.0256 10.7178 2.48093 10.7163C0.0266614 10.716 -0.00127913 10.7123 0.0346903 8.40024C0.0703386 6.10754 -0.122034 3.81115 0.141314 1.52183C21.1044 1.52183 42.0676 1.52767 63.0307 1.5C63.8403 1.49908 64.0032 1.65156 64 2.42717C63.9624 10.8005 63.9765 19.1742 63.9765 27.5476C63.3676 28.033 62.6325 27.9076 61.9365 27.9082C51.3477 27.9162 40.7592 27.9131 30.1704 27.914C27.7135 27.9143 27.7122 27.9159 27.7129 30.2654C27.7132 31.8102 27.6917 33.3553 27.7215 34.8997C27.7437 36.0451 27.8972 36.1789 29.1077 36.2247C29.855 36.253 30.6033 36.2339 31.3512 36.2339C41.5463 36.2345 51.7414 36.2314 61.9365 36.2397C62.6325 36.2401 63.3676 36.1143 63.9765 36.6Z" fill="#E13022"/>
<path d="M63.8445 62.5868C43.0002 62.5868 22.1563 62.5806 1.31227 62.6065C0.34559 62.6077 -0.0035062 62.4823 2.65104e-05 61.4202C0.0472364 47.6157 0.0408133 33.8112 0.00934003 20.0067C0.0074131 19.1226 0.234149 18.8791 1.15876 18.9074C3.40235 18.976 5.65109 18.9714 7.89532 18.9111C8.92013 18.8838 9.23454 19.1844 9.23133 20.1906C9.19472 31.204 9.2156 42.2175 9.19183 53.2309C9.19023 53.9653 9.29171 54.2568 10.1787 54.2555C27.9496 54.2273 45.7204 54.234 63.4913 54.2331C63.6091 54.2331 63.727 54.2205 63.8449 54.2137C63.8445 57.0044 63.8445 59.7958 63.8445 62.5868Z" fill="#E13022"/>
</svg>
