<svg width="50" height="50" viewBox="0 0 50 50" fill="none" xmlns="http://www.w3.org/2000/svg">
<ellipse cx="25" cy="24.9999" rx="25" ry="24.9999" fill="black"/>
<path fill-rule="evenodd" clip-rule="evenodd" d="M25.4514 10.2605L25.0015 10L24.5515 10.2605L17.6613 14.2491L17.2132 14.5086V15.0264V22.4869L10.7665 26.2189L10.3184 26.4783V26.9962V34.9735V35.4914L10.7665 35.7508L17.6567 39.7395L18.1066 40L18.5566 39.7395L24.9968 36.0113L31.437 39.7395L31.887 40L32.3369 39.7395L39.227 35.7508L39.6752 35.4914V34.9735V26.9962V26.4783L39.227 26.2189L32.7897 22.4923V15.0264V14.5086L32.3415 14.2491L25.4514 10.2605ZM19.0094 15.5443L25.0015 12.0755L30.9935 15.5443V22.486L26.2996 25.2032C25.9537 24.9087 25.5053 24.731 25.0154 24.731C24.5202 24.731 24.0674 24.9126 23.72 25.2129L19.0094 22.486V15.5443ZM23.0423 26.9025L18.1066 24.0452L12.1146 27.514V34.4557L18.1066 37.9245L24.0975 34.4563V28.4701C23.518 28.1668 23.107 27.5851 23.0423 26.9025ZM25.8949 28.4897V34.4557L31.887 37.9245L37.879 34.4557V27.514L31.8904 24.0473L26.9902 26.884C26.9299 27.5896 26.5 28.1896 25.8949 28.4897Z" fill="#03D498"/>
<path fill-rule="evenodd" clip-rule="evenodd" d="M25.0015 19.0262L31.8916 23.0149V30.9923L25.0015 34.981L18.1113 30.9923V23.0149L25.0015 19.0262Z" stroke="white" stroke-width="1.17304" stroke-linecap="round"/>
</svg>
