<svg width="64" height="64" viewBox="0 0 64 64" fill="none" xmlns="http://www.w3.org/2000/svg">
<rect width="64" height="64" rx="8" fill="black"/>
<path fill-rule="evenodd" clip-rule="evenodd" d="M32.5991 7.52942L31.8476 7.09438L31.0961 7.52942L19.5883 14.1912L18.8398 14.6245V15.4894V27.9498L8.07271 34.1828L7.32422 34.6161V35.481V48.8046V49.6695L8.07271 50.1028L19.5805 56.7646L20.332 57.1997L21.0835 56.7646L31.8398 50.5378L42.5961 56.7646L43.3476 57.1997L44.0991 56.7646L55.6068 50.1028L56.3553 49.6695V48.8046V35.481V34.6161L55.6068 34.1828L44.8553 27.9588V15.4894V14.6245L44.1068 14.1912L32.5991 7.52942ZM21.8398 16.3543L31.8476 10.5608L41.8553 16.3543V27.9482L34.0157 32.4865C33.438 31.9946 32.6891 31.6977 31.8709 31.6977C31.0438 31.6977 30.2875 32.0011 29.7073 32.5026L21.8398 27.9482V16.3543ZM28.5755 35.3246L20.332 30.5524L10.3242 36.3459V47.9398L20.332 53.7332L30.3379 47.9408V37.9428C29.3699 37.4362 28.6836 36.4646 28.5755 35.3246ZM33.3398 37.9755V47.9398L43.3476 53.7332L53.3553 47.9398V36.3459L43.3534 30.5558L35.1691 35.2937C35.0684 36.4721 34.3504 37.4743 33.3398 37.9755Z" fill="#03D498"/>
<path fill-rule="evenodd" clip-rule="evenodd" d="M31.8476 22.1697L43.3553 28.8315V42.1552L31.8476 48.817L20.3398 42.1552V28.8315L31.8476 22.1697Z" stroke="white" stroke-width="3" stroke-linecap="round"/>
</svg>
