<svg width="131" height="92" viewBox="0 0 131 92" fill="none" xmlns="http://www.w3.org/2000/svg">
<path d="M67.5935 91.6173C67.5935 72.8261 67.5935 32.6266 67.5935 22.1572" stroke="#A6B1C1" stroke-width="3"/>
<path d="M67.5934 51.0151L67.6046 50.9685C68.8428 45.7899 72.0062 32.5596 88.7334 32.5596C87.7268 32.5596 88.0623 41.284 83.3645 47.324C79.6063 52.156 71.2845 51.7981 67.5934 51.0151Z" fill="#A6B1C1"/>
<path d="M67.5934 65.444C67.2579 59.8514 63.9023 48.7334 53.1645 49.0018C51.8223 47.324 51.8223 61.4174 67.5934 65.444Z" fill="#A6B1C1"/>
<g clip-path="url(#clip0)">
<path d="M69.3192 32.5595C61.5356 32.5595 55.2258 25.3484 55.2258 16.4529C55.2258 7.55738 61.5356 0.346191 69.3192 0.346191C77.1027 0.346191 83.4125 7.55738 83.4125 16.4529C83.4125 25.3484 77.1027 32.5595 69.3192 32.5595Z" fill="#FCC62D"/>
<path d="M55.2258 16.4529C55.2258 8.22581 60.6245 1.44375 67.5935 0.471018C67.0274 0.391635 66.4522 0.346191 65.8678 0.346191C58.0842 0.346191 51.7744 7.55738 51.7744 16.4529C51.7744 25.3484 58.0842 32.5595 65.8678 32.5595C66.4522 32.5595 67.0274 32.5141 67.5935 32.4353C60.6245 31.462 55.2258 24.6799 55.2258 16.4529Z" fill="#E4AF18"/>
<path d="M55.2252 17.0288H51.7749C51.7864 17.4159 51.8083 17.7996 51.8434 18.1793H55.2965C55.2608 17.8002 55.2367 17.4165 55.2252 17.0288Z" fill="#CE9912"/>
<path d="M55.3563 14.1523H51.9072C51.8595 14.5314 51.8255 14.9157 51.8008 15.3028H55.2516C55.2764 14.9163 55.3097 14.532 55.3563 14.1523Z" fill="#CE9912"/>
<path d="M55.5416 19.9048H52.0896C52.1644 20.2936 52.2507 20.6773 52.349 21.0553H55.7999C55.7015 20.6779 55.6158 20.2942 55.5416 19.9048Z" fill="#CE9912"/>
<path d="M56.3463 22.7812H52.8926C53.0393 23.1736 53.2009 23.5561 53.3741 23.9317H56.8266C56.6535 23.5572 56.493 23.1736 56.3463 22.7812Z" fill="#CE9912"/>
<path d="M55.9581 11.2764H52.5095C52.3979 11.6543 52.2932 12.0368 52.2058 12.4268H55.6613C55.7481 12.0386 55.8459 11.6537 55.9581 11.2764Z" fill="#CE9912"/>
<path d="M57.1034 8.40088H53.6514C53.4621 8.77536 53.2832 9.15847 53.1199 9.55136H56.5736C56.737 9.15847 56.9136 8.77478 57.1034 8.40088Z" fill="#CE9912"/>
<path d="M59.451 4.94922H55.9955C55.6682 5.31507 55.357 5.69875 55.0625 6.0997H58.5168C58.8113 5.69875 59.1231 5.31507 59.451 4.94922Z" fill="#CE9912"/>
<path d="M62.968 2.07275H59.5085C58.9212 2.41214 58.3569 2.7964 57.8196 3.22323H61.2762C61.814 2.79698 62.3789 2.41272 62.968 2.07275Z" fill="#CE9912"/>
<path d="M58.113 26.2324H54.6604C54.9273 26.6311 55.2092 27.0147 55.5077 27.3829H58.9632C58.6641 27.0147 58.381 26.6311 58.113 26.2324Z" fill="#CE9912"/>
<path d="M57.1436 29.1089C57.6055 29.5248 58.0898 29.9113 58.5955 30.2594H62.0555C61.5464 29.9102 61.0581 29.5265 60.5933 29.1089H57.1436Z" fill="#CE9912"/>
<path d="M69.3681 29.4094H69.3192C68.9165 29.4094 68.511 29.3853 68.1141 29.3381C67.7988 29.3001 67.5728 29.0142 67.6113 28.6984C67.6481 28.3832 67.926 28.1635 68.2504 28.1957C68.6013 28.2377 68.9614 28.259 69.3186 28.259C69.6367 28.259 69.918 28.5167 69.918 28.8342C69.9186 29.1517 69.6862 29.4094 69.3681 29.4094ZM72.7137 28.7899C72.4813 28.7899 72.2621 28.6478 72.1747 28.4171C72.0625 28.1203 72.2132 27.7884 72.51 27.6762C72.8425 27.5508 73.1733 27.4042 73.4914 27.2408C73.775 27.0947 74.1207 27.2068 74.2668 27.4893C74.4118 27.7717 74.3008 28.1186 74.0172 28.2636C73.6599 28.4476 73.2895 28.6116 72.9156 28.7525C72.8494 28.7778 72.781 28.7899 72.7137 28.7899ZM64.9278 28.3504C64.8398 28.3504 64.7506 28.3303 64.6678 28.2877C64.3123 28.1077 63.962 27.9046 63.6272 27.6849C63.3609 27.5112 63.2867 27.1545 63.461 26.8887C63.6358 26.6236 63.9913 26.5488 64.2577 26.7231C64.5574 26.9192 64.8703 27.101 65.1884 27.2621C65.472 27.4059 65.5842 27.7522 65.4404 28.0352C65.3397 28.2354 65.1378 28.3504 64.9278 28.3504ZM76.4964 26.3037C76.3498 26.3037 76.2036 26.2485 76.0921 26.1381C75.866 25.9143 75.8637 25.5502 76.0869 25.3241C76.3383 25.071 76.5804 24.7989 76.8111 24.517C77.0113 24.2708 77.3731 24.2334 77.6193 24.4336C77.8667 24.6344 77.9029 24.9968 77.7033 25.243C77.4502 25.5536 77.1816 25.8533 76.9054 26.1329C76.7927 26.2468 76.6443 26.3037 76.4964 26.3037ZM61.4137 25.4944C61.2469 25.4944 61.0824 25.4225 60.969 25.2838C60.7205 24.9818 60.4812 24.6597 60.2569 24.3266C60.0786 24.0637 60.1476 23.7059 60.4105 23.5276C60.6745 23.3504 61.0312 23.4195 61.2101 23.6829C61.4148 23.9861 61.6334 24.28 61.8595 24.555C62.0603 24.8006 62.0252 25.163 61.7784 25.3644C61.6714 25.4518 61.542 25.4944 61.4137 25.4944ZM79.0235 22.5382C78.947 22.5382 78.8693 22.5227 78.7939 22.4905C78.5029 22.3633 78.37 22.0245 78.4965 21.7329C78.6409 21.4015 78.7721 21.0587 78.8889 20.7153C78.9907 20.4144 79.3168 20.2528 79.6183 20.3535C79.9185 20.4553 80.0808 20.7814 79.9795 21.0823C79.8524 21.4573 79.7086 21.8307 79.5521 22.1925C79.4566 22.4088 79.2455 22.5382 79.0235 22.5382ZM59.2209 21.5223C58.9816 21.5223 58.7572 21.3716 58.6761 21.1323C58.549 20.7596 58.4357 20.3753 58.3396 19.9922C58.2637 19.6839 58.4512 19.3721 58.759 19.2956C59.0667 19.2174 59.3791 19.406 59.4567 19.7144C59.5436 20.0658 59.6477 20.4185 59.7645 20.7613C59.868 21.061 59.7064 21.3889 59.4061 21.4913C59.3451 21.512 59.2824 21.5223 59.2209 21.5223ZM80.1112 18.1296C80.0974 18.1296 80.0813 18.129 80.0664 18.1279C79.7494 18.1037 79.5124 17.827 79.5372 17.5101C79.5648 17.1632 79.5774 16.8077 79.5774 16.4528C79.5774 16.1352 79.8351 15.8585 80.1527 15.8585C80.4708 15.8585 80.7279 16.0973 80.7279 16.4154V16.4528C80.7279 16.8376 80.7135 17.223 80.6842 17.5986C80.6606 17.9006 80.4092 18.1296 80.1112 18.1296ZM58.4852 17.0343C58.1676 17.0343 57.9099 16.7835 57.9099 16.466V16.4528C57.9099 16.0645 57.926 15.6704 57.9565 15.2816C57.9807 14.9646 58.2637 14.7322 58.5749 14.7535C58.8913 14.7782 59.1283 15.0549 59.1035 15.3719C59.0753 15.7308 59.0604 16.0944 59.0604 16.4528C59.0604 16.7703 58.8033 17.0343 58.4852 17.0343ZM79.7333 13.6036C79.4762 13.6036 79.2409 13.4299 79.1753 13.1687C79.0879 12.8173 78.9826 12.4652 78.8647 12.1224C78.7617 11.8215 78.9228 11.4942 79.2219 11.3912C79.5262 11.2871 79.8501 11.4482 79.9536 11.7485C80.0813 12.1218 80.1952 12.5055 80.2913 12.888C80.3684 13.1963 80.1814 13.5087 79.8725 13.5858C79.8259 13.5984 79.7793 13.6036 79.7333 13.6036ZM59.2128 12.559C59.1519 12.559 59.0892 12.5486 59.0288 12.5279C58.7273 12.4261 58.5663 12.0994 58.6687 11.7985C58.7958 11.4223 58.9407 11.049 59.0989 10.6889C59.2272 10.3978 59.5637 10.2643 59.8559 10.3932C60.147 10.5209 60.2799 10.8603 60.1528 11.1508C60.0078 11.481 59.8749 11.8232 59.7576 12.1678C59.6765 12.4077 59.4527 12.559 59.2128 12.559ZM77.892 9.45614C77.7073 9.45614 77.5255 9.36755 77.4151 9.20361C77.212 8.90449 76.9935 8.61169 76.7645 8.33327C76.562 8.08822 76.5983 7.72525 76.8433 7.52334C77.0889 7.32201 77.4508 7.35709 77.6532 7.60215C77.9046 7.90817 78.1445 8.23031 78.3677 8.55819C78.5454 8.82165 78.4758 9.17887 78.213 9.3572C78.1146 9.42393 78.003 9.45614 77.892 9.45614ZM61.3976 8.58178C61.2693 8.58178 61.141 8.53978 61.0335 8.45235C60.7873 8.25102 60.7516 7.88919 60.9523 7.64299C61.2049 7.33351 61.4741 7.03439 61.7514 6.75482C61.9763 6.52875 62.3398 6.52818 62.5647 6.75137C62.7914 6.97514 62.7925 7.33926 62.5682 7.56476C62.3168 7.81844 62.0735 8.08995 61.8428 8.37066C61.7295 8.50987 61.5638 8.58178 61.3976 8.58178ZM74.6752 6.26357C74.5671 6.26357 74.4584 6.23308 74.3612 6.17038C74.0603 5.97365 73.7468 5.79302 73.4293 5.63368C73.1463 5.49102 73.0324 5.14415 73.1756 4.86056C73.3183 4.57697 73.6628 4.46249 73.9476 4.6063C74.3025 4.78463 74.6534 4.98711 74.9905 5.20685C75.2568 5.38 75.3322 5.73665 75.1584 6.00298C75.0468 6.17153 74.8628 6.26357 74.6752 6.26357ZM64.906 5.71766C64.696 5.71766 64.4947 5.60319 64.3923 5.40416C64.2485 5.12057 64.3601 4.77427 64.6431 4.62989C65.0026 4.44696 65.3736 4.28244 65.7458 4.14381C66.0461 4.03164 66.3751 4.1835 66.4867 4.4809C66.5977 4.7783 66.4465 5.10964 66.1496 5.22123C65.8177 5.34549 65.4864 5.49102 65.1671 5.65439C65.0831 5.69696 64.994 5.71766 64.906 5.71766ZM70.4317 4.711C70.4104 4.711 70.388 4.70985 70.3656 4.70697C70.0187 4.6667 69.6672 4.64657 69.3192 4.64657C69.0017 4.64657 68.7319 4.38886 68.7319 4.07133C68.7319 3.7538 68.9769 3.49609 69.2945 3.49609H69.3192C69.7109 3.49609 70.1078 3.5191 70.4973 3.56455C70.8131 3.60079 71.0392 3.88668 71.0023 4.20191C70.969 4.49528 70.7205 4.711 70.4317 4.711Z" fill="#FFD949"/>
<path d="M73.6072 15.3505C74.5074 14.7143 74.9636 13.7818 74.9636 12.5715C74.9636 11.5447 74.6144 10.6744 73.9258 9.98637C73.2373 9.29839 72.3353 8.94922 71.2458 8.94922H65.4336C65.0856 8.94922 64.8607 9.17471 64.8607 9.52273C64.8607 9.8719 65.0856 10.0968 65.4336 10.0968L66.7653 10.0951L66.767 18.4412H65.035C64.7186 18.4412 64.4597 18.7001 64.4597 19.0165C64.4597 19.3328 64.7186 19.5917 65.035 19.5917H66.7676V21.7166H65.4336C65.0856 21.7166 64.8607 21.9416 64.8607 22.2901C64.8607 22.6376 65.0856 22.8637 65.4336 22.8637H72.008C73.2396 22.8637 74.2094 22.5076 74.8922 21.8046C75.5722 21.104 75.9162 20.1969 75.9162 19.1079C75.9162 17.1504 75.1402 15.89 73.6072 15.3505ZM67.9117 10.0968H71.2464C72.05 10.0968 72.6666 10.3212 73.1291 10.7837C73.5916 11.2467 73.8165 11.8191 73.8165 12.5335C73.8165 13.2503 73.587 13.8364 73.1153 14.3254C72.6471 14.8115 72.0667 15.0473 71.3407 15.0473L67.9123 15.049L67.9111 10.0997C67.9117 10.0997 67.8876 10.0968 67.9117 10.0968ZM74.0438 20.9913C73.5554 21.4796 72.8898 21.7166 72.008 21.7166L67.9129 21.7189L67.9123 19.5917H70.2127C70.5296 19.5917 70.7879 19.3328 70.7879 19.0165C70.7879 18.7001 70.5296 18.4412 70.2127 18.4412H67.9123L67.9117 16.1984C67.9117 16.1984 67.887 16.1949 67.9111 16.1949H72.008C72.8898 16.1949 73.5554 16.4319 74.0438 16.9203C74.5327 17.4087 74.7697 18.0748 74.7697 18.9561C74.7697 19.8368 74.5327 20.5029 74.0438 20.9913Z" fill="#CE9912"/>
</g>
<path d="M112.894 91.2818C112.894 75.8495 112.894 42.8353 112.894 34.2373" stroke="#A6B1C1" stroke-width="3"/>
<path d="M112.718 57.8801L112.727 57.8415C113.74 53.5613 116.327 42.626 130.007 42.626C129.184 42.626 129.458 49.837 125.616 54.8292C122.543 58.823 115.737 58.5272 112.718 57.8801Z" fill="#A6B1C1"/>
<path d="M112.718 69.806C112.444 65.1835 109.699 55.9941 100.918 56.216C99.8202 54.8292 99.8202 66.4778 112.718 69.806Z" fill="#A6B1C1"/>
<g clip-path="url(#clip1)">
<path d="M114.157 42.6458C107.747 42.6458 102.551 36.7072 102.551 29.3815C102.551 22.0558 107.747 16.1172 114.157 16.1172C120.567 16.1172 125.763 22.0558 125.763 29.3815C125.763 36.7072 120.567 42.6458 114.157 42.6458Z" fill="#FCC62D"/>
<path d="M102.551 29.3815C102.551 22.6063 106.997 17.0211 112.736 16.22C112.27 16.1546 111.796 16.1172 111.315 16.1172C104.905 16.1172 99.7083 22.0558 99.7083 29.3815C99.7083 36.7072 104.905 42.6458 111.315 42.6458C111.796 42.6458 112.27 42.6084 112.736 42.5435C106.997 41.742 102.551 36.1567 102.551 29.3815Z" fill="#E4AF18"/>
<path d="M102.55 29.856H99.7087C99.7182 30.1748 99.7362 30.4908 99.7651 30.8034H102.609C102.58 30.4912 102.56 30.1752 102.55 29.856Z" fill="#CE9912"/>
<path d="M102.658 27.4873H99.8179C99.7785 27.7995 99.7506 28.1159 99.7302 28.4348H102.572C102.592 28.1164 102.62 27.8 102.658 27.4873Z" fill="#CE9912"/>
<path d="M102.811 32.2241H99.9678C100.029 32.5444 100.1 32.8603 100.181 33.1716H103.023C102.942 32.8608 102.872 32.5448 102.811 32.2241Z" fill="#CE9912"/>
<path d="M103.473 34.5928H100.629C100.75 34.9159 100.883 35.2309 101.026 35.5402H103.869C103.726 35.2318 103.594 34.9159 103.473 34.5928Z" fill="#CE9912"/>
<path d="M103.154 25.1182H100.314C100.222 25.4294 100.135 25.7444 100.063 26.0656H102.909C102.981 25.7459 103.061 25.4289 103.154 25.1182Z" fill="#CE9912"/>
<path d="M104.097 22.7505H101.254C101.098 23.0589 100.951 23.3744 100.816 23.6979H103.661C103.795 23.3744 103.941 23.0584 104.097 22.7505Z" fill="#CE9912"/>
<path d="M106.03 19.9077H103.184C102.915 20.209 102.659 20.525 102.416 20.8552H105.261C105.503 20.525 105.76 20.209 106.03 19.9077Z" fill="#CE9912"/>
<path d="M108.927 17.5391H106.078C105.594 17.8186 105.129 18.135 104.687 18.4865H107.533C107.976 18.1355 108.442 17.819 108.927 17.5391Z" fill="#CE9912"/>
<path d="M104.928 37.4351H102.085C102.305 37.7634 102.537 38.0793 102.783 38.3825H105.628C105.382 38.0793 105.149 37.7634 104.928 37.4351Z" fill="#CE9912"/>
<path d="M104.13 39.8037C104.511 40.1462 104.909 40.4646 105.326 40.7512H108.175C107.756 40.4636 107.354 40.1476 106.971 39.8037H104.13Z" fill="#CE9912"/>
<path d="M114.197 40.0518H114.157C113.825 40.0518 113.491 40.0319 113.164 39.9931C112.905 39.9618 112.719 39.7264 112.75 39.4663C112.781 39.2067 113.01 39.0257 113.277 39.0523C113.566 39.0868 113.862 39.1044 114.156 39.1044C114.418 39.1044 114.65 39.3166 114.65 39.5781C114.65 39.8396 114.459 40.0518 114.197 40.0518ZM116.952 39.5416C116.761 39.5416 116.58 39.4246 116.508 39.2346C116.416 38.9902 116.54 38.7169 116.785 38.6245C117.058 38.5212 117.331 38.4004 117.593 38.2659C117.826 38.1456 118.111 38.2379 118.231 38.4705C118.351 38.7031 118.259 38.9888 118.026 39.1082C117.732 39.2598 117.427 39.3948 117.119 39.5108C117.064 39.5317 117.008 39.5416 116.952 39.5416ZM110.54 39.1797C110.468 39.1797 110.395 39.1631 110.326 39.1281C110.034 38.9798 109.745 38.8126 109.469 38.6316C109.25 38.4885 109.189 38.1948 109.332 37.976C109.476 37.7576 109.769 37.696 109.989 37.8395C110.235 38.0011 110.493 38.1508 110.755 38.2834C110.989 38.4018 111.081 38.687 110.963 38.9201C110.88 39.0849 110.713 39.1797 110.54 39.1797ZM120.068 37.4942C119.947 37.4942 119.826 37.4487 119.735 37.3577C119.548 37.1735 119.546 36.8736 119.73 36.6874C119.937 36.479 120.137 36.2549 120.327 36.0228C120.492 35.82 120.789 35.7892 120.992 35.9541C121.196 36.1194 121.226 36.4179 121.061 36.6206C120.853 36.8764 120.632 37.1233 120.404 37.3535C120.312 37.4473 120.189 37.4942 120.068 37.4942ZM107.646 36.8276C107.509 36.8276 107.374 36.7684 107.28 36.6543C107.076 36.4056 106.879 36.1403 106.694 35.866C106.547 35.6495 106.604 35.3548 106.82 35.208C107.038 35.0621 107.331 35.1189 107.479 35.3359C107.647 35.5855 107.827 35.8276 108.014 36.0541C108.179 36.2563 108.15 36.5548 107.947 36.7206C107.859 36.7926 107.752 36.8276 107.646 36.8276ZM122.149 34.3932C122.086 34.3932 122.022 34.3804 121.96 34.3538C121.72 34.2492 121.61 33.9701 121.715 33.73C121.834 33.4571 121.942 33.1747 122.038 32.8919C122.122 32.6442 122.39 32.5111 122.638 32.594C122.886 32.6778 123.019 32.9464 122.936 33.1942C122.831 33.503 122.713 33.8105 122.584 34.1085C122.505 34.2866 122.331 34.3932 122.149 34.3932ZM105.841 33.5566C105.644 33.5566 105.459 33.4325 105.392 33.2354C105.287 32.9284 105.194 32.612 105.115 32.2965C105.052 32.0425 105.207 31.7858 105.46 31.7228C105.714 31.6584 105.971 31.8137 106.035 32.0676C106.106 32.3571 106.192 32.6475 106.288 32.9298C106.374 33.1766 106.24 33.4467 105.993 33.531C105.943 33.548 105.891 33.5566 105.841 33.5566ZM123.044 30.7625C123.033 30.7625 123.02 30.7621 123.007 30.7611C122.746 30.7412 122.551 30.5134 122.572 30.2523C122.594 29.9667 122.605 29.6739 122.605 29.3816C122.605 29.1201 122.817 28.8923 123.079 28.8923C123.341 28.8923 123.552 29.0889 123.552 29.3508V29.3816C123.552 29.6985 123.54 30.0159 123.516 30.3253C123.497 30.574 123.29 30.7625 123.044 30.7625ZM105.235 29.8606C104.973 29.8606 104.761 29.654 104.761 29.3925V29.3816C104.761 29.0619 104.774 28.7374 104.799 28.4171C104.819 28.1561 105.052 27.9647 105.309 27.9822C105.569 28.0026 105.764 28.2305 105.744 28.4915C105.721 28.7871 105.708 29.0865 105.708 29.3816C105.708 29.6431 105.497 29.8606 105.235 29.8606ZM122.733 27.0353C122.521 27.0353 122.328 26.8922 122.274 26.6771C122.202 26.3877 122.115 26.0978 122.018 25.8154C121.933 25.5677 122.066 25.2981 122.312 25.2133C122.563 25.1276 122.829 25.2602 122.915 25.5075C123.02 25.8149 123.114 26.1309 123.193 26.4459C123.256 26.6999 123.102 26.9571 122.848 27.0206C122.809 27.031 122.771 27.0353 122.733 27.0353ZM105.834 26.175C105.784 26.175 105.732 26.1664 105.682 26.1494C105.434 26.0655 105.302 25.7965 105.386 25.5487C105.491 25.2389 105.61 24.9314 105.74 24.6349C105.846 24.3952 106.123 24.2853 106.364 24.3914C106.603 24.4966 106.713 24.7761 106.608 25.0153C106.489 25.2872 106.379 25.5691 106.283 25.8528C106.216 26.0504 106.032 26.175 105.834 26.175ZM121.217 23.6197C121.065 23.6197 120.915 23.5467 120.824 23.4117C120.657 23.1654 120.477 22.9243 120.288 22.695C120.122 22.4932 120.151 22.1943 120.353 22.028C120.555 21.8622 120.853 21.8911 121.02 22.0929C121.227 22.3449 121.425 22.6102 121.609 22.8802C121.755 23.0972 121.698 23.3914 121.481 23.5382C121.4 23.5932 121.308 23.6197 121.217 23.6197ZM107.633 22.8996C107.528 22.8996 107.422 22.8651 107.333 22.793C107.131 22.6272 107.101 22.3293 107.267 22.1265C107.474 21.8717 107.696 21.6253 107.925 21.3951C108.11 21.2089 108.409 21.2084 108.594 21.3922C108.781 21.5765 108.782 21.8764 108.597 22.0621C108.39 22.271 108.19 22.4946 108 22.7258C107.907 22.8404 107.77 22.8996 107.633 22.8996ZM118.568 20.9905C118.479 20.9905 118.389 20.9654 118.309 20.9138C118.061 20.7518 117.803 20.603 117.542 20.4718C117.309 20.3543 117.215 20.0687 117.333 19.8351C117.45 19.6016 117.734 19.5073 117.968 19.6257C118.261 19.7726 118.55 19.9393 118.827 20.1203C119.047 20.2629 119.109 20.5566 118.966 20.7759C118.874 20.9147 118.722 20.9905 118.568 20.9905ZM110.522 20.541C110.35 20.541 110.184 20.4467 110.099 20.2828C109.981 20.0492 110.073 19.764 110.306 19.6451C110.602 19.4945 110.908 19.359 111.214 19.2448C111.461 19.1525 111.732 19.2775 111.824 19.5224C111.916 19.7674 111.791 20.0402 111.547 20.1321C111.273 20.2345 111 20.3543 110.738 20.4888C110.668 20.5239 110.595 20.541 110.522 20.541ZM115.073 19.7119C115.056 19.7119 115.037 19.711 115.019 19.7086C114.733 19.6755 114.443 19.6589 114.157 19.6589C113.895 19.6589 113.673 19.4466 113.673 19.1852C113.673 18.9237 113.875 18.7114 114.136 18.7114H114.157C114.479 18.7114 114.806 18.7304 115.127 18.7678C115.387 18.7976 115.573 19.0331 115.543 19.2927C115.516 19.5343 115.311 19.7119 115.073 19.7119Z" fill="#FFD949"/>
<path d="M117.688 28.4738C118.429 27.9498 118.805 27.1819 118.805 26.1852C118.805 25.3396 118.517 24.6229 117.95 24.0563C117.383 23.4897 116.641 23.2021 115.743 23.2021H110.957C110.67 23.2021 110.485 23.3878 110.485 23.6745C110.485 23.962 110.67 24.1472 110.957 24.1472L112.053 24.1458L112.055 31.0191H110.629C110.368 31.0191 110.155 31.2323 110.155 31.4928C110.155 31.7534 110.368 31.9665 110.629 31.9665H112.055V33.7165H110.957C110.67 33.7165 110.485 33.9017 110.485 34.1888C110.485 34.4749 110.67 34.6611 110.957 34.6611H116.371C117.385 34.6611 118.184 34.3679 118.746 33.789C119.306 33.212 119.59 32.4649 119.59 31.5681C119.59 29.9561 118.95 28.9181 117.688 28.4738ZM112.998 24.1472H115.744C116.406 24.1472 116.913 24.332 117.294 24.7129C117.675 25.0942 117.86 25.5656 117.86 26.1539C117.86 26.7442 117.671 27.2269 117.283 27.6296C116.897 28.0299 116.419 28.2241 115.821 28.2241L112.998 28.2255L112.997 24.1496C112.998 24.1496 112.978 24.1472 112.998 24.1472ZM118.048 33.1191C117.645 33.5213 117.097 33.7165 116.371 33.7165L112.999 33.7184L112.998 31.9665H114.893C115.154 31.9665 115.366 31.7534 115.366 31.4928C115.366 31.2323 115.154 31.0191 114.893 31.0191H112.998L112.998 29.172C112.998 29.172 112.977 29.1692 112.997 29.1692H116.371C117.097 29.1692 117.645 29.3644 118.048 29.7666C118.45 30.1688 118.645 30.7173 118.645 31.4431C118.645 32.1684 118.45 32.7169 118.048 33.1191Z" fill="#CE9912"/>
</g>
<path d="M13.4221 91.2818C13.4221 75.8495 13.4221 42.8353 13.4221 34.2373" stroke="#A6B1C1" stroke-width="3"/>
<path d="M13.2467 57.8801L13.2558 57.8415C14.2685 53.5613 16.8556 42.626 30.5355 42.626C29.7122 42.626 29.9866 49.837 26.1447 54.8292C23.0711 58.823 16.2654 58.5272 13.2467 57.8801Z" fill="#A6B1C1"/>
<path d="M13.2467 69.806C12.9723 65.1835 10.228 55.9941 1.44642 56.216C0.348721 54.8292 0.348721 66.4778 13.2467 69.806Z" fill="#A6B1C1"/>
<g clip-path="url(#clip2)">
<path d="M14.6854 42.6458C8.2754 42.6458 3.0791 36.7072 3.0791 29.3815C3.0791 22.0558 8.2754 16.1172 14.6854 16.1172C21.0954 16.1172 26.2917 22.0558 26.2917 29.3815C26.2917 36.7072 21.0954 42.6458 14.6854 42.6458Z" fill="#FCC62D"/>
<path d="M3.07917 29.3815C3.07917 22.6063 7.52509 17.0211 13.2643 16.22C12.7981 16.1546 12.3244 16.1172 11.8431 16.1172C5.43311 16.1172 0.236816 22.0558 0.236816 29.3815C0.236816 36.7072 5.43311 42.6458 11.8431 42.6458C12.3244 42.6458 12.7981 42.6084 13.2643 42.5435C7.52509 41.742 3.07917 36.1567 3.07917 29.3815Z" fill="#E4AF18"/>
<path d="M3.07871 29.856H0.237305C0.246779 30.1748 0.264781 30.4908 0.293678 30.8034H3.13745C3.10808 30.4912 3.08819 30.1752 3.07871 29.856Z" fill="#CE9912"/>
<path d="M3.18689 27.4873H0.346428C0.307109 27.7995 0.279159 28.1159 0.258789 28.4348H3.10067C3.12104 28.1164 3.14852 27.8 3.18689 27.4873Z" fill="#CE9912"/>
<path d="M3.33917 32.2241H0.496338C0.557922 32.5444 0.628981 32.8603 0.709988 33.1716H3.55187C3.47086 32.8608 3.40028 32.5448 3.33917 32.2241Z" fill="#CE9912"/>
<path d="M4.00196 34.5928H1.15771C1.27851 34.9159 1.41163 35.2309 1.55422 35.5402H4.39752C4.25493 35.2318 4.12276 34.9159 4.00196 34.5928Z" fill="#CE9912"/>
<path d="M3.68215 25.1182H0.842168C0.750265 25.4294 0.664047 25.7444 0.592041 26.0656H3.43771C3.50924 25.7459 3.58978 25.4289 3.68215 25.1182Z" fill="#CE9912"/>
<path d="M4.62552 22.7505H1.78269C1.62684 23.0589 1.47951 23.3744 1.34497 23.6979H4.18922C4.32376 23.3744 4.46919 23.0584 4.62552 22.7505Z" fill="#CE9912"/>
<path d="M6.55863 19.9077H3.71296C3.44341 20.209 3.18713 20.525 2.94458 20.8552H5.7893C6.03185 20.525 6.28861 20.209 6.55863 19.9077Z" fill="#CE9912"/>
<path d="M9.45518 17.5391H6.60619C6.12252 17.8186 5.65779 18.135 5.21533 18.4865H8.06195C8.50488 18.1355 8.97008 17.819 9.45518 17.5391Z" fill="#CE9912"/>
<path d="M5.45683 37.4351H2.61353C2.83333 37.7634 3.06546 38.0793 3.31132 38.3825H6.15699C5.91066 38.0793 5.67758 37.7634 5.45683 37.4351Z" fill="#CE9912"/>
<path d="M4.65869 39.8037C5.03909 40.1462 5.43797 40.4646 5.85438 40.7512H8.70384C8.28459 40.4636 7.8824 40.1476 7.49963 39.8037H4.65869Z" fill="#CE9912"/>
<path d="M14.7257 40.0518H14.6854C14.3538 40.0518 14.0198 40.0319 13.693 39.9931C13.4334 39.9618 13.2472 39.7264 13.2789 39.4663C13.3093 39.2067 13.5381 39.0257 13.8052 39.0523C14.0942 39.0868 14.3908 39.1044 14.685 39.1044C14.9469 39.1044 15.1786 39.3166 15.1786 39.5781C15.1791 39.8396 14.9877 40.0518 14.7257 40.0518ZM17.4809 39.5416C17.2895 39.5416 17.109 39.4246 17.037 39.2346C16.9446 38.9902 17.0687 38.7169 17.3132 38.6245C17.587 38.5212 17.8594 38.4004 18.1214 38.2659C18.3549 38.1456 18.6396 38.2379 18.7599 38.4705C18.8793 38.7031 18.7879 38.9888 18.5543 39.1082C18.2602 39.2598 17.9551 39.3948 17.6472 39.5108C17.5927 39.5317 17.5363 39.5416 17.4809 39.5416ZM11.069 39.1797C10.9965 39.1797 10.9231 39.1631 10.8549 39.1281C10.5621 38.9798 10.2736 38.8126 9.99791 38.6316C9.77858 38.4885 9.71747 38.1948 9.861 37.976C10.005 37.7576 10.2978 37.696 10.5171 37.8395C10.7639 38.0011 11.0216 38.1508 11.2836 38.2834C11.5172 38.4018 11.6095 38.687 11.4911 38.9201C11.4082 39.0849 11.2419 39.1797 11.069 39.1797ZM20.5961 37.4942C20.4753 37.4942 20.355 37.4487 20.2631 37.3577C20.0769 37.1735 20.075 36.8736 20.2588 36.6874C20.4658 36.479 20.6653 36.2549 20.8552 36.0228C21.0201 35.82 21.3181 35.7892 21.5208 35.9541C21.7245 36.1194 21.7544 36.4179 21.59 36.6206C21.3815 36.8764 21.1603 37.1233 20.9329 37.3535C20.8401 37.4473 20.7179 37.4942 20.5961 37.4942ZM8.17501 36.8276C8.03763 36.8276 7.90215 36.7684 7.80882 36.6543C7.60417 36.4056 7.40711 36.1403 7.22235 35.866C7.0755 35.6495 7.13234 35.3548 7.34884 35.208C7.56628 35.0621 7.85999 35.1189 8.00732 35.3359C8.17596 35.5855 8.35598 35.8276 8.54215 36.0541C8.70748 36.2563 8.67859 36.5548 8.47536 36.7206C8.38724 36.7926 8.28066 36.8276 8.17501 36.8276ZM22.6772 34.3932C22.6142 34.3932 22.5502 34.3804 22.4882 34.3538C22.2485 34.2492 22.139 33.9701 22.2432 33.73C22.3622 33.4571 22.4702 33.1747 22.5663 32.8919C22.6502 32.6442 22.9188 32.5111 23.167 32.594C23.4143 32.6778 23.5479 32.9464 23.4645 33.1942C23.3598 33.503 23.2414 33.8105 23.1125 34.1085C23.0339 34.2866 22.86 34.3932 22.6772 34.3932ZM6.36917 33.5566C6.1721 33.5566 5.98735 33.4325 5.92055 33.2354C5.81586 32.9284 5.72254 32.612 5.64342 32.2965C5.58089 32.0425 5.73533 31.7858 5.98877 31.7228C6.24221 31.6584 6.49945 31.8137 6.5634 32.0676C6.63493 32.3571 6.72068 32.6475 6.81684 32.9298C6.90211 33.1766 6.769 33.4467 6.52171 33.531C6.4715 33.548 6.41986 33.5566 6.36917 33.5566ZM23.573 30.7625C23.5616 30.7625 23.5484 30.7621 23.536 30.7611C23.275 30.7412 23.0799 30.5134 23.1002 30.2523C23.123 29.9667 23.1334 29.6739 23.1334 29.3816C23.1334 29.1201 23.3456 28.8923 23.6071 28.8923C23.8691 28.8923 24.0808 29.0889 24.0808 29.3508V29.3816C24.0808 29.6985 24.069 30.0159 24.0448 30.3253C24.0254 30.574 23.8184 30.7625 23.573 30.7625ZM5.76328 29.8606C5.50178 29.8606 5.28955 29.654 5.28955 29.3925V29.3816C5.28955 29.0619 5.30281 28.7374 5.32792 28.4171C5.34782 28.1561 5.58089 27.9647 5.83718 27.9822C6.09773 28.0026 6.2929 28.2305 6.27253 28.4915C6.24932 28.7871 6.237 29.0865 6.237 29.3816C6.237 29.6431 6.02525 29.8606 5.76328 29.8606ZM23.2618 27.0353C23.05 27.0353 22.8563 26.8922 22.8022 26.6771C22.7302 26.3877 22.6435 26.0978 22.5464 25.8154C22.4616 25.5677 22.5943 25.2981 22.8406 25.2133C23.0912 25.1276 23.3579 25.2602 23.4432 25.5075C23.5484 25.8149 23.6422 26.1309 23.7213 26.4459C23.7848 26.6999 23.6308 26.9571 23.3764 27.0206C23.338 27.031 23.2997 27.0353 23.2618 27.0353ZM6.36254 26.175C6.31232 26.175 6.26069 26.1664 6.21095 26.1494C5.96272 26.0655 5.83007 25.7965 5.91439 25.5487C6.01909 25.2389 6.13847 24.9314 6.26874 24.6349C6.37438 24.3952 6.65151 24.2853 6.89216 24.3914C7.13187 24.4966 7.2413 24.7761 7.13661 25.0153C7.01723 25.2872 6.9078 25.5691 6.81116 25.8528C6.74436 26.0504 6.56008 26.175 6.36254 26.175ZM21.7454 23.6197C21.5933 23.6197 21.4436 23.5467 21.3526 23.4117C21.1854 23.1654 21.0054 22.9243 20.8169 22.695C20.6501 22.4932 20.68 22.1943 20.8818 22.028C21.084 21.8622 21.382 21.8911 21.5488 22.0929C21.7558 22.3449 21.9533 22.6102 22.1371 22.8802C22.2835 23.0972 22.2262 23.3914 22.0097 23.5382C21.9287 23.5932 21.8368 23.6197 21.7454 23.6197ZM8.16175 22.8996C8.05611 22.8996 7.95047 22.8651 7.86188 22.793C7.65913 22.6272 7.62976 22.3293 7.79509 22.1265C8.00305 21.8717 8.22476 21.6253 8.45309 21.3951C8.63832 21.2089 8.93771 21.2084 9.12294 21.3922C9.30959 21.5765 9.31054 21.8764 9.12578 22.0621C8.91876 22.271 8.71838 22.4946 8.52841 22.7258C8.43509 22.8404 8.29866 22.8996 8.16175 22.8996ZM19.0963 20.9905C19.0072 20.9905 18.9177 20.9654 18.8376 20.9138C18.5899 20.7518 18.3317 20.603 18.0702 20.4718C17.8371 20.3543 17.7433 20.0687 17.8613 19.8351C17.9788 19.6016 18.2625 19.5073 18.497 19.6257C18.7893 19.7726 19.0783 19.9393 19.3559 20.1203C19.5752 20.2629 19.6373 20.5566 19.4942 20.7759C19.4023 20.9147 19.2507 20.9905 19.0963 20.9905ZM11.051 20.541C10.8781 20.541 10.7123 20.4467 10.628 20.2828C10.5095 20.0492 10.6014 19.764 10.8345 19.6451C11.1306 19.4945 11.4361 19.359 11.7426 19.2448C11.9899 19.1525 12.2609 19.2775 12.3528 19.5224C12.4442 19.7674 12.3196 20.0402 12.0752 20.1321C11.8019 20.2345 11.529 20.3543 11.2661 20.4888C11.1969 20.5239 11.1235 20.541 11.051 20.541ZM15.6016 19.7119C15.5841 19.7119 15.5656 19.711 15.5471 19.7086C15.2615 19.6755 14.972 19.6589 14.6854 19.6589C14.4239 19.6589 14.2018 19.4466 14.2018 19.1852C14.2018 18.9237 14.4036 18.7114 14.6651 18.7114H14.6854C15.008 18.7114 15.3349 18.7304 15.6556 18.7678C15.9157 18.7976 16.1019 19.0331 16.0715 19.2927C16.0441 19.5343 15.8394 19.7119 15.6016 19.7119Z" fill="#FFD949"/>
<path d="M18.2165 28.4738C18.9579 27.9498 19.3336 27.1819 19.3336 26.1852C19.3336 25.3396 19.046 24.6229 18.479 24.0563C17.9119 23.4897 17.1691 23.2021 16.2719 23.2021H11.4854C11.1988 23.2021 11.0135 23.3878 11.0135 23.6745C11.0135 23.962 11.1988 24.1472 11.4854 24.1472L12.582 24.1458L12.5835 31.0191H11.1571C10.8965 31.0191 10.6833 31.2323 10.6833 31.4928C10.6833 31.7534 10.8965 31.9665 11.1571 31.9665H12.5839V33.7165H11.4854C11.1988 33.7165 11.0135 33.9017 11.0135 34.1888C11.0135 34.4749 11.1988 34.6611 11.4854 34.6611H16.8996C17.9138 34.6611 18.7125 34.3679 19.2748 33.789C19.8348 33.212 20.1181 32.4649 20.1181 31.5681C20.1181 29.9561 19.479 28.9181 18.2165 28.4738ZM13.5262 24.1472H16.2724C16.9342 24.1472 17.442 24.332 17.8229 24.7129C18.2037 25.0942 18.389 25.5656 18.389 26.1539C18.389 26.7442 18.2 27.2269 17.8115 27.6296C17.4259 28.0299 16.9479 28.2241 16.3501 28.2241L13.5267 28.2255L13.5257 24.1496C13.5262 24.1496 13.5063 24.1472 13.5262 24.1472ZM18.5761 33.1191C18.1739 33.5213 17.6258 33.7165 16.8996 33.7165L13.5271 33.7184L13.5267 31.9665H15.4211C15.6821 31.9665 15.8948 31.7534 15.8948 31.4928C15.8948 31.2323 15.6821 31.0191 15.4211 31.0191H13.5267L13.5262 29.172C13.5262 29.172 13.5058 29.1692 13.5257 29.1692H16.8996C17.6258 29.1692 18.1739 29.3644 18.5761 29.7666C18.9788 30.1688 19.1739 30.7173 19.1739 31.4431C19.1739 32.1684 18.9788 32.7169 18.5761 33.1191Z" fill="#CE9912"/>
</g>
<defs>
<clipPath id="clip0">
<rect width="32.2134" height="32.2134" fill="white" transform="translate(51.4868 0.346191)"/>
</clipPath>
<clipPath id="clip1">
<rect width="26.5286" height="26.5286" fill="white" transform="translate(99.4714 16.1172)"/>
</clipPath>
<clipPath id="clip2">
<rect width="26.5286" height="26.5286" fill="white" transform="translate(0 16.1172)"/>
</clipPath>
</defs>
</svg>
