<svg width="153" height="108" viewBox="0 0 153 108" fill="none" xmlns="http://www.w3.org/2000/svg">
<path d="M95.1134 36.4517H6.34082V98.2754H95.1134V36.4517Z" fill="#EAEAEA"/>
<path d="M95.1134 88.7642H6.34082V98.2755H95.1134V88.7642Z" fill="#CFD9E9"/>
<path d="M95.1134 33.2812H6.34082V44.3778H95.1134V33.2812Z" fill="#DAE4F2"/>
<path d="M38.0455 47.5483H15.8523C14.9769 47.5483 14.2671 48.2581 14.2671 49.1336V96.6903H39.6307V49.1336C39.6307 48.2581 38.9209 47.5483 38.0455 47.5483Z" fill="#CFD9E9"/>
<path d="M99.8692 99.8604H1.58523C0.708992 99.8604 0 99.1514 0 98.2752C0 97.3989 0.708992 96.6899 1.58523 96.6899H99.8692C100.745 96.6899 101.454 97.3989 101.454 98.2752C101.454 99.1514 100.745 99.8604 99.8692 99.8604Z" fill="#C4CFE0"/>
<path d="M34.875 77.6676C33.9988 77.6676 33.2898 76.9586 33.2898 76.0823V72.9119C33.2898 72.0357 33.9988 71.3267 34.875 71.3267C35.7513 71.3267 36.4602 72.0357 36.4602 72.9119V76.0823C36.4602 76.9586 35.7513 77.6676 34.875 77.6676Z" fill="#AFC0DA"/>
<path d="M7.92609 41.2073C5.29957 41.2073 3.17041 39.0781 3.17041 36.4516V25.355C3.17041 23.6039 4.58978 22.1846 6.34086 22.1846H12.6818V36.4516C12.6818 39.0781 10.5526 41.2073 7.92609 41.2073Z" fill="#AFC0DA"/>
<path d="M17.4376 41.2073C14.811 41.2073 12.6819 39.0781 12.6819 36.4516V22.1846H22.1932V36.4516C22.1932 39.0781 20.0641 41.2073 17.4376 41.2073Z" fill="#CFD9E9"/>
<path d="M26.9488 41.2073C24.3223 41.2073 22.1931 39.0781 22.1931 36.4516V22.1846H31.7045V36.4516C31.7045 39.0781 29.5753 41.2073 26.9488 41.2073Z" fill="#AFC0DA"/>
<path d="M36.4603 41.2073C33.8337 41.2073 31.7046 39.0781 31.7046 36.4516V22.1846H41.2159V36.4516C41.2159 39.0781 39.0868 41.2073 36.4603 41.2073Z" fill="#CFD9E9"/>
<path d="M45.9715 41.2073C43.345 41.2073 41.2158 39.0781 41.2158 36.4516V22.1846H50.7272V36.4516C50.7272 39.0781 48.598 41.2073 45.9715 41.2073Z" fill="#AFC0DA"/>
<path d="M55.483 41.2073C52.8565 41.2073 50.7273 39.0781 50.7273 36.4516V22.1846H60.2386V36.4516C60.2386 39.0781 58.1095 41.2073 55.483 41.2073Z" fill="#CFD9E9"/>
<path d="M64.9942 41.2073C62.3677 41.2073 60.2385 39.0781 60.2385 36.4516V22.1846H69.7499V36.4516C69.7499 39.0781 67.6207 41.2073 64.9942 41.2073Z" fill="#AFC0DA"/>
<path d="M74.5057 41.2073C71.8792 41.2073 69.75 39.0781 69.75 36.4516V22.1846H79.2614V36.4516C79.2614 39.0781 77.1322 41.2073 74.5057 41.2073Z" fill="#CFD9E9"/>
<path d="M84.0169 41.2073C81.3904 41.2073 79.2612 39.0781 79.2612 36.4516V22.1846H88.7726V36.4516C88.7726 39.0781 86.6434 41.2073 84.0169 41.2073Z" fill="#B0C0DA"/>
<path d="M93.5284 41.2073C90.9019 41.2073 88.7727 39.0781 88.7727 36.4516V22.1846H95.1136C96.8647 22.1846 98.2841 23.6039 98.2841 25.355V36.4516C98.2841 39.0781 96.1549 41.2073 93.5284 41.2073Z" fill="#CFD9E9"/>
<path d="M87.1873 49.1333H47.5567C46.6812 49.1333 45.9714 49.8431 45.9714 50.7185V82.423C45.9714 83.2985 46.6812 84.0083 47.5567 84.0083H87.1873C88.0627 84.0083 88.7725 83.2985 88.7725 82.423V50.7185C88.7725 49.8431 88.0627 49.1333 87.1873 49.1333Z" fill="#DBE3EF"/>
<path d="M78.7834 84.0083H87.1874C88.0629 84.0083 88.7726 83.2985 88.7726 82.423V80.5465L57.3594 49.1333H45.9716C45.4098 49.1333 44.9398 49.4424 44.6582 49.8831L78.7834 84.0083Z" fill="#E8FCFF"/>
<path d="M66.1948 49.1333L88.7726 71.7111V64.9856L72.9203 49.1333H66.1948Z" fill="white"/>
<path d="M87.1873 85.5937H47.5567C45.809 85.5937 44.3862 84.171 44.3862 82.4233V50.7188C44.3862 48.9711 45.809 47.5483 47.5567 47.5483H87.1873C88.935 47.5483 90.3578 48.9711 90.3578 50.7188V82.4233C90.3578 84.171 88.935 85.5937 87.1873 85.5937ZM47.5567 50.7188V82.4233H87.1905L87.1873 50.7188H47.5567Z" fill="#CFD9E9"/>
<path d="M34.875 68.1562H19.0227C18.1473 68.1562 17.4375 67.4464 17.4375 66.571V52.304C17.4375 51.4285 18.1473 50.7188 19.0227 50.7188H34.875C35.7504 50.7188 36.4602 51.4285 36.4602 52.304V66.571C36.4602 67.4464 35.7504 68.1562 34.875 68.1562Z" fill="#DBE3EF"/>
<path d="M26.9685 50.7188H19.0227C18.1473 50.7188 17.4375 51.4285 17.4375 52.304V54.639L30.9547 68.1562H34.875C35.7504 68.1562 36.4602 67.4464 36.4602 66.571V60.2105L26.9685 50.7188Z" fill="#E2FBFF"/>
<path d="M107.087 104.734L109.072 96.7937L111.939 96.1321L109.734 103.631L113.704 106.278L107.087 104.734Z" fill="#CFD9E9"/>
<path d="M132.009 101.425V95.0293H134.656V99.8815L139.288 103.19L132.009 101.425Z" fill="#CFD9E9"/>
<path d="M135.097 69.445C134.568 66.9748 130.76 49.8893 128.922 41.6553L126.055 44.0814L124.07 57.5351C125.393 60.7699 128.216 67.8129 128.922 70.1066C129.628 72.4004 129.804 88.1185 129.804 95.6908H135.097C135.318 87.9714 135.627 71.9152 135.097 69.445Z" fill="#5757EC"/>
<circle cx="135.98" cy="19.159" r="16.762" fill="#F8DB14"/>
<g filter="url(#filter0_i)">
<circle cx="135.979" cy="19.1589" r="14.1154" fill="#F8C614"/>
</g>
<g filter="url(#filter1_d)">
<path d="M137.39 27.7602C135.993 28.0543 132.758 27.3191 130.994 22.0259C129.229 16.7326 130.994 12.6156 132.096 11.2188C134.375 11.9539 139.331 14.4829 140.919 18.7176C142.507 22.9522 140.698 26.0693 139.595 27.0986C139.301 26.2164 138.713 23.9667 138.713 22.0259V20.0409C138.492 20.7761 138.051 22.5552 138.051 23.7903C137.831 23.5697 136.287 20.2614 136.287 17.1737C136.14 17.6883 135.846 18.9822 135.846 20.0409C135.625 19.5998 134.081 17.1737 133.42 13.8654C133.199 13.8654 134.081 18.497 134.964 20.0409C134.743 20.0409 133.199 20.2614 132.317 19.1587C132.098 19.1587 135.55 23.2814 137.346 24.4245C137.364 24.4323 137.379 24.4414 137.39 24.4519C137.375 24.443 137.361 24.4338 137.346 24.4245C136.982 24.2709 135.13 24.6035 133.46 23.3793C133.736 23.7707 135.38 26.9562 137.39 27.7602Z" fill="#F8DB14"/>
</g>
<path d="M107.087 106.939V104.513L112.601 105.616L117.453 107.38H112.821L108.19 106.498V106.939H107.087Z" fill="#3B4352"/>
<path d="M139.067 103.19L132.009 101.425V104.292H133.774L133.994 103.631L136.641 104.513H142.596L138.405 102.528L139.067 103.19Z" fill="#3B4352"/>
<path d="M115.248 68.7833C116.659 65.2545 116.424 52.0213 116.13 45.8458L129.142 41.6553C128.922 42.5375 128.26 45.5811 127.378 50.698C126.496 55.8148 117.012 84.0015 112.38 97.4552H107.749C107.969 96.3524 108.587 93.1324 109.293 89.0742C110.175 84.0015 113.483 73.1944 115.248 68.7833Z" fill="#2626BC"/>
<path d="M110.395 24.011C109.336 21.5408 110.836 18.7177 111.718 17.6149L113.042 12.9833C113.933 13.5933 115.466 14.7363 116.641 15.8505C116.912 15.2623 117.453 13.8214 117.453 12.7627C117.453 11.4394 118.114 10.5572 118.776 10.1161C119.438 9.675 120.541 9.89555 120.761 8.79279C120.982 7.69002 120.761 5.26394 120.32 3.94062C119.967 2.88197 119.291 2.02916 118.997 1.73509V0.632324C119.805 1.44102 121.467 3.67596 121.643 6.14615C121.864 9.2339 120.099 12.7627 118.997 13.8655C118.114 14.7477 117.059 15.5564 116.641 15.8505C117.307 16.482 117.859 17.1043 118.114 17.6149C118.997 19.3793 121.643 26.8781 123.187 29.3042C124.731 31.7303 130.245 41.8758 130.465 42.3169C126.02 42.952 115.884 46.4319 115.468 46.9053C115.468 46.9197 115.468 46.9341 115.468 46.9485C115.45 46.9396 115.451 46.9251 115.468 46.9053C115.486 43.8157 117.452 38.9942 117.232 35.9208C117.012 32.8331 111.718 27.0987 110.395 24.011Z" fill="#F4B008"/>
<path d="M141.714 30.1866C140.302 30.1866 135.097 28.8633 132.671 28.2017L131.789 29.9661C135.097 30.4072 142.376 31.2894 145.022 31.2894C147.669 31.2894 149.066 29.9661 149.433 29.3044C148.728 30.1866 146.934 30.1131 146.125 29.9661L146.787 28.6428C145.728 28.9957 144.581 29.819 144.14 30.1866H141.714Z" fill="white"/>
<path d="M113.263 22.4668C111.057 20.2613 112.16 18.0558 113.263 17.1736C115.689 16.0708 120.1 23.5696 124.731 25.5546C128.437 27.1426 132.01 27.3925 133.333 27.319L131.789 30.8479C129.51 30.7008 124.599 30.3626 123.187 30.1862C121.423 29.9656 115.468 24.6724 113.263 22.4668Z" fill="white"/>
<path d="M109.292 4.3816C111.763 -0.911677 116.791 -0.323536 118.997 0.632194C118.997 5.04312 116.791 8.35161 115.689 9.45449C115.689 10.6308 115.38 13.4244 114.145 15.1889C112.601 17.3944 112.601 17.1738 111.277 19.5999C110.219 21.5408 111.719 25.4078 112.601 27.0987C106.205 27.0987 102.676 22.4671 103.338 18.2766C103.999 14.0861 106.205 10.9982 109.292 4.3816Z" fill="#F4B008"/>
<defs>
<filter id="filter0_i" x="121.864" y="5.04346" width="28.2308" height="28.2308" filterUnits="userSpaceOnUse" color-interpolation-filters="sRGB">
<feFlood flood-opacity="0" result="BackgroundImageFix"/>
<feBlend mode="normal" in="SourceGraphic" in2="BackgroundImageFix" result="shape"/>
<feColorMatrix in="SourceAlpha" type="matrix" values="0 0 0 0 0 0 0 0 0 0 0 0 0 0 0 0 0 0 127 0" result="hardAlpha"/>
<feOffset dy="2"/>
<feComposite in2="hardAlpha" operator="arithmetic" k2="-1" k3="1"/>
<feColorMatrix type="matrix" values="0 0 0 0 0.933333 0 0 0 0 0.72549 0 0 0 0 0 0 0 0 1 0"/>
<feBlend mode="normal" in2="shape" result="effect1_innerShadow"/>
</filter>
<filter id="filter1_d" x="130.245" y="11.2188" width="11.2985" height="18.5968" filterUnits="userSpaceOnUse" color-interpolation-filters="sRGB">
<feFlood flood-opacity="0" result="BackgroundImageFix"/>
<feColorMatrix in="SourceAlpha" type="matrix" values="0 0 0 0 0 0 0 0 0 0 0 0 0 0 0 0 0 0 127 0"/>
<feOffset dy="2"/>
<feColorMatrix type="matrix" values="0 0 0 0 0.933333 0 0 0 0 0.72549 0 0 0 0 0 0 0 0 1 0"/>
<feBlend mode="normal" in2="BackgroundImageFix" result="effect1_dropShadow"/>
<feBlend mode="normal" in="SourceGraphic" in2="effect1_dropShadow" result="shape"/>
</filter>
</defs>
</svg>
