<svg width="227" height="108" viewBox="0 0 227 108" fill="none" xmlns="http://www.w3.org/2000/svg">
<path d="M206.37 0H109.736C104.892 0 100.745 3.47218 99.8924 8.24092L83.7363 98.6529H181.517C193.264 98.6529 203.285 90.1495 205.197 78.5588L216.237 11.6275C217.242 5.53717 212.543 0 206.37 0Z" fill="#ACC7FC"/>
<path d="M202.641 0H106.007C101.163 0 97.0153 3.47218 96.1632 8.24092L80.0071 98.6529H177.788C189.535 98.6529 199.556 90.1495 201.468 78.5588L212.508 11.6275C213.512 5.53717 208.814 0 202.641 0Z" fill="#DEE8F8"/>
<path d="M101.365 5.08545L86.7874 89.4997H194.933L208.493 5.08545H101.365Z" fill="url(#paint0_linear)"/>
<rect y="93.2285" width="196.289" height="8.13632" rx="4.06816" fill="#DFEAFE"/>
<rect x="96.6189" y="93.2285" width="99.6699" height="8.13632" rx="4.06816" fill="#C8D5E9"/>
<rect x="160.353" y="94.9233" width="8.81434" height="2.37309" rx="1.18655" fill="#565F6D"/>
<rect x="173.236" y="94.9233" width="8.81434" height="2.37309" rx="1.18655" fill="#565F6D"/>
<g clip-path="url(#clip0)">
<path d="M162.926 59.7979C162.926 64.8718 158.791 68.9999 153.708 68.9999H136.748C135.182 68.9999 133.907 67.7272 133.907 66.1627V61.3772L132.895 62.4566C132.636 62.7343 132.285 62.874 131.932 62.874C131.609 62.874 131.285 62.7563 131.03 62.518C130.497 62.0205 130.47 61.1866 130.968 60.6548L133.819 57.613C134.178 57.2295 134.684 57.008 135.209 57.0039H135.225H135.227H135.244C135.77 57.008 136.276 57.2295 136.635 57.613L139.486 60.6548C139.984 61.1866 139.957 62.0205 139.424 62.518C138.892 63.0155 138.057 62.9884 137.559 62.4566L136.547 61.3772V66.1627C136.547 66.2736 136.637 66.3632 136.748 66.3632H153.708C157.335 66.3632 160.286 63.4179 160.286 59.7979C160.286 59.07 160.877 58.4795 161.606 58.4795C162.335 58.4795 162.926 59.07 162.926 59.7979Z" fill="#09607D"/>
<path d="M165.864 30.8651L163.014 33.9069C162.693 34.2489 162.256 34.4624 161.792 34.5074C161.731 34.516 161.669 34.5204 161.606 34.5204C161.543 34.5204 161.481 34.516 161.421 34.5074C160.957 34.4624 160.519 34.2489 160.199 33.9069L157.348 30.8651C156.849 30.3343 156.877 29.4993 157.409 29.0019C157.942 28.5044 158.776 28.5315 159.275 29.0633L160.286 30.1427V26.8372C160.286 26.7263 160.196 26.6367 160.085 26.6367H143.125C139.498 26.6367 136.547 29.5821 136.547 33.2021C136.547 33.9299 135.955 34.5204 135.227 34.5204C134.498 34.5204 133.907 33.9299 133.907 33.2021C133.907 28.1281 138.043 24 143.125 24H160.085C161.651 24 162.926 25.2727 162.926 26.8372V30.1427L163.937 29.0633C164.436 28.5315 165.271 28.5044 165.804 29.0019C166.335 29.4993 166.363 30.3343 165.864 30.8651Z" fill="#09607D"/>
<path d="M162.926 59.7979C162.926 64.8718 158.79 68.9999 153.708 68.9999H148.237V66.3632H153.708C157.335 66.3632 160.286 63.4178 160.286 59.7979C160.286 59.07 160.877 58.4795 161.606 58.4795C162.334 58.4795 162.926 59.07 162.926 59.7979Z" fill="#07485E"/>
<path d="M165.864 30.8651L163.014 33.9069C162.693 34.2489 162.255 34.4624 161.792 34.5074C161.731 34.516 161.668 34.5204 161.606 34.5204C161.543 34.5204 161.481 34.516 161.421 34.5074C160.957 34.4624 160.519 34.2489 160.198 33.9069L157.347 30.8651C156.849 30.3343 156.877 29.4993 157.409 29.0019C157.941 28.5044 158.776 28.5315 159.274 29.0633L160.286 30.1427V26.8372C160.286 26.7263 160.196 26.6367 160.085 26.6367H148.237V24H160.085C161.651 24 162.926 25.2727 162.926 26.8372V30.1427L163.937 29.0633C164.436 28.5315 165.271 28.5044 165.803 29.0019C166.335 29.4993 166.363 30.3343 165.864 30.8651Z" fill="#07485E"/>
<path d="M143.368 41.3623V50.0041C143.368 50.6402 143.021 51.2235 142.463 51.527L135.999 55.0543C135.757 55.1858 135.494 55.2572 135.23 55.2658C135.209 55.2682 135.188 55.2682 135.167 55.2682C134.882 55.2682 134.597 55.1968 134.338 55.0554L127.87 51.527C127.314 51.2235 126.967 50.6402 126.967 50.0041V41.3623C126.967 41.0674 127.041 40.7834 127.179 40.5335L135.23 40.5266L143.149 40.5215C143.291 40.7735 143.368 41.0619 143.368 41.3623Z" fill="#D4E1F5"/>
<path d="M143.368 41.3623V50.0041C143.368 50.6402 143.021 51.2235 142.463 51.527L135.999 55.0543C135.757 55.1858 135.494 55.2572 135.23 55.2658V40.5266L143.149 40.5215C143.291 40.7735 143.368 41.0619 143.368 41.3623Z" fill="#54A0D7"/>
<path d="M143.149 40.5211L135.23 44.885L127.179 40.5334C127.335 40.245 127.573 40.0016 127.871 39.8392L134.335 36.3109C134.615 36.1595 134.924 36.0884 135.23 36.1004C135.494 36.1094 135.757 36.1794 135.998 36.3109L142.464 39.8392C142.759 39.9992 142.994 40.2385 143.149 40.5211Z" fill="#EAF2FF"/>
<path d="M143.149 40.5212L135.23 44.8852V36.1006C135.494 36.1095 135.757 36.1796 135.998 36.311L142.464 39.8394C142.759 39.9994 142.994 40.2387 143.149 40.5212Z" fill="#2626BC"/>
<path d="M170.033 41.3623V50.0041C170.033 50.6402 169.686 51.2235 169.129 51.527L162.665 55.0543C162.422 55.1858 162.16 55.2572 161.895 55.2658C161.874 55.2682 161.854 55.2682 161.833 55.2682C161.547 55.2682 161.263 55.1968 161.003 55.0554L154.536 51.527C153.979 51.2235 153.632 50.6402 153.632 50.0041V41.3623C153.632 41.0674 153.707 40.7834 153.844 40.5335L161.895 40.5266L169.815 40.5215C169.956 40.7735 170.033 41.0619 170.033 41.3623Z" fill="#D4E1F5"/>
<path d="M170.033 41.3623V50.0041C170.033 50.6402 169.687 51.2235 169.129 51.527L162.665 55.0543C162.422 55.1858 162.16 55.2572 161.896 55.2658V40.5266L169.815 40.5215C169.956 40.7735 170.033 41.0619 170.033 41.3623Z" fill="#54A0D7"/>
<path d="M169.815 40.5211L161.896 44.885L153.844 40.5334C154 40.245 154.238 40.0016 154.537 39.8392L161.001 36.3109C161.281 36.1595 161.589 36.0884 161.896 36.1004C162.16 36.1094 162.422 36.1794 162.664 36.3109L169.13 39.8392C169.424 39.9992 169.659 40.2385 169.815 40.5211Z" fill="#EAF2FF"/>
<path d="M169.815 40.5212L161.896 44.8852V36.1006C162.16 36.1095 162.422 36.1796 162.664 36.311L169.13 39.8394C169.424 39.9994 169.659 40.2387 169.815 40.5212Z" fill="#2626BC"/>
</g>
<path d="M203.957 43.2664C203.079 37.3398 196.275 32.5108 192.543 34.2668C187.495 36.6815 194.958 54.4609 194.299 57.0949C193.641 59.7289 183.983 45.4613 180.909 46.7783C177.836 48.0953 178.275 54.4609 181.787 59.9484C185.3 65.436 198.909 72.021 196.494 74.4356C194.08 76.8501 184.422 63.2409 177.178 70.0455C171.383 75.4892 188.373 88.2642 197.592 93.9713H209.445C210.835 92.8738 214.493 89.5812 218.005 85.1912C222.395 79.7036 226.347 71.143 219.761 69.1675C213.176 67.192 208.786 72.2405 208.786 70.0455C208.786 67.8505 216.469 60.6069 218.005 56.2169C219.542 51.8268 219.322 46.1198 214.713 45.4613C210.103 44.8027 208.347 54.6804 206.152 54.4609C203.957 54.2414 204.835 49.193 203.957 43.2664Z" fill="#D4E1F5"/>
<path d="M199.128 47.437C199.945 50.7399 201.148 56.7838 202.15 64.3387M203.957 91.996C203.969 90.6737 203.965 89.3556 203.946 88.045M182.446 74.2163C187.194 79.0454 198.142 88.5718 203.946 88.045M203.946 88.045C203.821 79.5032 203.071 71.2827 202.15 64.3387M203.946 88.045C210.434 89.2742 216.754 78.6063 219.103 73.1188M184.641 52.2661C187.607 57.1683 195.26 66.4459 202.15 64.3387M202.15 64.3387C208.957 64.8655 213.215 56.0708 214.493 51.6076" stroke="#C6D4EB" stroke-linecap="round"/>
<path d="M216.908 72.899C218.444 71.143 223.493 62.1434 221.078 60.8264C213.835 59.5094 211.64 69.826 209.664 70.9235C207.689 72.021 208.567 63.4604 206.152 63.4604C203.738 63.4604 201.762 66.9724 201.982 71.8015C202.201 76.6305 205.933 80.8011 204.177 82.3376C202.421 83.8741 199.347 74.8745 194.518 76.411C190.655 77.6403 196.128 88.7763 199.347 94.1907C202.201 93.9712 208.04 93.6639 208.567 94.1907C214.932 92.6542 223.493 87.6057 221.078 84.5326C218.664 81.4596 209.225 85.8496 209.664 83.4351C210.103 81.0206 217.786 81.4596 222.176 78.8256C226.566 76.1915 227.444 72.899 225.249 71.8015C223.054 70.704 215.371 74.655 216.908 72.899Z" fill="#54A0D7"/>
<path d="M214.932 68.2894C213.68 70.6859 211.924 74.1263 210.159 77.728M203.518 93.0932C203.668 92.4669 203.94 91.6454 204.304 90.6787M205.713 67.1919C205.824 70.7039 206.868 77.728 210.159 77.728M210.159 77.728C212.262 78.5329 217.654 79.045 222.395 74.655M210.159 77.728C207.859 82.4226 205.543 87.3911 204.304 90.6787M219.103 87.1666C216.773 88.7031 210.552 91.5567 204.304 90.6787M204.304 90.6787C199.62 90.788 198.024 82.5295 197.811 78.3865" stroke="#4E89C1" stroke-linecap="round"/>
<path d="M197.592 76.8499C197.153 75.7524 194.519 73.7769 192.543 75.3134C191.007 77.5085 195.616 80.8009 194.958 81.6789C194.299 82.5569 191.446 80.1424 190.348 81.6789C189.251 83.2154 192.324 85.1909 194.519 85.8494C196.714 86.508 197.811 87.386 197.372 88.703C196.933 90.02 193.421 87.6055 192.543 87.6055C191.665 87.6055 190.348 89.581 192.982 91.5565C195.089 93.1369 197.372 93.8247 198.25 93.971H202.86L205.494 90.459C207.469 87.825 206.811 84.5324 205.494 84.5324C204.177 84.5324 203.957 86.508 203.518 87.6055C203.079 88.703 201.982 89.142 201.543 88.264C201.192 87.5616 201.396 85.9226 201.543 85.1909C203.518 81.6789 203.299 76.8499 201.543 76.8499C199.787 76.8499 200.006 80.3619 199.128 81.2399C198.25 82.1179 198.031 77.9474 197.592 76.8499Z" fill="#2626BC"/>
<path d="M195.177 77.5083C196.014 78.9925 197.335 81.6645 198.508 84.7519M200.884 93.7515C200.818 93.1743 200.728 92.5874 200.619 91.9955M191.665 82.7764C193.154 83.6544 196.607 85.2787 198.508 84.7519M198.508 84.7519C200.645 83.6983 201.422 80.2155 201.543 78.6058M198.508 84.7519C199.378 87.0428 200.168 89.5625 200.619 91.9955M193.421 89.3614C195.146 90.3858 199.002 92.3467 200.619 91.9955M200.619 91.9955C203.567 91.2931 204.951 88.0444 205.274 86.5079" stroke="#212192" stroke-linecap="round"/>
<path d="M195.616 93.9712H212.298L209.445 107.141H198.909L195.616 93.9712Z" fill="#F8DB14"/>
<path d="M106.306 21.0487C106.134 20.9128 106 20.6603 106 20.4079C106 19.9613 106.344 19.6312 106.785 19.6312C106.995 19.6312 107.148 19.7089 107.263 19.7865C107.837 20.2137 108.469 20.4856 109.215 20.4856C109.904 20.4856 110.306 20.2137 110.306 19.7477V19.7283C110.306 19.3011 110.038 19.0681 108.775 18.738C107.244 18.3496 106.249 17.903 106.249 16.369V16.3496C106.249 14.9516 107.359 14.0195 108.909 14.0195C109.827 14.0195 110.631 14.2525 111.32 14.6991C111.511 14.8156 111.683 15.0487 111.683 15.3788C111.683 15.8254 111.339 16.1555 110.899 16.1555C110.727 16.1555 110.612 16.1166 110.478 16.0389C109.923 15.7089 109.406 15.5147 108.87 15.5147C108.22 15.5147 107.894 15.8059 107.894 16.1943V16.2137C107.894 16.7186 108.22 16.8933 109.54 17.2234C111.09 17.6312 111.951 18.1943 111.951 19.5341V19.5535C111.951 21.0875 110.803 21.9418 109.157 21.9418C108.182 21.9613 107.167 21.6506 106.306 21.0487Z" fill="#3B4352"/>
<path d="M112.41 15.223C112.372 15.126 112.353 15.0094 112.353 14.9124C112.353 14.4463 112.735 14.0774 113.214 14.0774C113.597 14.0774 113.922 14.3298 114.037 14.6794L115.549 19.4172L117.079 14.7182C117.213 14.3298 117.5 14.0386 117.921 14.0386H118.055C118.476 14.0386 118.783 14.3104 118.897 14.7182L120.428 19.4172L121.94 14.6794C122.055 14.3493 122.323 14.0774 122.744 14.0774C123.203 14.0774 123.567 14.4269 123.567 14.8929C123.567 14.99 123.528 15.126 123.509 15.223L121.347 21.2813C121.194 21.7085 120.887 21.9803 120.486 21.9803H120.313C119.912 21.9803 119.605 21.7279 119.452 21.2813L117.96 16.8541L116.467 21.2813C116.314 21.7279 116.008 21.9803 115.606 21.9803H115.434C115.032 21.9803 114.706 21.7085 114.573 21.2813L112.41 15.223Z" fill="#3B4352"/>
<path d="M122.763 20.7573L125.423 14.6796C125.614 14.2524 125.94 14 126.399 14H126.495C126.954 14 127.279 14.2524 127.471 14.6796L130.111 20.7573C130.169 20.8738 130.207 20.9903 130.207 21.1068C130.207 21.5534 129.863 21.9223 129.423 21.9223C129.04 21.9223 128.772 21.6893 128.619 21.3398L128.102 20.1165H124.753L124.218 21.3786C124.084 21.7088 123.796 21.9029 123.452 21.9029C123.012 21.9029 122.687 21.5534 122.687 21.1068C122.667 21.0097 122.706 20.8932 122.763 20.7573ZM127.471 18.6214L126.418 16.0777L125.366 18.6214H127.471Z" fill="#3B4352"/>
<path d="M130.972 14.9911C130.972 14.5251 131.336 14.1367 131.814 14.1367H134.092C135.91 14.1367 137 15.2241 137 16.8163V16.8357C137 18.6222 135.622 19.5542 133.919 19.5542H132.656V21.0881C132.656 21.5542 132.293 21.9425 131.814 21.9425C131.336 21.9425 130.972 21.5736 130.972 21.0881V14.9911ZM133.977 18.0202C134.819 18.0202 135.297 17.5154 135.297 16.8552V16.8357C135.297 16.0785 134.781 15.6707 133.939 15.6707H132.637V18.0396H133.977V18.0202Z" fill="#3B4352"/>
<path d="M145.019 20.02C145.554 20.02 145.956 20.4278 145.956 20.9521V20.9909C145.956 21.5152 145.554 21.9229 145.019 21.9229C144.483 21.9229 144.081 21.5152 144.081 20.9909V20.9715C144.081 20.4278 144.483 20.02 145.019 20.02Z" fill="#3B4352"/>
<path d="M146.951 14.9315C146.951 14.4655 147.315 14.0771 147.793 14.0771H147.965C148.367 14.0771 148.616 14.2713 148.826 14.582L152.06 18.8927V14.9121C152.06 14.4461 152.424 14.0771 152.883 14.0771C153.342 14.0771 153.706 14.4461 153.706 14.9121V21.0674C153.706 21.5334 153.342 21.9218 152.864 21.9218H152.807C152.405 21.9218 152.156 21.7276 151.945 21.4169L148.597 16.9509V21.0869C148.597 21.5529 148.233 21.9218 147.774 21.9218C147.315 21.9218 146.951 21.5529 146.951 21.0869V14.9315Z" fill="#3B4352"/>
<path d="M154.72 21.0105V14.9911C154.72 14.5251 155.084 14.1367 155.562 14.1367H159.772C160.193 14.1367 160.519 14.4862 160.519 14.894C160.519 15.3212 160.174 15.6513 159.772 15.6513H156.385V17.2241H159.294C159.715 17.2241 160.04 17.5736 160.04 17.9814C160.04 18.3891 159.696 18.7386 159.294 18.7386H156.385V20.3697H159.83C160.251 20.3697 160.576 20.7193 160.576 21.127C160.576 21.5542 160.232 21.8843 159.83 21.8843H155.562C155.084 21.8649 154.72 21.4765 154.72 21.0105Z" fill="#3B4352"/>
<path d="M163.504 15.7072H161.896C161.475 15.7072 161.131 15.3577 161.131 14.9305C161.131 14.5033 161.475 14.1538 161.896 14.1538H166.795C167.216 14.1538 167.561 14.5033 167.561 14.9305C167.561 15.3577 167.216 15.7072 166.795 15.7072H165.187V21.0858C165.187 21.5519 164.824 21.9402 164.346 21.9402C163.867 21.9402 163.504 21.5713 163.504 21.0858V15.7072Z" fill="#3B4352"/>
<path d="M168.039 15.223C168.001 15.126 167.982 15.0094 167.982 14.9124C167.982 14.4463 168.364 14.0774 168.843 14.0774C169.226 14.0774 169.551 14.3298 169.666 14.6794L171.178 19.4172L172.708 14.7182C172.842 14.3298 173.13 14.0386 173.55 14.0386H173.684C174.105 14.0386 174.411 14.3104 174.526 14.7182L176.057 19.4172L177.569 14.6794C177.684 14.3493 177.952 14.0774 178.372 14.0774C178.832 14.0774 179.196 14.4269 179.196 14.8929C179.196 14.99 179.157 15.126 179.138 15.223L177.014 21.3007C176.861 21.7279 176.554 21.9997 176.153 21.9997H175.981C175.579 21.9997 175.273 21.7473 175.12 21.3007L173.627 16.8735L172.134 21.3007C171.981 21.7473 171.675 21.9997 171.273 21.9997H171.101C170.699 21.9997 170.374 21.7279 170.24 21.3007L168.039 15.223Z" fill="#3B4352"/>
<path d="M179.023 18.0194V18C179.023 15.8058 180.726 14 183.08 14C185.434 14 187.118 15.767 187.118 17.9806V18C187.118 20.1942 185.415 22 183.061 22C180.707 21.9806 179.023 20.2136 179.023 18.0194ZM185.357 18.0194V18C185.357 16.6796 184.4 15.5728 183.061 15.5728C181.721 15.5728 180.783 16.6602 180.783 17.9806V18C180.783 19.3204 181.74 20.4272 183.08 20.4272C184.419 20.4272 185.357 19.3398 185.357 18.0194Z" fill="#3B4352"/>
<path d="M188.055 14.9911C188.055 14.5251 188.419 14.1367 188.898 14.1367H191.538C192.514 14.1367 193.26 14.4086 193.758 14.9134C194.179 15.3406 194.409 15.9425 194.409 16.6804V16.6998C194.409 17.9231 193.815 18.661 192.878 19.0493L194.045 20.4862C194.218 20.6998 194.313 20.8746 194.313 21.1464C194.313 21.6124 193.93 21.9231 193.528 21.9231C193.146 21.9231 192.897 21.7289 192.706 21.4765L191.079 19.3794H189.739V21.0688C189.739 21.5348 189.376 21.9231 188.898 21.9231C188.419 21.9231 188.055 21.5542 188.055 21.0688V14.9911ZM191.423 17.8843C192.246 17.8843 192.706 17.4377 192.706 16.7969V16.7775C192.706 16.0396 192.208 15.6707 191.385 15.6707H189.72V17.8843H191.423Z" fill="#3B4352"/>
<path d="M195.384 14.913C195.384 14.4469 195.748 14.0586 196.226 14.0586C196.705 14.0586 197.068 14.4275 197.068 14.913V17.5149L200.149 14.4081C200.36 14.1945 200.57 14.078 200.857 14.078C201.316 14.078 201.623 14.4469 201.623 14.8547C201.623 15.1266 201.508 15.3207 201.316 15.4955L199.173 17.5343L201.508 20.5052C201.642 20.6799 201.737 20.8547 201.737 21.1071C201.737 21.5732 201.374 21.9421 200.896 21.9421C200.57 21.9421 200.379 21.7673 200.187 21.5343L198.006 18.6411L197.049 19.5537V21.1071C197.049 21.5732 196.686 21.9615 196.207 21.9615C195.729 21.9615 195.365 21.5926 195.365 21.1071V14.913H195.384Z" fill="#3B4352"/>
<path d="M141.13 17.1964C140.706 17.0843 140.393 16.9908 140.153 16.916L139.803 17.6264L138.569 15.2337L141.203 14.8038L140.853 15.5328C141.259 15.5889 141.664 15.7571 142.069 16.0188C142.198 16.0936 142.327 16.131 142.493 16.131C142.917 16.131 143.267 15.7945 143.267 15.3459C143.267 15.0094 143.082 14.7851 142.898 14.6729C142.217 14.243 141.424 14 140.503 14C138.937 14 137.851 14.9159 137.851 16.3179V16.3366C137.851 17.8694 138.827 18.2993 140.356 18.6918C140.798 18.804 141.111 18.9161 141.332 19.0096L141.664 18.3367L142.898 20.7293L140.264 21.1592L140.632 20.4116C139.951 20.3742 139.361 20.1312 138.827 19.72C138.716 19.6452 138.569 19.5704 138.348 19.5704C137.924 19.5704 137.574 19.9069 137.574 20.3555C137.574 20.6172 137.703 20.8602 137.887 20.991C138.735 21.6079 139.73 21.907 140.724 21.907C142.364 21.907 143.506 21.0471 143.506 19.533V19.5143C143.524 18.1685 142.659 17.6077 141.13 17.1964Z" fill="#F8DB14"/>
<defs>
<linearGradient id="paint0_linear" x1="220.359" y1="108.824" x2="117" y2="5" gradientUnits="userSpaceOnUse">
<stop stop-color="#B6C8E2"/>
<stop offset="1" stop-color="white"/>
</linearGradient>
<clipPath id="clip0">
<rect width="45" height="45" fill="white" transform="translate(126 24)"/>
</clipPath>
</defs>
</svg>
