<svg width="179" height="138" viewBox="0 0 179 138" fill="none" xmlns="http://www.w3.org/2000/svg">
<g clip-path="url(#clip0)">
<path d="M66.1693 65.8047L60.0055 75.5299V59.2251H57.9947V75.53L51.831 65.8049L50.1326 66.8813L58.1509 79.5328C58.3352 79.8236 58.6558 79.9999 59.0001 79.9999C59.3445 79.9999 59.6649 79.8236 59.8494 79.5328L67.8678 66.8813L66.1693 65.8047Z" fill="#A6B1C1"/>
<path d="M51.2107 43.6962C47.5833 37.9564 39.9897 36.2439 34.25 39.8713C28.5101 43.4985 26.7976 51.0922 30.425 56.8319C33.9344 62.3851 43.1546 64.7589 49.54 65.0468L49.5997 68.7526L53.7505 66.122L50.4263 64.4869C52.9067 58.596 54.7201 49.2495 51.2107 43.6962Z" fill="#FFAA0E"/>
<path d="M66.7891 43.6962C70.4164 37.9564 78.0101 36.2439 83.7498 39.8713C89.4897 43.4986 91.2022 51.0923 87.5748 56.832C84.0654 62.3852 74.8452 64.7591 68.4598 65.0469L68.4001 68.7527L64.2493 66.1221L67.5735 64.4871C65.093 58.596 63.2797 49.2495 66.7891 43.6962Z" fill="#2626BC"/>
<path d="M33.812 55.7107C33.479 55.7107 33.1533 55.5454 32.9618 55.2434C30.2233 50.9223 31.5105 45.1786 35.8315 42.4399C36.3008 42.1429 36.9217 42.282 37.219 42.7509C37.5162 43.2199 37.377 43.841 36.908 44.1384C33.5235 46.2834 32.5151 50.7823 34.6602 54.1669C34.9573 54.636 34.8182 55.2571 34.3492 55.5544C34.1823 55.6601 33.9961 55.7107 33.812 55.7107Z" fill="white"/>
<path d="M75.198 34.198C75.198 25.2521 67.9459 18 59 18C50.0541 18 42.802 25.2521 42.802 34.198C42.802 42.8413 51.3768 51.9613 58.2811 56.7815L55.9672 60.5657H62.033L59.7192 56.7815C66.6233 51.9613 75.198 42.8413 75.198 34.198Z" fill="#F8DB14"/>
<path d="M46.8236 35.2016C46.8236 35.2016 46.8233 35.2016 46.8236 35.2016C46.2682 35.2016 45.8181 34.7513 45.8181 34.1961C45.8192 26.9286 51.7326 21.0161 58.9999 21.0161C59.5551 21.0161 60.0053 21.4662 60.0053 22.0216C60.0053 22.5769 59.5552 23.027 58.9999 23.027C52.8411 23.027 47.8298 28.0375 47.8289 34.1963C47.8288 34.7515 47.3787 35.2016 46.8236 35.2016Z" fill="white"/>
</g>
<path d="M102.879 56.1951L99.981 55.0231C99.1781 54.6985 98.7899 53.784 99.1149 52.9808C99.4395 52.1775 100.354 51.7905 101.157 52.1145L104.056 53.2867C104.858 53.6111 105.247 54.5257 104.922 55.329C104.595 56.136 103.677 56.5182 102.879 56.1951Z" fill="#3B4452"/>
<path d="M27.8778 18.7556C29.4671 18.7556 30.7556 17.4672 30.7556 15.8778C30.7556 14.2884 29.4671 13 27.8778 13C26.2884 13 25 14.2884 25 15.8778C25 17.4672 26.2884 18.7556 27.8778 18.7556Z" fill="#2626BC"/>
<path d="M49.2604 116.345C36.2578 116.345 25.7166 113.663 25.7166 110.912V117.247C25.7238 119.996 36.2615 122.684 49.2604 122.684C62.2593 122.684 72.797 119.996 72.8042 117.247V110.912C72.8042 113.663 62.2629 116.345 49.2604 116.345Z" fill="#E4AF18"/>
<path d="M46.5438 106.384C33.5413 106.384 23 103.702 23 100.951V107.286C23.0072 110.035 33.5449 112.723 46.5438 112.723C59.5427 112.723 70.0804 110.035 70.0876 107.286V100.951C70.0876 103.702 59.5464 106.384 46.5438 106.384Z" fill="#F4BF1A"/>
<path d="M51.9769 96.4234C38.9744 96.4234 28.4331 93.7412 28.4331 90.9902V97.3253C28.4403 100.075 38.978 102.762 51.9769 102.762C64.9758 102.762 75.5135 100.075 75.5208 97.3253V90.9902C75.5208 93.7412 64.9795 96.4234 51.9769 96.4234Z" fill="#E4AF18"/>
<path d="M70.0876 80.2411C70.0876 82.9912 59.5464 85.5566 46.5438 85.5566C33.5413 85.5566 23 82.9912 23 80.2411C23 77.4901 33.5413 75.5957 46.5438 75.5957C59.5464 75.5957 70.0876 77.4901 70.0876 80.2411Z" fill="#FFD949"/>
<path d="M46.5438 85.5562C33.5413 85.5562 23 82.8741 23 80.123V86.4581C23.0072 89.2073 33.5449 91.895 46.5438 91.895C59.5427 91.895 70.0804 89.2073 70.0876 86.4581V80.123C70.0876 82.8741 59.5464 85.5562 46.5438 85.5562Z" fill="#F4BF1A"/>
<path d="M26.6223 82.9072V89.2414C27.1729 89.4443 27.776 89.6399 28.4334 89.8264V83.4913C27.776 83.3048 27.1729 83.1092 26.6223 82.9072Z" fill="#DCA815"/>
<path d="M64.6545 83.4913V89.8264C65.312 89.6399 65.915 89.4443 66.4656 89.2414V82.9072C65.915 83.1101 65.312 83.3048 64.6545 83.4913Z" fill="#DCA815"/>
<path d="M31.1497 84.1489V90.4849C31.7292 90.6054 32.3332 90.7195 32.9607 90.8272V84.4912C32.3332 84.3835 31.7292 84.2694 31.1497 84.1489Z" fill="#DCA815"/>
<path d="M60.1267 84.4912V90.8281C60.7542 90.7195 61.3582 90.6054 61.9378 90.4849V84.1489C61.3582 84.2694 60.7542 84.3835 60.1267 84.4912Z" fill="#DCA815"/>
<path d="M35.6775 84.8945V91.2314C36.2679 91.3075 36.8701 91.3781 37.4886 91.4415V85.1046C36.8701 85.0412 36.2679 84.9697 35.6775 84.8945Z" fill="#DCA815"/>
<path d="M55.5991 85.1055V91.4424C56.2176 91.3781 56.8198 91.3075 57.4102 91.2323V84.8945C56.8198 84.9715 56.2176 85.0421 55.5991 85.1055Z" fill="#DCA815"/>
<path d="M40.2053 85.3384V91.6762C40.8003 91.7178 41.4033 91.755 42.0164 91.7849V85.4461C41.4033 85.4163 40.8003 85.38 40.2053 85.3384Z" fill="#DCA815"/>
<path d="M51.0715 85.4461V91.7849C51.6846 91.755 52.2877 91.7178 52.8826 91.6762V85.3384C52.2877 85.38 51.6846 85.4163 51.0715 85.4461Z" fill="#DCA815"/>
<path d="M46.544 85.5567C46.2406 85.5567 45.9391 85.554 45.6384 85.5513V91.89C45.9391 91.8927 46.2406 91.8954 46.544 91.8954C46.8473 91.8954 47.1489 91.8927 47.4495 91.89V85.5513C47.1489 85.554 46.8473 85.5567 46.544 85.5567Z" fill="#DCA815"/>
<path d="M32.0554 93.7734V100.108C32.606 100.31 33.2091 100.506 33.8665 100.693V94.3575C33.2091 94.171 32.606 93.9754 32.0554 93.7734Z" fill="#C49214"/>
<path d="M70.0876 94.3575V100.693C70.7451 100.506 71.3481 100.31 71.8987 100.108V93.7734C71.3481 93.9763 70.7451 94.171 70.0876 94.3575Z" fill="#C49214"/>
<path d="M36.5833 95.0151V101.351C37.1628 101.472 37.7668 101.586 38.3943 101.693V95.3574C37.7668 95.2497 37.1628 95.1356 36.5833 95.0151Z" fill="#C49214"/>
<path d="M65.5601 95.3574V101.694C66.1876 101.586 66.7916 101.472 67.3711 101.351V95.0151C66.7916 95.1356 66.1876 95.2497 65.5601 95.3574Z" fill="#C49214"/>
<path d="M41.1106 95.7617V102.099C41.701 102.175 42.3032 102.245 42.9217 102.309V95.9718C42.3032 95.9075 41.701 95.8369 41.1106 95.7617Z" fill="#C49214"/>
<path d="M61.0322 95.9709V102.309C61.6507 102.244 62.2529 102.174 62.8433 102.099V95.7617C62.2529 95.8378 61.6507 95.9084 61.0322 95.9709Z" fill="#C49214"/>
<path d="M45.6384 96.2041V102.542C46.2334 102.584 46.8364 102.621 47.4495 102.651V96.3119C46.8364 96.282 46.2334 96.2458 45.6384 96.2041Z" fill="#C49214"/>
<path d="M56.5046 96.3119V102.651C57.1177 102.621 57.7208 102.584 58.3157 102.542V96.2041C57.7208 96.2458 57.1177 96.282 56.5046 96.3119Z" fill="#C49214"/>
<path d="M51.9771 96.4234C51.6737 96.4234 51.3722 96.4207 51.0715 96.418V102.757C51.3722 102.759 51.6737 102.762 51.9771 102.762C52.2804 102.762 52.582 102.759 52.8826 102.757V96.418C52.582 96.4207 52.2804 96.4234 51.9771 96.4234Z" fill="#C49214"/>
<path d="M26.6223 103.734V110.069C27.1729 110.271 27.776 110.466 28.4334 110.654V104.318C27.776 104.132 27.1729 103.936 26.6223 103.734Z" fill="#DCA815"/>
<path d="M64.6545 104.318V110.654C65.312 110.467 65.915 110.271 66.4656 110.069V103.734C65.915 103.937 65.312 104.132 64.6545 104.318Z" fill="#DCA815"/>
<path d="M31.1497 104.976V111.312C31.7292 111.433 32.3332 111.547 32.9607 111.654V105.318C32.3332 105.211 31.7292 105.097 31.1497 104.976Z" fill="#DCA815"/>
<path d="M60.1267 105.318V111.655C60.7542 111.547 61.3582 111.433 61.9378 111.312V104.976C61.3582 105.097 60.7542 105.211 60.1267 105.318Z" fill="#DCA815"/>
<path d="M35.6775 105.723V112.06C36.2679 112.136 36.8701 112.206 37.4886 112.27V105.933C36.8701 105.868 36.2679 105.798 35.6775 105.723Z" fill="#DCA815"/>
<path d="M55.5991 105.932V112.27C56.2176 112.205 56.8198 112.135 57.4102 112.06V105.723C56.8198 105.799 56.2176 105.869 55.5991 105.932Z" fill="#DCA815"/>
<path d="M40.2053 106.166V112.503C40.8003 112.545 41.4033 112.582 42.0164 112.612V106.273C41.4033 106.243 40.8003 106.207 40.2053 106.166Z" fill="#DCA815"/>
<path d="M51.0715 106.273V112.612C51.6846 112.582 52.2877 112.545 52.8826 112.503V106.166C52.2877 106.207 51.6846 106.243 51.0715 106.273Z" fill="#DCA815"/>
<path d="M46.544 106.384C46.2406 106.384 45.9391 106.382 45.6384 106.379V112.718C45.9391 112.72 46.2406 112.723 46.544 112.723C46.8473 112.723 47.1489 112.72 47.4495 112.718V106.379C47.1489 106.382 46.8473 106.384 46.544 106.384Z" fill="#DCA815"/>
<path d="M29.3389 113.696V120.03C29.8894 120.233 30.4925 120.428 31.1499 120.615V114.28C30.4925 114.093 29.8894 113.898 29.3389 113.696Z" fill="#C49214"/>
<path d="M67.3711 114.28V120.615C68.0285 120.428 68.6316 120.233 69.1822 120.03V113.696C68.6316 113.899 68.0285 114.093 67.3711 114.28Z" fill="#C49214"/>
<path d="M33.8662 114.938V121.274C34.4458 121.394 35.0497 121.508 35.6773 121.616V115.28C35.0497 115.172 34.4458 115.058 33.8662 114.938Z" fill="#C49214"/>
<path d="M62.8433 115.28V121.617C63.4708 121.508 64.0748 121.394 64.6543 121.274V114.938C64.0748 115.058 63.4708 115.172 62.8433 115.28Z" fill="#C49214"/>
<path d="M38.3938 115.684V122.021C38.9842 122.097 39.5864 122.167 40.2049 122.231V115.894C39.5864 115.829 38.9842 115.759 38.3938 115.684Z" fill="#C49214"/>
<path d="M58.3159 115.893V122.231C58.9344 122.166 59.5366 122.096 60.127 122.021V115.684C59.5366 115.76 58.9344 115.83 58.3159 115.893Z" fill="#C49214"/>
<path d="M42.9216 116.126V122.464C43.5166 122.506 44.1196 122.543 44.7327 122.573V116.234C44.1196 116.204 43.5166 116.168 42.9216 116.126Z" fill="#C49214"/>
<path d="M53.7881 116.234V122.573C54.4011 122.543 55.0042 122.506 55.5991 122.464V116.126C55.0042 116.168 54.4011 116.204 53.7881 116.234Z" fill="#C49214"/>
<path d="M49.2605 116.345C48.9572 116.345 48.6556 116.342 48.355 116.339V122.678C48.6556 122.681 48.9572 122.684 49.2605 122.684C49.5639 122.684 49.8654 122.681 50.166 122.678V116.339C49.8654 116.342 49.5639 116.345 49.2605 116.345Z" fill="#C49214"/>
<path d="M69.374 108.532C66.8023 110.794 57.5578 112.723 46.5438 112.723C37.9322 112.723 30.4045 111.543 26.2997 109.947C25.9221 110.289 25.7166 110.652 25.7166 111.029C25.7166 113.78 36.2578 116.345 49.2604 116.345C62.2638 116.345 72.8042 113.78 72.8042 111.029C72.8042 110.081 71.55 109.234 69.374 108.532Z" fill="#FCC62D"/>
<path d="M51.977 102.761C40.0122 102.761 30.1392 100.484 28.6378 97.9775C25.1253 98.7735 23 99.8339 23 101.068C23 103.818 33.5413 106.384 46.5438 106.384C59.5464 106.384 70.0876 103.818 70.0876 101.068C70.0876 100.947 70.0605 100.828 70.0197 100.71C65.7012 101.926 59.2231 102.761 51.977 102.761Z" fill="#FFD949"/>
<path d="M69.1757 87.8647C66.3586 90.0561 57.296 91.8953 46.5437 91.8953C39.6001 91.8953 33.3601 91.1274 29.0507 89.9937C28.6513 90.3468 28.4331 90.7181 28.4331 91.1075C28.4331 93.8585 38.9744 96.4229 51.9769 96.4229C64.9795 96.4229 75.5208 93.8585 75.5208 91.1075C75.5208 89.7926 73.1093 88.6743 69.1757 87.8647Z" fill="#FCC62D"/>
<g clip-path="url(#clip1)">
<path d="M80.3632 124.28C68.2143 124.28 58.3657 113.024 58.3657 99.14C58.3657 85.2555 68.2143 74 80.3632 74C92.5121 74 102.361 85.2555 102.361 99.14C102.361 113.024 92.5121 124.28 80.3632 124.28Z" fill="#FCC62D"/>
<path d="M58.3657 99.14C58.3657 86.2989 66.7921 75.7131 77.6696 74.1948C76.7861 74.0709 75.8883 74 74.976 74C62.8271 74 52.9785 85.2555 52.9785 99.14C52.9785 113.024 62.8271 124.28 74.976 124.28C75.8883 124.28 76.7861 124.209 77.6696 124.086C66.7921 122.567 58.3657 111.981 58.3657 99.14Z" fill="#E4AF18"/>
<path d="M58.3648 100.039H52.9795C52.9974 100.643 53.0316 101.242 53.0863 101.835H58.4762C58.4205 101.243 58.3828 100.644 58.3648 100.039Z" fill="#CE9912"/>
<path d="M58.5694 95.5493H53.1859C53.1114 96.141 53.0584 96.7408 53.0198 97.345H58.406C58.4446 96.7417 58.4967 96.1419 58.5694 95.5493Z" fill="#CE9912"/>
<path d="M58.8585 104.528H53.4705C53.5872 105.135 53.7219 105.734 53.8754 106.324H59.2616C59.1081 105.735 58.9743 105.136 58.8585 104.528Z" fill="#CE9912"/>
<path d="M60.1146 109.018H54.7239C54.9528 109.63 55.2051 110.227 55.4754 110.813H60.8643C60.5941 110.229 60.3436 109.63 60.1146 109.018Z" fill="#CE9912"/>
<path d="M59.5086 91.0601H54.1259C53.9517 91.65 53.7883 92.247 53.6519 92.8558H59.0453C59.1809 92.2497 59.3335 91.6491 59.5086 91.0601Z" fill="#CE9912"/>
<path d="M61.2963 86.5718H55.9082C55.6128 87.1563 55.3336 87.7543 55.0786 88.3675H60.4694C60.7243 87.7543 61 87.1554 61.2963 86.5718Z" fill="#CE9912"/>
<path d="M64.9606 81.1846H59.5672C59.0563 81.7556 58.5705 82.3545 58.1108 82.9803H63.5025C63.9622 82.3545 64.4488 81.7556 64.9606 81.1846Z" fill="#CE9912"/>
<path d="M70.4499 76.6943H65.0502C64.1335 77.2241 63.2527 77.8238 62.4141 78.4901H67.8093C68.6488 77.8247 69.5305 77.225 70.4499 76.6943Z" fill="#CE9912"/>
<path d="M62.8719 114.404H57.4829C57.8995 115.027 58.3395 115.625 58.8055 116.2H64.1989C63.732 115.625 63.2903 115.027 62.8719 114.404Z" fill="#CE9912"/>
<path d="M61.3591 118.894C62.0801 119.543 62.8361 120.147 63.6253 120.69H69.0259C68.2313 120.145 67.4691 119.546 66.7436 118.894H61.3591Z" fill="#CE9912"/>
<path d="M80.4394 119.363H80.363C79.7345 119.363 79.1015 119.325 78.482 119.252C77.99 119.193 77.6371 118.746 77.6973 118.253C77.7548 117.761 78.1884 117.418 78.6948 117.469C79.2425 117.534 79.8046 117.567 80.3621 117.567C80.8587 117.567 81.2977 117.97 81.2977 118.465C81.2986 118.961 80.9359 119.363 80.4394 119.363ZM85.6613 118.396C85.2986 118.396 84.9565 118.174 84.82 117.814C84.6449 117.351 84.8802 116.833 85.3435 116.658C85.8624 116.462 86.3787 116.233 86.8752 115.978C87.3178 115.75 87.8575 115.925 88.0855 116.366C88.3118 116.807 88.1385 117.348 87.6958 117.575C87.1383 117.862 86.5601 118.118 85.9764 118.338C85.8732 118.377 85.7663 118.396 85.6613 118.396ZM73.5088 117.71C73.3714 117.71 73.2323 117.679 73.103 117.612C72.5481 117.331 72.0013 117.014 71.4787 116.671C71.063 116.4 70.9472 115.844 71.2193 115.429C71.4922 115.015 72.0471 114.898 72.4628 115.17C72.9306 115.476 73.419 115.76 73.9155 116.011C74.3582 116.236 74.5332 116.776 74.3088 117.218C74.1517 117.531 73.8365 117.71 73.5088 117.71ZM91.5656 114.516C91.3367 114.516 91.1086 114.429 90.9344 114.257C90.5816 113.908 90.578 113.339 90.9263 112.987C91.3187 112.592 91.6967 112.167 92.0567 111.727C92.3692 111.343 92.9339 111.284 93.3182 111.597C93.7043 111.91 93.7609 112.476 93.4493 112.86C93.0543 113.345 92.635 113.813 92.204 114.249C92.028 114.427 91.7964 114.516 91.5656 114.516ZM68.0238 113.252C67.7634 113.252 67.5066 113.14 67.3297 112.924C66.9419 112.452 66.5684 111.95 66.2182 111.43C65.9399 111.019 66.0476 110.461 66.4579 110.183C66.87 109.906 67.4267 110.014 67.7059 110.425C68.0256 110.898 68.3668 111.357 68.7196 111.786C69.033 112.17 68.9782 112.735 68.593 113.049C68.426 113.186 68.224 113.252 68.0238 113.252ZM95.5099 108.638C95.3905 108.638 95.2693 108.614 95.1517 108.564C94.6973 108.365 94.4899 107.836 94.6875 107.381C94.9128 106.864 95.1175 106.329 95.2998 105.793C95.4587 105.323 95.9678 105.071 96.4383 105.228C96.907 105.387 97.1602 105.896 97.0021 106.366C96.8037 106.951 96.5792 107.534 96.335 108.099C96.186 108.436 95.8565 108.638 95.5099 108.638ZM64.6011 107.053C64.2276 107.053 63.8775 106.817 63.7509 106.444C63.5525 105.862 63.3756 105.262 63.2256 104.664C63.1071 104.183 63.3998 103.696 63.8802 103.577C64.3605 103.455 64.8481 103.749 64.9693 104.231C65.1048 104.779 65.2674 105.33 65.4496 105.865C65.6112 106.333 65.3589 106.844 64.8903 107.004C64.7951 107.037 64.6972 107.053 64.6011 107.053ZM97.2077 101.757C97.1862 101.757 97.1611 101.756 97.1377 101.754C96.643 101.717 96.2731 101.285 96.3117 100.79C96.3548 100.249 96.3745 99.6938 96.3745 99.1398C96.3745 98.6442 96.7768 98.2124 97.2724 98.2124C97.7689 98.2124 98.1702 98.585 98.1702 99.0815V99.1398C98.1702 99.7405 98.1478 100.342 98.102 100.928C98.0652 101.4 97.6728 101.757 97.2077 101.757ZM63.4528 100.048C62.9572 100.048 62.5549 99.6561 62.5549 99.1605V99.1398C62.5549 98.5338 62.5801 97.9188 62.6277 97.3118C62.6654 96.8171 63.1071 96.4544 63.5929 96.4876C64.0867 96.5262 64.4566 96.9581 64.418 97.4528C64.374 98.013 64.3506 98.5805 64.3506 99.1398C64.3506 99.6355 63.9493 100.048 63.4528 100.048ZM96.6179 94.6928C96.2165 94.6928 95.8493 94.4216 95.7469 94.014C95.6105 93.4654 95.4462 92.9159 95.2621 92.3808C95.1014 91.9112 95.3528 91.4003 95.8197 91.2396C96.2946 91.0771 96.8001 91.3285 96.9617 91.7972C97.1611 92.3799 97.3388 92.9787 97.4888 93.5758C97.6091 94.0571 97.3173 94.5446 96.8351 94.6649C96.7624 94.6847 96.6897 94.6928 96.6179 94.6928ZM64.5886 93.0623C64.4934 93.0623 64.3955 93.0461 64.3013 93.0138C63.8308 92.8548 63.5794 92.3449 63.7392 91.8753C63.9376 91.2881 64.1639 90.7054 64.4108 90.1433C64.611 89.689 65.1363 89.4807 65.5924 89.6818C66.0467 89.8811 66.2541 90.4109 66.0557 90.8643C65.8294 91.3797 65.622 91.9139 65.4389 92.4517C65.3123 92.8261 64.963 93.0623 64.5886 93.0623ZM93.7438 88.2192C93.4556 88.2192 93.1719 88.0809 92.9995 87.825C92.6825 87.3582 92.3414 86.9012 91.984 86.4666C91.668 86.0841 91.7245 85.5176 92.107 85.2024C92.4904 84.8882 93.0552 84.9429 93.3712 85.3254C93.7636 85.8031 94.138 86.3059 94.4863 86.8177C94.7638 87.2289 94.6551 87.7864 94.2448 88.0648C94.0913 88.1689 93.9171 88.2192 93.7438 88.2192ZM67.9986 86.8545C67.7984 86.8545 67.5982 86.7889 67.4303 86.6524C67.046 86.3382 66.9903 85.7734 67.3037 85.3892C67.6979 84.9061 68.1181 84.4392 68.5508 84.0029C68.9019 83.65 69.4693 83.6491 69.8204 83.9975C70.1742 84.3467 70.1759 84.9151 69.8258 85.2671C69.4334 85.663 69.0536 86.0868 68.6936 86.5249C68.5167 86.7422 68.2581 86.8545 67.9986 86.8545ZM88.723 83.2361C88.5542 83.2361 88.3845 83.1885 88.2328 83.0906C87.7632 82.7836 87.2738 82.5016 86.7782 82.2529C86.3365 82.0303 86.1587 81.4889 86.3823 81.0462C86.6049 80.6036 87.1428 80.4249 87.5872 80.6494C88.1412 80.9277 88.6889 81.2438 89.215 81.5867C89.6307 81.857 89.7483 82.4137 89.4772 82.8294C89.303 83.0924 89.0157 83.2361 88.723 83.2361ZM73.4747 82.384C73.147 82.384 72.8327 82.2054 72.6729 81.8947C72.4484 81.4521 72.6226 80.9115 73.0644 80.6862C73.6255 80.4007 74.2046 80.1439 74.7855 79.9275C75.2542 79.7524 75.7678 79.9894 75.942 80.4536C76.1153 80.9178 75.8791 81.435 75.4158 81.6092C74.8978 81.8031 74.3806 82.0303 73.8823 82.2853C73.7512 82.3517 73.612 82.384 73.4747 82.384ZM82.0995 80.8128C82.0663 80.8128 82.0313 80.811 81.9962 80.8065C81.4548 80.7436 80.9062 80.7122 80.363 80.7122C79.8674 80.7122 79.4463 80.31 79.4463 79.8144C79.4463 79.3187 79.8288 78.9165 80.3244 78.9165H80.363C80.9745 78.9165 81.594 78.9524 82.2019 79.0233C82.6948 79.0799 83.0476 79.5261 82.9902 80.0182C82.9381 80.4761 82.5502 80.8128 82.0995 80.8128Z" fill="#FFD949"/>
<g filter="url(#filter0_d)">
<path d="M82.1175 110.92C80.1395 111.345 75.5586 110.282 73.06 102.628C70.5614 94.9733 73.06 89.0199 74.6216 87C77.849 88.0631 84.866 91.7202 87.1148 97.8437C89.3635 103.967 86.8024 108.475 85.2408 109.963C84.8244 108.687 83.9915 105.434 83.9915 102.628V99.7573C83.6791 100.82 83.0545 103.393 83.0545 105.179C82.7422 104.86 80.5559 100.076 80.5559 95.6112C80.3476 96.3554 79.9312 98.2265 79.9312 99.7573C79.6189 99.1195 77.4326 95.6112 76.4956 90.8272C76.1833 90.8272 77.4326 97.5248 78.6819 99.7573C78.3696 99.7573 76.1833 100.076 74.934 98.4816C74.6242 98.4816 79.5129 104.443 82.0556 106.096C82.0818 106.108 82.1025 106.121 82.1175 106.136C82.0971 106.123 82.0764 106.11 82.0556 106.096C81.5403 105.874 78.9171 106.355 76.5532 104.585C76.9434 105.151 79.2711 109.757 82.1175 110.92Z" fill="#FFE52F"/>
</g>
</g>
<path d="M169.399 136.325L167.954 134.013L170.266 131.991L174.312 130.835L178.935 129.968C177.394 131.413 174.081 134.302 173.156 134.302C172.231 134.302 171.229 134.495 170.844 134.591L171.133 135.458L169.399 136.325Z" fill="#565F6D"/>
<path d="M114.935 137.628L113.779 134.45L110.601 129.826L108 131.271L109.445 133.872C109.83 133.583 110.601 133.063 110.601 133.294C111.294 133.756 111.275 134.835 111.179 135.317L114.935 137.628Z" fill="#3B4352"/>
<path d="M168.821 131.991L167.087 129.39L164.776 129.968L167.954 134.013L174.312 130.835L168.821 131.991Z" fill="#DBE3EF"/>
<path d="M112.935 130.835L115.247 128.812L113.802 127.078L110.624 129.968L113.802 134.826L112.935 130.835Z" fill="#DBE3EF"/>
<path d="M138.323 37.8953C136.705 36.5082 134.374 37.3173 133.41 37.8953C129.018 39.9759 129.654 47.2387 130.521 50.6101L131.099 53.7888C133.988 52.9219 139.768 50.8991 139.768 49.7432C139.768 48.2983 141.213 46.8535 140.924 44.2527C140.635 41.6519 140.346 39.6291 138.323 37.8953Z" fill="#F4B008"/>
<path d="M131.677 49.4546H137.456L140.057 52.9223L142.658 58.9907L144.392 73.7284H132.544L131.677 49.4546Z" fill="#DBE3EF"/>
<path d="M130.435 104.326C131.357 98.4269 128.594 92.4152 127.92 86.4431V84.4203L131.099 82.3975L136.3 87.599L139.935 94.3262C139.935 95.3857 139.86 100.321 138.935 103.326C137.779 107.083 136.692 109.703 132.935 114.326C129.93 118.025 121.316 126.556 115.536 129.927L112.935 127.326C112.454 127.615 114.669 125.303 114.669 125.303C114.669 125.303 129.513 110.225 130.435 104.326Z" fill="#2121AE"/>
<path d="M121.852 28.6484C121.659 27.7815 121.389 25.8165 121.852 24.8918C122.418 23.7593 123.539 21.7946 123.584 20.3566C123.62 20.3003 123.624 20.2682 123.585 20.2682C123.585 20.2974 123.585 20.3269 123.584 20.3566C123.403 20.6377 122.413 21.5205 121.852 22.002C121.563 20.9425 121.158 18.4766 121.852 17.0895C121.852 16.5115 119.829 18.8233 119.54 21.4241C119.309 23.5047 119.829 24.7954 120.118 25.1807L120.407 28.9374L121.852 28.6484Z" fill="#EAF2FF"/>
<path d="M152.483 21.713C152.483 23.1 151.905 26.1439 151.616 27.4924H150.171L148.726 24.0247L150.171 22.5799C150.942 21.713 152.483 20.3259 152.483 21.713Z" fill="#EAF2FF"/>
<path d="M132.255 43.6746C131.966 41.0739 133.7 39.629 135.433 39.629C136.011 39.5754 138.323 40.207 138.034 43.6746C137.803 46.4488 136.397 47.1423 135.722 47.1423V49.4541H133.989V47.1423C133.507 46.8533 132.486 45.7552 132.255 43.6746Z" fill="white"/>
<path d="M123.296 42.2299C123.527 45.4664 126.475 48.9726 127.92 50.3212V55.5228C127.149 55.0412 125.146 53.3266 123.296 50.3212C120.985 46.5644 118.962 40.4961 118.384 36.1615C117.806 31.8269 117.806 27.4923 121.273 27.7812C124.741 28.0702 123.007 38.1843 123.296 42.2299Z" fill="#EAF3FF"/>
<path d="M148.437 43.3859C147.743 46.8536 144.295 48.8764 142.658 49.4544L143.814 53.211C145.355 52.2477 148.957 49.801 151.038 47.7205C153.639 45.12 153.928 40.2076 154.217 35.2953L154.217 35.2947C154.506 30.3821 153.928 26.6255 151.038 26.6255C148.148 26.6255 148.437 28.6483 148.437 31.538C148.437 34.4278 149.304 39.0513 148.437 43.3859Z" fill="#EAF3FF"/>
<path d="M132.255 72.5723H143.236L144.103 75.751C143.814 77.5811 143.409 81.7616 144.103 83.8422C144.97 86.443 149.593 94.2453 154.506 102.625C158.436 109.33 164.968 122.069 168.243 129.101L164.198 131.413C163.62 130.835 161.403 127.681 157.935 122.826C153.601 116.758 153.614 114.317 150.435 108.826C147.257 103.336 141.371 98.7387 134.435 93.8262C127.5 88.9136 129.357 84.5828 129.935 80.8262C130.398 77.8208 130.617 74.4988 132.255 72.5723Z" fill="#2626BC"/>
<path d="M136.3 48.8765H143.236C143.91 52.1515 145.258 59.973 145.258 65.059C145.258 70.1449 147.185 78.3518 148.148 81.8194H143.236V71.9943L136.3 48.8765Z" fill="#F4B008"/>
<path d="M126.764 48.8765H132.833C133.314 54.5596 134.104 67.313 133.411 72.8613C132.717 78.4095 130.617 84.2275 129.654 86.443H124.163C123.971 85.9614 123.701 84.3624 124.163 81.8194C124.741 78.6407 126.764 74.8841 127.631 71.9943C128.498 69.1046 126.764 64.1921 125.897 58.9905C125.204 54.8293 126.186 50.514 126.764 48.8765Z" fill="#F4B008"/>
<circle cx="136.762" cy="16.762" r="16.762" fill="#F8DB14"/>
<g filter="url(#filter1_i)">
<circle cx="136.762" cy="16.7619" r="14.1154" fill="#F8C614"/>
</g>
<g filter="url(#filter2_d)">
<path d="M138.172 25.3633C136.775 25.6573 133.541 24.9222 131.776 19.6289C130.012 14.3356 131.776 10.2186 132.879 8.82178C135.158 9.55695 140.113 12.086 141.701 16.3206C143.289 20.5552 141.48 23.6724 140.378 24.7016C140.084 23.8194 139.495 21.5697 139.495 19.6289V17.6439C139.275 18.3791 138.834 20.1582 138.834 21.3933C138.613 21.1728 137.069 17.8645 137.069 14.7767C136.922 15.2913 136.628 16.5852 136.628 17.6439C136.408 17.2028 134.864 14.7767 134.202 11.4684C133.982 11.4684 134.864 16.1 135.746 17.6439C135.526 17.6439 133.982 17.8645 133.099 16.7617C132.881 16.7617 136.333 20.8845 138.128 22.0275C138.147 22.0353 138.162 22.0444 138.172 22.055C138.158 22.046 138.143 22.0369 138.128 22.0275C137.765 21.8739 135.912 22.2066 134.243 20.9824C134.518 21.3737 136.162 24.5592 138.172 25.3633Z" fill="#F8DB14"/>
</g>
<path d="M16.4209 56.282C15.7104 55.7866 14.7329 55.9608 14.2371 56.6715C13.0896 58.317 12.8666 60.2751 12.6701 62.0024C12.3313 64.9799 12.2046 66.095 9.0923 65.8954C5.66498 65.6762 3.10415 66.4108 1.47987 68.0768C-0.521471 70.1293 -0.450454 72.9604 1.43605 72.992C3.00462 73.0182 3.11104 71.3466 3.11104 71.3466C3.11104 71.3466 3.43528 68.6802 8.89247 69.0264C17.4855 69.5736 14.7394 61.4364 16.8102 58.4658C17.3061 57.7553 17.1317 56.7776 16.4209 56.282Z" fill="#F99830"/>
<path d="M17.8792 40.1954L14.9811 39.0234C14.178 38.6988 13.79 37.7844 14.1148 36.9811C14.4394 36.178 15.3536 35.79 16.1571 36.1148L19.0556 37.2868C19.8587 37.6114 20.2463 38.5258 19.9217 39.3291C19.5976 40.1313 18.6837 40.5206 17.8792 40.1954Z" fill="#CFD9E9"/>
<path d="M90.2651 8.73166C89.4909 8.34285 88.5485 8.65613 88.1591 9.42966C87.7703 10.2038 88.0827 11.1468 88.857 11.5355C91.0548 12.6391 90.9284 13.8472 90.4629 16.2581C90.0446 18.4237 89.3449 22.048 94.3103 23.2652C98.0866 24.1915 97.8471 25.9594 97.8471 25.9594C97.8183 26.4854 97.4029 27.9066 98.8891 28.2748C101.458 28.9116 103.052 22.1785 95.0573 20.2189C93.0548 19.7277 93.0789 19.2593 93.5434 16.8532C93.9972 14.5023 94.6832 10.9504 90.2651 8.73166Z" fill="#F99830"/>
<defs>
<filter id="filter0_d" x="72" y="87" width="16" height="26" filterUnits="userSpaceOnUse" color-interpolation-filters="sRGB">
<feFlood flood-opacity="0" result="BackgroundImageFix"/>
<feColorMatrix in="SourceAlpha" type="matrix" values="0 0 0 0 0 0 0 0 0 0 0 0 0 0 0 0 0 0 127 0"/>
<feOffset dy="2"/>
<feColorMatrix type="matrix" values="0 0 0 0 0.933333 0 0 0 0 0.72549 0 0 0 0 0 0 0 0 1 0"/>
<feBlend mode="normal" in2="BackgroundImageFix" result="effect1_dropShadow"/>
<feBlend mode="normal" in="SourceGraphic" in2="effect1_dropShadow" result="shape"/>
</filter>
<filter id="filter1_i" x="122.646" y="2.64648" width="28.2308" height="28.2308" filterUnits="userSpaceOnUse" color-interpolation-filters="sRGB">
<feFlood flood-opacity="0" result="BackgroundImageFix"/>
<feBlend mode="normal" in="SourceGraphic" in2="BackgroundImageFix" result="shape"/>
<feColorMatrix in="SourceAlpha" type="matrix" values="0 0 0 0 0 0 0 0 0 0 0 0 0 0 0 0 0 0 127 0" result="hardAlpha"/>
<feOffset dy="2"/>
<feComposite in2="hardAlpha" operator="arithmetic" k2="-1" k3="1"/>
<feColorMatrix type="matrix" values="0 0 0 0 0.933333 0 0 0 0 0.72549 0 0 0 0 0 0 0 0 1 0"/>
<feBlend mode="normal" in2="shape" result="effect1_innerShadow"/>
</filter>
<filter id="filter2_d" x="131.028" y="8.82178" width="11.2985" height="18.5968" filterUnits="userSpaceOnUse" color-interpolation-filters="sRGB">
<feFlood flood-opacity="0" result="BackgroundImageFix"/>
<feColorMatrix in="SourceAlpha" type="matrix" values="0 0 0 0 0 0 0 0 0 0 0 0 0 0 0 0 0 0 127 0"/>
<feOffset dy="2"/>
<feColorMatrix type="matrix" values="0 0 0 0 0.933333 0 0 0 0 0.72549 0 0 0 0 0 0 0 0 1 0"/>
<feBlend mode="normal" in2="BackgroundImageFix" result="effect1_dropShadow"/>
<feBlend mode="normal" in="SourceGraphic" in2="effect1_dropShadow" result="shape"/>
</filter>
<clipPath id="clip0">
<rect width="62" height="62" fill="white" transform="translate(28 18)"/>
</clipPath>
<clipPath id="clip1">
<rect width="50.28" height="50.28" fill="white" transform="translate(52.5295 74)"/>
</clipPath>
</defs>
</svg>
