<svg width="137" height="137" viewBox="0 0 137 137" fill="none" xmlns="http://www.w3.org/2000/svg">
<path d="M75.4068 54.4662C77.6986 56.677 81.9933 56.307 83.8542 55.8457L88.3251 81.5738C85.1932 81.4874 77.5219 81.1869 71.8916 80.6756C64.8538 80.0364 37.2549 81.9062 30.2171 81.267C24.5868 80.7557 25.238 77.393 26.2674 75.7755C22.3918 76.0779 14.5393 76.0539 14.1338 73.5389C13.7283 71.0239 14.9757 69.4251 15.6501 68.94C12.988 69.1005 7.47946 68.677 6.74132 65.6996C5.81865 61.9778 11.8527 59.3921 11.3558 59.3109C7.00032 56.3039 11.0011 52.1108 13.8558 51.8118C16.7106 51.5127 28.6263 50.3977 34.2546 50.2966C39.8828 50.1954 53.117 47.2551 55.7538 43.6044C58.3906 39.9538 52.1643 34.3455 50.4912 28.9707C48.8182 23.5959 52.2767 18.0386 54.9235 17.4506C57.5704 16.8625 58.1129 18.2265 58.8732 22.9421C59.6336 27.6577 61.3422 31.2528 65.5809 36.5364C69.8196 41.8201 72.5421 51.7026 75.4068 54.4662Z" fill="#CFD9E9"/>
<path d="M83.4738 53.4885L88.3095 89.4791L102.71 88.7699L97.6206 51.2074L83.4738 53.4885Z" fill="#ECF3FE"/>
<path d="M97.3671 49.6353L103.09 91.1275C113.615 90.4433 121.004 80.4694 118.593 70.2017L117.105 63.8684C114.992 54.8683 106.574 48.7982 97.3671 49.6353Z" fill="#2626BC"/>
</svg>
