<svg width="20" height="18" viewBox="0 0 20 18" fill="none" xmlns="http://www.w3.org/2000/svg">
<path fill-rule="evenodd" clip-rule="evenodd" d="M10 2C5.46776 2 2.00002 5.24148 2.00002 9C2.00002 10.3518 2.43801 11.619 3.20894 12.6991C3.40234 12.97 3.44822 13.3195 3.33133 13.6312L2.56804 15.6666L5.54857 15.0705C5.76062 15.0281 5.98071 15.0555 6.17583 15.1488C7.30816 15.6899 8.60985 16 10 16C14.5323 16 18 12.7585 18 9C18 5.24148 14.5323 2 10 2ZM1.51913e-05 9C1.51913e-05 3.92196 4.59115 0 10 0C15.4089 0 20 3.92196 20 9C20 14.078 15.4089 18 10 18C8.43475 18 6.94859 17.6761 5.62323 17.0952L1.19613 17.9806C0.840093 18.0518 0.473431 17.9244 0.238216 17.6478C0.00300185 17.3712 -0.0638033 16.9888 0.063686 16.6489L1.27874 13.4087C0.467797 12.1108 1.51913e-05 10.6065 1.51913e-05 9ZM5.00002 9C5.00002 8.44772 5.44773 8 6.00002 8H6.01002C6.5623 8 7.01002 8.44772 7.01002 9C7.01002 9.55229 6.5623 10 6.01002 10H6.00002C5.44773 10 5.00002 9.55229 5.00002 9ZM9.00002 9C9.00002 8.44772 9.44773 8 10 8H10.01C10.5623 8 11.01 8.44772 11.01 9C11.01 9.55229 10.5623 10 10.01 10H10C9.44773 10 9.00002 9.55229 9.00002 9ZM13 9C13 8.44772 13.4477 8 14 8H14.01C14.5623 8 15.01 8.44772 15.01 9C15.01 9.55229 14.5623 10 14.01 10H14C13.4477 10 13 9.55229 13 9Z" fill="#878787"/>
</svg>
