<svg width="21.539" height="20" viewBox="0 0 21.539 20" fill="none" xmlns="http://www.w3.org/2000/svg"><path fill-rule="evenodd" clip-rule="evenodd" d="M4.155 17.5a2.113 2.113 0 0 0 2.118 2.115l8.461 -0.008a2.113 2.113 0 0 0 2.113 -2.115V2.923a2.538 2.538 0 0 0 -2.536 -2.538H2.693a2.115 2.115 0 0 0 0 4.231h1.463zM4.144 3.461H2.693a0.961 0.961 0 0 1 0 -1.923h0.261c0.581 0.088 0.801 0.265 0.935 0.518 0.144 0.273 0.228 0.7 0.255 1.405m0.778 -1.923h9.389c0.764 0 1.383 0.619 1.383 1.384v2.109h1.154v8.929h-1.154v3.531a0.963 0.963 0 0 1 -0.961 0.961l-8.461 0.008a0.963 0.963 0 0 1 -0.961 -0.961V4.039c-0.003 -1.03 -0.07 -1.879 -0.389 -2.5" fill="#878787"/><path fill-rule="evenodd" clip-rule="evenodd" d="M18.241 5.769h-3.406a2.143 2.143 0 0 0 -2.143 2.143v3.406a2.143 2.143 0 0 0 2.143 2.143h3.406a2.143 2.143 0 0 0 2.143 -2.143V7.911a2.143 2.143 0 0 0 -2.143 -2.143m-3.406 -1.154A3.3 3.3 0 0 0 11.539 7.913v3.406a3.3 3.3 0 0 0 3.296 3.296h3.406a3.3 3.3 0 0 0 3.298 -3.296V7.913a3.3 3.3 0 0 0 -3.298 -3.298z" fill="#878787"/><path d="M15.385 8.461V11.188l3.076 -3.495" stroke="#878787" stroke-width="1.1538750000000002" stroke-linecap="round" stroke-linejoin="round"/><path d="M7.481 8.461H10M7.481 3.846h4.826m-4.826 9.231h2.904" stroke="#878787" stroke-width="1.1538750000000002" stroke-linecap="round"/></svg>