<svg width="21" height="20" viewBox="0 0 21 20" fill="none" xmlns="http://www.w3.org/2000/svg">
<path fill-rule="evenodd" clip-rule="evenodd" d="M9.94417 1.90589C10.1904 1.88546 10.4399 1.875 10.6922 1.875C10.9445 1.875 11.194 1.88546 11.4403 1.90589C11.4868 1.90973 11.5819 1.95187 11.6194 2.08867L11.9979 3.47028C12.19 4.17096 12.7171 4.67847 13.304 4.95591C13.5313 5.06333 13.7504 5.18441 13.96 5.31803C14.5057 5.66577 15.2304 5.84794 15.9627 5.65621L17.407 5.27793C17.5497 5.24058 17.6355 5.29789 17.6625 5.33448C17.9488 5.7231 18.1999 6.13654 18.4121 6.57068C18.4314 6.6105 18.4411 6.7099 18.3355 6.80932L17.2685 7.81572C16.7296 8.32401 16.5321 9.0126 16.5736 9.63648C16.5816 9.75656 16.5857 9.87774 16.5857 10C16.5857 10.1223 16.5816 10.2434 16.5736 10.3635C16.5321 10.9874 16.7296 11.676 17.2685 12.1842L18.3355 13.1907C18.4411 13.2901 18.4314 13.3894 18.4121 13.4293C18.1999 13.8634 17.9488 14.2769 17.6625 14.6654C17.6355 14.7021 17.5497 14.7593 17.407 14.7221L15.9627 14.3438C15.2304 14.152 14.5057 14.3342 13.96 14.682C13.7504 14.8157 13.5313 14.9367 13.304 15.0441C12.7171 15.3216 12.19 15.829 11.9979 16.5298L11.6194 17.9113C11.5819 18.0481 11.4868 18.0902 11.4403 18.0941C11.194 18.1144 10.9445 18.125 10.6922 18.125C10.4399 18.125 10.1904 18.1144 9.94417 18.0941C9.89767 18.0902 9.80256 18.0481 9.76508 17.9113L9.38647 16.5297C9.19448 15.829 8.66731 15.3216 8.08044 15.0441C7.8532 14.9367 7.63417 14.8157 7.4245 14.682C6.87888 14.3342 6.15406 14.152 5.42193 14.3438L3.9774 14.7221C3.83477 14.7593 3.74883 14.7021 3.72189 14.6654C3.43577 14.2769 3.18454 13.8634 2.97244 13.4293C2.95298 13.3894 2.94343 13.2901 3.04885 13.1907L4.11605 12.1842C4.655 11.6759 4.85252 10.9873 4.81094 10.3635C4.80295 10.2434 4.79887 10.1222 4.79887 10C4.79887 9.87778 4.80295 9.75658 4.81094 9.63652C4.85252 9.01267 4.655 8.32408 4.11605 7.8158L3.04885 6.80932C2.94343 6.70991 2.95298 6.61051 2.97244 6.57069C3.18454 6.13654 3.43577 5.7231 3.7219 5.33448C3.74883 5.29789 3.83477 5.24059 3.9774 5.27793L5.42193 5.65622C6.15406 5.84797 6.87888 5.66578 7.4245 5.31804C7.63417 5.18443 7.8532 5.06337 8.08044 4.95593C8.66729 4.67849 9.19448 4.17098 9.38647 3.47031L9.76508 2.08867C9.80256 1.95187 9.89767 1.90973 9.94417 1.90589ZM10.6922 0C10.3831 0 10.0768 0.0128062 9.77403 0.0379293C8.80125 0.118643 8.08593 0.806302 7.86454 1.61422L7.48593 2.99589C7.46307 3.07937 7.38259 3.19344 7.20849 3.27577C6.90517 3.41917 6.61303 3.58064 6.33364 3.75871C6.17257 3.86134 6.02902 3.87092 5.94172 3.84807L4.4972 3.46977C3.65478 3.24916 2.67494 3.49537 2.11459 4.25643C1.76266 4.73447 1.45334 5.24341 1.19203 5.77828C0.779533 6.6226 1.04647 7.55681 1.6681 8.14308L2.73531 9.14953C2.79966 9.21023 2.86271 9.33347 2.85043 9.51749C2.8398 9.67713 2.83441 9.83803 2.83441 10C2.83441 10.162 2.8398 10.3229 2.85043 10.4825C2.86271 10.6665 2.79966 10.7898 2.73531 10.8505L1.6681 11.8569C1.04647 12.4432 0.779533 13.3773 1.19203 14.2218C1.45334 14.7567 1.76266 15.2654 2.11459 15.7436C2.67494 16.5047 3.65478 16.7509 4.4972 16.5302L5.94172 16.152C6.02902 16.1291 6.17258 16.1387 6.33364 16.2412C6.61303 16.4193 6.90517 16.5809 7.20849 16.7242C7.38259 16.8066 7.46307 16.9207 7.48593 17.0041L7.86454 18.3858C8.08593 19.1938 8.80125 19.8813 9.77403 19.9621C10.0768 19.9872 10.3831 20 10.6922 20C11.0014 20 11.3077 19.9872 11.6104 19.9621C12.5832 19.8813 13.2985 19.1938 13.5199 18.3858L13.8985 17.0041C13.9214 16.9207 14.0019 16.8067 14.176 16.7242C14.4793 16.5809 14.7715 16.4193 15.0508 16.2412C15.212 16.1387 15.3555 16.1291 15.4429 16.152L16.8873 16.5302C17.7298 16.7509 18.7094 16.5047 19.2699 15.7437C19.6217 15.2654 19.9312 14.7567 20.1924 14.2218C20.605 13.3773 20.3381 12.4432 19.7163 11.8569L18.6492 10.8505C18.5848 10.7898 18.5219 10.6666 18.5342 10.4826C18.5447 10.3229 18.5501 10.162 18.5501 10C18.5501 9.83801 18.5447 9.6771 18.5342 9.51742C18.5219 9.3334 18.5848 9.21017 18.6492 9.14948L19.7163 8.14307C20.3381 7.5568 20.605 6.62259 20.1924 5.77827C19.9312 5.2434 19.6217 4.73444 19.2699 4.25643C18.7094 3.49534 17.7298 3.24916 16.8873 3.46977L15.4429 3.84803C15.3555 3.8709 15.212 3.86133 15.0508 3.7587C14.7715 3.58062 14.4793 3.41912 14.176 3.27571C14.0019 3.19341 13.9214 3.07932 13.8985 2.99583L13.5199 1.61422C13.2985 0.8063 12.5832 0.118641 11.6104 0.0379282C11.3077 0.0128059 11.0014 0 10.6922 0ZM12.6567 10C12.6567 11.0355 11.7772 11.875 10.6922 11.875C9.60728 11.875 8.72777 11.0355 8.72777 10C8.72777 8.96447 9.60728 8.125 10.6922 8.125C11.7772 8.125 12.6567 8.96447 12.6567 10ZM14.6212 10C14.6212 12.0711 12.8621 13.75 10.6922 13.75C8.52235 13.75 6.76331 12.0711 6.76331 10C6.76331 7.92893 8.52235 6.25 10.6922 6.25C12.8621 6.25 14.6212 7.92893 14.6212 10Z" fill="#878787"/>
</svg>
