<svg width="148" height="37" viewBox="0 0 148 37" fill="none" xmlns="http://www.w3.org/2000/svg">
<path fill-rule="evenodd" clip-rule="evenodd" d="M16 0L6.17636 5.66728L9.78802 7.75881L15.9985 4.18617L22.212 7.75881L25.8236 5.66728L16 0ZM22.2104 10.721L25.8236 12.8141V17.0018L19.6117 20.576V27.7244L16 29.8175L12.3883 27.7244V20.576L6.17636 17.0018V12.8141L9.78802 10.721L15.9985 14.2952L22.212 10.721H22.2104ZM25.8236 19.9625V24.1502L22.212 26.2433V22.0556L25.8236 19.9641V19.9625ZM22.1764 29.204L28.3868 25.6298V18.483L32 16.3883V27.7244L22.1764 33.3917V29.204ZM28.3868 11.3346L24.7767 9.24148L28.3883 7.14685L32 9.24148V13.4292L28.3883 15.5223L28.3868 11.3346ZM12.3899 34.9085V30.7192L16.0015 32.8123L19.6132 30.7192V34.9069L16.0015 37L12.3899 34.9069V34.9085ZM9.78492 26.2418L6.17636 24.1502V19.9625L9.78802 22.0556V26.2433L9.78492 26.2418ZM15.9985 11.333L12.3868 9.24148L15.9985 7.14685L19.6101 9.24148L15.9985 11.3346V11.333ZM7.22331 9.24148L3.61165 11.3346V15.5223L0 13.4292V9.24148L3.61165 7.14685L7.22331 9.24148ZM0 16.3883L3.61165 18.483V25.6298L9.82209 29.204V33.3917L0.00154874 27.7244V16.3883H0Z" fill="#F4BB2B"/>
<path d="M40 3.25175H46.8938C48.6047 3.25175 49.8986 3.68528 50.7754 4.55231C51.454 5.22381 51.7932 6.05605 51.7932 7.04887V7.09088C51.7932 7.51039 51.7407 7.88116 51.635 8.20272C51.5361 8.51089 51.3939 8.80401 51.2125 9.07317C51.0412 9.32718 50.8353 9.55658 50.6004 9.75502C50.3702 9.94961 50.1188 10.1185 49.8509 10.2585C50.711 10.5805 51.388 11.0173 51.8816 11.5697C52.375 12.1225 52.622 12.8882 52.622 13.8671V13.9089C52.622 14.5803 52.4912 15.1677 52.2296 15.6714C51.968 16.1747 51.5931 16.5944 51.1051 16.9302C50.6171 17.2659 50.0301 17.5175 49.3442 17.6854C48.6583 17.8532 47.8983 17.937 47.0642 17.937H40V3.25175ZM46.2045 9.18871C46.9272 9.18871 47.501 9.06662 47.9257 8.82169C48.3507 8.57694 48.5631 8.18166 48.5631 7.63641V7.59441C48.5631 7.1051 48.3788 6.73106 48.0106 6.47209C47.6421 6.21332 47.1109 6.08383 46.4169 6.08383H43.1871V9.18871H46.2045ZM47.0758 15.1051C47.7983 15.1051 48.3646 14.9761 48.7757 14.7171C49.1865 14.4583 49.3921 14.056 49.3921 13.5106V13.4688C49.3921 12.9793 49.2007 12.5912 48.8183 12.3043C48.4357 12.018 47.8196 11.8745 46.9695 11.8745H43.1871V15.1053L47.0758 15.1051ZM56.7276 3.25175H60.0003V17.9374H56.7276V3.25175ZM64.9569 3.25175H67.9738L74.9439 12.294V3.25175H78.1737V17.9374H75.3903L68.1866 8.60164V17.9374H64.9569V3.25175ZM88.0812 3.14698H91.0984L97.4735 17.9374H94.0522L92.6922 14.6438H86.4023L85.0425 17.9374H81.7058L88.0812 3.14698ZM91.5235 11.7903L89.5472 7.02811L87.5714 11.7903H91.5235ZM101.006 3.25175H104.024L110.993 12.294V3.25175H114.223V17.9374H111.44L104.236 8.60164V17.9374H101.006V3.25175ZM126 18.1889C124.909 18.1889 123.896 17.993 122.961 17.6017C122.027 17.2104 121.219 16.6752 120.539 15.9966C119.859 15.3184 119.327 14.5175 118.945 13.5945C118.563 12.6713 118.372 11.6853 118.372 10.6362V10.5945C118.372 9.54545 118.563 8.5631 118.945 7.64689C119.328 6.73087 119.859 5.92656 120.539 5.23431C121.218 4.54204 122.033 3.99631 122.983 3.59778C123.931 3.19926 124.98 3 126.128 3C126.822 3 127.456 3.05621 128.029 3.16776C128.603 3.27997 129.123 3.43352 129.592 3.62928C130.048 3.81965 130.483 4.05883 130.888 4.34256C131.281 4.61995 131.65 4.92874 131.992 5.26581L129.91 7.63641C129.329 7.11914 128.738 6.7131 128.136 6.41961C127.533 6.12603 126.857 5.97905 126.106 5.97905C125.483 5.97905 124.906 6.09805 124.375 6.33578C123.853 6.56649 123.387 6.90236 123.004 7.32159C122.622 7.7412 122.324 8.22741 122.111 8.77968C121.899 9.33242 121.793 9.92323 121.793 10.5525V10.5942C121.793 11.2236 121.899 11.8182 122.111 12.3773C122.324 12.9371 122.617 13.4264 122.993 13.8459C123.369 14.2654 123.822 14.5979 124.353 14.8427C124.885 15.0876 125.469 15.2097 126.106 15.2097C126.956 15.2097 127.675 15.0559 128.263 14.7482C128.851 14.4408 129.435 14.021 130.016 13.4894L132.099 15.5664C131.73 15.9589 131.332 16.3236 130.909 16.6572C130.492 16.9827 130.039 17.2608 129.559 17.4862C129.07 17.7167 128.535 17.8919 127.955 18.0105C127.374 18.1292 126.722 18.1889 126 18.1889ZM135.95 3.25175H147.148V6.12603H139.18V9.10517H146.192V11.9792H139.18V15.0634H147.255V17.9374H135.95V3.25175Z" fill="#F4BB2B"/>
<path d="M44.647 30.8156C44.647 30.4562 44.4657 30.1668 44.1031 29.9472C43.7455 29.7276 43.306 29.5454 42.7845 29.4007C42.268 29.251 41.7515 29.0763 41.2349 28.8766C40.7234 28.677 40.2863 28.3476 39.9238 27.8885C39.5612 27.4293 39.3799 26.8479 39.3799 26.1442C39.3799 25.2758 39.7251 24.5347 40.4155 23.9208C41.1108 23.3069 42.0122 23 43.1198 23C43.5568 23 43.979 23.0524 44.3862 23.1572C44.7935 23.257 45.1262 23.3768 45.3845 23.5165C45.6477 23.6513 45.8762 23.791 46.0699 23.9358C46.2685 24.0755 46.4101 24.1978 46.4945 24.3026L46.6286 24.4523L45.2578 25.9121C45.1983 25.8423 45.1138 25.7574 45.0046 25.6576C44.9003 25.5528 44.6768 25.4155 44.3341 25.2459C43.9914 25.0762 43.6388 24.9913 43.2762 24.9913C42.8391 24.9913 42.4865 25.1036 42.2183 25.3282C41.9551 25.5528 41.8235 25.8248 41.8235 26.1442C41.8235 26.5035 42.0023 26.793 42.3599 27.0126C42.7224 27.2272 43.1595 27.4094 43.671 27.5591C44.1876 27.7088 44.7041 27.8835 45.2206 28.0831C45.7421 28.2827 46.1841 28.6121 46.5467 29.0713C46.9092 29.5304 47.0905 30.1119 47.0905 30.8156C47.0905 31.8087 46.7304 32.6197 46.0103 33.2486C45.2951 33.8774 44.3068 34.1918 43.0453 34.1918C42.5486 34.1918 42.0668 34.1294 41.6 34.0047C41.1381 33.8849 40.7557 33.7402 40.4527 33.5705C40.1547 33.4008 39.8915 33.2286 39.663 33.0539C39.4346 32.8793 39.2707 32.732 39.1713 32.6122L39 32.4251L40.3782 31.0476C40.4477 31.1275 40.5446 31.2323 40.6688 31.3621C40.7979 31.4868 41.081 31.6565 41.518 31.8711C41.9551 32.0857 42.412 32.193 42.8888 32.193C43.4401 32.193 43.8697 32.0633 44.1776 31.8037C44.4905 31.5442 44.647 31.2148 44.647 30.8156Z" fill="#F4BB2B"/>
<path d="M54.8607 27.9034L58.5558 23.2246H60.5821V33.9598H58.295V26.803L54.8607 31.1974L51.4338 26.8329V33.9598H49.1392V23.2246H51.2028L54.8607 27.9034Z" fill="#F4BB2B"/>
<path d="M68.8216 29.4381L67.5254 25.9121L66.2216 29.4381H68.8216ZM69.5815 31.4294H65.4618L64.5454 33.9598H62.1019L66.3036 23.2246H68.7397L72.9414 33.9598H70.4978L69.5815 31.4294Z" fill="#F4BB2B"/>
<path d="M74.4686 33.9598V23.2246H79.1992C80.2571 23.2246 81.1312 23.5665 81.8216 24.2502C82.5169 24.9289 82.8645 25.7624 82.8645 26.7506C82.8645 27.1798 82.7975 27.5815 82.6634 27.9558C82.5293 28.3302 82.3704 28.6321 82.1866 28.8617C82.0078 29.0913 81.8241 29.2884 81.6353 29.4531C81.4466 29.6178 81.2852 29.7301 81.1511 29.79L80.9574 29.8948L83.2445 33.9598H80.8009L78.7448 30.2017H76.7631V33.9598H74.4686ZM80.5775 26.7506C80.5775 26.3313 80.4384 25.9845 80.1603 25.71C79.8871 25.4355 79.5419 25.2983 79.1247 25.2983H76.7631V28.1355H79.1247C79.5419 28.1355 79.8871 28.0033 80.1603 27.7387C80.4384 27.4692 80.5775 27.1399 80.5775 26.7506Z" fill="#F4BB2B"/>
<path d="M83.9224 23.2246H92.3109V25.2983H89.2639V33.9598H86.9768V25.2983H83.9224V23.2246Z" fill="#F4BB2B"/>
<path d="M102.309 23C102.87 23 103.404 23.0749 103.91 23.2246C104.417 23.3693 104.832 23.5465 105.154 23.7561C105.482 23.9657 105.77 24.1753 106.019 24.3849C106.272 24.5946 106.453 24.7717 106.562 24.9165L106.734 25.141L105.281 26.6009C105.251 26.5609 105.209 26.506 105.154 26.4362C105.105 26.3613 104.988 26.2365 104.804 26.0618C104.625 25.8872 104.429 25.7349 104.216 25.6052C104.002 25.4704 103.722 25.3482 103.374 25.2384C103.026 25.1236 102.671 25.0662 102.309 25.0662C101.31 25.0662 100.476 25.4031 99.8054 26.0768C99.135 26.7506 98.7997 27.589 98.7997 28.5922C98.7997 29.5953 99.135 30.4338 99.8054 31.1075C100.476 31.7813 101.31 32.1182 102.309 32.1182C102.696 32.1182 103.066 32.0658 103.419 31.961C103.776 31.8512 104.072 31.7239 104.305 31.5792C104.539 31.4294 104.745 31.2797 104.923 31.13C105.102 30.9803 105.231 30.8505 105.311 30.7407L105.43 30.5835L106.808 32.0433C106.769 32.1032 106.706 32.183 106.622 32.2829C106.543 32.3777 106.361 32.5499 106.078 32.7994C105.8 33.044 105.5 33.2611 105.177 33.4507C104.859 33.6354 104.439 33.805 103.918 33.9598C103.401 34.1145 102.865 34.1918 102.309 34.1918C100.68 34.1918 99.3038 33.6453 98.1814 32.5524C97.0639 31.4544 96.5052 30.1343 96.5052 28.5922C96.5052 27.05 97.0639 25.7325 98.1814 24.6395C99.3038 23.5465 100.68 23 102.309 23Z" fill="#F4BB2B"/>
<path d="M117.789 23.2246V33.9598H115.502V29.5878H110.928V33.9598H108.633V23.2246H110.928V27.5217H115.502V23.2246H117.789Z" fill="#F4BB2B"/>
<path d="M126.036 29.4381L124.74 25.9121L123.436 29.4381H126.036ZM126.796 31.4294H122.676L121.76 33.9598H119.317L123.518 23.2246H125.954L130.156 33.9598H127.712L126.796 31.4294Z" fill="#F4BB2B"/>
<path d="M131.683 33.9598V23.2246H133.978V33.9598H131.683Z" fill="#F4BB2B"/>
<path d="M143.968 23.2246H146.255V33.9598H144.273L139.014 27.1399V33.9598H136.719V23.2246H138.708L143.968 30.052V23.2246Z" fill="#F4BB2B"/>
</svg>
