<svg width="165" height="41" viewBox="0 0 165 41" fill="none" xmlns="http://www.w3.org/2000/svg">
<path fill-rule="evenodd" clip-rule="evenodd" d="M20.1896 9.54292L12.348 17.2655L7.78516 12.7718L20.1896 0.55481L32.5982 12.7759L28.0353 17.2696L20.1896 9.54292ZM9.12559 20.4379L4.56279 15.9445L0 20.4382L4.56279 24.932L9.12559 20.4379ZM20.1896 31.3345L12.348 23.6119L7.77847 28.0996L7.78485 28.1058L20.1896 40.3226L32.5982 28.1018L32.6004 28.0992L28.0351 23.6081L20.1896 31.3345ZM35.817 24.9339L40.3794 20.4401L35.8167 15.9464L31.2539 20.4405L35.817 24.9339ZM24.8146 20.4363H24.8165L20.1866 15.8763L15.5605 20.4452L20.1866 25.0011L24.8165 20.441L24.8188 20.4386L24.8146 20.4363ZM48.5702 3.55612H56.0536C57.9109 3.55612 59.3154 4.02673 60.2672 4.96791C61.0038 5.69684 61.3721 6.60026 61.3721 7.67801V7.72361C61.3721 8.179 61.3151 8.58147 61.2003 8.93053C61.093 9.26507 60.9386 9.58325 60.7417 9.87544C60.5558 10.1512 60.3322 10.4002 60.0772 10.6156C59.8274 10.8268 59.5545 11.0102 59.2636 11.1622C60.1973 11.5117 60.9322 11.9858 61.468 12.5855C62.0036 13.1855 62.2718 14.0168 62.2718 15.0794V15.1247C62.2718 15.8536 62.1298 16.4912 61.8458 17.038C61.5618 17.5844 61.1548 18.04 60.6251 18.4045C60.0953 18.7689 59.4582 19.0419 58.7136 19.2242C57.9691 19.4064 57.144 19.4973 56.2386 19.4973H48.5702V3.55612ZM55.3054 10.0009C56.0899 10.0009 56.7128 9.86833 57.1738 9.60245C57.6351 9.33677 57.8657 8.90768 57.8657 8.3158V8.2702C57.8657 7.73904 57.6656 7.33301 57.2659 7.05189C56.8659 6.77098 56.2893 6.63042 55.536 6.63042H52.0299V10.0009H55.3054ZM56.2512 16.4232C57.0355 16.4232 57.6502 16.2832 58.0965 16.0021C58.5425 15.7212 58.7656 15.2845 58.7656 14.6924V14.647C58.7656 14.1156 58.5578 13.6944 58.1427 13.3829C57.7275 13.0721 57.0586 12.9163 56.1358 12.9163H52.0299V16.4235L56.2512 16.4232ZM66.7285 3.55612H70.2811V19.4978H66.7285V3.55612ZM75.6616 3.55612H78.9366L86.5028 13.3717V3.55612H90.0089V19.4978H86.9874L79.1675 9.36358V19.4978H75.6616V3.55612ZM100.764 3.44239H104.039L110.959 19.4978H107.245L105.769 15.9225H98.9412L97.4651 19.4978H93.843L100.764 3.44239ZM104.5 12.8249L102.355 7.65546L100.21 12.8249H104.5ZM114.794 3.55612H118.07L125.635 13.3717V3.55612H129.142V19.4978H126.12L118.301 9.36358V19.4978H114.794V3.55612ZM141.926 19.7708C140.742 19.7708 139.642 19.5582 138.627 19.1333C137.613 18.7086 136.736 18.1276 135.998 17.391C135.259 16.6548 134.682 15.7855 134.267 14.7835C133.853 13.7813 133.645 12.711 133.645 11.5722V11.5269C133.645 10.3881 133.853 9.32174 134.267 8.32717C134.683 7.33281 135.259 6.4597 135.998 5.70825C136.735 4.95676 137.62 4.36436 138.651 3.93175C139.68 3.49914 140.819 3.28284 142.065 3.28284C142.818 3.28284 143.506 3.34385 144.128 3.46494C144.752 3.58675 145.316 3.75343 145.824 3.96593C146.32 4.1726 146.792 4.43223 147.232 4.74022C147.658 5.04134 148.059 5.37654 148.43 5.74243L146.17 8.3158C145.539 7.75428 144.898 7.31351 144.244 6.99492C143.59 6.67623 142.856 6.51668 142.041 6.51668C141.364 6.51668 140.738 6.64586 140.162 6.90392C139.595 7.15437 139.089 7.51896 138.673 7.97405C138.259 8.42954 137.936 8.95735 137.704 9.55685C137.474 10.1569 137.359 10.7982 137.359 11.4813V11.5266C137.359 12.2098 137.474 12.8553 137.704 13.4622C137.936 14.0698 138.253 14.601 138.662 15.0564C139.069 15.5118 139.561 15.8727 140.138 16.1384C140.715 16.4043 141.349 16.5368 142.041 16.5368C142.964 16.5368 143.743 16.3698 144.382 16.0358C145.02 15.7022 145.655 15.2465 146.285 14.6693L148.546 16.924C148.146 17.3501 147.714 17.746 147.254 18.1081C146.802 18.4614 146.31 18.7634 145.789 19.008C145.259 19.2583 144.677 19.4484 144.048 19.5772C143.417 19.706 142.71 19.7708 141.926 19.7708ZM152.727 3.55612H164.882V6.67623H156.233V9.91017H163.844V13.0301H156.233V16.378H164.999V19.4978H152.727V3.55612ZM54.1098 33.0974C54.5034 33.3358 54.7001 33.65 54.7001 34.0401C54.7001 34.4735 54.5303 34.831 54.1907 35.1128C53.8564 35.3945 53.3901 35.5353 52.7916 35.5353C52.2741 35.5353 51.778 35.4189 51.3036 35.1859C50.8292 34.9529 50.5219 34.7687 50.3817 34.6333C50.2469 34.4924 50.1418 34.3787 50.0663 34.292L48.5702 35.7873L48.7562 35.9904C48.864 36.1204 49.042 36.2803 49.29 36.4699C49.538 36.6595 49.8237 36.8464 50.1472 37.0306C50.476 37.2148 50.8912 37.3719 51.3926 37.5019C51.8994 37.6374 52.4223 37.7051 52.9614 37.7051C54.3308 37.7051 55.4037 37.3638 56.1801 36.6812C56.9618 35.9985 57.3527 35.1182 57.3527 34.0401C57.3527 33.2762 57.1559 32.645 56.7623 32.1466C56.3688 31.6482 55.8889 31.2906 55.3228 31.0739C54.7621 30.8572 54.2015 30.6676 53.6408 30.5051C53.0854 30.3425 52.611 30.1448 52.2174 29.9118C51.8293 29.6735 51.6352 29.3592 51.6352 28.9692C51.6352 28.6224 51.778 28.3272 52.0638 28.0834C52.3549 27.8396 52.7377 27.7177 53.2121 27.7177C53.6057 27.7177 53.9885 27.8098 54.3605 27.994C54.7325 28.1782 54.9751 28.3272 55.0883 28.4409C55.2069 28.5493 55.2986 28.6414 55.3633 28.7172L56.8513 27.1326L56.7057 26.9701C56.6141 26.8563 56.4604 26.7236 56.2448 26.5719C56.0345 26.4147 55.7865 26.2631 55.5008 26.1168C55.2204 25.9651 54.8592 25.8351 54.4171 25.7267C53.975 25.6129 53.5168 25.5561 53.0423 25.5561C51.84 25.5561 50.8615 25.8892 50.1067 26.5556C49.3573 27.222 48.9826 28.0265 48.9826 28.9692C48.9826 29.733 49.1794 30.3642 49.573 30.8626C49.9666 31.361 50.441 31.7186 50.9963 31.9353C51.557 32.152 52.1177 32.3416 52.6784 32.5042C53.2445 32.6613 53.7216 32.859 54.1098 33.0974ZM69.7986 25.7998L65.7874 30.8789L61.8167 25.7998H59.5766V37.4532H62.0674V29.7168L65.7874 34.4545L69.5155 29.6843V37.4532H71.9982V25.7998H69.7986ZM80.9424 32.5448L79.5353 28.7172L78.1201 32.5448H80.9424ZM81.7673 34.7064H77.2952L76.3005 37.4532H73.648L78.209 25.7998H80.8535L85.4145 37.4532H82.762L81.7673 34.7064ZM87.0724 25.7998V37.4532H89.5632V33.3737H91.7143L93.9463 37.4532H96.5989L94.1161 33.0405L94.3264 32.9267C94.472 32.8617 94.6472 32.7398 94.8521 32.5611C95.0569 32.3823 95.2564 32.1683 95.4505 31.9191C95.65 31.6699 95.8225 31.3421 95.9681 30.9358C96.1136 30.5294 96.1864 30.0933 96.1864 29.6274C96.1864 28.5547 95.809 27.65 95.0542 26.9132C94.3048 26.171 93.356 25.7998 92.2076 25.7998H87.0724ZM93.2508 28.4978C93.5528 28.7958 93.7037 29.1723 93.7037 29.6274C93.7037 30.05 93.5528 30.4075 93.2508 30.7001C92.9543 30.9872 92.5796 31.1308 92.1267 31.1308H89.5632V28.0509H92.1267C92.5796 28.0509 92.9543 28.1999 93.2508 28.4978ZM97.3348 25.7998H106.441V28.0509H103.133V37.4532H100.65V28.0509H97.3348V25.7998ZM119.032 25.7998C118.482 25.6373 117.903 25.5561 117.293 25.5561C115.525 25.5561 114.032 26.1493 112.813 27.3357C111.6 28.5222 110.994 29.9525 110.994 31.6265C110.994 33.3006 111.6 34.7335 112.813 35.9254C114.032 37.1119 115.525 37.7051 117.293 37.7051C117.897 37.7051 118.48 37.6211 119.04 37.4532C119.606 37.2852 120.062 37.101 120.407 36.9006C120.757 36.6947 121.084 36.459 121.385 36.1936C121.693 35.9227 121.89 35.7358 121.976 35.6329C122.067 35.5245 122.135 35.4378 122.178 35.3728L120.682 33.7882L120.553 33.9588C120.466 34.078 120.326 34.2189 120.132 34.3814C119.938 34.5439 119.714 34.7064 119.461 34.869C119.207 35.0261 118.887 35.1642 118.498 35.2834C118.116 35.3972 117.714 35.4541 117.293 35.4541C116.21 35.4541 115.304 35.0884 114.576 34.357C113.848 33.6256 113.484 32.7155 113.484 31.6265C113.484 30.5376 113.848 29.6274 114.576 28.896C115.304 28.1646 116.21 27.799 117.293 27.799C117.687 27.799 118.073 27.8613 118.45 27.9859C118.827 28.105 119.132 28.2378 119.364 28.3841C119.596 28.5249 119.809 28.6902 120.003 28.8798C120.202 29.0694 120.329 29.2048 120.383 29.2861C120.442 29.3619 120.488 29.4215 120.52 29.4649L122.097 27.8802L121.911 27.6364C121.793 27.4793 121.596 27.287 121.321 27.0594C121.051 26.8319 120.739 26.6044 120.383 26.3768C120.032 26.1493 119.582 25.957 119.032 25.7998ZM134.098 25.7998V37.4532H131.616V32.7073H126.65V37.4532H124.159V25.7998H126.65V30.4644H131.616V25.7998H134.098ZM141.643 28.7172L143.051 32.5448H140.228L141.643 28.7172ZM139.403 34.7064H143.875L144.87 37.4532H147.523L142.962 25.7998H140.317L135.756 37.4532H138.409L139.403 34.7064ZM149.18 37.4532V25.7998H151.671V37.4532H149.18ZM164.999 25.7998H162.516V33.2112L156.807 25.7998H154.647V37.4532H157.138V30.05L162.848 37.4532H164.999V25.7998Z" fill="#F4BB2B"/>
</svg>
