<svg width="191" height="32" viewBox="0 0 191 32" fill="none" xmlns="http://www.w3.org/2000/svg">
<path d="M15.6444 0.541077C7.00406 0.541077 0 7.50741 0 16.1013C0 24.6952 7.00406 31.6615 15.6444 31.6615C24.2849 31.6615 31.2946 24.7008 31.2946 16.1013C31.2946 7.50178 24.2906 0.541077 15.6444 0.541077ZM23.9055 19.4296C23.5091 20.5446 22.8467 21.4738 22.1049 22.2736C21.3632 23.0732 20.4686 23.6984 19.4211 24.1377C19.0247 24.3066 18.6171 24.4417 18.1925 24.5431V27.9559H16.5334V24.7853C16.3522 24.7965 16.171 24.8021 15.9899 24.8021C15.4576 24.8021 14.9367 24.7627 14.4328 24.6783V27.8995H12.7738V24.239C12.3095 24.07 11.8621 23.8617 11.4375 23.6251C10.7694 23.2478 10.1635 22.7973 9.60861 22.2736C9.05945 21.7498 8.58944 21.1641 8.19874 20.5221C7.80811 19.8801 7.50795 19.1874 7.29283 18.4497C7.07764 17.7119 6.97008 16.9404 6.97008 16.1351C6.97008 15.3298 7.07764 14.5582 7.29283 13.8204C7.50795 13.0827 7.81377 12.3901 8.19874 11.748C8.58944 11.106 9.05945 10.5203 9.60861 9.9966C10.1578 9.47283 10.7694 9.02229 11.4375 8.65061C11.8621 8.41412 12.3095 8.20572 12.7738 8.03679V4.50012H14.4328V7.60314C14.9367 7.51867 15.4576 7.47925 15.9899 7.47925C16.171 7.47925 16.3522 7.48488 16.5334 7.49615V4.50012H18.1925V7.72702C18.6511 7.83405 19.0984 7.97482 19.5287 8.14941C20.6328 8.5943 21.6237 9.25884 22.507 10.1374L21.0235 11.6185C19.9137 10.3401 18.351 9.47283 16.5787 9.25884H16.5334V9.25318C16.273 9.22503 16.0068 9.20819 15.7351 9.20819C11.8735 9.20819 8.74797 12.3224 8.74797 16.1576C8.74797 19.9927 11.8792 23.107 15.7351 23.107C19.2965 23.107 22.1446 20.4996 22.6598 17.0418H16.4541V15.493H24.1094H24.6699C24.6756 16.8672 24.3188 18.2695 23.9055 19.4296ZM15.8936 19.5986C17.3318 19.5986 18.5718 18.7538 19.1323 17.5317H20.7178C20.5648 18.0836 20.3271 18.5679 19.993 18.9903C19.6646 19.4127 19.2795 19.7731 18.8436 20.0603C18.4076 20.3476 17.9377 20.5671 17.4394 20.7192C16.9355 20.8657 16.4372 20.9445 15.9389 20.9445C15.4689 20.9445 15.016 20.8882 14.5857 20.7699C14.1553 20.6573 13.7477 20.4939 13.3739 20.2799C13.0003 20.0659 12.6549 19.8125 12.3435 19.5197C12.0321 19.2268 11.7659 18.8945 11.5507 18.5341C11.3299 18.1737 11.16 17.7851 11.0412 17.3684C10.9166 16.9516 10.8599 16.518 10.8599 16.0619C10.8599 15.6057 10.9223 15.1721 11.0412 14.7553C11.1658 14.3386 11.3356 13.95 11.5507 13.5895C11.7716 13.2292 12.0321 12.8969 12.3435 12.604C12.6549 12.3112 13.0003 12.0578 13.3739 11.8438C13.7477 11.6354 14.1553 11.472 14.5857 11.3538C15.016 11.2411 15.4689 11.1792 15.9389 11.1792C16.4372 11.1792 16.9355 11.2525 17.4394 11.3932C17.9433 11.5397 18.4076 11.7537 18.8436 12.0409C19.2795 12.3281 19.6589 12.7505 19.993 13.1785C20.3214 13.6064 20.6272 14.3611 20.78 14.9299L19.2909 14.9918C18.8379 13.5558 17.4847 12.5139 15.8879 12.5139C13.9175 12.5139 12.3208 14.1021 12.3208 16.0619C12.3321 18.0104 13.9288 19.5986 15.8936 19.5986Z" fill="url(#paint0_radial)"/>
<path d="M174.191 17.3965H148.508V19.7112H174.191V17.3965Z" fill="black"/>
<path d="M129.402 18.675C129.402 17.757 129.561 16.8953 129.884 16.09C130.207 15.2847 130.659 14.5808 131.254 13.9782C131.843 13.3756 132.557 12.9025 133.383 12.5533C134.21 12.2042 135.127 12.0296 136.14 12.0296C136.627 12.0296 137.092 12.0803 137.528 12.1761C137.963 12.2718 138.372 12.407 138.751 12.5702C139.13 12.7392 139.475 12.9307 139.798 13.156C140.115 13.3812 140.398 13.6121 140.642 13.8543L140.874 12.407H143.297V23.7434C143.297 24.6107 143.161 25.4385 142.895 26.2326C142.624 27.021 142.216 27.7137 141.667 28.3107C141.118 28.9077 140.421 29.3807 139.589 29.7355C138.751 30.0902 137.765 30.2648 136.621 30.2648C135.524 30.2648 134.572 30.1185 133.779 29.8256C132.987 29.5327 132.33 29.1554 131.809 28.6936C131.294 28.2318 130.897 27.7137 130.631 27.1449C130.365 26.5761 130.201 26.0073 130.144 25.4498L132.992 25.4385C133.083 25.7483 133.219 26.0411 133.406 26.3284C133.592 26.6099 133.836 26.8633 134.131 27.083C134.431 27.3026 134.781 27.4772 135.189 27.6067C135.597 27.7363 136.067 27.8038 136.604 27.8038C137.386 27.8038 138.02 27.6687 138.513 27.404C139 27.1393 139.385 26.8014 139.657 26.4072C139.929 26.0129 140.115 25.5906 140.212 25.1513C140.308 24.7121 140.359 24.3122 140.359 23.9518V23.3942C140.098 23.6364 139.81 23.8673 139.492 24.0757C139.175 24.284 138.83 24.4699 138.451 24.6276C138.077 24.7853 137.675 24.9092 137.239 25.0049C136.809 25.1007 136.35 25.1457 135.869 25.1457C134.929 25.1457 134.068 24.9824 133.275 24.6558C132.483 24.3291 131.803 23.873 131.226 23.2985C130.654 22.7241 130.201 22.0427 129.878 21.2486C129.561 20.4433 129.402 19.5929 129.402 18.675ZM132.386 18.6637C132.386 19.2663 132.494 19.8126 132.704 20.3194C132.913 20.8206 133.208 21.2543 133.57 21.6147C133.938 21.9751 134.363 22.2567 134.855 22.4537C135.342 22.6509 135.869 22.7523 136.435 22.7523C136.99 22.7523 137.511 22.6509 137.997 22.4537C138.485 22.2567 138.915 21.9751 139.277 21.6147C139.64 21.2543 139.929 20.8262 140.138 20.325C140.347 19.8238 140.455 19.2719 140.455 18.6637C140.455 18.0723 140.347 17.5261 140.138 17.0305C139.929 16.5293 139.634 16.1069 139.271 15.7465C138.904 15.3917 138.479 15.1101 137.986 14.9074C137.499 14.7046 136.973 14.6033 136.423 14.6033C135.863 14.6033 135.331 14.7046 134.838 14.9017C134.346 15.0989 133.916 15.3804 133.553 15.7408C133.191 16.1013 132.908 16.5293 132.698 17.0305C132.489 17.5261 132.386 18.0723 132.386 18.6637Z" fill="black"/>
<path d="M178.974 7.79468H181.948V18.6299L187.128 12.4182H190.611L186.2 17.6725L191.001 24.9317H187.445L184.059 19.6154L181.942 22.037V24.9261H178.969V7.79468H178.974Z" fill="black"/>
<path d="M157.187 20.2236C156.462 21.5752 154.95 22.5045 153.195 22.5045C150.738 22.5045 148.75 20.6798 148.75 18.4215C148.75 16.1632 150.743 14.3386 153.195 14.3386C155.647 14.3386 157.64 16.1632 157.64 18.4215C157.64 18.8157 157.578 19.1987 157.464 19.5648H160.007C160.069 19.2156 160.103 18.8551 160.103 18.4947C160.103 14.9243 156.949 12.0296 153.059 12.0296C149.169 12.0296 146.016 14.9243 146.016 18.4947C146.016 22.0652 149.169 24.9599 153.059 24.9599C156.298 24.9599 159.021 22.955 159.848 20.2293H157.187V20.2236Z" fill="black"/>
<path d="M173.601 20.3588C172.876 21.7104 171.364 22.6396 169.609 22.6396C167.152 22.6396 165.165 20.8149 165.165 18.5567C165.165 16.2984 167.157 14.4737 169.609 14.4737C172.067 14.4737 174.054 16.2984 174.054 18.5567C174.054 18.9508 173.992 19.3338 173.878 19.6999H176.421C176.483 19.3507 176.517 18.9903 176.517 18.6299C176.517 15.0595 173.363 12.1647 169.473 12.1647C165.583 12.1647 162.43 15.0595 162.43 18.6299C162.43 22.2003 165.583 25.095 169.473 25.095C172.712 25.095 175.435 23.0901 176.262 20.3644H173.601V20.3588Z" fill="black"/>
<path d="M53.3436 14.0007C53.1284 13.4657 52.8397 12.9869 52.4773 12.5646C52.1149 12.1422 51.7016 11.7875 51.2429 11.4946C50.7786 11.2017 50.2804 10.9821 49.7425 10.8301C49.2046 10.678 48.6554 10.6048 48.0891 10.6048C47.2794 10.6048 46.5151 10.7568 45.8017 11.061C45.0882 11.3651 44.471 11.7818 43.9388 12.3168C43.4066 12.8462 42.9876 13.4769 42.6761 14.2034C42.3647 14.9298 42.2118 15.7127 42.2118 16.5518C42.2118 17.3909 42.3647 18.1737 42.6761 18.8945C42.9876 19.621 43.4066 20.2461 43.9388 20.7755C44.471 21.3049 45.0882 21.7273 45.8017 22.0314C46.5151 22.3355 47.2738 22.4875 48.0891 22.4875C48.6497 22.4875 49.1989 22.4143 49.7368 22.2679C50.2691 22.1214 50.7673 21.9019 51.2316 21.6147C51.6959 21.3274 52.1036 20.9726 52.466 20.5502C52.8284 20.1279 53.1171 19.6549 53.3323 19.1142H56.4181C56.152 20.0716 55.733 20.922 55.1555 21.6653C54.5779 22.4031 53.9154 23.0281 53.1511 23.5294C52.3924 24.0306 51.5714 24.4135 50.6994 24.6726C49.8217 24.9316 48.9498 25.0612 48.0835 25.0612C47.2625 25.0612 46.4754 24.9598 45.7224 24.7627C44.9693 24.5656 44.2616 24.2784 43.6047 23.9067C42.9479 23.535 42.3477 23.0901 41.8098 22.5777C41.2662 22.0596 40.802 21.4907 40.4226 20.8543C40.0433 20.2236 39.7432 19.5422 39.528 18.8157C39.3128 18.0892 39.2109 17.329 39.2109 16.5349C39.2109 15.7408 39.3185 14.9862 39.528 14.2541C39.7432 13.5276 40.0376 12.8462 40.4226 12.2154C40.802 11.5847 41.2662 11.0102 41.8098 10.4921C42.3534 9.97402 42.9536 9.53479 43.6047 9.1687C44.2616 8.80269 44.9637 8.51548 45.7224 8.31832C46.4754 8.12124 47.2681 8.01987 48.0835 8.01987C48.9498 8.01987 49.8217 8.14373 50.6994 8.3972C51.577 8.65059 52.3924 9.02227 53.1511 9.52354C53.9098 10.0247 54.5779 10.6498 55.1555 11.3932C55.733 12.1422 56.152 13.0095 56.4181 14.0007H53.3436Z" fill="black"/>
<path d="M67.797 14.9355L66.3362 14.9468C65.7643 14.9468 65.2491 15.0312 64.7904 15.1946C64.3318 15.3579 63.9411 15.6001 63.6127 15.9267C63.2843 16.2534 63.0352 16.6532 62.8653 17.1375C62.6898 17.6219 62.6049 18.1794 62.6049 18.8101V24.7233H59.6719V12.3844H62.05L62.3161 13.8599C62.7351 13.4375 63.2616 13.0828 63.9015 12.8068C64.5413 12.5252 65.3 12.3844 66.172 12.3844H67.7857V14.9355H67.797Z" fill="black"/>
<path d="M82.1325 12.3844L74.8561 28.9583H71.6968L73.9166 24.2108L68.7695 12.3844H72.0137L75.3209 20.2293L75.468 20.8544L78.9895 12.3956L82.1325 12.3844Z" fill="black"/>
<path d="M98.3223 18.5454C98.3223 19.4465 98.1638 20.2968 97.8526 21.0965C97.5406 21.8906 97.0935 22.5833 96.5219 23.1802C95.944 23.7716 95.2535 24.239 94.4492 24.5825C93.6399 24.9261 92.7394 25.1007 91.7427 25.1007C90.8428 25.1007 90.0442 24.9542 89.3537 24.667C88.6626 24.3798 88.0684 24.0081 87.5696 23.5519V28.9471H84.6367V12.3844H87.0264L87.2527 13.8261C87.5017 13.584 87.7854 13.3586 88.0967 13.1391C88.4079 12.9194 88.7531 12.7279 89.1266 12.559C89.5009 12.3901 89.9027 12.2605 90.3328 12.1647C90.7636 12.069 91.2163 12.0183 91.6917 12.0183C92.6828 12.0183 93.5833 12.1873 94.3983 12.5308C95.2139 12.8687 95.91 13.3361 96.4936 13.9275C97.0709 14.5188 97.5236 15.2115 97.8469 16.0111C98.1638 16.794 98.3223 17.6443 98.3223 18.5454ZM95.395 18.5567C95.395 17.9654 95.2931 17.4191 95.0838 16.9235C94.8744 16.4279 94.5907 15.9999 94.2285 15.6451C93.8663 15.2903 93.4475 15.0144 92.9601 14.8172C92.4791 14.6202 91.9641 14.5245 91.4144 14.5245C90.8598 14.5245 90.3384 14.6202 89.8574 14.8172C89.3764 15.0144 88.9569 15.2903 88.5947 15.6451C88.2381 15.9999 87.9552 16.4223 87.7451 16.9178C87.5357 17.4078 87.4338 17.9541 87.4338 18.5567C87.4338 19.1424 87.5357 19.6774 87.7451 20.1673C87.9552 20.6573 88.2381 21.0797 88.6003 21.4344C88.9625 21.7836 89.382 22.0596 89.8687 22.2623C90.3498 22.4651 90.8711 22.5608 91.4257 22.5608C91.981 22.5608 92.5017 22.465 92.9827 22.2679C93.4645 22.0708 93.8833 21.7949 94.2455 21.4401C94.602 21.0853 94.8857 20.6629 95.0894 20.173C95.2931 19.6886 95.395 19.1536 95.395 18.5567Z" fill="black"/>
<path d="M102.945 8.88149L105.092 8.87024V12.3844H109.05V14.9017H105.08V19.9533C105.08 20.4488 105.137 20.86 105.256 21.181C105.375 21.5076 105.527 21.761 105.725 21.9469C105.923 22.1328 106.156 22.2679 106.417 22.3411C106.683 22.42 106.965 22.4537 107.26 22.4537H109.383L109.361 24.8528H106.982C106.315 24.8528 105.686 24.7853 105.103 24.6501C104.514 24.5149 104.004 24.2671 103.569 23.9011C103.132 23.535 102.792 23.0394 102.538 22.4087C102.283 21.7779 102.159 20.967 102.159 19.9758V14.9017H100.086V12.6491L102.091 12.0972L102.945 8.88149Z" fill="black"/>
<path d="M112.113 18.5004C112.113 17.5993 112.283 16.7489 112.617 15.9492C112.957 15.1552 113.427 14.4625 114.032 13.8655C114.639 13.2742 115.363 12.8068 116.196 12.4633C117.033 12.1197 117.945 11.9452 118.931 11.9452C119.927 11.9452 120.844 12.1197 121.688 12.4633C122.526 12.8068 123.251 13.2742 123.856 13.8655C124.463 14.4568 124.938 15.1495 125.277 15.9492C125.617 16.7433 125.793 17.5937 125.793 18.5004C125.793 19.4127 125.623 20.263 125.289 21.0571C124.949 21.8512 124.48 22.5383 123.868 23.1295C123.256 23.7208 122.531 24.1883 121.694 24.5262C120.855 24.8641 119.932 25.0387 118.925 25.0387C117.934 25.0387 117.028 24.8698 116.196 24.5262C115.363 24.1883 114.644 23.7208 114.044 23.1295C113.444 22.5383 112.968 21.8456 112.628 21.0458C112.283 20.2518 112.113 19.4014 112.113 18.5004ZM115.046 18.4891C115.046 19.0804 115.148 19.6211 115.352 20.1167C115.556 20.6066 115.839 21.0346 116.19 21.3894C116.541 21.7442 116.96 22.0258 117.43 22.2228C117.906 22.4256 118.415 22.5214 118.965 22.5214C119.513 22.5214 120.023 22.4256 120.499 22.2285C120.974 22.0314 121.387 21.7555 121.739 21.4006C122.09 21.0458 122.373 20.6179 122.577 20.1223C122.78 19.6267 122.882 19.0804 122.882 18.4891C122.882 17.9034 122.78 17.3684 122.577 16.8784C122.373 16.3885 122.09 15.9661 121.739 15.6113C121.382 15.2621 120.969 14.9862 120.493 14.7835C120.017 14.5863 119.508 14.485 118.97 14.485C118.421 14.485 117.911 14.5808 117.436 14.7778C116.96 14.9749 116.547 15.2509 116.196 15.6057C115.838 15.9605 115.561 16.3829 115.357 16.8784C115.148 17.3684 115.046 17.9034 115.046 18.4891Z" fill="black"/>
<defs>
<radialGradient id="paint0_radial" cx="0" cy="0" r="1" gradientUnits="userSpaceOnUse" gradientTransform="translate(9.50681 8.98706) scale(35.6507 35.4586)">
<stop stop-color="#F8B234"/>
<stop offset="1" stop-color="#FF7815"/>
</radialGradient>
</defs>
</svg>
