<svg id="Layer_1" data-name="Layer 1" xmlns="http://www.w3.org/2000/svg" viewBox="0 0 140.65 37.34"><defs><style>.cls-1{fill:#030303;}.cls-2{fill:#fff;}.cls-3{fill:#f79723;}.cls-4{font-size:16.27px;font-family:Montserrat-Regular, Montserrat;}.cls-5{letter-spacing:-0.01em;}.cls-6{letter-spacing:0em;}.cls-7{letter-spacing:-0.02em;}</style></defs><title>cryptokek-logo</title><path class="cls-1" d="M42.05,9.37V30.6a.78.78,0,0,1-.79.78H37.07a.78.78,0,0,1-.78-.78V9.89A1.29,1.29,0,0,1,37.58,8.6h3.69A.79.79,0,0,1,42.05,9.37Z" transform="translate(-12.33 -1.55)"/><path class="cls-1" d="M25.56,17l-3.75-3.92A4.87,4.87,0,0,1,22,6.21h0l2.45-2.34a4.88,4.88,0,0,1,6.9.16h0L34.7,7.57a5.39,5.39,0,0,1-.17,7.62l-2.08,2A4.87,4.87,0,0,1,25.56,17Z" transform="translate(-12.33 -1.55)"/><path class="cls-1" d="M32,36.35l-7.58.12a1.61,1.61,0,0,1-1.63-1.58v-.46a1.62,1.62,0,0,1,1.58-1.63l7.12-.11a2.07,2.07,0,0,1,2.1,2h0A1.62,1.62,0,0,1,32,36.35Z" transform="translate(-12.33 -1.55)"/><path class="cls-1" d="M19.78,9.45V31.32a.29.29,0,0,1-.29.29H14.6a.29.29,0,0,1-.29-.29h0V10a.8.8,0,0,1,.8-.8h4.37a.29.29,0,0,1,.29.29h0Z" transform="translate(-12.33 -1.55)"/><path class="cls-1" d="M37.29,7.06l.89,25.81a.29.29,0,0,1-.28.3h0l-19,.66a.3.3,0,0,1-.3-.28h0l-.87-25.3a.8.8,0,0,1,.77-.83L37,6.78a.3.3,0,0,1,.3.28h0Z" transform="translate(-12.33 -1.55)"/><path class="cls-1" d="M33.06,35l-9,.14a1.59,1.59,0,0,1-1.63-1.57l-.11-6.46a1.61,1.61,0,0,1,1.58-1.63h0l8.59-.14a2.06,2.06,0,0,1,2.09,2l.1,6A1.61,1.61,0,0,1,33.05,35Z" transform="translate(-12.33 -1.55)"/><path class="cls-2" d="M25.16,20.28l-7.88-4.23a1,1,0,0,0-1.49.89V27.23a1,1,0,0,0,.53.89l7.88,4.24a1.14,1.14,0,0,0,.48.12,1,1,0,0,0,.52-.15,1,1,0,0,0,.49-.86V21.17A1,1,0,0,0,25.16,20.28Zm-1.94,1.26L21.31,23l-1.73-.93v2.26L17.81,25.7V18.63Zm-5,5.33,1.91-1.46,1.73.93V24.08l1.78-1.37v7.08Z" transform="translate(-12.33 -1.55)"/><path class="cls-2" d="M34,9.32l-5.86,3.15-3.62-1.94L30.4,7.38l-1.6-.86a1.34,1.34,0,0,0-1.29,0L21,10a.55.55,0,0,0-.22.75A.47.47,0,0,0,21,11l6.55,3.53a1.4,1.4,0,0,0,1.29,0L35.34,11a.55.55,0,0,0,.23-.74.51.51,0,0,0-.23-.23Z" transform="translate(-12.33 -1.55)"/><path class="cls-2" d="M40,16.07a1,1,0,0,0-1,0l-7.88,4.23a1,1,0,0,0-.53.89v10.3a1,1,0,0,0,1,1,1.09,1.09,0,0,0,.47-.12L40,28.12a1,1,0,0,0,.53-.89V16.94A1,1,0,0,0,40,16.07Zm-1.52,9.62-1.78-1.36V22.06L35,23l-1.91-1.46,5.42-2.91Zm-5.87-3,1.78,1.36v2.27l1.73-.93,1.9,1.46-5.41,2.91Z" transform="translate(-12.33 -1.55)"/><path class="cls-3" d="M44,10.26l0-.08a.77.77,0,0,0-.07-.16s0-.06-.06-.09l-.1-.12-.09-.07-.1-.08h0l0,0-14.84-8a1,1,0,0,0-.95,0l-14.84,8v0h0a.39.39,0,0,0-.1.08l-.09.07-.1.12-.06.09a1,1,0,0,0-.07.15s0,.06,0,.09a1.09,1.09,0,0,0,0,.26V29.91a1,1,0,0,0,.53.89l14.84,8a.59.59,0,0,0,.14.06l.08,0a1.07,1.07,0,0,0,.25,0,1.09,1.09,0,0,0,.26,0l.08,0,.14-.06,14.82-8a1,1,0,0,0,.53-.89V10.53A.84.84,0,0,0,44,10.26ZM28.16,3.73l12.64,6.8-.53.29L28.16,17.33,16,10.82l-.53-.29ZM14.34,12.22,27.16,19.1V36.19L14.34,29.3Zm14.84,24V19.1L42,12.22V29.3Z" transform="translate(-12.33 -1.55)"/><text class="cls-4" transform="translate(39.02 24.96)">C<tspan class="cls-5" x="11.97" y="0">R</tspan><tspan class="cls-6" x="23.61" y="0">YP</tspan><tspan class="cls-7" x="44.89" y="0">T</tspan><tspan x="54.41" y="0">OKEK</tspan></text></svg>