<svg xmlns="http://www.w3.org/2000/svg" viewBox="0 0 910 339.03">
  <defs>
    <style>
      .cls-1 {
        fill: #008de4;
      }
    </style>
  </defs>
  <g id="Layer_2" data-name="Layer 2">
    <g id="Layer_1-2" data-name="Layer 1">
      <path class="cls-1"
            d="M193.7,0H86L77.09,49.88l97.17.12c47.86,0,62,17.37,61.6,46.21-.2,14.78-6.61,39.75-9.38,47.85-7.37,21.58-22.52,46.21-79.32,46.12l-94.45,0L43.77,240H151.21c37.89,0,54-4.41,71.08-12.3,37.83-17.47,60.35-54.81,69.36-103.55C305.09,51.62,288.36,0,193.7,0Z"/>
      <path class="cls-1"
            d="M526.72,240.15l7.59-43.37h92c7.23,0,12.29-4.34,13.37-11.56,1.45-7.23-2.16-11.57-9.39-11.57h-44c-34.7,0-51.32-20.24-45.18-54.94s30-54.93,64.69-54.93h99.94l-8,43.37H609.72c-7.24,0-12.29,4.34-13.38,11.56-1.45,7.24,2.17,11.57,9.4,11.57h44c34.69,0,51.32,20.24,45.18,54.94s-29.64,54.93-64.34,54.93Z"/>
      <path class="cls-1"
            d="M386.63,240.15c-57.11,0-82.78-31.09-72.66-88.2,9.77-57.11,46.64-88.19,103.74-88.19H518.92L487.83,240.15Zm65.78-133h-26c-31.08,0-49.47,13.74-54.86,44.82-5.78,31.09,5.78,44.82,36.87,44.82h28.48Z"/>
      <path class="cls-1"
            d="M831.16,240.15l18.08-102.66c3.25-20.24-5-28.91-25.2-28.91H795.25L772.12,240.15H713.54L755.89,0h58.58L803.2,63.79h43.87c51.33,0,69.76,22.41,60.72,73.73L889.72,240.18Z"/>
      <path class="cls-1"
            d="M39.56,95C11.35,95,7.31,113.34,4.64,124.45,1.15,139,0,144.89,0,144.89H110.25c28.21,0,32.25-18.39,34.92-29.49,3.49-14.55,4.64-20.44,4.64-20.44Z"/>
      <path class="cls-1"
            d="M710.49,278.72,698.43,339h-7.06l-27-46.44L655.18,339h-8.62l12.06-60.31h7.07l27,46.44,9.22-46.44Z"/>
      <path class="cls-1"
            d="M735.65,286.22,732,304.74h30.33l-1.47,7.33H730.48l-3.87,19.47h35.24L760.38,339H716.52l12.07-60.31h42.56l-1.46,7.5Z"/>
      <path class="cls-1"
            d="M804.41,308.27,821.3,339h-9.22l-13.36-24.64L776.06,339H765.72L795,307.67l-15.86-28.95h9.05l12.49,23,21.46-23H832Z"/>
      <path class="cls-1" d="M851.45,286.22H830.86l1.47-7.5h49.88l-1.55,7.5H860.07L849.47,339h-8.53Z"/>
    </g>
  </g>
</svg>
