<svg width="135" height="40" viewBox="0 0 135 40" fill="none" xmlns="http://www.w3.org/2000/svg">
<path d="M74.8036 11.0572H78.5677V31.0072H75.0602V17.3229L69.2857 27.1347H67.5106L61.7361 17.2794V31.0072H58.25V11.0572H61.9713L68.3661 21.9568L74.8036 11.0572ZM121.47 29.0492C119.973 27.5046 119.139 25.3943 119.203 23.2187C119.139 21.0213 119.973 18.911 121.47 17.3881C122.989 15.8217 125.042 14.9733 127.181 15.0168C129.982 14.9515 132.591 16.4962 133.939 19.0416L131.137 20.7168C130.41 19.1721 128.849 18.1931 127.159 18.2801C125.897 18.2366 124.678 18.7587 123.78 19.6725C122.903 20.608 122.433 21.8698 122.454 23.1534C122.433 24.4588 122.903 25.7206 123.78 26.6561C124.678 27.5698 125.897 28.0702 127.159 28.0485C128.849 28.092 130.41 27.1565 131.18 25.6118L134.003 27.2652C132.634 29.8107 130.025 31.3771 127.202 31.3336C125.063 31.3771 123.01 30.5721 121.47 29.0492ZM112.98 31.029V15.4084H116.252V31.0072L112.98 31.029ZM113.129 12.4713C112.723 12.0797 112.509 11.5358 112.509 10.9702C112.509 10.4045 112.723 9.86065 113.129 9.46905C113.514 9.05569 114.049 8.81638 114.605 8.81638C115.161 8.81638 115.696 9.05569 116.081 9.46905C116.893 10.3175 116.893 11.6664 116.059 12.5149C115.268 13.3198 113.942 13.3198 113.129 12.4713ZM110.007 18.65H106.243V26.1339C106.243 28.1137 107.504 28.092 110.007 27.9614V31.0072C105.002 31.6381 102.992 30.224 102.992 26.1339V18.65H100.19V15.4084H102.992V11.0572H106.264V15.4084H110.028L110.007 18.65ZM89.3254 28.2007C90.6086 28.2225 91.8277 27.7221 92.7474 26.8084C93.667 25.8511 94.1589 24.5458 94.1161 23.2187C94.1375 21.8916 93.6456 20.608 92.7474 19.6725C90.8439 17.758 87.8069 17.758 85.9035 19.6725C84.9838 20.608 84.4919 21.8916 84.5347 23.2187C84.4919 24.5675 84.9838 25.8511 85.9035 26.8084C86.8017 27.7221 87.9994 28.2225 89.2613 28.2007H89.3254ZM94.052 15.4084H97.3242V31.0072H94.052V28.7664C92.8329 30.5069 90.8439 31.5076 88.7694 31.4206C86.7376 31.4423 84.8127 30.5939 83.444 29.0492C81.9897 27.4828 81.1983 25.3725 81.2411 23.2187C81.1769 21.0431 81.9683 18.9546 83.4226 17.3881C84.7914 15.8435 86.7376 14.995 88.7694 15.0385C90.8653 14.9297 92.8543 15.9087 94.0733 17.6492L94.052 15.4084Z" fill="#0A1647"/>
<path d="M24.9141 19.4549V28.8752L32.9984 24.1759V14.7339L24.9141 19.4549Z" fill="#2BBDF7"/>
<path d="M41.1135 10.0131L33.0078 5.29211V14.7341V34.7059L41.1135 39.4269V10.0131Z" fill="#2891F9"/>
<path d="M41.1133 10.0131V39.3398L49.219 34.6189V5.29211L41.1133 10.0131Z" fill="#2BBDF7"/>
<path d="M41.1135 0.570984L33.0078 5.29198L41.1135 10.013L49.2192 5.29198L41.1135 0.570984Z" fill="#2B6DEF"/>
<path d="M24.9207 19.4551L0.625 5.29211V34.6189L8.7307 39.3398V19.4551L16.815 24.1761L24.9207 28.8753V19.4551Z" fill="#2891F9"/>
<path d="M8.7307 0.570984L0.625 5.29198L24.9207 19.455L28.5779 17.3229L33.005 14.734L8.7307 0.570984Z" fill="#2B6DEF"/>
<path d="M8.73047 19.4549V39.3397L16.8148 34.6187V24.1759L8.73047 19.4549Z" fill="#2BBDF7"/>
</svg>
