<svg width="153" height="38" viewBox="0 0 153 38" fill="none" xmlns="http://www.w3.org/2000/svg">
<path d="M61.9914 23.2819L59.2234 12.2807V24.2006C59.2234 24.8603 59.0742 25.355 58.7758 25.6848C58.4853 26.0146 58.0966 26.1795 57.6097 26.1795C57.1386 26.1795 56.7538 26.0185 56.4554 25.6965C56.157 25.3667 56.0078 24.8681 56.0078 24.2006V10.5374C56.0078 9.78358 56.2041 9.2771 56.5967 9.01797C56.9894 8.75099 57.5194 8.61749 58.1869 8.61749H59.2705C59.9223 8.61749 60.3934 8.67639 60.6839 8.79417C60.9823 8.91196 61.2022 9.12398 61.3435 9.43022C61.4849 9.73647 61.6459 10.2351 61.8265 10.9261L64.3353 20.3844L66.8442 10.9261C67.0248 10.2351 67.1858 9.73647 67.3271 9.43022C67.4684 9.12398 67.6844 8.91196 67.9749 8.79417C68.2733 8.67639 68.7484 8.61749 69.4001 8.61749H70.4838C71.1512 8.61749 71.6813 8.75099 72.0739 9.01797C72.4665 9.2771 72.6628 9.78358 72.6628 10.5374V24.2006C72.6628 24.8603 72.5136 25.355 72.2152 25.6848C71.9247 26.0146 71.5321 26.1795 71.0374 26.1795C70.5741 26.1795 70.1932 26.0146 69.8948 25.6848C69.5964 25.355 69.4473 24.8603 69.4473 24.2006V12.2807L66.6793 23.2819C66.4987 23.9965 66.3495 24.5226 66.2317 24.8603C66.1217 25.1901 65.9137 25.4924 65.6074 25.7672C65.3012 26.042 64.8771 26.1795 64.3353 26.1795C63.927 26.1795 63.5815 26.0892 63.2988 25.9086C63.0161 25.7358 62.7962 25.512 62.6392 25.2372C62.4821 24.9623 62.3565 24.66 62.2623 24.3302C62.1759 23.9926 62.0856 23.6431 61.9914 23.2819Z" fill="#4C525D"/>
<path d="M80.1069 24.0475V18.5705L75.8902 12.0333C75.5211 11.4444 75.2581 10.985 75.101 10.6552C74.9518 10.3254 74.8772 10.0388 74.8772 9.79536C74.8772 9.39489 75.0303 9.04938 75.3366 8.75884C75.6507 8.4683 76.0354 8.32303 76.4909 8.32303C76.9699 8.32303 77.3311 8.46045 77.5745 8.73528C77.8258 9.00226 78.1988 9.54016 78.6935 10.349L81.9208 15.5905L85.1835 10.349C85.3798 10.027 85.5447 9.7561 85.6782 9.53623C85.8117 9.31636 85.957 9.1122 86.114 8.92374C86.2789 8.72743 86.4595 8.57823 86.6559 8.47615C86.8522 8.37407 87.0917 8.32303 87.3744 8.32303C87.8141 8.32303 88.1792 8.4683 88.4698 8.75884C88.7682 9.04153 88.9174 9.37133 88.9174 9.74825C88.9174 10.0545 88.8428 10.3607 88.6936 10.667C88.5444 10.9732 88.2892 11.3973 87.928 11.9391L83.6052 18.5705V24.0475C83.6052 24.7621 83.4403 25.2961 83.1105 25.6494C82.7807 26.0028 82.3606 26.1795 81.8502 26.1795C81.3319 26.1795 80.9118 26.0067 80.5899 25.6612C80.2679 25.3078 80.1069 24.7699 80.1069 24.0475Z" fill="#4C525D"/>
<path d="M103.558 23.1641L100.767 12.8107L97.9398 23.1641C97.7199 23.9494 97.5433 24.5147 97.4098 24.8603C97.2841 25.1979 97.0603 25.5042 96.7384 25.779C96.4164 26.046 95.9885 26.1795 95.4545 26.1795C95.0226 26.1795 94.6653 26.097 94.3827 25.9321C94.1078 25.7751 93.884 25.5513 93.7113 25.2607C93.5385 24.9623 93.3972 24.6129 93.2872 24.2124C93.1773 23.8041 93.0791 23.4272 92.9928 23.0817L90.1188 11.4561C89.946 10.7808 89.8597 10.2665 89.8597 9.91315C89.8597 9.46556 90.0167 9.08864 90.3308 8.7824C90.6449 8.47615 91.0336 8.32303 91.4969 8.32303C92.1329 8.32303 92.5609 8.52719 92.7808 8.93552C93.0006 9.34384 93.193 9.9367 93.3579 10.7141L95.6194 20.7966L98.1518 11.3619C98.3403 10.6395 98.5091 10.0898 98.6583 9.71291C98.8075 9.33599 99.0509 9.01012 99.3886 8.73528C99.7262 8.46045 100.186 8.32303 100.767 8.32303C101.356 8.32303 101.811 8.4683 102.133 8.75884C102.463 9.04153 102.691 9.3517 102.816 9.68935C102.942 10.027 103.111 10.5845 103.323 11.3619L105.879 20.7966L108.14 10.7141C108.25 10.188 108.352 9.77573 108.446 9.47734C108.548 9.17894 108.717 8.91196 108.953 8.67639C109.196 8.44082 109.546 8.32303 110.001 8.32303C110.457 8.32303 110.841 8.47615 111.155 8.7824C111.477 9.08079 111.638 9.45771 111.638 9.91315C111.638 10.2351 111.552 10.7494 111.379 11.4561L108.505 23.0817C108.309 23.8669 108.144 24.4441 108.011 24.8131C107.885 25.1743 107.665 25.4924 107.351 25.7672C107.045 26.042 106.609 26.1795 106.044 26.1795C105.51 26.1795 105.082 26.046 104.76 25.779C104.438 25.512 104.214 25.2136 104.088 24.8838C103.963 24.5462 103.786 23.9729 103.558 23.1641Z" fill="#4C525D"/>
<path d="M114.112 24.0475V10.4432C114.112 9.73647 114.273 9.20643 114.595 8.85307C114.917 8.49971 115.333 8.32303 115.843 8.32303C116.369 8.32303 116.793 8.49971 117.115 8.85307C117.445 9.19857 117.61 9.72861 117.61 10.4432V24.0475C117.61 24.7621 117.445 25.2961 117.115 25.6494C116.793 26.0028 116.369 26.1795 115.843 26.1795C115.341 26.1795 114.925 26.0028 114.595 25.6494C114.273 25.2882 114.112 24.7542 114.112 24.0475Z" fill="#4C525D"/>
<path d="M134.654 20.7024C134.654 21.7468 134.383 22.6851 133.841 23.5175C133.307 24.3498 132.522 25.0016 131.485 25.4727C130.449 25.9439 129.22 26.1795 127.799 26.1795C126.095 26.1795 124.689 25.8575 123.582 25.2136C122.797 24.7503 122.157 24.1339 121.662 23.3644C121.175 22.587 120.932 21.8331 120.932 21.1029C120.932 20.6788 121.077 20.3176 121.368 20.0192C121.666 19.713 122.043 19.5599 122.498 19.5599C122.867 19.5599 123.178 19.6776 123.429 19.9132C123.688 20.1488 123.908 20.4982 124.088 20.9615C124.308 21.5112 124.544 21.9706 124.795 22.3396C125.054 22.7087 125.415 23.0149 125.879 23.2584C126.342 23.4939 126.951 23.6117 127.704 23.6117C128.741 23.6117 129.581 23.3722 130.225 22.8932C130.877 22.4064 131.203 21.8017 131.203 21.0793C131.203 20.5061 131.026 20.0428 130.673 19.6894C130.327 19.3282 129.876 19.0534 129.318 18.8649C128.768 18.6765 128.03 18.4762 127.104 18.2642C125.863 17.9737 124.823 17.636 123.982 17.2512C123.15 16.8586 122.487 16.3286 121.992 15.6611C121.505 14.9858 121.262 14.1495 121.262 13.1523C121.262 12.2021 121.521 11.358 122.039 10.6199C122.557 9.88174 123.307 9.31636 124.289 8.92374C125.27 8.52327 126.425 8.32303 127.752 8.32303C128.812 8.32303 129.726 8.45652 130.496 8.7235C131.273 8.98263 131.917 9.33207 132.428 9.7718C132.938 10.2037 133.311 10.6591 133.547 11.1381C133.782 11.6171 133.9 12.0843 133.9 12.5398C133.9 12.956 133.751 13.3329 133.452 13.6705C133.162 14.0003 132.797 14.1652 132.357 14.1652C131.957 14.1652 131.65 14.0671 131.438 13.8708C131.234 13.6666 131.01 13.3368 130.767 12.8814C130.453 12.2296 130.076 11.7231 129.636 11.3619C129.196 10.9929 128.49 10.8083 127.516 10.8083C126.613 10.8083 125.883 11.0086 125.325 11.409C124.775 11.8017 124.501 12.2767 124.501 12.8343C124.501 13.1798 124.595 13.4782 124.783 13.7294C124.972 13.9807 125.231 14.1966 125.561 14.3773C125.891 14.5579 126.224 14.6992 126.562 14.8013C126.9 14.9034 127.457 15.0526 128.234 15.2489C129.208 15.4766 130.088 15.7279 130.873 16.0027C131.666 16.2775 132.337 16.6113 132.887 17.0039C133.445 17.3965 133.876 17.8951 134.183 18.4998C134.497 19.0966 134.654 19.8308 134.654 20.7024Z" fill="#4C525D"/>
<path d="M141.144 10.4432V15.3902H148.694V10.4432C148.694 9.73647 148.851 9.20643 149.165 8.85307C149.487 8.49971 149.907 8.32303 150.425 8.32303C150.952 8.32303 151.376 8.49971 151.698 8.85307C152.027 9.19857 152.192 9.72861 152.192 10.4432V24.0475C152.192 24.7621 152.027 25.2961 151.698 25.6494C151.368 26.0028 150.944 26.1795 150.425 26.1795C149.899 26.1795 149.479 26.0028 149.165 25.6494C148.851 25.2882 148.694 24.7542 148.694 24.0475V18.2407H141.144V24.0475C141.144 24.7621 140.979 25.2961 140.649 25.6494C140.319 26.0028 139.895 26.1795 139.377 26.1795C138.851 26.1795 138.431 26.0028 138.117 25.6494C137.803 25.2882 137.646 24.7542 137.646 24.0475V10.4432C137.646 9.73647 137.799 9.20643 138.105 8.85307C138.419 8.49971 138.843 8.32303 139.377 8.32303C139.903 8.32303 140.327 8.49971 140.649 8.85307C140.979 9.19857 141.144 9.72861 141.144 10.4432Z" fill="#4C525D"/>
<path d="M7.95419 14.0353V24.4616C7.95419 27.6697 9.94273 29.6747 11.5336 31.6798C13.1244 33.6848 13.1244 34.8879 11.9313 36.4919C10.7381 38.0959 7.95419 37.2939 6.36335 36.0909C4.77251 34.8879 1.98855 31.6798 1.19313 28.4717C0.397709 25.2636 0 21.2535 0 14.0353C0 6.81717 5.96564 2.40607 11.5336 2.40607C15.9879 2.40607 18.6923 4.54479 19.4878 5.61414C19.7529 4.54479 21.6354 2.40607 27.0442 2.40607C33.8053 2.40607 38.1801 9.22323 38.1801 12.8323C38.1801 16.4414 38.5778 20.4515 38.5778 23.2586C38.5778 26.0656 36.5893 27.2687 34.9984 27.2687C33.4076 27.2687 31.0213 26.4667 31.0213 23.2586V14.8374C31.0213 11.2283 29.4305 10.0253 27.0442 10.0253C24.658 10.0253 23.4648 12.4313 23.4648 14.8374V23.2586C23.4648 25.6646 21.4763 27.2687 19.4878 27.2687C17.4992 27.2687 15.5107 25.6646 15.5107 23.2586V14.8374C15.5107 11.2283 13.9198 10.0253 11.5336 10.0253C9.14731 10.0253 7.95419 12.4313 7.95419 14.0353Z" fill="#4C525D"/>
<path d="M43.7551 5.61414C46.1414 9.62423 46.1414 13.6343 46.1414 18.0454V25.2636C46.1414 31.6798 40.1754 35.2889 35.0052 35.2889C30.869 35.2889 28.2441 32.8828 27.4487 31.6798C26.6533 32.8828 23.9489 35.2889 19.4945 35.2889C13.9266 35.2889 10.7449 30.8777 9.55177 29.2737C8.35865 27.6697 7.96094 25.2636 7.96094 22.4565V14.4363C7.96094 12.4313 9.15407 10.0252 11.5403 10.0252C13.9266 10.0252 15.5174 11.2283 15.5174 14.4363V22.4565C15.5174 24.4616 16.3128 27.2687 19.4945 27.2687C22.6762 27.2687 23.4716 24.4616 23.4716 22.4565V14.4363C23.4716 12.4313 24.6647 10.0252 27.4487 10.0252C30.2327 10.0252 31.0281 12.4313 31.0281 14.4363V22.4565C31.0281 24.8626 31.4258 27.2687 35.0052 27.2687C38.5846 27.2687 38.5849 24.0606 38.5849 22.4565C38.5849 20.8525 38.1868 15.6394 38.1868 12.4313C38.1868 9.22322 35.4032 6.81716 34.2101 5.21313C33.017 3.60909 33.4147 2.00505 34.6078 0.802019C35.8009 -0.40101 37.7895 0 38.5849 0.40101C39.3803 0.802019 41.3689 1.60404 43.7551 5.61414Z" fill="#FFD800"/>
</svg>
