<svg width="135" height="45" viewBox="0 0 135 45" fill="none" xmlns="http://www.w3.org/2000/svg">
<path d="M53.7266 8.96346H59.1384V30.6109H64.5503V3.55161H59.1384C56.1619 3.55161 53.7266 5.98694 53.7266 8.96346Z" fill="black"/>
<path d="M69.9609 30.6109H75.3728V19.7872C75.3728 16.8107 72.9375 14.3754 69.9609 14.3754V30.6109Z" fill="black"/>
<path d="M80.7891 14.3754V30.6109H86.2009V19.7872H91.6128V25.1991C91.6128 28.1756 94.0481 30.6109 97.0246 30.6109V19.7872C97.0246 16.8107 94.5893 14.3754 91.6128 14.3754H80.7891Z" fill="black"/>
<path d="M129.493 14.3753H124.081V8.96346C124.081 5.98694 121.646 3.55161 118.669 3.55161V25.199H107.845V19.7872H113.257V14.3753H107.845C104.869 14.3753 102.434 16.8106 102.434 19.7872V25.199C102.434 28.1755 104.869 30.6109 107.845 30.6109H124.081V19.7872H129.493V25.199C129.493 28.1755 131.928 30.6109 134.905 30.6109V19.7872C134.905 16.8106 132.469 14.3753 129.493 14.3753Z" fill="black"/>
<path d="M69.9609 8.96346H75.3728C75.3728 5.98694 72.9375 3.55161 69.9609 3.55161V8.96346Z" fill="black"/>
<path d="M61.3873 39.7533H59.1445V36.0804H61.3333V36.6839H59.8093V37.5968H61.1712V38.2002H59.8093V39.1499H61.3873V39.7533Z" fill="#2F7AEA"/>
<path d="M71.2117 36.0804H71.99L70.7146 37.8802L72.0387 39.7533H71.2604L70.2823 38.3734L69.3095 39.7533H68.5312L69.8553 37.8802L68.5907 36.0804H69.3689L70.2984 37.4079L71.2117 36.0804Z" fill="#2F7AEA"/>
<path d="M81.8021 38.9139L82.056 39.3965C81.9372 39.519 81.7661 39.6187 81.5426 39.6956C81.3228 39.7725 81.0905 39.8111 80.8455 39.8111C80.2691 39.8111 79.7989 39.6379 79.435 39.2916C79.0747 38.9453 78.8945 38.4871 78.8945 37.9169C78.8945 37.3712 79.0656 36.9182 79.4079 36.558C79.7466 36.2012 80.2203 36.0228 80.8293 36.0228C81.3121 36.0228 81.6958 36.147 81.9804 36.3953L81.6832 36.8728C81.4274 36.7084 81.1427 36.6262 80.8293 36.6262C80.469 36.6262 80.1735 36.7434 79.943 36.9777C79.7124 37.2121 79.5971 37.5252 79.5971 37.9169C79.5971 38.3017 79.7178 38.613 79.9592 38.8509C80.2042 39.0888 80.5194 39.2076 80.9049 39.2076C81.2364 39.2076 81.5354 39.1097 81.8021 38.9139Z" fill="#2F7AEA"/>
<path d="M92.518 39.7533H91.8587V38.1845H90.1296V39.7533H89.4648V36.0804H90.1296V37.5811H91.8587V36.0804H92.518V39.7533Z" fill="#2F7AEA"/>
<path d="M100.506 39.7533H99.8359L101.435 36.07H102.019L103.619 39.7533H102.911L102.517 38.8141H100.9L100.506 39.7533ZM102.262 38.2107L101.711 36.9042L101.155 38.2107H102.262Z" fill="#2F7AEA"/>
<path d="M114.177 36.0804V39.7533H113.647L111.567 37.2085V39.7533H110.945V36.0804H111.475L113.556 38.6357V36.0804H114.177Z" fill="#2F7AEA"/>
<path d="M124.466 38.3786H123.553V37.7752H125.088V39.2968C124.926 39.4542 124.709 39.5802 124.439 39.6747C124.169 39.7656 123.914 39.8111 123.672 39.8111C123.059 39.8111 122.577 39.6397 122.223 39.2968C121.874 38.9575 121.699 38.4976 121.699 37.9169C121.699 37.3783 121.872 36.9287 122.218 36.5685C122.564 36.2047 123.02 36.0228 123.585 36.0228C124.068 36.0228 124.474 36.147 124.801 36.3953L124.521 36.9095C124.427 36.822 124.302 36.7538 124.147 36.7048C123.992 36.6524 123.832 36.6262 123.666 36.6262C123.288 36.6262 122.984 36.7416 122.753 36.9725C122.519 37.1998 122.402 37.5146 122.402 37.9169C122.402 38.3052 122.519 38.6183 122.753 38.8561C122.984 39.0905 123.294 39.2076 123.683 39.2076C123.82 39.2076 123.968 39.1832 124.126 39.1342C124.284 39.0817 124.398 39.0223 124.466 38.9558V38.3786Z" fill="#2F7AEA"/>
<path d="M134.907 39.7533H132.664V36.0804H134.853V36.6839H133.329V37.5968H134.691V38.2002H133.329V39.1499H134.907V39.7533Z" fill="#2F7AEA"/>
<path d="M12.1684 24.7957L13.4312 15.2856L2.46094 7.66946L12.4841 11.0631L14.8518 7.43269L23.4939 2.06595L42.5537 12.5627L43.5403 28.584L35.0561 40.383L28.3476 41.409L31.8202 35.0557V28.9392L29.2947 24.1643L26.7297 22.4675L22.7836 26.532V30.8334L19.7056 33.714L15.7989 34.1875L14.0626 35.1741L11.2214 34.2664L10.0375 30.0046L12.1684 27.0055V24.7957Z" fill="white"/>
<path d="M29.6927 7.59053C27.6013 7.1565 25.3125 7.27484 25.3125 7.27484C25.3125 7.27484 24.5627 10.7474 19.9062 11.6551C19.9458 11.6551 26.0622 13.7465 29.6927 7.59053Z" fill="#94A6C3"/>
<path d="M31.5849 39.0809C34.1104 37.1078 36.0045 34.3849 36.8727 31.3069C36.9121 31.1886 37.2673 30.9912 37.5041 30.8334C37.8987 30.5966 38.2933 30.3994 38.3722 30.0837C38.5301 29.176 38.609 28.2289 38.609 27.2819C38.609 26.9268 38.2538 26.5716 37.8987 26.2165C37.6224 25.9797 37.3462 25.7034 37.3462 25.5062C36.9516 21.9151 35.2942 18.5609 32.6503 16.1143L32.3741 16.3905C34.939 18.7977 36.5964 22.073 36.9516 25.5456C36.991 25.8613 37.3067 26.177 37.6224 26.4926C37.8987 26.7294 38.2144 27.0846 38.2144 27.2425C38.2144 28.15 38.1354 29.0577 37.9776 29.9652C37.9381 30.1231 37.583 30.2809 37.3067 30.4388C36.9121 30.6361 36.557 30.8334 36.4781 31.1491C35.531 34.5034 33.3606 37.4235 30.4799 39.3176C30.9929 38.2127 32.6108 34.6217 33.479 32.8065L33.3212 26.9662L28.3095 22.1125L25.4683 22.5071L22.3509 27.5581C22.3509 27.5581 23.8109 29.4128 21.7589 31.5832C19.7464 33.7141 18.168 34.1877 18.168 34.1877L16.7079 33.3984C17.142 32.846 18.0101 32.0172 18.6809 31.4648C19.8254 30.5177 20.9697 30.4388 20.9697 29.4128C21.0092 27.2819 18.7204 27.8738 18.7204 27.8738L17.8917 28.6631L17.5366 31.5832L15.8003 33.7535L15.6029 33.7141L12.7617 33.0827C12.7617 33.0827 14.498 32.1751 14.7743 31.1491C15.0505 30.1626 14.2218 26.8873 14.1823 26.69C14.2218 26.7294 15.0111 27.4003 15.3662 28.5052C15.9976 26.7689 16.8263 25.1115 17.0631 24.9537C17.2998 24.7958 20.4962 23.099 20.4962 23.099L19.4307 25.9008L20.22 25.4666L22.1141 20.8102C22.1141 20.8102 23.9688 19.9026 25.35 19.9026C27.836 19.8631 31.5059 16.8246 29.8486 11.379C30.3221 11.5762 38.5301 15.6802 39.9507 23.7303C41.0161 29.9258 37.5041 35.7266 31.5849 39.0809Z" fill="#94A6C3"/>
<path d="M22.1864 8.45874C23.094 7.39324 22.7389 5.81479 22.7389 5.81479L20.0949 9.7215C20.0555 9.7215 21.042 9.76092 22.1864 8.45874Z" fill="#1B314F"/>
<path d="M13.314 29.8074L13.6297 28.2289C13.6297 28.2289 12.3274 30.5177 12.2091 30.8334C12.0907 31.1886 12.288 31.82 12.801 31.7805C13.314 31.7411 13.9454 30.9912 13.9454 30.4388C13.9454 29.7285 13.314 29.8074 13.314 29.8074Z" fill="#1B314F"/>
<path d="M36.7549 4.70992C36.7549 4.70992 38.728 4.78884 40.78 5.02561C36.163 1.39516 31.7828 0.329701 28.2313 0.329701C23.3381 0.329701 20.0233 2.34223 19.826 2.46062L21.365 0.0140099C21.365 0.0140099 15.209 -0.577911 13.0386 5.93322C12.4861 4.55207 11.9732 2.53954 11.9732 2.53954C11.9732 2.53954 8.77676 5.3413 10.2763 9.99778C6.60642 8.65609 1.35806 6.80136 1.16075 6.76195C0.884519 6.72244 0.805596 6.84087 0.805596 6.84087C0.805596 6.84087 0.726674 6.95921 0.963442 7.15656C1.39752 7.51167 9.68442 13.6282 11.4996 14.8121C11.105 16.2327 11.105 16.9035 11.4996 17.5744C12.0521 18.4819 12.0915 18.9555 12.0126 19.6264C11.9337 20.2972 11.2234 26.098 11.0655 26.8083C10.9077 27.5186 9.2503 30.0442 9.32922 30.7939C9.40815 31.5437 10.4341 34.74 11.3418 35.0952C12.0126 35.332 13.67 35.845 14.7749 35.845C15.1695 35.845 15.5247 35.766 15.6826 35.6082C16.3534 35.0163 16.5507 34.8979 17.0242 34.8979C17.0637 34.8979 17.1032 34.8979 17.1426 34.8979C17.3399 34.8979 17.5767 34.9374 17.8529 34.9374C18.4843 34.9374 19.313 34.819 19.9049 34.2665C20.773 33.3983 22.2726 32.2145 22.7461 31.662C23.3381 30.9123 23.6538 29.8863 23.4959 28.8603C23.3775 27.9133 23.8905 27.0845 24.4824 26.2559C25.2322 25.2693 26.6133 23.4936 26.6133 23.4936C29.3362 25.5456 31.033 28.663 31.033 32.1356C31.033 38.2916 25.6662 43.2637 19.0367 43.2637C18.0107 43.2637 17.0242 43.1454 16.0377 42.9086C19.0762 43.974 21.6412 44.3292 23.7327 44.3292C28.1918 44.3292 30.5595 42.7112 30.5595 42.7112C30.5595 42.7112 29.7308 43.7767 28.3891 45C28.4285 45 28.4285 45 28.4285 45C35.8079 43.974 39.3988 37.8969 39.3988 37.8969C39.3988 37.8969 39.1226 39.87 38.7674 41.2117C48.5934 33.8325 46.936 24.5985 46.8965 24.2828C46.9754 24.4011 47.962 25.585 48.4749 26.2164C50.0534 9.95827 36.7549 4.70992 36.7549 4.70992ZM21.6412 30.6756C21.4833 30.8728 20.8125 31.4648 20.339 31.8988C19.8655 32.3329 19.3524 32.767 18.9578 33.1616C18.8 33.3194 18.4843 33.3983 18.0107 33.3983C17.8529 33.3983 17.695 33.3983 17.5767 33.3983C17.4978 33.3983 17.4189 33.3983 17.3399 33.3983C17.261 33.3983 17.2215 33.3983 17.1821 33.3983C17.0637 33.3983 16.9453 33.3983 16.8269 33.3983C17.4189 32.6091 19.1552 30.7939 19.747 30.3993C20.4573 29.9257 20.8125 29.4522 20.3784 28.6236C19.9444 27.7948 18.8 27.9922 18.8 27.9922C18.8 27.9922 19.4708 27.7159 20.0627 27.7159C19.313 27.5186 18.3659 27.7159 17.9318 28.15C17.4583 28.5841 17.5372 30.1231 17.3399 31.1096C17.1426 32.1356 16.4718 32.6486 15.4458 33.5957C14.8933 34.1087 14.4987 34.2665 14.183 34.2665C13.5121 34.1482 12.7229 33.9508 12.1704 33.7535C11.7758 33.2405 11.184 31.5437 11.0261 30.8334C11.1444 30.4388 11.618 29.6101 11.8548 29.1365C12.3283 28.2289 12.6046 27.7159 12.6835 27.2424C12.8413 26.5716 13.3543 22.4281 13.5516 20.6918C14.0646 21.3627 14.7749 22.4676 14.6171 23.1779C15.7615 21.5599 14.9327 19.9815 14.5381 19.3501C14.183 18.7187 13.7095 17.4559 14.1041 16.1143C14.4987 14.7726 15.9193 11.0632 15.9193 11.0632C15.9193 11.0632 16.3929 11.8919 17.0637 11.7341C17.7345 11.5762 23.1407 3.44715 23.1407 3.44715C23.1407 3.44715 24.6008 6.64352 23.0618 8.97178C21.4833 11.3 19.9444 11.7341 19.9444 11.7341C19.9444 11.7341 22.1147 12.1287 24.1273 10.6686C24.9559 12.6022 25.7452 14.6147 25.7847 14.891C25.6662 15.1672 24.0878 18.9555 23.9299 19.1922C23.851 19.2712 23.2986 19.429 22.9039 19.5079C22.2331 19.7053 21.8385 19.8236 21.6807 19.9421C21.4044 20.1788 20.1416 23.6514 19.5498 25.3482C18.8395 25.5456 18.1292 25.9402 17.6161 26.7294C17.8924 26.5321 18.7605 26.4137 19.3919 26.3348C19.9444 26.2953 21.6412 27.203 22.0753 28.8997C22.0753 28.9393 22.0753 28.9393 22.0753 28.9787C22.1542 29.6101 21.9569 30.202 21.6412 30.6756ZM17.9318 31.1491C18.287 30.636 18.2475 29.7679 18.287 29.4917C18.3264 29.2154 18.4053 28.7025 18.721 28.6236C19.0367 28.5446 19.7865 28.663 19.7865 29.2154C19.7865 29.7285 19.2341 29.8468 18.8395 30.202C18.5632 30.4782 18.0107 31.0702 17.9318 31.1491ZM33.677 23.6119C34.0716 21.5994 34.111 19.8631 33.9926 18.4425C35.5316 20.4945 36.4787 22.9805 36.7549 25.5456C36.7944 25.8613 37.1101 26.177 37.4257 26.4926C37.702 26.7294 38.0177 27.0451 38.0177 27.2424C38.0177 28.15 37.9388 29.0576 37.7809 29.9653C37.7414 30.0836 37.3863 30.2809 37.1101 30.4388C36.7154 30.636 36.3603 30.8334 36.2814 31.1491C35.4133 34.1876 33.5585 36.871 31.0725 38.7651C34.7424 34.9374 36.5182 28.6236 33.677 23.6119ZM31.1908 39.1203C33.7559 37.1472 35.729 34.3849 36.5971 31.2674C36.6365 31.1491 36.9917 30.9517 37.2285 30.7939C37.6231 30.5966 38.0177 30.3599 38.0966 30.0442C38.2545 29.1365 38.3334 28.1894 38.3334 27.2424C38.3334 26.8873 37.9782 26.5321 37.6231 26.177C37.4257 25.9402 37.1101 25.6639 37.1101 25.4667C36.7944 22.5859 35.65 19.8631 33.8742 17.6138C33.085 12.8784 29.9281 11.4184 29.8492 11.3789C29.9281 11.4973 31.9801 14.4569 30.5595 17.9295C29.0994 21.4416 25.3506 20.8891 25.0349 20.9285C24.7192 20.9285 23.4959 22.507 21.9569 25.4271C21.7596 25.3482 20.9309 25.151 19.9838 25.3088C20.6941 23.3357 21.7596 20.5339 21.9569 20.2972C22.0358 20.2182 22.6278 20.0604 23.0224 19.9421C23.7721 19.7447 24.1273 19.6264 24.2456 19.4685C24.3246 19.3501 24.7192 18.4425 25.1138 17.4954C25.469 17.4954 26.3766 17.4165 26.4555 17.377C26.5344 17.2981 27.2842 15.3645 27.2842 15.1278C27.2842 14.9304 25.7452 11.1027 25.1533 9.64258C25.4295 9.32689 25.7058 8.93228 25.9819 8.49825C34.0716 9.3664 40.3854 16.2327 40.3854 24.559C40.3854 30.9517 36.6365 36.5158 31.1908 39.1203Z" fill="#1B314F"/>
<path d="M20.6921 17.8111C21.4419 16.9429 21.0473 15.325 19.6661 15.0488C20.0213 14.2201 20.5343 12.5627 20.5343 12.5627C20.5343 12.5627 16.5092 18.8766 16.1541 18.9949C15.7989 19.1133 15.4438 17.7321 15.4438 17.7321C14.694 20.6129 16.7066 21.0075 16.9433 20.0998C18.0483 19.8236 19.9424 18.6398 20.6921 17.8111Z" fill="#1B314F"/>
<path d="M17.2578 19.3503L19.3098 15.8382C19.3098 15.8382 20.4936 16.4301 19.9017 17.3772C19.152 18.4821 17.2578 19.3503 17.2578 19.3503Z" fill="#FFD923"/>
<path d="M42.634 35.6084C42.0421 36.3976 41.3713 37.2262 40.582 38.0155C45.6725 28.229 40.8188 19.2713 40.6214 18.9161C40.9766 19.2713 41.3318 19.6659 41.6474 20.0211C45.5542 24.3618 46.0277 30.873 42.634 35.6084Z" fill="#D82122"/>
<path d="M47.3646 23.0202C45.5888 18.2454 43.0633 14.1808 37.4993 10.511C32.1325 6.95943 26.3712 7.23561 26.0555 7.27512C26.016 7.27512 25.9766 7.27512 25.9766 7.27512C26.1738 7.1962 26.3712 7.15669 26.5684 7.11727C27.7918 6.72266 29.3702 6.40697 30.9487 6.20964C35.1316 5.61772 39.3539 7.03835 42.2347 10.0768C42.2741 10.1163 42.2741 10.1163 42.3136 10.1558C45.5888 13.6284 47.2857 17.9691 47.3646 23.0202Z" fill="#D82122"/>
<path d="M36.2458 3.48693C30.366 2.38201 26.5777 2.93447 23.855 3.96046C23.776 3.64477 23.4998 3.01339 23.263 2.50039C22.4343 3.48693 21.5662 4.67077 21.0137 5.42054C19.5142 6.4465 18.8828 7.43308 18.8828 7.43308C19.751 4.47346 22.2765 2.26362 25.3545 1.71116C26.2226 1.55332 27.1697 1.4744 28.1957 1.4744C30.9185 1.51386 33.6414 2.1847 36.2458 3.48693Z" fill="#D82122"/>
<path d="M14.499 11.0635C9.88201 10.9057 11.421 5.5389 11.4999 5.22321C11.4999 5.26267 11.8156 9.44554 14.499 11.0635Z" fill="#D82122"/>
<path d="M19.0394 1.39532C15.4879 3.52623 16.1982 8.61673 16.1982 8.61673C12.8045 3.44731 18.7632 1.51371 19.0394 1.39532Z" fill="#D82122"/>
<path d="M13.1939 12.4839C13.4307 12.6813 13.6674 13.0364 13.3913 13.5494C13.2334 13.8256 12.9966 13.7862 12.6414 13.6284C12.1679 13.3916 9.32668 11.7342 6.76172 10.0373C9.68188 11.0633 12.6414 12.1682 13.115 12.405C13.115 12.405 13.1545 12.4445 13.1939 12.4839Z" fill="white"/>
</svg>
