<svg width="25" height="26" viewBox="0 0 25 26" fill="none" xmlns="http://www.w3.org/2000/svg">
<g clip-path="url(#clip0_77_22158)">
<path d="M3.64744 4.13899C4.38287 3.39947 5.20744 2.75333 6.1063 2.21924V23.781C2.45144 21.5998 0 17.5847 0 13.002C0 9.53969 1.39657 6.40609 3.64744 4.13899Z" fill="#DA1811"/>
<path d="M24.9192 13.0019C24.9192 16.4604 23.5226 19.594 21.2718 21.8611C19.0172 24.1282 15.9009 25.5288 12.4615 25.5288C11.6517 25.5288 10.8606 25.4504 10.0955 25.301V0.699022C10.8606 0.549625 11.6517 0.471191 12.4615 0.471191C15.9009 0.471191 19.0172 1.87552 21.2718 4.13889C23.5264 6.40599 24.9192 9.53959 24.9192 12.9981V13.0019Z" fill="#DA1811"/>
</g>
<defs>
<clipPath id="clip0_77_22158">
<rect width="25" height="25" fill="white" transform="translate(0 0.5)"/>
</clipPath>
</defs>
</svg>
