<svg width="163" height="37" viewBox="0 0 163 37" fill="none" xmlns="http://www.w3.org/2000/svg">
<path d="M33.0824 18.5566C33.0824 21.1799 33.0548 23.7756 33.11 26.3989C33.1376 27.4206 32.8339 28.1386 31.895 28.6356C30.8457 29.1879 29.824 29.7678 28.8023 30.3753C26.7588 31.5627 24.7154 32.7501 22.672 33.9375C21.0151 34.8764 19.3583 35.8153 17.7015 36.7265C16.9835 37.1131 16.2103 37.0855 15.4923 36.6713C12.7033 35.0697 9.91433 33.4405 7.12533 31.8388C5.46849 30.9 3.83927 29.9059 2.12721 29.0775C0.553215 28.2767 -0.026677 27.1721 0.000936894 25.46C0.0837787 20.8761 0.0285508 16.2922 0.0285508 11.7083C0.0285508 11.515 0.0285508 11.3493 0.0285508 11.156C0.000936893 9.77533 0.497987 8.726 1.76823 8.06326C3.53552 7.152 5.30281 6.1579 7.01487 5.19142C9.27921 3.92118 11.4883 2.59571 13.7527 1.29785C14.4154 0.911259 15.1334 0.607506 15.8237 0.248525C16.4036 -0.0828418 16.9283 -0.0828418 17.5082 0.248525C18.447 0.77319 19.4135 1.29785 20.38 1.82252C22.9205 3.25844 25.4334 4.69437 27.9462 6.13029C29.2993 6.90348 30.6248 7.64906 31.9779 8.44986C32.751 8.89168 33.11 9.49919 33.11 10.4381C33.0272 13.1442 33.0824 15.8504 33.0824 18.5566ZM9.11353 14.0003C9.58297 14.1383 9.94195 14.1936 10.2457 14.3592C11.5436 15.0772 12.8414 15.8228 14.1393 16.596C14.6639 16.8997 15.1334 17.2311 15.658 17.4796C16.2655 17.7834 16.873 17.7557 17.4805 17.3968C19.3583 16.2646 21.236 15.1877 23.1138 14.0831C24.0803 13.5032 25.0744 12.9509 26.0409 12.371C26.6484 11.9844 26.6208 11.4874 26.0132 11.0732C25.8476 10.9627 25.6819 10.9075 25.5162 10.8247C22.7548 9.25066 19.9934 7.67667 17.2596 6.10268C16.6245 5.74369 16.1275 5.74369 15.4923 6.13029C13.8079 7.12439 12.0958 8.06326 10.4114 9.02975C9.16876 9.74771 7.95375 10.5761 6.68351 11.2665C6.02077 11.5978 5.79986 12.1777 5.79986 12.8129C5.77225 16.2094 5.77225 19.6059 5.79986 23.0024C5.79986 23.3061 5.8827 23.6927 6.10361 23.8584C6.76635 24.4107 7.48431 24.8801 8.22988 25.322C8.53364 25.5153 9.03069 25.2115 9.08592 24.8525C9.14114 24.5488 9.11353 24.2174 9.11353 23.886C9.11353 21.097 9.11353 18.2804 9.11353 15.4914C9.11353 15.0496 9.11353 14.6078 9.11353 14.0003Z" fill="#4231C8"/>
<path d="M96.7367 28.6632C91.3243 28.7737 86.5471 24.1898 86.63 18.5289C86.7128 12.6471 91.1586 8.22891 97.0956 8.33937C102.839 8.42221 107.285 12.9509 107.23 18.6394C107.202 24.2726 102.618 28.8013 96.7367 28.6632ZM102.066 18.4737C102.204 17.3415 101.873 16.2646 101.182 15.3257C99.498 13.0061 96.6262 12.2053 94.0029 13.945C92.1251 15.2152 90.8825 17.9766 92.0147 20.5171C92.4565 21.4836 92.9259 22.3396 93.8648 22.9747C95.4388 24.0517 97.068 24.245 98.7525 23.6375C99.8018 23.2785 100.768 22.6158 101.321 21.5112C101.818 20.5723 102.177 19.6058 102.066 18.4737Z" fill="#4231C8"/>
<path d="M78.2662 20.7933C79.6193 23.3062 80.9172 25.7086 82.2979 28.2767C81.8284 28.3319 81.5247 28.3871 81.2209 28.3871C80.1716 28.3871 79.1223 28.3871 78.0453 28.3871C76.6646 28.3871 76.637 28.4147 76.0019 27.255C75.2563 25.9019 74.5936 24.5212 73.9032 23.1405C73.8756 23.1129 73.8756 23.0576 73.848 23.0024C73.2957 21.8979 72.4121 21.4837 71.1695 21.7598C70.8105 21.8426 70.6172 22.0635 70.6172 22.4225C70.6172 22.892 70.6172 23.3338 70.6172 23.8032C70.6172 25.2668 70.6172 26.7303 70.6172 28.2767C69.126 28.47 67.6625 28.3595 66.1989 28.3319C66.0333 28.3319 65.7847 28.0005 65.7019 27.8072C65.6191 27.5587 65.6743 27.255 65.6743 26.9788C65.6743 21.2904 65.6743 15.6019 65.6743 9.91342C65.6743 9.69251 65.6743 9.44398 65.6743 9.22307C65.7019 8.78125 65.9504 8.56034 66.3646 8.56034C66.5579 8.56034 66.7236 8.56034 66.9169 8.56034C69.6231 8.56034 72.3292 8.53272 75.0354 8.56034C76.3056 8.58795 77.5483 8.89171 78.5976 9.63728C80.4477 10.9627 81.5247 12.7577 81.5523 15.0496C81.5799 16.596 80.9724 17.9767 79.9507 19.1365C79.4536 19.744 78.8461 20.241 78.2662 20.7933ZM70.6172 15.1601C70.6172 15.7123 70.5896 16.2646 70.6172 16.8169C70.6448 17.452 70.8105 17.6453 71.4456 17.6453C72.3569 17.6729 73.2681 17.6729 74.207 17.6453C74.4279 17.6453 74.6488 17.5625 74.8421 17.452C75.8914 16.9826 76.5266 16.0437 76.4161 14.9668C76.3056 13.8346 75.6705 13.089 74.6212 12.6472C73.6823 12.2606 72.7158 12.4263 71.777 12.4263C71.0038 12.4263 70.6724 12.8129 70.6448 13.6413C70.5896 14.1384 70.6172 14.6354 70.6172 15.1601Z" fill="#4231C8"/>
<path d="M49.3278 28.3871C47.8919 28.3871 46.5941 28.3871 45.2962 28.3871C44.5782 28.3871 44.4126 28.2215 44.4126 27.4759C44.385 25.7362 44.4126 23.9965 44.4126 22.2292C44.4126 18.1976 44.4126 14.1384 44.4126 10.1067C44.4126 9.77535 44.3573 9.44399 44.4402 9.14023C44.4954 8.91932 44.7439 8.72603 44.9372 8.58796C45.0201 8.53273 45.2134 8.56034 45.3514 8.56034C48.1957 8.56034 51.0675 8.42227 53.8841 8.58796C56.4522 8.75364 58.6061 10.1343 59.6002 13.4204C60.3182 15.8228 59.0479 19.3574 56.7008 20.6C55.6238 21.1799 54.4916 21.3732 53.3042 21.4284C52.3378 21.4837 51.3713 21.4284 50.4048 21.456C49.4935 21.456 49.3555 21.5941 49.3555 22.4778C49.3278 24.1346 49.3555 25.7914 49.3555 27.4483C49.3831 27.7244 49.3555 27.9729 49.3278 28.3871ZM49.3831 14.8839C49.3831 15.381 49.3555 15.9056 49.3831 16.4027C49.4107 17.2311 49.5488 17.3692 50.3219 17.3692C50.9571 17.3968 51.6198 17.3968 52.2549 17.3692C53.9118 17.3416 54.7402 16.4027 54.6297 14.7459C54.5469 13.5585 53.7185 12.7024 52.5311 12.6472C51.7579 12.6196 50.9847 12.6196 50.1839 12.6472C49.5764 12.6748 49.4107 12.8405 49.3831 13.5032C49.3555 13.9727 49.3831 14.4145 49.3831 14.8839Z" fill="#4231C8"/>
<path d="M125.429 17.9215C125.76 18.17 126.036 18.3909 126.312 18.5842C127.804 19.5783 128.411 20.9866 128.522 22.7263C128.66 24.8526 127.721 26.3989 126.092 27.5863C125.429 28.0834 124.628 28.3595 123.8 28.3595C120.817 28.3595 117.835 28.3871 114.853 28.3595C114.107 28.3595 113.997 28.2214 113.941 27.4759C113.941 27.255 113.941 27.0064 113.941 26.7855C113.941 21.2351 113.941 15.6847 113.941 10.1343C113.941 9.80296 113.941 9.49921 113.941 9.16784C113.969 8.78125 114.162 8.58795 114.549 8.56034C114.742 8.56034 114.908 8.56034 115.101 8.56034C117.504 8.56034 119.878 8.53272 122.281 8.56034C124.214 8.58795 125.788 9.36114 126.865 11.0456C127.748 12.3987 127.886 15.3257 126.257 16.955C126.092 17.1207 125.926 17.2863 125.76 17.452C125.65 17.5901 125.567 17.7282 125.429 17.9215ZM115.267 27.0341C118.277 27.0341 121.121 27.0617 123.938 27.0064C124.932 26.9788 125.677 26.3713 126.312 25.5981C127.113 24.6316 127.279 23.4719 127.141 22.2568C126.948 20.5448 125.153 18.8051 123.496 18.7499C121.038 18.6946 118.553 18.7223 116.068 18.7499C115.46 18.7499 115.267 18.9708 115.267 19.6059C115.267 22.0083 115.267 24.4383 115.267 27.0341ZM115.35 9.94103C115.156 12.0121 115.212 16.3199 115.433 17.3692C115.902 17.452 116.399 17.6177 116.868 17.6453C118.553 17.6729 120.265 17.7005 121.949 17.6453C122.888 17.6177 123.827 17.4244 124.6 16.7617C125.677 15.878 126.174 14.8287 126.064 13.4204C125.953 11.6531 124.573 10.0239 122.833 9.99626C120.403 9.88581 117.918 9.94103 115.35 9.94103Z" fill="#4231C8"/>
<path d="M154.468 9.91338C152.176 9.91338 150.077 9.91338 147.868 9.91338C147.84 9.47156 147.813 9.08496 147.785 8.72598C147.951 8.64314 148.034 8.5603 148.089 8.5603C152.59 8.5603 157.091 8.53268 161.592 8.53268C162.614 8.53268 162.641 8.61553 162.531 9.88577C160.847 9.88577 159.162 9.88577 157.478 9.88577C155.986 9.88577 155.766 9.72008 155.793 11.515C155.821 16.5959 155.793 21.7045 155.793 26.7855C155.793 27.2549 155.793 27.6967 155.793 28.1386C154.578 28.4147 154.468 28.3319 154.468 27.2273C154.468 22.0083 154.468 16.7616 154.468 11.5426C154.468 11.0732 154.468 10.5761 154.468 9.91338Z" fill="#4231C8"/>
<path d="M139.173 28.3319C138.731 28.3319 138.372 28.3319 137.903 28.3319C137.903 27.8624 137.903 27.4758 137.903 27.0616C137.903 21.4284 137.903 15.7675 137.903 10.1343C137.903 9.80293 137.875 9.49918 137.903 9.16781C137.931 8.80883 138.179 8.58792 138.538 8.58792C138.897 8.58792 139.146 8.7536 139.228 9.11259C139.256 9.27827 139.256 9.47157 139.256 9.66486C139.256 15.7123 139.256 21.7874 139.256 27.8348C139.256 27.9729 139.201 28.0833 139.173 28.3319Z" fill="#4231C8"/>
<path d="M16.4352 9.08496C16.6561 9.1678 16.9322 9.19542 17.1807 9.33349C18.3681 9.99622 19.5279 10.659 20.7153 11.3493C21.0467 11.5426 21.0467 11.9292 20.7153 12.0949C19.5555 12.7852 18.3681 13.448 17.2084 14.1383C16.7389 14.4144 16.2419 14.4697 15.7724 14.2211C14.5298 13.586 13.3148 12.8957 12.1274 12.2053C11.8513 12.0396 11.796 11.7635 12.0722 11.515C12.4588 11.2112 12.8454 10.8799 13.2872 10.6313C14.088 10.1343 14.944 9.69247 15.7724 9.25064C15.9381 9.14019 16.1866 9.14019 16.4352 9.08496Z" fill="#4231C8"/>
</svg>
