<svg width="180" height="19" viewBox="0 0 180 19" fill="none" xmlns="http://www.w3.org/2000/svg">
<path fill-rule="evenodd" clip-rule="evenodd" d="M28.2109 18.2792H32.7677V12.7314H35.1546L38.0478 18.2792H42.8215L39.3497 11.8068L39.639 11.5934C39.9284 11.4512 40.1453 11.2378 40.3623 11.0244C40.6516 10.7399 40.941 10.3843 41.2303 10.0287C41.5196 9.6019 41.8089 9.0329 41.9536 8.53502C42.1706 7.8949 42.2429 7.25477 42.2429 6.54352C42.3152 4.90764 41.6643 3.34288 40.507 2.20488C39.3497 1.06688 37.9031 0.426751 36.0949 0.426751H28.2109V18.2792ZM37.6861 6.61464C37.6861 7.11252 37.5415 7.53927 37.1798 7.8949C36.8182 8.25052 36.3842 8.39277 35.8779 8.39277H32.7677V4.83651H35.8779C36.3842 4.83651 36.8182 4.97876 37.1798 5.33439C37.5415 5.61889 37.6861 6.11677 37.6861 6.61464ZM48.5356 12.0202C48.5356 11.3089 48.7526 10.6688 49.1866 10.0998C49.5482 9.6019 50.1992 9.3174 50.7778 9.3174C51.3564 9.3174 52.0074 9.6019 52.3691 10.0998C52.803 10.5977 53.0924 11.3089 53.02 12.0202C53.02 12.7314 52.803 13.3715 52.3691 13.9405C52.0074 14.4384 51.3564 14.7229 50.7778 14.7229C50.1992 14.7229 49.5482 14.4384 49.1866 13.9405C48.7526 13.3715 48.5356 12.7314 48.5356 12.0202ZM57.2875 12.0202C57.2875 10.3132 56.6365 8.81952 55.4069 7.46814C52.8754 4.90764 48.7526 4.90764 46.221 7.46814C44.9191 8.7484 44.3405 10.242 44.3405 12.0202C44.3405 13.7983 44.9914 15.2208 46.221 16.5722C48.7526 19.1327 52.8754 19.1327 55.4069 16.5722C56.6365 15.2919 57.2875 13.7272 57.2875 12.0202ZM58.9511 12.0202C58.9511 13.7272 59.602 15.2208 60.8316 16.5722C62.0612 17.8524 63.7248 18.5637 65.3884 18.4925C66.0394 18.4925 66.618 18.4214 67.1967 18.208C67.703 18.0658 68.1369 17.8524 68.6432 17.5679C69.0049 17.3545 69.3666 17.07 69.6559 16.7855C69.8729 16.5722 70.0898 16.4299 70.2345 16.1454C70.3068 16.0032 70.3792 15.932 70.4515 15.8609L68.0646 13.2293L67.8476 13.5849C67.6306 13.8694 67.3413 14.1539 66.9797 14.2962C66.618 14.5095 66.1117 14.6518 65.6777 14.6518C65.0268 14.6518 64.3758 14.3673 63.8695 13.8694C63.3632 13.3715 63.1462 12.6603 63.1462 11.949C63.1462 11.2378 63.3632 10.5265 63.8695 10.0287C64.3035 9.53077 65.0268 9.24627 65.6777 9.24627C66.1117 9.24627 66.618 9.38852 66.9797 9.67303C67.269 9.81528 67.5583 10.0287 67.7753 10.3132C67.8476 10.4554 67.9923 10.5265 68.0646 10.6688L70.4515 8.03715L70.3068 7.82377C70.1622 7.61039 69.9452 7.39702 69.6559 7.18364C69.3666 6.89914 69.0049 6.68577 68.6432 6.47239C68.2093 6.18789 67.703 5.97451 67.1967 5.83226C64.9544 5.12101 62.4952 5.76114 60.8316 7.46814C59.602 8.81952 58.9511 10.3132 58.9511 12.0202ZM80.5777 11.1667L84.9174 5.83226H80.216L76.7442 10.1709V0.497876H72.6937V18.208H76.7442V15.0074L77.8291 13.7272L80.5777 18.1369H85.0621L80.5777 11.1667ZM88.1723 0L85.4961 6.18789L88.0276 7.68152L91.4994 1.99151L88.1723 0ZM97.4305 5.83226H93.3077V18.2792H97.3582V12.0913C97.3582 11.38 97.5028 10.7399 97.8645 10.3132C98.2261 9.8864 98.7324 9.67303 99.2387 9.67303C99.6727 9.67303 100.179 9.8864 100.468 10.242C100.758 10.5977 100.902 11.0955 100.902 11.7357V18.3503H104.953V10.8822C104.953 9.3174 104.519 8.03714 103.723 7.04139C103 6.11677 101.843 5.54776 100.613 5.54776C99.962 5.54776 99.3111 5.69001 98.8047 6.04564C98.2261 6.40127 97.8645 6.61464 97.6475 6.82802C97.5028 7.04139 97.3581 7.18364 97.2858 7.32589V5.83226H97.4305ZM109.799 0L107.123 6.18789L109.654 7.68152L113.126 1.99151L109.799 0ZM123.614 18.2792C125.422 18.2792 126.869 17.7813 128.026 16.7144C129.183 15.6475 129.762 14.4384 129.762 13.087C129.762 12.518 129.69 11.949 129.473 11.4512C129.328 11.0244 129.039 10.5977 128.749 10.242C128.46 9.95753 128.171 9.67302 127.809 9.45965C127.592 9.3174 127.303 9.17515 127.086 9.0329C126.941 8.96177 126.869 8.89065 126.796 8.89065L127.013 8.7484C127.23 8.60615 127.375 8.4639 127.592 8.32165C127.809 8.10827 128.026 7.89489 128.243 7.61039C128.46 7.32589 128.677 6.97027 128.749 6.54352C128.894 6.11677 128.966 5.61889 128.966 5.12101C128.966 3.84076 128.46 2.77388 127.375 1.84925C126.29 0.924627 124.916 0.426751 123.18 0.426751H115.585V18.1369L123.614 18.2792ZM120.142 14.4384V10.8822H123.252C123.758 10.8822 124.192 11.0244 124.554 11.38C125.205 12.0913 125.205 13.2293 124.554 13.9405C124.192 14.2962 123.758 14.4384 123.252 14.4384H120.142ZM122.674 4.33864C123.108 4.33864 123.469 4.48089 123.831 4.76539C124.12 5.04989 124.265 5.47664 124.265 5.83226C124.265 6.25902 124.12 6.61464 123.831 6.89914C123.542 7.18364 123.108 7.32589 122.674 7.32589H120.142V4.33864H122.674ZM136.199 0.497876H132.149V18.208H136.199V0.497876ZM142.854 12.0202C142.854 11.3089 143.071 10.6688 143.505 10.0998C143.866 9.6019 144.517 9.3174 145.096 9.3174C145.674 9.3174 146.325 9.6019 146.687 10.0998C147.121 10.5977 147.41 11.3089 147.338 12.0202C147.338 12.7314 147.121 13.3715 146.687 13.9405C146.325 14.4384 145.674 14.7229 145.096 14.7229C144.517 14.7229 143.866 14.4384 143.505 13.9405C143.071 13.3715 142.854 12.7314 142.854 12.0202ZM151.605 12.0202C151.605 10.3132 150.954 8.81952 149.725 7.46814C147.193 4.90764 143.071 4.90764 140.539 7.46814C139.237 8.7484 138.658 10.242 138.658 12.0202C138.658 13.7272 139.309 15.2208 140.539 16.5722C143.071 19.1327 147.193 19.1327 149.725 16.5722C150.954 15.2919 151.605 13.7272 151.605 12.0202ZM153.269 12.0202C153.269 13.7272 153.92 15.2208 155.15 16.5722C156.379 17.8524 158.043 18.5637 159.706 18.4925C160.357 18.4925 160.936 18.4214 161.515 18.208C162.021 18.0658 162.455 17.8524 162.961 17.5679C163.323 17.3545 163.684 17.07 163.974 16.7855C164.191 16.5722 164.408 16.4299 164.552 16.1454C164.625 16.0032 164.697 15.932 164.769 15.8609L162.383 13.2293L162.166 13.5849C161.949 13.8694 161.659 14.1539 161.298 14.2962C160.936 14.5095 160.43 14.6518 159.996 14.6518C159.345 14.6518 158.694 14.3673 158.187 13.8694C157.681 13.3715 157.464 12.6603 157.464 11.949C157.464 11.2378 157.681 10.5265 158.187 10.0287C158.621 9.53077 159.345 9.24627 159.996 9.24627C160.43 9.24627 160.936 9.38852 161.298 9.67303C161.587 9.81528 161.876 10.0287 162.093 10.3132C162.166 10.4554 162.31 10.5265 162.383 10.6688L164.769 8.03715L164.552 7.75264C164.408 7.53927 164.191 7.32589 163.901 7.11252C163.612 6.82802 163.251 6.61464 162.889 6.40127C162.455 6.11677 161.949 5.90339 161.442 5.76114C159.2 5.04989 156.741 5.69001 155.077 7.39702C153.92 8.81952 153.269 10.3132 153.269 12.0202ZM174.896 11.1667L179.235 5.83226H174.534L171.062 10.1709V0.497876H167.012V18.208H171.062V15.0074L172.147 13.7272L174.896 18.1369H179.38L174.896 11.1667Z" fill="#323232"/>
<path d="M17.3591 3.05176e-05H0V17.7813H17.3591V3.05176e-05Z" fill="#FC0000"/>
<path fill-rule="evenodd" clip-rule="evenodd" d="M11.075 1.42252L3.625 9.31741H8.2541L5.43324 16.3588L13.7512 6.82803H9.12206L11.075 1.42252Z" fill="white"/>
</svg>
