<svg width="153" height="31" viewBox="0 0 153 31" fill="none" xmlns="http://www.w3.org/2000/svg">
<path fill-rule="evenodd" clip-rule="evenodd" d="M7.80555 8.23703C6.57358 7.1462 4.00525 4.87211 0.660476 0.824913C0.285547 0.371235 -0.0115248 0 0.000343613 0C0.0559001 0 8.77649 7.52788 9.67925 8.57728L9.92855 8.86704L9.90679 9.31761C9.87816 9.91206 9.69148 10.3069 9.2454 10.7168C8.73117 11.1892 8.10557 11.4426 7.12309 11.5764C6.52046 11.6585 6.30126 11.7491 6.05774 12.0165C5.82427 12.2729 5.735 12.5924 5.67054 13.4026C5.57073 14.6565 5.42319 15.1867 4.82783 16.4307C4.25262 17.6326 4.13587 18.0868 4.23651 18.7306C4.35917 19.5151 4.80328 20.0856 5.84303 20.7943C6.63659 21.335 6.99664 21.6839 7.19441 22.1034C7.31591 22.3612 7.33171 22.4551 7.32936 22.9032C7.32578 23.5881 7.21533 23.8642 6.74488 24.3641C5.98475 25.1718 4.63318 25.8309 2.96869 26.2056C2.27316 26.3622 2.24244 26.362 2.24244 26.2017C2.24244 26.0002 1.984 25.4851 1.53515 24.792C1.01504 23.989 0.811589 23.5875 0.61668 22.9793C0.394044 22.2847 0.331175 21.8153 0.363455 21.0888C0.393997 20.4017 0.469349 20.097 0.743398 19.5528C0.960969 19.1207 1.10206 18.9242 1.96431 17.8521C3.43732 16.0207 3.96886 14.9506 4.15787 13.4357C4.32649 12.0843 4.56006 11.4313 5.08259 10.8502C5.39603 10.5016 5.46534 10.3685 5.46534 10.1152C5.46534 10.0897 5.4781 10.0559 5.49513 10.0109C5.56129 9.83604 5.69193 9.49071 5.38978 8.79542C3.03819 4.60065 3.03701 4.59848 3.10561 4.66304C3.13527 4.69096 4.22278 6.35856 5.52226 8.36881C6.34473 9.82427 6.52377 9.97757 6.67876 10.1103C6.70015 10.1286 6.72109 10.1465 6.74321 10.1674C6.74321 10.1674 6.85115 10.2883 7.16549 10.2883C7.44343 10.2883 7.99854 10.1333 8.26855 9.98029C8.75408 9.7051 8.86074 9.35396 8.57733 8.96337C8.49008 8.84314 8.22543 8.60881 7.80555 8.23703ZM2.50346 20.8609C2.84487 21.0873 2.95333 21.5505 2.74922 21.9109C2.55375 22.256 2.18051 22.3692 1.91684 22.1634C1.75324 22.0358 1.74173 21.8478 1.88435 21.634C2.02519 21.4231 2.01219 21.3197 1.83319 21.228C1.72689 21.1734 1.67972 21.1116 1.67972 21.0265C1.67972 20.7479 2.18087 20.6471 2.50346 20.8609Z" fill="black"/>
<path d="M8.65792 2.16012C8.46839 2.18916 8.48538 2.19647 8.88813 2.25874C10.3552 2.48561 11.5013 3.06543 12.6677 4.17103C13.181 4.6576 13.697 5.26179 14.5319 6.35381C16.4115 8.81242 17.2092 9.49742 18.7916 10.0118C19.7217 10.3141 20.6596 10.4552 22.3169 10.5423C24.1517 10.6387 24.8446 10.7858 25.5 11.2181C25.8634 11.4579 26.1474 11.7552 26.4299 12.192L26.594 12.4458L26.5597 12.1666C26.428 11.0957 25.6608 9.59128 24.6842 8.48813L24.5062 8.28707L24.4162 8.69119C24.1901 9.7086 23.7015 10.4398 23.2479 10.4404C23.0263 10.4407 22.8024 10.2996 22.7221 10.1089C22.6215 9.86998 22.6298 9.78149 22.7795 9.5023C23.0543 8.98922 23.1222 8.30228 22.9866 7.40609C22.9474 7.14705 22.8896 6.90429 22.8581 6.86659C22.7592 6.74826 21.9672 6.28777 21.4649 6.05645C19.6392 5.2156 17.4563 4.94238 15.3106 5.28615L14.8013 5.36779L14.4452 4.97259C13.105 3.48499 11.8496 2.64739 10.4698 2.32042C9.87879 2.18033 9.02114 2.10443 8.65792 2.16012Z" fill="black"/>
<path d="M23.5801 3.04184C23.3798 3.48263 23.2804 3.96528 23.2387 4.69704C23.2119 5.16904 23.1851 5.32961 23.1297 5.35068C23.0472 5.38211 22.9352 5.34834 22.2558 5.08784C21.799 4.91268 20.6644 4.58253 20.6315 4.61521C20.6229 4.62385 20.8602 4.73934 21.159 4.87193C21.4578 5.00452 21.9436 5.25519 22.2383 5.42901C23.4017 6.11513 23.6 6.51566 23.6017 8.18169C23.6023 9.01087 23.5919 9.12101 23.4886 9.37159C23.3503 9.70718 23.3745 9.77064 23.5274 9.47331C23.8099 8.9236 23.927 8.37383 23.944 7.51728C23.9547 6.96771 23.9712 6.85146 24.0491 6.7741C24.1337 6.69015 24.1541 6.68892 24.2913 6.75932C24.4959 6.86431 25.422 7.5987 25.8246 7.97528L26.154 8.28322L25.8246 7.85233C25.6436 7.61535 25.144 7.06341 24.7146 6.62576C23.7987 5.69273 23.7264 5.56811 23.5991 4.70436C23.4989 4.02361 23.5229 3.4385 23.6683 3.01073C23.7219 2.85335 23.7563 2.72458 23.745 2.72458C23.7334 2.72458 23.6593 2.86737 23.5801 3.04184Z" fill="black"/>
<path d="M9.67968 7.54703C8.86204 6.4248 8.35614 4.70417 8.46567 3.41791L8.49953 3.01988L8.68565 3.05374C9.03516 3.11728 9.63778 3.3409 9.91996 3.51177C10.6943 3.98062 11.0296 4.59791 11.3706 6.18301C11.4705 6.6473 11.6016 7.17271 11.6619 7.35059C11.759 7.6369 12.1259 8.30566 12.4242 8.73998C12.6391 9.0528 12.4963 9.20103 12.0214 9.15828C11.296 9.09301 10.3135 8.41699 9.67968 7.54703Z" fill="black"/>
<path d="M17.0757 10.7878C17.0757 13.0342 18.4215 14.3655 22.2424 15.8993C24.7873 16.9207 25.8279 17.449 26.6026 18.1126C27.2839 18.6963 27.6895 19.4755 27.7287 20.2758C27.7362 20.4251 27.7643 20.5349 27.793 20.5257C27.8966 20.4922 28.2873 19.6207 28.4152 19.1372C28.5773 18.5251 28.636 17.3637 28.5359 16.7444C28.1918 14.613 26.7489 13.0481 24.4167 12.277C23.683 12.0344 22.8875 11.8684 21.474 11.6628C19.072 11.3134 18.2044 11.0488 17.4295 10.4292C17.2628 10.2958 17.1149 10.1868 17.101 10.1868C17.0871 10.1868 17.0757 10.4572 17.0757 10.7878Z" fill="black"/>
<path d="M19.5618 16.5366C19.5139 16.2525 19.4309 15.8898 19.3773 15.7305L19.2798 15.4409L19.4609 15.6435C19.7115 15.924 19.9095 16.2828 20.0774 16.7608C20.2055 17.1255 20.2199 17.234 20.2189 17.8268C20.2179 18.4088 20.2019 18.5308 20.0837 18.8591C19.8971 19.3768 19.6656 19.744 19.2772 20.138C18.5792 20.8463 17.6818 21.2384 16.3869 21.401C16.1618 21.4291 15.5057 21.4768 14.9289 21.5067C13.4753 21.5821 12.5186 21.7378 11.659 22.0388C11.5354 22.082 11.425 22.1084 11.4138 22.0973C11.379 22.0627 11.9643 21.7149 12.4478 21.4826C13.1294 21.1552 13.808 20.9767 15.3283 20.7243C16.0793 20.5995 16.8549 20.4482 17.0519 20.388C18.9118 19.8195 19.8678 18.3525 19.5618 16.5366Z" fill="black"/>
<path d="M20.971 16.5196C20.6928 17.4993 20.8094 18.5498 21.3171 19.6378C21.572 20.1841 21.826 20.5964 22.8624 22.1455C23.7535 23.4781 24.195 24.2666 24.4115 24.9128C24.7651 25.968 24.7118 26.9161 24.2442 27.8907C24.1337 28.121 24.0594 28.3092 24.0793 28.3088C24.099 28.3084 24.2819 28.2179 24.4856 28.1077C25.8758 27.3556 26.8505 26.0668 27.2699 24.426C27.4029 23.9056 27.4553 22.6622 27.366 22.1455C27.2082 21.2332 26.8805 20.4849 26.3508 19.8281C25.746 19.078 24.8565 18.4215 23.2967 17.5736C22.0468 16.8941 21.5775 16.6297 21.3435 16.4727C21.2259 16.3938 21.1061 16.3292 21.0774 16.3292C21.0486 16.3292 21.0008 16.4149 20.971 16.5196Z" fill="black"/>
<path d="M6.96476 25.5083C8.38272 24.3147 10.147 23.4668 11.7541 23.2064C12.4467 23.0943 13.6005 23.1387 14.2419 23.3024C15.27 23.5647 16.1896 24.1523 16.6679 24.8522C17.1353 25.5362 17.3358 26.1324 17.5446 27.4587C17.627 27.9821 17.7165 28.5073 17.7436 28.6263C17.9004 29.3138 18.2056 29.8631 18.5837 30.1392C19.1842 30.5774 20.2183 30.6045 21.2355 30.209C21.4082 30.1418 21.558 30.0954 21.5685 30.1059C21.6056 30.1424 21.0932 30.4842 20.7319 30.6642C20.2456 30.9063 19.859 31 19.3452 31C18.4135 31 17.64 30.5276 16.9946 29.5641C16.8676 29.3744 16.5821 28.8066 16.3602 28.302C15.6787 26.7524 15.3422 26.2804 14.551 25.7637C13.8624 25.3143 12.9744 25.2337 12.3063 25.5603C11.4288 25.9893 11.1839 27.1073 11.8124 27.8158C12.0622 28.0974 12.5281 28.3402 12.909 28.3875C13.6216 28.476 14.234 27.9355 14.234 27.2181C14.234 26.7524 14.0545 26.4866 13.6024 26.2832C12.9851 26.0054 12.3215 26.33 12.3246 26.9083C12.326 27.155 12.4337 27.3097 12.6816 27.4216C12.8406 27.4933 12.8443 27.4989 12.7146 27.4721C12.1482 27.355 12.0155 26.6742 12.4709 26.2222C13.0178 25.6797 14.1485 25.9191 14.5368 26.6598C14.6999 26.9709 14.7188 27.5904 14.5766 27.9645C14.2583 28.8019 13.3302 29.242 12.3887 29.0025C11.7477 28.8392 11.4867 28.6627 10.7139 27.8691C9.37098 26.4899 8.84964 26.2226 6.91359 25.9214L6.5426 25.8636L6.96476 25.5083Z" fill="black"/>
<path fill-rule="evenodd" clip-rule="evenodd" d="M10.5445 11.8127C10.0833 11.954 9.63494 12.4413 9.49615 12.9523C9.41149 13.2641 9.45953 13.8109 9.58634 13.9798C9.79122 14.2525 9.98935 14.3244 10.5258 14.3206C11.5762 14.3133 12.4893 13.8642 12.5955 13.3028C12.6825 12.8426 12.2814 12.2048 11.729 11.9247C11.444 11.7803 10.8378 11.723 10.5445 11.8127ZM11.7724 12.77C11.9344 12.5405 11.8635 12.2925 11.588 12.1248C11.0634 11.8054 10.27 12.0697 10.27 12.5638C10.27 12.8098 10.6838 13.0781 11.063 13.0781C11.3154 13.0781 11.6608 12.928 11.7724 12.77Z" fill="black"/>
<path d="M84.3844 18.6059C84.786 19.6649 85.2572 20.5092 85.7979 21.1385C86.7402 22.2359 87.9104 22.7847 89.3084 22.7847C90.0654 22.7847 90.7181 22.5468 91.2665 22.0709C91.8226 21.5951 92.1007 20.9313 92.1007 20.0794C92.1007 19.3119 91.8226 18.6442 91.2665 18.0763C90.9034 17.7156 90.1388 17.1745 88.9724 16.4531L86.9449 15.1983C86.3347 14.8146 85.8481 14.427 85.485 14.0356C84.813 13.2912 84.4771 12.47 84.4771 11.5721C84.4771 10.3825 84.8748 9.39251 85.6704 8.60202C86.466 7.81154 87.5203 7.4163 88.8334 7.4163C89.3741 7.4163 90.0229 7.5506 90.7799 7.81921C91.5445 8.08015 91.9809 8.21062 92.0891 8.21062C92.3826 8.21062 92.5834 8.14155 92.6916 8.0034C92.8074 7.86526 92.8962 7.66956 92.958 7.4163H93.4446L93.966 12.4355H93.3983C93.0121 10.9236 92.3903 9.86833 91.533 9.26971C90.6833 8.67109 89.8414 8.37178 89.0072 8.37178C88.3584 8.37178 87.7907 8.56365 87.304 8.94738C86.8251 9.32343 86.5857 9.84914 86.5857 10.5245C86.5857 11.1308 86.7711 11.6488 87.1418 12.0786C87.5126 12.5161 88.088 12.9727 88.8682 13.4485L90.9536 14.7263C92.259 15.5245 93.1782 16.2574 93.7111 16.9251C94.2364 17.6005 94.499 18.3986 94.499 19.3196C94.499 20.5552 94.0278 21.5874 93.0855 22.4163C92.1509 23.2451 90.9536 23.6596 89.4938 23.6596C88.76 23.6596 87.9915 23.5214 87.1882 23.2451C86.3926 22.9689 85.9369 22.8307 85.821 22.8307C85.543 22.8307 85.3537 22.9151 85.2533 23.084C85.1606 23.2528 85.0988 23.4332 85.0679 23.625H84.5466L83.8398 18.6059H84.3844Z" fill="black"/>
<path d="M40.5397 7.75014V8.18759C39.6282 8.24899 39.0374 8.40248 38.767 8.64807C38.4967 8.88598 38.3615 9.43855 38.3615 10.3058V17.8461C38.3615 19.0817 38.5314 20.0448 38.8713 20.7356C39.5047 21.9942 40.7057 22.6235 42.4745 22.6235C44.4133 22.6235 45.7148 21.9788 46.379 20.6895C46.7498 19.9681 46.9352 18.8553 46.9352 17.3511V11.2152C46.9352 9.93357 46.7807 9.13157 46.4717 8.80924C46.1628 8.47923 45.5757 8.27201 44.7106 8.18759V7.75014H50.2024V8.18759C49.2833 8.28736 48.6808 8.50993 48.395 8.85528C48.1169 9.19297 47.9779 9.97961 47.9779 11.2152V17.3511C47.9779 18.9781 47.7269 20.2482 47.2248 21.1615C46.2979 22.8422 44.5369 23.6826 41.9416 23.6826C39.3772 23.6826 37.6316 22.8537 36.7047 21.196C36.2026 20.3058 35.9516 19.1316 35.9516 17.6734V10.3058C35.9516 9.44623 35.8164 8.89749 35.5461 8.65958C35.2835 8.41399 34.7042 8.25667 33.8082 8.18759V7.75014H40.5397Z" fill="black"/>
<path d="M53.2892 22.9228C54.2702 22.823 54.8997 22.6043 55.1777 22.2666C55.4558 21.9213 55.5948 21.127 55.5948 19.8837V9.48844L55.2704 9.10855C54.9228 8.70179 54.6255 8.45237 54.3783 8.36027C54.1389 8.2605 53.7758 8.20294 53.2892 8.18759V7.75014H57.3559L66.4973 19.1009V11.2152C66.4973 9.91821 66.3042 9.07401 65.918 8.68261C65.6631 8.42934 65.0993 8.26434 64.2264 8.18759V7.75014H69.7993V8.18759C68.8956 8.27969 68.2931 8.49841 67.9919 8.84377C67.6907 9.18913 67.54 9.97961 67.54 11.2152V23.625H67.1345L56.6376 10.6972V19.8837C56.6376 21.173 56.8268 22.0134 57.2053 22.4048C57.4525 22.658 58.0047 22.8307 58.8621 22.9228V23.3488H53.2892V22.9228Z" fill="black"/>
<path d="M74.821 22.4969C74.5352 22.7118 73.9095 22.8537 72.944 22.9228V23.3488H79.9652V22.9228C78.9997 22.8537 78.374 22.7118 78.0882 22.4969C77.8025 22.2743 77.6596 21.7064 77.6596 20.7931V10.3058C77.6596 9.43855 77.8025 8.88214 78.0882 8.63656C78.374 8.3833 78.9997 8.23364 79.9652 8.18759V7.75014H72.944V8.18759C73.9095 8.23364 74.5352 8.3833 74.821 8.63656C75.1068 8.88214 75.2497 9.43855 75.2497 10.3058V20.7931C75.2497 21.7064 75.1068 22.2743 74.821 22.4969Z" fill="black"/>
<path d="M104.375 8.18759V7.75014H98.559V8.18759C99.2542 8.22597 99.7639 8.50609 100.088 9.02796C100.42 9.54216 101.008 10.9351 101.849 13.2068L103.889 18.721L105.592 23.625H105.951L109.6 13.6442L112.427 20.8967L113.389 23.625H113.748L115.173 19.3426L116.158 16.6373L118.684 9.62658C118.885 9.08168 119.186 8.69796 119.588 8.47539C119.812 8.34492 120.136 8.24899 120.561 8.18759V7.75014H115.857V8.18759C116.32 8.20294 116.668 8.2605 116.9 8.36027C117.317 8.52911 117.525 8.83226 117.525 9.26971C117.525 9.39251 117.506 9.55367 117.467 9.75321C117.406 10.1062 117.29 10.5092 117.12 10.962L114.154 18.9627L110.724 10.1216C110.601 9.79926 110.524 9.58821 110.493 9.48844C110.462 9.38099 110.446 9.2582 110.446 9.12006C110.446 8.7133 110.624 8.44469 110.979 8.31423C111.203 8.23748 111.613 8.19527 112.207 8.18759V7.75014H105.858V8.18759C106.36 8.19527 106.735 8.25283 106.982 8.36027C107.399 8.53679 107.712 8.88598 107.921 9.40785L109.044 12.2513L106.519 18.9052L103.089 10.041C103.004 9.81077 102.939 9.62274 102.892 9.47693C102.854 9.33111 102.834 9.18145 102.834 9.02796C102.834 8.68261 103.012 8.44469 103.367 8.31423C103.568 8.24515 103.904 8.20294 104.375 8.18759Z" fill="black"/>
<path fill-rule="evenodd" clip-rule="evenodd" d="M120.96 23.3488V22.9228C121.57 22.8537 122.026 22.6235 122.327 22.2321C122.636 21.8407 123.161 20.7778 123.903 19.0433L128.85 7.47386H129.313L135.222 20.8392C135.616 21.7294 135.929 22.282 136.161 22.4969C136.4 22.7041 136.798 22.8461 137.354 22.9228V23.3488H131.318V22.9228C132.013 22.8614 132.461 22.7885 132.662 22.7041C132.862 22.612 132.963 22.3933 132.963 22.0479C132.963 21.9328 132.924 21.7294 132.847 21.4378C132.77 21.1461 132.662 20.8392 132.523 20.5168L131.538 18.249H125.328C124.71 19.7916 124.339 20.7356 124.215 21.0809C124.1 21.4186 124.042 21.6872 124.042 21.8867C124.042 22.2858 124.204 22.5621 124.528 22.7156C124.729 22.8077 125.108 22.8768 125.664 22.9228V23.3488H120.96ZM131.202 17.2935L128.456 10.8008L125.745 17.2935H131.202Z" fill="black"/>
<path fill-rule="evenodd" clip-rule="evenodd" d="M142.225 22.3933C142.001 22.6619 141.437 22.8384 140.533 22.9228V23.3488H147.172V22.9228C146.222 22.8537 145.608 22.7041 145.33 22.4738C145.06 22.2436 144.925 21.6834 144.925 20.7931V16.5107C145.118 16.5107 145.411 16.5184 145.805 16.5337C146.207 16.5414 146.535 16.5452 146.79 16.5452C148.566 16.5452 150.046 16.1845 151.227 15.4631C152.409 14.7417 153 13.579 153 11.975C153 10.7087 152.467 9.68798 151.401 8.91284C150.335 8.13771 148.798 7.75014 146.79 7.75014H140.533V8.18759C141.383 8.25667 141.931 8.42167 142.179 8.68261C142.434 8.94354 142.561 9.4846 142.561 10.3058V20.5168C142.561 21.4915 142.449 22.117 142.225 22.3933ZM148.539 9.0625C149.791 9.59972 150.416 10.5897 150.416 12.0326C150.416 13.5675 149.849 14.6151 148.713 15.1753C148.088 15.4823 147.23 15.6358 146.141 15.6358C146.017 15.6358 145.89 15.6319 145.759 15.6243C145.627 15.6166 145.349 15.5936 144.925 15.5552V9.40785C144.925 9.07785 144.979 8.8668 145.087 8.7747C145.203 8.67493 145.504 8.62505 145.99 8.62505C147.018 8.62505 147.867 8.77086 148.539 9.0625Z" fill="black"/>
</svg>
