<svg width="67" height="25" viewBox="0 0 67 25" fill="none" xmlns="http://www.w3.org/2000/svg">
<g clip-path="url(#clip0)">
<g clip-path="url(#clip1)">
<path d="M9 0H-1V5H9V0Z" fill="#48A9A6"/>
<path d="M24 0H14V5H24V0Z" fill="#48A9A6"/>
<path d="M4 15H-1V25H4V15Z" fill="#48A9A6"/>
<path d="M9 20H4V25H9V20Z" fill="#48A9A6"/>
<path d="M19 20H14V25H19V20Z" fill="#48A9A6"/>
<path d="M24 15H19V25H24V15Z" fill="#48A9A6"/>
</g>
<path d="M37.4209 12.9619L39.5303 9.49023H41.4287L38.3174 14.1924L41.5254 19H39.6445L37.4473 15.4404L35.25 19H33.3604L36.5684 14.1924L33.457 9.49023H35.3379L37.4209 12.9619ZM43.415 19V6.20312H47.0273C48.1406 6.20312 49.125 6.44922 49.9805 6.94141C50.8359 7.43359 51.4951 8.13379 51.958 9.04199C52.4268 9.9502 52.6641 10.9932 52.6699 12.1709V12.9883C52.6699 14.1953 52.4355 15.2529 51.9668 16.1611C51.5039 17.0693 50.8389 17.7666 49.9717 18.2529C49.1104 18.7393 48.1055 18.9883 46.957 19H43.415ZM45.1025 7.5918V17.6201H46.8779C48.1787 17.6201 49.1895 17.2158 49.9102 16.4072C50.6367 15.5986 51 14.4473 51 12.9531V12.2061C51 10.7529 50.6572 9.625 49.9717 8.82227C49.292 8.01367 48.3252 7.60352 47.0713 7.5918H45.1025ZM60.8438 19C60.75 18.8125 60.6738 18.4785 60.6152 17.998C59.8594 18.7832 58.957 19.1758 57.9082 19.1758C56.9707 19.1758 56.2002 18.9121 55.5967 18.3848C54.999 17.8516 54.7002 17.1777 54.7002 16.3633C54.7002 15.373 55.0752 14.6055 55.8252 14.0605C56.5811 13.5098 57.6416 13.2344 59.0068 13.2344H60.5889V12.4873C60.5889 11.9189 60.4189 11.4678 60.0791 11.1338C59.7393 10.7939 59.2383 10.624 58.5762 10.624C57.9961 10.624 57.5098 10.7705 57.1172 11.0635C56.7246 11.3564 56.5283 11.7109 56.5283 12.127H54.8936C54.8936 11.6523 55.0605 11.1953 55.3945 10.7559C55.7344 10.3105 56.1914 9.95898 56.7656 9.70117C57.3457 9.44336 57.9814 9.31445 58.6729 9.31445C59.7686 9.31445 60.627 9.58984 61.248 10.1406C61.8691 10.6855 62.1914 11.4385 62.2148 12.3994V16.7764C62.2148 17.6494 62.3262 18.3438 62.5488 18.8594V19H60.8438ZM58.1455 17.7607C58.6553 17.7607 59.1387 17.6289 59.5957 17.3652C60.0527 17.1016 60.3838 16.7588 60.5889 16.3369V14.3857H59.3145C57.3223 14.3857 56.3262 14.9688 56.3262 16.1348C56.3262 16.6445 56.4961 17.043 56.8359 17.3301C57.1758 17.6172 57.6123 17.7607 58.1455 17.7607ZM66.5303 19H64.9043V9.49023H66.5303V19ZM64.7725 6.96777C64.7725 6.7041 64.8516 6.48145 65.0098 6.2998C65.1738 6.11816 65.4141 6.02734 65.7305 6.02734C66.0469 6.02734 66.2871 6.11816 66.4512 6.2998C66.6152 6.48145 66.6973 6.7041 66.6973 6.96777C66.6973 7.23145 66.6152 7.45117 66.4512 7.62695C66.2871 7.80273 66.0469 7.89062 65.7305 7.89062C65.4141 7.89062 65.1738 7.80273 65.0098 7.62695C64.8516 7.45117 64.7725 7.23145 64.7725 6.96777Z" fill="black"/>
</g>
<defs>
<clipPath id="clip0">
<rect width="67" height="25" fill="white"/>
</clipPath>
<clipPath id="clip1">
<rect width="25" height="25" fill="white" transform="translate(-1)"/>
</clipPath>
</defs>
</svg>
