<svg width="110" height="110" viewBox="0 0 110 110" fill="none" xmlns="http://www.w3.org/2000/svg">
<mask id="path-1-inside-1_2209_42705" fill="white">
<path d="M107.877 93.0896C107.028 100.259 100.246 107.024 93.0896 107.877C67.6993 110.709 42.3048 110.709 16.9104 107.877C9.74553 107.028 2.98467 100.254 2.1272 93.0896C-0.709066 67.6993 -0.709066 42.3048 2.1272 16.9104C2.9723 9.74965 9.74553 2.97643 16.9104 2.1272C42.3048 -0.709066 67.6993 -0.709066 93.0896 2.1272C100.25 2.97643 107.024 9.74965 107.877 16.9104C110.709 42.3048 110.709 67.6993 107.877 93.0896Z"/>
</mask>
<path d="M107.877 93.0896C107.028 100.259 100.246 107.024 93.0896 107.877C67.6993 110.709 42.3048 110.709 16.9104 107.877C9.74553 107.028 2.98467 100.254 2.1272 93.0896C-0.709066 67.6993 -0.709066 42.3048 2.1272 16.9104C2.9723 9.74965 9.74553 2.97643 16.9104 2.1272C42.3048 -0.709066 67.6993 -0.709066 93.0896 2.1272C100.25 2.97643 107.024 9.74965 107.877 16.9104C110.709 42.3048 110.709 67.6993 107.877 93.0896Z" fill="white"/>
<path d="M107.877 93.0896L108.87 93.2072L108.871 93.2005L107.877 93.0896ZM93.0896 107.877L93.2005 108.871L93.208 108.87L93.0896 107.877ZM16.9104 107.877L16.7927 108.87L16.7996 108.871L16.9104 107.877ZM2.1272 93.0896L1.13335 93.2006L1.13428 93.2084L2.1272 93.0896ZM2.1272 16.9104L1.13407 16.7932L1.13338 16.7994L2.1272 16.9104ZM16.9104 2.1272L16.7994 1.13335L16.7927 1.13415L16.9104 2.1272ZM93.0896 2.1272L93.2074 1.13413L93.2006 1.13338L93.0896 2.1272ZM107.877 16.9104L108.871 16.7996L108.87 16.7921L107.877 16.9104ZM106.884 92.972C106.491 96.2924 104.711 99.5772 102.142 102.144C99.5727 104.711 96.2864 106.489 92.9712 106.884L93.208 108.87C97.0494 108.412 100.732 106.38 103.555 103.559C106.379 100.738 108.414 97.0558 108.87 93.2072L106.884 92.972ZM92.9788 106.883C67.6621 109.707 42.342 109.707 17.0212 106.883L16.7996 108.871C42.2677 111.711 67.7365 111.711 93.2005 108.871L92.9788 106.883ZM17.0281 106.884C13.7096 106.491 10.4268 104.713 7.8609 102.145C5.29506 99.577 3.51742 96.2906 3.12011 92.9708L1.13428 93.2084C1.59445 97.0535 3.62598 100.736 6.44615 103.558C9.26629 106.381 12.9464 108.414 16.7927 108.87L17.0281 106.884ZM3.12102 92.9786C0.292995 67.6621 0.292993 42.3421 3.12102 17.0214L1.13338 16.7994C-1.71112 42.2676 -1.71113 67.7365 1.13338 93.2006L3.12102 92.9786ZM3.1203 17.0276C3.5117 13.7113 5.2886 10.4265 7.85599 7.85909C10.4234 5.29171 13.7093 3.51361 17.0281 3.12025L16.7927 1.13415C12.9466 1.59001 9.26352 3.62314 6.44178 6.44487C3.62007 9.26658 1.5878 12.9488 1.13409 16.7932L3.1203 17.0276ZM17.0214 3.12102C42.3421 0.292993 67.6621 0.292995 92.9786 3.12102L93.2006 1.13338C67.7365 -1.71113 42.2676 -1.71112 16.7994 1.13338L17.0214 3.12102ZM92.9718 3.12024C96.2884 3.51357 99.5735 5.29159 102.142 7.85915C104.71 10.4267 106.489 13.7119 106.884 17.0287L108.87 16.7921C108.412 12.9482 106.378 9.26636 103.556 6.4448C100.733 3.62326 97.0515 1.59005 93.2074 1.13416L92.9718 3.12024ZM106.883 17.0212C109.707 42.342 109.707 67.6621 106.883 92.9788L108.871 93.2005C111.711 67.7365 111.711 42.2677 108.871 16.7996L106.883 17.0212Z" fill="black" mask="url(#path-1-inside-1_2209_42705)"/>
<g clip-path="url(#clip0_2209_42705)">
<path d="M43.377 71.2702V86.6109C43.377 89.111 45.4023 91.1304 47.8959 91.1304H63.2348C65.7345 91.1304 67.7537 89.1049 67.7537 86.6109V78.9405C67.7537 75.5707 69.1161 72.5232 71.3238 70.3212C73.5316 68.1132 76.5787 66.7507 79.9421 66.7507H87.6115C90.1112 66.7507 92.1304 64.7251 92.1304 62.2311V46.8965C92.1304 44.3964 90.1051 42.377 87.6115 42.377H72.2787C69.779 42.377 67.7598 44.4025 67.7598 46.8965V54.9379C67.7598 61.4647 62.4684 66.7507 55.9485 66.7507H47.9081C45.4083 66.7507 43.3891 68.7762 43.3891 71.2702H43.377Z" fill="#001405"/>
<path d="M19 46.8957V62.2345C19 64.7342 21.0253 66.7535 23.5189 66.7535H38.8578C41.3575 66.7535 43.3767 64.7282 43.3767 62.2345V54.5651C43.3767 51.1957 44.7391 48.1486 46.9469 45.9469C49.1547 43.7391 52.2017 42.3767 55.5651 42.3767H63.2345C65.7342 42.3767 67.7535 40.3514 67.7535 37.8578V22.5189C67.7535 20.0192 65.7282 18 63.2345 18H47.9018C45.402 18 43.3828 20.0253 43.3828 22.5189V30.5594C43.3828 37.0854 38.0915 42.3707 31.5715 42.3707H23.5189C21.0192 42.3707 19 44.396 19 46.8896V46.8957Z" fill="#001405"/>
</g>
<defs>
<clipPath id="clip0_2209_42705">
<rect width="73.1302" height="73.1302" fill="white" transform="translate(19 18)"/>
</clipPath>
</defs>
</svg>
