<svg width="91" height="90" viewBox="0 0 91 90" fill="none" xmlns="http://www.w3.org/2000/svg">
  <g>
    <path stroke-width="2" stroke="white" d="M72.24 4.57L53.42 32.5C53.115 32.9031 52.974 33.4068 53.0253 33.9096C53.0767 34.4125 53.3165 34.8773 53.6966 35.2105C54.0767 35.5438 54.5689 35.7207 55.0741 35.7057C55.5794 35.6908 56.0603 35.4851 56.42 35.13L74.94 19.13C75.0468 19.0321 75.1799 18.9677 75.323 18.9447C75.466 18.9218 75.6127 18.9414 75.7447 19.001C75.8768 19.0606 75.9884 19.1577 76.0658 19.2802C76.1431 19.4027 76.1829 19.5452 76.18 19.69V69.98C76.1785 70.1327 76.1304 70.2813 76.0422 70.4059C75.954 70.5305 75.8298 70.6253 75.6863 70.6775C75.5428 70.7296 75.3868 70.7368 75.2392 70.6979C75.0915 70.6591 74.9592 70.5761 74.86 70.46L18.86 3.46C17.966 2.38438 16.8475 1.51732 15.583 0.919625C14.3185 0.321925 12.9386 0.00805094 11.54 4.60669e-06H9.59C7.04657 4.60669e-06 4.60732 1.01038 2.80885 2.80885C1.01037 4.60732 0 7.04658 0 9.59V80.41C0 82.9534 1.01037 85.3927 2.80885 87.1912C4.60732 88.9896 7.04657 90 9.59 90V90C11.2288 89.9998 12.8402 89.5796 14.2705 88.7796C15.7008 87.9796 16.9021 86.8264 17.76 85.43L36.58 57.5C36.885 57.0969 37.026 56.5932 36.9747 56.0904C36.9233 55.5875 36.6835 55.1227 36.3034 54.7895C35.9233 54.4563 35.4311 54.2793 34.9259 54.2943C34.4206 54.3092 33.9397 54.5149 33.58 54.87L15.06 70.87C14.9532 70.9679 14.8201 71.0323 14.677 71.0553C14.534 71.0782 14.3873 71.0587 14.2553 70.999C14.1232 70.9394 14.0116 70.8423 13.9342 70.7198C13.8569 70.5974 13.8171 70.4549 13.82 70.31V20.07C13.8215 19.9173 13.8696 19.7687 13.9578 19.6441C14.046 19.5195 14.1702 19.4247 14.3137 19.3726C14.4572 19.3204 14.6132 19.3132 14.7608 19.3521C14.9085 19.3909 15.0408 19.474 15.14 19.59L71.14 86.59C72.0408 87.6559 73.1634 88.5124 74.4294 89.0997C75.6955 89.6869 77.0744 89.9908 78.47 89.99H80.47C81.7294 89.99 82.9764 89.742 84.1399 89.26C85.3034 88.7781 86.3606 88.0717 87.2512 87.1812C88.1417 86.2906 88.8481 85.2335 89.33 84.0699C89.8119 82.9064 90.06 81.6594 90.06 80.4V9.59C90.06 8.32556 89.81 7.0736 89.3243 5.90616C88.8386 4.73872 88.1269 3.67885 87.23 2.78755C86.3331 1.89625 85.2688 1.19111 84.0984 0.712708C82.9279 0.234309 81.6744 -0.00790639 80.41 4.60669e-06V4.60669e-06C78.7712 0.000201215 77.1598 0.420366 75.7295 1.2204C74.2992 2.02044 73.0979 3.17365 72.24 4.57Z" fill="black"/>
  </g>
</svg>
