<svg width="129" height="34" xmlns="http://www.w3.org/2000/svg">
  <g fill="none" fill-rule="evenodd">
    <rect fill="#FFE500" x="59" width="70" height="34" rx="3"/>
    <path d="M6 25H5v2H2v-2H.752V8.008H2V6h3v2.008h1V6h3v2.12c.178.026.356.056.536.092a5.96 5.96 0 0 1 1.872.696c.56.328 1.016.772 1.368 1.332.352.56.528 1.272.528 2.136 0 .944-.256 1.724-.768 2.34-.512.616-1.184 1.06-2.016 1.332v.048c.48.08.932.228 1.356.444a3.92 3.92 0 0 1 1.104.828c.312.336.56.728.744 1.176.184.448.276.952.276 1.512 0 .928-.184 1.708-.552 2.34a4.38 4.38 0 0 1-1.464 1.524 6.38 6.38 0 0 1-2.076.828c-.3.065-.602.117-.908.157V27H6v-2zm3.344-12.072c0-.576-.22-.996-.66-1.26-.44-.264-1.092-.396-1.956-.396H4.712v3.504H6.92c.768 0 1.364-.156 1.788-.468.424-.312.636-.772.636-1.38zm.552 6.744c0-.704-.264-1.192-.792-1.464S7.872 17.8 6.992 17.8h-2.28v3.888h2.304c.32 0 .652-.028.996-.084.344-.056.656-.156.936-.3s.508-.348.684-.612c.176-.264.264-.604.264-1.02zM16.712 25V8.008h11.424v3.48h-7.464v3.192h7.056v3.288h-7.056v3.528h7.896V25H16.712zm23.544-12.576a3.705 3.705 0 0 0-1.38-1.068c-.568-.264-1.116-.396-1.644-.396-.272 0-.548.024-.828.072-.28.048-.532.14-.756.276a1.87 1.87 0 0 0-.564.528c-.152.216-.228.492-.228.828 0 .288.06.528.18.72.12.192.296.36.528.504.232.144.508.276.828.396.32.12.68.244 1.08.372.576.192 1.176.404 1.8.636.624.232 1.192.54 1.704.924s.936.86 1.272 1.428c.336.568.504 1.276.504 2.124 0 .976-.18 1.82-.54 2.532a5.05 5.05 0 0 1-1.452 1.764 6.222 6.222 0 0 1-2.088 1.032 8.78 8.78 0 0 1-2.424.336 10.01 10.01 0 0 1-3.528-.636c-1.136-.424-2.08-1.028-2.832-1.812l2.688-2.736c.416.512.964.94 1.644 1.284.68.344 1.356.516 2.028.516.304 0 .6-.032.888-.096.288-.064.54-.168.756-.312.216-.144.388-.336.516-.576.128-.24.192-.528.192-.864 0-.32-.08-.592-.24-.816a2.344 2.344 0 0 0-.684-.612 5.51 5.51 0 0 0-1.104-.504c-.44-.152-.94-.316-1.5-.492a14.335 14.335 0 0 1-1.596-.624 5.342 5.342 0 0 1-1.392-.924 4.28 4.28 0 0 1-.984-1.368c-.248-.536-.372-1.188-.372-1.956 0-.944.192-1.752.576-2.424a5.007 5.007 0 0 1 1.512-1.656 6.495 6.495 0 0 1 2.112-.948c.784-.2 1.576-.3 2.376-.3.96 0 1.94.176 2.94.528a7.57 7.57 0 0 1 2.628 1.56l-2.616 2.76zm12.168-.912V25H48.32V11.512h-4.8V8.008h13.704v3.504h-4.8z" fill="#FFF"/><path d="M79.95 24.93l7.098-16.922h3.984L98.088 25h-4.56l-1.32-3.336h-6.576L84.384 25h-9.192l-3.672-6.744h-1.392V25h-4.032V8.008h6.48c.816 0 1.612.084 2.388.252a6.208 6.208 0 0 1 2.088.852c.616.4 1.108.928 1.476 1.584.368.656.552 1.472.552 2.448 0 1.152-.312 2.12-.936 2.904-.624.784-1.488 1.344-2.592 1.68l4.397 7.202zm-4.926-11.714c0-.4-.084-.724-.252-.972a1.726 1.726 0 0 0-.648-.576 2.815 2.815 0 0 0-.888-.276 6.55 6.55 0 0 0-.948-.072h-2.184v3.96h1.944c.336 0 .68-.028 1.032-.084.352-.056.672-.156.96-.3.288-.144.524-.352.708-.624.184-.272.276-.624.276-1.056zm13.944-.672l-2.16 5.832h4.272l-2.112-5.832zm16.368-1.032V25h-4.104V11.512h-4.8V8.008h13.704v3.504h-4.8zM112.008 25V8.008h11.424v3.48h-7.464v3.192h7.056v3.288h-7.056v3.528h7.896V25h-11.856z" fill="#101934"/>
  </g>
</svg>
