<svg id="bf-icon_toplogo"
     xmlns="http://www.w3.org/2000/svg"
     viewBox="0 0 6436 1024" width="100%" height="100%">
  <path fill="#f0bd42" d="M6152.192 721.700571l-142.116571 208.310858h-142.189715l213.211429-312.539429-213.211429-312.466286h142.189715l142.116571 208.237715 142.116571-208.237715H6436.571429l-213.211429 312.466286L6436.571429 930.011429h-142.262858l-142.116571-208.310858zM1055.012571 604.452571v-228.205714H616.228571v228.205714c0 120.246857 98.450286 218.112 219.428572 218.112 120.905143 0 219.355429-97.865143 219.355428-218.112zM1476.900571 0h204.434286c0 216.868571-163.620571 376.246857-381.074286 376.246857h-42.569142v228.205714c0 231.350857-189.293714 419.547429-422.034286 419.547429-232.813714 0-422.180571-188.196571-422.180572-419.547429v-228.205714h-28.306285C167.789714 376.246857 0 216.210286 0 0h203.337143c0 98.230857 80.457143 178.176 179.273143 178.176h30.866285V0h202.752v178.176h438.784V0h202.678858v178.176h40.009142A178.468571 178.468571 0 0 0 1476.900571 0z m602.550858 805.083429h263.533714c64.585143 0 111.250286-55.515429 113.517714-127.195429 2.048-68.608-41.984-129.170286-105.179428-136.118857H2079.451429v263.314286z m0-606.72v219.428571h229.010285c26.550857 0 49.664-9.289143 66.925715-26.843429 20.48-20.699429 31.451429-52.882286 30.72-88.283428-1.024-58.002286-41.618286-100.790857-101.083429-104.301714H2079.451429z m458.020571 624.932571c-42.934857 66.267429-111.104 105.764571-182.125714 105.764571h-400.603429V74.166857h342.966857c98.011429 0 169.545143 38.619429 212.626286 114.834286 54.052571 95.378286 36.571429 200.045714-46.592 279.917714l-3.657143 3.584 4.534857 2.340572c47.542857 25.088 76.214857 52.882286 93.184 90.112a271.872 271.872 0 0 1-20.333714 258.340571z m1518.665143-365.129143v124.196572h-386.121143v347.209142h-123.904V75.264h562.249143v123.904h-436.662857v258.925714h384.438857zM5652.187429 552.228571c0.731429-42.496 0.146286-92.452571-45.275429-120.685714-47.323429-29.476571-117.101714-25.746286-163.84 5.339429-35.254857 28.013714-36.864 64.950857-36.864 107.958857v25.380571h245.979429v-17.993143z m119.369142-25.819428s0.219429 125.074286 0 148.699428h-365.348571v3.657143c0 84.845714 15.945143 120.978286 70.875429 141.092572 61.293714 19.163429 129.170286 6.948571 176.859428-56.539429l97.572572 55.222857c-28.964571 49.152-84.699429 95.451429-154.697143 115.492572-102.326857 29.257143-226.157714-9.508571-281.892572-88.283429-23.552-33.426286-35.181714-71.68-35.474285-117.174857-0.292571-52.150857-0.219429-104.374857-0.146286-156.525714v-45.641143a231.643429 231.643429 0 0 1 179.931428-225.572572 334.336 334.336 0 0 1 73.947429-8.630857c65.974857 0 125.659429 21.869714 175.542857 64.658286 40.667429 34.889143 62.902857 100.644571 62.902857 169.545143zM4557.019429 629.979429l0.146285-88.576c1.389714-42.422857-20.406857-96.256-59.538285-113.225143-48.713143-17.993143-96.109714-14.994286-130.194286 8.484571-31.597714 21.796571-49.005714 58.953143-49.005714 104.594286V696.685714c-2.194286 40.521143 9.947429 73.362286 35.108571 94.939429 24.137143 20.553143 56.027429 27.940571 85.138286 27.940571 12.361143 0 24.137143-1.316571 34.742857-3.510857 53.248-11.117714 82.944-48.128 83.529143-104.301714l0.073143-81.700572z m43.739428-287.085715c49.810286 33.645714 81.92 92.964571 81.92 151.04v246.491429c0 105.325714-82.870857 172.690286-165.010286 192.731428-79.798857 19.456-151.405714 11.483429-219.136-24.210285-67.584-35.547429-103.716571-93.184-107.52-171.081143V515.803429c0.512-97.938286 48.859429-167.789714 139.922286-201.947429 90.185143-33.718857 193.682286-22.528 269.897143 29.037714zM3083.044571 730.697143l0.146286-190.756572c0.073143-130.779429 0.219429-254.317714-0.073143-383.926857 0-0.950857-0.219429-1.755429-0.365714-2.413714a4.827429 4.827429 0 0 1-0.219429-1.462857h123.026286v152.722286h143.213714v114.541714h-143.213714v292.132571c0 87.771429 53.174857 103.131429 143.213714 103.131429v119.442286c-165.376 0-265.654857-43.739429-265.654857-203.337143zM5051.245714 419.620571c-43.081143 11.849143-67.803429 46.445714-67.876571 94.866286-0.219429 114.395429-0.146286 346.697143-0.146286 405.723429v9.801143h-128.950857c-0.585143-32.694857-0.292571-284.525714 0.146286-413.257143 0.438857-120.978286 73.289143-202.678857 194.852571-218.697143 17.554286-2.267429 36.278857-3.876571 57.270857-4.754286 11.483429-0.585143 21.577143-0.365714 32.402286-0.146286 7.460571 0.073143 15.506286 0.292571 23.917714 0.146286v112.64c-9.801143 0.877714-19.529143 1.536-29.110857 2.267429-28.818286 2.121143-56.027429 4.096-82.505143 11.410285z m-2287.908571 509.44V384.804571h128.731428v544.256h-128.731428z m66.633143-786.651428c23.04 0.365714 42.788571 8.411429 57.051428 23.186286 14.628571 15.067429 22.308571 36.498286 21.796572 60.269714-0.512 23.405714-8.850286 43.300571-24.064 57.563428-14.628571 13.750857-34.157714 20.992-56.758857 20.992h-3.145143a79.798857 79.798857 0 0 1-56.32-24.722285A82.578286 82.578286 0 0 1 2746.660571 219.428571c1.609143-44.836571 35.84-76.946286 81.700572-76.946285h1.536z"></path></svg>
