<svg width="172" height="40" viewBox="0 0 172 40" fill="none" xmlns="http://www.w3.org/2000/svg">
<g clip-path="url(#clip0)">
<path fill-rule="evenodd" clip-rule="evenodd" d="M48.0808 20.1779C48.0808 16.0927 51.2638 12.623 55.4805 12.623C58.2165 12.623 59.9198 13.7703 61.26 15.1972L59.8921 16.6527C58.7471 15.4489 57.4069 14.5261 55.4523 14.5261C52.5205 14.5261 50.2866 17.016 50.2866 20.1779C50.2866 23.3115 52.5759 25.8019 55.5918 25.8019C57.4346 25.8019 58.803 24.8508 59.9479 23.6193L61.3718 24.9341C59.9198 26.5576 58.1888 27.7327 55.4805 27.7327C51.2638 27.7327 48.0808 24.2908 48.0808 20.1779Z" fill="white"/>
<path fill-rule="evenodd" clip-rule="evenodd" d="M63.7852 8.03286L65.935 6.97168V15.4493C66.8846 13.8827 68.3925 12.6234 70.8777 12.6234C74.3674 12.6234 76.406 14.974 76.406 18.4154V27.3971H74.2561V18.9467C74.2561 16.2606 72.8041 14.582 70.263 14.582C67.7778 14.582 65.935 16.4009 65.935 19.1152V27.3971H63.7852V8.03286Z" fill="white"/>
<path fill-rule="evenodd" clip-rule="evenodd" d="M89.5357 22.0811V20.7381C88.4744 20.4299 87.0782 20.1221 85.3191 20.1221C82.6385 20.1221 81.1029 21.2976 81.1029 23.0887C81.1029 24.907 82.7785 25.9706 84.733 25.9706C87.3854 25.9706 89.5357 24.3753 89.5357 22.0811ZM78.9253 23.1442C78.9253 20.0383 81.4382 18.4157 85.0955 18.4157C86.9388 18.4157 88.2232 18.667 89.5076 19.0313V18.5833C89.5076 16.0091 87.9442 14.6661 85.2355 14.6661C83.5322 14.6661 82.1919 15.0859 80.8516 15.7009L80.2097 13.9386C81.8012 13.2106 83.3368 12.707 85.459 12.707C87.4971 12.707 89.0887 13.267 90.1223 14.3023C91.1272 15.3094 91.6297 16.7089 91.6297 18.5555V27.3974H89.5076V25.2426C88.5026 26.5296 86.8552 27.7051 84.3141 27.7051C81.6058 27.7051 78.9253 26.1663 78.9253 23.1442Z" fill="white"/>
<path fill-rule="evenodd" clip-rule="evenodd" d="M95.2634 12.9318H97.4133V15.4499C98.3629 13.8828 99.8708 12.624 102.356 12.624C105.846 12.624 107.884 14.9746 107.884 18.416V27.3977H105.734V18.9473C105.734 16.2612 104.282 14.5826 101.741 14.5826C99.2561 14.5826 97.4133 16.4014 97.4133 19.1158V27.3977H95.2634V12.9318Z" fill="white"/>
<path fill-rule="evenodd" clip-rule="evenodd" d="M123.089 19.4231C123.089 16.457 120.519 14.5271 117.783 14.5271C115.047 14.5271 112.785 16.4297 112.785 19.4513C112.785 22.361 115.102 24.3756 117.783 24.3756C120.519 24.3756 123.089 22.3897 123.089 19.4231ZM111.249 29.9158L112.227 28.2367C113.874 29.44 115.717 30.0838 117.783 30.0838C120.966 30.0838 123.033 28.321 123.033 24.9351V23.2287C121.776 24.9073 120.016 26.2786 117.365 26.2786C113.902 26.2786 110.579 23.6763 110.579 19.4513C110.579 15.2264 113.93 12.624 117.365 12.624C120.073 12.624 121.832 13.9671 123.005 15.5341V12.9318H125.154V24.8796C125.154 27.1181 124.484 28.825 123.312 30C122.027 31.2871 120.101 31.9304 117.811 31.9304C115.41 31.9304 113.176 31.2588 111.249 29.9158Z" fill="white"/>
<path fill-rule="evenodd" clip-rule="evenodd" d="M139.585 19.3106C139.334 16.68 137.826 14.4414 134.978 14.4414C132.493 14.4414 130.595 16.5125 130.287 19.3106H139.585ZM135.369 25.8579C137.351 25.8579 138.748 25.0461 139.921 23.815L141.261 25.0188C139.809 26.6414 138.049 27.7322 135.313 27.7322C131.348 27.7322 128.109 24.6828 128.109 20.1779C128.109 15.9807 131.041 12.623 135.034 12.623C139.306 12.623 141.764 16.0367 141.764 20.2899C141.764 20.4856 141.764 20.7096 141.736 21.0456H130.287C130.595 24.095 132.829 25.8579 135.369 25.8579Z" fill="white"/>
<path fill-rule="evenodd" clip-rule="evenodd" d="M144.763 8.96594L146.913 7.9043V27.3975H144.763V8.96594Z" fill="white"/>
<path fill-rule="evenodd" clip-rule="evenodd" d="M150.845 8.03286L152.995 6.97168V27.3971H150.845V8.03286Z" fill="white"/>
<path fill-rule="evenodd" clip-rule="evenodd" d="M155.845 31.2309L156.571 29.5241C157.269 29.8879 157.911 30.0559 158.833 30.0559C160.117 30.0559 160.927 29.3843 161.793 27.3415L155.231 12.9316H157.605L162.853 24.9909L167.489 12.9316H169.778L163.719 27.8728C162.491 30.8672 161.095 31.9585 158.917 31.9585C157.716 31.9585 156.823 31.7067 155.845 31.2309Z" fill="white"/>
<path fill-rule="evenodd" clip-rule="evenodd" d="M20.2697 33.5803C19.9452 33.8848 19.608 34.1737 19.252 34.4363C18.5514 34.9747 17.8 35.4349 17.027 35.8415C16.2512 36.2448 15.4477 36.5859 14.6263 36.8707C13.8059 37.1572 12.9672 37.3883 12.1153 37.561C11.6931 37.6584 11.2611 37.7205 10.8347 37.7977L10.188 37.882L9.86539 37.9243L9.54042 37.9554L8.89094 38.0175L8.23818 38.0523C7.80473 38.0857 7.36752 38.0834 6.93219 38.0956C5.65672 38.1088 4.37796 38.0448 3.10155 37.9205C3.25042 37.7102 3.39694 37.4984 3.53829 37.2815C3.94732 36.6467 4.31409 35.9808 4.63625 35.3003C5.2721 33.9332 5.73279 32.5271 6.12821 31.1229C6.50813 29.7398 6.95097 28.3944 7.46849 27.0547C7.9921 25.7215 8.56926 24.401 9.24973 23.1177C8.7726 23.6674 8.34431 24.2589 7.93857 24.8655C7.53 25.4711 7.15197 26.0979 6.79647 26.7384C6.09299 28.0189 5.47592 29.3699 4.97484 30.7412C4.46625 32.0815 3.94075 33.4029 3.29034 34.6264C2.64884 35.8547 1.85191 36.9732 0.946027 38.0518L-0.000244141 39.1779L1.46777 39.3874C3.28047 39.6467 5.12136 39.7831 6.96647 39.7158C7.42763 39.6914 7.88832 39.6843 8.34901 39.6344L9.03887 39.569L9.72686 39.4749C10.1861 39.4231 10.6403 39.3191 11.0953 39.2382C11.5466 39.129 12.0017 39.0415 12.4454 38.9041C12.8935 38.7845 13.333 38.6316 13.7721 38.4843C14.206 38.3182 14.6385 38.1511 15.0603 37.9563C15.9046 37.5718 16.7189 37.121 17.4811 36.5963C18.2424 36.0721 18.9571 35.4805 19.5897 34.8132C20.2157 34.1441 20.7924 33.4184 21.1878 32.6005C20.9079 32.9554 20.5961 33.2768 20.2697 33.5803ZM30.4058 9.1451C30.9346 8.61569 31.6291 8.35075 32.3237 8.35075C33.0183 8.35075 33.7128 8.61569 34.2421 9.1451C35.2992 10.2053 35.2992 11.9296 34.2421 12.9893C33.1845 14.0491 31.4634 14.0491 30.4058 12.9893C29.8935 12.4759 29.6112 11.7936 29.6112 11.0675C29.6112 10.3413 29.8935 9.65899 30.4058 9.1451ZM32.3237 15.4453C33.4433 15.4453 34.5624 15.018 35.4147 14.1644C37.1185 12.4566 37.1185 9.67828 35.4147 7.97051C33.7109 6.26275 30.9379 6.26228 29.2332 7.97051C28.4076 8.79781 27.953 9.89757 27.953 11.0675C27.953 12.2369 28.4076 13.3371 29.2332 14.1644C30.0851 15.018 31.2046 15.4453 32.3237 15.4453ZM33.6007 21.7168C27.3497 27.226 24.7414 27.7545 22.1543 26.5474L24.9781 22.9723C25.3951 22.4491 25.698 21.8279 25.8535 21.1775L26.9928 16.4095L22.2346 17.5512C21.5852 17.7069 20.9657 18.0105 20.4468 18.426L16.8763 21.2575C15.6713 18.666 16.1987 16.0519 21.6965 9.78741C26.8908 3.86929 37.8831 2.51023 41.1408 2.23259C40.8632 5.49611 39.507 16.5112 33.6007 21.7168ZM29.439 30.2556C29.3854 30.5211 29.2333 30.7521 29.0102 30.9055C28.3509 31.3592 27.3365 31.9893 26.4367 32.5352C26.4513 32.4787 26.4663 32.4222 26.4809 32.3653C26.9186 30.6439 26.9139 29.3159 26.4696 28.4123C27.654 28.0514 28.9341 27.3883 30.3848 26.3963C30.0326 27.73 29.6273 29.322 29.439 30.2556ZM19.5513 27.1653C19.1789 27.6368 18.5994 27.9003 17.9992 27.8688L17.9766 27.8674L16.5561 27.8702L21.4842 21.9295L15.5553 26.8674L15.5586 25.4665L15.5572 25.4218C15.5262 24.8213 15.7882 24.2392 16.2593 23.866L21.4785 19.7267C21.8115 19.4603 22.2069 19.2669 22.6211 19.1672L24.7508 18.6561L24.2408 20.7902C24.1413 21.2053 23.9482 21.6011 23.6801 21.9385L19.5513 27.1653ZM11.07 16.9225C11.0132 16.9371 10.9564 16.9516 10.9005 16.9667C11.4453 16.0651 12.0736 15.0486 12.5268 14.3883C12.6799 14.1643 12.9105 14.0114 13.1753 13.9582C14.107 13.7695 15.6953 13.3634 17.0261 13.0109C16.0357 14.4646 15.375 15.7465 15.0153 16.9342C14.1136 16.4891 12.7888 16.4844 11.07 16.9225ZM42.0006 0.506938C41.3925 0.531409 27.0298 1.19494 20.4515 8.69047C19.7818 9.45282 19.177 10.1728 18.6299 10.8571C17.6766 11.1187 14.3278 12.0298 12.8475 12.3291C12.1577 12.4688 11.5584 12.8655 11.1597 13.4472C10.1524 14.9168 8.39325 17.9371 8.31858 18.0646L7.04311 20.2561L9.36582 19.2448C10.8874 18.5822 13.4411 17.9008 14.3522 18.4618C14.5015 18.5535 14.6579 18.706 14.6832 19.1352H14.6879C14.7058 20.2156 15.0007 21.2505 15.5455 22.3131L15.2299 22.5634C14.3451 23.2651 13.8492 24.3554 13.8999 25.4839L13.8919 29.5375L17.9372 29.5295C19.0671 29.5827 20.1514 29.0829 20.8521 28.1968L21.1015 27.8806C22.1618 28.4265 23.1945 28.7196 24.2732 28.738L24.2727 28.7446C24.701 28.77 24.8532 28.9267 24.9448 29.0763C25.5045 29.9893 24.8245 32.5483 24.1633 34.0731L23.1494 36.4034L25.3411 35.1225C25.4689 35.0481 28.4824 33.2848 29.949 32.2754C30.5289 31.8759 30.9253 31.2754 31.0648 30.5841C31.3634 29.1008 32.2726 25.746 32.5342 24.7898C33.217 24.242 33.9346 23.6354 34.6958 22.9643C42.1758 16.3723 42.838 1.98035 42.8624 1.37094L42.8986 0.470703L42.0006 0.506938Z" fill="#10D078"/>
</g>
<defs>
<clipPath id="clip0">
<rect width="172" height="40" fill="white"/>
</clipPath>
</defs>
</svg>
