<svg width="149" height="30" viewBox="0 0 149 30" fill="none" xmlns="http://www.w3.org/2000/svg">
<path fill-rule="evenodd" clip-rule="evenodd" d="M130.654 29.4136H140.806L136.224 16.4352L148.666 4.71289H138.897L132.835 11.2021L131.257 4.71289H121.245L125.371 16.5396L111.923 29.4136H121.762L128.645 22.1916L130.654 29.4136ZM93.607 29.4136H111.19L113.67 22.506H103.902L104.729 20.203H113.346L115.663 13.749H107.046L107.81 11.6205H116.985L119.465 4.71289H102.475L93.607 29.4136ZM72.57 29.4136H90.153L92.6332 22.506H82.8649L83.6911 20.203H92.3084L94.6261 13.749H86.0081L86.7722 11.6205H95.9479L98.4278 4.71289H81.4377L72.57 29.4136ZM55.6181 29.4136C62.9446 29.4136 71.0779 25.6106 74.1967 16.9235C77.591 7.46891 71.5677 4.71289 63.7879 4.71289H62.5567L60.0367 11.7601H61.8857C65.3746 11.7601 66.9539 13.6792 65.8139 16.854C64.436 20.6916 61.6616 22.2966 57.7892 22.2966H56.2543L60.0367 11.7601L53.767 6.97085L54.5776 4.71289L45.7102 29.4136H55.6181Z" fill="white"/>
<mask id="mask0" mask-type="alpha" maskUnits="userSpaceOnUse" x="0" y="4" width="38" height="26">
<path fill-rule="evenodd" clip-rule="evenodd" d="M0 4.71289H37.7507V29.4135H0V4.71289Z" fill="white"/>
</mask>
<g mask="url(#mask0)">
<path fill-rule="evenodd" clip-rule="evenodd" d="M19.789 12.9464H11.9247L17.8472 29.4136H25.8086L19.789 12.9464ZM5.9048 29.4136H13.8664L0 12.9464L5.9048 29.4136ZM34.6926 4.71289H26.7312L29.7891 29.4136H37.7507L34.6926 4.71289Z" fill="#1C1C1C"/>
<path fill-rule="evenodd" clip-rule="evenodd" d="M11.8276 12.9463H19.7892L13.8666 29.4135H5.90503L11.8276 12.9463Z" fill="#EE2222"/>
<path fill-rule="evenodd" clip-rule="evenodd" d="M26.7309 4.71289H34.6926L31.7311 12.9464L28.7697 21.1798L25.8083 29.4136H17.8469L20.8084 21.1798L23.7695 12.9464L26.7309 4.71289Z" fill="#EE2222"/>
<path fill-rule="evenodd" clip-rule="evenodd" d="M43.6741 12.9462L37.7509 29.4135H29.7893L35.7118 12.9462L38.6904 4.71245L30.7208 1.86061H39.8371L34.6465 0H56.2612L54.5846 4.71245L52.7166 3.28714L46.6355 4.71276L43.6741 12.9462Z" fill="#EE2222"/>
</g>
</svg>
