<svg width="203" height="43" viewBox="0 0 203 43" fill="none" xmlns="http://www.w3.org/2000/svg">
<path fill-rule="evenodd" clip-rule="evenodd" d="M39.5266 31.4611C37.109 31.4611 35.1494 29.4918 35.1494 27.0628V16.9041V16.199C35.1494 13.7697 33.1895 11.8007 30.7722 11.8007C28.3546 11.8007 26.824 13.77 26.824 16.199V17.1021V27.0625C26.824 29.4915 24.4348 31.4608 22.0175 31.4608C19.5999 31.4608 17.6403 29.4915 17.6403 27.0625V24.5825V16.9775C17.597 16.9533 17.5529 16.9315 17.5097 16.9077V16.199C17.5097 13.7697 15.9418 11.8007 13.5245 11.8007C11.1069 11.8007 9.14727 13.77 9.14727 16.199V17.0988C9.14727 17.0988 9.27783 27.3844 9.80066 30.2765C10.3232 33.1689 12.022 34.9505 14.2433 37.3169C16.4646 39.6832 13.0674 45.1318 8.62473 42.1081C4.18209 39.0844 1.92719 35.2451 1.17682 30.2765C0.412134 25.2178 0 16.2947 0 16.2947C0 16.2947 0.174376 13.0975 0.584173 12.3824C2.24001 6.98496 7.23118 3.06348 13.1322 3.06348C16.5271 3.06348 19.6212 4.3618 21.952 6.4922C24.2829 4.3618 27.377 3.06348 30.7722 3.06348C36.6729 3.06348 41.6641 6.98496 43.3199 12.3824C43.7297 13.0975 43.9041 16.2947 43.9041 16.2947V24.5828V27.0628C43.9041 29.4918 41.9442 31.4611 39.5266 31.4611Z" fill="#4D525D"/>
<path fill-rule="evenodd" clip-rule="evenodd" d="M13.5002 11.5381C15.9178 11.5381 17.8774 13.5074 17.8774 15.9365V26.0951V26.8002C17.8774 29.2296 19.8373 31.1989 22.2546 31.1989C24.6722 31.1989 26.6321 29.2296 26.6321 26.8002V25.8972V15.9365C26.6321 13.5074 28.5917 11.5381 31.0093 11.5381C33.4269 11.5381 35.3868 13.5074 35.3868 15.9365V18.4165V26.0215C35.43 26.0456 35.4741 26.0674 35.5173 26.0913V26.8002C35.5173 29.2296 37.0852 31.1989 39.5026 31.1989C41.9202 31.1989 43.8798 29.2296 43.8798 26.8002V25.9004C43.8798 25.9004 43.7492 15.6148 43.2264 12.7228C42.7035 9.83068 41.005 8.04873 38.7837 5.6824C36.5624 3.31608 39.9597 -2.13259 44.4023 0.89114C48.8449 3.91487 51.0998 7.75419 51.8502 12.7228C52.6143 17.7815 53.0261 26.7045 53.0261 26.7045C53.0261 26.7045 52.8518 29.9017 52.442 30.6169C50.7861 36.0143 45.795 39.9358 39.8939 39.9358C36.499 39.9358 33.405 38.6375 31.0741 36.5071C28.7433 38.6375 25.6492 39.9358 22.254 39.9358C16.3533 39.9358 11.3621 36.0143 9.70624 30.6169C9.29645 29.9017 9.12207 26.7045 9.12207 26.7045V18.4165V15.9365C9.12295 13.5074 11.0826 11.5381 13.5002 11.5381Z" fill="#FCD600"/>
<path d="M87.1609 9.17236C86.6325 8.81626 85.9198 8.63806 85.0222 8.63806H83.5647C82.6879 8.63806 82.0517 8.71788 81.6556 8.87723C81.2596 9.03657 80.9666 9.32375 80.7765 9.73817C80.5863 10.1526 80.3699 10.828 80.1269 11.7631L76.7524 24.5664L73.3779 11.7631C73.1349 10.828 72.9185 10.1529 72.7283 9.73817C72.5382 9.32375 72.2452 9.03657 71.8491 8.87723C71.4531 8.71788 70.8166 8.63806 69.9401 8.63806H68.4826C67.5847 8.63806 66.8717 8.81626 66.3439 9.17236C65.8158 9.52845 65.5518 10.2168 65.5518 11.2371V29.7323C65.5518 30.636 65.7521 31.3084 66.1537 31.7493C66.5551 32.1903 67.0727 32.4112 67.7062 32.4112C68.361 32.4112 68.8865 32.1879 69.2826 31.7417C69.6786 31.2952 69.8767 30.6257 69.8767 29.7326V13.5969L73.5996 28.4888C73.7264 28.9777 73.8502 29.4481 73.972 29.8999C74.0932 30.3518 74.2597 30.7635 74.4709 31.1355C74.6821 31.5078 74.978 31.8133 75.358 32.0524C75.7383 32.2916 76.203 32.4112 76.7521 32.4112C77.4809 32.4112 78.0513 32.225 78.4631 31.853C78.875 31.481 79.1574 31.0692 79.3108 30.6174C79.4638 30.1656 79.6619 29.4564 79.9049 28.4888L83.6278 13.5969V29.7326C83.6278 30.6254 83.8285 31.2952 84.2298 31.7417C84.6311 32.1882 85.1432 32.4112 85.7665 32.4112C86.4318 32.4112 86.9626 32.1879 87.3586 31.7417C87.7547 31.2952 87.9527 30.6257 87.9527 29.7326V11.2371C87.9527 10.2165 87.6887 9.52845 87.1609 9.17236ZM107.74 8.23955C107.36 8.23955 107.037 8.30877 106.773 8.44691C106.509 8.58505 106.269 8.78445 106.052 9.04482C105.836 9.30549 105.638 9.58442 105.458 9.8819C105.279 10.1797 105.057 10.5464 104.793 10.982L100.405 18.0771L96.0643 10.982C95.3989 9.8872 94.8997 9.15645 94.567 8.78975C94.2344 8.42305 93.7457 8.23955 93.1016 8.23955C92.4891 8.23955 91.9742 8.4363 91.5571 8.82951C91.1397 9.22302 90.9314 9.69045 90.9314 10.2327C90.9314 10.5623 91.0345 10.9502 91.2405 11.3967C91.4464 11.8432 91.7975 12.465 92.294 13.2623L97.9655 22.1114V29.5256C97.9655 30.5037 98.1819 31.2292 98.6151 31.7019C99.0479 32.1747 99.6131 32.4115 100.31 32.4115C100.996 32.4115 101.562 32.1723 102.005 31.694C102.449 31.2156 102.671 30.4928 102.671 29.5256V22.1111L108.485 13.1345C108.971 12.4011 109.314 11.827 109.515 11.4126C109.715 10.9982 109.816 10.5835 109.816 10.1691C109.816 9.65893 109.618 9.21006 109.222 8.82186C108.825 8.43365 108.331 8.23955 107.74 8.23955ZM146.284 8.23955C145.672 8.23955 145.204 8.3989 144.882 8.71788C144.56 9.03687 144.333 9.39827 144.201 9.80208C144.069 10.2062 143.929 10.764 143.782 11.4762L140.739 25.1246L137.302 12.3534C137.017 11.301 136.789 10.5464 136.62 10.0893C136.451 9.63243 136.148 9.20976 135.709 8.82186C135.271 8.43395 134.656 8.23985 133.864 8.23985C133.082 8.23985 132.464 8.426 132.01 8.798C131.556 9.17029 131.229 9.61122 131.028 10.1214C130.827 10.6315 130.6 11.3758 130.347 12.3537L126.941 25.1246L123.899 11.4762C123.678 10.4239 123.418 9.62153 123.123 9.06868C122.827 8.51612 122.252 8.23955 121.396 8.23955C120.773 8.23955 120.25 8.44691 119.828 8.86132C119.405 9.27574 119.194 9.78617 119.194 10.392C119.194 10.8704 119.31 11.5667 119.542 12.4806L123.408 28.2175C123.524 28.6855 123.656 29.1927 123.804 29.7403C123.952 30.2878 124.142 30.7606 124.374 31.1594C124.606 31.5579 124.91 31.8666 125.285 32.0842C125.66 32.3019 126.138 32.4112 126.719 32.4112C127.437 32.4112 128.013 32.228 128.446 31.8613C128.879 31.4946 129.182 31.0799 129.357 30.6177C129.531 30.1553 129.766 29.3927 130.062 28.3297L133.864 14.3147L137.619 28.3297C137.925 29.4245 138.162 30.198 138.332 30.6495C138.5 31.1014 138.801 31.5081 139.235 31.8692C139.668 32.2306 140.243 32.4115 140.961 32.4115C141.722 32.4115 142.311 32.2253 142.728 31.8533C143.145 31.4813 143.441 31.048 143.615 30.5538C143.789 30.0596 144.008 29.2811 144.273 28.2181L148.138 12.4812C148.37 11.5245 148.486 10.8285 148.486 10.3926C148.486 9.77616 148.273 9.26337 147.845 8.85396C147.417 8.44426 146.897 8.23955 146.284 8.23955ZM154.126 8.23955C153.44 8.23955 152.88 8.47872 152.447 8.95705C152.014 9.43538 151.798 10.1529 151.798 11.1095V29.525C151.798 30.4816 152.017 31.2018 152.455 31.6854C152.893 32.1691 153.45 32.4109 154.126 32.4109C154.834 32.4109 155.407 32.1717 155.845 31.6934C156.283 31.215 156.503 30.4922 156.503 29.525V11.1095C156.503 10.1426 156.283 9.42213 155.845 8.9491C155.407 8.47636 154.834 8.23955 154.126 8.23955ZM177.042 19.9905C176.298 19.4591 175.395 19.0073 174.333 18.6353C173.272 18.2633 172.086 17.9234 170.776 17.615C169.731 17.3493 168.981 17.1473 168.527 17.0091C168.073 16.871 167.624 16.6799 167.18 16.4351C166.737 16.1906 166.388 15.8984 166.135 15.5583C165.881 15.2184 165.754 14.8142 165.754 14.3465C165.754 13.5919 166.127 12.9463 166.871 12.4093C167.616 11.8727 168.595 11.6041 169.81 11.6041C171.119 11.6041 172.07 11.8512 172.662 12.3454C173.253 12.8397 173.76 13.528 174.182 14.4101C174.51 15.0266 174.813 15.4705 175.094 15.7415C175.373 16.0124 175.783 16.1479 176.321 16.1479C176.913 16.1479 177.406 15.9223 177.802 15.4702C178.198 15.0187 178.396 14.5112 178.396 13.9474C178.396 13.3309 178.238 12.6986 177.921 12.05C177.604 11.4017 177.102 10.7823 176.416 10.1923C175.729 9.60238 174.866 9.12965 173.826 8.77326C172.785 8.41716 171.553 8.23926 170.127 8.23926C168.342 8.23926 166.789 8.50788 165.469 9.04453C164.148 9.58147 163.14 10.3493 162.443 11.3484C161.746 12.3478 161.397 13.4903 161.397 14.7765C161.397 16.1267 161.727 17.256 162.387 18.1646C163.047 19.0736 163.94 19.7908 165.065 20.3171C166.19 20.8432 167.586 21.3032 169.255 21.6961C170.501 21.983 171.497 22.2543 172.241 22.5094C172.986 22.7644 173.593 23.1338 174.063 23.6174C174.533 24.1013 174.768 24.7311 174.768 25.5069C174.768 26.485 174.333 27.3006 173.461 27.9542C172.59 28.6078 171.457 28.9347 170.063 28.9347C169.049 28.9347 168.23 28.7727 167.607 28.4484C166.984 28.1245 166.501 27.7124 166.158 27.2129C165.814 26.7133 165.495 26.0915 165.199 25.3472C164.956 24.7202 164.663 24.2471 164.32 23.9282C163.977 23.6092 163.557 23.4498 163.061 23.4498C162.448 23.4498 161.944 23.6545 161.548 24.0636C161.152 24.4731 160.954 24.9643 160.954 25.5384C160.954 26.5269 161.284 27.5448 161.944 28.5916C162.604 29.6387 163.462 30.4758 164.518 31.1028C166.007 31.9747 167.898 32.4103 170.19 32.4103C172.101 32.4103 173.754 32.0913 175.148 31.4536C176.543 30.8159 177.601 29.9338 178.325 28.8069C179.048 27.6803 179.41 26.4099 179.41 24.9962C179.41 23.8162 179.201 22.8198 178.784 22.0066C178.368 21.1942 177.787 20.5221 177.042 19.9905ZM202.343 8.9491C201.904 8.47636 201.331 8.23955 200.624 8.23955C199.927 8.23955 199.364 8.47872 198.937 8.95705C198.509 9.43538 198.295 10.1529 198.295 11.1095V17.8062H188.14V11.1095C188.14 10.1426 187.92 9.42213 187.482 8.9491C187.044 8.47636 186.471 8.23955 185.763 8.23955C185.045 8.23955 184.477 8.47872 184.06 8.95705C183.643 9.43538 183.435 10.1529 183.435 11.1095V29.525C183.435 30.4816 183.646 31.2018 184.068 31.6854C184.491 32.1691 185.056 32.4109 185.763 32.4109C186.461 32.4109 187.031 32.1717 187.474 31.6934C187.918 31.215 188.14 30.4922 188.14 29.525V21.6646H198.295V29.5253C198.295 30.4819 198.506 31.2021 198.929 31.6857C199.351 32.1694 199.916 32.4112 200.624 32.4112C201.321 32.4112 201.891 32.172 202.335 31.6937C202.778 31.2153 203 30.4925 203 29.525V11.1095C203 10.1423 202.781 9.42213 202.343 8.9491Z" fill="white"/>
</svg>
