<svg width="267" height="57" viewBox="0 0 267 57" fill="none" xmlns="http://www.w3.org/2000/svg">
<g clip-path="url(#clip0)">
<path fill-rule="evenodd" clip-rule="evenodd" d="M51.9882 41.7049C48.8084 41.7049 46.231 39.0945 46.231 35.8746V22.4085V21.4738C46.231 18.2534 43.6532 15.6434 40.4737 15.6434C37.2939 15.6434 35.2809 18.2538 35.2809 21.4738V22.6708V35.8742C35.2809 39.0941 32.1383 41.7045 28.9589 41.7045C25.7791 41.7045 23.2017 39.0941 23.2017 35.8742V32.5867V22.5057C23.1449 22.4737 23.0869 22.4448 23.03 22.4131V21.4738C23.03 18.2534 20.9678 15.6434 17.7883 15.6434C14.6086 15.6434 12.0311 18.2538 12.0311 21.4738V22.6665C12.0311 22.6665 12.2029 36.3009 12.8905 40.1346C13.5778 43.9687 15.8122 46.3304 18.7338 49.4672C21.6554 52.6039 17.1871 59.8266 11.3439 55.8184C5.50058 51.8102 2.53477 46.7208 1.54783 40.1346C0.542068 33.4289 0 21.6006 0 21.6006C0 21.6006 0.229351 17.3625 0.768345 16.4145C2.94622 9.25977 9.51096 4.06152 17.2724 4.06152C21.7376 4.06152 25.8072 5.78256 28.8729 8.60658C31.9386 5.78256 36.0081 4.06152 40.4737 4.06152C48.2348 4.06152 54.7995 9.25977 56.9774 16.4145C57.5164 17.3625 57.7458 21.6006 57.7458 21.6006V32.5871V35.8746C57.7458 39.0945 55.168 41.7049 51.9882 41.7049Z" fill="#4D525D"/>
<path fill-rule="evenodd" clip-rule="evenodd" d="M17.7564 15.2947C20.9362 15.2947 23.5136 17.9052 23.5136 21.1251V34.5912V35.5259C23.5136 38.7462 26.0914 41.3567 29.2708 41.3567C32.4506 41.3567 35.0284 38.7462 35.0284 35.5259V34.3288V21.1251C35.0284 17.9052 37.6058 15.2947 40.7856 15.2947C43.9654 15.2947 46.5432 17.9052 46.5432 21.1251V24.4126V34.4936C46.6001 34.5256 46.6581 34.5545 46.715 34.5861V35.5259C46.715 38.7462 48.7772 41.3567 51.9566 41.3567C55.1364 41.3567 57.7138 38.7462 57.7138 35.5259V34.3331C57.7138 34.3331 57.5421 20.6987 56.8544 16.8651C56.1668 13.0314 53.9328 10.6692 51.0112 7.53249C48.0895 4.39573 52.5578 -2.82693 58.4011 1.18128C64.2444 5.18948 67.2102 10.2788 68.1971 16.8651C69.2021 23.5708 69.7438 35.399 69.7438 35.399C69.7438 35.399 69.5145 39.6372 68.9755 40.5852C66.7976 47.7399 60.2328 52.9381 52.4714 52.9381C48.0062 52.9381 43.9366 51.2171 40.8709 48.3931C37.8052 51.2171 33.7357 52.9381 29.2701 52.9381C21.509 52.9381 14.9443 47.7399 12.7664 40.5852C12.2274 39.6372 11.998 35.399 11.998 35.399V24.4126V21.1251C11.9992 17.9052 14.5766 15.2947 17.7564 15.2947Z" fill="#FCD600"/>
<path d="M114.64 12.1588C113.945 11.6867 113.008 11.4505 111.827 11.4505H109.91C108.757 11.4505 107.92 11.5563 107.399 11.7676C106.878 11.9788 106.493 12.3595 106.243 12.9088C105.993 13.4581 105.708 14.3534 105.388 15.593L100.95 32.5649L96.5118 15.593C96.1922 14.3534 95.9075 13.4585 95.6574 12.9088C95.4073 12.3595 95.022 11.9788 94.501 11.7676C93.9801 11.5563 93.143 11.4505 91.9901 11.4505H90.0731C88.8921 11.4505 87.9543 11.6867 87.2601 12.1588C86.5656 12.6308 86.2183 13.5433 86.2183 14.8957V39.4127C86.2183 40.6106 86.4818 41.5019 87.01 42.0864C87.5379 42.6709 88.2187 42.9637 89.0519 42.9637C89.9132 42.9637 90.6044 42.6678 91.1253 42.0763C91.6462 41.4844 91.9067 40.5969 91.9067 39.4131V18.0239L96.8034 37.7643C96.9701 38.4124 97.133 39.0359 97.2932 39.6349C97.4526 40.2338 97.6716 40.7796 97.9494 41.2727C98.2271 41.7662 98.6163 42.1711 99.1161 42.4882C99.6163 42.8052 100.228 42.9637 100.95 42.9637C101.908 42.9637 102.659 42.717 103.2 42.2238C103.742 41.7307 104.113 41.1849 104.315 40.586C104.516 39.987 104.777 39.0469 105.097 37.7643L109.993 18.0239V39.4131C109.993 40.5965 110.257 41.4844 110.785 42.0763C111.313 42.6681 111.986 42.9637 112.806 42.9637C113.681 42.9637 114.379 42.6678 114.9 42.0763C115.421 41.4844 115.682 40.5969 115.682 39.4131V14.8957C115.682 13.5429 115.334 12.6308 114.64 12.1588ZM141.707 10.9223C141.207 10.9223 140.783 11.014 140.436 11.1971C140.088 11.3802 139.772 11.6446 139.488 11.9897C139.203 12.3353 138.943 12.705 138.706 13.0993C138.47 13.4941 138.178 13.9802 137.831 14.5576L132.059 23.9628L126.35 14.5576C125.475 13.1064 124.819 12.1377 124.381 11.6516C123.944 11.1655 123.301 10.9223 122.454 10.9223C121.648 10.9223 120.971 11.1831 120.422 11.7043C119.873 12.2259 119.599 12.8455 119.599 13.5643C119.599 14.0012 119.735 14.5154 120.006 15.1073C120.277 15.6992 120.738 16.5234 121.392 17.5804L128.851 29.3106V39.1386C128.851 40.4353 129.136 41.3969 129.705 42.0235C130.275 42.6502 131.018 42.9641 131.935 42.9641C132.838 42.9641 133.581 42.6471 134.165 42.013C134.748 41.3789 135.04 40.4208 135.04 39.1386V29.3102L142.687 17.4109C143.326 16.4387 143.777 15.6778 144.042 15.1284C144.305 14.5791 144.438 14.0293 144.438 13.48C144.438 12.8038 144.177 12.2087 143.656 11.6942C143.135 11.1796 142.485 10.9223 141.707 10.9223ZM192.404 10.9223C191.598 10.9223 190.983 11.1335 190.56 11.5563C190.136 11.9792 189.837 12.4582 189.664 12.9935C189.49 13.5292 189.306 14.2687 189.112 15.2128L185.11 33.3047L180.589 16.3755C180.214 14.9804 179.915 13.9802 179.693 13.3742C179.47 12.7686 179.071 12.2084 178.495 11.6942C177.918 11.18 177.109 10.9227 176.067 10.9227C175.039 10.9227 174.226 11.1694 173.629 11.6625C173.032 12.156 172.601 12.7405 172.337 13.4168C172.073 14.093 171.774 15.0796 171.441 16.3759L166.962 33.3047L162.961 15.2128C162.669 13.8177 162.329 12.7542 161.94 12.0213C161.551 11.2889 160.794 10.9223 159.669 10.9223C158.849 10.9223 158.161 11.1971 157.606 11.7465C157.05 12.2958 156.772 12.9724 156.772 13.7756C156.772 14.4096 156.924 15.3326 157.23 16.5441L162.314 37.4047C162.467 38.0251 162.641 38.6974 162.835 39.4232C163.03 40.1491 163.28 40.7757 163.586 41.3044C163.891 41.8326 164.291 42.2418 164.784 42.5303C165.277 42.8189 165.905 42.9637 166.67 42.9637C167.614 42.9637 168.371 42.7209 168.941 42.2348C169.51 41.7487 169.91 41.1989 170.139 40.5863C170.369 39.9734 170.677 38.9625 171.067 37.5535L176.067 18.9754L181.006 37.5535C181.408 39.0047 181.721 40.03 181.943 40.6285C182.165 41.2274 182.561 41.7666 183.131 42.2453C183.701 42.7244 184.458 42.9641 185.402 42.9641C186.402 42.9641 187.177 42.7173 187.726 42.2242C188.275 41.7311 188.664 41.1568 188.893 40.5016C189.122 39.8465 189.41 38.8146 189.757 37.4055L194.842 16.5449C195.147 15.2768 195.3 14.3542 195.3 13.7763C195.3 12.9592 195.019 12.2794 194.456 11.7367C193.893 11.1936 193.209 10.9223 192.404 10.9223ZM202.718 10.9223C201.815 10.9223 201.079 11.2393 200.509 11.8734C199.94 12.5074 199.655 13.4585 199.655 14.7267V39.1378C199.655 40.406 199.943 41.3606 200.52 42.0017C201.096 42.6428 201.829 42.9633 202.718 42.9633C203.648 42.9633 204.402 42.6463 204.979 42.0122C205.555 41.3782 205.843 40.42 205.843 39.1378V14.7267C205.843 13.4449 205.555 12.4899 204.979 11.8628C204.402 11.2362 203.648 10.9223 202.718 10.9223ZM232.859 26.4991C231.879 25.7947 230.691 25.1958 229.295 24.7027C227.899 24.2096 226.34 23.759 224.617 23.3502C223.242 22.998 222.255 22.7302 221.658 22.5471C221.061 22.364 220.471 22.1106 219.887 21.7861C219.304 21.4621 218.845 21.0747 218.512 20.6238C218.179 20.1732 218.012 19.6376 218.012 19.0175C218.012 18.0173 218.502 17.1614 219.481 16.4497C220.46 15.7383 221.749 15.3822 223.346 15.3822C225.068 15.3822 226.318 15.7098 227.097 16.3649C227.875 17.0201 228.541 17.9325 229.097 19.1019C229.527 19.9191 229.927 20.5074 230.295 20.8666C230.663 21.2258 231.202 21.4054 231.91 21.4054C232.688 21.4054 233.337 21.1064 233.858 20.5071C234.379 19.9085 234.64 19.2358 234.64 18.4885C234.64 17.6713 234.431 16.8331 234.014 15.9733C233.598 15.114 232.938 14.2929 232.035 13.5109C231.132 12.7288 229.996 12.1022 228.628 11.6297C227.26 11.1577 225.638 10.9219 223.762 10.9219C221.415 10.9219 219.373 11.278 217.636 11.9893C215.9 12.7011 214.573 13.719 213.656 15.0433C212.739 16.3681 212.281 17.8826 212.281 19.5876C212.281 21.3773 212.715 22.8743 213.583 24.0788C214.451 25.2836 215.625 26.2343 217.105 26.9321C218.584 27.6294 220.421 28.2392 222.616 28.7601C224.255 29.1404 225.565 29.4999 226.544 29.8381C227.523 30.1762 228.322 30.6658 228.94 31.3069C229.558 31.9484 229.867 32.7831 229.867 33.8115C229.867 35.1082 229.295 36.1893 228.148 37.0556C227.002 37.922 225.512 38.3554 223.679 38.3554C222.345 38.3554 221.268 38.1407 220.449 37.7108C219.629 37.2813 218.994 36.7351 218.542 36.0729C218.091 35.4107 217.67 34.5865 217.282 33.5999C216.962 32.7687 216.577 32.1416 216.125 31.7188C215.674 31.2959 215.122 31.0847 214.469 31.0847C213.663 31.0847 213 31.3561 212.479 31.8984C211.958 32.4411 211.698 33.0923 211.698 33.8533C211.698 35.1636 212.132 36.5129 213 37.9005C213.868 39.2885 214.997 40.3982 216.386 41.2294C218.344 42.3851 220.831 42.9625 223.845 42.9625C226.359 42.9625 228.534 42.5397 230.368 41.6944C232.201 40.8491 233.594 39.6798 234.545 38.186C235.497 36.6925 235.973 35.0086 235.973 33.1345C235.973 31.5704 235.698 30.2496 235.15 29.1716C234.602 28.0948 233.838 27.2038 232.859 26.4991ZM266.135 11.8628C265.559 11.2362 264.805 10.9223 263.874 10.9223C262.958 10.9223 262.218 11.2393 261.655 11.8734C261.093 12.5074 260.811 13.4585 260.811 14.7267V23.6036H247.455V14.7267C247.455 13.4449 247.166 12.4899 246.59 11.8628C246.013 11.2362 245.26 10.9223 244.329 10.9223C243.384 10.9223 242.638 11.2393 242.089 11.8734C241.54 12.5074 241.266 13.4585 241.266 14.7267V39.1378C241.266 40.406 241.544 41.3606 242.1 42.0017C242.655 42.6428 243.399 42.9633 244.329 42.9633C245.246 42.9633 245.996 42.6463 246.58 42.0122C247.163 41.3782 247.455 40.42 247.455 39.1378V28.7183H260.811V39.1382C260.811 40.4064 261.089 41.361 261.645 42.0021C262.2 42.6432 262.944 42.9637 263.874 42.9637C264.791 42.9637 265.541 42.6467 266.125 42.0126C266.708 41.3785 267 40.4204 267 39.1378V14.7267C267 13.4445 266.711 12.4899 266.135 11.8628Z" fill="#4D525D"/>
</g>
<defs>
<clipPath id="clip0">
<rect width="267" height="57" fill="white"/>
</clipPath>
</defs>
</svg>
