<svg width="233" height="30" viewBox="0 0 233 30" fill="none" xmlns="http://www.w3.org/2000/svg">
<path d="M166.791 23.5025C161.993 23.5025 158.423 19.7561 158.423 15.0146C158.423 10.3317 161.934 6.49756 166.908 6.49756C169.951 6.49756 171.764 7.55122 173.343 9.0439L171.5 11.1805C170.184 9.95123 168.78 9.13171 166.908 9.13171C163.748 9.13171 161.495 11.7073 161.495 14.9561C161.495 18.2049 163.777 20.839 166.908 20.839C168.926 20.839 170.213 20.0195 171.617 18.7025L173.46 20.5756C171.764 22.361 169.892 23.5025 166.791 23.5025ZM178.874 16.2731V23.2098H175.977V6.76097H178.874V13.6098H186.714V6.76097H189.61V23.2098H186.714V16.2731H178.874ZM209.037 23.2098H205.994L204.297 19.2292H196.515L194.818 23.2098H191.864L199.089 6.6439H201.752L209.037 23.2098ZM200.406 10.0976L197.598 16.6829H203.244L200.406 10.0976ZM214.274 6.76097V23.2098H211.378V6.76097H214.274ZM229.78 6.76097H232.618V23.2098H230.189L221.119 11.5024V23.2098H218.282V6.76097H220.944L229.75 18.1171V6.76097H229.78ZM6.78746 14.9854L3.39376 18.3805L0 14.9854L3.39376 11.5902L6.78746 14.9854ZM14.9792 6.79025L20.772 12.5854L24.1658 9.19024L14.9792 0L5.79277 9.19024L9.18654 12.5854L14.9792 6.79025ZM26.5648 11.6195L23.171 15.0146L26.5648 18.4097L29.9586 15.0146L26.5648 11.6195ZM14.9792 23.2098L9.18654 17.4146L5.79277 20.8097L14.9792 30L24.1658 20.8097L20.772 17.4146L14.9792 23.2098ZM14.9792 18.3805L18.373 14.9854L14.9792 11.5902L11.5855 14.9854L14.9792 18.3805ZM50.6721 18.7025V18.6439C50.6721 16.4487 49.5018 15.3366 47.6 14.6049C48.7703 13.961 49.7651 12.9074 49.7651 11.0634V11.0342C49.7651 8.45854 47.6879 6.79025 44.3527 6.79025H36.7167V23.2098H44.5281C48.2437 23.2098 50.6721 21.7171 50.6721 18.7025ZM46.1665 11.678C46.1665 12.9074 45.1719 13.4049 43.5627 13.4049H40.2275V9.92195H43.7967C45.3181 9.92195 46.1665 10.5366 46.1665 11.6195V11.678ZM47.1027 18.2634C47.1027 19.4926 46.1373 20.0487 44.5575 20.0487H40.2567V16.4195H44.4405C46.2837 16.4195 47.1027 17.0926 47.1027 18.2049V18.2634ZM58.2495 23.2098V6.79025H54.6216V23.2098H58.2495ZM77.6757 23.2098V6.79025H74.1064V16.8877L66.4119 6.76097H63.0768V23.1805H66.646V12.7318L74.6038 23.1805H77.6757V23.2098ZM97.687 23.2098L90.6363 6.67317H87.301L80.2503 23.2098H83.9366L85.4286 19.522H92.3623L93.8545 23.2098H97.687ZM91.1336 16.3318H86.7744L88.9686 11.0049L91.1336 16.3318ZM114.919 23.2098V6.79025H111.35V16.8877L103.655 6.76097H100.32V23.1805H103.889V12.7318L111.847 23.1805H114.919V23.2098ZM133.584 20.5464L131.273 18.2341C129.986 19.4049 128.845 20.1659 126.943 20.1659C124.135 20.1659 122.175 17.8244 122.175 15.0146V14.9561C122.175 12.1463 124.164 9.83415 126.943 9.83415C128.581 9.83415 129.869 10.5366 131.157 11.678L133.467 9.01464C131.946 7.52195 130.103 6.46829 127.002 6.46829C121.97 6.46829 118.43 10.3024 118.43 14.9561V15.0146C118.43 19.7269 122.028 23.4731 126.856 23.4731C130.015 23.5025 131.888 22.361 133.584 20.5464ZM148.973 23.2098V19.9902H140.05V16.5366H147.803V13.3171H140.05V9.98049H148.856V6.76097H136.481V23.1805H148.973V23.2098Z" fill="white"/>
</svg>
