<svg width="184" height="40" viewBox="0 0 184 40" fill="none" xmlns="http://www.w3.org/2000/svg">
<path d="M12.2852 29.681V39.5978L24.5792 22.4995L12.2852 29.681Z" fill="white"/>
<path d="M12.2852 14.6669V27.3885L24.5792 20.1897L12.2852 14.6669Z" fill="white"/>
<path d="M12.2852 0V14.6668L24.5792 20.1896L12.2852 0Z" fill="white"/>
<path d="M12.2853 29.681V39.5978L0 22.4995L12.2853 29.681Z" fill="white"/>
<path d="M12.2853 14.6669V27.3885L0 20.1897L12.2853 14.6669Z" fill="white"/>
<path d="M12.2853 0V14.6668L0 20.1896L12.2853 0Z" fill="white"/>
<path d="M40.1249 20.3489C40.2856 22.7041 42.2301 25.6641 45.5406 25.6641C47.8065 25.6641 49.1724 24.6297 50.1366 23.2929C50.3134 23.0542 50.683 23.0224 50.9241 23.1656C51.0526 23.2452 51.149 23.3725 51.1973 23.5157C51.2294 23.659 51.1973 23.8181 51.1169 23.9454C50.233 25.2504 48.3689 26.9054 45.4602 26.7622C43.3229 26.7622 41.7641 25.6482 40.6231 24.4387C39.7071 23.4521 39 21.7811 39 19.776C39 17.8026 39.6107 16.1953 40.8159 14.9699C42.0212 13.7446 43.4675 12.8693 45.4602 12.8693C47.4529 12.8693 48.9153 13.6173 50.0723 14.8426C51.5508 16.4181 51.9526 18.0413 52.0168 19.7441C52.0168 19.9033 51.9686 20.0465 51.8561 20.1579C51.7436 20.2693 51.599 20.3329 51.4544 20.3329C48.8671 20.3489 40.1249 20.3489 40.1249 20.3489ZM45.4602 13.9674C43.9818 13.9833 42.889 14.6198 41.9408 15.4474C40.9927 16.2749 40.3499 17.8345 40.1892 19.2826H50.7312C50.6509 17.8345 49.9438 16.4977 49.0921 15.5906C48.2564 14.6994 47.3726 13.9515 45.4602 13.9674Z" fill="white"/>
<path d="M92.3192 20.3485C92.4639 22.7197 94.4244 25.6637 97.7349 25.6796C100.001 25.6796 101.367 24.6453 102.331 23.3085C102.508 23.0698 102.877 23.0379 103.118 23.1812C103.247 23.2607 103.343 23.388 103.392 23.5313C103.424 23.6745 103.392 23.8336 103.311 23.961C102.427 25.2659 100.563 26.9209 97.6545 26.7777C95.5172 26.7777 93.9584 25.6637 92.8174 24.4543C91.9014 23.4676 91.1943 21.7966 91.1943 19.7915C91.1943 17.8182 91.805 16.2109 93.0103 14.9855C94.2155 13.7601 95.6619 12.8849 97.6545 12.8849C99.6473 12.8849 101.11 13.6328 102.267 14.8582C103.745 16.4337 104.147 18.0569 104.211 19.7597C104.211 19.9188 104.163 20.062 104.05 20.1734C103.938 20.2848 103.793 20.3485 103.649 20.3485C101.045 20.3485 92.3192 20.3485 92.3192 20.3485ZM97.6545 13.967C96.1761 13.9829 95.0833 14.6195 94.1352 15.447C93.187 16.2745 92.5442 17.8341 92.3835 19.2823H102.926C102.845 17.8341 102.138 16.4973 101.286 15.5902C100.435 14.6991 99.5669 13.9511 97.6545 13.967Z" fill="white"/>
<path d="M124.623 20.3485C124.768 22.7197 126.728 25.6637 130.039 25.6796C132.305 25.6796 133.67 24.6453 134.635 23.3085C134.811 23.0698 135.181 23.0379 135.422 23.1812C135.551 23.2607 135.647 23.388 135.695 23.5313C135.727 23.6745 135.695 23.8336 135.615 23.961C134.731 25.2659 132.867 26.9209 129.958 26.7777C127.821 26.7777 126.262 25.6637 125.121 24.4543C124.205 23.4676 123.498 21.7966 123.498 19.7915C123.498 17.8182 124.109 16.2109 125.314 14.9855C126.519 13.7601 127.966 12.8849 129.958 12.8849C131.951 12.8849 133.413 13.6328 134.57 14.8582C136.049 16.4337 136.451 18.0569 136.515 19.7597C136.515 19.9188 136.467 20.062 136.354 20.1734C136.242 20.2848 136.097 20.3485 135.952 20.3485C133.349 20.3485 124.623 20.3485 124.623 20.3485ZM129.958 13.967C128.48 13.9829 127.387 14.6195 126.439 15.447C125.491 16.2745 124.848 17.8341 124.687 19.2823H135.229C135.149 17.8341 134.442 16.4973 133.59 15.5902C132.738 14.6991 131.871 13.9511 129.958 13.967Z" fill="white"/>
<path d="M62.5898 14.2054V26.0772C62.5898 26.3636 62.3487 26.6024 62.0595 26.6024C61.7702 26.6024 61.5291 26.3636 61.5291 26.0772V14.2054H58.524C58.2508 14.2054 58.0098 13.9826 58.0098 13.6962C58.0098 13.4256 58.2347 13.1869 58.524 13.1869H61.5291V8.79469C61.5291 8.50824 61.7702 8.26953 62.0595 8.26953H62.0755C62.3487 8.26953 62.5898 8.49233 62.5898 8.77878V13.2028H65.6913C65.9645 13.2028 66.2056 13.4256 66.2056 13.7121C66.2056 13.9826 65.9806 14.2213 65.6913 14.2213H62.5898V14.2054Z" fill="white"/>
<path d="M79.5621 13.0443C77.473 12.7578 75.4803 13.4421 74.1143 15.686V2.50925C74.1143 2.23871 73.8894 2 73.6001 2H73.584C73.2948 2 73.0537 2.23871 73.0537 2.52516V26.0778C73.0537 26.3643 73.2948 26.6029 73.584 26.6029C73.8733 26.6029 74.1143 26.3643 74.1143 26.0778V18.1208C74.1143 15.8929 76.9748 13.4899 79.5621 14.0628C81.2334 14.4288 82.8887 16.0679 82.8887 18.6937V26.0778C82.8887 26.3643 83.1297 26.6029 83.419 26.6029C83.7082 26.6029 83.9493 26.3643 83.9493 26.0778V18.7097C84.0939 16.4658 82.5351 13.4421 79.5621 13.0443Z" fill="white"/>
<path d="M148.085 26.8257C150.175 27.1122 152.167 26.4279 153.533 24.184V26.0778C153.533 26.3483 153.758 26.587 154.047 26.587H154.064C154.353 26.587 154.594 26.3483 154.594 26.0619V13.7922C154.594 13.5058 154.353 13.2671 154.064 13.2671C153.774 13.2671 153.533 13.5058 153.533 13.7922L153.597 20.301C153.597 23.6748 150.946 26.3801 148.15 25.7913C146.478 25.4412 144.759 23.818 144.759 21.1922V13.8081C144.759 13.5217 144.518 13.283 144.229 13.283C143.939 13.283 143.698 13.5217 143.698 13.8081V21.1763C143.714 23.9135 145.128 26.4279 148.085 26.8257Z" fill="white"/>
<path d="M178.618 13.0438C176.561 12.7574 173.974 13.6486 172.881 16.5131C172.254 14.858 170.824 13.3144 168.783 13.0438C166.694 12.7574 164.685 13.394 163.319 15.6219V13.7281C163.319 13.4576 163.094 13.2189 162.805 13.2189H162.789C162.5 13.2189 162.259 13.4576 162.259 13.7441V26.0137C162.259 26.3001 162.5 26.5389 162.789 26.5389C163.078 26.5389 163.319 26.3001 163.319 26.0137L163.255 19.5049C163.255 16.1311 165.939 13.4894 168.719 14.0782C170.326 14.4124 171.981 15.9402 172.11 18.3909V26.0137C172.11 26.0296 172.11 26.0455 172.11 26.0614C172.11 26.3479 172.431 26.5866 172.72 26.5866C173.01 26.5866 173.251 26.3479 173.251 26.0614V24.2791C173.251 23.1174 173.267 21.5737 173.267 20.3802C173.267 16.7359 174.922 13.5053 178.57 14.0623C180.257 14.317 181.961 16.0357 181.961 18.6615V26.0455C181.961 26.332 182.202 26.5707 182.491 26.5707C182.78 26.5707 183.021 26.332 183.021 26.0455V18.6774C183.15 16.4653 181.575 13.4417 178.618 13.0438Z" fill="white"/>
<path d="M118.017 13.776C118.017 13.6169 117.953 13.4737 117.825 13.3623C117.696 13.2668 117.535 13.2509 117.375 13.2509C115.205 13.2986 113.148 15.0651 112.634 16.4018V13.6806C112.634 13.41 112.409 13.1713 112.12 13.1713H112.104C111.814 13.1713 111.573 13.41 111.573 13.6965V25.982C111.573 26.2685 111.814 26.5072 112.104 26.5072C112.393 26.5072 112.634 26.2685 112.634 25.982L112.666 19.8393C112.666 16.8952 114.964 14.3967 117.616 14.2694C117.841 14.2535 118.017 14.0147 118.017 13.776Z" fill="white"/>
</svg>
