<svg width="153" height="319" viewBox="0 0 153 319" fill="none" xmlns="http://www.w3.org/2000/svg">
<path d="M170.445 131.797V193.829L116.713 162.813L170.445 131.797Z" stroke="white" stroke-opacity="0.25"/>
<path d="M170.445 131.689V131.797L116.713 162.813H116.604V100.673L170.445 131.689Z" stroke="white" stroke-opacity="0.25"/>
<path d="M170.445 7.51749V69.6574L116.604 38.5332L170.445 7.51749Z" stroke="white" stroke-opacity="0.25"/>
<path d="M170.445 69.6574L116.713 100.673H116.604V38.5332L170.445 69.6574Z" stroke="white" stroke-opacity="0.25"/>
<path d="M170.445 69.6574V131.689L116.713 100.673L170.445 69.6574Z" stroke="white" stroke-opacity="0.25"/>
<path d="M170.445 193.829V255.969L116.604 224.844L170.445 193.829Z" stroke="white" stroke-opacity="0.25"/>
<path d="M170.445 255.969L116.713 286.984H116.604V224.844L170.445 255.969Z" stroke="white" stroke-opacity="0.25"/>
<path d="M170.445 255.969V318L116.713 286.984L170.445 255.969Z" stroke="white" stroke-opacity="0.25"/>
<path d="M170.445 193.829L116.604 224.844V162.813H116.713L170.445 193.829Z" stroke="white" stroke-opacity="0.25"/>
<path d="M170.445 131.797V193.829L116.713 162.813L170.445 131.797Z" stroke="white" stroke-opacity="0.25"/>
<path d="M170.445 131.689V131.797L116.713 162.813H116.604V100.673L170.445 131.689Z" stroke="white" stroke-opacity="0.25"/>
<path d="M116.605 100.673V162.813L62.7646 131.689L116.605 100.673Z" stroke="white" stroke-opacity="0.25"/>
<path d="M116.605 162.813L62.8732 193.829H62.7646V131.689L116.605 162.813Z" stroke="white" stroke-opacity="0.25"/>
<path d="M170.445 131.689V131.797L116.713 162.813H116.604V100.673L170.445 131.689Z" stroke="white" stroke-opacity="0.25"/>
<path d="M62.7642 7.51749V69.6574L8.92383 38.5332L62.7642 7.51749Z" stroke="white" stroke-opacity="0.25"/>
<path d="M116.605 100.673L62.7646 131.689V69.6574H62.8732L116.605 100.673Z" stroke="white" stroke-opacity="0.25"/>
<path d="M26.0748 100.673L1 115.205V86.2497L26.0748 100.673Z" stroke="white" stroke-opacity="0.25"/>
<path d="M49.6664 -7.43187L32.5156 2.43677V-17.3005L49.6664 -7.43187Z" stroke="white" stroke-opacity="0.25"/>
<path d="M116.605 38.6416V100.673L62.873 69.6573L116.605 38.6416Z" stroke="white" stroke-opacity="0.25"/>
<path d="M116.605 38.5332V38.6417L62.8732 69.6574H62.7646V7.51749L116.605 38.5332Z" stroke="white" stroke-opacity="0.25"/>
<path d="M62.7642 193.829V255.969L8.92383 224.844L62.7642 193.829Z" stroke="white" stroke-opacity="0.25"/>
<path d="M116.605 286.984L62.7646 318V255.969H62.8732L116.605 286.984Z" stroke="white" stroke-opacity="0.25"/>
<path d="M116.605 224.953V286.984L62.873 255.969L116.605 224.953Z" stroke="white" stroke-opacity="0.25"/>
<path d="M116.605 224.844V224.953L62.8732 255.969H62.7646V193.829L116.605 224.844Z" stroke="white" stroke-opacity="0.25"/>
<path d="M116.605 100.673V162.813L62.7646 131.689L116.605 100.673Z" stroke="white" stroke-opacity="0.25"/>
<path d="M116.605 162.813L62.8732 193.829H62.7646V131.689L116.605 162.813Z" stroke="white" stroke-opacity="0.25"/>
<path d="M116.605 162.813V224.844L62.873 193.829L116.605 162.813Z" stroke="white" stroke-opacity="0.25"/>
<path d="M170.445 193.829L116.604 224.844V162.813H116.713L170.445 193.829Z" stroke="white" stroke-opacity="0.25"/>
<path d="M170.445 131.689V131.797L116.713 162.813H116.604V100.673L170.445 131.689Z" stroke="white" stroke-opacity="0.25"/>
</svg>
