<svg width="161" height="280" viewBox="0 0 161 280" fill="none" xmlns="http://www.w3.org/2000/svg">
<g opacity="0.25">
<path d="M-27.9951 162.623V116.41L12.0073 139.557L-27.9951 162.623Z" stroke="white"/>
<path d="M-27.9951 116.41L11.9267 93.3442H12.0073V139.557L-27.9951 116.41Z" stroke="white"/>
<path d="M12.0068 139.476L12.0068 93.3442L51.9286 116.41L12.0068 139.476Z" stroke="white"/>
<path d="M12.0068 139.557V139.476L51.9286 116.41H52.0093V162.623L12.0068 139.557Z" stroke="white"/>
<path d="M12.0068 231.901L12.0068 185.689L52.0093 208.835L12.0068 231.901Z" stroke="white"/>
<path d="M12.0068 185.689L51.9286 162.623H52.0093V208.835L12.0068 185.689Z" stroke="white"/>
<path d="M25.2344 235.692L38.7029 227.949V243.515L25.2344 235.692Z" stroke="white"/>
<path d="M12.0068 185.689L12.0068 139.557L51.9286 162.623L12.0068 185.689Z" stroke="white"/>
<path d="M-27.9951 162.623L12.0073 139.557V185.689L-27.9951 162.623Z" stroke="white"/>
<path d="M-27.9951 208.755V162.623L12.0073 185.689L-27.9951 208.755Z" stroke="white"/>
<path d="M-27.9951 255.048V254.967L12.0073 231.901V278.194L-27.9951 255.048Z" stroke="white"/>
<path d="M12.0068 93.3443L12.0068 47.1318L52.0093 70.2784L12.0068 93.3443Z" stroke="white"/>
<path d="M12.0068 47.1319L51.9286 24.066H52.0093V70.2785L12.0068 47.1319Z" stroke="white"/>
<path d="M12.0068 47.1318L12.0068 1L51.9286 24.0659L12.0068 47.1318Z" stroke="white"/>
<path d="M-27.9951 24.0659L12.0073 1V47.1318L-27.9951 24.0659Z" stroke="white"/>
<path d="M-27.9951 70.1979V24.066L12.0073 47.1319L-27.9951 70.1979Z" stroke="white"/>
<path d="M-27.9951 70.2784V70.1977L12.0073 47.1318V93.3443L-27.9951 70.2784Z" stroke="white"/>
<path d="M-27.9951 162.623V116.41L12.0073 139.557L-27.9951 162.623Z" stroke="white"/>
<path d="M-27.9951 116.41L11.9267 93.3444H12.0073V139.557L-27.9951 116.41Z" stroke="white"/>
<path d="M-27.9951 116.41V70.2784L11.9267 93.3443L-27.9951 116.41Z" stroke="white"/>
<path d="M12.0068 93.3443L52.0093 70.2784V116.41H51.9286L12.0068 93.3443Z" stroke="white"/>
<path d="M12.0068 139.476L12.0068 93.3444L51.9286 116.41L12.0068 139.476Z" stroke="white"/>
<path d="M12.0068 139.557V139.476L51.9286 116.41H52.0093V162.623L12.0068 139.557Z" stroke="white"/>
<path d="M52.0098 162.623V116.41L92.0122 139.557L52.0098 162.623Z" stroke="white"/>
<path d="M52.0098 116.41L91.9315 93.3442H92.0122V139.557L52.0098 116.41Z" stroke="white"/>
<path d="M12.0068 139.557V139.476L51.9286 116.41H52.0093V162.623L12.0068 139.557Z" stroke="white"/>
<path d="M92.0117 139.476V93.3442L131.934 116.41L92.0117 139.476Z" stroke="white"/>
<path d="M143.789 125.766V107.055L160 116.41L143.789 125.766Z" stroke="white"/>
<path d="M92.0117 231.901V185.689L132.014 208.835L92.0117 231.901Z" stroke="white"/>
<path d="M52.0098 162.623L92.0122 139.557V185.689H91.9315L52.0098 162.623Z" stroke="white"/>
<path d="M52.0098 208.755V162.623L91.9315 185.689L52.0098 208.755Z" stroke="white"/>
<path d="M52.0098 208.835V208.754L91.9315 185.689H92.0122V231.901L52.0098 208.835Z" stroke="white"/>
<path d="M92.0117 93.3443V47.1318L132.014 70.2784L92.0117 93.3443Z" stroke="white"/>
<path d="M52.0098 24.0659L92.0122 1V47.1318H91.9315L52.0098 24.0659Z" stroke="white"/>
<path d="M52.0098 70.1979V24.066L91.9315 47.1319L52.0098 70.1979Z" stroke="white"/>
<path d="M52.0098 70.2784V70.1977L91.9315 47.1318H92.0122V93.3443L52.0098 70.2784Z" stroke="white"/>
<path d="M52.0098 162.623V116.41L92.0122 139.557L52.0098 162.623Z" stroke="white"/>
<path d="M52.0098 116.41L91.9315 93.3444H92.0122V139.557L52.0098 116.41Z" stroke="white"/>
<path d="M52.0098 116.41V70.2784L91.9315 93.3443L52.0098 116.41Z" stroke="white"/>
<path d="M12.0068 93.3443L52.0093 70.2784V116.41H51.9286L12.0068 93.3443Z" stroke="white"/>
<path d="M12.0068 139.557V139.476L51.9286 116.41H52.0093V162.623L12.0068 139.557Z" stroke="white"/>
</g>
</svg>
