<svg width="200" height="321" viewBox="0 0 200 321" fill="none" xmlns="http://www.w3.org/2000/svg">
<path d="M224.286 102.673V164.813L170.445 133.689L224.286 102.673Z" stroke="white"/>
<path d="M224.286 164.813L170.554 195.829H170.445V133.689L224.286 164.813Z" stroke="white"/>
<path d="M170.445 133.797V195.829L116.713 164.813L170.445 133.797Z" stroke="white"/>
<path d="M170.445 133.689V133.797L116.713 164.813H116.604V102.673L170.445 133.689Z" stroke="white"/>
<path d="M170.445 9.51749V71.6574L116.604 40.5332L170.445 9.51749Z" stroke="white"/>
<path d="M170.445 71.6574L116.713 102.673H116.604V40.5332L170.445 71.6574Z" stroke="white"/>
<path d="M170.445 71.6574V133.689L116.713 102.673L170.445 71.6574Z" stroke="white"/>
<path d="M224.286 102.673L170.445 133.689V71.6574H170.554L224.286 102.673Z" stroke="white"/>
<path d="M224.286 40.6416V102.673L170.554 71.6573L224.286 40.6416Z" stroke="white"/>
<path d="M224.286 -21.6067V-21.4983L170.554 9.51744H170.445V-52.6224L224.286 -21.6067Z" stroke="white"/>
<path d="M170.445 195.829V257.969L116.604 226.844L170.445 195.829Z" stroke="white"/>
<path d="M170.445 257.969L116.713 288.984H116.604V226.844L170.445 257.969Z" stroke="white"/>
<path d="M170.445 257.969V320L116.713 288.984L170.445 257.969Z" stroke="white"/>
<path d="M224.286 288.984L170.445 320V257.969H170.554L224.286 288.984Z" stroke="white"/>
<path d="M224.286 226.953V288.984L170.554 257.969L224.286 226.953Z" stroke="white"/>
<path d="M224.286 226.844V226.953L170.554 257.969H170.445V195.829L224.286 226.844Z" stroke="white"/>
<path d="M224.286 102.673V164.813L170.445 133.689L224.286 102.673Z" stroke="white"/>
<path d="M224.286 164.813L170.554 195.829H170.445V133.689L224.286 164.813Z" stroke="white"/>
<path d="M224.286 164.813V226.844L170.554 195.829L224.286 164.813Z" stroke="white"/>
<path d="M170.445 195.829L116.604 226.844V164.813H116.713L170.445 195.829Z" stroke="white"/>
<path d="M170.445 133.797V195.829L116.713 164.813L170.445 133.797Z" stroke="white"/>
<path d="M170.445 133.689V133.797L116.713 164.813H116.604V102.673L170.445 133.689Z" stroke="white"/>
<path d="M116.605 102.673V164.813L62.7646 133.689L116.605 102.673Z" stroke="white"/>
<path d="M116.605 164.813L62.8732 195.829H62.7646V133.689L116.605 164.813Z" stroke="white"/>
<path d="M170.445 133.689V133.797L116.713 164.813H116.604V102.673L170.445 133.689Z" stroke="white"/>
<path d="M62.7642 9.51749V71.6574L8.92383 40.5332L62.7642 9.51749Z" stroke="white"/>
<path d="M116.605 102.673L62.7646 133.689V71.6574H62.8732L116.605 102.673Z" stroke="white"/>
<path d="M26.0748 102.673L1 117.205V88.2497L26.0748 102.673Z" stroke="white"/>
<path d="M49.6664 -5.43187L32.5156 4.43677V-15.3005L49.6664 -5.43187Z" stroke="white"/>
<path d="M116.605 40.6416V102.673L62.873 71.6573L116.605 40.6416Z" stroke="white"/>
<path d="M116.605 40.5332V40.6417L62.8732 71.6574H62.7646V9.51749L116.605 40.5332Z" stroke="white"/>
<path d="M62.7642 195.829V257.969L8.92383 226.844L62.7642 195.829Z" stroke="white"/>
<path d="M116.605 288.984L62.7646 320V257.969H62.8732L116.605 288.984Z" stroke="white"/>
<path d="M116.605 226.953V288.984L62.873 257.969L116.605 226.953Z" stroke="white"/>
<path d="M116.605 226.844V226.953L62.8732 257.969H62.7646V195.829L116.605 226.844Z" stroke="white"/>
<path d="M116.605 102.673V164.813L62.7646 133.689L116.605 102.673Z" stroke="white"/>
<path d="M116.605 164.813L62.8732 195.829H62.7646V133.689L116.605 164.813Z" stroke="white"/>
<path d="M116.605 164.813V226.844L62.873 195.829L116.605 164.813Z" stroke="white"/>
<path d="M170.445 195.829L116.604 226.844V164.813H116.713L170.445 195.829Z" stroke="white"/>
<path d="M170.445 133.689V133.797L116.713 164.813H116.604V102.673L170.445 133.689Z" stroke="white"/>
</svg>
