<svg width="38" height="38" viewBox="0 0 38 38" fill="none" xmlns="http://www.w3.org/2000/svg">
<path d="M19 38C29.4934 38 38 29.4934 38 19C38 8.50659 29.4934 0 19 0C8.50659 0 0 8.50659 0 19C0 29.4934 8.50659 38 19 38Z" fill="white"/>
<path d="M7.29838 18.0296L11.7522 19.7074L13.476 25.3026C13.5863 25.6614 14.0204 25.7939 14.3083 25.5558L16.7913 23.5134C17.0514 23.2993 17.4219 23.2888 17.6938 23.4877L22.1713 26.7687C22.4798 26.995 22.9163 26.8247 22.9936 26.4484L26.2735 10.5237C26.3585 10.113 25.9585 9.77057 25.571 9.92167L7.29307 17.0384C6.84237 17.214 6.84591 17.8586 7.29838 18.0296Z" fill="black" fill-opacity="0.25"/>
<path fill-rule="evenodd" clip-rule="evenodd" d="M11.7952 19.8221L7.34135 18.1443C6.88888 17.9734 6.88534 17.3287 7.33604 17.1531L25.6139 10.0364C26.0015 9.8853 26.4015 10.2277 26.3165 10.6384L23.0366 26.5631C22.9593 26.9394 22.5228 27.1098 22.2143 26.8834L17.7368 23.6025C17.4649 23.4035 17.0944 23.414 16.8342 23.6281L14.3513 25.6706C14.0634 25.9086 13.6292 25.7762 13.5189 25.4174L11.7952 19.8221ZM21.945 13.5186L13.2409 18.9289C12.907 19.1372 12.75 19.5438 12.858 19.9242L13.7989 23.2618C13.8656 23.498 14.206 23.4741 14.2384 23.2297L14.4832 21.3996C14.5292 21.0548 14.692 20.7374 14.9445 20.5L22.1279 13.7607C22.2624 13.6347 22.1014 13.4212 21.945 13.5186Z" fill="#4AA956"/>
</svg>
