<svg width="38" height="38" viewBox="0 0 38 38" fill="none" xmlns="http://www.w3.org/2000/svg">
<path d="M19 38C29.4934 38 38 29.4934 38 19C38 8.50659 29.4934 0 19 0C8.50659 0 0 8.50659 0 19C0 29.4934 8.50659 38 19 38Z" fill="#4AA956"/>
<path fill-rule="evenodd" clip-rule="evenodd" d="M11.7522 19.7074L7.29838 18.0295C6.84591 17.8586 6.84237 17.214 7.29307 17.0384L25.571 9.92165C25.9585 9.77055 26.3585 10.113 26.2735 10.5237L22.9936 26.4484C22.9163 26.8247 22.4798 26.995 22.1713 26.7687L17.6938 23.4877C17.4219 23.2888 17.0514 23.2993 16.7913 23.5134L14.3083 25.5558C14.0204 25.7938 13.5863 25.6614 13.476 25.3026L11.7522 19.7074ZM21.9021 13.4039L13.1979 18.8142C12.864 19.0225 12.7071 19.4291 12.815 19.8095L13.7559 23.147C13.8226 23.3833 14.163 23.3594 14.1954 23.1149L14.4402 21.2848C14.4863 20.9401 14.6491 20.6227 14.9016 20.3853L22.0849 13.646C22.2194 13.52 22.0584 13.3064 21.9021 13.4039Z" fill="white"/>
</svg>
