<svg width="38" height="38" viewBox="0 0 38 38" fill="none" xmlns="http://www.w3.org/2000/svg">
<path d="M19 38C29.4934 38 38 29.4934 38 19C38 8.50659 29.4934 0 19 0C8.50659 0 0 8.50659 0 19C0 29.4934 8.50659 38 19 38Z" fill="#4AA956"/>
<path d="M30 12.1294C29.1899 12.4912 28.3214 12.736 27.4082 12.8458C28.3405 12.2836 29.0541 11.3914 29.3924 10.3324C28.518 10.8532 27.553 11.2312 26.5242 11.4358C25.701 10.5514 24.5299 10 23.2308 10C20.7385 10 18.7174 12.0358 18.7174 14.5444C18.7174 14.9008 18.7573 15.2482 18.8341 15.5806C15.0837 15.391 11.7587 13.5808 9.53267 10.831C9.14369 11.5012 8.9227 12.2818 8.9227 13.1158C8.9227 14.6926 9.71971 16.0846 10.9295 16.8988C10.1897 16.8736 9.49454 16.669 8.88517 16.3282V16.3852C8.88517 18.5866 10.4417 20.4244 12.5051 20.8426C12.1268 20.9446 11.7283 21.0016 11.3161 21.0016C11.0242 21.0016 10.7425 20.9728 10.4661 20.917C11.0409 22.7242 12.707 24.0382 14.6811 24.0742C13.1371 25.2928 11.191 26.017 9.07638 26.017C8.71183 26.017 8.35323 25.9948 8 25.9546C9.99729 27.247 12.3687 28 14.9176 28C23.2195 28 27.7579 21.0736 27.7579 15.067L27.7424 14.4784C28.6294 13.8412 29.3966 13.0408 30 12.1294Z" fill="white"/>
</svg>
