<svg width="3" height="15" viewBox="0 0 3 15" fill="none" xmlns="http://www.w3.org/2000/svg">
<path fill-rule="evenodd" clip-rule="evenodd" d="M1.5 3C0.671573 3 6.13477e-07 2.32843 6.49689e-07 1.5C6.859e-07 0.671573 0.671573 -1.01779e-07 1.5 -6.55671e-08C2.32843 -2.93554e-08 3 0.671573 3 1.5C3 2.32843 2.32843 3 1.5 3ZM1.5 9C0.671573 9 3.51209e-07 8.32843 3.8742e-07 7.5C4.23632e-07 6.67157 0.671573 6 1.5 6C2.32843 6 3 6.67157 3 7.5C3 8.32843 2.32843 9 1.5 9ZM1.25152e-07 13.5C8.89402e-08 14.3284 0.671573 15 1.5 15C2.32843 15 3 14.3284 3 13.5C3 12.6716 2.32843 12 1.5 12C0.671573 12 1.61364e-07 12.6716 1.25152e-07 13.5Z" fill="#70796D"/>
</svg>
