<svg width="16" height="18" viewBox="0 0 16 18" fill="none" xmlns="http://www.w3.org/2000/svg">
<path d="M15.6519 14.1723L12.6176 17.693L12.6125 17.6979C12.5801 17.7355 12.5442 17.7706 12.5058 17.8023C12.1401 18.1024 11.5945 18.0554 11.2875 17.6979L8.25316 14.1772C7.94569 13.8197 7.99375 13.2862 8.35938 12.9855C8.725 12.6849 9.2707 12.7319 9.57817 13.0894L11.0953 14.8349L11.0953 6.46826L12.8097 6.46826L12.8097 14.8299L14.3269 13.0844C14.6343 12.7269 15.18 12.6799 15.5457 12.9806C15.9113 13.2812 15.9593 13.8148 15.6519 14.1723Z" fill="#4AA956"/>
<path d="M4.77467 3.14043L4.77467 11.5071L3.04518 11.507L3.04518 3.1651L1.52801 4.9106C1.22055 5.26814 0.674888 5.31509 0.309223 5.01446C-0.0564415 4.71382 -0.104461 4.18025 0.203005 3.82275L3.2373 0.302046C3.26967 0.264452 3.30556 0.229356 3.34401 0.197711C3.70963 -0.102446 4.25529 -0.0554535 4.56227 0.302046L7.59661 3.82275C7.68206 3.89052 7.75288 3.97408 7.80597 4.06802C8.0371 4.477 7.88538 4.99126 7.46715 5.21722C7.04888 5.44322 6.52293 5.29486 6.29184 4.88593L4.77467 3.14043Z" fill="#4AA956"/>
</svg>
