<?xml version="1.0" encoding="UTF-8" standalone="no"?>
<svg
   xmlns:dc="http://purl.org/dc/elements/1.1/"
   xmlns:cc="http://creativecommons.org/ns#"
   xmlns:rdf="http://www.w3.org/1999/02/22-rdf-syntax-ns#"
   xmlns:svg="http://www.w3.org/2000/svg"
   xmlns="http://www.w3.org/2000/svg"
   xmlns:sodipodi="http://sodipodi.sourceforge.net/DTD/sodipodi-0.dtd"
   xmlns:inkscape="http://www.inkscape.org/namespaces/inkscape"
   width="16"
   height="18"
   viewBox="0 0 16 18"
   fill="none"
   version="1.1"
   id="svg6"
   sodipodi:docname="sort-3.svg"
   inkscape:version="0.92.4 (unknown)">
  <metadata
     id="metadata12">
    <rdf:RDF>
      <cc:Work
         rdf:about="">
        <dc:format>image/svg+xml</dc:format>
        <dc:type
           rdf:resource="http://purl.org/dc/dcmitype/StillImage" />
        <dc:title></dc:title>
      </cc:Work>
    </rdf:RDF>
  </metadata>
  <defs
     id="defs10" />
  <sodipodi:namedview
     pagecolor="#ffffff"
     bordercolor="#666666"
     borderopacity="1"
     objecttolerance="10"
     gridtolerance="10"
     guidetolerance="10"
     inkscape:pageopacity="0"
     inkscape:pageshadow="2"
     inkscape:window-width="1920"
     inkscape:window-height="1025"
     id="namedview8"
     showgrid="false"
     inkscape:zoom="13.111111"
     inkscape:cx="-6.1101696"
     inkscape:cy="8.9999999"
     inkscape:window-x="0"
     inkscape:window-y="27"
     inkscape:window-maximized="1"
     inkscape:current-layer="svg6" />
  <path
     d="m 8.2531293,10.295921 3.0342997,-3.5206998 0.0051,-0.0049 c 0.0324,-0.0376 0.0683,-0.0727 0.1067,-0.1044 0.3657,-0.3001 0.9113,-0.2531 1.2183,0.1044 l 3.034341,3.5206998 c 0.30747,0.3575 0.25941,0.891 -0.10622,1.1917 -0.36562,0.3006 -0.91132,0.2536 -1.21879,-0.1039 L 12.809729,9.6333212 v 8.3666398 h -1.7144 V 9.6383212 L 9.5781293,11.383821 c -0.3074,0.3575 -0.8531,0.4045 -1.2188,0.1038 -0.3656,-0.3006 -0.4136,-0.8342 -0.1062,-1.1917 z"
     id="path2"
     style="fill:#2873FB;fill-opacity:1"
     inkscape:connector-curvature="0" />
  <path
     d="M 3.139778,8.3666698 V -2.2528496e-7 L 4.869268,9.9774715e-5 V 8.3419998 l 1.51717,-1.7455 c 0.30746,-0.35754 0.853122,-0.40449 1.218787,-0.10386 0.3656645,0.30064 0.413684,0.83421 0.106218,1.19171 L 4.677148,11.205054 c -0.03237,0.03759 -0.06826,0.07269 -0.10671,0.104335 -0.36562,0.300157 -0.91128,0.253164 -1.21826,-0.104335 L 0.31783795,7.6843498 c -0.08545,-0.06777 -0.15627,-0.15133 -0.20936,-0.24527 -0.23113,-0.40898 -0.07941,-0.92324 0.33882,-1.1492 0.41827,-0.226 0.94422005,-0.07764 1.17531005,0.33129 z"
     id="path4"
     style="fill:#2873FB;fill-opacity:1"
     inkscape:connector-curvature="0" />
</svg>
