<svg width="32" height="32" viewBox="0 0 32 32" fill="none" xmlns="http://www.w3.org/2000/svg">
<path d="M16 32C24.8365 32 32 24.8365 32 16C32 7.16344 24.8365 0 16 0C7.16344 0 0 7.16344 0 16C0 24.8365 7.16344 32 16 32Z" fill="#F0F0F0"/>
<path d="M21.5652 16C21.5652 17.3913 19.0736 20.8696 16 20.8696C12.9264 20.8696 10.4348 17.3913 10.4348 16C10.4348 12.9264 12.9264 10.4348 16 10.4348C19.0736 10.4348 21.5652 12.9264 21.5652 16Z" fill="#D80027"/>
<path d="M21.5652 16C21.5652 19.0736 19.0736 21.5652 16 21.5652C12.9264 21.5652 10.4348 19.0736 10.4348 16" fill="#0052B4"/>
<path d="M23.3783 19.4434L21.9026 20.9191L22.8864 21.9029L24.3621 20.4272L23.3783 19.4434Z" fill="black"/>
<path d="M20.9185 21.903L19.4428 23.3787L20.4266 24.3625L21.9023 22.8868L20.9185 21.903Z" fill="black"/>
<path d="M26.33 22.3941L24.8544 23.8698L25.8382 24.8536L27.3138 23.3779L26.33 22.3941Z" fill="black"/>
<path d="M23.8703 24.8542L22.3946 26.3299L23.3784 27.3137L24.8541 25.838L23.8703 24.8542Z" fill="black"/>
<path d="M24.8541 20.9189L23.3784 22.3946L24.3622 23.3784L25.8379 21.9027L24.8541 20.9189Z" fill="black"/>
<path d="M22.3949 23.3785L20.9193 24.8542L21.903 25.838L23.3787 24.3623L22.3949 23.3785Z" fill="black"/>
<path d="M20.9197 7.14545L24.8549 11.0806L25.8387 10.0968L21.9035 6.16166L20.9197 7.14545Z" fill="black"/>
<path d="M19.4439 8.62168L20.9196 10.0974L21.9034 9.1136L20.4277 7.63792L19.4439 8.62168Z" fill="black"/>
<path d="M21.9031 11.081L23.3787 12.5566L24.3625 11.5729L22.8868 10.0972L21.9031 11.081Z" fill="black"/>
<path d="M22.394 5.67029L23.8697 7.14597L24.8535 6.16217L23.3778 4.6865L22.394 5.67029Z" fill="black"/>
<path d="M24.8545 8.12986L26.3301 9.60553L27.3139 8.62173L25.8383 7.14606L24.8545 8.12986Z" fill="black"/>
<path d="M9.60531 26.33L5.67017 22.3949L4.68637 23.3787L8.62151 27.3138L9.60531 26.33Z" fill="black"/>
<path d="M11.0807 24.8538L9.60504 23.3782L8.62129 24.3619L10.097 25.8376L11.0807 24.8538Z" fill="black"/>
<path d="M8.62137 22.3946L7.14569 20.919L6.16189 21.9028L7.63757 23.3784L8.62137 22.3946Z" fill="black"/>
<path d="M12.5565 23.3783L8.6214 19.4432L7.6376 20.427L11.5727 24.3621L12.5565 23.3783Z" fill="black"/>
<path d="M5.67008 9.60516L9.60522 5.67001L8.62143 4.68622L4.68628 8.62136L5.67008 9.60516Z" fill="black"/>
<path d="M7.14524 11.0804L11.0804 7.14529L10.0966 6.1615L6.16145 10.0966L7.14524 11.0804Z" fill="black"/>
<path d="M8.62186 12.5568L12.557 8.62164L11.5733 7.63789L7.63811 11.573L8.62186 12.5568Z" fill="black"/>
</svg>
