<?xml version="1.0" encoding="utf-8"?>
<svg id="Layer_1" xmlns="http://www.w3.org/2000/svg" x="0px" y="0px"
	 viewBox="0 0 512 512" style="enable-background: 0 0 512 512;" xml:space="preserve">
<g id="XMLID_2_">
	<circle fill="#e20a17" id="XMLID_4_" cx="256" cy="256" r="256"/>
	<polygon fill="#FFFFFF" id="XMLID_5_" points="335.6,315.9 336.3,269.4 289.9,256 336.3,242.6 335.6,196.1 363.9,233.2 409.6,219
		381.2,256 409.6,293 363.9,278.8 	"/>
	<path fill="#FFFFFF" id="XMLID_6_" d="M266.2,358.4c-55.9,0-101.6-46.5-101.6-102.4c0-56.7,44.9-102.4,101.6-102.4
		c21.3,0,41,7.1,58.3,18.1c-22.8-26.8-57.5-43.3-95.3-43.3c-70.1,0-126,57.5-126,128.4s56.7,128.4,126,128.4
		c38.6,0,72.5-17.3,95.3-43.3C308,351.3,288.3,358.4,266.2,358.4"/>
</g>
</svg>
