<svg width="32" height="32" viewBox="0 0 32 32" fill="none" xmlns="http://www.w3.org/2000/svg">
<path d="M16 32C24.8365 32 32 24.8365 32 16C32 7.16344 24.8365 0 16 0C7.16344 0 0 7.16344 0 16C0 24.8365 7.16344 32 16 32Z" fill="#F0F0F0"/>
<path d="M15.3043 16H31.9999C31.9999 14.5559 31.8074 13.1569 31.4488 11.8261H15.3043V16Z" fill="#D80027"/>
<path d="M15.3043 7.65215H29.6516C28.6721 6.0539 27.4198 4.64121 25.9597 3.47821H15.3043V7.65215Z" fill="#D80027"/>
<path d="M16 32C19.7656 32 23.2267 30.6985 25.9598 28.5218H6.04028C8.77341 30.6985 12.2345 32 16 32Z" fill="#D80027"/>
<path d="M2.34833 24.3478H29.6516C30.4379 23.0648 31.0477 21.6623 31.4488 20.1739H0.551147C0.95221 21.6623 1.56202 23.0648 2.34833 24.3478Z" fill="#D80027"/>
<path d="M7.4115 2.49862H8.86956L7.51331 3.48394L8.03137 5.07825L6.67519 4.09294L5.319 5.07825L5.7665 3.70094C4.57237 4.69562 3.52575 5.861 2.66325 7.1595H3.13044L2.26712 7.78669C2.13262 8.01106 2.00362 8.239 1.88 8.47031L2.29225 9.73912L1.52312 9.18031C1.33194 9.58537 1.15706 9.99956 0.999875 10.4224L1.45406 11.8204H3.13044L1.77419 12.8057L2.29225 14.4L0.936062 13.4147L0.123687 14.0049C0.042375 14.6586 0 15.3243 0 16H16C16 7.1635 16 6.12175 16 0C12.8392 0 9.89281 0.916875 7.4115 2.49862ZM8.03137 14.4L6.67519 13.4147L5.319 14.4L5.83706 12.8057L4.48081 11.8204H6.15719L6.67519 10.2261L7.19319 11.8204H8.86956L7.51331 12.8057L8.03137 14.4ZM7.51331 8.14481L8.03137 9.73912L6.67519 8.75381L5.319 9.73912L5.83706 8.14481L4.48081 7.1595H6.15719L6.67519 5.56519L7.19319 7.1595H8.86956L7.51331 8.14481ZM13.7705 14.4L12.4143 13.4147L11.0581 14.4L11.5762 12.8057L10.2199 11.8204H11.8963L12.4143 10.2261L12.9323 11.8204H14.6087L13.2524 12.8057L13.7705 14.4ZM13.2524 8.14481L13.7705 9.73912L12.4143 8.75381L11.0581 9.73912L11.5762 8.14481L10.2199 7.1595H11.8963L12.4143 5.56519L12.9323 7.1595H14.6087L13.2524 8.14481ZM13.2524 3.48394L13.7705 5.07825L12.4143 4.09294L11.0581 5.07825L11.5762 3.48394L10.2199 2.49862H11.8963L12.4143 0.904312L12.9323 2.49862H14.6087L13.2524 3.48394Z" fill="#0052B4"/>
</svg>
