<svg width="10" height="14" viewBox="0 0 10 14" fill="none" xmlns="http://www.w3.org/2000/svg">
<path d="M2 13.0996V12.0996C2 11.7682 2.26824 11.5 2.59961 11.5C2.93098 11.5 3.19922 11.7682 3.19922 12.0996V13.0996C3.19922 13.431 2.93098 13.6992 2.59961 13.6992C2.26824 13.6992 2 13.431 2 13.0996ZM4.5 13.0996V12.0996C4.5 11.7682 4.76824 11.5 5.09961 11.5C5.43098 11.5 5.69922 11.7682 5.69922 12.0996V13.0996C5.69922 13.431 5.43098 13.6992 5.09961 13.6992C4.76824 13.6992 4.5 13.431 4.5 13.0996ZM8.5 8.34961C8.5 7.43834 7.76088 6.69922 6.84961 6.69922H3.19922V10H6.84961C7.76088 10 8.5 9.26088 8.5 8.34961ZM4.5 1.09961V0.599609C4.5 0.268239 4.76824 0 5.09961 0C5.43098 0 5.69922 0.268239 5.69922 0.599609V1.09961C5.69922 1.43098 5.43098 1.69922 5.09961 1.69922C4.76824 1.69922 4.5 1.43098 4.5 1.09961ZM7.5 4.34961C7.5 3.71448 6.98474 3.19922 6.34961 3.19922H3.19922V5.5H6.34961C6.98474 5.5 7.5 4.98474 7.5 4.34961ZM8.69922 4.34961C8.69922 4.90993 8.50212 5.42332 8.1748 5.82715C9.0811 6.30426 9.69922 7.25424 9.69922 8.34961C9.69922 9.92362 8.42362 11.1992 6.84961 11.1992H0.599609C0.268239 11.1992 0 10.931 0 10.5996C0 10.2682 0.268239 10 0.599609 10H2V3.19922H1.09961C0.768239 3.19922 0.5 2.93098 0.5 2.59961C0.5 2.26824 0.768239 2 1.09961 2H2V0.599609C2 0.268239 2.26824 0 2.59961 0C2.93098 0 3.19922 0.268239 3.19922 0.599609V2H6.34961C7.64748 2 8.69922 3.05174 8.69922 4.34961Z" fill="white"/>
</svg>
