<svg width="18" height="16" viewBox="0 0 18 16" fill="none" xmlns="http://www.w3.org/2000/svg">
<g opacity="0.2">
<path d="M3.23367 1.00005C3.23322 1.00005 3.23271 1.00005 3.23227 1.00005C3.0751 1.00005 2.92727 1.06132 2.81564 1.17267C2.70279 1.28524 2.64062 1.43514 2.64062 1.59472V10.5116C2.64062 10.8386 2.90769 11.1052 3.23602 11.1061C4.62017 11.1094 6.93918 11.3979 8.53897 13.072V3.74027C8.53897 3.62943 8.51066 3.5253 8.45722 3.43914C7.14419 1.32458 4.62095 1.0033 3.23367 1.00005Z" fill="black"/>
<path d="M15.3592 10.5116V1.59466C15.3592 1.43509 15.2971 1.28519 15.1842 1.17261C15.0726 1.06127 14.9246 1 14.7676 1C14.7671 1 14.7666 1 14.7662 1C13.379 1.0033 10.8557 1.32458 9.54263 3.43914C9.48919 3.5253 9.46094 3.62943 9.46094 3.74027V13.072C11.0607 11.3978 13.3797 11.1093 14.7639 11.106C15.0922 11.1052 15.3592 10.8385 15.3592 10.5116Z" fill="black"/>
<path d="M16.7136 3.05642H16.2824V10.5116C16.2824 11.3465 15.6022 12.0272 14.7661 12.0293C13.592 12.0321 11.6562 12.2617 10.2852 13.5593C12.6563 12.9787 15.1559 13.3561 16.5805 13.6807C16.7584 13.7212 16.9422 13.6794 17.0847 13.5658C17.2267 13.4525 17.3081 13.2831 17.3081 13.1013V3.65097C17.3082 3.32314 17.0414 3.05642 16.7136 3.05642Z" fill="black"/>
<path d="M1.71713 10.5116V3.05642H1.28596C0.958188 3.05642 0.691406 3.32314 0.691406 3.65097V13.1012C0.691406 13.283 0.772873 13.4523 0.914881 13.5656C1.05728 13.6792 1.24092 13.7212 1.41907 13.6806C2.84362 13.3559 5.3433 12.9785 7.71434 13.5591C6.34339 12.2616 4.40755 12.032 3.2335 12.0292C2.3974 12.0272 1.71713 11.3465 1.71713 10.5116Z" fill="black"/>
</g>
</svg>
