<svg width="44" height="44" viewBox="0 0 44 44" fill="none" xmlns="http://www.w3.org/2000/svg">
<path d="M22.2501 42.0703C33.2958 42.0703 42.2501 33.116 42.2501 22.0703C42.2501 11.0246 33.2958 2.07031 22.2501 2.07031C11.2044 2.07031 2.25012 11.0246 2.25012 22.0703C2.25012 33.116 11.2044 42.0703 22.2501 42.0703Z" fill="white"/>
<path fill-rule="evenodd" clip-rule="evenodd" d="M11.5145 31.1319H16.2062C17.0389 31.1319 17.4552 31.1319 17.8302 31.0204C18.2385 30.8989 18.6119 30.6823 18.9198 30.3883C19.2027 30.1184 19.4093 29.7571 19.8221 29.0347L25.9649 18.2886C26.3719 17.5766 26.5755 17.2204 26.6648 16.845C26.7619 16.4362 26.7617 16.0105 26.6643 15.6017C26.5746 15.2263 26.3708 14.8705 25.9632 14.1589V14.1588H25.9631L23.594 10.0223C23.0335 9.04355 22.7531 8.55419 22.3972 8.37242C22.0127 8.176 21.5569 8.17633 21.1727 8.37332C20.8171 8.55562 20.5374 9.04538 19.9783 10.0249L9.7059 28.0211L9.7057 28.0215H9.70569C9.15473 28.9867 8.87924 29.4693 8.90152 29.8651C8.92561 30.293 9.15269 30.6835 9.5127 30.9163C9.84581 31.1319 10.402 31.1319 11.5145 31.1319ZM27.5054 31.1316H32.945C34.0692 31.1316 34.6314 31.1316 34.9655 30.9139C35.3268 30.6789 35.553 30.2848 35.574 29.8546C35.5934 29.4566 35.3098 28.9717 34.7427 28.0018L32.0184 23.3434L32.0182 23.3431C31.4593 22.3872 31.1796 21.9091 30.8263 21.7304C30.4444 21.5373 29.9931 21.5376 29.6114 21.7313C29.2583 21.9105 28.9794 22.3891 28.4217 23.3459L25.7063 28.0045C25.1413 28.9737 24.8589 29.4583 24.8787 29.856C24.9 30.286 25.1265 30.6795 25.4876 30.9142C25.8216 31.1316 26.3829 31.1316 27.5054 31.1316Z" fill="#181B1D"/>
</svg>
