<svg width="45" height="45" viewBox="0 0 45 45" fill="none" xmlns="http://www.w3.org/2000/svg">
  <path fill-rule="evenodd" clip-rule="evenodd" d="M22.75 44.3225C34.9002 44.3225 44.75 34.4728 44.75 22.3225C44.75 10.1722 34.9002 0.32251 22.75 0.32251C10.5998 0.32251 0.75 10.1722 0.75 22.3225C0.75 34.4728 10.5998 44.3225 22.75 44.3225ZM25.6673 10.0653C25.3627 10.0082 25.0581 9.95116 24.7554 9.88773H22.5115C22.366 9.92565 22.2205 9.97072 22.0729 9.99019C18.3729 10.4738 15.3718 12.1594 13.2783 15.2784C11.3828 18.1013 10.9238 21.2582 11.5109 24.5566C12.2425 28.6797 14.4608 31.7916 18.3903 33.3286C23.5689 35.3481 28.4236 34.6841 32.6791 30.893C33.0407 30.5712 33.3901 30.2382 33.7579 29.8991L30.7383 26.7544L29.8818 27.5557C27.7392 29.5466 25.2483 30.4677 22.3158 30.0056C19.3975 29.5466 17.2458 28.024 16.2212 25.2277C15.1156 22.2101 15.4496 19.3052 17.6127 16.8194C20.1579 13.8941 24.4756 13.2773 27.9318 15.3183C28.6243 15.724 29.2594 16.2275 29.9087 16.7423C30.2106 16.9816 30.5154 17.2234 30.8306 17.4588L33.8491 14.5663C32.1523 12.6143 30.1153 11.2495 27.6838 10.5179C27.026 10.3198 26.3465 10.1925 25.6673 10.0653Z" fill="white"/>
</svg>
