<svg width="110" height="110" viewBox="0 0 110 110" fill="none" xmlns="http://www.w3.org/2000/svg">
<rect width="110" height="110" rx="55" fill="white" fill-opacity="0.5"/>
<path d="M73.6294 6.68805C69.8202 10.3971 67.715 16.512 67.2138 24.8322L66.7126 33.1525H61.0989C43.1552 33.1525 32.0281 44.5803 33.1308 61.6218L33.4316 67.035L24.9108 67.4359C15.8889 67.9372 10.1749 70.0423 6.36567 74.2525C4.86201 75.8565 4.66152 76.7586 5.46347 78.0618C6.96714 80.3674 10.2752 80.7684 11.8791 78.7635C12.5808 77.9616 13.6835 77.2599 14.285 77.2599C14.8864 77.2599 19.4976 81.3699 24.4096 86.2818C32.2286 94.2011 33.2311 95.5043 32.1284 97.1082C30.1235 99.915 29.7225 101.218 30.324 102.822C31.2262 105.328 33.8325 105.729 36.0379 103.724C40.1479 100.015 42.253 94.2011 42.7543 85.2794L43.2555 76.7586H50.874C67.8153 76.7586 77.0377 66.7342 77.0377 48.4898V43.1769H83.3531C97.3873 43.1769 110.018 35.2576 103.001 30.8469C101.297 29.8444 99.9936 30.1452 96.8861 32.3505C95.2822 33.4532 93.979 32.4508 85.8592 24.331C77.7394 16.2112 76.737 14.9081 77.8397 13.3042C80.0451 10.1966 80.3458 8.89341 79.3434 7.18926C77.9399 4.88365 75.5341 4.68317 73.6294 6.68805ZM85.5585 35.9593C85.358 36.1598 82.9521 36.0596 80.2455 35.6586C75.4338 35.0571 75.2333 34.8566 74.6319 31.3481C73.3287 23.4288 73.6294 23.3286 80.0451 29.6439C83.3531 32.8517 85.8592 35.7588 85.5585 35.9593ZM69.0182 46.6854C69.0182 49.6928 68.918 52.1989 68.7175 52.1989C68.6172 52.1989 66.0109 49.6928 63.0036 46.6854L57.5904 41.172H63.3043H69.0182V46.6854ZM58.2921 51.9984C63.1038 56.8101 67.0133 61.2208 67.0133 61.722C67.0133 63.0252 62.9033 67.2355 61.6002 67.2355C60.0965 67.2355 42.9548 49.9935 42.9548 48.4898C42.9548 47.3871 47.566 43.1769 48.8692 43.1769C49.2701 43.1769 53.4804 47.0864 58.2921 51.9984ZM46.9645 63.7269L52.3777 69.2403H46.6638H40.9499V63.7269C40.9499 60.7196 41.0501 58.2135 41.2506 58.2135C41.3508 58.2135 43.9572 60.7196 46.9645 63.7269ZM31.7274 74.854C34.5343 75.4555 34.9352 75.9567 35.5367 79.8662C35.8374 82.1718 35.9377 84.6779 35.7372 85.2794C35.5367 85.8809 32.7299 83.5752 29.4218 80.2672C23.9084 74.6535 23.6077 74.2525 26.1138 74.2525C27.5172 74.2525 30.0233 74.5533 31.7274 74.854Z" fill="black"/>
</svg>
