<?xml version="1.0" standalone="no"?>
<!DOCTYPE svg PUBLIC "-//W3C//DTD SVG 20010904//EN"
 "http://www.w3.org/TR/2001/REC-SVG-20010904/DTD/svg10.dtd">
<svg version="1.0" xmlns="http://www.w3.org/2000/svg"
 width="100.000000pt" height="100.000000pt" viewBox="0 0 100.000000 100.000000"
 preserveAspectRatio="xMidYMid meet">

<g transform="translate(0.000000,100.000000) scale(0.100000,-0.100000)"
fill="#000000" stroke="none">
<path d="M686 984 c-38 -37 -59 -98 -64 -181 l-5 -83 -56 0 c-179 0 -290 -114
-279 -284 l3 -54 -85 -4 c-90 -5 -147 -26 -185 -68 -15 -16 -17 -25 -9 -38 15
-23 48 -27 64 -7 7 8 18 15 24 15 6 0 52 -41 101 -90 78 -79 88 -92 77 -108
-20 -28 -24 -41 -18 -57 9 -25 35 -29 57 -9 41 37 62 95 67 184 l5 85 76 0
c169 0 261 100 261 282 l0 53 63 0 c140 0 266 79 196 123 -17 10 -30 7 -61
-15 -16 -11 -29 -1 -110 80 -81 81 -91 94 -80 110 22 31 25 44 15 61 -14 23
-38 25 -57 5z m119 -292 c-2 -2 -26 -1 -53 3 -48 6 -50 8 -56 43 -13 79 -10
80 54 17 33 -32 58 -61 55 -63z m-165 -107 c0 -30 -1 -55 -3 -55 -1 0 -27 25
-57 55 l-54 55 57 0 57 0 0 -55z m-107 -53 c48 -48 87 -92 87 -97 0 -13 -41
-55 -54 -55 -15 0 -186 172 -186 187 0 11 46 53 59 53 4 0 46 -39 94 -88z
m-113 -117 l54 -55 -57 0 -57 0 0 55 c0 30 1 55 3 55 1 0 27 -25 57 -55z
m-152 -111 c28 -6 32 -11 38 -50 3 -23 4 -48 2 -54 -2 -6 -30 17 -63 50 -55
56 -58 60 -33 60 14 0 39 -3 56 -6z"/>
</g>
</svg>
