<svg width="18" height="18" viewBox="0 0 18 18" fill="none" xmlns="http://www.w3.org/2000/svg">
<circle cx="9" cy="9" r="9" fill="#4AA956"/>
<path d="M10.12 4.12288H6.664C6.22268 4.12288 5.79944 4.29819 5.48737 4.61025C5.17531 4.92232 5 5.34556 5 5.78688V14.2784C5 14.3463 5.02697 14.4114 5.07498 14.4594C5.12299 14.5074 5.18811 14.5344 5.256 14.5344H11.528C11.5959 14.5344 11.661 14.5074 11.709 14.4594C11.757 14.4114 11.784 14.3463 11.784 14.2784V7.40864H12.2C12.3358 7.40864 12.466 7.46258 12.562 7.5586C12.6581 7.65462 12.712 7.78485 12.712 7.92064V11.5213C12.7219 11.816 12.8459 12.0953 13.0579 12.3002C13.2698 12.5052 13.5531 12.6198 13.848 12.6198C14.1428 12.6198 14.4262 12.5052 14.6381 12.3002C14.8501 12.0953 14.9741 11.816 14.984 11.5213V6.00064C14.984 5.96429 14.9762 5.92837 14.9612 5.89526C14.9461 5.86216 14.9243 5.83263 14.897 5.80864L12.8323 4L12.4957 4.384L14.472 6.11712V11.5213C14.4647 11.6819 14.3958 11.8335 14.2796 11.9446C14.1634 12.0557 14.0088 12.1177 13.848 12.1177C13.6872 12.1177 13.5326 12.0557 13.4164 11.9446C13.3002 11.8335 13.2313 11.6819 13.224 11.5213V7.92064C13.224 7.64906 13.1161 7.3886 12.9241 7.19656C12.732 7.00452 12.4716 6.89664 12.2 6.89664H11.784V5.78688C11.784 5.34556 11.6087 4.92232 11.2966 4.61025C10.9846 4.29819 10.5613 4.12288 10.12 4.12288ZM11.272 14.0211H5.512V5.78688C5.512 5.48135 5.63337 5.18833 5.84941 4.97229C6.06545 4.75625 6.35847 4.63488 6.664 4.63488H10.12C10.4255 4.63488 10.7185 4.75625 10.9346 4.97229C11.1506 5.18833 11.272 5.48135 11.272 5.78688V14.0211Z" fill="#363A37"/>
<path d="M9.97937 5.53125H6.80497C6.66917 5.53125 6.53895 5.5852 6.44293 5.68122C6.34691 5.77723 6.29297 5.90746 6.29297 6.04325V8.51621C6.29297 8.58411 6.31994 8.64922 6.36795 8.69723C6.41596 8.74524 6.48107 8.77221 6.54897 8.77221H10.2354C10.3033 8.77221 10.3684 8.74524 10.4164 8.69723C10.4644 8.64922 10.4914 8.58411 10.4914 8.51621V6.04325C10.4914 5.90746 10.4374 5.77723 10.3414 5.68122C10.2454 5.5852 10.1152 5.53125 9.97937 5.53125ZM9.97937 8.26021H6.80497V6.04325H9.97937V8.26021Z" fill="#363A37"/>
</svg>
