<svg width="199" height="199" viewBox="0 0 199 199" fill="none" xmlns="http://www.w3.org/2000/svg">
    <mask id="hkkta8rega" style="mask-type:alpha" maskUnits="userSpaceOnUse" x="13" y="4" width="173" height="191">
        <path d="M84.5 8.66a30 30 0 0 1 30 0l56.17 32.43a30 30 0 0 1 15 25.98v64.859a30 30 0 0 1-15 25.981l-56.17 32.43a30 30 0 0 1-30 0l-56.17-32.43a30 30 0 0 1-15-25.981V67.07a30 30 0 0 1 15-25.98L84.5 8.66z" fill="#C4C4C4"/>
    </mask>
    <g mask="url(#hkkta8rega)">
        <path d="m99.5 0 86.17 49.75v99.5L99.5 199l-86.17-49.75v-99.5L99.5 0z" fill="#823FE5"/>
        <path d="M51.206 59.718 12.978 49.21l10.137 79.998 28.09-69.489z" fill="url(#aaaxptrhkb)"/>
        <path d="M176.74 129.207 99.928-1.082l-48.722 60.8 125.534 69.489z" fill="url(#dk80ikfj8c)"/>
        <path d="m176.741 129.207 10.137 20.584V49.209l-10.137 79.998z" fill="url(#9mpvozm0sd)"/>
        <path d="m23.115 129.207 76.813 70.875 76.813-70.875H23.115z" fill="url(#85pykavxne)"/>
        <path d="M23.115 129.207h153.626L51.206 59.718l-28.09 69.489z" fill="url(#o4ni3nruuf)"/>
        <path d="M12.978 49.21V149.79l10.137-20.584-10.137-79.998z" fill="url(#ovsznejf3g)"/>
        <path d="m99.928-1.082-48.722 60.8L12.978 49.21l86.95-50.29z" fill="url(#pc7rcjgsah)"/>
        <path d="M186.877 49.21 99.927-1.083l76.813 130.289 10.137-79.998z" fill="url(#lhtunehsui)"/>
        <path d="m99.928 200.082 86.949-50.291-10.137-20.584-76.812 70.875z" fill="url(#kl20yzlb6j)"/>
        <path d="m12.978 149.791 86.95 50.291-76.813-70.875-10.137 20.584z" fill="url(#2csokivpgk)"/>
        <path d="M50.067 59.157 99.927-.92 51.903 60.638l-1.835-1.48z" fill="#DECCFF" style="mix-blend-mode:overlay"/>
        <path d="m52.312 60.105-29.329 69.333 27.145-70.22 2.184.887z" fill="#DECCFF" style="mix-blend-mode:overlay"/>
        <path d="m51.79 58.63 125.082 70.808L50.65 60.694l1.14-2.065z" fill="#DECCFF" style="mix-blend-mode:overlay"/>
        <path d="M50.91 60.798 13.1 49.289l38.43 9.236-.62 2.273z" fill="#DECCFF" style="mix-blend-mode:overlay"/>
    </g>
    <defs>
        <linearGradient id="aaaxptrhkb" x1="51.206" y1="89.208" x2="12.978" y2="89.208" gradientUnits="userSpaceOnUse">
            <stop stop-color="#DECCFF"/>
            <stop offset=".51" stop-color="#CEB2FF"/>
            <stop offset="1" stop-color="#BE99FF"/>
        </linearGradient>
        <linearGradient id="dk80ikfj8c" x1="176.74" y1="64.06" x2="51.206" y2="64.06" gradientUnits="userSpaceOnUse">
            <stop stop-color="#7B4FDC"/>
            <stop offset="1" stop-color="#DECCFF"/>
        </linearGradient>
        <linearGradient id="9mpvozm0sd" x1="181.809" y1="149.791" x2="181.809" y2="49.209" gradientUnits="userSpaceOnUse">
            <stop stop-color="#9B65EA"/>
            <stop offset="1" stop-color="#BF96FF"/>
        </linearGradient>
        <linearGradient id="85pykavxne" x1="23.115" y1="164.642" x2="176.741" y2="164.642" gradientUnits="userSpaceOnUse">
            <stop stop-color="#8A5AE3"/>
            <stop offset="1" stop-color="#744BD1"/>
        </linearGradient>
        <linearGradient id="o4ni3nruuf" x1="99.928" y1="59.718" x2="99.928" y2="129.207" gradientUnits="userSpaceOnUse">
            <stop stop-color="#fff"/>
            <stop offset="1" stop-color="#D6BFFF"/>
        </linearGradient>
        <linearGradient id="ovsznejf3g" x1="18.047" y1="-1.082" x2="18.047" y2="-1.082" gradientUnits="userSpaceOnUse">
            <stop stop-color="#9B65EA"/>
            <stop offset="1" stop-color="#BF96FF"/>
        </linearGradient>
        <linearGradient id="pc7rcjgsah" x1="56.453" y1="-1.082" x2="56.453" y2="59.718" gradientUnits="userSpaceOnUse">
            <stop stop-color="#9B65EA"/>
            <stop offset="1" stop-color="#DECCFF"/>
        </linearGradient>
        <linearGradient id="lhtunehsui" x1="95.805" y1="3.048" x2="199.423" y2="106.479" gradientUnits="userSpaceOnUse">
            <stop stop-color="#6C3EC7"/>
            <stop offset="1" stop-color="#985AFF"/>
        </linearGradient>
        <linearGradient id="kl20yzlb6j" x1="143.403" y1="129.207" x2="143.403" y2="200.082" gradientUnits="userSpaceOnUse">
            <stop stop-color="#5D2DB3"/>
            <stop offset="1" stop-color="#8952E6"/>
        </linearGradient>
        <linearGradient id="2csokivpgk" x1="56.453" y1="200.082" x2="56.453" y2="129.207" gradientUnits="userSpaceOnUse">
            <stop stop-color="#5D2EB3"/>
            <stop offset="1" stop-color="#8952E6"/>
        </linearGradient>
    </defs>
</svg>
