<svg width="31" height="40" viewBox="0 0 31 40" fill="none" xmlns="http://www.w3.org/2000/svg">
<path d="M9.78401 39.8627C9.52001 39.8334 8.84321 39.7654 8.28001 39.7117C6.07389 39.501 5.13152 39.27 4.2033 38.7126C3.49381 38.2864 3.30248 38.0895 2.93102 37.4028C2.7581 37.0831 2.42499 36.5791 2.19079 36.2828C0.940933 34.7013 0.639458 33.8688 0.714525 32.2059C0.772181 30.9288 1.16634 29.8141 1.83969 29.024C2.72033 27.9906 2.72514 27.9725 2.3905 26.9507C1.97032 25.6677 2.01186 24.6903 2.56014 22.9591C3.05505 21.3965 4.08326 19.9078 5.18077 19.1647C5.94966 18.6442 5.97633 18.5086 5.43319 17.8818C5.22263 17.6388 4.90669 17.2337 4.73109 16.9817C4.33524 16.4135 4.18711 16.3073 3.54539 16.1319C2.92693 15.9629 2.73352 15.8486 2.31259 15.4035C0.993491 14.0088 1.02267 11.294 2.36881 10.1737C2.62959 9.95672 2.87975 9.82128 3.24363 9.70009C3.52391 9.60675 3.79951 9.47924 3.85608 9.41673C3.91265 9.35422 3.98587 9.16107 4.01879 8.98752C4.20317 8.01546 4.96177 6.54871 5.87015 5.40797C6.40557 4.73559 7.57372 3.55841 8.15201 3.10848C11.8003 0.269913 16.1389 -0.662586 19.8171 0.601281C22.1933 1.41776 24.3589 3.02257 25.7605 5.00553C25.9524 5.27698 26.3381 5.99422 26.6176 6.59938C26.8971 7.20454 27.243 7.87953 27.3862 8.09936C27.665 8.5273 27.844 8.63825 28.6064 8.85572C29.2603 9.04227 29.8237 9.61419 30.0761 10.3478C30.3634 11.1828 30.4289 12.0284 30.2681 12.8274C30.0358 13.9822 29.5762 14.6112 28.6243 15.0774C28.2893 15.2415 27.9313 15.4462 27.8289 15.5324C27.7264 15.6187 27.4389 16.0321 27.1901 16.4513C26.8273 17.0622 26.647 17.2929 26.281 17.6146C25.6034 18.2103 25.4219 18.405 25.3486 18.6153C25.2523 18.8916 25.3918 19.0988 26.0834 19.7067C26.8112 20.3465 27.4013 21.1209 27.892 22.08C28.3516 22.9784 28.4928 23.3395 28.6975 24.1396C28.9149 24.9895 28.9069 25.5169 28.6636 26.3602C28.5582 26.7256 28.472 27.1398 28.472 27.2807C28.472 27.6088 28.6625 27.9168 29.0161 28.16C29.8498 28.7336 30.5013 30.1573 30.6561 31.744C30.7352 32.5551 30.7352 32.4037 30.6564 33.2202C30.5748 34.0646 30.2932 34.9661 29.9452 35.4966C29.8035 35.7126 29.4554 36.1446 29.1716 36.4566C28.6204 37.0626 28.4666 37.3048 28.3442 37.7593C28.1218 38.5854 27.5452 39.1743 26.4498 39.6943L26.008 39.904L18.136 39.91C13.8064 39.9133 10.048 39.892 9.78401 39.8627V39.8627Z" fill="#F8D1B4"/>
<path d="M10.3499 39.9069C10.3378 39.8962 9.89599 39.8549 9.36799 39.8152C8.83999 39.7755 8.2352 39.715 8.024 39.6808C7.8128 39.6465 7.27164 39.5735 6.82142 39.5184C4.81269 39.2729 3.53899 38.5716 2.93643 37.3794C2.80204 37.1135 2.49763 36.6512 2.25994 36.352C0.959133 34.7145 0.641559 33.866 0.715697 32.226C0.781285 30.7752 1.2019 29.7026 2.08424 28.736C2.69466 28.0673 2.72672 27.8739 2.39199 26.88C2.18261 26.2583 2.16799 26.1617 2.16799 25.4011C2.16799 24.2739 2.34562 23.4177 2.81718 22.272C3.02131 21.776 3.56015 20.856 3.94169 20.352C4.17754 20.0405 4.87953 19.3953 5.45597 18.9603C5.95036 18.5873 5.94565 18.4561 5.41599 17.8483C5.19599 17.5959 4.90561 17.2279 4.77069 17.0307C4.33376 16.3918 4.15305 16.2492 3.67199 16.1635C2.93736 16.0326 2.22097 15.4618 1.83977 14.7036C1.49094 14.0099 1.39999 13.6054 1.39999 12.7478C1.39999 11.5835 1.618 10.9788 2.28648 10.2889C2.60534 9.95985 2.70391 9.90126 3.23839 9.7232C3.91438 9.498 3.96595 9.44104 4.08417 8.78909C4.18791 8.21698 4.58249 7.36302 5.17266 6.43332C6.14292 4.90488 7.41107 3.60381 9.01712 2.48906C9.64243 2.05504 10.7813 1.40068 11.064 1.31303C11.152 1.28575 11.3592 1.19549 11.5244 1.11245C12.3787 0.683146 14.543 0.127999 15.3625 0.127999C15.5891 0.127999 15.8056 0.0968063 15.8437 0.0586815C15.9132 -0.0107919 16.068 -0.00550213 17.528 0.116231C18.3112 0.181532 19.1262 0.360706 19.9313 0.644561C20.6598 0.901395 21.5927 1.33626 21.9657 1.59289C22.1248 1.7024 22.2753 1.792 22.3 1.792C22.3626 1.792 23.5005 2.62824 23.9354 2.99386C24.5731 3.52998 25.5613 4.67577 26.0583 5.45534C26.1198 5.55178 26.3967 6.12011 26.6737 6.71831C27.4852 8.47079 27.5715 8.56612 28.6368 8.88522C29.0321 9.00365 29.1359 9.06951 29.4554 9.40443C29.6566 9.61539 29.8931 9.94486 29.9808 10.1366C30.4633 11.1905 30.44 12.8138 29.928 13.8147C29.5975 14.4608 29.3844 14.6628 28.6038 15.07C27.791 15.494 27.6067 15.6731 27.1588 16.474C26.8595 17.009 26.3221 17.6174 25.7679 18.0484C25.6711 18.1237 25.5167 18.3136 25.4249 18.4704C25.277 18.7228 25.2668 18.7769 25.3357 18.9432C25.4112 19.1256 25.7438 19.4571 26.2878 19.892C26.7846 20.2892 27.4783 21.25 27.9596 22.2073C28.8133 23.9052 28.9955 25.1741 28.5915 26.608L28.3886 27.328L28.506 27.5884C28.5777 27.7475 28.7995 28.0005 29.0757 28.2385C29.6598 28.7418 29.8377 28.9898 30.1324 29.7117C30.5349 30.6979 30.6632 31.3674 30.6629 32.48C30.6626 33.4744 30.5855 33.9766 30.3257 34.675C30.0623 35.383 29.9019 35.6178 28.8633 36.8157C28.5716 37.1521 28.4644 37.3357 28.3772 37.6477C28.2143 38.2304 28.082 38.4536 27.6627 38.8532C27.205 39.2894 26.9237 39.4687 26.2791 39.7351L25.7822 39.9405L18.0769 39.9334C13.8391 39.9296 10.3619 39.9176 10.3499 39.9069V39.9069ZM12.6952 31.5693C12.7652 31.5497 13.084 31.2811 13.4037 30.9724C14.0849 30.3146 14.1357 30.2949 15.3852 30.2056C16.3609 30.1359 16.736 30.0674 16.8687 29.9347C16.9472 29.8562 16.7781 29.8379 15.6278 29.8003C14.8953 29.7763 13.9792 29.7268 13.592 29.6902C10.8962 29.4355 8.98794 28.5205 8.1021 27.0579C7.81374 26.5818 7.67818 26.1635 7.62966 25.6C7.50782 24.1853 8.51252 22.6778 9.92565 22.1549C10.4041 21.9778 10.8146 21.9142 12.4782 21.759C13.6525 21.6495 14.5393 21.5061 14.6352 21.4101C14.6694 21.3759 14.2103 21.3241 13.5183 21.2841C12.0387 21.1986 9.31074 20.4645 7.90072 19.7724C7.11485 19.3866 6.8265 19.3309 6.41984 19.4862C5.75719 19.7393 4.47285 21.4254 3.8527 22.8564C3.44034 23.808 3.29857 24.4866 3.29296 25.536C3.28866 26.3387 3.30823 26.5288 3.43787 26.944C3.92771 28.5127 4.95583 29.4612 7.06399 30.289C7.67228 30.5278 8.51234 30.7752 10.377 31.2645C11.9512 31.6776 12.1935 31.7095 12.6952 31.5693V31.5693ZM18.296 19.8751C20.5874 19.5674 22.5937 18.8813 24.042 17.9099C25.0593 17.2276 25.9705 16.1857 26.4593 15.146C27.0981 13.7872 27.2703 11.3247 26.7868 10.4627C26.64 10.201 26.4983 10.1242 25.368 9.69436C24.8406 9.4938 24.4153 9.15947 23.288 8.05948C22.359 7.15298 21.6732 6.58754 21.2312 6.36354C20.3759 5.93011 19.4895 5.91452 18.008 6.30686C16.304 6.75811 16.0826 6.79625 15.32 6.76987C14.6231 6.74577 14.6066 6.74153 13.6776 6.34889C12.5518 5.87309 12.0698 5.78289 11.2184 5.88869C9.57348 6.0931 8.49258 6.89909 6.9708 9.056C6.37842 9.89561 5.92182 10.3495 5.45052 10.5673C5.02424 10.7643 4.95837 10.8422 4.90064 11.2177C4.84205 11.5989 4.96522 13.8758 5.08201 14.5704C5.37157 16.2926 6.33362 17.5334 8.04837 18.3963C9.5258 19.1398 11.4713 19.6771 13.496 19.9009C13.8304 19.9378 14.1904 19.9799 14.296 19.9943C14.768 20.0588 17.5441 19.9761 18.296 19.8751V19.8751ZM14.104 17.2874C12.7128 17.0284 12.0909 16.6843 12.298 16.288C12.4869 15.9266 12.7842 15.9188 13.8289 16.248C14.2618 16.3843 14.8203 16.5152 15.0699 16.5388C15.6698 16.5956 16.627 16.4499 17.5518 16.1612C18.3837 15.9015 18.6872 15.8792 18.872 16.064C19.2811 16.4731 18.6764 16.9621 17.4337 17.227C16.5632 17.4125 14.9349 17.442 14.104 17.2874V17.2874ZM9.96 11.8674C9.56953 11.6556 9.82865 11.2432 10.6207 10.816C10.9695 10.6279 11.0952 10.5942 11.448 10.5942C12.1907 10.5941 12.8575 10.8951 13.0251 11.3062C13.0985 11.4861 13.0933 11.5265 12.9772 11.6742C12.8019 11.8969 12.5455 11.8898 12.0342 11.6479C11.8111 11.5424 11.5685 11.456 11.4951 11.456C11.4217 11.456 11.1379 11.5712 10.8645 11.712C10.3198 11.9924 10.2216 12.0093 9.96 11.8674ZM20.472 11.424C20.2432 11.3042 19.9948 11.2048 19.92 11.2031C19.8451 11.2014 19.6211 11.272 19.4221 11.36C19.2231 11.448 18.9792 11.52 18.8801 11.52C18.6797 11.52 18.488 11.3484 18.488 11.1691C18.488 11.0093 18.9218 10.6093 19.2865 10.4327C20.0931 10.0422 21.56 10.6336 21.56 11.3493C21.56 11.7087 21.079 11.7418 20.472 11.424V11.424ZM3.80077 14.864C3.77853 14.6616 3.70644 14.136 3.64056 13.696C3.45448 12.4531 3.43123 12.0364 3.5108 11.37C3.59579 10.6581 3.56676 10.496 3.35431 10.496C3.08133 10.496 2.84952 10.8592 2.61566 11.6532C2.25388 12.8815 2.33798 13.9715 2.84589 14.6374C3.03967 14.8915 3.54093 15.232 3.72113 15.232C3.82933 15.232 3.83721 15.1956 3.80077 14.864V14.864ZM28.477 14.208C28.6376 14.208 29.0527 13.7231 29.1799 13.387C29.5446 12.4235 29.3315 10.6956 28.7546 9.93929C28.5402 9.65808 28.2956 9.55694 28.1595 9.69311C28.071 9.78161 28.0728 9.86189 28.1777 10.4928C28.3159 11.3234 28.3306 11.8338 28.2573 13.2414C28.2068 14.2123 28.2108 14.2877 28.3106 14.2494C28.3699 14.2266 28.4448 14.208 28.477 14.208V14.208Z" fill="#A69D98"/>
<path d="M10.2881 39.8442C10.2749 39.8316 9.8464 39.7892 9.336 39.7499C8.8256 39.7107 8.2352 39.6506 8.024 39.6165C7.8128 39.5824 7.27673 39.5102 6.83273 39.456C5.78551 39.3281 5.012 39.1031 4.376 38.7414C3.67798 38.3444 3.30619 37.9681 2.96359 37.312C2.80735 37.0128 2.5049 36.552 2.29146 36.288C1.40346 35.1897 0.952875 34.3266 0.817834 33.4653C0.715324 32.8116 0.781994 31.5165 0.947275 30.9509C1.16189 30.2165 1.60291 29.3883 2.02444 28.928C2.46026 28.4522 2.68 28.0636 2.68 27.7687C2.68 27.6562 2.5792 27.2524 2.456 26.8713C2.24982 26.2335 2.232 26.1159 2.23201 25.3932C2.23202 24.2922 2.40379 23.4623 2.86341 22.3425C3.07854 21.8184 3.55252 20.971 3.8515 20.576C4.19512 20.1221 4.87768 19.4554 5.272 19.1886C5.99661 18.6984 6.0412 18.5044 5.56167 17.9282C5.38658 17.7178 5.21367 17.5273 5.17742 17.5049C5.14116 17.4825 4.96441 17.2349 4.78465 16.9546C4.41946 16.3853 4.15154 16.1871 3.58989 16.0706C3.1067 15.9704 2.82634 15.8059 2.41422 15.381C1.74241 14.6884 1.46355 13.9123 1.46476 12.7386C1.46587 11.659 1.70075 10.9572 2.25453 10.3787C2.55731 10.0625 2.78611 9.93347 3.40516 9.72991C3.91545 9.5621 4.04028 9.40929 4.14289 8.82675C4.29823 7.9449 5.27048 6.18971 6.20399 5.1059C6.40775 4.86934 6.9309 4.33488 7.36654 3.91822C9.56169 1.81871 12.4376 0.48893 15.566 0.126905C17.4907 -0.0958311 19.9499 0.484752 21.88 1.61758C23.1101 2.33952 23.9557 3.02646 24.8916 4.06402C25.6737 4.93114 25.8984 5.2829 26.6337 6.79097C27.4453 8.45576 27.5821 8.62558 28.28 8.83455C28.9408 9.03241 29.1708 9.15868 29.4783 9.49226C29.972 10.0278 30.1879 10.6357 30.244 11.648C30.291 12.4958 30.1918 13.1033 29.9106 13.6901C29.5881 14.3629 29.2718 14.6658 28.4555 15.0833C27.6814 15.4793 27.6107 15.552 27.0823 16.4962C26.8339 16.94 26.6458 17.1657 26.0878 17.6898C25.3635 18.37 25.1773 18.6395 25.2451 18.9095C25.2685 19.0028 25.5957 19.3608 26.0143 19.7512C26.8363 20.5179 27.2077 20.9895 27.7337 21.9345C28.7139 23.6954 28.9623 25.1392 28.5328 26.578C28.2617 27.4863 28.2769 27.5394 29.0132 28.255C29.6881 28.9108 29.7994 29.0591 30.0318 29.612C30.7956 31.4291 30.8057 33.674 30.0569 35.168C29.911 35.4592 29.2586 36.3353 29.1371 36.4033C29.0928 36.428 28.9157 36.6239 28.7435 36.8385C28.5221 37.1144 28.3967 37.3488 28.3158 37.6384C28.2528 37.8637 28.1482 38.1525 28.0833 38.2802C27.8882 38.6643 27.2226 39.2126 26.552 39.5417L25.944 39.84L18.1281 39.8535C13.8294 39.8609 10.3014 39.8567 10.2881 39.8442V39.8442ZM12.8254 31.5791C12.9424 31.5235 13.2192 31.2745 13.4403 31.0256C13.974 30.4251 14.14 30.358 15.2932 30.2761C16.3743 30.1993 16.6007 30.1626 16.84 30.0254C17.2004 29.8187 17.0662 29.76 16.232 29.7597C12.3893 29.7583 9.89871 29.0663 8.60986 27.6421C7.33386 26.2321 7.36844 24.3821 8.696 23.0344C9.41023 22.3093 10.1211 22.0413 11.736 21.888C13.937 21.6791 14.776 21.5371 14.776 21.3735C14.776 21.3397 14.668 21.3104 14.536 21.3084C12.6728 21.2799 9.7781 20.5897 8.024 19.7556C7.31294 19.4175 7.1401 19.36 6.83498 19.36C6.35778 19.36 5.97679 19.5979 5.44785 20.226C4.62155 21.2073 3.92299 22.3943 3.58469 23.392C2.87041 25.4984 3.17826 27.5107 4.402 28.7344C5.42746 29.7599 6.78455 30.3902 9.464 31.0856C10.08 31.2455 10.8288 31.442 11.128 31.5224C11.7872 31.6994 12.5203 31.7238 12.8254 31.5791V31.5791ZM18.456 19.9077C22.4683 19.3692 25.3249 17.7017 26.4849 15.2209C26.9344 14.2596 27.177 12.8867 27.1105 11.68C27.0452 10.4918 26.8582 10.193 25.976 9.8662C24.8998 9.46756 24.7227 9.34681 23.5029 8.17964C21.8925 6.63878 21.3554 6.25328 20.5199 6.03855C19.9499 5.89208 19.1063 5.95295 18.136 6.21055C16.5085 6.64263 16.0933 6.72507 15.512 6.73155C14.8243 6.73922 14.6362 6.69139 13.5613 6.23578C12.5725 5.81662 12.0336 5.72342 11.1989 5.82714C9.55835 6.031 8.5514 6.77698 6.96507 8.9637C6.22514 9.98367 5.85261 10.3517 5.35763 10.5518C4.85211 10.7562 4.82353 10.8454 4.84238 12.16C4.88125 14.8696 5.20886 16.0173 6.27697 17.186C7.58779 18.6203 10.5271 19.6926 14.072 20.0298C15.0264 20.1206 17.3523 20.0558 18.456 19.9077ZM14.2255 17.255C13.2467 17.095 12.4999 16.8033 12.3495 16.5223C12.2975 16.425 12.3116 16.3611 12.4141 16.2309C12.5968 15.9986 12.9066 16.0114 13.7249 16.2852C14.684 16.6062 15.3107 16.6758 16.1332 16.5527C16.4955 16.4985 17.1735 16.3391 17.6399 16.1984C18.3515 15.9837 18.5187 15.9534 18.6803 16.0097C18.9177 16.0925 18.9912 16.3222 18.8494 16.5386C18.7026 16.7627 18.1433 17.012 17.4568 17.1594C16.6796 17.3263 14.9707 17.3769 14.2255 17.255V17.255ZM9.99024 11.8044C9.7818 11.6584 9.81509 11.5006 10.1107 11.2336C10.4772 10.9025 11.0899 10.6241 11.4524 10.6241C12.0676 10.624 12.7741 10.9361 12.942 11.2823C13.0257 11.4547 13.0283 11.5087 12.9577 11.616C12.8244 11.8186 12.5174 11.8093 12.0452 11.5883C11.8144 11.4804 11.5617 11.392 11.4835 11.392C11.4053 11.392 11.1227 11.5072 10.8555 11.648C10.3199 11.9302 10.2006 11.9517 9.99024 11.8044V11.8044ZM20.472 11.3579C20.2432 11.2362 19.9948 11.1365 19.92 11.1363C19.8451 11.1361 19.6211 11.208 19.4221 11.296C19.0284 11.4702 18.749 11.4995 18.6288 11.3792C18.4213 11.1717 18.6373 10.8608 19.1959 10.5631C19.5578 10.3702 19.6286 10.3546 20.016 10.3828C20.7576 10.4367 21.496 10.887 21.496 11.2854C21.496 11.6516 21.0796 11.681 20.472 11.3579V11.3579ZM3.84656 14.912C3.83697 14.7184 3.77378 14.1856 3.70614 13.728C3.51156 12.4116 3.49036 12.0271 3.57448 11.3404C3.66362 10.6127 3.61765 10.432 3.34342 10.432C3.10612 10.432 2.83932 10.7517 2.68767 11.2179C2.41857 12.0449 2.33927 12.4557 2.33898 13.024C2.3386 13.7149 2.47689 14.227 2.76713 14.6096C3.01481 14.9361 3.54901 15.3091 3.73162 15.283C3.84965 15.2661 3.86211 15.2259 3.84656 14.912V14.912ZM28.5832 14.2101C29.4814 13.8024 29.7163 11.6976 29.022 10.2785C28.7506 9.72379 28.3358 9.42538 28.1267 9.63442C27.9989 9.76228 27.9985 9.88526 28.1239 10.528C28.2455 11.1511 28.2661 11.9931 28.1922 13.328C28.1298 14.4573 28.1145 14.4229 28.5832 14.2101H28.5832Z" fill="#AB8A53"/>
<path d="M10.2881 39.8442C10.2749 39.8316 9.8464 39.7892 9.336 39.7499C8.8256 39.7107 8.2352 39.6506 8.024 39.6165C7.8128 39.5824 7.27673 39.5102 6.83273 39.456C5.78551 39.3281 5.012 39.1031 4.376 38.7414C3.67798 38.3444 3.30619 37.9681 2.96359 37.312C2.80735 37.0128 2.5049 36.552 2.29146 36.288C1.40346 35.1897 0.952875 34.3266 0.817834 33.4653C0.715324 32.8116 0.781994 31.5165 0.947275 30.9509C1.16189 30.2165 1.60291 29.3883 2.02444 28.928C2.46026 28.4522 2.68 28.0636 2.68 27.7687C2.68 27.6562 2.5792 27.2524 2.456 26.8713C2.24982 26.2335 2.232 26.1159 2.23201 25.3932C2.23202 24.2922 2.40379 23.4623 2.86341 22.3425C3.07854 21.8184 3.55252 20.971 3.8515 20.576C4.19512 20.1221 4.87768 19.4554 5.272 19.1886C5.99661 18.6984 6.0412 18.5044 5.56167 17.9282C5.38658 17.7178 5.21367 17.5273 5.17742 17.5049C5.14116 17.4825 4.96441 17.2349 4.78465 16.9546C4.41946 16.3853 4.15154 16.1871 3.58989 16.0706C3.1067 15.9704 2.82634 15.8059 2.41422 15.381C1.74241 14.6884 1.46355 13.9123 1.46476 12.7386C1.46587 11.659 1.70075 10.9572 2.25453 10.3787C2.55731 10.0625 2.78611 9.93347 3.40516 9.72991C3.91545 9.5621 4.04028 9.40929 4.14289 8.82675C4.29823 7.9449 5.27048 6.18971 6.20399 5.1059C6.40775 4.86934 6.9309 4.33488 7.36654 3.91822C9.56169 1.81871 12.4376 0.48893 15.566 0.126905C17.4907 -0.0958311 19.9499 0.484752 21.88 1.61758C23.1101 2.33952 23.9557 3.02646 24.8916 4.06402C25.6737 4.93114 25.8984 5.2829 26.6337 6.79097C27.4453 8.45576 27.5821 8.62558 28.28 8.83455C28.9408 9.03241 29.1708 9.15868 29.4783 9.49226C29.972 10.0278 30.1879 10.6357 30.244 11.648C30.291 12.4958 30.1918 13.1033 29.9106 13.6901C29.5881 14.3629 29.2718 14.6658 28.4555 15.0833C27.6814 15.4793 27.6107 15.552 27.0823 16.4962C26.8339 16.94 26.6458 17.1657 26.0878 17.6898C25.3635 18.37 25.1773 18.6395 25.2451 18.9095C25.2685 19.0028 25.5957 19.3608 26.0143 19.7512C26.8363 20.5179 27.2077 20.9895 27.7337 21.9345C28.7139 23.6954 28.9623 25.1392 28.5328 26.578C28.2617 27.4863 28.2769 27.5394 29.0132 28.255C29.6881 28.9108 29.7994 29.0591 30.0318 29.612C30.7956 31.4291 30.8057 33.674 30.0569 35.168C29.911 35.4592 29.2586 36.3353 29.1371 36.4033C29.0928 36.428 28.9157 36.6239 28.7435 36.8385C28.5221 37.1144 28.3967 37.3488 28.3158 37.6384C28.2528 37.8637 28.1482 38.1525 28.0833 38.2802C27.8882 38.6643 27.2226 39.2126 26.552 39.5417L25.944 39.84L18.1281 39.8535C13.8294 39.8609 10.3014 39.8567 10.2881 39.8442V39.8442ZM23.9286 37.5385C25.322 37.3755 26.1358 37.1601 27.1052 36.698C28.3301 36.114 29.0196 35.1569 29.3367 33.6C29.4862 32.8665 29.4414 31.3648 29.2484 30.638C29.0091 29.7364 28.6891 29.1586 28.3189 28.9593C28.0029 28.7891 27.8324 28.869 27.3425 29.4163C26.4065 30.4621 25.0315 31.3918 23.8 31.8116C23.5712 31.8896 22.7792 32.1032 22.04 32.2862C20.7445 32.607 20.6966 32.6245 20.7135 32.7703C20.7372 32.9747 21.0233 33.409 21.6282 34.1584C22.728 35.5211 22.9348 36.516 22.1975 36.8973C21.9509 37.0248 21.2726 37.036 20.5641 36.9243C19.2649 36.7195 17.1241 36.8877 14.664 37.388C13.7356 37.5768 14.1344 37.5951 19.6724 37.6178C22.3709 37.6289 23.3042 37.6115 23.9286 37.5385V37.5385ZM13.144 37.504C13.2182 37.4721 13.2342 37.4471 13.182 37.4445C13.0593 37.4384 12.6833 37.145 12.5631 36.9616C12.5018 36.8679 12.4313 36.4789 12.3755 35.9258C12.2049 34.2348 11.6836 32.9847 11.0079 32.6462C10.7698 32.5269 10.2848 32.4037 9.34342 32.2234C8.56521 32.0744 7.09755 31.5558 6.25953 31.1338C5.54444 30.7737 5.11697 30.478 4.504 29.9195C3.559 29.0585 3.29123 28.9903 2.81116 29.4883C2.475 29.8371 2.24652 30.2834 2.03172 31.011C1.90168 31.4515 1.88134 31.6579 1.88072 32.544C1.87993 33.6648 1.95097 33.9941 2.37786 34.848C2.62242 35.3372 3.35031 36.0642 3.864 36.3323C4.49837 36.6634 5.78508 37.0478 6.904 37.2405C7.95105 37.4208 8.40812 37.4522 10.712 37.5019C11.8384 37.5262 12.8176 37.549 12.888 37.5526C12.9584 37.5561 13.0736 37.5343 13.144 37.504ZM15.16 35.9948C15.9836 35.8033 17.1972 35.6476 18.328 35.5882C18.9616 35.5549 19.5376 35.5311 19.608 35.5352C19.6784 35.5394 20.0168 35.5377 20.36 35.5314C20.9417 35.5208 20.984 35.5112 20.984 35.3895C20.984 35.1869 20.7472 34.77 20.3192 34.2191C19.681 33.3976 19.4389 33.1499 19.0986 32.9703C18.8063 32.816 18.7129 32.8004 18.104 32.8045C17.7344 32.807 17.0737 32.8596 16.6357 32.9214C15.8802 33.0279 15.7747 33.028 14.5787 32.9244C13.8853 32.8643 13.215 32.8345 13.0891 32.8581C12.8718 32.8989 12.8622 32.9114 12.8992 33.1065C12.9207 33.2195 12.9735 33.384 13.0165 33.472C13.1351 33.7145 13.5441 35.0563 13.6233 35.4628C13.7245 35.9819 13.8558 36.0965 14.3465 36.0938C14.5651 36.0925 14.9312 36.048 15.16 35.9948V35.9948ZM12.8254 31.5791C12.9424 31.5235 13.2192 31.2745 13.4403 31.0256C13.974 30.4251 14.14 30.358 15.2932 30.2761C16.3743 30.1993 16.6007 30.1626 16.84 30.0254C17.1932 29.8228 17.0648 29.7601 16.296 29.7594C12.4593 29.7561 10.087 29.1261 8.728 27.7497C7.33203 26.3359 7.32034 24.4349 8.69901 23.037C9.41913 22.3068 10.1211 22.0412 11.736 21.888C13.481 21.7224 14.184 21.631 14.472 21.5323C14.7563 21.4347 14.877 21.3149 14.696 21.3098C12.5854 21.2502 9.82488 20.6064 8.024 19.7539C7.31426 19.4179 7.13954 19.36 6.83498 19.36C6.35779 19.36 5.97681 19.5979 5.44781 20.226C3.9117 22.0501 3.11515 24.0448 3.21241 25.824C3.33922 28.1436 4.66863 29.5652 7.64 30.5588C8.0272 30.6883 9.0928 30.9913 10.008 31.2322C11.8197 31.7092 12.4006 31.7807 12.8254 31.5791V31.5791ZM20.1391 31.5429C20.3961 31.5074 20.9375 31.3829 21.3423 31.2662C22.0311 31.0677 22.328 30.9163 22.328 30.7637C22.328 30.637 21.919 30.0433 21.6503 29.7799C21.2505 29.3881 21.0194 29.2847 20.568 29.2957C19.8629 29.313 18.5164 29.7343 18.3784 29.9809C18.2744 30.1666 17.5002 30.9231 17.3172 31.0178C17.2143 31.071 16.7944 31.1537 16.384 31.2016C14.8933 31.3758 14.5228 31.4652 14.6226 31.6266C14.6705 31.7043 19.5031 31.6309 20.1391 31.5429V31.5429ZM25.0291 29.9995C25.5447 29.7266 26.2201 29.1224 26.5568 28.633C27.4119 27.3902 27.7491 25.6232 27.4165 24.128C27.2681 23.4609 26.6833 22.2726 26.1408 21.536C25.5961 20.7964 24.9184 20.0602 24.6986 19.9691C24.2651 19.7895 23.6886 20.2893 22.7755 21.6366C22.4848 22.0655 22.2186 22.5091 22.1838 22.6223C22.1008 22.8927 22.2172 23.1379 22.681 23.6697C22.8753 23.8925 23.0815 24.166 23.1391 24.2774C23.4401 24.8592 23.4966 25.7278 23.2834 26.4971C23.108 27.1301 22.8859 27.5273 22.44 28.0056C22.2376 28.2227 22.072 28.4412 22.072 28.4912C22.072 28.5412 22.19 28.6959 22.3343 28.835C22.4786 28.9742 22.7968 29.3564 23.0414 29.6844C23.5793 30.4056 23.7349 30.4948 24.2122 30.3552C24.3903 30.3031 24.7579 30.143 25.0291 29.9995V29.9995ZM18.0063 28.336C18.1282 28.2299 18.204 28.0558 18.2945 27.6739C18.4298 27.1032 18.6663 26.375 18.7516 26.2665C18.7817 26.2283 18.8488 26.0765 18.9007 25.9294C19.1474 25.2302 20.2289 23.2944 20.8547 22.432C21.0846 22.1152 21.3565 21.7324 21.459 21.5813C21.5614 21.4301 21.6809 21.2861 21.7246 21.2613C21.8388 21.1961 22.3689 20.4617 22.4216 20.2955C22.4621 20.168 22.4495 20.1589 22.2851 20.197C22.1855 20.2201 21.9024 20.3081 21.656 20.3926C21.4096 20.4771 20.9603 20.631 20.6575 20.7346C20.3547 20.8382 19.8812 20.9696 19.6053 21.0266C18.6951 21.2146 18.3247 21.5056 17.8164 22.432C17.6389 22.7554 17.4031 23.0477 16.4723 24.0981C16.1905 24.4161 15.744 24.9599 15.48 25.3066C15.216 25.6533 14.9568 25.984 14.904 26.0416C14.7914 26.1643 14.4522 26.6115 14.36 26.7587C14.3248 26.8149 14.2105 26.9876 14.106 27.1424C13.9083 27.4353 13.6103 28.2141 13.6632 28.2996C13.6798 28.3266 13.8722 28.3483 14.0907 28.3478C14.4098 28.3471 16.372 28.4151 17.6044 28.4696C17.7687 28.4768 17.8913 28.4361 18.0063 28.336V28.336ZM20.1892 28.0644C20.8719 27.8074 21.2246 27.5848 21.6217 27.1603C22.0994 26.6496 22.2222 26.3073 22.1885 25.5802C22.1605 24.977 21.9133 24.3345 21.6404 24.1557C21.3383 23.9577 21.2149 24.0924 20.6831 25.2009C19.948 26.7331 19.4945 27.9764 19.6054 28.1559C19.6646 28.2516 19.7112 28.2443 20.1892 28.0644V28.0644ZM12.4113 27.9331C12.5199 27.8291 12.7923 27.3696 13.0165 26.912C13.2406 26.4544 13.5675 25.864 13.7428 25.6C14.0759 25.0983 15.3709 23.4755 16.0869 22.6624C16.4543 22.2453 16.5885 22.016 16.4652 22.016C16.3727 22.016 15.5701 22.2356 14.712 22.4957C13.4612 22.8749 12.6864 23.0228 11.544 23.1004C10.3043 23.1845 9.91568 23.3089 9.40005 23.7862C8.969 24.1853 8.78704 24.5214 8.72637 25.0304C8.61561 25.9597 9.28288 27.1073 10.272 27.6887C11.1326 28.1945 12.0309 28.2971 12.4113 27.9331V27.9331ZM17.304 20.0301C18.4188 19.9362 19.3511 19.7927 20.203 19.5839C24.3643 18.5639 26.6951 16.3565 27.0623 13.088C27.204 11.8264 27.0931 10.746 26.7796 10.3351C26.6265 10.1343 26.3043 9.97288 25.391 9.63928C24.9048 9.46169 24.551 9.18719 23.4618 8.14257C22.8926 7.59663 22.239 6.99903 22.0094 6.81457C20.8545 5.88664 19.8856 5.74842 18.008 6.24377C16.2964 6.69534 16.0818 6.73224 15.32 6.70589C14.6228 6.68178 14.6069 6.67771 13.6742 6.28349C12.561 5.81301 12.0583 5.72034 11.1989 5.82714C9.55835 6.031 8.5514 6.77698 6.96507 8.9637C6.22514 9.98367 5.85261 10.3517 5.35763 10.5518C4.85038 10.7569 4.82168 10.8463 4.84145 12.16C4.88229 14.873 5.20927 16.0178 6.27697 17.186C7.63127 18.6679 10.7896 19.7833 14.392 20.0522C15.0572 20.1018 16.5898 20.0902 17.304 20.0301V20.0301ZM14.232 17.2505C13.2586 17.0968 12.4999 16.8033 12.3495 16.5223C12.2975 16.425 12.3116 16.3611 12.4141 16.2309C12.5968 15.9986 12.9066 16.0114 13.7249 16.2852C14.6832 16.6059 15.3105 16.6757 16.1332 16.5531C16.4955 16.4991 17.1281 16.3526 17.5388 16.2275C18.3958 15.9664 18.674 15.9446 18.8377 16.1254C19.1003 16.4157 18.7371 16.7955 17.976 17.0263C16.987 17.3263 15.3373 17.4251 14.232 17.2505V17.2505ZM9.99024 11.8044C9.91201 11.7496 9.848 11.6521 9.848 11.5878C9.848 11.2831 10.9218 10.6242 11.4186 10.6241C12.3585 10.6239 13.2983 11.2698 12.9152 11.6528C12.7425 11.8255 12.4982 11.8066 12.0544 11.586C11.8441 11.4815 11.5976 11.3951 11.5067 11.394C11.4158 11.3929 11.1227 11.5072 10.8555 11.648C10.3199 11.9302 10.2006 11.9517 9.99024 11.8044V11.8044ZM20.472 11.3579C19.9752 11.0936 19.88 11.0881 19.4099 11.296C18.8691 11.5352 18.552 11.4926 18.552 11.1809C18.552 11.0197 18.8843 10.7164 19.2813 10.5152C19.5557 10.3761 19.6625 10.3571 20.021 10.3831C20.7577 10.4367 21.496 10.8883 21.496 11.2854C21.496 11.6516 21.0796 11.681 20.472 11.3579V11.3579ZM3.84656 14.912C3.83697 14.7184 3.77462 14.1856 3.70801 13.728C3.51696 12.4156 3.49936 12.0992 3.57718 11.3765C3.66004 10.6069 3.61677 10.432 3.34342 10.432C3.06723 10.432 2.82979 10.7607 2.61909 11.4348C2.25259 12.6073 2.22914 13.525 2.5473 14.2443C2.77541 14.76 3.41325 15.3149 3.736 15.2785C3.84917 15.2657 3.86198 15.2232 3.84656 14.912V14.912ZM28.5798 14.2116C28.8701 14.0798 29.1018 13.7823 29.2803 13.312C29.4208 12.942 29.4403 11.586 29.3125 11.072C29.065 10.0768 28.441 9.32016 28.1267 9.63442C27.9988 9.7624 27.9984 9.89869 28.1239 10.5606C28.2468 11.2083 28.265 11.9416 28.1918 13.296C28.1289 14.4601 28.1134 14.4234 28.5798 14.2116V14.2116Z" fill="#8C7657"/>
<path d="M10.616 39.8048C10.176 39.7814 9.31201 39.7151 8.69601 39.6575C5.89606 39.396 5.1556 39.2171 4.08801 38.5444C3.55394 38.2078 3.34389 37.9756 3.0029 37.3449C2.83136 37.0276 2.50712 36.5352 2.28236 36.2507C1.48423 35.2404 1.16177 34.6831 0.915307 33.888C0.728846 33.2864 0.742032 31.7633 0.939847 31.0534C1.20828 30.09 1.69129 29.2113 2.23135 28.704C2.51124 28.441 2.68001 28.0892 2.68001 27.7686C2.68001 27.621 2.57643 27.1806 2.44985 26.7901C2.22131 26.085 2.21989 26.0737 2.24838 25.184C2.27209 24.4432 2.31141 24.1605 2.47539 23.552C2.99862 21.6103 3.96647 20.121 5.31916 19.1759C6.03309 18.6772 6.06051 18.4679 5.49718 17.8178C5.28663 17.5748 4.97097 17.1702 4.79571 16.9186C4.42104 16.3808 4.23001 16.2167 3.87165 16.1247C3.01044 15.9037 2.93791 15.8694 2.53663 15.4938C1.81808 14.8212 1.46401 13.9147 1.46401 12.7478C1.46401 11.9576 1.57955 11.4508 1.88498 10.9013C2.19912 10.3361 2.57672 10.0284 3.2129 9.8193C3.95254 9.57621 4.05408 9.47082 4.15552 8.84092C4.27725 8.08507 5.11701 6.49315 5.93269 5.47198C6.43229 4.84652 7.69242 3.56422 8.15201 3.21361C9.7597 1.98717 11.286 1.17821 12.9348 0.678627C14.0117 0.352338 15.4967 0.106642 16.376 0.109274C19.4523 0.11848 22.5452 1.52815 24.7498 3.92584C25.6186 4.87082 25.9753 5.41517 26.5805 6.71999C26.8773 7.35967 27.2247 8.03499 27.3526 8.22071C27.6053 8.58757 27.8487 8.73102 28.6066 8.95978C29.5917 9.25708 30.1639 10.2201 30.2419 11.712C30.2836 12.5093 30.1709 13.1446 29.8843 13.728C29.5755 14.3567 29.2999 14.6247 28.6026 14.9747C28.2607 15.1463 27.8904 15.3628 27.7797 15.4559C27.6691 15.549 27.3782 15.9626 27.1334 16.375C26.7007 17.1036 26.262 17.6058 25.7363 17.9746C25.5074 18.1351 25.2078 18.5978 25.2084 18.7896C25.2091 18.9857 25.393 19.2069 26.0247 19.7715C26.7468 20.4168 27.3374 21.1867 27.7963 22.0806C28.7046 23.8502 28.9453 25.2022 28.5644 26.3951C28.3081 27.1977 28.2981 27.3984 28.4973 27.7383C28.5906 27.8976 28.7887 28.1123 28.9375 28.2155C29.6286 28.695 30.0729 29.4808 30.4259 30.848C30.6917 31.8777 30.6625 33.3335 30.3564 34.3045C30.0617 35.2394 29.8562 35.5761 29.0284 36.48C28.5548 36.9971 28.4008 37.2473 28.2802 37.6953C28.1671 38.1153 27.9368 38.5327 27.6937 38.7583C27.2885 39.1343 26.7314 39.4816 26.221 39.6765L25.7091 39.872L18.5625 39.8597C14.6319 39.853 11.056 39.8283 10.616 39.8048ZM24.44 37.5434C25.7509 37.33 27.0495 36.8883 27.7181 36.4283C28.4462 35.9273 29.0299 35.0445 29.3156 34.0123C29.4352 33.5801 29.4566 33.3361 29.4585 32.384C29.4605 31.4275 29.4396 31.1799 29.3158 30.6881C29.0727 29.7221 28.7395 29.1217 28.3218 28.8968C28.029 28.7391 27.8344 28.802 27.5003 29.1622C26.5028 30.2378 25.6909 30.8634 24.6 31.3968C23.8722 31.7527 22.9291 32.0427 21.4403 32.3683C20.9385 32.4781 20.6358 32.5751 20.6134 32.6333C20.5571 32.7802 20.8826 33.3264 21.4325 34.0076C22.4591 35.2793 22.7743 36.0422 22.4793 36.5414C22.24 36.9466 21.8261 37.0284 20.729 36.8877C19.6017 36.7431 17.925 36.7939 16.408 37.0186C15.7744 37.1125 15.0976 37.2301 14.904 37.2799C13.8362 37.5548 13.3049 37.5344 12.8652 37.2016C12.5704 36.9786 12.4978 36.7626 12.4182 35.872C12.2708 34.2226 11.7204 32.9399 11.0061 32.5808C10.7811 32.4676 10.2265 32.3321 9.4072 32.19C8.69244 32.0661 7.14439 31.5153 6.26259 31.0713C5.53713 30.7059 5.11282 30.4099 4.53766 29.8679C3.42221 28.8168 2.93773 28.87 2.31272 30.112C1.97824 30.7767 1.83994 31.3683 1.80209 32.2965C1.75972 33.3355 1.86601 33.8946 2.26283 34.72C2.85139 35.9442 3.71447 36.5176 5.78401 37.0596C7.25335 37.4444 8.62901 37.5599 11.928 37.5754C13.0192 37.5806 14.5744 37.6056 15.384 37.631C16.1936 37.6564 18.4112 37.6717 20.312 37.665C23.2256 37.6547 23.8735 37.6356 24.44 37.5434V37.5434ZM15.576 36.0013C16.8221 35.7482 17.2723 35.7068 19.202 35.668C20.2106 35.6476 21.0688 35.6107 21.1089 35.5859C21.2475 35.5002 20.935 34.8648 20.4117 34.1681C19.8016 33.356 19.3612 32.9439 18.9562 32.8059C18.5732 32.6753 17.8616 32.6755 16.9382 32.8063C16.4202 32.8796 15.9807 32.898 15.384 32.8711C14.9264 32.8505 14.1776 32.8173 13.72 32.7972C13.2298 32.7757 12.8512 32.7859 12.7984 32.8221C12.7245 32.8726 12.7722 33.0662 13.071 33.9297C13.2702 34.5051 13.4618 35.1344 13.4968 35.328C13.6707 36.2906 13.856 36.3506 15.576 36.0013V36.0013ZM12.6705 31.671C12.7939 31.6296 13.1372 31.3567 13.464 31.0402C14.1265 30.3985 14.2031 30.3692 15.384 30.3056C15.7712 30.2848 16.2402 30.2376 16.4263 30.2008C16.7745 30.132 17.1315 29.895 17.0603 29.7799C17.0359 29.7403 16.3745 29.6994 15.3701 29.6753C13.1536 29.6221 12.3371 29.5073 11.0251 29.0647C8.92352 28.3556 7.73022 27.0174 7.7249 25.3635C7.71972 23.7557 8.95907 22.3673 10.68 22.0531C10.9792 21.9985 11.7712 21.909 12.44 21.8542C13.6316 21.7566 14.7348 21.5585 14.8156 21.4276C14.8903 21.3068 14.6851 21.25 14.168 21.2483C12.6358 21.2433 9.65072 20.4974 7.97656 19.7011C7.04052 19.2558 6.74071 19.2128 6.26542 19.4553C5.59401 19.7978 4.30645 21.5364 3.76408 22.8329C2.85376 25.0089 2.9999 27.1067 4.16129 28.5347C4.779 29.2942 6.11186 30.0806 7.64001 30.5871C8.32903 30.8155 10.5991 31.4384 11.512 31.6495C11.9669 31.7546 12.3972 31.7627 12.6705 31.671V31.671ZM19.5447 31.6808C20.2697 31.6313 20.6112 31.5716 21.3275 31.3692C21.8738 31.2149 22.2638 31.0686 22.3445 30.9879L22.4754 30.857L22.3087 30.5165C22.0859 30.0612 21.5601 29.4824 21.2197 29.3177C20.874 29.1503 20.6272 29.15 19.8101 29.316C18.826 29.5159 18.5183 29.6792 17.9513 30.3021C17.6868 30.5926 17.374 30.8761 17.2562 30.932C17.1384 30.9879 16.7697 31.065 16.437 31.1033C15.1685 31.2495 14.8641 31.3039 14.6001 31.4317C14.3085 31.5728 14.2607 31.653 14.44 31.6999C14.6562 31.7563 18.6575 31.7414 19.5447 31.6808V31.6808ZM24.908 30.1224C25.6459 29.748 26.1927 29.2638 26.6401 28.5883C27.3071 27.5814 27.594 26.6149 27.5935 25.376C27.5931 24.3607 27.4427 23.7584 26.9381 22.752C26.3824 21.6436 25.2529 20.1908 24.7409 19.9261C24.5712 19.8383 24.5255 19.8388 24.2844 19.9309C23.9766 20.0485 23.5926 20.3971 23.2294 20.8887C22.7729 21.5067 22.1917 22.4046 22.1257 22.5941C22.0276 22.8753 22.1483 23.1466 22.595 23.6499C23.1409 24.2649 23.3072 24.6508 23.34 25.3789C23.3858 26.3946 23.0951 27.1894 22.4116 27.9172C22.1809 28.1628 22.008 28.4044 22.008 28.4812C22.008 28.5595 22.1313 28.7273 22.3038 28.8837C22.4665 29.0313 22.717 29.3244 22.8605 29.5352C23.0041 29.746 23.2374 30.0443 23.3791 30.198C23.6317 30.4719 23.6434 30.4769 23.9784 30.4491C24.2191 30.4291 24.4936 30.3327 24.908 30.1224ZM18.094 28.432C18.1786 28.3603 18.2749 28.124 18.3613 27.776C18.8282 25.8948 20.28 23.185 21.7938 21.3689C22.3483 20.7037 22.5603 20.3921 22.5943 20.1925C22.6131 20.0822 22.5859 20.0679 22.3934 20.0868C22.271 20.0989 21.8534 20.2233 21.4654 20.3634C20.4483 20.7306 20.2529 20.79 19.576 20.9374C18.5857 21.1531 18.4542 21.2556 17.7004 22.4C17.5033 22.6992 16.9193 23.4336 16.4027 24.032C15.2623 25.353 14.1592 26.8079 13.89 27.3462C13.6777 27.7705 13.5095 28.3228 13.5731 28.3864C13.6048 28.4181 15.2407 28.4789 17.5369 28.5338C17.8593 28.5415 17.9937 28.517 18.094 28.432V28.432ZM20.2813 28.0916C20.9788 27.8226 21.5203 27.4462 21.8457 27.0043C22.1908 26.5354 22.2884 26.1851 22.2515 25.5474C22.2173 24.9563 21.9384 24.2751 21.6545 24.0891C21.299 23.8562 21.1033 24.1095 20.3442 25.7843C19.9459 26.6631 19.512 27.8315 19.512 28.0254C19.512 28.1401 19.6285 28.288 19.7189 28.288C19.7482 28.288 20.0013 28.1996 20.2813 28.0916V28.0916ZM12.4042 28.0454C12.4993 27.975 12.7716 27.5226 13.0531 26.9674C13.3199 26.4411 13.685 25.7929 13.8646 25.5268C14.2846 24.9044 15.4391 23.4633 16.0063 22.8534C16.4444 22.3823 16.676 22.0386 16.6039 21.9665C16.5495 21.9122 15.7078 22.1204 14.7107 22.4348C13.5027 22.8159 12.7279 22.9643 11.5615 23.0381C10.4041 23.1113 10.0141 23.2192 9.49827 23.6087C8.34206 24.4816 8.37547 25.9989 9.5773 27.1973C10.0384 27.657 10.7201 28.0471 11.256 28.1578C11.6678 28.2428 12.2093 28.1898 12.4042 28.0454V28.0454ZM18.5394 19.9441C21.5962 19.4716 23.8242 18.486 25.3062 16.9509C26.6147 15.5956 27.128 14.2003 27.128 11.9991C27.128 11.2085 27.0272 10.6307 26.8393 10.3439C26.7226 10.1658 26.268 9.91385 25.784 9.75894C24.9832 9.50265 24.5766 9.20427 23.256 7.904C21.8915 6.56053 21.1394 6.07938 20.2013 5.94984C19.5694 5.86258 18.9956 5.93822 17.7623 6.27133C15.6746 6.83523 15.1696 6.85316 14.072 6.40237C12.8015 5.88057 12.5867 5.81521 12.024 5.77906C10.6862 5.69313 9.55685 6.11041 8.51391 7.07602C8.00212 7.54986 7.56444 8.0718 6.82678 9.08798C6.21292 9.93361 5.85247 10.2849 5.34942 10.528C5.10973 10.6438 4.92063 10.7835 4.87295 10.88C4.7731 11.0821 4.76597 12.575 4.86024 13.5409C4.94841 14.4442 5.13809 15.3852 5.31196 15.782C5.65325 16.5608 6.31051 17.3687 7.03201 17.8965C8.36167 18.869 10.7978 19.6715 13.4288 20.0036C14.3677 20.1222 17.6337 20.0841 18.5394 19.9441ZM14.68 17.2736C13.6422 17.1641 12.539 16.8207 12.4019 16.5646C12.3119 16.3964 12.3802 16.2252 12.5722 16.1377C12.8041 16.0321 12.8293 16.0363 13.7329 16.3324C14.5381 16.5963 14.5672 16.6008 15.448 16.5997C16.3823 16.5985 16.5782 16.5618 18.0131 16.1201C18.5145 15.9658 18.7628 15.988 18.8747 16.197C18.957 16.3508 18.8397 16.5743 18.5914 16.737C17.9607 17.1503 16.0262 17.4156 14.68 17.2736ZM9.94858 11.7394C9.89326 11.6841 9.84801 11.6083 9.84801 11.571C9.84801 11.4418 10.299 11.0785 10.7116 10.8754C11.0953 10.6865 11.1627 10.6736 11.623 10.7012C12.5763 10.7584 13.3193 11.3613 12.8308 11.6814C12.65 11.7999 12.4506 11.7647 12.0086 11.5361C11.5905 11.3199 11.3459 11.3354 10.8557 11.6096C10.4133 11.857 10.1096 11.9005 9.94858 11.7394V11.7394ZM20.5509 11.3592C20.0662 11.0894 19.8362 11.0787 19.3073 11.3013C18.9921 11.434 18.8849 11.4532 18.7652 11.3987C18.3494 11.2093 18.8995 10.5926 19.6322 10.4267C20.1695 10.3051 21.1226 10.6429 21.3696 11.0426C21.5223 11.2896 21.526 11.3529 21.3954 11.4834C21.2394 11.6395 20.9879 11.6025 20.5509 11.3592V11.3592ZM3.8535 14.8095C3.84772 14.5315 3.79045 14.0304 3.72623 13.696C3.63759 13.2344 3.60929 12.7796 3.60874 11.808C3.60836 11.104 3.58471 10.492 3.55623 10.448C3.46173 10.302 3.24394 10.365 3.00002 10.6089C2.81852 10.7904 2.71849 10.9784 2.59444 11.371C2.13602 12.8222 2.22489 14.048 2.84067 14.7674C3.05893 15.0224 3.66614 15.3844 3.79795 15.3382C3.83707 15.3244 3.85972 15.1089 3.8535 14.8095V14.8095ZM28.5872 14.2457C28.8486 14.1091 29.0891 13.8277 29.2486 13.472C29.4426 13.0391 29.4907 11.8398 29.3422 11.136C29.1591 10.2678 28.6915 9.53598 28.3199 9.53598C27.9972 9.53598 27.9523 9.8199 28.1282 10.747C28.2115 11.1863 28.2243 11.5197 28.1921 12.416C28.17 13.032 28.1336 13.716 28.1111 13.936L28.0702 14.336H28.2423C28.3369 14.336 28.4921 14.2953 28.5872 14.2457V14.2457Z" fill="#675D53"/>
<path d="M10.648 39.7432C9.54774 39.6753 7.6492 39.4964 6.84 39.3843C4.85052 39.1088 3.63706 38.4443 3.06337 37.3163C2.9279 37.0499 2.75021 36.7427 2.66852 36.6337C2.58683 36.5246 2.29634 36.1403 2.02299 35.7797C1.09041 34.5496 0.775362 33.6084 0.843932 32.2574C0.908286 30.9895 1.36967 29.7797 2.09681 28.9722C2.82219 28.1667 2.87392 27.9021 2.52 26.8072C2.31532 26.1741 2.29611 26.0494 2.29738 25.3612C2.30006 23.9035 2.8279 22.2723 3.74634 20.8832C4.08822 20.3661 4.86319 19.5693 5.32897 19.2559C5.82609 18.9214 5.94081 18.777 5.94257 18.4833C5.94372 18.2923 5.88256 18.1728 5.62566 17.8641C5.45058 17.6537 5.27896 17.4641 5.24429 17.4426C5.20962 17.4212 5.02665 17.1665 4.83768 16.8766C4.4531 16.2866 4.28275 16.1705 3.45309 15.9334C3.03811 15.8148 2.9262 15.7478 2.56627 15.4028C2.11626 14.9715 1.78553 14.4018 1.62317 13.7785C1.50408 13.3213 1.4996 12.1757 1.61521 11.744C1.83423 10.9261 2.41519 10.1802 3.0018 9.96382C3.15921 9.90574 3.43061 9.80694 3.60491 9.74425C3.98865 9.60623 4.10687 9.4279 4.24031 8.78579C4.42437 7.90005 5.36737 6.22731 6.31973 5.09721C6.55276 4.82068 7.09913 4.26761 7.53388 3.86816C9.6186 1.9527 12.4172 0.613902 14.9481 0.321399C15.2934 0.281483 15.7219 0.218311 15.9002 0.181016C16.0785 0.143722 16.3665 0.130374 16.5402 0.151355C16.7139 0.172335 17.1152 0.215616 17.432 0.247535C18.2783 0.332802 18.7581 0.4321 19.5354 0.682854C21.4066 1.28646 22.8899 2.18201 24.2508 3.52964C25.4301 4.69744 25.6952 5.07707 26.5506 6.82294C27.3833 8.52229 27.5173 8.68928 28.216 8.89851C28.8809 9.09759 29.1068 9.22263 29.4244 9.56718C30.2554 10.4686 30.4477 12.3412 29.842 13.632C29.5384 14.2788 29.2129 14.5962 28.4506 14.989C28.1045 15.1674 27.7301 15.4073 27.6186 15.5222C27.5072 15.6371 27.2576 16.0113 27.064 16.3539C26.7727 16.8694 26.6016 17.0805 26.072 17.5781C24.9982 18.5871 24.9353 18.7693 25.4617 19.3452C25.6364 19.5364 25.9399 19.8167 26.1363 19.9682C26.7498 20.4416 27.7016 21.8625 28.1635 22.9949C28.7118 24.3387 28.7993 25.3209 28.472 26.4538C28.1648 27.5169 28.1837 27.5821 29.041 28.416C29.7543 29.1099 29.9435 29.4425 30.275 30.5853C30.5078 31.3877 30.5888 32.2327 30.5151 33.088C30.4597 33.7308 30.224 34.6464 29.9991 35.0926C29.8387 35.4109 29.3056 36.1457 29.1068 36.3225C28.6496 36.7292 28.35 37.1898 28.1837 37.7419C28.0235 38.2736 27.9903 38.3273 27.5688 38.736C27.2322 39.0624 26.9714 39.2423 26.5017 39.472L25.88 39.776L18.616 39.7813C14.6208 39.7842 11.0352 39.7671 10.648 39.7432V39.7432ZM22.936 37.7604C25.9555 37.5907 27.9124 36.8093 28.7874 35.4238C29.4112 34.436 29.6641 33.2509 29.5576 31.8141C29.4269 30.0505 28.7753 28.7363 28.0314 28.7358C27.823 28.7357 27.7428 28.7952 27.224 29.3345C26.3232 30.2712 25.6371 30.791 24.6413 31.2914C23.9361 31.6458 23.2463 31.8658 21.8142 32.1931C21.164 32.3417 20.5917 32.5011 20.5424 32.5474C20.4016 32.6799 20.7143 33.2437 21.402 34.0975C22.0195 34.8642 22.4462 35.6118 22.5015 36.0243C22.5449 36.348 22.3944 36.6259 22.0999 36.7656C21.8387 36.8896 21.4556 36.8835 20.0027 36.7325C19.343 36.6639 19.003 36.662 18.2747 36.7231C17.1493 36.8174 15.3038 37.0838 14.7646 37.2298C14.5257 37.2945 14.1195 37.3403 13.7729 37.3417C13.2776 37.3436 13.1582 37.3234 13.0089 37.212C12.6487 36.9435 12.5921 36.802 12.529 36.0128C12.3923 34.301 11.7999 32.8874 11.0614 32.5107C10.9301 32.4437 10.3976 32.302 9.87802 32.1959C8.54852 31.9242 7.34975 31.5222 6.31065 30.9995C5.59126 30.6377 5.19525 30.3629 4.58198 29.8C3.92239 29.1946 3.70262 29.0622 3.352 29.0591C2.92046 29.0553 2.61049 29.3423 2.22039 30.107C1.88248 30.7694 1.70561 31.595 1.7052 32.512C1.70475 33.4733 1.81445 33.9957 2.17198 34.7352C2.65989 35.7443 3.43684 36.3852 4.70114 36.8215C6.51552 37.4476 7.36833 37.552 11.352 37.6356C13.0768 37.6718 15.496 37.7244 16.728 37.7526C19.9993 37.8272 21.7091 37.8293 22.936 37.7604V37.7604ZM15.3916 36.1306C16.6583 35.8684 17.662 35.7683 19.4766 35.7231L21.208 35.68L21.2285 35.5356C21.2611 35.3057 20.978 34.7709 20.4579 34.08C19.6533 33.011 19.2181 32.6825 18.4923 32.5966C18.3112 32.5751 17.6608 32.6223 16.9656 32.7073C15.7658 32.8541 15.7432 32.8545 14.5452 32.7502C13.3106 32.6426 12.7826 32.6571 12.6625 32.8017C12.6134 32.8609 12.6808 33.1161 12.9094 33.7375C13.0823 34.2075 13.273 34.808 13.3332 35.072C13.504 35.8216 13.6163 36.0875 13.8056 36.1903C14.0555 36.3261 14.5345 36.308 15.3916 36.1306V36.1306ZM19.416 31.7727C20.2591 31.7358 20.7216 31.6565 21.592 31.3995C22.2289 31.2114 22.4777 31.0645 22.5084 30.8582C22.5558 30.5393 21.8409 29.5725 21.341 29.2795C20.9022 29.0224 20.0486 29.0825 18.9368 29.4491C18.562 29.5726 18.4619 29.6467 17.944 30.1836C17.6018 30.5384 17.2696 30.8211 17.1256 30.8802C16.9923 30.9349 16.5747 31.0083 16.1976 31.0433C15.192 31.1366 14.7768 31.2223 14.472 31.3993C14.0457 31.647 14.112 31.7658 14.712 31.829C14.992 31.8585 18.3823 31.8179 19.416 31.7727V31.7727ZM12.6877 31.7385C12.8684 31.6883 13.0854 31.5174 13.4901 31.1065C14.1338 30.4529 14.1339 30.4528 15.6336 30.3406C16.3032 30.2905 16.5914 30.2411 16.7987 30.1407C17.0583 30.0151 17.1946 29.8296 17.1182 29.7059C17.0994 29.6756 16.3271 29.6334 15.402 29.6122C14.4769 29.5911 13.417 29.5315 13.0466 29.4799C10.7912 29.1658 9.10625 28.3248 8.31418 27.1179C7.36157 25.6664 7.72181 23.8073 9.16161 22.7447C9.84587 22.2398 10.4567 22.0848 12.408 21.9213C14.022 21.7861 14.968 21.5746 14.968 21.3492C14.968 21.2286 14.7616 21.186 14.168 21.1842C12.6355 21.1795 9.67367 20.4392 7.97367 19.6359C6.99406 19.173 6.72876 19.1424 6.19856 19.4309C5.36865 19.8826 3.92187 22.0157 3.45273 23.4792C3.2131 24.2267 3.1161 24.8415 3.1181 25.6C3.12387 27.7864 4.19334 29.2225 6.584 30.254C7.3522 30.5854 8.10959 30.8252 9.80954 31.2748C11.9727 31.8471 12.1778 31.8801 12.6877 31.7385V31.7385ZM24.5858 30.3697C26.5736 29.5725 27.8458 27.3556 27.6792 24.9795C27.6 23.8508 27.1219 22.663 26.2702 21.4789C25.7254 20.7215 25.048 19.9812 24.7853 19.8559C24.2637 19.6072 23.6006 20.1507 22.5977 21.6492C21.8325 22.7927 21.8294 22.9343 22.5527 23.7411C22.7564 23.9683 22.998 24.3139 23.0895 24.5091C23.2359 24.8212 23.2558 24.9449 23.255 25.536C23.2543 26.0685 23.2237 26.2969 23.1071 26.6362C22.9549 27.0796 22.5059 27.84 22.3963 27.84C22.3246 27.84 21.88 28.4038 21.88 28.4947C21.88 28.5279 22.0468 28.7326 22.2507 28.9495C22.4547 29.1665 22.7877 29.5687 22.9909 29.8434C23.5798 30.6397 23.7624 30.7 24.5858 30.3697V30.3697ZM18.0022 28.5825C18.12 28.5333 18.237 28.4597 18.2622 28.419C18.2873 28.3782 18.3923 28.0233 18.4954 27.6303C18.9717 25.8148 20.4185 23.158 21.8838 21.408C22.4203 20.7671 22.712 20.3088 22.712 20.1065C22.712 19.9575 22.6976 19.9518 22.4069 19.9863C22.2391 20.0062 21.6677 20.181 21.1372 20.3748C20.6066 20.5686 19.9318 20.7728 19.6377 20.8286C18.6105 21.0235 18.4095 21.1757 17.6062 22.368C17.2117 22.9534 17.1452 23.0362 16.0342 24.3245C15.3138 25.1599 14.4049 26.3374 14.0162 26.939C13.6918 27.441 13.3928 28.3236 13.5024 28.4557C13.5588 28.5236 13.8209 28.5458 14.6398 28.5518C15.5197 28.5582 16.9988 28.612 17.6421 28.6609C17.7224 28.667 17.8845 28.6317 18.0022 28.5825V28.5825ZM20.285 28.185C20.9757 27.9045 21.1898 27.7734 21.5993 27.3801C22.2562 26.7493 22.4914 26.0167 22.3009 25.1951C22.061 24.1609 21.5814 23.6968 21.1485 24.08C20.8167 24.3737 19.448 27.5493 19.448 28.0254C19.448 28.3923 19.6703 28.4347 20.285 28.185ZM12.313 28.1872C12.5745 28.0631 12.7397 27.8179 13.1949 26.8777C13.3903 26.4742 13.6941 25.928 13.8701 25.664C14.2763 25.0544 15.4557 23.5643 15.8963 23.104C16.5462 22.425 16.8186 21.9713 16.6419 21.8621C16.5648 21.8144 15.7217 22.0275 14.68 22.358C13.5196 22.7262 12.6916 22.8892 11.7152 22.9418C10.2719 23.0195 9.80155 23.1718 9.21162 23.7525C8.73564 24.221 8.6 24.5534 8.6 25.2513C8.6 25.7961 8.61497 25.861 8.85089 26.3393C9.13432 26.914 9.67705 27.5067 10.2 27.8127C10.9383 28.2448 11.8508 28.4065 12.313 28.1872ZM18.552 20.0033C23.4492 19.2291 26.327 17.1365 27.0501 13.824C27.1847 13.2075 27.2024 11.1161 27.0766 10.7006C26.939 10.2461 26.6156 9.98754 25.8342 9.70734C25.4589 9.57278 25.0189 9.3746 24.8564 9.26692C24.6938 9.15925 24.0951 8.62447 23.5258 8.07853C21.5236 6.15832 21.0204 5.86787 19.704 5.8726C19.1237 5.87469 18.8966 5.91113 18.04 6.13951C15.653 6.77594 15.1913 6.79912 14.072 6.33877C12.5338 5.70613 12.6466 5.73541 11.736 5.73223C11.0378 5.72979 10.8271 5.75337 10.4256 5.87886C9.14084 6.28047 8.29769 6.99223 6.98503 8.78326C6.15147 9.92062 5.76078 10.3219 5.37407 10.4377C5.04796 10.5354 4.82068 10.7525 4.76781 11.0169C4.70506 11.3307 4.7213 12.7732 4.79623 13.5409C4.99395 15.5665 5.46031 16.6197 6.60412 17.624C7.92473 18.7834 10.4685 19.6916 13.432 20.0617C14.4495 20.1888 17.6067 20.1528 18.552 20.0033V20.0033ZM14.936 17.2422C14.8304 17.2273 14.5143 17.184 14.2335 17.1459C13.5676 17.0557 12.7748 16.8025 12.5525 16.6092C12.4075 16.4831 12.3886 16.4351 12.4466 16.3399C12.601 16.0866 12.7965 16.0928 13.6977 16.3792C15.1014 16.8252 16.0077 16.8048 17.6496 16.29C18.4777 16.0304 18.618 16.0174 18.7712 16.1867C19.1827 16.6414 17.7321 17.1672 15.864 17.2404C15.4592 17.2563 15.0416 17.2571 14.936 17.2422V17.2422ZM9.98075 11.6857C9.8664 11.5479 10.2086 11.1995 10.7064 10.9468C11.0966 10.7488 11.155 10.7372 11.6216 10.765C11.9657 10.7856 12.2091 10.8397 12.408 10.94C12.881 11.1785 13.0589 11.5051 12.7933 11.6473C12.6385 11.7301 12.4081 11.6787 12.0086 11.4721C11.5905 11.2559 11.3459 11.2715 10.8557 11.5456C10.4239 11.7871 10.107 11.8378 9.98075 11.6857V11.6857ZM20.568 11.2971C20.0989 11.0268 19.8382 11.0139 19.3133 11.2348C18.8546 11.4279 18.6629 11.4006 18.6923 11.1465C18.7155 10.9457 19.186 10.601 19.5827 10.4942C20.0888 10.3579 20.9332 10.617 21.2639 11.0101C21.4496 11.2308 21.4702 11.3282 21.3552 11.4432C21.2237 11.5746 20.967 11.527 20.568 11.2971V11.2971ZM3.91795 14.8461C3.91242 14.5479 3.85515 14.0304 3.79068 13.696C3.70119 13.2318 3.67328 12.7819 3.67273 11.7945C3.67209 10.6643 3.65829 10.4872 3.56346 10.3922C3.47662 10.3052 3.41265 10.2955 3.24346 10.3435C2.943 10.4287 2.67714 10.8586 2.45292 11.6218C2.29214 12.169 2.26679 12.3613 2.26796 13.024C2.2691 13.6673 2.29261 13.8506 2.41279 14.1534C2.60051 14.6263 3.00981 15.0844 3.41356 15.2734C3.90365 15.503 3.92971 15.4809 3.91795 14.8461ZM28.696 14.2531C29.0023 14.08 29.3298 13.5687 29.4281 13.1101C29.5249 12.6591 29.5101 11.6292 29.3993 11.104C29.2141 10.2257 28.702 9.47198 28.2906 9.47198C28.1932 9.47198 28.079 9.50654 28.0368 9.54878C27.9327 9.65284 27.9402 10.1045 28.056 10.7096C28.1688 11.2989 28.1786 12.25 28.0843 13.4272C28.047 13.8919 28.0343 14.3009 28.056 14.336C28.123 14.4444 28.4273 14.405 28.696 14.2531V14.2531Z" fill="#090808"/>
</svg>
