<svg width="29" height="25" viewBox="0 0 29 25" fill="none" xmlns="http://www.w3.org/2000/svg">
<path d="M6.89581 13.7751L7.66173 8.49169L1.00781 4.26052L7.08729 6.1459L8.52339 4.12898L13.7652 1.14746L25.3257 6.97897L25.9241 15.8797L20.7781 22.4347L16.7091 23.0047L18.8154 19.4751V16.077L17.2836 13.4243L15.7278 12.4817L13.3343 14.7397V17.1294L11.4674 18.7297L9.09782 18.9928L8.04469 19.5409L6.32137 19.0366L5.60332 16.6689L6.89581 15.0028V13.7751Z" fill="white"/>
<path d="M17.5257 4.21677C16.2572 3.97565 14.869 4.04139 14.869 4.04139C14.869 4.04139 14.4142 5.97061 11.5898 6.47487C11.6138 6.47487 15.3237 7.63676 17.5257 4.21677Z" fill="#94A6C3"/>
<path d="M18.6787 21.7122C20.2106 20.6161 21.3594 19.1034 21.886 17.3934C21.9099 17.3276 22.1253 17.218 22.269 17.1303C22.5083 16.9987 22.7477 16.8892 22.7955 16.7138C22.8913 16.2095 22.9391 15.6834 22.9391 15.1572C22.9391 14.9599 22.7237 14.7626 22.5083 14.5653C22.3407 14.4338 22.1732 14.2803 22.1732 14.1707C21.9339 12.1757 20.9286 10.3123 19.3249 8.95303L19.1574 9.10646C20.7132 10.4438 21.7184 12.2634 21.9339 14.1926C21.9578 14.368 22.1493 14.5434 22.3407 14.7188C22.5083 14.8503 22.6998 15.0476 22.6998 15.1353C22.6998 15.6395 22.6519 16.1438 22.5562 16.648C22.5322 16.7357 22.3168 16.8234 22.1493 16.9111C21.9099 17.0207 21.6945 17.1303 21.6466 17.3057C21.0722 19.1691 19.7558 20.7914 18.0085 21.8438C18.3197 21.2299 19.301 19.2349 19.8276 18.2264L19.7319 14.9818L16.6921 12.2853L14.9688 12.5046L13.0779 15.3107C13.0779 15.3107 13.9635 16.3411 12.7189 17.5468C11.4982 18.7307 10.5408 18.9938 10.5408 18.9938L9.65521 18.5553C9.91852 18.2484 10.4451 17.788 10.852 17.4811C11.5461 16.9549 12.2402 16.9111 12.2402 16.3411C12.2641 15.1572 10.8759 15.4861 10.8759 15.4861L10.3733 15.9245L10.1579 17.5468L9.10474 18.7526L8.98503 18.7307L7.26172 18.3799C7.26172 18.3799 8.31486 17.8757 8.48243 17.3057C8.64995 16.7576 8.14734 14.938 8.12338 14.8284C8.14734 14.8503 8.62604 15.223 8.84143 15.8368C9.22438 14.8722 9.72705 13.9515 9.87066 13.8638C10.0143 13.7761 11.953 12.8334 11.953 12.8334L11.3068 14.3899L11.7855 14.1488L12.9343 11.5618C12.9343 11.5618 14.0592 11.0576 14.897 11.0576C16.4049 11.0357 18.6308 9.34764 17.6256 6.32227C17.9128 6.43186 22.8913 8.71185 23.7529 13.1841C24.3991 16.6261 22.269 19.8487 18.6787 21.7122Z" fill="#94A6C3"/>
<path d="M12.9802 4.69933C13.5307 4.10738 13.3153 3.23047 13.3153 3.23047L11.7116 5.40087C11.6877 5.40087 12.2861 5.42276 12.9802 4.69933Z" fill="#1B314F"/>
<path d="M7.59663 16.5595L7.78811 15.6826C7.78811 15.6826 6.99823 16.9542 6.92646 17.1295C6.85462 17.3269 6.97433 17.6776 7.28545 17.6557C7.59663 17.6338 7.97959 17.2172 7.97959 16.9103C7.97959 16.5157 7.59663 16.5595 7.59663 16.5595Z" fill="#1B314F"/>
<path d="M21.8124 2.61662C21.8124 2.61662 23.0091 2.66047 24.2538 2.792C21.4533 0.775088 18.7966 0.183167 16.6424 0.183167C13.6745 0.183167 11.664 1.30124 11.5443 1.36701L12.4778 0.0077833C12.4778 0.0077833 8.74392 -0.321062 7.42747 3.29623C7.09238 2.52893 6.78125 1.41086 6.78125 1.41086C6.78125 1.41086 4.8425 2.96739 5.75202 5.55432C3.5261 4.80894 0.342748 3.77853 0.223074 3.75664C0.0555291 3.73469 0.00765917 3.80048 0.00765917 3.80048C0.00765917 3.80048 -0.0402107 3.86623 0.103399 3.97587C0.366683 4.17315 5.39303 7.57124 6.49403 8.22893C6.25468 9.01816 6.25468 9.39082 6.49403 9.76354C6.82912 10.2677 6.85303 10.5308 6.80516 10.9035C6.75729 11.2762 6.32646 14.4989 6.23072 14.8935C6.13498 15.2881 5.12971 16.6912 5.17758 17.1077C5.22545 17.5243 5.84776 19.3 6.39829 19.4974C6.80516 19.6289 7.81043 19.9139 8.48061 19.9139C8.71996 19.9139 8.9354 19.87 9.03114 19.7823C9.438 19.4535 9.55771 19.3877 9.84492 19.3877C9.86883 19.3877 9.8928 19.3877 9.9167 19.3877C10.0364 19.3877 10.18 19.4097 10.3475 19.4097C10.7305 19.4097 11.2332 19.3439 11.5921 19.0369C12.1187 18.5546 13.0282 17.8969 13.3155 17.59C13.6745 17.1735 13.866 16.6035 13.7703 16.0335C13.6984 15.5074 14.0096 15.047 14.3686 14.5866C14.8234 14.0385 15.6611 13.052 15.6611 13.052C17.3126 14.192 18.3418 15.9239 18.3418 17.8531C18.3418 21.2731 15.0867 24.0354 11.0656 24.0354C10.4433 24.0354 9.84492 23.9696 9.24652 23.8381C11.0895 24.43 12.6453 24.6273 13.9139 24.6273C16.6185 24.6273 18.0546 23.7285 18.0546 23.7285C18.0546 23.7285 17.552 24.3204 16.7382 25C16.7621 25 16.7621 25 16.7621 25C21.238 24.43 23.416 21.0539 23.416 21.0539C23.416 21.0539 23.2485 22.15 23.0331 22.8954C28.9929 18.7958 27.9876 13.6658 27.9636 13.4904C28.0115 13.5562 28.6099 14.2139 28.921 14.5647C29.8784 5.53237 21.8124 2.61662 21.8124 2.61662ZM12.6453 17.042C12.5495 17.1516 12.1427 17.4804 11.8555 17.7216C11.5682 17.9627 11.2571 18.2039 11.0177 18.4231C10.922 18.5108 10.7305 18.5546 10.4433 18.5546C10.3475 18.5546 10.2518 18.5546 10.18 18.5546C10.1321 18.5546 10.0843 18.5546 10.0364 18.5546C9.98853 18.5546 9.96457 18.5546 9.94067 18.5546C9.86883 18.5546 9.79706 18.5546 9.72522 18.5546C10.0843 18.1162 11.1374 17.1077 11.4964 16.8885C11.9272 16.6254 12.1427 16.3623 11.8794 15.902C11.6161 15.4416 10.922 15.5512 10.922 15.5512C10.922 15.5512 11.3289 15.3977 11.6879 15.3977C11.2332 15.2881 10.6587 15.3977 10.3954 15.6389C10.1082 15.88 10.1561 16.7351 10.0364 17.2831C9.9167 17.8531 9.50984 18.1381 8.88753 18.6643C8.55244 18.9493 8.31309 19.0369 8.12161 19.0369C7.71469 18.9712 7.23599 18.8616 6.9009 18.752C6.66155 18.4669 6.30255 17.5243 6.20681 17.1297C6.27859 16.9104 6.56581 16.45 6.70942 16.187C6.99664 15.6827 7.16421 15.3977 7.21208 15.1347C7.30782 14.762 7.61895 12.46 7.73865 11.4954C8.04978 11.8681 8.48061 12.482 8.38487 12.8766C9.07901 11.9777 8.57635 11.1008 8.337 10.75C8.12161 10.3993 7.83439 9.69775 8.07374 8.95236C8.31309 8.20698 9.17475 6.14622 9.17475 6.14622C9.17475 6.14622 9.46197 6.60663 9.86883 6.51893C10.2758 6.43124 13.5548 1.91508 13.5548 1.91508C13.5548 1.91508 14.4404 3.69084 13.5069 4.98433C12.5495 6.27776 11.6161 6.51893 11.6161 6.51893C11.6161 6.51893 12.9325 6.73817 14.1532 5.92699C14.6558 7.00124 15.1345 8.11929 15.1585 8.27277C15.0867 8.42621 14.1293 10.5308 14.0335 10.6624C13.9856 10.7062 13.6506 10.7939 13.4112 10.8377C13.0043 10.9474 12.765 11.0131 12.6692 11.0789C12.5017 11.2105 11.7358 13.1397 11.3768 14.0823C10.9459 14.192 10.5151 14.4112 10.2039 14.8497C10.3715 14.74 10.8981 14.6743 11.281 14.6304C11.6161 14.6085 12.6453 15.1128 12.9086 16.0554C12.9086 16.0774 12.9086 16.0774 12.9086 16.0993C12.9565 16.45 12.8368 16.7789 12.6453 17.042ZM10.3954 17.3051C10.6108 17.02 10.5869 16.5377 10.6108 16.3843C10.6348 16.2308 10.6826 15.9458 10.8741 15.902C11.0656 15.8581 11.5204 15.9239 11.5204 16.2308C11.5204 16.5158 11.1853 16.5816 10.9459 16.7789C10.7784 16.9323 10.4433 17.2612 10.3954 17.3051ZM19.9455 13.1177C20.1848 11.9997 20.2087 11.0351 20.137 10.2458C21.0704 11.3858 21.6448 12.767 21.8124 14.192C21.8363 14.3674 22.0278 14.5428 22.2193 14.7181C22.3868 14.8497 22.5783 15.0251 22.5783 15.1347C22.5783 15.6389 22.5304 16.1431 22.4347 16.6474C22.4107 16.7131 22.1954 16.8227 22.0278 16.9104C21.7884 17.02 21.573 17.1297 21.5252 17.3051C20.9986 18.9931 19.8736 20.4839 18.3658 21.5362C20.5917 19.4097 21.6688 15.902 19.9455 13.1177ZM18.4375 21.7335C19.9933 20.6373 21.1901 19.1027 21.7167 17.3708C21.7406 17.3051 21.956 17.1954 22.0996 17.1077C22.339 16.9981 22.5783 16.8666 22.6262 16.6912C22.7219 16.187 22.7698 15.6608 22.7698 15.1347C22.7698 14.9374 22.5544 14.74 22.339 14.5428C22.2193 14.4112 22.0278 14.2577 22.0278 14.1481C21.8363 12.5477 21.1422 11.0351 20.0651 9.78544C19.5864 7.15468 17.6716 6.34355 17.6238 6.3216C17.6716 6.3874 18.9162 8.0316 18.0546 9.96082C17.169 11.912 14.8952 11.6051 14.7037 11.627C14.5122 11.627 13.7703 12.5039 12.8368 14.1262C12.7171 14.0823 12.2145 13.9728 11.64 14.0604C12.0708 12.9643 12.7171 11.4077 12.8368 11.2762C12.8846 11.2324 13.2437 11.1447 13.483 11.0789C13.9378 10.9693 14.1532 10.9035 14.225 10.8158C14.2729 10.75 14.5122 10.2458 14.7516 9.71969C14.967 9.71969 15.5175 9.67585 15.5653 9.6539C15.6132 9.61005 16.068 8.53585 16.068 8.40431C16.068 8.29467 15.1345 6.16817 14.7755 5.35699C14.943 5.18161 15.1106 4.96238 15.2781 4.72125C20.1848 5.20356 24.0144 9.01816 24.0144 13.6439C24.0144 17.1954 21.7406 20.2866 18.4375 21.7335Z" fill="#1B314F"/>
<path d="M12.0694 9.89425C12.5242 9.41194 12.2849 8.51313 11.4471 8.35964C11.6626 7.89928 11.9737 6.97852 11.9737 6.97852C11.9737 6.97852 9.53234 10.4862 9.31695 10.5519C9.10151 10.6177 8.88612 9.8504 8.88612 9.8504C8.43133 11.4508 9.65204 11.67 9.79565 11.1658C10.4658 11.0123 11.6147 10.3547 12.0694 9.89425Z" fill="#1B314F"/>
<path d="M9.98438 10.75L11.229 8.79883C11.229 8.79883 11.947 9.1277 11.588 9.65385C11.1333 10.2677 9.98438 10.75 9.98438 10.75Z" fill="#FFD923"/>
<path d="M25.3774 19.7822C25.0184 20.2207 24.6115 20.6811 24.1328 21.1195C27.2204 15.6826 24.2764 10.7061 24.1567 10.5088C24.3722 10.7061 24.5875 10.9254 24.779 11.1226C27.1486 13.5342 27.4358 17.1515 25.3774 19.7822Z" fill="#D82122"/>
<path d="M28.2462 12.7894C27.1691 10.1367 25.6372 7.87864 22.2624 5.83982C19.0073 3.86675 15.5128 4.02019 15.3213 4.04214C15.2973 4.04214 15.2734 4.04214 15.2734 4.04214C15.3931 3.99829 15.5128 3.97634 15.6324 3.95444C16.3744 3.73521 17.3318 3.55983 18.2892 3.4502C20.8263 3.12136 23.3874 3.9106 25.1346 5.59864C25.1585 5.62059 25.1585 5.62059 25.1825 5.64249C27.1691 7.57171 28.1983 9.98324 28.2462 12.7894Z" fill="#D82122"/>
<path d="M21.504 1.93741C17.9377 1.32357 15.6399 1.63049 13.9885 2.20048C13.9406 2.0251 13.773 1.67433 13.6294 1.38933C13.1268 1.93741 12.6002 2.5951 12.2651 3.01164C11.3556 3.58161 10.9727 4.12971 10.9727 4.12971C11.4992 2.48548 13.0311 1.2578 14.898 0.950874C15.4246 0.863182 15.999 0.819336 16.6213 0.819336C18.2728 0.841259 19.9243 1.21395 21.504 1.93741Z" fill="#D82122"/>
<path d="M8.31475 6.14598C5.51439 6.05828 6.44783 3.07675 6.4957 2.90137C6.4957 2.92329 6.68718 5.24711 8.31475 6.14598Z" fill="#D82122"/>
<path d="M11.0662 0.775391C8.9121 1.95923 9.34293 4.78728 9.34293 4.78728C7.28453 1.91538 10.8987 0.84116 11.0662 0.775391Z" fill="#D82122"/>
<path d="M7.52247 6.9354C7.66608 7.04504 7.80969 7.24232 7.64217 7.52734C7.54643 7.68078 7.40282 7.65888 7.18738 7.57119C6.90016 7.43965 5.17685 6.51889 3.62109 5.57617C5.39229 6.14617 7.18738 6.76001 7.4746 6.89155C7.4746 6.89155 7.49856 6.9135 7.52247 6.9354Z" fill="white"/>
</svg>
