<svg width="32" height="32" viewBox="0 0 32 32" fill="none" xmlns="http://www.w3.org/2000/svg">
<path d="M32 16C32 7.16344 24.8366 0 16 0C7.16344 0 0 7.16344 0 16C0 24.8366 7.16344 32 16 32C24.8366 32 32 24.8366 32 16Z" fill="#94A6C3"/>
<g clip-path="url(#clip0_843_7783)">
<path d="M9.18246 17.3261L9.86915 11.8314L3.90356 7.43094L9.35413 9.39174L10.6417 7.29414L15.3412 4.19336L25.7058 10.2581L26.2423 19.5149L21.6287 26.3321L17.9806 26.9249L19.869 23.2541V19.7201L18.4957 16.9613L17.1008 15.981L14.9549 18.3293V20.8146L13.2811 22.4789L11.1567 22.7525L10.2125 23.3225L8.66745 22.7981L8.02368 20.3357L9.18246 18.6029V17.3261Z" fill="white"/>
<path d="M18.7127 7.38549C17.5754 7.13472 16.3308 7.20309 16.3308 7.20309C16.3308 7.20309 15.9231 9.20948 13.3909 9.73391C13.4124 9.73391 16.7385 10.9423 18.7127 7.38549Z" fill="#94A6C3"/>
<path d="M19.7464 25.5807C21.1198 24.4408 22.1498 22.8676 22.6219 21.0892C22.6434 21.0207 22.8365 20.9068 22.9653 20.8155C23.1798 20.6787 23.3945 20.5648 23.4373 20.3824C23.5232 19.8579 23.5661 19.3108 23.5661 18.7635C23.5661 18.5583 23.373 18.3531 23.1798 18.1479C23.0296 18.0112 22.8794 17.8515 22.8794 17.7376C22.6649 15.6628 21.7636 13.7248 20.3258 12.3112L20.1756 12.4708C21.5704 13.8616 22.4717 15.754 22.6649 17.7603C22.6863 17.9428 22.858 18.1252 23.0296 18.3076C23.1798 18.4443 23.3515 18.6495 23.3515 18.7407C23.3515 19.2651 23.3086 19.7896 23.2228 20.314C23.2013 20.4052 23.0082 20.4964 22.858 20.5876C22.6434 20.7016 22.4502 20.8155 22.4073 20.998C21.8923 22.9359 20.7121 24.6231 19.1455 25.7176C19.4246 25.0791 20.3043 23.0043 20.7765 21.9555L20.6907 18.5811L17.9653 15.7767L16.4203 16.0048L14.725 18.9232C14.725 18.9232 15.519 19.9948 14.4031 21.2487C13.3087 22.48 12.4504 22.7536 12.4504 22.7536L11.6564 22.2975C11.8925 21.9784 12.3646 21.4996 12.7294 21.1804C13.3517 20.6331 13.974 20.5876 13.974 19.9948C13.9954 18.7635 12.7508 19.1056 12.7508 19.1056L12.3002 19.5615L12.1071 21.2487L11.1629 22.5027L11.0555 22.48L9.5105 22.1151C9.5105 22.1151 10.4547 21.5908 10.6049 20.998C10.7551 20.4279 10.3045 18.5356 10.283 18.4216C10.3045 18.4443 10.7337 18.832 10.9268 19.4703C11.2701 18.4671 11.7208 17.5096 11.8495 17.4184C11.9783 17.3272 13.7165 16.3468 13.7165 16.3468L13.1371 17.9655L13.5663 17.7148L14.5963 15.0243C14.5963 15.0243 15.6048 14.4999 16.3559 14.4999C17.7078 14.4772 19.7035 12.7216 18.8023 9.5752C19.0597 9.68917 23.5232 12.0604 24.2957 16.7115C24.875 20.2912 22.9653 23.6427 19.7464 25.5807Z" fill="#94A6C3"/>
<path d="M14.6374 7.88736C15.131 7.27173 14.9379 6.35974 14.9379 6.35974L13.5001 8.61696C13.4786 8.61696 14.0151 8.63972 14.6374 7.88736Z" fill="#1B314F"/>
<path d="M9.81079 20.2219L9.98247 19.3099C9.98247 19.3099 9.2743 20.6324 9.20995 20.8147C9.14554 21.02 9.25287 21.3847 9.53181 21.362C9.81079 21.3392 10.1541 20.9059 10.1541 20.5867C10.1541 20.1764 9.81079 20.2219 9.81079 20.2219Z" fill="#1B314F"/>
<path d="M22.5559 5.72128C22.5559 5.72128 23.6288 5.76689 24.7448 5.90368C22.234 3.80609 19.8521 3.19049 17.9208 3.19049C15.2599 3.19049 13.4574 4.35329 13.3501 4.42169L14.187 3.00809C14.187 3.00809 10.8394 2.6661 9.65911 6.42808C9.35869 5.63009 9.07974 4.46729 9.07974 4.46729C9.07974 4.46729 7.34155 6.08609 8.15698 8.77649C6.16133 8.0013 3.30729 6.92967 3.2 6.90691C3.04978 6.88408 3.00687 6.9525 3.00687 6.9525C3.00687 6.9525 2.96395 7.02088 3.0927 7.1349C3.32875 7.34008 7.83513 10.8741 8.82223 11.5581C8.60764 12.3789 8.60764 12.7665 8.82223 13.1541C9.12266 13.6784 9.1441 13.952 9.10118 14.3396C9.05826 14.7272 8.672 18.0789 8.58616 18.4892C8.50033 18.8996 7.59905 20.3588 7.64197 20.792C7.68489 21.2253 8.24282 23.072 8.7364 23.2773C9.10118 23.4141 10.0025 23.7105 10.6033 23.7105C10.8179 23.7105 11.011 23.6648 11.0969 23.5736C11.4617 23.2316 11.569 23.1632 11.8265 23.1632C11.8479 23.1632 11.8694 23.1632 11.8908 23.1632C11.9982 23.1632 12.1269 23.1861 12.2771 23.1861C12.6204 23.1861 13.0711 23.1177 13.3929 22.7984C13.865 22.2968 14.6805 21.6128 14.938 21.2936C15.2599 20.8604 15.4316 20.2676 15.3458 19.6748C15.2813 19.1277 15.5603 18.6489 15.8822 18.1701C16.2899 17.6 17.041 16.5741 17.041 16.5741C18.5216 17.7597 19.4444 19.5609 19.4444 21.5672C19.4444 25.124 16.526 27.9968 12.9209 27.9968C12.363 27.9968 11.8265 27.9284 11.29 27.7916C12.9423 28.4072 14.3372 28.6124 15.4745 28.6124C17.8993 28.6124 19.1869 27.6776 19.1869 27.6776C19.1869 27.6776 18.7363 28.2932 18.0067 29C18.0281 29 18.0281 29 18.0281 29C22.041 28.4072 23.9937 24.8961 23.9937 24.8961C23.9937 24.8961 23.8435 26.036 23.6504 26.8112C28.9936 22.5476 28.0923 17.2124 28.0708 17.03C28.1138 17.0984 28.6503 17.7825 28.9292 18.1473C29.7875 8.75366 22.5559 5.72128 22.5559 5.72128ZM14.3372 20.7237C14.2513 20.8377 13.8866 21.1796 13.6291 21.4305C13.3715 21.6812 13.0926 21.9321 12.8779 22.16C12.7921 22.2512 12.6204 22.2968 12.363 22.2968C12.2771 22.2968 12.1913 22.2968 12.1269 22.2968C12.084 22.2968 12.0411 22.2968 11.9982 22.2968C11.9552 22.2968 11.9338 22.2968 11.9123 22.2968C11.8479 22.2968 11.7836 22.2968 11.7192 22.2968C12.0411 21.8408 12.9853 20.792 13.3071 20.564C13.6934 20.2904 13.8866 20.0168 13.6505 19.5381C13.4144 19.0593 12.7921 19.1732 12.7921 19.1732C12.7921 19.1732 13.1569 19.0136 13.4788 19.0136C13.0711 18.8996 12.5561 19.0136 12.32 19.2645C12.0625 19.5152 12.1055 20.4045 11.9982 20.9744C11.8908 21.5672 11.5261 21.8636 10.9681 22.4109C10.6677 22.7073 10.4531 22.7984 10.2814 22.7984C9.91662 22.73 9.48744 22.6161 9.18701 22.5021C8.97242 22.2056 8.65056 21.2253 8.56473 20.8149C8.62908 20.5868 8.88659 20.108 9.01534 19.8345C9.27285 19.31 9.42308 19.0136 9.466 18.7401C9.55184 18.3525 9.83078 15.9584 9.9381 14.9552C10.217 15.3428 10.6033 15.9813 10.5175 16.3917C11.1398 15.4568 10.6891 14.5448 10.4746 14.18C10.2814 13.8153 10.0239 13.0857 10.2385 12.3105C10.4531 11.5353 11.2256 9.39207 11.2256 9.39207C11.2256 9.39207 11.4831 9.87089 11.8479 9.77969C12.2128 9.68849 15.1526 4.99168 15.1526 4.99168C15.1526 4.99168 15.9466 6.83847 15.1096 8.1837C14.2513 9.52887 13.4144 9.77969 13.4144 9.77969C13.4144 9.77969 14.5947 10.0077 15.6891 9.16407C16.1397 10.2813 16.5689 11.4441 16.5904 11.6037C16.526 11.7633 15.6676 13.952 15.5818 14.0889C15.5388 14.1344 15.2385 14.2257 15.0238 14.2712C14.659 14.3853 14.4445 14.4536 14.3586 14.5221C14.2084 14.6589 13.5218 16.6653 13.1999 17.6456C12.8136 17.7597 12.4273 17.9876 12.1483 18.4437C12.2986 18.3296 12.7707 18.2613 13.114 18.2156C13.4144 18.1928 14.3372 18.7173 14.5732 19.6976C14.5732 19.7205 14.5732 19.7205 14.5732 19.7433C14.6162 20.108 14.5089 20.4501 14.3372 20.7237ZM12.32 20.9973C12.5131 20.7008 12.4917 20.1992 12.5131 20.0397C12.5346 19.88 12.5775 19.5836 12.7492 19.5381C12.9209 19.4924 13.3286 19.5609 13.3286 19.88C13.3286 20.1764 13.0282 20.2449 12.8136 20.4501C12.6634 20.6096 12.363 20.9516 12.32 20.9973ZM20.8822 16.6424C21.0967 15.4797 21.1181 14.4765 21.0539 13.6556C21.8907 14.8412 22.4057 16.2777 22.5559 17.7597C22.5774 17.9421 22.7491 18.1245 22.9207 18.3068C23.0709 18.4437 23.2426 18.6261 23.2426 18.7401C23.2426 19.2645 23.1997 19.7888 23.1139 20.3133C23.0924 20.3816 22.8993 20.4956 22.7491 20.5868C22.5344 20.7008 22.3413 20.8149 22.2985 20.9973C21.8263 22.7528 20.8177 24.3033 19.4659 25.3976C21.4615 23.1861 22.4272 19.5381 20.8822 16.6424ZM19.5302 25.6028C20.925 24.4628 21.998 22.8668 22.4701 21.0656C22.4916 20.9973 22.6847 20.8832 22.8134 20.792C23.0281 20.678 23.2426 20.5413 23.2856 20.3588C23.3714 19.8345 23.4143 19.2872 23.4143 18.7401C23.4143 18.5349 23.2212 18.3296 23.0281 18.1245C22.9208 17.9876 22.7491 17.828 22.7491 17.714C22.5774 16.0496 21.9551 14.4765 20.9894 13.1769C20.5602 10.4409 18.8435 9.59729 18.8006 9.57446C18.8435 9.6429 19.9594 11.3529 19.1869 13.3593C18.3929 15.3885 16.3543 15.0693 16.1826 15.0921C16.0109 15.0921 15.3458 16.0041 14.5089 17.6912C14.4015 17.6456 13.9509 17.5317 13.4359 17.6228C13.8221 16.4829 14.4015 14.864 14.5089 14.7272C14.5517 14.6817 14.8737 14.5905 15.0882 14.5221C15.496 14.4081 15.6891 14.3396 15.7534 14.2484C15.7964 14.18 16.0109 13.6556 16.2256 13.1085C16.4187 13.1085 16.9122 13.0629 16.9551 13.0401C16.998 12.9945 17.4058 11.8773 17.4058 11.7405C17.4058 11.6265 16.5689 9.4149 16.247 8.57127C16.3972 8.38887 16.5474 8.16087 16.6976 7.9101C21.0967 8.4117 24.5302 12.3789 24.5302 17.1897C24.5302 20.8832 22.4916 24.0981 19.5302 25.6028Z" fill="#1B314F"/>
<path d="M13.8208 13.29C14.2286 12.7884 14.014 11.8537 13.2629 11.6941C13.4561 11.2153 13.735 10.2577 13.735 10.2577C13.735 10.2577 11.5462 13.9057 11.3531 13.974C11.16 14.0424 10.9669 13.2444 10.9669 13.2444C10.5591 14.9089 11.6536 15.1368 11.7823 14.6125C12.3831 14.4528 13.4132 13.7689 13.8208 13.29Z" fill="#1B314F"/>
<path d="M11.9515 14.18L13.0674 12.1508C13.0674 12.1508 13.7111 12.4928 13.3893 13.04C12.9816 13.6784 11.9515 14.18 11.9515 14.18Z" fill="#FFD923"/>
<path d="M25.7521 23.5735C25.4303 24.0296 25.0655 24.5084 24.6363 24.9643C27.4045 19.31 24.765 14.1344 24.6577 13.9292C24.8509 14.1344 25.044 14.3625 25.2156 14.5676C27.3401 17.0756 27.5976 20.8376 25.7521 23.5735Z" fill="#D82122"/>
<path d="M28.3242 16.301C27.3585 13.5422 25.9851 11.1938 22.9594 9.07347C20.0411 7.02148 16.9081 7.18105 16.7364 7.20388C16.7148 7.20388 16.6934 7.20388 16.6934 7.20388C16.8007 7.15828 16.9081 7.13545 17.0153 7.11267C17.6805 6.88467 18.5389 6.70228 19.3972 6.58826C21.6719 6.24627 23.968 7.06708 25.5345 8.82264C25.5559 8.84547 25.5559 8.84547 25.5774 8.86825C27.3585 10.8746 28.2813 13.3826 28.3242 16.301Z" fill="#D82122"/>
<path d="M22.2794 5.01485C19.0821 4.37645 17.022 4.69565 15.5414 5.28844C15.4985 5.10605 15.3482 4.74124 15.2195 4.44484C14.7688 5.01485 14.2967 5.69885 13.9963 6.13205C13.1809 6.72482 12.8376 7.29484 12.8376 7.29484C13.3096 5.58484 14.683 4.30805 16.3568 3.98885C16.8289 3.89765 17.3439 3.85205 17.9018 3.85205C19.3825 3.87485 20.8632 4.26245 22.2794 5.01485Z" fill="#D82122"/>
<path d="M10.4546 9.39185C7.94396 9.30064 8.78084 6.19985 8.82376 6.01746C8.82376 6.04025 8.99543 8.45703 10.4546 9.39185Z" fill="#D82122"/>
<path d="M12.9214 3.8064C10.9902 5.03759 11.3764 7.97876 11.3764 7.97876C9.53096 4.99199 12.7713 3.8748 12.9214 3.8064Z" fill="#D82122"/>
<path d="M9.74431 10.2128C9.87306 10.3268 10.0018 10.532 9.85163 10.8284C9.76579 10.988 9.63704 10.9652 9.44388 10.874C9.18638 10.7372 7.64134 9.77962 6.24652 8.79919C7.83449 9.39199 9.44388 10.0304 9.70139 10.1672C9.70139 10.1672 9.72287 10.19 9.74431 10.2128Z" fill="white"/>
</g>
<defs>
<clipPath id="clip0_843_7783">
<rect width="26" height="26" fill="white" transform="translate(3 3)"/>
</clipPath>
</defs>
</svg>
