<svg width="20" height="20" viewBox="0 0 20 20" fill="none" xmlns="http://www.w3.org/2000/svg">
<path fill-rule="evenodd" clip-rule="evenodd" d="M3.55024 3.12613C3.24679 1.50121 4.49361 0 6.14662 0C7.60536 0 8.78789 1.18254 8.78789 2.64127V5.89755C9.15278 5.87181 9.52349 5.8586 9.89898 5.8586C10.2597 5.8586 10.6161 5.87079 10.9671 5.89458V2.64127C10.9671 1.18254 12.1496 0 13.6084 0C15.2614 0 16.5082 1.50121 16.2048 3.12613L15.49 6.95372C17.9431 8.02473 19.798 9.88485 19.798 12.2223V13.6364C19.798 15.5585 18.5264 17.1679 16.7486 18.2543C14.957 19.3491 12.5333 20 9.89898 20C7.26471 20 4.84099 19.3491 3.04938 18.2543C1.27164 17.1679 0 15.5585 0 13.6364V12.2223C0 9.89723 1.83586 8.04422 4.26827 6.97111L3.55024 3.12613ZM14.574 7.45659L15.4104 2.97779C15.621 1.85001 14.7557 0.808086 13.6084 0.808086C12.596 0.808086 11.7752 1.62883 11.7752 2.64127V6.78513C11.5099 6.75111 11.2404 6.72416 10.9671 6.70462C10.6168 6.67956 10.2604 6.66668 9.89898 6.66668C9.52285 6.66668 9.15205 6.68064 8.78789 6.70776C8.51462 6.72811 8.24508 6.75588 7.97981 6.79071V2.64127C7.97981 1.62883 7.15906 0.808086 6.14662 0.808086C4.99934 0.808086 4.13397 1.85 4.34459 2.97779L5.18376 7.47145C2.56038 8.44591 0.808082 10.2091 0.808082 12.2223V13.6364C0.808082 16.7047 4.87823 19.1919 9.89898 19.1919C14.9198 19.1919 18.99 16.7047 18.99 13.6364V12.2223C18.99 10.1987 17.2197 8.42795 14.574 7.45659Z" fill="#633001"/>
<path d="M18.9905 13.6359C18.9905 16.7041 14.9203 19.1914 9.89949 19.1914C4.87874 19.1914 0.808594 16.7041 0.808594 13.6359V12.2217H18.9905V13.6359Z" fill="#FEDC90"/>
<path fill-rule="evenodd" clip-rule="evenodd" d="M4.3451 2.97733C4.13449 1.84954 4.99985 0.807617 6.14714 0.807617C7.15958 0.807617 7.98033 1.62836 7.98033 2.64081V6.79025C8.59899 6.70899 9.24111 6.66621 9.89949 6.66621C10.5427 6.66621 11.1703 6.70703 11.7757 6.78466V2.64081C11.7757 1.62836 12.5965 0.807617 13.6089 0.807617C14.7562 0.807617 15.6215 1.84954 15.411 2.97733L14.5745 7.45612C17.2202 8.42749 18.9905 10.1983 18.9905 12.2218C18.9905 15.2901 14.9203 17.7773 9.89949 17.7773C4.87874 17.7773 0.808594 15.2901 0.808594 12.2218C0.808594 10.2086 2.56089 8.44544 5.18427 7.47099L4.3451 2.97733Z" fill="#D1884F"/>
<path d="M7.37568 11.8188C7.37568 12.6557 6.92343 13.334 6.36557 13.334C5.8077 13.334 5.35547 12.6557 5.35547 11.8188C5.35547 10.9821 5.8077 10.3037 6.36557 10.3037C6.92343 10.3037 7.37568 10.9821 7.37568 11.8188Z" fill="#633001"/>
<path d="M14.3444 11.8188C14.3444 12.6557 13.8922 13.334 13.3343 13.334C12.7765 13.334 12.3242 12.6557 12.3242 11.8188C12.3242 10.9821 12.7765 10.3037 13.3343 10.3037C13.8922 10.3037 14.3444 10.9821 14.3444 11.8188Z" fill="#633001"/>
</svg>
