<svg xmlns="http://www.w3.org/2000/svg" x="0px" y="0px" viewBox="0 0 60 60.402" xml:space="preserve"
     class="sc-bdnxRM ijGfLZ desktop-icon" color="text" width="20px">
  <path fill="#FFF" stroke="#0C2866" stroke-width="0.8504" stroke-miterlimit="10"
        d="M44.025 10.844L20.529 9.357a6.63 6.63 0 00-5.777 2.729L2.597 28.776a6.813 6.813 0 00-.451 7.297l10.008 18.093a6.654 6.654 0 005.396 3.436l23.496 1.487a6.63 6.63 0 005.777-2.729l12.156-16.69a6.813 6.813 0 00.451-7.297L49.421 14.279a6.656 6.656 0 00-5.396-3.435z"></path>
  <ellipse transform="rotate(-86.572 39.425 37.2)" fill="#0C2866" cx="39.426" cy="37.199" rx="4.923"
           ry="3.614"></ellipse>
  <ellipse fill="#FFF" stroke="#0C2866" stroke-width="0.9217" stroke-miterlimit="10" cx="36.24" cy="3.5" rx="2.173"
           ry="2.2"></ellipse>
  <path fill="#FFF" stroke="#0C2866" stroke-width="0.9217" stroke-miterlimit="10"
        d="M4.375 26.335l-1.01-.845a1.908 1.908 0 01-.161-2.768l7.749-8.21a1.86 1.86 0 011.469-.582l.944.06-8.991 12.345zM58.065 29.733l1.106-.711a1.907 1.907 0 00.5-2.726l-6.679-9.123a1.865 1.865 0 00-1.386-.762l-.944-.06 7.403 13.382z"></path>
  <path fill="none" stroke="#0C2866" stroke-width="0.9217" stroke-miterlimit="10"
        d="M41.244 15.755l-18.56-1.175a5.236 5.236 0 00-4.563 2.155L8.518 29.92a5.38 5.38 0 00-.356 5.764l7.906 14.293a5.256 5.256 0 004.263 2.714l18.56 1.175a5.236 5.236 0 004.563-2.155l9.602-13.185a5.38 5.38 0 00.356-5.764l-7.906-14.293a5.253 5.253 0 00-4.262-2.714z"></path>
  <path fill="none" stroke="#0C2866" stroke-width="0.9217" stroke-linecap="round" stroke-linejoin="round"
        stroke-miterlimit="10" d="M18.165 35.855s4.393-2.377 7.583 1.345c0 0 .122-1.799-.347-2.489"></path>
</svg>
