<svg width="35" height="35" viewBox="0 0 35 35" fill="none" xmlns="http://www.w3.org/2000/svg"><path d="M21 33H33L21 21V33Z" fill="white"></path><path d="M33 9.53674e-07L26 3.41715e-07L33 7L33 9.53674e-07Z" fill="#00C6A2"></path><path fill-rule="evenodd" clip-rule="evenodd" d="M21.5 21C21.3323 21 21.1656 20.9957 21 20.9871V13.4755L29.1681 5.89086C30.3199 7.46277 31 9.40196 31 11.5C31 16.7467 26.7467 21 21.5 21ZM27.0347 3.77793L21 9.38161V2.01293C21.1656 2.00435 21.3323 2 21.5 2C23.5651 2 25.4762 2.6589 27.0347 3.77793Z" fill="white"></path><path fill-rule="evenodd" clip-rule="evenodd" d="M20 2H11V10.8787L15.0385 14.9172L20 10.3102V2ZM20 14.4041L14.9614 19.0828L11 15.1213V33H20V14.4041Z" fill="white"></path><path fill-rule="evenodd" clip-rule="evenodd" d="M10 2H0V14.8787L7.49999 7.37869L10 9.8787V2ZM10 14.1213L7.49999 11.6213L0 19.1213V33H10V14.1213Z" fill="white"></path></svg>
