<svg width="32" height="32" viewBox="0 0 32 32" fill="none" xmlns="http://www.w3.org/2000/svg">
<path d="M32 16C32 7.16344 24.8366 0 16 0C7.16344 0 0 7.16344 0 16C0 24.8366 7.16344 32 16 32C24.8366 32 32 24.8366 32 16Z" fill="#4AA956"/>
<path d="M25.9048 10.5549L15.8375 5L6.02089 10.455L6 21.445L15.9001 27L25.9048 21.5649V10.5549ZM15.8584 6.67847L23.294 10.7947L15.9001 14.911L8.4646 10.7947L15.8584 6.67847ZM15.002 24.7221L7.52471 20.6258V12.4333L14.9811 16.5495V24.7221H15.002ZM16.9236 16.6694L24.3801 12.5531V20.7257L16.9236 24.8619V16.6694Z" fill="white"/>
</svg>
