<svg width="32" height="32" viewBox="0 0 32 32" fill="none" xmlns="http://www.w3.org/2000/svg">
<path d="M16 32C24.8366 32 32 24.8366 32 16C32 7.16344 24.8366 0 16 0C7.16344 0 0 7.16344 0 16C0 24.8366 7.16344 32 16 32Z" fill="#3C82F9"/>
<path d="M14.7394 26.3006C15.191 25.3903 14.9956 24.3738 14.303 24.0302C13.6103 23.6866 12.6827 24.146 12.2311 25.0563C11.7795 25.9666 11.9749 26.9831 12.6676 27.3267C13.3602 27.6704 14.2878 27.211 14.7394 26.3006Z" fill="white"/>
<path d="M20.5062 24.2588C20.946 23.3722 20.7026 22.3559 19.9624 21.9887C19.2223 21.6215 18.2658 22.0426 17.826 22.9291C17.3861 23.8157 17.6296 24.8321 18.3697 25.1992C19.1098 25.5664 20.0664 25.1454 20.5062 24.2588Z" fill="white"/>
<path d="M25.0403 19.7096C25.4801 18.823 25.211 17.7939 24.4392 17.4111C23.6674 17.0282 22.6852 17.4365 22.2454 18.3231C21.8056 19.2096 22.0747 20.2387 22.8465 20.6216C23.6183 21.0045 24.6005 20.5962 25.0403 19.7096Z" fill="white"/>
<path d="M26.6034 14.0836C27.1651 13.4013 27.1613 12.4703 26.595 12.0042C26.0288 11.538 25.1144 11.7132 24.5527 12.3954C23.9911 13.0777 23.9948 14.0087 24.5611 14.4749C25.1274 14.941 26.0418 14.7659 26.6034 14.0836Z" fill="white"/>
<path d="M9.77878 24.7913C10.1754 23.9918 9.99962 23.0969 9.38614 22.7926C8.77267 22.4883 7.95382 22.8897 7.5572 23.6892C7.16058 24.4887 7.33637 25.3835 7.94984 25.6878C8.56332 25.9922 9.38216 25.5908 9.77878 24.7913Z" fill="white"/>
<path d="M25.0675 9.01119C25.7126 8.49497 25.9156 7.67658 25.5208 7.18326C25.1261 6.68994 24.2831 6.7085 23.638 7.22472C22.9929 7.74094 22.7899 8.55934 23.1847 9.05266C23.5794 9.54598 24.4224 9.52742 25.0675 9.01119Z" fill="white"/>
<path d="M7.14347 20.8519C7.561 20.1288 7.47453 19.2972 6.95033 18.9945C6.42614 18.6919 5.66272 19.0328 5.2452 19.7559C4.82767 20.4791 4.91414 21.3107 5.43833 21.6133C5.96253 21.916 6.72594 21.5751 7.14347 20.8519Z" fill="white"/>
<path d="M7.47639 15.707C7.89822 15.1016 7.90226 14.3754 7.48541 14.085C7.06857 13.7945 6.38869 14.0497 5.96685 14.655C5.54502 15.2604 5.54099 15.9866 5.95783 16.2771C6.37468 16.5675 7.05456 16.3123 7.47639 15.707Z" fill="white"/>
<path d="M9.57557 11.5027C9.94183 10.9771 9.92139 10.3299 9.52992 10.0571C9.13845 9.78425 8.52418 9.98918 8.15792 10.5148C7.79166 11.0404 7.8121 11.6876 8.20358 11.9604C8.59505 12.2332 9.20931 12.0283 9.57557 11.5027Z" fill="white"/>
<path d="M12.9748 8.26424C13.444 7.88881 13.5916 7.29361 13.3045 6.93484C13.0174 6.57606 12.4043 6.58956 11.9351 6.96499C11.466 7.34043 11.3184 7.93562 11.6055 8.2944C11.8926 8.65318 12.5056 8.63968 12.9748 8.26424Z" fill="white"/>
<path d="M17.0916 6.31853C17.585 5.92377 17.7499 5.31012 17.46 4.94789C17.1702 4.58566 16.5353 4.61203 16.042 5.00679C15.5487 5.40154 15.3837 6.0152 15.6736 6.37743C15.9634 6.73966 16.5983 6.71329 17.0916 6.31853Z" fill="white"/>
<path d="M21.5443 6.50439C22.1865 6.09805 22.4695 5.39335 22.1766 4.93041C21.8837 4.46746 21.1256 4.42157 20.4835 4.82791C19.8413 5.23425 19.5582 5.93895 19.8512 6.4019C20.1441 6.86485 20.9022 6.91073 21.5443 6.50439Z" fill="white"/>
</svg>
