<svg width="32" height="32" viewBox="0 0 32 32" fill="none" xmlns="http://www.w3.org/2000/svg">
<circle cx="16" cy="16" r="16" fill="white"/>
<path d="M27.1875 18.6865C26.9672 17.1533 26.5186 15.6618 25.8566 14.2615C26.3735 12.9038 26.7052 11.4826 26.8428 10.0363L26.8496 9.96105C27.0753 7.24863 27.2394 5.28988 26.0918 4.35291C25.4599 3.83724 24.564 3.88648 23.4286 4.50201C22.996 4.7406 22.5842 5.01513 22.1976 5.32271C21.2395 6.11606 20.3433 6.9812 19.5166 7.91066C17.1062 7.25042 14.5626 7.25042 12.1522 7.91066C11.3286 6.98051 10.4336 6.11614 9.47533 5.32545C9.0891 5.01731 8.67725 4.74274 8.24427 4.50474C7.11033 3.88921 6.2144 3.83997 5.58246 4.35565C4.43484 5.29399 4.59761 7.25273 4.82467 9.96379V10.0377C4.96223 11.484 5.29394 12.9051 5.81089 14.2629C5.15009 15.6637 4.70154 17.155 4.47998 18.6879C4.37728 19.3717 4.35022 20.0649 4.39928 20.7547C4.50186 21.7792 5.10918 23.8118 8.03499 25.9183C10.7543 27.877 13.5816 29 15.7906 29H15.8891C18.0995 29 20.9255 27.877 23.6448 25.9183C26.5706 23.8118 27.1793 21.7792 27.2819 20.7547C27.326 20.0639 27.2944 19.3704 27.1875 18.6865V18.6865Z" fill="white"/>
<path d="M25.0455 14.2875C25.6055 12.9089 25.9617 11.456 26.1028 9.97472V9.89949C26.3025 7.50714 26.4612 5.61816 25.6158 4.9274C25.2397 4.61964 24.6214 4.69624 23.7775 5.15446C23.385 5.37091 23.0116 5.6203 22.6613 5.89993C22.6435 5.91361 20.905 7.33069 19.7629 8.7724C18.4944 8.35217 17.1651 8.1451 15.829 8.1596C14.4928 8.1451 13.1635 8.35217 11.8951 8.7724C10.7543 7.33069 9.02259 5.91361 8.99797 5.89993C8.64736 5.6201 8.27349 5.3707 7.88045 5.15446C7.03649 4.69624 6.41823 4.61964 6.04207 4.9274C5.19812 5.61816 5.35815 7.50714 5.55512 9.89949L5.56196 9.97472C5.7037 11.4558 6.05939 12.9085 6.61793 14.2875C4.86984 17.8767 5.11331 20.5673 5.12562 20.6808C5.2159 21.5808 5.76851 23.3782 8.45768 25.315C11.0566 27.1849 13.7211 28.2573 15.7784 28.2573H15.829H15.8796C17.9313 28.2573 20.6055 27.1849 23.2016 25.315C25.8894 23.3782 26.442 21.5808 26.5323 20.6808C26.5487 20.5686 26.7936 17.8767 25.0455 14.2875Z" fill="black"/>
<path d="M26.1096 20.1733C26.1019 19.5855 26.0448 18.9994 25.9386 18.4211C25.8287 17.8008 25.6774 17.1884 25.4859 16.5882C25.25 15.8501 24.9597 15.1305 24.6173 14.4352L24.5517 14.2985L24.6132 14.1617C24.7845 13.7524 24.9347 13.3347 25.0632 12.9101C25.2 12.4642 25.3176 12.0114 25.412 11.5655C25.5271 11.0295 25.6079 10.4868 25.6541 9.94053L25.661 9.8653C25.7554 8.7341 25.8443 7.66718 25.8101 6.84238C25.7759 6.01757 25.6213 5.50873 25.3368 5.27757C25.2552 5.21745 25.1548 5.18835 25.0537 5.1955C24.8378 5.20638 24.6258 5.25741 24.4286 5.34596C24.1858 5.44739 23.9516 5.56815 23.7282 5.70707C23.458 5.87356 23.1981 6.05627 22.9499 6.25421C22.9499 6.25421 22.5013 6.61942 21.9254 7.15288C21.2551 7.75971 20.6339 8.4188 20.0679 9.12393L19.9229 9.31269L19.6999 9.22926C19.1269 9.02338 18.5356 8.87224 17.9341 8.77787C16.5438 8.55902 15.1278 8.55902 13.7375 8.77787C13.1364 8.87223 12.5456 9.02338 11.973 9.22926L11.7501 9.31269L11.6037 9.12393C11.0358 8.42083 10.4153 7.76192 9.74754 7.15288C9.17031 6.61942 8.72577 6.25694 8.72166 6.25421C8.47323 6.05666 8.21334 5.87396 7.94336 5.70707C7.7198 5.56842 7.48563 5.44768 7.24303 5.34596C7.04577 5.25756 6.83381 5.20654 6.61793 5.1955C6.51638 5.1885 6.41563 5.21757 6.33342 5.27757C6.05027 5.50873 5.89571 6.02167 5.86151 6.84238C5.82732 7.66308 5.91486 8.7341 6.00924 9.8653V9.94053C6.05659 10.4867 6.1379 11.0294 6.25271 11.5655C6.34573 12.0114 6.46336 12.4642 6.60151 12.9101C6.72857 13.3352 6.8788 13.753 7.05153 14.1617L7.11308 14.2985L7.04606 14.4352C6.70437 15.1303 6.41406 15.8494 6.17748 16.5869C5.98658 17.1873 5.83534 17.7995 5.72473 18.4198C5.61949 18.9962 5.56276 19.5805 5.55511 20.1665V20.1665C5.55511 20.3033 5.55512 20.41 5.56195 20.4893C5.5626 20.4984 5.5626 20.5076 5.56195 20.5167C5.56195 20.5385 5.56195 20.5577 5.56195 20.5741V20.5919C5.56195 20.6097 5.56195 20.6247 5.56195 20.6357C5.58906 20.8903 5.6441 21.1412 5.72609 21.3839L5.7343 21.4058L5.75072 21.4564C5.75444 21.4685 5.75901 21.4804 5.76439 21.4919C5.77534 21.5234 5.78628 21.5549 5.79996 21.5877C5.81364 21.6205 5.8109 21.6178 5.81774 21.6328L5.83415 21.6739C5.92411 21.8909 6.02877 22.1016 6.14739 22.3044C6.68358 23.2236 7.54532 24.1141 8.70935 24.9512C8.86802 25.0661 9.02942 25.1783 9.18946 25.2877C9.69693 25.6337 10.2071 25.9483 10.7119 26.2288C11.2002 26.5007 11.7024 26.7468 12.2165 26.966V26.966C12.3423 27.0194 12.4682 27.0713 12.5926 27.1192C13.1453 27.3383 13.7148 27.5121 14.2956 27.639C14.7799 27.7464 15.2741 27.8028 15.7701 27.8072H15.7838H15.8207H15.8577H15.8714C16.3674 27.8029 16.8616 27.7465 17.3459 27.639C17.9268 27.5125 18.4963 27.3387 19.0488 27.1192C19.1678 27.0727 19.2868 27.0248 19.4059 26.9742C19.9256 26.7527 20.4334 26.5039 20.9269 26.2288C21.2948 26.0249 21.6655 25.802 22.0348 25.5626L22.1073 25.5161L22.2222 25.4409C22.4584 25.2831 22.6946 25.1199 22.9308 24.9512C23.425 24.5986 23.8906 24.2076 24.3232 23.7817L24.3656 23.7393L24.4436 23.66L24.5065 23.5943L24.5435 23.556L24.6064 23.4876C24.6406 23.4507 24.6748 23.4137 24.7076 23.3754C24.8252 23.2387 24.9347 23.1087 25.0386 22.9747L25.1166 22.8721L25.133 22.8488C25.2621 22.673 25.3818 22.4903 25.4914 22.3017C25.5857 22.1403 25.6651 21.9857 25.7335 21.838C25.9131 21.4578 26.0291 21.0507 26.0768 20.6329C26.0958 20.4804 26.1068 20.327 26.1096 20.1733V20.1733Z" fill="#FEA31C"/>
<path d="M26.0905 20.6357C26.0181 21.2277 25.8184 21.797 25.5051 22.3044C24.9689 23.2236 24.1071 24.1141 22.9445 24.9512C22.3018 25.4155 21.6327 25.8421 20.9406 26.2288C20.4471 26.5039 19.9393 26.7527 19.4195 26.9742C19.3005 27.0248 19.1815 27.0727 19.0625 27.1192C18.51 27.3387 17.9405 27.5125 17.3596 27.639C16.8767 27.7462 16.3838 27.8026 15.8892 27.8072H15.8755H15.8385H15.8016H15.7879C15.2919 27.8028 14.7977 27.7464 14.3134 27.639C13.7326 27.5121 13.1631 27.3383 12.6104 27.1192C12.486 27.0714 12.3601 27.0194 12.2343 26.966C11.7202 26.7468 11.218 26.5007 10.7297 26.2288C10.0372 25.8406 9.36809 25.4122 8.72579 24.9457C7.56175 24.1086 6.70002 23.2182 6.16382 22.299C5.85171 21.7909 5.65208 21.2219 5.57839 20.6302C5.56458 20.4742 5.55865 20.3176 5.56061 20.161C6.02208 20.0506 6.49498 19.9951 6.96948 19.9955C7.8239 19.9868 8.66951 20.1688 9.44469 20.5282C10.2199 20.8877 10.9051 21.4155 11.4505 22.0733C11.8773 19.9613 13.6733 18.3801 15.8276 18.3801C17.982 18.3801 19.7738 19.9654 20.2047 22.0733C20.7501 21.4159 21.4352 20.8885 22.2101 20.5293C22.985 20.1701 23.8303 19.9882 24.6844 19.9969C25.1673 19.9969 25.6485 20.0543 26.1179 20.1679C26.1171 20.3242 26.108 20.4803 26.0905 20.6357V20.6357Z" fill="white"/>
<path d="M5.56061 20.1665C5.55865 20.3231 5.56458 20.4797 5.57839 20.6357C5.65208 21.2274 5.85171 21.7964 6.16382 22.3044C6.70002 23.2236 7.56175 24.1141 8.72578 24.9512C9.36779 25.4158 10.0364 25.8423 10.7283 26.2288C11.2166 26.5007 11.7188 26.7468 12.2329 26.966" fill="white"/>
<path d="M26.1096 20.172C26.1114 20.3268 26.105 20.4815 26.0904 20.6357C26.0181 21.2277 25.8184 21.797 25.505 22.3044C24.9688 23.2236 24.1071 24.1141 22.9444 24.9512C22.3017 25.4155 21.6327 25.842 20.9405 26.2288C20.447 26.5039 19.9393 26.7527 19.4195 26.9742" fill="white"/>
<path d="M10.0676 14.0413C10.0676 14.0413 10.2673 13.2206 10.9909 13.1891C11.7145 13.1577 12.0017 13.5585 12.2069 13.8266C12.4121 14.0947 12.7404 14.8429 12.0701 14.9523C11.3999 15.0617 10.3248 15.1397 10.1551 14.9797C9.88978 14.7198 10.0676 14.0413 10.0676 14.0413Z" fill="#FFFFF2"/>
<path d="M21.5793 14.0413C21.5793 14.0413 21.3796 13.2206 20.6547 13.1891C19.9297 13.1577 19.6438 13.5585 19.44 13.8266C19.2362 14.0947 18.9066 14.8429 19.5768 14.9523C20.247 15.0617 21.3222 15.1397 21.4918 14.9797C21.7571 14.7198 21.5793 14.0413 21.5793 14.0413Z" fill="#FFFFF2"/>
<path d="M9.47533 16.208C9.47533 16.208 9.45208 15.576 9.86654 15.6759C10.281 15.7757 12.4983 16.9001 12.9127 17.3515C13.3272 17.8029 13.6691 18.2529 13.2861 18.2707C12.9031 18.2885 11.3233 18.1845 10.4588 17.6606C9.59434 17.1367 9.47533 17.2653 9.47533 16.208Z" fill="#151110"/>
<path d="M22.1716 16.208C22.1716 16.208 22.1948 15.576 21.7804 15.6759C21.3659 15.7757 19.1487 16.9001 18.7342 17.3515C18.3198 17.8029 17.9778 18.2529 18.3608 18.2707C18.7438 18.2885 20.3223 18.1845 21.1881 17.6606C22.054 17.1367 22.1716 17.2653 22.1716 16.208Z" fill="#151110"/>
<path d="M23.6858 8.22115C23.0619 8.91795 22.4887 9.65847 21.9705 10.437C22.8269 11.1873 23.5684 12.0592 24.1714 13.025C24.6433 11.7939 25.2314 8.86404 25.1535 7.69043C25.1465 7.57898 25.1333 7.46801 25.1138 7.35805C24.7349 7.4237 24.2206 7.63845 23.6858 8.22115Z" fill="#FF8000"/>
<path d="M7.96525 8.22115C8.5887 8.91829 9.16189 9.65878 9.68052 10.437C8.82415 11.1873 8.08262 12.0592 7.47967 13.025C7.0064 11.7939 6.4196 8.86404 6.49756 7.69043C6.50383 7.57892 6.51708 7.4679 6.53723 7.35805C6.91202 7.4237 7.42633 7.63845 7.96525 8.22115Z" fill="#FF8000"/>
<path d="M23.3014 7.3389C22.3998 7.98291 21.5759 8.72926 20.8461 9.56301C21.2365 9.83202 21.6105 10.1239 21.9664 10.4371C22.4859 9.65834 23.0605 8.91781 23.6858 8.22116C24.2247 7.63846 24.739 7.42371 25.1138 7.35258C24.9237 6.36774 24.2329 6.69328 23.3014 7.3389Z" fill="#FF8E06"/>
<path d="M8.34551 7.3389C9.24923 7.98285 10.0754 8.72918 10.8076 9.56301C10.417 9.83168 10.043 10.1235 9.68736 10.4371C9.16873 9.65878 8.59554 8.91829 7.97209 8.22116C7.43316 7.63846 6.91886 7.42371 6.54407 7.35258C6.72462 6.36774 7.41812 6.69328 8.34551 7.3389Z" fill="#FF8E06"/>
<path d="M16.5594 24.2714H15.0876C15.0876 24.2714 14.9303 24.2344 14.9303 24.3548C14.9303 24.4752 15.1026 24.5723 15.1697 24.5723C15.2367 24.5723 15.3571 24.4191 15.4432 24.4191C15.5294 24.4191 15.699 24.7747 15.8194 24.7747C15.9398 24.7747 16.1053 24.4191 16.1942 24.4191C16.2831 24.4191 16.4048 24.5723 16.4677 24.5723C16.5307 24.5723 16.7071 24.4752 16.7071 24.3548C16.7071 24.2344 16.5594 24.2714 16.5594 24.2714Z" fill="#151110"/>
<path d="M18.5729 23.385C17.7809 23.3741 17.7371 23.4315 17.6455 23.4739C17.5538 23.5163 16.978 23.4903 16.6483 23.4999C16.3187 23.5095 16.4048 23.3413 16.2845 23.214C16.1846 23.1087 16.0506 23.1347 16.0424 23.0403V22.63C16.0424 22.63 16.0519 22.5178 16.2544 22.4549C16.637 22.3203 16.9648 22.0637 17.1872 21.7245C17.5689 20.9188 17.3869 20.1309 17.1681 19.9353C16.9492 19.7397 16.476 19.7753 16.476 19.7753H15.1793C15.1793 19.7753 14.7046 19.7397 14.4871 19.9353C14.2696 20.1309 14.0863 20.9188 14.468 21.7245C14.6914 22.063 15.0196 22.319 15.4022 22.4535V22.4535C15.6046 22.5164 15.6142 22.6286 15.6142 22.6286V23.039C15.606 23.1333 15.4774 23.1074 15.3721 23.2127C15.2517 23.3399 15.3379 23.5068 15.0083 23.4985C14.6786 23.4903 14.1055 23.515 14.0111 23.4726C13.9167 23.4302 13.8743 23.3727 13.0837 23.3837C13.0748 23.3836 13.0661 23.3862 13.0586 23.3909C13.0511 23.3957 13.0452 23.4025 13.0414 23.4106C13.0377 23.4186 13.0363 23.4276 13.0375 23.4364C13.0387 23.4452 13.0424 23.4535 13.0482 23.4603C13.105 23.5248 13.1545 23.5955 13.1959 23.6709C13.2656 23.8077 13.2739 24.1223 13.308 24.1483C13.3422 24.1743 13.4995 24.1483 13.5337 24.192C13.5679 24.2358 13.8374 25.0825 13.9578 25.0825C14.0781 25.0825 14.0275 23.8159 14.0275 23.8159C14.0275 23.8159 15.4432 23.9198 15.8235 23.9198C16.2038 23.9198 17.6195 23.8159 17.6195 23.8159C17.6195 23.8159 17.5675 25.0825 17.6892 25.0825C17.811 25.0825 18.0873 24.2331 18.1228 24.1893C18.1584 24.1455 18.313 24.1715 18.3472 24.1455C18.3814 24.1196 18.3909 23.8077 18.4607 23.6682C18.5021 23.5927 18.5516 23.5221 18.6084 23.4575C18.613 23.4507 18.6157 23.4429 18.6163 23.4347C18.6169 23.4265 18.6153 23.4183 18.6117 23.411C18.6081 23.4036 18.6026 23.3973 18.5958 23.3928C18.5889 23.3882 18.581 23.3855 18.5729 23.385V23.385Z" fill="#151110"/>
</svg>
