<svg width="79" height="79" viewBox="0 0 79 79" fill="none" xmlns="http://www.w3.org/2000/svg">
<g>
<path fill-rule="evenodd" clip-rule="evenodd" d="M37.954 50.525C38.1042 50.3635 38.2857 50.2337 38.4876 50.1435C38.6896 50.0533 38.9077 50.0045 39.1291 50H76.0503C76.2065 50.0022 76.3587 50.0491 76.4887 50.1352C76.6187 50.2213 76.7209 50.3428 76.7829 50.4851C76.845 50.6275 76.8643 50.7846 76.8386 50.9376C76.8128 51.0906 76.7431 51.2329 76.6378 51.3475L68.8117 59.975C68.6615 60.1365 68.48 60.2663 68.2781 60.3565C68.0762 60.4467 67.858 60.4955 67.6367 60.5H30.692C30.5358 60.4978 30.3835 60.4509 30.2536 60.3648C30.1236 60.2787 30.0214 60.1572 29.9593 60.0149C29.8973 59.8725 29.878 59.7154 29.9037 59.5624C29.9294 59.4094 29.9992 59.2671 30.1045 59.1525L37.954 50.525ZM76.673 43.3733C76.7784 43.4879 76.8481 43.6303 76.8738 43.7833C76.8996 43.9363 76.8802 44.0934 76.8182 44.2357C76.7561 44.3781 76.6539 44.4996 76.524 44.5856C76.394 44.6717 76.2417 44.7186 76.0855 44.7208L39.1526 44.75C38.9312 44.7455 38.7131 44.6967 38.5111 44.6065C38.3092 44.5163 38.1277 44.3865 37.9775 44.225L30.0927 35.6267C29.9874 35.5121 29.9177 35.3697 29.8919 35.2167C29.8662 35.0637 29.8855 34.9066 29.9476 34.7643C30.0097 34.6219 30.1118 34.5004 30.2418 34.4144C30.3718 34.3283 30.524 34.2814 30.6802 34.2792L67.6132 34.25C67.8345 34.2545 68.0527 34.3033 68.2546 34.3935C68.4565 34.4837 68.638 34.6135 68.7882 34.775L76.673 43.3733ZM37.954 19.025C38.1042 18.8635 38.2857 18.7337 38.4876 18.6435C38.6896 18.5533 38.9077 18.5045 39.1291 18.5L76.0738 18.5292C76.23 18.5314 76.3822 18.5783 76.5122 18.6644C76.6422 18.7504 76.7443 18.8719 76.8064 19.0143C76.8685 19.1566 76.8878 19.3137 76.8621 19.4667C76.8363 19.6197 76.7666 19.7621 76.6613 19.8767L68.8117 28.475C68.6615 28.6365 68.48 28.7663 68.2781 28.8565C68.0762 28.9467 67.858 28.9955 67.6367 29H30.692C30.5358 28.9978 30.3835 28.9509 30.2536 28.8648C30.1236 28.7787 30.0214 28.6572 29.9593 28.5149C29.8973 28.3725 29.878 28.2154 29.9037 28.0624C29.9294 27.9094 29.9992 27.7671 30.1045 27.6525L37.954 19.025Z" fill="#14F195"/>
</g>
</svg>
