<svg width="191" height="191" viewBox="0 0 191 191" fill="none" xmlns="http://www.w3.org/2000/svg">
<path d="M95.06 190.12C147.56 190.12 190.12 147.56 190.12 95.06C190.12 42.5598 147.56 0 95.06 0C42.5598 0 0 42.5598 0 95.06C0 147.56 42.5598 190.12 95.06 190.12Z" fill="#301748"/>
<path d="M98.67 158.37C95.455 155.407 92.4479 152.226 89.67 148.85C83.04 140.32 68.27 125.32 64.6 121.58C60.37 117.27 56.1 112.97 51.91 108.58C51.3 107.95 50.31 107.22 50.91 106.16C51.51 105.1 52.67 105.26 53.69 105.32C54.1463 105.349 54.5952 105.451 55.02 105.62C58.02 106.807 61.02 108.01 64.02 109.23C70.02 111.65 75.89 114.16 81.9 116.43C85.52 117.8 87.05 116.43 86.37 112.64C85.8 109.47 85 106.36 84.15 103.24C83.9555 102.554 83.9122 101.834 84.0229 101.13C84.1335 100.426 84.3956 99.7539 84.7911 99.1607C85.1865 98.5675 85.7059 98.0672 86.3134 97.6942C86.9209 97.3211 87.6021 97.0843 88.31 97C89.55 96.82 90.8 96.79 92.04 96.69C93.28 96.59 94.55 96.29 95.04 94.85C95.2765 94.2147 95.3031 93.5203 95.1159 92.8688C94.9287 92.2172 94.5376 91.6429 94 91.23C89.92 87.3 85.89 83.33 81.85 79.35C71.73 69.35 61.6166 59.35 51.51 49.35C45.51 43.45 39.5366 37.5533 33.59 31.66C33 31.08 32.38 30.57 32.85 29.66C33.32 28.75 34.11 28.86 34.92 29.02C37.4 29.52 39.19 31.3 41.15 32.64C46.38 36.24 51.85 39.46 57.15 42.87C60.85 45.22 64.61 47.48 68.3 49.87C71.99 52.26 75.49 54.62 79.12 56.93C84.34 60.24 89.61 63.46 94.82 66.78C100.44 70.36 106.02 74 111.6 77.64C112.6 78.3 113.53 78.64 114.6 77.7C115.67 76.76 115.51 75.82 115.03 74.55C113.91 71.55 111.82 69.13 111.03 66.06C110.75 65.06 110.53 64.06 111.53 63.28C111.931 62.9569 112.424 62.7701 112.939 62.7467C113.453 62.7233 113.961 62.8646 114.39 63.15C118.181 64.9452 121.87 66.9482 125.44 69.15C129.79 71.8781 134.32 74.3071 139 76.42C146.61 80.04 153.88 84.28 161.08 88.58C165.052 91.1072 168.476 94.4056 171.15 98.28C173.245 101.154 174.994 104.266 176.36 107.55C178.304 112.31 179.593 117.313 180.19 122.42C181.37 131.54 178.04 143.26 173.79 149.54C170.158 155.248 165.434 160.182 159.89 164.06C156.151 166.605 152.123 168.697 147.89 170.29C143.46 172.03 138.89 172.29 133.98 172.47C133.58 172.495 133.18 172.495 132.78 172.47C122.66 171.86 112.7 170.42 98.67 158.37ZM164.18 127.91C164.262 123.933 163.544 119.98 162.07 116.285C160.595 112.591 158.393 109.23 155.596 106.402C152.798 103.574 149.46 101.337 145.782 99.8236C142.103 98.3099 138.158 97.5503 134.18 97.59C118.12 97.68 104.9 110.79 104.85 128.13C104.85 142.31 118.66 158.13 134.35 157.13C150.56 157.79 164.08 143.15 164.18 127.91Z" fill="url(#paint0_linear_702_429)"/>
<path d="M63 89.3C62.9888 90.5156 63.4531 91.6874 64.2938 92.5655C65.1345 93.4435 66.285 93.9583 67.5 94C68.1107 93.9947 68.7138 93.8644 69.2722 93.617C69.8306 93.3696 70.3324 93.0103 70.7465 92.5615C71.1607 92.1127 71.4785 91.5837 71.6803 91.0073C71.8821 90.4308 71.9637 89.8192 71.92 89.21C71.8693 87.9917 71.3559 86.8386 70.4844 85.9857C69.613 85.1328 68.4491 84.6444 67.23 84.62C66.0576 84.7046 64.9632 85.2385 64.1751 86.1105C63.387 86.9825 62.966 88.1251 63 89.3V89.3Z" fill="url(#paint1_linear_702_429)"/>
<path d="M81.91 32.11C84.62 32.11 86.23 30.37 86.22 27.6C86.1491 26.4604 85.6578 25.3877 84.8412 24.5896C84.0246 23.7915 82.941 23.3249 81.8 23.28C79.8 23.28 77.05 25.82 77.03 27.73C77.0998 28.9567 77.6522 30.1059 78.5666 30.9266C79.4809 31.7473 80.683 32.1728 81.91 32.11V32.11Z" fill="url(#paint2_linear_702_429)"/>
<path d="M33 72.18C33.0273 71.6309 32.9391 71.0822 32.7411 70.5693C32.5431 70.0563 32.2396 69.5907 31.8504 69.2024C31.4611 68.8141 30.9948 68.5118 30.4814 68.315C29.968 68.1182 29.419 68.0314 28.87 68.06C27.7756 68.1595 26.7538 68.6499 25.9916 69.4415C25.2294 70.233 24.778 71.2727 24.72 72.37C24.798 73.4307 25.2646 74.4253 26.0303 75.1633C26.7961 75.9014 27.8072 76.3311 28.87 76.37C29.4225 76.3886 29.9728 76.2925 30.4863 76.0877C30.9998 75.883 31.4653 75.574 31.8533 75.1803C32.2414 74.7865 32.5437 74.3167 32.741 73.8003C32.9384 73.2839 33.0265 72.7322 33 72.18Z" fill="url(#paint3_linear_702_429)"/>
<path d="M134.35 157.08C150.56 157.79 164.08 143.15 164.18 127.91C164.262 123.933 163.544 119.98 162.07 116.285C160.595 112.591 158.393 109.23 155.596 106.402C152.798 103.574 149.46 101.337 145.782 99.8236C142.103 98.3099 138.158 97.5503 134.18 97.59C118.12 97.68 104.9 110.79 104.85 128.13C104.8 142.31 118.66 158.08 134.35 157.08Z" fill="url(#paint4_linear_702_429)"/>
<defs>
<linearGradient id="paint0_linear_702_429" x1="180.43" y1="100.72" x2="32.67" y2="100.72" gradientUnits="userSpaceOnUse">
<stop stop-color="#E2107B"/>
<stop offset="1" stop-color="#301748"/>
</linearGradient>
<linearGradient id="paint1_linear_702_429" x1="71.92" y1="89.3" x2="62.96" y2="89.3" gradientUnits="userSpaceOnUse">
<stop stop-color="#E2107B"/>
<stop offset="1" stop-color="#0D1126"/>
</linearGradient>
<linearGradient id="paint2_linear_702_429" x1="86.22" y1="27.7" x2="77.04" y2="27.7" gradientUnits="userSpaceOnUse">
<stop stop-color="#E2107B"/>
<stop offset="1" stop-color="#0D1126"/>
</linearGradient>
<linearGradient id="paint3_linear_702_429" x1="33.02" y1="72.2" x2="24.74" y2="72.2" gradientUnits="userSpaceOnUse">
<stop stop-color="#E2107B"/>
<stop offset="1" stop-color="#0D1126"/>
</linearGradient>
<linearGradient id="paint4_linear_702_429" x1="180.16" y1="145.03" x2="106.36" y2="116.58" gradientUnits="userSpaceOnUse">
<stop stop-color="#301748"/>
<stop offset="1" stop-color="#E2107B"/>
</linearGradient>
</defs>
</svg>
