<svg width="83" height="77" viewBox="0 0 83 77" fill="none" xmlns="http://www.w3.org/2000/svg">
<path d="M17.1998 5L81.3998 48.9L65.4998 72.3L1.2998 28.1L17.1998 5Z" fill="url(#paint0_linear)"/>
<path d="M81.4002 48.8C75.9002 56.7 57.2002 53.6 39.6002 41.2C21.7002 29.2 12.0002 12.9 17.2002 5C22.7002 -3 41.4002 0.100001 59.0002 12.6C76.9002 24.3 86.6002 40.9 81.4002 48.8Z" fill="url(#paint1_linear)"/>
<path d="M65.5 72C60 79.9 41.3 76.8 23.7 64.4C6.09999 52 -3.90001 36.1 1.59999 27.8C7.09999 19.9 25.8 23 43.4 35.4C61 47.8 70.7 64 65.5 72Z" fill="url(#paint2_linear)"/>
<path d="M81.4 48.8L65.5 72.3C60 80.2 41.3 76.8 23.7 64.7C20.2 62.3 17.1 59.9 14 57.1C16.4 56.8 19.5 55.4 22.6 51.9C28.1 46 30.9 44.6 33.3 45C35.7 45 38.5 47.4 43 53.3C47.5 59.2 53.7 60.9 57.5 57.8C57.8 57.5 58.2 57.5 58.5 57.1C61.6 54.7 62.6 53.6 68.5 42.6C69.9 39.8 74.7 35.3 81.3 37.4C83.2 41.9 83.2 45.7 81.4 48.8Z" fill="#0E0F23"/>
<path fill-rule="evenodd" clip-rule="evenodd" d="M79 47.5C74.2 54.4 57.2 51 41 39.6C24.4 28.1 14.8 13.6 19.6 6.7C24.4 -0.199996 41.4 3.2 57.6 14.6C73.8 26 83.5 40.6 79 47.5ZM63.8 37.1C61.4 40.6 53.1 38.8 44.8 33.3C36.9 27.8 32 20.5 34.5 17.1C37 13.7 45.2 15.4 53.5 20.9C61.4 26.4 66.2 33.6 63.8 37.1Z" fill="white"/>
<path d="M15.7999 12.9C15.7999 12.6 15.4999 12.2 15.0999 12.6C14.7999 12.9 14.3999 12.9 14.3999 13.3C14.6999 14.3 15.0999 15 15.0999 15.7C15.0999 16 15.3999 16.4 15.7999 16C16.0999 16 16.4999 15.7 16.0999 15.3C16.1999 14.7 16.1999 14 15.7999 12.9Z" fill="white"/>
<path d="M17.5 18.5C17.5 18.2 17.2 17.8 16.8 18.2C16.5 18.5 16.5 18.5 16.5 18.9C20.3 27.5 28.2 36.9 38.6 43.8C38.9 44.1 39.3 43.8 39.6 43.8C39.9 43.5 39.6 43.1 39.6 42.8C28.9 35.7 21.3 26.7 17.5 18.5Z" fill="white"/>
<path d="M59.3001 52.3C59.0001 52.3 58.6001 52.3 58.6001 52.6C58.6001 52.9 58.6001 53.3 58.9001 53.3C59.9001 53.6 61.3001 54 62.4001 54.3C62.7001 54.3 63.1001 54.3 63.1001 54C63.1001 53.7 63.1001 53.3 62.8001 53.3C61.7001 53 60.4001 52.6 59.3001 52.3Z" fill="white"/>
<path d="M65.4998 53.7C65.1998 53.7 64.7998 54 64.7998 54.4C64.7998 54.8 65.0998 55.1 65.4998 55.1C68.2998 55.4 71.3998 55.8 73.7998 55.4C74.0998 55.4 74.4998 55.1 74.4998 54.7C74.4998 54.3 74.1998 54 73.7998 54C71.0998 54.4 68.2998 54 65.4998 53.7Z" fill="white"/>
<defs>
<linearGradient id="paint0_linear" x1="29.7911" y1="-1.2596" x2="42.5304" y2="42.4857" gradientUnits="userSpaceOnUse">
<stop stop-color="#03B8FF"/>
<stop offset="1" stop-color="#FA52A0"/>
</linearGradient>
<linearGradient id="paint1_linear" x1="40.2291" y1="-4.2995" x2="52.9687" y2="39.446" gradientUnits="userSpaceOnUse">
<stop stop-color="#03B8FF"/>
<stop offset="1" stop-color="#FA52A0"/>
</linearGradient>
<linearGradient id="paint2_linear" x1="19.4769" y1="1.7438" x2="32.2166" y2="45.4896" gradientUnits="userSpaceOnUse">
<stop stop-color="#03B8FF"/>
<stop offset="1" stop-color="#FA52A0"/>
</linearGradient>
</defs>
</svg>
