<svg width="29" height="31" viewBox="0 0 29 31" fill="none" xmlns="http://www.w3.org/2000/svg">
<path fill-rule="evenodd" clip-rule="evenodd" d="M7.80555 8.23703C6.57358 7.14621 4.00525 4.87211 0.660476 0.824913C0.285547 0.371235 -0.0115248 0 0.000343613 0C0.0559001 0 8.77649 7.52788 9.67925 8.57728L9.92855 8.86704L9.90679 9.31761C9.87816 9.91206 9.69148 10.3069 9.2454 10.7168C8.73117 11.1892 8.10557 11.4426 7.12309 11.5764C6.52046 11.6585 6.30126 11.7491 6.05774 12.0165C5.82427 12.2729 5.735 12.5924 5.67054 13.4026C5.57073 14.6565 5.42319 15.1867 4.82783 16.4307C4.25262 17.6326 4.13587 18.0868 4.23651 18.7306C4.35917 19.5151 4.80328 20.0856 5.84303 20.7943C6.63659 21.335 6.99664 21.6839 7.19441 22.1034C7.31591 22.3612 7.33171 22.4551 7.32936 22.9032C7.32578 23.5881 7.21533 23.8642 6.74488 24.3641C5.98475 25.1718 4.63318 25.8309 2.96869 26.2056C2.27316 26.3622 2.24244 26.362 2.24244 26.2017C2.24244 26.0002 1.984 25.4851 1.53515 24.792C1.01504 23.989 0.811589 23.5875 0.61668 22.9793C0.394044 22.2847 0.331175 21.8153 0.363455 21.0888C0.393997 20.4017 0.469349 20.097 0.743398 19.5528C0.960969 19.1207 1.10206 18.9242 1.96431 17.8521C3.43732 16.0207 3.96886 14.9506 4.15787 13.4357C4.32649 12.0843 4.56006 11.4313 5.08259 10.8502C5.39603 10.5016 5.46534 10.3685 5.46534 10.1152C5.46534 10.0897 5.4781 10.0559 5.49513 10.0109C5.56129 9.83604 5.69193 9.49071 5.38978 8.79542C3.03819 4.60065 3.03701 4.59848 3.10561 4.66304C3.13527 4.69096 4.22278 6.35856 5.52226 8.36881C6.34473 9.82427 6.52377 9.97757 6.67876 10.1103C6.70015 10.1286 6.72109 10.1465 6.74321 10.1674C6.74321 10.1674 6.85115 10.2883 7.16549 10.2883C7.44343 10.2883 7.99854 10.1333 8.26855 9.98029C8.75408 9.7051 8.86074 9.35396 8.57733 8.96337C8.49008 8.84314 8.22543 8.60881 7.80555 8.23703ZM2.50346 20.8609C2.84487 21.0873 2.95333 21.5505 2.74922 21.9109C2.55375 22.256 2.18051 22.3692 1.91684 22.1634C1.75324 22.0358 1.74173 21.8478 1.88435 21.634C2.02519 21.4231 2.01219 21.3197 1.83319 21.228C1.72689 21.1734 1.67972 21.1116 1.67972 21.0265C1.67972 20.7479 2.18087 20.6471 2.50346 20.8609Z" fill="black"/>
<path d="M8.65792 2.16012C8.46839 2.18916 8.48538 2.19647 8.88813 2.25874C10.3552 2.48561 11.5013 3.06543 12.6677 4.17103C13.181 4.6576 13.697 5.26179 14.5319 6.35381C16.4115 8.81241 17.2092 9.49742 18.7916 10.0118C19.7217 10.3141 20.6596 10.4552 22.3169 10.5423C24.1517 10.6387 24.8446 10.7858 25.5 11.2181C25.8634 11.4579 26.1474 11.7552 26.4299 12.192L26.594 12.4458L26.5597 12.1666C26.428 11.0957 25.6608 9.59128 24.6842 8.48813L24.5062 8.28707L24.4162 8.69119C24.1901 9.7086 23.7015 10.4398 23.2479 10.4404C23.0263 10.4407 22.8024 10.2996 22.7221 10.1089C22.6215 9.86998 22.6298 9.78149 22.7795 9.5023C23.0543 8.98922 23.1222 8.30228 22.9866 7.40609C22.9474 7.14705 22.8896 6.90429 22.8581 6.86659C22.7592 6.74826 21.9672 6.28777 21.4649 6.05645C19.6392 5.2156 17.4563 4.94238 15.3106 5.28615L14.8013 5.36779L14.4452 4.97259C13.105 3.48499 11.8496 2.64739 10.4698 2.32042C9.87879 2.18033 9.02113 2.10443 8.65792 2.16012Z" fill="black"/>
<path d="M23.5801 3.04184C23.3798 3.48263 23.2804 3.96528 23.2387 4.69704C23.2119 5.16904 23.1851 5.32961 23.1297 5.35068C23.0472 5.38211 22.9352 5.34834 22.2558 5.08784C21.799 4.91268 20.6644 4.58253 20.6315 4.61521C20.6229 4.62385 20.8602 4.73934 21.159 4.87193C21.4578 5.00452 21.9436 5.25519 22.2383 5.42901C23.4017 6.11513 23.6 6.51566 23.6017 8.18169C23.6023 9.01087 23.5919 9.12101 23.4886 9.37159C23.3503 9.70717 23.3745 9.77064 23.5274 9.47331C23.8099 8.9236 23.927 8.37383 23.944 7.51728C23.9547 6.96771 23.9712 6.85146 24.0491 6.7741C24.1337 6.69015 24.1541 6.68892 24.2913 6.75932C24.4959 6.86431 25.422 7.5987 25.8246 7.97528L26.154 8.28322L25.8246 7.85233C25.6436 7.61535 25.144 7.06341 24.7146 6.62576C23.7987 5.69273 23.7264 5.56811 23.5991 4.70436C23.4989 4.02361 23.5229 3.4385 23.6683 3.01073C23.7219 2.85335 23.7563 2.72458 23.745 2.72458C23.7334 2.72458 23.6593 2.86737 23.5801 3.04184Z" fill="black"/>
<path d="M9.67968 7.54703C8.86204 6.4248 8.35614 4.70417 8.46567 3.41791L8.49953 3.01988L8.68565 3.05374C9.03516 3.11728 9.63778 3.3409 9.91996 3.51177C10.6943 3.98062 11.0296 4.59791 11.3706 6.18301C11.4705 6.6473 11.6016 7.17271 11.6619 7.35059C11.759 7.6369 12.1259 8.30566 12.4242 8.73998C12.6391 9.0528 12.4963 9.20103 12.0214 9.15828C11.296 9.09301 10.3135 8.41699 9.67968 7.54703Z" fill="black"/>
<path d="M17.0757 10.7878C17.0757 13.0342 18.4215 14.3655 22.2424 15.8993C24.7873 16.9207 25.8279 17.449 26.6026 18.1126C27.2839 18.6963 27.6895 19.4755 27.7287 20.2758C27.7362 20.4251 27.7643 20.5349 27.793 20.5257C27.8966 20.4922 28.2873 19.6207 28.4152 19.1372C28.5773 18.5251 28.636 17.3637 28.5359 16.7444C28.1918 14.613 26.7489 13.0481 24.4167 12.277C23.683 12.0344 22.8875 11.8684 21.474 11.6628C19.072 11.3134 18.2044 11.0488 17.4295 10.4292C17.2628 10.2958 17.1149 10.1868 17.101 10.1868C17.0871 10.1868 17.0757 10.4572 17.0757 10.7878Z" fill="black"/>
<path d="M19.5618 16.5366C19.5139 16.2525 19.4309 15.8898 19.3773 15.7305L19.2798 15.4409L19.4609 15.6435C19.7115 15.924 19.9095 16.2828 20.0774 16.7608C20.2055 17.1255 20.2199 17.234 20.2189 17.8268C20.2179 18.4088 20.2019 18.5308 20.0837 18.8591C19.8971 19.3768 19.6656 19.744 19.2772 20.138C18.5792 20.8463 17.6818 21.2384 16.3869 21.401C16.1618 21.4291 15.5057 21.4768 14.9289 21.5067C13.4753 21.5821 12.5186 21.7378 11.659 22.0388C11.5354 22.082 11.425 22.1084 11.4138 22.0973C11.379 22.0627 11.9643 21.7149 12.4478 21.4826C13.1294 21.1552 13.808 20.9767 15.3283 20.7243C16.0793 20.5995 16.8549 20.4482 17.0519 20.388C18.9118 19.8195 19.8678 18.3525 19.5618 16.5366Z" fill="black"/>
<path d="M20.971 16.5196C20.6928 17.4993 20.8094 18.5498 21.3171 19.6378C21.572 20.1841 21.826 20.5964 22.8624 22.1455C23.7535 23.4781 24.195 24.2666 24.4115 24.9128C24.7651 25.968 24.7118 26.9161 24.2442 27.8907C24.1337 28.121 24.0594 28.3092 24.0793 28.3088C24.099 28.3084 24.2819 28.2179 24.4856 28.1077C25.8758 27.3556 26.8505 26.0668 27.2699 24.426C27.4029 23.9056 27.4553 22.6622 27.366 22.1455C27.2082 21.2332 26.8805 20.4849 26.3508 19.8281C25.746 19.078 24.8565 18.4215 23.2967 17.5736C22.0468 16.8941 21.5775 16.6297 21.3435 16.4727C21.2259 16.3938 21.1061 16.3292 21.0774 16.3292C21.0486 16.3292 21.0008 16.4149 20.971 16.5196Z" fill="black"/>
<path d="M6.96476 25.5083C8.38272 24.3147 10.147 23.4668 11.7541 23.2064C12.4467 23.0943 13.6005 23.1387 14.2419 23.3024C15.27 23.5647 16.1896 24.1523 16.6679 24.8522C17.1353 25.5362 17.3358 26.1324 17.5446 27.4587C17.627 27.9821 17.7165 28.5073 17.7436 28.6263C17.9004 29.3138 18.2056 29.8631 18.5837 30.1392C19.1842 30.5774 20.2183 30.6045 21.2355 30.209C21.4082 30.1418 21.558 30.0954 21.5685 30.1059C21.6056 30.1424 21.0932 30.4842 20.7319 30.6642C20.2456 30.9063 19.859 31 19.3452 31C18.4135 31 17.64 30.5276 16.9946 29.5641C16.8676 29.3744 16.5821 28.8066 16.3602 28.302C15.6787 26.7524 15.3422 26.2804 14.551 25.7637C13.8624 25.3143 12.9744 25.2337 12.3063 25.5603C11.4288 25.9893 11.1839 27.1073 11.8124 27.8158C12.0622 28.0974 12.5281 28.3402 12.909 28.3875C13.6216 28.476 14.234 27.9355 14.234 27.2181C14.234 26.7524 14.0545 26.4866 13.6024 26.2832C12.9851 26.0054 12.3215 26.33 12.3246 26.9083C12.326 27.155 12.4337 27.3097 12.6816 27.4216C12.8406 27.4933 12.8443 27.4989 12.7146 27.4721C12.1482 27.355 12.0155 26.6742 12.4709 26.2222C13.0178 25.6797 14.1485 25.9191 14.5368 26.6598C14.6999 26.9709 14.7188 27.5904 14.5766 27.9645C14.2583 28.8019 13.3302 29.242 12.3887 29.0025C11.7477 28.8392 11.4867 28.6626 10.7139 27.8691C9.37098 26.4899 8.84964 26.2226 6.91359 25.9214L6.5426 25.8636L6.96476 25.5083Z" fill="black"/>
<path fill-rule="evenodd" clip-rule="evenodd" d="M10.5445 11.8127C10.0833 11.954 9.63494 12.4413 9.49615 12.9523C9.41149 13.2641 9.45953 13.8109 9.58634 13.9798C9.79122 14.2525 9.98935 14.3244 10.5258 14.3206C11.5762 14.3133 12.4893 13.8642 12.5955 13.3028C12.6825 12.8426 12.2814 12.2048 11.729 11.9247C11.444 11.7803 10.8378 11.723 10.5445 11.8127ZM11.7724 12.77C11.9344 12.5405 11.8635 12.2925 11.588 12.1248C11.0634 11.8054 10.27 12.0697 10.27 12.5638C10.27 12.8098 10.6838 13.0781 11.063 13.0781C11.3154 13.0781 11.6608 12.928 11.7724 12.77Z" fill="black"/>
</svg>
