<svg width="32" height="32" viewBox="0 0 32 32" fill="none" xmlns="http://www.w3.org/2000/svg">
<path d="M32 16C32 7.16344 24.8366 0 16 0C7.16344 0 0 7.16344 0 16C0 24.8366 7.16344 32 16 32C24.8366 32 32 24.8366 32 16Z" fill="#FD017A"/>
<path fill-rule="evenodd" clip-rule="evenodd" d="M11.814 10.2758C10.6228 9.48013 8.13943 7.82136 4.90534 4.86928C4.54282 4.53836 4.25558 4.26758 4.26706 4.26758C4.32077 4.26758 12.7528 9.75852 13.6257 10.524L13.8667 10.7353L13.8457 11.064C13.818 11.4976 13.6375 11.7856 13.2062 12.0846C12.709 12.4291 12.1041 12.614 11.1541 12.7116C10.5714 12.7715 10.3595 12.8375 10.124 13.0326C9.89826 13.2196 9.81194 13.4527 9.74962 14.0436C9.65311 14.9582 9.51045 15.345 8.93479 16.2524C8.37862 17.129 8.26573 17.4603 8.36304 17.9299C8.48164 18.5022 8.91106 18.9183 9.9164 19.4352C10.6837 19.8296 11.0318 20.0841 11.2231 20.3901C11.3405 20.5782 11.3558 20.6466 11.3535 20.9735C11.3501 21.4731 11.2433 21.6745 10.7884 22.0391C10.0534 22.6282 8.74659 23.109 7.13718 23.3823C6.46466 23.4965 6.43496 23.4964 6.43496 23.3795C6.43496 23.2325 6.18507 22.8568 5.75107 22.3512C5.24817 21.7655 5.05146 21.4726 4.863 21.029C4.64773 20.5224 4.58694 20.18 4.61815 19.65C4.64768 19.1489 4.72054 18.9266 4.98552 18.5297C5.19589 18.2145 5.33232 18.0712 6.16603 17.2892C7.5903 15.9533 8.10425 15.1728 8.287 14.0678C8.45004 13.082 8.67589 12.6057 9.18112 12.1819C9.48419 11.9276 9.55121 11.8305 9.55121 11.6457C9.55121 11.6271 9.56355 11.6025 9.58001 11.5697C9.64398 11.4421 9.7703 11.1902 9.47815 10.6831C7.20438 7.62336 7.20323 7.62177 7.26956 7.66887C7.29824 7.68923 8.34977 8.9056 9.60624 10.3719C10.4015 11.4335 10.5746 11.5454 10.7245 11.6422C10.7452 11.6555 10.7654 11.6686 10.7868 11.6838C10.7868 11.6838 10.8912 11.772 11.1951 11.772C11.4638 11.772 12.0006 11.659 12.2617 11.5473C12.7311 11.3466 12.8342 11.0905 12.5602 10.8056C12.4759 10.7179 12.22 10.547 11.814 10.2758ZM6.68734 19.4838C7.01745 19.649 7.12232 19.9868 6.92497 20.2497C6.73597 20.5014 6.37508 20.584 6.12013 20.4339C5.96195 20.3408 5.95082 20.2037 6.08872 20.0477C6.2249 19.8939 6.21233 19.8185 6.03925 19.7516C5.93647 19.7118 5.89086 19.6667 5.89086 19.6046C5.89086 19.4014 6.37543 19.3279 6.68734 19.4838Z" fill="black"/>
<path d="M11.83 5.3492C11.6732 5.37325 11.6872 5.3793 12.0204 5.43087C13.2339 5.61876 14.182 6.09894 15.1468 7.01454C15.5714 7.4175 15.9983 7.91786 16.6889 8.82222C18.2437 10.8583 18.9035 11.4256 20.2125 11.8516C20.9819 12.1019 21.7577 12.2188 23.1286 12.2909C24.6463 12.3708 25.2195 12.4926 25.7617 12.8506C26.0623 13.0492 26.2972 13.2954 26.5309 13.6571L26.6666 13.8673L26.6382 13.6361C26.5293 12.7492 25.8947 11.5033 25.0868 10.5898L24.9396 10.4233L24.8651 10.7579C24.6781 11.6005 24.2739 12.206 23.8987 12.2065C23.7154 12.2068 23.5302 12.0899 23.4638 11.932C23.3806 11.7341 23.3874 11.6609 23.5113 11.4296C23.7386 11.0047 23.7948 10.4358 23.6826 9.69367C23.6502 9.47914 23.6023 9.2781 23.5763 9.24688C23.4945 9.14888 22.8393 8.76753 22.4238 8.57596C20.9136 7.87961 19.1079 7.65334 17.333 7.93803L16.9117 8.00564L16.6172 7.67836C15.5086 6.4464 14.4701 5.75273 13.3287 5.48195C12.8399 5.36594 12.1304 5.30308 11.83 5.3492Z" fill="black"/>
<path d="M24.1811 6.64423C23.9876 6.98301 23.8917 7.35396 23.8514 7.91638C23.8255 8.27915 23.7996 8.40256 23.7461 8.41875C23.6664 8.44291 23.5583 8.41695 22.9022 8.21674C22.4611 8.08211 21.3654 7.82837 21.3336 7.85349C21.3253 7.86013 21.5545 7.94889 21.843 8.05079C22.1316 8.1527 22.6007 8.34536 22.8853 8.47895C24.0088 9.00629 24.2003 9.31413 24.2019 10.5946C24.2025 11.2319 24.1925 11.3165 24.0927 11.5091C23.9592 11.7671 23.9825 11.8158 24.1302 11.5873C24.403 11.1648 24.5161 10.7423 24.5325 10.084C24.5428 9.66156 24.5588 9.57222 24.634 9.51276C24.7157 9.44824 24.7354 9.44729 24.8679 9.5014C25.0655 9.58209 25.9598 10.1465 26.3486 10.436L26.6667 10.6726L26.3486 10.3415C26.1738 10.1593 25.6913 9.73512 25.2767 9.39875C24.3922 8.68164 24.3224 8.58586 24.1994 7.922C24.1027 7.3988 24.1258 6.94909 24.2663 6.62032C24.318 6.49936 24.3512 6.40039 24.3403 6.40039C24.3291 6.40039 24.2576 6.51014 24.1811 6.64423Z" fill="black"/>
<path d="M12.6992 9.54342C12.0565 8.7643 11.6588 7.56973 11.7449 6.67673L11.7716 6.40039L11.9179 6.4239C12.1926 6.46801 12.6663 6.62326 12.8881 6.74189C13.4968 7.0674 13.7604 7.49596 14.0284 8.59643C14.1069 8.91877 14.21 9.28354 14.2574 9.40704C14.3337 9.60581 14.6221 10.0701 14.8566 10.3716C15.0255 10.5888 14.9133 10.6917 14.54 10.662C13.9698 10.6167 13.1975 10.1474 12.6992 9.54342Z" fill="black"/>
<path d="M18.1333 12.2284C18.1333 14.0824 19.2558 15.1812 22.4428 16.4471C24.5655 17.29 25.4335 17.7261 26.0797 18.2737C26.648 18.7555 26.9863 19.3986 27.019 20.0591C27.0252 20.1823 27.0487 20.2729 27.0726 20.2653C27.159 20.2377 27.4849 19.5184 27.5916 19.1194C27.7268 18.6142 27.7757 17.6557 27.6922 17.1445C27.4052 15.3854 26.2017 14.0939 24.2564 13.4575C23.6444 13.2573 22.9809 13.1203 21.8019 12.9506C19.7984 12.6622 19.0747 12.4438 18.4284 11.9325C18.2894 11.8224 18.166 11.7324 18.1544 11.7324C18.1428 11.7324 18.1333 11.9556 18.1333 12.2284Z" fill="black"/>
<path d="M20.8558 16.8776C20.821 16.65 20.7607 16.3595 20.7217 16.2319L20.6508 16L20.7825 16.1623C20.9646 16.3869 21.1085 16.6743 21.2305 17.0571C21.3236 17.3492 21.334 17.4361 21.3333 17.9109C21.3326 18.3771 21.321 18.4748 21.2351 18.7377C21.0995 19.1524 20.9312 19.4465 20.649 19.762C20.1417 20.3293 19.4895 20.6434 18.5485 20.7736C18.3849 20.7961 17.9081 20.8343 17.4889 20.8583C16.4326 20.9187 15.7373 21.0434 15.1126 21.2844C15.0228 21.319 14.9426 21.3402 14.9344 21.3313C14.9091 21.3036 15.3345 21.025 15.6859 20.839C16.1812 20.5767 16.6744 20.4338 17.7792 20.2316C18.325 20.1317 18.8886 20.0105 19.0318 19.9623C20.3834 19.5069 21.0782 18.332 20.8558 16.8776Z" fill="black"/>
<path d="M21.4526 17.202C21.2273 17.8999 21.3217 18.6482 21.7328 19.4232C21.9392 19.8123 22.1449 20.106 22.9841 21.2095C23.7056 22.1587 24.0631 22.7204 24.2384 23.1807C24.5248 23.9323 24.4816 24.6077 24.103 25.3019C24.0135 25.466 23.9533 25.6 23.9694 25.5997C23.9854 25.5995 24.1335 25.535 24.2984 25.4565C25.4241 24.9208 26.2134 24.0027 26.553 22.8339C26.6607 22.4632 26.7031 21.5775 26.6308 21.2095C26.503 20.5596 26.2377 20.0266 25.8088 19.5587C25.319 19.0244 24.5988 18.5568 23.3358 17.9528C22.3237 17.4688 21.9437 17.2805 21.7542 17.1686C21.659 17.1124 21.562 17.0664 21.5387 17.0664C21.5154 17.0664 21.4767 17.1275 21.4526 17.202Z" fill="black"/>
<path d="M9.95955 23.2599C11.1673 22.2875 12.67 21.5967 14.0389 21.3845C14.6288 21.2932 15.6116 21.3294 16.1579 21.4627C17.0336 21.6764 17.8168 22.1552 18.2242 22.7254C18.6224 23.2826 18.7931 23.7683 18.971 24.8489C19.0412 25.2753 19.1174 25.7032 19.1405 25.8001C19.274 26.3602 19.534 26.8078 19.856 27.0327C20.3675 27.3897 21.2483 27.4118 22.1147 27.0896C22.2618 27.0348 22.3894 26.997 22.3984 27.0056C22.43 27.0353 21.9935 27.3138 21.6858 27.4604C21.2716 27.6576 20.9423 27.734 20.5046 27.734C19.7111 27.734 19.0522 27.3491 18.5025 26.5642C18.3943 26.4096 18.1512 25.947 17.9622 25.5359C17.3817 24.2735 17.0951 23.8889 16.4212 23.468C15.8346 23.1018 15.0783 23.0362 14.5092 23.3023C13.7618 23.6518 13.5532 24.5626 14.0886 25.1398C14.3013 25.3692 14.6982 25.567 15.0226 25.6056C15.6295 25.6777 16.1512 25.2373 16.1512 24.6529C16.1512 24.2735 15.9983 24.0569 15.6132 23.8912C15.0874 23.6649 14.5222 23.9293 14.5248 24.4005C14.526 24.6015 14.6177 24.7275 14.8289 24.8187C14.9643 24.8771 14.9675 24.8816 14.857 24.8598C14.3746 24.7644 14.2615 24.2098 14.6494 23.8415C15.1153 23.3995 16.0783 23.5946 16.4091 24.198C16.548 24.4515 16.5641 24.9562 16.443 25.261C16.1719 25.9432 15.3813 26.3017 14.5794 26.1066C14.0334 25.9736 13.8111 25.8297 13.1529 25.1832C12.0091 24.0596 11.565 23.8418 9.91597 23.5964L9.59998 23.5494L9.95955 23.2599Z" fill="black"/>
<path fill-rule="evenodd" clip-rule="evenodd" d="M13.0376 13.0505C12.5989 13.2167 12.1724 13.7897 12.0404 14.3907C11.9599 14.7574 12.0056 15.4004 12.1262 15.599C12.3211 15.9197 12.5096 16.0043 13.0199 15.9998C14.0191 15.9912 14.8877 15.4631 14.9887 14.8029C15.0715 14.2617 14.6899 13.5116 14.1644 13.1822C13.8933 13.0124 13.3167 12.945 13.0376 13.0505ZM14.2057 14.1763C14.3598 13.9064 14.2924 13.6147 14.0303 13.4175C13.5313 13.0419 12.7765 13.3527 12.7765 13.9338C12.7765 14.2231 13.1702 14.5386 13.5309 14.5386C13.771 14.5386 14.0995 14.3621 14.2057 14.1763Z" fill="black"/>
</svg>
