<svg xmlns="http://www.w3.org/2000/svg" id="Layer_2" data-name="Layer 2" viewBox="0 0 364.55 330.18"><defs><style>.cls-1{fill:#fff;}</style></defs><path class="cls-1" d="M463,530.55c132.9-35.6,154.26-80.69,154.26-80.69-29.66,35.6-142.7,62.33-142.7,62.33Z" transform="translate(-317.63 -251.99)"/><path class="cls-1" d="M642.47,370.36s-20.3-79-84.55-88.11-96,8.6-96,8.6l-5.78,13.34a11.84,11.84,0,0,1-10.24,8.61l-16.25-1.52a20.07,20.07,0,0,0-6.49,1.77c-9,4.14-35,16.13-46,20.52-13.35,5.34-45.24,14.54-27.44,32.34,0,0-4.45-13.35,17.8-20.47s74.76-19.58,89.89-9.79S451.13,419.3,444,419.3H422.65s15.13,14.24,28.48,9.79S468,419.3,468,419.3s12.45-65,18.68-73.86S612.21,303.61,642.47,370.36ZM480.05,335.65l-2.23-6.7C568.9,300.34,610,332.09,610,332.09,547.24,308.06,480.05,335.65,480.05,335.65Z" transform="translate(-317.63 -251.99)"/><path class="cls-1" d="M451.72,346.62s-21.36-3-42.13,22.55c-22.11,27.16-40.36,72.38-84,74.16,0,0,23.45,7.72,39.47,0,0,0-20.77,20.18-47.47,20.77,0,0,41.76,4.09,61.7-23.73C404.25,405.61,409.59,359.08,451.72,346.62Z" transform="translate(-317.63 -251.99)"/><path class="cls-1" d="M350.84,381.27a61,61,0,0,0,10.7,4.65s-8.31-9.33-10.39-14.16L344,369l-7.12-11.4a56,56,0,0,0,2.9,11.07c-4.24-6.12-7.17-13.27-3.49-18.79,8-12,47.17-22.25,58.74-30.26,7.66-5.31,30.86-18.58,43.87-28.15a75.38,75.38,0,0,1,26.48-12.43C680.72,225.38,661.16,419.3,661.16,419.3c19-133.19-70.31-167.31-129-167.31S430.66,272.46,428,275.13s-23.14,26.7-37.38,35.6-65.86,22.25-65,40.94C326.44,368.42,346.66,379.21,350.84,381.27Z" transform="translate(-317.63 -251.99)"/><path class="cls-1" d="M360.35,354.91a35.38,35.38,0,0,0,33.52,11c-11.27-1.19-18.39-19.39-18.39-19.39C361.24,349.08,360.35,354.91,360.35,354.91Zm24.32,9.51s-9.19.89-20.76-11l3.26-2.67S373.57,361.09,384.67,364.42Z" transform="translate(-317.63 -251.99)"/><path class="cls-1" d="M671.25,346.52s34.41,109.27-54,175.13L610,552.5S715.74,479.31,671.25,346.52Z" transform="translate(-317.63 -251.99)"/><path class="cls-1" d="M447.86,399.43s10.68-31.19,7.72-44.52c0,0-6.23,36.51-19.58,49.26l-17.8,3.27S433.92,411,440.15,411,447.86,399.43,447.86,399.43Z" transform="translate(-317.63 -251.99)"/><path class="cls-1" d="M633.27,473.4c28.27-56.88-11.86-134.49-138.58-101.64,0,0,108.32-21,130.87,42.5,31.08,87.52-138.84,127-181,134.09l-26.4,33.82S602.67,535,633.27,473.4Z" transform="translate(-317.63 -251.99)"/></svg>
