<svg width="32" height="32" viewBox="0 0 32 32" fill="none" xmlns="http://www.w3.org/2000/svg">
<path d="M16 32C24.8366 32 32 24.8366 32 16C32 7.16344 24.8366 0 16 0C7.16344 0 0 7.16344 0 16C0 24.8366 7.16344 32 16 32Z" fill="#2A1B4A"/>
<path d="M8.44843 18.2631C8.69539 18.3111 8.93174 18.3805 9.17183 18.3975C9.49123 18.4205 9.81624 18.4298 10.1338 18.3962C10.7017 18.3364 11.067 17.9449 11.3942 17.5106C11.9262 16.8044 12.2912 16.0096 12.6093 15.1831C13.3477 13.2638 14.1052 11.3525 14.857 9.43861C15.2732 8.37996 16.3569 7.80458 17.4456 8.06045C18.5049 8.30928 19.2424 9.34234 19.1471 10.4707C19.1275 10.7055 19.0675 10.9453 18.982 11.1644C17.5068 14.941 16.0247 18.7144 14.5441 22.4888C14.1885 23.3955 13.3764 23.9469 12.4114 23.938C11.5238 23.9296 10.7298 23.3223 10.3754 22.4536C10.0735 21.7135 9.71384 20.9984 9.37758 20.273C9.0816 19.634 8.7825 18.9965 8.48527 18.3581C8.47215 18.3303 8.46279 18.3006 8.44843 18.2631V18.2631Z" fill="url(#paint0_linear_1128_1245)"/>
<path d="M27 10.3399C26.9944 10.6658 26.9198 10.9732 26.8024 11.2725C25.3268 15.0322 23.8497 18.7912 22.3789 22.5528C22.0124 23.4899 21.1069 24.0736 20.1653 23.9923C19.0819 23.8989 18.2957 23.164 18.1081 22.1104C18.0328 21.6873 18.0766 21.2718 18.2333 20.872C19.7182 17.0817 21.2031 13.2913 22.6905 9.50194C23.053 8.5789 23.9734 7.98241 24.8932 8.06333C25.94 8.15544 26.7343 8.86227 26.9472 9.89693C26.9772 10.0418 26.9831 10.1921 27 10.3399V10.3399Z" fill="url(#paint1_linear_1128_1245)"/>
<path d="M9.53494 18.2366C9.16777 18.172 8.79967 18.1125 8.43438 18.038C8.37162 18.0252 8.29825 17.9593 8.2689 17.8982C7.25139 15.7742 6.22794 13.6531 5.22854 11.5198C4.5554 10.0828 5.43835 8.458 6.97726 8.25491C7.90298 8.13273 8.83058 8.66717 9.2502 9.55151C10.1219 11.3877 10.9989 13.221 11.8734 15.0555C11.9668 15.2516 12.062 15.4467 12.1497 15.645C12.1685 15.6872 12.1785 15.7521 12.1601 15.7899C11.8222 16.4817 11.4554 17.1562 10.9071 17.7022C10.5262 18.0815 10.1772 18.2005 9.53431 18.2369L9.53494 18.2366Z" fill="url(#paint2_linear_1128_1245)"/>
<defs>
<linearGradient id="paint0_linear_1128_1245" x1="13.8019" y1="8.00005" x2="13.8019" y2="23.9381" gradientUnits="userSpaceOnUse">
<stop offset="0.485336" stop-color="#FBCC5C"/>
<stop offset="1" stop-color="#39CF7C"/>
</linearGradient>
<linearGradient id="paint1_linear_1128_1245" x1="22.5361" y1="8.056" x2="22.5361" y2="23.9998" gradientUnits="userSpaceOnUse">
<stop offset="0.485336" stop-color="#FBCC5C"/>
<stop offset="1" stop-color="#39CF7C"/>
</linearGradient>
<linearGradient id="paint2_linear_1128_1245" x1="8.58494" y1="8.2376" x2="8.58494" y2="18.2369" gradientUnits="userSpaceOnUse">
<stop offset="0.485336" stop-color="#FBCC5C"/>
<stop offset="1" stop-color="#39CF7C"/>
</linearGradient>
</defs>
</svg>
