<svg width="32" height="32" viewBox="0 0 32 32" fill="none" xmlns="http://www.w3.org/2000/svg">
<path d="M16 32C24.8366 32 32 24.8366 32 16C32 7.16344 24.8366 0 16 0C7.16344 0 0 7.16344 0 16C0 24.8366 7.16344 32 16 32Z" fill="#212429"/>
<path d="M24.3262 12.0603C24.305 12.0603 24.284 12.0617 24.2633 12.0643H18.3205V5.66525C18.3205 4.52545 16.8528 4.07623 16.1951 4.9851L16.1949 4.98538L6.72041 18.0963L6.72011 18.0968C6.16014 18.8733 6.72725 19.9397 7.67381 19.9397H13.6795V26.3348C13.6795 27.4745 15.1472 27.9238 15.8049 27.0149L15.8051 27.0146L25.2796 13.9037L25.2799 13.9032C25.8399 13.1267 25.2728 12.0603 24.3262 12.0603Z" fill="#34A5F5" stroke="white" stroke-linejoin="round"/>
</svg>
