<svg width="15" height="15" viewBox="0 0 15 15" fill="none" xmlns="http://www.w3.org/2000/svg">
<circle cx="7.5" cy="7.5" r="7" stroke="#878787"/>
<path d="M5.25652 10.2152C4.59244 10.2152 4.06706 9.97392 3.68038 9.49132C3.2958 9.0063 3.10352 8.34182 3.10352 7.49788C3.10352 6.65636 3.29686 5.99431 3.68354 5.51171C4.07022 5.02669 4.59455 4.78418 5.25652 4.78418C5.61799 4.78418 5.94582 4.86663 6.24004 5.03154C6.53635 5.19645 6.77382 5.42926 6.95245 5.72997C7.13108 6.03069 7.23195 6.37384 7.25507 6.75943H6.3283C6.28417 6.43689 6.16333 6.17862 5.96579 5.98461C5.77035 5.7906 5.53393 5.6936 5.25652 5.6936C4.89716 5.6936 4.61031 5.85608 4.39595 6.18104C4.1816 6.50601 4.07442 6.94374 4.07442 7.49424C4.07442 8.05444 4.18055 8.49702 4.3928 8.82199C4.60505 9.14453 4.89401 9.3058 5.25968 9.3058C5.54128 9.3058 5.7777 9.21607 5.96894 9.03661C6.16018 8.85715 6.28102 8.61222 6.33145 8.3018H7.25822C7.20569 8.88625 6.99869 9.35187 6.63722 9.69867C6.27576 10.043 5.81553 10.2152 5.25652 10.2152Z" fill="#878787"/>
<path d="M8.95239 10.1243H8.04138V4.87512H8.83575L10.9604 8.29453H10.9856V4.87512H11.8966V10.1243H11.1085L8.98076 6.68668H8.95239V10.1243Z" fill="#878787"/>
</svg>
