<svg width="12" height="15" viewBox="0 0 12 15" fill="none" xmlns="http://www.w3.org/2000/svg">
<path fill-rule="evenodd" clip-rule="evenodd" d="M6.74788 6.22471C7.038 5.92906 7.51285 5.92457 7.8085 6.21468L11.1934 9.53624C11.5929 9.92824 11.5929 10.5718 11.1934 10.9638L7.8085 14.2853C7.51285 14.5754 7.038 14.5709 6.74788 14.2753C6.45777 13.9796 6.46226 13.5048 6.75791 13.2147L9.01486 11L1.75 11C1.33579 11 1 10.6642 1 10.25C1 9.83579 1.33579 9.5 1.75 9.5L9.01486 9.5L6.75791 7.28532C6.46226 6.99521 6.45777 6.52035 6.74788 6.22471Z" fill="white"/>
<path fill-rule="evenodd" clip-rule="evenodd" d="M5.17301 0.224706C4.8829 -0.0709421 4.40805 -0.0754305 4.1124 0.214681L0.727449 3.53624C0.327971 3.92824 0.327971 4.57176 0.727449 4.96376L4.1124 8.28532C4.40805 8.57543 4.8829 8.57094 5.17301 8.27529C5.46313 7.97965 5.45864 7.50479 5.16299 7.21468L2.90604 5L10.1709 5C10.5851 5 10.9209 4.66421 10.9209 4.25C10.9209 3.83579 10.5851 3.5 10.1709 3.5L2.90604 3.5L5.16299 1.28532C5.45864 0.995207 5.46313 0.520355 5.17301 0.224706Z" fill="white"/>
</svg>
