<svg width="13" height="11" viewBox="0 0 13 11" fill="none" xmlns="http://www.w3.org/2000/svg">
<path d="M6.5 1L6.5 10" stroke="#9A9AB0" stroke-width="1.2" stroke-linecap="round"/>
<path d="M1 5.0001C0.668629 5.0001 0.4 5.26873 0.4 5.6001C0.4 5.93147 0.668629 6.2001 1 6.2001V5.0001ZM4 5.0001H1V6.2001H4V5.0001Z" fill="#9A9AB0"/>
<path d="M8.5 5.0001C8.16863 5.0001 7.9 5.26873 7.9 5.6001C7.9 5.93147 8.16863 6.2001 8.5 6.2001V5.0001ZM11.5 5.0001H8.5V6.2001H11.5V5.0001Z" fill="#9A9AB0"/>
<path d="M2.5 3L4.29289 4.79289C4.68342 5.18342 4.68342 5.81658 4.29289 6.20711L2.5 8" stroke="#9A9AB0" stroke-width="1.2" stroke-linecap="round"/>
<path d="M10 3L11.7929 4.79289C12.1834 5.18342 12.1834 5.81658 11.7929 6.20711L10 8" stroke="#9A9AB0" stroke-width="1.2" stroke-linecap="round"/>
</svg>
