<svg width="14" height="15" viewBox="0 0 14 15" fill="none" xmlns="http://www.w3.org/2000/svg">
<path fill-rule="evenodd" clip-rule="evenodd" d="M9.27362 0.217371C8.97945 0.50899 8.97739 0.983859 9.26901 1.27802L11.2468 3.2731L7.3282 3.25172C6.77379 3.2487 6.32274 3.69729 6.32274 4.25171L6.32274 9.75031H2.82281L4.84344 7.71205C5.13505 7.41789 5.13299 6.94302 4.83883 6.6514C4.54467 6.35979 4.0698 6.36185 3.77818 6.65601L0.698078 9.76299C0.31164 10.1528 0.31164 10.7812 0.698077 11.171L3.77818 14.278C4.0698 14.5722 4.54467 14.5742 4.83883 14.2826C5.13299 13.991 5.13505 13.5161 4.84344 13.222L2.88883 11.2503H6.82274C7.37502 11.2503 7.82274 10.8026 7.82274 10.2503L7.82274 4.75444L11.2663 4.77323L9.26901 6.78795C8.97739 7.08211 8.97945 7.55698 9.27362 7.8486C9.56778 8.14021 10.0426 8.13815 10.3343 7.84399L13.4144 4.73701C13.8008 4.3472 13.8008 3.71877 13.4144 3.32896L10.3343 0.221979C10.0426 -0.0721841 9.56778 -0.0742469 9.27362 0.217371Z" fill="#878787"/>
</svg>
