<svg width="213" height="523" viewBox="0 0 213 523" fill="none" xmlns="http://www.w3.org/2000/svg">
<path d="M217.906 283.642V363.048L149.124 323.345L217.906 283.642Z" stroke="#4AA956"/>
<path d="M217.906 283.503V283.642L149.124 323.345H148.985V243.8L217.906 283.503Z" stroke="#4AA956"/>
<path d="M217.906 124.552V204.097L148.985 164.255L217.906 124.552Z" stroke="#4AA956"/>
<path d="M217.906 204.097L149.124 243.8H148.985V164.255L217.906 204.097Z" stroke="#4AA956"/>
<path d="M217.906 204.097V283.503L149.124 243.8L217.906 204.097Z" stroke="#4AA956"/>
<path d="M217.906 363.048V442.594L148.985 402.752L217.906 363.048Z" stroke="#4AA956"/>
<path d="M217.906 442.594L149.124 482.297H148.985V402.752L217.906 442.594Z" stroke="#4AA956"/>
<path d="M217.906 442.594V522L149.124 482.297L217.906 442.594Z" stroke="#4AA956"/>
<path d="M217.906 363.049L148.985 402.752V323.345H149.124L217.906 363.049Z" stroke="#4AA956"/>
<path d="M217.906 283.642V363.048L149.124 323.345L217.906 283.642Z" stroke="#4AA956"/>
<path d="M217.906 283.503V283.642L149.124 323.345H148.985V243.8L217.906 283.503Z" stroke="#4AA956"/>
<path d="M148.985 243.8V323.346L80.0645 283.504L148.985 243.8Z" stroke="#4AA956"/>
<path d="M148.985 323.346L80.2034 363.049H80.0645V283.504L148.985 323.346Z" stroke="#4AA956"/>
<path d="M217.906 283.503V283.642L149.124 323.345H148.985V243.8L217.906 283.503Z" stroke="#4AA956"/>
<path d="M80.0645 124.552V204.097L11.1436 164.255L80.0645 124.552Z" stroke="#4AA956"/>
<path d="M148.985 243.8L80.0645 283.503V204.097H80.2034L148.985 243.8Z" stroke="#4AA956"/>
<path d="M33.0983 243.8L1 262.402V225.337L33.0983 243.8Z" stroke="#4AA956"/>
<path d="M63.2974 105.415L41.3428 118.048V92.7824L63.2974 105.415Z" stroke="#4AA956"/>
<path d="M148.985 164.394V243.8L80.2031 204.097L148.985 164.394Z" stroke="#4AA956"/>
<path d="M148.985 164.255V164.394L80.2034 204.097H80.0645V124.552L148.985 164.255Z" stroke="#4AA956"/>
<path d="M80.0645 363.048V442.594L11.1436 402.752L80.0645 363.048Z" stroke="#4AA956"/>
<path d="M148.985 482.297L80.0645 522V442.594H80.2034L148.985 482.297Z" stroke="#4AA956"/>
<path d="M148.985 402.891V482.297L80.2031 442.594L148.985 402.891Z" stroke="#4AA956"/>
<path d="M148.985 402.752V402.89L80.2034 442.594H80.0645V363.048L148.985 402.752Z" stroke="#4AA956"/>
<path d="M148.985 243.8V323.345L80.0645 283.503L148.985 243.8Z" stroke="#4AA956"/>
<path d="M148.985 323.345L80.2034 363.049H80.0645V283.503L148.985 323.345Z" stroke="#4AA956"/>
<path d="M148.985 323.345V402.752L80.2031 363.049L148.985 323.345Z" stroke="#4AA956"/>
<path d="M217.906 363.049L148.985 402.752V323.345H149.124L217.906 363.049Z" stroke="#4AA956"/>
<path d="M217.906 283.503V283.642L149.124 323.345H148.985V243.8L217.906 283.503Z" stroke="#4AA956"/>
</svg>
