<svg width="370" height="462" viewBox="0 0 370 462" fill="none" xmlns="http://www.w3.org/2000/svg">
<path d="M-9.66016 230.649L-9.66016 154.144L56.68 192.397L-9.66016 230.649Z" stroke="#8EDF98"/>
<path d="M-9.66016 230.783V230.649L56.68 192.397V269.036L-9.66016 230.783Z" stroke="#8EDF98"/>
<path d="M-9.66016 383.927L-9.66016 307.288L56.68 345.674L-9.66016 383.927Z" stroke="#8EDF98"/>
<path d="M-9.66016 307.288L56.5463 269.036H56.68V345.675L-9.66016 307.288Z" stroke="#8EDF98"/>
<path d="M-9.66016 307.288L-9.66016 230.783L56.5463 269.036L-9.66016 307.288Z" stroke="#8EDF98"/>
<path d="M-9.66016 154.144L-9.66016 77.5051L56.68 115.891L-9.66016 154.144Z" stroke="#8EDF98"/>
<path d="M-9.66016 77.5053L56.5463 39.2527H56.68V115.892L-9.66016 77.5053Z" stroke="#8EDF98"/>
<path d="M-9.66016 77.5052L-9.66016 1L56.5463 39.2526L-9.66016 77.5052Z" stroke="#8EDF98"/>
<path d="M-9.66016 154.144L56.68 115.892V192.397L-9.66016 154.144Z" stroke="#8EDF98"/>
<path d="M-9.66016 230.649L-9.66016 154.144L56.68 192.397L-9.66016 230.649Z" stroke="#8EDF98"/>
<path d="M-9.66016 230.783V230.649L56.68 192.397V269.036L-9.66016 230.783Z" stroke="#8EDF98"/>
<path d="M56.6807 269.036V192.397L123.021 230.783L56.6807 269.036Z" stroke="#8EDF98"/>
<path d="M56.6807 192.397L122.887 154.144H123.021V230.783L56.6807 192.397Z" stroke="#8EDF98"/>
<path d="M-9.66016 230.783V230.649L56.68 192.397V269.036L-9.66016 230.783Z" stroke="#8EDF98"/>
<path d="M123.021 230.649V154.144L189.227 192.397L123.021 230.649Z" stroke="#8EDF98"/>
<path d="M123.021 230.783V230.649L189.227 192.397H189.361V269.036L123.021 230.783Z" stroke="#8EDF98"/>
<path d="M123.021 383.927V307.288L189.361 345.674L123.021 383.927Z" stroke="#8EDF98"/>
<path d="M123.021 307.288L189.227 269.036H189.361V345.675L123.021 307.288Z" stroke="#8EDF98"/>
<path d="M144.956 390.213L167.292 377.373V403.187L144.956 390.213Z" stroke="#8EDF98"/>
<path d="M123.021 307.288V230.783L189.227 269.036L123.021 307.288Z" stroke="#8EDF98"/>
<path d="M56.6807 269.036L123.021 230.783V307.288L56.6807 269.036Z" stroke="#8EDF98"/>
<path d="M56.6807 345.541V269.036L123.021 307.288L56.6807 345.541Z" stroke="#8EDF98"/>
<path d="M56.6807 422.313V422.18L123.021 383.927V460.7L56.6807 422.313Z" stroke="#8EDF98"/>
<path d="M123.021 154.144V77.5051L189.361 115.891L123.021 154.144Z" stroke="#8EDF98"/>
<path d="M123.021 77.5053L189.227 39.2527H189.361V115.892L123.021 77.5053Z" stroke="#8EDF98"/>
<path d="M123.021 77.5052V1L189.227 39.2526L123.021 77.5052Z" stroke="#8EDF98"/>
<path d="M56.6807 39.2526L123.021 1V77.5052L56.6807 39.2526Z" stroke="#8EDF98"/>
<path d="M56.6807 115.758V39.2527L123.021 77.5053L56.6807 115.758Z" stroke="#8EDF98"/>
<path d="M56.6807 115.891V115.758L123.021 77.5051V154.144L56.6807 115.891Z" stroke="#8EDF98"/>
<path d="M56.6807 269.036V192.397L123.021 230.783L56.6807 269.036Z" stroke="#8EDF98"/>
<path d="M56.6807 192.397L122.887 154.144H123.021V230.783L56.6807 192.397Z" stroke="#8EDF98"/>
<path d="M56.6807 192.397V115.892L122.887 154.144L56.6807 192.397Z" stroke="#8EDF98"/>
<path d="M-9.66016 154.144L56.68 115.892V192.397L-9.66016 154.144Z" stroke="#8EDF98"/>
<path d="M-9.66016 230.783V230.649L56.68 192.397V269.036L-9.66016 230.783Z" stroke="#8EDF98"/>
<path d="M123.021 154.144L189.361 115.892V192.397H189.227L123.021 154.144Z" stroke="#8EDF98"/>
<path d="M123.021 230.649V154.144L189.227 192.397L123.021 230.649Z" stroke="#8EDF98"/>
<path d="M123.021 230.783V230.649L189.227 192.397H189.361V269.036L123.021 230.783Z" stroke="#8EDF98"/>
<path d="M189.36 269.036V192.397L255.701 230.783L189.36 269.036Z" stroke="#8EDF98"/>
<path d="M189.36 192.397L255.567 154.144H255.701V230.783L189.36 192.397Z" stroke="#8EDF98"/>
<path d="M123.021 230.783V230.649L189.227 192.397H189.361V269.036L123.021 230.783Z" stroke="#8EDF98"/>
<path d="M255.701 230.649V154.144L321.908 192.397L255.701 230.649Z" stroke="#8EDF98"/>
<path d="M341.568 207.912V176.882L368.452 192.397L341.568 207.912Z" stroke="#8EDF98"/>
<path d="M255.701 383.927V307.288L322.041 345.674L255.701 383.927Z" stroke="#8EDF98"/>
<path d="M189.36 269.036L255.701 230.783V307.288H255.567L189.36 269.036Z" stroke="#8EDF98"/>
<path d="M189.36 345.541V269.036L255.567 307.288L189.36 345.541Z" stroke="#8EDF98"/>
<path d="M189.36 345.674V345.541L255.567 307.288H255.701V383.927L189.36 345.674Z" stroke="#8EDF98"/>
<path d="M255.701 154.144V77.5051L322.041 115.891L255.701 154.144Z" stroke="#8EDF98"/>
<path d="M189.36 39.2526L255.701 1V77.5052H255.567L189.36 39.2526Z" stroke="#8EDF98"/>
<path d="M189.36 115.758V39.2527L255.567 77.5053L189.36 115.758Z" stroke="#8EDF98"/>
<path d="M189.36 115.891V115.758L255.567 77.5051H255.701V154.144L189.36 115.891Z" stroke="#8EDF98"/>
<path d="M189.36 269.036V192.397L255.701 230.783L189.36 269.036Z" stroke="#8EDF98"/>
<path d="M189.36 192.397L255.567 154.144H255.701V230.783L189.36 192.397Z" stroke="#8EDF98"/>
<path d="M189.36 192.397V115.892L255.567 154.144L189.36 192.397Z" stroke="#8EDF98"/>
<path d="M123.021 154.144L189.361 115.892V192.397H189.227L123.021 154.144Z" stroke="#8EDF98"/>
<path d="M123.021 230.783V230.649L189.227 192.397H189.361V269.036L123.021 230.783Z" stroke="#8EDF98"/>
</svg>
