<svg width="23" height="23" viewBox="0 0 23 23" fill="none" xmlns="http://www.w3.org/2000/svg">
<path fill-rule="evenodd" clip-rule="evenodd" d="M18.3895 4.57657L18.3808 4.574C17.3794 4.27956 16.3568 3.8737 15.3756 3.48426L14.7544 3.23775L14.6335 2.74795C14.6297 2.73953 14.6138 2.70576 14.57 2.64647C14.503 2.55584 14.3863 2.42642 14.1935 2.26225L14.1854 2.25529C14.0713 2.156 13.8276 2.0462 13.3981 2.01613C12.9834 1.98709 12.4958 2.04062 12.0196 2.15767L11.9413 2.17691C12.8531 2.84583 13.4445 3.931 13.4445 5.1538C13.4445 7.16561 11.8339 8.83114 9.80084 8.83114C7.78367 8.83114 6.15722 7.18175 6.15722 5.1538C6.15722 4.05351 6.63895 3.05679 7.40809 2.37948C5.71196 2.98973 4.75273 3.72997 4.1787 4.50511C3.48821 5.43751 3.24354 6.56602 3.14593 7.99675L3.14503 8.0099L3.10478 8.5057C2.87516 11.3476 2.68413 13.7118 1.62856 16.3252C3.89464 19.5849 8.65835 22.0608 13.0958 21.3616C13.0748 19.3632 13.8448 17.4731 14.7975 15.883C15.5842 14.57 16.532 13.4012 17.371 12.4658C17.3608 12.4684 17.3507 12.471 17.3406 12.4737C16.4323 12.7093 15.3857 12.919 14.2879 12.8156C13.2392 12.7168 12.0007 12.3476 11.1533 11.369L10.548 10.6699L11.8032 9.39863L12.487 9.84386C13.0287 10.1965 13.6952 10.3476 14.4517 10.3763C15.2341 10.4056 16.0308 10.3374 16.8114 10.1797C17.6187 10.0078 18.4005 9.76657 19.1482 9.4477L19.1587 9.44325C19.1893 9.43059 19.2199 9.41794 19.2503 9.40516C18.3827 9.39875 17.6843 8.69362 17.6843 7.83073C17.6843 6.97752 18.3649 6.2454 19.2515 6.2454C20.1247 6.2454 20.8295 6.95304 20.8295 7.81989C20.8295 8.18229 20.7067 8.52285 20.4975 8.79474C20.7595 8.6409 21.006 8.4742 21.2335 8.28984L21.309 8.22865C21.6377 7.66833 21.7484 7.18051 21.6846 6.79565C21.5853 6.19721 20.9382 5.27574 18.3983 4.57898L18.3895 4.57657ZM22.4331 8.22092C22.3498 8.41468 22.2484 8.60891 22.1304 8.80275C22.0956 8.85999 22.0594 8.91719 22.0217 8.97434C21.9885 9.02471 21.9543 9.07505 21.9189 9.12532C21.9176 9.1272 21.9163 9.12908 21.915 9.13095C21.6144 9.55773 21.2379 9.98025 20.8034 10.3892C20.5239 10.6867 20.2339 10.9736 19.9594 11.2405C19.9563 11.2434 19.9533 11.2463 19.9503 11.2493C19.9423 11.257 19.9343 11.2648 19.9264 11.2725C19.9235 11.2753 19.9206 11.2781 19.9178 11.2809C19.9099 11.2885 19.902 11.2962 19.8941 11.3038C19.8286 11.3673 19.7641 11.4296 19.701 11.4906C19.6028 11.5855 19.508 11.6771 19.4179 11.765C19.2824 11.8971 19.1576 12.0208 19.0482 12.1344C17.0895 14.1613 13.5897 18.1286 14.1569 22.1717V22.1825C14.0997 22.1922 14.0404 22.204 13.9798 22.216C13.9045 22.231 13.8274 22.2464 13.7502 22.2584C8.53789 23.3423 2.89745 20.3181 0.5 16.4268C1.67657 13.7639 1.86536 11.4278 2.11344 8.35823L2.14825 7.92869C2.3516 4.94785 3.19714 2.47647 8.2061 1.07819C9.36202 0.796362 10.5607 0.893917 11.7809 1.18658C12.8833 0.915596 14.1569 0.904756 14.8419 1.50092C15.3128 1.90198 15.5376 2.238 15.6018 2.49815L15.7213 2.54555C16.7188 2.94148 17.7057 3.33317 18.6629 3.61461C22.4058 4.6414 23.2114 6.41051 22.4331 8.22092ZM18.8571 10.9155C18.9257 10.8874 18.9941 10.8587 19.0623 10.8295C19.2517 10.7483 19.4395 10.663 19.6257 10.5737C19.6255 10.5738 19.6258 10.5737 19.6257 10.5737C19.6263 10.5734 19.6273 10.5729 19.6279 10.5726C19.922 10.4257 20.2146 10.2714 20.5005 10.1046C20.508 10.1002 20.5155 10.0958 20.5231 10.0914C20.8467 9.90148 21.1616 9.69521 21.46 9.46479C21.6083 9.35027 21.7526 9.22978 21.8918 9.10238C21.8929 9.10137 21.894 9.10036 21.8951 9.09935L21.863 9.06683C21.4178 9.42759 20.9243 9.72174 20.4134 9.97487C20.4023 9.98038 20.3911 9.98587 20.38 9.99135C20.1034 10.1272 19.822 10.2513 19.5405 10.3676C19.5368 10.3691 19.5332 10.3707 19.5296 10.3722C19.5285 10.3727 19.5273 10.3732 19.5262 10.3736C19.4624 10.4007 19.3984 10.4273 19.3343 10.4534C18.5845 10.7577 17.8085 10.9901 17.0146 11.1588C17.0098 11.1598 17.0051 11.1608 17.0003 11.1617C16.1518 11.3325 15.2825 11.4074 14.4235 11.376C14.4203 11.3759 14.417 11.3757 14.4138 11.3756C13.5587 11.3431 12.693 11.1702 11.9445 10.6839C11.9435 10.6832 11.9425 10.6826 11.9414 10.6819L11.9093 10.7144C11.9114 10.7168 11.9135 10.7192 11.9156 10.7216C12.0038 10.8228 12.0989 10.9158 12.1998 11.0013C12.2857 11.074 12.3757 11.1411 12.4693 11.2031C13.0266 11.5722 13.7098 11.7567 14.3817 11.82C14.3867 11.8205 14.3918 11.821 14.3969 11.8214C14.3968 11.8214 14.3969 11.8214 14.3969 11.8214C15.3105 11.9047 16.2137 11.7326 17.0851 11.5068C17.0862 11.5066 17.0873 11.5063 17.0884 11.506C17.0888 11.5059 17.0891 11.5058 17.0895 11.5057C17.694 11.3489 18.2832 11.151 18.8571 10.9155ZM9.80084 7.83114C8.34524 7.83114 7.15722 6.6388 7.15722 5.1538C7.15722 3.67964 8.33454 2.47647 9.80084 2.47647C11.2564 2.47647 12.4445 3.6688 12.4445 5.1538C12.4445 6.62796 11.2671 7.83114 9.80084 7.83114ZM19.8295 7.81989C19.8295 8.14507 19.5726 8.40521 19.2622 8.40521C18.9411 8.40521 18.6843 8.14507 18.6843 7.83073C18.6843 7.50554 18.9411 7.2454 19.2515 7.2454C19.5726 7.2454 19.8295 7.50554 19.8295 7.81989Z" fill="white"/>
</svg>
