<svg width="22" height="21" viewBox="0 0 22 21" fill="none" xmlns="http://www.w3.org/2000/svg">
<path opacity="0.6" fill-rule="evenodd" clip-rule="evenodd" d="M19.5884 10.5466C19.6331 11.464 19.3316 12.1933 18.7603 12.5488C18.3885 12.7803 17.9508 12.809 17.6181 12.6241C17.1954 12.389 16.963 11.8384 16.963 11.0726V8.78159C16.963 7.8209 16.6283 7.10082 16.054 6.78869C15.967 6.74137 15.8744 6.70342 15.7767 6.67544C15.7011 6.65375 15.6267 6.63884 15.5534 6.63009C14.4076 6.49315 13.5519 7.86379 13.2173 8.39971L10.9979 11.9449V7.61276C10.9739 6.65338 10.6686 6.06508 10.0895 5.86202C10.0669 5.85411 10.0439 5.84679 10.0206 5.84005C10.0126 5.83775 10.0045 5.83551 9.99638 5.83335C9.58389 5.72338 8.97855 5.78635 8.39021 6.67339L3.41912 14.5376C3.22952 14.183 3.06577 13.8169 2.92858 13.4421C2.58424 12.5014 2.40719 11.506 2.40848 10.5C2.40848 5.76271 6.26183 1.90895 10.9979 1.90895C15.734 1.90895 19.5869 5.76271 19.5869 10.5C19.5869 10.5047 19.5876 10.5091 19.5882 10.5135C19.5887 10.5166 19.5892 10.5198 19.5895 10.523C19.5895 10.5266 19.5892 10.5299 19.5889 10.5333C19.5885 10.5376 19.5881 10.542 19.5884 10.5466ZM1.40848 10.4987C1.40848 10.4985 1.40848 10.4989 1.40848 10.4987L1.5 10.4988L1.40848 10.4987ZM16.8372 16.8C16.9286 16.7149 17.0362 16.6487 17.1539 16.6052C17.2715 16.5616 17.3968 16.5417 17.5224 16.5464C17.648 16.5512 17.7714 16.5806 17.8853 16.6329C17.9992 16.6853 18.1014 16.7595 18.1858 16.8512C18.5445 17.2374 18.5216 17.8413 18.1348 18.1998C16.1889 20.0053 13.654 21 10.9979 21C5.20959 21 0.5 16.2893 0.5 10.5C0.5 4.71015 5.20959 0 10.9974 0C16.7702 0 21.4683 4.68351 21.4948 10.4529L21.4953 10.4764V10.5005C21.5608 12.1098 20.9333 13.4451 19.7688 14.1699C18.8081 14.7671 17.629 14.8142 16.6911 14.2928C15.6509 13.7145 15.054 12.5406 15.054 11.0726V9.08122C14.9875 9.17597 14.9147 9.28559 14.8357 9.41261L12.3699 13.3509C11.6567 14.492 10.9725 14.7298 10.4649 14.681C10.3801 14.6729 10.3002 14.6567 10.2259 14.6355C10.1513 14.6141 10.0746 14.5852 9.99793 14.5469C9.54238 14.3187 9.08945 13.7532 9.08945 12.409V9.13961L4.60653 16.2315C6.1802 17.9852 8.46196 19.091 10.9979 19.091C13.1702 19.0914 15.2599 18.2715 16.8372 16.8Z" fill="white"/>
</svg>
