<svg width="23" height="17" viewBox="0 0 23 17" fill="none" xmlns="http://www.w3.org/2000/svg">
<path fill-rule="evenodd" clip-rule="evenodd" d="M18.9145 12.6195C18.1434 13.1264 17.4109 13.4903 16.7555 13.7372C16.2713 13.9452 15.7973 14.115 15.3301 14.2522C14.8921 14.3807 14.4601 14.4805 14.0311 14.556C14.0153 14.5589 13.9996 14.5619 13.9838 14.5648C12.2029 14.8923 10.5617 14.8006 9.16051 14.543C9.12845 14.5367 9.09651 14.5304 9.06471 14.524C8.59566 14.4294 8.15448 14.3174 7.74226 14.1948C7.25249 14.0492 6.80362 13.8885 6.39753 13.7242C5.96059 13.5553 5.49796 13.3473 5.02247 13.0744C4.99676 13.0549 4.96785 13.0419 4.93893 13.0289C4.91002 13.0159 4.8811 13.0029 4.8554 12.9834C4.83247 12.9757 4.81863 12.9633 4.80577 12.9519C4.79701 12.9441 4.78871 12.9367 4.7783 12.9314C4.44417 12.7365 4.2514 12.6065 4.2514 12.6065L3.39073 13.1157L4.81012 11.7776C4.81035 11.7773 4.81013 11.7776 4.81012 11.7776L4.81362 11.7795L4.834 11.7929C4.85319 11.8054 4.8834 11.825 4.92384 11.8506C5.00303 11.9006 5.12114 11.9735 5.27221 12.0618C5.28174 12.0672 5.29094 12.0726 5.2998 12.0779L5.3296 12.088L5.39655 12.1387C5.41072 12.1455 5.42681 12.1534 5.44333 12.162C5.47329 12.1776 5.51077 12.1984 5.55241 12.2254C5.9637 12.459 6.36778 12.6405 6.75819 12.7915L6.76538 12.7943L6.77254 12.7972C7.49038 13.0876 8.35235 13.3662 9.34657 13.5604C10.6631 13.802 12.1929 13.8837 13.8465 13.5732L13.8578 13.571C14.6692 13.4283 15.4944 13.1905 16.3609 12.8184L16.3817 12.8094L16.4029 12.8014C16.986 12.5817 17.6528 12.2521 18.3652 11.7839L19.7714 13.135L18.9145 12.6195ZM4.70927 13.1761C4.69713 13.1634 4.68526 13.1508 4.67364 13.1384C4.67031 13.1348 4.66701 13.1313 4.66373 13.1278C4.37839 12.8212 4.2514 12.6065 4.2514 12.6065C3.39073 13.1157 3.39049 13.1153 3.39073 13.1157L3.39281 13.1192L3.39525 13.1232L3.4012 13.133L3.41748 13.1591C3.4303 13.1794 3.4471 13.2052 3.46803 13.2359C3.50988 13.2974 3.56838 13.3789 3.64483 13.4756C3.79761 13.6689 4.02292 13.9239 4.33116 14.2012C4.72331 14.554 5.24809 14.9413 5.92427 15.2825C5.92342 15.2835 5.92258 15.2846 5.92173 15.2856C5.89038 15.3244 5.86021 15.3617 5.83145 15.3972C4.25553 15.2493 3.17129 14.6709 2.47291 14.1285C2.08472 13.827 1.8106 13.5322 1.63771 13.3198C1.60585 13.2806 1.57752 13.2444 1.55263 13.2116C1.59552 10.4125 2.22093 7.86994 2.85347 5.99784C3.18024 5.0307 3.50639 4.2499 3.74906 3.7143C3.78983 3.62432 3.82821 3.54132 3.86381 3.46558L4.28263 4.02645C4.28264 4.02645 4.28311 4.02731 4.28263 4.02645L4.28382 4.02691L4.29374 4.02137C4.30343 4.01598 4.3192 4.00727 4.34082 3.99554C4.38405 3.97208 4.45059 3.93656 4.53843 3.89139C4.71408 3.80107 4.97423 3.6725 5.30306 3.52468C7.19246 2.67965 8.68551 2.45733 9.23958 2.41338L9.2559 2.41209L9.27218 2.41026C9.32326 2.40452 9.3679 2.39774 9.40209 2.39224L9.47723 2.37989C9.48458 2.37873 9.48975 2.37798 9.49312 2.37752H9.54965L9.61689 2.36835C10.6846 2.22277 11.8981 2.18634 13.1576 2.33187C14.827 2.52624 16.6148 3.02334 18.4439 4.03343L19.0544 3.20406C19.1192 3.33569 19.2033 3.51139 19.3012 3.7273C19.5438 4.2629 19.87 5.0437 20.1968 6.01084C20.8291 7.88252 21.4544 10.4244 21.4976 13.2227C21.4744 13.2527 21.4483 13.2856 21.4192 13.321C21.2461 13.5314 20.9702 13.8251 20.5795 14.1256C19.8754 14.6671 18.7833 15.2439 17.2032 15.3861C17.1865 15.3657 17.1692 15.3447 17.1516 15.3232C17.8493 14.9846 18.3917 14.5948 18.7975 14.2379C19.1165 13.9572 19.35 13.6979 19.5084 13.5011C19.5876 13.4027 19.6482 13.3197 19.6915 13.2571C19.7132 13.2258 19.7306 13.1995 19.7438 13.179L19.7606 13.1525L19.7668 13.1426L19.7693 13.1385L19.7714 13.135C19.7716 13.1345 19.7714 13.135 18.9145 12.6195C18.9145 12.6195 18.3619 13.5381 16.9897 14.2825C16.9817 14.2868 16.9738 14.2911 16.9658 14.2954C16.8204 14.3735 16.6658 14.4497 16.5019 14.5225C16.2028 14.6555 15.8725 14.7775 15.5089 14.8809C15.585 14.9771 15.6632 15.0752 15.7415 15.1729C15.8928 15.3615 16.0446 15.5488 16.183 15.7185C16.5057 16.1142 16.7555 16.4145 16.7555 16.4145C19.082 16.3416 20.6092 15.44 21.4999 14.6638C21.6975 14.4916 21.8637 14.3257 22.0004 14.1763C22.3407 13.8045 22.4981 13.5354 22.5 13.5293C22.5 13.2224 22.4931 12.9183 22.4802 12.6177C22.2348 6.92254 19.7883 2.44324 19.7883 2.44324C19.4075 2.15483 19.0295 1.90795 18.6609 1.69663C16.4055 0.403364 14.5066 0.441773 14.5066 0.441773L14.2495 0.740692C14.3391 0.768458 14.4274 0.796574 14.5143 0.824996C14.7734 0.909737 15.0207 0.99721 15.2562 1.08632C16.5784 1.58661 17.5301 2.13836 18.1327 2.54659C18.6674 2.90882 18.9273 3.15804 18.9273 3.15804C17.2477 2.23048 15.5965 1.70652 14.031 1.44569C13.776 1.40318 13.5231 1.36767 13.2729 1.33853C13.0467 1.3124 12.8221 1.29174 12.5993 1.27619C11.7526 1.21706 10.9338 1.23174 10.1693 1.30006C9.93475 1.32103 9.70533 1.34704 9.48179 1.37752C9.40815 1.37752 9.34494 1.38806 9.27887 1.39907C9.24117 1.40535 9.20254 1.41179 9.16051 1.41651C9.10071 1.42125 9.03298 1.42762 8.95776 1.43596C8.20863 1.51897 6.71579 1.79726 4.89395 2.61219C4.72968 2.68603 4.58124 2.7555 4.45036 2.81853C4.31122 2.88553 4.19192 2.94525 4.0945 2.99522C3.94135 3.07376 3.84226 3.12818 3.80518 3.14883C3.7943 3.15489 3.78876 3.15804 3.78876 3.15804C3.78876 3.15804 3.79331 3.15367 3.80246 3.14524C3.83715 3.11326 3.93789 3.02297 4.10713 2.89163C4.27238 2.76339 4.50294 2.596 4.80108 2.40556C4.80119 2.40548 4.80096 2.40563 4.80108 2.40556C5.48778 1.96694 6.53322 1.40584 7.96445 0.919047C8.14911 0.856239 8.3402 0.794665 8.53778 0.734745C8.60328 0.71488 8.66949 0.695196 8.73643 0.67571L8.54366 0.441773C8.54366 0.441773 6.39 0.398429 3.96114 1.94432C3.75603 2.07486 3.54897 2.21674 3.34107 2.37093C3.31468 2.3905 3.28828 2.41027 3.26187 2.43024C3.26187 2.43024 3.24027 2.46978 3.20093 2.54616C3.2009 2.54623 3.20097 2.5461 3.20093 2.54616C3.19786 2.55213 3.19457 2.55853 3.19128 2.56495C2.76479 3.39712 0.550293 7.98437 0.550293 13.5163C0.550293 13.5163 2.13097 16.2845 6.28187 16.4275C6.28187 16.4275 6.5455 16.1066 6.88019 15.6899C7.02419 15.5106 7.18133 15.3136 7.3363 15.1169C7.40552 15.029 7.4743 14.9411 7.54128 14.8549C7.18254 14.7457 6.85739 14.6186 6.56381 14.4815C6.42923 14.4186 6.30128 14.3536 6.17978 14.2873C6.17704 14.2858 6.17429 14.2843 6.17156 14.2828C5.60303 13.9715 5.17616 13.6306 4.8711 13.3381C4.86162 13.329 4.85226 13.32 4.84302 13.311C4.81765 13.2863 4.79316 13.262 4.76955 13.2381C4.74879 13.2171 4.7287 13.1964 4.70927 13.1761ZM5.10196 9.6433C5.10196 8.03096 6.30593 6.53787 8.01677 6.53787C9.71637 6.53787 10.9469 8.01938 10.9316 9.64894C10.9288 11.2591 9.72561 12.7487 8.01677 12.7487C6.32291 12.7487 5.10196 11.2602 5.10196 9.6433ZM9.93157 9.6433C9.93157 10.8 9.0834 11.7487 8.01677 11.7487C6.96298 11.7487 6.10196 10.8 6.10196 9.6433C6.10196 8.48661 6.95013 7.53787 8.01677 7.53787C9.0834 7.53787 9.94443 8.48661 9.93157 9.6433ZM11.9644 9.6433C11.9644 8.03096 13.1684 6.53787 14.8792 6.53787C16.5901 6.53787 17.794 8.03096 17.794 9.6433C17.794 11.2556 16.5901 12.7487 14.8792 12.7487C13.1854 12.7487 11.9644 11.2602 11.9644 9.6433ZM12.9644 9.6433C12.9644 8.48661 13.8126 7.53787 14.8792 7.53787C15.9459 7.53787 16.794 8.48661 16.794 9.6433C16.794 10.8 15.9459 11.7487 14.8792 11.7487C13.8254 11.7487 12.9644 10.8 12.9644 9.6433Z" fill="white"/>
</svg>
