<svg width="21" height="17" viewBox="0 0 21 17" fill="none" xmlns="http://www.w3.org/2000/svg">
<g>
<path fill-rule="evenodd" clip-rule="evenodd" d="M2.47254 1.08398C1.66207 1.08398 1 1.74587 1 2.56223V13.8132C1 14.6296 1.66207 15.2915 2.47254 15.2915H17.5368C18.3476 15.2915 19.0094 14.6293 19.0094 13.8151V2.56223C19.0094 1.74587 18.3473 1.08398 17.5368 1.08398H2.47254ZM0 2.56223C0 1.1963 1.10707 0.0839844 2.47254 0.0839844H17.5368C18.9023 0.0839844 20.0094 1.1963 20.0094 2.56223V13.8151C20.0094 15.1795 18.902 16.2915 17.5368 16.2915H2.47254C1.10707 16.2915 0 15.1792 0 13.8132V2.56223Z" fill="white"/>
<path d="M9.69114 9.45507C9.27806 9.45507 8.86435 9.30963 8.52659 9.01621L1.32335 2.81329C1.0986 2.62045 1.06972 2.27641 1.25806 2.04641C1.4464 1.81641 1.78289 1.7863 2.00764 1.97914L9.21026 8.18463C9.48711 8.42423 9.8889 8.42423 10.1658 8.18463L17.3684 1.97914C17.5937 1.78438 17.9296 1.81641 18.1179 2.04641C18.3063 2.27641 18.2774 2.62045 18.0527 2.81329L10.8538 9.01813C10.5173 9.30963 10.1042 9.45507 9.69114 9.45507Z" fill="white"/>
</g>
</svg>
