<svg width="154" height="182" viewBox="0 0 154 182" fill="none" xmlns="http://www.w3.org/2000/svg">
<path fill-rule="evenodd" clip-rule="evenodd" d="M130.074 46.0324C146.334 62.364 153.813 80.6553 153.813 104.173C153.813 149.901 120.752 181.693 73.3836 181.693H26.9905L0 154.583V-0.0226501H47.2604C72.6249 -0.0226501 93.9787 9.12304 108.504 24.4747L130.074 46.0324ZM25.5813 24.3658H25.2561V29.8097L48.3443 52.7828V47.23L25.5813 24.3658ZM52.2465 46.4679L30.2423 24.3658H27.0989L49.1031 46.4679H52.2465ZM59.9426 46.4679L37.9383 24.3658H31.7599L53.7641 46.4679H59.9426ZM47.5855 24.3658H39.4559L61.4601 46.4679H69.5898L47.5855 24.3658ZM77.5026 46.5768L55.9319 24.9102C53.6556 24.5836 51.4878 24.4747 49.1031 24.3658L71.1073 46.4679H73.3836C74.7927 46.4679 76.2019 46.4679 77.5026 46.5768ZM84.4399 47.3389L63.4112 26.2167C61.5685 25.7812 59.6174 25.4546 57.6662 25.128L79.1286 46.6857C80.9713 46.7945 82.8139 47.1212 84.4399 47.3389ZM90.7268 48.8632L70.2402 28.2854C68.7226 27.741 67.0967 27.1966 65.4708 26.7611L86.391 47.7744C87.9085 48.1011 89.3177 48.4277 90.7268 48.8632ZM93.1115 49.6253C94.5207 50.2786 96.0382 50.9319 97.3389 51.5851L77.3942 31.5517C75.985 30.7896 74.4676 30.0274 72.95 29.3742L93.1115 49.6253ZM25.2561 72.8162L29.1583 76.7357L28.2912 77.6068L25.2561 74.5582V131.61H48.3443V54.307L25.2561 31.5517V36.8867L47.152 58.771L46.2848 59.5332L25.2561 38.5199V43.9637L43.4665 62.3639L42.7077 63.235L25.2561 45.5969V51.1496L39.8894 65.9569L39.1307 66.8279L25.2561 52.7828V58.3355L36.3124 69.5498L35.5537 70.4209L25.2561 59.9687V65.6303L32.7354 73.1428L31.8682 74.0138L25.2561 67.2634V72.8162ZM95.6047 48.3188C91.9192 42.5483 87.0414 37.6488 81.188 33.8382L95.6047 48.3188ZM127.906 48.2099L119.126 39.1731C124.98 50.1697 128.774 63.7794 128.774 77.9334C128.774 79.4577 128.774 80.9819 128.665 82.3973L150.778 104.717V104.173C150.778 81.4175 143.407 64.2149 127.906 48.2099ZM51.3794 131.501C82.9224 129.759 103.301 108.963 103.301 77.9334C103.301 69.8765 101.892 62.4728 99.2901 55.9402C92.678 51.3674 85.0903 49.5165 73.3836 49.5165H51.3794V131.501ZM124.113 105.915L147.092 128.997C149.26 121.92 150.561 114.298 150.778 106.241L128.557 83.9216C128.015 91.7608 126.497 99.0556 124.113 105.915ZM146.659 130.086L123.679 107.004C121.619 112.447 119.018 117.565 115.874 122.138L139.288 145.655C142.323 140.864 144.816 135.638 146.659 130.086ZM129.749 157.414C133.109 154.147 136.036 150.446 138.638 146.526L115.333 123.117C112.623 126.928 109.588 130.521 106.119 133.678L129.749 157.414ZM95.8214 141.844L119.56 165.688C122.92 163.402 126.064 160.898 128.99 158.176L105.36 134.441C102.434 137.163 99.29 139.667 95.8214 141.844ZM85.4154 147.615L109.154 171.459C112.406 169.935 115.549 168.193 118.584 166.342L94.8458 142.498C91.9192 144.457 88.7757 146.09 85.4154 147.615ZM75.2263 151.425L98.8565 175.161C102 174.29 105.143 173.092 108.07 171.894L84.3315 148.05C81.4049 149.357 78.3698 150.554 75.2263 151.425ZM65.3623 153.821L88.8841 177.447C91.9192 176.903 94.8458 176.249 97.6641 175.487L74.1423 151.861C71.3241 152.623 68.3974 153.276 65.3623 153.821ZM63.9532 154.039C61.3517 154.583 58.6418 154.91 55.9319 155.127L79.2369 178.427C82.0552 178.318 84.7651 177.991 87.475 177.665L63.9532 154.039ZM70.2402 178.645H73.3836C74.9011 178.645 76.3103 178.645 77.7194 178.536L54.5228 155.236C52.1381 155.345 49.7535 155.454 47.2604 155.454H47.152L70.2402 178.645ZM5.20298 155.454L28.2912 178.645H29.8087L6.82895 155.454H5.20298ZM8.34651 155.454L31.4346 178.645H33.3857L10.2975 155.454H8.34651ZM11.8151 155.454L34.9033 178.645H37.3964L14.3082 155.454H11.8151ZM15.8258 155.454L38.9139 178.645H42.0574L18.9692 155.454H15.8258ZM20.4868 155.454L43.5749 178.645H47.3687L24.2806 155.454H20.4868ZM25.7981 155.454L48.8863 178.645H53.4388L30.3507 155.454H25.7981ZM31.9766 155.454L55.0648 178.645H60.5929L37.5047 155.454H31.9766ZM39.0223 155.454L62.1105 178.645H68.7226L45.526 155.454H39.0223ZM273.156 131.828L300.147 158.938V181.693H195.87L168.88 154.583V-0.0226501H270.013L297.003 27.0878V48.5366H220.151L220.042 64.106H257.656L284.646 91.2164V113.101H220.042V131.828H273.156ZM293.968 28.3943L270.88 5.20346V23.3859L293.968 45.488V28.3943ZM219.284 45.488L196.304 23.3859H194.678L217.658 45.488H219.284ZM223.62 45.488L200.531 23.3859H197.93L220.91 45.488H223.62ZM229.039 45.488L205.951 23.3859H202.157L225.245 45.488H229.039ZM235.543 45.488L212.563 23.3859H207.577L230.665 45.488H235.543ZM244.215 45.488L221.018 23.3859H214.189L237.169 45.488H244.215ZM252.886 45.488L229.69 23.3859H222.752L245.841 45.488H252.886ZM261.883 45.488L238.795 23.3859H231.424L254.512 45.488H261.883ZM270.555 45.488L247.683 23.3859H240.421L263.509 45.488H270.555ZM278.142 45.488L255.162 23.3859H249.201L272.289 45.488H278.142ZM284.646 45.488L261.666 23.3859H256.68L279.877 45.488H284.646ZM288.982 45.488L266.11 23.3859H263.184L286.38 45.488H288.982ZM292.234 45.488L269.362 23.3859H267.628L290.716 45.488H292.234ZM193.919 55.1781L199.231 60.2953L198.363 61.0574L193.919 56.8112V64.106H217.007V46.359L193.919 24.257V28.8298L213.972 48.1011L212.997 48.7543L193.919 30.463V35.4713L210.287 51.1496L209.311 51.9118L193.919 36.9956V42.0039L206.602 54.1982L205.626 54.9603L193.919 43.6371V48.6454L202.916 57.2467L202.049 58.0089L193.919 50.1697V55.1781ZM258.523 69.3321V87.9501H258.414L281.611 110.052V92.5229L258.523 69.3321ZM217.766 110.052H219.717L196.629 87.9501H194.678L217.766 110.052ZM198.255 87.9501L221.343 110.052H225.137L202.157 87.9501H198.255ZM203.783 87.9501L226.763 110.052H232.725L209.528 87.9501H203.783ZM211.262 87.9501L234.351 110.052H242.48L219.5 87.9501H211.262ZM252.886 110.052L230.015 87.9501H221.126L244.106 110.052H252.886ZM263.292 110.052L240.204 87.9501H231.532L254.621 110.052H263.292ZM270.771 110.052L247.9 87.9501H241.83L264.918 110.052H270.771ZM276.191 110.052L253.211 87.9501H249.418L272.506 110.052H276.191ZM254.729 87.9501L277.926 110.052H279.877L256.897 87.9501H254.729ZM193.919 126.601L196.738 129.323L195.87 130.194L193.919 128.344V131.828H217.007V110.814L193.919 88.7122V93.5028L213.972 112.883L213.214 113.645L193.919 95.136V100.253L210.612 116.258L209.745 117.02L193.919 101.777V106.786L207.143 119.524L206.276 120.287L193.919 108.419V113.427L203.675 122.791L202.808 123.553L193.919 115.06V120.069L200.206 126.057L199.339 126.819L193.919 121.593V126.601ZM274.023 137.054V155.454L297.111 178.645V160.245L274.023 137.054ZM184.597 155.454H174.083L197.171 178.645H207.685L184.597 155.454ZM195.545 155.454H186.115L209.203 178.645H218.742L195.545 155.454ZM197.063 155.454L220.259 178.645H228.714L205.518 155.454H197.063ZM207.035 155.454L230.232 178.645H237.711L214.623 155.454H207.035ZM222.752 155.454H216.14L239.228 178.645H245.949L222.752 155.454ZM253.32 178.645L230.232 155.454H224.27L247.467 178.645H253.32ZM231.749 155.454L254.837 178.645H260.04L236.952 155.454H231.749ZM238.47 155.454L261.558 178.645H266.219L243.022 155.454H238.47ZM244.54 155.454L267.736 178.645H271.747L248.55 155.454H244.54ZM250.068 155.454L273.265 178.645H276.733L253.537 155.454H250.068ZM255.054 155.454L278.251 178.645H281.286L258.089 155.454H255.054ZM259.607 155.454L282.803 178.645H285.405L262.208 155.454H259.607ZM263.726 155.454L286.922 178.645H289.09L266.002 155.454H263.726ZM267.52 155.454L290.608 178.645H292.559L269.362 155.454H267.52ZM270.88 155.454L294.076 178.645H295.594L272.397 155.454H270.88ZM444.854 49.4076H364.967V69.3321H404.423L431.413 96.4425V118.653H364.967V181.693H340.903L313.913 154.583V-0.0226501H417.864L444.854 27.0878V49.4076ZM418.731 5.20346V24.257L441.711 46.359H441.819V28.3943L418.731 5.20346ZM362.582 46.359H364.317L341.229 24.257H339.711L362.582 46.359ZM368.544 46.359L345.348 24.257H342.963L365.834 46.359H368.544ZM374.072 46.359L350.876 24.257H347.082L370.062 46.359H374.072ZM381.118 46.359L358.03 24.257H352.61L375.59 46.359H381.118ZM390.874 46.359L367.785 24.257H359.764L382.635 46.359H390.874ZM400.196 46.359L377.107 24.257H369.411L392.499 46.359H400.196ZM410.385 46.359L387.296 24.257H378.733L401.821 46.359H410.385ZM420.032 46.359L397.052 24.257H388.814L412.011 46.359H420.032ZM427.186 46.359L404.098 24.257H398.678L421.658 46.359H427.186ZM432.714 46.359L409.626 24.257H405.724L428.812 46.359H432.714ZM436.833 46.359L413.853 24.257H411.252L434.34 46.359H436.833ZM415.479 24.257L438.459 46.359H440.085L417.105 24.257H415.479ZM338.844 69.3321H361.932V47.23L338.844 25.0191V28.7209L359.439 48.6454L358.68 49.4076L338.844 30.3541V35.3624L356.079 52.0206L355.212 52.8916L338.844 36.9956V42.0039L352.718 55.3958L351.851 56.2668L338.844 43.6371V48.6454L349.358 58.771L348.599 59.5332L338.844 50.1697V55.2869L345.998 62.1462L345.239 62.9083L338.844 56.8112V61.8196L342.638 65.5214L341.879 66.2835L338.844 63.3438V69.3321ZM405.29 74.5582V93.5028L428.378 115.605V97.749L405.29 74.5582ZM339.494 93.5028L362.474 115.605H364.642L341.554 93.5028H339.494ZM343.18 93.5028L366.159 115.605H369.845L346.865 93.5028H343.18ZM348.491 93.5028L371.362 115.605H378.191L354.995 93.5028H348.491ZM356.621 93.5028L379.709 115.605H388.164L365.184 93.5028H356.621ZM366.81 93.5028L389.681 115.605H399.437L376.565 93.5028H366.81ZM378.083 93.5028L401.063 115.605H409.626L386.538 93.5028H378.083ZM388.055 93.5028L411.252 115.605H417.756L394.884 93.5028H388.055ZM396.402 93.5028L419.381 115.605H423.067L400.087 93.5028H396.402ZM401.605 93.5028L424.693 115.605H426.752L403.772 93.5028H401.605ZM338.844 155.454L361.932 178.645V116.149L361.715 116.367L338.844 94.4827V98.0756L359.547 118.109L358.789 118.871L338.844 99.7088V104.717L356.187 121.484L355.32 122.355L338.844 106.35V111.359L352.827 124.859L351.96 125.73L338.844 112.992V118L349.467 128.235L348.708 128.997L338.844 119.524V124.642L346.106 131.61L345.348 132.372L338.844 126.166V131.283L342.746 134.985L341.987 135.747L338.844 132.699V155.454ZM319.116 155.454L342.204 178.645H346.648L323.668 155.454H319.116ZM329.088 155.454H325.186L348.274 178.645H352.176L329.088 155.454ZM330.606 155.454L353.802 178.645H356.621L333.641 155.454H330.606ZM335.158 155.454L358.247 178.645H360.306L337.326 155.454H335.158ZM481.058 -0.0226501L508.049 27.0878V181.693H483.552L456.561 154.583V-0.0226501H481.058ZM481.926 6.94549L505.014 30.1363V28.3943L481.926 5.20346V6.94549ZM481.926 11.6272L505.014 34.818V31.7695L481.926 8.57864V11.6272ZM481.926 18.051L505.014 41.2418V36.3423L481.926 13.1515V18.051ZM481.926 27.0878L505.014 50.2786V42.8749L481.926 19.6841V27.0878ZM481.926 39.3909L505.014 62.5817V51.8029L481.926 28.612V39.3909ZM481.926 56.3757L505.014 79.5665V64.106L481.926 40.9152V56.3757ZM481.926 155.454L505.014 178.645V81.0908L481.926 57.9V155.454ZM466.75 155.454H461.764L484.852 178.645H489.73L466.75 155.454ZM495.258 178.645L472.17 155.454H468.268L491.356 178.645H495.258ZM473.688 155.454L496.884 178.645H499.702L476.723 155.454H473.688ZM478.24 155.454L501.328 178.645H503.388L480.408 155.454H478.24ZM716.71 36.669C727.224 47.1212 732.21 58.9888 732.21 73.6872C732.21 104.173 709.014 126.384 676.82 126.384H649.288V181.693H624.899L597.909 154.583V-0.0226501H652.54C671.617 -0.0226501 686.901 6.83661 695.139 15.1113L716.71 36.669ZM623.165 62.0373L625.441 64.3238L624.574 65.1948L623.165 63.7794V78.9133H645.169V45.3791L623.165 23.2771V27.9588L642.134 47.4478L641.375 48.2099L623.165 29.7008V34.9269L638.774 50.823L638.015 51.5851L623.165 36.5601V41.6773L635.522 54.1982L634.655 54.9603L623.165 43.3105V48.4277L632.162 57.5734L631.294 58.3355L623.165 50.0608V55.1781L628.801 60.9486L627.934 61.7107L623.165 56.9201V62.0373ZM647.879 44.2903L627.067 23.2771H624.682L645.711 44.3992L646.687 44.2903H647.879ZM652.757 44.2903L631.836 23.2771H628.584L649.505 44.2903H652.757ZM658.935 44.2903L638.015 23.2771H633.354L654.274 44.2903H658.935ZM666.089 44.2903L645.169 23.2771H639.532L660.453 44.2903H666.089ZM652.973 23.2771H646.687L667.607 44.2903H673.894L652.973 23.2771ZM680.072 44.2903L659.802 23.9303C658.176 23.6037 656.334 23.4948 654.599 23.3859L675.411 44.2903H680.072ZM682.348 41.7862L666.306 25.6724C664.897 25.128 663.271 24.6925 661.753 24.3658L681.807 44.5081C682.24 44.5081 682.674 44.5081 683.107 44.617C682.891 43.6371 682.674 42.7661 682.348 41.7862ZM681.373 39.282C678.988 33.8381 674.761 29.5919 669.124 26.87L681.373 39.282ZM714.542 38.8465L705.003 29.1564C707.605 35.0358 709.339 42.3306 709.339 49.6253C709.339 50.9319 709.339 52.2384 709.231 53.436L729.175 71.6185C728.742 58.6621 723.864 48.4277 714.542 38.8465ZM651.89 78.9133C670.642 78.9133 683.758 67.2634 683.758 50.7141C683.758 49.7342 683.758 48.7543 683.649 47.7744C681.807 47.4478 679.855 47.3389 678.013 47.3389H648.204V78.9133H651.89ZM726.14 91.543C728.091 86.0992 729.175 80.1109 729.175 73.6872V73.1428L709.122 54.7426C708.58 60.9486 707.063 66.719 704.678 71.9451L726.14 91.543ZM704.136 72.925C702.185 76.9535 699.8 80.5464 696.873 83.8127L719.203 104.173C721.804 100.689 724.081 96.7691 725.707 92.6318L704.136 72.925ZM710.64 112.556C713.566 110.27 716.168 107.766 718.553 104.935L696.115 84.5749C693.622 87.2968 690.912 89.5832 687.877 91.7608L710.64 112.556ZM678.663 96.878L701.751 118C704.678 116.585 707.279 115.061 709.772 113.21L686.901 92.414C684.3 94.0472 681.59 95.5715 678.663 96.878ZM669.558 100.035L692.863 121.267C695.573 120.504 698.283 119.524 700.776 118.436L677.579 97.3135C674.978 98.4023 672.268 99.2733 669.558 100.035ZM660.778 101.669L684.191 122.9C686.793 122.573 689.286 122.138 691.67 121.593L668.365 100.253C665.872 100.906 663.379 101.342 660.778 101.669ZM675.628 123.335H676.82C678.771 123.335 680.723 123.226 682.565 123.117L659.26 101.886C657.092 102.104 654.816 102.213 652.54 102.322L675.628 123.335ZM644.952 102.322L668.04 123.335H673.894L650.914 102.322H644.952ZM646.253 178.645V123.335H646.361L623.273 102.322H623.165V107.875L643.218 126.166L642.351 126.928L623.165 109.399V115.169L639.424 129.977L638.557 130.739L623.165 116.694V122.355L635.63 133.787L634.871 134.55L623.165 123.88V129.65L631.836 137.598L631.078 138.36L623.165 131.174V136.727L628.151 141.3L627.392 142.171L623.165 138.36V155.454L646.253 178.645ZM624.899 102.322L647.879 123.335H650.264L627.175 102.322H624.899ZM628.693 102.322L651.781 123.335H654.708L631.62 102.322H628.693ZM633.354 102.322L656.334 123.335H660.019L637.039 102.322H633.354ZM638.448 102.322L661.645 123.335H666.414L643.435 102.322H638.448ZM603.112 155.454L626.2 178.645H630.969L607.989 155.454H603.112ZM613.409 155.454H609.507L632.595 178.645H636.497L613.409 155.454ZM614.927 155.454L638.123 178.645H640.942L617.962 155.454H614.927ZM619.479 155.454L642.568 178.645H644.627L621.647 155.454H619.479ZM875.617 -0.131526L901.524 25.8901V111.903C901.524 155.454 875.726 183.98 836.595 183.98C815.892 183.98 801.041 178.1 787.6 164.6L765.379 142.498C753.131 130.412 746.519 112.23 746.519 88.93V-0.131526H770.908L797.898 26.9789V114.298C797.898 121.049 798.657 127.581 800.391 133.461C803.968 134.332 807.87 134.876 811.989 134.876C836.487 134.876 851.228 117.456 851.228 88.059V-0.131526H875.617ZM794.863 28.2854L771.775 5.09457V6.83661L794.863 30.0274V28.2854ZM876.484 6.94549L898.489 29.0476V27.1966L876.484 5.20346V6.94549ZM794.863 34.7092V31.6606L771.775 8.46977V11.5183L794.863 34.7092ZM876.484 11.6272L898.489 33.7293V30.6807L876.484 8.57864V11.6272ZM794.863 41.1329V36.2334L771.775 13.0426V17.9421L794.863 41.1329ZM876.484 18.051L898.489 40.153V35.2536L876.484 13.1515V18.051ZM794.863 50.1697V42.7661L771.775 19.5752V26.9789L794.863 50.1697ZM876.484 27.0878L898.489 49.1898V41.7862L876.484 19.6841V27.0878ZM794.863 62.4728V51.694L771.775 28.5032V39.282L794.863 62.4728ZM876.484 39.3909L898.489 61.4929V50.7141L876.484 28.612V39.3909ZM794.863 79.4577V63.9971L771.775 40.8063V56.2668L794.863 79.4577ZM898.489 63.0172L876.484 40.9152V56.3757L898.489 78.4778V63.0172ZM771.775 57.7911V88.059C771.775 110.705 781.097 126.493 797.031 132.372C795.622 126.71 794.863 120.613 794.863 114.298V80.9819L771.775 57.7911ZM894.803 138.251C897.188 130.303 898.489 121.484 898.489 111.903V80.0021L876.484 57.9V88.93C876.484 99.0556 875.292 108.201 872.907 116.258L894.803 138.251ZM872.474 117.347C870.848 122.682 868.68 127.581 865.97 131.828L887.758 153.712C890.467 149.357 892.744 144.566 894.37 139.34L872.474 117.347ZM879.411 164.382C882.338 161.442 884.939 158.285 887.216 154.692L865.428 132.807C863.152 136.4 860.55 139.558 857.624 142.498L879.411 164.382ZM848.518 149.466L870.523 171.568C873.45 169.717 876.159 167.539 878.652 165.144L856.757 143.151C854.263 145.546 851.554 147.615 848.518 149.466ZM839.522 154.039L861.634 176.249C864.344 175.052 867.054 173.745 869.547 172.112L847.543 150.01C845.05 151.534 842.34 152.841 839.522 154.039ZM777.953 151.099L789.768 162.422C792.045 164.6 794.321 166.559 796.597 168.301L780.771 152.405L777.953 151.099ZM786.516 154.583C785.432 154.147 784.349 153.821 783.265 153.385L801.475 171.677C803.101 172.657 804.618 173.636 806.244 174.399L786.516 154.583ZM830.633 156.76L852.854 179.08C855.456 178.427 857.949 177.665 860.442 176.685L838.329 154.474C835.836 155.345 833.235 156.107 830.633 156.76ZM788.684 155.236L809.171 175.814C810.58 176.358 811.989 177.012 813.507 177.447L792.478 156.325C791.177 155.998 789.985 155.672 788.684 155.236ZM794.646 156.869L815.892 178.209C817.409 178.645 818.927 179.08 820.553 179.407L798.982 157.74C797.464 157.414 796.055 157.196 794.646 156.869ZM822.178 158.176L844.4 180.496C846.893 180.278 849.277 179.842 851.554 179.298L829.333 156.978C827.056 157.523 824.672 157.958 822.178 158.176ZM800.716 157.958L822.395 179.734C824.13 180.06 825.864 180.278 827.598 180.496L805.811 158.611C804.077 158.502 802.451 158.285 800.716 157.958ZM814.591 158.829L836.595 180.931C838.763 180.931 840.931 180.822 842.99 180.605L820.878 158.394C818.818 158.611 816.65 158.72 814.591 158.829ZM807.437 158.72L829.224 180.605C831.175 180.822 833.018 180.931 835.077 180.931L813.073 158.829H811.556C810.147 158.829 808.846 158.829 807.437 158.72ZM1021.84 131.283L1048.83 158.394V181.693H950.085L923.095 154.583V-0.0226501H947.484L974.474 27.0878V131.283H1021.84ZM971.439 28.3943L948.351 5.20346V6.83661L971.439 30.0274V28.3943ZM971.439 34.7092V31.6606L948.351 8.46977V11.5183L971.439 34.7092ZM971.439 41.1329V36.2334L948.351 13.0426V17.9421L971.439 41.1329ZM971.439 50.1697V42.7661L948.351 19.5752V26.9789L971.439 50.1697ZM971.439 62.4728V51.694L948.351 28.5032V39.282L971.439 62.4728ZM971.439 79.4577V63.9971L948.351 40.8063V56.2668L971.439 79.4577ZM948.351 131.283H971.439V80.9819L948.351 57.7911V131.283ZM1045.8 178.645V159.7L1022.71 136.509V155.454L1045.8 178.645ZM928.298 155.454L951.386 178.645H961.467L938.27 155.454H928.298ZM939.788 155.454L962.984 178.645H972.089L948.893 155.454H939.788ZM950.41 155.454L973.607 178.645H981.736L958.54 155.454H950.41ZM960.057 155.454L983.254 178.645H990.408L967.32 155.454H960.057ZM968.837 155.454L992.034 178.645H998.429L975.341 155.454H968.837ZM976.859 155.454L999.947 178.645H1005.69L982.495 155.454H976.859ZM984.013 155.454L1007.21 178.645H1012.3L989.107 155.454H984.013ZM990.625 155.454L1013.82 178.645H1018.27L995.069 155.454H990.625ZM996.587 155.454L1019.78 178.645H1023.69L1000.6 155.454H996.587ZM1002.11 155.454L1025.2 178.645H1028.67L1005.48 155.454H1002.11ZM1006.99 155.454L1030.19 178.645H1033.12L1010.03 155.454H1006.99ZM1011.55 155.454L1034.63 178.645H1037.23L1014.04 155.454H1011.55ZM1015.66 155.454L1038.75 178.645H1040.92L1017.83 155.454H1015.66ZM1019.35 155.454L1042.44 178.645H1044.28L1021.19 155.454H1019.35ZM1165.25 107.33C1173.6 115.714 1177.17 124.968 1177.17 137.707C1177.17 165.035 1155.71 183.98 1124.6 183.98C1102.06 184.415 1085.25 177.774 1074.74 169.717L1048.07 142.933V117.238L1050.68 116.149C1062.38 127.146 1078.64 133.352 1095.55 133.352C1109.64 133.352 1121.02 128.235 1125.47 120.504C1108.56 112.23 1088.72 107.657 1077.56 93.3939L1061.19 72.4895C1053.39 62.4728 1049.59 55.1781 1049.59 43.2016C1049.59 16.4178 1070.84 -1.98244 1101.84 -1.98244C1117.56 -2.30907 1133.49 1.93715 1144.98 9.44967L1171.75 36.3423V60.7308L1169.37 61.9284C1157.12 52.8916 1143.14 47.7744 1130.13 47.7744C1115.17 47.7744 1104.01 53.7627 1101.08 63.1261C1116.26 68.57 1132.51 74.0138 1142.81 84.5749L1165.25 107.33ZM1145.63 14.458V34.4914H1145.52L1168.72 57.7911V37.6488L1145.63 14.458ZM1106.5 21.6439C1105.63 21.535 1104.77 21.535 1104.01 21.535C1102.38 21.535 1100.75 21.6439 1099.13 21.7528L1122.54 45.2702C1124.71 44.9436 1127.09 44.7259 1129.48 44.7259L1106.5 21.6439ZM1137.18 45.1614L1114.74 22.6238C1112.57 22.1883 1110.29 21.8617 1108.02 21.6439L1131 44.7259C1133.06 44.7259 1135.12 44.9436 1137.18 45.1614ZM1121.24 45.488L1097.72 21.8617C1094.9 22.2972 1092.3 22.8415 1089.81 23.6037L1113.55 47.4478C1115.93 46.5768 1118.53 45.9235 1121.24 45.488ZM1144.44 46.5768L1122.76 24.8013C1120.81 24.1481 1118.75 23.4948 1116.69 23.0593L1139.02 45.488C1140.75 45.7058 1142.6 46.1413 1144.44 46.5768ZM1112.46 47.8833L1088.72 24.0392C1085.58 25.128 1082.98 26.6523 1080.81 28.5032L1104.77 52.565C1106.93 50.7141 1109.53 49.1898 1112.46 47.8833ZM1151.38 48.7543L1130.89 28.1765C1129.05 27.3055 1127.09 26.4345 1125.14 25.6724L1146.5 47.1212C1148.12 47.5567 1149.75 48.1011 1151.38 48.7543ZM1098.15 62.0373C1099.24 58.6621 1101.19 55.7225 1103.9 53.2183L1079.94 29.1564C1076.91 31.9872 1074.96 35.4713 1074.41 39.282L1096.42 61.3841L1098.15 62.0373ZM1157.88 51.4762L1139.67 33.1849C1137.83 31.9872 1135.98 30.7896 1134.03 29.8097L1153.87 49.7342C1155.17 50.2786 1156.58 50.823 1157.88 51.4762ZM1143.57 35.5802L1161.02 53.1094C1162.11 53.6538 1163.3 54.307 1164.49 55.0692L1144.55 35.0358L1143.57 35.5802ZM1074.31 41.5684C1074.31 50.7141 1082.65 55.8313 1093.93 60.4042L1074.31 40.6974V41.5684ZM1082.33 94.1561C1086.23 98.4023 1091.65 101.777 1097.83 104.826L1072.9 79.7843C1071.6 79.0222 1070.3 78.26 1069.1 77.4979C1073.01 82.9417 1077.34 88.7122 1082.33 94.1561ZM1083.74 85.0104C1081.14 83.9216 1078.53 82.724 1076.15 81.5263L1100.75 106.241C1103.14 107.33 1105.63 108.419 1108.23 109.508L1083.74 85.0104ZM1086.23 85.9903L1110.84 110.597C1112.79 111.468 1114.74 112.23 1116.69 113.101L1091.87 88.1678C1090.02 87.5146 1088.18 86.7524 1086.23 85.9903ZM1094.25 89.0389L1119.4 114.298C1121.02 114.952 1122.65 115.714 1124.28 116.476L1098.59 90.5631C1097.18 90.1276 1095.66 89.5832 1094.25 89.0389ZM1126.88 117.456C1126.99 116.911 1127.2 116.367 1127.31 115.823L1104.44 92.7407C1103.36 92.3052 1102.16 91.8697 1101.08 91.543L1126.88 117.456ZM1107.04 93.7206L1127.53 114.298C1127.64 113.863 1127.64 113.318 1127.64 112.883V112.774L1109.86 94.9182L1107.04 93.7206ZM1127.53 111.141L1127.2 109.508L1115.06 97.3135C1114.3 96.878 1113.44 96.5514 1112.57 96.1159L1127.53 111.141ZM1163.08 109.508L1150.83 97.2047C1152.35 101.342 1153.22 106.024 1153.22 111.468C1153.22 114.189 1153 116.803 1152.57 119.416L1174.03 140.973C1174.14 139.884 1174.14 138.796 1174.14 137.707C1174.14 125.622 1170.89 117.347 1163.08 109.508ZM1126.34 107.004C1124.82 104.064 1122.11 101.56 1118.64 99.3822L1126.34 107.004ZM1173.92 142.389L1152.35 120.722C1151.27 125.73 1149.42 130.412 1146.82 134.55L1169.59 157.414C1171.86 152.841 1173.38 147.833 1173.92 142.389ZM1161.89 167.539C1164.71 164.817 1167.09 161.769 1168.94 158.394L1146.17 135.529C1144.11 138.796 1141.62 141.627 1138.69 144.24L1161.89 167.539ZM1129.7 150.337L1153.22 174.072C1156.14 172.33 1158.75 170.479 1161.13 168.301L1137.83 144.893C1135.33 146.962 1132.62 148.812 1129.7 150.337ZM1059.35 149.901L1076.69 167.322C1078.32 168.519 1079.94 169.717 1081.79 170.806L1062.17 151.208L1059.35 149.901ZM1120.59 154.256L1144.22 177.991C1147.04 177.012 1149.75 175.923 1152.24 174.507L1128.72 150.881C1126.23 152.188 1123.52 153.385 1120.59 154.256ZM1064.88 152.296L1085.25 172.765C1086.45 173.31 1087.64 173.963 1088.94 174.507L1067.91 153.385L1064.88 152.296ZM1070.19 154.039L1091.54 175.596C1092.84 176.032 1094.25 176.576 1095.66 177.012L1073.76 155.018L1070.19 154.039ZM1111.81 156.434L1135.33 180.06C1138.04 179.625 1140.64 179.08 1143.03 178.318L1119.51 154.692C1117.01 155.345 1114.52 155.998 1111.81 156.434ZM1075.82 155.563L1097.83 177.665C1099.35 178.1 1100.86 178.536 1102.49 178.863L1080.05 156.325C1078.64 156.107 1077.23 155.781 1075.82 155.563ZM1081.89 156.652L1104.33 179.189C1106.07 179.516 1107.69 179.842 1109.43 180.06L1086.77 157.196C1085.04 157.087 1083.52 156.869 1081.89 156.652ZM1133.92 180.278L1110.51 156.652C1108.23 157.087 1105.85 157.305 1103.46 157.523L1126.77 180.931C1129.26 180.822 1131.65 180.605 1133.92 180.278ZM1088.51 157.414L1111.38 180.278C1113.33 180.496 1115.17 180.713 1117.12 180.822L1094.03 157.631C1092.19 157.631 1090.35 157.523 1088.51 157.414ZM1118.64 180.822C1120.59 180.931 1122.65 180.931 1124.6 180.931H1125.14L1101.95 157.523C1100.75 157.631 1099.67 157.631 1098.48 157.631H1095.55L1118.64 180.822ZM1299.01 131.828L1326 158.938V181.693H1221.72L1194.73 154.583V-0.0226501H1295.87L1322.86 27.0878V48.5366H1246L1245.9 64.106H1283.51L1310.5 91.2164V113.101H1245.9V131.828H1299.01ZM1319.82 28.3943L1296.73 5.20346V23.3859L1319.82 45.488V28.3943ZM1245.14 45.488L1222.16 23.3859H1220.53L1243.51 45.488H1245.14ZM1249.47 45.488L1226.38 23.3859H1223.78L1246.76 45.488H1249.47ZM1254.89 45.488L1231.8 23.3859H1228.01L1251.1 45.488H1254.89ZM1261.4 45.488L1238.42 23.3859H1233.43L1256.52 45.488H1261.4ZM1270.07 45.488L1246.87 23.3859H1240.04L1263.02 45.488H1270.07ZM1278.74 45.488L1255.54 23.3859H1248.61L1271.69 45.488H1278.74ZM1287.74 45.488L1264.65 23.3859H1257.28L1280.37 45.488H1287.74ZM1296.41 45.488L1273.54 23.3859H1266.27L1289.36 45.488H1296.41ZM1304 45.488L1281.02 23.3859H1275.05L1298.14 45.488H1304ZM1310.5 45.488L1287.52 23.3859H1282.53L1305.73 45.488H1310.5ZM1314.84 45.488L1291.96 23.3859H1289.04L1312.23 45.488H1314.84ZM1318.09 45.488L1295.22 23.3859H1293.48L1316.57 45.488H1318.09ZM1219.77 55.1781L1225.08 60.2953L1224.22 61.0574L1219.77 56.8112V64.106H1242.86V46.359L1219.77 24.257V28.8298L1239.83 48.1011L1238.85 48.7543L1219.77 30.463V35.4713L1236.14 51.1496L1235.16 51.9118L1219.77 36.9956V42.0039L1232.45 54.1982L1231.48 54.9603L1219.77 43.6371V48.6454L1228.77 57.2467L1227.9 58.0089L1219.77 50.1697V55.1781ZM1284.38 69.3321V87.9501H1284.27L1307.46 110.052V92.5229L1284.38 69.3321ZM1243.62 110.052H1245.57L1222.48 87.9501H1220.53L1243.62 110.052ZM1224.11 87.9501L1247.2 110.052H1250.99L1228.01 87.9501H1224.11ZM1229.64 87.9501L1252.62 110.052H1258.58L1235.38 87.9501H1229.64ZM1237.12 87.9501L1260.2 110.052H1268.33L1245.35 87.9501H1237.12ZM1278.74 110.052L1255.87 87.9501H1246.98L1269.96 110.052H1278.74ZM1289.15 110.052L1266.06 87.9501H1257.39L1280.47 110.052H1289.15ZM1296.62 110.052L1273.75 87.9501H1267.68L1290.77 110.052H1296.62ZM1302.04 110.052L1279.06 87.9501H1275.27L1298.36 110.052H1302.04ZM1280.58 87.9501L1303.78 110.052H1305.73L1282.75 87.9501H1280.58ZM1219.77 126.601L1222.59 129.323L1221.72 130.194L1219.77 128.344V131.828H1242.86V110.814L1219.77 88.7122V93.5028L1239.83 112.883L1239.07 113.645L1219.77 95.136V100.253L1236.47 116.258L1235.6 117.02L1219.77 101.777V106.786L1233 119.524L1232.13 120.287L1219.77 108.419V113.427L1229.53 122.791L1228.66 123.553L1219.77 115.06V120.069L1226.06 126.057L1225.19 126.819L1219.77 121.593V126.601ZM1299.88 137.054V155.454L1322.96 178.645V160.245L1299.88 137.054ZM1210.45 155.454H1199.94L1223.02 178.645H1233.54L1210.45 155.454ZM1221.4 155.454H1211.97L1235.06 178.645H1244.6L1221.4 155.454ZM1222.92 155.454L1246.11 178.645H1254.57L1231.37 155.454H1222.92ZM1232.89 155.454L1256.08 178.645H1263.56L1240.48 155.454H1232.89ZM1248.61 155.454H1241.99L1265.08 178.645H1271.8L1248.61 155.454ZM1279.17 178.645L1256.08 155.454H1250.12L1273.32 178.645H1279.17ZM1257.6 155.454L1280.69 178.645H1285.89L1262.81 155.454H1257.6ZM1264.32 155.454L1287.41 178.645H1292.07L1268.88 155.454H1264.32ZM1270.39 155.454L1293.59 178.645H1297.6L1274.4 155.454H1270.39ZM1275.92 155.454L1299.12 178.645H1302.59L1279.39 155.454H1275.92ZM1280.91 155.454L1304.1 178.645H1307.14L1283.94 155.454H1280.91ZM1285.46 155.454L1308.66 178.645H1311.26L1288.06 155.454H1285.46ZM1289.58 155.454L1312.78 178.645H1314.94L1291.86 155.454H1289.58ZM1293.37 155.454L1316.46 178.645H1318.41L1295.22 155.454H1293.37ZM1296.73 155.454L1319.93 178.645H1321.45L1298.25 155.454H1296.73Z" fill="white"/>
</svg>
