<svg width="32" height="32" viewBox="0 0 32 32" fill="none" xmlns="http://www.w3.org/2000/svg">
<rect width="32" height="32" rx="16" fill="url(#paint0_linear_205_1005)"/>
<path fill-rule="evenodd" clip-rule="evenodd" d="M7.39541 14.3554C6.8848 14.8583 6.5143 15.4872 6.32093 16.1793C6.12756 16.8715 6.1181 17.6026 6.2935 18.2995C6.46803 18.9863 6.82427 19.6126 7.32432 20.1118C7.82437 20.6111 8.44954 20.9646 9.13334 21.1349C9.8289 21.3104 10.5578 21.3012 11.2488 21.1081C11.9398 20.9151 12.5691 20.5448 13.0751 20.0335L20.0342 13.0754C20.4939 12.6031 21.1208 12.3333 21.7778 12.3249C22.4347 12.3166 23.0681 12.5703 23.5396 13.0307C23.7675 13.2634 23.9473 13.5393 24.0685 13.8423C24.1897 14.1454 24.25 14.4696 24.2459 14.7963C24.2418 15.123 24.1733 15.4456 24.0444 15.7454C23.9156 16.0453 23.7289 16.3165 23.4953 16.5433L21.2766 18.7758L19.9676 17.5107L19.1098 22.0205L23.6653 21.1572L22.3933 19.8921L24.612 17.6595C25.122 17.1561 25.4926 16.5275 25.6872 15.8357C25.8817 15.1439 25.8935 14.4131 25.7213 13.7154C25.5446 13.0297 25.1876 12.4046 24.6879 11.9056C24.1882 11.4067 23.5642 11.0524 22.8814 10.88C22.1847 10.7053 21.4549 10.715 20.7629 10.9079C20.0709 11.1009 19.4403 11.4707 18.9323 11.9814L11.9732 18.9395C11.5134 19.4118 10.8865 19.6816 10.2296 19.69C9.57271 19.6983 8.93923 19.4446 8.46775 18.9842C8.24009 18.7521 8.06049 18.4769 7.93936 18.1744C7.81823 17.872 7.75798 17.5484 7.76211 17.2223C7.76624 16.8962 7.83466 16.5743 7.96341 16.275C8.09216 15.9758 8.27867 15.7052 8.51212 15.4791L10.5607 13.3954L11.8327 14.6754L12.6831 10.2102L8.17933 11.066L9.45134 12.3312L7.39541 14.3554Z" fill="white"/>
<defs>
<linearGradient id="paint0_linear_205_1005" x1="32.0725" y1="0.178926" x2="0.0731864" y2="31.8589" gradientUnits="userSpaceOnUse">
<stop stop-color="#5F6BFB"/>
<stop offset="1" stop-color="#724DE4"/>
</linearGradient>
</defs>
</svg>
