<svg xmlns="http://www.w3.org/2000/svg" version="1.0" width="1004.000000pt" height="1004.000000pt" viewBox="0 0 1004.000000 1004.000000" preserveAspectRatio="xMidYMid meet"><script xmlns="" id="argent-x-extension" data-extension-id="dlcobpjiigpikoobohmabehhmhfoodbb"/>
    <g transform="translate(0.000000,1004.000000) scale(0.100000,-0.100000)" fill="#000000" stroke="none">
        <path d="M5001 9998 c-4 -13 -18 -50 -30 -83 -12 -33 -25 -67 -28 -75 -3 -8 -7 -17 -8 -20 -1 -3 -4 -12 -7 -20 -4 -8 -25 -67 -48 -130 -22 -63 -46 -127 -52 -142 -5 -15 -9 -28 -9 -30 1 -2 -5 -21 -15 -43 -9 -22 -31 -80 -49 -130 -18 -49 -62 -173 -99 -275 -71 -196 -73 -202 -74 -210 0 -3 -7 -18 -15 -33 -16 -30 -13 -48 21 -137 3 -8 6 -17 7 -20 2 -6 11 -30 28 -75 7 -16 12 -32 12 -35 0 -3 5 -18 12 -35 20 -54 26 -70 28 -80 2 -5 19 -53 38 -105 19 -52 58 -160 87 -240 49 -137 78 -217 103 -285 7 -16 12 -32 13 -35 0 -3 4 -14 8 -25 19 -48 47 -127 76 -210 17 -49 40 -112 50 -140 20 -53 82 -224 160 -445 94 -263 120 -335 129 -355 13 -27 31 -88 30 -99 0 -5 4 -12 10 -16 6 -3 13 -15 15 -26 4 -18 97 -278 198 -549 16 -44 33 -91 38 -105 10 -34 116 -323 143 -390 12 -30 22 -58 22 -62 0 -3 3 -10 8 -14 4 -4 7 -16 7 -26 0 -10 4 -26 10 -36 5 -9 33 -80 61 -157 28 -77 59 -163 70 -191 11 -29 22 -58 23 -65 2 -8 9 -27 16 -44 7 -16 14 -34 16 -40 1 -5 34 -98 74 -205 40 -107 73 -199 74 -205 2 -5 6 -17 9 -25 10 -23 95 -256 124 -340 14 -41 29 -79 33 -85 5 -5 12 -26 18 -45 5 -19 24 -73 42 -120 17 -47 33 -89 34 -95 4 -12 15 -43 26 -70 4 -11 17 -45 28 -75 11 -30 28 -77 38 -105 10 -27 19 -54 20 -60 3 -10 65 -177 111 -295 14 -36 26 -72 28 -80 3 -15 45 -128 92 -250 14 -36 27 -72 28 -80 2 -8 22 -62 43 -120 22 -58 68 -181 102 -275 34 -93 70 -192 80 -220 10 -27 37 -102 60 -165 23 -63 45 -124 50 -135 9 -20 31 -82 75 -206 12 -36 29 -78 36 -92 l14 -26 31 57 c17 31 64 113 104 182 40 69 84 145 98 169 14 25 37 65 52 90 14 26 29 53 33 61 4 8 15 29 26 45 10 17 28 48 41 70 13 22 36 63 52 90 16 28 32 58 35 67 3 10 9 18 14 18 5 0 9 4 9 9 0 5 17 38 38 72 21 35 56 96 77 134 21 39 46 82 56 97 11 14 19 28 19 31 0 3 38 71 85 152 47 80 85 150 85 155 0 4 4 10 8 12 5 2 28 39 53 83 24 44 48 87 54 96 5 9 25 43 43 75 18 32 46 82 63 109 16 28 32 57 36 65 3 8 13 23 21 33 24 27 4 20 -57 -21 -31 -20 -63 -41 -73 -47 -9 -5 -37 -25 -63 -43 -25 -17 -48 -32 -50 -32 -4 0 -226 -146 -242 -160 -7 -5 -24 -15 -38 -22 -14 -6 -25 -14 -25 -18 0 -4 -11 -12 -25 -18 -14 -7 -31 -17 -38 -22 -25 -22 -137 -90 -147 -90 -5 0 -10 7 -10 15 0 8 -4 23 -9 33 -5 9 -13 26 -17 37 -3 11 -21 61 -39 110 -18 50 -51 142 -74 205 -23 63 -44 122 -48 130 -3 8 -7 18 -8 23 -2 4 -4 9 -5 12 -1 3 -3 8 -5 13 -1 4 -4 14 -8 22 -24 61 -107 292 -107 300 0 6 -4 18 -10 28 -5 9 -28 69 -50 132 -23 63 -51 140 -63 170 -12 30 -22 57 -23 60 -4 24 -18 67 -24 75 -4 6 -19 44 -33 85 -23 67 -36 106 -63 175 -4 11 -6 23 -6 28 1 4 -2 7 -6 7 -5 0 -9 6 -9 13 0 7 -11 44 -26 82 -14 39 -44 122 -67 185 -23 63 -56 151 -72 195 -17 44 -31 85 -33 90 -1 6 -5 17 -8 25 -4 8 -25 67 -48 130 -22 63 -58 162 -79 220 -21 58 -57 157 -80 220 -23 63 -47 129 -53 145 -7 17 -12 32 -13 35 0 3 -4 12 -7 20 -4 8 -41 110 -83 225 -42 116 -92 253 -111 305 -19 52 -36 100 -37 105 -2 6 -8 24 -15 40 -16 42 -18 47 -130 356 -55 152 -107 294 -115 315 -8 22 -29 80 -46 129 -17 50 -35 99 -40 110 -13 30 -132 356 -135 369 -2 12 -13 41 -25 71 -12 29 -52 138 -54 150 -1 6 -10 27 -19 49 -9 21 -17 46 -17 55 0 9 -4 21 -9 27 -5 5 -19 38 -31 74 -11 36 -25 74 -30 85 -21 48 -90 244 -90 256 0 8 -7 23 -15 33 -8 11 -15 28 -15 38 0 10 -4 26 -10 36 -9 16 -36 88 -112 302 -16 47 -34 94 -38 105 -4 11 -17 45 -28 75 -11 30 -33 89 -48 130 -15 41 -27 80 -27 87 0 7 -4 13 -9 13 -4 0 -7 3 -6 8 0 4 -1 14 -5 22 -26 67 -166 456 -171 475 -7 24 -26 65 -31 65 -3 0 -9 -10 -14 -22z"/>
        <path d="M4179 7754 c-2 -23 -63 -196 -76 -218 -4 -6 -8 -18 -10 -26 -2 -13 -71 -203 -90 -250 -3 -8 -7 -17 -8 -20 0 -3 -9 -30 -20 -60 -11 -30 -20 -57 -20 -60 -1 -3 -9 -22 -18 -42 -10 -21 -19 -45 -20 -55 -2 -10 -8 -29 -14 -43 -19 -48 -55 -145 -57 -155 -2 -11 -52 -147 -66 -180 -23 -53 -183 -502 -183 -512 0 -7 -5 -13 -10 -13 -6 0 -7 -3 -4 -6 3 -4 1 -16 -5 -28 -7 -11 -13 -25 -14 -31 -4 -17 -157 -437 -175 -480 -6 -16 -13 -36 -15 -44 -1 -8 -24 -70 -49 -139 -26 -68 -48 -129 -49 -135 -2 -7 -8 -25 -15 -42 -7 -16 -33 -86 -57 -155 -25 -69 -59 -161 -76 -205 -17 -44 -37 -98 -44 -120 -7 -22 -27 -78 -44 -125 -56 -151 -101 -274 -116 -320 -9 -25 -21 -58 -28 -75 -8 -16 -21 -55 -31 -85 -10 -30 -20 -59 -24 -65 -3 -5 -6 -14 -7 -20 -3 -14 -72 -205 -84 -230 -5 -11 -59 -159 -120 -330 -61 -170 -123 -339 -137 -375 -14 -36 -26 -72 -28 -80 -2 -8 -9 -28 -16 -45 -7 -16 -13 -32 -14 -35 -1 -3 -5 -14 -9 -25 -5 -11 -13 -35 -20 -53 l-12 -34 -47 36 c-26 20 -49 36 -52 36 -5 0 -37 25 -60 48 -8 6 -16 12 -19 12 -3 0 -46 30 -96 68 -49 37 -113 83 -141 102 -28 19 -58 43 -67 53 -9 9 -22 17 -29 17 -7 0 -13 3 -13 8 0 4 -18 18 -40 32 -22 14 -40 28 -40 32 0 5 -5 8 -10 8 -6 0 -41 24 -78 53 -48 37 -63 45 -51 27 17 -27 128 -222 170 -298 14 -26 67 -118 117 -204 51 -86 92 -160 92 -164 0 -4 6 -15 14 -23 8 -9 26 -41 42 -71 16 -30 34 -61 40 -68 7 -6 16 -22 20 -35 4 -12 9 -24 13 -27 6 -5 11 -13 57 -96 13 -24 62 -109 109 -189 47 -81 85 -150 85 -155 0 -4 7 -13 15 -20 8 -7 13 -16 10 -20 -3 -5 -1 -10 3 -12 4 -1 32 -46 62 -98 29 -52 62 -107 72 -122 11 -16 16 -28 12 -28 -4 0 0 -8 8 -17 15 -17 70 -113 92 -160 6 -13 14 -23 19 -23 4 0 7 -4 7 -9 0 -13 79 -148 81 -138 3 13 6 22 17 50 7 16 12 31 12 34 0 3 6 19 14 36 11 26 45 123 51 147 1 3 7 19 14 35 7 17 14 35 15 40 2 6 6 17 9 25 4 8 23 60 42 115 20 55 38 107 42 115 3 8 7 17 7 20 2 7 46 130 56 155 17 44 35 91 37 100 2 11 108 300 120 325 3 8 7 20 8 25 3 10 155 430 202 555 13 36 26 72 28 80 2 8 20 57 39 109 20 51 36 100 36 107 0 8 4 14 10 14 5 0 9 3 8 8 -3 12 41 139 92 267 5 11 18 47 29 80 11 33 36 105 57 160 20 55 43 118 51 140 7 22 17 49 22 60 5 11 16 40 24 65 18 53 93 260 112 310 19 49 28 73 31 85 5 18 45 129 54 150 5 11 20 54 35 95 15 41 33 91 40 110 8 19 28 76 45 125 18 50 37 101 43 115 5 14 11 30 13 35 1 6 30 87 64 180 34 94 86 238 116 320 30 83 59 159 64 170 4 11 18 47 28 80 11 33 30 85 42 115 12 30 23 60 25 65 1 6 5 17 8 25 3 8 17 49 32 90 15 41 30 84 35 95 30 71 31 89 10 142 -11 29 -29 77 -39 106 -11 28 -23 61 -27 72 -4 11 -8 23 -9 28 -2 4 -4 9 -5 12 -1 3 -3 8 -5 13 -1 4 -5 14 -8 22 -6 14 -13 34 -53 150 -9 25 -20 49 -25 54 -5 6 -9 17 -9 24 0 16 -56 175 -89 255 -6 12 -17 42 -25 67 -8 25 -20 59 -27 75 -21 53 -91 249 -96 272 -5 23 -32 52 -34 37z"/>
        <path d="M5016 4909 c-6 -22 -61 -176 -96 -269 -17 -47 -32 -89 -34 -95 -2 -5 -6 -19 -10 -30 -5 -11 -10 -27 -13 -35 -4 -8 -7 -22 -9 -30 -2 -8 -7 -23 -13 -35 -11 -21 -218 -589 -266 -730 -16 -44 -34 -92 -42 -107 -7 -15 -13 -29 -13 -30 1 -3 0 -9 -31 -98 -12 -36 -25 -69 -29 -75 -6 -8 -17 -42 -25 -75 0 -3 -7 -16 -15 -30 -7 -14 -12 -25 -11 -25 3 0 -3 -19 -39 -115 -18 -47 -33 -89 -34 -95 -4 -19 -18 -60 -31 -90 -7 -16 -33 -86 -57 -155 -25 -69 -82 -226 -127 -350 -45 -124 -95 -261 -111 -305 -16 -44 -51 -141 -78 -215 -106 -288 -132 -360 -132 -368 0 -4 10 -18 23 -32 12 -14 58 -70 101 -125 44 -55 82 -102 85 -105 3 -3 24 -27 46 -55 21 -27 42 -52 45 -55 3 -3 17 -21 30 -40 13 -19 29 -39 35 -45 7 -5 29 -32 51 -60 21 -27 41 -52 44 -55 3 -3 41 -50 85 -105 44 -55 82 -102 85 -105 3 -3 21 -25 40 -50 19 -25 37 -47 40 -50 3 -3 33 -39 65 -80 33 -41 62 -77 66 -80 3 -3 41 -50 85 -105 43 -55 81 -102 84 -105 3 -3 32 -39 65 -80 33 -41 62 -77 65 -80 3 -3 23 -27 44 -53 l39 -49 21 24 c12 12 52 61 90 108 39 47 72 87 75 90 3 3 35 41 71 85 36 44 72 87 80 96 8 10 29 34 47 56 90 110 507 612 528 637 14 15 25 30 25 32 0 2 8 12 18 23 37 40 71 80 157 186 49 61 96 116 103 124 7 7 10 21 7 30 -4 9 -18 48 -31 86 -13 39 -28 79 -33 90 -8 16 -31 82 -36 105 -1 3 -5 14 -9 25 -4 11 -12 34 -18 50 -5 17 -14 39 -18 50 -5 11 -18 47 -30 80 -11 33 -23 67 -27 75 -3 8 -7 20 -9 25 -1 6 -24 69 -49 140 -26 72 -50 141 -55 155 -19 58 -88 248 -102 280 -8 19 -15 39 -15 43 -1 4 -6 20 -11 35 -6 15 -34 92 -62 172 -28 80 -54 152 -57 160 -3 8 -7 20 -9 25 -1 6 -15 42 -29 80 -15 39 -35 95 -45 125 -10 30 -25 73 -33 95 -19 50 -20 52 -77 215 -27 74 -67 187 -90 250 -23 63 -64 178 -91 255 -27 77 -52 147 -56 155 -3 8 -7 20 -9 25 -3 12 -126 355 -154 430 -10 28 -24 68 -31 90 -18 54 -37 83 -43 64z"/>
    </g>
</svg>
