<svg xmlns="http://www.w3.org/2000/svg" width="37" height="40" viewBox="0 0 37 40" fill="none" data-peer-injected="true">
  <path d="M14.9652 18.6598C14.9652 20.9194 13.1438 22.7512 10.8971 22.7512H4.06813C1.82136 22.7512 -1.96419e-07 20.9194 0 18.6598L1.26637e-06 4.0914C1.46278e-06 1.83178 1.82137 -1.97542e-07 4.06813 0L10.8971 6.00421e-07C13.1438 7.97963e-07 14.9652 1.83178 14.9652 4.0914L14.9652 18.6598Z" fill="#38F8AE"/>
  <path d="M17.1544 11.7954C17.1544 9.53665 19.0647 7.70556 21.421 7.70556H32.5981C34.9545 7.70556 36.8647 9.53665 36.8647 11.7954V18.6608C36.8647 20.9196 34.9545 22.7507 32.5981 22.7507H21.421C19.0647 22.7507 17.1544 20.9196 17.1544 18.6608V11.7954Z" fill="#38F8AE"/>
  <path d="M32.5989 24.9549H4.26658C1.91021 24.9549 0 26.786 0 29.0447V35.9101C0 38.1689 1.91021 40 4.26658 40H32.5989C34.9553 40 36.8655 38.1689 36.8655 35.9101V29.0447C36.8655 26.786 34.9553 24.9549 32.5989 24.9549Z" fill="#38F8AE"/>
<script xmlns=""/><script xmlns=""/></svg>
