<svg width="256" height="256" viewBox="0 0 256 256" fill="none" xmlns="http://www.w3.org/2000/svg">
<g clip-path="url(#clip0_1220_689)">
<circle cx="128" cy="128" r="127.5" fill="white" stroke="#C0C0C0"/>
<path d="M200.8 178.667C180.667 198.4 163.2 208 134.667 208C86.9333 208 54 174.667 54 127.733C54 79.6 91.3333 48 135.067 48C160.533 48 184.8 59.2 201.467 78.5333L181.067 98.1333C167.333 83.4667 152.267 75.8667 134.4 75.8667C105.733 75.8667 82.4 97.8667 82.4 127.867C82.4 159.333 104.933 180.267 135.067 180.267C154 180.267 166.667 172.667 181.067 158.267L200.8 178.667Z" fill="black"/>
</g>
<defs>
<clipPath id="clip0_1220_689">
<rect width="256" height="256" fill="white"/>
</clipPath>
</defs>
</svg>
