<svg width="55" height="45" viewBox="0 0 55 45" fill="none" xmlns="http://www.w3.org/2000/svg">
<path d="M38.6869 26.8953L27.8919 40.7127L26.6858 31.0671L19.5696 30.2979L38.6869 26.8953Z" fill="#03578C"/>
<path d="M27.7412 24.1732L19.5696 30.2979L21.2582 14.2909L27.7412 24.1732Z" fill="#03578C"/>
<path d="M27.5603 24.1436L21.2582 14.2909L27.2286 15.6519L27.5603 24.1436Z" fill="#0099F7"/>
<path d="M47.8837 29.5582H47.8536L46.1951 40.7423H27.892V40.7127L38.6869 26.8953L47.8837 29.5582Z" fill="#28ADFF"/>
<path d="M19.5696 30.2978L27.6206 24.2619L27.5603 24.1436L38.6869 26.8952L19.5696 30.2978Z" fill="#0099F7"/>
<path d="M32.1134 21.0369L27.7411 24.1732L27.5602 24.1436L27.2285 15.6519L38.5361 18.2852L38.5662 18.2556L39.5311 21.7174L32.1134 21.0369Z" fill="#0474BA"/>
<path d="M54.3065 28.9367L47.8838 29.5581L38.687 26.8952L39.2298 26.7177L32.1437 21.0368L47.3712 26.5993L50.3564 27.7236L51.0198 27.0431L49.9945 22.4274L46.4967 22.3683L40.7073 21.8357L45.1398 20.0604L50.3564 21.9244L50.7484 13.4623L51.1102 13.5807L54.3065 28.9367Z" fill="#0474BA"/>
<path d="M51.0197 27.0432L50.3563 27.7238L47.3712 26.5994L46.4967 22.3684L49.9945 22.4276L51.0197 27.0432Z" fill="#03578C"/>
<path d="M38.9281 3.52094L35.4605 4.37899L31.3898 6.21343L31.4501 3.81682L37.9934 0L38.9281 3.52094Z" fill="#49484D"/>
<path d="M40.6771 10.1191L31.2993 10.0599L31.3898 6.21348L35.4605 4.37904L38.9282 3.521L40.6771 10.1191Z" fill="#FFB536"/>
<path d="M21.2582 14.3796L8.1716 40.9494H8.14144L0 43.0501L21.2582 14.3796Z" fill="#FFC767"/>
<path d="M21.3186 14.2909L19.5697 30.2979L11.6694 43.0502L8.17163 40.9494L21.2582 14.3797L21.3186 14.2909Z" fill="#FFB536"/>
<path d="M24.4847 30.8304L20.0521 41.9258L11.6694 43.0502L19.5697 30.2979L24.4847 30.8304Z" fill="#FFC767"/>
<path d="M27.892 40.7423L26.9874 44.5591L20.1124 41.9258H20.0521L24.4847 30.8304L26.6859 31.0671L27.892 40.7423Z" fill="#FFB536"/>
<path d="M38.5361 18.2852L21.3185 14.2909L31.2993 10.0598H31.4501L37.1792 16.6875L38.5361 18.2852Z" fill="#FFB536"/>
<path d="M50.4467 13.3737H50.4166L38.5361 18.2852L37.1792 16.6875L42.5767 10.6812L50.4467 13.3737Z" fill="#FFC767"/>
<path d="M42.5767 10.6812L37.1793 16.6875L31.2993 10.0598L40.6771 10.119L42.5466 10.6812H42.5767Z" fill="#03578C"/>
<path d="M50.4166 13.3736L48.6979 16.9537L45.1699 20.0605H45.1397L40.7072 21.8357L39.5312 21.7174L38.5361 18.2852L50.3865 13.4032L50.4166 13.3736Z" fill="#0099F7"/>
<path d="M39.2297 26.7178L38.6869 26.8953L27.7714 24.2028L27.7412 24.1732L32.1436 21.0369L39.2297 26.7178Z" fill="#03578C"/>
<path d="M47.3712 26.5994L32.1437 21.0369H32.1135L39.5313 21.7174L40.7073 21.8358L46.4967 22.3684L47.3712 26.5994Z" fill="#0099F7"/>
<path d="M50.7483 13.4624L50.3563 21.9245L45.1398 20.0605H45.1699L48.6979 16.9537L50.4166 13.3736H50.4468L50.7483 13.4624Z" fill="#03578C"/>
</svg>
