<svg width="140" height="79" viewBox="0 0 140 79" fill="none" xmlns="http://www.w3.org/2000/svg">
<path d="M124.767 78.1977H109.067H100.541C95.331 78.1977 93.1506 73.9206 92.7117 71.7821C92.3303 69.9477 91.7884 68.1748 91.1009 66.4783C89.9404 62.8165 91.9146 60.8174 93.0468 60.2756L102.749 54.6808C104.086 56.9067 105.164 59.3269 106.058 61.8284C106.571 63.2123 108.486 65.7756 112.036 64.9577L122.661 62.1373C124.001 67.2995 124.767 72.653 124.767 78.1977Z" fill="url(#paint0_linear_3907_2236)"/>
<path fill-rule="evenodd" clip-rule="evenodd" d="M106.387 34.0316C98.7284 26.3838 89.1552 20.648 78.2419 17.7801L74.2212 32.8845C82.2626 34.9876 89.5382 39.3852 95.2821 45.121L106.387 34.0316Z" fill="url(#paint1_linear_3907_2236)"/>
<path d="M21.3777 54.4894C17.357 61.5637 15.0595 69.5939 15.0595 78.1977H7.92205C6.39416 78.1977 4.06596 77.6671 1.81051 75.2695C0.00614884 73.3514 -0.111948 70.3047 0.0545489 69.0211C0.975866 62.9486 2.77592 57.156 5.23006 51.7395C5.90912 50.1579 8.28583 47.4538 12.3602 49.2894L21.3777 54.4894Z" fill="url(#paint2_linear_3907_2236)"/>
<path d="M124.768 78.1979C124.768 72.6533 124.002 67.2997 122.662 62.1375L132.554 59.5116C134.318 59.0487 138.087 59.2128 139.055 63.5721C139.421 65.4561 139.719 67.3738 139.946 69.3118C140.125 70.4258 139.961 73.2497 137.865 75.6328C135.77 78.0159 132.772 78.1979 131.972 78.1979H124.768Z" fill="#ABDA02"/>
<path d="M95.2824 45.1212L113.766 26.6634C115.056 25.4525 118.373 23.8299 121.312 27.0267C123.441 29.4682 125.427 32.0526 127.248 34.8008C128.014 36.3406 128.721 39.8956 125.424 41.7968L102.749 54.8721C100.643 51.2394 98.1543 47.9891 95.2824 45.1212Z" fill="#ABDA02"/>
<path d="M93.5589 24.0906C84.3687 18.7372 73.6468 15.678 62.1591 15.678C58.2196 15.678 54.3765 16.063 50.6298 16.7646C47.3121 17.3891 45.4287 14.7607 44.9016 13.3685L43.3931 7.70141C43.0406 5.97804 43.296 2.32178 47.1375 1.48362C51.9911 0.520128 57.0751 0 62.1591 0C74.396 0 86.0616 2.85245 96.5392 7.94145C98.0428 8.64746 100.614 11.0297 98.8674 14.9108L93.5589 24.0906Z" fill="#ABDA02"/>
<path d="M61.9679 31.3551C66.18 31.3551 70.3923 31.9287 74.2215 32.8846L71.4293 43.374C71.0685 44.7439 69.4449 47.3997 65.8362 47.0636C64.6476 46.9158 63.4219 46.8418 62.1593 46.8418C46.9339 46.8418 34.3403 57.6462 31.4055 71.8547C31.1686 72.8476 30.2874 75.1387 28.6576 76.3593C26.6204 77.885 24.9471 78.1978 23.6374 78.1978H15.0596C15.0596 52.1953 36.1204 31.3551 61.9679 31.3551Z" fill="#ABDA02"/>
<defs>
<linearGradient id="paint0_linear_3907_2236" x1="107.757" y1="54.6808" x2="107.757" y2="78.1977" gradientUnits="userSpaceOnUse">
<stop stop-color="#6410D6"/>
<stop offset="1" stop-color="#A310D6"/>
</linearGradient>
<linearGradient id="paint1_linear_3907_2236" x1="90.304" y1="17.7801" x2="90.304" y2="45.121" gradientUnits="userSpaceOnUse">
<stop stop-color="#6410D6"/>
<stop offset="1" stop-color="#A310D6"/>
</linearGradient>
<linearGradient id="paint2_linear_3907_2236" x1="10.6889" y1="48.6739" x2="10.6889" y2="78.1977" gradientUnits="userSpaceOnUse">
<stop stop-color="#6410D6"/>
<stop offset="1" stop-color="#A310D6"/>
</linearGradient>
</defs>
</svg>
