<svg width="32" height="18" viewBox="0 0 32 18" fill="none" xmlns="http://www.w3.org/2000/svg">
<path d="M27.9351 17.6456H24.4199H22.5108C21.3444 17.6456 20.8562 16.688 20.7579 16.2092C20.6726 15.7984 20.5512 15.4015 20.3973 15.0216C20.1375 14.2018 20.5795 13.7542 20.833 13.6329L23.0053 12.3802C23.3047 12.8786 23.546 13.4205 23.7462 13.9805C23.8611 14.2904 24.2897 14.8643 25.0846 14.6812L27.4635 14.0497C27.7636 15.2055 27.9351 16.4042 27.9351 17.6456Z" fill="url(#paint0_linear_711_429)"/>
<path fill-rule="evenodd" clip-rule="evenodd" d="M23.8197 7.75691C22.105 6.04459 19.9616 4.76035 17.5181 4.11823L16.6179 7.50008C18.4184 7.97096 20.0474 8.95556 21.3334 10.2398L23.8197 7.75691Z" fill="url(#paint1_linear_711_429)"/>
<path d="M4.78642 12.3374C3.88619 13.9213 3.37177 15.7192 3.37177 17.6456H1.77373C1.43164 17.6456 0.910357 17.5268 0.405368 16.99C0.00137669 16.5605 -0.0250648 15.8784 0.0122134 15.591C0.218494 14.2314 0.621522 12.9344 1.171 11.7217C1.32304 11.3676 1.85518 10.7621 2.76741 11.1731L4.78642 12.3374Z" fill="url(#paint2_linear_711_429)"/>
<path d="M27.9352 17.6456C27.9352 16.4042 27.7637 15.2056 27.4636 14.0498L29.6785 13.4618C30.0734 13.3582 30.9173 13.3949 31.1342 14.371C31.216 14.7928 31.2827 15.2222 31.3335 15.6561C31.3737 15.9055 31.3368 16.5378 30.8677 17.0713C30.3985 17.6049 29.7274 17.6456 29.5482 17.6456H27.9352Z" fill="#ABDA02"/>
<path d="M21.3335 10.2399L23.8198 7.75697L25.4719 6.10722C25.7609 5.8361 26.5033 5.47279 27.1616 6.18855C27.6382 6.73519 28.0827 7.31383 28.4905 7.92914C28.6619 8.27391 28.8202 9.06986 28.0821 9.49553L26.049 10.6679L23.0053 12.423C22.5338 11.6097 21.9765 10.882 21.3335 10.2399Z" fill="#ABDA02"/>
<path d="M20.9476 5.53116C18.89 4.33253 16.4894 3.64759 13.9173 3.64759C13.0353 3.64759 12.1748 3.73379 11.3359 3.89089C10.5931 4.03071 10.1714 3.44222 10.0534 3.1305L9.71564 1.86165C9.63672 1.4758 9.6939 0.657169 10.554 0.469508C11.6407 0.253784 12.779 0.137329 13.9173 0.137329C16.6571 0.137329 19.269 0.775985 21.6149 1.9154C21.9516 2.07347 22.5271 2.60686 22.1362 3.47582L20.9476 5.53116Z" fill="#ABDA02"/>
<path d="M13.8745 7.15765C14.8176 7.15765 15.7607 7.28607 16.618 7.50011L15.9929 9.84865C15.9121 10.1554 15.5486 10.75 14.7406 10.6747C14.4744 10.6416 14.2 10.6251 13.9173 10.6251C10.5084 10.6251 7.68872 13.0442 7.03163 16.2254C6.9786 16.4477 6.78129 16.9607 6.4164 17.234C5.96028 17.5756 5.58561 17.6456 5.29239 17.6456H3.37183C3.37183 11.8237 8.0873 7.15765 13.8745 7.15765Z" fill="#ABDA02"/>
<defs>
<linearGradient id="paint0_linear_711_429" x1="24.1266" y1="12.3802" x2="24.1266" y2="17.6456" gradientUnits="userSpaceOnUse">
<stop stop-color="#6410D6"/>
<stop offset="1" stop-color="#A310D6"/>
</linearGradient>
<linearGradient id="paint1_linear_711_429" x1="20.2188" y1="4.11823" x2="20.2188" y2="10.2398" gradientUnits="userSpaceOnUse">
<stop stop-color="#6410D6"/>
<stop offset="1" stop-color="#A310D6"/>
</linearGradient>
<linearGradient id="paint2_linear_711_429" x1="2.39321" y1="11.0353" x2="2.39321" y2="17.6456" gradientUnits="userSpaceOnUse">
<stop stop-color="#6410D6"/>
<stop offset="1" stop-color="#A310D6"/>
</linearGradient>
</defs>
</svg>
