<svg width="184" height="110" viewBox="0 0 184 110" fill="none" xmlns="http://www.w3.org/2000/svg">
<path fill-rule="evenodd" clip-rule="evenodd" d="M158.353 103.626C130.988 113.853 85.6226 111.635 56.1898 97.9577C26.7571 84.2806 0 68.2624 0 42.2635C0 16.2647 30.649 8.25556 45.3654 6.65373C53.0361 5.8188 60.0129 5.98817 65.9514 6.13234C71.4059 6.26475 75.9844 6.3759 79.4199 5.668C79.6941 5.61149 79.9857 5.55104 80.2945 5.487C88.0679 3.87533 106.759 0 133.664 0C161.637 0 183.286 5.42156 183.286 34.9937L183.332 65.6748C183.169 83.2594 180.668 95.2861 158.353 103.626ZM156.894 45.2208C151.542 49.3691 132.74 59.9822 100.339 69.2481C59.8386 80.8306 34.541 69.6178 27.122 62.5944C19.703 55.571 19.2165 43.9886 36.0005 31.174C52.7845 18.3594 74.6766 8.99488 104.353 18.6058C128.093 26.2946 149.272 39.5528 156.894 45.2208Z" fill="#755CB4"/>
<path d="M158.355 103.626C130.99 113.853 85.6248 111.635 56.192 97.9577C34.9687 88.0955 15.1368 77.016 5.72461 61.8551C18.9877 78.6126 50.8406 87.9771 117.977 69.2481C171.685 54.2649 182.537 30.9686 181.249 21.1934C182.578 25.0757 183.288 29.6387 183.288 34.9937L183.334 65.6748C183.171 83.2594 180.67 95.2861 158.355 103.626Z" fill="url(#paint0_linear_12161_16639)"/>
<path fill-rule="evenodd" clip-rule="evenodd" d="M104.352 18.6067L104.352 18.6063C93.7713 14.4991 76.6189 7.98379 49.7645 9.16668C16.1965 10.6453 -0.334654 30.3633 4.98654 51.1357C7.70913 61.7631 25.22 80.5147 73.4514 74.0474C48.5591 75.6099 32.7302 67.9051 27.121 62.595C19.702 55.5717 19.2155 43.9892 35.9995 31.1746C52.7835 18.36 74.6755 8.99553 104.352 18.6065C104.352 18.6066 104.352 18.6066 104.352 18.6067Z" fill="url(#paint1_linear_12161_16639)"/>
<path fill-rule="evenodd" clip-rule="evenodd" d="M168.032 5.90015C168.969 6.39187 169.87 6.92154 170.733 7.49166C177.59 12.4082 179.763 21.533 173.675 29.9435C168.324 37.3365 160.256 43.2099 156.891 45.2224L156.891 45.2224C156.891 45.2221 156.892 45.2218 156.892 45.2215C149.27 39.5535 128.092 26.2953 104.351 18.6066C103.556 18.3491 102.766 18.1052 101.982 17.8747C105.543 15.5513 109.972 13.2867 115.418 11.3376C137.342 3.49093 159.151 1.79432 168.032 5.90015Z" fill="url(#paint2_linear_12161_16639)"/>
<defs>
<linearGradient id="paint0_linear_12161_16639" x1="170.031" y1="113.113" x2="169.519" y2="71.6287" gradientUnits="userSpaceOnUse">
<stop stop-color="#EF8B74"/>
<stop offset="1" stop-color="#5D449B"/>
</linearGradient>
<linearGradient id="paint1_linear_12161_16639" x1="88.2864" y1="19.4059" x2="8.12365" y2="96.0798" gradientUnits="userSpaceOnUse">
<stop stop-color="#EF8B74"/>
<stop offset="1" stop-color="#381F74" stop-opacity="0"/>
</linearGradient>
<linearGradient id="paint2_linear_12161_16639" x1="176.434" y1="41.2516" x2="168.83" y2="6.07506" gradientUnits="userSpaceOnUse">
<stop stop-color="#EF8B74"/>
<stop offset="1" stop-color="#381F74" stop-opacity="0"/>
</linearGradient>
</defs>
</svg>
