<svg width="487" height="483" viewBox="0 0 487 483" fill="none" xmlns="http://www.w3.org/2000/svg">
<path d="M477.67 160L376.05 12.17C360.09 -11 324 1.29999 325.18 29.45C326.26 55.11 335.85 82.27 358.8 115.6C358.811 115.619 358.815 115.64 358.813 115.661C358.81 115.682 358.801 115.702 358.787 115.718C358.772 115.734 358.753 115.744 358.732 115.748C358.711 115.752 358.689 115.749 358.67 115.74C349.28 108.74 207.73 2.43999 39.4699 59.04H39.2799C20.7099 66 11.2299 81.19 15.9299 99C20.2799 115.49 37.1899 125.39 53.9999 122.6C89.7399 116.65 125.21 113.82 160.09 116.88C194.97 119.94 229.09 128.88 260.86 144.49C292.63 160.1 321.41 182.19 347.86 207.49C377.61 235.92 414.52 296.55 414.52 296.55C416.683 300.392 420.134 303.347 424.263 304.893C428.393 306.439 432.935 306.477 437.09 305C447.09 301.42 451.75 289.89 447.99 280C440.148 259.327 430.55 239.364 419.3 220.33C419.284 220.312 419.274 220.288 419.274 220.264C419.274 220.24 419.283 220.216 419.299 220.198C419.315 220.179 419.337 220.167 419.361 220.164C419.385 220.161 419.41 220.166 419.43 220.18C431.87 224.86 443.38 230.69 457 227.5C468.11 224.89 477.86 217.33 482.39 206.75C485.67 199.205 486.958 190.944 486.131 182.759C485.305 174.574 482.391 166.737 477.67 160V160Z" fill="url(#paint0_linear_703_452)"/>
<path d="M8.68011 322.24L110.87 470.9C126.87 494.14 162.29 481.4 161.2 453.22C160.2 427.44 150.63 400.17 127.57 366.67C127.5 366.57 127.57 366.44 127.69 366.51C137.1 373.51 278.69 479.8 446.88 423.21C446.947 423.215 447.014 423.215 447.08 423.21C465.65 416.27 475.08 401.11 470.42 383.28C466.08 366.8 449.17 356.9 432.37 359.7C396.62 365.7 361.16 368.47 326.27 365.41C291.38 362.35 257.27 353.41 225.51 337.81C193.75 322.21 164.96 300.1 138.51 274.81C108.77 246.38 71.8501 185.75 71.8501 185.75C69.6113 181.757 65.9849 178.725 61.6588 177.228C57.3327 175.731 52.6078 175.874 48.3801 177.63C38.8601 181.63 34.7901 192.88 38.4401 202.52C46.2685 223.126 55.8433 243.025 67.0601 262C67.0715 262.019 67.0767 262.042 67.075 262.064C67.0733 262.086 67.0648 262.108 67.0507 262.125C67.0365 262.143 67.0174 262.155 66.9958 262.161C66.9743 262.168 66.9514 262.167 66.9301 262.16C54.4901 257.48 42.9301 251.65 29.3601 254.84C18.2501 257.4 8.49011 265 4.00011 275.55C0.725778 283.084 -0.563243 291.331 0.256052 299.505C1.07535 307.679 3.97562 315.506 8.68011 322.24V322.24Z" fill="url(#paint1_linear_703_452)"/>
<defs>
<linearGradient id="paint0_linear_703_452" x1="511.34" y1="446.08" x2="-84.4701" y2="-287.71" gradientUnits="userSpaceOnUse">
<stop offset="0.15" stop-color="#B32EFF"/>
<stop offset="0.42" stop-color="#CE60D3"/>
<stop offset="0.65" stop-color="#E185B3"/>
<stop offset="0.84" stop-color="#EE9C9F"/>
<stop offset="0.96" stop-color="#F2A498"/>
</linearGradient>
<linearGradient id="paint1_linear_703_452" x1="-25.0199" y1="36.18" x2="570.81" y2="769.99" gradientUnits="userSpaceOnUse">
<stop offset="0.15" stop-color="#B32EFF"/>
<stop offset="0.42" stop-color="#CE60D3"/>
<stop offset="0.65" stop-color="#E185B3"/>
<stop offset="0.84" stop-color="#EE9C9F"/>
<stop offset="0.96" stop-color="#F2A498"/>
</linearGradient>
</defs>
</svg>
