<svg width="634" height="634" viewBox="0 0 634 634" fill="none" xmlns="http://www.w3.org/2000/svg">
<circle cx="317" cy="317" r="317" fill="url(#paint0_linear_1180_726)"/>
<path d="M498.862 346.463C492.767 335.968 485.452 326.102 478.101 316.199C469.9 305.113 461.736 294.064 455.235 282.166C443.008 259.81 437.54 232.354 451.098 212.252C451.171 212.141 451.098 211.956 450.95 211.956C428.047 207.3 406.621 197.286 388.742 183.392C375.185 172.861 363.29 160.075 354.609 145.738C349.031 136.5 344.672 126.707 341.679 116.656C340.978 114.254 336.175 114.254 335.917 116.693L334.144 134.098C333.7 138.273 333.257 142.597 330.856 146.07C324.834 154.939 310.871 154.311 299.05 153.239C264.954 150.135 230.23 151.724 198.867 162.034C180.84 167.983 164.069 176.926 150.216 188.713C143.271 194.626 137.065 201.277 131.894 208.557C126.98 215.43 124.321 223.19 122.252 231.245C117.265 250.867 124.321 272.447 134.849 290.517C140.944 301.012 148.295 310.878 155.609 320.781C163.81 331.867 171.974 342.916 178.476 354.814C190.703 377.17 196.17 404.626 182.613 424.728C182.539 424.839 182.613 425.024 182.761 425.024C205.664 429.68 227.09 439.694 244.969 453.588C258.526 464.119 270.052 476.905 278.733 491.242C284.311 500.48 288.67 510.273 291.625 520.287C292.327 522.689 299.493 523.28 300.38 520.989C301.636 517.737 302.929 514.338 304.037 510.088C304.222 509.386 304.406 508.61 304.628 507.834C306.512 500.554 309.098 490.688 311.24 487.547C315.969 480.563 324.243 481.819 333.294 483.187C335.732 483.556 338.244 483.926 340.793 484.147C374.889 487.251 403.481 485.256 434.844 474.946C452.871 468.997 469.642 460.055 483.494 448.267C490.439 442.354 496.645 435.703 501.817 428.423C506.693 421.55 509.39 413.79 511.459 405.735C516.445 386.113 509.39 364.533 498.862 346.463ZM440.606 405.254C429.229 417.892 409.983 422.215 391.66 423.952C389.702 424.137 387.929 424.322 386.267 424.469C371.417 425.947 367.058 426.354 349.363 424.174C342.935 423.361 331.521 419.813 327.901 418.668C327.199 418.446 326.682 417.892 326.497 417.153C325.758 414.197 323.8 405.956 322.803 397.42C321.879 389.475 320.993 375.988 321.288 362.981C321.325 360.616 318.074 359.729 317.262 361.872C316.634 363.572 316.006 365.272 315.378 366.971C309.246 383.674 303.15 400.303 287.931 410.427C267.503 424.063 235.512 423.139 207.142 422.363C204.26 422.289 201.416 422.215 198.608 422.141C196.429 422.104 195.321 418.668 196.835 417.153C205.923 408.026 205.11 394.168 204.297 379.646C204.223 378.611 204.186 377.577 204.112 376.542C203.152 358.288 198.128 340.329 193.104 322.333C189.188 308.365 185.273 294.397 183.278 280.281C180.803 263.135 181.69 244.474 193.289 231.615C204.667 218.977 223.913 214.654 242.235 212.917C261.666 211.069 278.622 211.18 298.311 213.582C305.921 214.543 307.435 215.578 309.652 219.79C309.689 219.901 309.726 219.975 309.763 220.086C311.203 224.52 313.457 243.588 313.457 243.809L318.074 279.875C318.333 281.981 320.993 282.424 321.621 280.466C323.468 274.775 324.761 268.715 326.017 262.692C329.341 246.987 332.629 231.467 345.854 222.636C364.509 210.183 392.288 211.993 418.405 213.656C423.798 213.989 429.155 214.358 434.327 214.543C436.506 214.617 437.614 218.127 436.137 219.642C427.751 228.326 428.564 241.26 429.45 254.895C429.561 256.669 429.672 258.442 429.783 260.253C430.743 278.508 435.767 296.466 440.791 314.462C444.707 328.43 448.623 342.398 450.617 356.514C453.092 373.66 452.206 392.321 440.606 405.18V405.254Z" fill="white"/>
<defs>
<linearGradient id="paint0_linear_1180_726" x1="317" y1="0" x2="317" y2="634" gradientUnits="userSpaceOnUse">
<stop stop-color="#C293FF"/>
<stop offset="1" stop-color="#331EB2"/>
</linearGradient>
</defs>
</svg>
