<svg width="44" height="41" viewBox="0 0 44 41" fill="none" xmlns="http://www.w3.org/2000/svg">
<path d="M18.4939 25.9166V29.413C18.4939 30.392 17.7247 31.1612 16.7457 31.1612H13.2493C12.2703 31.1612 11.5011 30.392 11.5011 29.413V11.931C11.5011 10.952 12.2703 10.1828 13.2493 10.1828H14.2632C15.8366 10.1828 16.6058 8.2947 15.487 7.21082L9.26336 0.917288C9.10206 0.751293 8.9091 0.619338 8.6959 0.529232C8.4827 0.439127 8.25359 0.3927 8.02214 0.3927C7.79068 0.3927 7.56157 0.439127 7.34837 0.529232C7.13517 0.619338 6.94221 0.751293 6.78091 0.917288L0.522344 7.21082C-0.596506 8.2947 0.207668 10.1828 1.74609 10.1828H2.76004C3.73904 10.1828 4.50825 10.952 4.50825 11.931V36.4058C4.50825 37.3848 5.27746 38.154 6.25645 38.154H23.7385C24.7175 38.154 25.4867 37.3848 25.4867 36.4058V25.9166C25.4867 24.9376 24.7175 24.1684 23.7385 24.1684H20.2421C19.298 24.1684 18.4939 24.9376 18.4939 25.9166Z" fill="#615CCD"/>
<path d="M41.2205 31.1612C40.2415 31.1612 39.4723 30.392 39.4723 29.413V4.93814C39.4723 3.95915 38.7031 3.18994 37.7241 3.18994H20.2421C19.2631 3.18994 18.4939 3.95915 18.4939 4.93814V15.4274C18.4939 16.4064 19.2631 17.1756 20.2421 17.1756H23.7385C24.7175 17.1756 25.4867 16.4064 25.4867 15.4274V11.931C25.4867 10.952 26.2559 10.1828 27.2349 10.1828H30.7313C31.7103 10.1828 32.4795 10.952 32.4795 11.931V29.413C32.4795 30.392 31.7103 31.1612 30.7313 31.1612H29.7174C28.144 31.1612 27.3748 33.0492 28.4936 34.1331L34.7522 40.3917C35.4515 41.091 36.5353 41.091 37.2346 40.3917L43.4932 34.1331C44.5771 33.0492 43.8079 31.1612 42.2695 31.1612H41.2205V31.1612Z" fill="#615CCD"/>
</svg>
