<svg width="318" height="558" viewBox="0 0 318 558" fill="none" xmlns="http://www.w3.org/2000/svg">
<path d="M158.813 0.695326C137.909 0.799578 117.231 5.0426 97.9583 13.1828C78.686 21.323 61.1973 33.2017 46.4911 48.1383C31.7848 63.0749 20.149 80.7781 12.2482 100.237C4.34746 119.695 0.336643 140.528 0.444502 161.545V214.674H129.12V137.7C129.118 134.085 129.825 130.506 131.2 127.165C132.575 123.825 134.592 120.79 137.134 118.234C139.676 115.678 142.694 113.651 146.016 112.267C149.338 110.884 152.898 110.173 156.493 110.174H161.132C164.728 110.173 168.289 110.884 171.611 112.267C174.933 113.651 177.951 115.678 180.494 118.234C183.036 120.79 185.053 123.825 186.429 127.165C187.805 130.506 188.512 134.085 188.511 137.7V344.05C205.41 344.05 222.142 340.704 237.754 334.202C253.366 327.701 267.552 318.172 279.5 306.158C291.449 294.144 300.927 279.882 307.393 264.185C313.86 248.489 317.187 231.664 317.187 214.674V161.545C317.278 118.961 300.6 78.0724 270.798 47.8149C256.175 32.8837 238.742 21.0279 219.516 12.9382C200.29 4.8486 179.655 0.686554 158.813 0.695326V0.695326Z" fill="white"/>
<path d="M161.141 448.531H156.502C152.907 448.532 149.347 447.82 146.025 446.437C142.704 445.054 139.686 443.026 137.144 440.47C134.602 437.915 132.586 434.881 131.21 431.542C129.835 428.202 129.127 424.623 129.128 421.008V214.66C112.23 214.659 95.4965 218.004 79.8842 224.505C64.2719 231.006 50.0866 240.535 38.1377 252.549C26.1888 264.563 16.7104 278.826 10.2444 294.523C3.77834 310.22 0.451186 327.044 0.45264 344.034V396.425C0.23827 417.472 4.17636 438.354 12.0391 457.862C19.9019 477.37 31.5333 495.117 46.2607 510.077C60.9881 525.037 78.5191 536.913 97.8401 545.018C117.161 553.122 137.889 557.296 158.824 557.296C179.759 557.296 200.486 553.122 219.807 545.018C239.128 536.913 256.66 525.037 271.387 510.077C286.114 495.117 297.746 477.37 305.608 457.862C313.471 438.354 317.409 417.472 317.195 396.425V344.034H188.52V421.008C188.52 424.623 187.811 428.202 186.435 431.542C185.059 434.881 183.042 437.916 180.5 440.472C177.958 443.028 174.939 445.054 171.617 446.437C168.296 447.82 164.736 448.532 161.141 448.531V448.531Z" fill="white"/>
</svg>