<svg width="76" height="46" viewBox="0 0 76 46" fill="none" xmlns="http://www.w3.org/2000/svg">
<path d="M75.9205 42.1801V9.65098C75.9205 4.42984 71.6792 0.197266 66.4472 0.197266C63.9236 0.197266 61.5042 1.20214 59.7258 2.989L30.1073 32.7484C28.9761 33.885 28.985 35.7222 30.127 36.8479L32.4444 39.1322C38.1136 44.7203 47.2386 44.6978 52.8801 39.0818L64.0892 27.9232C64.6213 27.3935 65.4779 27.3789 66.0278 27.8902C66.6002 28.4224 66.623 29.3199 66.0784 29.8804L62.2974 33.7719C61.7409 34.3446 61.7537 35.2587 62.326 35.8156L70.9944 44.2524C72.832 46.041 75.9205 44.7416 75.9205 42.1801Z" fill="url(#paint0_linear_253_2233)"></path>
<path d="M0.5 3.206V35.5923C0.5 40.8248 4.75057 45.0666 9.99391 45.0666C12.5058 45.0666 14.9153 44.0733 16.6947 42.3041L46.2915 12.8773C47.4329 11.7425 47.4289 9.89699 46.2826 8.76712L43.9761 6.49356C38.3069 0.905447 29.1819 0.927947 23.5404 6.54396L12.3313 17.7025C11.7992 18.2322 10.9426 18.2468 10.3927 17.7356C9.8203 17.2034 9.79746 16.3059 10.342 15.7454L14.1357 11.8409C14.6872 11.2733 14.6802 10.3691 14.12 9.80996L5.45204 1.15915C3.62468 -0.664587 0.5 0.626946 0.5 3.206Z" fill="url(#paint1_linear_253_2233)"></path>
<defs>
    <linearGradient id="paint0_linear_253_2233" x1="0.5" y1="0.197266" x2="76.9733" y2="2.06904" gradientUnits="userSpaceOnUse">
    <stop stop-color="#04CF86"></stop>
    <stop offset="1" stop-color="#03C6D2"></stop>
    </linearGradient>
    <linearGradient id="paint1_linear_253_2233" x1="0.5" y1="0.197266" x2="76.9733" y2="2.06904" gradientUnits="userSpaceOnUse">
    <stop stop-color="#04CF86"></stop>
    <stop offset="1" stop-color="#03C6D2"></stop>
    </linearGradient>
</defs>
</svg>