<svg width="32" height="32" viewBox="0 0 32 32" fill="none" xmlns="http://www.w3.org/2000/svg">
<rect width="32" height="32" rx="16" fill="#FF0420"/>
<path fill-rule="evenodd" clip-rule="evenodd" d="M6.50291 20.5037C7.29302 21.0568 8.30661 21.3334 9.54374 21.3334C11.0408 21.3334 12.2365 21.0024 13.1305 20.3407C14.0245 19.6691 14.6535 18.6568 15.0174 17.3036C15.2357 16.474 15.4229 15.6197 15.5789 14.7407C15.6308 14.4246 15.6569 14.1628 15.6569 13.9555C15.6569 13.2641 15.4749 12.6715 15.1109 12.1778C14.7472 11.674 14.2481 11.2987 13.614 11.0517C12.9798 10.7951 12.2624 10.6667 11.462 10.6667C8.5198 10.6667 6.69521 12.0246 5.9883 14.7407C5.73881 15.7383 5.54649 16.5926 5.41127 17.3036C5.35934 17.6197 5.33331 17.8864 5.33331 18.1037C5.33331 19.1407 5.72318 19.9407 6.50291 20.5037ZM11.2435 18.711C10.8381 19.037 10.3444 19.2 9.76204 19.2C8.76417 19.2 8.26506 18.7456 8.26506 17.8369C8.26506 17.6197 8.28583 17.4123 8.32748 17.2148C8.51456 16.2568 8.7017 15.4469 8.88883 14.7852C9.06563 14.1136 9.35674 13.6148 9.76204 13.2887C10.178 12.9629 10.6769 12.7999 11.2593 12.7999C12.2468 12.7999 12.7406 13.2493 12.7406 14.148C12.7406 14.3654 12.7198 14.5778 12.6783 14.7852C12.5535 15.4765 12.3716 16.2864 12.1325 17.2148C11.9557 17.8864 11.6595 18.3852 11.2435 18.711ZM16.1092 21.081C16.1716 21.1502 16.26 21.1848 16.3744 21.1848H18.4953C18.5991 21.1848 18.698 21.1502 18.7915 21.081C18.885 21.0118 18.9422 20.923 18.963 20.8144L19.6804 17.5699H21.7857C23.1475 17.5699 24.2183 17.2983 24.9981 16.7552C25.7882 16.212 26.3132 15.3725 26.573 14.2366C26.6355 13.97 26.6666 13.7131 26.6666 13.4663C26.6666 12.6069 26.3132 11.9502 25.6062 11.4958C24.9096 11.0415 23.9844 10.8143 22.8304 10.8143H18.6823C18.5784 10.8143 18.4797 10.8489 18.386 10.9181C18.2924 10.9873 18.2353 11.0761 18.2145 11.1847L16.0625 20.8144C16.0417 20.9132 16.0572 21.002 16.1092 21.081ZM23.0331 15.1847C22.7109 15.4119 22.3313 15.5255 21.8947 15.5255H20.1014L20.694 12.8737H22.5654C22.9916 12.8737 23.2931 12.9526 23.4697 13.1107C23.6465 13.2589 23.7349 13.4761 23.7349 13.7625C23.7349 13.8909 23.7194 14.039 23.6882 14.207C23.5842 14.6317 23.3658 14.9576 23.0331 15.1847Z" fill="white"/>
</svg>
