<svg width="32" height="32" viewBox="0 0 32 32" fill="none" xmlns="http://www.w3.org/2000/svg">
<rect width="32" height="32" rx="8" fill="#2D165D"/>
<path d="M26.9386 8.06783C26.7049 7.16644 25.9533 6.26506 24.6005 5.26161C23.5148 4.46227 22.3624 4.00307 21.4439 4.00307C21.2601 4.00307 21.0931 4.02007 20.9261 4.05409C20.5086 4.13913 20.1411 4.44526 19.9073 4.90446C19.6234 5.4487 19.5566 6.18002 19.7403 6.62222C19.8071 6.75828 19.8906 6.92833 19.9908 7.0814C19.1057 7.62565 18.6046 7.77872 18.5378 7.79574C20.8426 8.57804 22.7633 10.2108 23.9658 12.3367L23.9825 12.1326C24.0326 11.5714 24.1996 10.9251 24.4334 10.2618C24.6673 10.3298 24.9011 10.3639 25.1349 10.3639C25.7529 10.3639 26.2873 10.1087 26.6214 9.64952C26.9554 9.19032 27.089 8.57804 26.9386 8.06783Z" fill="#5E12A0"/>
<path d="M24.5337 9.7686C26.0536 10.1938 26.6715 9.00331 26.4711 8.20393C26.254 7.40461 25.5525 6.58823 24.3165 5.66983C23.0807 4.75143 21.8281 4.37726 21.0264 4.54734C20.2247 4.71741 19.9908 5.95896 20.1913 6.43516C20.2748 6.62224 20.4585 6.89434 20.709 7.20048C20.3917 7.42157 20.0911 7.59166 19.8405 7.74473C21.3771 8.44204 22.7132 9.53054 23.7153 10.8911C23.8322 10.4319 23.9993 10.0237 24.1496 9.66659C24.2664 9.68361 24.4001 9.7176 24.5337 9.7686Z" fill="url(#paint0_radial_1856_6873)"/>
<path d="M15.8321 26.4359C20.9884 26.4359 25.1683 22.1794 25.1683 16.9287C25.1683 11.6781 20.9884 7.42157 15.8321 7.42157C10.6759 7.42157 6.49596 11.6781 6.49596 16.9287C6.49596 22.1794 10.6759 26.4359 15.8321 26.4359Z" fill="url(#paint1_radial_1856_6873)"/>
<path opacity="0.6" d="M25.7027 7.42151C24.4334 6.06091 23.3645 5.70375 22.0785 5.41463C21.0764 5.17652 21.3437 4.59827 22.5628 4.71732C21.9783 4.51323 21.4271 4.46221 21.0263 4.54724C20.2246 4.71732 19.9908 5.95886 20.1912 6.43507C20.2747 6.62215 20.4584 6.89428 20.709 7.20042C20.258 7.50656 19.8739 7.72765 19.5565 7.89774C19.7069 7.96576 19.8906 8.05075 20.1077 8.16983C20.6756 8.47597 21.2936 8.98618 21.2936 8.98618C20.3582 8.16984 20.5586 7.79567 21.8447 6.87726C22.2455 6.58814 22.9804 6.62215 23.6652 6.97933C24.3499 7.33647 25.1516 8.23786 25.1516 8.23786L24.3833 9.7345C24.4334 9.75152 24.4835 9.76854 24.5336 9.78556C25.018 9.92161 25.4021 9.88757 25.7027 9.76854C26.0535 9.54745 26.9721 8.79913 25.7027 7.42151Z" fill="#A98698"/>
<path d="M22.0618 6.23103C22.3958 6.36709 22.83 6.6052 23.3645 6.96238C23.9992 7.38754 24.5503 7.86377 24.901 8.23793C24.3165 9.02023 23.9323 10.0917 23.6985 10.84C23.8154 11.0101 23.9491 11.1802 24.066 11.3503C24.1828 10.9251 24.3833 10.2958 24.6505 9.66655C24.7173 9.68357 24.8008 9.68357 24.8843 9.68357C25.0847 9.68357 25.3186 9.64953 25.5023 9.49646C25.6359 9.39439 25.7862 9.20734 25.7695 8.86716C25.7695 8.54406 25.519 8.13586 25.0013 7.64267C24.6338 7.28548 24.1327 6.8943 23.6317 6.53717C22.1954 5.56774 21.1933 5.29562 20.7424 5.75482C20.4417 6.06096 20.4751 6.43512 20.5753 6.70724C20.0409 7.06438 19.59 7.31952 19.2893 7.48961C19.4897 7.55763 19.6735 7.64267 19.8739 7.72766C20.4083 7.43854 21.1766 6.94536 22.0618 6.23103ZM25.2184 8.66309C25.2685 8.74814 25.2852 8.83318 25.2852 8.88418C25.2852 9.03725 25.2351 9.08826 25.2017 9.1223C25.1348 9.1733 25.0012 9.20734 24.8843 9.20734C24.9845 9.00327 25.1015 8.83318 25.2184 8.66309ZM21.0931 6.12899C21.1432 6.07797 21.2768 6.04395 21.4939 6.07797C21.3269 6.21403 21.1599 6.33308 20.9929 6.45213C20.9762 6.33308 20.9929 6.21403 21.0931 6.12899Z" fill="#5E12A0"/>
<path d="M15.8321 6.86031C10.3707 6.86031 5.94476 11.3673 5.94476 16.9287C5.94476 22.4902 10.3707 26.9971 15.8321 26.9971C21.2935 26.9971 25.7194 22.4902 25.7194 16.9287C25.7194 11.3673 21.2768 6.86031 15.8321 6.86031ZM15.8321 26.4359C10.6713 26.4359 6.49592 22.1841 6.49592 16.9287C6.49592 11.6735 10.6713 7.42158 15.8321 7.42158C20.9929 7.42158 25.1683 11.6735 25.1683 16.9287C25.1683 22.1841 20.9762 26.4359 15.8321 26.4359Z" fill="#5E12A0"/>
<path opacity="0.6" d="M15.8321 26.4359C20.9884 26.4359 25.1683 22.1794 25.1683 16.9287C25.1683 11.6781 20.9884 7.42157 15.8321 7.42157C10.6759 7.42157 6.49596 11.6781 6.49596 16.9287C6.49596 22.1794 10.6759 26.4359 15.8321 26.4359Z" fill="url(#paint2_linear_1856_6873)"/>
<path opacity="0.6" d="M15.7652 25.2794C10.6712 24.446 7.21397 19.5649 8.04904 14.3776C8.41649 12.0816 9.55216 10.1258 11.1555 8.7141C8.81731 10.0917 7.08036 12.4897 6.61272 15.4151C5.79434 20.6023 9.25155 25.4835 14.3288 26.3168C17.1681 26.793 19.9072 25.8916 21.928 24.1228C20.141 25.1773 17.9698 25.6365 15.7652 25.2794Z" fill="#A98698"/>
<path opacity="0.6" d="M17.3185 7.55758C14.9636 7.1664 12.6755 7.71065 10.805 8.91817C10.7715 8.95221 10.7382 8.9862 10.7382 8.9862C11.4563 8.54401 12.5085 8.15283 12.5085 8.15283C9.80287 9.75154 8.96781 11.5713 8.96781 11.5713C10.02 9.49646 13.1098 8.0338 15.5315 7.93174C17.9533 7.82973 19.5399 8.56103 21.4773 10.1427C23.4146 11.7414 24.5838 15.0069 24.4668 17.592C24.3666 20.1771 23.0305 22.2691 23.0305 22.2691C23.9491 21.0615 24.5002 20.1771 24.851 19.2757C24.9178 19.0036 24.9846 18.7315 25.018 18.4423C25.8531 13.2721 22.4125 8.39095 17.3185 7.55758Z" fill="url(#paint3_linear_1856_6873)"/>
<path d="M24.7007 16.8436C24.7007 21.8268 20.7257 25.8746 15.8322 25.8746C10.9387 25.8746 6.94699 21.8268 6.94699 16.8436H24.7007Z" fill="url(#paint4_linear_1856_6873)"/>
<g opacity="0.6">
<path opacity="0.6" d="M23.9992 16.8436C23.9992 21.7078 20.2247 25.6875 15.4815 25.8746C15.5984 25.8746 15.7153 25.8746 15.8322 25.8746C20.7257 25.8746 24.7007 21.8268 24.7007 16.8436H23.9992Z" fill="url(#paint5_linear_1856_6873)"/>
</g>
<g opacity="0.7">
<path opacity="0.7" d="M8.19962 16.8436H6.94699C6.94699 21.8268 10.922 25.8746 15.8155 25.8746C16.0326 25.8746 16.2331 25.8746 16.4335 25.8576C11.8406 25.5175 8.19962 21.6057 8.19962 16.8436Z" fill="url(#paint6_linear_1856_6873)"/>
</g>
<path d="M24.6841 16.9287C24.6841 15.8912 22.9137 15.296 20.5588 15.0919C18.8552 14.9558 17.135 15.1259 15.1642 15.7382C13.4606 16.2484 11.924 16.1633 10.805 16.0273C8.3165 15.7382 6.94699 15.7041 6.94699 16.9287C6.94699 18.6975 10.4877 20.9084 15.7988 20.1431C18.4878 19.7519 19.874 18.9526 21.4607 18.4083C23.1809 17.8301 24.6841 17.8471 24.6841 16.9287Z" fill="url(#paint7_linear_1856_6873)"/>
<path d="M18.7382 12.6428C19.5684 12.6428 20.2413 11.9576 20.2413 11.1122C20.2413 10.2668 19.5684 9.5815 18.7382 9.5815C17.908 9.5815 17.2351 10.2668 17.2351 11.1122C17.2351 11.9576 17.908 12.6428 18.7382 12.6428Z" fill="white"/>
<path d="M21.1933 13.7824C21.5438 13.7824 21.8279 13.493 21.8279 13.136C21.8279 12.7791 21.5438 12.4898 21.1933 12.4898C20.8428 12.4898 20.5586 12.7791 20.5586 13.136C20.5586 13.493 20.8428 13.7824 21.1933 13.7824Z" fill="white"/>
<g opacity="0.6">
<path opacity="0.6" d="M23.4647 9.88758C23.448 9.88758 23.4313 9.88758 23.4313 9.88758C23.3311 9.87056 23.2643 9.76855 23.281 9.64946C23.4313 8.86716 24.0659 8.11878 24.0994 8.0848C24.1661 7.99975 24.2998 7.99975 24.3666 8.06778C24.4501 8.1358 24.4501 8.27185 24.3833 8.33993C24.3666 8.35689 23.782 9.05421 23.6484 9.73451C23.6317 9.83657 23.5482 9.88758 23.4647 9.88758Z" fill="url(#paint8_linear_1856_6873)"/>
</g>
<path opacity="0.2" d="M15.2153 24.0209C15.4736 24.0209 15.6829 23.8077 15.6829 23.5447C15.6829 23.2817 15.4736 23.0685 15.2153 23.0685C14.957 23.0685 14.7477 23.2817 14.7477 23.5447C14.7477 23.8077 14.957 24.0209 15.2153 24.0209Z" fill="white"/>
<g opacity="0.4">
<path opacity="0.6" d="M14.9469 23.8513C14.7632 23.6642 14.7632 23.358 14.9469 23.171C14.9803 23.137 15.0137 23.12 15.0471 23.086C14.9803 23.103 14.9302 23.137 14.8801 23.188C14.6964 23.3751 14.6964 23.6812 14.8801 23.8683C15.0304 24.0214 15.2642 24.0554 15.448 23.9534C15.2809 24.0214 15.0805 23.9873 14.9469 23.8513Z" fill="url(#paint9_linear_1856_6873)"/>
</g>
<path opacity="0.3" d="M15.3812 23.4085C15.4365 23.4085 15.4814 23.3628 15.4814 23.3065C15.4814 23.2501 15.4365 23.2044 15.3812 23.2044C15.3258 23.2044 15.281 23.2501 15.281 23.3065C15.281 23.3628 15.3258 23.4085 15.3812 23.4085Z" fill="white"/>
<path opacity="0.2" d="M17.6537 23.7827C17.912 23.7827 18.1214 23.5695 18.1214 23.3065C18.1214 23.0435 17.912 22.8303 17.6537 22.8303C17.3955 22.8303 17.1861 23.0435 17.1861 23.3065C17.1861 23.5695 17.3955 23.7827 17.6537 23.7827Z" fill="white"/>
<g opacity="0.4">
<path opacity="0.6" d="M17.3854 23.6131C17.2017 23.426 17.2017 23.1199 17.3854 22.9328C17.4189 22.8988 17.4522 22.8818 17.4857 22.8478C17.4189 22.8648 17.3688 22.8988 17.3187 22.9498C17.1349 23.1369 17.1349 23.443 17.3187 23.6301C17.469 23.7832 17.7028 23.8172 17.8865 23.7152C17.7195 23.7832 17.5191 23.7492 17.3854 23.6131Z" fill="url(#paint10_linear_1856_6873)"/>
</g>
<path opacity="0.3" d="M17.8196 23.1705C17.875 23.1705 17.9198 23.1248 17.9198 23.0684C17.9198 23.0121 17.875 22.9663 17.8196 22.9663C17.7643 22.9663 17.7194 23.0121 17.7194 23.0684C17.7194 23.1248 17.7643 23.1705 17.8196 23.1705Z" fill="white"/>
<path opacity="0.2" d="M16.45 24.8882C16.6437 24.8882 16.8007 24.7283 16.8007 24.5311C16.8007 24.3338 16.6437 24.1739 16.45 24.1739C16.2563 24.1739 16.0993 24.3338 16.0993 24.5311C16.0993 24.7283 16.2563 24.8882 16.45 24.8882Z" fill="white"/>
<g opacity="0.4">
<path opacity="0.6" d="M16.2497 24.7526C16.1161 24.6166 16.1161 24.3785 16.2497 24.2424C16.2664 24.2254 16.2998 24.2084 16.3165 24.1914C16.2664 24.2084 16.233 24.2424 16.1996 24.2764C16.066 24.4124 16.066 24.6506 16.1996 24.7866C16.3165 24.9057 16.4835 24.9227 16.6338 24.8377C16.5002 24.8887 16.3499 24.8547 16.2497 24.7526Z" fill="url(#paint11_linear_1856_6873)"/>
</g>
<path opacity="0.3" d="M16.567 24.4121C16.6039 24.4121 16.6338 24.3816 16.6338 24.344C16.6338 24.3064 16.6039 24.276 16.567 24.276C16.5301 24.276 16.5002 24.3064 16.5002 24.344C16.5002 24.3816 16.5301 24.4121 16.567 24.4121Z" fill="white"/>
<path opacity="0.2" d="M18.6047 24.6331C18.7984 24.6331 18.9554 24.4732 18.9554 24.2759C18.9554 24.0787 18.7984 23.9188 18.6047 23.9188C18.411 23.9188 18.254 24.0787 18.254 24.2759C18.254 24.4732 18.411 24.6331 18.6047 24.6331Z" fill="white"/>
<g opacity="0.4">
<path opacity="0.6" d="M18.4043 24.4975C18.2706 24.3614 18.2706 24.1233 18.4043 23.9873C18.421 23.9703 18.4544 23.9533 18.4711 23.9363C18.421 23.9533 18.3875 23.9873 18.3542 24.0213C18.2205 24.1574 18.2205 24.3955 18.3542 24.5315C18.4711 24.6506 18.638 24.6676 18.7884 24.5825C18.6548 24.6336 18.5045 24.5996 18.4043 24.4975Z" fill="url(#paint12_linear_1856_6873)"/>
</g>
<path opacity="0.3" d="M18.7215 24.157C18.7585 24.157 18.7884 24.1265 18.7884 24.0889C18.7884 24.0514 18.7585 24.0209 18.7215 24.0209C18.6847 24.0209 18.6548 24.0514 18.6548 24.0889C18.6548 24.1265 18.6847 24.157 18.7215 24.157Z" fill="white"/>
<path opacity="0.2" d="M13.2267 23.8508C13.651 23.8508 13.9949 23.5005 13.9949 23.0685C13.9949 22.6364 13.651 22.2861 13.2267 22.2861C12.8024 22.2861 12.4584 22.6364 12.4584 23.0685C12.4584 23.5005 12.8024 23.8508 13.2267 23.8508Z" fill="white"/>
<g opacity="0.4">
<path opacity="0.6" d="M12.7929 23.5617C12.4923 23.2556 12.4923 22.7623 12.7929 22.4562C12.843 22.4052 12.8931 22.3712 12.9599 22.3372C12.8597 22.3712 12.7762 22.4392 12.6927 22.5073C12.3921 22.8134 12.3921 23.3066 12.6927 23.6127C12.9432 23.8679 13.3274 23.9189 13.628 23.7318C13.3441 23.8508 13.01 23.7998 12.7929 23.5617Z" fill="url(#paint13_linear_1856_6873)"/>
</g>
<path opacity="0.3" d="M13.4939 22.8303C13.5861 22.8303 13.6609 22.7542 13.6609 22.6603C13.6609 22.5663 13.5861 22.4902 13.4939 22.4902C13.4017 22.4902 13.3269 22.5663 13.3269 22.6603C13.3269 22.7542 13.4017 22.8303 13.4939 22.8303Z" fill="white"/>
<path opacity="0.2" d="M20.0915 21.9289C20.5157 21.9289 20.8597 21.5786 20.8597 21.1465C20.8597 20.7145 20.5157 20.3642 20.0915 20.3642C19.6671 20.3642 19.3232 20.7145 19.3232 21.1465C19.3232 21.5786 19.6671 21.9289 20.0915 21.9289Z" fill="white"/>
<g opacity="0.4">
<path opacity="0.6" d="M19.64 21.6398C19.3394 21.3337 19.3394 20.8405 19.64 20.5343C19.6902 20.4833 19.7403 20.4493 19.8071 20.4153C19.7069 20.4493 19.6234 20.5173 19.5398 20.5853C19.2392 20.8915 19.2392 21.3847 19.5398 21.6909C19.7904 21.9459 20.1745 21.997 20.4752 21.8099C20.1912 21.9289 19.8739 21.8779 19.64 21.6398Z" fill="url(#paint14_linear_1856_6873)"/>
</g>
<path opacity="0.3" d="M20.3583 20.9084C20.4506 20.9084 20.5253 20.8323 20.5253 20.7383C20.5253 20.6444 20.4506 20.5683 20.3583 20.5683C20.266 20.5683 20.1913 20.6444 20.1913 20.7383C20.1913 20.8323 20.266 20.9084 20.3583 20.9084Z" fill="white"/>
<defs>
<radialGradient id="paint0_radial_1856_6873" cx="0" cy="0" r="1" gradientUnits="userSpaceOnUse" gradientTransform="translate(26.1664 7.13245) scale(7.46468 7.6014)">
<stop stop-color="#FFEAFF" stop-opacity="0.6"/>
<stop offset="0.6807" stop-color="#A087C9"/>
<stop offset="1" stop-color="#10002F"/>
</radialGradient>
<radialGradient id="paint1_radial_1856_6873" cx="0" cy="0" r="1" gradientUnits="userSpaceOnUse" gradientTransform="translate(22.0135 10.3743) scale(18.2633 18.5978)">
<stop stop-color="#FFEAFF" stop-opacity="0.6"/>
<stop offset="0.6807" stop-color="#A087C9"/>
<stop offset="1" stop-color="#10002F"/>
</radialGradient>
<linearGradient id="paint2_linear_1856_6873" x1="14.3345" y1="26.301" x2="17.4282" y2="7.55841" gradientUnits="userSpaceOnUse">
<stop stop-color="#81FFFF"/>
<stop offset="0.6202" stop-color="white" stop-opacity="0"/>
</linearGradient>
<linearGradient id="paint3_linear_1856_6873" x1="22.4117" y1="10.4721" x2="14.5637" y2="17.5434" gradientUnits="userSpaceOnUse">
<stop offset="0.2888" stop-color="white"/>
<stop offset="0.7796" stop-color="white" stop-opacity="0"/>
</linearGradient>
<linearGradient id="paint4_linear_1856_6873" x1="6.9545" y1="21.3538" x2="24.6965" y2="21.3538" gradientUnits="userSpaceOnUse">
<stop stop-color="#0002E9"/>
<stop offset="0.9952" stop-color="#FF00C7"/>
</linearGradient>
<linearGradient id="paint5_linear_1856_6873" x1="25.5363" y1="17.6361" x2="15.7142" y2="26.7515" gradientUnits="userSpaceOnUse">
<stop offset="0.2888" stop-color="white"/>
<stop offset="0.7796" stop-color="white" stop-opacity="0"/>
</linearGradient>
<linearGradient id="paint6_linear_1856_6873" x1="6.9545" y1="21.3538" x2="16.4464" y2="21.3538" gradientUnits="userSpaceOnUse">
<stop stop-color="#000292"/>
<stop offset="0.9952" stop-color="#7D00C7"/>
</linearGradient>
<linearGradient id="paint7_linear_1856_6873" x1="6.96641" y1="17.6789" x2="24.6845" y2="17.6789" gradientUnits="userSpaceOnUse">
<stop stop-color="#000292"/>
<stop offset="0.9952" stop-color="#BE00C7"/>
</linearGradient>
<linearGradient id="paint8_linear_1856_6873" x1="24.3937" y1="8.00195" x2="23.0865" y2="10.088" gradientUnits="userSpaceOnUse">
<stop offset="0.2888" stop-color="white"/>
<stop offset="0.7796" stop-color="white" stop-opacity="0"/>
</linearGradient>
<linearGradient id="paint9_linear_1856_6873" x1="14.7419" y1="23.5598" x2="15.4485" y2="23.5598" gradientUnits="userSpaceOnUse">
<stop offset="0.2888" stop-color="white"/>
<stop offset="0.7796" stop-color="white" stop-opacity="0"/>
</linearGradient>
<linearGradient id="paint10_linear_1856_6873" x1="17.1787" y1="23.3183" x2="17.8853" y2="23.3183" gradientUnits="userSpaceOnUse">
<stop offset="0.2888" stop-color="white"/>
<stop offset="0.7796" stop-color="white" stop-opacity="0"/>
</linearGradient>
<linearGradient id="paint11_linear_1856_6873" x1="16.0972" y1="24.5356" x2="16.6277" y2="24.5356" gradientUnits="userSpaceOnUse">
<stop offset="0.2888" stop-color="white"/>
<stop offset="0.7796" stop-color="white" stop-opacity="0"/>
</linearGradient>
<linearGradient id="paint12_linear_1856_6873" x1="18.2446" y1="24.2798" x2="18.775" y2="24.2798" gradientUnits="userSpaceOnUse">
<stop offset="0.2888" stop-color="white"/>
<stop offset="0.7796" stop-color="white" stop-opacity="0"/>
</linearGradient>
<linearGradient id="paint13_linear_1856_6873" x1="12.4596" y1="23.0884" x2="13.6135" y2="23.0884" gradientUnits="userSpaceOnUse">
<stop offset="0.2888" stop-color="white"/>
<stop offset="0.7796" stop-color="white" stop-opacity="0"/>
</linearGradient>
<linearGradient id="paint14_linear_1856_6873" x1="19.3131" y1="21.1659" x2="20.4671" y2="21.1659" gradientUnits="userSpaceOnUse">
<stop offset="0.2888" stop-color="white"/>
<stop offset="0.7796" stop-color="white" stop-opacity="0"/>
</linearGradient>
</defs>
</svg>
