<?xml version="1.0" encoding="UTF-8"?>
<svg id="Layer_1" data-name="Layer 1" xmlns="http://www.w3.org/2000/svg" viewBox="0 0 1398 1398">
  <defs>
    <style>
      .cls-1 {
        fill: #f3c331;
      }
    </style>
  </defs>
  <rect class="cls-1" x="-1.91" width="1401.81" height="1401.81"/>
  <g>
    <g>
      <path d="m432.9,607.81c-33.25.09-55.83,22.45-55.66,55.11.17,31.45,24.65,55.85,56.05,55.84,31.34-.01,55.02-24.48,54.89-56.72-.13-32.3-22.57-54.32-55.28-54.23Z"/>
      <path d="m1019.74,648.2c-5.57-20.6-21.2-35.15-40.18-39.84,6.85,6.05,12.08,14.09,14.65,23.57,6.98,25.78-8.26,52.33-34.03,59.31-17.47,4.73-35.27-.77-47.12-12.81,8.95,30.5,35.62,45.75,66.28,37.58,31.15-8.3,48.58-37.55,40.4-67.81Z"/>
    </g>
    <path d="m1194.64,520.29c42.69-7.83,73.99-25.4,73.99-25.4l-150.29-103.11,6.46,49.61h-161.25v.03c-.33,0-.65-.02-.97-.02-122.54,0-221.89,99.34-221.89,221.89,0,50.54,16.93,97.1,45.37,134.4l-86.93,87.55-.03.03-.03-.03-88.85-88.83c27.85-37.08,44.36-83.17,44.36-133.12,0-121.96-98.41-220.91-220.15-221.84v-.04h-161.25l6.46-49.61-150.29,103.11s31.31,17.57,73.99,25.4c18.5,3.4,28.07,3.21,37.5,3.46,5.29.14,11.8.25,19.1.35-30.71,38.07-49.13,86.46-49.13,139.18,0,122.54,99.34,221.89,221.89,221.89,41.4,0,80.14-11.37,113.31-31.12l94.21,94.21,58.85,58.8.03-.03.03.03,58.81-58.8,81.41-81.41,11.75-11.75c32.76,19.08,70.83,30.07,111.48,30.07,122.54,0,221.89-99.34,221.89-221.89,0-52.7-18.41-101.08-49.1-139.15,8.42-.11,15.83-.23,21.78-.39,9.43-.24,19-.06,37.5-3.46Zm-900.61,142.99c0-76.53,61.99-138.57,138.49-138.67.11,0,.25,0,.35,0,76.52.09,138.52,62.14,138.52,138.67s-62.09,138.68-138.68,138.68-138.68-62.09-138.68-138.68Zm668.54,138.68c-76.59,0-138.68-62.09-138.68-138.68s62.09-138.68,138.68-138.68,138.68,62.09,138.68,138.68-62.09,138.68-138.68,138.68Z"/>
  </g>
</svg>