<svg viewBox="0 0 124.32419999999999 97.10348837209303" xmlns="http://www.w3.org/2000/svg" id="Layer_2" style="max-height: 500px" width="124.32419999999999" height="97.10348837209303"><defs><style>.cls-1{fill:#fff;}</style></defs><g id="Logotype"><path d="M76.81,9.3l9.27,16.54c1.55,2.76,5.04,3.73,7.79,2.16,9.03-5.12,27.58-11.79,27.58,19.96,0,34.65-32.73,26.86-44.97-4.96-3.99-10.39-8.32-20.53-14.69-29.38h0C38.45-17.11,0,8.46,0,47.79s28.66,51.45,43.52,46.88c3.45-1.06,5-5.07,3.24-8.22l-9.27-16.54c-1.55-2.76-5.04-3.73-7.79-2.16-9.03,5.12-27.58,11.79-27.58-19.96,0-34.65,32.73-26.86,44.97,4.96,3.99,10.39,8.32,20.53,14.69,29.38h0c23.33,30.74,61.78,5.17,61.78-34.16S94.9-3.48,80.04,1.08c-3.45,1.06-5,5.07-3.24,8.22Z" class="cls-1"/><path d="M169.67,93.07c-4.97,3.71-17.95,3.72-25.4-2.08-.2-.16-.39-.33-.56-.54-3.76-4.69,1.47-14.06,8.25-12.16,5.71,2.08,9.56,2.25,10.53-.94.65-2.03.73-2.62-2.29-2.35-6.42.43-13.87-1.75-15.32-9.09-.69-3.22,1.86-12.45,15.44-17.04,7.38-2.53,15.96-2.6,18.75-.73,4.08,2.72,1.69,7.13-1.72,10-1.55,1.3-3.71,1.67-5.56.86-3.38-1.48-10.21-.13-10.98,2.96-.2.93.39,1.35,2.53,1.24,5.75-.28,8.42.34,9.69,1.07.15.09.29.19.42.29,6.67,5.43,2.72,23.15-3.78,28.51Z" class="cls-1"/><path d="M230.5,59.63c-1.47,2.78-4.5,7.47-4.66,13.85-.48,6.2,1.9,14.09,4.05,19.06-2.6,2.97-15.7,9.01-24.86-10.17-1.89-5.06-2.38-8.26-2.17-14.1-.17-.01-.27-.02-.4-.03-1.3,5.29-1.63,13.39,1.17,23.38-3.61,3.24-16.72,8.63-22.81-8.06-3.14-8.17.18-24.82,3.57-33.33,3.61-4.73,16.45-6.19,12.77,1.64-3.57,8.06-5.73,16.06-5.48,21.87.1,0,.21,0,.35,0,.84-3.91,2.13-7.44,3.76-10.78,2.74-5.94,9.16-13.08,10.66-14.59,3.15-.58,9.83-.96,8.11,4.15-1.62,5.53-3.84,12.53-.71,22.56.1-.04.2-.03.31-.02-.94-7.9,5.15-19.56,8.91-23.44,6.76-1.36,11.81,1.08,7.44,8.02Z" class="cls-1"/><path d="M239.75,54.86c5.48-.44,15.69-1.22,17.36,7.99.09,4.28,5.9,16.86,16.18,26.66,3.58,4.83-4.08,11.23-18.57-2.63-2.74-.28-5.5-.25-8.18-.49.66,2.03,1.88,4.6,3.74,7.54-5.57,5.6-19.95-5.21-21.42-15.78-2.43-9.7,6.06-20.01,10.88-23.29ZM247.21,74.46c-1.49-3.17-2.28-6.05-2.52-8.81-.12.02-.23,0-.34-.01-1.14,2.55-1.9,5.19-1.99,8.28,1.67.19,3.21.37,4.85.55Z" class="cls-1"/><path d="M288.61,82.38c-.05,0-.05,0-.1,0-.04.04-.09.04-.18.07,0,0-.04.04-.02.08.23.66,2.36,5.68,5.16,10.37-.34,4.08-11.57,2.79-20.81-7.16-1.82-2-5.39-8.06-5.92-13.57-.89-5.6,1.26-10.64,2.47-12.73,4.46-2.28,24.66-5.74,37.5-2.46,10.25,2.69,12.34,16.87.56,23.17-8.25,4.67-17.53,2.61-18.65,2.22ZM286.72,67.87c0,1.52.07,2.54.24,3.82.01.15.43.44.65.44,1.38,0,2.79.02,4.2-.18,1.7-.21,2.45-1.02,2.38-2.52-.07-1.55-3.85-3.07-7.47-1.56Z" class="cls-1"/><path d="M171.73,29.15c-.07,0,1.36,6.58-.08,10.61-5.5,3.56-12.66,2.06-16.66-6.85-.96-2.29-1.77-6.8-5.03-12.86-.06-.12-4.13,1.8-5.25,1.34-1.53-.63-6.12-3.72-4.79-10.83,1.21-6.48,30.89-12.74,46.64-6.37,13.61,5.58,15.15,19.68,7.84,24.26-7.59,4.76-21.6,1.03-22.67.69ZM167.63,15.53l1.78,3.55c3.48,1.39,8.48,1.53,9.97,1.38,1.78-.15,2.19-1.22,1.65-2.74-.33-.88-2.13-2.09-4.02-2.69-3.66-1.17-7.87-.15-9.39.51Z" class="cls-1"/><path d="M197.54,6.77c-.88-1.43-.26-3.31,1.3-3.92,5.84-2.26,17.92-3.64,29.27,9.16,7.3,7.61,9.6,26.99,5.46,33.32-3.76,1.58-16.56,1.05-13.41-6.68-2.37-.52-5.2-.85-7.82-1.29-1.3,1.22-2.76,2.68-4.25,4.23-11.69,1.62-17.24-3.47-10.92-10.84,8.32-9.71,4.42-17.37.37-23.98ZM221.49,28.74s.39-5.72-5.77-11.04c.46,3.3,1.38,7.5.5,10.31,1.88.25,3.55.48,5.27.73Z" class="cls-1"/><path d="M253.4,31.93c-.63,4.89,2.06,6.58,6.25,6.32,2.73-.14,6.99-2.36,8.14-3.02,5.38,1.16,5.44,11.02-7.72,14.41-5.44,1.41-12.09.26-15.62-1.37-5.42-2.54-6.32-6.63-5.86-12.89.31-4.4.57-9.07,1.09-14.56.54-6.2,1.95-11.34,6.06-15.31,5.04-5.5,16.59-5.25,28.03,2.78,3.66,11.84-5.24,16.55-10.11,13.89-11.47-5.98-9.88,6.47-10.26,9.75Z" class="cls-1"/><path d="M304.09,19.88c-.43,8.74-3.06,21.36-5.19,26.87-6.13,4.56-18.63,4.49-17.02-4.25.25-2.13,3.09-10.26,4.45-20-2.99.56-6.13.86-8.81.34-1.65-3.65-2.62-22.12,5.71-19.33,16.5,5.53,28.21-.14,33.58-2.55,3.11,2.63,4.75,14.68-12.72,18.91Z" class="cls-1"/></g></svg>