<svg width="3531" height="1577" viewBox="0 0 3531 1577" fill="none" xmlns="http://www.w3.org/2000/svg">
<path d="M799.401 1576.34H0V1217.63C0 545.153 545.154 4.42151e-05 1217.63 4.42151e-05H1484C1605.88 4.42151e-05 1704.69 98.8052 1704.69 220.688V329.63C1704.69 574.169 1902.93 772.406 2147.46 772.406C2245.28 772.406 2324.57 851.701 2324.57 949.517V1471.48C2324.57 1529.39 2277.63 1576.34 2219.71 1576.34H1657.71C1633.89 1576.34 1614.58 1557.03 1614.58 1533.21V1222.03C1614.58 996.926 1432.1 814.442 1206.99 814.442H1140.94C952.314 814.442 799.401 967.355 799.401 1155.98V1576.34Z" fill="#E96C19"/>
<path d="M2980.77 0.000488281H3531V194.574C3531 683.757 3134.44 1080.32 2645.26 1080.32L2556.33 1080.32C2507.61 1080.32 2468.11 1040.12 2468.11 991.398C2468.11 750.052 2272.46 550.962 2031.11 550.962C1958.71 550.962 1900.01 492.268 1900.01 419.864V91.8275C1900.01 41.1128 1941.13 0.000488281 1991.84 0.000488281H2438.55C2454.87 0.000488281 2468.11 13.233 2468.11 29.5563V265.824C2468.11 407.391 2582.87 522.154 2724.44 522.154H2746.7C2875.97 522.154 2980.77 417.358 2980.77 288.085V0.000488281Z" fill="#E96C19"/>
</svg>
