<svg xmlns="http://www.w3.org/2000/svg" xmlns:xlink="http://www.w3.org/1999/xlink" version="1.1" id="Layer_1" x="0px" y="0px" viewBox="0 0 299 299" style="enable-background:new 0 0 299 299;" xml:space="preserve">
<style type="text/css">
	.st0{fill:#CBA68D;}
    .st1{fill:#2B2129;}
    .st2{fill:#BB9168;}
    .st3{fill:#E5D1B8;}
    .st4{fill:#CBA58C;}
    .st5{fill:#D7AF94;}
    .st6{fill:#C2956D;}
</style>
    <g id="logoMark_00000040551784622246166850000015144491039886353084_">
	<a xlink:href="31.6811764705882">
		<path id="logoMark__x3C_PathItem_x3E__00000049213851266369968490000016976452478239201450_" class="st0" d="M71.1,61.7    c-3.3-0.2-6.7-0.3-9.6,2c-1.4,1.2-3.3,3.1-2.6,5.5c0.1,0.2,0.2,0.5,0.3,0.7c0,0.1,0.1,0.1,0.1,0.2c0.1,0.1,0.2,0.3,0.3,0.4    c0,0.1,0.1,0.1,0.1,0.2c0.1,0.1,0.2,0.2,0.3,0.3c0.1,0,0.1,0.1,0.2,0.1c0.1,0.1,0.3,0.2,0.4,0.3c0.1,0,0.2,0.1,0.2,0.1    c0.1,0.1,0.3,0.2,0.5,0.2c0.1,0,0.2,0.1,0.3,0.1c0.2,0.1,0.3,0.1,0.5,0.1c0.1,0,0.2,0,0.3,0.1c0.2,0,0.4,0.1,0.6,0.1    c0.1,0,0.3,0,0.4,0c0.1,0,0.3,0,0.4,0c0.1,0,0.2,0,0.2,0c3.4-0.1,6.9-0.1,10.3,0c1,0,2,0,3,0c0.3,0,0.7,0,1,0c0,0.2,0,0.3-0.1,0.5    c0,0.2-0.1,0.4-0.1,0.6c0,0.2-0.1,0.4-0.1,0.6c0,0.2-0.1,0.4-0.1,0.6c0,0.2-0.1,0.4-0.1,0.6c0,0.2-0.1,0.4-0.1,0.5    c-0.1,0.2-0.1,0.4-0.2,0.5c-0.1,0.2-0.1,0.3-0.2,0.5c-0.1,0.2-0.1,0.3-0.2,0.5c-0.1,0.2-0.1,0.3-0.2,0.5c-0.1,0.2-0.2,0.3-0.2,0.5    c-0.1,0.1-0.1,0.3-0.2,0.4c-0.1,0.2-0.2,0.3-0.3,0.4C76.1,79,76,79.2,76,79.3c-0.1,0.1-0.2,0.3-0.3,0.4c-0.1,0.1-0.2,0.3-0.3,0.4    c-0.1,0.1-0.2,0.3-0.3,0.4c-0.1,0.1-0.2,0.2-0.3,0.4c-0.1,0.1-0.2,0.2-0.4,0.4c-0.1,0.1-0.2,0.2-0.3,0.3c-0.1,0.1-0.3,0.2-0.4,0.3    c-0.1,0.1-0.2,0.2-0.3,0.3c-0.1,0.1-0.3,0.2-0.4,0.3c-0.1,0.1-0.2,0.2-0.4,0.3c-0.2,0.1-0.3,0.2-0.5,0.3c-0.1,0.1-0.2,0.2-0.4,0.2    c-0.2,0.1-0.3,0.2-0.5,0.3c-0.1,0.1-0.2,0.1-0.4,0.2c-0.2,0.1-0.4,0.2-0.6,0.3c-0.1,0-0.2,0.1-0.3,0.1c-0.3,0.1-0.7,0.3-1,0.4    c-0.5,0.2-0.9,0.3-1.4,0.4c-0.2,0-0.3,0.1-0.5,0.1c-0.3,0.1-0.6,0.1-1,0.2c-0.2,0-0.4,0.1-0.7,0.1c-0.3,0-0.5,0.1-0.8,0.1    c-0.3,0-0.5,0-0.8,0c-0.2,0-0.4,0-0.6,0c-0.3,0-0.6,0-0.8,0c-0.2,0-0.4,0-0.6,0c-0.3,0-0.6,0-0.9,0c-0.2,0-0.4,0-0.5,0    c-0.3,0-0.6,0-0.9-0.1c-0.2,0-0.3,0-0.5,0c-0.3,0-0.5-0.1-0.8-0.1c-0.2,0-0.4,0-0.6-0.1c-7.5-6-10.1-14.6-6.8-23    c3.4-8.7,10.6-12.9,20.9-12.3c2.3,0.8,4.6,1.7,6.7,2.9c0,0,0,0,0,0c0.4,0.2,0.7,0.4,1,0.6c0,0,0,0,0,0c0.3,0.2,0.7,0.4,1,0.7    c0,0,0,0,0,0c0.3,0.2,0.6,0.5,1,0.7c0,0,0,0,0,0c0.3,0.2,0.6,0.5,0.9,0.8c0,0,0,0,0.1,0c0.3,0.3,0.6,0.5,0.8,0.8    c0,0,0.1,0.1,0.1,0.1c0.2,0.3,0.5,0.5,0.7,0.8c0,0.1,0.1,0.1,0.1,0.2c0.2,0.3,0.4,0.5,0.6,0.8c0.1,0.1,0.1,0.2,0.2,0.3    c0.2,0.2,0.3,0.5,0.5,0.7c0.1,0.2,0.2,0.3,0.3,0.5c0.1,0.2,0.2,0.4,0.3,0.6c0.1,0.3,0.3,0.5,0.4,0.8c0,0.1,0.1,0.2,0.1,0.3    l-13.9,0C72.2,61.8,71.7,61.8,71.1,61.7"/>
	</a>
        <path id="logoMark__x3C_CompoundPathItem_x3E__00000152970818497399992360000010383176191387584948_" class="st1" d="M62.9,86.4   c-0.1,0-0.2,0-0.3,0l-0.2,0l-0.2,0l-0.4,0c-0.2,0-0.5,0-0.7,0l-3.8-0.3l-0.2-0.2c-7.9-6.3-10.5-15.3-7.1-24   c3.5-9.1,11.1-13.5,21.8-12.9l0.3,0.1c2.9,1,5,1.9,6.9,3c0.4,0.2,0.7,0.4,1.1,0.7c0.4,0.2,0.7,0.5,1.1,0.7c0.4,0.3,0.7,0.5,1,0.8   c0.3,0.3,0.7,0.6,1,0.8c0.3,0.3,0.6,0.6,0.9,0.9c0.4,0.4,0.6,0.7,0.9,1l0.2,0.2c0.2,0.3,0.4,0.6,0.6,0.8l0.2,0.2   c0.2,0.4,0.4,0.6,0.6,0.9c0.1,0.1,0.2,0.3,0.2,0.4l-0.7,0.6l0.8-0.4c0.1,0.2,0.2,0.4,0.3,0.6c0.1,0.3,0.3,0.6,0.4,0.9l0.7,1.6   l-15.3,0c-0.6,0-1.1,0-1.7-0.1l0,0c-3.2-0.2-6.3-0.3-8.9,1.8c-2,1.7-2.7,3-2.3,4.5c0.1,0.2,0.1,0.4,0.2,0.5   c0.1,0.2,0.2,0.4,0.3,0.5c0.2,0.2,0.3,0.3,0.4,0.4c0.2,0.2,0.3,0.3,0.4,0.3l0.2,0.1c0.1,0.1,0.2,0.1,0.4,0.2l-0.1,1l0.3-0.9   c0.1,0,0.3,0.1,0.4,0.1l0.3,0c0.2,0,0.3,0.1,0.5,0.1l0.8,0l0.2,0c3.5-0.1,7.1-0.1,10.3,0l5,0l-0.2,1.5l-0.9,0.1l0.8,0.1L79,73.9   l-1,0.1l0.9,0.2l-0.2,0.9l-1,0l0.9,0.2l-0.3,0.8l-1,0l0.9,0.3L78,77.3l-1-0.1l0.9,0.3l-0.3,0.8l-1-0.2l0.8,0.4l-0.2,0.3   c-0.1,0.1-0.1,0.2-0.2,0.4L76.1,79l0.8,0.5l-0.2,0.3c-0.1,0.1-0.2,0.2-0.2,0.3l-0.9-0.3l0.8,0.5l-0.2,0.3c-0.1,0.1-0.2,0.2-0.3,0.3   L75,80.6l0.7,0.6l-0.2,0.3c-0.1,0.1-0.2,0.2-0.3,0.3l-0.9-0.4L75,82l-0.2,0.2c-0.1,0.1-0.2,0.2-0.3,0.3L73.6,82l0.6,0.7L74,82.9   c-0.1,0.1-0.2,0.2-0.3,0.3l-0.8-0.6l0.6,0.7l-0.3,0.2c-0.1,0.1-0.3,0.2-0.4,0.2L72,83.1l0.5,0.8l-0.3,0.2c-0.1,0.1-0.3,0.2-0.4,0.2   l-0.7-0.7l0.4,0.8l-0.3,0.1c-0.2,0.1-0.4,0.2-0.6,0.3l-0.6-0.8l0.4,0.8L70.3,85c-0.3,0.1-0.7,0.3-1.1,0.4c-0.5,0.2-1,0.3-1.5,0.4   l-0.3,0.1L67.1,85l0.1,0.9c-0.3,0.1-0.6,0.1-0.9,0.2c-0.2,0-0.3,0-0.5,0.1l-0.4,0.1c-0.2,0-0.4,0.1-0.6,0.1c-0.2,0-0.4,0-0.6,0   l-0.9,0C63.2,86.4,63.1,86.4,62.9,86.4z M62.4,84.6l0.2,0c0.2,0,0.4,0,0.6,0l0.8,0c0.2,0,0.3,0,0.5,0c0.2,0,0.3,0,0.5-0.1l0.9-0.1   c0.3,0,0.5-0.1,0.8-0.2l0.6-0.1c0.4-0.1,0.9-0.2,1.3-0.4c0.3-0.1,0.6-0.2,0.9-0.3l0.3-0.1c0.3-0.1,0.4-0.2,0.6-0.3l0.5-0.2   c0.1-0.1,0.2-0.1,0.4-0.2l3.1-2.7l1.9-3.2l1-3.4l-2.9,0c-3.2,0-6.8,0-10.2,0l-0.3,0c-0.1,0-0.2,0-0.3,0l-0.2-0.9l0,0.9   c-0.1,0-0.2,0-0.3,0c-0.2,0-0.4,0-0.6-0.1c-0.2,0-0.3,0-0.4-0.1c-0.2,0-0.4-0.1-0.6-0.2c-0.2,0-0.3-0.1-0.3-0.1   c-0.2-0.1-0.4-0.2-0.6-0.2c-0.1-0.1-0.2-0.1-0.3-0.1c-0.2-0.1-0.3-0.2-0.5-0.3c-0.1-0.1-0.2-0.1-0.2-0.2c-0.1-0.1-0.3-0.3-0.4-0.4   c-0.1-0.1-0.2-0.2-0.2-0.2c-0.1-0.2-0.2-0.4-0.3-0.5c-0.1-0.1-0.1-0.1-0.1-0.2c-0.1-0.3-0.2-0.5-0.3-0.9c-1-3.3,1.9-5.7,2.9-6.5   c3.2-2.6,6.9-2.4,10.2-2.3l0,0.9l0-0.9l0,0c0.5,0,1.1,0.1,1.6,0.1l12.4,0c0-0.1-0.1-0.2-0.1-0.3L84.8,60c-0.1-0.2-0.3-0.5-0.4-0.7   L84.1,59c-0.2-0.3-0.4-0.5-0.6-0.8l0.6-0.8l-0.7,0.6c-0.2-0.3-0.4-0.5-0.7-0.8c-0.3-0.4-0.6-0.6-0.9-0.9c-0.3-0.3-0.6-0.5-0.9-0.8   c-0.3-0.3-0.6-0.5-0.9-0.7c-0.3-0.2-0.6-0.4-1-0.7c-0.3-0.2-0.7-0.4-1-0.6c-1.8-1-3.7-1.9-6.4-2.8c-9.8-0.6-16.7,3.5-19.9,11.7   c-3.1,7.9-0.7,16,6.3,21.7l2.9,0.2c0.4,0,0.6,0,0.9,0l0.3,0L62.4,84.6z"/>
        <a xlink:href="85.5286274509804">
		<path id="logoMark__x3C_PathItem_x3E__00000026881531354947836420000006118795586362403976_" class="st1" d="M73.2,62.6    c0.1,0.1,0.2,0.1,0.3,0.2c0.1,0.1,0.2,0.1,0.3,0.2c0.1,0.1,0.2,0.2,0.3,0.2c0.1,0.1,0.2,0.1,0.3,0.2c0.1,0.1,0.2,0.1,0.2,0.2    c0.1,0.1,0.2,0.2,0.3,0.3c0,0,0,0,0,0c0.8,0.8,1.6,1.7,2.2,2.7c0,0,0,0,0,0c0.1,0.2,0.2,0.4,0.3,0.6c0,0,0,0,0,0    c0.1,0.2,0.2,0.4,0.3,0.6c0,0,0,0,0,0c0.1,0.2,0.2,0.4,0.2,0.6c0,0,0,0,0,0.1c0.1,0.2,0.1,0.4,0.2,0.6c0,0,0,0.1,0,0.1    c0,0.2,0.1,0.4,0.1,0.6c0,0.1,0,0.1,0,0.2c0,0.2,0,0.4,0.1,0.6c0,0.1,0,0.2,0,0.2c0,0.2,0,0.3,0,0.5c0,0.1,0,0.2,0,0.3    c-1.3,0-2.7,0-4,0c-0.9,0-1.9,0-2.9,0c-2.5,0-4.9,0-7.4,0c-2.7,0-4.2-0.8-4.8-2.6c-0.6-2.2,1.1-3.9,2.4-5c0.2-0.2,0.5-0.4,0.7-0.5    c0.1,0,0.1-0.1,0.2-0.1c0.2-0.1,0.4-0.3,0.7-0.4c0,0,0,0,0,0c0.2-0.1,0.5-0.2,0.7-0.3c0.1,0,0.1,0,0.2-0.1    c0.2-0.1,0.4-0.1,0.7-0.2c0,0,0.1,0,0.1,0c0.3-0.1,0.5-0.1,0.8-0.2c0.1,0,0.1,0,0.2,0c0.2,0,0.4-0.1,0.7-0.1c0,0,0.1,0,0.1,0    c0.3,0,0.5,0,0.8-0.1c0.1,0,0.1,0,0.2,0c0.2,0,0.4,0,0.6,0c0,0,0.1,0,0.1,0c0.4,0,0.8,0,1.2,0c0,0,0,0,0.1,0c0.4,0,0.8,0,1.2,0.1    c0.5,0,1.1,0.1,1.6,0.1c0.1,0.1,0.2,0.1,0.2,0.2C73,62.5,73.1,62.6,73.2,62.6z"/>
	</a>
        <path id="logoMark__x3C_CompoundPathItem_x3E__00000109012669903403418650000008039582496844403380_" class="st1" d="M64,72.7   c-3,0-4.8-1.1-5.5-3.3c-0.9-3,1.8-5.3,2.7-6c0.3-0.2,0.5-0.4,0.8-0.6l0.2-0.1c0.2-0.2,0.5-0.3,0.7-0.4c0.3-0.2,0.6-0.3,0.9-0.4   l0.2-0.1c0.2-0.1,0.5-0.2,0.7-0.2c0.4-0.1,0.6-0.2,0.9-0.2l0.2,0c0.2,0,0.5-0.1,0.7-0.1c0.4,0,0.7-0.1,1-0.1l0.2,0   c0.3,0,0.5,0,0.8,0c0.5,0,0.9,0,1.3,0l1.3,0.1c0.5,0,1.1,0.1,1.6,0.1l0.3,0l0.4,0.3L73,62.5l0.6-0.7l0.4,0.3l-0.4,0.9l0.6-0.7   l0.4,0.3l-0.4,0.8l0.6-0.7l0.4,0.3l-0.5,0.8l0.6-0.7l0.2,0.2c1,1,1.8,1.9,2.4,2.9c0.1,0.2,0.3,0.4,0.4,0.7c0.1,0.2,0.2,0.5,0.3,0.7   c0.1,0.3,0.2,0.5,0.3,0.7c0.1,0.3,0.2,0.5,0.2,0.8c0.1,0.3,0.1,0.6,0.2,0.8c0.1,0.4,0.1,0.6,0.1,0.8l0,0.3c0,0.2,0,0.3,0,0.5l0,0.3   l0,0.9l-7.8,0c-2.5,0-4.9,0-7.4,0C64.1,72.7,64,72.7,64,72.7z M65.9,62.3l0.2,0.9c-0.2,0-0.5,0.1-0.7,0.1c-0.3,0.1-0.5,0.1-0.7,0.2   c-0.4,0.1-0.6,0.2-0.8,0.3c-0.2,0.1-0.4,0.2-0.6,0.4L63,64.4c-0.2,0.1-0.4,0.3-0.6,0.5c-1.9,1.5-2.5,2.8-2.1,4.1c0.3,0.9,1,2,3.9,2   c2.5-0.1,5-0.1,7.4,0l6.5,0l0.3-0.1l-0.9,0.1c0-0.2,0-0.3-0.1-0.5c-0.1-0.3-0.1-0.5-0.1-0.7c-0.1-0.3-0.1-0.5-0.2-0.7   c-0.1-0.3-0.2-0.4-0.2-0.6c-0.1-0.2-0.2-0.4-0.3-0.6c-0.1-0.2-0.2-0.4-0.3-0.6c-0.5-0.9-1.2-1.7-2.1-2.5l-1.8-1.5   c-0.4,0-0.9,0-1.3-0.1L69.8,63c-0.4,0-0.8,0-1.2,0c-0.3,0-0.6,0-0.8,0l-0.2-0.9l0,0.9c-0.2,0-0.5,0-0.7,0.1c-0.3,0-0.5,0.1-0.7,0.1   L65.9,62.3z"/>
        <a xlink:href="40.0454901960784">
		<path id="logoMark__x3C_PathItem_x3E__00000075124844226717336210000005144310366902524092_" class="st2" d="M81.3,89.3    c-5.5,0.1-11.1,0.3-16.6-0.8c-2.3-0.5-4.6-1.1-6.5-2.8c0.1,0,0.2,0,0.3,0c0.2,0,0.5,0,0.7,0.1c0.2,0,0.4,0,0.6,0    c0.2,0,0.5,0,0.8,0.1c0.2,0,0.4,0,0.6,0c0.3,0,0.5,0,0.8,0c0.2,0,0.4,0,0.6,0c0.1,0,0.1,0,0.2,0c0.1,0,0.2,0,0.4,0    c0.3,0,0.7,0,1,0c0.2,0,0.4,0,0.6,0c0.3,0,0.6-0.1,1-0.1c0.2,0,0.4,0,0.6-0.1c0.3-0.1,0.7-0.1,1-0.2c0.2,0,0.3-0.1,0.5-0.1    c0.5-0.1,1-0.3,1.5-0.4c0.4-0.1,0.7-0.2,1-0.4c5-2,7.8-6.1,8.7-12.4h0l0-0.2l0-0.2l0,0c0-0.2,0-0.4,0-0.7c0-0.1,0-0.2,0-0.3    c0-0.2,0-0.4-0.1-0.5c0-0.1,0-0.2-0.1-0.3c0-0.2-0.1-0.3-0.1-0.5c0-0.1-0.1-0.2-0.1-0.3c0-0.1-0.1-0.3-0.1-0.4    c0-0.1-0.1-0.2-0.1-0.3c0-0.1-0.1-0.3-0.1-0.4c0-0.1-0.1-0.2-0.1-0.3c-0.1-0.1-0.1-0.2-0.2-0.4c0-0.1-0.1-0.2-0.2-0.3    c-0.1-0.1-0.1-0.2-0.2-0.3c-0.1-0.1-0.1-0.2-0.2-0.3c-0.1-0.1-0.1-0.2-0.2-0.3c-0.1-0.1-0.1-0.2-0.2-0.3c-0.1-0.1-0.2-0.2-0.2-0.3    c-0.1-0.1-0.1-0.2-0.2-0.3c-0.1-0.1-0.2-0.2-0.2-0.3c-0.1-0.1-0.1-0.2-0.2-0.3c-0.1-0.1-0.2-0.2-0.3-0.3c-0.1-0.1-0.2-0.2-0.2-0.2    c-0.1-0.1-0.2-0.2-0.3-0.3c-0.1-0.1-0.2-0.2-0.2-0.2c-0.1-0.1-0.2-0.2-0.3-0.3c-0.1-0.1-0.2-0.2-0.2-0.2c-0.1-0.1-0.2-0.2-0.3-0.2    c-0.1-0.1-0.2-0.1-0.3-0.2c-0.1-0.1-0.2-0.2-0.3-0.2c-0.1-0.1-0.2-0.1-0.2-0.2c0,0,0,0,0,0l13.5,0c0.1,0.2,0.2,0.4,0.3,0.5    c0.1,0.2,0.2,0.3,0.3,0.5c0.1,0.2,0.2,0.4,0.3,0.6c0.1,0.2,0.2,0.3,0.2,0.5c0.1,0.2,0.1,0.4,0.2,0.6c0.1,0.2,0.1,0.3,0.2,0.5    c0.1,0.2,0.1,0.4,0.2,0.6c0,0.2,0.1,0.3,0.1,0.5c0,0.2,0.1,0.4,0.1,0.6c0,0.2,0.1,0.3,0.1,0.5c0,0.2,0.1,0.5,0.1,0.7    c0,0.1,0,0.3,0,0.4c0,0.3,0,0.5,0.1,0.8c0,0.1,0,0.2,0,0.3c0,0.4,0,0.7,0,1.1c0.1,4.4,0.1,8.8,0.1,13.1c0,1.7,0,3.5,0,5.2    C86.6,89.2,83.9,89.3,81.3,89.3z"/>
	</a>
        <path id="logoMark__x3C_CompoundPathItem_x3E__00000155135932162275345270000012049249469015119293_" class="st1" d="M75.8,90.4   c-3.8,0-7.5-0.2-11.3-1c-2.4-0.5-4.9-1.2-6.9-3.1l-2.1-1.9l2.8,0.3l0.1,0.7l0.1-0.1l0.1-0.6l3.8,0.2l0.2,0.9l0-0.9l0.3,0   c0.3,0,0.6,0,1,0l0.6,0c0.3,0,0.6-0.1,0.9-0.1l0.5-0.1c0.3,0,0.7-0.1,1-0.2l0.5-0.1c0.5-0.1,1-0.2,1.4-0.4c0.3-0.1,0.7-0.2,1-0.4   c4.7-1.9,7.3-5.7,8.1-11.6l0-0.2l0-0.1c0-0.2,0-0.4,0-0.6l0.9-0.3l-0.9,0.1c0-0.2,0-0.3,0-0.5l-0.6-2.3l-1.4-2.3L72.9,63l-2.1-1.7   l2.6,0l14,0l0.3,0.4c0.1,0.1,0.2,0.3,0.3,0.5l0.2,0.3c0.1,0.1,0.2,0.3,0.2,0.4c0.1,0.2,0.2,0.3,0.2,0.5l0.1,0.3   c0.1,0.1,0.1,0.3,0.2,0.4c0.1,0.2,0.1,0.3,0.2,0.5l0.1,0.3c0,0.1,0.1,0.3,0.1,0.4c0.1,0.2,0.1,0.3,0.1,0.5l0.1,0.3   c0,0.1,0.1,0.2,0.1,0.4c0,0.2,0.1,0.3,0.1,0.5l0.1,0.7c0,0.2,0,0.4,0.1,0.6l-0.9,0.4l0.9-0.1l0,0.3c0,0.3,0,0.5,0.1,0.8l0,0.3   c0,0.4,0,0.7,0,1.1c0.1,4.3,0.1,8.8,0.1,13l0,6.3l-1,0c-2.7-0.1-5.3,0-7.9,0.1h0l0-0.9l0,0.9C79.4,90.3,77.6,90.4,75.8,90.4z    M81.2,88.4l0,0.9L81.2,88.4c2.3-0.1,4.7-0.1,7.1-0.1l0-4.3c0-4.3,0-8.8-0.1-13.1c0-0.3,0-0.7,0-1l0.9-0.3l-0.9,0   c0-0.3,0-0.5,0-0.8l0-0.4c0-0.3-0.1-0.5-0.1-0.7l-0.1-0.5c-0.1-0.3-0.1-0.5-0.1-0.6l-0.1-0.5c-0.1-0.3-0.1-0.4-0.2-0.6l-0.2-0.5   c-0.1-0.3-0.1-0.4-0.2-0.6c0-0.1-0.1-0.2-0.1-0.3L87,64.2c-0.1-0.3-0.2-0.4-0.3-0.5c0-0.1-0.1-0.2-0.2-0.3l-0.1-0.2   c0,0,0-0.1-0.1-0.1l-10.5,0l2,2.4l1.1,2.1c0.1,0.1,0.1,0.3,0.1,0.4l0.1,0.4c0,0.1,0.1,0.3,0.1,0.4l0.1,0.4c0,0.1,0.1,0.3,0.1,0.4   l0.1,0.4c0,0.2,0,0.4,0.1,0.6l0,0.1l0.2,0l-0.1,1.3l0,0.1l0,0.9h-0.1c-1,6.2-4,10.2-9.1,12.3c-0.4,0.1-0.7,0.3-1.1,0.4   c-0.5,0.2-1.1,0.3-1.6,0.4l-0.4,0.1c-0.5,0.1-0.9,0.2-1.3,0.2l-0.6,0.1c-0.4,0-0.7,0.1-1,0.1l-0.6,0c-0.3,0-0.7,0-1,0l-0.4,0   l-0.5,0c0.9,0.3,1.8,0.5,2.8,0.7C70.2,88.7,75.8,88.5,81.2,88.4z"/>
        <a xlink:href="16.8117647058824">
		<path id="logoMark__x3C_PathItem_x3E__00000024702157501308922600000013899942596327672213_" class="st3" d="M119.2,248.7    c-0.1,0.1-0.1,0.2-0.1,0.2c0,0.1-0.1,0.2-0.1,0.2h-8.6c-1.2,0-2.3-0.3-3.5-0.6l-0.3-0.1c-10.7-2.6-17.3-11.5-17.2-23.3    c0.3-32.8,0.2-66.2,0.2-98.5c0-12.3,0-24.6,0-36.8h0l0-0.2c0-1.8,0-3.6,0-5.4c0-4.3,0-8.7-0.1-13.1c0-2.5-0.3-5.4-1.7-8    c-0.2-0.4-0.4-0.7-0.7-1.1c-0.2-0.4-0.3-0.8-0.5-1.2c-0.1-0.1-0.1-0.3-0.2-0.4c-0.1-0.3-0.3-0.5-0.4-0.8c-0.1-0.2-0.2-0.3-0.3-0.4    c-0.1-0.2-0.3-0.4-0.4-0.7c-0.1-0.1-0.2-0.3-0.3-0.4c-0.1-0.2-0.3-0.4-0.4-0.6c-0.1-0.1-0.2-0.3-0.3-0.4c-0.1-0.2-0.3-0.4-0.5-0.5    c-0.1-0.1-0.3-0.3-0.4-0.4c-0.2-0.2-0.3-0.3-0.5-0.5c-0.1-0.1-0.3-0.3-0.4-0.4c-0.2-0.1-0.3-0.3-0.5-0.4c-0.1-0.1-0.3-0.2-0.4-0.4    c-0.2-0.1-0.3-0.3-0.5-0.4c-0.1-0.1-0.3-0.2-0.5-0.3c-0.2-0.1-0.4-0.2-0.5-0.4c-0.2-0.1-0.3-0.2-0.5-0.3c-0.2-0.1-0.4-0.2-0.5-0.3    c-0.2-0.1-0.3-0.2-0.5-0.3c-0.2-0.1-0.4-0.2-0.6-0.3c-0.2-0.1-0.3-0.2-0.5-0.3c-0.2-0.1-0.4-0.2-0.6-0.3c-0.2-0.1-0.4-0.2-0.5-0.3    c-0.2-0.1-0.4-0.2-0.6-0.2c-0.2-0.1-0.4-0.2-0.6-0.2c-0.2-0.1-0.4-0.1-0.5-0.2c-0.2-0.1-0.4-0.2-0.6-0.2c-0.2-0.1-0.3-0.1-0.5-0.2    c-0.2-0.1-0.4-0.2-0.7-0.2c0,0,0,0,0,0c0.1,0,0.3,0,0.4,0c1-0.1,2.1-0.1,3.1-0.1c12.4,0,24.8,0,37.3,0c30.1,0,61.2,0.1,91.9-0.1    c0,0,0.1,0,0.1,0c5.8,0,11.3,2.4,15.5,6.6c4.3,4.4,6.8,10.2,6.7,16c-0.3,33.2-0.2,67-0.1,99.7c0,12.3,0,24.6,0.1,36.9    c-0.5,0-1.1,0-1.6,0c-1.3,0-2.6,0.1-3.9,0.1c-29.9,0-59.8,0-89.6,0l-12,0c-0.2,0-0.3,0-0.5,0c-0.4,0-0.7,0-1.1-0.1    c-6.7-0.9-12.6,1.4-16.3,6.2c-0.1,0.1-0.2,0.2-0.2,0.3c-0.4,0.5-0.8,1.1-1.1,1.7c-0.3,0.6-0.7,1.2-0.9,1.9    c-3.3,7.7-1.3,15.8,5.1,21.1l0.5,0.5h0l0.1,0l0,0l-0.1,0l1.3,0.4l-1,0c1.8,1.8,4.2,2.8,7.1,3.1c0.7,0.1,1.4,0.1,2.1,0.2    c0.3,0,0.5,0,0.8,0c0.5,0,0.9,0,1.4,0.1c0,0,0.1,0,0.1,0c1.4,0,2.7,0.1,4.1,0.1c0.1,0,0.3,0,0.4,0c0.9,0,1.8,0,2.7,0c0,0,0,0,0,0    c-0.2,0.2-0.3,0.3-0.5,0.5c0,0-0.1,0-0.1,0.1c-0.2,0.1-0.4,0.3-0.6,0.4c0,0-0.1,0-0.1,0.1c-0.2,0.1-0.4,0.2-0.6,0.3    c0,0-0.1,0-0.1,0.1c-0.2,0.1-0.4,0.2-0.6,0.3c0,0,0,0,0,0c-0.2,0.1-0.5,0.2-0.7,0.3c-0.1,0-0.2,0.1-0.3,0.1    c-0.1,0-0.1,0.1-0.2,0.1c-0.1,0.1-0.2,0.1-0.3,0.2c-0.1,0-0.1,0.1-0.2,0.1c-0.1,0.1-0.2,0.1-0.3,0.2c-0.1,0-0.1,0.1-0.2,0.1    c-0.1,0.1-0.2,0.1-0.3,0.2c-0.1,0.1-0.1,0.1-0.2,0.2c-0.1,0.1-0.2,0.1-0.2,0.2c-0.1,0.1-0.1,0.1-0.2,0.2    C119.3,248.5,119.2,248.6,119.2,248.7z"/>
	</a>
        <path id="logoMark__x3C_CompoundPathItem_x3E__00000070825908479348524460000003983482335496871849_" class="st1" d="M118.9,250.1   h-8.6c-1.3,0-2.5-0.3-3.7-0.6l-0.3-0.1c-11.1-2.7-18-11.9-17.9-24.2c0.3-32.8,0.2-66.2,0.2-98.4c0-12.3,0-24.6,0-36.9l0-5.6   c0-4.3,0-8.7-0.1-13.1c0-2.3-0.2-5.1-1.6-7.5c-0.2-0.3-0.4-0.7-0.6-1l-0.1-0.2c-0.2-0.4-0.3-0.8-0.5-1.2l-0.2-0.4   c-0.1-0.3-0.3-0.5-0.4-0.7l-0.3-0.4c-0.2-0.3-0.3-0.4-0.4-0.6l-0.3-0.5c-0.1-0.2-0.2-0.3-0.4-0.5l-0.2-0.3   c-0.2-0.3-0.4-0.5-0.5-0.6l-0.3-0.3c-0.2-0.2-0.4-0.4-0.5-0.5l-0.4-0.3c-0.2-0.1-0.3-0.3-0.5-0.4l-0.4-0.3   c-0.2-0.1-0.3-0.3-0.5-0.4L77,52.9L72.6,51l-4.2-1.6l4.9-0.3c2.3-0.1,4.6-0.1,6.9-0.1c11.2,0,22.4,0,33.5,0l0.6,0   c29.9,0,60.8,0.1,91.2-0.1c6.2,0,11.9,2.5,16.3,6.9c4.5,4.5,7,10.6,7,16.7c-0.3,33.2-0.2,66.9-0.1,99.6c0,12.4,0,24.7,0.1,37l0,0.9   l-2.5,0c-1.3,0-2.6,0.1-3.9,0.1l-101.6,0l-0.5,0c-0.4,0-0.8,0-1.2-0.1c-6.3-0.9-11.9,1.2-15.5,5.8l-0.2,0.3   c-0.4,0.5-0.7,1.1-1.1,1.6c-0.3,0.6-0.6,1.1-0.9,1.8c-3.1,7.3-1.3,15,4.9,20.1l0.4,0.4l8,2.3l-5.2-0.1c1.2,0.6,2.7,1.1,4.3,1.2   c0.7,0.1,1.4,0.1,2.1,0.2l1,0c0.4,0,0.7,0,1.1,0c1.5,0,2.8,0.1,4.2,0.1l0.2,0c1.1,0,2,0,2.9,0l2.1,0l-1.4,1.5   c-0.2,0.2-0.4,0.4-0.6,0.6c-0.3,0.2-0.5,0.4-0.8,0.5c-0.4,0.2-0.6,0.3-0.8,0.4l-1.8,0.8l-0.6-0.7l0.4,0.8l-0.3,0.1l-0.7-0.7   l0.5,0.8l-0.2,0.2l-0.7-0.6l0.6,0.7l-0.2,0.2l-0.8-0.5l0.6,0.7l-0.2,0.2l-0.9-0.4l0.7,0.6l-0.6,1L118.9,250.1z M87.9,61.6   c0.2,0.4,0.5,0.7,0.7,1.1c1.5,2.8,1.8,5.8,1.8,8.4c0.1,4.3,0.1,8.8,0.1,13l0,5.7c0,12.3,0,24.6,0,36.8c0,32.3,0.1,65.7-0.2,98.5   c-0.1,11.3,6.2,19.9,16.5,22.3l0.3,0.1c1.1,0.3,2.2,0.6,3.2,0.6h8c0,0,0,0,0-0.1l0,0c0.1-0.1,0.1-0.2,0.2-0.3   c0.1-0.2,0.2-0.2,0.2-0.3c0.1-0.1,0.2-0.2,0.2-0.2l0.3-0.2c0.1-0.1,0.2-0.1,0.3-0.2l1.6-1c0.2-0.1,0.4-0.2,0.6-0.3   c-1.4,0-2.7,0-4-0.1c-0.4,0-0.8,0-1.2-0.1l-1-0.1c-0.7,0-1.4-0.1-2.1-0.2c-3.2-0.3-5.8-1.5-7.7-3.4l-0.9-0.9   c-0.6-0.5-1.2-1.1-1.8-1.7l-0.4-0.4l0.1,0c-5-5.5-6.3-13-3.2-20.1c0.3-0.7,0.6-1.3,1-2c0.4-0.7,0.8-1.3,1.2-1.8l0.2-0.3   c4-5.1,10.2-7.5,17.2-6.5c0.3,0,0.7,0.1,1,0.1l0.6,0l101.6,0c1.3,0,2.6,0,3.8-0.1l0.8,0c0-12,0-24-0.1-36   c-0.1-32.7-0.1-66.5,0.1-99.7c0-5.6-2.3-11.2-6.4-15.4c-4.1-4.1-9.3-6.4-14.9-6.4c-30.5,0.2-61.5,0.2-91.4,0.1l-0.6,0   c-12.1,0-24.3,0-36.4,0l3.3,1.8c0.2,0.1,0.4,0.2,0.6,0.4l0.5,0.3c0.2,0.1,0.4,0.3,0.5,0.4l0.5,0.4c0.2,0.1,0.3,0.3,0.5,0.5l0.4,0.4   c0.2,0.2,0.3,0.3,0.5,0.5l0.4,0.4c0.2,0.2,0.3,0.3,0.4,0.5l0.4,0.5c0.1,0.2,0.3,0.4,0.4,0.5L85,58.3l0.7-0.6l0.2,0.3   c0.1,0.2,0.3,0.4,0.4,0.6l-0.6,0.7l0.8-0.5l0.2,0.3c0.1,0.2,0.3,0.5,0.4,0.8l-0.7,0.6l0.8-0.4l0.1,0.3   C87.5,60.8,87.7,61.2,87.9,61.6z"/>
        <a xlink:href="40.0454901960784">
		<path id="logoMark__x3C_PathItem_x3E__00000159434144387382979900000006518500300111479687_" class="st2" d="M123.6,230.7    c0.1-0.7,0.1-1.3,0.2-2c0.5-2.4-0.7-4-1.8-5.7c-0.1-0.2-0.3-0.4-0.4-0.6c0-0.1-0.1-0.1-0.1-0.2c-0.1-0.2-0.2-0.3-0.3-0.5    c0-0.1-0.1-0.2-0.1-0.2c-0.1-0.1-0.2-0.3-0.2-0.4c0-0.1-0.1-0.2-0.1-0.3c0-0.1-0.1-0.2-0.1-0.3l0.1,0l10.4-0.2    c0.1,0.2,0.2,0.4,0.3,0.6c0.2,0.3,0.3,0.5,0.4,0.8c0.1,0.2,0.2,0.5,0.3,0.7c0.1,0.3,0.2,0.5,0.3,0.8c0.1,0.3,0.2,0.5,0.3,0.8    c0.1,0.2,0.2,0.5,0.2,0.7c0.1,0.3,0.1,0.6,0.2,1c0,0.2,0.1,0.4,0.1,0.6c0.1,0.4,0.1,0.8,0.1,1.2c0,0.1,0,0.2,0,0.4    c0.3,4.8-1.4,9.7-4.9,13.8c-0.2,0.2-0.3,0.3-0.5,0.5c-0.2,0.3-0.5,0.5-0.7,0.8c-0.4,0.4-0.9,0.8-1.3,1.2c-1.2,0-2.3,0-3.5,0    c-1.4,0-2.7,0-4.1-0.1c0,0-0.1,0-0.1,0c-0.3,0-0.7,0-1,0c-1.1,0-2.1-0.1-3.2-0.2c-0.3,0-0.6-0.1-1-0.1c-0.1,0-0.2,0-0.3-0.1    c-0.2,0-0.4-0.1-0.6-0.1c-0.1,0-0.2-0.1-0.3-0.1c-0.2,0-0.4-0.1-0.5-0.1c-0.1,0-0.2-0.1-0.3-0.1c-0.2-0.1-0.3-0.1-0.5-0.2    c-0.1,0-0.2-0.1-0.3-0.1c-0.2-0.1-0.3-0.1-0.4-0.2c-0.1-0.1-0.2-0.1-0.3-0.2c-0.1-0.1-0.3-0.2-0.4-0.2c-0.1-0.1-0.2-0.1-0.3-0.2    c-0.1-0.1-0.3-0.2-0.4-0.3c-0.1-0.1-0.2-0.1-0.3-0.2c-0.1-0.1-0.2-0.1-0.3-0.2l-0.2-0.2c0.5,0,0.9,0,1.4,0c2.5,0,5,0,7.5-1    c0.7-0.3,1.3-0.6,1.9-1C121.3,237.4,123.1,234.5,123.6,230.7z"/>
	</a>
        <path id="logoMark__x3C_CompoundPathItem_x3E__00000058555243120518360500000011108061155072274576_" class="st1" d="M126.2,245.3   l-0.3,0c-1.1,0-2.3,0-3.4,0c-1.4,0-2.8,0-4.2-0.1l-1.1,0c-1.1,0-2.2-0.1-3.3-0.2c-0.3,0-0.7-0.1-1-0.1l-0.2,0   c-0.3-0.1-0.5-0.1-0.8-0.2l-0.3-0.1c-0.3-0.1-0.5-0.1-0.7-0.2l-0.3-0.1c-0.3-0.1-0.4-0.2-0.6-0.2l-0.3-0.1   c-0.2-0.1-0.4-0.2-0.5-0.2l-0.3-0.2c-0.2-0.1-0.3-0.2-0.5-0.3l-0.3-0.2c-0.1-0.1-0.3-0.2-0.4-0.3l-0.9-0.7l-1.7-1.6l2.3,0   c0.5,0,0.9,0,1.4,0c2.4,0,4.9,0,7.2-0.9c0.6-0.2,1.2-0.5,1.8-0.9c2.8-1.7,4.4-4.4,4.9-7.9l0,0c0.1-0.6,0.1-1.3,0.2-1.9   c0.4-2.1-0.6-3.6-1.7-5.1l-0.6-0.8c-0.1-0.2-0.2-0.3-0.3-0.5l-0.1-0.2c-0.1-0.2-0.2-0.4-0.3-0.5l-0.8-1.9l1.4,0l11-0.2l0.3,0.5   c0.1,0.1,0.2,0.3,0.2,0.4l0.2,0.4c0.1,0.2,0.2,0.4,0.4,0.7c0.1,0.2,0.2,0.4,0.2,0.5l0.2,0.4c0.1,0.2,0.2,0.4,0.3,0.6   c0.1,0.2,0.1,0.4,0.2,0.6l0.1,0.5c0.1,0.2,0.1,0.4,0.2,0.5c0.1,0.3,0.1,0.5,0.2,0.8l0.1,0.4c0,0.1,0.1,0.3,0.1,0.4   c0.1,0.4,0.1,0.9,0.2,1.3l0,0.4c0.4,5.1-1.5,10.3-5.2,14.5c-0.1,0.1-0.2,0.2-0.3,0.3l-0.3,0.3c-0.2,0.2-0.4,0.4-0.6,0.7   c-0.4,0.4-0.9,0.9-1.4,1.3L126.2,245.3z M110.6,242.2l0.2,0.1c0.1,0.1,0.3,0.1,0.4,0.2l0.3,0.1c0.2,0,0.3,0.1,0.5,0.1l0.3,0.1   c0.2,0,0.4,0.1,0.6,0.1l0.1,1l0.2-0.9c0.3,0.1,0.6,0.1,0.9,0.1c1,0.1,2.1,0.2,3.1,0.2l1,0c1.5,0,2.8,0.1,4.2,0.1c1.1,0,2.1,0,3.2,0   c0.4-0.3,0.7-0.6,1-0.9c0.2-0.2,0.4-0.4,0.6-0.6l0.3-0.4c0.1-0.1,0.2-0.2,0.3-0.3c3.4-3.8,5-8.5,4.7-13.2l0-0.4   c0-0.4-0.1-0.8-0.1-1.1c0-0.1,0-0.2-0.1-0.3l-0.1-0.5c0-0.2-0.1-0.5-0.2-0.7c0-0.1-0.1-0.3-0.1-0.4l-0.2-0.5   c-0.1-0.2-0.1-0.3-0.2-0.5c-0.1-0.2-0.1-0.3-0.2-0.5l-0.2-0.5c-0.1-0.1-0.1-0.3-0.2-0.4c-0.1-0.2-0.2-0.4-0.3-0.6l-0.2-0.3   l-8.4,0.1c0.1,0.1,0.1,0.2,0.2,0.3l-0.7,0.7l0.8-0.5l0.4,0.6c1.2,1.7,2.6,3.6,2,6.4c0,0.6-0.1,1.3-0.2,2c-0.6,4.1-2.6,7.2-5.8,9.2   c-0.7,0.4-1.3,0.8-2,1C114.7,241.9,112.6,242.1,110.6,242.2z M121.4,221.4l-0.3,0.3l0.5-0.3L121.4,221.4z"/>
        <a xlink:href="85.5286274509804">
		<path id="logoMark__x3C_PathItem_x3E__00000160186345271815246970000003728739363079829641_" class="st1" d="M123.4,228.4l-3,0    c-2.9,0-5.9,0-8.8,0l-0.3,0c-1.4,0-2.8,0-3.2-1.7c-0.4-1.4,0-2.7,1.2-3.9c0.2-0.2,0.4-0.4,0.7-0.6c0.1-0.1,0.1-0.1,0.2-0.2    c0.2-0.1,0.3-0.3,0.5-0.4c0.1-0.1,0.2-0.1,0.2-0.2c0.2-0.1,0.4-0.2,0.6-0.3c0.1,0,0.1-0.1,0.2-0.1c0.2-0.1,0.5-0.2,0.7-0.3    c0.1,0,0.2-0.1,0.3-0.1c0.2-0.1,0.3-0.1,0.5-0.2c0.1,0,0.2-0.1,0.3-0.1c0.2,0,0.3-0.1,0.5-0.1c0.1,0,0.2,0,0.3-0.1    c0.2,0,0.5-0.1,0.8-0.1c0.1,0,0.2,0,0.3,0c0.2,0,0.3,0,0.5,0c0.1,0,0.2,0,0.4,0c0.2,0,0.4,0,0.6,0c0.1,0,0.2,0,0.3,0    c0.3,0,0.6,0.1,0.9,0.1c0,0,0.1,0,0.1,0c0.3,0,0.6,0.1,1,0.1c0,0,0,0,0.1,0c0.3,0.1,0.7,0.1,1.1,0.2c0,0.1,0.1,0.3,0.2,0.4    c0,0.1,0.1,0.2,0.1,0.3c0.1,0.2,0.2,0.3,0.3,0.5c0,0.1,0.1,0.2,0.1,0.3c0.1,0.2,0.2,0.3,0.3,0.5c0,0.1,0.1,0.1,0.1,0.2    c0.2,0.2,0.3,0.4,0.5,0.7c0.1,0.2,0.3,0.4,0.4,0.6c0,0,0.1,0.1,0.1,0.1c0.1,0.2,0.2,0.3,0.3,0.5c0,0,0,0.1,0.1,0.1    c0.1,0.2,0.2,0.3,0.3,0.5c0,0,0,0.1,0.1,0.1c0.1,0.2,0.2,0.3,0.2,0.5c0,0,0,0.1,0,0.1c0.1,0.2,0.1,0.4,0.2,0.6c0,0,0,0.1,0,0.1    c0,0.2,0.1,0.4,0.1,0.6c0,0.1,0,0.1,0,0.2c0,0.2,0,0.4,0,0.5c0,0.1,0,0.2,0,0.3C123.4,228.2,123.4,228.3,123.4,228.4z"/>
	</a>
        <path id="logoMark__x3C_CompoundPathItem_x3E__00000000930253461737195800000008833222282768636805_" class="st1" d="M124.2,229.4   l-3.8,0c-2.9,0-5.9,0-8.8,0l-0.3,0c-1.5,0-3.5,0-4.1-2.3c-0.5-1.7,0-3.3,1.4-4.8c0.2-0.3,0.5-0.5,0.7-0.7l0.2-0.2   c0.2-0.2,0.4-0.3,0.6-0.5l0.3-0.2c0.2-0.1,0.4-0.3,0.6-0.4l0.2-0.1c0.3-0.1,0.5-0.3,0.8-0.4l0.2-0.1c0.3-0.1,0.4-0.2,0.6-0.2   l0.3-0.1c0.2,0,0.4-0.1,0.5-0.1l0.3-0.1c0.3,0,0.5-0.1,0.8-0.1l0.3,0c0.3,0,0.5,0,0.6,0l0.4,0c0.2,0,0.4,0,0.6,0l0.3,0   c0.3,0,0.6,0.1,1,0.1c0.4,0.1,0.8,0.1,1.1,0.2c0.4,0.1,0.8,0.1,1.1,0.2l0.5,0.1l0.4,0.9c0.1,0.3,0.2,0.4,0.3,0.5l0.1,0.2   c0.2,0.3,0.3,0.4,0.4,0.6l-0.6,0.7l0.8-0.5l0.9,1.3c0.2,0.3,0.3,0.5,0.4,0.6c0.2,0.3,0.3,0.5,0.4,0.7c0.2,0.3,0.3,0.5,0.3,0.7   c0.1,0.3,0.2,0.5,0.3,0.8c0.1,0.4,0.1,0.6,0.2,0.8l0,0.2c0,0.2,0,0.4,0,0.6c0,0.1,0,0.2,0,0.3c0,0.2,0,0.3-0.1,0.5L124.2,229.4z    M123.4,227.8L123.4,227.8L123.4,227.8L123.4,227.8z M109.9,222.1l0.6,0.7c-0.2,0.2-0.4,0.4-0.6,0.6c-0.9,1-1.2,2-0.9,3   c0.3,0.9,0.7,1,2.4,1l0.3,0c2.9,0,5.9,0,8.8,0l2.1,0c0-0.1,0-0.1,0-0.2c0-0.3-0.1-0.5-0.1-0.6c-0.1-0.3-0.1-0.4-0.2-0.6   c-0.1-0.2-0.2-0.4-0.2-0.5c-0.1-0.2-0.2-0.4-0.3-0.5l-1.5-2.2c-0.1-0.2-0.2-0.3-0.3-0.5l-0.1-0.2c-0.2-0.3-0.2-0.4-0.3-0.6   l-0.1-0.2l0,0c-0.2,0-0.4-0.1-0.6-0.1c-0.4-0.1-0.7-0.1-1-0.1c-0.4,0-0.7-0.1-1-0.1l-0.3,0c-0.2,0-0.4,0-0.6,0l-0.3,0   c-0.2,0-0.3,0-0.5,0l-0.3,0c-0.2,0-0.5,0-0.7,0.1l-0.3,0.1c-0.1,0-0.3,0.1-0.4,0.1l-0.3,0.1c-0.1,0-0.3,0.1-0.4,0.1l-0.6-0.8   l0.4,0.9c-0.2,0.1-0.4,0.2-0.6,0.3c-0.3,0.2-0.5,0.3-0.6,0.4l-0.2,0.1c-0.2,0.1-0.3,0.2-0.5,0.4L109.9,222.1z M120,220.8L120,220.8   l0.2-0.1L120,220.8z"/>
        <a xlink:href="31.9560784313726">
		<path id="logoMark__x3C_PathItem_x3E__00000176754872546430354820000009535766403506198960_" class="st4" d="M120.2,220.1    c-3.9-0.8-8-1.1-11.3,2.4c-1.3,1.4-1.7,2.8-1.2,4.3c0.6,2,2.2,2,3.6,2l0.3,0c2.9,0,5.7,0,8.6,0l3.2,0c0,0.1,0,0.3,0,0.4    c0,0.2,0,0.3,0,0.5c0,0.2,0,0.3-0.1,0.5c0,0.2,0,0.3-0.1,0.5c0,0.2-0.1,0.3-0.1,0.5c0,0.2-0.1,0.3-0.1,0.5c0,0.2-0.1,0.3-0.1,0.5    c0,0.1-0.1,0.3-0.1,0.4c0,0.1-0.1,0.3-0.1,0.4c0,0.1-0.1,0.3-0.1,0.4c-0.1,0.1-0.1,0.3-0.2,0.4c-0.1,0.1-0.1,0.3-0.2,0.4    c-0.1,0.1-0.1,0.3-0.2,0.4c-0.1,0.1-0.1,0.2-0.2,0.4c-0.1,0.1-0.1,0.2-0.2,0.4c-0.1,0.1-0.1,0.2-0.2,0.3c-0.1,0.1-0.2,0.2-0.2,0.4    c-0.1,0.1-0.2,0.2-0.2,0.3c-0.1,0.1-0.2,0.2-0.3,0.3c-0.1,0.1-0.2,0.2-0.3,0.3c-0.1,0.1-0.2,0.2-0.3,0.3c-0.1,0.1-0.2,0.2-0.3,0.3    c-0.1,0.1-0.2,0.2-0.3,0.3c-0.1,0.1-0.2,0.2-0.3,0.3c-0.1,0.1-0.2,0.2-0.4,0.3c-0.1,0.1-0.2,0.2-0.3,0.2c-0.1,0.1-0.3,0.2-0.4,0.3    c-0.1,0.1-0.2,0.1-0.3,0.2c-0.2,0.1-0.3,0.2-0.5,0.3c-0.1,0.1-0.2,0.1-0.3,0.2c-0.3,0.1-0.5,0.3-0.8,0.4c-2.4,1-4.9,1-7.4,1    c-0.6,0-1.2,0-1.8,0l-0.2-0.2l0.2,0.2c0,0,0,0,0,0l-0.9-0.8l0,0c-6.4-5.2-8.3-13.2-5.1-20.7c0.2-0.4,0.4-0.8,0.6-1.2    c0.1-0.1,0.1-0.3,0.2-0.4c0.1-0.3,0.3-0.5,0.5-0.8c0.1-0.1,0.2-0.3,0.3-0.4c0.2-0.2,0.3-0.5,0.5-0.7c0.1-0.1,0.2-0.3,0.3-0.4    c0.2-0.2,0.3-0.4,0.5-0.6c0.1-0.1,0.2-0.3,0.3-0.4c0.2-0.2,0.4-0.4,0.6-0.6c0.1-0.1,0.2-0.2,0.4-0.3c0.2-0.2,0.4-0.4,0.7-0.6    c0.1-0.1,0.2-0.2,0.3-0.3c0.3-0.2,0.6-0.4,0.9-0.6c0.1,0,0.1-0.1,0.2-0.1c0.4-0.2,0.7-0.5,1.1-0.7c0.1,0,0.1-0.1,0.2-0.1    c0.3-0.2,0.6-0.3,1-0.5c0.1-0.1,0.3-0.1,0.4-0.2c0.3-0.1,0.6-0.2,0.8-0.3c0.1-0.1,0.3-0.1,0.4-0.1c0.3-0.1,0.5-0.2,0.8-0.2    c0.2,0,0.3-0.1,0.5-0.1c0.3-0.1,0.6-0.1,0.8-0.2c0.2,0,0.3-0.1,0.5-0.1c0.3,0,0.6-0.1,0.9-0.1c0.2,0,0.3,0,0.5,0c0.3,0,0.7,0,1,0    c0.1,0,0.2,0,0.4,0c0.3,0,0.7,0,1,0c0.1,0,0.3,0,0.4,0c0.5,0,1,0.1,1.5,0.2c0.4,0.1,0.8,0.1,1.2,0.1c0.1,0,0.2,0,0.4,0    c0,0.1,0,0.1,0,0.2c0,0.1,0,0.2,0.1,0.2c0,0.1,0.1,0.2,0.1,0.2c0,0.1,0.1,0.1,0.1,0.2c0,0.1,0.1,0.1,0.1,0.2    c0,0.1,0.1,0.1,0.1,0.2c0.1,0.1,0.1,0.1,0.2,0.2c0,0,0.1,0.1,0.1,0.1c0.1,0.1,0.1,0.1,0.2,0.2c0,0,0.1,0.1,0.1,0.1    c0.1,0,0.2,0.1,0.2,0.1c0,0,0.1,0.1,0.1,0.1c0.1,0,0.2,0.1,0.3,0.1c0,0,0.1,0,0.1,0.1c0.1,0.1,0.3,0.1,0.4,0.2l0.3,0.1    c0.4,0.2,0.9,0.4,1.3,0.7c0.1,0.1,0.2,0.2,0.4,0.2c0.3,0.2,0.5,0.3,0.8,0.5c0.1,0.1,0.3,0.2,0.4,0.3c0.2,0.2,0.5,0.4,0.7,0.6    c0.1,0.1,0.2,0.2,0.3,0.3c0.2,0.2,0.4,0.4,0.6,0.6c0.1,0.1,0.2,0.2,0.3,0.4c0.2,0.2,0.4,0.4,0.6,0.7c0.1,0.1,0.2,0.3,0.3,0.4    c0.2,0.2,0.3,0.5,0.5,0.7c0.1,0.2,0.2,0.4,0.3,0.5c0.1,0.2,0.3,0.5,0.4,0.7c0.1,0.2,0.2,0.5,0.3,0.7c0.1,0.2,0.1,0.3,0.2,0.5    L120.2,220.1z"/>
	</a>
        <path id="logoMark__x3C_CompoundPathItem_x3E__00000140699680437360763280000007690503773389855638_" class="st1" d="M106.6,241.8   l-0.3-0.3l0,0l0,0l0,0l-0.9-0.8c-6.7-5.5-8.7-13.8-5.3-21.7c0.2-0.4,0.4-0.9,0.6-1.3l0.2-0.3c0.2-0.4,0.4-0.7,0.6-1l0.2-0.3   c0.2-0.3,0.4-0.6,0.6-0.8l0.3-0.4c0.2-0.2,0.4-0.4,0.5-0.6l0.4-0.4c0.2-0.2,0.4-0.4,0.6-0.6l0.4-0.4c0.2-0.2,0.5-0.4,0.7-0.6   l0.3-0.3c0.3-0.2,0.6-0.4,0.9-0.7l0.2-0.1c0.4-0.2,0.8-0.5,1.2-0.7l0.2-0.1c0.3-0.2,0.7-0.3,1-0.5l0.3-0.1c0.4-0.2,0.7-0.3,1-0.4   l0.4-0.1c0.4-0.1,0.7-0.2,0.9-0.3l0.5-0.1c0.3-0.1,0.6-0.1,0.9-0.2l0.5-0.1c0.3,0,0.6-0.1,0.9-0.1l0.5,0c0.4,0,0.7,0,1.1,0l0.4,0   c0.4,0,0.7,0,1.1,0l0.4,0c0.5,0,1,0.1,1.6,0.2c0.3,0,0.7,0.1,1,0.1l1.1,0l0.4,1.4l0.4,0.4l1.4,0.7c0.5,0.2,0.9,0.4,1.3,0.7   c0.1,0.1,0.2,0.1,0.3,0.2l-0.3,0.9l0.5-0.8c0.3,0.2,0.5,0.3,0.8,0.5c0.1,0.1,0.2,0.1,0.3,0.2l-0.4,0.8l0.7-0.7   c0.2,0.2,0.4,0.3,0.6,0.5c0.1,0.1,0.2,0.2,0.3,0.2l-0.5,0.8l0.7-0.6c0.2,0.2,0.4,0.4,0.6,0.6c0.1,0.1,0.2,0.2,0.2,0.3l-0.6,0.8   l0.7-0.6c0.2,0.2,0.4,0.4,0.6,0.7c0.1,0.1,0.1,0.2,0.2,0.3l-0.7,0.7l0.8-0.5c0.2,0.2,0.3,0.5,0.5,0.7c0.1,0.1,0.2,0.3,0.2,0.4   l-0.7,0.6l0.9-0.4c0.1,0.2,0.2,0.4,0.3,0.6c0.1,0.2,0.2,0.5,0.3,0.7l-0.6,0.5l0,0l0.7-0.3l0.7,1.6l-12.1,0.2l-0.1,0   c-4.2-0.9-7.6-0.9-10.4,2.1c-1.1,1.1-1.4,2.2-1,3.4c0.3,1.2,1.1,1.3,2.8,1.3l0.3,0c2.9,0,5.7,0,8.6,0l4.1,0l-0.1,2.3l-0.9,0.1   l0.9,0.1l-0.1,0.8l-1,0.1l0.9,0.2l-0.2,0.7l-1,0l0.9,0.2l-0.2,0.7l-1-0.1l0.9,0.3l-0.2,0.7l-0.9-0.1l0.9,0.3l-0.3,0.6l-0.9-0.2   l0.8,0.4l-0.3,0.6l-0.9-0.3l0.8,0.5l-0.4,0.6l-0.9-0.3l0.8,0.5l-0.4,0.5l-0.9-0.4l0.7,0.6l-0.5,0.5l-0.8-0.5l0.7,0.6l-0.5,0.5   l-0.8-0.5l0.6,0.7l-0.2,0.2c-0.1,0.1-0.2,0.2-0.3,0.2l-0.8-0.6l0.6,0.7l-0.2,0.2c-0.1,0.1-0.2,0.2-0.4,0.2l-0.7-0.7l0.5,0.8   l-0.2,0.1c-0.1,0.1-0.3,0.2-0.4,0.2l-0.6-0.7l0.4,0.8l-0.2,0.1c-0.3,0.1-0.6,0.3-0.9,0.4c-3.2,1.3-6.6,1-9.5,1.1L106.6,241.8z    M107,212.1l0.5,0.8c-0.3,0.2-0.6,0.4-0.8,0.6l-0.2,0.1c-0.3,0.3-0.5,0.4-0.7,0.6l-0.3,0.2c-0.2,0.2-0.4,0.4-0.6,0.6l-0.3,0.4   c-0.2,0.2-0.3,0.4-0.5,0.6l-0.3,0.4c-0.2,0.2-0.3,0.4-0.4,0.6l-0.3,0.4c-0.2,0.2-0.3,0.5-0.4,0.7l-0.2,0.4   c-0.2,0.4-0.4,0.8-0.6,1.2c-3.1,7.1-1.2,14.6,4.8,19.6l0.6,0.6c2.9,0,5.8,0.2,8.5-0.9c0.3-0.1,0.5-0.2,0.8-0.3l0.3-0.1   c0.2-0.1,0.3-0.2,0.5-0.2l3.2-2.9l1.4-3.1l0.5-2.5l-2.2,0c-2.9,0-5.7,0-8.6,0l-0.3,0c-1.5,0-3.8,0-4.5-2.6c-0.5-1.9,0-3.6,1.5-5.2   c3.6-3.8,8.1-3.5,12-2.7l9.1-0.1c-0.1-0.2-0.2-0.3-0.2-0.5l-0.2-0.3c-0.1-0.1-0.1-0.2-0.2-0.3c-0.1-0.2-0.3-0.4-0.4-0.6l-0.3-0.5   c-0.2-0.2-0.3-0.4-0.5-0.6l-0.3-0.4c-0.2-0.2-0.3-0.3-0.5-0.5l-0.4-0.4c-0.2-0.2-0.4-0.3-0.5-0.4l-0.5-0.4   c-0.2-0.2-0.4-0.3-0.7-0.4l-0.4-0.3c-0.4-0.2-0.8-0.4-1.2-0.6l-1.7-0.9c-0.1-0.1-0.2-0.1-0.3-0.2l-0.1-0.1   c-0.1-0.1-0.2-0.2-0.3-0.3l-0.1-0.2c-0.1-0.1-0.2-0.2-0.2-0.3l-0.1-0.2c0-0.1-0.1-0.1-0.1-0.2c-0.3,0-0.6,0-0.9-0.1   c-0.5-0.1-1-0.1-1.4-0.1l-0.4,0c-0.3,0-0.7,0-1,0l-0.4,0c-0.3,0-0.6,0-1,0l-0.3,0c-0.4,0-0.7,0.1-1,0.1l-0.4,0.1   c-0.3,0.1-0.6,0.1-0.8,0.2l-0.4,0.1c-0.3,0.1-0.5,0.1-0.8,0.2l-0.4,0.1c-0.3,0.1-0.5,0.2-0.8,0.3l-0.4,0.1   c-0.3,0.1-0.6,0.3-0.9,0.4l-0.6-0.7l0.4,0.8c-0.4,0.2-0.7,0.4-1.1,0.6L107,212.1z"/>
        <a xlink:href="27.8894117647059">
		<path id="logoMark__x3C_PathItem_x3E__00000093886697646408104350000007210789496659530673_" class="st5" d="M249.2,233.3    c-1.4,9.3-9.3,13.7-15.7,15.8h-95.6h-18.1c0,0,0-0.1,0.1-0.1c0-0.1,0.1-0.1,0.1-0.2c0.1-0.1,0.1-0.2,0.2-0.2    c0.1-0.1,0.1-0.1,0.2-0.2c0.1-0.1,0.1-0.1,0.2-0.2c0.1-0.1,0.1-0.1,0.2-0.2c0.1-0.1,0.1-0.1,0.2-0.2c0.1,0,0.1-0.1,0.2-0.1    c0.1-0.1,0.2-0.1,0.3-0.2c0.1,0,0.1-0.1,0.2-0.1c0.1-0.1,0.2-0.1,0.3-0.1c0.1,0,0.1-0.1,0.2-0.1c0.1-0.1,0.2-0.1,0.3-0.2    c0,0,0.1,0,0.1-0.1c0.2-0.1,0.3-0.1,0.5-0.2c0.2-0.1,0.4-0.2,0.6-0.3c0.8-0.4,1.6-0.8,2.2-1.4c0.1-0.1,0.2-0.2,0.3-0.4    c0.5-0.4,1-0.8,1.4-1.3c0,0,0,0,0,0c6.3-6.1,8.1-14.7,4.6-21.9c-0.2-0.5-0.5-1-0.8-1.5c-1.2-3.1-3-5.5-5.6-7.2    c-0.7-0.4-1.3-0.8-2.1-1.2l-0.3-0.1c-0.1-0.1-0.2-0.1-0.4-0.2c0,0-0.1,0-0.1,0c-0.1,0-0.2-0.1-0.3-0.1c0,0-0.1,0-0.1-0.1    c-0.1,0-0.1-0.1-0.2-0.1c0,0-0.1-0.1-0.1-0.1c-0.1,0-0.1-0.1-0.2-0.1c0,0-0.1-0.1-0.1-0.1c-0.1,0-0.1-0.1-0.1-0.1    c0,0-0.1-0.1-0.1-0.1c0-0.1-0.1-0.1-0.1-0.2c0,0-0.1-0.1-0.1-0.2c0-0.1-0.1-0.1-0.1-0.2c0-0.1,0-0.1-0.1-0.2c0,0,0-0.1,0-0.1    l11.8,0c30.2,0,60.3,0,90.5,0c1.3,0,2.7,0,4-0.1c0.6,0,1.2,0,1.9,0c10.7,0.5,18.1,6.3,19.7,15.7    C249.6,227.9,249.6,230.6,249.2,233.3z"/>
	</a>
        <path id="logoMark__x3C_CompoundPathItem_x3E__00000027596189984986342250000001089246585399484054_" class="st1" d="M233.6,250.1   H118.2l0.8-1.4c0.1-0.2,0.2-0.3,0.3-0.4c0.1-0.1,0.1-0.2,0.2-0.3c0.1-0.1,0.1-0.2,0.2-0.2c0.1-0.1,0.2-0.2,0.2-0.2l0.2-0.2   c0.1-0.1,0.2-0.1,0.3-0.2l1.6-0.9l1.3-0.6c0.7-0.3,1.4-0.7,1.9-1.2c0.1-0.1,0.2-0.2,0.2-0.3l0.1-0.2c0.5-0.4,0.9-0.8,1.3-1.2   c6-5.9,7.7-14,4.4-20.8c-0.2-0.5-0.5-1-0.8-1.4c-1.2-3-2.9-5.3-5.3-6.9c-0.7-0.5-1.3-0.8-2-1.1l-1.6-0.8c-0.1-0.1-0.2-0.1-0.2-0.2   l-0.2-0.1c-0.1-0.1-0.1-0.1-0.2-0.2L121,211c-0.1-0.1-0.1-0.2-0.2-0.3l-0.1-0.2c0-0.1-0.1-0.2-0.1-0.3l-0.1-0.3l-0.2-1.1l1.1-0.2   l102.3,0c1.3,0,2.6,0,3.9-0.1l1.9,0c11.2,0.5,18.9,6.7,20.6,16.5c0.5,2.8,0.5,5.5,0.1,8.4l0,0c-1.5,9.7-9.7,14.4-16.3,16.6   L233.6,250.1z M122.1,248.2h111.2c6.1-2,13.6-6.3,14.9-15l0,0c0.4-2.7,0.4-5.2-0.1-7.8c-1.6-8.9-8.6-14.5-18.8-15l-1.8,0   c-1.4,0-2.7,0.1-4,0.1l-100.2,0l0.6,0.3c0.7,0.3,1.5,0.8,2.2,1.3c2.7,1.8,4.7,4.4,5.9,7.6c0.2,0.4,0.5,0.9,0.8,1.4   c3.7,7.5,1.8,16.5-4.7,22.9c-0.5,0.5-0.9,0.9-1.4,1.3c-0.1,0.1-0.2,0.2-0.3,0.4c-0.7,0.8-1.7,1.3-2.5,1.6l-1.6,0.7l-0.6-0.7   l0.4,0.8L122.1,248.2z M121.7,248.2h0.2l-0.6-0.6L121.7,248.2z M121.2,248.2h0.1l-0.4-0.3L121.2,248.2z"/>
        <a xlink:href="38.0803921568627">
		<path id="logoMark__x3C_PathItem_x3E__00000007388294542096207780000007637789482866548874_" class="st6" d="M213.1,142.6    c-0.7,0.5-1.9,0.7-3.8,0.7c-11.7-0.1-23.5-0.1-35-0.1c-4.3,0-8.6,0-12.9,0c-4.3,0-8.5,0-12.8,0c-2.8,0-5.6,0-8.5,0    c-8.5,0-17.2,0-25.7,0.1c-2,0-3.2-0.2-4-0.7c-0.8-0.5-1.1-1.4-1.1-2.8c0-1.2,0.3-2,1-2.5c0.1-0.1,0.2-0.1,0.3-0.2    c0.7-0.4,1.9-0.5,3.7-0.5c0,0,0,0,0.1,0c33.7,0.1,64.7,0.1,94.9,0c1.9,0,3.1,0.2,3.8,0.7c0.7,0.5,1,1.3,1,2.6    C214.2,141.3,213.9,142.1,213.1,142.6z"/>
	</a>
        <path id="logoMark__x3C_CompoundPathItem_x3E__00000096770419519174298490000000389416146464102290_" class="st1" d="M114.3,144.2   c-2.1,0-3.4-0.3-4.3-0.9c-1.3-0.9-1.5-2.4-1.5-3.5c0-1.5,0.5-2.6,1.4-3.2c0.1-0.1,0.3-0.2,0.4-0.2c0.9-0.4,2.1-0.6,4.1-0.6   c33.6,0.1,64.7,0.1,95,0c2.2,0,3.4,0.3,4.3,0.9c1.3,0.9,1.4,2.4,1.4,3.4c0,1-0.2,2.5-1.5,3.4l0,0c-0.9,0.6-2.2,0.9-4.3,0.8   c-11.7-0.1-23.5-0.1-35-0.1l-12.9,0l-21.3,0c-8.5,0-17.2,0-25.7,0.1C114.4,144.2,114.4,144.2,114.3,144.2z M114.5,137.6   c-1.7,0-2.7,0.1-3.3,0.4c-0.1,0-0.1,0.1-0.2,0.1c-0.3,0.2-0.6,0.6-0.6,1.7c0,1.3,0.3,1.8,0.7,2c0.6,0.4,1.7,0.6,3.4,0.6   c8.6-0.1,17.2-0.1,25.8-0.1l21.3,0l12.9,0c11.4,0,23.3,0,35,0.1c1.7,0,2.7-0.2,3.2-0.5l0,0c0.3-0.2,0.6-0.6,0.6-1.9   c0-1.2-0.3-1.6-0.6-1.8c-0.5-0.4-1.6-0.5-3.3-0.5C179.1,137.6,148,137.6,114.5,137.6z"/>
        <a xlink:href="38.0803921568627">
		<path id="logoMark__x3C_PathItem_x3E__00000016062003073167878110000006730405761200331929_" class="st6" d="M114.1,173.4    C114.1,173.4,114.2,173.4,114.1,173.4c32,0.1,64.1,0.1,95.4,0c0,0,0,0,0.1,0c3.9,0,4.6,1.1,4.6,3.4c0,1.3-0.3,2.1-1,2.5    c-0.7,0.5-1.9,0.7-4,0.7c-11.6-0.1-23.3-0.1-34.7-0.1c-8.5,0-17,0-25.5,0c-2.8,0-5.7,0-8.6,0c-8.6,0-17.4,0-26.1,0.1    c-2,0-3.2-0.2-3.9-0.7c-0.7-0.5-1-1.3-1-2.6C109.5,174.5,110.2,173.4,114.1,173.4z"/>
	</a>
        <path id="logoMark__x3C_CompoundPathItem_x3E__00000098900642856887502500000014837882656392237742_" class="st1" d="M114.1,181   c-2.1,0-3.3-0.3-4.2-0.9c-1.3-0.9-1.4-2.3-1.4-3.4c0-3.2,1.6-4.3,5.6-4.3h0.1c31.9,0.1,64,0.1,95.3,0c4.1,0,5.6,1.1,5.6,4.3   c0,1.6-0.4,2.7-1.4,3.3c-0.9,0.6-2.2,0.9-4.5,0.9c-11.6-0.1-23.4-0.1-34.7-0.1c-8.5,0-17,0-25.5,0l-8.6,0c-8.6,0-17.4,0-26.1,0.1   C114.3,181,114.2,181,114.1,181z M114.1,173.4v0.9c-3.7,0-3.7,0.9-3.8,2.5c0,1.2,0.3,1.6,0.6,1.8c0.5,0.4,1.6,0.6,3.4,0.5   c8.7-0.1,17.5-0.1,26.1-0.1l8.6,0c8.5,0,17,0,25.5,0c11.4,0,23.1,0,34.7,0.1c1.8,0,2.9-0.2,3.4-0.5c0.3-0.2,0.6-0.6,0.6-1.8   c0-1.6-0.1-2.5-3.7-2.5c-31.4,0.1-63.5,0.1-95.4,0L114.1,173.4z"/>
        <a xlink:href="38.0803921568627">
		<path id="logoMark__x3C_PathItem_x3E__00000099621122122518133450000015945042886456539011_" class="st6" d="M114.1,155    C114.1,155,114.1,155,114.1,155c31.9,0.1,64,0.1,95.4,0c0,0,0,0,0.1,0c3.9,0,4.6,1.1,4.6,3.4c0,1.2-0.3,2-1,2.5    c-0.7,0.5-1.9,0.7-3.9,0.7c-11.7-0.1-23.6-0.1-35.1-0.1c-8.5,0-16.9,0-25.4,0c-11.3,0-22.9,0-34.4,0.1c-2,0-3.2-0.2-3.9-0.7    c-0.7-0.5-1-1.3-1-2.6C109.5,156.1,110.2,155,114.1,155z"/>
	</a>
        <path id="logoMark__x3C_CompoundPathItem_x3E__00000176019775877452203080000014325560361027980979_" class="st1" d="M114.1,162.6   c-2,0-3.3-0.3-4.2-0.9c-1-0.7-1.4-1.8-1.4-3.3c0-3.1,1.6-4.3,5.6-4.3h0.1c31.9,0.1,63.9,0.1,95.3,0c4.1,0,5.6,1.1,5.6,4.3   c0,1.6-0.4,2.7-1.4,3.3c-0.9,0.6-2.2,0.9-4.5,0.9c-11.8-0.1-23.6-0.1-35.1-0.1c-8.5,0-16.9,0-25.4,0l-0.3,0   c-11.2,0-22.8,0-34.1,0.1C114.3,162.6,114.2,162.6,114.1,162.6z M114.1,155v0.9c-3.7,0-3.7,0.9-3.7,2.5c0,1.2,0.3,1.6,0.6,1.8   c0.6,0.4,1.7,0.6,3.4,0.5c11.4-0.1,23-0.1,34.1-0.1l0.3,0c8.5,0,16.9,0,25.4,0c11.5,0,23.3,0,35.1,0.1c1.8,0,2.9-0.2,3.4-0.5   c0.3-0.2,0.6-0.6,0.6-1.7c0-1.6-0.1-2.5-3.7-2.5c-31.4,0.1-63.5,0.1-95.4,0L114.1,155z"/>
        <a xlink:href="38.0803921568627">
		<path id="logoMark__x3C_PathItem_x3E__00000044155529318952619770000007045123127945191093_" class="st6" d="M213.2,197.8    c-0.6,0.4-1.6,0.7-3.2,0.7c-0.2,0-0.5,0-0.7,0c-11.6-0.1-23.4-0.1-34.8-0.1c-8.5,0-16.9,0-25.4,0c-11.4,0-23.2,0-34.7,0.1    c-2,0-3.2-0.2-3.9-0.7c-0.7-0.5-1-1.3-1-2.6c0-2.3,0.7-3.4,4.7-3.4c0,0,0,0,0.1,0c15.9,0,31.9,0.1,47.8,0.1s31.8,0,47.5-0.1    c0,0,0,0,0.1,0c3.9,0,4.6,1.1,4.7,3.4C214.2,196.5,213.9,197.3,213.2,197.8z"/>
	</a>
        <path id="logoMark__x3C_CompoundPathItem_x3E__00000017489289911656125210000017788981913937741237_" class="st1" d="M114.1,199.4   c-2.1,0-3.4-0.3-4.2-0.9c-1-0.7-1.4-1.8-1.4-3.3c0.1-3.1,1.6-4.3,5.6-4.3c16,0,31.9,0.1,47.9,0.1c15.9,0,31.8,0,47.5-0.1   c4.1,0,5.6,1.1,5.6,4.3c0,1.6-0.4,2.7-1.4,3.3h0c-0.8,0.6-2,0.8-3.7,0.9c-0.2,0-0.5,0-0.7,0c-11.5-0.1-23.2-0.1-34.6-0.1   c-8.6,0-17.1,0-25.6,0c-11.4,0-23.2,0-34.7,0.1C114.3,199.4,114.2,199.4,114.1,199.4z M114.2,192.8c-3.8,0-3.8,0.9-3.8,2.5   c0,1.2,0.3,1.6,0.6,1.8c0.5,0.4,1.7,0.5,3.4,0.5c11.6-0.1,23.3-0.1,34.7-0.1c8.5,0,17,0,25.5,0c11.5,0,23.2,0,34.8,0.1   c0.2,0,0.5,0,0.7,0c1.4,0,2.3-0.2,2.7-0.5c0.3-0.2,0.6-0.6,0.6-1.7c0-1.6-0.1-2.5-3.7-2.5c-15.8,0-31.7,0.1-47.7,0.1   C145.9,192.9,130,192.8,114.2,192.8z"/>
        <a xlink:href="38.0803921568627">
		<path id="logoMark__x3C_PathItem_x3E__00000048471824309197549140000013339847359454016167_" class="st6" d="M213.2,124.2    c-0.6,0.4-1.6,0.7-3.2,0.7c-0.2,0-0.5,0-0.7,0c-11.6-0.1-23.4-0.1-34.8-0.1c-8.5,0-16.9,0-25.4,0c-11.4,0-23.2,0-34.7,0.1    c-2,0-3.2-0.2-3.9-0.7c-0.7-0.5-1-1.3-1-2.6c0-2.3,0.7-3.4,4.7-3.4c0,0,0,0,0.1,0c15.9,0,31.9,0.1,47.8,0.1s31.8,0,47.5-0.1    c0,0,0,0,0.1,0c3.9,0,4.6,1.1,4.7,3.4C214.2,122.9,213.9,123.7,213.2,124.2z"/>
	</a>
        <path id="logoMark__x3C_CompoundPathItem_x3E__00000078760735234980498890000003362769085424295339_" class="st1" d="M114.1,125.8   c-2.1,0-3.4-0.3-4.2-0.9c-1-0.7-1.4-1.8-1.4-3.3c0.1-3.1,1.6-4.3,5.6-4.3c16,0,31.9,0.1,47.9,0.1c15.9,0,31.8,0,47.5-0.1   c4.1,0,5.6,1.1,5.6,4.3c0,1.6-0.4,2.7-1.4,3.3l0,0c-0.8,0.6-2,0.8-3.7,0.9c-0.2,0-0.5,0-0.7,0c-11.5-0.1-23.2-0.1-34.6-0.1   c-8.6,0-17.1,0-25.6,0c-11.4,0-23.2,0-34.7,0.1C114.3,125.8,114.2,125.8,114.1,125.8z M114.2,119.2c-3.8,0-3.8,0.9-3.8,2.5   c0,1.2,0.3,1.6,0.6,1.8c0.5,0.4,1.7,0.5,3.4,0.5c11.6-0.1,23.3-0.1,34.7-0.1c8.5,0,17,0,25.5,0c11.5,0,23.2,0,34.8,0.1   c0.2,0,0.5,0,0.7,0c1.4,0,2.3-0.2,2.7-0.5l0,0c0.3-0.2,0.6-0.6,0.6-1.7c0-1.6-0.1-2.5-3.7-2.5c-15.8,0-31.8,0.1-47.7,0.1   C145.9,119.2,130,119.2,114.2,119.2z"/>
        <a xlink:href="38.0803921568627">
		<path id="logoMark__x3C_PathItem_x3E__00000049182819854779278230000004151441091574542218_" class="st6" d="M213.2,105.8    c-0.6,0.4-1.6,0.7-3.2,0.7c-0.2,0-0.5,0-0.7,0c-11.6-0.1-23.4-0.1-34.8-0.1c-8.5,0-16.9,0-25.4,0c-11.4,0-23.2,0-34.7,0.1    c-2,0-3.2-0.2-3.9-0.7c-0.7-0.5-1-1.3-1-2.6c0-2.3,0.7-3.4,4.7-3.4c0,0,0,0,0.1,0c15.9,0,31.9,0.1,47.8,0.1    c15.9,0,31.8,0,47.5-0.1c0,0,0,0,0.1,0c3.9,0,4.6,1.1,4.7,3.4C214.2,104.5,213.9,105.3,213.2,105.8z"/>
	</a>
        <path id="logoMark__x3C_CompoundPathItem_x3E__00000063597852514934667070000000564053679704006788_" class="st1" d="M114.1,107.4   c-2.1,0-3.4-0.3-4.2-0.9c-1-0.7-1.4-1.8-1.4-3.3c0.1-3.1,1.6-4.3,5.6-4.3c16,0,31.9,0.1,47.9,0.1c15.9,0,31.8,0,47.5-0.1   c4.1,0,5.6,1.1,5.6,4.3c0,1.6-0.4,2.7-1.4,3.3l0,0c-0.8,0.6-2,0.8-3.7,0.9c-0.2,0-0.5,0-0.7,0c-11.5-0.1-23.2-0.1-34.6-0.1   c-8.6,0-17.1,0-25.6,0c-11.4,0-23.2,0-34.7,0.1C114.3,107.4,114.2,107.4,114.1,107.4z M114.2,100.8c-3.8,0-3.8,0.9-3.8,2.5   c0,1.2,0.3,1.6,0.6,1.8c0.5,0.4,1.7,0.5,3.4,0.5c11.6-0.1,23.3-0.1,34.7-0.1c8.5,0,17,0,25.5,0c11.5,0,23.2,0,34.8,0.1   c0.2,0,0.5,0,0.7,0c1.4,0,2.3-0.2,2.7-0.5h0c0.3-0.2,0.6-0.6,0.6-1.7c0-1.6-0.1-2.5-3.7-2.5c-15.8,0-31.7,0.1-47.7,0.1   C145.9,100.9,130,100.8,114.2,100.8z"/>
        <a xlink:href="38.0803921568627">
		<path id="logoMark__x3C_PathItem_x3E__00000138541222602599047180000011990946621864748161_" class="st6" d="M213.2,87.4    c-0.6,0.4-1.6,0.7-3.2,0.7c-0.2,0-0.5,0-0.7,0C197.7,88,185.9,88,174.5,88c-8.5,0-16.9,0-25.4,0c-11.4,0-23.2,0-34.7,0.1    c-2,0-3.2-0.2-3.9-0.7c-0.7-0.5-1-1.3-1-2.6c0-2.3,0.7-3.4,4.7-3.4c0,0,0,0,0.1,0c15.9,0,31.9,0.1,47.8,0.1s31.8,0,47.5-0.1    c0,0,0,0,0.1,0c3.9,0,4.6,1.1,4.7,3.4C214.2,86.1,213.9,86.9,213.2,87.4z"/>
	</a>
        <path id="logoMark__x3C_CompoundPathItem_x3E__00000080928335996885915080000010358276377777373855_" class="st1" d="M114.1,89   c-2.1,0-3.4-0.3-4.2-0.9c-1-0.7-1.4-1.8-1.4-3.3c0.1-3.1,1.6-4.3,5.6-4.3c16,0,31.9,0.1,47.9,0.1c15.9,0,31.8,0,47.5-0.1   c4.1,0,5.6,1.1,5.6,4.3c0,1.6-0.4,2.7-1.4,3.3l0,0c-0.8,0.6-2,0.8-3.7,0.9c-0.2,0-0.5,0-0.7,0C197.7,88.9,186,89,174.6,89   c-8.6,0-17.1,0-25.5,0c-11.4,0-23.2,0-34.7,0.1C114.3,89,114.2,89,114.1,89z M114.2,82.4c-3.8,0-3.8,0.9-3.8,2.5   c0,1.2,0.3,1.6,0.6,1.8c0.5,0.4,1.7,0.5,3.4,0.5c11.6-0.1,23.3-0.1,34.7-0.1c8.5,0,17,0,25.5,0c11.5,0,23.2,0,34.8,0.1   c0.2,0,0.5,0,0.7,0c1.4,0,2.3-0.2,2.7-0.5h0c0.3-0.2,0.6-0.6,0.6-1.7c0-1.6-0.1-2.5-3.7-2.5c-15.8,0-31.7,0.1-47.7,0.1   C145.9,82.5,130,82.4,114.2,82.4z"/>
</g>
</svg>
