<svg width="34" height="34" viewBox="0 0 34 34" fill="none" xmlns="http://www.w3.org/2000/svg">
<g clip-path="url(#clip0_703_470)">
<path d="M19.968 1.66401L20.855 3.74101C22.5957 7.81906 25.844 11.0674 29.922 12.808L31.999 13.695C32.543 13.927 32.984 14.259 33.325 14.655C32.291 7.23801 26.425 1.37201 19.008 0.338013C19.403 0.678013 19.736 1.12001 19.968 1.66401V1.66401ZM1.326 13.695L3.403 12.808C7.48125 11.0673 10.7298 7.81907 12.471 3.74101L13.357 1.66401C13.5709 1.15416 13.8994 0.700425 14.317 0.338013C6.9 1.37201 1.034 7.23801 0 14.655C0.34 14.259 0.782 13.927 1.326 13.695ZM32 20.304L29.922 21.191C25.8438 22.9319 22.5954 26.1806 20.855 30.259L19.968 32.335C19.7542 32.8452 19.4257 33.2993 19.008 33.662C26.425 32.627 32.291 26.761 33.325 19.344C32.9628 19.7619 32.509 20.0904 31.999 20.304H32ZM13.357 32.335L12.471 30.259C10.73 26.1806 7.48137 22.932 3.403 21.191L1.326 20.304C0.815965 20.0904 0.362168 19.7619 0 19.344C1.034 26.761 6.9 32.627 14.317 33.662C13.8996 33.2991 13.5711 32.8451 13.357 32.335Z" fill="#999999"/>
<path d="M9.10303 15.3711L10.126 14.9341C12.1358 14.0763 13.7368 12.4757 14.595 10.4661L15.031 9.44206C15.643 8.00906 17.676 8.00906 18.288 9.44206L18.724 10.4661C19.5822 12.4757 21.1832 14.0763 23.193 14.9341L24.217 15.3711C25.65 15.9831 25.65 18.0151 24.217 18.6271L23.193 19.0641C21.1829 19.9219 19.5818 21.5229 18.724 23.5331L18.288 24.5561C17.676 25.9891 15.643 25.9891 15.031 24.5561L14.595 23.5331C13.7372 21.5229 12.1361 19.9219 10.126 19.0641L9.10303 18.6271C7.66903 18.0151 7.66903 15.9831 9.10303 15.3711V15.3711Z" fill="black"/>
</g>
<defs>
<clipPath id="clip0_703_470">
<rect width="34" height="34" fill="white"/>
</clipPath>
</defs>
</svg>
