<?xml version="1.0" encoding="UTF-8"?>
<svg width="65px" height="51px" viewBox="0 0 65 51" version="1.1" xmlns="http://www.w3.org/2000/svg" xmlns:xlink="http://www.w3.org/1999/xlink">
    <!-- Generator: Sketch 51.2 (57519) - http://www.bohemiancoding.com/sketch -->
    <title>AGMG</title>
    <desc>Created with Sketch.</desc>
    <defs></defs>
    <g id="Page-1" stroke="none" stroke-width="1" fill="none" fill-rule="evenodd">
        <g id="Artboard-Copy-2" transform="translate(-838.000000, -455.000000)">
            <g id="AGMG" transform="translate(838.000000, 455.000000)">
                <path d="M57.9639129,49.8952838 C54.380072,43.6988035 51.1117799,38.0470126 47.7764146,32.2802543 C45.1031427,34.2428734 42.8114764,35.9254832 40.4562939,37.65408 C42.6133058,41.4510657 44.6224517,45.0656366 46.7322075,48.6204246 C47.0660489,49.1840197 47.8358658,49.8145513 48.4278373,49.8385667 C51.4308855,49.9617094 54.4410476,49.8952838 57.9639129,49.8952838" id="Path" fill="#DCDCDC"></path>
                <path d="M54.3140151,2.07043278 C54.2733647,2.16036273 54.2327143,2.24978172 54.1920639,2.33971167 C54.7377956,2.48993557 55.2886085,2.62585243 55.8297669,2.79293819 C59.2286484,3.84143969 60.2220426,5.77135691 58.570112,8.97562244 C57.4573073,11.1344523 56.0121856,13.2151044 54.3424704,14.9718042 C45.037594,24.7644607 33.9842422,32.0073987 21.5706264,37.1885903 C20.7459314,37.5324702 19.8536552,37.7123301 18.5563993,38.0986201 C22.1585328,31.4913234 25.5330241,25.3019966 29.030991,18.886312 C30.8297712,21.6956011 32.4181855,24.1758283 34.0884088,26.7848189 C36.6417621,24.908553 38.9974527,23.1779124 41.406497,21.4084384 C37.2276359,14.1741869 33.2261122,7.24702568 29.0401373,0 C19.2642244,17.1628249 9.7002016,33.9531559 0,50.9826187 C0.749491742,50.9826187 1.00812991,51.0255398 1.24796727,50.9764871 C24.8948128,46.1187368 44.2032445,33.8065087 60.2520223,16.0208167 C62.0264122,14.0541099 63.3470421,11.5442467 64.4003955,9.0803704 C65.9847449,5.37331468 64.3556801,2.6544665 60.3836279,2.11744161 C58.394299,1.84867369 56.3394213,2.07043278 54.3140151,2.07043278" id="Path" fill="#E40020"></path>
            </g>
        </g>
    </g>
</svg>