<?xml version="1.0" encoding="UTF-8"?>
<svg width="130px" height="31px" viewBox="0 0 130 31" version="1.1" xmlns="http://www.w3.org/2000/svg" xmlns:xlink="http://www.w3.org/1999/xlink">
    <!-- Generator: Sketch 51.2 (57519) - http://www.bohemiancoding.com/sketch -->
    <title>apandor</title>
    <desc>Created with Sketch.</desc>
    <defs></defs>
    <g id="Page-1" stroke="none" stroke-width="1" fill="none" fill-rule="evenodd">
        <g id="Artboard-Copy-2" transform="translate(-357.000000, -236.000000)" fill="#000000">
            <path d="M372.639353,256.518232 C372.639353,256.997792 372.701548,257.34033 372.825939,257.545856 C372.950331,257.751382 373.193457,257.854144 373.555324,257.854144 L373.962422,257.854144 C374.120738,257.854144 374.301669,257.831308 374.505219,257.785635 L374.505219,260.491713 C374.369519,260.537385 374.194243,260.588766 373.979384,260.645856 C373.764526,260.702947 373.544016,260.754328 373.31785,260.8 C373.091683,260.845672 372.86552,260.879926 372.639353,260.902762 C372.413186,260.925599 372.220947,260.937017 372.06263,260.937017 C371.271047,260.937017 370.615173,260.777166 370.09499,260.457459 C369.574806,260.137752 369.235561,259.578273 369.077244,258.779006 C368.308277,259.5326 367.364045,260.080661 366.24452,260.423204 C365.124994,260.765748 364.045064,260.937017 363.004697,260.937017 C362.213114,260.937017 361.455466,260.828546 360.731733,260.611602 C360.007999,260.394658 359.369088,260.074956 358.814979,259.652486 C358.260871,259.230016 357.819852,258.693373 357.49191,258.042541 C357.163968,257.391709 357,256.632417 357,255.764641 C357,254.668503 357.197893,253.777904 357.593685,253.092818 C357.989477,252.407731 358.509652,251.871088 359.154228,251.482873 C359.798803,251.094657 360.522526,250.814918 361.325418,250.643646 C362.12831,250.472375 362.936844,250.341069 363.751044,250.249724 C364.452161,250.112706 365.119343,250.015654 365.75261,249.958564 C366.385877,249.901473 366.945631,249.804421 367.431889,249.667403 C367.918148,249.530386 368.302626,249.319154 368.585334,249.033702 C368.868042,248.748249 369.009395,248.320077 369.009395,247.749171 C369.009395,247.246775 368.890659,246.835729 368.653184,246.516022 C368.415709,246.196315 368.121696,245.95083 367.771138,245.779558 C367.420579,245.608286 367.030448,245.494107 366.600731,245.437017 C366.171014,245.379926 365.76392,245.351381 365.379436,245.351381 C364.293836,245.351381 363.400491,245.57974 362.699374,246.036464 C361.998257,246.493188 361.602471,247.2011 361.512004,248.160221 L357.644572,248.160221 C357.712422,247.01841 357.983818,246.070722 358.458768,245.317127 C358.933718,244.563532 359.538705,243.958382 360.273747,243.501657 C361.008789,243.044933 361.83994,242.725231 362.767223,242.542541 C363.694507,242.359852 364.644393,242.268508 365.61691,242.268508 C366.476344,242.268508 367.324456,242.359852 368.161273,242.542541 C368.99809,242.725231 369.750084,243.022097 370.417276,243.433149 C371.084467,243.844201 371.621605,244.375135 372.028706,245.025967 C372.435806,245.676799 372.639353,246.470345 372.639353,247.40663 L372.639353,256.518232 Z M368.771921,251.585635 C368.183887,251.973851 367.460164,252.207919 366.600731,252.287845 C365.741297,252.367772 364.881876,252.48766 364.022443,252.647514 C363.615342,252.716022 363.219557,252.813075 362.835073,252.938674 C362.45059,253.064273 362.111345,253.235542 361.817328,253.452486 C361.523311,253.66943 361.291494,253.954879 361.121868,254.30884 C360.952243,254.662801 360.867432,255.090974 360.867432,255.59337 C360.867432,256.027258 360.991822,256.392632 361.240605,256.689503 C361.489389,256.986373 361.789055,257.220441 362.139614,257.391713 C362.490172,257.562984 362.87465,257.682873 363.293058,257.751381 C363.711467,257.81989 364.090291,257.854144 364.429541,257.854144 C364.859258,257.854144 365.322892,257.797054 365.820459,257.682873 C366.318026,257.568692 366.787315,257.374587 367.22834,257.100552 C367.669365,256.826518 368.036881,256.478271 368.330898,256.055801 C368.624914,255.633331 368.771921,255.113815 368.771921,254.497238 L368.771921,251.585635 Z M376.913883,242.748066 L380.577766,242.748066 L380.577766,245.145856 L380.645616,245.145856 C381.188416,244.118227 381.946063,243.38177 382.91858,242.936464 C383.891097,242.491158 384.942757,242.268508 386.073591,242.268508 C387.453208,242.268508 388.657528,242.513994 389.686587,243.004972 C390.715645,243.495951 391.569412,244.169609 392.247912,245.025967 C392.926413,245.882325 393.43528,246.881394 393.77453,248.023204 C394.11378,249.165015 394.283403,250.386734 394.283403,251.688398 C394.283403,252.875881 394.130743,254.029092 393.825418,255.148066 C393.520092,256.267041 393.056458,257.254692 392.434499,258.11105 C391.81254,258.967408 391.026623,259.652484 390.076722,260.166298 C389.126822,260.680113 388.007313,260.937017 386.718163,260.937017 C386.152746,260.937017 385.587338,260.885636 385.021921,260.782873 C384.456504,260.68011 383.913712,260.51455 383.393528,260.286188 C382.873345,260.057826 382.392748,259.766668 381.951722,259.412707 C381.510697,259.058746 381.143182,258.641991 380.849165,258.162431 L380.781315,258.162431 L380.781315,267 L376.913883,267 L376.913883,242.748066 Z M390.415971,251.61989 C390.415971,250.820622 390.314197,250.044203 390.110647,249.290608 C389.907097,248.537013 389.601777,247.869064 389.194676,247.28674 C388.787576,246.704417 388.278709,246.236282 387.668058,245.88232 C387.057408,245.528359 386.356302,245.351381 385.564718,245.351381 C383.936318,245.351381 382.709381,245.922278 381.883873,247.064088 C381.058364,248.205899 380.645616,249.724484 380.645616,251.61989 C380.645616,252.510502 380.753043,253.338302 380.967902,254.103315 C381.18276,254.868328 381.505043,255.524859 381.93476,256.072928 C382.364477,256.620997 382.878998,257.054879 383.47834,257.374586 C384.077682,257.694293 384.773135,257.854144 385.564718,257.854144 C386.446769,257.854144 387.193108,257.671457 387.803758,257.306077 C388.414408,256.940698 388.917622,256.466854 389.313413,255.88453 C389.709205,255.302207 389.991909,254.639967 390.161534,253.89779 C390.33116,253.155613 390.415971,252.396321 390.415971,251.61989 Z M412.229645,256.518232 C412.229645,256.997792 412.29184,257.34033 412.416232,257.545856 C412.540623,257.751382 412.783749,257.854144 413.145616,257.854144 L413.552714,257.854144 C413.711031,257.854144 413.891961,257.831308 414.095511,257.785635 L414.095511,260.491713 C413.959811,260.537385 413.784535,260.588766 413.569676,260.645856 C413.354818,260.702947 413.134309,260.754328 412.908142,260.8 C412.681975,260.845672 412.455812,260.879926 412.229645,260.902762 C412.003478,260.925599 411.811239,260.937017 411.652923,260.937017 C410.861339,260.937017 410.205465,260.777166 409.685282,260.457459 C409.165098,260.137752 408.825853,259.578273 408.667537,258.779006 C407.89857,259.5326 406.954338,260.080661 405.834812,260.423204 C404.715287,260.765748 403.635357,260.937017 402.59499,260.937017 C401.803406,260.937017 401.045759,260.828546 400.322025,260.611602 C399.598291,260.394658 398.95938,260.074956 398.405271,259.652486 C397.851163,259.230016 397.410144,258.693373 397.082203,258.042541 C396.754261,257.391709 396.590292,256.632417 396.590292,255.764641 C396.590292,254.668503 396.788185,253.777904 397.183977,253.092818 C397.579769,252.407731 398.099945,251.871088 398.74452,251.482873 C399.389095,251.094657 400.112818,250.814918 400.91571,250.643646 C401.718602,250.472375 402.527136,250.341069 403.341336,250.249724 C404.042453,250.112706 404.709635,250.015654 405.342902,249.958564 C405.976169,249.901473 406.535923,249.804421 407.022182,249.667403 C407.50844,249.530386 407.892918,249.319154 408.175626,249.033702 C408.458335,248.748249 408.599687,248.320077 408.599687,247.749171 C408.599687,247.246775 408.480951,246.835729 408.243476,246.516022 C408.006001,246.196315 407.711989,245.95083 407.36143,245.779558 C407.010872,245.608286 406.62074,245.494107 406.191023,245.437017 C405.761306,245.379926 405.354212,245.351381 404.969729,245.351381 C403.884128,245.351381 402.990783,245.57974 402.289666,246.036464 C401.588549,246.493188 401.192763,247.2011 401.102296,248.160221 L397.234864,248.160221 C397.302714,247.01841 397.57411,246.070722 398.049061,245.317127 C398.524011,244.563532 399.128998,243.958382 399.86404,243.501657 C400.599082,243.044933 401.430232,242.725231 402.357516,242.542541 C403.284799,242.359852 404.234685,242.268508 405.207203,242.268508 C406.066636,242.268508 406.914749,242.359852 407.751566,242.542541 C408.588383,242.725231 409.340376,243.022097 410.007568,243.433149 C410.67476,243.844201 411.211898,244.375135 411.618998,245.025967 C412.026098,245.676799 412.229645,246.470345 412.229645,247.40663 L412.229645,256.518232 Z M408.362213,251.585635 C407.774179,251.973851 407.050457,252.207919 406.191023,252.287845 C405.331589,252.367772 404.472169,252.48766 403.612735,252.647514 C403.205635,252.716022 402.809849,252.813075 402.425365,252.938674 C402.040882,253.064273 401.701637,253.235542 401.40762,253.452486 C401.113603,253.66943 400.881786,253.954879 400.712161,254.30884 C400.542536,254.662801 400.457724,255.090974 400.457724,255.59337 C400.457724,256.027258 400.582114,256.392632 400.830898,256.689503 C401.079681,256.986373 401.379348,257.220441 401.729906,257.391713 C402.080465,257.562984 402.464942,257.682873 402.883351,257.751381 C403.301759,257.81989 403.680583,257.854144 404.019833,257.854144 C404.44955,257.854144 404.913185,257.797054 405.410752,257.682873 C405.908318,257.568692 406.377607,257.374587 406.818633,257.100552 C407.259658,256.826518 407.627173,256.478271 407.92119,256.055801 C408.215207,255.633331 408.362213,255.113815 408.362213,254.497238 L408.362213,251.585635 Z M416.402401,242.748066 L420.066284,242.748066 L420.066284,245.351381 L420.134134,245.41989 C420.722167,244.437932 421.491123,243.667222 422.441023,243.107735 C423.390923,242.548248 424.442583,242.268508 425.596033,242.268508 C427.518451,242.268508 429.033745,242.770897 430.141962,243.775691 C431.25018,244.780484 431.80428,246.287651 431.80428,248.297238 L431.80428,260.457459 L427.936848,260.457459 L427.936848,249.324862 C427.891614,247.931853 427.597602,246.921366 427.054802,246.29337 C426.512001,245.665374 425.663889,245.351381 424.510438,245.351381 C423.854555,245.351381 423.26653,245.47127 422.746347,245.71105 C422.226163,245.95083 421.785144,246.28195 421.423278,246.70442 C421.061411,247.12689 420.778707,247.62357 420.575157,248.194475 C420.371606,248.76538 420.269833,249.370531 420.269833,250.009945 L420.269833,260.457459 L416.402401,260.457459 L416.402401,242.748066 Z M452.39666,260.457459 L448.732777,260.457459 L448.732777,258.059669 L448.664927,258.059669 C448.144743,259.087298 447.387096,259.823755 446.391962,260.269061 C445.396829,260.714367 444.345169,260.937017 443.236952,260.937017 C441.857335,260.937017 440.653015,260.691531 439.623956,260.200552 C438.594897,259.709574 437.741131,259.041625 437.06263,258.196685 C436.38413,257.351745 435.875263,256.352676 435.536013,255.199448 C435.196762,254.046219 435.02714,252.807373 435.02714,251.482873 C435.02714,249.884338 435.241995,248.502768 435.671712,247.338122 C436.101429,246.173475 436.672491,245.214368 437.384916,244.460773 C438.097342,243.707179 438.91153,243.153409 439.827505,242.799448 C440.743481,242.445486 441.676404,242.268508 442.626305,242.268508 C443.169105,242.268508 443.723205,242.319889 444.288622,242.422652 C444.854039,242.525415 445.396831,242.690975 445.917015,242.919337 C446.437198,243.147699 446.917795,243.438856 447.35882,243.792818 C447.799846,244.146779 448.167361,244.563534 448.461378,245.043094 L448.529228,245.043094 L448.529228,236 L452.39666,236 L452.39666,260.457459 Z M438.894572,251.79116 C438.894572,252.544755 438.990691,253.286921 439.182933,254.01768 C439.375175,254.748438 439.669187,255.39926 440.064979,255.970166 C440.460771,256.541071 440.963984,256.997788 441.574635,257.340331 C442.185285,257.682875 442.909008,257.854144 443.745825,257.854144 C444.605258,257.854144 445.345943,257.671457 445.967902,257.306077 C446.58986,256.940698 447.098728,256.461145 447.49452,255.867403 C447.890312,255.273662 448.184324,254.605713 448.376566,253.863536 C448.568808,253.121359 448.664927,252.362066 448.664927,251.585635 C448.664927,249.621721 448.229562,248.091718 447.35882,246.99558 C446.488078,245.899442 445.306375,245.351381 443.813674,245.351381 C442.909007,245.351381 442.145706,245.539777 441.523747,245.916575 C440.901789,246.293372 440.392921,246.784343 439.997129,247.389503 C439.601338,247.994662 439.318633,248.679738 439.149008,249.444751 C438.979383,250.209764 438.894572,250.991893 438.894572,251.79116 Z M464.643528,260.937017 C463.241294,260.937017 461.991742,260.702949 460.894833,260.234807 C459.797924,259.766664 458.870654,259.121551 458.112996,258.299448 C457.355337,257.477344 456.778621,256.495402 456.382829,255.353591 C455.987037,254.211781 455.789144,252.955808 455.789144,251.585635 C455.789144,250.238299 455.987037,248.993744 456.382829,247.851934 C456.778621,246.710123 457.355337,245.728181 458.112996,244.906077 C458.870654,244.083974 459.797924,243.438861 460.894833,242.970718 C461.991742,242.502576 463.241294,242.268508 464.643528,242.268508 C466.045762,242.268508 467.295315,242.502576 468.392223,242.970718 C469.489132,243.438861 470.416402,244.083974 471.174061,244.906077 C471.931719,245.728181 472.508436,246.710123 472.904228,247.851934 C473.300019,248.993744 473.497912,250.238299 473.497912,251.585635 C473.497912,252.955808 473.300019,254.211781 472.904228,255.353591 C472.508436,256.495402 471.931719,257.477344 471.174061,258.299448 C470.416402,259.121551 469.489132,259.766664 468.392223,260.234807 C467.295315,260.702949 466.045762,260.937017 464.643528,260.937017 Z M464.643528,257.854144 C465.502962,257.854144 466.249301,257.671457 466.882568,257.306077 C467.515835,256.940698 468.03601,256.461145 468.443111,255.867403 C468.850211,255.273662 469.149877,254.605713 469.342119,253.863536 C469.534361,253.121359 469.63048,252.362066 469.63048,251.585635 C469.63048,250.83204 469.534361,250.078457 469.342119,249.324862 C469.149877,248.571267 468.850211,247.903318 468.443111,247.320994 C468.03601,246.738671 467.515835,246.264827 466.882568,245.899448 C466.249301,245.534068 465.502962,245.351381 464.643528,245.351381 C463.784095,245.351381 463.037755,245.534068 462.404489,245.899448 C461.771222,246.264827 461.251046,246.738671 460.843946,247.320994 C460.436846,247.903318 460.137179,248.571267 459.944937,249.324862 C459.752696,250.078457 459.656576,250.83204 459.656576,251.585635 C459.656576,252.362066 459.752696,253.121359 459.944937,253.863536 C460.137179,254.605713 460.436846,255.273662 460.843946,255.867403 C461.251046,256.461145 461.771222,256.940698 462.404489,257.306077 C463.037755,257.671457 463.784095,257.854144 464.643528,257.854144 Z M476.720772,242.748066 L480.350731,242.748066 L480.350731,246.173481 L480.41858,246.173481 C480.531664,245.69392 480.752173,245.225785 481.080115,244.769061 C481.408057,244.312337 481.803842,243.895582 482.267484,243.518785 C482.731126,243.141987 483.245648,242.839412 483.811065,242.61105 C484.376482,242.382688 484.953198,242.268508 485.541232,242.268508 C485.993565,242.268508 486.30454,242.279926 486.474165,242.302762 C486.64379,242.325599 486.819067,242.348435 487,242.371271 L487,246.139227 C486.7286,246.093554 486.45155,246.053591 486.168841,246.019337 C485.886133,245.985083 485.609083,245.967956 485.337683,245.967956 C484.681799,245.967956 484.065504,246.099262 483.488779,246.361878 C482.912053,246.624495 482.40884,247.012705 481.979123,247.526519 C481.549406,248.040334 481.210161,248.674029 480.961378,249.427624 C480.712594,250.181219 480.588205,251.048982 480.588205,252.030939 L480.588205,260.457459 L476.720772,260.457459 L476.720772,242.748066 Z" id="apandor"></path>
        </g>
    </g>
</svg>