<?xml version="1.0" encoding="UTF-8"?>
<svg width="209px" height="39px" viewBox="0 0 209 39" version="1.1" xmlns="http://www.w3.org/2000/svg" xmlns:xlink="http://www.w3.org/1999/xlink">
    <!-- Generator: Sketch 51.2 (57519) - http://www.bohemiancoding.com/sketch -->
    <title>Page 1</title>
    <desc>Created with Sketch.</desc>
    <defs></defs>
    <g id="Page-1" stroke="none" stroke-width="1" fill="none" fill-rule="evenodd">
        <g id="Artboard-Copy-2" transform="translate(-756.000000, -232.000000)">
            <g id="Page-1" transform="translate(756.000000, 232.000000)">
                <path d="M209,26.9798001 C208.088408,26.943175 207.176507,26.9065498 206.264605,26.8696116 C206.249464,25.9896681 206.226288,25.1094116 206.220725,24.229155 C206.213,23.029602 206.229687,21.829736 206.211146,20.6304961 C206.206511,20.340938 206.151197,20.0325978 206.039952,19.7668305 C205.55171,18.6010853 204.807294,18.1988344 203.650036,18.5441128 C203.155613,18.6915527 202.705688,19.0055275 202.249583,19.2684775 C201.891435,19.4750811 201.884328,19.8322549 201.886491,20.2107151 C201.89947,22.2448214 201.867641,24.2792408 201.90874,26.3124079 C201.920483,26.8855764 201.770611,27.0408421 201.223964,26.9913825 C200.563601,26.9312796 199.895821,26.9563225 199.23144,26.9447401 C199.191577,26.2836086 199.12483,25.6227902 199.117105,24.9610326 C199.099491,23.5007208 199.111543,22.0404091 199.111543,20.5800973 C199.111543,19.8992446 199.110925,19.2741122 198.406372,18.8217755 C197.515793,18.2501723 196.665386,18.4918359 195.88667,18.8749916 C195.377105,19.1260463 195.032245,19.6265904 195.065619,20.3922759 C195.151834,22.3700357 195.086941,24.3546824 195.100537,26.3365117 C195.103009,26.742206 195.103627,27.0305119 194.556981,26.9907564 C193.743346,26.9315926 192.924459,26.9453662 192.107734,26.9281492 C192.073124,26.1079956 192.013484,25.288155 192.009158,24.4680013 C191.995871,22.0169314 191.998652,19.5655485 192.007304,17.1141655 C192.010394,16.2235788 192.191477,16.0485919 193.052699,16.0248011 C193.361405,16.0163492 193.670419,16.0207317 193.979124,16.0241751 C194.697583,16.032314 194.692638,16.0338792 194.789978,16.8627978 C194.806356,17.0024118 194.884536,17.1345129 194.934287,17.2700573 C195.007215,17.1999373 195.081996,17.1320086 195.152452,17.0596973 C196.392526,15.7850158 197.988894,15.9787849 199.515115,16.0626785 C199.928885,16.0855301 200.336784,16.5610314 200.712237,16.8725019 C201.350351,17.4018454 201.411536,17.459444 202.092295,16.9013012 C203.478224,15.7649815 205.101785,16.0504701 206.678994,16.023549 C207.500663,16.6370991 208.537097,17.0503062 208.702728,18.2783455 C208.715707,18.3731953 208.897098,18.4451935 209,18.527835 L209,26.9798001 Z" id="Fill-3" fill="#676767"></path>
                <path d="M49.6817872,15.4318445 C49.6817872,16.0155907 49.6710642,16.5996298 49.6919145,17.1827902 C49.6954888,17.2864762 49.8322068,17.4745168 49.9051826,17.4733453 C51.1853871,17.454014 52.4900161,17.6722232 53.6930748,16.953158 C53.9483412,16.800558 54.0734426,16.7147388 54.2024162,16.4376571 C54.8594965,15.0288166 54.1350998,13.7435791 52.5871187,13.6829492 C51.9943762,13.6595173 51.4001445,13.6773841 50.8062107,13.6794344 C49.684468,13.6829492 49.684468,13.6838279 49.6817872,14.8480983 C49.6814894,15.0425828 49.6817872,15.2370672 49.6817872,15.4318445 Z M49.7053182,21.5458023 L49.6817872,21.5458023 C49.6817872,22.1289627 49.6633199,22.7130018 49.6966803,23.2941119 C49.7038289,23.4142002 49.9096505,23.627723 50.0127103,23.6215722 C51.1103262,23.5553772 52.1909642,23.6578915 53.312409,23.3960405 C55.0671053,22.985983 55.4126235,21.7499524 54.7695426,20.4860965 C54.6390797,20.2298106 54.4538105,20.2245384 54.3209647,20.0997637 C53.5533782,19.3806986 52.6261384,19.5373991 51.7289825,19.5441358 C51.0540306,19.5491151 50.3796744,19.6191177 49.7053182,19.6604164 L49.7053182,21.5458023 Z M47.0010426,18.4445958 C47.0010426,16.2024598 46.9977661,13.9600309 47.0028298,11.7178949 C47.0046169,11.052723 47.0150421,11.0465721 47.7403324,11.0442289 C49.1781051,11.0398355 50.6277922,10.928827 52.0494804,11.0761548 C53.3704918,11.2129383 54.6840567,11.3889702 55.9040933,12.166615 C56.9263506,12.8186065 57.1053648,13.7614459 57.3981617,14.6846611 C57.6266207,15.4048979 57.1226407,16.45816 56.5016015,17.0779326 C56.4319022,17.1470566 56.3610114,17.2155948 56.291312,17.2847188 C55.5398099,18.0304377 55.5049603,18.1065912 56.5030908,18.6346868 C57.1560011,18.9800138 57.5044979,19.5022513 57.7010858,20.1000566 C57.9563523,20.8747725 58.134175,21.6351363 57.8678877,22.5349197 C57.5497727,23.6110278 56.9799655,24.4809356 56.109915,25.0116672 C55.1871431,25.5737389 54.1514821,26.0461838 52.9570614,25.9963911 C51.4230798,25.9322464 49.8840345,25.9811604 48.3473721,25.9805746 C47.0016383,25.9802817 47.0013405,25.9796959 47.0010426,24.5866719 C47.0007447,22.5393132 47.0010426,20.4919545 47.0010426,18.4445958 Z" id="Fill-5" fill="#676767"></path>
                <path d="M89.0028503,18.132689 C89.0028503,15.825836 88.9987244,13.5186883 89.0046186,11.2118352 C89.0075657,10.1152843 89.0968628,10.0283501 90.1189168,10.0074269 C91.6552395,9.97589479 91.6552395,9.97589479 91.6552395,11.502402 C91.6552395,14.1039476 91.6534713,16.7051985 91.6602496,19.306744 C91.6605443,19.4381769 91.7324535,19.5693151 91.7710605,19.7004532 C91.8750931,19.6176446 91.9956295,19.5486866 92.0808007,19.4493752 C93.0869403,18.2776778 94.4266916,17.4204172 95.2336073,16.0489182 C95.3815517,15.7972508 95.8634024,15.6814367 96.2111601,15.6236769 C96.6411419,15.5520666 97.0923427,15.5953864 97.5335235,15.6104158 C97.8161503,15.6201406 98.0970088,15.6681755 98.3787515,15.6991182 C98.2764872,16.0344783 98.2219658,16.3954766 98.057223,16.6966524 C97.9216564,16.9447835 97.6555334,17.1213043 97.4471735,17.3293572 C96.7531316,18.0236528 96.0543744,18.7132333 95.3671109,19.4143068 C95.0989249,19.6877815 94.6739532,19.9756961 94.6556812,20.2774612 C94.638588,20.5588926 95.0806529,20.8574161 95.2952017,21.1659591 C96.1097799,22.3376566 97.0384108,23.4144631 98.0056488,24.4597374 C98.1388576,24.6038421 98.3044846,24.7226032 98.4164744,24.8802637 C98.6260131,25.1749562 98.8072597,25.4899825 99,25.796168 C98.6245396,25.8377197 98.2496686,25.8863439 97.873324,25.917876 C97.678226,25.9343788 97.4707503,25.8807448 97.2859671,25.9273062 C96.0758882,26.2329023 95.2860657,25.5288819 94.7255274,24.6766311 C93.8962137,23.4150525 92.7680642,22.395711 91.9903247,21.1040737 C91.9464129,21.0306953 91.8547582,20.9861967 91.7855013,20.9281423 C91.7418843,21.0082986 91.6614284,21.0881603 91.660839,21.1689061 C91.6531766,22.5430573 91.6248844,23.9183873 91.6702697,25.2913597 C91.6879523,25.8288789 91.5432498,25.9791721 91.0189608,25.9317266 C90.3894605,25.8745562 89.7522976,25.8996051 89.1186713,25.8889962 C89.0800643,25.2669002 89.0128705,24.645099 89.0081551,24.0227084 C88.9937143,22.0594669 89.0028503,20.0962253 89.0028503,18.132689" id="Fill-11" fill="#676767"></path>
                <path d="M73.8554281,20.2600177 C74.3271146,19.5020778 73.6979901,18.7575583 73.2062319,18.2857141 C72.6711938,17.772084 71.8507604,17.4207171 70.9230684,17.4615879 C69.1250772,17.5402795 67.8900363,18.7264477 67.9505652,20.5747838 C68.0070171,22.3081327 69.2056779,23.4534301 71.0071189,23.5882427 C71.8241026,23.6492439 72.4353506,23.3027571 73.0111594,22.783332 C73.7381337,22.1281792 74.0307424,21.3485839 73.8554281,20.2600177 M70.8706936,15.0813214 C72.7408178,14.8342666 74.1703039,15.4958245 75.341366,16.6304467 C76.4195962,17.6747871 77.0201811,19.0381638 76.9994821,20.5095125 C76.9831738,21.6972057 76.5679391,22.8150526 75.7509555,23.8115071 C74.9552981,24.7817311 74.0884487,25.442069 72.820164,25.7476849 C71.2297901,26.1310774 69.9853406,26.1017969 68.4699222,25.4917849 C67.2047736,24.982425 66.2209435,24.2016097 65.6441938,23.0133065 C64.7572726,21.1854057 64.7419052,19.2220824 65.8756463,17.6034157 C67.0253822,15.9615686 68.6499408,14.6555331 70.8706936,15.0813214" id="Fill-13" fill="#676767"></path>
                <path d="M186.851047,21.5467977 C186.854196,19.6605891 185.684675,18.4494028 183.860487,18.4494028 C182.097388,18.4494028 180.90299,19.6514135 180.856701,21.3926467 C180.833399,22.2661689 181.007221,23.0066442 181.651182,23.6685147 C182.249168,24.2832835 182.997044,24.5062519 183.781133,24.5496833 C185.567219,24.6481687 186.847898,23.3544015 186.851047,21.5467977 M183.779874,26.9625744 C181.154592,27.2892277 179.059908,25.2984167 178.179146,23.3299331 C178.037443,23.0127613 178.052873,21.4486182 178.014141,21.0494772 C177.889758,19.7676384 178.608349,18.8491555 179.288207,17.8887704 C179.906662,17.015554 181.696841,16.0141843 182.761187,16.0031735 C183.284858,15.997974 183.808529,16.000115 184.3322,16.0028677 C186.447981,16.0129609 187.935232,17.0228945 189.070114,18.700204 C189.665581,19.5801492 189.544032,20.6371845 190,21.5339518 C189.511597,22.5136057 189.632202,23.6957358 188.878343,24.5943382 C187.92484,25.7315075 186.661165,26.6915868 185.481568,26.9429997 C184.939003,27.0586129 184.348575,26.9625744 183.779874,26.9625744" id="Fill-17" fill="#676767"></path>
                <path d="M82.9389056,16.018234 C83.5461236,15.9627356 84.273042,16.0409792 84.9970551,16.3063401 C85.4616204,16.4764744 85.7338517,16.6939187 85.6795216,17.2346484 C85.6644138,17.3841604 85.6844607,17.5373115 85.6760352,17.6880365 C85.6455291,18.228463 85.6095027,18.7685862 85.5758007,19.3087094 C85.1431942,19.0897487 84.7309251,18.7892085 84.2747852,18.6660811 C82.3383699,18.1444573 80.9377009,18.2654619 80.0373332,20.2515746 C79.1770592,22.1494359 80.4635479,24.3487473 82.4487731,24.5179717 C83.5060298,24.6080428 84.4331268,24.2383571 85.3512172,23.7867886 C85.9407126,23.4971662 85.9520434,23.4989858 85.9665702,24.1783097 C85.9732525,24.4806695 85.9282196,24.7903078 85.9755768,25.0847826 C86.0996352,25.8596365 85.7431488,26.2505511 85.0865398,26.4986256 C82.8726636,27.3344367 80.5565191,27.2207106 78.6288198,25.4256577 C77.9573936,24.8003157 77.479173,23.9174978 77.1886381,22.8851681 C76.8620768,21.7248585 76.9997904,20.67039 77.2958455,19.6511008 C77.5233344,18.8674521 78.0306084,18.069853 78.6227186,17.5263938 C79.6581851,16.5756436 80.8778507,15.883279 82.3587073,16.0164144 C82.5025221,16.029455 82.6483706,16.018234 82.9389056,16.018234" id="Fill-21" fill="#676767"></path>
                <path d="M173.955192,16.006295 C174.561022,16.0312814 175.243599,15.975519 175.933443,16.2793177 C176.384908,16.4776858 176.685207,16.6269951 176.661079,17.1718217 C176.654392,17.3235687 176.675905,17.4780581 176.657299,17.6273675 C176.586658,18.195657 176.832885,18.7971602 176.493923,19.336502 C176.061353,19.0857233 175.644772,18.7950272 175.192435,18.5923931 C173.817979,17.9762637 171.74554,18.6865494 170.941739,20.0181447 C170.916739,20.0592809 170.848714,20.0934088 170.850167,20.1284507 C170.893482,21.1541143 170.592021,22.2611362 171.175757,23.1722276 C171.740307,24.0525431 172.592656,24.5257622 173.666522,24.5522723 C174.672072,24.576954 175.553781,24.24695 176.396246,23.7405172 C176.725615,23.5424538 176.922713,23.5400161 176.95004,23.9967807 C176.955854,24.0976407 176.963994,24.2018525 176.948586,24.3002747 C176.851781,24.9212796 177.259932,25.6879371 176.686661,26.1471395 C176.082865,26.6310235 175.339241,26.9460966 174.55608,26.9649888 C173.526111,26.9893658 172.478408,27.1152123 171.486231,26.6712456 C170.022529,26.0164176 168.71697,24.8758773 168.182945,22.8041345 C167.664907,20.7963814 168.31696,19.0576897 169.262915,17.8824121 C170.151602,16.7790468 171.397856,16.0891769 172.850802,16.0090374 C173.18802,15.9904499 173.527274,16.006295 173.955192,16.006295" id="Fill-23" fill="#676767"></path>
                <path d="M59.0009458,17.9055652 C59.0009458,15.5441976 58.9979565,13.1825343 59.0026066,10.8211668 C59.0042673,10.0074223 59.0129032,10.0065349 59.9997189,10.0009147 C60.3863407,9.99854831 60.7732947,10.0023937 61.1599165,10.0000273 C61.6910233,9.99677351 61.9145598,10.2845864 61.986304,10.7019596 C62.0112152,10.8463097 61.9902898,10.9968717 61.9902898,11.1444756 C61.9902898,15.8675065 61.983979,20.5905374 61.9999221,25.3132724 C62.0015829,25.7809315 61.9829825,26.0684486 61.3063943,25.9859205 C60.5587262,25.8945185 59.7967756,25.8983639 59.0408038,25.8610931 C59.0275178,25.2263074 59.0042673,24.5918174 59.0026066,23.9570317 C58.9979565,21.9399748 59.0009458,19.9226221 59.0009458,17.9055652" id="Fill-25" fill="#676767"></path>
                <g id="Group-2" transform="translate(8.000000, 6.000000)" fill="#FDAE45">
                    <path d="M105.063632,19.979343 C103.662541,20.094108 102.225718,19.7284263 100.944236,18.9383249 C99.0880251,17.7933858 97.825317,16.2378831 97.2206101,14.0377686 C96.7118931,12.1879735 97.1906321,10.5478279 97.5764091,8.83508816 C98.4015601,7.951006 98.6774179,6.70003727 99.8738111,6.0054228 C100.77103,5.48491377 101.553788,4.824036 102.600897,4.53185211 C102.918542,4.44299207 103.229829,4.34660151 103.562917,4.31406969 C103.940518,4.27732079 104.315092,4.40323096 104.686939,4.07731038 C104.870441,3.91615741 105.33949,4.0495981 105.672881,4.09628727 C105.899381,4.1276142 106.129818,4.33304659 106.332094,4.30021355 C107.349527,4.13544594 108.160749,4.80656521 109.104601,4.93307782 C109.448893,4.97946578 109.72142,5.23068367 109.690534,5.65660946 C109.679633,5.80601483 109.705977,5.95933606 109.685689,6.1069341 C109.591818,6.79672905 109.906133,7.52477899 109.488561,8.183247 C108.902022,7.89829241 108.196783,7.7320187 107.758923,7.29826118 C107.20418,6.74853377 106.53013,7.26151228 105.953887,6.84281578 C105.519661,6.5271367 104.884067,6.84733409 104.31388,6.96481009 C103.404246,7.15247046 102.583032,7.38350658 101.826315,7.92299249 C101.075655,8.45826132 99.9658646,10.2435952 100.014617,11.1361116 C100.06458,12.0482072 99.9707095,12.9398199 100.232033,13.8874596 C100.536354,14.9893242 101.184363,15.7273144 101.975296,16.3116822 C102.793786,16.9162317 103.755503,17.408426 104.891637,17.2776963 C105.806117,17.1725704 106.722715,17.3481819 107.652032,17.0096101 C108.217374,16.8038765 108.676128,16.5529598 109.130037,16.1878805 C109.552756,15.8478026 109.974264,16.0731155 109.990313,16.5918172 C109.997883,16.8421315 110.008785,17.0945542 109.987891,17.3433624 C109.947617,17.8238091 110.059959,18.4720356 109.793488,18.743134 C109.359262,19.1847233 108.685212,19.4118435 108.08535,19.6663749 C107.700482,19.8293352 107.271706,19.9290391 106.854437,19.9669929 C106.304841,20.0172968 105.747069,19.979343 105.063632,19.979343" id="Fill-7"></path>
                    <path d="M113.002582,12.0022238 C113.002582,9.58813344 113.000336,7.17433896 113.003706,4.7602486 C113.004829,4.02173046 113.011849,4.0134458 113.632744,4.00871171 C115.590346,3.9936218 115.562826,3.82881626 115.533621,5.96300351 C115.514525,7.3421033 115.533621,8.72179484 115.528285,10.1011905 C115.526038,10.6976859 115.684421,10.3855318 115.953167,10.2423256 C117.110991,9.6254144 118.381706,9.45291597 119.633605,9.6606242 C120.597663,9.82039976 121.299154,10.5470827 121.702131,11.5081031 C121.918925,12.0258942 122.007384,12.5726817 121.999521,13.1564543 C121.972,15.2252519 121.986041,17.2946413 121.991658,19.3637348 C121.9925,19.7223421 122.037151,20.0421891 121.51342,19.99544 C120.867251,19.9377433 120.215185,19.9593426 119.565366,19.9463238 C119.530825,19.2717159 119.474099,18.5976997 119.466236,17.9225 C119.450229,16.5928123 119.465393,15.262237 119.460619,13.9322534 C119.454161,12.157857 118.399397,11.5104701 116.794787,12.289228 C116.638089,12.3655653 116.481391,12.4534418 116.315426,12.4948651 C115.668415,12.6555283 115.495991,13.0697612 115.513402,13.7565003 C115.561141,15.6270578 115.524354,17.5002783 115.534744,19.3723153 C115.53671,19.747492 115.551593,20.0386386 115.046396,19.9948482 C114.400789,19.9389268 113.749566,19.9552002 113.10087,19.9404062 C113.068014,19.2649106 113.011569,18.589711 113.007075,17.9139195 C112.994439,15.9433543 113.002582,13.972789 113.002582,12.0022238" id="Fill-9"></path>
                    <path d="M129.8203,16.3780983 C129.276194,16.2899012 128.646468,16.40347 128.056776,16.7456867 C127.644752,16.984604 127.666084,17.383303 127.680694,17.7874388 C127.695597,18.1930848 127.925571,18.3885077 128.273893,18.4942234 C128.575168,18.586045 128.991283,18.8720813 129.147619,18.7603247 C129.582436,18.4492187 130.044722,18.5513098 130.486845,18.4486146 C130.606653,18.4208265 130.770879,18.2577224 130.784613,18.140227 C130.847439,17.6074202 130.86994,17.0691765 130.886596,16.5321411 C130.888349,16.4832098 130.74867,16.3916903 130.669772,16.3850453 C130.428986,16.3654124 130.185862,16.3780983 129.8203,16.3780983 M133.52706,15.0031908 C133.52706,15.7561882 133.499007,16.5109979 133.54021,17.261881 C133.557743,17.5763096 133.746514,17.876542 133.813724,18.1930848 C133.937039,18.7742188 134.375071,18.3625319 134.631052,18.498754 C134.766932,18.5712448 134.950152,18.694479 134.971776,18.8207337 C135.022621,19.1125089 134.989601,19.4202924 134.987848,19.721431 C134.982588,20.5457109 134.683943,20.8513801 133.839731,20.9096748 C133.221986,20.9525651 132.617391,20.9217566 132.110981,20.4973838 C131.607493,20.0754273 131.155727,20.1252647 130.589705,20.4466403 C129.074565,21.3062594 127.519099,21.1008691 126.083442,20.2669237 C125.44495,19.8960128 124.986463,19.2022161 125.051043,18.3208497 C125.062147,18.1710356 125.076173,18.0148784 125.048997,17.8695949 C124.786295,16.4533074 125.619403,15.6305377 126.605924,14.9615087 C126.958629,14.7222893 127.389647,14.4175262 127.899272,14.5655281 C128.395747,14.7096034 128.881994,14.1786088 129.21366,14.3184555 C129.628898,14.4939435 130.009948,14.5316991 130.425187,14.5721731 C130.82114,14.6102307 130.918155,14.4386693 130.903252,14.0602073 C130.864972,13.1139013 130.305963,12.5067915 129.402723,12.449403 C128.361265,12.3832552 127.351367,12.4572561 126.437315,13.0537944 C126.30085,13.1431996 126.059772,13.3066058 126.021492,13.2685482 C125.861065,13.1105788 125.684567,12.9003557 125.653592,12.6874142 C125.596025,12.2947561 125.674047,11.881861 125.627,11.4861824 C125.576155,11.0551647 125.81285,10.7778876 126.102728,10.6573718 C126.727778,10.3973113 127.380589,10.1417815 128.042458,10.0593233 C128.856572,9.95813835 129.692017,10.0106941 130.516943,10.0402945 C132.151015,10.0988912 133.51654,11.544175 133.526475,13.1954534 C133.529982,13.7980325 133.52706,14.4006117 133.52706,15.0031908" id="Fill-15"></path>
                    <path d="M142.004512,14.6998749 C142.004512,13.1450305 141.996036,11.5901861 142.008447,10.0353417 C142.013895,9.36381838 142.24152,9.13084089 142.870515,9.10094004 C143.222243,9.08443228 143.575486,9.0947107 143.928122,9.09875977 C144.647017,9.10654645 144.642477,9.10872672 144.732982,9.91978738 C144.748419,10.0593247 144.819552,10.1923212 144.865258,10.3284324 C144.972109,10.2287629 145.078051,10.1284704 145.185809,10.0294238 C146.40112,8.9131253 147.939706,8.84366811 149.327551,9.17133163 C150.45508,9.43732464 151.551432,10.118192 151.749696,11.7213138 C151.866838,12.6669283 151.981861,13.6031988 151.990942,14.5544197 C152.001233,15.6943897 152.005471,16.8346713 151.988823,17.9749528 C151.979137,18.6340174 151.923441,19.2927706 151.888631,19.9515238 C151.240264,19.9674086 150.591897,19.9832934 149.94353,19.9991783 C149.893283,20.0004241 149.842733,20.0001127 149.792486,19.9991783 C148.97673,19.9882769 148.969768,19.9882769 148.967649,19.2033795 C148.963411,17.3893944 148.966438,15.5754093 148.966438,13.7614241 C148.966438,13.5022834 148.971281,13.2431427 148.96553,12.9840019 C148.945553,12.0922713 148.467299,11.6683644 147.613403,11.5730554 C146.715315,11.4733859 146.081779,12.0358957 145.353501,12.3610675 C144.962422,12.5354891 145.027199,12.9416424 145.028409,13.3048132 C145.034766,15.2742205 145.034161,17.2436277 145.030226,19.213035 C145.028409,19.9842278 145.021447,19.9979324 144.347049,19.9957521 C143.598793,19.9935719 142.850537,19.9627366 142.102584,19.94436 C142.069893,19.1809539 142.02116,18.4178592 142.008447,17.6538301 C141.992101,16.6695936 142.004512,15.6847343 142.004512,14.6998749" id="Fill-19"></path>
                    <path d="M138.961774,14.5427354 C138.961774,16.206897 138.954872,17.8707456 138.968019,19.5349072 C138.97032,19.8494018 138.899984,20.0146288 138.529573,19.9989823 C137.720386,19.9651859 136.910213,19.9520428 136.10004,19.9304506 C136.068159,19.2154057 136.011299,18.5000478 136.008341,17.7846899 C135.996837,15.2368141 135.998152,12.6886254 136.006697,10.1407496 C136.009984,9.24514408 136.199298,9.05613438 137.105443,9.04831113 C137.695078,9.04299132 138.502293,8.88308411 138.814201,9.17598656 C139.123152,9.46638556 138.952243,10.2380709 138.95783,10.7988414 C138.97032,12.046806 138.961774,13.2947707 138.961774,14.5427354" id="Fill-27"></path>
                    <path d="M93.2875196,16.9946652 C93.1040215,16.9946652 92.9202467,16.9998973 92.7367486,16.9939178 C92.1923433,16.9756054 91.6482148,16.9531821 91.1038096,16.9322537 C91.0730882,16.144074 91.0617406,15.3529045 91.0047262,14.5680883 C90.9632108,13.9962937 91.2006788,13.9974148 91.5018039,14.0004046 C92.6033458,14.0116163 93.7048877,14.0037681 94.8061528,14.005263 C96.0208934,14.0067579 96.0208934,14.007879 95.9932165,15.6720631 C95.9749497,16.7521197 95.8332438,16.9685047 95.0773868,16.990928 C94.4809489,17.0088667 93.8842342,16.9946652 93.2875196,16.9946652" id="Fill-29"></path>
                    <path d="M156.985487,18.3934204 C156.992283,19.3105156 156.359978,19.9891762 155.529499,19.9998638 C154.669934,20.0108058 153.991415,19.3614088 154.00093,18.5094569 C154.004192,18.1926468 153.959881,17.8979753 154.227374,17.5781117 C154.570439,17.1684215 155.086668,17.2226228 155.490626,17.0200679 C155.707828,16.910902 156.219163,17.2740249 156.575277,17.4610573 C156.977875,17.6725185 157.033603,18.0430209 156.985487,18.3934204" id="Fill-31"></path>
                    <path d="M137.518,7.99997711 C136.721921,8.0046134 136.004386,7.30426045 136.000023,6.51799973 C135.995387,5.72192096 136.695467,5.00465918 137.481728,5.00002289 C138.278079,4.9953866 138.995341,5.69573955 138.999977,6.48200027 C139.004613,7.27807904 138.30426,7.99534082 137.518,7.99997711" id="Fill-33"></path>
                    <path d="M15.9611921,8.84346713 C15.9617978,8.83011893 15.9627064,8.81646737 15.9636149,8.80281581 C16.5690251,8.80281581 17.1768581,8.83497282 17.7795425,8.7943215 C18.4824725,8.74729946 19.0721341,8.24492197 19.1190768,7.72828619 C19.2029681,6.80210354 19.0336713,6.51117359 18.162656,6.18596304 C17.9424793,6.1037503 17.6901999,6.08069433 17.4521546,6.07735728 C16.5441908,6.06522256 15.6356213,6.06886297 14.7273547,6.07371686 C13.9850534,6.07766065 13.9714248,6.08221117 13.9741506,6.76782295 C13.9768763,7.41642384 14.0117048,8.06502472 14.0326019,8.71332223 C14.6752634,8.75670387 15.3182277,8.8000855 15.9611921,8.84346713 Z M13.2297293,14.5668087 C15.2473593,14.5668087 17.2649893,14.572876 19.2823165,14.563775 C20.0885205,14.5601346 20.6333594,14.0559369 20.6333594,13.3536399 C20.6333594,12.6513428 20.0888234,12.1480553 19.2829222,12.142898 C17.7195769,12.1328869 16.1544145,12.1802123 14.5928864,12.119842 C13.9768763,12.0961793 13.9677906,12.3416041 13.9571906,12.8184986 C13.9341735,13.8742194 13.8251452,13.9476345 12.7254732,13.9597692 C12.4731937,13.9624995 12.2200057,13.9749376 11.9692405,13.9567355 C11.5322186,13.9251853 10.9949511,14.0086115 10.6969403,13.7826023 C10.4994779,13.6330418 10.6163805,13.0253956 10.6472719,12.6273768 C10.6796775,12.2099423 10.5025064,12.1249993 10.1281758,12.1328869 C9.11996651,12.1535159 8.10872864,12.1007298 7.10263934,12.1492687 C5.72403653,12.2163131 4.73945004,12.862487 3.9411203,14.0550268 C3.13067629,15.2654653 3.2288018,16.561757 3.44837276,17.7512631 C3.67521229,18.9805104 4.71461581,19.8602777 5.82458489,20.512519 C5.90484187,20.5598444 5.98964169,20.6193046 6.07747007,20.6302258 C6.9427311,20.7379215 7.80799214,20.9126615 8.67537316,20.9235827 C11.5500871,20.9605936 14.4254067,20.9448185 17.3007264,20.9296501 C17.7177598,20.9275265 17.9539879,20.9684812 17.9173422,21.4802631 C17.8604052,22.2775143 17.8673709,23.0796194 17.8476852,23.879601 C17.0529898,23.9102411 16.2585972,23.943915 15.4642046,23.9697013 C15.1619538,23.9794091 14.8563715,23.996701 14.5568465,23.9651508 C14.112556,23.9184321 13.9250878,24.0549477 13.9611277,24.534876 C14.0020133,25.0876125 13.9874762,25.6464165 13.9656706,26.2012766 C13.9444706,26.729137 13.6858312,26.9915504 13.1443237,26.9982245 C12.3441768,27.0082356 11.5437271,26.9733483 10.7432774,26.9575732 C10.7084489,26.2140181 10.663929,25.4707664 10.6418204,24.7269079 C10.6194091,23.9860832 10.6294033,23.9797124 9.94282763,23.9730383 C9.18629208,23.9657575 8.42369941,23.9108479 7.67443242,23.9851731 C6.47602923,24.1034866 5.39271152,23.6957599 4.2975824,23.3484035 C3.99442304,23.2522359 3.77182351,22.9273287 3.48108127,22.7632066 C1.56975387,21.6835197 -0.0272084733,19.0851724 0.000351468573,16.460432 C0.0248828454,14.1624191 0.865006787,12.3051999 2.46681484,10.8126291 C3.81422342,9.55729214 5.41088291,8.69906394 7.37490733,8.79159119 C8.42491083,8.84073681 9.48036575,8.772479 10.533095,8.7573106 C10.5685292,7.66033175 10.6233462,6.56365626 10.6345519,5.46637403 C10.6518147,3.79936662 10.6442433,2.13175247 10.6339462,0.464441686 C10.632129,0.171388154 10.6711975,-0.00820572989 11.0258425,0.000288575406 C11.7314981,0.016973818 12.4386681,-0.0106326743 13.1440209,0.0102997209 C13.6858312,0.0266815954 13.9269049,0.281510754 13.9699106,0.808461051 C13.9738477,0.858516779 13.9696077,0.90948261 13.9705163,0.959841706 C13.9805105,1.51136481 13.9908077,2.06288792 14.0011048,2.61441103 C14.589555,2.65475898 15.1777023,2.70633155 15.7667582,2.73302794 C16.7404419,2.7770163 17.6929256,2.77792641 18.6763006,3.00029519 C21.3871692,3.61309864 22.6658294,5.75942757 22.442927,8.18667531 C22.4311156,8.31499999 22.2921044,8.42603269 22.2457674,8.55708769 C21.8811282,9.59096599 21.8326711,9.65345981 22.6382694,10.3232965 C23.4011649,10.9582458 23.6052902,11.851968 23.9408552,12.6743988 C24.2028261,13.3160222 23.5374504,15.3564757 23.0631771,15.929538 C21.9359452,17.2916605 20.5431081,18.0073057 18.7326319,17.9172054 C17.3740177,17.8495543 16.0093463,17.9211492 14.6480063,17.8944528 C14.1685844,17.8853517 13.8414994,17.9123515 13.962642,18.528492 C14.0104933,18.7717932 13.9805105,19.0326897 13.9680934,19.2847885 C13.945682,19.745908 13.6870426,20.0013439 13.2348778,20.022883 C12.7818045,20.0441188 12.3272169,20.0283436 11.873235,20.0274335 C10.6590833,20.0250066 10.6587804,20.0247032 10.6393976,18.7499507 C10.636369,18.5479076 10.6718032,18.3376735 10.6254662,18.146855 C10.6015405,18.0482604 10.4395123,17.9190256 10.3350268,17.9147784 C9.78110226,17.8917225 9.22536057,17.9172054 8.67113317,17.9005202 C7.92883188,17.8786777 7.1871363,17.8334758 6.44513787,17.7982851 C6.42969219,17.0468425 6.41424651,16.2950964 6.39940654,15.5436538 C6.39728654,15.4426322 6.41121794,15.3400938 6.39698368,15.2408925 C6.32672098,14.7509531 6.42242363,14.5164496 7.02662236,14.5483032 C8.23380838,14.6114038 9.44674868,14.5668087 10.6572661,14.5668087 L13.2297293,14.5668087 Z" id="Fill-35"></path>
                </g>
                <path d="M20.233631,35.6744186 C21.1079065,35.475186 22.2986771,36.0000233 23.38354,35.372093 C25.0759139,35.3569767 26.5138025,34.5875581 27.9584445,33.8541163 C28.4253592,33.6167907 28.8502178,33.3002558 29.2980998,33.0260465 C30.4784331,32.3028837 31.6851666,31.538 32.4805486,30.4390465 C33.7204358,28.7257674 35.062547,27.0672093 35.7191745,24.9675581 C36.0104974,24.036093 35.9813344,22.9966977 36.5713476,22.1459535 C36.666511,22.0083953 36.5903802,21.7520233 36.5836267,21.5506744 C36.5127146,19.3566977 36.7374231,17.1699767 36.0233905,14.988093 C35.5356012,13.4979302 34.9851883,12.0676279 34.1394618,10.7715581 C33.1015666,9.18132558 31.94088,7.68934884 30.2881063,6.60823256 C29.4466775,6.058 28.6660305,5.42402326 27.7257546,5.0297907 C26.7685948,4.62830233 25.9640035,3.83711628 24.8140611,3.93023256 C24.4794542,3.31227907 23.817301,3.7204186 23.3163117,3.4722093 C22.4484827,3.04260465 21.3550244,3.55534884 20.4343951,3.03565116 C20.2805987,2.9485814 20.0325599,3.02144186 19.828112,3.02386047 C19.7283439,3.02537209 19.5748546,2.99665116 19.5374032,3.04713953 C19.1920521,3.51483721 18.6925976,3.328 18.2689669,3.31348837 C16.5756721,3.25574419 15.0346387,3.83923256 13.5246102,4.4435814 C10.5257347,5.64381395 8.2101939,7.72351163 6.35542823,10.2887442 C4.43343421,12.9464884 3.66967106,16.0060233 3.44035792,19.2124884 C3.39216226,19.8839535 3.46123248,20.5357674 3.69330842,21.2156977 C3.91740292,21.8726512 3.86091882,22.6275581 3.99875229,23.349814 C4.45492272,25.7387907 5.5465392,27.8372326 7.05503282,29.6490698 C8.67434578,31.5939302 10.622126,33.2077442 13.0862445,34.2069302 C15.030648,34.995093 16.9247069,35.7530233 19.063428,35.6759302 C19.3697928,35.6647442 19.6767715,35.6744186 20.233631,35.6744186 Z M23.384461,0 C23.4206845,0.0858604651 23.4584429,0.247604651 23.4925175,0.246697674 C24.8343217,0.214348837 26.0263202,0.783627907 27.2232304,1.23227907 C29.0095398,1.90193023 30.7528722,2.69190698 32.1984351,3.98737209 C32.8961979,4.6125814 33.6903519,5.14346512 34.3325515,5.81704651 C35.8966083,7.45837209 37.2405613,9.25781395 38.1430788,11.3529302 C38.8543486,13.0036279 39.6896378,14.6123023 39.6543353,16.4743256 C40.2167203,17.705093 39.9152672,19.0063023 39.9496488,20.2751628 C40.0006073,22.1604651 39.4683061,23.9417674 38.8835116,25.7224651 C38.2892007,27.533093 37.5702565,29.2560465 36.2775689,30.7005581 C36.1053538,31.5715581 35.2194131,31.9216512 34.8040708,32.6590233 C34.4206544,33.3398605 33.6188259,33.8060465 32.9591285,34.3308837 C31.7425717,35.2989302 30.5257079,36.217093 29.1129916,36.8897674 C27.3018169,37.752 25.4381489,38.3569535 23.4458567,38.7569302 C21.520179,39.1436047 19.6310317,38.8367442 17.7348239,39 C16.8562507,38.5335116 15.8223462,38.817093 14.9164519,38.4089535 C14.1023442,38.0422326 13.2335943,37.7946279 12.3912446,37.4877674 C9.26067521,36.3464884 6.80730096,34.2749535 4.65384496,31.8548372 C3.58248909,30.6506744 2.64374804,29.288093 2.06509308,27.7867442 C1.49472654,26.3068605 0.606023033,24.8974186 0.668032742,23.2219302 C0.175024854,22.6726047 0.4359568,22.0017442 0.355221386,21.385 C0.280932526,20.8190465 0.193136601,20.2500698 0.0451728386,19.6998372 C-0.149144716,18.9772791 0.344170151,18.3907674 0.379779687,17.7096279 C0.411705478,17.0956047 0.0577589678,16.4011628 0.668032742,15.871186 C0.508096809,14.7205349 1.14446378,13.7546047 1.43210288,12.7091628 C1.719435,11.6643256 2.24958731,10.7271163 2.80583283,9.79534884 C3.44864635,8.71846512 4.0708923,7.63916279 5.000117,6.76574419 C6.20009698,5.63837209 7.29723906,4.41002326 8.65746195,3.44197674 C9.5658121,2.79590698 11.0752267,2.02437209 12.284109,1.48411628 C13.6885368,0.856488372 15.1709373,0.557790698 16.6290864,0.145418605 C16.6425935,0.141790698 16.6309283,0.0504883721 16.6309283,0 L23.384461,0 Z" id="Fill-1" fill="#FDAE45"></path>
                <path d="M15.4458368,10.9275418 L14.1196935,10.9275418 C14.0840851,10.4557396 14.0360677,9.98473973 14.0147566,9.51240257 C13.9470467,8.00819863 14.057109,8.00552401 15.5467273,8.00017478 C16.9600032,7.99509301 17.0463266,8.0919141 16.9791562,9.4795048 C16.9562266,9.95478403 17.1013578,10.613007 16.8475131,10.8537224 C16.5831476,11.1043339 15.9300571,10.9516134 15.4469158,10.9754174 C15.4463763,10.9593697 15.4461065,10.9435895 15.4458368,10.9275418" id="Fill-37" fill="#FDAE45"></path>
            </g>
        </g>
    </g>
</svg>