<?xml version="1.0" encoding="UTF-8"?>
<svg width="52px" height="52px" viewBox="0 0 52 52" version="1.1" xmlns="http://www.w3.org/2000/svg" xmlns:xlink="http://www.w3.org/1999/xlink">
    <!-- Generator: Sketch 51.2 (57519) - http://www.bohemiancoding.com/sketch -->
    <title>boldman</title>
    <desc>Created with Sketch.</desc>
    <defs></defs>
    <g id="Page-1" stroke="none" stroke-width="1" fill="none" fill-rule="evenodd">
        <g id="Artboard-Copy-2" transform="translate(-625.000000, -339.000000)" fill="#113E70">
            <path d="M633.08304,356.255061 C633.917024,357.067566 634.839509,357.492002 635.907256,357.566493 C636.945833,357.63888 637.940628,357.435695 638.971664,357.034881 C638.746319,356.963781 638.598076,356.91794 638.450417,356.870287 C637.561661,356.583723 636.672963,356.300259 635.886972,355.770167 C634.959109,355.144475 634.585871,354.037748 634.865755,353.032408 C635.243027,353.625298 635.578152,353.877714 636.275759,354.006174 C636.704062,354.08505 637.143354,354.134575 637.578496,354.140948 C639.399441,354.167552 641.181981,353.839767 642.960312,353.50327 C645.558304,353.011651 648.136072,352.392333 650.796846,352.312112 C650.870792,352.30989 650.985657,352.217624 651.007402,352.145179 C651.605927,350.152041 652.711962,348.44342 653.974307,346.821685 C654.012011,346.773155 654.064737,346.73626 654.131143,346.674691 C654.639062,348.355422 654.785493,350.033463 654.563888,351.79576 C658.227757,349.573593 661.841881,347.381598 665.537666,345.140077 C658.141302,340.160974 650.314238,339.000571 642.018302,342.162474 C633.547995,345.390798 627.265498,353.377267 626.536501,363.074169 C626.029458,369.819194 628.031674,375.78171 632.415421,380.958969 C632.525434,380.372979 632.642696,379.787983 632.593476,379.217254 C632.496733,378.09509 632.320431,376.979008 632.15319,375.863919 C631.942809,374.460923 631.851677,373.057634 632.040488,371.645282 C632.260923,369.997353 632.805728,368.454612 633.550508,366.976364 C633.603177,366.871761 633.653565,366.766046 633.705006,366.6608 C632.424189,367.559431 631.037042,367.571534 629.522813,367.313271 C630.290216,366.96087 630.597516,366.313486 630.889092,365.667447 C631.256893,364.852311 631.599442,364.02554 631.938659,363.19795 C632.508716,361.807233 633.514208,360.931112 634.983426,360.607654 C635.484623,360.497379 635.994997,360.428969 636.517764,360.338574 C635.502803,360.248529 634.618197,359.89911 633.969751,359.092395 C633.3268,358.29252 633.112911,357.351264 633.08304,356.255061 M656.196607,388.96561 C663.008125,387.681308 671.156811,382.274202 674.311007,372.717629 C677.49484,363.071537 674.319132,353.11988 667.85747,347.173911 C664.84608,350.036386 661.834106,352.899447 658.803894,355.779873 C658.905606,355.895352 658.993173,355.996447 659.082551,356.095905 C659.791674,356.884963 660.510558,357.665542 661.205827,358.466703 C661.481795,358.784782 661.714156,359.165307 661.671483,359.602373 C661.606188,360.270163 661.85252,360.820428 662.20559,361.346895 C662.763664,362.178929 663.467234,362.880515 664.218444,363.532635 C665.278066,364.452549 666.33342,365.371353 667.198093,366.490008 C668.781241,368.53805 669.183063,370.735191 668.077788,373.131891 C667.696776,373.958136 667.127771,374.611543 666.175006,374.725326 C665.662644,374.786486 665.123627,374.743803 664.611206,374.659488 C663.722918,374.513254 663.067165,374.056659 662.719238,373.163173 C662.583329,372.814163 662.277724,372.494564 661.974458,372.257525 C661.652193,372.005577 661.250955,371.843789 660.867078,371.683697 C659.289132,371.025555 657.703938,370.384544 656.122953,369.733652 C655.762984,369.585371 655.405997,369.529882 655.013411,369.608116 C654.585984,369.693249 654.1464,369.769962 653.713128,369.764992 C651.140739,369.735757 649.175935,368.616809 647.852271,366.405109 C647.364226,365.589564 647.108659,364.689822 646.991222,363.746812 C646.781484,364.772733 646.863672,365.779417 647.232877,366.751312 C648.044121,368.886708 649.685959,370.115522 651.713894,370.799859 C651.701443,371.377546 651.646554,371.912609 651.687882,372.440128 C651.766387,373.441609 652.125537,374.373802 652.54513,375.274363 C653.292658,376.878439 654.098466,378.45556 654.828867,380.067121 C656.108573,382.890655 656.86218,385.807567 656.196607,388.96561 M625,365.007842 C624.999942,350.592323 636.670099,338.941575 651.159912,339.00022 C665.60565,339.058632 677.258738,350.93303 676.995631,365.497356 C676.740005,379.647245 665.063534,391.271447 650.478614,390.995175 C636.525539,390.730947 625.051032,379.371089 625,365.007842" id="boldman"></path>
        </g>
    </g>
</svg>