<?xml version="1.0" encoding="UTF-8"?>
<svg width="150px" height="43px" viewBox="0 0 150 43" version="1.1" xmlns="http://www.w3.org/2000/svg" xmlns:xlink="http://www.w3.org/1999/xlink">
    <!-- Generator: Sketch 51.2 (57519) - http://www.bohemiancoding.com/sketch -->
    <title>cbdoken</title>
    <desc>Created with Sketch.</desc>
    <defs></defs>
    <g id="Page-1" stroke="none" stroke-width="1" fill="none" fill-rule="evenodd">
        <g id="Artboard-Copy-2" transform="translate(-100.000000, -710.000000)" fill="#4A94EA">
            <g id="cbdoken" transform="translate(100.000000, 710.000000)">
                <path d="M18.5818676,34.1448088 C19.7137059,34.7946618 20.6108382,35.3763529 21.5697353,35.8254706 C21.9226765,35.9906912 22.5103235,35.9995147 22.8414265,35.8133382 C26.13525,33.9630441 29.40525,32.0697353 32.6558382,30.1444412 C32.9542941,29.9675294 33.2432647,29.4848824 33.2456912,29.1420882 C33.2829706,23.9271618 33.2825294,18.7115735 33.2467941,13.4964265 C33.2443676,13.1485588 32.97525,12.6535588 32.6807647,12.4792941 C29.3979706,10.5356912 26.0917941,8.63113235 22.7708382,6.75348529 C22.4834118,6.59091176 21.9773824,6.55473529 21.6912794,6.69767647 C20.6836324,7.20083824 19.7276029,7.80745588 18.61275,8.45598529 C19.0901029,8.74782353 19.4518676,8.97922059 19.8233382,9.19429412 C22.8396618,10.9398088 25.8606176,12.6780441 28.8742941,14.4284118 C29.9578235,15.05775 29.9381912,18.9954706 28.8573088,19.6382647 C27.9603971,20.1714265 27.0608382,20.6997353 26.0553971,21.2933382 C26.3759118,21.5026765 26.5387059,21.6672353 26.7337059,21.7278971 C29.3829706,22.5537794 30.0723088,24.4561324 29.5753235,26.9642206 C29.4903971,27.3923824 29.2369412,27.9237794 28.8932647,28.1406176 C27.3116471,29.1376765 25.6698088,30.0396618 24.0504706,30.9769412 C22.2813529,32.0009118 20.5126765,33.0262059 18.5818676,34.1448088 Z M25.8354706,17.0132647 C23.4581912,15.6423088 21.2465735,14.3434853 19.0034118,13.1020147 C18.7254706,12.9482647 18.2088529,12.9696618 17.9229706,13.1276029 C15.8375294,14.2803971 13.7681912,15.4645147 11.7334853,16.7044412 C11.4085588,16.9025294 11.1050294,17.4246618 11.0957647,17.8042941 C11.03775,20.1522353 11.0419412,22.5030441 11.0931176,24.8512059 C11.1008382,25.20525 11.3748088,25.6967206 11.6748088,25.8780441 C13.7448088,27.1303235 15.8465735,28.3314265 17.9613529,29.5069412 C18.2247353,29.6534118 18.6996618,29.6869412 18.9504706,29.5468676 C21.2209853,28.2809118 23.4634853,26.9646618 25.8286324,25.5967941 C23.3381912,24.1503971 20.9551765,22.7662059 18.4347353,21.3023824 C20.9840735,19.8248824 23.3269412,18.4671618 25.8354706,17.0132647 Z M18.5293676,42.7023088 C18.5170147,40.1668676 18.4799559,37.6309853 18.5090735,35.0959853 C18.5167941,34.419 18.3003971,34.04775 17.7105441,33.7144412 C14.4828971,31.8899559 11.2883382,30.0070147 8.06223529,28.1796618 C7.51076471,27.8673088 7.29723529,27.5216471 7.30230882,26.8839265 C7.33120588,23.1723088 7.33583824,19.4598088 7.29922059,15.7481912 C7.29238235,15.0487059 7.56613235,14.7147353 8.14054412,14.3891471 C11.3024559,12.5984118 14.4253235,10.7384118 17.5976029,8.96642647 C18.3156176,8.56539706 18.5293676,8.11738235 18.5117206,7.32767647 C18.4583382,4.94333824 18.4925294,2.55679412 18.4925294,-4.4117647e-05 C18.8851765,0.187014706 19.1703971,0.299735294 19.4331176,0.451279412 C25.0305441,3.67760294 30.6211324,6.91605882 36.2280441,10.1258382 C36.8086324,10.4582647 37.0398088,10.8257647 37.0371618,11.5069412 C37.0113529,18.0123088 37.0056176,24.5176765 37.0428971,31.0228235 C37.0473088,31.8134118 36.7411324,32.1875294 36.1049559,32.5512794 C30.5931176,35.7050294 25.0971618,38.8867941 19.6009853,42.0678971 C19.2967941,42.2439265 19.03275,42.4892206 18.7499559,42.7023088 L18.5293676,42.7023088 Z" id="Fill-1"></path>
                <path d="M0,10.4965147 C2.93205882,8.83239706 5.86654412,7.17291176 8.79507353,5.50283824 C10.7351471,4.39658824 12.6663971,3.27533824 14.8072059,2.04247059 C14.8072059,3.49151471 14.84625,4.78504412 14.7741176,6.07239706 C14.76,6.32717647 14.3572059,6.62276471 14.07,6.79041176 C10.9005882,8.63916176 7.72742647,10.4823971 4.53154412,12.2852647 C3.90639706,12.6379853 3.69044118,13.0379118 3.69529412,13.7561471 C3.72882353,18.7886471 3.72882353,23.8218088 3.69529412,28.8543088 C3.69044118,29.5727647 3.90639706,29.9726912 4.53154412,30.3254118 C7.72720588,32.1282794 10.8886765,33.9920294 14.0836765,35.7962206 C14.6388971,36.1096765 14.8568382,36.4577647 14.8294853,37.0877647 C14.7818382,38.1801176 14.81625,39.2757794 14.81625,40.5682059 C14.0805882,40.1473235 13.4878676,39.8102647 12.8971324,39.4694559 C8.89257353,37.1590147 4.88933824,34.8461471 0.882794118,32.5392353 C0.600661765,32.3766618 0.294705882,32.2548971 0,32.1141618 L0,10.4965147 Z" id="Fill-4"></path>
                <path d="M150,29.0259265 C149.132206,28.9659265 148.264412,28.9059265 147.241324,28.8351176 C147.241324,27.5808529 147.241324,26.3471029 147.241103,25.1135735 C147.241103,24.2696029 147.251471,23.4256324 147.238456,22.5818824 C147.209779,20.6894559 146.370441,19.6846765 144.748015,19.5801176 C142.953088,19.4645294 141.594706,20.5661471 141.414044,22.3513676 C141.333309,23.1514412 141.366176,23.9636471 141.361985,24.7703382 C141.355147,26.0890147 141.360221,27.4076912 141.360221,28.8214412 L138.648971,28.8214412 L138.648971,17.3740147 L141.125074,17.3740147 C141.168529,17.6852647 141.216618,18.0302647 141.268456,18.4037206 C141.984044,18.0633529 142.663015,17.6250441 143.406618,17.4071029 C146.421397,16.5234265 148.481912,17.5610735 150,20.6435735 L150,29.0259265 Z" id="Fill-6"></path>
                <path d="M68.9167059,19.993875 C70.6591324,19.993875 72.2729559,20.0704191 73.8755294,19.9689485 C75.1035441,19.8915221 75.8213382,19.1194632 75.8736176,18.1404926 C75.9300882,17.0851985 75.2751618,16.2143162 73.9853824,16.1040221 C72.3239118,15.9617426 70.6412647,16.0691691 68.9167059,16.0691691 L68.9167059,19.993875 Z M68.9142794,26.5590221 C70.8547941,26.5590221 72.7205294,26.646375 74.57325,26.5294632 C75.9027353,26.4458603 76.6214118,25.6056397 76.6412647,24.5159338 C76.6606765,23.4456397 75.9889853,22.5560074 74.7486176,22.4752721 C72.8286176,22.3504191 70.8945,22.4424044 68.9142794,22.4424044 L68.9142794,26.5590221 Z M66.0821471,13.8893162 C69.1529559,13.8893162 72.1959706,13.761375 75.2211176,13.9404926 C76.8583235,14.0375515 78.2405294,14.9792426 78.6486176,16.7547574 C79.0375147,18.4468897 78.5089853,19.8712279 77.2902353,20.7584338 C78.0011912,21.7023309 78.9715588,22.5290956 79.3346471,23.5680662 C80.1243529,25.8266691 78.9230294,27.8404191 76.5821471,28.5035074 C75.6753088,28.7604926 74.7042794,28.8760809 73.7590588,28.8957132 C71.2304559,28.9479926 68.7000882,28.9135809 66.0821471,28.9135809 L66.0821471,13.8893162 Z" id="Fill-8"></path>
                <path d="M84.9785956,26.3759559 C86.6376397,26.3759559 88.184625,26.48625 89.7097721,26.3508088 C92.1534485,26.1333088 93.8614632,24.2858824 94.0652868,21.8589706 C94.2891838,19.1936029 93.0243309,17.0302941 90.5625662,16.4847794 C88.7762426,16.0890441 86.8884485,16.1497059 84.9785956,16.0016912 L84.9785956,26.3759559 Z M82.1091838,28.7638235 L82.1091838,13.5880147 C85.0844779,13.7058088 88.0427868,13.5646324 90.9137426,13.9989706 C94.7874926,14.5848529 97.1365368,17.7044118 97.0189632,21.4460294 C96.8969779,25.3325735 94.4610221,28.2756618 90.5354338,28.7058088 C87.7884485,29.0066912 84.9819044,28.7638235 82.1091838,28.7638235 Z" id="Fill-10"></path>
                <path d="M115.472559,11.2398088 L115.472559,22.4362059 C116.708735,21.3010588 117.716603,20.3765735 118.722926,19.4503235 C118.912191,19.2760588 119.124618,19.1167941 119.2755,18.9131912 C120.506603,17.25525 122.193441,17.0258382 123.966529,17.3657647 C122.485059,18.8351029 120.945353,20.3624559 119.363735,21.9310588 C121.265647,24.3588529 122.955794,26.5162059 124.662044,28.6945147 C122.719324,29.3196618 121.534765,28.9843676 120.339176,27.5141471 C119.458147,26.4308382 118.579985,25.3455441 117.698074,24.2631176 C117.652853,24.2075294 117.585353,24.1700294 117.527559,24.1241471 C115.509176,25.0631912 115.193956,26.7930441 115.524176,28.8356912 L112.7205,28.8356912 L112.7205,21.7468676 C112.7205,19.1373088 112.766382,16.5264265 112.694912,13.9188529 C112.670868,13.0462059 112.947044,12.5609118 113.712706,12.2262794 C114.245206,11.9937794 114.732926,11.6600294 115.472559,11.2398088" id="Fill-12"></path>
                <path d="M63.8322794,16.5305956 C63.0758824,16.9719926 62.3869853,17.3743456 61.7161765,17.7656691 C58.8714706,15.4585368 55.6389706,15.4539044 53.5782353,17.7158162 C51.7828676,19.6861103 51.8161765,23.036625 53.6501471,24.967875 C55.7422059,27.1708897 58.9014706,27.1358162 61.7329412,24.821625 C62.3936029,25.2050074 63.0820588,25.6044926 63.7680882,26.0024338 C62.5305882,28.3830221 58.9107353,29.6626544 55.5853676,28.9426544 C52.0905882,28.1858162 49.6257353,25.4544926 49.4071324,22.0969191 C49.1552206,18.2266985 51.045,15.2158897 54.4961029,13.9883162 C57.9670588,12.7539044 61.8650735,13.7694926 63.8322794,16.5305956" id="Fill-14"></path>
                <path d="M127.514228,22.0646912 L133.75511,22.0646912 C133.423566,20.3348382 132.125625,19.2846176 130.507831,19.36425 C128.902831,19.4434412 127.726213,20.4773382 127.514228,22.0646912 M136.357831,23.9811618 L127.505404,23.9811618 C127.605331,25.1116765 128.212169,25.8016765 129.095404,26.2174853 C130.933566,27.0826324 132.658566,26.8126324 134.262022,25.4626324 C134.738051,26.0039559 135.194669,26.5234412 135.700037,27.0980735 C135.489596,27.3345441 135.325257,27.5659412 135.116581,27.7461618 C132.974007,29.5968971 128.699007,29.4788824 126.525551,27.5171912 C124.339963,25.5446912 123.974228,22.0605 125.692169,19.5795441 C127.229449,17.3593235 130.457757,16.5131471 133.10636,17.6359412 C135.48761,18.6453529 136.845331,21.2165294 136.357831,23.9811618" id="Fill-16"></path>
                <path d="M104.436243,26.6541838 C106.433228,26.6566103 107.846316,25.2064632 107.864846,23.1358015 C107.883596,21.0216838 106.446463,19.5300662 104.40161,19.5406544 C102.423816,19.5512426 101.025287,21.0364632 101.036757,23.114625 C101.048007,25.1987426 102.443449,26.6517574 104.436243,26.6541838 M104.394993,29.0257279 C100.791904,29.0206544 98.2708015,26.5840368 98.272125,23.1084485 C98.2736691,19.6595515 100.838007,17.1653603 104.396757,17.1514632 C108.035801,17.1373456 110.63786,19.6266838 110.625507,23.1104338 C110.612713,26.643375 108.097787,29.0312426 104.394993,29.0257279" id="Fill-18"></path>
            </g>
        </g>
    </g>
</svg>