<?xml version="1.0" encoding="UTF-8"?>
<svg width="81px" height="56px" viewBox="0 0 81 56" version="1.1" xmlns="http://www.w3.org/2000/svg" xmlns:xlink="http://www.w3.org/1999/xlink">
    <!-- Generator: Sketch 51.2 (57519) - http://www.bohemiancoding.com/sketch -->
    <title>Cpollo</title>
    <desc>Created with Sketch.</desc>
    <defs></defs>
    <g id="Page-1" stroke="none" stroke-width="1" fill="none" fill-rule="evenodd">
        <g id="Artboard-Copy-2" transform="translate(-1234.000000, -703.000000)" fill="#45AAF2">
            <g id="Cpollo" transform="translate(1234.000000, 703.000000)">
                <path d="M49.1341788,14.5374994 C46.0730539,12.7731832 43.2507966,11.1292162 40.4017572,9.53565829 C40.1666898,9.40414838 39.7025265,9.52393959 39.426562,9.67981697 C36.7894272,11.1684646 34.167312,12.6855719 31.5499018,14.2106777 C31.3363687,14.3351192 31.0377841,14.5752596 31.033803,14.7668512 C30.9952584,16.6641654 31.0104591,18.5625956 31.0104591,20.5713305 C31.3589887,20.4011303 31.5772268,20.3118449 31.7793595,20.1933558 C34.2621352,18.7367021 36.7530541,17.2938133 39.2162861,15.8029335 C39.8025976,15.4480242 40.2548174,15.3739917 40.8494531,15.7891687 C41.693814,16.3784522 42.601511,16.874544 43.4981694,17.3803085 C43.7107978,17.5002857 44.0600512,17.6314236 44.2232774,17.5356278 C45.8066803,16.6055718 47.3636629,15.628269 49.1341788,14.5374994 M36.2277263,18.7404223 C35.2865516,19.2843191 34.5058888,19.7296299 33.7304738,20.1844273 C31.0419462,21.7618022 31.0283742,21.7636623 31.152513,24.9204583 C31.1653611,25.2465359 31.3966284,25.6976131 31.6606496,25.8583268 C34.2760692,27.4528147 36.9258712,28.9872211 39.5494341,30.5675722 C40.0031016,30.8408227 40.3431261,30.8212915 40.7823168,30.5484131 C42.7408504,29.3320859 44.7182039,28.1477526 46.6897667,26.9535607 C47.4601148,26.4870446 48.2331773,26.0248068 49.1352645,25.4823981 C47.4617434,24.4186001 45.9398671,23.4297646 44.3881323,22.4930122 C44.1986668,22.3786153 43.8096021,22.4671567 43.5812302,22.5925282 C42.5995204,23.1317747 41.6302969,23.6979927 40.6838744,24.299925 C40.2685704,24.5640609 39.9529756,24.5642469 39.5391193,24.2932286 C38.7276932,23.7617946 37.8934661,23.2603084 37.036619,22.8110914 C36.43004,22.4931982 36.1403225,22.1038768 36.2105351,21.3646683 C36.2861765,20.5685404 36.2277263,19.7590196 36.2277263,18.7404223 M56.9869522,19.9857673 C56.9864093,23.0233301 56.9692181,26.061079 56.9998004,29.0984558 C57.0064959,29.7561914 56.846527,30.1423506 56.2529771,30.4933538 C51.0816738,33.5517498 45.9297333,36.644744 40.7886504,39.7567113 C40.2450456,40.0855791 39.8501901,40.0760926 39.3138237,39.7581994 C34.06706,36.6475342 28.8014764,33.570537 23.5585128,30.4531753 C23.2915963,30.2943218 23.0263085,29.8540333 23.0246799,29.5433946 C22.9928308,23.1894381 22.9917451,16.8351097 23.0217845,10.4809672 C23.0232322,10.1658642 23.2865294,9.71776325 23.5550746,9.55797964 C28.8246393,6.42499306 34.1159193,3.33088282 39.3923605,0.210358991 C39.8682862,-0.071075949 40.2354547,-0.0705179154 40.7135519,0.214451237 C45.9009606,3.30744541 51.0961507,6.38704677 56.3049127,9.44190865 C56.8257165,9.74752504 57.0045053,10.0869955 56.9994385,10.6868816 C56.9735611,13.7862001 56.9873141,16.8860767 56.9869522,19.9857673" id="Fill-1"></path>
                <path d="M34.5822913,46.8275758 C34.5804371,46.8514424 34.5785829,46.8753089 34.5769141,46.8991755 C33.9292427,46.8991755 33.2806441,46.8787931 32.6340852,46.9030081 C30.6369283,46.9775693 29.1530134,48.3492868 29.031378,50.2129689 C28.90418,52.1562644 30.0843772,53.6983577 32.1130555,53.9042721 C33.6956137,54.0648924 35.3248977,54.057924 36.9089393,53.9037495 C38.7890963,53.7206564 39.8821461,52.419145 39.9631746,50.6241009 C40.0414218,48.8863715 38.9967665,47.4479322 37.2354636,47.0601441 C36.3786386,46.8714764 35.4684126,46.8983045 34.5822913,46.8275758 M34.6115876,56 C33.6985804,55.9412917 32.8339678,55.9210836 31.9788115,55.8247463 C28.7782799,55.4636121 26.8135715,53.0487344 27.0140103,49.756717 C27.1768089,47.0848817 29.5171779,45.0370612 32.5196812,45.0184209 C34.244271,45.00762 36.0011238,44.9309682 37.6875171,45.1975072 C40.442114,45.6330284 42.1090382,47.8353718 41.9944488,50.4974514 C41.8724425,53.3245064 39.9826437,55.4561212 37.2367615,55.8115064 C36.3541631,55.925613 35.457102,55.9419886 34.6115876,56" id="Fill-3"></path>
                <path d="M73.5155854,53.9902828 C73.5157683,53.9945797 73.5157683,53.9988766 73.5157683,54.0031734 C74.1847317,54.0031734 74.8582683,54.0507828 75.5217439,53.9944078 C77.5835122,53.8192672 78.8453415,52.5033922 78.8429634,50.5838922 C78.8405854,48.6178141 77.546561,47.1807672 75.5217439,47.0484234 C74.1594878,46.9593922 72.7811341,46.9672984 71.4175976,47.0470484 C69.4308293,47.1628922 68.0742439,48.6496109 68.0733293,50.5789078 C68.0722317,52.4298297 69.3572927,53.7996734 71.3283293,53.9796266 C72.0508902,54.0456266 72.7862561,53.9902828 73.5155854,53.9902828 M73.5653415,56.0000172 C72.6722927,55.9424391 71.8558902,55.8558141 71.0383902,55.8436109 C68.5348537,55.8064859 65.819122,53.3806422 66.0529024,50.0057047 C66.2519268,47.1333297 68.5043049,45.1937203 71.6894268,45.1572828 C73.0277195,45.1421578 74.368939,45.1119078 75.7046707,45.1712047 C78.6018659,45.3001109 80.7602195,47.3973297 80.8597317,50.1150172 C80.969122,53.1039234 79.0269878,55.4587828 76.1252195,55.8143922 C75.2550366,55.9211266 74.3731463,55.9436422 73.5653415,56.0000172" id="Fill-5"></path>
                <path d="M17.4903657,52.9883721 L17.4903657,51.1597365 C19.0057932,51.1597365 20.4731939,51.1674462 21.9405946,51.1550748 C22.3988803,51.1513096 22.8684337,51.1461101 23.3123113,51.0507248 C24.4191423,50.8126203 25.0486617,50.022644 25.0043293,49.0124927 C24.9583345,47.9659444 24.3166238,47.266333 23.18541,47.0759211 C22.7938076,47.0099403 22.3894596,46.998824 21.9904685,46.9943416 C20.3595922,46.9762328 18.7281618,46.9895006 17.0978397,46.9516693 C16.338833,46.9340983 16.0015377,47.1415433 16.0218567,47.9652272 C16.0791193,50.2944561 16.0475325,52.6256572 16.0508574,54.9559618 C16.0512269,55.2808454 16.0510422,55.6055497 16.0510422,56 L14.0634752,56 C14.0433409,55.7441452 14.009907,55.5132125 14.0097222,55.2821005 C14.0076903,52.1749081 14.0241303,49.0677157 14.0001169,45.9607026 C13.9951295,45.2989226 14.1473372,44.9873069 14.9166882,45.0003955 C17.4707856,45.0436057 20.026176,45.0030849 22.5804582,45.038944 C24.6613078,45.0679899 26.2410171,46.1715542 26.8134585,47.9125143 C27.32365,49.4643175 26.7711581,51.2181869 25.3540007,52.2181183 C24.8476883,52.5752751 24.2041304,52.9270531 23.6074909,52.9537681 C21.5912927,53.0444917 19.5678904,52.9883721 17.4903657,52.9883721" id="Fill-8"></path>
                <path d="M11,45.0629036 L11,46.9158534 C9.08436634,46.9158534 7.22625769,46.9004515 5.36848842,46.9198789 C3.22716668,46.9424566 1.77427844,48.5628032 1.88746186,50.7656204 C1.97790678,52.5273842 3.26924987,53.9256288 4.98159457,53.9758599 C6.95611075,54.0337919 8.93351168,53.9893366 10.985746,53.9893366 L10.985746,55.9975302 C10.6198938,55.9975302 10.2380906,56.003831 9.85662684,55.996305 C8.1346098,55.962701 6.41259276,55.9185956 4.69057572,55.8909423 C3.48798065,55.8716899 2.5244792,55.3222983 1.67636714,54.4965481 C0.166293273,53.0263697 -0.417611007,50.432205 0.314263204,48.4404633 C1.11520136,46.2605739 2.79869871,45.0468016 5.145176,45.0128475 C6.98241275,44.9864193 8.82049794,45.008472 10.6582438,45.0114473 C10.741392,45.0116223 10.8243706,45.0356003 11,45.0629036" id="Fill-10"></path>
                <path d="M45.8557455,54.071753 C48.0117431,54.071753 50.0029773,54.071753 51.9940239,54.071753 C52.087665,54.071753 52.1813061,54.071753 52.2751349,54.071753 C54.1487078,54.0719314 54.1487078,54.0719314 53.8604658,56 L44,56 L44,45 L45.8557455,45 L45.8557455,54.071753 Z" id="Fill-12"></path>
                <path d="M55,45 L56.7150843,45 C56.7150843,45.3884619 56.7149132,45.7326912 56.7150843,46.0770989 C56.7169668,48.4506761 56.7429788,50.8244317 56.7063566,53.1972955 C56.6954042,53.9005578 56.8928904,54.1152998 57.5715997,54.0974641 C59.3924436,54.0500211 61.2149988,54.07945 63.0368694,54.0785582 C63.3428533,54.0783799 63.6486661,54.0785582 64,54.0785582 L64,56 L55,56 L55,45 Z" id="Fill-14"></path>
            </g>
        </g>
    </g>
</svg>