<?xml version="1.0" encoding="UTF-8"?>
<svg width="159px" height="22px" viewBox="0 0 159 22" version="1.1" xmlns="http://www.w3.org/2000/svg" xmlns:xlink="http://www.w3.org/1999/xlink">
    <!-- Generator: Sketch 51.2 (57519) - http://www.bohemiancoding.com/sketch -->
    <title>DiscountCoin</title>
    <desc>Created with Sketch.</desc>
    <defs></defs>
    <g id="Page-1" stroke="none" stroke-width="1" fill="none" fill-rule="evenodd">
        <g id="Artboard-Copy-2" transform="translate(-102.000000, -354.000000)" fill="#7390A5">
            <path d="M111.072132,358.819048 L117.140051,358.819048 C118.590252,358.819048 119.87188,359.077283 120.984974,359.593762 C122.098067,360.110241 122.963087,360.837456 123.580058,361.775429 C124.19703,362.713402 124.505511,363.805708 124.505511,365.052381 C124.505511,366.299054 124.19703,367.39136 123.580058,368.329333 C122.963087,369.267306 122.098067,369.994521 120.984974,370.511 C119.87188,371.027479 118.590252,371.285714 117.140051,371.285714 L111.072132,371.285714 L111.072132,358.819048 Z M116.987399,368.917048 C118.323111,368.917048 119.388484,368.569765 120.183551,367.87519 C120.978617,367.180616 121.376145,366.239688 121.376145,365.052381 C121.376145,363.865073 120.978617,362.924146 120.183551,362.229571 C119.388484,361.534997 118.323111,361.187714 116.987399,361.187714 L114.163336,361.187714 L114.163336,368.917048 L116.987399,368.917048 Z M128.251098,361.70419 L131.227813,361.70419 L131.227813,371.285714 L128.251098,371.285714 L128.251098,361.70419 Z M128.40375,359.923238 C128.060282,359.626411 127.88855,359.258351 127.88855,358.819048 C127.88855,358.379744 128.060282,358.011684 128.40375,357.714857 C128.747219,357.41803 129.19245,357.269619 129.739456,357.269619 C130.286461,357.269619 130.731692,357.412094 131.075161,357.697048 C131.41863,357.982001 131.590362,358.338188 131.590362,358.765619 C131.590362,359.228669 131.41863,359.61157 131.075161,359.914333 C130.731692,360.217097 130.286461,360.368476 129.739456,360.368476 C129.19245,360.368476 128.747219,360.220065 128.40375,359.923238 Z M136.576246,371.134333 C135.762098,370.938428 135.113333,370.692065 134.629933,370.395238 L135.622171,368.400571 C136.08013,368.673652 136.633488,368.896269 137.282262,369.068429 C137.931036,369.240588 138.56708,369.326667 139.190412,369.326667 C140.449798,369.326667 141.079481,369.035781 141.079481,368.454 C141.079481,368.180919 140.907749,367.985016 140.564281,367.866286 C140.220812,367.747555 139.692896,367.646635 138.980516,367.563524 C138.140925,367.444793 137.447638,367.308255 136.900632,367.153905 C136.353626,366.999555 135.879773,366.726478 135.47906,366.334667 C135.078346,365.942855 134.877992,365.384829 134.877992,364.660571 C134.877992,364.055045 135.065625,363.517796 135.440897,363.04881 C135.816168,362.579823 136.363166,362.214731 137.081906,361.953524 C137.800646,361.692316 138.649765,361.561714 139.629287,361.561714 C140.354388,361.561714 141.076297,361.63592 141.795038,361.784333 C142.513778,361.932747 143.108479,362.137554 143.579158,362.398762 L142.58692,364.375619 C141.683724,363.900696 140.697857,363.663238 139.629287,363.663238 C138.993234,363.663238 138.516201,363.746348 138.198174,363.912571 C137.880148,364.078794 137.721137,364.292507 137.721137,364.553714 C137.721137,364.850541 137.892868,365.058317 138.236337,365.177048 C138.579806,365.295778 139.126804,365.408571 139.877347,365.515429 C140.716937,365.646032 141.403864,365.785539 141.938149,365.933952 C142.472434,366.082366 142.936746,366.352474 143.331099,366.744286 C143.725452,367.136097 143.922625,367.68225 143.922625,368.382762 C143.922625,368.976416 143.731812,369.50476 143.35018,369.96781 C142.968548,370.430859 142.41201,370.790015 141.680549,371.045286 C140.949087,371.300557 140.080888,371.42819 139.075923,371.42819 C138.223612,371.42819 137.390395,371.330239 136.576246,371.134333 Z M149.395089,370.795952 C148.523696,370.374458 147.843129,369.789718 147.353368,369.041714 C146.863607,368.293711 146.61873,367.444798 146.61873,366.494952 C146.61873,365.545106 146.863607,364.696194 147.353368,363.94819 C147.843129,363.200187 148.523696,362.615447 149.395089,362.193952 C150.266482,361.772458 151.249169,361.561714 152.343181,361.561714 C153.424472,361.561714 154.368997,361.772458 155.176784,362.193952 C155.984572,362.615447 156.572912,363.217996 156.941823,364.001619 L154.632961,365.159238 C154.098677,364.280631 153.329064,363.841333 152.324099,363.841333 C151.548114,363.841333 150.90571,364.078791 150.396868,364.553714 C149.888025,365.028637 149.633607,365.67571 149.633607,366.494952 C149.633607,367.314195 149.888025,367.961267 150.396868,368.43619 C150.90571,368.911113 151.548114,369.148571 152.324099,369.148571 C153.341785,369.148571 154.111398,368.709274 154.632961,367.830667 L156.941823,369.006095 C156.572912,369.765972 155.984572,370.359617 155.176784,370.787048 C154.368997,371.214478 153.424472,371.42819 152.343181,371.42819 C151.249169,371.42819 150.266482,371.217447 149.395089,370.795952 Z M162.128064,370.795952 C161.269392,370.374458 160.598366,369.789718 160.114965,369.041714 C159.631565,368.293711 159.389868,367.444798 159.389868,366.494952 C159.389868,365.545106 159.631565,364.696194 160.114965,363.94819 C160.598366,363.200187 161.269392,362.615447 162.128064,362.193952 C162.986736,361.772458 163.956703,361.561714 165.037993,361.561714 C166.119284,361.561714 167.086071,361.772458 167.938382,362.193952 C168.790693,362.615447 169.458539,363.200187 169.94194,363.94819 C170.42534,364.696194 170.667037,365.545106 170.667037,366.494952 C170.667037,367.444798 170.42534,368.293711 169.94194,369.041714 C169.458539,369.789718 168.790693,370.374458 167.938382,370.795952 C167.086071,371.217447 166.119284,371.42819 165.037993,371.42819 C163.956703,371.42819 162.986736,371.217447 162.128064,370.795952 Z M166.917522,368.427286 C167.407283,367.946426 167.652159,367.302321 167.652159,366.494952 C167.652159,365.687583 167.407283,365.043479 166.917522,364.562619 C166.42776,364.08176 165.801257,363.841333 165.037993,363.841333 C164.274729,363.841333 163.645046,364.08176 163.148924,364.562619 C162.652803,365.043479 162.404746,365.687583 162.404746,366.494952 C162.404746,367.302321 162.652803,367.946426 163.148924,368.427286 C163.645046,368.908145 164.274729,369.148571 165.037993,369.148571 C165.801257,369.148571 166.42776,368.908145 166.917522,368.427286 Z M184.621229,361.70419 L184.621229,371.285714 L181.797166,371.285714 L181.797166,370.145905 C181.402813,370.561462 180.932141,370.879062 180.385135,371.098714 C179.838129,371.318366 179.246608,371.42819 178.610555,371.42819 C177.262122,371.42819 176.193568,371.066067 175.404862,370.34181 C174.616156,369.617552 174.221809,368.543055 174.221809,367.118286 L174.221809,361.70419 L177.198524,361.70419 L177.198524,366.708667 C177.198524,368.252166 177.891811,369.023905 179.278408,369.023905 C179.990787,369.023905 180.563227,368.807224 180.995743,368.373857 C181.428259,367.94049 181.644514,367.296385 181.644514,366.441524 L181.644514,361.70419 L184.621229,361.70419 Z M198.336902,362.630286 C199.119247,363.34267 199.510414,364.399358 199.510414,365.800381 L199.510414,371.285714 L196.5337,371.285714 L196.5337,366.22781 C196.5337,365.467933 196.355607,364.901002 195.999417,364.527 C195.643228,364.152998 195.128032,363.966 194.453816,363.966 C193.703273,363.966 193.105392,364.18268 192.660154,364.616048 C192.214917,365.049415 191.992302,365.69352 191.992302,366.548381 L191.992302,371.285714 L189.015587,371.285714 L189.015587,361.70419 L191.858731,361.70419 L191.858731,362.82619 C192.253084,362.422506 192.742838,362.110842 193.328007,361.89119 C193.913176,361.671539 194.55558,361.561714 195.255239,361.561714 C196.527345,361.561714 197.554556,361.917901 198.336902,362.630286 Z M210.449728,370.822667 C210.157144,371.024509 209.797779,371.175888 209.371623,371.27681 C208.945468,371.377731 208.497057,371.42819 208.026377,371.42819 C206.805155,371.42819 205.86063,371.137304 205.192774,370.555524 C204.524918,369.973743 204.190995,369.118895 204.190995,367.990952 L204.190995,364.055048 L202.60723,364.055048 L202.60723,361.917905 L204.190995,361.917905 L204.190995,359.584857 L207.16771,359.584857 L207.16771,361.917905 L209.724631,361.917905 L209.724631,364.055048 L207.16771,364.055048 L207.16771,367.955333 C207.16771,368.359018 207.279017,368.670681 207.501636,368.890333 C207.724255,369.109985 208.039096,369.21981 208.44617,369.21981 C208.91685,369.21981 209.317557,369.101081 209.648305,368.863619 L210.449728,370.822667 Z M216.66637,370.671286 C215.565998,370.119188 214.700978,369.353386 214.071286,368.373857 C213.441593,367.394328 213.126751,366.287181 213.126751,365.052381 C213.126751,363.817581 213.441593,362.710433 214.071286,361.730905 C214.700978,360.751376 215.565998,359.985574 216.66637,359.433476 C217.766742,358.881378 219.003847,358.605333 220.377723,358.605333 C221.53534,358.605333 222.581632,358.7953 223.51663,359.175238 C224.451628,359.555177 225.237142,360.10133 225.873196,360.813714 L223.888719,362.523429 C222.985524,361.549836 221.866087,361.063048 220.530375,361.063048 C219.703505,361.063048 218.965695,361.232236 218.31692,361.570619 C217.668146,361.909002 217.162491,362.380949 216.799941,362.986476 C216.43739,363.592003 216.256118,364.280631 216.256118,365.052381 C216.256118,365.824131 216.43739,366.512759 216.799941,367.118286 C217.162491,367.723813 217.668146,368.19576 218.31692,368.534143 C218.965695,368.872526 219.703505,369.041714 220.530375,369.041714 C221.866087,369.041714 222.985524,368.548989 223.888719,367.563524 L225.873196,369.273238 C225.237142,369.997496 224.448448,370.549585 223.507089,370.929524 C222.56573,371.309462 221.516258,371.499429 220.358641,371.499429 C218.997487,371.499429 217.766742,371.223384 216.66637,370.671286 Z M230.98311,370.795952 C230.124438,370.374458 229.453412,369.789718 228.970012,369.041714 C228.486611,368.293711 228.244915,367.444798 228.244915,366.494952 C228.244915,365.545106 228.486611,364.696194 228.970012,363.94819 C229.453412,363.200187 230.124438,362.615447 230.98311,362.193952 C231.841782,361.772458 232.811749,361.561714 233.89304,361.561714 C234.97433,361.561714 235.941117,361.772458 236.793428,362.193952 C237.64574,362.615447 238.313586,363.200187 238.796986,363.94819 C239.280387,364.696194 239.522083,365.545106 239.522083,366.494952 C239.522083,367.444798 239.280387,368.293711 238.796986,369.041714 C238.313586,369.789718 237.64574,370.374458 236.793428,370.795952 C235.941117,371.217447 234.97433,371.42819 233.89304,371.42819 C232.811749,371.42819 231.841782,371.217447 230.98311,370.795952 Z M235.772568,368.427286 C236.262329,367.946426 236.507206,367.302321 236.507206,366.494952 C236.507206,365.687583 236.262329,365.043479 235.772568,364.562619 C235.282807,364.08176 234.656304,363.841333 233.89304,363.841333 C233.129776,363.841333 232.500092,364.08176 232.003971,364.562619 C231.507849,365.043479 231.259792,365.687583 231.259792,366.494952 C231.259792,367.302321 231.507849,367.946426 232.003971,368.427286 C232.500092,368.908145 233.129776,369.148571 233.89304,369.148571 C234.656304,369.148571 235.282807,368.908145 235.772568,368.427286 Z M243.1341,361.70419 L246.110815,361.70419 L246.110815,371.285714 L243.1341,371.285714 L243.1341,361.70419 Z M243.286752,359.923238 C242.943283,359.626411 242.771551,359.258351 242.771551,358.819048 C242.771551,358.379744 242.943283,358.011684 243.286752,357.714857 C243.630221,357.41803 244.075451,357.269619 244.622457,357.269619 C245.169463,357.269619 245.614694,357.412094 245.958163,357.697048 C246.301631,357.982001 246.473363,358.338188 246.473363,358.765619 C246.473363,359.228669 246.301631,359.61157 245.958163,359.914333 C245.614694,360.217097 245.169463,360.368476 244.622457,360.368476 C244.075451,360.368476 243.630221,360.220065 243.286752,359.923238 Z M259.826488,362.630286 C260.608833,363.34267 261,364.399358 261,365.800381 L261,371.285714 L258.023285,371.285714 L258.023285,366.22781 C258.023285,365.467933 257.845193,364.901002 257.489003,364.527 C257.132813,364.152998 256.617618,363.966 255.943401,363.966 C255.192859,363.966 254.594977,364.18268 254.14974,364.616048 C253.704503,365.049415 253.481887,365.69352 253.481887,366.548381 L253.481887,371.285714 L250.505173,371.285714 L250.505173,361.70419 L253.348317,361.70419 L253.348317,362.82619 C253.74267,362.422506 254.232424,362.110842 254.817593,361.89119 C255.402762,361.671539 256.045166,361.561714 256.744825,361.561714 C258.016931,361.561714 259.044142,361.917901 259.826488,362.630286 Z M102,354 L104.244883,354 L104.244883,376 L102,376 L102,354 Z" id="DiscountCoin"></path>
        </g>
    </g>
</svg>