<?xml version="1.0" encoding="UTF-8"?>
<svg width="157px" height="39px" viewBox="0 0 157 39" version="1.1" xmlns="http://www.w3.org/2000/svg" xmlns:xlink="http://www.w3.org/1999/xlink">
    <!-- Generator: Sketch 51.2 (57519) - http://www.bohemiancoding.com/sketch -->
    <title>Group 24</title>
    <desc>Created with Sketch.</desc>
    <defs></defs>
    <g id="Page-1" stroke="none" stroke-width="1" fill="none" fill-rule="evenodd">
        <g id="Artboard-Copy-2" transform="translate(-100.000000, -585.000000)" fill="#7390A5">
            <g id="Group-24" transform="translate(100.000000, 585.000000)">
                <path d="M84,25.9674788 C87.2309108,21.8121214 90.1762222,18.0126595 93.1342932,14.2237632 C94.7650874,12.1353798 96.442305,10.0848103 98.0459509,7.97557372 C98.603847,7.2418174 99.2236411,6.98740776 100.119804,7.0004758 C103.495958,7.04913338 106.872926,7.01993883 110.23632,7.01993883 C110.473867,9.64327755 109.806021,11.4388813 108.401914,11.7266561 C109.26007,16.405013 110.118768,21.0861503 111,25.8899048 L93.6940897,25.8899048 C94.9505098,24.2830924 96.0212359,22.8514474 97.1769361,21.4959862 C97.3762041,21.2621518 97.936272,21.30219 98.3301929,21.2982974 C100.219981,21.2799465 102.110312,21.2899561 104.259095,21.2899561 C103.650703,18.1088625 103.079776,15.1229553 102.445321,11.8053424 C101.663724,12.7606992 101.081666,13.4413493 100.532457,14.1489695 C97.7554648,17.727109 94.9760291,21.3035802 92.2234701,24.9017388 C91.6183361,25.6930501 90.9483178,26.0483894 89.9272729,25.9947271 C88.0961248,25.8982461 86.2568323,25.9674788 84,25.9674788" id="Fill-1"></path>
                <path d="M48,24.9992499 C48.8246627,20.3547616 49.6067811,15.9510712 50.4030809,11.4656154 C49.8326134,11.3907299 49.3188716,11.3229889 48.6654562,11.2369897 C48.8193112,10.0314126 48.9156378,8.86208756 49.1503001,7.72081147 C49.2102366,7.42735559 49.7052483,7.00767929 50.0017201,7.00662084 C56.2353886,6.98624563 62.469057,7.01720536 68.702993,7.04128515 C68.7407209,7.04154976 68.7781813,7.08574014 69,7.22492661 C68.7883491,8.37149496 68.6229884,9.61993934 68.2853102,10.8207534 C68.2106571,11.0853664 67.5262031,11.3258997 67.1189557,11.3319858 C64.0886816,11.3759115 61.0576048,11.3579179 58.0267956,11.3595055 C57.5456978,11.3597702 57.0648676,11.3595055 56.5053706,11.3595055 C56.3739918,12.1930367 56.2605405,12.9117257 56.124613,13.7746289 L63.2487672,13.7746289 C62.9964451,15.1654351 62.8177057,16.3958858 62.5150797,17.5959059 C62.4602271,17.8136825 61.9026031,18.0256375 61.5702764,18.0367513 C60.0563434,18.0872924 58.5400023,18.0658587 57.0247315,18.0692987 C55.2012155,18.0732679 55.1996101,18.0727387 54.9850159,19.9207962 C54.9609342,20.1303697 54.96361,20.3431186 54.9475555,20.6900264 L66.5102251,20.6900264 C66.2908146,22.0395529 66.1313405,23.2406316 65.8744696,24.4208058 C65.8236306,24.6541945 65.401399,24.9735824 65.1490769,24.9749055 C59.4981843,25.0066591 53.8470242,24.9992499 48,24.9992499" id="Fill-3"></path>
                <path d="M90,7.00024689 C89.7316092,8.41065538 89.5890524,9.65274809 89.2173079,10.8201264 C89.1032624,11.1775891 88.3614183,11.5331076 87.9055104,11.5356073 C86.7220141,11.5417178 86.2386914,11.8169669 86.0481586,13.2043222 C85.7197295,15.5957395 85.1045417,17.9821574 84.3086905,20.2627529 C83.3837156,22.9152541 81.0753907,24.1537361 78.6028511,25.0294781 C75.5433611,26.1129763 72.3870968,26.1432509 69,25.82134 C69.25578,24.3381613 69.4545371,22.896645 69.7922873,21.4895694 C69.8550672,21.2282078 70.4680618,20.9712901 70.8447409,20.941571 C72.4794846,20.8124178 74.132322,20.8665788 75.7569222,20.6688217 C77.8947272,20.4082933 79.066161,18.9637217 79.2797222,16.7489526 C79.3581285,15.9343153 79.659417,15.14412 79.8091017,14.3330934 C79.9582381,13.5234556 80.0445947,12.7018746 80.1857809,11.6889247 C79.1626611,11.6308752 78.2047884,11.5769919 77.2987298,11.5256084 C77.2455451,11.2750789 77.2022297,11.1864771 77.2126474,11.1045412 C77.7272229,7.00191338 77.7277712,7.00163563 81.7958512,7.00024689 C84.4792105,6.99969139 87.1625697,7.00024689 90,7.00024689" id="Fill-5"></path>
                <path d="M153.65671,14.4336138 C153.84803,13.8144329 153.897986,13.3747209 154.112956,13.0342234 C154.335632,12.6812591 154.672834,12.2418069 155.037672,12.1560981 C156.842462,11.7319696 157.21288,12.1246716 156.900389,13.9222181 C156.612346,15.5797737 156.337322,17.2394071 156.080634,18.9018975 C155.759907,20.9789066 155.182491,21.3207027 153.125264,20.758661 C152.792313,19.6104233 152.485669,18.5517901 152.178759,17.4934167 C152.037926,17.5074418 151.897358,17.5214669 151.756525,17.5352322 C151.567065,18.0377973 151.330305,18.5289345 151.196381,19.0452648 C150.648726,21.1565574 150.660418,21.1594144 148,20.7596999 C148.169531,19.5626341 148.313287,18.3497252 148.519223,17.1469455 C148.743227,15.8387181 148.994601,14.5333476 149.290616,13.2391453 C149.564577,12.04156 151.090623,11.6285996 152.007102,12.510361 C152.536422,13.0199386 152.969816,13.6243153 153.65671,14.4336138" id="Fill-7"></path>
                <path d="M132.219428,18.1768972 C133.757587,18.6639049 134.057412,18.526412 134.316264,17.2758686 C134.445828,16.65034 134.622733,16.0219844 134.636298,15.3923438 C134.643773,15.0646737 134.342841,14.7310927 134.181163,14.4005956 C133.708862,14.6280372 132.934799,14.7663011 132.820462,15.0996252 C132.479664,16.0908593 132.398271,17.1586784 132.219428,18.1768972 M132.640512,21 C132.027296,20.9223872 131.330197,20.8892347 130.664381,20.7383779 C129.353236,20.4410334 128.839409,19.7342939 129.043168,18.4806666 C129.273227,17.0638468 129.552842,15.6529379 129.860142,14.2487109 C130.139757,12.968099 131.052797,12.2030214 132.420972,12.0873732 C133.688099,11.9802058 134.989278,11.9565621 136.247545,12.1025359 C137.423589,12.2392579 138.174951,12.9614171 137.964824,14.1667291 C137.682441,15.7870899 137.469823,17.4380332 136.953227,18.9974859 C136.325616,20.8915476 134.395719,20.7946601 132.640512,21" id="Fill-9"></path>
                <path d="M140.840841,18.341992 C141.028911,17.6050464 141.194872,17.0161763 141.326689,16.4204434 C141.446472,15.8801399 141.529592,15.3327097 141.294504,14.984561 C140.928159,14.5416547 140.295662,14.1203921 140.251723,13.6505629 C140.158527,12.6552114 140.534667,11.881049 141.940436,12.0151351 C143.181643,12.1333842 144.447198,12.0124956 145.69988,12.0512961 C146.22323,12.0676609 147.117123,11.7627999 146.987265,12.7262136 C146.887913,13.4636871 147.150427,14.5358478 145.798953,14.6290218 C145.570022,14.6445948 145.341091,14.6612235 144.96831,14.6873545 C144.803188,15.8785562 144.638627,17.0663266 144.46511,18.3208761 C145.525803,18.2596399 145.99402,18.7629906 145.814905,19.8182586 C145.644467,20.8225844 144.980904,21.0398144 144.014525,20.9944152 C142.806902,20.9374022 141.593122,21.0041813 140.38354,20.9685482 C139.805896,20.9513915 138.904166,21.2517654 139.008277,20.2086391 C139.086359,19.4284059 138.963778,18.4264556 140.29818,18.4000607 C140.479534,18.3966294 140.660327,18.3620521 140.840841,18.341992" id="Fill-11"></path>
                <path d="M124.310122,18.4224594 C125.160746,18.4224594 125.975744,18.3492527 126.765056,18.4543227 C127.144799,18.5048827 127.808452,18.9757228 127.770615,19.1129194 C127.592481,19.7615095 127.282887,20.8422296 126.898173,20.8909463 C125.509005,21.0663263 124.047202,21.0244563 122.657481,20.8064163 C121.225506,20.5815296 120.794946,19.6796128 121.08576,18.2723594 C121.334319,17.0686626 121.504444,15.8499558 121.776754,14.651789 C122.122804,13.1297222 123.001874,12.3060155 124.557577,12.1269488 C125.648474,12.0016021 126.763952,11.9657888 127.858716,12.0342554 C128.274085,12.0600621 129.034676,12.5711921 128.998773,12.7215555 C128.825886,13.4409822 129.191268,14.5472457 127.859268,14.650999 C127.630318,14.6686423 127.399434,14.6562657 127.169379,14.658109 C124.741234,14.677859 124.743443,14.6781224 124.509246,17.0454892 C124.471686,17.4262693 124.400708,17.8038893 124.310122,18.4224594" id="Fill-13"></path>
                <path d="M27,20.9949107 C27.5984201,20.3388686 28.1440861,19.7388157 28.6916459,19.1404164 C28.9935613,18.8108598 29.3044043,18.486973 29.6011795,18.154109 C29.7045233,18.0381145 29.8195001,17.9979535 29.9853371,18.0000797 C30.61054,18.0076394 31.2357429,18.0031508 31.8587815,18.0031508 C31.9028785,18.4172818 31.7789741,18.7007714 31.5189915,18.7461297 C31.6780651,19.4848563 31.8371388,20.2240553 32,20.9826261 L28.7955308,20.9826261 C29.0279191,20.728903 29.2262201,20.50282 29.4404826,20.2887854 C29.4772752,20.2519318 29.5808895,20.2583103 29.6539336,20.2576016 C30.0040039,20.2547667 30.3538037,20.2564204 30.7517585,20.2564204 C30.6392165,19.7541713 30.5337085,19.2823975 30.4160264,18.7586505 C30.271291,18.9096087 30.1633481,19.0170985 30.0616275,19.1288406 C29.5473434,19.6936936 29.0327887,20.2585465 28.5231036,20.8267069 C28.4111027,20.9514423 28.2869278,21.0076677 28.0978249,20.999163 C27.7588464,20.9840436 27.4179742,20.9949107 27,20.9949107" id="Fill-15"></path>
                <path d="M28,18 C27.9488584,18.2225398 27.9218827,18.4186486 27.8510713,18.6031939 C27.8294345,18.6595958 27.6880927,18.7157618 27.6012645,18.7159977 C27.3756235,18.7171777 27.2834563,18.7606001 27.2472076,18.9796001 C27.1848261,19.3571862 27.0676502,19.7340644 26.9161925,20.0941872 C26.740007,20.5128359 26.2999649,20.7084727 25.829013,20.8467636 C25.2462241,21.0178573 24.6451704,21.0225772 24,20.971839 C24.0486126,20.7377356 24.0865472,20.510004 24.1508957,20.2877001 C24.1629786,20.2466376 24.2795926,20.2060471 24.3515279,20.2013273 C24.6625922,20.180796 24.9775904,20.1895277 25.2869687,20.1583769 C25.6941342,20.1170784 25.9175272,19.8888747 25.9579909,19.5391356 C25.9728837,19.4107563 26.0304882,19.2859168 26.058869,19.1577735 C26.0872497,19.0298662 26.1038286,18.900071 26.1308044,18.7403049 C25.9357921,18.7311012 25.7534247,18.7226055 25.5808922,18.7145818 C25.5704953,18.6749353 25.5623463,18.6610118 25.5643133,18.6480322 C25.6623815,18.000236 25.6626625,18.000236 26.4370917,18 C26.9485072,18 27.4596417,18 28,18" id="Fill-17"></path>
                <path d="M19.4745545,0.869045455 C9.18728182,0.869045455 0.8181,9.23822727 0.8181,19.5255 C0.8181,29.8125 9.18728182,38.1816818 19.4745545,38.1816818 C29.7618273,38.1816818 38.1307364,29.8125 38.1307364,19.5255 C38.1307364,9.23822727 29.7618273,0.869045455 19.4745545,0.869045455 M19.4745545,38.9998636 C8.73619091,38.9998636 -8.18181818e-05,30.2638636 -8.18181818e-05,19.5255 C-8.18181818e-05,8.78713636 8.73619091,0.0508636364 19.4745545,0.0508636364 C30.2129182,0.0508636364 38.9489182,8.78713636 38.9489182,19.5255 C38.9489182,30.2638636 30.2129182,38.9998636 19.4745545,38.9998636" id="Fill-19"></path>
                <polygon id="Fill-22" points="27.4471545 15.4090909 28 12 11.5528455 12 11 15.4090909 12.7992358 15.4090909 11.1705528 25.8098182 11.4867805 25.8098182 11.3162276 27 25.530439 27 26.018878 23.5909091 16.0441626 23.5909091 16.4469106 21 22.7537724 21 23.116439 17.5909091 16.976813 17.5909091 17.3159837 15.4090909"></polygon>
            </g>
        </g>
    </g>
</svg>