<?xml version="1.0" encoding="UTF-8"?>
<svg width="117px" height="37px" viewBox="0 0 117 37" version="1.1" xmlns="http://www.w3.org/2000/svg" xmlns:xlink="http://www.w3.org/1999/xlink">
    <!-- Generator: Sketch 51.2 (57519) - http://www.bohemiancoding.com/sketch -->
    <title>ElanFuture</title>
    <desc>Created with Sketch.</desc>
    <defs></defs>
    <g id="Page-1" stroke="none" stroke-width="1" fill="none" fill-rule="evenodd">
        <g id="Artboard-Copy-2" transform="translate(-1026.000000, -713.000000)">
            <g id="ElanFuture" transform="translate(1026.000000, 713.000000)">
                <path d="M39,0 C38.6792975,0.562220215 38.4859091,1.43605222 38.0175868,1.63620921 C34.9762314,2.9344268 31.9516364,4.40708104 28.7729752,5.19682733 C25.4605537,6.01987815 21.985686,6.18508186 18.5733471,6.55044257 C15.4233719,6.8877747 14.408405,7.873721 13.8959256,11.5372205 L31.7940248,11.5372205 C31.8085289,11.6483455 31.8227107,11.7591408 31.8372149,11.8702659 C31.3624463,12.0097492 30.8873554,12.1492326 30.4161322,12.2877267 C31.0417438,13.4260166 30.9195868,15.3299811 33.5090579,14.5758476 C27.8418099,18.0263299 21.9843967,17.090835 16.4012727,17.7875924 C14.7536033,17.9933551 13.0827273,17.9983013 11.4263554,18.1404227 C11.0434463,18.1733975 10.4890661,18.2772681 10.3311322,18.5450234 C9.31261983,20.2679563 8.38209917,22.0452977 7.23208264,24.1553546 L22.9400579,24.1553546 C22.949405,24.2991247 22.9587521,24.4428948 22.9680992,24.5869947 C22.5590826,24.6658044 22.1503884,24.7446142 21.7416942,24.8234239 C21.739438,24.8705779 21.7371818,24.9180616 21.7349256,24.9655453 L27.9736364,24.9655453 C27.9936198,25.1020609 28.0136033,25.2385766 28.0339091,25.3750922 C26.1986529,25.7813417 24.3633967,26.1875911 22.4839835,26.6040627 C22.7756777,26.8625851 23.1115289,27.1606772 23.2481901,27.2816947 C17.9664298,28.7520407 12.5112645,30.2002936 7.10605785,31.8229832 C5.70109091,32.2447308 4.7741157,31.9126746 4.05406612,30.8287932 C2.65361157,28.7207147 1.34598347,26.5473461 0,24.4013466 L0,23.0823549 C0.117644628,22.9098967 0.252694215,22.7470012 0.350033058,22.5636614 C3.86647934,15.9301223 7.36068595,9.28405288 10.9241901,2.67722342 C11.2387686,2.09389934 11.9720331,1.42187306 12.5599339,1.36944314 C17.1400165,0.961874703 21.7307355,0.662133837 26.3217769,0.397346252 C29.5777934,0.209719681 32.8399339,0.128601691 36.0991736,0 L39,0 Z" id="Fill-1" fill="#7AC5B6"></path>
                <path d="M62.4699853,14.5299785 L62.4699853,17.1747751 L53.829642,17.1747751 L53.829642,19.5456645 C56.5117892,19.5456645 59.1468013,19.6418505 61.7678355,19.497253 C62.7814017,19.4411975 63.7637613,18.8386018 65,18.4003503 L65,22 L50.0078017,22 C51.5164485,18.0003185 51.5089719,14.046182 50,10 L64.6518507,10 C64.0020371,11.639621 62.8597434,12.4527431 61.1541045,12.4549725 C58.7323379,12.4581575 56.3108963,12.4556095 53.8263913,12.4556095 L53.8263913,14.5299785 L62.4699853,14.5299785 Z" id="Fill-3" fill="#1E2426"></path>
                <path d="M103.941067,22.7537 L100.084733,22.7537 C101.376733,18.5317 101.463733,14.3900333 100.101067,10.3020333 C102.3974,9.70903333 103.986067,10.1140333 105.462067,11.6717 C107.6564,13.9877 110.068067,16.0977 112.6564,18.5503667 L112.6564,10.1980333 L116.672733,10.1980333 C116.251067,11.2313667 115.866067,12.0613667 115.579067,12.9237 C115.427733,13.3780333 115.399733,13.8887 115.397067,14.3743667 C115.380733,17.1313667 115.3894,19.8887 115.3894,22.6413667 C113.9714,22.9977 112.949067,22.8647 111.9344,21.8497 C109.436067,19.3497 106.806067,16.9813667 103.941067,14.2893667 L103.941067,22.7537 Z" id="Fill-5" fill="#1E2426"></path>
                <path d="M90.8207273,12.4864202 C90.1538864,13.7030957 89.6687032,14.588072 89.0904042,15.6429023 L92.6157415,15.6429023 C92.0077107,14.5733891 91.4885484,13.6607156 90.8207273,12.4864202 M80,19.6026037 C80.3299899,19.3556646 80.3796517,19.289258 80.414611,19.2965995 C83.3756984,19.9169505 84.7796256,18.2000565 85.8885222,15.7289972 C86.766426,13.7738404 87.939687,11.9541664 89.0162381,10.0951156 C89.8568955,8.6435143 91.8159245,8.63383696 92.6451465,10.0730913 C93.9654327,12.3642855 95.2863724,14.6561471 96.5452348,16.9830473 C97.2973503,18.3735812 97.9560231,19.7961505 100,19.1791365 L100,21.9001382 C98.9175679,21.9001382 97.838403,22.0105934 96.8000784,21.8494156 C96.3393995,21.7780035 95.7532591,21.2384082 95.5797693,20.7728947 C94.8260202,18.7463258 93.4684876,17.9958312 91.4258176,18.3952718 C91.2160617,18.4363171 90.9867024,18.4329801 90.7759663,18.3956055 C88.4849871,17.9901583 86.8458196,18.6515545 85.9643219,21.0558735 C85.5663737,22.1414043 82.9542262,22.313928 81.9485739,21.4533119 C81.289901,20.8893565 80.6857908,20.258327 80,19.6026037" id="Fill-8" fill="#1E2426"></path>
                <path d="M20.5767379,29.6192373 C20.1607228,29.9204759 19.7447077,30.221394 19.1991299,30.6165292 C20.5571267,30.5123776 21.7572692,30.4200832 22.9487313,30.3284298 C22.9767014,30.6222976 23.0210678,30.772276 22.9885968,30.7911835 C19.6678703,32.7210331 16.4188372,34.796054 12.9881593,36.5086272 C10.6280612,37.6863418 8.05963403,36.6268794 7.26200382,34.6069787 C6.66659425,33.0982222 7.07617945,32.0474124 8.59138751,31.5686353 C11.3427456,30.6995301 14.0969971,29.818888 16.897544,29.1356533 C18.0288864,28.8597316 19.2846477,29.090147 20.4835042,29.090147 C20.5146893,29.2664036 20.5455528,29.4429807 20.5767379,29.6192373" id="Fill-10" fill="#7AC5B6"></path>
                <path d="M80,22 L67.1533962,22 C67.4614885,20.3603762 67.8826779,18.7985708 68.0194995,17.20958 C68.1683458,15.4826228 68.0532987,13.7305191 68.0532987,11.8503039 L64,11.8503039 C65.359116,9.08893958 66.7318817,8.5686776 70.7149821,9.29826771 L70.7149821,19.3796603 C72.4624634,19.3796603 74.0373741,19.5386953 75.5697108,19.340921 C77.6896328,19.0673672 78.8063048,20.3131414 80,22" id="Fill-12" fill="#1E2426"></path>
                <path d="M61,6.24699852 C59.6086496,9.1137053 59.0022484,9.40346982 56,8.63529201 C57.2475202,5.90856261 57.7018252,5.69123923 61,6.24699852" id="Fill-14" fill="#1E2426"></path>
            </g>
        </g>
    </g>
</svg>