<?xml version="1.0" encoding="UTF-8"?>
<svg width="131px" height="39px" viewBox="0 0 131 39" version="1.1" xmlns="http://www.w3.org/2000/svg" xmlns:xlink="http://www.w3.org/1999/xlink">
    <!-- Generator: Sketch 51.2 (57519) - http://www.bohemiancoding.com/sketch -->
    <title>eQUOS</title>
    <desc>Created with Sketch.</desc>
    <defs>
        <linearGradient x1="93.6273037%" y1="5.37359776%" x2="6.10226362%" y2="94.0354567%" id="linearGradient-1">
            <stop stop-color="#D45AF0" offset="0%"></stop>
            <stop stop-color="#145085" offset="100%"></stop>
        </linearGradient>
    </defs>
    <g id="Page-1" stroke="none" stroke-width="1" fill="none" fill-rule="evenodd">
        <g id="Artboard-Copy-2" transform="translate(-1019.000000, -461.000000)">
            <g id="eQUOS" transform="translate(1019.000000, 461.000000)">
                <path d="M126.05481,10 C124.980452,16.6814478 124.0023,22.7681111 123,29 C123.920276,28.9565747 124.472595,28.9305907 125.110387,28.9003353 C125.68532,24.9849379 126.248371,21.1528316 126.811422,17.3200135 C126.942507,17.3324716 127.073975,17.3442178 127.205443,17.3563199 C127.758528,21.1983926 128.311614,25.0404654 128.879264,28.9878979 C129.661173,28.9519474 130.255654,28.9245396 131,28.8907248 C130.022997,22.917964 129.112687,17.1331422 128.063626,11.3703891 C127.978919,10.9026771 126.945956,10.5837502 126.05481,10" id="Fill-1" fill="#8456C3"></path>
                <path d="M48.0141487,23.3883147 C45.6241963,23.7978798 45.9662861,25.3440949 46.0921867,26.6469969 C46.2249219,28.020895 46.9756489,28.9374217 48.5271035,28.9905795 C50.0562557,29.0433806 51.7073516,28.9327838 51.8102304,27.094379 C51.9123897,25.2656068 51.6523151,23.3315893 51.1113024,21.577024 C50.596549,19.9055848 49.3512126,18.4663989 48.7335804,16.8120843 C48.253,15.5245231 48.1864526,14.068926 48.0727824,12.676833 C48.0494008,12.3885677 48.6878965,11.7563819 48.917755,11.8016909 C49.3325074,11.8830331 49.8433039,12.2893873 49.9969026,12.6818277 C50.2170487,13.2458715 50.153379,13.9190851 50.2181279,14.6244075 C51.7548341,14.3104552 52.2192273,13.4874007 51.9091523,12.153817 C51.5577098,10.643635 50.5645343,9.99468135 49.0486915,10.0000328 C47.5555109,10.0053843 46.2569366,10.5797743 46.2277996,12.1199244 C46.1954252,13.8395268 46.4612552,15.6376172 46.9947138,17.2737369 C47.5206185,18.8855965 48.7292638,20.2737652 49.2943775,21.8792031 C49.7904257,23.2891344 49.8781964,24.8592526 49.9882694,26.3701481 C50.0127301,26.7019386 49.368479,27.0811787 49.0321446,27.4386562 C48.6929325,27.0861734 48.1235023,26.7697238 48.060552,26.3740725 C47.9148671,25.4589729 48.0141487,24.504986 48.0141487,23.3883147" id="Fill-3" fill="#8456C3"></path>
                <path d="M98.4122945,10.0379946 C97.1204619,10.0379946 95.9416926,10.1186642 94.7800881,10.0171998 C93.3610126,9.89314796 92.9833885,10.43704 93.0005532,11.7492647 C93.0677196,16.9354205 93.0248078,22.1230104 93.0348827,27.3098833 C93.035629,27.7612742 93.1270499,28.2123067 93.2132467,29 C95.1084569,28.0950669 97.6648824,30.0569504 99,26.9509934 L95.1084569,26.9509934 L95.1084569,19.7914811 C96.5663396,19.9481593 97.5630135,19.6319347 97.5768199,18.0590577 C96.6991797,18.0185437 95.9129604,17.982332 95.0722617,17.9439691 L95.0722617,12.0231826 C96.3805127,11.7058824 98.1022099,12.3318781 98.4122945,10.0379946" id="Fill-6" fill="#8456C3"></path>
                <path d="M64.4044804,29 C64.6013031,28.843576 64.7985139,28.6875116 64.9953365,28.5310876 C64.9953365,22.7354882 64.9895133,16.9398889 64.999995,11.1446491 C65.0023243,9.84722885 64.1874709,9.88175001 63.0049824,10.149289 C63.0049824,15.9812075 62.9743138,21.8314653 63.065155,27.6802848 C63.0721428,28.1258235 63.9378517,28.5602148 64.4044804,29" id="Fill-8" fill="#8456C3"></path>
                <path d="M77.8109293,26.1362346 L77.8109293,12.0886505 C79.8638408,11.652292 80.1706142,11.8555369 80.1806371,13.7667938 C80.1996091,17.2967999 80.163097,20.8271494 80.1963874,24.3568121 C80.2107059,25.8523097 79.5495503,26.461701 77.8109293,26.1362346 M81.9972938,14.9574242 C81.9972938,10.1602276 81.5609382,9.76678403 76.5691594,10.0816076 C76.4034231,10.0919071 76.2419822,10.1664074 76,10.2326679 L76,27.9980536 C76.8981264,27.9980536 77.7164273,28.00286 78.5343703,27.9973669 C81.1460604,27.9795144 81.9872709,27.1960604 81.9947881,24.7406428 C82.004811,21.4794555 81.9972938,18.2186115 81.9972938,14.9574242" id="Fill-11" fill="#8456C3"></path>
                <path d="M112.890954,17.6438177 C112.849689,18.0343171 111.867196,18.3398051 110.855443,18.9742802 C110.855443,16.3631179 110.826933,14.3777913 110.889581,12.3945381 C110.898209,12.1291367 111.483428,11.6166495 111.603098,11.6622653 C112.10466,11.852677 112.898832,12.1892667 112.922841,12.5137614 C113.048513,14.2191725 113.071396,15.9460092 112.890954,17.6438177 M114.971482,22.6290782 C114.934343,21.4568888 114.664992,20.287464 114.67437,19.1180393 C114.693878,16.773315 114.986112,14.4206425 114.830054,12.090778 C114.782786,11.3899525 113.742522,10.3905505 112.9476,10.1714561 C111.761032,9.84385132 110.389144,10.0864447 109,10.0864447 L109,27.972354 L110.970236,27.972354 L110.970236,20.2770968 C112.550702,20.1343745 113.05489,20.6928232 113.037634,21.8494617 C113.009123,23.7487402 113.045512,25.6490554 113.071772,27.5486795 C113.074022,27.7000412 113.209823,27.849675 113.283351,28 L114.985737,28 C114.985737,26.0772224 115.025877,24.3521136 114.971482,22.6290782" id="Fill-13" fill="#8456C3"></path>
                <path d="M34.2699878,3.88065262 C34.3248074,3.91406067 34.2867776,3.87640068 34.2722129,3.88409466 C28.909192,6.69016885 23.5457665,9.49543316 18.1900279,12.3150731 C17.6695446,12.5890191 17.5762905,13.7589085 18.052473,14.115666 C19.2340287,15.0006758 20.4465343,15.8441786 21.5350382,16.6243073 C25.8340319,12.3225646 30.0600002,8.09350966 34.2699878,3.88065262 M5.16115595,34.5340622 C5.18259832,34.56909 5.2040407,34.6043203 5.22568536,34.6393482 C5.56694276,34.4451765 5.91184133,34.2566741 6.24925529,34.0562257 C12.2994436,30.4637462 18.3376971,26.8512217 24.4087209,23.2947824 C25.3938564,22.7175317 26.2416393,22.2014278 25.8746915,20.7557701 C24.5919925,19.8318856 23.1840781,18.8174955 21.83422,17.8452199 C16.2138906,23.4707315 10.6876244,29.0022956 5.16115595,34.5340622 M21.1816436,17.3754823 C19.9015743,16.4428914 18.8009332,15.6107271 17.6604417,14.8378874 C17.44885,14.694334 17.0446814,14.7000033 16.7825181,14.7907112 C15.7508567,15.1478737 14.9057035,14.9642306 14.3439538,14.1857217 C13.8002075,13.4325219 13.8501723,12.4557918 14.4677531,11.7645488 C15.1259935,11.0279518 16.00594,10.9627555 17.042254,11.477442 C17.3078562,11.6092519 17.7541004,11.6222102 18.0124203,11.4877681 C23.5328202,8.61244813 29.0420943,5.71647589 34.5345786,2.78810796 C34.8333558,2.62855919 35.0967329,2.17016017 35.1473045,1.81785704 C35.3135841,0.663355627 36.1668287,-0.110091479 37.2779887,0.0128096714 C38.3294742,0.129231683 39.1062546,1.09766035 38.9881192,2.14485104 C38.8647244,3.23942042 37.8664403,4.0701674 36.7605398,3.79622135 C36.0369608,3.61723516 35.671429,3.85797563 35.2164865,4.31637465 C31.2037283,8.36097658 27.1705391,12.3857361 23.1448346,16.4175823 C22.909373,16.6534634 22.6838235,16.8992657 22.3714931,17.2266646 C23.6812985,18.1805152 24.9399254,19.1167507 26.2278838,20.0102643 C26.3834422,20.11798 26.7166081,20.0493416 26.9352799,19.9717944 C27.9980934,19.595397 28.9215315,19.8088036 29.4349347,20.6462322 C29.9281093,21.4508602 29.8601411,22.2623722 29.255102,22.9880357 C28.6704939,23.6891999 27.7943908,23.7398182 26.7704163,23.3330498 C26.4568722,23.2085288 25.9458964,23.3085505 25.6347797,23.4917887 C19.2255327,27.2691262 12.8322664,31.0731901 6.43576348,34.8715848 C5.97272958,35.1465432 5.51272997,35.4267659 5.04322289,35.6901834 C4.34068172,36.0843984 3.74595927,36.4379164 3.786012,37.4735661 C3.8222213,38.4162807 2.74282028,39.0933506 1.75323449,38.9894819 C0.788732236,38.8884479 -0.00423102866,38.0226731 1.69888309e-05,37.0753016 C0.00406271977,36.0939147 0.833235276,35.0218198 1.73988358,35.2413006 C3.18724382,35.5913765 3.79147374,34.6519015 4.56542207,33.8784544 C9.78765157,28.6589013 15.0034079,23.4330715 20.2248283,18.2129109 C20.4853733,17.9525306 20.7797002,17.7255583 21.1816436,17.3754823" id="Fill-1" fill="url(#linearGradient-1)"></path>
            </g>
        </g>
    </g>
</svg>