<?xml version="1.0" encoding="UTF-8"?>
<svg width="131px" height="46px" viewBox="0 0 131 46" version="1.1" xmlns="http://www.w3.org/2000/svg" xmlns:xlink="http://www.w3.org/1999/xlink">
    <!-- Generator: Sketch 51.2 (57519) - http://www.bohemiancoding.com/sketch -->
    <title>Feniks</title>
    <desc>Created with Sketch.</desc>
    <defs></defs>
    <g id="Page-1" stroke="none" stroke-width="1" fill="none" fill-rule="evenodd">
        <g id="Artboard-Copy-2" transform="translate(-807.000000, -839.000000)" fill="#EC7031">
            <g id="Feniks" transform="translate(807.000000, 839.000000)">
                <path d="M28.0533054,4.67951994 L27.1329235,4.22280622 C27.1311095,4.22556511 27.1289933,4.22771093 27.1268772,4.23016324 C27.0398107,4.3297891 26.8898628,4.33898535 26.7916106,4.25070147 C26.6936605,4.16272417 26.6845911,4.01037311 26.7716576,3.91074724 C26.8584221,3.8111213 27.0086721,3.80192504 27.1069242,3.89020893 C27.1256681,3.90706869 27.141388,3.92699393 27.1537836,3.94783875 L27.7838066,3.73847103 L27.4279821,2.58526287 C27.3536131,2.6058011 27.2713837,2.58894133 27.2091066,2.53315083 C27.1111573,2.44517353 27.1020878,2.29282247 27.1888515,2.1931966 C27.2759181,2.09387724 27.4258659,2.0843744 27.5241181,2.17265829 C27.5857903,2.22814229 27.6120917,2.30937574 27.6015111,2.38631755 L28.7732815,2.60488153 L28.9023694,1.94520473 C28.8799982,1.93570189 28.8588361,1.9222141 28.840093,1.90504783 C28.7418409,1.81707045 28.7327714,1.66471947 28.8195351,1.5654001 C28.9062996,1.46577416 29.0565495,1.45657799 29.1548017,1.54455529 C29.2527517,1.63253259 29.2618212,1.78488365 29.1750567,1.88450951 C29.1729406,1.88696183 29.1708245,1.88880114 29.1684063,1.89155995 L29.784105,2.85131622 C30.9877692,2.01576387 32.0878252,1.90422017 32.0878252,1.90422017 C33.7816929,0.865964907 35.2442897,0.790249248 36.0209354,0.851250955 C36.0212375,0.851250955 36.0215395,0.851250955 36.0221445,0.850944374 L36.0218416,0.851557452 C36.3979212,0.880985441 36.6149827,0.941987148 36.6149827,0.941987148 L36.1914404,1.0974036 C34.3651596,1.86038473 33.4137758,3.58529239 33.4137758,3.58529239 C35.3343794,2.70429281 36.3407833,3.21407094 36.3407833,3.21407094 C31.1273727,3.95620734 31.6760735,9.52054419 32.9107252,13.0908302 C34.1810499,16.7638074 32.6365259,18.1916766 32.6365259,18.1916766 C33.8367139,14.4589238 31.4018741,13.8792543 31.1273727,8.6395446 C31.0282135,6.74665236 31.4142688,5.31111962 32.0210137,4.22443087 L32.0201066,4.22473745 C32.0201066,4.22473745 33.017744,2.29107523 34.9749276,1.27151897 C34.4730853,1.30861047 33.9286177,1.48640439 33.4548908,1.68902817 C33.1066246,1.86682209 32.7716601,2.06116928 32.4669279,2.28617053 C32.2063324,2.46396444 31.9560162,2.6699602 31.7320014,2.91182121 C31.2954595,3.34772292 30.9323804,3.83696273 30.6609022,4.36758568 C30.4713503,3.91482421 30.3440766,3.12609356 31.4018741,2.6114108 C31.4018741,2.6114108 31.4472215,2.58412863 31.5234045,2.53998669 C27.1767293,4.09721625 26.7371643,10.7724586 26.7371643,10.7724586 C26.6314382,7.93139922 27.2259082,5.99615486 28.0533054,4.67951994 Z M4.54348237,27.2560709 C4.18644872,27.4384629 3.81520716,27.5647579 3.45424331,27.669595 C3.25169269,27.7161893 3.124116,27.7489892 2.92640259,27.7802564 C2.74229297,27.8148956 2.5627185,27.8339011 2.38737628,27.8424842 C2.03336662,27.8565852 1.68177465,27.8332881 1.34862427,27.7394864 C1.01486925,27.650896 0.70983405,27.4642123 0.490958466,27.2309345 C0.0504864563,26.7429208 0.00393010312,26.1862419 0,25.7960148 C0.0114879094,25.3919935 0.0789040406,25.091583 0.139366912,24.8917181 C0.198318206,24.6918533 0.241549172,24.5906947 0.241549172,24.5906947 C0.241549172,24.5906947 0.237619069,24.6593599 0.235502859,24.7571465 C0.239432963,24.6992103 0.235502859,24.6510833 0.241549172,24.5906947 C0.241549172,24.5906947 0.235502859,27.9298485 4.11056775,26.3934638 C4.70794106,26.0731281 5.28536137,25.6228191 5.79536606,25.0547981 C6.309603,24.4932145 6.764283,23.8277134 7.17815166,23.118377 C7.585974,22.4029097 7.93242619,21.6316519 8.25287906,20.845067 C8.57454187,20.0584822 8.83604362,19.243389 9.08726681,18.4365724 C9.33969909,17.6300624 9.53983153,16.8174215 9.77351991,16.02256 C10.2285037,14.4386614 10.8101562,12.9881082 11.5332922,11.8719914 C12.2391962,10.7439196 13.1083498,10.0002506 13.7936967,9.66366824 C14.1356137,9.49047245 14.4240218,9.40770627 14.6187121,9.35283543 C14.8158214,9.3108393 14.9210269,9.28876833 14.9210269,9.28876833 C14.9210269,9.28876833 14.8185416,9.32187479 14.6268745,9.38379607 C14.4403467,9.45797907 14.1670544,9.56864051 13.8529499,9.77034463 C13.5406595,9.97235533 13.1878581,10.2580518 12.8432199,10.6430675 C12.4994888,11.0283899 12.1642222,11.5102727 11.8585822,12.0700171 C11.2470002,13.1922646 10.7645068,14.6222796 10.4011248,16.1908512 C10.2254805,16.9743706 10.0794628,17.8121479 9.87630722,18.6560559 C9.67950084,19.5011902 9.42464953,20.3487768 9.12838191,21.1859409 C8.83785769,22.025864 8.46329006,22.8394245 8.04095691,23.6165066 C7.61076337,24.3896036 7.1167815,25.1240764 6.52092019,25.7457421 C5.9356395,26.3735385 5.26510631,26.9035484 4.54348237,27.2560709 Z M19.5406619,25.0802104 C19.3538312,25.5286802 17.5677584,31.3974125 12.0608004,32.1416947 C10.2822851,32.3823296 8.4408885,31.9525588 8.4408885,31.9525588 C8.4408885,31.9525588 11.9256654,31.244755 13.7579934,28.2654806 C13.9693106,27.9246067 14.1364904,27.5561441 14.3094144,27.1907469 C14.4391072,26.9099551 14.5464289,26.6175148 14.6567737,26.3263005 C14.7238872,26.1482001 14.7864665,25.9682604 14.8445106,25.7867879 C14.9397396,25.4888298 15.0395037,25.1914848 15.1226401,24.8889287 L15.4183036,23.6817692 L15.6516899,22.7207624 C15.673457,22.6309457 15.7003625,22.5420488 15.7251527,22.4528452 L15.7172923,22.4693985 C15.7172923,22.4693985 16.204925,20.4379496 17.0861712,18.6882121 C15.3548173,19.8690091 14.4865707,21.3796444 14.4865707,21.3796444 C16.4585672,16.6846585 20.6371555,15.4560411 20.6371555,15.4560411 C18.9070107,16.5939223 16.9788504,19.4199261 16.1937394,24.7031647 C15.4122573,29.9603471 12.7089624,31.0743181 12.6826611,31.085047 C12.9027457,31.0237388 13.1161798,30.9599782 13.2374081,30.9109316 C13.6660897,30.7408012 14.0784463,30.5268354 14.4711529,30.2776173 L14.4684318,30.2776173 C18.6313002,27.4206528 18.4777242,23.5812236 20.8687286,19.9628106 C23.259733,16.3440912 26.8566688,16.5687859 26.8566688,16.5687859 C26.6725592,16.6353053 26.4920777,16.7094883 26.3137123,16.7867367 C26.0467684,16.918243 25.7299436,17.1122836 25.4729762,17.3872511 C26.4875434,17.4583686 27.0737302,18.4929454 27.0737302,18.4929454 C29.3029962,17.565658 29.2688353,14.5980322 29.2688353,14.5980322 C30.6065756,19.4438363 23.7125998,21.8317927 23.7125998,21.8317927 C24.936066,21.0200715 26.726976,19.0358299 25.3590033,18.2844973 C24.1243515,17.606428 22.2959545,19.927865 22.2959545,19.927865 C22.0166159,20.3245293 21.734255,20.7202741 21.4842409,21.1374768 C21.2420872,21.5608103 20.9775614,21.967897 20.7683603,22.4105426 C20.5488799,22.8464442 20.3173076,23.2743759 20.131686,23.7277503 L19.5406619,25.0802104 Z M19.6358605,40.4701447 C18.2784693,35.9238314 20.711495,30.9980199 21.1900582,30.0722653 C21.0098796,30.7770037 19.264014,36.0262161 23.416301,37.8234675 C23.4326267,37.8234675 23.4531838,37.8240806 23.4193241,37.8250002 C21.8031522,37.8574936 20.5533847,39.3494299 20.8690003,41.0360199 C21.0597612,42.0561891 21.8599872,42.8774132 22.8542993,43.1257116 C23.5236226,43.2927766 24.1379257,43.1762909 24.6627433,42.9074542 C24.4326822,43.3614418 23.9855588,43.764237 23.11308,43.7559604 C21.9464488,43.744925 21.1262707,43.0864743 20.5842203,42.3740724 C20.1528177,41.8075842 19.8405273,41.1549578 19.6358605,40.4701447 Z M50.4847713,29.9564234 C50.7199725,29.815721 50.8656873,29.6449775 50.957289,29.5284918 C51.0440535,29.4058753 51.090307,29.3402755 51.090307,29.3402755 C51.090307,29.3402755 51.0576573,29.4132323 50.9962871,29.5499497 C50.9249413,29.6802297 50.823061,29.8886778 50.5815123,30.0765876 C50.3526603,30.2715478 49.9611628,30.4183811 49.5134353,30.3996821 C49.2921416,30.3935512 49.0533131,30.3457308 48.8280892,30.2828899 C48.5590292,30.2001237 48.3428748,30.0514512 48.1369981,29.8748834 C47.7297807,29.5180694 47.4247457,29.0220857 47.2439621,28.4749095 C47.0655967,27.92804 46.9513218,27.3308976 46.9516238,26.721187 C46.933787,26.1099437 46.9836695,25.4852127 47.0795026,24.8586424 C47.1408727,24.5456637 47.202847,24.2302328 47.2651242,23.9135757 C47.3334469,23.6012101 47.4199085,23.303252 47.4979056,22.9970173 L47.7433853,22.091801 C47.8286378,21.7966018 47.9008907,21.5004829 47.9498662,21.2028314 C48.0738147,20.6118198 48.1587652,20.0244868 48.2071357,19.4530938 C48.2485528,18.8813944 48.2624587,18.3271679 48.2382734,17.8014496 C48.2059257,17.2763445 48.1536259,16.7797476 48.0698845,16.3251469 C47.9816089,15.8720789 47.8851708,15.456409 47.7702908,15.0946904 C47.660551,14.7314389 47.5362996,14.4212192 47.4208155,14.1710815 C47.1958937,13.6671277 47.0157142,13.397678 47.0157142,13.397678 C47.0157142,13.397678 47.2542407,13.6266642 47.5632059,14.103949 C47.717386,14.3421316 47.890008,14.6413158 48.0568849,14.9978233 C48.2304139,15.352185 48.3948726,15.7666287 48.5294026,16.2310388 C48.6681649,16.6945291 48.7794167,17.2070661 48.8492513,17.7557749 C48.9160628,18.3041772 48.9535498,18.8872187 48.9299687,19.4895723 C48.9021562,20.0900866 48.8589249,20.713898 48.7328602,21.3343375 C48.6860009,21.6476227 48.6149572,21.958149 48.5312167,22.2671426 L48.2975274,23.1846206 C48.2174142,23.4871768 48.1227893,23.7934115 48.0529547,24.0913696 C47.9903763,24.387795 47.9280991,24.6829942 47.8661248,24.9760476 C47.8222895,25.2730862 47.7790582,25.5676723 47.7361299,25.85858 C47.7192001,26.149181 47.6681085,26.439169 47.678085,26.7199609 C47.6575279,27.2864491 47.7182931,27.8256551 47.8361953,28.3185735 C47.962865,28.808733 48.1790202,29.2452477 48.4764978,29.5674226 C48.6231196,29.7262109 48.7996717,29.8607825 48.9623164,29.9337394 C49.1684951,30.0211036 49.3550229,30.083638 49.5433648,30.1142922 C49.9158163,30.1771331 50.2547102,30.101724 50.4847713,29.9564234 Z M40.7690542,25.810453 L40.7605888,25.7727484 C40.6732202,25.3552392 40.6103389,24.9135133 40.6166873,24.4579929 C40.6079198,23.8982486 40.6520581,23.3198053 40.7669372,22.7481058 C40.8697245,22.173341 41.0396254,21.6089985 41.22313,21.0514 C41.4256807,20.4971734 41.6772059,19.9549019 41.8855008,19.4678079 C42.0889584,18.9678391 42.2848578,18.4706292 42.4142485,17.9718865 C42.6932843,16.9817582 42.8175357,16.0121683 42.747399,15.2084171 C42.7108191,14.8163508 42.6016834,14.438692 42.4393408,14.2382141 C42.4178758,14.1851824 42.3326233,14.137975 42.2685329,14.0935266 C42.2379993,14.0748276 42.1473046,14.0355903 42.0925857,14.0193436 C41.9659161,13.9739755 41.8468047,13.9742821 41.7452265,14.000338 C41.5384436,14.0582743 41.4223554,14.2339225 41.3655196,14.3470362 C41.3080805,14.4653611 41.2929647,14.5367852 41.2929647,14.5367852 C41.2929647,14.5367852 41.2920577,14.464748 41.3241033,14.3314026 C41.3603803,14.208173 41.4241687,13.9788801 41.6859733,13.8461478 C41.812038,13.7848395 41.9771017,13.7578639 42.1391422,13.7833069 C42.2283248,13.7964881 42.2878809,13.803232 42.4027609,13.8486001 C42.4759208,13.8863047 42.5475686,13.9050037 42.6358451,13.9899156 C42.9650654,14.2826625 43.1113852,14.6866839 43.2123584,15.1299425 C43.4025143,16.017073 43.3559579,17.0737207 43.1165244,18.1509066 C42.9989243,18.6910323 42.8353726,19.2394346 42.6201244,19.7768015 C42.3961096,20.3224449 42.1784432,20.8165894 41.9982638,21.3343375 C41.8198984,21.8545381 41.6496954,22.3796432 41.547211,22.9081204 C41.4407964,23.4353713 41.354334,23.9577176 41.3425443,24.4662695 C41.3156379,24.9754346 41.3561481,25.4652875 41.4247736,25.9257124 C41.4559122,26.1571511 41.527258,26.3723431 41.5698843,26.5890677 C41.6385098,26.7984354 41.7047164,27.0007526 41.7685047,27.1947932 C41.7706208,27.1996979 41.7724349,27.2036829 41.7748539,27.2085876 C41.4420055,25.0670904 43.1488721,23.3007997 43.1488721,23.3007997 C41.430215,26.4140327 43.279774,29.5192956 43.279774,29.5192956 C43.279774,29.5192956 43.051527,29.3546829 42.6564023,29.0420109 C42.4837811,28.8617646 42.2386034,28.6686436 42.021542,28.3881584 C41.9130113,28.2483755 41.7866437,28.1055273 41.6720666,27.9409147 C41.5665591,27.7689451 41.4559122,27.5883922 41.3404282,27.3998693 C41.2473153,27.1993914 41.1430168,26.9912499 41.0474849,26.7696205 C40.9737209,26.5415538 40.8809101,26.3073563 40.8231681,26.0575252 C40.80382,25.9769048 40.7865881,25.8935256 40.7690542,25.810453 Z M45.3252029,24.4874822 C44.7353879,29.7964702 48.2328624,31.2884065 48.2328624,31.2884065 C46.7037562,30.8377908 43.7020777,29.5129195 44.5007917,24.2324399 C45.7118632,16.2277281 44.6386469,14.2395015 44.4690489,13.9844592 C45.6030295,15.4368516 45.9624814,18.7520953 45.3252029,24.4874822 Z M32.7766483,37.8983555 C30.4382475,37.5801657 28.3435116,36.088536 26.9697946,34.1839952 C25.7913737,32.5501303 24.8520825,30.4003565 25.4273867,28.3545001 C25.8264416,26.9367468 26.9667714,25.8099011 28.2259105,25.1373496 C28.8628869,24.7970889 29.5624426,24.6048875 30.2266274,24.3280807 C31.0474105,23.9862873 31.8431022,23.5862509 32.6436303,23.1990893 C33.6343143,22.7199653 34.7489477,22.2794655 35.4757109,21.4045968 C36.220311,20.5082702 36.5332064,19.3078546 36.4724412,18.1509679 C36.4198385,17.155935 36.1293151,15.9959829 35.611148,15.156673 C36.1595458,18.0623775 34.4859339,20.7654583 32.1832052,22.3836896 C30.6513787,23.459956 29.2017817,24.1410906 29.2017817,24.1410906 C34.0596706,20.7700564 36.0292489,16.5640039 34.2265483,13.466711 C32.2475985,10.0662489 33.4547398,7.3956615 33.4547398,7.3956615 C33.4547398,7.3956615 32.6566299,10.1499347 35.6099389,12.8674228 C36.9588656,14.1843241 38.0284538,15.8755122 38.1608668,17.8107071 C38.2896526,19.6904182 37.5323558,21.5943459 36.2441942,22.9382227 C34.8248287,24.4191235 32.8277399,24.9249166 30.9216479,25.4221265 C29.1437376,25.88623 26.9002628,26.6351102 26.4183736,28.6938413 C25.8986953,30.916572 27.1656948,33.2223752 28.484692,34.9086587 C28.8175404,35.3344445 29.2241528,35.7124098 29.6328822,36.0609473 C30.0576336,36.4226659 30.5098954,36.7518912 30.9860412,37.0403466 C31.5537871,37.3839793 32.2309716,37.5749545 32.7766483,37.8983555 Z M17.9818684,14.7510576 C17.7554354,14.9334496 17.1598762,15.5391752 17.1598762,15.5391752 C16.8240046,15.8779032 14.7951731,18.1453889 13.2216266,21.6132901 L12.5870693,22.9255932 C12.3805884,23.3605753 12.1502253,23.815176 11.9029314,24.2434141 C11.4134847,25.1066342 10.8599476,26.0845009 10.1649262,26.8048728 C7.10097047,29.9812533 3.28395009,29.1554311 3.28395009,29.1554311 C3.28395009,29.1554311 9.13615116,27.1178514 10.8502732,20.0171297 C11.0670325,19.1189639 11.2907453,18.2232504 11.4802962,17.3054659 C11.6837539,16.3843094 11.9150241,15.4723492 12.237896,14.5858318 C12.5580468,13.7026865 12.9356376,12.8268981 13.4931049,12.0614646 C13.7733505,11.6844189 14.1025708,11.3282179 14.5143233,11.0931008 C14.6685035,11.0029777 14.8396134,10.9465741 15.0146536,10.9076433 C15.2126691,10.8475612 15.3345015,10.8576771 15.3345015,10.8576771 C13.0121235,11.7763812 12.2505936,15.2528656 11.5186902,20.2160751 C10.8242738,24.9266945 8.29994934,27.0721767 7.77482972,27.4728262 C8.52547613,27.0289545 9.13645322,26.505382 9.54790284,26.0495551 C10.17974,25.3494149 10.7771133,24.592871 11.2070039,23.7385406 C13.3476922,19.4834415 12.5728605,16.4802568 19.29089,13.3863359 C19.6678758,13.1594954 20.0046535,12.8048271 20.0046535,12.3281555 C20.0046535,11.8468857 19.7449658,11.4315224 19.3622358,11.2059079 C19.9487256,11.3141171 20.3940349,11.8321717 20.3940349,12.458129 C20.3940349,12.7778515 20.2715975,13.0641611 20.0790233,13.2870165 C20.0760002,13.2913081 20.0726741,13.2955997 20.0693489,13.3001978 C20.0539311,13.3173642 20.0412335,13.3363697 20.0249086,13.3529229 C19.9983052,13.3854163 19.9723058,13.4185228 19.9444933,13.4485637 C19.7570585,13.6450568 19.5505777,13.7995535 19.309331,13.9307532 L19.3223306,13.9237027 C18.9414146,14.1624984 18.7491426,14.2615112 18.3724588,14.4862059 C18.3014151,14.5285086 18.2083022,14.568972 17.9818684,14.7510576 Z M9.98704519,12.4606733 C8.79169359,14.1316297 7.38955997,15.7167545 5.90308088,17.0033081 C5.37403022,17.4612807 4.80991163,17.8910516 4.16628478,18.2276339 C3.84522694,18.3950054 3.50209997,18.5406125 3.11816081,18.6120367 C2.74298906,18.6853 2.29677272,18.681928 1.90315913,18.4566202 C1.56486971,18.2751478 1.35052886,17.9499075 1.2311147,17.6225215 C1.21811521,17.6746335 0.852919453,19.2235865 2.10480272,20.0834347 C2.31158644,20.2026792 2.49146297,20.3019985 2.73089644,20.3859909 C2.95612031,20.4724355 3.16713544,20.5248541 3.40324284,20.5668502 C4.23370041,20.7069395 5.09771475,20.5466185 5.90549906,20.2394642 C5.08320394,20.7939973 4.24942116,20.9150811 3.76964803,20.9328604 C3.63149072,20.9313278 3.49393753,20.9402175 3.35517525,20.9245838 C3.10667316,20.8960755 2.83761309,20.8421242 2.60029659,20.7645693 C2.37174666,20.6995826 2.10873291,20.5809511 1.88653219,20.4629327 C1.4312468,20.2069708 1.00256501,19.8130653 0.789433425,19.2894928 C-0.193088137,16.8757869 1.77346631,15.2471333 1.77346631,15.2471333 C1.77346631,15.2471333 1.06453946,17.1945898 2.22058969,17.8634629 C2.64201581,18.0884641 3.28957284,17.8806292 3.82315781,17.5704094 C4.9229775,16.9309644 5.69811122,16.0263612 6.55970738,15.1248233 C7.48085878,14.1607511 8.324316,13.1614266 9.06105572,12.0422445 C9.80716781,10.9089614 10.4544228,9.71191781 11.0421217,8.48759212 C11.5998919,7.32518763 12.0001559,6.01349763 12.650132,4.91240142 C13.7826014,2.99375973 15.5665581,1.06071059 17.7429192,0.417586978 C18.7620207,0.116563489 19.8796773,0.00375632587 20.9389868,7.78592015e-05 C21.5717302,-0.00206795561 22.2044743,0.0402347518 22.8323813,0.117176567 C23.1752053,0.159479274 23.5162162,0.211897807 23.855715,0.273512593 C24.1453322,0.325931211 24.6511046,0.549093226 24.9325585,0.4994335 C24.9325585,0.4994335 18.8536224,1.57232796 19.2287942,5.59568193 C19.6042688,9.61903589 25.0226483,12.8760367 27.8495896,12.0137361 C28.7377892,11.7430602 28.7719509,10.6480948 28.7296268,10.0843655 L28.5385646,8.67427571 C28.4820317,8.17951811 28.4451488,7.67648392 28.4941243,7.17651511 C28.5346344,6.67807905 28.6715827,6.18332145 28.9164575,5.75447026 C28.7060465,6.33260704 28.7057444,6.72191449 28.6990931,7.21207388 C28.6863964,7.70284643 28.754719,8.19116667 28.8318091,8.67611494 L29.1063105,10.136784 C29.1377512,10.32592 29.1658666,10.5175082 29.1879357,10.7112423 C29.1867266,10.7032722 29.1873308,10.6956087 29.1861217,10.6876386 C29.1861217,10.6876386 29.6937073,13.718412 27.4073043,14.9240388 C27.4073043,14.9240388 28.8983185,13.0182718 27.5418343,13.2959982 C27.5418343,13.2959982 24.4790876,13.6807074 21.2292082,11.496601 C17.9793295,9.31249462 15.6741826,3.20312737 19.9065828,0.836015841 C19.780216,0.906826878 19.5117601,0.891499763 19.3699755,0.920314674 C18.8974578,1.01503591 18.4331033,1.15604491 17.9838638,1.33046686 C16.5451503,1.88929156 15.2594069,2.82362933 14.3025818,4.050714 C12.8907745,5.86114665 12.5769721,8.25646001 11.4318051,10.2281333 C10.9970772,10.9767071 10.5118628,11.7271201 9.98704519,12.4606733 Z M28.402553,22.1459056 L23.5361995,26.1545455 C23.297069,26.3516516 23.1310983,26.6284583 23.0760765,26.9359191 C22.4439373,30.4685005 22.6803476,33.1626917 23.7977013,33.7619798 C23.9165106,33.8254339 24.018995,33.8603795 24.1148289,33.8839832 C24.3303792,33.9235271 24.5474407,33.8922598 24.7382007,33.7570751 C25.2055792,33.4263172 25.3425274,32.6829546 25.0441428,32.0965411 C24.782641,31.5833911 24.2747533,31.3608422 23.8388155,31.5343446 C24.3896324,31.2848199 25.0450498,31.5536566 25.3782003,32.2081222 C25.7485357,32.9358512 25.5789368,33.8585403 24.9987963,34.2689991 C24.9764251,34.2849392 24.9522398,34.2929093 24.9292637,34.3070102 C24.9322868,34.3070102 24.9356121,34.3073167 24.9386352,34.3073167 C24.0794581,34.9283693 22.0028611,34.0228464 21.9018878,30.2830431 L21.8356813,27.7782946 C20.3192727,29.4648846 18.1069357,32.600495 17.8980367,36.7102936 C17.6839985,40.9283013 19.7823617,45.191677 22.6634178,45.1453893 C24.8854283,45.109524 25.2022539,43.5896924 25.2312756,42.8941504 C25.2315785,42.8941504 25.2315785,42.8941504 25.2318805,42.8941504 L25.2321826,42.8941504 C25.4994286,44.67117 24.2191274,45.8958023 22.7160205,45.9920562 C19.6112526,46.1910015 15.8819029,42.6449323 16.3994642,36.2762312 C16.9587464,29.3916211 21.3767682,25.9044079 26.7842641,21.6208003 C31.9233057,17.5499325 29.9803317,14.3557726 29.9803317,14.3557726 C29.9803317,14.3557726 33.3245332,17.605723 28.402553,22.1459056 Z M39.3292513,26.9427856 C36.5452391,25.1709772 37.895677,21.8177225 38.9809851,19.1238379 L39.1448396,18.7161381 C39.570498,17.6496811 39.5940791,16.7588721 39.2143722,16.0694609 C38.9401729,15.5716379 38.5117934,15.2853283 38.1656433,15.1253138 C38.1789458,15.1213288 38.1928517,15.1170372 38.2070604,15.1133587 C38.2823373,15.0919008 38.3570083,15.0781064 38.4310752,15.0716691 C38.5828372,15.0587943 38.7303668,15.0765738 38.8700362,15.1240876 C39.133654,15.2056276 39.4002951,15.3864869 39.648193,15.6494993 C39.915439,15.9284519 40.1122454,16.2806678 40.21866,16.6696686 C40.3341441,17.0632676 40.3652827,17.5065262 40.3123778,17.991168 C40.2667284,18.4494472 40.1636391,18.9120179 40.0061337,19.3681513 C39.8474184,19.830109 39.7068421,20.2718349 39.5753352,20.7187721 C39.284811,21.6613865 39.0889117,22.5693616 38.9939847,23.4138828 C38.8984537,24.2547254 38.9235459,25.0885176 39.0659355,25.8251363 C39.1439326,26.2257857 39.2633468,26.6233697 39.4223642,27.0129836 L39.3292513,26.9427856 Z M52.2225048,19.3846432 C52.5157493,19.5826689 52.8670387,19.7426834 53.2089565,19.6261977 C53.2818143,19.6013679 53.350137,19.5633568 53.4106001,19.5146167 C53.6530559,19.3196564 53.7760983,18.9944162 53.808748,18.6900207 C53.8063298,18.7136244 53.8423048,18.7681888 53.8507693,18.7899532 C53.8843269,18.8785436 53.9127444,18.9692798 53.9354177,19.0612422 C54.0025313,19.3322247 54.0249024,19.6200669 53.9659513,19.8944213 C53.8568156,20.4008275 53.4308552,20.8339702 52.9202464,20.9112186 C52.7071143,20.9434055 52.4891458,20.9231738 52.2781307,20.8808711 C51.3990006,20.705836 50.6039138,20.1381216 50.1446978,19.3585872 C50.6290061,19.9207839 51.2493548,20.3796761 51.9579799,20.5826065 C52.2209928,20.6580155 52.5033546,20.6972529 52.7675774,20.6252157 C52.9341522,20.5798476 53.0868212,20.4878852 53.2098636,20.3652686 C53.3177893,20.2576727 53.4632029,20.0752806 53.4749926,19.9164923 C53.3002553,19.9980322 53.1542377,20.059034 52.9544073,20.040948 C52.7702985,20.0240883 52.5937463,19.9578754 52.4244504,19.88124 C51.596109,19.5069532 50.8119058,18.9137958 50.2846701,18.160624 C50.2523224,18.1149493 50.2211838,18.0686616 50.1909522,18.0214542 C49.9040561,17.5757433 49.6782273,17.0911015 49.4953268,16.592972 C49.1848504,15.7466116 49.102621,14.8285206 49.060901,13.9331135 C49.0125313,12.8920994 49.0336926,11.8477134 48.9581145,10.8079255 C48.8988605,9.99344531 48.7724937,9.19858388 48.5173403,8.42211487 C48.2827441,7.7535484 47.9202691,7.13402849 47.4166136,6.63743166 C47.042651,6.26866252 46.602783,5.97468947 46.1320802,5.74907514 C46.1478001,5.75643216 46.164125,5.83551979 46.1692643,5.85054033 C46.2010078,5.94495499 46.2288203,6.04090238 46.2533077,6.13746294 C46.336142,6.46331629 46.3836054,6.79897889 46.393884,7.13556123 C46.4077907,7.58893578 46.3512578,8.04506914 46.2140075,8.47759888 C46.0447107,9.00975448 45.7529774,9.49378309 45.3741775,9.89903065 C44.8608485,10.4483526 44.2157096,10.8624898 43.5234094,11.13899 C42.6052811,11.5059199 41.6602465,11.7600426 40.694654,11.9589878 C40.5289862,11.9933205 40.3608994,12.0193765 40.1931146,12.0445129 C39.3375648,12.1723406 38.4669,12.2131106 37.6143733,12.0350101 C37.1844827,11.9451935 36.4613468,11.6950558 36.1557068,11.3529558 C36.2497267,11.4580995 36.8377276,11.5016283 36.9634902,11.5010152 C37.7207879,11.4982563 38.4823178,11.4479836 39.2308481,11.3302718 C39.7481082,11.2508775 40.2475314,11.1184517 40.7569312,11.0034987 C40.886926,10.96794 41.0163168,10.930542 41.1451026,10.8906916 C41.2364014,10.8624898 41.3790938,10.7812564 41.4731138,10.7812564 C42.1106943,10.5550289 42.7322528,10.2567643 43.2709771,9.83986818 C43.7861211,9.44105797 44.2148026,8.9269883 44.4590724,8.31390583 C44.5948116,7.97364503 44.6737157,7.60947401 44.6960869,7.24346377 C44.9984008,2.68366257 40.8037897,4.71449843 40.8037897,4.71449843 C40.8037897,4.71449843 42.3531509,2.60702726 45.8297654,4.59954545 C49.3063808,6.59206356 50.0999555,9.00607593 49.9865875,11.7266296 C49.9436592,12.7624325 49.9430543,13.8046727 50.054911,14.8364907 C50.1078158,15.3241977 50.1873241,15.8094526 50.3043202,16.2858177 C50.4820806,17.0055765 50.7496295,17.7146065 51.1716597,18.3249301 C51.40807,18.6661105 51.6931521,18.9836873 52.0229773,19.2390361 C52.0855566,19.2874697 52.1526701,19.3371293 52.2225048,19.3846432 Z" id="Combined-Shape" fill-rule="nonzero"></path>
                <path d="M73.0479682,16.5331492 L65.5557592,16.5331492 L65.5557592,21.961326 L71.9425603,21.961326 L71.9425603,23.3701657 L65.5557592,23.3701657 L65.5557592,29.8756906 L64,29.8756906 L64,15.1243094 L73.0479682,15.1243094 L73.0479682,16.5331492 Z M84.9208677,29.8756906 L75.8728995,29.8756906 L75.8728995,15.1243094 L84.9208677,15.1243094 L84.9208677,16.5331492 L77.4286587,16.5331492 L77.4286587,21.7334254 L83.8154598,21.7334254 L83.8154598,23.1422652 L77.4286587,23.1422652 L77.4286587,28.4668508 L84.9208677,28.4668508 L84.9208677,29.8756906 Z M98.9227009,29.8756906 L97.4488237,29.8756906 L89.7109685,18.0455801 L89.7109685,29.8756906 L88.1552093,29.8756906 L88.1552093,15.1243094 L89.6290865,15.1243094 L97.3669416,26.9129834 L97.3669416,15.1243094 L98.9227009,15.1243094 L98.9227009,29.8756906 Z M104.695386,29.8756906 L103.139627,29.8756906 L103.139627,15.1243094 L104.695386,15.1243094 L104.695386,29.8756906 Z M119.823098,29.8756906 L117.980752,29.8756906 L113.53865,22.0234807 L110.468072,25.7527624 L110.468072,29.8756906 L108.912313,29.8756906 L108.912313,15.1243094 L110.468072,15.1243094 L110.468072,23.5980663 L117.264284,15.1243094 L119.168042,15.1243094 L114.582646,20.8218232 L119.823098,29.8756906 Z M131,25.8149171 C131,28.4046961 128.993889,30 125.964253,30 C123.773908,30 122.340972,29.4406077 120.969447,28.0524862 L122.033914,26.9751381 C123.241674,28.1975138 124.367553,28.5911602 126.005194,28.5911602 C128.134128,28.5911602 129.444241,27.5759669 129.444241,25.8563536 C129.444241,25.089779 129.219065,24.4267956 128.748243,24.0124309 C128.277421,23.5980663 127.908952,23.4737569 126.844485,23.308011 L125.145432,23.038674 C123.999083,22.8522099 123.098381,22.4792818 122.463795,21.9198895 C121.726856,21.2569061 121.358387,20.3453039 121.358387,19.1643646 C121.358387,16.6574586 123.139322,15 126.025665,15 C127.888482,15 129.116712,15.4765193 130.365414,16.6160221 L129.362359,17.6312155 C128.461656,16.8024862 127.499542,16.3674033 125.964253,16.3674033 C124.019554,16.3674033 122.893676,17.4654696 122.893676,19.1022099 C122.893676,19.8273481 123.098381,20.4074586 123.548732,20.801105 C123.999083,21.1947514 124.756493,21.4848066 125.513902,21.609116 L127.110602,21.8577348 C128.482126,22.0649171 129.157654,22.3549724 129.771769,22.8936464 C130.570119,23.5773481 131,24.5925414 131,25.8149171 Z" id="FENIKS"></path>
            </g>
        </g>
    </g>
</svg>