<?xml version="1.0" encoding="UTF-8"?>
<svg width="128px" height="29px" viewBox="0 0 128 29" version="1.1" xmlns="http://www.w3.org/2000/svg" xmlns:xlink="http://www.w3.org/1999/xlink">
    <!-- Generator: Sketch 51.2 (57519) - http://www.bohemiancoding.com/sketch -->
    <title>finamo</title>
    <desc>Created with Sketch.</desc>
    <defs></defs>
    <g id="Page-1" stroke="none" stroke-width="1" fill="none" fill-rule="evenodd">
        <g id="Artboard-Copy-2" transform="translate(-806.000000, -350.000000)">
            <g id="finamo" transform="translate(806.000000, 350.000000)">
                <path d="M30.6621297,28 L30.6621297,13.1943298 C29.4542501,13.0505033 35.0697699,12.5986849 33.5750547,12.4206543 C35.1024217,11.3169369 29.7885143,10.7431151 31.0497808,9.83169018 C30.8757966,9.64181501 30.7018124,9.45193984 30.5278282,9.26206468 C30.6483063,8.43959459 30.7686652,7.61700364 30.9064226,6.67584647 C31.4926462,6.61186986 32.3821902,6.51473661 33.5750547,6.38444671 L37.2202626,9.61909284 C42.5299593,15.4574823 45.1848077,18.376677 45.1848077,18.376677 L45.1848077,6.63849992 L50,6.63849992 L50,27.986826 L46.0988208,27.986826 C42.9881973,24.4210163 39.7101437,20.6631559 36.431971,16.9052955 C36.2330808,16.9770879 36.0340715,17.0490012 35.8350621,17.1209144 L35.8350621,28 L30.6621297,28 Z" id="Fill-1" fill="#1DBC74"></path>
                <path d="M79,29 L79,7.03529525 L82.6523454,7.03529525 C85.0758813,10.7303597 87.5743757,14.5398851 90.3073276,18.7069613 C93.3328359,14.8514527 95.5287067,10.7707504 98.1761477,7 L102,7 L102,28.9896848 L96.8396309,28.9896848 L96.8396309,19.0942148 C96.6521134,19.0217601 96.4644746,18.9493054 96.2769572,18.876975 C94.8345524,21.0483784 93.3920264,23.2199061 91.909474,25.4518334 L88.9224153,25.4518334 C87.4912907,23.2898752 85.9912722,21.0238955 84.4912538,18.75804 C84.3124693,18.8046446 84.1335636,18.8512493 83.9549005,18.8977296 L83.9549005,29 L79,29 Z" id="Fill-3" fill="#1DBC74"></path>
                <path d="M116.464597,11.0373426 C113.127791,11.0921511 110.31288,14.1728053 110.397293,17.6774915 C110.482068,21.1949011 113.450874,24.1707096 116.74144,24.0365021 C119.970832,23.9047415 122.697476,20.9200021 122.689649,17.524933 C122.681581,14.0165766 119.770817,10.9830234 116.464597,11.0373426 M116.433288,6.07362447 C123.269105,6.27732128 127.873681,11.0241298 127.974351,17.4832149 C128.074419,23.9062096 122.973597,28.9841936 116.537209,28.9999755 C110.29,29.0152681 105.232047,24.0236564 105.101874,17.714683 C104.970257,11.3401351 110.01701,6.15534787 116.433288,6.07362447" id="Fill-5" fill="#1DBC74"></path>
                <path d="M67.2030761,20.3911426 C66.2347441,17.9266696 65.8474829,15.6761751 64.2658781,13.5485385 C63.3885472,15.9925559 62.6502821,18.0490316 61.809447,20.3911426 L67.2030761,20.3911426 Z M59.8847099,25.517207 C59.3706675,26.7362403 58.907433,27.8348952 58.4162899,29 L53,29 C56.0267678,21.5329404 58.9566904,14.3047781 61.9179803,7 L67.0881023,7 C69.9892815,14.1598528 72.949021,21.464135 76,28.9934294 L70.6374997,28.9934294 C70.1157049,27.8383665 69.6232499,26.7482658 69.0671061,25.517207 L59.8847099,25.517207 Z" id="Fill-8" fill="#1DBC74"></path>
                <path d="M0,7 L16,7 L16,11.4568708 L5.33464503,11.4568708 L5.33464503,16.5503664 L14.3613991,16.5503664 L14.3613991,21.2795255 L5.23614452,21.2795255 C5.11809148,23.9427017 5.00889241,26.4051135 4.89391366,29 L0,29 L0,7 Z" id="Fill-10" fill="#1DBC74"></path>
                <path d="M10,28 C14.6286628,23.4405754 18.894048,19.2389648 23.197445,15 L30,15 C25.4468797,19.509537 21.1468508,23.7684077 16.8742482,28 L10,28 Z" id="Fill-12" fill="#1DBC74"></path>
                <path d="M27,13 C31.6286628,8.44057544 35.894048,4.23896482 40.197445,0 L47,0 C42.4468797,4.50953704 38.1468508,8.76840772 33.8742482,13 L27,13 Z" id="Fill-12-Copy" fill="#5249C9"></path>
            </g>
        </g>
    </g>
</svg>