<?xml version="1.0" encoding="UTF-8"?>
<svg width="148px" height="38px" viewBox="0 0 148 38" version="1.1" xmlns="http://www.w3.org/2000/svg" xmlns:xlink="http://www.w3.org/1999/xlink">
    <!-- Generator: Sketch 51.2 (57519) - http://www.bohemiancoding.com/sketch -->
    <title>globalsky</title>
    <desc>Created with Sketch.</desc>
    <defs></defs>
    <g id="Page-1" stroke="none" stroke-width="1" fill="none" fill-rule="evenodd">
        <g id="Artboard-Copy-2" transform="translate(-577.000000, -566.000000)" fill="#2D98F0">
            <g id="globalsky" transform="translate(577.000000, 566.000000)">
                <path d="M13.0909094,35.0769231 L14.723603,24.968768 L13.0909094,21.9230771 L10.1818184,20.4615382 L13.0909094,35.0769231 Z M19.3361884,35.0462696 L21.8181816,20.4615382 L18.9090906,21.9230771 L17.184877,24.846154 L19.3361884,35.0462696 Z M24.5731885,12.0716263 C24.5428862,12.0107288 22.4848475,11.9054485 22.4545453,11.8749999 C22.3030293,11.7532051 21.5757566,11.6923076 20.272727,11.6923076 C19.2121225,11.6923076 17.9469702,11.8369389 16.4772731,12.1262018 C16.3712124,12.1566504 16.2121215,12.1718749 16.0000003,12.1718749 C15.7878792,12.1718749 15.6287883,12.1566504 15.5227276,12.1262018 C14.0530305,11.8369389 12.7878791,11.6923076 11.727273,11.6923076 C10.4242427,11.6923076 9.69696998,11.7532051 9.54545475,11.8749999 C9.51515179,11.9054485 7.48664561,11.9817753 7.45634243,12.0426726 C7.48664561,12.316711 7.46356152,12.3536453 7.49386448,12.4906645 C7.52416743,12.5363376 9.49529475,12.4402122 9.57862816,12.4934974 C9.66196157,12.5467828 9.85606089,12.9102562 9.88636385,13.0168268 C9.9166668,13.0777243 9.97348499,13.2337739 10.0568184,13.4849758 C10.1401518,13.7361777 10.193182,13.8922273 10.2159093,13.9531248 C10.2386366,14.0140224 10.2954548,14.1434293 10.3863639,14.341346 C10.477273,14.5392627 10.5416668,14.6686696 10.5795457,14.7295671 C10.6174245,14.7904647 10.6856064,14.897035 10.7840911,15.0492787 C10.8825759,15.2015223 10.973485,15.3042868 11.0568184,15.3575719 C11.1401518,15.4108571 11.2462123,15.4831729 11.3750002,15.5745191 C11.5037882,15.6658652 11.6363639,15.7267627 11.7727275,15.7572114 C11.9090912,15.78766 12.0643941,15.8181089 12.2386366,15.8485575 C12.4128791,15.8790062 12.598485,15.8942306 12.7954548,15.8942306 C13.3409094,15.8942306 13.9388805,15.8966175 14.2873655,15.7063131 C14.6358503,15.5160084 14.8820624,15.287643 15.0260019,15.0212169 C15.1699412,14.7547906 15.2474324,14.4488195 15.3231899,14.1900055 C15.3989474,13.9311915 15.4752828,13.1755859 15.5737676,12.9852813 C15.6722526,12.7949769 15.6777794,12.6065302 15.9714949,12.6998246 L16.3844378,12.6896251 C16.5510542,12.6855097 16.5434647,12.7949769 16.6419494,12.9852813 C16.7404344,13.1755859 16.7089115,13.6060611 16.784669,13.8648751 C16.8604267,14.1236894 16.981061,14.6572514 17.1250004,14.9236777 C17.2689397,15.1901041 17.515152,15.4184695 17.8636367,15.6087739 C18.2121215,15.7990783 18.6590906,15.8942306 19.2045452,15.8942306 C19.4015156,15.8942306 19.5871202,15.8790062 19.7613634,15.8485575 C19.9356066,15.8181089 20.0909088,15.78766 20.2272725,15.7572114 C20.3636361,15.7267627 20.4962111,15.6658652 20.6249998,15.5745191 C20.7537884,15.4831729 20.8598475,15.4108571 20.9431816,15.3575719 C21.0265157,15.3042868 21.1174248,15.2015223 21.2159089,15.0492787 C21.314393,14.897035 21.3825748,14.7904647 21.4204543,14.7295671 C21.4583339,14.6686696 21.522727,14.5392627 21.6136361,14.341346 C21.7045452,14.1434293 21.7613634,14.0140224 21.7840907,13.9531248 C21.806818,13.8922273 21.8598475,13.7361777 21.9431816,13.4849758 C22.0265157,13.2337739 22.0833339,13.0777243 22.1136362,13.0168268 C22.1439384,12.9102562 22.287043,12.570224 22.3703771,12.5169388 C22.4537112,12.4636537 24.4829817,12.5716399 24.5132839,12.5259668 C24.5435885,12.3889476 24.5428862,12.3456648 24.5731885,12.0716263 Z M32,32.0853366 C32,33.9274848 31.4469704,35.3737981 30.3409091,36.4242789 C29.2348477,37.4747596 27.7651522,38 25.9318181,38 L6.06818195,38 C4.2348485,38 2.76515165,37.4747596 1.65909094,36.4242789 C0.553030239,35.3737981 0,33.9274848 0,32.0853366 C0,31.15665 0.0340909098,30.2584136 0.102272729,29.3906251 C0.170454549,28.5228367 0.434696373,27.5859289 0.53409092,26.5246396 C0.631760241,25.4817702 0.488754329,24.8482024 0.593183876,23.7656341 C0.680327287,22.8622594 1.05664616,22.079126 1.67028254,21.3407449 C2.28391891,20.6023636 4.15151532,20.0352561 4.95454556,19.6394229 L2.90909097,14.6153845 L7.77272744,14.6153845 C7.43939402,13.6410254 7.27272743,12.6666666 7.27272743,11.6923076 C7.27272743,11.5096153 7.28787902,11.2660254 7.31818197,10.9615383 C4.37878805,10.3525639 1.01078593,9.79519756 1.01078593,8.94263354 C1.01078593,8.07484509 4.5000001,7.14783647 7.68181835,6.5084134 C7.93939403,5.56450323 8.32954563,4.54447112 8.85227292,3.44831729 C9.3750002,2.35216345 9.90909112,1.484375 10.4545457,0.844951935 C10.9393941,0.28165063 11.5151518,0 12.1818184,0 C12.6363639,0 13.2727276,0.235977554 14.0909094,0.707932683 C14.9090912,1.1798879 15.6317415,1.58926825 16.0862869,1.58926825 C16.5408324,1.58926825 17.0909095,1.1798879 17.9090913,0.707932683 C18.7272724,0.235977554 19.3636361,0 19.8181816,0 C20.4848475,0 21.0606066,0.28165063 21.5454543,0.844951935 C22.0909089,1.484375 22.6249998,2.35216345 23.1477271,3.44831729 C23.6704544,4.54447112 24.0606066,5.56450323 24.3181817,6.5084134 C27.4999999,7.14783647 31.3343613,7.72803937 31.3343613,8.59582782 C31.3343613,9.44839184 27.6212113,10.3525639 24.681818,10.9615383 C24.7878794,12.1947114 24.6363635,13.41266 24.2272726,14.6153845 L29.090909,14.6153845 L26.3730794,20.0601413 C27.9987772,20.133395 30.0334454,20.9292778 30.7076886,21.896025 C31.3819318,22.862771 31.6997091,23.7318748 31.7692295,24.9891473 C31.8433568,26.3297092 31.6969704,27.6055683 31.8181818,28.6941107 C31.9393932,29.7826531 32,30.9130617 32,32.0853366 Z" id="path2" fill-rule="nonzero"></path>
                <path d="M57.984,17.528 L57.984,24.032 C56.928,24.584 55.008,25.232 52.8,25.232 C48.096,25.232 45,21.944 45,17.312 C45,12.464 48.264,9.056 53.16,9.056 C55.008,9.056 56.544,9.512 57.48,9.896 L57.48,11.576 C56.352,11 54.96,10.568 53.256,10.568 C49.176,10.568 46.872,13.28 46.872,17.12 C46.872,21.176 49.272,23.696 53.016,23.696 C54.336,23.696 55.512,23.408 56.232,23.048 L56.232,17.528 L57.984,17.528 Z M61.512,22.928 L61.512,8 L63.264,8 L63.264,22.376 C63.264,23.312 63.552,23.576 64.152,23.576 C64.344,23.576 64.68,23.48 64.848,23.408 L65.232,24.8 C64.776,25.016 64.176,25.136 63.648,25.136 C62.208,25.136 61.512,24.296 61.512,22.928 Z M71.856,25.232 C68.688,25.232 66.624,22.616 66.624,19.304 C66.624,15.968 68.664,13.352 71.88,13.352 C75.024,13.352 77.112,15.968 77.112,19.304 C77.112,22.616 75.048,25.232 71.856,25.232 Z M71.856,23.72 C73.944,23.72 75.264,21.896 75.264,19.304 C75.264,16.688 73.944,14.864 71.88,14.864 C69.768,14.864 68.448,16.688 68.448,19.304 C68.448,21.896 69.768,23.72 71.856,23.72 Z M82.872,25.232 C81.456,25.232 80.352,24.896 79.704,24.536 L79.704,8 L81.456,8 L81.456,13.88 C82.2,13.592 82.944,13.352 84.024,13.352 C86.856,13.352 89.112,15.296 89.112,18.992 C89.112,22.952 86.472,25.232 82.872,25.232 Z M83.112,23.72 C85.584,23.72 87.288,21.92 87.288,19.064 C87.288,16.592 86.088,14.864 83.784,14.864 C82.56,14.864 81.864,15.296 81.456,15.464 L81.456,23.408 C82.056,23.624 82.632,23.72 83.112,23.72 Z M98.304,24.992 L97.968,23.72 C97.08,24.56 95.976,25.232 94.56,25.232 C92.496,25.232 90.96,23.912 90.96,21.728 C90.96,20.216 91.728,19.184 92.88,18.656 C93.648,18.272 94.56,18.152 95.712,18.104 L97.872,18.032 L97.872,17.312 C97.872,15.584 96.84,14.816 95.424,14.816 C94.056,14.816 93.096,15.272 92.304,15.752 L91.632,14.504 C92.952,13.664 94.368,13.352 95.616,13.352 C97.968,13.352 99.648,14.504 99.648,17.216 L99.648,21.128 C99.648,23.36 99.72,24.416 99.864,24.992 L98.304,24.992 Z M97.872,19.376 L95.88,19.448 C94.896,19.472 94.248,19.616 93.744,19.88 C93.096,20.24 92.76,20.888 92.76,21.632 C92.76,22.88 93.576,23.744 94.872,23.744 C96.288,23.744 97.344,22.808 97.872,22.256 L97.872,19.376 Z M102.768,22.928 L102.768,8 L104.52,8 L104.52,22.376 C104.52,23.312 104.808,23.576 105.408,23.576 C105.6,23.576 105.936,23.48 106.104,23.408 L106.488,24.8 C106.032,25.016 105.432,25.136 104.904,25.136 C103.464,25.136 102.768,24.296 102.768,22.928 Z M113.616,24.032 L114.36,22.64 C115.128,23.144 116.328,23.696 117.792,23.696 C119.496,23.696 120.984,23 120.984,21.128 C120.984,17.336 114.024,17.792 114.024,13.064 C114.024,10.832 115.728,9.056 118.68,9.056 C120.12,9.056 121.392,9.416 122.112,9.776 L122.112,11.432 C121.128,10.88 119.928,10.568 118.728,10.568 C117.312,10.568 115.872,11.192 115.872,12.896 C115.872,16.472 122.832,16.088 122.832,21.008 C122.832,23.648 120.792,25.232 117.768,25.232 C115.968,25.232 114.552,24.68 113.616,24.032 Z M125.688,30.68 L125.688,14.048 C126.888,13.592 128.208,13.352 129.432,13.352 C133.032,13.352 135.192,15.512 135.192,19.256 C135.192,22.952 132.744,25.232 129.456,25.232 C128.736,25.232 128.016,25.064 127.464,24.824 L127.464,30.68 L125.688,30.68 Z M127.464,23.24 C128.112,23.552 128.664,23.72 129.408,23.72 C131.976,23.72 133.368,21.92 133.368,19.208 C133.368,16.208 131.64,14.864 129.384,14.864 C128.688,14.864 128.088,14.96 127.464,15.152 L127.464,23.24 Z M147.096,13.64 L142.848,25.88 C141.384,30.056 139.656,30.68 137.808,30.68 C136.968,30.68 136.368,30.536 135.792,30.296 L136.224,28.832 C136.656,29.024 137.184,29.168 137.784,29.168 C139.272,29.168 140.496,28.088 141.384,25.064 L136.392,13.64 L138.312,13.64 L142.176,22.832 L142.224,22.832 L145.248,13.64 L147.096,13.64 Z" id="Global-Spy"></path>
            </g>
        </g>
    </g>
</svg>