<?xml version="1.0" encoding="UTF-8"?>
<svg width="56px" height="56px" viewBox="0 0 56 56" version="1.1" xmlns="http://www.w3.org/2000/svg" xmlns:xlink="http://www.w3.org/1999/xlink">
    <!-- Generator: Sketch 51.2 (57519) - http://www.bohemiancoding.com/sketch -->
    <title>Fill 1</title>
    <desc>Created with Sketch.</desc>
    <defs></defs>
    <g id="Page-1" stroke="none" stroke-width="1" fill="none" fill-rule="evenodd">
        <g id="Artboard-Copy-2" transform="translate(-1057.000000, -223.000000)">
            <g id="Fill-1" transform="translate(1057.000000, 223.000000)">
                <path d="M28,0 C12.5359965,0 0,12.5361057 0,27.9999296 C0,43.4638943 12.5359965,56 28,56 C43.4640035,56 56,43.4638943 56,27.9999296 C56,12.5361057 43.4640035,0 28,0" fill="#9AD2ED"></path>
                <path d="M27.4935164,38.0929864 C26.4732313,38.4929372 25.5416055,38.8240716 24.6405179,39.2237409 C24.0974448,39.4646683 23.8217567,39.2160008 23.573933,38.8123912 C22.5097405,37.0794589 21.7810458,35.2055166 21.369695,33.222791 C20.6173579,29.5963551 20.7098169,26.0032719 22.0242255,22.5013809 C22.6603205,20.8068676 23.6112262,19.2967087 24.855411,17.9721709 C25.1569932,17.6510282 25.4523833,17.5540662 25.8355883,17.7866906 C26.6585714,18.2862772 27.4818359,18.7851602 28.3971372,19.3403346 C25.6589735,21.9622495 24.9482922,25.1546783 24.844012,28.5500378 C24.7405762,31.9149999 25.3046179,35.1199536 27.4935164,38.0929864" id="Path" fill="#0E0D0C"></path>
                <path d="M36.8265214,43.7853185 C33.7237289,44.3203687 30.6518968,44.0018998 27.745562,42.6328918 C27.4992863,42.5169314 27.1357834,42.5453586 26.8567178,42.6192411 C23.0999578,43.6143332 19.4122957,43.4862702 15.9237651,41.7021127 C12.9767596,40.1947684 11.3752639,37.5500554 10.3272552,34.5017327 C9.41603506,31.8519535 9.17172956,29.1183 9.37620876,26.3642409 C9.61882552,23.0993368 10.6624716,20.0823966 12.8895076,17.6038841 C14.7040671,15.5842876 17.0311614,14.3803543 19.677992,13.8682428 C22.9098329,13.2431263 26.0727167,13.3913135 29.0439275,15.024047 C29.2185722,15.1200239 29.4880682,15.0990554 29.7008504,15.0614808 C31.0916749,14.8154872 32.4718039,14.3796506 33.868539,14.3206853 C39.3130617,14.0905941 43.9148992,16.6652242 45.6676786,22.270023 C45.6948393,22.3569933 45.7311473,22.4410083 45.7975714,22.6181857 C44.5628154,22.9075237 43.338614,23.1943286 42.1218713,23.4794448 C40.3461531,18.198744 36.5466114,16.9164248 32.3102471,17.7340581 C32.9521119,19.0353757 33.602702,20.354425 34.3128204,21.794501 C32.9568967,22.1267613 31.7795581,22.415255 30.5274924,22.7220434 C30.3705796,22.3402466 30.2077562,21.9440956 30.0449328,21.5478038 C28.9887618,18.9764104 27.2088217,17.2006966 24.3777769,16.8521118 C19.7124706,16.2776576 15.4205183,17.9300931 13.9228805,23.2710257 C12.833779,27.1548543 12.8996401,30.9966049 14.4144468,34.7654582 C15.6507509,37.8413637 18.0211898,39.4248421 21.2372691,39.8992383 C23.3687501,40.213626 25.3815967,39.9066969 27.1787057,38.7143033 C29.0895237,37.4461977 30.1122012,35.5325699 30.7315494,33.3764667 C30.7941738,33.1586187 30.8583462,32.941193 30.9265998,32.7071613 C32.1985083,33.0305557 33.4197543,33.341003 34.6532438,33.6545464 C33.9915362,36.18541 32.9125671,38.4076556 31.0631069,40.2175665 C35.1662009,41.6898693 40.9168091,40.4911429 42.4976177,33.492427 C43.7396916,33.8024522 44.9802175,34.1120552 46.2207435,34.4216581 C45.057337,39.3865639 42.0129471,42.8909881 36.8265214,43.7853185" id="Path" fill="#0E0D0C"></path>
            </g>
        </g>
    </g>
</svg>