<?xml version="1.0" encoding="UTF-8"?>
<svg width="88px" height="41px" viewBox="0 0 88 41" version="1.1" xmlns="http://www.w3.org/2000/svg" xmlns:xlink="http://www.w3.org/1999/xlink">
    <!-- Generator: Sketch 51.2 (57519) - http://www.bohemiancoding.com/sketch -->
    <title>Group</title>
    <desc>Created with Sketch.</desc>
    <defs></defs>
    <g id="Page-1" stroke="none" stroke-width="1" fill="none" fill-rule="evenodd">
        <g id="Artboard-Copy-2" transform="translate(-607.000000, -231.000000)">
            <g id="Group" transform="translate(607.000000, 231.000000)">
                <path d="M0.254527394,7.91113418 C0.777982601,5.62927554 0.866545174,3.62902222 1.3871203,1.55994857 C1.77017143,0.0373454759 1.9930179,-0.177671526 3.47482095,0.108025805 C5.82784931,0.561495919 8.17331745,1.05811823 10.5303059,1.49001225 C11.5826165,1.68270914 12.1755537,2.1246472 11.9537873,3.3470449 C11.5012541,5.83945652 11.0901222,8.33930817 10.6509094,10.8339518 C10.4964649,11.7111319 9.98597011,12.1300058 9.11438479,11.9644651 C6.06401617,11.3848864 2.97080631,11.0184647 0,10.0363801 C0,9.29237661 0.254527394,8.65513764 0.254527394,7.91113418" id="Fill-1" fill="#FDB72E"></path>
                <path d="M66.5454958,41 C64.9696393,40.3265955 63.9478325,39.2959197 64.0881967,37.4180218 C64.1411574,36.7127446 64.0226441,36.0534234 65.0940783,36.1086448 C65.9018205,36.1501535 66.5825312,36.0997501 66.4529073,37.2575462 C66.3388382,38.2745093 66.6140113,39.1246964 67.8880292,39.1169135 C68.5231864,39.1132074 69.2172299,39.0053589 69.4483308,38.3586385 C69.7694277,37.4606424 69.7357255,36.529291 68.9783515,35.7854699 C67.9995058,34.8244695 66.7414131,34.2663258 65.6403505,33.4824785 C64.2644852,32.503318 63.7256201,31.0204939 64.1322689,29.4442753 C64.4333667,28.2775844 65.1025964,27.5508116 66.3266166,27.2146653 C67.6454473,26.8522054 68.9046511,26.9841437 70.1505221,27.3469742 C71.4715749,27.7313003 72.3211671,29.842314 71.6656404,31.0356891 C71.3275072,31.6505366 70.6675363,31.2910417 70.1538552,31.3640525 C69.6257304,31.4396576 69.3601865,31.2102479 69.3779635,30.6406152 C69.4020365,29.8856758 69.3990737,29.0506839 68.479855,28.8372106 C67.7798858,28.6748819 66.9399229,28.5696277 66.5180896,29.4101788 C66.1218108,30.1988441 66.1673643,31.0267943 66.9310344,31.5682605 C67.8309947,32.2064567 68.8202103,32.7167913 69.7609096,33.2982836 C71.7682285,34.5394678 72.4985667,36.89731 71.6549002,39.0401965 C71.1193682,40.4003476 69.7731313,40.4151721 68.7676201,41 L66.5454958,41 Z" id="Fill-3" fill="#000000"></path>
                <path d="M82.8717866,41 C80.5782935,40.0744863 79.9599974,38.1572185 80.0291371,35.8628622 C80.0903546,33.8386478 79.7943503,31.7985209 80.3168591,29.7939196 C80.8905024,27.5950381 82.6704893,26.5958829 85.0846168,27.1505991 C87.2387502,27.645736 88.2679233,29.2795397 87.9402299,31.5176473 C87.8466033,32.1563665 87.5192701,32.2107649 87.0957895,32.1312026 C86.6402597,32.0457193 85.942381,32.513842 85.7954592,31.6142323 C85.7659308,31.4340143 85.7932986,31.2449149 85.7803349,31.0609964 C85.6665425,29.448656 85.1735621,28.8547137 83.9942263,28.9035613 C82.8541416,28.9505586 82.226843,29.693264 82.1908327,31.2027284 C82.1469002,33.0500553 82.1487007,34.9003427 82.1901125,36.7476696 C82.2228818,38.2097667 82.9027554,39.0601587 83.9603766,39.1141871 C85.0381635,39.1696957 85.7428842,38.4173689 85.745765,36.8760795 C85.7475655,35.8673028 86.0878624,35.649709 86.9870385,35.6208446 C88.073828,35.5860592 87.9063803,36.2680751 87.9222248,36.9419497 C87.9773205,39.2640604 86.6744695,40.4245606 84.6722993,41 L82.8717866,41 Z" id="Fill-5" fill="#000000"></path>
                <path d="M31.9916466,8.73648423 C32.0476235,9.20572381 31.8123067,9.63128801 31.5834075,10.0503551 C30.0360208,12.885645 28.501826,15.7292368 26.9187852,18.5443133 C26.0245811,20.1353965 25.2715671,20.3671286 23.7134841,19.5073373 C20.5916135,17.7852281 17.4886396,16.0270235 14.4006404,14.2435521 C12.9003171,13.3769027 12.6414685,12.4853475 13.4511725,10.959236 C14.9932111,8.05283826 16.563773,5.16087864 18.1753371,2.29382481 C18.9479608,0.919674756 19.79011,0.664119662 21.1513825,1.41309822 C24.3784326,3.18971146 27.5723244,5.0284087 30.773347,6.85375066 C31.4732364,7.25296525 32.0130391,7.79186886 31.9916466,8.73648423" id="Fill-7" fill="#FDB72E"></path>
                <path d="M57.1624771,39.0996746 C58.5400238,39.0996746 59.7198004,39.1183371 60.8985506,39.0912955 C61.4422469,39.0787269 61.7505354,39.2055559 61.7217938,39.9189214 C61.6964738,40.5465916 61.6817608,41.0184869 60.9211333,40.9994435 C59.211689,40.9571672 57.500876,40.9636419 55.7910894,40.9983009 C55.16938,41.0112504 55.0376474,40.6947492 55.0061684,40.0880267 C54.9613451,39.2181245 55.1594573,38.4701 55.6446438,37.7944404 C56.7464074,36.2603046 57.8368796,34.7166472 58.9365902,33.1806071 C59.3639513,32.584168 59.7848113,31.981635 59.9192812,31.2115202 C60.1437399,29.923425 59.7088512,29.0603785 58.7624295,28.8699445 C57.7503125,28.6665611 57.0786473,29.2706175 57.0495635,30.7902803 C57.0262964,32.0159131 56.5024455,32.1019893 55.6655158,32.0505721 C55.1163448,32.016294 55.041069,31.6982693 55.0167755,31.1875255 C54.9339721,29.4195369 55.5909243,27.9223453 56.7467496,27.3453304 C58.0856318,26.6765265 60.0828349,27.0113093 61.0833184,28.0720263 C62.0519807,29.099227 62.2706226,30.8436018 61.6547299,32.4851423 C61.3423355,33.3188621 60.8273808,33.9888087 60.3220066,34.6758943 C59.293808,36.0755837 58.1198481,37.3530145 57.1624771,39.0996746" id="Fill-9" fill="#000000"></path>
                <path d="M73.0185262,33.405463 C73.0185262,31.6063244 73.0557366,29.8061037 73.0014094,28.0087685 C72.9775947,27.2134395 73.2525799,26.9685287 74.0555815,27.0031553 C75.3519937,27.0597842 76.6539875,27.0410281 77.9522602,27.0100085 C78.6495841,26.9930559 78.9353604,27.2134395 78.9372209,27.9315801 C78.9390814,28.6782154 78.5907916,28.870465 77.9221197,28.8185252 C77.6761586,28.7994084 77.4275928,28.8141968 77.1801433,28.8160003 C75.2239897,28.8275425 75.2239897,28.8275425 75.2277108,30.7132476 C75.2306876,32.3659447 75.2310597,32.3580094 77.3732655,32.4279839 C77.9258408,32.4456579 78.6138621,32.1628743 78.6402815,33.2049175 C78.6667009,34.2440752 78.0787757,34.2209908 77.3527998,34.1888891 C76.9825558,34.1726579 76.605986,34.2242371 76.2405793,34.1791504 C75.402972,34.0752707 75.1175678,34.4431779 75.2265945,35.2013555 C75.2351529,35.2605092 75.2288271,35.3214664 75.2277108,35.3813415 C75.1473362,38.0602113 75.1469641,38.0645396 77.9090961,38.1868147 C78.4609271,38.2109811 79.0138744,38.0793281 78.9997345,38.9608627 C78.987455,39.7230079 78.7801928,40.0317614 77.9526323,39.9960528 C76.655848,39.940506 75.3527379,39.9387025 74.0563257,39.9967741 C73.2429052,40.0332042 72.982432,39.765209 73.0028978,38.9821436 C73.0512714,37.1245726 73.0185262,35.2644768 73.0185262,33.405463" id="Fill-11" fill="#000000"></path>
                <path d="M53.9598995,37.9461065 C53.9609833,28.9970577 53.9165476,20.048009 53.866693,11.0989602 C53.8540487,8.79409297 53.0776889,8.02024733 50.7981028,8.01135681 C46.4036678,7.99431665 42.0088715,7.99913234 37.6144364,8.0083933 C35.0982214,8.01394988 34.2846512,8.85114047 34.2759808,11.4468017 C34.2644203,15.2123072 34.2774259,18.9778127 34.2709231,22.7433181 C34.268033,24.4536318 34.2579175,24.4665972 32.6206617,24.4688198 C27.683967,24.4758581 22.7476336,24.449557 17.8113001,24.4821556 C15.5992707,24.4969731 15.0255809,25.1167164 15.0158267,27.3504594 C14.9995698,31.0544721 15.0288323,34.7581144 15.0002923,38.4617567 C14.9927057,39.4286007 15.1292641,40.297649 15.8257842,41 L54,41 C54,41 53.9598995,38.363961 53.9598995,37.9461065 Z" id="Fill-13" fill="#FDB72E"></path>
                <polygon id="Path" fill="#FFFFFF" points="50.7796782 29.1404174 53.0101322 29.1404174 53.0101322 27.3067477 50.7796782 27.3067477"></polygon>
                <polygon id="Path" fill="#FFFFFF" points="50.7796782 40.6369705 53.0101322 40.6369705 53.0101322 29.7842392 50.7796782 29.7842392"></polygon>
            </g>
        </g>
    </g>
</svg>