<?xml version="1.0" encoding="UTF-8"?>
<svg width="165px" height="21px" viewBox="0 0 165 21" version="1.1" xmlns="http://www.w3.org/2000/svg" xmlns:xlink="http://www.w3.org/1999/xlink">
    <!-- Generator: Sketch 51.2 (57519) - http://www.bohemiancoding.com/sketch -->
    <title>IZIChain</title>
    <desc>Created with Sketch.</desc>
    <defs></defs>
    <g id="Page-1" stroke="none" stroke-width="1" fill="none" fill-rule="evenodd">
        <g id="Artboard-Copy-2" transform="translate(-93.000000, -842.000000)" fill-rule="nonzero">
            <g id="IZIChain" transform="translate(93.000000, 843.000000)">
                <g id="Group" transform="translate(0.000000, 1.000000)">
                    <polygon id="Shape" fill="#C94646" points="39.0095238 0 28.5460317 17.8 49.4222222 17.8"></polygon>
                    <polygon id="Shape" fill="#334C5A" points="24.7873016 17.8 35.2507937 0 14.3746032 0"></polygon>
                    <polygon id="Shape" fill="#E2B061" points="15.4920635 8.6 10.4634921 0 5.38412698 8.6"></polygon>
                    <polygon id="Shape" fill="#E2B061" points="17.015873 11.25 3.86031746 11.25 0 17.8 20.8761905 17.8"></polygon>
                    <polygon id="Shape" fill="#7CB4A1" points="48.0507937 9.15 53.0793651 17.8 58.1587302 9.15"></polygon>
                    <polygon id="Shape" fill="#7CB4A1" points="46.4761905 6.55 59.6825397 6.55 63.5428571 0 42.6666667 0"></polygon>
                </g>
                <path d="M80.4890625,1.68108108 L80.0981422,0.869341856 L79.4508211,1.68108108 L80.4890625,1.68108108 Z M66.9546875,1.68108108 L66.9546875,-0.140540541 L82.05,-0.140540541 L82.05,1.30415853 L69.4503457,17.1648649 L81.9489583,17.1648649 L81.9489583,18.9864865 L66.803125,18.9864865 L66.803125,17.5412627 L79.4508211,1.68108108 L66.9546875,1.68108108 Z M67.6330659,0.859459459 L67.9546875,0.859459459 L67.9546875,0.681081081 L67.6330659,0.681081081 L67.5438767,0.77027027 L67.6330659,0.859459459 Z M81.3850561,0.859459459 L81.4582345,0.767693964 L81.3716216,0.681081081 L81.05,0.681081081 L81.05,0.859459459 L81.3850561,0.859459459 Z M81.05,1.12972973 L81.1584973,0.818722246 L81.05,0.95530093 L81.05,1.12972973 Z M67.4242794,18.1076409 L67.4815034,18.1648649 L67.803125,18.1648649 L67.803125,17.9864865 L67.5205237,17.9864865 L67.4242794,18.1076409 Z M81.27058,18.1648649 L81.3597691,18.0756757 L81.27058,17.9864865 L80.9489583,17.9864865 L80.9489583,18.1648649 L81.27058,18.1648649 Z M67.803125,17.7162162 L67.6940453,18.0279554 L67.803125,17.8911697 L67.803125,17.7162162 Z" id="Shape" fill="#13848C"></path>
                <path d="M85.1822917,0.859459459 L85.1822917,0.500605293 L85.1117187,0.430032376 L85.0411458,0.500605293 L85.0411458,0.859459459 L85.1822917,0.859459459 Z M85.0411458,18.3453407 L85.1117188,18.4159136 L85.1822917,18.3453407 L85.1822917,17.9864865 L85.0411458,17.9864865 L85.0411458,18.3453407 Z M86.0411458,-0.140540541 L86.0411458,18.9864865 L84.1822917,18.9864865 L84.1822917,-0.140540541 L86.0411458,-0.140540541 Z" id="Rectangle-path" fill="#13848C"></path>
                <path d="M102.210243,15.4142055 C102.60822,15.0534678 102.975651,14.5668233 103.401969,13.8626675 L103.622877,13.4977914 L105.257942,14.1625691 L105.042764,14.6364533 C104.707093,15.3756973 104.265748,16.0345784 103.731424,16.5776864 C103.143541,17.1752335 102.553721,17.6415238 101.897346,18.0007668 C101.07867,18.4488392 100.429305,18.7228178 99.7428677,18.8723296 C98.9399159,19.0472193 98.2185362,19.1405405 97.5651042,19.1405405 C96.2434279,19.1405405 95.0541398,18.8520676 93.986746,18.2553501 C92.9443775,17.6726229 92.036984,16.9240812 91.226066,15.9899326 C90.4344817,15.0780557 89.8441477,14.0513231 89.4177408,12.8592598 C88.9924055,11.7244004 88.7796875,10.5352183 88.7796875,9.29459459 C88.7796875,8.19639605 88.9772983,7.07158356 89.3701477,5.87636182 C89.8006999,4.78228636 90.387045,3.76640446 91.1141122,2.86902359 C91.893778,1.90672294 92.8184399,1.15755723 93.8947071,0.637034735 C95.0198403,0.0379907686 96.2583375,-0.243243243 97.7166667,-0.243243243 C99.3388465,-0.243243243 100.805603,0.174757196 102.02989,0.96665662 C103.218017,1.7351672 104.089883,2.73043644 104.686274,3.9979354 L104.898487,4.44894773 L103.258135,5.22702945 L103.03421,4.80433184 C102.690876,4.15623003 102.363134,3.68984738 101.957639,3.2776864 C101.557078,2.87054101 101.100506,2.53735723 100.622425,2.29438713 C100.130889,2.04457899 99.6227672,1.86441317 99.1414268,1.77545804 C98.6155433,1.67827103 98.0902248,1.62972973 97.5651042,1.62972973 C96.4577531,1.62972973 95.4696338,1.8569071 94.5991957,2.2991513 C93.7757269,2.69562778 93.0683383,3.27548057 92.3983689,4.06084355 C91.7462188,4.87668473 91.2912158,5.69492349 91.012782,6.589303 C90.6891857,7.4820749 90.5375,8.39529056 90.5375,9.3972973 C90.5375,10.4988993 90.7025467,11.4934758 91.0551642,12.3897278 C91.4428092,13.3255196 91.973156,14.2030677 92.5781845,14.9131746 C93.2452898,15.6396803 94.0057003,16.2193635 94.8517999,16.6494973 C95.7290956,17.0718899 96.61239,17.2675676 97.615625,17.2675676 C98.1821441,17.2675676 98.686724,17.2105815 99.210192,17.0775631 C99.807173,16.9258644 100.315602,16.7306336 100.808599,16.4573056 C101.359482,16.1518847 101.814073,15.8168878 102.210243,15.4142055 Z M104.219715,14.4425351 L104.202304,14.3988429 L104.019047,14.4595959 C103.979909,14.5373221 103.939413,14.6138016 103.897588,14.6889744 L104.031063,14.7432421 C104.093199,14.6469278 104.156005,14.5467615 104.219715,14.4425351 Z M103.704517,4.26541918 L103.823943,4.30504366 L103.85484,4.21881274 C103.798244,4.11484329 103.741603,4.01468555 103.684606,3.91794221 L103.552834,3.98044687 C103.605315,4.07348794 103.655863,4.16846369 103.704517,4.26541918 Z M102.923091,16.1155242 L102.901866,16.1358653 C102.905535,16.1325507 102.909201,16.1292274 102.912864,16.1258952 C102.916276,16.1224426 102.919685,16.1189856 102.923091,16.1155242 Z" id="Shape" fill="#13848C"></path>
                <path d="M120.102604,8.33243243 L120.102604,-0.140540541 L121.961458,-0.140540541 L121.961458,18.9864865 L120.102604,18.9864865 L120.102604,10.1540541 L109.230208,10.1540541 L109.230208,18.9864865 L107.371354,18.9864865 L107.371354,-0.140540541 L109.230208,-0.140540541 L109.230208,8.33243243 L120.102604,8.33243243 Z M121.102604,9.33243243 L121.102604,9.15405405 L120.961458,9.15405405 L120.961458,9.33243243 L121.102604,9.33243243 Z M121.102604,0.500605293 L121.032031,0.430032376 L120.961458,0.500605293 L120.961458,0.859459459 L121.102604,0.859459459 L121.102604,0.500605293 Z M120.961458,18.3453407 L121.032031,18.4159136 L121.102604,18.3453407 L121.102604,17.9864865 L120.961458,17.9864865 L120.961458,18.3453407 Z M108.230208,9.15405405 L108.230208,9.33243243 L108.371354,9.33243243 L108.371354,9.15405405 L108.230208,9.15405405 Z M108.230208,18.3453407 L108.300781,18.4159136 L108.371354,18.3453407 L108.371354,17.9864865 L108.230208,17.9864865 L108.230208,18.3453407 Z M108.371354,0.500605293 L108.300781,0.430032376 L108.230208,0.500605293 L108.230208,0.859459459 L108.371354,0.859459459 L108.371354,0.500605293 Z" id="Shape" fill="#13848C"></path>
                <path d="M125.532513,18.9864865 L123.483335,18.9864865 L131.63944,-0.140540541 L133.06051,-0.140540541 L141.056692,18.9864865 L139.063841,18.9864865 L136.436757,12.7216216 L128.159597,12.7216216 L125.532513,18.9864865 Z M132.302735,0.639482517 L132.347889,0.747490564 L132.394668,0.637786843 L132.350157,0.608150729 L132.302735,0.639482517 Z M132.300143,0.859459459 L127.668324,11.7216216 L136.935698,11.7216216 L132.394698,0.859459459 L132.300143,0.859459459 Z M139.615768,18.1324022 L139.857454,18.2931305 L139.728868,17.9864865 L139.554766,17.9864865 L139.615768,18.1324022 Z M124.7389,18.2931305 L124.916471,18.1750412 L124.996874,17.9864865 L124.867487,17.9864865 L124.7389,18.2931305 Z M135.815739,10.9513514 L132.371199,2.72572152 L128.885158,10.9513514 L135.815739,10.9513514 Z M132.376718,0.149954151 L137.318636,11.9513514 L127.375258,11.9513514 L132.376718,0.149954151 Z" id="Shape" fill="#13848C"></path>
                <path d="M143.735937,0.859459459 L143.735938,0.500605293 L143.665365,0.430032376 L143.594792,0.500605293 L143.594792,0.859459459 L143.735937,0.859459459 Z M143.594792,18.3453407 L143.665365,18.4159136 L143.735937,18.3453407 L143.735938,17.9864865 L143.594792,17.9864865 L143.594792,18.3453407 Z M144.594792,-0.140540541 L144.594792,18.9864865 L142.735938,18.9864865 L142.735938,-0.140540541 L144.594792,-0.140540541 Z" id="Rectangle-path" fill="#13848C"></path>
                <path d="M162.236979,17.1 L163.130342,16.7913488 L162.236979,15.6527949 L162.236979,17.1 Z M162.236979,15.6527949 L162.236979,-0.140540541 L164.095833,-0.140540541 L164.095833,18.9864865 L162.494219,18.9864865 L150.303646,3.49776751 L150.303646,18.9864865 L148.444792,18.9864865 L148.444792,-0.140540541 L149.844784,-0.140540541 L162.236979,15.6527949 Z M150.303646,2.05405405 L149.410744,2.36329198 L150.303646,3.49776751 L150.303646,2.05405405 Z M163.095833,0.500605293 L163.095833,0.859459459 L163.236979,0.859459459 L163.236979,0.500605293 L163.166406,0.430032376 L163.095833,0.500605293 Z M163.095833,18.3673206 L163.148226,18.4340934 L163.236979,18.3453407 L163.236979,17.9864865 L163.095833,17.9864865 L163.095833,18.3673206 Z M162.797013,17.9864865 L162.833958,18.0335719 L163.129881,18.1772486 L162.97974,17.9864865 L162.797013,17.9864865 Z M149.303646,0.610340598 L149.303646,0.859459459 L149.499718,0.859459459 L149.303646,0.610340598 Z M149.303646,18.3453407 L149.374219,18.4159136 L149.444792,18.3453407 L149.444792,17.9864865 L149.303646,17.9864865 L149.303646,18.3453407 Z M149.444792,0.783199322 L149.208199,0.668110614 L149.444792,0.969637484 L149.444792,0.783199322 Z" id="Shape" fill="#13848C"></path>
            </g>
        </g>
    </g>
</svg>