<?xml version="1.0" encoding="UTF-8"?>
<svg width="121px" height="64px" viewBox="0 0 121 64" version="1.1" xmlns="http://www.w3.org/2000/svg" xmlns:xlink="http://www.w3.org/1999/xlink">
    <!-- Generator: Sketch 51.2 (57519) - http://www.bohemiancoding.com/sketch -->
    <title>Kryptonium</title>
    <desc>Created with Sketch.</desc>
    <defs></defs>
    <g id="Page-1" stroke="none" stroke-width="1" fill="none" fill-rule="evenodd">
        <g id="Artboard-Copy-2" transform="translate(-366.000000, -820.000000)" fill="#7390A5">
            <g id="Kryptonium" transform="translate(366.000000, 820.000000)">
                <path d="M108,64.0000377 L108,51.2547623 C109.073647,51.1402116 109.899912,51.061458 110.661559,52.1265159 C111.741706,53.6377188 113.14475,54.9250957 114.471706,56.3754435 C115.619529,55.1202841 116.831779,54.0135884 117.763765,52.7117043 C118.610294,51.5296464 119.555853,50.9470957 121,51.1884435 L121,64.0000377 L119.088235,64.0000377 L119.088235,54.0120812 C117.479294,55.8115449 116.012397,57.4518058 114.455265,59.1932406 C112.918206,57.4727188 111.401221,55.7751826 109.720588,53.8939507 L109.720588,64.0000377 L108,64.0000377 Z" id="Fill-1"></path>
                <path d="M69.4900182,62.3134833 C72.1501054,62.3101102 74.2352491,60.3067158 74.2274645,57.5338949 C74.2194946,54.6849934 72.1704935,52.7582417 69.4811216,52.8019037 C66.6855464,52.8472523 64.8526588,54.6893033 64.7846368,57.5007267 C64.7251407,59.9555455 66.3660097,62.1832467 69.4900182,62.3134833 Z M67.8448862,64 C67.2677185,63.7048596 66.6801713,63.4286456 66.1152364,63.1113931 C62.6837387,61.1852036 61.8526468,56.1423312 64.8074343,52.9739284 C67.1151786,50.4992462 71.0484082,50.3785666 73.585611,52.4591661 C76.1226284,54.5392033 76.6736623,58.0282317 75.1751391,60.7988039 C74.370181,62.2870612 73.1252113,63.2539974 71.5510668,63.8077371 C71.4213246,63.853273 71.3041858,63.9351628 71.181116,64 L67.8448862,64 Z" id="Fill-4"></path>
                <path d="M79,64.0000377 L79,51.3197623 C80.6790196,50.9960812 80.7052941,50.989487 81.5613725,52.2414435 C83.3994118,54.9290522 85.2186275,57.6287188 87.2139216,60.5718058 L87.2139216,51.2300812 L89,51.2300812 L89,64.0000377 L87.2352941,64.0000377 C85.1415686,60.9472986 83.0478431,57.8945594 80.9541176,54.8420087 C80.8909804,54.8657478 80.8278431,54.8896754 80.7647059,54.9134145 L80.7647059,64.0000377 L79,64.0000377 Z" id="Fill-6"></path>
                <path d="M13.7689808,57.9695826 C15.0941731,57.9695826 16.3478269,58.0805536 17.5718654,57.941887 C19.1651346,57.7613942 19.8809038,56.8723072 20.0580192,55.4839449 C20.1934038,54.4203942 19.0184038,52.9979304 17.8901346,52.913713 C16.5357115,52.8127275 15.16725,52.8897855 13.7689808,52.8897855 L13.7689808,57.9695826 Z M11.9999423,64.0000754 L11.9999423,51.2056261 C14.2216731,51.2056261 16.4093654,51.0057275 18.5414808,51.2574377 C21.0670577,51.5554957 22.5420577,54.6711623 21.5095577,57.0409304 C20.9409038,58.3460174 20.3257115,58.9581478 19.1539808,59.3871478 C20.0384038,60.9243507 20.9230192,62.4621188 21.8076346,64.0000754 L19.69225,64.0000754 C18.87725,62.6704957 18.0707115,61.335829 17.2368654,60.017742 C17.1353269,59.8572203 16.8918654,59.692742 16.7087885,59.686713 C15.7351346,59.6541188 14.7595577,59.6712638 13.7307115,59.6712638 L13.7307115,64.0000754 L11.9999423,64.0000754 Z" id="Fill-9"></path>
                <path d="M0,51.1884435 L1.76039216,51.1884435 L1.76039216,60.0974 C1.8254902,60.1136029 1.89058824,60.1298058 1.95588235,60.1461971 C3.00117647,58.5515304 4.04745098,56.957429 5.09156863,55.3618203 C5.82215686,54.2451391 6.60235294,53.1540812 7.25823529,51.9980232 C7.63490196,51.3338928 8.07509804,51.055429 8.84137255,51.1799652 C9.15803922,51.2314 9.49117647,51.1884435 9.99666667,51.1884435 C9.33098039,52.2612261 8.7254902,53.2422551 8.11411765,54.2200812 C7.81862745,54.6927913 7.5954902,55.2419942 7.19607843,55.6140957 C5.71509804,56.9934145 6.16411765,58.2091971 7.24117647,59.6115014 C8.29294118,60.9806464 9.09078431,62.5299072 10,64.0000377 L7.84313725,64.0000377 C6.84764706,62.4330667 5.85215686,60.8660957 4.80392157,59.2158493 C3.75568627,60.8660957 2.76019608,62.4330667 1.76470588,64.0000377 L0,64.0000377 L0,51.1884435 Z" id="Fill-12"></path>
                <path d="M40.8043418,57.9266368 C42.1487148,57.9266368 43.3876661,57.9573784 44.6242615,57.9169588 C45.6290076,57.8843196 46.7857024,56.948978 47.0259934,56.0654417 C47.3222344,54.9760126 46.8830752,53.8510979 45.8406364,53.2537241 C44.2398745,52.33641 42.5038507,53.0168999 40.8043418,52.7789372 L40.8043418,57.9266368 Z M39,64 L39,51.1023815 C41.2489979,51.1023815 43.476401,50.8289331 45.5950449,51.1758198 C47.9227655,51.5570535 49.7037457,53.9173251 48.7264839,56.7886283 C48.1681607,58.4295086 46.5173382,59.6314671 44.7271312,59.6348828 C43.4544135,59.6375395 42.1814996,59.6354521 40.7668454,59.6354521 L40.7668454,64 L39,64 Z" id="Fill-15"></path>
                <path d="M100.615385,64.0000382 C99.7984615,63.6666265 98.9242308,63.4274647 98.1773077,62.9789647 C96.8488462,62.1808029 96.2011538,60.9242 96.1953846,59.37395 C96.1848077,56.6135529 96.1923077,53.8531559 96.1923077,51.0468765 L97.9230769,51.0468765 L97.9230769,51.9501853 C97.9230769,54.3050971 97.9161538,56.6598176 97.9253846,59.0147294 C97.9321154,60.7276706 99.3423077,62.1045235 101.05,62.0882735 C102.755,62.0718324 104.075577,60.7347441 104.076538,59.0191265 C104.078077,56.38395 104.076923,53.7485824 104.076923,51.0570088 L105.8075,51.0570088 C105.8075,54.1236706 105.9275,57.1607 105.763846,60.1826265 C105.660385,62.0955382 103.438077,63.9092294 101.675,63.8228176 C101.581154,63.8182294 101.481538,63.9380971 101.384615,64.0000382 L100.615385,64.0000382 Z" id="Fill-17"></path>
                <path d="M29.1428571,64.0000377 C29.1428571,62.6512406 29.0582857,61.2956609 29.1681905,59.9555304 C29.2657143,58.7678203 28.7681905,57.9036029 28.0990476,57.0126319 C26.7649524,55.2361536 25.4948571,53.4125739 24.2059048,51.6029362 C24.1417143,51.5126899 24.1497143,51.3721391 24.1095238,51.1891971 C24.7032381,51.1891971 25.2693333,51.1511391 25.8255238,51.2074725 C26.0552381,51.2306464 26.331619,51.4069942 26.4714286,51.5969072 C27.6407619,53.1857333 28.7834286,54.7937768 29.9788571,56.4585304 C30.9289524,55.0952261 31.8670476,53.7816609 32.7689524,52.4441681 C33.3579048,51.570342 34.016,50.9020667 35.2072381,51.1816609 C35.4102857,51.2293275 35.6348571,51.1884435 35.9904762,51.1884435 C34.8188571,52.8411391 33.7238095,54.3926609 32.6205714,55.9385304 C32.2619048,56.4411971 31.7971429,56.8890377 31.5329524,57.4340957 C31.2215238,58.0761826 30.931619,58.7876029 30.8866667,59.4848928 C30.7902857,60.9846029 30.8571429,62.4942986 30.8571429,64.0000377 L29.1428571,64.0000377 Z" id="Fill-20"></path>
                <polygon id="Fill-23" points="55.1176471 64.0000382 55.1176471 52.7324794 51.0464706 52.7324794 51.0464706 51.0673324 60.9409804 51.0673324 60.9409804 52.6988324 56.8823529 52.6988324 56.8823529 64.0000382"></polygon>
                <polygon id="Fill-26" points="91 64 93 64 93 51 91 51"></polygon>
                <path d="M69.7452572,9.38914151 C68.9426226,9.38914151 68.3292614,9.471998 67.7466451,9.37376212 C65.8377696,9.05214053 64.3814211,9.63348164 63.4041168,11.3417479 C63.234059,11.6391469 62.9957858,11.8992509 62.777689,12.1676214 C61.032146,14.3147771 59.2839128,16.4598181 57.520115,18.6256213 C58.3239026,19.3688306 59.0514043,20.0747448 59.8273293,20.722794 C59.9430071,20.8194919 60.3859262,20.7276001 60.5096745,20.5811113 C63.1589261,17.4464063 65.7872327,14.2942071 68.4107354,11.1379709 C68.8419329,10.6191086 69.2312405,10.0654504 69.7452572,9.38914151 Z M71.2569467,35.5337276 C71.2948013,35.4637513 71.3328482,35.3937751 71.3707029,35.3236066 C67.7549078,31.8490169 64.1391127,28.3744272 60.4341573,24.8142896 C59.2206936,26.2737942 58.0842844,27.6402534 56.9148244,29.046699 C57.455935,29.5001989 57.9232578,29.8735337 58.3702121,30.2697453 C60.1455393,31.8430574 61.9028038,33.4367471 63.6967701,34.9883358 C64.0065252,35.2563217 64.4578991,35.5004696 64.8497047,35.5096973 C66.9845553,35.560257 69.1209431,35.5337276 71.2569467,35.5337276 Z M42.5717413,10.518758 C38.7972255,15.5257121 37.4936408,21.0759433 38.9517187,27.1911751 C39.5894837,29.8669974 40.6982225,32.3305842 42.5717413,34.6740194 L42.5717413,10.518758 Z M53.3117115,29.282196 C52.3801404,28.4684338 51.4944944,27.6587086 50.5679193,26.8989666 C50.0206597,26.450465 49.8771193,25.9277578 49.8809624,25.2368385 C49.9092093,20.3742585 49.8959506,15.511294 49.8959506,10.6485217 L49.8959506,9.6573197 L45.1664206,9.6573197 L45.1664206,35.534112 C45.9102556,35.534112 46.5851067,35.4845135 47.2490049,35.5481457 C47.8984914,35.6104323 48.3389124,35.3570568 48.7247612,34.8837559 C50.2518231,33.0105457 51.786379,31.1434872 53.3117115,29.282196 Z M54.0330643,18.8763055 C54.5810925,18.1609714 55.0436115,17.5290705 55.5349538,16.920431 C57.7122708,14.2232697 59.9357052,11.5624422 62.0630617,8.82644792 C62.9952094,7.62781637 63.9386942,6.78771695 65.607567,7.0530115 C66.606777,7.21199599 67.6521044,7.08223235 68.676679,7.08223235 L71.2519506,7.08223235 C64.5105498,1.01198537 52.7608009,0.684788752 45.7784367,7.13375332 L52.3939756,7.13375332 L52.3939756,8.27413542 C52.3939756,13.5917533 52.3876344,18.9093712 52.4072343,24.2271813 C52.4085794,24.6064756 52.485826,25.0943869 52.7242913,25.3433408 C53.3962601,26.0440645 54.17084,26.6465522 54.9590629,27.3347801 C56.1813658,25.8720075 57.3690806,24.4503747 58.555066,23.0310489 C57.0522157,21.6501715 55.5835692,20.3010141 54.0330643,18.8763055 Z M45.5315166,37.8410212 C47.4277097,39.3864581 49.2320524,40.5281859 51.2658291,41.293503 C54.0169232,42.3289207 56.8652482,42.8489365 59.7962001,42.6293957 C62.994825,42.3896694 66.0036001,41.4549867 68.7869764,39.8195803 C69.197229,39.5785083 69.7095162,39.4297127 70.1854861,39.3981849 C71.1531825,39.3339759 72.1281809,39.3789607 73.240955,39.3789607 C65.4926579,46.5511412 52.6505035,47.0280947 44.1510695,39.8376511 C34.0475192,31.2897837 33.7861874,17.3810438 40.8909548,8.51501518 C48.8694545,-1.44141253 62.624733,-2.45741377 71.8572413,4.37372875 C81.9185173,11.8179324 83.6721309,25.5711481 77.1359524,35.0740759 C77.0846468,35.0592732 77.0162394,35.0600422 76.9814592,35.0262075 C76.4712856,34.5277229 75.6644235,34.0849886 75.5483614,33.5048009 C75.4434444,32.9801714 76.1111857,32.3123212 76.4092193,31.693685 C77.5890557,29.242594 78.3192476,26.6923059 78.5580973,23.9507366 C78.9985183,18.8972599 77.3970921,14.4991376 74.6212099,10.4182152 C74.2864745,9.92588238 73.8525868,9.50102661 73.4671223,9.04771896 C69.6647439,13.6473113 65.8779302,18.2282562 62.0770891,22.8263107 C67.2973849,27.8359562 72.4031558,32.7358312 77.6630357,37.783733 C77.1647758,37.8096857 76.867703,37.8387143 76.5708223,37.8389065 C72.4085362,37.8419824 68.2445207,37.7729674 64.0855012,37.884468 C62.9123902,37.9158035 62.3572522,37.1699029 61.6802874,36.6087472 C59.5367898,34.8318504 57.4834133,32.94576 55.3014845,31.0191063 C54.4542697,31.9974281 53.6228117,32.9236521 52.8295927,33.8815961 C51.8059789,35.1179072 50.8271374,36.3918978 49.7900727,37.6166743 C49.6451873,37.7875778 49.2800913,37.8254496 49.0147242,37.8312168 C47.9594047,37.8546704 46.9033166,37.8410212 45.5315166,37.8410212 Z" id="Fill-28"></path>
            </g>
        </g>
    </g>
</svg>