<?xml version="1.0" encoding="UTF-8"?>
<svg width="142px" height="29px" viewBox="0 0 142 29" version="1.1" xmlns="http://www.w3.org/2000/svg" xmlns:xlink="http://www.w3.org/1999/xlink">
    <!-- Generator: Sketch 51.2 (57519) - http://www.bohemiancoding.com/sketch -->
    <title>likecoin</title>
    <desc>Created with Sketch.</desc>
    <defs></defs>
    <g id="Page-1" stroke="none" stroke-width="1" fill="none" fill-rule="evenodd">
        <g id="Artboard-Copy-2" transform="translate(-351.000000, -466.000000)">
            <g id="likecoin" transform="translate(351.000000, 466.000000)">
                <path d="M0,14.4400879 C0,6.45945563 6.4756281,-0.00670552509 14.4683636,5.21870883e-06 C22.4969298,0.00671596251 29.0228884,6.57413745 28.9012562,14.6816746 C28.7842975,22.4823151 22.4217934,28.908811 14.4183926,28.9001829 C6.45465702,28.8916746 -0.000119834711,22.4211994 0,14.4400879" id="Path" fill="#E9C940"></path>
                <g id="Group-9" transform="translate(1.000000, 1.000000)">
                    <path d="M-1.1157025e-05,13.5371417 C-1.1157025e-05,6.10689793 6.0290219,0.0866789256 13.4705343,0.0929268595 C20.9454062,0.0991747934 27.0212988,6.21367066 26.908055,13.7620674 C26.7991624,21.0247326 20.8754517,27.0080219 13.4240095,26.9999888 C6.00949711,26.9920674 -0.000122727273,20.9678318 -1.1157025e-05,13.5371417" id="Path-Copy" fill="#DEDEDE"></path>
                    <path d="M1.59064587,13.4527946 C1.58718719,19.9565591 6.85129463,25.2331624 13.3541665,25.2439847 C19.85715,25.2546955 25.1509351,19.9645921 25.1516045,13.4545798 C25.1523855,6.96018719 19.8688649,1.68157562 13.3690054,1.68280289 C6.86200537,1.68414174 1.59410455,6.9481376 1.59064587,13.4527946" id="Fill-1" fill="#E9CB43"></path>
                    <g id="Group-4" transform="translate(8.379310, 7.448276)">
                        <path d="M6.90471261e-05,5.60222029 C-0.0150984799,2.53991436 2.47057832,0.0147841347 5.51464482,6.85308323e-05 C8.65387351,-0.0149840716 11.1582008,2.4515084 11.1723571,5.57222742 C11.1860641,8.61577377 8.71195952,11.1205718 5.71081151,11.1715709 C2.56978518,11.2250413 0.00602370589,8.72788196 6.90471261e-05,5.60222029" id="Path" fill="#FEFEFE"></path>
                        <path d="M3.12839959,6.39798623 C3.12839959,5.61536324 3.13019722,4.83262791 3.12750077,4.05000492 C3.1264896,3.73131661 3.07930174,3.68514781 2.75505372,3.67919417 C2.49731811,3.67458852 2.2393578,3.67941883 1.98150984,3.67975583 C1.74646935,3.68020516 1.62872439,3.79265035 1.6289491,4.03270566 C1.63052203,5.59795165 1.63007262,7.16330997 1.62951086,8.72866829 C1.62939851,8.97827189 1.76129982,9.09914204 2.00173321,9.10487102 C2.24104308,9.11059999 2.48057765,9.108241 2.71999988,9.10576968 C3.02537276,9.10262436 3.12705136,9.00062613 3.12783783,8.69069978 C3.12974781,7.92649938 3.12851194,7.16229897 3.12839959,6.39798623" id="Path" fill="#0469B0"></path>
                        <path d="M6.57097882,3.68739446 C6.62198665,3.05372484 6.70658774,2.45869771 6.70602598,1.86367058 C6.70568893,1.39883723 6.47064843,1.00028026 6.07775331,0.730793746 C5.803839,0.542860882 5.57138261,0.679569965 5.55565332,1.01140122 C5.49329793,2.31805697 4.94962635,3.30242977 3.69487863,3.82893386 C3.58544773,3.874878 3.4660175,4.05595856 3.46455693,4.17559305 C3.44860294,5.5383029 3.45062527,6.90123742 3.4632087,8.2640596 C3.46410752,8.36055353 3.57061726,8.52141417 3.65454425,8.54152175 C4.42325699,8.72518597 5.19118326,8.94266238 5.97292884,9.03432598 C6.76366259,9.12688826 7.56990091,9.09172807 8.36951047,9.10239969 C8.50264765,9.10408469 8.64308771,9.07128349 8.76858496,9.0237667 C8.96115637,8.95086267 9.08890066,8.66205491 9.05159978,8.44716216 C9.00823188,8.19722156 8.81397519,8.20328753 8.62938076,8.19385157 C8.5191634,8.18823493 8.40501372,8.20474786 8.29951514,8.18070863 C8.23322743,8.16543136 8.1798602,8.09365066 8.12065067,8.0472572 C8.18469134,7.99502242 8.24356382,7.90818912 8.31400855,7.89762983 C8.46725675,7.87448927 8.62623491,7.89055286 8.78274131,7.88976653 C9.27034922,7.88740754 9.50853557,7.68633174 9.59032787,7.20869244 C9.65088562,6.85484395 9.51493964,6.686457 9.15316603,6.67567305 C8.96913337,6.67005641 8.78375248,6.68544601 8.60129275,6.66736042 C8.54185852,6.66151911 8.48995187,6.57974079 8.43467466,6.53278566 C8.49118774,6.48762785 8.54500437,6.40854552 8.60488802,6.40371521 C8.80622289,6.38720228 9.00980481,6.40135622 9.21226321,6.39607657 C9.67740071,6.38405696 9.94277625,6.11221145 9.94367507,5.65288241 C9.94423683,5.36834329 9.77402347,5.18917239 9.48797515,5.18119676 C9.30405484,5.17614178 9.11755043,5.19636169 8.93643892,5.1720978 C8.86048893,5.16198784 8.79577415,5.06628025 8.72600353,5.00955216 C8.79554945,4.96068737 8.86161246,4.87699939 8.93542775,4.86969775 C9.15451426,4.84768051 9.37685897,4.86048646 9.5975184,4.8507135 C9.90345303,4.83700889 10.047376,4.71288109 10.0892833,4.44024925 C10.1404035,4.10796867 10.0246809,3.87622599 9.72784678,3.79478467 C9.5101085,3.73491126 9.27978679,3.69514543 9.05440858,3.69200011 C8.20817292,3.6803175 7.36160021,3.68739446 6.57097882,3.68739446" id="Path" fill="#0469B0"></path>
                    </g>
                    <path d="M13.9380928,21.5503647 C13.3815951,21.7067769 12.8123523,21.8255725 12.2716122,22.0279739 C11.3298648,22.3804777 10.4549712,22.8833264 9.63870504,23.4896814 C9.3923769,23.6726679 9.18590618,23.9149915 8.93899871,24.0967645 C8.83182395,24.175638 8.61851722,24.2427411 8.54227831,24.1854668 C8.44008574,24.1088989 8.35388247,23.886233 8.3862087,23.7619769 C8.44912318,23.5206241 8.55861522,23.2637393 8.72082567,23.0846358 C9.26851764,22.4793729 9.84621854,21.9037179 10.4153455,21.3198115 C10.9513351,20.7698813 11.4950877,20.2284453 12.0250524,19.6725693 C12.1333858,19.5589915 12.2173876,19.5280488 12.367664,19.5689417 C13.4357039,19.8600455 14.5059452,19.8494886 15.5772293,19.5748875 C15.6592615,19.5537737 15.7882188,19.5736741 15.8455717,19.630099 C16.8004119,20.5700281 17.7566425,21.5087438 18.6903953,22.4713642 C18.9778554,22.7678071 19.2037914,23.1312318 19.4468753,23.4724506 C19.5065456,23.5561778 19.5615812,23.6787351 19.5502265,23.7744753 C19.5328468,23.9192385 19.4905562,24.1179997 19.3933458,24.1786716 C19.303319,24.2349751 19.098818,24.1821905 18.9940764,24.1045305 C18.5774273,23.7953465 18.2016784,23.4218502 17.7712414,23.1377844 C16.7803674,22.4836199 15.7352686,21.9430333 14.5741895,21.696584 C14.3701519,21.6532643 14.1609004,21.6372469 13.9540821,21.6084884 C13.9487524,21.5891947 13.9434226,21.5697797 13.9380928,21.5503647" id="Fill-6" fill="#FEFEFE"></path>
                    <path d="M2.6548267,13.0344828 C3.23204729,13.1782276 3.81194667,13.3136584 4.38590613,13.4676864 C5.37426246,13.7328595 6.36017293,14.0052527 7.34282228,14.2881477 C7.44415035,14.3173562 7.56492875,14.4258759 7.59311426,14.5197366 C7.88801388,15.4982736 8.41655042,16.347287 9.1680087,17.073997 C9.30951859,17.21085 9.33851939,17.32473 9.28575891,17.5196716 C8.98258998,18.6374682 8.72216519,19.7655479 8.41165872,20.8814848 C8.29740258,21.2916061 8.09462997,21.6814893 7.91293826,22.0726853 C7.86728239,22.1708125 7.76059675,22.2716745 7.65624048,22.3104003 C7.54652664,22.3512046 7.37263835,22.362691 7.28843123,22.3061339 C7.20713584,22.2515459 7.14715428,22.0784832 7.1756892,21.9835285 C7.47606287,20.9872696 7.44473269,19.9736169 7.32139197,18.9669655 C7.24487181,18.3412269 7.07342937,17.7218333 6.89523173,17.1121758 C6.74125965,16.5856584 6.33466621,16.1978536 5.91258239,15.8447271 C4.80496176,14.9184809 3.57644626,14.1795187 2.1540098,13.7434708 C2.02822323,13.7048544 1.8556161,13.5430594 1.86225484,13.4484329 C1.8702912,13.3363032 2.03031967,13.1974811 2.15960031,13.139283 C2.29680085,13.0775843 2.47523143,13.0968378 2.6356093,13.0806474 C2.64213157,13.0652227 2.6484209,13.0499074 2.6548267,13.0344828" id="Fill-8" fill="#FEFEFE"></path>
                    <path d="M24.3335367,13.0344828 C24.5625501,13.0629496 24.7338732,13.0459134 24.8576453,13.1102111 C24.9824664,13.1751682 25.122555,13.3137653 25.1374729,13.4332379 C25.1479621,13.5164402 24.9760563,13.6724031 24.8555475,13.7097727 C23.3405625,14.1797498 22.0413046,14.9747322 20.8874966,15.9995374 C20.26141,16.5555744 19.9653824,17.2574627 19.8094435,18.0365081 C19.5719222,19.2233213 19.5235555,20.4114534 19.7191202,21.6060702 C19.7377676,21.7201573 19.8114248,21.8309471 19.8087443,21.9420665 C19.805481,22.0723104 19.7853185,22.2739961 19.7024541,22.3132342 C19.5882387,22.36742 19.3524656,22.3509335 19.2684357,22.2712484 C19.0928005,22.1044043 18.9255566,21.8926068 18.8556288,21.6709174 C18.6252169,20.941002 18.4383932,20.1988866 18.2379336,19.460618 C18.0537905,18.7826902 17.8694143,18.1047625 17.6978582,17.423977 C17.6762971,17.3384667 17.6976251,17.204266 17.7572968,17.1454639 C18.5452661,16.3711447 19.1123803,15.4802104 19.4193632,14.4432052 C19.4401084,14.3731922 19.5207584,14.2869125 19.5920847,14.2667989 C20.8502017,13.9132169 22.1098339,13.5635917 23.3728458,13.2258369 C23.709548,13.1358202 24.0589537,13.0881191 24.3335367,13.0344828" id="Fill-10" fill="#FEFEFE"></path>
                    <path d="M19.5517241,3.14860498 C19.4098124,3.42107451 19.3182378,3.71135653 19.1402722,3.91613864 C18.6471519,4.48355829 18.121203,5.01879264 17.6023957,5.56029206 C17.0356702,6.15166643 16.4584626,6.73161624 15.8956535,7.32704449 C15.7869159,7.44214997 15.6991425,7.4727383 15.5529688,7.42961981 C14.4651323,7.10850377 13.3759135,7.11575161 12.2842758,7.42175775 C12.1970784,7.446081 12.05724,7.41819525 11.9941169,7.35517592 C11.0653552,6.42462734 10.136939,5.49346454 9.22856551,4.54043539 C8.94911915,4.2472051 8.72599978,3.89193823 8.48756039,3.55632652 C8.42777776,3.47205506 8.37006851,3.3495789 8.38055063,3.25314581 C8.39702253,3.09823865 8.43353716,2.89517637 8.53340526,2.81766136 C8.60942941,2.75869591 8.84164865,2.81348464 8.92780935,2.90230136 C9.71477454,3.71344489 10.6595474,4.25654129 11.6397983,4.73256449 C12.4488796,5.12554468 13.279501,5.46385897 14.1978959,5.37835906 C14.9518021,5.30821474 15.6468471,5.01940686 16.3208128,4.67974127 C17.2605174,4.20642066 18.1718857,3.68150527 18.9274046,2.89456214 C19.0089578,2.80955361 19.1961384,2.77024331 19.3059127,2.80672818 C19.4014037,2.83854496 19.4566939,3.00757926 19.5517241,3.14860498" id="Fill-12" fill="#FEFEFE"></path>
                    <path d="M2.66982634,13.0344828 C2.47317215,13.0112912 2.33029876,13.0295367 2.23400441,12.9745804 C2.09252491,12.8940144 1.98449869,12.7610202 1.86206897,12.6503382 C1.97532226,12.5447121 2.06975809,12.3820415 2.20450048,12.3424729 C3.51986494,11.9567896 4.62742413,11.2397196 5.69502522,10.4469199 C6.643449,9.7427098 7.10900717,8.80295692 7.26756179,7.69965407 C7.42344479,6.61536611 7.47571555,5.53063849 7.2813845,4.4452514 C7.26407708,4.34841838 7.23573471,4.25279441 7.20483689,4.15881912 C7.15070762,3.99438985 7.11562814,3.79544801 7.30972687,3.73895292 C7.45016096,3.69817534 7.69304572,3.74455847 7.78817849,3.8415014 C7.96345975,4.02032922 8.11423184,4.25103581 8.18578469,4.48471003 C8.39963015,5.18243532 8.57026512,5.89181135 8.75727826,6.59679088 C8.93290799,7.25835492 9.10063903,7.9220073 9.28904606,8.58027396 C9.32946877,8.72140176 9.31738842,8.80482544 9.20889757,8.90957216 C8.41391749,9.67676223 7.86751388,10.580134 7.56550509,11.6177091 C7.54331906,11.6942083 7.45236794,11.7867547 7.37338103,11.8093967 C6.1478061,12.1606775 4.92118576,12.5085509 3.68980297,12.8407068 C3.33575573,12.9362209 2.96602727,12.9795265 2.66982634,13.0344828" id="Fill-14" fill="#FEFEFE"></path>
                    <path d="M24.4049777,13.0344828 C23.7802343,12.8821786 23.1521102,12.7406986 22.531447,12.5751649 C21.5795848,12.3211788 20.6314531,12.0550565 19.6860026,11.7806247 C19.5841131,11.7509948 19.4613561,11.6462515 19.4330276,11.5536445 C19.1238618,10.5436043 18.5902827,9.65711313 17.8068762,8.90707248 C17.6827202,8.78800626 17.668964,8.69375917 17.7112819,8.53500421 C18.007391,7.42634354 18.2715575,6.30992006 18.5793243,5.20421145 C18.6936877,4.79376646 18.8894228,4.40212716 19.0670882,4.00939451 C19.1120874,3.90968065 19.21421,3.80253198 19.3174985,3.76415527 C19.4362918,3.72009311 19.6139572,3.70413015 19.7129322,3.75945385 C19.7918558,3.80362534 19.844316,3.98566873 19.8177362,4.08505459 C19.4509807,5.45491746 19.5828308,6.81800153 19.8387203,8.18480301 C20.0486779,9.30625592 20.7889504,10.0755396 21.7170307,10.7191969 C22.6785689,11.385924 23.6806764,11.9860659 24.8422631,12.3156027 C24.9679346,12.3513554 25.1553925,12.5314307 25.1366234,12.6049041 C25.1047975,12.7305304 24.9483494,12.8502527 24.8139346,12.924054 C24.7077317,12.9822205 24.5560632,12.9678975 24.4246794,12.9857192 C24.4180345,13.0020102 24.4116227,13.0183011 24.4049777,13.0344828" id="Fill-16" fill="#FEFEFE"></path>
                    <path d="M14.8965515,22.8214969 C14.8961383,23.5858246 14.2543447,24.2178924 13.4900391,24.2067515 C12.7140607,24.1954062 12.0999511,23.5720262 12.1034633,22.7994195 C12.1069754,22.0326387 12.7481492,21.4020018 13.5122483,21.4139604 C14.2897761,21.4260212 14.8969647,22.0434729 14.8965515,22.8214969" id="Fill-18" fill="#FEFEFE"></path>
                    <path d="M5.11699424,6.51724239 C5.8828725,6.51631949 6.51528672,7.14645429 6.51723735,7.91225522 C6.51908532,8.67477472 5.88472047,9.30983165 5.12038217,9.31034437 C4.35049999,9.31095964 3.72609361,8.68708004 3.72414298,7.91533155 C3.72208969,7.1446085 4.34618808,6.51816529 5.11699424,6.51724239" id="Fill-20" fill="#FEFEFE"></path>
                    <path d="M21.8809486,6.51724218 C22.6492393,6.51796033 23.278419,7.14808838 23.2758543,7.91415256 C23.2732895,8.68165303 22.6445202,9.31013959 21.8788968,9.31034478 C21.1164537,9.31054996 20.4816316,8.67498447 20.4827601,7.91230588 C20.4839912,7.14675467 21.115633,6.51642143 21.8809486,6.51724218" id="Fill-22" fill="#FEFEFE"></path>
                    <path d="M21.8702305,19.5517231 C21.0994717,19.5507936 20.4754312,18.9178621 20.4828236,18.1446923 C20.4903187,17.3654296 21.1089175,16.7567661 21.8914836,16.7586249 C22.6666572,16.760587 23.2871041,17.3915564 23.2757075,18.1664819 C23.2642083,18.952457 22.6552606,19.5526525 21.8702305,19.5517231" id="Fill-24" fill="#FEFEFE"></path>
                    <path d="M5.1068193,19.5517235 C4.33149413,19.5511039 3.71680433,18.9255044 3.72420404,18.1446925 C3.73160375,17.3561356 4.33889384,16.7567662 5.12829901,16.758625 C5.89262739,16.7605871 6.51029763,17.3751369 6.51718347,18.1406651 C6.52417208,18.9257109 5.89776608,19.5524464 5.1068193,19.5517235" id="Fill-26" fill="#FEFEFE"></path>
                    <path d="M13.4937992,4.65128595 C12.8160013,4.71019367 12.084861,4.05498721 12.1038089,3.25916566 C12.1223448,2.4860406 12.739283,1.8575541 13.5075981,1.8620934 C14.2778698,1.86673587 14.8755512,2.49264322 14.8961467,3.27268039 C14.9158154,4.01671267 14.2158774,4.71359814 13.4937992,4.65128595" id="Fill-28" fill="#FEFEFE"></path>
                </g>
                <g id="Group-5" transform="translate(38.000000, 6.000000)" fill="#BDBDBD">
                    <g id="Group-6">
                        <polygon id="Fill-30" points="11 18 0 18 0 0 1.89996912 0 1.89996912 16.2808251 11 16.2808251"></polygon>
                        <polygon id="Fill-32" points="14 18 16 18 16 0 14 0"></polygon>
                        <polygon id="Fill-34" points="34 18 31.8048321 18 26.5122395 8.41849815 22.8536263 12.9690675 22.8536263 18 21 18 21 0 22.8536263 0 22.8536263 10.3398279 30.9512148 0 33.2195195 0 27.7560378 6.95226218"></polygon>
                        <polygon id="Fill-35" points="48 18 37 18 37 0 48 0 48 1.71905219 38.8913759 1.71905219 38.8913759 8.0646045 46.6561244 8.0646045 46.6561244 9.78377936 38.8913759 9.78377936 38.8913759 16.2808251 48 16.2808251"></polygon>
                        <path d="M63,12.7292711 C62.6934936,14.3702517 62.0081684,15.6591025 60.9435548,16.5953409 C59.8790585,17.5319411 58.5726206,18 57.0242411,18 C55.2822848,18 53.8464827,17.419993 52.7177739,16.2597378 C51.9594318,15.4808058 51.4838833,14.6273222 51.2904239,13.698925 C51.0968471,12.7708897 51,11.2045814 51,9 C51,6.7957805 51.0968471,5.22959279 51.2904239,4.30107498 C51.4838833,3.3730397 51.9594318,2.51955607 52.7177739,1.74026218 C53.8464827,0.580368871 55.2822848,0 57.0242411,0 C58.5884683,0 59.8991323,0.46419859 60.955646,1.39223387 C62.0119249,2.32063105 62.6934936,3.61346272 63,5.2707289 L61.1129491,5.2707289 C60.8868552,4.16041605 60.4150631,3.28606278 59.697573,2.64778972 C58.9797306,2.00987856 58.0887374,1.69056108 57.0242411,1.69056108 C55.8465805,1.69056108 54.8547489,2.10505857 54.0483942,2.93369166 C53.5321112,3.48064499 53.2016572,4.14799078 53.0565626,4.93512586 C52.9113507,5.72250221 52.838686,7.07746026 52.838686,9 C52.838686,10.9229016 52.9113507,12.2778597 53.0565626,13.0648741 C53.2016572,13.8523711 53.5321112,14.519355 54.0483942,15.0663083 C54.8547489,15.8953033 55.8465805,16.3094389 57.0242411,16.3094389 C58.0887374,16.3094389 58.9877131,15.9904833 59.7217554,15.3522103 C60.4555628,14.7144198 60.9352201,13.8399458 61.161314,12.7292711 L63,12.7292711 Z" id="Fill-36"></path>
                        <path d="M76.9518098,13.0648741 C77.0963219,12.2778597 77.168578,10.9229016 77.168578,9 C77.168578,7.07746026 77.0963219,5.72250221 76.9518098,4.93500523 C76.8072977,4.14799078 76.4777025,3.48064499 75.9638427,2.93369166 C75.1603741,2.10505857 74.172524,1.69056108 72.9999415,1.69056108 C71.8271252,1.69056108 70.8392751,2.10505857 70.0361573,2.93369166 C69.5218298,3.48064499 69.1928192,4.14799078 69.0481902,4.93500523 C68.9035612,5.72250221 68.8313051,7.07746026 68.8313051,9 C68.8313051,10.9229016 68.9035612,12.2778597 69.0481902,13.0648741 C69.1928192,13.8522505 69.5218298,14.519355 70.0361573,15.0663083 C70.8392751,15.8953033 71.8271252,16.3094389 72.9999415,16.3094389 C74.172524,16.3094389 75.1603741,15.8953033 75.9638427,15.0663083 C76.4777025,14.519355 76.8072977,13.8522505 76.9518098,13.0648741 M78.7108589,4.32592553 C78.9035417,5.25432271 79,6.81206605 79,9 C79,11.1878133 78.9035417,12.7459186 78.7108589,13.6739538 C78.5180591,14.6024717 78.0361183,15.4640377 77.2650363,16.2596172 C76.1405076,17.419993 74.7186535,18 72.9999415,18 C71.2649778,18 69.8350563,17.419993 68.7108784,16.2596172 C67.9555805,15.4808058 67.4819409,14.6273222 67.2891411,13.6988044 C67.0963414,12.7707691 67,11.2045814 67,9 C67,6.7957805 67.0963414,5.22947216 67.2891411,4.30107498 C67.4819409,3.3730397 67.9555805,2.51955607 68.7108784,1.74026218 C69.8350563,0.580248237 71.2649778,0 72.9999415,0 C74.7186535,0 76.1405076,0.580248237 77.2650363,1.74026218 C78.0361183,2.53584162 78.5180591,3.39789025 78.7108589,4.32592553" id="Fill-37"></path>
                        <polygon id="Fill-38" points="84 18 86 18 86 0 84 0"></polygon>
                        <polygon id="Fill-39" points="104 18 102.220514 18 92.8783001 3.56457384 92.8783001 18 91 18 91 0 92.7794864 0 102.1217 14.3847648 102.1217 0 104 0"></polygon>
                    </g>
                </g>
            </g>
        </g>
    </g>
</svg>