<?xml version="1.0" encoding="UTF-8"?>
<svg width="120px" height="56px" viewBox="0 0 120 56" version="1.1" xmlns="http://www.w3.org/2000/svg" xmlns:xlink="http://www.w3.org/1999/xlink">
    <!-- Generator: Sketch 51.2 (57519) - http://www.bohemiancoding.com/sketch -->
    <title>onic</title>
    <desc>Created with Sketch.</desc>
    <defs></defs>
    <g id="Page-1" stroke="none" stroke-width="1" fill="none" fill-rule="evenodd">
        <g id="Artboard-Copy-2" transform="translate(-815.000000, -557.000000)" fill="#9DCDC6" fill-rule="nonzero">
            <g id="onic" transform="translate(815.000000, 557.000000)">
                <polygon id="Shape" points="44 22 44 25.0688453 44 25.2946905 44 29.705316 44 29.9311612 44 33 47 31.352658 47 29.9311612 47 29.705316 47 25.2946905 47 25.0688453 47 23.647342"></polygon>
                <path d="M69.9983788,33.2503237 L69.9983788,33.2443911 L69.9983788,30.0453586 L69.9983925,30.0453586 L69.9983925,30.0368021 L69.9983925,24.9632046 L69.9983925,24.9546481 L69.9983788,24.9546481 L69.9983788,21.7556088 L69.9983788,21.7496762 L70,21.748666 L69.9983788,21.7477371 L69.9983788,21.7470523 L69.9977658,21.7473778 L67.0039077,20.0268433 L67.0039077,20.0268501 L62.9929793,17.7218294 L62.9929793,17.7218227 L60.0032491,16.0036613 L60.0031265,16 L59.9999932,16.00179 L59.9968871,16 L59.9967509,16.0036613 L57.2123883,17.6037945 L52.7907246,20.1448715 L50.0022478,21.7473778 L50.0016211,21.7470523 L50.0016211,21.7477371 L50,21.748666 L50.0016211,21.7496762 L50.0016211,21.7556088 L50.0016211,24.9546481 L50.0016211,24.9632046 L50.0016211,25.1907045 L50.0016211,25.199261 L50.0016211,29.8007458 L50.0016211,29.8093023 L50.0016211,30.0368021 L50.0016211,30.0453587 L50.0016211,33.2443912 L50.0016211,33.2503238 L50,33.251334 L50.0016211,33.2522629 L50.0016211,33.2529477 L50.0022478,33.2526222 L52.9961058,34.9731567 L52.9961058,34.9731499 L57.0070206,37.2781706 L57.0070206,37.2781773 L59.9967509,38.9963387 L59.9968871,39 L59.9999932,38.99821 L60.0031265,39 L60.0032491,38.9963387 L62.9929793,37.2781773 L62.9929793,37.2781706 L67.0038941,34.9731499 L67.0039078,34.9731567 L69.9977658,33.2526222 L69.9983789,33.2529477 L69.9983789,33.2522629 L70,33.251334 L69.9983788,33.2503237 Z M54.4329572,32.4959347 L52.8753238,31.6007838 L52.8753238,30.0453586 L52.8753238,30.0368021 L52.8753238,29.8093023 L52.8753238,29.8007458 L52.8753238,25.199261 L52.8753238,25.1907045 L52.8753238,24.9632046 L52.8753238,24.9546481 L52.8753238,23.3992162 L54.4329572,22.5040653 L58.443872,20.1990446 L60.0000068,19.3047548 L61.3507604,20.0810232 L65.7724377,22.6221002 L65.7724377,22.6220934 L67.1246898,23.3992162 L67.1246898,24.9546481 L67.1246898,24.9632046 L67.1246898,25.1907045 L67.1246898,25.199261 L67.1246898,29.8007458 L67.1246898,29.8093023 L67.1246898,30.0368021 L67.1246898,30.0453586 L67.1246898,31.6007838 L65.7724377,32.3779066 L65.7724241,32.3778998 L61.3507468,34.9189768 L61.3507604,34.9189836 L60.0000068,35.6952452 L58.443872,34.8009554 L54.4329572,32.4959347 Z" id="Shape"></path>
                <polygon id="Shape" points="92 21.6671947 91.9983789 21.666279 91.9983789 21.6656039 91.9977658 21.6659247 89.2092909 20.0861362 89.2092909 20.0861295 84.7876166 17.5810652 84.7876166 17.5810719 82.0032423 16.0036094 82.0031197 16 82 16.0017646 81.9968803 16 81.9967577 16.0036094 79.0070159 17.6974206 79.0070159 17.6974206 74.9961038 19.9697741 74.9961038 19.9697741 74.8753218 20.0382051 74.8753218 19.3948413 74.8753218 19.1621304 74.8753218 17.4957503 72.0016211 16 72.0016211 19.1621304 72.0016211 19.3948413 72.0016211 21.666279 72 21.6671947 72.0016211 21.6681906 72.0016211 29.6051587 72.0016211 30.2713284 72.0016211 33 74.8753218 31.5042497 74.8753218 30.2713284 74.8753218 29.6051587 74.8753218 23.2943529 76.2275867 22.5282437 76.2275867 22.5282437 80.6492473 20.0231794 80.6492473 20.0231794 82 19.2579258 83.5561338 20.1395348 83.5561338 20.1395282 87.5670458 22.4118816 87.5670458 22.4118883 89.1246782 23.2943462 89.1246782 24.827741 89.1246782 25.0604519 89.1246782 29.6051587 89.1246782 29.8378696 89.1246782 31.5042497 91.9983789 33 91.9983789 29.8378696 91.9983789 29.6051587 91.9983789 25.0604519 91.9983789 24.827741 91.9983789 21.6681906"></polygon>
                <polygon id="Shape" points="117.243088 31.5327387 115.567043 32.4959347 115.567043 32.4959347 111.556128 34.8009554 111.556128 34.8009554 109.999993 35.6952452 108.443872 34.8009554 108.443872 34.8009622 104.432957 32.4959415 104.432957 32.4959347 102.875324 31.6007906 102.875324 30.0453586 102.875324 30.0368021 102.875324 29.8093023 102.875324 29.8007458 102.875324 25.199261 102.875324 25.1907045 102.875324 24.9632046 102.875324 24.9546481 102.875324 23.3992094 104.227576 22.6221002 104.227576 22.6221002 108.64924 20.0810232 108.64924 20.0810232 109.999993 19.3047548 111.35076 20.0810232 111.35076 20.0810232 115.772438 22.6221002 115.772438 22.6221002 117.243088 23.4672613 120 21.748666 117.003894 20.0268433 117.003894 20.0268433 112.992979 17.7218227 112.992979 17.7218227 110.003263 16.0036613 110.003126 16 110.000007 16.0017899 109.996887 16 109.996751 16.0036613 107.007021 17.7218227 107.007021 17.7218227 102.996106 20.0268433 102.996106 20.0268433 100.002248 21.7473778 100.001621 21.7470523 100.001621 21.7477371 100 21.748666 100.001621 21.7496762 100.001621 21.7556088 100.001621 24.9546481 100.001621 24.9632046 100.001621 25.1907045 100.001621 25.199261 100.001621 29.8007458 100.001621 29.8093023 100.001621 30.0368021 100.001621 30.0453586 100.001621 33.2443912 100.001621 33.2503238 100 33.251334 100.001621 33.2522629 100.001621 33.2529477 100.002248 33.2526222 102.996106 34.9731567 102.996106 34.9731567 107.007021 37.2781773 107.007021 37.2781773 109.996751 38.9963387 109.996887 39 110.000007 38.9982101 110.003126 39 110.003263 38.9963387 112.787598 37.3962055 112.787598 37.3962055 117.209275 34.8551285 117.209275 34.8551285 120 33.251334"></polygon>
                <polygon id="Shape" points="95 22 95 25.0688453 95 25.2946905 95 29.705316 95 29.9311612 95 33 98 31.352658 98 29.9311612 98 29.705316 98 25.2946905 98 25.0688453 98 23.647342"></polygon>
                <path d="M63,28.1911934 L63,26.8104749 L63,26.7398035 L63,25.8085008 C62.9999865,25.8084188 63,25.8083436 63,25.8082615 L63,25.7839477 C63,25.7838657 62.9999865,25.7837905 63,25.7837084 L63,25.7790658 C63,25.7782111 62.9995677,25.7775 62.9995137,25.7766522 C62.9993786,25.7574596 62.9903816,25.7387661 62.972766,25.728469 L62.0904694,25.2127645 C62.0903613,25.2127029 62.0902532,25.2127166 62.0901451,25.2126551 L60.9091522,24.5224189 C60.9091387,24.5224189 60.9091387,24.5224052 60.9091387,24.5224052 L60.0353527,24.0117056 C60.0329886,24.0097843 60.0302869,24.0087109 60.0276796,24.0072203 L60.026788,24.0067007 C60.0266259,24.0066049 60.0264233,24.0066186 60.0262477,24.0065229 C60.020736,24.0035965 60.0150893,24.0015589 60.0089697,24.000629 C60.0059302,24.0000615 60.0030258,24.000041 59.9999863,24 C59.9969333,24.000041 59.9940424,24.0000547 59.9910163,24.0006222 C59.9847752,24.0015658 59.9790204,24.0036375 59.9734412,24.006646 C59.9734007,24.0066733 59.9733466,24.0066733 59.9732926,24.0067007 L59.9730359,24.0068511 C59.9701315,24.008451 59.967146,24.0096818 59.9645388,24.011815 L59.0908879,24.5224052 C59.0908879,24.5224052 59.0908879,24.5224189 59.0908744,24.5224189 L57.9098274,25.2126893 C57.9097464,25.2127303 57.9096788,25.2127234 57.9096113,25.2127645 L57.0272066,25.728469 C57.0094153,25.7388687 57.0003508,25.7578288 57.0003914,25.7772197 C57.0003778,25.7778693 57.0000266,25.7784094 57.0000266,25.7790658 L57.0000266,25.7825392 C57.0000807,25.7830999 56.9999456,25.7836401 57.0000266,25.7841939 L57.0000266,25.8080154 C56.9999456,25.8085692 57.0000807,25.8091094 57.0000266,25.8096701 L57.0000266,26.7398035 L57.0000266,26.8104749 L57.0000266,28.1911934 L57.0000266,28.2619743 L57.0000266,29.2149583 C56.9999456,29.2155121 57.0000807,29.2160523 57.0000266,29.2166129 L57.0000266,29.2226025 C57.0000266,29.2237307 57.000594,29.2246674 57.0006615,29.2257819 C57.0010263,29.2312792 57.0018908,29.2365029 57.0038091,29.2416447 C57.0047277,29.2441677 57.0059706,29.2463625 57.0072134,29.2487009 C57.0091857,29.2523247 57.0112255,29.2556956 57.0139679,29.2588408 C57.0165886,29.2618971 57.0196146,29.2642902 57.0228027,29.2667106 C57.0244238,29.2679003 57.0254505,29.2696028 57.0272066,29.2706284 L57.8491452,29.7509904 L57.8491452,29.7509973 L59.0908744,30.4767333 C59.090888,30.4767333 59.090888,30.476747 59.090888,30.476747 L59.9692129,30.9900652 C59.9718336,30.9918156 59.9744544,30.9929164 59.9773183,30.9941814 C59.9822625,30.9965745 59.9877202,30.9976206 59.9933399,30.9984411 C59.9953527,30.9986667 59.9971224,31 59.9991758,31 C59.9994324,31 59.9996891,30.9998017 59.9999323,30.9997949 C60.0002295,30.9998017 60.0004456,30.999959 60.0007428,30.999959 C60.0007968,30.999959 60.0008509,31 60.0009049,31 C60.0009049,31 60.0009184,30.9999932 60.0009319,30.9999932 C60.0009319,30.9999932 60.0009454,31 60.0009589,31 C60.0100234,31 60.0182234,30.9972855 60.0257614,30.9933814 C60.0276256,30.992431 60.0291251,30.9912276 60.0308677,30.9900652 L60.9091387,30.4767469 C60.9091387,30.4767469 60.9091387,30.4767333 60.9091522,30.4767333 L62.0903883,29.7863603 C62.0904153,29.7863467 62.0904424,29.7863467 62.0904694,29.786333 L62.972766,29.2706284 C62.9744681,29.2696439 62.9754407,29.2680029 62.9769807,29.2668679 C62.9803175,29.2643722 62.983438,29.2618902 62.9861263,29.2587245 C62.9887605,29.2557092 62.9907058,29.2524683 62.9925971,29.2490086 C62.993948,29.2465129 62.9952854,29.244154 62.9962445,29.2414396 C62.9980547,29.2365303 62.9988652,29.2315595 62.999257,29.2263289 C62.9993516,29.2250298 63,29.2239221 63,29.2226025 L63,29.2154437 C62.9999865,29.2153617 63,29.2152865 63,29.2152044 L63,28.2619742 L63,28.1911934 Z M62.0956568,29.654036 C62.0956163,29.6540565 62.0955758,29.6540497 62.0955487,29.6540702 L60.7933399,30.4151556 C60.7933399,30.4151624 60.7933399,30.4151624 60.7933264,30.4151692 L60.0562916,30.8459395 L60.0562916,27.5682168 L60.8486726,27.1051945 L60.8732319,27.0908359 L60.9091387,27.0698587 C60.9091387,27.0698587 60.9091387,27.0698451 60.9091522,27.0698451 L62.0903883,26.3794653 C62.0904153,26.3794516 62.0904424,26.3794585 62.0904694,26.3794448 L62.8893347,25.9125046 L62.8893347,26.7398035 L62.8893347,26.8104749 L62.8893347,28.1911934 L62.8893347,28.2619742 L62.8893347,29.1901248 L62.0956568,29.654036 Z M59.2066867,30.4151624 L59.2066867,30.4151556 L57.9649574,29.6894196 C57.9649439,29.6894196 57.9649439,29.6894059 57.9649439,29.6894059 L57.1106919,29.1901522 L57.1106919,28.2619742 L57.1106919,28.1911934 L57.1106919,26.8104749 L57.1106919,26.7398035 L57.1106919,25.912532 L57.8491452,26.3441022 L57.8491452,26.3441091 L59.0908744,27.0698451 C59.0908879,27.0698451 59.0908879,27.0698587 59.0908879,27.0698587 L59.1182436,27.0858446 L59.151354,27.1051945 C59.151354,27.1051945 59.151354,27.1052013 59.1513675,27.1052013 L59.9456263,27.5692903 L59.9456263,30.8470198 L59.2066867,30.4151624 Z M57.9043158,25.3452392 C57.9043698,25.3452119 57.9044238,25.3452187 57.9044779,25.3451913 L59.2066867,24.584106 L59.2066867,24.5840991 L60.0000403,24.1204409 L60.7933264,24.5840923 C60.7933399,24.5840991 60.7933399,24.5840991 60.7933399,24.584106 L62.0955487,25.3451914 C62.0956298,25.3452392 62.0957108,25.3452119 62.0957919,25.3452597 L62.867126,25.7961046 L62.0956568,26.2470384 C62.0956163,26.2470589 62.0955758,26.2470521 62.0955487,26.2470726 L60.7933399,27.008158 C60.7933399,27.0081648 60.7933399,27.0081648 60.7933264,27.0081717 L60.0000403,27.4718231 L59.2066867,27.0081649 L59.2066867,27.008158 L57.9649574,26.282422 C57.9649439,26.282422 57.9649439,26.2824083 57.9649439,26.2824083 L57.1328466,25.7961046 L57.9043158,25.3452392 Z" id="Shape"></path>
                <polygon id="Shape" points="26.9480679 21.133823 26.9481357 21.1337145 26.8884282 21.0992025 26.6792422 20.9777764 26.6790254 20.978163 19.1916288 16.6503771 19.1876727 16.657213 18.0554939 16 18 17.6222195 18.5189954 17.9166463 26.2322561 22.3749797 26.2326219 22.3743557 26.5682544 22.5679796 26.5682544 23.0555556 26.5682544 23.2777778 26.5682544 31.7222222 26.5682544 32.0222168 26.5682544 32.4218479 26.2297632 32.6228638 26.2295871 32.6225586 18.6682979 36.993042 18.6659269 36.9888848 18 37.3777737 18.0554939 39 19.1867243 38.3433363 19.1889462 38.3471612 26.9454667 33.8638238 26.9423235 33.8583917 28 33.244439 28 32.0222168 28 31.7222222 28 23.2777778 28 23.0555556 28 21.744439"></polygon>
                <polygon id="Shape" points="18.5306863 37.0977851 10.7741658 32.6144545 10.7695458 32.6224636 10.420636 32.4152561 10.420636 32.0222168 10.4317456 32.0222168 10.4317456 23.0555556 10.420636 23.0555556 10.420636 22.5743815 10.7728245 22.3712023 10.7768348 22.3781467 18.5333417 17.8948161 18.5299276 17.8888889 19 17.6222195 18.9445061 16 17.8177602 16.6540392 17.8174757 16.6535441 10.3245784 20.9844971 10.3207442 20.9777764 9 21.744439 9 23.0555556 9 23.2777778 9 31.7222222 9 32.0222168 9 33.244439 10.3207442 34.0111084 10.3223429 34.0083483 17.625767 38.2297906 17.6237483 38.2333306 18.9445061 39 19 37.3777737 18.5281256 37.1022068"></polygon>
                <polygon id="Shape" points="19.0001217 56 22 53.3500547 22 43 19.0001217 44.645007 16 43 16 53.3493434"></polygon>
                <polygon id="Shape" points="18.9998711 0 16 2.64994535 16 13 18.9998711 11.3549934 22 13 22 2.6506584"></polygon>
                <polygon id="Shape" points="19 0 19 11.3576508 33.9994108 20.0171053 33.9994108 20.5725591 33.9994108 21.0943685 33.9994108 33.7953948 33.9994108 34.3061046 33.9994108 35.9805501 19 44.6312429 19 56 38 38.3251383 38 37.0816794 38 34.3061046 38 33.7953948 38 33.6732722 38 22.326721 38 21.0943685 38 20.5725591 38 17.8080839 38 17.6748617"></polygon>
                <polygon id="Shape" points="9 9.36913317 9 17 19 11.1839215 19 0"></polygon>
                <polygon id="Shape" points="3.98944074 34.3461749 4.00058851 34.3461749 4.00058851 20.6379964 3.98944074 20.6379964 3.98944074 20.0063328 3.98944074 14.5984195 3.98944074 14 0 17.7013214 0 17.8786273 0 20.6379964 0 21.158842 0 22.3002652 0 33.7145114 0 33.8364084 0 34.3461749 0 37.116623 0 38.3577851 19 56 19 44.6522419 3.98944074 36.0111155"></polygon>
            </g>
        </g>
    </g>
</svg>