<?xml version="1.0" encoding="UTF-8"?>
<svg width="99px" height="30px" viewBox="0 0 99 30" version="1.1" xmlns="http://www.w3.org/2000/svg" xmlns:xlink="http://www.w3.org/1999/xlink">
    <!-- Generator: Sketch 51.2 (57519) - http://www.bohemiancoding.com/sketch -->
    <title>OnyxToken</title>
    <desc>Created with Sketch.</desc>
    <defs></defs>
    <g id="Page-1" stroke="none" stroke-width="1" fill="none" fill-rule="evenodd">
        <g id="Artboard-Copy-2" transform="translate(-1221.000000, -839.000000)">
            <g id="OnyxToken" transform="translate(1221.000000, 839.000000)">
                <path d="M0,13.7086998 C0.558174792,11.8337719 0.868045926,9.84044286 1.72037643,8.10577482 C4.42287426,2.60431055 10.1192523,-0.457907708 16.3009596,0.0557711624 C19.6984488,0.338112385 22.6241056,1.71047288 25.1478174,3.94406519 C25.2587498,4.04224707 25.3297465,4.183782 25.4545455,4.35300458 C24.1777137,5.58255506 22.9095716,6.80354424 21.5889216,8.07517267 C19.4982158,6.13776542 16.9772773,5.30713575 14.0529147,5.50513892 C9.09756503,5.84048743 5.04723871,10.4340881 5.57305822,15.7519394 C5.62630577,16.2903915 5.89735056,16.3823801 6.36289681,16.3765511 C7.73328156,16.3594285 9.10403609,16.3703578 10.5920092,16.3703578 C8.00432636,18.8635219 5.53682031,21.2410171 3.05064063,23.6363636 C1.4789136,21.7903985 0.631390168,19.3677287 0.176937157,16.7769292 C0.124983822,16.4816549 0.0593488269,16.1885665 0,15.8945673 L0,13.7086998 Z" id="Fill-1" fill="#697ADE"></path>
                <path d="M23.6282008,12.6245677 L18.8250727,12.6245677 C21.3512192,10.1657458 23.7804881,7.8010782 26.1911679,5.45454545 C30.1082769,10.1208667 30.4450249,18.9984907 24.7864425,24.8034573 C18.8240003,30.9203791 9.37753864,30.1222649 4.54545455,24.7485034 C5.77840994,23.5450124 7.01476141,22.3382241 8.28632486,21.096998 C11.7680207,24.04088 15.6760139,24.6821923 19.668194,22.0488001 C22.9044785,19.91384 24.1025794,16.6429821 23.6282008,12.6245677" id="Fill-3" fill="#24AB9A"></path>
                <path d="M46.8918611,14.6672844 C46.8353427,14.6580992 46.7788244,14.6487302 46.7224873,14.6393613 C46.7224873,14.0272569 46.7310012,13.4151525 46.7210381,12.8032318 C46.6842649,10.5693815 44.9274873,8.7980998 42.7459166,8.78817974 C40.5210513,8.77807598 38.7477892,10.5655237 38.7247834,12.8533832 C38.7137333,13.9550609 38.7178997,15.0569223 38.7240588,16.1586 C38.7349277,18.1563897 39.9382968,19.7454362 41.7622805,20.1813677 C43.6145234,20.6239125 45.5254583,19.8349004 46.2842892,18.0338586 C46.7152413,17.0106228 46.703829,15.795783 46.8918611,14.6672844 M49.9806232,14.5702883 C50.0277218,16.3610427 50.0639515,18.1591452 49.1328485,19.8097329 C47.4639278,22.7679312 44.0731912,24.2515312 40.8724793,23.3962017 C37.6844478,22.5443625 35.4622998,19.6500934 35.462481,16.2462272 C35.462481,14.5713905 35.3878478,12.8579759 35.6963436,11.2299839 C36.2671424,8.21722523 38.249631,6.31588056 41.1487307,5.65821738 C44.0925741,4.99045043 46.5706849,5.98043559 48.5164003,8.39670481 C50.001093,10.2399988 50.0456555,12.3695048 49.9806232,14.5702883" id="Fill-5" fill="#697ADE"></path>
                <path d="M56.0258488,6.68091874 C59.8602288,4.32069649 64.4597856,5.53054748 66.4368087,9.46799557 C66.9131236,10.4172774 67.1783053,11.5683853 67.2140967,12.6379157 C67.3167711,15.7032398 67.253865,18.7744567 67.251515,21.8432796 C67.250792,22.7028815 66.8921549,23.3374548 66.0478031,23.5698493 C64.9516462,23.8714834 64.0709608,23.1199763 64.0648148,21.867403 C64.0499921,18.8906539 64.0785529,15.9135366 64.0523421,12.9369717 C64.0330002,10.7224103 62.3515274,8.92696936 60.2403769,8.79511954 C58.1489297,8.6647429 56.352129,10.1707035 56.0889357,12.2907971 C56.0361524,12.7154419 56.0229566,13.1472685 56.0220527,13.5757804 C56.0159067,16.3072446 56.0321756,19.0387088 56.0113876,21.7698047 C56.0025302,22.9315931 55.4005838,23.5936044 54.4277084,23.6201217 C53.411088,23.647928 52.7447894,22.9779983 52.7399088,21.7874828 C52.7202054,17.0000086 52.727436,12.2125343 52.7355704,7.42505997 C52.7371973,6.56914103 53.0144903,5.83991578 53.8951757,5.55246107 C54.7671845,5.26776859 55.3544889,5.59205285 56.0258488,6.68091874" id="Fill-7" fill="#697ADE"></path>
                <path d="M76.3384988,16.8327611 C77.216634,14.6044997 77.9959347,12.6410425 78.7638601,10.6734645 C79.2746294,9.36431387 79.7494079,8.04172595 80.2777063,6.73920438 C80.6894545,5.72388255 81.5869837,5.28958925 82.4660513,5.61960916 C83.4665175,5.99495753 83.833324,6.90941009 83.4062844,7.98511015 C81.4758415,12.8463643 79.5394312,17.7054685 77.6125315,22.5677976 C76.8192448,24.5692376 76.0475897,26.5785607 75.2598974,28.5819715 C74.8136503,29.7164373 74.0132774,30.208063 73.1107133,29.9187133 C71.9688951,29.5526815 71.5821352,28.7319317 72.0438601,27.5752495 C72.7642331,25.7701732 73.5414825,23.9849841 74.2152354,22.1643205 C74.3834406,21.7104983 74.3998508,21.0986536 74.2279161,20.6511022 C72.6387319,16.5240617 70.9917389,12.4176251 69.3667506,8.30330524 C69.268289,8.05372993 69.1946294,7.79107565 69.1448392,7.5282422 C68.967683,6.59264831 69.424373,5.85108892 70.3330909,5.57141407 C71.1062378,5.33348441 71.8991515,5.69575382 72.2650256,6.55681553 C72.9667506,8.20852754 73.6224149,9.87869343 74.2821818,11.5465302 C74.9417622,13.2138295 75.5828811,14.8877578 76.3384988,16.8327611" id="Fill-9" fill="#697ADE"></path>
                <path d="M91.836654,11.4905785 C92.9488763,9.72620753 93.9408965,8.03309458 95.0660227,6.4415427 C95.3958712,5.97505969 96.0926894,5.58497704 96.6410227,5.5559596 C97.0511237,5.53392103 97.6802399,6.06156107 97.8676136,6.50251607 C98.0551641,6.94347107 97.9839268,7.68782369 97.7336237,8.11371901 C96.5865783,10.0652342 95.3621086,11.9697337 94.1074116,13.8494399 C93.7796843,14.3401653 93.7855177,14.6492562 94.0930934,15.1205142 C95.328346,17.0134435 96.5559975,18.9133517 97.7240783,20.8514601 C98.3395833,21.8725803 98.1004167,22.8051791 97.2415025,23.2885583 C96.4267803,23.7473278 95.4978662,23.3948944 94.9161237,22.4404408 C93.9902146,20.9212489 93.0471591,19.4130762 92.1074621,17.9026997 C92.046654,17.8049954 91.9540278,17.728595 91.7993561,17.5570615 C91.046149,18.7274931 90.3198106,19.8555005 89.5940025,20.9844261 C89.218548,21.5684481 88.8655429,22.1693664 88.4653409,22.7341047 C87.925846,23.4953535 87.0870833,23.6916804 86.3672854,23.2696419 C85.6639268,22.8571534 85.3552904,21.9645914 85.7765278,21.1217998 C86.2477904,20.1789164 86.8495076,19.3052709 87.4079167,18.4106887 C88.1109217,17.2843343 88.8010227,16.1476951 89.5501641,15.0553168 C89.8754167,14.5811203 89.7532702,14.2498072 89.4891793,13.84191 C88.3417803,12.0698255 87.2180682,10.2813958 86.070846,8.50949495 C85.3954167,7.46615243 85.4862753,6.28947658 86.3147854,5.75283747 C87.0907955,5.25017447 87.8864268,5.42519743 88.4458965,6.27258035 C89.5572348,7.95614325 90.6463005,9.65568411 91.836654,11.4905785" id="Fill-12" fill="#697ADE"></path>
            </g>
        </g>
    </g>
</svg>