<?xml version="1.0" encoding="UTF-8"?>
<svg width="130px" height="16px" viewBox="0 0 130 16" version="1.1" xmlns="http://www.w3.org/2000/svg" xmlns:xlink="http://www.w3.org/1999/xlink">
    <!-- Generator: Sketch 51.2 (57519) - http://www.bohemiancoding.com/sketch -->
    <title>Peachcoin</title>
    <desc>Created with Sketch.</desc>
    <defs></defs>
    <g id="Page-1" stroke="none" stroke-width="1" fill="none" fill-rule="evenodd">
        <g id="Artboard-Copy-2" transform="translate(-577.000000, -723.000000)" fill="#AE6D78">
            <g id="Peachcoin" transform="translate(577.000000, 723.000000)">
                <path d="M2.40225,7.251 C2.67475,7.3285 2.96975,7.4035 3.28225,7.471 C3.59475,7.5385 3.90725,7.5735 4.21975,7.5735 C4.73725,7.5735 5.18725,7.496 5.57475,7.3385 C5.95975,7.1835 6.28225,6.971 6.53975,6.701 C6.79975,6.4335 6.99225,6.1185 7.11975,5.756 C7.24475,5.396 7.30975,5.011 7.30975,4.5985 C7.30975,4.121 7.22725,3.686 7.05975,3.296 C6.89475,2.906 6.66725,2.5735 6.37975,2.301 C6.09225,2.026 5.75225,1.8135 5.36225,1.6635 C4.96975,1.511 4.54975,1.436 4.10225,1.436 L2.40225,1.436 L2.40225,7.251 Z M-0.00025,0.381 L4.52725,0.381 C5.26725,0.381 5.96725,0.471 6.61975,0.651 C7.27475,0.8335 7.84475,1.096 8.32725,1.4435 C8.80975,1.7885 9.19225,2.216 9.46975,2.7235 C9.74725,3.2335 9.88725,3.8135 9.88725,4.4685 C9.88725,5.1135 9.75225,5.676 9.48475,6.1585 C9.21725,6.6435 8.86225,7.041 8.42225,7.3535 C7.98225,7.666 7.48225,7.901 6.92225,8.056 C6.35975,8.2135 5.78725,8.291 5.19975,8.291 C4.94725,8.291 4.68475,8.2835 4.41725,8.2685 C4.14725,8.2535 3.88725,8.2385 3.63225,8.2185 C3.37975,8.1985 3.14475,8.1735 2.92975,8.1435 C2.71475,8.116 2.53975,8.086 2.40225,8.056 L2.40225,14.6635 L-0.00025,14.6635 L-0.00025,0.381 Z" id="Fill-1"></path>
                <polygon id="Fill-4" points="22 1 22 1.90425346 14.4188271 1.90425346 14.4188271 6.91563102 19.4930783 6.91563102 19.4930783 7.81988447 14.4188271 7.81988447 14.4188271 14.0957465 22 14.0957465 22 15 12 15 12 1"></polygon>
                <path d="M25.8251232,8.55196028 L31.0073892,8.55196028 L28.4507389,3.13028591 L25.8251232,8.55196028 Z M29.3743842,0 L36,14 L33.58867,14 L31.4384236,9.43639788 L25.4064039,9.43639788 L23.1847291,14 L22,14 L28.7832512,0 L29.3743842,0 Z" id="Fill-6"></path>
                <path d="M41.5473759,7.67422667 C41.5473759,8.68249333 41.6987293,9.59196 41.9989549,10.39756 C42.2991805,11.2056933 42.7110602,11.8846267 43.234594,12.4394267 C43.7581278,12.9942267 44.3759474,13.4198267 45.0880526,13.7162267 C45.8001579,14.0126267 46.571812,14.1620933 47.4054962,14.1620933 C47.9017368,14.1620933 48.380609,14.06076 48.844594,13.86316 C49.3110602,13.66556 49.7427895,13.4096933 50.139782,13.0930267 C50.5367744,12.77636 50.8915865,12.41916 51.2017368,12.02396 C51.5118872,11.62876 51.7674511,11.22596 51.9709098,10.8206267 L52.9733158,11.4742267 C52.683015,11.9580933 52.340609,12.42676 51.9411353,12.8776933 C51.5441429,13.3260933 51.0851203,13.7238267 50.5615865,14.0632933 C50.0380526,14.4052933 49.4475263,14.6814267 48.7875263,14.88916 C48.1275263,15.0968933 47.390609,15.20076 46.5767744,15.20076 C45.4056466,15.20076 44.3362481,15.0006267 43.3710602,14.5978267 C42.4083534,14.19756 41.584594,13.6528933 40.899782,12.96636 C40.2174511,12.2772933 39.6889549,11.4792933 39.3167744,10.5698267 C38.9421128,9.65782667 38.7560226,8.69262667 38.7560226,7.67422667 C38.7560226,6.65582667 38.9470752,5.68556 39.3291805,4.76596 C39.7137669,3.84382667 40.2546692,3.03569333 40.9518872,2.33902667 C41.6491053,1.63982667 42.4852707,1.08502667 43.4603835,0.674626667 C44.433015,0.264226667 45.5123383,0.0590266667 46.693391,0.0590266667 C47.4501579,0.0590266667 48.1448947,0.162893333 48.7800827,0.370626667 C49.4152707,0.57836 49.993391,0.854493333 50.5169248,1.19396 C51.0404586,1.53596 51.509406,1.93116 51.9212857,2.38209333 C52.3331654,2.83302667 52.683015,3.29916 52.9733158,3.78556 L51.9411353,4.48222667 C51.3406842,3.30422667 50.678203,2.44796 49.9512105,1.90836 C49.224218,1.36876 48.380609,1.09769333 47.4203835,1.09769333 C46.6065489,1.09769333 45.8398571,1.24969333 45.1227895,1.55116 C44.4057218,1.85262667 43.7829398,2.28836 43.2544436,2.85836 C42.7284286,3.42582667 42.3115865,4.11742667 42.0063985,4.92809333 C41.7012105,5.73876 41.5473759,6.65582667 41.5473759,7.67422667" id="Fill-8"></path>
                <polygon id="Fill-11" points="57.4060088 8.28058813 57.4060088 15 55 15 55 1 57.4060088 1 57.4060088 7.37633468 64.5939912 7.37633468 64.5939912 1 67 1 67 15 64.5939912 15 64.5939912 8.28058813"></polygon>
                <path d="M78.8552105,7.67422667 C78.8552105,8.68249333 79.0065639,9.59196 79.3067895,10.39756 C79.607015,11.2056933 80.0188947,11.8846267 80.5424286,12.4394267 C81.0659624,12.9942267 81.683782,13.4198267 82.3958872,13.7162267 C83.1079925,14.0126267 83.8796466,14.1620933 84.7133308,14.1620933 C85.2095714,14.1620933 85.6884436,14.06076 86.1524286,13.86316 C86.6188947,13.66556 87.0506241,13.4096933 87.4476165,13.0930267 C87.844609,12.77636 88.1994211,12.41916 88.5095714,12.02396 C88.8197218,11.62876 89.0752857,11.22596 89.2787444,10.8206267 L90.2811504,11.4742267 C89.9908496,11.9580933 89.6484436,12.42676 89.2489699,12.8776933 C88.8519774,13.3260933 88.3929549,13.7238267 87.8694211,14.0632933 C87.3458872,14.4052933 86.7553609,14.6814267 86.0953609,14.88916 C85.4353609,15.0968933 84.6984436,15.20076 83.884609,15.20076 C82.7134812,15.20076 81.6440827,15.0006267 80.6788947,14.5978267 C79.716188,14.19756 78.8924286,13.6528933 78.2076165,12.96636 C77.5252857,12.2772933 76.9967895,11.4792933 76.624609,10.5698267 C76.2499474,9.65782667 76.0638571,8.69262667 76.0638571,7.67422667 C76.0638571,6.65582667 76.2549098,5.68556 76.637015,4.76596 C77.0216015,3.84382667 77.5625038,3.03569333 78.2597218,2.33902667 C78.9569398,1.63982667 79.7931053,1.08502667 80.768218,0.674626667 C81.7408496,0.264226667 82.8201729,0.0590266667 84.0012256,0.0590266667 C84.7579925,0.0590266667 85.4527293,0.162893333 86.0879173,0.370626667 C86.7231053,0.57836 87.3012256,0.854493333 87.8247594,1.19396 C88.3482932,1.53596 88.8172406,1.93116 89.2291203,2.38209333 C89.641,2.83302667 89.9908496,3.29916 90.2811504,3.78556 L89.2489699,4.48222667 C88.6485188,3.30422667 87.9860376,2.44796 87.2590451,1.90836 C86.5320526,1.36876 85.6884436,1.09769333 84.728218,1.09769333 C83.9143835,1.09769333 83.1476917,1.24969333 82.4306241,1.55116 C81.7135564,1.85262667 81.0907744,2.28836 80.5622782,2.85836 C80.0362632,3.42582667 79.6194211,4.11742667 79.3142331,4.92809333 C79.0090451,5.73876 78.8552105,6.65582667 78.8552105,7.67422667" id="Fill-13"></path>
                <path d="M101,14.2796185 C101.832487,14.2796185 102.56599,14.1089357 103.200508,13.7650602 C103.835025,13.4211847 104.370558,12.9467871 104.807107,12.3393574 C105.243655,11.7294177 105.573604,11.0040161 105.796954,10.1606426 C106.020305,9.31726908 106.129442,8.40110442 106.129442,7.41214859 C106.129442,6.43072289 106.020305,5.52961847 105.796954,4.7063253 C105.573604,3.88052209 105.243655,3.17269076 104.807107,2.58032129 C104.370558,1.98795181 103.835025,1.52610442 103.200508,1.19728916 C102.56599,0.868473896 101.832487,0.705321285 101,0.705321285 C100.15736,0.705321285 99.4137056,0.868473896 98.7690355,1.19728916 C98.1243655,1.52610442 97.5862944,1.98795181 97.1548223,2.58032129 C96.7233503,3.17269076 96.4010152,3.88052209 96.1827411,4.7063253 C95.964467,5.52961847 95.8553299,6.43072289 95.8553299,7.41214859 C95.8553299,8.40110442 95.964467,9.31726908 96.1827411,10.1606426 C96.4010152,11.0040161 96.7233503,11.7294177 97.1548223,12.3393574 C97.5862944,12.9467871 98.1243655,13.4211847 98.7690355,13.7650602 C99.4137056,14.1089357 100.15736,14.2796185 101,14.2796185 M101,15 C99.8807107,15 98.8324873,14.8017068 97.8553299,14.4051205 C96.8781726,14.0085341 96.0304569,13.4638554 95.3121827,12.7710843 C94.5939086,12.0808233 94.0279188,11.2776104 93.6167513,10.3589357 C93.2055838,9.44277108 93,8.46134538 93,7.41214859 C93,6.38303213 93.2055838,5.41666667 93.6167513,4.51305221 C94.0279188,3.61194779 94.5939086,2.82881526 95.3121827,2.16114458 C96.0304569,1.4934739 96.8781726,0.966365462 97.8553299,0.579819277 C98.8324873,0.193273092 99.8807107,0 101,0 C102.119289,0 103.167513,0.193273092 104.14467,0.579819277 C105.121827,0.966365462 105.969543,1.4934739 106.687817,2.16114458 C107.406091,2.82881526 107.972081,3.61194779 108.383249,4.51305221 C108.794416,5.41666667 109,6.38303213 109,7.41214859 C109,8.46134538 108.794416,9.44277108 108.383249,10.3589357 C107.972081,11.2776104 107.406091,12.0808233 106.687817,12.7710843 C105.969543,13.4638554 105.121827,14.0085341 104.14467,14.4051205 C103.167513,14.8017068 102.119289,15 101,15" id="Fill-16"></path>
                <polygon id="Fill-18" points="112 15 114 15 114 1 112 1"></polygon>
                <polygon id="Fill-20" points="118 1 119.362832 1 128.82933 11.002052 128.932996 11.002052 128.932996 1 130 1 130 15 129.436157 15 119.185841 3.875171 119.097345 3.875171 119.097345 14.6768126 118 14.6768126"></polygon>
            </g>
        </g>
    </g>
</svg>