<?xml version="1.0" encoding="UTF-8"?>
<svg width="64px" height="74px" viewBox="0 0 64 74" version="1.1" xmlns="http://www.w3.org/2000/svg" xmlns:xlink="http://www.w3.org/1999/xlink">
    <!-- Generator: Sketch 51.2 (57519) - http://www.bohemiancoding.com/sketch -->
    <title>PTMX</title>
    <desc>Created with Sketch.</desc>
    <defs></defs>
    <g id="Page-1" stroke="none" stroke-width="1" fill="none" fill-rule="evenodd">
        <g id="Artboard-Copy-2" transform="translate(-1053.000000, -328.000000)">
            <g id="PTMX" transform="translate(1053.000000, 328.000000)">
                <path d="M31.9490954,73.9934069 C28.0124062,73.9932101 24.0757169,74.0119069 20.1390277,73.9873059 C17.0091323,73.9678218 14.7860677,72.528758 13.5113846,69.6439388 C9.31042462,60.1359229 5.09863385,50.6328271 0.895901538,41.1255984 C-0.293316923,38.4354229 -0.30336,35.7434761 0.894129231,33.0426729 C5.10690462,23.540758 9.31436308,14.0364814 13.51296,4.52826862 C14.7898092,1.6371516 17.0233108,0.213635638 20.1467077,0.205960106 C28.0200862,0.186476064 35.8934646,0.187853723 43.76704,0.205566489 C46.8524308,0.212257979 49.0827815,1.60920479 50.3468308,4.45781117 C54.5152985,13.8506941 58.6638769,23.2524335 62.8561723,32.6346888 C64.1954462,35.6318856 64.1952492,38.540125 62.8469169,41.5485399 C58.6567877,50.897141 54.5255385,60.2721144 50.3907446,69.6453165 C49.0924308,72.5879973 46.8215138,73.976875 43.6610954,73.9894707 C39.7572923,74.0054122 35.8530954,73.9934069 31.9490954,73.9934069" id="Path" fill="#FFFFFF"></path>
                <path d="M31.9179815,73.0709654 C35.9535262,73.0709654 39.9890708,73.0829707 44.0246154,73.0668324 C46.61888,73.0564016 48.4687754,71.8080452 49.5093169,69.473109 C53.7654154,59.9239601 57.9880369,50.3596569 62.2153846,40.7977154 C63.3061415,38.3309176 63.3065354,35.848375 62.2142031,33.3805931 C57.99552,23.8503378 53.7697477,14.3230346 49.5483077,4.79396011 C48.4496738,2.31397606 46.5182523,1.08569415 43.8343877,1.07978989 C35.8944492,1.06247074 27.9545108,1.06306117 20.0147692,1.07939628 C17.3618215,1.08471011 15.4394585,2.32125798 14.3613046,4.74554521 C10.0991015,14.3279548 5.85166769,23.9166622 1.61841231,33.5118644 C0.575310769,35.876125 0.571372308,38.2905718 1.61368615,40.654242 C5.83177846,50.2207101 10.0693662,59.7785186 14.3132554,69.3335718 C15.4211446,71.8281197 17.3437046,73.0910399 20.1067323,73.0764761 C24.0438154,73.0558112 27.9808985,73.0711622 31.9179815,73.0709654" id="Fill-1" fill="#000000"></path>
                <path d="M31.0206315,44.9551385 L31.0206315,46.7639689 C31.0206315,50.2927619 31.0248333,53.8213568 31.0178302,57.3501497 C31.0158294,58.4864333 30.5306176,58.9848068 29.3951222,58.9907445 C26.828202,59.0038075 24.2608818,59.0020262 21.6939617,58.9917341 C20.4904365,58.986984 20.0046245,58.5006839 20.0032239,57.3119503 C19.9976214,53.0247114 20.0010229,48.7374725 20.0010229,44.4504314 L20.0010229,18.3317429 L20.0010229,17.0848196 L22.6998006,17.0848196 L22.6998006,56.1841775 L28.3158512,56.1841775 L28.3158512,55.0302787 C28.3158512,51.4027215 28.3122496,47.7751644 28.3174519,44.1474093 C28.3196529,42.6324965 28.7310324,42.2358561 30.290713,42.2324914 C32.6911604,42.2271474 35.0960098,42.3243283 37.4906547,42.2077508 C40.7630827,42.0480259 43.6711517,40.9580566 45.7948784,38.3430803 C46.7374897,37.1824521 47.198891,35.8112323 47.2144979,34.3172994 C47.2343065,32.3717033 47.2279037,30.4259092 47.2273034,28.480313 C47.2257027,24.2170229 43.823218,20.3763012 39.5541552,19.8290404 C38.861653,19.7401724 38.1623478,19.6558567 37.4658439,19.6520961 C34.1031766,19.6336891 30.7405092,19.6437833 27.2958061,19.6437833 L27.2958061,34.1753877 C27.6199475,34.1922113 27.9424883,34.2288273 28.2644288,34.2228895 C30.9267905,34.1743981 33.5959552,34.2141809 36.2493131,34.0314967 C38.1035222,33.9036376 38.6069418,33.1667653 38.6071419,31.3122143 C38.6075421,28.2667526 38.0496987,27.7210752 34.9355398,27.7204815 C33.8728761,27.7202835 32.8102124,27.7204815 31.652107,27.7204815 L31.652107,32.5605231 L28.8362783,32.5605231 C28.8362783,30.4462954 28.8030638,28.3771944 28.8530856,26.3100727 C28.872294,25.5256986 29.4141304,24.9897195 30.2098777,24.9920946 C32.5054794,24.998824 34.8126862,24.959635 37.0926811,25.1743829 C39.3718756,25.3893287 40.9125479,26.9826196 41.2292861,29.2124351 C41.3811524,30.2802368 41.4253717,31.388811 41.3237273,32.4607692 C41.0876243,34.9558033 39.0337281,36.7210904 36.1156547,36.8121356 C32.6849577,36.9190148 29.2488583,36.8632001 25.8149599,36.8459807 C24.8947584,36.8412305 24.465371,36.2714064 24.4589682,35.1464045 C24.4457624,32.8710663 24.4549665,30.5955303 24.4549665,28.3199943 C24.4549665,25.1543925 24.4487637,21.9885928 24.4575676,18.8229911 C24.4615693,17.4266349 24.893958,17.0121814 26.314778,17.0123793 C30.3157239,17.0127751 34.3168698,16.9731903 38.3166152,17.0335572 C44.9431067,17.1339048 50.0099177,22.2702392 49.9955114,28.8237117 C49.9909094,30.9314079 50.0475341,33.0501879 49.8578513,35.1444252 C49.5000952,39.0898488 47.17348,41.7028459 43.6783548,43.3762961 C41.4697911,44.4338058 39.1431758,45.0356937 36.6542898,44.9652326 C34.8270925,44.9135744 32.997294,44.9551385 31.0206315,44.9551385" id="Fill-4" fill="#FEFEFE"></path>
                <path d="M26.7772645,55 L24.059378,55 C24.0380312,54.6433324 24.0035944,54.3271461 24.0033931,54.0109598 C23.9997681,49.3951111 23.9987612,44.7790659 24.001782,40.1634138 C24.0029903,38.4822615 24.3558161,38.1358125 26.0426135,38.1352229 C29.1290338,38.1338474 32.2162597,38.1782589 35.3014718,38.118716 C37.3688861,38.0788243 39.3374205,37.5730048 41.0844319,36.432258 C42.4943255,35.5116036 43.2263585,34.2230804 43.2223308,32.5529328 C43.21931,31.3416385 43.1735957,30.1281826 43.2344139,28.919836 C43.3129539,27.3510881 42.5456785,26.2248831 41.3683842,25.3156264 C40.06603,24.3098827 38.525035,23.853191 36.8899935,23.8070109 C34.6439511,23.7433413 32.3950893,23.7851981 30.1476371,23.7592587 C28.8601854,23.7445203 28.1664155,22.7658952 28.7425768,21.7436446 C28.9117399,21.4435721 29.3340434,21.0755069 29.6343078,21.0808127 C33.0719429,21.1409451 36.5548895,20.6203872 39.9274774,21.636153 C42.934955,22.5418725 45.3173348,24.3089001 45.800255,27.4483611 C46.1516711,29.7335884 45.9955981,32.1538188 45.6701606,34.4606623 C45.3429106,36.7814581 43.5908646,38.2721912 41.5069368,39.3138964 C39.4153563,40.3593353 37.1594461,40.8091492 34.8274124,40.8453072 C32.1794064,40.8861815 29.5303933,40.8547397 26.7772645,40.8547397 L26.7772645,55 Z" id="Fill-6" fill="#FEFEFE"></path>
            </g>
        </g>
    </g>
</svg>