<?xml version="1.0" encoding="UTF-8"?>
<svg width="58px" height="34px" viewBox="0 0 58 34" version="1.1" xmlns="http://www.w3.org/2000/svg" xmlns:xlink="http://www.w3.org/1999/xlink">
    <!-- Generator: Sketch 51.2 (57519) - http://www.bohemiancoding.com/sketch -->
    <title>rix</title>
    <desc>Created with Sketch.</desc>
    <defs></defs>
    <g id="Page-1" stroke="none" stroke-width="1" fill="none" fill-rule="evenodd">
        <g id="Artboard-Copy-2" transform="translate(-607.000000, -958.000000)" fill="#7390A5" fill-rule="nonzero">
            <g id="rix" transform="translate(607.000000, 958.000000)">
                <path d="M56.86,13.07 C55.8420139,12.0581077 54.1979861,12.0581077 53.18,13.07 L39.73,26.53 C38.3989569,27.8610561 36.4085333,28.2826856 34.6521166,27.6056432 C32.8956999,26.9286008 31.7032541,25.2800771 31.61,23.4 C31.61,23.32 31.61,23.24 31.61,23.16 L31.61,14.91 C31.61,13.4740597 30.4459403,12.31 29.01,12.31 C28.3196218,12.3073293 27.6567488,12.5803993 27.1685741,13.0685741 C26.6803993,13.5567488 26.4073293,14.2196218 26.41,14.91 L26.41,23.16 C26.4050211,23.2399225 26.4050211,23.3200775 26.41,23.4 C26.3167459,25.2800771 25.1243001,26.9286008 23.3678834,27.6056432 C21.6114667,28.2826856 19.6210431,27.8610561 18.29,26.53 L14,22.22 C17.4982803,21.0977096 20.1459521,18.2145422 20.9668156,14.6335251 C21.7876791,11.0525079 20.6601691,7.30396934 18,4.77 C15.9457866,2.79542625 13.1653892,1.76001786 10.32,1.91 C4.6924869,2.20987598 0.303033477,6.89490064 0.37,12.53 L0.37,30.53 C0.455302155,31.9061177 1.59624103,32.9785224 2.975,32.9785224 C4.35375897,32.9785224 5.49469785,31.9061177 5.58,30.53 L5.58,12.53 C5.54995373,9.70349623 7.71236672,7.33576322 10.53,7.11 C12.4325635,6.99384405 14.2466883,7.92593566 15.2601083,9.54031476 C16.2735283,11.1546939 16.3244526,13.1936275 15.3928873,14.8565845 C14.461322,16.5195415 12.6959899,17.5410336 10.79,17.52 C9.30256355,17.5160042 7.95981241,18.4102154 7.39005425,19.7842091 C6.82029608,21.1582028 7.13622114,22.7402223 8.19,23.79 L14.61,30.21 C16.4554434,32.0879071 18.9770953,33.1470009 21.61,33.15 C22.9423813,33.1510784 24.2615444,32.8858858 25.49,32.37 C26.8200953,31.8153312 28.0166817,30.9835161 29,29.93 C30.9280439,31.9741187 33.6100834,33.1380227 36.42,33.15 C39.0529047,33.1470009 41.5745566,32.0879071 43.42,30.21 L56.86,16.75 C57.3485266,16.2622822 57.623046,15.6003093 57.623046,14.91 C57.623046,14.2196907 57.3485266,13.5577178 56.86,13.07 Z" id="Shape"></path>
                <circle id="Oval" cx="29.02" cy="4.5" r="3.65"></circle>
                <path d="M55,33.14 C54.3101282,33.1408077 53.6482168,32.8674096 53.16,32.38 L37.57,16.77 C36.9126313,16.1126313 36.6558996,15.1544956 36.8965133,14.2565133 C37.1371269,13.3585309 37.8385309,12.6571269 38.7365133,12.4165133 C39.6344956,12.1758996 40.5926313,12.4326313 41.25,13.09 L56.86,28.7 C57.3485266,29.1877178 57.623046,29.8496907 57.623046,30.54 C57.623046,31.2303093 57.3485266,31.8922822 56.86,32.38 C56.3694795,32.8762256 55.697664,33.1507309 55,33.14 Z" id="Shape"></path>
            </g>
        </g>
    </g>
</svg>