<?xml version="1.0" encoding="UTF-8"?>
<svg width="70px" height="66px" viewBox="0 0 70 66" version="1.1" xmlns="http://www.w3.org/2000/svg" xmlns:xlink="http://www.w3.org/1999/xlink">
    <!-- Generator: Sketch 51.2 (57519) - http://www.bohemiancoding.com/sketch -->
    <title>securix</title>
    <desc>Created with Sketch.</desc>
    <defs></defs>
    <g id="Page-1" stroke="none" stroke-width="1" fill="none" fill-rule="evenodd">
        <g id="Artboard-Copy-2" transform="translate(-1232.000000, -218.000000)" fill-rule="nonzero">
            <g id="securix" transform="translate(1232.000000, 218.000000)">
                <path d="M0.507694761,58.7086813 C0.507694761,56.8412746 1.61552616,56.3836853 3.05817753,56.3778354 C3.92448347,56.3700356 5.83555768,56.5972053 6.3946745,56.7041278 L6.3946745,57.6524558 C5.57030228,57.5952572 3.32115743,57.5237588 3.19340576,57.5237588 C2.32254883,57.4909346 1.69289233,57.5712077 1.69289233,58.7473554 L1.69289233,59.4909382 C1.69289233,60.5471637 2.1642408,60.6563612 2.92554983,60.6563612 L4.66206257,60.6563612 C6.41190312,60.6563612 6.73144481,61.8965324 6.73144481,62.948858 L6.73144481,63.7571143 C6.73144481,65.6709949 5.40289233,65.9849376 4.12732588,65.9849376 C3.22948828,65.9849376 1.48972488,65.7987169 0.793104336,65.6453204 L0.793104336,64.6969925 C1.30833698,64.7483413 2.83290545,64.8386892 4.0307807,64.8386892 C4.56259176,64.8386892 5.54624725,64.7954651 5.54624725,63.7743389 L5.54624725,62.9992318 C5.54624725,62.3190226 5.34275477,61.8416087 4.54601335,61.8416087 L2.83940684,61.8416087 C0.720289159,61.8416087 0.507694761,60.5595134 0.507694761,59.5491119 L0.507694761,58.7086813 Z" id="Shape" fill="#575756"></path>
                <path d="M8.90874965,58.206243 C8.90874965,56.8425746 9.77733109,56.4223594 10.647863,56.4548586 C10.647863,56.4548586 14.5135705,56.6297046 14.7394927,56.6609038 L14.7394927,57.6105318 L10.7635872,57.6105318 C10.0936222,57.6105318 10.0936222,57.9839481 10.0936222,58.3320151 L10.0936222,60.6063123 L14.204756,60.7369593 L14.204756,61.6937371 L10.0936222,61.8208092 L10.0936222,64.0951064 C10.1046745,64.7775906 10.518811,64.7649159 10.892314,64.7649159 L14.7391676,64.7649159 L14.7391676,65.7018692 C14.5402261,65.7288435 10.7762648,65.9209141 10.7762648,65.9209141 C9.92881276,65.968363 8.90842462,65.7571179 8.90842462,64.2247784 L8.90842462,58.206243 L8.90874965,58.206243 Z" id="Shape" fill="#575756"></path>
                <path d="M19.77707,56.351836 C20.624522,56.351836 22.0262149,56.4987326 22.9588347,56.7028279 L22.9588347,57.6404311 C22.9458319,57.6404311 21.0994463,57.4980844 19.8931192,57.4980844 C18.3620494,57.4980844 17.8016324,58.1142701 17.8016324,61.1682243 C17.8016324,63.2803503 18.2433996,64.8130148 19.8947446,64.8130148 C21.2473521,64.8130148 22.9585096,64.7190919 22.9585096,64.7190919 L22.9585096,65.6566952 C22.0720494,65.8494158 20.6319986,65.9651131 19.7767449,65.9592632 C17.3936721,65.9534133 16.6161097,63.9716093 16.6161097,61.1428749 C16.6167598,58.1288948 17.2139096,56.351836 19.77707,56.351836 Z" id="Shape" fill="#575756"></path>
                <path d="M25.0324429,56.4548586 L26.2176404,56.4548586 L26.2176404,61.7606856 C26.2176404,64.7554911 27.0975992,64.8000151 28.5620301,64.8000151 C29.8177674,64.8000151 30.8290537,64.6602683 30.8290537,61.7606856 L30.8290537,56.4548586 L32.027254,56.4548586 L32.027254,61.7606856 C32.027254,65.9205891 30.1210558,65.9462635 28.5623552,65.9462635 C26.8102392,65.9462635 25.0327679,66.0492861 25.0327679,61.7606856 L25.0327679,56.4548586 L25.0324429,56.4548586 Z" id="Shape" fill="#575756"></path>
                <path d="M34.1762779,56.4548586 L38.2243485,56.4548586 C39.5155182,56.4548586 40.5073004,57.1483925 40.5073004,59.3170672 C40.5073004,61.7333862 39.3130009,61.958606 38.9079664,62.0411541 L40.8372444,65.881915 L39.5346973,65.881915 L37.6665321,62.1087525 L35.3611504,61.9283817 L35.3611504,65.881915 L34.1759529,65.881915 L34.1759529,56.4548586 L34.1762779,56.4548586 Z M38.1759134,60.923505 C38.7782642,60.923505 39.3091001,60.8734561 39.3091001,59.3170672 C39.3091001,57.7980525 38.7425068,57.5946072 38.1759134,57.5946072 L35.363751,57.5946072 L35.363751,60.923505 L38.1759134,60.923505 Z" id="Shape" fill="#575756"></path>
                <polygon id="Shape" fill="#575756" points="42.769448 56.4548586 43.9546456 56.4548586 43.9546456 65.881915 42.769448 65.881915"></polygon>
                <polygon id="Shape" fill="#575756" points="47.2056497 56.4548586 49.3787285 60.2075466 51.5966667 56.4548586 52.8985639 56.4548586 50.1029801 61.1194754 52.8345257 65.881915 51.5319787 65.881915 49.3784033 62.131827 47.2436827 65.881915 45.9414606 65.881915 48.6531773 61.1194754 45.9027775 56.4548586"></polygon>
                <path d="M54.9123598,64.7359916 C54.9123598,64.5426211 55.0157312,64.413924 55.221499,64.413924 L56.0205162,64.413924 C56.2519647,64.413924 56.3423335,64.5296213 56.3423335,64.7359916 L56.3423335,65.5858469 C56.3423335,65.8175665 56.2002787,65.881915 56.0205162,65.881915 L55.221499,65.881915 C55.0410867,65.881915 54.9123598,65.7662176 54.9123598,65.5858469 L54.9123598,64.7359916 Z" id="Shape" fill="#575756"></path>
                <polygon id="Shape" fill="#575756" points="59.0124413 56.4548586 60.1976386 56.4548586 60.1976386 65.881915 59.0124413 65.881915"></polygon>
                <path d="M66.0836431,56.3905101 C68.3119835,56.3905101 69.7562606,56.8156002 69.7562606,61.2325728 C69.7562606,65.3924764 68.4023528,65.9332638 66.0836431,65.9332638 C63.764934,65.9332638 62.3885965,65.5211733 62.3885965,61.2325728 C62.3885965,56.8152752 63.919341,56.3905101 66.0836431,56.3905101 Z M66.0836431,64.7873404 C67.9576596,64.7873404 68.5717132,64.2579277 68.5717132,61.2325728 C68.5717132,57.6313313 67.7483162,57.5367585 66.0836431,57.5367585 C64.4570035,57.5367585 63.5728187,57.6137817 63.5728187,61.2325728 C63.5728187,64.3417757 64.1644426,64.7873404 66.0836431,64.7873404 Z" id="Shape" fill="#575756"></path>
                <ellipse id="Oval" fill="#575756" cx="15.7964602" cy="5.24299065" rx="5.26548673" ry="5.24299065"></ellipse>
                <ellipse id="Oval" fill="#575756" cx="15.7964602" cy="17.5794393" rx="5.26548673" ry="5.24299065"></ellipse>
                <ellipse id="Oval" fill="#575756" cx="15.7964602" cy="30.5327103" rx="5.26548673" ry="5.24299065"></ellipse>
                <ellipse id="Oval" fill="#575756" cx="28.1858407" cy="5.24299065" rx="5.26548673" ry="5.24299065"></ellipse>
                <ellipse id="Oval" fill="#575756" cx="28.1858407" cy="17.5794393" rx="5.26548673" ry="5.24299065"></ellipse>
                <ellipse id="Oval" fill="#575756" cx="28.1858407" cy="42.8691589" rx="5.26548673" ry="5.24299065"></ellipse>
                <ellipse id="Oval" fill="#575756" cx="40.5752212" cy="5.24299065" rx="5.26548673" ry="5.24299065"></ellipse>
                <ellipse id="Oval" fill="#575756" cx="40.5752212" cy="17.5794393" rx="5.26548673" ry="5.24299065"></ellipse>
                <ellipse id="Oval" fill="#575756" cx="40.5752212" cy="42.8691589" rx="5.26548673" ry="5.24299065"></ellipse>
                <ellipse id="Oval" fill="#575756" cx="52.9646018" cy="30.5327103" rx="5.26548673" ry="5.24299065"></ellipse>
                <ellipse id="Oval" fill="#575756" cx="52.9646018" cy="42.8691589" rx="5.26548673" ry="5.24299065"></ellipse>
                <path d="M54.3883411,12.5204699 L54.3883411,10.3474958 C56.6051559,9.71636283 58.2300885,7.68767525 58.2300885,5.27722286 C58.2300885,2.36289244 55.8570736,0 52.9302585,0 C50.0034434,0 47.6301059,2.36289244 47.6301059,5.27722286 C47.6301059,7.68735389 49.2543931,9.71604147 51.4715305,10.3474958 L51.4715305,12.5211127 C49.2543931,13.1522456 47.6301059,15.1806119 47.6301059,17.5910642 C47.6301059,18.5204108 47.8731196,19.3922355 48.296538,20.1506233 L43.1341899,25.2912721 C42.3728759,24.8696599 41.4966709,24.6276827 40.5633432,24.6276827 C38.1428874,24.6276827 36.1058319,26.2453627 35.4716725,28.4527213 L33.2890668,28.4527213 C32.6549074,26.2450413 30.6178518,24.6276827 28.1970733,24.6276827 C25.2702582,24.6276827 22.8972433,26.9905752 22.8972433,29.9049056 C22.8972433,30.8342521 23.1402571,31.7060768 23.5636755,32.4644647 L18.4013274,37.6047921 C17.6396907,37.1831799 16.7638085,36.9412027 15.8308034,36.9412027 C12.9036656,36.9412027 10.5309735,39.3040952 10.5309735,42.2184256 C10.5309735,45.132756 12.9039883,47.4953271 15.8308034,47.4953271 C18.7576185,47.4953271 21.1306334,45.1324346 21.1306334,42.2184256 C21.1306334,41.2890791 20.8876196,40.416933 20.4638785,39.6585451 L25.6265493,34.5182177 C26.388186,34.9398299 27.2637456,35.1821285 28.1970733,35.1821285 C30.6175291,35.1821285 32.6549074,33.5644485 33.2890668,31.3570899 L35.4716725,31.3570899 C36.1058319,33.5644485 38.1428874,35.1821285 40.5633432,35.1821285 C43.490481,35.1821285 45.8634959,32.819236 45.8634959,29.9049056 C45.8634959,28.9752377 45.6201594,28.103413 45.196741,27.3447038 L50.3594118,22.2043763 C51.1204031,22.6263099 51.9962853,22.8682871 52.9302585,22.8682871 C55.8570736,22.8682871 58.2300885,20.505716 58.2300885,17.5910642 C58.2300885,15.1802905 56.6051559,13.1516029 54.3883411,12.5204699 Z" id="Shape" fill="#1AA8AF"></path>
            </g>
        </g>
    </g>
</svg>