<?xml version="1.0" encoding="UTF-8"?>
<svg width="162px" height="27px" viewBox="0 0 162 27" version="1.1" xmlns="http://www.w3.org/2000/svg" xmlns:xlink="http://www.w3.org/1999/xlink">
    <!-- Generator: Sketch 51.2 (57519) - http://www.bohemiancoding.com/sketch -->
    <title>sharpay</title>
    <desc>Created with Sketch.</desc>
    <defs></defs>
    <g id="Page-1" stroke="none" stroke-width="1" fill="none" fill-rule="evenodd">
        <g id="Artboard-Copy-2" transform="translate(-570.000000, -467.000000)" fill-rule="nonzero">
            <g id="sharpay" transform="translate(570.000000, 467.000000)">
                <path d="M5.60854093,18.9777026 C4.55537706,18.9879132 3.50381743,18.8961676 2.46975089,18.703852 C1.66209339,18.572441 0.875184808,18.3423718 0.128113879,18.0192254 L0,17.957609 L0.832740214,14.5344762 L1.40213523,14.5344762 L1.4519573,14.5755538 C1.64039875,14.7348166 1.84017298,14.8812265 2.04982206,15.0137148 C2.37376466,15.2161612 2.71985054,15.3837592 3.08185053,15.5134922 C3.51620461,15.6898077 3.96650071,15.8273125 4.42704626,15.9242681 C4.96350186,16.0455337 5.51299602,16.1052838 6.06405694,16.102271 C6.72772577,16.1358495 7.39149365,16.0379805 8.01423488,15.8147279 C8.33312601,15.7219806 8.55956126,15.4497205 8.58362989,15.1301013 C8.58362989,14.993176 8.58362989,14.7946343 8.20640569,14.6303239 C7.57667986,14.3949551 6.92642853,14.2139563 6.2633452,14.0894689 C4.97953005,13.8909247 3.76124703,13.4081155 2.70462633,12.6791382 C2.06073813,12.1495378 1.69550268,11.3716148 1.70818505,10.5567958 C1.6875441,9.18178141 2.43814521,7.90257963 3.67259786,7.20897192 C5.25813714,6.3413481 7.06767668,5.92578955 8.88967972,6.01087543 C9.84566969,6.01292264 10.7991739,6.10464024 11.7366548,6.28472605 C12.4706991,6.39999711 13.1876167,6.59998206 13.8718861,6.88035117 L14,6.94196756 L13.202847,10.2418676 L12.6548043,10.2418676 L12.6120996,10.2418676 C12.0480222,9.83489555 11.4179594,9.52030078 10.747331,9.31077549 C10.0261776,9.07073858 9.26844657,8.9481047 8.50533808,8.94792341 C7.86113986,8.91959219 7.21752994,9.01501562 6.61209964,9.2286203 C6.2702379,9.33388817 6.03571593,9.63650456 6.02846975,9.98170952 C6.02846975,10.2213288 6.19217082,10.406178 6.51957295,10.5499496 C7.11094737,10.7680637 7.72048597,10.9375455 8.34163701,11.0565732 C9.57590077,11.2507681 10.7570344,11.6814742 11.8149466,12.3231324 C12.5466285,12.8441884 12.9624549,13.6800514 12.9252669,14.555015 C12.9403704,15.9286363 12.1766129,17.2011698 10.9323843,17.8754539 C9.30111378,18.7178496 7.45566185,19.099932 5.60854093,18.9777026 Z" id="Shape" fill="#373737"></path>
                <path d="M22.4914656,19 L23.9682422,12.8306452 C24.0747405,12.3782258 24.1528393,11.9943548 24.2096384,11.6790323 C24.2629821,11.4100933 24.2914935,11.1371134 24.294837,10.8633065 C24.3320004,10.5321783 24.2179519,10.2018419 23.982442,9.95846774 C23.6169612,9.73547851 23.1839309,9.63881158 22.7541614,9.68427419 C22.3978159,9.69343233 22.0453585,9.75824995 21.7104779,9.87620968 C21.2643793,10.0231858 20.8320846,10.206647 20.4182984,10.4245968 L18.3806307,19 L14,19 L18.0611357,2 L22.4346665,2 L21.0643882,7.76491935 C21.67245,7.38485222 22.3083908,7.04807322 22.9671581,6.75725806 C23.6967476,6.4497731 24.4857088,6.29555771 25.2817214,6.30483871 C26.2699878,6.24622504 27.245166,6.54702247 28.0151781,7.14798387 C28.688858,7.76272554 29.0473662,8.63307822 28.9949626,9.5266129 C28.9949626,9.70483871 28.9807629,9.93333333 28.9523633,10.2120968 C28.9523633,10.4931452 28.8671647,10.7741935 28.8032657,11.0483871 L26.9004958,19 L22.4914656,19 Z" id="Shape" fill="#373737"></path>
                <path d="M34.9266413,18.9972244 C33.8993383,19.033162 32.8944457,18.7190584 32.1100379,18.1168267 C31.3799621,17.5330321 30.9742702,16.6851925 31.0029772,15.8032236 C30.968683,14.9206556 31.2313343,14.0494999 31.7560797,13.3053512 C32.325875,12.5791025 33.1084549,12.011749 34.0153873,11.6674021 C35.0683206,11.2601119 36.1783754,10.9868039 37.3139763,10.8552523 C38.5264713,10.6982822 39.8594627,10.575436 41.2752954,10.5003633 L41.2752954,10.4116411 C41.3007372,10.3178494 41.3133834,10.2215831 41.3129506,10.125 C41.3353154,9.72147887 41.0628365,9.35247614 40.6426893,9.21730317 C39.9166033,8.99223617 39.1497557,8.89494529 38.3833818,8.93066207 C37.617954,8.94089774 36.857721,9.0465353 36.1240743,9.24460232 C35.2956615,9.45617075 34.6555244,9.63361524 34.241318,9.770111 L33.7894565,9.770111 L33.5635258,9.770111 L34.248849,6.62388373 L34.3618144,6.62388373 C34.8663931,6.50786233 35.6420887,6.37819136 36.6738391,6.23487081 C37.7081515,6.09145018 38.7528665,6.01844817 39.7992145,6.0164776 C41.3950541,5.92928853 42.9907766,6.18902142 44.453388,6.77402907 C45.4442999,7.24413918 46.0459755,8.19101621 45.9972482,9.20365359 C45.9972482,9.35379893 45.9972482,9.54489299 45.9595931,9.77693578 C45.9363098,9.98635478 45.8960354,10.193935 45.8390967,10.3979915 L43.7379407,18.6696345 L39.1440153,18.6696345 L39.4151323,17.6049676 L38.8352433,17.946207 C38.493092,18.1522436 38.1329115,18.3325646 37.7583067,18.4853653 C37.3477282,18.6413002 36.9248001,18.769056 36.4930945,18.8675534 C35.9777987,18.9628758 35.4524667,19.0063628 34.9266413,18.9972244 Z M40.6652824,13.0323597 C40.0025522,13.086958 39.3850082,13.1483811 38.7975882,13.2166289 C38.2334768,13.2728405 37.677876,13.3849833 37.1407627,13.5510435 C36.7469084,13.66537 36.3952373,13.8754709 36.1240743,14.1584497 C35.8890416,14.4559081 35.7722293,14.8167877 35.7927092,15.1821679 C35.7583099,15.4749999 35.9177673,15.7586558 36.1993845,15.9055954 C36.6298146,16.0789299 37.0998479,16.1561635 37.5700311,16.1308134 C38.0076169,16.1226731 38.4395162,16.0392986 38.8427743,15.885121 C39.281818,15.7274855 39.6988873,15.5236174 40.0853935,15.2777149 L40.6652824,13.0323597 Z" id="Shape" fill="#373737"></path>
                <path d="M46,19 L48.8846816,7.04587851 L53.1325301,7.04587851 L52.7745267,8.54014369 C53.3570178,8.1454003 53.9744374,7.80094041 54.6196213,7.51076101 C55.3275275,7.18540735 56.1005665,7.01314896 56.8846816,7.00603143 L57.3528399,7.00603143 C57.5041882,6.99798952 57.6558806,6.99798952 57.8072289,7.00603143 L58,7.00603143 L57.0636833,10.8711974 L56.5886403,10.8711974 C56.3433498,10.8056792 56.0920143,10.7634179 55.83821,10.745015 C55.5283993,10.745015 55.2254733,10.7051679 54.9225473,10.7051679 C54.4384336,10.7028102 53.9549196,10.7383464 53.4767642,10.8114268 C53.0219838,10.883828 52.5732876,10.9881502 52.1342513,11.1235622 L50.2478485,18.9601529 L46,19 Z" id="Shape" fill="#373737"></path>
                <path d="M56,23 L59.968142,6.34670386 L64.3014934,6.34670386 L64.0556793,7.38753487 C64.6042227,7.02560617 65.1820022,6.70710933 65.7834013,6.43514048 C66.4692293,6.14336971 67.2116099,5.99723428 67.9606119,6.00656301 C69.085945,5.94130714 70.1827519,6.36526193 70.9525207,7.16304191 C71.6900611,8.05450728 72.0603841,9.17907871 71.9919632,10.319549 C71.9927513,11.4261936 71.8028558,12.5252061 71.4301024,13.5712956 C71.0898349,14.5602613 70.5688576,15.4819511 69.8920085,16.2924224 C69.255974,17.055989 68.4737991,17.6935021 67.5883791,18.1699999 C66.6978953,18.6279188 65.7029224,18.861837 64.694796,18.8502816 C64.0668362,18.8563843 63.4408681,18.7808802 62.8336321,18.6257886 C62.3670653,18.5051019 61.9168113,18.3315666 61.4921894,18.1087745 L60.3333515,22.9931972 L56,23 Z M62.0891665,15.6189435 C62.2981,15.6949787 62.5146516,15.7496973 62.7353064,15.7822111 C63.0434042,15.8372762 63.3561022,15.864604 63.6694,15.8638449 C64.2544858,15.8729827 64.8322791,15.7371662 65.3479592,15.4692815 C65.8222422,15.2196878 66.2270791,14.8625694 66.5278669,14.4284505 C66.8506187,13.9658297 67.088237,13.4525728 67.2301929,12.9114223 C67.4012948,12.2879796 67.4839919,11.6448795 67.476007,10.9998307 C67.507129,10.5153105 67.3658336,10.0350983 67.0756812,9.63926731 C66.6968378,9.29888291 66.1851116,9.13283536 65.6710291,9.18347857 C65.3019149,9.18665573 64.9360927,9.25108118 64.5894471,9.37395745 C64.1978345,9.50378544 63.8154192,9.65831323 63.4446557,9.83654901 L62.0891665,15.6189435 Z" id="Shape" fill="#FD9840"></path>
                <path d="M76.9039138,18.9974726 C75.8832986,19.0316679 74.8854608,18.7178606 74.1061435,18.1176094 C73.3763849,17.5359038 72.9717622,16.687398 73.003537,15.8054107 C72.9660081,14.9230245 73.2278733,14.0514969 73.7536094,13.3090546 C74.3181334,12.5806927 75.0984571,12.0130344 76.0038269,11.6720998 C77.0522052,11.2642236 78.1579235,10.9910495 79.2891443,10.860443 C80.496761,10.7035682 81.8243893,10.5807966 83.2345255,10.5057695 L83.2345255,10.4171011 C83.2471001,10.3219544 83.2471001,10.2257807 83.2345255,10.130634 C83.2578687,9.7291504 82.9899509,9.36094272 82.5744618,9.22348823 C81.851297,8.99855786 81.0875348,8.90132604 80.3242443,8.93702114 C79.5618961,8.94725059 78.8047218,9.05282403 78.0740269,9.25077081 C77.2414465,9.46221081 76.6113856,9.63954758 76.191345,9.77596048 L75.7413015,9.77596048 L75.5162798,9.77596048 L76.2063464,6.63164312 L76.3188573,6.63164312 C76.8139051,6.51569215 77.5864798,6.3860999 78.6215798,6.24286635 C79.6516985,6.09927781 80.6922313,6.02631864 81.7343806,6.02460571 C83.3657118,5.91500367 85.0016054,6.17269287 86.4973408,6.77487666 C87.4609848,7.24860062 88.0432603,8.18048791 87.9974858,9.17574372 C87.9943601,9.36734001 87.9793347,9.55862277 87.9524814,9.7486779 C87.9277813,9.95732245 87.8902186,10.1645414 87.8399706,10.3693566 L85.7472683,18.663261 L81.1718262,18.663261 L81.449353,17.5992403 L80.8717972,17.9402726 C80.5310225,18.1461841 80.1722912,18.3263956 79.7991936,18.4791036 C79.390267,18.6349439 78.9690405,18.762622 78.5390718,18.8610597 C78.001601,18.9635552 77.4529217,19.0093288 76.9039138,18.9974726 Z M82.6194661,13.0362288 C81.9669031,13.090794 81.3443429,13.1521798 80.7667871,13.2203862 C80.2049453,13.2765636 79.6515799,13.3886384 79.1166276,13.5545978 C78.724358,13.6688549 78.3741019,13.8788282 78.1040298,14.1616352 C77.8639467,14.4565265 77.7445716,14.8183649 77.7664972,15.184732 C77.7341949,15.4770547 77.8924985,15.7596242 78.1715363,15.9077204 C78.6009921,16.0787022 79.0685352,16.1557901 79.5366682,16.1328017 C79.9724935,16.1246663 80.402655,16.0413424 80.8042907,15.8872584 C81.2441697,15.7302025 81.6621057,15.5264448 82.049411,15.280221 L82.6194661,13.0362288 Z" id="Shape" fill="#FD9840"></path>
                <polygon id="Shape" fill="#FD9840" points="89 24 92.3372041 19.0833333 90.2505583 7 94.7239839 7 95.7601608 14.6319444 100.326485 7 105 7 93.8450201 24"></polygon>
                <path d="M139,19 L142.121689,6.64135703 L146.718543,6.64135703 L143.596854,19 L139,19 Z M142.360099,5.26817447 L143.172185,2 L148,2 L147.180464,5.26817447 L142.360099,5.26817447 Z" id="Shape" fill="#373737"></path>
                <path d="M153.205001,18.9875201 C151.5501,19.0843253 149.91494,18.6153336 148.617492,17.6717447 C147.519308,16.7339421 146.929885,15.4012398 147.006668,14.029624 C147.003948,12.9798232 147.202421,11.9376941 147.593097,10.9504382 C147.979888,9.99020354 148.578727,9.11292706 149.352384,8.37314605 C150.132987,7.62627668 151.076194,7.03712114 152.121221,6.6436474 C153.287443,6.21066322 154.536987,5.99616637 155.795682,6.01288907 C157.449387,5.9151174 159.084732,6.37616272 160.390615,7.30831747 C161.479526,8.23160134 162.066379,9.54725936 161.994016,10.9029617 C162.002956,11.9959722 161.791585,13.0811473 161.370471,14.1042298 C160.577994,16.0416553 158.940801,17.591555 156.84977,18.3838912 C155.690929,18.8047412 154.451787,19.0099619 153.205001,18.9875201 Z M155.283485,8.94286325 C154.772038,8.93207295 154.268487,9.05948027 153.83597,9.30911003 C153.38203,9.58252364 152.999378,9.94371978 152.715073,10.3671563 C152.37234,10.861908 152.121518,11.4050412 151.972758,11.9745727 C151.801492,12.6137935 151.71673,13.2698018 151.720371,13.9278888 C151.655739,14.5137204 151.847935,15.0990695 152.254838,15.5556522 C152.661289,15.8874302 153.195283,16.0581939 153.739469,16.0304165 C154.216335,16.0260638 154.683079,15.9042202 155.090483,15.6777345 C155.542388,15.4282922 155.927823,15.0900307 156.218802,14.6875117 C156.566137,14.2005689 156.829049,13.6675195 156.998233,13.1072247 C157.190849,12.4252439 157.280756,11.7224453 157.265467,11.0182616 C157.305904,10.4567023 157.135718,9.89931407 156.782962,9.43797463 C156.386278,9.0675589 155.824858,8.88489678 155.261215,8.94286325 L155.283485,8.94286325 Z" id="Shape" fill="#373737"></path>
                <path d="M121.516601,1.51821105e-05 C116.683381,-0.00722528304 112.216945,2.57576639 109.813272,6.76818567 C107.409599,10.960605 107.437369,16.1194102 109.886037,20.2857181 L108,27 L114.922614,25.2142867 C119.844697,27.9810181 125.970131,27.3856556 130.267081,23.7228788 C134.564032,20.0601021 136.120878,14.1069884 134.167047,8.81008124 C132.213215,3.51317406 127.163221,-0.00375991327 121.516601,1.51821105e-05 Z M125.445846,19.0071474 C124.495683,19.5720994 123.441011,19.9389845 122.345315,20.0857182 L121.723779,22.7500024 L117.68023,22.7500024 L118.287477,20.1214324 C117.860666,20.0815677 117.436213,20.0195795 117.01583,19.9357183 C116.205415,19.7974867 115.415702,19.5574934 114.665428,19.2214329 L114.551122,19.1642901 L115.379836,15.5928636 L115.944218,15.5928636 L115.987082,15.6357207 C116.151396,15.7714349 116.351431,15.9285777 116.594329,16.0928633 C116.92105,16.3013422 117.268133,16.4760509 117.630221,16.6142916 C118.067381,16.7950291 118.519074,16.9383992 118.980452,17.0428627 C119.521738,17.1662973 120.07557,17.2262255 120.630735,17.2214341 C121.296888,17.2704884 121.9656,17.1704429 122.588213,16.9285771 C122.959948,16.7532387 123.225454,16.4107948 123.302621,16.007149 L124.174199,12.2357226 C124.95121,12.4417486 125.687871,12.7774149 126.353144,13.2285792 C127.083724,13.7715051 127.498318,14.6406654 127.460476,15.5500064 C127.473243,16.9844192 126.700237,18.3109105 125.445846,19.0071474 Z M127.717663,11.0785804 L127.181857,11.0785804 L127.138993,11.0428661 C126.571176,10.6208596 125.939196,10.2928655 125.267244,10.0714381 C124.543226,9.82164797 123.782768,9.69371979 123.016858,9.69286687 C122.367926,9.66350031 121.719609,9.76303755 121.109389,9.98572385 C120.81197,10.1251743 120.58838,10.385118 120.494998,10.7000092 C120.423557,10.9000091 120.402124,11.000009 120.337828,11.2357231 L119.530547,14.7285783 C118.702563,14.5171755 117.926865,14.1379023 117.251585,13.6142932 C116.605286,13.06175 116.238684,12.2501265 116.251413,11.4000088 C116.232859,9.96973497 116.98638,8.64038198 118.22318,7.9214393 C119.178203,7.33540493 120.247532,6.96035151 121.359431,6.82143992 L121.973822,4.16429855 L126.017372,4.16429855 L125.402981,6.82143992 C125.695888,6.86429704 125.99594,6.9000113 126.295991,6.95715413 C127.018041,7.08131946 127.722995,7.28989256 128.396351,7.57858235 L128.5178,7.63572517 L127.717663,11.0785804 Z" id="Shape" fill="#FD9840"></path>
            </g>
        </g>
    </g>
</svg>