<?xml version="1.0" encoding="UTF-8"?>
<svg width="148px" height="41px" viewBox="0 0 148 41" version="1.1" xmlns="http://www.w3.org/2000/svg" xmlns:xlink="http://www.w3.org/1999/xlink">
    <!-- Generator: Sketch 51.2 (57519) - http://www.bohemiancoding.com/sketch -->
    <title>Wechain</title>
    <desc>Created with Sketch.</desc>
    <defs></defs>
    <g id="Page-1" stroke="none" stroke-width="1" fill="none" fill-rule="evenodd">
        <g id="Artboard-Copy-2" transform="translate(-568.000000, -842.000000)" fill="#7390A5">
            <g id="Wechain" transform="translate(568.000000, 842.000000)">
                <path d="M5.80264146,20.5359008 C5.79990976,20.5359008 5.79700732,20.5359008 5.79427561,20.5359008 C5.79427561,22.6964975 5.78539756,24.8572664 5.80895854,27.0175185 C5.81117805,27.2180395 5.97064146,27.493842 6.14034878,27.6018546 C6.84273902,28.0495815 7.58098293,28.4394261 8.29908049,28.862863 C11.2057878,30.5774555 14.1126659,32.2917034 17.0108366,34.0207664 C17.3183244,34.2040605 17.5472756,34.224216 17.8549341,34.0255899 C18.4547146,33.6381571 19.083861,33.297237 19.6996902,32.9353 C22.6830561,31.1810857 25.6624951,29.4203252 28.6542268,27.6810983 C28.9635927,27.5012496 29.0902756,27.3250185 29.0892512,26.9584303 C29.0769585,22.6959807 29.0788366,18.4333588 29.0911293,14.1709092 C29.0921537,13.8053546 28.9625683,13.6044891 28.6503,13.437216 C28.0556415,13.118863 27.4826659,12.7591655 26.9008122,12.4163504 C23.8713488,10.6309555 20.8447878,8.84090924 17.8050805,7.07325798 C17.6386171,6.97644286 17.3179829,6.9850563 17.1479341,7.08342185 C13.4720805,9.21077059 9.80510488,11.3537958 6.14837317,13.5145647 C5.97644634,13.6162034 5.81971463,13.9080269 5.81732439,14.1130269 C5.79342195,16.2538126 5.80264146,18.3949429 5.80264146,20.5359008 Z M0.0109097561,20.571905 C0.0109097561,17.3894092 0.0192756098,14.2069134 0.00271463415,11.0244176 C-1.70731707e-05,10.4867664 0.135031707,10.1816782 0.64927561,9.88227479 C6.01127561,6.75921176 11.3517634,3.59859412 16.6830317,0.422472269 C17.2469585,0.0865478992 17.657739,0.0527831933 18.2469341,0.403694958 C23.5980073,3.59049748 28.9688854,6.7440521 34.3447146,9.88864874 C34.7681293,10.1363714 34.9320317,10.3989092 34.9306659,10.8995227 C34.9132512,17.3241193 34.910861,23.748716 34.9349341,30.1733126 C34.9368122,30.6863294 34.7529341,30.9369807 34.352739,31.1700605 C31.5279829,32.8157454 28.7102268,34.4733168 25.8929829,36.1322664 C23.2264951,37.7024975 20.5623976,39.2772076 17.9003488,40.8551908 C17.616422,41.0236697 17.4026659,41.0662202 17.0711049,40.8688 C12.8272268,38.3404092 8.56832439,35.8369975 4.31215366,33.3296235 C3.0588122,32.5914513 1.81417805,31.8369134 0.538641463,31.1397412 C0.138104878,30.9206151 -0.00206585366,30.6808168 -1.70731707e-05,30.2367076 C0.0150073171,27.0151067 0.00800731707,23.7935059 0.00800731707,20.571905 L0.0109097561,20.571905 Z" id="Fill-1"></path>
                <path d="M12.3213756,16.1741068 C12.467554,16.2784377 12.5389841,16.3381047 12.6182732,16.3846657 C13.9572814,17.1712006 15.2851123,17.977567 16.6440301,18.729095 C17.0850104,18.9729363 17.5113204,19.3450789 18.1435377,18.9137867 C19.0799877,18.2750396 20.1131914,17.7752856 21.0999393,17.2075871 C21.6504224,16.8909727 22.1900775,16.5564238 22.8128639,16.183074 C21.2274306,15.2723766 19.7432919,14.4361767 18.2783641,13.5685913 C17.8031533,13.2871563 17.4002458,13.1062584 16.9032043,13.5411721 C16.6305824,13.77984 16.2522999,13.8979668 15.9295548,14.0838656 C14.7449333,14.7658971 13.5639794,15.4536194 12.3213756,16.1741068 M18.3981711,26.9591715 C18.5864391,26.907782 18.6674747,26.9022636 18.7303471,26.8658771 C20.2495896,25.9886346 21.7742462,25.1201869 23.2748016,24.212766 C23.4602753,24.1006749 23.612741,23.7800942 23.6160592,23.5538426 C23.6447011,21.5294766 23.637366,19.5044208 23.6371913,17.4795374 C23.6371913,17.3722748 23.6075016,17.2650122 23.5854962,17.1172244 C23.4445572,17.1601639 23.3457078,17.1717179 23.2667679,17.2168993 C21.7496211,18.0862092 20.2268857,18.9467242 18.7296485,19.8482819 C18.5459213,19.9589935 18.4119681,20.2928526 18.406554,20.526692 C18.3775629,21.8038412 18.3965992,23.0818527 18.3979964,24.3596917 C18.3990443,25.1989956 18.3981711,26.0384721 18.3981711,26.9591715 M11.3681596,16.9932343 C11.3010957,17.1137754 11.248702,17.1639578 11.248702,17.2143125 C11.245733,19.3761195 11.2383979,21.538099 11.2647694,23.6997335 C11.2668651,23.8776998 11.4614204,24.1156779 11.6327478,24.2193191 C12.8133524,24.9344605 14.0095004,25.6251144 15.2056485,26.3150785 C15.6186855,26.5534015 16.0462181,26.7670645 16.4954067,27.007112 C16.5385441,26.8477701 16.5663128,26.7932766 16.5661382,26.7389555 C16.5591523,24.6169839 16.5607241,22.49484 16.5231753,20.3735582 C16.5193331,20.1571361 16.3293187,19.8586288 16.1368591,19.7442958 C14.5718595,18.8148016 12.9857276,17.9201418 11.3681596,16.9932343 M10.0097657,20.4790964 C10.0097657,19.1619392 10.0219909,17.8444372 10.0001602,16.5274525 C9.99527012,16.2292901 10.1021533,16.0794329 10.3454347,15.9399225 C12.5798511,14.6584621 14.8020424,13.355963 17.0499066,12.098128 C17.2858529,11.9660329 17.7285796,11.9679298 17.9657484,12.1000249 C20.1809539,13.3333723 22.3696132,14.6131083 24.573292,15.8668046 C24.8853838,16.0442535 25.0027457,16.2567093 24.9999514,16.6145387 C24.9803911,19.1696994 24.9742785,21.7248601 24.9844079,24.2800207 C24.9858051,24.6604408 24.8656489,24.8770354 24.5254391,25.0694873 C22.335208,26.3086979 20.152312,27.561532 17.983213,28.8364394 C17.6054544,29.0585523 17.3284664,29.0506197 16.9615359,28.835922 C14.7861497,27.5627391 12.6027297,26.3026623 10.409355,25.0601751 C10.1059955,24.888417 9.99754051,24.7088987 10.0022559,24.3719355 C10.0205937,23.0746098 10.0097657,21.7767669 10.0097657,20.4790964" id="Fill-4"></path>
                <path d="M62.7890572,10.2553915 C62.9296292,10.4255938 63,10.6408549 63,10.9001186 C63,11.0300145 62.97643,11.1840238 62.9296292,11.3623226 L58.1484852,28.1972153 C58.0699751,28.4568311 57.9492426,28.6557231 57.7851006,28.7931875 C57.6209586,28.9311798 57.4296857,29 57.2109428,29 C56.9918607,29 56.8007574,28.9271316 56.636785,28.7810427 C56.472643,28.6351299 56.3590323,28.4489106 56.2968008,28.2215048 L52.5,13.8437211 L48.7265996,28.1972153 C48.6480895,28.4404621 48.527357,28.6351299 48.363215,28.7810427 C48.1992426,28.9271316 48.0076306,29 47.7890572,29 C47.5701447,29 47.3788718,28.9271316 47.2148994,28.7810427 C47.0507574,28.6351299 46.9373163,28.4489106 46.8749152,28.2215048 L42.0703708,11.3623226 C42.0234004,11.1840238 42,11.0381109 42,10.924408 C42,10.6487753 42.0780014,10.4255938 42.2343432,10.2553915 C42.3903459,10.0850132 42.5936582,10 42.8437712,10 C43.2810875,10 43.5780014,10.2432467 43.7343432,10.7297402 L47.7890572,25.3995257 L51.6328284,11.1433653 C51.6796292,10.9650665 51.7851006,10.8191537 51.9492426,10.7054508 C52.113215,10.5922759 52.2966878,10.5350724 52.5,10.5350724 C52.7029731,10.5350724 52.8827154,10.5922759 53.0390572,10.7054508 C53.1950599,10.8191537 53.3044314,10.972987 53.3671716,11.1676548 L57.2343432,25.4238152 L61.3124576,10.6324063 C61.4372598,10.2108608 61.7343432,10 62.2030296,10 C62.4529731,10 62.6483156,10.0850132 62.7890572,10.2553915" id="Fill-6"></path>
                <path d="M66.1812143,18.7073272 C65.4013539,19.4389962 64.925788,20.4033538 64.7543474,21.6014132 L73.3158875,21.6014132 C73.1908187,20.4033538 72.7545166,19.4389962 72.0059657,18.7073272 C71.2574149,17.9761648 70.2983287,17.6104147 69.1287074,17.6104147 C67.9433467,17.6104147 66.9609054,17.9761648 66.1812143,18.7073272 M72.1929765,16.8051229 C73.0818278,17.3419279 73.7721599,18.0850793 74.263296,19.0340707 C74.754432,19.9833998 75,21.0646083 75,22.2782028 C75,22.5274397 74.9218109,22.725681 74.7662788,22.8734332 C74.6102391,23.0215231 74.4071504,23.0951459 74.1580283,23.0951459 L64.707637,23.0951459 C64.832198,24.3712185 65.3312883,25.4056529 66.2047387,26.1992934 C67.0778506,26.992765 68.1696213,27.3895853 69.4795431,27.3895853 C70.0410831,27.3895853 70.6061773,27.2926598 71.1755024,27.0977957 C71.7446583,26.9036071 72.2007616,26.6584229 72.5439814,26.3625807 C72.7463931,26.2073987 72.9569283,26.1293855 73.1755871,26.1293855 C73.3470277,26.1293855 73.5184684,26.1916947 73.6900783,26.3159754 C73.8926592,26.5027342 73.9942035,26.7127957 73.9942035,26.9461597 C73.9942035,27.1486225 73.9083986,27.3276138 73.7369579,27.4829647 C73.2222974,27.9187915 72.5673366,28.2804889 71.7719061,28.5682258 C70.9766448,28.8564693 70.2123546,29 69.4795431,29 C68.2317326,29 67.1169452,28.7239144 66.1345039,28.1714056 C65.1520626,27.6194033 64.3837106,26.8492343 63.8302941,25.8608986 C63.2767083,24.8729006 63,23.7567382 63,22.5117357 C63,21.2513671 63.2609689,20.1274371 63.7835837,19.1391014 C64.30586,18.1512723 65.0310556,17.3811033 65.9591707,16.8285944 C66.8867781,16.2764233 67.9433467,16 69.1287074,16 C70.2825894,16 71.3042945,16.268318 72.1929765,16.8051229" id="Fill-8"></path>
                <path d="M81.511559,27.7190664 C80.1315409,26.8651107 79.0348622,25.7110005 78.22085,24.2558778 C77.4068378,22.8010983 77,21.2119444 77,19.4880728 C77,17.7801613 77.402968,16.1992449 78.2092405,14.7441222 C79.0151765,13.2893427 80.1081536,12.1347177 81.48834,11.2809336 C82.8681899,10.4269779 84.387354,10 86.0465054,10 C87.1627015,10 88.1779453,10.1659516 89.093078,10.4980264 C90.0075378,10.8301013 90.8912071,11.3602197 91.7440859,12.087352 C91.914527,12.2141754 92,12.395744 92,12.6329157 C92,12.7597391 91.9685365,12.8742063 91.9067874,12.976832 C91.8447017,13.0799725 91.759397,13.1547966 91.6512097,13.2021623 C91.6197463,13.3130256 91.5500892,13.4000343 91.4419019,13.4631886 C91.3332099,13.5265145 91.2169465,13.55792 91.0929434,13.55792 C90.8602483,13.55792 90.6662516,13.4868715 90.5114581,13.3446027 C89.9067537,12.7911447 89.2477033,12.3880213 88.5348117,12.1347177 C87.8215836,11.8821006 86.9919238,11.7552772 86.0465054,11.7552772 C84.7442205,11.7552772 83.5348117,12.1074309 82.4186156,12.8108804 C81.3022512,13.5146731 80.4145439,14.4594131 79.7556617,15.6454436 C79.0966114,16.8314742 78.7673386,18.1122361 78.7673386,19.4880728 C78.7673386,20.8958298 79.0929098,22.1922087 79.7440522,23.3782392 C80.3951947,24.5642698 81.2790322,25.5052343 82.3952283,26.200961 C83.5115927,26.8970311 84.7284046,27.2445512 86.0465054,27.2445512 C87.7361106,27.2445512 89.2633509,26.6912648 90.6278898,25.5841771 C90.7981627,25.4578685 90.9686038,25.3945426 91.1395498,25.3945426 C91.3719083,25.3945426 91.5733082,25.4774326 91.7440859,25.6435559 C91.914527,25.8096791 92,26.0271152 92,26.2958641 C92,26.5489961 91.914527,26.7702077 91.7440859,26.9600137 C90.2865027,28.3202334 88.3872531,29 86.0465054,29 C84.4030016,29 82.8912407,28.5730221 81.511559,27.7190664" id="Fill-10"></path>
                <path d="M105.147994,16.2765406 C106.039128,16.7630341 106.737446,17.4727091 107.242605,18.4052136 C107.747421,19.3380702 108,20.4529218 108,21.7502964 L108,28.075592 C108,28.3352077 107.91301,28.554165 107.739715,28.7324638 C107.565735,28.9111146 107.352883,29 107.100475,29 C106.832142,29 106.611413,28.9111146 106.437776,28.7324638 C106.264138,28.554165 106.17749,28.3352077 106.17749,28.075592 L106.17749,21.7502964 C106.17749,20.3070089 105.786892,19.2079983 105.005865,18.4539686 C104.224838,17.6997628 103.203048,17.322572 101.940837,17.322572 C101.167516,17.322572 100.469369,17.4769333 99.8462263,17.784776 C99.2225695,18.0931467 98.7297401,18.5189165 98.3668821,19.0620854 C98.0036817,19.6056064 97.8225095,20.209675 97.8225095,20.8744673 L97.8225095,28.075592 C97.8225095,28.3515767 97.7396293,28.5742302 97.57404,28.7446085 C97.4084507,28.9148108 97.1911469,29 96.923156,29 C96.6546513,29 96.4337514,28.9148108 96.2604564,28.7446085 C96.0866475,28.5742302 96,28.3515767 96,28.075592 L96,10.9486975 C96,10.6732408 96.0866475,10.4461871 96.2604564,10.2675362 C96.4337514,10.0892374 96.6546513,10 96.923156,10 C97.1911469,10 97.4084507,10.0892374 97.57404,10.2675362 C97.7396293,10.4461871 97.8225095,10.6732408 97.8225095,10.9486975 L97.8225095,17.4684848 C98.343251,16.8688165 98.9740999,16.3981639 99.7159125,16.0575833 C100.457383,15.7170026 101.262383,15.5468003 102.130228,15.5468003 C103.250482,15.5468003 104.256347,15.789871 105.147994,16.2765406" id="Fill-12"></path>
                <path d="M120.908404,26.7360983 C121.625156,26.3159754 122.190337,25.7366179 122.603607,24.9973502 C123.01637,24.2585891 123.223259,23.4299947 123.223259,22.5117357 C123.223259,21.5938145 123.01637,20.7652201 122.603607,20.0261213 C122.190337,19.2871913 121.625156,18.7037812 120.908404,18.275553 C120.191313,17.8478315 119.388624,17.6337174 118.500169,17.6337174 C117.611545,17.6337174 116.804796,17.8478315 116.080093,18.275553 C115.355221,18.7037812 114.786149,19.2871913 114.373217,20.0261213 C113.959947,20.7652201 113.753565,21.5938145 113.753565,22.5117357 C113.753565,23.4299947 113.959947,24.2585891 114.373217,24.9973502 C114.786149,25.7366179 115.355221,26.3159754 116.080093,26.7360983 C116.804796,27.1562212 117.611545,27.3662826 118.500169,27.3662826 C119.388624,27.3662826 120.191313,27.1562212 120.908404,26.7360983 M121.808531,16.8518971 C122.798316,17.4201099 123.577491,18.2019302 124.146731,19.1975269 C124.715633,20.1934612 125,21.2979724 125,22.5117357 L125,27.9964669 C125,28.245535 124.914402,28.4555964 124.743038,28.6266513 C124.571166,28.7980438 124.353113,28.883318 124.088369,28.883318 C123.822949,28.883318 123.604895,28.8015899 123.4337,28.6383026 C123.261829,28.4748464 123.1764,28.2612389 123.1764,27.9964669 L123.1764,26.5961136 C122.630674,27.34298 121.937097,27.9304428 121.095331,28.3581644 C120.253735,28.7863925 119.326033,29 118.312903,29 C117.128071,29 116.056579,28.7163157 115.097921,28.1481029 C114.139262,27.5803967 113.383094,26.8024602 112.829924,25.8142933 C112.276585,24.8262953 112,23.7253303 112,22.5117357 C112,21.2979724 112.284197,20.1934612 112.853438,19.1975269 C113.422171,18.2019302 114.201515,17.4201099 115.191469,16.8518971 C116.181254,16.284022 117.28421,16 118.500169,16 C119.71579,16 120.818577,16.284022 121.808531,16.8518971" id="Fill-14"></path>
                <path d="M129.74313,28.7393713 C129.54082,28.5657902 129.440263,28.3449156 129.440263,28.0762333 L129.440263,16.9684138 C129.440263,16.7000743 129.54082,16.4791996 129.74313,16.3052758 C129.944843,16.1316947 130.201513,16.0446471 130.51374,16.0446471 C130.825568,16.0446471 131.077857,16.1316947 131.270609,16.3052758 C131.463361,16.4791996 131.559538,16.7000743 131.559538,16.9684138 L131.559538,28.0762333 C131.559538,28.3449156 131.463361,28.5657902 131.270609,28.7393713 C131.077857,28.9132951 130.825568,29 130.51374,29 C130.201513,29 129.944843,28.9132951 129.74313,28.7393713 M129.426523,13.2025779 C129.141776,12.9501742 129,12.642252 129,12.2788112 C129,11.8999486 129.146555,11.5920264 129.440263,11.3552158 C129.733572,11.1184053 130.091398,11 130.51374,11 C130.917164,11 131.26583,11.1184053 131.559538,11.3552158 C131.852847,11.5920264 132,11.8999486 132,12.2788112 C132,12.642252 131.852847,12.9501742 131.559538,13.2025779 C131.26583,13.4553243 130.908204,13.5816119 130.486061,13.5816119 C130.06372,13.5816119 129.710872,13.4553243 129.426523,13.2025779" id="Fill-16"></path>
                <path d="M145.147994,16.7051574 C146.039128,17.1752623 146.737446,17.8610304 147.242605,18.7621216 C147.747421,19.6635529 148,20.7408483 148,21.9945181 L148,28.1067326 C148,28.3576026 147.91301,28.5691839 147.739715,28.7414763 C147.565735,28.9141089 147.352883,29 147.100475,29 C146.832142,29 146.611413,28.9141089 146.437776,28.7414763 C146.264138,28.5691839 146.17749,28.3576026 146.17749,28.1067326 L146.17749,21.9945181 C146.17749,20.5998509 145.786892,19.5378627 145.005865,18.8092341 C144.224838,18.0804354 143.203048,17.715951 141.940837,17.715951 C141.167516,17.715951 140.469369,17.8651124 139.846226,18.1625847 C139.222569,18.4605673 138.72974,18.8719941 138.366882,19.3968653 C138.003682,19.9220766 137.82251,20.5057959 137.82251,21.1481932 L137.82251,28.1067326 C137.82251,28.3734202 137.739629,28.5885731 137.57404,28.7532119 C137.408451,28.9176806 137.191147,29 136.923156,29 C136.654651,29 136.433751,28.9176806 136.260456,28.7532119 C136.086648,28.5885731 136,28.3734202 136,28.1067326 L136,17.0577361 C136,16.7913886 136.086648,16.5721538 136.260456,16.3995212 C136.433751,16.2272287 136.654651,16.1409975 136.923156,16.1409975 C137.191147,16.1409975 137.408451,16.2272287 137.57404,16.3995212 C137.739629,16.5721538 137.82251,16.7913886 137.82251,17.0577361 L137.82251,17.8569485 C138.343251,17.2774812 138.9741,16.8226836 139.715912,16.4935762 C140.457383,16.1644687 141.262383,16 142.130228,16 C143.250482,16 144.256347,16.2348824 145.147994,16.7051574" id="Fill-18"></path>
            </g>
        </g>
    </g>
</svg>