<?xml version="1.0" encoding="UTF-8"?>
<svg width="151px" height="46px" viewBox="0 0 151 46" version="1.1" xmlns="http://www.w3.org/2000/svg" xmlns:xlink="http://www.w3.org/1999/xlink">
    <!-- Generator: Sketch 51.2 (57519) - http://www.bohemiancoding.com/sketch -->
    <title>YDS</title>
    <desc>Created with Sketch.</desc>
    <defs></defs>
    <g id="Page-1" stroke="none" stroke-width="1" fill="none" fill-rule="evenodd">
        <g id="Artboard-Copy-2" transform="translate(-106.000000, -459.000000)">
            <g id="YDS" transform="translate(106.000000, 459.000000)">
                <g id="Group-12">
                    <path d="M30.9801062,0.014303125 C31.789108,0.1354125 32.6066333,0.216810937 33.4056763,0.385357812 C35.5197398,0.831252344 37.3890482,1.74667031 38.7743193,3.45963125 C39.2402333,4.03588906 39.5891529,4.70648281 40.0013249,5.32748281 C40.0870071,5.45676797 40.1953884,5.60042812 40.3282632,5.66430703 C42.3201286,6.62213125 43.8356725,8.1236 45.1559865,9.85641641 C47.3327641,12.7135375 48.1284875,15.9793578 47.9444725,19.5076117 C47.8237099,21.8214477 47.5885548,24.1290844 47.4316351,26.4413031 C47.3557323,27.5603969 47.3158071,28.6835336 47.3051305,29.8053227 C47.282252,32.2046 46.8317697,34.4951664 45.6794108,36.6214086 C44.5693099,38.6693969 42.984323,40.2667289 41.0081585,41.4694672 C40.2590893,41.9254242 39.4313361,42.2506586 38.6731155,42.6932289 C38.0439118,43.0604203 37.4830744,43.5439594 36.8591641,43.9215727 C33.5288613,45.9373969 29.9693249,46.5217406 26.1924875,45.5216898 C25.3186183,45.2902523 24.494723,44.8739164 23.6259679,44.6168734 C23.1209361,44.4675531 22.5741847,44.436557 22.0430445,44.4030453 C20.2864239,44.292268 18.5873136,43.9523891 16.9698482,43.2357055 C15.4782594,42.5748148 14.1906931,41.6074672 12.9574071,40.563393 C12.6467978,40.3004203 12.3235379,40.1526273 11.9302071,40.0863227 C8.61623327,39.5281234 6.47525383,37.4907367 5.08522766,34.5564398 C4.14631178,32.5745766 3.82924262,30.4557016 3.86845009,28.2750141 C3.87105196,28.1275805 3.87508935,27.9710727 3.83220336,27.8331625 C3.49970243,26.7650102 3.16128,25.698475 2.80877159,24.6367914 C2.76032299,24.4911547 2.63319028,24.3660922 2.52588561,24.2466 C1.40591551,22.9996586 0.435866916,21.6644008 0.112248224,19.9717445 C-0.224200374,18.2121547 0.208517383,16.6241664 1.24011364,15.1823539 C1.38797159,14.9758031 1.50299215,14.7369086 1.68162393,14.5627914 C2.6131828,13.6552797 2.79997907,12.3763539 3.33399028,11.2730727 C4.60648374,8.64415469 6.61387065,6.80649062 9.30330617,5.75064687 C10.4051529,5.31804922 11.6023716,5.1350375 12.7309548,4.76209609 C13.3316277,4.56363125 13.882865,4.21036562 14.448637,3.91226406 C18.1012127,1.98736172 21.9695641,0.7420375 26.0647267,0.214564844 C26.7434557,0.127146875 27.4274781,0.08006875 28.1090781,0.014303125 L30.9801062,0.014303125 Z" id="Path" fill="#1CBECE"></path>
                    <path d="M24.5864164,38.4333773 C33.104308,38.3901625 39.9125024,31.5269086 39.8820875,23.0140336 C39.851852,14.5040336 32.9546557,7.67231484 24.39648,7.74733438 C15.9547604,7.82127578 9.16890617,14.7788656 9.25064075,23.2718852 C9.33085009,31.6145063 16.23648,38.4757836 24.5864164,38.4333773 Z" id="Path" fill="#FFFFFF"></path>
                    <path d="M91.6426605,27.5187799 C92.0950591,27.5187799 92.5262755,27.5348433 92.9558695,27.5158758 C94.5010015,27.4476291 95.4659203,26.7613502 95.8468401,25.3342496 C96.3496255,23.4502045 96.3347528,21.5412021 95.8389982,19.6548882 C95.5883266,18.7012491 95.0214537,17.9724068 94.0374258,17.6804524 C93.2536828,17.4480324 92.4536249,17.4287927 91.6426605,17.5850704 L91.6426605,27.5187799 Z M90,28.6767961 L90,16.3342133 C91.3583677,16.0058667 92.7094343,15.8794469 94.0689738,16.1386392 C95.9815051,16.5032873 97.1436441,17.7217453 97.6164138,19.5703965 C98.1333507,21.5915704 98.142725,23.6409686 97.5534079,25.6537023 C96.9413763,27.7440304 95.3026818,28.9476956 93.1385776,28.9948875 C92.0872172,29.0178482 91.0450508,28.9721991 90,28.6767961 Z" id="Fill-4" fill="#2E3191"></path>
                    <path d="M68.248481,24.0153317 C68.2100556,24.0105198 68.1715385,24.005797 68.1330214,24.000985 C68.1330214,23.6752894 68.1595249,23.3470988 68.1277024,23.0243438 C68.0577297,22.3170808 67.9716165,21.6058971 67.5254601,21.0053875 C66.9741154,20.2631936 65.9401149,20.2587381 65.4017926,21.0075261 C65.2307584,21.2453596 65.0958569,21.5249856 65.0164383,21.8048788 C64.7217825,22.8429166 64.6820732,23.9013605 64.790563,24.971656 C64.8611777,25.6693842 64.9502256,26.3577559 65.3694199,26.952206 C65.9270007,27.7426973 66.9937408,27.74644 67.5514133,26.9579091 C67.6867734,26.7665907 67.8141549,26.5455989 67.8581745,26.3220229 C68.0092165,25.557017 68.1214663,24.7847931 68.248481,24.0153317 M70,24.0260248 C69.8123667,24.9644381 69.7139647,25.9306535 69.416466,26.8350269 C68.9480248,28.2589984 67.9176008,28.939172 66.6159065,28.9961131 C64.8821787,29.0719453 63.868262,28.0266006 63.4968472,26.8751262 C62.8205054,24.778199 62.7746517,22.6722717 63.7346444,20.6381668 C64.2661803,19.5117323 65.2279155,18.9848272 66.5290596,19.0003322 C67.7836164,19.0152136 68.6372285,19.5946042 69.1935254,20.6354044 C69.7566086,21.6891255 69.8690419,22.8370354 69.8761951,24.0008959 C69.9174634,24.0092722 69.95864,24.0176485 70,24.0260248" id="Fill-6" fill="#2E3191"></path>
                    <path d="M124,28.2764041 C124.170256,27.804396 124.322586,27.38197 124.435395,27.0692824 C125.134762,27.2366 125.780601,27.4548327 126.440864,27.5313385 C127.124223,27.6105101 127.743882,27.3562015 128.098734,26.6688929 C128.474765,25.9407102 128.483686,25.1666772 128.052377,24.4796352 C127.782068,24.049301 127.384026,23.6991157 127.007328,23.357905 C126.333641,22.7478132 125.537807,22.2606993 124.962255,21.5634388 C123.573776,19.8813766 124.038604,16.5856721 126.74319,16.0789209 C127.764309,15.8876119 128.756079,16.0343147 129.701492,16.6266352 C129.545744,17.0415083 129.393497,17.447318 129.27235,17.7697799 C128.682374,17.6340065 128.127083,17.4122195 127.566372,17.3956033 C126.122781,17.3525965 125.301767,18.7446296 125.97437,20.1162256 C126.212828,20.6025397 126.647139,21.0044397 127.053186,21.3671538 C127.667508,21.9159343 128.385802,22.3392489 128.969525,22.9190405 C130.010238,23.9528912 130.284798,25.6269563 129.691904,27.0565758 C129.1121,28.4545623 128.010772,28.964157 126.639802,28.9980115 C125.702727,29.0211143 124.827684,28.8466881 124,28.2764041" id="Fill-8" fill="#2E3191"></path>
                    <path d="M72.0029016,20 L73.5804437,20 L73.5804437,20.4681278 C73.5804437,22.086637 73.5754837,23.7051462 73.5842523,25.3235716 C73.5861123,25.670395 73.6157837,26.019983 73.6698121,26.3630365 C73.822686,27.3335557 74.3439277,27.7484034 75.3733026,27.7463928 C76.4247316,27.7442984 76.4247316,27.7442984 76.4247316,26.779811 L76.4247316,20.0113095 L77.9921767,20.0113095 L77.9921767,20.442493 C77.9920881,23.0237304 77.9860653,25.6049677 77.999971,28.1861213 C78.0017424,28.5055507 77.9231797,28.6889314 77.5710205,28.7245353 C76.6231312,28.8203725 75.6755076,29.001994 74.7281497,28.9999834 C73.2555645,28.9969676 72.2788895,28.0736131 72.0994442,26.6120122 C72.0180472,25.9498643 72.0123787,25.2774961 72.0068873,24.6094003 C71.9942216,23.089409 72.0029016,21.569334 72.0029016,20" id="Fill-10" fill="#2E3191"></path>
                    <path d="M149.450148,23.186964 C149.346368,22.5014038 149.284536,21.8599185 149.144215,21.2367385 C149.017585,20.674517 148.692117,20.416199 148.220484,20.3840314 C147.702106,20.348576 147.269979,20.5628191 147.099047,21.0483539 C146.860439,21.726272 146.722124,22.4408008 146.528517,23.186964 L149.450148,23.186964 Z M150.981909,24.4391887 L146.599332,24.4391887 C146.683664,25.4821466 146.654798,26.5339905 147.509109,27.2304805 C148.380514,27.9410106 149.337037,27.6047618 150.280739,27.2268373 C150.368472,27.5842349 150.483241,27.9079544 150.511235,28.2393159 C150.521526,28.3616771 150.354519,28.5692556 150.222831,28.6239938 C148.149494,29.4850538 145.708392,28.9629973 145.199171,26.0554757 C144.91068,24.4080875 144.898383,22.7575891 145.411615,21.1483221 C145.943075,19.4821843 147.353788,18.6934569 148.952788,19.1095026 C149.647941,19.2904229 150.133702,19.7229968 150.434229,20.3707911 C151.029875,21.6547392 151.027956,23.0217719 150.981909,24.4391887 Z" id="Fill-12" fill="#2E3191"></path>
                    <path d="M136.413184,26.0115194 L136.413184,25.4737766 C136.413184,24.3523116 136.244673,24.210063 135.069228,24.3389308 C134.310424,24.4221786 133.905722,24.7290369 133.72665,25.3569423 C133.318458,26.7889475 134.119781,27.7528973 135.632615,27.5920594 C136.537708,27.4957004 136.402532,27.6615673 136.412725,26.7732319 C136.415572,26.5193577 136.413184,26.2654834 136.413184,26.0115194 M136.449274,23.1191311 C136.403909,22.5706119 136.400328,22.0321506 136.306017,21.5093152 C136.188472,20.8583302 135.688816,20.4698407 134.945439,20.4832214 C134.374798,20.4936386 133.806452,20.624572 133.166661,20.7114119 C133.075105,20.3533657 132.962519,19.9133289 132.852045,19.4812847 C133.929781,18.8575102 136.236317,18.7216377 137.201467,19.7954171 C137.786618,20.4465816 137.986811,21.2032651 137.992045,22.0259542 C138.005545,24.1062502 138.00031,26.1868156 137.987913,28.2672015 C137.98727,28.3951713 137.884878,28.6087238 137.786434,28.6367425 C136.690516,28.948989 135.563558,29.102014 134.432927,28.9252809 C132.498126,28.6230026 131.783584,27.1209507 132.055682,25.4110938 C132.298576,23.8847052 133.377873,23.0492641 134.970509,23.054293 C135.426913,23.0557299 135.883224,23.0931779 136.449274,23.1191311" id="Fill-14" fill="#2E3191"></path>
                    <path d="M117.413125,26.0044962 L117.413125,25.4220731 C117.413125,24.3277173 117.3785,24.2935945 116.244399,24.3337337 C116.077609,24.3396603 115.908615,24.3595055 115.746141,24.3960528 C115.229055,24.5124297 114.885004,24.8116332 114.732817,25.3205127 C114.298115,26.7746849 115.14272,27.7776273 116.685622,27.5886945 C117.477692,27.4917137 117.411564,27.6867527 117.413033,26.8110527 C117.413493,26.5422005 117.413125,26.2733484 117.413125,26.0044962 M117.453353,23.121295 C117.401185,22.5571904 117.397695,21.9885061 117.28491,21.4413732 C117.156694,20.8183618 116.650997,20.4632147 115.917707,20.4831497 C115.348912,20.4986845 114.783331,20.6277228 114.164481,20.7134789 C114.07135,20.3466583 113.962514,19.9180573 113.855423,19.4964605 C114.778004,18.8861105 117.226221,18.6783203 118.220809,19.815599 C118.772888,20.4466921 118.983856,21.172521 118.99001,21.9637222 C119.006725,24.0738613 119.000204,26.18418 118.986979,28.2943191 C118.986152,28.4166226 118.865468,28.6186657 118.761316,28.6474906 C117.678281,28.9468737 116.566132,29.0989898 115.450584,28.9292735 C113.490891,28.6310577 112.771562,27.0996601 113.061975,25.3857951 C113.317763,23.8760385 114.384174,23.0502656 115.951874,23.0551146 C116.422487,23.0565514 116.892916,23.0954334 117.453353,23.121295" id="Fill-16" fill="#2E3191"></path>
                    <path d="M103.418733,25.9939627 C103.418733,25.5763399 103.438228,25.1572823 103.406134,24.741991 C103.397306,24.6258601 103.246953,24.4374501 103.143776,24.4253438 C102.738145,24.3777256 102.318721,24.3359365 101.916768,24.3857965 C101.038653,24.4949326 100.646724,25.0264445 100.649943,26.00302 C100.652978,26.9297356 101.064218,27.4606197 101.931482,27.5643752 C102.334538,27.6125314 102.753778,27.5739706 103.15996,27.5270698 C103.257989,27.5157706 103.397766,27.3202762 103.406962,27.2012756 C103.438044,26.8008707 103.418825,26.3966993 103.418733,25.9939627 M103.450367,23.129879 C103.413031,22.6250908 103.409721,22.1474745 103.336154,21.6803503 C103.211549,20.8893151 102.754606,20.4826328 101.931206,20.4958152 C101.361613,20.5049622 100.793951,20.638849 100.166055,20.7251177 C100.072441,20.3533195 99.9615389,19.9133672 99.8456707,19.4529688 C100.919658,19.0006412 101.99898,18.8614635 103.095037,19.1526426 C104.181715,19.4413109 104.939457,20.4094569 104.965297,21.6070847 C105.013943,23.8476487 104.99831,26.0897371 104.994908,28.3311978 C104.994724,28.4400649 104.876189,28.619866 104.778253,28.6466792 C103.678241,28.9474538 102.550917,29.10367 101.418351,28.9233308 C99.4932843,28.6166377 98.776097,27.106398 99.0596982,25.4000362 C99.3103781,23.8917694 100.382619,23.0591244 101.946195,23.0636082 C102.418496,23.0649534 102.890705,23.1040522 103.450367,23.129879" id="Fill-18" fill="#2E3191"></path>
                    <path d="M61.2918907,17 L63,17 C62.926532,17.2251554 62.873724,17.4261638 62.7969611,17.6166369 C61.8555908,19.956016 60.9078088,22.2925049 59.9720488,24.634308 C59.8894084,24.8412832 59.8437246,25.0799573 59.8422107,25.3043668 C59.8311683,26.857147 59.8363333,28.4099271 59.8363333,30 L58.2113987,30 C58.2113987,28.9652173 58.1613514,27.9405036 58.2242222,26.9233417 C58.3020538,25.66359 58.0079145,24.5457375 57.4991596,23.4020597 C56.6198586,21.4254466 55.8926588,19.374714 55.1032114,17.3544683 C55.064919,17.2564814 55.041053,17.152248 55,17.0163156 L56.719508,17.0163156 C57.4545444,19.0298486 58.1868203,21.0357366 58.9190071,23.0416245 C58.9643346,23.0406922 59.0095731,23.0397599 59.0549007,23.0388276 C59.9495186,21.0949389 60.5965715,19.0467236 61.2918907,17" id="Fill-20" fill="#2E3191"></path>
                    <path d="M143.702226,19.5586587 L143.702226,20.9063627 L141.468193,20.9063627 L141.468193,29 L140.024903,29 C140.017451,28.8494116 140.004037,28.7054326 140.004037,28.5614536 C140.002795,25.0649616 139.99054,21.5683802 140.01596,18.0720668 C140.020017,17.520981 140.133454,16.9468514 140.307748,16.4268479 C140.557225,15.6822122 141.097745,15.22089 141.833342,15.0778935 C142.478107,14.9524925 143.117822,14.9681229 143.748263,15.2012403 C143.983001,15.2880564 144.043611,15.4200669 143.971243,15.6664031 C143.880743,15.974636 143.808044,16.2890318 143.739403,16.5551964 C143.352974,16.4911562 143.003723,16.3920143 142.652816,16.384333 C142.037941,16.3708462 141.634373,16.6963173 141.54884,17.3490458 C141.455276,18.0625992 141.461817,18.7915151 141.422487,19.5586587 L143.702226,19.5586587 Z" id="Fill-22" fill="#2E3191"></path>
                    <path d="M111.770485,19.9451115 L111.770485,21.3221316 L109.504178,21.3221316 L109.504178,22.1877556 C109.504178,23.6446498 109.503332,25.1016361 109.505193,26.5586224 C109.505447,26.7422312 109.507563,26.9275904 109.529651,27.1091725 C109.680456,28.3472653 110.359925,28.7868947 111.437479,28.3492 C111.527522,28.3126257 111.617395,28.2757749 111.746028,28.2232626 C111.837764,28.5969291 111.938639,28.942497 111.998385,29.2962641 C112.013449,29.3854429 111.920275,29.5462043 111.837002,29.597519 C110.150981,30.6364336 108.236214,29.5691439 108.074238,27.4847737 C108.010345,26.6623572 108.011952,25.8324785 108.009329,25.0059163 C108.001543,22.5674104 108.012037,20.1289045 108.00002,17.6904908 C107.998497,17.3619664 108.083293,17.2246974 108.390658,17.1962302 C108.749306,17.1630645 109.103216,17.0720432 109.492584,17 L109.492584,19.9451115 L111.770485,19.9451115 Z" id="Fill-24" fill="#2E3191"></path>
                    <path d="M81.4536258,29 L80.0063741,29 L80.0063741,28.5516439 C80.0063741,25.7267228 80.0110426,22.901709 80.0000152,20.0768805 C79.9987273,19.7344069 80.0789781,19.5586772 80.3720506,19.433434 C81.5517459,18.929126 82.7383635,18.8700246 84,19.2293579 C83.9118609,19.7332953 83.8317711,20.1914707 83.7741386,20.5214385 C83.1136187,20.5129161 82.5075921,20.4851254 81.9027729,20.5054126 C81.5839429,20.5161583 81.4389762,20.7095813 81.4429203,21.1366312 C81.4650557,23.5599773 81.4536258,25.9836938 81.4536258,28.4073177 L81.4536258,29 Z" id="Fill-26" fill="#2E3191"></path>
                    <path d="M32.5420763,19.2584049 C32.5420763,18.9254757 32.5517199,18.5922739 32.5395527,18.259708 C32.5257632,17.8849014 32.3163078,17.63391 31.9490397,17.6602537 C31.0631801,17.7237509 30.3053911,17.293986 29.5630139,16.9638728 C27.9267558,16.2360613 26.3726936,15.3357443 25.0624253,14.0678879 C24.7109295,13.7278731 24.3926906,13.7454961 24.0206457,14.059894 C23.8714853,14.1859801 23.7398997,14.334413 23.5847909,14.4519602 C22.2715484,15.447296 20.9081953,16.3670529 19.367562,16.9657805 C18.6378026,17.2494744 17.8719923,17.4453258 17.1127613,17.6430849 C16.7219701,17.7449167 16.4215763,17.9484895 16.3778647,18.3332885 C16.3204537,18.8407218 16.2633131,19.3876705 16.3891306,19.8689418 C16.7040348,21.07321 16.7758661,22.3194465 17.1765713,23.5163567 C17.6304516,24.872328 18.1239878,26.1995031 18.8062502,27.4491006 C19.2220968,28.2107046 19.6182957,29.0158211 20.1869979,29.653065 C21.2453609,30.8392561 22.3313027,32.0150005 23.7199816,32.8514569 C24.2994991,33.2004649 24.7854646,33.2155443 25.3566904,32.849095 C27.6187914,31.3983774 29.2455862,29.3782735 30.4429251,27.0080715 C30.9790014,25.9467857 31.3244587,24.7873016 31.7490476,23.6696041 C32.2883684,22.2501354 32.4976436,20.7688954 32.5420763,19.2584049 M34.9993926,17.5050986 C34.9029566,19.8927419 34.4251926,22.2073497 33.6771374,24.4679984 C32.8364315,27.0085257 31.6716284,29.3819979 30.0377135,31.5061138 C28.6801285,33.270866 27.0612649,34.7314852 25.1159608,35.821204 C24.6679388,36.0721046 24.2929198,36.0513931 23.8575156,35.8063971 C21.2335542,34.3300625 19.2423754,32.2114878 17.6940814,29.6493406 C15.7313827,26.4013499 14.5878496,22.8632158 14.1180169,19.1010697 C14.0246452,18.3531825 14.0303232,17.5922144 14.0009417,16.8368783 C13.9837275,16.393124 14.2027364,16.1088851 14.6394925,16.0447519 C17.2296562,15.6643132 19.4418268,14.3950034 21.5938825,13.0089639 C22.4247646,12.4737336 23.1821029,11.8217736 23.9651274,11.2127811 C24.3535754,10.9105558 24.6846124,10.9307223 25.0908153,11.2704646 C27.5493935,13.326632 30.2432034,14.9564865 33.3367272,15.8518074 C33.5803409,15.9222085 33.8325166,15.9721706 34.0840614,16.0028746 C34.8243657,16.0931697 34.9909206,16.2682187 34.9991222,17.0056593 C35.0009248,17.1720785 34.9993926,17.3385886 34.9993926,17.5050986" id="Fill-28" fill="#2E3191"></path>
                    <path d="M24.0045035,23.0144877 C23.3351248,23.0136867 22.9638407,23.5072068 23.0998003,24.1696541 C23.1817149,24.5682972 23.2011982,24.9809139 23.2560903,25.3860543 C23.2853153,25.6022419 23.2744724,25.8563446 23.3821389,26.0205547 C23.519115,26.2293551 23.8239864,26.5420216 23.9390226,26.4946722 C24.1888325,26.391963 24.3814631,26.1033272 24.5602013,25.8603498 C24.6220396,25.7760642 24.5571517,25.5992158 24.5784986,25.4697168 C24.6465208,25.0565662 24.6863345,24.6310442 24.8133149,24.2374741 C25.0248358,23.5822361 24.6723574,23.0152888 24.0045035,23.0144877 M26.0264472,20.7213326 C25.8979421,20.2805911 25.8159428,19.8170649 25.6319526,19.4035583 C25.1481736,18.315945 23.6470271,18.0275762 22.7920488,18.8217475 C22.1132673,19.4523318 21.8064476,20.2233624 21.8898869,21.1820997 C21.9151305,21.4717145 21.9950968,21.5622303 22.2648135,21.5588482 C23.2333033,21.5464768 24.2020473,21.5597382 25.1707065,21.552618 C26.0477094,21.5461208 25.9171713,21.6771328 26.0264472,20.7213326 M23.8972606,27.9983732 C22.8255939,27.9984622 21.7539273,28.0015773 20.6822607,27.9971271 C20.1357116,27.994902 20.0039875,27.8593509 20.0027168,27.2901785 C19.9988202,25.6160373 20.002971,23.9418961 20.0000061,22.2677549 C19.9993284,21.912901 20.05439,21.6239092 20.4619299,21.5446968 C20.5483342,21.5278753 20.6476143,21.3598381 20.6687071,21.2465377 C20.7032688,21.060967 20.6845479,20.8630249 20.6779405,20.67069 C20.6200835,18.9999309 21.4788739,17.9251341 22.8011127,17.2180074 C23.9014114,16.6294324 25.8334778,17.3070992 26.5746906,18.3608914 C27.1436031,19.1698371 27.1933279,20.048294 27.1472457,20.9728543 C27.1303037,21.3132897 27.1516506,21.5571572 27.5596988,21.6242652 C27.8804957,21.6770438 27.9928212,21.9869513 27.9940071,22.304513 C27.9999368,23.9490163 28.0045112,25.5936086 27.9923129,27.2380229 C27.988501,27.7582438 27.7290342,27.992321 27.1968857,27.9959701 C26.0970107,28.0034463 24.9971356,27.9981952 23.8972606,27.9983732" id="Fill-30" fill="#2E3191"></path>
                </g>
            </g>
        </g>
    </g>
</svg>