<svg width="273" height="317" viewBox="0 0 273 317" fill="none" xmlns="http://www.w3.org/2000/svg">
<path d="M25 109.5L90 116.819M25 109.5L26.6774 105.5M25 109.5L26.1304 135.5M251.5 21.5L193 14.8743M251.5 21.5L239.757 53.5M251.5 21.5L253.5 78.5L243.927 105.5M211.5 130.5L155 124.138M211.5 130.5L224.711 94.5M211.5 130.5L214.5 188.5M155 124.138L193 14.8743M155 124.138L90 116.819M155 124.138L157.5 181.947M193 14.8743L131.75 7.93715M90 116.819L131.75 7.93715M90 116.819L93 174.531M131.75 7.93715L70.5 1L56.6613 34M56.6613 34L239.757 53.5M56.6613 34L40.8306 71.75M239.757 53.5L224.711 94.5M239.757 53.5L243.927 105.5M40.8306 71.75L224.711 94.5M40.8306 71.75L26.6774 105.5M224.711 94.5L229.214 147M214.5 188.5L227.795 151M214.5 188.5L185 185.108M93 174.531L80 173.036M93 174.531L103.5 175.738M157.5 181.947L156 181.774L103.5 175.738M157.5 181.947L181 184.648M243.927 105.5L243.395 107M229.214 147L243.395 107M229.214 147L227.795 151M26.6774 105.5L5.5 121M5.5 121L26.1304 135.5M5.5 121L9.5 174.531L31 190.634M26.1304 135.5L27.5 167L42 168.667M143 271L140 214M143 271L169 250.767M143 271L121 255.214M267.5 124.138L271.5 171L249.012 188.5M267.5 124.138L243.395 107M267.5 124.138L229.214 150.041M227.795 151L229.214 150.041M230.371 203.007L229.214 150.041M230.371 203.007L249.012 188.5M230.371 203.007L232.95 201M188.5 235.5L185 185.108M188.5 235.5L210.5 218.471M188.5 235.5L169 250.767M185 185.108L181 184.648M140 214L181 184.648M140 214L93 181.912M80 173.036L93 181.912M80 173.036L42 168.667M93 181.912L103.5 175.738M93 181.912L94.5 236M94.5 236L97.0106 238M94.5 236L68.5 217.542M43 199.5L42 168.667M43 199.5L31 190.634M43 199.5L68.5 217.542M31 190.634L1 223M1 223L56.5 231.671M1 223L7.5 282L63.5 292.316M97.0106 238L56.5 231.671M97.0106 238L121 255.214M56.5 231.671L68.5 217.542M56.5 231.671L63.5 292.316M193 316L190.5 254M193 316L124.5 303.553M193 316L216.542 269.5M249.012 188.5L233.779 226.5M233.779 226.5L232.95 201M233.779 226.5L216.542 269.5M232.95 201L210.5 218.471M190.5 254L169 250.767M190.5 254L212.39 217M210.5 218.471L212.39 217M124.5 303.553L121 255.214M124.5 303.553L63.5 292.316M216.542 269.5L212.39 217" stroke="black" stroke-width="2" stroke-linejoin="round"/>
</svg>
