<svg width="361" height="460" viewBox="0 0 361 460" fill="none" xmlns="http://www.w3.org/2000/svg">
<g clip-path="url(#clip0)">
<path d="M-17.6602 229.649L-17.6602 153.144L48.68 191.397L-17.6602 229.649Z" fill="#528958"/>
<path d="M-17.6602 229.783V229.649L48.68 191.397V268.036L-17.6602 229.783Z" fill="#4BC75A"/>
<path d="M-17.6602 382.927L-17.6602 306.288L48.68 344.675L-17.6602 382.927Z" fill="#00e28e"/>
<path d="M-17.6602 306.288L48.5463 268.036H48.68V344.675L-17.6602 306.288Z" fill="#00e28e"/>
<path d="M-17.6602 306.288L-17.6602 229.783L48.5463 268.036L-17.6602 306.288Z" fill="#00e28e"/>
<path d="M-17.6602 153.144L-17.6602 76.5052L48.68 114.892L-17.6602 153.144Z" fill="#00e28e"/>
<path d="M-17.6602 76.5052L48.5463 38.2526H48.68V114.892L-17.6602 76.5052Z" fill="#00e28e"/>
<path d="M-17.6602 76.5052L-17.6602 0L48.5463 38.2526L-17.6602 76.5052Z" fill="#8EDF98"/>
<path d="M-17.6602 153.144L48.68 114.892V191.397L-17.6602 153.144Z" fill="#00e28e"/>
<path d="M-17.6602 229.649L-17.6602 153.144L48.68 191.397L-17.6602 229.649Z" fill="#528958"/>
<path d="M-17.6602 229.783V229.649L48.68 191.397V268.036L-17.6602 229.783Z" fill="#00e28e"/>
<path d="M48.6797 268.036V191.397L115.02 229.783L48.6797 268.036Z" fill="#4BC75A"/>
<path d="M48.6797 191.397L114.886 153.144H115.02V229.783L48.6797 191.397Z" fill="#4BC75A"/>
<path d="M-17.6602 229.783V229.649L48.68 191.397V268.036L-17.6602 229.783Z" fill="#4BC75A"/>
<path d="M115.02 229.649V153.144L181.226 191.397L115.02 229.649Z" fill="#4BC75A"/>
<path d="M115.02 229.783V229.649L181.226 191.397H181.36V268.036L115.02 229.783Z" fill="#00e28e"/>
<path d="M115.02 382.927V306.288L181.36 344.675L115.02 382.927Z" fill="#00e28e"/>
<path d="M115.02 306.288L181.226 268.036H181.36V344.675L115.02 306.288Z" fill="#528958"/>
<path d="M136.953 389.214L159.289 376.374V402.187L136.953 389.214Z" fill="#528958"/>
<path d="M115.02 306.288V229.783L181.226 268.036L115.02 306.288Z" fill="#528958"/>
<path d="M48.6797 268.036L115.02 229.783V306.288L48.6797 268.036Z" fill="#00e28e"/>
<path d="M48.6797 344.541V268.036L115.02 306.288L48.6797 344.541Z" fill="#00e28e"/>
<path d="M48.6797 421.314V421.18L115.02 382.927V459.7L48.6797 421.314Z" fill="#00e28e"/>
<path d="M115.02 153.144V76.5052L181.36 114.892L115.02 153.144Z" fill="#4BC75A"/>
<path d="M115.02 76.5052L181.226 38.2526H181.36V114.892L115.02 76.5052Z" fill="#4BC75A"/>
<path d="M115.02 76.5052V0L181.226 38.2526L115.02 76.5052Z" fill="#00e28e"/>
<path d="M48.6797 38.2526L115.02 0V76.5052L48.6797 38.2526Z" fill="#00e28e"/>
<path d="M48.6797 114.758V38.2526L115.02 76.5052L48.6797 114.758Z" fill="#528958"/>
<path d="M48.6797 114.892V114.758L115.02 76.5052V153.144L48.6797 114.892Z" fill="#528958"/>
<path d="M48.6797 268.036V191.397L115.02 229.783L48.6797 268.036Z" fill="#00e28e"/>
<path d="M48.6797 191.397L114.886 153.144H115.02V229.783L48.6797 191.397Z" fill="#00e28e"/>
<path d="M48.6797 191.397V114.892L114.886 153.144L48.6797 191.397Z" fill="#00e28e"/>
<path d="M-17.6602 153.144L48.68 114.892V191.397L-17.6602 153.144Z" fill="#8EDF98"/>
<path d="M-17.6602 229.783V229.649L48.68 191.397V268.036L-17.6602 229.783Z" fill="#00e28e"/>
<path d="M115.02 153.144L181.36 114.892V191.397H181.226L115.02 153.144Z" fill="#00e28e"/>
<path d="M115.02 229.649V153.144L181.226 191.397L115.02 229.649Z" fill="#00e28e"/>
<path d="M181.359 268.036V191.397L247.7 229.783L181.359 268.036Z" fill="#00e28e"/>
<path d="M181.359 191.397L247.566 153.144H247.7V229.783L181.359 191.397Z" fill="#8EDF98"/>
<path d="M115.02 229.783V229.649L181.226 191.397H181.36V268.036L115.02 229.783Z" fill="#00e28e"/>
<path d="M247.699 229.649V153.144L313.906 191.397L247.699 229.649Z" fill="#00e28e"/>
<path d="M333.566 206.912V175.882L360.45 191.397L333.566 206.912Z" fill="#8EDF98"/>
<path d="M247.699 382.927V306.288L314.039 344.675L247.699 382.927Z" fill="#8EDF98"/>
<path d="M181.359 268.036L247.7 229.783V306.288H247.566L181.359 268.036Z" fill="#8EDF98"/>
<path d="M181.359 344.541V268.036L247.566 306.288L181.359 344.541Z" fill="#8EDF98"/>
<path d="M181.359 344.675V344.541L247.566 306.288H247.7V382.927L181.359 344.675Z" fill="#00e28e"/>
<path d="M247.699 153.144V76.5052L314.039 114.892L247.699 153.144Z" fill="#8EDF98"/>
<path d="M181.359 38.2526L247.7 0V76.5052H247.566L181.359 38.2526Z" fill="#528958"/>
<path d="M181.359 114.758V38.2526L247.566 76.5052L181.359 114.758Z" fill="#528958"/>
<path d="M181.359 114.892V114.758L247.566 76.5052H247.7V153.144L181.359 114.892Z" fill="#528958"/>
<path d="M181.359 268.036V191.397L247.7 229.783L181.359 268.036Z" fill="#41944B"/>
<path d="M181.359 191.397L247.566 153.144H247.7V229.783L181.359 191.397Z" fill="#5EBA69"/>
<path d="M181.359 191.397V114.892L247.566 153.144L181.359 191.397Z" fill="#8EDF98"/>
<path d="M115.02 153.144L181.36 114.892V191.397H181.226L115.02 153.144Z" fill="#4BC75A"/>
<path d="M115.02 229.783V229.649L181.226 191.397H181.36V268.036L115.02 229.783Z" fill="#41944B"/>
</g>
<defs>
<clipPath id="clip0">
<rect width="444.452" height="459.7" fill="white" transform="translate(-84)"/>
</clipPath>
</defs>
</svg>
