<svg width="253" height="481" viewBox="0 0 253 481" fill="none" xmlns="http://www.w3.org/2000/svg">
<path d="M1 279.819L1 200.097L70.0091 240.028L1 279.819Z" stroke="#8EDF98"/>
<path d="M70.0117 239.888V160.305L139.021 200.097L70.0117 239.888Z" stroke="#8EDF98"/>
<path d="M70.0117 240.028V239.888L139.021 200.097V279.819L70.0117 240.028Z" stroke="#8EDF98"/>
<path d="M70.0117 399.333V319.61L139.021 359.541L70.0117 399.333Z" stroke="#8EDF98"/>
<path d="M70.0117 319.611L138.882 279.819H139.021V359.542L70.0117 319.611Z" stroke="#8EDF98"/>
<path d="M70.0117 319.61V240.027L138.882 279.819L70.0117 319.61Z" stroke="#8EDF98"/>
<path d="M1 279.819L70.0091 240.027V319.61L1 279.819Z" stroke="#8EDF98"/>
<path d="M70.0117 160.305V80.5831L139.021 120.514L70.0117 160.305Z" stroke="#8EDF98"/>
<path d="M70.0117 80.5833L138.882 40.7917H139.021V120.514L70.0117 80.5833Z" stroke="#8EDF98"/>
<path d="M70.0117 80.5831V1L138.882 40.7916L70.0117 80.5831Z" stroke="#8EDF98"/>
<path d="M1 120.514V120.375L70.0091 80.5831V160.305L1 120.514Z" stroke="#8EDF98"/>
<path d="M1 279.819L1 200.097L70.0091 240.028L1 279.819Z" stroke="#8EDF98"/>
<path d="M70.0117 160.305L139.021 120.514V200.097L70.0117 160.305Z" stroke="#8EDF98"/>
<path d="M70.0117 239.889V160.306L139.021 200.097L70.0117 239.889Z" stroke="#8EDF98"/>
<path d="M70.0117 240.027V239.888L139.021 200.097V279.819L70.0117 240.027Z" stroke="#8EDF98"/>
<path d="M139.016 279.819V200.097L208.025 240.028L139.016 279.819Z" stroke="#8EDF98"/>
<path d="M139.016 200.097L207.886 160.305H208.025V240.027L139.016 200.097Z" stroke="#8EDF98"/>
<path d="M70.0117 240.028V239.888L139.021 200.097V279.819L70.0117 240.028Z" stroke="#8EDF98"/>
<path d="M208.027 239.888V160.305L276.897 200.097L208.027 239.888Z" stroke="#8EDF98"/>
<path d="M208.027 240.028V239.888L276.897 200.097H277.036V279.819L208.027 240.028Z" stroke="#8EDF98"/>
<path d="M208.027 399.333V319.61L277.036 359.541L208.027 399.333Z" stroke="#8EDF98"/>
<path d="M208.027 319.611L276.897 279.819H277.036V359.542L208.027 319.611Z" stroke="#8EDF98"/>
<path d="M230.848 405.872L254.083 392.515V419.368L230.848 405.872Z" stroke="#8EDF98"/>
<path d="M208.027 319.61V240.027L276.897 279.819L208.027 319.61Z" stroke="#8EDF98"/>
<path d="M139.016 279.819L208.025 240.027V319.61L139.016 279.819Z" stroke="#8EDF98"/>
<path d="M139.016 359.402V279.819L208.025 319.611L139.016 359.402Z" stroke="#8EDF98"/>
<path d="M139.016 439.263V439.124L208.025 399.333V479.194L139.016 439.263Z" stroke="#8EDF98"/>
<path d="M208.027 160.305V80.5831L277.036 120.514L208.027 160.305Z" stroke="#8EDF98"/>
<path d="M208.027 80.5833L276.897 40.7917H277.036V120.514L208.027 80.5833Z" stroke="#8EDF98"/>
<path d="M208.027 80.5831V1L276.897 40.7916L208.027 80.5831Z" stroke="#8EDF98"/>
<path d="M139.016 40.7916L208.025 1V80.5831L139.016 40.7916Z" stroke="#8EDF98"/>
<path d="M139.016 120.375V40.7917L208.025 80.5833L139.016 120.375Z" stroke="#8EDF98"/>
<path d="M139.016 120.514V120.375L208.025 80.5831V160.305L139.016 120.514Z" stroke="#8EDF98"/>
<path d="M139.016 279.819V200.097L208.025 240.027L139.016 279.819Z" stroke="#8EDF98"/>
<path d="M139.016 200.097L207.886 160.306H208.025V240.028L139.016 200.097Z" stroke="#8EDF98"/>
<path d="M139.016 200.097V120.514L207.886 160.305L139.016 200.097Z" stroke="#8EDF98"/>
<path d="M70.0117 160.305L139.021 120.514V200.097L70.0117 160.305Z" stroke="#8EDF98"/>
<path d="M70.0117 240.027V239.888L139.021 200.097V279.819L70.0117 240.027Z" stroke="#8EDF98"/>
<path d="M208.027 160.305L277.036 120.514V200.097H276.897L208.027 160.305Z" stroke="#8EDF98"/>
<path d="M208.027 239.889V160.306L276.897 200.097L208.027 239.889Z" stroke="#8EDF98"/>
<path d="M208.027 240.027V239.888L276.897 200.097H277.036V279.819L208.027 240.027Z" stroke="#8EDF98"/>
<path d="M208.027 240.028V239.888L276.897 200.097H277.036V279.819L208.027 240.028Z" stroke="#8EDF98"/>
<path d="M208.027 160.305L277.036 120.514V200.097H276.897L208.027 160.305Z" stroke="#8EDF98"/>
<path d="M208.027 240.027V239.888L276.897 200.097H277.036V279.819L208.027 240.027Z" stroke="#8EDF98"/>
</svg>
