<svg width="270" height="280" viewBox="0 0 270 280" fill="none" xmlns="http://www.w3.org/2000/svg">
<path d="M1 162.623L1 116.41L41.0024 139.557L1 162.623Z" stroke="#8EDF98"/>
<path d="M41.0039 139.476V93.3442L81.0063 116.41L41.0039 139.476Z" stroke="#8EDF98"/>
<path d="M41.0039 139.557V139.476L81.0063 116.41V162.623L41.0039 139.557Z" stroke="#8EDF98"/>
<path d="M41.0039 231.901V185.689L81.0063 208.835L41.0039 231.901Z" stroke="#8EDF98"/>
<path d="M41.0039 185.689L80.9257 162.623H81.0063V208.835L41.0039 185.689Z" stroke="#8EDF98"/>
<path d="M41.0039 185.689V139.557L80.9257 162.623L41.0039 185.689Z" stroke="#8EDF98"/>
<path d="M1 162.623L41.0024 139.557V185.689L1 162.623Z" stroke="#8EDF98"/>
<path d="M41.0039 93.3443V47.1318L81.0063 70.2783L41.0039 93.3443Z" stroke="#8EDF98"/>
<path d="M41.0039 47.1319L80.9257 24.066H81.0063V70.2785L41.0039 47.1319Z" stroke="#8EDF98"/>
<path d="M41.0039 47.1318V1L80.9257 24.0659L41.0039 47.1318Z" stroke="#8EDF98"/>
<path d="M1 70.2783V70.1977L41.0024 47.1318V93.3443L1 70.2783Z" stroke="#8EDF98"/>
<path d="M1 162.623L1 116.41L41.0024 139.557L1 162.623Z" stroke="#8EDF98"/>
<path d="M41.0039 93.3444L81.0063 70.2784V116.41L41.0039 93.3444Z" stroke="#8EDF98"/>
<path d="M41.0039 139.476V93.3444L81.0063 116.41L41.0039 139.476Z" stroke="#8EDF98"/>
<path d="M41.0039 139.557V139.476L81.0063 116.41V162.623L41.0039 139.557Z" stroke="#8EDF98"/>
<path d="M81.0039 162.623V116.41L121.006 139.557L81.0039 162.623Z" stroke="#8EDF98"/>
<path d="M81.0039 116.41L120.926 93.3442H121.006V139.557L81.0039 116.41Z" stroke="#8EDF98"/>
<path d="M41.0039 139.557V139.476L81.0063 116.41V162.623L41.0039 139.557Z" stroke="#8EDF98"/>
<path d="M121.008 139.476V93.3442L160.93 116.41L121.008 139.476Z" stroke="#8EDF98"/>
<path d="M121.008 139.557V139.476L160.93 116.41H161.01V162.623L121.008 139.557Z" stroke="#8EDF98"/>
<path d="M121.008 231.901V185.689L161.01 208.835L121.008 231.901Z" stroke="#8EDF98"/>
<path d="M121.008 185.689L160.93 162.623H161.01V208.835L121.008 185.689Z" stroke="#8EDF98"/>
<path d="M134.234 235.692L147.703 227.949V243.515L134.234 235.692Z" stroke="#8EDF98"/>
<path d="M121.008 185.689V139.557L160.93 162.623L121.008 185.689Z" stroke="#8EDF98"/>
<path d="M81.0039 162.623L121.006 139.557V185.689L81.0039 162.623Z" stroke="#8EDF98"/>
<path d="M81.0039 208.755V162.623L121.006 185.689L81.0039 208.755Z" stroke="#8EDF98"/>
<path d="M81.0039 255.048V254.967L121.006 231.901V278.194L81.0039 255.048Z" stroke="#8EDF98"/>
<path d="M121.008 93.3443V47.1318L161.01 70.2783L121.008 93.3443Z" stroke="#8EDF98"/>
<path d="M121.008 47.1319L160.93 24.066H161.01V70.2785L121.008 47.1319Z" stroke="#8EDF98"/>
<path d="M121.008 47.1318V1L160.93 24.0659L121.008 47.1318Z" stroke="#8EDF98"/>
<path d="M81.0039 24.0659L121.006 1V47.1318L81.0039 24.0659Z" stroke="#8EDF98"/>
<path d="M81.0039 70.1979V24.066L121.006 47.1319L81.0039 70.1979Z" stroke="#8EDF98"/>
<path d="M81.0039 70.2783V70.1977L121.006 47.1318V93.3443L81.0039 70.2783Z" stroke="#8EDF98"/>
<path d="M81.0039 162.623V116.41L121.006 139.557L81.0039 162.623Z" stroke="#8EDF98"/>
<path d="M81.0039 116.41L120.926 93.3444H121.006V139.557L81.0039 116.41Z" stroke="#8EDF98"/>
<path d="M81.0039 116.41V70.2784L120.926 93.3444L81.0039 116.41Z" stroke="#8EDF98"/>
<path d="M41.0039 93.3444L81.0063 70.2784V116.41L41.0039 93.3444Z" stroke="#8EDF98"/>
<path d="M41.0039 139.557V139.476L81.0063 116.41V162.623L41.0039 139.557Z" stroke="#8EDF98"/>
<path d="M121.008 93.3444L161.01 70.2784V116.41H160.93L121.008 93.3444Z" stroke="#8EDF98"/>
<path d="M121.008 139.476V93.3444L160.93 116.41L121.008 139.476Z" stroke="#8EDF98"/>
<path d="M121.008 139.557V139.476L160.93 116.41H161.01V162.623L121.008 139.557Z" stroke="#8EDF98"/>
<path d="M161.008 162.623V116.41L201.01 139.557L161.008 162.623Z" stroke="#8EDF98"/>
<path d="M161.008 116.41L200.93 93.3442H201.01V139.557L161.008 116.41Z" stroke="#8EDF98"/>
<path d="M121.008 139.557V139.476L160.93 116.41H161.01V162.623L121.008 139.557Z" stroke="#8EDF98"/>
<path d="M201.012 139.476V93.3442L240.934 116.41L201.012 139.476Z" stroke="#8EDF98"/>
<path d="M252.789 125.766V107.055L269 116.41L252.789 125.766Z" stroke="#8EDF98"/>
<path d="M201.012 231.901V185.689L241.014 208.835L201.012 231.901Z" stroke="#8EDF98"/>
<path d="M161.008 162.623L201.01 139.557V185.689H200.93L161.008 162.623Z" stroke="#8EDF98"/>
<path d="M161.008 208.755V162.623L200.93 185.689L161.008 208.755Z" stroke="#8EDF98"/>
<path d="M161.008 208.835V208.754L200.93 185.689H201.01V231.901L161.008 208.835Z" stroke="#8EDF98"/>
<path d="M201.012 93.3443V47.1318L241.014 70.2783L201.012 93.3443Z" stroke="#8EDF98"/>
<path d="M161.008 24.0659L201.01 1V47.1318H200.93L161.008 24.0659Z" stroke="#8EDF98"/>
<path d="M161.008 70.1979V24.066L200.93 47.1319L161.008 70.1979Z" stroke="#8EDF98"/>
<path d="M161.008 70.2783V70.1977L200.93 47.1318H201.01V93.3443L161.008 70.2783Z" stroke="#8EDF98"/>
<path d="M161.008 162.623V116.41L201.01 139.557L161.008 162.623Z" stroke="#8EDF98"/>
<path d="M161.008 116.41L200.93 93.3444H201.01V139.557L161.008 116.41Z" stroke="#8EDF98"/>
<path d="M161.008 116.41V70.2784L200.93 93.3444L161.008 116.41Z" stroke="#8EDF98"/>
<path d="M121.008 93.3444L161.01 70.2784V116.41H160.93L121.008 93.3444Z" stroke="#8EDF98"/>
<path d="M121.008 139.557V139.476L160.93 116.41H161.01V162.623L121.008 139.557Z" stroke="#8EDF98"/>
</svg>
