<svg width="338" height="338" viewBox="0 0 338 338" fill="none" xmlns="http://www.w3.org/2000/svg">
<path d="M187.553 178.973L156.539 161.076V196.871L187.553 214.768L218.444 196.871V161.076L187.553 178.973Z" fill="#91E39C"/>
<path d="M187.553 214.768L156.539 196.871V161.076L187.553 178.973V214.768Z" fill="#91E39C"/>
<path d="M218.446 196.871L187.555 214.768V178.974L218.446 161.076V196.871Z" fill="#57C666"/>
<path d="M187.553 178.973L156.539 161.076L187.553 143.179L218.444 161.076L187.553 178.973Z" fill="#91E39C"/>
<path d="M187.553 178.973L157.887 161.934L156.539 162.67L187.553 180.567L218.444 162.67L217.218 161.934L187.553 178.973Z" fill="#F0FDF2"/>
<path d="M227.764 201.897L196.75 183.999V219.794L227.764 237.691L258.655 219.794V183.999L227.764 201.897Z" fill="#91E39C"/>
<path d="M227.764 237.691L196.75 219.794V183.999L227.764 201.897V237.691Z" fill="#91E39C"/>
<path d="M258.657 219.794L227.766 237.691V201.896L258.657 183.999V219.794Z" fill="#57C666"/>
<path d="M227.764 201.897L196.75 183.999L227.764 166.224L258.655 183.999L227.764 201.897Z" fill="#91E39C"/>
<path d="M227.764 201.897L198.098 184.857L196.75 185.593L227.764 203.49L258.655 185.593L257.429 184.857L227.764 201.897Z" fill="#F0FDF2"/>
<path d="M267.971 224.82L236.957 207.045V242.717L267.971 260.614L298.862 242.717V207.045L267.971 224.82Z" fill="#91E39C"/>
<path d="M267.971 260.614L236.957 242.717V207.045L267.971 224.82V260.614Z" fill="#91E39C"/>
<path d="M298.864 242.717L267.973 260.614V224.82L298.864 207.045V242.717Z" fill="#57C666"/>
<path d="M267.971 224.82L236.957 207.045L267.971 189.147L298.862 207.045L267.971 224.82Z" fill="#91E39C"/>
<path d="M267.971 224.82L238.305 207.78L236.957 208.516L267.971 226.413L298.862 208.516V207.045L267.971 224.82Z" fill="#F0FDF2"/>
<path d="M147.346 203.49L116.332 185.593V221.387L147.346 239.162L178.237 221.387V185.593L147.346 203.49Z" fill="#91E39C"/>
<path d="M147.346 239.162L116.332 221.387V185.593L147.346 203.49V239.162Z" fill="#91E39C"/>
<path d="M178.239 221.387L147.348 239.162V203.49L178.239 185.593V221.387Z" fill="#57C666"/>
<path d="M147.346 203.49L116.332 185.593L147.346 167.695L178.237 185.593L147.346 203.49Z" fill="#91E39C"/>
<path d="M147.346 203.49L117.68 186.328L116.332 187.186L147.346 204.961L178.237 187.186L177.011 186.328L147.346 203.49Z" fill="#F0FDF2"/>
<path d="M187.553 226.414L156.539 208.516V244.311L187.553 262.208L218.444 244.311V208.516L187.553 226.414Z" fill="#91E39C"/>
<path d="M187.553 262.208L156.539 244.311V208.516L187.553 226.414V262.208Z" fill="#91E39C"/>
<path d="M218.446 244.311L187.555 262.209V226.414L218.446 208.517V244.311Z" fill="#57C666"/>
<path d="M187.553 226.414L156.539 208.516L187.553 190.619L218.444 208.516L187.553 226.414Z" fill="#91E39C"/>
<path d="M187.553 226.414L157.887 209.252L156.539 210.11L187.553 228.007L218.444 210.11L217.218 209.252L187.553 226.414Z" fill="#F0FDF2"/>
<path d="M227.764 249.337L196.75 231.439V267.234L227.764 285.131L258.655 267.234V231.439L227.764 249.337Z" fill="#91E39C"/>
<path d="M227.764 285.131L196.75 267.234V231.439L227.764 249.337V285.131Z" fill="#91E39C"/>
<path d="M258.657 267.234L227.766 285.131V249.336L258.657 231.439V267.234Z" fill="#57C666"/>
<path d="M227.764 249.337L196.75 231.439L227.764 213.665L258.655 231.439L227.764 249.337Z" fill="#91E39C"/>
<path d="M227.764 249.337L198.098 232.298L196.75 233.033L227.764 250.93L258.655 233.033V231.439L227.764 249.337Z" fill="#F0FDF2"/>
<path d="M107.139 228.007L76.125 210.11V245.782L107.139 263.679L138.153 245.782V210.11L107.139 228.007Z" fill="#91E39C"/>
<path d="M107.139 263.679L76.125 245.782V210.11L107.139 228.007V263.679Z" fill="#91E39C"/>
<path d="M138.154 245.782L107.141 263.679V228.007L138.154 210.11V245.782Z" fill="#57C666"/>
<path d="M107.139 228.007L76.125 210.11L107.139 192.212L138.03 210.11L107.139 228.007Z" fill="#91E39C"/>
<path d="M107.139 228.007L76.125 210.11V211.581L107.139 229.478L138.03 211.581L136.804 210.845L107.139 228.007Z" fill="#F0FDF2"/>
<path d="M147.346 250.93L116.332 233.033V268.828L147.346 286.602L178.237 268.828V233.033L147.346 250.93Z" fill="#91E39C"/>
<path d="M147.346 286.602L116.332 268.828V233.033L147.346 250.93V286.602Z" fill="#91E39C"/>
<path d="M178.239 268.828L147.348 286.603V250.931L178.239 233.033V268.828Z" fill="#57C666"/>
<path d="M147.346 250.93L116.332 233.033L147.346 215.136L178.237 233.033L147.346 250.93Z" fill="#91E39C"/>
<path d="M147.346 250.93L116.332 233.033V234.627L147.346 252.401L178.237 234.627L177.011 233.769L147.346 250.93Z" fill="#F0FDF2"/>
<path d="M187.553 273.853L156.539 255.956V291.751L187.553 309.525L218.444 291.751V255.956L187.553 273.853Z" fill="#91E39C"/>
<path d="M187.553 309.525L156.539 291.751V255.956L187.553 273.853V309.525Z" fill="#91E39C"/>
<path d="M218.446 291.751L187.555 309.525V273.853L218.446 255.956V291.751Z" fill="#57C666"/>
<path d="M187.553 273.853L156.539 255.956L187.553 238.059L218.444 255.956L187.553 273.853Z" fill="#91E39C"/>
<path d="M187.553 273.853L156.539 255.956V257.55L187.553 275.447L218.444 257.55V255.956L187.553 273.853Z" fill="#F0FDF2"/>
<path d="M187.553 131.533L156.539 113.636V149.43L187.553 167.328L218.444 149.43V113.636L187.553 131.533Z" fill="#91E39C"/>
<path d="M187.553 167.328L156.539 149.43V113.636L187.553 131.533V167.328Z" fill="#91E39C"/>
<path d="M218.446 149.43L187.555 167.328V131.533L218.446 113.636V149.43Z" fill="#57C666"/>
<path d="M187.553 131.533L156.539 113.636L187.553 95.7383L218.444 113.636L187.553 131.533Z" fill="#91E39C"/>
<path d="M187.553 131.533L157.887 114.494L156.539 115.229L187.553 133.126L218.444 115.229L217.218 114.494L187.553 131.533Z" fill="#F0FDF2"/>
<path opacity="0.7" d="M187.553 267.97L166.469 255.834L187.553 243.698L208.638 255.834L187.553 267.97Z" fill="#6CCA77"/>
<path opacity="0.7" d="M147.346 245.046L126.262 232.91L147.346 220.652L168.431 232.91L147.346 245.046Z" fill="#6CCA77"/>
<path opacity="0.7" d="M227.764 243.575L206.68 231.317L227.764 219.181L248.849 231.317L227.764 243.575Z" fill="#6CCA77"/>
<path opacity="0.7" d="M268.094 219.304L246.887 207.168L268.094 194.909L289.178 207.168L268.094 219.304Z" fill="#6CCA77"/>
<path opacity="0.7" d="M107.139 222.123L86.0547 209.987L107.139 197.729L128.224 209.987L107.139 222.123Z" fill="#6CCA77"/>
<path d="M227.764 154.456L196.75 136.559V172.354L227.764 190.251L258.655 172.354V136.559L227.764 154.456Z" fill="#91E39C"/>
<path d="M227.764 190.251L196.75 172.354V136.559L227.764 154.456V190.251Z" fill="#91E39C"/>
<path d="M258.657 172.353L227.766 190.251V154.456L258.657 136.559V172.353Z" fill="#57C666"/>
<path d="M227.764 154.456L196.75 136.559L227.764 118.784L258.655 136.559L227.764 154.456Z" fill="#91E39C"/>
<path d="M227.764 154.456L198.098 137.417L196.75 138.153L227.764 156.05L258.655 138.153L257.429 137.417L227.764 154.456Z" fill="#F0FDF2"/>
<path d="M267.971 177.38L236.957 159.605V195.278L267.971 213.175L298.862 195.278V159.605L267.971 177.38Z" fill="#91E39C"/>
<path d="M267.971 213.175L236.957 195.278V159.605L267.971 177.38V213.175Z" fill="#91E39C"/>
<path d="M298.864 195.277L267.973 213.175V177.38L298.864 159.605V195.277Z" fill="#57C666"/>
<path d="M267.971 177.38L236.957 159.605L267.971 141.708L298.862 159.605L267.971 177.38Z" fill="#91E39C"/>
<path d="M267.971 177.38L238.305 160.341L236.957 161.076L267.971 178.974L298.862 161.076V159.605L267.971 177.38Z" fill="#F0FDF2"/>
<path d="M147.346 156.05L116.332 138.152V173.947L147.346 191.722L178.237 173.947V138.152L147.346 156.05Z" fill="#91E39C"/>
<path d="M147.346 191.722L116.332 173.947V138.152L147.346 156.05V191.722Z" fill="#91E39C"/>
<path d="M178.239 173.947L147.348 191.722V156.05L178.239 138.152V173.947Z" fill="#57C666"/>
<path d="M147.346 156.05L116.332 138.152L147.346 120.255L178.237 138.152L147.346 156.05Z" fill="#91E39C"/>
<path d="M147.346 156.05L117.68 138.888L116.332 139.746L147.346 157.643L178.237 139.746L177.011 138.888L147.346 156.05Z" fill="#F0FDF2"/>
<path d="M187.553 178.973L156.539 161.076V196.871L187.553 214.768L218.444 196.871V161.076L187.553 178.973Z" fill="#91E39C"/>
<path d="M187.553 214.768L156.539 196.871V161.076L187.553 178.973V214.768Z" fill="#91E39C"/>
<path d="M218.446 196.871L187.555 214.768V178.974L218.446 161.076V196.871Z" fill="#57C666"/>
<path d="M187.553 178.973L156.539 161.076L187.553 143.179L218.444 161.076L187.553 178.973Z" fill="#91E39C"/>
<path d="M187.553 178.973L157.887 161.934L156.539 162.67L187.553 180.567L218.444 162.67L217.218 161.934L187.553 178.973Z" fill="#F0FDF2"/>
<path d="M227.764 201.897L196.75 183.999V219.794L227.764 237.691L258.655 219.794V183.999L227.764 201.897Z" fill="#91E39C"/>
<path d="M227.764 237.691L196.75 219.794V183.999L227.764 201.897V237.691Z" fill="#91E39C"/>
<path d="M258.657 219.794L227.766 237.691V201.896L258.657 183.999V219.794Z" fill="#57C666"/>
<path d="M227.764 201.897L196.75 183.999L227.764 166.224L258.655 183.999L227.764 201.897Z" fill="#91E39C"/>
<path d="M227.764 201.897L198.098 184.857L196.75 185.593L227.764 203.49L258.655 185.593V183.999L227.764 201.897Z" fill="#F0FDF2"/>
<path d="M107.139 180.567L76.125 162.67V198.342L107.139 216.239L138.153 198.342V162.67L107.139 180.567Z" fill="#91E39C"/>
<path d="M107.139 216.239L76.125 198.342V162.67L107.139 180.567V216.239Z" fill="#91E39C"/>
<path d="M138.154 198.342L107.141 216.239V180.567L138.154 162.67V198.342Z" fill="#57C666"/>
<path d="M107.139 180.567L76.125 162.67L107.139 144.772L138.03 162.67L107.139 180.567Z" fill="#91E39C"/>
<path d="M107.139 180.567L77.4734 163.405L76.125 164.263L107.139 182.038L138.03 164.263L136.804 163.405L107.139 180.567Z" fill="#F0FDF2"/>
<path d="M147.346 203.49L116.332 185.593V221.387L147.346 239.162L178.237 221.387V185.593L147.346 203.49Z" fill="#91E39C"/>
<path d="M147.346 239.162L116.332 221.387V185.593L147.346 203.49V239.162Z" fill="#91E39C"/>
<path d="M178.239 221.387L147.348 239.162V203.49L178.239 185.593V221.387Z" fill="#57C666"/>
<path d="M147.346 203.49L116.332 185.593L147.346 167.695L178.237 185.593L147.346 203.49Z" fill="#91E39C"/>
<path d="M147.346 203.49L116.332 185.593V187.186L147.346 204.961L178.237 187.186L177.011 186.328L147.346 203.49Z" fill="#F0FDF2"/>
<path d="M187.553 226.414L156.539 208.516V244.311L187.553 262.208L218.444 244.311V208.516L187.553 226.414Z" fill="#91E39C"/>
<path d="M187.553 262.208L156.539 244.311V208.516L187.553 226.414V262.208Z" fill="#91E39C"/>
<path d="M218.446 244.311L187.555 262.209V226.414L218.446 208.517V244.311Z" fill="#57C666"/>
<path d="M187.553 226.414L156.539 208.516L187.553 190.619L218.444 208.516L187.553 226.414Z" fill="#91E39C"/>
<path d="M187.553 226.414L156.539 208.516V210.11L187.553 228.007L218.444 210.11V208.516L187.553 226.414Z" fill="#F0FDF2"/>
<path opacity="0.7" d="M268.094 172.109L246.887 159.85L268.094 147.714L289.178 159.85L268.094 172.109Z" fill="#6CCA77"/>
<path opacity="0.7" d="M107.139 174.928L86.0547 162.67L107.139 150.534L128.224 162.67L107.139 174.928Z" fill="#6CCA77"/>
<path d="M187.553 84.093L156.539 66.1957V101.99L187.553 119.888L218.444 101.99V66.1957L187.553 84.093Z" fill="#91E39C"/>
<path d="M187.553 119.888L156.539 101.99V66.1957L187.553 84.093V119.888Z" fill="#91E39C"/>
<path d="M218.446 101.99L187.555 119.887V84.0926L218.446 66.1953V101.99Z" fill="#57C666"/>
<path d="M187.553 84.093L156.539 66.1956L187.553 48.4209L218.444 66.1956L187.553 84.093Z" fill="#91E39C"/>
<path d="M187.553 84.093L156.539 66.1957V67.7893L187.553 85.6866L218.444 67.7893V66.1957L187.553 84.093Z" fill="#F0FDF2"/>
<path d="M227.764 107.016L196.75 89.119V124.914L227.764 142.811L258.655 124.914V89.119L227.764 107.016Z" fill="#91E39C"/>
<path d="M227.764 142.811L196.75 124.914V89.119L227.764 107.016V142.811Z" fill="#91E39C"/>
<path d="M258.657 124.913L227.766 142.811V107.016L258.657 89.1187V124.913Z" fill="#57C666"/>
<path d="M227.764 107.016L196.75 89.119L227.764 71.3442L258.655 89.119L227.764 107.016Z" fill="#91E39C"/>
<path d="M227.764 107.016L196.75 89.119V90.7126L227.764 108.61L258.655 90.7126V89.119L227.764 107.016Z" fill="#F0FDF2"/>
<path d="M267.971 129.94L236.957 112.165V147.837L267.971 165.734L298.862 147.837V112.165L267.971 129.94Z" fill="#91E39C"/>
<path d="M267.971 165.734L236.957 147.837V112.165L267.971 129.94V165.734Z" fill="#91E39C"/>
<path d="M298.864 147.837L267.973 165.734V129.94L298.864 112.165V147.837Z" fill="#57C666"/>
<path d="M267.971 129.94L236.957 112.165L267.971 94.2676L298.862 112.165L267.971 129.94Z" fill="#91E39C"/>
<path d="M267.971 129.94L236.957 112.165V113.636L267.971 131.533L298.862 113.636V112.165L267.971 129.94Z" fill="#F0FDF2"/>
<path d="M147.346 108.61L116.332 90.7128V126.507L147.346 144.282L178.237 126.507V90.7128L147.346 108.61Z" fill="#91E39C"/>
<path d="M147.346 144.282L116.332 126.507V90.7128L147.346 108.61V144.282Z" fill="#91E39C"/>
<path d="M178.239 126.508L147.348 144.282V108.61L178.239 90.7129V126.508Z" fill="#57C666"/>
<path d="M147.346 108.61L116.332 90.7128L147.346 72.8154L178.237 90.7128L147.346 108.61Z" fill="#91E39C"/>
<path d="M147.346 108.61L116.332 90.7128V92.3064L147.346 110.204L178.237 92.3064V90.7128L147.346 108.61Z" fill="#F0FDF2"/>
<path d="M107.139 133.127L76.125 115.229V150.901L107.139 168.799L138.153 150.901V115.229L107.139 133.127Z" fill="#91E39C"/>
<path d="M107.139 168.799L76.125 150.901V115.229L107.139 133.127V168.799Z" fill="#91E39C"/>
<path d="M138.154 150.902L107.141 168.799V133.127L138.154 115.229V150.902Z" fill="#57C666"/>
<path d="M107.139 133.127L76.125 115.229L107.139 97.332L138.03 115.229L107.139 133.127Z" fill="#91E39C"/>
<path d="M107.139 133.127L76.125 115.229V116.823L107.139 134.598L138.03 116.823L138.153 115.229L107.139 133.127Z" fill="#F0FDF2"/>
<path opacity="0.1" d="M361.992 249.336L336.984 234.871V263.801L361.992 278.266L386.999 263.801V234.871L361.992 249.336Z" fill="#91E39C"/>
<path opacity="0.1" d="M361.992 278.266L336.984 263.801V234.871L361.992 249.336V278.266Z" fill="#91E39C"/>
<path opacity="0.1" d="M361.992 249.336L336.984 234.871L361.992 220.406L386.999 234.871L361.992 249.336Z" fill="#91E39C"/>
<g opacity="0.1">
<path opacity="0.1" d="M361.992 249.336L338.088 235.484L336.984 236.097L361.992 250.562L386.999 236.097L386.018 235.484L361.992 249.336Z" fill="#F0FDF2"/>
</g>
<path opacity="0.4" d="M361.992 236.587L336.984 222.122L361.992 207.657L386.999 222.122L361.992 236.587Z" fill="#D5D5D5"/>
<path d="M361.992 182.037L336.984 167.572V196.502L361.992 210.967L386.999 196.502V167.572L361.992 182.037Z" fill="#91E39C"/>
<path d="M361.992 210.967L336.984 196.502V167.572L361.992 182.037V210.967Z" fill="#91E39C"/>
<path d="M361.992 182.037L336.984 167.572L361.992 153.107L386.999 167.572L361.992 182.037Z" fill="#91E39C"/>
<path d="M361.992 182.037L338.088 168.185L336.984 168.921L361.992 183.386L386.999 168.921L386.018 168.185L361.992 182.037Z" fill="#F0FDF2"/>
<path d="M24.151 75.512L7.23438 65.7052V85.1961L24.151 95.0029L41.0677 85.1961V65.7052L24.151 75.512Z" fill="#91E39C"/>
<path d="M24.151 95.0029L7.23438 85.1961V65.7052L24.151 75.512V95.0029Z" fill="#91E39C"/>
<path d="M41.069 85.196L24.1523 95.0028V75.5118L41.069 65.7051V85.196Z" fill="#57C666"/>
<path d="M24.151 75.5119L7.23438 65.7052L24.151 55.8984L41.0677 65.7052L24.151 75.5119Z" fill="#91E39C"/>
<path opacity="0.4" d="M24.151 128.468L7.23438 118.784L24.151 108.978L41.0677 118.784L24.151 128.468Z" fill="#D5D5D5"/>
<path d="M24.151 75.512L7.96988 66.1956L7.23438 66.5633L24.151 76.3701L41.0677 66.5633L40.3322 66.1956L24.151 75.512Z" fill="#F0FDF2"/>
<path opacity="0.1" d="M24.151 156.05L7.23438 146.243V165.734L24.151 175.541L41.0677 165.734V146.243L24.151 156.05Z" fill="#91E39C"/>
<path opacity="0.1" d="M24.151 175.541L7.23438 165.734V146.243L24.151 156.05V175.541Z" fill="#91E39C"/>
<path opacity="0.1" d="M41.069 165.734L24.1523 175.541V156.05L41.069 146.243V165.734Z" fill="#57C666"/>
<path opacity="0.1" d="M24.151 156.05L7.23438 146.243L24.151 136.559L41.0677 146.243L24.151 156.05Z" fill="#91E39C"/>
<g opacity="0.1">
<path opacity="0.1" d="M24.151 156.05L7.96988 146.734L7.23438 147.101L24.151 156.908L41.0677 147.101L40.3322 146.734L24.151 156.05Z" fill="#F0FDF2"/>
</g>
<path opacity="0.1" d="M24.1491 309.526L0 295.674V323.5L24.1491 337.475L48.2983 323.5V295.674L24.1491 309.526Z" fill="#91E39C"/>
<path opacity="0.1" d="M24.1491 337.475L0 323.5V295.674L24.1491 309.526V337.475Z" fill="#91E39C"/>
<path opacity="0.1" d="M48.2976 323.5L24.1484 337.475V309.526L48.2976 295.674V323.5Z" fill="#57C666"/>
<path opacity="0.1" d="M24.1491 309.526L0 295.674L24.1491 281.699L48.2983 295.674L24.1491 309.526Z" fill="#91E39C"/>
<g opacity="0.1">
<path opacity="0.1" d="M24.1491 309.526L1.10326 296.286L0 296.899L24.1491 310.751L48.2983 296.899L47.3176 296.286L24.1491 309.526Z" fill="#F0FDF2"/>
</g>
<path opacity="0.4" d="M24.1491 300.577L0 286.602L24.1491 272.75L48.2983 286.602L24.1491 300.577Z" fill="#D5D5D5"/>
<path d="M24.1491 256.937L0 242.962V270.912L24.1491 284.886L48.2983 270.912V242.962L24.1491 256.937Z" fill="#91E39C"/>
<path d="M24.1491 284.886L0 270.912V242.962L24.1491 256.937V284.886Z" fill="#91E39C"/>
<path d="M48.2976 270.911L24.1484 284.886V256.936L48.2976 242.962V270.911Z" fill="#57C666"/>
<path d="M24.1491 256.937L0 242.962L24.1491 229.11L48.2983 242.962L24.1491 256.937Z" fill="#91E39C"/>
<path d="M24.1491 256.937L1.10326 243.575L0 244.188L24.1491 258.163L48.2983 244.188L47.3176 243.575L24.1491 256.937Z" fill="#F0FDF2"/>
<path d="M107.139 48.4209L76.125 30.5236V66.1956L107.139 84.0929L138.153 66.1956V30.5236L107.139 48.4209Z" fill="#91E39C"/>
<path d="M107.139 84.0929L76.125 66.1956V30.5236L107.139 48.4209V84.0929Z" fill="#91E39C"/>
<path d="M138.151 66.1955L107.137 84.0928V48.4208L138.151 30.5234V66.1955Z" fill="#57C666"/>
<path d="M107.139 48.4209L76.125 30.5235L107.139 12.6262L138.03 30.5235L107.139 48.4209Z" fill="#91E39C"/>
<path d="M107.138 61.0468C107.015 61.0468 107.015 61.0468 106.893 61.0468L104.809 59.8209C104.563 59.6983 104.563 59.4532 104.686 59.208C104.809 58.9628 105.054 58.9628 105.299 59.0854L107.138 60.1887L108.976 59.0854C109.222 58.9628 109.467 59.0854 109.589 59.208C109.712 59.4532 109.589 59.6983 109.467 59.8209L107.383 61.0468C107.26 60.9242 107.26 61.0468 107.138 61.0468Z" fill="#F0FDF2"/>
<path d="M100.641 57.2469C100.518 57.2469 100.518 57.2469 100.396 57.2469L96.1054 54.7952C95.8603 54.6726 95.8603 54.4275 95.9828 54.1823C96.1054 53.9371 96.3506 53.9371 96.5958 54.0597L100.886 56.5114C101.131 56.634 101.131 56.8792 101.009 57.1243C101.009 57.1243 100.886 57.2469 100.641 57.2469ZM91.9376 52.221C91.815 52.221 91.815 52.221 91.6924 52.221L87.4019 49.7693C87.1568 49.6467 87.1568 49.4015 87.2794 49.1564C87.4019 48.9112 87.6471 48.9112 87.8923 49.0338L92.1827 51.4855C92.4279 51.608 92.4279 51.8532 92.3053 52.0984C92.3053 52.221 92.1827 52.221 91.9376 52.221ZM83.3567 47.195C83.2341 47.195 83.2341 47.195 83.1115 47.195L78.821 44.7433C78.5759 44.6207 78.5759 44.3756 78.6984 44.1304C78.821 43.8852 79.0662 43.8852 79.3114 44.0078L83.6018 46.4595C83.847 46.5821 83.847 46.8273 83.7244 47.0724C83.6018 47.195 83.4792 47.195 83.3567 47.195ZM74.6532 42.169C74.5306 42.169 74.5306 42.169 74.408 42.169L70.1175 39.7174C69.8724 39.4722 69.7498 39.227 69.8724 38.9818C69.995 38.7367 70.2401 38.7367 70.4853 38.8593L74.7757 41.311C75.0209 41.4335 75.0209 41.6787 74.8983 41.9239C74.8983 42.169 74.7757 42.169 74.6532 42.169ZM65.9497 37.1431C65.8271 37.1431 65.8271 37.1431 65.7045 37.1431L61.414 34.6914C61.1689 34.5688 61.1689 34.3236 61.2915 34.0785C61.414 33.8333 61.6592 33.8333 61.9044 33.9559L66.1948 36.4076C66.44 36.5302 66.44 36.7753 66.3174 37.0205C66.1948 37.1431 66.0722 37.1431 65.9497 37.1431Z" fill="#F0FDF2"/>
<path d="M57.2462 32.2397C57.1236 32.2397 57.1236 32.2397 57.001 32.2397L54.917 31.0138C54.7945 30.8912 54.6719 30.7687 54.6719 30.6461C54.6719 30.5235 54.7945 30.2783 54.917 30.2783L57.001 29.0525C57.2461 28.9299 57.4913 29.0525 57.6139 29.1751C57.7365 29.4202 57.6139 29.6654 57.4913 29.788L56.0203 30.6461L57.4913 31.5042C57.7365 31.6268 57.7365 31.8719 57.6139 32.1171C57.4913 32.1171 57.3687 32.2397 57.2462 32.2397Z" fill="#F0FDF2"/>
<path d="M61.5357 27.2134C61.4131 27.2134 61.168 27.0908 61.168 26.9683C61.0454 26.7231 61.168 26.4779 61.2905 26.3553L65.581 23.9036C65.8262 23.7811 66.0713 23.9036 66.1939 24.0262C66.3165 24.2714 66.1939 24.5166 66.0713 24.6392L61.7809 27.0908C61.7809 27.2134 61.6583 27.2134 61.5357 27.2134ZM70.2392 22.1875C70.1166 22.1875 69.8715 22.0649 69.8715 21.9423C69.7489 21.6971 69.8715 21.452 69.994 21.3294L74.2845 18.8777C74.5297 18.7551 74.7748 18.8777 74.8974 19.0003C75.02 19.2454 74.8974 19.4906 74.7748 19.6132L70.4844 22.0649C70.3618 22.1875 70.3618 22.1875 70.2392 22.1875ZM78.9427 17.1615C78.8201 17.1615 78.5749 17.0389 78.5749 16.9163C78.4524 16.6712 78.5749 16.426 78.6975 16.3034L82.988 13.8517C83.2332 13.7291 83.4783 13.8517 83.6009 13.9743C83.7235 14.2195 83.6009 14.4646 83.4783 14.5872L79.1879 17.0389C79.0653 17.1615 79.0653 17.1615 78.9427 17.1615ZM87.6462 12.1355C87.5236 12.1355 87.2784 12.013 87.2784 11.8904C87.1559 11.6452 87.2784 11.4 87.401 11.2774L91.6915 8.82576C91.9367 8.70318 92.1818 8.82576 92.3044 8.94835C92.427 9.19351 92.3044 9.43868 92.1818 9.56127L87.8914 12.013C87.7688 12.1355 87.7688 12.1355 87.6462 12.1355ZM96.3497 7.10958C96.2271 7.10958 95.9819 6.98699 95.9819 6.86441C95.8594 6.61924 95.9819 6.37407 96.1045 6.25149L100.395 3.7998C100.64 3.67722 100.885 3.7998 101.008 3.92238C101.13 4.16755 101.008 4.41272 100.885 4.53531L96.5949 6.98699C96.4723 7.10958 96.3497 7.10958 96.3497 7.10958Z" fill="#F0FDF2"/>
<path d="M109.223 2.20652C109.101 2.20652 109.101 2.20652 108.978 2.20652L107.139 1.10326L105.3 2.20652C105.055 2.3291 104.81 2.20652 104.687 2.08394C104.565 1.83877 104.687 1.5936 104.81 1.47101L106.894 0.245169C107.017 0 107.262 0 107.384 0L109.468 1.22584C109.713 1.34843 109.713 1.5936 109.591 1.83877C109.591 2.08394 109.468 2.20652 109.223 2.20652Z" fill="#F0FDF2"/>
<path d="M152.74 27.2134C152.618 27.2134 152.618 27.2134 152.495 27.2134L148.205 24.7617C147.959 24.6391 147.959 24.3939 148.082 24.1487C148.205 23.9036 148.45 23.9036 148.695 24.0262L152.985 26.4778C153.231 26.6004 153.231 26.8456 153.108 27.0908C152.985 27.0908 152.863 27.2134 152.74 27.2134ZM144.037 22.1874C143.914 22.1874 143.914 22.1874 143.792 22.1874L139.501 19.7357C139.256 19.6131 139.256 19.368 139.378 19.1228C139.501 18.8776 139.746 18.8776 139.991 19.0002L144.282 21.4519C144.527 21.5745 144.527 21.8196 144.404 22.0648C144.282 22.0648 144.159 22.1874 144.037 22.1874ZM135.333 17.1614C135.211 17.1614 135.211 17.1614 135.088 17.1614L130.798 14.7097C130.552 14.5872 130.552 14.342 130.675 14.0968C130.798 13.8517 131.043 13.8517 131.288 13.9742L135.578 16.4259C135.824 16.5485 135.824 16.7937 135.701 17.0388C135.578 17.1614 135.456 17.1614 135.333 17.1614ZM126.63 12.1355C126.507 12.1355 126.507 12.1355 126.385 12.1355L122.094 9.68378C121.849 9.5612 121.849 9.31603 121.972 9.07086C122.094 8.82569 122.339 8.82569 122.584 8.94828L126.875 11.4C127.12 11.5226 127.12 11.7677 126.997 12.0129C126.997 12.1355 126.752 12.1355 126.63 12.1355ZM117.926 7.10951C117.804 7.10951 117.804 7.10951 117.681 7.10951L113.391 4.65782C113.145 4.53524 113.145 4.29007 113.268 4.0449C113.391 3.79973 113.636 3.79973 113.881 3.92232L118.171 6.374C118.417 6.49659 118.417 6.74176 118.294 6.98693C118.294 7.10951 118.049 7.10951 117.926 7.10951Z" fill="#F0FDF2"/>
<path d="M157.03 32.2397C156.908 32.2397 156.663 32.1171 156.663 31.9945C156.54 31.7493 156.663 31.5042 156.785 31.3816L158.256 30.5235L156.785 29.6654C156.54 29.5428 156.54 29.2976 156.663 29.0525C156.785 28.8073 157.03 28.8073 157.275 28.9299L159.359 30.1557C159.482 30.2783 159.605 30.4009 159.605 30.5235C159.605 30.6461 159.482 30.8912 159.359 30.8912L157.275 32.1171C157.153 32.1171 157.153 32.2397 157.03 32.2397Z" fill="#F0FDF2"/>
<path d="M113.633 57.2466C113.511 57.2466 113.266 57.124 113.266 57.0015C113.143 56.7563 113.266 56.5111 113.388 56.3885L117.679 53.9368C117.924 53.8143 118.169 53.9368 118.292 54.0594C118.414 54.3046 118.292 54.5498 118.169 54.6724L113.879 57.124C113.756 57.2466 113.633 57.2466 113.633 57.2466ZM122.337 52.2207C122.214 52.2207 121.969 52.0981 121.969 51.9755C121.847 51.7303 121.969 51.4852 122.092 51.3626L126.382 48.9109C126.627 48.7883 126.872 48.9109 126.995 49.0335C127.118 49.2786 126.995 49.5238 126.872 49.6464L122.582 52.0981C122.459 52.2207 122.337 52.2207 122.337 52.2207ZM130.918 47.1947C130.795 47.1947 130.55 47.0721 130.55 46.9495C130.427 46.7044 130.55 46.4592 130.673 46.3366L134.963 43.8849C135.208 43.7623 135.453 43.8849 135.576 44.0075C135.699 44.2527 135.576 44.4978 135.453 44.6204L131.163 47.0721C131.163 47.1947 131.04 47.1947 130.918 47.1947ZM139.621 42.1687C139.499 42.1687 139.254 42.0462 139.254 41.9236C139.131 41.6784 139.254 41.4332 139.376 41.3107L143.667 38.859C143.912 38.7364 144.157 38.859 144.279 38.9815C144.402 39.2267 144.279 39.4719 144.157 39.5945L139.866 42.0462C139.866 42.1687 139.744 42.1687 139.621 42.1687ZM148.325 37.1428C148.202 37.1428 147.957 37.0202 147.957 36.8976C147.834 36.6524 147.957 36.4073 148.08 36.2847L152.37 33.833C152.615 33.7104 152.86 33.833 152.983 33.9556C153.106 34.2008 152.983 34.4459 152.86 34.5685L148.57 37.0202C148.447 37.1428 148.447 37.1428 148.325 37.1428Z" fill="#F0FDF2"/>
<path d="M107.139 48.4209L76.125 30.5236V31.9946L107.139 49.8919L138.03 31.9946L138.153 30.5236L107.139 48.4209Z" fill="#F0FDF2"/>
<path d="M55.1622 168.799C54.917 168.799 54.6719 168.554 54.6719 168.308V167.573C54.6719 167.328 54.917 167.083 55.1622 167.083C55.4074 167.083 55.6526 167.328 55.6526 167.573V168.308C55.53 168.554 55.4074 168.799 55.1622 168.799ZM55.1622 163.16C54.917 163.16 54.6719 162.915 54.6719 162.67V157.766C54.6719 157.521 54.917 157.276 55.1622 157.276C55.4074 157.276 55.6526 157.521 55.6526 157.766V162.67C55.53 162.915 55.4074 163.16 55.1622 163.16ZM55.1622 153.353C54.917 153.353 54.6719 153.108 54.6719 152.863V147.959C54.6719 147.714 54.917 147.469 55.1622 147.469C55.4074 147.469 55.6526 147.714 55.6526 147.959V152.863C55.53 153.108 55.4074 153.353 55.1622 153.353ZM55.1622 143.546C54.917 143.546 54.6719 143.301 54.6719 143.056V138.153C54.6719 137.908 54.917 137.662 55.1622 137.662C55.4074 137.662 55.6526 137.908 55.6526 138.153V143.056C55.53 143.301 55.4074 143.546 55.1622 143.546ZM55.1622 133.74C54.917 133.74 54.6719 133.494 54.6719 133.249V128.346C54.6719 128.101 54.917 127.856 55.1622 127.856C55.4074 127.856 55.6526 128.101 55.6526 128.346V133.249C55.53 133.494 55.4074 133.74 55.1622 133.74ZM55.1622 123.933C54.917 123.933 54.6719 123.688 54.6719 123.443V118.539C54.6719 118.294 54.917 118.049 55.1622 118.049C55.4074 118.049 55.6526 118.294 55.6526 118.539V123.443C55.53 123.688 55.4074 123.933 55.1622 123.933ZM55.1622 114.126C54.917 114.126 54.6719 113.881 54.6719 113.636V108.732C54.6719 108.487 54.917 108.242 55.1622 108.242C55.4074 108.242 55.6526 108.487 55.6526 108.732V113.636C55.53 113.881 55.4074 114.126 55.1622 114.126ZM55.1622 104.319C54.917 104.319 54.6719 104.074 54.6719 103.829V98.9256C54.6719 98.6805 54.917 98.4353 55.1622 98.4353C55.4074 98.4353 55.6526 98.6805 55.6526 98.9256V103.829C55.53 104.074 55.4074 104.319 55.1622 104.319ZM55.1622 94.5126C54.917 94.5126 54.6719 94.2674 54.6719 94.0223V89.1189C54.6719 88.8737 54.917 88.6286 55.1622 88.6286C55.4074 88.6286 55.6526 88.8737 55.6526 89.1189V94.0223C55.53 94.2674 55.4074 94.5126 55.1622 94.5126ZM55.1622 84.7059C54.917 84.7059 54.6719 84.4607 54.6719 84.2155V79.3121C54.6719 79.067 54.917 78.8218 55.1622 78.8218C55.4074 78.8218 55.6526 79.067 55.6526 79.3121V84.2155C55.53 84.4607 55.4074 84.7059 55.1622 84.7059ZM55.1622 74.8991C54.917 74.8991 54.6719 74.6539 54.6719 74.4088V69.5054C54.6719 69.2602 54.917 69.0151 55.1622 69.0151C55.4074 69.0151 55.6526 69.2602 55.6526 69.5054V74.4088C55.53 74.6539 55.4074 74.8991 55.1622 74.8991ZM55.1622 65.0924C54.917 65.0924 54.6719 64.8472 54.6719 64.602V61.1697C54.6719 61.0471 54.7945 60.8019 54.917 60.8019L56.1429 60.0664C56.3881 59.9438 56.6332 60.0664 56.7558 60.189C56.8784 60.4341 56.7558 60.6793 56.6332 60.8019L55.6526 61.4148V64.602C55.53 64.8472 55.4074 65.0924 55.1622 65.0924ZM60.6785 58.4728C60.5559 58.4728 60.3108 58.3502 60.3108 58.2276C60.1882 57.9825 60.3108 57.7373 60.4333 57.6147L64.7238 55.163C64.969 55.0404 65.2141 55.163 65.3367 55.2856C65.4593 55.5308 65.3367 55.7759 65.2141 55.8985L60.9237 58.3502C60.8011 58.4728 60.6785 58.4728 60.6785 58.4728ZM69.2594 53.692C69.1368 53.692 68.8917 53.5694 68.8917 53.4468C68.7691 53.2017 68.8917 52.9565 69.0143 52.8339L73.3047 50.3822C73.5499 50.2596 73.795 50.3822 73.9176 50.5048C74.0402 50.75 73.9176 50.9952 73.795 51.1177L69.5046 53.5694C69.382 53.692 69.2594 53.692 69.2594 53.692ZM77.7177 48.9112C77.5952 48.9112 77.35 48.7886 77.35 48.666C77.2274 48.4209 77.35 48.1757 77.4726 48.0531L81.763 45.6014C82.0082 45.4789 82.2534 45.6014 82.3759 45.724C82.4985 45.9692 82.3759 46.2144 82.2534 46.3369L77.9629 48.7886C77.9629 48.9112 77.8403 48.9112 77.7177 48.9112Z" fill="#F0FDF2"/>
</svg>
