<svg width="282" height="450" viewBox="0 0 282 450" fill="none" xmlns="http://www.w3.org/2000/svg">
<path d="M-22.7383 262.13L-22.7383 187.465L41.8926 224.863L-22.7383 262.13Z" stroke="#8EDF98"/>
<path d="M-22.7383 187.465L41.7623 150.198H41.8926V224.862L-22.7383 187.465Z" stroke="#8EDF98"/>
<path d="M41.8945 224.732V150.198L106.395 187.465L41.8945 224.732Z" stroke="#8EDF98"/>
<path d="M41.8945 224.863V224.732L106.395 187.465H106.525V262.13L41.8945 224.863Z" stroke="#8EDF98"/>
<path d="M41.8945 374.061V299.396L106.525 336.794L41.8945 374.061Z" stroke="#8EDF98"/>
<path d="M41.8945 299.397L106.395 262.13H106.525V336.794L41.8945 299.397Z" stroke="#8EDF98"/>
<path d="M63.2578 380.185L85.0186 367.676V392.825L63.2578 380.185Z" stroke="#8EDF98"/>
<path d="M41.8945 299.397V224.863L106.395 262.13L41.8945 299.397Z" stroke="#8EDF98"/>
<path d="M-22.7383 262.13L41.8926 224.863V299.397L-22.7383 262.13Z" stroke="#8EDF98"/>
<path d="M-22.7383 336.664L-22.7383 262.13L41.8926 299.397L-22.7383 336.664Z" stroke="#8EDF98"/>
<path d="M-22.7383 411.458V411.328L41.8926 374.061V448.855L-22.7383 411.458Z" stroke="#8EDF98"/>
<path d="M41.8945 150.198V75.5339L106.525 112.931L41.8945 150.198Z" stroke="#8EDF98"/>
<path d="M41.8945 75.5341L106.395 38.2671H106.525V112.931L41.8945 75.5341Z" stroke="#8EDF98"/>
<path d="M41.8945 75.534V1L106.395 38.267L41.8945 75.534Z" stroke="#8EDF98"/>
<path d="M-22.7383 38.267L41.8926 1V75.534L-22.7383 38.267Z" stroke="#8EDF98"/>
<path d="M-22.7383 112.801L-22.7383 38.2671L41.8926 75.5341L-22.7383 112.801Z" stroke="#8EDF98"/>
<path d="M-22.7383 112.931V112.801L41.8926 75.5339V150.198L-22.7383 112.931Z" stroke="#8EDF98"/>
<path d="M-22.7383 262.13L-22.7383 187.465L41.8926 224.863L-22.7383 262.13Z" stroke="#8EDF98"/>
<path d="M-22.7383 187.465L41.7623 150.198H41.8926V224.863L-22.7383 187.465Z" stroke="#8EDF98"/>
<path d="M-22.7383 187.465L-22.7383 112.931L41.7623 150.198L-22.7383 187.465Z" stroke="#8EDF98"/>
<path d="M41.8945 150.198L106.525 112.931V187.465H106.395L41.8945 150.198Z" stroke="#8EDF98"/>
<path d="M41.8945 224.732V150.198L106.395 187.465L41.8945 224.732Z" stroke="#8EDF98"/>
<path d="M41.8945 224.863V224.732L106.395 187.465H106.525V262.13L41.8945 224.863Z" stroke="#8EDF98"/>
<path d="M106.527 262.13V187.465L171.158 224.863L106.527 262.13Z" stroke="#8EDF98"/>
<path d="M106.527 187.465L171.028 150.198H171.158V224.862L106.527 187.465Z" stroke="#8EDF98"/>
<path d="M41.8945 224.863V224.732L106.395 187.465H106.525V262.13L41.8945 224.863Z" stroke="#8EDF98"/>
<path d="M171.152 224.732V150.198L235.653 187.465L171.152 224.732Z" stroke="#8EDF98"/>
<path d="M254.805 202.581V172.35L280.996 187.465L254.805 202.581Z" stroke="#8EDF98"/>
<path d="M171.152 374.061V299.396L235.783 336.794L171.152 374.061Z" stroke="#8EDF98"/>
<path d="M106.527 262.13L171.158 224.863V299.397H171.028L106.527 262.13Z" stroke="#8EDF98"/>
<path d="M106.527 336.664V262.13L171.028 299.397L106.527 336.664Z" stroke="#8EDF98"/>
<path d="M106.527 336.794V336.663L171.028 299.396H171.158V374.061L106.527 336.794Z" stroke="#8EDF98"/>
<path d="M171.152 150.198V75.5339L235.783 112.931L171.152 150.198Z" stroke="#8EDF98"/>
<path d="M106.527 38.267L171.158 1V75.534H171.028L106.527 38.267Z" stroke="#8EDF98"/>
<path d="M106.527 112.801V38.2671L171.028 75.5341L106.527 112.801Z" stroke="#8EDF98"/>
<path d="M106.527 112.931V112.801L171.028 75.5339H171.158V150.198L106.527 112.931Z" stroke="#8EDF98"/>
<path d="M106.527 262.13V187.465L171.158 224.863L106.527 262.13Z" stroke="#8EDF98"/>
<path d="M106.527 187.465L171.028 150.198H171.158V224.863L106.527 187.465Z" stroke="#8EDF98"/>
<path d="M106.527 187.465V112.931L171.028 150.198L106.527 187.465Z" stroke="#8EDF98"/>
<path d="M41.8945 150.198L106.525 112.931V187.465H106.395L41.8945 150.198Z" stroke="#8EDF98"/>
<path d="M41.8945 224.863V224.732L106.395 187.465H106.525V262.13L41.8945 224.863Z" stroke="#8EDF98"/>
</svg>
