<svg width="1317" height="831" viewBox="0 0 1317 831" fill="none" xmlns="http://www.w3.org/2000/svg">
<path d="M986.347 231.176C888.439 294.24 835.785 362.703 687.643 382.614C539.501 402.525 345.585 336.584 201.211 231.176C56.8368 125.767 6.91446 73.1384 0 60L90.2337 590.063C212.62 561.02 496.804 778.842 648.23 809.959C799.657 841.076 1030.95 846.232 1140.89 765.327C1250.83 684.422 1333.8 582.772 1314.09 411.657C1294.39 240.541 1108.73 152.345 986.347 231.176Z" fill="url(#paint0_linear)"/>
<path d="M506.678 221.113C401.02 170.24 256.229 160.462 160.354 289.596C64.4784 418.731 154.484 632 314.928 714.176C475.372 796.353 733.648 821.782 880.396 786.566C1027.14 751.351 1099.54 643.739 1093.67 555.69C1087.8 467.64 972.358 389.383 802.131 391.34C631.903 393.296 612.337 271.987 506.678 221.113Z" fill="url(#paint1_linear)"/>
<circle cx="673" cy="254" r="15" fill="#F4F7FC"/>
<circle cx="1140.5" cy="102.5" r="33.5" fill="#F4F7FC"/>
<rect opacity="0.36" x="710" y="214" width="5" height="138" fill="url(#paint2_linear)"/>
<rect opacity="0.36" x="1222" width="5" height="138" fill="url(#paint3_linear)"/>
<defs>
<linearGradient id="paint0_linear" x1="1286" y1="874" x2="948" y2="482" gradientUnits="userSpaceOnUse">
<stop offset="0.0371224" stop-color="#EFF6FF"/>
<stop offset="1" stop-color="#EAF3FF" stop-opacity="0"/>
</linearGradient>
<linearGradient id="paint1_linear" x1="307.101" y1="107.632" x2="825.595" y2="698.534" gradientUnits="userSpaceOnUse">
<stop stop-color="#F0F6FF"/>
<stop offset="1" stop-color="#D7E6FC" stop-opacity="0"/>
</linearGradient>
<linearGradient id="paint2_linear" x1="712.5" y1="214" x2="712.5" y2="352" gradientUnits="userSpaceOnUse">
<stop stop-color="#DBE3EF"/>
<stop offset="1" stop-color="#ECF2FC" stop-opacity="0"/>
</linearGradient>
<linearGradient id="paint3_linear" x1="1224.5" y1="0" x2="1224.5" y2="138" gradientUnits="userSpaceOnUse">
<stop stop-color="#DBE3EF"/>
<stop offset="1" stop-color="#ECF2FC" stop-opacity="0"/>
</linearGradient>
</defs>
</svg>
