<svg width="15" height="15" viewBox="0 0 15 15" fill="none" xmlns="http://www.w3.org/2000/svg">
<g clip-path="url(#clip0)">
<path d="M13.5548 4.45307C13.4246 4.14061 13.2685 3.89331 13.0861 3.711L10.0392 0.663987C9.85679 0.481845 9.60955 0.325529 9.29702 0.195242C8.98463 0.065092 8.69816 0 8.43786 0H2.18746C1.92709 0 1.70571 0.0910878 1.52343 0.2734C1.34112 0.45561 1.25 0.676984 1.25 0.937455V14.0625C1.25 14.3231 1.34112 14.5445 1.52343 14.7267C1.70575 14.9088 1.92709 15 2.18749 15H12.8127C13.073 15 13.2942 14.9088 13.4765 14.7267C13.6587 14.5443 13.7499 14.3231 13.7499 14.0625V5.31247C13.75 5.05204 13.6849 4.76554 13.5548 4.45307ZM8.75012 1.32804C8.93883 1.39313 9.07226 1.46483 9.15045 1.54285L12.2072 4.59961C12.2852 4.6778 12.3568 4.8112 12.4219 5.00001H8.75012V1.32804ZM12.5001 13.7501H2.49995V1.25002H7.49996V5.31258C7.49996 5.57301 7.59102 5.79432 7.77333 5.97663C7.95571 6.15884 8.17695 6.25007 8.43749 6.25007H12.5001V13.7501Z" fill="#565F6D"/>
</g>
<defs>
<clipPath id="clip0">
<rect width="15" height="15" fill="white"/>
</clipPath>
</defs>
</svg>
