<svg width="27" height="27" viewBox="0 0 27 27" fill="none" xmlns="http://www.w3.org/2000/svg">
<path d="M22.7812 2.53133H19.4063V1.68754C19.4063 1.18132 19.0688 0.84375 18.5625 0.84375C18.0562 0.84375 17.7187 1.18123 17.7187 1.68754V2.53133H9.2813V1.68754C9.2813 1.18132 8.94382 0.84375 8.43751 0.84375C7.93129 0.84375 7.59372 1.18123 7.59372 1.68754V2.53133H4.21875C1.85622 2.53133 0 4.38755 0 6.75008V21.9376C0 24.3001 1.85622 26.1564 4.21875 26.1564H22.7812C25.1438 26.1564 27 24.3001 27 21.9376V6.75008C27 4.38755 25.1438 2.53133 22.7812 2.53133ZM1.68748 6.75008C1.68748 5.40008 2.86875 4.21881 4.21875 4.21881H7.59372V5.0626C7.59372 5.56882 7.93119 5.90639 8.43751 5.90639C8.94372 5.90639 9.2813 5.56891 9.2813 5.0626V4.21881H17.7188V5.0626C17.7188 5.56882 18.0563 5.90639 18.5626 5.90639C19.0689 5.90639 19.4064 5.56891 19.4064 5.0626V4.21881H22.7813C24.1313 4.21881 25.3126 5.40008 25.3126 6.75008V9.28135H1.68748V6.75008ZM25.3125 21.9376C25.3125 23.2876 24.1313 24.4689 22.7812 24.4689H4.21875C2.86875 24.4689 1.68748 23.2876 1.68748 21.9376V10.9688H25.3125V21.9376Z" fill="#3B4352"/>
<path d="M5.90623 21.9375C6.41245 21.9375 6.75002 21.7687 7.0875 21.4313C7.42498 21.0938 7.59371 20.5875 7.59371 20.25C7.59371 19.9125 7.42498 19.4062 7.0875 19.0687C6.41254 18.3938 5.40002 18.3938 4.72497 19.0687C4.38749 19.4062 4.21875 19.7437 4.21875 20.25C4.21875 20.5875 4.38749 21.0938 4.72497 21.4313C5.06244 21.7687 5.40002 21.9375 5.90623 21.9375Z" fill="#3B4352"/>
<path d="M5.90623 16.875C6.41245 16.875 6.75002 16.7062 7.0875 16.3687C7.42498 16.0313 7.59371 15.525 7.59371 15.1875C7.59371 14.85 7.42498 14.3437 7.0875 14.0062C6.41254 13.3313 5.40002 13.3313 4.72497 14.0062C4.38749 14.3437 4.21875 14.6812 4.21875 15.1875C4.21875 15.6938 4.38749 16.0313 4.72497 16.3687C5.06244 16.7062 5.40002 16.875 5.90623 16.875Z" fill="#3B4352"/>
<path d="M10.9687 21.9375C11.4749 21.9375 11.8125 21.7687 12.15 21.4313C12.4875 21.0938 12.6562 20.5875 12.6562 20.25C12.6562 19.9125 12.4875 19.4062 12.15 19.0687C11.475 18.3938 10.4625 18.3938 9.78747 19.0687C9.44999 19.4062 9.28125 19.9125 9.28125 20.25C9.28125 20.5875 9.44999 21.0938 9.78747 21.4313C10.1249 21.7687 10.4625 21.9375 10.9687 21.9375Z" fill="#3B4352"/>
<path d="M10.9687 16.875C11.4749 16.875 11.8125 16.7062 12.15 16.3687C12.4875 16.0313 12.6562 15.525 12.6562 15.1875C12.6562 14.85 12.4875 14.3437 12.15 14.0062C11.475 13.3313 10.4625 13.3313 9.78747 14.0062C9.44999 14.3437 9.28125 14.85 9.28125 15.1875C9.28125 15.525 9.44999 16.0313 9.78747 16.3687C10.1249 16.7062 10.4625 16.875 10.9687 16.875Z" fill="#3B4352"/>
<path d="M16.0312 21.9375C16.5374 21.9375 16.875 21.7687 17.2125 21.4313C17.55 21.0938 17.7187 20.7563 17.7187 20.25C17.7187 19.7437 17.55 19.4062 17.2125 19.0687C16.5375 18.3938 15.525 18.3938 14.85 19.0687C14.5125 19.4062 14.3438 19.9125 14.3438 20.25C14.3438 20.5875 14.5125 21.0938 14.85 21.4313C15.1874 21.7687 15.525 21.9375 16.0312 21.9375Z" fill="#3B4352"/>
<path d="M16.0312 16.875C16.5374 16.875 16.875 16.7062 17.2125 16.3687C17.55 16.0313 17.7187 15.6938 17.7187 15.1875C17.7187 14.85 17.55 14.3437 17.2125 14.0062C16.5375 13.3313 15.525 13.3313 14.85 14.0062C14.5125 14.3437 14.3438 14.85 14.3438 15.1875C14.3438 15.525 14.5125 16.0313 14.85 16.3687C15.1874 16.7062 15.525 16.875 16.0312 16.875Z" fill="#3B4352"/>
<path d="M21.0937 21.9375C21.5999 21.9375 21.9375 21.7687 22.275 21.4313C22.6125 21.0938 22.7812 20.5875 22.7812 20.25C22.7812 19.9125 22.6125 19.4062 22.275 19.0687C21.6 18.3938 20.5875 18.3938 19.9125 19.0687C19.575 19.4062 19.4062 19.7437 19.4062 20.25C19.4062 20.5875 19.575 21.0938 19.9125 21.4313C20.2499 21.7687 20.5875 21.9375 21.0937 21.9375Z" fill="#3B4352"/>
<path d="M21.0937 16.875C21.5999 16.875 21.9375 16.7062 22.275 16.3687C22.6125 16.0313 22.7812 15.6938 22.7812 15.1875C22.7812 14.85 22.6125 14.3437 22.275 14.0062C21.6 13.3313 20.5875 13.3313 19.9125 14.0062C19.575 14.3437 19.4062 14.85 19.4062 15.1875C19.4062 15.525 19.575 16.0313 19.9125 16.3687C20.2499 16.7062 20.5875 16.875 21.0937 16.875Z" fill="#3B4352"/>
</svg>
