<svg width="27" height="27" viewBox="0 0 27 27" fill="none" xmlns="http://www.w3.org/2000/svg">
<path d="M13.5 0C6.0561 0 0 6.0561 0 13.5C0 20.9439 6.0561 27 13.5 27C20.9439 27 27 20.9439 27 13.5C27 6.0561 20.9439 0 13.5 0ZM13.5 24.1274C7.64009 24.1274 2.87229 19.3602 2.87229 13.5C2.87229 7.63981 7.64009 2.87257 13.5 2.87257C19.3599 2.87257 24.1277 7.63981 24.1277 13.5C24.1277 19.3602 19.3599 24.1274 13.5 24.1274Z" fill="#3B4352"/>
<path d="M20.5357 13.083H14.4687V5.78833C14.4687 5.17446 13.971 4.67676 13.3572 4.67676C12.7433 4.67676 12.2456 5.17446 12.2456 5.78833V14.1946C12.2456 14.8084 12.7433 15.3061 13.3572 15.3061H20.5357C21.1495 15.3061 21.6473 14.8084 21.6473 14.1946C21.6473 13.5807 21.1495 13.083 20.5357 13.083Z" fill="#3B4352"/>
</svg>
