<svg width="28" height="28" viewBox="0 0 28 28" fill="none" xmlns="http://www.w3.org/2000/svg">
<path d="M10.2909 5.42268C10.2909 6.12829 10.2909 9.27772 10.2909 9.27772H7.46655V13.9917H10.2909V27.9999H16.0926V13.9921H19.9859C19.9859 13.9921 20.3505 11.7318 20.5273 9.26034C20.0205 9.26034 16.1146 9.26034 16.1146 9.26034C16.1146 9.26034 16.1146 6.51791 16.1146 6.03722C16.1146 5.55549 16.7472 4.90749 17.3724 4.90749C17.9964 4.90749 19.3135 4.90749 20.5334 4.90749C20.5334 4.26568 20.5334 2.04808 20.5334 1.68389e-08C18.9049 1.68389e-08 17.0521 1.68389e-08 16.2355 1.68389e-08C10.1475 -0.000325478 10.2909 4.71831 10.2909 5.42268Z" fill="#A6B1C1"/>
</svg>
