<svg width="30" height="30" viewBox="0 0 30 30" fill="none" xmlns="http://www.w3.org/2000/svg">
<path d="M0 15.3681C0 16.7274 0.127148 17.9573 0.381504 19.0576C0.635742 20.1578 0.987832 21.1138 1.43771 21.9255C1.8876 22.7373 2.45971 23.4512 3.1541 24.0674C3.84844 24.6835 4.60154 25.1872 5.41324 25.5784C6.22494 25.9695 7.1516 26.2873 8.19316 26.5319C9.23473 26.7764 10.2983 26.9475 11.3839 27.0454C12.4695 27.1432 13.6626 27.192 14.9633 27.192C16.2738 27.192 17.4719 27.1432 18.5575 27.0454C19.643 26.9475 20.7091 26.7763 21.7556 26.5319C22.8019 26.2873 23.7335 25.9695 24.5501 25.5784C25.3668 25.1871 26.1247 24.6835 26.824 24.0674C27.5234 23.4512 28.1003 22.7372 28.5551 21.9255C29.0098 21.1138 29.3643 20.1579 29.6186 19.0576C29.8729 17.9574 30 16.7274 30 15.3681C30 12.9426 29.1882 10.8449 27.5649 9.07468C27.6529 8.83996 27.7336 8.57347 27.807 8.27511C27.8803 7.97681 27.9487 7.55142 28.0123 6.99888C28.0759 6.44623 28.0514 5.8082 27.9389 5.08445C27.8265 4.36064 27.6187 3.62236 27.3153 2.8692L27.0953 2.82519C26.9388 2.79589 26.682 2.80322 26.3251 2.84722C25.9682 2.89123 25.5524 2.97923 25.0782 3.1113C24.6039 3.24332 23.9927 3.49767 23.2444 3.8742C22.4962 4.25072 21.7065 4.72257 20.8751 5.28982C19.4474 4.89859 17.4864 4.70295 14.9926 4.70295C12.5084 4.70295 10.5524 4.89859 9.12457 5.28982C8.29324 4.72252 7.49859 4.25072 6.74068 3.8742C5.98277 3.49767 5.37891 3.24332 4.92902 3.11136C4.4792 2.97929 4.05861 2.89375 3.66744 2.85461C3.27621 2.81546 3.02924 2.80328 2.92658 2.81793C2.82393 2.83257 2.74318 2.84974 2.68453 2.86925C2.38137 3.62242 2.17354 4.36064 2.06109 5.08451C1.94865 5.80826 1.92416 6.44634 1.98773 6.99894C2.05131 7.55148 2.1198 7.97687 2.19311 8.27517C2.26646 8.57353 2.34715 8.84002 2.43516 9.07474C0.811758 10.8449 0 12.9426 0 15.3681ZM3.68215 19.0503C3.68215 17.642 4.32275 16.351 5.60391 15.1774C5.98529 14.8251 6.43031 14.5587 6.93885 14.3778C7.44738 14.1968 8.02195 14.0942 8.66256 14.0697C9.30316 14.0453 9.91682 14.0501 10.5036 14.0844C11.0904 14.1186 11.8141 14.1651 12.6748 14.2237C13.5354 14.2824 14.2787 14.3117 14.9046 14.3117C15.5306 14.3117 16.2738 14.2824 17.1345 14.2237C17.9951 14.1651 18.7188 14.1186 19.3058 14.0844C19.8925 14.0501 20.5061 14.0453 21.1468 14.0697C21.7874 14.0942 22.3619 14.1968 22.8706 14.3778C23.3791 14.5588 23.824 14.8252 24.2054 15.1774C25.4866 16.3314 26.1272 17.6224 26.1272 19.0503C26.1272 19.8913 26.0221 20.637 25.8117 21.2875C25.6015 21.938 25.3325 22.4831 25.0048 22.9231C24.6772 23.3632 24.2225 23.7374 23.6406 24.0454C23.0586 24.3535 22.4915 24.5906 21.939 24.7571C21.3863 24.9233 20.6773 25.0529 19.8117 25.1458C18.9461 25.2388 18.1735 25.295 17.4938 25.3145C16.814 25.3341 15.951 25.3439 14.9046 25.3439C13.8582 25.3439 12.9951 25.3341 12.3154 25.3145C11.6357 25.295 10.863 25.2388 9.99756 25.1458C9.13207 25.0529 8.42303 24.9233 7.87043 24.7571C7.31789 24.5906 6.75064 24.3534 6.16875 24.0454C5.58686 23.7374 5.13205 23.3633 4.80445 22.9231C4.47686 22.483 4.20785 21.938 3.99762 21.2875C3.78727 20.637 3.68215 19.8912 3.68215 19.0503ZM18.75 18.7545C18.75 20.3079 19.5894 21.567 20.625 21.567C21.6606 21.567 22.5 20.3079 22.5 18.7545C22.5 17.2012 21.6606 15.942 20.625 15.942C19.5894 15.942 18.75 17.2012 18.75 18.7545ZM7.5 18.7545C7.5 20.3079 8.33947 21.567 9.375 21.567C10.4105 21.567 11.25 20.3079 11.25 18.7545C11.25 17.2012 10.4105 15.942 9.375 15.942C8.33947 15.942 7.5 17.2012 7.5 18.7545Z" fill="#A6B1C1"/>
</svg>
