<svg width="15" height="14" viewBox="0 0 15 14" fill="none" xmlns="http://www.w3.org/2000/svg">
  <path fill-rule="evenodd" clip-rule="evenodd" d="M1.81611 0C0.718155 0 0 0.70417 0 1.63018C0 2.53601 0.697378 3.26155 1.77352 3.26155H1.79495C2.91418 3.26155 3.61023 2.53614 3.61023 1.63018C3.58914 0.70417 2.91418 0 1.81611 0ZM14.9693 8.5749V13.9861H11.7609V8.93731C11.7609 7.669 11.2968 6.80343 10.1355 6.80343C9.24894 6.80343 8.72137 7.38676 8.48927 7.95104C8.40463 8.15276 8.38284 8.43354 8.38284 8.71591V13.9861H5.17336C5.17336 13.9861 5.21659 5.43507 5.17336 4.54912H8.38253V5.88678C8.37945 5.8915 8.37595 5.8964 8.37246 5.90128C8.36855 5.90673 8.36467 5.91215 8.36144 5.91727H8.38253V5.88678C8.8089 5.24468 9.57035 4.32742 11.2747 4.32742C13.3863 4.32738 14.9693 5.67621 14.9693 8.5749ZM3.39887 13.9861H0.190614V4.54912H3.39887V13.9861Z" fill="#A6B1C1"/>
</svg>
