<svg width="49" height="36" viewBox="0 0 49 36" fill="none" xmlns="http://www.w3.org/2000/svg">
<path d="M20.9648 11.3125C20.9648 17.3776 19.194 22.4688 15.6523 26.5859C12.1549 30.6589 7.17448 33.625 0.710938 35.4844V30.3711C8.5026 27.8919 12.3984 24.1732 12.3984 19.2148C12.3984 18.3294 12.0664 17.5326 11.4023 16.8242C10.7383 16.1159 9.58724 15.3411 7.94922 14.5C4.9388 12.9505 3.43359 10.7591 3.43359 7.92578C3.43359 5.53516 4.1862 3.72005 5.69141 2.48047C7.19661 1.19661 9.1224 0.554688 11.4688 0.554688C14.1693 0.554688 16.4271 1.52865 18.2422 3.47656C20.0573 5.38021 20.9648 7.99219 20.9648 11.3125ZM48.8555 11.3125C48.8555 17.3776 47.0846 22.4688 43.543 26.5859C40.0456 30.6589 35.0651 33.625 28.6016 35.4844V30.3711C36.3932 27.8919 40.2891 24.1732 40.2891 19.2148C40.2891 18.3294 39.957 17.5326 39.293 16.8242C38.6289 16.1159 37.4779 15.3411 35.8398 14.5C32.8294 12.9505 31.3242 10.7591 31.3242 7.92578C31.3242 5.53516 32.0768 3.72005 33.582 2.48047C35.0872 1.19661 37.013 0.554688 39.3594 0.554688C42.1927 0.554688 44.4727 1.57292 46.1992 3.60938C47.9701 5.64583 48.8555 8.21354 48.8555 11.3125Z" fill="#3B4452"/>
</svg>
