<svg width="16" height="16" viewBox="0 0 16 16" fill="none" xmlns="http://www.w3.org/2000/svg">
<g clip-path="url(#clip0)">
<path d="M12.8805 15.1558C12.7555 15.1558 12.6313 15.1188 12.5249 15.0466L8.50183 12.3177L6.3441 13.8703C6.17487 13.992 5.95675 14.0226 5.76024 13.9524C5.56399 13.882 5.41495 13.7194 5.36175 13.5178L4.27832 9.41196L0.407123 7.93172C0.163415 7.8385 0.00178808 7.60534 1.47362e-05 7.34441C-0.0017586 7.08348 0.15666 6.84813 0.399185 6.75161L15.1189 0.894521C15.1857 0.866147 15.2564 0.849765 15.3277 0.845374C15.3532 0.843854 15.3788 0.843854 15.4042 0.845289C15.5518 0.854072 15.6968 0.914196 15.8099 1.02516C15.8217 1.03664 15.8328 1.04838 15.8434 1.06062C15.9371 1.1677 15.9886 1.29825 15.9983 1.43125C16.0007 1.46469 16.0005 1.49855 15.9976 1.53242C15.9955 1.55657 15.9921 1.58063 15.9872 1.60453L13.5026 14.641C13.4626 14.8505 13.3201 15.0258 13.1232 15.1074C13.045 15.1398 12.9625 15.1558 12.8805 15.1558ZM8.85506 11.0267L12.4386 13.4575L14.3719 3.31361L7.38944 10.0325L8.83817 11.0153C8.844 11.0189 8.84957 11.0228 8.85506 11.0267ZM5.87188 10.4862L6.3517 12.3043L7.38547 11.5604L6.03182 10.6421C5.96891 10.5996 5.91503 10.5466 5.87188 10.4862ZM2.37595 7.32828L5.0341 8.34457C5.22453 8.41737 5.36825 8.57747 5.42027 8.77457L5.75737 10.0521C5.77283 9.90478 5.83962 9.76612 5.94813 9.66166L12.6015 3.25956L2.37595 7.32828Z" fill="#565F6D"/>
</g>
<defs>
<clipPath id="clip0">
<rect width="16" height="16" fill="white"/>
</clipPath>
</defs>
</svg>
