<svg width="30" height="30" viewBox="0 0 30 30" fill="none" xmlns="http://www.w3.org/2000/svg">
<g clip-path="url(#clip0)">
<path d="M0.529889 14.4649L7.44249 17.0449L10.1181 25.6496C10.2893 26.2007 10.9632 26.4044 11.4105 26.0387L15.2637 22.8975C15.6676 22.5684 16.2429 22.552 16.665 22.8584L23.6148 27.9041C24.0933 28.2519 24.7712 27.9897 24.8912 27.4115L29.9823 2.92238C30.1133 2.29078 29.4927 1.76388 28.8913 1.99648L0.521789 12.9406C-0.178311 13.2106 -0.172212 14.2018 0.529889 14.4649ZM9.68689 15.6715L23.1967 7.35078C23.4395 7.20168 23.6893 7.52998 23.4808 7.72338L12.3313 18.0874C11.9394 18.4522 11.6866 18.9404 11.615 19.4703L11.2352 22.2849C11.1849 22.6607 10.657 22.698 10.5533 22.3343L9.09259 17.2018C8.92529 16.6164 9.16909 15.9911 9.68689 15.6715Z" fill="#A6B1C1"/>
</g>
<defs>
<clipPath id="clip0">
<rect width="30" height="30" fill="white"/>
</clipPath>
</defs>
</svg>
