<svg width="30" height="28" viewBox="0 0 30 28" fill="none" xmlns="http://www.w3.org/2000/svg">
<path d="M0.529889 13.4639L7.44249 16.0439L10.1181 24.6486C10.2893 25.1997 10.9632 25.4034 11.4105 25.0377L15.2637 21.8965C15.6676 21.5674 16.2429 21.551 16.665 21.8574L23.6148 26.9031C24.0933 27.2509 24.7712 26.9887 24.8912 26.4105L29.9823 1.9214C30.1133 1.2898 29.4927 0.762899 28.8913 0.995499L0.521789 11.9396C-0.178311 12.2096 -0.172212 13.2008 0.529889 13.4639ZM9.68689 14.6705L23.1967 6.3498C23.4395 6.2007 23.6893 6.529 23.4808 6.7224L12.3313 17.0864C11.9394 17.4512 11.6866 17.9394 11.615 18.4693L11.2352 21.2839C11.1849 21.6597 10.657 21.697 10.5533 21.3333L9.09259 16.2008C8.92529 15.6154 9.16909 14.9901 9.68689 14.6705Z" fill="#609EFF"/>
</svg>
