<svg width="27" height="27" viewBox="0 0 27 27" fill="none" xmlns="http://www.w3.org/2000/svg">
<g clip-path="url(#clip0)">
<path d="M27 5.12905C26.0062 5.56939 24.9399 5.86802 23.8196 6.00134C24.9635 5.31633 25.8392 4.2298 26.2542 2.93909C25.1812 3.57346 23.9967 4.03409 22.7347 4.2838C21.7241 3.20569 20.2866 2.53418 18.6922 2.53418C15.6334 2.53418 13.1532 5.01434 13.1532 8.07152C13.1532 8.50511 13.2021 8.92859 13.2966 9.33355C8.694 9.10237 4.61272 6.89724 1.88118 3.54646C1.40369 4.36308 1.13206 5.31461 1.13206 6.33033C1.13206 8.25205 2.11063 9.94766 3.59537 10.9397C2.68765 10.9093 1.83393 10.6596 1.08653 10.2446V10.3138C1.08653 12.9964 2.99643 15.2353 5.52887 15.7448C5.06488 15.8697 4.57562 15.9388 4.06946 15.9388C3.71179 15.9388 3.36591 15.9034 3.02678 15.8359C3.732 18.0377 5.7769 19.6388 8.19971 19.6827C6.30499 21.1674 3.91593 22.0498 1.32106 22.0498C0.873971 22.0498 0.433588 22.0228 0 21.9739C2.45149 23.5481 5.36188 24.4659 8.48991 24.4659C18.6788 24.4659 24.2482 16.0266 24.2482 8.70761L24.2296 7.99056C25.3178 7.2144 26.2593 6.23922 27 5.12905Z" fill="#A6B1C1"/>
</g>
<defs>
<clipPath id="clip0">
<rect width="27" height="27" fill="white"/>
</clipPath>
</defs>
</svg>
