<svg width="15" height="15" viewBox="0 0 15 15" fill="none" xmlns="http://www.w3.org/2000/svg">
<path d="M7.5 0C11.6421 0 15 3.35786 15 7.5C15 11.6421 11.6421 15 7.5 15C3.35786 15 0 11.6421 0 7.5C0 3.35786 3.35786 0 7.5 0ZM7.5 1.2002C4.02061 1.2002 1.2002 4.02061 1.2002 7.5C1.2002 10.9794 4.02061 13.7998 7.5 13.7998C10.9794 13.7998 13.7998 10.9794 13.7998 7.5C13.7998 4.02061 10.9794 1.2002 7.5 1.2002ZM10.0205 6.14062C10.2193 5.87558 10.5943 5.82183 10.8594 6.02051C11.1243 6.21918 11.1788 6.59431 10.9805 6.85938L8.66992 9.94043C8.08478 10.72 6.91501 10.7194 6.33008 9.93945L4.02051 6.86035C3.82181 6.59542 3.87498 6.21943 4.13965 6.02051C4.40459 5.8218 4.78058 5.87495 4.97949 6.13965L7.29004 9.21973C7.395 9.35964 7.60485 9.35944 7.70996 9.21973L10.0205 6.14062Z" fill="#00E28D"/>
</svg>
