<svg width="4" height="7" viewBox="0 0 4 7" fill="none" xmlns="http://www.w3.org/2000/svg">
<path d="M0.530806 7C0.678673 7 0.796209 6.94565 0.898578 6.8447L3.80663 3.93677C3.93554 3.80477 3.99621 3.66889 4 3.50194C4 3.335 3.93934 3.19523 3.80663 3.06711L0.898578 0.155297C0.796209 0.0543539 0.674881 0 0.530806 0C0.235071 0 0 0.24071 0 0.539656C0 0.687188 0.0606635 0.826955 0.166825 0.935663L2.74502 3.50194L0.166825 6.06434C0.0606635 6.17305 0 6.31281 0 6.46034C0 6.75929 0.235071 7 0.530806 7Z" fill="#00e28e"/>
</svg>
