<svg width="15" height="15" viewBox="0 0 15 15" fill="none" xmlns="http://www.w3.org/2000/svg">
<path d="M7.5 15C3.35786 15 0 11.6421 0 7.5C0 3.35786 3.35786 0 7.5 0C11.6421 0 15 3.35786 15 7.5C15 11.6421 11.6421 15 7.5 15ZM7.5 13.7998C10.9794 13.7998 13.7998 10.9794 13.7998 7.5C13.7998 4.02061 10.9794 1.2002 7.5 1.2002C4.02061 1.2002 1.2002 4.02061 1.2002 7.5C1.2002 10.9794 4.02061 13.7998 7.5 13.7998ZM4.97949 8.85938C4.78071 9.12442 4.40571 9.17817 4.14062 8.97949C3.87573 8.78082 3.82124 8.40569 4.01953 8.14062L6.33008 5.05957C6.91522 4.27996 8.08499 4.28064 8.66992 5.06055L10.9795 8.13965C11.1782 8.40458 11.125 8.78057 10.8604 8.97949C10.5954 9.1782 10.2194 9.12505 10.0205 8.86035L7.70996 5.78027C7.605 5.64036 7.39515 5.64056 7.29004 5.78027L4.97949 8.85938Z" fill="#00E28D"/>
</svg>
