<svg width="16" height="17" viewBox="0 0 16 17" fill="none" xmlns="http://www.w3.org/2000/svg">
<g clip-path="url(#clip0_1644_156)">
<path d="M1 14.75C0.585786 14.75 0.25 15.0858 0.25 15.5C0.25 15.9142 0.585786 16.25 1 16.25V14.75ZM0.46967 5.46967C0.176777 5.76256 0.176777 6.23744 0.46967 6.53033L5.24264 11.3033C5.53553 11.5962 6.01041 11.5962 6.3033 11.3033C6.59619 11.0104 6.59619 10.5355 6.3033 10.2426L2.06066 6L6.3033 1.75736C6.59619 1.46447 6.59619 0.989592 6.3033 0.696699C6.01041 0.403806 5.53553 0.403806 5.24264 0.696699L0.46967 5.46967ZM1 16.25H10.25V14.75H1V16.25ZM10.25 5.25H1V6.75H10.25V5.25ZM15.75 10.75C15.75 7.71243 13.2876 5.25 10.25 5.25V6.75C12.4591 6.75 14.25 8.54086 14.25 10.75H15.75ZM10.25 16.25C13.2876 16.25 15.75 13.7876 15.75 10.75H14.25C14.25 12.9591 12.4591 14.75 10.25 14.75V16.25Z" fill="white"/>
</g>
<defs>
<clipPath id="clip0_1644_156">
<rect width="16" height="17" fill="white"/>
</clipPath>
</defs>
</svg>
