<svg width="34" height="30" viewBox="0 0 34 30" fill="none" xmlns="http://www.w3.org/2000/svg">
<path d="M31.125 21.8651V8.91337L32.3905 8.44081C32.757 8.30387 33 7.95375 33 7.5625C33 7.17125 32.757 6.82113 32.3905 6.68425L17.328 1.05925C17.1165 0.98025 16.8836 0.98025 16.6721 1.05925L1.60956 6.68425C1.243 6.82113 1 7.17125 1 7.5625C1 7.95375 1.243 8.30387 1.6095 8.44075L7.85125 10.7717C6.37356 14.9411 6.74638 17.1344 6.6875 17.875C6.6875 18.1861 6.84181 18.4769 7.09937 18.6513C7.357 18.8257 7.68425 18.8609 7.97312 18.7454C7.99494 18.7367 10.1741 17.875 12.3125 17.875C14.2907 17.875 16.3945 19.5288 16.4143 19.5446C16.7568 19.8184 17.2432 19.8184 17.5856 19.5446C18.1661 19.0802 20.0346 17.875 21.6875 17.875C23.8141 17.875 26.0057 18.7371 26.0268 18.7454C26.3156 18.8609 26.643 18.8257 26.9006 18.6513C27.1582 18.4769 27.3125 18.1861 27.3125 17.875C27.2581 17.1906 27.6187 14.9193 26.1487 10.7717L29.25 9.61356V21.8651C28.768 22.1255 28.3476 22.5927 28.0231 23.2416C27.6052 24.0775 27.375 25.1681 27.375 26.3125V28.1875C27.375 28.7052 27.7948 29.125 28.3125 29.125H32.0625C32.5802 29.125 33 28.7052 33 28.1875V26.3125C33 25.1681 32.7698 24.0775 32.3519 23.2416C32.0274 22.5927 31.607 22.1255 31.125 21.8651ZM17 2.93825L29.3827 7.5625C28.1053 8.03956 18.2362 11.7251 17 12.1868C15.7638 11.7251 5.89469 8.03956 4.61725 7.5625L17 2.93825ZM25.4298 16.5764C24.4684 16.3031 23.0871 16 21.6875 16C19.7698 16 17.9142 17.0511 17 17.66C16.0858 17.0511 14.2301 16 12.3125 16C10.913 16 9.53162 16.3031 8.57019 16.5764C8.62413 14.6704 8.96263 13.2509 9.60787 11.4277L16.6721 14.0658C16.8835 14.1448 17.1165 14.1448 17.328 14.0658L24.3922 11.4277C25.0374 13.2509 25.3758 14.6705 25.4298 16.5764ZM31.125 27.25H29.25V26.3125C29.25 25.466 29.4141 24.6523 29.7002 24.0801C29.9398 23.6009 30.155 23.5 30.1875 23.5C30.22 23.5 30.4352 23.6009 30.6748 24.0801C30.9609 24.6523 31.125 25.466 31.125 26.3125V27.25Z" fill="#00e28e"/>
</svg>
