<svg width="14" height="14" viewBox="0 0 14 14" fill="none" xmlns="http://www.w3.org/2000/svg">
<path d="M7.5 10V10C8.11287 9.69357 8.5 9.06717 8.5 8.38197L8.5 2.61803C8.5 1.93283 8.11287 1.30643 7.5 1V1" stroke="white" stroke-width="1.2" stroke-linecap="round"/>
<path d="M10.5 10V10C11.1129 9.69357 11.5 9.06717 11.5 8.38197L11.5 2.61803C11.5 1.93283 11.1129 1.30643 10.5 1V1" stroke="white" stroke-width="1.2" stroke-linecap="round"/>
<path d="M5.5 2.58114L5.5 8.41886C5.5 9.06451 5.08686 9.63772 4.47434 9.84189C4.16644 9.94452 3.83356 9.94452 3.52566 9.84189C2.91315 9.63772 2.5 9.06451 2.5 8.41886L2.5 2.58114C2.5 1.93549 2.91314 1.36228 3.52566 1.15811C3.83356 1.05548 4.16644 1.05548 4.47434 1.15811C5.08685 1.36228 5.5 1.93549 5.5 2.58114Z" stroke="white" stroke-width="1.2"/>
<path d="M1 10.5V10.5C1 11.6046 1.89543 12.5 3 12.5L11 12.5C12.1046 12.5 13 11.6046 13 10.5V10.5" stroke="white" stroke-width="1.2" stroke-linecap="round"/>
</svg>
