<svg width="14" height="14" viewBox="0 0 14 14" fill="none" xmlns="http://www.w3.org/2000/svg">
<g clip-path="url(#clip0_162_5242)">
<path d="M7 10C7.61287 9.69357 8 9.06717 8 8.38197V2.61803C8 1.93283 7.61287 1.30643 7 1" stroke="black" stroke-width="1.2" stroke-linecap="round"/>
<path d="M10 10C10.6129 9.69357 11 9.06717 11 8.38197V2.61803C11 1.93283 10.6129 1.30643 10 1" stroke="black" stroke-width="1.2" stroke-linecap="round"/>
<path d="M5 2.58106V8.41878C5 9.06443 4.58686 9.63764 3.97434 9.84181C3.66644 9.94444 3.33356 9.94444 3.02566 9.84181C2.41315 9.63764 2 9.06443 2 8.41878V2.58106C2 1.93541 2.41314 1.3622 3.02566 1.15803C3.33356 1.0554 3.66644 1.0554 3.97434 1.15803C4.58685 1.3622 5 1.93541 5 2.58106Z" stroke="black" stroke-width="1.2"/>
<path d="M0.5 10.5C0.5 11.6046 1.39543 12.5 2.5 12.5H10.5C11.6046 12.5 12.5 11.6046 12.5 10.5" stroke="black" stroke-width="1.2" stroke-linecap="round"/>
</g>
<defs>
<clipPath id="clip0_162_5242">
<rect width="14" height="14" fill="white"/>
</clipPath>
</defs>
</svg>
