<svg width="16" height="15" viewBox="0 0 16 15" fill="none" xmlns="http://www.w3.org/2000/svg">
  <path d="M1.11628 0.5625C1.11628 0.25184 0.866391 0 0.55814 0C0.249888 0 0 0.25184 0 0.5625V14.4375C0 14.7482 0.249888 15 0.55814 15H14.1395C14.4478 15 14.6977 14.7482 14.6977 14.4375C14.6977 14.1268 14.4478 13.875 14.1395 13.875H1.11628V0.5625Z" fill="#00e28e"/>
  <path d="M15.8365 4.33525C16.0545 4.11558 16.0545 3.75942 15.8365 3.53975C15.6186 3.32008 15.2652 3.32008 15.0472 3.53975L10.7907 7.82951L8.02257 5.03975C7.8046 4.82008 7.45121 4.82008 7.23324 5.03975L2.76813 9.53975C2.55016 9.75942 2.55016 10.1156 2.76813 10.3352C2.98609 10.5549 3.33949 10.5549 3.55746 10.3352L7.62791 6.233L10.396 9.02275C10.614 9.24242 10.9674 9.24242 11.1854 9.02275L15.8365 4.33525Z" fill="#00e28e"/>
</svg>
