<svg width="43" height="25" viewBox="0 0 43 25" fill="none" xmlns="http://www.w3.org/2000/svg">
<path d="M18.8113 4.16536L20.416 6.6579C21.9467 7.31458 23.7434 6.15782 23.7792 4.4926L22.1745 2.00006C22.1387 3.66528 20.342 4.82205 18.8113 4.16536Z" fill="#00E28D"/>
<path d="M30 4.16533L31.6047 6.65787C33.1354 7.31455 34.9322 6.15779 34.968 4.49257L33.3632 2.00003C33.3274 3.66525 31.5307 4.82202 30 4.16533Z" fill="#00E28D"/>
<path d="M22.5474 21.1654L24.1521 23.6579C25.6828 24.3146 27.4795 23.1578 27.5153 21.4926L25.9106 19.0001C25.8748 20.6653 24.078 21.822 22.5474 21.1654Z" fill="#00E28D"/>
<rect x="4.99976" y="6.00003" width="34" height="12" rx="3.57302" fill="url(#paint0_linear_460_693)"/>
<path d="M10.736 15.088C10.2507 15.088 9.82133 14.968 9.448 14.728C9.08 14.4827 8.792 14.144 8.584 13.712C8.38133 13.2747 8.28 12.7707 8.28 12.2C8.28 11.624 8.38133 11.12 8.584 10.688C8.792 10.256 9.08 9.92 9.448 9.68C9.82133 9.43467 10.2507 9.312 10.736 9.312C11.2267 9.312 11.656 9.43467 12.024 9.68C12.3973 9.92 12.6853 10.256 12.888 10.688C13.096 11.12 13.2 11.624 13.2 12.2C13.2 12.7707 13.096 13.2747 12.888 13.712C12.6853 14.144 12.3973 14.4827 12.024 14.728C11.656 14.968 11.2267 15.088 10.736 15.088ZM10.736 14.136C11.024 14.136 11.272 14.0587 11.48 13.904C11.688 13.7493 11.848 13.5253 11.96 13.232C12.0773 12.9387 12.136 12.5947 12.136 12.2C12.136 11.8 12.0773 11.456 11.96 11.168C11.848 10.8747 11.688 10.6507 11.48 10.496C11.272 10.3413 11.024 10.264 10.736 10.264C10.4533 10.264 10.208 10.3413 10 10.496C9.792 10.6507 9.62933 10.8747 9.512 11.168C9.4 11.456 9.344 11.8 9.344 12.2C9.344 12.5947 9.4 12.9387 9.512 13.232C9.62933 13.5253 9.792 13.7493 10 13.904C10.208 14.0587 10.4533 14.136 10.736 14.136ZM15.9099 15V9.4H20.2379V10.408H17.0699V11.728H19.1739V12.704H17.0699V15H15.9099ZM21.1793 15V9.4H25.4833V10.408H22.3393V11.688H24.4113V12.664H22.3393V13.992H25.5153V15H21.1793ZM26.4956 15V9.4H30.7996V10.408H27.6556V11.688H29.7276V12.664H27.6556V13.992H30.8316V15H26.4956ZM33.8118 15.08C33.3585 15.08 32.9158 14.9973 32.4838 14.832C32.0518 14.6613 31.6678 14.4213 31.3318 14.112L31.9958 13.28C32.3211 13.568 32.6331 13.776 32.9318 13.904C33.2358 14.032 33.5558 14.096 33.8918 14.096C34.1265 14.096 34.3291 14.0693 34.4998 14.016C34.6705 13.9573 34.8011 13.8747 34.8918 13.768C34.9878 13.6613 35.0358 13.536 35.0358 13.392C35.0358 13.2 34.9665 13.0533 34.8278 12.952C34.6891 12.8453 34.4518 12.7627 34.1158 12.704L33.0038 12.512C32.5291 12.432 32.1665 12.264 31.9158 12.008C31.6705 11.752 31.5478 11.4213 31.5478 11.016C31.5478 10.6693 31.6358 10.368 31.8118 10.112C31.9931 9.856 32.2465 9.66133 32.5718 9.528C32.9025 9.38933 33.2945 9.32 33.7478 9.32C34.1585 9.32 34.5665 9.38933 34.9718 9.528C35.3825 9.66667 35.7451 9.85867 36.0598 10.104L35.4358 10.968C34.8491 10.52 34.2598 10.296 33.6678 10.296C33.4598 10.296 33.2785 10.3227 33.1238 10.376C32.9691 10.4293 32.8491 10.504 32.7638 10.6C32.6838 10.6907 32.6438 10.8 32.6438 10.928C32.6438 11.0987 32.7051 11.232 32.8278 11.328C32.9505 11.4187 33.1558 11.488 33.4438 11.536L34.4998 11.712C35.0598 11.8027 35.4785 11.9813 35.7558 12.248C36.0331 12.5093 36.1718 12.856 36.1718 13.288C36.1718 13.6507 36.0758 13.968 35.8838 14.24C35.6918 14.5067 35.4171 14.7147 35.0598 14.864C34.7078 15.008 34.2918 15.08 33.8118 15.08Z" fill="#222331"/>
<path d="M29.5363 7.3339L32.211 6.05554C33.055 4.61963 32.1335 2.69163 30.486 2.44657L27.8114 3.72494C29.4589 3.96999 30.3804 5.898 29.5363 7.3339Z" fill="#9A40BA"/>
<path d="M15.7486 7.6525L17.7607 5.47557C18.0139 3.82931 16.4446 2.37883 14.8233 2.76048L12.8112 4.93742C14.4324 4.55577 16.0017 6.00624 15.7486 7.6525Z" fill="#00E28D"/>
<path d="M13.07 3.4694L10.2616 2.52038C8.65525 2.96088 7.97116 4.98533 8.98102 6.30987L11.7894 7.25889C10.7796 5.93435 11.4637 3.90989 13.07 3.4694Z" fill="#9A40BA"/>
<path d="M21.8113 3.27485L24.2384 4.97705C25.9037 5.00723 27.1307 3.25773 26.5352 1.70222L24.1082 1.38283e-05C24.7037 1.55552 23.4767 3.30502 21.8113 3.27485Z" fill="#9A40BA"/>
<path d="M3.18598 13.5203L5.65688 11.8825C6.29308 10.3431 5.11245 8.562 3.44689 8.54841L0.975992 10.1863C2.64154 10.1998 3.82218 11.981 3.18598 13.5203Z" fill="#9A40BA"/>
<path d="M27.6212 2.00005L25.5387 4.10984C25.2318 5.74691 26.7526 7.24806 28.3855 6.91977L30.468 4.80998C28.8351 5.13826 27.3142 3.63712 27.6212 2.00005Z" fill="#00E28D"/>
<path d="M11.3573 16L9.27481 18.1098C8.96784 19.7469 10.4887 21.2481 12.1216 20.9198L14.2041 18.81C12.5711 19.1383 11.0503 17.6371 11.3573 16Z" fill="#00E28D"/>
<path d="M19.893 3.00001L17.749 5.04718C17.3936 6.67444 18.8693 8.21999 20.5113 7.94022L22.6553 5.89305C21.0134 6.17282 19.5377 4.62728 19.893 3.00001Z" fill="#9A40BA"/>
<path d="M37.0002 16.1107L39.3055 17.9744C40.9649 18.118 42.3083 16.4561 41.8202 14.8637L39.5148 13C40.003 14.5925 38.6596 16.2543 37.0002 16.1107Z" fill="#9A40BA"/>
<defs>
<linearGradient id="paint0_linear_460_693" x1="6.21404" y1="25.5" x2="26.5129" y2="-4.88077" gradientUnits="userSpaceOnUse">
<stop offset="0.147409" stop-color="#DFB10D"/>
<stop offset="0.865585" stop-color="#FFEEB1"/>
</linearGradient>
</defs>
</svg>
