<svg width="39" height="32" viewBox="0 0 39 32" fill="none" xmlns="http://www.w3.org/2000/svg">
<mask id="path-1-outside-1" maskUnits="userSpaceOnUse" x="0" y="0" width="39" height="32" fill="black">
<rect fill="white" width="39" height="32"/>
<path fill-rule="evenodd" clip-rule="evenodd" d="M35.761 16C35.761 23.1797 29.9407 29 22.761 29C15.5813 29 9.761 23.1797 9.761 16C9.761 14.5028 10.0141 13.0646 10.4799 11.7261C8.82134 9.06669 6 4.73951 6 4.73951L15.4487 5.25C17.532 3.83009 20.0496 3 22.761 3C29.9407 3 35.761 8.8203 35.761 16Z"/>
</mask>
<path fill-rule="evenodd" clip-rule="evenodd" d="M35.761 16C35.761 23.1797 29.9407 29 22.761 29C15.5813 29 9.761 23.1797 9.761 16C9.761 14.5028 10.0141 13.0646 10.4799 11.7261C8.82134 9.06669 6 4.73951 6 4.73951L15.4487 5.25C17.532 3.83009 20.0496 3 22.761 3C29.9407 3 35.761 8.8203 35.761 16Z" fill="#4AA956"/>
<path d="M10.4799 11.7261L13.3133 12.712L13.785 11.3564L13.0254 10.1385L10.4799 11.7261ZM6 4.73951L6.16185 1.74388L0.257515 1.42489L3.48697 6.37802L6 4.73951ZM15.4487 5.25L15.2868 8.24563L16.2999 8.30036L17.1382 7.729L15.4487 5.25ZM22.761 32C31.5976 32 38.761 24.8366 38.761 16H32.761C32.761 21.5228 28.2838 26 22.761 26V32ZM6.761 16C6.761 24.8366 13.9244 32 22.761 32V26C17.2381 26 12.761 21.5228 12.761 16H6.761ZM7.64652 10.7402C7.07194 12.3914 6.761 14.1626 6.761 16H12.761C12.761 14.8429 12.9563 13.7379 13.3133 12.712L7.64652 10.7402ZM13.0254 10.1385C12.1831 8.7879 11.0525 7.02483 10.1387 5.60883C9.68046 4.8988 9.27438 4.27235 8.9828 3.82334C8.83699 3.59879 8.71975 3.41852 8.63887 3.29424C8.59842 3.2321 8.56707 3.18395 8.54577 3.15126C8.53512 3.13491 8.52699 3.12243 8.52149 3.11399C8.51874 3.10978 8.51665 3.10657 8.51524 3.1044C8.51453 3.10331 8.51399 3.10249 8.51362 3.10192C8.51344 3.10164 8.51329 3.10142 8.5132 3.10127C8.51315 3.10119 8.5131 3.10113 8.51308 3.10109C8.51305 3.10104 8.51303 3.10101 6 4.73951C3.48697 6.37802 3.48697 6.37802 3.48699 6.37804C3.487 6.37806 3.48703 6.3781 3.48706 6.37815C3.48713 6.37827 3.48725 6.37844 3.48741 6.37868C3.48772 6.37917 3.48821 6.37992 3.48887 6.38092C3.49017 6.38293 3.49216 6.38597 3.4948 6.39002C3.50008 6.39812 3.50799 6.41026 3.51841 6.42626C3.53925 6.45825 3.57013 6.50567 3.61007 6.56704C3.68996 6.68979 3.80609 6.86836 3.95069 7.09104C4.23995 7.53648 4.64286 8.15803 5.0973 8.86223C6.0088 10.2747 7.11815 12.0049 7.93436 13.3136L13.0254 10.1385ZM5.83815 7.73514L15.2868 8.24563L15.6105 2.25437L6.16185 1.74388L5.83815 7.73514ZM22.761 0C19.428 0 16.3248 1.02241 13.7591 2.77099L17.1382 7.729C18.7393 6.63777 20.6712 6 22.761 6V0ZM38.761 16C38.761 7.16344 31.5976 0 22.761 0V6C28.2838 6 32.761 10.4772 32.761 16H38.761Z" fill="white" mask="url(#path-1-outside-1)"/>
<path d="M29.989 13.0999L28.902 19.5641C28.84 19.9316 28.528 20.2 28.163 20.2H17.837C17.472 20.2 17.16 19.9316 17.098 19.5641L16.011 13.0999C15.963 12.8172 16.075 12.5304 16.3 12.3579C16.526 12.1844 16.825 12.1568 17.079 12.2823L19.973 13.7205L22.345 9.36516C22.609 8.87828 23.392 8.87828 23.656 9.36516L26.028 13.7205L28.922 12.2823C29.175 12.1568 29.475 12.1844 29.701 12.3579C29.925 12.5304 30.037 12.8172 29.989 13.0999Z" fill="white"/>
</svg>
