<svg width="99" height="24" viewBox="0 0 99 24" fill="none" xmlns="http://www.w3.org/2000/svg">
<path fill-rule="evenodd" clip-rule="evenodd" d="M12.0704 5.37359L7.3823 9.9906L4.6544 7.30399L12.0704 0L19.489 7.30644L16.7611 9.99301L12.0704 5.37359ZM5.45578 11.8872L2.72789 9.20081L0 11.8874L2.72789 14.574L5.45578 11.8872ZM12.0704 18.4018L7.3823 13.7848L4.6504 16.4678L4.65421 16.4715L12.0704 23.7754L19.489 16.4691L19.4903 16.4676L16.7609 13.7825L12.0704 18.4018ZM21.4134 14.5751L24.141 11.8885L21.4132 9.20193L18.6853 11.8887L21.4134 14.5751ZM14.8333 11.8863H14.8344L12.0664 9.16003L9.30071 11.8916L12.0664 14.6153L14.8344 11.8891L14.8358 11.8876L14.8333 11.8863ZM29.0394 1.79432H33.5134C34.6237 1.79432 35.4635 2.07567 36.0325 2.63837C36.4729 3.07416 36.6931 3.61428 36.6931 4.25861V4.28587C36.6931 4.55813 36.659 4.79875 36.5904 5.00744C36.5262 5.20744 36.4339 5.39767 36.3162 5.57236C36.205 5.7372 36.0714 5.88608 35.9189 6.01487C35.7695 6.14116 35.6064 6.25075 35.4325 6.34165C35.9907 6.55058 36.4301 6.83407 36.7504 7.1926C37.0706 7.55132 37.2309 8.0483 37.2309 8.68358V8.71066C37.2309 9.14643 37.1461 9.52762 36.9763 9.85452C36.8065 10.1812 36.5632 10.4536 36.2465 10.6715C35.9297 10.8893 35.5488 11.0526 35.1037 11.1616C34.6586 11.2705 34.1653 11.3249 33.624 11.3249H29.0394V1.79432ZM33.066 5.64734C33.5351 5.64734 33.9075 5.56811 34.1831 5.40915C34.4589 5.25031 34.5967 4.99378 34.5967 4.63992V4.61265C34.5967 4.2951 34.4771 4.05235 34.2381 3.88429C33.999 3.71634 33.6543 3.63231 33.2039 3.63231H31.1078V5.64734H33.066ZM33.6315 9.487C34.1004 9.487 34.4679 9.40327 34.7347 9.2352C35.0014 9.06726 35.1347 8.80617 35.1347 8.45219V8.42505C35.1347 8.10737 35.0105 7.85552 34.7624 7.6693C34.5141 7.4835 34.1142 7.39036 33.5625 7.39036H31.1078V9.48712L33.6315 9.487ZM39.8954 1.79432H42.0194V11.3252H39.8954V1.79432ZM45.2361 1.79432H47.1941L51.7176 7.66262V1.79432H53.8137V11.3252H52.0073L47.3321 5.26634V11.3252H45.2361V1.79432ZM60.2435 1.72632H62.2017L66.339 11.3252H64.1187L63.236 9.1876H59.154L58.2715 11.3252H56.106L60.2435 1.72632ZM62.4776 7.33571L61.1949 4.24513L59.9127 7.33571H62.4776ZM68.6316 1.79432H70.5903L75.1129 7.66262V1.79432H77.2094V11.3252H75.4032L70.728 5.26634V11.3252H68.6316V1.79432ZM84.8525 11.4884C84.1446 11.4884 83.4872 11.3612 82.8802 11.1072C82.2738 10.8533 81.7499 10.506 81.3083 10.0656C80.8667 9.62543 80.5217 9.10569 80.2739 8.50665C80.0261 7.90749 79.9018 7.26759 79.9018 6.58676V6.55968C79.9018 5.87886 80.0261 5.24132 80.2739 4.64672C80.5223 4.05223 80.8667 3.53024 81.3083 3.08098C81.7493 2.6317 82.2781 2.27753 82.8944 2.01889C83.51 1.76025 84.1908 1.63094 84.9355 1.63094C85.3857 1.63094 85.7971 1.66742 86.1692 1.73981C86.5419 1.81263 86.8795 1.91228 87.1833 2.03933C87.4797 2.16288 87.762 2.31811 88.0246 2.50224C88.2798 2.68227 88.5191 2.88267 88.7411 3.10142L87.3899 4.63992C87.013 4.30421 86.6292 4.04069 86.2387 3.85022C85.8475 3.65969 85.4084 3.5643 84.9214 3.5643C84.5167 3.5643 84.1422 3.64154 83.7978 3.79582C83.4589 3.94555 83.1563 4.16353 82.9079 4.4356C82.66 4.70792 82.4669 5.02347 82.3286 5.38189C82.1908 5.7406 82.1219 6.12403 82.1219 6.53242V6.5595C82.1219 6.96795 82.1908 7.35387 82.3286 7.71672C82.4669 8.07999 82.657 8.39754 82.9011 8.6698C83.1447 8.94206 83.4386 9.15785 83.7836 9.31669C84.1286 9.47564 84.5075 9.55488 84.9214 9.55488C85.473 9.55488 85.9392 9.45506 86.3211 9.25536C86.7024 9.0559 87.0818 8.78346 87.4588 8.43841L88.8106 9.7864C88.5713 10.0411 88.313 10.2778 88.0381 10.4943C87.7675 10.7055 87.4736 10.8861 87.1624 11.0323C86.8451 11.1819 86.4976 11.2956 86.1212 11.3726C85.7442 11.4496 85.3211 11.4884 84.8525 11.4884ZM91.3099 1.79432H98.5772V3.65969H93.4064V5.59312H97.9567V7.45836H93.4064V9.45992H98.6467V11.3252H91.3099V1.79432ZM32.3513 19.4557C32.5866 19.5982 32.7042 19.7861 32.7042 20.0193C32.7042 20.2784 32.6027 20.4922 32.3996 20.6606C32.1998 20.829 31.921 20.9133 31.5632 20.9133C31.2537 20.9133 30.9572 20.8436 30.6736 20.7043C30.3899 20.5651 30.2062 20.4549 30.1224 20.374C30.0418 20.2898 29.979 20.2217 29.9338 20.1699L29.0394 21.0639L29.1506 21.1853C29.2151 21.2631 29.3214 21.3586 29.4697 21.472C29.618 21.5853 29.7888 21.6971 29.9822 21.8072C30.1788 21.9173 30.427 22.0113 30.7268 22.089C31.0297 22.17 31.3424 22.2105 31.6647 22.2105C32.4834 22.2105 33.1248 22.0064 33.589 21.5983C34.0564 21.1902 34.29 20.6639 34.29 20.0193C34.29 19.5626 34.1724 19.1853 33.9371 18.8873C33.7018 18.5893 33.4149 18.3755 33.0765 18.246C32.7413 18.1164 32.4061 18.0031 32.0708 17.9059C31.7388 17.8087 31.4552 17.6905 31.2199 17.5512C30.9878 17.4087 30.8718 17.2208 30.8718 16.9876C30.8718 16.7803 30.9572 16.6038 31.128 16.4581C31.3021 16.3123 31.5309 16.2394 31.8146 16.2394C32.0499 16.2394 32.2787 16.2945 32.5011 16.4046C32.7235 16.5148 32.8686 16.6038 32.9363 16.6718C33.0072 16.7366 33.062 16.7917 33.1007 16.837L33.9903 15.8896L33.9032 15.7925C33.8485 15.7244 33.7566 15.6451 33.6277 15.5544C33.502 15.4605 33.3537 15.3698 33.1829 15.2823C33.0152 15.1916 32.7993 15.1139 32.535 15.0491C32.2707 14.9811 31.9967 14.9471 31.7131 14.9471C30.9943 14.9471 30.4093 15.1463 29.958 15.5447C29.51 15.9431 29.286 16.4241 29.286 16.9876C29.286 17.4443 29.4036 17.8217 29.6389 18.1197C29.8742 18.4176 30.1579 18.6314 30.4898 18.761C30.8251 18.8905 31.1603 19.0039 31.4955 19.1011C31.8339 19.195 32.1192 19.3132 32.3513 19.4557ZM41.7309 15.0928L39.3328 18.1294L36.9589 15.0928H35.6196V22.0599H37.1088V17.4346L39.3328 20.2671L41.5616 17.4152V22.0599H43.0459V15.0928H41.7309ZM48.3933 19.1254L47.552 16.837L46.7059 19.1254H48.3933ZM48.8864 20.4177H46.2128L45.6181 22.0599H44.0323L46.7591 15.0928H48.3401L51.067 22.0599H49.4811L48.8864 20.4177ZM52.0581 15.0928V22.0599H53.5472V19.6209H54.8333L56.1677 22.0599H57.7536L56.2693 19.4217L56.395 19.3537C56.482 19.3148 56.5868 19.242 56.7092 19.1351C56.8317 19.0282 56.951 18.9002 57.067 18.7513C57.1863 18.6023 57.2894 18.4063 57.3764 18.1634C57.4635 17.9205 57.507 17.6597 57.507 17.3812C57.507 16.7399 57.2814 16.199 56.8301 15.7585C56.3821 15.3147 55.8148 15.0928 55.1282 15.0928H52.0581ZM55.7519 16.7058C55.9324 16.884 56.0227 17.1091 56.0227 17.3812C56.0227 17.6338 55.9324 17.8476 55.7519 18.0225C55.5747 18.1942 55.3506 18.28 55.0799 18.28H53.5472V16.4386H55.0799C55.3506 16.4386 55.5747 16.5277 55.7519 16.7058ZM58.1935 15.0928H63.6376V16.4386H61.6601V22.0599H60.1758V16.4386H58.1935V15.0928ZM71.1654 15.0928C70.8367 14.9957 70.4902 14.9471 70.1259 14.9471C69.0687 14.9471 68.1759 15.3018 67.4474 16.0111C66.7222 16.7204 66.3596 17.5755 66.3596 18.5763C66.3596 19.5772 66.7222 20.4339 67.4474 21.1465C68.1759 21.8558 69.0687 22.2105 70.1259 22.2105C70.4869 22.2105 70.8351 22.1603 71.1703 22.0599C71.5087 21.9594 71.7811 21.8493 71.9874 21.7295C72.1969 21.6064 72.3919 21.4655 72.5724 21.3068C72.7561 21.1448 72.8737 21.0331 72.9253 20.9716C72.9801 20.9068 73.0204 20.855 73.0462 20.8161L72.1517 19.8687L72.0744 19.9707C72.0228 20.042 71.939 20.1262 71.823 20.2234C71.7069 20.3205 71.5732 20.4177 71.4217 20.5149C71.2702 20.6088 71.0784 20.6914 70.8463 20.7626C70.6175 20.8307 70.3773 20.8647 70.1259 20.8647C69.4781 20.8647 68.9366 20.646 68.5014 20.2088C68.0663 19.7715 67.8487 19.2274 67.8487 18.5763C67.8487 17.9253 68.0663 17.3812 68.5014 16.9439C68.9366 16.5067 69.4781 16.288 70.1259 16.288C70.3612 16.288 70.5917 16.3253 70.8173 16.3998C71.043 16.471 71.2251 16.5504 71.3637 16.6378C71.5023 16.722 71.6296 16.8208 71.7456 16.9342C71.8649 17.0476 71.9406 17.1285 71.9729 17.1771C72.0083 17.2225 72.0357 17.2581 72.055 17.284L72.9978 16.3366L72.8866 16.1909C72.8157 16.0969 72.6981 15.9819 72.5337 15.8459C72.3725 15.7099 72.1856 15.5738 71.9729 15.4378C71.7633 15.3018 71.4942 15.1868 71.1654 15.0928ZM80.1728 22.0599H78.6885V19.2225H75.7199V22.0599H74.2307V15.0928H75.7199V17.8816H78.6885V15.0928H80.1728V22.0599ZM84.6837 16.837L85.5249 19.1254H83.8376L84.6837 16.837ZM83.3444 20.4177H86.0181L86.6128 22.0599H88.1986L85.4718 15.0928H83.8908L81.1639 22.0599H82.7497L83.3444 20.4177ZM89.1898 15.0928H90.6789V22.0599H89.1898V15.0928ZM98.6467 15.0928H97.1624V19.5237L93.749 15.0928H92.4581V22.0599H93.9472V17.6338L97.3606 22.0599H98.6467V15.0928Z" fill="#A8A8A8"/>
</svg>
