<svg width="18" height="18" viewBox="0 0 18 18" fill="none" xmlns="http://www.w3.org/2000/svg">
<path d="M9.49995 1.19922V0.699219H8.49995V1.19922H9.49995ZM8.49995 5.39922V5.89922H9.49995V5.39922H8.49995ZM9.49995 12.5992V12.0992H8.49995V12.5992H9.49995ZM8.49995 16.7992V17.2992H9.49995V16.7992H8.49995ZM5.39995 9.4938H5.89995V8.4938H5.39995V9.4938ZM1.19995 8.4938H0.699951V9.4938H1.19995V8.4938ZM16.7993 9.49922L17.2993 9.49986L17.3006 8.49986L16.8006 8.49922L16.7993 9.49922ZM12.6006 8.4938L12.1006 8.49315L12.0993 9.49315L12.5993 9.4938L12.6006 8.4938ZM8.49995 1.19922V5.39922H9.49995V1.19922H8.49995ZM8.49995 12.5992V16.7992H9.49995V12.5992H8.49995ZM5.39995 8.4938H1.19995V9.4938H5.39995V8.4938ZM16.8006 8.49922L12.6006 8.4938L12.5993 9.4938L16.7993 9.49922L16.8006 8.49922ZM2.6464 3.35277L6.2464 6.95277L6.9535 6.24567L3.3535 2.64567L2.6464 3.35277ZM14.6464 2.64567L11.0464 6.24567L11.7535 6.95277L15.3535 3.35277L14.6464 2.64567ZM3.3535 15.3528L6.9535 11.7528L6.2464 11.0457L2.6464 14.6457L3.3535 15.3528ZM11.0464 11.7528L14.6464 15.3528L15.3535 14.6457L11.7535 11.0457L11.0464 11.7528Z" fill="black"/>
</svg>
