<svg width="69" height="41" viewBox="0 0 69 41" fill="none" xmlns="http://www.w3.org/2000/svg">
<path fill-rule="evenodd" clip-rule="evenodd" d="M53.9 21.5H66.8C67.6 21.5 68.2 22.1 68.5 22.8V27.6C68.5 28.4 67.8 29 67.1 29H54.2V39.2C54.2 40 53.5 40.6 52.8 40.6H48.6C47.8 40.6 47.2 39.9 47.2 39.2V29H21.6V39.2C21.6 40 20.9 40.6 20.2 40.6H16C15.2 40.6 14.6 39.9 14.6 39.2V29H1.70001C0.900024 29 0.299988 28.4 0 27.8V23C0 22.2 0.700012 21.6 1.40002 21.6H14.3V10.8C13.9119 11.5761 13.4637 12.2317 13.0019 12.9071C12.8687 13.1019 12.7343 13.2985 12.6 13.5C12.3394 13.891 12.0363 14.2395 11.746 14.5732C11.5908 14.7516 11.4393 14.9258 11.3 15.1L8.59998 17.6C6.40002 19.3 3.90002 20.2 1.5 20.2C0.700012 20.2 0.0999756 19.5 0.0999756 18.8C0.0999756 18 0.799988 17.4 1.5 17.4C5.70001 17.4 8.90002 13.9 10.4 11.8C12.8 8.60001 14.3 4.60001 14.3 1.5V1.39999C14.3 0.600006 15 0 15.7 0H19.9C20.7 0 21.3 0.699997 21.3 1.39999V1.5C21.3 7.5 27 12.3 34.1 12.3C41.2 12.3 46.9 7.39999 46.9 1.5V1.39999C46.9 0.600006 47.6 0 48.3 0H52.5C53.3 0 53.9 0.600006 53.8 1.3V1.39999C53.8 5.89999 57.1 12.7 61.9 15.8C62.5 16.2 62.7 17.1 62.3 17.7C62.1 18.1 61.6 18.3 61.2 18.3C61 18.3 60.7 18.2 60.5 18.1C60.35 18 60.225 17.9 60.1 17.8C59.975 17.7 59.85 17.6 59.7 17.5L57 15.1C55.8 13.8 54.8 12.3 53.9 10.7V21.5ZM51.2 2.7H49.7V21.5H51.2V2.7ZM47 21.6V9.10001C46.2 10.2 45.1 11.2 43.8 12.1L41.6 13.3V21.6H43.8H47ZM33.577 14.9542C33.3278 14.9279 33.0639 14.9 32.8 14.9L30.1 14.5V21.6H32.8H38.9V14.4C38.8 14.45 38.675 14.475 38.55 14.5C38.425 14.525 38.3 14.55 38.2 14.6L35.5 15H34.2C34.0112 15 33.8 14.9777 33.577 14.9542ZM27.4 21.5V13.5C25 12.5 22.9 11 21.5 9V21.5H27.4ZM18.8 2.7H17.3V21.5H18.8V2.7ZM17.3 37.8H18.7H18.8V29H17.3V37.8ZM49.7 37.8H51.2V29H49.7V37.8ZM3 24.2V26.3H65.5V24.2H3ZM65.9026 16.0234C66.365 16.1102 66.8326 16.1541 67.2921 16.1541C68.0388 16.1541 68.6441 16.7596 68.644 17.5063C68.644 18.2531 68.0387 18.8584 67.2919 18.8584C66.6656 18.8584 66.0303 18.7987 65.4039 18.6813C64.67 18.5434 64.1865 17.8368 64.3242 17.1029C64.4621 16.369 65.1687 15.8858 65.9026 16.0234Z" fill="#4AA956"/>
</svg>
