<?xml version="1.0" encoding="UTF-8"?>
<svg width="18px" height="22px" viewBox="0 0 18 22" version="1.1" xmlns="http://www.w3.org/2000/svg" xmlns:xlink="http://www.w3.org/1999/xlink">
    <!-- Generator: Sketch 53.2 (72643) - https://sketchapp.com -->
    <title>Group 18</title>
    <desc>Created with Sketch.</desc>
    <g id="Page-2" stroke="none" stroke-width="1" fill="none" fill-rule="evenodd">
        <g id="ts_21" transform="translate(-359.000000, -1328.000000)" fill="#000000">
            <g id="Group-18" transform="translate(359.000000, 1328.000000)">
                <path d="M0.72,21.2666667 L17.28,21.2666667 L17.28,7.33333333 L0.72,7.33333333 L0.72,21.2666667 Z M0.72,2.93333333 L2.17512,2.93333333 C2.26791,4.2097 2.8494,5.13333333 3.6,5.13333333 C3.79881,5.13333333 3.96,4.96915833 3.96,4.76666667 C3.96,4.564175 3.79881,4.4 3.6,4.4 C3.340035,4.4 2.9772,3.838175 2.897235,2.93333333 L5.77512,2.93333333 C5.86917,4.2097 6.4494,5.13333333 7.2,5.13333333 C7.39881,5.13333333 7.56,4.96915833 7.56,4.76666667 C7.56,4.564175 7.39881,4.4 7.2,4.4 C6.940035,4.4 6.5772,3.838175 6.497235,2.93333333 L9.37512,2.93333333 C9.46917,4.2097 10.0494,5.13333333 10.8,5.13333333 C10.99881,5.13333333 11.16,4.96915833 11.16,4.76666667 C11.16,4.564175 10.99881,4.4 10.8,4.4 C10.540035,4.4 10.1772,3.838175 10.097235,2.93333333 L12.97512,2.93333333 C13.06917,4.2097 13.6494,5.13333333 14.4,5.13333333 C14.59881,5.13333333 14.76,4.96915833 14.76,4.76666667 C14.76,4.564175 14.59881,4.4 14.4,4.4 C14.140035,4.4 13.7772,3.838175 13.697235,2.93333333 L17.28,2.93333333 L17.28,6.6 L0.72,6.6 L0.72,2.93333333 Z M3.6,0.733333333 C3.859965,0.733333333 4.2228,1.29515833 4.302765,2.2 L2.89863,2.2 C2.9772,1.29515833 3.340035,0.733333333 3.6,0.733333333 L3.6,0.733333333 Z M7.2,0.733333333 C7.459965,0.733333333 7.8228,1.29515833 7.902765,2.2 L6.49863,2.2 C6.5772,1.29515833 6.940035,0.733333333 7.2,0.733333333 L7.2,0.733333333 Z M10.8,0.733333333 C11.059965,0.733333333 11.4228,1.29515833 11.502765,2.2 L10.09863,2.2 C10.1772,1.29515833 10.540035,0.733333333 10.8,0.733333333 L10.8,0.733333333 Z M14.4,0.733333333 C14.659965,0.733333333 15.0228,1.29515833 15.102765,2.2 L13.69863,2.2 C13.7772,1.29515833 14.140035,0.733333333 14.4,0.733333333 L14.4,0.733333333 Z M17.99244,2.49324167 C17.98965,2.48054583 17.98209,2.47050833 17.9784,2.45854583 C17.972235,2.43792083 17.964135,2.418075 17.95428,2.3991 C17.94303,2.3772375 17.92953,2.35684167 17.91405,2.33786667 C17.90154,2.3221 17.88786,2.30743333 17.87292,2.29382083 C17.854785,2.2782375 17.83494,2.26480833 17.813835,2.25353333 C17.796105,2.242625 17.777295,2.23332083 17.757765,2.22562083 C17.73441,2.21810417 17.710155,2.2130625 17.68572,2.21054167 C17.67078,2.20609583 17.65548,2.20252083 17.64,2.2 L15.82488,2.2 C15.73209,0.923633333 15.1506,0 14.4,0 C13.6494,0 13.06791,0.923633333 12.97512,2.2 L12.22488,2.2 C12.13209,0.923633333 11.5506,0 10.8,0 C10.0494,0 9.46791,0.923633333 9.37512,2.2 L8.62488,2.2 C8.53209,0.923633333 7.9506,0 7.2,0 C6.4494,0 5.86791,0.923633333 5.77512,2.2 L5.02488,2.2 C4.93209,0.923633333 4.3506,0 3.6,0 C2.8494,0 2.26791,0.923633333 2.17512,2.2 L0.36,2.2 C0.16119,2.2 0,2.364175 0,2.56666667 L0,21.6333333 C0,21.835825 0.16119,22 0.36,22 L17.64,22 C17.83881,22 18,21.835825 18,21.6333333 L17.99244,2.49324167 Z" id="Fill-1"></path>
                <path d="M6.66666667,14.3333333 L7.33333333,14.3333333 L7.33333333,13.6666667 L6.66666667,13.6666667 L6.66666667,14.3333333 Z M7.66666667,13 L6.33333333,13 C6.14925,13 6,13.14925 6,13.3333333 L6,14.6666667 C6,14.85075 6.14925,15 6.33333333,15 L7.66666667,15 C7.85075,15 8,14.85075 8,14.6666667 L8,13.3333333 C8,13.14925 7.85075,13 7.66666667,13 L7.66666667,13 Z" id="Fill-3"></path>
                <path d="M10.6666667,14.3333333 L11.3333333,14.3333333 L11.3333333,13.6666667 L10.6666667,13.6666667 L10.6666667,14.3333333 Z M11.6666667,13 L10.3333333,13 C10.14925,13 10,13.14925 10,13.3333333 L10,14.6666667 C10,14.85075 10.14925,15 10.3333333,15 L11.6666667,15 C11.85075,15 12,14.85075 12,14.6666667 L12,13.3333333 C12,13.14925 11.85075,13 11.6666667,13 L11.6666667,13 Z" id="Fill-4"></path>
                <path d="M3.66666667,14.3333333 L4.33333333,14.3333333 L4.33333333,13.6666667 L3.66666667,13.6666667 L3.66666667,14.3333333 Z M4.66666667,13 L3.33333333,13 C3.14925,13 3,13.14925 3,13.3333333 L3,14.6666667 C3,14.85075 3.14925,15 3.33333333,15 L4.66666667,15 C4.85075,15 5,14.85075 5,14.6666667 L5,13.3333333 C5,13.14925 4.85075,13 4.66666667,13 L4.66666667,13 Z" id="Fill-5"></path>
                <path d="M6.66666667,18.3333333 L7.33333333,18.3333333 L7.33333333,17.6666667 L6.66666667,17.6666667 L6.66666667,18.3333333 Z M7.66666667,17 L6.33333333,17 C6.14925,17 6,17.14925 6,17.3333333 L6,18.6666667 C6,18.85075 6.14925,19 6.33333333,19 L7.66666667,19 C7.85075,19 8,18.85075 8,18.6666667 L8,17.3333333 C8,17.14925 7.85075,17 7.66666667,17 L7.66666667,17 Z" id="Fill-6"></path>
                <path d="M10.6666667,18.3333333 L11.3333333,18.3333333 L11.3333333,17.6666667 L10.6666667,17.6666667 L10.6666667,18.3333333 Z M11.6666667,17 L10.3333333,17 C10.14925,17 10,17.14925 10,17.3333333 L10,18.6666667 C10,18.85075 10.14925,19 10.3333333,19 L11.6666667,19 C11.85075,19 12,18.85075 12,18.6666667 L12,17.3333333 C12,17.14925 11.85075,17 11.6666667,17 L11.6666667,17 Z" id="Fill-7"></path>
                <path d="M3.66666667,18.3333333 L4.33333333,18.3333333 L4.33333333,17.6666667 L3.66666667,17.6666667 L3.66666667,18.3333333 Z M4.66666667,17 L3.33333333,17 C3.14925,17 3,17.14925 3,17.3333333 L3,18.6666667 C3,18.85075 3.14925,19 3.33333333,19 L4.66666667,19 C4.85075,19 5,18.85075 5,18.6666667 L5,17.3333333 C5,17.14925 4.85075,17 4.66666667,17 L4.66666667,17 Z" id="Fill-8"></path>
                <path d="M6.66666667,11.3333333 L7.33333333,11.3333333 L7.33333333,10.6666667 L6.66666667,10.6666667 L6.66666667,11.3333333 Z M7.66666667,10 L6.33333333,10 C6.14925,10 6,10.14925 6,10.3333333 L6,11.6666667 C6,11.85075 6.14925,12 6.33333333,12 L7.66666667,12 C7.85075,12 8,11.85075 8,11.6666667 L8,10.3333333 C8,10.14925 7.85075,10 7.66666667,10 L7.66666667,10 Z" id="Fill-9"></path>
                <path d="M10.6666667,11.3333333 L11.3333333,11.3333333 L11.3333333,10.6666667 L10.6666667,10.6666667 L10.6666667,11.3333333 Z M11.6666667,10 L10.3333333,10 C10.14925,10 10,10.14925 10,10.3333333 L10,11.6666667 C10,11.85075 10.14925,12 10.3333333,12 L11.6666667,12 C11.85075,12 12,11.85075 12,11.6666667 L12,10.3333333 C12,10.14925 11.85075,10 11.6666667,10 L11.6666667,10 Z" id="Fill-10"></path>
                <path d="M14.6666667,14.3333333 L15.3333333,14.3333333 L15.3333333,13.6666667 L14.6666667,13.6666667 L14.6666667,14.3333333 Z M15.6666667,13 L14.3333333,13 C14.14925,13 14,13.14925 14,13.3333333 L14,14.6666667 C14,14.85075 14.14925,15 14.3333333,15 L15.6666667,15 C15.85075,15 16,14.85075 16,14.6666667 L16,13.3333333 C16,13.14925 15.85075,13 15.6666667,13 L15.6666667,13 Z" id="Fill-11"></path>
                <path d="M14.6666667,18.3333333 L15.3333333,18.3333333 L15.3333333,17.6666667 L14.6666667,17.6666667 L14.6666667,18.3333333 Z M15.6666667,17 L14.3333333,17 C14.14925,17 14,17.14925 14,17.3333333 L14,18.6666667 C14,18.85075 14.14925,19 14.3333333,19 L15.6666667,19 C15.85075,19 16,18.85075 16,18.6666667 L16,17.3333333 C16,17.14925 15.85075,17 15.6666667,17 L15.6666667,17 Z" id="Fill-12"></path>
                <path d="M14.6666667,11.3333333 L15.3333333,11.3333333 L15.3333333,10.6666667 L14.6666667,10.6666667 L14.6666667,11.3333333 Z M15.6666667,10 L14.3333333,10 C14.14925,10 14,10.14925 14,10.3333333 L14,11.6666667 C14,11.85075 14.14925,12 14.3333333,12 L15.6666667,12 C15.85075,12 16,11.85075 16,11.6666667 L16,10.3333333 C16,10.14925 15.85075,10 15.6666667,10 L15.6666667,10 Z" id="Fill-13"></path>
                <path d="M3.66666667,11.3333333 L4.33333333,11.3333333 L4.33333333,10.6666667 L3.66666667,10.6666667 L3.66666667,11.3333333 Z M4.66666667,10 L3.33333333,10 C3.14925,10 3,10.14925 3,10.3333333 L3,11.6666667 C3,11.85075 3.14925,12 3.33333333,12 L4.66666667,12 C4.85075,12 5,11.85075 5,11.6666667 L5,10.3333333 C5,10.14925 4.85075,10 4.66666667,10 L4.66666667,10 Z" id="Fill-14"></path>
            </g>
        </g>
    </g>
</svg>