<svg width="18" height="22" viewBox="0 0 18 22" fill="none" xmlns="http://www.w3.org/2000/svg">
<path fill-rule="evenodd" clip-rule="evenodd" d="M0.72 21.2667H17.28V7.33333H0.72V21.2667ZM0.72 2.93333H2.17512C2.26791 4.2097 2.8494 5.13333 3.6 5.13333C3.79881 5.13333 3.96 4.96916 3.96 4.76667C3.96 4.56418 3.79881 4.4 3.6 4.4C3.34004 4.4 2.9772 3.83818 2.89723 2.93333H5.77512C5.86917 4.2097 6.4494 5.13333 7.2 5.13333C7.39881 5.13333 7.56 4.96916 7.56 4.76667C7.56 4.56418 7.39881 4.4 7.2 4.4C6.94004 4.4 6.5772 3.83818 6.49724 2.93333H9.37512C9.46917 4.2097 10.0494 5.13333 10.8 5.13333C10.9988 5.13333 11.16 4.96916 11.16 4.76667C11.16 4.56418 10.9988 4.4 10.8 4.4C10.54 4.4 10.1772 3.83818 10.0972 2.93333H12.9751C13.0692 4.2097 13.6494 5.13333 14.4 5.13333C14.5988 5.13333 14.76 4.96916 14.76 4.76667C14.76 4.56418 14.5988 4.4 14.4 4.4C14.14 4.4 13.7772 3.83818 13.6972 2.93333H17.28V6.6H0.72V2.93333ZM3.6 0.733333C3.85996 0.733333 4.2228 1.29516 4.30276 2.2H2.89863C2.9772 1.29516 3.34003 0.733333 3.6 0.733333V0.733333ZM7.2 0.733333C7.45997 0.733333 7.8228 1.29516 7.90277 2.2H6.49863C6.5772 1.29516 6.94004 0.733333 7.2 0.733333V0.733333ZM10.8 0.733333C11.06 0.733333 11.4228 1.29516 11.5028 2.2H10.0986C10.1772 1.29516 10.54 0.733333 10.8 0.733333V0.733333ZM14.4 0.733333C14.66 0.733333 15.0228 1.29516 15.1028 2.2H13.6986C13.7772 1.29516 14.14 0.733333 14.4 0.733333V0.733333ZM17.9924 2.49324C17.9896 2.48055 17.9821 2.47051 17.9784 2.45855C17.9722 2.43792 17.9641 2.41808 17.9543 2.3991C17.943 2.37724 17.9295 2.35684 17.914 2.33787C17.9015 2.3221 17.8879 2.30743 17.8729 2.29382C17.8548 2.27824 17.8349 2.26481 17.8138 2.25353C17.7961 2.24263 17.7773 2.23332 17.7578 2.22562C17.7344 2.2181 17.7102 2.21306 17.6857 2.21054C17.6708 2.2061 17.6555 2.20252 17.64 2.2H15.8249C15.7321 0.923633 15.1506 0 14.4 0C13.6494 0 13.0679 0.923633 12.9751 2.2H12.2249C12.1321 0.923633 11.5506 0 10.8 0C10.0494 0 9.46791 0.923633 9.37512 2.2H8.62488C8.53209 0.923633 7.9506 0 7.2 0C6.4494 0 5.86791 0.923633 5.77512 2.2H5.02488C4.93209 0.923633 4.3506 0 3.6 0C2.8494 0 2.26791 0.923633 2.17512 2.2H0.36C0.16119 2.2 0 2.36417 0 2.56667V21.6333C0 21.8358 0.16119 22 0.36 22H17.64C17.8388 22 18 21.8358 18 21.6333L17.9924 2.49324Z" fill="#2873FB"/>
<path fill-rule="evenodd" clip-rule="evenodd" d="M6.66667 14.3333H7.33333V13.6667H6.66667V14.3333ZM7.66667 13H6.33333C6.14925 13 6 13.1493 6 13.3333V14.6667C6 14.8507 6.14925 15 6.33333 15H7.66667C7.85075 15 8 14.8507 8 14.6667V13.3333C8 13.1493 7.85075 13 7.66667 13V13Z" fill="#2873FB"/>
<path fill-rule="evenodd" clip-rule="evenodd" d="M10.6667 14.3333H11.3333V13.6667H10.6667V14.3333ZM11.6667 13H10.3333C10.1493 13 10 13.1493 10 13.3333V14.6667C10 14.8507 10.1493 15 10.3333 15H11.6667C11.8507 15 12 14.8507 12 14.6667V13.3333C12 13.1493 11.8507 13 11.6667 13V13Z" fill="#2873FB"/>
<path fill-rule="evenodd" clip-rule="evenodd" d="M3.66667 14.3333H4.33333V13.6667H3.66667V14.3333ZM4.66667 13H3.33333C3.14925 13 3 13.1493 3 13.3333V14.6667C3 14.8507 3.14925 15 3.33333 15H4.66667C4.85075 15 5 14.8507 5 14.6667V13.3333C5 13.1493 4.85075 13 4.66667 13V13Z" fill="#2873FB"/>
<path fill-rule="evenodd" clip-rule="evenodd" d="M6.66667 18.3333H7.33333V17.6667H6.66667V18.3333ZM7.66667 17H6.33333C6.14925 17 6 17.1493 6 17.3333V18.6667C6 18.8507 6.14925 19 6.33333 19H7.66667C7.85075 19 8 18.8507 8 18.6667V17.3333C8 17.1493 7.85075 17 7.66667 17V17Z" fill="#2873FB"/>
<path fill-rule="evenodd" clip-rule="evenodd" d="M10.6667 18.3333H11.3333V17.6667H10.6667V18.3333ZM11.6667 17H10.3333C10.1493 17 10 17.1493 10 17.3333V18.6667C10 18.8507 10.1493 19 10.3333 19H11.6667C11.8507 19 12 18.8507 12 18.6667V17.3333C12 17.1493 11.8507 17 11.6667 17V17Z" fill="#2873FB"/>
<path fill-rule="evenodd" clip-rule="evenodd" d="M3.66667 18.3333H4.33333V17.6667H3.66667V18.3333ZM4.66667 17H3.33333C3.14925 17 3 17.1493 3 17.3333V18.6667C3 18.8507 3.14925 19 3.33333 19H4.66667C4.85075 19 5 18.8507 5 18.6667V17.3333C5 17.1493 4.85075 17 4.66667 17V17Z" fill="#2873FB"/>
<path fill-rule="evenodd" clip-rule="evenodd" d="M6.66667 11.3333H7.33333V10.6667H6.66667V11.3333ZM7.66667 10H6.33333C6.14925 10 6 10.1493 6 10.3333V11.6667C6 11.8507 6.14925 12 6.33333 12H7.66667C7.85075 12 8 11.8507 8 11.6667V10.3333C8 10.1493 7.85075 10 7.66667 10V10Z" fill="#2873FB"/>
<path fill-rule="evenodd" clip-rule="evenodd" d="M10.6667 11.3333H11.3333V10.6667H10.6667V11.3333ZM11.6667 10H10.3333C10.1493 10 10 10.1493 10 10.3333V11.6667C10 11.8507 10.1493 12 10.3333 12H11.6667C11.8507 12 12 11.8507 12 11.6667V10.3333C12 10.1493 11.8507 10 11.6667 10V10Z" fill="#2873FB"/>
<path fill-rule="evenodd" clip-rule="evenodd" d="M14.6667 14.3333H15.3333V13.6667H14.6667V14.3333ZM15.6667 13H14.3333C14.1493 13 14 13.1493 14 13.3333V14.6667C14 14.8507 14.1493 15 14.3333 15H15.6667C15.8507 15 16 14.8507 16 14.6667V13.3333C16 13.1493 15.8507 13 15.6667 13V13Z" fill="#2873FB"/>
<path fill-rule="evenodd" clip-rule="evenodd" d="M14.6667 18.3333H15.3333V17.6667H14.6667V18.3333ZM15.6667 17H14.3333C14.1493 17 14 17.1493 14 17.3333V18.6667C14 18.8507 14.1493 19 14.3333 19H15.6667C15.8507 19 16 18.8507 16 18.6667V17.3333C16 17.1493 15.8507 17 15.6667 17V17Z" fill="#2873FB"/>
<path fill-rule="evenodd" clip-rule="evenodd" d="M14.6667 11.3333H15.3333V10.6667H14.6667V11.3333ZM15.6667 10H14.3333C14.1493 10 14 10.1493 14 10.3333V11.6667C14 11.8507 14.1493 12 14.3333 12H15.6667C15.8507 12 16 11.8507 16 11.6667V10.3333C16 10.1493 15.8507 10 15.6667 10V10Z" fill="#2873FB"/>
<path fill-rule="evenodd" clip-rule="evenodd" d="M3.66667 11.3333H4.33333V10.6667H3.66667V11.3333ZM4.66667 10H3.33333C3.14925 10 3 10.1493 3 10.3333V11.6667C3 11.8507 3.14925 12 3.33333 12H4.66667C4.85075 12 5 11.8507 5 11.6667V10.3333C5 10.1493 4.85075 10 4.66667 10V10Z" fill="#2873FB"/>
</svg>
