<svg width="56" height="56" viewBox="0 0 56 56" fill="none" xmlns="http://www.w3.org/2000/svg">
<path fill-rule="evenodd" clip-rule="evenodd" d="M28 56C43.464 56 56 43.464 56 28C56 12.536 43.464 0 28 0C12.536 0 0 12.536 0 28C0 43.464 12.536 56 28 56Z" fill="#F4F4F4"/>
<path d="M37.8731 19.7338L33.7196 16.2337C33.2978 15.8791 32.6683 15.9345 32.3137 16.3563C31.959 16.7781 32.0144 17.4075 32.4362 17.7621L34.4954 19.5122H24.6309C21.5041 19.5157 18.97 22.0498 18.9665 25.1766V26.9675C18.9665 27.5182 19.4133 27.965 19.964 27.965C20.5147 27.965 20.9615 27.5182 20.9615 26.9675V25.1591C20.965 23.1337 22.6054 21.4933 24.6309 21.4898H34.5013L32.442 23.2399C32.0203 23.5945 31.9649 24.224 32.3195 24.6457C32.6742 25.0675 33.3037 25.1229 33.7254 24.7683L37.8789 21.2681C38.3007 20.914 38.3561 20.2846 38.002 19.8628C37.9647 19.8185 37.9233 19.7771 37.8789 19.7397L37.8731 19.7338Z" fill="#2873FB"/>
<path d="M35.2421 27.9708C34.6914 27.9708 34.2446 28.4177 34.2446 28.9684V30.7768C34.2411 32.8022 32.6007 34.4426 30.5753 34.4461H20.7049L22.7641 32.696C23.2465 32.4295 23.4216 31.8228 23.1549 31.3403C22.8884 30.8579 22.2817 30.6828 21.7992 30.9495C21.6884 31.0107 21.5898 31.0924 21.5098 31.191L17.3563 34.6911C16.9346 35.0452 16.8791 35.6747 17.2332 36.0964C17.2706 36.1408 17.312 36.1822 17.3563 36.2195L21.5098 39.7196C21.9316 40.0743 22.5611 40.0189 22.9157 39.5971C23.2704 39.1753 23.215 38.5459 22.7932 38.1912L20.734 36.4411H30.5752C33.702 36.4376 36.2361 33.9035 36.2396 30.7767V28.9684C36.2397 28.4171 35.7928 27.9708 35.2421 27.9708Z" fill="#2873FB"/>
</svg>
