<?xml version="1.0" encoding="UTF-8"?>
<svg width="38px" height="38px" viewBox="0 0 38 38" version="1.1" xmlns="http://www.w3.org/2000/svg" xmlns:xlink="http://www.w3.org/1999/xlink">
    <!-- Generator: Sketch 53.2 (72643) - https://sketchapp.com -->
    <title>Group 4</title>
    <desc>Created with Sketch.</desc>
    <g id="Page-2" stroke="none" stroke-width="1" fill="none" fill-rule="evenodd">
        <g id="ts_22" transform="translate(-413.000000, -331.000000)">
            <g id="Group-4" transform="translate(413.000000, 331.000000)">
                <circle id="Oval" fill="#283140" cx="19" cy="19" r="19"></circle>
                <g id="Group-13" transform="translate(8.000000, 7.000000)" fill="#FCD600" fill-rule="nonzero">
                    <path d="M20.8730594,3.73384305 L16.7195623,0.233726093 C16.2978079,-0.120940573 15.6683342,-0.0655487606 15.3136675,0.356252409 C14.9590009,0.778053579 15.0143927,1.40748048 15.4361939,1.76214715 L17.4954219,3.51222902 L7.63086052,3.51222902 C4.5040769,3.51569101 1.96999503,6.04977288 1.96648625,9.17660329 L1.96648625,10.9675273 C1.96648625,11.5182173 2.41331666,11.9650477 2.96400672,11.9650477 C3.51469678,11.9650477 3.96152719,11.5182173 3.96152719,10.9675273 L3.96152719,9.15910621 C3.96503596,7.1337027 5.60541023,5.49328165 7.63086052,5.48977288 L17.5012699,5.48977288 L15.4420418,7.23985475 C15.0202874,7.59452141 14.9648488,8.2239951 15.3195155,8.64574948 C15.6741822,9.06750387 16.3036558,9.12294247 16.7254102,8.7682758 L20.8789073,5.26811206 C21.3006617,4.91400679 21.3561003,4.28457989 21.001995,3.86282551 C20.9646617,3.81847463 20.9232582,3.77707112 20.8789073,3.73973779 L20.8730594,3.73384305 Z" id="Path"></path>
                    <path d="M18.2421354,11.9708489 C17.6914453,11.9708489 17.2446149,12.4176793 17.2446149,12.9683694 L17.2446149,14.7767904 C17.2411061,16.8021939 15.6007319,18.442615 13.5752816,18.4461238 L3.70487222,18.4461238 L5.76410029,16.6960419 C6.24653304,16.4294688 6.42155058,15.8227787 6.1549307,15.3402992 C5.8883576,14.8578664 5.28166754,14.6828489 4.79918801,14.9494688 C4.6883576,15.0107085 4.5897845,15.0923928 4.50983128,15.1909659 L0.356334208,18.6911296 C-0.0654201783,19.0452349 -0.120858775,19.6746618 0.233246488,20.0964162 C0.270579822,20.140767 0.31198333,20.1821705 0.356334208,20.2195039 L4.50983128,23.7196208 C4.93158567,24.0742875 5.56105935,24.0188957 5.91572602,23.5970945 C6.27039269,23.1752933 6.21500087,22.5458664 5.7931997,22.1911998 L3.73397163,20.4411179 L13.575188,20.4411179 C16.7019716,20.4376091 19.2361003,17.9035273 19.2395623,14.7767436 L19.2395623,12.9684162 C19.2397026,12.4171179 18.7928254,11.9708489 18.2421354,11.9708489 Z" id="Path"></path>
                </g>
            </g>
        </g>
    </g>
</svg>