<?xml version="1.0" encoding="UTF-8"?>
<svg width="26px" height="28px" viewBox="0 0 26 28" version="1.1" xmlns="http://www.w3.org/2000/svg" xmlns:xlink="http://www.w3.org/1999/xlink">
    <!-- Generator: Sketch 53.2 (72643) - https://sketchapp.com -->
    <title>Group 20</title>
    <desc>Created with Sketch.</desc>
    <g id="Page-2" stroke="none" stroke-width="1" fill="none" fill-rule="evenodd">
        <g id="ts_21" transform="translate(-276.000000, -1563.000000)">
            <g id="Group-20" transform="translate(276.000000, 1563.000000)">
                <rect id="Rectangle-Copy-9" fill="#D8D8D8" x="0" y="0" width="26" height="28"></rect>
                <path d="M12.6464662,13.3347287 L13.3535455,13.3347405 L13.0000118,12.9812225 L12.6464662,13.3347287 Z M17.6891124,8.29264252 L18.7068462,9.31193343 L14.0186136,13.9999126 L18.7067688,18.6878589 L17.6891647,19.7074569 L13.0000118,15.018201 L8.31133604,19.7072915 L7.2930543,18.6880358 L11.9813864,13.9999126 L7.29297687,9.31175647 L8.31138833,8.29280787 L13.0000118,12.9812225 L17.6891124,8.29264252 Z M12.3349667,14.3534739 L12.3349651,13.6463497 L11.9813864,13.9999126 L12.3349667,14.3534739 Z M13.353569,14.6646124 L12.6464427,14.6646242 L13.0000118,15.018201 L13.353569,14.6646124 Z M13.6650349,13.6463497 L13.6650333,14.3534739 L14.0186136,13.9999126 L13.6650349,13.6463497 Z M13,14.3955264 L13.3956348,13.9999092 L12.9998204,13.6041162 L12.6042806,13.999691 L13,14.3955264 Z M18,18.6882127 L17.6461007,18.3350055 L17.3349231,18.6467928 L17.6885242,18.9997024 L18,18.6882127 Z M8.66521177,18.6466156 L8.35372234,18.3348283 L8,18.6882127 L8.31163151,18.9998581 L8.66521177,18.6466156 Z M8,9.31165372 L8.35364659,9.66511388 L8.66513602,9.35346016 L8.31156318,9.00007371 L8,9.31165372 Z M17.3349988,9.35328303 L17.6461765,9.66493675 L18,9.31165372 L17.6885926,9.00022946 L17.3349988,9.35328303 Z" id="Path" fill="#000000" fill-rule="nonzero"></path>
            </g>
        </g>
    </g>
</svg>