<svg viewBox="0 0 8 7" fill="none" xmlns="http://www.w3.org/2000/svg">
<g opacity="0.4">
<mask id="path-1-outside-1" maskUnits="userSpaceOnUse" x="0.0524902" y="-0.15625" width="8" height="8" fill="black">
<rect fill="white" x="0.0524902" y="-0.15625" width="8" height="8"/>
<path fill-rule="evenodd" clip-rule="evenodd" d="M1.62567 0.942091C1.49454 0.81097 1.28195 0.81097 1.15083 0.942091C1.01971 1.07321 1.01971 1.2858 1.15083 1.41692L3.52517 3.79126L1.15101 6.16543C1.01988 6.29655 1.01988 6.50914 1.15101 6.64026C1.28213 6.77138 1.49472 6.77138 1.62584 6.64026L4 4.2661L6.374 6.64009C6.50512 6.77122 6.71771 6.77122 6.84883 6.64009C6.97996 6.50897 6.97996 6.29638 6.84883 6.16526L4.47484 3.79126L6.84901 1.41709C6.98013 1.28597 6.98013 1.07338 6.84901 0.942258C6.71789 0.811136 6.5053 0.811136 6.37418 0.942258L4 3.31643L1.62567 0.942091Z"/>
</mask>
<path fill-rule="evenodd" clip-rule="evenodd" d="M1.62567 0.942091C1.49454 0.81097 1.28195 0.81097 1.15083 0.942091C1.01971 1.07321 1.01971 1.2858 1.15083 1.41692L3.52517 3.79126L1.15101 6.16543C1.01988 6.29655 1.01988 6.50914 1.15101 6.64026C1.28213 6.77138 1.49472 6.77138 1.62584 6.64026L4 4.2661L6.374 6.64009C6.50512 6.77122 6.71771 6.77122 6.84883 6.64009C6.97996 6.50897 6.97996 6.29638 6.84883 6.16526L4.47484 3.79126L6.84901 1.41709C6.98013 1.28597 6.98013 1.07338 6.84901 0.942258C6.71789 0.811136 6.5053 0.811136 6.37418 0.942258L4 3.31643L1.62567 0.942091Z" fill="#283125"/>
<path d="M1.15083 0.942091L1.29225 1.08351L1.15083 0.942091ZM1.62567 0.942091L1.48424 1.08351L1.48424 1.08351L1.62567 0.942091ZM1.15083 1.41692L1.29225 1.2755L1.15083 1.41692ZM3.52517 3.79126L3.66659 3.93268L3.80801 3.79126L3.66659 3.64984L3.52517 3.79126ZM1.15101 6.16543L1.29243 6.30685H1.29243L1.15101 6.16543ZM1.15101 6.64026L1.00958 6.78168H1.00958L1.15101 6.64026ZM1.62584 6.64026L1.76726 6.78168L1.62584 6.64026ZM4 4.2661L4.14142 4.12468L4 3.98325L3.85858 4.12468L4 4.2661ZM4.47484 3.79126L4.33342 3.64984L4.19199 3.79126L4.33342 3.93268L4.47484 3.79126ZM6.84901 1.41709L6.99043 1.55851V1.55851L6.84901 1.41709ZM6.84901 0.942258L6.99043 0.800836V0.800836L6.84901 0.942258ZM6.37418 0.942258L6.5156 1.08368V1.08368L6.37418 0.942258ZM4 3.31643L3.85858 3.45785L4 3.59927L4.14142 3.45785L4 3.31643ZM1.29225 1.08351C1.34527 1.0305 1.43123 1.0305 1.48424 1.08351L1.76709 0.80067C1.55786 0.591443 1.21864 0.591443 1.00941 0.80067L1.29225 1.08351ZM1.29225 1.2755C1.23924 1.22249 1.23924 1.13653 1.29225 1.08351L1.00941 0.80067C0.800183 1.0099 0.800184 1.34912 1.00941 1.55835L1.29225 1.2755ZM3.66659 3.64984L1.29225 1.2755L1.00941 1.55835L3.38375 3.93268L3.66659 3.64984ZM1.29243 6.30685L3.66659 3.93268L3.38375 3.64984L1.00958 6.02401L1.29243 6.30685ZM1.29243 6.49884C1.23941 6.44582 1.23941 6.35986 1.29243 6.30685L1.00958 6.02401C0.800357 6.23323 0.800357 6.57245 1.00958 6.78168L1.29243 6.49884ZM1.48442 6.49884C1.4314 6.55186 1.34544 6.55186 1.29243 6.49884L1.00958 6.78168C1.21881 6.99091 1.55803 6.99091 1.76726 6.78168L1.48442 6.49884ZM3.85858 4.12468L1.48442 6.49884L1.76726 6.78168L4.14142 4.40752L3.85858 4.12468ZM6.51542 6.49867L4.14142 4.12468L3.85858 4.40752L6.23258 6.78152L6.51542 6.49867ZM6.70741 6.49867C6.6544 6.55169 6.56844 6.55169 6.51542 6.49867L6.23258 6.78152C6.44181 6.99074 6.78103 6.99074 6.99026 6.78152L6.70741 6.49867ZM6.70741 6.30668C6.76043 6.3597 6.76043 6.44566 6.70741 6.49867L6.99026 6.78152C7.19948 6.57229 7.19948 6.23307 6.99026 6.02384L6.70741 6.30668ZM4.33342 3.93268L6.70741 6.30668L6.99026 6.02384L4.61626 3.64984L4.33342 3.93268ZM6.70759 1.27567L4.33342 3.64984L4.61626 3.93268L6.99043 1.55851L6.70759 1.27567ZM6.70759 1.08368C6.7606 1.1367 6.7606 1.22265 6.70759 1.27567L6.99043 1.55851C7.19966 1.34929 7.19966 1.01006 6.99043 0.800836L6.70759 1.08368ZM6.5156 1.08368C6.56861 1.03066 6.65457 1.03066 6.70759 1.08368L6.99043 0.800836C6.7812 0.59161 6.44198 0.59161 6.23275 0.800836L6.5156 1.08368ZM4.14142 3.45785L6.5156 1.08368L6.23275 0.800836L3.85858 3.17501L4.14142 3.45785ZM1.48424 1.08351L3.85858 3.45785L4.14142 3.17501L1.76709 0.80067L1.48424 1.08351Z" fill="#283125" mask="url(#path-1-outside-1)"/>
</g>
</svg>
