<svg width="6" height="7" viewBox="0 0 6 7" fill="none" xmlns="http://www.w3.org/2000/svg">
<path opacity="0.6" fill-rule="evenodd" clip-rule="evenodd" d="M0.625665 0.942091C0.494543 0.81097 0.281953 0.81097 0.150831 0.942091C0.0197097 1.07321 0.0197099 1.2858 0.150832 1.41692L2.52517 3.79126L0.151005 6.16543C0.0198835 6.29655 0.0198834 6.50914 0.151005 6.64026C0.282127 6.77138 0.494717 6.77138 0.625839 6.64026L3 4.2661L5.374 6.64009C5.50512 6.77122 5.71771 6.77122 5.84883 6.64009C5.97996 6.50897 5.97996 6.29638 5.84883 6.16526L3.47484 3.79126L5.84901 1.41709C5.98013 1.28597 5.98013 1.07338 5.84901 0.942258C5.71789 0.811136 5.5053 0.811136 5.37418 0.942258L3 3.31643L0.625665 0.942091Z" fill="white"/>
</svg>
