<?xml version="1.0" encoding="UTF-8" standalone="no"?>
<!-- Created with Inkscape (http://www.inkscape.org/) -->

<svg
   xmlns:dc="http://purl.org/dc/elements/1.1/"
   xmlns:cc="http://creativecommons.org/ns#"
   xmlns:rdf="http://www.w3.org/1999/02/22-rdf-syntax-ns#"
   xmlns:svg="http://www.w3.org/2000/svg"
   xmlns="http://www.w3.org/2000/svg"
   xmlns:sodipodi="http://sodipodi.sourceforge.net/DTD/sodipodi-0.dtd"
   xmlns:inkscape="http://www.inkscape.org/namespaces/inkscape"
   width="32px"
   height="32px"
   viewBox="0 0 32 32"
   version="1.1"
   id="SVGRoot"
   inkscape:version="0.92.4 (unknown)"
   sodipodi:docname="cmc.svg">
  <defs
     id="defs867" />
  <sodipodi:namedview
     id="base"
     pagecolor="#ffffff"
     bordercolor="#666666"
     borderopacity="1.0"
     inkscape:pageopacity="0.0"
     inkscape:pageshadow="2"
     inkscape:zoom="8"
     inkscape:cx="16"
     inkscape:cy="16"
     inkscape:document-units="px"
     inkscape:current-layer="layer1"
     showgrid="false"
     inkscape:window-width="1920"
     inkscape:window-height="1025"
     inkscape:window-x="0"
     inkscape:window-y="27"
     inkscape:window-maximized="1"
     inkscape:grid-bbox="true" />
  <metadata
     id="metadata870">
    <rdf:RDF>
      <cc:Work
         rdf:about="">
        <dc:format>image/svg+xml</dc:format>
        <dc:type
           rdf:resource="http://purl.org/dc/dcmitype/StillImage" />
        <dc:title></dc:title>
      </cc:Work>
    </rdf:RDF>
  </metadata>
  <g
     inkscape:label="Layer 1"
     inkscape:groupmode="layer"
     id="layer1">
    <g
       style="fill:#ffffff;fill-rule:evenodd;opacity:0.5;fill-opacity:1"
       id="g848"
       transform="matrix(0.7804878,0,0,0.7804878,0.10204724,2e-7)">
      <path
         d="m 35.124,24.5 c -0.715,0.452 -1.557,0.508 -2.197,0.147 -0.813,-0.459 -1.26,-1.534 -1.26,-3.029 v -4.473 c 0,-2.16 -0.854,-3.697 -2.282,-4.112 -2.42,-0.705 -4.24,2.256 -4.924,3.368 l -4.268,6.92 v -8.458 c -0.048,-1.946 -0.68,-3.11 -1.88,-3.461 -0.794,-0.232 -1.982,-0.139 -3.136,1.627 L 5.615,28.383 C 4.3348764,25.95279 3.6675484,23.246748 3.671,20.5 c 0,-9.249 7.412,-16.773 16.522,-16.773 9.11,0 16.521,7.524 16.521,16.773 0,0.016 0.004,0.03 0.005,0.045 0,0.016 -0.003,0.03 -0.002,0.046 0.086,1.791 -0.494,3.216 -1.593,3.91 z m 5.261,-3.999 V 20.5 20.454 L 40.384,20.408 C 40.333,9.144 31.296,0 20.192,0 9.059,0 0,9.196 0,20.5 0,31.803 9.059,41 20.193,41 c 5.109,0 9.985,-1.942 13.728,-5.467 0.744,-0.7 0.788,-1.879 0.098,-2.633 -0.683939,-0.754204 -1.854028,-0.799312 -2.594,-0.1 -3.03392,2.872976 -7.053644,4.473779 -11.232,4.473 -4.878,0 -9.267,-2.159 -12.294,-5.583 l 8.623,-13.846 v 6.383 c 0,3.066 1.189,4.057 2.186,4.347 0.998,0.29 2.523,0.092 4.124,-2.508 l 4.743,-7.689 c 0.152,-0.248 0.292,-0.462 0.42,-0.647 v 3.888 c 0,2.866 1.148,5.158 3.149,6.287 1.804,1.018 4.072,0.926 5.92,-0.24 2.24,-1.415 3.447,-4.022 3.321,-7.164 z"
         id="path846"
         inkscape:connector-curvature="0"
         sodipodi:nodetypes="ccssccccccccssccccccccsssccccccsccccsccc"
         style="fill:#ffffff;fill-opacity:1" />
    </g>
  </g>
</svg>
