<?xml version="1.0" encoding="UTF-8"?>
<svg width="24px" height="23px" viewBox="0 0 24 23" version="1.1" xmlns="http://www.w3.org/2000/svg" xmlns:xlink="http://www.w3.org/1999/xlink">
    <!-- Generator: Sketch 53.2 (72643) - https://sketchapp.com -->
    <title>Group 9</title>
    <desc>Created with Sketch.</desc>
    <g id="Page-2" stroke="none" stroke-width="1" fill="none" fill-rule="evenodd">
        <g id="ts_45-copy" transform="translate(-882.000000, -303.000000)" fill="#FCD600" fill-rule="nonzero">
            <g id="Group-9" transform="translate(882.000000, 303.000000)">
                <path d="M23.1435854,21.16 L0.836023789,21.16 C0.367034834,21.16 0,21.5863415 0,22.08 C0,22.5736585 0.387425658,23 0.836023789,23 L23.1639762,23 C23.6329652,23 24,22.5736585 24,22.08 C24,21.5863415 23.6125743,21.16 23.1435854,21.16 Z" id="Path"></path>
                <path d="M0.0204911368,13.8 L0,17.5848101 C0,17.7983122 0.0819645471,18.0118143 0.245893641,18.1670886 C0.409822735,18.3223629 0.614734103,18.4 0.840136608,18.4 L4.81541714,18.3805907 C5.04081965,18.3805907 5.24573101,18.3029536 5.40966011,18.1476793 L19.1387217,5.14345992 C19.4665799,4.83291139 19.4665799,4.32827004 19.1387217,3.99831224 L15.2044235,0.232911392 C14.8765653,-0.0776371308 14.3437957,-0.0776371308 13.9954464,0.232911392 L11.2496341,2.85316456 L0.266384778,13.2371308 C0.122946821,13.3924051 0.0204911368,13.5864979 0.0204911368,13.8 Z M14.6101805,1.94092827 L17.376484,4.56118143 L15.8191576,6.03628692 L13.0528541,3.41603376 L14.6101805,1.94092827 Z M1.72125549,14.1493671 L11.8438771,4.56118143 L14.6101805,7.1814346 L4.48755895,16.750211 L1.70076435,16.7696203 L1.72125549,14.1493671 L1.72125549,14.1493671 Z" id="Shape"></path>
            </g>
        </g>
    </g>
</svg>