<svg width="15" height="15" viewBox="0 0 15 15" fill="none" xmlns="http://www.w3.org/2000/svg">
<path d="M11.5 11.709C11.5 13.1116 10.3626 14.249 8.95996 14.249L2.54004 14.249C1.1374 14.249 2.13614e-05 13.1116 -5.11816e-07 11.709L-2.32772e-07 5.32519L0.0126951 5.06543C0.13402 3.86995 1.08476 2.92007 2.28027 2.79883L2.53906 2.78516L8.95996 2.78516C10.275 2.78517 11.3563 3.78469 11.4863 5.06543L11.5 5.3252L11.5 11.709ZM10 5.3252C9.99998 4.75102 9.53414 4.28517 8.95996 4.28516L2.53906 4.28516C1.96508 4.28542 1.5 4.75115 1.5 5.32519L1.5 11.709C1.50001 12.2832 1.96583 12.749 2.54004 12.749L8.95996 12.749C9.53416 12.749 10 12.2832 10 11.709L10 5.3252ZM14.25 9.58984C14.25 10.004 13.9142 10.3398 13.5 10.3398C13.0858 10.3398 12.75 10.0041 12.75 9.58984L12.75 3.75C12.75 2.50736 11.7426 1.5 10.5 1.5L4.66016 1.5C4.24594 1.5 3.91016 1.16421 3.91016 0.75C3.91016 0.335786 4.24594 -4.37291e-07 4.66016 -4.19185e-07L10.5 -1.63918e-07C12.5711 -7.33884e-08 14.25 1.67893 14.25 3.75L14.25 9.58984Z" fill="white"/>
</svg>
