<svg width="15" height="15" viewBox="0 0 15 15" fill="none" xmlns="http://www.w3.org/2000/svg">
<path fill-rule="evenodd" clip-rule="evenodd" d="M1.60669 2.6778H10.7113C11.5986 2.6778 12.318 3.39714 12.318 4.28449V13.3891C12.318 14.2764 11.5986 14.9958 10.7113 14.9958H1.60669C0.719341 14.9958 0 14.2764 0 13.3891V4.28449C0 3.39714 0.719341 2.6778 1.60669 2.6778ZM10.7113 13.9247C11.0071 13.9247 11.2469 13.6849 11.2469 13.3891V4.28449C11.2469 3.98869 11.0071 3.74891 10.7113 3.74891H1.60669C1.3109 3.74891 1.07112 3.98869 1.07112 4.28449V13.3891C1.07112 13.6849 1.3109 13.9247 1.60669 13.9247H10.7113Z" fill="#4aa956"/>
<path d="M13.389 0H3.74878C2.86143 0 2.14209 0.719341 2.14209 1.60669C2.14209 1.90249 2.38187 2.14227 2.67767 2.14227C2.97346 2.14227 3.21321 1.90249 3.21321 1.60669C3.21321 1.3109 3.45299 1.07112 3.74878 1.07112H13.389C13.6847 1.07112 13.9245 1.3109 13.9245 1.60669V11.2469C13.9245 11.5427 13.6847 11.7824 13.389 11.7824C13.0932 11.7824 12.8534 12.0222 12.8534 12.318C12.8534 12.6138 13.0932 12.8536 13.389 12.8536C14.2763 12.8536 14.9956 12.1342 14.9956 11.2469V1.60669C14.9956 0.719341 14.2763 0 13.389 0Z" fill="#4aa956"/>
</svg>
