<?xml version="1.0" encoding="UTF-8"?>
<svg width="20px" height="20px" viewBox="0 0 20 20" version="1.1" xmlns="http://www.w3.org/2000/svg" xmlns:xlink="http://www.w3.org/1999/xlink">
    <!-- Generator: Sketch 53.2 (72643) - https://sketchapp.com -->
    <title>copy</title>
    <desc>Created with Sketch.</desc>
    <g id="Page-2" stroke="none" stroke-width="1" fill="none" fill-rule="evenodd" opacity="0.5">
        <g id="ts_21" transform="translate(-802.000000, -2739.000000)" fill="#EEEEEE" fill-rule="nonzero">
            <g id="Group-28" transform="translate(172.000000, 2690.000000)">
                <g id="copy" transform="translate(630.000000, 49.000000)">
                    <path d="M14.2817155,3.57041841 L2.14225941,3.57041841 C0.959121339,3.57041841 -2.98427949e-13,4.52953975 -2.98427949e-13,5.71267782 L-2.98427949e-13,17.8521339 C-2.98427949e-13,19.035272 0.959121339,19.9943933 2.14225941,19.9943933 L14.2817155,19.9943933 C15.4648536,19.9943933 16.4239749,19.035272 16.4239749,17.8521339 L16.4239749,5.71267782 C16.4239749,4.52953975 15.4648536,3.57041841 14.2817155,3.57041841 Z M14.9958159,17.8521757 C14.9958159,18.246569 14.6761088,18.5662762 14.2817155,18.5662762 L2.14225941,18.5662762 C1.74786611,18.5662762 1.428159,18.246569 1.428159,17.8521757 L1.428159,5.71267782 C1.428159,5.31828452 1.74786611,4.99857741 2.14225941,4.99857741 L14.2817155,4.99857741 C14.6761088,4.99857741 14.9958159,5.31828452 14.9958159,5.71267782 L14.9958159,17.8521757 Z" id="Shape"></path>
                    <path d="M17.8521757,8.17124146e-14 L4.99861925,8.17124146e-14 C3.81548117,8.17124146e-14 2.85635983,0.959121339 2.85635983,2.14225941 C2.85635983,2.53665272 3.17606695,2.85635983 3.57046025,2.85635983 C3.96485356,2.85635983 4.28451883,2.53665272 4.28451883,2.14225941 C4.28451883,1.74786611 4.60422594,1.428159 4.99861925,1.428159 L17.8521757,1.428159 C18.246569,1.428159 18.5662762,1.74786611 18.5662762,2.14225941 L18.5662762,14.9958159 C18.5662762,15.3902092 18.246569,15.7099163 17.8521757,15.7099163 C17.4577824,15.7099163 17.1380753,16.0296234 17.1380753,16.4240167 C17.1380753,16.81841 17.4577824,17.1381172 17.8521757,17.1381172 C19.0353138,17.1381172 19.9944351,16.1789958 19.9944351,14.9958577 L19.9944351,2.14225941 C19.9944351,0.959121339 19.0353138,8.17124146e-14 17.8521757,8.17124146e-14 Z" id="Path"></path>
                </g>
            </g>
        </g>
    </g>
</svg>