<svg width="16" height="16" viewBox="0 0 16 16" fill="none" xmlns="http://www.w3.org/2000/svg">
<path d="M7.5 0C7.91421 0 8.25 0.335786 8.25 0.75V2.25H14.75C15.1642 2.25 15.5 2.58579 15.5 3C15.5 3.41421 15.1642 3.75 14.75 3.75H8.25V7.25H12.75C14.2688 7.25 15.5 8.48122 15.5 10V11C15.5 12.5188 14.2688 13.75 12.75 13.75H8.25V15.25C8.25 15.6642 7.91421 16 7.5 16C7.08579 16 6.75 15.6642 6.75 15.25V13.75H0.75C0.335786 13.75 0 13.4142 0 13C0 12.5858 0.335786 12.25 0.75 12.25H6.75V8.75H2.75C1.23122 8.75 0 7.51878 0 6V5C0 3.48122 1.23122 2.25 2.75 2.25H6.75V0.75C6.75 0.335786 7.08579 0 7.5 0ZM8.25 12.25H12.75C13.4404 12.25 14 11.6904 14 11V10C14 9.30964 13.4404 8.75 12.75 8.75H8.25V12.25ZM2.75 3.75C2.05964 3.75 1.5 4.30964 1.5 5V6C1.5 6.69036 2.05964 7.25 2.75 7.25H6.75V3.75H2.75Z" fill="#9A9AB0"/>
</svg>
