<svg width="24" height="25" viewBox="0 0 24 25" fill="none" xmlns="http://www.w3.org/2000/svg">
<path fill-rule="evenodd" clip-rule="evenodd" d="M12 21.5C16.9706 21.5 21 17.4706 21 12.5C21 10.6666 20.4518 8.96124 19.5103 7.53891L12.355 15.4893C11.6624 16.2589 10.4968 16.3726 9.66844 15.7513L6.4 13.3C5.95817 12.9686 5.86863 12.3418 6.2 11.9C6.53137 11.4582 7.15817 11.3686 7.6 11.7L10.8684 14.1513L18.214 5.98955C16.5986 4.44717 14.4099 3.5 12 3.5C7.02944 3.5 3 7.52944 3 12.5C3 17.4706 7.02944 21.5 12 21.5Z" fill="#00e28e"/>
</svg>
