<svg width="15" height="15" viewBox="0 0 15 15" fill="none" xmlns="http://www.w3.org/2000/svg">
<g clip-path="url(#clip0)">
<path d="M14.5485 12.2344C14.6496 12.4207 14.707 12.6343 14.707 12.8613C14.707 13.5894 14.1167 14.1797 13.3887 14.1797H1.61133C0.883301 14.1797 0.292969 13.5894 0.292969 12.8613C0.292969 12.6343 0.350391 12.4207 0.451465 12.2344L6.34014 1.51172C6.56309 1.0998 6.99873 0.820312 7.5 0.820312C8.00127 0.820312 8.43691 1.0998 8.65986 1.51172L14.5485 12.2344Z" fill="#FF0000" fill-opacity="0.51"/>
<path d="M6.62109 10.6641H8.37891V12.4219H6.62109V10.6641Z" fill="white"/>
<path d="M6.62109 4.51172H8.37891V8.90625H6.62109V4.51172Z" fill="white"/>
<path d="M6.32812 12.4219C6.32812 12.5837 6.45932 12.7148 6.62109 12.7148H8.37891C8.54068 12.7148 8.67188 12.5837 8.67188 12.4219V10.6641C8.67188 10.5023 8.54068 10.3711 8.37891 10.3711H6.62109C6.45932 10.3711 6.32812 10.5023 6.32812 10.6641V12.4219ZM6.91406 10.957H8.08594V12.1289H6.91406V10.957Z" fill="black"/>
<path d="M6.62109 9.19922H8.37891C8.54068 9.19922 8.67188 9.06806 8.67188 8.90625V4.51172C8.67188 4.34991 8.54068 4.21875 8.37891 4.21875H6.62109C6.45932 4.21875 6.32812 4.34991 6.32812 4.51172V8.90625C6.32812 9.06806 6.45932 9.19922 6.62109 9.19922ZM6.91406 4.80469H8.08594V8.61328H6.91406V4.80469Z" fill="black"/>
<path d="M7.5 14.4727C7.6618 14.4727 7.79297 14.3415 7.79297 14.1797C7.79297 14.0179 7.6618 13.8867 7.5 13.8867C7.3382 13.8867 7.20703 14.0179 7.20703 14.1797C7.20703 14.3415 7.3382 14.4727 7.5 14.4727Z" fill="black"/>
<path d="M8.91753 1.37227C8.63546 0.851104 8.09229 0.527344 7.5 0.527344C6.90771 0.527344 6.36454 0.851103 6.08335 1.37071L0.193945 12.0947C0.0670605 12.3286 0 12.5937 0 12.8613C0 13.7498 0.722842 14.4727 1.61133 14.4727H6.18164C6.34342 14.4727 6.47461 14.3415 6.47461 14.1797C6.47461 14.0179 6.34342 13.8867 6.18164 13.8867H1.61133C1.04593 13.8867 0.585938 13.4267 0.585938 12.8613C0.585938 12.691 0.628477 12.5225 0.708281 12.3754L6.5978 1.65117C6.77736 1.31938 7.12307 1.11328 7.5 1.11328C7.87693 1.11328 8.22264 1.31938 8.40305 1.65275L14.291 12.3741C14.3715 12.5225 14.4141 12.691 14.4141 12.8613C14.4141 13.4267 13.9541 13.8867 13.3887 13.8867H8.81836C8.65658 13.8867 8.52539 14.0179 8.52539 14.1797C8.52539 14.3415 8.65658 14.4727 8.81836 14.4727H13.3887C14.2772 14.4727 15 13.7498 15 12.8613C15 12.5937 14.9329 12.3286 14.8053 12.0934L8.91753 1.37227Z" fill="black"/>
</g>
<defs>
<clipPath id="clip0">
<rect width="15" height="15" fill="white"/>
</clipPath>
</defs>
</svg>
