<svg width="20" height="16" viewBox="0 0 20 16" fill="none" xmlns="http://www.w3.org/2000/svg">
    <path fill-rule="evenodd" clip-rule="evenodd" d="M9.16642 5.91671C9.16642 5.45671 9.53976 5.08337 9.99976 5.08337C10.4598 5.08337 10.8331 5.45671 10.8331 5.91671V9.25004C10.8331 9.71004 10.4598 10.0834 9.99976 10.0834C9.53976 10.0834 9.16642 9.71004 9.16642 9.25004V5.91671ZM9.16642 11.75C9.16642 11.29 9.53976 10.9167 9.99976 10.9167C10.4598 10.9167 10.8331 11.29 10.8331 11.75C10.8331 12.21 10.4598 12.5834 9.99976 12.5834C9.53976 12.5834 9.16642 12.21 9.16642 11.75ZM17.387 13.7109C17.1962 14.0484 16.8245 14.25 16.3928 14.25H3.60617C3.1745 14.25 2.80284 14.0484 2.61284 13.7109C2.52284 13.5525 2.4045 13.23 2.627 12.8634L9.01951 2.26504C9.40867 1.62004 10.5903 1.62004 10.9795 2.26504L17.3728 12.8634C17.5945 13.23 17.477 13.5525 17.387 13.7109ZM18.8003 12.0025L12.407 1.40337C11.9078 0.576707 11.0078 0.083374 9.9995 0.083374C8.99117 0.083374 8.09117 0.576707 7.59284 1.40337L1.1995 12.0025C0.725338 12.7884 0.711171 13.7334 1.16117 14.53C1.64367 15.3859 2.58117 15.9167 3.60617 15.9167H16.3928C17.4187 15.9167 18.3553 15.3859 18.8387 14.53C19.2887 13.7334 19.2745 12.7884 18.8003 12.0025Z" fill="#e9590c"/>
</svg>
