<svg width="17" height="16" viewBox="0 0 17 16" fill="none" xmlns="http://www.w3.org/2000/svg">
    <path fill-rule="evenodd" clip-rule="evenodd" d="M7.83337 5.33337C7.83337 4.96537 8.13204 4.66671 8.50004 4.66671C8.86804 4.66671 9.16671 4.96537 9.16671 5.33337V8.66671C9.16671 9.03471 8.86804 9.33337 8.50004 9.33337C8.13204 9.33337 7.83337 9.03471 7.83337 8.66671V5.33337ZM7.83337 10.6667C7.83337 10.2987 8.13204 10 8.50004 10C8.86804 10 9.16671 10.2987 9.16671 10.6667C9.16671 11.0347 8.86804 11.3334 8.50004 11.3334C8.13204 11.3334 7.83337 11.0347 7.83337 10.6667ZM8.50004 13.3334C5.55937 13.3334 3.16671 10.9407 3.16671 8.00004C3.16671 5.05937 5.55937 2.66671 8.50004 2.66671C11.4407 2.66671 13.8334 5.05937 13.8334 8.00004C13.8334 10.9407 11.4407 13.3334 8.50004 13.3334ZM8.50004 1.33337C4.81804 1.33337 1.83337 4.31804 1.83337 8.00004C1.83337 11.682 4.81804 14.6667 8.50004 14.6667C12.182 14.6667 15.1667 11.682 15.1667 8.00004C15.1667 4.31804 12.182 1.33337 8.50004 1.33337Z" fill="#878787"/>
    <mask id="mask0_646_1063" style="mask-type:luminance" maskUnits="userSpaceOnUse" x="1" y="1" width="15" height="14">
        <path fill-rule="evenodd" clip-rule="evenodd" d="M7.83337 5.33337C7.83337 4.96537 8.13204 4.66671 8.50004 4.66671C8.86804 4.66671 9.16671 4.96537 9.16671 5.33337V8.66671C9.16671 9.03471 8.86804 9.33337 8.50004 9.33337C8.13204 9.33337 7.83337 9.03471 7.83337 8.66671V5.33337ZM7.83337 10.6667C7.83337 10.2987 8.13204 10 8.50004 10C8.86804 10 9.16671 10.2987 9.16671 10.6667C9.16671 11.0347 8.86804 11.3334 8.50004 11.3334C8.13204 11.3334 7.83337 11.0347 7.83337 10.6667ZM8.50004 13.3334C5.55937 13.3334 3.16671 10.9407 3.16671 8.00004C3.16671 5.05937 5.55937 2.66671 8.50004 2.66671C11.4407 2.66671 13.8334 5.05937 13.8334 8.00004C13.8334 10.9407 11.4407 13.3334 8.50004 13.3334ZM8.50004 1.33337C4.81804 1.33337 1.83337 4.31804 1.83337 8.00004C1.83337 11.682 4.81804 14.6667 8.50004 14.6667C12.182 14.6667 15.1667 11.682 15.1667 8.00004C15.1667 4.31804 12.182 1.33337 8.50004 1.33337Z" fill="white"/>
    </mask>
    <g mask="url(#mask0_646_1063)">
    </g>
</svg>
