<svg width="30" height="30" viewBox="0 0 30 30" fill="none" xmlns="http://www.w3.org/2000/svg">
    <circle cx="15" cy="15" r="15" fill="#00e28e"/>
    <path d="M21.2398 18.6158C21.2398 20.9051 19.6179 22.8611 16.6577 23.3759V26H14.1354V23.558C12.4097 23.4797 10.7375 23.0151 9.75949 22.4508L10.532 19.4385C11.6131 20.0316 13.1313 20.5718 14.8048 20.5718C16.2715 20.5718 17.2756 20.0041 17.2756 18.9752C17.2756 17.9972 16.4522 17.376 14.5464 16.7341C11.7938 15.8069 9.91345 14.521 9.91345 12.0261C9.91345 9.75949 11.51 7.98623 14.2639 7.44401V5H16.7856V7.26461C18.51 7.34159 19.6701 7.70106 20.5182 8.11342L19.7718 11.024C19.1044 10.7402 17.9196 10.1464 16.066 10.1464C14.3925 10.1464 13.8523 10.8667 13.8523 11.5883C13.8523 12.4371 14.7533 12.9767 16.9402 13.802C20.0054 14.8818 21.2398 16.2976 21.2398 18.6158Z"
          fill="#181A19"/>
</svg>
