<svg width="15" height="18" viewBox="0 0 15 18" fill="none" xmlns="http://www.w3.org/2000/svg">
<path d="M1.5 11.4623H11.6909C13.1066 11.4623 13.972 9.7739 13.2261 8.46708L12.7365 7.60924C12.2547 6.76504 12.2547 5.69728 12.7365 4.85309L13.2261 3.99524C13.972 2.68842 13.1066 1 11.6909 1L1.5 1L1.5 11.4623Z" fill="white" fill-opacity="0.15"/>
<path d="M1.5 11.4623H11.6909C13.1066 11.4623 13.972 9.7739 13.2261 8.46708L12.7365 7.60924C12.2547 6.76504 12.2547 5.69728 12.7365 4.85309L13.2261 3.99524C13.972 2.68842 13.1066 1 11.6909 1L1.5 1L1.5 11.4623ZM1.5 11.4623L1.5 17" stroke="#00e28e" stroke-width="1.5" stroke-linecap="round" stroke-linejoin="round"/>
</svg>
