<svg width="16" height="14" viewBox="0 0 16 14" fill="none" xmlns="http://www.w3.org/2000/svg">
<path fill-rule="evenodd" clip-rule="evenodd" d="M6.57715 0.000457544C7.99736 0.000573065 9.24972 1.05809 9.25 2.4819V7.15182H10.1016L10.2812 7.16061C11.1708 7.24369 11.9451 7.93631 11.9453 8.88132V12.0796C11.9453 12.3184 12.1783 12.6087 12.5898 12.6089H13.626C14.0377 12.6089 14.2705 12.3184 14.2705 12.0796V6.84616H12.7363C12.0781 6.84605 11.51 6.52906 11.1826 6.04831C10.8522 5.56274 10.7731 4.91209 11.0977 4.32272L12.4082 1.94382L11.0352 1.11374C10.752 0.942119 10.6607 0.57289 10.832 0.28952C11.0035 0.00627789 11.3729 -0.0847413 11.6562 0.086395L13.5225 1.21628L13.6045 1.27585C13.6805 1.34174 13.7392 1.42653 13.7744 1.52194L15.4336 6.03952C15.4579 6.10565 15.4707 6.17611 15.4707 6.24655V12.0796C15.4707 13.0879 14.5884 13.8091 13.626 13.8091H12.5898C11.6275 13.8089 10.7451 13.0878 10.7451 12.0796V8.88132C10.7449 8.64253 10.5131 8.35205 10.1016 8.35202L9.25 8.35104V11.3276C9.25 12.7517 7.99752 13.8099 6.57715 13.81H2.67285C1.25258 13.8098 0 12.7516 0 11.3276V2.4819C0.000281036 1.05818 1.25274 0.000698559 2.67285 0.000457544H6.57715ZM2.67285 1.19968C1.80353 1.19991 1.19951 1.82758 1.19922 2.4819V11.3276C1.19922 11.9821 1.80332 12.6096 2.67285 12.6098H6.57715C7.44682 12.6097 8.05078 11.9822 8.05078 11.3276V2.4819C8.05049 1.82752 7.44661 1.19979 6.57715 1.19968H2.67285ZM4.6582 2.24557C4.82326 1.82661 5.42683 1.98911 5.37598 2.43893L4.99805 5.78854C4.97195 6.01983 5.14527 6.22295 5.36914 6.22311H6.61523C6.88672 6.22311 7.06819 6.51442 6.95703 6.77194L4.85938 11.5688C4.68223 11.9777 4.08945 11.8016 4.14648 11.3569L4.51758 8.21823C4.54751 7.98486 4.37286 7.77682 4.14648 7.77682H2.71973C2.45374 7.77682 2.27244 7.49676 2.37305 7.24069L4.6582 2.24557ZM12.1494 4.90182C12.0607 5.06289 12.0762 5.2299 12.1738 5.3735C12.2749 5.52186 12.4702 5.64585 12.7363 5.64597H14.0107L13.1016 3.17136L12.1494 4.90182Z" fill="#9A9AB0"/>
</svg>
