<svg width="17" height="14" viewBox="0 0 17 14" fill="none" xmlns="http://www.w3.org/2000/svg">
<path fill-rule="evenodd" clip-rule="evenodd" d="M12.6982 0.0929469C12.3944 -0.0908567 11.9992 0.00638683 11.8154 0.310146C11.6316 0.613906 11.7288 1.00915 12.0326 1.19296L13.3706 2.00259L12.0804 4.3449C11.7472 4.94977 11.8276 5.61761 12.1666 6.1155C12.5021 6.60823 13.0838 6.93204 13.7562 6.93204H15.2474V12.1229C15.2474 12.3343 15.0382 12.6092 14.6462 12.6092L13.6095 12.6092C13.2174 12.6092 13.0082 12.3343 13.0082 12.1229V8.92392C13.0082 7.88812 12.1035 7.15198 11.1215 7.15189H11.1213L10.313 7.15168V2.52489C10.313 1.07328 9.03687 8.08347e-05 7.59673 8.08347e-05H3.69287C2.25273 8.08347e-05 0.976562 1.07328 0.976562 2.52489V11.3708C0.976562 12.8224 2.25273 13.8956 3.69287 13.8956L7.59673 13.8956C9.03686 13.8956 10.313 12.8224 10.313 11.3708V8.43739L11.1211 8.4376H11.1213C11.5134 8.4376 11.7225 8.71253 11.7225 8.92392V12.1229C11.7225 13.1587 12.6274 13.8949 13.6095 13.8949L14.6462 13.8949C15.6283 13.8949 16.5331 13.1587 16.5331 12.1229V6.28918C16.5331 6.21357 16.5198 6.13856 16.4937 6.06758L14.8349 1.55052C14.7846 1.4135 14.6892 1.29769 14.5643 1.22212L12.6982 0.0929469ZM13.2066 4.96523L14.1142 3.31753L14.9693 5.64633H13.7562C13.5038 5.64633 13.3224 5.52847 13.2293 5.39184C13.1398 5.26036 13.1262 5.11114 13.2066 4.96523ZM2.26228 2.52489C2.26228 1.89776 2.84274 1.2858 3.69287 1.2858H7.59673C8.44686 1.2858 9.02732 1.89776 9.02732 2.52489V11.3708C9.02732 11.9979 8.44686 12.6099 7.59673 12.6099L3.69287 12.6099C2.84274 12.6099 2.26228 11.9979 2.26228 11.3708V2.52489ZM5.67778 2.28841L3.39266 7.28309C3.29194 7.53919 3.47305 7.81975 3.73908 7.81975H5.16627C5.39264 7.81975 5.5672 8.02713 5.53726 8.2605L5.16627 11.3997C5.10922 11.8445 5.70152 12.0201 5.87857 11.611L7.97618 6.8147C8.08765 6.5571 7.90648 6.26566 7.63488 6.26566H6.38895C6.16491 6.26566 5.99106 6.06234 6.01723 5.83092L6.39592 2.48125C6.44678 2.03133 5.84268 1.86911 5.67778 2.28841Z" fill="#878787"/>
</svg>
