<svg width="10" height="11" viewBox="0 0 10 11" fill="none" xmlns="http://www.w3.org/2000/svg">
<path d="M5.12 0.12288H1.664C1.22268 0.12288 0.799435 0.298194 0.487374 0.610254C0.175314 0.922315 0 1.34556 0 1.78688V10.2784C0 10.3463 0.0269714 10.4114 0.0749807 10.4594C0.12299 10.5074 0.188105 10.5344 0.256 10.5344H6.528C6.59589 10.5344 6.66101 10.5074 6.70902 10.4594C6.75703 10.4114 6.784 10.3463 6.784 10.2784V3.40864H7.2C7.33579 3.40864 7.46602 3.46258 7.56204 3.5586C7.65806 3.65462 7.712 3.78485 7.712 3.92064V7.52128C7.72189 7.81596 7.84591 8.09528 8.05787 8.30024C8.26983 8.5052 8.55315 8.61978 8.848 8.61978C9.14285 8.61978 9.42617 8.5052 9.63813 8.30024C9.85009 8.09528 9.97411 7.81596 9.984 7.52128V2.00064C9.98395 1.96429 9.97617 1.92837 9.96116 1.89526C9.94615 1.86216 9.92427 1.83263 9.89696 1.80864L7.83232 0L7.49568 0.384L9.472 2.11712V7.52128C9.46472 7.68188 9.3958 7.8335 9.27958 7.94458C9.16335 8.05566 9.00877 8.11765 8.848 8.11765C8.68723 8.11765 8.53265 8.05566 8.41642 7.94458C8.3002 7.8335 8.23128 7.68188 8.224 7.52128V3.92064C8.224 3.64906 8.11611 3.3886 7.92408 3.19656C7.73204 3.00452 7.47158 2.89664 7.2 2.89664H6.784V1.78688C6.784 1.34556 6.60869 0.922315 6.29663 0.610254C5.98456 0.298194 5.56132 0.12288 5.12 0.12288ZM6.272 10.0211H0.512V1.78688C0.512 1.48135 0.633371 1.18833 0.849413 0.972293C1.06545 0.756251 1.35847 0.63488 1.664 0.63488H5.12C5.42553 0.63488 5.71854 0.756251 5.93459 0.972293C6.15063 1.18833 6.272 1.48135 6.272 1.78688V10.0211Z" fill="#00e28e"/>
<path d="M4.97742 1.53149H1.80302C1.66722 1.53149 1.537 1.58544 1.44098 1.68146C1.34496 1.77747 1.29102 1.9077 1.29102 2.04349V4.51645C1.29102 4.58435 1.31799 4.64946 1.366 4.69747C1.41401 4.74548 1.47912 4.77245 1.54702 4.77245H5.23342C5.30131 4.77245 5.36643 4.74548 5.41443 4.69747C5.46244 4.64946 5.48942 4.58435 5.48942 4.51645V2.04349C5.48942 1.9077 5.43547 1.77747 5.33945 1.68146C5.24344 1.58544 5.11321 1.53149 4.97742 1.53149ZM4.97742 4.26045H1.80302V2.04349H4.97742V4.26045Z" fill="#00e28e"/>
</svg>
