<svg width="15" height="13" viewBox="0 0 15 13" fill="none" xmlns="http://www.w3.org/2000/svg">
<path fill-rule="evenodd" clip-rule="evenodd" d="M13.2647 0C13.9083 1.62487 13.9022 3.32238 13.7816 3.62114C14.5379 4.44527 15 5.43498 15 6.78726C15 12.6663 10.1398 12.7605 8.91294 12.7605C8.6356 12.7605 8.08337 12.7612 7.5 12.762C6.91663 12.7612 6.36473 12.7605 6.08707 12.7605C4.86016 12.7605 0 12.6663 0 6.78726C0 5.43498 0.462065 4.44527 1.21842 3.62114C1.09761 3.32238 1.0919 1.62487 1.7356 0C1.7356 0 3.21179 0.16247 5.44598 1.70078C5.91473 1.57104 6.70745 1.50624 7.5 1.50624C8.29255 1.50624 9.0856 1.5712 9.55386 1.70095C11.788 0.16247 13.2647 0 13.2647 0ZM9.03163 8.92425C9.03163 8.11108 9.50641 7.45236 10.0917 7.45236C10.6767 7.45236 11.1514 8.11108 11.1512 8.92425C11.1512 9.73758 10.6767 10.3966 10.0917 10.3966C9.50641 10.3966 9.03163 9.73758 9.03163 8.92425ZM7.52299 12.0379H7.47717C4.40234 12.0379 2.00788 11.6694 2.00788 8.67064C2.00788 7.95253 2.26043 7.28564 2.86043 6.73229C3.59091 6.05953 4.68979 6.13755 5.97711 6.22895L5.97712 6.22895C6.4543 6.26283 6.95737 6.29854 7.47717 6.29854C7.48451 6.29854 7.49234 6.29838 7.50016 6.29805C7.50815 6.29838 7.51581 6.29854 7.52315 6.29854C8.0429 6.29854 8.54597 6.26285 9.02315 6.22898C10.3106 6.13762 11.4097 6.05962 12.1399 6.73229C12.7399 7.28564 12.9924 7.95253 12.9924 8.67064C12.9923 11.6694 10.5978 12.0379 7.52299 12.0379ZM3.8488 8.92425C3.8488 8.11108 4.32326 7.45236 4.90826 7.45236C5.49375 7.45236 5.96821 8.11108 5.96837 8.92425C5.96837 9.73758 5.49391 10.3966 4.90826 10.3966C4.32326 10.3966 3.8488 9.73758 3.8488 8.92425Z" fill="#FCD600"/>
</svg>
