<svg xmlns="http://www.w3.org/2000/svg" xmlns:xlink="http://www.w3.org/1999/xlink" version="1.1" id="Capa_1" x="0px" y="0px" width="168.1px" height="168.1px" viewBox="0 0 168.1 168.1" style="enable-background:new 0 0 168.1 168.1;" xml:space="preserve">
<g>
	<path d="M142.119,19.245C123.68,9.39,99.36,12.383,84.077,26.134C68.72,12.394,44.361,9.433,25.984,19.245   C9.968,27.737,0,44,0,61.658c0,5.056,0.84,10.08,2.326,14.408c7.839,33.931,58.163,78.583,81.751,78.583   c23.537,0,73.823-44.656,81.527-78.008c1.652-4.908,2.495-9.92,2.495-14.988C168.1,44,158.141,27.731,142.119,19.245z    M154.157,73.396c-7.294,31.578-54.816,69.347-70.08,69.347c-16.987,0-63.271-39.567-70.303-69.921   c-1.256-3.661-1.86-7.409-1.86-11.157c0-13.241,7.526-25.478,19.638-31.902c5.64-3.021,12.056-4.58,18.542-4.58   c11.416,0,22.162,4.843,29.492,13.308l4.543,5.199l4.475-5.199c11.415-13.247,32.384-17.056,47.97-8.728   c12.112,6.424,19.639,18.661,19.639,31.902C156.188,65.406,155.58,69.155,154.157,73.396z M149.506,61.658   c0,3.114-0.523,6.244-1.564,9.324c-0.425,1.253-1.56,1.993-2.824,1.993c-0.317,0-0.63-0.022-0.952-0.131   c-1.564-0.526-2.386-2.222-1.86-3.776c0.837-2.473,1.286-4.98,1.286-7.41c0-8.891-5.049-17.083-13.172-21.362   c-3.852-2.057-8.021-3.114-12.397-3.114c-1.665,0-2.96-1.308-2.96-2.96c0-1.653,1.295-2.955,2.96-2.955   c5.341,0,10.45,1.253,15.188,3.776C143.257,40.366,149.506,50.556,149.506,61.658z" style="&#10;    fill: #4aa956;&#10;"/>
</g>
</svg>
