<svg width="20" height="20" viewBox="0 0 20 20" fill="none" xmlns="http://www.w3.org/2000/svg">
<path d="M6.95043 18.6471C4.17301 17.9956 2.00437 15.827 1.35288 13.0496C0.882375 11.0437 0.882374 8.95626 1.35288 6.95043C2.00437 4.17301 4.17301 2.00437 6.95044 1.35288C8.95626 0.882375 11.0437 0.882375 13.0496 1.35288C15.827 2.00437 17.9956 4.17301 18.6471 6.95043C19.1176 8.95626 19.1176 11.0437 18.6471 13.0496C17.9956 15.827 15.827 17.9956 13.0496 18.6471C11.0437 19.1176 8.95626 19.1176 6.95043 18.6471Z" fill="white" fill-opacity="0.15" stroke="#00e28e" stroke-width="1.5"/>
<circle cx="10" cy="13.5" r="1" fill="#00e28e"/>
<path d="M8 8V7.5C8 6.39543 8.89543 5.5 10 5.5V5.5V5.5C11.1046 5.5 12 6.39543 12 7.5V7.62132C12 8.18393 11.7765 8.7235 11.3787 9.12132L10 10.5" stroke="#00e28e" stroke-width="1.5" stroke-linecap="round" stroke-linejoin="round"/>
</svg>
