<svg width="15" height="15" viewBox="0 0 15 15" fill="none" xmlns="http://www.w3.org/2000/svg">
  <path d="M7.5 4.09091C7.78242 4.09091 8.01136 4.31985 8.01136 4.60227V7.67045C8.01136 7.95287 7.78242 8.18182 7.5 8.18182C7.21758 8.18182 6.98864 7.95287 6.98864 7.67045V4.60227C6.98864 4.31985 7.21758 4.09091 7.5 4.09091Z" fill="#00e28e"/>
  <path d="M8.18182 10.2273C8.18182 10.6038 7.87656 10.9091 7.5 10.9091C7.12344 10.9091 6.81818 10.6038 6.81818 10.2273C6.81818 9.85071 7.12344 9.54545 7.5 9.54545C7.87656 9.54545 8.18182 9.85071 8.18182 10.2273Z" fill="#00e28e"/>
  <path fill-rule="evenodd" clip-rule="evenodd" d="M7.5 0C3.35786 0 0 3.35786 0 7.5C0 11.6421 3.35786 15 7.5 15C11.6421 15 15 11.6421 15 7.5C15 3.35786 11.6421 0 7.5 0ZM1.02273 7.5C1.02273 3.9227 3.9227 1.02273 7.5 1.02273C11.0773 1.02273 13.9773 3.9227 13.9773 7.5C13.9773 11.0773 11.0773 13.9773 7.5 13.9773C3.9227 13.9773 1.02273 11.0773 1.02273 7.5Z" fill="#00e28e"/>
</svg>
