<svg width="26" height="23" viewBox="0 0 26 23" fill="none" xmlns="http://www.w3.org/2000/svg">
<path d="M20.4825 8.26322C20.2715 8.26322 20.1005 8.43426 20.1005 8.64523V21.247H1.76402V2.9105H17.0444C17.2554 2.9105 17.4264 2.73946 17.4264 2.52849C17.4264 2.31753 17.2554 2.14648 17.0444 2.14648H1.38201C1.17104 2.14648 1 2.31753 1 2.52849V21.629C1 21.8399 1.17104 22.011 1.38201 22.011H20.4825C20.6934 22.011 20.8645 21.8399 20.8645 21.629V8.64523C20.8645 8.43421 20.6934 8.26322 20.4825 8.26322Z" fill="#00e28e" stroke="#00e28e"/>
<path d="M24.5761 1.11511C24.4284 0.964068 24.1862 0.961299 24.0352 1.10899L9.04438 15.7258L3.96137 9.91736C3.8332 9.74976 3.59349 9.71776 3.42589 9.84593C3.25828 9.97409 3.22629 10.2138 3.35445 10.3814C3.36486 10.3951 3.37622 10.408 3.3884 10.4201L8.73653 16.5322C8.80505 16.6109 8.9028 16.6581 9.00699 16.6629H9.02223C9.12212 16.6631 9.2181 16.6241 9.28963 16.5544L24.57 1.65603C24.721 1.50834 24.7238 1.26614 24.5761 1.11511Z" fill="#00e28e" stroke="#00e28e"/>
</svg>
