<svg width="20" height="20" viewBox="0 0 20 20" fill="none" xmlns="http://www.w3.org/2000/svg">
<path d="M10.0011 0.833008C8.18816 0.833008 6.41586 1.37062 4.90842 2.37787C3.40097 3.38512 2.22606 4.81675 1.53225 6.49175C0.838443 8.16671 0.656915 10.0098 1.01061 11.788C1.36431 13.5661 2.23735 15.1995 3.51934 16.4815C4.80131 17.7635 6.43466 18.6365 8.21282 18.9902C9.99097 19.3439 11.8341 19.1624 13.509 18.4686C15.1841 17.7747 16.6157 16.5999 17.6229 15.0924C18.6302 13.5849 19.1678 11.8127 19.1678 9.99967C19.1678 8.79591 18.9307 7.60389 18.47 6.49175C18.0094 5.37959 17.3342 4.36907 16.483 3.51786C15.6318 2.66666 14.6212 1.99145 13.509 1.53077C12.3969 1.07011 11.2049 0.833008 10.0011 0.833008ZM10.0011 14.7205C9.79269 14.7205 9.58883 14.6587 9.41548 14.5429C9.24214 14.427 9.10702 14.2624 9.02718 14.0698C8.94743 13.8772 8.92653 13.6651 8.96723 13.4606C9.00793 13.2562 9.10831 13.0684 9.25571 12.9209C9.4032 12.7735 9.59102 12.6731 9.79553 12.6324C9.99995 12.5917 10.212 12.6126 10.4046 12.6924C10.5972 12.7722 10.7618 12.9073 10.8777 13.0807C10.9935 13.254 11.0553 13.4579 11.0553 13.6663C11.0553 13.9459 10.9442 14.214 10.7466 14.4118C10.5488 14.6094 10.2807 14.7205 10.0011 14.7205ZM10.7449 10.6818C10.7172 11.0721 10.3925 11.3747 10.0011 11.3747C9.60979 11.3747 9.28503 11.0721 9.25735 10.6818L8.96295 6.53078C8.92023 5.92847 9.39733 5.41634 10.0011 5.41634C10.605 5.41634 11.0821 5.92847 11.0393 6.53078L10.7449 10.6818Z" fill="#F3BA2F"/>
</svg>
