<svg width="20" height="20" viewBox="0 0 20 20" fill="none" xmlns="http://www.w3.org/2000/svg">
<path d="M10.0011 0.832031C8.18816 0.832031 6.41586 1.36965 4.90842 2.37689C3.40097 3.38414 2.22606 4.81577 1.53225 6.49077C0.838443 8.16573 0.656915 10.0089 1.01061 11.787C1.36431 13.5652 2.23735 15.1985 3.51934 16.4805C4.80131 17.7625 6.43466 18.6355 8.21282 18.9893C9.99097 19.3429 11.8341 19.1614 13.509 18.4676C15.1841 17.7738 16.6157 16.5989 17.6229 15.0914C18.6302 13.584 19.1678 11.8117 19.1678 9.9987C19.1678 8.79493 18.9307 7.60292 18.47 6.49077C18.0094 5.37862 17.3342 4.36809 16.483 3.51688C15.6318 2.66569 14.6212 1.99047 13.509 1.5298C12.3969 1.06914 11.2049 0.832031 10.0011 0.832031ZM10.872 13.7112C10.872 14.1921 10.4821 14.582 10.0011 14.582C9.52019 14.582 9.13031 14.1921 9.13031 13.7112V9.49453C9.13031 9.01358 9.52019 8.6237 10.0011 8.6237C10.4821 8.6237 10.872 9.01358 10.872 9.49453V13.7112ZM10.0011 7.3862C9.79269 7.3862 9.58883 7.32437 9.41548 7.20854C9.24214 7.09271 9.10702 6.92807 9.02718 6.73545C8.94743 6.54282 8.92653 6.33086 8.96723 6.12638C9.00793 5.92189 9.10831 5.73405 9.25571 5.58663C9.4032 5.4392 9.59102 5.3388 9.79553 5.29812C9.99995 5.25744 10.212 5.27832 10.4046 5.35811C10.5972 5.4379 10.7618 5.57301 10.8777 5.74636C10.9935 5.91972 11.0553 6.12354 11.0553 6.33203C11.0553 6.61161 10.9442 6.87975 10.7466 7.07744C10.5488 7.27513 10.2807 7.3862 10.0011 7.3862Z" fill="#627EEA"/>
</svg>
