<svg width="19" height="19" viewBox="0 0 19 19" fill="none" xmlns="http://www.w3.org/2000/svg">
<path d="M0.5 9.5C0.5 4.52507 4.52552 0.5 9.5 0.5C14.4749 0.5 18.5 4.52552 18.5 9.5C18.5 14.4749 14.4745 18.5 9.5 18.5C4.52507 18.5 0.5 14.4745 0.5 9.5Z" fill="white" stroke="#4AA956"/>
<path d="M9.36328 8.4185C9.36328 8.34487 9.42299 8.28516 9.49663 8.28516C9.57023 8.28516 9.62994 8.34481 9.62997 8.41847C9.62997 8.41848 9.62997 8.4185 9.62997 8.41852V13.7611C9.62997 13.8348 9.57028 13.8944 9.49663 13.8944C9.423 13.8944 9.36328 13.8347 9.36328 13.7611V8.4185Z" fill="#4AA956" stroke="#4AA956"/>
<path d="M8.7334 5.87212C8.7334 5.44983 9.07776 5.10547 9.50005 5.10547C9.92235 5.10547 10.2667 5.44983 10.2667 5.87212C10.2667 6.29442 9.92235 6.63878 9.50005 6.63878C9.07776 6.63878 8.7334 6.29442 8.7334 5.87212Z" fill="#4AA956" stroke="#4AA956"/>
</svg>
