<svg width="19" height="19" viewBox="0 0 19 19" fill="none" xmlns="http://www.w3.org/2000/svg">
<path d="M9.5 0C4.24939 0 0 4.24891 0 9.5C0 14.7506 4.24891 19 9.5 19C14.7506 19 19 14.7511 19 9.5C19 4.24939 14.7511 0 9.5 0Z" fill="#4AA956"/>
<path d="M9.49858 7.78456C9.14882 7.78456 8.86523 8.06811 8.86523 8.41791V13.7605C8.86523 14.1103 9.14879 14.3939 9.49858 14.3939C9.84837 14.3939 10.1319 14.1103 10.1319 13.7605V8.41787C10.1319 8.06808 9.84834 7.78456 9.49858 7.78456Z" fill="white"/>
<path d="M9.50103 4.6062C8.80259 4.6062 8.23438 5.17442 8.23438 5.87286C8.23438 6.57129 8.80259 7.13951 9.50103 7.13951C10.1995 7.13951 10.7677 6.57129 10.7677 5.87286C10.7677 5.17442 10.1995 4.6062 9.50103 4.6062Z" fill="white"/>
</svg>
