<svg width="22" height="21" viewBox="0 0 22 21" fill="none" xmlns="http://www.w3.org/2000/svg">
<path d="M19.316 4.78502C19.3156 4.77864 19.3149 4.77226 19.3138 4.76592C19.2883 4.73056 19.257 4.70014 19.2307 4.66549C19.0402 4.41367 18.8386 4.17129 18.6258 3.93832C18.5675 3.87466 18.5092 3.81171 18.4495 3.74945C18.2304 3.52171 18.0005 3.30453 17.76 3.09801C17.7156 3.05979 17.674 3.02021 17.6296 2.9827C17.0369 2.48987 16.3879 2.06455 15.6954 1.71516C15.6677 1.70103 15.6386 1.68901 15.6101 1.67483C15.3017 1.52273 14.9855 1.386 14.6627 1.26526C14.5898 1.23982 14.5235 1.21574 14.4543 1.19451C14.1671 1.09409 13.8756 1.00614 13.5797 0.93067C13.4923 0.90804 13.4048 0.884706 13.3159 0.864895C13.0244 0.79912 12.7329 0.748888 12.4348 0.707856C12.3444 0.695132 12.2555 0.678139 12.1644 0.667529C11.3967 0.576969 10.6205 0.576969 9.85271 0.667529C9.76162 0.678139 9.67272 0.695132 9.58232 0.707856C9.28426 0.748888 8.98983 0.79912 8.70121 0.864895C8.6123 0.884706 8.52485 0.90804 8.43739 0.93067C8.13955 1.0061 7.84806 1.09405 7.56286 1.19451C7.48997 1.21855 7.42365 1.24263 7.35443 1.26526C7.03165 1.386 6.71539 1.52268 6.407 1.67483C6.37856 1.68897 6.34944 1.70098 6.32173 1.71516C5.62692 2.06418 4.97576 2.48945 4.38096 2.9827C4.33651 3.02017 4.29496 3.05979 4.25051 3.09801C4.00758 3.30548 3.77776 3.52266 3.56109 3.74945C3.50135 3.81171 3.44302 3.87466 3.38473 3.93832C3.17143 4.17079 2.96979 4.41317 2.77986 4.66545C2.75364 4.7001 2.72229 4.73052 2.69676 4.76588C2.69343 4.77205 2.69048 4.77843 2.688 4.78498C0.174311 8.20415 0.174311 12.7951 2.688 16.2143C2.69048 16.2208 2.69338 16.2272 2.69676 16.2334C2.72225 16.2687 2.75359 16.2991 2.77986 16.3338C2.96984 16.5856 3.17143 16.828 3.38473 17.061C3.44302 17.1246 3.50135 17.1876 3.56109 17.2498C3.7807 17.4776 4.01048 17.6947 4.25051 17.9013C4.29496 17.9395 4.33651 17.9791 4.38096 18.0166C4.97367 18.5094 5.62265 18.9347 6.31515 19.2841C6.34286 19.2983 6.37199 19.3103 6.40043 19.3244C6.70882 19.4766 7.02503 19.6133 7.34785 19.734C7.42075 19.7595 7.48706 19.7835 7.55628 19.8048C7.84341 19.9052 8.13493 19.9931 8.43082 20.0686C8.51827 20.0912 8.60572 20.1146 8.69463 20.1344C8.98616 20.2002 9.27764 20.2504 9.57574 20.2914C9.6661 20.3041 9.755 20.3211 9.84613 20.3317C10.6139 20.4223 11.3901 20.4223 12.1578 20.3317C12.2489 20.3211 12.3378 20.3041 12.4282 20.2914C12.7263 20.2504 13.0207 20.2002 13.3093 20.1344C13.3982 20.1146 13.4857 20.0912 13.5732 20.0686C13.8715 19.9932 14.163 19.9052 14.4477 19.8048C14.5206 19.7807 14.5869 19.7566 14.6561 19.734C14.9789 19.6133 15.2952 19.4766 15.6035 19.3244C15.632 19.3103 15.6611 19.2983 15.6888 19.2841C16.3813 18.9347 17.0303 18.5094 17.623 18.0166C17.6675 17.9791 17.709 17.9395 17.7535 17.9013C17.9964 17.6943 18.2262 17.4771 18.4429 17.2498C18.5026 17.1876 18.561 17.1246 18.6192 17.061C18.8325 16.828 19.0342 16.5856 19.2241 16.3338C19.2503 16.2991 19.2817 16.2687 19.3072 16.2334C19.3105 16.2272 19.3135 16.2208 19.316 16.2143C21.8297 12.7952 21.8297 8.20419 19.316 4.78502ZM18.4844 6.12336C19.1814 7.23747 19.6023 8.49345 19.7139 9.79236H15.3485C15.295 8.94952 15.1584 8.11363 14.9404 7.29615C16.1735 7.07201 17.3671 6.67703 18.4844 6.12336ZM12.8597 2.20675C12.9005 2.21595 12.9398 2.22868 12.9807 2.23788C13.2416 2.29731 13.5003 2.3652 13.7532 2.45008C13.7918 2.4628 13.8297 2.47768 13.8676 2.49111C14.1183 2.57599 14.3654 2.67008 14.6074 2.77406C14.6496 2.79317 14.6912 2.81439 14.7335 2.8335C14.9652 2.94055 15.1916 3.05631 15.4127 3.18081L15.5584 3.2664C15.7683 3.3909 15.9724 3.52411 16.1706 3.66606C16.2216 3.70212 16.2726 3.73681 16.3229 3.77639C16.5172 3.91785 16.7033 4.06946 16.8811 4.23122C16.9278 4.27225 16.9759 4.31258 17.0218 4.35502C17.2084 4.5269 17.3862 4.70868 17.5582 4.89684C17.58 4.92159 17.6034 4.94422 17.6252 4.96759C16.6384 5.42404 15.593 5.74997 14.517 5.93664C14.0185 4.60656 13.36 3.33823 12.5551 2.15801C12.6563 2.17567 12.7599 2.18557 12.8597 2.20675ZM8.11679 9.79232C8.17426 9.02698 8.30852 8.26889 8.51763 7.52883C9.34336 7.62403 10.1742 7.67124 11.0057 7.67029C11.838 7.67004 12.6696 7.62163 13.4959 7.52527C13.7047 8.26653 13.8382 9.02582 13.8946 9.79232H8.11679ZM13.8946 11.207C13.8371 11.9724 13.7028 12.7305 13.4937 13.4705C12.668 13.3753 11.8372 13.3281 11.0057 13.3291C10.1734 13.3282 9.34186 13.3754 8.51541 13.4705C8.3069 12.7304 8.17341 11.9723 8.11674 11.207H13.8946ZM11.0057 2.47275C11.835 3.61364 12.5171 4.84893 13.0368 6.15096C12.3621 6.22051 11.6841 6.25545 11.0057 6.25565C10.3279 6.25486 9.65068 6.21972 8.97672 6.15026C9.497 4.8491 10.1783 3.61422 11.0057 2.47275ZM4.45394 4.8961C4.62522 4.70793 4.80376 4.52615 4.99032 4.35427C5.03623 4.31183 5.08435 4.27151 5.13098 4.23048C5.31076 4.07157 5.49685 3.91996 5.68922 3.77565C5.73953 3.73814 5.79051 3.7049 5.84154 3.66532C6.03976 3.52386 6.24384 3.39061 6.45372 3.26565L6.59946 3.18007C6.82053 3.05465 7.04693 2.93885 7.27868 2.83275C7.32095 2.81364 7.3625 2.79242 7.40477 2.77332C7.64672 2.66722 7.8938 2.57313 8.1445 2.49037C8.18238 2.47694 8.21739 2.46206 8.2589 2.44933C8.51178 2.36727 8.76906 2.29938 9.03142 2.23713C9.07224 2.22793 9.11157 2.21521 9.15312 2.20671C9.25296 2.18549 9.35647 2.17558 9.45776 2.15789C8.65257 3.33831 7.99385 4.60689 7.49513 5.93722C6.41909 5.75055 5.37366 5.42462 4.3869 4.96817C4.40876 4.94347 4.43208 4.92084 4.45394 4.8961ZM3.52693 6.12336C4.64405 6.67699 5.83736 7.07197 7.07025 7.29615C6.85251 8.11368 6.71608 8.94956 6.66287 9.79236H2.29749C2.40912 8.49345 2.82999 7.23747 3.52693 6.12336ZM3.52693 14.876C2.82995 13.7619 2.40907 12.506 2.29749 11.207H6.66287C6.71633 12.0499 6.85298 12.8858 7.07097 13.7032C5.83787 13.9273 4.64431 14.3223 3.52693 14.876ZM9.15167 18.7926C9.11085 18.7834 9.07152 18.7707 9.03069 18.7615C8.76978 18.7021 8.51105 18.6342 8.25817 18.5493C8.21953 18.5366 8.18165 18.5217 8.14373 18.5082C7.89303 18.4234 7.646 18.3293 7.40401 18.2253C7.36173 18.2062 7.32018 18.185 7.27791 18.1659C7.04616 18.0588 6.81976 17.9431 6.59869 17.8185L6.45295 17.733C6.24307 17.6085 6.039 17.4752 5.84077 17.3333C5.78974 17.2972 5.73876 17.2625 5.68846 17.223C5.49412 17.0815 5.30802 16.9299 5.13021 16.7681C5.08358 16.7271 5.03546 16.6868 4.98955 16.6443C4.80299 16.4725 4.62518 16.2907 4.45317 16.1025C4.43131 16.0778 4.40799 16.0551 4.38613 16.0318C5.37293 15.5753 6.41832 15.2494 7.49436 15.0627C7.99287 16.3928 8.65137 17.6611 9.45622 18.8414C9.35497 18.8237 9.25151 18.8138 9.15167 18.7926ZM11.0057 18.5267C10.1763 17.3858 9.49418 16.1505 8.97454 14.8484C10.3242 14.7074 11.6856 14.7074 13.0353 14.8484L13.0346 14.8491C12.5144 16.1503 11.8331 17.3851 11.0057 18.5267ZM17.5574 16.1033C17.3861 16.2914 17.2076 16.4732 17.021 16.6451C16.9751 16.6875 16.927 16.7279 16.8804 16.7689C16.7006 16.9283 16.5145 17.0799 16.3221 17.2237C16.2718 17.2612 16.2208 17.298 16.1698 17.334C15.9716 17.4755 15.7675 17.6087 15.5576 17.7337L15.4119 17.8193C15.1913 17.9443 14.9649 18.06 14.7327 18.1666C14.6904 18.1857 14.6489 18.2069 14.6066 18.226C14.3646 18.3321 14.1176 18.4262 13.8669 18.509C13.829 18.5224 13.794 18.5373 13.7525 18.55C13.4996 18.6321 13.2423 18.7 12.9799 18.7622C12.9391 18.7714 12.8998 18.7842 12.8582 18.7927C12.7584 18.8139 12.6549 18.8238 12.5536 18.8415C13.3584 17.6613 14.017 16.3929 14.5155 15.0628C15.5915 15.2495 16.6369 15.5754 17.6237 16.0319C17.6026 16.0559 17.5793 16.0785 17.5574 16.1033ZM18.4844 14.876C17.3673 14.3224 16.174 13.9274 14.9411 13.7032C15.1588 12.8857 15.2953 12.0498 15.3485 11.207H19.7139C19.6022 12.5059 19.1814 13.7619 18.4844 14.876Z" fill="#4AA956"/>
</svg>
