<?xml version="1.0" encoding="UTF-8"?>
<svg width="17px" height="15px" viewBox="0 0 17 15" version="1.1" xmlns="http://www.w3.org/2000/svg" xmlns:xlink="http://www.w3.org/1999/xlink">
    <!-- Generator: Sketch 53.2 (72643) - https://sketchapp.com -->
    <title>link</title>
    <desc>Created with Sketch.</desc>
    <g id="Page-2" stroke="none" stroke-width="1" fill="none" fill-rule="evenodd">
        <g id="ts_40" transform="translate(-597.000000, -468.000000)" fill="#61B9DF" fill-rule="nonzero">
            <g id="link" transform="translate(597.000000, 468.000000)">
                <path d="M13.6817232,8.63624966 L13.0453089,8.63624966 C12.9523577,8.63624966 12.8760883,8.66602652 12.8167444,8.72585885 C12.756913,8.78534292 12.7271366,8.86157865 12.7271366,8.95442673 L12.7271366,12.1362322 C12.7271366,12.5737605 12.5714634,12.9482176 12.2599429,13.2598124 C11.9484224,13.5713376 11.5738316,13.7269783 11.1363098,13.7269783 L2.86355088,13.7269783 C2.42606394,13.7269783 2.05150798,13.5713376 1.73991781,13.2598124 C1.4283973,12.9482524 1.27265445,12.5737954 1.27265445,12.1362322 L1.27265445,3.86345431 C1.27265445,3.42596084 1.42836247,3.0515386 1.73991781,2.73997861 C2.05150798,2.42838379 2.42606394,2.27267345 2.86355088,2.27267345 L9.86341158,2.27267345 C9.95636275,2.27267345 10.0326322,2.24275728 10.0922198,2.18316874 C10.1518075,2.12351054 10.1815839,2.04734446 10.1815839,1.95446155 L10.1815839,1.31800294 C10.1815839,1.22529416 10.1518075,1.14898878 10.0922198,1.08943506 C10.0326322,1.02977686 9.95636275,1 9.86341158,1 L2.86355088,1 C2.07480671,1 1.40029254,1.28007662 0.840078011,1.84019503 C0.280072439,2.40027861 0,3.07480286 0,3.86355879 L0,12.1363716 C0,12.9250927 0.280072439,13.5997214 0.840112837,14.1596308 C1.40032737,14.7197841 2.07484154,15 2.86358571,15 L11.1363098,15 C11.9250192,15 12.599603,14.7197841 13.1597479,14.1596308 C13.7199276,13.5997214 14,12.9251275 14,12.1363716 L14,8.95467051 C14,8.86171795 13.9701888,8.7854474 13.9103573,8.72585885 C13.8507,8.66602652 13.7744306,8.63624966 13.6817232,8.63624966 Z" id="Path"></path>
                <path d="M16.8282599,0.171618415 C16.7138193,0.0571744977 16.5781484,0 16.4216903,0 L11.7966677,0 C11.6401147,0 11.5045387,0.0571744977 11.390193,0.171618415 C11.2757523,0.285999051 11.2184529,0.421515583 11.2184529,0.57810473 C11.2184529,0.734693878 11.2757523,0.87024205 11.390193,0.984685967 L12.9799911,2.57456099 L7.09036288,8.46448347 C7.03005768,8.52469546 7,8.59398829 7,8.67214048 C7,8.75057744 7.0301526,8.81983863 7.09036288,8.88005062 L8.1201706,9.90976111 C8.18038088,9.96997311 8.24967174,10 8.32794826,10 C8.40622479,10 8.47554729,9.97000475 8.53572592,9.90976111 L14.4253858,4.01993355 L16.0153104,5.60980857 C16.1296562,5.72425249 16.2652005,5.78149027 16.4217852,5.78149027 C16.5783699,5.78149027 16.7139142,5.72425249 16.8283865,5.60980857 C16.9428271,5.4953963 17,5.35991141 17,5.20332226 L17,0.57810473 C16.9999684,0.421420661 16.9426057,0.285999051 16.8282599,0.171618415 Z" id="Path"></path>
            </g>
        </g>
    </g>
</svg>