<svg width="16" height="16" viewBox="0 0 16 16" fill="none" xmlns="http://www.w3.org/2000/svg">
    <path fill-rule="evenodd" clip-rule="evenodd" d="M8.00002 10.6667C7.63202 10.6667 7.33335 10.368 7.33335 10C7.33335 9.63204 7.63202 9.33337 8.00002 9.33337C8.36802 9.33337 8.66669 9.63204 8.66669 10C8.66669 10.368 8.36802 10.6667 8.00002 10.6667ZM8.00002 8.00004C6.89735 8.00004 6.00002 8.89737 6.00002 10C6.00002 11.1027 6.89735 12 8.00002 12C9.10269 12 10 11.1027 10 10C10 8.89737 9.10269 8.00004 8.00002 8.00004ZM12 12.6667C12 13.0347 11.7014 13.3334 11.3334 13.3334H4.66669C4.29869 13.3334 4.00002 13.0347 4.00002 12.6667V7.33337C4.00002 6.96537 4.29869 6.66671 4.66669 6.66671H11.3334C11.7014 6.66671 12 6.96537 12 7.33337V12.6667ZM11.3334 5.33337H6.66669V4.00004C6.66669 3.26471 7.26469 2.66671 8.00002 2.66671C8.73535 2.66671 9.33335 3.26471 9.33335 4.00004C9.33335 4.36871 9.63135 4.66671 10 4.66671C10.3687 4.66671 10.6667 4.36871 10.6667 4.00004C10.6667 2.52937 9.47069 1.33337 8.00002 1.33337C6.52935 1.33337 5.33335 2.52937 5.33335 4.00004V5.33337H4.66669C3.56402 5.33337 2.66669 6.23071 2.66669 7.33337V12.6667C2.66669 13.7694 3.56402 14.6667 4.66669 14.6667H11.3334C12.436 14.6667 13.3334 13.7694 13.3334 12.6667V7.33337C13.3334 6.23071 12.436 5.33337 11.3334 5.33337Z" fill="#878787"/>
    <mask id="mask0_651_2395" style="mask-type:luminance" maskUnits="userSpaceOnUse" x="2" y="1" width="12" height="14">
        <path fill-rule="evenodd" clip-rule="evenodd" d="M8.00002 10.6667C7.63202 10.6667 7.33335 10.368 7.33335 10C7.33335 9.63204 7.63202 9.33337 8.00002 9.33337C8.36802 9.33337 8.66669 9.63204 8.66669 10C8.66669 10.368 8.36802 10.6667 8.00002 10.6667ZM8.00002 8.00004C6.89735 8.00004 6.00002 8.89737 6.00002 10C6.00002 11.1027 6.89735 12 8.00002 12C9.10269 12 10 11.1027 10 10C10 8.89737 9.10269 8.00004 8.00002 8.00004ZM12 12.6667C12 13.0347 11.7014 13.3334 11.3334 13.3334H4.66669C4.29869 13.3334 4.00002 13.0347 4.00002 12.6667V7.33337C4.00002 6.96537 4.29869 6.66671 4.66669 6.66671H11.3334C11.7014 6.66671 12 6.96537 12 7.33337V12.6667ZM11.3334 5.33337H6.66669V4.00004C6.66669 3.26471 7.26469 2.66671 8.00002 2.66671C8.73535 2.66671 9.33335 3.26471 9.33335 4.00004C9.33335 4.36871 9.63135 4.66671 10 4.66671C10.3687 4.66671 10.6667 4.36871 10.6667 4.00004C10.6667 2.52937 9.47069 1.33337 8.00002 1.33337C6.52935 1.33337 5.33335 2.52937 5.33335 4.00004V5.33337H4.66669C3.56402 5.33337 2.66669 6.23071 2.66669 7.33337V12.6667C2.66669 13.7694 3.56402 14.6667 4.66669 14.6667H11.3334C12.436 14.6667 13.3334 13.7694 13.3334 12.6667V7.33337C13.3334 6.23071 12.436 5.33337 11.3334 5.33337Z" fill="white"/>
    </mask>
    <g mask="url(#mask0_651_2395)">
    </g>
</svg>
