<svg width="10" height="12" viewBox="0 0 10 12" fill="none" xmlns="http://www.w3.org/2000/svg">
<path d="M7.05109 8.61366V9.4926C7.05109 10.4619 6.35015 11.2505 5.48852 11.2505H1.56257C0.700943 11.2505 0 10.4619 0 9.4926V1.75789C0 0.788561 0.700943 0 1.56257 0H5.48852C6.35015 0 7.05109 0.788561 7.05109 1.75789V2.63683C7.05109 2.87957 6.87622 3.07631 6.66045 3.07631C6.44468 3.07631 6.26981 2.87957 6.26981 2.63683V1.75789C6.26981 1.27327 5.9193 0.878945 5.48852 0.878945H1.56257C1.13179 0.878945 0.781284 1.27327 0.781284 1.75789V9.4926C0.781284 9.97723 1.13179 10.3715 1.56257 10.3715H5.48852C5.9193 10.3715 6.26981 9.97723 6.26981 9.4926V8.61366C6.26981 8.37092 6.44468 8.17419 6.66045 8.17419C6.87622 8.17419 7.05109 8.37092 7.05109 8.61366ZM9.7144 4.87033L8.83965 3.88624C8.68706 3.71457 8.4397 3.71457 8.28718 3.88624C8.13459 4.05782 8.13459 4.3361 8.28718 4.50768L8.90939 5.20775H4.21894C4.00317 5.20775 3.82829 5.40448 3.82829 5.64722C3.82829 5.88996 4.00317 6.08669 4.21894 6.08669H8.90939L8.28718 6.78676C8.13459 6.95834 8.13459 7.23662 8.28718 7.4082C8.36348 7.49403 8.46343 7.53695 8.56338 7.53695C8.66341 7.53695 8.76335 7.49403 8.83965 7.4082L9.7144 6.42411C10.0952 5.99571 10.0952 5.29873 9.7144 4.87033Z" fill="white"/>
</svg>
