<svg width="72" height="62" viewBox="0 0 72 62" fill="none" xmlns="http://www.w3.org/2000/svg">
<path d="M36.0041 0.0852051L0.400879 61.7519H71.6074L36.0041 0.0852051ZM38.9333 24.7519L37.8254 38.6269H34.1828L33.075 24.7519H38.9333ZM36.0041 49.4987C35.4451 49.4987 34.8987 49.3328 34.4338 49.0223C33.9688 48.7118 33.6068 48.2703 33.3928 47.7538C33.1789 47.2374 33.1227 46.6688 33.2319 46.1206C33.341 45.5724 33.6102 45.0689 34.0055 44.6736C34.4008 44.2783 34.9046 44.0091 35.4528 43.9C36.0013 43.7908 36.5696 43.847 37.0861 44.0609C37.6025 44.2749 38.0437 44.6372 38.3545 45.1022C38.665 45.5668 38.8306 46.1135 38.8306 46.6725C38.8306 47.4221 38.5328 48.1408 38.0027 48.6708C37.4727 49.2009 36.7537 49.4987 36.0041 49.4987Z" fill="#F3BA2F"/>
</svg>
