<svg width="73" height="97" viewBox="0 0 73 97" fill="none" xmlns="http://www.w3.org/2000/svg">
<path d="M19.1409 31.0704C-7.35933 65.0704 -7.35869 95.0704 36.1409 95.0704C79.6405 95.0704 79.6405 65.0704 51.6409 31.0704M19.1409 31.0704C19.1409 31.0704 14.1409 30.4732 14.1409 25.5704C14.1409 20.6677 19.1409 20.0704 19.1409 20.0704M19.1409 31.0704L26.1406 31.0706M51.6409 31.0704C51.6409 31.0704 56.6409 30.4732 56.6409 25.5704C56.6409 20.6677 51.6409 20.0704 51.6409 20.0704M51.6409 31.0704L44.1406 31.0706M19.1409 20.0704H51.6409M19.1409 20.0704C19.1409 20.0704 8.68827 7.33147 14.1409 3.07045C16.2335 1.43519 18.0021 0.768937 20.6406 1.07045C24.0947 1.46515 24.166 6.45498 27.6406 6.57045C31.2707 6.69109 31.5147 1.2826 35.1406 1.07045C39.0876 0.839506 39.6989 6.87928 43.6406 6.57045C46.9898 6.30804 47.314 2.03849 50.6406 1.57045C53.2203 1.2075 54.9813 1.61306 57.1406 3.07045C62.9243 6.974 51.6409 20.0704 51.6409 20.0704" stroke="white" stroke-width="2" stroke-linecap="round"/>
<path d="M34.5724 78.3433V45.616H36.669V78.3433H34.5724ZM41.6293 55.4342C41.4759 54.1387 40.8537 53.1331 39.7628 52.4171C38.6719 51.7012 37.3338 51.3433 35.7486 51.3433C34.5895 51.3433 33.5753 51.5308 32.706 51.9058C31.8452 52.2808 31.1719 52.7964 30.6861 53.4527C30.2088 54.1089 29.9702 54.8546 29.9702 55.6899C29.9702 56.3887 30.1364 56.9896 30.4688 57.4924C30.8097 57.9867 31.2443 58.4001 31.7727 58.7325C32.3011 59.0564 32.8551 59.3248 33.4347 59.5379C34.0142 59.7424 34.5469 59.9086 35.0327 60.0365L37.6918 60.7524C38.3736 60.9314 39.1321 61.1785 39.9673 61.4939C40.8111 61.8092 41.6165 62.2396 42.3835 62.785C43.1591 63.322 43.7983 64.0123 44.3011 64.8561C44.804 65.6998 45.0554 66.7353 45.0554 67.9626C45.0554 69.3774 44.6847 70.6558 43.9432 71.7978C43.2102 72.9399 42.1364 73.8475 40.7216 74.5208C39.3153 75.1941 37.6065 75.5308 35.5952 75.5308C33.7202 75.5308 32.0966 75.2282 30.7244 74.6231C29.3608 74.018 28.2869 73.1742 27.5028 72.0919C26.7273 71.0095 26.2884 69.7524 26.1861 68.3206H29.4588C29.544 69.3092 29.8764 70.1274 30.456 70.7751C31.044 71.4143 31.7855 71.8916 32.6804 72.2069C33.5838 72.5137 34.5554 72.6671 35.5952 72.6671C36.8054 72.6671 37.892 72.4711 38.8551 72.0791C39.8182 71.6785 40.581 71.1245 41.1435 70.4171C41.706 69.7012 41.9872 68.866 41.9872 67.9115C41.9872 67.0421 41.7443 66.3348 41.2585 65.7893C40.7727 65.2439 40.1335 64.8007 39.3409 64.4598C38.5483 64.1189 37.6918 63.8206 36.7713 63.5649L33.5497 62.6444C31.5043 62.0564 29.8849 61.2169 28.6918 60.126C27.4986 59.035 26.902 57.6075 26.902 55.8433C26.902 54.3774 27.2983 53.099 28.0909 52.0081C28.892 50.9086 29.9659 50.0564 31.3125 49.4512C32.6676 48.8376 34.1804 48.5308 35.8509 48.5308C37.5384 48.5308 39.0384 48.8333 40.3509 49.4385C41.6634 50.035 42.7031 50.8532 43.4702 51.893C44.2457 52.9328 44.6548 54.1132 44.6974 55.4342H41.6293Z" fill="white"/>
</svg>
