<svg width="38" height="22" viewBox="0 0 38 22" fill="none" xmlns="http://www.w3.org/2000/svg">
<path d="M33.2381 13.2687V5.46145L34.852 5.46152V13.2457L36.2677 11.6169C36.5546 11.2833 37.0638 11.2395 37.405 11.52C37.7462 11.8005 37.791 12.2984 37.5041 12.632L34.6727 15.9174C34.6425 15.9524 34.609 15.9852 34.5731 16.0147C34.2319 16.2948 33.7228 16.251 33.4363 15.9174L30.6048 12.632C30.5251 12.5688 30.459 12.4908 30.4095 12.4032C30.1938 12.0215 30.3354 11.5416 30.7256 11.3308C31.1159 11.1199 31.6067 11.2583 31.8224 11.6399L33.2381 13.2687Z" fill="#DA7B83"/>
<path fill-rule="evenodd" clip-rule="evenodd" d="M18.847 13.1463C18.4634 13.3889 18.0116 13.4189 17.6681 13.2252C17.2319 12.9789 16.9921 12.4021 16.9921 11.5999V9.19976C16.9921 8.04073 16.5338 7.216 15.7676 6.99332C14.469 6.61502 13.4924 8.20385 13.1254 8.80054L10.8353 12.5137V7.97527C10.8095 6.93107 10.4704 6.30649 9.82649 6.11815C9.40044 5.99366 8.76298 6.04356 8.14376 6.99117L3.01293 15.2299C2.32603 13.9259 1.96795 12.4739 1.96981 11C1.96981 6.03712 5.94698 1.99985 10.8353 1.99985C15.7236 1.99985 19.7002 6.03712 19.7002 11C19.7002 11.0086 19.7023 11.0161 19.7029 11.0241C19.7029 11.0327 19.7013 11.0402 19.7018 11.0488C19.748 12.0099 19.4367 12.774 18.847 13.1463ZM21.67 11.0005V10.9753L21.6695 10.9506C21.6421 4.90654 16.793 0 10.8347 0C4.86093 0 0 4.93444 0 11C0 17.065 4.86093 22 10.8353 22C13.5767 22 16.1931 20.958 18.2015 19.0665C18.6007 18.6909 18.6243 18.0582 18.2541 17.6537C18.167 17.5576 18.0615 17.4798 17.9439 17.425C17.8264 17.3702 17.699 17.3394 17.5694 17.3344C17.4398 17.3294 17.3105 17.3503 17.189 17.3959C17.0676 17.4415 16.9565 17.5109 16.8622 17.6C15.2342 19.1416 13.0773 20.0006 10.8353 20.0001C8.21781 20.0001 5.86273 18.8417 4.23849 17.0044L8.86546 9.57483V12.9999C8.86546 14.645 9.50346 15.1768 10.0384 15.3324C10.574 15.488 11.3922 15.3818 12.2513 13.9866L14.7963 9.86083C14.8779 9.72776 14.953 9.61293 15.0217 9.51366V11.5999C15.0217 13.1378 15.6377 14.3676 16.7114 14.9734C17.6794 15.5197 18.8964 15.4703 19.888 14.8446C21.09 14.0854 21.7376 12.6865 21.67 11.0005Z" fill="#DA7B83"/>
</svg>
