<svg width="20" height="20" viewBox="0 0 20 20" fill="none" xmlns="http://www.w3.org/2000/svg">
<path fill-rule="evenodd" clip-rule="evenodd" d="M14.499 3.99974C14.499 9.79873 9.798 14.4997 3.99901 14.4997C3.57314 14.4997 3.15279 14.4743 2.7395 14.4248C4.23304 16.8698 6.92693 18.5002 9.99901 18.5002C14.6934 18.5002 18.499 14.6946 18.499 10.0002C18.499 6.9284 16.8689 4.2347 14.4242 2.74108C14.4736 3.1541 14.499 3.57416 14.499 3.99974ZM12.767 1.96068C12.9188 2.61585 12.999 3.29843 12.999 3.99974C12.999 8.9703 8.96957 12.9997 3.99901 12.9997C3.29744 12.9997 2.61462 12.9195 1.95923 12.7676C1.95752 12.7672 1.9558 12.7668 1.95408 12.7664C1.89774 12.7533 1.84161 12.7397 1.78569 12.7256C1.57909 12.6733 1.37533 12.6139 1.1747 12.5477C0.781961 12.418 0.375035 12.7576 0.505221 13.1502C0.580509 13.3772 0.663712 13.6006 0.754505 13.8201C0.780104 13.882 0.806306 13.9436 0.833104 14.0048C0.834593 14.0082 0.836085 14.0116 0.837577 14.015C2.38406 17.5389 5.9041 20.0002 9.99901 20.0002C15.5219 20.0002 19.999 15.5231 19.999 10.0002C19.999 5.90561 17.5381 2.38578 14.0146 0.839125C14.0112 0.837632 14.0077 0.83614 14.0043 0.834651C13.9431 0.807848 13.8815 0.781641 13.8196 0.756037C13.6002 0.665226 13.3768 0.582004 13.1497 0.506698C12.7572 0.37648 12.4175 0.783378 12.5472 1.17613C12.6134 1.37676 12.6728 1.58052 12.725 1.78713C12.7391 1.84305 12.7528 1.89919 12.7658 1.95553C12.7662 1.95724 12.7666 1.95896 12.767 1.96068Z" fill="#fff"/>
</svg>
