<svg width="18" height="18" viewBox="0 0 18 18" fill="none" xmlns="http://www.w3.org/2000/svg">
<path d="M0.680664 3.16602H17.0161" stroke="black" stroke-width="1.36135" stroke-linecap="round"/>
<path d="M17.0811 14.0557H0.744839" stroke="black" stroke-width="1.36135" stroke-linecap="round"/>
<path d="M11.1494 0.680664C12.5221 0.680892 13.6348 1.79421 13.6348 3.16699C13.6345 4.53958 12.522 5.65212 11.1494 5.65234C9.77663 5.65234 8.66331 4.53972 8.66309 3.16699C8.66309 1.79407 9.77649 0.680664 11.1494 0.680664Z" fill="black" stroke="black" stroke-width="1.36135"/>
<path d="M6.48633 11.5723C5.1136 11.5725 4.00098 12.6858 4.00098 14.0586C4.0012 15.4312 5.11374 16.5437 6.48633 16.5439C7.85911 16.5439 8.97243 15.4313 8.97266 14.0586C8.97266 12.6857 7.85925 11.5723 6.48633 11.5723Z" fill="black" stroke="black" stroke-width="1.36135"/>
</svg>
