<?xml version="1.0" encoding="UTF-8"?>
<svg width="12px" height="12px" viewBox="0 0 12 12" version="1.1" xmlns="http://www.w3.org/2000/svg" xmlns:xlink="http://www.w3.org/1999/xlink">
    <!-- Generator: Sketch 53.2 (72643) - https://sketchapp.com -->
    <title>Path</title>
    <desc>Created with Sketch.</desc>
    <g id="Page-2" stroke="none" stroke-width="1" fill="none" fill-rule="evenodd">
        <g id="ts_21" transform="translate(-801.000000, -2237.000000)" fill="#434343" fill-rule="nonzero">
            <g id="Group-17-Copy-4" transform="translate(642.000000, 2228.000000)">
                <path d="M164.353489,14.0420862 L165.060569,14.042098 L164.707035,13.6885799 L164.353489,14.0420862 Z M169.396135,9 L170.413869,10.0192909 L165.725637,14.7072701 L170.413792,19.3952164 L169.396188,20.4148144 L164.707035,15.7255585 L160.018359,20.4146489 L159.000077,19.3953933 L163.688409,14.7072701 L159,10.019114 L160.018411,9.00016535 L164.707035,13.6885799 L169.396135,9 Z M164.04199,15.0608313 L164.041988,14.3537071 L163.688409,14.7072701 L164.04199,15.0608313 Z M165.060592,15.3719699 L164.353466,15.3719817 L164.707035,15.7255585 L165.060592,15.3719699 Z M165.372058,14.3537071 L165.372056,15.0608313 L165.725637,14.7072701 L165.372058,14.3537071 Z M164.707023,15.1028839 L165.102658,14.7072667 L164.706844,14.3114737 L164.311304,14.7070485 L164.707023,15.1028839 Z M169.707023,19.3955701 L169.353124,19.0423629 L169.041946,19.3541503 L169.395547,19.7070599 L169.707023,19.3955701 Z M160.372235,19.3539731 L160.060745,19.0421858 L159.707023,19.3955701 L160.018655,19.7072155 L160.372235,19.3539731 Z M159.707023,10.0190112 L160.06067,10.3724714 L160.372159,10.0608176 L160.018586,9.70743119 L159.707023,10.0190112 Z M169.042022,10.0606405 L169.3532,10.3722942 L169.707023,10.0190112 L169.395616,9.70758694 L169.042022,10.0606405 Z" id="Path"></path>
            </g>
        </g>
    </g>
</svg>