<svg width="38" height="22" viewBox="0 0 38 22" fill="none" xmlns="http://www.w3.org/2000/svg">
<path d="M34.7658 8.3919V16.1992L33.1519 16.1991V8.41492L31.7362 10.0437C31.4493 10.3774 30.9401 10.4212 30.5989 10.1406C30.2577 9.86011 30.2129 9.36221 30.4998 9.02861L33.3312 5.74328C33.3614 5.7082 33.3949 5.67545 33.4308 5.64592C33.772 5.36583 34.2811 5.40968 34.5676 5.74328L37.3991 9.02861C37.4788 9.09185 37.5449 9.16982 37.5944 9.25749C37.8101 9.63912 37.6685 10.119 37.2783 10.3299C36.888 10.5407 36.3972 10.4023 36.1815 10.0207L34.7658 8.3919Z" fill="#2BCF78"/>
<path fill-rule="evenodd" clip-rule="evenodd" d="M18.847 13.1463C18.4634 13.3889 18.0116 13.4189 17.6681 13.2252C17.2319 12.9789 16.9921 12.4021 16.9921 11.5999V9.19976C16.9921 8.04073 16.5338 7.216 15.7676 6.99332C14.469 6.61502 13.4924 8.20385 13.1254 8.80054L10.8353 12.5137V7.97527C10.8095 6.93107 10.4704 6.30649 9.82649 6.11815C9.40044 5.99366 8.76298 6.04356 8.14376 6.99117L3.01293 15.2299C2.32603 13.9259 1.96795 12.4739 1.96981 11C1.96981 6.03712 5.94698 1.99985 10.8353 1.99985C15.7236 1.99985 19.7002 6.03712 19.7002 11C19.7002 11.0086 19.7023 11.0161 19.7029 11.0241C19.7029 11.0327 19.7013 11.0402 19.7018 11.0488C19.748 12.0099 19.4367 12.774 18.847 13.1463ZM21.67 11.0005V10.9753L21.6695 10.9506C21.6421 4.90654 16.793 0 10.8347 0C4.86093 0 0 4.93444 0 11C0 17.065 4.86093 22 10.8353 22C13.5767 22 16.1931 20.958 18.2015 19.0665C18.6007 18.6909 18.6243 18.0582 18.2541 17.6537C18.167 17.5576 18.0615 17.4798 17.9439 17.425C17.8264 17.3702 17.699 17.3394 17.5694 17.3344C17.4398 17.3294 17.3105 17.3503 17.189 17.3959C17.0676 17.4415 16.9565 17.5109 16.8622 17.6C15.2342 19.1416 13.0773 20.0006 10.8353 20.0001C8.21781 20.0001 5.86273 18.8417 4.23849 17.0044L8.86546 9.57483V12.9999C8.86546 14.645 9.50346 15.1768 10.0384 15.3324C10.574 15.488 11.3922 15.3818 12.2513 13.9866L14.7963 9.86083C14.8779 9.72776 14.953 9.61293 15.0217 9.51366V11.5999C15.0217 13.1378 15.6377 14.3676 16.7114 14.9734C17.6794 15.5197 18.8964 15.4703 19.888 14.8446C21.09 14.0854 21.7376 12.6865 21.67 11.0005Z" fill="#2BCF78"/>
</svg>
