<?xml version="1.0" encoding="UTF-8" standalone="no"?>
<svg
   xmlns:dc="http://purl.org/dc/elements/1.1/"
   xmlns:cc="http://creativecommons.org/ns#"
   xmlns:rdf="http://www.w3.org/1999/02/22-rdf-syntax-ns#"
   xmlns:svg="http://www.w3.org/2000/svg"
   xmlns="http://www.w3.org/2000/svg"
   xmlns:sodipodi="http://sodipodi.sourceforge.net/DTD/sodipodi-0.dtd"
   xmlns:inkscape="http://www.inkscape.org/namespaces/inkscape"
   width="38"
   height="22"
   viewBox="0 0 38 22"
   fill="none"
   version="1.1"
   id="svg869"
   sodipodi:docname="positive-rate.svg"
   inkscape:version="0.92.4 (unknown)">
  <metadata
     id="metadata875">
    <rdf:RDF>
      <cc:Work
         rdf:about="">
        <dc:format>image/svg+xml</dc:format>
        <dc:type
           rdf:resource="http://purl.org/dc/dcmitype/StillImage" />
        <dc:title></dc:title>
      </cc:Work>
    </rdf:RDF>
  </metadata>
  <defs
     id="defs873" />
  <sodipodi:namedview
     pagecolor="#ffffff"
     bordercolor="#666666"
     borderopacity="1"
     objecttolerance="10"
     gridtolerance="10"
     guidetolerance="10"
     inkscape:pageopacity="0"
     inkscape:pageshadow="2"
     inkscape:window-width="1920"
     inkscape:window-height="1052"
     id="namedview871"
     showgrid="false"
     inkscape:zoom="6.2105263"
     inkscape:cx="19"
     inkscape:cy="11"
     inkscape:window-x="1920"
     inkscape:window-y="0"
     inkscape:window-maximized="1"
     inkscape:current-layer="g891" />
  <g
     style="fill:none"
     id="g891">
    <g
       style="fill:none"
       id="g912"
       transform="translate(0,-24)">
      <path
         id="path898"
         d="m 28.7658,32.3919 v 7.8073 l -1.6139,-10e-5 v -7.78418 l -1.4157,1.62878 c -0.2869,0.3337 -0.7961,0.3775 -1.1373,0.0969 -0.3412,-0.28049 -0.386,-0.77839 -0.0991,-1.11199 l 2.8314,-3.28533 c 0.0302,-0.03508 0.0637,-0.06783 0.0996,-0.09736 0.3412,-0.28009 0.8503,-0.23624 1.1368,0.09736 l 2.8315,3.28533 c 0.0797,0.06324 0.1458,0.14121 0.1953,0.22888 0.2157,0.38163 0.0741,0.86151 -0.3161,1.07241 -0.3903,0.2108 -0.8811,0.0724 -1.0968,-0.3092 z"
         inkscape:connector-curvature="0"
         style="fill:#2bcf78" />
      <path
         id="path900"
         d="m 18.847,37.1463 c -0.3836,0.2426 -0.8354,0.2726 -1.1789,0.0789 -0.4362,-0.2463 -0.676,-0.8231 -0.676,-1.6253 v -2.40014 c 0,-1.15903 -0.4583,-1.98376 -1.2245,-2.20644 -1.2986,-0.3783 -2.2752,1.21053 -2.6422,1.80722 L 10.8353,36.5137 V 31.97527 C 10.8095,30.93107 10.4704,30.30649 9.82649,30.11815 9.40044,29.99366 8.76298,30.04356 8.14376,30.99117 L 3.01293,39.2299 C 2.32603,37.9259 1.96795,36.4739 1.96981,35 c 0,-4.96288 3.97717,-9.00015 8.86549,-9.00015 4.8883,0 8.8649,4.03727 8.8649,9.00015 0,0.0086 0.0021,0.0161 0.0027,0.0241 0,0.0086 -0.0016,0.0161 -0.0011,0.0247 0.0462,0.9611 -0.2651,1.7252 -0.8548,2.0975 z m 2.823,-2.1458 v -0.0252 l -5e-4,-0.0247 C 21.6421,28.90654 16.793,24 10.8347,24 4.86093,24 0,28.93444 0,35 c 0,6.065 4.86093,11 10.8353,11 2.7414,0 5.3578,-1.042 7.3662,-2.9335 0.3992,-0.3756 0.4228,-1.0083 0.0526,-1.4128 -0.0871,-0.0961 -0.1926,-0.1739 -0.3102,-0.2287 -0.1175,-0.0548 -0.2449,-0.0856 -0.3745,-0.0906 -0.1296,-0.005 -0.2589,0.0159 -0.3804,0.0615 -0.1214,0.0456 -0.2325,0.115 -0.3268,0.2041 -1.628,1.5416 -3.7849,2.4006 -6.0269,2.4001 -2.61749,0 -4.97257,-1.1584 -6.59681,-2.9957 l 4.62697,-7.42957 v 3.42507 c 0,1.6451 0.638,2.1769 1.17294,2.3325 0.5356,0.1556 1.3538,0.0494 2.2129,-1.3458 l 2.545,-4.12577 c 0.0816,-0.13307 0.1567,-0.2479 0.2254,-0.34717 v 2.08624 c 0,1.5379 0.616,2.7677 1.6897,3.3735 0.968,0.5463 2.185,0.4969 3.1766,-0.1288 1.202,-0.7592 1.8496,-2.1581 1.782,-3.8441 z"
         inkscape:connector-curvature="0"
         style="clip-rule:evenodd;fill:#2bcf78;fill-rule:evenodd" />
    </g>
  </g>
</svg>
