<svg width="8" height="7" viewBox="0 0 8 7" fill="none" xmlns="http://www.w3.org/2000/svg">
<path fill-rule="evenodd" clip-rule="evenodd" d="M1.5902 2.72813C1.5902 1.95411 2.21766 1.32665 2.99168 1.32665H3.4229C3.60152 1.32665 3.74632 1.18185 3.74632 1.00323C3.74632 0.824609 3.60152 0.67981 3.4229 0.67981H2.99168C1.86042 0.67981 0.943359 1.59688 0.943359 2.72813V4.88424C0.943359 6.01549 1.86043 6.93256 2.99168 6.93256H5.14779C6.27904 6.93256 7.19611 6.01549 7.19611 4.88424V4.45302C7.19611 4.2744 7.05131 4.1296 6.87269 4.1296C6.69407 4.1296 6.54927 4.2744 6.54927 4.45302V4.88424C6.54927 5.65825 5.9218 6.28572 5.14779 6.28572H2.99168C2.21766 6.28572 1.5902 5.65825 1.5902 4.88424V2.72813ZM4.70149 0.715351C4.52288 0.717039 4.37946 0.863201 4.38115 1.04181C4.38284 1.22042 4.529 1.36385 4.70761 1.36216L6.0711 1.34927L3.85589 3.56448C3.72959 3.69078 3.72959 3.89556 3.85589 4.02186C3.9822 4.14816 4.18697 4.14816 4.31328 4.02186L6.52849 1.80665L6.5156 3.17015C6.51391 3.34876 6.65733 3.49492 6.83594 3.49661C7.01455 3.4983 7.16072 3.35487 7.1624 3.17626L7.18173 1.1313C7.18402 0.889966 6.98779 0.69374 6.74645 0.696022L4.70149 0.715351Z" fill="white"/>
</svg>
