<svg width="17" height="19" viewBox="0 0 17 19" fill="none" xmlns="http://www.w3.org/2000/svg">
<g opacity="0.5">
<path d="M15.0387 0C14.6776 0 14.3849 0.292742 14.3849 0.65387V3.04239C11.0185 -0.216692 5.64762 -0.129724 2.38854 3.23656C0.85261 4.82302 -0.00423687 6.94584 1.57543e-05 9.15399C1.57543e-05 9.51512 0.292758 9.80786 0.653886 9.80786C1.01501 9.80786 1.30772 9.51512 1.30772 9.15399C1.30852 5.18173 4.52929 1.96219 8.50159 1.96299C10.519 1.96337 12.4434 2.81103 13.8056 4.2991L10.909 5.26483C10.566 5.37896 10.3803 5.74955 10.4945 6.0926C10.6086 6.43564 10.9792 6.62127 11.3222 6.50713L15.2454 5.19943C15.5132 5.11024 15.6935 4.85922 15.6926 4.57698V0.653832C15.6926 0.292742 15.3999 0 15.0387 0Z" fill="white"/>
<path d="M16.3464 8.50018C15.9853 8.50018 15.6925 8.79292 15.6925 9.15405C15.6917 13.1263 12.471 16.3459 8.49866 16.3451C6.48127 16.3447 4.55682 15.497 3.19468 14.0089L6.09125 13.0432C6.4343 12.9291 6.61992 12.5585 6.50579 12.2154C6.39166 11.8724 6.02106 11.6868 5.67802 11.8009L1.75487 13.1086C1.48707 13.1978 1.30674 13.4488 1.30762 13.7311V17.6542C1.30762 18.0153 1.60036 18.3081 1.96149 18.3081C2.32262 18.3081 2.61536 18.0153 2.61536 17.6542V15.2657C5.98168 18.5247 11.3526 18.4378 14.6117 15.0715C16.1476 13.485 17.0045 11.3622 17.0002 9.15405C17.0003 8.79292 16.7075 8.50018 16.3464 8.50018Z" fill="white"/>
</g>
</svg>
