<svg width="18" height="18" viewBox="0 0 18 18" fill="none" xmlns="http://www.w3.org/2000/svg">
<path d="M1.94764 5.72727C3.18341 3.06894 5.87732 1.22727 9.00001 1.22727C12.638 1.22727 15.6937 3.7272 16.5399 7.10373C16.6223 7.43246 16.9556 7.63216 17.2843 7.54977C17.6131 7.46738 17.8128 7.1341 17.7304 6.80536C16.7505 2.89587 13.2142 0 9.00001 0C5.68437 0 2.78859 1.79278 1.22727 4.46039V3.06818C1.22727 2.72928 0.952538 2.45455 0.613636 2.45455C0.274734 2.45455 0 2.72928 0 3.06818V6.13636C0 6.58823 0.366313 6.95455 0.818182 6.95455H3.88636C4.22527 6.95455 4.5 6.67981 4.5 6.34091C4.5 6.00201 4.22527 5.72727 3.88636 5.72727H1.94764Z" fill="#00e28e"/>
<path d="M1.46009 10.8963C1.3777 10.5675 1.04442 10.3678 0.715684 10.4502C0.38695 10.5326 0.187251 10.8659 0.269644 11.1946C1.2495 15.1041 4.78581 18 9.00001 18C12.3156 18 15.2114 16.2072 16.7727 13.5397V14.9318C16.7727 15.2707 17.0475 15.5455 17.3864 15.5455C17.7253 15.5455 18 15.2707 18 14.9318V11.8636C18 11.4118 17.6337 11.0455 17.1818 11.0455H14.1136C13.7747 11.0455 13.5 11.3202 13.5 11.6591C13.5 11.998 13.7747 12.2727 14.1136 12.2727H16.0524C14.8166 14.9311 12.1227 16.7727 9.00001 16.7727C5.36202 16.7727 2.30638 14.2728 1.46009 10.8963Z" fill="#00e28e"/>
</svg>
