<svg width="17" height="17" viewBox="0 0 17 17" fill="none" xmlns="http://www.w3.org/2000/svg">
<path d="M1.5271 0.0253906L4.36011 0.816406C5.07208 1.01508 5.55267 1.67877 5.51929 2.41699L5.39331 5.1748C5.37607 5.55012 5.05789 5.84011 4.68237 5.82324C4.30711 5.80602 4.01692 5.48849 4.03394 5.11328L4.13354 2.91016L3.69019 3.28125C1.56507 5.05433 0.806295 7.96897 1.79761 10.5547C2.79968 13.168 5.36723 14.8666 8.18042 14.7783L8.65796 14.7646C9.03507 14.753 9.35187 15.046 9.36597 15.4199C9.38001 15.7939 9.08591 16.1062 8.70874 16.1182L8.2312 16.1338C4.83233 16.2405 1.73096 14.1877 0.520264 11.0303C-0.677642 7.90617 0.237798 4.38349 2.80542 2.24121L3.20581 1.90723L1.15991 1.33691C0.798069 1.23574 0.586101 0.859905 0.687256 0.498047C0.788659 0.136316 1.16515 -0.0755173 1.5271 0.0253906Z" fill="black"/>
<path d="M8.10693 0.197266C11.5057 0.0905033 14.6081 2.1435 15.8188 5.30078C17.0168 8.4249 16.1004 11.9476 13.5327 14.0898L13.1323 14.4229L15.1772 14.9941C15.539 15.0953 15.7499 15.4703 15.6489 15.832C15.5475 16.1938 15.172 16.4056 14.8101 16.3047L11.9771 15.5137C11.2649 15.315 10.7843 14.6515 10.8179 13.9131L10.9438 11.1562C10.961 10.781 11.2784 10.4902 11.6538 10.5068C12.0293 10.5238 12.3193 10.8424 12.3022 11.2178L12.2026 13.4219L12.6489 13.0508C14.774 11.2777 15.5328 8.36208 14.5415 5.77637C13.5394 3.16321 10.9717 1.46453 8.15869 1.55273L7.68018 1.56738C7.30326 1.57876 6.98623 1.28493 6.97217 0.911133C6.95834 0.537263 7.25324 0.224784 7.63037 0.212891L8.10693 0.197266Z" fill="black"/>
</svg>
