<?xml version="1.0" encoding="UTF-8"?>
<svg width="16px" height="18px" viewBox="0 0 16 18" version="1.1" xmlns="http://www.w3.org/2000/svg" xmlns:xlink="http://www.w3.org/1999/xlink">
    <!-- Generator: Sketch 53.2 (72643) - https://sketchapp.com -->
    <title>Group 11</title>
    <desc>Created with Sketch.</desc>
    <g id="Page-2" stroke="none" stroke-width="1" fill="none" fill-rule="evenodd">
        <g id="ts_21" transform="translate(-346.000000, -485.000000)" fill="#000000" fill-rule="nonzero">
            <g id="Group-2" transform="translate(340.000000, 480.000000)">
                <g id="Group-11" transform="translate(6.000000, 5.000000)">
                    <path d="M15.3069102,2.80038229 L12.2610123,0.17529457 C11.9517258,-0.0907054301 11.4901118,-0.0491615705 11.2300229,0.267189307 C10.969934,0.583540184 11.0105546,1.05561036 11.3198755,1.32161036 L12.8299761,2.63417176 L5.59596438,2.63417176 C3.30298972,2.63676825 1.44466302,4.53732966 1.44208992,6.88245246 L1.44208992,8.22564545 C1.44208992,8.63866299 1.76976555,8.9737858 2.17360493,8.9737858 C2.57744431,8.9737858 2.90511994,8.63866299 2.90511994,8.22564545 L2.90511994,6.86932966 C2.90769304,5.35027703 4.11063417,4.11996124 5.59596438,4.11732966 L12.8342646,4.11732966 L11.324164,5.42989106 C11.0148774,5.69589106 10.9742225,6.16799632 11.2343114,6.48431211 C11.4944003,6.8006279 11.9560143,6.84220685 12.2653008,6.57620685 L15.3111987,3.95108404 C15.6204852,3.6855051 15.6611402,3.21343492 15.401463,2.89711913 C15.3740852,2.86385597 15.3437227,2.83280334 15.3111987,2.80480334 L15.3069102,2.80038229 Z" id="Path"></path>
                    <path d="M13.3775659,8.97813668 C12.9737266,8.97813668 12.6460509,9.31325948 12.6460509,9.72627703 L12.6460509,11.0825928 C12.6434778,12.6016454 11.4405367,13.8319612 9.95520649,13.8345928 L2.71690629,13.8345928 L4.22700688,12.5220314 C4.58079089,12.3221016 4.70913709,11.867084 4.51361585,11.5052244 C4.31812891,11.1433998 3.87322286,11.0121367 3.51940454,11.2121016 C3.43812891,11.2580314 3.36584197,11.3192946 3.30720961,11.3932244 L0.261311752,14.0183472 C-0.0479747975,14.2839261 -0.0886297682,14.7559963 0.171047425,15.0723121 C0.198425203,15.1055753 0.228787776,15.1366279 0.261311752,15.1646279 L3.30720961,17.7897156 C3.61649616,18.0557156 4.07811019,18.0141718 4.33819908,17.6978209 C4.59828797,17.38147 4.55766731,16.9093998 4.24834645,16.6433998 L2.73824587,15.3308384 L9.95513787,15.3308384 C12.2481125,15.3282069 14.1064735,13.4276454 14.1090123,11.0825577 L14.1090123,9.72631211 C14.1091153,9.31283843 13.7814053,8.97813668 13.3775659,8.97813668 Z" id="Path"></path>
                </g>
            </g>
        </g>
    </g>
</svg>