<svg width="122" height="39" viewBox="0 0 122 39" fill="none" xmlns="http://www.w3.org/2000/svg">
<path d="M51.54 5.92C54.32 5.92 56.45 6.6 57.93 7.96C59.43 9.3 60.18 11.1 60.18 13.36C60.18 14.62 59.91 15.86 59.37 17.08C58.85 18.3 57.96 19.27 56.7 19.99L61.83 28H56.76L52.11 20.98H49.2V28H44.85V5.92H51.54ZM52.29 16.78C53.17 16.78 53.85 16.6 54.33 16.24C54.83 15.86 55.18 15.42 55.38 14.92C55.58 14.4 55.68 13.93 55.68 13.51C55.68 13.27 55.64 12.97 55.56 12.61C55.5 12.23 55.36 11.85 55.14 11.47C54.92 11.09 54.58 10.77 54.12 10.51C53.68 10.25 53.08 10.12 52.32 10.12H49.2V16.78H52.29ZM68.9564 28.63C67.7764 28.63 66.7864 28.27 65.9864 27.55C65.1864 26.81 64.7664 25.86 64.7264 24.7V14.89H68.9264V23.14C68.9664 23.72 69.1164 24.19 69.3764 24.55C69.6364 24.89 70.0764 25.06 70.6964 25.06C71.6364 25.06 72.3764 24.61 72.9164 23.71C73.4564 22.79 73.7264 21.63 73.7264 20.23V14.89H77.9264V28H74.1164L73.8164 25.9C73.3764 26.72 72.7464 27.38 71.9264 27.88C71.1064 28.38 70.1164 28.63 68.9564 28.63ZM90.8559 28.36C89.8559 28.36 88.9959 28.21 88.2759 27.91C87.5759 27.61 86.9659 27.2 86.4459 26.68V28H82.2459V4.33H86.4159V15.79C86.9359 15.35 87.6259 14.98 88.4859 14.68C89.3459 14.38 90.3259 14.23 91.4259 14.23C92.5659 14.23 93.6059 14.5 94.5459 15.04C95.4859 15.58 96.2359 16.37 96.7959 17.41C97.3759 18.43 97.6659 19.68 97.6659 21.16C97.6659 22.64 97.3459 23.92 96.7059 25C96.0859 26.08 95.2559 26.91 94.2159 27.49C93.1759 28.07 92.0559 28.36 90.8559 28.36ZM89.9259 24.82C90.5459 24.82 91.1159 24.66 91.6359 24.34C92.1759 24.02 92.6059 23.58 92.9259 23.02C93.2459 22.46 93.4059 21.83 93.4059 21.13C93.4059 20.43 93.2459 19.81 92.9259 19.27C92.6059 18.73 92.1759 18.31 91.6359 18.01C91.1159 17.69 90.5459 17.53 89.9259 17.53C89.1059 17.53 88.3859 17.72 87.7659 18.1C87.1459 18.48 86.7059 18.99 86.4459 19.63V22.84C87.1659 24.16 88.3259 24.82 89.9259 24.82ZM100.967 14.89H105.167V28H100.967V14.89ZM100.877 10.24C100.877 9.62 101.117 9.11 101.597 8.71C102.097 8.31 102.627 8.11 103.187 8.11C103.747 8.11 104.257 8.31 104.717 8.71C105.197 9.11 105.437 9.62 105.437 10.24C105.437 10.86 105.197 11.37 104.717 11.77C104.257 12.15 103.747 12.34 103.187 12.34C102.627 12.34 102.097 12.15 101.597 11.77C101.117 11.37 100.877 10.86 100.877 10.24ZM120.622 26.83C120.042 27.29 119.312 27.66 118.432 27.94C117.572 28.22 116.722 28.36 115.882 28.36C113.642 28.36 111.842 27.75 110.482 26.53C109.142 25.31 108.472 23.61 108.472 21.43C108.472 19.97 108.802 18.73 109.462 17.71C110.122 16.67 110.982 15.88 112.042 15.34C113.122 14.8 114.252 14.53 115.432 14.53C116.612 14.53 117.632 14.69 118.492 15.01C119.372 15.33 120.122 15.75 120.742 16.27L118.702 18.97C118.422 18.75 118.032 18.53 117.532 18.31C117.052 18.07 116.482 17.95 115.822 17.95C114.962 17.95 114.222 18.28 113.602 18.94C112.982 19.58 112.672 20.41 112.672 21.43C112.672 22.41 112.992 23.24 113.632 23.92C114.292 24.6 115.162 24.94 116.242 24.94C117.162 24.94 117.922 24.69 118.522 24.19L120.622 26.83Z" fill="#00e28e"/>
<path d="M33 9.72116L16.3095 0L0.0346275 9.54632L0 28.7788L16.4134 38.5L33 28.9886V9.72116ZM16.3442 2.93733L28.6716 10.1408L16.4134 17.3442L4.08604 10.1408L16.3442 2.93733ZM14.9244 34.5136L2.52781 27.3451V13.0082L14.8898 20.2116V34.5136H14.9244ZM18.1102 20.4214L30.4722 13.218V27.52L18.1102 34.7584V20.4214Z" fill="#00e28e"/>
</svg>
