<svg width="25" height="25" viewBox="0 0 25 25" fill="none" xmlns="http://www.w3.org/2000/svg">
<path d="M13.7842 0.0458376C15.8571 0.148972 18.8834 1.51035 20.2722 2.78922C21.661 4.06809 23.4228 6.21329 24.252 8.441C24.4593 9.01855 24.3971 9.61673 24.024 10.1118C23.0083 11.4319 21.806 12.5664 20.5209 13.5771C20.3758 13.7009 20.1271 13.8452 19.982 13.804C19.671 13.7215 19.7954 13.3915 19.7954 13.1852C19.7747 11.2256 19.7954 9.26608 19.7747 7.30652C19.7747 5.96577 19.4016 5.61511 18.0542 5.59448C17.7433 5.59448 17.4324 5.59448 17.1215 5.59448C16.2302 5.57385 15.7949 6.00702 15.8156 6.91461C15.8363 9.59611 15.8156 12.2776 15.8156 14.9385C15.8156 15.4542 15.8571 15.9698 15.4425 16.3824C15.2145 16.6093 14.9243 16.8155 14.6341 16.7124C14.2817 16.6093 14.4268 16.238 14.4268 15.9905C14.4061 14.0103 14.4268 12.0095 14.4268 10.0293C14.4268 8.48225 14.1781 8.23473 12.6442 8.2141C12.3955 8.2141 12.1674 8.2141 11.9187 8.2141C10.7787 8.25536 10.5092 8.50288 10.5092 9.63736C10.4885 12.0713 10.5092 14.5053 10.5092 16.9393C10.5092 17.4343 10.5299 17.9294 10.0324 18.2182C9.80443 18.3625 9.53496 18.5069 9.2655 18.4038C8.99603 18.3007 9.07894 17.9913 9.05822 17.7644C9.05822 16.0111 9.05822 14.2578 9.05822 12.5045C9.05822 11.1225 8.8302 10.9162 7.42069 10.8956C7.10977 10.8956 6.79884 10.8956 6.48792 10.8956C5.55515 10.8956 5.09913 11.37 5.11986 12.2982C5.11986 14.0515 5.14059 15.8048 5.11986 17.5581C5.09913 18.2388 5.38933 19.0639 4.39437 19.3526C3.04704 19.7239 2.07282 19.4558 1.4717 18.4657C0.725486 17.3106 0.33165 15.9904 0.0829116 14.6291C0.0414553 14.3609 1.16177e-05 13.8659 1.20722e-05 13.5565C1.25267e-05 13.2471 0 12.422 6.19169e-07 12.1126C1.23834e-06 11.8032 0.0414553 10.8544 0.0621834 10.6893C0.642573 7.1415 2.44593 4.37749 5.38933 2.27355C7.1305 1.05656 9.74225 0.0458376 11.0896 0.0458376C12.4369 0.0458376 11.7114 -0.057297 13.7842 0.0458376Z" fill="#00e28e"/>
<path opacity="0.5" d="M12.4166 24.9838C10.1157 24.9425 7.93926 24.4475 5.97008 23.1892C5.78353 23.0655 5.45188 22.9623 5.47261 22.7355C5.51406 22.4673 5.86644 22.5292 6.09445 22.4879C11.8776 21.4566 17.1633 19.3733 21.6613 15.4748C22.677 14.5878 23.5683 13.5977 24.3974 12.5457C24.5425 12.3807 24.6047 12.0507 24.8949 12.1538C24.9778 12.1745 24.9986 12.5045 24.9986 12.7108C25.1022 18.3007 20.6249 23.7668 15.1112 24.7569C14.2199 24.9219 13.3286 25.0457 12.4166 24.9838Z" fill="#00e28e"/>
</svg>
