<svg width="15" height="15" viewBox="0 0 15 15" fill="none" xmlns="http://www.w3.org/2000/svg">
<g clip-path="url(#clip0_3092_635)">
<path d="M3.14469 7.12371C3.14471 7.04088 3.16108 6.95888 3.19288 6.8824C3.22467 6.80592 3.27125 6.73648 3.32996 6.67805C3.38868 6.61963 3.45834 6.57337 3.53497 6.54194C3.61161 6.51052 3.69369 6.49454 3.77652 6.49493L4.82408 6.49835C4.9911 6.49835 5.15128 6.5647 5.26938 6.6828C5.38749 6.8009 5.45384 6.96108 5.45384 7.1281V11.0891C5.57177 11.0541 5.72323 11.0168 5.88896 10.9777C6.00408 10.9507 6.10668 10.8856 6.18012 10.7929C6.25355 10.7002 6.2935 10.5854 6.29347 10.4671V5.55371C6.29347 5.38668 6.35981 5.22648 6.47791 5.10836C6.59601 4.99024 6.75619 4.92387 6.92323 4.92383H7.97286C8.13989 4.92387 8.30007 4.99024 8.41817 5.10836C8.53627 5.22648 8.60262 5.38668 8.60262 5.55371V10.1138C8.60262 10.1138 8.86543 10.0075 9.1214 9.89944C9.21649 9.85924 9.29763 9.79191 9.35472 9.70587C9.4118 9.61985 9.44228 9.51891 9.44238 9.41566V3.97932C9.44238 3.81232 9.50871 3.65215 9.62678 3.53405C9.74485 3.41596 9.905 3.3496 10.072 3.34957H11.1216C11.2887 3.34957 11.4488 3.41591 11.5669 3.53402C11.685 3.65211 11.7514 3.8123 11.7514 3.97932V8.45603C12.6614 7.79652 13.5836 7.00335 14.3154 6.04957C14.4216 5.91113 14.4919 5.74855 14.5199 5.57637C14.548 5.40419 14.533 5.22772 14.4763 5.06274C14.1375 4.08808 13.5991 3.19486 12.8953 2.44025C12.1915 1.68565 11.338 1.08627 10.3893 0.68047C9.44056 0.274675 8.41758 0.0713992 7.3858 0.0836527C6.35402 0.095906 5.33617 0.323419 4.39738 0.75163C3.45857 1.17984 2.6195 1.79932 1.93385 2.57043C1.24821 3.34153 0.731086 4.24729 0.415585 5.22972C0.100084 6.21215 -0.00684929 7.24963 0.101626 8.27576C0.210102 9.3019 0.531599 10.2941 1.04554 11.1888C1.13507 11.3432 1.26679 11.4688 1.42522 11.5509C1.58364 11.6329 1.76221 11.6681 1.93994 11.6522C2.13847 11.6348 2.38567 11.6101 2.67957 11.5755C2.80751 11.561 2.92563 11.4999 3.01143 11.4039C3.09723 11.3079 3.14471 11.1837 3.14482 11.0549L3.14469 7.12371Z" fill="white"/>
<path d="M3.12207 13.4768C4.22845 14.2817 5.53595 14.7649 6.89989 14.8728C8.26384 14.9806 9.63105 14.7092 10.8502 14.0882C12.0694 13.4672 13.093 12.5211 13.8079 11.3545C14.5227 10.1879 14.9008 8.84623 14.9005 7.47802C14.9005 7.30729 14.8925 7.13839 14.8812 6.97046C12.1716 11.0117 7.16853 12.901 3.1223 13.4762" fill="white"/>
</g>
<defs>
<clipPath id="clip0_3092_635">
<rect width="15" height="15" fill="white"/>
</clipPath>
</defs>
</svg>
