<svg width="20" height="20" viewBox="0 0 20 20" fill="none" xmlns="http://www.w3.org/2000/svg">
<path d="M7.89316 0C3.54637 0 0 3.54633 0 7.89315C0 12.2399 3.54637 15.7863 7.89316 15.7863C9.68879 15.7863 11.3495 15.1834 12.6784 14.1666L18.1953 19.6918C18.6063 20.1028 19.2808 20.1028 19.6918 19.6918C20.1027 19.2808 20.1027 18.6145 19.6918 18.2036L14.1666 12.6784C15.1829 11.3496 15.7863 9.68839 15.7863 7.89315C15.7863 3.54633 12.2399 0 7.89316 0V0ZM7.89316 2.10483C11.1023 2.10483 13.6815 4.68389 13.6815 7.89315C13.6815 11.1023 11.1023 13.6815 7.89316 13.6815C4.68392 13.6815 2.10484 11.1023 2.10484 7.89315C2.10484 4.68389 4.68392 2.10483 7.89316 2.10483Z" fill="#6B6D7E"/>
</svg>
