<svg width="18" height="18" viewBox="0 0 18 18" fill="none" xmlns="http://www.w3.org/2000/svg">
  <path fill-rule="evenodd" clip-rule="evenodd" d="M8.38141 1.7153C8.59567 1.69691 8.81274 1.6875 9.03223 1.6875C9.25172 1.6875 9.46879 1.69691 9.68305 1.7153C9.72349 1.71876 9.80624 1.75668 9.83886 1.8798L10.1682 3.12325C10.3353 3.75386 10.7939 4.21062 11.3045 4.46032C11.5022 4.557 11.6928 4.66597 11.8752 4.78623C12.3499 5.09919 12.9804 5.26315 13.6175 5.09059L14.8741 4.75014C14.9982 4.71652 15.0729 4.7681 15.0964 4.80103C15.3454 5.15079 15.5639 5.52289 15.7485 5.91361C15.7653 5.94945 15.7737 6.03891 15.6819 6.12839L14.7536 7.03415C14.2847 7.49161 14.1129 8.11134 14.149 8.67283C14.156 8.7809 14.1595 8.88997 14.1595 9C14.1595 9.11003 14.156 9.2191 14.149 9.32717C14.1129 9.88866 14.2847 10.5084 14.7536 10.9658L15.6819 11.8716C15.7737 11.9611 15.7653 12.0505 15.7485 12.0864C15.5639 12.4771 15.3454 12.8492 15.0964 13.1989C15.0729 13.2319 14.9982 13.2834 14.8741 13.2499L13.6175 12.9094C12.9804 12.7368 12.3499 12.9008 11.8752 13.2138C11.6928 13.3341 11.5022 13.443 11.3045 13.5397C10.7939 13.7894 10.3353 14.2461 10.1682 14.8768L9.83886 16.1202C9.80624 16.2433 9.72349 16.2812 9.68305 16.2847C9.46879 16.303 9.25172 16.3125 9.03223 16.3125C8.81274 16.3125 8.59567 16.303 8.38141 16.2847C8.34096 16.2812 8.25821 16.2433 8.2256 16.1202L7.89621 14.8767C7.72918 14.2461 7.27054 13.7894 6.75997 13.5397C6.56227 13.443 6.37171 13.3341 6.1893 13.2138C5.71461 12.9008 5.08402 12.7368 4.44706 12.9094L3.19032 13.2499C3.06623 13.2834 2.99147 13.2319 2.96803 13.1989C2.7191 12.8492 2.50053 12.4771 2.31601 12.0864C2.29908 12.0505 2.29077 11.9611 2.38248 11.8716L3.31095 10.9658C3.77983 10.5083 3.95168 9.8886 3.9155 9.32713C3.90855 9.21908 3.905 9.11 3.905 9C3.905 8.89 3.90855 8.78092 3.9155 8.67287C3.95168 8.1114 3.77983 7.49167 3.31095 7.03422L2.38248 6.12839C2.29077 6.03892 2.29908 5.94946 2.31601 5.91362C2.50053 5.52289 2.7191 5.15079 2.96804 4.80103C2.99147 4.7681 3.06623 4.71653 3.19032 4.75014L4.44706 5.0906C5.08402 5.26317 5.71461 5.0992 6.1893 4.78624C6.37171 4.66599 6.56227 4.55703 6.75997 4.46034C7.27053 4.21064 7.72918 3.75388 7.89621 3.12328L8.2256 1.8798C8.25821 1.75668 8.34096 1.71876 8.38141 1.7153ZM9.03223 0C8.76327 0 8.49682 0.0115256 8.23339 0.0341364C7.38707 0.106779 6.76474 0.725672 6.57213 1.4528L6.24274 2.6963C6.22285 2.77143 6.15284 2.8741 6.00137 2.94819C5.73748 3.07725 5.48332 3.22258 5.24025 3.38284C5.10012 3.47521 4.97523 3.48383 4.89928 3.46326L3.64255 3.12279C2.90964 2.92424 2.05718 3.14583 1.56968 3.83079C1.2635 4.26102 0.99439 4.71907 0.767049 5.20045C0.408177 5.96034 0.640412 6.80113 1.18123 7.32877L2.1097 8.23458C2.16569 8.28921 2.22054 8.40012 2.20986 8.56574C2.20061 8.70942 2.19592 8.85423 2.19592 9C2.19592 9.14577 2.20061 9.29058 2.20986 9.43426C2.22054 9.59988 2.16569 9.71079 2.1097 9.76542L1.18123 10.6712C0.640411 11.1989 0.408177 12.0396 0.767049 12.7996C0.994389 13.281 1.2635 13.7389 1.56968 14.1692C2.05718 14.8542 2.90964 15.0758 3.64255 14.8772L4.89928 14.5368C4.97523 14.5162 5.10013 14.5248 5.24025 14.6171C5.48332 14.7774 5.73748 14.9228 6.00137 15.0518C6.15284 15.1259 6.22285 15.2286 6.24274 15.3037L6.57213 16.5472C6.76474 17.2744 7.38707 17.8932 8.23339 17.9659C8.49682 17.9885 8.76327 18 9.03223 18C9.3012 18 9.56764 17.9885 9.83106 17.9659C10.6774 17.8932 11.2997 17.2744 11.4923 16.5472L11.8217 15.3037C11.8416 15.2286 11.9116 15.126 12.0631 15.0518C12.327 14.9228 12.5812 14.7774 12.8242 14.6171C12.9644 14.5248 13.0893 14.5162 13.1653 14.5368L14.4219 14.8772C15.1549 15.0758 16.0072 14.8542 16.4948 14.1693C16.8009 13.7389 17.0701 13.281 17.2974 12.7996C17.6563 12.0396 17.4241 11.1989 16.8832 10.6712L15.9548 9.76547C15.8988 9.71085 15.844 9.59994 15.8547 9.43432C15.8639 9.29061 15.8686 9.14579 15.8686 9C15.8686 8.85421 15.8639 8.70939 15.8547 8.56568C15.844 8.40006 15.8988 8.28915 15.9548 8.23453L16.8832 7.32876C17.4241 6.80112 17.6563 5.96033 17.2974 5.20044C17.0701 4.71906 16.8009 4.261 16.4948 3.83079C16.0072 3.14581 15.1549 2.92424 14.4219 3.12279L13.1653 3.46323C13.0893 3.48381 12.9644 3.4752 12.8242 3.38283C12.5812 3.22256 12.327 3.07721 12.0631 2.94814C11.9116 2.87407 11.8416 2.77139 11.8217 2.69625L11.4923 1.4528C11.2997 0.72567 10.6774 0.106777 9.83106 0.0341354C9.56764 0.0115253 9.3012 0 9.03223 0ZM10.7413 9C10.7413 9.93198 9.97614 10.6875 9.03223 10.6875C8.08832 10.6875 7.32314 9.93198 7.32314 9C7.32314 8.06802 8.08832 7.3125 9.03223 7.3125C9.97614 7.3125 10.7413 8.06802 10.7413 9ZM12.4504 9C12.4504 10.864 10.92 12.375 9.03223 12.375C7.14443 12.375 5.61406 10.864 5.61406 9C5.61406 7.13604 7.14443 5.625 9.03223 5.625C10.92 5.625 12.4504 7.13604 12.4504 9Z" fill="#00e28e"/>
</svg>
