<svg width="13" height="13" viewBox="0 0 13 13" fill="none" xmlns="http://www.w3.org/2000/svg">
<path d="M0.540046 7.26233C0.170546 7.32807 -0.0788579 7.682 0.0228177 8.04583C0.279736 8.96516 0.730788 9.81965 1.34758 10.5483C2.11079 11.4499 3.09945 12.1254 4.20917 12.5035C5.31889 12.8816 6.50849 12.9482 7.65238 12.6963C8.79627 12.4444 9.852 11.8834 10.7081 11.0724C11.5642 10.2615 12.1889 9.23072 12.5162 8.08896C12.8436 6.94719 12.8614 5.73681 12.5679 4.58559C12.2744 3.43437 11.6803 2.38505 10.8485 1.5484C10.1815 0.877514 9.38149 0.363344 8.50495 0.0381705C8.14516 -0.0953015 7.76829 0.13417 7.67724 0.506737C7.58613 0.879572 7.81648 1.25364 8.17259 1.3976C8.81093 1.65565 9.39405 2.04226 9.88563 2.5367C10.5423 3.19718 11.0112 4.02555 11.2429 4.93435C11.4747 5.84316 11.4606 6.79868 11.2022 7.70002C10.9437 8.60136 10.4506 9.41509 9.77476 10.0553C9.09893 10.6955 8.2655 11.1384 7.36248 11.3372C6.45946 11.5361 5.52035 11.4835 4.6443 11.185C3.76825 10.8865 2.98778 10.3533 2.38528 9.6415C1.93244 9.10654 1.59278 8.48566 1.3843 7.8176C1.27007 7.45153 0.915094 7.19561 0.540046 7.26233Z" fill="white"/>
</svg>
