<svg xmlns="http://www.w3.org/2000/svg" xmlns:xlink="http://www.w3.org/1999/xlink" version="1.1" id="Layer_1" x="0px" y="0px" viewBox="0 0 512 512" style="enable-background:new 0 0 512 512;" xml:space="preserve" fill="#fff">
	<g>
		<path d="M472.208,201.712c9.271-9.037,12.544-22.3,8.544-34.613c-4.001-12.313-14.445-21.118-27.257-22.979l-112.03-16.279    c-2.199-0.319-4.1-1.7-5.084-3.694L286.28,22.632c-5.729-11.61-17.331-18.822-30.278-18.822c-12.947,0-24.549,7.212-30.278,18.822    l-50.101,101.516c-0.985,1.993-2.885,3.374-5.085,3.694L58.51,144.12c-12.812,1.861-23.255,10.666-27.257,22.979    c-4.002,12.313-0.728,25.576,8.544,34.613l81.065,79.019c1.591,1.552,2.318,3.787,1.942,5.978l-19.137,111.576    c-2.188,12.761,2.958,25.414,13.432,33.024c10.474,7.612,24.102,8.595,35.56,2.572l100.201-52.679    c1.968-1.035,4.317-1.035,6.286,0l100.202,52.679c4.984,2.62,10.377,3.915,15.744,3.914c6.97,0,13.896-2.184,19.813-6.487    c10.474-7.611,15.621-20.265,13.432-33.024l-19.137-111.576c-0.375-2.191,0.351-4.426,1.942-5.978L472.208,201.712z     M362.579,291.276l19.137,111.578c0.64,3.734-1.665,5.863-2.686,6.604c-1.022,0.74-3.76,2.277-7.112,0.513l-100.202-52.679    c-4.919-2.585-10.315-3.879-15.712-3.879c-5.397,0-10.794,1.294-15.712,3.878l-100.201,52.678    c-3.354,1.763-6.091,0.228-7.112-0.513c-1.021-0.741-3.327-2.87-2.686-6.604l19.137-111.576    c1.879-10.955-1.75-22.127-9.711-29.886l-81.065-79.019c-2.713-2.646-2.099-5.723-1.708-6.923    c0.389-1.201,1.702-4.052,5.451-4.596l112.027-16.279c10.999-1.598,20.504-8.502,25.424-18.471l50.101-101.516    c1.677-3.397,4.793-3.764,6.056-3.764c1.261,0,4.377,0.366,6.055,3.764v0.001l50.101,101.516    c4.919,9.969,14.423,16.873,25.422,18.471l112.029,16.279c3.749,0.544,5.061,3.395,5.451,4.596    c0.39,1.201,1.005,4.279-1.709,6.923l-81.065,79.019C364.329,269.149,360.7,280.321,362.579,291.276z"/>
	</g>
</svg>
