<?xml version="1.0" encoding="utf-8"?>
<!-- Generator: Adobe Illustrator 21.0.0, SVG Export Plug-In . SVG Version: 6.00 Build 0)  -->
<svg version="1.1" id="Layer_1" xmlns="http://www.w3.org/2000/svg" xmlns:xlink="http://www.w3.org/1999/xlink" x="0px" y="0px"
	 viewBox="0 0 512 512" style="enable-background:new 0 0 512 512;" xml:space="preserve">
<g>
	<path d="M506.9,405.4H5.1c-2.8,0-5.1,2.3-5.1,5.1v35.8c0,2.8,2.3,5.1,5.1,5.1h501.8c2.8,0,5.1-2.3,5.1-5.1v-35.8
		C512,407.7,509.7,405.4,506.9,405.4z M34.4,325.2l25.4,25.3c2,2,5.2,2,7.2,0l150.2-149.7l62.5,62.3c8,7.9,20.9,7.9,28.9,0
		L477.7,94.6c2-2,2-5.2,0-7.2l-25.4-25.3c-2-2-5.2-2-7.2,0L294.2,212.5l-62.5-62.3c-8-7.9-20.9-7.9-28.9,0L34.4,318
		C32.4,320,32.4,323.2,34.4,325.2L34.4,325.2z"/>
</g>
</svg>
