<svg width="47" height="47" viewBox="0 0 47 47" fill="none" xmlns="http://www.w3.org/2000/svg">
<path fill-rule="evenodd" clip-rule="evenodd" d="M46.5063 5.53007C46.6626 5.68598 46.7867 5.8712 46.8713 6.07511C46.9559 6.27903 46.9995 6.49764 46.9995 6.71841C46.9995 6.93919 46.9559 7.15779 46.8713 7.36171C46.7867 7.56562 46.6626 7.75084 46.5063 7.90676L23.008 31.4051C22.8521 31.5614 22.6669 31.6854 22.4629 31.77C22.259 31.8547 22.0404 31.8982 21.8197 31.8982C21.5989 31.8982 21.3803 31.8547 21.1764 31.77C20.9724 31.6854 20.7872 31.5614 20.6313 31.4051L10.5606 21.3344C10.4045 21.1783 10.2807 20.9931 10.1963 20.7892C10.1118 20.5853 10.0684 20.3667 10.0684 20.146C10.0684 19.9253 10.1118 19.7068 10.1963 19.5029C10.2807 19.299 10.4045 19.1137 10.5606 18.9577C10.7166 18.8016 10.9019 18.6778 11.1058 18.5934C11.3097 18.5089 11.5282 18.4655 11.7489 18.4655C11.9696 18.4655 12.1882 18.5089 12.3921 18.5934C12.596 18.6778 12.7812 18.8016 12.9373 18.9577L21.8197 27.8434L44.1297 5.53007C44.2856 5.37376 44.4708 5.24974 44.6747 5.16513C44.8786 5.08051 45.0972 5.03696 45.318 5.03696C45.5388 5.03696 45.7574 5.08051 45.9613 5.16513C46.1652 5.24974 46.3504 5.37376 46.5063 5.53007Z" fill="#4AA956"/>
<path fill-rule="evenodd" clip-rule="evenodd" d="M21.8199 5.03985C18.1683 5.03985 14.5987 6.12269 11.5624 8.15143C8.52621 10.1802 6.15977 13.0637 4.76235 16.4374C3.36493 19.811 2.9993 23.5233 3.7117 27.1048C4.4241 30.6863 6.18253 33.9761 8.76462 36.5581C11.3467 39.1402 14.6365 40.8987 18.218 41.6111C21.7994 42.3235 25.5117 41.9578 28.8854 40.5604C32.2591 39.163 35.1426 36.7966 37.1713 33.7603C39.2001 30.7241 40.2829 27.1545 40.2829 23.5028C40.2829 23.0577 40.4597 22.6308 40.7745 22.316C41.0893 22.0012 41.5162 21.8244 41.9614 21.8244C42.4065 21.8244 42.8334 22.0012 43.1482 22.316C43.463 22.6308 43.6398 23.0577 43.6398 23.5028C43.6392 28.306 42.0537 32.9748 39.1293 36.7851C36.2049 40.5954 32.1049 43.3343 27.4653 44.577C22.8257 45.8197 17.9056 45.4968 13.4682 43.6583C9.03078 41.8199 5.32397 38.5686 2.92264 34.4088C0.521316 30.2489 -0.440331 25.413 0.18684 20.6509C0.814011 15.8889 2.99495 11.4668 6.39142 8.07055C9.7879 4.67429 14.2101 2.49364 18.9722 1.86677C23.7343 1.23991 28.5702 2.20186 32.7299 4.60346C32.9305 4.70838 33.1077 4.8528 33.2511 5.02803C33.3944 5.20325 33.5008 5.40565 33.5639 5.62306C33.6269 5.84046 33.6454 6.06838 33.6181 6.2931C33.5908 6.51782 33.5183 6.73469 33.405 6.93068C33.2917 7.12666 33.14 7.29771 32.9589 7.43352C32.7778 7.56934 32.5711 7.66711 32.3512 7.72097C32.1313 7.77482 31.9028 7.78365 31.6795 7.74691C31.4561 7.71017 31.2425 7.62862 31.0514 7.50718C28.2458 5.88476 25.0609 5.03351 21.8199 5.03985Z" fill="#4AA956"/>
</svg>
