<?xml version="1.0" encoding="UTF-8"?>
<svg width="24px" height="24px" viewBox="0 0 24 24" version="1.1" xmlns="http://www.w3.org/2000/svg" xmlns:xlink="http://www.w3.org/1999/xlink">
    <!-- Generator: Sketch 53.2 (72643) - https://sketchapp.com -->
    <title>Support</title>
    <desc>Created with Sketch.</desc>
    <g id="Page-2" stroke="none" stroke-width="1" fill="none" fill-rule="evenodd">
        <g id="ts_21" transform="translate(-883.000000, -299.000000)" fill="#FCD600">
            <g id="Support" transform="translate(883.000000, 299.000000)">
                <path d="M15.6416016,22.8586781 C12.1541484,22.8786469 9.09817969,20.5280063 8.22269531,17.1518813 L8.35966406,17.1518813 C13.0906172,17.1912563 16.9883672,13.4464594 17.1367266,8.71719375 L17.1367266,8.22069375 C21.1257891,9.1571625 23.6002734,13.1496469 22.6638047,17.1387563 C22.4817422,17.9136938 22.1763984,18.65385 21.7592578,19.33185 C21.1896797,20.2740375 21.1896797,21.4542094 21.7592578,22.3963969 L22.0331953,22.8586313 L15.6416016,22.8586313 L15.6416016,22.8586781 Z M1.98517969,16.0105219 L2.25907031,15.5482875 C2.82864844,14.6061 2.82864844,13.425975 2.25907031,12.4837406 C0.111585937,8.99399063 1.19992969,4.42452188 4.68907031,2.27708438 C8.17816406,0.129646875 12.7481953,1.21733438 14.8957266,4.7070375 C15.6341953,5.90661563 16.0153828,7.29163125 15.9954141,8.70008438 C15.8590078,12.8067094 12.4685859,16.0533188 8.35966406,16.0105219 L1.98517969,16.0105219 Z M22.7293828,21.8200219 C22.3795547,21.2407875 22.3795547,20.5160063 22.7293828,19.9367719 C25.2061641,15.9100219 23.9500547,10.6375219 19.9233984,8.1607875 C19.0331484,7.6129125 18.0498516,7.23285 17.0226328,7.03939688 C16.6916016,5.2451625 15.7956328,3.60331875 14.4659766,2.3541 C12.7088672,0.67288125 10.3147734,-0.172884375 7.89166406,0.03144375 C3.17847656,0.400678125 -0.342679687,4.52042813 0.0265546875,9.2336625 C0.133335937,10.5993188 0.566414062,11.9192719 1.28946094,13.0828969 C1.63933594,13.6621313 1.63933594,14.3869594 1.28946094,14.9661469 L0.496195312,16.2901313 C0.335273437,16.5612094 0.424851562,16.9116 0.695976562,17.0719594 C0.783867187,17.1238969 0.884320312,17.1518344 0.987023437,17.1518344 L7.05902344,17.1518344 C7.95503906,21.1585688 11.5137422,24.0051469 15.6192422,23.9999906 L23.0153203,23.9999906 C23.3302734,23.9999906 23.5859766,23.7443813 23.5859766,23.4292875 C23.5859766,23.3271469 23.5586016,23.2261313 23.5061016,23.1382406 L22.7293828,21.8200219 Z" id="Fill-5"></path>
                <path d="M9.54113547,7.16468219 L9.54113547,7.16468219 C9.54113547,7.71484084 8.9709741,8.06689719 7.50915087,8.12193565 L7.44851767,8.17692892 L7.71541338,9.88235294 L8.92852587,9.88235294 L9.05592037,9.23870121 C10.2932961,9.0406441 11.2941176,8.49053064 11.2941176,7.14267585 C11.2941176,5.74534067 10.1598732,4.94213163 8.48575899,4.94213163 C7.39939332,4.91845335 6.35856482,5.33603167 5.64705882,6.08090355 L6.71459184,7.14267585 C7.1580064,6.6910261 7.78880098,6.4274922 8.45541748,6.41651162 C9.14684526,6.41651162 9.54113547,6.69156835 9.54113547,7.16468219" id="Fill-8"></path>
                <polygon id="Fill-10" points="7.05882353 12.7058824 9.17647059 12.7058824 9.17647059 11.2941176 7.05882353 11.2941176"></polygon>
            </g>
        </g>
    </g>
</svg>