<svg width="11" height="21" viewBox="0 0 11 21" fill="none" xmlns="http://www.w3.org/2000/svg">
<path d="M10.0287 6.01207C10.2509 6.2384 10.6112 6.2384 10.8334 6.01207C11.0555 5.78575 11.0555 5.4188 10.8334 5.19247L5.90232 0.169745C5.68012 -0.0565819 5.31988 -0.0565819 5.09768 0.169745L0.166647 5.19247C-0.055548 5.4188 -0.055548 5.78575 0.166647 6.01207C0.388841 6.2384 0.749091 6.2384 0.971286 6.01207L5.5 1.39915L10.0287 6.01207Z" fill="#70796D"/>
<path d="M10.0287 14.9879C10.2509 14.7616 10.6112 14.7616 10.8334 14.9879C11.0555 15.2143 11.0555 15.5812 10.8334 15.8075L5.90232 20.8303C5.68012 21.0566 5.31988 21.0566 5.09768 20.8303L0.166646 15.8075C-0.0555484 15.5812 -0.0555484 15.2143 0.166646 14.9879C0.388841 14.7616 0.749091 14.7616 0.971285 14.9879L5.5 19.6009L10.0287 14.9879Z" fill="#70796D"/>
</svg>
