<svg width="46" height="46" viewBox="0 0 46 46" fill="none" xmlns="http://www.w3.org/2000/svg">
<path d="M45.2338 6.13333H37.5719C37.2654 6.13333 36.9877 6.325 36.8632 6.6125C36.7387 6.9 36.8057 7.22583 37.026 7.44625L38.6925 9.10416L38.2423 9.56416C30.6379 17.2117 20.2944 21.4954 9.51985 21.4667H6.92439C6.50299 21.4667 6.1582 21.8117 6.1582 22.2333C6.1582 22.655 6.50299 23 6.92439 23H9.51985C20.7062 23.0287 31.4328 18.5821 39.315 10.6471L40.3206 9.65041C40.4643 9.50666 40.5409 9.30541 40.5409 9.10416C40.5409 8.90291 40.4643 8.70166 40.3206 8.55791L39.4203 7.65708H44.4676V12.7075L43.5673 11.8067C43.2704 11.5096 42.782 11.5 42.4851 11.8067L41.489 12.8129C33.0322 21.3325 21.5203 26.105 9.51985 26.0667H6.92439C6.50299 26.0667 6.1582 26.4117 6.1582 26.8333C6.1582 27.255 6.50299 27.6 6.92439 27.6H9.51985C21.9225 27.6383 33.8176 22.7029 42.5617 13.9054L43.0214 13.4454L44.6879 15.1129C44.9081 15.3333 45.2338 15.3908 45.5211 15.2758C45.8084 15.1608 45.9904 14.8829 46 14.5667V6.9C46 6.47833 45.6552 6.13333 45.2338 6.13333Z" fill="#4AA956"/>
<path d="M23.0137 30.6667H18.4166C17.9952 30.6667 17.6504 31.0117 17.6504 31.4333V45.2333C17.6504 45.655 17.9952 46 18.4166 46C18.838 46 19.1828 45.655 19.1828 45.2333V36.8H22.2475V42.9333C22.2475 43.355 22.5923 43.7 23.0137 43.7C23.4351 43.7 23.7799 43.355 23.7799 42.9333V31.4333C23.7799 31.0117 23.4351 30.6667 23.0137 30.6667ZM19.1828 35.2667V32.2H22.2475V35.2667H19.1828Z" fill="#4AA956"/>
<path d="M20.8025 8.43333C20.7451 8.63458 20.7738 8.83583 20.8792 9.01792L22.4115 11.6725C22.5073 11.845 22.6797 11.9792 22.8712 12.0367C23.0724 12.0846 23.2735 12.0558 23.4555 11.96L24.5473 11.3275C24.7867 11.4904 25.0453 11.6342 25.3135 11.7587V13.0333C25.3135 13.455 25.6582 13.8 26.0797 13.8C26.5011 13.8 26.8458 13.455 26.8458 13.0333V11.2317C26.8458 10.9058 26.6351 10.6183 26.3287 10.5129C25.8881 10.3596 25.4763 10.12 25.1219 9.81333C24.8729 9.6025 24.5185 9.56417 24.2408 9.72708L23.3501 10.2446L22.5839 8.9125L23.4746 8.43333C23.7619 8.27042 23.9056 7.94458 23.8481 7.62833C23.7524 7.16833 23.7524 6.68917 23.8481 6.22917C23.9343 5.88417 23.7811 5.52958 23.4746 5.36667L22.5839 4.84917L23.3501 3.51708L24.2408 4.03458C24.5185 4.1975 24.8729 4.15917 25.1219 3.94833C25.4763 3.64167 25.8881 3.41167 26.3287 3.24875C26.6256 3.14333 26.8267 2.875 26.8458 2.55875V1.53333H28.3782V2.56833C28.3782 2.89417 28.5889 3.18167 28.8954 3.28708C29.336 3.44042 29.7478 3.68 30.1021 3.98667C30.3512 4.1975 30.7055 4.23583 30.9833 4.07292L31.8739 3.55542L32.6401 4.8875L31.7494 5.36667C31.4621 5.52958 31.3185 5.85542 31.3759 6.17167C31.4717 6.63167 31.4717 7.11083 31.3759 7.57083C31.2897 7.91583 31.443 8.27042 31.7494 8.43333L32.6401 8.95083L31.8739 10.2829L30.9833 9.76542C30.7055 9.6025 30.3512 9.64083 30.1021 9.85167C29.7478 10.1583 29.336 10.3883 28.8954 10.5512C28.5889 10.6567 28.3878 10.9442 28.3782 11.27V13.0333C28.3782 13.455 28.723 13.8 29.1444 13.8C29.5658 13.8 29.9106 13.455 29.9106 13.0333V11.7492C30.1788 11.6246 30.4373 11.4808 30.6768 11.3179L31.7973 11.96C31.9793 12.0558 32.1804 12.0846 32.3815 12.0367C32.5731 11.9792 32.7455 11.8546 32.8413 11.6725L34.3736 9.01792C34.479 8.84542 34.5077 8.63458 34.4503 8.43333C34.4024 8.24167 34.2683 8.06917 34.0959 7.96375L32.9753 7.32167C32.9753 7.17792 32.9753 7.03417 32.9753 6.89042C32.9753 6.74667 32.9753 6.60292 32.9753 6.45917L34.0863 5.81708C34.2491 5.71167 34.3736 5.54875 34.4215 5.35708C34.479 5.15583 34.4503 4.95458 34.3449 4.7725L32.8125 2.11792C32.6018 1.75375 32.1325 1.62917 31.7686 1.83042L30.6768 2.46292C30.4373 2.3 30.1788 2.15625 29.9106 2.03167V0.766667C29.9106 0.345 29.5658 0 29.1444 0H26.0797C25.6582 0 25.3135 0.345 25.3135 0.766667V2.05083C25.0453 2.17542 24.7867 2.31917 24.5473 2.48208L23.4555 1.84C23.0915 1.62917 22.6222 1.76333 22.4115 2.1275L20.8792 4.78208C20.7738 4.95458 20.7451 5.16542 20.8025 5.36667C20.8504 5.55833 20.9845 5.73083 21.1569 5.83625L22.2679 6.47833C22.2679 6.62208 22.2679 6.76583 22.2679 6.90958C22.2679 7.05333 22.2679 7.19708 22.2679 7.34083L21.1569 7.98292C20.9845 8.07875 20.8504 8.24167 20.8025 8.43333Z" fill="#4AA956"/>
<path d="M29.9096 6.9C29.9096 5.62542 28.8849 4.6 27.6111 4.6C26.3373 4.6 25.3125 5.62542 25.3125 6.9C25.3125 8.17458 26.3373 9.2 27.6111 9.2C28.8849 9.2 29.9096 8.17458 29.9096 6.9ZM27.6111 7.66667C27.1897 7.66667 26.8449 7.32167 26.8449 6.9C26.8449 6.47833 27.1897 6.13333 27.6111 6.13333C28.0325 6.13333 28.3773 6.47833 28.3773 6.9C28.3773 7.32167 28.0325 7.66667 27.6111 7.66667Z" fill="#4AA956"/>
<path d="M6.1592 17.6333C6.1592 18.055 6.50399 18.4 6.92539 18.4H11.5225C11.9439 18.4 12.2887 18.055 12.2887 17.6333V15.3812C12.5569 15.2471 12.8059 15.1033 13.0549 14.9404L15.0087 16.1C15.363 16.33 15.8419 16.2246 16.0622 15.8604C16.292 15.5058 16.1867 15.0267 15.8227 14.8062C15.8036 14.7967 15.7844 14.7871 15.7653 14.7775L13.3805 13.4071C13.1124 13.2537 12.7772 13.2729 12.5281 13.4646C12.1355 13.7808 11.7045 14.0396 11.2448 14.2312C10.9575 14.3462 10.7755 14.6242 10.7659 14.9404V16.8667H7.69158V14.8829C7.69158 14.5763 7.50003 14.2887 7.21271 14.1737C6.753 13.9821 6.32202 13.7233 5.92935 13.4071C5.68034 13.2154 5.34513 13.1962 5.06739 13.3496L3.3722 14.3558L1.83982 11.7013L3.56374 10.7333C3.83191 10.58 3.98515 10.2733 3.93726 9.96667C3.86064 9.45875 3.83191 8.94125 3.93726 8.43333C3.97557 8.12667 3.83191 7.82 3.56374 7.66667L1.8494 6.67L3.38177 4.01542L5.09612 5.03125C5.36428 5.19417 5.70907 5.16542 5.95808 4.97375C6.34117 4.6575 6.77215 4.39875 7.24144 4.20708C7.51919 4.0825 7.69158 3.81417 7.70116 3.51708V1.53333H10.7659V3.51708C10.7659 3.82375 10.9575 4.10167 11.2448 4.22625C11.7045 4.41792 12.145 4.67667 12.5281 4.99292C12.7772 5.18458 13.1124 5.20375 13.3805 5.05042L15.1044 4.06333L16.6368 6.71792L14.9321 7.67625C14.6735 7.83917 14.549 8.14583 14.5968 8.44292C14.616 8.70167 14.616 8.95083 14.5968 9.20958C14.616 9.46833 14.616 9.7175 14.5968 9.97625C14.5585 10.2829 14.7022 10.5896 14.9704 10.7429L17.3551 12.1229C17.7191 12.3337 18.1884 12.2092 18.3991 11.845C18.6193 11.4808 18.514 11.0112 18.15 10.7908C18.1213 10.7717 18.1022 10.7621 18.0734 10.7525L16.1196 9.66C16.1196 9.50667 16.1196 9.36292 16.1196 9.21917C16.1196 9.07542 16.1196 8.93167 16.1196 8.77833L18.0734 7.66667C18.4374 7.45583 18.5619 6.98625 18.3607 6.62208L16.0622 2.63542C15.8802 2.25208 15.4205 2.09875 15.0374 2.29042C15.0278 2.29042 15.0182 2.3 15.0087 2.3L13.0549 3.45958C12.8059 3.29667 12.5569 3.15292 12.2887 3.01875V0.766667C12.2887 0.345 11.9439 0 11.5225 0H6.92539C6.50399 0 6.1592 0.345 6.1592 0.766667V3.01875C5.89104 3.14333 5.64203 3.29667 5.39302 3.45958L3.47755 2.3C3.11361 2.08917 2.64432 2.20417 2.43362 2.57792L0.135052 6.56458C-0.0948044 6.91917 0.000969079 7.38875 0.345754 7.62833C0.364908 7.63792 0.384063 7.65708 0.412795 7.66667L2.36657 8.7975C2.34742 8.93167 2.33784 9.06583 2.32826 9.2C2.31869 9.34375 2.31869 9.4875 2.32826 9.64083L0.412795 10.7333C0.0488558 10.9442 -0.0756497 11.4137 0.125475 11.7779L2.42404 15.7646C2.60601 16.1479 3.06572 16.3013 3.44881 16.1096C3.45839 16.1096 3.46797 16.1 3.47755 16.1L5.43132 14.9692C5.68034 15.1321 5.92935 15.2758 6.19751 15.41L6.1592 17.6333Z" fill="#4AA956"/>
<path d="M6.1582 9.2C6.1582 10.8962 7.52776 12.2667 9.22295 12.2667C10.9181 12.2667 12.2877 10.8962 12.2877 9.2C12.2877 7.50375 10.9181 6.13333 9.22295 6.13333C7.52776 6.13333 6.1582 7.50375 6.1582 9.2ZM10.7553 9.2C10.7553 10.0433 10.0658 10.7333 9.22295 10.7333C8.38015 10.7333 7.69058 10.0433 7.69058 9.2C7.69058 8.35666 8.38015 7.66666 9.22295 7.66666C10.0658 7.66666 10.7553 8.35666 10.7553 9.2Z" fill="#4AA956"/>
<path d="M19.1822 16.8667H19.8909C21.0977 16.8475 22.2757 16.56 23.3579 16.0233C23.7506 15.8604 23.9326 15.41 23.7698 15.0171C23.6069 14.6242 23.1568 14.4421 22.7641 14.605C22.7258 14.6242 22.6971 14.6338 22.6684 14.6529C21.7968 15.0842 20.8391 15.3142 19.8718 15.3238H19.1822C18.7608 15.3238 18.416 15.6688 18.416 16.0904C18.416 16.5121 18.7608 16.8667 19.1822 16.8667Z" fill="#4AA956"/>
<path d="M41.4024 23H36.8053C36.3838 23 36.0391 23.345 36.0391 23.7667V45.2333C36.0391 45.655 36.3838 46 36.8053 46C37.2267 46 37.5714 45.655 37.5714 45.2333V29.1333H40.6362V42.9333C40.6362 43.355 40.981 43.7 41.4024 43.7C41.8238 43.7 42.1686 43.355 42.1686 42.9333V23.7667C42.1686 23.345 41.8238 23 41.4024 23ZM37.5714 27.6V24.5333H40.6362V27.6H37.5714Z" fill="#4AA956"/>
<path d="M32.209 27.6H27.6119C27.1905 27.6 26.8457 27.945 26.8457 28.3667V45.2333C26.8457 45.655 27.1905 46 27.6119 46C28.0333 46 28.3781 45.655 28.3781 45.2333V34.5H31.4428V42.9333C31.4428 43.355 31.7876 43.7 32.209 43.7C32.6304 43.7 32.9752 43.355 32.9752 42.9333V28.3667C32.9752 27.945 32.6304 27.6 32.209 27.6ZM28.3781 32.9667V29.1333H31.4428V32.9667H28.3781Z" fill="#4AA956"/>
<path d="M13.8203 33.7333H9.22322C8.80182 33.7333 8.45703 34.0783 8.45703 34.5V45.2333C8.45703 45.655 8.80182 46 9.22322 46C9.64462 46 9.98941 45.655 9.98941 45.2333V39.8667H13.0542V42.9333C13.0542 43.355 13.3989 43.7 13.8203 43.7C14.2417 43.7 14.5865 43.355 14.5865 42.9333V34.5C14.5865 34.0783 14.2417 33.7333 13.8203 33.7333ZM9.98941 38.3333V35.2667H13.0542V38.3333H9.98941Z" fill="#4AA956"/>
</svg>
