<!-- Generated by IcoMoon.io -->
<svg version="1.1" xmlns="http://www.w3.org/2000/svg" width="1024" height="1024" viewBox="0 0 1024 1024">
<title></title>
<g id="icomoon-ignore">
</g>
<path fill="#2873FB" d="M959.36 218.208c-3.072-50.24-44.384-90.112-95.36-90.112h-96v-32.064c0-53.024-43.008-96-96-96h-320c-53.024 0-96 42.976-96 96v32.032h-96c-51.040 0-92.32 39.872-95.392 90.112h-0.608v69.856c0 35.328 28.672 64 64 64v0 544c0 70.688 57.312 128 128 128h512c70.688 0 128-57.312 128-128v-544c35.328 0 64-28.672 64-64v-69.824h-0.64zM320 96.064c0-17.696 14.304-32 32-32h320c17.696 0 32 14.304 32 32v32h-384v-32zM832 896.064c0 35.264-28.736 64-64 64h-512c-35.296 0-64-28.736-64-64v-544h640v544zM896 256.032v32h-768v-63.968c0-17.696 14.304-32 32-32h704c17.696 0 32 14.304 32 32v31.968zM288 896.192h64c17.696 0 32-14.304 32-32v-416c0-17.696-14.304-32-32-32h-64c-17.696 0-32 14.304-32 32v416c0 17.696 14.304 32 32 32zM288 448.16h64v416h-64v-416zM480 896.192h64c17.696 0 32-14.304 32-32v-416c0-17.696-14.304-32-32-32h-64c-17.696 0-32 14.304-32 32v416c0 17.696 14.304 32 32 32zM480 448.16h64v416h-64v-416zM672 896.192h64c17.696 0 32-14.304 32-32v-416c0-17.696-14.304-32-32-32h-64c-17.696 0-32 14.304-32 32v416c0 17.696 14.304 32 32 32zM672 448.16h64v416h-64v-416z"></path>
</svg>
