<svg width="13" height="14" viewBox="0 0 13 14" fill="none" xmlns="http://www.w3.org/2000/svg">
<path fill-rule="evenodd" clip-rule="evenodd" d="M11.7182 1.71739L10.6044 1.90301C9.12243 2.15 7.75468 2.85387 6.69232 3.91623C6.51671 4.09184 6.27105 4.17852 6.02412 4.15201L3.7513 3.90797L1.68948 5.96979L3.46687 6.68075C3.77857 6.80543 3.93017 7.15917 3.8055 7.47087C3.68082 7.78256 3.32707 7.93417 3.01538 7.80949L0.810041 6.92735C0.202285 6.68425 0.0410947 5.89893 0.503946 5.43608L2.99448 2.94555C3.1895 2.75053 3.46231 2.65426 3.73654 2.68371L5.96895 2.9234C7.19015 1.75622 8.73535 0.982056 10.4045 0.703864L11.938 0.448292C12.5551 0.345444 13.0901 0.880448 12.9873 1.49755L12.7317 3.03095C12.4535 4.70019 11.6793 6.24544 10.512 7.46667L10.7509 9.69827C10.7802 9.97228 10.684 10.2449 10.4892 10.4398L7.99961 12.9312C7.53682 13.3943 6.75126 13.2332 6.5081 12.6253L5.62603 10.4201C5.50136 10.1084 5.65296 9.7547 5.96466 9.63003C6.27635 9.50535 6.6301 9.65695 6.75477 9.96865L7.4656 11.7457L9.52661 9.68321L9.28345 7.41115C9.25704 7.16431 9.34373 6.91877 9.51926 6.74323C10.5816 5.68085 11.2855 4.31307 11.5325 2.83108L11.7182 1.71739ZM3.3073 8.66369C3.54187 8.90384 3.53735 9.28868 3.29719 9.52325L1.03257 11.7352C0.792415 11.9698 0.407578 11.9653 0.173007 11.7251C-0.0615617 11.4849 -0.0570344 11.1001 0.183119 10.8655L2.44774 8.65358C2.6879 8.41901 3.07274 8.42354 3.3073 8.66369ZM4.77692 10.1332C5.0143 10.3706 5.0143 10.7555 4.77692 10.9929L4.0396 11.7302C3.80222 11.9676 3.41735 11.9676 3.17997 11.7302C2.9426 11.4928 2.9426 11.1079 3.17998 10.8706L3.91729 10.1332C4.15467 9.89587 4.53954 9.89587 4.77692 10.1332Z" fill="#FFFFFF"/>
</svg>
