<svg width="165" height="280" viewBox="0 0 165 280" fill="none" xmlns="http://www.w3.org/2000/svg">
<path d="M-23.9961 162.623V116.41L16.0064 139.557L-23.9961 162.623Z" stroke="#8EDF98"/>
<path d="M-23.9961 116.41L15.9257 93.3442H16.0064V139.557L-23.9961 116.41Z" stroke="#8EDF98"/>
<path d="M16.0078 139.476V93.3442L55.9296 116.41L16.0078 139.476Z" stroke="#8EDF98"/>
<path d="M16.0078 139.557V139.476L55.9296 116.41H56.0102V162.623L16.0078 139.557Z" stroke="#8EDF98"/>
<path d="M16.0078 231.901V185.689L56.0102 208.835L16.0078 231.901Z" stroke="#8EDF98"/>
<path d="M16.0078 185.689L55.9296 162.623H56.0102V208.835L16.0078 185.689Z" stroke="#8EDF98"/>
<path d="M29.2344 235.692L42.7029 227.949V243.515L29.2344 235.692Z" stroke="#8EDF98"/>
<path d="M16.0078 185.689V139.557L55.9296 162.623L16.0078 185.689Z" stroke="#8EDF98"/>
<path d="M-23.9961 162.623L16.0064 139.557V185.689L-23.9961 162.623Z" stroke="#8EDF98"/>
<path d="M-23.9961 208.755V162.623L16.0064 185.689L-23.9961 208.755Z" stroke="#8EDF98"/>
<path d="M-23.9961 255.048V254.967L16.0064 231.901V278.194L-23.9961 255.048Z" stroke="#8EDF98"/>
<path d="M16.0078 93.3443V47.1318L56.0102 70.2783L16.0078 93.3443Z" stroke="#8EDF98"/>
<path d="M16.0078 47.1319L55.9296 24.066H56.0102V70.2785L16.0078 47.1319Z" stroke="#8EDF98"/>
<path d="M16.0078 47.1318V1L55.9296 24.0659L16.0078 47.1318Z" stroke="#8EDF98"/>
<path d="M-23.9961 24.0659L16.0064 1V47.1318L-23.9961 24.0659Z" stroke="#8EDF98"/>
<path d="M-23.9961 70.1978V24.066L16.0064 47.1319L-23.9961 70.1978Z" stroke="#8EDF98"/>
<path d="M-23.9961 70.2783V70.1977L16.0064 47.1318V93.3443L-23.9961 70.2783Z" stroke="#8EDF98"/>
<path d="M-23.9961 162.623V116.41L16.0064 139.557L-23.9961 162.623Z" stroke="#8EDF98"/>
<path d="M-23.9961 116.41L15.9257 93.3444H16.0064V139.557L-23.9961 116.41Z" stroke="#8EDF98"/>
<path d="M-23.9961 116.41V70.2784L15.9257 93.3444L-23.9961 116.41Z" stroke="#8EDF98"/>
<path d="M16.0078 93.3444L56.0102 70.2784V116.41H55.9296L16.0078 93.3444Z" stroke="#8EDF98"/>
<path d="M16.0078 139.476V93.3444L55.9296 116.41L16.0078 139.476Z" stroke="#8EDF98"/>
<path d="M16.0078 139.557V139.476L55.9296 116.41H56.0102V162.623L16.0078 139.557Z" stroke="#8EDF98"/>
<path d="M56.0078 162.623V116.41L96.0102 139.557L56.0078 162.623Z" stroke="#8EDF98"/>
<path d="M56.0078 116.41L95.9296 93.3442H96.0102V139.557L56.0078 116.41Z" stroke="#8EDF98"/>
<path d="M16.0078 139.557V139.476L55.9296 116.41H56.0102V162.623L16.0078 139.557Z" stroke="#8EDF98"/>
<path d="M96.0117 139.476V93.3442L135.934 116.41L96.0117 139.476Z" stroke="#8EDF98"/>
<path d="M147.789 125.766V107.055L164 116.41L147.789 125.766Z" stroke="#8EDF98"/>
<path d="M96.0117 231.901V185.689L136.014 208.835L96.0117 231.901Z" stroke="#8EDF98"/>
<path d="M56.0078 162.623L96.0102 139.557V185.689H95.9296L56.0078 162.623Z" stroke="#8EDF98"/>
<path d="M56.0078 208.755V162.623L95.9296 185.689L56.0078 208.755Z" stroke="#8EDF98"/>
<path d="M56.0078 208.835V208.754L95.9296 185.689H96.0102V231.901L56.0078 208.835Z" stroke="#8EDF98"/>
<path d="M96.0117 93.3443V47.1318L136.014 70.2783L96.0117 93.3443Z" stroke="#8EDF98"/>
<path d="M56.0078 24.0659L96.0102 1V47.1318H95.9296L56.0078 24.0659Z" stroke="#8EDF98"/>
<path d="M56.0078 70.1978V24.066L95.9296 47.1319L56.0078 70.1978Z" stroke="#8EDF98"/>
<path d="M56.0078 70.2783V70.1977L95.9296 47.1318H96.0102V93.3443L56.0078 70.2783Z" stroke="#8EDF98"/>
<path d="M56.0078 162.623V116.41L96.0102 139.557L56.0078 162.623Z" stroke="#8EDF98"/>
<path d="M56.0078 116.41L95.9296 93.3444H96.0102V139.557L56.0078 116.41Z" stroke="#8EDF98"/>
<path d="M56.0078 116.41V70.2784L95.9296 93.3444L56.0078 116.41Z" stroke="#8EDF98"/>
<path d="M16.0078 93.3444L56.0102 70.2784V116.41H55.9296L16.0078 93.3444Z" stroke="#8EDF98"/>
<path d="M16.0078 139.557V139.476L55.9296 116.41H56.0102V162.623L16.0078 139.557Z" stroke="#8EDF98"/>
</svg>
