<svg width="302" height="182" viewBox="0 0 302 182" fill="none" xmlns="http://www.w3.org/2000/svg">
<g opacity="0.3">
<path d="M1 181.576L1 129.944L45.6934 155.805L1 181.576Z" stroke="#8EDF98"/>
<path d="M45.6914 155.715V104.173L90.3848 129.944L45.6914 155.715Z" stroke="#8EDF98"/>
<path d="M45.6914 155.805V155.715L90.3848 129.944V181.576L45.6914 155.805Z" stroke="#8EDF98"/>
<path d="M45.6914 207.346L90.2947 181.576H90.3848V233.207L45.6914 207.346Z" stroke="#8EDF98"/>
<path d="M45.6914 207.346V155.805L90.2947 181.576L45.6914 207.346Z" stroke="#8EDF98"/>
<path d="M1 181.576L45.6934 155.805V207.346L1 181.576Z" stroke="#8EDF98"/>
<path d="M45.6914 104.173V52.5415L90.3848 78.4024L45.6914 104.173Z" stroke="#8EDF98"/>
<path d="M45.6914 52.5417L90.2947 26.7709H90.3848V78.4025L45.6914 52.5417Z" stroke="#8EDF98"/>
<path d="M45.6914 52.5416V1L90.2947 26.7708L45.6914 52.5416Z" stroke="#8EDF98"/>
<path d="M1 78.4024V78.3123L45.6934 52.5415V104.173L1 78.4024Z" stroke="#8EDF98"/>
<path d="M1 181.576L1 129.944L45.6934 155.805L1 181.576Z" stroke="#8EDF98"/>
<path d="M45.6914 104.173L90.3848 78.4025V129.944L45.6914 104.173Z" stroke="#8EDF98"/>
<path d="M45.6914 155.715V104.173L90.3848 129.944L45.6914 155.715Z" stroke="#8EDF98"/>
<path d="M45.6914 155.805V155.715L90.3848 129.944V181.576L45.6914 155.805Z" stroke="#8EDF98"/>
<path d="M90.3867 181.576V129.944L135.08 155.805L90.3867 181.576Z" stroke="#8EDF98"/>
<path d="M90.3867 129.944L134.99 104.173H135.08V155.805L90.3867 129.944Z" stroke="#8EDF98"/>
<path d="M45.6914 155.805V155.715L90.3848 129.944V181.576L45.6914 155.805Z" stroke="#8EDF98"/>
<path d="M135.082 155.715V104.173L179.685 129.944L135.082 155.715Z" stroke="#8EDF98"/>
<path d="M135.082 155.805V155.715L179.685 129.944H179.775V181.576L135.082 155.805Z" stroke="#8EDF98"/>
<path d="M135.082 207.346L179.685 181.576H179.775V233.207L135.082 207.346Z" stroke="#8EDF98"/>
<path d="M135.082 207.346V155.805L179.685 181.576L135.082 207.346Z" stroke="#8EDF98"/>
<path d="M90.3867 181.576L135.08 155.805V207.346L90.3867 181.576Z" stroke="#8EDF98"/>
<path d="M90.3867 233.117V181.576L135.08 207.346L90.3867 233.117Z" stroke="#8EDF98"/>
<path d="M135.082 104.173V52.5415L179.775 78.4024L135.082 104.173Z" stroke="#8EDF98"/>
<path d="M135.082 52.5417L179.685 26.7709H179.775V78.4025L135.082 52.5417Z" stroke="#8EDF98"/>
<path d="M135.082 52.5416V1L179.685 26.7708L135.082 52.5416Z" stroke="#8EDF98"/>
<path d="M90.3867 26.7708L135.08 1V52.5416L90.3867 26.7708Z" stroke="#8EDF98"/>
<path d="M90.3867 78.3124V26.7709L135.08 52.5417L90.3867 78.3124Z" stroke="#8EDF98"/>
<path d="M90.3867 78.4024V78.3123L135.08 52.5415V104.173L90.3867 78.4024Z" stroke="#8EDF98"/>
<path d="M90.3867 181.576V129.944L135.08 155.805L90.3867 181.576Z" stroke="#8EDF98"/>
<path d="M90.3867 129.944L134.99 104.173H135.08V155.805L90.3867 129.944Z" stroke="#8EDF98"/>
<path d="M90.3867 129.944V78.4025L134.99 104.173L90.3867 129.944Z" stroke="#8EDF98"/>
<path d="M45.6914 104.173L90.3848 78.4025V129.944L45.6914 104.173Z" stroke="#8EDF98"/>
<path d="M45.6914 155.805V155.715L90.3848 129.944V181.576L45.6914 155.805Z" stroke="#8EDF98"/>
<path d="M135.082 104.173L179.775 78.4025V129.944H179.685L135.082 104.173Z" stroke="#8EDF98"/>
<path d="M135.082 155.715V104.173L179.685 129.944L135.082 155.715Z" stroke="#8EDF98"/>
<path d="M135.082 155.805V155.715L179.685 129.944H179.775V181.576L135.082 155.805Z" stroke="#8EDF98"/>
<path d="M179.773 181.576V129.944L224.467 155.805L179.773 181.576Z" stroke="#8EDF98"/>
<path d="M179.773 129.944L224.377 104.173H224.467V155.805L179.773 129.944Z" stroke="#8EDF98"/>
<path d="M135.082 155.805V155.715L179.685 129.944H179.775V181.576L135.082 155.805Z" stroke="#8EDF98"/>
<path d="M224.469 155.715V104.173L269.072 129.944L224.469 155.715Z" stroke="#8EDF98"/>
<path d="M282.316 140.396V119.491L300.428 129.944L282.316 140.396Z" stroke="#8EDF98"/>
<path d="M179.773 181.576L224.467 155.805V207.346H224.377L179.773 181.576Z" stroke="#8EDF98"/>
<path d="M179.773 233.117V181.576L224.377 207.346L179.773 233.117Z" stroke="#8EDF98"/>
<path d="M224.469 104.173V52.5415L269.162 78.4024L224.469 104.173Z" stroke="#8EDF98"/>
<path d="M179.773 26.7708L224.467 1V52.5416H224.377L179.773 26.7708Z" stroke="#8EDF98"/>
<path d="M179.773 78.3124V26.7709L224.377 52.5417L179.773 78.3124Z" stroke="#8EDF98"/>
<path d="M179.773 78.4024V78.3123L224.377 52.5415H224.467V104.173L179.773 78.4024Z" stroke="#8EDF98"/>
<path d="M179.773 181.576V129.944L224.467 155.805L179.773 181.576Z" stroke="#8EDF98"/>
<path d="M179.773 129.944L224.377 104.173H224.467V155.805L179.773 129.944Z" stroke="#8EDF98"/>
<path d="M179.773 129.944V78.4025L224.377 104.173L179.773 129.944Z" stroke="#8EDF98"/>
<path d="M135.082 104.173L179.775 78.4025V129.944H179.685L135.082 104.173Z" stroke="#8EDF98"/>
<path d="M135.082 155.805V155.715L179.685 129.944H179.775V181.576L135.082 155.805Z" stroke="#8EDF98"/>
</g>
</svg>
