<svg width="128" height="128" viewBox="0 0 128 128" fill="none" xmlns="http://www.w3.org/2000/svg">
<path fill-rule="evenodd" clip-rule="evenodd" d="M127.957 64C127.957 99.2996 99.3231 127.915 64 127.915C28.6773 127.915 0.0426025 99.2996 0.0426025 64C0.0426025 28.7008 28.6773 0.085144 64 0.085144C99.3231 0.085144 127.957 28.7008 127.957 64Z" fill="black"/>
<path d="M56.418 81.4806C56.4961 76.8322 57.0234 73.1603 58 70.465C58.9766 67.7697 60.9688 64.7814 63.9766 61.5001L71.6523 53.59C74.9336 49.879 76.5742 45.8947 76.5742 41.6368C76.5742 37.5353 75.5 34.3322 73.3516 32.0275C71.2031 29.6837 68.0781 28.5118 63.9766 28.5118C59.9922 28.5118 56.7891 29.5665 54.3672 31.6759C51.9453 33.7853 50.7344 36.6173 50.7344 40.172H39.8945C39.9727 33.8439 42.2188 28.7462 46.6328 24.879C51.0859 20.9728 56.8672 19.0197 63.9766 19.0197C71.3594 19.0197 77.1016 21.0118 81.2031 24.9962C85.3438 28.9415 87.4141 34.3712 87.4141 41.2853C87.4141 48.1212 84.25 54.8595 77.9219 61.5001L71.5352 67.8282C68.6836 70.9923 67.2578 75.5431 67.2578 81.4806H56.418ZM55.9492 100.055C55.9492 98.297 56.4766 96.8322 57.5312 95.6603C58.625 94.4493 60.2266 93.8439 62.3359 93.8439C64.4453 93.8439 66.0469 94.4493 67.1406 95.6603C68.2344 96.8322 68.7812 98.297 68.7812 100.055C68.7812 101.813 68.2344 103.277 67.1406 104.449C66.0469 105.582 64.4453 106.149 62.3359 106.149C60.2266 106.149 58.625 105.582 57.5312 104.449C56.4766 103.277 55.9492 101.813 55.9492 100.055Z" fill="white"/>
</svg>
