<svg width="17" height="17" viewBox="0 0 17 17" fill="none" xmlns="http://www.w3.org/2000/svg">
<g clip-path="url(#clip0)">
<path d="M16.4883 13.8656C16.6029 14.0768 16.668 14.3188 16.668 14.5762C16.668 15.4013 15.9989 16.0703 15.1738 16.0703H1.82617C1.00107 16.0703 0.332031 15.4013 0.332031 14.5762C0.332031 14.3188 0.397109 14.0768 0.51166 13.8656L7.18549 1.71328C7.43816 1.24645 7.93189 0.929688 8.5 0.929688C9.06811 0.929688 9.56184 1.24645 9.81451 1.71328L16.4883 13.8656Z" fill="#FFDB43"/>
<path d="M7.50391 12.0859H9.49609V14.0781H7.50391V12.0859Z" fill="#8690AF"/>
<path d="M7.50391 5.11328H9.49609V10.0938H7.50391V5.11328Z" fill="#8690AF"/>
<path d="M7.17188 14.0781C7.17188 14.2615 7.32056 14.4102 7.50391 14.4102H9.49609C9.67944 14.4102 9.82812 14.2615 9.82812 14.0781V12.0859C9.82812 11.9026 9.67944 11.7539 9.49609 11.7539H7.50391C7.32056 11.7539 7.17188 11.9026 7.17188 12.0859V14.0781ZM7.83594 12.418H9.16406V13.7461H7.83594V12.418Z" fill="black"/>
<path d="M7.50391 10.4258H9.49609C9.67944 10.4258 9.82812 10.2771 9.82812 10.0938V5.11328C9.82812 4.9299 9.67944 4.78125 9.49609 4.78125H7.50391C7.32056 4.78125 7.17188 4.9299 7.17188 5.11328V10.0938C7.17188 10.2771 7.32056 10.4258 7.50391 10.4258ZM7.83594 5.44531H9.16406V9.76172H7.83594V5.44531Z" fill="black"/>
<path d="M8.5 16.4023C8.68338 16.4023 8.83203 16.2537 8.83203 16.0703C8.83203 15.8869 8.68338 15.7383 8.5 15.7383C8.31662 15.7383 8.16797 15.8869 8.16797 16.0703C8.16797 16.2537 8.31662 16.4023 8.5 16.4023Z" fill="black"/>
<path d="M10.1065 1.55523C9.78685 0.964584 9.17127 0.597656 8.5 0.597656C7.82873 0.597656 7.21315 0.964584 6.89446 1.55347L0.219805 13.7073C0.076002 13.9724 0 14.2728 0 14.5762C0 15.5831 0.819221 16.4023 1.82617 16.4023H7.00586C7.18921 16.4023 7.33789 16.2537 7.33789 16.0703C7.33789 15.8869 7.18921 15.7383 7.00586 15.7383H1.82617C1.18538 15.7383 0.664062 15.217 0.664062 14.5762C0.664062 14.3831 0.712273 14.1921 0.802719 14.0255L7.47751 1.87133C7.68101 1.4953 8.07281 1.26172 8.5 1.26172C8.92719 1.26172 9.31899 1.4953 9.52345 1.87312L16.1965 14.024C16.2877 14.1921 16.3359 14.3831 16.3359 14.5762C16.3359 15.217 15.8146 15.7383 15.1738 15.7383H9.99414C9.81079 15.7383 9.66211 15.8869 9.66211 16.0703C9.66211 16.2537 9.81079 16.4023 9.99414 16.4023H15.1738C16.1808 16.4023 17 15.5831 17 14.5762C17 14.2728 16.924 13.9724 16.7794 13.7058L10.1065 1.55523Z" fill="black"/>
</g>
<defs>
<clipPath id="clip0">
<rect width="17" height="17" fill="white"/>
</clipPath>
</defs>
</svg>
