<svg width="22" height="22" viewBox="0 0 22 22" fill="none" xmlns="http://www.w3.org/2000/svg">
<path d="M11 0L20.5263 16.5H1.47372L11 0Z" fill="#FCD600"/>
<path d="M9.91 5.354H12.066L11.786 12.088H10.19L9.91 5.354ZM10.12 14.804C9.88667 14.58 9.77 14.3 9.77 13.964C9.77 13.628 9.88667 13.3527 10.12 13.138C10.3533 12.914 10.638 12.802 10.974 12.802C11.31 12.802 11.5947 12.914 11.828 13.138C12.0707 13.362 12.192 13.6373 12.192 13.964C12.192 14.3 12.0707 14.58 11.828 14.804C11.5947 15.028 11.31 15.14 10.974 15.14C10.638 15.14 10.3533 15.028 10.12 14.804Z" fill="#0D0D0D"/>
</svg>
