<svg width="18" height="17" viewBox="0 0 18 17" fill="none" xmlns="http://www.w3.org/2000/svg">
<path d="M9.00092 10.2507C9.36081 10.2507 9.66351 9.98083 9.70472 9.6233L9.9003 7.92631C9.96225 7.38879 9.54199 6.91732 9.00092 6.91732C8.45985 6.91732 8.03959 7.38879 8.10154 7.92631L8.29712 9.6233C8.33832 9.98083 8.64103 10.2507 9.00092 10.2507ZM9.00092 11.3757C8.81142 11.3757 8.62608 11.4318 8.4685 11.5372C8.31092 11.6425 8.18808 11.7922 8.1155 11.9672C8.043 12.1423 8.024 12.3351 8.061 12.521C8.098 12.7068 8.18925 12.8776 8.32325 13.0117C8.45733 13.1457 8.62808 13.2369 8.81392 13.2739C8.99983 13.3109 9.19258 13.2919 9.36767 13.2194C9.54275 13.1468 9.69242 13.024 9.79775 12.8664C9.90308 12.7088 9.95925 12.5235 9.95925 12.334C9.95925 12.0798 9.85825 11.8361 9.67858 11.6563C9.49883 11.4767 9.25508 11.3757 9.00092 11.3757ZM9.86694 1.33399C9.48204 0.667319 8.51979 0.667318 8.13489 1.33399L0.244443 15.0007C-0.140457 15.6673 0.340668 16.5007 1.11047 16.5007H16.8914C17.6612 16.5007 18.1423 15.6673 17.7574 15.0007L9.86694 1.33399ZM8.74111 3.61732C8.85658 3.41732 9.14525 3.41732 9.26072 3.61732L15.4769 14.384C15.5923 14.584 15.448 14.834 15.2171 14.834H2.78478C2.55384 14.834 2.4095 14.584 2.52497 14.384L8.74111 3.61732Z" fill="white" fill-opacity="0.6"/>
</svg>
