<svg width="18" height="18" viewBox="0 0 18 18" fill="none" xmlns="http://www.w3.org/2000/svg">
<path d="M9.5002 1.19922V0.699219H8.5002V1.19922H9.5002ZM8.5002 5.39922V5.89922H9.5002V5.39922H8.5002ZM9.5002 12.5992V12.0992H8.5002V12.5992H9.5002ZM8.5002 16.7992V17.2992H9.5002V16.7992H8.5002ZM5.4002 9.4938H5.9002V8.4938H5.4002V9.4938ZM1.2002 8.4938H0.700195V9.4938H1.2002V8.4938ZM16.7996 9.49922L17.2996 9.49986L17.3008 8.49986L16.8008 8.49922L16.7996 9.49922ZM12.6008 8.4938L12.1008 8.49315L12.0996 9.49315L12.5996 9.4938L12.6008 8.4938ZM8.5002 1.19922V5.39922H9.5002V1.19922H8.5002ZM8.5002 12.5992V16.7992H9.5002V12.5992H8.5002ZM5.4002 8.4938H1.2002V9.4938H5.4002V8.4938ZM16.8008 8.49922L12.6008 8.4938L12.5996 9.4938L16.7996 9.49922L16.8008 8.49922ZM2.64664 3.35277L6.24664 6.95277L6.95375 6.24567L3.35375 2.64567L2.64664 3.35277ZM14.6466 2.64567L11.0466 6.24567L11.7537 6.95277L15.3537 3.35277L14.6466 2.64567ZM3.35375 15.3528L6.95375 11.7528L6.24664 11.0457L2.64664 14.6457L3.35375 15.3528ZM11.0466 11.7528L14.6466 15.3528L15.3537 14.6457L11.7537 11.0457L11.0466 11.7528Z" fill="white"/>
</svg>
