<svg width="15" height="18" viewBox="0 0 15 18" fill="none" xmlns="http://www.w3.org/2000/svg">
<path d="M8.36426 1C8.36426 0.447715 7.91654 -2.4141e-08 7.36426 0C6.81197 2.4141e-08 6.36426 0.447715 6.36426 1L7.36426 1L8.36426 1ZM6.65715 17.7071C7.04768 18.0976 7.68084 18.0976 8.07137 17.7071L14.4353 11.3431C14.8259 10.9526 14.8259 10.3195 14.4353 9.92893C14.0448 9.53841 13.4116 9.53841 13.0211 9.92893L7.36426 15.5858L1.7074 9.92893C1.31688 9.53841 0.683715 9.53841 0.29319 9.92893C-0.097334 10.3195 -0.0973339 10.9526 0.29319 11.3431L6.65715 17.7071ZM7.36426 1L6.36426 1L6.36426 17L7.36426 17L8.36426 17L8.36426 1L7.36426 1Z" fill="white"/>
</svg>
