<svg width="167" height="125" viewBox="0 0 167 125" fill="none" xmlns="http://www.w3.org/2000/svg">
<g filter="url(#filter0_d_4856_8998)">
<path d="M54.2967 118C43.5091 118 35.0854 113.529 29.0254 104.586C23.0085 95.5989 20 83.3924 20 67.9665C20 52.6747 23.03 40.5352 29.0899 31.548C35.1928 22.516 43.5951 18 54.2967 18C64.9982 18 73.3575 22.4936 79.3745 31.4809C85.4344 40.4234 88.4644 52.5629 88.4644 67.8994C88.4644 83.3253 85.4559 95.5319 79.4389 104.519C73.422 113.506 65.0412 118 54.2967 118ZM37.5996 96.8732C41.5536 103.938 47.1193 107.47 54.2967 107.47C61.474 107.47 67.0182 103.96 70.9292 96.9403C74.8403 89.8757 76.7958 80.2178 76.7958 67.9665C76.7958 55.894 74.8188 46.3255 70.8648 39.2609C66.9108 32.1516 61.3881 28.5969 54.2967 28.5969C47.2052 28.5969 41.6611 32.1516 37.6641 39.2609C33.6671 46.3702 31.6686 55.9164 31.6686 67.8994C31.6686 80.1507 33.6456 89.8086 37.5996 96.8732Z" fill="#4AA956"/>
<path d="M132.527 24.9752C136.094 29.357 137.877 35.192 137.877 42.4802C137.877 49.7684 136.094 55.6034 132.527 59.9852C128.959 64.3671 124.232 66.558 118.344 66.558C112.456 66.558 107.728 64.3671 104.161 59.9852C100.594 55.6034 98.8101 49.7684 98.8101 42.4802C98.8101 35.192 100.594 29.357 104.161 24.9752C107.728 20.5933 112.456 18.4024 118.344 18.4024C124.232 18.4024 128.959 20.5933 132.527 24.9752ZM111.575 54.1502C113.251 56.9671 115.507 58.3756 118.344 58.3756C121.18 58.3756 123.415 56.9671 125.048 54.1502C126.724 51.2886 127.563 47.3986 127.563 42.4802C127.563 37.5618 126.724 33.6942 125.048 30.8773C123.415 28.0156 121.18 26.5848 118.344 26.5848C115.507 26.5848 113.251 28.0156 111.575 30.8773C109.941 33.6942 109.125 37.5618 109.125 42.4802C109.125 47.3986 109.941 51.2886 111.575 54.1502ZM115.507 116.39H104.29L140.198 65.3508L172.367 19.6097H183.456L148.514 69.3749L115.507 116.39ZM183.649 75.8135C187.216 80.1954 189 86.0304 189 93.3186C189 100.607 187.216 106.442 183.649 110.824C180.082 115.205 175.354 117.396 169.466 117.396C163.578 117.396 158.851 115.205 155.284 110.824C151.716 106.442 149.933 100.607 149.933 93.3186C149.933 86.0304 151.716 80.1954 155.284 75.8135C158.851 71.4317 163.578 69.2408 169.466 69.2408C175.354 69.2408 180.082 71.4317 183.649 75.8135ZM162.697 104.989C164.373 107.806 166.63 109.214 169.466 109.214C172.303 109.214 174.538 107.806 176.171 104.989C177.847 102.127 178.685 98.237 178.685 93.3186C178.685 88.4002 177.847 84.5325 176.171 81.7156C174.538 78.854 172.303 77.4232 169.466 77.4232C166.63 77.4232 164.373 78.854 162.697 81.7156C161.064 84.5325 160.248 88.4002 160.248 93.3186C160.248 98.237 161.064 102.127 162.697 104.989Z" fill="#4AA956"/>
</g>
<defs>
<filter id="filter0_d_4856_8998" x="0" y="0" width="209" height="140" filterUnits="userSpaceOnUse" color-interpolation-filters="sRGB">
<feFlood flood-opacity="0" result="BackgroundImageFix"/>
<feColorMatrix in="SourceAlpha" type="matrix" values="0 0 0 0 0 0 0 0 0 0 0 0 0 0 0 0 0 0 127 0" result="hardAlpha"/>
<feOffset dy="2"/>
<feGaussianBlur stdDeviation="10"/>
<feComposite in2="hardAlpha" operator="out"/>
<feColorMatrix type="matrix" values="0 0 0 0 0.164706 0 0 0 0 0.772549 0 0 0 0 0.454902 0 0 0 0.25 0"/>
<feBlend mode="normal" in2="BackgroundImageFix" result="effect1_dropShadow_4856_8998"/>
<feBlend mode="normal" in="SourceGraphic" in2="effect1_dropShadow_4856_8998" result="shape"/>
</filter>
</defs>
</svg>
