<svg width="110" height="120" viewBox="0 0 110 120" fill="none" xmlns="http://www.w3.org/2000/svg">
<g filter="url(#filter0_d_4856_9004)">
<path d="M46.585 98C38.223 98 31.6934 94.423 26.996 87.2689C22.332 80.0791 20 70.3139 20 57.9732C20 45.7398 22.3487 36.0282 27.046 28.8384C31.7767 21.6128 38.2897 18 46.585 18C54.8803 18 61.36 21.5949 66.024 28.7847C70.7213 35.9387 73.07 45.6503 73.07 57.9195C73.07 70.2602 70.738 80.0255 66.074 87.2153C61.4099 94.4051 54.9136 98 46.585 98ZM33.6423 81.0986C36.7072 86.7503 41.0215 89.5761 46.585 89.5761C52.1485 89.5761 56.4461 86.7682 59.4777 81.1522C62.5093 75.5006 64.0251 67.7742 64.0251 57.9732C64.0251 48.3152 62.4927 40.6604 59.4277 35.0087C56.3628 29.3213 52.0819 26.4775 46.585 26.4775C41.0881 26.4775 36.7905 29.3213 33.6923 35.0087C30.594 40.6962 29.0449 48.3331 29.0449 57.9195C29.0449 67.7205 30.5774 75.4469 33.6423 81.0986Z" fill="#00e28e"/>
<path d="M107.225 23.5801C109.99 27.0856 111.372 31.7536 111.372 37.5842C111.372 43.4147 109.99 48.0827 107.225 51.5882C104.46 55.0937 100.795 56.8464 96.2309 56.8464C91.6668 56.8464 88.0023 55.0937 85.2371 51.5882C82.472 48.0827 81.0895 43.4147 81.0895 37.5842C81.0895 31.7536 82.472 27.0856 85.2371 23.5801C88.0023 20.0747 91.6668 18.3219 96.2309 18.3219C100.795 18.3219 104.46 20.0747 107.225 23.5801ZM90.9839 46.9202C92.2832 49.1737 94.0322 50.3005 96.2309 50.3005C98.4297 50.3005 100.162 49.1737 101.428 46.9202C102.727 44.6309 103.377 41.5189 103.377 37.5842C103.377 33.6495 102.727 30.5553 101.428 28.3018C100.162 26.0125 98.4297 24.8679 96.2309 24.8679C94.0322 24.8679 92.2832 26.0125 90.9839 28.3018C89.7179 30.5553 89.085 33.6495 89.085 37.5842C89.085 41.5189 89.7179 44.6309 90.9839 46.9202ZM94.0322 96.7123H85.3371L113.171 55.8806L138.107 19.2877H146.702L119.618 59.0999L94.0322 96.7123ZM146.852 64.2508C149.617 67.7563 151 72.4243 151 78.2549C151 84.0854 149.617 88.7534 146.852 92.2589C144.087 95.7644 140.423 97.5171 135.859 97.5171C131.294 97.5171 127.63 95.7644 124.865 92.2589C122.1 88.7534 120.717 84.0854 120.717 78.2549C120.717 72.4243 122.1 67.7563 124.865 64.2508C127.63 60.7454 131.294 58.9926 135.859 58.9926C140.423 58.9926 144.087 60.7454 146.852 64.2508ZM130.612 87.5909C131.911 89.8444 133.66 90.9712 135.859 90.9712C138.057 90.9712 139.79 89.8444 141.056 87.5909C142.355 85.3016 143.005 82.1896 143.005 78.2549C143.005 74.3201 142.355 71.226 141.056 68.9725C139.79 66.6832 138.057 65.5386 135.859 65.5386C133.66 65.5386 131.911 66.6832 130.612 68.9725C129.346 71.226 128.713 74.3201 128.713 78.2549C128.713 82.1896 129.346 85.3016 130.612 87.5909Z" fill="#00e28e"/>
</g>
<defs>
<filter id="filter0_d_4856_9004" x="0" y="0" width="171" height="120" filterUnits="userSpaceOnUse" color-interpolation-filters="sRGB">
<feFlood flood-opacity="0" result="BackgroundImageFix"/>
<feColorMatrix in="SourceAlpha" type="matrix" values="0 0 0 0 0 0 0 0 0 0 0 0 0 0 0 0 0 0 127 0" result="hardAlpha"/>
<feOffset dy="2"/>
<feGaussianBlur stdDeviation="10"/>
<feComposite in2="hardAlpha" operator="out"/>
<feColorMatrix type="matrix" values="0 0 0 0 0.164706 0 0 0 0 0.772549 0 0 0 0 0.454902 0 0 0 0.25 0"/>
<feBlend mode="normal" in2="BackgroundImageFix" result="effect1_dropShadow_4856_9004"/>
<feBlend mode="normal" in="SourceGraphic" in2="effect1_dropShadow_4856_9004" result="shape"/>
</filter>
</defs>
</svg>
