<svg width="36" height="36" viewBox="0 0 36 36" fill="none" xmlns="http://www.w3.org/2000/svg">
<circle cx="18" cy="18" r="18" fill="#FCFCFC"/>
<path d="M28 13.022V11.7033H8V13.022H9.31868V14.7802H8V24.2967H10.9008V21.6696C10.9008 20.112 12.1653 18.8493 13.7252 18.8493C15.2851 18.8493 16.5497 20.112 16.5497 21.6696L16.5495 24.2967H19.4504V21.6696C19.4504 20.112 20.7149 18.8493 22.2748 18.8493C23.8347 18.8493 25.0993 20.112 25.0993 21.6696V24.2967H28V14.7802H26.6813V13.022H28ZM17.3407 14.7802H10.6374V13.022H17.3407V14.7802ZM25.3626 14.7802H18.6593V13.022H25.3626V14.7802Z" fill="#4AA956"/>
</svg>
