<svg width="36" height="36" viewBox="0 0 36 36" fill="none" xmlns="http://www.w3.org/2000/svg">
<g clip-path="url(#clip0)">
<path d="M36 18.0198C36 27.9604 27.9604 36.0396 17.9802 36.0396C8.0396 36 0 27.9604 0 18.0198C0 8.0396 8.0396 0 18.0198 0C27.9604 0 36 8.0396 36 18.0198Z" fill="white"/>
<path d="M18.3369 29.7426C17.1488 29.7426 16.0003 29.5446 14.8914 29.1881C10.5349 27.7624 8.67354 24.0396 8.59433 23.8812C8.43591 23.4852 4.63393 15.1683 10.8914 9.34654C13.5052 6.9307 16.9904 5.9802 20.9112 6.69307C23.7626 7.20792 25.9013 8.39604 25.9805 8.43565C26.6537 8.83169 26.8914 9.66337 26.4953 10.3366C26.0993 11.0099 25.2676 11.2475 24.5943 10.8515C24.5943 10.8515 22.7329 9.82179 20.3567 9.42575C17.3072 8.91089 14.7725 9.58416 12.7923 11.4059C8.00027 15.8416 11.0894 22.6139 11.129 22.6931C11.129 22.6931 12.5943 25.5446 15.8022 26.5743C18.3369 27.4059 21.3072 26.9307 24.6339 25.1485C25.3072 24.7921 26.1785 25.0693 26.5349 25.7426C26.8914 26.4158 26.6141 27.2871 25.9409 27.6436C23.2478 29.0297 20.7131 29.7426 18.3369 29.7426Z" fill="#00e28e"/>
<path d="M18.6139 24.2772C17.5446 24.2772 16.4357 24.0396 15.4456 23.4852C14.2178 22.7723 12.7129 21.2673 12.7129 18.0594C12.7129 14.8911 14.1386 13.3861 15.2871 12.6733C17.505 11.3267 20.5149 11.802 22.4951 12.8317C23.0495 13.1089 23.2475 13.7822 22.9703 14.3366C22.6931 14.8911 22.0198 15.0891 21.4654 14.8119C20.0396 14.0594 17.8218 13.7426 16.4357 14.5743C15.4456 15.1683 14.9307 16.3564 14.9307 18.0594C14.9307 19.7624 15.4852 20.9109 16.5149 21.5446C17.9802 22.3762 20.1188 22.0594 21.3862 21.3069C21.901 20.9901 22.6139 21.1881 22.9307 21.703C23.2475 22.2178 23.0495 22.9307 22.5347 23.2475C21.5446 23.8416 20.0792 24.2772 18.6139 24.2772Z" fill="#00e28e"/>
</g>
<defs>
<clipPath id="clip0">
<rect width="36" height="36" fill="white"/>
</clipPath>
</defs>
</svg>
