<svg width="36" height="36" viewBox="0 0 36 36" fill="none" xmlns="http://www.w3.org/2000/svg">
<circle cx="18" cy="18" r="18" fill="#FCFCFC"/>
<path d="M25.9088 15.8014C25.8533 15.7156 25.7762 15.6449 25.6847 15.596C25.5931 15.547 25.4902 15.5214 25.3856 15.5216H18.6151V6.59179C18.6143 6.45849 18.5672 6.32931 18.4815 6.22494C18.3958 6.12058 18.2763 6.04707 18.1422 6.01619C18.0081 5.98531 17.8672 5.99886 17.742 6.05465C17.6169 6.11044 17.5147 6.20525 17.4518 6.3239L10.0658 20.6116C10.0186 20.7023 9.99615 20.8031 10.0005 20.9044C10.0049 21.0058 10.036 21.1045 10.0909 21.1909C10.1458 21.2774 10.2226 21.3489 10.3141 21.3986C10.4056 21.4483 10.5087 21.4745 10.6136 21.4748H17.3841V30.4047C17.3846 30.5384 17.4316 30.6682 17.5175 30.7729C17.6035 30.8777 17.7235 30.9514 17.8581 30.9821C17.9043 30.9939 17.9518 30.9999 17.9996 31C18.1133 30.9997 18.2246 30.9689 18.3213 30.9111C18.418 30.8533 18.4963 30.7708 18.5474 30.6726L25.9334 16.3848C25.981 16.2936 26.0038 16.1921 25.9995 16.09C25.9952 15.9879 25.9639 15.8886 25.9088 15.8014Z" fill="#00e28e"/>
</svg>
