<svg width="24" height="24" viewBox="0 0 24 24" fill="none" xmlns="http://www.w3.org/2000/svg">
<path fill-rule="evenodd" clip-rule="evenodd" d="M2.5918 7.9222C2.5918 4.97849 4.97806 2.59222 7.92177 2.59222C10.864 2.59567 13.2483 4.97994 13.2516 7.9222C13.2516 10.8657 10.8653 13.252 7.92159 13.252C4.97806 13.252 2.5918 10.8657 2.5918 7.9222ZM3.14802 7.92227C3.14802 10.5586 5.28526 12.6957 7.92164 12.6957C10.5567 12.6926 12.6922 10.5574 12.6951 7.92227C12.6951 5.2859 10.5578 3.14866 7.92145 3.14866C5.28526 3.14866 3.14802 5.2859 3.14802 7.92227Z" fill="#FCD600"/>
<path fill-rule="evenodd" clip-rule="evenodd" d="M8.67382 5.33059H8.65154V4.8032C8.65154 4.64963 8.52694 4.52502 8.37336 4.52502C8.21979 4.52502 8.09518 4.64963 8.09518 4.8032V5.33059H7.54806V4.8032C7.54806 4.64963 7.42346 4.52502 7.26988 4.52502C7.1163 4.52502 6.9917 4.64963 6.9917 4.8032V5.33059H6.40709C6.25333 5.33059 6.12891 5.45519 6.12891 5.60877V10.2719C6.12891 10.4255 6.25333 10.5501 6.40709 10.5501H6.99152V11.0411C6.99152 11.1946 7.11612 11.3193 7.2697 11.3193C7.42346 11.3193 7.54788 11.1946 7.54788 11.0411V10.5501H8.095V11.0411C8.095 11.1946 8.2196 11.3193 8.37318 11.3193C8.52676 11.3193 8.65136 11.1946 8.65136 11.0411V10.5501H8.67364C9.2492 10.5494 9.71555 10.083 9.71609 9.50764V8.70461C9.71627 8.4143 9.59493 8.1372 9.38159 7.94034C9.59493 7.74348 9.71627 7.46638 9.71609 7.17607V6.37286C9.71555 5.79748 9.2492 5.33131 8.67382 5.33059ZM9.15984 8.70461V9.50764C9.15948 9.77586 8.94197 9.99337 8.67375 9.99373H6.6852V8.21852H8.67375C8.94197 8.21889 9.15948 8.43621 9.15984 8.70461ZM6.6852 5.88698V7.66219H8.67375C8.94197 7.66183 9.15948 7.44432 9.15984 7.1761V6.37289C9.15948 6.10467 8.94197 5.88734 8.67375 5.88698H6.6852Z" fill="#FCD600"/>
<path d="M16.0334 16.2785C16.6403 16.2774 17.1351 16.7644 17.1434 17.3713C17.1519 17.978 16.6707 18.4786 16.0642 18.4943C16.0604 18.4943 16.0568 18.4938 16.053 18.4938H16.0508C16.0461 18.4938 16.0416 18.4941 16.0369 18.4945C15.4303 18.4918 14.9388 18.0017 14.9341 17.3952C14.9328 17.2425 14.8088 17.1192 14.6559 17.1192H14.6538C14.5 17.1204 14.3765 17.2459 14.3777 17.3995C14.3841 18.2116 14.9752 18.9004 15.7768 19.0298L15.7815 19.5998C15.7826 19.7526 15.9068 19.8758 16.0597 19.8758H16.0619C16.2154 19.8745 16.3391 19.749 16.3379 19.5954L16.3332 19.0251C17.1822 18.8739 17.7751 18.0995 17.6994 17.2405C17.6239 16.3815 16.9047 15.7225 16.0423 15.7221H16.0202C15.4082 15.7245 14.9102 15.2302 14.908 14.6183C14.9057 14.0063 15.3997 13.5083 16.0119 13.5059H16.0206C16.6289 13.5066 17.1233 13.9971 17.1288 14.6054C17.1298 14.7581 17.2541 14.8814 17.4069 14.8814H17.4091C17.5629 14.8801 17.6864 14.7546 17.6851 14.6009C17.6777 13.7895 17.0869 13.1013 16.2861 12.9709L16.2817 12.4638C16.2806 12.311 16.1564 12.1878 16.0035 12.1878H16.0014C15.8478 12.1891 15.7241 12.3146 15.7254 12.4682L15.7293 12.9751C14.8774 13.1263 14.2834 13.9049 14.3625 14.7666C14.4419 15.6283 15.1683 16.2853 16.0334 16.2785V16.2785Z" fill="#FCD600"/>
<path fill-rule="evenodd" clip-rule="evenodd" d="M21.2293 10.8342C21.2381 10.8436 21.2465 10.8538 21.2539 10.8643V10.8644C24.0916 13.725 24.0916 18.3387 21.2539 21.1993C21.2394 21.2212 21.2207 21.2399 21.199 21.2544C18.3384 24.0919 13.7247 24.0919 10.8641 21.2544C10.8424 21.2397 10.8236 21.221 10.8093 21.1991C9.44498 19.8254 8.67999 17.9678 8.68108 16.0318C8.68126 15.7636 8.69593 15.4953 8.7249 15.2288C6.5221 15.4713 4.32745 14.7052 2.75417 13.1444C2.74349 13.1368 2.73352 13.1286 2.72411 13.1198C2.71523 13.1103 2.70708 13.1004 2.69948 13.0897C-0.138107 10.2291 -0.138107 5.61542 2.69948 2.75484C2.71415 2.73292 2.7328 2.71409 2.75471 2.6996C5.6153 -0.137985 10.229 -0.137985 13.0896 2.6996C13.1113 2.71409 13.13 2.73292 13.1445 2.75484C14.7051 4.32811 15.471 6.5224 15.2286 8.72503C15.4952 8.69605 15.7634 8.68138 16.0317 8.6812C17.9679 8.68011 19.8257 9.44529 21.1994 10.8097C21.2099 10.8172 21.2198 10.8253 21.2293 10.8342ZM13.0897 13.1444C12.6395 13.5903 12.1337 13.9764 11.5849 14.2933C10.764 16.3962 11.5295 18.7866 13.4192 20.0214C15.3088 21.2562 17.8054 20.9974 19.4015 19.4011C20.9978 17.8048 21.2564 15.3083 20.0216 13.4186C18.7866 11.5291 16.3964 10.7637 14.2936 11.5847C13.9766 12.1335 13.5903 12.6393 13.1444 13.0897C13.1368 13.1004 13.1287 13.1103 13.1198 13.1198C13.1104 13.1286 13.1004 13.137 13.0897 13.1444ZM12.9165 12.5232L12.6001 12.2068C12.5302 12.1349 12.4269 12.1063 12.3298 12.1318C12.233 12.1573 12.1573 12.233 12.1317 12.3301C12.1062 12.427 12.1348 12.5302 12.2067 12.6002L12.5231 12.9165C11.3412 14.0093 9.80866 14.6454 8.20025 14.7102V14.2596C8.20025 14.1061 8.07565 13.9815 7.92207 13.9815C7.76849 13.9815 7.64389 14.1061 7.64389 14.2596V14.7102C6.03548 14.6454 4.50277 14.0093 3.32105 12.9165L3.63744 12.6002C3.74357 12.4911 3.7423 12.3171 3.63472 12.2095C3.52715 12.1019 3.3531 12.1007 3.24408 12.2068L2.92768 12.5232C1.8347 11.3413 1.19883 9.80875 1.134 8.20034H1.58441C1.73817 8.20034 1.86259 8.07574 1.86259 7.92216C1.86259 7.7684 1.73817 7.64398 1.58441 7.64398H1.134C1.19883 6.03539 1.8347 4.50268 2.92768 3.32096L3.24408 3.63735C3.31398 3.70907 3.41721 3.73787 3.51429 3.71233C3.61118 3.68679 3.68688 3.61109 3.71242 3.51402C3.73795 3.41713 3.70934 3.3139 3.63744 3.24399L3.32105 2.92759C4.50295 1.83461 6.03548 1.19875 7.64389 1.13391V1.58432C7.64389 1.73808 7.76849 1.8625 7.92207 1.8625C8.07565 1.8625 8.20025 1.73808 8.20025 1.58432V1.13409C9.80866 1.19893 11.3412 1.83479 12.5231 2.92778L12.2067 3.24417C12.1348 3.31408 12.1062 3.41731 12.1317 3.5142C12.1573 3.61127 12.233 3.68698 12.3298 3.71251C12.4269 3.73805 12.5302 3.70943 12.6001 3.63753L12.9165 3.32114C14.0094 4.50286 14.6453 6.03557 14.7101 7.64398H14.2595C14.106 7.64398 13.9814 7.7684 13.9814 7.92216C13.9814 8.07574 14.106 8.20034 14.2595 8.20034H14.7101C14.6453 9.80875 14.0094 11.3413 12.9165 12.5232ZM13.3646 20.6385C11.2773 19.4336 10.2597 16.9772 10.8832 14.6493C10.3745 14.874 9.84186 15.0399 9.29546 15.1435C9.2692 15.3453 9.25145 15.5492 9.2433 15.7536H9.69426C9.84784 15.7536 9.97244 15.8782 9.97244 16.0318C9.97244 16.1856 9.84784 16.31 9.69426 16.31H9.24367C9.3085 17.9184 9.94455 19.4511 11.0373 20.6328L11.3537 20.3165C11.4236 20.2446 11.5269 20.2159 11.624 20.2415C11.7208 20.267 11.7965 20.3427 11.8221 20.4398C11.8476 20.5367 11.819 20.6399 11.7471 20.7098L11.4307 21.0262C12.6126 22.1192 14.1451 22.7552 15.7536 22.8201V22.3697C15.7536 22.2159 15.8782 22.0915 16.0317 22.0915C16.1855 22.0915 16.3099 22.2159 16.3099 22.3697V22.8201C17.9183 22.7552 19.451 22.1194 20.6328 21.0264L20.3164 20.71C20.2445 20.6401 20.2158 20.5369 20.2414 20.44C20.2669 20.3429 20.3426 20.2672 20.4397 20.2417C20.5366 20.2161 20.6398 20.2447 20.7097 20.3166L21.0261 20.633C22.1193 19.4513 22.7551 17.9186 22.82 16.31H22.3696C22.216 16.31 22.0914 16.1856 22.0914 16.0318C22.0914 15.8782 22.216 15.7536 22.3696 15.7536H22.82C22.7553 14.1452 22.1193 12.6127 21.0265 11.4308L20.7099 11.7472C20.64 11.8191 20.5368 11.8477 20.4399 11.8222C20.3428 11.7966 20.2671 11.7209 20.2416 11.6239C20.216 11.527 20.2448 11.4237 20.3167 11.3538L20.6329 11.0374C19.4512 9.94446 17.9185 9.3086 16.3101 9.24376V9.69435C16.3101 9.84793 16.1855 9.97253 16.0319 9.97253C15.8783 9.97253 15.7537 9.84793 15.7537 9.69435V9.24322C15.5493 9.25155 15.3453 9.2693 15.1436 9.29556C15.0398 9.84196 14.8739 10.3746 14.6492 10.8833C16.9771 10.2598 19.4335 11.2776 20.6384 13.3647C21.8433 15.4517 21.4961 18.0879 19.7921 19.7922C18.0878 21.4962 15.4516 21.8434 13.3646 20.6385Z" fill="#FCD600"/>
</svg>
