<svg width="106" height="111" viewBox="0 0 106 111" fill="none" xmlns="http://www.w3.org/2000/svg">
<mask id="mask0" mask-type="alpha" maskUnits="userSpaceOnUse" x="0" y="0" width="106" height="111">
<rect width="106" height="111" fill="#C6C9D0"/>
</mask>
<g mask="url(#mask0)">
<path d="M83.6752 62.4429L73.4606 57.903C72.739 57.5824 72.273 56.865 72.273 56.0756V53.2706C75.7043 50.5366 77.9098 46.3265 77.9098 41.6085V37.66C79.0402 37.0354 79.7885 35.8284 79.7885 34.4765V34.0933C79.7885 25.8723 73.1001 19.184 64.8792 19.184H61.1217C52.9007 19.184 46.2124 25.8723 46.2124 34.0933V37.5702C46.2124 38.7585 46.7238 39.835 47.6151 40.5238C47.7663 40.6406 47.9254 40.7432 48.0911 40.832V41.6083C48.0911 46.3263 50.2964 50.5364 53.7274 53.2701V56.0754C53.7274 56.8647 53.2612 57.5822 52.5398 57.9028L42.3252 62.4426C38.98 63.9293 36.8184 67.2555 36.8184 70.9162V94.2141C36.8184 95.1849 37.6054 95.9719 38.5762 95.9719C39.547 95.9719 40.334 95.1849 40.334 94.2141V70.9165C40.334 70.7128 40.3485 70.5115 40.3696 70.3118L45.0763 75.0185C45.8088 75.7512 46.2124 76.725 46.2124 77.7612V94.2143C46.2124 95.1851 46.9994 95.9721 47.9702 95.9721C48.941 95.9721 49.728 95.1851 49.728 94.2143V77.7612C49.728 75.7861 48.959 73.9294 47.5624 72.5327L41.9512 66.9213C42.4567 66.3968 43.0633 65.962 43.7533 65.6552L53.7956 61.192L61.2429 68.6393V94.2141C61.2429 95.1849 62.0299 95.9719 63.0007 95.9719C63.9715 95.9719 64.7585 95.1849 64.7585 94.2141V68.6395L72.2058 61.1922L82.2478 65.6552C82.9378 65.962 83.5444 66.3968 84.0499 66.9216L78.4387 72.5327C77.0421 73.9294 76.2731 75.7861 76.2731 77.7612V94.2143C76.2731 95.1851 77.0601 95.9721 78.0309 95.9721C79.0017 95.9721 79.7887 95.1851 79.7887 94.2143V77.7612C79.7887 76.7252 80.1921 75.7512 80.9248 75.0185L85.6313 70.312C85.6524 70.5117 85.6669 70.7126 85.6669 70.9162V94.2141C85.6669 95.1849 86.4539 95.9719 87.4247 95.9719C88.3955 95.9719 89.1825 95.1849 89.1825 94.2141V70.9165C89.1818 67.2558 87.0204 63.9295 83.6752 62.4429ZM63 65.4255L56.4653 58.8907C56.9622 58.0547 57.2428 57.0874 57.2428 56.0756V55.3603C59.0154 56.1051 60.9604 56.5179 63.0002 56.5179C65.04 56.5179 66.9848 56.1054 68.7572 55.3605V56.0756C68.7572 57.0876 69.0377 58.0547 69.5348 58.8909L63 65.4255ZM63.0002 53.002C56.7178 53.0022 51.6065 47.891 51.6065 41.6085V40.818C52.7034 40.3832 53.774 39.6913 54.7989 38.7456C55.5121 38.0873 55.5569 36.9752 54.8983 36.2617C54.24 35.5485 53.1281 35.5038 52.4144 36.1621C51.5353 36.9738 50.6568 37.4981 49.8042 37.7207C49.7835 37.7261 49.7683 37.7284 49.7575 37.7294C49.7449 37.7048 49.7278 37.6532 49.7278 37.5705V34.0935C49.7278 27.8111 54.839 22.6998 61.1214 22.6998H64.879C71.1616 22.6998 76.2727 27.8111 76.2727 34.0935V34.4767C76.2727 34.5337 76.2384 34.5831 76.1934 34.592C65.6674 36.6709 60.3879 32.7529 58.6066 30.9716C57.9201 30.2852 56.8071 30.2852 56.1208 30.9716C55.4343 31.6581 55.4343 32.7712 56.1208 33.4574C61.5794 38.916 69.5447 39.0145 74.3939 38.4318V41.6083C74.3939 47.8907 69.2826 53.002 63.0002 53.002Z" fill="#4AA956"/>
<path d="M34.6974 52.8818V49.1236C34.6974 44.5378 32.3143 40.5009 28.7234 38.1778C28.9451 37.4664 29.0609 36.7213 29.0609 35.972C29.0609 31.8949 25.744 28.578 21.6668 28.578C17.5896 28.578 14.2728 31.8951 14.2728 35.972C14.2728 36.7307 14.3876 37.4685 14.6098 38.1782C11.0192 40.5011 8.63626 44.538 8.63626 49.1236V52.8811C8.63626 57.3218 10.8706 61.2485 14.2725 63.6021V67.4677C14.2725 68.2301 13.849 68.9154 13.1672 69.2564L7.08727 72.2963C4.5661 73.5572 3 76.0913 3 78.9101V94.2146C3 95.1854 3.78703 95.9724 4.75782 95.9724C5.7286 95.9724 6.51563 95.1854 6.51563 94.2146V79.6704L9.37923 82.534C10.1117 83.2667 10.5152 84.2405 10.5152 85.2767V94.2146C10.5152 95.1854 11.3023 95.9724 12.2731 95.9724C13.2438 95.9724 14.0309 95.1854 14.0309 94.2146V85.2767C14.0309 83.3016 13.2617 81.4449 11.8653 80.0482L7.8797 76.0627C7.86048 76.0434 7.83985 76.0268 7.82017 76.0088C8.07024 75.788 8.35079 75.5958 8.6597 75.4411L14.7396 72.4013C15.0511 72.2454 15.341 72.0614 15.6113 71.857L19.909 76.155V94.2148C19.909 95.1856 20.696 95.9726 21.6668 95.9726C22.6376 95.9726 23.4246 95.1856 23.4246 94.2148V76.1548L27.7226 71.8568C27.9931 72.0614 28.2828 72.2454 28.5943 72.401L30.2708 73.2394C30.5232 73.3657 30.7913 73.4255 31.0557 73.4255C31.7004 73.4255 32.3213 73.0692 32.6293 72.4535C33.0636 71.5852 32.7115 70.5293 31.8432 70.0952L30.1667 69.2569C29.4847 68.9159 29.0611 68.2305 29.0611 67.4684V63.6028C32.4631 61.2492 34.6974 57.3222 34.6974 52.8818ZM21.6668 32.0936C23.8055 32.0936 25.5453 33.8336 25.5453 35.972C25.5453 36.2076 25.5242 36.4385 25.4839 36.6646C24.2759 36.2938 22.9946 36.093 21.6668 36.093C20.341 36.093 19.0613 36.2931 17.8552 36.663C17.8146 36.4368 17.7884 36.2071 17.7884 35.972C17.7884 33.8334 19.5282 32.0936 21.6668 32.0936ZM21.6668 39.6089C26.9133 39.6089 31.1818 43.8773 31.1818 49.1238V49.7608C23.8634 52.0015 19.5019 46.4343 19.3156 46.1903C19.0097 45.7828 18.5421 45.5278 18.034 45.4917C17.5259 45.456 17.0267 45.6419 16.6664 46.0021C14.9885 47.68 13.3451 48.4893 12.1582 48.88C12.2883 43.7458 16.5021 39.6089 21.6668 39.6089ZM21.6668 72.9406L17.6049 68.8786C17.7235 68.4253 17.7884 67.9528 17.7884 67.4679V65.3222C19.0139 65.7052 20.3168 65.9116 21.6668 65.9116C23.0168 65.9116 24.3197 65.7052 25.5453 65.3222V67.4679C25.5453 67.9528 25.6102 68.4255 25.7288 68.8786L21.6668 72.9406ZM21.6668 62.396C16.4203 62.396 12.1519 58.1276 12.1519 52.8811V52.5168C13.5537 52.1948 15.6321 51.4465 17.8003 49.7027C18.5675 50.4265 19.6639 51.3143 21.06 52.0758C22.7114 52.9765 24.9922 53.8097 27.7779 53.8097C28.8366 53.8097 29.9693 53.6866 31.1668 53.404C30.8942 58.4083 26.7378 62.396 21.6668 62.396Z" fill="#4AA956"/>
<path d="M118.913 68.539L109.076 63.6201C108.394 63.2791 107.97 62.5938 107.97 61.8316V59.3404C110.273 57.296 111.728 54.3166 111.728 51.0025V49.0017C111.768 49.0017 111.808 49.0028 111.849 49.0028C112.82 49.0028 113.607 48.2158 113.607 47.245V43.4875C113.607 37.3384 108.604 32.3357 102.455 32.3357H98.6972C92.5482 32.3357 87.5454 37.3384 87.5454 43.4875V47.245C87.5454 48.2158 88.3324 49.0028 89.3032 49.0028C89.3178 49.0028 89.3599 49.0024 89.4242 48.9998V51.0025C89.4242 54.3168 90.8792 57.2962 93.1819 59.3407V61.8319C93.1819 62.5943 92.7584 63.2796 92.0764 63.6204C91.208 64.0544 90.856 65.1103 91.2903 65.9787C91.5982 66.5946 92.2191 66.9508 92.8639 66.9508C93.128 66.9508 93.3961 66.8911 93.6485 66.765C93.96 66.6091 94.2499 66.4251 94.5202 66.2208L98.8182 70.5187V94.2148C98.8182 95.1856 99.6052 95.9726 100.576 95.9726C101.547 95.9726 102.334 95.1856 102.334 94.2148V70.5183L106.632 66.2203C106.902 66.4249 107.192 66.6089 107.503 66.7645L117.022 71.5242L114.135 74.4115C112.739 75.8081 111.969 77.6648 111.969 79.6399V94.2143C111.969 95.1851 112.756 95.9721 113.727 95.9721C114.698 95.9721 115.485 95.1851 115.485 94.2143V79.6399C115.485 78.604 115.888 77.6299 116.621 76.8973L119.356 74.1623C119.439 74.4804 119.484 74.812 119.484 75.1523V94.2143C119.484 95.1851 120.271 95.9721 121.242 95.9721C122.213 95.9721 123 95.1851 123 94.2143V75.1523C123 72.3337 121.434 69.7997 118.913 68.539ZM91.0608 45.1256V43.4873H91.061C91.061 39.2767 94.4867 35.8511 98.6972 35.8511H102.455C106.665 35.8511 110.091 39.2767 110.091 43.4873V45.4399C102.45 45.0276 97.8382 42.0541 97.7935 42.0248C97.496 41.8265 97.1567 41.7295 96.8189 41.7295C96.3652 41.7295 95.9152 41.9048 95.5753 42.2444C93.8935 43.9263 92.2456 44.7358 91.0608 45.1256ZM100.576 67.3043L96.514 63.2423C96.6326 62.789 96.6975 62.3165 96.6975 61.8316V61.4573C97.906 61.9071 99.2126 62.1541 100.576 62.1541C101.939 62.1541 103.246 61.9071 104.454 61.4573V61.8316C104.454 62.3165 104.519 62.789 104.638 63.2423L100.576 67.3043ZM100.576 58.6387C96.3654 58.6387 92.9398 55.2133 92.9398 51.0025V48.1687C94.171 47.6767 95.6053 46.8946 97.065 45.651C98.911 46.6115 102.773 48.2716 108.212 48.82V51.0025C108.212 55.2131 104.787 58.6387 100.576 58.6387Z" fill="#4AA956"/>
</g>
</svg>
