<svg width="89" height="92" viewBox="0 0 89 92" fill="none" xmlns="http://www.w3.org/2000/svg">
<mask id="mask0" mask-type="alpha" maskUnits="userSpaceOnUse" x="0" y="0" width="89" height="92">
<rect width="89" height="92" fill="white"/>
</mask>
<g mask="url(#mask0)">
<path fill-rule="evenodd" clip-rule="evenodd" d="M13.0088 38.414C13.0088 23.8316 24.8298 12.0106 39.4123 12.0106C53.9875 12.0276 65.7987 23.8387 65.8148 38.414C65.8148 52.9956 53.9938 64.8166 39.4114 64.8166C24.8298 64.8166 13.0088 52.9956 13.0088 38.414ZM15.7658 38.4144C15.7658 51.4743 26.3532 62.0608 39.4132 62.0608C52.4669 62.0456 63.0453 51.4681 63.0597 38.4144C63.0597 25.3544 52.4723 14.767 39.4123 14.767C26.3532 14.767 15.7658 25.3544 15.7658 38.4144Z" fill="#C6C9D0"/>
<path fill-rule="evenodd" clip-rule="evenodd" d="M43.1372 25.5758H43.0268V22.9633C43.0268 22.2025 42.4096 21.5853 41.6488 21.5853C40.888 21.5853 40.2708 22.2025 40.2708 22.9633V25.5758H37.5604V22.9633C37.5604 22.2025 36.9432 21.5853 36.1824 21.5853C35.4216 21.5853 34.8044 22.2025 34.8044 22.9633V25.5758H31.9083C31.1466 25.5758 30.5303 26.1931 30.5303 26.9539V50.054C30.5303 50.8148 31.1466 51.432 31.9083 51.432H34.8035V53.8642C34.8035 54.625 35.4207 55.2423 36.1815 55.2423C36.9432 55.2423 37.5595 54.625 37.5595 53.8642V51.432H40.2699V53.8642C40.2699 54.625 40.8871 55.2423 41.6479 55.2423C42.4087 55.2423 43.0259 54.625 43.0259 53.8642V51.432H43.1363C45.9875 51.4285 48.2977 49.1183 48.3004 46.268V42.29C48.3013 40.8518 47.7002 39.4792 46.6433 38.5039C47.7002 37.5287 48.3013 36.1561 48.3004 34.7179V30.739C48.2977 27.8887 45.9875 25.5794 43.1372 25.5758ZM45.5476 42.29V46.268C45.5458 47.5967 44.4683 48.6742 43.1396 48.676H33.2888V39.882H43.1396C44.4683 39.8838 45.5458 40.9604 45.5476 42.29ZM33.2888 28.3321V37.1261H43.1396C44.4683 37.1243 45.5458 36.0468 45.5476 34.7181V30.7392C45.5458 29.4105 44.4683 28.3339 43.1396 28.3321H33.2888Z" fill="#C6C9D0"/>
<path d="M79.5954 79.8092C82.6018 79.8038 85.0529 82.2163 85.0941 85.2226C85.1363 88.2281 82.7525 90.7079 79.7479 90.7859C79.7291 90.7859 79.7112 90.7833 79.6923 90.7833H79.6815C79.6582 90.7833 79.6358 90.7851 79.6125 90.7868C76.6079 90.7734 74.173 88.3457 74.1496 85.3411C74.1434 84.5848 73.5288 83.9738 72.7716 83.9738H72.7608C71.9991 83.9801 71.3873 84.6018 71.3936 85.3626C71.425 89.3855 74.3533 92.7974 78.3241 93.4389L78.3475 96.2622C78.3528 97.0194 78.9683 97.6295 79.7255 97.6295H79.7363C80.4971 97.6232 81.1098 97.0015 81.1035 96.2407L81.0802 93.4155C85.2861 92.6664 88.2234 88.8301 87.8484 84.5749C87.4743 80.3197 83.9117 77.0549 79.6394 77.0531H79.5299C76.4984 77.0648 74.0312 74.6164 74.0205 71.5849C74.0088 68.5534 76.4562 66.0862 79.4887 66.0745H79.5317C82.5453 66.0781 84.9945 68.5076 85.0215 71.5212C85.0268 72.2775 85.6423 72.8885 86.3995 72.8885H86.4103C87.172 72.8822 87.7838 72.2605 87.7775 71.4988C87.7408 67.4795 84.8142 64.0703 80.847 63.4243L80.8254 60.9123C80.82 60.1551 80.2046 59.545 79.4474 59.545H79.4366C78.6758 59.5513 78.0631 60.173 78.0693 60.9338L78.0891 63.4449C73.8688 64.1941 70.9261 68.051 71.3182 72.3197C71.7112 76.5884 75.3097 79.8433 79.5954 79.8092Z" fill="#C6C9D0"/>
<path fill-rule="evenodd" clip-rule="evenodd" d="M105.335 52.8395C105.379 52.8861 105.42 52.9364 105.457 52.9884V52.9893C119.514 67.16 119.514 90.0152 105.457 104.186C105.385 104.294 105.293 104.387 105.185 104.459C91.0143 118.515 68.1591 118.515 53.9884 104.459C53.8807 104.386 53.7874 104.293 53.7166 104.185C46.9582 97.38 43.1686 88.1778 43.174 78.5871C43.1749 77.2584 43.2476 75.9297 43.3911 74.6091C32.4789 75.8104 21.6071 72.0154 13.8135 64.2837C13.7606 64.246 13.7112 64.2056 13.6646 64.1617C13.6206 64.115 13.5802 64.0657 13.5425 64.0127C-0.514183 49.8421 -0.514183 26.9869 13.5425 12.8162C13.6152 12.7076 13.7076 12.6143 13.8162 12.5425C27.9869 -1.51418 50.842 -1.51418 65.0127 12.5425C65.1204 12.6143 65.2128 12.7076 65.2846 12.8162C73.0154 20.6098 76.8095 31.4798 75.6091 42.3911C76.9297 42.2476 78.2584 42.1749 79.5871 42.174C89.1787 42.1686 98.3818 45.9591 105.187 52.7184C105.239 52.7551 105.288 52.7955 105.335 52.8395ZM65.0131 64.2836C62.7828 66.4925 60.277 68.4052 57.5586 69.9752C53.4918 80.3922 57.2841 92.2338 66.645 98.3507C76.006 104.468 88.3734 103.185 96.2801 95.2779C104.188 87.3703 105.469 75.0029 99.352 65.6419C93.2342 56.2819 81.3935 52.4905 70.9765 56.5573C69.4065 59.2757 67.4929 61.7815 65.2841 64.0127C65.2464 64.0656 65.206 64.115 65.162 64.1616C65.1154 64.2056 65.066 64.2469 65.0131 64.2836ZM64.1537 61.2063L62.5863 59.639C62.24 59.2828 61.7286 59.141 61.2477 59.2675C60.7678 59.394 60.3927 59.769 60.2662 60.2499C60.1397 60.7299 60.2815 61.2413 60.6377 61.5876L62.205 63.1549C56.3501 68.5684 48.7584 71.7192 40.7907 72.0404V69.8083C40.7907 69.0475 40.1734 68.4302 39.4126 68.4302C38.6518 68.4302 38.0346 69.0475 38.0346 69.8083V72.0404C30.0669 71.7192 22.4742 68.5684 16.6202 63.1549L18.1876 61.5876C18.7133 61.0475 18.707 60.1853 18.1741 59.6524C17.6412 59.1195 16.779 59.1132 16.2389 59.639L14.6716 61.2063C9.25722 55.3514 6.10729 47.7596 5.7861 39.7919H8.01735C8.77904 39.7919 9.39539 39.1747 9.39539 38.4139C9.39539 37.6522 8.77904 37.0359 8.01735 37.0359H5.7861C6.10729 29.0673 9.25722 21.4746 14.6716 15.6206L16.2389 17.1879C16.5852 17.5432 17.0966 17.6859 17.5775 17.5594C18.0575 17.4329 18.4325 17.0579 18.559 16.577C18.6855 16.097 18.5437 15.5856 18.1876 15.2393L16.6202 13.672C22.4751 8.2576 30.0669 5.10766 38.0346 4.78648V7.01772C38.0346 7.77941 38.6518 8.39576 39.4126 8.39576C40.1734 8.39576 40.7907 7.77941 40.7907 7.01772V4.78738C48.7584 5.10856 56.3501 8.2585 62.205 13.6729L60.6377 15.2402C60.2815 15.5865 60.1397 16.0979 60.2662 16.5779C60.3927 17.0588 60.7678 17.4338 61.2477 17.5603C61.7286 17.6868 62.24 17.545 62.5863 17.1888L64.1537 15.6215C69.568 21.4755 72.718 29.0682 73.0391 37.0359H70.807C70.0462 37.0359 69.429 37.6522 69.429 38.4139C69.429 39.1747 70.0462 39.7919 70.807 39.7919H73.0391C72.718 47.7596 69.568 55.3514 64.1537 61.2063ZM66.3743 101.408C56.0345 95.4387 50.9933 83.2705 54.0822 71.7384C51.5621 72.8517 48.9236 73.6735 46.2168 74.1867C46.0867 75.1862 45.9988 76.1964 45.9584 77.2093H48.1924C48.9532 77.2093 49.5704 77.8265 49.5704 78.5873C49.5704 79.349 48.9532 79.9653 48.1924 79.9653H45.9602C46.2814 87.933 49.4323 95.5257 54.8457 101.38L56.4131 99.8124C56.7594 99.4562 57.2708 99.3144 57.7516 99.4409C58.2316 99.5674 58.6066 99.9424 58.7331 100.423C58.8596 100.903 58.7179 101.415 58.3617 101.761L56.7944 103.328C62.6492 108.743 70.241 111.894 78.2087 112.215V109.983C78.2087 109.222 78.826 108.605 79.5868 108.605C80.3484 108.605 80.9648 109.222 80.9648 109.983V112.215C88.9325 111.894 96.5252 108.744 102.379 103.329L100.812 101.762C100.456 101.416 100.314 100.904 100.44 100.424C100.567 99.9433 100.942 99.5683 101.423 99.4418C101.903 99.3153 102.414 99.4571 102.76 99.8132L104.328 101.381C109.743 95.5266 112.893 87.9339 113.214 79.9653H110.983C110.222 79.9653 109.605 79.349 109.605 78.5873C109.605 77.8265 110.222 77.2093 110.983 77.2093H113.214C112.894 69.2416 109.743 61.6498 104.33 55.7949L102.761 57.3622C102.415 57.7184 101.904 57.8602 101.424 57.7337C100.943 57.6072 100.568 57.2322 100.441 56.7513C100.315 56.2713 100.457 55.7599 100.814 55.4136L102.38 53.8463C96.5261 48.4319 88.9334 45.282 80.9657 44.9608V47.1929C80.9657 47.9537 80.3484 48.571 79.5877 48.571C78.8269 48.571 78.2096 47.9537 78.2096 47.1929V44.9581C77.1967 44.9994 76.1865 45.0873 75.1871 45.2174C74.673 47.9241 73.8512 50.5627 72.7378 53.0828C84.2699 49.9939 96.4381 55.0359 102.407 65.3748C108.376 75.7137 106.656 88.7728 98.2145 97.2151C89.7722 105.656 76.7132 107.376 66.3743 101.408Z" fill="#C6C9D0"/>
<path fill-rule="evenodd" clip-rule="evenodd" d="M13.0088 38.414C13.0088 23.8316 24.8298 12.0106 39.4123 12.0106C53.9875 12.0276 65.7987 23.8387 65.8148 38.414C65.8148 52.9956 53.9938 64.8166 39.4114 64.8166C24.8298 64.8166 13.0088 52.9956 13.0088 38.414ZM15.7658 38.4144C15.7658 51.4743 26.3532 62.0608 39.4132 62.0608C52.4669 62.0456 63.0453 51.4681 63.0597 38.4144C63.0597 25.3544 52.4723 14.767 39.4123 14.767C26.3532 14.767 15.7658 25.3544 15.7658 38.4144Z" fill="#C6C9D0"/>
<path fill-rule="evenodd" clip-rule="evenodd" d="M43.1372 25.5758H43.0268V22.9633C43.0268 22.2025 42.4096 21.5853 41.6488 21.5853C40.888 21.5853 40.2708 22.2025 40.2708 22.9633V25.5758H37.5604V22.9633C37.5604 22.2025 36.9432 21.5853 36.1824 21.5853C35.4216 21.5853 34.8044 22.2025 34.8044 22.9633V25.5758H31.9083C31.1466 25.5758 30.5303 26.1931 30.5303 26.9539V50.054C30.5303 50.8148 31.1466 51.432 31.9083 51.432H34.8035V53.8642C34.8035 54.625 35.4207 55.2423 36.1815 55.2423C36.9432 55.2423 37.5595 54.625 37.5595 53.8642V51.432H40.2699V53.8642C40.2699 54.625 40.8871 55.2423 41.6479 55.2423C42.4087 55.2423 43.0259 54.625 43.0259 53.8642V51.432H43.1363C45.9875 51.4285 48.2977 49.1183 48.3004 46.268V42.29C48.3013 40.8518 47.7002 39.4792 46.6433 38.5039C47.7002 37.5287 48.3013 36.1561 48.3004 34.7179V30.739C48.2977 27.8887 45.9875 25.5794 43.1372 25.5758ZM45.5476 42.29V46.268C45.5458 47.5967 44.4683 48.6742 43.1396 48.676H33.2888V39.882H43.1396C44.4683 39.8838 45.5458 40.9604 45.5476 42.29ZM33.2888 28.3321V37.1261H43.1396C44.4683 37.1243 45.5458 36.0468 45.5476 34.7181V30.7392C45.5458 29.4105 44.4683 28.3339 43.1396 28.3321H33.2888Z" fill="#C6C9D0"/>
<path d="M79.5954 79.8092C82.6018 79.8038 85.0529 82.2163 85.0941 85.2226C85.1363 88.2281 82.7525 90.7079 79.7479 90.7859C79.7291 90.7859 79.7112 90.7833 79.6923 90.7833H79.6815C79.6582 90.7833 79.6358 90.7851 79.6125 90.7868C76.6079 90.7734 74.173 88.3457 74.1496 85.3411C74.1434 84.5848 73.5288 83.9738 72.7716 83.9738H72.7608C71.9991 83.9801 71.3873 84.6018 71.3936 85.3626C71.425 89.3855 74.3533 92.7974 78.3241 93.4389L78.3475 96.2622C78.3528 97.0194 78.9683 97.6295 79.7255 97.6295H79.7363C80.4971 97.6232 81.1098 97.0015 81.1035 96.2407L81.0802 93.4155C85.2861 92.6664 88.2234 88.8301 87.8484 84.5749C87.4743 80.3197 83.9117 77.0549 79.6394 77.0531H79.5299C76.4984 77.0648 74.0312 74.6164 74.0205 71.5849C74.0088 68.5534 76.4562 66.0862 79.4887 66.0745H79.5317C82.5453 66.0781 84.9945 68.5076 85.0215 71.5212C85.0268 72.2775 85.6423 72.8885 86.3995 72.8885H86.4103C87.172 72.8822 87.7838 72.2605 87.7775 71.4988C87.7408 67.4795 84.8142 64.0703 80.847 63.4243L80.8254 60.9123C80.82 60.1551 80.2046 59.545 79.4474 59.545H79.4366C78.6758 59.5513 78.0631 60.173 78.0693 60.9338L78.0891 63.4449C73.8688 64.1941 70.9261 68.051 71.3182 72.3197C71.7112 76.5884 75.3097 79.8433 79.5954 79.8092Z" fill="#C6C9D0"/>
<path fill-rule="evenodd" clip-rule="evenodd" d="M105.335 52.8395C105.379 52.8861 105.42 52.9364 105.457 52.9884V52.9893C119.514 67.16 119.514 90.0152 105.457 104.186C105.385 104.294 105.293 104.387 105.185 104.459C91.0143 118.515 68.1591 118.515 53.9884 104.459C53.8807 104.386 53.7874 104.293 53.7166 104.185C46.9582 97.38 43.1686 88.1778 43.174 78.5871C43.1749 77.2584 43.2476 75.9297 43.3911 74.6091C32.4789 75.8104 21.6071 72.0154 13.8135 64.2837C13.7606 64.246 13.7112 64.2056 13.6646 64.1617C13.6206 64.115 13.5802 64.0657 13.5425 64.0127C-0.514183 49.8421 -0.514183 26.9869 13.5425 12.8162C13.6152 12.7076 13.7076 12.6143 13.8162 12.5425C27.9869 -1.51418 50.842 -1.51418 65.0127 12.5425C65.1204 12.6143 65.2128 12.7076 65.2846 12.8162C73.0154 20.6098 76.8095 31.4798 75.6091 42.3911C76.9297 42.2476 78.2584 42.1749 79.5871 42.174C89.1787 42.1686 98.3818 45.9591 105.187 52.7184C105.239 52.7551 105.288 52.7955 105.335 52.8395ZM65.0131 64.2836C62.7828 66.4925 60.277 68.4052 57.5586 69.9752C53.4918 80.3922 57.2841 92.2338 66.645 98.3507C76.006 104.468 88.3734 103.185 96.2801 95.2779C104.188 87.3703 105.469 75.0029 99.352 65.6419C93.2342 56.2819 81.3935 52.4905 70.9765 56.5573C69.4065 59.2757 67.4929 61.7815 65.2841 64.0127C65.2464 64.0656 65.206 64.115 65.162 64.1616C65.1154 64.2056 65.066 64.2469 65.0131 64.2836ZM64.1537 61.2063L62.5863 59.639C62.24 59.2828 61.7286 59.141 61.2477 59.2675C60.7678 59.394 60.3927 59.769 60.2662 60.2499C60.1397 60.7299 60.2815 61.2413 60.6377 61.5876L62.205 63.1549C56.3501 68.5684 48.7584 71.7192 40.7907 72.0404V69.8083C40.7907 69.0475 40.1734 68.4302 39.4126 68.4302C38.6518 68.4302 38.0346 69.0475 38.0346 69.8083V72.0404C30.0669 71.7192 22.4742 68.5684 16.6202 63.1549L18.1876 61.5876C18.7133 61.0475 18.707 60.1853 18.1741 59.6524C17.6412 59.1195 16.779 59.1132 16.2389 59.639L14.6716 61.2063C9.25722 55.3514 6.10729 47.7596 5.7861 39.7919H8.01735C8.77904 39.7919 9.39539 39.1747 9.39539 38.4139C9.39539 37.6522 8.77904 37.0359 8.01735 37.0359H5.7861C6.10729 29.0673 9.25722 21.4746 14.6716 15.6206L16.2389 17.1879C16.5852 17.5432 17.0966 17.6859 17.5775 17.5594C18.0575 17.4329 18.4325 17.0579 18.559 16.577C18.6855 16.097 18.5437 15.5856 18.1876 15.2393L16.6202 13.672C22.4751 8.2576 30.0669 5.10766 38.0346 4.78648V7.01772C38.0346 7.77941 38.6518 8.39576 39.4126 8.39576C40.1734 8.39576 40.7907 7.77941 40.7907 7.01772V4.78738C48.7584 5.10856 56.3501 8.2585 62.205 13.6729L60.6377 15.2402C60.2815 15.5865 60.1397 16.0979 60.2662 16.5779C60.3927 17.0588 60.7678 17.4338 61.2477 17.5603C61.7286 17.6868 62.24 17.545 62.5863 17.1888L64.1537 15.6215C69.568 21.4755 72.718 29.0682 73.0391 37.0359H70.807C70.0462 37.0359 69.429 37.6522 69.429 38.4139C69.429 39.1747 70.0462 39.7919 70.807 39.7919H73.0391C72.718 47.7596 69.568 55.3514 64.1537 61.2063ZM66.3743 101.408C56.0345 95.4387 50.9933 83.2705 54.0822 71.7384C51.5621 72.8517 48.9236 73.6735 46.2168 74.1867C46.0867 75.1862 45.9988 76.1964 45.9584 77.2093H48.1924C48.9532 77.2093 49.5704 77.8265 49.5704 78.5873C49.5704 79.349 48.9532 79.9653 48.1924 79.9653H45.9602C46.2814 87.933 49.4323 95.5257 54.8457 101.38L56.4131 99.8124C56.7594 99.4562 57.2708 99.3144 57.7516 99.4409C58.2316 99.5674 58.6066 99.9424 58.7331 100.423C58.8596 100.903 58.7179 101.415 58.3617 101.761L56.7944 103.328C62.6492 108.743 70.241 111.894 78.2087 112.215V109.983C78.2087 109.222 78.826 108.605 79.5868 108.605C80.3484 108.605 80.9648 109.222 80.9648 109.983V112.215C88.9325 111.894 96.5252 108.744 102.379 103.329L100.812 101.762C100.456 101.416 100.314 100.904 100.44 100.424C100.567 99.9433 100.942 99.5683 101.423 99.4418C101.903 99.3153 102.414 99.4571 102.76 99.8132L104.328 101.381C109.743 95.5266 112.893 87.9339 113.214 79.9653H110.983C110.222 79.9653 109.605 79.349 109.605 78.5873C109.605 77.8265 110.222 77.2093 110.983 77.2093H113.214C112.894 69.2416 109.743 61.6498 104.33 55.7949L102.761 57.3622C102.415 57.7184 101.904 57.8602 101.424 57.7337C100.943 57.6072 100.568 57.2322 100.441 56.7513C100.315 56.2713 100.457 55.7599 100.814 55.4136L102.38 53.8463C96.5261 48.4319 88.9334 45.282 80.9657 44.9608V47.1929C80.9657 47.9537 80.3484 48.571 79.5877 48.571C78.8269 48.571 78.2096 47.9537 78.2096 47.1929V44.9581C77.1967 44.9994 76.1865 45.0873 75.1871 45.2174C74.673 47.9241 73.8512 50.5627 72.7378 53.0828C84.2699 49.9939 96.4381 55.0359 102.407 65.3748C108.376 75.7137 106.656 88.7728 98.2145 97.2151C89.7722 105.656 76.7132 107.376 66.3743 101.408Z" fill="#C6C9D0"/>
</g>
</svg>
