<svg width="86" height="103" viewBox="0 0 86 103" fill="none" xmlns="http://www.w3.org/2000/svg">
<mask id="mask0" mask-type="alpha" maskUnits="userSpaceOnUse" x="0" y="0" width="86" height="103">
<rect width="86" height="103" fill="white"/>
</mask>
<g mask="url(#mask0)">
<path fill-rule="evenodd" clip-rule="evenodd" d="M16.4011 62.4173C19.4574 63.3926 22.7822 62.1304 24.4216 59.3723L33.9573 62.4287C32.2487 68.8847 32.8551 75.7341 35.6711 81.789L26.8611 86.3216C24.8427 83.6491 21.1953 82.8137 18.2146 84.3421C14.9957 85.9998 13.6118 89.8687 15.0487 93.192C16.4856 96.5153 20.2518 98.1572 23.6648 96.9486C27.0774 95.7389 28.9701 92.0924 27.9944 88.605L36.8421 84.0531C40.1737 89.8664 45.4428 94.3239 51.7274 96.6458L48.7049 106.076C45.1789 105.636 41.8972 107.954 41.1316 111.425C40.3661 114.895 42.3686 118.378 45.7524 119.462C49.1369 120.547 52.791 118.877 54.1854 115.609C55.5799 112.34 54.2572 108.546 51.1319 106.854L54.1544 97.4237C60.6741 99.2024 67.6132 98.6126 73.7393 95.7593L78.2754 104.575C75.4513 106.732 74.7338 110.685 76.6197 113.698C78.5053 116.711 82.3744 117.793 85.5497 116.195C88.725 114.598 90.1619 110.846 88.8663 107.536C87.5705 104.226 83.9678 102.447 80.5523 103.429L76.0029 94.5873C81.8078 91.2547 86.2588 85.9896 88.5786 79.7113L98.0615 82.7508C97.645 86.2816 99.9849 89.5493 103.462 90.2917C106.938 91.0349 110.409 89.0094 111.473 85.6162C112.535 82.2236 110.841 78.5792 107.561 77.2056C104.282 75.8323 100.496 77.1808 98.8236 80.3187L89.3566 77.2843C91.1395 70.7486 90.5429 63.7925 87.6719 57.6563L96.5386 53.094C98.5565 55.768 102.206 56.6032 105.186 55.0745C108.405 53.4161 109.788 49.5479 108.352 46.2238C106.915 42.9005 103.149 41.2586 99.7354 42.4681C96.3231 43.6769 94.4303 47.3234 95.406 50.8108L86.4966 55.3952C83.1262 49.5451 77.7922 45.0781 71.4413 42.7863L74.4785 33.3106C77.9914 33.8642 81.3478 31.653 82.2257 28.2074C83.1028 24.7615 81.2133 21.2139 77.864 20.0192C74.5144 18.8254 70.8067 20.3769 69.3063 23.6012C67.8061 26.8247 69.0063 30.6611 72.0765 32.4545L69.0092 42.0242C62.5388 40.3119 55.6721 40.9258 49.6075 43.7587L45.0489 34.8993C47.8971 32.784 48.667 28.849 46.826 25.816C44.985 22.7831 41.1384 21.6504 37.9476 23.2012C34.757 24.7512 33.2705 28.4757 34.5172 31.7973C35.7641 35.1181 39.3332 36.9451 42.7561 36.0131L47.3466 44.9333C41.4886 48.3038 37.0143 53.6415 34.7208 59.998L25.2956 56.977C25.8902 53.3552 23.5375 49.9047 19.9499 49.1329C16.3612 48.3616 12.799 50.5409 11.8523 54.0873C10.905 57.6326 12.9065 61.2981 16.4016 62.4183L16.4011 62.4173ZM23.3436 94.3165C21.9629 95.0553 20.2909 94.9933 18.9703 94.1528C17.6488 93.3127 16.8833 91.825 16.968 90.2614C17.052 88.6975 17.9728 87.3007 19.3771 86.6078C21.4422 85.5492 23.975 86.3043 25.1233 88.3207C25.1661 88.5026 25.2502 88.6724 25.3686 88.8166C26.2263 90.8975 25.3459 93.2882 23.3441 94.3175L23.3436 94.3165ZM46.6175 117.066C48.8795 117.736 51.2614 116.475 51.9789 114.228L51.9797 114.228C52.6729 112.052 51.5607 109.711 49.4347 108.875C49.2472 108.859 49.0655 108.801 48.9038 108.704C46.6161 108.131 44.2895 109.491 43.6675 111.766C43.0452 114.042 44.3562 116.396 46.6175 117.066ZM86.3073 108.061C87.2568 109.901 86.7737 112.156 85.1535 113.446C83.5334 114.736 81.2278 114.702 79.6468 113.364C78.0657 112.026 77.6507 109.758 78.6548 107.946C79.6586 106.135 81.8023 105.286 83.775 105.918C84.8692 106.269 85.7802 107.039 86.3073 108.061ZM109.023 84.8775C109.755 82.5977 108.499 80.1564 106.219 79.4256L106.219 79.4248C103.939 78.6966 101.501 79.952 100.767 82.2294C100.036 84.5103 101.292 86.9512 103.572 87.682C105.852 88.4128 108.293 87.1575 109.023 84.8775ZM100.05 45.0973C101.889 44.1509 104.14 44.6354 105.427 46.2545C106.714 47.8734 106.677 50.1766 105.341 51.7545C104.004 53.3324 101.739 53.7459 99.9299 52.7428C98.1216 51.7389 97.2735 49.5983 97.9048 47.6288C98.255 46.5335 99.0263 45.622 100.05 45.0973ZM76.8655 22.3801C74.5854 21.6493 72.145 22.9057 71.4142 25.1858C70.686 27.4658 71.9413 29.9041 74.219 30.6368C76.4991 31.3676 78.94 30.1123 79.6708 27.8322C80.4016 25.5522 79.1455 23.1109 76.8655 22.3801ZM37.0868 31.3533C35.9912 29.224 36.8291 26.6098 38.9584 25.5141C41.0866 24.419 43.7009 25.257 44.7968 27.3855C45.8924 29.5148 45.0545 32.129 42.9252 33.2246C40.7961 34.3168 38.1842 33.4797 37.0868 31.3533ZM86.5669 77.7274C90.9718 63.9847 83.4014 49.2735 69.6587 44.8686C55.9181 40.4819 41.2188 48.0447 36.8002 61.776C32.3953 75.5187 39.9647 90.2305 53.7073 94.6354C67.45 99.0402 82.1621 91.4701 86.5669 77.7274ZM19.8222 51.7326C22.1022 52.4634 23.3578 54.9036 22.627 57.1837C21.8962 59.4637 19.4558 60.7201 17.1757 59.9893C14.8957 59.2585 13.6396 56.8173 14.3704 54.5372C15.1038 52.2598 17.5422 51.0045 19.8222 51.7326ZM74.7027 72.9747C72.4472 80.0117 64.9141 83.8879 57.877 81.6324C50.84 79.3768 46.9638 71.8437 49.2193 64.8067C51.4748 57.7696 59.008 53.8934 66.045 56.149C73.0821 58.4045 76.9583 65.9376 74.7027 72.9747Z" fill="#C6C9D0"/>
<path fill-rule="evenodd" clip-rule="evenodd" d="M16.4011 62.4173C19.4574 63.3926 22.7822 62.1304 24.4216 59.3723L33.9573 62.4287C32.2487 68.8847 32.8551 75.7341 35.6711 81.789L26.8611 86.3216C24.8427 83.6491 21.1953 82.8137 18.2146 84.3421C14.9957 85.9998 13.6118 89.8687 15.0487 93.192C16.4856 96.5153 20.2518 98.1572 23.6648 96.9486C27.0774 95.7389 28.9701 92.0924 27.9944 88.605L36.8421 84.0531C40.1737 89.8664 45.4428 94.3239 51.7274 96.6458L48.7049 106.076C45.1789 105.636 41.8972 107.954 41.1316 111.425C40.3661 114.895 42.3686 118.378 45.7524 119.462C49.1369 120.547 52.791 118.877 54.1854 115.609C55.5799 112.34 54.2572 108.546 51.1319 106.854L54.1544 97.4237C60.6741 99.2024 67.6132 98.6126 73.7393 95.7593L78.2754 104.575C75.4513 106.732 74.7338 110.685 76.6197 113.698C78.5053 116.711 82.3744 117.793 85.5497 116.195C88.725 114.598 90.1619 110.846 88.8663 107.536C87.5705 104.226 83.9678 102.447 80.5523 103.429L76.0029 94.5873C81.8078 91.2547 86.2588 85.9896 88.5786 79.7113L98.0615 82.7508C97.645 86.2816 99.9849 89.5493 103.462 90.2917C106.938 91.0349 110.409 89.0094 111.473 85.6162C112.535 82.2236 110.841 78.5792 107.561 77.2056C104.282 75.8323 100.496 77.1808 98.8236 80.3187L89.3566 77.2843C91.1395 70.7486 90.5429 63.7925 87.6719 57.6563L96.5386 53.094C98.5565 55.768 102.206 56.6032 105.186 55.0745C108.405 53.4161 109.788 49.5479 108.352 46.2238C106.915 42.9005 103.149 41.2586 99.7354 42.4681C96.3231 43.6769 94.4303 47.3234 95.406 50.8108L86.4966 55.3952C83.1262 49.5451 77.7922 45.0781 71.4413 42.7863L74.4785 33.3106C77.9914 33.8642 81.3478 31.653 82.2257 28.2074C83.1028 24.7615 81.2133 21.2139 77.864 20.0192C74.5144 18.8254 70.8067 20.3769 69.3063 23.6012C67.8061 26.8247 69.0063 30.6611 72.0765 32.4545L69.0092 42.0242C62.5388 40.3119 55.6721 40.9258 49.6075 43.7587L45.0489 34.8993C47.8971 32.784 48.667 28.849 46.826 25.816C44.985 22.7831 41.1384 21.6504 37.9476 23.2012C34.757 24.7512 33.2705 28.4757 34.5172 31.7973C35.7641 35.1181 39.3332 36.9451 42.7561 36.0131L47.3466 44.9333C41.4886 48.3038 37.0143 53.6415 34.7208 59.998L25.2956 56.977C25.8902 53.3552 23.5375 49.9047 19.9499 49.1329C16.3612 48.3616 12.799 50.5409 11.8523 54.0873C10.905 57.6326 12.9065 61.2981 16.4016 62.4183L16.4011 62.4173ZM23.3436 94.3165C21.9629 95.0553 20.2909 94.9933 18.9703 94.1528C17.6488 93.3127 16.8833 91.825 16.968 90.2614C17.052 88.6975 17.9728 87.3007 19.3771 86.6078C21.4422 85.5492 23.975 86.3043 25.1233 88.3207C25.1661 88.5026 25.2502 88.6724 25.3686 88.8166C26.2263 90.8975 25.3459 93.2882 23.3441 94.3175L23.3436 94.3165ZM46.6175 117.066C48.8795 117.736 51.2614 116.475 51.9789 114.228L51.9797 114.228C52.6729 112.052 51.5607 109.711 49.4347 108.875C49.2472 108.859 49.0655 108.801 48.9038 108.704C46.6161 108.131 44.2895 109.491 43.6675 111.766C43.0452 114.042 44.3562 116.396 46.6175 117.066ZM86.3073 108.061C87.2568 109.901 86.7737 112.156 85.1535 113.446C83.5334 114.736 81.2278 114.702 79.6468 113.364C78.0657 112.026 77.6507 109.758 78.6548 107.946C79.6586 106.135 81.8023 105.286 83.775 105.918C84.8692 106.269 85.7802 107.039 86.3073 108.061ZM109.023 84.8775C109.755 82.5977 108.499 80.1564 106.219 79.4256L106.219 79.4248C103.939 78.6966 101.501 79.952 100.767 82.2294C100.036 84.5103 101.292 86.9512 103.572 87.682C105.852 88.4128 108.293 87.1575 109.023 84.8775ZM100.05 45.0973C101.889 44.1509 104.14 44.6354 105.427 46.2545C106.714 47.8734 106.677 50.1766 105.341 51.7545C104.004 53.3324 101.739 53.7459 99.9299 52.7428C98.1216 51.7389 97.2735 49.5983 97.9048 47.6288C98.255 46.5335 99.0263 45.622 100.05 45.0973ZM76.8655 22.3801C74.5854 21.6493 72.145 22.9057 71.4142 25.1858C70.686 27.4658 71.9413 29.9041 74.219 30.6368C76.4991 31.3676 78.94 30.1123 79.6708 27.8322C80.4016 25.5522 79.1455 23.1109 76.8655 22.3801ZM37.0868 31.3533C35.9912 29.224 36.8291 26.6098 38.9584 25.5141C41.0866 24.419 43.7009 25.257 44.7968 27.3855C45.8924 29.5148 45.0545 32.129 42.9252 33.2246C40.7961 34.3168 38.1842 33.4797 37.0868 31.3533ZM86.5669 77.7274C90.9718 63.9847 83.4014 49.2735 69.6587 44.8686C55.9181 40.4819 41.2188 48.0447 36.8002 61.776C32.3953 75.5187 39.9647 90.2305 53.7073 94.6354C67.45 99.0402 82.1621 91.4701 86.5669 77.7274ZM19.8222 51.7326C22.1022 52.4634 23.3578 54.9036 22.627 57.1837C21.8962 59.4637 19.4558 60.7201 17.1757 59.9893C14.8957 59.2585 13.6396 56.8173 14.3704 54.5372C15.1038 52.2598 17.5422 51.0045 19.8222 51.7326ZM74.7027 72.9747C72.4472 80.0117 64.9141 83.8879 57.877 81.6324C50.84 79.3768 46.9638 71.8437 49.2193 64.8067C51.4748 57.7696 59.008 53.8934 66.045 56.149C73.0821 58.4045 76.9583 65.9376 74.7027 72.9747Z" fill="#C6C9D0"/>
</g>
</svg>
