<svg width="21" height="21" viewBox="0 0 21 21" fill="none" xmlns="http://www.w3.org/2000/svg">
<path d="M8.07925 12.9504C7.94007 12.9504 7.82715 13.0631 7.82715 13.2025V13.6811C7.82715 13.8203 7.94007 13.9332 8.07925 13.9332C8.21843 13.9332 8.33135 13.8203 8.33135 13.6811V13.2025C8.33135 13.0631 8.21843 12.9504 8.07925 12.9504Z" fill="#FCD600"/>
<path d="M9.88701 13.6811V13.2025C9.88701 13.0631 9.77409 12.9504 9.63491 12.9504C9.49573 12.9504 9.38281 13.0631 9.38281 13.2025V13.6811C9.38281 13.8203 9.49573 13.9332 9.63491 13.9332C9.77409 13.9332 9.88701 13.8203 9.88701 13.6811Z" fill="#FCD600"/>
<path d="M6.52359 12.9504C6.3844 12.9504 6.27148 13.0631 6.27148 13.2025V13.6811C6.27148 13.8203 6.3844 13.9332 6.52359 13.9332C6.66293 13.9332 6.77569 13.8203 6.77569 13.6811V13.2025C6.77569 13.0631 6.66293 12.9504 6.52359 12.9504Z" fill="#FCD600"/>
<path d="M4.96792 12.9504C4.82874 12.9504 4.71582 13.0631 4.71582 13.2025V13.6811C4.71582 13.8203 4.82874 13.9332 4.96792 13.9332C5.10727 13.9332 5.22002 13.8203 5.22002 13.6811V13.2025C5.22002 13.0631 5.10727 12.9504 4.96792 12.9504Z" fill="#FCD600"/>
<path d="M3.41226 12.9504C3.27308 12.9504 3.16016 13.0631 3.16016 13.2025V13.6811C3.16016 13.8203 3.27308 13.9332 3.41226 13.9332C3.55144 13.9332 3.66436 13.8203 3.66436 13.6811V13.2025C3.66436 13.0631 3.55144 12.9504 3.41226 12.9504Z" fill="#FCD600"/>
<path fill-rule="evenodd" clip-rule="evenodd" d="M11.2227 15.202C11.2227 13.0043 13.0043 11.2227 15.2021 11.2227C17.3988 11.2252 19.1789 13.0053 19.1814 15.202C19.1814 17.3997 17.3998 19.1813 15.2021 19.1813C13.0043 19.1813 11.2227 17.3997 11.2227 15.202ZM11.7266 15.2021C11.7266 17.1214 13.2825 18.6772 15.2018 18.6772C17.1201 18.675 18.6748 17.1204 18.6769 15.2021C18.6769 13.2828 17.121 11.727 15.2018 11.727C13.2825 11.727 11.7266 13.2828 11.7266 15.2021Z" fill="#FCD600"/>
<path fill-rule="evenodd" clip-rule="evenodd" d="M19.0881 11.3563C19.0774 11.3402 19.0636 11.3264 19.0476 11.3156C18.2558 10.5301 17.2426 10.0059 16.1441 9.81318C16.1535 9.64905 16.1586 9.48312 16.1586 9.31719V4.77642C16.1586 4.67581 16.0987 4.58471 16.0063 4.545L15.9547 4.52267C13.2122 3.34276 10.6193 1.84148 8.23053 0.0503463C8.14076 -0.0167821 8.01766 -0.0167821 7.92788 0.0503463C5.53916 1.84148 2.94626 3.34276 0.203683 4.52284L0.152311 4.545C0.0599068 4.58471 0 4.67581 0 4.77642V9.31719C0 10.9069 0.41705 12.3851 1.23966 13.7102C1.89486 14.7656 2.80626 15.7246 3.94876 16.561C5.88514 17.9782 7.79248 18.5458 7.87273 18.5694C7.9182 18.5827 7.96662 18.5829 8.01224 18.5699C8.05541 18.5578 9.02738 18.2783 10.3002 17.6281C10.5608 18.1525 10.9037 18.6318 11.3158 19.048C11.3214 19.0557 11.3275 19.0631 11.334 19.0702C11.3411 19.0767 11.3485 19.0826 11.3562 19.0884C13.4851 21.2004 16.9188 21.2004 19.0477 19.0884L19.0563 19.0818C19.0609 19.0781 19.0655 19.0743 19.0699 19.0702C19.0765 19.0631 19.0825 19.0557 19.0881 19.048C21.2001 16.9191 21.2001 13.4854 19.0881 11.3565V11.3563ZM19.8778 15.4541H20.1616C20.1042 16.5958 19.6533 17.6823 18.8853 18.5291L18.6866 18.3301C18.6231 18.2656 18.5297 18.24 18.4422 18.2633C18.3547 18.2865 18.2863 18.3549 18.2631 18.4424C18.24 18.5299 18.2654 18.6233 18.3301 18.6866L18.5289 18.8855C17.6821 19.6533 16.5956 20.1044 15.4539 20.1616V19.8782C15.4539 19.7389 15.3412 19.6261 15.2018 19.6261C15.0626 19.6261 14.9497 19.7389 14.9497 19.8782V20.1618C13.8082 20.1045 12.7215 19.6535 11.8748 18.8857L12.0737 18.6868C12.1382 18.6233 12.1638 18.53 12.1407 18.4426C12.1174 18.3549 12.0491 18.2866 11.9616 18.2633C11.874 18.2402 11.7807 18.2658 11.7172 18.3303L11.5183 18.5292C10.7505 17.6825 10.2995 16.596 10.2422 15.4543H10.526C10.6651 15.4543 10.7781 15.3414 10.7781 15.2022C10.7781 15.063 10.6651 14.9501 10.526 14.9501H10.2422C10.2995 13.8084 10.7505 12.7219 11.5183 11.8751L11.7172 12.0739C11.816 12.1701 11.9737 12.1691 12.0712 12.0716C12.1687 11.9741 12.1699 11.8162 12.0737 11.7174L11.8749 11.5187C12.7217 10.7507 13.8082 10.2998 14.9497 10.2424V10.5262C14.9497 10.6654 15.0626 10.7783 15.2018 10.7783C15.3412 10.7783 15.4539 10.6654 15.4539 10.5262V10.2424C16.5956 10.2998 17.6821 10.7507 18.5289 11.5187L18.3301 11.7174C18.2649 11.7808 18.2388 11.8743 18.262 11.9623C18.2851 12.0501 18.3537 12.1189 18.4417 12.1419C18.5295 12.165 18.6231 12.1391 18.6866 12.0739L18.8853 11.8751C19.6533 12.7219 20.1042 13.8084 20.1616 14.9501H19.8778C19.7386 14.9501 19.6257 15.063 19.6257 15.2022C19.6257 15.3414 19.7386 15.4543 19.8778 15.4543V15.4541ZM4.23503 16.145C5.89863 17.3658 7.58587 17.9477 7.94498 18.0634V18.0635C8.68553 17.8237 9.40523 17.5234 10.0967 17.1658C9.32382 15.1581 9.80111 12.8838 11.3158 11.3564C11.3216 11.3486 11.3277 11.3412 11.3342 11.3341C11.3413 11.3276 11.3487 11.3215 11.3565 11.3157C12.3787 10.3004 13.7614 9.73092 15.2022 9.73174C15.3504 9.7319 15.4973 9.73797 15.6428 9.74946C15.6503 9.60634 15.6544 9.46175 15.6544 9.31715V4.94231C12.9704 3.77815 10.4287 2.31003 8.0794 0.566493C5.73007 2.31003 3.18838 3.77815 0.504395 4.94231V9.31715C0.504395 10.7695 0.875324 12.1218 1.6052 13.3386V13.2024C1.6052 13.063 1.71812 12.9503 1.8573 12.9503C1.99648 12.9503 2.1094 13.063 2.1094 13.2024V13.6808C2.1094 13.7739 2.05803 13.8594 1.97597 13.9032C2.56207 14.7207 3.31936 15.4733 4.23503 16.145Z" fill="#FCD600"/>
</svg>
