<svg width="76" height="78" viewBox="0 0 76 78" fill="none" xmlns="http://www.w3.org/2000/svg">
<mask id="mask0" mask-type="alpha" maskUnits="userSpaceOnUse" x="0" y="0" width="76" height="78">
<rect x="0.401367" width="75.1891" height="78" fill="white"/>
</mask>
<g mask="url(#mask0)">
<path d="M39.8755 52.4901C39.3436 52.4901 38.9121 52.921 38.9121 53.4535V55.2824C38.9121 55.8143 39.3436 56.2458 39.8755 56.2458C40.4074 56.2458 40.8389 55.8143 40.8389 55.2824V53.4535C40.8389 52.921 40.4074 52.4901 39.8755 52.4901Z" fill="#C6C9D0"/>
<path d="M46.7833 55.2824V53.4535C46.7833 52.921 46.3517 52.4901 45.8199 52.4901C45.288 52.4901 44.8564 52.921 44.8564 53.4535V55.2824C44.8564 55.8143 45.288 56.2458 45.8199 56.2458C46.3517 56.2458 46.7833 55.8143 46.7833 55.2824Z" fill="#C6C9D0"/>
<path d="M33.9302 52.4901C33.3983 52.4901 32.9668 52.921 32.9668 53.4535V55.2824C32.9668 55.8143 33.3983 56.2458 33.9302 56.2458C34.4627 56.2458 34.8936 55.8143 34.8936 55.2824V53.4535C34.8936 52.921 34.4627 52.4901 33.9302 52.4901Z" fill="#C6C9D0"/>
<path d="M27.9849 52.4901C27.453 52.4901 27.0215 52.921 27.0215 53.4535V55.2824C27.0215 55.8143 27.453 56.2458 27.9849 56.2458C28.5174 56.2458 28.9483 55.8143 28.9483 55.2824V53.4535C28.9483 52.921 28.5174 52.4901 27.9849 52.4901Z" fill="#C6C9D0"/>
<path d="M22.0406 52.4901C21.5087 52.4901 21.0771 52.921 21.0771 53.4535V55.2824C21.0771 55.8143 21.5087 56.2458 22.0406 56.2458C22.5724 56.2458 23.004 55.8143 23.004 55.2824V53.4535C23.004 52.921 22.5724 52.4901 22.0406 52.4901Z" fill="#C6C9D0"/>
<path fill-rule="evenodd" clip-rule="evenodd" d="M51.8877 61.0948C51.8877 52.6963 58.6962 45.8878 67.0953 45.8878C75.49 45.8972 82.2928 52.7 82.3022 61.0948C82.3022 69.4932 75.4937 76.3017 67.0953 76.3017C58.6962 76.3017 51.8877 69.4932 51.8877 61.0948ZM53.8129 61.0951C53.8129 68.4298 59.759 74.3752 67.0937 74.3752C74.4246 74.367 80.3657 68.426 80.3738 61.0951C80.3738 53.7604 74.4278 47.815 67.0937 47.815C59.759 47.815 53.8129 53.7604 53.8129 61.0951Z" fill="#C6C9D0"/>
<path fill-rule="evenodd" clip-rule="evenodd" d="M81.9456 46.3984C81.9048 46.3369 81.8521 46.2842 81.7907 46.2429C78.765 43.241 74.8932 41.2376 70.6952 40.5013C70.7309 39.8741 70.7504 39.2399 70.7504 38.6058V21.2532C70.7504 20.8687 70.5214 20.5206 70.1683 20.3688L69.9714 20.2835C59.4905 15.7744 49.5817 10.0372 40.4532 3.1924C40.1101 2.93587 39.6397 2.93587 39.2966 3.1924C30.168 10.0372 20.2592 15.7744 9.77838 20.2841L9.58206 20.3688C9.22894 20.5206 9 20.8687 9 21.2532V38.6058C9 44.6811 10.5938 50.3298 13.7374 55.394C16.2412 59.427 19.7242 63.0919 24.0903 66.2882C31.4902 71.7042 38.7791 73.8731 39.0858 73.9634C39.2596 74.0142 39.4446 74.0149 39.619 73.9653C39.7839 73.9189 43.4983 72.8508 48.3624 70.3663C49.3584 72.3703 50.6687 74.2018 52.2436 75.7924C52.265 75.8219 52.2882 75.8501 52.3133 75.8771C52.3402 75.9022 52.3685 75.9248 52.3979 75.9467C60.5336 84.0178 73.6557 84.0178 81.7913 75.9467C81.8208 75.9248 81.849 75.9022 81.876 75.8771C81.9011 75.8501 81.9243 75.8219 81.9456 75.7924C90.0167 67.6567 90.0167 54.5347 81.9456 46.399V46.3984ZM84.9638 62.0583H86.0482C85.8287 66.4212 84.1058 70.5734 81.171 73.8092L80.4114 73.049C80.1687 72.8026 79.8118 72.7047 79.4775 72.7938C79.1432 72.8822 78.8816 73.1438 78.7932 73.4781C78.7048 73.8124 78.802 74.1693 79.0491 74.4114L79.8087 75.1716C76.5728 78.1057 72.4207 79.8293 68.0577 80.0482V78.965C68.0577 78.4325 67.6268 78.0016 67.0943 78.0016C66.5624 78.0016 66.1309 78.4325 66.1309 78.965V80.0488C61.7686 79.8299 57.6158 78.1063 54.3799 75.1722L55.1401 74.412C55.3866 74.1693 55.4845 73.813 55.396 73.4787C55.307 73.1438 55.046 72.8828 54.7117 72.7938C54.3768 72.7053 54.0205 72.8032 53.7778 73.0497L53.0176 73.8099C50.0835 70.574 48.3599 66.4218 48.141 62.0589H49.2255C49.7573 62.0589 50.1889 61.6274 50.1889 61.0955C50.1889 60.5636 49.7573 60.1321 49.2255 60.1321H48.141C48.3599 55.7692 50.0835 51.617 53.0176 48.3811L53.7778 49.1407C54.1554 49.5083 54.7582 49.5045 55.1307 49.1319C55.5033 48.7593 55.5077 48.156 55.1401 47.7784L54.3806 47.0188C57.6164 44.0841 61.7686 42.3611 66.1309 42.1416V43.226C66.1309 43.7579 66.5624 44.1894 67.0943 44.1894C67.6268 44.1894 68.0577 43.7579 68.0577 43.226V42.1416C72.4207 42.3611 76.5728 44.0841 79.8087 47.0188L79.0491 47.7784C78.8001 48.0205 78.7004 48.378 78.7888 48.7142C78.8773 49.0498 79.1394 49.3126 79.4756 49.4004C79.8112 49.4888 80.1687 49.3897 80.4114 49.1407L81.171 48.3811C84.1058 51.617 85.8287 55.7692 86.0482 60.1321H84.9638C84.4319 60.1321 84.0004 60.5636 84.0004 61.0955C84.0004 61.6274 84.4319 62.0589 84.9638 62.0589V62.0583ZM25.1824 64.6987C31.5399 69.3639 37.9877 71.5874 39.3601 72.0296V72.0302C42.1901 71.1139 44.9405 69.966 47.5829 68.5993C44.6294 60.9272 46.4533 52.2358 52.2419 46.3989C52.2639 46.3688 52.2871 46.3406 52.3122 46.3136C52.3392 46.2885 52.3674 46.2653 52.3975 46.2434C56.3038 42.3634 61.5875 40.1869 67.0939 40.1901C67.6602 40.1907 68.2216 40.2139 68.7773 40.2578C68.8062 39.7109 68.8218 39.1583 68.8218 38.6057V21.8872C58.5649 17.4383 48.8518 11.8278 39.8738 5.16488C30.8958 11.8278 21.1827 17.4383 10.9257 21.8872V38.6057C10.9257 44.156 12.3433 49.3236 15.1325 53.9738V53.4532C15.1325 52.9207 15.564 52.4898 16.0959 52.4898C16.6278 52.4898 17.0593 52.9207 17.0593 53.4532V55.2816C17.0593 55.6372 16.863 55.964 16.5494 56.1315C18.7892 59.2556 21.6832 62.1314 25.1824 64.6987Z" fill="#C6C9D0"/>
<path d="M39.8755 52.4901C39.3436 52.4901 38.9121 52.921 38.9121 53.4535V55.2824C38.9121 55.8143 39.3436 56.2458 39.8755 56.2458C40.4074 56.2458 40.8389 55.8143 40.8389 55.2824V53.4535C40.8389 52.921 40.4074 52.4901 39.8755 52.4901Z" fill="#C6C9D0"/>
<path d="M46.7833 55.2824V53.4535C46.7833 52.921 46.3517 52.4901 45.8199 52.4901C45.288 52.4901 44.8564 52.921 44.8564 53.4535V55.2824C44.8564 55.8143 45.288 56.2458 45.8199 56.2458C46.3517 56.2458 46.7833 55.8143 46.7833 55.2824Z" fill="#C6C9D0"/>
<path d="M33.9302 52.4901C33.3983 52.4901 32.9668 52.921 32.9668 53.4535V55.2824C32.9668 55.8143 33.3983 56.2458 33.9302 56.2458C34.4627 56.2458 34.8936 55.8143 34.8936 55.2824V53.4535C34.8936 52.921 34.4627 52.4901 33.9302 52.4901Z" fill="#C6C9D0"/>
<path d="M27.9849 52.4901C27.453 52.4901 27.0215 52.921 27.0215 53.4535V55.2824C27.0215 55.8143 27.453 56.2458 27.9849 56.2458C28.5174 56.2458 28.9483 55.8143 28.9483 55.2824V53.4535C28.9483 52.921 28.5174 52.4901 27.9849 52.4901Z" fill="#C6C9D0"/>
<path d="M22.0406 52.4901C21.5087 52.4901 21.0771 52.921 21.0771 53.4535V55.2824C21.0771 55.8143 21.5087 56.2458 22.0406 56.2458C22.5724 56.2458 23.004 55.8143 23.004 55.2824V53.4535C23.004 52.921 22.5724 52.4901 22.0406 52.4901Z" fill="#C6C9D0"/>
<path fill-rule="evenodd" clip-rule="evenodd" d="M51.8877 61.0948C51.8877 52.6963 58.6962 45.8878 67.0953 45.8878C75.49 45.8972 82.2928 52.7 82.3022 61.0948C82.3022 69.4932 75.4937 76.3017 67.0953 76.3017C58.6962 76.3017 51.8877 69.4932 51.8877 61.0948ZM53.8129 61.0951C53.8129 68.4298 59.759 74.3752 67.0937 74.3752C74.4246 74.367 80.3657 68.426 80.3738 61.0951C80.3738 53.7604 74.4278 47.815 67.0937 47.815C59.759 47.815 53.8129 53.7604 53.8129 61.0951Z" fill="#C6C9D0"/>
<path fill-rule="evenodd" clip-rule="evenodd" d="M81.9456 46.3984C81.9048 46.3369 81.8521 46.2842 81.7907 46.2429C78.765 43.241 74.8932 41.2376 70.6952 40.5013C70.7309 39.8741 70.7504 39.2399 70.7504 38.6058V21.2532C70.7504 20.8687 70.5214 20.5206 70.1683 20.3688L69.9714 20.2835C59.4905 15.7744 49.5817 10.0372 40.4532 3.1924C40.1101 2.93587 39.6397 2.93587 39.2966 3.1924C30.168 10.0372 20.2592 15.7744 9.77838 20.2841L9.58206 20.3688C9.22894 20.5206 9 20.8687 9 21.2532V38.6058C9 44.6811 10.5938 50.3298 13.7374 55.394C16.2412 59.427 19.7242 63.0919 24.0903 66.2882C31.4902 71.7042 38.7791 73.8731 39.0858 73.9634C39.2596 74.0142 39.4446 74.0149 39.619 73.9653C39.7839 73.9189 43.4983 72.8508 48.3624 70.3663C49.3584 72.3703 50.6687 74.2018 52.2436 75.7924C52.265 75.8219 52.2882 75.8501 52.3133 75.8771C52.3402 75.9022 52.3685 75.9248 52.3979 75.9467C60.5336 84.0178 73.6557 84.0178 81.7913 75.9467C81.8208 75.9248 81.849 75.9022 81.876 75.8771C81.9011 75.8501 81.9243 75.8219 81.9456 75.7924C90.0167 67.6567 90.0167 54.5347 81.9456 46.399V46.3984ZM84.9638 62.0583H86.0482C85.8287 66.4212 84.1058 70.5734 81.171 73.8092L80.4114 73.049C80.1687 72.8026 79.8118 72.7047 79.4775 72.7938C79.1432 72.8822 78.8816 73.1438 78.7932 73.4781C78.7048 73.8124 78.802 74.1693 79.0491 74.4114L79.8087 75.1716C76.5728 78.1057 72.4207 79.8293 68.0577 80.0482V78.965C68.0577 78.4325 67.6268 78.0016 67.0943 78.0016C66.5624 78.0016 66.1309 78.4325 66.1309 78.965V80.0488C61.7686 79.8299 57.6158 78.1063 54.3799 75.1722L55.1401 74.412C55.3866 74.1693 55.4845 73.813 55.396 73.4787C55.307 73.1438 55.046 72.8828 54.7117 72.7938C54.3768 72.7053 54.0205 72.8032 53.7778 73.0497L53.0176 73.8099C50.0835 70.574 48.3599 66.4218 48.141 62.0589H49.2255C49.7573 62.0589 50.1889 61.6274 50.1889 61.0955C50.1889 60.5636 49.7573 60.1321 49.2255 60.1321H48.141C48.3599 55.7692 50.0835 51.617 53.0176 48.3811L53.7778 49.1407C54.1554 49.5083 54.7582 49.5045 55.1307 49.1319C55.5033 48.7593 55.5077 48.156 55.1401 47.7784L54.3806 47.0188C57.6164 44.0841 61.7686 42.3611 66.1309 42.1416V43.226C66.1309 43.7579 66.5624 44.1894 67.0943 44.1894C67.6268 44.1894 68.0577 43.7579 68.0577 43.226V42.1416C72.4207 42.3611 76.5728 44.0841 79.8087 47.0188L79.0491 47.7784C78.8001 48.0205 78.7004 48.378 78.7888 48.7142C78.8773 49.0498 79.1394 49.3126 79.4756 49.4004C79.8112 49.4888 80.1687 49.3897 80.4114 49.1407L81.171 48.3811C84.1058 51.617 85.8287 55.7692 86.0482 60.1321H84.9638C84.4319 60.1321 84.0004 60.5636 84.0004 61.0955C84.0004 61.6274 84.4319 62.0589 84.9638 62.0589V62.0583ZM25.1824 64.6987C31.5399 69.3639 37.9877 71.5874 39.3601 72.0296V72.0302C42.1901 71.1139 44.9405 69.966 47.5829 68.5993C44.6294 60.9272 46.4533 52.2358 52.2419 46.3989C52.2639 46.3688 52.2871 46.3406 52.3122 46.3136C52.3392 46.2885 52.3674 46.2653 52.3975 46.2434C56.3038 42.3634 61.5875 40.1869 67.0939 40.1901C67.6602 40.1907 68.2216 40.2139 68.7773 40.2578C68.8062 39.7109 68.8218 39.1583 68.8218 38.6057V21.8872C58.5649 17.4383 48.8518 11.8278 39.8738 5.16488C30.8958 11.8278 21.1827 17.4383 10.9257 21.8872V38.6057C10.9257 44.156 12.3433 49.3236 15.1325 53.9738V53.4532C15.1325 52.9207 15.564 52.4898 16.0959 52.4898C16.6278 52.4898 17.0593 52.9207 17.0593 53.4532V55.2816C17.0593 55.6372 16.863 55.964 16.5494 56.1315C18.7892 59.2556 21.6832 62.1314 25.1824 64.6987Z" fill="#C6C9D0"/>
<path d="M39.8755 52.4901C39.3436 52.4901 38.9121 52.921 38.9121 53.4535V55.2824C38.9121 55.8143 39.3436 56.2458 39.8755 56.2458C40.4074 56.2458 40.8389 55.8143 40.8389 55.2824V53.4535C40.8389 52.921 40.4074 52.4901 39.8755 52.4901Z" fill="#C6C9D0"/>
<path d="M46.7833 55.2824V53.4535C46.7833 52.921 46.3517 52.4901 45.8199 52.4901C45.288 52.4901 44.8564 52.921 44.8564 53.4535V55.2824C44.8564 55.8143 45.288 56.2458 45.8199 56.2458C46.3517 56.2458 46.7833 55.8143 46.7833 55.2824Z" fill="#C6C9D0"/>
<path d="M33.9302 52.4901C33.3983 52.4901 32.9668 52.921 32.9668 53.4535V55.2824C32.9668 55.8143 33.3983 56.2458 33.9302 56.2458C34.4627 56.2458 34.8936 55.8143 34.8936 55.2824V53.4535C34.8936 52.921 34.4627 52.4901 33.9302 52.4901Z" fill="#C6C9D0"/>
<path d="M27.9849 52.4901C27.453 52.4901 27.0215 52.921 27.0215 53.4535V55.2824C27.0215 55.8143 27.453 56.2458 27.9849 56.2458C28.5174 56.2458 28.9483 55.8143 28.9483 55.2824V53.4535C28.9483 52.921 28.5174 52.4901 27.9849 52.4901Z" fill="#C6C9D0"/>
<path d="M22.0406 52.4901C21.5087 52.4901 21.0771 52.921 21.0771 53.4535V55.2824C21.0771 55.8143 21.5087 56.2458 22.0406 56.2458C22.5724 56.2458 23.004 55.8143 23.004 55.2824V53.4535C23.004 52.921 22.5724 52.4901 22.0406 52.4901Z" fill="#C6C9D0"/>
<path fill-rule="evenodd" clip-rule="evenodd" d="M51.8877 61.0948C51.8877 52.6963 58.6962 45.8878 67.0953 45.8878C75.49 45.8972 82.2928 52.7 82.3022 61.0948C82.3022 69.4932 75.4937 76.3017 67.0953 76.3017C58.6962 76.3017 51.8877 69.4932 51.8877 61.0948ZM53.8129 61.0951C53.8129 68.4298 59.759 74.3752 67.0937 74.3752C74.4246 74.367 80.3657 68.426 80.3738 61.0951C80.3738 53.7604 74.4278 47.815 67.0937 47.815C59.759 47.815 53.8129 53.7604 53.8129 61.0951Z" fill="#C6C9D0"/>
<path fill-rule="evenodd" clip-rule="evenodd" d="M81.9456 46.3984C81.9048 46.3369 81.8521 46.2842 81.7907 46.2429C78.765 43.241 74.8932 41.2376 70.6952 40.5013C70.7309 39.8741 70.7504 39.2399 70.7504 38.6058V21.2532C70.7504 20.8687 70.5214 20.5206 70.1683 20.3688L69.9714 20.2835C59.4905 15.7744 49.5817 10.0372 40.4532 3.1924C40.1101 2.93587 39.6397 2.93587 39.2966 3.1924C30.168 10.0372 20.2592 15.7744 9.77838 20.2841L9.58206 20.3688C9.22894 20.5206 9 20.8687 9 21.2532V38.6058C9 44.6811 10.5938 50.3298 13.7374 55.394C16.2412 59.427 19.7242 63.0919 24.0903 66.2882C31.4902 71.7042 38.7791 73.8731 39.0858 73.9634C39.2596 74.0142 39.4446 74.0149 39.619 73.9653C39.7839 73.9189 43.4983 72.8508 48.3624 70.3663C49.3584 72.3703 50.6687 74.2018 52.2436 75.7924C52.265 75.8219 52.2882 75.8501 52.3133 75.8771C52.3402 75.9022 52.3685 75.9248 52.3979 75.9467C60.5336 84.0178 73.6557 84.0178 81.7913 75.9467C81.8208 75.9248 81.849 75.9022 81.876 75.8771C81.9011 75.8501 81.9243 75.8219 81.9456 75.7924C90.0167 67.6567 90.0167 54.5347 81.9456 46.399V46.3984ZM84.9638 62.0583H86.0482C85.8287 66.4212 84.1058 70.5734 81.171 73.8092L80.4114 73.049C80.1687 72.8026 79.8118 72.7047 79.4775 72.7938C79.1432 72.8822 78.8816 73.1438 78.7932 73.4781C78.7048 73.8124 78.802 74.1693 79.0491 74.4114L79.8087 75.1716C76.5728 78.1057 72.4207 79.8293 68.0577 80.0482V78.965C68.0577 78.4325 67.6268 78.0016 67.0943 78.0016C66.5624 78.0016 66.1309 78.4325 66.1309 78.965V80.0488C61.7686 79.8299 57.6158 78.1063 54.3799 75.1722L55.1401 74.412C55.3866 74.1693 55.4845 73.813 55.396 73.4787C55.307 73.1438 55.046 72.8828 54.7117 72.7938C54.3768 72.7053 54.0205 72.8032 53.7778 73.0497L53.0176 73.8099C50.0835 70.574 48.3599 66.4218 48.141 62.0589H49.2255C49.7573 62.0589 50.1889 61.6274 50.1889 61.0955C50.1889 60.5636 49.7573 60.1321 49.2255 60.1321H48.141C48.3599 55.7692 50.0835 51.617 53.0176 48.3811L53.7778 49.1407C54.1554 49.5083 54.7582 49.5045 55.1307 49.1319C55.5033 48.7593 55.5077 48.156 55.1401 47.7784L54.3806 47.0188C57.6164 44.0841 61.7686 42.3611 66.1309 42.1416V43.226C66.1309 43.7579 66.5624 44.1894 67.0943 44.1894C67.6268 44.1894 68.0577 43.7579 68.0577 43.226V42.1416C72.4207 42.3611 76.5728 44.0841 79.8087 47.0188L79.0491 47.7784C78.8001 48.0205 78.7004 48.378 78.7888 48.7142C78.8773 49.0498 79.1394 49.3126 79.4756 49.4004C79.8112 49.4888 80.1687 49.3897 80.4114 49.1407L81.171 48.3811C84.1058 51.617 85.8287 55.7692 86.0482 60.1321H84.9638C84.4319 60.1321 84.0004 60.5636 84.0004 61.0955C84.0004 61.6274 84.4319 62.0589 84.9638 62.0589V62.0583ZM25.1824 64.6987C31.5399 69.3639 37.9877 71.5874 39.3601 72.0296V72.0302C42.1901 71.1139 44.9405 69.966 47.5829 68.5993C44.6294 60.9272 46.4533 52.2358 52.2419 46.3989C52.2639 46.3688 52.2871 46.3406 52.3122 46.3136C52.3392 46.2885 52.3674 46.2653 52.3975 46.2434C56.3038 42.3634 61.5875 40.1869 67.0939 40.1901C67.6602 40.1907 68.2216 40.2139 68.7773 40.2578C68.8062 39.7109 68.8218 39.1583 68.8218 38.6057V21.8872C58.5649 17.4383 48.8518 11.8278 39.8738 5.16488C30.8958 11.8278 21.1827 17.4383 10.9257 21.8872V38.6057C10.9257 44.156 12.3433 49.3236 15.1325 53.9738V53.4532C15.1325 52.9207 15.564 52.4898 16.0959 52.4898C16.6278 52.4898 17.0593 52.9207 17.0593 53.4532V55.2816C17.0593 55.6372 16.863 55.964 16.5494 56.1315C18.7892 59.2556 21.6832 62.1314 25.1824 64.6987Z" fill="#C6C9D0"/>
</g>
</svg>
