<svg width="98" height="102" viewBox="0 0 98 102" fill="none" xmlns="http://www.w3.org/2000/svg">
<mask id="mask0" mask-type="alpha" maskUnits="userSpaceOnUse" x="0" y="0" width="98" height="102">
<rect width="98" height="102" fill="white"/>
</mask>
<g mask="url(#mask0)">
<path d="M25.6434 35.8398L20.9404 22.0757C20.619 21.1351 20.8558 20.1139 21.5586 19.4111C22.2613 18.7084 23.2827 18.4717 24.223 18.7927L28.0978 20.1166C28.9201 20.3977 29.3589 21.292 29.078 22.1141C28.7967 22.9366 27.9027 23.3753 27.0805 23.0944L24.2878 22.1401L28.7072 35.0741C28.9599 35.8134 28.8676 36.6174 28.454 37.2799L21.0134 49.198L35.3451 48.0769C36.2965 48 37.2038 48.4527 37.719 49.2515L44.9779 60.4874L48.6716 48.2529C48.9221 47.4218 49.5678 46.7757 50.3996 46.5244L62.6346 42.8306L51.3983 35.5715C50.5997 35.0552 50.1497 34.1456 50.224 33.1983L51.3453 18.8661L39.4263 26.3071C38.7645 26.7197 37.9606 26.812 37.222 26.5597L33.4389 25.267C32.6166 24.9861 32.1777 24.0917 32.4588 23.2697C32.7397 22.4474 33.6348 22.0077 34.4561 22.2897L37.9871 23.4961L50.6217 15.6083C51.4548 15.0884 52.4929 15.0815 53.3323 15.5906C54.1716 16.1 54.6455 17.0243 54.5691 18.0031L53.3872 33.1104L65.3605 40.8455C66.2166 41.3987 66.6598 42.3693 66.5176 43.3786C66.3754 44.3878 65.6806 45.198 64.7047 45.4925L57.6688 47.6167L95.003 84.9501C95.6175 85.5648 95.6175 86.5608 95.003 87.1752C94.6957 87.4823 94.2929 87.6359 93.8904 87.6359C93.4878 87.6359 93.085 87.4823 92.7777 87.1752L54.2507 48.6484L51.5972 49.4495L50.7961 52.1032L62.5597 63.8669C63.1742 64.4815 63.1742 65.4775 62.5597 66.092C62.2524 66.3991 61.8496 66.5527 61.4471 66.5527C61.0445 66.5527 60.6417 66.3991 60.3344 66.092L49.764 55.5213L47.6398 62.5572C47.3452 63.5329 46.5351 64.2277 45.5258 64.3701C45.4008 64.3877 45.2766 64.3966 45.1535 64.3964C44.2827 64.3964 43.4776 63.9632 42.9928 63.213L35.2575 51.24L20.1501 52.4219C19.1715 52.4972 18.2472 52.0245 17.7381 51.185C17.2288 50.3457 17.2355 49.3071 17.7553 48.4745L25.6434 35.8398Z" fill="#4AA956"/>
<path d="M67.3092 68.616L102.738 104.045C103.764 105.071 105.374 105.132 106.327 104.179C107.279 103.227 107.219 101.617 106.193 100.59L97.5269 91.9248C96.9125 91.3101 96.9125 90.3141 97.5269 89.6997C98.1416 89.0854 99.1376 89.0854 99.752 89.6997L108.418 98.3651C110.671 100.619 110.731 104.225 108.552 106.404C107.486 107.47 106.079 108 104.656 108C103.169 108 101.664 107.421 100.513 106.27L65.0838 70.8411C64.4694 70.2265 64.4694 69.2305 65.0838 68.616C65.6985 68.0018 66.6945 68.0018 67.3092 68.616Z" fill="#4AA956"/>
<path d="M76.3781 33.8461C76.0118 34.0424 75.6034 34.1421 75.1937 34.1421C74.9266 34.1421 74.6585 34.0997 74.402 34.0137L68.2024 31.9388C67.3868 31.6661 66.7758 31.0051 66.5679 30.1704C66.36 29.3359 66.5895 28.4653 67.1817 27.8418L71.8177 22.9599C72.7225 22.0065 74.2212 21.9156 75.2287 22.7535L75.2285 22.7533C78.5797 25.5383 78.3758 29.4768 77.6147 32.2904C77.435 32.9543 76.9843 33.5211 76.3781 33.8461ZM73.6619 25.5876L70.1597 29.2757L74.7397 30.8085C75.0911 29.2029 75.1843 27.1821 73.6619 25.5876Z" fill="#4AA956"/>
<path d="M41.7523 11.6756C41.2811 12.3531 40.5196 12.7496 39.6994 12.7496C39.665 12.7496 39.6306 12.749 39.596 12.7475C38.7365 12.7127 37.9656 12.248 37.5334 11.5046L34.1497 5.68391C33.4896 4.54776 33.8231 3.08456 34.9093 2.35286C34.9093 2.35286 34.9093 2.35265 34.9096 2.35265C38.5238 -0.0811838 42.2463 1.22048 44.7324 2.74095C45.3191 3.09946 45.737 3.69124 45.8786 4.3642C46.0198 5.03633 45.8761 5.74496 45.4842 6.30821L41.7523 11.6756ZM37.1896 4.65223L39.746 9.04916L42.5031 5.08416C41.0606 4.29603 39.1473 3.63921 37.1896 4.65223Z" fill="#4AA956"/>
<path d="M58.7675 11.0055C58.4568 11.3903 58.002 11.5898 57.543 11.5898C57.1958 11.5898 56.8461 11.4752 56.5549 11.2399C55.879 10.6936 55.7742 9.70302 56.3206 9.02733L59.187 5.48189C59.7331 4.80619 60.7236 4.7011 61.3995 5.24757C62.0754 5.79383 62.1803 6.78439 61.6339 7.46009L58.7675 11.0055Z" fill="#4AA956"/>
<path d="M29.841 65.1826C30.4647 64.5908 31.3351 64.3613 32.1698 64.5688C33.0045 64.7767 33.6655 65.3877 33.9382 66.2032L36.0131 72.4029C36.2308 73.0532 36.1698 73.7732 35.8457 74.3784C35.521 74.9848 34.9541 75.4354 34.29 75.6154C33.0754 75.9439 31.986 76.0853 31.0091 76.0853C27.8876 76.0853 25.9241 74.6383 24.7529 73.2294C23.9155 72.2219 24.0059 70.7236 24.9593 69.8185L29.841 65.1826ZM32.8075 72.7404L31.2747 68.1604L27.5866 71.6626C29.1815 73.1854 31.2023 73.0922 32.8075 72.7404Z" fill="#4AA956"/>
<path d="M4.35205 32.91C4.35205 32.9098 4.35226 32.9098 4.35205 32.91C5.08396 31.8234 6.54695 31.4901 7.68373 32.1502L13.5042 35.5342C14.2477 35.9663 14.7123 36.7372 14.7469 37.5967C14.7818 38.4559 14.3809 39.2619 13.675 39.7526L8.30824 43.4845C7.88659 43.7778 7.38417 43.9322 6.87609 43.9322C6.70512 43.9322 6.53331 43.9145 6.36423 43.8791C5.69106 43.7375 5.09928 43.3198 4.74077 42.7333C1.98514 38.2287 3.00843 34.905 4.35205 32.91ZM7.08335 40.5034L11.0486 37.746L6.65142 35.1897C5.63819 37.148 6.29501 39.0609 7.08335 40.5034Z" fill="#4AA956"/>
<path d="M7.48152 57.1878L11.027 54.3214C11.7031 53.7747 12.6934 53.8798 13.2395 54.5557C13.7857 55.2314 13.6809 56.222 13.0052 56.7682L9.45972 59.6346C9.16855 59.87 8.81885 59.9845 8.47167 59.9845C8.01268 59.9845 7.55809 59.785 7.2472 59.4003C6.70073 58.7246 6.80562 57.7338 7.48152 57.1878Z" fill="#4AA956"/>
<path d="M11.2235 9.89182C11.817 9.25746 12.8128 9.22369 13.4474 9.81777L17.3805 13.4975C18.0149 14.0911 18.0482 15.0867 17.4545 15.7213C17.1447 16.0524 16.7256 16.2198 16.3052 16.2198C15.9202 16.2198 15.534 16.0792 15.2307 15.7954L11.2976 12.1157C10.663 11.5218 10.6296 10.5262 11.2235 9.89182Z" fill="#4AA956"/>
</g>
</svg>
