<svg width="86" height="103" viewBox="0 0 86 103" fill="none" xmlns="http://www.w3.org/2000/svg">
<mask id="mask0" mask-type="alpha" maskUnits="userSpaceOnUse" x="0" y="0" width="86" height="103">
<rect width="86" height="103" fill="white"/>
</mask>
<g mask="url(#mask0)">
<path d="M117.688 64.3312C117.108 61.5892 114.143 59.3822 108.771 57.7548C104.268 56.3949 98.6051 55.5924 92.3631 55.4586L91.7612 30.0892C90.9363 27.5924 87.9713 25.5637 82.9554 24.0478C77.9395 22.5319 71.4076 21.707 64.5191 21.707C57.6529 21.707 51.1656 22.5319 46.2612 24.0478C42.2261 25.2962 37.3885 27.6147 37.3885 31.6051C37.3885 31.8503 37.4108 32.0955 37.4554 32.3408L37.7006 42.5064C36.051 42.1943 34.379 42.0382 32.6847 42.0382C17.9713 42.0382 6 54.0096 6 68.7229C6 83.4586 17.9268 95.4076 32.6624 95.4076C38.793 95.4076 44.7452 93.2898 49.4936 89.4331C53.6847 90.414 58.6115 90.949 63.828 90.9936C64.965 97.1688 78.3631 100 90.8471 100C97.7134 100 104.178 99.1529 109.127 97.637C113.207 96.3885 118 94.0478 118 90.0573L117.688 64.3312ZM47.5096 28.328C52.0127 26.9459 58.0541 26.1656 64.4745 26.1656C70.828 26.1656 77.0924 26.9459 81.6401 28.328C86.5 29.7994 87.5478 31.3153 87.5478 31.6274C87.5478 31.9395 86.5 33.4554 81.6401 34.9268C77.1146 36.2866 70.8503 37.0892 64.4968 37.0892C58.3439 37.0892 52.5032 36.3758 48.0669 35.0828C43.2739 33.7006 41.914 32.1624 41.8026 31.672C41.8026 31.6497 41.7803 31.6274 41.758 31.6051C41.758 31.1369 43.2516 29.6433 47.5096 28.328ZM87.9045 37.1338V42.707C87.6592 43.086 87.5478 43.5096 87.5478 43.9554C87.5478 44.2452 86.5 45.7834 81.6624 47.2548C77.1369 48.6369 70.8726 49.4172 64.5191 49.4172C59.0127 49.4172 53.6178 48.8376 49.3376 47.7452C49.2707 47.7229 49.2038 47.7229 49.1592 47.7006C47.0637 46.0287 44.7006 44.6911 42.2038 43.7548L42.0478 37.4682C43.586 38.2484 45.1911 38.8726 46.8631 39.3185C51.7006 40.7229 57.965 41.4809 64.5414 41.4809C71.4299 41.4809 77.9618 40.6561 82.9554 39.1401C84.6497 38.6943 86.3217 38.0032 87.9045 37.1338ZM47.621 85.1529C38.5478 93.4236 24.4809 92.7548 16.2325 83.6815C7.98408 74.6083 8.63057 60.5414 17.7038 52.293C21.8057 48.5701 27.1338 46.4968 32.6624 46.4968C34.8917 46.4968 37.0987 46.8312 39.2389 47.4777C42.1369 48.3694 44.8344 49.8631 47.1306 51.8694C50.8758 55.0573 53.4395 59.4268 54.4427 64.242C54.7325 65.7134 54.8885 67.2293 54.8885 68.7229C54.9108 74.9873 52.258 80.9618 47.621 85.1529ZM53.2834 85.6433C55.0892 83.4363 56.5382 80.9618 57.5637 78.3089C59.4809 78.465 61.4873 78.5764 63.5605 78.5987C63.5159 78.8662 63.5159 79.1115 63.5605 79.379L63.6497 86.5573C60.1943 86.5127 56.7389 86.2229 53.2834 85.6433ZM59.2357 66.0701C60.551 66.1592 61.9108 66.2038 63.3153 66.2261C63.3376 66.3822 63.3822 66.5382 63.4268 66.6943L63.5159 74.1178C61.9108 74.0956 60.328 74.0287 58.8344 73.9172C59.1688 72.2006 59.3471 70.4395 59.3471 68.7006C59.3471 67.8312 59.3025 66.9618 59.2357 66.0701ZM64.6752 61.7898C64.6083 61.7898 64.5637 61.7898 64.4968 61.7898C62.3344 61.7898 60.2834 61.7006 58.3662 61.5446C57.5414 58.5796 56.1815 55.7707 54.3981 53.2516C57.742 53.6752 61.1306 53.8981 64.4968 53.8981C71.3854 53.8981 77.9172 53.0733 82.9108 51.5573C84.6497 51.0669 86.2994 50.3758 87.8822 49.5064V55.4586C82.3089 55.6147 77.0701 56.328 72.9013 57.5096C68.9777 58.6242 66.2357 60.051 64.6752 61.7898ZM67.7516 65.1115C68.1306 64.4204 69.8026 63.0605 74.1497 61.8567C78.5191 60.6306 84.2038 59.9618 90.1783 59.9618H90.3567C96.7325 59.9618 102.975 60.6975 107.5 62.0796C112.182 63.5064 113.318 64.9331 113.385 65.3121V65.3344C113.363 65.6688 112.271 67.207 107.322 68.6783C102.752 70.0382 96.7102 70.7739 90.3567 70.7739C84.449 70.7739 78.7643 70.1051 74.3949 68.9236C70.2038 67.7866 68.3981 66.4713 67.8631 65.7134C67.8631 65.5127 67.8185 65.3121 67.7516 65.1115ZM113.541 90.035C113.541 90.3471 112.561 91.8854 107.812 93.3567C103.264 94.7612 97.2452 95.5414 90.8248 95.5414C84.3822 95.5414 78.3854 94.7834 73.9045 93.4236C69.6465 92.1083 68.2197 90.637 68.2197 90.1465C68.2197 90.1242 68.2197 90.1242 68.2197 90.1019L68.1975 88.742L68.1306 83.7038C69.914 84.5733 71.7643 85.242 73.6815 85.7102C78.3631 86.9363 84.2707 87.6051 90.3567 87.6051C97.2452 87.6051 103.71 86.7803 108.704 85.2643C110.331 84.7739 112.204 84.1051 113.541 83.2357V90.035ZM113.252 77.6847C113.252 77.9968 112.226 79.5127 107.433 80.9841C102.863 82.3662 96.7994 83.1242 90.3344 83.1242C78.207 83.1242 69.9586 80.4268 68.0414 78.2866L67.9522 71.242C73.2134 73.9841 82.0637 75.2325 90.3567 75.2325C97.1338 75.2325 103.576 74.4299 108.548 72.9586C110.287 72.4682 111.959 71.7994 113.564 70.9299V76.5032C113.541 76.8376 113.252 77.2389 113.252 77.6847Z" fill="#4AA956"/>
<path d="M32.6851 53.9873C24.5481 53.9873 17.9717 60.5861 17.9717 68.7007C17.9717 76.8154 24.5704 83.4141 32.6851 83.4141C40.7997 83.4141 47.3984 76.8154 47.3984 68.7007C47.3761 60.5861 40.7997 54.0096 32.6851 53.9873ZM32.6851 78.9778C27.0226 78.9778 22.4303 74.3854 22.4303 68.723C22.4303 63.0606 27.0226 58.4682 32.6851 58.4682C38.3475 58.4682 42.9398 63.0606 42.9398 68.723C42.9398 74.3854 38.3475 78.9778 32.6851 78.9778Z" fill="#4AA956"/>
</g>
</svg>
