<svg width="97" height="100" viewBox="0 0 97 100" fill="none" xmlns="http://www.w3.org/2000/svg">
<mask id="mask0" mask-type="alpha" maskUnits="userSpaceOnUse" x="0" y="0" width="97" height="100">
<rect width="97" height="100" fill="white"/>
</mask>
<g mask="url(#mask0)">
<path d="M114.398 12.7473H107.558V10.2208C107.558 9.89703 107.428 9.58651 107.198 9.35757C106.968 9.12862 106.655 9 106.329 9H69.2485C68.9227 9 68.6103 9.12862 68.3799 9.35757C68.1496 9.58651 68.0202 9.89703 68.0202 10.2208V12.7473H59.1324C57.7212 12.7487 56.3682 13.3066 55.3703 14.2984C54.3724 15.2901 53.8112 16.6349 53.8097 18.0375V26.8338C51.1181 24.7759 47.9003 23.5083 44.5209 23.1749C41.1416 22.8414 37.7358 23.4553 34.6896 24.947C31.6433 26.4388 29.0783 28.7487 27.2852 31.6151C25.4921 34.4815 24.5427 37.7897 24.5444 41.165V46.6369C23.85 46.8785 23.2279 47.2896 22.7351 47.8324C22.2423 48.3753 21.8945 49.0324 21.7238 49.7436C21.4061 51.0348 21.5726 52.3968 22.1923 53.5747C22.8119 54.7526 23.8422 55.6657 25.0903 56.1431V57.3106C25.0925 60.4874 25.9521 63.6054 27.5794 66.3396C29.2067 69.0737 31.5422 71.324 34.3423 72.8557V78.2189L24.6525 82.329C24.6297 82.3387 24.6074 82.3493 24.5855 82.3599C23.0296 83.1394 21.7001 84.3014 20.7233 85.7354C19.7464 87.1694 19.1547 88.8279 19.0043 90.5532C19.0014 90.5868 19 90.6207 19 90.6549V101.931C19 102.255 19.1294 102.566 19.3598 102.795C19.5901 103.024 19.9025 103.152 20.2283 103.152H66.6518C66.9776 103.152 67.29 103.024 67.5204 102.795C67.7507 102.566 67.8802 102.255 67.8802 101.931V90.8441H114.398C115.809 90.8426 117.162 90.2848 118.16 89.293C119.158 88.3012 119.719 86.9565 119.721 85.5539V18.0371C119.719 16.6346 119.158 15.29 118.16 14.2983C117.162 13.3066 115.809 12.7488 114.398 12.7473ZM70.4768 11.4416H105.101V15.9963H70.4768V11.4416ZM27.001 41.165C27.001 37.0176 28.6586 33.04 31.6093 30.1074C34.5599 27.1747 38.5619 25.5272 42.7347 25.5272C46.9076 25.5272 50.9095 27.1747 53.8602 30.1074C56.8108 33.04 58.4685 37.0176 58.4685 41.165V46.7229C55.4247 47.0499 46.1332 47.5433 38.6723 42.6263C43.7988 41.9471 50.048 40.3828 54.6828 36.85C54.8145 36.7538 54.9256 36.6325 55.0096 36.4932C55.0935 36.3538 55.1486 36.1992 55.1716 36.0384C55.1947 35.8776 55.1852 35.7138 55.1438 35.5567C55.1024 35.3996 55.0298 35.2522 54.9304 35.1233C54.8309 34.9944 54.7066 34.8866 54.5647 34.806C54.4228 34.7255 54.2661 34.6739 54.1039 34.6543C53.9417 34.6347 53.7771 34.6474 53.6199 34.6918C53.4627 34.7362 53.316 34.8113 53.1884 34.9128C44.7567 41.3402 29.6938 40.6622 29.5436 40.6543C29.2202 40.638 28.9035 40.7491 28.6621 40.9634C28.4206 41.1778 28.274 41.4781 28.2538 41.7992L27.8853 47.8286L27.0839 47.4196C27.0632 47.4092 27.0451 47.3943 27.0309 47.376C27.0168 47.3577 27.0069 47.3366 27.002 47.314L27.001 41.165ZM27.5469 57.3106V55.2188C27.547 54.9315 27.4451 54.6534 27.2592 54.4334C27.0733 54.2134 26.8153 54.0656 26.5305 54.0161C26.1215 53.9438 25.7317 53.7889 25.3852 53.5611C25.0388 53.3332 24.743 53.0372 24.5161 52.6913C24.2892 52.3454 24.1361 51.9569 24.0663 51.5498C23.9964 51.1428 24.0112 50.7259 24.1097 50.3247C24.1757 50.035 24.309 49.7647 24.499 49.5353C24.6889 49.306 24.9303 49.1241 25.2038 49.0042C25.4172 49.2453 25.6741 49.4446 25.9612 49.5918L27.9674 50.6155C28.1976 50.733 28.4533 50.7923 28.712 50.7879C28.9707 50.7836 29.2244 50.7159 29.4504 50.5907C29.6764 50.4656 29.8679 50.2869 30.0077 50.0705C30.1476 49.8542 30.2315 49.6069 30.2521 49.3505C30.2521 49.3428 30.2533 49.3353 30.2537 49.3275L30.6339 43.1248C31.637 43.1341 33.1883 43.1179 35.0742 42.9872C45.1064 51.4695 59.3039 49.1011 59.9111 48.9951C60.0384 48.9718 60.1611 48.9286 60.2747 48.8671C60.6393 48.9417 60.9747 49.1187 61.2411 49.3771C61.5076 49.6354 61.6939 49.9643 61.7779 50.3247C61.8766 50.7258 61.8915 51.1428 61.8217 51.5499C61.7519 51.957 61.5988 52.3455 61.372 52.6914C61.1451 53.0374 60.8493 53.3334 60.5028 53.5612C60.1563 53.7891 59.7664 53.9439 59.3574 54.0161C59.0726 54.0656 58.8146 54.2134 58.6287 54.4334C58.4428 54.6534 58.3409 54.9315 58.3409 55.2188V57.3106C58.3261 61.3595 56.6974 65.2374 53.8116 68.0952C50.9258 70.9529 47.0182 72.5575 42.9445 72.5575C38.8708 72.5575 34.9631 70.9529 32.0773 68.0952C29.1915 65.2374 27.5628 61.3595 27.548 57.3106H27.5469ZM53.8103 71.3785V78.7581L52.5378 78.2185V72.2687C52.9755 71.9903 53.3997 71.6936 53.8103 71.3785ZM50.0812 73.5741V77.9572C45.8262 79.6939 41.054 79.6939 36.7989 77.9572V73.9717C41.1128 75.5431 45.8703 75.4007 50.0812 73.5741ZM65.4235 100.711H21.4566V90.7062C21.5781 89.4131 22.0265 88.1715 22.7602 87.0968C23.494 86.0221 24.4892 85.1493 25.6533 84.5594L35.8818 80.2206C40.7257 82.1943 46.1565 82.1943 51.0004 80.2206L61.2291 84.5596C62.3928 85.1497 63.3876 86.0226 64.1209 87.0972C64.8543 88.1719 65.3023 89.4133 65.4235 90.7062V100.711ZM117.264 85.5544C117.264 86.3096 116.961 87.0338 116.424 87.5678C115.887 88.1019 115.158 88.4022 114.398 88.4029H67.4468C67.0388 87.1041 66.3725 85.9 65.4875 84.862C64.6025 83.8239 63.5167 82.9731 62.2946 82.3599C62.2727 82.3487 62.2504 82.3395 62.2277 82.329L56.2669 79.8003V69.1084C59.1871 65.8644 60.8001 61.6634 60.7965 57.3106V56.1431C62.0446 55.6658 63.0749 54.7527 63.6946 53.5749C64.3142 52.397 64.4808 51.0351 64.1631 49.744C63.9752 48.9608 63.5735 48.2444 63.0021 47.6736C62.4308 47.1028 61.7121 46.6997 60.9251 46.5089V41.165C60.9287 36.7076 59.269 32.4072 56.2669 29.0958V18.0371C56.2677 17.2818 56.5698 16.5577 57.1072 16.0236C57.6445 15.4895 58.3731 15.1892 59.133 15.1885H68.0208V17.2167C68.0208 17.5405 68.1502 17.851 68.3806 18.0799C68.6109 18.3089 68.9233 18.4375 69.2491 18.4375H106.329C106.655 18.4375 106.968 18.3089 107.198 18.0799C107.428 17.851 107.558 17.5405 107.558 17.2167V15.1889H114.398C115.158 15.1896 115.887 15.49 116.424 16.024C116.961 16.5581 117.264 17.2822 117.264 18.0375V85.5544Z" fill="#4AA956"/>
<path d="M91.3905 52.7917H94.4057C94.7317 52.7917 95.0445 52.6187 95.275 52.3107C95.5056 52.0027 95.6351 51.585 95.6351 51.1495C95.6351 50.714 95.5056 50.2963 95.275 49.9883C95.0445 49.6803 94.7317 49.5073 94.4057 49.5073H91.3905C91.0645 49.5073 90.7518 49.6803 90.5212 49.9883C90.2907 50.2963 90.1611 50.714 90.1611 51.1495C90.1611 51.585 90.2907 52.0027 90.5212 52.3107C90.7518 52.6187 91.0645 52.7917 91.3905 52.7917Z" fill="#4AA956"/>
<path d="M100.983 64.8345C101.307 64.8345 101.618 64.7191 101.847 64.5138C102.076 64.3085 102.204 64.03 102.204 63.7397C102.204 63.4493 102.076 63.1708 101.847 62.9655C101.618 62.7602 101.307 62.6449 100.983 62.6449H84.8137C84.4899 62.6449 84.1794 62.7602 83.9504 62.9655C83.7214 63.1708 83.5928 63.4493 83.5928 63.7397C83.5928 64.03 83.7214 64.3085 83.9504 64.5138C84.1794 64.7191 84.4899 64.8345 84.8137 64.8345H100.983Z" fill="#4AA956"/>
<path d="M79.8896 62.6449H78.5374C78.136 62.6449 77.751 62.7602 77.4672 62.9655C77.1834 63.1708 77.0239 63.4493 77.0239 63.7397C77.0239 64.03 77.1834 64.3085 77.4672 64.5138C77.751 64.7191 78.136 64.8345 78.5374 64.8345H79.8896C80.291 64.8345 80.676 64.7191 80.9598 64.5138C81.2436 64.3085 81.4031 64.03 81.4031 63.7397C81.4031 63.4493 81.2436 63.1708 80.9598 62.9655C80.676 62.7602 80.291 62.6449 79.8896 62.6449Z" fill="#4AA956"/>
<path d="M67.2181 62.6449C66.9153 62.6449 66.6248 62.7602 66.4106 62.9655C66.1965 63.1708 66.0762 63.4493 66.0762 63.7397C66.0762 64.03 66.1965 64.3085 66.4106 64.5138C66.6248 64.7191 66.9153 64.8345 67.2181 64.8345H73.6926C73.9954 64.8345 74.2859 64.7191 74.5 64.5138C74.7142 64.3085 74.8345 64.03 74.8345 63.7397C74.8345 63.4493 74.7142 63.1708 74.5 62.9655C74.2859 62.7602 73.9954 62.6449 73.6926 62.6449H67.2181Z" fill="#4AA956"/>
<path d="M96.6173 74.6876H95.7487C95.4283 74.6876 95.121 74.8606 94.8944 75.1686C94.6678 75.4765 94.5405 75.8942 94.5405 76.3298C94.5405 76.7653 94.6678 77.183 94.8944 77.491C95.121 77.7989 95.4283 77.9719 95.7487 77.9719H96.6167C96.9372 77.9719 97.2445 77.7989 97.471 77.491C97.6976 77.183 97.8249 76.7653 97.8249 76.3298C97.8249 75.8942 97.6976 75.4765 97.471 75.1686C97.2445 74.8606 96.9372 74.6876 96.6167 74.6876H96.6173Z" fill="#4AA956"/>
<path d="M93.2153 74.6876H86.0126C85.6612 74.6876 85.3241 74.8606 85.0756 75.1686C84.8271 75.4765 84.6875 75.8942 84.6875 76.3298C84.6875 76.7653 84.8271 77.183 85.0756 77.491C85.3241 77.7989 85.6612 77.9719 86.0126 77.9719H93.2155C93.567 77.9719 93.904 77.7989 94.1525 77.491C94.401 77.183 94.5406 76.7653 94.5406 76.3298C94.5406 75.8942 94.401 75.4765 94.1525 75.1686C93.904 74.8606 93.567 74.6876 93.2155 74.6876H93.2153Z" fill="#4AA956"/>
<path d="M80.2124 74.6876H67.267C66.9512 74.6876 66.6483 74.8606 66.425 75.1686C66.2016 75.4765 66.0762 75.8942 66.0762 76.3298C66.0762 76.7653 66.2016 77.183 66.425 77.491C66.6483 77.7989 66.9512 77.9719 67.267 77.9719H80.2124C80.5283 77.9719 80.8312 77.7989 81.0545 77.491C81.2778 77.183 81.4033 76.7653 81.4033 76.3298C81.4033 75.8942 81.2778 75.4765 81.0545 75.1686C80.8312 74.8606 80.5283 74.6876 80.2124 74.6876Z" fill="#4AA956"/>
<path d="M93.5557 40.749H102.094C102.414 40.749 102.72 40.6913 102.946 40.5887C103.172 40.486 103.299 40.3468 103.299 40.2016C103.299 40.0564 103.172 39.9172 102.946 39.8145C102.72 39.7119 102.414 39.6542 102.094 39.6542H93.5557C93.2362 39.6542 92.9298 39.7119 92.7039 39.8145C92.478 39.9172 92.3511 40.0564 92.3511 40.2016C92.3511 40.3468 92.478 40.486 92.7039 40.5887C92.9298 40.6913 93.2362 40.749 93.5557 40.749Z" fill="#4AA956"/>
<path d="M93.6197 30.8959H94.3668C94.7033 30.8959 95.0259 30.7229 95.2639 30.4149C95.5018 30.1069 95.6355 29.6892 95.6355 29.2537C95.6355 28.8182 95.5018 28.4005 95.2639 28.0925C95.0259 27.7845 94.7033 27.6115 94.3668 27.6115H93.6197C93.2833 27.6115 92.9606 27.7845 92.7227 28.0925C92.4847 28.4005 92.3511 28.8182 92.3511 29.2537C92.3511 29.6892 92.4847 30.1069 92.7227 30.4149C92.9606 30.7229 93.2833 30.8959 93.6197 30.8959Z" fill="#4AA956"/>
<path d="M75.9295 52.7916C78.5279 52.7916 81.0679 51.989 83.2283 50.4853C85.3888 48.9816 87.0726 46.8443 88.067 44.3437C89.0613 41.8431 89.3215 39.0916 88.8146 36.4369C88.3077 33.7823 87.0564 31.3439 85.2191 29.4301C83.3818 27.5162 81.0409 26.2128 78.4925 25.6848C75.9441 25.1568 73.3026 25.4278 70.902 26.4635C68.5014 27.4993 66.4496 29.2533 65.0061 31.5038C63.5625 33.7543 62.792 36.4001 62.792 39.1067C62.7959 42.7349 64.1813 46.2134 66.6442 48.7789C69.1071 51.3444 72.4464 52.7875 75.9295 52.7916ZM75.9295 27.91C78.0554 27.91 80.1336 28.5667 81.9013 29.797C83.6689 31.0273 85.0466 32.776 85.8602 34.8219C86.6737 36.8679 86.8866 39.1192 86.4718 41.2911C86.0571 43.4631 85.0334 45.4581 83.5301 47.024C82.0268 48.5899 80.1116 49.6563 78.0265 50.0883C75.9414 50.5204 73.7802 50.2986 71.8161 49.4512C69.852 48.6037 68.1732 47.1686 66.9921 45.3273C65.811 43.486 65.1806 41.3212 65.1806 39.1067C65.1839 36.1382 66.3174 33.2923 68.3325 31.1932C70.3476 29.0941 73.0797 27.9134 75.9295 27.91Z" fill="#4AA956"/>
<path d="M71.9562 44.7488C72.1757 44.9917 72.4734 45.1281 72.7838 45.1281C73.0942 45.1281 73.3919 44.9917 73.6114 44.7488L82.1618 35.2886C82.3784 35.045 82.4992 34.7167 82.4979 34.3751C82.4967 34.0335 82.3735 33.7062 82.1551 33.4647C81.9368 33.2231 81.641 33.0868 81.3323 33.0854C81.0235 33.084 80.7267 33.2177 80.5066 33.4573L72.7839 42.0018L70.2749 39.226C70.1668 39.103 70.0376 39.0051 69.895 38.9378C69.7524 38.8706 69.5991 38.8353 69.4441 38.8341C69.289 38.833 69.1353 38.8659 68.9919 38.931C68.8484 38.9961 68.7181 39.0921 68.6085 39.2133C68.4989 39.3346 68.4121 39.4788 68.3532 39.6375C68.2944 39.7962 68.2646 39.9663 68.2657 40.1378C68.2667 40.3093 68.2985 40.4789 68.3593 40.6367C68.4201 40.7946 68.5086 40.9374 68.6197 41.0571L71.9562 44.7488Z" fill="#4AA956"/>
</g>
</svg>
