<svg width="21" height="21" viewBox="0 0 21 21" fill="none" xmlns="http://www.w3.org/2000/svg">
<path d="M9.47266 14.9213C9.47266 15.1193 9.63309 15.2795 9.83083 15.2795C10.0288 15.2795 10.189 15.1193 10.189 14.9213V13.5945C10.189 13.3968 10.0288 13.2363 9.83083 13.2363C9.63309 13.2363 9.47266 13.3968 9.47266 13.5945V14.9213Z" fill="#FCD600"/>
<path d="M9.47266 12.7184C9.47266 12.9162 9.63309 13.0766 9.83083 13.0766C10.0288 13.0766 10.189 12.9162 10.189 12.7184V12.1073C10.189 11.9093 10.0288 11.7491 9.83083 11.7491C9.63309 11.7491 9.47266 11.9093 9.47266 12.1073V12.7184Z" fill="#FCD600"/>
<path d="M9.83083 11.4021C10.0288 11.4021 10.189 11.2417 10.189 11.0439V9.14418C10.189 8.94644 10.0288 8.78601 9.83083 8.78601C9.63309 8.78601 9.47266 8.94644 9.47266 9.14418V11.0439C9.47266 11.2417 9.63309 11.4021 9.83083 11.4021Z" fill="#FCD600"/>
<path d="M7.67969 14.3817C7.67969 14.5795 7.83989 14.7399 8.03786 14.7399C8.2356 14.7399 8.39603 14.5795 8.39603 14.3817V14.2754C8.39603 14.0777 8.2356 13.9172 8.03786 13.9172C7.83989 13.9172 7.67969 14.0777 7.67969 14.2754V14.3817Z" fill="#FCD600"/>
<path d="M8.03786 13.5229C8.2356 13.5229 8.39603 13.3625 8.39603 13.1648V10.0487C8.39603 9.85075 8.2356 9.69055 8.03786 9.69055C7.83989 9.69055 7.67969 9.85075 7.67969 10.0487V13.1648C7.67969 13.3625 7.83989 13.5229 8.03786 13.5229Z" fill="#FCD600"/>
<path d="M11.1465 13.6183C11.1465 13.8161 11.3069 13.9765 11.5047 13.9765C11.7026 13.9765 11.8628 13.8161 11.8628 13.6183V12.3908C11.8628 12.1931 11.7026 12.0327 11.5047 12.0327C11.3069 12.0327 11.1465 12.1931 11.1465 12.3908V13.6183Z" fill="#FCD600"/>
<path d="M11.5047 11.6274C11.7026 11.6274 11.8628 11.4669 11.8628 11.2692V9.55086C11.8628 9.35289 11.7026 9.19269 11.5047 9.19269C11.3069 9.19269 11.1465 9.35289 11.1465 9.55086V11.2692C11.1465 11.4669 11.3069 11.6274 11.5047 11.6274Z" fill="#FCD600"/>
<path d="M9.49114 2.50092L6.60081 5.58036C6.50171 5.68599 6.47605 5.84082 6.53575 5.97281C6.59545 6.10456 6.72859 6.1878 6.8734 6.18314L7.65177 6.15842L7.67882 9.19706C7.68046 9.39363 7.84042 9.55196 8.03699 9.55196H8.04026C8.238 9.5501 8.3968 9.3885 8.39517 9.19053L8.36485 5.78556C8.36392 5.68902 8.32428 5.59715 8.25479 5.53022C8.18507 5.46353 8.09156 5.42762 7.99525 5.43065L7.71497 5.43951L9.76839 3.25177L11.9561 5.30543L11.494 5.31989C11.3007 5.32619 11.147 5.48475 11.1472 5.67806V8.58681C11.1472 8.78478 11.3074 8.94498 11.5054 8.94498C11.7031 8.94498 11.8636 8.78478 11.8636 8.58681V6.02527L12.8432 5.99426C12.988 5.9896 13.1155 5.89842 13.1668 5.76294C13.2179 5.62746 13.1825 5.47449 13.0768 5.37539L9.99738 2.48483C9.85327 2.34935 9.62662 2.35658 9.49114 2.50092Z" fill="#FCD600"/>
<path d="M17.3521 17.9061V16.0061C17.3521 15.8081 17.1919 15.6479 16.9939 15.6479C16.7962 15.6479 16.6357 15.8081 16.6357 16.0061V17.9061C16.6357 18.1041 16.7962 18.2643 16.9939 18.2643C17.1919 18.2643 17.3521 18.1041 17.3521 17.9061Z" fill="#FCD600"/>
<path d="M17.3521 11.2067C17.3521 11.009 17.1919 10.8486 16.9939 10.8486C16.7962 10.8486 16.6357 11.009 16.6357 11.2067V14.6803C16.6357 14.878 16.7962 15.0384 16.9939 15.0384C17.1919 15.0384 17.3521 14.878 17.3521 14.6803V11.2067Z" fill="#FCD600"/>
<path d="M17.3521 9.7195C17.3521 9.52153 17.1919 9.36133 16.9939 9.36133C16.7962 9.36133 16.6357 9.52153 16.6357 9.7195V10.3307C16.6357 10.5284 16.7962 10.6889 16.9939 10.6889C17.1919 10.6889 17.3521 10.5284 17.3521 10.3307V9.7195Z" fill="#FCD600"/>
<path d="M17.3521 6.75643C17.3521 6.55869 17.1919 6.39825 16.9939 6.39825C16.7962 6.39825 16.6357 6.55869 16.6357 6.75643V8.65618C16.6357 8.85393 16.7962 9.01436 16.9939 9.01436C17.1919 9.01436 17.3521 8.85393 17.3521 8.65618V6.75643Z" fill="#FCD600"/>
<path d="M14.8428 13.7848C14.8428 13.9826 15.003 14.143 15.2009 14.143C15.3987 14.143 15.5591 13.9826 15.5591 13.7848V11.8877C15.5591 11.6899 15.3987 11.5295 15.2009 11.5295C15.003 11.5295 14.8428 11.6899 14.8428 11.8877V13.7848Z" fill="#FCD600"/>
<path d="M15.2009 11.1351C15.3987 11.1351 15.5591 10.9746 15.5591 10.7769V7.66085C15.5591 7.46287 15.3987 7.30267 15.2009 7.30267C15.003 7.30267 14.8428 7.46287 14.8428 7.66085V10.7769C14.8428 10.9746 15.003 11.1351 15.2009 11.1351Z" fill="#FCD600"/>
<path d="M19.0269 10.003C19.0269 9.80527 18.8667 9.64484 18.6687 9.64484C18.471 9.64484 18.3105 9.80527 18.3105 10.003V13.8205C18.3105 14.0182 18.471 14.1787 18.6687 14.1787C18.8667 14.1787 19.0269 14.0182 19.0269 13.8205V10.003Z" fill="#FCD600"/>
<path d="M19.0269 15.2301C19.0269 15.0321 18.8667 14.8719 18.6687 14.8719C18.471 14.8719 18.3105 15.0321 18.3105 15.2301V18.556C18.3105 18.754 18.471 18.9141 18.6687 18.9141C18.8667 18.9141 19.0269 18.754 19.0269 18.556V15.2301Z" fill="#FCD600"/>
<path d="M18.6687 19.6186C18.471 19.6186 18.3105 19.779 18.3105 19.9768V20.1848C18.3105 20.3825 18.471 20.5429 18.6687 20.5429C18.8667 20.5429 19.0269 20.3825 19.0269 20.1848V19.9768C19.0269 19.779 18.8667 19.6186 18.6687 19.6186Z" fill="#FCD600"/>
<path d="M19.0269 7.16304C19.0269 6.96507 18.8667 6.80487 18.6687 6.80487C18.471 6.80487 18.3105 6.96507 18.3105 7.16304V8.88138C18.3105 9.07912 18.471 9.23955 18.6687 9.23955C18.8667 9.23955 19.0269 9.07912 19.0269 8.88138V7.16304Z" fill="#FCD600"/>
<path d="M19.0274 3.63752L20.0072 3.60627C20.1518 3.60161 20.2794 3.51043 20.3307 3.37495C20.3817 3.23947 20.3463 3.08673 20.2409 2.98763L17.1614 0.0970705C17.0173 -0.03841 16.7907 -0.0311813 16.6552 0.11316L13.7649 3.1926C13.6658 3.29823 13.6401 3.45307 13.6998 3.58505C13.7595 3.7168 13.8927 3.80005 14.0375 3.79538L14.8163 3.77067L14.8429 6.33244C14.845 6.52878 15.0047 6.68688 15.2011 6.68688H15.2048C15.4025 6.68478 15.5613 6.52295 15.5592 6.32497L15.5289 3.39734C15.528 3.30103 15.4881 3.20939 15.4186 3.1427C15.3491 3.07601 15.2556 3.0401 15.1593 3.04313L14.879 3.05199L16.9327 0.864249L19.1204 2.91791L18.658 2.93237C18.4647 2.93866 18.311 3.09723 18.3113 3.29054V6.19905C18.3113 6.39703 18.4715 6.55723 18.6695 6.55723C18.8672 6.55723 19.0276 6.39703 19.0276 6.19905L19.0274 3.63752Z" fill="#FCD600"/>
<path d="M3.32595 18.2642C3.52369 18.2642 3.68412 18.104 3.68412 17.9061V17.7732C3.68412 17.5754 3.52369 17.415 3.32595 17.415C3.1282 17.415 2.96777 17.5754 2.96777 17.7732V17.9061C2.96777 18.104 3.1282 18.2642 3.32595 18.2642Z" fill="#FCD600"/>
<path d="M3.32595 14.1369C3.1282 14.1369 2.96777 14.2971 2.96777 14.4951V16.3002C2.96777 16.4979 3.1282 16.6583 3.32595 16.6583C3.52369 16.6583 3.68412 16.4979 3.68412 16.3002V14.4951C3.68412 14.2971 3.52369 14.1369 3.32595 14.1369Z" fill="#FCD600"/>
<path d="M3.68412 12.7259C3.68412 12.5282 3.52369 12.3677 3.32595 12.3677C3.1282 12.3677 2.96777 12.5282 2.96777 12.7259V13.4318C2.96777 13.6295 3.1282 13.7899 3.32595 13.7899C3.52369 13.7899 3.68412 13.6295 3.68412 13.4318V12.7259Z" fill="#FCD600"/>
<path d="M1.53298 19.7874C1.335 19.7874 1.1748 19.9478 1.1748 20.1456V20.3513C1.1748 20.549 1.335 20.7094 1.53298 20.7094C1.73072 20.7094 1.89115 20.549 1.89115 20.3513V20.1456C1.89115 19.9478 1.73072 19.7874 1.53298 19.7874Z" fill="#FCD600"/>
<path d="M1.89115 16.6632C1.89115 16.4654 1.73072 16.305 1.53298 16.305C1.335 16.305 1.1748 16.4654 1.1748 16.6632V18.998C1.1748 19.196 1.335 19.3562 1.53298 19.3562C1.73072 19.3562 1.89115 19.196 1.89115 18.998V16.6632Z" fill="#FCD600"/>
<path d="M1.89115 11.0633C1.89115 10.8656 1.73072 10.7051 1.53298 10.7051C1.335 10.7051 1.1748 10.8656 1.1748 11.0633V15.5524C1.1748 15.7503 1.335 15.9105 1.53298 15.9105C1.73072 15.9105 1.89115 15.7503 1.89115 15.5524V11.0633Z" fill="#FCD600"/>
<path d="M5.00075 15.6144C4.80301 15.6144 4.64258 15.7748 4.64258 15.9726V16.0061C4.64258 16.2039 4.80301 16.3643 5.00075 16.3643C5.19872 16.3643 5.35892 16.2039 5.35892 16.0061V15.9726C5.35892 15.7748 5.19872 15.6144 5.00075 15.6144Z" fill="#FCD600"/>
<path d="M5.35892 10.4463C5.35892 10.2483 5.19872 10.0881 5.00075 10.0881C4.80301 10.0881 4.64258 10.2483 4.64258 10.4463V14.8509C4.64258 15.0487 4.80301 15.2091 5.00075 15.2091C5.19872 15.2091 5.35892 15.0487 5.35892 14.8509V10.4463Z" fill="#FCD600"/>
<path d="M5.452 2.91791L4.98959 2.93237C4.79628 2.93866 4.64284 3.09723 4.64284 3.29054V9.18382C4.64284 9.3818 4.80327 9.54199 5.00102 9.54199C5.19876 9.54199 5.35919 9.3818 5.35919 9.18382V3.63752L6.3388 3.60627C6.48361 3.60161 6.61116 3.51043 6.66223 3.37495C6.71353 3.23947 6.67808 3.08673 6.57268 2.98763L3.49324 0.0970705C3.34913 -0.03841 3.12248 -0.0311813 2.987 0.11316L0.0969025 3.1926C-0.00220114 3.29823 -0.0278515 3.45307 0.0318438 3.58505C0.0915392 3.7168 0.224688 3.80005 0.369262 3.79538L1.14623 3.7709L1.17468 9.7929C1.17562 9.98994 1.33558 10.1492 1.53286 10.1492H1.53449C1.73223 10.1483 1.89196 9.98714 1.89103 9.7894L1.86071 3.39944C1.86025 3.30266 1.82084 3.21032 1.75112 3.14317C1.68163 3.07624 1.58789 3.0401 1.49112 3.04313L1.21059 3.05199L3.26425 0.864249L5.452 2.91791Z" fill="#FCD600"/>
</svg>
