<svg width="40" height="40" viewBox="0 0 40 40" fill="none" xmlns="http://www.w3.org/2000/svg">
<rect opacity="0.15" width="40" height="40" fill="black"/>
<path fill-rule="evenodd" clip-rule="evenodd" d="M27.9835 17.128C28.636 16.6771 29.0646 15.9243 29.0646 15.073V14.1417V13.211C29.0646 11.8343 27.9445 10.7143 26.5679 10.7143C25.1912 10.7143 24.0712 11.8343 24.0712 13.211V14.142V15.073C24.0712 15.9243 24.4997 16.6772 25.1522 17.128C24.0586 17.4728 23.1175 18.1846 22.4966 19.1006V18.5414C22.4966 17.1647 21.3766 16.0447 19.9999 16.0447C18.6232 16.0447 17.5032 17.1648 17.5032 18.5414V19.1006C16.8823 18.1847 15.9412 17.4728 14.8475 17.128C15.5 16.6771 15.9286 15.9243 15.9286 15.073V13.211C15.9286 11.8343 14.8086 10.7143 13.4318 10.7143C12.1842 10.7143 11.1474 11.6342 10.9639 12.8313C10.9449 12.9552 10.9351 13.082 10.9351 13.211V15.073C10.9351 15.9243 11.3637 16.6772 12.0162 17.128C10.0466 17.7489 8.57129 19.5603 8.57129 21.6107V23.0643C8.57129 23.2482 8.7204 23.3973 8.90428 23.3973H10.7131C10.897 23.3973 11.0461 23.2482 11.0461 23.0643C11.0461 22.8804 10.897 22.7313 10.7131 22.7313H9.23727V21.6107C9.23727 20.5596 9.68629 19.5542 10.5016 18.7796C10.9771 18.3278 11.5504 17.9891 12.1624 17.7856L12.5603 18.5585L11.985 21.0558C11.958 21.1727 11.9961 21.2952 12.0846 21.3762L13.207 22.4034C13.2706 22.4616 13.3512 22.4908 13.4318 22.4908C13.5124 22.4908 13.5929 22.4617 13.6566 22.4034L14.7789 21.3762C14.8674 21.2951 14.9055 21.1727 14.8786 21.0558L14.3033 18.5586L14.7012 17.7856C15.3132 17.9891 15.8865 18.3277 16.362 18.7796C16.9604 19.3481 17.3612 20.041 17.5322 20.7851C17.5429 20.8543 17.557 20.9224 17.5733 20.9896C17.6083 21.1939 17.6263 21.4013 17.6263 21.6107V22.7313H11.823C11.6391 22.7313 11.49 22.8804 11.49 23.0643C11.49 23.2482 11.6391 23.3973 11.823 23.3973H16.8677C15.8174 24.2712 15.1393 25.5511 15.1393 26.941V28.3946C15.1393 28.5785 15.2884 28.7276 15.4723 28.7276H17.2811C17.465 28.7276 17.6141 28.5785 17.6141 28.3946C17.6141 28.2107 17.465 28.0616 17.2811 28.0616H15.8053V26.941C15.8053 25.8899 16.2543 24.8845 17.0696 24.1099C17.5451 23.6581 18.1184 23.3194 18.7304 23.1159L19.1283 23.8889L18.553 26.3861C18.5261 26.503 18.5642 26.6255 18.6527 26.7065L19.7751 27.7338C19.8387 27.792 19.9193 27.8211 19.9999 27.8211C20.0804 27.8211 20.1611 27.792 20.2247 27.7338L21.347 26.7065C21.4355 26.6255 21.4736 26.503 21.4467 26.3861L20.8714 23.8889L21.2693 23.1159C21.8813 23.3194 22.4546 23.658 22.9301 24.1099C23.7454 24.8845 24.1944 25.8899 24.1944 26.941V28.0616H18.3911C18.2072 28.0616 18.0581 28.2107 18.0581 28.3946C18.0581 28.5785 18.2072 28.7276 18.3911 28.7276H24.5274C24.7113 28.7276 24.8604 28.5785 24.8604 28.3946V26.941C24.8604 25.5511 24.1823 24.2712 23.132 23.3973H24.835C25.0189 23.3973 25.168 23.2482 25.168 23.0643C25.168 22.8804 25.0189 22.7313 24.835 22.7313H22.3734V21.6107C22.3734 21.4012 22.3915 21.1936 22.4265 20.9893C22.4427 20.9222 22.4567 20.8544 22.4674 20.7855C22.6383 20.0413 23.0391 19.3482 23.6376 18.7795C24.1132 18.3277 24.6865 17.9891 25.2985 17.7855L25.6964 18.5585L25.1211 21.0558C25.0941 21.1727 25.1323 21.2951 25.2208 21.3762L26.3431 22.4034C26.4067 22.4617 26.4873 22.4908 26.5679 22.4908C26.6485 22.4908 26.7291 22.4617 26.7927 22.4034L27.915 21.3762C28.0036 21.2952 28.0416 21.1727 28.0147 21.0558L27.4395 18.5585L27.8373 17.7856C28.4494 17.9891 29.0226 18.3278 29.4982 18.7796C30.3134 19.5542 30.7625 20.5596 30.7625 21.6107V22.7313H25.945C25.7611 22.7313 25.612 22.8804 25.612 23.0643C25.612 23.2482 25.7611 23.3973 25.945 23.3973H31.0954C31.2793 23.3973 31.4284 23.2482 31.4284 23.0643V21.6107C31.4284 19.5603 29.9531 17.7489 27.9835 17.128ZM11.6012 13.211C11.6012 12.2016 12.4225 11.3803 13.432 11.3803C14.4415 11.3803 15.2627 12.2016 15.2627 13.211V13.7681C14.4916 13.5779 14.1742 12.784 14.1598 12.747C14.1136 12.6251 14.0005 12.5414 13.8705 12.5327C13.7404 12.5243 13.6172 12.5922 13.5554 12.7069C13.5499 12.7172 13.0227 13.6628 11.6012 13.7939V13.211ZM12.6779 21.016L13.4321 21.7063L14.1864 21.016L13.6868 18.8475H13.1774L12.6779 21.016ZM12.8265 17.6204C12.8914 17.6097 12.9566 17.6007 13.0219 17.5931L13.0496 17.5901C13.1014 17.5845 13.1532 17.58 13.2051 17.5763L13.2179 17.5754C13.228 17.5746 13.2381 17.5739 13.2482 17.5733C13.2908 17.5707 13.3333 17.5694 13.3758 17.5682L13.397 17.5689H13.397H13.397H13.397H13.3971H13.3971H13.3971H13.3971H13.3971H13.3971H13.3971C13.4087 17.5693 13.4202 17.5697 13.4319 17.5697C13.4435 17.5697 13.4551 17.5693 13.4667 17.5689H13.4667L13.4879 17.5682C13.5304 17.5695 13.573 17.5707 13.6154 17.5733L13.6418 17.5751L13.6587 17.5763C13.7106 17.58 13.7623 17.5845 13.814 17.5901L13.8419 17.5931C13.9072 17.6007 13.9723 17.6097 14.0373 17.6204L13.7485 18.1815H13.1153L12.8265 17.6204ZM13.4849 16.9013L13.5049 16.9019C14.4807 16.8635 15.2628 16.0581 15.2627 15.073V14.4482C14.5263 14.331 14.0608 13.8492 13.8012 13.4692C13.4305 13.8595 12.7343 14.3759 11.6012 14.4622V15.073C11.6012 16.0581 12.3833 16.8635 13.3592 16.9019L13.3794 16.9013C13.3954 16.9008 13.4114 16.9003 13.4275 16.9001H13.4275H13.4366C13.4527 16.9003 13.4687 16.9008 13.4847 16.9013L13.4848 16.9013L13.4849 16.9013L13.4849 16.9013ZM18.1693 18.5414C18.1693 17.532 18.9906 16.7107 20.0001 16.7107C20.1894 16.7107 20.372 16.7395 20.5439 16.7932C21.2886 17.0253 21.8308 17.7212 21.8308 18.5415V19.0985C21.0597 18.9083 20.7423 18.1145 20.7279 18.0774C20.6817 17.9556 20.5687 17.8718 20.4386 17.8632C20.3086 17.855 20.1854 17.9226 20.1235 18.0374C20.118 18.0476 19.5909 18.9933 18.1693 19.1244V18.5414H18.1693ZM18.2924 22.2225V22.5607C18.3884 22.5237 18.4857 22.4895 18.5842 22.4584C18.481 22.3871 18.3836 22.3082 18.2924 22.2225ZM19.9998 27.0368L19.2456 26.3464L19.7452 24.1779H20.2546L20.7541 26.3464L19.9998 27.0368ZM19.59 22.9236C19.5247 22.9311 19.4595 22.9402 19.3945 22.9509L19.6833 23.512H20.3165L20.6053 22.9509C20.5404 22.9402 20.4752 22.9312 20.4099 22.9236L20.3821 22.9206C20.3304 22.915 20.2786 22.9105 20.2267 22.9068L20.2165 22.9061L20.2099 22.9056L20.1835 22.9038C20.141 22.9012 20.0985 22.9 20.056 22.8987L20.0348 22.8993L20.0184 22.8999L19.9999 22.9001C19.9883 22.9001 19.9767 22.8997 19.9651 22.8993H19.9651L19.9439 22.8987C19.9014 22.8999 19.8589 22.9012 19.8163 22.9038C19.8062 22.9043 19.7961 22.9051 19.786 22.9058L19.7731 22.9068C19.7213 22.9104 19.6695 22.915 19.6177 22.9206L19.59 22.9236ZM21.7075 22.5606C21.6115 22.5236 21.5143 22.4894 21.4157 22.4584C21.5189 22.3871 21.6163 22.3081 21.7075 22.2224V22.5606ZM21.8099 20.6799C21.8236 20.5897 21.8307 20.4974 21.8307 20.4034H21.8308V19.7786C21.0944 19.6613 20.6289 19.1795 20.3692 18.7996C19.9986 19.1899 19.3024 19.7063 18.1693 19.7926V20.4033C18.1693 20.4972 18.1764 20.5895 18.1901 20.6797C18.2019 20.7325 18.2124 20.7858 18.2222 20.8392C18.4127 21.6162 19.1002 22.1997 19.9272 22.2322L19.9472 22.2316H19.9473H19.9473L19.9692 22.231L19.9955 22.2304H20.0046L20.0264 22.2309L20.0425 22.2313L20.0729 22.2322C20.9 22.1996 21.5876 21.6159 21.778 20.8388C21.7877 20.7856 21.7982 20.7326 21.8099 20.6799ZM24.7374 13.211C24.7374 12.2016 25.5586 11.3803 26.5681 11.3803C27.5776 11.3803 28.3988 12.2016 28.3988 13.211V13.7681C27.6277 13.5778 27.3103 12.784 27.2959 12.747C27.2498 12.6251 27.1367 12.5414 27.0066 12.5328C26.8763 12.5243 26.7534 12.5922 26.6915 12.7069C26.686 12.7172 26.1589 13.6629 24.7374 13.794V13.211H24.7374ZM25.8137 21.016L26.5679 21.7063L27.3222 21.016L26.8226 18.8475H26.3132L25.8137 21.016ZM25.9626 17.6204C26.0276 17.6097 26.0927 17.6007 26.158 17.5931L26.1858 17.5901C26.2376 17.5845 26.2894 17.58 26.3412 17.5763C26.3455 17.576 26.3498 17.5757 26.3542 17.5754C26.3642 17.5746 26.3743 17.5739 26.3844 17.5733C26.4269 17.5707 26.4695 17.5695 26.512 17.5682L26.5332 17.5689C26.5448 17.5693 26.5563 17.5697 26.568 17.5697C26.5797 17.5697 26.5913 17.5693 26.6029 17.5689L26.624 17.5682C26.6666 17.5695 26.7091 17.5707 26.7516 17.5733L26.7781 17.5751L26.7948 17.5763C26.8467 17.58 26.8986 17.5845 26.9503 17.5901L26.978 17.5931C27.0433 17.6007 27.1085 17.6097 27.1735 17.6204L26.8847 18.1815H26.2515L25.9626 17.6204ZM26.621 16.9013C26.6277 16.9015 26.6343 16.9017 26.6409 16.9019C27.6168 16.8635 28.3989 16.0581 28.3988 15.073V14.4482C27.6625 14.331 27.1969 13.8492 26.9373 13.4692C26.5666 13.8595 25.8705 14.3759 24.7374 14.4622V15.073C24.7374 16.0581 25.5195 16.8635 26.4952 16.9019C26.502 16.9017 26.5087 16.9015 26.5155 16.9013C26.5315 16.9008 26.5475 16.9003 26.5635 16.9001H26.5636H26.5726C26.5888 16.9003 26.6049 16.9008 26.621 16.9013Z" fill="#FCD600"/>
</svg>
