<svg width="20" height="23" viewBox="0 0 20 23" fill="none" xmlns="http://www.w3.org/2000/svg">
<path d="M7.54573 17.8834C7.46651 17.8037 7.35657 17.7585 7.2445 17.7585C7.13242 17.7585 7.02248 17.8037 6.94322 17.8834C6.86396 17.9627 6.81836 18.0726 6.81836 18.1847C6.81836 18.2968 6.86391 18.4067 6.94322 18.486C7.02248 18.5652 7.13242 18.6108 7.2445 18.6108C7.35657 18.6108 7.46651 18.5652 7.54573 18.486C7.62499 18.4067 7.67063 18.2968 7.67063 18.1847C7.67063 18.0722 7.62504 17.9627 7.54573 17.8834Z" fill="#FCD600"/>
<path fill-rule="evenodd" clip-rule="evenodd" d="M16.382 4.37661H16.7259C18.2649 4.37661 19.517 5.62873 19.517 7.16781V11.0136C19.517 12.1804 18.6149 13.1397 17.4716 13.2322V13.7942C17.4716 14.0296 17.2808 14.2204 17.0455 14.2204C16.8101 14.2204 16.6193 14.0296 16.6193 13.7942V11.8766H12.6989V21.2516H14.233V14.2204C14.233 13.985 14.4238 13.7942 14.6591 13.7942C14.8944 13.7942 15.0852 13.985 15.0852 14.2204V21.2516H16.6193V17.2033C16.6193 16.968 16.8101 16.7772 17.0455 16.7772C17.2808 16.7772 17.4716 16.968 17.4716 17.2033V21.6778C17.4716 21.9131 17.2808 22.1039 17.0455 22.1039H12.2727C12.0374 22.1039 11.8466 21.9131 11.8466 21.6778V11.4505V7.27434H7.67045V16.5641C7.67045 16.7995 7.47963 16.9903 7.24432 16.9903C7.00901 16.9903 6.81818 16.7995 6.81818 16.5641V11.8766H2.89773V21.2516H4.43182V14.2204C4.43182 13.985 4.62264 13.7942 4.85795 13.7942C5.09327 13.7942 5.28409 13.985 5.28409 14.2204V21.2516H6.81818V19.7601C6.81818 19.5248 7.00901 19.334 7.24432 19.334C7.47963 19.334 7.67045 19.5248 7.67045 19.7601V21.6778C7.67045 21.9131 7.47963 22.1039 7.24432 22.1039H2.47159C2.23628 22.1039 2.04545 21.9131 2.04545 21.6778V13.2323C0.902173 13.1397 0 12.1804 0 11.0137V7.16781C0 5.62873 1.25212 4.37661 2.79119 4.37657H3.13509C2.85443 4.01073 2.68709 3.55366 2.68709 3.05798V2.45657C2.68709 1.25956 3.66094 0.285706 4.85795 0.285706C6.05497 0.285706 7.02882 1.25956 7.02882 2.45657V3.05798C7.02882 3.55362 6.86148 4.01073 6.58082 4.37657H12.9362C12.6556 4.01073 12.4882 3.55366 12.4882 3.05798V2.45657C12.4882 1.25956 13.4621 0.285706 14.6591 0.285706C15.8561 0.285706 16.83 1.25956 16.83 2.45657V3.05802C16.83 3.55366 16.6626 4.01078 16.382 4.37661ZM14.6591 1.13797C13.9321 1.13797 13.3405 1.72949 13.3405 2.45656V3.05801C13.3405 3.78508 13.932 4.3766 14.6591 4.3766C15.3863 4.3766 15.9777 3.78508 15.9777 3.05797V2.45656C15.9777 1.72949 15.3862 1.13797 14.6591 1.13797ZM3.53934 2.45656C3.53934 1.72949 4.13086 1.13797 4.85793 1.13797C5.58501 1.13797 6.17653 1.72949 6.17653 2.45656V3.05797C6.17653 3.78508 5.58505 4.3766 4.85793 4.3766C4.13082 4.3766 3.53934 3.78508 3.53934 3.05801V2.45656ZM17.4717 12.3756C18.1442 12.2866 18.6649 11.71 18.6649 11.0136V7.16772C18.6649 6.09859 17.7951 5.2288 16.726 5.2288H2.79132C1.72219 5.2288 0.8524 6.09859 0.8524 7.16772V11.0136C0.8524 11.71 1.37314 12.2866 2.04558 12.3756V7.5322C2.04558 7.29684 2.23641 7.10606 2.47172 7.10606C2.70703 7.10606 2.89785 7.29684 2.89785 7.5322V11.0243H6.81831V6.84812C6.81831 6.61277 7.00913 6.42198 7.24445 6.42198H12.2729C12.5082 6.42198 12.699 6.61277 12.699 6.84812V11.0243H16.6194V7.5322C16.6194 7.29684 16.8103 7.10606 17.0456 7.10606C17.2809 7.10606 17.4717 7.29684 17.4717 7.5322V11.4504V12.3756Z" fill="#FCD600"/>
<path d="M17.3465 15.2422C17.2673 15.163 17.1574 15.1174 17.0453 15.1174C16.9332 15.1174 16.8233 15.163 16.744 15.2422C16.6647 15.3215 16.6191 15.4314 16.6191 15.5435C16.6191 15.656 16.6647 15.7655 16.744 15.8448C16.8233 15.9245 16.9332 15.9696 17.0453 15.9696C17.1574 15.9696 17.2673 15.9245 17.3465 15.8448C17.4258 15.7655 17.4714 15.656 17.4714 15.5435C17.4714 15.4314 17.4258 15.3215 17.3465 15.2422Z" fill="#FCD600"/>
</svg>
