<svg width="95" height="69" viewBox="0 0 95 69" fill="none" xmlns="http://www.w3.org/2000/svg">
<mask id="mask0" mask-type="alpha" maskUnits="userSpaceOnUse" x="0" y="0" width="95" height="69">
<rect width="95" height="69" fill="white"/>
</mask>
<g mask="url(#mask0)">
<path d="M44.167 69.8459C44.167 70.7063 44.8642 71.4025 45.7236 71.4025C46.5839 71.4025 47.2801 70.7063 47.2801 69.8459V64.0798C47.2801 63.2204 46.5839 62.5232 45.7236 62.5232C44.8642 62.5232 44.167 63.2204 44.167 64.0798V69.8459Z" fill="#C6C9D0"/>
<path d="M44.167 60.2724C44.167 61.1317 44.8642 61.8289 45.7236 61.8289C46.5839 61.8289 47.2801 61.1317 47.2801 60.2724V57.6163C47.2801 56.7559 46.5839 56.0597 45.7236 56.0597C44.8642 56.0597 44.167 56.7559 44.167 57.6163V60.2724Z" fill="#C6C9D0"/>
<path d="M45.7236 54.5518C46.5839 54.5518 47.2801 53.8546 47.2801 52.9953V44.7392C47.2801 43.8799 46.5839 43.1826 45.7236 43.1826C44.8642 43.1826 44.167 43.8799 44.167 44.7392V52.9953C44.167 53.8546 44.8642 54.5518 45.7236 54.5518Z" fill="#C6C9D0"/>
<path d="M36.375 67.5009C36.375 68.3602 37.0712 69.0574 37.9316 69.0574C38.7909 69.0574 39.4881 68.3602 39.4881 67.5009V67.0388C39.4881 66.1794 38.7909 65.4822 37.9316 65.4822C37.0712 65.4822 36.375 66.1794 36.375 67.0388V67.5009Z" fill="#C6C9D0"/>
<path d="M37.9316 63.7686C38.7909 63.7686 39.4881 63.0714 39.4881 62.2121V48.6702C39.4881 47.8098 38.7909 47.1136 37.9316 47.1136C37.0712 47.1136 36.375 47.8098 36.375 48.6702V62.2121C36.375 63.0714 37.0712 63.7686 37.9316 63.7686Z" fill="#C6C9D0"/>
<path d="M51.4404 64.1831C51.4404 65.0424 52.1376 65.7396 52.997 65.7396C53.8574 65.7396 54.5536 65.0424 54.5536 64.1831V58.8486C54.5536 57.9893 53.8574 57.2921 52.997 57.2921C52.1376 57.2921 51.4404 57.9893 51.4404 58.8486V64.1831Z" fill="#C6C9D0"/>
<path d="M52.997 55.5307C53.8574 55.5307 54.5536 54.8335 54.5536 53.9742V46.5065C54.5536 45.6462 53.8574 44.95 52.997 44.95C52.1376 44.95 51.4404 45.6462 51.4404 46.5065V53.9742C51.4404 54.8335 52.1376 55.5307 52.997 55.5307Z" fill="#C6C9D0"/>
<path d="M44.2477 15.8687L31.6867 29.2515C31.2561 29.7106 31.1446 30.3835 31.404 30.957C31.6634 31.5296 32.2421 31.8914 32.8714 31.8711L36.2541 31.7637L36.3716 44.9691C36.3787 45.8234 37.0739 46.5115 37.9282 46.5115H37.9424C38.8017 46.5034 39.4918 45.8011 39.4848 44.9408L39.353 30.1433C39.349 29.7237 39.1767 29.3245 38.8747 29.0336C38.5717 28.7438 38.1653 28.5877 37.7468 28.6009L36.5287 28.6394L45.4526 19.1318L54.9602 28.0567L52.9516 28.1196C52.1115 28.1469 51.4437 28.836 51.4447 29.6761V42.3171C51.4447 43.1775 52.1409 43.8737 53.0013 43.8737C53.8607 43.8737 54.5579 43.1775 54.5579 42.3171V31.185L58.8151 31.0503C59.4444 31.03 59.9987 30.6338 60.2217 30.045C60.4436 29.4562 60.2896 28.7914 59.8305 28.3607L46.4477 15.7988C45.8215 15.21 44.8364 15.2414 44.2477 15.8687Z" fill="#C6C9D0"/>
<path d="M78.409 53.7028C78.409 52.8434 77.7128 52.1462 76.8525 52.1462C75.9931 52.1462 75.2959 52.8434 75.2959 53.7028V68.7982C75.2959 69.6576 75.9931 70.3548 76.8525 70.3548C77.7128 70.3548 78.409 69.6576 78.409 68.7982V53.7028Z" fill="#C6C9D0"/>
<path d="M78.409 47.2393C78.409 46.379 77.7128 45.6828 76.8525 45.6828C75.9931 45.6828 75.2959 46.379 75.2959 47.2393V49.8954C75.2959 50.7548 75.9931 51.452 76.8525 51.452C77.7128 51.452 78.409 50.7548 78.409 49.8954V47.2393Z" fill="#C6C9D0"/>
<path d="M78.409 34.3623C78.409 33.5029 77.7128 32.8057 76.8525 32.8057C75.9931 32.8057 75.2959 33.5029 75.2959 34.3623V42.6183C75.2959 43.4777 75.9931 44.1749 76.8525 44.1749C77.7128 44.1749 78.409 43.4777 78.409 42.6183V34.3623Z" fill="#C6C9D0"/>
<path d="M67.5039 64.9067C67.5039 65.766 68.2001 66.4632 69.0605 66.4632C69.9198 66.4632 70.617 65.766 70.617 64.9067V56.6618C70.617 55.8024 69.9198 55.1052 69.0605 55.1052C68.2001 55.1052 67.5039 55.8024 67.5039 56.6618V64.9067Z" fill="#C6C9D0"/>
<path d="M69.0605 53.3913C69.9198 53.3913 70.617 52.6941 70.617 51.8347V38.2929C70.617 37.4325 69.9198 36.7363 69.0605 36.7363C68.2001 36.7363 67.5039 37.4325 67.5039 38.2929V51.8347C67.5039 52.6941 68.2001 53.3913 69.0605 53.3913Z" fill="#C6C9D0"/>
<path d="M85.6883 48.4717C85.6883 47.6123 84.9921 46.9151 84.1318 46.9151C83.2724 46.9151 82.5752 47.6123 82.5752 48.4717V65.0618C82.5752 65.9212 83.2724 66.6184 84.1318 66.6184C84.9921 66.6184 85.6883 65.9212 85.6883 65.0618V48.4717Z" fill="#C6C9D0"/>
<path d="M85.6883 36.1296C85.6883 35.2693 84.9921 34.5731 84.1318 34.5731C83.2724 34.5731 82.5752 35.2693 82.5752 36.1296V43.5973C82.5752 44.4566 83.2724 45.1538 84.1318 45.1538C84.9921 45.1538 85.6883 44.4566 85.6883 43.5973V36.1296Z" fill="#C6C9D0"/>
<path d="M85.6906 20.8081L89.9489 20.6723C90.5772 20.652 91.1315 20.2558 91.3544 19.667C91.5764 19.0782 91.4223 18.4145 90.9643 17.9838L77.5815 5.42185C76.9552 4.83308 75.9702 4.86449 75.3815 5.49178L62.8205 18.8746C62.3898 19.3336 62.2784 20.0065 62.5378 20.5801C62.7972 21.1526 63.3759 21.5144 64.0052 21.4942L67.3899 21.3867L67.5054 32.5198C67.5145 33.3731 68.2087 34.0601 69.062 34.0601H69.0782C69.9375 34.051 70.6277 33.3477 70.6185 32.4874L70.4868 19.7643C70.4827 19.3458 70.3095 18.9475 70.0075 18.6577C69.7055 18.3679 69.2991 18.2118 68.8806 18.225L67.6625 18.2635L76.5874 8.75589L86.095 17.6808L84.0854 17.7436C83.2453 17.771 82.5775 18.4601 82.5785 19.3002V31.9401C82.5785 32.8005 83.2747 33.4967 84.1351 33.4967C84.9944 33.4967 85.6916 32.8005 85.6916 31.9401L85.6906 20.8081Z" fill="#C6C9D0"/>
<path d="M17.453 66.4367C16.5937 66.4367 15.8965 67.1329 15.8965 67.9932V75.8379C15.8965 76.6972 16.5937 77.3944 17.453 77.3944C18.3124 77.3944 19.0096 76.6972 19.0096 75.8379V67.9932C19.0096 67.1329 18.3124 66.4367 17.453 66.4367Z" fill="#C6C9D0"/>
<path d="M19.0096 60.3049C19.0096 59.4455 18.3124 58.7483 17.453 58.7483C16.5937 58.7483 15.8965 59.4455 15.8965 60.3049V63.3724C15.8965 64.2317 16.5937 64.9289 17.453 64.9289C18.3124 64.9289 19.0096 64.2317 19.0096 63.3724V60.3049Z" fill="#C6C9D0"/>
<path d="M11.2186 53.0794C11.2186 52.2201 10.5214 51.5229 9.66203 51.5229C8.80166 51.5229 8.10547 52.2201 8.10547 53.0794V72.5881C8.10547 73.4485 8.80166 74.1447 9.66203 74.1447C10.5214 74.1447 11.2186 73.4485 11.2186 72.5881V53.0794Z" fill="#C6C9D0"/>
<path d="M26.2899 50.3982C26.2899 49.5378 25.5937 48.8416 24.7333 48.8416C23.874 48.8416 23.1768 49.5378 23.1768 50.3982V69.54C23.1768 70.3994 23.874 71.0966 24.7333 71.0966C25.5937 71.0966 26.2899 70.3994 26.2899 69.54V50.3982Z" fill="#C6C9D0"/>
<path d="M26.6935 17.6808L24.684 17.7436C23.8439 17.771 23.1771 18.4601 23.1771 19.3002V44.9115C23.1771 45.7718 23.8743 46.468 24.7336 46.468C25.593 46.468 26.2902 45.7718 26.2902 44.9115V20.8081L30.5474 20.6723C31.1768 20.652 31.7311 20.2558 31.953 19.667C32.176 19.0782 32.0219 18.4145 31.5639 17.9838L18.1811 5.42185C17.5548 4.83308 16.5698 4.86449 15.981 5.49178L3.42112 18.8746C2.99043 19.3336 2.87896 20.0065 3.13839 20.5801C3.39782 21.1526 3.97646 21.5144 4.60476 21.4942L7.98136 21.3878L8.10499 47.5584C8.10905 48.4148 8.80423 49.1069 9.66156 49.1069H9.66865C10.528 49.1028 11.2222 48.4026 11.2181 47.5432L11.0864 19.7734C11.0843 19.3529 10.9131 18.9516 10.6101 18.6597C10.3081 18.3689 9.90071 18.2118 9.48016 18.225L8.26106 18.2635L17.1859 8.75589L26.6935 17.6808Z" fill="#C6C9D0"/>
<path d="M44.167 69.8459C44.167 70.7063 44.8642 71.4025 45.7236 71.4025C46.5839 71.4025 47.2801 70.7063 47.2801 69.8459V64.0798C47.2801 63.2204 46.5839 62.5232 45.7236 62.5232C44.8642 62.5232 44.167 63.2204 44.167 64.0798V69.8459Z" fill="#C6C9D0"/>
<path d="M44.167 60.2724C44.167 61.1317 44.8642 61.8289 45.7236 61.8289C46.5839 61.8289 47.2801 61.1317 47.2801 60.2724V57.6163C47.2801 56.7559 46.5839 56.0597 45.7236 56.0597C44.8642 56.0597 44.167 56.7559 44.167 57.6163V60.2724Z" fill="#C6C9D0"/>
<path d="M45.7236 54.5518C46.5839 54.5518 47.2801 53.8546 47.2801 52.9953V44.7392C47.2801 43.8799 46.5839 43.1826 45.7236 43.1826C44.8642 43.1826 44.167 43.8799 44.167 44.7392V52.9953C44.167 53.8546 44.8642 54.5518 45.7236 54.5518Z" fill="#C6C9D0"/>
<path d="M36.375 67.5009C36.375 68.3602 37.0712 69.0574 37.9316 69.0574C38.7909 69.0574 39.4881 68.3602 39.4881 67.5009V67.0388C39.4881 66.1794 38.7909 65.4822 37.9316 65.4822C37.0712 65.4822 36.375 66.1794 36.375 67.0388V67.5009Z" fill="#C6C9D0"/>
<path d="M37.9316 63.7686C38.7909 63.7686 39.4881 63.0714 39.4881 62.2121V48.6702C39.4881 47.8098 38.7909 47.1136 37.9316 47.1136C37.0712 47.1136 36.375 47.8098 36.375 48.6702V62.2121C36.375 63.0714 37.0712 63.7686 37.9316 63.7686Z" fill="#C6C9D0"/>
<path d="M51.4404 64.1831C51.4404 65.0424 52.1376 65.7396 52.997 65.7396C53.8574 65.7396 54.5536 65.0424 54.5536 64.1831V58.8486C54.5536 57.9893 53.8574 57.2921 52.997 57.2921C52.1376 57.2921 51.4404 57.9893 51.4404 58.8486V64.1831Z" fill="#C6C9D0"/>
<path d="M52.997 55.5307C53.8574 55.5307 54.5536 54.8335 54.5536 53.9742V46.5065C54.5536 45.6462 53.8574 44.95 52.997 44.95C52.1376 44.95 51.4404 45.6462 51.4404 46.5065V53.9742C51.4404 54.8335 52.1376 55.5307 52.997 55.5307Z" fill="#C6C9D0"/>
<path d="M44.2477 15.8687L31.6867 29.2515C31.2561 29.7106 31.1446 30.3835 31.404 30.957C31.6634 31.5296 32.2421 31.8914 32.8714 31.8711L36.2541 31.7637L36.3716 44.9691C36.3787 45.8234 37.0739 46.5115 37.9282 46.5115H37.9424C38.8017 46.5034 39.4918 45.8011 39.4848 44.9408L39.353 30.1433C39.349 29.7237 39.1767 29.3245 38.8747 29.0336C38.5717 28.7438 38.1653 28.5877 37.7468 28.6009L36.5287 28.6394L45.4526 19.1318L54.9602 28.0567L52.9516 28.1196C52.1115 28.1469 51.4437 28.836 51.4447 29.6761V42.3171C51.4447 43.1775 52.1409 43.8737 53.0013 43.8737C53.8607 43.8737 54.5579 43.1775 54.5579 42.3171V31.185L58.8151 31.0503C59.4444 31.03 59.9987 30.6338 60.2217 30.045C60.4436 29.4562 60.2896 28.7914 59.8305 28.3607L46.4477 15.7988C45.8215 15.21 44.8364 15.2414 44.2477 15.8687Z" fill="#C6C9D0"/>
<path d="M78.409 53.7028C78.409 52.8434 77.7128 52.1462 76.8525 52.1462C75.9931 52.1462 75.2959 52.8434 75.2959 53.7028V68.7982C75.2959 69.6576 75.9931 70.3548 76.8525 70.3548C77.7128 70.3548 78.409 69.6576 78.409 68.7982V53.7028Z" fill="#C6C9D0"/>
<path d="M78.409 47.2393C78.409 46.379 77.7128 45.6828 76.8525 45.6828C75.9931 45.6828 75.2959 46.379 75.2959 47.2393V49.8954C75.2959 50.7548 75.9931 51.452 76.8525 51.452C77.7128 51.452 78.409 50.7548 78.409 49.8954V47.2393Z" fill="#C6C9D0"/>
<path d="M78.409 34.3623C78.409 33.5029 77.7128 32.8057 76.8525 32.8057C75.9931 32.8057 75.2959 33.5029 75.2959 34.3623V42.6183C75.2959 43.4777 75.9931 44.1749 76.8525 44.1749C77.7128 44.1749 78.409 43.4777 78.409 42.6183V34.3623Z" fill="#C6C9D0"/>
<path d="M67.5039 64.9067C67.5039 65.766 68.2001 66.4632 69.0605 66.4632C69.9198 66.4632 70.617 65.766 70.617 64.9067V56.6618C70.617 55.8024 69.9198 55.1052 69.0605 55.1052C68.2001 55.1052 67.5039 55.8024 67.5039 56.6618V64.9067Z" fill="#C6C9D0"/>
<path d="M69.0605 53.3913C69.9198 53.3913 70.617 52.6941 70.617 51.8347V38.2929C70.617 37.4325 69.9198 36.7363 69.0605 36.7363C68.2001 36.7363 67.5039 37.4325 67.5039 38.2929V51.8347C67.5039 52.6941 68.2001 53.3913 69.0605 53.3913Z" fill="#C6C9D0"/>
<path d="M85.6883 48.4717C85.6883 47.6123 84.9921 46.9151 84.1318 46.9151C83.2724 46.9151 82.5752 47.6123 82.5752 48.4717V65.0618C82.5752 65.9212 83.2724 66.6184 84.1318 66.6184C84.9921 66.6184 85.6883 65.9212 85.6883 65.0618V48.4717Z" fill="#C6C9D0"/>
<path d="M85.6883 36.1296C85.6883 35.2693 84.9921 34.5731 84.1318 34.5731C83.2724 34.5731 82.5752 35.2693 82.5752 36.1296V43.5973C82.5752 44.4566 83.2724 45.1538 84.1318 45.1538C84.9921 45.1538 85.6883 44.4566 85.6883 43.5973V36.1296Z" fill="#C6C9D0"/>
<path d="M85.6906 20.8081L89.9489 20.6723C90.5772 20.652 91.1315 20.2558 91.3544 19.667C91.5764 19.0782 91.4223 18.4145 90.9643 17.9838L77.5815 5.42185C76.9552 4.83308 75.9702 4.86449 75.3815 5.49178L62.8205 18.8746C62.3898 19.3336 62.2784 20.0065 62.5378 20.5801C62.7972 21.1526 63.3759 21.5144 64.0052 21.4942L67.3899 21.3867L67.5054 32.5198C67.5145 33.3731 68.2087 34.0601 69.062 34.0601H69.0782C69.9375 34.051 70.6277 33.3477 70.6185 32.4874L70.4868 19.7643C70.4827 19.3458 70.3095 18.9475 70.0075 18.6577C69.7055 18.3679 69.2991 18.2118 68.8806 18.225L67.6625 18.2635L76.5874 8.75589L86.095 17.6808L84.0854 17.7436C83.2453 17.771 82.5775 18.4601 82.5785 19.3002V31.9401C82.5785 32.8005 83.2747 33.4967 84.1351 33.4967C84.9944 33.4967 85.6916 32.8005 85.6916 31.9401L85.6906 20.8081Z" fill="#C6C9D0"/>
<path d="M17.453 66.4367C16.5937 66.4367 15.8965 67.1329 15.8965 67.9932V75.8379C15.8965 76.6972 16.5937 77.3944 17.453 77.3944C18.3124 77.3944 19.0096 76.6972 19.0096 75.8379V67.9932C19.0096 67.1329 18.3124 66.4367 17.453 66.4367Z" fill="#C6C9D0"/>
<path d="M19.0096 60.3049C19.0096 59.4455 18.3124 58.7483 17.453 58.7483C16.5937 58.7483 15.8965 59.4455 15.8965 60.3049V63.3724C15.8965 64.2317 16.5937 64.9289 17.453 64.9289C18.3124 64.9289 19.0096 64.2317 19.0096 63.3724V60.3049Z" fill="#C6C9D0"/>
<path d="M11.2186 53.0794C11.2186 52.2201 10.5214 51.5229 9.66203 51.5229C8.80166 51.5229 8.10547 52.2201 8.10547 53.0794V72.5881C8.10547 73.4485 8.80166 74.1447 9.66203 74.1447C10.5214 74.1447 11.2186 73.4485 11.2186 72.5881V53.0794Z" fill="#C6C9D0"/>
<path d="M26.2899 50.3982C26.2899 49.5378 25.5937 48.8416 24.7333 48.8416C23.874 48.8416 23.1768 49.5378 23.1768 50.3982V69.54C23.1768 70.3994 23.874 71.0966 24.7333 71.0966C25.5937 71.0966 26.2899 70.3994 26.2899 69.54V50.3982Z" fill="#C6C9D0"/>
<path d="M26.6935 17.6808L24.684 17.7436C23.8439 17.771 23.1771 18.4601 23.1771 19.3002V44.9115C23.1771 45.7718 23.8743 46.468 24.7336 46.468C25.593 46.468 26.2902 45.7718 26.2902 44.9115V20.8081L30.5474 20.6723C31.1768 20.652 31.7311 20.2558 31.953 19.667C32.176 19.0782 32.0219 18.4145 31.5639 17.9838L18.1811 5.42185C17.5548 4.83308 16.5698 4.86449 15.981 5.49178L3.42112 18.8746C2.99043 19.3336 2.87896 20.0065 3.13839 20.5801C3.39782 21.1526 3.97646 21.5144 4.60476 21.4942L7.98136 21.3878L8.10499 47.5584C8.10905 48.4148 8.80423 49.1069 9.66156 49.1069H9.66865C10.528 49.1028 11.2222 48.4026 11.2181 47.5432L11.0864 19.7734C11.0843 19.3529 10.9131 18.9516 10.6101 18.6597C10.3081 18.3689 9.90071 18.2118 9.48016 18.225L8.26106 18.2635L17.1859 8.75589L26.6935 17.6808Z" fill="#C6C9D0"/>
</g>
</svg>
