<svg width="94" height="92" viewBox="0 0 94 92" fill="none" xmlns="http://www.w3.org/2000/svg">
<mask id="mask0" mask-type="alpha" maskUnits="userSpaceOnUse" x="0" y="0" width="94" height="92">
<rect width="94" height="92" fill="white"/>
</mask>
<g mask="url(#mask0)">
<path d="M49.2459 21.3888C49.2611 20.7048 48.7884 20.1065 48.1195 19.963L42.4164 18.5372C42.228 18.5018 42.0344 18.5018 41.846 18.5372L33.5622 19.963L28.5006 18.6798L27.859 21.5314L33.2913 22.8146C33.4748 22.8511 33.6638 22.8511 33.8473 22.8146L42.1169 21.3888L46.3943 22.5152L46.4799 25.823L40.6911 25.6804H40.5343L27.7022 27.1062C27.2842 27.1537 26.9085 27.3832 26.6756 27.7336L21.3859 35.6467H15.0269V38.4983H22.1558C22.6328 38.4958 23.0769 38.2551 23.3392 37.8567L28.6147 29.858L40.6911 28.5178L47.977 28.7031C48.7643 28.7031 49.4027 28.0647 49.4027 27.2773L49.2459 21.3888Z" fill="#4AA956"/>
<path d="M44.5548 0.415313C44.162 0.024289 43.5781 -0.103676 43.0577 0.0873803L23.0966 7.21635C22.8909 7.29192 22.7055 7.414 22.5548 7.5728L14 16.541L16.0531 18.5372L24.3798 9.78278L43.1717 3.06729L49.6591 9.56891L51.6837 7.54428L44.5548 0.415313Z" fill="#4AA956"/>
<path d="M99.1485 7.13086H40.6909C39.9035 7.13086 39.2651 7.76926 39.2651 8.55665V19.963H42.1167V9.98245H97.7227V34.2209H42.1167V28.5178H39.2651V35.6467C39.2651 36.4341 39.9035 37.0725 40.6909 37.0725H99.1485C99.9359 37.0725 100.574 36.4341 100.574 35.6467V8.55665C100.574 7.76926 99.9359 7.13086 99.1485 7.13086Z" fill="#4AA956"/>
<path d="M40.1631 8.65649L33.0341 11.5081C32.8546 11.582 32.6903 11.6883 32.5493 11.8218L29.6978 14.6733L31.7224 16.698L34.3601 14.046L41.2182 11.3085L40.1631 8.65649Z" fill="#4AA956"/>
<path d="M72.1157 20.9041L69.6205 20.4906C68.5512 20.2482 67.7813 19.7492 67.7813 18.8224C67.7813 17.8956 68.8506 17.1114 70.1196 17.1114H71.1461C72.3153 17.1114 73.4845 17.5962 73.4845 18.5372H76.336C76.336 16.0564 74.1546 14.2599 71.1461 14.2599H70.1196C67.43 14.097 65.1127 16.1342 64.9297 18.8224C65.0584 21.1644 66.8732 23.0641 69.2071 23.2994L71.6452 23.7129C72.7145 23.9553 73.4845 24.4543 73.4845 25.381C73.4845 26.3078 72.4151 27.092 71.1461 27.092H70.1196C68.9504 27.092 67.7813 26.6072 67.7813 25.6662H64.9297C64.9297 28.1471 67.1112 29.9436 70.1196 29.9436H71.1461C71.1542 29.9441 71.162 29.9447 71.17 29.9452C73.8728 30.1272 76.2111 28.0836 76.3931 25.381C76.2644 23.039 74.4495 21.1393 72.1157 20.9041Z" fill="#4AA956"/>
<path d="M72.0586 12.834H69.207V15.6856H72.0586V12.834Z" fill="#4AA956"/>
<path d="M72.0586 28.5168H69.207V31.3684H72.0586V28.5168Z" fill="#4AA956"/>
<path d="M94.4432 82.6979L89.1108 74.2857C88.8689 73.9061 88.4619 73.6628 88.0129 73.6298L74.4964 72.7173H69.2067V69.0103L73.5554 68.3259L81.9961 69.2099C82.1187 69.2309 82.2441 69.2309 82.3668 69.2099L88.0699 68.3116L87.6279 65.46L82.0673 66.344L73.6266 65.46C73.5035 65.4458 73.3791 65.4458 73.2559 65.46L67.5528 66.3725C66.8556 66.4855 66.346 67.092 66.3551 67.7983V74.1431C66.3551 74.9305 66.9935 75.5689 67.7809 75.5689H74.3966L87.0861 76.4244L92.4614 84.8936C92.7232 85.3016 93.1743 85.5486 93.659 85.5495H102V82.6979H94.4432Z" fill="#4AA956"/>
<path d="M93.0317 54.5954C92.8795 54.452 92.7 54.3406 92.5042 54.2675L72.543 47.1385C72.0226 46.9475 71.4388 47.0754 71.046 47.4665L63.917 54.5954L65.9416 56.6201L72.429 50.1184L91.2352 56.8482L99.5618 65.1748L101.586 63.1502L93.0317 54.5954Z" fill="#4AA956"/>
<path d="M76.336 65.5884V55.6078C76.336 54.8204 75.6976 54.182 74.9102 54.182H16.4526C15.6653 54.182 15.0269 54.8204 15.0269 55.6078V82.6979C15.0269 83.4853 15.6653 84.1237 16.4526 84.1237H74.9102C75.6976 84.1237 76.336 83.4853 76.336 82.6979V75.5689H73.4844V81.2721H17.8784V57.0336H73.4844V65.5884H76.336Z" fill="#4AA956"/>
<path d="M52.5109 58.8871L46.3942 65.0893L40.2776 58.8871L38.2529 60.8832L45.3819 68.1262C45.651 68.393 46.0153 68.5419 46.3942 68.5397C46.7731 68.5419 47.1374 68.393 47.4065 68.1262L54.5355 60.8832L52.5109 58.8871Z" fill="#4AA956"/>
<path d="M47.8199 66.6301H44.9683V78.4214H47.8199V66.6301Z" fill="#4AA956"/>
<path d="M51.7408 65.2043H41.0474V68.0559H51.7408V65.2043Z" fill="#4AA956"/>
<path d="M51.7408 71.9341H41.0474V74.7857H51.7408V71.9341Z" fill="#4AA956"/>
<path d="M83.0512 58.8729C82.9102 58.7394 82.7459 58.6332 82.5664 58.5592L75.4374 55.7076L74.3823 58.3596L81.2404 61.0971L83.8781 63.7491L85.9027 61.7245L83.0512 58.8729Z" fill="#4AA956"/>
<path d="M47.8198 12.834C47.8198 14.409 46.5432 15.6856 44.9683 15.6856V18.5372C48.118 18.5372 50.6714 15.9837 50.6714 12.834H47.8198Z" fill="#4AA956"/>
<path d="M90.5938 12.834H87.7422C87.7422 16.7711 90.934 19.963 94.8712 19.963V17.1114C92.5088 17.1114 90.5938 15.1963 90.5938 12.834Z" fill="#4AA956"/>
<path d="M87.7422 31.3693H90.5938C90.5938 29.007 92.5088 27.0919 94.8712 27.0919V24.2404C90.934 24.2404 87.7422 27.4322 87.7422 31.3693Z" fill="#4AA956"/>
<path d="M48.5327 25.1957L47.1069 27.6623C48.4311 28.4269 49.2465 29.8402 49.2456 31.3694H52.0972C52.0972 28.8225 50.7384 26.4691 48.5327 25.1957Z" fill="#4AA956"/>
</g>
</svg>
