<svg width="98" height="99" viewBox="0 0 98 99" fill="none" xmlns="http://www.w3.org/2000/svg">
<mask id="mask0" mask-type="alpha" maskUnits="userSpaceOnUse" x="0" y="0" width="98" height="99">
<rect x="0.537109" width="97.4629" height="99" fill="white"/>
</mask>
<g mask="url(#mask0)">
<path fill-rule="evenodd" clip-rule="evenodd" d="M98.6795 42.0129C101.122 40.3248 102.727 37.5063 102.727 34.319V30.8322V27.3476C102.727 22.1933 98.5336 18 93.3792 18C88.2249 18 84.0316 22.1935 84.0316 27.3476V30.8332V34.319C84.0316 37.5064 85.6361 40.325 88.0791 42.0129C83.9844 43.304 80.4611 45.9689 78.1364 49.3985V47.3049C78.1364 42.1505 73.943 37.9572 68.7886 37.9572C63.6343 37.9572 59.441 42.1507 59.441 47.3049V49.3985C57.1164 45.9691 53.5928 43.304 49.4981 42.0129C51.9411 40.3248 53.5457 37.5063 53.5457 34.319V27.3478C53.5457 22.1935 49.3524 18.0002 44.1979 18.0002C39.5267 18.0002 35.6448 21.4442 34.958 25.9263C34.887 26.3899 34.8502 26.8646 34.8502 27.3478V34.319C34.8502 37.5064 36.455 40.325 38.8978 42.0129C31.5236 44.3377 26 51.1194 26 58.7963V64.2385C26 64.9271 26.5583 65.4852 27.2467 65.4852H34.019C34.7075 65.4852 35.2657 64.9271 35.2657 64.2385C35.2657 63.55 34.7075 62.9917 34.019 62.9917H28.4934V58.7963C28.4934 54.8609 30.1746 51.0967 33.2269 48.1964C35.0073 46.5049 37.1536 45.237 39.4452 44.475L40.9347 47.3689L38.7808 56.7185C38.6798 57.1564 38.8225 57.6149 39.154 57.9181L43.3561 61.7641C43.5943 61.982 43.896 62.0912 44.1977 62.0912C44.4994 62.0912 44.8011 61.9822 45.0393 61.7641L49.2412 57.9181C49.5727 57.6147 49.7153 57.1564 49.6145 56.7185L47.4607 47.369L48.9502 44.475C51.2418 45.237 53.3881 46.5047 55.1686 48.1964C57.409 50.325 58.9093 52.9194 59.5498 55.705C59.5897 55.9642 59.6426 56.2191 59.7034 56.4708C59.8344 57.2357 59.902 58.0124 59.902 58.7963V62.9917H38.1745C37.4861 62.9917 36.9278 63.55 36.9278 64.2385C36.9278 64.9271 37.4861 65.4852 38.1745 65.4852H57.0617C53.1295 68.7572 50.5906 73.5492 50.5906 78.753V84.1952C50.5906 84.8838 51.1488 85.4419 51.8373 85.4419H58.6096C59.2981 85.4419 59.8563 84.8838 59.8563 84.1952C59.8563 83.5065 59.2981 82.9485 58.6096 82.9485H53.0842V78.753C53.0842 74.8176 54.7653 71.0534 57.8177 68.1531C59.5981 66.4616 61.7444 65.1937 64.0359 64.4317L65.5255 67.3258L63.3717 76.6752C63.2707 77.1132 63.4135 77.5715 63.7449 77.8748L67.9471 81.721C68.1852 81.9389 68.4869 82.0481 68.7886 82.0481C69.0903 82.0481 69.3922 81.9391 69.6304 81.721L73.8323 77.8748C74.1638 77.5715 74.3064 77.1132 74.2056 76.6752L72.0518 67.3258L73.5413 64.4317C75.8329 65.1937 77.9792 66.4615 79.7596 68.1531C82.8119 71.0532 84.4931 74.8176 84.4931 78.753V82.9485H62.7653C62.0768 82.9485 61.5186 83.5065 61.5186 84.1952C61.5186 84.8838 62.0768 85.4419 62.7653 85.4419H85.7398C86.4282 85.4419 86.9865 84.8838 86.9865 84.1952V78.753C86.9865 73.549 84.4476 68.757 80.5155 65.4852H86.8914C87.5798 65.4852 88.1381 64.9271 88.1381 64.2385C88.1381 63.55 87.5798 62.9917 86.8914 62.9917H77.6751V58.7961C77.6751 58.0119 77.743 57.2347 77.874 56.4695C77.9345 56.2186 77.9872 55.9647 78.027 55.7065C78.6671 52.9202 80.1677 50.3253 82.4084 48.1962C84.189 46.5047 86.3353 45.2368 88.6268 44.4748L90.1164 47.3687L87.9626 56.7185C87.8617 57.1564 88.0044 57.6147 88.3358 57.9181L92.5378 61.7641C92.776 61.9824 93.0777 62.0912 93.3794 62.0912C93.6811 62.0912 93.9829 61.9822 94.2209 61.7641L98.4231 57.9181C98.7545 57.6149 98.8971 57.1564 98.7963 56.7185L96.6425 47.3689L98.1321 44.475C100.424 45.237 102.57 46.5049 104.35 48.1964C107.403 51.0965 109.084 54.8609 109.084 58.7963V62.9917H91.0472C90.3588 62.9917 89.8005 63.55 89.8005 64.2385C89.8005 64.9271 90.3588 65.4852 91.0472 65.4852H110.331C111.019 65.4852 111.577 64.9271 111.577 64.2385V58.7963C111.577 51.1194 106.054 44.3377 98.6795 42.0129ZM37.3457 27.3478C37.3457 23.5684 40.4204 20.4936 44.2 20.4936C47.9796 20.4936 51.0544 23.5684 51.0544 27.3478V29.4334C48.1672 28.7212 46.9789 25.7491 46.925 25.6105C46.7521 25.1541 46.3288 24.8405 45.8417 24.8083C45.3547 24.7767 44.8937 25.0307 44.662 25.4603C44.6415 25.4987 42.6678 29.0393 37.3457 29.5302V27.3478ZM41.3748 56.5698L44.1987 59.1543L47.0226 56.5698L45.1523 48.4509H43.2452L41.3748 56.5698ZM41.9306 43.8565C42.1738 43.8165 42.4178 43.7826 42.6624 43.7544C42.6821 43.7521 42.7019 43.75 42.7217 43.7479L42.7661 43.7432C42.96 43.7221 43.1539 43.7052 43.3481 43.6915L43.3963 43.688C43.4341 43.6852 43.4719 43.6824 43.5098 43.6801C43.6691 43.6704 43.8283 43.6656 43.9875 43.6613C44.014 43.6618 44.0404 43.6627 44.0668 43.6636C44.1101 43.6651 44.1535 43.6666 44.1972 43.6666C44.241 43.6666 44.2843 43.6651 44.3277 43.6636L44.3825 43.6619L44.407 43.6613C44.5663 43.6658 44.7256 43.6706 44.8845 43.6801C44.9175 43.6821 44.9504 43.6845 44.9834 43.687L45.0465 43.6915C45.2407 43.7054 45.4344 43.7221 45.6281 43.7432L45.6542 43.7459C45.6803 43.7486 45.7064 43.7513 45.7324 43.7544C45.9768 43.7826 46.2207 43.8165 46.4639 43.8565L45.3828 45.9573H43.012L41.9306 43.8565ZM44.3983 41.1642L44.473 41.1664C48.1264 41.0225 51.0546 38.007 51.0544 34.319V31.9797C48.2974 31.5409 46.5544 29.737 45.5823 28.3144C44.1945 29.7756 41.5881 31.7091 37.3457 32.0323V34.319C37.3457 38.007 40.2738 41.0225 43.9274 41.1664L44.0032 41.1641L44.0034 41.1641C44.0633 41.1623 44.1231 41.1605 44.1831 41.1597H44.1833C44.1947 41.1594 44.2059 41.1594 44.2172 41.1597C44.2778 41.1605 44.3381 41.1623 44.3983 41.1642ZM61.934 47.3048C61.9341 43.5254 65.0091 40.4506 68.7885 40.4506C69.4972 40.4506 70.181 40.5586 70.8245 40.7593C73.6128 41.6285 75.6427 44.2341 75.6427 47.305V49.3906C72.7556 48.6784 71.5673 45.7064 71.5134 45.5677C71.3406 45.1114 70.9172 44.7978 70.4302 44.7656C69.9436 44.735 69.4821 44.988 69.2505 45.4176C69.2298 45.456 67.2563 48.9966 61.9341 49.4875V47.3048H61.934ZM62.3947 61.0868V62.3528C62.7542 62.2146 63.1184 62.0864 63.4873 61.97C63.1008 61.7031 62.7361 61.4074 62.3947 61.0868ZM68.7907 79.1114L65.9668 76.5267L67.8373 68.4079H69.7444L71.6147 76.5267L68.7907 79.1114ZM67.2543 63.7116C67.0098 63.7399 66.7658 63.7738 66.5226 63.8137L67.6038 65.9147H69.9744L71.0557 63.8137C70.8126 63.7738 70.5686 63.74 70.3242 63.7116L70.2818 63.7069L70.2199 63.7004C70.0264 63.6794 69.8325 63.6626 69.6383 63.6488L69.5756 63.6442L69.5752 63.6442C69.5423 63.6418 69.5093 63.6393 69.4765 63.6374C69.3175 63.6279 69.1582 63.6232 68.999 63.6185L68.969 63.6193L68.9196 63.6209C68.8762 63.6224 68.8329 63.6239 68.7892 63.6239C68.7455 63.6239 68.7022 63.6224 68.6588 63.6209C68.6324 63.62 68.606 63.6191 68.5794 63.6185C68.4203 63.623 68.261 63.6277 68.1017 63.6374C68.0477 63.6406 67.9939 63.6449 67.9401 63.6488C67.7459 63.6625 67.552 63.6794 67.3581 63.7004C67.3235 63.7043 67.2889 63.7076 67.2543 63.7116ZM75.1836 62.3527C74.8243 62.2143 74.4602 62.0862 74.091 61.9699C74.4775 61.703 74.8422 61.4071 75.1836 61.0866V62.3527ZM75.5643 55.3113C75.6156 54.9735 75.6424 54.6278 75.6424 54.276H75.6425V51.9367C72.8857 51.4977 71.1427 49.6938 70.1706 48.2714C68.7828 49.7326 66.1764 51.6661 61.934 51.9893V54.2758C61.934 54.6273 61.9607 54.9728 62.012 55.3105C62.056 55.5083 62.0953 55.7077 62.1319 55.9078C62.8452 58.8168 65.4194 61.0013 68.5156 61.1232L68.591 61.121L68.6759 61.1185C68.7077 61.1176 68.7395 61.1169 68.7713 61.1165C68.7827 61.1162 68.7939 61.1162 68.8052 61.1165C68.8655 61.1173 68.9254 61.1191 68.9854 61.121H68.9855L69.0609 61.1232C72.1578 61.0012 74.7319 58.8158 75.445 55.9063C75.4814 55.7071 75.5205 55.5085 75.5643 55.3113ZM86.5259 27.3478C86.5259 23.5684 89.6007 20.4936 93.3801 20.4936C97.1596 20.4936 100.235 23.5684 100.235 27.3478V29.4334C97.3474 28.7211 96.1589 25.7491 96.1052 25.6105C95.9324 25.1542 95.509 24.8407 95.022 24.8084C94.5343 24.7768 94.0738 25.0309 93.8423 25.4604C93.8216 25.4989 91.8483 29.0395 86.5261 29.5304V27.3478H86.5259ZM90.5551 56.5698L93.379 59.1543L96.2029 56.5698L94.3326 48.4509H92.4255L90.5551 56.5698ZM91.1145 43.8565C91.3577 43.8165 91.6016 43.7826 91.8459 43.7544C91.872 43.7513 91.8981 43.7486 91.9242 43.7459L91.9502 43.7432C92.144 43.7221 92.3379 43.7052 92.5319 43.6915L92.5807 43.6879C92.6184 43.6851 92.656 43.6824 92.6939 43.6801C92.853 43.6704 93.0123 43.6658 93.1714 43.6613C93.1979 43.6618 93.2243 43.6627 93.2507 43.6636C93.2941 43.6651 93.3374 43.6666 93.3812 43.6666C93.4249 43.6666 93.4682 43.6651 93.5116 43.6636C93.538 43.6627 93.5644 43.6618 93.5909 43.6613C93.7502 43.6658 93.9095 43.6706 94.0686 43.6801C94.1015 43.6821 94.1345 43.6845 94.1674 43.687L94.1678 43.687L94.2304 43.6915C94.4246 43.7054 94.6187 43.7221 94.8124 43.7432C94.847 43.7468 94.8816 43.7503 94.9162 43.7544C95.1607 43.7828 95.4046 43.8165 95.648 43.8565L94.5667 45.9573H92.1961L91.1145 43.8565ZM93.5783 41.1642C93.6032 41.1649 93.628 41.1657 93.6529 41.1664C97.3063 41.0225 100.235 38.007 100.235 34.319V31.9797C97.4775 31.5409 95.7345 29.737 94.7624 28.3144C93.3746 29.7756 90.7682 31.7091 86.5259 32.0323V34.319C86.5259 38.007 89.4541 41.0225 93.1074 41.1664C93.1327 41.1657 93.1579 41.1649 93.1831 41.1641C93.2431 41.1623 93.303 41.1605 93.3631 41.1597H93.3633C93.3746 41.1594 93.3858 41.1594 93.3972 41.1597C93.4577 41.1605 93.5181 41.1623 93.5783 41.1642Z" fill="#C6C9D0"/>
</g>
</svg>
