<svg width="76" height="102" viewBox="0 0 76 102" fill="none" xmlns="http://www.w3.org/2000/svg">
<mask id="mask0" mask-type="alpha" maskUnits="userSpaceOnUse" x="0" y="0" width="76" height="102">
<rect width="76" height="102" fill="white"/>
</mask>
<g mask="url(#mask0)">
<path d="M5.96051 18.3678L7.47736 18.3652V15.1621C7.47736 11.8712 10.1547 9.19411 13.4453 9.19411H62.9447C65.2256 9.19411 67.345 8.06281 68.6142 6.16766L69.7596 4.45729C71.6213 1.67737 74.7304 0.0163929 78.0759 0.014264L100.91 0C100.912 0 100.914 0 100.915 0C105.374 0 108.987 3.60764 108.988 8.07132L109 86.8402C109 90.3393 106.076 93.0898 102.855 93.0941C102.852 93.0941 102.85 93.0935 102.847 93.0941C102.749 93.0945 102.764 93.0966 102.681 93.0941L9.6282 93.1418H9.61733C4.34318 93.1418 0.0645065 88.8772 0.0587616 83.593L0 24.3421C-0.00361633 21.0515 2.67071 18.3714 5.96051 18.3678ZM20.0679 51.3039H24.4926V46.4985C24.4926 41.0609 28.9165 36.6368 34.3544 36.6368C39.792 36.6368 44.2159 41.0606 44.2159 46.4985V51.3039H48.6408V46.5089C48.6408 38.6313 42.232 32.2225 34.3544 32.2225C26.4768 32.2225 20.0679 38.6313 20.0679 46.5089V51.3039ZM41.0225 51.3039V46.4985C41.0225 42.8217 38.0312 39.8301 34.3544 39.8301C30.6775 39.8301 27.686 42.8215 27.686 46.4985V51.3039H41.0225ZM34.3544 29.0291C36.181 29.0291 37.9426 29.3118 39.5989 29.8341V12.3875H29.1096V29.8341C30.7661 29.3121 32.5276 29.0291 34.3544 29.0291ZM3.2519 83.5898C3.25574 87.1042 6.10017 89.9486 9.61818 89.9486C9.62052 89.9486 9.62309 89.9486 9.62543 89.9486L97.4511 89.9037C96.9329 88.9806 96.6568 87.937 96.6555 86.8541L96.5934 24.2365C96.5917 22.7063 95.3526 21.4651 93.8194 21.4651H93.8162L48.5569 21.5228H48.5548C47.6739 21.5228 46.9592 20.8092 46.9581 19.9283C46.9571 19.0463 47.6709 18.3307 48.5527 18.3295L93.8124 18.2718C93.8147 18.2718 93.8169 18.2718 93.8192 18.2718C97.1118 18.2718 99.7831 20.9342 99.7867 24.2333L99.8489 86.8506C99.8497 87.6598 100.166 88.4256 100.739 89.0066C101.299 89.575 102.035 89.8901 102.814 89.899C104.466 89.8622 105.807 88.4939 105.807 86.8404L105.794 8.07175C105.794 5.37698 103.613 3.19336 100.915 3.19336H100.912L78.0781 3.20784C75.7989 3.20933 73.6812 4.34063 72.4128 6.23429L71.2675 7.94465C69.4045 10.7267 66.2931 12.3877 62.9447 12.3877H42.7921V31.2072C48.178 34.189 51.834 39.9293 51.834 46.5092V51.3154C55.5323 51.5174 58.4794 54.5894 58.4794 58.3374V63.1649C58.4794 64.0467 57.7645 64.7615 56.8827 64.7615C56.0009 64.7615 55.286 64.0467 55.286 63.1649V58.3374C55.286 56.2202 53.5635 54.4974 51.4461 54.4974H17.2622C15.1448 54.4974 13.4223 56.2199 13.4223 58.3374V75.3514C13.4223 77.4686 15.1448 79.1913 17.2622 79.1913H51.4461C53.5635 79.1913 55.286 77.4688 55.286 75.3514V70.5238C55.286 69.6421 56.0009 68.9272 56.8827 68.9272C57.7645 68.9272 58.4794 69.6421 58.4794 70.5238V75.3514C58.4794 79.2294 55.3243 82.3846 51.4461 82.3846H17.2622C13.384 82.3846 10.229 79.2296 10.229 75.3514V58.3374C10.229 54.5894 13.176 51.5174 16.8744 51.3154V46.5092C16.8744 39.9293 20.5303 34.1892 25.916 31.2072V12.3877H13.4451C11.9151 12.3877 10.6705 13.6322 10.6705 15.1623V18.3601L20.1512 18.3444C20.152 18.3444 20.1531 18.3444 20.1539 18.3444C21.0344 18.3444 21.7491 19.0575 21.7506 19.9385C21.7521 20.8203 21.0385 21.5362 20.1567 21.5377C18.3397 21.5407 7.61787 21.5586 5.96477 21.5614C4.43494 21.5631 3.19166 22.8091 3.19315 24.3391L3.2519 83.5898Z" fill="#4AA956"/>
<path d="M35.951 69.8787V73.0558C35.951 73.9376 35.2361 74.6525 34.3543 74.6525C33.4726 74.6525 32.7577 73.9376 32.7577 73.0558V69.8787C30.342 69.1838 28.569 66.9555 28.569 64.3192C28.569 61.1293 31.1642 58.5339 34.3543 58.5339C37.5445 58.5339 40.1396 61.1291 40.1396 64.3192C40.1394 66.9553 38.3665 69.1838 35.951 69.8787ZM34.3543 61.7273C32.9252 61.7273 31.7624 62.8899 31.7624 64.3192C31.7624 65.7486 32.925 66.9112 34.3543 66.9112C35.7837 66.9112 36.9463 65.7486 36.9463 64.3192C36.9463 62.8899 35.7835 61.7273 34.3543 61.7273Z" fill="#4AA956"/>
<path d="M67.8757 26.7546H87.1344C88.7947 26.7546 90.1455 28.1054 90.1455 29.7657V36.2118C90.1455 37.8722 88.7947 39.223 87.1344 39.223H67.8757C66.2153 39.223 64.8645 37.8722 64.8645 36.2118V29.7657C64.8647 28.1054 66.2153 26.7546 67.8757 26.7546ZM68.0581 36.0294H86.9521V29.948H68.0581V36.0294Z" fill="#4AA956"/>
</g>
</svg>
