<svg width="23" height="23" viewBox="0 0 23 23" fill="none" xmlns="http://www.w3.org/2000/svg">
<path fill-rule="evenodd" clip-rule="evenodd" d="M1.74457 13.1027C2.42437 13.1018 3.01363 12.6321 3.16605 11.9695H5.28789C5.36067 13.3827 5.92603 14.7256 6.88587 15.7653L5.40128 17.2497C4.82116 16.841 4.03114 16.9083 3.52854 17.4095C2.98621 17.9521 2.9572 18.8223 3.46209 19.4C3.96697 19.9777 4.83311 20.0654 5.44365 19.6008C6.05401 19.136 6.20009 18.2777 5.77766 17.6371L7.26858 16.1464C8.31684 17.1039 9.66835 17.6626 11.0867 17.7247V19.823C10.3467 19.9624 9.83448 20.6423 9.90445 21.3921C9.97441 22.1419 10.6038 22.7151 11.3567 22.7151C12.1098 22.7151 12.7391 22.1419 12.8091 21.3921C12.8791 20.6423 12.3668 19.9624 11.6267 19.823V17.7247C13.0573 17.6619 14.4194 17.0941 15.471 16.1221L16.9565 17.6076C16.5261 18.2255 16.637 19.0697 17.2124 19.5556C17.7878 20.0416 18.6385 20.0097 19.1759 19.4819C19.7133 18.9542 19.7606 18.1042 19.285 17.52C18.8095 16.9361 17.9675 16.81 17.3418 17.2291L15.8519 15.7392C16.8077 14.6913 17.3654 13.341 17.4274 11.9241H19.5375C19.6818 12.6635 20.3653 13.1716 21.1149 13.0965C21.8645 13.0216 22.4339 12.3884 22.429 11.635C22.4239 10.8817 21.8464 10.2558 21.0957 10.1908C20.3453 10.1258 19.6684 10.6428 19.534 11.3841H17.4274C17.3645 9.94996 16.7942 8.58491 15.818 7.53243L17.3121 6.03835C17.8922 6.44742 18.6826 6.37992 19.185 5.87873C19.7273 5.33587 19.7563 4.46586 19.2515 3.88802C18.7466 3.31036 17.8804 3.22264 17.2699 3.68744C16.6595 4.15207 16.5135 5.0103 16.9359 5.6509L15.4346 7.15219C14.3761 6.18971 13.0109 5.63332 11.5812 5.58163V3.47315C12.3258 3.35765 12.8601 2.69438 12.8144 1.94233C12.7685 1.19027 12.1578 0.596615 11.4047 0.57218C10.6516 0.54792 10.0038 1.1008 9.90954 1.84845C9.81532 2.59593 10.3056 3.29243 11.0411 3.45574V5.58515C9.62475 5.6581 8.27887 6.2261 7.23834 7.18998L5.74549 5.69713C6.18339 5.08607 6.08424 4.24225 5.5166 3.74932C4.94896 3.25639 4.09952 3.27661 3.55596 3.79591C3.0124 4.31503 2.95334 5.16271 3.41972 5.75233C3.8861 6.34177 4.72447 6.47959 5.35487 6.07017L6.85809 7.57321C5.89403 8.6322 5.33641 9.99866 5.28473 11.4296H3.1875C3.07323 10.6603 2.37532 10.1163 1.60147 10.1926C0.827448 10.269 0.24961 10.9392 0.287933 11.716C0.326081 12.4927 0.967029 13.1028 1.74475 13.1028L1.74457 13.1027ZM5.20858 19.0904C4.97777 19.3288 4.63637 19.4244 4.31555 19.3402C3.99454 19.2562 3.74386 19.0055 3.65983 18.6845C3.57563 18.3635 3.67108 18.0221 3.90964 17.7915C4.25789 17.4443 4.81779 17.4328 5.17993 17.7654C5.20032 17.7994 5.22827 17.8282 5.2615 17.8496C5.56914 18.2141 5.54611 18.7534 5.20876 19.0906L5.20858 19.0904ZM11.3767 22.1757C11.8765 22.1646 12.2755 21.756 12.275 21.2563H12.2752C12.2743 20.7723 11.8985 20.3718 11.4154 20.3405C11.3765 20.3495 11.3361 20.3495 11.2972 20.3405C10.7985 20.3727 10.417 20.7978 10.4387 21.297C10.4603 21.7965 10.8771 22.1867 11.3767 22.1757ZM18.8025 17.7915C19.1131 18.1014 19.1615 18.5877 18.918 18.9528C18.6745 19.3179 18.2071 19.4602 17.8015 19.2924C17.396 19.1247 17.1655 18.6939 17.251 18.2633C17.3364 17.833 17.714 17.5229 18.153 17.5229C18.3964 17.5229 18.6301 17.6194 18.8025 17.7915ZM21.8872 11.6443C21.8874 11.1369 21.476 10.7256 20.9686 10.7256V10.7254C20.4615 10.7259 20.0506 11.1369 20.0499 11.6439C20.0499 12.1515 20.4611 12.5628 20.9685 12.5628C21.4758 12.5628 21.8872 12.1516 21.8872 11.6443ZM17.5038 4.19764C17.8137 3.88771 18.2993 3.83989 18.6637 4.08337C19.0279 4.32684 19.1696 4.79393 19.0019 5.19879C18.8342 5.60364 18.4039 5.83358 17.974 5.74815C17.5442 5.66253 17.2347 5.28545 17.2347 4.8472C17.2345 4.60355 17.3312 4.36974 17.5038 4.19764ZM11.3563 1.11316C10.849 1.11316 10.4378 1.52452 10.4378 2.03186C10.4383 2.53903 10.8493 2.94987 11.3563 2.95039C11.8637 2.95039 12.275 2.53921 12.275 2.03186C12.275 1.52452 11.8637 1.11316 11.3563 1.11316ZM3.91 5.49654C3.5512 5.13774 3.5512 4.55604 3.91 4.19724C4.26862 3.83862 4.85033 3.83862 5.20913 4.19724C5.56792 4.55604 5.56792 5.13774 5.20913 5.49654C4.85015 5.85464 4.26898 5.85464 3.91 5.49654ZM16.8932 11.6539C16.8932 8.59597 14.4141 6.11708 11.3562 6.11708C8.2998 6.1206 5.82285 8.59737 5.81934 11.6539C5.81934 14.7119 8.29822 17.1909 11.3562 17.1909C14.4141 17.1909 16.8932 14.7119 16.8932 11.6539ZM1.74432 10.7254C2.25166 10.7254 2.66285 11.1366 2.66285 11.6439C2.66285 12.1513 2.25166 12.5626 1.74432 12.5626C1.23697 12.5626 0.825614 12.1513 0.825614 11.6439C0.826317 11.1369 1.23715 10.7259 1.74432 10.7254ZM14.1921 11.4622C14.1921 13.0281 12.9227 14.2975 11.3568 14.2975C9.791 14.2975 8.52162 13.0281 8.52162 11.4622C8.52162 9.89639 9.791 8.62702 11.3568 8.62702C12.9227 8.62702 14.1921 9.89639 14.1921 11.4622Z" fill="#FCD600"/>
<path fill-rule="evenodd" clip-rule="evenodd" d="M1.74457 13.1027C2.42437 13.1018 3.01363 12.6321 3.16605 11.9695H5.28789C5.36067 13.3827 5.92603 14.7256 6.88587 15.7653L5.40128 17.2497C4.82116 16.841 4.03114 16.9083 3.52854 17.4095C2.98621 17.9521 2.9572 18.8223 3.46209 19.4C3.96697 19.9777 4.83311 20.0654 5.44365 19.6008C6.05401 19.136 6.20009 18.2777 5.77766 17.6371L7.26858 16.1464C8.31684 17.1039 9.66835 17.6626 11.0867 17.7247V19.823C10.3467 19.9624 9.83448 20.6423 9.90445 21.3921C9.97441 22.1419 10.6038 22.7151 11.3567 22.7151C12.1098 22.7151 12.7391 22.1419 12.8091 21.3921C12.8791 20.6423 12.3668 19.9624 11.6267 19.823V17.7247C13.0573 17.6619 14.4194 17.0941 15.471 16.1221L16.9565 17.6076C16.5261 18.2255 16.637 19.0697 17.2124 19.5556C17.7878 20.0416 18.6385 20.0097 19.1759 19.4819C19.7133 18.9542 19.7606 18.1042 19.285 17.52C18.8095 16.9361 17.9675 16.81 17.3418 17.2291L15.8519 15.7392C16.8077 14.6913 17.3654 13.341 17.4274 11.9241H19.5375C19.6818 12.6635 20.3653 13.1716 21.1149 13.0965C21.8645 13.0216 22.4339 12.3884 22.429 11.635C22.4239 10.8817 21.8464 10.2558 21.0957 10.1908C20.3453 10.1258 19.6684 10.6428 19.534 11.3841H17.4274C17.3645 9.94996 16.7942 8.58491 15.818 7.53243L17.3121 6.03835C17.8922 6.44742 18.6826 6.37992 19.185 5.87873C19.7273 5.33587 19.7563 4.46586 19.2515 3.88802C18.7466 3.31036 17.8804 3.22264 17.2699 3.68744C16.6595 4.15207 16.5135 5.0103 16.9359 5.6509L15.4346 7.15219C14.3761 6.18971 13.0109 5.63332 11.5812 5.58163V3.47315C12.3258 3.35765 12.8601 2.69438 12.8144 1.94233C12.7685 1.19027 12.1578 0.596615 11.4047 0.57218C10.6516 0.54792 10.0038 1.1008 9.90954 1.84845C9.81532 2.59593 10.3056 3.29243 11.0411 3.45574V5.58515C9.62475 5.6581 8.27887 6.2261 7.23834 7.18998L5.74549 5.69713C6.18339 5.08607 6.08424 4.24225 5.5166 3.74932C4.94896 3.25639 4.09952 3.27661 3.55596 3.79591C3.0124 4.31503 2.95334 5.16271 3.41972 5.75233C3.8861 6.34177 4.72447 6.47959 5.35487 6.07017L6.85809 7.57321C5.89403 8.6322 5.33641 9.99866 5.28473 11.4296H3.1875C3.07323 10.6603 2.37532 10.1163 1.60147 10.1926C0.827448 10.269 0.24961 10.9392 0.287933 11.716C0.326081 12.4927 0.967029 13.1028 1.74475 13.1028L1.74457 13.1027ZM5.20858 19.0904C4.97777 19.3288 4.63637 19.4244 4.31555 19.3402C3.99454 19.2562 3.74386 19.0055 3.65983 18.6845C3.57563 18.3635 3.67108 18.0221 3.90964 17.7915C4.25789 17.4443 4.81779 17.4328 5.17993 17.7654C5.20032 17.7994 5.22827 17.8282 5.2615 17.8496C5.56914 18.2141 5.54611 18.7534 5.20876 19.0906L5.20858 19.0904ZM11.3767 22.1757C11.8765 22.1646 12.2755 21.756 12.275 21.2563H12.2752C12.2743 20.7723 11.8985 20.3718 11.4154 20.3405C11.3765 20.3495 11.3361 20.3495 11.2972 20.3405C10.7985 20.3727 10.417 20.7978 10.4387 21.297C10.4603 21.7965 10.8771 22.1867 11.3767 22.1757ZM18.8025 17.7915C19.1131 18.1014 19.1615 18.5877 18.918 18.9528C18.6745 19.3179 18.2071 19.4602 17.8015 19.2924C17.396 19.1247 17.1655 18.6939 17.251 18.2633C17.3364 17.833 17.714 17.5229 18.153 17.5229C18.3964 17.5229 18.6301 17.6194 18.8025 17.7915ZM21.8872 11.6443C21.8874 11.1369 21.476 10.7256 20.9686 10.7256V10.7254C20.4615 10.7259 20.0506 11.1369 20.0499 11.6439C20.0499 12.1515 20.4611 12.5628 20.9685 12.5628C21.4758 12.5628 21.8872 12.1516 21.8872 11.6443ZM17.5038 4.19764C17.8137 3.88771 18.2993 3.83989 18.6637 4.08337C19.0279 4.32684 19.1696 4.79393 19.0019 5.19879C18.8342 5.60364 18.4039 5.83358 17.974 5.74815C17.5442 5.66253 17.2347 5.28545 17.2347 4.8472C17.2345 4.60355 17.3312 4.36974 17.5038 4.19764ZM11.3563 1.11316C10.849 1.11316 10.4378 1.52452 10.4378 2.03186C10.4383 2.53903 10.8493 2.94987 11.3563 2.95039C11.8637 2.95039 12.275 2.53921 12.275 2.03186C12.275 1.52452 11.8637 1.11316 11.3563 1.11316ZM3.91 5.49654C3.5512 5.13774 3.5512 4.55604 3.91 4.19724C4.26862 3.83862 4.85033 3.83862 5.20913 4.19724C5.56792 4.55604 5.56792 5.13774 5.20913 5.49654C4.85015 5.85464 4.26898 5.85464 3.91 5.49654ZM16.8932 11.6539C16.8932 8.59597 14.4141 6.11708 11.3562 6.11708C8.2998 6.1206 5.82285 8.59737 5.81934 11.6539C5.81934 14.7119 8.29822 17.1909 11.3562 17.1909C14.4141 17.1909 16.8932 14.7119 16.8932 11.6539ZM1.74432 10.7254C2.25166 10.7254 2.66285 11.1366 2.66285 11.6439C2.66285 12.1513 2.25166 12.5626 1.74432 12.5626C1.23697 12.5626 0.825614 12.1513 0.825614 11.6439C0.826317 11.1369 1.23715 10.7259 1.74432 10.7254ZM14.1921 11.4622C14.1921 13.0281 12.9227 14.2975 11.3568 14.2975C9.791 14.2975 8.52162 13.0281 8.52162 11.4622C8.52162 9.89639 9.791 8.62702 11.3568 8.62702C12.9227 8.62702 14.1921 9.89639 14.1921 11.4622Z" fill="#FCD600"/>
</svg>
