<svg width="65" height="76" viewBox="0 0 65 76" fill="none" xmlns="http://www.w3.org/2000/svg">
<mask id="mask0" mask-type="alpha" maskUnits="userSpaceOnUse" x="0" y="0" width="65" height="76">
<rect width="65" height="76" fill="#C6C9D0"/>
</mask>
<g mask="url(#mask0)">
<path d="M31.5599 74.6049C31.2286 74.2716 30.7687 74.0826 30.3 74.0826C29.8312 74.0826 29.3713 74.2716 29.0398 74.6049C28.7083 74.9364 28.5176 75.3963 28.5176 75.865C28.5176 76.3338 28.7081 76.7936 29.0398 77.1252C29.3713 77.4567 29.8312 77.6474 30.3 77.6474C30.7687 77.6474 31.2286 77.4567 31.5599 77.1252C31.8914 76.7936 32.0823 76.3338 32.0823 75.865C32.0823 75.3945 31.8916 74.9364 31.5599 74.6049Z" fill="#C6C9D0"/>
<path fill-rule="evenodd" clip-rule="evenodd" d="M68.5199 18.1108H69.9583C76.3957 18.1108 81.6328 23.348 81.6328 29.7854V45.8711C81.6328 50.7511 77.8593 54.7636 73.0774 55.1507V57.5013C73.0774 58.4857 72.2793 59.2837 71.295 59.2837C70.3108 59.2837 69.5127 58.4857 69.5127 57.5013V49.4806H53.1148V88.6929H59.5313V59.2837C59.5313 58.2993 60.3295 57.5013 61.3137 57.5013C62.298 57.5013 63.0961 58.2993 63.0961 59.2837V88.6929H69.5127V71.7603C69.5127 70.7759 70.3108 69.9779 71.295 69.9779C72.2793 69.9779 73.0774 70.7759 73.0774 71.7603V90.4753C73.0774 91.4597 72.2793 92.2576 71.295 92.2576H51.3324C50.3482 92.2576 49.55 91.4597 49.55 90.4753V47.6982V30.231H32.0828V69.0868C32.0828 70.0712 31.2846 70.8691 30.3004 70.8691C29.3162 70.8691 28.518 70.0712 28.518 69.0868V49.4806H12.1202V88.6929H18.5367V59.2837C18.5367 58.2993 19.3349 57.5013 20.3191 57.5013C21.3033 57.5013 22.1015 58.2993 22.1015 59.2837V88.6929H28.518V82.4546C28.518 81.4702 29.3162 80.6722 30.3004 80.6722C31.2846 80.6722 32.0828 81.4702 32.0828 82.4546V90.4753C32.0828 91.4597 31.2846 92.2576 30.3004 92.2576H10.3378C9.35355 92.2576 8.5554 91.4597 8.5554 90.4753V55.1509C3.77347 54.7638 0 50.7511 0 45.8713V29.7854C0 23.348 5.23715 18.1108 11.6746 18.1106H13.1129C11.9391 16.5805 11.2391 14.6687 11.2391 12.5954V10.08C11.2391 5.07326 15.3124 1 20.3191 1C25.3258 1 29.399 5.07326 29.399 10.08V12.5954C29.399 14.6685 28.6991 16.5805 27.5252 18.1106H54.1076C52.9337 16.5805 52.2338 14.6687 52.2338 12.5954V10.08C52.2338 5.07326 56.307 1 61.3137 1C66.3204 1 70.3937 5.07326 70.3937 10.08V12.5956C70.3937 14.6687 69.6937 16.5806 68.5199 18.1108ZM61.3143 4.56473C58.2732 4.56473 55.7991 7.03885 55.7991 10.0799V12.5956C55.7991 15.6367 58.273 18.1108 61.3143 18.1108C64.3556 18.1108 66.8295 15.6367 66.8295 12.5954V10.0799C66.8295 7.03885 64.3554 4.56473 61.3143 4.56473ZM14.8031 10.0799C14.8031 7.03885 17.2772 4.56473 20.3183 4.56473C23.3594 4.56473 25.8335 7.03885 25.8335 10.0799V12.5954C25.8335 15.6367 23.3596 18.1108 20.3183 18.1108C17.277 18.1108 14.8031 15.6367 14.8031 12.5956V10.0799ZM73.0799 51.5676C75.8925 51.1954 78.0705 48.7835 78.0705 45.8709V29.785C78.0705 25.3132 74.4325 21.6752 69.9607 21.6752H11.677C7.20523 21.6752 3.56722 25.3132 3.56722 29.785V45.8709C3.56722 48.7835 5.74528 51.1954 8.55787 51.5676V31.3095C8.55787 30.3251 9.35602 29.5271 10.3402 29.5271C11.3245 29.5271 12.1226 30.3251 12.1226 31.3095V45.9155H28.5205V28.4482C28.5205 27.4638 29.3186 26.6658 30.3029 26.6658H51.3349C52.3191 26.6658 53.1173 27.4638 53.1173 28.4482V45.9155H69.5151V31.3095C69.5151 30.3251 70.3133 29.5271 71.2975 29.5271C72.2817 29.5271 73.0799 30.3251 73.0799 31.3095V47.6979V51.5676Z" fill="#C6C9D0"/>
</g>
</svg>
