<svg width="204" height="184" viewBox="0 0 204 184" fill="none" xmlns="http://www.w3.org/2000/svg" xmlns:xlink="http://www.w3.org/1999/xlink">
<rect x="0.6" y="0.6" width="202.8" height="146.8" rx="15.4" stroke="white" stroke-width="1.2"/>
<rect x="0.6" y="0.6" width="202.8" height="146.8" rx="15.4" fill="url(#pattern0_5342_4329)" stroke="white" stroke-width="1.2"/>
<path fill-rule="evenodd" clip-rule="evenodd" d="M132.032 151.008C132.359 150.955 132.667 151.176 132.721 151.503L137.699 182.055H154.537V183.255H49V182.055H65.8379L70.8164 151.503C70.8698 151.176 71.1779 150.955 71.5049 151.008C71.8319 151.061 72.0543 151.369 72.001 151.696L67.0537 182.055H136.483L131.536 151.696C131.483 151.369 131.705 151.061 132.032 151.008Z" fill="white"/>
<defs>
<pattern id="pattern0_5342_4329" patternUnits="userSpaceOnUse" patternTransform="matrix(131.969 0 0 103.189 -0.0914063 -0.479883)" preserveAspectRatio="none" viewBox="-0.114258 -0.599854 164.961 128.987" width="1" height="1">
<use xlink:href="#pattern0_5342_4329_inner" transform="translate(-164.961 -128.987)"/>
<use xlink:href="#pattern0_5342_4329_inner" transform="translate(0 -128.987)"/>
<use xlink:href="#pattern0_5342_4329_inner" transform="translate(-164.961 0)"/>
<g id="pattern0_5342_4329_inner">
<path d="M2.74902 96.4922L95 96.4922" stroke="white" stroke-width="1.2" stroke-linecap="round"/>
<path d="M106.432 96.6211H168.191" stroke="white" stroke-width="1.2" stroke-linecap="round"/>
<path d="M99.4321 96.622L103.544 96.5917M99.4321 96.622L97.2314 92.9237M99.4321 96.622L97.2861 100.352" stroke="white" stroke-width="1.2" stroke-linecap="round"/>
<path d="M5 58.9752L73.2822 58.9752" stroke="white" stroke-width="1.2" stroke-linecap="round"/>
<path d="M85.2822 58.9749L157.782 58.9749" stroke="white" stroke-width="1.2" stroke-linecap="round"/>
<path d="M162.222 58.9757L166.261 58.9757M162.222 58.9757L160.021 55.2775M162.222 58.9757L160.076 62.7061" stroke="white" stroke-width="1.2" stroke-linecap="round"/>
<path d="M77.6245 59.0053L81.7369 58.975M77.6245 59.0053L75.4238 55.307M77.6245 59.0053L75.4785 62.7356" stroke="white" stroke-width="1.2" stroke-linecap="round"/>
<path d="M3.09277 72H86.0928" stroke="white" stroke-width="1.2" stroke-linecap="round"/>
<line x1="104.942" y1="71.9767" x2="167.742" y2="71.9767" stroke="white" stroke-width="1.2" stroke-linecap="round"/>
<path d="M16 7.27344L62.8555 7.27344" stroke="white" stroke-width="1.2" stroke-linecap="round"/>
<path d="M82.6094 7.27349L169 7.27344" stroke="white" stroke-width="1.2" stroke-linecap="round"/>
<path d="M8.5756 7.41539L12.688 7.38508M8.5756 7.41539L6.37495 3.71705M8.5756 7.41539L6.42969 11.1458" stroke="white" stroke-width="1.2" stroke-linecap="round"/>
<line x1="12.518" y1="47.3885" x2="67.325" y2="47.3885" stroke="white" stroke-width="1.2" stroke-linecap="round"/>
<path d="M81.3936 47.1296L166 47.1294" stroke="white" stroke-width="1.2" stroke-linecap="round"/>
<path d="M5.63718 47.1303L9.74966 47.1M5.63718 47.1303L3.43647 43.4321M5.63718 47.1303L3.49121 50.8606" stroke="#00E28D" stroke-width="1.2" stroke-linecap="round"/>
<path d="M8.5 21.0449L28.7822 21.0449" stroke="white" stroke-width="1.2" stroke-linecap="round"/>
<path d="M41.2822 21.0142L155.304 21.0142" stroke="white" stroke-width="1.2" stroke-linecap="round"/>
<path d="M33.4828 21.0633L37.5952 21.033M33.4828 21.0633L31.2822 17.365M33.4828 21.0633L31.3369 24.7937" stroke="white" stroke-width="1.2" stroke-linecap="round"/>
<path d="M0.486136 34L79 34" stroke="white" stroke-width="1.2" stroke-linecap="round"/>
<path d="M125 34L167 34" stroke="white" stroke-width="1.2" stroke-linecap="round"/>
<path d="M90.709 34H108.709" stroke="white" stroke-width="1.2" stroke-linecap="round"/>
<path d="M83.5004 34L87.6128 33.9697M83.5004 34L81.2998 30.3017M83.5004 34L81.3545 37.7303" stroke="white" stroke-width="1.2" stroke-linecap="round"/>
<path d="M2.28223 85.2756H76.2822" stroke="white" stroke-width="1.2" stroke-linecap="round"/>
<path d="M88.5186 85.4165L151.519 85.4165" stroke="white" stroke-width="1.2" stroke-linecap="round"/>
<path d="M80.5112 85.4819L84.6236 85.4516M80.5112 85.4819L78.3105 81.7836M80.5112 85.4819L78.3652 89.2122" stroke="white" stroke-width="1.2" stroke-linecap="round"/>
<line x1="61.0297" y1="109.558" x2="112.83" y2="109.558" stroke="white" stroke-width="1.2" stroke-linecap="round"/>
<line x1="11.9398" y1="109.558" x2="46.7398" y2="109.558" stroke="white" stroke-width="1.2" stroke-linecap="round"/>
<path d="M131.851 109.558L163.651 109.558" stroke="white" stroke-width="1.2" stroke-linecap="round"/>
<path d="M4.94965 109.437L9.06208 109.407M4.94965 109.437L2.74897 105.739M4.94965 109.437L2.80371 113.167" stroke="white" stroke-width="1.2" stroke-linecap="round"/>
<path d="M41.5 124H94.3" stroke="white" stroke-width="1.2" stroke-linecap="round"/>
<line x1="0.6" y1="123.928" x2="23.4518" y2="123.928" stroke="white" stroke-width="1.2" stroke-linecap="round"/>
<path d="M109.062 124L170.063 124" stroke="white" stroke-width="1.2" stroke-linecap="round"/>
<path d="M168.358 18.557C169.234 18.557 169.945 19.2679 169.945 20.1447V23.1973C169.945 23.7646 169.643 24.2887 169.151 24.5723L165.239 26.8311C164.748 27.1147 164.143 27.1147 163.651 26.8311L159.739 24.5723C159.248 24.2887 158.945 23.7646 158.945 23.1973L158.945 20.1447C158.945 19.2679 159.656 18.557 160.533 18.557H168.358Z" fill="#3B3D4F" stroke="#00E28D" stroke-width="1.2"/>
<path d="M164.445 21.614L164.445 23.2896" stroke="#00E28D" stroke-width="1.2" stroke-linecap="round"/>
<path d="M161.327 17.7633V15.3817C161.327 14.0664 162.393 13.0001 163.709 13.0001H165.296C166.612 13.0001 167.678 14.0664 167.678 15.3817V17.7633" stroke="#00E28D" stroke-width="1.2"/>
<path d="M76.3576 5.55701C77.2345 5.55701 77.9453 6.26785 77.9453 7.14472V10.1973C77.9453 10.7646 77.6427 11.2887 77.1515 11.5723L73.2392 13.8311C72.7479 14.1147 72.1427 14.1147 71.6515 13.8311L67.7392 11.5723C67.2479 11.2887 66.9453 10.7646 66.9453 10.1973L66.9453 7.14472C66.9453 6.26785 67.6562 5.55701 68.533 5.55701H76.3576Z" fill="#3B3D4F" stroke="white" stroke-width="1.2"/>
<path d="M72.4453 8.61401L72.4453 10.2896" stroke="white" stroke-width="1.2" stroke-linecap="round"/>
<path d="M69.3271 4.76326V2.38169C69.3271 1.06639 70.3934 0.00012207 71.7087 0.00012207L73.2964 0.00012207C74.6117 0.00012207 75.678 1.06639 75.678 2.38169V4.76326" stroke="white" stroke-width="1.2"/>
<path d="M99.3576 69.557C100.234 69.557 100.945 70.2679 100.945 71.1447V74.1973C100.945 74.7646 100.643 75.2887 100.151 75.5723L96.2392 77.8311C95.7479 78.1147 95.1427 78.1147 94.6515 77.8311L90.7392 75.5723C90.2479 75.2887 89.9453 74.7646 89.9453 74.1973L89.9453 71.1447C89.9453 70.2679 90.6562 69.557 91.533 69.557H99.3576Z" fill="#3B3D4F" stroke="white" stroke-width="1.2"/>
<path d="M95.4453 72.614L95.4453 74.2896" stroke="white" stroke-width="1.2" stroke-linecap="round"/>
<path d="M92.3271 68.7633V66.3817C92.3271 65.0664 93.3934 64.0001 94.7087 64.0001H96.2964C97.6117 64.0001 98.678 65.0664 98.678 66.3817V68.7633" stroke="white" stroke-width="1.2"/>
<path d="M36.3576 121.557C37.2345 121.557 37.9453 122.268 37.9453 123.145V126.197C37.9453 126.765 37.6427 127.289 37.1515 127.572L33.2392 129.831C32.7479 130.115 32.1427 130.115 31.6515 129.831L27.7392 127.572C27.2479 127.289 26.9453 126.765 26.9453 126.197L26.9453 123.145C26.9453 122.268 27.6562 121.557 28.533 121.557H36.3576Z" fill="#3B3D4F" stroke="white" stroke-width="1.2"/>
<path d="M32.4453 124.614L32.4453 126.29" stroke="white" stroke-width="1.2" stroke-linecap="round"/>
<path d="M29.3271 120.763V118.382C29.3271 117.066 30.3934 116 31.7087 116H33.2964C34.6117 116 35.678 117.066 35.678 118.382V120.763" stroke="white" stroke-width="1.2"/>
<path d="M126.358 106.557C127.234 106.557 127.945 107.268 127.945 108.145V111.197C127.945 111.765 127.643 112.289 127.151 112.572L123.239 114.831C122.748 115.115 122.143 115.115 121.651 114.831L117.739 112.572C117.248 112.289 116.945 111.765 116.945 111.197L116.945 108.145C116.945 107.268 117.656 106.557 118.533 106.557H126.358Z" fill="#3B3D4F" stroke="white" stroke-width="1.2"/>
<path d="M122.445 109.614L122.445 111.29" stroke="white" stroke-width="1.2" stroke-linecap="round"/>
<path d="M119.327 105.763V103.382C119.327 102.066 120.393 101 121.709 101H123.296C124.612 101 125.678 102.066 125.678 103.382V105.763" stroke="white" stroke-width="1.2"/>
<path d="M116.782 28.4197C117.794 28.4197 118.755 28.9651 119.484 29.9373C120.214 30.9096 120.683 32.2805 120.683 33.8201C120.683 35.3597 120.214 36.7306 119.484 37.7029C118.755 38.675 117.794 39.2205 116.782 39.2205C115.771 39.2205 114.809 38.675 114.08 37.7029C113.351 36.7306 112.882 35.3597 112.882 33.8201C112.882 32.2805 113.351 30.9096 114.08 29.9373C114.809 28.9651 115.771 28.4197 116.782 28.4197Z" stroke="white" stroke-width="1.2"/>
<path d="M101.782 118.42C102.794 118.42 103.755 118.965 104.484 119.937C105.214 120.91 105.683 122.28 105.683 123.82C105.683 125.36 105.214 126.731 104.484 127.703C103.755 128.675 102.794 129.22 101.782 129.22C100.771 129.22 99.8092 128.675 99.0801 127.703C98.3508 126.731 97.8818 125.36 97.8818 123.82C97.8818 122.28 98.3508 120.91 99.0801 119.937C99.8092 118.965 100.771 118.42 101.782 118.42Z" stroke="white" stroke-width="1.2"/>
<path d="M158.782 79.4197C159.794 79.4197 160.755 79.9651 161.484 80.9373C162.214 81.9096 162.683 83.2805 162.683 84.8201C162.683 86.3597 162.214 87.7306 161.484 88.7029C160.755 89.675 159.794 90.2205 158.782 90.2205C157.771 90.2205 156.809 89.675 156.08 88.7029C155.351 87.7306 154.882 86.3597 154.882 84.8201C154.882 83.2805 155.351 81.9096 156.08 80.9373C156.809 79.9651 157.771 79.4197 158.782 79.4197Z" stroke="white" stroke-width="1.2"/>
<path d="M72.2285 40.6204C73.263 39.7151 74.8818 40.4498 74.8818 41.8245V50.5208H78.2822C78.6136 50.5208 78.8818 50.789 78.8818 51.1204C78.8816 51.4516 78.6135 51.72 78.2822 51.72H70.2822C69.951 51.72 69.6828 51.4516 69.6826 51.1204C69.6826 50.789 69.9509 50.5208 70.2822 50.5208H73.6826V41.8245C73.6826 41.4808 73.2772 41.2965 73.0186 41.5227L70.6777 43.5715C70.4286 43.7894 70.0493 43.7646 69.8311 43.5159C69.613 43.2667 69.6379 42.8875 69.8867 42.6692L72.2285 40.6204Z" fill="white"/>
<path d="M52.2285 102.62C53.263 101.715 54.8817 102.45 54.8818 103.824V112.521H58.2822C58.6135 112.521 58.8818 112.789 58.8818 113.12C58.8818 113.452 58.6136 113.72 58.2822 113.72H50.2822C49.9509 113.72 49.6826 113.452 49.6826 113.12C49.6827 112.789 49.9509 112.521 50.2822 112.521H53.6826V103.824C53.6825 103.481 53.2772 103.297 53.0186 103.523L50.6777 105.572C50.4285 105.79 50.0493 105.765 49.8311 105.516C49.6131 105.267 49.6378 104.887 49.8867 104.669L52.2285 102.62Z" fill="#00E28D"/>
</g>
</pattern></defs>
</svg>
