<svg width="1920" height="377" viewBox="0 0 1920 377" fill="none" xmlns="http://www.w3.org/2000/svg" xmlns:xlink="http://www.w3.org/1999/xlink">
<path d="M-457 0H2393V377H-457V0Z" fill="url(#pattern0_3876_1601)"/>
<defs>
<pattern id="pattern0_3876_1601" patternUnits="userSpaceOnUse" patternTransform="matrix(199.602 0 0 157.65 -457 108.465)" preserveAspectRatio="none" viewBox="0 -0.999878 164.961 130.289" width="1" height="1">
<use xlink:href="#pattern0_3876_1601_inner" transform="translate(-164.961 -130.289)"/>
<use xlink:href="#pattern0_3876_1601_inner" transform="translate(0 -130.289)"/>
<use xlink:href="#pattern0_3876_1601_inner" transform="translate(-164.961 0)"/>
<g id="pattern0_3876_1601_inner">
<path d="M2.75 96.4922L95.001 96.4922" stroke="#3B3D4F" stroke-width="2" stroke-linecap="round"/>
<path d="M106.432 96.6211H168.191" stroke="#3B3D4F" stroke-width="2" stroke-linecap="round"/>
<path d="M99.4311 96.622L103.544 96.5917M99.4311 96.622L97.2304 92.9237M99.4311 96.622L97.2852 100.352" stroke="#3B3D4F" stroke-width="2" stroke-linecap="round"/>
<path d="M5 58.9752L73.2822 58.9752" stroke="#3B3D4F" stroke-width="2" stroke-linecap="round"/>
<path d="M85.2812 58.9749L157.781 58.9749" stroke="#3B3D4F" stroke-width="2" stroke-linecap="round"/>
<path d="M162.222 58.9757L166.261 58.9757M162.222 58.9757L160.021 55.2775M162.222 58.9757L160.076 62.7061" stroke="#3B3D4F" stroke-width="2" stroke-linecap="round"/>
<path d="M77.6245 59.0053L81.7369 58.975M77.6245 59.0053L75.4238 55.307M77.6245 59.0053L75.4785 62.7356" stroke="#3B3D4F" stroke-width="2" stroke-linecap="round"/>
<path d="M3.09375 71.7175H86.0938" stroke="#3B3D4F" stroke-width="2" stroke-linecap="round"/>
<line x1="105.342" y1="71.5767" x2="167.342" y2="71.5767" stroke="#3B3D4F" stroke-width="2" stroke-linecap="round"/>
<path d="M16 7.27344L62.8555 7.27344" stroke="#3B3D4F" stroke-width="2" stroke-linecap="round"/>
<path d="M82.6094 7.27349L169 7.27344" stroke="#3B3D4F" stroke-width="2" stroke-linecap="round"/>
<path d="M8.5756 7.41539L12.688 7.38508M8.5756 7.41539L6.37495 3.71705M8.5756 7.41539L6.42969 11.1458" stroke="#00E28D" stroke-width="2" stroke-linecap="round"/>
<line x1="12.918" y1="46.9885" x2="66.925" y2="46.9885" stroke="#3B3D4F" stroke-width="2" stroke-linecap="round"/>
<path d="M81.3945 47.1296L166.001 47.1294" stroke="#3B3D4F" stroke-width="2" stroke-linecap="round"/>
<path d="M5.63816 47.1303L9.75063 47.1M5.63816 47.1303L3.43745 43.4321M5.63816 47.1303L3.49219 50.8606" stroke="#3B3D4F" stroke-width="2" stroke-linecap="round"/>
<path d="M8.5 21.0449L28.7822 21.0449" stroke="#3B3D4F" stroke-width="2" stroke-linecap="round"/>
<path d="M41.2812 21.0142L155.303 21.0142" stroke="#3B3D4F" stroke-width="2" stroke-linecap="round"/>
<path d="M33.4819 21.0633L37.5942 21.033M33.4819 21.0633L31.2812 17.365M33.4819 21.0633L31.3359 24.7937" stroke="#3B3D4F" stroke-width="2" stroke-linecap="round"/>
<line x1="2.375" y1="34.2771" x2="80.0889" y2="34.2771" stroke="#3B3D4F" stroke-width="2" stroke-linecap="round"/>
<path d="M125.16 34.4182L167.16 34.4182" stroke="#3B3D4F" stroke-width="2" stroke-linecap="round"/>
<path d="M90.709 34.4182H108.709" stroke="#3B3D4F" stroke-width="2" stroke-linecap="round"/>
<path d="M83.603 34.4835L87.7153 34.4532M83.603 34.4835L81.4023 30.7852M83.603 34.4835L81.457 38.2139" stroke="#3B3D4F" stroke-width="2" stroke-linecap="round"/>
<path d="M2.28125 85.2756H76.2813" stroke="#3B3D4F" stroke-width="2" stroke-linecap="round"/>
<path d="M88.5195 85.4165L151.52 85.4165" stroke="#3B3D4F" stroke-width="2" stroke-linecap="round"/>
<path d="M80.5112 85.4819L84.6236 85.4516M80.5112 85.4819L78.3105 81.7836M80.5112 85.4819L78.3652 89.2122" stroke="#3B3D4F" stroke-width="2" stroke-linecap="round"/>
<line x1="61.4297" y1="109.158" x2="112.43" y2="109.158" stroke="#3B3D4F" stroke-width="2" stroke-linecap="round"/>
<line x1="12.3398" y1="109.158" x2="46.3398" y2="109.158" stroke="#3B3D4F" stroke-width="2" stroke-linecap="round"/>
<line x1="132.25" y1="109.158" x2="167.25" y2="109.158" stroke="#3B3D4F" stroke-width="2" stroke-linecap="round"/>
<path d="M4.95063 109.437L9.06305 109.407M4.95063 109.437L2.74995 105.739M4.95063 109.437L2.80469 113.167" stroke="#3B3D4F" stroke-width="2" stroke-linecap="round"/>
<line x1="41.9863" y1="123.416" x2="93.9863" y2="123.416" stroke="#3B3D4F" stroke-width="2" stroke-linecap="round"/>
<line x1="1" y1="123.528" x2="23.0518" y2="123.528" stroke="#3B3D4F" stroke-width="2" stroke-linecap="round"/>
<path d="M109.062 123.669L170.062 123.669" stroke="#3B3D4F" stroke-width="2" stroke-linecap="round"/>
<path d="M168.358 18.557C169.234 18.557 169.945 19.2679 169.945 20.1447V23.1973C169.945 23.7646 169.643 24.2887 169.151 24.5723L165.239 26.8311C164.748 27.1147 164.143 27.1147 163.651 26.8311L159.739 24.5723C159.248 24.2887 158.945 23.7646 158.945 23.1973L158.945 20.1447C158.945 19.2679 159.656 18.557 160.533 18.557H168.358Z" fill="#282935" stroke="#3B3D4F" stroke-width="2"/>
<path d="M164.445 21.614L164.445 23.2896" stroke="#3B3D4F" stroke-width="2" stroke-linecap="round"/>
<path d="M161.326 17.7633V15.3817C161.326 14.0664 162.392 13.0001 163.708 13.0001H165.295C166.611 13.0001 167.677 14.0664 167.677 15.3817V17.7633" stroke="#3B3D4F" stroke-width="2"/>
<path d="M76.3576 5.55701C77.2345 5.55701 77.9453 6.26785 77.9453 7.14472V10.1973C77.9453 10.7646 77.6427 11.2887 77.1515 11.5723L73.2392 13.8311C72.7479 14.1147 72.1427 14.1147 71.6515 13.8311L67.7392 11.5723C67.2479 11.2887 66.9453 10.7646 66.9453 10.1973L66.9453 7.14472C66.9453 6.26785 67.6562 5.55701 68.533 5.55701H76.3576Z" fill="#282935" stroke="#3B3D4F" stroke-width="2"/>
<path d="M72.4453 8.61401L72.4453 10.2896" stroke="#3B3D4F" stroke-width="2" stroke-linecap="round"/>
<path d="M69.3262 4.76326V2.38169C69.3262 1.06639 70.3924 0.00012207 71.7077 0.00012207L73.2955 0.00012207C74.6108 0.00012207 75.677 1.06639 75.677 2.38169V4.76326" stroke="#3B3D4F" stroke-width="2"/>
<path d="M99.3576 69.557C100.234 69.557 100.945 70.2679 100.945 71.1447V74.1973C100.945 74.7646 100.643 75.2887 100.151 75.5723L96.2392 77.8311C95.7479 78.1147 95.1427 78.1147 94.6515 77.8311L90.7392 75.5723C90.2479 75.2887 89.9453 74.7646 89.9453 74.1973L89.9453 71.1447C89.9453 70.2679 90.6562 69.557 91.533 69.557H99.3576Z" fill="#282935" stroke="#3B3D4F" stroke-width="2"/>
<path d="M95.4453 72.614L95.4453 74.2896" stroke="#3B3D4F" stroke-width="2" stroke-linecap="round"/>
<path d="M92.3262 68.7633V66.3817C92.3262 65.0664 93.3924 64.0001 94.7077 64.0001H96.2955C97.6108 64.0001 98.677 65.0664 98.677 66.3817V68.7633" stroke="#3B3D4F" stroke-width="2"/>
<path d="M36.3576 121.557C37.2345 121.557 37.9453 122.268 37.9453 123.145V126.197C37.9453 126.765 37.6427 127.289 37.1515 127.572L33.2392 129.831C32.7479 130.115 32.1427 130.115 31.6515 129.831L27.7392 127.572C27.2479 127.289 26.9453 126.765 26.9453 126.197L26.9453 123.145C26.9453 122.268 27.6562 121.557 28.533 121.557H36.3576Z" fill="#282935" stroke="#3B3D4F" stroke-width="2"/>
<path d="M32.4453 124.614L32.4453 126.29" stroke="#3B3D4F" stroke-width="2" stroke-linecap="round"/>
<path d="M29.3262 120.763V118.382C29.3262 117.066 30.3924 116 31.7077 116H33.2955C34.6108 116 35.677 117.066 35.677 118.382V120.763" stroke="#3B3D4F" stroke-width="2"/>
<path d="M126.358 106.557C127.234 106.557 127.945 107.268 127.945 108.145V111.197C127.945 111.765 127.643 112.289 127.151 112.572L123.239 114.831C122.748 115.115 122.143 115.115 121.651 114.831L117.739 112.572C117.248 112.289 116.945 111.765 116.945 111.197L116.945 108.145C116.945 107.268 117.656 106.557 118.533 106.557H126.358Z" fill="#282935" stroke="#00E28D" stroke-width="2"/>
<path d="M122.445 109.614L122.445 111.29" stroke="#00E28D" stroke-width="2" stroke-linecap="round"/>
<path d="M119.326 105.763V103.382C119.326 102.066 120.392 101 121.708 101H123.295C124.611 101 125.677 102.066 125.677 103.382V105.763" stroke="#00E28D" stroke-width="2"/>
<path d="M116.781 28.8201C117.639 28.8201 118.491 29.2811 119.163 30.1775C119.836 31.0742 120.281 32.3587 120.281 33.8201C120.281 35.2815 119.836 36.566 119.163 37.4626C118.491 38.359 117.639 38.8201 116.781 38.8201C115.924 38.8201 115.072 38.359 114.399 37.4626C113.727 36.566 113.281 35.2815 113.281 33.8201C113.281 32.3587 113.727 31.0742 114.399 30.1775C115.072 29.2811 115.924 28.8201 116.781 28.8201Z" stroke="#3B3D4F" stroke-width="2"/>
<path d="M101.781 118.82C102.639 118.82 103.491 119.281 104.163 120.177C104.836 121.074 105.281 122.359 105.281 123.82C105.281 125.281 104.836 126.566 104.163 127.463C103.491 128.359 102.639 128.82 101.781 128.82C100.924 128.82 100.072 128.359 99.3994 127.463C98.7269 126.566 98.2812 125.281 98.2812 123.82C98.2812 122.359 98.7269 121.074 99.3994 120.177C100.072 119.281 100.924 118.82 101.781 118.82Z" stroke="#3B3D4F" stroke-width="2"/>
<path d="M158.781 79.8201C159.639 79.8201 160.491 80.2811 161.163 81.1775C161.836 82.0742 162.281 83.3587 162.281 84.8201C162.281 86.2815 161.836 87.566 161.163 88.4626C160.491 89.359 159.639 89.8201 158.781 89.8201C157.924 89.8201 157.072 89.359 156.399 88.4626C155.727 87.566 155.281 86.2815 155.281 84.8201C155.281 83.3587 155.727 82.0742 156.399 81.1775C157.072 80.2811 157.924 79.8201 158.781 79.8201Z" stroke="#3B3D4F" stroke-width="2"/>
<path fill-rule="evenodd" clip-rule="evenodd" d="M71.9639 40.3181C73.257 39.1867 75.2811 40.1058 75.2812 41.8239V50.1198H78.2812C78.8335 50.1198 79.2812 50.5676 79.2812 51.1198C79.2812 51.6721 78.8335 52.1198 78.2812 52.1198H70.2812C69.729 52.1198 69.2812 51.6721 69.2812 51.1198C69.2813 50.5676 69.729 50.1198 70.2812 50.1198H73.2812V41.8239L70.9395 43.8728C70.5238 44.2361 69.8919 44.1936 69.5283 43.778C69.165 43.3624 69.2076 42.7305 69.623 42.3669L71.9639 40.3181Z" fill="#3B3D4F"/>
<path fill-rule="evenodd" clip-rule="evenodd" d="M51.9639 102.319C53.257 101.188 55.2812 102.107 55.2812 103.825V112.121H58.2812C58.8335 112.121 59.2812 112.569 59.2812 113.121C59.281 113.673 58.8334 114.121 58.2812 114.121H50.2812C49.7291 114.121 49.2815 113.673 49.2812 113.121C49.2812 112.569 49.729 112.121 50.2812 112.121H53.2812V103.825L50.9395 105.874C50.5239 106.237 49.8919 106.194 49.5283 105.779C49.165 105.364 49.2077 104.732 49.623 104.368L51.9639 102.319Z" fill="#3B3D4F"/>
</g>
</pattern></defs>
</svg>
