<svg width="507" height="219" viewBox="0 0 507 219" fill="none" xmlns="http://www.w3.org/2000/svg">
<path fill-rule="evenodd" clip-rule="evenodd" d="M507 57H0V56H507V57ZM507 105H0V104H507V105ZM0 156H507V155H0V156Z" fill="#E8F1FF"/>
<path d="M182.096 3.21191V2.14307H180.662V3.20117C180.039 3.31396 179.539 3.57715 179.174 3.99072C178.809 4.39893 178.626 4.87158 178.626 5.39795C178.626 5.90283 178.755 6.31641 179.018 6.64941C179.276 6.97705 179.593 7.21338 179.963 7.3584C180.334 7.49805 180.705 7.62158 181.081 7.729C181.457 7.83643 181.773 7.96533 182.031 8.12646C182.289 8.28223 182.423 8.4917 182.423 8.74951C182.423 9.03418 182.311 9.27051 182.085 9.4585C181.859 9.64111 181.553 9.73779 181.156 9.73779C180.812 9.73779 180.479 9.65723 180.167 9.50684C179.851 9.35107 179.646 9.22754 179.555 9.13623C179.464 9.04492 179.394 8.96973 179.346 8.91602L178.352 9.9043L178.443 10.0171C178.497 10.0815 178.594 10.1675 178.728 10.2749C178.857 10.3823 179.013 10.4897 179.185 10.5972C179.356 10.7046 179.571 10.812 179.834 10.9141C180.098 11.0107 180.372 11.0859 180.662 11.1289V12.1602H182.096V11.0913C182.751 10.9624 183.267 10.6831 183.632 10.2642C183.997 9.83984 184.185 9.33496 184.185 8.74951C184.185 8.24463 184.051 7.82568 183.793 7.49805C183.53 7.16504 183.213 6.92871 182.837 6.78906C182.461 6.64404 182.09 6.52051 181.72 6.41309C181.349 6.30566 181.032 6.17139 180.774 6.01562C180.517 5.85986 180.388 5.65576 180.388 5.39795C180.388 5.16699 180.479 4.97363 180.672 4.8125C180.866 4.65137 181.118 4.5708 181.435 4.5708C181.693 4.5708 181.951 4.62988 182.198 4.75342C182.445 4.87158 182.606 4.96826 182.681 5.04346C182.756 5.11865 182.821 5.17773 182.864 5.23145L183.852 4.18408L183.675 3.99609C183.557 3.87256 183.353 3.72754 183.062 3.56641C182.767 3.40527 182.445 3.28711 182.096 3.21191ZM186.709 3.29785L186.667 3.38916C186.634 3.45361 186.575 3.53418 186.5 3.62549C186.425 3.7168 186.328 3.80811 186.221 3.90479C186.113 4.00146 185.958 4.09277 185.764 4.17871C185.565 4.26465 185.351 4.31836 185.114 4.34521V5.39258H186.436V11H188.084V3.29785H186.709ZM191.334 7.14893C191.334 6.34326 191.495 5.72021 191.823 5.27979C192.145 4.83936 192.532 4.61914 192.983 4.61914C193.429 4.61914 193.815 4.83936 194.143 5.27979C194.465 5.72021 194.632 6.34326 194.632 7.14893C194.632 7.95459 194.465 8.57764 194.143 9.01807C193.815 9.4585 193.429 9.67871 192.983 9.67871C192.532 9.67871 192.145 9.4585 191.823 9.01807C191.495 8.57764 191.334 7.95459 191.334 7.14893ZM196.281 7.14893C196.281 5.9458 195.958 4.979 195.319 4.24316C194.675 3.50732 193.896 3.13672 192.983 3.13672C192.064 3.13672 191.286 3.50732 190.646 4.24316C190.002 4.979 189.685 5.9458 189.685 7.14893C189.685 8.35205 190.002 9.32422 190.646 10.0601C191.286 10.8013 192.064 11.1665 192.983 11.1665C193.896 11.1665 194.675 10.8013 195.319 10.0601C195.958 9.32422 196.281 8.35205 196.281 7.14893ZM199.144 7.14893C199.144 6.34326 199.305 5.72021 199.632 5.27979C199.955 4.83936 200.341 4.61914 200.792 4.61914C201.238 4.61914 201.625 4.83936 201.953 5.27979C202.275 5.72021 202.441 6.34326 202.441 7.14893C202.441 7.95459 202.275 8.57764 201.953 9.01807C201.625 9.4585 201.238 9.67871 200.792 9.67871C200.341 9.67871 199.955 9.4585 199.632 9.01807C199.305 8.57764 199.144 7.95459 199.144 7.14893ZM204.09 7.14893C204.09 5.9458 203.768 4.979 203.129 4.24316C202.484 3.50732 201.706 3.13672 200.792 3.13672C199.874 3.13672 199.095 3.50732 198.456 4.24316C197.812 4.979 197.495 5.9458 197.495 7.14893C197.495 8.35205 197.812 9.32422 198.456 10.0601C199.095 10.8013 199.874 11.1665 200.792 11.1665C201.706 11.1665 202.484 10.8013 203.129 10.0601C203.768 9.32422 204.09 8.35205 204.09 7.14893ZM210.75 5.5C210.552 5.5 210.358 5.53223 210.176 5.58594C209.993 5.63965 209.843 5.7041 209.73 5.77393C209.612 5.84375 209.504 5.92432 209.408 6.01025C209.311 6.09619 209.247 6.15527 209.22 6.1875C209.188 6.21973 209.166 6.24658 209.155 6.26807V3.29785H207.667V11H209.155V10.3394L209.316 10.5381C209.424 10.667 209.617 10.7905 209.886 10.9194C210.154 11.0483 210.439 11.1074 210.75 11.1074C211.443 11.1074 212.045 10.8389 212.561 10.2964C213.076 9.75391 213.334 9.08789 213.334 8.30371C213.334 7.51953 213.076 6.85889 212.566 6.31641C212.05 5.77393 211.449 5.5 210.75 5.5ZM210.471 9.7915C210.106 9.7915 209.794 9.65186 209.537 9.37256C209.279 9.09326 209.155 8.73877 209.155 8.30371C209.155 7.87402 209.279 7.51953 209.537 7.24023C209.794 6.96094 210.106 6.82129 210.471 6.82129C210.836 6.82129 211.148 6.96094 211.406 7.24023C211.664 7.51953 211.792 7.87402 211.792 8.30371C211.792 8.73877 211.664 9.09326 211.406 9.37256C211.148 9.65186 210.836 9.7915 210.471 9.7915ZM215.977 5.60742H214.489V11H215.977V5.60742ZM216.084 4.07129C216.084 3.82422 216.003 3.62012 215.848 3.46973C215.687 3.31934 215.472 3.24414 215.203 3.24414C214.956 3.24414 214.757 3.31934 214.607 3.46973C214.457 3.62012 214.381 3.82422 214.381 4.07129C214.381 4.31836 214.451 4.51709 214.602 4.66748C214.752 4.81787 214.951 4.89307 215.203 4.89307C215.472 4.89307 215.687 4.81787 215.848 4.66748C216.003 4.51709 216.084 4.31836 216.084 4.07129ZM219.006 3.29785H217.518V11H219.006V3.29785ZM222.035 3.29785H220.547V11H222.035V3.29785ZM225.064 5.60742H223.577V11H225.064V5.60742ZM225.172 4.07129C225.172 3.82422 225.091 3.62012 224.936 3.46973C224.774 3.31934 224.56 3.24414 224.291 3.24414C224.044 3.24414 223.845 3.31934 223.695 3.46973C223.544 3.62012 223.469 3.82422 223.469 4.07129C223.469 4.31836 223.539 4.51709 223.689 4.66748C223.84 4.81787 224.039 4.89307 224.291 4.89307C224.56 4.89307 224.774 4.81787 224.936 4.66748C225.091 4.51709 225.172 4.31836 225.172 4.07129ZM227.761 8.30908C227.761 7.90625 227.89 7.56787 228.153 7.28857C228.411 7.01465 228.722 6.875 229.082 6.875C229.437 6.875 229.748 7.01465 230.011 7.28857C230.269 7.56787 230.403 7.90625 230.403 8.30908C230.403 8.71191 230.269 9.05029 230.011 9.32422C229.748 9.59814 229.437 9.73242 229.082 9.73242C228.722 9.73242 228.411 9.59814 228.153 9.32422C227.89 9.05029 227.761 8.71191 227.761 8.30908ZM231.939 8.30371C231.939 7.55713 231.655 6.90186 231.085 6.34326C230.516 5.78467 229.85 5.50537 229.082 5.50537C228.309 5.50537 227.643 5.78467 227.073 6.34326C226.504 6.90186 226.219 7.55713 226.219 8.30371C226.219 9.05566 226.504 9.71094 227.073 10.2695C227.643 10.8281 228.309 11.1074 229.082 11.1074C229.85 11.1074 230.516 10.8281 231.085 10.2695C231.655 9.71094 231.939 9.05566 231.939 8.30371ZM234.523 5.60742H233.041V11H234.523V8.19629C234.523 7.79346 234.62 7.48193 234.818 7.26172C235.017 7.0415 235.286 6.92871 235.624 6.92871C235.93 6.92871 236.183 7.03076 236.376 7.23486C236.569 7.43896 236.666 7.70215 236.666 8.02979V11H238.148V7.86328C238.148 7.14355 237.955 6.56885 237.568 6.13916C237.182 5.71484 236.677 5.5 236.059 5.5C235.769 5.5 235.49 5.5752 235.221 5.71484C234.953 5.85986 234.781 5.97266 234.7 6.05859C234.625 6.14453 234.561 6.21436 234.518 6.27344L234.523 5.60742Z" fill="#474D54"/>
<path d="M209.044 219V54.3016L238.364 37.2888L238.002 219H209.044Z" fill="url(#paint0_linear)"/>
<path d="M209.044 219V54.3016L179.362 37.2888L179.724 219H209.044Z" fill="url(#paint1_linear)"/>
<path d="M209.406 21L179 37.2888L209.406 54.6636L238.364 37.2888L209.406 21Z" fill="url(#paint2_linear)"/>
<path d="M297.039 72.2119V71.1431H295.605V72.2012C294.982 72.314 294.482 72.5771 294.117 72.9907C293.752 73.3989 293.569 73.8716 293.569 74.3979C293.569 74.9028 293.698 75.3164 293.961 75.6494C294.219 75.9771 294.536 76.2134 294.907 76.3584C295.277 76.498 295.648 76.6216 296.024 76.729C296.4 76.8364 296.717 76.9653 296.975 77.1265C297.232 77.2822 297.367 77.4917 297.367 77.7495C297.367 78.0342 297.254 78.2705 297.028 78.4585C296.803 78.6411 296.497 78.7378 296.099 78.7378C295.755 78.7378 295.422 78.6572 295.111 78.5068C294.794 78.3511 294.59 78.2275 294.499 78.1362C294.407 78.0449 294.337 77.9697 294.289 77.916L293.295 78.9043L293.387 79.0171C293.44 79.0815 293.537 79.1675 293.671 79.2749C293.8 79.3823 293.956 79.4897 294.128 79.5972C294.3 79.7046 294.515 79.812 294.778 79.9141C295.041 80.0107 295.315 80.0859 295.605 80.1289V81.1602H297.039V80.0913C297.694 79.9624 298.21 79.6831 298.575 79.2642C298.94 78.8398 299.128 78.335 299.128 77.7495C299.128 77.2446 298.994 76.8257 298.736 76.498C298.473 76.165 298.156 75.9287 297.78 75.7891C297.404 75.644 297.034 75.5205 296.663 75.4131C296.292 75.3057 295.976 75.1714 295.718 75.0156C295.46 74.8599 295.331 74.6558 295.331 74.3979C295.331 74.167 295.422 73.9736 295.616 73.8125C295.809 73.6514 296.062 73.5708 296.378 73.5708C296.636 73.5708 296.894 73.6299 297.141 73.7534C297.388 73.8716 297.549 73.9683 297.625 74.0435C297.7 74.1187 297.764 74.1777 297.807 74.2314L298.795 73.1841L298.618 72.9961C298.5 72.8726 298.296 72.7275 298.006 72.5664C297.71 72.4053 297.388 72.2871 297.039 72.2119ZM304.129 75.9287L304.236 75.875C304.317 75.8428 304.408 75.7837 304.516 75.6978C304.623 75.6118 304.725 75.5098 304.833 75.3862C304.94 75.2681 305.031 75.1069 305.106 74.9136C305.182 74.7202 305.225 74.5054 305.225 74.2798C305.225 73.6729 304.988 73.1626 304.516 72.7544C304.043 72.3462 303.415 72.1367 302.641 72.1367C302.303 72.1367 301.98 72.1797 301.674 72.2656C301.363 72.3516 301.116 72.4429 300.933 72.5396C300.745 72.6362 300.568 72.7544 300.407 72.8887C300.246 73.0283 300.144 73.1196 300.101 73.1733C300.058 73.2271 300.025 73.2646 300.004 73.2915L300.992 74.2798L301.159 74.1025C301.266 73.9897 301.438 73.8716 301.685 73.748C301.932 73.6299 302.195 73.5654 302.475 73.5654C302.797 73.5654 303.055 73.6514 303.243 73.8125C303.425 73.979 303.522 74.1885 303.522 74.4463C303.522 74.7256 303.425 74.9512 303.237 75.123C303.049 75.2949 302.797 75.3809 302.475 75.3809H301.707V76.7559H302.534C302.926 76.7559 303.232 76.8525 303.458 77.0352C303.683 77.2231 303.796 77.4595 303.796 77.7441C303.796 78.0342 303.678 78.2705 303.452 78.4531C303.227 78.6411 302.899 78.7324 302.475 78.7324C302.26 78.7324 302.056 78.7056 301.857 78.6465C301.658 78.5928 301.497 78.5283 301.368 78.4531C301.239 78.3779 301.121 78.2974 301.008 78.2007C300.89 78.104 300.82 78.0396 300.788 78.002C300.756 77.9644 300.729 77.9321 300.718 77.9106L299.725 78.9526L299.837 79.0762C299.907 79.1675 300.025 79.2695 300.187 79.3877C300.348 79.5059 300.541 79.6187 300.756 79.7368C300.971 79.855 301.245 79.957 301.583 80.043C301.921 80.1289 302.276 80.1665 302.641 80.1665C303.5 80.1665 304.188 79.9409 304.714 79.4844C305.241 79.0332 305.504 78.4907 305.504 77.8569C305.504 77.5776 305.45 77.3252 305.354 77.0889C305.251 76.8525 305.139 76.6699 305.021 76.5356C304.902 76.4067 304.763 76.2886 304.607 76.1865C304.446 76.0845 304.338 76.02 304.274 75.9932C304.209 75.9663 304.161 75.9448 304.129 75.9287ZM308.2 76.1489C308.2 75.3433 308.361 74.7202 308.689 74.2798C309.011 73.8394 309.398 73.6191 309.849 73.6191C310.295 73.6191 310.682 73.8394 311.009 74.2798C311.332 74.7202 311.498 75.3433 311.498 76.1489C311.498 76.9546 311.332 77.5776 311.009 78.0181C310.682 78.4585 310.295 78.6787 309.849 78.6787C309.398 78.6787 309.011 78.4585 308.689 78.0181C308.361 77.5776 308.2 76.9546 308.2 76.1489ZM313.147 76.1489C313.147 74.9458 312.825 73.979 312.186 73.2432C311.541 72.5073 310.762 72.1367 309.849 72.1367C308.931 72.1367 308.152 72.5073 307.513 73.2432C306.868 73.979 306.551 74.9458 306.551 76.1489C306.551 77.3521 306.868 78.3242 307.513 79.0601C308.152 79.8013 308.931 80.1665 309.849 80.1665C310.762 80.1665 311.541 79.8013 312.186 79.0601C312.825 78.3242 313.147 77.3521 313.147 76.1489ZM319.807 74.5C319.608 74.5 319.415 74.5322 319.232 74.5859C319.05 74.6396 318.899 74.7041 318.787 74.7739C318.668 74.8438 318.561 74.9243 318.464 75.0103C318.368 75.0962 318.303 75.1553 318.276 75.1875C318.244 75.2197 318.223 75.2466 318.212 75.2681V72.2979H316.724V80H318.212V79.3394L318.373 79.5381C318.48 79.667 318.674 79.7905 318.942 79.9194C319.211 80.0483 319.496 80.1074 319.807 80.1074C320.5 80.1074 321.102 79.8389 321.617 79.2964C322.133 78.7539 322.391 78.0879 322.391 77.3037C322.391 76.5195 322.133 75.8589 321.623 75.3164C321.107 74.7739 320.505 74.5 319.807 74.5ZM319.528 78.7915C319.163 78.7915 318.851 78.6519 318.593 78.3726C318.335 78.0933 318.212 77.7388 318.212 77.3037C318.212 76.874 318.335 76.5195 318.593 76.2402C318.851 75.9609 319.163 75.8213 319.528 75.8213C319.893 75.8213 320.205 75.9609 320.462 76.2402C320.72 76.5195 320.849 76.874 320.849 77.3037C320.849 77.7388 320.72 78.0933 320.462 78.3726C320.205 78.6519 319.893 78.7915 319.528 78.7915ZM325.033 74.6074H323.545V80H325.033V74.6074ZM325.141 73.0713C325.141 72.8242 325.06 72.6201 324.904 72.4697C324.743 72.3193 324.528 72.2441 324.26 72.2441C324.013 72.2441 323.814 72.3193 323.664 72.4697C323.513 72.6201 323.438 72.8242 323.438 73.0713C323.438 73.3184 323.508 73.5171 323.658 73.6675C323.809 73.8179 324.007 73.8931 324.26 73.8931C324.528 73.8931 324.743 73.8179 324.904 73.6675C325.06 73.5171 325.141 73.3184 325.141 73.0713ZM328.062 72.2979H326.575V80H328.062V72.2979ZM331.092 72.2979H329.604V80H331.092V72.2979ZM334.121 74.6074H332.633V80H334.121V74.6074ZM334.229 73.0713C334.229 72.8242 334.148 72.6201 333.992 72.4697C333.831 72.3193 333.616 72.2441 333.348 72.2441C333.101 72.2441 332.902 72.3193 332.751 72.4697C332.601 72.6201 332.526 72.8242 332.526 73.0713C332.526 73.3184 332.596 73.5171 332.746 73.6675C332.896 73.8179 333.095 73.8931 333.348 73.8931C333.616 73.8931 333.831 73.8179 333.992 73.6675C334.148 73.5171 334.229 73.3184 334.229 73.0713ZM336.817 77.3091C336.817 76.9062 336.946 76.5679 337.209 76.2886C337.467 76.0146 337.779 75.875 338.139 75.875C338.493 75.875 338.805 76.0146 339.068 76.2886C339.326 76.5679 339.46 76.9062 339.46 77.3091C339.46 77.7119 339.326 78.0503 339.068 78.3242C338.805 78.5981 338.493 78.7324 338.139 78.7324C337.779 78.7324 337.467 78.5981 337.209 78.3242C336.946 78.0503 336.817 77.7119 336.817 77.3091ZM340.996 77.3037C340.996 76.5571 340.711 75.9019 340.142 75.3433C339.573 74.7847 338.907 74.5054 338.139 74.5054C337.365 74.5054 336.699 74.7847 336.13 75.3433C335.561 75.9019 335.276 76.5571 335.276 77.3037C335.276 78.0557 335.561 78.7109 336.13 79.2695C336.699 79.8281 337.365 80.1074 338.139 80.1074C338.907 80.1074 339.573 79.8281 340.142 79.2695C340.711 78.7109 340.996 78.0557 340.996 77.3037ZM343.58 74.6074H342.097V80H343.58V77.1963C343.58 76.7935 343.676 76.4819 343.875 76.2617C344.074 76.0415 344.342 75.9287 344.681 75.9287C344.987 75.9287 345.239 76.0308 345.433 76.2349C345.626 76.439 345.723 76.7021 345.723 77.0298V80H347.205V76.8633C347.205 76.1436 347.012 75.5688 346.625 75.1392C346.238 74.7148 345.733 74.5 345.116 74.5C344.826 74.5 344.546 74.5752 344.278 74.7148C344.009 74.8599 343.837 74.9727 343.757 75.0586C343.682 75.1445 343.617 75.2144 343.574 75.2734L343.58 74.6074Z" fill="#474D54"/>
<path d="M167.922 169.137C166.746 169.137 165.752 169.529 164.947 170.313C164.141 171.097 163.738 172.042 163.738 173.149C163.738 174.255 164.141 175.206 164.947 175.99C165.752 176.774 166.746 177.167 167.922 177.167C168.32 177.167 168.707 177.113 169.083 177C169.458 176.893 169.759 176.769 169.99 176.635C170.221 176.5 170.436 176.345 170.64 176.167C170.844 175.99 170.973 175.867 171.032 175.797C171.091 175.727 171.134 175.668 171.167 175.625L170.173 174.578L170.087 174.69C170.028 174.771 169.937 174.862 169.808 174.97C169.679 175.077 169.528 175.185 169.362 175.292C169.19 175.399 168.98 175.491 168.723 175.566C168.465 175.641 168.202 175.679 167.922 175.679C167.203 175.679 166.601 175.437 166.118 174.954C165.634 174.47 165.393 173.869 165.393 173.149C165.393 172.429 165.634 171.828 166.118 171.344C166.601 170.861 167.203 170.619 167.922 170.619C168.18 170.619 168.438 170.662 168.69 170.743C168.938 170.823 169.142 170.909 169.297 171.006C169.448 171.103 169.593 171.21 169.722 171.333C169.851 171.462 169.937 171.548 169.974 171.602C170.012 171.656 170.044 171.693 170.065 171.72L171.113 170.673L170.989 170.512C170.909 170.41 170.78 170.281 170.597 170.13C170.415 169.98 170.21 169.83 169.974 169.679C169.738 169.529 169.442 169.405 169.077 169.298C168.712 169.19 168.325 169.137 167.922 169.137ZM175.399 171.554H175.179C174.883 171.554 174.604 171.624 174.335 171.752C174.067 171.887 173.895 171.994 173.814 172.075C173.739 172.155 173.675 172.22 173.632 172.268V171.607H172.149V177H173.632V174.417C173.632 173.955 173.75 173.6 173.976 173.353C174.201 173.106 174.513 172.982 174.899 172.982C175.12 172.988 175.286 173.009 175.394 173.047L175.399 171.554ZM177.488 177.328C177.311 177.736 177 177.935 176.554 177.935C176.333 177.935 176.151 177.902 176.006 177.827V179.143L176.113 179.181C176.188 179.213 176.301 179.24 176.462 179.267C176.618 179.299 176.779 179.31 176.94 179.31C177.843 179.31 178.536 178.649 179.03 177.328L181.173 171.607H179.637L178.369 175.185L177.107 171.607H175.565L177.655 176.946L177.488 177.328ZM185.019 177.107C185.717 177.107 186.318 176.839 186.834 176.296C187.35 175.754 187.607 175.088 187.607 174.304C187.607 173.52 187.35 172.859 186.834 172.316C186.318 171.774 185.717 171.5 185.019 171.5C184.82 171.5 184.632 171.532 184.449 171.586C184.267 171.64 184.116 171.704 184.003 171.774C183.885 171.844 183.778 171.924 183.681 172.01C183.584 172.096 183.52 172.155 183.488 172.188C183.456 172.22 183.434 172.247 183.423 172.268V171.607H181.941V179.31H183.423V176.339L183.59 176.538C183.697 176.667 183.885 176.791 184.154 176.919C184.422 177.048 184.707 177.107 185.019 177.107ZM184.745 172.821C185.11 172.821 185.421 172.961 185.679 173.24C185.937 173.52 186.066 173.874 186.066 174.309C186.066 174.739 185.937 175.099 185.679 175.378C185.421 175.657 185.11 175.797 184.745 175.797C184.379 175.797 184.068 175.657 183.81 175.378C183.552 175.099 183.423 174.739 183.423 174.309C183.423 173.874 183.552 173.52 183.81 173.24C184.068 172.961 184.379 172.821 184.745 172.821ZM189.369 171.006C189.369 171.221 189.31 171.393 189.192 171.521C189.074 171.656 188.929 171.72 188.762 171.72H188.268V173.042H189.203V175.238C189.203 176.484 189.767 177.107 190.905 177.107C191.271 177.113 191.604 177.059 191.899 176.946V175.679L191.834 175.7C191.786 175.722 191.716 175.743 191.625 175.765C191.534 175.786 191.442 175.792 191.346 175.792C191.152 175.792 190.997 175.732 190.873 175.614C190.75 175.496 190.69 175.356 190.69 175.185V173.042H191.786V171.72H190.69V170.018H189.369V171.006ZM194.375 174.309C194.375 173.906 194.504 173.568 194.767 173.289C195.025 173.015 195.336 172.875 195.696 172.875C196.051 172.875 196.362 173.015 196.625 173.289C196.883 173.568 197.018 173.906 197.018 174.309C197.018 174.712 196.883 175.05 196.625 175.324C196.362 175.598 196.051 175.732 195.696 175.732C195.336 175.732 195.025 175.598 194.767 175.324C194.504 175.05 194.375 174.712 194.375 174.309ZM198.554 174.304C198.554 173.557 198.269 172.902 197.7 172.343C197.13 171.785 196.464 171.505 195.696 171.505C194.923 171.505 194.257 171.785 193.688 172.343C193.118 172.902 192.833 173.557 192.833 174.304C192.833 175.056 193.118 175.711 193.688 176.27C194.257 176.828 194.923 177.107 195.696 177.107C196.464 177.107 197.13 176.828 197.7 176.27C198.269 175.711 198.554 175.056 198.554 174.304ZM207.024 174.798L207.078 174.196C207.078 173.428 206.82 172.789 206.31 172.273C205.794 171.758 205.155 171.5 204.387 171.5C203.613 171.5 202.953 171.779 202.405 172.327C201.852 172.875 201.578 173.536 201.578 174.304C201.578 175.077 201.857 175.738 202.416 176.286C202.974 176.833 203.646 177.107 204.44 177.107C204.72 177.107 204.988 177.075 205.251 177.011C205.515 176.946 205.729 176.876 205.896 176.791C206.057 176.705 206.213 176.608 206.363 176.5C206.508 176.393 206.605 176.318 206.648 176.275L206.75 176.173L205.982 175.185L205.826 175.351C205.729 175.464 205.558 175.577 205.321 175.684C205.085 175.792 204.827 175.845 204.548 175.845C204.161 175.845 203.839 175.749 203.586 175.544C203.329 175.34 203.173 175.093 203.119 174.798H207.024ZM204.387 172.768C204.698 172.768 204.967 172.864 205.182 173.047C205.396 173.235 205.536 173.471 205.595 173.756H203.119C203.205 173.466 203.361 173.224 203.581 173.042C203.801 172.859 204.07 172.768 204.387 172.768ZM210.273 175.297L211.428 177H213.023L211.208 174.25L212.916 171.607H211.262L210.273 173.203L209.285 171.607H207.631L209.339 174.25L207.523 177H209.119L210.273 175.297ZM213.458 174.304C213.458 175.056 213.743 175.711 214.323 176.27C214.898 176.828 215.58 177.107 216.37 177.107C216.649 177.107 216.917 177.07 217.17 176.989C217.422 176.909 217.626 176.823 217.782 176.726C217.943 176.629 218.088 176.522 218.223 176.398C218.362 176.275 218.448 176.189 218.486 176.135C218.523 176.082 218.55 176.044 218.572 176.012L217.691 175.077L217.546 175.26C217.449 175.378 217.288 175.496 217.068 175.614C216.848 175.732 216.617 175.792 216.37 175.792C215.983 175.792 215.65 175.646 215.365 175.356C215.086 175.066 214.941 174.717 214.941 174.309C214.941 173.901 215.086 173.546 215.365 173.256C215.645 172.966 215.983 172.821 216.37 172.821C216.617 172.821 216.848 172.891 217.068 173.02C217.288 173.149 217.433 173.256 217.498 173.337C217.562 173.423 217.61 173.487 217.637 173.536L218.572 172.601L218.491 172.488C218.438 172.413 218.346 172.316 218.217 172.209C218.094 172.102 217.949 172 217.788 171.892C217.626 171.785 217.422 171.693 217.17 171.618C216.917 171.543 216.649 171.5 216.37 171.5C215.58 171.5 214.898 171.785 214.318 172.343C213.743 172.902 213.458 173.557 213.458 174.304ZM221.112 169.298H219.625V177H221.112V174.196C221.112 173.793 221.209 173.482 221.408 173.262C221.601 173.042 221.87 172.929 222.208 172.929C222.514 172.929 222.767 173.031 222.96 173.235C223.153 173.439 223.255 173.702 223.255 174.03V177H224.738V173.863C224.738 173.144 224.539 172.569 224.152 172.139C223.766 171.715 223.261 171.5 222.648 171.5C222.353 171.5 222.074 171.575 221.805 171.715C221.537 171.86 221.365 171.973 221.29 172.059C221.214 172.145 221.15 172.214 221.107 172.273L221.112 169.298ZM229.137 177H230.619V173.643C230.619 173.031 230.404 172.521 229.975 172.112C229.545 171.704 228.986 171.5 228.31 171.5C228.046 171.5 227.789 171.543 227.536 171.618C227.289 171.693 227.085 171.779 226.929 171.871C226.779 171.962 226.634 172.064 226.505 172.182C226.376 172.3 226.29 172.386 226.252 172.435C226.215 172.483 226.183 172.521 226.161 172.547L226.983 173.369L227.106 173.24C227.192 173.144 227.332 173.052 227.531 172.961C227.735 172.87 227.955 172.821 228.197 172.821C228.492 172.821 228.723 172.896 228.884 173.036C229.051 173.181 229.131 173.364 229.131 173.589L227.423 173.896C226.929 173.987 226.537 174.18 226.252 174.47C225.973 174.766 225.828 175.131 225.828 175.571C225.828 176.001 226 176.361 226.333 176.662C226.671 176.962 227.106 177.107 227.644 177.107C227.923 177.107 228.191 177.048 228.449 176.93C228.707 176.812 228.879 176.715 228.954 176.64C229.029 176.565 229.088 176.506 229.131 176.452L229.137 177ZM228.03 175.899C227.558 175.899 227.316 175.716 227.316 175.351C227.316 175.013 227.52 174.809 227.923 174.744L229.131 174.524V174.69C229.131 175.072 229.035 175.367 228.836 175.582C228.637 175.797 228.369 175.899 228.03 175.899ZM233.536 171.607H232.053V177H233.536V174.196C233.536 173.793 233.632 173.482 233.831 173.262C234.03 173.042 234.298 172.929 234.637 172.929C234.943 172.929 235.195 173.031 235.389 173.235C235.582 173.439 235.679 173.702 235.679 174.03V177H237.161V173.863C237.161 173.144 236.968 172.569 236.581 172.139C236.194 171.715 235.689 171.5 235.072 171.5C234.782 171.5 234.502 171.575 234.234 171.715C233.965 171.86 233.793 171.973 233.713 172.059C233.638 172.145 233.573 172.214 233.53 172.273L233.536 171.607ZM242.28 176.56C242.28 177 242.151 177.349 241.893 177.607C241.635 177.865 241.292 177.988 240.851 177.988C240.556 177.988 240.282 177.924 240.024 177.795C239.766 177.666 239.6 177.559 239.524 177.478C239.449 177.392 239.396 177.328 239.358 177.279L238.423 178.16L238.525 178.284C238.584 178.359 238.681 178.456 238.821 178.574C238.96 178.687 239.127 178.799 239.31 178.907C239.498 179.014 239.734 179.111 240.019 179.191C240.298 179.272 240.593 179.315 240.905 179.315C241.721 179.315 242.403 179.046 242.946 178.52C243.488 177.994 243.762 177.338 243.762 176.565V171.613H242.28V172.273L242.113 172.075C242.006 171.951 241.818 171.828 241.549 171.699C241.281 171.57 240.991 171.505 240.685 171.505C240.067 171.505 239.508 171.769 239.009 172.306C238.509 172.843 238.262 173.471 238.262 174.202C238.262 174.927 238.509 175.555 239.009 176.092C239.508 176.629 240.067 176.898 240.685 176.898C240.878 176.898 241.071 176.866 241.254 176.812C241.437 176.758 241.587 176.694 241.7 176.624C241.812 176.554 241.92 176.474 242.017 176.388C242.113 176.302 242.178 176.237 242.21 176.205C242.242 176.173 242.264 176.146 242.28 176.125V176.56ZM239.804 174.196C239.804 173.815 239.917 173.498 240.153 173.251C240.389 173.004 240.674 172.88 241.012 172.88C241.351 172.88 241.646 173.004 241.898 173.262C242.151 173.52 242.28 173.831 242.28 174.196C242.28 174.562 242.151 174.878 241.898 175.136C241.646 175.394 241.351 175.523 241.012 175.523C240.674 175.523 240.389 175.394 240.153 175.147C239.917 174.895 239.804 174.578 239.804 174.196ZM250.304 174.798L250.358 174.196C250.358 173.428 250.1 172.789 249.59 172.273C249.074 171.758 248.435 171.5 247.667 171.5C246.894 171.5 246.233 171.779 245.685 172.327C245.132 172.875 244.858 173.536 244.858 174.304C244.858 175.077 245.137 175.738 245.696 176.286C246.254 176.833 246.926 177.107 247.721 177.107C248 177.107 248.269 177.075 248.532 177.011C248.795 176.946 249.01 176.876 249.176 176.791C249.337 176.705 249.493 176.608 249.644 176.5C249.789 176.393 249.885 176.318 249.928 176.275L250.03 176.173L249.262 175.185L249.106 175.351C249.01 175.464 248.838 175.577 248.602 175.684C248.365 175.792 248.107 175.845 247.828 175.845C247.441 175.845 247.119 175.749 246.867 175.544C246.609 175.34 246.453 175.093 246.399 174.798H250.304ZM247.667 172.768C247.979 172.768 248.247 172.864 248.462 173.047C248.677 173.235 248.816 173.471 248.875 173.756H246.399C246.485 173.466 246.641 173.224 246.861 173.042C247.082 172.859 247.35 172.768 247.667 172.768ZM255.203 172.327L255.015 172.118C254.891 171.989 254.671 171.849 254.359 171.709C254.048 171.57 253.704 171.5 253.333 171.5C252.743 171.5 252.249 171.677 251.846 172.026C251.443 172.381 251.244 172.773 251.244 173.203C251.244 173.536 251.325 173.815 251.497 174.03C251.663 174.25 251.867 174.411 252.109 174.513C252.351 174.621 252.598 174.707 252.845 174.782C253.092 174.857 253.296 174.943 253.468 175.04C253.634 175.136 253.72 175.26 253.72 175.405C253.72 175.555 253.656 175.673 253.538 175.765C253.419 175.856 253.242 175.899 253.006 175.899C252.791 175.899 252.582 175.845 252.383 175.732C252.179 175.62 252.05 175.528 251.985 175.464C251.921 175.399 251.878 175.34 251.851 175.297L251.024 176.119L251.099 176.232C251.153 176.296 251.239 176.377 251.357 176.474C251.475 176.57 251.62 176.662 251.781 176.758C251.942 176.855 252.152 176.941 252.41 177.005C252.667 177.075 252.936 177.107 253.226 177.107C253.892 177.107 254.413 176.946 254.794 176.619C255.176 176.296 255.369 175.888 255.369 175.405C255.369 175.072 255.283 174.787 255.117 174.562C254.945 174.336 254.741 174.169 254.494 174.067C254.247 173.965 254 173.879 253.758 173.804C253.516 173.729 253.312 173.648 253.146 173.552C252.974 173.46 252.893 173.342 252.893 173.203C252.893 173.09 252.952 172.988 253.07 172.902C253.188 172.816 253.35 172.768 253.554 172.768C253.715 172.768 253.871 172.811 254.026 172.891C254.177 172.972 254.279 173.036 254.327 173.084C254.375 173.138 254.413 173.176 254.435 173.203L255.203 172.327Z" fill="#474D54"/>
<path d="M320.044 200V123.302L349.364 106.289L349.002 200H320.044Z" fill="url(#paint3_linear)"/>
<path d="M320.044 201V123.302L290.362 106.289L290.724 201H320.044Z" fill="url(#paint4_linear)"/>
<path d="M320.406 90L290 106.289L320.406 123.664L349.364 106.289L320.406 90Z" fill="url(#paint5_linear)"/>
<path d="M311.628 173.154C311.628 172.445 311.864 171.844 312.348 171.355C312.826 170.866 313.411 170.619 314.099 170.619C314.786 170.619 315.372 170.866 315.85 171.355C316.333 171.844 316.569 172.445 316.569 173.154C316.569 173.863 316.333 174.465 315.85 174.948C315.372 175.437 314.786 175.679 314.099 175.679C313.411 175.679 312.826 175.437 312.348 174.948C311.864 174.465 311.628 173.863 311.628 173.154ZM309.92 173.149C309.92 174.255 310.323 175.206 311.128 175.99C311.934 176.774 312.928 177.167 314.099 177.167C315.27 177.167 316.263 176.774 317.069 175.99C317.875 175.206 318.277 174.255 318.277 173.149C318.277 172.042 317.875 171.097 317.069 170.313C316.263 169.529 315.27 169.137 314.099 169.137C312.928 169.137 311.934 169.529 311.128 170.313C310.323 171.097 309.92 172.042 309.92 173.149ZM319.056 169.298V170.786H321.258V177H322.907V170.786H325.104V169.298H319.056ZM330.056 169.137C328.88 169.137 327.886 169.529 327.081 170.313C326.275 171.097 325.872 172.042 325.872 173.149C325.872 174.255 326.275 175.206 327.081 175.99C327.886 176.774 328.88 177.167 330.056 177.167C330.454 177.167 330.84 177.113 331.216 177C331.592 176.893 331.893 176.769 332.124 176.635C332.355 176.5 332.57 176.345 332.774 176.167C332.978 175.99 333.107 175.867 333.166 175.797C333.225 175.727 333.268 175.668 333.3 175.625L332.307 174.578L332.221 174.69C332.162 174.771 332.07 174.862 331.941 174.97C331.812 175.077 331.662 175.185 331.496 175.292C331.324 175.399 331.114 175.491 330.856 175.566C330.599 175.641 330.335 175.679 330.056 175.679C329.336 175.679 328.735 175.437 328.251 174.954C327.768 174.47 327.526 173.869 327.526 173.149C327.526 172.429 327.768 171.828 328.251 171.344C328.735 170.861 329.336 170.619 330.056 170.619C330.314 170.619 330.572 170.662 330.824 170.743C331.071 170.823 331.275 170.909 331.431 171.006C331.582 171.103 331.727 171.21 331.855 171.333C331.984 171.462 332.07 171.548 332.108 171.602C332.146 171.656 332.178 171.693 332.199 171.72L333.247 170.673L333.123 170.512C333.042 170.41 332.914 170.281 332.731 170.13C332.548 169.98 332.344 169.83 332.108 169.679C331.872 169.529 331.576 169.405 331.211 169.298C330.846 169.19 330.459 169.137 330.056 169.137Z" fill="#474D54"/>
<defs>
<linearGradient id="paint0_linear" x1="223.704" y1="-3.25231" x2="223.704" y2="219" gradientUnits="userSpaceOnUse">
<stop offset="0.201042" stop-color="#A5B5CD"/>
<stop offset="0.856678" stop-color="white"/>
</linearGradient>
<linearGradient id="paint1_linear" x1="194.203" y1="37.2888" x2="194.203" y2="219" gradientUnits="userSpaceOnUse">
<stop stop-color="#DEE9F9"/>
<stop offset="1" stop-color="white"/>
</linearGradient>
<linearGradient id="paint2_linear" x1="208.682" y1="21" x2="208.682" y2="54.6636" gradientUnits="userSpaceOnUse">
<stop stop-color="#E2ECFB"/>
<stop offset="1" stop-color="#E2ECFB" stop-opacity="0"/>
</linearGradient>
<linearGradient id="paint3_linear" x1="334.704" y1="65.7478" x2="341" y2="209" gradientUnits="userSpaceOnUse">
<stop offset="0.201042" stop-color="#C1CFE4"/>
<stop offset="0.856678" stop-color="white"/>
</linearGradient>
<linearGradient id="paint4_linear" x1="295" y1="83" x2="305.203" y2="288" gradientUnits="userSpaceOnUse">
<stop stop-color="#DEE9F9"/>
<stop offset="0.521219" stop-color="white"/>
</linearGradient>
<linearGradient id="paint5_linear" x1="319.682" y1="90" x2="319.682" y2="123.664" gradientUnits="userSpaceOnUse">
<stop stop-color="#E2ECFB"/>
<stop offset="1" stop-color="white"/>
</linearGradient>
</defs>
</svg>
