<svg width="157" height="202" viewBox="0 0 157 202" fill="none" xmlns="http://www.w3.org/2000/svg">
<path d="M27.8882 93.1318C-0.848019 51.9142 11.8027 14.0346 21.7201 0.24707C96.318 10.4063 103.599 95.9135 97.9146 137.397C86.5459 139.816 56.6244 134.349 27.8882 93.1318Z" fill="#303E81"/>
<path fill-rule="evenodd" clip-rule="evenodd" d="M38.4771 32.9848L21.9605 0.493247L22.9308 0L39.3849 32.3686L49.8876 9.09354L50.8797 9.54125L40.0175 33.6131L52.9249 59.0046L72.4165 27.5352L73.3418 28.1083L53.502 60.14L65.8601 84.451L88.3959 51.8221L89.2915 52.4407L66.421 85.5543L89.3289 130.619L88.3586 131.112L65.4962 86.1372L29.4609 94.3875L29.218 93.3265L64.9877 85.137L52.5539 60.677L14.1311 62.8341L14.0701 61.7473L52.0151 59.6171L39.0635 34.1385L10.7801 31.2659L10.8901 30.183L38.4771 32.9848Z" fill="#5986DC"/>
<path d="M68.5252 99.6621C45.5943 84.8586 13.4959 94.7034 0.313027 101.476C-4.33121 147.338 43.8527 170.172 68.5252 175.857C78.0798 156.627 91.4561 114.466 68.5252 99.6621Z" fill="#FFB628"/>
<path fill-rule="evenodd" clip-rule="evenodd" d="M31.4928 118.902L0.419678 102.319L0.932168 101.359L32.0608 117.971V92.4053H33.1493V118.552L47.3996 126.157L51.2948 94.1537L52.3753 94.2852L48.4293 126.707L70.9585 138.73L70.446 139.691L47.9266 127.672L22.0867 151.223L21.3535 150.419L46.9075 127.129L32.6181 119.503L8.20867 133.874L7.65641 132.936L31.4928 118.902Z" fill="#FFFA8C"/>
<path d="M36.4147 168.237C29.8838 158.368 35.3867 141.025 38.9545 133.587L60.3616 142.476L54.9955 155.175L56.3705 160.98V186.378C52.4398 184.443 42.9457 178.106 36.4147 168.237Z" fill="#FBC5AE"/>
<path d="M151.795 132.498L129.662 142.476C131.235 145.197 134.524 151.837 135.105 156.626C135.685 161.416 131.718 165.637 129.662 167.148L126.941 192.909C132.444 189.704 145.373 180.791 153.065 170.777C160.757 160.763 155.423 141.085 151.795 132.498Z" fill="#FBC5AE"/>
<path d="M55.4634 102.202C61.5589 96.5418 79.5312 95.3687 87.7553 95.4896H107.348C129.301 95.4896 139.096 103.472 142.906 111.636C145.953 118.167 150.102 128.144 151.795 132.317L129.662 142.295C131.597 145.197 135.468 152.164 135.468 156.808C135.468 161.452 131.597 165.274 129.662 166.604V154.268H55.4634L60.3616 142.295L38.4103 133.405C41.5549 125.363 49.3678 107.862 55.4634 102.202Z" fill="#232E43"/>
<path d="M129.662 153.905H54.7376V201.255H129.662V153.905Z" fill="#B5CEEA"/>
<path d="M80.1358 56.4856C80.5712 63.1617 84.913 67.4915 87.0296 68.8218L94.6491 55.3971C100.454 56.1832 113.661 57.7918 120.047 57.9369C128.03 58.1183 128.03 52.6759 128.937 48.8662C129.844 45.0564 124.401 42.3352 120.047 41.0653C115.693 39.7954 118.596 34.5343 114.968 31.0874C111.339 27.6405 108.799 31.0874 104.99 31.0874C101.18 31.0874 99.9101 28.0034 94.6491 27.822C89.388 27.6406 89.2066 31.2689 84.3084 34.5343C79.4102 37.7998 78.503 37.7998 77.596 42.3352C76.6889 46.8706 79.5915 48.1405 80.1358 56.4856Z" fill="#222B54"/>
<path d="M87.5739 96.9407L91.9279 79.8877L106.623 84.4231V96.0337C105.897 96.8803 103.502 98.8275 99.7288 99.8434C95.9553 100.859 90.0533 98.3316 87.5739 96.9407Z" fill="#F4A97E"/>
<path d="M102.994 86.6C116.637 86.6 119.805 67.4909 119.684 57.9364C115.149 59.0249 109.344 55.3965 103.901 51.4054C98.4588 47.4143 94.2862 47.2328 91.0207 47.9585C88.4084 48.539 87.6343 53.6429 87.5738 56.1222C86.8482 56.0013 85.2155 56.3036 84.4898 58.4806C83.7642 60.6576 85.6388 63.1369 86.6668 64.1045C86.4249 71.603 89.3517 86.6 102.994 86.6Z" fill="#F7B690"/>
<circle cx="92.2907" cy="173.136" r="3.08406" fill="#FCE9E9"/>
<rect x="54.7376" y="196.176" width="74.3803" height="4.35397" fill="#84ABD7"/>
</svg>
