<svg width="172" height="175" viewBox="0 0 172 175" fill="none" xmlns="http://www.w3.org/2000/svg">
<path d="M85.9375 7.27499L89.7311 15.0436C89.8024 15.1891 89.9396 15.2899 90.0989 15.3132L98.5814 16.5591C98.9817 16.6179 99.1419 17.115 98.8522 17.4004L92.7139 23.4471C92.5988 23.5606 92.5464 23.7239 92.5735 23.884L94.0225 32.4224C94.0911 32.8251 93.6723 33.1325 93.3145 32.9423L85.7272 28.9109C85.5851 28.8357 85.4154 28.8357 85.2728 28.9109L77.6855 32.9423C77.3277 33.1325 76.9094 32.8251 76.9775 32.4224L78.4265 23.884C78.454 23.7239 78.4012 23.5606 78.2862 23.4471L72.1478 17.4004C71.8581 17.115 72.0183 16.6179 72.4186 16.5591L80.9016 15.3132C81.0604 15.2899 81.198 15.1891 81.2689 15.0436L85.0625 7.27499C85.2412 6.90834 85.7588 6.90834 85.9375 7.27499Z" fill="#F8DB14"/>
<path d="M93.1916 23.2665C93.0848 23.3822 93.0365 23.5476 93.0619 23.7107L94.4008 32.4121C94.4646 32.822 94.0768 33.1352 93.7466 32.941L92.4277 32.1682L91.0075 22.9402C90.9787 22.7548 91.0338 22.5671 91.1539 22.4374L97.0798 16L98.6134 16.2477C98.9832 16.3081 99.1308 16.8137 98.8636 17.1046L93.1916 23.2665Z" fill="#EEB900"/>
<path d="M83.2911 4.17016C82.8561 4.17016 82.4746 3.85095 82.4093 3.4073L82.058 1.02315C81.9863 0.535312 82.3236 0.0817448 82.8114 0.00960684C83.2993 -0.0620802 83.7533 0.275165 83.825 0.762998L84.1757 3.14716C84.2479 3.63499 83.9102 4.08901 83.4223 4.1607C83.3786 4.16701 83.3344 4.17016 83.2911 4.17016Z" fill="#F8DB14"/>
<path d="M79.0783 6.4519C78.7794 6.4519 78.4872 6.30131 78.3181 6.02854L77.1121 4.07946C76.8524 3.66016 76.9818 3.11011 77.4015 2.85041C77.8204 2.59117 78.3709 2.72056 78.6306 3.13987L79.8366 5.08849C80.0963 5.50779 79.9669 6.0583 79.5476 6.31799C79.4011 6.40862 79.2388 6.4519 79.0783 6.4519Z" fill="#F8DB14"/>
<path d="M88.3074 4.17016C88.2641 4.17016 88.2204 4.16746 88.1762 4.1607C87.6884 4.08901 87.3512 3.63499 87.4228 3.14716L87.7741 0.762998C87.8457 0.275165 88.3002 -0.0620802 88.7871 0.00960684C89.2754 0.0817448 89.6127 0.535312 89.5405 1.02315L89.1898 3.4073C89.1244 3.85095 88.743 4.17016 88.3074 4.17016Z" fill="#F8DB14"/>
<path d="M92.5207 6.4519C92.3602 6.4519 92.1979 6.40862 92.0514 6.31799C91.6321 6.0583 91.5027 5.50779 91.7624 5.08849L92.9684 3.13987C93.2281 2.72056 93.7786 2.59117 94.1975 2.85041C94.6168 3.11011 94.7466 3.66061 94.487 4.07991L93.2804 6.02854C93.1118 6.30131 92.8197 6.4519 92.5207 6.4519Z" fill="#F8DB14"/>
<path d="M107.711 25.1163L109.537 28.4031C109.572 28.4646 109.638 28.5073 109.714 28.5171L113.798 29.0442C113.991 29.0691 114.068 29.2794 113.929 29.4002L110.973 31.9584C110.918 32.0064 110.893 32.0755 110.906 32.1432L111.603 35.7556C111.636 35.926 111.435 36.056 111.263 35.9756L107.609 34.27C107.541 34.2382 107.459 34.2382 107.391 34.27L103.737 35.9756C103.565 36.056 103.364 35.926 103.397 35.7556L104.094 32.1432C104.107 32.0755 104.082 32.0064 104.027 31.9584L101.071 29.4002C100.932 29.2794 101.009 29.0691 101.202 29.0442L105.286 28.5171C105.362 28.5073 105.429 28.4646 105.463 28.4031L107.289 25.1163C107.375 24.9612 107.625 24.9612 107.711 25.1163Z" fill="#F8DB14"/>
<path d="M111.096 31.9921C111.042 32.0397 111.018 32.1078 111.031 32.175L111.7 35.7579C111.732 35.9267 111.538 36.0557 111.373 35.9757L110.714 35.6575L110.004 31.8577C109.989 31.7814 110.017 31.7041 110.077 31.6507L113.04 29L113.807 29.102C113.992 29.1269 114.065 29.335 113.932 29.4548L111.096 31.9921Z" fill="#EEB900"/>
<path d="M64.1944 25.1163L65.8805 28.4031C65.9122 28.4646 65.9731 28.5073 66.0439 28.5171L69.814 29.0442C69.9918 29.0691 70.063 29.2794 69.9343 29.4002L67.2062 31.9584C67.155 32.0064 67.1318 32.0755 67.1438 32.1432L67.7878 35.7556C67.8182 35.926 67.6321 36.056 67.4731 35.9756L64.101 34.27C64.0378 34.2382 63.9624 34.2382 63.899 34.27L60.5269 35.9756C60.3679 36.056 60.182 35.926 60.2122 35.7556L60.8562 32.1432C60.8685 32.0755 60.845 32.0064 60.7938 31.9584L58.0657 29.4002C57.937 29.2794 58.0082 29.0691 58.186 29.0442L61.9563 28.5171C62.0269 28.5073 62.088 28.4646 62.1195 28.4031L63.8056 25.1163C63.885 24.9612 64.115 24.9612 64.1944 25.1163Z" fill="#F8DB14"/>
<path d="M67.0958 31.9921C67.0424 32.0397 67.0182 32.1078 67.0309 32.175L67.7004 35.7579C67.7323 35.9267 67.5384 36.0557 67.3733 35.9757L66.7138 35.6575L66.0038 31.8577C65.9894 31.7814 66.0169 31.7041 66.0769 31.6507L69.0399 29L69.8067 29.102C69.9916 29.1269 70.0654 29.335 69.9318 29.4548L67.0958 31.9921Z" fill="#EEB900"/>
<path d="M76.0536 116.659C75.8725 116.659 75.6885 116.633 75.5064 116.58C65.68 113.73 56.9836 108.077 50.3561 100.232C43.5714 92.201 39.4433 82.4033 38.4182 71.9001C37.5772 63.268 38.9219 54.5152 42.3088 46.5885C42.7343 45.5941 43.884 45.1311 44.8804 45.5565C45.8758 45.982 46.3379 47.1337 45.9124 48.1282C42.7838 55.4522 41.542 63.5401 42.3197 71.5191C43.2666 81.2268 47.081 90.2814 53.3513 97.7034C59.478 104.956 67.5165 110.182 76.5988 112.816C77.6377 113.117 78.2363 114.205 77.9346 115.244C77.6862 116.102 76.9035 116.659 76.0536 116.659Z" fill="#CFD9E9"/>
<path d="M95.4076 116.659C94.5586 116.659 93.7759 116.102 93.5266 115.244C93.2248 114.205 93.8234 113.117 94.8624 112.817C103.945 110.182 111.983 104.956 118.11 97.7034C124.38 90.2814 128.195 81.2278 129.141 71.5201C129.919 63.5401 128.677 55.4522 125.549 48.1291C125.123 47.1337 125.585 45.982 126.581 45.5565C127.576 45.1311 128.727 45.5941 129.152 46.5885C132.539 54.5152 133.884 63.268 133.043 71.9001C132.018 82.4033 127.89 92.201 121.105 100.232C114.478 108.077 105.781 113.731 95.9547 116.58C95.7727 116.633 95.5886 116.659 95.4076 116.659Z" fill="#CFD9E9"/>
<path d="M46.045 99.5806C47.0335 98.8029 47.8696 97.8223 48.491 96.728C48.5434 96.6359 49.0441 95.4367 49.0985 95.4337C49.0441 95.4367 48.4227 94.2939 48.3614 94.2078C47.6322 93.1837 46.6991 92.2932 45.6364 91.6203C39.5541 87.7713 32.4112 90.8545 28.8501 96.4727C32.9673 101.696 40.3883 104.031 46.045 99.5806Z" fill="#CFD9E9"/>
<path d="M28.8501 96.4724C32.9673 101.697 40.3873 104.033 46.0441 99.5813C46.6219 99.1261 47.1513 98.6007 47.6124 98.0238C41.8032 101.163 34.9333 99.0351 30.4966 94.3242C29.89 94.9862 29.3369 95.7055 28.8501 96.4724Z" fill="#A6B1C1"/>
<path d="M36.749 80.7703C37.9017 80.2656 38.9575 79.5255 39.8332 78.6231C39.9064 78.5469 40.693 77.5109 40.7455 77.5218C40.693 77.5109 40.3784 76.2494 40.3408 76.1504C39.8916 74.9759 39.2118 73.8806 38.3519 72.9624C33.4303 67.7103 25.7422 68.9016 20.8849 73.4462C23.5594 79.5364 30.1572 83.6595 36.749 80.7703Z" fill="#CFD9E9"/>
<path d="M20.8859 73.4455C23.5594 79.5357 30.1562 83.6598 36.749 80.7706C37.4228 80.4747 38.066 80.0987 38.6577 79.6564C32.246 81.2376 26.1311 77.4539 23.0182 71.7803C22.2652 72.2681 21.5488 72.8261 20.8859 73.4455Z" fill="#A6B1C1"/>
<path d="M61.9893 113.889C62.6483 112.817 63.0955 111.608 63.3003 110.366C63.3172 110.262 63.3736 108.963 63.423 108.942C63.3736 108.963 62.396 108.105 62.3089 108.046C61.2709 107.336 60.0875 106.822 58.8576 106.558C51.8215 105.045 46.1816 110.404 44.7775 116.906C50.4452 120.388 58.2165 120.018 61.9893 113.889Z" fill="#CFD9E9"/>
<path d="M44.7775 116.905C50.4452 120.387 58.2165 120.018 61.9883 113.888C62.3732 113.261 62.6879 112.586 62.9224 111.885C58.5539 116.837 51.3713 117.211 45.582 114.321C45.2406 115.151 44.9705 116.018 44.7775 116.905Z" fill="#A6B1C1"/>
<path d="M35.1777 62.17C36.4354 62.2115 37.7068 61.9988 38.8863 61.5615C38.9852 61.5248 40.1409 60.9292 40.1844 60.9618C40.1409 60.9292 40.4011 59.6548 40.4091 59.5489C40.511 58.2962 40.3695 57.0139 39.9895 55.8156C37.8117 48.9547 30.361 46.7165 24.0185 48.7231C23.8078 55.3723 27.9843 61.9355 35.1777 62.17Z" fill="#CFD9E9"/>
<path d="M24.0195 48.7234C23.8078 55.3717 27.9833 61.9348 35.1767 62.1693C35.9129 62.1931 36.655 62.1307 37.3793 61.9863C30.9121 60.6505 27.0255 54.5999 26.6614 48.1387C25.7719 48.2544 24.8853 48.4504 24.0195 48.7234Z" fill="#A6B1C1"/>
<path d="M41.1323 43.8983C41.5489 45.0847 42.2069 46.1939 43.041 47.1349C43.1113 47.214 44.0849 48.0759 44.0701 48.1283C44.0849 48.0759 45.3672 47.8572 45.4682 47.8275C46.6733 47.4683 47.8172 46.8727 48.7977 46.0841C54.405 41.5721 53.7955 33.8157 49.6309 28.6299C43.3557 30.8384 38.7477 37.1066 41.1323 43.8983Z" fill="#CFD9E9"/>
<path d="M49.6299 28.6309C43.3557 30.8384 38.7467 37.1056 41.1313 43.8973C41.3757 44.5919 41.7023 45.2618 42.099 45.8852C41.0047 39.3725 45.2386 33.5594 51.1299 30.8829C50.7015 30.0943 50.1978 29.3393 49.6299 28.6309Z" fill="#A6B1C1"/>
<path d="M125.416 99.5806C124.428 98.8029 123.592 97.8223 122.97 96.728C122.918 96.6359 122.417 95.4367 122.363 95.4337C122.417 95.4367 123.038 94.2939 123.1 94.2078C123.829 93.1837 124.762 92.2932 125.825 91.6203C131.907 87.7713 139.05 90.8545 142.611 96.4727C138.494 101.696 131.073 104.031 125.416 99.5806Z" fill="#CFD9E9"/>
<path d="M142.611 96.4724C138.494 101.697 131.074 104.033 125.417 99.5813C124.839 99.1261 124.31 98.6007 123.849 98.0238C129.658 101.163 136.528 99.0351 140.965 94.3242C141.571 94.9862 142.124 95.7055 142.611 96.4724Z" fill="#A6B1C1"/>
<path d="M134.712 80.7703C133.559 80.2656 132.504 79.5255 131.628 78.6231C131.555 78.5469 130.768 77.5109 130.716 77.5218C130.768 77.5109 131.083 76.2494 131.12 76.1504C131.57 74.9759 132.249 73.8806 133.109 72.9624C138.031 67.7103 145.719 68.9016 150.576 73.4462C147.902 79.5364 141.304 83.6595 134.712 80.7703Z" fill="#CFD9E9"/>
<path d="M150.575 73.4455C147.902 79.5357 141.305 83.6598 134.712 80.7706C134.038 80.4747 133.395 80.0987 132.803 79.6564C139.215 81.2376 145.33 77.4539 148.443 71.7803C149.196 72.2681 149.912 72.8261 150.575 73.4455Z" fill="#A6B1C1"/>
<path d="M109.472 113.889C108.813 112.817 108.366 111.608 108.161 110.366C108.144 110.262 108.088 108.963 108.038 108.942C108.088 108.963 109.065 108.105 109.152 108.046C110.191 107.336 111.374 106.822 112.604 106.558C119.64 105.045 125.281 110.404 126.684 116.906C121.016 120.388 113.245 120.018 109.472 113.889Z" fill="#CFD9E9"/>
<path d="M126.684 116.905C121.016 120.387 113.245 120.018 109.473 113.888C109.088 113.261 108.773 112.586 108.539 111.885C112.907 116.837 120.09 117.211 125.879 114.321C126.221 115.151 126.491 116.018 126.684 116.905Z" fill="#A6B1C1"/>
<path d="M136.283 62.17C135.026 62.2115 133.754 61.9988 132.575 61.5615C132.476 61.5248 131.32 60.9292 131.277 60.9618C131.32 60.9292 131.06 59.6548 131.051 59.5489C130.95 58.2962 131.092 57.0139 131.472 55.8156C133.649 48.9547 141.1 46.7165 147.442 48.7231C147.653 55.3723 143.477 61.9355 136.283 62.17Z" fill="#CFD9E9"/>
<path d="M147.442 48.7234C147.653 55.3717 143.478 61.9348 136.284 62.1693C135.548 62.1931 134.806 62.1307 134.082 61.9863C140.549 60.6505 144.436 54.5999 144.8 48.1387C145.689 48.2544 146.576 48.4504 147.442 48.7234Z" fill="#A6B1C1"/>
<path d="M129.822 43.8983C129.406 45.0847 128.748 46.1939 127.914 47.1349C127.843 47.214 126.87 48.0759 126.884 48.1283C126.87 48.0759 125.587 47.8572 125.486 47.8275C124.281 47.4683 123.137 46.8727 122.157 46.0841C116.549 41.5721 117.159 33.8157 121.324 28.6299C127.598 30.8384 132.207 37.1066 129.822 43.8983Z" fill="#CFD9E9"/>
<path d="M121.325 28.6309C127.599 30.8384 132.207 37.1056 129.822 43.8973C129.579 44.5919 129.252 45.2618 128.855 45.8852C129.95 39.3725 125.716 33.5594 119.824 30.8829C120.253 30.0943 120.757 29.3393 121.325 28.6309Z" fill="#A6B1C1"/>
<path d="M165.13 171.535C165.478 172.647 165.617 173.133 165.964 174.245C154.222 172.091 142.55 170.354 130.739 169.034C131.781 158.89 132.893 148.677 133.935 138.533C146.649 139.923 159.155 141.799 171.731 144.091C170.966 144.995 170.619 145.411 169.855 146.315C169.577 146.662 169.438 146.801 169.16 147.148C165.686 151.317 163.949 153.401 160.614 157.64C162.351 162.781 163.185 165.282 164.783 170.423C164.922 170.84 164.991 171.118 165.13 171.535Z" fill="#E4EBF5"/>
<path d="M37.8472 138.533C38.8894 148.677 40.001 158.89 41.0432 169.034C29.232 170.354 17.4903 172.091 5.81806 174.245C6.16544 173.133 6.3044 172.647 6.65179 171.535C6.79074 171.118 6.86022 170.91 6.99917 170.493C8.59716 165.352 9.43089 162.85 11.1678 157.709C7.83291 153.401 6.09597 151.317 2.62209 147.148C2.34418 146.801 2.20522 146.662 1.92731 146.315C1.16306 145.411 0.815668 144.995 0.0514145 144.091C12.6269 141.799 25.1328 139.923 37.8472 138.533Z" fill="#E4EBF5"/>
<path d="M19.0188 131.586C20.5473 142.008 22.0063 152.429 23.5348 162.851C29.4404 164.796 35.2765 166.811 41.0432 169.034C40.001 158.891 38.8894 148.677 37.8472 138.534C31.5942 136.033 25.3412 133.74 19.0188 131.586Z" fill="#ACC4DF"/>
<path d="M152.694 131.586C151.165 142.008 149.706 152.429 148.178 162.851C142.272 164.796 136.436 166.811 130.669 169.034C131.711 158.891 132.823 148.677 133.865 138.534C140.118 136.033 146.371 133.74 152.694 131.586Z" fill="#ACC4DF"/>
<path d="M38.1252 140.965C38.1946 141.382 38.1946 141.521 38.1946 141.938C26.2445 143.327 14.4333 145.064 2.6221 147.148C2.34419 146.801 2.20523 146.662 1.92732 146.315C13.9469 144.091 25.9666 142.354 38.1252 140.965Z" fill="white"/>
<path d="M0.347388 171.182C11.5333 169.167 22.7887 167.569 34.1135 166.249C34.183 166.666 34.183 166.805 34.183 167.222C22.7192 168.472 11.3943 170.14 0 172.224C0.208433 171.877 0.27791 171.599 0.347388 171.182Z" fill="white"/>
<path d="M169.855 146.315C169.577 146.662 169.438 146.801 169.16 147.148C157.349 144.995 145.538 143.327 133.587 141.938C133.657 141.521 133.657 141.382 133.657 140.965C145.746 142.354 157.835 144.091 169.855 146.315Z" fill="white"/>
<path d="M170.829 172.224C159.504 170.14 148.11 168.542 136.646 167.222C136.716 166.805 136.716 166.666 136.716 166.249C148.041 167.5 159.227 169.167 170.412 171.182C170.621 171.529 170.69 171.807 170.829 172.224Z" fill="white"/>
<path d="M148.178 162.85C106.63 157.153 65.0824 157.153 23.5348 162.85C22.0063 152.429 20.5473 142.007 19.0188 131.586C63.5539 125.471 108.159 125.471 152.694 131.586C151.235 142.007 149.706 152.429 148.178 162.85Z" fill="#E5EDFA"/>
<path d="M152.207 135.338C108.02 129.223 63.7624 129.223 19.5746 135.338C19.5051 134.921 19.5051 134.782 19.4357 134.365C63.6929 128.251 108.02 128.251 152.346 134.365C152.277 134.712 152.207 134.921 152.207 135.338Z" fill="white"/>
<path d="M148.664 159.723C106.838 153.957 64.9435 153.957 23.118 159.723C23.0485 159.307 23.0485 159.168 22.979 158.751C64.9435 152.984 106.838 152.984 148.803 158.751C148.733 159.168 148.733 159.376 148.664 159.723Z" fill="white"/>
<path d="M78.3604 67.3535H80.7627V71.25H78.3604V75H73.8633V71.25H63.9609V66.7529L73.1162 53.9941H78.3604V67.3535ZM73.8633 67.3535V59.2529L68.165 67.3535H73.8633ZM83.4287 74.6191C82.96 74.1699 82.7256 73.6475 82.7256 73.0518C82.7256 72.4463 82.96 71.9189 83.4287 71.4697C83.8975 71.0205 84.4639 70.7959 85.1279 70.7959C85.792 70.7959 86.3584 71.0205 86.8271 71.4697C87.2959 71.9189 87.5303 72.4463 87.5303 73.0518C87.5303 73.6475 87.2959 74.1699 86.8271 74.6191C86.3584 75.0684 85.792 75.293 85.1279 75.293C84.4639 75.293 83.8975 75.0684 83.4287 74.6191ZM89.7715 53.9941H104.171V57.5977L95.9238 75H91.2803L99.3809 58.0518H89.7715V53.9941Z" fill="#3B4452"/>
<path d="M64.084 93L60.7793 84.5977H61.7402L64.5 91.7402L67.2598 84.5977H68.2207L64.9219 93H64.084ZM73.8516 90.4336L69.1699 90.4219C69.2012 90.9414 69.4141 91.3906 69.8086 91.7695C70.207 92.1484 70.6738 92.3379 71.209 92.3379C71.5684 92.3379 71.9023 92.2578 72.2109 92.0977C72.5195 91.9375 72.7383 91.7773 72.8672 91.6172L73.0723 91.3828L73.6113 91.9219C73.5879 91.9531 73.5527 91.998 73.5059 92.0566C73.4629 92.1113 73.3652 92.207 73.2129 92.3438C73.0645 92.4766 72.9023 92.5957 72.7266 92.7012C72.5547 92.8027 72.3301 92.8984 72.0527 92.9883C71.7793 93.0742 71.498 93.1172 71.209 93.1172C70.4238 93.1172 69.748 92.8262 69.1816 92.2441C68.6152 91.6582 68.332 90.9492 68.332 90.1172C68.332 89.2852 68.6113 88.5781 69.1699 87.9961C69.7324 87.4102 70.3926 87.1172 71.1504 87.1172C71.9355 87.1172 72.5918 87.3906 73.1191 87.9375C73.6465 88.4805 73.9102 89.168 73.9102 90L73.8516 90.4336ZM72.4395 88.4121C72.084 88.0723 71.6543 87.9023 71.1504 87.9023C70.6465 87.9023 70.207 88.0801 69.832 88.4355C69.457 88.791 69.2363 89.2129 69.1699 89.7012H73.0723C73.0098 89.1816 72.7988 88.752 72.4395 88.4121ZM78.4102 87.1172V87.9609H78.0469C77.5508 87.9609 77.127 88.1328 76.7754 88.4766C76.4238 88.8203 76.248 89.2676 76.248 89.8184V93H75.4102V87.2402H76.248V88.0195C76.2637 87.9961 76.2871 87.9648 76.3184 87.9258C76.3496 87.8828 76.4238 87.8105 76.541 87.709C76.6582 87.6035 76.7832 87.5117 76.916 87.4336C77.0527 87.3516 77.2324 87.2793 77.4551 87.2168C77.6816 87.1504 77.9199 87.1172 78.1699 87.1172H78.4102ZM80.8066 93.8379L81.1055 93L78.7617 87.2402H79.6641L81.5273 91.9219L83.3848 87.2402H84.2871L81.6445 93.8379C81.4062 94.4473 81.1504 94.8789 80.877 95.1328C80.6035 95.3906 80.2598 95.5195 79.8457 95.5195C79.7168 95.5195 79.5918 95.5098 79.4707 95.4902C79.3535 95.4707 79.2656 95.4492 79.207 95.4258L79.125 95.4023V94.6172C79.3242 94.6953 79.5234 94.7363 79.7227 94.7402C80.2305 94.7402 80.5918 94.4395 80.8066 93.8379ZM88.6113 84.5977V88.0781C88.627 88.0547 88.6504 88.0215 88.6816 87.9785C88.7168 87.9355 88.791 87.8574 88.9043 87.7441C89.0215 87.6309 89.1465 87.5332 89.2793 87.4512C89.4121 87.3652 89.5859 87.2891 89.8008 87.2227C90.0156 87.1523 90.2402 87.1172 90.4746 87.1172C91.1699 87.1172 91.7324 87.3418 92.1621 87.791C92.5957 88.2402 92.8125 88.8359 92.8125 89.5781V93H91.9746V89.5781C91.9746 89.0742 91.8281 88.6699 91.5352 88.3652C91.2422 88.0566 90.8672 87.9023 90.4102 87.9023C89.8984 87.9023 89.4707 88.082 89.127 88.4414C88.7832 88.8008 88.6113 89.2598 88.6113 89.8184V93H87.7734V84.5977H88.6113ZM94.7344 93V87.2402H95.5723V93H94.7344ZM94.7637 85.7051C94.6621 85.5996 94.6113 85.4707 94.6113 85.3184C94.6113 85.166 94.6621 85.0391 94.7637 84.9375C94.8691 84.832 94.998 84.7793 95.1504 84.7793C95.3027 84.7793 95.4297 84.832 95.5312 84.9375C95.6367 85.0391 95.6895 85.166 95.6895 85.3184C95.6895 85.4707 95.6367 85.5996 95.5312 85.7051C95.4297 85.8066 95.3027 85.8574 95.1504 85.8574C94.998 85.8574 94.8691 85.8066 94.7637 85.7051ZM101.695 92.6426V91.9219C101.68 91.9453 101.656 91.9785 101.625 92.0215C101.594 92.0645 101.52 92.1426 101.402 92.2559C101.289 92.3691 101.164 92.4688 101.027 92.5547C100.891 92.6367 100.709 92.7129 100.482 92.7832C100.26 92.8496 100.025 92.8828 99.7793 92.8828C99.0527 92.8828 98.4199 92.6035 97.8809 92.0449C97.3457 91.4824 97.0781 90.8008 97.0781 90C97.0781 89.1992 97.3457 88.5195 97.8809 87.9609C98.416 87.3984 99.0488 87.1172 99.7793 87.1172C100.025 87.1172 100.258 87.1504 100.477 87.2168C100.699 87.2793 100.883 87.3594 101.027 87.457C101.172 87.5508 101.295 87.6465 101.396 87.7441C101.502 87.8418 101.578 87.9219 101.625 87.9844L101.695 88.0781V87.2402H102.539V92.6426C102.539 93.4512 102.264 94.1328 101.713 94.6875C101.166 95.2422 100.5 95.5195 99.7148 95.5195C99.4102 95.5195 99.1191 95.4766 98.8418 95.3906C98.5684 95.3086 98.3438 95.209 98.168 95.0918C97.9922 94.9785 97.8359 94.8633 97.6992 94.7461C97.5664 94.6289 97.4707 94.5273 97.4121 94.4414L97.3184 94.3184L97.8574 93.7793C97.873 93.8027 97.8984 93.8359 97.9336 93.8789C97.9727 93.9258 98.0508 94.0039 98.168 94.1133C98.2891 94.2266 98.416 94.3242 98.5488 94.4062C98.6816 94.4922 98.8535 94.5684 99.0645 94.6348C99.2754 94.7051 99.4922 94.7402 99.7148 94.7402C100.258 94.7402 100.723 94.5391 101.109 94.1367C101.5 93.7344 101.695 93.2363 101.695 92.6426ZM98.4785 88.5117C98.1035 88.918 97.916 89.4141 97.916 90C97.916 90.5859 98.1035 91.082 98.4785 91.4883C98.8574 91.8945 99.291 92.0977 99.7793 92.0977C100.299 92.0977 100.748 91.8965 101.127 91.4941C101.506 91.0918 101.695 90.5938 101.695 90C101.695 89.4062 101.506 88.9082 101.127 88.5059C100.748 88.1035 100.299 87.9023 99.7793 87.9023C99.291 87.9023 98.8574 88.1055 98.4785 88.5117ZM105.357 84.5977V88.0781C105.373 88.0547 105.396 88.0215 105.428 87.9785C105.463 87.9355 105.537 87.8574 105.65 87.7441C105.768 87.6309 105.893 87.5332 106.025 87.4512C106.158 87.3652 106.332 87.2891 106.547 87.2227C106.762 87.1523 106.986 87.1172 107.221 87.1172C107.916 87.1172 108.479 87.3418 108.908 87.791C109.342 88.2402 109.559 88.8359 109.559 89.5781V93H108.721V89.5781C108.721 89.0742 108.574 88.6699 108.281 88.3652C107.988 88.0566 107.613 87.9023 107.156 87.9023C106.645 87.9023 106.217 88.082 105.873 88.4414C105.529 88.8008 105.357 89.2598 105.357 89.8184V93H104.52V84.5977H105.357Z" fill="#3B4452" fill-opacity="0.5"/>
<path d="M58.2384 140.922H62.6368V145.078C62.5952 145.13 62.5275 145.208 62.4337 145.312C62.3452 145.411 62.1447 145.586 61.8322 145.836C61.5249 146.081 61.1967 146.299 60.8478 146.492C60.504 146.68 60.0509 146.852 59.4884 147.008C58.9311 147.164 58.3556 147.242 57.7618 147.242C56.0535 147.242 54.6108 146.672 53.4337 145.531C52.2618 144.385 51.6759 143.008 51.6759 141.398C51.6759 139.789 52.2618 138.414 53.4337 137.273C54.6108 136.133 56.0535 135.562 57.7618 135.562C58.3504 135.562 58.9103 135.641 59.4415 135.797C59.9728 135.948 60.4077 136.133 60.7462 136.352C61.09 136.57 61.392 136.789 61.6525 137.008C61.9181 137.227 62.1082 137.411 62.2228 137.562L62.4025 137.797L60.879 139.32C60.8478 139.279 60.8035 139.221 60.7462 139.148C60.6941 139.07 60.5717 138.94 60.379 138.758C60.1915 138.576 59.9858 138.417 59.7618 138.281C59.5379 138.141 59.2436 138.013 58.879 137.898C58.5144 137.779 58.142 137.719 57.7618 137.719C56.715 137.719 55.84 138.07 55.1368 138.773C54.4337 139.477 54.0822 140.352 54.0822 141.398C54.0822 142.445 54.4337 143.32 55.1368 144.023C55.84 144.727 56.715 145.078 57.7618 145.078C58.2618 145.078 58.7176 145.005 59.129 144.859C59.5405 144.708 59.8295 144.557 59.9962 144.406L60.2384 144.203V142.68H58.2384V140.922ZM64.9259 146.797C64.6759 146.557 64.5509 146.279 64.5509 145.961C64.5509 145.638 64.6759 145.357 64.9259 145.117C65.1759 144.878 65.478 144.758 65.8322 144.758C66.1863 144.758 66.4884 144.878 66.7384 145.117C66.9884 145.357 67.1134 145.638 67.1134 145.961C67.1134 146.279 66.9884 146.557 66.7384 146.797C66.4884 147.036 66.1863 147.156 65.8322 147.156C65.478 147.156 65.1759 147.036 64.9259 146.797ZM74.715 135.562C75.3035 135.562 75.8634 135.641 76.3947 135.797C76.9259 135.948 77.3608 136.133 77.6993 136.352C78.0431 136.57 78.3452 136.789 78.6056 137.008C78.8712 137.227 79.0613 137.411 79.1759 137.562L79.3556 137.797L77.8322 139.32C77.8009 139.279 77.7566 139.221 77.6993 139.148C77.6473 139.07 77.5249 138.94 77.3322 138.758C77.1447 138.576 76.9389 138.417 76.715 138.281C76.491 138.141 76.1967 138.013 75.8322 137.898C75.4676 137.779 75.0952 137.719 74.715 137.719C73.6681 137.719 72.7931 138.07 72.09 138.773C71.3868 139.477 71.0353 140.352 71.0353 141.398C71.0353 142.445 71.3868 143.32 72.09 144.023C72.7931 144.727 73.6681 145.078 74.715 145.078C75.1212 145.078 75.5092 145.023 75.879 144.914C76.254 144.799 76.5639 144.667 76.8087 144.516C77.0535 144.359 77.2697 144.203 77.4572 144.047C77.6447 143.891 77.7801 143.755 77.8634 143.641L77.9884 143.477L79.4337 145C79.392 145.062 79.3269 145.146 79.2384 145.25C79.1551 145.349 78.965 145.529 78.6681 145.789C78.3764 146.044 78.0613 146.271 77.7228 146.469C77.3894 146.661 76.9493 146.839 76.4025 147C75.8608 147.161 75.2983 147.242 74.715 147.242C73.0066 147.242 71.5639 146.672 70.3868 145.531C69.215 144.385 68.629 143.008 68.629 141.398C68.629 139.789 69.215 138.414 70.3868 137.273C71.5639 136.133 73.0066 135.562 74.715 135.562ZM85.59 139.078V141.242C85.4285 141.19 85.1889 141.161 84.8712 141.156C84.3035 141.156 83.853 141.336 83.5197 141.695C83.1915 142.055 83.0275 142.57 83.0275 143.242V147H80.8712V139.156H83.0275V140.117C83.09 140.044 83.1785 139.951 83.2931 139.836C83.4077 139.716 83.6577 139.56 84.0431 139.367C84.4337 139.174 84.8426 139.078 85.2697 139.078H85.59ZM88.629 147.477L88.8712 146.922L85.8322 139.156H88.0743L89.9103 144.359L91.754 139.156H93.9884L90.8712 147.477C90.1577 149.398 89.1447 150.359 87.8322 150.359C87.5978 150.359 87.366 150.339 87.1368 150.297C86.9077 150.255 86.7384 150.214 86.629 150.172L86.4728 150.117V148.203C86.6863 148.307 86.9519 148.359 87.2697 148.359C87.9207 148.359 88.3738 148.065 88.629 147.477ZM99.5822 147.156C99.1342 147.156 98.715 147.065 98.3243 146.883C97.9389 146.695 97.6655 146.51 97.504 146.328L97.2618 146.039V150.359H95.1056V139.156H97.2618V140.117C97.2827 140.086 97.3139 140.047 97.3556 140C97.4025 139.953 97.4962 139.867 97.6368 139.742C97.7827 139.612 97.9389 139.497 98.1056 139.398C98.2723 139.294 98.4884 139.203 98.754 139.125C99.0197 139.042 99.2957 139 99.5822 139C100.598 139 101.478 139.396 102.223 140.188C102.973 140.974 103.348 141.938 103.348 143.078C103.348 144.219 102.973 145.185 102.223 145.977C101.478 146.763 100.598 147.156 99.5822 147.156ZM100.543 141.531C100.173 141.125 99.7202 140.922 99.1837 140.922C98.6525 140.922 98.1993 141.125 97.8243 141.531C97.4493 141.932 97.2618 142.448 97.2618 143.078C97.2618 143.708 97.4493 144.227 97.8243 144.633C98.1993 145.039 98.6525 145.242 99.1837 145.242C99.7202 145.242 100.173 145.039 100.543 144.633C100.918 144.227 101.106 143.708 101.106 143.078C101.106 142.448 100.918 141.932 100.543 141.531ZM105.91 138.281V136.844H107.832V139.32H109.426V141.242H107.832V144.359C107.832 144.604 107.921 144.812 108.098 144.984C108.28 145.156 108.509 145.242 108.785 145.242C108.926 145.242 109.061 145.229 109.192 145.203C109.327 145.172 109.429 145.141 109.496 145.109L109.59 145.078V146.922C109.163 147.083 108.681 147.161 108.145 147.156C106.494 147.156 105.668 146.25 105.668 144.438V141.242H104.309V139.32H105.027C105.272 139.32 105.481 139.224 105.652 139.031C105.824 138.839 105.91 138.589 105.91 138.281ZM113.434 141.602C113.054 142.003 112.863 142.497 112.863 143.086C112.863 143.669 113.054 144.161 113.434 144.562C113.814 144.958 114.264 145.156 114.785 145.156C115.306 145.156 115.757 144.958 116.137 144.562C116.517 144.161 116.707 143.669 116.707 143.086C116.707 142.497 116.517 142.003 116.137 141.602C115.757 141.201 115.306 141 114.785 141C114.264 141 113.814 141.201 113.434 141.602ZM117.699 140.227C118.527 141.039 118.942 141.99 118.942 143.078C118.942 144.167 118.527 145.12 117.699 145.938C116.876 146.75 115.905 147.156 114.785 147.156C113.665 147.156 112.692 146.75 111.863 145.938C111.035 145.12 110.621 144.167 110.621 143.078C110.621 141.99 111.035 141.039 111.863 140.227C112.692 139.409 113.665 139 114.785 139C115.905 139 116.876 139.409 117.699 140.227Z" fill="#3B4452"/>
</svg>
