<svg width="268" height="160" viewBox="0 0 268 160" fill="none" xmlns="http://www.w3.org/2000/svg">
<path d="M178.055 26.4118C154.88 46.4961 143.118 76.5138 140.133 89.012C135.936 104.879 136.57 118.744 137.411 123.693L150.07 134.701C166.601 122.858 203.964 93.6211 221.163 71.415C238.362 49.2089 238.971 18.514 237.126 5.94228C227.092 4.39699 201.229 6.3275 178.055 26.4118Z" fill="#FFB628"/>
<path fill-rule="evenodd" clip-rule="evenodd" d="M210.432 36.4865L235.433 35.4957L235.397 34.5679L211.264 35.5243C220.924 24.3577 229.867 14.4147 236.5 7.2476L235.819 6.61696C229.128 13.8469 220.091 23.8955 210.339 35.1742L200.342 12.7507L199.494 13.1288L209.668 35.9504C201.579 45.321 193.024 55.5089 184.925 65.6163L173.377 32.2906L172.5 32.5946L184.24 66.4732C177.657 74.7106 171.394 82.8794 165.949 90.4923L152.662 61.3683L151.817 61.7537L165.327 91.3651C159.412 99.6846 154.503 107.321 151.27 113.622L152.096 114.046C155.297 107.807 160.173 100.218 166.072 91.9194L196.622 96.7298L196.767 95.8126L166.7 91.0784L184.984 67.0389L221.398 68.8413L221.444 67.9139L185.692 66.1443C193.79 56.0397 202.344 45.8539 210.432 36.4865Z" fill="#FDE150"/>
<path d="M87.4479 18.2508C81.2709 27.3008 88.9443 31.5984 93.5531 32.6159L94.9896 34.5911L99.2992 36.7459L108.816 34.5911H118.872L123.002 41.235L124.797 65.2966C125.396 65.5361 126.988 66.1945 128.568 66.9127C133.416 69.7858 154.425 79.6618 159.094 83.7918C163.763 87.9218 168.252 99.2343 186.208 112.343C204.165 125.451 221.942 112.702 221.223 99.2343C220.505 85.767 209.013 63.1419 192.314 56.498C175.614 49.8541 155.144 55.7797 144.909 42.1328C134.673 28.4859 128.029 9.81123 117.974 7.11777C107.918 4.4243 95.1692 6.9382 87.4479 18.2508Z" fill="#393B71"/>
<path d="M72.7236 107.315L80.0858 90.6152L92.2962 94.3861L102.531 103.185L98.94 115.754L86.0114 126.708L72.7236 107.315Z" fill="#F9B68E"/>
<path d="M175.614 117.55L170.945 106.417L148.5 104.441L129.825 117.55L124.259 144.125L95.3486 143.048L98.5808 152.565L106.482 158.849C132.279 159.328 184.592 159.999 187.465 158.849C191.056 157.413 189.081 152.026 186.388 144.125C184.233 137.804 178.307 123.775 175.614 117.55Z" fill="#F9B68E"/>
<path d="M89.9619 74.0955C93.5531 68.6368 102.711 64.9976 106.841 63.8604H124.438C134.973 67.9903 147.186 72.5892 155.862 79.3029C170.945 90.9746 175.794 110.727 175.973 118.268L170.945 107.495L147.243 121.68C150.595 127.426 157.55 139.457 158.555 141.612C159.812 144.305 159.453 145.742 156.042 146.999C153.312 148.004 120.428 148.495 104.327 148.615L87.8071 115.575L92.4758 101.389L79.5471 90.9746C81.5223 87.6227 86.3706 79.5543 89.9619 74.0955Z" fill="#5D76A7"/>
<path d="M82.5996 103.724H0L26.7551 158.311V154.181H106.661L82.5996 103.724Z" fill="#B5CEEA"/>
<path d="M108.816 84.1504C106.805 79.9846 106.182 67.3312 106.122 61.5253L107.739 57.3953L124.797 50.0332C124.737 53.2055 124.654 60.843 124.797 66.0144C124.977 72.4788 124.438 76.7883 121.565 84.1504C118.692 91.5126 111.33 89.3578 108.816 84.1504Z" fill="#EFA87E"/>
<path d="M104.147 61.1663C96.6775 61.7409 93.613 41.7734 93.0144 31.7178C98.7605 35.6682 104.147 34.9499 112.048 33.5134C119.949 32.0769 125.695 33.8725 125.695 39.2595V51.4699C121.625 54.4626 111.617 60.5917 104.147 61.1663Z" fill="#F7B690"/>
<rect x="25.4981" y="153.463" width="107.739" height="6.10519" fill="#91B3DA"/>
<circle cx="53.3307" cy="120.962" r="3.0526" fill="#FBEFEF"/>
</svg>
