<svg width="297" height="400" viewBox="0 0 297 400" fill="none" xmlns="http://www.w3.org/2000/svg">
<path d="M55 53C70 53 77.5 59 77.5 70C77.5 78.8 77.5 112.333 77.5 128M77.5 128L70.5 122.5M77.5 128L84 122.5" stroke="black" stroke-width="3"/>
<path d="M55 53C70 53 77.5 59 77.5 70C77.5 78.8 77.5 112.333 77.5 128M77.5 128L70.5 122.5M77.5 128L84 122.5" stroke="url(#paint0_linear)" stroke-width="3"/>
<path d="M222 53C207 53 199.5 59 199.5 70C199.5 78.8 199.5 112.333 199.5 128M199.5 128L206.5 122.5M199.5 128L193 122.5" stroke="black" stroke-width="3"/>
<path d="M222 53C207 53 199.5 59 199.5 70C199.5 78.8 199.5 112.333 199.5 128M199.5 128L206.5 122.5M199.5 128L193 122.5" stroke="url(#paint1_linear)" stroke-width="3"/>
<path d="M14.5421 60.8163C19.6855 68.8621 31.2717 72.0137 39.5318 66.7931C49.2422 60.6562 42.2051 45.3706 51.0057 40.159C55.6645 37.4001 64.3712 42.567 69.6306 42.5868C79.3221 42.6236 86.4674 34.384 86.7527 24.865C87.0437 15.1538 81.1997 3.40978 70.4921 2.89707C57.7372 2.28637 53.5534 14.4677 43.9676 19.6157C34.1306 24.8987 20.9901 19.5808 14.1437 30.5454C9.0856 38.6458 9.44898 52.8492 14.5421 60.8163V60.8163Z" fill="url(#paint2_linear)"/>
<g clip-path="url(#clip0)">
<path d="M54.0139 22.8203H53.147V28.0222H54.0139C55.4505 28.0222 56.6149 26.8579 56.6149 25.4213C56.6149 23.9847 55.4496 22.8203 54.0139 22.8203Z" fill="#FEDAC6"/>
<path d="M32.3389 25.4213C32.3389 26.8579 33.5033 28.0222 34.9398 28.0222H35.8068V22.8203H34.9398C33.5033 22.8202 32.3389 23.9846 32.3389 25.4213Z" fill="#F5C4B0"/>
<path d="M54.0139 22.82L55.0369 17.5573C55.3724 15.5598 54.0242 13.6688 52.0267 13.3334C51.8238 13.2996 51.6183 13.2831 51.4129 13.2831C50.8944 11.7311 49.4422 10.6839 47.8062 10.6821H37.5409L35.8069 8.08105L34.9399 8.94801C32.5461 11.3418 32.5453 15.2224 34.9382 17.6162C34.9391 17.6172 34.9391 17.618 34.9399 17.618H50.5458L54.0139 22.82Z" fill="#F8DB14"/>
<path d="M56.6665 42.822L50.3808 41.9551L44.4765 45.3624L38.5723 41.9898L32.2865 42.8567C28.8549 43.3153 26.2869 46.2346 26.2695 49.6973V59.2344H62.6835V49.6973C62.6835 46.2224 60.1111 43.2825 56.6665 42.822Z" fill="#CFD9E9"/>
<path d="M50.3808 41.9895L49.6784 41.8941V35.8252H39.2746V41.8941L38.5723 41.9895L44.4765 45.3621L50.3808 41.9895Z" fill="#FEDAC6"/>
<path d="M39.2745 48.8296L44.4765 45.3616L39.2745 41.8936H37.5405L39.2745 48.8296Z" fill="#EAEAEA"/>
<path d="M44.4766 45.3616L49.6785 48.8296L51.4125 41.8936H49.6785L44.4766 45.3616Z" fill="#EAEAEA"/>
<path d="M41.876 59.2343L42.7429 49.6973L41.876 47.0963L44.4769 45.3623L47.0779 47.0963L46.211 49.6973L47.0779 59.2343" fill="#8399FE"/>
<path d="M49.6788 40.6283V35.8252H39.2749V40.6283C43.1763 42.3189 45.7774 42.3189 49.6788 40.6283Z" fill="#F5C4B0"/>
<path d="M26.2695 49.6969V59.2339H29.7376V43.6973C27.5935 44.9353 26.2713 47.2216 26.2695 49.6969Z" fill="#BFBFBF"/>
<path d="M54.0135 22.8202V27.7621C54.0126 30.2078 53.3892 32.612 52.2014 34.7501C50.6425 37.5549 47.6852 39.294 44.4765 39.2932C41.2677 39.2941 38.3104 37.5549 36.7515 34.7501C35.5637 32.6121 34.9404 30.2079 34.9395 27.7621V17.6182H50.5454L54.0135 22.8202Z" fill="#FEDAC6"/>
<path d="M38.4075 17.6182H34.9395V27.762C34.9404 30.2078 35.5637 32.612 36.7515 34.7501C37.6185 36.3021 38.9372 37.554 40.5316 38.3395C37.5405 29.7561 38.4075 17.6182 38.4075 17.6182Z" fill="#F5C4B0"/>
<path d="M33.3272 11.8262C32.8122 13.9061 33.4243 16.1031 34.9398 17.6177H48.8118C38.9626 17.6177 34.9397 14.1497 33.3272 11.8262Z" fill="#F4B008"/>
<path d="M54.0139 28.8892H53.147V27.1552H54.0139C54.9702 27.1552 55.7479 26.3774 55.7479 25.4211C55.7479 24.4649 54.9702 23.6871 54.0139 23.6871H53.147V21.9531H54.0139C55.9265 21.9531 57.482 23.5086 57.482 25.4211C57.482 27.3337 55.9265 28.8892 54.0139 28.8892Z" fill="#565F6D"/>
<path d="M35.8067 28.8892H34.9397C33.0271 28.8892 31.4717 27.3337 31.4717 25.4211C31.4717 23.5086 33.0271 21.9531 34.9397 21.9531H35.8067V23.6871H34.9397C33.9834 23.6871 33.2057 24.4649 33.2057 25.4211C33.2057 26.3774 33.9834 27.1552 34.9397 27.1552H35.8067V28.8892Z" fill="#565F6D"/>
<path d="M45.3438 30.6226H42.7428C42.4706 30.6226 42.2148 30.4951 42.051 30.2776C41.8872 30.0599 41.8343 29.7791 41.9097 29.5172L43.6437 23.4482L45.3109 23.9251L43.8917 28.8886H45.343V30.6226H45.3438Z" fill="#565F6D"/>
<path d="M44.4783 40.1598C44.4766 40.1598 44.4748 40.1598 44.4731 40.1598C40.9531 40.1598 37.7036 38.2489 35.993 35.1702C34.7367 32.9099 34.0726 30.3479 34.0718 27.7626V17.6179C34.0718 17.1394 34.4602 16.751 34.9387 16.751H50.5446C50.8342 16.751 51.1047 16.8958 51.266 17.1368L54.734 22.3388C54.8285 22.4809 54.8796 22.6483 54.8796 22.82V27.7618C54.8787 30.3472 54.2137 32.9092 52.9584 35.1703C51.2487 38.248 47.9991 40.1598 44.4783 40.1598ZM44.4756 38.4258C44.4765 38.4258 44.4774 38.4258 44.4774 38.4258C47.3697 38.4258 50.0383 36.8557 51.4428 34.3284C52.556 32.3239 53.1448 30.0532 53.1456 27.7609V23.0817L50.0807 18.4849H35.8065V27.7617C35.8074 30.0541 36.3961 32.3247 37.5093 34.3284C38.9138 36.8566 41.5824 38.4258 44.4738 38.4258C44.4748 38.4258 44.4756 38.4258 44.4756 38.4258Z" fill="#565F6D"/>
<path d="M43.7571 34.0908H42.7427V32.3568H43.7571C45.107 32.3559 46.3763 31.8305 47.3317 30.876L48.5577 32.1027C47.2745 33.3842 45.5699 34.0899 43.7571 34.0908Z" fill="#565F6D"/>
<path d="M39.278 26.2883C40.2356 26.2883 41.012 25.512 41.012 24.5543C41.012 23.5967 40.2356 22.8203 39.278 22.8203C38.3203 22.8203 37.5439 23.5967 37.5439 24.5543C37.5439 25.512 38.3203 26.2883 39.278 26.2883Z" fill="#565F6D"/>
<path d="M49.6823 26.2883C50.6399 26.2883 51.4163 25.512 51.4163 24.5543C51.4163 23.5967 50.6399 22.8203 49.6823 22.8203C48.7246 22.8203 47.9482 23.5967 47.9482 24.5543C47.9482 25.512 48.7246 26.2883 49.6823 26.2883Z" fill="#565F6D"/>
<path d="M54.8687 23.8299L53.1581 23.5446L54.1811 17.415C54.3051 16.6764 54.1343 15.9342 53.6999 15.3256C53.2655 14.717 52.6205 14.3129 51.8827 14.1889C51.7283 14.1629 51.5532 14.1439 51.4136 14.1508C51.4127 14.1508 51.4127 14.1508 51.4119 14.1508C51.039 14.1508 50.707 13.9124 50.59 13.5587C50.1886 12.3579 49.0693 11.5507 47.8043 11.549H37.5409C37.2513 11.549 36.9808 11.4042 36.8195 11.1632L35.6716 9.44216L35.552 9.56091C34.5584 10.5545 34.0105 11.8767 34.0105 13.2821C34.0105 14.6884 34.5575 16.0097 35.5512 17.0033L34.3261 18.231C31.5977 15.5017 31.5977 11.0626 34.3261 8.33507L35.1931 7.46811C35.3769 7.28516 35.6335 7.19154 35.8918 7.2184C36.1502 7.24354 36.3834 7.38396 36.5273 7.59988L38.0047 9.8151H47.8061C49.6172 9.81683 51.2394 10.8564 52.011 12.4542C52.0647 12.4611 52.1167 12.469 52.1706 12.4776C53.3662 12.6779 54.4109 13.3317 55.114 14.3183C55.8172 15.3049 56.0937 16.5057 55.8926 17.7004L54.8687 23.8299Z" fill="#565F6D"/>
<path d="M27.1368 59.2336H25.4028V49.6966C25.4028 45.8037 28.3124 42.4789 32.1723 41.9621L38.4078 41.1341V37.5586H40.1418V41.8936C40.1418 42.328 39.8201 42.6955 39.3892 42.7528L32.4013 43.6805C29.4006 44.0819 27.1368 46.6673 27.1368 49.6958V59.2336V59.2336Z" fill="#565F6D"/>
<path d="M63.5505 59.2338H61.8165V49.6967C61.8165 46.6683 59.5536 44.0821 56.5512 43.6815L49.5641 42.7538C49.1332 42.6966 48.8115 42.3289 48.8115 41.8946V37.5596H50.5455V41.135L56.7801 41.963C60.64 42.4789 63.5505 45.8047 63.5505 49.6976V59.2338Z" fill="#565F6D"/>
<path d="M34.0763 52.2979H32.3423V59.2338H34.0763V52.2979Z" fill="#565F6D"/>
<path d="M56.6183 52.2979H54.8843V59.2338H56.6183V52.2979Z" fill="#565F6D"/>
<path d="M39.2747 49.6965C39.169 49.6965 39.0632 49.6775 38.9617 49.6384C38.699 49.5369 38.5022 49.3133 38.4337 49.0402L36.6997 42.1042L38.3817 41.6846L39.8175 47.4267L43.9956 44.6411L44.957 46.0838L39.7551 49.5518C39.611 49.6479 39.4428 49.6965 39.2747 49.6965Z" fill="#565F6D"/>
<path d="M44.4765 46.2292C44.3283 46.2292 44.18 46.191 44.0465 46.1147L37.9775 42.6467L38.8376 41.1416L44.4765 44.3642L50.1155 41.1416L50.9756 42.6467L44.9066 46.1147C44.7731 46.1911 44.6248 46.2292 44.4765 46.2292Z" fill="#565F6D"/>
<path d="M49.6787 49.6974C49.5105 49.6974 49.3423 49.6479 49.1975 49.5518L43.9956 46.0838L44.9571 44.6411L49.1352 47.4267L50.5709 41.6846L52.252 42.1042L50.518 49.0402C50.4504 49.3133 50.2528 49.5369 49.99 49.6384C49.8903 49.6784 49.7846 49.6974 49.6787 49.6974Z" fill="#565F6D"/>
<path d="M42.7393 59.313L41.0122 59.1552L41.8628 49.7994L41.053 47.3701L42.6977 46.8213L43.5646 49.4223C43.6019 49.5358 43.6166 49.6564 43.6053 49.7751L42.7393 59.313Z" fill="#565F6D"/>
<path d="M46.2131 59.3132L45.3461 49.7761C45.3357 49.6565 45.3496 49.5368 45.3877 49.4232L46.2547 46.8223L47.8985 47.371L47.0888 49.8003L47.9393 59.1561L46.2131 59.3132Z" fill="#565F6D"/>
<path d="M46.2141 48.8301H42.7461V50.5641H46.2141V48.8301Z" fill="#565F6D"/>
</g>
<path d="M268.208 60.8163C263.065 68.8621 251.479 72.0137 243.219 66.7931C233.508 60.6562 240.545 45.3706 231.745 40.159C227.086 37.4001 218.379 42.567 213.12 42.5868C203.428 42.6236 196.283 34.384 195.998 24.865C195.707 15.1538 201.551 3.40978 212.258 2.89707C225.013 2.28637 229.197 14.4677 238.783 19.6157C248.62 24.8987 261.76 19.5808 268.607 30.5454C273.665 38.6458 273.302 52.8492 268.208 60.8163V60.8163Z" fill="url(#paint3_linear)"/>
<g clip-path="url(#clip1)">
<path d="M239.014 22.8203H238.147V28.0222H239.014C240.451 28.0222 241.615 26.8579 241.615 25.4213C241.615 23.9847 240.45 22.8203 239.014 22.8203Z" fill="#FEDAC6"/>
<path d="M217.339 25.4213C217.339 26.8579 218.503 28.0222 219.94 28.0222H220.807V22.8203H219.94C218.503 22.8202 217.339 23.9846 217.339 25.4213Z" fill="#F5C4B0"/>
<path d="M239.014 22.82L240.037 17.5573C240.372 15.5598 239.024 13.6688 237.027 13.3334C236.824 13.2996 236.618 13.2831 236.413 13.2831C235.894 11.7311 234.442 10.6839 232.806 10.6821H222.541L220.807 8.08105L219.94 8.94801C217.546 11.3418 217.545 15.2224 219.938 17.6162C219.939 17.6172 219.939 17.618 219.94 17.618H235.546L239.014 22.82Z" fill="#F8DB14"/>
<path d="M241.666 42.822L235.381 41.9551L229.477 45.3624L223.572 41.9898L217.287 42.8567C213.855 43.3153 211.287 46.2346 211.27 49.6973V59.2344H247.683V49.6973C247.683 46.2224 245.111 43.2825 241.666 42.822Z" fill="#CFD9E9"/>
<path d="M235.381 41.9895L234.678 41.8941V35.8252H224.275V41.8941L223.572 41.9895L229.477 45.3621L235.381 41.9895Z" fill="#FEDAC6"/>
<path d="M224.275 48.8296L229.476 45.3616L224.275 41.8936H222.541L224.275 48.8296Z" fill="#EAEAEA"/>
<path d="M229.477 45.3616L234.678 48.8296L236.413 41.8936H234.678L229.477 45.3616Z" fill="#EAEAEA"/>
<path d="M226.876 59.2343L227.743 49.6973L226.876 47.0963L229.477 45.3623L232.078 47.0963L231.211 49.6973L232.078 59.2343" fill="#8399FE"/>
<path d="M234.679 40.6283V35.8252H224.275V40.6283C228.176 42.3189 230.777 42.3189 234.679 40.6283Z" fill="#F5C4B0"/>
<path d="M211.27 49.6969V59.2339H214.738V43.6973C212.593 44.9353 211.271 47.2216 211.27 49.6969Z" fill="#BFBFBF"/>
<path d="M239.013 22.8202V27.7621C239.013 30.2078 238.389 32.612 237.201 34.7501C235.643 37.5549 232.685 39.294 229.476 39.2932C226.268 39.2941 223.31 37.5549 221.752 34.7501C220.564 32.6121 219.94 30.2079 219.939 27.7621V17.6182H235.545L239.013 22.8202Z" fill="#FEDAC6"/>
<path d="M223.407 17.6182H219.939V27.762C219.94 30.2078 220.564 32.612 221.752 34.7501C222.618 36.3021 223.937 37.554 225.532 38.3395C222.541 29.7561 223.407 17.6182 223.407 17.6182Z" fill="#F5C4B0"/>
<path d="M218.327 11.8262C217.812 13.9061 218.424 16.1031 219.94 17.6177H233.812C223.963 17.6177 219.94 14.1497 218.327 11.8262Z" fill="#F4B008"/>
<path d="M239.014 28.8892H238.147V27.1552H239.014C239.97 27.1552 240.748 26.3774 240.748 25.4211C240.748 24.4649 239.97 23.6871 239.014 23.6871H238.147V21.9531H239.014C240.927 21.9531 242.482 23.5086 242.482 25.4211C242.482 27.3337 240.927 28.8892 239.014 28.8892Z" fill="#565F6D"/>
<path d="M220.807 28.8892H219.94C218.027 28.8892 216.472 27.3337 216.472 25.4211C216.472 23.5086 218.027 21.9531 219.94 21.9531H220.807V23.6871H219.94C218.983 23.6871 218.206 24.4649 218.206 25.4211C218.206 26.3774 218.983 27.1552 219.94 27.1552H220.807V28.8892Z" fill="#565F6D"/>
<path d="M230.344 30.6226H227.743C227.471 30.6226 227.215 30.4951 227.051 30.2776C226.887 30.0599 226.834 29.7791 226.91 29.5172L228.644 23.4482L230.311 23.9251L228.892 28.8886H230.343V30.6226H230.344Z" fill="#565F6D"/>
<path d="M229.478 40.1598C229.477 40.1598 229.475 40.1598 229.473 40.1598C225.953 40.1598 222.704 38.2489 220.993 35.1702C219.737 32.9099 219.073 30.3479 219.072 27.7626V17.6179C219.072 17.1394 219.46 16.751 219.939 16.751H235.545C235.834 16.751 236.105 16.8958 236.266 17.1368L239.734 22.3388C239.829 22.4809 239.88 22.6483 239.88 22.82V27.7618C239.879 30.3472 239.214 32.9092 237.958 35.1703C236.249 38.248 232.999 40.1598 229.478 40.1598ZM229.476 38.4258C229.476 38.4258 229.477 38.4258 229.477 38.4258C232.37 38.4258 235.038 36.8557 236.443 34.3284C237.556 32.3239 238.145 30.0532 238.146 27.7609V23.0817L235.081 18.4849H220.807V27.7617C220.807 30.0541 221.396 32.3247 222.509 34.3284C223.914 36.8566 226.582 38.4258 229.474 38.4258C229.475 38.4258 229.476 38.4258 229.476 38.4258Z" fill="#565F6D"/>
<path d="M228.757 34.0908H227.743V32.3568H228.757C230.107 32.3559 231.376 31.8305 232.332 30.876L233.558 32.1027C232.274 33.3842 230.57 34.0899 228.757 34.0908Z" fill="#565F6D"/>
<path d="M224.278 26.2883C225.236 26.2883 226.012 25.512 226.012 24.5543C226.012 23.5967 225.236 22.8203 224.278 22.8203C223.32 22.8203 222.544 23.5967 222.544 24.5543C222.544 25.512 223.32 26.2883 224.278 26.2883Z" fill="#565F6D"/>
<path d="M234.682 26.2883C235.64 26.2883 236.416 25.512 236.416 24.5543C236.416 23.5967 235.64 22.8203 234.682 22.8203C233.725 22.8203 232.948 23.5967 232.948 24.5543C232.948 25.512 233.725 26.2883 234.682 26.2883Z" fill="#565F6D"/>
<path d="M239.869 23.8299L238.158 23.5446L239.181 17.415C239.305 16.6764 239.134 15.9342 238.7 15.3256C238.266 14.717 237.621 14.3129 236.883 14.1889C236.728 14.1629 236.553 14.1439 236.414 14.1508C236.413 14.1508 236.413 14.1508 236.412 14.1508C236.039 14.1508 235.707 13.9124 235.59 13.5587C235.189 12.3579 234.069 11.5507 232.804 11.549H222.541C222.251 11.549 221.981 11.4042 221.82 11.1632L220.672 9.44216L220.552 9.56091C219.558 10.5545 219.01 11.8767 219.01 13.2821C219.01 14.6884 219.558 16.0097 220.551 17.0033L219.326 18.231C216.598 15.5017 216.598 11.0626 219.326 8.33507L220.193 7.46811C220.377 7.28516 220.633 7.19154 220.892 7.2184C221.15 7.24354 221.383 7.38396 221.527 7.59988L223.005 9.8151H232.806C234.617 9.81683 236.239 10.8564 237.011 12.4542C237.065 12.4611 237.117 12.469 237.171 12.4776C238.366 12.6779 239.411 13.3317 240.114 14.3183C240.817 15.3049 241.094 16.5057 240.893 17.7004L239.869 23.8299Z" fill="#565F6D"/>
<path d="M212.137 59.2336H210.403V49.6966C210.403 45.8037 213.312 42.4789 217.172 41.9621L223.408 41.1341V37.5586H225.142V41.8936C225.142 42.328 224.82 42.6955 224.389 42.7528L217.401 43.6805C214.401 44.0819 212.137 46.6673 212.137 49.6958V59.2336V59.2336Z" fill="#565F6D"/>
<path d="M248.55 59.2338H246.816V49.6967C246.816 46.6683 244.554 44.0821 241.551 43.6815L234.564 42.7538C234.133 42.6966 233.812 42.3289 233.812 41.8946V37.5596H235.546V41.135L241.78 41.963C245.64 42.4789 248.55 45.8047 248.55 49.6976V59.2338Z" fill="#565F6D"/>
<path d="M219.076 52.2979H217.342V59.2338H219.076V52.2979Z" fill="#565F6D"/>
<path d="M241.618 52.2979H239.884V59.2338H241.618V52.2979Z" fill="#565F6D"/>
<path d="M224.275 49.6965C224.169 49.6965 224.063 49.6775 223.962 49.6384C223.699 49.5369 223.502 49.3133 223.434 49.0402L221.7 42.1042L223.382 41.6846L224.817 47.4267L228.996 44.6411L229.957 46.0838L224.755 49.5518C224.611 49.6479 224.443 49.6965 224.275 49.6965Z" fill="#565F6D"/>
<path d="M229.477 46.2292C229.328 46.2292 229.18 46.191 229.047 46.1147L222.978 42.6467L223.838 41.1416L229.477 44.3642L235.116 41.1416L235.976 42.6467L229.907 46.1147C229.773 46.1911 229.625 46.2292 229.477 46.2292Z" fill="#565F6D"/>
<path d="M234.679 49.6974C234.511 49.6974 234.342 49.6479 234.198 49.5518L228.996 46.0838L229.957 44.6411L234.135 47.4267L235.571 41.6846L237.252 42.1042L235.518 49.0402C235.45 49.3133 235.253 49.5369 234.99 49.6384C234.89 49.6784 234.785 49.6974 234.679 49.6974Z" fill="#565F6D"/>
<path d="M227.739 59.313L226.012 59.1552L226.863 49.7994L226.053 47.3701L227.698 46.8213L228.565 49.4223C228.602 49.5358 228.617 49.6564 228.605 49.7751L227.739 59.313Z" fill="#565F6D"/>
<path d="M231.213 59.3132L230.346 49.7761C230.336 49.6565 230.35 49.5368 230.388 49.4232L231.255 46.8223L232.899 47.371L232.089 49.8003L232.939 59.1561L231.213 59.3132Z" fill="#565F6D"/>
<path d="M231.214 48.8301H227.746V50.5641H231.214V48.8301Z" fill="#565F6D"/>
</g>
<g filter="url(#filter0_d)">
<rect x="32" y="257" width="229" height="72" rx="20" fill="white"/>
</g>
<g filter="url(#filter1_d)">
<rect x="32" y="175" width="229" height="72" rx="20" fill="white"/>
</g>
<circle cx="89.9838" cy="209.954" r="24.2212" fill="#82EE87"/>
<circle cx="83.0634" cy="209.954" r="24.2212" fill="#94FF98"/>
<circle cx="83.1685" cy="210.059" r="19.293" fill="#7FEB83"/>
<path d="M77.152 216V204.672H74.992L71.984 207.84L73.488 209.152L74.576 208.4V216H77.152ZM82.7368 216.16C84.6728 216.16 86.8328 215.088 86.8328 212.688V208C86.8328 205.584 84.6728 204.512 82.7368 204.512C80.8168 204.512 78.6408 205.584 78.6408 208V212.688C78.6408 215.088 80.8168 216.16 82.7368 216.16ZM82.7368 207.024C83.3768 207.024 84.1128 207.392 84.1128 208.08V212.72C84.1128 213.376 83.3928 213.728 82.7368 213.728C82.0488 213.728 81.3608 213.376 81.3608 212.72V208.08C81.3608 207.408 82.0648 207.024 82.7368 207.024ZM92.268 216.16C94.204 216.16 96.364 215.088 96.364 212.688V208C96.364 205.584 94.204 204.512 92.268 204.512C90.348 204.512 88.172 205.584 88.172 208V212.688C88.172 215.088 90.348 216.16 92.268 216.16ZM92.268 207.024C92.908 207.024 93.644 207.392 93.644 208.08V212.72C93.644 213.376 92.924 213.728 92.268 213.728C91.58 213.728 90.892 213.376 90.892 212.72V208.08C90.892 207.408 91.596 207.024 92.268 207.024Z" fill="white"/>
<circle cx="209.098" cy="210.582" r="24.2212" fill="#BA1B1B"/>
<circle cx="202.177" cy="210.582" r="24.2212" fill="#FF2D2D"/>
<circle cx="202.282" cy="210.897" r="18.4542" fill="#C43333"/>
<path d="M190.624 209.256C191.872 206.968 194.384 208.6 192.864 210.312L188.256 215.496L188.976 216.984H196.272V214.264H193.712L192.384 214.536L194.88 212.168C195.904 211.208 196.288 210.056 196.288 209C196.288 207.224 194.992 205.512 192.496 205.512C190.944 205.512 189.408 206.312 188.48 208.088L190.624 209.256ZM201.674 217.16C203.61 217.16 205.77 216.088 205.77 213.688V209C205.77 206.584 203.61 205.512 201.674 205.512C199.754 205.512 197.578 206.584 197.578 209V213.688C197.578 216.088 199.754 217.16 201.674 217.16ZM201.674 208.024C202.314 208.024 203.05 208.392 203.05 209.08V213.72C203.05 214.376 202.33 214.728 201.674 214.728C200.986 214.728 200.298 214.376 200.298 213.72V209.08C200.298 208.408 201.002 208.024 201.674 208.024ZM211.206 217.16C213.142 217.16 215.302 216.088 215.302 213.688V209C215.302 206.584 213.142 205.512 211.206 205.512C209.286 205.512 207.11 206.584 207.11 209V213.688C207.11 216.088 209.286 217.16 211.206 217.16ZM211.206 208.024C211.846 208.024 212.582 208.392 212.582 209.08V213.72C212.582 214.376 211.862 214.728 211.206 214.728C210.518 214.728 209.83 214.376 209.83 213.72V209.08C209.83 208.408 210.534 208.024 211.206 208.024Z" fill="white"/>
<g clip-path="url(#clip2)">
<path d="M131.804 208.828C131.986 208.898 132.197 208.898 132.38 208.813L138.07 206.301C138.434 206.131 138.587 205.706 138.412 205.353C138.245 205.013 137.829 204.857 137.472 205.013L133.487 206.775C135.389 201.248 140.685 197.553 146.783 197.553C153.173 197.553 158.761 201.701 160.371 207.639C160.473 208.014 160.874 208.24 161.26 208.141C161.646 208.042 161.879 207.653 161.777 207.278C160 200.724 153.836 196.138 146.783 196.138C140.059 196.138 134.208 200.214 132.095 206.315L130.42 202.246C130.296 201.878 129.881 201.672 129.502 201.793C129.123 201.913 128.912 202.316 129.035 202.684C129.043 202.713 129.057 202.741 129.072 202.769L131.396 208.431C131.469 208.608 131.615 208.757 131.804 208.828Z" fill="#A6B1C1"/>
<path d="M163.956 219.274C163.948 219.26 163.941 219.245 163.941 219.231L161.617 213.569C161.544 213.392 161.398 213.244 161.209 213.173C161.027 213.102 160.816 213.109 160.633 213.187L154.943 215.7C154.572 215.848 154.397 216.266 154.55 216.627C154.703 216.988 155.133 217.158 155.504 217.009C155.519 217.002 155.533 216.995 155.548 216.988L159.533 215.225C157.617 220.753 152.313 224.447 146.222 224.447C139.833 224.447 134.245 220.3 132.635 214.362C132.533 213.987 132.132 213.76 131.746 213.86C131.36 213.959 131.127 214.348 131.229 214.723C132.999 221.284 139.17 225.863 146.222 225.863C152.947 225.863 158.79 221.786 160.91 215.685L162.586 219.755C162.724 220.123 163.14 220.314 163.519 220.18C163.897 220.045 164.094 219.642 163.956 219.274Z" fill="#A6B1C1"/>
</g>
<path d="M106.351 153.744C106.351 154.034 106.238 154.271 106.013 154.453C105.787 154.641 105.481 154.732 105.083 154.732C104.74 154.732 104.407 154.657 104.095 154.501C103.778 154.351 103.574 154.228 103.483 154.136C103.392 154.045 103.322 153.97 103.273 153.911L102.28 154.899L102.403 155.033C102.473 155.119 102.591 155.227 102.758 155.35C102.919 155.479 103.112 155.603 103.327 155.721C103.542 155.844 103.821 155.952 104.154 156.038C104.487 156.124 104.836 156.167 105.191 156.167C106.104 156.167 106.818 155.941 107.334 155.49C107.85 155.039 108.107 154.458 108.107 153.744C108.107 153.239 107.979 152.826 107.715 152.493C107.458 152.165 107.141 151.929 106.765 151.784C106.389 151.644 106.018 151.515 105.647 151.408C105.277 151.3 104.96 151.171 104.702 151.016C104.444 150.86 104.31 150.65 104.31 150.393C104.31 150.167 104.407 149.968 104.6 149.807C104.793 149.646 105.046 149.565 105.357 149.565C105.621 149.565 105.873 149.63 106.12 149.748C106.367 149.872 106.534 149.968 106.609 150.043C106.684 150.119 106.743 150.178 106.786 150.231L107.774 149.184L107.678 149.077C107.619 149.001 107.517 148.91 107.377 148.808C107.237 148.706 107.071 148.604 106.883 148.507C106.695 148.411 106.453 148.325 106.158 148.25C105.868 148.174 105.562 148.142 105.245 148.142C104.45 148.142 103.8 148.362 103.3 148.803C102.801 149.243 102.548 149.775 102.548 150.398C102.548 150.903 102.683 151.316 102.94 151.649C103.204 151.977 103.521 152.213 103.891 152.358C104.262 152.498 104.632 152.622 105.008 152.729C105.384 152.836 105.701 152.965 105.959 153.126C106.217 153.282 106.351 153.486 106.351 153.744ZM113.774 148.298L112.179 153.578L110.583 148.298H108.822L111.352 156H112.893L114.542 150.828L116.191 156H117.732L120.262 148.298H118.5L116.905 153.578L115.31 148.298H113.774ZM125.435 152.756H123.56L124.5 150.226L125.435 152.756ZM125.982 154.185L126.643 156H128.405L125.375 148.298H123.619L120.59 156H122.352L123.012 154.185H125.982ZM129.506 148.298V156H131.16V153.47H132.75C133.545 153.47 134.2 153.223 134.721 152.729C135.237 152.235 135.5 151.617 135.5 150.887C135.5 150.156 135.237 149.539 134.716 149.044C134.195 148.55 133.54 148.303 132.75 148.303L129.506 148.298ZM132.696 149.791C133.024 149.791 133.298 149.893 133.518 150.108C133.738 150.323 133.851 150.581 133.851 150.892C133.851 151.198 133.738 151.456 133.518 151.671C133.298 151.88 133.024 151.988 132.696 151.988H131.16V149.791H132.696ZM142.982 148.137C141.806 148.137 140.812 148.529 140.006 149.313C139.201 150.097 138.798 151.042 138.798 152.149C138.798 153.255 139.201 154.206 140.006 154.99C140.812 155.774 141.806 156.167 142.982 156.167C143.379 156.167 143.766 156.113 144.142 156C144.518 155.893 144.819 155.769 145.05 155.635C145.281 155.5 145.496 155.345 145.7 155.167C145.904 154.99 146.033 154.867 146.092 154.797C146.151 154.727 146.194 154.668 146.226 154.625L145.232 153.578L145.146 153.69C145.087 153.771 144.996 153.862 144.867 153.97C144.738 154.077 144.588 154.185 144.421 154.292C144.25 154.399 144.04 154.491 143.782 154.566C143.524 154.641 143.261 154.679 142.982 154.679C142.262 154.679 141.661 154.437 141.177 153.954C140.694 153.47 140.452 152.869 140.452 152.149C140.452 151.429 140.694 150.828 141.177 150.344C141.661 149.861 142.262 149.619 142.982 149.619C143.24 149.619 143.498 149.662 143.75 149.743C143.997 149.823 144.201 149.909 144.357 150.006C144.507 150.103 144.652 150.21 144.781 150.333C144.91 150.462 144.996 150.548 145.034 150.602C145.071 150.656 145.104 150.693 145.125 150.72L146.172 149.673L146.049 149.512C145.968 149.41 145.839 149.281 145.657 149.13C145.474 148.98 145.27 148.83 145.034 148.679C144.797 148.529 144.502 148.405 144.137 148.298C143.771 148.19 143.385 148.137 142.982 148.137ZM148.81 152.154C148.81 151.445 149.046 150.844 149.529 150.355C150.007 149.866 150.593 149.619 151.28 149.619C151.968 149.619 152.553 149.866 153.031 150.355C153.515 150.844 153.751 151.445 153.751 152.154C153.751 152.863 153.515 153.465 153.031 153.948C152.553 154.437 151.968 154.679 151.28 154.679C150.593 154.679 150.007 154.437 149.529 153.948C149.046 153.465 148.81 152.863 148.81 152.154ZM147.102 152.149C147.102 153.255 147.504 154.206 148.31 154.99C149.116 155.774 150.109 156.167 151.28 156.167C152.451 156.167 153.445 155.774 154.25 154.99C155.056 154.206 155.459 153.255 155.459 152.149C155.459 151.042 155.056 150.097 154.25 149.313C153.445 148.529 152.451 148.137 151.28 148.137C150.109 148.137 149.116 148.529 148.31 149.313C147.504 150.097 147.102 151.042 147.102 152.149ZM162.232 148.298V153.196L158.44 148.298H157.006V156H158.66V151.107L162.452 156H163.881V148.298H162.232ZM165.089 148.298V149.786H167.292V156H168.94V149.786H171.137V148.298H165.089ZM172.346 156H174V153.304H175.429L176.911 156H178.673L177.024 153.083L177.164 153.008C177.26 152.965 177.373 152.885 177.513 152.767C177.647 152.648 177.781 152.509 177.91 152.342C178.039 152.181 178.152 151.961 178.249 151.692C178.345 151.424 178.394 151.139 178.394 150.828C178.394 150.119 178.146 149.522 177.647 149.034C177.147 148.545 176.514 148.298 175.751 148.298H172.34L172.346 156ZM176.745 150.828C176.745 151.107 176.648 151.343 176.449 151.537C176.25 151.73 175.998 151.821 175.697 151.821H173.995V149.786H175.697C175.998 149.786 176.25 149.888 176.449 150.081C176.648 150.28 176.745 150.527 176.745 150.828ZM184.119 152.756H182.245L183.185 150.226L184.119 152.756ZM184.667 154.185L185.328 156H187.089L184.06 148.298H182.304L179.274 156H181.036L181.697 154.185H184.667ZM191.934 148.137C190.758 148.137 189.764 148.529 188.958 149.313C188.153 150.097 187.75 151.042 187.75 152.149C187.75 153.255 188.153 154.206 188.958 154.99C189.764 155.774 190.758 156.167 191.934 156.167C192.332 156.167 192.718 156.113 193.094 156C193.47 155.893 193.771 155.769 194.002 155.635C194.233 155.5 194.448 155.345 194.652 155.167C194.856 154.99 194.985 154.867 195.044 154.797C195.103 154.727 195.146 154.668 195.178 154.625L194.185 153.578L194.099 153.69C194.04 153.771 193.948 153.862 193.819 153.97C193.69 154.077 193.54 154.185 193.374 154.292C193.202 154.399 192.992 154.491 192.734 154.566C192.477 154.641 192.213 154.679 191.934 154.679C191.214 154.679 190.613 154.437 190.129 153.954C189.646 153.47 189.404 152.869 189.404 152.149C189.404 151.429 189.646 150.828 190.129 150.344C190.613 149.861 191.214 149.619 191.934 149.619C192.192 149.619 192.45 149.662 192.702 149.743C192.949 149.823 193.153 149.909 193.309 150.006C193.459 150.103 193.604 150.21 193.733 150.333C193.862 150.462 193.948 150.548 193.986 150.602C194.023 150.656 194.056 150.693 194.077 150.72L195.125 149.673L195.001 149.512C194.92 149.41 194.792 149.281 194.609 149.13C194.426 148.98 194.222 148.83 193.986 148.679C193.75 148.529 193.454 148.405 193.089 148.298C192.724 148.19 192.337 148.137 191.934 148.137ZM195.726 148.298V149.786H197.928V156H199.577V149.786H201.774V148.298H195.726Z" fill="#3B4452"/>
<rect x="19" y="132" width="259" height="210" rx="28" stroke="#CFD9E9" stroke-width="2"/>
<path d="M101.173 283.298L99.5781 288.578L97.9829 283.298H96.2212L98.751 291H100.292L101.941 285.828L103.59 291H105.132L107.662 283.298H105.9L104.305 288.578L102.709 283.298H101.173ZM110.084 283.298H108.596V291H110.084V288.196C110.084 287.793 110.181 287.482 110.379 287.262C110.573 287.042 110.841 286.929 111.18 286.929C111.486 286.929 111.738 287.031 111.932 287.235C112.125 287.439 112.227 287.702 112.227 288.03V291H113.709V287.863C113.709 287.144 113.511 286.569 113.124 286.139C112.737 285.715 112.232 285.5 111.62 285.5C111.325 285.5 111.045 285.575 110.777 285.715C110.508 285.86 110.336 285.973 110.261 286.059C110.186 286.145 110.122 286.214 110.079 286.273L110.084 283.298ZM120.251 288.798L120.305 288.196C120.305 287.428 120.047 286.789 119.537 286.273C119.021 285.758 118.382 285.5 117.614 285.5C116.841 285.5 116.18 285.779 115.632 286.327C115.079 286.875 114.805 287.536 114.805 288.304C114.805 289.077 115.084 289.738 115.643 290.286C116.202 290.833 116.873 291.107 117.668 291.107C117.947 291.107 118.216 291.075 118.479 291.011C118.742 290.946 118.957 290.876 119.124 290.791C119.285 290.705 119.44 290.608 119.591 290.5C119.736 290.393 119.833 290.318 119.875 290.275L119.978 290.173L119.209 289.185L119.054 289.351C118.957 289.464 118.785 289.577 118.549 289.684C118.312 289.792 118.055 289.845 117.775 289.845C117.389 289.845 117.066 289.749 116.814 289.544C116.556 289.34 116.4 289.093 116.347 288.798H120.251ZM117.614 286.768C117.926 286.768 118.194 286.864 118.409 287.047C118.624 287.235 118.764 287.471 118.823 287.756H116.347C116.433 287.466 116.588 287.224 116.809 287.042C117.029 286.859 117.297 286.768 117.614 286.768ZM122.894 285.607H121.412V291H122.894V288.196C122.894 287.793 122.991 287.482 123.189 287.262C123.388 287.042 123.657 286.929 123.995 286.929C124.301 286.929 124.554 287.031 124.747 287.235C124.94 287.439 125.037 287.702 125.037 288.03V291H126.52V287.863C126.52 287.144 126.326 286.569 125.939 286.139C125.553 285.715 125.048 285.5 124.43 285.5C124.14 285.5 123.861 285.575 123.592 285.715C123.324 285.86 123.152 285.973 123.071 286.059C122.996 286.145 122.932 286.214 122.889 286.273L122.894 285.607ZM133.18 291H134.662V287.643C134.662 287.031 134.447 286.521 134.018 286.112C133.588 285.704 133.029 285.5 132.353 285.5C132.089 285.5 131.832 285.543 131.579 285.618C131.332 285.693 131.128 285.779 130.972 285.871C130.822 285.962 130.677 286.064 130.548 286.182C130.419 286.3 130.333 286.386 130.295 286.435C130.258 286.483 130.226 286.521 130.204 286.547L131.026 287.369L131.149 287.24C131.235 287.144 131.375 287.052 131.574 286.961C131.778 286.87 131.998 286.821 132.24 286.821C132.535 286.821 132.766 286.896 132.927 287.036C133.094 287.181 133.174 287.364 133.174 287.589L131.466 287.896C130.972 287.987 130.58 288.18 130.295 288.47C130.016 288.766 129.871 289.131 129.871 289.571C129.871 290.001 130.043 290.361 130.376 290.662C130.714 290.962 131.149 291.107 131.687 291.107C131.966 291.107 132.234 291.048 132.492 290.93C132.75 290.812 132.922 290.715 132.997 290.64C133.072 290.565 133.131 290.506 133.174 290.452L133.18 291ZM132.073 289.899C131.601 289.899 131.359 289.716 131.359 289.351C131.359 289.013 131.563 288.809 131.966 288.744L133.174 288.524V288.69C133.174 289.072 133.078 289.367 132.879 289.582C132.68 289.797 132.412 289.899 132.073 289.899ZM137.638 283.298H136.15V291H137.638V283.298ZM140.667 283.298H139.179V291H140.667V283.298ZM145.071 285.006C145.071 285.221 145.012 285.393 144.894 285.521C144.776 285.656 144.631 285.72 144.464 285.72H143.97V287.042H144.905V289.238C144.905 290.484 145.469 291.107 146.607 291.107C146.973 291.113 147.306 291.059 147.601 290.946V289.679L147.537 289.7C147.488 289.722 147.418 289.743 147.327 289.765C147.236 289.786 147.145 289.792 147.048 289.792C146.854 289.792 146.699 289.732 146.575 289.614C146.452 289.496 146.393 289.356 146.393 289.185V287.042H147.488V285.72H146.393V284.018H145.071V285.006ZM150.077 288.309C150.077 287.906 150.206 287.568 150.469 287.289C150.727 287.015 151.039 286.875 151.398 286.875C151.753 286.875 152.064 287.015 152.328 287.289C152.585 287.568 152.72 287.906 152.72 288.309C152.72 288.712 152.585 289.05 152.328 289.324C152.064 289.598 151.753 289.732 151.398 289.732C151.039 289.732 150.727 289.598 150.469 289.324C150.206 289.05 150.077 288.712 150.077 288.309ZM154.256 288.304C154.256 287.557 153.971 286.902 153.402 286.343C152.833 285.785 152.167 285.505 151.398 285.505C150.625 285.505 149.959 285.785 149.39 286.343C148.82 286.902 148.536 287.557 148.536 288.304C148.536 289.056 148.82 289.711 149.39 290.27C149.959 290.828 150.625 291.107 151.398 291.107C152.167 291.107 152.833 290.828 153.402 290.27C153.971 289.711 154.256 289.056 154.256 288.304ZM157.554 288.911L158.988 291H160.637L158.494 287.922L160.524 285.607H158.821L156.898 287.81V283.298H155.411V291H156.898V289.679L157.554 288.911ZM166.464 288.798L166.518 288.196C166.518 287.428 166.26 286.789 165.75 286.273C165.234 285.758 164.595 285.5 163.827 285.5C163.054 285.5 162.393 285.779 161.845 286.327C161.292 286.875 161.018 287.536 161.018 288.304C161.018 289.077 161.297 289.738 161.856 290.286C162.415 290.833 163.086 291.107 163.881 291.107C164.16 291.107 164.429 291.075 164.692 291.011C164.955 290.946 165.17 290.876 165.336 290.791C165.498 290.705 165.653 290.608 165.804 290.5C165.949 290.393 166.045 290.318 166.088 290.275L166.19 290.173L165.422 289.185L165.267 289.351C165.17 289.464 164.998 289.577 164.762 289.684C164.525 289.792 164.268 289.845 163.988 289.845C163.602 289.845 163.279 289.749 163.027 289.544C162.769 289.34 162.613 289.093 162.56 288.798H166.464ZM163.827 286.768C164.139 286.768 164.407 286.864 164.622 287.047C164.837 287.235 164.977 287.471 165.036 287.756H162.56C162.646 287.466 162.801 287.224 163.021 287.042C163.242 286.859 163.51 286.768 163.827 286.768ZM169.107 285.607H167.625V291H169.107V288.196C169.107 287.793 169.204 287.482 169.402 287.262C169.601 287.042 169.87 286.929 170.208 286.929C170.514 286.929 170.767 287.031 170.96 287.235C171.153 287.439 171.25 287.702 171.25 288.03V291H172.732V287.863C172.732 287.144 172.539 286.569 172.152 286.139C171.766 285.715 171.261 285.5 170.643 285.5C170.353 285.5 170.074 285.575 169.805 285.715C169.537 285.86 169.365 285.973 169.284 286.059C169.209 286.145 169.145 286.214 169.102 286.273L169.107 285.607ZM177.905 286.327L177.717 286.118C177.593 285.989 177.373 285.849 177.062 285.709C176.75 285.57 176.406 285.5 176.036 285.5C175.445 285.5 174.951 285.677 174.548 286.026C174.145 286.381 173.946 286.773 173.946 287.203C173.946 287.536 174.027 287.815 174.199 288.03C174.365 288.25 174.569 288.411 174.811 288.513C175.053 288.621 175.3 288.707 175.547 288.782C175.794 288.857 175.998 288.943 176.17 289.04C176.336 289.136 176.422 289.26 176.422 289.405C176.422 289.555 176.358 289.673 176.24 289.765C176.122 289.856 175.944 289.899 175.708 289.899C175.493 289.899 175.284 289.845 175.085 289.732C174.881 289.62 174.752 289.528 174.688 289.464C174.623 289.399 174.58 289.34 174.553 289.297L173.726 290.119L173.801 290.232C173.855 290.296 173.941 290.377 174.059 290.474C174.177 290.57 174.322 290.662 174.483 290.758C174.645 290.855 174.854 290.941 175.112 291.005C175.37 291.075 175.638 291.107 175.928 291.107C176.594 291.107 177.115 290.946 177.497 290.619C177.878 290.296 178.071 289.888 178.071 289.405C178.071 289.072 177.985 288.787 177.819 288.562C177.647 288.336 177.443 288.169 177.196 288.067C176.949 287.965 176.702 287.879 176.46 287.804C176.218 287.729 176.014 287.648 175.848 287.552C175.676 287.46 175.595 287.342 175.595 287.203C175.595 287.09 175.654 286.988 175.772 286.902C175.891 286.816 176.052 286.768 176.256 286.768C176.417 286.768 176.573 286.811 176.729 286.891C176.879 286.972 176.981 287.036 177.029 287.084C177.078 287.138 177.115 287.176 177.137 287.203L177.905 286.327ZM184.398 291H185.881V287.643C185.881 287.031 185.666 286.521 185.236 286.112C184.807 285.704 184.248 285.5 183.571 285.5C183.308 285.5 183.05 285.543 182.798 285.618C182.551 285.693 182.347 285.779 182.191 285.871C182.041 285.962 181.896 286.064 181.767 286.182C181.638 286.3 181.552 286.386 181.514 286.435C181.477 286.483 181.444 286.521 181.423 286.547L182.245 287.369L182.368 287.24C182.454 287.144 182.594 287.052 182.792 286.961C182.997 286.87 183.217 286.821 183.458 286.821C183.754 286.821 183.985 286.896 184.146 287.036C184.312 287.181 184.393 287.364 184.393 287.589L182.685 287.896C182.191 287.987 181.799 288.18 181.514 288.47C181.235 288.766 181.09 289.131 181.09 289.571C181.09 290.001 181.262 290.361 181.595 290.662C181.933 290.962 182.368 291.107 182.905 291.107C183.185 291.107 183.453 291.048 183.711 290.93C183.969 290.812 184.141 290.715 184.216 290.64C184.291 290.565 184.35 290.506 184.393 290.452L184.398 291ZM183.292 289.899C182.819 289.899 182.578 289.716 182.578 289.351C182.578 289.013 182.782 288.809 183.185 288.744L184.393 288.524V288.69C184.393 289.072 184.296 289.367 184.098 289.582C183.899 289.797 183.63 289.899 183.292 289.899ZM190.559 285.554H190.339C190.043 285.554 189.764 285.624 189.496 285.752C189.227 285.887 189.055 285.994 188.975 286.075C188.899 286.155 188.835 286.22 188.792 286.268V285.607H187.31V291H188.792V288.417C188.792 287.955 188.91 287.6 189.136 287.353C189.361 287.106 189.673 286.982 190.06 286.982C190.28 286.988 190.446 287.009 190.554 287.047L190.559 285.554ZM196.5 288.798L196.553 288.196C196.553 287.428 196.295 286.789 195.785 286.273C195.27 285.758 194.63 285.5 193.862 285.5C193.089 285.5 192.428 285.779 191.88 286.327C191.327 286.875 191.053 287.536 191.053 288.304C191.053 289.077 191.333 289.738 191.891 290.286C192.45 290.833 193.121 291.107 193.916 291.107C194.195 291.107 194.464 291.075 194.727 291.011C194.99 290.946 195.205 290.876 195.372 290.791C195.533 290.705 195.688 290.608 195.839 290.5C195.984 290.393 196.081 290.318 196.124 290.275L196.226 290.173L195.458 289.185L195.302 289.351C195.205 289.464 195.033 289.577 194.797 289.684C194.561 289.792 194.303 289.845 194.023 289.845C193.637 289.845 193.314 289.749 193.062 289.544C192.804 289.34 192.648 289.093 192.595 288.798H196.5ZM193.862 286.768C194.174 286.768 194.442 286.864 194.657 287.047C194.872 287.235 195.012 287.471 195.071 287.756H192.595C192.681 287.466 192.836 287.224 193.057 287.042C193.277 286.859 193.545 286.768 193.862 286.768ZM93.7827 304H95.437V296.298H93.7827V304ZM102.64 296.298V301.196L98.8477 296.298H97.4136V304H99.0679V299.107L102.86 304H104.289V296.298H102.64ZM108.854 298.006C108.854 298.221 108.795 298.393 108.677 298.521C108.559 298.656 108.414 298.72 108.247 298.72H107.753V300.042H108.688V302.238C108.688 303.484 109.251 304.107 110.39 304.107C110.755 304.113 111.088 304.059 111.384 303.946V302.679L111.319 302.7C111.271 302.722 111.201 302.743 111.11 302.765C111.019 302.786 110.927 302.792 110.831 302.792C110.637 302.792 110.481 302.732 110.358 302.614C110.234 302.496 110.175 302.356 110.175 302.185V300.042H111.271V298.72H110.175V297.018H108.854V298.006ZM114.193 296.298H112.705V304H114.193V301.196C114.193 300.793 114.29 300.482 114.488 300.262C114.682 300.042 114.95 299.929 115.289 299.929C115.595 299.929 115.847 300.031 116.041 300.235C116.234 300.439 116.336 300.702 116.336 301.03V304H117.818V300.863C117.818 300.144 117.62 299.569 117.233 299.139C116.846 298.715 116.341 298.5 115.729 298.5C115.434 298.5 115.154 298.575 114.886 298.715C114.617 298.86 114.445 298.973 114.37 299.059C114.295 299.145 114.23 299.214 114.188 299.273L114.193 296.298ZM124.36 301.798L124.414 301.196C124.414 300.428 124.156 299.789 123.646 299.273C123.13 298.758 122.491 298.5 121.723 298.5C120.95 298.5 120.289 298.779 119.741 299.327C119.188 299.875 118.914 300.536 118.914 301.304C118.914 302.077 119.193 302.738 119.752 303.286C120.311 303.833 120.982 304.107 121.777 304.107C122.056 304.107 122.325 304.075 122.588 304.011C122.851 303.946 123.066 303.876 123.232 303.791C123.394 303.705 123.549 303.608 123.7 303.5C123.845 303.393 123.941 303.318 123.984 303.275L124.086 303.173L123.318 302.185L123.163 302.351C123.066 302.464 122.894 302.577 122.658 302.684C122.421 302.792 122.164 302.845 121.884 302.845C121.498 302.845 121.175 302.749 120.923 302.544C120.665 302.34 120.509 302.093 120.456 301.798H124.36ZM121.723 299.768C122.035 299.768 122.303 299.864 122.518 300.047C122.733 300.235 122.873 300.471 122.932 300.756H120.456C120.542 300.466 120.697 300.224 120.917 300.042C121.138 299.859 121.406 299.768 121.723 299.768ZM127.003 298.607H125.521V304H127.003V301.196C127.003 300.793 127.1 300.482 127.298 300.262C127.497 300.042 127.766 299.929 128.104 299.929C128.41 299.929 128.663 300.031 128.856 300.235C129.049 300.439 129.146 300.702 129.146 301.03V304H130.628V300.863C130.628 300.144 130.435 299.569 130.048 299.139C129.662 298.715 129.157 298.5 128.539 298.5C128.249 298.5 127.97 298.575 127.701 298.715C127.433 298.86 127.261 298.973 127.18 299.059C127.105 299.145 127.041 299.214 126.998 299.273L127.003 298.607ZM134.646 296.298V304H137.509C138.626 304 139.566 303.629 140.329 302.883C141.086 302.142 141.467 301.229 141.467 300.149C141.467 299.075 141.086 298.162 140.329 297.415C139.566 296.674 138.626 296.298 137.509 296.298H134.646ZM137.509 297.786C138.164 297.786 138.717 298.017 139.158 298.473C139.598 298.935 139.818 299.494 139.818 300.154C139.818 300.815 139.593 301.374 139.142 301.83C138.69 302.292 138.143 302.518 137.509 302.518H136.3V297.786H137.509ZM143.003 304H144.658V296.298H143.003V304ZM149.991 301.744C149.991 302.034 149.878 302.271 149.653 302.453C149.427 302.641 149.121 302.732 148.724 302.732C148.38 302.732 148.047 302.657 147.735 302.501C147.418 302.351 147.214 302.228 147.123 302.136C147.032 302.045 146.962 301.97 146.914 301.911L145.92 302.899L146.043 303.033C146.113 303.119 146.231 303.227 146.398 303.35C146.559 303.479 146.752 303.603 146.967 303.721C147.182 303.844 147.461 303.952 147.794 304.038C148.127 304.124 148.477 304.167 148.831 304.167C149.744 304.167 150.458 303.941 150.974 303.49C151.49 303.039 151.748 302.458 151.748 301.744C151.748 301.239 151.619 300.826 151.355 300.493C151.098 300.165 150.781 299.929 150.405 299.784C150.029 299.644 149.658 299.515 149.288 299.408C148.917 299.3 148.6 299.171 148.342 299.016C148.084 298.86 147.95 298.65 147.95 298.393C147.95 298.167 148.047 297.968 148.24 297.807C148.434 297.646 148.686 297.565 148.998 297.565C149.261 297.565 149.513 297.63 149.76 297.748C150.007 297.872 150.174 297.968 150.249 298.043C150.324 298.119 150.383 298.178 150.426 298.231L151.415 297.184L151.318 297.077C151.259 297.001 151.157 296.91 151.017 296.808C150.877 296.706 150.711 296.604 150.523 296.507C150.335 296.411 150.093 296.325 149.798 296.25C149.508 296.174 149.202 296.142 148.885 296.142C148.09 296.142 147.44 296.362 146.94 296.803C146.441 297.243 146.188 297.775 146.188 298.398C146.188 298.903 146.323 299.316 146.581 299.649C146.844 299.977 147.161 300.213 147.531 300.358C147.902 300.498 148.272 300.622 148.648 300.729C149.024 300.836 149.341 300.965 149.599 301.126C149.857 301.282 149.991 301.486 149.991 301.744ZM152.462 296.298V297.786H154.664V304H156.313V297.786H158.51V296.298H152.462ZM159.718 304H161.373V301.304H162.801L164.284 304H166.045L164.396 301.083L164.536 301.008C164.633 300.965 164.746 300.885 164.885 300.767C165.02 300.648 165.154 300.509 165.283 300.342C165.412 300.181 165.524 299.961 165.621 299.692C165.718 299.424 165.766 299.139 165.766 298.828C165.766 298.119 165.519 297.522 165.02 297.034C164.52 296.545 163.886 296.298 163.124 296.298H159.713L159.718 304ZM164.117 298.828C164.117 299.107 164.021 299.343 163.822 299.537C163.623 299.73 163.371 299.821 163.07 299.821H161.367V297.786H163.07C163.371 297.786 163.623 297.888 163.822 298.081C164.021 298.28 164.117 298.527 164.117 298.828ZM167.528 304H169.182V296.298H167.528V304ZM174.65 304C175.413 304 176.036 303.78 176.53 303.334C177.019 302.894 177.266 302.362 177.266 301.744C177.266 301.497 177.217 301.266 177.126 301.051C177.035 300.836 176.933 300.665 176.825 300.536C176.712 300.412 176.583 300.299 176.438 300.192C176.288 300.084 176.186 300.02 176.132 299.993C176.079 299.966 176.03 299.945 175.998 299.929L176.089 299.875C176.143 299.843 176.218 299.778 176.304 299.692C176.39 299.606 176.481 299.499 176.573 299.375C176.659 299.257 176.734 299.102 176.793 298.919C176.847 298.736 176.879 298.538 176.879 298.333C176.879 297.796 176.648 297.318 176.191 296.91C175.735 296.502 175.16 296.298 174.462 296.298H171.159V304H174.65ZM172.813 302.625V300.643H174.569C174.87 300.643 175.117 300.74 175.316 300.933C175.515 301.126 175.617 301.357 175.617 301.637C175.617 301.916 175.515 302.152 175.316 302.34C175.117 302.534 174.87 302.625 174.569 302.625H172.813ZM174.349 297.673C174.618 297.673 174.833 297.748 174.994 297.898C175.149 298.049 175.23 298.253 175.23 298.5C175.23 298.752 175.149 298.951 174.994 299.102C174.833 299.252 174.618 299.327 174.349 299.327H172.813V297.673H174.349ZM182.11 302.679C181.638 302.679 181.235 302.507 180.902 302.158C180.569 301.809 180.402 301.379 180.402 300.863V296.298H178.753V300.863C178.753 301.803 179.07 302.587 179.709 303.221C180.343 303.855 181.144 304.172 182.105 304.172C183.066 304.172 183.867 303.855 184.506 303.221C185.14 302.587 185.462 301.803 185.462 300.863V296.298H183.813V300.863C183.813 301.379 183.646 301.814 183.313 302.158C182.98 302.507 182.578 302.679 182.11 302.679ZM186.622 296.298V297.786H188.824V304H190.473V297.786H192.67V296.298H186.622ZM195.533 302.518V300.81H198.664V299.327H195.533V297.786H199.545V296.298H193.878V304H199.658V302.518H195.533Z" fill="#474D54"/>
<path d="M90.8394 82.9106C90.8394 83.3403 90.6836 83.6841 90.3828 83.9473C90.0767 84.2104 89.6416 84.3394 89.0776 84.3394C88.8145 84.3394 88.562 84.3071 88.3149 84.2373C88.0679 84.1675 87.8691 84.0923 87.7241 84.0117C87.5791 83.9312 87.4448 83.8345 87.3213 83.7271C87.1924 83.6196 87.1118 83.5391 87.0742 83.4961C87.0366 83.4531 87.0098 83.4209 86.999 83.3994L86.4941 83.958L86.5962 84.0815C86.6499 84.1567 86.752 84.2534 86.9023 84.3716C87.0474 84.4844 87.2139 84.5972 87.4019 84.7046C87.5952 84.812 87.8369 84.9087 88.1323 84.9893C88.4331 85.0698 88.7446 85.1074 89.0723 85.1074C89.8833 85.1074 90.5171 84.9087 90.9736 84.5005C91.4355 84.0923 91.6611 83.5659 91.6611 82.9106C91.6611 82.5347 91.5859 82.2178 91.4302 81.9492C91.2798 81.6807 91.0757 81.4766 90.8286 81.3262C90.5815 81.1812 90.313 81.0576 90.0176 80.9556C89.7222 80.8535 89.4268 80.7622 89.126 80.6763C88.8306 80.5903 88.5566 80.499 88.3096 80.3916C88.0625 80.2896 87.8638 80.1445 87.708 79.9565C87.5576 79.7739 87.4771 79.5483 87.4771 79.2798C87.4771 78.9146 87.6274 78.603 87.9282 78.3452C88.229 78.0874 88.6265 77.9585 89.1313 77.9585C89.3462 77.9585 89.5503 77.9907 89.749 78.0444C89.9478 78.0981 90.1089 78.1626 90.2271 78.2324C90.3452 78.3022 90.458 78.3828 90.5654 78.4688C90.6729 78.5547 90.7427 78.6191 90.7695 78.6514C90.8018 78.6836 90.8232 78.7104 90.834 78.7319L91.3872 78.1787L91.2959 78.0713C91.2422 78.0068 91.1455 77.9263 91.0112 77.8296C90.8823 77.7329 90.7319 77.6416 90.5601 77.5449C90.3936 77.4482 90.1841 77.3677 89.9316 77.2979C89.6792 77.228 89.4106 77.1904 89.1313 77.1904C88.3901 77.1904 87.7939 77.3945 87.3374 77.8027C86.8862 78.2109 86.6553 78.6997 86.6553 79.2798C86.6553 79.6558 86.7358 79.9727 86.8862 80.2412C87.042 80.5098 87.2407 80.7192 87.4878 80.8643C87.7349 81.0146 88.0034 81.1382 88.2988 81.2402C88.5996 81.3423 88.895 81.4336 89.1904 81.5195C89.4912 81.6055 89.7598 81.6968 90.0068 81.7988C90.2539 81.9062 90.4526 82.0513 90.603 82.2339C90.7588 82.4219 90.8394 82.6475 90.8394 82.9106ZM94.2017 84.2319V81.3691H97.7734V80.6011H94.2017V78.0713H98.6543V77.2979H93.3745V85H98.7671V84.2319H94.2017ZM105.857 77.2979V83.5176L101.125 77.2979H100.411V85H101.238V78.7856L105.964 85H106.679V77.2979H105.857ZM108.994 77.2979V85H111.416C112.533 85 113.484 84.624 114.263 83.8667C115.036 83.1147 115.428 82.207 115.428 81.1489C115.428 80.0962 115.036 79.1885 114.263 78.4312C113.484 77.6792 112.533 77.2979 111.416 77.2979H108.994ZM111.416 78.0713C112.318 78.0713 113.076 78.3721 113.688 78.9683C114.3 79.5698 114.606 80.2949 114.606 81.1543C114.606 82.0137 114.3 82.7388 113.688 83.335C113.076 83.9365 112.318 84.2319 111.416 84.2319H109.821V78.0713H111.416ZM120.928 82.9106C120.928 83.3403 120.772 83.6841 120.472 83.9473C120.166 84.2104 119.73 84.3394 119.167 84.3394C118.903 84.3394 118.651 84.3071 118.404 84.2373C118.157 84.1675 117.958 84.0923 117.813 84.0117C117.668 83.9312 117.534 83.8345 117.41 83.7271C117.281 83.6196 117.201 83.5391 117.163 83.4961C117.125 83.4531 117.099 83.4209 117.088 83.3994L116.583 83.958L116.685 84.0815C116.739 84.1567 116.841 84.2534 116.991 84.3716C117.136 84.4844 117.303 84.5972 117.491 84.7046C117.684 84.812 117.926 84.9087 118.221 84.9893C118.522 85.0698 118.833 85.1074 119.161 85.1074C119.972 85.1074 120.606 84.9087 121.062 84.5005C121.524 84.0923 121.75 83.5659 121.75 82.9106C121.75 82.5347 121.675 82.2178 121.519 81.9492C121.369 81.6807 121.165 81.4766 120.917 81.3262C120.67 81.1812 120.402 81.0576 120.106 80.9556C119.811 80.8535 119.516 80.7622 119.215 80.6763C118.919 80.5903 118.646 80.499 118.398 80.3916C118.151 80.2896 117.953 80.1445 117.797 79.9565C117.646 79.7739 117.566 79.5483 117.566 79.2798C117.566 78.9146 117.716 78.603 118.017 78.3452C118.318 78.0874 118.715 77.9585 119.22 77.9585C119.435 77.9585 119.639 77.9907 119.838 78.0444C120.037 78.0981 120.198 78.1626 120.316 78.2324C120.434 78.3022 120.547 78.3828 120.654 78.4688C120.762 78.5547 120.832 78.6191 120.858 78.6514C120.891 78.6836 120.912 78.7104 120.923 78.7319L121.476 78.1787L121.385 78.0713C121.331 78.0068 121.234 77.9263 121.1 77.8296C120.971 77.7329 120.821 77.6416 120.649 77.5449C120.482 77.4482 120.273 77.3677 120.021 77.2979C119.768 77.228 119.5 77.1904 119.22 77.1904C118.479 77.1904 117.883 77.3945 117.426 77.8027C116.975 78.2109 116.744 78.6997 116.744 79.2798C116.744 79.6558 116.825 79.9727 116.975 80.2412C117.131 80.5098 117.33 80.7192 117.577 80.8643C117.824 81.0146 118.092 81.1382 118.388 81.2402C118.688 81.3423 118.984 81.4336 119.279 81.5195C119.58 81.6055 119.849 81.6968 120.096 81.7988C120.343 81.9062 120.542 82.0513 120.692 82.2339C120.848 82.4219 120.928 82.6475 120.928 82.9106ZM88.0894 90.2979L88.0464 90.4106C88.0142 90.4751 87.9604 90.561 87.8853 90.6577C87.8101 90.7598 87.7134 90.8618 87.5952 90.9585C87.4771 91.0552 87.3159 91.1465 87.1172 91.2217C86.9131 91.2969 86.6875 91.3398 86.4404 91.3452V91.8394H87.8691V98H88.6963V90.2979H88.0894ZM91.3281 94.1543C91.3281 93.1553 91.5483 92.3765 91.9941 91.8071C92.4346 91.2432 92.9663 90.9585 93.584 90.9585C94.1963 90.9585 94.728 91.2432 95.1738 91.8071C95.6143 92.3711 95.8398 93.1499 95.8398 94.1489C95.8398 95.1426 95.6196 95.9214 95.1792 96.4907C94.7388 97.0601 94.207 97.3447 93.5947 97.3447C92.9717 97.3447 92.4346 97.0601 91.9941 96.4961C91.5483 95.9321 91.3281 95.1533 91.3281 94.1543ZM96.667 94.1543C96.667 92.9619 96.3608 92.0059 95.7539 91.2808C95.1416 90.5557 94.4219 90.1958 93.584 90.1958C92.7461 90.1958 92.0264 90.5557 91.4194 91.2808C90.8071 92.0059 90.5063 92.9619 90.5063 94.1543C90.5063 95.3413 90.8071 96.2974 91.4141 97.0225C92.021 97.7476 92.7461 98.1128 93.5947 98.1128C94.4326 98.1128 95.1523 97.7476 95.7593 97.0225C96.3608 96.2974 96.667 95.3413 96.667 94.1543ZM98.8047 94.1543C98.8047 93.1553 99.0249 92.3765 99.4707 91.8071C99.9111 91.2432 100.443 90.9585 101.061 90.9585C101.673 90.9585 102.205 91.2432 102.65 91.8071C103.091 92.3711 103.316 93.1499 103.316 94.1489C103.316 95.1426 103.096 95.9214 102.656 96.4907C102.215 97.0601 101.684 97.3447 101.071 97.3447C100.448 97.3447 99.9111 97.0601 99.4707 96.4961C99.0249 95.9321 98.8047 95.1533 98.8047 94.1543ZM104.144 94.1543C104.144 92.9619 103.837 92.0059 103.23 91.2808C102.618 90.5557 101.898 90.1958 101.061 90.1958C100.223 90.1958 99.5029 90.5557 98.896 91.2808C98.2837 92.0059 97.9829 92.9619 97.9829 94.1543C97.9829 95.3413 98.2837 96.2974 98.8906 97.0225C99.4976 97.7476 100.223 98.1128 101.071 98.1128C101.909 98.1128 102.629 97.7476 103.236 97.0225C103.837 96.2974 104.144 95.3413 104.144 94.1543ZM86.6606 107.149C86.6606 108.25 87.042 109.185 87.8154 109.953C88.5835 110.726 89.5181 111.107 90.6191 111.107C91.0059 111.107 91.3872 111.054 91.7578 110.941C92.1284 110.828 92.4292 110.699 92.6655 110.554C92.9019 110.415 93.1221 110.248 93.3262 110.065C93.5303 109.883 93.6592 109.759 93.7236 109.689C93.7881 109.62 93.8311 109.561 93.8633 109.518V107.042H91.2798V107.81H93.0415V109.297L92.9502 109.405C92.8911 109.48 92.7944 109.571 92.6602 109.668C92.5205 109.765 92.3647 109.867 92.1875 109.969C92.0049 110.071 91.7793 110.157 91.5 110.232C91.2207 110.307 90.9253 110.339 90.6191 110.339C89.7383 110.339 88.9917 110.033 88.3901 109.421C87.7832 108.809 87.4824 108.051 87.4824 107.149C87.4824 106.247 87.7832 105.489 88.3901 104.877C88.9917 104.265 89.7383 103.958 90.6191 103.958C90.9468 103.958 91.2637 104.007 91.5645 104.104C91.8652 104.2 92.1069 104.308 92.2896 104.426C92.4722 104.544 92.644 104.673 92.8052 104.823C92.9609 104.974 93.063 105.081 93.106 105.14C93.1489 105.199 93.1812 105.248 93.2026 105.28L93.7559 104.786L93.6323 104.619C93.5518 104.512 93.4229 104.377 93.2456 104.216C93.0684 104.061 92.8643 103.905 92.6279 103.749C92.3916 103.599 92.0962 103.464 91.7363 103.357C91.3818 103.25 91.0059 103.19 90.6138 103.19C89.5181 103.19 88.5835 103.577 87.8101 104.345C87.042 105.119 86.6606 106.053 86.6606 107.149ZM95.8989 103.298V111H96.7261V107.922H98.9229L100.631 111H101.565L99.75 107.81L99.9165 107.756C100.024 107.724 100.153 107.648 100.314 107.541C100.47 107.434 100.625 107.305 100.781 107.149C100.932 106.999 101.066 106.784 101.179 106.51C101.286 106.241 101.345 105.94 101.345 105.607C101.345 104.952 101.12 104.399 100.668 103.958C100.217 103.518 99.6533 103.298 98.9766 103.298H95.8989ZM98.9766 104.071C99.4438 104.071 99.8198 104.211 100.099 104.49C100.378 104.77 100.518 105.14 100.518 105.613C100.518 106.085 100.378 106.456 100.099 106.735C99.8198 107.015 99.4438 107.154 98.9766 107.154H96.7261V104.077L98.9766 104.071ZM104.149 110.232V107.369H107.721V106.601H104.149V104.071H108.602V103.298H103.322V111H108.714V110.232H104.149ZM111.185 110.232V107.369H114.757V106.601H111.185V104.071H115.638V103.298H110.358V111H115.75V110.232H111.185ZM122.84 103.298V109.518L118.108 103.298H117.394V111H118.221V104.786L122.948 111H123.662V103.298H122.84Z" fill="#565F6D"/>
<path d="M158.531 82.9106C158.531 83.3403 158.375 83.6841 158.074 83.9473C157.768 84.2104 157.333 84.3394 156.769 84.3394C156.506 84.3394 156.253 84.3071 156.006 84.2373C155.759 84.1675 155.561 84.0923 155.416 84.0117C155.271 83.9312 155.136 83.8345 155.013 83.7271C154.884 83.6196 154.803 83.5391 154.766 83.4961C154.728 83.4531 154.701 83.4209 154.69 83.3994L154.186 83.958L154.288 84.0815C154.341 84.1567 154.443 84.2534 154.594 84.3716C154.739 84.4844 154.905 84.5972 155.093 84.7046C155.287 84.812 155.528 84.9087 155.824 84.9893C156.125 85.0698 156.436 85.1074 156.764 85.1074C157.575 85.1074 158.208 84.9087 158.665 84.5005C159.127 84.0923 159.353 83.5659 159.353 82.9106C159.353 82.5347 159.277 82.2178 159.122 81.9492C158.971 81.6807 158.767 81.4766 158.52 81.3262C158.273 81.1812 158.004 81.0576 157.709 80.9556C157.414 80.8535 157.118 80.7622 156.817 80.6763C156.522 80.5903 156.248 80.499 156.001 80.3916C155.754 80.2896 155.555 80.1445 155.399 79.9565C155.249 79.7739 155.168 79.5483 155.168 79.2798C155.168 78.9146 155.319 78.603 155.62 78.3452C155.92 78.0874 156.318 77.9585 156.823 77.9585C157.038 77.9585 157.242 77.9907 157.44 78.0444C157.639 78.0981 157.8 78.1626 157.918 78.2324C158.037 78.3022 158.149 78.3828 158.257 78.4688C158.364 78.5547 158.434 78.6191 158.461 78.6514C158.493 78.6836 158.515 78.7104 158.525 78.7319L159.079 78.1787L158.987 78.0713C158.934 78.0068 158.837 77.9263 158.703 77.8296C158.574 77.7329 158.423 77.6416 158.251 77.5449C158.085 77.4482 157.875 77.3677 157.623 77.2979C157.371 77.228 157.102 77.1904 156.823 77.1904C156.082 77.1904 155.485 77.3945 155.029 77.8027C154.578 78.2109 154.347 78.6997 154.347 79.2798C154.347 79.6558 154.427 79.9727 154.578 80.2412C154.733 80.5098 154.932 80.7192 155.179 80.8643C155.426 81.0146 155.695 81.1382 155.99 81.2402C156.291 81.3423 156.586 81.4336 156.882 81.5195C157.183 81.6055 157.451 81.6968 157.698 81.7988C157.945 81.9062 158.144 82.0513 158.294 82.2339C158.45 82.4219 158.531 82.6475 158.531 82.9106ZM161.893 84.2319V81.3691H165.465V80.6011H161.893V78.0713H166.346V77.2979H161.066V85H166.458V84.2319H161.893ZM173.548 77.2979V83.5176L168.816 77.2979H168.102V85H168.929V78.7856L173.656 85H174.37V77.2979H173.548ZM176.685 77.2979V85H179.107C180.225 85 181.175 84.624 181.954 83.8667C182.728 83.1147 183.12 82.207 183.12 81.1489C183.12 80.0962 182.728 79.1885 181.954 78.4312C181.175 77.6792 180.225 77.2979 179.107 77.2979H176.685ZM179.107 78.0713C180.01 78.0713 180.767 78.3721 181.379 78.9683C181.992 79.5698 182.298 80.2949 182.298 81.1543C182.298 82.0137 181.992 82.7388 181.379 83.335C180.767 83.9365 180.01 84.2319 179.107 84.2319H177.512V78.0713H179.107ZM188.62 82.9106C188.62 83.3403 188.464 83.6841 188.163 83.9473C187.857 84.2104 187.422 84.3394 186.858 84.3394C186.595 84.3394 186.342 84.3071 186.095 84.2373C185.848 84.1675 185.649 84.0923 185.504 84.0117C185.359 83.9312 185.225 83.8345 185.102 83.7271C184.973 83.6196 184.892 83.5391 184.854 83.4961C184.817 83.4531 184.79 83.4209 184.779 83.3994L184.274 83.958L184.376 84.0815C184.43 84.1567 184.532 84.2534 184.683 84.3716C184.828 84.4844 184.994 84.5972 185.182 84.7046C185.375 84.812 185.617 84.9087 185.913 84.9893C186.213 85.0698 186.525 85.1074 186.853 85.1074C187.664 85.1074 188.297 84.9087 188.754 84.5005C189.216 84.0923 189.441 83.5659 189.441 82.9106C189.441 82.5347 189.366 82.2178 189.21 81.9492C189.06 81.6807 188.856 81.4766 188.609 81.3262C188.362 81.1812 188.093 81.0576 187.798 80.9556C187.502 80.8535 187.207 80.7622 186.906 80.6763C186.611 80.5903 186.337 80.499 186.09 80.3916C185.843 80.2896 185.644 80.1445 185.488 79.9565C185.338 79.7739 185.257 79.5483 185.257 79.2798C185.257 78.9146 185.408 78.603 185.708 78.3452C186.009 78.0874 186.407 77.9585 186.912 77.9585C187.126 77.9585 187.331 77.9907 187.529 78.0444C187.728 78.0981 187.889 78.1626 188.007 78.2324C188.125 78.3022 188.238 78.3828 188.346 78.4688C188.453 78.5547 188.523 78.6191 188.55 78.6514C188.582 78.6836 188.604 78.7104 188.614 78.7319L189.167 78.1787L189.076 78.0713C189.022 78.0068 188.926 77.9263 188.792 77.8296C188.663 77.7329 188.512 77.6416 188.34 77.5449C188.174 77.4482 187.964 77.3677 187.712 77.2979C187.459 77.228 187.191 77.1904 186.912 77.1904C186.17 77.1904 185.574 77.3945 185.118 77.8027C184.667 78.2109 184.436 78.6997 184.436 79.2798C184.436 79.6558 184.516 79.9727 184.667 80.2412C184.822 80.5098 185.021 80.7192 185.268 80.8643C185.515 81.0146 185.784 81.1382 186.079 81.2402C186.38 81.3423 186.675 81.4336 186.971 81.5195C187.271 81.6055 187.54 81.6968 187.787 81.7988C188.034 81.9062 188.233 82.0513 188.383 82.2339C188.539 82.4219 188.62 82.6475 188.62 82.9106ZM174.392 98V97.2319H170.374C170.476 96.9204 170.653 96.6196 170.9 96.335C171.147 96.0557 171.416 95.814 171.706 95.6152C171.996 95.4165 172.302 95.2017 172.625 94.9653C172.947 94.729 173.237 94.5034 173.495 94.2886C173.752 94.0737 173.962 93.8052 174.134 93.4829C174.306 93.166 174.392 92.8223 174.392 92.4517C174.392 91.8071 174.161 91.27 173.704 90.8403C173.242 90.4106 172.646 90.1958 171.916 90.1958C171.545 90.1958 171.212 90.2603 170.911 90.3892C170.61 90.5181 170.379 90.6577 170.224 90.8135C170.062 90.9639 169.928 91.1411 169.81 91.3452C169.692 91.5439 169.622 91.6836 169.595 91.7642C169.568 91.8394 169.552 91.9038 169.547 91.9575L170.267 92.2852L170.299 92.1509C170.326 92.0542 170.374 91.9468 170.449 91.8179C170.524 91.689 170.616 91.5601 170.729 91.4312C170.841 91.3022 171.002 91.1895 171.212 91.0981C171.421 91.0068 171.658 90.9639 171.916 90.9639C172.426 90.9639 172.829 91.0981 173.124 91.3721C173.414 91.6406 173.564 92.0005 173.564 92.4517C173.564 92.7847 173.457 93.1016 173.253 93.4023C173.049 93.6978 172.791 93.9448 172.49 94.1436C172.184 94.3477 171.856 94.5732 171.502 94.8311C171.147 95.0889 170.814 95.3467 170.514 95.6045C170.208 95.8623 169.95 96.1953 169.746 96.6143C169.542 97.0332 169.439 97.4951 169.439 98H174.392ZM176.529 94.1543C176.529 93.1553 176.75 92.3765 177.195 91.8071C177.636 91.2432 178.167 90.9585 178.785 90.9585C179.397 90.9585 179.929 91.2432 180.375 91.8071C180.815 92.3711 181.041 93.1499 181.041 94.1489C181.041 95.1426 180.821 95.9214 180.38 96.4907C179.94 97.0601 179.408 97.3447 178.796 97.3447C178.173 97.3447 177.636 97.0601 177.195 96.4961C176.75 95.9321 176.529 95.1533 176.529 94.1543ZM181.868 94.1543C181.868 92.9619 181.562 92.0059 180.955 91.2808C180.343 90.5557 179.623 90.1958 178.785 90.1958C177.947 90.1958 177.228 90.5557 176.621 91.2808C176.008 92.0059 175.708 92.9619 175.708 94.1543C175.708 95.3413 176.008 96.2974 176.615 97.0225C177.222 97.7476 177.947 98.1128 178.796 98.1128C179.634 98.1128 180.354 97.7476 180.96 97.0225C181.562 96.2974 181.868 95.3413 181.868 94.1543ZM184.006 94.1543C184.006 93.1553 184.226 92.3765 184.672 91.8071C185.112 91.2432 185.644 90.9585 186.262 90.9585C186.874 90.9585 187.406 91.2432 187.852 91.8071C188.292 92.3711 188.518 93.1499 188.518 94.1489C188.518 95.1426 188.297 95.9214 187.857 96.4907C187.417 97.0601 186.885 97.3447 186.272 97.3447C185.649 97.3447 185.112 97.0601 184.672 96.4961C184.226 95.9321 184.006 95.1533 184.006 94.1543ZM189.345 94.1543C189.345 92.9619 189.039 92.0059 188.432 91.2808C187.819 90.5557 187.1 90.1958 186.262 90.1958C185.424 90.1958 184.704 90.5557 184.097 91.2808C183.485 92.0059 183.184 92.9619 183.184 94.1543C183.184 95.3413 183.485 96.2974 184.092 97.0225C184.699 97.7476 185.424 98.1128 186.272 98.1128C187.11 98.1128 187.83 97.7476 188.437 97.0225C189.039 96.2974 189.345 95.3413 189.345 94.1543ZM168.446 103.298V111H169.273V107.922H171.47L173.178 111H174.112L172.297 107.81L172.463 107.756C172.571 107.724 172.7 107.648 172.861 107.541C173.017 107.434 173.172 107.305 173.328 107.149C173.479 106.999 173.613 106.784 173.726 106.51C173.833 106.241 173.892 105.94 173.892 105.607C173.892 104.952 173.667 104.399 173.215 103.958C172.764 103.518 172.2 103.298 171.523 103.298H168.446ZM171.523 104.071C171.991 104.071 172.367 104.211 172.646 104.49C172.925 104.77 173.065 105.14 173.065 105.613C173.065 106.085 172.925 106.456 172.646 106.735C172.367 107.015 171.991 107.154 171.523 107.154H169.273V104.077L171.523 104.071ZM176.696 110.232V107.369H180.268V106.601H176.696V104.071H181.148V103.298H175.869V111H181.261V110.232H176.696ZM182.905 103.298V111H185.327C186.444 111 187.395 110.624 188.174 109.867C188.947 109.115 189.339 108.207 189.339 107.149C189.339 106.096 188.947 105.188 188.174 104.431C187.395 103.679 186.444 103.298 185.327 103.298H182.905ZM185.327 104.071C186.229 104.071 186.987 104.372 187.599 104.968C188.211 105.57 188.518 106.295 188.518 107.154C188.518 108.014 188.211 108.739 187.599 109.335C186.987 109.937 186.229 110.232 185.327 110.232H183.732V104.071H185.327Z" fill="#565F6D"/>
<circle cx="97.5" cy="57.5" r="10.5" fill="#82EE87"/>
<circle cx="94.5" cy="57.5" r="10.5" fill="#94FF98"/>
<circle cx="94.5453" cy="57.5453" r="8.36364" fill="#7FEB83"/>
<circle cx="278.5" cy="380.5" r="10.5" fill="#82EE87"/>
<circle cx="275.5" cy="380.5" r="10.5" fill="#94FF98"/>
<circle cx="275.545" cy="380.545" r="8.36364" fill="#7FEB83"/>
<circle cx="179.5" cy="57.5" r="10.5" fill="#BA1B1B"/>
<circle cx="176.5" cy="57.5" r="10.5" fill="#FF2D2D"/>
<circle cx="176.545" cy="57.6367" r="8" fill="#C43333"/>
<path d="M51.4902 384V383.232H47.4727C47.5747 382.92 47.752 382.62 47.999 382.335C48.2461 382.056 48.5146 381.814 48.8047 381.615C49.0947 381.417 49.4009 381.202 49.7231 380.965C50.0454 380.729 50.3354 380.503 50.5933 380.289C50.8511 380.074 51.0605 379.805 51.2324 379.483C51.4043 379.166 51.4902 378.822 51.4902 378.452C51.4902 377.807 51.2593 377.27 50.8027 376.84C50.3408 376.411 49.7446 376.196 49.0142 376.196C48.6436 376.196 48.3105 376.26 48.0098 376.389C47.709 376.518 47.478 376.658 47.3223 376.813C47.1611 376.964 47.0269 377.141 46.9087 377.345C46.7905 377.544 46.7207 377.684 46.6938 377.764C46.667 377.839 46.6509 377.904 46.6455 377.958L47.3652 378.285L47.3975 378.151C47.4243 378.054 47.4727 377.947 47.5479 377.818C47.623 377.689 47.7144 377.56 47.8271 377.431C47.9399 377.302 48.1011 377.189 48.3105 377.098C48.52 377.007 48.7563 376.964 49.0142 376.964C49.5244 376.964 49.9272 377.098 50.2227 377.372C50.5127 377.641 50.6631 378 50.6631 378.452C50.6631 378.785 50.5557 379.102 50.3516 379.402C50.1475 379.698 49.8896 379.945 49.5889 380.144C49.2827 380.348 48.9551 380.573 48.6006 380.831C48.2461 381.089 47.9131 381.347 47.6123 381.604C47.3062 381.862 47.0483 382.195 46.8442 382.614C46.6401 383.033 46.5381 383.495 46.5381 384H51.4902ZM53.6279 380.154C53.6279 379.155 53.8481 378.376 54.2939 377.807C54.7344 377.243 55.2661 376.958 55.8838 376.958C56.4961 376.958 57.0278 377.243 57.4736 377.807C57.9141 378.371 58.1396 379.15 58.1396 380.149C58.1396 381.143 57.9194 381.921 57.479 382.491C57.0386 383.06 56.5068 383.345 55.8945 383.345C55.2715 383.345 54.7344 383.06 54.2939 382.496C53.8481 381.932 53.6279 381.153 53.6279 380.154ZM58.9668 380.154C58.9668 378.962 58.6606 378.006 58.0537 377.281C57.4414 376.556 56.7217 376.196 55.8838 376.196C55.0459 376.196 54.3262 376.556 53.7192 377.281C53.1069 378.006 52.8062 378.962 52.8062 380.154C52.8062 381.341 53.1069 382.297 53.7139 383.022C54.3208 383.748 55.0459 384.113 55.8945 384.113C56.7324 384.113 57.4521 383.748 58.0591 383.022C58.6606 382.297 58.9668 381.341 58.9668 380.154ZM61.1045 380.154C61.1045 379.155 61.3247 378.376 61.7705 377.807C62.2109 377.243 62.7427 376.958 63.3604 376.958C63.9727 376.958 64.5044 377.243 64.9502 377.807C65.3906 378.371 65.6162 379.15 65.6162 380.149C65.6162 381.143 65.396 381.921 64.9556 382.491C64.5151 383.06 63.9834 383.345 63.3711 383.345C62.748 383.345 62.2109 383.06 61.7705 382.496C61.3247 381.932 61.1045 381.153 61.1045 380.154ZM66.4434 380.154C66.4434 378.962 66.1372 378.006 65.5303 377.281C64.918 376.556 64.1982 376.196 63.3604 376.196C62.5225 376.196 61.8027 376.556 61.1958 377.281C60.5835 378.006 60.2827 378.962 60.2827 380.154C60.2827 381.341 60.5835 382.297 61.1904 383.022C61.7974 383.748 62.5225 384.113 63.3711 384.113C64.209 384.113 64.9287 383.748 65.5356 383.022C66.1372 382.297 66.4434 381.341 66.4434 380.154ZM70.3481 376.298V384H71.1753V380.922H73.3721L75.0801 384H76.0146L74.1992 380.81L74.3657 380.756C74.4731 380.724 74.6021 380.648 74.7632 380.541C74.9189 380.434 75.0747 380.305 75.2305 380.149C75.3809 379.999 75.5151 379.784 75.6279 379.51C75.7354 379.241 75.7944 378.94 75.7944 378.607C75.7944 377.952 75.5688 377.399 75.1177 376.958C74.6665 376.518 74.1025 376.298 73.4258 376.298H70.3481ZM73.4258 377.071C73.8931 377.071 74.269 377.211 74.5483 377.49C74.8276 377.77 74.9673 378.14 74.9673 378.613C74.9673 379.085 74.8276 379.456 74.5483 379.735C74.269 380.015 73.8931 380.154 73.4258 380.154H71.1753V377.077L73.4258 377.071ZM78.5981 383.232V380.369H82.1699V379.601H78.5981V377.071H83.0508V376.298H77.771V384H83.1636V383.232H78.5981ZM84.8071 376.298V384H87.2295C88.3467 384 89.2974 383.624 90.0762 382.867C90.8496 382.115 91.2417 381.207 91.2417 380.149C91.2417 379.096 90.8496 378.188 90.0762 377.431C89.2974 376.679 88.3467 376.298 87.2295 376.298H84.8071ZM87.2295 377.071C88.1318 377.071 88.8892 377.372 89.5015 377.968C90.1138 378.57 90.4199 379.295 90.4199 380.154C90.4199 381.014 90.1138 381.739 89.5015 382.335C88.8892 382.937 88.1318 383.232 87.2295 383.232H85.6343V377.071H87.2295Z" fill="#565F6D"/>
<path d="M201.731 376.298L201.688 376.411C201.656 376.475 201.603 376.561 201.527 376.658C201.452 376.76 201.355 376.862 201.237 376.958C201.119 377.055 200.958 377.146 200.759 377.222C200.555 377.297 200.33 377.34 200.083 377.345V377.839H201.511V384H202.338V376.298H201.731ZM204.97 380.154C204.97 379.155 205.19 378.376 205.636 377.807C206.077 377.243 206.608 376.958 207.226 376.958C207.838 376.958 208.37 377.243 208.816 377.807C209.256 378.371 209.482 379.15 209.482 380.149C209.482 381.143 209.262 381.921 208.821 382.491C208.381 383.06 207.849 383.345 207.237 383.345C206.614 383.345 206.077 383.06 205.636 382.496C205.19 381.932 204.97 381.153 204.97 380.154ZM210.309 380.154C210.309 378.962 210.003 378.006 209.396 377.281C208.784 376.556 208.064 376.196 207.226 376.196C206.388 376.196 205.668 376.556 205.062 377.281C204.449 378.006 204.148 378.962 204.148 380.154C204.148 381.341 204.449 382.297 205.056 383.022C205.663 383.748 206.388 384.113 207.237 384.113C208.075 384.113 208.794 383.748 209.401 383.022C210.003 382.297 210.309 381.341 210.309 380.154ZM212.447 380.154C212.447 379.155 212.667 378.376 213.113 377.807C213.553 377.243 214.085 376.958 214.703 376.958C215.315 376.958 215.847 377.243 216.292 377.807C216.733 378.371 216.958 379.15 216.958 380.149C216.958 381.143 216.738 381.921 216.298 382.491C215.857 383.06 215.326 383.345 214.713 383.345C214.09 383.345 213.553 383.06 213.113 382.496C212.667 381.932 212.447 381.153 212.447 380.154ZM217.786 380.154C217.786 378.962 217.479 378.006 216.873 377.281C216.26 376.556 215.541 376.196 214.703 376.196C213.865 376.196 213.145 376.556 212.538 377.281C211.926 378.006 211.625 378.962 211.625 380.154C211.625 381.341 211.926 382.297 212.533 383.022C213.14 383.748 213.865 384.113 214.713 384.113C215.551 384.113 216.271 383.748 216.878 383.022C217.479 382.297 217.786 381.341 217.786 380.154ZM221.196 380.149C221.196 381.25 221.578 382.185 222.351 382.953C223.119 383.726 224.054 384.107 225.155 384.107C225.542 384.107 225.923 384.054 226.293 383.941C226.664 383.828 226.965 383.699 227.201 383.554C227.438 383.415 227.658 383.248 227.862 383.065C228.066 382.883 228.195 382.759 228.259 382.689C228.324 382.62 228.367 382.561 228.399 382.518V380.042H225.815V380.81H227.577V382.297L227.486 382.405C227.427 382.48 227.33 382.571 227.196 382.668C227.056 382.765 226.9 382.867 226.723 382.969C226.541 383.071 226.315 383.157 226.036 383.232C225.756 383.307 225.461 383.339 225.155 383.339C224.274 383.339 223.527 383.033 222.926 382.421C222.319 381.809 222.018 381.051 222.018 380.149C222.018 379.247 222.319 378.489 222.926 377.877C223.527 377.265 224.274 376.958 225.155 376.958C225.482 376.958 225.799 377.007 226.1 377.104C226.401 377.2 226.643 377.308 226.825 377.426C227.008 377.544 227.18 377.673 227.341 377.823C227.497 377.974 227.599 378.081 227.642 378.14C227.685 378.199 227.717 378.248 227.738 378.28L228.292 377.786L228.168 377.619C228.087 377.512 227.958 377.377 227.781 377.216C227.604 377.061 227.4 376.905 227.164 376.749C226.927 376.599 226.632 376.464 226.272 376.357C225.917 376.25 225.542 376.19 225.149 376.19C224.054 376.19 223.119 376.577 222.346 377.345C221.578 378.119 221.196 379.053 221.196 380.149ZM230.435 376.298V384H231.262V380.922H233.458L235.167 384H236.101L234.286 380.81L234.452 380.756C234.56 380.724 234.688 380.648 234.85 380.541C235.005 380.434 235.161 380.305 235.317 380.149C235.467 379.999 235.602 379.784 235.714 379.51C235.822 379.241 235.881 378.94 235.881 378.607C235.881 377.952 235.655 377.399 235.204 376.958C234.753 376.518 234.189 376.298 233.512 376.298H230.435ZM233.512 377.071C233.979 377.071 234.355 377.211 234.635 377.49C234.914 377.77 235.054 378.14 235.054 378.613C235.054 379.085 234.914 379.456 234.635 379.735C234.355 380.015 233.979 380.154 233.512 380.154H231.262V377.077L233.512 377.071ZM238.685 383.232V380.369H242.256V379.601H238.685V377.071H243.137V376.298H237.857V384H243.25V383.232H238.685ZM245.721 383.232V380.369H249.292V379.601H245.721V377.071H250.173V376.298H244.894V384H250.286V383.232H245.721ZM257.376 376.298V382.518L252.644 376.298H251.93V384H252.757V377.786L257.483 384H258.198V376.298H257.376Z" fill="#565F6D"/>
<circle cx="27.5" cy="380.5" r="10.5" fill="#BA1B1B"/>
<circle cx="24.5" cy="380.5" r="10.5" fill="#FF2D2D"/>
<circle cx="24.5454" cy="380.637" r="8" fill="#C43333"/>
<path fill-rule="evenodd" clip-rule="evenodd" d="M63.1935 70.3379L64.2731 71.4569L71.0266 78.4569L68.8677 80.5399L64.6408 76.1588V90.9984C64.6408 100.94 56.8657 108.998 47.2746 108.998H41.4859H29.9084C14.989 108.998 2.89437 121.534 2.89437 136.998V329.998C2.89437 345.462 14.989 357.998 29.9084 357.998H80.0774C90.4691 357.998 99.4903 351.917 104.009 343H107.236C102.493 353.626 92.1159 360.998 80.0774 360.998H29.9084C13.3905 360.998 0 347.119 0 329.998V136.998C0 120.549 12.3601 107.093 27.9789 106.062V105.998H29.9084H41.4859H47.2746C55.2672 105.998 61.7465 99.2826 61.7465 90.9984V76.1593L57.0373 81.0412L54.8781 78.9585L62.114 71.457L63.1935 70.3379Z" fill="url(#paint4_linear)"/>
<path fill-rule="evenodd" clip-rule="evenodd" d="M233.043 70.3379L231.963 71.4569L225.21 78.4569L227.369 80.5399L231.596 76.1588V90.9984C231.596 100.94 239.371 108.998 248.962 108.998H254.75H266.328C281.247 108.998 293.342 121.534 293.342 136.998V329.998C293.342 345.462 281.247 357.998 266.328 357.998H216.159C205.767 357.998 196.746 351.917 192.228 343H189C193.743 353.626 204.12 360.998 216.159 360.998H266.328C282.846 360.998 296.236 347.119 296.236 329.998V136.998C296.236 120.549 283.876 107.093 268.257 106.062V105.998H266.328H254.75H248.962C240.969 105.998 234.49 99.2826 234.49 90.9984V76.1593L239.199 81.0412L241.358 78.9585L234.122 71.457L233.043 70.3379Z" fill="url(#paint5_linear)"/>
<defs>
<filter id="filter0_d" x="10" y="243" width="273" height="116" filterUnits="userSpaceOnUse" color-interpolation-filters="sRGB">
<feFlood flood-opacity="0" result="BackgroundImageFix"/>
<feColorMatrix in="SourceAlpha" type="matrix" values="0 0 0 0 0 0 0 0 0 0 0 0 0 0 0 0 0 0 127 0"/>
<feOffset dy="8"/>
<feGaussianBlur stdDeviation="11"/>
<feColorMatrix type="matrix" values="0 0 0 0 0.652167 0 0 0 0 0.69371 0 0 0 0 0.758333 0 0 0 0.62 0"/>
<feBlend mode="normal" in2="BackgroundImageFix" result="effect1_dropShadow"/>
<feBlend mode="normal" in="SourceGraphic" in2="effect1_dropShadow" result="shape"/>
</filter>
<filter id="filter1_d" x="10" y="161" width="273" height="116" filterUnits="userSpaceOnUse" color-interpolation-filters="sRGB">
<feFlood flood-opacity="0" result="BackgroundImageFix"/>
<feColorMatrix in="SourceAlpha" type="matrix" values="0 0 0 0 0 0 0 0 0 0 0 0 0 0 0 0 0 0 127 0"/>
<feOffset dy="8"/>
<feGaussianBlur stdDeviation="11"/>
<feColorMatrix type="matrix" values="0 0 0 0 0.652167 0 0 0 0 0.69371 0 0 0 0 0.758333 0 0 0 0.62 0"/>
<feBlend mode="normal" in2="BackgroundImageFix" result="effect1_dropShadow"/>
<feBlend mode="normal" in="SourceGraphic" in2="effect1_dropShadow" result="shape"/>
</filter>
<linearGradient id="paint0_linear" x1="69" y1="53" x2="69" y2="128" gradientUnits="userSpaceOnUse">
<stop stop-color="#CFDFFA"/>
<stop offset="1" stop-color="#3B4452"/>
</linearGradient>
<linearGradient id="paint1_linear" x1="208" y1="53" x2="208" y2="128" gradientUnits="userSpaceOnUse">
<stop stop-color="#CFDFFA"/>
<stop offset="1" stop-color="#3B4452"/>
</linearGradient>
<linearGradient id="paint2_linear" x1="39.9808" y1="13.2253" x2="55.4446" y2="52.9606" gradientUnits="userSpaceOnUse">
<stop offset="0.0112" stop-color="#F8F8F8"/>
<stop offset="0.7774" stop-color="#CCDDFB"/>
<stop offset="1" stop-color="#C7D3FF"/>
</linearGradient>
<linearGradient id="paint3_linear" x1="242.77" y1="13.2253" x2="227.306" y2="52.9606" gradientUnits="userSpaceOnUse">
<stop offset="0.0112" stop-color="#F8F8F8"/>
<stop offset="0.7774" stop-color="#CCDDFB"/>
<stop offset="1" stop-color="#C7D3FF"/>
</linearGradient>
<linearGradient id="paint4_linear" x1="54.7994" y1="70.3379" x2="54.7994" y2="360.998" gradientUnits="userSpaceOnUse">
<stop stop-color="#3B4352"/>
<stop offset="0.529167" stop-color="#4F84D7"/>
<stop offset="0.966667" stop-color="#CFD9E9"/>
</linearGradient>
<linearGradient id="paint5_linear" x1="241.437" y1="70.3379" x2="241.437" y2="360.998" gradientUnits="userSpaceOnUse">
<stop stop-color="#3B4352"/>
<stop offset="0.529167" stop-color="#4F84D7"/>
<stop offset="0.966667" stop-color="#CFD9E9"/>
</linearGradient>
<clipPath id="clip0">
<rect width="52.0989" height="52.0989" fill="white" transform="translate(18.4272 7.21387)"/>
</clipPath>
<clipPath id="clip1">
<rect width="52.0989" height="52.0989" fill="white" transform="translate(203.427 7.21387)"/>
</clipPath>
<clipPath id="clip2">
<rect width="35" height="34" fill="white" transform="translate(129 194)"/>
</clipPath>
</defs>
</svg>
