<?xml version="1.0" encoding="UTF-8" standalone="no"?>
<svg
   xmlns:dc="http://purl.org/dc/elements/1.1/"
   xmlns:cc="http://creativecommons.org/ns#"
   xmlns:rdf="http://www.w3.org/1999/02/22-rdf-syntax-ns#"
   xmlns:svg="http://www.w3.org/2000/svg"
   xmlns="http://www.w3.org/2000/svg"
   xmlns:sodipodi="http://sodipodi.sourceforge.net/DTD/sodipodi-0.dtd"
   xmlns:inkscape="http://www.inkscape.org/namespaces/inkscape"
   width="939"
   height="261"
   viewBox="0 0 939 261"
   fill="none"
   version="1.1"
   id="svg283"
   sodipodi:docname="schema-2.svg"
   inkscape:version="0.92.4 (unknown)">
  <metadata
     id="metadata287">
    <rdf:RDF>
      <cc:Work
         rdf:about="">
        <dc:format>image/svg+xml</dc:format>
        <dc:type
           rdf:resource="http://purl.org/dc/dcmitype/StillImage" />
      </cc:Work>
    </rdf:RDF>
  </metadata>
  <sodipodi:namedview
     pagecolor="#ffffff"
     bordercolor="#666666"
     borderopacity="1"
     objecttolerance="10"
     gridtolerance="10"
     guidetolerance="10"
     inkscape:pageopacity="0"
     inkscape:pageshadow="2"
     inkscape:window-width="1920"
     inkscape:window-height="1052"
     id="namedview285"
     showgrid="false"
     inkscape:zoom="1.7806177"
     inkscape:cx="765.03178"
     inkscape:cy="55.439955"
     inkscape:window-x="0"
     inkscape:window-y="0"
     inkscape:window-maximized="1"
     inkscape:current-layer="svg283" />
  <path
     d="M147.839 77.9106C147.839 78.3403 147.684 78.6841 147.383 78.9473C147.077 79.2104 146.642 79.3394 146.078 79.3394C145.814 79.3394 145.562 79.3071 145.315 79.2373C145.068 79.1675 144.869 79.0923 144.724 79.0117C144.579 78.9312 144.445 78.8345 144.321 78.7271C144.192 78.6196 144.112 78.5391 144.074 78.4961C144.037 78.4531 144.01 78.4209 143.999 78.3994L143.494 78.958L143.596 79.0815C143.65 79.1567 143.752 79.2534 143.902 79.3716C144.047 79.4844 144.214 79.5972 144.402 79.7046C144.595 79.812 144.837 79.9087 145.132 79.9893C145.433 80.0698 145.745 80.1074 146.072 80.1074C146.883 80.1074 147.517 79.9087 147.974 79.5005C148.436 79.0923 148.661 78.5659 148.661 77.9106C148.661 77.5347 148.586 77.2178 148.43 76.9492C148.28 76.6807 148.076 76.4766 147.829 76.3262C147.582 76.1812 147.313 76.0576 147.018 75.9556C146.722 75.8535 146.427 75.7622 146.126 75.6763C145.831 75.5903 145.557 75.499 145.31 75.3916C145.062 75.2896 144.864 75.1445 144.708 74.9565C144.558 74.7739 144.477 74.5483 144.477 74.2798C144.477 73.9146 144.627 73.603 144.928 73.3452C145.229 73.0874 145.626 72.9585 146.131 72.9585C146.346 72.9585 146.55 72.9907 146.749 73.0444C146.948 73.0981 147.109 73.1626 147.227 73.2324C147.345 73.3022 147.458 73.3828 147.565 73.4688C147.673 73.5547 147.743 73.6191 147.77 73.6514C147.802 73.6836 147.823 73.7104 147.834 73.7319L148.387 73.1787L148.296 73.0713C148.242 73.0068 148.146 72.9263 148.011 72.8296C147.882 72.7329 147.732 72.6416 147.56 72.5449C147.394 72.4482 147.184 72.3677 146.932 72.2979C146.679 72.228 146.411 72.1904 146.131 72.1904C145.39 72.1904 144.794 72.3945 144.337 72.8027C143.886 73.2109 143.655 73.6997 143.655 74.2798C143.655 74.6558 143.736 74.9727 143.886 75.2412C144.042 75.5098 144.241 75.7192 144.488 75.8643C144.735 76.0146 145.003 76.1382 145.299 76.2402C145.6 76.3423 145.895 76.4336 146.19 76.5195C146.491 76.6055 146.76 76.6968 147.007 76.7988C147.254 76.9062 147.453 77.0513 147.603 77.2339C147.759 77.4219 147.839 77.6475 147.839 77.9106ZM151.202 79.2319V76.3691H154.773V75.6011H151.202V73.0713H155.654V72.2979H150.375V80H155.767V79.2319H151.202ZM162.857 72.2979V78.5176L158.125 72.2979H157.411V80H158.238V73.7856L162.964 80H163.679V72.2979H162.857ZM165.994 72.2979V80H168.416C169.533 80 170.484 79.624 171.263 78.8667C172.036 78.1147 172.428 77.207 172.428 76.1489C172.428 75.0962 172.036 74.1885 171.263 73.4312C170.484 72.6792 169.533 72.2979 168.416 72.2979H165.994ZM168.416 73.0713C169.318 73.0713 170.076 73.3721 170.688 73.9683C171.3 74.5698 171.606 75.2949 171.606 76.1543C171.606 77.0137 171.3 77.7388 170.688 78.335C170.076 78.9365 169.318 79.2319 168.416 79.2319H166.821V73.0713H168.416ZM177.928 77.9106C177.928 78.3403 177.772 78.6841 177.472 78.9473C177.166 79.2104 176.73 79.3394 176.167 79.3394C175.903 79.3394 175.651 79.3071 175.404 79.2373C175.157 79.1675 174.958 79.0923 174.813 79.0117C174.668 78.9312 174.534 78.8345 174.41 78.7271C174.281 78.6196 174.201 78.5391 174.163 78.4961C174.125 78.4531 174.099 78.4209 174.088 78.3994L173.583 78.958L173.685 79.0815C173.739 79.1567 173.841 79.2534 173.991 79.3716C174.136 79.4844 174.303 79.5972 174.491 79.7046C174.684 79.812 174.926 79.9087 175.221 79.9893C175.522 80.0698 175.833 80.1074 176.161 80.1074C176.972 80.1074 177.606 79.9087 178.062 79.5005C178.524 79.0923 178.75 78.5659 178.75 77.9106C178.75 77.5347 178.675 77.2178 178.519 76.9492C178.369 76.6807 178.165 76.4766 177.917 76.3262C177.67 76.1812 177.402 76.0576 177.106 75.9556C176.811 75.8535 176.516 75.7622 176.215 75.6763C175.919 75.5903 175.646 75.499 175.398 75.3916C175.151 75.2896 174.953 75.1445 174.797 74.9565C174.646 74.7739 174.566 74.5483 174.566 74.2798C174.566 73.9146 174.716 73.603 175.017 73.3452C175.318 73.0874 175.715 72.9585 176.22 72.9585C176.435 72.9585 176.639 72.9907 176.838 73.0444C177.037 73.0981 177.198 73.1626 177.316 73.2324C177.434 73.3022 177.547 73.3828 177.654 73.4688C177.762 73.5547 177.832 73.6191 177.858 73.6514C177.891 73.6836 177.912 73.7104 177.923 73.7319L178.476 73.1787L178.385 73.0713C178.331 73.0068 178.234 72.9263 178.1 72.8296C177.971 72.7329 177.821 72.6416 177.649 72.5449C177.482 72.4482 177.273 72.3677 177.021 72.2979C176.768 72.228 176.5 72.1904 176.22 72.1904C175.479 72.1904 174.883 72.3945 174.426 72.8027C173.975 73.2109 173.744 73.6997 173.744 74.2798C173.744 74.6558 173.825 74.9727 173.975 75.2412C174.131 75.5098 174.33 75.7192 174.577 75.8643C174.824 76.0146 175.092 76.1382 175.388 76.2402C175.688 76.3423 175.984 76.4336 176.279 76.5195C176.58 76.6055 176.849 76.6968 177.096 76.7988C177.343 76.9062 177.542 77.0513 177.692 77.2339C177.848 77.4219 177.928 77.6475 177.928 77.9106ZM183.493 72.2979L183.45 72.4106C183.417 72.4751 183.364 72.561 183.289 72.6577C183.213 72.7598 183.117 72.8618 182.999 72.9585C182.88 73.0552 182.719 73.1465 182.521 73.2217C182.316 73.2969 182.091 73.3398 181.844 73.3452V73.8394H183.272V80H184.1V72.2979H183.493ZM186.731 76.1543C186.731 75.1553 186.952 74.3765 187.397 73.8071C187.838 73.2432 188.37 72.9585 188.987 72.9585C189.6 72.9585 190.131 73.2432 190.577 73.8071C191.018 74.3711 191.243 75.1499 191.243 76.1489C191.243 77.1426 191.023 77.9214 190.583 78.4907C190.142 79.0601 189.61 79.3447 188.998 79.3447C188.375 79.3447 187.838 79.0601 187.397 78.4961C186.952 77.9321 186.731 77.1533 186.731 76.1543ZM192.07 76.1543C192.07 74.9619 191.764 74.0059 191.157 73.2808C190.545 72.5557 189.825 72.1958 188.987 72.1958C188.149 72.1958 187.43 72.5557 186.823 73.2808C186.21 74.0059 185.91 74.9619 185.91 76.1543C185.91 77.3413 186.21 78.2974 186.817 79.0225C187.424 79.7476 188.149 80.1128 188.998 80.1128C189.836 80.1128 190.556 79.7476 191.163 79.0225C191.764 78.2974 192.07 77.3413 192.07 76.1543ZM194.208 76.1543C194.208 75.1553 194.428 74.3765 194.874 73.8071C195.314 73.2432 195.846 72.9585 196.464 72.9585C197.076 72.9585 197.608 73.2432 198.054 73.8071C198.494 74.3711 198.72 75.1499 198.72 76.1489C198.72 77.1426 198.5 77.9214 198.059 78.4907C197.619 79.0601 197.087 79.3447 196.475 79.3447C195.852 79.3447 195.314 79.0601 194.874 78.4961C194.428 77.9321 194.208 77.1533 194.208 76.1543ZM199.547 76.1543C199.547 74.9619 199.241 74.0059 198.634 73.2808C198.021 72.5557 197.302 72.1958 196.464 72.1958C195.626 72.1958 194.906 72.5557 194.299 73.2808C193.687 74.0059 193.386 74.9619 193.386 76.1543C193.386 77.3413 193.687 78.2974 194.294 79.0225C194.901 79.7476 195.626 80.1128 196.475 80.1128C197.312 80.1128 198.032 79.7476 198.639 79.0225C199.241 78.2974 199.547 77.3413 199.547 76.1543ZM202.958 76.1489C202.958 77.25 203.339 78.1846 204.112 78.9526C204.88 79.7261 205.815 80.1074 206.916 80.1074C207.303 80.1074 207.684 80.0537 208.055 79.9409C208.425 79.8281 208.726 79.6992 208.962 79.5542C209.199 79.4146 209.419 79.248 209.623 79.0654C209.827 78.8828 209.956 78.7593 210.021 78.6895C210.085 78.6196 210.128 78.5605 210.16 78.5176V76.0415H207.577V76.8096H209.338V78.2974L209.247 78.4048C209.188 78.48 209.091 78.5713 208.957 78.668C208.817 78.7646 208.662 78.8667 208.484 78.9688C208.302 79.0708 208.076 79.1567 207.797 79.2319C207.518 79.3071 207.222 79.3394 206.916 79.3394C206.035 79.3394 205.289 79.0332 204.687 78.4209C204.08 77.8086 203.779 77.0513 203.779 76.1489C203.779 75.2466 204.08 74.4893 204.687 73.877C205.289 73.2646 206.035 72.9585 206.916 72.9585C207.244 72.9585 207.561 73.0068 207.861 73.1035C208.162 73.2002 208.404 73.3076 208.586 73.4258C208.769 73.5439 208.941 73.6729 209.102 73.8232C209.258 73.9736 209.36 74.0811 209.403 74.1401C209.446 74.1992 209.478 74.2476 209.5 74.2798L210.053 73.7856L209.929 73.6191C209.849 73.5117 209.72 73.3774 209.542 73.2163C209.365 73.0605 209.161 72.9048 208.925 72.749C208.688 72.5986 208.393 72.4644 208.033 72.3569C207.679 72.2495 207.303 72.1904 206.911 72.1904C205.815 72.1904 204.88 72.5771 204.107 73.3452C203.339 74.1187 202.958 75.0532 202.958 76.1489ZM212.196 72.2979V80H213.023V76.9224H215.22L216.928 80H217.862L216.047 76.8096L216.213 76.7559C216.321 76.7236 216.45 76.6484 216.611 76.541C216.767 76.4336 216.922 76.3047 217.078 76.1489C217.229 75.9985 217.363 75.7837 217.476 75.5098C217.583 75.2412 217.642 74.9404 217.642 74.6074C217.642 73.9521 217.417 73.3989 216.965 72.9585C216.514 72.5181 215.95 72.2979 215.273 72.2979H212.196ZM215.273 73.0713C215.741 73.0713 216.117 73.2109 216.396 73.4902C216.675 73.7695 216.815 74.1401 216.815 74.6128C216.815 75.0854 216.675 75.4561 216.396 75.7354C216.117 76.0146 215.741 76.1543 215.273 76.1543H213.023V73.0767L215.273 73.0713ZM220.446 79.2319V76.3691H224.018V75.6011H220.446V73.0713H224.898V72.2979H219.619V80H225.011V79.2319H220.446ZM227.482 79.2319V76.3691H231.054V75.6011H227.482V73.0713H231.935V72.2979H226.655V80H232.047V79.2319H227.482ZM239.137 72.2979V78.5176L234.405 72.2979H233.691V80H234.518V73.7856L239.245 80H239.959V72.2979H239.137Z"
     fill="#565F6D"
     id="path2" />
  <path
     d="m 93,89 h 187.36678 m 4.62251,0.07519 L 276.5,80.5 m 8.48929,8.575189 L 276.5,97.5"
     id="path4"
     inkscape:connector-curvature="0"
     style="stroke:url(#paint0_linear);stroke-width:5;stroke-linecap:square"
     sodipodi:nodetypes="cccccc" />
  <path
     d="M13.1531 120.876C19.5702 130.914 34.0253 134.846 44.331 128.333C56.4458 120.676 47.6662 101.606 58.6461 95.1036C64.4585 91.6615 75.3212 98.1078 81.8829 98.1326C93.9744 98.1785 102.889 87.8985 103.245 76.0223C103.608 63.9064 96.3169 49.2543 82.9577 48.6146C67.0444 47.8527 61.8247 63.0504 49.8651 69.4732C37.5922 76.0644 21.1978 69.4297 12.6561 83.1093C6.34543 93.2157 6.79879 110.936 13.1531 120.876V120.876Z"
     fill="url(#paint1_linear)"
     id="path6" />
  <path
     d="M62.399 73.4707H61.3174V79.9608H62.399C64.1913 79.9608 65.6441 78.5081 65.6441 76.7157C65.6441 74.9234 64.1902 73.4707 62.399 73.4707Z"
     fill="#FEDAC6"
     id="path8" />
  <path
     d="M35.3564 76.7157C35.3564 78.5081 36.8092 79.9608 38.6015 79.9608H39.6831V73.4707H38.6015C36.8092 73.4706 35.3564 74.9233 35.3564 76.7157Z"
     fill="#F5C4B0"
     id="path10" />
  <path
     d="M62.3991 73.4707L63.6754 66.9049C64.094 64.4127 62.412 62.0535 59.9198 61.6349C59.6666 61.5928 59.4103 61.5722 59.154 61.5722C58.5072 59.6359 56.6953 58.3294 54.6542 58.3272H41.8469L39.6835 55.082L38.6019 56.1637C35.6153 59.1502 35.6143 63.9918 38.5997 66.9784C38.6009 66.9795 38.6009 66.9805 38.6019 66.9805H58.0723L62.3991 73.4707Z"
     fill="#F8DB14"
     id="path12" />
  <path
     d="M65.7082 98.4254L57.866 97.3438L50.4997 101.595L43.1334 97.387L35.2911 98.4687C31.0098 99.0409 27.8059 102.683 27.7842 107.003V118.902H73.2152V107.003C73.2152 102.668 70.0058 98.9998 65.7082 98.4254Z"
     fill="#CFD9E9"
     id="path14" />
  <path
     d="M57.8664 97.3871L56.9901 97.268V89.6963H44.01V97.268L43.1338 97.3871L50.5001 101.595L57.8664 97.3871Z"
     fill="#FEDAC6"
     id="path16" />
  <path
     d="M44.0101 105.921L50.5001 101.594L44.0101 97.2676H41.8467L44.0101 105.921Z"
     fill="#EAEAEA"
     id="path18" />
  <path
     d="M50.5 101.594L56.9901 105.921L59.1535 97.2676H56.9901L50.5 101.594Z"
     fill="#EAEAEA"
     id="path20" />
  <path
     d="M47.2549 118.902L48.3365 107.003L47.2549 103.758L50.4999 101.595L53.745 103.758L52.6633 107.003L53.745 118.902"
     fill="#8399FE"
     id="path22" />
  <path
     d="M56.9899 95.6888V89.6963H44.0098V95.6888C48.8773 97.798 52.1224 97.798 56.9899 95.6888Z"
     fill="#F5C4B0"
     id="path24" />
  <path
     d="M27.7842 107.003V118.901H32.111V99.5176C29.436 101.062 27.7863 103.915 27.7842 107.003Z"
     fill="#BFBFBF"
     id="path26" />
  <path
     d="M62.3988 73.4707V79.6363C62.3977 82.6877 61.62 85.6872 60.1381 88.3547C58.1931 91.8541 54.5035 94.0238 50.5002 94.0228C46.4969 94.0239 42.8072 91.8541 40.8623 88.3547C39.3804 85.6873 38.6027 82.6878 38.6016 79.6363V66.9805H58.0719L62.3988 73.4707Z"
     fill="#FEDAC6"
     id="path28" />
  <path
     d="M42.9284 66.9805H38.6016V79.6362C38.6027 82.6877 39.3804 85.6872 40.8623 88.3547C41.944 90.291 43.5893 91.8529 45.5785 92.833C41.8467 82.1241 42.9284 66.9805 42.9284 66.9805Z"
     fill="#F5C4B0"
     id="path30" />
  <path
     d="M36.5898 59.7549C35.9473 62.3498 36.711 65.0908 38.6018 66.9805H55.9089C43.6207 66.9805 38.6017 62.6537 36.5898 59.7549Z"
     fill="#F4B008"
     id="path32" />
  <path
     d="M62.399 81.0423H61.3174V78.8789H62.399C63.5921 78.8789 64.5624 77.9086 64.5624 76.7155C64.5624 75.5224 63.5921 74.5521 62.399 74.5521H61.3174V72.3887H62.399C64.7852 72.3887 66.7258 74.3293 66.7258 76.7155C66.7258 79.1017 64.7852 81.0423 62.399 81.0423Z"
     fill="#565F6D"
     id="path34" />
  <path
     d="M39.6828 81.0423H38.6012C36.215 81.0423 34.2744 79.1017 34.2744 76.7155C34.2744 74.3293 36.215 72.3887 38.6012 72.3887H39.6828V74.5521H38.6012C37.4081 74.5521 36.4378 75.5224 36.4378 76.7155C36.4378 77.9086 37.4081 78.8789 38.6012 78.8789H39.6828V81.0423Z"
     fill="#565F6D"
     id="path36" />
  <path
     d="M51.5814 83.2058H48.3364C47.9968 83.2058 47.6776 83.0467 47.4732 82.7753C47.2689 82.5038 47.2028 82.1534 47.2969 81.8267L49.4603 74.2549L51.5404 74.8498L49.7697 81.0424H51.5804V83.2058H51.5814Z"
     fill="#565F6D"
     id="path38" />
  <path
     d="M50.502 95.1039C50.4998 95.1039 50.4977 95.1039 50.4955 95.1039C46.1038 95.1039 42.0497 92.7198 39.9155 88.8788C38.3482 86.0588 37.5196 82.8624 37.5186 79.6369V66.9801C37.5186 66.383 38.0031 65.8984 38.6002 65.8984H58.0705C58.4318 65.8984 58.7693 66.0791 58.9705 66.3798L63.2973 72.8699C63.4152 73.0473 63.479 73.2561 63.479 73.4703V79.6359C63.4778 82.8615 62.6482 86.0579 61.082 88.8789C58.9489 92.7187 54.8947 95.1039 50.502 95.1039ZM50.4987 92.9405C50.4997 92.9405 50.5009 92.9405 50.5009 92.9405C54.1094 92.9405 57.4388 90.9816 59.1911 87.8285C60.58 85.3276 61.3145 82.4947 61.3156 79.6347V73.7968L57.4917 68.0617H39.6828V79.6357C39.684 82.4957 40.4184 85.3287 41.8073 87.8285C43.5596 90.9828 46.8891 92.9405 50.4964 92.9405C50.4977 92.9405 50.4987 92.9405 50.4987 92.9405Z"
     fill="#565F6D"
     id="path40" />
  <path
     d="M49.6025 87.5324H48.3369V85.369H49.6025C51.2867 85.3679 52.8703 84.7124 54.0623 83.5215L55.5919 85.052C53.9909 86.6509 51.8643 87.5313 49.6025 87.5324Z"
     fill="#565F6D"
     id="path42" />
  <path
     d="M44.014 77.7975C45.2088 77.7975 46.1774 76.8289 46.1774 75.6341C46.1774 74.4393 45.2088 73.4707 44.014 73.4707C42.8192 73.4707 41.8506 74.4393 41.8506 75.6341C41.8506 76.8289 42.8192 77.7975 44.014 77.7975Z"
     fill="#565F6D"
     id="path44" />
  <path
     d="M56.9945 77.7975C58.1893 77.7975 59.1579 76.8289 59.1579 75.6341C59.1579 74.4393 58.1893 73.4707 56.9945 73.4707C55.7996 73.4707 54.8311 74.4393 54.8311 75.6341C54.8311 76.8289 55.7996 77.7975 56.9945 77.7975Z"
     fill="#565F6D"
     id="path46" />
  <path
     d="M63.4648 74.7306L61.3306 74.3747L62.6069 66.7272C62.7616 65.8057 62.5485 64.8797 62.0066 64.1204C61.4646 63.3611 60.6599 62.8569 59.7393 62.7023C59.5467 62.6698 59.3283 62.6461 59.1541 62.6547C59.1529 62.6547 59.1529 62.6547 59.1519 62.6547C58.6868 62.6547 58.2725 62.3572 58.1265 61.916C57.6257 60.4178 56.2292 59.4108 54.6511 59.4086H41.8461C41.4848 59.4086 41.1474 59.228 40.9462 58.9272L39.514 56.7801L39.3647 56.9282C38.1251 58.1678 37.4415 59.8174 37.4415 61.5709C37.4415 63.3254 38.124 64.9739 39.3637 66.2136L37.8353 67.7452C34.4312 64.3401 34.4312 58.8018 37.8353 55.3988L38.9169 54.3172C39.1462 54.0889 39.4664 53.9721 39.7887 54.0057C40.1111 54.037 40.402 54.2122 40.5815 54.4816L42.4248 57.2454H54.6532C56.9129 57.2475 58.9367 58.5445 59.8994 60.538C59.9664 60.5466 60.0313 60.5564 60.0985 60.5672C61.5902 60.817 62.8936 61.6327 63.7708 62.8637C64.6481 64.0946 64.9931 65.5928 64.7421 67.0833L63.4648 74.7306Z"
     fill="#565F6D"
     id="path48" />
  <path
     d="M28.8665 118.902H26.7031V107.003C26.7031 102.146 30.3332 97.998 35.1489 97.3532L42.9284 96.3202V91.8594H45.0918V97.2678C45.0918 97.8098 44.6905 98.2683 44.1529 98.3398L35.4345 99.4972C31.6908 99.9981 28.8665 103.224 28.8665 107.002V118.902V118.902Z"
     fill="#565F6D"
     id="path50" />
  <path
     d="M74.2969 118.902H72.1335V107.003C72.1335 103.225 69.3103 99.998 65.5645 99.4982L56.8471 98.3408C56.3095 98.2694 55.9082 97.8107 55.9082 97.2688V91.8604H58.0716V96.3212L65.85 97.3542C70.6657 97.9979 74.2969 102.147 74.2969 107.004V118.902Z"
     fill="#565F6D"
     id="path52" />
  <path
     d="M37.5238 110.248H35.3604V118.902H37.5238V110.248Z"
     fill="#565F6D"
     id="path54" />
  <path
     d="M65.6478 110.248H63.4844V118.902H65.6478V110.248Z"
     fill="#565F6D"
     id="path56" />
  <path
     d="M44.0095 107.003C43.8776 107.003 43.7456 106.979 43.619 106.93C43.2912 106.804 43.0457 106.525 42.9603 106.184L40.7969 97.5304L42.8954 97.0068L44.6867 104.171L49.8994 100.695L51.0989 102.495L44.6089 106.822C44.4291 106.942 44.2193 107.003 44.0095 107.003Z"
     fill="#565F6D"
     id="path58" />
  <path
     d="M50.4999 102.676C50.315 102.676 50.13 102.629 49.9634 102.534L42.3916 98.2069L43.4646 96.3291L50.4999 100.35L57.5353 96.3291L58.6083 98.2069L51.0364 102.534C50.8699 102.629 50.6849 102.676 50.4999 102.676Z"
     fill="#565F6D"
     id="path60" />
  <path
     d="M56.9899 107.003C56.78 107.003 56.5701 106.941 56.3895 106.821L49.8994 102.494L51.099 100.694L56.3117 104.17L58.103 97.0059L60.2004 97.5294L58.037 106.183C57.9525 106.524 57.706 106.803 57.3782 106.929C57.2538 106.979 57.1219 107.003 56.9899 107.003Z"
     fill="#565F6D"
     id="path62" />
  <path
     d="M48.3325 119L46.1777 118.803L47.2389 107.131L46.2286 104.1L48.2806 103.415L49.3622 106.66C49.4087 106.802 49.4271 106.952 49.413 107.1L48.3325 119Z"
     fill="#565F6D"
     id="path64" />
  <path
     d="M52.6669 119L51.5852 107.101C51.5723 106.952 51.5895 106.803 51.6371 106.661L52.7188 103.416L54.7697 104.101L53.7594 107.132L54.8206 118.804L52.6669 119Z"
     fill="#565F6D"
     id="path66" />
  <path
     d="M52.6676 105.921H48.3408V108.084H52.6676V105.921Z"
     fill="#565F6D"
     id="path68" />
  <path
     d="M828.024 61.7395C820.565 71.5502 822.068 86.045 832.27 92.5861C844.263 100.275 859.697 84.6801 870.138 91.8272C875.665 95.6105 873.374 107.924 875.781 113.788C880.217 124.592 893.594 128.359 905.364 123.841C917.372 119.233 929.028 106.764 924.704 94.587C919.554 80.0821 902.727 81.6132 892.001 73.56C880.994 65.2959 881.42 47.971 864.849 45.9209C852.607 44.4061 835.41 52.0247 828.024 61.7395V61.7395Z"
     fill="url(#paint2_linear)"
     id="path70" />
  <path
     d="M878.399 73.4707H877.317V79.9608H878.399C880.191 79.9608 881.644 78.5081 881.644 76.7157C881.644 74.9234 880.19 73.4707 878.399 73.4707Z"
     fill="#FEDAC6"
     id="path72" />
  <path
     d="M851.356 76.7157C851.356 78.5081 852.809 79.9608 854.601 79.9608H855.683V73.4707H854.601C852.809 73.4706 851.356 74.9233 851.356 76.7157Z"
     fill="#F5C4B0"
     id="path74" />
  <path
     d="M878.399 73.4707L879.675 66.9049C880.094 64.4127 878.412 62.0535 875.92 61.6349C875.667 61.5928 875.41 61.5722 875.154 61.5722C874.507 59.6359 872.695 58.3294 870.654 58.3272H857.847L855.684 55.082L854.602 56.1637C851.615 59.1502 851.614 63.9918 854.6 66.9784C854.601 66.9795 854.601 66.9805 854.602 66.9805H874.072L878.399 73.4707Z"
     fill="#F8DB14"
     id="path76" />
  <path
     d="M881.708 98.4254L873.866 97.3438L866.5 101.595L859.133 97.387L851.291 98.4687C847.01 99.0409 843.806 102.683 843.784 107.003V118.902H889.215V107.003C889.215 102.668 886.006 98.9998 881.708 98.4254Z"
     fill="#CFD9E9"
     id="path78" />
  <path
     d="M873.866 97.3871L872.99 97.268V89.6963H860.01V97.268L859.134 97.3871L866.5 101.595L873.866 97.3871Z"
     fill="#FEDAC6"
     id="path80" />
  <path
     d="M860.01 105.921L866.5 101.594L860.01 97.2676H857.847L860.01 105.921Z"
     fill="#EAEAEA"
     id="path82" />
  <path
     d="M866.5 101.594L872.99 105.921L875.153 97.2676H872.99L866.5 101.594Z"
     fill="#EAEAEA"
     id="path84" />
  <path
     d="M863.255 118.902L864.337 107.003L863.255 103.758L866.5 101.595L869.745 103.758L868.663 107.003L869.745 118.902"
     fill="#8399FE"
     id="path86" />
  <path
     d="M872.99 95.6888V89.6963H860.01V95.6888C864.877 97.798 868.122 97.798 872.99 95.6888Z"
     fill="#F5C4B0"
     id="path88" />
  <path
     d="M843.784 107.003V118.901H848.111V99.5176C845.436 101.062 843.786 103.915 843.784 107.003Z"
     fill="#BFBFBF"
     id="path90" />
  <path
     d="M878.399 73.4707V79.6363C878.398 82.6877 877.62 85.6872 876.138 88.3547C874.193 91.8541 870.504 94.0238 866.5 94.0228C862.497 94.0239 858.807 91.8541 856.862 88.3547C855.38 85.6873 854.603 82.6878 854.602 79.6363V66.9805H874.072L878.399 73.4707Z"
     fill="#FEDAC6"
     id="path92" />
  <path
     d="M858.928 66.9805H854.602V79.6362C854.603 82.6877 855.38 85.6872 856.862 88.3547C857.944 90.291 859.589 91.8529 861.579 92.833C857.847 82.1241 858.928 66.9805 858.928 66.9805Z"
     fill="#F5C4B0"
     id="path94" />
  <path
     d="M852.59 59.7549C851.947 62.3498 852.711 65.0908 854.602 66.9805H871.909C859.621 66.9805 854.602 62.6537 852.59 59.7549Z"
     fill="#F4B008"
     id="path96" />
  <path
     d="M878.399 81.0423H877.317V78.8789H878.399C879.592 78.8789 880.562 77.9086 880.562 76.7155C880.562 75.5224 879.592 74.5521 878.399 74.5521H877.317V72.3887H878.399C880.785 72.3887 882.726 74.3293 882.726 76.7155C882.726 79.1017 880.785 81.0423 878.399 81.0423Z"
     fill="#565F6D"
     id="path98" />
  <path
     d="M855.683 81.0423H854.601C852.215 81.0423 850.274 79.1017 850.274 76.7155C850.274 74.3293 852.215 72.3887 854.601 72.3887H855.683V74.5521H854.601C853.408 74.5521 852.438 75.5224 852.438 76.7155C852.438 77.9086 853.408 78.8789 854.601 78.8789H855.683V81.0423Z"
     fill="#565F6D"
     id="path100" />
  <path
     d="M867.581 83.2058H864.336C863.997 83.2058 863.678 83.0467 863.473 82.7753C863.269 82.5038 863.203 82.1534 863.297 81.8267L865.46 74.2549L867.54 74.8498L865.77 81.0424H867.58V83.2058H867.581Z"
     fill="#565F6D"
     id="path102" />
  <path
     d="M866.502 95.1039C866.5 95.1039 866.498 95.1039 866.496 95.1039C862.104 95.1039 858.05 92.7198 855.916 88.8788C854.348 86.0588 853.52 82.8624 853.519 79.6369V66.9801C853.519 66.383 854.003 65.8984 854.6 65.8984H874.071C874.432 65.8984 874.769 66.0791 874.97 66.3798L879.297 72.8699C879.415 73.0473 879.479 73.2561 879.479 73.4703V79.6359C879.478 82.8615 878.648 86.0579 877.082 88.8789C874.949 92.7187 870.895 95.1039 866.502 95.1039ZM866.499 92.9405C866.5 92.9405 866.501 92.9405 866.501 92.9405C870.109 92.9405 873.439 90.9816 875.191 87.8285C876.58 85.3276 877.315 82.4947 877.316 79.6347V73.7968L873.492 68.0617H855.683V79.6357C855.684 82.4957 856.418 85.3287 857.807 87.8285C859.56 90.9828 862.889 92.9405 866.496 92.9405C866.498 92.9405 866.499 92.9405 866.499 92.9405Z"
     fill="#565F6D"
     id="path104" />
  <path
     d="M865.603 87.5324H864.337V85.369H865.603C867.287 85.3679 868.87 84.7124 870.062 83.5215L871.592 85.052C869.991 86.6509 867.864 87.5313 865.603 87.5324Z"
     fill="#565F6D"
     id="path106" />
  <path
     d="M860.014 77.7975C861.209 77.7975 862.177 76.8289 862.177 75.6341C862.177 74.4393 861.209 73.4707 860.014 73.4707C858.819 73.4707 857.851 74.4393 857.851 75.6341C857.851 76.8289 858.819 77.7975 860.014 77.7975Z"
     fill="#565F6D"
     id="path108" />
  <path
     d="M872.994 77.7975C874.189 77.7975 875.158 76.8289 875.158 75.6341C875.158 74.4393 874.189 73.4707 872.994 73.4707C871.8 73.4707 870.831 74.4393 870.831 75.6341C870.831 76.8289 871.8 77.7975 872.994 77.7975Z"
     fill="#565F6D"
     id="path110" />
  <path
     d="M879.465 74.7306L877.331 74.3747L878.607 66.7272C878.762 65.8057 878.549 64.8797 878.007 64.1204C877.465 63.3611 876.66 62.8569 875.739 62.7023C875.547 62.6698 875.328 62.6461 875.154 62.6547C875.153 62.6547 875.153 62.6547 875.152 62.6547C874.687 62.6547 874.273 62.3572 874.127 61.916C873.626 60.4178 872.229 59.4108 870.651 59.4086H857.846C857.485 59.4086 857.147 59.228 856.946 58.9272L855.514 56.7801L855.365 56.9282C854.125 58.1678 853.442 59.8174 853.442 61.5709C853.442 63.3254 854.124 64.9739 855.364 66.2136L853.835 67.7452C850.431 64.3401 850.431 58.8018 853.835 55.3988L854.917 54.3172C855.146 54.0889 855.466 53.9721 855.789 54.0057C856.111 54.037 856.402 54.2122 856.582 54.4816L858.425 57.2454H870.653C872.913 57.2475 874.937 58.5445 875.899 60.538C875.966 60.5466 876.031 60.5564 876.098 60.5672C877.59 60.817 878.894 61.6327 879.771 62.8637C880.648 64.0946 880.993 65.5928 880.742 67.0833L879.465 74.7306Z"
     fill="#565F6D"
     id="path112" />
  <path
     d="M844.867 118.902H842.703V107.003C842.703 102.146 846.333 97.998 851.149 97.3532L858.928 96.3202V91.8594H861.092V97.2678C861.092 97.8098 860.691 98.2683 860.153 98.3398L851.435 99.4972C847.691 99.9981 844.867 103.224 844.867 107.002V118.902V118.902Z"
     fill="#565F6D"
     id="path114" />
  <path
     d="M890.297 118.902H888.134V107.003C888.134 103.225 885.31 99.998 881.564 99.4982L872.847 98.3408C872.309 98.2694 871.908 97.8107 871.908 97.2688V91.8604H874.072V96.3212L881.85 97.3542C886.666 97.9979 890.297 102.147 890.297 107.004V118.902Z"
     fill="#565F6D"
     id="path116" />
  <path
     d="M853.524 110.248H851.36V118.902H853.524V110.248Z"
     fill="#565F6D"
     id="path118" />
  <path
     d="M881.648 110.248H879.484V118.902H881.648V110.248Z"
     fill="#565F6D"
     id="path120" />
  <path
     d="M860.01 107.003C859.878 107.003 859.746 106.979 859.619 106.93C859.291 106.804 859.046 106.525 858.96 106.184L856.797 97.5304L858.895 97.0068L860.687 104.171L865.899 100.695L867.099 102.495L860.609 106.822C860.429 106.942 860.219 107.003 860.01 107.003Z"
     fill="#565F6D"
     id="path122" />
  <path
     d="M866.5 102.676C866.315 102.676 866.13 102.629 865.963 102.534L858.392 98.2069L859.465 96.3291L866.5 100.35L873.535 96.3291L874.608 98.2069L867.036 102.534C866.87 102.629 866.685 102.676 866.5 102.676Z"
     fill="#565F6D"
     id="path124" />
  <path
     d="M872.99 107.003C872.78 107.003 872.57 106.941 872.389 106.821L865.899 102.494L867.099 100.694L872.312 104.17L874.103 97.0059L876.2 97.5294L874.037 106.183C873.953 106.524 873.706 106.803 873.378 106.929C873.254 106.979 873.122 107.003 872.99 107.003Z"
     fill="#565F6D"
     id="path126" />
  <path
     d="M864.332 119L862.178 118.803L863.239 107.131L862.229 104.1L864.281 103.415L865.362 106.66C865.409 106.802 865.427 106.952 865.413 107.1L864.332 119Z"
     fill="#565F6D"
     id="path128" />
  <path
     d="M868.667 119L867.585 107.101C867.572 106.952 867.59 106.803 867.637 106.661L868.719 103.416L870.77 104.101L869.759 107.132L870.821 118.804L868.667 119Z"
     fill="#565F6D"
     id="path130" />
  <path
     d="M868.668 105.921H864.341V108.084H868.668V105.921Z"
     fill="#565F6D"
     id="path132" />
  <g
     filter="url(#filter0_d)"
     id="g136">
    <rect
       x="326"
       y="145"
       width="273"
       height="86"
       rx="25"
       fill="white"
       id="rect134" />
  </g>
  <g
     filter="url(#filter1_d)"
     id="g140">
    <rect
       x="326"
       y="47"
       width="273"
       height="86"
       rx="25"
       fill="white"
       id="rect138" />
  </g>
  <circle
     cx="395.125"
     cy="88.875"
     r="28.875"
     fill="#82EE87"
     id="circle142" />
  <circle
     cx="386.875"
     cy="88.875"
     r="28.875"
     fill="#94FF98"
     id="circle144" />
  <circle
     cx="387"
     cy="89"
     r="23"
     fill="#7FEB83"
     id="circle146" />
  <path
     d="M376.762 96V81.132H373.927L369.979 85.29L371.953 87.012L373.381 86.025V96H376.762ZM384.092 96.21C386.633 96.21 389.468 94.803 389.468 91.653V85.5C389.468 82.329 386.633 80.922 384.092 80.922C381.572 80.922 378.716 82.329 378.716 85.5V91.653C378.716 94.803 381.572 96.21 384.092 96.21ZM384.092 84.219C384.932 84.219 385.898 84.702 385.898 85.605V91.695C385.898 92.556 384.953 93.018 384.092 93.018C383.189 93.018 382.286 92.556 382.286 91.695V85.605C382.286 84.723 383.21 84.219 384.092 84.219ZM396.602 96.21C399.143 96.21 401.978 94.803 401.978 91.653V85.5C401.978 82.329 399.143 80.922 396.602 80.922C394.082 80.922 391.226 82.329 391.226 85.5V91.653C391.226 94.803 394.082 96.21 396.602 96.21ZM396.602 84.219C397.442 84.219 398.408 84.702 398.408 85.605V91.695C398.408 92.556 397.463 93.018 396.602 93.018C395.699 93.018 394.796 92.556 394.796 91.695V85.605C394.796 84.723 395.72 84.219 396.602 84.219Z"
     fill="white"
     id="path148" />
  <circle
     cx="198.5"
     cy="52.5"
     r="10.5"
     fill="#82EE87"
     id="circle150" />
  <circle
     cx="195.5"
     cy="52.5"
     r="10.5"
     fill="#94FF98"
     id="circle152" />
  <circle
     cx="195.545"
     cy="52.5453"
     r="8.36364"
     fill="#7FEB83"
     id="circle154" />
  <path
     d="M692.839 77.9106C692.839 78.3403 692.684 78.6841 692.383 78.9473C692.077 79.2104 691.642 79.3394 691.078 79.3394C690.814 79.3394 690.562 79.3071 690.315 79.2373C690.068 79.1675 689.869 79.0923 689.724 79.0117C689.579 78.9312 689.445 78.8345 689.321 78.7271C689.192 78.6196 689.112 78.5391 689.074 78.4961C689.037 78.4531 689.01 78.4209 688.999 78.3994L688.494 78.958L688.596 79.0815C688.65 79.1567 688.752 79.2534 688.902 79.3716C689.047 79.4844 689.214 79.5972 689.402 79.7046C689.595 79.812 689.837 79.9087 690.132 79.9893C690.433 80.0698 690.745 80.1074 691.072 80.1074C691.883 80.1074 692.517 79.9087 692.974 79.5005C693.436 79.0923 693.661 78.5659 693.661 77.9106C693.661 77.5347 693.586 77.2178 693.43 76.9492C693.28 76.6807 693.076 76.4766 692.829 76.3262C692.582 76.1812 692.313 76.0576 692.018 75.9556C691.722 75.8535 691.427 75.7622 691.126 75.6763C690.831 75.5903 690.557 75.499 690.31 75.3916C690.062 75.2896 689.864 75.1445 689.708 74.9565C689.558 74.7739 689.477 74.5483 689.477 74.2798C689.477 73.9146 689.627 73.603 689.928 73.3452C690.229 73.0874 690.626 72.9585 691.131 72.9585C691.346 72.9585 691.55 72.9907 691.749 73.0444C691.948 73.0981 692.109 73.1626 692.227 73.2324C692.345 73.3022 692.458 73.3828 692.565 73.4688C692.673 73.5547 692.743 73.6191 692.77 73.6514C692.802 73.6836 692.823 73.7104 692.834 73.7319L693.387 73.1787L693.296 73.0713C693.242 73.0068 693.146 72.9263 693.011 72.8296C692.882 72.7329 692.732 72.6416 692.56 72.5449C692.394 72.4482 692.184 72.3677 691.932 72.2979C691.679 72.228 691.411 72.1904 691.131 72.1904C690.39 72.1904 689.794 72.3945 689.337 72.8027C688.886 73.2109 688.655 73.6997 688.655 74.2798C688.655 74.6558 688.736 74.9727 688.886 75.2412C689.042 75.5098 689.241 75.7192 689.488 75.8643C689.735 76.0146 690.003 76.1382 690.299 76.2402C690.6 76.3423 690.895 76.4336 691.19 76.5195C691.491 76.6055 691.76 76.6968 692.007 76.7988C692.254 76.9062 692.453 77.0513 692.603 77.2339C692.759 77.4219 692.839 77.6475 692.839 77.9106ZM696.202 79.2319V76.3691H699.773V75.6011H696.202V73.0713H700.654V72.2979H695.375V80H700.767V79.2319H696.202ZM707.857 72.2979V78.5176L703.125 72.2979H702.411V80H703.238V73.7856L707.964 80H708.679V72.2979H707.857ZM710.994 72.2979V80H713.416C714.533 80 715.484 79.624 716.263 78.8667C717.036 78.1147 717.428 77.207 717.428 76.1489C717.428 75.0962 717.036 74.1885 716.263 73.4312C715.484 72.6792 714.533 72.2979 713.416 72.2979H710.994ZM713.416 73.0713C714.318 73.0713 715.076 73.3721 715.688 73.9683C716.3 74.5698 716.606 75.2949 716.606 76.1543C716.606 77.0137 716.3 77.7388 715.688 78.335C715.076 78.9365 714.318 79.2319 713.416 79.2319H711.821V73.0713H713.416ZM722.928 77.9106C722.928 78.3403 722.772 78.6841 722.472 78.9473C722.166 79.2104 721.73 79.3394 721.167 79.3394C720.903 79.3394 720.651 79.3071 720.404 79.2373C720.157 79.1675 719.958 79.0923 719.813 79.0117C719.668 78.9312 719.534 78.8345 719.41 78.7271C719.281 78.6196 719.201 78.5391 719.163 78.4961C719.125 78.4531 719.099 78.4209 719.088 78.3994L718.583 78.958L718.685 79.0815C718.739 79.1567 718.841 79.2534 718.991 79.3716C719.136 79.4844 719.303 79.5972 719.491 79.7046C719.684 79.812 719.926 79.9087 720.221 79.9893C720.522 80.0698 720.833 80.1074 721.161 80.1074C721.972 80.1074 722.606 79.9087 723.062 79.5005C723.524 79.0923 723.75 78.5659 723.75 77.9106C723.75 77.5347 723.675 77.2178 723.519 76.9492C723.369 76.6807 723.165 76.4766 722.917 76.3262C722.67 76.1812 722.402 76.0576 722.106 75.9556C721.811 75.8535 721.516 75.7622 721.215 75.6763C720.919 75.5903 720.646 75.499 720.398 75.3916C720.151 75.2896 719.953 75.1445 719.797 74.9565C719.646 74.7739 719.566 74.5483 719.566 74.2798C719.566 73.9146 719.716 73.603 720.017 73.3452C720.318 73.0874 720.715 72.9585 721.22 72.9585C721.435 72.9585 721.639 72.9907 721.838 73.0444C722.037 73.0981 722.198 73.1626 722.316 73.2324C722.434 73.3022 722.547 73.3828 722.654 73.4688C722.762 73.5547 722.832 73.6191 722.858 73.6514C722.891 73.6836 722.912 73.7104 722.923 73.7319L723.476 73.1787L723.385 73.0713C723.331 73.0068 723.234 72.9263 723.1 72.8296C722.971 72.7329 722.821 72.6416 722.649 72.5449C722.482 72.4482 722.273 72.3677 722.021 72.2979C721.768 72.228 721.5 72.1904 721.22 72.1904C720.479 72.1904 719.883 72.3945 719.426 72.8027C718.975 73.2109 718.744 73.6997 718.744 74.2798C718.744 74.6558 718.825 74.9727 718.975 75.2412C719.131 75.5098 719.33 75.7192 719.577 75.8643C719.824 76.0146 720.092 76.1382 720.388 76.2402C720.688 76.3423 720.984 76.4336 721.279 76.5195C721.58 76.6055 721.849 76.6968 722.096 76.7988C722.343 76.9062 722.542 77.0513 722.692 77.2339C722.848 77.4219 722.928 77.6475 722.928 77.9106ZM731.796 80V79.2319H727.778C727.88 78.9204 728.058 78.6196 728.305 78.335C728.552 78.0557 728.82 77.814 729.11 77.6152C729.4 77.4165 729.707 77.2017 730.029 76.9653C730.351 76.729 730.641 76.5034 730.899 76.2886C731.157 76.0737 731.366 75.8052 731.538 75.4829C731.71 75.166 731.796 74.8223 731.796 74.4517C731.796 73.8071 731.565 73.27 731.108 72.8403C730.646 72.4106 730.05 72.1958 729.32 72.1958C728.949 72.1958 728.616 72.2603 728.315 72.3892C728.015 72.5181 727.784 72.6577 727.628 72.8135C727.467 72.9639 727.333 73.1411 727.214 73.3452C727.096 73.5439 727.026 73.6836 727 73.7642C726.973 73.8394 726.957 73.9038 726.951 73.9575L727.671 74.2852L727.703 74.1509C727.73 74.0542 727.778 73.9468 727.854 73.8179C727.929 73.689 728.02 73.5601 728.133 73.4312C728.246 73.3022 728.407 73.1895 728.616 73.0981C728.826 73.0068 729.062 72.9639 729.32 72.9639C729.83 72.9639 730.233 73.0981 730.528 73.3721C730.818 73.6406 730.969 74.0005 730.969 74.4517C730.969 74.7847 730.861 75.1016 730.657 75.4023C730.453 75.6978 730.195 75.9448 729.895 76.1436C729.588 76.3477 729.261 76.5732 728.906 76.8311C728.552 77.0889 728.219 77.3467 727.918 77.6045C727.612 77.8623 727.354 78.1953 727.15 78.6143C726.946 79.0332 726.844 79.4951 726.844 80H731.796ZM733.934 76.1543C733.934 75.1553 734.154 74.3765 734.6 73.8071C735.04 73.2432 735.572 72.9585 736.189 72.9585C736.802 72.9585 737.333 73.2432 737.779 73.8071C738.22 74.3711 738.445 75.1499 738.445 76.1489C738.445 77.1426 738.225 77.9214 737.785 78.4907C737.344 79.0601 736.812 79.3447 736.2 79.3447C735.577 79.3447 735.04 79.0601 734.6 78.4961C734.154 77.9321 733.934 77.1533 733.934 76.1543ZM739.272 76.1543C739.272 74.9619 738.966 74.0059 738.359 73.2808C737.747 72.5557 737.027 72.1958 736.189 72.1958C735.352 72.1958 734.632 72.5557 734.025 73.2808C733.413 74.0059 733.112 74.9619 733.112 76.1543C733.112 77.3413 733.413 78.2974 734.02 79.0225C734.626 79.7476 735.352 80.1128 736.2 80.1128C737.038 80.1128 737.758 79.7476 738.365 79.0225C738.966 78.2974 739.272 77.3413 739.272 76.1543ZM741.41 76.1543C741.41 75.1553 741.63 74.3765 742.076 73.8071C742.517 73.2432 743.048 72.9585 743.666 72.9585C744.278 72.9585 744.81 73.2432 745.256 73.8071C745.696 74.3711 745.922 75.1499 745.922 76.1489C745.922 77.1426 745.702 77.9214 745.261 78.4907C744.821 79.0601 744.289 79.3447 743.677 79.3447C743.054 79.3447 742.517 79.0601 742.076 78.4961C741.63 77.9321 741.41 77.1533 741.41 76.1543ZM746.749 76.1543C746.749 74.9619 746.443 74.0059 745.836 73.2808C745.224 72.5557 744.504 72.1958 743.666 72.1958C742.828 72.1958 742.108 72.5557 741.501 73.2808C740.889 74.0059 740.588 74.9619 740.588 76.1543C740.588 77.3413 740.889 78.2974 741.496 79.0225C742.103 79.7476 742.828 80.1128 743.677 80.1128C744.515 80.1128 745.234 79.7476 745.841 79.0225C746.443 78.2974 746.749 77.3413 746.749 76.1543ZM750.654 72.2979V80H751.481V76.9224H753.678L755.386 80H756.32L754.505 76.8096L754.671 76.7559C754.779 76.7236 754.908 76.6484 755.069 76.541C755.225 76.4336 755.38 76.3047 755.536 76.1489C755.687 75.9985 755.821 75.7837 755.934 75.5098C756.041 75.2412 756.1 74.9404 756.1 74.6074C756.1 73.9521 755.875 73.3989 755.423 72.9585C754.972 72.5181 754.408 72.2979 753.731 72.2979H750.654ZM753.731 73.0713C754.199 73.0713 754.575 73.2109 754.854 73.4902C755.133 73.7695 755.273 74.1401 755.273 74.6128C755.273 75.0854 755.133 75.4561 754.854 75.7354C754.575 76.0146 754.199 76.1543 753.731 76.1543H751.481V73.0767L753.731 73.0713ZM758.904 79.2319V76.3691H762.476V75.6011H758.904V73.0713H763.356V72.2979H758.077V80H763.469V79.2319H758.904ZM765.113 72.2979V80H767.535C768.652 80 769.603 79.624 770.382 78.8667C771.155 78.1147 771.547 77.207 771.547 76.1489C771.547 75.0962 771.155 74.1885 770.382 73.4312C769.603 72.6792 768.652 72.2979 767.535 72.2979H765.113ZM767.535 73.0713C768.438 73.0713 769.195 73.3721 769.807 73.9683C770.419 74.5698 770.726 75.2949 770.726 76.1543C770.726 77.0137 770.419 77.7388 769.807 78.335C769.195 78.9365 768.438 79.2319 767.535 79.2319H765.94V73.0713H767.535Z"
     fill="#565F6D"
     id="path156" />
  <path
     d="M 838,89 H 650 m -4,0 6,-6 m -6,6 6,6"
     id="path158"
     inkscape:connector-curvature="0"
     style="stroke:url(#paint3_linear);stroke-width:5;stroke-linecap:square"
     sodipodi:nodetypes="cccccc" />
  <circle
     cx="537.125"
     cy="89.625"
     r="28.875"
     fill="#BA1B1B"
     id="circle160" />
  <circle
     cx="528.875"
     cy="89.625"
     r="28.875"
     fill="#FF2D2D"
     id="circle162" />
  <circle
     cx="529"
     cy="90"
     r="22"
     fill="#C43333"
     id="circle164" />
  <path
     d="M513.444 85.836C515.082 82.833 518.379 84.975 516.384 87.222L510.336 94.026L511.281 95.979H520.857V92.409H517.497L515.754 92.766L519.03 89.658C520.374 88.398 520.878 86.886 520.878 85.5C520.878 83.169 519.177 80.922 515.901 80.922C513.864 80.922 511.848 81.972 510.63 84.303L513.444 85.836ZM527.947 96.21C530.488 96.21 533.323 94.803 533.323 91.653V85.5C533.323 82.329 530.488 80.922 527.947 80.922C525.427 80.922 522.571 82.329 522.571 85.5V91.653C522.571 94.803 525.427 96.21 527.947 96.21ZM527.947 84.219C528.787 84.219 529.753 84.702 529.753 85.605V91.695C529.753 92.556 528.808 93.018 527.947 93.018C527.044 93.018 526.141 92.556 526.141 91.695V85.605C526.141 84.723 527.065 84.219 527.947 84.219ZM540.457 96.21C542.998 96.21 545.833 94.803 545.833 91.653V85.5C545.833 82.329 542.998 80.922 540.457 80.922C537.937 80.922 535.081 82.329 535.081 85.5V91.653C535.081 94.803 537.937 96.21 540.457 96.21ZM540.457 84.219C541.297 84.219 542.263 84.702 542.263 85.605V91.695C542.263 92.556 541.318 93.018 540.457 93.018C539.554 93.018 538.651 92.556 538.651 91.695V85.605C538.651 84.723 539.575 84.219 540.457 84.219Z"
     fill="white"
     id="path166" />
  <g
     clip-path="url(#clip0)"
     id="g172">
    <path
       d="M445.285 81.8797C445.498 81.9651 445.746 81.9651 445.959 81.8627L452.625 78.8329C453.051 78.628 453.231 78.1159 453.026 77.6892C452.829 77.2796 452.343 77.0918 451.925 77.2796L447.256 79.4047C449.484 72.7391 455.688 68.284 462.832 68.284C470.317 68.284 476.863 73.2854 478.749 80.4459C478.869 80.8982 479.338 81.1714 479.79 81.0518C480.243 80.9324 480.516 80.4629 480.396 80.0106C478.314 72.1076 471.093 66.5771 462.832 66.5771C454.954 66.5771 448.101 71.4931 445.626 78.85L443.663 73.9426C443.518 73.4988 443.032 73.2513 442.588 73.3963C442.144 73.5414 441.896 74.0279 442.042 74.4717C442.05 74.5059 442.067 74.54 442.084 74.5741L444.807 81.4018C444.892 81.6152 445.063 81.7944 445.285 81.8797Z"
       fill="#A6B1C1"
       id="path168" />
    <path
       d="M482.948 94.4764C482.939 94.4593 482.931 94.4422 482.931 94.4252L480.208 87.5975C480.123 87.3841 479.952 87.2049 479.73 87.1196C479.517 87.0342 479.269 87.0428 479.056 87.1366L472.39 90.1664C471.955 90.3457 471.75 90.8492 471.929 91.2845C472.109 91.7197 472.612 91.9246 473.047 91.7453C473.064 91.7368 473.082 91.7283 473.099 91.7197L477.767 89.5946C475.523 96.2602 469.309 100.715 462.174 100.715C454.689 100.715 448.143 95.7139 446.257 88.5534C446.138 88.1011 445.668 87.8279 445.216 87.9475C444.764 88.0669 444.491 88.5364 444.61 88.9887C446.684 96.9003 453.913 102.422 462.174 102.422C470.052 102.422 476.897 97.5062 479.38 90.1493L481.343 95.0567C481.505 95.5005 481.992 95.731 482.436 95.5688C482.879 95.4067 483.11 94.9202 482.948 94.4764Z"
       fill="#A6B1C1"
       id="path170" />
  </g>
  <circle
     cx="728.5"
     cy="52.5"
     r="10.5"
     fill="#BA1B1B"
     id="circle174" />
  <circle
     cx="725.5"
     cy="52.5"
     r="10.5"
     fill="#FF2D2D"
     id="circle176" />
  <circle
     cx="725.546"
     cy="52.6367"
     r="8"
     fill="#C43333"
     id="circle178" />
  <circle
     cx="731.5"
     cy="166.5"
     r="10.5"
     fill="#82EE87"
     id="circle180" />
  <circle
     cx="728.5"
     cy="166.5"
     r="10.5"
     fill="#94FF98"
     id="circle182" />
  <circle
     cx="728.545"
     cy="166.545"
     r="8.36364"
     fill="#7FEB83"
     id="circle184" />
  <circle
     cx="197.5"
     cy="166.5"
     r="10.5"
     fill="#BA1B1B"
     id="circle186" />
  <circle
     cx="194.5"
     cy="166.5"
     r="10.5"
     fill="#FF2D2D"
     id="circle188" />
  <circle
     cx="194.546"
     cy="166.637"
     r="8"
     fill="#C43333"
     id="circle190" />
  <path
     d="M179.393 196V195.232H175.375C175.477 194.92 175.654 194.62 175.901 194.335C176.148 194.056 176.417 193.814 176.707 193.615C176.997 193.417 177.303 193.202 177.625 192.965C177.948 192.729 178.238 192.503 178.496 192.289C178.753 192.074 178.963 191.805 179.135 191.483C179.307 191.166 179.393 190.822 179.393 190.452C179.393 189.807 179.162 189.27 178.705 188.84C178.243 188.411 177.647 188.196 176.917 188.196C176.546 188.196 176.213 188.26 175.912 188.389C175.611 188.518 175.38 188.658 175.225 188.813C175.063 188.964 174.929 189.141 174.811 189.345C174.693 189.544 174.623 189.684 174.596 189.764C174.569 189.839 174.553 189.904 174.548 189.958L175.268 190.285L175.3 190.151C175.327 190.054 175.375 189.947 175.45 189.818C175.525 189.689 175.617 189.56 175.729 189.431C175.842 189.302 176.003 189.189 176.213 189.098C176.422 189.007 176.659 188.964 176.917 188.964C177.427 188.964 177.83 189.098 178.125 189.372C178.415 189.641 178.565 190 178.565 190.452C178.565 190.785 178.458 191.102 178.254 191.402C178.05 191.698 177.792 191.945 177.491 192.144C177.185 192.348 176.857 192.573 176.503 192.831C176.148 193.089 175.815 193.347 175.515 193.604C175.208 193.862 174.951 194.195 174.747 194.614C174.542 195.033 174.44 195.495 174.44 196H179.393ZM181.53 192.154C181.53 191.155 181.75 190.376 182.196 189.807C182.637 189.243 183.168 188.958 183.786 188.958C184.398 188.958 184.93 189.243 185.376 189.807C185.816 190.371 186.042 191.15 186.042 192.149C186.042 193.143 185.822 193.921 185.381 194.491C184.941 195.06 184.409 195.345 183.797 195.345C183.174 195.345 182.637 195.06 182.196 194.496C181.75 193.932 181.53 193.153 181.53 192.154ZM186.869 192.154C186.869 190.962 186.563 190.006 185.956 189.281C185.344 188.556 184.624 188.196 183.786 188.196C182.948 188.196 182.229 188.556 181.622 189.281C181.009 190.006 180.708 190.962 180.708 192.154C180.708 193.341 181.009 194.297 181.616 195.022C182.223 195.748 182.948 196.113 183.797 196.113C184.635 196.113 185.354 195.748 185.961 195.022C186.563 194.297 186.869 193.341 186.869 192.154ZM189.007 192.154C189.007 191.155 189.227 190.376 189.673 189.807C190.113 189.243 190.645 188.958 191.263 188.958C191.875 188.958 192.407 189.243 192.853 189.807C193.293 190.371 193.519 191.15 193.519 192.149C193.519 193.143 193.298 193.921 192.858 194.491C192.417 195.06 191.886 195.345 191.273 195.345C190.65 195.345 190.113 195.06 189.673 194.496C189.227 193.932 189.007 193.153 189.007 192.154ZM194.346 192.154C194.346 190.962 194.04 190.006 193.433 189.281C192.82 188.556 192.101 188.196 191.263 188.196C190.425 188.196 189.705 188.556 189.098 189.281C188.486 190.006 188.185 190.962 188.185 192.154C188.185 193.341 188.486 194.297 189.093 195.022C189.7 195.748 190.425 196.113 191.273 196.113C192.111 196.113 192.831 195.748 193.438 195.022C194.04 194.297 194.346 193.341 194.346 192.154ZM198.25 188.298V196H199.078V192.922H201.274L202.982 196H203.917L202.102 192.81L202.268 192.756C202.375 192.724 202.504 192.648 202.666 192.541C202.821 192.434 202.977 192.305 203.133 192.149C203.283 191.999 203.417 191.784 203.53 191.51C203.638 191.241 203.697 190.94 203.697 190.607C203.697 189.952 203.471 189.399 203.02 188.958C202.569 188.518 202.005 188.298 201.328 188.298H198.25ZM201.328 189.071C201.795 189.071 202.171 189.211 202.451 189.49C202.73 189.77 202.87 190.14 202.87 190.613C202.87 191.085 202.73 191.456 202.451 191.735C202.171 192.015 201.795 192.154 201.328 192.154H199.078V189.077L201.328 189.071ZM206.5 195.232V192.369H210.072V191.601H206.5V189.071H210.953V188.298H205.673V196H211.066V195.232H206.5ZM212.709 188.298V196H215.132C216.249 196 217.2 195.624 217.979 194.867C218.752 194.115 219.144 193.207 219.144 192.149C219.144 191.096 218.752 190.188 217.979 189.431C217.2 188.679 216.249 188.298 215.132 188.298H212.709ZM215.132 189.071C216.034 189.071 216.792 189.372 217.404 189.968C218.016 190.57 218.322 191.295 218.322 192.154C218.322 193.014 218.016 193.739 217.404 194.335C216.792 194.937 216.034 195.232 215.132 195.232H213.537V189.071H215.132Z"
     fill="#565F6D"
     id="path192" />
  <path
     d="M701.089 188.298L701.046 188.411C701.014 188.475 700.96 188.561 700.885 188.658C700.81 188.76 700.713 188.862 700.595 188.958C700.477 189.055 700.316 189.146 700.117 189.222C699.913 189.297 699.688 189.34 699.44 189.345V189.839H700.869V196H701.696V188.298H701.089ZM704.328 192.154C704.328 191.155 704.548 190.376 704.994 189.807C705.435 189.243 705.966 188.958 706.584 188.958C707.196 188.958 707.728 189.243 708.174 189.807C708.614 190.371 708.84 191.15 708.84 192.149C708.84 193.143 708.62 193.921 708.179 194.491C707.739 195.06 707.207 195.345 706.595 195.345C705.972 195.345 705.435 195.06 704.994 194.496C704.548 193.932 704.328 193.153 704.328 192.154ZM709.667 192.154C709.667 190.962 709.361 190.006 708.754 189.281C708.142 188.556 707.422 188.196 706.584 188.196C705.746 188.196 705.026 188.556 704.419 189.281C703.807 190.006 703.506 190.962 703.506 192.154C703.506 193.341 703.807 194.297 704.414 195.022C705.021 195.748 705.746 196.113 706.595 196.113C707.433 196.113 708.152 195.748 708.759 195.022C709.361 194.297 709.667 193.341 709.667 192.154ZM711.805 192.154C711.805 191.155 712.025 190.376 712.471 189.807C712.911 189.243 713.443 188.958 714.061 188.958C714.673 188.958 715.205 189.243 715.65 189.807C716.091 190.371 716.316 191.15 716.316 192.149C716.316 193.143 716.096 193.921 715.656 194.491C715.215 195.06 714.684 195.345 714.071 195.345C713.448 195.345 712.911 195.06 712.471 194.496C712.025 193.932 711.805 193.153 711.805 192.154ZM717.144 192.154C717.144 190.962 716.837 190.006 716.23 189.281C715.618 188.556 714.898 188.196 714.061 188.196C713.223 188.196 712.503 188.556 711.896 189.281C711.284 190.006 710.983 190.962 710.983 192.154C710.983 193.341 711.284 194.297 711.891 195.022C712.498 195.748 713.223 196.113 714.071 196.113C714.909 196.113 715.629 195.748 716.236 195.022C716.837 194.297 717.144 193.341 717.144 192.154ZM720.554 192.149C720.554 193.25 720.936 194.185 721.709 194.953C722.477 195.726 723.412 196.107 724.513 196.107C724.899 196.107 725.281 196.054 725.651 195.941C726.022 195.828 726.323 195.699 726.559 195.554C726.795 195.415 727.016 195.248 727.22 195.065C727.424 194.883 727.553 194.759 727.617 194.689C727.682 194.62 727.725 194.561 727.757 194.518V192.042H725.173V192.81H726.935V194.297L726.844 194.405C726.785 194.48 726.688 194.571 726.554 194.668C726.414 194.765 726.258 194.867 726.081 194.969C725.898 195.071 725.673 195.157 725.394 195.232C725.114 195.307 724.819 195.339 724.513 195.339C723.632 195.339 722.885 195.033 722.284 194.421C721.677 193.809 721.376 193.051 721.376 192.149C721.376 191.247 721.677 190.489 722.284 189.877C722.885 189.265 723.632 188.958 724.513 188.958C724.84 188.958 725.157 189.007 725.458 189.104C725.759 189.2 726 189.308 726.183 189.426C726.366 189.544 726.538 189.673 726.699 189.823C726.854 189.974 726.957 190.081 727 190.14C727.042 190.199 727.075 190.248 727.096 190.28L727.649 189.786L727.526 189.619C727.445 189.512 727.316 189.377 727.139 189.216C726.962 189.061 726.758 188.905 726.521 188.749C726.285 188.599 725.99 188.464 725.63 188.357C725.275 188.25 724.899 188.19 724.507 188.19C723.412 188.19 722.477 188.577 721.704 189.345C720.936 190.119 720.554 191.053 720.554 192.149ZM729.792 188.298V196H730.62V192.922H732.816L734.524 196H735.459L733.644 192.81L733.81 192.756C733.917 192.724 734.046 192.648 734.208 192.541C734.363 192.434 734.519 192.305 734.675 192.149C734.825 191.999 734.959 191.784 735.072 191.51C735.18 191.241 735.239 190.94 735.239 190.607C735.239 189.952 735.013 189.399 734.562 188.958C734.111 188.518 733.547 188.298 732.87 188.298H729.792ZM732.87 189.071C733.337 189.071 733.713 189.211 733.993 189.49C734.272 189.77 734.412 190.14 734.412 190.613C734.412 191.085 734.272 191.456 733.993 191.735C733.713 192.015 733.337 192.154 732.87 192.154H730.62V189.077L732.87 189.071ZM738.042 195.232V192.369H741.614V191.601H738.042V189.071H742.495V188.298H737.215V196H742.608V195.232H738.042ZM745.079 195.232V192.369H748.65V191.601H745.079V189.071H749.531V188.298H744.251V196H749.644V195.232H745.079ZM756.734 188.298V194.518L752.002 188.298H751.288V196H752.115V189.786L756.841 196H757.556V188.298H756.734Z"
     fill="#565F6D"
     id="path194" />
  <path
     d="M 300,206 H 52 V 136 M 53.851083,132.2482 44,142 M 50.496391,132.39711 60,142"
     id="path196"
     inkscape:connector-curvature="0"
     style="stroke:url(#paint4_linear);stroke-width:5"
     sodipodi:nodetypes="ccccccc" />
  <path
     d="M 629,206 H 881 V 136 M 879.4212,132.4914 888.5,141.5 M 882.7543,132.2457 873.5,141.5"
     id="path198"
     inkscape:connector-curvature="0"
     style="stroke:url(#paint5_linear);stroke-width:5"
     sodipodi:nodetypes="ccccccc" />
  <path
     d="M422.351 27.7441C422.351 28.0342 422.238 28.2705 422.013 28.4531C421.787 28.6411 421.481 28.7324 421.083 28.7324C420.74 28.7324 420.407 28.6572 420.095 28.5015C419.778 28.3511 419.574 28.2275 419.483 28.1362C419.392 28.0449 419.322 27.9697 419.273 27.9106L418.28 28.8989L418.403 29.0332C418.473 29.1191 418.591 29.2266 418.758 29.3501C418.919 29.479 419.112 29.6025 419.327 29.7207C419.542 29.8442 419.821 29.9517 420.154 30.0376C420.487 30.1235 420.836 30.1665 421.191 30.1665C422.104 30.1665 422.818 29.9409 423.334 29.4897C423.85 29.0386 424.107 28.4585 424.107 27.7441C424.107 27.2393 423.979 26.8257 423.715 26.4927C423.458 26.165 423.141 25.9287 422.765 25.7837C422.389 25.644 422.018 25.5151 421.647 25.4077C421.277 25.3003 420.96 25.1714 420.702 25.0156C420.444 24.8599 420.31 24.6504 420.31 24.3926C420.31 24.167 420.407 23.9683 420.6 23.8071C420.793 23.646 421.046 23.5654 421.357 23.5654C421.621 23.5654 421.873 23.6299 422.12 23.748C422.367 23.8716 422.534 23.9683 422.609 24.0435C422.684 24.1187 422.743 24.1777 422.786 24.2314L423.774 23.1841L423.678 23.0767C423.619 23.0015 423.517 22.9102 423.377 22.8081C423.237 22.7061 423.071 22.604 422.883 22.5073C422.695 22.4106 422.453 22.3247 422.158 22.2495C421.868 22.1743 421.562 22.1421 421.245 22.1421C420.45 22.1421 419.8 22.3623 419.3 22.8027C418.801 23.2432 418.548 23.7749 418.548 24.3979C418.548 24.9028 418.683 25.3164 418.94 25.6494C419.204 25.9771 419.521 26.2134 419.891 26.3584C420.262 26.498 420.632 26.6216 421.008 26.729C421.384 26.8364 421.701 26.9653 421.959 27.1265C422.217 27.2822 422.351 27.4863 422.351 27.7441ZM429.774 22.2979L428.179 27.5776L426.583 22.2979H424.822L427.352 30H428.893L430.542 24.8276L432.191 30H433.732L436.262 22.2979H434.5L432.905 27.5776L431.31 22.2979H429.774ZM441.435 26.7559H439.56L440.5 24.2261L441.435 26.7559ZM441.982 28.1846L442.643 30H444.405L441.375 22.2979H439.619L436.59 30H438.352L439.012 28.1846H441.982ZM445.506 22.2979V30H447.16V27.4702H448.75C449.545 27.4702 450.2 27.2231 450.721 26.729C451.237 26.2349 451.5 25.6172 451.5 24.8867C451.5 24.1562 451.237 23.5386 450.716 23.0444C450.195 22.5503 449.54 22.3032 448.75 22.3032L445.506 22.2979ZM448.696 23.791C449.024 23.791 449.298 23.8931 449.518 24.1079C449.738 24.3228 449.851 24.5806 449.851 24.8921C449.851 25.1982 449.738 25.4561 449.518 25.6709C449.298 25.8804 449.024 25.9878 448.696 25.9878H447.16V23.791H448.696ZM458.982 22.1367C457.806 22.1367 456.812 22.5288 456.006 23.313C455.201 24.0972 454.798 25.0425 454.798 26.1489C454.798 27.2554 455.201 28.2061 456.006 28.9902C456.812 29.7744 457.806 30.1665 458.982 30.1665C459.379 30.1665 459.766 30.1128 460.142 30C460.518 29.8926 460.819 29.769 461.05 29.6348C461.281 29.5005 461.496 29.3447 461.7 29.1675C461.904 28.9902 462.033 28.8667 462.092 28.7969C462.151 28.7271 462.194 28.668 462.226 28.625L461.232 27.5776L461.146 27.6904C461.087 27.771 460.996 27.8623 460.867 27.9697C460.738 28.0771 460.588 28.1846 460.421 28.292C460.25 28.3994 460.04 28.4907 459.782 28.5659C459.524 28.6411 459.261 28.6787 458.982 28.6787C458.262 28.6787 457.661 28.437 457.177 27.9536C456.694 27.4702 456.452 26.8687 456.452 26.1489C456.452 25.4292 456.694 24.8276 457.177 24.3442C457.661 23.8608 458.262 23.6191 458.982 23.6191C459.24 23.6191 459.498 23.6621 459.75 23.7427C459.997 23.8232 460.201 23.9092 460.357 24.0059C460.507 24.1025 460.652 24.21 460.781 24.3335C460.91 24.4624 460.996 24.5483 461.034 24.6021C461.071 24.6558 461.104 24.6934 461.125 24.7202L462.172 23.6729L462.049 23.5117C461.968 23.4097 461.839 23.2808 461.657 23.1304C461.474 22.98 461.27 22.8296 461.034 22.6792C460.797 22.5288 460.502 22.4053 460.137 22.2979C459.771 22.1904 459.385 22.1367 458.982 22.1367ZM464.81 26.1543C464.81 25.4453 465.046 24.8438 465.529 24.355C466.007 23.8662 466.593 23.6191 467.28 23.6191C467.968 23.6191 468.553 23.8662 469.031 24.355C469.515 24.8438 469.751 25.4453 469.751 26.1543C469.751 26.8633 469.515 27.4648 469.031 27.9482C468.553 28.437 467.968 28.6787 467.28 28.6787C466.593 28.6787 466.007 28.437 465.529 27.9482C465.046 27.4648 464.81 26.8633 464.81 26.1543ZM463.102 26.1489C463.102 27.2554 463.504 28.2061 464.31 28.9902C465.116 29.7744 466.109 30.1665 467.28 30.1665C468.451 30.1665 469.445 29.7744 470.25 28.9902C471.056 28.2061 471.459 27.2554 471.459 26.1489C471.459 25.0425 471.056 24.0972 470.25 23.313C469.445 22.5288 468.451 22.1367 467.28 22.1367C466.109 22.1367 465.116 22.5288 464.31 23.313C463.504 24.0972 463.102 25.0425 463.102 26.1489ZM478.232 22.2979V27.1963L474.44 22.2979H473.006V30H474.66V25.1069L478.452 30H479.881V22.2979H478.232ZM481.089 22.2979V23.7856H483.292V30H484.94V23.7856H487.137V22.2979H481.089ZM488.346 30H490V27.3037H491.429L492.911 30H494.673L493.024 27.0835L493.164 27.0083C493.26 26.9653 493.373 26.8848 493.513 26.7666C493.647 26.6484 493.781 26.5088 493.91 26.3423C494.039 26.1812 494.152 25.9609 494.249 25.6924C494.345 25.4238 494.394 25.1392 494.394 24.8276C494.394 24.1187 494.146 23.5225 493.647 23.0337C493.147 22.5449 492.514 22.2979 491.751 22.2979H488.34L488.346 30ZM492.745 24.8276C492.745 25.1069 492.648 25.3433 492.449 25.5366C492.25 25.73 491.998 25.8213 491.697 25.8213H489.995V23.7856H491.697C491.998 23.7856 492.25 23.8877 492.449 24.0811C492.648 24.2798 492.745 24.5269 492.745 24.8276ZM500.119 26.7559H498.245L499.185 24.2261L500.119 26.7559ZM500.667 28.1846L501.328 30H503.089L500.06 22.2979H498.304L495.274 30H497.036L497.697 28.1846H500.667ZM507.934 22.1367C506.758 22.1367 505.764 22.5288 504.958 23.313C504.153 24.0972 503.75 25.0425 503.75 26.1489C503.75 27.2554 504.153 28.2061 504.958 28.9902C505.764 29.7744 506.758 30.1665 507.934 30.1665C508.332 30.1665 508.718 30.1128 509.094 30C509.47 29.8926 509.771 29.769 510.002 29.6348C510.233 29.5005 510.448 29.3447 510.652 29.1675C510.856 28.9902 510.985 28.8667 511.044 28.7969C511.103 28.7271 511.146 28.668 511.178 28.625L510.185 27.5776L510.099 27.6904C510.04 27.771 509.948 27.8623 509.819 27.9697C509.69 28.0771 509.54 28.1846 509.374 28.292C509.202 28.3994 508.992 28.4907 508.734 28.5659C508.477 28.6411 508.213 28.6787 507.934 28.6787C507.214 28.6787 506.613 28.437 506.129 27.9536C505.646 27.4702 505.404 26.8687 505.404 26.1489C505.404 25.4292 505.646 24.8276 506.129 24.3442C506.613 23.8608 507.214 23.6191 507.934 23.6191C508.192 23.6191 508.45 23.6621 508.702 23.7427C508.949 23.8232 509.153 23.9092 509.309 24.0059C509.459 24.1025 509.604 24.21 509.733 24.3335C509.862 24.4624 509.948 24.5483 509.986 24.6021C510.023 24.6558 510.056 24.6934 510.077 24.7202L511.125 23.6729L511.001 23.5117C510.92 23.4097 510.792 23.2808 510.609 23.1304C510.426 22.98 510.222 22.8296 509.986 22.6792C509.75 22.5288 509.454 22.4053 509.089 22.2979C508.724 22.1904 508.337 22.1367 507.934 22.1367ZM511.726 22.2979V23.7856H513.928V30H515.577V23.7856H517.774V22.2979H511.726Z"
     fill="#3B4452"
     id="path200" />
  <rect
     x="301"
     y="1"
     width="327"
     height="252"
     rx="28"
     stroke="#CFD9E9"
     stroke-width="2"
     id="rect202" />
  <path
     d="M417.673 179.298L416.078 184.578L414.483 179.298H412.721L415.251 187H416.792L418.441 181.828L420.09 187H421.632L424.162 179.298H422.4L420.805 184.578L419.209 179.298H417.673ZM426.584 179.298H425.096V187H426.584V184.196C426.584 183.793 426.681 183.482 426.879 183.262C427.073 183.042 427.341 182.929 427.68 182.929C427.986 182.929 428.238 183.031 428.432 183.235C428.625 183.439 428.727 183.702 428.727 184.03V187H430.209V183.863C430.209 183.144 430.011 182.569 429.624 182.139C429.237 181.715 428.732 181.5 428.12 181.5C427.825 181.5 427.545 181.575 427.277 181.715C427.008 181.86 426.836 181.973 426.761 182.059C426.686 182.145 426.622 182.214 426.579 182.273L426.584 179.298ZM436.751 184.798L436.805 184.196C436.805 183.428 436.547 182.789 436.037 182.273C435.521 181.758 434.882 181.5 434.114 181.5C433.341 181.5 432.68 181.779 432.132 182.327C431.579 182.875 431.305 183.536 431.305 184.304C431.305 185.077 431.584 185.738 432.143 186.286C432.702 186.833 433.373 187.107 434.168 187.107C434.447 187.107 434.716 187.075 434.979 187.011C435.242 186.946 435.457 186.876 435.624 186.791C435.785 186.705 435.94 186.608 436.091 186.5C436.236 186.393 436.333 186.318 436.375 186.275L436.478 186.173L435.709 185.185L435.554 185.351C435.457 185.464 435.285 185.577 435.049 185.684C434.812 185.792 434.555 185.845 434.275 185.845C433.889 185.845 433.566 185.749 433.314 185.544C433.056 185.34 432.9 185.093 432.847 184.798H436.751ZM434.114 182.768C434.426 182.768 434.694 182.864 434.909 183.047C435.124 183.235 435.264 183.471 435.323 183.756H432.847C432.933 183.466 433.088 183.224 433.309 183.042C433.529 182.859 433.797 182.768 434.114 182.768ZM439.394 181.607H437.912V187H439.394V184.196C439.394 183.793 439.491 183.482 439.689 183.262C439.888 183.042 440.157 182.929 440.495 182.929C440.801 182.929 441.054 183.031 441.247 183.235C441.44 183.439 441.537 183.702 441.537 184.03V187H443.02V183.863C443.02 183.144 442.826 182.569 442.439 182.139C442.053 181.715 441.548 181.5 440.93 181.5C440.64 181.5 440.361 181.575 440.092 181.715C439.824 181.86 439.652 181.973 439.571 182.059C439.496 182.145 439.432 182.214 439.389 182.273L439.394 181.607ZM449.68 187H451.162V183.643C451.162 183.031 450.947 182.521 450.518 182.112C450.088 181.704 449.529 181.5 448.853 181.5C448.589 181.5 448.332 181.543 448.079 181.618C447.832 181.693 447.628 181.779 447.472 181.871C447.322 181.962 447.177 182.064 447.048 182.182C446.919 182.3 446.833 182.386 446.795 182.435C446.758 182.483 446.726 182.521 446.704 182.547L447.526 183.369L447.649 183.24C447.735 183.144 447.875 183.052 448.074 182.961C448.278 182.87 448.498 182.821 448.74 182.821C449.035 182.821 449.266 182.896 449.427 183.036C449.594 183.181 449.674 183.364 449.674 183.589L447.966 183.896C447.472 183.987 447.08 184.18 446.795 184.47C446.516 184.766 446.371 185.131 446.371 185.571C446.371 186.001 446.543 186.361 446.876 186.662C447.214 186.962 447.649 187.107 448.187 187.107C448.466 187.107 448.734 187.048 448.992 186.93C449.25 186.812 449.422 186.715 449.497 186.64C449.572 186.565 449.631 186.506 449.674 186.452L449.68 187ZM448.573 185.899C448.101 185.899 447.859 185.716 447.859 185.351C447.859 185.013 448.063 184.809 448.466 184.744L449.674 184.524V184.69C449.674 185.072 449.578 185.367 449.379 185.582C449.18 185.797 448.912 185.899 448.573 185.899ZM454.138 179.298H452.65V187H454.138V179.298ZM457.167 179.298H455.679V187H457.167V179.298ZM461.571 181.006C461.571 181.221 461.512 181.393 461.394 181.521C461.276 181.656 461.131 181.72 460.964 181.72H460.47V183.042H461.405V185.238C461.405 186.484 461.969 187.107 463.107 187.107C463.473 187.113 463.806 187.059 464.101 186.946V185.679L464.037 185.7C463.988 185.722 463.918 185.743 463.827 185.765C463.736 185.786 463.645 185.792 463.548 185.792C463.354 185.792 463.199 185.732 463.075 185.614C462.952 185.496 462.893 185.356 462.893 185.185V183.042H463.988V181.72H462.893V180.018H461.571V181.006ZM466.577 184.309C466.577 183.906 466.706 183.568 466.969 183.289C467.227 183.015 467.539 182.875 467.898 182.875C468.253 182.875 468.564 183.015 468.828 183.289C469.085 183.568 469.22 183.906 469.22 184.309C469.22 184.712 469.085 185.05 468.828 185.324C468.564 185.598 468.253 185.732 467.898 185.732C467.539 185.732 467.227 185.598 466.969 185.324C466.706 185.05 466.577 184.712 466.577 184.309ZM470.756 184.304C470.756 183.557 470.471 182.902 469.902 182.343C469.333 181.785 468.667 181.505 467.898 181.505C467.125 181.505 466.459 181.785 465.89 182.343C465.32 182.902 465.036 183.557 465.036 184.304C465.036 185.056 465.32 185.711 465.89 186.27C466.459 186.828 467.125 187.107 467.898 187.107C468.667 187.107 469.333 186.828 469.902 186.27C470.471 185.711 470.756 185.056 470.756 184.304ZM474.054 184.911L475.488 187H477.137L474.994 183.922L477.024 181.607H475.321L473.398 183.81V179.298H471.911V187H473.398V185.679L474.054 184.911ZM482.964 184.798L483.018 184.196C483.018 183.428 482.76 182.789 482.25 182.273C481.734 181.758 481.095 181.5 480.327 181.5C479.554 181.5 478.893 181.779 478.345 182.327C477.792 182.875 477.518 183.536 477.518 184.304C477.518 185.077 477.797 185.738 478.356 186.286C478.915 186.833 479.586 187.107 480.381 187.107C480.66 187.107 480.929 187.075 481.192 187.011C481.455 186.946 481.67 186.876 481.836 186.791C481.998 186.705 482.153 186.608 482.304 186.5C482.449 186.393 482.545 186.318 482.588 186.275L482.69 186.173L481.922 185.185L481.767 185.351C481.67 185.464 481.498 185.577 481.262 185.684C481.025 185.792 480.768 185.845 480.488 185.845C480.102 185.845 479.779 185.749 479.527 185.544C479.269 185.34 479.113 185.093 479.06 184.798H482.964ZM480.327 182.768C480.639 182.768 480.907 182.864 481.122 183.047C481.337 183.235 481.477 183.471 481.536 183.756H479.06C479.146 183.466 479.301 183.224 479.521 183.042C479.742 182.859 480.01 182.768 480.327 182.768ZM485.607 181.607H484.125V187H485.607V184.196C485.607 183.793 485.704 183.482 485.902 183.262C486.101 183.042 486.37 182.929 486.708 182.929C487.014 182.929 487.267 183.031 487.46 183.235C487.653 183.439 487.75 183.702 487.75 184.03V187H489.232V183.863C489.232 183.144 489.039 182.569 488.652 182.139C488.266 181.715 487.761 181.5 487.143 181.5C486.853 181.5 486.574 181.575 486.305 181.715C486.037 181.86 485.865 181.973 485.784 182.059C485.709 182.145 485.645 182.214 485.602 182.273L485.607 181.607ZM494.405 182.327L494.217 182.118C494.093 181.989 493.873 181.849 493.562 181.709C493.25 181.57 492.906 181.5 492.536 181.5C491.945 181.5 491.451 181.677 491.048 182.026C490.645 182.381 490.446 182.773 490.446 183.203C490.446 183.536 490.527 183.815 490.699 184.03C490.865 184.25 491.069 184.411 491.311 184.513C491.553 184.621 491.8 184.707 492.047 184.782C492.294 184.857 492.498 184.943 492.67 185.04C492.836 185.136 492.922 185.26 492.922 185.405C492.922 185.555 492.858 185.673 492.74 185.765C492.622 185.856 492.444 185.899 492.208 185.899C491.993 185.899 491.784 185.845 491.585 185.732C491.381 185.62 491.252 185.528 491.188 185.464C491.123 185.399 491.08 185.34 491.053 185.297L490.226 186.119L490.301 186.232C490.355 186.296 490.441 186.377 490.559 186.474C490.677 186.57 490.822 186.662 490.983 186.758C491.145 186.855 491.354 186.941 491.612 187.005C491.87 187.075 492.138 187.107 492.428 187.107C493.094 187.107 493.615 186.946 493.997 186.619C494.378 186.296 494.571 185.888 494.571 185.405C494.571 185.072 494.485 184.787 494.319 184.562C494.147 184.336 493.943 184.169 493.696 184.067C493.449 183.965 493.202 183.879 492.96 183.804C492.718 183.729 492.514 183.648 492.348 183.552C492.176 183.46 492.095 183.342 492.095 183.203C492.095 183.09 492.154 182.988 492.272 182.902C492.391 182.816 492.552 182.768 492.756 182.768C492.917 182.768 493.073 182.811 493.229 182.891C493.379 182.972 493.481 183.036 493.529 183.084C493.578 183.138 493.615 183.176 493.637 183.203L494.405 182.327ZM500.898 187H502.381V183.643C502.381 183.031 502.166 182.521 501.736 182.112C501.307 181.704 500.748 181.5 500.071 181.5C499.808 181.5 499.55 181.543 499.298 181.618C499.051 181.693 498.847 181.779 498.691 181.871C498.541 181.962 498.396 182.064 498.267 182.182C498.138 182.3 498.052 182.386 498.014 182.435C497.977 182.483 497.944 182.521 497.923 182.547L498.745 183.369L498.868 183.24C498.954 183.144 499.094 183.052 499.292 182.961C499.497 182.87 499.717 182.821 499.958 182.821C500.254 182.821 500.485 182.896 500.646 183.036C500.812 183.181 500.893 183.364 500.893 183.589L499.185 183.896C498.691 183.987 498.299 184.18 498.014 184.47C497.735 184.766 497.59 185.131 497.59 185.571C497.59 186.001 497.762 186.361 498.095 186.662C498.433 186.962 498.868 187.107 499.405 187.107C499.685 187.107 499.953 187.048 500.211 186.93C500.469 186.812 500.641 186.715 500.716 186.64C500.791 186.565 500.85 186.506 500.893 186.452L500.898 187ZM499.792 185.899C499.319 185.899 499.078 185.716 499.078 185.351C499.078 185.013 499.282 184.809 499.685 184.744L500.893 184.524V184.69C500.893 185.072 500.796 185.367 500.598 185.582C500.399 185.797 500.13 185.899 499.792 185.899ZM507.059 181.554H506.839C506.543 181.554 506.264 181.624 505.996 181.752C505.727 181.887 505.555 181.994 505.475 182.075C505.399 182.155 505.335 182.22 505.292 182.268V181.607H503.81V187H505.292V184.417C505.292 183.955 505.41 183.6 505.636 183.353C505.861 183.106 506.173 182.982 506.56 182.982C506.78 182.988 506.946 183.009 507.054 183.047L507.059 181.554ZM513 184.798L513.053 184.196C513.053 183.428 512.795 182.789 512.285 182.273C511.77 181.758 511.13 181.5 510.362 181.5C509.589 181.5 508.928 181.779 508.38 182.327C507.827 182.875 507.553 183.536 507.553 184.304C507.553 185.077 507.833 185.738 508.391 186.286C508.95 186.833 509.621 187.107 510.416 187.107C510.695 187.107 510.964 187.075 511.227 187.011C511.49 186.946 511.705 186.876 511.872 186.791C512.033 186.705 512.188 186.608 512.339 186.5C512.484 186.393 512.581 186.318 512.624 186.275L512.726 186.173L511.958 185.185L511.802 185.351C511.705 185.464 511.533 185.577 511.297 185.684C511.061 185.792 510.803 185.845 510.523 185.845C510.137 185.845 509.814 185.749 509.562 185.544C509.304 185.34 509.148 185.093 509.095 184.798H513ZM510.362 182.768C510.674 182.768 510.942 182.864 511.157 183.047C511.372 183.235 511.512 183.471 511.571 183.756H509.095C509.181 183.466 509.336 183.224 509.557 183.042C509.777 182.859 510.045 182.768 510.362 182.768ZM410.283 200H411.937V192.298H410.283V200ZM419.14 192.298V197.196L415.348 192.298H413.914V200H415.568V195.107L419.36 200H420.789V192.298H419.14ZM425.354 194.006C425.354 194.221 425.295 194.393 425.177 194.521C425.059 194.656 424.914 194.72 424.747 194.72H424.253V196.042H425.188V198.238C425.188 199.484 425.751 200.107 426.89 200.107C427.255 200.113 427.588 200.059 427.884 199.946V198.679L427.819 198.7C427.771 198.722 427.701 198.743 427.61 198.765C427.519 198.786 427.427 198.792 427.331 198.792C427.137 198.792 426.981 198.732 426.858 198.614C426.734 198.496 426.675 198.356 426.675 198.185V196.042H427.771V194.72H426.675V193.018H425.354V194.006ZM430.693 192.298H429.205V200H430.693V197.196C430.693 196.793 430.79 196.482 430.988 196.262C431.182 196.042 431.45 195.929 431.789 195.929C432.095 195.929 432.347 196.031 432.541 196.235C432.734 196.439 432.836 196.702 432.836 197.03V200H434.318V196.863C434.318 196.144 434.12 195.569 433.733 195.139C433.346 194.715 432.841 194.5 432.229 194.5C431.934 194.5 431.654 194.575 431.386 194.715C431.117 194.86 430.945 194.973 430.87 195.059C430.795 195.145 430.73 195.214 430.688 195.273L430.693 192.298ZM440.86 197.798L440.914 197.196C440.914 196.428 440.656 195.789 440.146 195.273C439.63 194.758 438.991 194.5 438.223 194.5C437.45 194.5 436.789 194.779 436.241 195.327C435.688 195.875 435.414 196.536 435.414 197.304C435.414 198.077 435.693 198.738 436.252 199.286C436.811 199.833 437.482 200.107 438.277 200.107C438.556 200.107 438.825 200.075 439.088 200.011C439.351 199.946 439.566 199.876 439.732 199.791C439.894 199.705 440.049 199.608 440.2 199.5C440.345 199.393 440.441 199.318 440.484 199.275L440.586 199.173L439.818 198.185L439.663 198.351C439.566 198.464 439.394 198.577 439.158 198.684C438.921 198.792 438.664 198.845 438.384 198.845C437.998 198.845 437.675 198.749 437.423 198.544C437.165 198.34 437.009 198.093 436.956 197.798H440.86ZM438.223 195.768C438.535 195.768 438.803 195.864 439.018 196.047C439.233 196.235 439.373 196.471 439.432 196.756H436.956C437.042 196.466 437.197 196.224 437.417 196.042C437.638 195.859 437.906 195.768 438.223 195.768ZM443.503 194.607H442.021V200H443.503V197.196C443.503 196.793 443.6 196.482 443.798 196.262C443.997 196.042 444.266 195.929 444.604 195.929C444.91 195.929 445.163 196.031 445.356 196.235C445.549 196.439 445.646 196.702 445.646 197.03V200H447.128V196.863C447.128 196.144 446.935 195.569 446.548 195.139C446.162 194.715 445.657 194.5 445.039 194.5C444.749 194.5 444.47 194.575 444.201 194.715C443.933 194.86 443.761 194.973 443.68 195.059C443.605 195.145 443.541 195.214 443.498 195.273L443.503 194.607ZM451.146 192.298V200H454.009C455.126 200 456.066 199.629 456.829 198.883C457.586 198.142 457.967 197.229 457.967 196.149C457.967 195.075 457.586 194.162 456.829 193.415C456.066 192.674 455.126 192.298 454.009 192.298H451.146ZM454.009 193.786C454.664 193.786 455.217 194.017 455.658 194.473C456.098 194.935 456.318 195.494 456.318 196.154C456.318 196.815 456.093 197.374 455.642 197.83C455.19 198.292 454.643 198.518 454.009 198.518H452.8V193.786H454.009ZM459.503 200H461.158V192.298H459.503V200ZM466.491 197.744C466.491 198.034 466.378 198.271 466.153 198.453C465.927 198.641 465.621 198.732 465.224 198.732C464.88 198.732 464.547 198.657 464.235 198.501C463.918 198.351 463.714 198.228 463.623 198.136C463.532 198.045 463.462 197.97 463.414 197.911L462.42 198.899L462.543 199.033C462.613 199.119 462.731 199.227 462.898 199.35C463.059 199.479 463.252 199.603 463.467 199.721C463.682 199.844 463.961 199.952 464.294 200.038C464.627 200.124 464.977 200.167 465.331 200.167C466.244 200.167 466.958 199.941 467.474 199.49C467.99 199.039 468.248 198.458 468.248 197.744C468.248 197.239 468.119 196.826 467.855 196.493C467.598 196.165 467.281 195.929 466.905 195.784C466.529 195.644 466.158 195.515 465.788 195.408C465.417 195.3 465.1 195.171 464.842 195.016C464.584 194.86 464.45 194.65 464.45 194.393C464.45 194.167 464.547 193.968 464.74 193.807C464.934 193.646 465.186 193.565 465.498 193.565C465.761 193.565 466.013 193.63 466.26 193.748C466.507 193.872 466.674 193.968 466.749 194.043C466.824 194.119 466.883 194.178 466.926 194.231L467.915 193.184L467.818 193.077C467.759 193.001 467.657 192.91 467.517 192.808C467.377 192.706 467.211 192.604 467.023 192.507C466.835 192.411 466.593 192.325 466.298 192.25C466.008 192.174 465.702 192.142 465.385 192.142C464.59 192.142 463.94 192.362 463.44 192.803C462.941 193.243 462.688 193.775 462.688 194.398C462.688 194.903 462.823 195.316 463.081 195.649C463.344 195.977 463.661 196.213 464.031 196.358C464.402 196.498 464.772 196.622 465.148 196.729C465.524 196.836 465.841 196.965 466.099 197.126C466.357 197.282 466.491 197.486 466.491 197.744ZM468.962 192.298V193.786H471.164V200H472.813V193.786H475.01V192.298H468.962ZM476.218 200H477.873V197.304H479.301L480.784 200H482.545L480.896 197.083L481.036 197.008C481.133 196.965 481.246 196.885 481.385 196.767C481.52 196.648 481.654 196.509 481.783 196.342C481.912 196.181 482.024 195.961 482.121 195.692C482.218 195.424 482.266 195.139 482.266 194.828C482.266 194.119 482.019 193.522 481.52 193.034C481.02 192.545 480.386 192.298 479.624 192.298H476.213L476.218 200ZM480.617 194.828C480.617 195.107 480.521 195.343 480.322 195.537C480.123 195.73 479.871 195.821 479.57 195.821H477.867V193.786H479.57C479.871 193.786 480.123 193.888 480.322 194.081C480.521 194.28 480.617 194.527 480.617 194.828ZM484.028 200H485.682V192.298H484.028V200ZM491.15 200C491.913 200 492.536 199.78 493.03 199.334C493.519 198.894 493.766 198.362 493.766 197.744C493.766 197.497 493.717 197.266 493.626 197.051C493.535 196.836 493.433 196.665 493.325 196.536C493.212 196.412 493.083 196.299 492.938 196.192C492.788 196.084 492.686 196.02 492.632 195.993C492.579 195.966 492.53 195.945 492.498 195.929L492.589 195.875C492.643 195.843 492.718 195.778 492.804 195.692C492.89 195.606 492.981 195.499 493.073 195.375C493.159 195.257 493.234 195.102 493.293 194.919C493.347 194.736 493.379 194.538 493.379 194.333C493.379 193.796 493.148 193.318 492.691 192.91C492.235 192.502 491.66 192.298 490.962 192.298H487.659V200H491.15ZM489.313 198.625V196.643H491.069C491.37 196.643 491.617 196.74 491.816 196.933C492.015 197.126 492.117 197.357 492.117 197.637C492.117 197.916 492.015 198.152 491.816 198.34C491.617 198.534 491.37 198.625 491.069 198.625H489.313ZM490.849 193.673C491.118 193.673 491.333 193.748 491.494 193.898C491.649 194.049 491.73 194.253 491.73 194.5C491.73 194.752 491.649 194.951 491.494 195.102C491.333 195.252 491.118 195.327 490.849 195.327H489.313V193.673H490.849ZM498.61 198.679C498.138 198.679 497.735 198.507 497.402 198.158C497.069 197.809 496.902 197.379 496.902 196.863V192.298H495.253V196.863C495.253 197.803 495.57 198.587 496.209 199.221C496.843 199.855 497.644 200.172 498.605 200.172C499.566 200.172 500.367 199.855 501.006 199.221C501.64 198.587 501.962 197.803 501.962 196.863V192.298H500.313V196.863C500.313 197.379 500.146 197.814 499.813 198.158C499.48 198.507 499.078 198.679 498.61 198.679ZM503.122 192.298V193.786H505.324V200H506.973V193.786H509.17V192.298H503.122ZM512.033 198.518V196.81H515.164V195.327H512.033V193.786H516.045V192.298H510.378V200H516.158V198.518H512.033Z"
     fill="#474D54"
     id="path204" />
  <defs
     id="defs281">
    <filter
       id="filter0_d"
       x="304"
       y="131"
       width="317"
       height="130"
       filterUnits="userSpaceOnUse"
       color-interpolation-filters="sRGB">
      <feFlood
         flood-opacity="0"
         result="BackgroundImageFix"
         id="feFlood206" />
      <feColorMatrix
         in="SourceAlpha"
         type="matrix"
         values="0 0 0 0 0 0 0 0 0 0 0 0 0 0 0 0 0 0 127 0"
         id="feColorMatrix208" />
      <feOffset
         dy="8"
         id="feOffset210" />
      <feGaussianBlur
         stdDeviation="11"
         id="feGaussianBlur212" />
      <feColorMatrix
         type="matrix"
         values="0 0 0 0 0.652167 0 0 0 0 0.69371 0 0 0 0 0.758333 0 0 0 0.62 0"
         id="feColorMatrix214" />
      <feBlend
         mode="normal"
         in2="BackgroundImageFix"
         result="effect1_dropShadow"
         id="feBlend216" />
      <feBlend
         mode="normal"
         in="SourceGraphic"
         in2="effect1_dropShadow"
         result="shape"
         id="feBlend218" />
    </filter>
    <filter
       id="filter1_d"
       x="304"
       y="33"
       width="317"
       height="130"
       filterUnits="userSpaceOnUse"
       color-interpolation-filters="sRGB">
      <feFlood
         flood-opacity="0"
         result="BackgroundImageFix"
         id="feFlood221" />
      <feColorMatrix
         in="SourceAlpha"
         type="matrix"
         values="0 0 0 0 0 0 0 0 0 0 0 0 0 0 0 0 0 0 127 0"
         id="feColorMatrix223" />
      <feOffset
         dy="8"
         id="feOffset225" />
      <feGaussianBlur
         stdDeviation="11"
         id="feGaussianBlur227" />
      <feColorMatrix
         type="matrix"
         values="0 0 0 0 0.652167 0 0 0 0 0.69371 0 0 0 0 0.758333 0 0 0 0.62 0"
         id="feColorMatrix229" />
      <feBlend
         mode="normal"
         in2="BackgroundImageFix"
         result="effect1_dropShadow"
         id="feBlend231" />
      <feBlend
         mode="normal"
         in="SourceGraphic"
         in2="effect1_dropShadow"
         result="shape"
         id="feBlend233" />
    </filter>
    <linearGradient
       id="paint0_linear"
       x1="285"
       y1="93"
       x2="80"
       y2="93"
       gradientUnits="userSpaceOnUse">
      <stop
         stop-color="#565F6D"
         id="stop236" />
      <stop
         offset="0.539583"
         stop-color="#2194F0"
         id="stop238" />
      <stop
         offset="1"
         stop-color="#D6EEFC"
         id="stop240" />
    </linearGradient>
    <linearGradient
       id="paint1_linear"
       x1="44.8911"
       y1="61.5004"
       x2="64.1841"
       y2="111.075"
       gradientUnits="userSpaceOnUse">
      <stop
         offset="0.0112"
         stop-color="#F8F8F8"
         id="stop243" />
      <stop
         offset="0.7774"
         stop-color="#CCDDFB"
         id="stop245" />
      <stop
         offset="1"
         stop-color="#C7D3FF"
         id="stop247" />
    </linearGradient>
    <linearGradient
       id="paint2_linear"
       x1="897.97"
       y1="65.8773"
       x2="859.077"
       y2="105.745"
       gradientUnits="userSpaceOnUse">
      <stop
         offset="0.0112"
         stop-color="#F8F8F8"
         id="stop250" />
      <stop
         offset="0.7774"
         stop-color="#CCDDFB"
         id="stop252" />
      <stop
         offset="1"
         stop-color="#C7D3FF"
         id="stop254" />
    </linearGradient>
    <linearGradient
       id="paint3_linear"
       x1="646"
       y1="92.9998"
       x2="838"
       y2="92.9998"
       gradientUnits="userSpaceOnUse">
      <stop
         stop-color="#3B4352"
         id="stop257" />
      <stop
         offset="0.477083"
         stop-color="#1966E9"
         id="stop259" />
      <stop
         offset="1"
         stop-color="#CFD9E9"
         id="stop261" />
    </linearGradient>
    <linearGradient
       id="paint4_linear"
       x1="56"
       y1="247"
       x2="439"
       y2="242"
       gradientUnits="userSpaceOnUse">
      <stop
         stop-color="#3B4352"
         id="stop264" />
      <stop
         offset="0.55"
         stop-color="#3F82F3"
         id="stop266" />
      <stop
         offset="1"
         stop-color="#CFD9E9"
         id="stop268" />
    </linearGradient>
    <linearGradient
       id="paint5_linear"
       x1="877"
       y1="247"
       x2="494"
       y2="242"
       gradientUnits="userSpaceOnUse">
      <stop
         stop-color="#3B4352"
         id="stop271" />
      <stop
         offset="0.523958"
         stop-color="#498CFD"
         id="stop273" />
      <stop
         offset="1"
         stop-color="#CFD9E9"
         id="stop275" />
    </linearGradient>
    <clipPath
       id="clip0">
      <rect
         width="41"
         height="41"
         fill="white"
         transform="translate(442 64)"
         id="rect278" />
    </clipPath>
  </defs>
</svg>
