<?xml version="1.0" encoding="UTF-8"?>
<svg width="303px" height="425px" viewBox="0 0 303 425" version="1.1" xmlns="http://www.w3.org/2000/svg" xmlns:xlink="http://www.w3.org/1999/xlink">
    <!-- Generator: Sketch 53.2 (72643) - https://sketchapp.com -->
    <title>Group 66</title>
    <desc>Created with Sketch.</desc>
    <g id="Page-2" stroke="none" stroke-width="1" fill="none" fill-rule="evenodd">
        <g id="Group-66" transform="translate(-0.135000, 0.000000)">
            <g id="Group-65">
                <rect id="Rectangle-Copy-26" fill-opacity="0.2" fill="#000000" x="19.635" y="303" width="260" height="122"></rect>
                <path d="M76.5165,343.287 L78.2165,343.287 L74.2555,355 L72.8785,355 L70.8045,347.69 L68.7475,355 L67.3705,355 L63.4095,343.287 L65.1095,343.287 L68.0505,352.45 L70.2095,344.868 L71.4165,344.868 L73.5755,352.45 L76.5165,343.287 Z M81.3105,350.716 L81.3105,355 L79.7635,355 L79.7635,342.743 L81.3105,342.743 L81.3105,348.251 C81.5258344,347.808998 81.8913308,347.471834 82.407,347.2395 C82.9226692,347.007166 83.4298308,346.891 83.9285,346.891 C84.9258383,346.891 85.7134971,347.19983 86.2915,347.8175 C86.8695029,348.43517 87.1528334,349.299328 87.1415,350.41 L87.1415,355 L85.5945,355 L85.5945,350.512 C85.5945,349.865997 85.4216684,349.353169 85.076,348.9735 C84.7303316,348.593831 84.2798361,348.404 83.7245,348.404 C83.0898302,348.404 82.5288358,348.593831 82.0415,348.9735 C81.5541642,349.353169 81.3105,349.933996 81.3105,350.716 Z M90.6435,350.41 L95.5735,350.41 C95.4828329,349.752663 95.2193355,349.234169 94.783,348.8545 C94.3466645,348.474831 93.8055032,348.285 93.1595,348.285 C92.49083,348.285 91.9270023,348.474831 91.468,348.8545 C91.0089977,349.234169 90.7341671,349.752663 90.6435,350.41 Z M97.1035,351.005 C97.1035,351.299668 97.0978334,351.503666 97.0865,351.617 L90.6435,351.617 C90.7341671,352.274337 91.0146643,352.798498 91.485,353.1895 C91.9553357,353.580502 92.5304966,353.776 93.2105,353.776 C93.6978358,353.776 94.145498,353.668334 94.5535,353.453 C94.961502,353.237666 95.2731656,352.937335 95.4885,352.552 C95.6358341,352.608667 95.8624985,352.696499 96.1685,352.8155 C96.4745015,352.934501 96.6898327,353.016666 96.8145,353.062 C96.4858317,353.742003 95.9928366,354.263332 95.3355,354.626 C94.6781634,354.988668 93.9528373,355.17 93.1595,355.17 C92.0034942,355.17 91.0373372,354.784671 90.261,354.014 C89.4846628,353.243329 89.0965,352.24034 89.0965,351.005 C89.0965,349.76966 89.4846628,348.77517 90.261,348.0215 C91.0373372,347.26783 92.0034942,346.891 93.1595,346.891 C94.3041724,346.891 95.247663,347.26783 95.99,348.0215 C96.732337,348.77517 97.1035,349.76966 97.1035,351.005 Z M100.6225,350.716 L100.6225,355 L99.0755,355 L99.0755,347.061 L100.6225,347.061 L100.6225,348.251 C100.849168,347.808998 101.197664,347.471834 101.668,347.2395 C102.138336,347.007166 102.617164,346.891 103.1045,346.891 C104.090505,346.891 104.846997,347.196997 105.374,347.809 C105.901003,348.421003 106.1645,349.287994 106.1645,350.41 L106.1645,355 L104.6175,355 L104.6175,350.512 C104.6175,349.854663 104.461668,349.339002 104.15,348.965 C103.838332,348.590998 103.410503,348.404 102.8665,348.404 C102.243164,348.404 101.713336,348.593831 101.277,348.9735 C100.840664,349.353169 100.6225,349.933996 100.6225,350.716 Z M119.3565,355 L119.3565,353.776 C119.095832,354.218002 118.710503,354.560832 118.2005,354.8045 C117.690497,355.048168 117.146503,355.17 116.5685,355.17 C115.446494,355.17 114.494504,354.784671 113.7125,354.014 C112.930496,353.243329 112.5395,352.246006 112.5395,351.022 C112.5395,349.78666 112.930496,348.789337 113.7125,348.03 C114.494504,347.270663 115.446494,346.891 116.5685,346.891 C117.146503,346.891 117.693331,347.009999 118.209,347.248 C118.724669,347.486001 119.107165,347.820331 119.3565,348.251 L119.3565,347.061 L120.8865,347.061 L120.8865,355 L119.3565,355 Z M119.3395,351.005 C119.3395,350.200329 119.073169,349.565669 118.5405,349.101 C118.007831,348.636331 117.395837,348.404 116.7045,348.404 C115.96783,348.404 115.353002,348.644831 114.86,349.1265 C114.366998,349.608169 114.1205,350.234329 114.1205,351.005 C114.1205,351.775671 114.369831,352.410331 114.8685,352.909 C115.367169,353.407669 115.979163,353.657 116.7045,353.657 C117.44117,353.657 118.064497,353.419002 118.5745,352.943 C119.084503,352.466998 119.3395,351.821004 119.3395,351.005 Z M123.4705,342.743 L125.0175,342.743 L125.0175,355 L123.4705,355 L123.4705,342.743 Z M127.6015,342.743 L129.1485,342.743 L129.1485,355 L127.6015,355 L127.6015,342.743 Z M138.2945,347.061 L139.9775,347.061 L139.9775,348.37 L138.2945,348.37 L138.2945,355 L136.7475,355 L136.7475,348.37 L135.3195,348.37 L135.3195,347.061 L136.7475,347.061 L136.7475,344.069 L138.2945,344.069 L138.2945,347.061 Z M148.2905,354.014 C147.485829,354.784671 146.505506,355.17 145.3495,355.17 C144.193494,355.17 143.213171,354.784671 142.4085,354.014 C141.603829,353.243329 141.2015,352.24034 141.2015,351.005 C141.2015,349.780994 141.600996,348.789337 142.4,348.03 C143.199004,347.270663 144.182161,346.891 145.3495,346.891 C146.516839,346.891 147.502829,347.270663 148.3075,348.03 C149.112171,348.789337 149.5145,349.780994 149.5145,351.005 C149.5145,352.229006 149.106504,353.231996 148.2905,354.014 Z M143.4795,352.943 C143.989503,353.430336 144.61283,353.674 145.3495,353.674 C146.08617,353.674 146.706664,353.427502 147.211,352.9345 C147.715336,352.441498 147.9675,351.798337 147.9675,351.005 C147.9675,350.222996 147.715336,349.594002 147.211,349.118 C146.706664,348.641998 146.08617,348.404 145.3495,348.404 C144.61283,348.404 143.992336,348.641998 143.488,349.118 C142.983664,349.594002 142.7315,350.222996 142.7315,351.005 C142.7315,351.798337 142.980831,352.444331 143.4795,352.943 Z M153.1015,351.124 L153.1015,355 L151.5715,355 L151.5715,342.743 L153.1015,342.743 L153.1015,349.832 L155.8385,347.061 L157.9465,347.061 L154.5465,350.495 L158.7625,355 L156.7225,355 L153.1015,351.124 Z M161.1255,350.41 L166.0555,350.41 C165.964833,349.752663 165.701336,349.234169 165.265,348.8545 C164.828664,348.474831 164.287503,348.285 163.6415,348.285 C162.97283,348.285 162.409002,348.474831 161.95,348.8545 C161.490998,349.234169 161.216167,349.752663 161.1255,350.41 Z M167.5855,351.005 C167.5855,351.299668 167.579833,351.503666 167.5685,351.617 L161.1255,351.617 C161.216167,352.274337 161.496664,352.798498 161.967,353.1895 C162.437336,353.580502 163.012497,353.776 163.6925,353.776 C164.179836,353.776 164.627498,353.668334 165.0355,353.453 C165.443502,353.237666 165.755166,352.937335 165.9705,352.552 C166.117834,352.608667 166.344498,352.696499 166.6505,352.8155 C166.956502,352.934501 167.171833,353.016666 167.2965,353.062 C166.967832,353.742003 166.474837,354.263332 165.8175,354.626 C165.160163,354.988668 164.434837,355.17 163.6415,355.17 C162.485494,355.17 161.519337,354.784671 160.743,354.014 C159.966663,353.243329 159.5785,352.24034 159.5785,351.005 C159.5785,349.76966 159.966663,348.77517 160.743,348.0215 C161.519337,347.26783 162.485494,346.891 163.6415,346.891 C164.786172,346.891 165.729663,347.26783 166.472,348.0215 C167.214337,348.77517 167.5855,349.76966 167.5855,351.005 Z M171.1045,350.716 L171.1045,355 L169.5575,355 L169.5575,347.061 L171.1045,347.061 L171.1045,348.251 C171.331168,347.808998 171.679664,347.471834 172.15,347.2395 C172.620336,347.007166 173.099164,346.891 173.5865,346.891 C174.572505,346.891 175.328997,347.196997 175.856,347.809 C176.383003,348.421003 176.6465,349.287994 176.6465,350.41 L176.6465,355 L175.0995,355 L175.0995,350.512 C175.0995,349.854663 174.943668,349.339002 174.632,348.965 C174.320332,348.590998 173.892503,348.404 173.3485,348.404 C172.725164,348.404 172.195336,348.593831 171.759,348.9735 C171.322664,349.353169 171.1045,349.933996 171.1045,350.716 Z M180.9305,351.498 C180.171163,351.293999 179.610168,350.988002 179.2475,350.58 C178.884832,350.171998 178.7375,349.61667 178.8055,348.914 C178.862167,348.335997 179.156831,347.854335 179.6895,347.469 C180.222169,347.083665 180.845496,346.891 181.5595,346.891 C182.29617,346.891 182.922331,347.075165 183.438,347.4435 C183.953669,347.811835 184.2455,348.375663 184.3135,349.135 L182.8345,349.135 C182.789166,348.851665 182.650334,348.630667 182.418,348.472 C182.185666,348.313333 181.910835,348.234 181.5935,348.234 C181.298832,348.234 181.041001,348.299166 180.82,348.4295 C180.598999,348.559834 180.460167,348.732666 180.4035,348.948 C180.3355,349.197335 180.341166,349.406999 180.4205,349.577 C180.545167,349.837668 180.856831,350.041666 181.3555,350.189 L182.5285,350.478 C183.89984,350.818002 184.5855,351.588661 184.5855,352.79 C184.5855,353.504004 184.288003,354.079164 183.693,354.5155 C183.097997,354.951836 182.369838,355.17 181.5085,355.17 C180.749163,355.17 180.072003,354.937669 179.477,354.473 C178.881997,354.008331 178.573167,353.390671 178.5505,352.62 L179.9615,352.62 C180.0295,353.039335 180.244832,353.339666 180.6075,353.521 C180.958835,353.736334 181.378164,353.827 181.8655,353.793 C182.228168,353.770333 182.517166,353.662668 182.7325,353.47 C182.947834,353.277332 183.061167,353.039335 183.0725,352.756 C183.083833,352.483999 182.993168,352.268667 182.8005,352.11 C182.607832,351.951333 182.347168,351.832334 182.0185,351.753 L180.9305,351.498 Z M197.3015,355 L197.3015,353.776 C197.040832,354.218002 196.655503,354.560832 196.1455,354.8045 C195.635497,355.048168 195.091503,355.17 194.5135,355.17 C193.391494,355.17 192.439504,354.784671 191.6575,354.014 C190.875496,353.243329 190.4845,352.246006 190.4845,351.022 C190.4845,349.78666 190.875496,348.789337 191.6575,348.03 C192.439504,347.270663 193.391494,346.891 194.5135,346.891 C195.091503,346.891 195.638331,347.009999 196.154,347.248 C196.669669,347.486001 197.052165,347.820331 197.3015,348.251 L197.3015,347.061 L198.8315,347.061 L198.8315,355 L197.3015,355 Z M197.2845,351.005 C197.2845,350.200329 197.018169,349.565669 196.4855,349.101 C195.952831,348.636331 195.340837,348.404 194.6495,348.404 C193.91283,348.404 193.298002,348.644831 192.805,349.1265 C192.311998,349.608169 192.0655,350.234329 192.0655,351.005 C192.0655,351.775671 192.314831,352.410331 192.8135,352.909 C193.312169,353.407669 193.924163,353.657 194.6495,353.657 C195.38617,353.657 196.009497,353.419002 196.5195,352.943 C197.029503,352.466998 197.2845,351.821004 197.2845,351.005 Z M202.9625,352.11 L202.9625,355 L201.4155,355 L201.4155,347.061 L202.9625,347.061 L202.9625,348.846 C203.347835,347.54266 204.084495,346.891 205.1725,346.891 C205.795836,346.891 206.254832,346.992999 206.5495,347.197 L206.3115,348.642 C205.937498,348.460666 205.546502,348.37 205.1385,348.37 C204.413163,348.37 203.869168,348.71283 203.5065,349.3985 C203.143832,350.08417 202.9625,350.987994 202.9625,352.11 Z M209.1505,350.41 L214.0805,350.41 C213.989833,349.752663 213.726336,349.234169 213.29,348.8545 C212.853664,348.474831 212.312503,348.285 211.6665,348.285 C210.99783,348.285 210.434002,348.474831 209.975,348.8545 C209.515998,349.234169 209.241167,349.752663 209.1505,350.41 Z M215.6105,351.005 C215.6105,351.299668 215.604833,351.503666 215.5935,351.617 L209.1505,351.617 C209.241167,352.274337 209.521664,352.798498 209.992,353.1895 C210.462336,353.580502 211.037497,353.776 211.7175,353.776 C212.204836,353.776 212.652498,353.668334 213.0605,353.453 C213.468502,353.237666 213.780166,352.937335 213.9955,352.552 C214.142834,352.608667 214.369498,352.696499 214.6755,352.8155 C214.981502,352.934501 215.196833,353.016666 215.3215,353.062 C214.992832,353.742003 214.499837,354.263332 213.8425,354.626 C213.185163,354.988668 212.459837,355.17 211.6665,355.17 C210.510494,355.17 209.544337,354.784671 208.768,354.014 C207.991663,353.243329 207.6035,352.24034 207.6035,351.005 C207.6035,349.76966 207.991663,348.77517 208.768,348.0215 C209.544337,347.26783 210.510494,346.891 211.6665,346.891 C212.811172,346.891 213.754663,347.26783 214.497,348.0215 C215.239337,348.77517 215.6105,349.76966 215.6105,351.005 Z M222.3085,343.287 L223.8895,343.287 L223.8895,355 L222.3085,355 L222.3085,343.287 Z M235.5175,355 L234.0045,355 L228.6665,346.177 L228.6665,355 L227.0855,355 L227.0855,343.287 L228.6495,343.287 L233.9365,352.042 L233.9365,343.287 L235.5175,343.287 L235.5175,355 Z M87.507,373.061 L89.19,373.061 L89.19,374.37 L87.507,374.37 L87.507,381 L85.96,381 L85.96,374.37 L84.532,374.37 L84.532,373.061 L85.96,373.061 L85.96,370.069 L87.507,370.069 L87.507,373.061 Z M92.488,376.716 L92.488,381 L90.941,381 L90.941,368.743 L92.488,368.743 L92.488,374.251 C92.7033344,373.808998 93.0688308,373.471834 93.5845,373.2395 C94.1001692,373.007166 94.6073308,372.891 95.106,372.891 C96.1033383,372.891 96.8909971,373.19983 97.469,373.8175 C98.0470029,374.43517 98.3303334,375.299328 98.319,376.41 L98.319,381 L96.772,381 L96.772,376.512 C96.772,375.865997 96.5991684,375.353169 96.2535,374.9735 C95.9078316,374.593831 95.4573361,374.404 94.902,374.404 C94.2673302,374.404 93.7063358,374.593831 93.219,374.9735 C92.7316642,375.353169 92.488,375.933996 92.488,376.716 Z M101.821,376.41 L106.751,376.41 C106.660333,375.752663 106.396836,375.234169 105.9605,374.8545 C105.524164,374.474831 104.983003,374.285 104.337,374.285 C103.66833,374.285 103.104502,374.474831 102.6455,374.8545 C102.186498,375.234169 101.911667,375.752663 101.821,376.41 Z M108.281,377.005 C108.281,377.299668 108.275333,377.503666 108.264,377.617 L101.821,377.617 C101.911667,378.274337 102.192164,378.798498 102.6625,379.1895 C103.132836,379.580502 103.707997,379.776 104.388,379.776 C104.875336,379.776 105.322998,379.668334 105.731,379.453 C106.139002,379.237666 106.450666,378.937335 106.666,378.552 C106.813334,378.608667 107.039998,378.696499 107.346,378.8155 C107.652002,378.934501 107.867333,379.016666 107.992,379.062 C107.663332,379.742003 107.170337,380.263332 106.513,380.626 C105.855663,380.988668 105.130337,381.17 104.337,381.17 C103.180994,381.17 102.214837,380.784671 101.4385,380.014 C100.662163,379.243329 100.274,378.24034 100.274,377.005 C100.274,375.76966 100.662163,374.77517 101.4385,374.0215 C102.214837,373.26783 103.180994,372.891 104.337,372.891 C105.481672,372.891 106.425163,373.26783 107.1675,374.0215 C107.909837,374.77517 108.281,375.76966 108.281,377.005 Z M111.8,376.716 L111.8,381 L110.253,381 L110.253,373.061 L111.8,373.061 L111.8,374.251 C112.026668,373.808998 112.375164,373.471834 112.8455,373.2395 C113.315836,373.007166 113.794664,372.891 114.282,372.891 C115.268005,372.891 116.024497,373.196997 116.5515,373.809 C117.078503,374.421003 117.342,375.287994 117.342,376.41 L117.342,381 L115.795,381 L115.795,376.512 C115.795,375.854663 115.639168,375.339002 115.3275,374.965 C115.015832,374.590998 114.588003,374.404 114.044,374.404 C113.420664,374.404 112.890836,374.593831 112.4545,374.9735 C112.018164,375.353169 111.8,375.933996 111.8,376.716 Z M129.089,381 L124.55,381 L124.55,369.287 L129.089,369.287 C130.709675,369.287 131.993162,369.839494 132.9395,370.9445 C133.885838,372.049506 134.359,373.457658 134.359,375.169 C134.359,376.869009 133.888671,378.265828 132.948,379.3595 C132.007329,380.453172 130.721008,381 129.089,381 Z M126.131,379.521 L129.089,379.521 C130.267673,379.521 131.177163,379.115837 131.8175,378.3055 C132.457837,377.495163 132.778,376.449673 132.778,375.169 C132.778,373.876994 132.457837,372.820171 131.8175,371.9985 C131.177163,371.176829 130.267673,370.766 129.089,370.766 L126.131,370.766 L126.131,379.521 Z M136.858,369.287 L138.439,369.287 L138.439,381 L136.858,381 L136.858,369.287 Z M142.502,377.617 C142.513333,378.149669 142.756998,378.628498 143.233,379.0535 C143.709002,379.478502 144.303996,379.691 145.018,379.691 C145.72067,379.691 146.270331,379.526668 146.667,379.198 C147.063669,378.869332 147.301666,378.461336 147.381,377.974 C147.426334,377.395997 147.259169,376.937002 146.8795,376.597 C146.499831,376.256998 146.004003,376.019001 145.392,375.883 L143.879,375.509 C141.97499,375.021664 141.023,374.001674 141.023,372.449 C141.023,371.485662 141.396996,370.69517 142.145,370.0775 C142.893004,369.45983 143.782662,369.151 144.814,369.151 C145.902005,369.151 146.802996,369.465497 147.517,370.0945 C148.231004,370.723503 148.588,371.553662 148.588,372.585 L147.007,372.585 C147.007,372.006997 146.800169,371.542335 146.3865,371.191 C145.972831,370.839665 145.443003,370.664 144.797,370.664 C144.207664,370.664 143.694836,370.828332 143.2585,371.157 C142.822164,371.485668 142.604,371.910664 142.604,372.432 C142.604,373.248004 143.159328,373.791999 144.27,374.064 L145.8,374.438 C146.910672,374.721335 147.737997,375.174664 148.282,375.798 C148.826003,376.421336 149.041334,377.191995 148.928,378.11 C148.825999,378.994004 148.426503,379.724997 147.7295,380.303 C147.032497,380.881003 146.128672,381.17 145.018,381.17 C143.850661,381.17 142.876004,380.815837 142.094,380.1075 C141.311996,379.399163 140.921,378.569005 140.921,377.617 L142.502,377.617 Z M150.254,369.287 L158.958,369.287 L158.958,370.783 L155.405,370.783 L155.405,381 L153.807,381 L153.807,370.783 L150.254,370.783 L150.254,369.287 Z M165.945,376.563 L169.073,381 L167.152,381 L164.126,376.614 L162.63,376.614 L162.63,381 L161.032,381 L161.032,369.287 L165.537,369.287 C166.693006,369.287 167.559997,369.643996 168.138,370.358 C168.716003,371.072004 169.005,371.938995 169.005,372.959 C169.005,373.911005 168.752836,374.726997 168.2485,375.407 C167.744164,376.087003 166.976338,376.472333 165.945,376.563 Z M165.486,370.766 L162.63,370.766 L162.63,375.135 L165.418,375.135 C166.08667,375.135 166.579665,374.925335 166.897,374.506 C167.214335,374.086665 167.373,373.571003 167.373,372.959 C167.373,372.35833 167.217168,371.842669 166.9055,371.412 C166.593832,370.981331 166.12067,370.766 165.486,370.766 Z M171.555,369.287 L173.136,369.287 L173.136,381 L171.555,381 L171.555,369.287 Z M183.931,372.313 C183.931,373.571006 183.438005,374.386998 182.452,374.761 C183.075336,374.885667 183.582498,375.236997 183.9735,375.815 C184.364502,376.393003 184.56,376.993664 184.56,377.617 C184.56,378.569005 184.248336,379.37083 183.625,380.0225 C183.001664,380.67417 182.168672,381 181.126,381 L176.332,381 L176.332,369.287 L180.752,369.287 C181.726672,369.287 182.500164,369.558997 183.0725,370.103 C183.644836,370.647003 183.931,371.383662 183.931,372.313 Z M177.93,374.149 L180.752,374.149 C181.250669,374.149 181.635999,373.979002 181.908,373.639 C182.180001,373.298998 182.316,372.874003 182.316,372.364 C182.316,371.853997 182.160168,371.457335 181.8485,371.174 C181.536832,370.890665 181.114669,370.749 180.582,370.749 L177.93,370.749 L177.93,374.149 Z M181.007,375.543 L177.93,375.543 L177.93,379.521 L181.058,379.521 C181.613336,379.521 182.063832,379.331169 182.4095,378.9515 C182.755168,378.571831 182.928,378.121336 182.928,377.6 C182.928,377.089997 182.746668,376.619669 182.384,376.189 C182.021332,375.758331 181.562336,375.543 181.007,375.543 Z M189.269,378.892 C189.790336,379.390669 190.424996,379.64 191.173,379.64 C191.921004,379.64 192.555664,379.390669 193.077,378.892 C193.598336,378.393331 193.859,377.753004 193.859,376.971 L193.859,369.287 L195.457,369.287 L195.457,376.971 C195.457,378.217673 195.040504,379.229163 194.2075,380.0055 C193.374496,380.781837 192.363006,381.17 191.173,381.17 C189.982994,381.17 188.971504,380.781837 188.1385,380.0055 C187.305496,379.229163 186.889,378.217673 186.889,376.971 L186.889,369.287 L188.487,369.287 L188.487,376.971 C188.487,377.753004 188.747664,378.393331 189.269,378.892 Z M197.412,369.287 L206.116,369.287 L206.116,370.783 L202.563,370.783 L202.563,381 L200.965,381 L200.965,370.783 L197.412,370.783 L197.412,369.287 Z M208.19,369.287 L215.126,369.287 L215.126,370.766 L209.771,370.766 L209.771,374.506 L214.446,374.506 L214.446,375.985 L209.771,375.985 L209.771,379.521 L215.296,379.521 L215.296,381 L208.19,381 L208.19,369.287 Z" id="WhenalltokensareINthenDISTRIBUTE" fill="#FFFFFF" fill-rule="nonzero"></path>
                <path d="M144.635,220.065732 C131.05917,222.498491 120.76,234.303596 120.76,248.5 C120.76,262.696404 131.05917,274.501509 144.635,276.934268 L144.635,297 L19.635,297 L19.635,200 L144.635,200 L144.635,220.065732 Z" id="Combined-Shape" fill-opacity="0.2" fill="#000000"></path>
                <path d="M279.635,220.065732 C266.05917,222.498491 255.76,234.303596 255.76,248.5 C255.76,262.696404 266.05917,274.501509 279.635,276.934268 L279.635,297 L154.635,297 L154.635,200 L279.635,200 L279.635,220.065732 Z" id="Combined-Shape-Copy-2" fill-opacity="0.2" fill="#000000" transform="translate(217.135000, 248.500000) scale(-1, 1) translate(-217.135000, -248.500000) "></path>
                <path d="M39,230.04 L39,240 L36.9,240 L36.9,232.965 L35.22,233.685 L35.22,231.84 L39,230.04 Z M41.16,235.08 C41.16,231.679983 42.3849877,229.98 44.835,229.98 C45.5250034,229.98 46.1149975,230.109999 46.605,230.37 C47.0950024,230.630001 47.4724987,230.999998 47.7375,231.48 C48.0025013,231.960002 48.1924994,232.492497 48.3075,233.0775 C48.4225006,233.662503 48.48,234.329996 48.48,235.08 C48.48,235.830004 48.4225006,236.492497 48.3075,237.0675 C48.1924994,237.642503 48.0025013,238.169998 47.7375,238.65 C47.4724987,239.130002 47.0950024,239.499999 46.605,239.76 C46.1149975,240.020001 45.5250034,240.15 44.835,240.15 C42.3849877,240.15 41.16,238.460017 41.16,235.08 Z M43.26,235.08 C43.26,237.10001 43.7849947,238.11 44.835,238.11 C45.8650051,238.11 46.38,237.10001 46.38,235.08 C46.38,233.03999 45.8650051,232.02 44.835,232.02 C43.7849947,232.02 43.26,233.03999 43.26,235.08 Z M50.22,235.08 C50.22,231.679983 51.4449877,229.98 53.895,229.98 C54.5850034,229.98 55.1749975,230.109999 55.665,230.37 C56.1550024,230.630001 56.5324987,230.999998 56.7975,231.48 C57.0625013,231.960002 57.2524994,232.492497 57.3675,233.0775 C57.4825006,233.662503 57.54,234.329996 57.54,235.08 C57.54,235.830004 57.4825006,236.492497 57.3675,237.0675 C57.2524994,237.642503 57.0625013,238.169998 56.7975,238.65 C56.5324987,239.130002 56.1550024,239.499999 55.665,239.76 C55.1749975,240.020001 54.5850034,240.15 53.895,240.15 C51.4449877,240.15 50.22,238.460017 50.22,235.08 Z M52.32,235.08 C52.32,237.10001 52.8449947,238.11 53.895,238.11 C54.9250051,238.11 55.44,237.10001 55.44,235.08 C55.44,233.03999 54.9250051,232.02 53.895,232.02 C52.8449947,232.02 52.32,233.03999 52.32,235.08 Z M71.865,231.24 L70.245,232.635 C69.6249969,231.934996 68.8700045,231.585 67.98,231.585 C67.1099957,231.585 66.377503,231.904997 65.7825,232.545 C65.187497,233.185003 64.89,233.954995 64.89,234.855 C64.89,235.755005 65.189997,236.527497 65.79,237.1725 C66.390003,237.817503 67.1199957,238.14 67.98,238.14 C68.580003,238.14 69.1449973,237.972502 69.675,237.6375 C70.2050027,237.302498 70.4749999,236.875003 70.485,236.355 L67.71,236.355 L67.71,234.57 L73.02,234.57 C73.02,236.440009 72.5675045,237.837495 71.6625,238.7625 C70.7574955,239.687505 69.5300077,240.15 67.98,240.15 C66.4999926,240.15 65.2475051,239.632505 64.2225,238.5975 C63.1974949,237.562495 62.685,236.315007 62.685,234.855 C62.685,233.384993 63.1974949,232.132505 64.2225,231.0975 C65.2475051,230.062495 66.4999926,229.545 67.98,229.545 C68.7600039,229.545 69.4874966,229.694999 70.1625,229.995 C70.8375034,230.295001 71.4049977,230.709997 71.865,231.24 Z M78.75,231.6 L76.83,231.6 L76.83,234.51 L78.69,234.51 C79.090002,234.51 79.4074988,234.360001 79.6425,234.06 C79.8775012,233.759998 79.995,233.425002 79.995,233.055 C79.995,232.694998 79.8825011,232.362502 79.6575,232.0575 C79.4324989,231.752498 79.1300019,231.6 78.75,231.6 Z M79.71,236.34 L82.275,240 L79.635,240 L77.325,236.43 L76.83,236.43 L76.83,240 L74.625,240 L74.625,229.665 L78.855,229.665 C79.9550055,229.665 80.802497,229.997497 81.3975,230.6625 C81.992503,231.327503 82.29,232.124995 82.29,233.055 C82.29,233.845004 82.0700022,234.544997 81.63,235.155 C81.1899978,235.765003 80.5500042,236.159999 79.71,236.34 Z M84.18,240 L84.18,229.665 L90.72,229.665 L90.72,231.6 L86.37,231.6 L86.37,233.955 L90.18,233.955 L90.18,235.86 L86.37,235.86 L86.37,238.065 L90.855,238.065 L90.855,240 L84.18,240 Z M92.82,240 L92.82,229.665 L99.36,229.665 L99.36,231.6 L95.01,231.6 L95.01,233.955 L98.82,233.955 L98.82,235.86 L95.01,235.86 L95.01,238.065 L99.495,238.065 L99.495,240 L92.82,240 Z M109.215,229.665 L109.215,240 L107.25,240 L103.65,233.745 L103.65,240 L101.46,240 L101.46,229.665 L103.47,229.665 L107.01,235.845 L107.01,229.665 L109.215,229.665 Z M35.055,257.645 L35.055,255.665 L42.855,255.665 L42.855,257.645 L40.065,257.645 L40.065,266 L37.845,266 L37.845,257.645 L35.055,257.645 Z M46.725,258.635 C46.134997,259.245003 45.84,259.984996 45.84,260.855 C45.84,261.725004 46.134997,262.462497 46.725,263.0675 C47.3150029,263.672503 48.0349957,263.975 48.885,263.975 C49.7350043,263.975 50.457497,263.670003 51.0525,263.06 C51.647503,262.449997 51.945,261.715004 51.945,260.855 C51.945,259.984996 51.647503,259.245003 51.0525,258.635 C50.457497,258.024997 49.7350043,257.72 48.885,257.72 C48.0349957,257.72 47.3150029,258.024997 46.725,258.635 Z M43.65,260.855 C43.65,259.384993 44.1574949,258.132505 45.1725,257.0975 C46.1875051,256.062495 47.4249927,255.545 48.885,255.545 C50.3550073,255.545 51.5974949,256.062495 52.6125,257.0975 C53.6275051,258.132505 54.135,259.384993 54.135,260.855 C54.135,262.315007 53.6250051,263.562495 52.605,264.5975 C51.5849949,265.632505 50.3450073,266.15 48.885,266.15 C47.4249927,266.15 46.1875051,265.632505 45.1725,264.5975 C44.1574949,263.562495 43.65,262.315007 43.65,260.855 Z M59.295,260.78 L64.14,266 L61.29,266 L58.185,262.49 L58.185,266 L55.965,266 L55.965,255.665 L58.185,255.665 L58.185,259.055 L60.63,255.665 L63.21,255.665 L59.295,260.78 Z M65.1,266 L65.1,255.665 L71.64,255.665 L71.64,257.6 L67.29,257.6 L67.29,259.955 L71.1,259.955 L71.1,261.86 L67.29,261.86 L67.29,264.065 L71.775,264.065 L71.775,266 L65.1,266 Z M81.495,255.665 L81.495,266 L79.53,266 L75.93,259.745 L75.93,266 L73.74,266 L73.74,255.665 L75.75,255.665 L79.29,261.845 L79.29,255.665 L81.495,255.665 Z M83.37,262.97 L85.575,262.97 C85.5950001,263.320002 85.7399986,263.614999 86.01,263.855 C86.2800013,264.095001 86.6499976,264.215 87.12,264.215 C87.5700022,264.215 87.9324986,264.115001 88.2075,263.915 C88.4825014,263.714999 88.6249999,263.450002 88.635,263.12 C88.645,262.859999 88.5625009,262.635001 88.3875,262.445 C88.2124991,262.254999 87.8800024,262.090001 87.39,261.95 L86.145,261.605 C84.3649911,261.054997 83.475,260.065007 83.475,258.635 C83.475,257.724995 83.8149966,256.982503 84.495,256.4075 C85.1750034,255.832497 86.0199949,255.545 87.03,255.545 C88.0500051,255.545 88.8874967,255.829997 89.5425,256.4 C90.1975033,256.970003 90.525,257.739995 90.525,258.71 L88.335,258.71 C88.335,258.359998 88.2200011,258.077501 87.99,257.8625 C87.7599988,257.647499 87.4300021,257.54 87,257.54 C86.609998,257.54 86.2900012,257.637499 86.04,257.8325 C85.7899987,258.027501 85.665,258.274999 85.665,258.575 C85.665,259.065002 86.0349963,259.414999 86.775,259.625 L88.005,260.015 C89.9450097,260.575003 90.8900002,261.614992 90.84,263.135 C90.8299999,263.785003 90.6400018,264.347498 90.27,264.8225 C89.8999981,265.297502 89.4425027,265.639999 88.8975,265.85 C88.3524973,266.060001 87.7600032,266.165 87.12,266.165 C85.9999944,266.165 85.0950034,265.867503 84.405,265.2725 C83.7149965,264.677497 83.37,263.910005 83.37,262.97 Z" id="100GREENTOKENS" fill="#5CD0B6" fill-rule="nonzero"></path>
                <path d="M212.99,240 L206.6,240 L206.6,238.86 L210.635,234.075 C210.985002,233.674998 211.16,233.305002 211.16,232.965 C211.16,232.694999 211.050001,232.465001 210.83,232.275 C210.609999,232.084999 210.310002,231.99 209.93,231.99 C209.559998,231.99 209.250001,232.117499 209,232.3725 C208.749999,232.627501 208.595,232.954998 208.535,233.355 L206.615,233.025 C206.765001,232.084995 207.144997,231.342503 207.755,230.7975 C208.365003,230.252497 209.129995,229.98 210.05,229.98 C210.940004,229.98 211.697497,230.259997 212.3225,230.82 C212.947503,231.380003 213.26,232.094996 213.26,232.965 C213.26,233.845004 212.915003,234.674996 212.225,235.455 L209.96,238.02 L212.99,238.02 L212.99,240 Z M214.925,235.08 C214.925,231.679983 216.149988,229.98 218.6,229.98 C219.290003,229.98 219.879998,230.109999 220.37,230.37 C220.860002,230.630001 221.237499,230.999998 221.5025,231.48 C221.767501,231.960002 221.957499,232.492497 222.0725,233.0775 C222.187501,233.662503 222.245,234.329996 222.245,235.08 C222.245,235.830004 222.187501,236.492497 222.0725,237.0675 C221.957499,237.642503 221.767501,238.169998 221.5025,238.65 C221.237499,239.130002 220.860002,239.499999 220.37,239.76 C219.879998,240.020001 219.290003,240.15 218.6,240.15 C216.149988,240.15 214.925,238.460017 214.925,235.08 Z M217.025,235.08 C217.025,237.10001 217.549995,238.11 218.6,238.11 C219.630005,238.11 220.145,237.10001 220.145,235.08 C220.145,233.03999 219.630005,232.02 218.6,232.02 C217.549995,232.02 217.025,233.03999 217.025,235.08 Z M223.985,235.08 C223.985,231.679983 225.209988,229.98 227.66,229.98 C228.350003,229.98 228.939998,230.109999 229.43,230.37 C229.920002,230.630001 230.297499,230.999998 230.5625,231.48 C230.827501,231.960002 231.017499,232.492497 231.1325,233.0775 C231.247501,233.662503 231.305,234.329996 231.305,235.08 C231.305,235.830004 231.247501,236.492497 231.1325,237.0675 C231.017499,237.642503 230.827501,238.169998 230.5625,238.65 C230.297499,239.130002 229.920002,239.499999 229.43,239.76 C228.939998,240.020001 228.350003,240.15 227.66,240.15 C225.209988,240.15 223.985,238.460017 223.985,235.08 Z M226.085,235.08 C226.085,237.10001 226.609995,238.11 227.66,238.11 C228.690005,238.11 229.205,237.10001 229.205,235.08 C229.205,233.03999 228.690005,232.02 227.66,232.02 C226.609995,232.02 226.085,233.03999 226.085,235.08 Z M241.175,231.6 L239.255,231.6 L239.255,234.51 L241.115,234.51 C241.515002,234.51 241.832499,234.360001 242.0675,234.06 C242.302501,233.759998 242.42,233.425002 242.42,233.055 C242.42,232.694998 242.307501,232.362502 242.0825,232.0575 C241.857499,231.752498 241.555002,231.6 241.175,231.6 Z M242.135,236.34 L244.7,240 L242.06,240 L239.75,236.43 L239.255,236.43 L239.255,240 L237.05,240 L237.05,229.665 L241.28,229.665 C242.380005,229.665 243.227497,229.997497 243.8225,230.6625 C244.417503,231.327503 244.715,232.124995 244.715,233.055 C244.715,233.845004 244.495002,234.544997 244.055,235.155 C243.614998,235.765003 242.975004,236.159999 242.135,236.34 Z M246.605,240 L246.605,229.665 L253.145,229.665 L253.145,231.6 L248.795,231.6 L248.795,233.955 L252.605,233.955 L252.605,235.86 L248.795,235.86 L248.795,238.065 L253.28,238.065 L253.28,240 L246.605,240 Z M257.435,231.66 L257.435,238.005 L259.295,238.005 C260.085004,238.005 260.694998,237.705003 261.125,237.105 C261.555002,236.504997 261.77,235.755005 261.77,234.855 C261.77,233.944995 261.555002,233.185003 261.125,232.575 C260.694998,231.964997 260.085004,231.66 259.295,231.66 L257.435,231.66 Z M259.295,240 L255.245,240 L255.245,229.665 L259.295,229.665 C260.745007,229.665 261.884996,230.152495 262.715,231.1275 C263.545004,232.102505 263.96,233.344992 263.96,234.855 C263.96,236.365008 263.545004,237.599995 262.715,238.56 C261.884996,239.520005 260.745007,240 259.295,240 Z M208.25,257.645 L208.25,255.665 L216.05,255.665 L216.05,257.645 L213.26,257.645 L213.26,266 L211.04,266 L211.04,257.645 L208.25,257.645 Z M219.92,258.635 C219.329997,259.245003 219.035,259.984996 219.035,260.855 C219.035,261.725004 219.329997,262.462497 219.92,263.0675 C220.510003,263.672503 221.229996,263.975 222.08,263.975 C222.930004,263.975 223.652497,263.670003 224.2475,263.06 C224.842503,262.449997 225.14,261.715004 225.14,260.855 C225.14,259.984996 224.842503,259.245003 224.2475,258.635 C223.652497,258.024997 222.930004,257.72 222.08,257.72 C221.229996,257.72 220.510003,258.024997 219.92,258.635 Z M216.845,260.855 C216.845,259.384993 217.352495,258.132505 218.3675,257.0975 C219.382505,256.062495 220.619993,255.545 222.08,255.545 C223.550007,255.545 224.792495,256.062495 225.8075,257.0975 C226.822505,258.132505 227.33,259.384993 227.33,260.855 C227.33,262.315007 226.820005,263.562495 225.8,264.5975 C224.779995,265.632505 223.540007,266.15 222.08,266.15 C220.619993,266.15 219.382505,265.632505 218.3675,264.5975 C217.352495,263.562495 216.845,262.315007 216.845,260.855 Z M232.49,260.78 L237.335,266 L234.485,266 L231.38,262.49 L231.38,266 L229.16,266 L229.16,255.665 L231.38,255.665 L231.38,259.055 L233.825,255.665 L236.405,255.665 L232.49,260.78 Z M238.295,266 L238.295,255.665 L244.835,255.665 L244.835,257.6 L240.485,257.6 L240.485,259.955 L244.295,259.955 L244.295,261.86 L240.485,261.86 L240.485,264.065 L244.97,264.065 L244.97,266 L238.295,266 Z M254.69,255.665 L254.69,266 L252.725,266 L249.125,259.745 L249.125,266 L246.935,266 L246.935,255.665 L248.945,255.665 L252.485,261.845 L252.485,255.665 L254.69,255.665 Z M256.565,262.97 L258.77,262.97 C258.79,263.320002 258.934999,263.614999 259.205,263.855 C259.475001,264.095001 259.844998,264.215 260.315,264.215 C260.765002,264.215 261.127499,264.115001 261.4025,263.915 C261.677501,263.714999 261.82,263.450002 261.83,263.12 C261.84,262.859999 261.757501,262.635001 261.5825,262.445 C261.407499,262.254999 261.075002,262.090001 260.585,261.95 L259.34,261.605 C257.559991,261.054997 256.67,260.065007 256.67,258.635 C256.67,257.724995 257.009997,256.982503 257.69,256.4075 C258.370003,255.832497 259.214995,255.545 260.225,255.545 C261.245005,255.545 262.082497,255.829997 262.7375,256.4 C263.392503,256.970003 263.72,257.739995 263.72,258.71 L261.53,258.71 C261.53,258.359998 261.415001,258.077501 261.185,257.8625 C260.954999,257.647499 260.625002,257.54 260.195,257.54 C259.804998,257.54 259.485001,257.637499 259.235,257.8325 C258.984999,258.027501 258.86,258.274999 258.86,258.575 C258.86,259.065002 259.229996,259.414999 259.97,259.625 L261.2,260.015 C263.14001,260.575003 264.085,261.614992 264.035,263.135 C264.025,263.785003 263.835002,264.347498 263.465,264.8225 C263.094998,265.297502 262.637503,265.639999 262.0925,265.85 C261.547497,266.060001 260.955003,266.165 260.315,266.165 C259.194994,266.165 258.290003,265.867503 257.6,265.2725 C256.909997,264.677497 256.565,263.910005 256.565,262.97 Z" id="200REDTOKENS" fill="#F28C3E" fill-rule="nonzero"></path>
                <g id="Group-4" transform="translate(129.635000, 229.000000)">
                    <circle id="Oval" fill="#283140" cx="19.5" cy="19.5" r="19.5"></circle>
                    <g id="Group-13" transform="translate(8.210526, 7.184211)" fill="#FCD600" fill-rule="nonzero">
                        <path d="M21.4223504,3.83210208 L17.1595508,0.23987678 C16.7266976,-0.12412322 16.0806588,-0.067273728 15.7166588,0.365627472 C15.3526588,0.798528673 15.4095083,1.44451944 15.8424095,1.80851944 L17.9558278,3.6046561 L7.83167264,3.6046561 C4.62260524,3.60820919 2.021837,6.20897743 2.01823589,9.41809285 L2.01823589,11.2561464 C2.01823589,11.8213283 2.476825,12.2799174 3.0420069,12.2799174 C3.6071888,12.2799174 4.06577791,11.8213283 4.06577791,11.2561464 L4.06577791,9.40013532 C4.06937901,7.32143172 5.75292103,5.63784169 7.83167264,5.63424058 L17.9618296,5.63424058 L15.8484113,7.43037724 C15.4155581,7.79437724 15.3586606,8.44041602 15.7226606,8.87326921 C16.0866606,9.30612239 16.7326994,9.3630199 17.1655526,8.9990199 L21.4283522,5.40674659 C21.8612054,5.04332276 21.9181029,4.397332 21.5546791,3.96447881 C21.5163633,3.91896081 21.4738702,3.87646773 21.4283522,3.83815194 L21.4223504,3.83210208 Z" id="Path"></path>
                        <path d="M18.7221916,12.2858712 C18.1570097,12.2858712 17.6984206,12.7444603 17.6984206,13.3096422 L17.6984206,15.1656533 C17.6948195,17.2443569 16.0112774,18.927947 13.9325258,18.9315481 L3.80236886,18.9315481 L5.91578714,17.1354114 C6.41091549,16.8618232 6.59053876,16.2391676 6.31690256,15.7439913 C6.04331438,15.2488629 5.42065879,15.0692397 4.92548243,15.3428759 C4.81173543,15.4057272 4.7105683,15.489561 4.62851105,15.5907281 L0.365711424,19.1830014 C-0.067141762,19.5464253 -0.124039269,20.192416 0.239384554,20.6252692 C0.277700343,20.6707872 0.320193418,20.7132803 0.365711424,20.7515961 L4.62851105,24.3438214 C5.06136424,24.7078214 5.70740302,24.6509719 6.07140302,24.2180707 C6.43540302,23.7851695 6.37855353,23.1391787 5.94565233,22.7751787 L3.83223405,20.9790421 L13.9324298,20.9790421 C17.1414972,20.975441 19.7423135,18.3746727 19.7458665,15.1656053 L19.7458665,13.3096903 C19.7460106,12.7438842 19.2873735,12.2858712 18.7221916,12.2858712 Z" id="Path"></path>
                    </g>
                </g>
                <path d="M135.777,177.612 C135.785,177.988002 135.956998,178.325998 136.293,178.626 C136.629002,178.926001 137.048997,179.076 137.553,179.076 C138.049002,179.076 138.436999,178.960001 138.717,178.728 C138.997001,178.495999 139.165,178.208002 139.221,177.864 C139.253,177.455998 139.135001,177.132001 138.867,176.892 C138.598999,176.651999 138.249002,176.484 137.817,176.388 L136.749,176.124 C135.404993,175.779998 134.733,175.060005 134.733,173.964 C134.733,173.283997 134.996997,172.726002 135.525,172.29 C136.053003,171.853998 136.680996,171.636 137.409,171.636 C138.177004,171.636 138.812997,171.857998 139.317,172.302 C139.821003,172.746002 140.073,173.331996 140.073,174.06 L138.957,174.06 C138.957,173.651998 138.811001,173.324001 138.519,173.076 C138.226999,172.827999 137.853002,172.704 137.397,172.704 C136.980998,172.704 136.619002,172.819999 136.311,173.052 C136.002998,173.284001 135.849,173.583998 135.849,173.952 C135.849,174.528003 136.240996,174.911999 137.025,175.104 L138.105,175.368 C138.889004,175.568001 139.472998,175.887998 139.857,176.328 C140.241002,176.768002 140.393,177.311997 140.313,177.96 C140.241,178.584003 139.959002,179.099998 139.467,179.508 C138.974998,179.916002 138.337004,180.12 137.553,180.12 C136.728996,180.12 136.041003,179.870003 135.489,179.37 C134.936997,178.869997 134.661,178.284003 134.661,177.612 L135.777,177.612 Z M150.249,171.732 L151.449,171.732 L148.653,180 L147.681,180 L146.217,174.84 L144.765,180 L143.793,180 L140.997,171.732 L142.197,171.732 L144.273,178.2 L145.797,172.848 L146.649,172.848 L148.173,178.2 L150.249,171.732 Z M153.729,176.892 L156.465,176.892 L155.097,173.22 L153.729,176.892 Z M156.849,177.9 L153.345,177.9 L152.541,180 L151.353,180 L154.497,171.732 L155.697,171.732 L158.829,180 L157.653,180 L156.849,177.9 Z M160.089,171.732 L163.389,171.732 C164.205004,171.732 164.818998,171.983997 165.231,172.488 C165.643002,172.992003 165.849,173.603996 165.849,174.324 C165.849,175.044004 165.643002,175.653998 165.231,176.154 C164.818998,176.654002 164.205004,176.904 163.389,176.904 L161.217,176.904 L161.217,180 L160.089,180 L160.089,171.732 Z M163.377,172.776 L161.217,172.776 L161.217,175.86 L163.317,175.86 C163.789002,175.86 164.142999,175.710002 164.379,175.41 C164.615001,175.109999 164.733,174.748002 164.733,174.324 C164.733,173.899998 164.619001,173.536002 164.391,173.232 C164.162999,172.927998 163.825002,172.776 163.377,172.776 Z M133.275,191.984 L134.115,192.692 C133.738998,193.140002 133.281003,193.489999 132.741,193.742 C132.200997,193.994001 131.615003,194.12 130.983,194.12 C129.814994,194.12 128.825004,193.708004 128.013,192.884 C127.200996,192.059996 126.795,191.060006 126.795,189.884 C126.795,188.707994 127.200996,187.706004 128.013,186.878 C128.825004,186.049996 129.814994,185.636 130.983,185.636 C131.607003,185.636 132.186997,185.759999 132.723,186.008 C133.259003,186.256001 133.714998,186.599998 134.091,187.04 L133.251,187.736 C132.626997,187.055997 131.871004,186.716 130.983,186.716 C130.118996,186.716 129.391003,187.023997 128.799,187.64 C128.206997,188.256003 127.911,189.003996 127.911,189.884 C127.911,190.764004 128.206997,191.509997 128.799,192.122 C129.391003,192.734003 130.118996,193.04 130.983,193.04 C131.911005,193.04 132.674997,192.688004 133.275,191.984 Z M139.947,193.304 C139.378997,193.848003 138.687004,194.12 137.871,194.12 C137.054996,194.12 136.363003,193.848003 135.795,193.304 C135.226997,192.759997 134.943,192.052004 134.943,191.18 C134.943,190.315996 135.224997,189.616003 135.789,189.08 C136.353003,188.543997 137.046996,188.276 137.871,188.276 C138.695004,188.276 139.390997,188.543997 139.959,189.08 C140.527003,189.616003 140.811,190.315996 140.811,191.18 C140.811,192.044004 140.523003,192.751997 139.947,193.304 Z M136.551,192.548 C136.911002,192.892002 137.350997,193.064 137.871,193.064 C138.391003,193.064 138.828998,192.890002 139.185,192.542 C139.541002,192.193998 139.719,191.740003 139.719,191.18 C139.719,190.627997 139.541002,190.184002 139.185,189.848 C138.828998,189.511998 138.391003,189.344 137.871,189.344 C137.350997,189.344 136.913002,189.511998 136.557,189.848 C136.200998,190.184002 136.023,190.627997 136.023,191.18 C136.023,191.740003 136.198998,192.195998 136.551,192.548 Z M143.355,190.976 L143.355,194 L142.263,194 L142.263,188.396 L143.355,188.396 L143.355,189.236 C143.515001,188.923998 143.760998,188.686001 144.093,188.522 C144.425002,188.357999 144.762998,188.276 145.107,188.276 C145.803003,188.276 146.336998,188.491998 146.709,188.924 C147.081002,189.356002 147.267,189.967996 147.267,190.76 L147.267,194 L146.175,194 L146.175,190.832 C146.175,190.367998 146.065001,190.004001 145.845,189.74 C145.624999,189.475999 145.323002,189.344 144.939,189.344 C144.498998,189.344 144.125002,189.477999 143.817,189.746 C143.508998,190.014001 143.355,190.423997 143.355,190.976 Z M150.531,188.396 L151.719,188.396 L151.719,189.32 L150.531,189.32 L150.531,194 L149.439,194 L149.439,189.32 L148.431,189.32 L148.431,188.396 L149.439,188.396 L149.439,186.284 L150.531,186.284 L150.531,188.396 Z M154.047,191.96 L154.047,194 L152.955,194 L152.955,188.396 L154.047,188.396 L154.047,189.656 C154.319001,188.735995 154.838996,188.276 155.607,188.276 C156.047002,188.276 156.370999,188.347999 156.579,188.492 L156.411,189.512 C156.146999,189.383999 155.871001,189.32 155.583,189.32 C155.070997,189.32 154.687001,189.561998 154.431,190.046 C154.174999,190.530002 154.047,191.167996 154.047,191.96 Z M161.991,194 L161.991,193.136 C161.806999,193.448002 161.535002,193.689999 161.175,193.862 C160.814998,194.034001 160.431002,194.12 160.023,194.12 C159.230996,194.12 158.559003,193.848003 158.007,193.304 C157.454997,192.759997 157.179,192.056004 157.179,191.192 C157.179,190.319996 157.454997,189.616003 158.007,189.08 C158.559003,188.543997 159.230996,188.276 160.023,188.276 C160.431002,188.276 160.816998,188.359999 161.181,188.528 C161.545002,188.696001 161.814999,188.931998 161.991,189.236 L161.991,188.396 L163.071,188.396 L163.071,194 L161.991,194 Z M161.979,191.18 C161.979,190.611997 161.791002,190.164002 161.415,189.836 C161.038998,189.507998 160.607002,189.344 160.119,189.344 C159.598997,189.344 159.165002,189.513998 158.817,189.854 C158.468998,190.194002 158.295,190.635997 158.295,191.18 C158.295,191.724003 158.470998,192.171998 158.823,192.524 C159.175002,192.876002 159.606997,193.052 160.119,193.052 C160.639003,193.052 161.078998,192.884002 161.439,192.548 C161.799002,192.211998 161.979,191.756003 161.979,191.18 Z M165.387,193.304 C164.810997,192.751997 164.523,192.044004 164.523,191.18 C164.523,190.315996 164.810997,189.616003 165.387,189.08 C165.963003,188.543997 166.662996,188.276 167.487,188.276 C168.375004,188.276 169.094997,188.575997 169.647,189.176 L168.819,189.872 C168.466998,189.519998 168.023003,189.344 167.487,189.344 C166.966997,189.344 166.523002,189.513998 166.155,189.854 C165.786998,190.194002 165.603,190.635997 165.603,191.18 C165.603,191.732003 165.786998,192.183998 166.155,192.536 C166.523002,192.888002 166.966997,193.064 167.487,193.064 C168.023003,193.064 168.466998,192.880002 168.819,192.512 L169.659,193.208 C169.098997,193.816003 168.375004,194.12 167.487,194.12 C166.662996,194.12 165.963003,193.848003 165.387,193.304 Z M172.551,188.396 L173.739,188.396 L173.739,189.32 L172.551,189.32 L172.551,194 L171.459,194 L171.459,189.32 L170.451,189.32 L170.451,188.396 L171.459,188.396 L171.459,186.284 L172.551,186.284 L172.551,188.396 Z" id="SWAPContract" fill="#FFFFFF" fill-rule="nonzero"></path>
                <g id="Group-62" transform="translate(40.135000, 0.000000)">
                    <rect id="Rectangle" fill-opacity="0.2" fill="#000000" x="0" y="0" width="104" height="97"></rect>
                    <path d="M52.0214362,50.0373673 C56.4504787,50.0373673 60.0428723,46.4406437 60.0428723,42.0063818 C60.0428723,37.5721198 56.4504255,34 52.0214362,34 C47.5924468,34 44,37.5967235 44,42.0063818 C44,46.41604 47.5923936,50.0373673 52.0214362,50.0373673 Z M52.0214362,36.0939792 C55.2693617,36.0939792 57.9268085,38.7545364 57.9268085,42.0063818 C57.9268085,45.2582271 55.2693617,47.9187311 52.0214362,47.9187311 C48.7735106,47.9187311 46.1160638,45.2581739 46.1160638,42.0063285 C46.1160638,38.7544832 48.7734574,36.0939792 52.0214362,36.0939792 Z" id="Shape" fill="#5CD0B6" fill-rule="nonzero"></path>
                    <path d="M38.0580319,62.1349955 L65.9116489,62.1349955 C66.5021809,62.1349955 66.9696809,61.666939 66.9696809,61.075704 C66.9696809,55.5328366 62.4668617,51 56.9059574,51 L47.0637234,51 C41.5274468,51 37,55.5081796 37,61.075704 C37,61.666939 37.4675,62.1349955 38.0580319,62.1349955 Z M47.0637234,53.118583 L56.9059574,53.118583 C60.9412766,53.118583 64.2630319,56.1240716 64.7797872,60.0163593 L39.1898936,60.0163593 C39.7065957,56.1487285 43.0284043,53.118583 47.0637234,53.118583 Z" id="Shape" fill="#5CD0B6" fill-rule="nonzero"></path>
                </g>
                <g id="Group-64" transform="translate(54.135000, 97.000000)">
                    <polyline id="Path-Copy-18" stroke="#FFFFFF" opacity="0.5" stroke-linecap="square" transform="translate(38.500000, 97.000000) scale(-1, 1) translate(-38.500000, -97.000000) " points="44 95 38.5 99 33 95"></polyline>
                    <rect id="Rectangle" stroke="#979797" fill="#D8D8D8" x="38.5" y="67.5" width="1" height="29"></rect>
                    <rect id="Rectangle-Copy-35" stroke="#979797" fill="#D8D8D8" x="38.5" y="0.5" width="1" height="29"></rect>
                    <text id="sends-100-GREEN" opacity="0.85" font-family="SofiaProBold, Sofia Pro" font-size="15" font-weight="bold" fill="#5CD0B6">
                        <tspan x="14.555" y="44">SENDS</tspan>
                        <tspan x="0.1025" y="62">100 GREEN</tspan>
                    </text>
                </g>
                <g id="Group-8" transform="translate(179.135000, 97.000000)">
                    <polyline id="Path-Copy-18" stroke="#FFFFFF" opacity="0.5" stroke-linecap="square" transform="translate(29.500000, 97.000000) scale(-1, 1) translate(-29.500000, -97.000000) " points="35 95 29.5 99 24 95"></polyline>
                    <rect id="Rectangle" stroke="#979797" fill="#D8D8D8" x="29.5" y="67.5" width="1" height="29"></rect>
                    <rect id="Rectangle-Copy-35" stroke="#979797" fill="#D8D8D8" x="29.5" y="0.5" width="1" height="29"></rect>
                    <text id="sends-200-RED" font-family="SofiaProBold, Sofia Pro" font-size="15" font-weight="bold" fill="#F28C3E">
                        <tspan x="6.055" y="44">SENDS</tspan>
                        <tspan x="0.1" y="62">200 RED</tspan>
                    </text>
                </g>
                <g id="Group-63" transform="translate(156.135000, 0.000000)">
                    <rect id="Rectangle" fill-opacity="0.2" fill="#000000" transform="translate(52.000000, 48.500000) scale(-1, 1) translate(-52.000000, -48.500000) " x="0" y="0" width="104" height="97"></rect>
                    <path d="M52.5,50 C57.193282,50 61,46.4116569 61,41.9877268 C61,37.5637967 57.1932256,34 52.5,34 C47.8067744,34 44,37.5883431 44,41.9877268 C44,46.3871105 47.806718,50 52.5,50 Z M52.5,36.0891002 C55.9416988,36.0891002 58.7576905,38.7434583 58.7576905,41.9877268 C58.7576905,45.2319953 55.9416988,47.8863002 52.5,47.8863002 C49.0583012,47.8863002 46.2423095,45.2319422 46.2423095,41.9876737 C46.2423095,38.7434051 49.0582449,36.0891002 52.5,36.0891002 Z" id="Shape" fill="#F28C3E" fill-rule="nonzero"></path>
                    <path d="M39.0591023,63 L66.9408977,63 C67.532027,63 68,62.537618 68,61.9535509 C68,56.4778826 63.4926255,52 57.9260955,52 L48.0739045,52 C42.532027,52 38,56.4535246 38,61.9535509 C38,62.537618 38.467973,63 39.0591023,63 Z M48.0739045,54.0928982 L57.9260955,54.0928982 C61.965497,54.0928982 65.2906129,57.0619497 65.807891,60.9070492 L40.192109,60.9070492 C40.7093339,57.0863077 44.034503,54.0928982 48.0739045,54.0928982 Z" id="Shape" fill="#F28C3E" fill-rule="nonzero"></path>
                </g>
                <polygon id="Path-Copy-24" fill="#5CD0B6" fill-rule="nonzero" transform="translate(268.635000, 47.937530) rotate(90.000000) translate(-268.635000, -47.937530) " points="273.791174 44.5944361 275.040564 46.1561738 268.635 51.2806248 262.229436 46.1561738 263.478826 44.5944361 268.635 48.7193752"></polygon>
                <polygon id="Path-Copy-25" fill="#F28C3E" fill-rule="nonzero" transform="translate(32.635000, 47.937530) scale(-1, 1) rotate(90.000000) translate(-32.635000, -47.937530) " points="37.7911738 44.5944361 39.0405639 46.1561738 32.635 51.2806248 26.2294361 46.1561738 27.4788262 44.5944361 32.635 48.7193752"></polygon>
                <path d="M264.1025,204.04 L264.1025,214 L262.0025,214 L262.0025,206.965 L260.3225,207.685 L260.3225,205.84 L264.1025,204.04 Z M266.2625,209.08 C266.2625,205.679983 267.487488,203.98 269.9375,203.98 C270.627503,203.98 271.217498,204.109999 271.7075,204.37 C272.197502,204.630001 272.574999,204.999998 272.84,205.48 C273.105001,205.960002 273.294999,206.492497 273.41,207.0775 C273.525001,207.662503 273.5825,208.329996 273.5825,209.08 C273.5825,209.830004 273.525001,210.492497 273.41,211.0675 C273.294999,211.642503 273.105001,212.169998 272.84,212.65 C272.574999,213.130002 272.197502,213.499999 271.7075,213.76 C271.217498,214.020001 270.627503,214.15 269.9375,214.15 C267.487488,214.15 266.2625,212.460017 266.2625,209.08 Z M268.3625,209.08 C268.3625,211.10001 268.887495,212.11 269.9375,212.11 C270.967505,212.11 271.4825,211.10001 271.4825,209.08 C271.4825,207.03999 270.967505,206.02 269.9375,206.02 C268.887495,206.02 268.3625,207.03999 268.3625,209.08 Z M275.3225,209.08 C275.3225,205.679983 276.547488,203.98 278.9975,203.98 C279.687503,203.98 280.277498,204.109999 280.7675,204.37 C281.257502,204.630001 281.634999,204.999998 281.9,205.48 C282.165001,205.960002 282.354999,206.492497 282.47,207.0775 C282.585001,207.662503 282.6425,208.329996 282.6425,209.08 C282.6425,209.830004 282.585001,210.492497 282.47,211.0675 C282.354999,211.642503 282.165001,212.169998 281.9,212.65 C281.634999,213.130002 281.257502,213.499999 280.7675,213.76 C280.277498,214.020001 279.687503,214.15 278.9975,214.15 C276.547488,214.15 275.3225,212.460017 275.3225,209.08 Z M277.4225,209.08 C277.4225,211.10001 277.947495,212.11 278.9975,212.11 C280.027505,212.11 280.5425,211.10001 280.5425,209.08 C280.5425,207.03999 280.027505,206.02 278.9975,206.02 C277.947495,206.02 277.4225,207.03999 277.4225,209.08 Z M296.9675,205.24 L295.3475,206.635 C294.727497,205.934996 293.972504,205.585 293.0825,205.585 C292.212496,205.585 291.480003,205.904997 290.885,206.545 C290.289997,207.185003 289.9925,207.954995 289.9925,208.855 C289.9925,209.755005 290.292497,210.527497 290.8925,211.1725 C291.492503,211.817503 292.222496,212.14 293.0825,212.14 C293.682503,212.14 294.247497,211.972502 294.7775,211.6375 C295.307503,211.302498 295.5775,210.875003 295.5875,210.355 L292.8125,210.355 L292.8125,208.57 L298.1225,208.57 C298.1225,210.440009 297.670005,211.837495 296.765,212.7625 C295.859995,213.687505 294.632508,214.15 293.0825,214.15 C291.602493,214.15 290.350005,213.632505 289.325,212.5975 C288.299995,211.562495 287.7875,210.315007 287.7875,208.855 C287.7875,207.384993 288.299995,206.132505 289.325,205.0975 C290.350005,204.062495 291.602493,203.545 293.0825,203.545 C293.862504,203.545 294.589997,203.694999 295.265,203.995 C295.940003,204.295001 296.507498,204.709997 296.9675,205.24 Z M303.8525,205.6 L301.9325,205.6 L301.9325,208.51 L303.7925,208.51 C304.192502,208.51 304.509999,208.360001 304.745,208.06 C304.980001,207.759998 305.0975,207.425002 305.0975,207.055 C305.0975,206.694998 304.985001,206.362502 304.76,206.0575 C304.534999,205.752498 304.232502,205.6 303.8525,205.6 Z M304.8125,210.34 L307.3775,214 L304.7375,214 L302.4275,210.43 L301.9325,210.43 L301.9325,214 L299.7275,214 L299.7275,203.665 L303.9575,203.665 C305.057505,203.665 305.904997,203.997497 306.5,204.6625 C307.095003,205.327503 307.3925,206.124995 307.3925,207.055 C307.3925,207.845004 307.172502,208.544997 306.7325,209.155 C306.292498,209.765003 305.652504,210.159999 304.8125,210.34 Z M309.2825,214 L309.2825,203.665 L315.8225,203.665 L315.8225,205.6 L311.4725,205.6 L311.4725,207.955 L315.2825,207.955 L315.2825,209.86 L311.4725,209.86 L311.4725,212.065 L315.9575,212.065 L315.9575,214 L309.2825,214 Z M317.9225,214 L317.9225,203.665 L324.4625,203.665 L324.4625,205.6 L320.1125,205.6 L320.1125,207.955 L323.9225,207.955 L323.9225,209.86 L320.1125,209.86 L320.1125,212.065 L324.5975,212.065 L324.5975,214 L317.9225,214 Z M334.3175,203.665 L334.3175,214 L332.3525,214 L328.7525,207.745 L328.7525,214 L326.5625,214 L326.5625,203.665 L328.5725,203.665 L332.1125,209.845 L332.1125,203.665 L334.3175,203.665 Z" id="100GREEN" fill="#5CD0B6" fill-rule="nonzero" transform="translate(297.320000, 208.847500) rotate(-90.000000) translate(-297.320000, -208.847500) "></path>
                <path d="M-16.61,214 L-23,214 L-23,212.86 L-18.965,208.075 C-18.6149983,207.674998 -18.44,207.305002 -18.44,206.965 C-18.44,206.694999 -18.5499989,206.465001 -18.77,206.275 C-18.9900011,206.084999 -19.2899981,205.99 -19.67,205.99 C-20.0400019,205.99 -20.3499988,206.117499 -20.6,206.3725 C-20.8500013,206.627501 -21.0049997,206.954998 -21.065,207.355 L-22.985,207.025 C-22.8349993,206.084995 -22.4550031,205.342503 -21.845,204.7975 C-21.234997,204.252497 -20.4700046,203.98 -19.55,203.98 C-18.6599956,203.98 -17.9025031,204.259997 -17.2775,204.82 C-16.6524969,205.380003 -16.34,206.094996 -16.34,206.965 C-16.34,207.845004 -16.6849966,208.674996 -17.375,209.455 L-19.64,212.02 L-16.61,212.02 L-16.61,214 Z M-14.675,209.08 C-14.675,205.679983 -13.4500123,203.98 -11,203.98 C-10.3099966,203.98 -9.72000245,204.109999 -9.23,204.37 C-8.73999755,204.630001 -8.36250133,204.999998 -8.0975,205.48 C-7.83249868,205.960002 -7.64250058,206.492497 -7.5275,207.0775 C-7.41249943,207.662503 -7.355,208.329996 -7.355,209.08 C-7.355,209.830004 -7.41249943,210.492497 -7.5275,211.0675 C-7.64250058,211.642503 -7.83249868,212.169998 -8.0975,212.65 C-8.36250133,213.130002 -8.73999755,213.499999 -9.23,213.76 C-9.72000245,214.020001 -10.3099966,214.15 -11,214.15 C-13.4500123,214.15 -14.675,212.460017 -14.675,209.08 Z M-12.575,209.08 C-12.575,211.10001 -12.0500053,212.11 -11,212.11 C-9.96999485,212.11 -9.455,211.10001 -9.455,209.08 C-9.455,207.03999 -9.96999485,206.02 -11,206.02 C-12.0500053,206.02 -12.575,207.03999 -12.575,209.08 Z M-5.615,209.08 C-5.615,205.679983 -4.39001225,203.98 -1.94,203.98 C-1.24999655,203.98 -0.66000245,204.109999 -0.17,204.37 C0.32000245,204.630001 0.697498675,204.999998 0.9625,205.48 C1.22750132,205.960002 1.41749942,206.492497 1.5325,207.0775 C1.64750057,207.662503 1.705,208.329996 1.705,209.08 C1.705,209.830004 1.64750057,210.492497 1.5325,211.0675 C1.41749942,211.642503 1.22750132,212.169998 0.9625,212.65 C0.697498675,213.130002 0.32000245,213.499999 -0.17,213.76 C-0.66000245,214.020001 -1.24999655,214.15 -1.94,214.15 C-4.39001225,214.15 -5.615,212.460017 -5.615,209.08 Z M-3.515,209.08 C-3.515,211.10001 -2.99000525,212.11 -1.94,212.11 C-0.90999485,212.11 -0.395,211.10001 -0.395,209.08 C-0.395,207.03999 -0.90999485,206.02 -1.94,206.02 C-2.99000525,206.02 -3.515,207.03999 -3.515,209.08 Z M11.575,205.6 L9.655,205.6 L9.655,208.51 L11.515,208.51 C11.915002,208.51 12.2324988,208.360001 12.4675,208.06 C12.7025012,207.759998 12.82,207.425002 12.82,207.055 C12.82,206.694998 12.7075011,206.362502 12.4825,206.0575 C12.2574989,205.752498 11.9550019,205.6 11.575,205.6 Z M12.535,210.34 L15.1,214 L12.46,214 L10.15,210.43 L9.655,210.43 L9.655,214 L7.45,214 L7.45,203.665 L11.68,203.665 C12.7800055,203.665 13.627497,203.997497 14.2225,204.6625 C14.817503,205.327503 15.115,206.124995 15.115,207.055 C15.115,207.845004 14.8950022,208.544997 14.455,209.155 C14.0149978,209.765003 13.3750042,210.159999 12.535,210.34 Z M17.005,214 L17.005,203.665 L23.545,203.665 L23.545,205.6 L19.195,205.6 L19.195,207.955 L23.005,207.955 L23.005,209.86 L19.195,209.86 L19.195,212.065 L23.68,212.065 L23.68,214 L17.005,214 Z M27.835,205.66 L27.835,212.005 L29.695,212.005 C30.4850039,212.005 31.0949978,211.705003 31.525,211.105 C31.9550021,210.504997 32.17,209.755005 32.17,208.855 C32.17,207.944995 31.9550021,207.185003 31.525,206.575 C31.0949978,205.964997 30.4850039,205.66 29.695,205.66 L27.835,205.66 Z M29.695,214 L25.645,214 L25.645,203.665 L29.695,203.665 C31.1450072,203.665 32.2849958,204.152495 33.115,205.1275 C33.9450041,206.102505 34.36,207.344992 34.36,208.855 C34.36,210.365008 33.9450041,211.599995 33.115,212.56 C32.2849958,213.520005 31.1450072,214 29.695,214 Z" id="200RED" fill="#F28C3E" fill-rule="nonzero" transform="translate(5.680000, 208.907500) rotate(-90.000000) translate(-5.680000, -208.907500) "></path>
                <path d="M279.635,372.481316 L279.635,371.481316 L283.635,371.481316 L283.635,372.481316 L279.635,372.481316 Z M287.635,372.481316 L287.635,371.481316 L291.635,371.481316 L291.635,372.481316 L287.635,372.481316 Z M296.635,369.481316 L297.635,369.481316 L297.635,372.481316 L295.635,372.481316 L295.635,371.481316 L296.635,371.481316 L296.635,369.481316 Z M297.635,365.481316 L296.635,365.481316 L296.635,361.481316 L297.635,361.481316 L297.635,365.481316 Z M297.635,357.481316 L296.635,357.481316 L296.635,353.481316 L297.635,353.481316 L297.635,357.481316 Z M297.635,349.481316 L296.635,349.481316 L296.635,345.481316 L297.635,345.481316 L297.635,349.481316 Z M297.635,341.481316 L296.635,341.481316 L296.635,337.481316 L297.635,337.481316 L297.635,341.481316 Z M297.635,333.481316 L296.635,333.481316 L296.635,329.481316 L297.635,329.481316 L297.635,333.481316 Z M297.635,325.481316 L296.635,325.481316 L296.635,321.481316 L297.635,321.481316 L297.635,325.481316 Z M297.635,317.481316 L296.635,317.481316 L296.635,313.481316 L297.635,313.481316 L297.635,317.481316 Z M297.635,309.481316 L296.635,309.481316 L296.635,305.481316 L297.635,305.481316 L297.635,309.481316 Z M297.635,301.481316 L296.635,301.481316 L296.635,297.481316 L297.635,297.481316 L297.635,301.481316 Z M297.635,293.481316 L296.635,293.481316 L296.635,289.481316 L297.635,289.481316 L297.635,293.481316 Z M297.635,285.481316 L296.635,285.481316 L296.635,281.481316 L297.635,281.481316 L297.635,285.481316 Z M297.635,277.481316 L296.635,277.481316 L296.635,273.481316 L297.635,273.481316 L297.635,277.481316 Z M297.635,269.481316 L296.635,269.481316 L296.635,265.481316 L297.635,265.481316 L297.635,269.481316 Z M297.635,261.481316 L296.635,261.481316 L296.635,257.481316 L297.635,257.481316 L297.635,261.481316 Z" id="Path-3-Copy-6" fill="#5CD0B6" fill-rule="nonzero"></path>
                <path d="M2.635,372.5 L2.635,371.5 L6.635,371.5 L6.635,372.5 L2.635,372.5 Z M10.635,372.5 L10.635,371.5 L14.635,371.5 L14.635,372.5 L10.635,372.5 Z M19.635,371.5 L19.635,369.5 L20.635,369.5 L20.635,372.5 L18.635,372.5 L18.635,371.5 L19.635,371.5 Z M20.635,365.5 L19.635,365.5 L19.635,361.5 L20.635,361.5 L20.635,365.5 Z M20.635,357.5 L19.635,357.5 L19.635,353.5 L20.635,353.5 L20.635,357.5 Z M20.635,349.5 L19.635,349.5 L19.635,345.5 L20.635,345.5 L20.635,349.5 Z M20.635,341.5 L19.635,341.5 L19.635,337.5 L20.635,337.5 L20.635,341.5 Z M20.635,333.5 L19.635,333.5 L19.635,329.5 L20.635,329.5 L20.635,333.5 Z M20.635,325.5 L19.635,325.5 L19.635,321.5 L20.635,321.5 L20.635,325.5 Z M20.635,317.5 L19.635,317.5 L19.635,313.5 L20.635,313.5 L20.635,317.5 Z M20.635,309.5 L19.635,309.5 L19.635,305.5 L20.635,305.5 L20.635,309.5 Z M20.635,301.5 L19.635,301.5 L19.635,297.5 L20.635,297.5 L20.635,301.5 Z M20.635,293.5 L19.635,293.5 L19.635,289.5 L20.635,289.5 L20.635,293.5 Z M20.635,285.5 L19.635,285.5 L19.635,281.5 L20.635,281.5 L20.635,285.5 Z M20.635,277.5 L19.635,277.5 L19.635,273.5 L20.635,273.5 L20.635,277.5 Z M20.635,269.5 L19.635,269.5 L19.635,265.5 L20.635,265.5 L20.635,269.5 Z M20.635,261.5 L19.635,261.5 L19.635,257.5 L20.635,257.5 L20.635,261.5 Z" id="Path-3-Copy-8" fill="#F28C3E" fill-rule="nonzero" transform="translate(11.635000, 315.000000) scale(-1, 1) translate(-11.635000, -315.000000) "></path>
                <path d="M275.635,164.481316 L275.635,163.481316 L279.635,163.481316 L279.635,164.481316 L275.635,164.481316 Z M283.635,164.481316 L283.635,163.481316 L287.635,163.481316 L287.635,164.481316 L283.635,164.481316 Z M291.635,164.481316 L291.635,163.481316 L295.635,163.481316 L295.635,164.481316 L291.635,164.481316 Z M297.635,161.481316 L296.635,161.481316 L296.635,157.481316 L297.635,157.481316 L297.635,161.481316 Z M297.635,153.481316 L296.635,153.481316 L296.635,149.481316 L297.635,149.481316 L297.635,153.481316 Z M297.635,145.481316 L296.635,145.481316 L296.635,141.481316 L297.635,141.481316 L297.635,145.481316 Z M297.635,137.481316 L296.635,137.481316 L296.635,133.481316 L297.635,133.481316 L297.635,137.481316 Z M297.635,129.481316 L296.635,129.481316 L296.635,125.481316 L297.635,125.481316 L297.635,129.481316 Z M297.635,121.481316 L296.635,121.481316 L296.635,117.481316 L297.635,117.481316 L297.635,121.481316 Z M297.635,113.481316 L296.635,113.481316 L296.635,109.481316 L297.635,109.481316 L297.635,113.481316 Z M297.635,105.481316 L296.635,105.481316 L296.635,101.481316 L297.635,101.481316 L297.635,105.481316 Z M297.635,97.4813164 L296.635,97.4813164 L296.635,93.4813164 L297.635,93.4813164 L297.635,97.4813164 Z M297.635,89.4813164 L296.635,89.4813164 L296.635,85.4813164 L297.635,85.4813164 L297.635,89.4813164 Z M297.635,81.4813164 L296.635,81.4813164 L296.635,77.4813164 L297.635,77.4813164 L297.635,81.4813164 Z M297.635,73.4813164 L296.635,73.4813164 L296.635,69.4813164 L297.635,69.4813164 L297.635,73.4813164 Z M297.635,65.4813164 L296.635,65.4813164 L296.635,61.4813164 L297.635,61.4813164 L297.635,65.4813164 Z M297.635,57.4813164 L296.635,57.4813164 L296.635,53.4813164 L297.635,53.4813164 L297.635,57.4813164 Z M297.635,49.4813164 L296.635,49.4813164 L296.635,49 L297.635,49 L297.635,49.4813164 Z" id="Path-3-Copy-7" fill="#5CD0B6" fill-rule="nonzero" transform="translate(286.635000, 106.740658) scale(1, -1) translate(-286.635000, -106.740658) "></path>
                <path d="M5.635,164.5 L5.635,163.5 L9.635,163.5 L9.635,164.5 L5.635,164.5 Z M13.635,164.5 L13.635,163.5 L17.635,163.5 L17.635,164.5 L13.635,164.5 Z M21.635,164.5 L21.635,163.5 L25.635,163.5 L25.635,164.5 L21.635,164.5 Z M27.635,161.5 L26.635,161.5 L26.635,157.5 L27.635,157.5 L27.635,161.5 Z M27.635,153.5 L26.635,153.5 L26.635,149.5 L27.635,149.5 L27.635,153.5 Z M27.635,145.5 L26.635,145.5 L26.635,141.5 L27.635,141.5 L27.635,145.5 Z M27.635,137.5 L26.635,137.5 L26.635,133.5 L27.635,133.5 L27.635,137.5 Z M27.635,129.5 L26.635,129.5 L26.635,125.5 L27.635,125.5 L27.635,129.5 Z M27.635,121.5 L26.635,121.5 L26.635,117.5 L27.635,117.5 L27.635,121.5 Z M27.635,113.5 L26.635,113.5 L26.635,109.5 L27.635,109.5 L27.635,113.5 Z M27.635,105.5 L26.635,105.5 L26.635,101.5 L27.635,101.5 L27.635,105.5 Z M27.635,97.5 L26.635,97.5 L26.635,93.5 L27.635,93.5 L27.635,97.5 Z M27.635,89.5 L26.635,89.5 L26.635,85.5 L27.635,85.5 L27.635,89.5 Z M27.635,81.5 L26.635,81.5 L26.635,77.5 L27.635,77.5 L27.635,81.5 Z M27.635,73.5 L26.635,73.5 L26.635,69.5 L27.635,69.5 L27.635,73.5 Z M27.635,65.5 L26.635,65.5 L26.635,61.5 L27.635,61.5 L27.635,65.5 Z M27.635,57.5 L26.635,57.5 L26.635,53.5 L27.635,53.5 L27.635,57.5 Z M27.635,49.5 L26.635,49.5 L26.635,49 L27.635,49 L27.635,49.5 Z" id="Path-3-Copy-9" fill="#F28C3E" fill-rule="nonzero" transform="translate(16.635000, 106.750000) scale(-1, -1) translate(-16.635000, -106.750000) "></path>
            </g>
        </g>
    </g>
</svg>