<?xml version="1.0" encoding="UTF-8"?>
<svg width="1029px" height="263px" viewBox="0 0 1029 263" version="1.1" xmlns="http://www.w3.org/2000/svg" xmlns:xlink="http://www.w3.org/1999/xlink">
    <!-- Generator: Sketch 53.2 (72643) - https://sketchapp.com -->
    <title>Group 61</title>
    <desc>Created with Sketch.</desc>
    <g id="Page-2" stroke="none" stroke-width="1" fill="none" fill-rule="evenodd">
        <g id="Group-61" transform="translate(0.000000, 0.454000)">
            <rect id="Rectangle-Copy-26" fill-opacity="0.2" fill="#000000" x="318" y="140.546" width="392" height="122"></rect>
            <path d="M440.8815,180.833 L442.5815,180.833 L438.6205,192.546 L437.2435,192.546 L435.1695,185.236 L433.1125,192.546 L431.7355,192.546 L427.7745,180.833 L429.4745,180.833 L432.4155,189.996 L434.5745,182.414 L435.7815,182.414 L437.9405,189.996 L440.8815,180.833 Z M445.6755,188.262 L445.6755,192.546 L444.1285,192.546 L444.1285,180.289 L445.6755,180.289 L445.6755,185.797 C445.890834,185.354998 446.256331,185.017834 446.772,184.7855 C447.287669,184.553166 447.794831,184.437 448.2935,184.437 C449.290838,184.437 450.078497,184.74583 450.6565,185.3635 C451.234503,185.98117 451.517833,186.845328 451.5065,187.956 L451.5065,192.546 L449.9595,192.546 L449.9595,188.058 C449.9595,187.411997 449.786668,186.899169 449.441,186.5195 C449.095332,186.139831 448.644836,185.95 448.0895,185.95 C447.45483,185.95 446.893836,186.139831 446.4065,186.5195 C445.919164,186.899169 445.6755,187.479996 445.6755,188.262 Z M455.0085,187.956 L459.9385,187.956 C459.847833,187.298663 459.584336,186.780169 459.148,186.4005 C458.711664,186.020831 458.170503,185.831 457.5245,185.831 C456.85583,185.831 456.292002,186.020831 455.833,186.4005 C455.373998,186.780169 455.099167,187.298663 455.0085,187.956 Z M461.4685,188.551 C461.4685,188.845668 461.462833,189.049666 461.4515,189.163 L455.0085,189.163 C455.099167,189.820337 455.379664,190.344498 455.85,190.7355 C456.320336,191.126502 456.895497,191.322 457.5755,191.322 C458.062836,191.322 458.510498,191.214334 458.9185,190.999 C459.326502,190.783666 459.638166,190.483335 459.8535,190.098 C460.000834,190.154667 460.227498,190.242499 460.5335,190.3615 C460.839502,190.480501 461.054833,190.562666 461.1795,190.608 C460.850832,191.288003 460.357837,191.809332 459.7005,192.172 C459.043163,192.534668 458.317837,192.716 457.5245,192.716 C456.368494,192.716 455.402337,192.330671 454.626,191.56 C453.849663,190.789329 453.4615,189.78634 453.4615,188.551 C453.4615,187.31566 453.849663,186.32117 454.626,185.5675 C455.402337,184.81383 456.368494,184.437 457.5245,184.437 C458.669172,184.437 459.612663,184.81383 460.355,185.5675 C461.097337,186.32117 461.4685,187.31566 461.4685,188.551 Z M464.9875,188.262 L464.9875,192.546 L463.4405,192.546 L463.4405,184.607 L464.9875,184.607 L464.9875,185.797 C465.214168,185.354998 465.562664,185.017834 466.033,184.7855 C466.503336,184.553166 466.982164,184.437 467.4695,184.437 C468.455505,184.437 469.211997,184.742997 469.739,185.355 C470.266003,185.967003 470.5295,186.833994 470.5295,187.956 L470.5295,192.546 L468.9825,192.546 L468.9825,188.058 C468.9825,187.400663 468.826668,186.885002 468.515,186.511 C468.203332,186.136998 467.775503,185.95 467.2315,185.95 C466.608164,185.95 466.078336,186.139831 465.642,186.5195 C465.205664,186.899169 464.9875,187.479996 464.9875,188.262 Z M483.7215,192.546 L483.7215,191.322 C483.460832,191.764002 483.075503,192.106832 482.5655,192.3505 C482.055497,192.594168 481.511503,192.716 480.9335,192.716 C479.811494,192.716 478.859504,192.330671 478.0775,191.56 C477.295496,190.789329 476.9045,189.792006 476.9045,188.568 C476.9045,187.33266 477.295496,186.335337 478.0775,185.576 C478.859504,184.816663 479.811494,184.437 480.9335,184.437 C481.511503,184.437 482.058331,184.555999 482.574,184.794 C483.089669,185.032001 483.472165,185.366331 483.7215,185.797 L483.7215,184.607 L485.2515,184.607 L485.2515,192.546 L483.7215,192.546 Z M483.7045,188.551 C483.7045,187.746329 483.438169,187.111669 482.9055,186.647 C482.372831,186.182331 481.760837,185.95 481.0695,185.95 C480.33283,185.95 479.718002,186.190831 479.225,186.6725 C478.731998,187.154169 478.4855,187.780329 478.4855,188.551 C478.4855,189.321671 478.734831,189.956331 479.2335,190.455 C479.732169,190.953669 480.344163,191.203 481.0695,191.203 C481.80617,191.203 482.429497,190.965002 482.9395,190.489 C483.449503,190.012998 483.7045,189.367004 483.7045,188.551 Z M487.8355,180.289 L489.3825,180.289 L489.3825,192.546 L487.8355,192.546 L487.8355,180.289 Z M491.9665,180.289 L493.5135,180.289 L493.5135,192.546 L491.9665,192.546 L491.9665,180.289 Z M502.6595,184.607 L504.3425,184.607 L504.3425,185.916 L502.6595,185.916 L502.6595,192.546 L501.1125,192.546 L501.1125,185.916 L499.6845,185.916 L499.6845,184.607 L501.1125,184.607 L501.1125,181.615 L502.6595,181.615 L502.6595,184.607 Z M512.6555,191.56 C511.850829,192.330671 510.870506,192.716 509.7145,192.716 C508.558494,192.716 507.578171,192.330671 506.7735,191.56 C505.968829,190.789329 505.5665,189.78634 505.5665,188.551 C505.5665,187.326994 505.965996,186.335337 506.765,185.576 C507.564004,184.816663 508.547161,184.437 509.7145,184.437 C510.881839,184.437 511.867829,184.816663 512.6725,185.576 C513.477171,186.335337 513.8795,187.326994 513.8795,188.551 C513.8795,189.775006 513.471504,190.777996 512.6555,191.56 Z M507.8445,190.489 C508.354503,190.976336 508.97783,191.22 509.7145,191.22 C510.45117,191.22 511.071664,190.973502 511.576,190.4805 C512.080336,189.987498 512.3325,189.344337 512.3325,188.551 C512.3325,187.768996 512.080336,187.140002 511.576,186.664 C511.071664,186.187998 510.45117,185.95 509.7145,185.95 C508.97783,185.95 508.357336,186.187998 507.853,186.664 C507.348664,187.140002 507.0965,187.768996 507.0965,188.551 C507.0965,189.344337 507.345831,189.990331 507.8445,190.489 Z M517.4665,188.67 L517.4665,192.546 L515.9365,192.546 L515.9365,180.289 L517.4665,180.289 L517.4665,187.378 L520.2035,184.607 L522.3115,184.607 L518.9115,188.041 L523.1275,192.546 L521.0875,192.546 L517.4665,188.67 Z M525.4905,187.956 L530.4205,187.956 C530.329833,187.298663 530.066336,186.780169 529.63,186.4005 C529.193664,186.020831 528.652503,185.831 528.0065,185.831 C527.33783,185.831 526.774002,186.020831 526.315,186.4005 C525.855998,186.780169 525.581167,187.298663 525.4905,187.956 Z M531.9505,188.551 C531.9505,188.845668 531.944833,189.049666 531.9335,189.163 L525.4905,189.163 C525.581167,189.820337 525.861664,190.344498 526.332,190.7355 C526.802336,191.126502 527.377497,191.322 528.0575,191.322 C528.544836,191.322 528.992498,191.214334 529.4005,190.999 C529.808502,190.783666 530.120166,190.483335 530.3355,190.098 C530.482834,190.154667 530.709498,190.242499 531.0155,190.3615 C531.321502,190.480501 531.536833,190.562666 531.6615,190.608 C531.332832,191.288003 530.839837,191.809332 530.1825,192.172 C529.525163,192.534668 528.799837,192.716 528.0065,192.716 C526.850494,192.716 525.884337,192.330671 525.108,191.56 C524.331663,190.789329 523.9435,189.78634 523.9435,188.551 C523.9435,187.31566 524.331663,186.32117 525.108,185.5675 C525.884337,184.81383 526.850494,184.437 528.0065,184.437 C529.151172,184.437 530.094663,184.81383 530.837,185.5675 C531.579337,186.32117 531.9505,187.31566 531.9505,188.551 Z M535.4695,188.262 L535.4695,192.546 L533.9225,192.546 L533.9225,184.607 L535.4695,184.607 L535.4695,185.797 C535.696168,185.354998 536.044664,185.017834 536.515,184.7855 C536.985336,184.553166 537.464164,184.437 537.9515,184.437 C538.937505,184.437 539.693997,184.742997 540.221,185.355 C540.748003,185.967003 541.0115,186.833994 541.0115,187.956 L541.0115,192.546 L539.4645,192.546 L539.4645,188.058 C539.4645,187.400663 539.308668,186.885002 538.997,186.511 C538.685332,186.136998 538.257503,185.95 537.7135,185.95 C537.090164,185.95 536.560336,186.139831 536.124,186.5195 C535.687664,186.899169 535.4695,187.479996 535.4695,188.262 Z M545.2955,189.044 C544.536163,188.839999 543.975168,188.534002 543.6125,188.126 C543.249832,187.717998 543.1025,187.16267 543.1705,186.46 C543.227167,185.881997 543.521831,185.400335 544.0545,185.015 C544.587169,184.629665 545.210496,184.437 545.9245,184.437 C546.66117,184.437 547.287331,184.621165 547.803,184.9895 C548.318669,185.357835 548.6105,185.921663 548.6785,186.681 L547.1995,186.681 C547.154166,186.397665 547.015334,186.176667 546.783,186.018 C546.550666,185.859333 546.275835,185.78 545.9585,185.78 C545.663832,185.78 545.406001,185.845166 545.185,185.9755 C544.963999,186.105834 544.825167,186.278666 544.7685,186.494 C544.7005,186.743335 544.706166,186.952999 544.7855,187.123 C544.910167,187.383668 545.221831,187.587666 545.7205,187.735 L546.8935,188.024 C548.26484,188.364002 548.9505,189.134661 548.9505,190.336 C548.9505,191.050004 548.653003,191.625164 548.058,192.0615 C547.462997,192.497836 546.734838,192.716 545.8735,192.716 C545.114163,192.716 544.437003,192.483669 543.842,192.019 C543.246997,191.554331 542.938167,190.936671 542.9155,190.166 L544.3265,190.166 C544.3945,190.585335 544.609832,190.885666 544.9725,191.067 C545.323835,191.282334 545.743164,191.373 546.2305,191.339 C546.593168,191.316333 546.882166,191.208668 547.0975,191.016 C547.312834,190.823332 547.426167,190.585335 547.4375,190.302 C547.448833,190.029999 547.358168,189.814667 547.1655,189.656 C546.972832,189.497333 546.712168,189.378334 546.3835,189.299 L545.2955,189.044 Z M561.6665,192.546 L561.6665,191.322 C561.405832,191.764002 561.020503,192.106832 560.5105,192.3505 C560.000497,192.594168 559.456503,192.716 558.8785,192.716 C557.756494,192.716 556.804504,192.330671 556.0225,191.56 C555.240496,190.789329 554.8495,189.792006 554.8495,188.568 C554.8495,187.33266 555.240496,186.335337 556.0225,185.576 C556.804504,184.816663 557.756494,184.437 558.8785,184.437 C559.456503,184.437 560.003331,184.555999 560.519,184.794 C561.034669,185.032001 561.417165,185.366331 561.6665,185.797 L561.6665,184.607 L563.1965,184.607 L563.1965,192.546 L561.6665,192.546 Z M561.6495,188.551 C561.6495,187.746329 561.383169,187.111669 560.8505,186.647 C560.317831,186.182331 559.705837,185.95 559.0145,185.95 C558.27783,185.95 557.663002,186.190831 557.17,186.6725 C556.676998,187.154169 556.4305,187.780329 556.4305,188.551 C556.4305,189.321671 556.679831,189.956331 557.1785,190.455 C557.677169,190.953669 558.289163,191.203 559.0145,191.203 C559.75117,191.203 560.374497,190.965002 560.8845,190.489 C561.394503,190.012998 561.6495,189.367004 561.6495,188.551 Z M567.3275,189.656 L567.3275,192.546 L565.7805,192.546 L565.7805,184.607 L567.3275,184.607 L567.3275,186.392 C567.712835,185.08866 568.449495,184.437 569.5375,184.437 C570.160836,184.437 570.619832,184.538999 570.9145,184.743 L570.6765,186.188 C570.302498,186.006666 569.911502,185.916 569.5035,185.916 C568.778163,185.916 568.234168,186.25883 567.8715,186.9445 C567.508832,187.63017 567.3275,188.533994 567.3275,189.656 Z M573.5155,187.956 L578.4455,187.956 C578.354833,187.298663 578.091336,186.780169 577.655,186.4005 C577.218664,186.020831 576.677503,185.831 576.0315,185.831 C575.36283,185.831 574.799002,186.020831 574.34,186.4005 C573.880998,186.780169 573.606167,187.298663 573.5155,187.956 Z M579.9755,188.551 C579.9755,188.845668 579.969833,189.049666 579.9585,189.163 L573.5155,189.163 C573.606167,189.820337 573.886664,190.344498 574.357,190.7355 C574.827336,191.126502 575.402497,191.322 576.0825,191.322 C576.569836,191.322 577.017498,191.214334 577.4255,190.999 C577.833502,190.783666 578.145166,190.483335 578.3605,190.098 C578.507834,190.154667 578.734498,190.242499 579.0405,190.3615 C579.346502,190.480501 579.561833,190.562666 579.6865,190.608 C579.357832,191.288003 578.864837,191.809332 578.2075,192.172 C577.550163,192.534668 576.824837,192.716 576.0315,192.716 C574.875494,192.716 573.909337,192.330671 573.133,191.56 C572.356663,190.789329 571.9685,189.78634 571.9685,188.551 C571.9685,187.31566 572.356663,186.32117 573.133,185.5675 C573.909337,184.81383 574.875494,184.437 576.0315,184.437 C577.176172,184.437 578.119663,184.81383 578.862,185.5675 C579.604337,186.32117 579.9755,187.31566 579.9755,188.551 Z M586.6735,180.833 L588.2545,180.833 L588.2545,192.546 L586.6735,192.546 L586.6735,180.833 Z M599.8825,192.546 L598.3695,192.546 L593.0315,183.723 L593.0315,192.546 L591.4505,192.546 L591.4505,180.833 L593.0145,180.833 L598.3015,189.588 L598.3015,180.833 L599.8825,180.833 L599.8825,192.546 Z M451.872,210.607 L453.555,210.607 L453.555,211.916 L451.872,211.916 L451.872,218.546 L450.325,218.546 L450.325,211.916 L448.897,211.916 L448.897,210.607 L450.325,210.607 L450.325,207.615 L451.872,207.615 L451.872,210.607 Z M456.853,214.262 L456.853,218.546 L455.306,218.546 L455.306,206.289 L456.853,206.289 L456.853,211.797 C457.068334,211.354998 457.433831,211.017834 457.9495,210.7855 C458.465169,210.553166 458.972331,210.437 459.471,210.437 C460.468338,210.437 461.255997,210.74583 461.834,211.3635 C462.412003,211.98117 462.695333,212.845328 462.684,213.956 L462.684,218.546 L461.137,218.546 L461.137,214.058 C461.137,213.411997 460.964168,212.899169 460.6185,212.5195 C460.272832,212.139831 459.822336,211.95 459.267,211.95 C458.63233,211.95 458.071336,212.139831 457.584,212.5195 C457.096664,212.899169 456.853,213.479996 456.853,214.262 Z M466.186,213.956 L471.116,213.956 C471.025333,213.298663 470.761836,212.780169 470.3255,212.4005 C469.889164,212.020831 469.348003,211.831 468.702,211.831 C468.03333,211.831 467.469502,212.020831 467.0105,212.4005 C466.551498,212.780169 466.276667,213.298663 466.186,213.956 Z M472.646,214.551 C472.646,214.845668 472.640333,215.049666 472.629,215.163 L466.186,215.163 C466.276667,215.820337 466.557164,216.344498 467.0275,216.7355 C467.497836,217.126502 468.072997,217.322 468.753,217.322 C469.240336,217.322 469.687998,217.214334 470.096,216.999 C470.504002,216.783666 470.815666,216.483335 471.031,216.098 C471.178334,216.154667 471.404998,216.242499 471.711,216.3615 C472.017002,216.480501 472.232333,216.562666 472.357,216.608 C472.028332,217.288003 471.535337,217.809332 470.878,218.172 C470.220663,218.534668 469.495337,218.716 468.702,218.716 C467.545994,218.716 466.579837,218.330671 465.8035,217.56 C465.027163,216.789329 464.639,215.78634 464.639,214.551 C464.639,213.31566 465.027163,212.32117 465.8035,211.5675 C466.579837,210.81383 467.545994,210.437 468.702,210.437 C469.846672,210.437 470.790163,210.81383 471.5325,211.5675 C472.274837,212.32117 472.646,213.31566 472.646,214.551 Z M476.165,214.262 L476.165,218.546 L474.618,218.546 L474.618,210.607 L476.165,210.607 L476.165,211.797 C476.391668,211.354998 476.740164,211.017834 477.2105,210.7855 C477.680836,210.553166 478.159664,210.437 478.647,210.437 C479.633005,210.437 480.389497,210.742997 480.9165,211.355 C481.443503,211.967003 481.707,212.833994 481.707,213.956 L481.707,218.546 L480.16,218.546 L480.16,214.058 C480.16,213.400663 480.004168,212.885002 479.6925,212.511 C479.380832,212.136998 478.953003,211.95 478.409,211.95 C477.785664,211.95 477.255836,212.139831 476.8195,212.5195 C476.383164,212.899169 476.165,213.479996 476.165,214.262 Z M493.454,218.546 L488.915,218.546 L488.915,206.833 L493.454,206.833 C495.074675,206.833 496.358162,207.385494 497.3045,208.4905 C498.250838,209.595506 498.724,211.003658 498.724,212.715 C498.724,214.415009 498.253671,215.811828 497.313,216.9055 C496.372329,217.999172 495.086008,218.546 493.454,218.546 Z M490.496,217.067 L493.454,217.067 C494.632673,217.067 495.542163,216.661837 496.1825,215.8515 C496.822837,215.041163 497.143,213.995673 497.143,212.715 C497.143,211.422994 496.822837,210.366171 496.1825,209.5445 C495.542163,208.722829 494.632673,208.312 493.454,208.312 L490.496,208.312 L490.496,217.067 Z M501.223,206.833 L502.804,206.833 L502.804,218.546 L501.223,218.546 L501.223,206.833 Z M506.867,215.163 C506.878333,215.695669 507.121998,216.174498 507.598,216.5995 C508.074002,217.024502 508.668996,217.237 509.383,217.237 C510.08567,217.237 510.635331,217.072668 511.032,216.744 C511.428669,216.415332 511.666666,216.007336 511.746,215.52 C511.791334,214.941997 511.624169,214.483002 511.2445,214.143 C510.864831,213.802998 510.369003,213.565001 509.757,213.429 L508.244,213.055 C506.33999,212.567664 505.388,211.547674 505.388,209.995 C505.388,209.031662 505.761996,208.24117 506.51,207.6235 C507.258004,207.00583 508.147662,206.697 509.179,206.697 C510.267005,206.697 511.167996,207.011497 511.882,207.6405 C512.596004,208.269503 512.953,209.099662 512.953,210.131 L511.372,210.131 C511.372,209.552997 511.165169,209.088335 510.7515,208.737 C510.337831,208.385665 509.808003,208.21 509.162,208.21 C508.572664,208.21 508.059836,208.374332 507.6235,208.703 C507.187164,209.031668 506.969,209.456664 506.969,209.978 C506.969,210.794004 507.524328,211.337999 508.635,211.61 L510.165,211.984 C511.275672,212.267335 512.102997,212.720664 512.647,213.344 C513.191003,213.967336 513.406334,214.737995 513.293,215.656 C513.190999,216.540004 512.791503,217.270997 512.0945,217.849 C511.397497,218.427003 510.493672,218.716 509.383,218.716 C508.215661,218.716 507.241004,218.361837 506.459,217.6535 C505.676996,216.945163 505.286,216.115005 505.286,215.163 L506.867,215.163 Z M514.619,206.833 L523.323,206.833 L523.323,208.329 L519.77,208.329 L519.77,218.546 L518.172,218.546 L518.172,208.329 L514.619,208.329 L514.619,206.833 Z M530.31,214.109 L533.438,218.546 L531.517,218.546 L528.491,214.16 L526.995,214.16 L526.995,218.546 L525.397,218.546 L525.397,206.833 L529.902,206.833 C531.058006,206.833 531.924997,207.189996 532.503,207.904 C533.081003,208.618004 533.37,209.484995 533.37,210.505 C533.37,211.457005 533.117836,212.272997 532.6135,212.953 C532.109164,213.633003 531.341338,214.018333 530.31,214.109 Z M529.851,208.312 L526.995,208.312 L526.995,212.681 L529.783,212.681 C530.45167,212.681 530.944665,212.471335 531.262,212.052 C531.579335,211.632665 531.738,211.117003 531.738,210.505 C531.738,209.90433 531.582168,209.388669 531.2705,208.958 C530.958832,208.527331 530.48567,208.312 529.851,208.312 Z M535.92,206.833 L537.501,206.833 L537.501,218.546 L535.92,218.546 L535.92,206.833 Z M548.296,209.859 C548.296,211.117006 547.803005,211.932998 546.817,212.307 C547.440336,212.431667 547.947498,212.782997 548.3385,213.361 C548.729502,213.939003 548.925,214.539664 548.925,215.163 C548.925,216.115005 548.613336,216.91683 547.99,217.5685 C547.366664,218.22017 546.533672,218.546 545.491,218.546 L540.697,218.546 L540.697,206.833 L545.117,206.833 C546.091672,206.833 546.865164,207.104997 547.4375,207.649 C548.009836,208.193003 548.296,208.929662 548.296,209.859 Z M542.295,211.695 L545.117,211.695 C545.615669,211.695 546.000999,211.525002 546.273,211.185 C546.545001,210.844998 546.681,210.420003 546.681,209.91 C546.681,209.399997 546.525168,209.003335 546.2135,208.72 C545.901832,208.436665 545.479669,208.295 544.947,208.295 L542.295,208.295 L542.295,211.695 Z M545.372,213.089 L542.295,213.089 L542.295,217.067 L545.423,217.067 C545.978336,217.067 546.428832,216.877169 546.7745,216.4975 C547.120168,216.117831 547.293,215.667336 547.293,215.146 C547.293,214.635997 547.111668,214.165669 546.749,213.735 C546.386332,213.304331 545.927336,213.089 545.372,213.089 Z M553.634,216.438 C554.155336,216.936669 554.789996,217.186 555.538,217.186 C556.286004,217.186 556.920664,216.936669 557.442,216.438 C557.963336,215.939331 558.224,215.299004 558.224,214.517 L558.224,206.833 L559.822,206.833 L559.822,214.517 C559.822,215.763673 559.405504,216.775163 558.5725,217.5515 C557.739496,218.327837 556.728006,218.716 555.538,218.716 C554.347994,218.716 553.336504,218.327837 552.5035,217.5515 C551.670496,216.775163 551.254,215.763673 551.254,214.517 L551.254,206.833 L552.852,206.833 L552.852,214.517 C552.852,215.299004 553.112664,215.939331 553.634,216.438 Z M561.777,206.833 L570.481,206.833 L570.481,208.329 L566.928,208.329 L566.928,218.546 L565.33,218.546 L565.33,208.329 L561.777,208.329 L561.777,206.833 Z M572.555,206.833 L579.491,206.833 L579.491,208.312 L574.136,208.312 L574.136,212.052 L578.811,212.052 L578.811,213.531 L574.136,213.531 L574.136,217.067 L579.661,217.067 L579.661,218.546 L572.555,218.546 L572.555,206.833 Z" id="WhenalltokensareINthenDISTRIBUTE" fill="#FFFFFF" fill-rule="nonzero"></path>
            <path d="M454.974,8.964 C454.986,9.52800282 455.243997,10.0349978 455.748,10.485 C456.252003,10.9350023 456.881996,11.16 457.638,11.16 C458.382004,11.16 458.963998,10.9860017 459.384,10.638 C459.804002,10.2899983 460.056,9.85800258 460.14,9.342 C460.188,8.72999694 460.011002,8.2440018 459.609,7.884 C459.206998,7.5239982 458.682003,7.27200072 458.034,7.128 L456.432,6.732 C454.41599,6.21599742 453.408,5.13600822 453.408,3.492 C453.408,2.4719949 453.803996,1.63500327 454.596,0.981 C455.388004,0.32699673 456.329995,0 457.422,0 C458.574006,0 459.527996,0.33299667 460.284,0.999 C461.040004,1.66500333 461.418,2.54399454 461.418,3.636 L459.744,3.636 C459.744,3.02399694 459.525002,2.53200186 459.087,2.16 C458.648998,1.78799814 458.088003,1.602 457.404,1.602 C456.779997,1.602 456.237002,1.77599826 455.775,2.124 C455.312998,2.47200174 455.082,2.92199724 455.082,3.474 C455.082,4.33800432 455.669994,4.91399856 456.846,5.202 L458.466,5.598 C459.642006,5.8980015 460.517997,6.3779967 461.094,7.038 C461.670003,7.6980033 461.898001,8.51399514 461.778,9.486 C461.669999,10.4220047 461.247004,11.1959969 460.509,11.808 C459.770996,12.4200031 458.814006,12.726 457.638,12.726 C456.401994,12.726 455.370004,12.3510038 454.542,11.601 C453.713996,10.8509962 453.3,9.97200504 453.3,8.964 L454.974,8.964 Z M476.682,0.144 L478.482,0.144 L474.288,12.546 L472.83,12.546 L470.634,4.806 L468.456,12.546 L466.998,12.546 L462.804,0.144 L464.604,0.144 L467.718,9.846 L470.004,1.818 L471.282,1.818 L473.568,9.846 L476.682,0.144 Z M481.902,7.884 L486.006,7.884 L483.954,2.376 L481.902,7.884 Z M486.582,9.396 L481.326,9.396 L480.12,12.546 L478.338,12.546 L483.054,0.144 L484.854,0.144 L489.552,12.546 L487.788,12.546 L486.582,9.396 Z M491.442,0.144 L496.392,0.144 C497.616006,0.144 498.536997,0.52199622 499.155,1.278 C499.773003,2.03400378 500.082,2.9519946 500.082,4.032 C500.082,5.1120054 499.773003,6.02699625 499.155,6.777 C498.536997,7.52700375 497.616006,7.902 496.392,7.902 L493.134,7.902 L493.134,12.546 L491.442,12.546 L491.442,0.144 Z M496.374,1.71 L493.134,1.71 L493.134,6.336 L496.284,6.336 C496.992004,6.336 497.522998,6.11100225 497.877,5.661 C498.231002,5.21099775 498.408,4.66800318 498.408,4.032 C498.408,3.39599682 498.237002,2.85000228 497.895,2.394 C497.552998,1.93799772 497.046003,1.71 496.374,1.71 Z M515.454,9.522 L516.714,10.584 C516.149997,11.2560034 515.463004,11.7809981 514.653,12.159 C513.842996,12.5370019 512.964005,12.726 512.016,12.726 C510.263991,12.726 508.779006,12.1080062 507.561,10.872 C506.342994,9.63599382 505.734,8.13600882 505.734,6.372 C505.734,4.60799118 506.342994,3.10500621 507.561,1.863 C508.779006,0.62099379 510.263991,0 512.016,0 C512.952005,0 513.821996,0.18599814 514.626,0.558 C515.430004,0.93000186 516.113997,1.4459967 516.678,2.106 L515.418,3.15 C514.481995,2.1299949 513.348007,1.62 512.016,1.62 C510.719994,1.62 509.628004,2.08199538 508.74,3.006 C507.851996,3.93000462 507.408,5.0519934 507.408,6.372 C507.408,7.6920066 507.851996,8.81099541 508.74,9.729 C509.628004,10.6470046 510.719994,11.106 512.016,11.106 C513.408007,11.106 514.553995,10.5780053 515.454,9.522 Z M525.462,11.502 C524.609996,12.3180041 523.572006,12.726 522.348,12.726 C521.123994,12.726 520.086004,12.3180041 519.234,11.502 C518.381996,10.6859959 517.956,9.62400654 517.956,8.316 C517.956,7.01999352 518.378996,5.97000402 519.225,5.166 C520.071004,4.36199598 521.111994,3.96 522.348,3.96 C523.584006,3.96 524.627996,4.36199598 525.48,5.166 C526.332004,5.97000402 526.758,7.01999352 526.758,8.316 C526.758,9.61200648 526.326004,10.6739959 525.462,11.502 Z M520.368,10.368 C520.908003,10.8840026 521.567996,11.142 522.348,11.142 C523.128004,11.142 523.784997,10.8810026 524.319,10.359 C524.853003,9.83699739 525.12,9.1560042 525.12,8.316 C525.12,7.48799586 524.853003,6.82200252 524.319,6.318 C523.784997,5.81399748 523.128004,5.562 522.348,5.562 C521.567996,5.562 520.911003,5.81399748 520.377,6.318 C519.842997,6.82200252 519.576,7.48799586 519.576,8.316 C519.576,9.1560042 519.839997,9.83999736 520.368,10.368 Z M530.574,8.01 L530.574,12.546 L528.936,12.546 L528.936,4.14 L530.574,4.14 L530.574,5.4 C530.814001,4.93199766 531.182998,4.57500123 531.681,4.329 C532.179002,4.08299877 532.685997,3.96 533.202,3.96 C534.246005,3.96 535.046997,4.28399676 535.605,4.932 C536.163003,5.58000324 536.442,6.49799406 536.442,7.686 L536.442,12.546 L534.804,12.546 L534.804,7.794 C534.804,7.09799652 534.639002,6.55200198 534.309,6.156 C533.978998,5.75999802 533.526003,5.562 532.95,5.562 C532.289997,5.562 531.729002,5.76299799 531.267,6.165 C530.804998,6.56700201 530.574,7.18199586 530.574,8.01 Z M541.338,4.14 L543.12,4.14 L543.12,5.526 L541.338,5.526 L541.338,12.546 L539.7,12.546 L539.7,5.526 L538.188,5.526 L538.188,4.14 L539.7,4.14 L539.7,0.972 L541.338,0.972 L541.338,4.14 Z M546.612,9.486 L546.612,12.546 L544.974,12.546 L544.974,4.14 L546.612,4.14 L546.612,6.03 C547.020002,4.6499931 547.799994,3.96 548.952,3.96 C549.612003,3.96 550.097998,4.06799892 550.41,4.284 L550.158,5.814 C549.761998,5.62199904 549.348002,5.526 548.916,5.526 C548.147996,5.526 547.572002,5.88899637 547.188,6.615 C546.803998,7.34100363 546.612,8.29799406 546.612,9.486 Z M558.528,12.546 L558.528,11.25 C558.251999,11.7180023 557.844003,12.0809987 557.304,12.339 C556.763997,12.5970013 556.188003,12.726 555.576,12.726 C554.387994,12.726 553.380004,12.3180041 552.552,11.502 C551.723996,10.6859959 551.31,9.63000648 551.31,8.334 C551.31,7.02599346 551.723996,5.97000402 552.552,5.166 C553.380004,4.36199598 554.387994,3.96 555.576,3.96 C556.188003,3.96 556.766997,4.08599874 557.313,4.338 C557.859003,4.59000126 558.263999,4.94399772 558.528,5.4 L558.528,4.14 L560.148,4.14 L560.148,12.546 L558.528,12.546 Z M558.51,8.316 C558.51,7.46399574 558.228003,6.79200246 557.664,6.3 C557.099997,5.80799754 556.452004,5.562 555.72,5.562 C554.939996,5.562 554.289003,5.81699745 553.767,6.327 C553.244997,6.83700255 552.984,7.49999592 552.984,8.316 C552.984,9.13200408 553.247997,9.80399736 553.776,10.332 C554.304003,10.8600026 554.951996,11.124 555.72,11.124 C556.500004,11.124 557.159997,10.8720025 557.7,10.368 C558.240003,9.86399748 558.51,9.18000432 558.51,8.316 Z M563.622,11.502 C562.757996,10.6739959 562.326,9.61200648 562.326,8.316 C562.326,7.01999352 562.757996,5.97000402 563.622,5.166 C564.486004,4.36199598 565.535994,3.96 566.772,3.96 C568.104007,3.96 569.183996,4.4099955 570.012,5.31 L568.77,6.354 C568.241997,5.82599736 567.576004,5.562 566.772,5.562 C565.991996,5.562 565.326003,5.81699745 564.774,6.327 C564.221997,6.83700255 563.946,7.49999592 563.946,8.316 C563.946,9.14400414 564.221997,9.82199736 564.774,10.35 C565.326003,10.8780026 565.991996,11.142 566.772,11.142 C567.576004,11.142 568.241997,10.8660028 568.77,10.314 L570.03,11.358 C569.189996,12.2700046 568.104007,12.726 566.772,12.726 C565.535994,12.726 564.486004,12.3180041 563.622,11.502 Z M574.368,4.14 L576.15,4.14 L576.15,5.526 L574.368,5.526 L574.368,12.546 L572.73,12.546 L572.73,5.526 L571.218,5.526 L571.218,4.14 L572.73,4.14 L572.73,0.972 L574.368,0.972 L574.368,4.14 Z" id="SWAPContract" fill="#FFFFFF" fill-rule="nonzero"></path>
            <rect id="Rectangle" fill-opacity="0.2" fill="#000000" x="0" y="37.546" width="104" height="97"></rect>
            <polygon id="Rectangle-5-Copy-13" fill="#FFFFFF" opacity="0.5" points="103 85.546 290 85.546 290 86.546 103 86.546"></polygon>
            <path d="M174.215,74.516 L176.42,74.516 C176.44,74.8660018 176.584999,75.1609988 176.855,75.401 C177.125001,75.6410012 177.494998,75.761 177.965,75.761 C178.415002,75.761 178.777499,75.661001 179.0525,75.461 C179.327501,75.260999 179.47,74.9960017 179.48,74.666 C179.49,74.4059987 179.407501,74.1810009 179.2325,73.991 C179.057499,73.800999 178.725002,73.6360007 178.235,73.496 L176.99,73.151 C175.209991,72.6009973 174.32,71.6110071 174.32,70.181 C174.32,69.2709955 174.659997,68.5285029 175.34,67.9535 C176.020003,67.3784971 176.864995,67.091 177.875,67.091 C178.895005,67.091 179.732497,67.3759972 180.3875,67.946 C181.042503,68.5160028 181.37,69.2859951 181.37,70.256 L179.18,70.256 C179.18,69.9059983 179.065001,69.6235011 178.835,69.4085 C178.604999,69.1934989 178.275002,69.086 177.845,69.086 C177.454998,69.086 177.135001,69.183499 176.885,69.3785 C176.634999,69.573501 176.51,69.8209985 176.51,70.121 C176.51,70.6110025 176.879996,70.9609989 177.62,71.171 L178.85,71.561 C180.79001,72.1210028 181.735,73.1609924 181.685,74.681 C181.675,75.3310033 181.485002,75.8934976 181.115,76.3685 C180.744998,76.8435024 180.287503,77.185999 179.7425,77.396 C179.197497,77.6060011 178.605003,77.711 177.965,77.711 C176.844994,77.711 175.940003,77.413503 175.25,76.8185 C174.559997,76.223497 174.215,75.4560047 174.215,74.516 Z M183.5,77.546 L183.5,67.211 L190.04,67.211 L190.04,69.146 L185.69,69.146 L185.69,71.501 L189.5,71.501 L189.5,73.406 L185.69,73.406 L185.69,75.611 L190.175,75.611 L190.175,77.546 L183.5,77.546 Z M199.895,67.211 L199.895,77.546 L197.93,77.546 L194.33,71.291 L194.33,77.546 L192.14,77.546 L192.14,67.211 L194.15,67.211 L197.69,73.391 L197.69,67.211 L199.895,67.211 Z M204.515,69.206 L204.515,75.551 L206.375,75.551 C207.165004,75.551 207.774998,75.251003 208.205,74.651 C208.635002,74.050997 208.85,73.3010045 208.85,72.401 C208.85,71.4909955 208.635002,70.7310031 208.205,70.121 C207.774998,69.510997 207.165004,69.206 206.375,69.206 L204.515,69.206 Z M206.375,77.546 L202.325,77.546 L202.325,67.211 L206.375,67.211 C207.825007,67.211 208.964996,67.6984951 209.795,68.6735 C210.625004,69.6485049 211.04,70.8909925 211.04,72.401 C211.04,73.9110076 210.625004,75.1459952 209.795,76.106 C208.964996,77.0660048 207.825007,77.546 206.375,77.546 Z M212.375,74.516 L214.58,74.516 C214.6,74.8660018 214.744999,75.1609988 215.015,75.401 C215.285001,75.6410012 215.654998,75.761 216.125,75.761 C216.575002,75.761 216.937499,75.661001 217.2125,75.461 C217.487501,75.260999 217.63,74.9960017 217.64,74.666 C217.65,74.4059987 217.567501,74.1810009 217.3925,73.991 C217.217499,73.800999 216.885002,73.6360007 216.395,73.496 L215.15,73.151 C213.369991,72.6009973 212.48,71.6110071 212.48,70.181 C212.48,69.2709955 212.819997,68.5285029 213.5,67.9535 C214.180003,67.3784971 215.024995,67.091 216.035,67.091 C217.055005,67.091 217.892497,67.3759972 218.5475,67.946 C219.202503,68.5160028 219.53,69.2859951 219.53,70.256 L217.34,70.256 C217.34,69.9059983 217.225001,69.6235011 216.995,69.4085 C216.764999,69.1934989 216.435002,69.086 216.005,69.086 C215.614998,69.086 215.295001,69.183499 215.045,69.3785 C214.794999,69.573501 214.67,69.8209985 214.67,70.121 C214.67,70.6110025 215.039996,70.9609989 215.78,71.171 L217.01,71.561 C218.95001,72.1210028 219.895,73.1609924 219.845,74.681 C219.835,75.3310033 219.645002,75.8934976 219.275,76.3685 C218.904998,76.8435024 218.447503,77.185999 217.9025,77.396 C217.357497,77.6060011 216.765003,77.711 216.125,77.711 C215.004994,77.711 214.100003,77.413503 213.41,76.8185 C212.719997,76.223497 212.375,75.4560047 212.375,74.516 Z M163.4675,94.586 L163.4675,104.546 L161.3675,104.546 L161.3675,97.511 L159.6875,98.231 L159.6875,96.386 L163.4675,94.586 Z M165.6275,99.626 C165.6275,96.225983 166.852488,94.526 169.3025,94.526 C169.992503,94.526 170.582498,94.6559987 171.0725,94.916 C171.562502,95.1760013 171.939999,95.5459976 172.205,96.026 C172.470001,96.5060024 172.659999,97.0384971 172.775,97.6235 C172.890001,98.2085029 172.9475,98.8759963 172.9475,99.626 C172.9475,100.376004 172.890001,101.038497 172.775,101.6135 C172.659999,102.188503 172.470001,102.715998 172.205,103.196 C171.939999,103.676002 171.562502,104.045999 171.0725,104.306 C170.582498,104.566001 169.992503,104.696 169.3025,104.696 C166.852488,104.696 165.6275,103.006017 165.6275,99.626 Z M167.7275,99.626 C167.7275,101.64601 168.252495,102.656 169.3025,102.656 C170.332505,102.656 170.8475,101.64601 170.8475,99.626 C170.8475,97.5859898 170.332505,96.566 169.3025,96.566 C168.252495,96.566 167.7275,97.5859898 167.7275,99.626 Z M174.6875,99.626 C174.6875,96.225983 175.912488,94.526 178.3625,94.526 C179.052503,94.526 179.642498,94.6559987 180.1325,94.916 C180.622502,95.1760013 180.999999,95.5459976 181.265,96.026 C181.530001,96.5060024 181.719999,97.0384971 181.835,97.6235 C181.950001,98.2085029 182.0075,98.8759963 182.0075,99.626 C182.0075,100.376004 181.950001,101.038497 181.835,101.6135 C181.719999,102.188503 181.530001,102.715998 181.265,103.196 C180.999999,103.676002 180.622502,104.045999 180.1325,104.306 C179.642498,104.566001 179.052503,104.696 178.3625,104.696 C175.912488,104.696 174.6875,103.006017 174.6875,99.626 Z M176.7875,99.626 C176.7875,101.64601 177.312495,102.656 178.3625,102.656 C179.392505,102.656 179.9075,101.64601 179.9075,99.626 C179.9075,97.5859898 179.392505,96.566 178.3625,96.566 C177.312495,96.566 176.7875,97.5859898 176.7875,99.626 Z M196.3325,95.786 L194.7125,97.181 C194.092497,96.4809965 193.337504,96.131 192.4475,96.131 C191.577496,96.131 190.845003,96.4509968 190.25,97.091 C189.654997,97.7310032 189.3575,98.5009955 189.3575,99.401 C189.3575,100.301005 189.657497,101.073497 190.2575,101.7185 C190.857503,102.363503 191.587496,102.686 192.4475,102.686 C193.047503,102.686 193.612497,102.518502 194.1425,102.1835 C194.672503,101.848498 194.9425,101.421003 194.9525,100.901 L192.1775,100.901 L192.1775,99.116 L197.4875,99.116 C197.4875,100.986009 197.035005,102.383495 196.13,103.3085 C195.224995,104.233505 193.997508,104.696 192.4475,104.696 C190.967493,104.696 189.715005,104.178505 188.69,103.1435 C187.664995,102.108495 187.1525,100.861007 187.1525,99.401 C187.1525,97.9309927 187.664995,96.6785052 188.69,95.6435 C189.715005,94.6084948 190.967493,94.091 192.4475,94.091 C193.227504,94.091 193.954997,94.2409985 194.63,94.541 C195.305003,94.8410015 195.872498,95.2559974 196.3325,95.786 Z M203.2175,96.146 L201.2975,96.146 L201.2975,99.056 L203.1575,99.056 C203.557502,99.056 203.874999,98.9060015 204.11,98.606 C204.345001,98.3059985 204.4625,97.9710018 204.4625,97.601 C204.4625,97.2409982 204.350001,96.9085015 204.125,96.6035 C203.899999,96.2984985 203.597502,96.146 203.2175,96.146 Z M204.1775,100.886 L206.7425,104.546 L204.1025,104.546 L201.7925,100.976 L201.2975,100.976 L201.2975,104.546 L199.0925,104.546 L199.0925,94.211 L203.3225,94.211 C204.422505,94.211 205.269997,94.5434967 205.865,95.2085 C206.460003,95.8735033 206.7575,96.6709954 206.7575,97.601 C206.7575,98.391004 206.537502,99.090997 206.0975,99.701 C205.657498,100.311003 205.017504,100.705999 204.1775,100.886 Z M208.6475,104.546 L208.6475,94.211 L215.1875,94.211 L215.1875,96.146 L210.8375,96.146 L210.8375,98.501 L214.6475,98.501 L214.6475,100.406 L210.8375,100.406 L210.8375,102.611 L215.3225,102.611 L215.3225,104.546 L208.6475,104.546 Z M217.2875,104.546 L217.2875,94.211 L223.8275,94.211 L223.8275,96.146 L219.4775,96.146 L219.4775,98.501 L223.2875,98.501 L223.2875,100.406 L219.4775,100.406 L219.4775,102.611 L223.9625,102.611 L223.9625,104.546 L217.2875,104.546 Z M233.6825,94.211 L233.6825,104.546 L231.7175,104.546 L228.1175,98.291 L228.1175,104.546 L225.9275,104.546 L225.9275,94.211 L227.9375,94.211 L231.4775,100.391 L231.4775,94.211 L233.6825,94.211 Z" id="SENDS100GREEN" fill="#5CD0B6" fill-rule="nonzero" opacity="0.85"></path>
            <rect id="Rectangle" fill-opacity="0.2" fill="#000000" transform="translate(977.000000, 86.046000) scale(-1, 1) translate(-977.000000, -86.046000) " x="925" y="37.546" width="104" height="97"></rect>
            <polygon id="Rectangle-5-Copy-13" fill="#FFFFFF" opacity="0.5" transform="translate(832.500000, 86.046000) scale(-1, 1) translate(-832.500000, -86.046000) " points="739 85.546 926 85.546 926 86.546 739 86.546"></polygon>
            <path d="M809.715,74.516 L811.92,74.516 C811.94,74.8660018 812.084999,75.1609988 812.355,75.401 C812.625001,75.6410012 812.994998,75.761 813.465,75.761 C813.915002,75.761 814.277499,75.661001 814.5525,75.461 C814.827501,75.260999 814.97,74.9960017 814.98,74.666 C814.99,74.4059987 814.907501,74.1810009 814.7325,73.991 C814.557499,73.800999 814.225002,73.6360007 813.735,73.496 L812.49,73.151 C810.709991,72.6009973 809.82,71.6110071 809.82,70.181 C809.82,69.2709955 810.159997,68.5285029 810.84,67.9535 C811.520003,67.3784971 812.364995,67.091 813.375,67.091 C814.395005,67.091 815.232497,67.3759972 815.8875,67.946 C816.542503,68.5160028 816.87,69.2859951 816.87,70.256 L814.68,70.256 C814.68,69.9059983 814.565001,69.6235011 814.335,69.4085 C814.104999,69.1934989 813.775002,69.086 813.345,69.086 C812.954998,69.086 812.635001,69.183499 812.385,69.3785 C812.134999,69.573501 812.01,69.8209985 812.01,70.121 C812.01,70.6110025 812.379996,70.9609989 813.12,71.171 L814.35,71.561 C816.29001,72.1210028 817.235,73.1609924 817.185,74.681 C817.175,75.3310033 816.985002,75.8934976 816.615,76.3685 C816.244998,76.8435024 815.787503,77.185999 815.2425,77.396 C814.697497,77.6060011 814.105003,77.711 813.465,77.711 C812.344994,77.711 811.440003,77.413503 810.75,76.8185 C810.059997,76.223497 809.715,75.4560047 809.715,74.516 Z M819,77.546 L819,67.211 L825.54,67.211 L825.54,69.146 L821.19,69.146 L821.19,71.501 L825,71.501 L825,73.406 L821.19,73.406 L821.19,75.611 L825.675,75.611 L825.675,77.546 L819,77.546 Z M835.395,67.211 L835.395,77.546 L833.43,77.546 L829.83,71.291 L829.83,77.546 L827.64,77.546 L827.64,67.211 L829.65,67.211 L833.19,73.391 L833.19,67.211 L835.395,67.211 Z M840.015,69.206 L840.015,75.551 L841.875,75.551 C842.665004,75.551 843.274998,75.251003 843.705,74.651 C844.135002,74.050997 844.35,73.3010045 844.35,72.401 C844.35,71.4909955 844.135002,70.7310031 843.705,70.121 C843.274998,69.510997 842.665004,69.206 841.875,69.206 L840.015,69.206 Z M841.875,77.546 L837.825,77.546 L837.825,67.211 L841.875,67.211 C843.325007,67.211 844.464996,67.6984951 845.295,68.6735 C846.125004,69.6485049 846.54,70.8909925 846.54,72.401 C846.54,73.9110076 846.125004,75.1459952 845.295,76.106 C844.464996,77.0660048 843.325007,77.546 841.875,77.546 Z M847.875,74.516 L850.08,74.516 C850.1,74.8660018 850.244999,75.1609988 850.515,75.401 C850.785001,75.6410012 851.154998,75.761 851.625,75.761 C852.075002,75.761 852.437499,75.661001 852.7125,75.461 C852.987501,75.260999 853.13,74.9960017 853.14,74.666 C853.15,74.4059987 853.067501,74.1810009 852.8925,73.991 C852.717499,73.800999 852.385002,73.6360007 851.895,73.496 L850.65,73.151 C848.869991,72.6009973 847.98,71.6110071 847.98,70.181 C847.98,69.2709955 848.319997,68.5285029 849,67.9535 C849.680003,67.3784971 850.524995,67.091 851.535,67.091 C852.555005,67.091 853.392497,67.3759972 854.0475,67.946 C854.702503,68.5160028 855.03,69.2859951 855.03,70.256 L852.84,70.256 C852.84,69.9059983 852.725001,69.6235011 852.495,69.4085 C852.264999,69.1934989 851.935002,69.086 851.505,69.086 C851.114998,69.086 850.795001,69.183499 850.545,69.3785 C850.294999,69.573501 850.17,69.8209985 850.17,70.121 C850.17,70.6110025 850.539996,70.9609989 851.28,71.171 L852.51,71.561 C854.45001,72.1210028 855.395,73.1609924 855.345,74.681 C855.335,75.3310033 855.145002,75.8934976 854.775,76.3685 C854.404998,76.8435024 853.947503,77.185999 853.4025,77.396 C852.857497,77.6060011 852.265003,77.711 851.625,77.711 C850.504994,77.711 849.600003,77.413503 848.91,76.8185 C848.219997,76.223497 847.875,75.4560047 847.875,74.516 Z M810.255,104.546 L803.865,104.546 L803.865,103.406 L807.9,98.621 C808.250002,98.220998 808.425,97.8510017 808.425,97.511 C808.425,97.2409986 808.315001,97.011001 808.095,96.821 C807.874999,96.6309991 807.575002,96.536 807.195,96.536 C806.824998,96.536 806.515001,96.6634987 806.265,96.9185 C806.014999,97.1735013 805.86,97.500998 805.8,97.901 L803.88,97.571 C804.030001,96.6309953 804.409997,95.8885027 805.02,95.3435 C805.630003,94.7984973 806.394995,94.526 807.315,94.526 C808.205004,94.526 808.962497,94.8059972 809.5875,95.366 C810.212503,95.9260028 810.525,96.6409957 810.525,97.511 C810.525,98.3910044 810.180003,99.2209961 809.49,100.001 L807.225,102.566 L810.255,102.566 L810.255,104.546 Z M812.19,99.626 C812.19,96.225983 813.414988,94.526 815.865,94.526 C816.555003,94.526 817.144998,94.6559987 817.635,94.916 C818.125002,95.1760013 818.502499,95.5459976 818.7675,96.026 C819.032501,96.5060024 819.222499,97.0384971 819.3375,97.6235 C819.452501,98.2085029 819.51,98.8759963 819.51,99.626 C819.51,100.376004 819.452501,101.038497 819.3375,101.6135 C819.222499,102.188503 819.032501,102.715998 818.7675,103.196 C818.502499,103.676002 818.125002,104.045999 817.635,104.306 C817.144998,104.566001 816.555003,104.696 815.865,104.696 C813.414988,104.696 812.19,103.006017 812.19,99.626 Z M814.29,99.626 C814.29,101.64601 814.814995,102.656 815.865,102.656 C816.895005,102.656 817.41,101.64601 817.41,99.626 C817.41,97.5859898 816.895005,96.566 815.865,96.566 C814.814995,96.566 814.29,97.5859898 814.29,99.626 Z M821.25,99.626 C821.25,96.225983 822.474988,94.526 824.925,94.526 C825.615003,94.526 826.204998,94.6559987 826.695,94.916 C827.185002,95.1760013 827.562499,95.5459976 827.8275,96.026 C828.092501,96.5060024 828.282499,97.0384971 828.3975,97.6235 C828.512501,98.2085029 828.57,98.8759963 828.57,99.626 C828.57,100.376004 828.512501,101.038497 828.3975,101.6135 C828.282499,102.188503 828.092501,102.715998 827.8275,103.196 C827.562499,103.676002 827.185002,104.045999 826.695,104.306 C826.204998,104.566001 825.615003,104.696 824.925,104.696 C822.474988,104.696 821.25,103.006017 821.25,99.626 Z M823.35,99.626 C823.35,101.64601 823.874995,102.656 824.925,102.656 C825.955005,102.656 826.47,101.64601 826.47,99.626 C826.47,97.5859898 825.955005,96.566 824.925,96.566 C823.874995,96.566 823.35,97.5859898 823.35,99.626 Z M838.44,96.146 L836.52,96.146 L836.52,99.056 L838.38,99.056 C838.780002,99.056 839.097499,98.9060015 839.3325,98.606 C839.567501,98.3059985 839.685,97.9710018 839.685,97.601 C839.685,97.2409982 839.572501,96.9085015 839.3475,96.6035 C839.122499,96.2984985 838.820002,96.146 838.44,96.146 Z M839.4,100.886 L841.965,104.546 L839.325,104.546 L837.015,100.976 L836.52,100.976 L836.52,104.546 L834.315,104.546 L834.315,94.211 L838.545,94.211 C839.645005,94.211 840.492497,94.5434967 841.0875,95.2085 C841.682503,95.8735033 841.98,96.6709954 841.98,97.601 C841.98,98.391004 841.760002,99.090997 841.32,99.701 C840.879998,100.311003 840.240004,100.705999 839.4,100.886 Z M843.87,104.546 L843.87,94.211 L850.41,94.211 L850.41,96.146 L846.06,96.146 L846.06,98.501 L849.87,98.501 L849.87,100.406 L846.06,100.406 L846.06,102.611 L850.545,102.611 L850.545,104.546 L843.87,104.546 Z M854.7,96.206 L854.7,102.551 L856.56,102.551 C857.350004,102.551 857.959998,102.251003 858.39,101.651 C858.820002,101.050997 859.035,100.301005 859.035,99.401 C859.035,98.4909955 858.820002,97.7310031 858.39,97.121 C857.959998,96.510997 857.350004,96.206 856.56,96.206 L854.7,96.206 Z M856.56,104.546 L852.51,104.546 L852.51,94.211 L856.56,94.211 C858.010007,94.211 859.149996,94.6984951 859.98,95.6735 C860.810004,96.6485049 861.225,97.8909925 861.225,99.401 C861.225,100.911008 860.810004,102.145995 859.98,103.106 C859.149996,104.066005 858.010007,104.546 856.56,104.546 Z" id="SENDS200RED" fill="#F28C3E" fill-rule="nonzero"></path>
            <path d="M509,57.6117316 C495.42417,60.0444905 485.125,71.8495963 485.125,86.046 C485.125,100.242404 495.42417,112.047509 509,114.480268 L509,134.546 L318,134.546 L318,37.546 L509,37.546 L509,57.6117316 Z" id="Combined-Shape" fill-opacity="0.2" fill="#000000"></path>
            <path d="M380.4675,67.586 L380.4675,77.546 L378.3675,77.546 L378.3675,70.511 L376.6875,71.231 L376.6875,69.386 L380.4675,67.586 Z M382.6275,72.626 C382.6275,69.225983 383.852488,67.526 386.3025,67.526 C386.992503,67.526 387.582498,67.6559987 388.0725,67.916 C388.562502,68.1760013 388.939999,68.5459976 389.205,69.026 C389.470001,69.5060024 389.659999,70.0384971 389.775,70.6235 C389.890001,71.2085029 389.9475,71.8759963 389.9475,72.626 C389.9475,73.3760038 389.890001,74.0384971 389.775,74.6135 C389.659999,75.1885029 389.470001,75.7159976 389.205,76.196 C388.939999,76.6760024 388.562502,77.0459987 388.0725,77.306 C387.582498,77.5660013 386.992503,77.696 386.3025,77.696 C383.852488,77.696 382.6275,76.0060169 382.6275,72.626 Z M384.7275,72.626 C384.7275,74.6460101 385.252495,75.656 386.3025,75.656 C387.332505,75.656 387.8475,74.6460101 387.8475,72.626 C387.8475,70.5859898 387.332505,69.566 386.3025,69.566 C385.252495,69.566 384.7275,70.5859898 384.7275,72.626 Z M391.6875,72.626 C391.6875,69.225983 392.912488,67.526 395.3625,67.526 C396.052503,67.526 396.642498,67.6559987 397.1325,67.916 C397.622502,68.1760013 397.999999,68.5459976 398.265,69.026 C398.530001,69.5060024 398.719999,70.0384971 398.835,70.6235 C398.950001,71.2085029 399.0075,71.8759963 399.0075,72.626 C399.0075,73.3760038 398.950001,74.0384971 398.835,74.6135 C398.719999,75.1885029 398.530001,75.7159976 398.265,76.196 C397.999999,76.6760024 397.622502,77.0459987 397.1325,77.306 C396.642498,77.5660013 396.052503,77.696 395.3625,77.696 C392.912488,77.696 391.6875,76.0060169 391.6875,72.626 Z M393.7875,72.626 C393.7875,74.6460101 394.312495,75.656 395.3625,75.656 C396.392505,75.656 396.9075,74.6460101 396.9075,72.626 C396.9075,70.5859898 396.392505,69.566 395.3625,69.566 C394.312495,69.566 393.7875,70.5859898 393.7875,72.626 Z M413.3325,68.786 L411.7125,70.181 C411.092497,69.4809965 410.337504,69.131 409.4475,69.131 C408.577496,69.131 407.845003,69.4509968 407.25,70.091 C406.654997,70.7310032 406.3575,71.5009955 406.3575,72.401 C406.3575,73.3010045 406.657497,74.0734968 407.2575,74.7185 C407.857503,75.3635032 408.587496,75.686 409.4475,75.686 C410.047503,75.686 410.612497,75.5185017 411.1425,75.1835 C411.672503,74.8484983 411.9425,74.4210026 411.9525,73.901 L409.1775,73.901 L409.1775,72.116 L414.4875,72.116 C414.4875,73.9860094 414.035005,75.3834954 413.13,76.3085 C412.224995,77.2335046 410.997508,77.696 409.4475,77.696 C407.967493,77.696 406.715005,77.1785052 405.69,76.1435 C404.664995,75.1084948 404.1525,73.8610073 404.1525,72.401 C404.1525,70.9309927 404.664995,69.6785052 405.69,68.6435 C406.715005,67.6084948 407.967493,67.091 409.4475,67.091 C410.227504,67.091 410.954997,67.2409985 411.63,67.541 C412.305003,67.8410015 412.872498,68.2559974 413.3325,68.786 Z M420.2175,69.146 L418.2975,69.146 L418.2975,72.056 L420.1575,72.056 C420.557502,72.056 420.874999,71.9060015 421.11,71.606 C421.345001,71.3059985 421.4625,70.9710018 421.4625,70.601 C421.4625,70.2409982 421.350001,69.9085015 421.125,69.6035 C420.899999,69.2984985 420.597502,69.146 420.2175,69.146 Z M421.1775,73.886 L423.7425,77.546 L421.1025,77.546 L418.7925,73.976 L418.2975,73.976 L418.2975,77.546 L416.0925,77.546 L416.0925,67.211 L420.3225,67.211 C421.422505,67.211 422.269997,67.5434967 422.865,68.2085 C423.460003,68.8735033 423.7575,69.6709954 423.7575,70.601 C423.7575,71.391004 423.537502,72.090997 423.0975,72.701 C422.657498,73.311003 422.017504,73.7059991 421.1775,73.886 Z M425.6475,77.546 L425.6475,67.211 L432.1875,67.211 L432.1875,69.146 L427.8375,69.146 L427.8375,71.501 L431.6475,71.501 L431.6475,73.406 L427.8375,73.406 L427.8375,75.611 L432.3225,75.611 L432.3225,77.546 L425.6475,77.546 Z M434.2875,77.546 L434.2875,67.211 L440.8275,67.211 L440.8275,69.146 L436.4775,69.146 L436.4775,71.501 L440.2875,71.501 L440.2875,73.406 L436.4775,73.406 L436.4775,75.611 L440.9625,75.611 L440.9625,77.546 L434.2875,77.546 Z M450.6825,67.211 L450.6825,77.546 L448.7175,77.546 L445.1175,71.291 L445.1175,77.546 L442.9275,77.546 L442.9275,67.211 L444.9375,67.211 L448.4775,73.391 L448.4775,67.211 L450.6825,67.211 Z M386.0175,95.191 L386.0175,93.211 L393.8175,93.211 L393.8175,95.191 L391.0275,95.191 L391.0275,103.546 L388.8075,103.546 L388.8075,95.191 L386.0175,95.191 Z M397.6875,96.181 C397.097497,96.791003 396.8025,97.5309957 396.8025,98.401 C396.8025,99.2710044 397.097497,100.008497 397.6875,100.6135 C398.277503,101.218503 398.997496,101.521 399.8475,101.521 C400.697504,101.521 401.419997,101.216003 402.015,100.606 C402.610003,99.995997 402.9075,99.2610043 402.9075,98.401 C402.9075,97.5309957 402.610003,96.791003 402.015,96.181 C401.419997,95.570997 400.697504,95.266 399.8475,95.266 C398.997496,95.266 398.277503,95.570997 397.6875,96.181 Z M394.6125,98.401 C394.6125,96.9309927 395.119995,95.6785052 396.135,94.6435 C397.150005,93.6084948 398.387493,93.091 399.8475,93.091 C401.317507,93.091 402.559995,93.6084948 403.575,94.6435 C404.590005,95.6785052 405.0975,96.9309927 405.0975,98.401 C405.0975,99.8610073 404.587505,101.108495 403.5675,102.1435 C402.547495,103.178505 401.307507,103.696 399.8475,103.696 C398.387493,103.696 397.150005,103.178505 396.135,102.1435 C395.119995,101.108495 394.6125,99.8610073 394.6125,98.401 Z M410.2575,98.326 L415.1025,103.546 L412.2525,103.546 L409.1475,100.036 L409.1475,103.546 L406.9275,103.546 L406.9275,93.211 L409.1475,93.211 L409.1475,96.601 L411.5925,93.211 L414.1725,93.211 L410.2575,98.326 Z M416.0625,103.546 L416.0625,93.211 L422.6025,93.211 L422.6025,95.146 L418.2525,95.146 L418.2525,97.501 L422.0625,97.501 L422.0625,99.406 L418.2525,99.406 L418.2525,101.611 L422.7375,101.611 L422.7375,103.546 L416.0625,103.546 Z M432.4575,93.211 L432.4575,103.546 L430.4925,103.546 L426.8925,97.291 L426.8925,103.546 L424.7025,103.546 L424.7025,93.211 L426.7125,93.211 L430.2525,99.391 L430.2525,93.211 L432.4575,93.211 Z M434.3325,100.516 L436.5375,100.516 C436.5575,100.866002 436.702499,101.160999 436.9725,101.401 C437.242501,101.641001 437.612498,101.761 438.0825,101.761 C438.532502,101.761 438.894999,101.661001 439.17,101.461 C439.445001,101.260999 439.5875,100.996002 439.5975,100.666 C439.6075,100.405999 439.525001,100.181001 439.35,99.991 C439.174999,99.800999 438.842502,99.6360007 438.3525,99.496 L437.1075,99.151 C435.327491,98.6009973 434.4375,97.6110071 434.4375,96.181 C434.4375,95.2709955 434.777497,94.5285029 435.4575,93.9535 C436.137503,93.3784971 436.982495,93.091 437.9925,93.091 C439.012505,93.091 439.849997,93.3759972 440.505,93.946 C441.160003,94.5160028 441.4875,95.2859951 441.4875,96.256 L439.2975,96.256 C439.2975,95.9059983 439.182501,95.6235011 438.9525,95.4085 C438.722499,95.1934989 438.392502,95.086 437.9625,95.086 C437.572498,95.086 437.252501,95.183499 437.0025,95.3785 C436.752499,95.573501 436.6275,95.8209985 436.6275,96.121 C436.6275,96.6110025 436.997496,96.9609989 437.7375,97.171 L438.9675,97.561 C440.90751,98.1210028 441.8525,99.1609924 441.8025,100.681 C441.7925,101.331003 441.602502,101.893498 441.2325,102.3685 C440.862498,102.843502 440.405003,103.185999 439.86,103.396 C439.314997,103.606001 438.722503,103.711 438.0825,103.711 C436.962494,103.711 436.057503,103.413503 435.3675,102.8185 C434.677497,102.223497 434.3325,101.456005 434.3325,100.516 Z" id="100GREENTOKENS" fill="#5CD0B6" fill-rule="nonzero"></path>
            <path d="M519,114.480268 C532.57583,112.047509 542.875,100.242404 542.875,86.046 C542.875,71.8495963 532.57583,60.0444905 519,57.6117316 L519,37.546 L710,37.546 L710,134.546 L519,134.546 L519,114.480268 Z" id="Combined-Shape" fill-opacity="0.2" fill="#000000"></path>
            <path d="M592.255,77.546 L585.865,77.546 L585.865,76.406 L589.9,71.621 C590.250002,71.220998 590.425,70.8510017 590.425,70.511 C590.425,70.2409986 590.315001,70.011001 590.095,69.821 C589.874999,69.6309991 589.575002,69.536 589.195,69.536 C588.824998,69.536 588.515001,69.6634987 588.265,69.9185 C588.014999,70.1735013 587.86,70.500998 587.8,70.901 L585.88,70.571 C586.030001,69.6309953 586.409997,68.8885027 587.02,68.3435 C587.630003,67.7984973 588.394995,67.526 589.315,67.526 C590.205004,67.526 590.962497,67.8059972 591.5875,68.366 C592.212503,68.9260028 592.525,69.6409957 592.525,70.511 C592.525,71.3910044 592.180003,72.2209961 591.49,73.001 L589.225,75.566 L592.255,75.566 L592.255,77.546 Z M594.19,72.626 C594.19,69.225983 595.414988,67.526 597.865,67.526 C598.555003,67.526 599.144998,67.6559987 599.635,67.916 C600.125002,68.1760013 600.502499,68.5459976 600.7675,69.026 C601.032501,69.5060024 601.222499,70.0384971 601.3375,70.6235 C601.452501,71.2085029 601.51,71.8759963 601.51,72.626 C601.51,73.3760038 601.452501,74.0384971 601.3375,74.6135 C601.222499,75.1885029 601.032501,75.7159976 600.7675,76.196 C600.502499,76.6760024 600.125002,77.0459987 599.635,77.306 C599.144998,77.5660013 598.555003,77.696 597.865,77.696 C595.414988,77.696 594.19,76.0060169 594.19,72.626 Z M596.29,72.626 C596.29,74.6460101 596.814995,75.656 597.865,75.656 C598.895005,75.656 599.41,74.6460101 599.41,72.626 C599.41,70.5859898 598.895005,69.566 597.865,69.566 C596.814995,69.566 596.29,70.5859898 596.29,72.626 Z M603.25,72.626 C603.25,69.225983 604.474988,67.526 606.925,67.526 C607.615003,67.526 608.204998,67.6559987 608.695,67.916 C609.185002,68.1760013 609.562499,68.5459976 609.8275,69.026 C610.092501,69.5060024 610.282499,70.0384971 610.3975,70.6235 C610.512501,71.2085029 610.57,71.8759963 610.57,72.626 C610.57,73.3760038 610.512501,74.0384971 610.3975,74.6135 C610.282499,75.1885029 610.092501,75.7159976 609.8275,76.196 C609.562499,76.6760024 609.185002,77.0459987 608.695,77.306 C608.204998,77.5660013 607.615003,77.696 606.925,77.696 C604.474988,77.696 603.25,76.0060169 603.25,72.626 Z M605.35,72.626 C605.35,74.6460101 605.874995,75.656 606.925,75.656 C607.955005,75.656 608.47,74.6460101 608.47,72.626 C608.47,70.5859898 607.955005,69.566 606.925,69.566 C605.874995,69.566 605.35,70.5859898 605.35,72.626 Z M620.44,69.146 L618.52,69.146 L618.52,72.056 L620.38,72.056 C620.780002,72.056 621.097499,71.9060015 621.3325,71.606 C621.567501,71.3059985 621.685,70.9710018 621.685,70.601 C621.685,70.2409982 621.572501,69.9085015 621.3475,69.6035 C621.122499,69.2984985 620.820002,69.146 620.44,69.146 Z M621.4,73.886 L623.965,77.546 L621.325,77.546 L619.015,73.976 L618.52,73.976 L618.52,77.546 L616.315,77.546 L616.315,67.211 L620.545,67.211 C621.645005,67.211 622.492497,67.5434967 623.0875,68.2085 C623.682503,68.8735033 623.98,69.6709954 623.98,70.601 C623.98,71.391004 623.760002,72.090997 623.32,72.701 C622.879998,73.311003 622.240004,73.7059991 621.4,73.886 Z M625.87,77.546 L625.87,67.211 L632.41,67.211 L632.41,69.146 L628.06,69.146 L628.06,71.501 L631.87,71.501 L631.87,73.406 L628.06,73.406 L628.06,75.611 L632.545,75.611 L632.545,77.546 L625.87,77.546 Z M636.7,69.206 L636.7,75.551 L638.56,75.551 C639.350004,75.551 639.959998,75.251003 640.39,74.651 C640.820002,74.050997 641.035,73.3010045 641.035,72.401 C641.035,71.4909955 640.820002,70.7310031 640.39,70.121 C639.959998,69.510997 639.350004,69.206 638.56,69.206 L636.7,69.206 Z M638.56,77.546 L634.51,77.546 L634.51,67.211 L638.56,67.211 C640.010007,67.211 641.149996,67.6984951 641.98,68.6735 C642.810004,69.6485049 643.225,70.8909925 643.225,72.401 C643.225,73.9110076 642.810004,75.1459952 641.98,76.106 C641.149996,77.0660048 640.010007,77.546 638.56,77.546 Z M586.5175,95.191 L586.5175,93.211 L594.3175,93.211 L594.3175,95.191 L591.5275,95.191 L591.5275,103.546 L589.3075,103.546 L589.3075,95.191 L586.5175,95.191 Z M598.1875,96.181 C597.597497,96.791003 597.3025,97.5309957 597.3025,98.401 C597.3025,99.2710044 597.597497,100.008497 598.1875,100.6135 C598.777503,101.218503 599.497496,101.521 600.3475,101.521 C601.197504,101.521 601.919997,101.216003 602.515,100.606 C603.110003,99.995997 603.4075,99.2610043 603.4075,98.401 C603.4075,97.5309957 603.110003,96.791003 602.515,96.181 C601.919997,95.570997 601.197504,95.266 600.3475,95.266 C599.497496,95.266 598.777503,95.570997 598.1875,96.181 Z M595.1125,98.401 C595.1125,96.9309927 595.619995,95.6785052 596.635,94.6435 C597.650005,93.6084948 598.887493,93.091 600.3475,93.091 C601.817507,93.091 603.059995,93.6084948 604.075,94.6435 C605.090005,95.6785052 605.5975,96.9309927 605.5975,98.401 C605.5975,99.8610073 605.087505,101.108495 604.0675,102.1435 C603.047495,103.178505 601.807507,103.696 600.3475,103.696 C598.887493,103.696 597.650005,103.178505 596.635,102.1435 C595.619995,101.108495 595.1125,99.8610073 595.1125,98.401 Z M610.7575,98.326 L615.6025,103.546 L612.7525,103.546 L609.6475,100.036 L609.6475,103.546 L607.4275,103.546 L607.4275,93.211 L609.6475,93.211 L609.6475,96.601 L612.0925,93.211 L614.6725,93.211 L610.7575,98.326 Z M616.5625,103.546 L616.5625,93.211 L623.1025,93.211 L623.1025,95.146 L618.7525,95.146 L618.7525,97.501 L622.5625,97.501 L622.5625,99.406 L618.7525,99.406 L618.7525,101.611 L623.2375,101.611 L623.2375,103.546 L616.5625,103.546 Z M632.9575,93.211 L632.9575,103.546 L630.9925,103.546 L627.3925,97.291 L627.3925,103.546 L625.2025,103.546 L625.2025,93.211 L627.2125,93.211 L630.7525,99.391 L630.7525,93.211 L632.9575,93.211 Z M634.8325,100.516 L637.0375,100.516 C637.0575,100.866002 637.202499,101.160999 637.4725,101.401 C637.742501,101.641001 638.112498,101.761 638.5825,101.761 C639.032502,101.761 639.394999,101.661001 639.67,101.461 C639.945001,101.260999 640.0875,100.996002 640.0975,100.666 C640.1075,100.405999 640.025001,100.181001 639.85,99.991 C639.674999,99.800999 639.342502,99.6360007 638.8525,99.496 L637.6075,99.151 C635.827491,98.6009973 634.9375,97.6110071 634.9375,96.181 C634.9375,95.2709955 635.277497,94.5285029 635.9575,93.9535 C636.637503,93.3784971 637.482495,93.091 638.4925,93.091 C639.512505,93.091 640.349997,93.3759972 641.005,93.946 C641.660003,94.5160028 641.9875,95.2859951 641.9875,96.256 L639.7975,96.256 C639.7975,95.9059983 639.682501,95.6235011 639.4525,95.4085 C639.222499,95.1934989 638.892502,95.086 638.4625,95.086 C638.072498,95.086 637.752501,95.183499 637.5025,95.3785 C637.252499,95.573501 637.1275,95.8209985 637.1275,96.121 C637.1275,96.6110025 637.497496,96.9609989 638.2375,97.171 L639.4675,97.561 C641.40751,98.1210028 642.3525,99.1609924 642.3025,100.681 C642.2925,101.331003 642.102502,101.893498 641.7325,102.3685 C641.362498,102.843502 640.905003,103.185999 640.36,103.396 C639.814997,103.606001 639.222503,103.711 638.5825,103.711 C637.462494,103.711 636.557503,103.413503 635.8675,102.8185 C635.177497,102.223497 634.8325,101.456005 634.8325,100.516 Z" id="200REDTOKENS" fill="#F28C3E" fill-rule="nonzero"></path>
            <g id="Group-4" transform="translate(494.000000, 66.546000)">
                <circle id="Oval" fill="#283140" cx="19.5" cy="19.5" r="19.5"></circle>
                <g id="Group-13" transform="translate(8.210526, 7.184211)" fill="#FCD600" fill-rule="nonzero">
                    <path d="M21.4223504,3.83210208 L17.1595508,0.23987678 C16.7266976,-0.12412322 16.0806588,-0.067273728 15.7166588,0.365627472 C15.3526588,0.798528673 15.4095083,1.44451944 15.8424095,1.80851944 L17.9558278,3.6046561 L7.83167264,3.6046561 C4.62260524,3.60820919 2.021837,6.20897743 2.01823589,9.41809285 L2.01823589,11.2561464 C2.01823589,11.8213283 2.476825,12.2799174 3.0420069,12.2799174 C3.6071888,12.2799174 4.06577791,11.8213283 4.06577791,11.2561464 L4.06577791,9.40013532 C4.06937901,7.32143172 5.75292103,5.63784169 7.83167264,5.63424058 L17.9618296,5.63424058 L15.8484113,7.43037724 C15.4155581,7.79437724 15.3586606,8.44041602 15.7226606,8.87326921 C16.0866606,9.30612239 16.7326994,9.3630199 17.1655526,8.9990199 L21.4283522,5.40674659 C21.8612054,5.04332276 21.9181029,4.397332 21.5546791,3.96447881 C21.5163633,3.91896081 21.4738702,3.87646773 21.4283522,3.83815194 L21.4223504,3.83210208 Z" id="Path"></path>
                    <path d="M18.7221916,12.2858712 C18.1570097,12.2858712 17.6984206,12.7444603 17.6984206,13.3096422 L17.6984206,15.1656533 C17.6948195,17.2443569 16.0112774,18.927947 13.9325258,18.9315481 L3.80236886,18.9315481 L5.91578714,17.1354114 C6.41091549,16.8618232 6.59053876,16.2391676 6.31690256,15.7439913 C6.04331438,15.2488629 5.42065879,15.0692397 4.92548243,15.3428759 C4.81173543,15.4057272 4.7105683,15.489561 4.62851105,15.5907281 L0.365711424,19.1830014 C-0.067141762,19.5464253 -0.124039269,20.192416 0.239384554,20.6252692 C0.277700343,20.6707872 0.320193418,20.7132803 0.365711424,20.7515961 L4.62851105,24.3438214 C5.06136424,24.7078214 5.70740302,24.6509719 6.07140302,24.2180707 C6.43540302,23.7851695 6.37855353,23.1391787 5.94565233,22.7751787 L3.83223405,20.9790421 L13.9324298,20.9790421 C17.1414972,20.975441 19.7423135,18.3746727 19.7458665,15.1656053 L19.7458665,13.3096903 C19.7460106,12.7438842 19.2873735,12.2858712 18.7221916,12.2858712 Z" id="Path"></path>
                </g>
            </g>
            <polygon id="Path-Copy-15" fill="#5CD0B6" fill-rule="nonzero" transform="translate(976.000000, 151.483530) scale(-1, -1) translate(-976.000000, -151.483530) " points="981.156174 148.140436 982.405564 149.702174 976 154.826625 969.594436 149.702174 970.843826 148.140436 976 152.265375"></polygon>
            <polygon id="Path-Copy-16" fill="#F08849" fill-rule="nonzero" transform="translate(50.000000, 151.483530) scale(1, -1) translate(-50.000000, -151.483530) " points="55.1561738 148.140436 56.4055639 149.702174 50 154.826625 43.5944361 149.702174 44.8438262 148.140436 50 152.265375"></polygon>
            <polygon id="Path-Copy-17" fill="#FFFFFF" fill-rule="nonzero" transform="translate(739.000000, 86.483530) scale(1, -1) rotate(90.000000) translate(-739.000000, -86.483530) " points="744.156174 83.1404361 745.405564 84.7021738 739 89.8266248 732.594436 84.7021738 733.843826 83.1404361 739 87.2653752"></polygon>
            <polygon id="Path-Copy-18" fill="#FFFFFF" fill-rule="nonzero" transform="translate(290.000000, 86.483530) scale(-1, 1) rotate(90.000000) translate(-290.000000, -86.483530) " points="295.156174 83.1404361 296.405564 84.7021738 290 89.8266248 283.594436 84.7021738 284.843826 83.1404361 290 87.2653752"></polygon>
            <path d="M49.5,156.546 L50.5,156.546 L50.5,160.546 L49.5,160.546 L49.5,156.546 Z M49.5,164.546 L50.5,164.546 L50.5,168.546 L49.5,168.546 L49.5,164.546 Z M49.5,172.546 L50.5,172.546 L50.5,176.546 L49.5,176.546 L49.5,172.546 Z M49.5,180.546 L50.5,180.546 L50.5,184.546 L49.5,184.546 L49.5,180.546 Z M49.5,188.546 L50.5,188.546 L50.5,192.546 L49.5,192.546 L49.5,188.546 Z M49.5,196.546 L50.5,196.546 L50.5,200.546 L49.5,200.546 L49.5,196.546 Z M49.5,204.546 L50.5,204.546 L50.5,208.546 L49.5,208.546 L49.5,204.546 Z M49.5,212.546 L50.5,212.546 L50.5,216.546 L49.5,216.546 L49.5,212.546 Z M49.5,220.546 L50.5,220.546 L50.5,224.546 L49.5,224.546 L49.5,220.546 Z M49.5,228.546 L50.5,228.546 L50.5,232.546 L49.5,232.546 L49.5,228.546 Z M50.5,237.046 L53,237.046 L53,238.046 L49.5,238.046 L49.5,236.546 L50.5,236.546 L50.5,237.046 Z M57,238.046 L57,237.046 L61,237.046 L61,238.046 L57,238.046 Z M65,238.046 L65,237.046 L69,237.046 L69,238.046 L65,238.046 Z M73,238.046 L73,237.046 L77,237.046 L77,238.046 L73,238.046 Z M81,238.046 L81,237.046 L85,237.046 L85,238.046 L81,238.046 Z M89,238.046 L89,237.046 L93,237.046 L93,238.046 L89,238.046 Z M97,238.046 L97,237.046 L101,237.046 L101,238.046 L97,238.046 Z M105,238.046 L105,237.046 L109,237.046 L109,238.046 L105,238.046 Z M113,238.046 L113,237.046 L117,237.046 L117,238.046 L113,238.046 Z M121,238.046 L121,237.046 L125,237.046 L125,238.046 L121,238.046 Z M129,238.046 L129,237.046 L133,237.046 L133,238.046 L129,238.046 Z M137,238.046 L137,237.046 L141,237.046 L141,238.046 L137,238.046 Z M145,238.046 L145,237.046 L149,237.046 L149,238.046 L145,238.046 Z M153,238.046 L153,237.046 L157,237.046 L157,238.046 L153,238.046 Z M161,238.046 L161,237.046 L165,237.046 L165,238.046 L161,238.046 Z M169,238.046 L169,237.046 L173,237.046 L173,238.046 L169,238.046 Z M177,238.046 L177,237.046 L181,237.046 L181,238.046 L177,238.046 Z M185,238.046 L185,237.046 L189,237.046 L189,238.046 L185,238.046 Z M193,238.046 L193,237.046 L197,237.046 L197,238.046 L193,238.046 Z M201,238.046 L201,237.046 L205,237.046 L205,238.046 L201,238.046 Z M209,238.046 L209,237.046 L213,237.046 L213,238.046 L209,238.046 Z M217,238.046 L217,237.046 L221,237.046 L221,238.046 L217,238.046 Z M225,238.046 L225,237.046 L229,237.046 L229,238.046 L225,238.046 Z M233,238.046 L233,237.046 L237,237.046 L237,238.046 L233,238.046 Z M241,238.046 L241,237.046 L245,237.046 L245,238.046 L241,238.046 Z M249,238.046 L249,237.046 L253,237.046 L253,238.046 L249,238.046 Z M257,238.046 L257,237.046 L261,237.046 L261,238.046 L257,238.046 Z M265,238.046 L265,237.046 L269,237.046 L269,238.046 L265,238.046 Z M273,238.046 L273,237.046 L277,237.046 L277,238.046 L273,238.046 Z M281,238.046 L281,237.046 L285,237.046 L285,238.046 L281,238.046 Z M289,238.046 L289,237.046 L293,237.046 L293,238.046 L289,238.046 Z M297,238.046 L297,237.046 L301,237.046 L301,238.046 L297,238.046 Z M305,238.046 L305,237.046 L309,237.046 L309,238.046 L305,238.046 Z M313,238.046 L313,237.046 L317,237.046 L317,238.046 L313,238.046 Z" id="Path-3-Copy-3" fill="#F08849" fill-rule="nonzero"></path>
            <path d="M161.255,224.546 L154.865,224.546 L154.865,223.406 L158.9,218.621 C159.250002,218.220998 159.425,217.851002 159.425,217.511 C159.425,217.240999 159.315001,217.011001 159.095,216.821 C158.874999,216.630999 158.575002,216.536 158.195,216.536 C157.824998,216.536 157.515001,216.663499 157.265,216.9185 C157.014999,217.173501 156.86,217.500998 156.8,217.901 L154.88,217.571 C155.030001,216.630995 155.409997,215.888503 156.02,215.3435 C156.630003,214.798497 157.394995,214.526 158.315,214.526 C159.205004,214.526 159.962497,214.805997 160.5875,215.366 C161.212503,215.926003 161.525,216.640996 161.525,217.511 C161.525,218.391004 161.180003,219.220996 160.49,220.001 L158.225,222.566 L161.255,222.566 L161.255,224.546 Z M163.19,219.626 C163.19,216.225983 164.414988,214.526 166.865,214.526 C167.555003,214.526 168.144998,214.655999 168.635,214.916 C169.125002,215.176001 169.502499,215.545998 169.7675,216.026 C170.032501,216.506002 170.222499,217.038497 170.3375,217.6235 C170.452501,218.208503 170.51,218.875996 170.51,219.626 C170.51,220.376004 170.452501,221.038497 170.3375,221.6135 C170.222499,222.188503 170.032501,222.715998 169.7675,223.196 C169.502499,223.676002 169.125002,224.045999 168.635,224.306 C168.144998,224.566001 167.555003,224.696 166.865,224.696 C164.414988,224.696 163.19,223.006017 163.19,219.626 Z M165.29,219.626 C165.29,221.64601 165.814995,222.656 166.865,222.656 C167.895005,222.656 168.41,221.64601 168.41,219.626 C168.41,217.58599 167.895005,216.566 166.865,216.566 C165.814995,216.566 165.29,217.58599 165.29,219.626 Z M172.25,219.626 C172.25,216.225983 173.474988,214.526 175.925,214.526 C176.615003,214.526 177.204998,214.655999 177.695,214.916 C178.185002,215.176001 178.562499,215.545998 178.8275,216.026 C179.092501,216.506002 179.282499,217.038497 179.3975,217.6235 C179.512501,218.208503 179.57,218.875996 179.57,219.626 C179.57,220.376004 179.512501,221.038497 179.3975,221.6135 C179.282499,222.188503 179.092501,222.715998 178.8275,223.196 C178.562499,223.676002 178.185002,224.045999 177.695,224.306 C177.204998,224.566001 176.615003,224.696 175.925,224.696 C173.474988,224.696 172.25,223.006017 172.25,219.626 Z M174.35,219.626 C174.35,221.64601 174.874995,222.656 175.925,222.656 C176.955005,222.656 177.47,221.64601 177.47,219.626 C177.47,217.58599 176.955005,216.566 175.925,216.566 C174.874995,216.566 174.35,217.58599 174.35,219.626 Z M189.44,216.146 L187.52,216.146 L187.52,219.056 L189.38,219.056 C189.780002,219.056 190.097499,218.906002 190.3325,218.606 C190.567501,218.305998 190.685,217.971002 190.685,217.601 C190.685,217.240998 190.572501,216.908502 190.3475,216.6035 C190.122499,216.298498 189.820002,216.146 189.44,216.146 Z M190.4,220.886 L192.965,224.546 L190.325,224.546 L188.015,220.976 L187.52,220.976 L187.52,224.546 L185.315,224.546 L185.315,214.211 L189.545,214.211 C190.645005,214.211 191.492497,214.543497 192.0875,215.2085 C192.682503,215.873503 192.98,216.670995 192.98,217.601 C192.98,218.391004 192.760002,219.090997 192.32,219.701 C191.879998,220.311003 191.240004,220.705999 190.4,220.886 Z M194.87,224.546 L194.87,214.211 L201.41,214.211 L201.41,216.146 L197.06,216.146 L197.06,218.501 L200.87,218.501 L200.87,220.406 L197.06,220.406 L197.06,222.611 L201.545,222.611 L201.545,224.546 L194.87,224.546 Z M205.7,216.206 L205.7,222.551 L207.56,222.551 C208.350004,222.551 208.959998,222.251003 209.39,221.651 C209.820002,221.050997 210.035,220.301005 210.035,219.401 C210.035,218.490995 209.820002,217.731003 209.39,217.121 C208.959998,216.510997 208.350004,216.206 207.56,216.206 L205.7,216.206 Z M207.56,224.546 L203.51,224.546 L203.51,214.211 L207.56,214.211 C209.010007,214.211 210.149996,214.698495 210.98,215.6735 C211.810004,216.648505 212.225,217.890992 212.225,219.401 C212.225,220.911008 211.810004,222.145995 210.98,223.106 C210.149996,224.066005 209.010007,224.546 207.56,224.546 Z" id="200RED" fill="#F28C3E" fill-rule="nonzero"></path>
            <path d="M708.5,156.546 L709.5,156.546 L709.5,160.546 L708.5,160.546 L708.5,156.546 Z M708.5,164.546 L709.5,164.546 L709.5,168.546 L708.5,168.546 L708.5,164.546 Z M708.5,172.546 L709.5,172.546 L709.5,176.546 L708.5,176.546 L708.5,172.546 Z M708.5,180.546 L709.5,180.546 L709.5,184.546 L708.5,184.546 L708.5,180.546 Z M708.5,188.546 L709.5,188.546 L709.5,192.546 L708.5,192.546 L708.5,188.546 Z M708.5,196.546 L709.5,196.546 L709.5,200.546 L708.5,200.546 L708.5,196.546 Z M708.5,204.546 L709.5,204.546 L709.5,208.546 L708.5,208.546 L708.5,204.546 Z M708.5,212.546 L709.5,212.546 L709.5,216.546 L708.5,216.546 L708.5,212.546 Z M708.5,220.546 L709.5,220.546 L709.5,224.546 L708.5,224.546 L708.5,220.546 Z M708.5,228.546 L709.5,228.546 L709.5,232.546 L708.5,232.546 L708.5,228.546 Z M709.5,237.046 L712,237.046 L712,238.046 L708.5,238.046 L708.5,236.546 L709.5,236.546 L709.5,237.046 Z M716,238.046 L716,237.046 L720,237.046 L720,238.046 L716,238.046 Z M724,238.046 L724,237.046 L728,237.046 L728,238.046 L724,238.046 Z M732,238.046 L732,237.046 L736,237.046 L736,238.046 L732,238.046 Z M740,238.046 L740,237.046 L744,237.046 L744,238.046 L740,238.046 Z M748,238.046 L748,237.046 L752,237.046 L752,238.046 L748,238.046 Z M756,238.046 L756,237.046 L760,237.046 L760,238.046 L756,238.046 Z M764,238.046 L764,237.046 L768,237.046 L768,238.046 L764,238.046 Z M772,238.046 L772,237.046 L776,237.046 L776,238.046 L772,238.046 Z M780,238.046 L780,237.046 L784,237.046 L784,238.046 L780,238.046 Z M788,238.046 L788,237.046 L792,237.046 L792,238.046 L788,238.046 Z M796,238.046 L796,237.046 L800,237.046 L800,238.046 L796,238.046 Z M804,238.046 L804,237.046 L808,237.046 L808,238.046 L804,238.046 Z M812,238.046 L812,237.046 L816,237.046 L816,238.046 L812,238.046 Z M820,238.046 L820,237.046 L824,237.046 L824,238.046 L820,238.046 Z M828,238.046 L828,237.046 L832,237.046 L832,238.046 L828,238.046 Z M836,238.046 L836,237.046 L840,237.046 L840,238.046 L836,238.046 Z M844,238.046 L844,237.046 L848,237.046 L848,238.046 L844,238.046 Z M852,238.046 L852,237.046 L856,237.046 L856,238.046 L852,238.046 Z M860,238.046 L860,237.046 L864,237.046 L864,238.046 L860,238.046 Z M868,238.046 L868,237.046 L872,237.046 L872,238.046 L868,238.046 Z M876,238.046 L876,237.046 L880,237.046 L880,238.046 L876,238.046 Z M884,238.046 L884,237.046 L888,237.046 L888,238.046 L884,238.046 Z M892,238.046 L892,237.046 L896,237.046 L896,238.046 L892,238.046 Z M900,238.046 L900,237.046 L904,237.046 L904,238.046 L900,238.046 Z M908,238.046 L908,237.046 L912,237.046 L912,238.046 L908,238.046 Z M916,238.046 L916,237.046 L920,237.046 L920,238.046 L916,238.046 Z M924,238.046 L924,237.046 L928,237.046 L928,238.046 L924,238.046 Z M932,238.046 L932,237.046 L936,237.046 L936,238.046 L932,238.046 Z M940,238.046 L940,237.046 L944,237.046 L944,238.046 L940,238.046 Z M948,238.046 L948,237.046 L952,237.046 L952,238.046 L948,238.046 Z M956,238.046 L956,237.046 L960,237.046 L960,238.046 L956,238.046 Z M964,238.046 L964,237.046 L968,237.046 L968,238.046 L964,238.046 Z M972,238.046 L972,237.046 L976,237.046 L976,238.046 L972,238.046 Z" id="Path-3-Copy-2" fill="#5CD0B6" fill-rule="nonzero" transform="translate(842.250000, 197.296000) scale(-1, 1) translate(-842.250000, -197.296000) "></path>
            <path d="M809.4675,214.586 L809.4675,224.546 L807.3675,224.546 L807.3675,217.511 L805.6875,218.231 L805.6875,216.386 L809.4675,214.586 Z M811.6275,219.626 C811.6275,216.225983 812.852488,214.526 815.3025,214.526 C815.992503,214.526 816.582498,214.655999 817.0725,214.916 C817.562502,215.176001 817.939999,215.545998 818.205,216.026 C818.470001,216.506002 818.659999,217.038497 818.775,217.6235 C818.890001,218.208503 818.9475,218.875996 818.9475,219.626 C818.9475,220.376004 818.890001,221.038497 818.775,221.6135 C818.659999,222.188503 818.470001,222.715998 818.205,223.196 C817.939999,223.676002 817.562502,224.045999 817.0725,224.306 C816.582498,224.566001 815.992503,224.696 815.3025,224.696 C812.852488,224.696 811.6275,223.006017 811.6275,219.626 Z M813.7275,219.626 C813.7275,221.64601 814.252495,222.656 815.3025,222.656 C816.332505,222.656 816.8475,221.64601 816.8475,219.626 C816.8475,217.58599 816.332505,216.566 815.3025,216.566 C814.252495,216.566 813.7275,217.58599 813.7275,219.626 Z M820.6875,219.626 C820.6875,216.225983 821.912488,214.526 824.3625,214.526 C825.052503,214.526 825.642498,214.655999 826.1325,214.916 C826.622502,215.176001 826.999999,215.545998 827.265,216.026 C827.530001,216.506002 827.719999,217.038497 827.835,217.6235 C827.950001,218.208503 828.0075,218.875996 828.0075,219.626 C828.0075,220.376004 827.950001,221.038497 827.835,221.6135 C827.719999,222.188503 827.530001,222.715998 827.265,223.196 C826.999999,223.676002 826.622502,224.045999 826.1325,224.306 C825.642498,224.566001 825.052503,224.696 824.3625,224.696 C821.912488,224.696 820.6875,223.006017 820.6875,219.626 Z M822.7875,219.626 C822.7875,221.64601 823.312495,222.656 824.3625,222.656 C825.392505,222.656 825.9075,221.64601 825.9075,219.626 C825.9075,217.58599 825.392505,216.566 824.3625,216.566 C823.312495,216.566 822.7875,217.58599 822.7875,219.626 Z M842.3325,215.786 L840.7125,217.181 C840.092497,216.480996 839.337504,216.131 838.4475,216.131 C837.577496,216.131 836.845003,216.450997 836.25,217.091 C835.654997,217.731003 835.3575,218.500996 835.3575,219.401 C835.3575,220.301005 835.657497,221.073497 836.2575,221.7185 C836.857503,222.363503 837.587496,222.686 838.4475,222.686 C839.047503,222.686 839.612497,222.518502 840.1425,222.1835 C840.672503,221.848498 840.9425,221.421003 840.9525,220.901 L838.1775,220.901 L838.1775,219.116 L843.4875,219.116 C843.4875,220.986009 843.035005,222.383495 842.13,223.3085 C841.224995,224.233505 839.997508,224.696 838.4475,224.696 C836.967493,224.696 835.715005,224.178505 834.69,223.1435 C833.664995,222.108495 833.1525,220.861007 833.1525,219.401 C833.1525,217.930993 833.664995,216.678505 834.69,215.6435 C835.715005,214.608495 836.967493,214.091 838.4475,214.091 C839.227504,214.091 839.954997,214.240999 840.63,214.541 C841.305003,214.841001 841.872498,215.255997 842.3325,215.786 Z M849.2175,216.146 L847.2975,216.146 L847.2975,219.056 L849.1575,219.056 C849.557502,219.056 849.874999,218.906002 850.11,218.606 C850.345001,218.305998 850.4625,217.971002 850.4625,217.601 C850.4625,217.240998 850.350001,216.908502 850.125,216.6035 C849.899999,216.298498 849.597502,216.146 849.2175,216.146 Z M850.1775,220.886 L852.7425,224.546 L850.1025,224.546 L847.7925,220.976 L847.2975,220.976 L847.2975,224.546 L845.0925,224.546 L845.0925,214.211 L849.3225,214.211 C850.422505,214.211 851.269997,214.543497 851.865,215.2085 C852.460003,215.873503 852.7575,216.670995 852.7575,217.601 C852.7575,218.391004 852.537502,219.090997 852.0975,219.701 C851.657498,220.311003 851.017504,220.705999 850.1775,220.886 Z M854.6475,224.546 L854.6475,214.211 L861.1875,214.211 L861.1875,216.146 L856.8375,216.146 L856.8375,218.501 L860.6475,218.501 L860.6475,220.406 L856.8375,220.406 L856.8375,222.611 L861.3225,222.611 L861.3225,224.546 L854.6475,224.546 Z M863.2875,224.546 L863.2875,214.211 L869.8275,214.211 L869.8275,216.146 L865.4775,216.146 L865.4775,218.501 L869.2875,218.501 L869.2875,220.406 L865.4775,220.406 L865.4775,222.611 L869.9625,222.611 L869.9625,224.546 L863.2875,224.546 Z M879.6825,214.211 L879.6825,224.546 L877.7175,224.546 L874.1175,218.291 L874.1175,224.546 L871.9275,224.546 L871.9275,214.211 L873.9375,214.211 L877.4775,220.391 L877.4775,214.211 L879.6825,214.211 Z" id="100GREEN" fill="#5CD0B6" fill-rule="nonzero"></path>
            <path d="M51.9356383,87.5833673 C56.3646809,87.5833673 59.9570745,83.9866437 59.9570745,79.5523818 C59.9570745,75.1181198 56.3646277,71.546 51.9356383,71.546 C47.5066489,71.546 43.9142021,75.1427235 43.9142021,79.5523818 C43.9142021,83.96204 47.5065957,87.5833673 51.9356383,87.5833673 Z M51.9356383,73.6399792 C55.1835638,73.6399792 57.8410106,76.3005364 57.8410106,79.5523818 C57.8410106,82.8042271 55.1835638,85.4647311 51.9356383,85.4647311 C48.6877128,85.4647311 46.030266,82.8041739 46.030266,79.5523285 C46.030266,76.3004832 48.6876596,73.6399792 51.9356383,73.6399792 Z" id="Shape" fill="#5CD0B6" fill-rule="nonzero"></path>
            <path d="M38.0580319,100.122532 L65.9116489,100.122532 C66.5021809,100.122532 66.9696809,99.6544759 66.9696809,99.0632409 C66.9696809,93.5203735 62.4668617,88.9875369 56.9059574,88.9875369 L47.0637234,88.9875369 C41.5274468,88.9875369 37,93.4957166 37,99.0632409 C37,99.6544759 37.4675,100.122532 38.0580319,100.122532 Z M47.0637234,91.1061199 L56.9059574,91.1061199 C60.9412766,91.1061199 64.2630319,94.1116085 64.7797872,98.0038962 L39.1898936,98.0038962 C39.7065957,94.1362655 43.0284043,91.1061199 47.0637234,91.1061199 Z" id="Shape" fill="#5CD0B6" fill-rule="nonzero"></path>
            <path d="M977.5,87.546 C982.193282,87.546 986,83.9576569 986,79.5337268 C986,75.1097967 982.193226,71.546 977.5,71.546 C972.806774,71.546 969,75.1343431 969,79.5337268 C969,83.9331105 972.806718,87.546 977.5,87.546 Z M977.5,73.6351002 C980.941699,73.6351002 983.75769,76.2894583 983.75769,79.5337268 C983.75769,82.7779953 980.941699,85.4323002 977.5,85.4323002 C974.058301,85.4323002 971.24231,82.7779422 971.24231,79.5336737 C971.24231,76.2894051 974.058245,73.6351002 977.5,73.6351002 Z" id="Shape" fill="#F28C3E" fill-rule="nonzero"></path>
            <path d="M964.059102,100.546 L991.940898,100.546 C992.532027,100.546 993,100.083618 993,99.4995509 C993,94.0238826 988.492626,89.546 982.926096,89.546 L973.073904,89.546 C967.532027,89.546 963,93.9995246 963,99.4995509 C963,100.083618 963.467973,100.546 964.059102,100.546 Z M973.073904,91.6388982 L982.926096,91.6388982 C986.965497,91.6388982 990.290613,94.6079497 990.807891,98.4530492 L965.192109,98.4530492 C965.709334,94.6323077 969.034503,91.6388982 973.073904,91.6388982 Z" id="Shape" fill="#F28C3E" fill-rule="nonzero"></path>
        </g>
    </g>
</svg>