<svg width="18" height="18" viewBox="0 0 18 18" fill="none" xmlns="http://www.w3.org/2000/svg">
    <path d="M0 8.99995C0 10.1008 0.198035 11.1554 0.559793 12.1304L9 12.913L17.4402 12.1304C17.802 11.1554 18 10.1008 18 8.99995C18 7.89907 17.802 6.84452 17.4402 5.86953L9 5.08691L0.559793 5.86953C0.198035 6.84452 0 7.89907 0 8.99995Z" fill="#FFDA44"/>
    <path d="M17.4405 5.86958C16.1688 2.44241 12.8699 0 9.00027 0C5.13058 0 1.8317 2.44241 0.560059 5.86958H17.4405Z" fill="#D80027"/>
    <path d="M0.560059 12.1304C1.8317 15.5575 5.13058 18 9.00027 18C12.8699 18 16.1688 15.5575 17.4405 12.1304H0.560059Z" fill="#D80027"/>
</svg>
