<svg viewBox="0 0 512 512" fill="none" xmlns="http://www.w3.org/2000/svg"><g id="anguilla"><path id="Vector" d="M512 256C512 397.384 397.384 512 256 512C114.616 512 0 397.384 0 256C0 256.061 256 0.028 256 0C397.384 0 512 114.616 512 256Z" fill="#0052B4"/><g id="Group"><path id="Vector_2" d="M255.315 256H256C256 255.77 256 255.546 256 255.315C255.772 255.544 255.544 255.772 255.315 256Z" fill="#F0F0F0"/><path id="Vector_3" d="M256 133.565C256 88.52 256 59.005 256 0H255.957C114.591 0.024 0 114.629 0 256H133.565V180.789L208.776 256H255.316C255.544 255.772 255.772 255.544 256.001 255.315C256.001 238.068 256.001 222.679 256.001 208.778L180.788 133.565H256Z" fill="#F0F0F0"/></g><g id="Group_2"><path id="Vector_4" d="M129.515 33.391C89.4761 56.19 56.1891 89.476 33.3911 129.515V256H100.174V100.176V100.174H256C256 79.111 256 59.045 256 33.391H129.515Z" fill="#D80027"/><path id="Vector_5" d="M256 224.519L165.045 133.566H133.565V133.568L255.998 256H256C256 256 256 234.293 256 224.519Z" fill="#D80027"/></g><path id="Vector_6" d="M432.939 293.474C440.3 283.346 445.217 270.978 445.217 256V144.696C435.915 151.684 424.355 155.826 411.826 155.826C393.62 155.826 377.457 147.083 367.304 133.567C357.15 147.083 340.987 155.826 322.782 155.826C310.252 155.826 298.692 151.683 289.391 144.698V256C289.391 270.978 294.308 283.346 301.669 293.474H432.939Z" fill="#F3F3F3"/><g id="Group_3"><path id="Vector_7" d="M409.785 235.351C413.329 226.705 416.085 214.068 416.085 207.779C416.085 197.674 402.911 189.483 402.911 189.483C402.911 189.483 389.737 197.674 389.737 207.779C389.737 214.069 392.494 226.706 396.036 235.351L388.431 252.522C392.901 254.34 397.787 255.35 402.912 255.35C408.037 255.35 412.922 254.339 417.393 252.522L409.785 235.351Z" fill="#FF9811"/><path id="Vector_8" d="M358.294 179.752C349.038 181.006 336.715 184.941 331.269 188.085C322.518 193.138 322.01 208.641 322.01 208.641C322.01 208.641 335.692 215.954 344.442 210.902C349.89 207.757 359.454 199.053 365.167 191.661L383.843 189.661C383.182 184.883 381.61 180.146 379.051 175.709C376.487 171.272 373.172 167.544 369.362 164.581L358.294 179.752Z" fill="#FF9811"/><path id="Vector_9" d="M335.892 252.146C341.605 259.534 351.172 268.237 356.62 271.383C365.371 276.435 379.052 269.124 379.052 269.124C379.052 269.124 378.542 253.619 369.793 248.566C364.344 245.421 352.023 241.49 342.765 240.238L331.698 225.065C327.889 228.027 324.573 231.757 322.01 236.19C319.449 240.629 317.881 245.364 317.217 250.145L335.892 252.146Z" fill="#FF9811"/></g><path id="Vector_10" d="M298.916 289.394C319.704 322.749 367.305 333.914 367.305 333.914C367.305 333.914 414.905 322.749 435.694 289.394H298.916Z" fill="#338AF3"/></g></svg>