<svg viewBox="0 0 512 512" fill="none" xmlns="http://www.w3.org/2000/svg"><g id="austria"><path id="Vector" d="M496.077 345.043C506.368 317.311 512 287.314 512 256C512 224.686 506.368 194.691 496.077 166.957L256 144.696L15.923 166.957C5.633 194.691 0 224.686 0 256C0 287.314 5.633 317.311 15.923 345.043L256 367.304L496.077 345.043Z" fill="#F0F0F0"/><g id="Group"><path id="Vector_2" d="M256 512C366.07 512 459.906 442.528 496.076 345.043H15.9219C52.0939 442.528 145.928 512 256 512Z" fill="#D80027"/><path id="Vector_3" d="M256 0C145.928 0 52.0939 69.472 15.9219 166.957H496.077C459.906 69.472 366.07 0 256 0Z" fill="#D80027"/></g></g></svg>