<svg viewBox="0 0 512 512" fill="none" xmlns="http://www.w3.org/2000/svg"><g id="azores islands"><path id="Vector" d="M256 512C397.385 512 512 397.385 512 256C512 114.615 397.385 0 256 0C114.615 0 0 114.615 0 256C0 397.385 114.615 512 256 512Z" fill="#F0F0F0"/><path id="Vector_2" d="M0 256C0 353.035 53.99 437.455 133.565 480.873V31.127C53.99 74.545 0 158.965 0 256Z" fill="#D80027"/><path id="Vector_3" d="M0 256C0 374.279 80.221 473.805 189.217 503.181V8.81897C80.221 38.195 0 137.721 0 256Z" fill="#0052B4"/><path id="Vector_4" d="M91.8262 89.043V130.782C91.8262 151.529 108.644 168.347 129.391 168.347C150.138 168.347 166.956 151.529 166.956 130.782V89.043H91.8262Z" fill="#D80027"/><path id="Vector_5" d="M129.391 146.087C120.952 146.087 114.087 139.222 114.087 130.783V111.305H144.696V130.783C144.696 139.222 137.83 146.087 129.391 146.087Z" fill="#F0F0F0"/><g id="Group"><path id="Vector_6" d="M278.261 267.13H211.478C211.478 254.836 201.511 244.869 189.217 244.869C176.923 244.869 166.956 254.836 166.956 267.13H100.173C100.173 279.425 110.882 289.391 123.175 289.391H122.434C122.434 301.686 132.399 311.652 144.695 311.652C144.695 323.947 154.66 333.913 166.956 333.913H211.478C223.772 333.913 233.739 323.947 233.739 311.652C246.033 311.652 256 301.686 256 289.391H255.259C267.552 289.391 278.261 279.425 278.261 267.13Z" fill="#FFDA44"/><path id="Vector_7" d="M287.409 231.507L281.565 240.864L288.654 249.312L277.95 246.647L272.105 256L271.334 244.995L260.63 242.326L270.861 238.194L270.091 227.189L277.182 235.641L287.409 231.507Z" fill="#FFDA44"/><path id="Vector_8" d="M253.306 202.892L251.015 213.683L260.568 219.198L249.596 220.356L247.303 231.144L242.815 221.066L231.844 222.218L240.043 214.836L235.557 204.76L245.109 210.275L253.306 202.892Z" fill="#FFDA44"/><path id="Vector_9" d="M211.476 187.668L213.011 198.593L223.874 200.508L213.96 205.344L215.495 216.269L207.833 208.333L197.917 213.169L203.096 203.428L195.433 195.494L206.298 197.408L211.476 187.668Z" fill="#FFDA44"/><path id="Vector_10" d="M166.959 187.668L172.139 197.408L183.002 195.493L175.339 203.43L180.518 213.17L170.604 208.333L162.94 216.267L164.476 205.344L154.561 200.509L165.424 198.593L166.959 187.668Z" fill="#FFDA44"/><path id="Vector_11" d="M125.128 202.892L133.326 210.275L142.878 204.76L138.394 214.84L146.589 222.219L135.62 221.066L131.131 231.144L128.841 220.354L117.869 219.202L127.421 213.684L125.128 202.892Z" fill="#FFDA44"/><path id="Vector_12" d="M91.0262 231.507L101.257 235.641L108.344 227.19L107.578 238.197L117.805 242.33L107.1 244.996L106.328 256L100.487 246.647L89.7832 249.314L96.8742 240.864L91.0262 231.507Z" fill="#FFDA44"/></g></g></svg>