<svg viewBox="0 0 512 512" fill="none" xmlns="http://www.w3.org/2000/svg"><g id="bahamas" clip-path="url(#clip0_1_154)"><path id="Vector" d="M256 512C397.385 512 512 397.385 512 256C512 114.615 397.385 0 256 0C114.615 0 0 114.615 0 256C0 397.385 114.615 512 256 512Z" fill="#FFDA44"/><g id="Group"><path id="Vector_2" d="M155.826 166.957H496.076C459.906 69.472 366.07 0 256 0C185.306 0 121.313 28.659 74.9888 74.989L155.826 166.957Z" fill="#338AF3"/><path id="Vector_3" d="M155.826 345.043H496.076C459.906 442.528 366.07 512 256 512C185.306 512 121.313 483.341 74.9888 437.011L155.826 345.043Z" fill="#338AF3"/></g><path id="Vector_4" d="M74.98 74.98C-24.994 174.954 -24.994 337.045 74.98 437.02C116.293 395.707 156.026 355.974 256 256L74.98 74.98Z" fill="black"/></g><defs><clipPath id="clip0_1_154"><rect width="512" height="512" fill="white"/></clipPath></defs></svg>