<svg viewBox="0 0 512 512" fill="none" xmlns="http://www.w3.org/2000/svg"><g id="balearic islands" clip-path="url(#clip0_1_163)"><path id="Vector" d="M256 0.000976561C397.384 0.000976561 512 114.617 512 256C512 397.384 397.384 512 256 512C114.617 512 0.000976561 397.384 0.000976561 256" fill="#FFDA44"/><g id="Group"><path id="Vector_2" d="M250.435 113.779H468.879C454.495 92.2918 436.942 73.1119 416.892 56.8899H250.435V113.779Z" fill="#D80027"/><path id="Vector_3" d="M250.435 227.557H510.42C508.238 207.831 503.817 188.784 497.414 170.669H250.435V227.557Z" fill="#D80027"/><path id="Vector_4" d="M14.588 341.334H497.412C503.815 323.219 508.237 304.17 510.419 284.445H1.58203C3.76202 304.171 8.18402 323.22 14.588 341.334Z" fill="#D80027"/><path id="Vector_5" d="M95.1079 455.111H416.891C436.94 438.89 454.494 419.708 468.878 398.222H43.123C57.5069 419.708 75.0589 438.889 95.1079 455.111Z" fill="#D80027"/></g><path id="Vector_6" d="M256.001 0.000976561C114.616 0.000976561 -0.000999992 114.617 6.54347e-09 256.002C58.4259 256 114.616 256.002 256 256.002L256.001 0.000976561Z" fill="#4A1F63"/><path id="Vector_7" d="M211.479 133.566V155.827H200.349V133.566H178.088V155.827H166.958V111.305H122.436V155.827H111.305V133.566H89.0452V155.827H77.9142V133.566H55.6522V200.348H233.74V133.566H211.479Z" fill="#F0F0F0"/></g><defs><clipPath id="clip0_1_163"><rect width="512.001" height="512.001" fill="white"/></clipPath></defs></svg>