<svg viewBox="0 0 512 512" fill="none" xmlns="http://www.w3.org/2000/svg"><g id="basque country" clip-path="url(#clip0_1_181)"><path id="Vector" d="M256 512C397.385 512 512 397.385 512 256C512 114.615 397.385 0 256 0C114.615 0 0 114.615 0 256C0 397.385 114.615 512 256 512Z" fill="#F0F0F0"/><g id="Group"><path id="Vector_2" d="M2.16797 289.391C8.12397 335.104 26.146 377.019 52.923 411.855L189.217 289.391H2.16797Z" fill="#D80027"/><path id="Vector_3" d="M222.609 509.833V322.783L100.145 459.078C134.982 485.855 176.896 503.878 222.609 509.833Z" fill="#D80027"/><path id="Vector_4" d="M222.609 2.16699C176.896 8.12299 134.982 26.145 100.145 52.922L222.609 189.218V2.16699Z" fill="#D80027"/><path id="Vector_5" d="M2.16797 222.609H189.217L52.922 100.145C26.145 134.981 8.12297 176.896 2.16797 222.609Z" fill="#D80027"/><path id="Vector_6" d="M289.391 2.16699V189.217L411.857 52.922C377.02 26.147 335.105 8.12199 289.391 2.16699Z" fill="#D80027"/><path id="Vector_7" d="M509.833 222.609C503.877 176.896 485.855 134.981 459.078 100.144L322.783 222.609H509.833Z" fill="#D80027"/><path id="Vector_8" d="M322.783 289.391L459.079 411.856C485.855 377.019 503.878 335.104 509.834 289.391H322.783Z" fill="#D80027"/><path id="Vector_9" d="M289.391 509.833C335.104 503.877 377.02 485.855 411.856 459.077L289.391 322.783V509.833Z" fill="#D80027"/></g><path id="Vector_10" d="M459.098 411.876L303.224 256.001L303.223 256L459.098 100.124C452.376 91.3881 445.022 82.9841 437.02 74.9801C429.018 66.9781 420.613 59.6231 411.876 52.9021L256.001 208.777H256L100.125 52.9021C91.3891 59.6241 82.9841 66.9771 74.9801 74.9801C66.9781 82.9841 59.6231 91.3881 52.9021 100.125L208.777 255.999L208.778 256L52.9031 411.876C59.6251 420.611 66.9791 429.016 74.9811 437.02C82.9841 445.022 91.3891 452.377 100.126 459.098L256 303.223L411.876 459.098C420.611 452.376 429.016 445.022 437.02 437.02C445.023 429.016 452.376 420.611 459.098 411.876Z" fill="#496E2D"/><path id="Vector_11" d="M289.391 509.833V289.394V289.392H509.833C511.258 278.461 512 267.317 512 256C512 244.684 511.257 233.54 509.833 222.61H289.393L289.392 222.609V2.168C278.462 0.745 267.319 0 256 0C244.683 0.001 233.539 0.745 222.609 2.168L222.61 222.607V222.609H2.168C0.744 233.539 0 244.683 0 256C0.001 267.319 0.744 278.461 2.168 289.391H222.608L222.609 509.833C233.54 511.256 244.681 512 256 512C267.319 512 278.462 511.256 289.391 509.833Z" fill="#F0F0F0"/></g><defs><clipPath id="clip0_1_181"><rect width="512" height="512" fill="white"/></clipPath></defs></svg>