<svg viewBox="0 0 512 512" fill="none" xmlns="http://www.w3.org/2000/svg"><g id="belarus" clip-path="url(#clip0_1_194)"><path id="Vector" d="M256 512C397.385 512 512 397.385 512 256C512 114.615 397.385 0 256 0C114.615 0 0 114.615 0 256C0 397.385 114.615 512 256 512Z" fill="#FCFCFC"/><g id="Group"><path id="Vector_2" d="M105.739 237.449L77.9131 186.966L105.739 137.275L133.565 186.966L105.739 237.449Z" fill="#A2001D"/><path id="Vector_3" d="M50.087 237.449L22.261 186.966L50.087 137.275L77.913 186.966L50.087 237.449Z" fill="#A2001D"/><path id="Vector_4" d="M105.739 374.725L77.9131 324.242L105.739 274.551L133.565 324.242L105.739 374.725Z" fill="#A2001D"/><path id="Vector_5" d="M50.087 374.725L22.261 324.242L50.087 274.551L77.913 324.242L50.087 374.725Z" fill="#A2001D"/><path id="Vector_6" d="M133.565 49.692L125.687 35.624C111.557 43.996 98.304 53.689 86.093 64.533L105.739 100.174L133.565 49.692Z" fill="#A2001D"/><path id="Vector_7" d="M105.739 411.826L85.885 447.282C98.085 458.14 111.329 467.848 125.453 476.237L133.566 461.518L105.739 411.826Z" fill="#A2001D"/></g><path id="Vector_8" d="M155.826 322.783V491.646C186.595 504.743 220.448 512 256 512C366.071 512 459.906 442.528 496.077 345.043L155.826 322.783Z" fill="#6DA544"/><path id="Vector_9" d="M496.077 345.043C506.368 317.31 512 287.314 512 256C512 114.616 397.384 0 256 0C220.451 0 186.595 7.253 155.826 20.348V345.044H496.077V345.043Z" fill="#A2001D"/></g><defs><clipPath id="clip0_1_194"><rect width="512" height="512" fill="white"/></clipPath></defs></svg>