<svg viewBox="0 0 512 512" fill="none" xmlns="http://www.w3.org/2000/svg"><g id="belgium"><path id="Vector" d="M345.043 15.923C317.31 5.633 287.314 0 256 0C224.686 0 194.69 5.633 166.957 15.923L144.696 256L166.957 496.077C194.69 506.368 224.686 512 256 512C287.314 512 317.31 506.368 345.043 496.077L367.304 256L345.043 15.923Z" fill="#FFDA44"/><path id="Vector_2" d="M512 256C512 145.93 442.528 52.0941 345.043 15.9241V496.079C442.528 459.906 512 366.072 512 256Z" fill="#D80027"/><path id="Vector_3" d="M0 256C0 366.072 69.472 459.906 166.957 496.078V15.9241C69.472 52.0941 0 145.93 0 256Z" fill="black"/></g></svg>