<svg viewBox="0 0 512 512" fill="none" xmlns="http://www.w3.org/2000/svg"><g id="belize"><path id="Vector" d="M512 256C512 168.139 467.731 90.6261 400.287 44.5221L256 33.3911L111.713 44.5211C44.27 90.6261 0 168.14 0 256C0 343.863 44.27 421.374 111.713 467.478L256 478.609L400.287 467.479C467.731 421.374 512 343.863 512 256Z" fill="#0052B4"/><g id="Group"><path id="Vector_2" d="M400.287 44.522C359.202 16.436 309.524 0 256 0C202.477 0 152.798 16.436 111.713 44.522H400.287Z" fill="#A2001D"/><path id="Vector_3" d="M111.713 467.478C152.797 495.564 202.477 512 256 512C309.524 512 359.202 495.564 400.287 467.478H111.713Z" fill="#A2001D"/></g><path id="Vector_4" d="M256 378.435C323.619 378.435 378.435 323.619 378.435 256C378.435 188.381 323.619 133.565 256 133.565C188.381 133.565 133.565 188.381 133.565 256C133.565 323.619 188.381 378.435 256 378.435Z" fill="#F0F0F0"/><path id="Vector_5" d="M256 356.174C311.325 356.174 356.174 311.324 356.174 256C356.174 200.675 311.325 155.826 256 155.826C200.676 155.826 155.826 200.675 155.826 256C155.826 311.324 200.676 356.174 256 356.174Z" fill="#6DA544"/><path id="Vector_6" d="M256 322.783C292.883 322.783 322.783 292.883 322.783 256C322.783 219.117 292.883 189.217 256 189.217C219.117 189.217 189.217 219.117 189.217 256C189.217 292.883 219.117 322.783 256 322.783Z" fill="#F0F0F0"/><path id="Vector_7" d="M256 239.304L219.826 256V283.826L256 306.087L292.174 283.826V256L256 239.304Z" fill="#0052B4"/><path id="Vector_8" d="M219.826 222.609H292.174V256H219.826V222.609Z" fill="#FFDA44"/></g></svg>