<svg viewBox="0 0 512 512" fill="none" xmlns="http://www.w3.org/2000/svg"><g id="british columbia" clip-path="url(#clip0_1_273)"><path id="Vector" d="M0 256C0 114.616 114.616 0 256 0C397.384 0 512 114.616 512 256H0Z" fill="#F0F0F0"/><g id="Group"><path id="Vector_2" d="M189.217 242.005L175.222 256H189.217V242.005Z" fill="#0052B4"/><path id="Vector_3" d="M322.783 242.006V256H336.777L322.783 242.006Z" fill="#0052B4"/><path id="Vector_4" d="M7.386 194.784C2.571 214.4 0 234.899 0 256H80.777L141.993 194.784H7.386Z" fill="#0052B4"/><path id="Vector_5" d="M370.005 194.784L431.221 256H512C512 234.899 509.428 214.4 504.614 194.784H370.005Z" fill="#0052B4"/></g><g id="Group_2"><path id="Vector_6" d="M354.264 194.784H322.783L383.999 256H415.481L354.264 194.784Z" fill="#D80027"/><path id="Vector_7" d="M189.217 226.263V194.784H189.215L127.999 256H159.481L189.217 226.263Z" fill="#D80027"/></g><g id="Group_3"><path id="Vector_8" d="M119.922 39.1421C109.37 45.7781 99.337 53.1601 89.896 61.2171H141.996L119.922 39.1421Z" fill="#0052B4"/><path id="Vector_9" d="M422.104 61.2171C412.663 53.1591 402.631 45.7771 392.08 39.1421L370.006 61.2171H422.104Z" fill="#0052B4"/></g><g id="Group_4"><path id="Vector_10" d="M289.391 161.391H493.941C484.263 137.072 470.961 114.594 454.708 94.608H289.392H289.391V2.167C278.461 0.744 267.317 0 256 0C244.681 0 233.539 0.744 222.609 2.167V94.607V94.608H57.2921C41.0391 114.594 27.7371 137.072 18.0591 161.391H222.607H222.608V256H289.391V161.392V161.391Z" fill="#D80027"/><path id="Vector_11" d="M189.217 61.217V61.216L150.624 22.623C143.489 25.85 136.535 29.405 129.768 33.248L157.737 61.217H189.217Z" fill="#D80027"/><path id="Vector_12" d="M322.783 61.2169L361.377 22.624C354.036 19.305 346.509 16.329 338.819 13.7L322.783 29.7369V61.2169Z" fill="#D80027"/></g><path id="Vector_13" d="M512 256C512 397.384 397.384 512 256 512C114.616 512 0 397.384 0 256H512Z" fill="#F0F0F0"/><g id="Group_5"><path id="Vector_14" d="M469.33 288.65C447.997 288.65 447.997 269.144 426.663 269.144C405.33 269.144 405.33 288.65 383.998 288.65C362.666 288.65 362.665 269.144 341.333 269.144C320 269.144 320 288.65 298.666 288.65C277.332 288.65 277.331 269.144 255.996 269.144C234.663 269.144 234.663 288.65 213.331 288.65C192.001 288.65 192.001 269.144 170.668 269.144C149.333 269.144 149.333 288.65 127.998 288.65C106.663 288.65 106.663 269.144 85.328 269.144C63.998 269.144 63.998 288.65 42.665 288.65C21.447 288.65 21.324 269.359 0.333008 269.153C0.924008 280.863 2.32201 292.359 4.43601 303.601C21.44 306.1 22.929 322.783 42.666 322.783C63.999 322.783 63.999 303.279 85.329 303.279C106.664 303.279 106.664 322.783 127.999 322.783C149.334 322.783 149.334 303.279 170.669 303.279C192.002 303.279 192.002 322.783 213.332 322.783C234.665 322.783 234.665 303.279 255.997 303.279C277.332 303.279 277.332 322.783 298.667 322.783C320.002 322.783 320.002 303.279 341.334 303.279C362.667 303.279 362.667 322.783 383.999 322.783C405.331 322.783 405.332 303.279 426.664 303.279C447.999 303.279 447.999 322.783 469.331 322.783C489.07 322.783 490.559 306.101 507.564 303.602C509.679 292.359 511.075 280.864 511.669 269.154C490.674 269.361 490.549 288.65 469.33 288.65Z" fill="#0052B4"/><path id="Vector_15" d="M426.663 335.927C405.33 335.927 405.33 355.433 383.998 355.433C362.666 355.433 362.665 335.927 341.333 335.927C320 335.927 320 355.433 298.666 355.433C277.331 355.433 277.331 335.927 255.996 335.927C234.663 335.927 234.663 355.433 213.331 355.433C192.001 355.433 192.001 335.927 170.668 335.927C149.333 335.927 149.333 355.433 127.998 355.433C106.663 355.433 106.663 335.927 85.328 335.927C63.998 335.927 63.998 355.433 42.665 355.433C27.422 355.433 23.068 345.477 14.043 339.789C20.051 357.148 27.867 373.661 37.28 389.097C38.917 389.399 40.699 389.566 42.665 389.566C63.998 389.566 63.998 370.062 85.328 370.062C106.663 370.062 106.663 389.566 127.998 389.566C149.333 389.566 149.333 370.062 170.668 370.062C192.001 370.062 192.001 389.566 213.331 389.566C234.664 389.566 234.664 370.062 255.996 370.062C277.331 370.062 277.331 389.566 298.666 389.566C320.001 389.566 320.001 370.062 341.333 370.062C362.666 370.062 362.666 389.566 383.998 389.566C405.33 389.566 405.331 370.062 426.663 370.062C447.998 370.062 447.998 389.566 469.33 389.566C471.297 389.566 473.08 389.399 474.717 389.096C484.13 373.661 491.946 357.148 497.956 339.79C488.93 345.475 484.576 355.433 469.33 355.433C447.998 355.433 447.998 335.927 426.663 335.927Z" fill="#0052B4"/></g><g id="Group_6"><path id="Vector_16" d="M511.862 247.957C511.884 248.668 511.909 249.379 511.925 250.093C511.909 249.38 511.883 248.668 511.862 247.957Z" fill="#F0F0F0"/><path id="Vector_17" d="M0.0751953 250.092C0.0921953 249.379 0.116195 248.668 0.138195 247.956C0.117195 248.668 0.0911953 249.38 0.0751953 250.092Z" fill="#F0F0F0"/><path id="Vector_18" d="M0 256C0 254.025 0.03 252.058 0.075 250.092C0.029 252.058 0 254.025 0 256Z" fill="#F0F0F0"/><path id="Vector_19" d="M0 256C0 260.663 0.132 265.296 0.381 269.897C21.324 270.132 21.463 289.391 42.666 289.391C63.999 289.391 63.999 269.887 85.329 269.887C106.664 269.887 106.664 289.391 127.999 289.391C149.334 289.391 149.334 269.887 170.669 269.887C192.002 269.887 192.002 289.391 213.332 289.391C234.665 289.391 234.665 269.887 255.997 269.887C277.332 269.887 277.332 289.391 298.667 289.391C320.002 289.391 320.002 269.887 341.334 269.887C362.667 269.887 362.667 289.391 383.999 289.391C405.331 289.391 405.332 269.887 426.664 269.887C447.999 269.887 447.999 289.391 469.331 289.391C490.536 289.391 490.675 270.132 511.622 269.897C511.868 265.295 512 260.663 512 256H0Z" fill="#F0F0F0"/><path id="Vector_20" d="M511.925 250.092C511.97 252.056 512 254.024 512 256C512 254.025 511.971 252.058 511.925 250.092Z" fill="#F0F0F0"/></g><path id="Vector_21" d="M426.663 402.709C405.33 402.709 405.33 422.215 383.998 422.215C362.666 422.215 362.665 402.709 341.333 402.709C320 402.709 320 422.215 298.666 422.215C277.331 422.215 277.331 402.709 255.996 402.709C234.663 402.709 234.663 422.215 213.331 422.215C192.001 422.215 192.001 402.709 170.668 402.709C149.333 402.709 149.333 422.215 127.998 422.215C106.663 422.215 106.663 402.709 85.3282 402.709C70.5942 402.709 66.0352 412.013 57.5952 417.77C79.9842 445.196 107.954 467.88 139.759 484.122L256 478.266L372.24 484.121C404.044 467.878 432.014 445.197 454.403 417.771C445.959 412.015 441.4 402.709 426.663 402.709Z" fill="#0052B4"/><path id="Vector_22" d="M397.983 408.814L320.108 423.709L310.242 345.044L256 402.899L201.76 345.043L191.89 423.708L114.019 408.813L152.208 478.265L139.736 484.131C174.624 501.949 214.137 512 256 512C297.863 512 337.376 501.949 372.264 484.133L359.797 478.268L397.983 408.814Z" fill="#FFDA44"/></g><defs><clipPath id="clip0_1_273"><rect width="512" height="512" fill="white"/></clipPath></defs></svg>