<svg viewBox="0 0 512 512" fill="none" xmlns="http://www.w3.org/2000/svg"><g id="brunei" clip-path="url(#clip0_1_353)"><path id="Vector" d="M256.002 511.964C397.367 511.964 511.965 397.366 511.965 256.001C511.965 114.637 397.367 0.0390633 256.002 0.0390633C114.638 0.0390633 0.0400399 114.637 0.0400399 256.001C0.0400399 397.366 114.638 511.964 256.002 511.964Z" fill="#F0F0F0"/><path id="Vector_2" d="M34.3308 128.019C22.7776 148.027 14.2554 168.946 8.58026 190.253L436.647 437.399C452.263 421.83 466.119 403.989 477.669 383.981L34.3308 128.019Z" fill="black"/><g id="Group"><path id="Vector_3" d="M383.982 34.3297C281.564 -24.8006 155.281 -5.09315 75.3527 74.6005L503.42 321.745C532.473 212.68 486.398 93.4609 383.982 34.3297Z" fill="#FFDA44"/><path id="Vector_4" d="M128.02 477.67C230.436 536.8 356.721 517.093 436.648 437.4L8.58008 190.253C-20.4715 299.32 25.6014 418.54 128.02 477.67Z" fill="#FFDA44"/></g><g id="Group_2"><path id="Vector_5" d="M328.338 228.178C328.338 268.128 295.951 300.515 256 300.515C216.049 300.515 183.663 268.129 183.663 228.178C183.663 215.721 186.812 204 192.358 193.767C176.661 209.82 166.969 231.773 166.969 255.999C166.969 305.169 206.829 345.03 256 345.03C305.171 345.03 345.031 305.17 345.031 255.999C345.031 231.773 335.341 209.82 319.643 193.767C325.189 204.002 328.338 215.721 328.338 228.178Z" fill="#D80027"/><path id="Vector_6" d="M239.309 144.713H272.695V311.646H239.309V144.713Z" fill="#D80027"/><path id="Vector_7" d="M311.645 178.099H200.357C200.357 185.782 207.05 192.01 214.733 192.01H214.269C214.269 199.693 220.498 205.921 228.18 205.921C228.18 213.604 234.409 219.833 242.091 219.833H269.913C277.596 219.833 283.824 213.604 283.824 205.921C291.507 205.921 297.735 199.693 297.735 192.01H297.272C304.952 192.009 311.645 185.783 311.645 178.099Z" fill="#D80027"/><path id="Vector_8" d="M178.1 322.774H333.904V356.16H178.1V322.774Z" fill="#D80027"/><path id="Vector_9" d="M289.388 333.903H356.16V367.29H289.388V333.903Z" fill="#D80027"/><path id="Vector_10" d="M155.843 333.903H222.616V367.29H155.843V333.903Z" fill="#D80027"/></g></g><defs><clipPath id="clip0_1_353"><rect width="511.989" height="511.989" fill="white"/></clipPath></defs></svg>