<svg viewBox="0 0 512 512" fill="none" xmlns="http://www.w3.org/2000/svg"><g id="burundi"><path id="Vector" d="M256 512C397.385 512 512 397.385 512 256C512 114.615 397.385 0 256 0C114.615 0 0 114.615 0 256C0 397.385 114.615 512 256 512Z" fill="#F0F0F0"/><g id="Group"><path id="Vector_2" d="M411.876 52.902C320.224 -17.6241 191.776 -17.6241 100.124 52.901L256 208.777L411.876 52.902Z" fill="#D80027"/><path id="Vector_3" d="M255.998 303.224L100.124 459.098C191.776 529.624 320.224 529.624 411.876 459.098L256 303.222L255.998 303.224Z" fill="#D80027"/></g><g id="Group_2"><path id="Vector_4" d="M208.777 256L52.902 100.124C-17.624 191.776 -17.624 320.224 52.902 411.876L208.777 256Z" fill="#6DA544"/><path id="Vector_5" d="M303.224 256L459.098 411.876C529.624 320.224 529.624 191.776 459.098 100.124L303.224 256Z" fill="#6DA544"/></g><path id="Vector_6" d="M256 367.304C317.471 367.304 367.304 317.471 367.304 256C367.304 194.528 317.471 144.696 256 144.696C194.528 144.696 144.696 194.528 144.696 256C144.696 317.471 194.528 367.304 256 367.304Z" fill="#F0F0F0"/><g id="Group_3"><path id="Vector_7" d="M256 178.087L265.639 194.783H284.918L275.278 211.478L284.918 228.174H265.639L256 244.87L246.361 228.174H227.083L236.722 211.478L227.083 194.783H246.361L256 178.087Z" fill="#D80027"/><path id="Vector_8" d="M207.005 256L216.644 272.696H235.922L226.283 289.391L235.922 306.087H216.644L207.005 322.783L197.365 306.087H178.087L187.726 289.391L178.087 272.696H197.365L207.005 256Z" fill="#D80027"/><path id="Vector_9" d="M304.996 256L314.635 272.696H333.913L324.274 289.391L333.913 306.087H314.635L304.996 322.783L295.356 306.087H276.078L285.717 289.391L276.078 272.696H295.356L304.996 256Z" fill="#D80027"/></g></g></svg>