<svg viewBox="0 0 512 512" fill="none" xmlns="http://www.w3.org/2000/svg"><g id="canary islands"><path id="Vector" d="M256 0C224.686 0 194.689 5.633 166.957 15.923L155.826 256L166.956 496.077C194.689 506.368 224.686 512 256 512C287.314 512 317.311 506.368 345.043 496.077L356.174 256L345.044 15.923C317.311 5.633 287.314 0 256 0V0Z" fill="#338AF3"/><path id="Vector_2" d="M512 256C512 145.929 442.528 52.0939 345.043 15.9229V496.078C442.528 459.906 512 366.071 512 256Z" fill="#FFDA44"/><path id="Vector_3" d="M166.957 496.077V15.9229C69.472 52.0939 0 145.929 0 256C0 366.071 69.472 459.906 166.957 496.077Z" fill="#F0F0F0"/></g></svg>