<svg viewBox="0 0 512 512" fill="none" xmlns="http://www.w3.org/2000/svg"><g id="canada"><path id="Vector" d="M256 512C397.385 512 512 397.385 512 256C512 114.615 397.385 0 256 0C114.615 0 0 114.615 0 256C0 397.385 114.615 512 256 512Z" fill="#F0F0F0"/><g id="Group"><path id="Vector_2" d="M512 256C512 154.506 452.935 66.8099 367.304 25.4019V486.597C452.935 445.19 512 357.494 512 256Z" fill="#D80027"/><path id="Vector_3" d="M0 256C0 357.494 59.065 445.19 144.696 486.598V25.4019C59.065 66.8099 0 154.506 0 256Z" fill="#D80027"/><path id="Vector_4" d="M300.522 289.391L345.043 267.13L322.783 256V233.739L278.261 256L300.522 211.478H278.261L256 178.087L233.739 211.478H211.478L233.739 256L189.217 233.739V256L166.957 267.13L211.478 289.391L200.348 311.652H244.87V345.043H267.13V311.652H311.652L300.522 289.391Z" fill="#D80027"/></g></g></svg>