<svg viewBox="0 0 512 512" fill="none" xmlns="http://www.w3.org/2000/svg"><g id="corsica" clip-path="url(#clip0_1_545)"><path id="Vector" d="M256 512C397.385 512 512 397.385 512 256C512 114.615 397.385 0 256 0C114.615 0 0 114.615 0 256C0 397.385 114.615 512 256 512Z" fill="#FCFCFC"/><path id="Vector_2" d="M345.136 216.833C345.136 162.689 301.244 118.798 247.101 118.798C207.147 118.798 172.8 142.708 157.528 176.992L145.437 220.827L156.567 231.957L134.306 276.479L156.567 287.609L145.437 298.739V309.869L156.567 320.999V343.26L167.697 354.39L201.088 343.26C201.088 343.26 201.088 354.39 212.218 365.521C223.348 376.651 234.48 398.913 234.48 398.913C234.48 398.913 267.871 410.043 290.132 376.652C312.393 343.261 334.654 332.13 334.654 332.13L313.198 289.216C332.82 271.293 345.136 245.506 345.136 216.833Z" fill="black"/><path id="Vector_3" d="M353.126 254.322C398.355 246.693 405.889 158.127 405.889 158.127H343.559C375.837 236.04 342.052 241.281 342.052 241.281C337.475 237.876 173.677 160.28 168.485 158.307C167.234 159.981 162.629 164.378 157.031 178.068C151.432 191.758 150.058 204.074 150.058 204.074C152.68 205.783 326.633 266.524 331.231 267.03C340.356 272.996 351.584 290.837 345.309 343.735L405.303 326.827C405.305 326.827 384.944 272.664 353.126 254.322Z" fill="#ACABB1"/></g><defs><clipPath id="clip0_1_545"><rect width="512" height="512" fill="white"/></clipPath></defs></svg>