<svg viewBox="0 0 512 512" fill="none" xmlns="http://www.w3.org/2000/svg"><g id="croatia" clip-path="url(#clip0_1_555)"><path id="Vector" d="M512 256C512 224.686 506.367 194.689 496.077 166.957L256 155.826L15.923 166.956C5.633 194.689 0 224.686 0 256C0 287.314 5.633 317.311 15.923 345.043L256 356.174L496.077 345.044C506.367 317.311 512 287.314 512 256Z" fill="#F0F0F0"/><path id="Vector_2" d="M256 512C366.071 512 459.906 442.528 496.077 345.043H15.9229C52.0939 442.528 145.929 512 256 512Z" fill="#0052B4"/><path id="Vector_3" d="M15.9229 166.957H496.078C459.906 69.472 366.071 0 256 0C145.929 0 52.0939 69.472 15.9229 166.957Z" fill="#D80027"/><g id="Group"><path id="Vector_4" d="M322.783 178.088H278.261L285.682 122.435L315.362 100.174L345.043 122.435V166.957L322.783 178.088Z" fill="#338AF3"/><path id="Vector_5" d="M189.217 178.088H233.739L226.318 122.435L196.637 100.174L166.957 122.435V166.957L189.217 178.088Z" fill="#338AF3"/></g><path id="Vector_6" d="M285.682 178.088H226.318V122.435L256 100.174L285.682 122.435V178.088Z" fill="#0052B4"/><path id="Vector_7" d="M166.957 166.958V289.392C166.957 318.545 181.039 344.471 202.759 360.724L218.342 356.825L238.006 376.607C243.821 377.805 249.838 378.436 256.001 378.436C262.131 378.436 268.118 377.813 273.902 376.627L296.349 357.937L309.241 360.688C330.952 344.436 345.044 318.537 345.044 289.392V166.958H166.957Z" fill="#F0F0F0"/><g id="Group_2"><path id="Vector_8" d="M166.957 166.957H202.574V202.574H166.957V166.957Z" fill="#D80027"/><path id="Vector_9" d="M238.191 166.957H273.808V202.574H238.191V166.957Z" fill="#D80027"/><path id="Vector_10" d="M309.426 166.957H345.043V202.574H309.426V166.957Z" fill="#D80027"/><path id="Vector_11" d="M202.574 202.574H238.191V238.191H202.574V202.574Z" fill="#D80027"/><path id="Vector_12" d="M273.809 202.574H309.426V238.191H273.809V202.574Z" fill="#D80027"/><path id="Vector_13" d="M166.957 238.18H202.574V273.797H166.957V238.18Z" fill="#D80027"/><path id="Vector_14" d="M202.574 273.798H238.191V309.415H202.574V273.798Z" fill="#D80027"/><path id="Vector_15" d="M238.191 238.18H273.808V273.797H238.191V238.18Z" fill="#D80027"/><path id="Vector_16" d="M309.426 238.18H345.043V273.797H309.426V238.18Z" fill="#D80027"/><path id="Vector_17" d="M273.809 273.798H309.426V309.415H273.809V273.798Z" fill="#D80027"/><path id="Vector_18" d="M238.191 309.415H273.808V345.032H238.191V309.415Z" fill="#D80027"/><path id="Vector_19" d="M202.574 309.418H169.255C172.311 322.658 178.319 334.773 186.557 345.035H202.574V309.418Z" fill="#D80027"/><path id="Vector_20" d="M309.426 345.036H325.442C333.682 334.774 339.688 322.658 342.744 309.419H309.426V345.036Z" fill="#D80027"/><path id="Vector_21" d="M202.574 345.036V360.577C212.933 368.372 225.039 373.961 238.191 376.643V345.036H202.574Z" fill="#D80027"/><path id="Vector_22" d="M273.809 345.036V376.643C286.962 373.963 299.067 368.372 309.426 360.577V345.036H273.809Z" fill="#D80027"/></g></g><defs><clipPath id="clip0_1_555"><rect width="512" height="512" fill="white"/></clipPath></defs></svg>