<svg viewBox="0 0 512 512" fill="none" xmlns="http://www.w3.org/2000/svg"><g id="cuba" clip-path="url(#clip0_1_580)"><path id="Vector" d="M0.001 44.522H0V467.478H0.001V256.001V44.522Z" fill="#FF9811"/><path id="Vector_2" d="M255.999 511.999C397.383 511.999 511.998 397.384 511.998 256C511.998 114.616 397.383 0.000976562 255.999 0.000976562C114.615 0.000976562 0 114.616 0 256C0 397.384 114.615 511.999 255.999 511.999Z" fill="#F0F0F0"/><g id="Group"><path id="Vector_3" d="M256.001 0.00195312C172.249 0.00195312 97.895 40.225 51.19 102.402H460.811C414.107 40.224 339.752 0.00195312 256.001 0.00195312Z" fill="#0052B4"/><path id="Vector_4" d="M256.001 511.999C339.753 511.999 414.107 471.776 460.812 409.599H51.19C97.894 471.777 172.249 511.999 256.001 511.999Z" fill="#0052B4"/><path id="Vector_5" d="M0.000976562 256.001C0.000976562 273.536 1.76898 290.658 5.12798 307.201H506.875C510.234 290.658 512.001 273.536 512.001 256.001C512.001 238.466 510.233 221.344 506.875 204.801H5.12798C1.76898 221.344 0.000976562 238.466 0.000976562 256.001Z" fill="#0052B4"/></g><path id="Vector_6" d="M74.981 74.9819C-24.992 174.955 -24.992 337.046 74.981 437.021C116.294 395.708 156.026 355.975 256 256.002L74.981 74.9819Z" fill="#D80027"/><path id="Vector_7" d="M103.611 189.219L120.185 240.234H173.831L130.434 271.766L147.008 322.782L103.611 291.252L60.212 322.782L76.79 271.766L33.392 240.234H87.034L103.611 189.219Z" fill="#F0F0F0"/></g><defs><clipPath id="clip0_1_580"><rect width="512" height="512" fill="white"/></clipPath></defs></svg>