<svg viewBox="0 0 512 512" fill="none" xmlns="http://www.w3.org/2000/svg"><g id="democratic republic of congo" clip-path="url(#clip0_1_605)"><path id="Vector" d="M483.574 138.616C471.745 115.697 456.24 94.1848 437.028 74.9728C417.815 55.7598 396.302 40.2548 373.384 28.4268L193.035 193.033L28.4282 373.382C40.2572 396.301 55.7622 417.814 74.9742 437.026C94.1862 456.238 115.699 471.743 138.617 483.572L318.966 318.965L483.574 138.616Z" fill="#FFDA44"/><path id="Vector_2" d="M74.9741 437.027C85.7131 447.766 97.1721 457.344 109.191 465.777L465.775 109.191C457.344 97.1721 447.766 85.7131 437.027 74.9741C426.287 64.2351 414.829 54.6581 402.81 46.2261L46.2261 402.81C54.6571 414.827 64.2341 426.288 74.9741 437.027Z" fill="#D80027"/><g id="Group"><path id="Vector_3" d="M74.9741 74.9719C-5.79288 155.739 -21.2979 277.037 28.4281 373.382L373.384 28.4269C277.038 -21.2981 155.74 -5.79108 74.9741 74.9719Z" fill="#338AF3"/><path id="Vector_4" d="M437.027 437.027C517.793 356.261 533.297 234.963 483.574 138.618L138.618 483.573C234.963 533.298 356.262 517.794 437.027 437.027Z" fill="#338AF3"/></g><path id="Vector_5" d="M136.426 77.9048L150.24 120.422H194.944L158.778 146.698L172.592 189.214L136.426 162.937L100.258 189.214L114.074 146.698L77.9058 120.422H122.61L136.426 77.9048Z" fill="#FFDA44"/></g><defs><clipPath id="clip0_1_605"><rect width="512" height="512" fill="white"/></clipPath></defs></svg>