<svg viewBox="0 0 512 512" fill="none" xmlns="http://www.w3.org/2000/svg"><g id="djibouti" clip-path="url(#clip0_1_619)"><path id="Vector" d="M233.739 278.261C233.739 278.261 75.13 74.945 74.98 74.981C121.306 28.654 185.307 0 256 0C397.384 0 512 114.616 512 256L233.739 278.261Z" fill="#338AF3"/><path id="Vector_2" d="M233.739 256C233.739 256 75.13 437.055 74.98 437.019C121.306 483.346 185.307 512 256 512C397.384 512 512 397.384 512 256H233.739Z" fill="#6DA544"/><path id="Vector_3" d="M74.98 74.98C-24.994 174.954 -24.994 337.045 74.98 437.02C116.293 395.707 156.026 355.974 256 256L74.98 74.98Z" fill="#F0F0F0"/><path id="Vector_4" d="M103.61 189.217L120.185 240.233H173.831L130.433 271.765L147.007 322.783L103.61 291.252L60.2111 322.783L76.7891 271.765L33.3911 240.233H87.0331L103.61 189.217Z" fill="#D80027"/></g><defs><clipPath id="clip0_1_619"><rect width="512" height="512" fill="white"/></clipPath></defs></svg>