<svg viewBox="0 0 512 512" fill="none" xmlns="http://www.w3.org/2000/svg"><g id="dominica" clip-path="url(#clip0_1_624)"><path id="Vector" d="M256 512C397.385 512 512 397.385 512 256C512 114.615 397.385 0 256 0C114.615 0 0 114.615 0 256C0 397.385 114.615 512 256 512Z" fill="#F0F0F0"/><g id="Group"><path id="Vector_2" d="M306.087 507.087C407.29 487.011 487.011 407.289 507.087 306.087H306.087V507.087Z" fill="#496E2D"/><path id="Vector_3" d="M4.91309 306.087C24.9881 407.289 104.71 487.011 205.913 507.087V306.087H4.91309Z" fill="#496E2D"/><path id="Vector_4" d="M507.087 205.913C487.011 104.711 407.29 24.9891 306.087 4.91309V205.913H507.087Z" fill="#496E2D"/><path id="Vector_5" d="M205.913 4.91309C104.71 24.9891 24.9881 104.711 4.91309 205.913H205.913V4.91309Z" fill="#496E2D"/></g><g id="Group_2"><path id="Vector_6" d="M239.304 306.087H205.913V507.087C216.81 509.248 227.957 510.712 239.304 511.443V306.087Z" fill="#FFDA44"/><path id="Vector_7" d="M239.304 205.913V0.557129C227.957 1.28713 216.809 2.75213 205.913 4.91313V205.913H239.304Z" fill="#FFDA44"/></g><path id="Vector_8" d="M272.696 0.557C267.174 0.2 261.611 0 256 0C250.389 0 244.826 0.2 239.304 0.557V205.914H272.695V0.557H272.696Z" fill="black"/><path id="Vector_9" d="M239.304 511.443C244.826 511.8 250.389 512 256 512C261.611 512 267.174 511.8 272.696 511.443V306.087H239.305V511.443H239.304Z" fill="black"/><g id="Group_3"><path id="Vector_10" d="M205.913 239.304V205.913H4.91313C2.75113 216.811 1.28713 227.957 0.557129 239.304H205.913Z" fill="#FFDA44"/><path id="Vector_11" d="M306.087 239.304H511.444C510.714 227.957 509.249 216.811 507.088 205.913H306.088V239.304H306.087Z" fill="#FFDA44"/></g><path id="Vector_12" d="M306.087 272.696H511.444C511.8 267.175 512 261.611 512 256C512 250.389 511.8 244.825 511.443 239.304H306.087V272.696Z" fill="black"/><path id="Vector_13" d="M0.557 239.304C0.201 244.825 0 250.389 0 256C0 261.611 0.201 267.175 0.557 272.696H205.914V239.305H0.557V239.304Z" fill="black"/><path id="Vector_14" d="M256 378.435C323.619 378.435 378.435 323.619 378.435 256C378.435 188.381 323.619 133.565 256 133.565C188.381 133.565 133.565 188.381 133.565 256C133.565 323.619 188.381 378.435 256 378.435Z" fill="#D80027"/><g id="Group_4"><path id="Vector_15" d="M283.894 269.66C274.787 251.447 262.95 232.987 262.95 232.987C262.95 232.987 263.244 224.582 263.244 219.574C263.244 212.03 257.128 205.914 249.584 205.914C242.437 205.914 236.581 211.405 235.984 218.396C230.364 218.763 225.917 223.425 225.917 229.137C225.917 233.29 228.27 236.889 231.714 238.688C233.426 234.684 236.778 231.558 240.924 230.133C241.6 230.686 242.326 231.18 243.101 231.599L244.851 232.437C244.851 232.437 238.362 250.728 238.362 260.554C238.362 288.178 256.576 296.697 256.576 296.697V296.982L247.469 306.088H265.682V287.874L274.789 296.981C274.869 296.81 292.039 285.951 283.894 269.66Z" fill="#496E2D"/><path id="Vector_16" d="M256 155.826L260.144 168.58H273.554L262.705 176.463L266.85 189.217L256 181.335L245.15 189.217L249.295 176.463L238.446 168.58H251.856L256 155.826Z" fill="#496E2D"/><path id="Vector_17" d="M197.12 174.958L207.968 182.841L218.818 174.957L214.674 187.713L225.524 195.594L212.113 195.595L207.969 208.349L203.824 195.595L190.414 195.594L201.263 187.711L197.12 174.958Z" fill="#496E2D"/><path id="Vector_18" d="M160.729 225.045H174.138L178.283 212.291L182.427 225.045L195.838 225.044L184.989 232.928L189.134 245.682L178.283 237.799L167.434 245.681L171.577 232.927L160.729 225.045Z" fill="#496E2D"/><path id="Vector_19" d="M160.729 286.955L171.577 279.074L167.433 266.319L178.283 274.202L189.133 266.319L184.989 279.073L195.839 286.956L182.427 286.957L178.283 299.71L174.138 286.955H160.729Z" fill="#496E2D"/><path id="Vector_20" d="M197.12 337.042L201.263 324.29L190.413 316.407H203.824L207.969 303.652L212.113 316.406H225.524L214.674 324.29L218.818 337.043L207.968 329.16L197.12 337.042Z" fill="#496E2D"/><path id="Vector_21" d="M256 356.174L251.856 343.422H238.446L249.295 335.538L245.15 322.784L256 330.665L266.849 322.783L262.705 335.538L273.554 343.421L260.144 343.422L256 356.174Z" fill="#496E2D"/><path id="Vector_22" d="M314.88 337.042L304.032 329.16L293.183 337.044L297.326 324.29L286.476 316.407L299.887 316.406L304.03 303.652L308.176 316.407H321.586L310.737 324.29L314.88 337.042Z" fill="#496E2D"/><path id="Vector_23" d="M351.271 286.955H337.862L333.717 299.71L329.573 286.957H316.161L327.011 279.073L322.866 266.32L333.717 274.202L344.565 266.32L340.423 279.074L351.271 286.955Z" fill="#496E2D"/><path id="Vector_24" d="M351.271 225.045L340.423 232.927L344.566 245.681L333.717 237.799L322.867 245.683L327.011 232.928L316.161 225.046L329.573 225.044L333.716 212.292L337.862 225.045H351.271Z" fill="#496E2D"/><path id="Vector_25" d="M314.88 174.958L310.737 187.711L321.586 195.594H308.176L304.032 208.349L299.887 195.595L286.476 195.596L297.326 187.711L293.182 174.959L304.032 182.84L314.88 174.958Z" fill="#496E2D"/></g></g><defs><clipPath id="clip0_1_624"><rect width="512" height="512" fill="white"/></clipPath></defs></svg>