<svg viewBox="0 0 512 512" fill="none" xmlns="http://www.w3.org/2000/svg"><g id="East Timor" clip-path="url(#clip0_1_663)"><path id="Vector" d="M256 512C397.385 512 512 397.385 512 256C512 114.615 397.385 0 256 0C114.615 0 0 114.615 0 256C0 397.385 114.615 512 256 512Z" fill="#FFDA44"/><path id="Vector_2" d="M256 0C193.323 0 135.917 22.537 91.415 59.934L367.304 256L91.415 452.066C135.917 489.463 193.323 512 256 512C397.384 512 512 397.384 512 256C512 114.616 397.384 0 256 0Z" fill="#D80027"/><path id="Vector_3" d="M74.9795 74.98C-24.9945 174.954 -24.9945 337.045 74.9795 437.02C116.293 395.707 156.026 355.974 256 256L74.9795 74.98Z" fill="black"/><path id="Vector_4" d="M70.9787 197.355L109.939 234.227L157.047 208.563L134.022 257.013L172.983 293.886L119.789 286.958L96.7607 335.407L86.9137 282.675L33.7197 275.745L80.8257 250.084L70.9787 197.355Z" fill="#F0F0F0"/></g><defs><clipPath id="clip0_1_663"><rect width="512" height="512" fill="white"/></clipPath></defs></svg>