<svg viewBox="0 0 512 512" fill="none" xmlns="http://www.w3.org/2000/svg"><g id="eritrea" clip-path="url(#clip0_1_699)"><path id="Vector" d="M233.739 233.739C233.739 233.739 75.13 437.056 74.98 437.019C121.306 483.346 185.307 512 256 512C397.384 512 512 397.384 512 256L233.739 233.739Z" fill="#338AF3"/><path id="Vector_2" d="M233.739 256C233.739 256 75.13 74.945 74.98 74.981C121.306 28.654 185.307 0 256 0C397.384 0 512 114.616 512 256H233.739Z" fill="#6DA544"/><path id="Vector_3" d="M74.98 74.98C-24.994 174.954 -24.994 337.045 74.98 437.02C74.973 437.061 512 256 512 256L74.98 74.98Z" fill="#D80027"/><path id="Vector_4" d="M133.565 150.261C84.466 150.261 44.522 190.206 44.522 239.304V272.695C44.522 321.794 84.467 361.738 133.565 361.738C182.663 361.738 222.608 321.793 222.608 272.695V239.304C222.609 190.206 182.664 150.261 133.565 150.261ZM189.217 272.696C189.217 297.568 172.815 318.677 150.26 325.786V289.392L173.884 265.768L150.273 242.157L150.26 233.754V222.61H116.87V256L93.262 279.607L116.87 303.214V325.787C94.315 318.678 77.913 297.569 77.913 272.697V239.306C77.913 208.619 102.879 183.654 133.565 183.654C164.251 183.654 189.217 208.62 189.217 239.306V272.696Z" fill="#FFDA44"/></g><defs><clipPath id="clip0_1_699"><rect width="512" height="512" fill="white"/></clipPath></defs></svg>