<svg viewBox="0 0 512 512" fill="none" xmlns="http://www.w3.org/2000/svg"><g id="ethiopia" clip-path="url(#clip0_1_708)"><path id="Vector" d="M0 256C0 287.316 5.633 317.312 15.924 345.046L256 367.304L496.076 345.045C506.368 317.312 512 287.315 512 256C512 225.115 506.529 195.508 496.506 168.095L256 144.696L15.494 168.096C5.471 195.508 0 225.115 0 256H0Z" fill="#FFDA44"/><path id="Vector_2" d="M256 512C366.071 512 459.906 442.528 496.077 345.043H15.9229C52.0939 442.528 145.929 512 256 512Z" fill="#D80027"/><path id="Vector_3" d="M256 0C145.929 0 52.0939 69.472 15.9229 166.957H496.078C459.906 69.472 366.071 0 256 0Z" fill="#6DA544"/><path id="Vector_4" d="M256 378.435C323.619 378.435 378.435 323.619 378.435 256C378.435 188.381 323.619 133.565 256 133.565C188.381 133.565 133.565 188.381 133.565 256C133.565 323.619 188.381 378.435 256 378.435Z" fill="#0052B4"/><g id="Group"><path id="Vector_5" d="M255.974 161.191L278.076 229.213H349.713L291.735 271.254L314.011 339.478L255.974 297.237L198.026 339.4L220.212 271.254L162.287 229.213H233.872L255.974 161.191Z" fill="#FFDA44"/><path id="Vector_6" d="M344.124 272.93L274.008 250.146L317.341 190.506L299.333 177.42L255.998 237.064L212.667 177.421L194.657 190.505L237.989 250.15L167.876 272.929L174.754 294.102L244.87 271.321V345.043H267.13V271.32L337.243 294.102L344.124 272.93Z" fill="#FFDA44"/></g></g><defs><clipPath id="clip0_1_708"><rect width="512" height="512" fill="white"/></clipPath></defs></svg>