<svg viewBox="0 0 512 512" fill="none" xmlns="http://www.w3.org/2000/svg"><g id="european union"><path id="Vector" d="M256 512C397.385 512 512 397.385 512 256C512 114.615 397.385 0 256 0C114.615 0 0 114.615 0 256C0 397.385 114.615 512 256 512Z" fill="#0052B4"/><g id="Group"><path id="Vector_2" d="M256.001 100.174L264.29 125.683H291.11L269.411 141.448L277.7 166.957L256.001 151.191L234.301 166.957L242.59 141.448L220.891 125.683H247.712L256.001 100.174Z" fill="#FFDA44"/><path id="Vector_3" d="M145.814 145.814L169.714 157.99L188.679 139.026L184.482 165.516L208.381 177.693L181.89 181.889L177.694 208.381L165.517 184.482L139.027 188.679L157.992 169.714L145.814 145.814Z" fill="#FFDA44"/><path id="Vector_4" d="M100.175 256L125.684 247.711V220.89L141.448 242.59L166.958 234.301L151.191 256L166.958 277.699L141.448 269.411L125.684 291.11V264.289L100.175 256Z" fill="#FFDA44"/><path id="Vector_5" d="M145.814 366.186L157.991 342.286L139.027 323.321L165.518 327.519L177.693 303.62L181.89 330.111L208.38 334.307L184.484 346.484L188.679 372.974L169.714 354.009L145.814 366.186Z" fill="#FFDA44"/><path id="Vector_6" d="M256.001 411.826L247.711 386.317H220.891L242.591 370.552L234.301 345.045L256.001 360.809L277.7 345.045L269.411 370.552L291.11 386.317H264.289L256.001 411.826Z" fill="#FFDA44"/><path id="Vector_7" d="M366.187 366.186L342.288 354.01L323.322 372.975L327.519 346.483L303.622 334.307L330.112 330.111L334.308 303.62L346.484 327.519L372.974 323.321L354.009 342.288L366.187 366.186Z" fill="#FFDA44"/><path id="Vector_8" d="M411.826 256L386.317 264.289V291.11L370.552 269.41L345.045 277.699L360.81 256L345.045 234.301L370.553 242.59L386.317 220.89V247.712L411.826 256Z" fill="#FFDA44"/><path id="Vector_9" d="M366.187 145.814L354.01 169.714L372.975 188.679L346.483 184.481L334.308 208.38L330.112 181.889L303.622 177.692L327.519 165.516L323.322 139.027L342.289 157.991L366.187 145.814Z" fill="#FFDA44"/></g></g></svg>