<svg viewBox="0 0 512 512" fill="none" xmlns="http://www.w3.org/2000/svg"><g id="fiji"><path id="Vector" d="M512 256C512 397.384 397.384 512 256 512C114.616 512 0 397.384 0 256C0 256.061 256 0.028 256 0C397.384 0 512 114.616 512 256Z" fill="#338AF3"/><g id="Group"><path id="Vector_2" d="M256 122.435V208.778L166.957 122.435H256Z" fill="#0052B4"/><path id="Vector_3" d="M133.565 256H208.777L133.565 155.826L122.435 233.739L133.565 256Z" fill="#0052B4"/></g><g id="Group_2"><path id="Vector_4" d="M255.315 256H256C256 255.77 256 255.546 256 255.315C255.772 255.544 255.544 255.772 255.315 256Z" fill="#F0F0F0"/><path id="Vector_5" d="M256 133.565C256 88.52 256 59.005 256 0H255.957C114.592 0.024 0 114.629 0 256H133.565V180.789L208.777 256H255.317C255.545 255.772 255.773 255.544 256.002 255.315C256.002 238.068 256.002 222.679 256.002 208.778L180.788 133.565H256Z" fill="#F0F0F0"/></g><g id="Group_3"><path id="Vector_6" d="M129.515 33.3911C89.476 56.1901 56.19 89.4761 33.391 129.515V256H100.174V100.176V100.174H256C256 79.1111 256 59.0451 256 33.3911H129.515Z" fill="#D80027"/><path id="Vector_7" d="M256 224.519L165.047 133.566H133.566V133.568L255.998 256H256C256 256 256 234.293 256 224.519Z" fill="#D80027"/></g><path id="Vector_8" d="M289.391 166.957V255.999C289.391 315.639 367.304 333.913 367.304 333.913C367.304 333.913 445.217 315.639 445.217 255.999V166.957L367.304 144.696L289.391 166.957Z" fill="#F3F3F3"/><path id="Vector_9" d="M445.217 166.957V133.566H289.391V166.957H356.172V233.741H289.391V256V256.002L356.172 256.003V330.5C362.89 332.876 367.304 333.914 367.304 333.914C367.304 333.914 371.716 332.878 378.433 330.5V256.002H445.217V256V233.74H378.433V166.956H445.217V166.957Z" fill="#D80027"/></g></svg>