<svg viewBox="0 0 512 512" fill="none" xmlns="http://www.w3.org/2000/svg"><g id="french polynesia"><path id="Vector" d="M256 512C397.385 512 512 397.385 512 256C512 114.615 397.385 0 256 0C114.615 0 0 114.615 0 256C0 397.385 114.615 512 256 512Z" fill="#F0F0F0"/><g id="Group"><path id="Vector_2" d="M31.127 133.565H480.872C437.454 53.989 353.035 0 256 0C158.965 0 74.546 53.989 31.127 133.565Z" fill="#D80027"/><path id="Vector_3" d="M256 512C353.035 512 437.454 458.011 480.873 378.435H31.127C74.546 458.011 158.965 512 256 512Z" fill="#D80027"/></g><path id="Vector_4" d="M345.043 256C345.043 305.178 305.177 333.913 256 333.913C206.823 333.913 166.957 305.178 166.957 256C166.957 206.822 206.823 166.957 256 166.957C305.177 166.957 345.043 206.822 345.043 256Z" fill="#FFDA44"/><path id="Vector_5" d="M345.043 256C345.043 305.178 305.177 345.043 256 345.043C206.823 345.043 166.957 305.178 166.957 256" fill="#0052B4"/><g id="Group_2"><path id="Vector_6" d="M200.348 233.739H222.609V278.261H200.348V233.739Z" fill="#D80027"/><path id="Vector_7" d="M289.391 233.739H311.652V278.261H289.391V233.739Z" fill="#D80027"/><path id="Vector_8" d="M244.87 200.348H267.131V278.261H244.87V200.348Z" fill="#D80027"/></g></g></svg>