<svg viewBox="0 0 512 512" fill="none" xmlns="http://www.w3.org/2000/svg"><g id="gambia" clip-path="url(#clip0_1_785)"><path id="Vector" d="M256 512C397.385 512 512 397.385 512 256C512 114.615 397.385 0 256 0C114.615 0 0 114.615 0 256C0 397.385 114.615 512 256 512Z" fill="#F0F0F0"/><path id="Vector_2" d="M256 0C150.165 0 59.3371 64.226 20.3481 155.826H491.653C452.664 64.226 361.835 0 256 0Z" fill="#A2001D"/><path id="Vector_3" d="M256 512C361.835 512 452.664 447.774 491.652 356.174H20.3481C59.3371 447.774 150.165 512 256 512Z" fill="#496E2D"/><path id="Vector_4" d="M503.181 189.217H8.819C3.08 210.51 0 232.893 0 256C0 279.107 3.08 301.49 8.819 322.783H503.182C508.92 301.49 512 279.107 512 256C512 232.893 508.92 210.51 503.181 189.217Z" fill="#0052B4"/></g><defs><clipPath id="clip0_1_785"><rect width="512" height="512" fill="white"/></clipPath></defs></svg>