<svg viewBox="0 0 512 512" fill="none" xmlns="http://www.w3.org/2000/svg"><g id="gibraltar"><path id="Vector" d="M256 512C397.385 512 512 397.385 512 256C512 114.615 397.385 0 256 0C114.615 0 0 114.615 0 256C0 397.385 114.615 512 256 512Z" fill="#F9F9F9"/><g id="Group"><path id="Vector_2" d="M256 512C366.07 512 459.906 442.528 496.076 345.043H15.922C52.094 442.528 145.928 512 256 512Z" fill="#D80027"/><path id="Vector_3" d="M356.174 211.478V178.087H367.304V155.826H345.043V166.957H322.783V155.826H300.522V178.087H311.652V211.478H289.391V133.567H300.522V111.307H278.261V122.435H267.13V111.307H244.87V122.435H233.739V111.307H211.478V133.567H222.609V211.478H200.348V178.087H211.478V155.826H189.217V166.957H166.957V155.826H144.696V178.087H155.826V211.478H133.565V300.522H378.435V211.478H356.174Z" fill="#D80027"/></g><path id="Vector_4" d="M256 289.391C237.559 289.391 222.609 304.341 222.609 322.782C222.609 337.318 231.903 349.682 244.87 354.266V400.696H211.479V445.218H267.131V354.267C280.098 349.683 289.392 337.32 289.392 322.783C289.391 304.342 274.441 289.391 256 289.391ZM256 333.913C249.853 333.913 244.87 328.929 244.87 322.783C244.87 316.636 249.853 311.653 256 311.653C262.147 311.653 267.13 316.636 267.13 322.783C267.13 328.929 262.147 333.913 256 333.913Z" fill="#FFDA44"/></g></svg>