<svg viewBox="0 0 512 512" fill="none" xmlns="http://www.w3.org/2000/svg"><g id="greece"><path id="Vector" d="M256 512C397.385 512 512 397.385 512 256C512 114.615 397.385 0 256 0C114.615 0 0 114.615 0 256C0 397.385 114.615 512 256 512Z" fill="#F0F0F0"/><g id="Group"><path id="Vector_2" d="M256 189.217H503.181C496.762 165.403 487.006 142.962 474.426 122.434H256V189.217Z" fill="#338AF3"/><path id="Vector_3" d="M96.643 456.348H415.356C438.719 437.74 458.755 415.138 474.425 389.565H37.574C53.245 415.137 73.281 437.74 96.643 456.348Z" fill="#338AF3"/><path id="Vector_4" d="M89.043 61.9395C68.917 79.2705 51.518 99.6795 37.574 122.435H89.043V61.9395Z" fill="#338AF3"/><path id="Vector_5" d="M256 256C256 229.924 256 208.101 256 189.217H155.826V256H89.043V189.217H8.819C3.08 210.511 0 232.893 0 256C0 279.107 3.08 301.489 8.819 322.783H503.182C508.92 301.489 512 279.107 512 256H256Z" fill="#338AF3"/><path id="Vector_6" d="M256 0C220.451 0 186.596 7.253 155.826 20.348V122.435H256C256 99.123 256 79.296 256 55.652H415.357C371.626 20.824 316.249 0 256 0Z" fill="#338AF3"/></g></g></svg>