<svg viewBox="0 0 512 512" fill="none" xmlns="http://www.w3.org/2000/svg"><g id="greenland"><path id="Vector" d="M0 256C0 114.616 114.616 0 256 0C397.384 0 512 114.616 512 256C500.87 256 256 289.391 256 289.391L0 256Z" fill="#F0F0F0"/><path id="Vector_2" d="M512 256C512 397.384 397.384 512 256 512C114.616 512 0 397.384 0 256" fill="#D80027"/><path id="Vector_3" d="M178.087 378.435C245.706 378.435 300.522 323.619 300.522 256C300.522 188.381 245.706 133.565 178.087 133.565C110.468 133.565 55.6521 188.381 55.6521 256C55.6521 323.619 110.468 378.435 178.087 378.435Z" fill="#F0F0F0"/><path id="Vector_4" d="M55.6521 256C55.6521 188.383 110.468 133.565 178.087 133.565C245.707 133.565 300.522 188.382 300.522 256" fill="#D80027"/></g></svg>