<svg viewBox="0 0 512 512" fill="none" xmlns="http://www.w3.org/2000/svg"><g id="grenada" clip-path="url(#clip0_1_826)"><path id="Vector" d="M256 512C397.385 512 512 397.385 512 256C512 114.615 397.385 0 256 0C114.615 0 0 114.615 0 256C0 397.385 114.615 512 256 512Z" fill="#FFDA44"/><path id="Vector_2" d="M111.713 44.522C152.798 16.436 202.476 0 256 0C309.524 0 359.202 16.436 400.287 44.522L256 55.652L111.713 44.522Z" fill="#A2001D"/><path id="Vector_3" d="M256 256L239.662 239.662L235.324 247.433L256 256Z" fill="#0052B4"/><g id="Group"><path id="Vector_4" d="M74.98 74.9805C-24.994 174.954 -24.994 337.045 74.98 437.02C116.293 395.707 156.026 355.974 256 256L74.98 74.9805Z" fill="#496E2D"/><path id="Vector_5" d="M437.02 74.9805C536.994 174.954 536.994 337.045 437.02 437.02C395.707 395.707 355.974 355.974 256 256L437.02 74.9805Z" fill="#496E2D"/></g><path id="Vector_6" d="M256 345.043C305.177 345.043 345.043 305.177 345.043 256C345.043 206.823 305.177 166.957 256 166.957C206.823 166.957 166.957 206.823 166.957 256C166.957 305.177 206.823 345.043 256 345.043Z" fill="#A2001D"/><g id="Group_2"><path id="Vector_7" d="M255.999 166.957L275.958 228.386H340.556L288.298 266.359L308.257 327.791L255.999 289.825L203.739 327.791L223.702 266.359L171.444 228.386H236.038L255.999 166.957Z" fill="#FFDA44"/><path id="Vector_8" d="M256 0C255.971 0 255.943 0.002 255.914 0.002H256.085C256.057 0.002 256.029 0 256 0Z" fill="#FFDA44"/></g><g id="Group_3"><path id="Vector_9" d="M256.086 0H255.915C185.262 0.023 121.301 28.666 74.9941 74.968H437.007C390.699 28.666 326.738 0.023 256.086 0Z" fill="#A2001D"/><path id="Vector_10" d="M74.9951 437.033C121.321 483.352 185.315 512 256 512C326.685 512 390.679 483.352 437.005 437.033H74.9951Z" fill="#A2001D"/></g><g id="Group_4"><path id="Vector_11" d="M256 27.8262L260.145 40.5802H273.555L262.706 48.4632L266.851 61.2172L256 53.3352L245.151 61.2172L249.296 48.4632L238.445 40.5802H251.855L256 27.8262Z" fill="#FFDA44"/><path id="Vector_12" d="M193.923 27.8262L198.068 40.5802H211.478L200.629 48.4632L204.774 61.2172L193.923 53.3352L183.075 61.2172L187.219 48.4632L176.368 40.5802H189.778L193.923 27.8262Z" fill="#FFDA44"/><path id="Vector_13" d="M318.077 27.8262L322.222 40.5802H335.632L324.783 48.4632L328.928 61.2172L318.077 53.3352L307.228 61.2172L311.373 48.4632L300.522 40.5802H313.932L318.077 27.8262Z" fill="#FFDA44"/><path id="Vector_14" d="M256 450.783L260.145 463.537H273.555L262.706 471.42L266.851 484.174L256 476.291L245.151 484.174L249.296 471.42L238.445 463.537H251.855L256 450.783Z" fill="#FFDA44"/><path id="Vector_15" d="M193.923 450.783L198.068 463.537H211.478L200.629 471.42L204.774 484.174L193.923 476.291L183.075 484.174L187.219 471.42L176.368 463.537H189.778L193.923 450.783Z" fill="#FFDA44"/><path id="Vector_16" d="M318.077 450.783L322.222 463.537H335.632L324.783 471.42L328.928 484.174L318.077 476.291L307.228 484.174L311.373 471.42L300.522 463.537H313.932L318.077 450.783Z" fill="#FFDA44"/><path id="Vector_17" d="M78.003 251.773C84.578 262.162 81.488 275.913 71.099 282.489C60.711 289.065 46.959 285.975 40.383 275.586C28.478 256.778 35.381 226.061 35.381 226.061C35.381 226.061 66.097 232.964 78.003 251.773Z" fill="#FFDA44"/></g><path id="Vector_18" d="M65.1461 284.215C71.293 284.215 76.2761 279.232 76.2761 273.085C76.2761 266.938 71.293 261.955 65.1461 261.955C58.9992 261.955 54.0161 266.938 54.0161 273.085C54.0161 279.232 58.9992 284.215 65.1461 284.215Z" fill="#A2001D"/></g><defs><clipPath id="clip0_1_826"><rect width="512" height="512" fill="white"/></clipPath></defs></svg>