<svg viewBox="0 0 512 512" fill="none" xmlns="http://www.w3.org/2000/svg"><g id="guernsey" clip-path="url(#clip0_1_867)"><path id="Vector" d="M256 512C397.385 512 512 397.385 512 256C512 114.615 397.385 0 256 0C114.615 0 0 114.615 0 256C0 397.385 114.615 512 256 512Z" fill="#F0F0F0"/><path id="Vector_2" d="M509.833 222.609H289.393H289.392V2.167C278.461 0.744 267.317 0 256 0C244.683 0 233.539 0.744 222.609 2.167V222.609H2.167C0.744 233.539 0 244.683 0 256C0 267.317 0.744 278.461 2.167 289.391H222.607H222.608V509.833C233.539 511.256 244.683 512 256 512C267.317 512 278.461 511.257 289.391 509.833V289.394V289.392H509.833C511.256 278.461 512 267.317 512 256C512 244.683 511.256 233.539 509.833 222.609Z" fill="#D80027"/><path id="Vector_3" d="M328.348 267.13L345.043 278.261V233.739L328.348 244.87H267.13V183.652L278.261 166.957H233.739L244.87 183.652V244.87H183.652L166.957 233.739V278.261L183.652 267.13H244.87V328.348L233.739 345.043H278.261L267.13 328.348V267.13H328.348Z" fill="#FFDA44"/></g><defs><clipPath id="clip0_1_867"><rect width="512" height="512" fill="white"/></clipPath></defs></svg>