<svg viewBox="0 0 512 512" fill="none" xmlns="http://www.w3.org/2000/svg"><g id="guinea" clip-path="url(#clip0_1_878)"><path id="Vector" d="M345.046 15.924C317.312 5.633 287.315 0 256 0C224.687 0 194.691 5.633 166.959 15.922L155.828 256L166.958 496.078C194.691 506.368 224.687 512 256 512C287.316 512 317.312 506.368 345.046 496.076L356.176 256L345.046 15.924Z" fill="#FFDA44"/><path id="Vector_2" d="M0 256C0 366.07 69.472 459.906 166.957 496.076V15.9219C69.472 52.0939 0 145.928 0 256Z" fill="#D80027"/><path id="Vector_3" d="M512 256C512 145.928 442.528 52.0939 345.043 15.9219V496.077C442.528 459.906 512 366.07 512 256Z" fill="#6DA544"/></g><defs><clipPath id="clip0_1_878"><rect width="512" height="512" fill="white"/></clipPath></defs></svg>