<svg viewBox="0 0 512 512" fill="none" xmlns="http://www.w3.org/2000/svg"><g id="guyana" clip-path="url(#clip0_1_882)"><path id="Vector" d="M256 512C397.385 512 512 397.385 512 256C512 114.615 397.385 0 256 0C114.615 0 0 114.615 0 256C0 397.385 114.615 512 256 512Z" fill="#F0F0F0"/><path id="Vector_2" d="M256 0C210.739 0 168.231 11.762 131.339 32.372V479.628C168.232 500.238 210.739 512 256 512C397.384 512 512 397.384 512 256C512 114.616 397.384 0 256 0Z" fill="#6DA544"/><path id="Vector_3" d="M132.092 31.9512C115.987 40.8762 100.949 51.4842 87.21 63.5442C88.599 62.3262 90.002 61.1222 91.416 59.9342L287.481 256L91.415 452.066C90 450.878 88.598 449.674 87.209 448.456C100.948 460.516 115.987 471.123 132.091 480.049L512 256L132.092 31.9512Z" fill="#F0F0F0"/><path id="Vector_4" d="M110.47 45.3818C102.663 50.7878 95.165 56.6048 88.02 62.8218L256 256L88.019 449.178C95.164 455.395 102.662 461.213 110.469 466.618L468.178 256L110.47 45.3818Z" fill="#FFDA44"/><path id="Vector_5" d="M91.415 59.9336C85.724 64.7156 80.232 69.7286 74.98 74.9796L233.739 256L74.98 437.02C80.232 442.272 85.723 447.286 91.415 452.066L287.481 256L91.415 59.9336Z" fill="black"/><path id="Vector_6" d="M74.98 74.9805C-24.994 174.954 -24.994 337.045 74.98 437.02C116.293 395.707 156.026 355.974 256 256L74.98 74.9805Z" fill="#D80027"/></g><defs><clipPath id="clip0_1_882"><rect width="512" height="512" fill="white"/></clipPath></defs></svg>