<svg viewBox="0 0 512 512" fill="none" xmlns="http://www.w3.org/2000/svg"><g id="hawaii"><path id="Vector" d="M256 512C397.385 512 512 397.385 512 256C512 114.615 397.385 0 256 0C114.615 0 0 114.615 0 256C0 397.385 114.615 512 256 512Z" fill="#F0F0F0"/><path id="Vector_2" d="M256 512C320.917 512 380.179 487.824 425.306 448H86.6941C131.821 487.824 191.083 512 256 512Z" fill="#D80027"/><g id="Group"><path id="Vector_3" d="M8.06494 320C13.9099 342.706 22.7959 364.19 34.2559 384H477.743C489.203 364.19 498.089 342.706 503.934 320L256 300.522L8.06494 320Z" fill="#0052B4"/><path id="Vector_4" d="M503.935 192C498.09 169.294 489.204 147.81 477.744 128L256 122.435C256 77.722 256 35.465 256 0C236.983 0 218.449 2.075 200.614 6.008C200.272 6.084 33.3909 137.718 33.3909 256C37.6579 256.742 256 278.261 256 278.261C256 278.261 256 229.5 256 192H503.935Z" fill="#0052B4"/></g><path id="Vector_5" d="M256 159.722V31.7224H174.925L200.622 6.02539C95.131 29.2914 14.076 117.615 1.67 226.783C0.58 236.373 0 246.118 0 256H129.67V204.977L181.198 256H272.783L174.924 159.722H256Z" fill="#F0F0F0"/><path id="Vector_6" d="M256.117 256L159.839 159.722H129.67V159.723L225.947 256H97.391V128H477.744C463.806 103.907 446.048 82.3032 425.307 64.0002H97.391V55.0752C71.563 75.4922 49.771 100.78 33.391 129.554V256H0C0 278.099 2.8 299.545 8.065 320H503.935C509.2 299.544 512 278.099 512 256H256.117Z" fill="#D80027"/></g></svg>