<svg viewBox="0 0 512 512" fill="none" xmlns="http://www.w3.org/2000/svg"><g id="honduras"><path id="Vector" d="M256 512C397.385 512 512 397.385 512 256C512 114.615 397.385 0 256 0C114.615 0 0 114.615 0 256C0 397.385 114.615 512 256 512Z" fill="#F0F0F0"/><g id="Group"><path id="Vector_2" d="M256 512C357.493 512 445.19 452.935 486.598 367.304H25.4021C66.8101 452.935 154.506 512 256 512Z" fill="#338AF3"/><path id="Vector_3" d="M256 0C154.506 0 66.8101 59.065 25.4021 144.696H486.597C445.19 59.065 357.493 0 256 0Z" fill="#338AF3"/><path id="Vector_4" d="M157.545 166.957L165.833 192.466H192.654L170.956 208.23L179.245 233.739L157.545 217.974L135.845 233.739L144.134 208.23L122.435 192.466H149.256L157.545 166.957Z" fill="#338AF3"/><path id="Vector_5" d="M157.545 278.261L165.833 303.771H192.654L170.956 319.535L179.245 345.043L157.545 329.278L135.845 345.043L144.134 319.535L122.435 303.771H149.256L157.545 278.261Z" fill="#338AF3"/><path id="Vector_6" d="M354.455 166.957L362.744 192.466H389.565L367.866 208.23L376.155 233.739L354.455 217.974L332.755 233.739L341.044 208.23L319.345 192.466H346.167L354.455 166.957Z" fill="#338AF3"/><path id="Vector_7" d="M354.455 278.261L362.744 303.771H389.565L367.866 319.535L376.155 345.043L354.455 329.278L332.755 345.043L341.044 319.535L319.345 303.771H346.167L354.455 278.261Z" fill="#338AF3"/><path id="Vector_8" d="M256 222.609L264.289 248.119H291.11L269.411 263.883L277.7 289.391L256 273.626L234.3 289.391L242.589 263.883L220.89 248.119H247.711L256 222.609Z" fill="#338AF3"/></g></g></svg>