<svg viewBox="0 0 512 512" fill="none" xmlns="http://www.w3.org/2000/svg"><g id="india" clip-path="url(#clip0_1_936)"><path id="Vector" d="M256 512C397.385 512 512 397.385 512 256C512 114.615 397.385 0 256 0C114.615 0 0 114.615 0 256C0 397.385 114.615 512 256 512Z" fill="#F0F0F0"/><path id="Vector_2" d="M256 0C154.506 0 66.8099 59.065 25.4019 144.696H486.597C445.19 59.065 357.493 0 256 0Z" fill="#FF9811"/><path id="Vector_3" d="M256 512C357.493 512 445.19 452.935 486.598 367.304H25.4019C66.8099 452.935 154.506 512 256 512Z" fill="#6DA544"/><path id="Vector_4" d="M256 345.043C305.177 345.043 345.043 305.177 345.043 256C345.043 206.823 305.177 166.957 256 166.957C206.823 166.957 166.957 206.823 166.957 256C166.957 305.177 206.823 345.043 256 345.043Z" fill="#0052B4"/><path id="Vector_5" d="M256 311.652C286.736 311.652 311.652 286.735 311.652 256C311.652 225.264 286.736 200.348 256 200.348C225.264 200.348 200.348 225.264 200.348 256C200.348 286.735 225.264 311.652 256 311.652Z" fill="#F0F0F0"/><path id="Vector_6" d="M256 187.326L273.169 226.264L315.473 221.663L290.337 256L315.473 290.337L273.169 285.736L256 324.674L238.831 285.736L196.527 290.336L221.663 256L196.527 221.663L238.831 226.264L256 187.326Z" fill="#0052B4"/></g><defs><clipPath id="clip0_1_936"><rect width="512" height="512" fill="white"/></clipPath></defs></svg>