<svg viewBox="0 0 512 512" fill="none" xmlns="http://www.w3.org/2000/svg"><g id="iran" clip-path="url(#clip0_1_946)"><path id="Vector" d="M256 512C397.385 512 512 397.385 512 256C512 114.615 397.385 0 256 0C114.615 0 0 114.615 0 256C0 397.385 114.615 512 256 512Z" fill="#F0F0F0"/><path id="Vector_2" d="M339.147 189.217H305.653C305.93 192.898 306.087 196.612 306.087 200.347C306.087 225.111 299.897 249.114 289.106 266.2C285.777 271.47 280.183 278.912 272.695 283.932V189.216H239.304V283.932C231.817 278.912 226.222 271.471 222.893 266.2C212.101 249.114 205.912 225.111 205.912 200.347C205.912 196.612 206.07 192.897 206.346 189.217H172.852C172.637 192.88 172.52 196.59 172.52 200.347C172.52 269.003 209.188 322.782 255.998 322.782C302.808 322.782 339.476 269.003 339.476 200.347C339.478 196.59 339.361 192.88 339.147 189.217Z" fill="#D80027"/><path id="Vector_3" d="M105.739 122.435H139.13V144.696H172.521V122.435H205.912V144.696H239.303V122.435H272.694V144.696H306.085V122.435H339.476V144.696H372.867V122.435H406.258V144.696H486.595C445.19 59.065 357.493 0 256 0C154.507 0 66.8103 59.065 25.4023 144.696H105.739V122.435Z" fill="#6DA544"/><path id="Vector_4" d="M406.261 367.304V389.565H372.87V367.304H339.479V389.565H306.088V367.304H272.697V389.565H239.306V367.304H205.915V389.565H172.524V367.304H139.13V389.565H105.739V367.304H25.4023C66.8103 452.935 154.506 512 256 512C357.494 512 445.19 452.935 486.598 367.304H406.261Z" fill="#D80027"/></g><defs><clipPath id="clip0_1_946"><rect width="512" height="512" fill="white"/></clipPath></defs></svg>