<svg viewBox="0 0 512 512" fill="none" xmlns="http://www.w3.org/2000/svg"><g id="israel"><path id="Vector" d="M256 512C397.385 512 512 397.385 512 256C512 114.615 397.385 0 256 0C114.615 0 0 114.615 0 256C0 397.385 114.615 512 256 512Z" fill="#F0F0F0"/><g id="Group"><path id="Vector_2" d="M352.393 200.348H288.13L256 144.696L223.871 200.348H159.607L191.741 256L159.607 311.652H223.871L256 367.304L288.13 311.652H352.393L320.259 256L352.393 200.348ZM295.475 256L275.739 290.188H236.264L216.525 256L236.263 221.812H275.738L295.475 256ZM256 187.623L263.346 200.347H248.656L256 187.623ZM196.786 221.812H211.478L204.132 234.536L196.786 221.812ZM196.786 290.188L204.133 277.464L211.479 290.188H196.786ZM256 324.376L248.655 311.652H263.346L256 324.376ZM315.214 290.188H300.522L307.869 277.464L315.214 290.188ZM300.522 221.812H315.214L307.868 234.536L300.522 221.812Z" fill="#0052B4"/><path id="Vector_3" d="M415.357 55.6523H96.643C73.28 74.2603 53.244 96.8623 37.574 122.435H474.426C458.755 96.8633 438.719 74.2603 415.357 55.6523Z" fill="#0052B4"/><path id="Vector_4" d="M96.643 456.348H415.356C438.719 437.74 458.755 415.138 474.425 389.565H37.574C53.245 415.137 73.281 437.74 96.643 456.348Z" fill="#0052B4"/></g></g></svg>