<svg viewBox="0 0 512 512" fill="none" xmlns="http://www.w3.org/2000/svg"><g id="jordan" clip-path="url(#clip0_1_994)"><path id="Vector" d="M256 512C397.385 512 512 397.385 512 256C512 114.615 397.385 0 256 0C114.615 0 0 114.615 0 256C0 397.385 114.615 512 256 512Z" fill="#F0F0F0"/><path id="Vector_2" d="M155.826 166.957H496.076C459.906 69.472 366.07 0 256 0C185.306 0 121.313 28.659 74.9893 74.989L155.826 166.957Z" fill="black"/><path id="Vector_3" d="M155.826 345.043H496.076C459.906 442.528 366.07 512 256 512C185.306 512 121.313 483.341 74.9893 437.011L155.826 345.043Z" fill="#6DA544"/><path id="Vector_4" d="M74.9795 74.9805C-24.9945 174.954 -24.9945 337.045 74.9795 437.02C116.293 395.707 156.026 355.974 256 256L74.9795 74.9805Z" fill="#D80027"/><path id="Vector_5" d="M101.605 200.348L115.654 229.727L147.383 222.394L133.173 251.695L158.688 271.929L126.921 279.088L127.009 311.652L101.605 291.279L76.2005 311.652L76.2895 279.088L44.5225 271.929L70.0365 251.695L55.8285 222.394L87.5555 229.727L101.605 200.348Z" fill="#F0F0F0"/></g><defs><clipPath id="clip0_1_994"><rect width="512" height="512" fill="white"/></clipPath></defs></svg>