<svg viewBox="0 0 512 512" fill="none" xmlns="http://www.w3.org/2000/svg"><g id="kosovo"><g id="kosovo_2"><circle id="Ellipse 1" cx="256" cy="256" r="256" fill="#0444A4"/><path id="path1" fill-rule="evenodd" clip-rule="evenodd" d="M235.386 172.864C235.195 173.052 235.035 173.773 235.032 174.461C235.019 176.522 234.422 177.036 232.457 176.667C229.852 176.179 225.974 177.285 223.938 179.097C222.143 180.698 219.692 181.773 217.847 181.773C217.271 181.773 215.855 182.23 214.701 182.788C213.177 183.523 212.088 183.723 210.73 183.516C204.348 182.537 204.982 182.454 204.982 184.271C204.982 188.175 206.107 189.996 208.527 190.008C210.752 190.019 211.752 190.882 213.219 194.048C213.982 195.697 215.327 198.026 216.209 199.226C220.267 204.747 220.554 208.417 216.985 209.183C214.71 209.671 214.519 209.882 215.438 210.899C215.89 211.398 216.309 212.607 216.367 213.586C216.476 215.38 216.229 215.759 213.76 217.589C212.861 218.255 212.587 218.931 212.547 220.587C212.484 223.196 211.609 223.548 209.561 221.789C206.921 219.517 203.734 221.051 202.055 225.407C199.794 231.268 198.208 232.619 196.303 230.302C194.792 228.465 194.224 228.568 193.03 230.89C192.592 231.74 191.503 233.294 190.608 234.342C188.084 237.299 188.343 238.289 192.645 242.14C196.813 245.871 197.369 247.636 194.558 248.215C192.102 248.721 190.11 250.014 187.116 253.044C183.908 256.294 182.869 256.572 179.897 254.98C177.495 253.691 176.896 253.741 172.824 255.572C169.799 256.93 168.877 257.12 165.712 257.042C160.194 256.904 159.862 257.198 160.013 262.062C160.238 269.323 152.847 273.78 146.648 270.124C145.637 269.526 144.005 269.031 143.019 269.021C142.035 269.012 139.593 268.353 137.594 267.556C129.068 264.156 122.748 267.375 122.577 275.204C122.539 276.948 127.902 281.34 131.92 282.856C136.288 284.503 137.016 286.56 134.518 290.195C133.627 291.491 132.639 293.338 132.323 294.298C132.007 295.259 131.208 296.551 130.549 297.171C129.035 298.594 129.044 300.244 130.576 302.734C132.083 305.181 132.076 305.936 130.527 307.777C128.412 310.292 130.921 313.871 135.796 315.288C139.126 316.256 140.502 317.476 140.502 319.463C140.502 320.416 140.925 321.287 141.724 321.983C143.277 323.333 145.432 326.985 145.323 328.078C145.158 329.719 145.368 330.153 146.601 330.716C149.244 331.919 150.374 335.837 148.502 337.31C146.855 338.604 146.979 339.549 148.947 340.767C152.033 342.673 153.335 346.038 151.861 348.289C149.829 351.39 151.902 355.125 155.414 354.687C156.919 354.498 158.115 354.622 158.88 355.045C159.935 355.629 160.249 355.549 162.152 354.208C164.933 352.247 166.591 352.695 167.629 355.689C168.272 357.539 168.546 357.774 170.689 358.324C171.981 358.654 173.868 359.633 174.877 360.499C175.888 361.363 177.651 362.354 178.795 362.703C181.633 363.565 186.018 367.424 190.569 373.068C192.808 375.844 193.447 377.378 194.785 383.199C195.09 384.527 195.515 385.727 195.729 385.866C195.944 386.006 196.421 386.992 196.793 388.06C197.164 389.125 197.957 390.738 198.558 391.642C199.84 393.574 200.038 397.297 198.937 398.754C197.708 400.379 199.034 405.758 200.94 406.877C201.993 407.494 204.137 412.647 204.709 415.929C204.871 416.861 205.653 418.869 206.447 420.394C208.66 424.648 207.747 430.011 204.677 430.781C204.083 430.93 203.22 431.469 202.761 431.977C202.3 432.487 201.628 432.903 201.271 432.903C200.454 432.903 200.457 433.206 201.314 436.498C203.288 444.071 207.336 447.441 210.105 443.811C211.619 441.825 212.834 441.671 215.761 443.085C219.388 444.837 220.71 444.218 226.426 438.098C230.3 433.947 230.676 432.967 229.327 430.556C228.781 429.581 228.185 427.91 228.003 426.843C227.822 425.777 227.366 423.829 226.992 422.514C225.709 417.999 226.077 413.257 228.011 409.418C228.944 407.566 229.707 405.758 229.707 405.397C229.707 403.977 231.949 402.477 234.598 402.123C236.225 401.905 237.839 401.308 238.844 400.551C240.224 399.512 240.816 399.369 242.772 399.601L245.076 399.874L248.741 396.114C252.705 392.05 252.313 392.228 260.643 390.738C265.261 389.912 267.578 388.459 273.824 382.473C277.776 378.686 278.784 378.116 281.491 378.132C285.794 378.157 288.853 380.924 288.853 384.792C288.853 386.992 289.456 387.896 291.762 389.153C293.919 390.327 294.654 391.787 294.663 394.908C294.676 398.95 296.539 399.532 303.774 397.757C307.979 396.724 308.012 396.686 307.057 393.87C306.025 390.836 306.113 389.311 307.456 386.809C308.09 385.63 309.404 383.17 310.377 381.342C315.439 371.83 318.907 369.088 323.726 370.79C327.428 372.097 329.231 371.033 326.426 369.196C325.759 368.76 325.213 367.994 325.213 367.496C325.213 366.933 325.674 366.474 326.426 366.285C327.092 366.118 327.638 365.768 327.638 365.506C327.638 365.245 328.094 365.031 328.653 365.031C329.212 365.031 330.32 364.568 331.117 363.999C332.78 362.816 333.59 363.066 336.31 365.61C337.401 366.628 337.82 367.394 337.65 368.048C337.054 370.329 338.939 371.165 340.789 369.441C341.949 368.36 344.522 367.778 346.239 368.21C348.54 368.787 349.455 368.097 349.455 365.784C349.455 361.646 347.234 358.015 345.003 358.505C343.536 358.827 342.181 357.917 342.181 356.61C342.181 356.207 341.943 355.729 341.651 355.549C340.892 355.079 341.758 349.491 342.791 348.184C343.055 347.85 344.035 347.577 344.972 347.577C346.288 347.577 347.034 347.194 348.273 345.881C349.692 344.376 350.15 344.184 352.331 344.184C354.012 344.184 354.787 343.988 354.787 343.559C354.787 343.216 355.223 342.08 355.757 341.032C356.29 339.986 356.726 338.683 356.726 338.136C356.726 337.588 356.29 335.946 355.757 334.488C354.142 330.071 354.954 328.11 359.085 326.458C361 325.692 363.028 322.7 363.028 320.637C363.028 320.187 363.836 319.548 364.962 319.107C366.846 318.366 366.888 318.299 366.598 316.481C366.222 314.136 366.915 313.244 369.426 312.843C373.33 312.218 374.267 307.338 371.028 304.495C369.381 303.05 368.782 301.521 369.862 301.521C371.449 301.521 373.21 299.482 373.21 297.641C373.21 294.848 373.951 293.28 375.271 293.28C378.19 293.28 379.417 290.847 377.103 289.65C375.545 288.846 374.664 287.573 374.664 286.13C374.664 284.579 372.781 282.971 371.331 283.281C370.63 283.432 368.531 283.802 366.665 284.106C362.356 284.806 361.779 285.131 361.082 287.241C360.361 289.427 359.729 289.204 358.195 286.213C357.013 283.911 356.88 283.817 354.544 283.583C351.069 283.236 348.861 281.504 349.249 279.43C349.505 278.067 349.393 277.854 348.264 277.571C347.563 277.395 346.875 276.956 346.737 276.593C346.526 276.044 346.098 276.059 344.171 276.674L341.86 277.413L337.916 275.334C334.59 273.58 333.855 273.354 333.216 273.884C332.58 274.412 332.277 274.345 331.349 273.473C329.979 272.184 328.257 272.159 326.669 273.403C323.357 275.992 319.737 272.842 322.074 269.405C322.745 268.415 323.504 266.503 323.76 265.158C324.014 263.811 324.417 262.335 324.653 261.875C324.89 261.416 325.202 259.668 325.347 257.992C325.492 256.314 325.864 254.636 326.173 254.264C327.961 252.109 326.649 250.871 322.304 250.617C317.756 250.348 316.449 249.825 315.243 247.784C313.97 245.629 312.718 245.123 308.487 245.054C304.157 244.985 303.447 244.709 302.194 242.617C301.717 241.816 300.441 240.357 299.36 239.375L297.398 237.586L297.959 233.314C299.106 224.592 296.372 220.329 292.279 224.461C288.881 227.893 284.859 223.368 285.084 216.367C285.141 214.606 284.939 213.099 284.59 212.68C284.238 212.255 284.122 211.365 284.304 210.465C284.877 207.591 284.271 206.65 281.217 205.684C279.314 205.081 278.279 204.459 277.954 203.72C277.174 201.939 276.204 201.968 274.679 203.818C272.943 205.924 271.661 205.991 269.443 204.094C268.297 203.115 267.224 202.652 266.068 202.638C265.134 202.627 263.656 202.182 262.783 201.648C261.91 201.116 260.477 200.68 259.599 200.68C258.498 200.68 257.672 200.303 256.946 199.469C256.367 198.803 255.495 198.257 255.009 198.257C254.482 198.257 253.685 197.472 253.035 196.317C252.164 194.767 251.67 194.378 250.57 194.378C249.567 194.378 248.807 193.897 247.775 192.612C246.448 190.956 246.161 190.834 243.28 190.691C239.002 190.479 237.69 188.641 240.971 187.456C241.45 187.281 241.459 187.02 241.012 186.263C240.128 184.758 241.125 184.198 244.685 184.198H247.835L246.343 182.622C245.522 181.755 244.498 180.282 244.064 179.349C241.729 174.311 237.27 170.977 235.386 172.864Z" fill="#F3D024"/><path id="path2" fill-rule="evenodd" clip-rule="evenodd" d="M216.046 82.9948C214.726 87.4776 212.17 95.4263 211.837 96.0781C211.601 96.541 211.407 97.3345 211.407 97.8428C211.407 99.2336 210.594 99.357 201.428 99.357C192.441 99.357 191.403 99.6675 194.422 101.45C195.212 101.917 196.14 102.571 196.483 102.905C196.826 103.237 198.85 104.751 200.984 106.267C203.117 107.785 205.381 109.437 206.016 109.938L207.171 110.85L206.104 114.192C205.515 116.032 204.862 117.972 204.651 118.506C204.003 120.146 201.712 127.241 201.712 127.611C201.712 128.392 203.128 127.869 205.147 126.341C212.291 120.934 216.104 118.283 216.752 118.274C217.159 118.268 220.481 120.445 224.134 123.112C233.414 129.883 233.011 130.591 228.192 116.006C226.417 110.636 226.407 110.743 228.86 109.041C229.794 108.395 230.776 107.687 231.043 107.467C231.31 107.248 232.728 106.193 234.193 105.125C235.66 104.056 237.225 102.883 237.67 102.518C238.116 102.153 238.933 101.612 239.487 101.316C242.325 99.7982 240.751 99.3825 231.655 99.2463L222.813 99.1138L220.474 91.8423C217.322 82.0416 216.696 80.7889 216.046 82.9948ZM280.019 82.9531C279.892 83.3089 278.891 86.4354 277.798 89.9032C276.705 93.3692 275.565 96.9151 275.267 97.7811L274.722 99.357H265.851C256.71 99.357 255.083 99.7619 257.988 101.316C258.542 101.612 259.359 102.153 259.805 102.518C260.806 103.339 264.867 106.305 268.085 108.568C271.266 110.806 271.251 110.16 268.321 118.991C264.722 129.841 264.506 129.56 272.141 123.984C275.135 121.798 278.319 119.51 279.218 118.9L280.852 117.791L282.611 119.156C286.602 122.255 294.803 127.96 295.266 127.96C295.925 127.96 295.9 127.628 295.043 125.051C290.135 110.316 290.273 110.852 291.232 110.164C291.724 109.809 292.455 109.245 292.855 108.911C293.254 108.577 295.11 107.222 296.976 105.9C298.843 104.579 300.649 103.228 300.992 102.899C301.336 102.569 302.263 101.917 303.053 101.45C306.073 99.6675 305.034 99.357 296.047 99.357C287.237 99.357 286.068 99.2082 286.068 98.0952C286.068 97.3962 282.922 87.2397 282.179 85.5385C281.945 85.0065 281.689 84.1514 281.609 83.6412C281.431 82.5191 280.344 82.0489 280.019 82.9531ZM152.345 90.0103C152.098 90.4842 150.987 93.7087 149.874 97.1747C148.761 100.641 147.618 104.078 147.331 104.811L146.81 106.144H137.9C128.539 106.144 127.933 106.309 130.565 108.148C131.433 108.753 132.25 109.379 132.385 109.537C132.517 109.697 134.371 111.06 136.504 112.567C138.638 114.074 141.02 115.828 141.799 116.465L143.215 117.626L141.858 121.945C139.217 130.358 138.636 132.091 138.162 132.949C137.118 134.845 138.625 135.286 140.586 133.656C141.308 133.056 142.43 132.185 143.08 131.72C143.73 131.255 146.181 129.456 148.529 127.72C150.877 125.986 152.883 124.567 152.988 124.567C153.093 124.567 155.1 125.986 157.447 127.72C159.795 129.456 162.246 131.255 162.896 131.72C163.546 132.185 164.668 133.056 165.391 133.656C167.204 135.163 169.134 134.774 167.898 133.151C167.653 132.83 166.738 130.275 165.864 127.475C164.989 124.676 163.973 121.449 163.6 120.307C163.23 119.165 162.927 118.04 162.927 117.805C162.927 117.406 164.862 115.894 173.472 109.564C178.18 106.102 178.245 106.144 168.076 106.144H159.167L158.638 104.811C158.35 104.078 157.108 100.372 155.882 96.5774C153.571 89.4275 153.103 88.556 152.345 90.0103ZM344.126 89.4656C343.979 89.7053 343.049 92.4124 342.058 95.4771C341.066 98.5437 340.091 101.49 339.892 102.022C339.69 102.556 339.329 103.647 339.086 104.446L338.646 105.9L329.944 106.035C319.648 106.191 319.492 106.273 323.706 109.343C325.501 110.65 328.753 113.029 330.932 114.628L334.895 117.537L332.126 125.943C329.25 134.678 329.183 136.234 331.785 133.924C333.259 132.617 343.726 125.033 344.433 124.763C344.748 124.641 345.435 124.937 345.958 125.42C346.482 125.903 348.438 127.375 350.304 128.692C352.171 130.008 354.754 131.909 356.045 132.915C360.426 136.335 360.428 136.317 357.093 126.154C355.626 121.687 354.426 117.883 354.426 117.7C354.426 117.519 356.554 115.814 359.152 113.913C361.752 112.01 364.244 110.156 364.689 109.791C365.134 109.426 366.007 108.86 366.628 108.533C367.77 107.93 368.464 107.171 368.478 106.507C368.482 106.307 364.475 106.144 359.575 106.144H350.666L350.148 104.811C349.863 104.078 348.71 100.577 347.583 97.0331C345.546 90.624 344.634 88.6305 344.126 89.4656ZM90.299 106.507C90.0176 107.24 89.5546 108.604 89.2677 109.537C88.9827 110.47 88.0041 113.524 87.0963 116.324L85.4459 121.415L76.4332 121.547C66.1733 121.696 65.8228 121.871 69.9642 124.736C73.1633 126.949 78.4141 130.769 80.2315 132.203L81.615 133.296L79.3291 140.446C78.0709 144.377 76.8018 148.09 76.5077 148.696C75.1768 151.43 77.0669 150.628 84.1223 145.462L91.3284 140.186L95.0087 142.879C97.0331 144.359 100.256 146.735 102.168 148.159C104.081 149.582 105.773 150.746 105.926 150.746C106.636 150.746 105.532 146.354 103.302 140.322C103.106 139.789 102.681 138.48 102.36 137.414C102.04 136.346 101.527 134.965 101.22 134.34C100.768 133.423 100.8 133.129 101.391 132.799C101.794 132.574 103.858 131.108 105.98 129.543C108.103 127.978 110.931 125.945 112.264 125.026C116.899 121.831 116.685 121.711 105.949 121.547L97.2346 121.415L94.5747 113.295C91.8931 105.114 91.2322 104.065 90.299 106.507ZM405.451 105.993C405.215 106.476 404.52 108.508 403.906 110.507C403.293 112.507 402.621 114.579 402.412 115.113C402.203 115.647 401.664 117.337 401.212 118.869L400.391 121.658H391.549C386.685 121.658 382.575 121.789 382.417 121.947C382.017 122.346 382.542 123.597 383.11 123.597C383.363 123.597 384.376 124.214 385.36 124.968C388.935 127.709 395.271 132.345 396.05 132.786C396.716 133.165 396.747 133.401 396.241 134.229C395.907 134.774 395.634 135.553 395.634 135.96C395.634 136.366 395.44 137.078 395.202 137.541C393.788 140.293 390.868 150.746 391.513 150.746C391.767 150.746 396.677 147.331 397.089 146.866C397.221 146.715 398.859 145.53 400.725 144.231C402.592 142.933 404.554 141.484 405.088 141.012C406.029 140.181 406.169 140.235 409.694 142.795C411.693 144.246 414.611 146.358 416.178 147.485C417.745 148.611 419.442 149.836 419.949 150.208C420.455 150.579 421.011 150.74 421.182 150.57C421.481 150.27 417.367 136.853 416.445 135.117C416.198 134.654 416.004 134.001 416.015 133.663C416.031 133.131 424.648 126.486 428.658 123.913C431.709 121.956 430.71 121.658 421.125 121.658H412.196L411.403 119.113C410.967 117.713 410.404 116.188 410.152 115.725C409.9 115.262 409.694 114.55 409.694 114.143C409.694 113.737 409.493 113.023 409.25 112.56C409.005 112.097 408.393 110.314 407.886 108.598C406.924 105.327 406.172 104.522 405.451 105.993Z" fill="white"/><path id="path3" fill-rule="evenodd" clip-rule="evenodd" d="M231.204 172.519C230.678 173.101 230.442 173.958 230.572 174.823C230.776 176.179 230.779 176.175 230.85 174.65C230.897 173.657 231.31 172.831 232.001 172.348C232.593 171.932 232.846 171.593 232.561 171.593C232.276 171.593 231.665 172.01 231.204 172.519ZM235.044 172.159C235.578 172.453 236.46 173.047 237.007 173.477C237.553 173.908 237.386 173.659 236.635 172.925C235.885 172.192 235.003 171.6 234.672 171.607C234.343 171.616 234.511 171.863 235.044 172.159ZM223.408 176.44C222.798 176.704 222.707 176.858 223.167 176.858C223.566 176.858 224.33 176.669 224.862 176.44C225.474 176.179 225.563 176.024 225.106 176.024C224.706 176.024 223.942 176.212 223.408 176.44ZM219.968 178.408C219.111 179.265 217.475 180.17 216.098 180.547C214.786 180.907 214.04 181.221 214.439 181.243C216.191 181.341 218.729 180.199 220.253 178.626C221.16 177.691 221.801 176.925 221.676 176.925C221.553 176.925 220.783 177.593 219.968 178.408ZM200.675 183.025C200.274 184.069 200.317 186.255 200.751 186.938C200.947 187.247 201.107 186.319 201.107 184.879C201.107 181.982 201.096 181.929 200.675 183.025ZM237.719 185.531C237.722 186.101 237.846 186.19 238.093 185.802C238.294 185.486 239.654 185.144 241.116 185.044L243.77 184.861L240.74 184.772C238.142 184.696 237.711 184.803 237.719 185.531ZM201.79 189.404C202.403 190.598 204.023 191.183 205.786 190.849C206.559 190.702 206.347 190.611 205.127 190.566C203.958 190.524 202.961 190.117 202.278 189.409L201.231 188.318L201.79 189.404ZM236.103 189.536C236.419 189.87 237.882 190.173 239.358 190.212C241.105 190.253 241.777 190.13 241.286 189.856C240.871 189.623 239.843 189.538 239.001 189.667C238.158 189.794 237.032 189.68 236.499 189.413C235.727 189.026 235.647 189.051 236.103 189.536ZM244.945 193.046C245.297 193.512 246.201 193.894 246.955 193.894C247.817 193.894 248.6 194.291 249.075 194.972C249.491 195.564 249.831 195.816 249.831 195.531C249.831 194.638 248.109 193.409 246.86 193.409C246.201 193.409 245.355 193.137 244.981 192.802C244.404 192.287 244.398 192.323 244.945 193.046ZM253.315 198.985C253.894 199.651 254.444 200.196 254.535 200.196C254.626 200.196 254.344 199.651 253.907 198.985C253.471 198.318 252.921 197.772 252.687 197.772C252.452 197.772 252.736 198.318 253.315 198.985ZM262.297 202.106C263.42 202.289 264.74 202.752 265.231 203.135C265.719 203.518 265.606 203.342 264.978 202.741C264.179 201.979 263.299 201.668 262.046 201.712L260.254 201.772L262.297 202.106ZM215.036 206.015C215.036 206.948 215.136 207.329 215.26 206.863C215.381 206.396 215.381 205.632 215.26 205.165C215.136 204.698 215.036 205.081 215.036 206.015ZM281.32 209.056C281.556 211.055 281.566 211.064 281.731 209.468C281.823 208.567 281.714 207.645 281.487 207.42C281.262 207.193 281.186 207.93 281.32 209.056ZM212.743 208.306C211.943 208.42 211.107 208.687 210.886 208.901C210.664 209.116 211.382 209.127 212.48 208.927C214.109 208.629 216.146 207.779 214.642 208.026C214.397 208.066 213.542 208.192 212.743 208.306ZM211.167 211.142C212.48 212.701 212.286 215.401 210.804 216.195C210.138 216.551 209.684 216.932 209.793 217.043C209.902 217.152 210.557 216.872 211.247 216.42C212.927 215.32 213.016 212.418 211.411 211.058C210.319 210.136 210.319 210.136 211.167 211.142ZM281.941 218.134C281.941 219.067 282.041 219.448 282.163 218.982C282.284 218.515 282.284 217.753 282.163 217.286C282.041 216.819 281.941 217.201 281.941 218.134ZM201.472 220.18C200.871 220.47 200.381 220.895 200.381 221.128C200.381 221.36 200.926 221.193 201.592 220.756C203.371 219.592 203.308 219.294 201.472 220.18ZM198.779 222.951C198.327 223.717 197.957 224.528 197.959 224.753C197.959 224.979 198.407 224.43 198.954 223.533C199.5 222.636 199.871 221.825 199.774 221.73C199.68 221.636 199.232 222.184 198.779 222.951ZM289.518 222.526L288.372 223.524L289.707 222.713C290.952 221.954 291.126 221.954 292.372 222.713L293.706 223.524L292.561 222.526C291.933 221.977 291.246 221.527 291.039 221.527C290.832 221.527 290.148 221.977 289.518 222.526ZM283.817 223.432C285.208 225.618 286.373 226.059 287.697 224.906L288.857 223.895L287.528 224.704C286.219 225.502 286.172 225.489 284.632 223.884C283.581 222.789 283.314 222.64 283.817 223.432ZM294.805 228.944C295.041 234.189 295.264 234.846 295.33 230.496C295.362 228.363 295.221 226.357 295.017 226.035C294.814 225.714 294.718 227.023 294.805 228.944ZM189.725 228.79C189.186 229.329 188.759 230.042 188.777 230.376C188.795 230.709 189.042 230.503 189.324 229.919C190.072 228.37 190.932 228.234 192.472 229.42C193.449 230.173 193.641 230.226 193.147 229.608C191.846 227.974 190.793 227.722 189.725 228.79ZM186.083 234.127C185.32 234.924 184.788 235.654 184.903 235.749C185.015 235.843 185.731 235.191 186.49 234.3C188.205 232.286 187.951 232.179 186.083 234.127ZM184.861 238.97C184.857 239.109 186.604 240.865 188.739 242.871C190.876 244.878 192.626 246.405 192.63 246.265C192.632 246.125 190.887 244.369 188.75 242.363C186.615 240.357 184.865 238.83 184.861 238.97ZM300.25 244.291C300.651 244.562 301.396 244.787 301.908 244.79C303.148 244.801 302.761 244.524 300.978 244.124C299.916 243.886 299.72 243.932 300.25 244.291ZM303.765 244.162C304.231 244.286 304.996 244.286 305.462 244.162C305.929 244.041 305.548 243.941 304.615 243.941C303.681 243.941 303.298 244.041 303.765 244.162ZM318.773 250.09C322.636 250.384 323.266 250.669 323.66 252.313C323.876 253.209 323.898 253.202 323.951 252.22C324.045 250.439 322.273 249.636 318.444 249.727L315.038 249.807L318.773 250.09ZM183.187 252.26C181.348 254.506 179.053 255.802 177.987 255.198C177.49 254.916 177.477 254.972 177.931 255.463C178.857 256.463 181.188 255.212 183.463 252.494C184.552 251.194 185.328 250.132 185.186 250.132C185.046 250.132 184.146 251.089 183.187 252.26ZM171.945 253.411C171.636 253.607 172.324 253.767 173.474 253.767C174.623 253.767 175.311 253.607 175.002 253.411C174.695 253.215 174.007 253.055 173.474 253.055C172.94 253.055 172.252 253.215 171.945 253.411ZM157.888 256.32C157.582 256.516 158.564 256.697 160.069 256.721C161.972 256.753 162.438 256.657 161.596 256.407C159.964 255.922 158.562 255.889 157.888 256.32ZM164.505 256.434C163.506 256.753 163.464 256.83 164.263 256.862C164.795 256.886 165.559 256.692 165.959 256.434C166.809 255.886 166.218 255.886 164.505 256.434ZM322.061 258.714C321.93 260.368 322.001 261.545 322.217 261.329C322.431 261.113 322.536 259.758 322.451 258.32L322.295 255.706L322.061 258.714ZM155.795 257.856C155.519 258.373 155.319 259.408 155.348 260.16C155.399 261.391 155.437 261.356 155.741 259.811C155.926 258.869 156.24 257.832 156.441 257.509C156.641 257.184 156.69 256.919 156.55 256.919C156.411 256.919 156.071 257.34 155.795 257.856ZM155.766 263.805C155.637 265.058 155.712 265.906 155.931 265.686C156.149 265.468 156.254 264.441 156.165 263.406L156 261.525L155.766 263.805ZM121.021 267.785C120.273 268.43 119.77 269.034 119.902 269.129C120.035 269.223 120.772 268.697 121.538 267.958C123.254 266.305 122.884 266.182 121.021 267.785ZM318.506 269.926C316.251 272.417 319.847 274.87 323.052 273.027C325.311 271.727 326.275 271.678 327.604 272.796C328.611 273.644 328.611 273.644 327.689 272.553C326.531 271.186 325.421 271.178 323.085 272.522C319.975 274.312 316.828 272.317 318.991 269.926C319.432 269.437 319.684 269.04 319.552 269.04C319.417 269.04 318.947 269.437 318.506 269.926ZM119.474 270.576C119.443 271.02 119.292 271.783 119.138 272.271C118.875 273.114 118.889 273.114 119.414 272.297C119.719 271.821 119.87 271.057 119.748 270.599C119.552 269.849 119.525 269.846 119.474 270.576ZM329.278 273.281C328.679 274.045 328.695 274.065 329.438 273.482C329.919 273.107 330.727 272.969 331.377 273.152C332.243 273.395 332.33 273.354 331.763 272.956C330.718 272.224 330.035 272.313 329.278 273.281ZM118.561 274.857C118.561 275.79 118.661 276.171 118.782 275.705C118.904 275.238 118.904 274.476 118.782 274.009C118.661 273.542 118.561 273.924 118.561 274.857ZM342.187 275.672C342.72 275.819 343.336 276.186 343.557 276.489C343.821 276.852 343.892 276.792 343.761 276.311C343.654 275.912 343.036 275.543 342.392 275.494C341.466 275.423 341.422 275.461 342.187 275.672ZM337.263 276.426C337.571 276.62 338.26 276.781 338.793 276.781C339.327 276.781 340.015 276.62 340.322 276.426C340.631 276.229 339.943 276.068 338.793 276.068C337.644 276.068 336.956 276.229 337.263 276.426ZM120.63 278.735C121.671 279.801 122.633 280.674 122.766 280.674C122.898 280.674 122.156 279.801 121.115 278.735C120.073 277.669 119.113 276.796 118.978 276.796C118.846 276.796 119.588 277.669 120.63 278.735ZM345.27 277.315C346.266 277.715 346.379 278.009 346.146 279.588L345.878 281.402L346.403 279.835C346.987 278.089 346.337 276.77 344.916 276.827C344.405 276.847 344.531 277.019 345.27 277.315ZM366.777 282.537C366.396 282.778 366.795 282.916 367.819 282.893C368.734 282.873 369.381 282.693 369.259 282.491C368.967 282.016 367.56 282.039 366.777 282.537ZM361.821 283.583L359.64 283.922L361.579 283.96C362.645 283.982 363.954 283.811 364.488 283.583C365.612 283.1 364.925 283.1 361.821 283.583ZM371.55 286.856C371.532 287.188 371.899 287.789 372.366 288.189C375.381 290.774 375.434 290.849 374.891 291.864C374.601 292.405 373.887 293.042 373.304 293.276C372.525 293.588 372.46 293.71 373.057 293.734C375.668 293.832 376.189 289.963 373.718 288.837C373.096 288.552 372.36 287.855 372.084 287.285C371.808 286.716 371.569 286.522 371.55 286.856ZM127.864 294.07C127.682 294.836 126.963 296.116 126.264 296.915L124.993 298.369L126.52 296.991C127.361 296.234 128.16 295.034 128.296 294.326C128.635 292.561 128.271 292.347 127.864 294.07ZM370.051 297.256C369.922 298.511 369.996 299.357 370.216 299.139C370.434 298.919 370.539 297.893 370.45 296.858L370.285 294.976L370.051 297.256ZM126.255 303.068C126.567 303.652 126.992 304.689 127.199 305.372C127.45 306.196 127.59 306.319 127.617 305.738C127.66 304.847 126.379 302.006 125.934 302.006C125.798 302.006 125.941 302.483 126.255 303.068ZM366.67 303.128C366.67 303.211 367.378 303.919 368.244 304.704L369.82 306.127L368.397 304.551C367.07 303.082 366.67 302.752 366.67 303.128ZM125.99 311.459C126.963 313.168 128.645 315.096 129.16 315.096C129.36 315.096 128.939 314.495 128.223 313.762C127.508 313.03 126.526 311.884 126.043 311.218C125.171 310.018 125.171 310.021 125.99 311.459ZM366.1 313.023C365.121 313.126 364.041 313.58 363.7 314.032C363.175 314.727 363.184 314.76 363.76 314.246C364.134 313.914 365.147 313.642 366.011 313.642C366.875 313.642 367.716 313.424 367.881 313.157C368.046 312.89 368.113 312.709 368.032 312.754C367.948 312.798 367.08 312.919 366.1 313.023ZM363.371 317.277C363.438 317.81 363.306 318.575 363.073 318.974C362.754 319.528 362.855 319.512 363.502 318.903C364.179 318.268 364.239 317.925 363.8 317.208C363.275 316.349 363.255 316.352 363.371 317.277ZM135.98 319.521C135.927 320.69 136.187 321.503 136.749 321.945C137.488 322.524 137.525 322.516 137.031 321.881C136.72 321.48 136.374 320.389 136.261 319.457L136.056 317.761L135.98 319.521ZM352.396 328.778C351.98 329.37 351.666 330.516 351.697 331.324C351.746 332.651 351.788 332.609 352.118 330.892C352.32 329.846 352.881 328.7 353.367 328.346C353.852 327.99 354.003 327.7 353.699 327.7C353.398 327.7 352.81 328.185 352.396 328.778ZM145.168 335.24C145.137 335.787 144.896 336.497 144.629 336.816C144.364 337.137 144.493 337.098 144.918 336.729C145.343 336.359 145.586 335.649 145.457 335.151C145.248 334.334 145.219 334.343 145.168 335.24ZM143.173 339.972C143.173 340.084 144.101 340.789 145.234 341.535C146.367 342.283 147.038 342.584 146.726 342.207C146.123 341.479 143.173 339.621 143.173 339.972ZM348.247 344.669L346.065 345.008L348.004 345.073C349.071 345.11 350.272 344.926 350.671 344.669C351.07 344.411 351.179 344.227 350.912 344.264C350.647 344.3 349.447 344.482 348.247 344.669ZM338.617 350.326C338.581 350.903 338.425 351.777 338.272 352.265C338.007 353.106 338.022 353.108 338.546 352.291C338.85 351.817 339.006 350.943 338.891 350.351C338.683 349.275 338.683 349.275 338.617 350.326ZM159.657 353.919C159.087 354.319 159.167 354.362 160.02 354.122C161.516 353.701 163.043 354.26 163.088 355.246C163.114 355.776 163.214 355.844 163.377 355.439C164.002 353.883 161.291 352.775 159.657 353.919ZM338.33 355.455C338.512 356.056 338.859 356.761 339.104 357.02C339.347 357.282 339.302 356.79 339 355.929C338.387 354.168 337.82 353.768 338.33 355.455ZM152.627 355.183C153.428 355.284 154.551 355.604 155.125 355.893C155.699 356.181 156.461 356.299 156.821 356.156C157.199 356.007 157.024 355.88 156.412 355.858C155.828 355.836 155.216 355.6 155.051 355.335C154.885 355.068 153.947 354.883 152.963 354.923C151.358 354.987 151.323 355.014 152.627 355.183ZM340.489 357.801C339.465 358.164 339.534 358.193 340.938 357.99C342.199 357.806 342.898 358.013 343.846 358.845L345.095 359.94L343.921 358.607C342.671 357.191 342.394 357.125 340.489 357.801ZM325.703 365.388C324.492 365.693 322.622 366.97 323.384 366.97C323.695 366.97 324.083 366.752 324.249 366.485C324.414 366.218 324.958 366 325.461 366C325.962 366 326.507 365.782 326.672 365.515C326.838 365.248 326.905 365.056 326.823 365.087C326.74 365.118 326.237 365.254 325.703 365.388ZM340.369 368.767C340.968 368.881 341.951 368.881 342.55 368.767C343.151 368.651 342.659 368.557 341.459 368.557C340.26 368.557 339.768 368.651 340.369 368.767ZM324.274 370.005C324.454 370.476 324.33 371.186 324.002 371.581C323.628 372.033 323.595 372.302 323.914 372.302C324.695 372.302 325.147 370.339 324.51 369.709C324.085 369.288 324.029 369.361 324.274 370.005ZM315.804 370.537C315.917 370.634 316.879 370.844 317.947 371.008C319.267 371.211 319.653 371.158 319.158 370.842C318.497 370.419 315.334 370.132 315.804 370.537ZM184.866 371.97C184.866 372.053 185.576 372.761 186.442 373.546L188.018 374.969L186.593 373.393C185.266 371.924 184.866 371.596 184.866 371.97ZM312.304 373.637C310.909 375.32 310.317 376.182 310.557 376.182C310.691 376.182 311.383 375.418 312.095 374.484C313.417 372.752 313.576 372.099 312.304 373.637ZM277.991 378.778C278.101 378.873 278.956 379.091 279.89 379.263C281.083 379.481 281.369 379.432 280.859 379.096C280.202 378.666 277.509 378.366 277.991 378.778ZM189.821 380.545C189.816 381.211 189.986 382.302 190.199 382.969C190.722 384.597 190.722 382.838 190.199 380.786C189.867 379.481 189.829 379.456 189.821 380.545ZM305.695 384.216C305.096 385.129 304.702 385.877 304.82 385.877C305.156 385.877 307.164 382.934 306.964 382.733C306.866 382.635 306.294 383.301 305.695 384.216ZM266.527 386.484L265.102 388.06L266.678 386.634C267.544 385.852 268.253 385.144 268.253 385.06C268.253 384.684 267.854 385.015 266.527 386.484ZM192.22 387.842C192.503 388.655 192.826 389.231 192.935 389.12C193.177 388.88 192.261 386.362 191.933 386.362C191.808 386.362 191.936 387.028 192.22 387.842ZM303.298 390.484C303.302 391.816 303.396 392.305 303.507 391.567C303.62 390.83 303.616 389.739 303.502 389.144C303.385 388.546 303.295 389.149 303.298 390.484ZM257.345 391.21C256.004 391.551 255.985 391.584 257.102 391.631C257.77 391.658 258.642 391.469 259.043 391.21C259.867 390.678 259.441 390.678 257.345 391.21ZM244.233 397.633L242.316 399.694L244.377 397.779C246.294 395.996 246.661 395.573 246.294 395.573C246.214 395.573 245.286 396.5 244.233 397.633ZM304.529 396.384C304.339 397.076 303.763 397.508 302.852 397.644C301.59 397.833 301.573 397.859 302.676 397.918C304.313 398.006 305.234 397.345 305.005 396.243C304.836 395.422 304.789 395.436 304.529 396.384ZM299.039 398.483C298.427 398.745 298.338 398.899 298.796 398.899C299.197 398.899 299.959 398.712 300.493 398.483C301.105 398.22 301.194 398.065 300.736 398.065C300.335 398.065 299.573 398.253 299.039 398.483ZM236.188 400.451L235.044 401.448L236.353 400.653C237.152 400.166 238.098 399.979 238.777 400.172C239.645 400.415 239.73 400.371 239.166 399.975C238.102 399.231 237.47 399.333 236.188 400.451ZM229.227 402.846L228.258 403.262L229.227 403.247C229.759 403.24 230.741 403.058 231.408 402.846L232.62 402.457L231.408 402.443C230.741 402.436 229.759 402.617 229.227 402.846ZM223.341 416.904C223.341 419.439 223.423 420.474 223.522 419.208C223.622 417.941 223.622 415.869 223.522 414.602C223.423 413.337 223.341 414.371 223.341 416.904ZM203.509 425.147C203.509 426.781 203.594 426.97 203.958 426.153C204.234 425.536 204.234 424.758 203.958 424.141C203.594 423.324 203.509 423.513 203.509 425.147ZM202.131 428.767C201.69 429.443 201.033 429.995 200.671 429.995C200.31 429.995 199.747 430.316 199.422 430.71C198.899 431.338 198.999 431.338 200.254 430.714C201.839 429.922 203.584 428.188 203.19 427.796C203.05 427.654 202.574 428.092 202.131 428.767ZM196.515 432.4C195.362 433.13 196.149 433.285 197.472 432.587C198.14 432.235 198.356 431.948 197.957 431.948C197.556 431.948 196.908 432.152 196.515 432.4ZM224.39 436.771C223.083 438.098 222.108 439.252 222.226 439.338C222.344 439.421 223.508 438.336 224.815 436.925C227.818 433.68 227.535 433.577 224.39 436.771ZM197.055 436.781C197.055 437.183 197.242 437.945 197.472 438.479C197.734 439.091 197.888 439.18 197.888 438.722C197.888 438.321 197.701 437.559 197.472 437.025C197.209 436.413 197.055 436.324 197.055 436.781ZM213.789 444.661C214.09 445.151 216.26 445.124 216.569 444.625C216.705 444.405 216.084 444.242 215.191 444.262C214.297 444.282 213.667 444.46 213.789 444.661Z" fill="#4B6986"/><path id="path4" fill-rule="evenodd" clip-rule="evenodd" d="M232 172.441C231.464 172.907 230.905 174.134 230.754 175.168C230.603 176.201 230.614 176.912 230.778 176.749C230.941 176.586 231.206 175.631 231.37 174.628C231.644 172.931 231.796 172.787 233.595 172.56C235.048 172.377 235.308 172.226 234.641 171.954C233.372 171.438 233.087 171.491 232 172.441ZM236.735 173.779C238.665 176.103 238.826 176.253 238.3 175.224C238.026 174.686 237.29 173.817 236.666 173.288C235.569 172.361 235.571 172.379 236.735 173.779ZM224.953 176.371C224.452 176.567 225.324 176.711 226.965 176.7C228.555 176.691 229.607 176.522 229.3 176.328C228.604 175.883 226.126 175.908 224.953 176.371ZM239.414 177.546C239.883 178.289 240.388 178.773 240.536 178.624C240.685 178.476 240.302 177.867 239.685 177.275L238.563 176.199L239.414 177.546ZM219.913 178.877C218.789 179.937 218.043 180.803 218.252 180.803C218.462 180.803 219.163 180.231 219.81 179.53C220.456 178.83 221.64 177.965 222.439 177.61C223.539 177.121 223.657 176.961 222.923 176.956C222.391 176.952 221.035 177.817 219.913 178.877ZM240.622 179.721C240.62 180.057 241.384 181.148 242.321 182.145C243.258 183.14 243.888 183.574 243.725 183.107C243.559 182.641 243.227 182.259 242.984 182.259C242.742 182.259 242.112 181.549 241.584 180.683C241.056 179.816 240.622 179.383 240.622 179.721ZM214.439 181.288C212.783 181.638 212.778 181.647 214.198 181.677C214.998 181.693 216.088 181.519 216.621 181.288C217.787 180.789 216.819 180.789 214.439 181.288ZM210.561 182.553C209.542 183 208.188 183.191 207.168 183.031C206.234 182.886 204.49 182.666 203.289 182.543L201.107 182.317L203.289 182.797C207.605 183.746 208.858 183.783 210.683 183.013C211.683 182.59 212.5 182.139 212.5 182.009C212.5 181.7 212.529 181.693 210.561 182.553ZM201.111 185.615C201.229 187.062 201.561 188.48 201.851 188.766C202.229 189.14 202.291 189.062 202.073 188.489C201.906 188.047 201.572 186.629 201.334 185.337L200.898 182.986L201.111 185.615ZM237.357 184.745C236.951 185.152 236.958 185.529 237.381 186.214C237.839 186.951 237.808 187.238 237.227 187.643C236.58 188.093 236.58 188.127 237.227 187.939C237.708 187.799 237.913 187.221 237.833 186.228L237.713 184.727L240.985 184.558L244.255 184.387L241.079 184.293C239.24 184.238 237.675 184.427 237.357 184.745ZM235.609 188.768C235.347 189.453 235.82 190.019 237.227 190.704C237.626 190.898 237.517 190.702 236.983 190.266C236.45 189.832 236.077 189.162 236.155 188.776C236.341 187.873 235.956 187.868 235.609 188.768ZM202.805 190.008C203.204 190.272 204.199 190.489 205.014 190.493C206.779 190.502 207.767 191.199 208.792 193.167C209.212 193.966 209.56 194.402 209.571 194.137C209.61 193.066 207.614 190.513 206.577 190.302C203.311 189.643 202.102 189.549 202.805 190.008ZM240.466 190.549C242.454 190.943 243.242 191.395 244.248 192.714C245.177 193.932 245.893 194.378 246.917 194.378C248.042 194.378 248.527 194.756 249.404 196.318C250.003 197.385 250.764 198.257 251.092 198.257C251.421 198.257 252.091 198.369 252.579 198.507C253.068 198.643 252.786 198.436 251.953 198.046C251.121 197.656 249.983 196.561 249.424 195.615C248.649 194.299 248.091 193.894 247.06 193.894C246.116 193.894 245.273 193.382 244.255 192.192C243.033 190.76 242.416 190.455 240.377 190.27L237.953 190.048L240.466 190.549ZM213.235 200.817C213.704 201.559 214.208 202.044 214.357 201.895C214.506 201.746 214.123 201.14 213.506 200.546L212.384 199.469L213.235 200.817ZM258.073 200.895C258.073 201.492 261.078 202.614 262.533 202.56C264.081 202.501 264.07 202.489 262.193 202.169C261.127 201.988 259.764 201.572 259.163 201.243C258.564 200.915 258.073 200.758 258.073 200.895ZM270.912 203.231C269.646 205.267 268.17 205.445 265.924 203.834L264.132 202.55L265.812 204.039C268.014 205.993 269.299 205.938 271.048 203.818C272.573 201.968 273.542 201.939 274.323 203.72C274.648 204.459 275.683 205.081 277.586 205.684C280.64 206.65 281.246 207.591 280.672 210.465C280.491 211.367 280.607 212.255 280.961 212.683C281.319 213.114 281.515 214.662 281.46 216.612C281.408 218.383 281.536 220.102 281.743 220.432C281.952 220.763 282.099 219.339 282.072 217.271C282.047 215.203 281.832 213.201 281.598 212.821C281.364 212.442 281.221 211.195 281.279 210.051C281.435 207.064 280.752 206.151 277.707 205.267C275.721 204.689 274.909 204.174 274.441 203.195C273.544 201.318 272.093 201.332 270.912 203.231ZM215.476 206.1C215.439 206.815 215.067 207.741 214.648 208.161C214.228 208.58 214.112 208.923 214.388 208.923C215.154 208.923 215.98 207.066 215.748 205.868C215.572 204.96 215.532 204.996 215.476 206.1ZM210.773 209.459C210.59 209.753 211.062 210.57 211.821 211.276L213.201 212.558L212.052 211.238C211.169 210.227 211.06 209.867 211.579 209.7C213.513 209.085 213.611 208.996 212.407 208.961C211.69 208.94 210.955 209.163 210.773 209.459ZM209.074 217.932C208.724 218.353 208.487 219.554 208.549 220.598C208.685 222.9 208.311 222.942 205.483 220.948C203.778 219.746 203.155 219.528 202.705 219.978C202.256 220.429 202.393 220.558 203.313 220.559C203.967 220.559 205.145 221.111 205.929 221.789C207.95 223.524 208.852 223.192 208.918 220.683C208.947 219.561 209.245 218.31 209.582 217.903C209.92 217.497 210.087 217.164 209.953 217.164C209.82 217.164 209.424 217.509 209.074 217.932ZM200.866 221.18C200.466 221.504 199.82 222.206 199.429 222.74C199.039 223.274 199.422 223.069 200.277 222.286C201.674 221.008 202.078 220.527 201.713 220.574C201.646 220.581 201.265 220.855 200.866 221.18ZM282.314 221.845C282.314 222.469 284.794 225.403 285.758 225.919C286.589 226.364 286.976 226.193 288.287 224.803C289.138 223.9 290.269 222.909 290.801 222.602C291.332 222.293 291.486 222.036 291.141 222.026C290.798 222.019 289.652 222.893 288.597 223.969C286.377 226.235 285.386 226.077 283.681 223.187C282.738 221.591 282.314 221.173 282.314 221.845ZM294.031 225.407C294.055 226.665 294.819 228.735 294.836 227.588C294.843 227.054 294.661 226.182 294.433 225.649C294.178 225.055 294.022 224.96 294.031 225.407ZM190.388 228.686C190.092 228.882 189.505 229.716 189.084 230.536C188.665 231.359 187.543 232.96 186.593 234.097C185.489 235.42 184.886 236.628 184.925 237.452L184.981 238.739L185.288 237.401C185.457 236.666 186.31 235.139 187.187 234.008C188.756 231.981 191.241 228.308 191.034 228.323C190.974 228.327 190.684 228.49 190.388 228.686ZM192.612 230.133C193.779 231.889 194.604 232.101 195.595 230.903C196.199 230.171 196.167 230.157 195.219 230.747C194.282 231.33 194.046 231.252 192.871 229.975L191.564 228.557L192.612 230.133ZM294.184 234.207L293.835 237.673L295.606 239.177C296.579 240.003 297.926 241.55 298.599 242.617C299.952 244.76 299.959 244.491 298.621 241.871C298.14 240.927 296.985 239.634 296.056 238.999L294.365 237.84L294.7 234.289C294.883 232.337 294.919 230.74 294.781 230.74C294.643 230.74 294.375 232.299 294.184 234.207ZM185.351 239.113C185.351 239.242 187.031 240.847 189.084 242.679C191.138 244.511 192.668 245.762 192.483 245.459C192.065 244.769 185.351 238.795 185.351 239.113ZM300.564 244.783C300.687 244.909 302.545 245.027 304.694 245.043C307.398 245.065 308.173 244.958 307.213 244.692C305.786 244.3 300.168 244.377 300.564 244.783ZM310.359 246.366C310.915 246.971 311.824 248.01 312.382 248.678C313.023 249.446 312.925 249.148 312.115 247.864C311.412 246.751 310.501 245.713 310.092 245.555C309.591 245.362 309.678 245.629 310.359 246.366ZM191.168 247.539C190.006 248.151 190.001 248.178 191.02 248.186C191.604 248.189 192.225 247.959 192.401 247.675C192.891 246.882 192.499 246.838 191.168 247.539ZM186.78 249.564C184.656 250.916 182.946 252.556 183.659 252.556C183.861 252.556 184.398 252.127 184.852 251.603C185.308 251.078 186.642 250.099 187.819 249.428C188.995 248.754 189.727 248.202 189.445 248.198C189.166 248.195 187.966 248.81 186.78 249.564ZM314.395 250.194C314.749 250.419 316.674 250.588 318.673 250.571C323.13 250.533 322.629 250.277 317.547 249.998C315.403 249.88 314.034 249.965 314.395 250.194ZM322.979 252.176C323.203 253.524 323.27 253.591 323.422 252.621C323.522 251.989 323.404 251.274 323.159 251.031C322.89 250.76 322.82 251.214 322.979 252.176ZM182.661 253.563C182.483 253.852 181.651 254.506 180.814 255.018C179.977 255.528 179.561 255.946 179.89 255.947C180.511 255.949 183.913 253.081 183.32 253.055C183.136 253.046 182.838 253.277 182.661 253.563ZM169.004 255.096C167.079 255.936 165.587 256.708 165.688 256.81C165.788 256.91 167.4 256.321 169.269 255.501C173.283 253.74 173.875 253.698 176.311 255.003C177.332 255.55 178.042 255.795 177.889 255.548C176.542 253.371 173.323 253.206 169.004 255.096ZM321.543 258.858C321.396 260.325 321.113 261.961 320.913 262.494C320.714 263.026 320.904 262.856 321.334 262.111C321.839 261.24 322.064 259.945 321.964 258.475L321.808 256.191L321.543 258.858ZM162.202 257.253C162.669 257.374 163.431 257.374 163.898 257.253C164.365 257.131 163.983 257.031 163.05 257.031C162.117 257.031 161.736 257.131 162.202 257.253ZM155.9 260.071C155.906 261.136 156.006 261.516 156.122 260.913C156.236 260.31 156.233 259.437 156.111 258.974C155.989 258.509 155.895 259.003 155.9 260.071ZM156.376 263.705C156.376 264.639 156.476 265.022 156.598 264.555C156.719 264.089 156.719 263.324 156.598 262.858C156.476 262.391 156.376 262.772 156.376 263.705ZM320.042 265.501C319.877 266.621 319.241 268.259 318.631 269.138C317.563 270.674 317.56 270.701 318.564 269.829C319.782 268.769 320.755 266.137 320.512 264.562C320.399 263.836 320.24 264.154 320.042 265.501ZM124.391 266.117C121.751 267.313 119.895 269.176 119.93 270.592C119.951 271.474 120.077 271.36 120.536 270.044C121.947 265.995 127.332 264.866 133.41 267.348C135.106 268.039 136.584 268.519 136.691 268.41C137.062 268.039 129.164 265.16 127.806 265.171C127.058 265.176 125.522 265.603 124.391 266.117ZM155.058 266.963L154.206 268.312L155.328 267.235C155.946 266.641 156.329 266.035 156.18 265.886C156.031 265.737 155.526 266.222 155.058 266.963ZM139.239 268.913C140.406 269.016 141.933 269.441 142.632 269.855L143.901 270.608L142.688 269.592C141.809 268.854 140.878 268.597 139.295 268.649L137.112 268.724L139.239 268.913ZM145.508 271.044C146.519 271.335 147.87 271.338 149.144 271.051C151.036 270.628 150.927 270.597 147.536 270.588C144.435 270.581 144.137 270.648 145.508 271.044ZM317.249 271.591C317.193 273.154 321.54 275.133 322.306 273.893C322.476 273.617 322.279 273.537 321.841 273.706C320.728 274.132 318.166 272.925 317.691 271.749C317.351 270.912 317.275 270.884 317.249 271.591ZM325.461 272.299C326.128 272.419 327.141 272.951 327.713 273.481C328.595 274.299 328.9 274.352 329.733 273.831C330.53 273.334 330.861 273.339 331.493 273.864C331.921 274.22 332.404 274.378 332.564 274.216C333.179 273.602 330.373 272.747 329.664 273.334C329.143 273.766 328.713 273.673 327.756 272.92C327.075 272.386 326.01 271.977 325.385 272.014C324.274 272.079 324.276 272.084 325.461 272.299ZM118.933 276.304C118.933 277.348 125.189 282.285 127.174 282.804C127.842 282.98 127.404 282.631 126.204 282.03C125.004 281.431 122.878 279.832 121.478 278.477C120.079 277.123 118.933 276.144 118.933 276.304ZM336.611 276.553C337.277 276.934 338.259 277.244 338.793 277.243C339.327 277.241 338.89 276.923 337.824 276.54C335.394 275.665 335.062 275.668 336.611 276.553ZM342.922 276.231C342.917 276.589 343.583 277.132 344.4 277.44C345.72 277.94 345.854 278.169 345.607 279.487C345.23 281.5 347.483 283.24 350.912 283.583C353.211 283.813 353.394 283.937 354.422 285.977C355.858 288.822 356.405 289.345 356.986 288.427C357.688 287.317 357.543 286.676 356.815 287.671C356.216 288.488 356.127 288.443 355.535 287.018C354.269 283.958 353.226 283.1 350.756 283.083C347.688 283.062 345.698 281.418 346.13 279.26C346.388 277.965 346.255 277.722 345.043 277.261C344.282 276.972 343.496 276.476 343.294 276.159C343.025 275.736 342.927 275.754 342.922 276.231ZM365.457 283.367C363.6 284.018 363.974 284 367.632 283.269C369.146 282.967 371.033 284.554 371.033 286.13C371.033 287.622 371.933 288.861 373.593 289.645C374.452 290.052 374.737 290.108 374.227 289.772C372.395 288.561 371.518 287.443 371.518 286.321C371.518 283.457 368.876 282.17 365.457 283.367ZM129.919 284.037C131.622 285.075 132.245 286.422 131.782 288.067C131.54 288.922 131.586 289 131.983 288.43C133.093 286.849 131.012 283.094 129.029 283.1C128.675 283.102 129.077 283.523 129.919 284.037ZM358.536 284.823C357.942 285.238 357.458 285.825 357.458 286.128C357.458 286.43 357.741 286.29 358.088 285.816C358.434 285.342 359.471 284.777 360.39 284.561C361.77 284.236 361.848 284.158 360.838 284.118C360.165 284.091 359.128 284.407 358.536 284.823ZM129.903 290.976C129.244 291.844 128.577 293.207 128.421 294.006L128.138 295.46L128.688 294.006C128.989 293.207 129.767 291.844 130.413 290.976C131.059 290.11 131.479 289.402 131.344 289.402C131.212 289.402 130.564 290.11 129.903 290.976ZM370.051 294.523C369.791 295.206 369.611 296.57 369.651 297.554C369.715 299.148 369.742 299.182 369.905 297.884C370.269 294.972 370.597 294.198 371.654 293.774L372.729 293.342L371.627 293.311C370.873 293.289 370.374 293.674 370.051 294.523ZM126.538 297.064C124.932 298.739 124.912 300.219 126.46 302.734C127.962 305.17 127.958 305.938 126.448 307.736C125.148 309.281 124.952 310.014 125.714 310.486C125.988 310.655 126.072 310.463 125.908 310.038C125.743 309.611 126.161 308.652 126.883 307.794C128.445 305.936 128.454 305.185 126.945 302.734C125.396 300.219 125.416 298.739 127.023 297.064C127.739 296.315 128.216 295.704 128.084 295.704C127.949 295.704 127.254 296.315 126.538 297.064ZM368.124 300.551C367.458 301.072 367.151 301.504 367.444 301.51C367.734 301.515 368.368 301.085 368.851 300.551C369.956 299.329 369.686 299.329 368.124 300.551ZM365.701 302.263C365.701 302.672 366.481 303.69 367.436 304.529C369.099 305.989 369.165 306.169 369.01 308.832C368.923 310.361 369.014 311.51 369.214 311.387C370.428 310.632 369.542 306.04 367.87 304.419C366.931 303.509 366.269 302.483 366.401 302.142C366.532 301.8 366.427 301.521 366.169 301.521C365.911 301.521 365.701 301.855 365.701 302.263ZM127.132 312.551C128.249 314.181 129.955 315.387 130.447 314.893C130.604 314.738 130.451 314.611 130.108 314.611C129.767 314.611 128.714 313.792 127.769 312.792C126.135 311.062 126.105 311.051 127.132 312.551ZM366.427 312.672C365.085 313.014 365.067 313.046 366.185 313.092C366.852 313.119 367.723 312.93 368.124 312.672C368.949 312.138 368.522 312.138 366.427 312.672ZM363.373 313.738C363.053 314.058 362.823 314.985 362.863 315.799L362.935 317.277L363.15 315.822C363.266 315.023 363.587 314.096 363.863 313.762C364.502 312.988 364.139 312.972 363.373 313.738ZM131.054 315.319C131.054 315.443 131.916 315.775 132.971 316.06C135.477 316.734 136.386 317.705 136.386 319.708C136.386 320.819 136.711 321.572 137.403 322.055C139.072 323.225 140.903 326.315 141.021 328.158C141.083 329.107 141.156 330.019 141.183 330.187C141.212 330.354 141.853 330.748 142.612 331.062C145.234 332.148 146.325 335.928 144.386 337.199C143.184 337.987 142.768 339.512 143.612 340.035C143.854 340.184 143.937 339.868 143.798 339.331C143.621 338.661 143.939 338.042 144.812 337.355C146.739 335.839 145.657 331.939 142.97 330.716C141.737 330.153 141.526 329.719 141.691 328.078C141.8 326.985 139.645 323.333 138.093 321.983C137.379 321.362 136.871 320.401 136.871 319.673C136.871 318.987 136.659 318.03 136.401 317.545C135.798 316.421 131.054 314.446 131.054 315.319ZM361.457 318.989C360.081 319.601 359.417 320.192 359.453 320.772C359.508 321.607 359.518 321.607 359.734 320.772C359.862 320.289 360.584 319.779 361.365 319.622C362.136 319.468 363.019 319.041 363.324 318.673C364.001 317.858 364.007 317.856 361.457 318.989ZM358.424 323.35C358.06 324.276 357.679 325.253 357.574 325.519C357.47 325.786 357.857 325.298 358.434 324.436C359.012 323.573 359.393 322.596 359.282 322.268C359.173 321.937 358.787 322.424 358.424 323.35ZM355.099 326.553C354.2 326.945 353.581 327.379 353.721 327.518C353.988 327.787 356.973 326.385 356.973 325.992C356.973 325.716 357.109 325.676 355.099 326.553ZM351.479 329.477C351.041 329.915 351.081 332.166 351.539 332.885C351.74 333.205 351.902 332.495 351.895 331.311C351.887 330.127 351.864 329.158 351.842 329.156C351.82 329.156 351.657 329.3 351.479 329.477ZM352.341 334.973C353.202 337.878 353.169 338.877 352.136 341.01C351.552 342.219 351.183 343.481 351.317 343.817C351.488 344.238 351.577 344.202 351.606 343.699C351.63 343.3 352.172 341.891 352.813 340.569C353.928 338.265 353.945 338.085 353.215 336.206C352.33 333.931 351.818 333.209 352.341 334.973ZM148.24 346.107C148.253 347.129 148.427 347.866 148.627 347.742C149.112 347.446 149.094 344.79 148.605 344.487C148.393 344.356 148.229 345.084 148.24 346.107ZM345.551 344.946C345.034 345.368 344.937 345.536 345.339 345.324C345.738 345.11 347.047 344.796 348.247 344.625L350.428 344.313L348.461 344.249C347.305 344.211 346.105 344.5 345.551 344.946ZM343.721 346.815C343.576 347.196 342.844 347.599 342.094 347.712C340.749 347.915 340.747 347.919 341.991 347.989C342.708 348.031 343.626 347.646 344.126 347.092C344.609 346.56 344.774 346.123 344.496 346.123C344.217 346.123 343.868 346.435 343.721 346.815ZM147.374 348.87C145.698 350.548 147.95 355.393 150.343 355.263L151.657 355.19L150.359 354.99C148.527 354.711 147.972 353.821 147.868 351.009C147.819 349.66 147.761 348.554 147.739 348.55C147.716 348.549 147.552 348.692 147.374 348.87ZM158.52 354.166C157.504 354.856 156.799 355.548 156.955 355.702C157.11 355.858 157.752 355.501 158.384 354.907C159.014 354.315 160.158 353.641 160.926 353.413C161.941 353.109 162.055 352.982 161.345 352.951C160.806 352.93 159.535 353.476 158.52 354.166ZM163.604 355.335C163.604 355.735 163.791 356.497 164.02 357.031C164.283 357.643 164.437 357.732 164.437 357.274C164.437 356.873 164.249 356.111 164.02 355.577C163.756 354.967 163.604 354.876 163.604 355.335ZM165.233 358.244C165.396 358.511 166.01 358.712 166.594 358.694C167.618 358.661 167.622 358.645 166.687 358.244C165.352 357.67 164.877 357.67 165.233 358.244ZM340.489 358.282C339.492 358.632 339.587 358.665 341.014 358.469C342.98 358.199 343.812 358.858 345.012 361.637C345.415 362.57 345.762 363.046 345.783 362.696C345.871 361.298 343.26 357.71 342.223 357.806C341.936 357.834 341.157 358.048 340.489 358.282ZM170.322 359.876C170.322 360.864 173.501 363.132 174.775 363.052C175.126 363.03 174.824 362.752 174.104 362.431C173.383 362.111 172.237 361.329 171.558 360.689C170.879 360.05 170.322 359.685 170.322 359.876ZM176.867 363.843C177.401 364.239 178.24 364.904 178.732 365.317C179.224 365.731 179.728 365.967 179.854 365.842C180.133 365.563 176.949 363.086 176.337 363.106C176.095 363.115 176.333 363.447 176.867 363.843ZM327.4 364.061C326.734 364.582 325.697 365.014 325.096 365.02C324.497 365.025 324.007 365.245 324.007 365.506C324.007 365.768 323.461 366.118 322.794 366.285C322.043 366.474 321.581 366.933 321.581 367.496C321.581 367.994 322.128 368.76 322.794 369.196C324.828 370.528 324.386 371.529 321.825 371.394C321.002 371.351 321.029 371.416 322.008 371.83C324.31 372.803 325.389 370.49 323.279 369.107C321.447 367.907 323.043 365.515 325.677 365.515C326.019 365.515 326.868 365.069 327.564 364.522C328.866 363.496 329.57 363.613 331.791 365.214C332.204 365.514 331.885 365.158 331.081 364.424C329.35 362.848 328.996 362.812 327.4 364.061ZM345.865 365.869C345.829 367.647 345.658 367.963 344.589 368.232C343.91 368.402 343.456 368.644 343.581 368.769C344.79 369.978 346.924 367.222 346.326 365.225C345.929 363.896 345.903 363.93 345.865 365.869ZM333.414 367.85C333.533 370.221 334.788 371.895 335.736 370.949C336.192 370.492 336.099 370.363 335.305 370.363C334.203 370.363 333.573 369.325 334 368.212C334.147 367.828 334.053 367.128 333.788 366.656C333.421 365.998 333.332 366.276 333.414 367.85ZM181.885 367.943C182.991 368.744 183.897 369.61 183.897 369.866C183.897 370.122 184.894 371.452 186.11 372.823C187.328 374.194 188.534 375.868 188.79 376.543C189.048 377.219 189.389 377.638 189.551 377.477C190.335 376.692 181.844 366.485 180.411 366.485C180.115 366.485 180.778 367.14 181.885 367.943ZM337.459 369.099C336.992 369.453 336.611 369.916 336.611 370.129C336.611 370.341 336.992 370.181 337.459 369.775C337.925 369.368 338.635 368.916 339.035 368.769C339.681 368.531 339.681 368.498 339.035 368.478C338.635 368.466 337.925 368.745 337.459 369.099ZM314.068 371.247C313.535 371.714 312.667 372.634 312.14 373.292C311.614 373.947 312.157 373.611 313.346 372.545C314.535 371.478 315.601 370.552 315.717 370.485C315.831 370.417 315.726 370.37 315.481 370.379C315.238 370.388 314.6 370.779 314.068 371.247ZM309.261 377.095C308.306 378.397 307.523 379.661 307.523 379.904C307.523 380.147 306.545 381.972 305.35 383.96C304.153 385.948 303.173 387.78 303.168 388.031C303.158 388.59 306.194 383.61 307.879 380.302C308.56 378.969 309.655 377.17 310.316 376.302C310.976 375.436 311.399 374.728 311.258 374.728C311.116 374.728 310.218 375.792 309.261 377.095ZM190.034 379.817C190.195 380.884 190.408 381.847 190.506 381.959C190.874 382.375 190.598 379.779 190.177 378.847C189.87 378.172 189.827 378.466 190.034 379.817ZM276.623 378.468C277.361 378.58 278.452 378.577 279.047 378.462C279.643 378.346 279.04 378.255 277.707 378.259C276.375 378.263 275.886 378.357 276.623 378.468ZM270.173 382.513C266.042 386.451 262.434 389.271 261.528 389.271C261.26 389.271 260.906 389.487 260.742 389.75C260.332 390.415 261.872 389.815 263.647 388.619C266.289 386.838 275.356 378.606 274.673 378.606C274.452 378.606 272.426 380.363 270.173 382.513ZM281.585 379.497C283.704 380.794 284.278 381.669 284.716 384.274C285.099 386.555 285.11 386.565 285.164 384.763C285.238 382.393 284.127 380.271 282.328 379.341C280.344 378.314 279.828 378.424 281.585 379.497ZM285.315 387.29C285.425 387.668 286.05 388.308 286.702 388.715C287.622 389.287 287.724 389.296 287.161 388.757C286.762 388.372 286.135 387.731 285.772 387.332C285.24 386.747 285.149 386.738 285.315 387.29ZM302.797 390.484C302.803 391.549 302.902 391.929 303.017 391.326C303.133 390.723 303.129 389.85 303.008 389.387C302.886 388.924 302.792 389.416 302.797 390.484ZM289.164 390.449C289.787 391.099 290.391 391.537 290.504 391.422C290.794 391.134 289.049 389.271 288.49 389.271C288.236 389.271 288.539 389.801 289.164 390.449ZM194.073 390.963C194.404 391.36 194.967 392.506 195.324 393.508C195.711 394.592 195.983 394.937 195.994 394.362C196.014 393.367 194.337 390.24 193.783 390.24C193.614 390.24 193.745 390.565 194.073 390.963ZM257.587 390.725C256.614 391.037 256.566 391.117 257.345 391.128C257.879 391.135 258.751 390.954 259.284 390.725C260.521 390.195 259.244 390.195 257.587 390.725ZM251.528 391.713C250.895 391.996 251.483 392.045 253.224 391.854C254.691 391.695 255.982 391.484 256.093 391.388C256.523 391.012 252.445 391.302 251.528 391.713ZM247.959 393.165C246.488 394.391 246.947 394.385 248.97 393.151C249.843 392.619 250.23 392.19 249.831 392.197C249.431 392.207 248.589 392.64 247.959 393.165ZM290.636 394.69C290.496 399.402 293.151 400.429 299.765 398.225C301.982 397.486 301.245 397.548 296.492 398.505C292.505 399.307 291.359 398.543 290.999 394.843L290.718 391.938L290.636 394.69ZM303.414 393.634C303.576 394.302 303.827 395.226 303.974 395.691C304.155 396.268 303.879 396.678 303.093 396.992L301.947 397.452L303.053 397.483C304.569 397.524 304.869 396.402 303.919 394.24C303.48 393.24 303.251 392.967 303.414 393.634ZM243.801 397.341C241.655 399.701 241.254 399.945 239.923 399.683C238.806 399.465 238.619 399.52 239.166 399.899C240.609 400.907 241.856 400.333 244.427 397.483C245.854 395.899 246.835 394.627 246.608 394.656C246.381 394.685 245.117 395.894 243.801 397.341ZM195.599 396.395C195.562 396.98 195.114 398.178 194.604 399.06L193.674 400.664L194.93 403.69C195.62 405.355 196.276 406.628 196.385 406.519C196.494 406.41 196.129 405.292 195.573 404.037C194.362 401.301 194.315 400.281 195.328 398.735C195.747 398.095 195.996 397.065 195.878 396.45C195.669 395.362 195.662 395.36 195.599 396.395ZM235.044 400.68C234.244 401.335 232.935 401.906 232.136 401.945L230.681 402.022L232.025 402.225C232.98 402.368 233.959 401.996 235.395 400.94C236.506 400.121 237.21 399.46 236.958 399.469C236.706 399.48 235.845 400.023 235.044 400.68ZM227.264 403.55C226.611 404.206 226.084 405.132 226.093 405.611C226.106 406.154 226.362 405.909 226.774 404.963C227.165 404.066 228.003 403.236 228.817 402.94C229.701 402.617 229.883 402.423 229.325 402.399C228.848 402.378 227.92 402.897 227.264 403.55ZM197.781 407.937C198.901 409.851 198.927 409.88 198.927 409.282C198.927 409.001 198.476 408.256 197.928 407.626L196.929 406.483L197.781 407.937ZM223.154 411.846C222.894 412.53 222.718 414.876 222.762 417.059L222.842 421.026L223.13 416.419C223.29 413.887 223.593 411.543 223.806 411.209C224.02 410.875 224.065 410.602 223.911 410.602C223.755 410.602 223.415 411.161 223.154 411.846ZM199.952 413.026C199.974 413.427 200.167 414.299 200.381 414.965L200.769 416.178L200.809 414.965C200.833 414.299 200.639 413.427 200.381 413.026C199.963 412.38 199.914 412.38 199.952 413.026ZM200.916 416.904C200.904 417.305 201.641 419.159 202.554 421.026C203.469 422.892 204.226 424.138 204.237 423.794C204.25 423.451 203.769 422.251 203.171 421.127C202.572 420.005 201.826 418.433 201.512 417.632C201.196 416.832 200.929 416.505 200.916 416.904ZM223.234 421.754C223.234 422.153 223.423 422.917 223.651 423.449C223.915 424.061 224.067 424.15 224.067 423.693C224.067 423.293 223.88 422.529 223.651 421.995C223.388 421.385 223.234 421.294 223.234 421.754ZM224.241 425.632C224.236 426.298 224.407 427.389 224.621 428.056C225.142 429.684 225.142 427.925 224.621 425.873C224.289 424.568 224.251 424.542 224.241 425.632ZM202.077 429.51C201.595 430.044 200.94 430.479 200.622 430.479C200.306 430.479 199.651 430.915 199.168 431.449C198.685 431.983 198.024 432.419 197.699 432.419C196.394 432.419 196.176 433.626 197.085 435.812C197.585 437.012 197.87 437.45 197.721 436.781C196.864 432.972 196.862 432.903 197.578 432.903C197.97 432.903 198.669 432.488 199.13 431.977C199.589 431.469 200.443 430.932 201.022 430.785C201.603 430.636 202.353 430.071 202.687 429.528C203.464 428.272 203.204 428.264 202.077 429.51ZM225.776 430.583C227.005 432.647 226.729 433.728 224.276 436.44L221.992 438.964L224.519 436.558C227.342 433.867 227.684 432.478 226.006 430.479L224.991 429.268L225.776 430.583ZM221.228 439.679C221.228 439.941 220.116 441.032 218.76 442.103C217.402 443.176 216.514 444.055 216.787 444.055C217.518 444.055 222.542 439.247 221.834 439.225C221.5 439.214 221.228 439.42 221.228 439.679ZM199.344 441.989C200.152 443.499 203.224 445.994 204.275 445.994C205.156 445.994 205.824 445.453 207.6 443.31C208.099 442.706 208.725 442.568 210.023 442.777C211.234 442.971 211.549 442.915 211.046 442.593C209.508 441.613 207.805 442.067 206.474 443.811C204.733 446.095 203.574 445.981 200.976 443.267C199.794 442.034 199.061 441.46 199.344 441.989Z" fill="#7A8454"/></g></g></svg>