<svg viewBox="0 0 512 512" fill="none" xmlns="http://www.w3.org/2000/svg"><g id="lesotho" clip-path="url(#clip0_1_1070)"><path id="Vector" d="M0 256C0 295.89 9.127 333.648 25.402 367.304L256 378.435L486.598 367.305C502.873 333.648 512 295.89 512 256C512 216.11 502.873 178.352 486.598 144.696L256 133.565L25.402 144.695C9.127 178.352 0 216.11 0 256H0Z" fill="#F0F0F0"/><path id="Vector_2" d="M256 512C357.493 512 445.19 452.935 486.598 367.304H25.4023C66.8103 452.935 154.506 512 256 512Z" fill="#6DA544"/><path id="Vector_3" d="M256 0C154.506 0 66.8103 59.065 25.4023 144.696H486.597C445.19 59.065 357.493 0 256 0Z" fill="#0052B4"/><path id="Vector_4" d="M272.696 250.435V189.218H239.305V250.435L198.975 290.766C210.704 309.966 231.855 322.783 256.001 322.783C280.147 322.783 301.297 309.966 313.027 290.766L272.696 250.435Z" fill="black"/></g><defs><clipPath id="clip0_1_1070"><rect width="512" height="512" fill="white"/></clipPath></defs></svg>