<svg viewBox="0 0 512 512" fill="none" xmlns="http://www.w3.org/2000/svg"><g id="liechtenstein"><path id="Vector" d="M512 256C512 397.384 397.384 512 256 512C114.616 512 0 397.384 0 256C11.13 256 256 222.609 256 222.609L512 256Z" fill="#D80027"/><path id="Vector_2" d="M0 256C0 114.616 114.616 0 256 0C397.384 0 512 114.616 512 256" fill="#0052B4"/><path id="Vector_3" d="M189.217 178.087C189.217 159.646 174.267 144.696 155.826 144.696C147.271 144.696 139.474 147.916 133.565 153.205V133.565H144.695V111.304H133.565V100.174H111.304V111.304H100.174V133.565H111.304V153.205C105.395 147.916 97.5983 144.696 89.0433 144.696C70.6023 144.696 55.6523 159.646 55.6523 178.087C55.6523 187.974 59.9533 196.854 66.7823 202.969V222.609H178.086V202.969C184.917 196.854 189.217 187.974 189.217 178.087Z" fill="#FFDA44"/></g></svg>