<svg viewBox="0 0 512 512" fill="none" xmlns="http://www.w3.org/2000/svg"><g id="madagascar"><path id="Vector" d="M256 512C397.385 512 512 397.385 512 256C512 114.615 397.385 0 256 0C114.615 0 0 114.615 0 256C0 397.385 114.615 512 256 512Z" fill="#F0F0F0"/><path id="Vector_2" d="M166.957 256V496.077C194.689 506.368 224.686 512 256 512C397.384 512 512 397.384 512 256C512 114.616 166.957 256 166.957 256Z" fill="#6DA544"/><path id="Vector_3" d="M256 0C224.686 0 194.689 5.633 166.957 15.923V256H512C512 114.616 397.384 0 256 0Z" fill="#D80027"/></g></svg>