<svg viewBox="0 0 512 512" fill="none" xmlns="http://www.w3.org/2000/svg"><g id="madeira"><path id="Vector" d="M367.304 25.402C333.648 9.128 295.891 0 256 0C216.109 0 178.352 9.128 144.696 25.402L122.435 256L144.696 486.598C178.352 502.872 216.109 512 256 512C295.891 512 333.648 502.872 367.304 486.598L389.565 256L367.304 25.402Z" fill="#FFDA44"/><g id="Group"><path id="Vector_2" d="M144.696 25.411C59.065 66.818 0 154.507 0 256C0 357.493 59.065 445.182 144.696 486.589V25.411Z" fill="#0052B4"/><path id="Vector_3" d="M367.305 25.411V486.589C452.935 445.182 512.001 357.493 512.001 256C512.001 154.507 452.935 66.818 367.305 25.411Z" fill="#0052B4"/></g><path id="Vector_4" d="M328.348 278.261L345.043 300.522V211.478L328.348 233.739H278.261V183.652L300.522 166.957H211.478L233.739 183.652V233.739H183.652L166.957 211.478V300.522L183.652 278.261H233.739V328.348L211.478 345.043H300.522L278.261 328.348V278.261H328.348Z" fill="#D80027"/><path id="Vector_5" d="M322.783 244.87H267.13V189.217H244.87V244.87H189.217V267.13H244.87V322.783H267.13V267.13H322.783V244.87Z" fill="#F0F0F0"/></g></svg>