<svg viewBox="0 0 512 512" fill="none" xmlns="http://www.w3.org/2000/svg"><g id="malawi"><path id="Vector" d="M0 256C0 287.314 5.633 317.31 15.923 345.043L256 356.174L496.077 345.044C506.368 317.31 512 287.314 512 256C512 224.686 506.368 194.69 496.077 166.957L256 155.826L15.923 166.956C5.633 194.69 0 224.686 0 256H0Z" fill="#D80027"/><path id="Vector_2" d="M256.001 0C145.93 0 52.0948 69.472 15.9238 166.957H496.079C459.907 69.472 366.072 0 256.001 0Z" fill="black"/><path id="Vector_3" d="M496.078 345.043H15.9238C52.0948 442.527 145.93 512 256.001 512C366.072 512 459.907 442.527 496.078 345.043Z" fill="#496E2D"/><path id="Vector_4" d="M332.514 122.435L301.25 107.729L317.899 77.45L283.949 83.945L279.647 49.647L255.999 74.872L232.352 49.647L228.049 83.945L194.1 77.45L210.749 107.729L179.484 122.435H332.514Z" fill="#D80027"/></g></svg>