<svg viewBox="0 0 512 512" fill="none" xmlns="http://www.w3.org/2000/svg"><g id="malaysia"><path id="Vector" d="M256 512C397.385 512 512 397.385 512 256C512 114.615 397.385 0 256 0C114.615 0 0 114.615 0 256C0 397.385 114.615 512 256 512Z" fill="#F0F0F0"/><g id="Group"><path id="Vector_2" d="M244.869 256H511.999C511.999 232.893 508.919 210.511 503.18 189.217H244.869V256Z" fill="#D80027"/><path id="Vector_3" d="M244.869 122.435H474.425C458.754 96.863 438.719 74.26 415.356 55.652H244.869V122.435Z" fill="#D80027"/><path id="Vector_4" d="M256 512C316.249 512 371.626 491.176 415.357 456.348H96.6426C140.374 491.176 195.751 512 256 512Z" fill="#D80027"/><path id="Vector_5" d="M37.5734 389.565H474.425C487.006 369.037 496.762 346.596 503.18 322.782H8.81836C15.2354 346.596 24.9924 369.037 37.5734 389.565Z" fill="#D80027"/></g><path id="Vector_6" d="M256 256C256 114.616 256 97.948 256 0C114.616 0 0 114.616 0 256H256Z" fill="#0052B4"/><g id="Group_2"><path id="Vector_7" d="M170.234 219.13C135.272 219.13 106.93 190.787 106.93 155.826C106.93 120.865 135.273 92.522 170.234 92.522C181.135 92.522 191.392 95.279 200.347 100.131C186.299 86.394 167.087 77.914 145.886 77.914C102.857 77.914 67.9727 112.797 67.9727 155.827C67.9727 198.857 102.857 233.74 145.886 233.74C167.087 233.74 186.299 225.26 200.347 211.523C191.392 216.373 181.136 219.13 170.234 219.13Z" fill="#FFDA44"/><path id="Vector_8" d="M188.072 111.304L199.311 134.806L224.692 128.942L213.326 152.381L233.738 168.568L208.324 174.297L208.395 200.348L188.072 184.05L167.748 200.348L167.818 174.297L142.404 168.568L162.816 152.381L151.449 128.942L176.832 134.806L188.072 111.304Z" fill="#FFDA44"/></g></g></svg>