<svg viewBox="0 0 512 512" fill="none" xmlns="http://www.w3.org/2000/svg"><g id="marshall island"><path id="Vector" d="M256 512C397.384 512 512 397.384 512 256C512 213.037 501.4 172.554 482.698 137L255.699 256.3L375 29.302C339.446 10.6 298.963 0 256 0C114.616 0 0 114.616 0 256C0 326.693 28.654 390.693 74.98 437.02C121.307 483.347 185.307 512 256 512Z" fill="#0052B4"/><path id="Vector_2" d="M482.428 137.279C470.71 114.975 455.475 94.034 436.721 75.28C417.966 56.526 397.028 41.291 374.722 29.574L74.6807 437.319L482.428 137.279Z" fill="#F0F0F0"/><path id="Vector_3" d="M74.6807 437.319L482.428 137.279C470.71 114.975 455.475 94.034 436.721 75.28L74.6807 437.319Z" fill="#FF9811"/><path id="Vector_4" d="M222.308 150.122L191.044 164.828L207.693 195.108L173.743 188.613L169.441 222.909L145.793 197.684L122.145 222.909L117.845 188.613L83.8953 195.106L100.542 164.827L69.2783 150.122L100.543 135.415L83.8953 105.137L117.843 111.63L122.146 77.334L145.793 102.559L169.441 77.334L173.743 111.63L207.694 105.137L191.045 135.416L222.308 150.122Z" fill="#F0F0F0"/></g></svg>