<svg viewBox="0 0 512 512" fill="none" xmlns="http://www.w3.org/2000/svg"><g id="martinique"><path id="Vector" d="M256 512C397.385 512 512 397.385 512 256C512 114.615 397.385 0 256 0C114.615 0 0 114.615 0 256C0 397.385 114.615 512 256 512Z" fill="#F0F0F0"/><g id="Group"><path id="Vector_2" d="M509.807 222.608C502.745 168.622 478.495 116.456 437.02 74.981C395.545 33.506 343.378 9.25499 289.392 2.19299L289.393 222.608H509.807Z" fill="#0052B4"/><path id="Vector_3" d="M222.608 2.19299C168.622 9.25499 116.455 33.505 74.9804 74.98C33.5064 116.456 9.25536 168.623 2.19336 222.61L222.609 222.609L222.608 2.19299Z" fill="#0052B4"/><path id="Vector_4" d="M2.19336 289.392C9.25536 343.378 33.5064 395.546 74.9804 437.02C116.455 478.494 168.621 502.744 222.609 509.809L222.608 289.394L2.19336 289.392Z" fill="#0052B4"/><path id="Vector_5" d="M289.393 509.806C343.379 502.744 395.545 478.494 437.02 437.019C478.495 395.544 502.745 343.378 509.807 289.392H289.393V509.806Z" fill="#0052B4"/></g><g id="Group_2"><path id="Vector_6" d="M343.388 162.438C343.388 159.034 346.155 156.267 349.56 156.267H362.784C383.688 156.267 400.695 139.261 400.695 118.358C400.695 97.455 383.689 80.448 362.784 80.448H350.226C346.127 77.369 340.628 75.47 334.562 75.47C321.909 75.47 311.652 83.675 311.652 93.797C311.652 103.821 321.713 111.953 334.197 112.111L334.191 112.184H362.784C366.189 112.184 368.956 114.952 368.956 118.356C368.956 121.76 366.189 124.527 362.784 124.527H349.56C328.656 124.527 311.651 141.533 311.651 162.436C311.651 183.339 328.655 200.346 349.56 200.346H400.694V168.608H349.56C346.155 168.609 343.388 165.842 343.388 162.438Z" fill="#F0F0F0"/><path id="Vector_7" d="M143.042 162.438C143.042 159.034 145.809 156.267 149.214 156.267H162.438C183.342 156.267 200.349 139.261 200.349 118.358C200.349 97.455 183.343 80.448 162.438 80.448H149.88C145.781 77.369 140.282 75.47 134.216 75.47C121.563 75.47 111.306 83.675 111.306 93.797C111.306 103.821 121.367 111.953 133.851 112.111L133.845 112.184H162.439C165.844 112.184 168.611 114.952 168.611 118.356C168.611 121.76 165.844 124.527 162.439 124.527H149.215C128.311 124.527 111.306 141.533 111.306 162.436C111.306 183.339 128.31 200.346 149.215 200.346H200.348V168.608H149.214C145.809 168.609 143.042 165.842 143.042 162.438Z" fill="#F0F0F0"/><path id="Vector_8" d="M343.388 398.62C343.388 395.216 346.155 392.449 349.56 392.449H362.784C383.688 392.449 400.695 375.443 400.695 354.54C400.695 333.637 383.689 316.63 362.784 316.63H350.226C346.127 313.551 340.628 311.652 334.562 311.652C321.908 311.652 311.651 319.858 311.651 329.979C311.651 340.003 321.712 348.135 334.196 348.293L334.19 348.366H362.783C366.188 348.366 368.955 351.134 368.955 354.538C368.955 357.942 366.188 360.709 362.783 360.709H349.559C328.655 360.709 311.65 377.715 311.65 398.618C311.65 419.521 328.654 436.528 349.559 436.528H400.694V404.791H349.56C346.155 404.792 343.388 402.023 343.388 398.62Z" fill="#F0F0F0"/><path id="Vector_9" d="M143.042 398.62C143.042 395.216 145.809 392.449 149.214 392.449H162.438C183.342 392.449 200.349 375.443 200.349 354.54C200.349 333.637 183.343 316.63 162.438 316.63H149.88C145.781 313.551 140.282 311.652 134.216 311.652C121.562 311.652 111.305 319.858 111.305 329.979C111.305 340.003 121.366 348.135 133.85 348.293L133.844 348.366H162.438C165.843 348.366 168.61 351.134 168.61 354.538C168.61 357.942 165.843 360.709 162.438 360.709H149.214C128.31 360.709 111.305 377.715 111.305 398.618C111.305 419.521 128.309 436.528 149.214 436.528H200.348V404.791H149.214C145.809 404.792 143.042 402.023 143.042 398.62Z" fill="#F0F0F0"/></g></g></svg>