<svg viewBox="0 0 512 512" fill="none" xmlns="http://www.w3.org/2000/svg"><g id="mexico"><path id="Vector" d="M256 512C397.385 512 512 397.385 512 256C512 114.615 397.385 0 256 0C114.615 0 0 114.615 0 256C0 397.385 114.615 512 256 512Z" fill="#F0F0F0"/><path id="Vector_2" d="M512.001 256C512.001 154.506 452.936 66.81 367.305 25.402V486.597C452.936 445.19 512.001 357.494 512.001 256Z" fill="#D80027"/><g id="Group"><path id="Vector_3" d="M0 256C0 357.494 59.065 445.19 144.696 486.598V25.402C59.065 66.81 0 154.506 0 256Z" fill="#6DA544"/><path id="Vector_4" d="M189.217 256C189.217 292.883 219.117 322.783 256 322.783C292.883 322.783 322.783 292.883 322.783 256V233.739H189.217V256Z" fill="#6DA544"/></g><path id="Vector_5" d="M345.043 211.478H278.26C278.26 199.184 268.293 189.217 255.999 189.217C243.705 189.217 233.738 199.184 233.738 211.478H166.955C166.955 223.773 177.664 233.739 189.957 233.739H189.216C189.216 246.034 199.182 256 211.477 256C211.477 268.295 221.443 278.261 233.738 278.261H278.26C290.555 278.261 300.521 268.295 300.521 256C312.816 256 322.782 246.034 322.782 233.739H322.04C334.335 233.739 345.043 223.773 345.043 211.478Z" fill="#FF9811"/></g></svg>