<svg viewBox="0 0 512 512" fill="none" xmlns="http://www.w3.org/2000/svg"><g id="micronesia"><path id="Vector" d="M256 512C397.385 512 512 397.385 512 256C512 114.615 397.385 0 256 0C114.615 0 0 114.615 0 256C0 397.385 114.615 512 256 512Z" fill="#338AF3"/><g id="Group"><path id="Vector_2" d="M256 111.304L267.051 145.316H302.814L273.883 166.337L284.932 200.348L256 179.328L227.067 200.348L238.12 166.337L209.188 145.316H244.951L256 111.304Z" fill="#F0F0F0"/><path id="Vector_3" d="M111.305 256.002L145.317 244.95V209.186L166.338 238.12L200.349 227.069L179.329 256.002L200.349 284.932L166.338 273.88L145.317 302.813V267.051L111.305 256.002Z" fill="#F0F0F0"/><path id="Vector_4" d="M256.003 400.696L244.951 366.684H209.188L238.121 345.663L227.07 311.652L256.003 332.672L284.934 311.652L273.882 345.663L302.814 366.684H267.052L256.003 400.696Z" fill="#F0F0F0"/><path id="Vector_5" d="M400.696 255.999L366.684 267.05V302.813L345.663 273.88L311.652 284.931L332.672 255.999L311.652 227.068L345.663 238.12L366.684 209.186V244.949L400.696 255.999Z" fill="#F0F0F0"/></g></g></svg>