<svg viewBox="0 0 512 512" fill="none" xmlns="http://www.w3.org/2000/svg"><g id="mongolia"><path id="Vector" d="M256 512C287.314 512 317.311 506.368 345.043 496.077L356.174 256L345.044 15.923C317.311 5.633 287.314 0 256 0C224.686 0 194.689 5.633 166.957 15.923L155.826 256L166.956 496.077C194.689 506.368 224.686 512 256 512Z" fill="#0052B4"/><g id="Group"><path id="Vector_2" d="M0 256C0 366.071 69.472 459.906 166.957 496.077V15.9231C69.472 52.0941 0 145.929 0 256Z" fill="#A2001D"/><path id="Vector_3" d="M345.043 15.9231V496.078C442.528 459.906 512 366.071 512 256C512 145.929 442.528 52.0941 345.043 15.9231Z" fill="#A2001D"/></g><g id="Group_2"><path id="Vector_4" d="M122.435 256H144.696V345.043H122.435V256Z" fill="#FFDA44"/><path id="Vector_5" d="M33.3906 256H55.6516V345.043H33.3906V256Z" fill="#FFDA44"/><path id="Vector_6" d="M89.0423 311.652C101.337 311.652 111.303 301.685 111.303 289.391C111.303 277.096 101.337 267.13 89.0423 267.13C76.7478 267.13 66.7812 277.096 66.7812 289.391C66.7812 301.685 76.7478 311.652 89.0423 311.652Z" fill="#FFDA44"/><path id="Vector_7" d="M89.0431 222.608C95.19 222.608 100.173 217.625 100.173 211.478C100.173 205.331 95.19 200.348 89.0431 200.348C82.8962 200.348 77.9131 205.331 77.9131 211.478C77.9131 217.625 82.8962 222.608 89.0431 222.608Z" fill="#FFDA44"/><path id="Vector_8" d="M66.7822 322.783H111.304V345.044H66.7822V322.783Z" fill="#FFDA44"/><path id="Vector_9" d="M66.7822 233.739H111.304V256H66.7822V233.739Z" fill="#FFDA44"/><path id="Vector_10" d="M89.0424 133.565L96.9264 157.825H122.434L101.799 172.819L109.677 197.079L89.0424 182.085L68.4084 197.079L76.2864 172.819L55.6514 157.825H81.1594L89.0424 133.565Z" fill="#FFDA44"/></g></g></svg>