<svg viewBox="0 0 512 512" fill="none" xmlns="http://www.w3.org/2000/svg"><g id="montserrat"><path id="Vector" d="M512 256C512 397.384 397.384 512 256 512C114.616 512 0 397.384 0 256C0 256.061 256 0.028 256 0C397.384 0 512 114.616 512 256Z" fill="#0052B4"/><g id="Group"><path id="Vector_2" d="M255.315 256H256C256 255.77 256 255.546 256 255.315C255.772 255.544 255.544 255.772 255.315 256Z" fill="#F0F0F0"/><path id="Vector_3" d="M256 133.565C256 88.52 256 59.005 256 0H255.957C114.591 0.024 0 114.629 0 256H133.565V180.789L208.776 256H255.316C255.544 255.772 255.772 255.544 256.001 255.315C256.001 238.068 256.001 222.679 256.001 208.778L180.788 133.565H256Z" fill="#F0F0F0"/></g><g id="Group_2"><path id="Vector_4" d="M129.515 33.3911C89.4756 56.1901 56.1886 89.4761 33.3906 129.515V256H100.174V100.176V100.174H256C256 79.1111 256 59.0451 256 33.3911H129.515Z" fill="#D80027"/><path id="Vector_5" d="M255.999 224.519L165.044 133.566H133.564V133.568L255.997 256H255.999C255.999 256 255.999 234.293 255.999 224.519Z" fill="#D80027"/></g><path id="Vector_6" d="M289.391 133.565V255.999C289.391 315.639 367.304 333.913 367.304 333.913C367.304 333.913 445.217 315.639 445.217 255.999V133.565H289.391Z" fill="#338AF3"/><path id="Vector_7" d="M289.391 255.999C289.391 315.639 367.304 333.913 367.304 333.913C367.304 333.913 445.217 315.639 445.217 255.999H289.391Z" fill="#A2001D"/><path id="Vector_8" d="M400.696 189.219H378.434V166.957H356.173V189.219H333.913V211.479H356.173V278.261H378.434V211.479H400.696V189.219Z" fill="black"/></g></svg>