<svg viewBox="0 0 512 512" fill="none" xmlns="http://www.w3.org/2000/svg"><g id="mozambique" clip-path="url(#clip0_1_1268)"><path id="Vector" d="M256 512C397.385 512 512 397.385 512 256C512 114.615 397.385 0 256 0C114.615 0 0 114.615 0 256C0 397.385 114.615 512 256 512Z" fill="#F0F0F0"/><path id="Vector_2" d="M138.371 356.174L74.9893 437.011C121.313 483.341 185.306 512 256 512C361.83 512 452.644 447.771 491.631 356.174H138.371Z" fill="#FFDA44"/><path id="Vector_3" d="M492.029 156.753C453.26 64.662 362.188 0 256 0C185.306 0 121.313 28.659 74.9893 74.989L139.099 156.753H492.029Z" fill="#496E2D"/><path id="Vector_4" d="M55.6523 188.29V322.782H503.182C508.924 301.491 512 279.107 512 256C512 232.558 508.842 209.858 502.939 188.29H55.6523Z" fill="black"/><path id="Vector_5" d="M74.9795 74.98C-24.9945 174.954 -24.9945 337.045 74.9795 437.02C116.293 395.707 156.026 355.974 256 256L74.9795 74.98Z" fill="#A2001D"/><path id="Vector_6" d="M103.61 189.217L120.185 240.233H173.831L130.433 271.765L147.007 322.783L103.61 291.252L60.2106 322.783L76.7886 271.765L33.3906 240.233H87.0326L103.61 189.217Z" fill="#FFDA44"/><path id="Vector_7" d="M55.1074 256H152.131V300.522H55.1074V256Z" fill="#F0F0F0"/><path id="Vector_8" d="M170.5 204.959L154.759 189.217L103.611 240.365L52.4627 189.217L36.7217 204.959L87.9147 256.061L36.7217 307.255L52.4627 322.783L103.611 271.727L154.759 322.783L170.5 307.255L119.307 256.061L170.5 204.959Z" fill="black"/></g><defs><clipPath id="clip0_1_1268"><rect width="512" height="512" fill="white"/></clipPath></defs></svg>