<svg viewBox="0 0 512 512" fill="none" xmlns="http://www.w3.org/2000/svg"><g id="namibia"><path id="Vector" d="M256 512C397.385 512 512 397.385 512 256C512 114.615 397.385 0 256 0C114.615 0 0 114.615 0 256C0 397.385 114.615 512 256 512Z" fill="#F0F0F0"/><path id="Vector_2" d="M74.9814 437.02C85.7204 447.759 97.1784 457.336 109.197 465.768L465.766 109.198C457.335 97.1791 447.758 85.7211 437.018 74.9821C426.279 64.2431 414.821 54.6671 402.802 46.2351L46.2344 402.805C54.6654 414.822 64.2424 426.281 74.9814 437.02Z" fill="#A2001D"/><path id="Vector_3" d="M74.9811 74.9801C-5.78291 155.744 -21.2869 277.036 28.4361 373.378L373.378 28.4371C277.036 -21.2859 155.743 -5.77988 74.9811 74.9801Z" fill="#0052B4"/><path id="Vector_4" d="M437.018 437.02C517.78 356.258 533.284 234.965 483.563 138.622L138.621 483.564C234.962 533.287 356.255 517.783 437.018 437.02Z" fill="#496E2D"/><path id="Vector_5" d="M211.478 144.696L182.792 158.189L198.068 185.971L166.919 180.013L162.971 211.478L141.275 188.335L119.578 211.478L115.632 180.013L84.4823 185.97L99.7573 158.188L71.0723 144.696L99.7583 131.202L84.4823 103.422L115.631 109.38L119.579 77.9131L141.275 101.057L162.972 77.9131L166.919 109.38L198.068 103.422L182.794 131.203L211.478 144.696Z" fill="#FFDA44"/></g></svg>