<svg viewBox="0 0 512 512" fill="none" xmlns="http://www.w3.org/2000/svg"><g id="nauru" clip-path="url(#clip0_1_1301)"><path id="Vector" d="M256 512C397.385 512 512 397.385 512 256C512 114.615 397.385 0 256 0C114.615 0 0 114.615 0 256C0 397.385 114.615 512 256 512Z" fill="#0052B4"/><path id="Vector_2" d="M256 512C397.385 512 512 397.385 512 256C512 114.615 397.385 0 256 0C114.615 0 0 114.615 0 256C0 397.385 114.615 512 256 512Z" fill="#FFDA44"/><g id="Group"><path id="Vector_3" d="M256 0C122.116 0 12.2576 102.781 0.974609 233.739H511.026C499.742 102.781 389.884 0 256 0Z" fill="#0052B4"/><path id="Vector_4" d="M256 512C389.884 512 499.742 409.219 511.026 278.261H0.974609C12.2576 409.219 122.116 512 256 512Z" fill="#0052B4"/></g><path id="Vector_5" d="M211.479 345.043L182.793 358.537L198.068 386.318L166.919 380.359L162.972 411.826L141.275 388.683L119.579 411.826L115.632 380.359L84.4823 386.317L99.7583 358.536L71.0723 345.043L99.7593 331.55L84.4823 303.77L115.631 309.728L119.58 278.261L141.275 301.404L162.973 278.261L166.919 309.728L198.069 303.77L182.794 331.551L211.479 345.043Z" fill="#F0F0F0"/></g><defs><clipPath id="clip0_1_1301"><rect width="512" height="512" fill="white"/></clipPath></defs></svg>