<svg viewBox="0 0 512 512" fill="none" xmlns="http://www.w3.org/2000/svg"><g id="nepal" clip-path="url(#clip0_1_1308)"><path id="Vector" d="M256 512C397.385 512 512 397.385 512 256C512 114.615 397.385 0 256 0C114.615 0 0 114.615 0 256C0 397.385 114.615 512 256 512Z" fill="#F0F0F0"/><g id="Group"><path id="Vector_2" d="M510.497 283.826L510.491 283.818L510.49 283.826H510.497Z" fill="#0052B4"/><path id="Vector_3" d="M510.49 283.826C510.49 283.824 510.491 283.822 510.491 283.818L229.746 1.33105C217.081 2.62205 204.688 4.83606 192.637 7.90506C81.898 36.1001 0 256 0 256C0 256 358.398 495.835 399.285 468.164C407.466 462.628 415.31 456.631 422.778 450.211L256.395 283.826H510.49Z" fill="#0052B4"/></g><path id="Vector_4" d="M445.217 256L196.245 7.02905C83.688 33.9461 0 135.192 0 256C0 397.384 114.616 512 256 512C309.629 512 359.397 495.498 400.529 467.311L189.217 256H445.217Z" fill="#D80027"/><g id="Group_2"><path id="Vector_5" d="M243.472 377.993L212.207 363.287L228.856 333.008L194.906 339.503L190.604 305.205L166.957 330.43L143.31 305.205L139.007 339.503L105.058 333.007L121.707 363.287L90.4414 377.993L121.707 392.698L105.058 422.978L139.009 416.484L143.309 450.78L166.957 425.555L190.604 450.78L194.906 416.484L228.855 422.979L212.206 392.7L243.472 377.993Z" fill="#F0F0F0"/><path id="Vector_6" d="M222.61 141.983L199.87 131.288L211.979 109.265L187.286 113.989L184.157 89.043L166.958 107.39L149.759 89.043L146.629 113.989L121.936 109.265L134.046 131.288L111.305 141.983L166.958 153.115L222.61 141.983Z" fill="#F0F0F0"/><path id="Vector_7" d="M233.74 141.983C233.74 178.866 203.84 208.766 166.957 208.766C130.074 208.766 100.174 178.866 100.174 141.983" fill="#F0F0F0"/></g></g><defs><clipPath id="clip0_1_1308"><rect width="512" height="512" fill="white"/></clipPath></defs></svg>