<svg viewBox="0 0 512 512" fill="none" xmlns="http://www.w3.org/2000/svg"><g id="new zealand" clip-path="url(#clip0_1_1322)"><path id="Vector" d="M512 256C512 397.384 397.384 512 256 512C114.616 512 0 397.384 0 256C0 256.061 256 0.028 256 0C397.384 0 512 114.616 512 256Z" fill="#0052B4"/><g id="Group"><path id="Vector_2" d="M255.315 256H256C256 255.77 256 255.546 256 255.315C255.772 255.544 255.544 255.772 255.315 256Z" fill="#F0F0F0"/><path id="Vector_3" d="M256 133.565C256 88.52 256 59.005 256 0H255.957C114.592 0.024 0 114.629 0 256H133.565V180.789L208.777 256H255.316C255.544 255.772 255.773 255.544 256.001 255.315C256.001 238.068 256.001 222.679 256.001 208.778L180.788 133.565H256Z" fill="#F0F0F0"/></g><g id="Group_2"><path id="Vector_4" d="M129.515 33.3911C89.4756 56.1901 56.1896 89.4761 33.3906 129.515V256H100.174V100.176V100.174H256C256 79.1111 256 59.0451 256 33.3911H129.515Z" fill="#D80027"/><path id="Vector_5" d="M255.999 224.519L165.046 133.566C165.046 133.566 133.565 133.568 133.565 133.566V133.568L255.998 256H255.999C255.999 256 255.999 234.293 255.999 224.519Z" fill="#D80027"/><path id="Vector_6" d="M443.33 189.959L448.855 206.965H466.736L452.27 217.475L457.796 234.48L443.33 223.971L428.863 234.48L434.389 217.475L419.922 206.965H437.803L443.33 189.959Z" fill="#D80027"/><path id="Vector_7" d="M379.411 312.393L387.7 337.903H414.521L392.821 353.667L401.111 379.176L379.411 363.411L357.711 379.176L366.001 353.667L344.301 337.903H371.122L379.411 312.393Z" fill="#D80027"/><path id="Vector_8" d="M381.824 112.046L388.732 133.305H411.083L392.999 146.44L399.907 167.698L381.824 154.559L363.742 167.698L370.649 146.44L352.567 133.305H374.917L381.824 112.046Z" fill="#D80027"/><path id="Vector_9" d="M320.322 189.217L328.61 214.727H355.432L333.732 230.491L342.022 256L320.322 240.235L298.622 256L306.912 230.491L285.212 214.727H312.033L320.322 189.217Z" fill="#D80027"/></g></g><defs><clipPath id="clip0_1_1322"><rect width="512" height="512" fill="white"/></clipPath></defs></svg>