<svg viewBox="0 0 512 512" fill="none" xmlns="http://www.w3.org/2000/svg"><g id="nicaragua" clip-path="url(#clip0_1_1335)"><path id="Vector" d="M256 512C397.385 512 512 397.385 512 256C512 114.615 397.385 0 256 0C114.615 0 0 114.615 0 256C0 397.385 114.615 512 256 512Z" fill="#F0F0F0"/><g id="Group"><path id="Vector_2" d="M256 0C154.506 0 66.8103 59.065 25.4023 144.696H486.597C445.19 59.065 357.493 0 256 0Z" fill="#338AF3"/><path id="Vector_3" d="M256 512C357.493 512 445.19 452.935 486.598 367.304H25.4023C66.8103 452.935 154.506 512 256 512Z" fill="#338AF3"/></g><path id="Vector_4" d="M256 178.087C212.97 178.087 178.087 212.97 178.087 256C178.087 299.03 212.97 333.913 256 333.913C299.03 333.913 333.913 299.03 333.913 256C333.913 212.97 299.03 178.087 256 178.087ZM256 300.522C231.412 300.522 211.478 280.59 211.478 256C211.478 231.41 231.411 211.478 256 211.478C280.589 211.478 300.522 231.41 300.522 256C300.522 280.59 280.588 300.522 256 300.522Z" fill="#FFDA44"/><path id="Vector_5" d="M294.558 267.13L256 256L217.442 267.13L204.59 289.391H307.409L294.558 267.13Z" fill="#0052B4"/><path id="Vector_6" d="M256 200.348L230.295 244.87L256 256L281.705 244.87L256 200.348Z" fill="#338AF3"/><path id="Vector_7" d="M217.442 267.13H294.558L281.705 244.87H230.295L217.442 267.13Z" fill="#6DA544"/></g><defs><clipPath id="clip0_1_1335"><rect width="512" height="512" fill="white"/></clipPath></defs></svg>