<svg viewBox="0 0 512 512" fill="none" xmlns="http://www.w3.org/2000/svg"><g id="niger" clip-path="url(#clip0_1_1344)"><path id="Vector" d="M25.402 144.696C9.128 178.352 0 216.109 0 256C0 295.891 9.128 333.648 25.402 367.304L256 389.565L486.598 367.304C502.872 333.648 512 295.891 512 256C512 216.109 502.872 178.352 486.598 144.696L256 122.435L25.402 144.696Z" fill="#F0F0F0"/><path id="Vector_2" d="M25.4111 367.304C66.8171 452.935 154.506 512 256 512C357.494 512 445.183 452.935 486.589 367.304H25.4111Z" fill="#6DA544"/><g id="Group"><path id="Vector_3" d="M25.4111 144.696H486.589C445.183 59.065 357.493 0 256 0C154.507 0 66.8171 59.065 25.4111 144.696Z" fill="#FF9811"/><path id="Vector_4" d="M256 345.043C305.177 345.043 345.043 305.177 345.043 256C345.043 206.823 305.177 166.957 256 166.957C206.823 166.957 166.957 206.823 166.957 256C166.957 305.177 206.823 345.043 256 345.043Z" fill="#FF9811"/></g></g><defs><clipPath id="clip0_1_1344"><rect width="512" height="512" fill="white"/></clipPath></defs></svg>