<svg viewBox="0 0 512 512" fill="none" xmlns="http://www.w3.org/2000/svg"><g id="norfolk island" clip-path="url(#clip0_1_1372)"><path id="Vector" d="M367.305 25.402C333.649 9.128 295.892 0 256.001 0C216.11 0 178.353 9.128 144.697 25.402L122.436 256L144.697 486.598C178.353 502.872 216.11 512 256.001 512C295.892 512 333.649 502.872 367.305 486.598L389.566 256L367.305 25.402Z" fill="#F0F0F0"/><g id="Group"><path id="Vector_2" d="M144.696 25.4109C59.065 66.8169 0 154.506 0 256C0 357.494 59.065 445.183 144.696 486.589V25.4109Z" fill="#6DA544"/><path id="Vector_3" d="M367.305 25.4109V486.589C452.936 445.183 512.001 357.493 512.001 256C512.001 154.507 452.936 66.8169 367.305 25.4109Z" fill="#6DA544"/><path id="Vector_4" d="M322.783 333.913L256 122.435L189.217 333.913H239.304V389.565H272.696V333.913H322.783Z" fill="#6DA544"/></g></g><defs><clipPath id="clip0_1_1372"><rect width="512" height="512" fill="white"/></clipPath></defs></svg>