<svg viewBox="0 0 512 512" fill="none" xmlns="http://www.w3.org/2000/svg"><g id="north korea" clip-path="url(#clip0_1_1378)"><path id="Vector" d="M256 512C397.385 512 512 397.385 512 256C512 114.615 397.385 0 256 0C114.615 0 0 114.615 0 256C0 397.385 114.615 512 256 512Z" fill="#F0F0F0"/><g id="Group"><path id="Vector_2" d="M256 0C178.409 0 108.886 34.524 61.9395 89.043H450.06C403.114 34.524 333.591 0 256 0Z" fill="#0052B4"/><path id="Vector_3" d="M450.061 422.957H61.9395C108.886 477.476 178.409 512 256 512C333.591 512 403.114 477.476 450.061 422.957Z" fill="#0052B4"/></g><path id="Vector_4" d="M474.426 122.435H37.574C13.745 161.32 0 207.053 0 256C0 304.947 13.745 350.681 37.574 389.565H474.426C498.255 350.681 512 304.947 512 256C512 207.053 498.255 161.32 474.426 122.435Z" fill="#D80027"/><path id="Vector_5" d="M157.496 354.504C211.898 354.504 256 310.402 256 256C256 201.598 211.898 157.496 157.496 157.496C103.094 157.496 58.9922 201.598 58.9922 256C58.9922 310.402 103.094 354.504 157.496 354.504Z" fill="#F0F0F0"/><path id="Vector_6" d="M157.496 157.496L179.597 225.517H251.235L193.258 267.559L215.532 335.783L157.496 293.541L99.5476 335.704L121.734 267.559L63.8086 225.517H135.394L157.496 157.496Z" fill="#D80027"/></g><defs><clipPath id="clip0_1_1378"><rect width="512" height="512" fill="white"/></clipPath></defs></svg>