<svg viewBox="0 0 512 512" fill="none" xmlns="http://www.w3.org/2000/svg"><g id="northern cyprus"><path id="Vector" d="M256 512C397.385 512 512 397.385 512 256C512 114.615 397.385 0 256 0C114.615 0 0 114.615 0 256C0 397.385 114.615 512 256 512Z" fill="#F0F0F0"/><g id="Group"><path id="Vector_2" d="M61.9392 89.043C52.9562 99.476 44.8012 110.639 37.5732 122.434H474.425C467.197 110.639 459.043 99.475 450.059 89.043H61.9392Z" fill="#D80027"/><path id="Vector_3" d="M61.9392 422.957H450.06C459.043 412.524 467.198 401.361 474.426 389.566H37.5742C44.8012 401.36 52.9562 412.524 61.9392 422.957Z" fill="#D80027"/><path id="Vector_4" d="M223.24 209.186L244.244 238.131L278.261 227.101L257.224 256.021L278.226 284.965L244.221 273.893L223.184 302.813L223.205 267.052L189.2 255.98L223.218 244.95L223.24 209.186Z" fill="#D80027"/><path id="Vector_5" d="M165.915 328.348C125.959 328.348 93.5669 295.956 93.5669 256C93.5669 216.044 125.959 183.652 165.915 183.652C178.373 183.652 190.096 186.802 200.33 192.348C184.275 176.647 162.318 166.956 138.089 166.956C88.9109 166.956 49.0459 206.822 49.0459 255.999C49.0459 305.176 88.9119 345.042 138.089 345.042C162.318 345.042 184.275 335.351 200.33 319.65C190.096 325.198 178.374 328.348 165.915 328.348Z" fill="#D80027"/></g></g></svg>