<svg viewBox="0 0 512 512" fill="none" xmlns="http://www.w3.org/2000/svg"><g id="orkney islands" clip-path="url(#clip0_1_1415)"><path id="Vector" d="M503.181 322.783C508.92 301.489 512 279.107 512 256C512 232.893 508.92 210.511 503.181 189.217L233.739 0.974121C183.718 5.28412 137.815 23.9741 100.174 52.8951L8.819 189.217C3.08 210.511 0 232.893 0 256C0 278.972 3.043 301.231 8.718 322.413L100.173 459.105C137.814 488.026 183.717 506.717 233.738 511.026L503.181 322.783Z" fill="#FFDA44"/><g id="Group"><path id="Vector_2" d="M8.81934 322.783C23.6313 377.742 56.2773 425.376 100.174 459.105V322.783H8.81934Z" fill="#D80027"/><path id="Vector_3" d="M233.739 511.026C241.077 511.658 248.498 512 256 512C374.279 512 473.805 431.779 503.181 322.783H233.739V511.026Z" fill="#D80027"/><path id="Vector_4" d="M503.181 189.217C473.805 80.221 374.279 0 256 0C248.498 0 241.077 0.342 233.739 0.974V189.217H503.181Z" fill="#D80027"/><path id="Vector_5" d="M100.174 52.895C56.2773 86.625 23.6313 134.258 8.81934 189.217H100.174V52.895Z" fill="#D80027"/></g><path id="Vector_6" d="M509.833 222.609H200.349H200.348V6.08496C176.69 11.331 154.261 19.834 133.565 31.127V222.608H2.167C0.744 233.539 0 244.683 0 256C0 267.317 0.744 278.461 2.167 289.391H133.564H133.565V480.872C154.261 492.164 176.69 500.669 200.348 505.914V289.394V289.392H509.833C511.256 278.461 512 267.317 512 256C512 244.683 511.256 233.539 509.833 222.609Z" fill="#0052B4"/></g><defs><clipPath id="clip0_1_1415"><rect width="512" height="512" fill="white"/></clipPath></defs></svg>