<svg viewBox="0 0 512 512" fill="none" xmlns="http://www.w3.org/2000/svg"><g id="pakistan"><g id="Group"><path id="Vector" d="M256 512C397.385 512 512 397.385 512 256C512 114.615 397.385 0 256 0C114.615 0 0 114.615 0 256C0 397.385 114.615 512 256 512Z" fill="#F0F0F0"/><path id="Vector_2" d="M0 256C0 353.035 53.989 437.454 133.565 480.873V31.127C53.989 74.546 0 158.965 0 256Z" fill="#F0F0F0"/></g><path id="Vector_3" d="M256 0C211.65 0 169.936 11.283 133.565 31.127V480.872C169.936 500.717 211.65 512 256 512C397.384 512 512 397.384 512 256C512 114.616 397.384 0 256 0Z" fill="#496E2D"/><g id="Group_2"><path id="Vector_4" d="M365.453 298.337C333.066 321.738 287.84 314.454 264.44 282.068C241.038 249.68 248.323 204.455 280.71 181.055C290.808 173.759 302.154 169.446 313.697 167.947C291.49 164.626 268.015 169.63 248.378 183.819C208.518 212.621 199.551 268.282 228.352 308.144C257.153 348.003 312.815 356.971 352.677 328.167C372.316 313.978 384.437 293.265 388.255 271.136C383.209 281.622 375.552 291.04 365.453 298.337Z" fill="#F0F0F0"/><path id="Vector_5" d="M364.067 166.959L382.311 186.62L406.647 175.348L393.584 198.772L411.827 218.435L385.511 213.25L372.449 236.676L369.248 210.046L342.932 204.861L367.269 193.589L364.067 166.959Z" fill="#F0F0F0"/></g></g></svg>