<svg viewBox="0 0 512 512" fill="none" xmlns="http://www.w3.org/2000/svg"><g id="palestine" clip-path="url(#clip0_1_1438)"><path id="Vector" d="M256 512C397.385 512 512 397.385 512 256C512 114.615 397.385 0 256 0C114.615 0 0 114.615 0 256C0 397.385 114.615 512 256 512Z" fill="#F0F0F0"/><path id="Vector_2" d="M155.825 166.957H496.075C459.905 69.472 366.069 0 255.999 0C185.305 0 121.312 28.659 74.9883 74.989L155.825 166.957Z" fill="black"/><path id="Vector_3" d="M155.825 345.043H496.075C459.905 442.528 366.069 512 255.999 512C185.305 512 121.312 483.341 74.9883 437.011L155.825 345.043Z" fill="#6DA544"/><path id="Vector_4" d="M74.9805 74.98C-24.9935 174.954 -24.9935 337.045 74.9805 437.02C116.294 395.707 156.026 355.974 256 256L74.9805 74.98Z" fill="#D80027"/></g><defs><clipPath id="clip0_1_1438"><rect width="512" height="512" fill="white"/></clipPath></defs></svg>