<svg viewBox="0 0 512 512" fill="none" xmlns="http://www.w3.org/2000/svg"><g id="philippines"><path id="Vector" d="M256 512C397.385 512 512 397.385 512 256C512 114.615 397.385 0 256 0C114.615 0 0 114.615 0 256C0 397.385 114.615 512 256 512Z" fill="#F0F0F0"/><path id="Vector_2" d="M256 0V256L74.9805 437.02C121.307 483.346 185.307 512 256 512C397.384 512 512 397.384 512 256C512 114.616 256 0 256 0Z" fill="#D80027"/><path id="Vector_3" d="M256 0C185.307 0 121.307 28.654 74.9805 74.98C137.79 137.79 160.087 160.088 256 256H512C512 114.616 397.384 0 256 0Z" fill="#0052B4"/><g id="Group"><path id="Vector_4" d="M175.291 256L144.027 241.294L160.676 211.015L126.726 217.51L122.424 183.213L98.7757 208.437L75.1287 183.213L70.8257 217.51L36.8767 211.014L53.5257 241.294L22.2607 256L53.5257 270.706L36.8767 300.985L70.8287 294.491L75.1277 328.787L98.7757 303.563L122.424 328.787L126.726 294.491L160.674 300.986L144.026 270.707L175.291 256Z" fill="#FFDA44"/><path id="Vector_5" d="M68.2728 100.174L78.6768 114.717L95.7218 109.318L85.1038 123.706L95.5078 138.249L78.5418 132.598L67.9248 146.985L68.0578 129.105L51.0928 123.453L68.1408 118.054L68.2728 100.174Z" fill="#FFDA44"/><path id="Vector_6" d="M68.2728 365.015L78.6768 379.558L95.7218 374.158L85.1038 388.547L95.5078 403.09L78.5418 397.439L67.9248 411.826L68.0578 393.946L51.0928 388.294L68.1408 382.895L68.2728 365.015Z" fill="#FFDA44"/><path id="Vector_7" d="M216.666 232.595L206.263 247.138L189.217 241.737L199.835 256.126L189.431 270.67L206.397 265.018L217.015 279.405L216.881 261.526L233.846 255.874L216.799 250.475L216.666 232.595Z" fill="#FFDA44"/></g></g></svg>