<svg viewBox="0 0 512 512" fill="none" xmlns="http://www.w3.org/2000/svg"><g id="puerto rico" clip-path="url(#clip0_1_1501)"><path id="Vector" d="M256 512C397.385 512 512 397.385 512 256C512 114.615 397.385 0 256 0C114.615 0 0 114.615 0 256C0 397.385 114.615 512 256 512Z" fill="#F0F0F0"/><g id="Group"><path id="Vector_2" d="M256 0C172.248 0 97.8935 40.223 51.1895 102.4H460.811C414.107 40.223 339.752 0 256 0Z" fill="#D80027"/><path id="Vector_3" d="M256 512C339.752 512 414.107 471.777 460.811 409.6H51.1895C97.8935 471.777 172.248 512 256 512Z" fill="#D80027"/><path id="Vector_4" d="M0 256C0 273.535 1.768 290.657 5.127 307.2H506.875C510.234 290.657 512 273.535 512 256C512 238.465 510.232 221.343 506.874 204.8H5.127C1.768 221.343 0 238.465 0 256H0Z" fill="#D80027"/></g><path id="Vector_5" d="M74.9795 74.98C-24.9945 174.954 -24.9945 337.045 74.9795 437.02C116.293 395.707 156.026 355.974 256 256L74.9795 74.98Z" fill="#0052B4"/><path id="Vector_6" d="M103.61 189.217L120.185 240.233H173.831L130.433 271.765L147.007 322.783L103.61 291.252L60.2106 322.783L76.7886 271.765L33.3906 240.233H87.0326L103.61 189.217Z" fill="#F0F0F0"/></g><defs><clipPath id="clip0_1_1501"><rect width="512" height="512" fill="white"/></clipPath></defs></svg>