<svg viewBox="0 0 512 512" fill="none" xmlns="http://www.w3.org/2000/svg"><g id="Rapa Nui"><path id="Vector" d="M256 512C397.385 512 512 397.385 512 256C512 114.615 397.385 0 256 0C114.615 0 0 114.615 0 256C0 397.385 114.615 512 256 512Z" fill="#FCFCFC"/><path id="Vector_2" d="M333.913 211.478V233.739H364.465C351.715 251.459 334.732 265.925 315 275.666C309.938 270.407 302.831 267.13 294.956 267.13C281.681 267.13 270.585 276.429 267.806 288.868C263.916 289.21 259.979 289.391 256 289.391C252.021 289.391 248.084 289.208 244.194 288.868C241.415 276.43 230.319 267.13 217.044 267.13C209.169 267.13 202.064 270.407 197 275.666C177.268 265.926 160.286 251.458 147.536 233.739H178.087V211.478H100.174C100.174 297.537 169.941 367.304 256 367.304C342.061 367.304 411.826 297.537 411.826 211.478H333.913Z" fill="#D80027"/></g></svg>