<svg viewBox="0 0 512 512" fill="none" xmlns="http://www.w3.org/2000/svg"><g id="saba island" clip-path="url(#clip0_1_1545)"><path id="Vector" d="M256 512C397.385 512 512 397.385 512 256C512 114.615 397.385 0 256 0C114.615 0 0 114.615 0 256C0 397.385 114.615 512 256 512Z" fill="#F0F0F0"/><g id="Group"><path id="Vector_2" d="M256 9.48356e-05C255.761 -0.179905 -0.0679865 255.933 1.35535e-05 256C1.35535e-05 114.616 114.616 9.48356e-05 256 9.48356e-05Z" fill="#D80027"/><path id="Vector_3" d="M256 9.48359e-05C256.239 -0.179905 512.068 255.932 512 256C512 114.616 397.384 9.48359e-05 256 9.48359e-05Z" fill="#D80027"/></g><g id="Group_2"><path id="Vector_4" d="M256 512C255.761 512.18 -0.0679865 256.068 1.35535e-05 256C1.35535e-05 397.384 114.616 512 256 512Z" fill="#0052B4"/><path id="Vector_5" d="M256 512C256.239 512.18 512.068 256.068 512 256C512 397.384 397.384 512 256 512Z" fill="#0052B4"/></g><path id="Vector_6" d="M256 133.565L283.628 218.594H373.033L300.702 271.144L328.33 356.174L256 303.623L183.67 356.174L211.298 271.144L138.968 218.594H228.372L256 133.565Z" fill="#FFDA44"/></g><defs><clipPath id="clip0_1_1545"><rect width="512" height="512" fill="white"/></clipPath></defs></svg>