<svg viewBox="0 0 512 512" fill="none" xmlns="http://www.w3.org/2000/svg"><g id="sahrawi arab democratic republic" clip-path="url(#clip0_1_1554)"><path id="Vector" d="M25.402 144.696C9.128 178.352 0 216.109 0 256C0 295.891 9.128 333.648 25.402 367.304L256 389.565L486.598 367.304C502.872 333.648 512 295.891 512 256C512 216.109 502.872 178.352 486.598 144.696L256 122.435L25.402 144.696Z" fill="#F0F0F0"/><path id="Vector_2" d="M25.4111 367.304C66.8171 452.935 154.507 512 256 512C357.493 512 445.183 452.935 486.589 367.304H25.4111Z" fill="#496E2D"/><path id="Vector_3" d="M25.4111 144.696H486.589C445.183 59.065 357.494 0 256 0C154.506 0 66.8171 59.065 25.4111 144.696Z" fill="black"/><g id="Group"><path id="Vector_4" d="M74.9795 74.98C-24.9945 174.954 -24.9945 337.045 74.9795 437.02C116.293 395.707 156.026 355.974 256 256L74.9795 74.98Z" fill="#D80027"/><path id="Vector_5" d="M322.783 256C322.783 218.702 348.996 187.543 384 179.899C378.62 178.724 373.038 178.087 367.304 178.087C324.273 178.087 289.391 212.969 289.391 256C289.391 299.031 324.273 333.913 367.304 333.913C373.037 333.913 378.619 333.276 384 332.101C348.996 324.457 322.783 293.298 322.783 256Z" fill="#D80027"/><path id="Vector_6" d="M387.273 205.913L398.326 239.927H434.087L405.155 260.945L416.207 294.957L387.273 273.937L358.342 294.957L369.395 260.945L340.461 239.927H376.222L387.273 205.913Z" fill="#D80027"/></g></g><defs><clipPath id="clip0_1_1554"><rect width="512" height="512" fill="white"/></clipPath></defs></svg>