<svg viewBox="0 0 512 512" fill="none" xmlns="http://www.w3.org/2000/svg"><g id="saint kitts and nevis"><g id="saint kitts and nevis_2"><path id="path0" fill-rule="evenodd" clip-rule="evenodd" d="M241.006 0.394898C92.923 8.3247 -17.7968 142.684 2.37652 289.979C2.95521 294.199 3.47813 297.699 3.53773 297.759C3.705 297.928 388.954 41.5708 390.665 40.1533L392.17 38.9064L387.768 36.3111C342.553 9.66552 293.243 -2.40183 241.006 0.394898Z" fill="#04943B"/><path id="path1" fill-rule="evenodd" clip-rule="evenodd" d="M318.332 348.066C213.15 418.673 127.092 476.714 127.092 477.046C127.092 478.474 148.989 489.504 162.212 494.738C182.21 502.651 200.629 507.521 222.551 510.692C233.778 512.317 277.507 512.467 288.851 510.922C409.14 494.536 499.194 400.547 511.156 278.902C512.684 263.349 512.053 233.605 509.941 221.763L509.57 219.688L318.332 348.066Z" fill="#EC3444"/><path id="path2" fill-rule="evenodd" clip-rule="evenodd" d="M390.588 41.4065C389.597 42.2004 302.212 100.295 196.401 170.503C90.5878 240.711 3.86168 298.292 3.67482 298.461C3.04102 299.034 9.50805 327.599 10.7795 329.841C10.9452 330.136 417.615 60.7055 419.135 59.2941C419.713 58.7591 420.037 59.0429 411.601 52.6629C404.417 47.2303 393.695 39.9203 392.944 39.9433C392.637 39.9529 391.578 40.6107 390.588 41.4065ZM376.698 103.465C376.698 103.797 378.884 111.929 381.556 121.538C389.667 150.694 390.092 152.435 389.26 153.122C388.863 153.45 379.272 159.883 367.946 167.418L347.355 181.117L350.837 181.43C352.754 181.6 363.465 182.101 374.641 182.542C401.566 183.602 398.981 183.144 400.046 187.031C405.517 206.969 412.975 232.387 413.26 232.08C413.707 231.599 418.552 218.954 425.577 199.941C428.492 192.055 431.045 185.411 431.251 185.173C431.588 184.788 469.174 185.969 477.52 186.627C483.264 187.079 483.056 186.6 474.574 179.903C440.787 153.229 442.944 155.053 443.266 153.455C443.428 152.644 447.275 141.831 451.812 129.424C456.35 117.017 459.997 106.8 459.918 106.721C459.837 106.64 450.178 112.884 438.452 120.593C425.81 128.906 416.912 134.444 416.591 134.201C415.032 133.012 386.01 110.244 381.712 106.838C378.956 104.652 376.698 103.133 376.698 103.465ZM300.897 322.479L98.2955 456.978L100.478 458.776C103.768 461.486 115.537 469.611 120.848 472.836L125.541 475.688L317.863 347.983L510.184 220.277L510.017 218.559C509.545 213.751 504.072 187.729 503.579 187.944C503.534 187.963 412.327 248.503 300.897 322.479ZM80.4028 300.284C80.4028 301.007 82.6105 309.215 87.8773 328.073C90.8402 338.677 93.2617 347.734 93.2617 348.198C93.2617 349.427 93.2405 349.445 72.173 363.551C61.5622 370.654 52.5639 376.765 52.1747 377.128C51.1845 378.052 53.0879 378.203 78.0872 379.178C89.6882 379.632 99.9657 380.163 100.927 380.359L102.678 380.717L109.636 404.968L116.595 429.218L117.743 426.629C118.375 425.204 122.403 414.732 126.693 403.355C130.985 391.98 134.678 382.38 134.9 382.023C135.223 381.502 139.359 381.54 156.077 382.225C167.505 382.691 178.928 382.999 181.465 382.907L186.077 382.744L170.406 370.479C152.648 356.582 146.928 351.918 146.605 351.071C146.481 350.749 148.895 343.686 151.968 335.379C155.042 327.07 158.864 316.701 160.463 312.337C162.062 307.972 163.484 304.095 163.623 303.721C163.956 302.823 161.348 304.451 142.309 317.021C133.455 322.866 124.948 328.454 123.401 329.438L120.59 331.229L116.83 328.276C86.6829 304.616 80.4028 299.792 80.4028 300.284Z" fill="#F9D933"/><path id="path3" fill-rule="evenodd" clip-rule="evenodd" d="M215.089 194.074C103.234 268.846 11.4265 330.199 11.0741 330.411C10.5888 330.704 11.0414 332.62 12.9305 338.247C27.8627 382.752 55.4316 423.002 91.676 453.219C94.3644 455.458 96.8274 457.401 97.1528 457.532C97.4763 457.665 188.909 396.904 300.332 322.512L502.922 187.251L501.127 181.243C491.42 148.721 474.413 117.348 451.674 90.0045C443.234 79.8561 420.905 58.0243 419.042 58.0995C418.723 58.113 326.944 119.3 215.089 194.074ZM384.784 108.585C405.791 125.269 415.734 133.016 416.304 133.145C416.643 133.223 426.403 127.013 437.994 119.346C449.587 111.682 459.136 105.611 459.219 105.858C459.3 106.103 455.545 116.764 450.871 129.545C441.006 156.524 441.624 153.515 445.333 156.476C446.958 157.772 455.112 164.231 463.456 170.827C482.399 185.806 484.054 187.332 480.553 186.612C479.775 186.452 476.593 186.211 473.483 186.076C454.147 185.239 447.825 185.042 439.621 185.031L430.443 185.019L422.06 207.49C413.718 229.85 412.678 232.442 412.229 231.992C412.1 231.863 408.919 220.893 405.16 207.615L398.327 183.474L393.996 183.141C391.614 182.958 385.731 182.637 380.924 182.427C376.116 182.219 370.793 181.986 369.096 181.91C367.4 181.835 362.308 181.633 357.785 181.463C344.437 180.96 343.434 182.487 367.764 166.254C379.386 158.499 388.895 151.824 388.895 151.421C388.895 150.275 377.252 106.859 375.775 102.492C375.344 101.217 376.43 101.952 384.784 108.585ZM99.9432 315.499L120.112 331.395L140.218 318.026C160.591 304.479 163.156 302.863 163.15 303.58C163.148 303.8 159.246 314.523 154.478 327.412L145.812 350.843L147.155 352.301C147.894 353.105 152.316 356.827 156.982 360.575C166.324 368.077 184.622 382.565 185.469 383.13C186.973 384.135 163.789 383.699 139.171 382.262L134.472 381.986L127.14 401.691C117.691 427.079 116.312 430.394 115.742 429.087C115.503 428.539 112.335 417.596 108.703 404.771C105.071 391.945 101.979 381.332 101.834 381.186C101.559 380.91 79.0528 379.776 61.1973 379.136C55.6049 378.935 50.9331 378.615 50.8137 378.422C50.6943 378.229 57.4421 373.452 65.8095 367.805C88.5737 352.44 92.7044 349.506 92.7044 348.702C92.7044 347.994 82.3535 310.421 80.3334 303.797C79.3224 300.479 79.1587 299.602 79.5554 299.602C79.6748 299.602 88.849 306.755 99.9432 315.499Z" fill="#040404"/><path id="path4" fill-rule="evenodd" clip-rule="evenodd" d="M393.388 183.588C394.168 183.707 395.444 183.707 396.224 183.588C397.003 183.472 396.366 183.376 394.807 183.376C393.247 183.376 392.61 183.472 393.388 183.588ZM431.223 185.142C431.092 185.352 432.413 185.46 434.158 185.381C439.843 185.126 440.514 184.923 435.945 184.839C433.48 184.793 431.357 184.929 431.223 185.142ZM450.354 185.63C450.995 185.753 451.921 185.749 452.415 185.62C452.908 185.492 452.383 185.393 451.249 185.398C450.114 185.404 449.711 185.507 450.354 185.63ZM462.982 186.147C463.766 186.264 464.926 186.262 465.559 186.139C466.195 186.019 465.554 185.923 464.135 185.927C462.718 185.931 462.199 186.03 462.982 186.147ZM475.611 186.653C476.252 186.775 477.178 186.771 477.673 186.643C478.165 186.515 477.64 186.415 476.507 186.421C475.372 186.427 474.97 186.53 475.611 186.653ZM481.404 186.802C481.404 187.084 481.752 187.313 482.176 187.313C482.601 187.313 482.95 187.084 482.95 186.802C482.95 186.521 482.601 186.291 482.176 186.291C481.752 186.291 481.404 186.521 481.404 186.802ZM50.9182 377.679C51.1788 377.938 51.9394 378.062 52.6112 377.959C53.642 377.798 53.5706 377.725 52.1382 377.489C51.1132 377.321 50.6325 377.396 50.9182 377.679ZM62.9871 378.428C63.7689 378.547 64.929 378.543 65.5641 378.422C66.1973 378.299 65.5564 378.204 64.1395 378.208C62.7207 378.211 62.2033 378.311 62.9871 378.428ZM75.8647 378.926C76.3608 379.054 77.1735 379.054 77.6697 378.926C78.1658 378.797 77.7604 378.692 76.7682 378.692C75.7759 378.692 75.3686 378.797 75.8647 378.926ZM87.7289 379.451C88.5127 379.569 89.6709 379.565 90.306 379.445C90.9392 379.322 90.2983 379.226 88.8814 379.23C87.4626 379.234 86.9452 379.334 87.7289 379.451ZM139.274 381.498C140.058 381.615 141.218 381.611 141.851 381.49C142.485 381.369 141.844 381.272 140.427 381.276C139.01 381.279 138.491 381.379 139.274 381.498ZM152.932 382.003C153.575 382.126 154.501 382.12 154.995 381.992C155.488 381.865 154.963 381.764 153.83 381.77C152.694 381.775 152.291 381.881 152.932 382.003ZM165.555 382.505C166.051 382.633 166.864 382.633 167.36 382.505C167.856 382.377 167.45 382.271 166.458 382.271C165.466 382.271 165.059 382.377 165.555 382.505ZM181.664 382.664L177.541 382.988L181.793 383.082C184.347 383.137 186.046 382.971 186.046 382.664C186.046 382.383 185.988 382.195 185.917 382.247C185.845 382.298 183.932 382.486 181.664 382.664Z" fill="#685E1A"/></g></g></svg>