<svg viewBox="0 0 512 512" fill="none" xmlns="http://www.w3.org/2000/svg"><g id="samoa"><path id="Vector" d="M512 256C512 397.384 397.384 512 256 512C114.616 512 0 397.384 0 256C87.93 168.07 162.504 93.496 256 0C397.384 0 512 114.616 512 256Z" fill="#D80027"/><path id="Vector_2" d="M256 256C256 114.616 256 97.948 256 0C114.616 0 0 114.616 0 256H256Z" fill="#0052B4"/><g id="Group"><path id="Vector_3" d="M205.055 166.957L209.2 179.712H222.61L211.76 187.593L215.905 200.348L205.055 192.465L194.205 200.348L198.35 187.593L187.5 179.712H200.91L205.055 166.957Z" fill="#F0F0F0"/><path id="Vector_4" d="M137.699 66.7832L144.606 88.0422H166.958L148.874 101.177L155.783 122.435L137.699 109.296L119.616 122.435L126.524 101.177L108.441 88.0422H130.791L137.699 66.7832Z" fill="#F0F0F0"/><path id="Vector_5" d="M204.483 89.043L211.39 110.303H233.741L215.658 123.438L222.565 144.696L204.483 131.557L186.4 144.696L193.308 123.438L175.225 110.303H197.575L204.483 89.043Z" fill="#F0F0F0"/><path id="Vector_6" d="M151.694 178.087L158.602 199.346H180.952L162.869 212.481L169.777 233.739L151.694 220.601L133.611 233.739L140.519 212.481L122.436 199.346H144.787L151.694 178.087Z" fill="#F0F0F0"/><path id="Vector_7" d="M93.1769 122.435L100.085 143.694H122.436L104.352 156.829L111.26 178.087L93.1769 164.949L75.0949 178.087L82.0019 156.829L63.9199 143.694H86.2699L93.1769 122.435Z" fill="#F0F0F0"/></g></g></svg>