<svg viewBox="0 0 512 512" fill="none" xmlns="http://www.w3.org/2000/svg"><g id="san marino"><path id="Vector" d="M512 256C512 397.384 397.384 512 256 512C114.616 512 0 397.384 0 256C11.13 256 256 222.609 256 222.609L512 256Z" fill="#338AF3"/><path id="Vector_2" d="M0 256C0 114.616 114.616 0 256 0C397.384 0 512 114.616 512 256" fill="#F0F0F0"/><path id="Vector_3" d="M357.616 176.644L256 278.261L154.384 176.644C141.243 196.151 133.566 219.63 133.566 244.869V278.26C133.566 331.876 168.211 377.549 216.288 394.08C209.871 406.656 210.953 422.351 220.356 434.086C232.844 424.077 245.773 413.716 256.741 404.928C267.709 413.717 280.639 424.078 293.126 434.086C302.639 422.214 303.643 406.284 296.973 393.634C344.393 376.744 378.434 331.406 378.434 278.26V244.87C378.435 219.63 370.757 196.152 357.616 176.644Z" fill="#6DA544"/><path id="Vector_4" d="M256 367.304C206.901 367.304 166.957 327.359 166.957 278.261V244.87C166.957 195.771 206.902 155.827 256 155.827C305.098 155.827 345.043 195.772 345.043 244.87V278.261C345.043 327.359 305.099 367.304 256 367.304Z" fill="#FFDA44"/><path id="Vector_5" d="M311.652 278.261V244.87C311.652 214.183 286.686 189.218 256 189.218C225.314 189.218 200.348 214.184 200.348 244.87V278.261L256 289.391L311.652 278.261Z" fill="#338AF3"/><path id="Vector_6" d="M200.348 278.261C200.348 308.948 225.314 333.913 256 333.913C286.686 333.913 311.652 308.947 311.652 278.261H200.348Z" fill="#6DA544"/><path id="Vector_7" d="M322.784 155.826C322.784 137.385 307.834 122.435 289.393 122.435C280.838 122.435 273.041 125.655 267.132 130.944V111.304H278.262V89.0431H267.132V77.9131H244.871V89.0431H233.741V111.304H244.871V130.944C238.962 125.655 231.164 122.435 222.61 122.435C204.169 122.435 189.219 137.385 189.219 155.826C189.219 165.713 193.52 174.593 200.349 180.708V200.348H311.653V180.708C318.483 174.593 322.784 165.713 322.784 155.826Z" fill="#FFDA44"/></g></svg>