<svg viewBox="0 0 512 512" fill="none" xmlns="http://www.w3.org/2000/svg"><g id="sardinia" clip-path="url(#clip0_1_1587)"><path id="Vector" d="M256 512C397.385 512 512 397.385 512 256C512 114.615 397.385 0 256 0C114.615 0 0 114.615 0 256C0 397.385 114.615 512 256 512Z" fill="#F0F0F0"/><path id="Vector_2" d="M509.833 222.609H289.393H289.392V2.167C278.461 0.744 267.317 0 256 0C244.683 0 233.539 0.744 222.609 2.167V222.607V222.608H2.167C0.744 233.539 0 244.683 0 256C0 267.317 0.744 278.461 2.167 289.391H222.607H222.608V509.833C233.539 511.256 244.683 512 256 512C267.317 512 278.461 511.257 289.391 509.833V289.394V289.392H509.833C511.256 278.461 512 267.317 512 256C512 244.683 511.256 233.539 509.833 222.609Z" fill="#D80027"/><path id="Vector_3" d="M378.435 89.043C357.689 89.043 340.258 103.232 335.316 122.434L378.435 133.564L421.554 122.434C416.612 103.233 399.181 89.043 378.435 89.043Z" fill="black"/><path id="Vector_4" d="M333.913 189.217L389.565 200.347V176.684C405.21 172.656 417.524 160.339 421.551 144.695L378.435 133.565H322.783L333.913 166.956V189.217Z" fill="black"/><path id="Vector_5" d="M421.554 122.435H322.783V144.696V166.957H333.913V144.696H421.551C422.467 141.139 422.957 137.409 422.957 133.566C422.957 129.722 422.47 125.992 421.554 122.435Z" fill="#ACABB1"/><path id="Vector_6" d="M144.696 89.043C123.95 89.043 106.519 103.232 101.577 122.434L144.696 133.564L187.815 122.434C182.873 103.233 165.442 89.043 144.696 89.043Z" fill="black"/><path id="Vector_7" d="M100.174 189.217L155.826 200.347V176.684C171.471 172.656 183.785 160.339 187.812 144.695L144.696 133.565H89.043L100.173 166.956V189.217H100.174Z" fill="black"/><path id="Vector_8" d="M187.815 122.435H89.043V144.696V166.957H100.173V144.696H187.811C188.727 141.139 189.217 137.409 189.217 133.566C189.217 129.722 188.731 125.992 187.815 122.435Z" fill="#ACABB1"/><path id="Vector_9" d="M378.435 311.652C357.689 311.652 340.258 325.841 335.316 345.043L378.435 356.173L421.554 345.043C416.612 325.841 399.181 311.652 378.435 311.652Z" fill="black"/><path id="Vector_10" d="M333.913 411.826L389.565 422.956V399.293C405.21 395.265 417.524 382.948 421.551 367.304L378.435 356.174H322.783L333.913 389.565V411.826Z" fill="black"/><path id="Vector_11" d="M421.554 345.043H322.783V367.304V389.565H333.913V367.304H421.551C422.467 363.747 422.957 360.017 422.957 356.174C422.957 352.331 422.47 348.601 421.554 345.043Z" fill="#ACABB1"/><path id="Vector_12" d="M144.696 311.652C123.95 311.652 106.519 325.841 101.577 345.043L144.696 356.173L187.815 345.043C182.873 325.841 165.442 311.652 144.696 311.652Z" fill="black"/><path id="Vector_13" d="M100.174 411.826L155.826 422.956V399.293C171.471 395.265 183.785 382.948 187.812 367.304L144.696 356.174H89.043L100.173 389.565V411.826H100.174Z" fill="black"/><path id="Vector_14" d="M187.815 345.043H89.043V367.304V389.565H100.173V367.304H187.811C188.727 363.747 189.217 360.017 189.217 356.174C189.217 352.331 188.731 348.601 187.815 345.043Z" fill="#ACABB1"/></g><defs><clipPath id="clip0_1_1587"><rect width="512" height="512" fill="white"/></clipPath></defs></svg>