<svg viewBox="0 0 512 512" fill="none" xmlns="http://www.w3.org/2000/svg"><g id="senegal"><path id="Vector" d="M367.304 25.402C333.648 9.128 295.89 0 256 0C216.11 0 178.352 9.128 144.696 25.402L122.435 256L144.696 486.598C178.352 502.872 216.11 512 256 512C295.89 512 333.648 502.872 367.304 486.598L389.565 256L367.304 25.402Z" fill="#FFDA44"/><g id="Group"><path id="Vector_2" d="M255.998 166.957L278.098 234.977H349.626L291.762 277.02L313.863 345.043L255.998 303.003L198.133 345.043L220.238 277.02L162.374 234.977H233.897L255.998 166.957Z" fill="#496E2D"/><path id="Vector_3" d="M144.696 25.4111C59.066 66.8181 0 154.507 0 256C0 357.493 59.066 445.182 144.696 486.589V25.4111Z" fill="#496E2D"/></g><path id="Vector_4" d="M367.304 25.4111V486.589C452.934 445.182 512 357.493 512 256C512 154.507 452.934 66.8181 367.304 25.4111Z" fill="#D80027"/></g></svg>