<svg viewBox="0 0 512 512" fill="none" xmlns="http://www.w3.org/2000/svg"><g id="seychelles"><path id="Vector" d="M256 512C397.385 512 512 397.385 512 256C512 114.615 397.385 0 256 0C114.615 0 0 114.615 0 256C0 397.385 114.615 512 256 512Z" fill="#F0F0F0"/><path id="Vector_2" d="M428.809 67.137C383.269 25.445 322.608 0 256 0C245.096 0 234.351 0.687 223.805 2.01L100.174 144.696L8.10059 320.131C14.0486 343.192 23.1426 364.986 34.8756 385.048L256 256L428.809 67.137Z" fill="#FFDA44"/><path id="Vector_3" d="M469.131 397.838L110.963 466.958C152.192 495.359 202.15 512 256 512C344.921 512 423.24 466.657 469.131 397.838Z" fill="#6DA544"/><path id="Vector_4" d="M428.845 67.1709L35.0225 385.296C45.3235 402.864 57.6565 419.095 71.7035 433.664L512 256C512 181.241 479.949 113.973 428.845 67.1709Z" fill="#D80027"/><path id="Vector_5" d="M0 256C0 278.147 2.814 299.636 8.101 320.131L223.805 2.00977C97.618 17.8438 0 125.52 0 256Z" fill="#0052B4"/></g></svg>