<svg viewBox="0 0 512 512" fill="none" xmlns="http://www.w3.org/2000/svg"><g id="singapore"><path id="Vector" d="M256 512C397.385 512 512 397.385 512 256C512 114.615 397.385 0 256 0C114.615 0 0 114.615 0 256C0 397.385 114.615 512 256 512Z" fill="#F0F0F0"/><path id="Vector_2" d="M0 256.001C0 114.616 114.616 0 256 0C397.384 0 512 114.616 512 256.001" fill="#D80027"/><g id="Group"><path id="Vector_3" d="M155.826 133.564C155.826 96.2659 182.039 65.1079 217.043 57.4629C211.663 56.2889 206.082 55.6519 200.347 55.6519C157.316 55.6519 122.434 90.5339 122.434 133.565C122.434 176.596 157.316 211.478 200.347 211.478C206.08 211.478 211.662 210.841 217.043 209.666C182.039 202.021 155.826 170.863 155.826 133.564Z" fill="#F0F0F0"/><path id="Vector_4" d="M256 61.2168L261.526 78.2218H279.407L264.94 88.7328L270.466 105.738L256 95.2288L241.534 105.738L247.06 88.7328L232.594 78.2218H250.474L256 61.2168Z" fill="#F0F0F0"/><path id="Vector_5" d="M212.625 94.6079L218.15 111.614H236.031L221.565 122.124L227.091 139.129L212.625 128.62L198.157 139.129L203.684 122.124L189.217 111.614H207.098L212.625 94.6079Z" fill="#F0F0F0"/><path id="Vector_6" d="M299.375 94.6079L304.902 111.614H322.782L308.315 122.124L313.842 139.129L299.375 128.62L284.909 139.129L290.435 122.124L275.969 111.614H293.849L299.375 94.6079Z" fill="#F0F0F0"/><path id="Vector_7" d="M282.681 144.695L288.207 161.701H306.087L291.621 172.211L297.147 189.216L282.681 178.707L268.215 189.216L273.741 172.211L259.275 161.701H277.154L282.681 144.695Z" fill="#F0F0F0"/><path id="Vector_8" d="M229.319 144.695L234.844 161.701H252.726L238.259 172.211L243.786 189.216L229.319 178.707L214.852 189.216L220.378 172.211L205.912 161.701H223.793L229.319 144.695Z" fill="#F0F0F0"/></g></g></svg>