<svg viewBox="0 0 512 512" fill="none" xmlns="http://www.w3.org/2000/svg"><g id="slovakia" clip-path="url(#clip0_1_1679)"><path id="Vector" d="M256 512C397.385 512 512 397.385 512 256C512 114.615 397.385 0 256 0C114.615 0 0 114.615 0 256C0 397.385 114.615 512 256 512Z" fill="#F0F0F0"/><path id="Vector_2" d="M256 512C397.384 512 512 397.384 512 256C512 224.686 506.368 194.689 496.077 166.957H15.923C5.633 194.689 0 224.686 0 256C0 397.384 114.616 512 256 512Z" fill="#0052B4"/><path id="Vector_3" d="M256 512C366.071 512 459.906 442.528 496.077 345.043H15.9229C52.0939 442.528 145.929 512 256 512Z" fill="#D80027"/><path id="Vector_4" d="M66.1982 144.696V272.402C66.1982 345.046 161.099 367.305 161.099 367.305C161.099 367.305 255.999 345.046 255.999 272.402V144.696H66.1982Z" fill="#F0F0F0"/><path id="Vector_5" d="M88.459 144.696V272.402C88.459 280.93 90.353 288.984 94.105 296.535H228.092C231.844 288.985 233.738 280.93 233.738 272.402V144.696H88.459Z" fill="#D80027"/><path id="Vector_6" d="M205.62 233.739H172.23V211.478H194.491V189.217H172.23V166.957H149.969V189.217H127.709V211.478H149.969V233.739H116.577V256H149.969V278.261H172.23V256H205.62V233.739Z" fill="#F0F0F0"/><path id="Vector_7" d="M124.471 327.61C138.816 336.625 153.554 341.859 161.099 344.187C168.644 341.86 183.382 336.625 197.727 327.61C212.193 318.518 222.334 308.12 228.092 296.535C221.741 292.042 213.992 289.392 205.621 289.392C202.573 289.392 199.612 289.753 196.765 290.416C190.732 276.708 177.037 267.131 161.1 267.131C145.163 267.131 131.467 276.708 125.435 290.416C122.588 289.753 119.626 289.392 116.579 289.392C108.208 289.392 100.459 292.042 94.1084 296.535C99.8634 308.119 110.004 318.517 124.471 327.61Z" fill="#0052B4"/></g><defs><clipPath id="clip0_1_1679"><rect width="512" height="512" fill="white"/></clipPath></defs></svg>