<svg viewBox="0 0 512 512" fill="none" xmlns="http://www.w3.org/2000/svg"><g id="solomon islands" clip-path="url(#clip0_1_1692)"><path id="Vector" d="M437.026 437.026C533.037 341.015 536.828 187.731 448.439 87.1717L255.999 255.998L87.1717 448.439C187.731 536.828 341.014 533.037 437.026 437.026Z" fill="#496E2D"/><path id="Vector_2" d="M74.9734 74.9739C170.984 -21.0369 324.269 -24.8279 424.828 63.5609L255.999 256.003L63.5614 424.828C-24.8284 324.269 -21.0364 170.985 74.9734 74.9739Z" fill="#0052B4"/><path id="Vector_3" d="M424.826 63.5599L63.5594 424.827C67.2114 428.982 71.0034 433.058 74.9724 437.025C78.9404 440.993 83.0174 444.785 87.1734 448.439L448.438 87.1719C444.786 83.0159 440.993 78.9399 437.024 74.9709C433.058 71.0049 428.981 67.2119 424.826 63.5599Z" fill="#FFDA44"/><g id="Group"><path id="Vector_4" d="M107.861 89.036L113.388 106.043H131.269L116.803 116.552L122.328 133.559L107.861 123.048L93.3939 133.559L98.9209 116.552L84.4539 106.043H102.336L107.861 89.036Z" fill="#F0F0F0"/><path id="Vector_5" d="M199.2 89.036L204.727 106.043H222.607L208.141 116.552L213.667 133.559L199.2 123.048L184.733 133.559L190.26 116.552L175.793 106.043H193.674L199.2 89.036Z" fill="#F0F0F0"/><path id="Vector_6" d="M107.861 178.083L113.388 195.09H131.269L116.803 205.6L122.328 222.607L107.861 212.096L93.3939 222.607L98.9209 205.6L84.4539 195.09H102.336L107.861 178.083Z" fill="#F0F0F0"/><path id="Vector_7" d="M199.2 178.083L204.727 195.09H222.607L208.141 205.6L213.667 222.607L199.2 212.096L184.733 222.607L190.26 205.6L175.793 195.09H193.674L199.2 178.083Z" fill="#F0F0F0"/><path id="Vector_8" d="M153.531 133.559L159.058 150.566H176.938L162.472 161.076L167.998 178.083L153.531 167.572L139.064 178.083L144.59 161.076L130.123 150.566H148.005L153.531 133.559Z" fill="#F0F0F0"/></g></g><defs><clipPath id="clip0_1_1692"><rect width="512.001" height="512.001" fill="white"/></clipPath></defs></svg>