<svg viewBox="0 0 512 512" fill="none" xmlns="http://www.w3.org/2000/svg"><g id="somaliland"><path id="Vector" d="M496.077 345.043C506.367 317.31 512 287.314 512 256C512 224.686 506.367 194.69 496.077 166.957L256 144.696L15.923 166.957C5.633 194.69 0 224.686 0 256C0 287.314 5.633 317.31 15.923 345.043L256 367.304L496.077 345.043Z" fill="#F0F0F0"/><path id="Vector_2" d="M256 512C366.07 512 459.906 442.528 496.076 345.043H15.9219C52.0939 442.528 145.928 512 256 512Z" fill="#D80027"/><path id="Vector_3" d="M256 0C145.928 0 52.0939 69.472 15.9219 166.957H496.077C459.906 69.472 366.07 0 256 0Z" fill="#496E2D"/><path id="Vector_4" d="M256 200.348L269.813 242.861H314.516L278.351 269.138L292.166 311.652L256 285.379L219.834 311.652L233.649 269.138L197.484 242.861H242.187L256 200.348Z" fill="black"/><g id="Group"><path id="Vector_5" d="M332.058 50.0869V102.028C332.058 110.213 325.401 116.869 317.218 116.869V139.13C337.676 139.13 354.319 122.487 354.319 102.028V50.0869H332.058Z" fill="#F0F0F0"/><path id="Vector_6" d="M172.522 102.028C172.522 110.213 165.865 116.869 157.681 116.869V139.13C178.14 139.13 194.783 122.487 194.783 102.028V50.0869H172.522V102.028Z" fill="#F0F0F0"/><path id="Vector_7" d="M298.663 50.0869H320.924V102.028H298.663V50.0869Z" fill="#F0F0F0"/><path id="Vector_8" d="M265.275 79.7669C265.275 81.8129 263.61 83.4779 261.565 83.4779C259.519 83.4779 257.854 81.8129 257.854 79.7669V50.0869H235.593V79.7669C235.593 81.8129 233.929 83.4779 231.883 83.4779C229.837 83.4779 228.173 81.8129 228.173 79.7669V50.0869H205.912V79.7669C205.912 94.0889 217.562 105.739 231.883 105.739C237.398 105.739 242.514 104.006 246.723 101.063C250.934 104.006 256.049 105.739 261.564 105.739C262.675 105.739 263.767 105.661 264.841 105.524C263.263 112.023 257.41 116.869 250.434 116.869V139.13C270.892 139.13 287.535 122.487 287.535 102.028V79.7669V50.0869H265.274L265.275 79.7669Z" fill="#F0F0F0"/><path id="Vector_9" d="M205.913 116.87H239.304V139.131H205.913V116.87Z" fill="#F0F0F0"/></g></g></svg>