<svg viewBox="0 0 512 512" fill="none" xmlns="http://www.w3.org/2000/svg"><g id="south korea" clip-path="url(#clip0_1_1723)"><path id="Vector" d="M256 512C397.385 512 512 397.385 512 256C512 114.615 397.385 0 256 0C114.615 0 0 114.615 0 256C0 397.385 114.615 512 256 512Z" fill="#F0F0F0"/><path id="Vector_2" d="M345.043 256C345.043 278.261 305.177 333.913 256 333.913C206.823 333.913 166.957 278.261 166.957 256C166.957 206.822 206.823 166.957 256 166.957C305.177 166.957 345.043 206.822 345.043 256Z" fill="#D80027"/><path id="Vector_3" d="M345.043 256C345.043 305.178 305.177 345.043 256 345.043C206.823 345.043 166.957 305.178 166.957 256" fill="#0052B4"/><path id="Vector_4" d="M350.375 334.708L373.982 311.101L389.721 326.839L366.114 350.447L350.375 334.708Z" fill="black"/><path id="Vector_5" d="M311.018 374.056L334.625 350.448L350.364 366.187L326.756 389.794L311.018 374.056Z" fill="black"/><path id="Vector_6" d="M397.594 381.921L421.201 358.313L436.94 374.052L413.332 397.659L397.594 381.921Z" fill="black"/><path id="Vector_7" d="M358.236 421.274L381.844 397.667L397.582 413.406L373.975 437.013L358.236 421.274Z" fill="black"/><path id="Vector_8" d="M373.982 358.316L397.59 334.709L413.328 350.447L389.721 374.055L373.982 358.316Z" fill="black"/><path id="Vector_9" d="M334.637 397.663L358.244 374.056L373.983 389.794L350.375 413.402L334.637 397.663Z" fill="black"/><path id="Vector_10" d="M397.697 177.335L334.744 114.382L350.482 98.6435L413.436 161.597L397.697 177.335Z" fill="black"/><path id="Vector_11" d="M334.732 161.603L311.125 137.996L326.863 122.258L350.47 145.865L334.732 161.603Z" fill="black"/><path id="Vector_12" d="M374.078 200.959L350.471 177.352L366.209 161.614L389.816 185.221L374.078 200.959Z" fill="black"/><path id="Vector_13" d="M381.943 114.38L358.336 90.7725L374.074 75.0339L397.682 98.6414L381.943 114.38Z" fill="black"/><path id="Vector_14" d="M421.311 153.74L397.703 130.133L413.442 114.394L437.049 138.002L421.311 153.74Z" fill="black"/><path id="Vector_15" d="M90.7549 358.271L153.708 421.225L137.97 436.963L75.0163 374.01L90.7549 358.271Z" fill="black"/><path id="Vector_16" d="M153.704 373.998L177.312 397.605L161.574 413.343L137.966 389.736L153.704 373.998Z" fill="black"/><path id="Vector_17" d="M114.355 334.659L137.963 358.267L122.224 374.005L98.617 350.398L114.355 334.659Z" fill="black"/><path id="Vector_18" d="M137.966 311.045L200.919 373.998L185.181 389.737L122.227 326.783L137.966 311.045Z" fill="black"/><path id="Vector_19" d="M153.701 90.7236L90.7478 153.677L75.0092 137.939L137.963 74.9851L153.701 90.7236Z" fill="black"/><path id="Vector_20" d="M177.309 114.329L114.355 177.282L98.6167 161.543L161.57 98.5901L177.309 114.329Z" fill="black"/><path id="Vector_21" d="M200.939 137.95L137.986 200.904L122.248 185.166L185.202 122.212L200.939 137.95Z" fill="black"/></g><defs><clipPath id="clip0_1_1723"><rect width="512" height="512" fill="white"/></clipPath></defs></svg>