<svg viewBox="0 0 512 512" fill="none" xmlns="http://www.w3.org/2000/svg"><g id="south africa" clip-path="url(#clip0_1_1716)"><path id="Vector" d="M256 512C397.385 512 512 397.385 512 256C512 114.615 397.385 0 256 0C114.615 0 0 114.615 0 256C0 397.385 114.615 512 256 512Z" fill="#F0F0F0"/><path id="Vector_2" d="M74.9795 437.02C-24.9945 337.045 -24.9945 174.955 74.9795 74.98C74.9725 74.991 222.609 256 222.609 256L74.9795 437.02Z" fill="black"/><path id="Vector_3" d="M222.609 256L33.9527 128.513C28.1037 138.68 22.9457 149.292 18.5137 160.276L114.023 256.001L18.5167 351.731C22.9447 362.707 28.0977 373.312 33.9427 383.472L222.609 256Z" fill="#FFDA44"/><path id="Vector_4" d="M509.833 222.609H222.602L74.9784 74.9839C59.0704 90.8919 45.2494 108.883 33.9534 128.514L161.192 256L33.9434 383.47C45.2394 403.106 59.0664 421.103 74.9784 437.015L222.602 289.391H509.833C511.256 278.461 512 267.317 512 256C512 244.683 511.256 233.539 509.833 222.609Z" fill="#6DA544"/><path id="Vector_5" d="M100.138 459.077C143.307 492.259 197.344 512 256 512C374.279 512 473.805 431.779 503.181 322.783H236.433L100.138 459.077Z" fill="#0052B4"/><path id="Vector_6" d="M503.181 189.217C473.805 80.221 374.279 0 256 0C197.344 0 143.307 19.741 100.138 52.923L236.432 189.217H503.181Z" fill="#D80027"/></g><defs><clipPath id="clip0_1_1716"><rect width="512" height="512" fill="white"/></clipPath></defs></svg>