<svg viewBox="0 0 512 512" fill="none" xmlns="http://www.w3.org/2000/svg"><g id="south sudan" clip-path="url(#clip0_1_1745)"><path id="Vector" d="M256 512C397.385 512 512 397.385 512 256C512 114.615 397.385 0 256 0C114.615 0 0 114.615 0 256C0 397.385 114.615 512 256 512Z" fill="#F0F0F0"/><path id="Vector_2" d="M492.028 156.753C453.259 64.662 362.187 0 255.999 0C185.305 0 121.312 28.659 74.9883 74.989L139.098 156.753H492.028Z" fill="black"/><path id="Vector_3" d="M139.825 354.32L74.9883 437.011C121.312 483.341 185.305 512 255.999 512C362.545 512 453.877 446.906 492.423 354.32H139.825Z" fill="#496E2D"/><path id="Vector_4" d="M55.6523 188.29V322.782H503.182C508.924 301.491 512 279.107 512 256C512 232.558 508.842 209.858 502.939 188.29H55.6523Z" fill="#A2001D"/><path id="Vector_5" d="M74.9805 74.98C-24.9935 174.954 -24.9935 337.045 74.9805 437.02C116.294 395.707 156.026 355.974 256 256L74.9805 74.98Z" fill="#0052B4"/><path id="Vector_6" d="M83.3851 192.352L114.63 235.953L165.758 219.708L133.947 262.901L165.192 306.504L114.284 289.597L82.4721 332.789L82.8221 279.146L31.9121 262.237L83.0361 245.993L83.3851 192.352Z" fill="#FFDA44"/></g><defs><clipPath id="clip0_1_1745"><rect width="512" height="512" fill="white"/></clipPath></defs></svg>