<svg viewBox="0 0 512 512" fill="none" xmlns="http://www.w3.org/2000/svg"><g id="spain"><path id="Vector" d="M0 256C0 287.314 5.633 317.31 15.923 345.043L256 367.304L496.077 345.043C506.367 317.31 512 287.314 512 256C512 224.686 506.367 194.69 496.077 166.957L256 144.696L15.923 166.957C5.633 194.69 0 224.686 0 256H0Z" fill="#FFDA44"/><g id="Group"><path id="Vector_2" d="M496.078 166.957C459.907 69.473 366.072 0 256.001 0C145.93 0 52.0948 69.473 15.9238 166.957H496.078Z" fill="#D80027"/><path id="Vector_3" d="M15.9238 345.043C52.0948 442.527 145.93 512 256.001 512C366.072 512 459.907 442.527 496.078 345.043H15.9238Z" fill="#D80027"/></g></g></svg>