<svg viewBox="0 0 512 512" fill="none" xmlns="http://www.w3.org/2000/svg"><g id="sri lanka" clip-path="url(#clip0_1_1757)"><path id="Vector" d="M0.001 44.5225H0V467.478H0.001V256.002V44.5225Z" fill="#FF9811"/><path id="Vector_2" d="M255.999 511.999C397.384 511.999 511.999 397.384 511.999 255.999C511.999 114.615 397.384 0 255.999 0C114.615 0 0 114.615 0 255.999C0 397.384 114.615 511.999 255.999 511.999Z" fill="#FFDA44"/><path id="Vector_3" d="M200.349 44.5225H111.714C107.786 47.2076 103.942 50.0026 100.175 52.8956L77.9142 256L100.175 459.104C103.942 461.998 107.786 464.793 111.714 467.477H200.349V44.5225Z" fill="#FF9811"/><path id="Vector_4" d="M0.000976564 256.002C0.000976564 338.747 39.2691 412.309 100.175 459.106V52.8966C39.2691 99.6947 0.000976564 173.257 0.000976564 256.002Z" fill="#6DA544"/><path id="Vector_5" d="M411.827 156.065V162.47L412.065 162.506L411.827 156.065Z" fill="#FFDA44"/><path id="Vector_6" d="M491.596 322.783H443.363L422.958 345.044V389.566H378.436V367.305H400.697V322.783H300.523V350.609H278.262V297.578C271.432 291.464 267.132 282.583 267.132 272.696V128.001C267.132 109.56 282.082 94.6096 300.523 94.6096V300.523H345.045L360.321 287.792C357.653 281.437 356.175 274.458 356.175 267.132V233.741H322.784V166.959H389.566C389.566 155.829 406.262 144.698 406.262 144.698C406.262 144.698 422.958 155.828 422.958 166.959V183.655V233.742C435.341 233.889 455.015 233.568 476.27 233.742C470.686 223.982 467.479 212.401 467.479 200.351C467.479 180.71 475.959 163.052 489.457 150.832C470.001 107.717 438.955 70.9546 400.288 44.5225H233.741V467.479H400.289C447.308 435.338 483.057 387.927 500.401 332.389L491.596 322.783Z" fill="#A2001D"/></g><defs><clipPath id="clip0_1_1757"><rect width="511.999" height="511.999" fill="white"/></clipPath></defs></svg>