<svg viewBox="0 0 512 512" fill="none" xmlns="http://www.w3.org/2000/svg"><g id="st barts" clip-path="url(#clip0_1_1764)"><path id="Vector" d="M256 512C397.385 512 512 397.385 512 256C512 114.615 397.385 0 256 0C114.615 0 0 114.615 0 256C0 397.385 114.615 512 256 512Z" fill="#F0F0F0"/><g id="Group"><path id="Vector_2" d="M457.089 205.913H372.869C372.869 190.546 360.411 178.087 345.044 178.087L322.782 222.609C322.782 222.609 346.528 289.392 345.785 289.392H373.611C388.98 289.392 401.437 276.935 401.437 261.566C416.805 261.566 429.263 249.109 429.263 233.74H428.336C443.703 233.739 457.089 221.282 457.089 205.913Z" fill="#ACABB1"/><path id="Vector_3" d="M54.9103 205.913H139.13C139.13 190.546 151.589 178.087 166.956 178.087L189.217 222.609C189.217 222.609 165.472 289.392 166.215 289.392H138.389C123.02 289.392 110.563 276.935 110.563 261.566C95.1943 261.566 82.7371 249.109 82.7371 233.74H83.6639C68.2952 233.739 54.9103 221.282 54.9103 205.913Z" fill="#ACABB1"/></g><path id="Vector_4" d="M345.043 356.173V367.303H166.956V356.173H122.434V400.694H166.956V411.825H345.043V400.694H389.565V356.173H345.043Z" fill="#FFDA44"/><path id="Vector_5" d="M166.956 178.086V289.39C166.956 357.549 255.999 378.434 255.999 378.434C255.999 378.434 345.042 357.549 345.042 289.39V178.086L255.999 166.956L166.956 178.086Z" fill="#0052B4"/><path id="Vector_6" d="M166.957 222.612H345.043V289.395H166.957V222.612Z" fill="#D80027"/><path id="Vector_7" d="M300.521 122.434V139.13L289.391 144.695L278.261 133.564V100.173H233.739V133.564L222.609 144.695L211.478 139.13V122.434H166.956V178.086H345.043V122.434H300.521Z" fill="#FFDA44"/></g><defs><clipPath id="clip0_1_1764"><rect width="511.58" height="511.58" fill="white" transform="scale(1.00082)"/></clipPath></defs></svg>