<svg viewBox="0 0 512 512" fill="none" xmlns="http://www.w3.org/2000/svg"><g id="st vincent and the grenadines" clip-path="url(#clip0_1_1778)"><path id="Vector" d="M378.435 31.127C342.064 11.283 300.35 0 256 0C211.65 0 169.936 11.283 133.565 31.127L111.304 256L133.565 480.873C169.936 500.717 211.65 512 256 512C300.35 512 342.064 500.717 378.435 480.873L400.696 256L378.435 31.127Z" fill="#FFDA44"/><path id="Vector_2" d="M133.565 480.871V31.126C53.989 74.546 0 158.965 0 256C0 353.035 53.989 437.454 133.565 480.871Z" fill="#338AF3"/><g id="Group"><path id="Vector_3" d="M512.001 256C512.001 158.965 458.012 74.546 378.436 31.126V480.871C458.012 437.454 512.001 353.035 512.001 256Z" fill="#6DA544"/><path id="Vector_4" d="M200.348 322.783L155.825 256L200.347 189.217L244.871 256L200.348 322.783Z" fill="#6DA544"/><path id="Vector_5" d="M311.652 322.783L267.13 256L311.652 189.217L356.174 256L311.652 322.783Z" fill="#6DA544"/><path id="Vector_6" d="M256.001 411.826L211.479 345.043L256.001 278.261L300.523 345.043L256.001 411.826Z" fill="#6DA544"/></g></g><defs><clipPath id="clip0_1_1778"><rect width="512" height="512" fill="white"/></clipPath></defs></svg>