<svg viewBox="0 0 512 512" fill="none" xmlns="http://www.w3.org/2000/svg"><g id="suriname" clip-path="url(#clip0_1_1791)"><path id="Vector" d="M256 512C397.385 512 512 397.385 512 256C512 114.615 397.385 0 256 0C114.615 0 0 114.615 0 256C0 397.385 114.615 512 256 512Z" fill="#F0F0F0"/><path id="Vector_2" d="M496.076 166.957H15.922C5.633 194.691 0 224.686 0 256C0 287.314 5.633 317.311 15.922 345.043H496.077C506.368 317.311 512 287.314 512 256C512 224.686 506.368 194.691 496.076 166.957Z" fill="#A2001D"/><g id="Group"><path id="Vector_3" d="M256.741 512C344.423 512 421.799 467.908 467.937 400.696H45.5459C91.6839 467.908 169.058 512 256.741 512Z" fill="#6DA544"/><path id="Vector_4" d="M256.741 0.00195312C344.423 0.00195312 421.799 44.094 467.937 111.306H45.5459C91.6839 44.094 169.058 0.00195312 256.741 0.00195312Z" fill="#6DA544"/></g><path id="Vector_5" d="M256 166.957L278.101 234.977H349.626L291.762 277.021L313.865 345.043L256 303.004L198.135 345.043L220.239 277.021L162.374 234.977H233.899L256 166.957Z" fill="#FFDA44"/></g><defs><clipPath id="clip0_1_1791"><rect width="512" height="512" fill="white"/></clipPath></defs></svg>