<svg viewBox="0 0 512 512" fill="none" xmlns="http://www.w3.org/2000/svg"><g id="sweden" clip-path="url(#clip0_1_1813)"><path id="Vector" d="M256 512C397.385 512 512 397.385 512 256C512 114.615 397.385 0 256 0C114.615 0 0 114.615 0 256C0 397.385 114.615 512 256 512Z" fill="#FFDA44"/><g id="Group"><path id="Vector_2" d="M200.349 222.609H509.833C493.47 97.002 386.067 0 256 0C236.886 0 218.267 2.113 200.348 6.085V222.609H200.349Z" fill="#0052B4"/><path id="Vector_3" d="M133.565 222.608V31.127C63.271 69.481 12.95 139.832 2.16699 222.609H133.565V222.608Z" fill="#0052B4"/><path id="Vector_4" d="M133.564 289.391H2.16699C12.95 372.168 63.271 442.519 133.565 480.872L133.564 289.391Z" fill="#0052B4"/><path id="Vector_5" d="M200.348 289.392V505.915C218.267 509.887 236.886 512 256 512C386.067 512 493.47 414.998 509.833 289.391H200.348V289.392Z" fill="#0052B4"/></g></g><defs><clipPath id="clip0_1_1813"><rect width="512" height="512" fill="white"/></clipPath></defs></svg>