<svg viewBox="0 0 512 512" fill="none" xmlns="http://www.w3.org/2000/svg"><g id="syria" clip-path="url(#clip0_1_1823)"><path id="Vector" d="M256 512C397.385 512 512 397.385 512 256C512 114.615 397.385 0 256 0C114.615 0 0 114.615 0 256C0 397.385 114.615 512 256 512Z" fill="#F0F0F0"/><path id="Vector_2" d="M256.001 0C145.93 0 52.0948 69.472 15.9238 166.957H496.079C459.907 69.472 366.072 0 256.001 0Z" fill="#D80027"/><path id="Vector_3" d="M256.001 512C366.072 512 459.907 442.528 496.078 345.043H15.9238C52.0948 442.528 145.93 512 256.001 512Z" fill="black"/><g id="Group"><path id="Vector_4" d="M152.961 194.783L166.774 237.295H211.477L175.312 263.573L189.126 306.087L152.961 279.812L116.796 306.087L130.61 263.573L94.4453 237.295H139.148L152.961 194.783Z" fill="#6DA544"/><path id="Vector_5" d="M359.037 194.783L372.85 237.295H417.554L381.388 263.573L395.202 306.087L359.037 279.812L322.872 306.087L336.686 263.573L300.521 237.295H345.224L359.037 194.783Z" fill="#6DA544"/></g></g><defs><clipPath id="clip0_1_1823"><rect width="512" height="512" fill="white"/></clipPath></defs></svg>