<svg viewBox="0 0 512 512" fill="none" xmlns="http://www.w3.org/2000/svg"><g id="taiwan" clip-path="url(#clip0_1_1830)"><path id="Vector" d="M512 256C512 397.384 397.384 512 256 512C114.616 512 0 397.384 0 256C87.93 168.07 162.504 93.496 256 0C397.384 0 512 114.616 512 256Z" fill="#D80027"/><path id="Vector_2" d="M256 256C256 114.616 256 97.948 256 0C114.616 0 0 114.616 0 256H256Z" fill="#0052B4"/><path id="Vector_3" d="M222.609 149.821L191.344 164.529L207.992 194.808L174.043 188.312L169.74 222.609L146.094 197.385L122.446 222.609L118.145 188.312L84.1951 194.806L100.843 164.527L69.5791 149.821L100.844 135.116L84.1951 104.836L118.144 111.331L122.447 77.0352L146.094 102.259L169.741 77.0352L174.043 111.331L207.993 104.836L191.344 135.117L222.609 149.821Z" fill="#F0F0F0"/><path id="Vector_4" d="M146.098 197.469C172.416 197.469 193.751 176.134 193.751 149.816C193.751 123.498 172.416 102.163 146.098 102.163C119.78 102.163 98.4453 123.498 98.4453 149.816C98.4453 176.134 119.78 197.469 146.098 197.469Z" fill="#0052B4"/><path id="Vector_5" d="M146.094 175.213C132.093 175.213 120.703 163.822 120.703 149.821C120.703 135.82 132.094 124.429 146.094 124.429C160.095 124.429 171.486 135.82 171.486 149.821C171.485 163.822 160.093 175.213 146.094 175.213Z" fill="#F0F0F0"/></g><defs><clipPath id="clip0_1_1830"><rect width="512" height="512" fill="white"/></clipPath></defs></svg>