<svg viewBox="0 0 512 512" fill="none" xmlns="http://www.w3.org/2000/svg"><g id="tajikistan" clip-path="url(#clip0_1_1836)"><path id="Vector" d="M25.402 144.696C9.128 178.352 0 216.11 0 256C0 295.89 9.128 333.648 25.402 367.304L256 389.565L486.598 367.304C502.872 333.648 512 295.89 512 256C512 216.11 502.872 178.352 486.598 144.696L256 122.435L25.402 144.696Z" fill="#F0F0F0"/><path id="Vector_2" d="M25.4111 367.304C66.8181 452.934 154.507 512 256 512C357.493 512 445.183 452.934 486.589 367.304H25.4111Z" fill="#6DA544"/><path id="Vector_3" d="M25.4111 144.696H486.589C445.183 59.066 357.493 0 256 0C154.507 0 66.8181 59.066 25.4111 144.696Z" fill="#D80027"/><g id="Group"><path id="Vector_4" d="M211.478 322.783H300.522V284.939L282.713 293.843L256 267.13L229.287 293.843L211.478 284.939V322.783Z" fill="#FFDA44"/><path id="Vector_5" d="M160.532 278.262L164.677 291.016H178.087L167.237 298.899L171.382 311.653L160.532 303.771L149.682 311.653L153.827 298.899L142.977 291.016H156.387L160.532 278.262Z" fill="#FFDA44"/><path id="Vector_6" d="M173.38 233.739L177.525 246.493H190.935L180.085 254.376L184.229 267.13L173.38 259.248L162.53 267.13L166.675 254.376L155.825 246.493H169.235L173.38 233.739Z" fill="#FFDA44"/><path id="Vector_7" d="M210.113 200.349L214.258 213.103H227.667L216.819 220.986L220.962 233.74L210.113 225.858L199.264 233.74L203.408 220.986L192.558 213.103H205.969L210.113 200.349Z" fill="#FFDA44"/><path id="Vector_8" d="M351.467 278.262L347.322 291.016H333.912L344.762 298.899L340.617 311.653L351.467 303.771L362.316 311.653L358.172 298.899L369.022 291.016H355.612L351.467 278.262Z" fill="#FFDA44"/><path id="Vector_9" d="M338.618 233.739L334.473 246.493H321.063L331.913 254.376L327.768 267.13L338.618 259.248L349.468 267.13L345.323 254.376L356.173 246.493H342.763L338.618 233.739Z" fill="#FFDA44"/><path id="Vector_10" d="M301.887 200.349L297.742 213.103H284.333L295.181 220.986L291.037 233.74L301.887 225.858L312.736 233.74L308.592 220.986L319.441 213.103H306.031L301.887 200.349Z" fill="#FFDA44"/><path id="Vector_11" d="M255.999 183.651L260.144 196.405H273.554L262.704 204.288L266.849 217.042L255.999 209.16L245.149 217.042L249.294 204.288L238.444 196.405H251.854L255.999 183.651Z" fill="#FFDA44"/></g></g><defs><clipPath id="clip0_1_1836"><rect width="512" height="512" fill="white"/></clipPath></defs></svg>