<svg viewBox="0 0 512 512" fill="none" xmlns="http://www.w3.org/2000/svg"><g id="tanzania"><path id="Vector" d="M256 512C397.385 512 512 397.385 512 256C512 114.615 397.385 0 256 0C114.615 0 0 114.615 0 256C0 397.385 114.615 512 256 512Z" fill="#FFDA44"/><path id="Vector_2" d="M74.9804 437.02C85.7194 447.759 97.1774 457.336 109.196 465.768L465.766 109.197C457.336 97.1784 447.758 85.7204 437.019 74.9814C426.279 64.2424 414.822 54.6664 402.803 46.2344L46.2344 402.805C54.6644 414.821 64.2424 426.28 74.9804 437.02Z" fill="black"/><path id="Vector_3" d="M74.9799 74.9796C-5.78213 155.744 -21.2871 277.035 28.4359 373.378L373.378 28.4366C277.035 -21.2864 155.743 -5.78037 74.9799 74.9796Z" fill="#6DA544"/><path id="Vector_4" d="M437.019 437.02C517.781 356.258 533.285 234.965 483.564 138.622L138.622 483.564C234.963 533.287 356.256 517.782 437.019 437.02Z" fill="#338AF3"/></g></svg>