<svg viewBox="0 0 512 512" fill="none" xmlns="http://www.w3.org/2000/svg"><g id="tibet"><path id="Vector" d="M256 512C397.385 512 512 397.385 512 256C512 114.615 397.385 0 256 0C114.615 0 0 114.615 0 256C0 397.385 114.615 512 256 512Z" fill="#F0F0F0"/><path id="Vector_2" d="M111.713 44.522C152.798 16.436 202.476 0 256 0C309.524 0 359.202 16.436 400.287 44.522L256 55.652L111.713 44.522Z" fill="#FFDA44"/><path id="Vector_3" d="M74.994 437.006L193.036 318.966L256 211.478L318.957 318.959L437.006 437.006C483.336 390.682 512 326.693 512 256C512 168.139 467.731 90.6255 400.287 44.5225H111.713C44.269 90.6255 0 168.139 0 256C0 326.693 28.664 390.682 74.994 437.006Z" fill="#D80027"/><g id="Group"><path id="Vector_4" d="M492.552 354.022L305.382 276.464L318.948 318.948L437.006 437.006C460.578 413.437 479.576 385.295 492.552 354.022Z" fill="#0052B4"/><path id="Vector_5" d="M512 256C512 221.275 505.079 188.17 492.552 157.979L256 256H512Z" fill="#0052B4"/><path id="Vector_6" d="M437.006 74.9945C425.754 63.7445 413.465 53.5315 400.287 44.5225H343.632L256 256L437.006 74.9945Z" fill="#0052B4"/><path id="Vector_7" d="M256 44.5225H168.369L256 256V44.5225Z" fill="#0052B4"/><path id="Vector_8" d="M74.9942 74.9941C51.4222 98.5641 32.4252 126.705 19.4492 157.978L256 256L74.9942 74.9941Z" fill="#0052B4"/><path id="Vector_9" d="M0 256C0 290.725 6.921 323.83 19.448 354.021L256 256H0Z" fill="#0052B4"/></g><g id="Group_2"><path id="Vector_10" d="M111.713 467.479C152.797 495.565 202.476 512.001 256 512.001C309.524 512.001 359.202 495.565 400.287 467.479H111.713Z" fill="#FFDA44"/><path id="Vector_11" d="M256 256L318.963 318.963C335.078 302.849 345.044 280.589 345.044 256C345.044 206.822 305.178 166.957 256.001 166.957C206.824 166.957 166.957 206.822 166.957 256C166.957 280.588 176.923 302.849 193.038 318.963L256 256Z" fill="#FFDA44"/><path id="Vector_12" d="M294.957 384C294.957 405.515 277.514 411.826 256 411.826C234.486 411.826 217.043 405.515 217.043 384C217.043 362.485 234.486 345.043 256 345.043C277.514 345.043 294.957 362.485 294.957 384Z" fill="#FFDA44"/></g><path id="Vector_13" d="M294.957 384C294.957 405.515 277.514 422.957 256 422.957C234.486 422.957 217.043 405.515 217.043 384" fill="#0052B4"/></g></svg>