<svg viewBox="0 0 512 512" fill="none" xmlns="http://www.w3.org/2000/svg"><g id="tokelau" clip-path="url(#clip0_1_1884)"><path id="Vector" d="M256 512C397.385 512 512 397.385 512 256C512 114.615 397.385 0 256 0C114.615 0 0 114.615 0 256C0 397.385 114.615 512 256 512Z" fill="#FFDA44"/><path id="Vector_2" d="M411.826 122.435C409.53 133.47 408.487 145.223 408.487 156.939C408.487 224.473 448.746 282.924 506.441 309.237C510.074 292.061 512 274.256 512 256C512 114.616 397.384 0 256 0C114.616 0 0 114.616 0 256C0 397.384 114.616 512 256 512C343.682 512 421.058 467.908 467.196 400.696H144.696V367.305H486.598C490.097 360.069 493.258 352.64 496.078 345.044H144.696L411.826 122.435Z" fill="#0052B4"/><g id="Group"><path id="Vector_3" d="M188.072 133.565L193.598 150.571H211.478L197.013 161.082L202.539 178.087L188.072 167.578L173.607 178.087L179.132 161.082L164.665 150.571H182.546L188.072 133.565Z" fill="#F0F0F0"/><path id="Vector_4" d="M115.439 256L122.347 277.259H144.697L126.614 290.394L133.522 311.652L115.439 298.514L97.3566 311.652L104.264 290.394L86.1816 277.259H108.532L115.439 256Z" fill="#F0F0F0"/><path id="Vector_5" d="M115.439 77.9131L122.347 99.1721H144.697L126.614 112.307L133.522 133.565L115.439 120.427L97.3566 133.565L104.264 112.307L86.1816 99.1721H108.532L115.439 77.9131Z" fill="#F0F0F0"/><path id="Vector_6" d="M59.7863 178.087L66.6943 199.346H89.0433L70.9613 212.481L77.8693 233.739L59.7863 220.601L41.7043 233.739L48.6113 212.481L30.5293 199.346H52.8783L59.7863 178.087Z" fill="#F0F0F0"/></g></g><defs><clipPath id="clip0_1_1884"><rect width="512" height="512" fill="white"/></clipPath></defs></svg>