<svg viewBox="0 0 512 512" fill="none" xmlns="http://www.w3.org/2000/svg"><g id="tonga" clip-path="url(#clip0_1_1892)"><path id="Vector" d="M256 512C397.385 512 512 397.385 512 256C512 114.615 397.385 0 256 0C114.615 0 0 114.615 0 256C0 397.385 114.615 512 256 512Z" fill="#F0F0F0"/><g id="Group"><path id="Vector_2" d="M166.957 133.565V100.174H133.565V133.565H100.174V166.957H133.565V200.348H166.957V166.957H200.348V133.565H166.957Z" fill="#D80027"/><path id="Vector_3" d="M256 0V256C114.616 256.001 58.425 256 0 256.001C0 397.384 114.616 512 256 512C397.384 512 512 397.384 512 256C512 114.616 397.384 0 256 0Z" fill="#D80027"/></g></g><defs><clipPath id="clip0_1_1892"><rect width="512" height="512" fill="white"/></clipPath></defs></svg>