<svg viewBox="0 0 512 512" fill="none" xmlns="http://www.w3.org/2000/svg"><g id="transnistria" clip-path="url(#clip0_1_1897)"><g id="Group"><path id="Vector" d="M503.18 189.217C473.804 80.221 374.278 0 255.999 0C137.72 0 38.1944 80.221 8.81836 189.217L255.999 200.348L503.18 189.217Z" fill="#A2001D"/><path id="Vector_2" d="M8.81836 322.783C38.1944 431.778 137.72 512 255.999 512C374.278 512 473.804 431.779 503.18 322.783L255.999 311.652L8.81836 322.783Z" fill="#A2001D"/></g><path id="Vector_3" d="M503.181 189.217H8.819C3.08 210.51 0 232.893 0 256C0 279.107 3.08 301.49 8.819 322.783H503.182C508.92 301.49 512 279.107 512 256C512 232.893 508.92 210.51 503.181 189.217Z" fill="#6DA544"/></g><defs><clipPath id="clip0_1_1897"><rect width="512" height="512" fill="white"/></clipPath></defs></svg>