<svg viewBox="0 0 512 512" fill="none" xmlns="http://www.w3.org/2000/svg"><g id="trinidad and tobago" clip-path="url(#clip0_1_1902)"><path id="Vector" d="M138.617 28.4258C115.699 40.2548 94.1857 55.7598 74.9737 74.9718C55.7607 94.1848 40.2557 115.698 28.4277 138.616L193.035 318.965L373.384 483.572C396.303 471.743 417.816 456.238 437.028 437.027C456.241 417.814 471.745 396.301 483.574 373.383L318.967 193.033L138.617 28.4258Z" fill="#F0F0F0"/><path id="Vector_2" d="M437.027 437.027C447.766 426.288 457.344 414.829 465.776 402.81L109.191 46.2236C97.1716 54.6546 85.7126 64.2326 74.9736 74.9716C64.2346 85.7106 54.6566 97.1696 46.2246 109.19L402.81 465.774C414.828 457.343 426.288 447.766 437.027 437.027Z" fill="black"/><g id="Group"><path id="Vector_3" d="M74.9719 437.027C155.739 517.794 277.036 533.298 373.382 483.572L28.4269 138.616C-21.2981 234.962 -5.79108 356.26 74.9719 437.027Z" fill="#D80027"/><path id="Vector_4" d="M437.027 74.9732C356.26 -5.79279 234.963 -21.2968 138.617 28.4262L483.572 373.384C533.298 277.038 517.794 155.739 437.027 74.9732Z" fill="#D80027"/></g></g><defs><clipPath id="clip0_1_1902"><rect width="512" height="512" fill="white"/></clipPath></defs></svg>