<svg viewBox="0 0 512 512" fill="none" xmlns="http://www.w3.org/2000/svg"><g id="tunisia" clip-path="url(#clip0_1_1908)"><path id="Vector" d="M256 512C397.385 512 512 397.385 512 256C512 114.615 397.385 0 256 0C114.615 0 0 114.615 0 256C0 397.385 114.615 512 256 512Z" fill="#D80027"/><path id="Vector_2" d="M256 378.435C323.619 378.435 378.435 323.619 378.435 256C378.435 188.381 323.619 133.565 256 133.565C188.381 133.565 133.565 188.381 133.565 256C133.565 323.619 188.381 378.435 256 378.435Z" fill="#F0F0F0"/><g id="Group"><path id="Vector_3" d="M271.083 209.187L292.087 238.132L326.104 227.102L305.067 256.022L326.069 284.966L292.063 273.894L271.026 302.814L271.048 267.053L237.043 255.981L271.061 244.951L271.083 209.187Z" fill="#D80027"/><path id="Vector_4" d="M283.826 328.348C243.87 328.348 211.478 295.956 211.478 256C211.478 216.044 243.87 183.652 283.826 183.652C296.284 183.652 308.007 186.802 318.241 192.348C302.186 176.647 280.231 166.956 256 166.956C206.824 166.956 166.957 206.822 166.957 255.999C166.957 305.176 206.824 345.042 256 345.042C280.231 345.042 302.187 335.351 318.241 319.65C308.007 325.198 296.284 328.348 283.826 328.348Z" fill="#D80027"/></g></g><defs><clipPath id="clip0_1_1908"><rect width="512" height="512" fill="white"/></clipPath></defs></svg>