<svg viewBox="0 0 512 512" fill="none" xmlns="http://www.w3.org/2000/svg"><g id="turkey" clip-path="url(#clip0_1_1914)"><path id="Vector" d="M256 512C397.385 512 512 397.385 512 256C512 114.615 397.385 0 256 0C114.615 0 0 114.615 0 256C0 397.385 114.615 512 256 512Z" fill="#D80027"/><g id="Group"><path id="Vector_2" d="M245.519 209.187L266.524 238.132L300.541 227.102L279.503 256.022L300.505 284.966L266.5 273.894L245.463 302.814L245.485 267.053L211.479 255.981L245.497 244.951L245.519 209.187Z" fill="#F0F0F0"/><path id="Vector_3" d="M188.194 328.348C148.238 328.348 115.846 295.956 115.846 256C115.846 216.044 148.238 183.652 188.194 183.652C200.652 183.652 212.374 186.803 222.608 192.348C206.553 176.646 184.596 166.956 160.368 166.956C111.19 166.956 71.3252 206.822 71.3252 255.999C71.3252 305.176 111.191 345.042 160.368 345.042C184.598 345.042 206.554 335.351 222.608 319.65C212.374 325.197 200.652 328.348 188.194 328.348Z" fill="#F0F0F0"/></g></g><defs><clipPath id="clip0_1_1914"><rect width="512" height="512" fill="white"/></clipPath></defs></svg>