<svg viewBox="0 0 512 512" fill="none" xmlns="http://www.w3.org/2000/svg"><g id="turks and caicos" clip-path="url(#clip0_1_1947)"><path id="Vector" d="M512 256C512 397.384 397.384 512 256 512C114.616 512 0 397.384 0 256C0 256.061 256 0.028 256 0C397.384 0 512 114.616 512 256Z" fill="#0052B4"/><g id="Group"><path id="Vector_2" d="M255.315 256H256C256 255.77 256 255.546 256 255.315C255.772 255.544 255.544 255.772 255.315 256Z" fill="#F0F0F0"/><path id="Vector_3" d="M256 133.565C256 88.52 256 59.005 256 0H255.957C114.591 0.024 0 114.629 0 256H133.565V180.789L208.776 256H255.316C255.544 255.772 255.772 255.544 256.001 255.315C256.001 238.068 256.001 222.679 256.001 208.778L180.788 133.565H256Z" fill="#F0F0F0"/></g><g id="Group_2"><path id="Vector_4" d="M129.515 33.3906C89.4756 56.1896 56.1886 89.4756 33.3906 129.515V256H100.174V100.176V100.174H256C256 79.1106 256 59.0446 256 33.3906H129.515Z" fill="#D80027"/><path id="Vector_5" d="M255.999 224.518L165.044 133.565H133.564V133.567L255.997 255.999H255.999C255.999 255.999 255.999 234.292 255.999 224.518Z" fill="#D80027"/></g><path id="Vector_6" d="M289.391 133.565V255.999C289.391 315.639 367.304 333.913 367.304 333.913C367.304 333.913 445.217 315.639 445.217 255.999V133.565H289.391Z" fill="#FFDA44"/><path id="Vector_7" d="M356.174 178.087C356.174 190.382 346.208 222.609 333.913 222.609C321.618 222.609 311.652 190.382 311.652 178.087C311.652 165.792 333.913 155.826 333.913 155.826C333.913 155.826 356.174 165.792 356.174 178.087Z" fill="#FF9811"/><path id="Vector_8" d="M415.245 202.332C418.837 193.567 421.631 180.755 421.631 174.377C421.631 164.131 408.274 155.826 408.274 155.826C408.274 155.826 394.917 164.132 394.917 174.377C394.917 180.755 397.711 193.567 401.303 202.332L393.592 219.742C398.124 221.584 403.078 222.608 408.273 222.608C413.468 222.608 418.422 221.584 422.954 219.742L415.245 202.332Z" fill="#A2001D"/><path id="Vector_9" d="M350.609 256C350.609 256 339.479 278.261 339.479 300.522H395.131C395.13 278.261 384 256 384 256L367.303 244.87L350.609 256Z" fill="#6DA544"/><path id="Vector_10" d="M384 256V250.435C384 241.215 376.525 233.739 367.304 233.739C358.084 233.739 350.608 241.214 350.608 250.435V256H384Z" fill="#D80027"/></g><defs><clipPath id="clip0_1_1947"><rect width="512" height="512" fill="white"/></clipPath></defs></svg>