<svg viewBox="0 0 512 512" fill="none" xmlns="http://www.w3.org/2000/svg"><g id="tuvalu"><path id="Vector" d="M512 256C512 397.384 397.384 512 256.001 512C114.616 512 0 397.384 0 256C0 256.061 256.001 0.028 256.001 0C397.384 0 512 114.616 512 256Z" fill="#338AF3"/><g id="Group"><path id="Vector_2" d="M122.435 256H208.777L133.565 166.957L122.435 200.348V256Z" fill="#0052B4"/><path id="Vector_3" d="M256.001 208.778L166.957 122.435H256L256.001 208.778Z" fill="#0052B4"/></g><g id="Group_2"><path id="Vector_4" d="M255.315 256H256C256 255.77 256 255.546 256 255.315C255.772 255.544 255.544 255.772 255.315 256Z" fill="#F0F0F0"/><path id="Vector_5" d="M256.001 133.565C256.001 88.52 256.001 59.004 256.001 0H255.958C114.592 0.024 0 114.629 0 256H133.566V180.789L208.777 256H255.317C255.545 255.772 255.773 255.544 256.002 255.315C256.002 238.068 256.002 222.679 256.002 208.778L180.788 133.565H256.001Z" fill="#F0F0F0"/></g><g id="Group_3"><path id="Vector_6" d="M129.515 33.3906C89.4756 56.1896 56.1896 89.4756 33.3906 129.515V256H100.174V100.176V100.174H256C256 79.1106 256 59.0446 256 33.3906H129.515Z" fill="#D80027"/><path id="Vector_7" d="M256 224.518L165.045 133.565H133.565V133.567L255.998 255.999H256C256 255.999 256 234.292 256 224.518Z" fill="#D80027"/></g><g id="Group_4"><path id="Vector_8" d="M279.406 422.957L284.932 439.963H302.813L288.348 450.473L293.874 467.478L279.406 456.969L264.941 467.478L270.467 450.473L256 439.963H273.88L279.406 422.957Z" fill="#FFDA44"/><path id="Vector_9" d="M421.811 311.652L427.336 328.658H445.217L430.752 339.169L436.279 356.174L421.811 345.665L407.346 356.174L412.872 339.169L398.404 328.658H416.285L421.811 311.652Z" fill="#FFDA44"/><path id="Vector_10" d="M457.493 144.696L463.019 161.702H480.9L466.435 172.212L471.96 189.217L457.493 178.708L443.028 189.217L448.554 172.212L434.087 161.702H451.968L457.493 144.696Z" fill="#FFDA44"/><path id="Vector_11" d="M466.333 267.13L471.858 284.137H489.739L475.274 294.647L480.8 311.652L466.333 301.143L451.868 311.652L457.394 294.647L442.926 284.137H460.807L466.333 267.13Z" fill="#FFDA44"/><path id="Vector_12" d="M305.046 382.96L320.981 391.079L333.624 378.436L330.828 396.095L346.759 404.213L329.097 407.011L326.3 424.672L318.184 408.739L300.522 411.538L313.165 398.895L305.046 382.96Z" fill="#FFDA44"/><path id="Vector_13" d="M305.046 316.177L320.981 324.295L333.624 311.652L330.828 329.312L346.759 337.429L329.097 340.227L326.3 357.888L318.184 341.956L300.522 344.754L313.165 332.111L305.046 316.177Z" fill="#FFDA44"/><path id="Vector_14" d="M360.698 358.984L376.633 367.103L389.276 354.46L386.48 372.119L402.411 380.237L384.749 383.035L381.952 400.696L373.836 384.762L356.174 387.562L368.817 374.919L360.698 358.984Z" fill="#FFDA44"/><path id="Vector_15" d="M360.698 216.004L376.633 224.122L389.276 211.479L386.48 229.139L402.411 237.256L384.749 240.054L381.952 257.715L373.836 241.783L356.174 244.581L368.817 231.938L360.698 216.004Z" fill="#FFDA44"/><path id="Vector_16" d="M414.635 214.29L430.57 222.408L443.213 209.765L440.416 227.425L456.348 235.542L438.686 238.34L435.889 256.001L427.773 240.069L410.111 242.867L422.754 230.224L414.635 214.29Z" fill="#FFDA44"/></g></g></svg>