<svg viewBox="0 0 512 512" fill="none" xmlns="http://www.w3.org/2000/svg"><g id="united nations"><path id="Vector" d="M256 512C397.385 512 512 397.385 512 256C512 114.615 397.385 0 256 0C114.615 0 0 114.615 0 256C0 397.385 114.615 512 256 512Z" fill="#338AF3"/><g id="Group"><path id="Vector_2" d="M255.26 166.957C206.081 166.957 166.217 206.823 166.217 256C166.217 305.177 206.082 345.043 255.26 345.043C304.436 345.043 344.303 305.177 344.303 256C344.303 206.823 304.435 166.957 255.26 166.957ZM232.999 256C232.999 243.706 242.965 233.739 255.26 233.739C267.554 233.739 277.521 243.706 277.521 256C277.521 268.295 267.554 278.261 255.26 278.261C242.965 278.261 232.999 268.295 232.999 256ZM278.34 217.921C274.885 215.822 271.119 214.192 267.131 213.091V190.291C277.172 192.093 286.43 196.132 294.376 201.886L278.34 217.921ZM244.871 212.71C240.694 213.709 236.748 215.296 233.122 217.379L217.012 201.269C225.156 195.567 234.624 191.628 244.871 190.025V212.71ZM233.121 294.621C236.747 296.703 240.693 298.291 244.87 299.289V321.973C234.622 320.372 225.156 316.431 217.012 310.729L233.121 294.621ZM267.132 298.909C271.119 297.808 274.887 296.179 278.34 294.08L294.375 310.115C286.429 315.868 277.172 319.908 267.131 321.71V298.91H267.132V298.909ZM293.88 278.14C295.841 274.727 297.374 271.035 298.379 267.131H321.101C319.429 277.093 315.555 286.302 309.991 294.248L293.88 278.14ZM298.379 244.87C297.374 240.965 295.841 237.276 293.88 233.862L309.99 217.752C315.554 225.699 319.429 234.907 321.1 244.869H298.378V244.87H298.379ZM201.145 216.885L217.18 232.92C214.951 236.59 213.238 240.606 212.14 244.87H189.418C191.151 234.544 195.25 225.026 201.145 216.885ZM189.418 267.13H212.14C213.237 271.394 214.95 275.41 217.18 279.08L201.145 295.115C195.25 286.974 191.151 277.457 189.418 267.13Z" fill="#F0F0F0"/><path id="Vector_3" d="M399.954 256C399.954 216.42 384.056 180.559 358.306 154.435L334.695 178.046C354.403 198.126 366.563 225.642 366.563 256C366.563 317.472 316.73 367.304 255.259 367.304C193.786 367.304 143.955 317.472 143.955 256C143.955 225.263 156.412 197.437 176.555 177.296L152.944 153.685C126.759 179.87 110.564 216.044 110.564 256C110.564 322.215 155.041 378.042 215.75 395.235C209.094 407.879 210.108 423.798 219.616 435.663C232.104 425.655 245.033 415.293 256.001 406.505C266.969 415.294 279.899 425.655 292.386 435.663C301.988 423.68 302.933 407.559 296.056 394.854C356.101 377.239 399.954 321.745 399.954 256Z" fill="#F0F0F0"/></g></g></svg>