<svg viewBox="0 0 512 512" fill="none" xmlns="http://www.w3.org/2000/svg"><g id="united arab emirates" clip-path="url(#clip0_1_1994)"><path id="Vector" d="M256 512C397.385 512 512 397.385 512 256C512 114.615 397.385 0 256 0C114.615 0 0 114.615 0 256C0 397.385 114.615 512 256 512Z" fill="#F0F0F0"/><path id="Vector_2" d="M144.696 345.043L166.957 496.079C194.689 506.37 224.686 512 256 512C366.07 512 459.906 442.528 496.076 345.043H144.696Z" fill="black"/><path id="Vector_3" d="M144.696 166.957L166.957 15.921C194.689 5.63 224.686 0 256 0C366.07 0 459.906 69.472 496.076 166.957H144.696Z" fill="#6DA544"/><path id="Vector_4" d="M0 256C0 366.071 69.473 459.906 166.957 496.077V15.9229C69.473 52.0939 0 145.929 0 256Z" fill="#A2001D"/></g><defs><clipPath id="clip0_1_1994"><rect width="512" height="512" fill="white"/></clipPath></defs></svg>