<svg viewBox="0 0 512 512" fill="none" xmlns="http://www.w3.org/2000/svg"><g id="united kingdom"><path id="Vector" d="M256 512C397.385 512 512 397.385 512 256C512 114.615 397.385 0 256 0C114.615 0 0 114.615 0 256C0 397.385 114.615 512 256 512Z" fill="#F0F0F0"/><g id="Group"><path id="Vector_2" d="M52.9194 100.143C32.8104 126.306 17.6474 156.461 8.81836 189.22H141.996L52.9194 100.143Z" fill="#0052B4"/><path id="Vector_3" d="M503.18 189.22C494.351 156.462 479.187 126.307 459.079 100.144L370.004 189.22H503.18Z" fill="#0052B4"/><path id="Vector_4" d="M8.81836 322.784C17.6484 355.542 32.8114 385.697 52.9194 411.859L141.993 322.784H8.81836Z" fill="#0052B4"/><path id="Vector_5" d="M411.857 52.9213C385.694 32.8123 355.54 17.6493 322.781 8.81934V141.996L411.857 52.9213Z" fill="#0052B4"/><path id="Vector_6" d="M100.141 459.079C126.304 479.188 156.459 494.351 189.217 503.181V370.005L100.141 459.079Z" fill="#0052B4"/><path id="Vector_7" d="M189.216 8.81934C156.458 17.6493 126.303 32.8123 100.141 52.9203L189.216 141.995V8.81934Z" fill="#0052B4"/><path id="Vector_8" d="M322.783 503.181C355.541 494.351 385.696 479.188 411.858 459.08L322.783 370.005V503.181Z" fill="#0052B4"/><path id="Vector_9" d="M370.004 322.784L459.079 411.86C479.187 385.698 494.351 355.542 503.18 322.784H370.004Z" fill="#0052B4"/></g><g id="Group_2"><path id="Vector_10" d="M509.833 222.609H289.393H289.392V2.167C278.461 0.744 267.317 0 256 0C244.681 0 233.539 0.744 222.609 2.167V222.607V222.608H2.167C0.744 233.539 0 244.683 0 256C0 267.319 0.744 278.461 2.167 289.391H222.607H222.608V509.833C233.539 511.256 244.681 512 256 512C267.317 512 278.461 511.257 289.391 509.833V289.393V289.392H509.833C511.256 278.461 512 267.319 512 256C512 244.683 511.256 233.539 509.833 222.609Z" fill="#D80027"/><path id="Vector_11" d="M322.783 322.784L437.019 437.02C442.273 431.768 447.285 426.277 452.067 420.585L354.265 322.783H322.783V322.784Z" fill="#D80027"/><path id="Vector_12" d="M189.217 322.784H189.215L74.9805 437.019C80.2325 442.273 85.7235 447.285 91.4155 452.067L189.217 354.263V322.784Z" fill="#D80027"/><path id="Vector_13" d="M189.218 189.219V189.217L74.9816 74.9805C69.7276 80.2325 64.7156 85.7235 59.9336 91.4155L157.737 189.218H189.218V189.219Z" fill="#D80027"/><path id="Vector_14" d="M322.783 189.219L437.02 74.9806C431.768 69.7266 426.277 64.7146 420.585 59.9336L322.783 157.737V189.219Z" fill="#D80027"/></g></g></svg>