<svg viewBox="0 0 512 512" fill="none" xmlns="http://www.w3.org/2000/svg"><g id="uruguay" clip-path="url(#clip0_1_2029)"><path id="Vector" d="M256 512C397.385 512 512 397.385 512 256C512 114.615 397.385 0 256 0C114.615 0 0 114.615 0 256C0 397.385 114.615 512 256 512Z" fill="#F0F0F0"/><path id="SVGCleanerId 0" d="M256 189.217H503.181C496.762 165.403 487.006 142.962 474.426 122.434H256V189.217Z" fill="#338AF3"/><g id="Group"><path id="Vector_2" d="M96.6432 456.348H415.356C438.719 437.74 458.755 415.138 474.425 389.565H37.5742C53.2452 415.137 73.2812 437.74 96.6432 456.348Z" fill="#338AF3"/><path id="Vector_3" d="M256 0V55.652H415.357C371.627 20.824 316.249 0 256 0Z" fill="#338AF3"/></g><g id="Group_2"><path id="SVGCleanerId 0 1" d="M256 189.217H503.181C496.762 165.403 487.006 142.962 474.426 122.434H256V189.217Z" fill="#338AF3"/></g><path id="Vector_4" d="M0 256C0 279.107 3.08 301.489 8.819 322.783H503.182C508.92 301.489 512 279.107 512 256H0Z" fill="#338AF3"/><path id="Vector_5" d="M222.609 149.821L191.343 164.528L207.992 194.808L174.042 188.314L169.74 222.609L146.094 197.385L122.446 222.609L118.145 188.314L84.1951 194.806L100.843 164.527L69.5791 149.821L100.844 135.116L84.1951 104.836L118.144 111.33L122.447 77.0352L146.094 102.259L169.741 77.0352L174.042 111.33L207.993 104.836L191.344 135.117L222.609 149.821Z" fill="#FFDA44"/></g><defs><clipPath id="clip0_1_2029"><rect width="512" height="512" fill="white"/></clipPath></defs></svg>