<svg viewBox="0 0 512 512" fill="none" xmlns="http://www.w3.org/2000/svg"><g id="vanuatu" clip-path="url(#clip0_1_2060)"><path id="Vector" d="M511.999 256.001C511.999 244.684 511.256 233.54 509.832 222.61H222.605C170.304 170.312 74.9754 74.9893 74.9794 74.9813C-24.9944 174.955 -24.9944 337.045 74.9794 437.021L222.608 289.393H509.832C511.255 278.462 511.999 267.318 511.999 256.001Z" fill="black"/><g id="Group"><path id="Vector_2" d="M511.927 261.822C511.916 262.316 511.905 262.812 511.891 263.306C511.903 262.81 511.915 262.316 511.927 261.822Z" fill="#F0F0F0"/><path id="Vector_3" d="M511.681 268.818C511.658 269.307 511.624 269.794 511.598 270.282C511.624 269.795 511.656 269.307 511.681 268.818Z" fill="#F0F0F0"/><path id="Vector_4" d="M511.336 274.398C511.285 275.117 511.235 275.836 511.177 276.553C511.235 275.836 511.284 275.117 511.336 274.398Z" fill="#F0F0F0"/><path id="Vector_5" d="M510.48 228.098C510.574 228.954 510.668 229.809 510.753 230.667C510.668 229.808 510.573 228.954 510.48 228.098Z" fill="#F0F0F0"/><path id="Vector_6" d="M511.597 241.717C511.624 242.205 511.657 242.692 511.68 243.181C511.656 242.692 511.624 242.204 511.597 241.717Z" fill="#F0F0F0"/><path id="Vector_7" d="M511.89 248.695C511.904 249.189 511.914 249.685 511.926 250.179C511.915 249.683 511.903 249.189 511.89 248.695Z" fill="#F0F0F0"/><path id="Vector_8" d="M511.177 235.446C511.235 236.163 511.285 236.882 511.336 237.601C511.284 236.882 511.235 236.163 511.177 235.446Z" fill="#F0F0F0"/></g><path id="Vector_9" d="M509.832 222.609C509.947 223.486 510.049 224.368 510.154 225.247C494.96 98.3648 386.974 0.000976561 255.999 0.000976561C185.305 0.000976561 121.304 28.6559 74.9774 74.9848L222.601 222.61H509.832V222.609Z" fill="#D80027"/><path id="Vector_10" d="M509.832 289.391H222.601L74.9774 437.016C121.304 483.344 185.305 512 255.999 512C386.974 512 494.961 413.636 510.154 286.753C510.049 287.632 509.945 288.514 509.832 289.391Z" fill="#6DA544"/><path id="Vector_11" d="M510.752 281.332C510.667 282.19 510.573 283.045 510.479 283.901C510.573 283.045 510.668 282.191 510.752 281.332Z" fill="#F0F0F0"/><path id="Vector_12" d="M511.335 237.601C511.432 238.97 511.52 240.342 511.595 241.717C511.519 240.342 511.432 238.97 511.335 237.601Z" fill="black"/><path id="Vector_13" d="M510.154 225.247C510.269 226.196 510.378 227.147 510.48 228.099C510.376 227.147 510.267 226.197 510.154 225.247Z" fill="black"/><path id="Vector_14" d="M510.752 230.668C510.908 232.257 511.049 233.85 511.176 235.449C511.05 233.85 510.909 232.256 510.752 230.668Z" fill="black"/><path id="Vector_15" d="M511.999 256C511.999 257.947 511.969 259.886 511.926 261.821C511.969 259.885 511.999 257.946 511.999 256Z" fill="black"/><path id="Vector_16" d="M511.596 270.283C511.52 271.658 511.432 273.03 511.336 274.399C511.432 273.03 511.519 271.658 511.596 270.283Z" fill="black"/><path id="Vector_17" d="M511.176 276.553C511.049 278.15 510.908 279.744 510.752 281.332C510.909 279.744 511.05 278.15 511.176 276.553Z" fill="black"/><path id="Vector_18" d="M510.48 283.902C510.378 284.854 510.269 285.804 510.154 286.754C510.267 285.805 510.376 284.854 510.48 283.902Z" fill="black"/><path id="Vector_19" d="M511.926 250.178C511.969 252.114 511.999 254.054 511.999 255.999C511.999 254.054 511.969 252.114 511.926 250.178Z" fill="black"/><path id="Vector_20" d="M511.68 243.181C511.77 245.013 511.838 246.852 511.89 248.694C511.838 246.851 511.771 245.013 511.68 243.181Z" fill="black"/><path id="Vector_21" d="M511.889 263.306C511.837 265.148 511.769 266.987 511.679 268.819C511.771 266.986 511.838 265.148 511.889 263.306Z" fill="black"/><g id="Group_2"><path id="Vector_22" d="M511.754 244.778H213.2L59.8433 91.4442C54.8863 96.6722 49.5133 103.972 46.1903 109.171L192.849 255.907L46.0673 402.692C48.9733 407.862 55.3043 415.514 59.7493 420.493L213.203 267.039H511.79C511.949 263.347 511.999 259.639 511.999 255.909C511.998 250.911 511.86 247.226 511.754 244.778Z" fill="#FFDA44"/><path id="Vector_23" d="M62.1865 310.573V289.13C83.5844 289.13 100.991 271.721 100.991 250.325C100.991 235.186 88.6744 222.87 73.5364 222.87C63.2235 222.87 54.8325 231.26 54.8325 241.575C54.8325 248.17 60.1975 253.536 66.7934 253.536C70.5214 253.536 73.5544 250.501 73.5544 246.773H94.9964C94.9964 262.326 82.3444 274.978 66.7944 274.978C48.3755 274.979 33.3925 259.993 33.3925 241.577C33.3925 219.44 51.4025 201.431 73.5374 201.431C100.499 201.431 122.435 223.367 122.435 250.328C122.434 283.545 95.4074 310.573 62.1865 310.573Z" fill="#FFDA44"/></g></g><defs><clipPath id="clip0_1_2060"><rect width="512.001" height="512.001" fill="white"/></clipPath></defs></svg>