<svg viewBox="0 0 512 512" fill="none" xmlns="http://www.w3.org/2000/svg"><g id="virgin islands" clip-path="url(#clip0_1_2107)"><path id="Vector" d="M256 512C397.385 512 512 397.385 512 256C512 114.615 397.385 0 256 0C114.615 0 0 114.615 0 256C0 397.385 114.615 512 256 512Z" fill="#FCFCFC"/><g id="Group"><path id="Vector_2" d="M299.479 178.846C299.479 154.834 280.013 135.368 256 135.368C231.987 135.368 212.521 154.834 212.521 178.846H116.87C116.87 202.487 137.464 221.654 161.105 221.654H159.681C159.681 245.297 178.845 264.465 202.49 264.465C202.49 285.398 217.524 302.792 237.379 306.51L237.268 306.76H274.733L274.622 306.51C294.478 302.79 309.511 285.397 309.511 264.465C333.155 264.465 352.32 245.297 352.32 221.654H350.894C374.535 221.654 395.13 202.487 395.13 178.846H299.479Z" fill="#FFDA44"/><path id="Vector_3" d="M236.888 302.324L209.93 363.187C224.154 368.969 239.701 372.183 256.002 372.183C272.303 372.183 287.85 368.97 302.073 363.187L275.116 302.324H236.888Z" fill="#FFDA44"/></g><path id="Vector_4" d="M200.348 200.227V275.118C200.348 317.716 256 330.77 256 330.77C256 330.77 311.652 317.716 311.652 275.118V200.227H200.348Z" fill="#F0F0F0"/><g id="Group_2"><path id="Vector_5" d="M62.0787 257.802L92.1777 341.986L121.964 257.802H144.696L101.27 369.106H83.0847L39.3477 257.802H62.0787Z" fill="#338AF3"/><path id="Vector_6" d="M411.826 369.106V257.802H433.459V369.106H411.826Z" fill="#338AF3"/></g><g id="Group_3"><path id="Vector_7" d="M222.609 224.411V315.165C230.26 320.796 238.492 324.669 244.87 327.149V224.411H222.609Z" fill="#D80027"/><path id="Vector_8" d="M289.392 224.411V315.165C281.741 320.796 273.509 324.669 267.131 327.149V224.411H289.392Z" fill="#D80027"/></g><path id="Vector_9" d="M200.348 200.225H311.652V235.541H200.348V200.225Z" fill="#0052B4"/></g><defs><clipPath id="clip0_1_2107"><rect width="512" height="512" fill="white"/></clipPath></defs></svg>