<svg viewBox="0 0 512 512" fill="none" xmlns="http://www.w3.org/2000/svg"><g id="wales"><path id="Vector" d="M256 512C397.385 512 512 397.385 512 256C512 114.615 397.385 0 256 0C114.615 0 0 114.615 0 256C0 397.385 114.615 512 256 512Z" fill="#F0F0F0"/><path id="Vector_2" d="M512 256C512 397.384 397.384 512 256 512C114.616 512 0 397.384 0 256" fill="#496E2D"/><path id="Vector_3" d="M443.014 178.143C433.859 152.18 409.122 133.566 380.027 133.566H322.783C285.9 133.566 256 163.466 256 200.349C256 212.399 259.208 223.98 264.791 233.74C243.534 233.566 223.861 233.887 211.478 233.74C211.478 207.984 211.478 175.174 211.478 168.309L214.108 165.679C225.914 153.873 221.977 134.197 221.977 134.197C221.977 134.197 202.303 130.262 190.497 142.068L176.738 155.827H161.391C127.581 155.827 100.174 183.235 100.174 217.044H144.696V267.131C144.696 274.457 146.173 281.436 148.842 287.792L133.565 300.522H111.304V278.261H89.043V322.783H189.217V367.305H166.956V389.566H211.478V345.044L231.883 320.557H280.116L300.521 345.044V367.305H278.26V389.566H367.303V267.13C367.303 248.689 382.253 233.739 400.694 233.739C401.168 233.739 401.638 233.756 402.108 233.775C401.186 230.207 400.694 226.466 400.694 222.609C400.696 198.76 419.449 179.292 443.014 178.143ZM322.783 367.304V320.556H324.638L345.043 345.043V367.304H322.783Z" fill="#D80027"/></g></svg>