<svg width="73" height="75" viewBox="0 0 73 75" fill="none" xmlns="http://www.w3.org/2000/svg">
<path d="M7.74242 66.4346H3.97792C1.79726 66.4346 0.0297852 68.202 0.0297852 70.3827C0.0297852 72.5634 1.79726 74.3308 3.97792 74.3308H7.74242C9.92307 74.3308 11.6905 72.5634 11.6905 70.3827C11.6905 68.202 9.91848 66.4346 7.74242 66.4346Z" fill="url(#paint0_linear_2417_4057)"/>
<path d="M23.6302 60.1763C20.412 60.1763 17.7998 62.7885 17.7998 66.0066V68.4949C17.7998 71.7131 20.412 74.3253 23.6302 74.3253C26.8484 74.3253 29.4606 71.7131 29.4606 68.4949V66.0066C29.4606 62.7839 26.8484 60.1763 23.6302 60.1763Z" fill="#161616"/>
<path d="M41.3965 50.6732C38.1784 50.6732 35.5662 53.2854 35.5662 56.5036V68.4949C35.5662 71.7131 38.1784 74.3253 41.3965 74.3253C44.6147 74.3253 47.2269 71.7131 47.2269 68.4949V56.5036C47.2269 53.2854 44.6193 50.6732 41.3965 50.6732Z" fill="url(#paint1_linear_2417_4057)"/>
<path d="M59.2021 37.0665H59.1378C55.9334 37.0665 53.3396 39.665 53.3396 42.8648V68.5276C53.3396 71.732 55.938 74.3258 59.1378 74.3258H59.2021C62.4065 74.3258 65.0004 71.7274 65.0004 68.5276V42.8648C65.0004 39.665 62.4019 37.0665 59.2021 37.0665Z" fill="#161616"/>
<path d="M1.30839 25.8004C1.30839 20.2363 5.83497 15.7051 11.4037 15.7051H38.2785V14.3967H11.4037C5.11421 14.3967 0 19.5109 0 25.8004V61.5769H1.30839V25.8004Z" fill="url(#paint2_linear_2417_4057)"/>
<path d="M70.6566 5.98188L61.2775 0.564675C59.9737 -0.188225 58.3577 -0.188225 57.0539 0.564675L47.6748 5.98188C46.371 6.73478 45.563 8.13499 45.563 9.6362V20.466C45.563 21.9718 46.371 23.372 47.6748 24.1203L57.0539 29.5375C57.7058 29.914 58.4357 30.1022 59.1657 30.1022C59.8956 30.1022 60.6256 29.914 61.2775 29.5375L70.6566 24.1203C71.9604 23.3674 72.7684 21.9672 72.7684 20.466V9.6362C72.7684 8.13499 71.9604 6.73019 70.6566 5.98188ZM71.4554 20.466C71.4554 21.5035 70.8999 22.4676 70.0001 22.9864L60.621 28.4036C59.7212 28.9224 58.6056 28.9224 57.7104 28.4036L48.3313 22.9864C47.4315 22.4676 46.876 21.5035 46.876 20.466V9.6362C46.876 8.59866 47.4315 7.63458 48.3313 7.11582L57.7104 1.69861C58.1603 1.43694 58.6607 1.30839 59.1657 1.30839C59.6707 1.30839 60.1711 1.43694 60.621 1.69861L70.0001 7.11582C70.8999 7.63458 71.4554 8.59866 71.4554 9.6362V20.466Z" fill="#161616"/>
<path d="M58.3153 5.64277L51.1903 9.75618L59.1646 14.3608L67.1389 9.75618L60.0139 5.64277C59.4906 5.33978 58.8387 5.33978 58.3153 5.64277Z" fill="url(#paint3_linear_2417_4057)"/>
<path d="M66.8925 20.4945C67.4159 20.1915 67.7418 19.6268 67.7418 19.0254V10.7986L62.9214 13.5806L59.7721 15.3986V24.6079L66.8925 20.4945Z" fill="url(#paint4_linear_2417_4057)"/>
<path d="M59.7721 15.4017L62.9214 13.5791L59.7721 15.4017Z" fill="url(#paint5_linear_2417_4057)"/>
<path d="M50.5923 10.7986V19.0254C50.5923 19.6314 50.9182 20.1961 51.4416 20.4945L58.5666 24.6079V15.4032L50.5923 10.7986Z" fill="url(#paint6_linear_2417_4057)"/>
<defs>
<linearGradient id="paint0_linear_2417_4057" x1="-2.98921" y1="63.2133" x2="68.646" y2="121.247" gradientUnits="userSpaceOnUse">
<stop stop-color="#00FF50"/>
<stop offset="1" stop-color="#00A2FF"/>
</linearGradient>
<linearGradient id="paint1_linear_2417_4057" x1="14.9493" y1="41.0734" x2="86.5845" y2="99.107" gradientUnits="userSpaceOnUse">
<stop stop-color="#00FF50"/>
<stop offset="1" stop-color="#00A2FF"/>
</linearGradient>
<linearGradient id="paint2_linear_2417_4057" x1="18.1188" y1="37.1604" x2="89.754" y2="95.1939" gradientUnits="userSpaceOnUse">
<stop stop-color="#00FF50"/>
<stop offset="1" stop-color="#00A2FF"/>
</linearGradient>
<linearGradient id="paint3_linear_2417_4057" x1="47.7871" y1="0.536646" x2="119.422" y2="58.5702" gradientUnits="userSpaceOnUse">
<stop stop-color="#00FF50"/>
<stop offset="1" stop-color="#00A2FF"/>
</linearGradient>
<linearGradient id="paint4_linear_2417_4057" x1="45.719" y1="3.09151" x2="117.354" y2="61.1251" gradientUnits="userSpaceOnUse">
<stop stop-color="#00FF50"/>
<stop offset="1" stop-color="#00A2FF"/>
</linearGradient>
<linearGradient id="paint5_linear_2417_4057" x1="46.3388" y1="2.33065" x2="117.974" y2="60.3642" gradientUnits="userSpaceOnUse">
<stop stop-color="#00FF50"/>
<stop offset="1" stop-color="#00A2FF"/>
</linearGradient>
<linearGradient id="paint6_linear_2417_4057" x1="42.1263" y1="7.52861" x2="113.761" y2="65.5622" gradientUnits="userSpaceOnUse">
<stop stop-color="#00FF50"/>
<stop offset="1" stop-color="#00A2FF"/>
</linearGradient>
</defs>
</svg>
