<svg width="44" height="43" viewBox="0 0 44 43" fill="none" xmlns="http://www.w3.org/2000/svg">
<path d="M32.0695 9.59491L15.8496 0L0.0336511 9.42234L0 28.405L15.9506 38L32.0695 28.6121V9.59491ZM15.8833 2.89918L27.8632 10.0091L15.9506 17.1189L3.97083 10.0091L15.8833 2.89918ZM14.5036 34.0654L2.45653 26.99V12.8393L14.47 19.9491V34.0654H14.5036ZM17.5996 20.1562L29.613 13.0463V27.1626L17.5996 34.307V20.1562Z" fill="#00e28e"/>
<path d="M31 43C38.1797 43 44 37.1797 44 30C44 22.8203 38.1797 17 31 17C23.8203 17 18 22.8203 18 30C18 37.1797 23.8203 43 31 43Z" fill="#F4BB2B"/>
<g clip-path="url(#clip0_1753_11205)">
<path fill-rule="evenodd" clip-rule="evenodd" d="M31.478 20.8926L26.7305 23.6794L28.4759 24.7078L31.4773 22.951L34.4801 24.7078L36.2255 23.6794L31.478 20.8926ZM34.4794 26.1645L36.2255 27.1937V29.2529L33.2234 31.0104V34.5255L31.478 35.5548L29.7326 34.5255V31.0104L26.7305 29.2529V27.1937L28.4759 26.1645L31.4773 27.922L34.4801 26.1645H34.4794ZM36.2255 30.7088V32.768L34.4801 33.7973V31.738L36.2255 30.7095V30.7088ZM34.4629 35.2531L37.4642 33.4956V29.9812L39.2104 28.9512V34.5255L34.4629 37.3124V35.2531ZM37.4642 26.4661L35.7196 25.4369L37.465 24.4069L39.2104 25.4369V27.4962L37.465 28.5254L37.4642 26.4661ZM29.7333 38.0582V35.9982L31.4787 37.0274L33.2242 35.9982V38.0574L31.4787 39.0866L29.7333 38.0574V38.0582ZM28.4744 33.7965L26.7305 32.768V30.7088L28.4759 31.738V33.7973L28.4744 33.7965ZM31.4773 26.4654L29.7319 25.4369L31.4773 24.4069L33.2227 25.4369L31.4773 26.4661V26.4654ZM27.2365 25.4369L25.491 26.4661V28.5254L23.7456 27.4962V25.4369L25.491 24.4069L27.2365 25.4369ZM23.7456 28.9512L25.491 29.9812V33.4956L28.4924 35.2531V37.3124L23.7464 34.5255V28.9512H23.7456Z" fill="white"/>
</g>
<defs>
<clipPath id="clip0_1753_11205">
<rect width="15.6391" height="18.5714" fill="white" transform="translate(23.5713 20.7148)"/>
</clipPath>
</defs>
</svg>
