<svg width="73" height="81" viewBox="0 0 73 81" fill="none" xmlns="http://www.w3.org/2000/svg">
<path d="M46.6287 5.16954C45.5499 4.85277 44.4435 4.5865 43.3417 4.37073L43.0708 5.78012C44.1313 5.98671 45.1918 6.24379 46.2293 6.54679L46.6287 5.16954Z" fill="#323233"/>
<path d="M41.8651 74.5688C40.8414 74.7295 39.7947 74.8443 38.7617 74.9132V76.3547C39.8727 76.2858 40.9929 76.1619 42.0901 75.9874L41.8651 74.5688Z" fill="#323233"/>
<path d="M56.7548 68.4447L57.5903 69.6108C58.4993 68.9543 59.3945 68.2519 60.2438 67.5128L59.3027 66.4293C58.4855 67.1363 57.627 67.8158 56.7548 68.4447Z" fill="#323233"/>
<path d="M58.6176 11.294C57.727 10.6054 56.795 9.95345 55.8493 9.35205L55.0826 10.5594C55.9916 11.1379 56.8868 11.7668 57.7407 12.4279L58.6176 11.294Z" fill="#323233"/>
<path d="M70.8255 34.2064L72.2395 33.9676C72.0513 32.8612 71.8126 31.7457 71.5188 30.6622L70.1323 31.0341C70.4124 32.0762 70.6465 33.1413 70.8255 34.2064Z" fill="#161616"/>
<path d="M70.4919 27.4395C70.1017 26.3882 69.6564 25.3415 69.1697 24.3269L67.8751 24.9513C68.3434 25.9245 68.7703 26.9299 69.1468 27.9399L70.4919 27.4395Z" fill="#161616"/>
<path d="M51.1528 71.7276L51.7588 73.0268C52.778 72.5494 53.7834 72.0214 54.7521 71.4522L54.0267 70.2126C53.0994 70.7635 52.1307 71.2685 51.1528 71.7276Z" fill="#323233"/>
<path d="M70.5975 47.1342L72.0023 47.4234C72.2273 46.3262 72.4063 45.2014 72.5257 44.0813L71.0979 43.9252C70.9832 44.9994 70.8133 46.0783 70.5975 47.1342Z" fill="#161616"/>
<path d="M63.5533 15.9031C62.805 15.063 62.0108 14.2504 61.189 13.4838L60.2112 14.5351C61.0008 15.2696 61.7629 16.0546 62.4837 16.8626L63.5533 15.9031Z" fill="#161616"/>
<path d="M65.688 59.0891L66.8908 59.8695C67.506 58.9284 68.0798 57.9459 68.6032 56.9497L67.3315 56.2841C66.8311 57.239 66.2756 58.1847 65.688 59.0891Z" fill="#161616"/>
<path d="M52.9095 7.67125C51.9087 7.16167 50.8712 6.68881 49.829 6.27563L49.2965 7.60698C50.3019 8.00639 51.2981 8.45629 52.2576 8.94751L52.9095 7.67125Z" fill="#323233"/>
<path d="M67.5659 21.3475C66.9875 20.388 66.3539 19.4377 65.6883 18.5333L64.5314 19.3826C65.1741 20.2549 65.7801 21.1639 66.3356 22.0866L67.5659 21.3475Z" fill="#161616"/>
<path d="M45.0474 73.9123L45.4009 75.3033C46.4889 75.0278 47.5769 74.6927 48.6374 74.3163L48.1554 72.9666C47.1362 73.3292 46.0895 73.646 45.0474 73.9123Z" fill="#323233"/>
<path d="M68.7042 53.341L70.031 53.8873C70.4579 52.8497 70.839 51.7755 71.1695 50.7012L69.7968 50.2834C69.4847 51.3164 69.1128 52.3447 68.7042 53.341Z" fill="#161616"/>
<path d="M72.6446 37.3239L71.2123 37.4294C71.2811 38.3752 71.3133 39.3346 71.3087 40.2895V40.4273L71.3041 40.6798L72.741 40.7073L72.7456 40.4456V40.3033C72.7548 39.3117 72.7181 38.3109 72.6446 37.3239Z" fill="#161616"/>
<path d="M61.6542 64.18L62.6917 65.1717C63.4676 64.3591 64.2159 63.5006 64.9137 62.6191L63.7889 61.7285C63.1187 62.5732 62.3979 63.3996 61.6542 64.18Z" fill="#161616"/>
<path d="M1.48813 39.8442C1.56618 27.1367 8.56263 15.4667 19.7368 9.38845C24.2174 6.9507 29.2215 5.53213 34.3311 5.22914V3.7417C28.9781 4.0401 23.7262 5.52754 19.0252 8.08005C7.3736 14.42 0.0833307 26.5858 0.000695365 39.835C-0.0635765 49.5538 3.66419 58.7171 10.4954 65.6356C15.9447 71.1584 22.8539 74.7209 30.3646 75.9604V74.45C23.2579 73.2242 16.7206 69.827 11.5513 64.5888C5.00472 57.9551 1.42845 49.1682 1.48813 39.8442Z" fill="url(#paint0_linear_2417_3998)"/>
<path d="M36.6079 5.1693C35.8458 5.16471 35.0883 5.18766 34.3308 5.22898V8.84657L38.7564 4.42099L34.3354 0V3.74154C35.0929 3.70023 35.855 3.67727 36.6216 3.68645L36.6079 5.1693Z" fill="url(#paint1_linear_2417_3998)"/>
<path d="M36.6079 5.17025L36.6171 3.68282C35.855 3.67823 35.0929 3.69659 34.3308 3.73791V5.22993C35.0883 5.18862 35.8504 5.16566 36.6079 5.17025Z" fill="url(#paint2_linear_2417_3998)"/>
<path d="M36.6079 5.17025L36.6171 3.68282C35.855 3.67823 35.0929 3.69659 34.3308 3.73791V5.22993C35.0883 5.18862 35.8504 5.16566 36.6079 5.17025Z" fill="url(#paint3_linear_2417_3998)"/>
<path d="M38.6324 74.9229C38.6738 74.9183 38.7151 74.9138 38.7564 74.9138V71.287L34.3308 75.7126L38.7564 80.1381V76.3553C38.7472 76.3553 38.7334 76.3553 38.7243 76.3599L38.6324 74.9229Z" fill="#161616"/>
<path d="M38.6302 74.9228L38.7221 76.3552C38.7312 76.3552 38.745 76.3552 38.7542 76.3506V74.9091C38.7129 74.9136 38.6716 74.9228 38.6302 74.9228Z" fill="#161616"/>
<path d="M57.6926 31.4705C57.6926 29.1889 56.4668 27.0633 54.4882 25.9202L39.5909 17.3169C37.6168 16.1738 35.1607 16.1738 33.182 17.3169L18.2847 25.9202C16.3107 27.0633 15.0803 29.1889 15.0803 31.4705V48.6724C15.0803 50.9541 16.3061 53.0797 18.2847 54.2228L33.182 62.8214C34.1691 63.3907 35.2801 63.6753 36.3865 63.6753C37.4929 63.6753 38.6038 63.3907 39.5909 62.8214L54.4882 54.2228C56.4622 53.0797 57.6926 50.9541 57.6926 48.6724V31.4705ZM53.7445 52.9328L38.8472 61.5314C37.3276 62.4083 35.4453 62.4083 33.9258 61.5314L19.0285 52.9328C17.5089 52.0559 16.5678 50.4261 16.5678 48.6724V31.4659C16.5678 29.7122 17.5089 28.0825 19.0285 27.2056L33.9258 18.607C35.4453 17.7301 37.3276 17.7301 38.8472 18.607L53.7445 27.2102C55.264 28.0871 56.2052 29.7214 56.2052 31.4705V48.6724C56.2052 50.4216 55.264 52.0559 53.7445 52.9328Z" fill="#161616"/>
<path d="M37.7343 25.1218C36.9033 24.6397 35.8658 24.6397 35.0349 25.1218L23.723 31.6546L24.1224 31.8841L36.3846 38.9678V38.9632L49.0461 31.6546L37.7343 25.1218Z" fill="url(#paint4_linear_2417_3998)"/>
<path d="M37.3446 40.6197V55.2415L48.6565 48.7087C49.492 48.2313 50.0062 47.3361 50.0062 46.372V33.311L49.6068 33.5406L37.3446 40.6197Z" fill="url(#paint5_linear_2417_3998)"/>
<path d="M22.7677 46.372C22.7677 47.3361 23.2865 48.2313 24.1174 48.7087L35.4293 55.2415V40.6197L22.7677 33.311V46.372Z" fill="url(#paint6_linear_2417_3998)"/>
<defs>
<linearGradient id="paint0_linear_2417_3998" x1="13.4781" y1="25.073" x2="49.6242" y2="64.0139" gradientUnits="userSpaceOnUse">
<stop stop-color="#00FF50"/>
<stop offset="1" stop-color="#00A2FF"/>
</linearGradient>
<linearGradient id="paint1_linear_2417_3998" x1="35.5811" y1="5.59712" x2="74.5368" y2="47.5649" gradientUnits="userSpaceOnUse">
<stop stop-color="#00FF50"/>
<stop offset="1" stop-color="#00A2FF"/>
</linearGradient>
<linearGradient id="paint2_linear_2417_3998" x1="35.574" y1="4.56343" x2="71.7201" y2="43.5043" gradientUnits="userSpaceOnUse">
<stop stop-color="#00FF50"/>
<stop offset="1" stop-color="#00A2FF"/>
</linearGradient>
<linearGradient id="paint3_linear_2417_3998" x1="36.0932" y1="5.12269" x2="75.0489" y2="47.0906" gradientUnits="userSpaceOnUse">
<stop stop-color="#00FF50"/>
<stop offset="1" stop-color="#00A2FF"/>
</linearGradient>
<linearGradient id="paint4_linear_2417_3998" x1="24.7742" y1="19.1462" x2="58.6163" y2="55.6049" gradientUnits="userSpaceOnUse">
<stop stop-color="#00FF50"/>
<stop offset="1" stop-color="#00A2FF"/>
</linearGradient>
<linearGradient id="paint5_linear_2417_3998" x1="23.6102" y1="22.6594" x2="57.5774" y2="59.2529" gradientUnits="userSpaceOnUse">
<stop stop-color="#00FF50"/>
<stop offset="1" stop-color="#00A2FF"/>
</linearGradient>
<linearGradient id="paint6_linear_2417_3998" x1="15.0762" y1="28.9186" x2="48.9177" y2="65.3767" gradientUnits="userSpaceOnUse">
<stop stop-color="#00FF50"/>
<stop offset="1" stop-color="#00A2FF"/>
</linearGradient>
</defs>
</svg>
