<svg width="73" height="81" viewBox="0 0 73 81" fill="none" xmlns="http://www.w3.org/2000/svg">
<path d="M46.6287 5.16954C45.5499 4.85277 44.4435 4.5865 43.3417 4.37073L43.0708 5.78012C44.1313 5.98671 45.1918 6.24379 46.2293 6.54679L46.6287 5.16954Z" fill="url(#paint0_linear_2406_3101)"/>
<path d="M41.8651 74.5688C40.8414 74.7295 39.7947 74.8443 38.7617 74.9132V76.3547C39.8727 76.2858 40.9929 76.1619 42.0901 75.9874L41.8651 74.5688Z" fill="url(#paint1_linear_2406_3101)"/>
<path d="M56.7549 68.4447L57.5904 69.6108C58.4994 68.9543 59.3946 68.2519 60.2439 67.5128L59.3028 66.4293C58.4856 67.1363 57.6271 67.8158 56.7549 68.4447Z" fill="url(#paint2_linear_2406_3101)"/>
<path d="M58.6177 11.294C57.7271 10.6054 56.7952 9.95345 55.8494 9.35205L55.0828 10.5594C55.9918 11.1379 56.887 11.7668 57.7409 12.4279L58.6177 11.294Z" fill="url(#paint3_linear_2406_3101)"/>
<path d="M70.8255 34.2064L72.2395 33.9676C72.0513 32.8612 71.8126 31.7457 71.5188 30.6622L70.1323 31.0341C70.4124 32.0762 70.6465 33.1413 70.8255 34.2064Z" fill="url(#paint4_linear_2406_3101)"/>
<path d="M70.492 27.4395C70.1018 26.3882 69.6565 25.3415 69.1699 24.3269L67.8752 24.9513C68.3435 25.9245 68.7705 26.9299 69.1469 27.9399L70.492 27.4395Z" fill="url(#paint5_linear_2406_3101)"/>
<path d="M51.1528 71.7276L51.7588 73.0268C52.778 72.5494 53.7834 72.0214 54.7521 71.4522L54.0267 70.2126C53.0994 70.7635 52.1307 71.2685 51.1528 71.7276Z" fill="url(#paint6_linear_2406_3101)"/>
<path d="M70.5977 47.1342L72.0025 47.4234C72.2274 46.3262 72.4064 45.2014 72.5258 44.0813L71.0981 43.9252C70.9833 44.9994 70.8134 46.0783 70.5977 47.1342Z" fill="url(#paint7_linear_2406_3101)"/>
<path d="M63.5536 15.9031C62.8053 15.063 62.011 14.2504 61.1893 13.4838L60.2114 14.5351C61.0011 15.2696 61.7631 16.0546 62.4839 16.8626L63.5536 15.9031Z" fill="url(#paint8_linear_2406_3101)"/>
<path d="M65.688 59.0891L66.8908 59.8695C67.506 58.9284 68.0798 57.9459 68.6032 56.9497L67.3315 56.2841C66.8311 57.239 66.2756 58.1847 65.688 59.0891Z" fill="url(#paint9_linear_2406_3101)"/>
<path d="M52.9096 7.67125C51.9088 7.16167 50.8713 6.68881 49.8292 6.27563L49.2966 7.60698C50.302 8.00639 51.2982 8.45629 52.2577 8.94751L52.9096 7.67125Z" fill="url(#paint10_linear_2406_3101)"/>
<path d="M67.566 21.3475C66.9876 20.388 66.3541 19.4377 65.6884 18.5333L64.5315 19.3826C65.1742 20.2549 65.7802 21.1639 66.3357 22.0866L67.566 21.3475Z" fill="url(#paint11_linear_2406_3101)"/>
<path d="M45.0474 73.9123L45.4009 75.3033C46.4889 75.0278 47.5769 74.6927 48.6374 74.3163L48.1554 72.9666C47.1362 73.3292 46.0895 73.646 45.0474 73.9123Z" fill="url(#paint12_linear_2406_3101)"/>
<path d="M68.7043 53.341L70.0311 53.8873C70.4581 52.8497 70.8391 51.7755 71.1696 50.7012L69.797 50.2834C69.4848 51.3164 69.1129 52.3447 68.7043 53.341Z" fill="url(#paint13_linear_2406_3101)"/>
<path d="M72.6448 37.3239L71.2124 37.4294C71.2813 38.3752 71.3134 39.3346 71.3088 40.2895V40.4273L71.3042 40.6798L72.7412 40.7073L72.7458 40.4456V40.3033C72.7549 39.3117 72.7182 38.3109 72.6448 37.3239Z" fill="url(#paint14_linear_2406_3101)"/>
<path d="M61.6543 64.18L62.6918 65.1717C63.4677 64.3591 64.216 63.5006 64.9138 62.6191L63.789 61.7285C63.1188 62.5732 62.398 63.3996 61.6543 64.18Z" fill="url(#paint15_linear_2406_3101)"/>
<path d="M1.48825 39.8442C1.5663 27.1367 8.56275 15.4667 19.7369 9.38845C24.2176 6.9507 29.2216 5.53213 34.3312 5.22914V3.7417C28.9783 4.0401 23.7263 5.52754 19.0253 8.08005C7.37372 14.42 0.0834527 26.5858 0.000817435 39.835C-0.0634545 49.5538 3.66432 58.7171 10.4955 65.6356C15.9448 71.1584 22.8541 74.7209 30.3647 75.9604V74.45C23.2581 73.2242 16.7207 69.827 11.5514 64.5888C5.00484 57.9551 1.42857 49.1682 1.48825 39.8442Z" fill="url(#paint16_linear_2406_3101)"/>
<path d="M36.6081 5.1693C35.846 5.16471 35.0885 5.18766 34.3311 5.22898V8.84657L38.7566 4.42099L34.3356 0V3.74154C35.0931 3.70023 35.8552 3.67727 36.6219 3.68645L36.6081 5.1693Z" fill="url(#paint17_linear_2406_3101)"/>
<path d="M36.6081 5.17025L36.6173 3.68282C35.8552 3.67823 35.0931 3.69659 34.3311 3.73791V5.22993C35.0885 5.18862 35.8506 5.16566 36.6081 5.17025Z" fill="url(#paint18_linear_2406_3101)"/>
<path d="M36.6081 5.17025L36.6173 3.68282C35.8552 3.67823 35.0931 3.69659 34.3311 3.73791V5.22993C35.0885 5.18862 35.8506 5.16566 36.6081 5.17025Z" fill="url(#paint19_linear_2406_3101)"/>
<path d="M38.6327 74.9229C38.674 74.9183 38.7153 74.9138 38.7566 74.9138V71.287L34.3311 75.7126L38.7566 80.1381V76.3553C38.7475 76.3553 38.7337 76.3553 38.7245 76.3599L38.6327 74.9229Z" fill="white"/>
<path d="M38.6304 74.9228L38.7222 76.3552C38.7314 76.3552 38.7451 76.3552 38.7543 76.3506V74.9091C38.713 74.9136 38.6717 74.9228 38.6304 74.9228Z" fill="white"/>
<path d="M57.6928 31.4705C57.6928 29.1889 56.4671 27.0633 54.4884 25.9202L39.5911 17.3169C37.6171 16.1738 35.1609 16.1738 33.1823 17.3169L18.285 25.9202C16.3109 27.0633 15.0806 29.1889 15.0806 31.4705V48.6724C15.0806 50.9541 16.3063 53.0797 18.285 54.2228L33.1823 62.8214C34.1693 63.3907 35.2803 63.6753 36.3867 63.6753C37.4931 63.6753 38.6041 63.3907 39.5911 62.8214L54.4884 54.2228C56.4625 53.0797 57.6928 50.9541 57.6928 48.6724V31.4705ZM53.7447 52.9328L38.8474 61.5314C37.3278 62.4083 35.4456 62.4083 33.926 61.5314L19.0287 52.9328C17.5091 52.0559 16.568 50.4261 16.568 48.6724V31.4659C16.568 29.7122 17.5091 28.0825 19.0287 27.2056L33.926 18.607C35.4456 17.7301 37.3278 17.7301 38.8474 18.607L53.7447 27.2102C55.2643 28.0871 56.2054 29.7214 56.2054 31.4705V48.6724C56.2054 50.4216 55.2643 52.0559 53.7447 52.9328Z" fill="white"/>
<path d="M37.7344 25.1218C36.9035 24.6397 35.8659 24.6397 35.035 25.1218L23.7231 31.6546L24.1225 31.8841L36.3847 38.9678V38.9632L49.0463 31.6546L37.7344 25.1218Z" fill="url(#paint20_linear_2406_3101)"/>
<path d="M37.3447 40.6197V55.2415L48.6566 48.7087C49.4921 48.2313 50.0063 47.3361 50.0063 46.372V33.311L49.6069 33.5406L37.3447 40.6197Z" fill="url(#paint21_linear_2406_3101)"/>
<path d="M22.7678 46.372C22.7678 47.3361 23.2866 48.2313 24.1175 48.7087L35.4294 55.2415V40.6197L22.7678 33.311V46.372Z" fill="url(#paint22_linear_2406_3101)"/>
<defs>
<linearGradient id="paint0_linear_2406_3101" x1="39.3416" y1="5.404" x2="73.0966" y2="5.74833" gradientUnits="userSpaceOnUse">
<stop stop-color="white"/>
<stop offset="1" stop-color="white"/>
</linearGradient>
<linearGradient id="paint1_linear_2406_3101" x1="38.6289" y1="75.4389" x2="72.3839" y2="75.7833" gradientUnits="userSpaceOnUse">
<stop stop-color="white"/>
<stop offset="1" stop-color="white"/>
</linearGradient>
<linearGradient id="paint2_linear_2406_3101" x1="38.7037" y1="67.811" x2="72.4587" y2="68.1554" gradientUnits="userSpaceOnUse">
<stop stop-color="white"/>
<stop offset="1" stop-color="white"/>
</linearGradient>
<linearGradient id="paint3_linear_2406_3101" x1="39.2898" y1="10.7079" x2="73.0448" y2="11.0522" gradientUnits="userSpaceOnUse">
<stop stop-color="white"/>
<stop offset="1" stop-color="white"/>
</linearGradient>
<linearGradient id="paint4_linear_2406_3101" x1="39.0722" y1="32.104" x2="72.8273" y2="32.4483" gradientUnits="userSpaceOnUse">
<stop stop-color="white"/>
<stop offset="1" stop-color="white"/>
</linearGradient>
<linearGradient id="paint5_linear_2406_3101" x1="39.1334" y1="25.8214" x2="72.8884" y2="26.1657" gradientUnits="userSpaceOnUse">
<stop stop-color="white"/>
<stop offset="1" stop-color="white"/>
</linearGradient>
<linearGradient id="paint6_linear_2406_3101" x1="38.6652" y1="71.4727" x2="72.4202" y2="71.817" gradientUnits="userSpaceOnUse">
<stop stop-color="white"/>
<stop offset="1" stop-color="white"/>
</linearGradient>
<linearGradient id="paint7_linear_2406_3101" x1="38.9344" y1="45.3375" x2="72.6894" y2="45.6818" gradientUnits="userSpaceOnUse">
<stop stop-color="white"/>
<stop offset="1" stop-color="white"/>
</linearGradient>
<linearGradient id="paint8_linear_2406_3101" x1="39.2427" y1="14.9394" x2="72.9977" y2="15.2837" gradientUnits="userSpaceOnUse">
<stop stop-color="white"/>
<stop offset="1" stop-color="white"/>
</linearGradient>
<linearGradient id="paint9_linear_2406_3101" x1="38.8099" y1="57.7863" x2="72.5649" y2="58.1306" gradientUnits="userSpaceOnUse">
<stop stop-color="white"/>
<stop offset="1" stop-color="white"/>
</linearGradient>
<linearGradient id="paint10_linear_2406_3101" x1="39.3209" y1="7.48893" x2="73.076" y2="7.83327" gradientUnits="userSpaceOnUse">
<stop stop-color="white"/>
<stop offset="1" stop-color="white"/>
</linearGradient>
<linearGradient id="paint11_linear_2406_3101" x1="39.1954" y1="20.0346" x2="72.9504" y2="20.3789" gradientUnits="userSpaceOnUse">
<stop stop-color="white"/>
<stop offset="1" stop-color="white"/>
</linearGradient>
<linearGradient id="paint12_linear_2406_3101" x1="38.6439" y1="74.0459" x2="72.3989" y2="74.3902" gradientUnits="userSpaceOnUse">
<stop stop-color="white"/>
<stop offset="1" stop-color="white"/>
</linearGradient>
<linearGradient id="paint13_linear_2406_3101" x1="38.8714" y1="51.7644" x2="72.6265" y2="52.1088" gradientUnits="userSpaceOnUse">
<stop stop-color="white"/>
<stop offset="1" stop-color="white"/>
</linearGradient>
<linearGradient id="paint14_linear_2406_3101" x1="39.0018" y1="38.6698" x2="72.757" y2="39.0142" gradientUnits="userSpaceOnUse">
<stop stop-color="white"/>
<stop offset="1" stop-color="white"/>
</linearGradient>
<linearGradient id="paint15_linear_2406_3101" x1="38.7518" y1="63.1963" x2="72.5068" y2="63.5406" gradientUnits="userSpaceOnUse">
<stop stop-color="white"/>
<stop offset="1" stop-color="white"/>
</linearGradient>
<linearGradient id="paint16_linear_2406_3101" x1="13.4782" y1="25.073" x2="49.6243" y2="64.0139" gradientUnits="userSpaceOnUse">
<stop stop-color="#00FF50"/>
<stop offset="1" stop-color="#00A2FF"/>
</linearGradient>
<linearGradient id="paint17_linear_2406_3101" x1="35.5813" y1="5.59712" x2="74.5371" y2="47.5649" gradientUnits="userSpaceOnUse">
<stop stop-color="#00FF50"/>
<stop offset="1" stop-color="#00A2FF"/>
</linearGradient>
<linearGradient id="paint18_linear_2406_3101" x1="35.5743" y1="4.56343" x2="71.7204" y2="43.5043" gradientUnits="userSpaceOnUse">
<stop stop-color="#00FF50"/>
<stop offset="1" stop-color="#00A2FF"/>
</linearGradient>
<linearGradient id="paint19_linear_2406_3101" x1="36.0934" y1="5.12269" x2="75.0492" y2="47.0906" gradientUnits="userSpaceOnUse">
<stop stop-color="#00FF50"/>
<stop offset="1" stop-color="#00A2FF"/>
</linearGradient>
<linearGradient id="paint20_linear_2406_3101" x1="24.7744" y1="19.1462" x2="58.6164" y2="55.6049" gradientUnits="userSpaceOnUse">
<stop stop-color="#00FF50"/>
<stop offset="1" stop-color="#00A2FF"/>
</linearGradient>
<linearGradient id="paint21_linear_2406_3101" x1="23.6103" y1="22.6594" x2="57.5775" y2="59.2529" gradientUnits="userSpaceOnUse">
<stop stop-color="#00FF50"/>
<stop offset="1" stop-color="#00A2FF"/>
</linearGradient>
<linearGradient id="paint22_linear_2406_3101" x1="15.0763" y1="28.9186" x2="48.9178" y2="65.3767" gradientUnits="userSpaceOnUse">
<stop stop-color="#00FF50"/>
<stop offset="1" stop-color="#00A2FF"/>
</linearGradient>
</defs>
</svg>
