<svg width="22" height="22" viewBox="0 0 22 22" fill="none" xmlns="http://www.w3.org/2000/svg">
<path d="M1.31994 0.439453C0.835254 0.439453 0.439941 0.834766 0.439941 1.31945V10.5595H10.5599V0.439453H1.31994ZM11.4399 0.439453V10.5595H21.5599V1.31945C21.5599 0.834766 21.1646 0.439453 20.6799 0.439453H11.4399ZM5.71994 3.07945C5.96228 3.07945 6.15994 3.27711 6.15994 3.51945V5.27945H7.91994C8.16228 5.27945 8.35994 5.47711 8.35994 5.71945C8.35994 5.9618 8.16228 6.15945 7.91994 6.15945H6.15994V7.91945C6.15994 8.1618 5.96228 8.35945 5.71994 8.35945C5.4776 8.35945 5.27994 8.1618 5.27994 7.91945V6.15945H3.51994C3.2776 6.15945 3.07994 5.9618 3.07994 5.71945C3.07994 5.47711 3.2776 5.27945 3.51994 5.27945H5.27994V3.51945C5.27994 3.27711 5.4776 3.07945 5.71994 3.07945ZM14.5199 5.27945H18.9199C19.164 5.27945 19.3599 5.47711 19.3599 5.71945C19.3599 5.9618 19.164 6.15945 18.9199 6.15945H14.5199C14.2759 6.15945 14.0799 5.9618 14.0799 5.71945C14.0799 5.47711 14.2759 5.27945 14.5199 5.27945ZM0.439941 11.4395V20.6794C0.439941 21.1641 0.835254 21.5594 1.31994 21.5594H10.5599V11.4395H0.439941ZM11.4399 11.4395V21.5594H20.6799C21.1646 21.5594 21.5599 21.1641 21.5599 20.6794V11.4395H11.4399ZM4.16619 14.7257C4.27791 14.7257 4.38275 14.7635 4.46869 14.8495L5.71994 16.1007L6.97119 14.8495C7.14306 14.6776 7.41807 14.6776 7.58994 14.8495C7.76182 15.0213 7.76182 15.2963 7.58994 15.4682L6.33869 16.7194L7.58994 17.9707C7.76182 18.1426 7.76182 18.4176 7.58994 18.5894C7.504 18.6754 7.38713 18.7132 7.27369 18.7132C7.16025 18.7132 7.05713 18.6754 6.97119 18.5894L5.71994 17.3382L4.46869 18.5894C4.38275 18.6754 4.27963 18.7132 4.16619 18.7132C4.05275 18.7132 3.93588 18.6754 3.84994 18.5894C3.67807 18.4176 3.67807 18.1426 3.84994 17.9707L5.10119 16.7194L3.84994 15.4682C3.67807 15.2963 3.67807 15.0213 3.84994 14.8495C3.93588 14.7635 4.05447 14.7257 4.16619 14.7257ZM14.5199 14.9594H18.9199C19.164 14.9594 19.3599 15.1554 19.3599 15.3995C19.3599 15.6435 19.164 15.8394 18.9199 15.8394H14.5199C14.2759 15.8394 14.0799 15.6435 14.0799 15.3995C14.0799 15.1554 14.2759 14.9594 14.5199 14.9594ZM14.5199 17.5994H18.9199C19.164 17.5994 19.3599 17.7954 19.3599 18.0394C19.3599 18.2835 19.164 18.4795 18.9199 18.4795H14.5199C14.2759 18.4795 14.0799 18.2835 14.0799 18.0394C14.0799 17.7954 14.2759 17.5994 14.5199 17.5994Z" fill="white"/>
</svg>
