<svg width="28" height="26" viewBox="0 0 28 26" fill="none" xmlns="http://www.w3.org/2000/svg">
<path d="M20.1027 24.4125C20.4992 24.4125 20.8207 24.091 20.8207 23.6945C20.8207 23.298 20.4992 22.9766 20.1027 22.9766C19.7062 22.9766 19.3848 23.298 19.3848 23.6945C19.3848 24.091 19.7062 24.4125 20.1027 24.4125Z" fill="#959595"/>
<path d="M7.17889 24.4125C7.5754 24.4125 7.89684 24.091 7.89684 23.6945C7.89684 23.298 7.5754 22.9766 7.17889 22.9766C6.78237 22.9766 6.46094 23.298 6.46094 23.6945C6.46094 24.091 6.78237 24.4125 7.17889 24.4125Z" fill="#959595"/>
<path d="M20.1027 21.5414C20.4992 21.5414 20.8207 21.2199 20.8207 20.8234C20.8207 20.4269 20.4992 20.1055 20.1027 20.1055C19.7062 20.1055 19.3848 20.4269 19.3848 20.8234C19.3848 21.2199 19.7062 21.5414 20.1027 21.5414Z" fill="#959595"/>
<path d="M7.17889 21.5414C7.5754 21.5414 7.89684 21.2199 7.89684 20.8234C7.89684 20.4269 7.5754 20.1055 7.17889 20.1055C6.78237 20.1055 6.46094 20.4269 6.46094 20.8234C6.46094 21.2199 6.78237 21.5414 7.17889 21.5414Z" fill="#959595"/>
<path d="M20.1027 18.6703C20.4992 18.6703 20.8207 18.3488 20.8207 17.9523C20.8207 17.5558 20.4992 17.2344 20.1027 17.2344C19.7062 17.2344 19.3848 17.5558 19.3848 17.9523C19.3848 18.3488 19.7062 18.6703 20.1027 18.6703Z" fill="#959595"/>
<path d="M7.17889 18.6703C7.5754 18.6703 7.89684 18.3488 7.89684 17.9523C7.89684 17.5558 7.5754 17.2344 7.17889 17.2344C6.78237 17.2344 6.46094 17.5558 6.46094 17.9523C6.46094 18.3488 6.78237 18.6703 7.17889 18.6703Z" fill="#959595"/>
<path d="M20.1027 15.7953C20.4992 15.7953 20.8207 15.4738 20.8207 15.0773C20.8207 14.6808 20.4992 14.3594 20.1027 14.3594C19.7062 14.3594 19.3848 14.6808 19.3848 15.0773C19.3848 15.4738 19.7062 15.7953 20.1027 15.7953Z" fill="#959595"/>
<path d="M7.17889 12.9242C7.5754 12.9242 7.89684 12.6027 7.89684 12.2062C7.89684 11.8097 7.5754 11.4883 7.17889 11.4883C6.78237 11.4883 6.46094 11.8097 6.46094 12.2062C6.46094 12.6027 6.78237 12.9242 7.17889 12.9242Z" fill="#959595"/>
<path d="M20.1027 10.0531C20.4992 10.0531 20.8207 9.73165 20.8207 9.33514C20.8207 8.93862 20.4992 8.61719 20.1027 8.61719C19.7062 8.61719 19.3848 8.93862 19.3848 9.33514C19.3848 9.73165 19.7062 10.0531 20.1027 10.0531Z" fill="#959595"/>
<path d="M7.17889 10.0531C7.5754 10.0531 7.89684 9.73165 7.89684 9.33514C7.89684 8.93862 7.5754 8.61719 7.17889 8.61719C6.78237 8.61719 6.46094 8.93862 6.46094 9.33514C6.46094 9.73165 6.78237 10.0531 7.17889 10.0531Z" fill="#959595"/>
<path d="M20.1027 4.3109C20.4992 4.3109 20.8207 3.98946 20.8207 3.59295C20.8207 3.19644 20.4992 2.875 20.1027 2.875C19.7062 2.875 19.3848 3.19644 19.3848 3.59295C19.3848 3.98946 19.7062 4.3109 20.1027 4.3109Z" fill="#959595"/>
<path d="M7.17889 4.3109C7.5754 4.3109 7.89684 3.98946 7.89684 3.59295C7.89684 3.19644 7.5754 2.875 7.17889 2.875C6.78237 2.875 6.46094 3.19644 6.46094 3.59295C6.46094 3.98946 6.78237 4.3109 7.17889 4.3109Z" fill="#959595"/>
<path d="M20.1027 1.4359C20.4992 1.4359 20.8207 1.11446 20.8207 0.717949C20.8207 0.321437 20.4992 0 20.1027 0C19.7062 0 19.3848 0.321437 19.3848 0.717949C19.3848 1.11446 19.7062 1.4359 20.1027 1.4359Z" fill="#959595"/>
<path d="M7.17889 1.4359C7.5754 1.4359 7.89684 1.11446 7.89684 0.717949C7.89684 0.321437 7.5754 0 7.17889 0C6.78237 0 6.46094 0.321437 6.46094 0.717949C6.46094 1.11446 6.78237 1.4359 7.17889 1.4359Z" fill="#959595"/>
<path d="M26.5637 25.1312C26.9602 25.1312 27.2816 24.8098 27.2816 24.4133C27.2816 24.0167 26.9602 23.6953 26.5637 23.6953C26.1671 23.6953 25.8457 24.0167 25.8457 24.4133C25.8457 24.8098 26.1671 25.1312 26.5637 25.1312Z" fill="#ABB4BE"/>
<path d="M0.717949 25.1312C1.11446 25.1312 1.4359 24.8098 1.4359 24.4133C1.4359 24.0167 1.11446 23.6953 0.717949 23.6953C0.321437 23.6953 0 24.0167 0 24.4133C0 24.8098 0.321437 25.1312 0.717949 25.1312Z" fill="#ABB4BE"/>
<path d="M26.5649 23.6953H0.71875V25.1312H26.5649V23.6953Z" fill="#ABB4BE"/>
<path d="M0.717565 9.33479C0.560334 9.33479 0.401667 9.28309 0.269564 9.17755C-0.0405899 8.92986 -0.0901285 8.47827 0.157564 8.16884L3.02936 4.57909C3.22608 4.33212 3.56208 4.24452 3.85644 4.36083L7.31695 5.74504H9.33296C9.40978 5.74504 9.4866 5.75724 9.55983 5.78165L11.293 6.3596L15.2869 2.36565C15.5497 2.10288 15.9697 2.0835 16.254 2.32186L20.1259 5.54832L22.5432 3.73478C22.7615 3.57181 23.0515 3.54452 23.2949 3.66658L24.1636 4.10094L26.6836 0.320214C26.9033 -0.0100422 27.3485 -0.0997858 27.6794 0.121343C28.009 0.341035 28.098 0.786882 27.8783 1.11714L25.0065 5.42483C24.8055 5.72637 24.4128 5.82976 24.0882 5.66894L23.0494 5.14914L20.533 7.03735C20.2666 7.23694 19.899 7.22832 19.6427 7.01437L15.839 3.84463L11.9951 7.68853C11.8027 7.88094 11.5191 7.94842 11.2606 7.86227L9.21665 7.18094H7.17911C7.08793 7.18094 6.99747 7.16371 6.91203 7.12996L3.81695 5.8915L1.27757 9.06484C1.13613 9.24289 0.927206 9.33479 0.717565 9.33479Z" fill="#30DA60"/>
<path d="M2.8717 17.9493C2.73242 17.9493 2.59314 17.9084 2.47324 17.8287L0.319396 16.3928C-0.010143 16.1731 -0.0991687 15.7273 0.120524 15.397C0.340216 15.0668 0.785344 14.977 1.11632 15.1981L2.9234 16.4029L6.85848 14.435C7.02863 14.3502 7.22607 14.3359 7.40699 14.3962L9.22771 15.0029L11.0894 13.7615C11.2064 13.684 11.3457 13.6416 11.4871 13.6416H15.6254L19.7816 11.5632C19.9833 11.4619 20.2217 11.4619 20.4241 11.5632L22.8328 12.7679L23.9026 11.6981C23.9945 11.6062 24.1101 11.5409 24.2357 11.5093L27.1075 10.7914C27.4916 10.6945 27.8822 10.9292 27.9784 11.314C28.0746 11.6989 27.8405 12.0887 27.4557 12.1849L24.7771 12.8548L23.4819 14.1499C23.2643 14.3682 22.9305 14.4228 22.6534 14.2849L20.1025 13.0084L16.1157 15.0014C16.0166 15.0517 15.9061 15.0775 15.7948 15.0775H11.7046L9.73171 16.3928C9.54792 16.5156 9.31745 16.5465 9.10638 16.4768L7.23468 15.8529L3.19335 17.8739C3.0914 17.9242 2.98155 17.9493 2.8717 17.9493Z" fill="url(#paint0_linear_1917_14625)"/>
<defs>
<linearGradient id="paint0_linear_1917_14625" x1="-9.17054e-05" y1="14.3596" x2="27.9999" y2="14.3596" gradientUnits="userSpaceOnUse">
<stop stop-color="#00e28e"/>
<stop offset="1" stop-color="#30DA60"/>
</linearGradient>
</defs>
</svg>
