<svg width="44" height="43" viewBox="0 0 44 43" fill="none" xmlns="http://www.w3.org/2000/svg">
<path d="M32.0695 9.59491L15.8496 0L0.0336511 9.42234L0 28.405L15.9506 38L32.0695 28.6121V9.59491ZM15.8833 2.89918L27.8632 10.0091L15.9506 17.1189L3.97083 10.0091L15.8833 2.89918ZM14.5036 34.0654L2.45653 26.99V12.8393L14.47 19.9491V34.0654H14.5036ZM17.5996 20.1562L29.613 13.0463V27.1626L17.5996 34.307V20.1562Z" fill="#00e28e"/>
<path d="M31 43C38.1797 43 44 37.1797 44 30C44 22.8203 38.1797 17 31 17C23.8203 17 18 22.8203 18 30C18 37.1797 23.8203 43 31 43Z" fill="#627EEA"/>
<path d="M31.4048 20.25V27.4569L37.4961 30.1787L31.4048 20.25Z" fill="white" fill-opacity="0.602"/>
<path d="M31.4046 20.25L25.3125 30.1787L31.4046 27.4569V20.25Z" fill="white"/>
<path d="M31.4048 34.8485V39.7454L37.5002 31.3125L31.4048 34.8485Z" fill="white" fill-opacity="0.602"/>
<path d="M31.4046 39.7454V34.8477L25.3125 31.3125L31.4046 39.7454Z" fill="white"/>
<path d="M31.4048 33.7141L37.4961 30.1773L31.4048 27.457V33.7141Z" fill="white" fill-opacity="0.2"/>
<path d="M25.3125 30.1773L31.4046 33.7141V27.457L25.3125 30.1773Z" fill="white" fill-opacity="0.602"/>
</svg>
