<svg width="44" height="43" viewBox="0 0 44 43" fill="none" xmlns="http://www.w3.org/2000/svg">
<path d="M32.0695 9.59491L15.8496 0L0.0336511 9.42234L0 28.405L15.9506 38L32.0695 28.6121V9.59491ZM15.8833 2.89918L27.8632 10.0091L15.9506 17.1189L3.97083 10.0091L15.8833 2.89918ZM14.5036 34.0654L2.45653 26.99V12.8393L14.47 19.9491V34.0654H14.5036ZM17.5996 20.1562L29.613 13.0463V27.1626L17.5996 34.307V20.1562Z" fill="#00e28e"/>
<path d="M31 43C38.1797 43 44 37.1797 44 30C44 22.8203 38.1797 17 31 17C23.8203 17 18 22.8203 18 30C18 37.1797 23.8203 43 31 43Z" fill="#8247E5"/>
<path d="M35.7758 26.6389C35.4364 26.445 35 26.445 34.612 26.6389L31.8966 28.2391L30.054 29.2574L27.3871 30.8575C27.0477 31.0515 26.6113 31.0515 26.2234 30.8575L24.1383 29.5968C23.7989 29.4028 23.5565 29.0149 23.5565 28.5785V26.154C23.5565 25.7661 23.7504 25.3782 24.1383 25.1358L26.2234 23.9235C26.5628 23.7296 26.9992 23.7296 27.3871 23.9235L29.4722 25.1843C29.8116 25.3782 30.054 25.7661 30.054 26.2025V27.8027L31.8966 26.7359V25.0873C31.8966 24.6994 31.7027 24.3114 31.3148 24.069L27.4356 21.79C27.0962 21.596 26.6598 21.596 26.2719 21.79L22.2957 24.1175C21.9078 24.3114 21.7139 24.6994 21.7139 25.0873V29.6453C21.7139 30.0332 21.9078 30.4211 22.2957 30.6636L26.2234 32.9426C26.5628 33.1365 26.9992 33.1365 27.3871 32.9426L30.054 31.3909L31.8966 30.3241L34.5636 28.7725C34.903 28.5785 35.3394 28.5785 35.7273 28.7725L37.8123 29.9847C38.1518 30.1787 38.3942 30.5666 38.3942 31.003V33.4274C38.3942 33.8154 38.2003 34.2033 37.8123 34.4457L35.7758 35.658C35.4364 35.8519 35 35.8519 34.612 35.658L32.527 34.4457C32.1876 34.2518 31.9451 33.8639 31.9451 33.4274V31.8758L30.1025 32.9426V34.5427C30.1025 34.9306 30.2965 35.3185 30.6844 35.561L34.612 37.84C34.9515 38.0339 35.3879 38.0339 35.7758 37.84L39.7034 35.561C40.0429 35.367 40.2853 34.9791 40.2853 34.5427V29.9362C40.2853 29.5483 40.0913 29.1604 39.7034 28.9179L35.7758 26.6389Z" fill="white"/>
</svg>
