<svg width="86" height="80" viewBox="0 0 86 80" fill="none" xmlns="http://www.w3.org/2000/svg">
<path d="M23.0276 57.4111L14.4198 52.4392C13.2262 51.7506 11.7387 51.7506 10.5451 52.4392L1.93728 57.4111C0.743657 58.0997 -6.10352e-05 59.3852 -6.10352e-05 60.767V70.7062C-6.10352e-05 72.0834 0.743657 73.3689 1.93728 74.0621L10.5451 79.034C11.1419 79.3783 11.8122 79.5527 12.4825 79.5527C13.1527 79.5527 13.823 79.3783 14.4198 79.034L23.0276 74.0667C24.2213 73.3781 24.965 72.0926 24.965 70.7108V60.7716C24.965 59.3852 24.2213 58.0997 23.0276 57.4111ZM23.7622 70.7062C23.7622 71.6565 23.248 72.5425 22.4262 73.02L13.8184 77.9873C12.992 78.4647 11.9683 78.4647 11.1465 77.9873L2.53868 73.02C1.71692 72.5425 1.20274 71.6565 1.20274 70.7062V60.767C1.20274 59.8167 1.71692 58.9307 2.53868 58.4532L11.1465 53.4813C11.9729 53.0039 12.9966 53.0039 13.8184 53.4813L22.4262 58.4532C23.248 58.9307 23.7622 59.8167 23.7622 60.767V70.7062Z" fill="url(#paint0_linear_2417_4025)"/>
<path d="M13.2642 57.0994C12.7822 56.8194 12.1854 56.8194 11.7033 57.0994L5.16595 60.8731L12.4838 65.0967L19.8016 60.8731L13.2642 57.0994Z" fill="#161616"/>
<path d="M19.5677 70.7295C20.0497 70.454 20.3482 69.9353 20.3482 69.3798V61.8324L13.0303 66.056V74.5031L19.5677 70.7295Z" fill="#161616"/>
<path d="M20.3482 61.8324L13.0303 66.056L20.3482 61.8324Z" fill="url(#paint1_linear_2417_4025)"/>
<path d="M4.61304 61.8324V69.3798C4.61304 69.9353 4.91144 70.454 5.39348 70.7295L11.9309 74.5031V66.056L4.61304 61.8324Z" fill="#161616"/>
<path d="M53.5035 57.4111L44.8956 52.4392C43.702 51.7506 42.2146 51.7506 41.021 52.4392L32.4131 57.4111C31.2195 58.0997 30.4758 59.3852 30.4758 60.767V70.7062C30.4758 72.0834 31.2195 73.3689 32.4131 74.0621L41.021 79.034C41.6178 79.3783 42.288 79.5527 42.9583 79.5527C43.6286 79.5527 44.2988 79.3783 44.8956 79.034L53.5035 74.0667C54.6971 73.3781 55.4408 72.0926 55.4408 70.7108V60.7716C55.4408 59.3852 54.7017 58.0997 53.5035 57.4111ZM52.9067 73.02L44.2988 77.9873C43.4771 78.4647 42.4533 78.4647 41.6269 77.9873L33.0191 73.0154C32.1973 72.5379 31.6832 71.6519 31.6832 70.7016V60.7624C31.6832 59.8121 32.1927 58.9261 33.0191 58.4486L41.6269 53.4767C42.4533 52.9993 43.4771 52.9993 44.2988 53.4767L52.9067 58.4486C53.7284 58.9261 54.2426 59.8121 54.2426 60.7624V70.7016C54.2426 71.6565 53.7284 72.5425 52.9067 73.02Z" fill="#161616"/>
<path d="M43.7405 57.0994C43.2585 56.8194 42.6617 56.8194 42.1796 57.0994L35.6423 60.8731L42.9601 65.0967L50.2779 60.8731L43.7405 57.0994Z" fill="url(#paint2_linear_2417_4025)"/>
<path d="M50.0526 70.7295C50.5347 70.454 50.8331 69.9353 50.8331 69.3798V61.8324L43.5153 66.056V74.5031L50.0526 70.7295Z" fill="url(#paint3_linear_2417_4025)"/>
<path d="M50.8285 61.8324L43.5153 66.056L50.8285 61.8324Z" fill="url(#paint4_linear_2417_4025)"/>
<path d="M35.0898 61.8324V69.3798C35.0898 69.9353 35.3882 70.454 35.8703 70.7295L42.4077 74.5031V66.056L35.0898 61.8324Z" fill="url(#paint5_linear_2417_4025)"/>
<path d="M83.9899 57.4111L75.382 52.4392C74.1884 51.7506 72.701 51.7506 71.5073 52.4392L62.8995 57.4111C61.7059 58.0997 60.9622 59.3852 60.9622 60.767V70.7062C60.9622 72.0834 61.7059 73.3689 62.8995 74.0621L71.5073 79.034C72.1041 79.3783 72.7744 79.5527 73.4447 79.5527C74.1149 79.5527 74.7852 79.3783 75.382 79.034L83.9899 74.0667C85.1835 73.3781 85.9272 72.0926 85.9272 70.7108V60.7716C85.9272 59.3852 85.1835 58.0997 83.9899 57.4111ZM84.7244 70.7062C84.7244 71.6565 84.2102 72.5425 83.3885 73.02L74.7806 77.9873C73.9543 78.4647 72.9305 78.4647 72.1087 77.9873L63.5009 73.0154C62.6791 72.5379 62.165 71.6519 62.165 70.7016V60.7624C62.165 59.8121 62.6791 58.9261 63.5009 58.4486L72.1087 53.4767C72.9351 52.9993 73.9589 52.9993 74.7806 53.4767L83.3885 58.4486C84.2102 58.9261 84.7244 59.8121 84.7244 60.7624V70.7062Z" fill="url(#paint6_linear_2417_4025)"/>
<path d="M74.2264 57.0994C73.7444 56.8194 73.1476 56.8194 72.6655 57.0994L66.1282 60.8731L73.446 65.0967L80.7638 60.8731L74.2264 57.0994Z" fill="#161616"/>
<path d="M80.534 70.7295C81.016 70.454 81.3144 69.9353 81.3144 69.3798V61.8324L75.8284 65.0001L74.0012 66.056V74.5031L80.534 70.7295Z" fill="#161616"/>
<path d="M73.993 66.0559L75.8248 65L73.993 66.0559Z" fill="url(#paint7_linear_2417_4025)"/>
<path d="M65.5753 61.8324V69.3798C65.5753 69.9353 65.8737 70.454 66.3558 70.7295L72.8931 74.5031V66.056L65.5753 61.8324Z" fill="#161616"/>
<path d="M40.2045 44.7449V34.8011C40.2045 33.4238 39.4608 32.1384 38.2672 31.4452L29.6594 26.4779C28.4657 25.7893 26.9783 25.7893 25.7847 26.4779L17.1768 31.4498C15.9832 32.1384 15.2395 33.4239 15.2395 34.8057V44.7449C15.2395 46.1221 15.9832 47.4076 17.1768 48.1008L25.7847 53.0727C26.3815 53.417 27.0518 53.5914 27.722 53.5914C28.3923 53.5914 29.0625 53.417 29.6594 53.0727L38.2672 48.1008C39.4608 47.4076 40.2045 46.1221 40.2045 44.7449ZM37.6658 47.0587L29.058 52.026C28.2362 52.5034 27.2124 52.5034 26.3861 52.026L17.7782 47.0541C16.9565 46.5766 16.4423 45.6906 16.4423 44.7403V34.8011C16.4423 33.8508 16.9565 32.9648 17.7782 32.4873L26.3861 27.5154C27.2124 27.038 28.2362 27.038 29.058 27.5154L37.6658 32.4873C38.4876 32.9648 39.0017 33.8508 39.0017 34.8011V44.7403C39.0017 45.6952 38.4876 46.5812 37.6658 47.0587Z" fill="#161616"/>
<path d="M28.5014 31.1383C28.0194 30.8582 27.4225 30.8582 26.9405 31.1383L20.4031 34.9119L27.721 39.1355L35.0388 34.9119L28.5014 31.1383Z" fill="url(#paint8_linear_2417_4025)"/>
<path d="M34.8094 44.7676C35.2914 44.4922 35.5898 43.9734 35.5898 43.4179V35.866L30.1038 39.0337L28.2766 40.0896V48.5367L34.8094 44.7676Z" fill="url(#paint9_linear_2417_4025)"/>
<path d="M28.2766 40.0947L30.1084 39.0388L28.2766 40.0947Z" fill="url(#paint10_linear_2417_4025)"/>
<path d="M19.8541 35.866V43.4133C19.8541 43.9688 20.1525 44.4876 20.6345 44.763L27.1719 48.5367V40.0896L19.8541 35.866Z" fill="url(#paint11_linear_2417_4025)"/>
<path d="M70.6857 44.7449V34.8057C70.6857 33.4284 69.942 32.143 68.7483 31.4498L60.1405 26.4779C58.9469 25.7893 57.4594 25.7893 56.2658 26.4779L47.658 31.4498C46.4644 32.1384 45.7206 33.4239 45.7206 34.8057V44.7449C45.7206 46.1221 46.4644 47.4076 47.658 48.1008L56.2658 53.0727C56.8626 53.417 57.5329 53.5914 58.2032 53.5914C58.8734 53.5914 59.5437 53.417 60.1405 53.0727L68.7483 48.1008C69.942 47.4076 70.6857 46.1221 70.6857 44.7449ZM68.1469 47.0587L59.5391 52.0306C58.7173 52.508 57.6936 52.508 56.8672 52.0306L48.2594 47.0587C47.4376 46.5812 46.9234 45.6952 46.9234 44.7449V34.8011C46.9234 33.8508 47.4376 32.9648 48.2594 32.4873L56.8672 27.5154C57.6936 27.038 58.7173 27.038 59.5391 27.5154L68.1469 32.4873C68.9687 32.9648 69.4829 33.8508 69.4829 34.8011V44.7403C69.4829 45.6952 68.9733 46.5812 68.1469 47.0587Z" fill="#161616"/>
<path d="M58.9825 31.1371C58.5005 30.8571 57.9037 30.8617 57.4217 31.1371L50.8843 34.9108L58.2021 39.1344L59.0881 38.6202L65.5153 34.9062L58.9825 31.1371Z" fill="url(#paint12_linear_2417_4025)"/>
<path d="M65.2927 44.7684C65.7748 44.493 66.0732 43.9742 66.0732 43.4187V35.8713L58.7554 40.0949V48.5421L65.2927 44.7684Z" fill="url(#paint13_linear_2417_4025)"/>
<path d="M66.071 35.866L58.7578 40.0941L66.071 35.866Z" fill="url(#paint14_linear_2417_4025)"/>
<path d="M50.3347 35.866V43.4133C50.3347 43.9688 50.6331 44.4876 51.1152 44.763L57.6525 48.5367V40.0896L57.0649 39.7498L50.3347 35.866Z" fill="url(#paint15_linear_2417_4025)"/>
<path d="M57.6483 40.0935L57.0607 39.7538L57.6483 40.0935Z" fill="url(#paint16_linear_2417_4025)"/>
<path d="M32.4131 22.1348L41.021 27.1067C41.6178 27.451 42.288 27.6254 42.9583 27.6254C43.6286 27.6254 44.2988 27.451 44.8956 27.1067L53.5035 22.1348C54.6971 21.4462 55.4408 20.1607 55.4408 18.7789V8.83968C55.4408 7.46243 54.6971 6.17699 53.5035 5.48377L44.8956 0.516471C43.702 -0.172157 42.2146 -0.172157 41.021 0.516471L32.4131 5.48377C31.2195 6.1724 30.4758 7.45784 30.4758 8.83968V18.7789C30.4804 20.1607 31.2195 21.4462 32.4131 22.1348ZM31.6786 8.83968C31.6786 7.88938 32.1927 7.00334 33.0145 6.52589L41.6224 1.55859C42.0355 1.31987 42.4946 1.20051 42.9583 1.20051C43.422 1.20051 43.8856 1.31987 44.2988 1.55859L52.9067 6.53048C53.7284 7.00793 54.2426 7.89397 54.2426 8.84427V18.7835C54.2426 19.7338 53.7284 20.6198 52.9067 21.0973L44.2942 26.0646C43.4725 26.542 42.4487 26.542 41.6224 26.0646L33.0145 21.0927C32.1882 20.6152 31.6786 19.7292 31.6786 18.7789V8.83968Z" fill="url(#paint17_linear_2417_4025)"/>
<path d="M50.281 8.94952L43.7436 5.17584C43.2616 4.8958 42.6648 4.90039 42.1827 5.17584L35.65 8.94952L42.9678 13.1731L45.456 11.7362L50.281 8.94952Z" fill="#161616"/>
<path d="M50.0526 18.8017C50.5347 18.5263 50.8331 18.0075 50.8331 17.452V9.90466L44.1075 13.7885L43.5153 14.1282V22.5754L50.0526 18.8017Z" fill="#161616"/>
<path d="M43.5153 14.1292L44.1075 13.7894L43.5153 14.1292Z" fill="url(#paint18_linear_2417_4025)"/>
<path d="M35.8703 18.8017L42.4077 22.5754V14.1282L35.0898 9.90466V17.452C35.0898 18.0075 35.3882 18.5263 35.8703 18.8017Z" fill="#161616"/>
<defs>
<linearGradient id="paint0_linear_2417_4025" x1="-11.6435" y1="43.0556" x2="78.7855" y2="128.065" gradientUnits="userSpaceOnUse">
<stop stop-color="#00FF50"/>
<stop offset="1" stop-color="#00A2FF"/>
</linearGradient>
<linearGradient id="paint1_linear_2417_4025" x1="12.4791" y1="63.9429" x2="20.901" y2="63.9429" gradientUnits="userSpaceOnUse">
<stop stop-color="white"/>
<stop offset="1" stop-color="white"/>
</linearGradient>
<linearGradient id="paint2_linear_2417_4025" x1="5.08185" y1="25.2633" x2="95.511" y2="110.273" gradientUnits="userSpaceOnUse">
<stop stop-color="#00FF50"/>
<stop offset="1" stop-color="#00A2FF"/>
</linearGradient>
<linearGradient id="paint3_linear_2417_4025" x1="3.41715" y1="27.0337" x2="93.8462" y2="112.043" gradientUnits="userSpaceOnUse">
<stop stop-color="#00FF50"/>
<stop offset="1" stop-color="#00A2FF"/>
</linearGradient>
<linearGradient id="paint4_linear_2417_4025" x1="5.52506" y1="24.7914" x2="95.9541" y2="109.801" gradientUnits="userSpaceOnUse">
<stop stop-color="#00FF50"/>
<stop offset="1" stop-color="#00A2FF"/>
</linearGradient>
<linearGradient id="paint5_linear_2417_4025" x1="-0.478588" y1="31.1765" x2="89.9505" y2="116.186" gradientUnits="userSpaceOnUse">
<stop stop-color="#00FF50"/>
<stop offset="1" stop-color="#00A2FF"/>
</linearGradient>
<linearGradient id="paint6_linear_2417_4025" x1="16.9563" y1="12.6328" x2="107.385" y2="97.6423" gradientUnits="userSpaceOnUse">
<stop stop-color="#00FF50"/>
<stop offset="1" stop-color="#00A2FF"/>
</linearGradient>
<linearGradient id="paint7_linear_2417_4025" x1="73.4416" y1="65.5268" x2="81.8635" y2="65.5268" gradientUnits="userSpaceOnUse">
<stop stop-color="white"/>
<stop offset="1" stop-color="white"/>
</linearGradient>
<linearGradient id="paint8_linear_2417_4025" x1="10.8862" y1="19.0869" x2="101.315" y2="104.096" gradientUnits="userSpaceOnUse">
<stop stop-color="#00FF50"/>
<stop offset="1" stop-color="#00A2FF"/>
</linearGradient>
<linearGradient id="paint9_linear_2417_4025" x1="9.22197" y1="20.8565" x2="99.6511" y2="105.866" gradientUnits="userSpaceOnUse">
<stop stop-color="#00FF50"/>
<stop offset="1" stop-color="#00A2FF"/>
</linearGradient>
<linearGradient id="paint10_linear_2417_4025" x1="9.25689" y1="20.8248" x2="99.6858" y2="105.834" gradientUnits="userSpaceOnUse">
<stop stop-color="#00FF50"/>
<stop offset="1" stop-color="#00A2FF"/>
</linearGradient>
<linearGradient id="paint11_linear_2417_4025" x1="5.32907" y1="24.9993" x2="95.7582" y2="110.009" gradientUnits="userSpaceOnUse">
<stop stop-color="#00FF50"/>
<stop offset="1" stop-color="#00A2FF"/>
</linearGradient>
<linearGradient id="paint12_linear_2417_4025" x1="25.1884" y1="3.87429" x2="115.617" y2="88.8839" gradientUnits="userSpaceOnUse">
<stop stop-color="#00FF50"/>
<stop offset="1" stop-color="#00A2FF"/>
</linearGradient>
<linearGradient id="paint13_linear_2417_4025" x1="23.5263" y1="5.6459" x2="113.955" y2="90.6554" gradientUnits="userSpaceOnUse">
<stop stop-color="#00FF50"/>
<stop offset="1" stop-color="#00A2FF"/>
</linearGradient>
<linearGradient id="paint14_linear_2417_4025" x1="25.6321" y1="3.40284" x2="116.061" y2="88.4123" gradientUnits="userSpaceOnUse">
<stop stop-color="#00FF50"/>
<stop offset="1" stop-color="#00A2FF"/>
</linearGradient>
<linearGradient id="paint15_linear_2417_4025" x1="19.6308" y1="9.78791" x2="110.06" y2="94.7975" gradientUnits="userSpaceOnUse">
<stop stop-color="#00FF50"/>
<stop offset="1" stop-color="#00A2FF"/>
</linearGradient>
<linearGradient id="paint16_linear_2417_4025" x1="22.2872" y1="6.95713" x2="112.716" y2="91.9666" gradientUnits="userSpaceOnUse">
<stop stop-color="#00FF50"/>
<stop offset="1" stop-color="#00A2FF"/>
</linearGradient>
<linearGradient id="paint17_linear_2417_4025" x1="28.5661" y1="0.279262" x2="118.995" y2="85.2887" gradientUnits="userSpaceOnUse">
<stop stop-color="#00FF50"/>
<stop offset="1" stop-color="#00A2FF"/>
</linearGradient>
<linearGradient id="paint18_linear_2417_4025" x1="42.9618" y1="13.9602" x2="51.3837" y2="13.9602" gradientUnits="userSpaceOnUse">
<stop stop-color="white"/>
<stop offset="1" stop-color="white"/>
</linearGradient>
</defs>
</svg>
