<svg width="28" height="36" viewBox="0 0 28 36" fill="none" xmlns="http://www.w3.org/2000/svg">
<path d="M24.7613 32.1186H20.3691L17.9643 35.1164C17.6019 35.5686 16.8887 35.4714 16.6598 34.9402L11.8945 23.8828H22.1645L25.4589 31.029C25.6936 31.538 25.3221 32.1186 24.7613 32.1186Z" fill="url(#paint0_linear_1917_14646)"/>
<path d="M17.0112 23.8828L12.1669 34.9501C11.9355 35.4788 11.2247 35.5735 10.864 35.123L8.45422 32.1186H4.06208C3.50122 32.1186 3.12979 31.538 3.36451 31.029L6.65882 23.8828H17.0112Z" fill="url(#paint1_linear_1917_14646)"/>
<path d="M15.6319 0.426819L17.3754 1.40441L19.3743 1.42911C20.5363 1.44311 21.6078 2.06162 22.2008 3.06144L23.2212 4.77943L24.9392 5.79984C25.9382 6.39364 26.5567 7.46429 26.5715 8.62636L26.5962 10.6252L27.5738 12.3687C28.1421 13.3825 28.1421 14.6187 27.5738 15.6325L26.5962 17.3761L26.5715 19.3749C26.5575 20.5369 25.939 21.6084 24.9392 22.2014L23.2212 23.2218L22.2008 24.9398C21.607 25.9388 20.5363 26.5573 19.3743 26.5721L17.3754 26.5968L15.6319 27.5744C14.6181 28.1427 13.3819 28.1427 12.3681 27.5744L10.6246 26.5968L8.62574 26.5721C7.46368 26.5581 6.3922 25.9396 5.79922 24.9398L4.77881 23.2218L3.06083 22.2014C2.06183 21.6076 1.44332 20.5369 1.4285 19.3749L1.40379 17.3761L0.426202 15.6325C-0.142067 14.6187 -0.142067 13.3825 0.426202 12.3687L1.40379 10.6252L1.4285 8.62636C1.4425 7.46429 2.061 6.39282 3.06083 5.79984L4.77881 4.77943L5.79922 3.06144C6.39302 2.06244 7.46368 1.44394 8.62574 1.42911L10.6246 1.40441L12.3681 0.426819C13.3811 -0.142273 14.6181 -0.142273 15.6319 0.426819Z" fill="url(#paint2_linear_1917_14646)"/>
<path d="M13.9995 24.706C19.9125 24.706 24.706 19.9125 24.706 13.9995C24.706 8.08644 19.9125 3.29297 13.9995 3.29297C8.08644 3.29297 3.29297 8.08644 3.29297 13.9995C3.29297 19.9125 8.08644 24.706 13.9995 24.706Z" fill="url(#paint3_linear_1917_14646)"/>
<path d="M13.9995 24.706C19.9125 24.706 24.706 19.9125 24.706 13.9995C24.706 8.08644 19.9125 3.29297 13.9995 3.29297C8.08644 3.29297 3.29297 8.08644 3.29297 13.9995C3.29297 19.9125 8.08644 24.706 13.9995 24.706Z" fill="#202320"/>
<path d="M10.1863 19.6746V16.3647H12.1621V12.2649L10.1328 12.703V9.30578L15.9044 8.14453V16.3647H17.8679V19.6746H10.1863Z" fill="black" fill-opacity="0.06"/>
<path d="M17.0438 18.8502H11.0094V17.1874H12.9844V11.2444L10.9551 11.6826V9.9786L15.0804 9.14844V17.1874H17.0438V18.8502Z" fill="white"/>
<defs>
<linearGradient id="paint0_linear_1917_14646" x1="11.8945" y1="29.6437" x2="25.5305" y2="29.6437" gradientUnits="userSpaceOnUse">
<stop stop-color="#C52424"/>
<stop offset="1" stop-color="#842020"/>
</linearGradient>
<linearGradient id="paint1_linear_1917_14646" x1="3.29286" y1="29.647" x2="17.0112" y2="29.647" gradientUnits="userSpaceOnUse">
<stop stop-color="#E82222"/>
<stop offset="1" stop-color="#CA4545"/>
</linearGradient>
<linearGradient id="paint2_linear_1917_14646" x1="0" y1="0" x2="28.8579" y2="0.914017" gradientUnits="userSpaceOnUse">
<stop stop-color="#00e28e"/>
<stop offset="1" stop-color="#30DA60"/>
</linearGradient>
<linearGradient id="paint3_linear_1917_14646" x1="3.29297" y1="13.9995" x2="24.706" y2="13.9995" gradientUnits="userSpaceOnUse">
<stop stop-color="#47E25B"/>
<stop offset="1" stop-color="#30DA60"/>
</linearGradient>
</defs>
</svg>
