<svg width="28" height="36" viewBox="0 0 28 36" fill="none" xmlns="http://www.w3.org/2000/svg">
<path d="M24.7612 32.1186H20.369L17.9642 35.1164C17.6018 35.5686 16.8886 35.4714 16.6596 34.9402L11.8944 23.8828H22.1644L25.4587 31.029C25.6935 31.538 25.322 32.1186 24.7612 32.1186Z" fill="url(#paint0_linear_2148_12021)"/>
<path d="M17.0111 23.8828L12.1668 34.9501C11.9354 35.4788 11.2246 35.5735 10.8639 35.123L8.4541 32.1186H4.06196C3.5011 32.1186 3.12967 31.538 3.36439 31.029L6.6587 23.8828H17.0111Z" fill="url(#paint1_linear_2148_12021)"/>
<path d="M15.6318 0.426819L17.3753 1.40441L19.3741 1.42911C20.5362 1.44311 21.6077 2.06162 22.2007 3.06144L23.2211 4.77943L24.9391 5.79984C25.9381 6.39364 26.5566 7.46429 26.5714 8.62636L26.5961 10.6252L27.5737 12.3687C28.1419 13.3825 28.1419 14.6187 27.5737 15.6325L26.5961 17.3761L26.5714 19.3749C26.5574 20.5369 25.9389 21.6084 24.9391 22.2014L23.2211 23.2218L22.2007 24.9398C21.6069 25.9388 20.5362 26.5573 19.3741 26.5721L17.3753 26.5968L15.6318 27.5744C14.618 28.1427 13.3818 28.1427 12.368 27.5744L10.6244 26.5968L8.62562 26.5721C7.46355 26.5581 6.39208 25.9396 5.7991 24.9398L4.77869 23.2218L3.06071 22.2014C2.06171 21.6076 1.4432 20.5369 1.42837 19.3749L1.40367 17.3761L0.42608 15.6325C-0.142189 14.6187 -0.142189 13.3825 0.42608 12.3687L1.40367 10.6252L1.42837 8.62636C1.44237 7.46429 2.06088 6.39282 3.06071 5.79984L4.77869 4.77943L5.7991 3.06144C6.3929 2.06244 7.46355 1.44394 8.62562 1.42911L10.6244 1.40441L12.368 0.426819C13.381 -0.142273 14.618 -0.142273 15.6318 0.426819Z" fill="url(#paint2_linear_2148_12021)"/>
<path d="M13.9994 24.706C19.9124 24.706 24.7059 19.9125 24.7059 13.9995C24.7059 8.08644 19.9124 3.29297 13.9994 3.29297C8.08632 3.29297 3.29285 8.08644 3.29285 13.9995C3.29285 19.9125 8.08632 24.706 13.9994 24.706Z" fill="url(#paint3_linear_2148_12021)"/>
<path d="M13.9994 24.706C19.9124 24.706 24.7059 19.9125 24.7059 13.9995C24.7059 8.08644 19.9124 3.29297 13.9994 3.29297C8.08632 3.29297 3.29285 8.08644 3.29285 13.9995C3.29285 19.9125 8.08632 24.706 13.9994 24.706Z" fill="white"/>
<path d="M10.1862 19.6746V16.3647H12.162V12.2649L10.1327 12.703V9.30578L15.9043 8.14453V16.3647H17.8677V19.6746H10.1862Z" fill="black" fill-opacity="0.06"/>
<path d="M17.0437 18.8502H11.0093V17.1874H12.9843V11.2444L10.955 11.6826V9.9786L15.0803 9.14844V17.1874H17.0437V18.8502Z" fill="black" fill-opacity="0.7"/>
<defs>
<linearGradient id="paint0_linear_2148_12021" x1="11.8944" y1="29.6437" x2="25.5304" y2="29.6437" gradientUnits="userSpaceOnUse">
<stop stop-color="#C52424"/>
<stop offset="1" stop-color="#842020"/>
</linearGradient>
<linearGradient id="paint1_linear_2148_12021" x1="3.29274" y1="29.647" x2="17.0111" y2="29.647" gradientUnits="userSpaceOnUse">
<stop stop-color="#E82222"/>
<stop offset="1" stop-color="#CA4545"/>
</linearGradient>
<linearGradient id="paint2_linear_2148_12021" x1="-0.00012207" y1="0" x2="28.8578" y2="0.914017" gradientUnits="userSpaceOnUse">
<stop stop-color="#00e28e"/>
<stop offset="1" stop-color="#30DA60"/>
</linearGradient>
<linearGradient id="paint3_linear_2148_12021" x1="3.29285" y1="13.9995" x2="24.7059" y2="13.9995" gradientUnits="userSpaceOnUse">
<stop stop-color="#47E25B"/>
<stop offset="1" stop-color="#30DA60"/>
</linearGradient>
</defs>
</svg>
