<svg width="32" height="32" viewBox="0 0 32 32" fill="none" xmlns="http://www.w3.org/2000/svg">
<circle cx="16" cy="16" r="16" fill="#212121"/>
<path d="M7.95398 17.9352C7.43264 18.2446 6.74744 18.4491 6.00763 18.3243C5.89343 18.3044 5.77924 18.2795 5.66503 18.2446C5.06922 18.0599 4.4436 17.6509 3.85275 16.9026C2.40292 15.0568 2.88453 12.0987 4.672 11.4053C5.48629 11.0861 6.13672 11.2357 6.60841 11.4901C6.62828 11.5001 6.64814 11.51 6.668 11.525C7.18934 11.8244 7.4674 12.2483 7.4674 12.2483L7.70075 15.002L7.93412 17.7507L7.95398 17.9352Z" fill="#A16552"/>
<path d="M7.35798 12.8271C7.35798 12.8271 6.55858 11.6148 5.15345 12.1636C3.74831 12.7123 3.36599 15.042 4.50798 16.4886C5.64996 17.9353 6.9409 17.7806 7.73534 17.3068L7.35798 12.8271Z" fill="#F5DCB4"/>
<path d="M24.5277 12.2434C24.5277 12.2434 25.5405 10.707 27.3281 11.4003C29.1155 12.0938 29.5971 15.0519 28.1472 16.8977C26.6975 18.7435 25.0589 18.5388 24.0461 17.9353L24.5277 12.2434Z" fill="#A16552"/>
<path d="M24.6369 12.8271C24.6369 12.8271 25.4363 11.6148 26.8414 12.1636C28.2465 12.7123 28.6289 15.042 27.4868 16.4886C26.3449 17.9353 25.0539 17.7806 24.2596 17.3068L24.6369 12.8271Z" fill="#F5DCB4"/>
<path d="M26.5189 19.8558C26.5189 24.6099 21.8069 28.461 15.9976 28.461C15.958 28.461 15.9232 28.461 15.8836 28.461C15.3969 28.4559 14.9153 28.4261 14.4486 28.3661C13.5052 28.2514 12.6065 28.0369 11.7624 27.7326C8.05839 26.4007 5.4765 23.3727 5.4765 19.8508C5.4765 19.337 5.53111 18.8331 5.64035 18.3393C5.65029 18.3044 5.65525 18.2695 5.66518 18.2395C5.68008 18.1647 5.69993 18.0899 5.7198 18.02C5.76448 17.8554 5.80421 17.6859 5.84393 17.5162C6.05743 16.5784 6.17659 15.6256 6.16666 14.6629C6.16666 14.6079 6.16666 14.553 6.16666 14.4981C6.16666 13.7101 6.2759 12.9219 6.48939 12.1436C6.48939 12.1386 6.48939 12.1386 6.48939 12.1337C6.54402 11.9292 6.60857 11.7196 6.67807 11.5151C6.79228 11.1759 6.92634 10.8367 7.07529 10.5075C7.18453 10.2679 7.30369 10.0285 7.43278 9.79406C8.73366 7.40456 10.9183 5.41914 13.4258 4.58107C13.4903 4.56112 13.5499 4.54117 13.6144 4.52121C13.9123 4.43142 14.2102 4.35161 14.5131 4.29673C14.5877 4.28177 14.6671 4.26681 14.7465 4.25682C15.099 4.19696 15.4614 4.16204 15.824 4.15706C15.8836 4.15706 15.9431 4.15706 16.0077 4.15706C16.1219 4.15706 16.2361 4.15706 16.3502 4.16703H16.3552C16.4744 4.17202 16.5936 4.18199 16.7177 4.19197C16.7822 4.19696 16.8468 4.20694 16.9113 4.21193C17.4128 4.27178 17.9093 4.37655 18.3958 4.5262C18.4604 4.54616 18.5249 4.56611 18.5845 4.58606C21.092 5.42413 23.2816 7.40951 24.5824 9.79902C24.7116 10.0335 24.8308 10.2679 24.94 10.5124C25.0889 10.8416 25.223 11.1808 25.3421 11.5201C25.4066 11.7147 25.4662 11.9091 25.5209 12.1088C25.5259 12.1187 25.5259 12.1287 25.5309 12.1386C25.7394 12.9168 25.8536 13.7101 25.8536 14.4981C25.8536 14.553 25.8536 14.6079 25.8536 14.6629C25.8437 15.6256 25.9579 16.5784 26.1764 17.5162C26.216 17.6859 26.2558 17.8505 26.3005 18.02C26.3203 18.0948 26.3401 18.1697 26.3551 18.2446C26.365 18.2795 26.37 18.3144 26.3799 18.3443C26.4642 18.8331 26.5189 19.337 26.5189 19.8558Z" fill="#A16552"/>
<path d="M23.3708 17.0573C23.5992 16.5535 23.7282 15.9997 23.7282 15.4211C23.7282 13.1563 21.8118 11.3205 19.4433 11.3205C18.644 11.3205 17.8991 11.53 17.2586 11.8892C16.4742 12.3332 15.5258 12.3332 14.7363 11.8892C14.0958 11.525 13.3511 11.3205 12.5516 11.3205C10.1833 11.3205 8.26672 13.1563 8.26672 15.4211C8.26672 16.0047 8.39582 16.5584 8.62421 17.0573C8.70366 17.2269 8.78806 17.3915 8.88736 17.5462C9.29947 18.1996 9.41368 19.0028 9.16541 19.7411C8.97673 20.2948 8.81288 20.9234 8.81288 21.3872C8.81288 24.7944 12.0303 27.558 15.9926 27.558C19.9547 27.558 23.1722 24.7944 23.1722 21.3872C23.1722 20.9234 23.0034 20.2948 22.8197 19.7411C22.5713 19.0078 22.6855 18.1996 23.0976 17.5462C23.2019 17.3915 23.2914 17.2269 23.3708 17.0573Z" fill="#F5DCB4"/>
<path d="M12.3383 22.1505C12.09 22.1505 11.8964 22.37 11.9312 22.6195C12.1844 24.4453 13.9123 25.857 15.9977 25.857C18.088 25.857 19.811 24.4453 20.0642 22.6195C20.0988 22.37 19.9052 22.1505 19.657 22.1505H12.3383Z" fill="#4E3F3F"/>
<path d="M13.634 25.1785C14.3043 25.6075 15.1136 25.857 15.9974 25.857C16.8812 25.857 17.6906 25.6026 18.3608 25.1785C18.0629 24.1459 17.1146 24.3853 15.9974 24.3853C14.8803 24.3853 13.9319 24.1459 13.634 25.1785Z" fill="#E6646E"/>
<path d="M18.5944 5.10985L15.7989 5.59871L15.3223 5.68352L14.076 4.99511L13.4157 4.63095L13.4008 4.62098C13.4008 4.62098 13.4058 4.611 13.4157 4.58605C13.5348 4.3516 14.2846 2.96979 15.7989 2.84507C15.8784 2.84009 15.9578 2.8351 16.0373 2.8351L16.1068 3.1344L16.3452 4.16204L16.3699 4.2668L16.4246 4.49626L16.7622 4.29174L16.9012 4.20694L18.5249 3.22919L18.5745 4.58605V4.63095L18.5944 5.10985Z" fill="#A16552"/>
<path d="M15.6352 19.7311C15.5557 19.9057 15.3521 19.9805 15.1784 19.9007L14.3789 19.5365C14.2051 19.4567 14.1307 19.2522 14.2101 19.0776C14.2896 18.903 14.4931 18.8282 14.6669 18.9079L15.4664 19.2722C15.6401 19.3519 15.7146 19.5566 15.6352 19.7311Z" fill="#4E3F3F"/>
<path d="M16.3602 19.7311C16.4396 19.9057 16.6432 19.9805 16.817 19.9007L17.6164 19.5365C17.7901 19.4567 17.8647 19.2522 17.7851 19.0776C17.7057 18.903 17.5022 18.8282 17.3284 18.9079L16.529 19.2722C16.3552 19.3519 16.2808 19.5566 16.3602 19.7311Z" fill="#4E3F3F"/>
<path d="M12.3085 17.0572C11.6283 17.0572 11.0771 16.5334 11.0771 15.8849V15.4959C11.0771 14.8474 11.6283 14.3236 12.3085 14.3236C12.9887 14.3236 13.5398 14.8474 13.5398 15.4959V15.8849C13.5398 16.5334 12.9887 17.0572 12.3085 17.0572Z" fill="#4E3F3F"/>
<path d="M12.3087 14.3236V15.6904C12.3087 16.0147 12.5817 16.2741 12.9243 16.2741C13.267 16.2741 13.5401 16.0096 13.5401 15.6904V15.4959C13.5401 14.8474 12.9889 14.3236 12.3087 14.3236Z" fill="#5D5360"/>
<path d="M12.3085 15.4959C12.536 15.4959 12.7206 15.3216 12.7206 15.1067C12.7206 14.8919 12.536 14.7176 12.3085 14.7176C12.0809 14.7176 11.8964 14.8919 11.8964 15.1067C11.8964 15.3216 12.0809 15.4959 12.3085 15.4959Z" fill="white"/>
<path d="M19.6868 17.0572C19.0065 17.0572 18.4554 16.5334 18.4554 15.8849V15.4959C18.4554 14.8474 19.0065 14.3236 19.6868 14.3236C20.3669 14.3236 20.9181 14.8474 20.9181 15.4959V15.8849C20.9181 16.5334 20.3669 17.0572 19.6868 17.0572Z" fill="#4E3F3F"/>
<path d="M19.6868 14.3236V15.6904C19.6868 16.0147 19.9598 16.2741 20.3025 16.2741C20.6451 16.2741 20.9182 16.0096 20.9182 15.6904V15.4959C20.9182 14.8474 20.367 14.3236 19.6868 14.3236Z" fill="#5D5360"/>
<path d="M19.6866 15.4959C19.9143 15.4959 20.0988 15.3216 20.0988 15.1067C20.0988 14.8919 19.9143 14.7176 19.6866 14.7176C19.4591 14.7176 19.2745 14.8919 19.2745 15.1067C19.2745 15.3216 19.4591 15.4959 19.6866 15.4959Z" fill="white"/>
<path opacity="0.35" d="M16.1073 3.13939C15.8342 3.10945 15.2285 3.54844 14.5086 4.3017C14.3298 4.49126 14.1412 4.69579 13.9475 4.92527C12.5324 6.59142 10.8939 9.22036 10.3328 11.9142C9.38947 16.4387 9.00715 21.6915 10.6705 24.6048C12.0806 27.0741 14.449 28.3661 14.449 28.3661C13.5056 28.2514 12.6068 28.0369 11.7628 27.7326C8.05879 26.4007 5.4769 23.3727 5.4769 19.8508C5.4769 19.337 5.53153 18.8331 5.64076 18.3393C5.65069 18.3044 5.65566 18.2695 5.66559 18.2395C5.06976 18.0549 4.44415 17.6459 3.85329 16.8977C2.40347 15.0568 2.88509 12.0987 4.67255 11.4053C5.48684 11.091 6.13728 11.2357 6.60897 11.4901C6.62882 11.5001 6.64869 11.51 6.66855 11.525C6.78274 11.1858 6.91681 10.8466 7.06577 10.5174C7.175 10.2779 7.29416 10.0384 7.42325 9.80396C8.72414 7.41457 10.9088 5.42911 13.4162 4.59104C13.5354 4.35658 14.2851 2.97476 15.7995 2.85006C15.8789 2.84506 15.9583 2.84007 16.0379 2.84007L16.1073 3.13939Z" fill="#4E3F3F"/>
</svg>
