<svg width="44" height="44" viewBox="0 0 44 44" fill="none" xmlns="http://www.w3.org/2000/svg">
<path d="M0 20C0 10.572 0 5.858 2.929 2.929C5.858 0 10.572 0 20 0H24C33.428 0 38.142 0 41.071 2.929C44 5.858 44 10.572 44 20V24C44 33.428 44 38.142 41.071 41.071C38.142 44 33.428 44 24 44H20C10.572 44 5.858 44 2.929 41.071C0 38.142 0 33.428 0 24V20Z" fill="#872AB0"/>
<path fill-rule="evenodd" clip-rule="evenodd" d="M26.05 20.236L30.97 25.121L35.856 20.267L38 22.384L30.97 29.367L26.05 24.482L18.291 32.185L14.128 28.052L9.144 33L7 30.882L14.128 23.806L18.291 27.939L26.05 20.236Z" fill="white"/>
<path fill-rule="evenodd" clip-rule="evenodd" d="M26.05 12L30.97 16.885L35.856 12.031L38 14.148L30.97 21.131L26.05 16.246L18.291 23.949L14.128 19.816L9.144 24.764L7 22.646L14.128 15.57L18.291 19.703L26.05 12Z" fill="white"/>
</svg>
