<svg width="184" height="164" viewBox="0 0 184 164" fill="none" xmlns="http://www.w3.org/2000/svg">
<g clip-path="url(#clip0_55_69)">
<path d="M137.13 67.37V93.95L165.04 151.94H132.32C120.11 140.24 106.14 136.94 97.75 136.08V130.24C97.75 126.53 99.9 123.1 103.31 121.64C113.59 117.23 121.21 106.61 122.64 93.81C122.92 91.33 124.73 89.46 126.92 89.46L123.81 83.19C120.17 75.84 119.39 67.1 121.65 59.06C122.38 56.45 124.51 54.68 126.92 54.68L117.42 37.62L112.77 29.28V88.9C112.77 99.6 106.47 108.92 97.76 111.56V60.6C97.76 57.32 100.09 54.67 102.97 54.67H102.98L92.69 0L82.43 54.67C85.3 54.67 87.64 57.33 87.64 60.6V111.56C78.93 108.91 72.63 99.59 72.63 88.9V29.28L67.98 37.62L58.48 54.68C60.89 54.68 63.02 56.45 63.75 59.06C66.01 67.1 65.23 75.84 61.59 83.19L58.48 89.46C60.67 89.46 62.48 91.34 62.76 93.81C64.18 106.61 71.81 117.23 82.09 121.64C85.5 123.1 87.65 126.53 87.65 130.24V135.91C79.63 136.45 64.32 139.26 51.08 151.94H18.34L46.25 93.95V67.37L0 163.47H55.91L57.61 161.7C70.65 148.1 86.73 147.27 91.12 147.32V147.36C91.19 147.36 91.39 147.34 91.69 147.33C91.99 147.33 92.19 147.35 92.25 147.36V147.32C92.39 147.32 92.53 147.32 92.68 147.32C97.62 147.34 113.12 148.52 125.76 161.71L127.46 163.48H183.37L137.12 67.38L137.13 67.37Z" fill="white"/>
</g>
<defs>
<clipPath id="clip0_55_69">
<rect width="183.38" height="163.47" fill="white"/>
</clipPath>
</defs>
</svg>
