<svg width="32" height="32" viewBox="0 0 32 32" fill="none" xmlns="http://www.w3.org/2000/svg">
<circle cx="16" cy="16" r="16" fill="white"/>
<path fill-rule="evenodd" clip-rule="evenodd" d="M19.9108 23.6709C18.1494 26.7216 14.2486 27.7668 11.1978 26.0055C8.14712 24.2442 7.1019 20.3433 8.86326 17.2926C10.6245 14.2419 14.5255 13.1966 17.5762 14.958C20.6268 16.7193 21.6721 20.6202 19.9108 23.6709ZM11.8357 24.9008C14.2762 26.3098 17.397 25.4736 18.806 23.033C20.2151 20.5925 19.3789 17.4717 16.9383 16.0627C14.4978 14.6537 11.377 15.4898 9.96798 17.9304C8.55894 20.371 9.39512 23.4917 11.8357 24.9008Z" fill="#482402"/>
<path fill-rule="evenodd" clip-rule="evenodd" d="M17.8118 22.459C16.7197 24.3504 14.3011 24.9985 12.4097 23.9065C10.5183 22.8145 9.87023 20.3959 10.9622 18.5045C12.0543 16.613 14.4728 15.965 16.3643 17.057C18.2557 18.149 18.9037 20.5676 17.8118 22.459ZM13.0475 22.8018C14.3289 23.5415 15.9672 23.1025 16.7069 21.8212C17.4467 20.5399 17.0077 18.9015 15.7264 18.1618C14.4451 17.422 12.8068 17.861 12.067 19.1423C11.3273 20.4236 11.7663 22.062 13.0475 22.8018Z" fill="#482402"/>
<path fill-rule="evenodd" clip-rule="evenodd" d="M16.1327 17.4582C14.4628 16.4941 12.3275 17.0662 11.3634 18.7361C10.3994 20.406 10.9715 22.5412 12.6413 23.5053C14.3112 24.4694 16.4465 23.8972 17.4106 22.2274C18.3746 20.5575 17.8025 18.4223 16.1327 17.4582ZM9.96798 17.9304C11.377 15.4898 14.4977 14.6537 16.9383 16.0627C19.3789 17.4718 20.2151 20.5925 18.806 23.033C17.397 25.4736 14.2763 26.3099 11.8357 24.9008C9.39511 23.4917 8.55894 20.371 9.96798 17.9304Z" fill="#F6E6D2"/>
<path d="M24.8983 9.92975C24.4842 10.6469 23.8731 11.1794 23.1727 11.4982C22.6303 11.7451 22.2959 12.6556 22.6546 13.1315C24.0248 14.9491 24.6514 17.235 24.4022 19.4951C24.3628 19.8522 24.6033 20.1844 24.9391 20.3119C25.0975 20.3721 25.2533 20.4458 25.4049 20.5332C26.9302 21.4139 27.4528 23.3644 26.5722 24.8897C25.6915 26.4151 23.7411 26.9377 22.2158 26.057L7.7987 17.7333C6.27331 16.8527 5.75069 14.9022 6.63135 13.3769C7.51201 11.8515 9.46248 11.3289 10.9878 12.2096C11.1394 12.2971 11.2811 12.3952 11.4124 12.5023C11.6908 12.7294 12.0986 12.7715 12.3882 12.5588C14.2209 11.213 16.5139 10.6127 18.7731 10.8905C19.3646 10.9633 19.9859 10.2184 19.9285 9.62513C19.8544 8.85926 20.0099 8.06371 20.424 7.3465C21.4809 5.51607 23.1836 5.99372 25.0139 7.05047C25.0139 7.05047 25.9551 8.09931 24.8983 9.92975Z" fill="#E89B37"/>
<path d="M24.8983 9.92975C24.4842 10.6469 23.8731 11.1794 23.1727 11.4982C22.6303 11.7451 22.2959 12.6556 22.6546 13.1315C24.0248 14.9491 24.6514 17.235 24.4022 19.4951C24.3628 19.8522 24.6033 20.1844 24.9391 20.3119C25.0975 20.3721 25.2533 20.4458 25.4049 20.5332C26.9302 21.4139 27.4528 23.3644 26.5722 24.8897C25.6915 26.4151 23.7411 26.9377 22.2158 26.057L7.7987 17.7333C6.27331 16.8527 5.75069 14.9022 6.63135 13.3769C7.51201 11.8515 9.46248 11.3289 10.9878 12.2096C11.1394 12.2971 11.2811 12.3952 11.4124 12.5023C11.6908 12.7294 12.0986 12.7715 12.3882 12.5588C14.2209 11.213 16.5139 10.6127 18.7731 10.8905C19.3646 10.9633 19.9859 10.2184 19.9285 9.62513C19.8544 8.85926 20.0099 8.06371 20.424 7.3465C21.4809 5.51607 23.1836 5.99372 25.0139 7.05047C25.0139 7.05047 25.9551 8.09931 24.8983 9.92975Z" fill="url(#paint0_linear_213_4641)"/>
<path d="M23.4631 18.953C23.7123 16.6929 23.0856 14.4069 21.7155 12.5894L21.3667 13.1936C21.8939 15.7075 21.4656 15.7548 21.2536 17.6773C21.2142 18.0344 21.4546 18.3665 21.7904 18.4941C21.9489 18.5543 22.1047 18.6279 22.2563 18.7154C23.7817 19.5961 24.3043 21.5466 23.4236 23.0719C22.5429 24.5973 20.5924 25.1199 19.0671 24.2392L21.2766 25.5149C22.802 26.3955 24.7524 25.8729 25.6331 24.3476C26.5138 22.8222 25.9911 20.8718 24.4657 19.9911C24.3142 19.9036 24.1585 19.8299 23.9999 19.7697C23.6641 19.6422 23.4237 19.3101 23.4631 18.953Z" fill="#E28432"/>
<path fill-rule="evenodd" clip-rule="evenodd" d="M22.6441 10.3372C23.1105 10.1249 23.5165 9.77152 23.7934 9.29197C24.498 8.07168 24.0798 6.51131 22.8595 5.80679C21.6393 5.10224 20.0789 5.52032 19.3744 6.74061C19.0975 7.22016 18.9945 7.74854 19.0438 8.25861C19.1163 9.00831 18.775 9.67927 18.3955 10.1086C18.0242 10.5288 17.3381 11.0205 16.463 10.9129C14.5269 10.6748 12.5597 11.1897 10.9889 12.3433C10.1536 12.9567 9.10206 12.7777 8.45168 12.2471C8.37302 12.1829 8.28775 12.1238 8.19558 12.0706C7.28036 11.5422 6.11009 11.8558 5.58169 12.771C5.05329 13.6862 5.36686 14.8565 6.28207 15.3848L22.8534 24.9523C23.7686 25.4808 24.9389 25.1672 25.4673 24.252C25.9957 23.3368 25.6821 22.1664 24.7669 21.638C24.6748 21.5848 24.5809 21.5406 24.486 21.5045C23.7013 21.2065 23.0205 20.3853 23.1341 19.3553C23.3477 17.4183 22.81 15.457 21.6358 13.8995C21.105 13.1953 21.1878 12.3553 21.366 11.8237C21.5481 11.2803 21.9586 10.6493 22.6441 10.3372ZM23.1726 11.4982C23.8729 11.1794 24.4841 10.6469 24.8982 9.92975C25.955 8.09932 25.3278 5.75881 23.4974 4.70201C21.667 3.64522 19.3264 4.27237 18.2696 6.10276C17.8555 6.81996 17.7 7.61551 17.7741 8.38146C17.8314 8.97467 17.2102 9.71951 16.6186 9.64677C14.3595 9.36896 12.0665 9.96923 10.2338 11.3151C9.94424 11.5278 9.53636 11.4856 9.25802 11.2586C9.12666 11.1514 8.98498 11.0534 8.83344 10.9658C7.30805 10.0852 5.35759 10.6078 4.47693 12.1331C3.59627 13.6585 4.11889 15.609 5.64425 16.4896L22.2156 26.0571C23.741 26.9377 25.6914 26.4151 26.572 24.8897C27.4527 23.3644 26.9301 21.414 25.4047 20.5333C25.2532 20.4458 25.0974 20.3721 24.9389 20.3119C24.603 20.1844 24.3627 19.8523 24.4021 19.4952C24.6513 17.2351 24.0246 14.9491 22.6545 13.1316C22.2957 12.6557 22.6302 11.7452 23.1726 11.4982Z" fill="#482402"/>
<path fill-rule="evenodd" clip-rule="evenodd" d="M17.2673 13.2751C17.1821 13.617 16.8359 13.8249 16.4941 13.7397C16.1133 13.6448 15.4143 13.5751 14.6464 13.7121C13.8857 13.8478 13.0931 14.1789 12.4639 14.8498C12.2229 15.1067 11.8193 15.1196 11.5623 14.8786C11.3053 14.6377 11.2924 14.234 11.5334 13.9771C12.3952 13.0583 13.4631 12.6273 14.4224 12.4563C15.3744 12.2865 16.2548 12.3654 16.8027 12.502C17.1444 12.5872 17.3525 12.9333 17.2673 13.2751Z" fill="#482402"/>
<defs>
<linearGradient id="paint0_linear_213_4641" x1="7.66624" y1="11.5826" x2="26.865" y2="22.7446" gradientUnits="userSpaceOnUse">
<stop stop-color="#EFC443"/>
<stop offset="1" stop-color="#E69536"/>
</linearGradient>
</defs>
</svg>
