<svg width="32" height="32" viewBox="0 0 32 32" fill="none" xmlns="http://www.w3.org/2000/svg">
<circle cx="16" cy="16" r="16" fill="white"/>
<path d="M21.654 18.217C25.431 18.914 28 20.286 28 21.865C28 24.15 22.627 26 16 26C9.373 26 4 24.149 4 21.865C4 20.286 6.57 18.914 10.346 18.217C11.987 18.643 13.925 18.888 16 18.888C18.075 18.888 20.013 18.643 21.654 18.218V18.217ZM20.208 11.52C23.416 12.054 25.626 13.177 25.626 14.478C25.626 16.293 21.316 17.765 16 17.765C10.684 17.765 6.374 16.293 6.374 14.478C6.374 13.178 8.584 12.054 11.792 11.52C13.025 11.833 14.463 12.012 16 12.012C17.537 12.012 18.975 11.832 20.208 11.52ZM16.044 6C20.025 6 23.253 7.114 23.253 8.489C23.253 9.863 20.025 10.977 16.044 10.977C12.063 10.977 8.835 9.863 8.835 8.489C8.835 7.114 12.063 6 16.044 6Z" fill="black"/>
</svg>
