<svg viewBox="0 0 40 40" fill="none" class="sc-bczRLJ eHIuXQ mobile-icon" color="text" width="20px" xmlns="http://www.w3.org/2000/svg"><path d="M20 40c11.046 0 20-8.954 20-20S31.046 0 20 0 0 8.954 0 20s8.954 20 20 20z" fill="#fff"></path><path d="M35.492 7.524c-1.387.274-2.71.662-3.798.903-2.484.557-4.807 2.46-5.315 5.944-.452 3.113.597 4.452.137 8.073-.806 6.322-6.87 8.5-9.701 9.822-1.638.758-5.613 2.5-8.678 3.83A19.9 19.9 0 0020 40c11.049 0 20-8.952 20-20 0-4.71-1.629-9.04-4.355-12.452a6.31 6.31 0 00-.153-.024z" fill="url(#logo-color-1)"></path><path d="M17.75 17.064c1.54-3.33.984-3.338 2.153-6.467 1.476-3.968 6.065-2.839 7.33-2.67 2.09.283 2.638-.46 7.041-1.169.218-.032.428-.064.637-.089C31.25 2.581 25.927 0 20 0 12.04 0 5.17 4.645 1.952 11.379c6.596 1.637 13.717 5.194 15.798 5.685zm-4.371-13.58c.58.089 3.403 3.597 3.935 12.605 0 0-3.629-.871-4.41-2.742-.646-1.54.193-3.565.475-9.863zm22.234 4.024c.008.016.024.024.032.04-.048-.008-.105-.008-.153-.016.04-.016.08-.016.12-.024zM0 20c0-1.597.185-3.145.54-4.63.726.606 1.5 1.275 2.323 2.041 5.21 4.83 13.685 8.645 16.774 5.097.008.008.016.008.016.016-.564.742-2.717 3.089-6.83 2.363l-6.5 9.702A19.943 19.943 0 010 20z" fill="url(#logo-color-2)"></path><defs><linearGradient id="logo-color-1" x1="32.011" y1="12.762" x2="27.293" y2="38.757" gradientUnits="userSpaceOnUse"><stop stop-color="#FF496A"></stop><stop offset="1" stop-color="#E42648"></stop></linearGradient><linearGradient id="logo-color-2" x1="9.653" y1="29.461" x2="20.086" y2="0" gradientUnits="userSpaceOnUse"><stop offset=".002" stop-color="#1158F1"></stop><stop offset="1" stop-color="#119BED"></stop></linearGradient></defs></svg>
