<?xml version="1.0" encoding="UTF-8"?>
<svg xmlns="http://www.w3.org/2000/svg" xmlns:xlink="http://www.w3.org/1999/xlink" width="200px" height="px" viewBox="0 0 200 200" version="1.1">
<defs>
<filter id="alpha" filterUnits="objectBoundingBox" x="0%" y="0%" width="100%" height="100%">
  <feColorMatrix type="matrix" in="SourceGraphic" values="0 0 0 0 1 0 0 0 0 1 0 0 0 0 1 0 0 0 1 0"/>
</filter>
<mask id="mask0">
  <g filter="url(#alpha)">
<rect x="0" y="0" width="200" height="200" style="fill:rgb(0%,0%,0%);fill-opacity:0.996078;stroke:none;"/>
  </g>
</mask>
<clipPath id="clip1">
  <rect x="0" y="0" width="200" height="200"/>
</clipPath>
<g id="surface5" clip-path="url(#clip1)">
<path style=" stroke:none;fill-rule:evenodd;fill:rgb(99.607843%,79.607843%,82.352941%);fill-opacity:1;" d="M 89.074219 -0.183594 C 96.234375 -0.183594 103.394531 -0.183594 110.554688 -0.183594 C 145.097656 4.683594 170.960938 22.089844 188.148438 52.035156 C 194.242188 63.707031 198.128906 76.054688 199.816406 89.074219 C 199.816406 96.234375 199.816406 103.394531 199.816406 110.554688 C 194.945312 145.097656 177.539062 170.960938 147.59375 188.148438 C 135.921875 194.242188 123.578125 198.128906 110.554688 199.816406 C 103.394531 199.816406 96.234375 199.816406 89.074219 199.816406 C 54.53125 194.945312 28.667969 177.539062 11.480469 147.59375 C 5.390625 135.921875 1.5 123.578125 -0.183594 110.554688 C -0.183594 103.394531 -0.183594 96.234375 -0.183594 89.074219 C 4.683594 54.53125 22.089844 28.667969 52.035156 11.480469 C 63.707031 5.390625 76.054688 1.5 89.074219 -0.183594 Z M 89.074219 -0.183594 "/>
</g>
</defs>
<g id="surface1">
<use xlink:href="#surface5" mask="url(#mask0)"/>
<path style=" stroke:none;fill-rule:evenodd;fill:rgb(15.294118%,2.745098%,5.098039%);fill-opacity:1;" d="M 125.371094 96.480469 C 127.457031 96.1875 129.554688 96.066406 131.667969 96.109375 C 133.910156 96.492188 136.011719 97.292969 137.964844 98.519531 C 143.269531 102.773438 146.417969 108.265625 147.40625 115 C 148.652344 122.613281 147.914062 130.023438 145.183594 137.222656 C 139.460938 148.488281 130.261719 153.613281 117.59375 152.59375 C 109.683594 150.855469 103.324219 146.722656 98.519531 140.183594 C 90.714844 152.367188 79.914062 156.257812 66.109375 151.851562 C 56.367188 147.289062 50.503906 139.699219 48.519531 129.074219 C 48 125.136719 47.875 121.183594 48.148438 117.222656 C 49.648438 111.03125 53.292969 106.648438 59.074219 104.074219 C 60.144531 103.648438 61.257812 103.464844 62.40625 103.519531 C 60.980469 91.867188 62.152344 80.507812 65.925781 69.445312 C 71.480469 56.609375 80.800781 47.65625 93.890625 42.59375 C 98.574219 40.804688 103.386719 39.507812 108.332031 38.703125 C 111.632812 39.109375 112.558594 40.835938 111.109375 43.890625 C 110.171875 44.707031 109.367188 45.632812 108.703125 46.667969 C 128.847656 47.921875 137.921875 58.601562 135.925781 78.703125 C 128.90625 80.355469 121.929688 80.167969 115 78.148438 C 110.390625 76.371094 106.871094 73.347656 104.445312 69.074219 C 103.035156 65.835938 101.925781 62.503906 101.109375 59.074219 C 97.589844 66.066406 96.355469 73.472656 97.40625 81.296875 C 98.78125 88.894531 101.558594 95.933594 105.742188 102.40625 C 108.824219 102.875 111.910156 103.183594 115 103.332031 C 117.792969 100.023438 121.25 97.742188 125.371094 96.480469 Z M 125.371094 96.480469 "/>
<path style=" stroke:none;fill-rule:evenodd;fill:rgb(98.823529%,78.823529%,81.568627%);fill-opacity:1;" d="M 99.445312 46.851562 C 99.878906 46.769531 100.25 46.894531 100.554688 47.222656 C 90.683594 61.097656 88.398438 76.15625 93.703125 92.40625 C 95.367188 96.539062 97.28125 100.550781 99.445312 104.445312 C 98.726562 105.300781 97.863281 105.976562 96.851562 106.480469 C 92.21875 102.65625 87.03125 101.730469 81.296875 103.703125 C 79.261719 104.535156 77.289062 105.460938 75.371094 106.480469 C 73.351562 105.472656 71.253906 104.667969 69.074219 104.074219 C 66.484375 90.976562 68.148438 78.445312 74.074219 66.480469 C 77.859375 60.105469 82.980469 55.105469 89.445312 51.480469 C 92.769531 49.824219 96.101562 48.277344 99.445312 46.851562 Z M 99.445312 46.851562 "/>
<path style=" stroke:none;fill-rule:evenodd;fill:rgb(21.960784%,68.627451%,38.431373%);fill-opacity:1;" d="M 110.925781 52.40625 C 124.867188 53.023438 131.535156 60.429688 130.925781 74.628906 C 123.53125 76.066406 116.925781 74.464844 111.109375 69.816406 C 107.503906 65.144531 105.898438 59.835938 106.296875 53.890625 C 111.734375 56.984375 115.75 61.363281 118.332031 67.035156 C 120.027344 67.855469 121.136719 67.363281 121.667969 65.554688 C 119.652344 59.898438 116.074219 55.515625 110.925781 52.40625 Z M 110.925781 52.40625 "/>
<path style=" stroke:none;fill-rule:evenodd;fill:rgb(44.705882%,29.019608%,31.764706%);fill-opacity:1;" d="M 131.667969 96.109375 C 129.554688 96.066406 127.457031 96.1875 125.371094 96.480469 C 126.492188 95.917969 127.726562 95.671875 129.074219 95.742188 C 130.007812 95.742188 130.875 95.867188 131.667969 96.109375 Z M 131.667969 96.109375 "/>
<path style=" stroke:none;fill-rule:evenodd;fill:rgb(89.411765%,31.764706%,40.392157%);fill-opacity:1;" d="M 142.40625 117.59375 C 142.46875 118.957031 142.40625 120.3125 142.222656 121.667969 C 130.640625 133.800781 116.75 137.625 100.554688 133.148438 C 98.988281 130.226562 97.816406 127.140625 97.035156 123.890625 C 95.40625 112.3125 100.40625 107.1875 112.035156 108.519531 C 115.320312 109.40625 118.53125 110.519531 121.667969 111.851562 C 124.820312 112.28125 125.992188 110.984375 125.183594 107.964844 C 123.933594 106.964844 122.515625 106.285156 120.925781 105.925781 C 120.574219 105.660156 120.511719 105.351562 120.742188 105 C 127.804688 99.324219 133.976562 100.1875 139.257812 107.59375 C 141.246094 110.617188 142.296875 113.953125 142.40625 117.59375 Z M 142.40625 117.59375 "/>
<path style=" stroke:none;fill-rule:evenodd;fill:rgb(89.411765%,32.156863%,40.392157%);fill-opacity:1;" d="M 92.777344 128.703125 C 81.449219 137.375 68.976562 139.347656 55.371094 134.628906 C 53.027344 129.445312 52.222656 124.011719 52.964844 118.332031 C 55.691406 109.160156 61.558594 106.257812 70.554688 109.628906 C 74.460938 111.640625 78.164062 113.925781 81.667969 116.480469 C 83.589844 115.972656 84.265625 114.738281 83.703125 112.777344 C 82.496094 111.773438 81.324219 110.722656 80.183594 109.628906 C 84.3125 107.109375 88.507812 106.988281 92.777344 109.257812 C 93.175781 109.53125 93.421875 109.902344 93.519531 110.371094 C 91.410156 114.238281 90.730469 118.375 91.480469 122.777344 C 92.03125 124.730469 92.464844 126.707031 92.777344 128.703125 Z M 92.777344 128.703125 "/>
<path style=" stroke:none;fill-rule:evenodd;fill:rgb(99.607843%,89.019608%,90.588235%);fill-opacity:1;" d="M 61.296875 110.183594 C 64.128906 109.933594 66.847656 110.363281 69.445312 111.480469 C 64.023438 112 59.640625 114.410156 56.296875 118.703125 C 56.242188 114.863281 57.910156 112.023438 61.296875 110.183594 Z M 61.296875 110.183594 "/>
<path style=" stroke:none;fill-rule:evenodd;fill:rgb(99.215686%,87.45098%,89.019608%);fill-opacity:1;" d="M 105.371094 110.925781 C 107.125 110.992188 108.851562 111.238281 110.554688 111.667969 C 105.691406 112.648438 102.171875 115.363281 100 119.816406 C 99.253906 115.253906 101.042969 112.289062 105.371094 110.925781 Z M 105.371094 110.925781 "/>
<path style=" stroke:none;fill-rule:evenodd;fill:rgb(84.705882%,21.176471%,30.588235%);fill-opacity:1;" d="M 142.40625 117.59375 C 143.320312 124.691406 142.148438 131.480469 138.890625 137.964844 C 135.015625 143.621094 129.644531 146.707031 122.777344 147.222656 C 120.664062 147.269531 118.566406 147.144531 116.480469 146.851562 C 109.242188 144.550781 103.933594 139.984375 100.554688 133.148438 C 116.75 137.625 130.640625 133.800781 142.222656 121.667969 C 142.40625 120.3125 142.46875 118.957031 142.40625 117.59375 Z M 142.40625 117.59375 "/>
<path style=" stroke:none;fill-rule:evenodd;fill:rgb(84.705882%,21.176471%,30.588235%);fill-opacity:1;" d="M 92.777344 128.703125 C 93.558594 130.761719 94.421875 132.796875 95.371094 134.816406 C 90.507812 146.199219 81.988281 150.640625 69.816406 148.148438 C 63.074219 145.652344 58.261719 141.144531 55.371094 134.628906 C 68.976562 139.347656 81.449219 137.375 92.777344 128.703125 Z M 92.777344 128.703125 "/>
<path style=" stroke:none;fill-rule:evenodd;fill:rgb(42.745098%,9.019608%,14.901961%);fill-opacity:1;" d="M 116.480469 146.851562 C 118.566406 147.144531 120.664062 147.269531 122.777344 147.222656 C 121.984375 147.46875 121.121094 147.589844 120.183594 147.59375 C 118.835938 147.660156 117.601562 147.414062 116.480469 146.851562 Z M 116.480469 146.851562 "/>
</g>
</svg>
