<svg width="52" height="50" viewBox="0 0 52 50" fill="none" xmlns="http://www.w3.org/2000/svg">
<ellipse cx="26.0908" cy="24.9999" rx="25.4089" ry="24.9999" fill="white"/>
<path d="M37.4004 21.568C40.2725 20.2807 40.1875 18.1783 39.6692 17.0468C36.1502 11.4839 29.8685 9.22946 24.5069 10.2308C16.4944 11.5536 11.8755 18.7005 12.0026 25.5469C12.1241 32.092 16.8309 36.3854 18.5517 37.3197C16.5069 34.6489 17.2246 29.7712 17.751 27.9179C17.5701 26.9194 17.4712 24.9143 18.4892 22.3148C19.7131 19.1893 21.5648 17.4993 25.4506 17.4993C28.7239 17.4993 30.8132 19.5386 31.4405 20.5754C32.2417 21.4013 34.8727 22.7009 37.4004 21.568Z" fill="url(#paint0_linear_201_37)"/>
<path d="M37.4003 21.568C40.2724 20.2807 40.1874 18.1783 39.6691 17.0468C36.1501 11.4839 29.8684 9.22946 24.5068 10.2308C22.1688 10.6168 20.1198 11.4986 18.3933 12.7242C19.7726 12.2015 23.5753 11.4245 28.4688 13.2373C33.1886 14.9858 36.0388 19.3817 36.8383 21.7807C37.0256 21.7223 37.2133 21.6518 37.4003 21.568Z" fill="url(#paint1_linear_201_37)"/>
<path d="M37.4041 28.3897C40.2762 29.677 40.1911 31.7794 39.6729 32.9109C36.1539 38.4739 29.8721 40.7282 24.5105 39.7269C18.9722 38.8125 14.9732 35.0819 13.1299 30.7534C12.2874 28.7749 11.949 26.8729 12.0186 24.549C12.3921 17.6728 16.7284 13.8793 18.4088 12.7184C17.5296 14.2724 15.9365 18.248 16.0111 22.0398C16.0852 25.8089 17.0833 27.0739 17.7385 27.9042L17.7503 27.9194C17.9045 28.5919 18.0621 29.5177 18.4101 29.9319C19.8265 31.6169 23.4614 32.236 25.4621 32.236C28.8462 32.236 31.1022 31.2989 31.8634 30.1562C32.2372 29.5949 32.3196 28.9457 32.3196 28.7409C33.5124 28.0699 35.4879 27.531 37.4041 28.3897Z" fill="url(#paint2_linear_201_37)"/>
<path d="M37.4003 28.432C40.2724 29.7194 40.1874 31.8217 39.6691 32.9532C36.1501 38.5162 29.8684 40.7705 24.5068 39.7692C22.1688 39.3832 20.1198 38.5014 18.3933 37.2759C19.7726 37.7985 23.5753 38.5755 28.4688 36.7627C33.1886 35.0144 36.0388 30.6184 36.8383 28.2194C37.0256 28.2777 37.2133 28.3482 37.4003 28.432Z" fill="url(#paint3_linear_201_37)"/>
<path fill-rule="evenodd" clip-rule="evenodd" d="M23.4104 25.1298C23.4104 26.1452 22.5622 26.9065 21.6292 26.9065C20.6113 26.9065 19.8479 26.1452 19.8479 25.1298C19.8479 24.7914 19.9327 24.3684 20.1872 24.1146" fill="url(#paint4_linear_201_37)"/>
<path fill-rule="evenodd" clip-rule="evenodd" d="M26.8035 25.1298C26.8035 26.1452 27.6517 26.9065 28.5847 26.9065C29.6025 26.9065 30.366 26.1452 30.366 25.1298C30.366 24.7914 30.2812 24.3684 30.0267 24.1146" fill="url(#paint5_linear_201_37)"/>
<defs>
<linearGradient id="paint0_linear_201_37" x1="13.7806" y1="28.5269" x2="30.5822" y2="14.7412" gradientUnits="userSpaceOnUse">
<stop stop-color="#0F53FB"/>
<stop offset="1" stop-color="#087AFF"/>
</linearGradient>
<linearGradient id="paint1_linear_201_37" x1="27.2198" y1="17.9934" x2="29.5094" y2="10.5622" gradientUnits="userSpaceOnUse">
<stop stop-color="#5DD2FF"/>
<stop offset="1" stop-color="#0F53FB"/>
</linearGradient>
<linearGradient id="paint2_linear_201_37" x1="12.3606" y1="17.9249" x2="32.5186" y2="34.5909" gradientUnits="userSpaceOnUse">
<stop stop-color="#BC55FF"/>
<stop offset="1" stop-color="#5402FF"/>
</linearGradient>
<linearGradient id="paint3_linear_201_37" x1="31.3779" y1="21.5733" x2="41.6244" y2="33.4449" gradientUnits="userSpaceOnUse">
<stop stop-color="#5402FF"/>
<stop offset="0.995152" stop-color="#BC55FF"/>
</linearGradient>
<linearGradient id="paint4_linear_201_37" x1="21.5944" y1="24.0769" x2="21.5944" y2="26.8613" gradientUnits="userSpaceOnUse">
<stop stop-color="#5402FF"/>
<stop offset="1" stop-color="#BC55FF"/>
</linearGradient>
<linearGradient id="paint5_linear_201_37" x1="28.6302" y1="24.0625" x2="28.6302" y2="30.8395" gradientUnits="userSpaceOnUse">
<stop stop-color="#0C68FE"/>
<stop offset="1" stop-color="#00F2FF"/>
</linearGradient>
</defs>
</svg>
