<svg width="600" height="600" viewBox="0 0 600 600" fill="none" xmlns="http://www.w3.org/2000/svg">
<path d="M225.373 401.003C218.781 401.003 211.936 398.465 206.866 393.388C196.726 383.234 196.726 366.481 206.866 356.327L335.904 227.123C346.044 216.97 362.776 216.97 372.917 227.123C383.057 237.277 383.057 254.03 372.917 264.184L243.879 393.388C238.809 398.465 231.964 401.003 225.373 401.003Z" fill="white"/>
<path d="M564.066 390.091L471.027 296.932C470.594 296.499 470.162 296.096 469.74 295.702C468.924 294.941 468.146 294.215 467.477 293.378L427.93 330.946C428.563 331.454 429.197 332.025 429.831 332.596C430.465 333.168 431.098 333.739 431.732 334.246L525.532 428.167C538.968 441.62 545.559 459.135 545.559 476.65C545.559 494.165 538.968 511.933 525.532 525.387C498.659 552.294 455.309 552.294 428.437 525.387L335.398 432.228C335.237 432.067 335.076 431.881 334.908 431.686C334.544 431.264 334.143 430.798 333.623 430.451L328.046 424.867L293.314 467.258C294.329 468.527 295.596 469.796 296.864 470.812L389.903 563.97C437.816 611.946 516.152 611.946 564.066 563.97C611.979 516.503 611.979 438.32 564.066 390.091Z" fill="white"/>
<path d="M564.066 390.091L471.027 296.932C470.594 296.499 470.162 296.096 469.74 295.702C468.924 294.941 468.146 294.215 467.477 293.378L427.93 330.946C428.563 331.454 429.197 332.025 429.831 332.596C430.465 333.168 431.098 333.739 431.732 334.246L525.532 428.167C538.968 441.62 545.559 459.135 545.559 476.65C545.559 494.165 538.968 511.933 525.532 525.387C498.659 552.294 455.309 552.294 428.437 525.387L335.398 432.228C335.237 432.067 335.076 431.881 334.908 431.686C334.544 431.264 334.143 430.798 333.623 430.451L328.046 424.867L293.314 467.258C294.329 468.527 295.596 469.796 296.864 470.812L389.903 563.97C437.816 611.946 516.152 611.946 564.066 563.97C611.979 516.503 611.979 438.32 564.066 390.091Z" stroke="white"/>
<path d="M173.15 270.021C171.122 268.498 169.348 266.721 167.573 264.944L167.573 264.944L74.5342 171.785C61.098 158.332 54.5067 140.817 54.5067 123.302C54.5067 105.787 61.098 88.0186 74.5342 74.5651C101.406 47.6582 144.757 47.6582 171.629 74.5651L264.668 167.724C264.829 167.885 264.989 168.071 265.158 168.266C265.522 168.688 265.923 169.154 266.443 169.501L273.541 176.608L311.822 138.279C309.287 134.979 306.498 131.933 303.456 128.887L210.163 35.9816C162.249 -11.9939 83.9141 -11.9939 36.0003 35.9816C-11.9135 83.9571 -11.9135 162.393 36.0003 210.369L129.039 303.528C132.081 306.574 135.124 309.366 138.419 311.904L176.7 273.575L173.15 270.021Z" fill="white"/>
<path d="M173.15 270.021C171.122 268.498 169.348 266.721 167.573 264.944L167.573 264.944L74.5342 171.785C61.098 158.332 54.5067 140.817 54.5067 123.302C54.5067 105.787 61.098 88.0186 74.5342 74.5651C101.406 47.6582 144.757 47.6582 171.629 74.5651L264.668 167.724C264.829 167.885 264.989 168.071 265.158 168.266C265.522 168.688 265.923 169.154 266.443 169.501L273.541 176.608L311.822 138.279C309.287 134.979 306.498 131.933 303.456 128.887L210.163 35.9816C162.249 -11.9939 83.9141 -11.9939 36.0003 35.9816C-11.9135 83.9571 -11.9135 162.393 36.0003 210.369L129.039 303.528C132.081 306.574 135.124 309.366 138.419 311.904L176.7 273.575L173.15 270.021Z" stroke="white"/>
<path d="M524.01 349.978L485.222 388.562L428.182 331.448L466.716 292.611L524.01 349.978Z" fill="url(#paint0_linear_1116_164)"/>
<path d="M388.127 485.785L349.593 524.368L292.553 466.406L331.087 427.5L388.127 485.785Z" fill="url(#paint1_linear_1116_164)"/>
<path d="M77.0691 251.486L115.603 212.648L173.911 271.031L135.123 309.615L77.0691 251.486Z" fill="url(#paint2_linear_1116_164)"/>
<path d="M212.442 115.696L251.229 77.1123L309.283 134.531L270.749 174.079L212.442 115.696Z" fill="url(#paint3_linear_1116_164)"/>
<path d="M264.92 431.959L171.881 525.118C145.009 552.024 101.658 552.024 74.7861 525.118C61.857 512.172 54.7587 494.911 54.7587 476.381C54.7587 457.85 61.857 440.843 74.7861 427.897L167.825 334.739C168.586 333.977 169.346 333.216 170.36 332.454L240.33 262.395C232.471 260.872 224.612 260.11 216.246 260.11C183.289 260.11 152.361 273.056 129.038 296.155L35.9987 389.314C12.6756 412.667 0 443.635 0 476.634C0 509.633 12.9291 540.602 35.9987 563.955C60.0824 588.07 91.5179 600 122.953 600C154.389 600 186.078 588.07 210.162 563.955L303.201 470.796C326.524 447.443 339.199 416.475 339.199 383.476C339.199 375.099 338.439 366.976 336.918 359.107L269.484 426.628C268.216 428.405 266.695 430.182 264.92 431.959Z" fill="white"/>
<path d="M264.92 431.959L171.881 525.118C145.009 552.024 101.658 552.024 74.7861 525.118C61.857 512.172 54.7587 494.911 54.7587 476.381C54.7587 457.85 61.857 440.843 74.7861 427.897L167.825 334.739C168.586 333.977 169.346 333.216 170.36 332.454L240.33 262.395C232.471 260.872 224.612 260.11 216.246 260.11C183.289 260.11 152.361 273.056 129.038 296.155L35.9987 389.314C12.6756 412.667 0 443.635 0 476.634C0 509.633 12.9291 540.602 35.9987 563.955C60.0824 588.07 91.5179 600 122.953 600C154.389 600 186.078 588.07 210.162 563.955L303.201 470.796C326.524 447.443 339.199 416.475 339.199 383.476C339.199 375.099 338.439 366.976 336.918 359.107L269.484 426.628C268.216 428.405 266.695 430.182 264.92 431.959Z" stroke="white"/>
<path d="M561.53 37.75C513.616 -10.2256 435.28 -10.2256 387.367 37.75L294.328 130.909C264.16 160.862 253.005 202.999 260.864 242.09L328.045 175.077C329.566 173.046 331.34 171.269 333.115 169.492L425.9 76.3334C439.337 62.88 456.829 56.2802 474.321 56.2802C491.814 56.2802 509.56 62.88 522.996 76.3334C549.868 103.24 549.868 146.647 522.996 173.554L429.957 266.459C429.796 266.619 429.61 266.78 429.415 266.949C428.993 267.313 428.529 267.715 428.182 268.236L357.706 338.803C365.565 340.326 373.677 341.087 381.536 341.087C412.971 341.087 444.66 329.157 468.744 305.042L561.783 211.883C609.697 163.908 609.697 85.7255 561.53 37.75Z" fill="white"/>
<path d="M561.53 37.75C513.616 -10.2256 435.28 -10.2256 387.367 37.75L294.328 130.909C264.16 160.862 253.005 202.999 260.864 242.09L328.045 175.077C329.566 173.046 331.34 171.269 333.115 169.492L425.9 76.3334C439.337 62.88 456.829 56.2802 474.321 56.2802C491.814 56.2802 509.56 62.88 522.996 76.3334C549.868 103.24 549.868 146.647 522.996 173.554L429.957 266.459C429.796 266.619 429.61 266.78 429.415 266.949C428.993 267.313 428.529 267.715 428.182 268.236L357.706 338.803C365.565 340.326 373.677 341.087 381.536 341.087C412.971 341.087 444.66 329.157 468.744 305.042L561.783 211.883C609.697 163.908 609.697 85.7255 561.53 37.75Z" stroke="white"/>
<defs>
<linearGradient id="paint0_linear_1116_164" x1="504.498" y1="369.297" x2="447.281" y2="312.154" gradientUnits="userSpaceOnUse">
<stop stop-color="#6582B8" stop-opacity="0"/>
<stop offset="0.8" stop-color="#6582B8" stop-opacity="0.3"/>
</linearGradient>
<linearGradient id="paint1_linear_1116_164" x1="368.927" y1="505.046" x2="311.71" y2="447.903" gradientUnits="userSpaceOnUse">
<stop stop-color="#6582B8" stop-opacity="0"/>
<stop offset="0.8" stop-color="#6582B8" stop-opacity="0.3"/>
</linearGradient>
<linearGradient id="paint2_linear_1116_164" x1="97.0571" y1="232.213" x2="155.253" y2="290.332" gradientUnits="userSpaceOnUse">
<stop stop-color="#6582B8" stop-opacity="0"/>
<stop offset="0.8" stop-color="#6582B8" stop-opacity="0.3"/>
</linearGradient>
<linearGradient id="paint3_linear_1116_164" x1="231.43" y1="96.3483" x2="289.628" y2="154.471" gradientUnits="userSpaceOnUse">
<stop stop-color="#6582B8" stop-opacity="0"/>
<stop offset="0.8" stop-color="#6582B8" stop-opacity="0.3"/>
</linearGradient>
</defs>
</svg>
