<svg width="100%" height="100%" viewBox="0 0 1379 1580" version="1.1" xmlns="http://www.w3.org/2000/svg" xmlns:xlink="http://www.w3.org/1999/xlink" xml:space="preserve" style="fill-rule:evenodd;clip-rule:evenodd;stroke-miterlimit:10;" data-v-5fab5d56="" data-v-a3e1dc70=""><g transform="matrix(4.16667,0,0,4.16667,-1810.53,-932.106)" data-v-a3e1dc70=""><g transform="matrix(1,0,0,1,670.113,398.894)" data-v-a3e1dc70=""><path d="M0,0L-34.801,0L-34.801,-47.083L0,-26.612L0,0ZM28.659,-42.989L-34.801,-78.813L-34.801,-126.92L-69.602,-147.391L-208.804,-66.531L-209.827,95.19L-117.708,147.391L-117.708,114.637L-181.168,78.813L-181.168,-50.154L-69.602,-114.637L-62.437,-110.543L-62.437,123.849L-35.824,108.496L-35.824,46.06L5.117,85.978L28.659,70.625L-14.33,27.636L28.659,27.636L28.659,-42.989Z" style="fill-rule:nonzero;" data-v-a3e1dc70=""></path></g><g transform="matrix(1,0,0,1,593.347,551.402)" data-v-a3e1dc70=""><path d="M0,-247.698L0,-214.945L-63.46,-179.12L-63.46,-97.237L0,-61.412L0,-13.305L7.165,-9.212L118.731,-73.695L118.731,-203.685L55.271,-239.51L55.271,-271.24L146.367,-219.039L146.367,-57.318L7.165,23.542L-27.636,3.071L-27.636,-44.012L-91.096,-81.884L-91.096,-195.497L0,-247.698Z" style="fill-rule:nonzero;" data-v-a3e1dc70=""></path></g><g transform="matrix(1,0,0,1,600,233.755)" data-v-a3e1dc70=""><path d="M0,358.935L-155.423,269.201L-155.423,89.734L0,0L155.423,89.734L155.423,269.202L0,358.935Z" style="fill:none;fill-rule:nonzero;stroke:black;stroke-width:2px;" data-v-a3e1dc70=""></path></g></g></svg>
