<?xml version="1.0" encoding="utf-8"?>
<svg xmlns="http://www.w3.org/2000/svg" width="199" height="200" viewBox="0 0 199 200" fill="none">
<mask id="mask0_64_215" style="mask-type:luminance" maskUnits="userSpaceOnUse" x="0" y="0" width="89" height="90">
<path fill-rule="evenodd" clip-rule="evenodd" d="M88.8758 0.501953C42.0323 5.32697 4.803 42.5718 0.00195312 89.4224H56.4455L88.8758 56.9921V0.501953Z" fill="white"/>
</mask>
<g mask="url(#mask0_64_215)">
<path d="M0.00196075 89.4224L-18.9873 87.4765L-21.1428 108.511H0.00196075V89.4224ZM88.8758 0.501942H107.964V-20.6539L86.9199 -18.4862L88.8758 0.501942ZM56.4455 89.4224V108.511H64.3523L69.9432 102.92L56.4455 89.4224ZM88.8758 56.9921L102.374 70.4898L107.964 64.8989V56.9921H88.8758ZM18.9912 91.3683C22.87 53.5175 52.9865 23.3883 90.8316 19.4902L86.9199 -18.4862C31.0782 -12.7344 -13.264 31.6262 -18.9873 87.4765L18.9912 91.3683ZM56.4455 70.3337H0.00196075V108.511H56.4455V70.3337ZM69.9432 102.92L102.374 70.4898L75.3781 43.4944L42.9477 75.9247L69.9432 102.92ZM69.7871 0.501942V56.9921H107.964V0.501942H69.7871Z" fill="#FFA100"/>
</g>
<mask id="mask1_64_215" style="mask-type:luminance" maskUnits="userSpaceOnUse" x="99" y="0" width="100" height="90">
<path fill-rule="evenodd" clip-rule="evenodd" d="M198.949 89.398C194.124 42.5549 156.88 5.32576 110.03 0.52429V56.9698L142.458 89.398H198.949ZM99.7404 0C99.8414 0 99.9423 0.000150001 100.043 0.000449901L99.4376 0.0004498C99.5385 0.00015 99.6395 0 99.7404 0Z" fill="white"/>
</mask>
<g mask="url(#mask1_64_215)">
<path d="M110.03 0.524275L111.976 -18.4649L90.9411 -20.6207V0.524275H110.03ZM198.949 89.398V108.486H220.105L217.937 87.4422L198.949 89.398ZM110.03 56.9698H90.9411V64.8766L96.532 70.4676L110.03 56.9698ZM142.458 89.398L128.96 102.895L134.551 108.486H142.458V89.398ZM100.043 0.000436783V19.0891L100.1 -19.0881L100.043 0.000436783ZM99.4376 0.000436783L99.3809 -19.0881L99.4376 19.0891V0.000436783ZM108.084 19.5135C145.934 23.3926 176.063 53.509 179.961 91.3539L217.937 87.4422C212.186 31.6008 167.826 -12.7411 111.976 -18.4649L108.084 19.5135ZM129.118 56.9699V0.524277L90.9411 0.524275V56.9698L129.118 56.9699ZM96.532 70.4676L128.96 102.895L155.956 75.9003L123.527 43.4721L96.532 70.4676ZM198.949 70.3094H142.458V108.486H198.949V70.3094ZM100.1 -19.0881C99.9801 -19.0885 99.8603 -19.0887 99.7404 -19.0887V19.0887C99.8225 19.0887 99.9045 19.0888 99.9865 19.0891L100.1 -19.0881ZM99.4376 19.0891H100.043V-19.0882H99.4376V19.0891ZM99.7404 -19.0887C99.6206 -19.0887 99.5007 -19.0885 99.3809 -19.0881L99.4944 19.0891C99.5763 19.0888 99.6584 19.0887 99.7404 19.0887V-19.0887Z" fill="#FFA100"/>
</g>
<mask id="mask2_64_215" style="mask-type:luminance" maskUnits="userSpaceOnUse" x="110" y="111" width="89" height="89">
<path fill-rule="evenodd" clip-rule="evenodd" d="M110.076 199.975C156.921 195.151 194.151 157.904 198.951 111.052H142.51L110.076 143.486V199.975Z" fill="white"/>
</mask>
<g mask="url(#mask2_64_215)">
<path d="M198.951 111.052L217.94 112.998L220.095 91.9637H198.951V111.052ZM110.076 199.975H90.9875V221.131L112.032 218.964L110.076 199.975ZM142.51 111.052V91.9637H134.603L129.012 97.5547L142.51 111.052ZM110.076 143.486L96.5785 129.988L90.9875 135.579V143.486H110.076ZM179.962 109.107C176.084 146.959 145.967 177.089 108.12 180.987L112.032 218.964C167.875 213.212 212.218 168.85 217.94 112.998L179.962 109.107ZM142.509 130.141H198.951V91.9637H142.51L142.509 130.141ZM129.012 97.5547L96.5785 129.988L123.574 156.983L156.007 124.55L129.012 97.5547ZM129.165 199.975V143.486H90.9875V199.975H129.165Z" fill="#FFA100"/>
</g>
<mask id="mask3_64_215" style="mask-type:luminance" maskUnits="userSpaceOnUse" x="0" y="111" width="89" height="89">
<path fill-rule="evenodd" clip-rule="evenodd" d="M0 111.101C4.82506 157.945 42.0707 195.175 88.922 199.975V143.534L56.4895 111.101H0Z" fill="white"/>
</mask>
<g mask="url(#mask3_64_215)">
<path d="M88.922 199.975L86.9763 218.965L108.011 221.12V199.975H88.922ZM-1.14441e-05 111.101L-9.53674e-06 92.0131H-21.1558L-18.9882 113.057L-1.14441e-05 111.101ZM88.922 143.534H108.011V135.627L102.42 130.036L88.922 143.534ZM56.4895 111.101L69.9873 97.604L64.3963 92.0131H56.4895V111.101ZM90.8676 180.986C53.0162 177.108 22.8864 146.991 18.9882 109.145L-18.9882 113.057C-13.2363 168.9 31.1252 213.242 86.9763 218.965L90.8676 180.986ZM69.8333 143.534V199.975H108.011V143.534H69.8333ZM102.42 130.036L69.9873 97.604L42.9918 124.599L75.4242 157.032L102.42 130.036ZM-1.33514e-05 130.19H56.4895V92.0131H-9.53674e-06L-1.33514e-05 130.19Z" fill="#FFA100"/>
</g>
</svg>