<svg width="32" height="32" viewBox="0 0 32 32" fill="none" xmlns="http://www.w3.org/2000/svg">
<circle cx="16" cy="16" r="16" fill="white"/>
<path d="M14.7497 20.0992L15.144 18.5455C15.144 18.4982 15.1209 18.451 15.0746 18.451H7.60726C7.56004 18.451 7.53784 18.4038 7.53784 18.3566L11.3872 4.04723C11.3872 4.02409 11.4344 4 11.4566 4H15.6073C18.4129 4 20.1754 4.76505 21.2654 5.85502C21.8011 6.41455 22.2172 7.07734 22.4883 7.80297C22.7594 8.5286 22.8798 9.30186 22.8422 10.0756C22.845 10.9429 22.7039 11.8046 22.4248 12.6258C22.1962 13.3303 21.8599 13.9953 21.4278 14.5969C21.4047 14.6442 21.4278 14.7131 21.4751 14.7131H26.9948C27.0089 14.7116 27.0231 14.7146 27.0353 14.7219C27.0475 14.7292 27.057 14.7402 27.0623 14.7534C27.0676 14.7665 27.0686 14.781 27.0649 14.7947C27.0612 14.8084 27.0532 14.8206 27.042 14.8293L12.591 28.9809C12.5798 28.9914 12.5656 28.9979 12.5504 28.9996C12.5352 29.0012 12.5198 28.9979 12.5067 28.99C12.4936 28.9822 12.4833 28.9703 12.4776 28.9561C12.4718 28.9419 12.4709 28.9263 12.4748 28.9115L14.7497 20.0992Z" fill="url(#paint0_radial_210_4460)"/>
<defs>
<radialGradient id="paint0_radial_210_4460" cx="0" cy="0" r="1" gradientUnits="userSpaceOnUse" gradientTransform="translate(14.5994 20.325) scale(20.123 20.125)">
<stop stop-color="#41BEF0"/>
<stop offset="0.469" stop-color="#828CBE"/>
<stop offset="0.54" stop-color="#8F80AE"/>
<stop offset="0.794" stop-color="#BC5A79"/>
<stop offset="0.917" stop-color="#CD4B64"/>
</radialGradient>
</defs>
</svg>
