<svg width="96" height="48" viewBox="0 0 96 48" fill="none" xmlns="http://www.w3.org/2000/svg">
<path fill-rule="evenodd" clip-rule="evenodd" d="M83.2 48H96C96 47.4646 95.9912 46.9312 95.9738 46.4H85.988L95.8696 44.4344C95.7867 43.3054 95.6647 42.1871 95.505 41.0811L86.1374 42.9445L95.1939 39.1932C94.9755 38.0155 94.7141 36.853 94.4114 35.7072L85.5486 39.3783L93.8704 33.8179C93.4952 32.6029 93.073 31.4085 92.606 30.2368L84.1847 35.8638L91.773 28.2754C91.2167 27.0427 90.6097 25.8376 89.9549 24.6629L82.0497 32.5681L88.7238 22.5797C87.9614 21.361 87.1459 20.1789 86.2803 19.0367L79.1803 29.6627L84.4984 16.8238C83.5092 15.6668 82.4659 14.5575 81.3725 13.4996L75.9476 26.5967C80.4964 32.5275 83.2 39.948 83.2 48ZM12.8 48C12.8 47.0304 12.8392 46.07 12.9161 45.1202H0.0849631C0.0285874 46.0729 0 47.0331 0 48H12.8ZM13.76 39.8006L1.19665 37.3015C1.61589 35.4598 2.14105 33.6583 2.76538 31.9039L15.5074 34.4384C14.7877 36.1607 14.201 37.9523 13.76 39.8006ZM17.9492 29.6603L6.01496 24.717C6.91199 23.1029 7.89939 21.5459 8.97034 20.053L21.2374 25.1341C20.0265 26.5501 18.9259 28.0632 17.9492 29.6603ZM24.8699 21.4656L13.9494 14.1687C15.2298 12.8801 16.5828 11.6637 18.0018 10.5263L29.375 18.1256C27.7836 19.1198 26.2775 20.2376 24.8699 21.4656ZM33.5886 15.8758L24.0852 6.3724C25.6384 5.47817 27.2463 4.66836 28.9028 3.94925L38.9325 13.9789C37.0872 14.4695 35.3016 15.1061 33.5886 15.8758ZM43.0605 13.1439L35.3953 1.67209C37.101 1.2091 38.8445 0.837804 40.6201 0.563813L48.802 12.809C48.5354 12.803 48.2681 12.8 48 12.8C46.3235 12.8 44.6744 12.9172 43.0605 13.1439ZM52.2611 13.0553L46.8589 0.0132964C47.2382 0.00444849 47.6186 0 48 0C49.3883 0 50.7628 0.0589371 52.1212 0.174446L57.9403 14.2231C56.1051 13.6839 54.2076 13.2902 52.2611 13.0553ZM60.4141 15.0515L57.6116 0.962528C59.3089 1.3075 60.9737 1.74204 62.6008 2.261L65.6382 17.5313C63.978 16.5681 62.2319 15.7368 60.4141 15.0515ZM67.0934 18.4234V3.94761C68.6302 4.61459 70.1252 5.35962 71.5734 6.1777V21.859C70.177 20.5989 68.6791 19.4491 67.0934 18.4234ZM72.2131 22.4506L75.0231 8.32385C76.3481 9.22801 77.6254 10.1968 78.8506 11.2257L75.8247 26.4375C74.7231 25.018 73.5153 23.6851 72.2131 22.4506Z" fill="#FBFF3A"/>
<path fill-rule="evenodd" clip-rule="evenodd" d="M70.3998 48H83.1998C83.1998 47.3873 83.1842 46.7783 83.1532 46.1734L76.786 46.0622L83.0675 44.9264C82.9356 43.4019 82.7066 41.9053 82.3866 40.4426L75.1744 41.7468L82.049 39.0388C81.6754 37.6154 81.2149 36.2272 80.6735 34.8803L72.8063 37.9793L80.0129 33.3438C79.4228 32.0571 78.7575 30.812 78.0225 29.6144L69.8379 34.8789L76.9664 27.995C76.1917 26.8754 75.3538 25.8029 74.4578 24.7827L66.4322 32.5329L72.9367 23.1567C72.0134 22.2299 71.0387 21.3543 70.0174 20.5345L62.7656 30.9878L67.9731 19.0115C66.9407 18.2987 65.8683 17.6398 64.76 17.0385L59.6247 28.8488C66.0851 32.7787 70.3998 39.8855 70.3998 48ZM25.5998 48H12.7998C12.7998 47.4052 12.8146 46.8138 12.8437 46.2262L25.6526 46.4498C25.6176 46.962 25.5998 47.4789 25.5998 48ZM62.1606 15.7643C61.0627 15.2814 59.9355 14.8528 58.7823 14.4822L56.0453 27.0883C57.1974 27.5318 58.3036 28.0678 59.3547 28.6872L62.1606 15.7643ZM55.64 13.6314C54.5244 13.3845 53.3889 13.1906 52.2362 13.0523L52.011 25.9581C53.1776 26.169 54.3129 26.4703 55.4092 26.8544L55.64 13.6314ZM47.9998 12.8C47.1026 12.8 46.2131 12.8336 45.3327 12.8995L47.6299 25.603C47.753 25.601 47.8763 25.6 47.9998 25.6C49.007 25.6 49.9987 25.6665 50.9708 25.7953L48.6218 12.8054C48.4149 12.8018 48.2076 12.8 47.9998 12.8ZM41.3204 26.6128L34.2329 15.594C33.3226 15.9812 32.432 16.4056 31.5629 16.8653L38.5287 27.6949C39.4283 27.2745 40.3605 26.9122 41.3204 26.6128ZM36.6231 28.7L27.5738 19.3292C26.8159 19.8701 26.0804 20.4404 25.3688 21.0382L34.2943 30.2809C35.035 29.7071 35.8127 29.1788 36.6231 28.7ZM21.7765 24.5181C21.1931 25.1691 20.6337 25.8419 20.0995 26.5353L30.6375 33.8458C31.1942 33.1637 31.7903 32.5151 32.4223 31.9033L21.7765 24.5181ZM17.1973 30.9501C16.8007 31.6651 16.4282 32.3954 16.081 33.1399L27.8284 38.2478C28.1879 37.5055 28.5872 36.7861 29.0235 36.0923L17.1973 30.9501ZM14.1479 38.3187C13.9388 39.0512 13.7529 39.7934 13.5909 40.5446L26.1021 43.261C26.2644 42.5073 26.4647 41.7677 26.7008 41.0442L14.1479 38.3187ZM46.2 25.6712C45.1313 25.7562 44.0836 25.9162 43.0623 26.1459L38.3345 14.1435C39.3307 13.8597 40.3449 13.6186 41.3751 13.4224L46.2 25.6712Z" fill="#FBFF3A"/>
<path fill-rule="evenodd" clip-rule="evenodd" d="M68.6128 48L70.3996 47.9376C70.3986 47.5801 70.3893 47.2246 70.3717 46.8712L59.5135 47.2504L59.3234 47.2194L70.1538 44.6692C70.0931 44.2623 70.0215 43.859 69.9392 43.4595L59.654 45.8814L69.4209 41.4304C69.2843 40.9846 69.1343 40.5448 68.9712 40.1114L59.8241 44.28L68.1794 38.265C67.9523 37.7952 67.7093 37.3345 67.4511 36.8836L59.5861 42.5456L66.4066 35.2315C66.0765 34.7565 65.7285 34.2949 65.3635 33.8476L58.8975 40.7815L64.0804 32.406C63.6379 31.9498 63.1762 31.5124 62.6965 31.095L57.7416 39.1021L61.1857 29.8904C60.6264 29.4824 60.0475 29.0998 59.4506 28.7441L56.1305 37.6241L57.7277 27.8169C57.0547 27.492 56.3631 27.1997 55.6547 26.9421L54.104 36.4634L53.7507 26.3451C52.9779 26.1404 52.1887 25.976 51.3855 25.8542L51.7302 35.725L49.3556 25.6403C48.907 25.6136 48.4549 25.6 47.9997 25.6C47.5899 25.6 47.1828 25.611 46.7785 25.6327L49.1023 35.5016L44.6999 25.8413C43.7897 25.9757 42.8974 26.1648 42.0264 26.4052L46.3355 35.8607L40.0059 27.0684C39.1035 27.4132 38.229 27.8148 37.387 28.2686L43.5629 36.8474L35.5501 29.3754C34.7096 29.9384 33.9093 30.5567 33.1545 31.2252L40.9256 38.4719L31.624 32.7159C30.9026 33.4885 30.2352 34.3123 29.6278 35.1811L38.5723 40.7161L28.5084 36.9533C27.9643 37.9113 27.4888 38.9133 27.0886 39.9527L36.6466 43.5263L26.4499 41.8657C26.137 42.967 25.9063 44.103 25.7647 45.2664L35.2793 46.816L25.6153 47.1534C25.6049 47.4343 25.5996 47.7165 25.5996 48H38.3996C38.3996 42.698 42.6977 38.4 47.9997 38.4C53.3016 38.4 57.5997 42.698 57.5997 48L68.6128 48Z" fill="#FBFF3A"/>
</svg>
