<svg width="45" height="40" viewBox="0 0 45 40" fill="none" xmlns="http://www.w3.org/2000/svg">
<mask id="mask0_2505_40" style="mask-type:luminance" maskUnits="userSpaceOnUse" x="0" y="0" width="45" height="40">
<path d="M45 0H0V40H45V0Z" fill="white"/>
</mask>
<g mask="url(#mask0_2505_40)">
<path d="M26.8631 4.31167C27.0008 4.32416 26.3513 2.87264 26.2726 2.7298C25.972 2.18704 25.6016 1.76569 25.1793 1.43361C24.7159 1.06939 24.188 0.814076 23.6208 0.626609C23.5206 0.592687 23.4133 0.721235 23.433 0.847998C23.628 2.15669 23.322 3.48503 23.1914 4.09206C23.1914 4.09206 25.2294 4.16883 26.8648 4.31167H26.8631Z" fill="white"/>
<path d="M26.414 4.41508C26.1527 3.48846 25.7161 2.6654 25.1507 2.03515C24.834 1.68164 24.3813 1.29957 23.934 1.11746C23.9752 1.84769 23.8964 3.47061 23.5994 4.32581C23.5081 4.59005 23.2183 4.72931 22.9535 4.63647C22.6886 4.54542 22.5491 4.25618 22.6421 3.99195C22.9051 3.23851 22.9749 1.45847 22.9105 1.03176L22.9069 1.01391C22.8729 0.796088 22.8032 0.342598 23.1664 0.096213C23.2952 0.00872861 23.4223 0.00337241 23.458 0.00158702C23.5099 -0.00198377 23.5547 0.00158702 23.5958 0.00158702C24.6587 0.0837152 25.5676 0.978198 25.9076 1.35849C26.575 2.103 27.0885 3.06533 27.3909 4.14013C27.4661 4.40973 27.3086 4.68825 27.0402 4.76324C26.9937 4.77573 26.949 4.78288 26.9025 4.78288C26.6806 4.78288 26.4766 4.63647 26.414 4.4133V4.41508ZM23.5046 1.01212H23.5099H23.5046Z" fill="#0D1B3A"/>
<path d="M29.969 33.4663C31.8013 32.2469 34.6785 31.7934 35.8916 34.5518C36.806 36.63 35.3101 39.1421 33.7642 39.1582C29.7167 39.2046 24.3417 39.5117 22.8118 38.1458C21.5915 37.0568 28.4947 34.4465 29.9672 33.4645L29.969 33.4663Z" fill="#24A4EA"/>
<path d="M30.3853 39.8163C32.6165 39.8163 33.7474 39.7574 34.4148 39.5181C35.8337 39.0075 36.7659 37.3382 36.5405 35.717C36.3186 34.1316 35.4079 32.9104 34.0408 32.3658C32.6022 31.7945 30.8612 32.0712 29.6051 33.0728L30.3638 34.0209C31.2853 33.2871 32.5521 33.08 33.5899 33.4924C34.5526 33.8763 35.1735 34.7243 35.3345 35.8831C35.4794 36.9204 34.8693 38.0612 34.0015 38.3737C33.2857 38.6308 31.1797 38.6129 27.356 38.5826C25.683 38.5683 23.6002 38.5522 21.0898 38.5522V39.7663C23.5967 39.7663 25.6758 39.7841 27.347 39.7966C28.5405 39.8074 29.5425 39.8145 30.3871 39.8145L30.3853 39.8163Z" fill="#0D1B3A"/>
<path d="M32.9086 26.6515C34.9054 27.1228 37.2995 28.6583 36.3404 31.0864C35.7589 32.5558 33.5939 32.5987 32.2698 32.0773C30.6093 31.4221 29.6449 29.7992 29.6806 28.0584C29.7093 26.6676 31.3035 26.273 32.9103 26.6515H32.9086Z" fill="#24A4EA"/>
<path d="M34.653 32.9435C35.5101 32.7293 36.2759 32.1758 36.7268 31.4081C37.2654 30.4904 37.2654 29.4424 36.7268 28.5336C35.7642 26.9089 33.4578 25.9698 31.5844 26.4393L31.8814 27.6177C33.2216 27.282 34.9966 27.9998 35.6801 29.1513C36.1006 29.8619 35.859 30.485 35.6783 30.7939C35.299 31.4402 34.5672 31.8455 33.8139 31.8277C32.8513 31.8044 31.9315 31.2635 31.0404 30.7386C30.9062 30.66 30.7721 30.5815 30.6397 30.5047L30.0312 31.5563C30.1602 31.6313 30.2908 31.708 30.4214 31.7848C31.3984 32.3597 32.5042 33.0114 33.7835 33.0417C34.077 33.0489 34.3703 33.0149 34.653 32.9435Z" fill="#0D1B3A"/>
<path d="M11.9679 32.5397C14.6823 30.6008 16.01 27.2942 16.4197 24.1002C16.6237 22.5165 16.697 20.8436 16.511 19.2546C16.4197 18.4619 15.6718 16.7051 15.5125 15.5446C15.3139 14.7215 15.2066 13.8091 15.2066 12.8075C15.2066 4.79825 25.0191 1.17212 30.7341 6.45153C33.6292 9.12605 34.5525 13.8234 32.7077 17.3478C32.0475 18.6101 31.0669 19.6153 29.9093 20.3544C30.0936 20.5937 30.2689 20.84 30.43 21.0953C33.3895 25.7838 33.9692 34.7518 27.5939 38.4905C26.4738 39.1475 23.3389 39.3046 21.8753 39.3439C21.36 39.4206 20.8214 39.4171 20.2846 39.3439L13.9415 39.2403C7.30677 39.2528 5.87891 34.3001 5.87891 34.3001C5.87891 34.3001 8.73464 34.85 11.9697 32.5397H11.9679Z" fill="#24A4EA"/>
<path d="M24.195 33.3041C24.2129 33.3041 24.229 33.3041 24.2469 33.3041C25.9056 33.3041 27.1348 31.9507 27.2064 30.351C27.2368 29.6868 26.997 29.0655 26.5944 28.5656C26.9791 27.4122 27.2511 25.5519 27.3943 24.3646C27.5213 23.3273 27.4801 22.5667 27.4766 20.642C27.4766 20.035 29.282 20.2528 30.3144 20.9455C32.356 22.3132 33.3723 25.5661 33.7123 27.8729C34.1042 30.5295 33.5065 33.2844 31.9445 35.4483C30.5077 37.439 28.0044 38.6513 25.6067 39.012C25.2632 39.0637 24.9161 39.0959 24.5654 39.1155C25.0252 38.3174 25.2453 37.3801 25.2865 36.466C25.3348 35.3912 24.8696 34.1914 24.1914 33.3041H24.195Z" fill="white"/>
<path d="M32.6422 11.5239C32.8318 11.3186 33.0412 11.1454 33.2738 11.0329C33.9573 10.6991 34.8573 10.7687 35.4192 11.3061C35.7734 11.6435 36.0776 12.2934 36.142 12.7987C36.3013 14.0645 35.0112 15.4679 34.5281 15.7839L35.8039 16.2731C35.9148 16.3248 35.9721 16.4552 35.9381 16.5784C35.8379 16.9265 35.6106 17.6193 35.2617 18.1102C33.7569 20.2224 31.3574 21.2704 28.9061 21.3989C27.7216 21.4596 26.4834 21.3668 25.349 20.9829C23.4416 20.3384 22.5165 17.3443 25.0108 16.8658C25.7677 16.7212 26.5424 16.6926 27.3029 16.5641C29.4071 16.207 30.486 14.718 31.59 13.0433C31.8924 12.5844 32.2235 11.9774 32.644 11.5257L32.6422 11.5239Z" fill="white"/>
<path d="M33.8239 12.2995C34.0691 12.1656 34.3017 11.971 34.4305 12.2049C34.5594 12.4388 34.5039 12.9494 34.2587 13.0833C34.0136 13.2172 33.7112 13.1351 33.5824 12.903C33.4536 12.6691 33.5806 12.4334 33.8239 12.2995Z" fill="#0D143A"/>
<path d="M32.5459 10.038C32.0897 6.5583 29.0156 4.3212 25.6374 4.00697C23.4097 3.82129 21.1033 4.3462 19.2657 5.63704C17.4281 6.91181 16.1595 8.89003 15.7784 11.0843C15.5583 12.1341 15.4885 13.2196 15.6102 14.2694C15.7551 13.2196 15.9967 12.2126 16.3545 11.2432C17.1186 8.86146 18.89 6.86717 21.2071 5.90842C25.4979 4.13016 30.7799 5.42457 32.5441 10.038H32.5459Z" fill="white"/>
<path d="M29.6045 22.4144C29.6295 22.4144 29.6528 22.4144 29.6778 22.4108C32.7125 22.0734 36.241 20.3237 37.0444 16.4262C37.1267 16.0262 36.9191 15.6674 36.4289 15.3549C36.9406 14.6426 37.5597 13.4785 37.252 12.3144C37.0533 11.5681 36.6418 10.8807 36.0925 10.3773C35.4627 9.79879 34.6897 9.51312 33.9167 9.57204C33.0238 9.63989 32.4799 9.9809 32.233 10.1773C31.9502 10.4058 31.9055 10.82 32.1328 11.1021C32.3618 11.3842 32.7769 11.4289 33.0596 11.2021C33.1383 11.1378 33.4407 10.9272 34.0151 10.8843C34.9312 10.8147 35.731 11.7288 35.9762 12.6536C36.2177 13.5624 35.2945 14.7443 34.9169 15.1228L34.194 15.8513L35.1567 16.2048C35.341 16.2726 35.5467 16.369 35.6863 16.4476C34.9115 19.456 32.0272 20.8272 29.5311 21.1057C29.1697 21.1468 28.9084 21.4717 28.9496 21.8324C28.9872 22.168 29.2734 22.418 29.6045 22.418V22.4144Z" fill="#0D1B3A"/>
<path d="M16.5649 39.9192C17.1787 39.9192 17.7906 39.9139 18.4294 39.905C21.7145 39.855 24.3913 39.8318 25.5347 39.821C25.9307 39.8175 26.152 39.8103 26.1985 39.7996C29.6036 39.0533 32.7295 36.3074 33.7995 33.1222C34.6834 30.4906 35.0538 26.2003 31.7973 20.7102L30.6629 21.3797C32.3215 24.1738 33.9945 28.4052 32.5506 32.7045C31.6273 35.454 28.9308 37.8285 25.9802 38.4999C25.8997 38.4999 25.7441 38.5016 25.524 38.5034C24.3788 38.5141 21.7002 38.5373 18.4097 38.5873C16.1623 38.6213 14.2209 38.5963 11.4797 38.4999C11.1219 38.4874 9.81745 37.9678 8.42716 36.8287C7.58261 36.136 6.92772 35.354 6.64144 34.8737C6.94204 34.9148 7.34642 34.9683 7.82059 34.9594C9.61168 34.9219 10.8982 34.0364 11.9324 33.3258C13.6501 32.1438 15.0136 30.5423 16.0997 28.4302C17.1321 26.4252 17.6331 24.2774 17.592 22.0474C17.5759 21.1672 17.4417 20.4763 17.1751 19.1015C16.8834 17.6036 16.5935 16.6912 16.3609 15.9574C16.0908 15.1076 15.9118 14.5452 15.8689 13.5329C15.7991 11.8564 16.1731 10.6013 16.3377 10.1388C16.6705 9.2033 17.3486 7.84282 18.687 6.66803C19.2274 6.19491 20.7197 5.05582 22.9205 4.69874C24.8422 4.38809 26.3292 4.82194 26.8892 4.98441C27.3473 5.11831 28.3028 5.39683 29.337 6.10921C29.7557 6.39844 30.8257 7.22329 31.6828 8.63911C32.0388 9.22829 32.3251 9.86032 32.5309 10.5191L33.7888 10.1263C33.5508 9.36755 33.2216 8.63733 32.8118 7.95888C31.8581 6.38237 30.6951 5.44504 30.0867 5.02547C28.8771 4.19348 27.7857 3.87389 27.2614 3.72213C26.6226 3.53645 24.9263 3.0419 22.7112 3.40076C20.2634 3.79712 18.5958 4.99869 17.8192 5.68071C16.2697 7.04118 15.4842 8.6159 15.0977 9.69785C14.908 10.2317 14.4732 11.6814 14.5537 13.5882C14.6038 14.7755 14.8257 15.4736 15.1066 16.3556C15.3303 17.0573 15.6076 17.9303 15.8832 19.3515C16.1355 20.653 16.2625 21.3047 16.2768 22.0724C16.3144 24.0828 15.8617 26.0199 14.9295 27.8303C13.9454 29.7461 12.7197 31.1887 11.1863 32.2438C10.2057 32.9187 9.18941 33.6168 7.79554 33.6454C7.40726 33.6543 7.07982 33.6079 6.79174 33.5668C6.30147 33.499 5.68953 33.4133 5.33703 33.9328C4.83424 34.6737 5.58933 35.6914 5.83625 36.0271C6.28179 36.6288 6.93846 37.309 7.59335 37.8464C9.12678 39.1051 10.6871 39.7907 11.4368 39.8175C13.4247 39.8889 14.9975 39.921 16.5703 39.921L16.5649 39.9192Z" fill="#0D1B3A"/>
<path d="M23.0196 32.3663C23.7335 32.5127 24.3991 33.0072 25.1667 32.8466C26.0435 32.6627 26.9095 31.9485 26.7449 30.8112C26.5069 29.1811 24.4689 28.3527 23.3023 28.1188C22.973 28.0528 22.7583 27.7332 22.8245 27.4047C22.8907 27.0762 23.211 26.8619 23.5402 26.928C24.1003 27.0405 25.1918 27.3315 26.1991 28.0331C27.1958 28.7277 27.8024 29.6275 27.9491 30.6362C28.1853 32.2502 27.1189 33.6803 25.4172 34.0356C25.2186 34.0767 25.0182 34.0963 24.8196 34.0963C23.9983 34.0963 23.1967 33.7643 22.5078 33.3126C22.7762 33.0108 22.8818 32.7555 23.0196 32.3663Z" fill="#0D1B3A"/>
<path d="M18.8867 25.7997C14.7069 23.6001 13.585 27.594 13.585 27.594C9.6933 25.8783 8.3048 29.2241 8.3048 29.2241L7.93799 28.9724C4.98027 23.4823 1.07422 24.0161 1.07422 24.0161C1.07422 24.0161 5.08763 18.7831 5.12163 18.5867C5.15562 18.3903 9.28355 16.0586 9.28355 16.0586L10.7293 17.6494C10.7293 17.6494 12.9373 19.3241 13.0429 19.4223C13.1484 19.5223 15.3403 21.5273 15.6231 21.5523C15.9058 21.5773 18.8921 24.2 18.8921 24.2" fill="#EFAAFB"/>
<path d="M0.911946 24.228C4.81442 13.2568 12.9951 13.2871 12.9951 13.2871C12.419 14.6851 12.283 15.751 12.4458 16.599V16.6044C12.4548 16.649 12.4637 16.6919 12.4744 16.7365C12.4923 16.8133 12.5138 16.89 12.5371 16.9632C12.5496 17.0007 12.5621 17.0364 12.5746 17.0739C12.5854 17.1079 12.5997 17.14 12.6122 17.1721C12.614 17.1793 12.6176 17.1864 12.6212 17.1936C12.6337 17.2275 12.648 17.2596 12.6641 17.2935C12.6784 17.3292 12.6945 17.365 12.7142 17.3989C12.7303 17.4364 12.75 17.4721 12.7697 17.506C12.7697 17.506 12.7697 17.5078 12.7732 17.5096C12.9844 17.9024 13.276 18.2398 13.6214 18.5433C13.6697 18.5862 13.7198 18.6308 13.7717 18.6719C13.9256 18.7986 14.0884 18.92 14.2584 19.0361C14.3192 19.0789 14.3818 19.12 14.4462 19.1611C14.5572 19.2343 14.6735 19.3057 14.7898 19.3771C14.8506 19.4146 14.9115 19.4503 14.9741 19.486C15.0367 19.5235 15.0993 19.5592 15.162 19.5967C15.4483 19.761 15.7435 19.9234 16.0405 20.0877C16.8332 20.5269 17.6455 20.9893 18.3469 21.5803C18.6261 21.8159 18.8891 22.073 19.1253 22.3569C19.7265 23.0764 20.1649 23.9727 20.3098 25.1564L19.0072 26.0973C18.1412 23.7674 16.0101 22.4069 13.2975 21.4874C12.5979 23.8084 13.8021 27.7756 13.7788 27.8184C11.0895 24.6994 10.7531 19.6306 10.7531 19.6306C8.58985 22.9086 8.23378 30.1877 8.23378 30.1877C6.33354 23.6549 9.76542 17.7577 9.76542 17.7577L9.45766 16.9329C5.59992 17.9327 0.910156 24.2227 0.910156 24.2227L0.911946 24.228Z" fill="#24A4EA"/>
<path d="M0.0017893 24.9691C0.017893 24.9173 0.996643 24.7138 1.27041 24.7156C1.92887 24.7156 2.5766 24.9048 3.17244 25.1762C4.94564 25.9832 6.33056 27.5133 7.44172 29.0701C7.6618 29.3647 7.8121 29.5772 8.15028 30.3164C8.36679 30.0057 9.41711 28.1792 10.4388 27.7793C11.2476 27.4615 12.2048 27.5329 13.2856 27.9864C13.3285 27.9971 13.6005 28.1239 13.6005 28.1239C13.6005 28.1239 14.9675 26.0903 15.6618 25.7975C16.4204 25.4779 17.3563 25.5851 18.4477 26.1135L18.5533 26.2474C18.6374 26.5081 18.9237 26.6456 19.1796 26.5527C19.3012 26.5081 19.3979 26.4206 19.4515 26.3046C19.5052 26.1885 19.5106 26.0582 19.4658 25.9386C18.6356 23.705 16.7264 22.15 13.4574 21.0412C13.3339 21.0002 13.1979 21.0091 13.0816 21.068C12.9653 21.1269 12.8776 21.2323 12.8401 21.3555C12.45 22.6481 12.5251 24.0853 12.7166 25.2548C11.4515 22.5624 11.2386 19.6361 11.2368 19.6058C11.2225 19.4004 11.0794 19.2273 10.8772 19.1737C10.675 19.1219 10.4639 19.2023 10.3511 19.3737C9.17555 21.1555 8.51709 23.9925 8.15028 26.4045C8.05903 21.7215 10.1615 18.0435 10.1847 18.0043C10.2563 17.8811 10.2688 17.7329 10.2187 17.599L9.91096 16.7759C9.82328 16.542 9.57278 16.417 9.33122 16.4795C8.00893 16.8241 5.81166 17.9596 2.69469 21.3572C4.57704 17.8239 6.92282 16.0028 8.61013 15.0869C10.1454 14.2549 11.5052 13.9478 12.2782 13.8354C10.9541 17.8239 13.3375 19.1433 15.6439 20.4199C17.5441 21.4715 19.5088 22.5588 19.8327 25.219C19.8649 25.4797 20.1046 25.669 20.3694 25.6368C20.4983 25.6225 20.6128 25.5583 20.6915 25.4565C20.7702 25.3565 20.806 25.2315 20.7899 25.1048C20.4052 21.9589 18.1239 20.6966 16.1109 19.5826C13.6596 18.2257 11.8881 17.2455 13.4413 13.4711C13.5021 13.323 13.4842 13.1551 13.3947 13.023C13.3053 12.8909 13.155 12.8105 12.9957 12.8105C12.8615 12.8105 10.768 12.8338 8.18607 14.2246C7.7119 14.4799 7.24847 14.7548 6.80294 15.0548C5.40191 15.9957 4.18339 17.1812 3.18496 18.5399C2.13464 19.9682 1.39029 21.5715 0.715722 23.2033C0.472376 23.7925 0.237978 24.3835 0 24.9727L0.0017893 24.9691ZM13.6417 22.1214C15.5562 22.832 16.8982 23.7122 17.7588 24.828C16.8463 24.5763 16.0143 24.6067 15.2753 24.9191C14.6508 25.1833 14.1928 25.61 13.8617 26.0403C13.5916 24.9191 13.3786 23.4497 13.6417 22.1196V22.1214ZM8.96799 27.5686C9.20776 25.6761 9.65688 23.1355 10.4746 21.209C10.7251 22.657 11.2655 24.8138 12.3963 26.7134C11.5607 26.5527 10.7823 26.6134 10.0738 26.8937C9.63183 27.0687 9.26681 27.3115 8.96799 27.5704V27.5686ZM2.04696 23.5765C3.42831 21.9018 6.4916 18.4827 9.1684 17.5311L9.23997 17.724C8.74433 18.6488 6.95145 22.3481 7.19837 26.917C5.32497 24.437 3.312 23.7443 2.04696 23.5783V23.5765Z" fill="#0D1B3A"/>
<path d="M22.006 5.59568C21.8825 5.61532 21.6123 5.46713 21.4942 5.43321C21.0344 5.30109 20.5656 5.17254 20.0932 5.10648C17.6132 4.75119 15.1816 4.04774 13.573 1.98025C13.4835 1.8642 13.3976 1.74636 13.3153 1.62496C13.2312 1.49998 13.0416 1.54104 13.0129 1.68745C12.9217 2.15701 12.8787 2.64263 12.8752 3.11398C12.8555 5.31358 14.6001 7.67031 16.6918 8.36482C16.7866 8.39696 17.4111 8.65227 17.4934 8.55943C17.4934 8.55943 18.1017 7.89884 18.8353 7.22217C20.3079 5.86527 21.9988 5.59568 22.006 5.59389V5.59568Z" fill="white"/>
<path d="M12.9506 0.721018C13.5607 0.601396 13.9078 1.18522 14.0742 1.46553C14.0886 1.49052 14.1029 1.51373 14.1136 1.5298C14.8848 2.69567 15.6649 3.32591 16.7206 3.63657C17.6045 3.89724 18.5368 4.0847 19.4368 4.26503L19.7302 4.32395C20.4137 4.46142 21.2798 4.47213 22.0062 4.77565C21.8631 4.81493 21.0901 5.20593 20.9058 5.28984C20.6553 5.4059 20.4066 5.52016 20.174 5.66299C19.9414 5.60765 19.7105 5.55944 19.4887 5.51302L19.197 5.4541C18.2702 5.26842 17.3111 5.0756 16.3753 4.80065C15.1818 4.44892 14.2478 3.77226 13.3997 2.62961C13.4158 2.91348 13.4498 3.26342 13.5124 3.67763C13.7504 5.27378 14.2872 6.40572 15.2033 7.24307C16.0443 8.01079 16.7922 8.27324 17.3004 8.39822C17.0355 8.67138 16.624 9.41232 16.6097 9.4641C16.0031 9.26949 15.2265 8.91063 14.382 8.13934C13.2494 7.10381 12.5909 5.74334 12.31 3.85617C12.0058 1.80654 12.1973 0.869206 12.9523 0.721018H12.9506Z" fill="#0D1B3A"/>
<path d="M19.76 38.4997C22.1451 38.9389 23.6248 38.3122 23.6463 38.3015C24.4819 37.9319 24.9758 36.9214 24.8183 35.8983C24.6573 34.8557 24.0239 34.0397 23.0773 33.663C22.0717 33.2631 20.9105 33.4309 20.0427 34.1004C19.7761 34.3058 19.3949 34.2576 19.1892 33.9915C18.9834 33.7273 19.0317 33.3452 19.2983 33.1399C20.5043 32.2079 22.1254 31.9758 23.53 32.5346C24.8863 33.0756 25.7953 34.2326 26.0225 35.7127C26.2659 37.2945 25.4911 38.8139 24.1402 39.4102C24.0614 39.4441 23.0612 39.8708 21.4151 39.8708C20.7119 39.8708 19.8906 39.7923 18.9727 39.5745C19.309 39.2817 19.5774 38.9139 19.7617 38.4979L19.76 38.4997Z" fill="#0D1B3A"/>
<path d="M26.9349 15.3765C28.0229 15.3765 28.9049 14.375 28.9049 13.1394C28.9049 11.9039 28.0229 10.9023 26.9349 10.9023C25.8469 10.9023 24.9648 11.9039 24.9648 13.1394C24.9648 14.375 25.8469 15.3765 26.9349 15.3765Z" fill="#0D1B3A"/>
<path d="M27.5948 12.9376C27.8478 12.9376 28.0528 12.7329 28.0528 12.4805C28.0528 12.2281 27.8478 12.0234 27.5948 12.0234C27.3418 12.0234 27.1367 12.2281 27.1367 12.4805C27.1367 12.7329 27.3418 12.9376 27.5948 12.9376Z" fill="white"/>
<path d="M39.1455 18.4373C39.1455 18.4373 39.8057 18.1213 39.7556 17.4071C39.65 15.9021 37.1289 15.5735 37.1289 15.5735C37.1289 15.5735 39.6411 14.9112 39.718 13.4043C39.7538 12.6883 39.0882 12.392 39.0882 12.392C39.0882 12.392 40.3693 11.8599 41.7059 12.1813C44.7317 12.908 44.7782 17.7607 41.7668 18.5748C40.4373 18.9337 39.1455 18.4391 39.1455 18.4391V18.4373Z" fill="#EFAAFB"/>
<path d="M35.9041 15.6765C36.7361 15.7908 37.5985 15.9533 38.3608 16.3175C38.6829 16.471 39.0121 16.6746 39.2107 16.9799C39.4075 17.2834 39.3968 17.6869 39.1499 17.9601C38.8761 18.2636 38.3554 18.3546 37.9868 18.4939L39.03 18.8956C39.0783 18.9153 40.0857 19.2955 41.272 19.1545C41.4617 19.1313 41.6567 19.0956 41.8517 19.0438C43.6267 18.5635 44.6341 16.8388 44.6216 15.3409C44.6073 13.8429 43.5945 12.0004 41.7837 11.7112C40.2217 11.4612 37.9099 12.3771 37.9099 12.3771C37.9278 12.37 37.9546 12.3736 37.9743 12.3718C38.3876 12.3575 38.9477 12.5093 39.1606 12.8913C39.5185 13.5341 39.0747 14.209 38.5308 14.5642C38.0137 14.9035 37.4017 15.0659 36.8113 15.2266C36.2154 15.3891 35.5999 15.5159 34.9844 15.5837C35.2921 15.6016 35.5999 15.6373 35.9059 15.6783L35.9041 15.6765ZM38.3823 15.4837C39.5668 14.9892 40.066 14.2464 40.1089 13.4323C40.1233 13.1466 40.0696 12.8806 39.9461 12.6414C40.0517 12.6217 40.1662 12.6021 40.2897 12.5878C40.6869 12.5414 41.1575 12.536 41.6316 12.6503C43.0756 12.9985 43.5999 14.3214 43.6106 15.348C43.6196 16.3764 43.1203 17.7137 41.6835 18.1029C41.0662 18.2707 40.4507 18.2332 39.9998 18.16C40.1179 17.9172 40.168 17.6494 40.1465 17.3637C40.0893 16.5514 39.5775 15.9444 38.3841 15.4837H38.3823Z" fill="#0D1B3A"/>
</g>
</svg>
