<svg width="72" height="42" viewBox="0 0 72 42" fill="none" xmlns="http://www.w3.org/2000/svg">
<path fill-rule="evenodd" clip-rule="evenodd" d="M58.645 9.72414C66.5071 5.02759 65.783 0 65.783 0C62.845 4.34483 41.4106 14.7103 41.4106 14.7103L39.3209 20.8758C39.3248 20.8691 39.8918 20.5478 40.8574 20.0006C44.2467 18.08 52.547 13.3765 58.645 9.72414ZM32.7191 21.0001C32.7191 21.0001 21.257 14.5656 13.3949 9.86903C5.94084 5.38479 6.22704 0.638795 6.25572 0.163129V0.163123V0.163118V0.163112V0.163107C6.25721 0.138406 6.25801 0.125227 6.25698 0.124205C9.19491 4.46903 30.6087 14.8346 30.6087 14.8346L32.7191 21.0001ZM39.2999 23.0482L53.3068 14.5654C53.3068 14.5654 70.1068 4.48958 71.3482 0.579236C71.3482 0.579236 71.0792 8.29648 64.7689 12.6206C58.4585 16.9448 41.9482 26.193 41.9482 26.193L36.0723 41.5034V41.9999L35.9688 41.7516L35.9275 41.8551V41.6275L30.0516 26.3172C30.0516 26.3172 13.5206 17.0896 7.23092 12.7448C0.941264 8.39993 0.651611 0.703373 0.651611 0.703373C1.91368 4.63441 18.7137 14.7103 18.7137 14.7103L32.7206 23.193L35.9895 31.2413L39.2999 23.0482ZM35.9475 7.09675L40.1475 14.8347L35.9475 28.9657L31.7475 14.8347L35.9475 7.09675ZM29.8023 28.4068L13.1264 18.4758C13.1264 18.4758 12.8575 28.5516 29.8023 28.4068ZM42.1156 28.4068C59.0605 28.5516 58.7915 18.4758 58.7915 18.4758L42.1156 28.4068Z" fill="url(#paint0_linear_1911_6134)"/>
<defs>
<linearGradient id="paint0_linear_1911_6134" x1="19.7368" y1="41.7475" x2="71.3993" y2="14.173" gradientUnits="userSpaceOnUse">
<stop stop-color="#E71505"/>
<stop offset="0.7318" stop-color="#FFB400"/>
<stop offset="1" stop-color="#FFF888"/>
</linearGradient>
</defs>
</svg>
