<?xml version="1.0" encoding="UTF-8"?>
<svg xmlns="http://www.w3.org/2000/svg" xmlns:xlink="http://www.w3.org/1999/xlink" width="200px" height="px" viewBox="0 0 200 200" version="1.1">
<defs>
<filter id="alpha" filterUnits="objectBoundingBox" x="0%" y="0%" width="100%" height="100%">
  <feColorMatrix type="matrix" in="SourceGraphic" values="0 0 0 0 1 0 0 0 0 1 0 0 0 0 1 0 0 0 1 0"/>
</filter>
<mask id="mask0">
  <g filter="url(#alpha)">
<rect x="0" y="0" width="200" height="200" style="fill:rgb(0%,0%,0%);fill-opacity:0.964706;stroke:none;"/>
  </g>
</mask>
<clipPath id="clip1">
  <rect x="0" y="0" width="200" height="200"/>
</clipPath>
<g id="surface5" clip-path="url(#clip1)">
<path style=" stroke:none;fill-rule:evenodd;fill:rgb(68.235294%,26.27451%,25.882353%);fill-opacity:1;" d="M 171.875 30.375 C 172.726562 30.976562 173.390625 31.726562 173.875 32.625 C 173.023438 32.023438 172.359375 31.273438 171.875 30.375 Z M 171.875 30.375 "/>
</g>
<mask id="mask1">
  <g filter="url(#alpha)">
<rect x="0" y="0" width="200" height="200" style="fill:rgb(0%,0%,0%);fill-opacity:0.952941;stroke:none;"/>
  </g>
</mask>
<clipPath id="clip2">
  <rect x="0" y="0" width="200" height="200"/>
</clipPath>
<g id="surface8" clip-path="url(#clip2)">
<path style=" stroke:none;fill-rule:evenodd;fill:rgb(69.019608%,24.313725%,23.921569%);fill-opacity:1;" d="M 28.125 30.125 C 27.558594 31.109375 26.808594 31.941406 25.875 32.625 C 26.441406 31.640625 27.191406 30.808594 28.125 30.125 Z M 28.125 30.125 "/>
</g>
<mask id="mask2">
  <g filter="url(#alpha)">
<rect x="0" y="0" width="200" height="200" style="fill:rgb(0%,0%,0%);fill-opacity:0.964706;stroke:none;"/>
  </g>
</mask>
<clipPath id="clip3">
  <rect x="0" y="0" width="200" height="200"/>
</clipPath>
<g id="surface11" clip-path="url(#clip3)">
<path style=" stroke:none;fill-rule:evenodd;fill:rgb(68.235294%,26.27451%,25.882353%);fill-opacity:1;" d="M 30.375 171.875 C 31.273438 172.359375 32.023438 173.023438 32.625 173.875 C 31.726562 173.390625 30.976562 172.726562 30.375 171.875 Z M 30.375 171.875 "/>
</g>
</defs>
<g id="surface1">
<path style=" stroke:none;fill-rule:evenodd;fill:rgb(88.627451%,22.352941%,20.784314%);fill-opacity:1;" d="M 92.875 -0.125 C 97.542969 -0.125 102.207031 -0.125 106.875 -0.125 C 132.378906 2.035156 154.046875 12.203125 171.875 30.375 C 172.359375 31.273438 173.023438 32.023438 173.875 32.625 C 187.21875 47.144531 195.507812 64.226562 198.75 83.875 C 199.15625 86.910156 199.53125 89.910156 199.875 92.875 C 199.875 97.542969 199.875 102.207031 199.875 106.875 C 196.570312 140.710938 180.738281 166.835938 152.375 185.25 C 138.332031 193.667969 123.164062 198.542969 106.875 199.875 C 102.207031 199.875 97.542969 199.875 92.875 199.875 C 71.484375 198.09375 52.484375 190.46875 35.875 177 C 34.675781 176.070312 33.59375 175.027344 32.625 173.875 C 32.023438 173.023438 31.273438 172.359375 30.375 171.875 C 12.203125 154.046875 2.035156 132.378906 -0.125 106.875 C -0.125 102.207031 -0.125 97.542969 -0.125 92.875 C 1.65625 71.484375 9.28125 52.484375 22.75 35.875 C 23.679688 34.675781 24.722656 33.59375 25.875 32.625 C 26.808594 31.941406 27.558594 31.109375 28.125 30.125 C 45.929688 12.125 67.511719 2.042969 92.875 -0.125 Z M 92.875 -0.125 "/>
<path style=" stroke:none;fill-rule:evenodd;fill:rgb(12.156863%,16.078431%,21.176471%);fill-opacity:1;" d="M 92.625 9.375 C 127.488281 7.910156 155.027344 21.246094 175.25 49.375 C 189.730469 71.894531 193.898438 96.226562 187.75 122.375 C 179.792969 150.746094 162.417969 171.039062 135.625 183.25 C 118.179688 190.449219 100.179688 192.28125 81.625 188.75 C 54.296875 182.496094 33.753906 167.203125 20 142.875 C 8.503906 120.433594 6.253906 97.101562 13.25 72.875 C 21.96875 46.65625 38.929688 27.863281 64.125 16.5 C 73.289062 12.652344 82.789062 10.277344 92.625 9.375 Z M 92.625 9.375 "/>
<use xlink:href="#surface5" mask="url(#mask0)"/>
<use xlink:href="#surface8" mask="url(#mask1)"/>
<path style=" stroke:none;fill-rule:evenodd;fill:rgb(89.019608%,21.960784%,20.784314%);fill-opacity:1;" d="M 39.375 76.625 C 50.375 76.625 61.375 76.625 72.375 76.625 C 72.375 79.542969 72.375 82.457031 72.375 85.375 C 64.707031 85.375 57.042969 85.375 49.375 85.375 C 49.375 88.625 49.375 91.875 49.375 95.125 C 56.875 95.125 64.375 95.125 71.875 95.125 C 71.875 98.042969 71.875 100.957031 71.875 103.875 C 64.375 103.875 56.875 103.875 49.375 103.875 C 49.375 110.292969 49.375 116.707031 49.375 123.125 C 46.042969 123.125 42.707031 123.125 39.375 123.125 C 39.375 107.625 39.375 92.125 39.375 76.625 Z M 39.375 76.625 "/>
<path style=" stroke:none;fill-rule:evenodd;fill:rgb(89.019608%,21.960784%,20.784314%);fill-opacity:1;" d="M 89.375 76.625 C 92.707031 76.625 96.042969 76.625 99.375 76.625 C 99.375 92.125 99.375 107.625 99.375 123.125 C 96.042969 123.125 92.707031 123.125 89.375 123.125 C 89.375 107.625 89.375 92.125 89.375 76.625 Z M 89.375 76.625 "/>
<path style=" stroke:none;fill-rule:evenodd;fill:rgb(89.411765%,21.960784%,20.784314%);fill-opacity:1;" d="M 150.125 105.625 C 150.140625 105.761719 150.222656 105.84375 150.375 105.875 C 150.625 96.125 150.707031 86.375 150.625 76.625 C 153.875 76.625 157.125 76.625 160.375 76.625 C 160.375 92.125 160.375 107.625 160.375 123.125 C 157.125 123.167969 153.875 123.125 150.625 123 C 143.25 112.957031 135.875 102.917969 128.5 92.875 C 128.375 102.957031 128.332031 113.042969 128.375 123.125 C 125.125 123.125 121.875 123.125 118.625 123.125 C 118.625 107.625 118.625 92.125 118.625 76.625 C 122.042969 76.582031 125.460938 76.625 128.875 76.75 C 136.011719 86.34375 143.097656 95.96875 150.125 105.625 Z M 150.125 105.625 "/>
<path style=" stroke:none;fill-rule:evenodd;fill:rgb(80.392157%,21.568627%,20.784314%);fill-opacity:1;" d="M 150.625 76.625 C 150.707031 86.375 150.625 96.125 150.375 105.875 C 150.222656 105.84375 150.140625 105.761719 150.125 105.625 C 150.292969 95.957031 150.457031 86.292969 150.625 76.625 Z M 150.625 76.625 "/>
<use xlink:href="#surface11" mask="url(#mask2)"/>
</g>
</svg>
