<svg
      xmlns="http://www.w3.org/2000/svg"
      viewBox="0 0 752 752"
      width='100%'
      height='100%'
      fill='black'
      name="FraxswapIcon"
    >
      <path d="M741.84 665.21c-24.33 24.34-48.34 48.36-72.52 72.54-.56-.53-1.28-1.17-1.96-1.86-33.49-33.48-66.98-66.97-100.47-100.46-2.7-2.7-2.56-2.46-5.68-.51-10.19 6.38-20.41 12.72-30.78 18.81-13.15 7.73-27.24 13.49-41.45 18.88-9.27 3.51-18.79 6.42-28.35 9.04-8.99 2.47-18.14 4.45-27.3 6.19-7.52 1.43-15.15 2.32-22.76 3.21-6.29.74-12.61 1.28-18.94 1.62-5.32.29-10.67.32-16 .21-8.59-.17-17.17-.49-25.76-.85-3.08-.13-6.16-.39-9.2-.87-8.99-1.43-17.95-3.03-26.93-4.52-14.48-2.4-28.56-6.41-42.37-11.23-10.24-3.58-20.18-8.04-30.18-12.27-13.52-5.73-26.17-13.08-38.57-20.88-4.74-2.98-9.35-6.18-13.91-9.42-1.45-1.03-2.44-1.11-3.62.24-.87 1.01-1.89 1.9-2.83 2.84-32.9 32.9-65.79 65.79-98.68 98.7-.58.58-1.05 1.28-1.41 1.73-24.34-24.32-48.4-48.37-72.57-72.53.44-.46 1.04-1.13 1.68-1.77 33.43-33.43 66.85-66.86 100.28-100.29 2.75-2.75 2.8-2.79.5-6.04-12.12-17.12-22.3-35.34-30.97-54.42-.83-1.83-1.67-3.65-2.39-5.52-.86-2.23-.18-3.77 1.96-4.66 20.99-8.68 41.99-17.34 62.97-26.02 8.95-3.7 17.89-7.42 26.83-11.16 2.82-1.18 4.08-.65 5.48 2.27 3 6.25 5.83 12.59 9.11 18.7 9.1 16.98 20.57 32.24 33.86 46.18 16.74 17.56 35.98 31.76 57.52 42.75 8.76 4.47 18.07 7.9 27.21 11.59 13.03 5.26 26.74 8.1 40.51 10.36 8.7 1.43 17.61 1.81 26.45 2.12 7.57.26 15.19.04 22.75-.49 6.89-.49 13.79-1.37 20.58-2.65 7.61-1.43 15.23-3.09 22.61-5.4 9.31-2.91 18.5-6.27 27.53-9.97 18.7-7.66 35.63-18.39 51.2-31.21 14.18-11.68 26.77-24.88 37.53-39.85 8.57-11.92 16.07-24.41 22.24-37.72 3.11-6.72 3.22-6.64-3.5-9.41-22.19-9.17-44.38-18.36-66.57-27.55-.69-.29-1.49-.51-2-1.01-.54-.53-1.14-1.37-1.09-2.02.05-.64.77-1.51 1.4-1.77 7.78-3.26 15.6-6.41 23.39-9.63 14.89-6.16 29.76-12.37 44.66-18.54 13.66-5.65 27.33-11.25 40.99-16.9 12.5-5.17 24.99-10.38 37.48-15.57 8.25-3.43 16.49-6.9 24.76-10.27 3.06-1.24 4.13-.63 5.39 2.42 7.46 18.09 14.93 36.17 22.41 54.24 9.3 22.48 18.61 44.96 27.93 67.43 6.66 16.06 13.34 32.12 20 48.18.29.69.63 1.39.76 2.12.3 1.66-.55 2.37-2.14 2.19-.65-.07-1.28-.37-1.89-.63l-68.85-28.59c-3.22-1.34-4.1-1.06-5.35 2.14-6.97 17.74-16.15 34.31-26.63 50.19-2.58 3.9-5.17 7.79-7.87 11.61-.84 1.19-.87 2.04.22 2.99.75.66 1.42 1.42 2.13 2.13 33.02 33.01 66.03 66.03 99.06 99.03.65.65 1.4 1.2 2.1 1.8ZM8.99 87.59c24.17-24.17 48.17-48.18 72.97-72.98.35.64.66 1.7 1.34 2.38 33.11 33.16 66.25 66.29 99.38 99.42 3.05 3.05 3.11 3.13 6.6.68 12.39-8.73 25.3-16.62 38.85-23.38 9.56-4.77 19.32-9.22 29.3-13.02 11.6-4.42 23.39-8.46 35.36-11.74 10.75-2.95 21.77-5.06 32.79-6.79 11.19-1.76 22.5-3.03 33.8-3.72 9.72-.59 19.51-.18 29.26.06 7 .17 14.03.49 20.98 1.3 8.7 1.01 17.38 2.39 26 3.95 15.24 2.75 30.22 6.71 44.81 11.85 10.23 3.6 20.27 7.85 30.16 12.34 8.67 3.93 17.17 8.3 25.44 13.01 8.49 4.84 16.64 10.27 24.89 15.54 4.12 2.63 3.12 2.87 6.47-.47 33.32-33.3 66.63-66.62 99.93-99.93.65-.65 1.23-1.37 1.63-1.82 24.21 24.21 48.26 48.25 72.48 72.47-.31.33-.96 1.06-1.65 1.74-33.37 33.37-66.74 66.75-100.11 100.12q-2.71 2.71-.43 5.88c13.45 18.87 24.6 39.02 33.75 60.3 1.19 2.78.66 4.19-2.15 5.36-17.76 7.35-35.54 14.67-53.3 22.02-11.58 4.8-23.16 9.6-34.71 14.47-4.67 1.97-5.26 1.68-7.26-2.95-5.66-13.09-12.67-25.43-20.76-37.17-8.15-11.82-17.41-22.73-27.83-32.56-6.98-6.59-14.5-12.62-22.07-18.54-11.39-8.9-24.01-15.86-37.08-21.92-14.6-6.76-29.77-11.94-45.53-15.46-11.21-2.51-22.56-3.87-33.96-4.65-7.31-.5-14.7-.38-22.03 0-8.14.41-16.3 1.08-24.36 2.27-7.41 1.09-14.74 2.8-22.02 4.61-12.92 3.22-25.27 8.09-37.34 13.65-15.55 7.17-29.91 16.27-43.35 26.9-10.79 8.54-20.64 18.05-29.6 28.43-8.63 10-16.37 20.72-22.77 32.32-3.99 7.24-7.74 14.61-11.58 21.92-1.27 2.42-.76 3.88 1.8 4.94 22.73 9.42 45.45 18.83 68.19 28.23 1 .41 2.14.57 3.05 1.12.84.51 2.13 1.53 2.02 2.09-.2.97-1.15 2.15-2.08 2.55-7.59 3.24-15.26 6.31-22.9 9.45-10.57 4.35-21.14 8.7-31.71 13.06-12.73 5.25-25.46 10.48-38.17 15.76-11.48 4.77-22.93 9.61-34.42 14.37-11.48 4.76-23 9.44-34.49 14.18-2.85 1.18-5.67 2.44-8.51 3.65-3.64 1.55-4.66 1.16-6.15-2.44-12.67-30.59-25.33-61.19-38.01-91.77-10.76-25.95-21.56-51.88-32.33-77.82-.26-.62-.52-1.25-.63-1.9-.34-1.97.65-2.96 2.57-2.42 1.36.39 2.63 1.08 3.94 1.62 22.1 9.17 44.21 18.34 66.31 27.51 3.08 1.28 4.13.86 5.36-2.26 6.41-16.24 14.7-31.5 24.05-46.2 2.69-4.22 5.55-8.35 8.57-12.34 1.55-2.05 1.27-3.29-.47-5.03-19.22-19.12-38.37-38.31-57.55-57.48C38.82 117.44 23.91 102.54 9 87.63Z" />
    </svg>
