<svg width="358" height="358" viewBox="0 0 358 358" fill="none" xmlns="http://www.w3.org/2000/svg">
<rect width="358" height="358" fill="#2C3E50"/>
<rect width="358" height="358" rx="12" fill="#1A2833"/>
<path d="M252.365 124.031C249.333 141.667 247.817 159.531 247.836 177.426C247.836 187.432 248.304 197.788 249.24 208.494C250.181 219.253 251.8 229.942 254.087 240.498C255.747 248.208 257.671 255.6 259.861 262.675C262.05 269.75 264.599 277.033 267.506 284.526C268.136 286.409 267.303 287.557 265.008 287.969C262.847 288.37 260.655 288.577 258.457 288.587C253.34 288.569 248.263 287.673 243.448 285.938C238.435 284.17 233.155 283.275 227.839 283.29C222.571 283.264 217.34 284.161 212.38 285.938C209.969 286.808 207.488 287.47 204.964 287.916C203.861 277.083 202.316 261.36 201.495 248.576C200.806 238.317 200.524 229.956 201.195 227.528C201.866 225.1 203.216 220.651 204.594 215.513C207.569 204.512 211.356 189.654 207.348 186.767C200.859 182.079 201.866 180.869 200.806 177.461C199.747 174.053 197.275 168.968 190.283 167.105C180.324 164.457 178.126 169.065 178.126 169.065C178.126 169.065 170.18 163.521 162.852 167.988C152.823 174.08 157.422 181.231 154.2 183.615C150.563 186.263 147.587 189.91 148.373 196.072C148.612 197.917 149.344 201.095 150.262 204.751C152.399 213.252 155.56 224.394 155.71 227.784C155.789 229.241 155.471 236.419 154.977 245.786C154.297 258.861 153.291 276.192 152.593 288.163C149.541 287.703 146.538 286.961 143.623 285.947C138.511 284.186 133.14 283.29 127.732 283.299C122.432 283.272 117.168 284.168 112.176 285.947C107.306 287.704 102.168 288.6 96.9906 288.596C95.2167 288.554 93.4473 288.398 91.6935 288.128C89.4039 287.816 88.574 286.933 89.2038 285.479C93.0705 277.736 96.1551 269.627 98.412 261.271C101.05 251.828 103.134 242.238 104.654 232.552C106.214 222.664 107.358 212.929 108.088 203.347C108.818 193.765 109.186 185.033 109.192 177.152C109.185 167.038 108.664 156.931 107.629 146.87C106.585 136.664 104.907 126.533 102.606 116.535C100.934 109.254 98.9565 102.177 96.6728 95.3023C94.3891 88.4277 91.9966 81.4532 89.4951 74.3785C89.2705 73.9726 89.1943 73.501 89.2797 73.0451C89.3651 72.5891 89.6067 72.1771 89.963 71.88C90.8279 71.1857 91.8441 70.7047 92.9294 70.4762C94.2584 70.1518 95.6227 69.9946 96.9906 70.0083H101.052C105.539 70.063 109.997 70.7465 114.295 72.0389C123.571 74.7463 133.428 74.7463 142.705 72.0389C147.324 70.6961 152.109 70.0125 156.919 70.0083H160.354C161.721 69.9957 163.086 70.1529 164.415 70.4762C165.499 70.7079 166.514 71.1884 167.381 71.88C167.733 72.1801 167.972 72.5918 168.057 73.0465C168.142 73.5012 168.069 73.9714 167.849 74.3785C166.383 77.5038 164.83 81.0882 163.161 85.1494C161.492 89.2105 159.93 93.4218 158.482 97.8008C157.066 102.004 155.866 106.276 154.889 110.602C154.011 114.286 153.541 118.055 153.485 121.841C153.391 125.844 154.149 129.822 155.709 133.51C157.27 137.198 159.596 140.512 162.534 143.233C168.573 148.966 175.965 151.829 184.712 151.823C189.841 151.915 194.85 150.262 198.917 147.135C202.978 144.01 205.009 138.389 205.009 130.272C204.972 125.968 204.499 121.679 203.596 117.471C202.628 112.768 201.378 108.127 199.853 103.575C198.293 98.8661 196.627 94.287 194.856 89.8374C193.084 85.3877 191.471 81.1706 190.018 77.186C188.558 73.6546 189.079 71.5739 191.58 70.9442C194.654 70.2577 197.799 69.9435 200.947 70.0083C205.435 70.063 209.893 70.7465 214.19 72.0389C223.47 74.7461 233.33 74.7461 242.61 72.0389C247.225 70.6955 252.008 70.0119 256.815 70.0083C257.645 70.0083 258.793 70.0613 260.249 70.1584C261.618 70.2567 262.976 70.4664 264.31 70.7853C265.367 71.0202 266.372 71.445 267.277 72.0389C267.633 72.2997 267.879 72.6846 267.966 73.1177C268.052 73.5508 267.974 74.0007 267.745 74.3785C260.428 90.1695 255.255 106.868 252.365 124.031Z" fill="#AFF9E5"/>
<path d="M165.015 193.924C166.41 197.376 165.315 201.067 162.578 202.179C159.841 203.291 156.478 201.393 155.083 197.941C153.688 194.489 154.782 190.799 157.528 189.695C160.274 188.592 163.62 190.472 165.015 193.924Z" fill="#AFF9E5"/>
<path d="M186.857 216.158C178.205 217.438 165.669 216.546 165.669 211.24C165.669 206.287 167.337 193.045 176.475 189.61C178.023 189.02 179.742 189.061 181.26 189.725C183.423 190.696 186.398 192.974 188.182 198.359C191.183 207.603 195.509 214.878 186.857 216.158Z" fill="#AFF9E5"/>
<path d="M186.857 216.158C178.205 217.438 165.669 216.546 165.669 211.24C165.669 206.287 167.337 193.045 176.475 189.61C178.023 189.02 179.742 189.061 181.26 189.725C183.423 190.696 186.398 192.974 188.182 198.359C191.183 207.603 195.509 214.878 186.857 216.158Z" fill="#AFF9E5"/>
<path d="M193.346 180.319C193.346 183.991 191.015 186.967 188.11 187.046H187.987C187.134 187.016 186.304 186.769 185.573 186.329C184.843 185.888 184.236 185.269 183.811 184.53C183.023 183.264 182.612 181.8 182.628 180.31C182.628 176.593 185.029 173.582 187.987 173.582C190.944 173.582 193.346 176.602 193.346 180.319Z" fill="#AFF9E5"/>
<path d="M174.567 180.321C174.569 180.87 174.516 181.417 174.408 181.955C173.826 184.895 171.76 187.058 169.208 187.058C166.983 187.058 165.085 185.363 164.282 182.935C163.995 182.081 163.851 181.186 163.858 180.286C163.858 176.569 166.251 173.559 169.208 173.559C172.166 173.559 174.567 176.605 174.567 180.321Z" fill="#AFF9E5"/>
<path d="M201.309 197.933C200.897 198.922 200.298 199.821 199.543 200.581C197.901 202.232 195.694 202.921 193.787 202.153C191.041 201.041 189.947 197.35 191.342 193.898C191.719 192.913 192.29 192.012 193.019 191.25C194.661 189.554 196.895 188.839 198.828 189.625C201.609 190.791 202.704 194.49 201.309 197.933Z" fill="#AFF9E5"/>
<path d="M162.578 202.169C159.832 203.272 156.478 201.383 155.083 197.931C153.688 194.479 154.782 190.789 157.528 189.685C160.274 188.581 163.62 190.471 165.015 193.914C166.41 197.357 165.288 201.056 162.578 202.169Z" fill="#AFF9E5"/>
</svg>
