<svg width="152" height="152" viewBox="0 0 152 152" fill="none" xmlns="http://www.w3.org/2000/svg">
<g clip-path="url(#clip0_63_394)">
<path d="M128.391 11.1658C128.034 11.7335 127.717 12.2401 127.54 12.4996C124.915 16.3726 122.278 20.2303 119.678 24.1186C119.018 25.1044 118.417 25.2662 117.508 24.4025C113.683 20.7858 108.983 18.5304 104.347 16.2352C99.7418 13.9523 94.8616 12.4385 89.835 11.413C85.1196 10.4517 80.3401 9.9786 75.579 9.99996H75.4966C74.3612 10.0061 73.2259 10.0396 72.0936 10.1037C72.0753 10.1037 72.0539 10.1068 72.0325 10.1068C70.7842 10.177 69.539 10.2838 68.2968 10.4242H68.2877C68.2877 10.4242 68.2785 10.4242 68.2724 10.4272C67.6956 10.4944 67.1127 10.5646 66.5358 10.647C66.5236 10.647 66.5145 10.647 66.5023 10.65C66.4901 10.65 66.4778 10.65 66.4656 10.6561C59.5345 11.6328 52.7621 13.7021 46.4169 16.8884C45.8401 17.1783 45.2724 17.4744 44.7078 17.7826C44.4911 17.8986 44.2774 18.0146 44.0638 18.1305C43.8501 18.2465 43.6365 18.3656 43.4259 18.4876C43.2123 18.6067 43.0017 18.7287 42.7911 18.8508C35.3106 23.1572 29.0204 28.6539 23.8991 35.286C23.893 35.2921 23.8869 35.3012 23.8838 35.3073C22.8766 36.6075 21.9153 37.9504 21.0057 39.3391C21.0057 39.3391 21.0057 39.3452 20.9996 39.3482C20.435 40.2028 19.8887 41.0696 19.3668 41.9577C19.3638 41.9638 19.3577 41.973 19.3546 41.9791C18.2101 43.8957 17.148 45.8887 16.1652 47.958C15.8173 48.6905 15.4846 49.4291 15.1642 50.1676C15.1642 50.1737 15.1611 50.1768 15.1581 50.1798C14.7735 51.0802 14.4073 51.9866 14.0654 52.8992C13.043 55.6186 12.2129 58.3867 11.575 61.2007C11.575 61.2068 11.5719 61.216 11.5719 61.2221C11.5201 61.4479 11.4712 61.6707 11.4254 61.8966C10.6716 65.4216 10.2199 69.0169 10.0765 72.6733C9.78651 80.0134 10.226 87.3016 12.8599 94.3029C13.6473 96.3966 14.8437 98.3438 16.33 100.065C18.6465 102.745 21.668 104.875 24.9612 106.154C27.4882 107.137 30.1771 107.619 32.8262 107.46C35.1885 107.32 37.508 107.012 39.7848 106.551C45.0191 105.495 50.0274 103.639 54.813 101.182C61.9395 97.5289 68.48 93.0577 74.6267 88.0585C78.5974 84.8325 82.4002 81.3837 86.0871 77.7946C86.3465 77.5412 86.6059 77.2879 86.8623 77.0316C91.4983 72.4566 95.8169 67.6191 99.8609 62.5589C103.63 57.8374 107.164 52.9175 110.488 47.8237C112.521 44.7076 114.453 41.5426 116.284 38.3258C118.142 35.0632 119.904 31.7517 121.57 28.3945C123.789 23.9355 125.846 19.3971 127.762 14.7794C128.068 14.0439 128.58 12.7529 129.047 11.4832C129.203 11.0682 128.626 10.7874 128.391 11.1628V11.1658Z" fill="url(#paint0_linear_63_394)"/>
<path d="M139.113 56.9126C137.568 51.7273 135.38 46.8105 132.764 42.0829C132.368 41.3626 132.288 40.6942 132.487 39.9037C133.375 36.3512 134.266 32.8047 134.937 29.2003C135.893 24.0546 136.909 18.918 137.889 13.7753C137.962 13.3999 138.206 12.8811 137.681 12.7132C137.272 12.582 137.117 13.0764 137.001 13.3908C136.14 15.6859 134.852 17.7643 133.765 19.9435C131.443 24.5978 129.099 29.2369 126.666 33.8332C125.702 35.6614 124.719 37.4835 123.721 39.2933C123.541 39.6199 123.361 39.9434 123.178 40.2669C119.241 47.3659 115.124 54.355 110.714 61.1611C108.449 64.6617 106.108 68.1105 103.676 71.5044C102.861 72.6428 102.037 73.769 101.21 74.8952C98.3711 78.7438 95.4442 82.51 92.4014 86.1724C90.4084 88.5774 88.3605 90.9397 86.2577 93.25C80.7579 99.2869 74.8675 104.97 68.4521 110.167C60.935 116.256 52.8105 121.286 43.4958 124.234C40.8039 125.086 38.1486 125.586 35.5635 125.736C34.5106 125.797 33.4699 125.8 32.4444 125.745C24.6617 125.345 17.6207 121.677 12.1515 114.95C11.8707 114.605 11.7028 114.028 10.8696 114.12C12.2858 118.136 13.357 122.156 15.2218 125.907C20.2302 135.988 29.7647 140.718 40.7611 138.426C43.453 137.865 46.0869 137.114 48.672 136.213C51.0617 135.38 53.4148 134.419 55.7344 133.366C64.7531 129.276 72.8623 123.874 80.3001 117.495C81.936 116.091 83.5383 114.642 85.1101 113.149C86.6666 111.669 88.1896 110.149 89.7278 108.647C89.8102 108.724 89.8896 108.803 89.972 108.879C89.2608 109.646 88.5406 110.396 87.8447 111.175C86.5323 112.646 85.1986 114.095 83.8435 115.521C75.7282 124.063 66.8376 131.678 56.3753 137.407C55.9938 137.614 55.4231 137.782 55.4627 138.322C55.4841 138.646 55.7008 138.777 55.9541 138.863C56.1403 138.93 56.3478 138.972 56.5126 139.049C56.7415 139.152 56.9918 139.223 57.236 139.29C63.5903 141.069 69.8805 141.982 76.0853 141.997C76.1646 142 76.244 141.997 76.3233 141.997C76.3905 141.994 76.4576 141.994 76.5247 141.991H76.6102C77.6937 141.988 78.7771 141.957 79.8576 141.899C79.9369 141.896 80.0163 141.89 80.0926 141.887C84.4814 141.625 88.8305 140.91 93.1278 139.729C93.14 139.726 93.1522 139.723 93.1644 139.717C97.306 138.582 101.402 137.013 105.452 135.008C108.074 133.711 110.564 132.273 112.92 130.695C112.929 130.689 112.935 130.683 112.945 130.677C112.981 130.653 113.021 130.625 113.057 130.601C113.057 130.601 113.064 130.601 113.067 130.595C119.842 126.053 125.531 120.386 130.149 113.68C130.167 113.659 130.182 113.634 130.198 113.613C130.75 112.814 131.284 111.996 131.803 111.165C131.809 111.153 131.818 111.141 131.824 111.129C131.834 111.117 131.84 111.101 131.849 111.089C131.861 111.068 131.87 111.052 131.882 111.034C133.085 109.111 134.199 107.115 135.237 105.037C138.786 97.9196 140.846 90.3384 141.576 82.4031C141.618 81.9484 141.655 81.4936 141.688 81.0389C141.808 79.3694 141.872 77.703 141.875 76.0458C141.887 69.5755 140.987 63.1968 139.113 56.9126Z" fill="url(#paint1_linear_63_394)"/>
<path d="M99.8609 62.562C95.817 67.6222 91.4983 72.4597 86.8623 77.0346C82.8642 77.3215 78.8538 77.4772 74.8587 77.7915C71.8738 78.0265 68.8584 78.2188 65.9315 78.8048C61.3047 79.7296 56.7053 80.8253 52.4233 82.9556C49.4445 84.4388 46.4932 85.9923 43.78 87.8907C39.2325 91.0739 35.0298 94.7028 31.3338 98.8688C29.1913 101.283 27.1403 103.78 24.9612 106.157C21.6681 104.878 18.6466 102.748 16.3301 100.068C22.2968 95.0141 27.4639 89.1451 32.8843 83.5385C39.1745 77.0377 45.6173 70.8055 54.0103 66.963C58.5487 64.8845 63.2458 63.6546 68.2084 63.5661C76.9066 63.4104 85.611 63.7614 94.3032 63.0228C96.1557 62.8641 98.0083 62.7207 99.8609 62.562Z" fill="url(#paint2_linear_63_394)"/>
<path d="M121.57 28.3976C119.904 31.7548 118.143 35.0663 116.284 38.3289C110.534 37.3248 104.726 37.4407 98.924 37.865C97.4743 37.9718 96.0154 37.9809 94.5687 38.1702C91.1017 38.6219 87.6071 38.924 84.1553 39.4703C79.3971 40.2242 74.639 41.036 69.9298 42.0401C66.246 42.8215 62.5774 43.7126 58.9028 44.5306C54.4377 45.5255 50.0672 46.8043 45.8279 48.4158C40.1817 50.5583 34.7003 53.1373 29.1517 55.5301C26.2706 56.7723 23.3528 57.929 20.5267 59.2841C17.9263 60.5293 15.1307 61.2282 12.5029 62.3819C12.0451 62.5803 11.4805 62.684 11.4438 61.863C11.4866 61.6494 11.5293 61.4388 11.572 61.2252C11.572 61.2191 11.5751 61.2099 11.5751 61.2038C12.1611 58.3624 12.9515 55.582 14.0655 52.9023C14.1937 52.591 14.328 52.2827 14.4654 51.9745C15.7503 51.9226 16.9772 51.5838 18.1949 51.2115C24.1891 49.3741 29.7468 46.5327 35.1184 43.4013C39.669 40.7491 43.9937 37.6941 48.3123 34.6664C53.3664 31.12 58.2924 27.3965 63.6457 24.2865C67.7842 21.8815 72.0418 19.7451 76.5313 18.0756C83.0199 15.6615 89.8595 14.7795 96.5892 13.4122C100.319 14.5231 103.877 16.0216 107.222 18.0146C107.006 18.0879 106.783 18.1428 106.575 18.2344C99.8243 21.2436 92.762 23.023 85.4218 23.8623C81.1795 24.3476 76.8884 24.7687 72.9391 26.5969C70.0213 27.9489 67.5156 29.7924 66.3559 32.9726C65.9072 34.1995 66.0598 34.3521 67.3447 34.0988C70.2594 33.528 73.113 32.6826 75.808 31.471C83.1756 28.1565 90.7995 27.3019 98.7439 28.5258C102.94 29.1728 107.119 28.95 111.111 27.3446C113.165 26.5206 115.152 25.5287 117.169 24.61C118.704 25.8125 120.172 27.0761 121.57 28.3976Z" fill="url(#paint3_linear_63_394)"/>
<path d="M116.284 38.3289C114.453 41.5457 112.521 44.7107 110.488 47.8268C107.164 52.9206 103.63 57.8405 99.8609 62.5619C98.0083 62.7207 96.1557 62.8641 94.3031 63.0228C85.611 63.7614 76.9066 63.4104 68.2084 63.5661C63.2458 63.6546 58.5487 64.8845 54.0103 66.963C45.6173 70.8055 39.1744 77.0377 32.8842 83.5385C27.4638 89.1451 22.2968 95.0141 16.3301 100.068C14.8437 98.3469 13.6473 96.3997 12.8599 94.306C10.226 87.3047 9.78651 80.0165 10.0765 72.6764C10.2199 69.02 10.6716 65.4247 11.4254 61.8997L11.4438 61.863C11.4804 62.684 12.045 62.5803 12.5028 62.3819C15.1306 61.2282 17.9263 60.5293 20.5266 59.2841C23.3528 57.929 26.2705 56.7723 29.1516 55.5301C34.7002 53.1373 40.1816 50.5583 45.8279 48.4158C50.0671 46.8044 54.4376 45.5256 58.9027 44.5306C62.5774 43.7127 66.2459 42.8215 69.9297 42.0401C74.639 41.036 79.3971 40.2242 84.1552 39.4703C87.607 38.924 91.1016 38.6219 94.5687 38.1702C96.0153 37.981 97.4742 37.9718 98.9239 37.865C104.726 37.4407 110.534 37.3248 116.284 38.3289Z" fill="url(#paint4_linear_63_394)"/>
<path d="M74.6266 88.0616C68.4798 93.0608 61.9393 97.532 54.8128 101.185C50.0273 103.642 45.0189 105.498 39.7847 106.554C42.4064 103.749 45.1898 101.106 48.2083 98.7071C53.2716 94.6845 58.7683 91.4524 65.1256 89.8776C68.2692 89.0993 71.4403 88.5225 74.6266 88.0616Z" fill="url(#paint5_linear_63_394)"/>
<path d="M86.8621 77.0347C86.6057 77.291 86.3463 77.5444 86.0869 77.7977C82.4 81.3869 78.5972 84.8356 74.6265 88.0616C71.4402 88.5225 68.2691 89.0993 65.1256 89.8776C58.7682 91.4524 53.2715 94.6845 48.2082 98.7071C45.1897 101.106 42.4063 103.749 39.7846 106.554C37.5078 107.015 35.1883 107.323 32.826 107.463C30.1768 107.622 27.488 107.14 24.9609 106.157C27.1401 103.78 29.191 101.283 31.3336 98.8688C35.0296 94.7028 39.2322 91.074 43.7797 87.8907C46.493 85.9924 49.4443 84.4389 52.423 82.9556C56.705 80.8253 61.3044 79.7296 65.9313 78.8048C68.8582 78.2189 71.8736 78.0266 74.8585 77.7916C78.8536 77.4772 82.8639 77.3216 86.8621 77.0347Z" fill="url(#paint6_linear_63_394)"/>
<path d="M96.5921 13.4122C89.8624 14.7795 83.0228 15.6646 76.5342 18.0757C72.0416 19.7451 67.7841 21.8846 63.6455 24.2896C58.2953 27.3996 53.3694 31.1231 48.3152 34.6695C43.9966 37.6971 39.6719 40.7522 35.1213 43.4044C29.7497 46.5358 24.192 49.3741 18.1978 51.2115C16.9801 51.5838 15.7532 51.9226 14.4683 51.9745C16.0034 47.8359 17.9018 43.8866 20.5082 40.3035C21.375 40.0319 22.2265 39.6504 23.1146 39.51C25.1565 39.1896 27.0975 38.5273 28.9867 37.7704C33.8059 35.8384 38.3137 33.3144 42.672 30.473C49.4261 26.0659 55.6828 21.0056 62.0676 16.1102C64.5489 14.2087 66.8257 12.0357 69.5329 10.4242C72.8809 9.82909 76.2595 9.98475 79.6229 10.1465C85.4278 10.4242 91.1107 11.4467 96.6013 13.4122H96.5921Z" fill="url(#paint7_linear_63_394)"/>
<path d="M69.5266 10.4242C66.8225 12.0357 64.5457 14.2057 62.0613 16.1101C55.6765 21.0056 49.4199 26.0658 42.6657 30.473C38.3105 33.3174 33.8027 35.8384 28.9805 37.7703C27.0913 38.5273 25.1502 39.1895 23.1084 39.51C22.2202 39.6504 21.3718 40.0319 20.502 40.3035C21.5671 38.0633 23.1542 36.1772 24.7198 34.3002C35.3409 21.5489 48.8034 13.6685 65.1958 10.882C66.6241 10.6379 68.0555 10.3235 69.5266 10.4242Z" fill="url(#paint8_linear_63_394)"/>
<path d="M117.169 24.61C115.151 25.5256 113.165 26.5176 111.111 27.3447C107.118 28.95 102.94 29.1728 98.7437 28.5258C90.7993 27.3019 83.1753 28.1565 75.8078 31.471C73.1159 32.6826 70.2592 33.5281 67.3445 34.1018C66.0596 34.3551 65.907 34.2025 66.3556 32.9726C67.5154 29.7924 70.0211 27.949 72.9389 26.6C76.8882 24.7718 81.1793 24.3476 85.4247 23.8623C92.7617 23.023 99.8272 21.2437 106.578 18.2344C106.786 18.1428 107.009 18.0879 107.222 18.0146C110.818 19.7939 114.101 22.0402 117.169 24.61Z" fill="url(#paint9_linear_63_394)"/>
<path d="M20.0288 111.193C20.2547 111.077 20.4683 110.946 20.6697 110.805C20.4683 110.949 20.2547 111.08 20.0288 111.196V111.193Z" fill="url(#paint10_linear_63_394)"/>
<path d="M137.779 53.3998C137.168 53.6592 136.769 54.175 136.344 54.6419C133.213 58.0633 129.471 60.7399 125.671 63.3188C121.075 66.438 116.25 69.1696 111.113 71.3151C110.832 71.4342 110.549 71.5502 110.268 71.6661C109.987 71.7852 109.703 71.8981 109.422 72.011C108.84 72.2491 108.257 72.481 107.674 72.7069C107.497 72.7771 107.32 72.8442 107.143 72.9114C106.834 73.0304 106.523 73.1494 106.212 73.2623C106.004 73.3386 105.8 73.4119 105.592 73.4882C105.388 73.5614 105.18 73.6347 104.973 73.7079C104.353 73.9277 103.727 74.1352 103.102 74.3336C102.684 74.4679 102.262 74.5961 101.841 74.7151C101.631 74.7761 101.42 74.8372 101.209 74.8952C102.037 73.769 102.861 72.6428 103.676 71.5044C106.108 68.1105 108.449 64.6617 110.713 61.1611C110.802 61.1428 110.89 61.1275 110.982 61.1061C111.266 61.0512 111.553 60.9902 111.837 60.9291C112.52 60.7796 113.204 60.6209 113.885 60.4438C118.38 59.2841 122.763 57.8435 126.462 54.8159C130.112 51.831 130.179 46.1604 126.73 42.7146C126.596 42.5804 126.462 42.4522 126.325 42.327C126.288 42.2935 126.251 42.2629 126.215 42.2324C126.148 42.1714 126.083 42.1164 126.016 42.0615C125.693 41.7868 125.357 41.5335 125.015 41.3016C124.872 41.2039 124.728 41.1123 124.582 41.0238C124.551 41.0025 124.524 40.9872 124.493 40.9689C124.374 40.8956 124.252 40.8254 124.13 40.7552L124.112 40.7461C123.978 40.6698 123.843 40.5996 123.709 40.5263C123.532 40.4378 123.355 40.3493 123.178 40.2669C123.361 39.9434 123.541 39.6199 123.721 39.2933C124.719 37.4835 125.702 35.6614 126.666 33.8333C129.404 37.1294 131.806 40.7095 133.891 44.552C135.432 47.3873 136.918 50.2623 137.779 53.3998Z" fill="url(#paint11_linear_63_394)"/>
<path d="M126.462 54.8159C122.763 57.8435 118.381 59.2841 113.885 60.4438C113.204 60.6209 112.521 60.7796 111.837 60.9291C111.553 60.9901 111.266 61.0512 110.982 61.1061C110.891 61.1275 110.802 61.1427 110.714 61.1611C115.124 54.355 119.241 47.3659 123.178 40.2669C123.355 40.3493 123.532 40.4378 123.709 40.5263C123.844 40.5996 123.978 40.6698 124.112 40.7461L124.131 40.7552C124.253 40.8254 124.375 40.8956 124.494 40.9689C124.524 40.9872 124.552 41.0024 124.582 41.0238C124.729 41.1123 124.872 41.2039 125.016 41.3015C125.357 41.5335 125.693 41.7868 126.017 42.0615C126.084 42.1164 126.148 42.1714 126.215 42.2324C126.252 42.2629 126.288 42.2935 126.325 42.327C126.462 42.4522 126.597 42.5803 126.731 42.7146C130.18 46.1604 130.113 51.831 126.462 54.8159Z" fill="url(#paint12_linear_63_394)"/>
<path d="M35.5635 125.736C35.0721 126.142 34.596 126.563 34.3366 127.186C33.6835 126.728 33.0547 126.249 32.4443 125.745C33.4698 125.8 34.5106 125.797 35.5635 125.736Z" fill="url(#paint13_linear_63_394)"/>
<path d="M55.7346 133.366C53.4151 134.419 51.062 135.38 48.6723 136.213C47.1768 135.53 45.7179 134.767 44.3018 133.906C44.7474 133.515 45.1868 133.119 45.6416 132.74C49.4322 129.575 53.4151 126.728 58.0908 124.982C62.1866 123.453 66.4381 122.427 70.598 121.112C73.9033 120.065 77.1812 119.006 80.3004 117.495C72.8626 123.874 64.7534 129.276 55.7346 133.366Z" fill="url(#paint14_linear_63_394)"/>
<path d="M141.875 76.0458C141.887 77.7122 141.832 79.3786 141.689 81.0389C141.631 81.7073 141.557 82.3757 141.466 83.0441C141.24 83.2303 141.213 83.5873 140.767 83.5873C137.437 83.5904 134.156 84.0146 130.878 84.5976C126.889 85.3056 123.068 86.4563 119.687 88.7239C118.066 89.8104 116.796 91.2357 116.882 93.4271C116.912 94.1748 117.199 94.6021 117.953 94.4373C119.037 94.1992 120.135 94.2877 121.219 94.1718C127.048 93.5461 132.853 92.719 138.618 91.6447C139.073 91.5592 139.503 91.3853 139.922 91.7149C139.366 94.3793 138.64 96.9918 137.477 99.464C136.271 99.0092 135.005 98.8993 133.735 98.8627C126.435 98.6582 119.452 100.248 112.676 102.8C108.205 104.488 103.975 106.703 100.013 109.392C95.3589 112.551 91.3638 116.476 87.4084 120.437C82.3268 125.534 77.0376 130.305 70.5948 133.726C69.664 134.22 68.727 134.687 67.7839 135.121C67.5398 135.237 67.2986 135.347 67.0545 135.453C66.4624 135.716 65.8703 135.963 65.2782 136.201C64.9791 136.32 64.677 136.439 64.3748 136.552C64.0604 136.671 63.743 136.784 63.4287 136.897C63.1235 137.004 62.8152 137.111 62.507 137.211C60.3767 137.916 58.1975 138.469 55.9543 138.863C55.701 138.777 55.4843 138.646 55.4629 138.322C55.4232 137.782 55.9939 137.614 56.3755 137.407C66.8378 131.678 75.7283 124.063 83.8437 115.521C88.4461 112.533 91.6294 108.464 93.4087 103.267C94.1748 101.036 94.2419 98.7284 92.6945 96.6195C91.2998 94.715 89.3098 93.8788 87.1551 93.421C86.856 93.3569 86.5569 93.2989 86.2578 93.25C88.3607 90.9397 90.4086 88.5774 92.4015 86.1724C92.4321 86.1663 92.4656 86.1633 92.4992 86.1633C93.0303 86.1144 93.5613 86.0686 94.0924 86.0229C96.6133 85.8031 99.1373 85.6139 101.655 85.388C101.964 85.3606 102.272 85.3331 102.58 85.3026C104.121 85.1591 105.66 84.9943 107.192 84.799C113.152 84.036 119.052 82.8884 124.671 80.6177C128.76 78.9635 132.777 77.1781 136.631 75.0051C138.313 74.0589 139.818 72.7496 141.741 72.2399C141.817 73.5096 141.866 74.7792 141.875 76.0458Z" fill="url(#paint15_linear_63_394)"/>
<path d="M20.6697 110.805C20.4683 110.949 20.2547 111.08 20.0288 111.196C20.2547 111.077 20.4683 110.946 20.6697 110.805Z" fill="url(#paint16_linear_63_394)"/>
<path d="M141.74 72.2399C139.818 72.7496 138.313 74.0589 136.631 75.0051C132.777 77.1781 128.76 78.9635 124.67 80.6177C119.052 82.8884 113.152 84.036 107.191 84.799C105.659 84.9943 104.121 85.1591 102.58 85.3026C102.272 85.3331 101.963 85.3606 101.655 85.388C99.1372 85.6139 96.6132 85.8031 94.0922 86.0229C93.5611 86.0656 93.0301 86.1114 92.499 86.1633C92.4655 86.1633 92.4319 86.1663 92.4014 86.1724C95.4442 82.51 98.3711 78.7438 101.21 74.8982C101.42 74.8372 101.631 74.7762 101.841 74.7151C102.262 74.5961 102.684 74.4679 103.102 74.3336C103.727 74.1322 104.35 73.9246 104.973 73.7079C105.18 73.6347 105.388 73.5614 105.592 73.4882C105.8 73.4119 106.004 73.3386 106.212 73.2623C106.523 73.1494 106.834 73.0304 107.143 72.9114C107.32 72.8442 107.497 72.7771 107.674 72.7069C108.257 72.481 108.84 72.2491 109.423 72.011C109.703 71.8981 109.987 71.7852 110.268 71.6661C110.549 71.5502 110.833 71.4342 111.113 71.3152C116.25 69.1696 121.075 66.438 125.671 63.3189C129.471 60.7399 133.213 58.0633 136.344 54.642C136.769 54.175 137.168 53.6592 137.779 53.3998C139.39 57.0897 140.211 60.9993 140.938 64.9273C141.383 67.3445 141.64 69.7861 141.74 72.2399Z" fill="url(#paint17_linear_63_394)"/>
<path d="M93.4085 103.267C91.6292 108.464 88.4459 112.533 83.8435 115.521C83.5535 115.71 83.2575 115.893 82.9553 116.073C82.0855 116.592 81.2004 117.062 80.3001 117.495C77.1809 119.006 73.903 120.065 70.5977 121.112C66.4378 122.427 62.1863 123.453 58.0905 124.982C53.4148 126.728 49.4319 129.575 45.6413 132.74C45.1866 133.119 41.1762 136.024 37.938 138.866C32.0751 139.464 27.8663 137.745 26.9751 137.364C26.4929 137.156 25.1836 136.522 25.1836 136.522C25.1836 136.522 35.1179 126.105 35.5635 125.739C38.1486 125.589 40.8038 125.089 43.4957 124.237C52.8105 121.289 60.935 116.259 68.4521 110.17C74.8675 104.973 80.7579 99.29 86.2576 93.2531C86.5567 93.3019 86.8558 93.3599 87.1549 93.424C89.3097 93.8818 91.2996 94.7181 92.6944 96.6225C94.2417 98.7315 94.1746 101.039 93.4085 103.27V103.267Z" fill="url(#paint18_linear_63_394)"/>
<path d="M133.103 108.709C131.824 111.498 130.021 113.958 128.128 116.339C115.826 131.815 99.8391 140.389 80.0956 141.89C79.6897 141.921 79.2777 141.896 78.8717 141.896C78.2369 141.829 77.599 141.734 76.9764 141.988C76.7597 141.991 76.543 141.997 76.3264 142C76.2806 141.869 75.9662 141.683 76.2714 141.609C77.1138 141.405 77.712 140.862 78.3254 140.315C81.9482 137.105 84.9208 133.277 88.2231 129.764C92.1816 125.553 96.1126 121.32 100.709 117.785C104.115 115.164 107.756 113.033 111.95 111.788C115.188 110.827 118.49 110.744 121.774 110.363C125.568 109.923 129.371 109.548 133.103 108.709Z" fill="url(#paint19_linear_63_394)"/>
<path d="M133.103 108.709C129.368 109.548 125.568 109.923 121.774 110.363C118.487 110.744 115.188 110.827 111.95 111.788C107.756 113.033 104.115 115.164 100.709 117.785C96.1129 121.323 92.1819 125.553 88.2234 129.764C84.9211 133.277 81.9515 137.105 78.3257 140.315C77.7122 140.859 77.114 141.405 76.2717 141.609C75.9665 141.683 76.2808 141.869 76.3266 142C69.3405 142.07 62.5101 141.103 55.875 138.881C61.0695 137.98 65.9223 136.216 70.601 133.732C77.0438 130.311 82.333 125.537 87.4146 120.444C91.367 116.482 95.3651 112.557 100.019 109.398C103.981 106.709 108.208 104.494 112.682 102.809C119.458 100.254 126.441 98.6643 133.741 98.8719C135.008 98.9085 136.278 99.0184 137.483 99.4731C136.421 102.742 134.983 105.834 133.106 108.718L133.103 108.709Z" fill="url(#paint20_linear_63_394)"/>
<path d="M139.925 91.7149C139.507 91.3852 139.073 91.5592 138.621 91.6416C132.856 92.7159 127.051 93.5461 121.219 94.1687C120.135 94.2847 119.037 94.1962 117.956 94.4342C117.202 94.599 116.912 94.1748 116.885 93.424C116.799 91.2357 118.069 89.8074 119.69 88.7239C123.074 86.4562 126.893 85.3056 130.885 84.5945C134.159 84.0116 137.443 83.5873 140.773 83.5843C141.222 83.5843 141.246 83.2272 141.472 83.0441C141.203 85.9771 140.761 88.8795 139.931 91.7149H139.925Z" fill="url(#paint21_linear_63_394)"/>
</g>
<defs>
<linearGradient id="paint0_linear_63_394" x1="69.5363" y1="9.99927" x2="69.5363" y2="107.49" gradientUnits="userSpaceOnUse">
<stop stop-color="#DB4427"/>
<stop offset="1" stop-color="#ED6635"/>
</linearGradient>
<linearGradient id="paint1_linear_63_394" x1="76.3722" y1="12.6916" x2="76.3722" y2="141.998" gradientUnits="userSpaceOnUse">
<stop stop-color="#DB4427"/>
<stop offset="1" stop-color="#ED6635"/>
</linearGradient>
<linearGradient id="paint2_linear_63_394" x1="58.0955" y1="62.562" x2="58.0955" y2="106.157" gradientUnits="userSpaceOnUse">
<stop stop-color="#DB4427"/>
<stop offset="1" stop-color="#ED6635"/>
</linearGradient>
<linearGradient id="paint3_linear_63_394" x1="66.5069" y1="13.4122" x2="66.5069" y2="62.5216" gradientUnits="userSpaceOnUse">
<stop stop-color="#DB4427"/>
<stop offset="1" stop-color="#ED6635"/>
</linearGradient>
<linearGradient id="paint4_linear_63_394" x1="63.1414" y1="37.5532" x2="63.1414" y2="100.068" gradientUnits="userSpaceOnUse">
<stop stop-color="#EB632A"/>
<stop offset="1" stop-color="#FD9113"/>
</linearGradient>
<linearGradient id="paint5_linear_63_394" x1="57.2056" y1="88.0616" x2="57.2056" y2="106.554" gradientUnits="userSpaceOnUse">
<stop stop-color="#DB4427"/>
<stop offset="1" stop-color="#ED6635"/>
</linearGradient>
<linearGradient id="paint6_linear_63_394" x1="55.9115" y1="77.0347" x2="55.9115" y2="107.493" gradientUnits="userSpaceOnUse">
<stop stop-color="#EB632A"/>
<stop offset="1" stop-color="#FD9113"/>
</linearGradient>
<linearGradient id="paint7_linear_63_394" x1="55.5348" y1="9.99963" x2="55.5348" y2="51.9745" gradientUnits="userSpaceOnUse">
<stop stop-color="#EB632A"/>
<stop offset="1" stop-color="#FD9113"/>
</linearGradient>
<linearGradient id="paint8_linear_63_394" x1="45.0143" y1="10.4049" x2="45.0143" y2="40.3035" gradientUnits="userSpaceOnUse">
<stop stop-color="#DB4427"/>
<stop offset="1" stop-color="#ED6635"/>
</linearGradient>
<linearGradient id="paint9_linear_63_394" x1="91.6479" y1="18.0146" x2="91.6479" y2="34.2053" gradientUnits="userSpaceOnUse">
<stop stop-color="#EB632A"/>
<stop offset="1" stop-color="#FD9113"/>
</linearGradient>
<linearGradient id="paint10_linear_63_394" x1="20.3493" y1="110.805" x2="20.3493" y2="111.196" gradientUnits="userSpaceOnUse">
<stop stop-color="#DB4427"/>
<stop offset="1" stop-color="#ED6635"/>
</linearGradient>
<linearGradient id="paint11_linear_63_394" x1="119.494" y1="33.8333" x2="119.494" y2="74.8952" gradientUnits="userSpaceOnUse">
<stop stop-color="#DB4427"/>
<stop offset="1" stop-color="#ED6635"/>
</linearGradient>
<linearGradient id="paint12_linear_63_394" x1="119.987" y1="40.2669" x2="119.987" y2="61.1611" gradientUnits="userSpaceOnUse">
<stop stop-color="#EB632A"/>
<stop offset="1" stop-color="#FD9113"/>
</linearGradient>
<linearGradient id="paint13_linear_63_394" x1="34.0039" y1="125.736" x2="34.0039" y2="127.186" gradientUnits="userSpaceOnUse">
<stop stop-color="#DB4427"/>
<stop offset="1" stop-color="#ED6635"/>
</linearGradient>
<linearGradient id="paint14_linear_63_394" x1="62.3011" y1="117.495" x2="62.3011" y2="136.213" gradientUnits="userSpaceOnUse">
<stop stop-color="#DB4427"/>
<stop offset="1" stop-color="#ED6635"/>
</linearGradient>
<linearGradient id="paint15_linear_63_394" x1="98.6687" y1="72.2399" x2="98.6687" y2="138.863" gradientUnits="userSpaceOnUse">
<stop stop-color="#DB4427"/>
<stop offset="1" stop-color="#ED6635"/>
</linearGradient>
<linearGradient id="paint16_linear_63_394" x1="20.3493" y1="110.805" x2="20.3493" y2="111.196" gradientUnits="userSpaceOnUse">
<stop stop-color="#EB632A"/>
<stop offset="1" stop-color="#FD9113"/>
</linearGradient>
<linearGradient id="paint17_linear_63_394" x1="117.071" y1="53.3998" x2="117.071" y2="86.1724" gradientUnits="userSpaceOnUse">
<stop stop-color="#EB632A"/>
<stop offset="1" stop-color="#FD9113"/>
</linearGradient>
<linearGradient id="paint18_linear_63_394" x1="59.5599" y1="93.2531" x2="59.5599" y2="138.991" gradientUnits="userSpaceOnUse">
<stop stop-color="#EB632A"/>
<stop offset="1" stop-color="#FD9113"/>
</linearGradient>
<linearGradient id="paint19_linear_63_394" x1="104.621" y1="108.709" x2="104.621" y2="142" gradientUnits="userSpaceOnUse">
<stop stop-color="#DB4427"/>
<stop offset="1" stop-color="#ED6635"/>
</linearGradient>
<linearGradient id="paint20_linear_63_394" x1="96.679" y1="98.8537" x2="96.679" y2="142.004" gradientUnits="userSpaceOnUse">
<stop stop-color="#EB632A"/>
<stop offset="1" stop-color="#FD9113"/>
</linearGradient>
<linearGradient id="paint21_linear_63_394" x1="129.176" y1="83.0441" x2="129.176" y2="94.4696" gradientUnits="userSpaceOnUse">
<stop stop-color="#EB632A"/>
<stop offset="1" stop-color="#FD9113"/>
</linearGradient>
<clipPath id="clip0_63_394">
<rect width="131.878" height="132" fill="white" transform="translate(10 10)"/>
</clipPath>
</defs>
</svg>
