<svg width="100" height="100" viewBox="0 0 100 100" fill="none" xmlns="http://www.w3.org/2000/svg">
    <path
        d="M9.57323 77.9508C13.7607 83.7753 19.1321 88.6489 25.3351 92.252C31.5381 95.8551 38.4327 98.1062 45.5668 98.8579C41.8964 93.3346 36.5613 88.2532 29.9008 84.3845C23.2403 80.5159 16.1867 78.4027 9.57323 77.9508Z"
        fill="url(#paint0_linear)" />
    <path
        d="M38.8507 68.9805C26.0185 61.5254 12.1297 59.6255 2.19191 62.9818C3.15128 66.1526 4.41654 69.2226 5.96983 72.1486C14.6041 71.9487 24.0313 74.2937 32.8033 79.3886C41.5754 84.4835 48.2846 91.5153 52.3901 99.1165C55.7032 99.0148 58.9986 98.5928 62.2305 97.8566C60.2214 87.5627 51.6795 76.4372 38.8507 68.9805Z"
        fill="url(#paint1_linear)" />
    <path
        d="M100 38.7201C98.3685 32.084 95.4165 25.8447 91.3202 20.3748C87.2239 14.9048 82.0673 10.3164 76.1584 6.88349C70.2495 3.45059 63.7094 1.24361 56.9287 0.394327C50.1479 -0.454959 43.2655 0.0708667 36.6925 1.94041C47.6735 3.28427 59.8623 7.40655 71.8159 14.3509C83.7695 21.2953 93.3966 29.8406 100 38.7201Z"
        fill="url(#paint2_linear)" />
    <path
        d="M84.0232 63.0577C78.4025 53.7229 68.7738 44.7846 56.9125 37.8939C45.0513 31.0033 32.5198 27.0675 21.6362 26.8071C12.0612 26.5803 4.87495 29.3638 1.92518 34.4419C1.90838 34.4721 1.88486 34.5007 1.86638 34.5309C1.60097 35.4834 1.37251 36.4375 1.16422 37.395C5.28314 35.769 10.0555 34.8635 15.3621 34.7627C27.1628 34.541 40.3696 38.3156 52.5567 45.396C64.7439 52.4765 74.5725 62.0834 80.2234 72.4412C82.7566 77.1077 84.3373 81.702 84.9639 86.0914C85.6929 85.4397 86.4085 84.766 87.1023 84.0656C87.1208 84.0336 87.1325 84 87.151 83.9664C90.1008 78.8833 88.9602 71.2636 84.0232 63.0577Z"
        fill="url(#paint3_linear)" />
    <path
        d="M47.8884 53.4254C29.7245 42.8728 9.65227 41.2198 0 48.5842C0.0189591 50.8892 0.195187 53.1903 0.527462 55.4714C3.36682 54.6107 6.29318 54.0687 9.25247 53.8554C20.0386 53.0441 31.9301 56.0493 42.7213 62.3218C53.5125 68.5942 62.0191 77.4402 66.6588 87.205C67.9412 89.8801 68.9193 92.6907 69.5749 95.5839C71.7216 94.7424 73.8088 93.7563 75.8222 92.6325C77.4382 80.5982 66.0574 63.9797 47.8884 53.4254Z"
        fill="url(#paint4_linear)" />
    <path
        d="M93.3659 47.4337C87.6814 38.109 77.9687 29.1455 66.0235 22.2095C54.0782 15.2735 41.4981 11.2755 30.5792 10.9547C22.2557 10.7145 15.8085 12.7319 12.4657 16.5434C26.346 14.1917 44.6544 18.1443 62.4001 28.4534C80.1457 38.7625 92.6537 52.7117 97.4815 65.9336C99.1361 61.1444 97.6965 54.5444 93.3659 47.4337Z"
        fill="url(#paint5_linear)" />
    <defs>
        <linearGradient id="paint0_linear" x1="81" y1="13" x2="15" y2="99" gradientUnits="userSpaceOnUse">
            <stop stop-color="#F9A43A" />
            <stop offset="0.25" stop-color="#FFC45E" />
            <stop offset="0.53125" stop-color="#93EEEF" />
            <stop offset="0.760417" stop-color="#81F4FE" />
            <stop offset="1" stop-color="#3BDBFB" />
        </linearGradient>
        <linearGradient id="paint1_linear" x1="81" y1="13" x2="15" y2="99" gradientUnits="userSpaceOnUse">
            <stop stop-color="#F9A43A" />
            <stop offset="0.25" stop-color="#FFC45E" />
            <stop offset="0.53125" stop-color="#93EEEF" />
            <stop offset="0.760417" stop-color="#81F4FE" />
            <stop offset="1" stop-color="#3BDBFB" />
        </linearGradient>
        <linearGradient id="paint2_linear" x1="81" y1="13" x2="15" y2="99" gradientUnits="userSpaceOnUse">
            <stop stop-color="#F9A43A" />
            <stop offset="0.25" stop-color="#FFC45E" />
            <stop offset="0.53125" stop-color="#93EEEF" />
            <stop offset="0.760417" stop-color="#81F4FE" />
            <stop offset="1" stop-color="#3BDBFB" />
        </linearGradient>
        <linearGradient id="paint3_linear" x1="81" y1="13" x2="15" y2="99" gradientUnits="userSpaceOnUse">
            <stop stop-color="#F9A43A" />
            <stop offset="0.25" stop-color="#FFC45E" />
            <stop offset="0.53125" stop-color="#93EEEF" />
            <stop offset="0.760417" stop-color="#81F4FE" />
            <stop offset="1" stop-color="#3BDBFB" />
        </linearGradient>
        <linearGradient id="paint4_linear" x1="81" y1="13" x2="15" y2="99" gradientUnits="userSpaceOnUse">
            <stop stop-color="#F9A43A" />
            <stop offset="0.25" stop-color="#FFC45E" />
            <stop offset="0.53125" stop-color="#93EEEF" />
            <stop offset="0.760417" stop-color="#81F4FE" />
            <stop offset="1" stop-color="#3BDBFB" />
        </linearGradient>
        <linearGradient id="paint5_linear" x1="81" y1="13" x2="15" y2="99" gradientUnits="userSpaceOnUse">
            <stop stop-color="#F9A43A" />
            <stop offset="0.25" stop-color="#FFC45E" />
            <stop offset="0.53125" stop-color="#93EEEF" />
            <stop offset="0.760417" stop-color="#81F4FE" />
            <stop offset="1" stop-color="#3BDBFB" />
        </linearGradient>
    </defs>
</svg>
