<svg width="253" height="250" viewBox="0 0 253 250" fill="none" xmlns="http://www.w3.org/2000/svg">
<g clip-path="url(#clip0_687_794)">
<path d="M24.1464 196.614C34.7084 211.305 48.2565 223.598 63.9023 232.686C79.5482 241.774 96.9383 247.452 114.932 249.348C105.675 235.417 92.218 222.6 75.4183 212.842C58.6186 203.084 40.8275 197.754 24.1464 196.614Z" fill="url(#paint0_linear_687_794)"/>
<path d="M97.9925 173.988C65.6261 155.185 30.5947 150.393 5.52863 158.858C7.94845 166.856 11.1398 174.599 15.0576 181.979C36.8358 181.475 60.6138 187.39 82.7394 200.241C104.865 213.092 121.787 230.828 132.143 250C140.499 249.743 148.811 248.679 156.963 246.822C151.896 220.858 130.35 192.796 97.9925 173.988Z" fill="url(#paint1_linear_687_794)"/>
<path d="M252.229 97.6632C248.113 80.925 240.668 65.1877 230.336 51.3909C220.004 37.5942 206.997 26.0209 192.093 17.3621C177.189 8.70339 160.693 3.13674 143.59 0.994603C126.487 -1.14754 109.128 0.178744 92.5489 4.89425C120.246 8.28385 150.99 18.6814 181.14 36.1972C211.291 53.7129 235.573 75.2665 252.229 97.6632Z" fill="url(#paint2_linear_687_794)"/>
<path d="M211.93 159.049C197.753 135.505 173.467 112.959 143.55 95.5795C113.632 78.1994 82.0242 68.2721 54.5727 67.6154C30.4219 67.0434 12.296 74.0641 4.85585 86.8725C4.81348 86.9488 4.75416 87.0208 4.70755 87.0971C4.03811 89.4994 3.46188 91.906 2.93649 94.3211C13.3256 90.2197 25.3629 87.936 38.7476 87.6818C68.5124 87.1225 101.824 96.643 132.563 114.502C163.302 132.361 188.093 156.592 202.346 182.717C208.736 194.488 212.723 206.076 214.303 217.147C216.142 215.503 217.947 213.804 219.697 212.037C219.743 211.957 219.773 211.872 219.82 211.787C227.26 198.966 224.383 179.747 211.93 159.049Z" fill="url(#paint3_linear_687_794)"/>
<path d="M120.788 134.754C74.9736 108.137 24.3458 103.968 0 122.543C0.04782 128.357 0.492317 134.161 1.3304 139.915C8.49209 137.744 15.8732 136.377 23.3373 135.839C50.5431 133.792 80.5368 141.372 107.755 157.193C134.974 173.014 156.43 195.326 168.132 219.956C171.367 226.703 173.834 233.792 175.488 241.09C180.902 238.967 186.167 236.48 191.245 233.646C195.321 203.292 166.616 161.375 120.788 134.754Z" fill="url(#paint4_linear_687_794)"/>
<path d="M235.496 119.641C221.158 96.1216 196.659 73.513 166.53 56.0185C136.401 38.5239 104.67 28.4399 77.1295 27.6306C56.1352 27.0247 39.8736 32.1133 31.4419 41.7271C66.4522 35.7953 112.631 45.7649 157.391 71.7674C202.15 97.7698 233.699 132.954 245.876 166.303C250.05 154.224 246.419 137.577 235.496 119.641Z" fill="url(#paint5_linear_687_794)"/>
</g>
<defs>
<linearGradient id="paint0_linear_687_794" x1="167.969" y1="50.7815" x2="52.0834" y2="250" gradientUnits="userSpaceOnUse">
<stop offset="0.0001" stop-color="#A4D756"/>
<stop offset="1" stop-color="#00B6E7"/>
</linearGradient>
<linearGradient id="paint1_linear_687_794" x1="167.969" y1="50.7811" x2="52.0834" y2="250" gradientUnits="userSpaceOnUse">
<stop offset="0.0001" stop-color="#A4D756"/>
<stop offset="1" stop-color="#00B6E7"/>
</linearGradient>
<linearGradient id="paint2_linear_687_794" x1="167.969" y1="50.7813" x2="52.0834" y2="250" gradientUnits="userSpaceOnUse">
<stop offset="0.0001" stop-color="#A4D756"/>
<stop offset="1" stop-color="#00B6E7"/>
</linearGradient>
<linearGradient id="paint3_linear_687_794" x1="167.969" y1="50.7815" x2="52.0834" y2="250" gradientUnits="userSpaceOnUse">
<stop offset="0.0001" stop-color="#A4D756"/>
<stop offset="1" stop-color="#00B6E7"/>
</linearGradient>
<linearGradient id="paint4_linear_687_794" x1="167.969" y1="50.7817" x2="52.0834" y2="250" gradientUnits="userSpaceOnUse">
<stop offset="0.0001" stop-color="#A4D756"/>
<stop offset="1" stop-color="#00B6E7"/>
</linearGradient>
<linearGradient id="paint5_linear_687_794" x1="167.969" y1="50.7811" x2="52.0834" y2="250" gradientUnits="userSpaceOnUse">
<stop offset="0.0001" stop-color="#A4D756"/>
<stop offset="1" stop-color="#00B6E7"/>
</linearGradient>
<clipPath id="clip0_687_794">
<rect width="253" height="250" fill="white"/>
</clipPath>
</defs>
</svg>
