<svg width="50" height="50" viewBox="0 0 50 50" fill="none" xmlns="http://www.w3.org/2000/svg">
<circle cx="25" cy="25" r="25" fill="white"/>
<path d="M26.0867 35.1406L20.4087 38.4189L23.9575 40.4678L29.6355 37.1895L26.0867 35.1406Z" fill="#313CCF"/>
<path d="M31.8052 25.2852L12.6047 36.3706L16.1699 38.4289L35.3704 27.3435L31.8052 25.2852Z" fill="#313CCF"/>
<path d="M37.4632 13.8367L33.2197 11.3867V21.3805L37.4632 23.8305V13.8367Z" fill="#939AF4"/>
<path d="M29.6392 37.1914L23.9612 40.4697V44.5675L29.6392 41.2892V37.1914Z" fill="#5B65F0"/>
<path d="M23.9575 40.4747L20.4087 38.4258V42.5235L23.9575 44.5724V40.4747Z" fill="#939AF4"/>
<path d="M35.3189 27.3594L18.2847 37.194V42.1114L35.3189 32.2767V27.3594Z" fill="#5B65F0"/>
<path d="M18.2842 37.1895L14.7354 35.1406L14.7354 40.058L18.2842 42.1068V37.1895Z" fill="#939AF4"/>
<path d="M33.2746 17.9219L8.05225 32.4841L11.9601 34.7403L37.1825 20.1781L33.2746 17.9219Z" fill="#313CCF"/>
<path d="M12.602 27.3288L8 24.6719V36.1457L12.602 38.8026V27.3288Z" fill="#939AF4"/>
<path d="M8.00317 24.6718L11.5501 22.6445L16.1552 25.3078L12.6064 27.3566L8.00317 24.6718Z" fill="#313CCF"/>
<path d="M37.4512 8.91797L33.1838 11.3818L36.7327 13.4306L41 10.9669L37.4512 8.91797Z" fill="#313CCF"/>
<path d="M40.9946 17.5252V10.9688L36.7361 13.4274V19.9839L40.9946 17.5252Z" fill="#5B65F0"/>
<path d="M40.9949 17.5273L12.6047 33.9184V38.8357L40.9949 22.4446V17.5273Z" fill="#5B65F0"/>
<path d="M16.1572 31.8612V25.3047L12.6084 27.3536V33.91L16.1572 31.8612Z" fill="#5B65F0"/>
</svg>
