<svg width="32" height="32" viewBox="0 0 32 32" fill="none" xmlns="http://www.w3.org/2000/svg">
<circle cx="16" cy="16" r="16" fill="white"/>
<path d="M14.7953 15.9963L24.5058 21.5632C24.8412 21.757 25.2735 21.5111 25.2735 21.1236V10.869C25.2735 10.4814 24.8487 10.2355 24.5058 10.4293L14.7953 15.9963Z" fill="#31CB9E"/>
<path d="M23.9394 8.02958L17.493 3.1035C17.1949 2.87993 16.7627 3.03643 16.6807 3.4016L14.3257 14.3716L23.8873 8.87915C24.2077 8.69286 24.2375 8.25314 23.9394 8.02958Z" fill="#31CB9E"/>
<path d="M17.493 28.8965L23.9543 23.963C24.245 23.7394 24.2152 23.2997 23.9021 23.1134L14.3257 17.6284L16.6882 28.5984C16.7553 28.9636 17.1875 29.1201 17.493 28.8965Z" fill="#31CB9E"/>
<path d="M12.3062 15.9962L14.8474 4.17665C14.9443 3.71459 14.4152 3.37178 14.0351 3.66987L7.52912 8.64067C7.19376 8.89404 7 9.29649 7 9.71382V22.301C7 22.7183 7.19376 23.1208 7.52912 23.3742L14.0351 28.3375C14.4077 28.6207 14.9443 28.2853 14.8474 27.8307L12.3062 15.9962Z" fill="#31CB9E"/>
</svg>
