<?xml version="1.0" encoding="UTF-8"?>
<svg id="Layer_2" data-name="Layer 2" xmlns="http://www.w3.org/2000/svg" viewBox="0 0 419.06 389.74">
  <defs>
    <style>
      .cls-1 {
        fill: #ffdb57;
        stroke-width: 0px;
      }
    </style>
  </defs>
  <g id="Layer_1-2" data-name="Layer 1">
    <g>
      <path class="cls-1" d="M2.56,209.13c-1.53,120.26,88.46,181.48,206.2,180.6,116.04-.87,210.44-67.87,208.33-183.7-39.76,165.77-379.32,164.84-414.53,3.1Z"/>
      <path class="cls-1" d="M205.84,0C76.13.98-.6,80.78,0,160.82c.6,80.05,78.45,151.53,208.17,150.56,129.73-.98,211.49-73.65,210.89-153.69C418.45,77.64,335.58-.96,205.84,0ZM30.99,113.84c-3.37,0-4.57-2.73-4.57-6.1s4.25-6.1,7.62-6.1,4.57,2.73,4.57,6.1-4.25,6.1-7.62,6.1ZM149.87,43.8c-82.29,22.79-102.11,56.33-109.73,50.23-7.98-6.38,37.08-56.04,103.72-74.75,66.64-18.71,130.86-6.11,133.62,3.73,2.76,9.84-45.23-2.02-127.61,20.79Z"/>
    </g>
  </g>
</svg>