<svg width="32" height="32" viewBox="0 0 32 32" fill="none" xmlns="http://www.w3.org/2000/svg">
<circle cx="16" cy="16" r="16" fill="black"/>
<path d="M12.8765 12.4206C13.8369 13.3131 14.5935 14.0018 15.4083 14.7584C11.9065 17.1252 15.1658 20.9374 17.8042 18.6967C18.7258 17.7751 18.7064 16.4753 17.746 15.5829C15.8836 13.866 14.0018 12.1684 12.149 10.4418C10.7037 8.83157 8.15256 10.0344 8.30776 12.149C8.30776 16.6208 8.39506 21.0926 8.32716 25.5547C6.65873 25.9718 5.0388 24.3616 5.097 22.6155C5.097 18.9974 5.0388 15.3695 5.1164 11.7513C5.0776 7.01764 11.0626 4.612 14.3025 7.91976C16.3201 9.81129 18.2795 11.7804 20.3651 13.5944C22.2566 15.2434 22.1402 19.172 19.9286 21.209C13.7884 26.2822 6.85273 17.552 12.8765 12.4206Z" fill="white"/>
<path d="M18.8421 11.1402C18.0467 10.4224 17.3289 9.78219 16.6305 9.14198C19.2107 4.57319 26.9515 6.32892 26.8836 11.6737C26.9418 15.3889 26.8933 19.0944 26.8351 22.8095C26.806 24.5459 25.0987 25.836 23.6728 25.4674C23.6825 21.1411 23.6922 16.7857 23.7504 12.4497C23.7698 11.2372 23.44 10.2866 22.2857 9.79189C20.8113 9.13228 19.851 10.1605 18.8421 11.1402Z" fill="#50B0E4"/>
</svg>
