<?xml version="1.0" encoding="UTF-8"?>
<svg xmlns="http://www.w3.org/2000/svg" xmlns:xlink="http://www.w3.org/1999/xlink" width="200px" height="px" viewBox="0 0 200 200" version="1.1">
<defs>
<filter id="alpha" filterUnits="objectBoundingBox" x="0%" y="0%" width="100%" height="100%">
  <feColorMatrix type="matrix" in="SourceGraphic" values="0 0 0 0 1 0 0 0 0 1 0 0 0 0 1 0 0 0 1 0"/>
</filter>
<mask id="mask0">
  <g filter="url(#alpha)">
<rect x="0" y="0" width="200" height="200" style="fill:rgb(0%,0%,0%);fill-opacity:0.996078;stroke:none;"/>
  </g>
</mask>
<clipPath id="clip1">
  <rect x="0" y="0" width="200" height="200"/>
</clipPath>
<g id="surface5" clip-path="url(#clip1)">
<path style=" stroke:none;fill-rule:evenodd;fill:rgb(7.45098%,9.019608%,20.784314%);fill-opacity:1;" d="M 91.25 -0.179688 C 96.964844 -0.179688 102.679688 -0.179688 108.394531 -0.179688 C 146.390625 4.261719 173.949219 23.546875 191.070312 57.679688 C 195.785156 68.445312 198.703125 79.636719 199.820312 91.25 C 199.820312 96.964844 199.820312 102.679688 199.820312 108.394531 C 195.382812 146.390625 176.097656 173.949219 141.964844 191.070312 C 131.199219 195.785156 120.007812 198.703125 108.394531 199.820312 C 102.679688 199.820312 96.964844 199.820312 91.25 199.820312 C 53.253906 195.382812 25.691406 176.097656 8.570312 141.964844 C 3.855469 131.199219 0.941406 120.007812 -0.179688 108.394531 C -0.179688 102.679688 -0.179688 96.964844 -0.179688 91.25 C 4.261719 53.253906 23.546875 25.691406 57.679688 8.570312 C 68.445312 3.855469 79.636719 0.941406 91.25 -0.179688 Z M 91.25 -0.179688 "/>
</g>
</defs>
<g id="surface1">
<use xlink:href="#surface5" mask="url(#mask0)"/>
<path style=" stroke:none;fill-rule:evenodd;fill:rgb(70.196078%,70.588235%,74.509804%);fill-opacity:1;" d="M 70.535156 48.035156 C 66.363281 47.988281 62.195312 48.105469 58.035156 48.394531 C 60.390625 47.847656 62.832031 47.609375 65.355469 47.679688 C 67.148438 47.679688 68.875 47.796875 70.535156 48.035156 Z M 70.535156 48.035156 "/>
<path style=" stroke:none;fill-rule:evenodd;fill:rgb(99.215686%,99.215686%,99.215686%);fill-opacity:1;" d="M 70.535156 48.035156 C 71.410156 47.964844 72.242188 48.082031 73.035156 48.394531 C 73.871094 48.941406 74.824219 49.179688 75.894531 49.105469 C 76.609375 49.667969 77.445312 50.023438 78.394531 50.179688 C 82.25 52.046875 85.820312 54.371094 89.105469 57.144531 C 95.722656 62.890625 102.269531 68.726562 108.75 74.644531 C 115.539062 79.917969 122.027344 85.574219 128.214844 91.605469 C 128.605469 92.171875 128.902344 92.765625 129.105469 93.394531 C 129.082031 93.9375 129.320312 94.296875 129.820312 94.464844 C 129.820312 94.582031 129.820312 94.703125 129.820312 94.820312 C 129.792969 95.945312 130.148438 96.898438 130.894531 97.679688 C 131.34375 102.441406 131.34375 107.203125 130.894531 111.964844 C 130.550781 113.007812 130.3125 114.082031 130.179688 115.179688 C 129.84375 115.558594 129.726562 116.035156 129.820312 116.605469 C 129.320312 116.777344 129.082031 117.132812 129.105469 117.679688 C 124.898438 126.289062 118.230469 132.125 109.105469 135.179688 C 108.183594 135.007812 107.472656 135.246094 106.964844 135.894531 C 91.035156 138.933594 78.535156 133.816406 69.464844 120.535156 C 68.417969 118.585938 67.585938 116.5625 66.964844 114.464844 C 66.945312 113.1875 66.707031 111.996094 66.25 110.894531 C 66.058594 110.316406 65.9375 109.71875 65.894531 109.105469 C 65.863281 105.648438 65.984375 102.195312 66.25 98.75 C 66.933594 97.417969 67.410156 95.988281 67.679688 94.464844 C 67.679688 94.34375 67.679688 94.226562 67.679688 94.105469 C 68.179688 93.9375 68.417969 93.582031 68.394531 93.035156 C 68.859375 91.863281 69.515625 90.792969 70.355469 89.820312 C 73.464844 86.832031 76.679688 83.976562 80 81.25 C 84.765625 85.242188 89.464844 89.289062 94.105469 93.394531 C 91.714844 95.574219 89.273438 97.71875 86.785156 99.820312 C 83.695312 106.441406 85.0625 111.976562 90.894531 116.429688 C 96.597656 119.59375 102.191406 119.414062 107.679688 115.894531 C 108.988281 115.296875 109.941406 114.34375 110.535156 113.035156 C 111.269531 111.523438 111.925781 109.976562 112.5 108.394531 C 113.574219 104.414062 112.5625 101.140625 109.464844 98.570312 C 97.558594 88.570312 85.65625 78.570312 73.75 68.570312 C 70.371094 65.835938 66.5625 64.945312 62.320312 65.894531 C 61.171875 65.835938 60.21875 66.195312 59.464844 66.964844 C 55.792969 68.550781 53.472656 71.289062 52.5 75.179688 C 52.320312 82.082031 52.261719 88.988281 52.320312 95.894531 C 52.320312 114.820312 52.320312 133.75 52.320312 152.679688 C 50.535156 152.679688 48.75 152.679688 46.964844 152.679688 C 46.246094 152.171875 45.410156 151.933594 44.464844 151.964844 C 39.871094 150.289062 36.597656 147.191406 34.644531 142.679688 C 34.019531 141.445312 33.664062 140.132812 33.570312 138.75 C 33.332031 116.84375 33.332031 94.941406 33.570312 73.035156 C 35.683594 63.128906 41.21875 55.867188 50.179688 51.25 C 52.101562 50.824219 53.886719 50.109375 55.535156 49.105469 C 56.484375 49.140625 57.316406 48.902344 58.035156 48.394531 C 62.195312 48.105469 66.363281 47.988281 70.535156 48.035156 Z M 70.535156 48.035156 "/>
<path style=" stroke:none;fill-rule:evenodd;fill:rgb(21.960784%,45.882353%,63.137255%);fill-opacity:1;" d="M 137.679688 48.035156 C 133.386719 47.984375 129.101562 48.105469 124.820312 48.394531 C 125.339844 48.105469 125.933594 47.929688 126.605469 47.855469 C 130.359375 47.5625 134.050781 47.621094 137.679688 48.035156 Z M 137.679688 48.035156 "/>
<path style=" stroke:none;fill-rule:evenodd;fill:rgb(29.411765%,65.490196%,85.490196%);fill-opacity:1;" d="M 137.679688 48.035156 C 139.15625 48.046875 140.585938 48.285156 141.964844 48.75 C 143.90625 49.597656 145.929688 50.3125 148.035156 50.894531 C 154.5 53.847656 159.558594 58.371094 163.214844 64.464844 C 164.308594 66.496094 165.082031 68.640625 165.535156 70.894531 C 165.558594 71.9375 165.796875 72.890625 166.25 73.75 C 166.367188 95.417969 166.25 117.085938 165.894531 138.75 C 164.660156 144.625 161.328125 148.789062 155.894531 151.25 C 154.902344 151.34375 154.070312 151.699219 153.394531 152.320312 C 152.328125 152.488281 151.257812 152.605469 150.179688 152.679688 C 148.867188 152.679688 147.558594 152.679688 146.25 152.679688 C 146.25 134.703125 146.25 116.726562 146.25 98.75 C 146.308594 90.652344 146.25 82.558594 146.070312 74.464844 C 144.078125 69.742188 140.5625 66.828125 135.535156 65.714844 C 131.152344 64.898438 127.222656 65.851562 123.75 68.570312 C 121.671875 70.351562 119.648438 72.195312 117.679688 74.105469 C 112.628906 70.1875 107.628906 66.199219 102.679688 62.144531 C 106.144531 59.03125 109.71875 56.054688 113.394531 53.214844 C 115.535156 51.816406 117.796875 50.6875 120.179688 49.820312 C 121.84375 49.621094 123.390625 49.144531 124.820312 48.394531 C 129.101562 48.105469 133.386719 47.984375 137.679688 48.035156 Z M 137.679688 48.035156 "/>
<path style=" stroke:none;fill-rule:evenodd;fill:rgb(47.45098%,48.235294%,54.901961%);fill-opacity:1;" d="M 73.035156 48.394531 C 74.082031 48.417969 75.035156 48.652344 75.894531 49.105469 C 74.824219 49.179688 73.871094 48.941406 73.035156 48.394531 Z M 73.035156 48.394531 "/>
<path style=" stroke:none;fill-rule:evenodd;fill:rgb(60.784314%,61.176471%,66.27451%);fill-opacity:1;" d="M 58.035156 48.394531 C 57.316406 48.902344 56.484375 49.140625 55.535156 49.105469 C 56.253906 48.597656 57.089844 48.359375 58.035156 48.394531 Z M 58.035156 48.394531 "/>
<path style=" stroke:none;fill-rule:evenodd;fill:rgb(18.039216%,36.078431%,52.156863%);fill-opacity:1;" d="M 141.964844 48.75 C 144.179688 49.050781 146.203125 49.765625 148.035156 50.894531 C 145.929688 50.3125 143.90625 49.597656 141.964844 48.75 Z M 141.964844 48.75 "/>
<path style=" stroke:none;fill-rule:evenodd;fill:rgb(34.901961%,35.686275%,44.313725%);fill-opacity:1;" d="M 75.894531 49.105469 C 76.960938 48.988281 77.792969 49.34375 78.394531 50.179688 C 77.445312 50.023438 76.609375 49.667969 75.894531 49.105469 Z M 75.894531 49.105469 "/>
<path style=" stroke:none;fill-rule:evenodd;fill:rgb(20%,41.568627%,58.039216%);fill-opacity:1;" d="M 124.820312 48.394531 C 123.390625 49.144531 121.84375 49.621094 120.179688 49.820312 C 121.609375 49.066406 123.15625 48.589844 124.820312 48.394531 Z M 124.820312 48.394531 "/>
<path style=" stroke:none;fill-rule:evenodd;fill:rgb(69.411765%,69.803922%,73.72549%);fill-opacity:1;" d="M 55.535156 49.105469 C 53.886719 50.109375 52.101562 50.824219 50.179688 51.25 C 51.777344 50.121094 53.5625 49.40625 55.535156 49.105469 Z M 55.535156 49.105469 "/>
<path style=" stroke:none;fill-rule:evenodd;fill:rgb(41.176471%,41.960784%,49.411765%);fill-opacity:1;" d="M 62.320312 65.894531 C 61.453125 66.382812 60.5 66.738281 59.464844 66.964844 C 60.21875 66.195312 61.171875 65.835938 62.320312 65.894531 Z M 62.320312 65.894531 "/>
<path style=" stroke:none;fill-rule:evenodd;fill:rgb(18.823529%,38.039216%,54.117647%);fill-opacity:1;" d="M 165.535156 70.894531 C 166.085938 71.726562 166.324219 72.679688 166.25 73.75 C 165.796875 72.890625 165.558594 71.9375 165.535156 70.894531 Z M 165.535156 70.894531 "/>
<path style=" stroke:none;fill-rule:evenodd;fill:rgb(54.117647%,54.901961%,60.784314%);fill-opacity:1;" d="M 68.394531 93.035156 C 68.417969 93.582031 68.179688 93.9375 67.679688 94.105469 C 67.652344 93.5625 67.890625 93.203125 68.394531 93.035156 Z M 68.394531 93.035156 "/>
<path style=" stroke:none;fill-rule:evenodd;fill:rgb(49.803922%,50.588235%,56.862745%);fill-opacity:1;" d="M 129.105469 93.394531 C 129.609375 93.5625 129.847656 93.917969 129.820312 94.464844 C 129.320312 94.296875 129.082031 93.9375 129.105469 93.394531 Z M 129.105469 93.394531 "/>
<path style=" stroke:none;fill-rule:evenodd;fill:rgb(71.764706%,72.156863%,75.686275%);fill-opacity:1;" d="M 67.679688 94.464844 C 67.410156 95.988281 66.933594 97.417969 66.25 98.75 C 66.378906 97.171875 66.855469 95.746094 67.679688 94.464844 Z M 67.679688 94.464844 "/>
<path style=" stroke:none;fill-rule:evenodd;fill:rgb(67.058824%,67.45098%,71.764706%);fill-opacity:1;" d="M 129.820312 94.820312 C 130.566406 95.601562 130.921875 96.554688 130.894531 97.679688 C 130.148438 96.898438 129.792969 95.945312 129.820312 94.820312 Z M 129.820312 94.820312 "/>
<path style=" stroke:none;fill-rule:evenodd;fill:rgb(66.27451%,67.058824%,71.372549%);fill-opacity:1;" d="M 130.894531 97.679688 C 132.175781 102.363281 132.296875 107.125 131.25 111.964844 C 131.132812 111.964844 131.011719 111.964844 130.894531 111.964844 C 131.34375 107.203125 131.34375 102.441406 130.894531 97.679688 Z M 130.894531 97.679688 "/>
<path style=" stroke:none;fill-rule:evenodd;fill:rgb(53.333333%,54.117647%,60%);fill-opacity:1;" d="M 66.25 98.75 C 65.984375 102.195312 65.863281 105.648438 65.894531 109.105469 C 65.65625 107.804688 65.535156 106.433594 65.535156 105 C 65.480469 102.832031 65.714844 100.746094 66.25 98.75 Z M 66.25 98.75 "/>
<path style=" stroke:none;fill-rule:evenodd;fill:rgb(62.352941%,62.745098%,67.843137%);fill-opacity:1;" d="M 66.25 110.894531 C 66.707031 111.996094 66.945312 113.1875 66.964844 114.464844 C 66.425781 113.378906 66.1875 112.1875 66.25 110.894531 Z M 66.25 110.894531 "/>
<path style=" stroke:none;fill-rule:evenodd;fill:rgb(35.294118%,36.470588%,44.705882%);fill-opacity:1;" d="M 130.894531 111.964844 C 131.011719 111.964844 131.132812 111.964844 131.25 111.964844 C 131.238281 113.183594 130.882812 114.253906 130.179688 115.179688 C 130.3125 114.082031 130.550781 113.007812 130.894531 111.964844 Z M 130.894531 111.964844 "/>
<path style=" stroke:none;fill-rule:evenodd;fill:rgb(74.509804%,74.901961%,78.039216%);fill-opacity:1;" d="M 110.535156 113.035156 C 109.941406 114.34375 108.988281 115.296875 107.679688 115.894531 C 108.511719 114.820312 109.464844 113.867188 110.535156 113.035156 Z M 110.535156 113.035156 "/>
<path style=" stroke:none;fill-rule:evenodd;fill:rgb(49.411765%,50.196078%,56.470588%);fill-opacity:1;" d="M 129.820312 116.605469 C 129.847656 117.152344 129.609375 117.507812 129.105469 117.679688 C 129.082031 117.132812 129.320312 116.777344 129.820312 116.605469 Z M 129.820312 116.605469 "/>
<path style=" stroke:none;fill-rule:evenodd;fill:rgb(69.411765%,69.803922%,73.72549%);fill-opacity:1;" d="M 109.105469 135.179688 C 108.464844 135.519531 107.75 135.757812 106.964844 135.894531 C 107.472656 135.246094 108.183594 135.007812 109.105469 135.179688 Z M 109.105469 135.179688 "/>
<path style=" stroke:none;fill-rule:evenodd;fill:rgb(57.647059%,58.431373%,63.921569%);fill-opacity:1;" d="M 52.320312 95.894531 C 52.679688 114.878906 52.796875 133.925781 52.679688 153.035156 C 50.703125 153.148438 48.800781 153.03125 46.964844 152.679688 C 48.75 152.679688 50.535156 152.679688 52.320312 152.679688 C 52.320312 133.75 52.320312 114.820312 52.320312 95.894531 Z M 52.320312 95.894531 "/>
<path style=" stroke:none;fill-rule:evenodd;fill:rgb(18.431373%,37.254902%,52.941176%);fill-opacity:1;" d="M 146.25 98.75 C 146.25 116.726562 146.25 134.703125 146.25 152.679688 C 147.558594 152.679688 148.867188 152.679688 150.179688 152.679688 C 148.820312 153.03125 147.394531 153.148438 145.894531 153.035156 C 145.773438 134.878906 145.894531 116.785156 146.25 98.75 Z M 146.25 98.75 "/>
<path style=" stroke:none;fill-rule:evenodd;fill:rgb(54.509804%,54.901961%,61.176471%);fill-opacity:1;" d="M 44.464844 151.964844 C 45.410156 151.933594 46.246094 152.171875 46.964844 152.679688 C 46.015625 152.710938 45.183594 152.472656 44.464844 151.964844 Z M 44.464844 151.964844 "/>
<path style=" stroke:none;fill-rule:evenodd;fill:rgb(17.647059%,34.901961%,50.588235%);fill-opacity:1;" d="M 155.894531 151.25 C 155.214844 151.871094 154.382812 152.230469 153.394531 152.320312 C 154.070312 151.699219 154.902344 151.34375 155.894531 151.25 Z M 155.894531 151.25 "/>
</g>
</svg>
