<?xml version="1.0" encoding="UTF-8"?>
<svg id="Layer_1" data-name="Layer 1" xmlns="http://www.w3.org/2000/svg" xmlns:xlink="http://www.w3.org/1999/xlink" viewBox="0 0 448.16 586.58">
  <defs>
    <style>
      .cls-1 {
        fill: url(#linear-gradient);
        stroke-width: 0px;
      }
    </style>
    <linearGradient id="linear-gradient" x1="16.28" y1="530.74" x2="431.88" y2="115.13" gradientUnits="userSpaceOnUse">
      <stop offset="0" stop-color="#4536e5"/>
      <stop offset="1" stop-color="#a14ee5"/>
    </linearGradient>
  </defs>
  <path class="cls-1" d="M381.56,484.19h45.68v51.19h-51.19v-45.68c0-1.62-1.32-2.94-2.94-2.94h-45.68v-124.09h0s34.88-34.81,34.88-34.81h0c21.79-28.96,34.66-64.87,34.66-103.78,0-96.57-79.5-174.85-176.52-172.85-90.92,1.87-165.6,75.1-169.12,165.97-1.61,41.55,11.46,80,34.53,110.66,9.95,13.16,21.65,24.94,34.89,34.81v124.09h-45.68c-1.62,0-2.94,1.32-2.94,2.94v45.68H20.93v-51.19h45.68c1.62,0,2.94-1.32,2.94-2.94v-95.03C26.69,345.41,0,287.78,0,224.08,0,100.56,100.49,0,224.08,0s224.08,100.56,224.08,224.08c0,63.7-26.69,121.33-69.55,162.14v95.03c0,1.62,1.32,2.94,2.94,2.94ZM155.48,532.44c0,1.62-1.32,2.94-2.94,2.94h-45.68v51.19h51.19v-45.68c0-1.62,1.32-2.94,2.94-2.94h45.68v-141.87c-18.06-1.83-35.25-6.36-51.19-13.38v149.73ZM292.68,532.44v-149.73c-15.94,7.02-33.13,11.55-51.19,13.38v141.87h45.68c1.62,0,2.94,1.32,2.94,2.94v45.68h51.19v-51.19h-45.68c-1.62,0-2.94-1.32-2.94-2.94Z"/>
</svg>