<svg width="32" height="32" viewBox="0 0 32 32" fill="none" xmlns="http://www.w3.org/2000/svg">
<rect width="32" height="32" rx="15" fill="#00ADE8"/>
<g clip-path="url(#clip0_843_7367)">
<path fill-rule="evenodd" clip-rule="evenodd" d="M9.12042 8.66852C8.79674 6.93528 10.1267 5.33398 11.8899 5.33398C13.4459 5.33398 14.7072 6.59536 14.7072 8.15134V11.6247C15.0965 11.5972 15.4919 11.5832 15.8924 11.5832C16.2772 11.5832 16.6573 11.5962 17.0317 11.6215V8.15134C17.0317 6.59536 18.2931 5.33398 19.8491 5.33398C21.6123 5.33398 22.9422 6.93528 22.6186 8.66852L21.8562 12.7513C24.4728 13.8937 26.4514 15.8778 26.4514 18.3711V19.8795C26.4514 21.9297 25.095 23.6464 23.1987 24.8052C21.2876 25.973 18.7023 26.6673 15.8924 26.6673C13.0825 26.6673 10.4972 25.973 8.58617 24.8052C6.68991 23.6464 5.3335 21.9297 5.3335 19.8795V18.3711C5.3335 15.891 7.29175 13.9145 9.88632 12.7698L9.12042 8.66852ZM20.8791 13.2877L21.7713 8.51029C21.9959 7.30733 21.0729 6.19594 19.8491 6.19594C18.7692 6.19594 17.8937 7.0714 17.8937 8.15134V12.5715C17.6107 12.5352 17.3233 12.5064 17.0317 12.4856C16.6581 12.4588 16.2779 12.4451 15.8924 12.4451C15.4912 12.4451 15.0957 12.46 14.7072 12.4889C14.4158 12.5106 14.1282 12.5403 13.8453 12.5774V8.15134C13.8453 7.0714 12.9698 6.19594 11.8899 6.19594C10.6661 6.19594 9.74306 7.30732 9.96773 8.51029L10.8628 13.3035C8.06457 14.343 6.19545 16.2237 6.19545 18.3711V19.8795C6.19545 23.1523 10.5369 25.8053 15.8924 25.8053C21.2479 25.8053 25.5895 23.1523 25.5895 19.8795V18.3711C25.5895 16.2126 23.7012 14.3238 20.8791 13.2877Z" fill="#633001"/>
<path d="M25.5901 19.8796C25.5901 23.1523 21.2485 25.8054 15.893 25.8054C10.5375 25.8054 6.19604 23.1523 6.19604 19.8796V18.3711H25.5901V19.8796Z" fill="#FEDC90"/>
<path fill-rule="evenodd" clip-rule="evenodd" d="M9.96832 8.50967C9.74367 7.3067 10.6667 6.19531 11.8905 6.19531C12.9704 6.19531 13.8459 7.07077 13.8459 8.15072V12.5768C14.5058 12.4901 15.1907 12.4445 15.893 12.4445C16.5791 12.4445 17.2485 12.488 17.8943 12.5708V8.15072C17.8943 7.07077 18.7698 6.19531 19.8497 6.19531C21.0735 6.19531 21.9965 7.3067 21.7719 8.50967L20.8797 13.287C23.7018 14.3232 25.5901 16.212 25.5901 18.3704C25.5901 21.6433 21.2485 24.2963 15.893 24.2963C10.5375 24.2963 6.19604 21.6433 6.19604 18.3704C6.19604 16.223 8.06516 14.3423 10.8634 13.3029L9.96832 8.50967Z" fill="#D1884F"/>
<path d="M13.2008 17.9403C13.2008 18.833 12.7184 19.5565 12.1233 19.5565C11.5283 19.5565 11.0459 18.833 11.0459 17.9403C11.0459 17.0478 11.5283 16.3242 12.1233 16.3242C12.7184 16.3242 13.2008 17.0478 13.2008 17.9403Z" fill="#633001"/>
<path d="M20.6341 17.9403C20.6341 18.833 20.1518 19.5565 19.5567 19.5565C18.9617 19.5565 18.4792 18.833 18.4792 17.9403C18.4792 17.0478 18.9617 16.3242 19.5567 16.3242C20.1518 16.3242 20.6341 17.0478 20.6341 17.9403Z" fill="#633001"/>
</g>
<defs>
<clipPath id="clip0_843_7367">
<rect width="21.3333" height="21.3333" fill="white" transform="translate(5.3335 5.33398)"/>
</clipPath>
</defs>
</svg>
