<svg width="214" height="214" viewBox="0 0 214 214" fill="none" xmlns="http://www.w3.org/2000/svg">
<g clip-path="url(#clip0_802_429)">
<path fill-rule="evenodd" clip-rule="evenodd" d="M16.06 162.775C17.8111 165.624 19.6951 168.39 21.7058 171.063L34.8092 163.498C32.7434 160.862 30.8234 158.116 29.0575 155.271L16.06 162.775V162.775ZM187.78 63.6334C189.366 66.5817 190.788 69.6149 192.042 72.7192L205.146 65.1542C203.832 62.0788 202.375 59.0671 200.777 56.1292L187.78 63.6334ZM195.593 47.575L182.567 55.0959C180.658 52.3233 178.599 49.6574 176.399 47.11L189.591 39.4934C191.717 42.0916 193.72 44.7885 195.593 47.575V47.575ZM24.255 146.497L11.2283 154.018C9.74685 151.005 8.40923 147.925 7.21999 144.786L20.4133 137.168C21.5206 140.346 22.8031 143.461 24.255 146.497V146.497ZM1.63749 90.2734C2.3426 85.7939 3.33436 81.3642 4.60666 77.0117L25.5375 64.9284C23.031 69.7706 20.9644 74.8281 19.3625 80.04L1.63749 90.2734V90.2734ZM38.8483 45.6959C51.595 31.5334 68.6917 21.3667 88.035 17.2975L116.669 0.766707C113.454 0.477887 110.228 0.333298 107 0.333374C64.0617 0.333374 27.05 25.7042 10.1358 62.2725L38.8483 45.6959V45.6959ZM127.465 17.6267C122.142 16.414 116.722 15.6791 111.268 15.4309L132.222 3.33337C136.634 4.40322 140.972 5.75573 145.21 7.38254L127.465 17.6275V17.6267ZM90.1933 212.35C95.7524 213.228 101.372 213.669 107 213.667C152.483 213.667 191.317 185.199 206.657 145.11L182.435 159.094C167.211 181.098 142.607 196.118 114.404 198.372L90.1933 212.35V212.35ZM191.654 142.224L210.934 131.093C211.906 126.88 212.621 122.612 213.074 118.312L196.243 128.028C195.105 132.878 193.57 137.626 191.654 142.224V142.224ZM95.1975 197.914L75.8925 209.059C71.7528 207.799 67.6944 206.286 63.74 204.529L80.5858 194.803C85.3631 196.238 90.25 197.279 95.1975 197.914V197.914ZM4.06249 135.061C3.1444 131.684 2.39404 128.264 1.81416 124.813L15.8417 116.713C16.2149 120.259 16.795 123.78 17.5792 127.258L4.06249 135.061V135.061ZM169.236 39.6984C166.623 37.2817 163.871 35.015 160.99 32.9117L175.006 24.82C177.7 27.0518 180.283 29.4141 182.746 31.8984L169.236 39.6984ZM151.503 26.8417L166.281 18.3092C163.104 16.181 159.815 14.2254 156.427 12.4509L140.5 21.6475C144.279 23.1321 147.955 24.8673 151.503 26.8417V26.8417ZM0.558328 113.989L15.3458 105.452C15.4142 101.338 15.7533 97.2917 16.3458 93.3275L0.425828 102.52C0.268018 106.343 0.312524 110.172 0.559161 113.99L0.558328 113.989ZM43.8083 192.942C46.8067 195.15 49.925 197.205 53.15 199.095L68.5192 190.223C64.9697 188.578 61.5293 186.707 58.2192 184.623L43.8083 192.942V192.942ZM198.603 103.571C198.748 107.481 198.646 111.397 198.297 115.295L213.665 106.423C213.646 102.688 213.433 98.9567 213.027 95.2442L198.603 103.571V103.571ZM211.327 84.6775L197.547 92.6334C197.003 89.1731 196.26 85.7471 195.321 82.3725L208.677 74.6617C209.723 77.9551 210.608 81.2977 211.327 84.6775V84.6775ZM49.2942 178.228L35.525 186.178C32.9609 183.861 30.51 181.423 28.1808 178.871L41.5325 171.162C43.9825 173.661 46.5742 176.021 49.295 178.228H49.2942Z" fill="#B3BDC7"/>
<path d="M106.669 189.169C152.693 189.169 190.003 151.859 190.003 105.836C190.003 59.812 152.693 22.5024 106.669 22.5024C60.6455 22.5024 23.3359 59.812 23.3359 105.836C23.3359 151.859 60.6455 189.169 106.669 189.169Z" fill="#F7931A"/>
<path d="M124.643 93.9426C122.014 104.243 106.129 98.9126 100.978 97.5976L105.632 79.3692C110.783 80.6842 127.387 83.1859 124.643 93.9426ZM121.646 123.372C118.761 134.703 99.6918 128.458 93.4959 126.88L98.6893 106.818C104.863 108.403 124.728 111.573 121.705 123.403L121.646 123.372ZM142.758 94.2392C144.488 83.1601 136.078 77.1701 124.561 73.1109L128.391 58.1151L119.253 55.7751L115.521 70.3834C113.133 69.7701 110.667 69.1917 108.217 68.6217L111.884 53.9217L102.778 51.5601L98.9568 66.5417C97.0074 66.0959 95.0628 65.6292 93.1234 65.1417L80.5376 61.9176L78.0484 71.6817C78.0484 71.6817 84.8468 73.2817 84.6626 73.3734C85.9281 73.5307 87.0813 74.1786 87.8739 75.1776C88.6666 76.1766 89.0354 77.4469 88.9009 78.7151L84.6059 95.7592C84.9276 95.8409 85.2434 95.9426 85.5518 96.0642L84.5893 95.8259L78.4293 119.733C78.1485 120.576 77.5456 121.274 76.7521 121.675C75.9585 122.075 75.0388 122.146 74.1934 121.871C74.3268 121.943 67.5651 120.172 67.5651 120.172L62.9651 130.605L74.8493 133.638L81.3893 135.289L77.5318 150.443L86.6543 152.774L90.4134 137.836C92.8226 138.518 95.2559 139.154 97.6818 139.769L93.8618 154.713L102.984 157.044L106.872 141.907C122.469 144.953 134.172 143.821 139.181 129.757C143.203 118.413 139.106 111.863 130.952 107.548C136.936 106.211 141.474 102.321 142.699 94.2067L142.758 94.2392V94.2392Z" fill="white"/>
</g>
<defs>
<clipPath id="clip0_802_429">
<rect width="214" height="214" fill="white"/>
</clipPath>
</defs>
</svg>
