<svg width="329" height="329" viewBox="0 0 329 329" fill="none" xmlns="http://www.w3.org/2000/svg">
<path d="M328.368 164.471C328.368 255.148 254.86 328.655 164.184 328.655C73.5077 328.655 0 255.148 0 164.471C0 73.7948 73.5077 0.287109 164.184 0.287109C254.86 0.287109 328.368 73.7948 328.368 164.471Z" fill="#F5F5F5"/>
<path d="M81.7445 222.621L153.483 264.62C159.832 268.337 167.691 268.353 174.055 264.661L246.549 222.608C252.849 218.953 256.727 212.22 256.727 204.937V123.248C256.727 115.914 252.796 109.143 246.427 105.507L173.933 64.1159C167.631 60.5174 159.892 60.5327 153.604 64.1562L81.8663 105.493C75.537 109.14 71.6367 115.889 71.6367 123.194V204.991C71.6367 212.245 75.484 218.956 81.7445 222.621Z" fill="#00E28D"/>
<g filter="url(#filter0_f_1096_2572)">
<path d="M229.351 164.539C229.351 200.568 200.143 229.776 164.113 229.776C128.083 229.776 98.875 200.568 98.875 164.539C98.875 128.509 128.083 99.3008 164.113 99.3008C200.143 99.3008 229.351 128.509 229.351 164.539Z" fill="white"/>
</g>
<path fill-rule="evenodd" clip-rule="evenodd" d="M153.537 150.503C159.884 154.216 167.736 154.231 174.098 150.544L246.501 108.574L254.698 122.714L182.142 164.771C175.839 168.425 171.958 175.16 171.958 182.446V264.234H155.615V182.37C155.615 175.113 151.765 168.401 145.501 164.737L73.6406 122.698L81.8933 108.591L153.537 150.503Z" fill="#00E28D"/>
<defs>
<filter id="filter0_f_1096_2572" x="62.1021" y="62.5279" width="204.022" height="204.022" filterUnits="userSpaceOnUse" color-interpolation-filters="sRGB">
<feFlood flood-opacity="0" result="BackgroundImageFix"/>
<feBlend mode="normal" in="SourceGraphic" in2="BackgroundImageFix" result="shape"/>
<feGaussianBlur stdDeviation="18.3864" result="effect1_foregroundBlur_1096_2572"/>
</filter>
</defs>
</svg>
