<svg width="166" height="166" viewBox="0 0 166 166" fill="none" xmlns="http://www.w3.org/2000/svg">
<circle cx="83" cy="83" r="83" fill="black"/>
<mask id="mask0_3051_103" style="mask-type:alpha" maskUnits="userSpaceOnUse" x="39" y="14" width="88" height="140">
<path d="M83.3732 24.2194L79.8809 18.7949C78.8418 17.181 80.108 15.077 82.0205 15.2392L120.7 18.5205C124.046 18.8044 126.225 22.1696 125.115 25.3392L112.012 62.7479C111.381 64.5486 108.964 64.8536 107.906 63.2662L104.312 57.8762L89.1542 67.8961C105.304 74.5887 117.287 81.6414 119.728 92.0468C122.169 102.452 122.04 117.867 98.7888 133.154C85.1206 142.403 76.1797 148.227 71.5551 151.139C66.9305 154.051 53.1852 153.194 46.7622 142.917C40.3391 132.64 45.1778 121.807 49.0744 117.867C54.7267 114.065 67.1874 105.058 72.7112 101.03C28.1125 84.762 38.5482 55.1407 52.0287 45.0301L67.701 34.6248L83.3732 24.2194Z" fill="white"/>
<path d="M98.7888 133.154C101.101 126.217 106.368 112.472 82.474 104.122C78.9602 103.159 75.7112 102.125 72.7112 101.03M98.7888 133.154C122.04 117.867 122.169 102.452 119.728 92.0468C117.287 81.6414 105.304 74.5887 89.1542 67.8961M98.7888 133.154C85.1206 142.403 76.1797 148.227 71.5551 151.139C66.9305 154.051 53.1852 153.194 46.7622 142.917C40.3391 132.64 45.1778 121.807 49.0744 117.867C54.7267 114.065 67.1874 105.058 72.7112 101.03M67.701 34.6248L83.3732 24.2194L79.8809 18.7949C78.8418 17.181 80.108 15.077 82.0205 15.2392L120.7 18.5205C124.046 18.8044 126.225 22.1696 125.115 25.3392L112.012 62.7479C111.381 64.5486 108.964 64.8536 107.906 63.2662L104.312 57.8762L89.1542 67.8961M67.701 34.6248L52.0287 45.0301C38.5482 55.1407 28.1125 84.762 72.7112 101.03M67.701 34.6248C61.7062 39.7632 54.3157 52.2753 72.7112 61.2162C78.1204 63.8452 84.1866 65.8375 89.1542 67.8961" stroke="white" stroke-width="2.05537"/>
</mask>
<g mask="url(#mask0_3051_103)">
<path fill-rule="evenodd" clip-rule="evenodd" d="M104.465 19.6999V19.7L123.987 19.6999L124.748 19.6999L124.446 20.398L117.596 36.2738L117.591 36.2853L117.591 36.2852L113.824 44.4482L113.823 44.45L109.484 53.7547L109.479 53.7671L109.479 53.767L102.743 67.2388L101.848 66.7916L108.53 53.4275C108.491 51.2972 107.367 49.6584 105.451 48.3822C103.484 47.0717 100.716 46.1724 97.5622 45.5792C91.3052 44.4024 83.7097 44.4617 78.3437 44.7324L69.5049 49.4841C73.9292 49.6044 78.9528 50.0278 83.8697 52.0047C89.5288 54.28 95.0124 58.5977 99.313 66.7826L98.4278 67.2478C94.2343 59.2666 88.929 55.1166 83.4967 52.9325C78.0933 50.7601 72.5306 50.5175 67.711 50.4485L63.2585 52.8421L62.785 51.9613L67.2258 49.5739C69.1021 46.2914 71.3033 41.4684 71.9469 37.4768C72.2742 35.4473 72.1831 33.724 71.5369 32.5283C70.9194 31.3857 69.736 30.6223 67.5884 30.6223V29.6223C70.0076 29.6223 71.5832 30.5108 72.4166 32.0528C73.2212 33.5416 73.2729 35.5354 72.9342 37.636C72.3495 41.2621 70.5546 45.4789 68.8463 48.7028L77.7991 43.8898C78.9398 40.6471 80.2751 35.8997 80.6683 31.9518C80.8695 29.9316 80.8169 28.182 80.4086 26.9588C80.2066 26.3535 79.9276 25.9082 79.5791 25.6153C79.2385 25.329 78.7972 25.1589 78.206 25.1589V24.1589C79.0076 24.1589 79.6835 24.3967 80.2226 24.8498C80.7537 25.2962 81.1167 25.9218 81.3572 26.6422C81.8339 28.0704 81.8684 29.992 81.6634 32.0509C81.3004 35.6953 80.1647 39.9622 79.1014 43.17L88.2317 38.1032C89.937 35.141 91.9335 30.7963 92.5172 27.2038C92.8144 25.3748 92.7295 23.8326 92.1496 22.7677C91.5988 21.7563 90.5413 21.0718 88.601 21.0704L60.1792 21.7338L60.1558 20.734L88.5836 20.0706L104.453 19.7002L104.465 19.6999ZM91.9069 20.9933C92.3743 21.3379 92.7467 21.7732 93.0278 22.2894C93.7681 23.6488 93.8131 25.4634 93.5043 27.3642C92.9784 30.6004 91.3806 34.3532 89.8445 37.2509L104.12 29.7384C105.215 28.1058 106.47 25.7526 106.836 23.8275C107.024 22.8386 106.958 22.065 106.632 21.5539C106.329 21.0782 105.714 20.7012 104.47 20.7L91.9069 20.9933ZM107.237 20.7C107.324 20.7985 107.404 20.904 107.475 21.0166C108.006 21.8492 108.024 22.936 107.819 24.0142C107.519 25.59 106.701 27.3666 105.841 28.8617L121.9 20.6999L107.237 20.7ZM122.98 21.2729L107.184 29.3011C108.861 29.2216 110.711 29.3402 112.383 29.8314C113.737 30.2293 115.002 30.8798 115.957 31.8952C116.58 32.5581 117.059 33.3643 117.346 34.3299L122.98 21.2729ZM116.63 35.9813C116.522 34.4978 115.998 33.3987 115.228 32.5801C114.43 31.7315 113.341 31.1552 112.101 30.7908C109.639 30.0676 106.692 30.212 104.631 30.5995L92.201 37.1408C95.8372 36.4303 100.19 35.9109 104.024 36.2199C106.659 36.4322 109.108 37.0399 110.91 38.2989C112.296 39.267 113.279 40.6066 113.675 42.3837L116.63 35.9813ZM112.869 44.1293C112.84 41.7828 111.877 40.1935 110.338 39.1187C108.745 38.0065 106.501 37.4228 103.943 37.2166C98.8584 36.8068 92.7645 37.9051 88.7826 38.9411L80.3019 43.6474C85.4858 43.4644 92.1272 43.5395 97.7471 44.5965C100.954 45.1996 103.875 46.1306 106.006 47.55C107.639 48.6378 108.827 50.0285 109.302 51.7791L112.869 44.1293ZM57.9448 59.6061L38.7598 46.1901L39.3329 45.3706L58.6706 58.8935C62.8884 60.0479 65.5521 60.2558 67.1553 60.074C67.9614 59.9826 68.4709 59.7958 68.7725 59.6065C69.0736 59.4174 69.1384 59.2481 69.1489 59.1782L70.1379 59.3261C70.0722 59.7654 69.7736 60.1588 69.3041 60.4534C68.835 60.7478 68.1667 60.9657 67.2679 61.0676C65.8644 61.2268 63.8297 61.1107 60.9463 60.4849L72.3093 68.431C76.194 70.6626 80.9694 71.7561 85.3893 72.2071C89.7182 72.6489 93.6654 72.4703 96.0254 72.1655L98.9927 69.4979L99.6613 70.2416L96.5787 73.0128L96.0798 73.4613C95.6895 73.8736 95.4856 74.2851 95.4123 74.6872C95.313 75.2323 95.439 75.8399 95.8095 76.5177C96.5619 77.8944 98.2358 79.4014 100.461 80.9107C104.883 83.9094 111.21 86.7403 115.704 88.4319L133.845 94.2825L133.538 95.2342L115.409 89.3876C112.646 88.7944 110.444 89.1685 108.683 90.1344C106.907 91.1081 105.534 92.7087 104.492 94.6375C102.423 98.4648 101.717 103.473 101.711 106.973L114.847 133.927L113.948 134.365L100.761 107.308C96.5696 98.7065 90.0143 95.0864 83.5145 94.0307C77.0136 92.9749 70.5537 94.4856 66.5822 96.2127L58.7486 101.899L58.1612 101.09L65.922 95.4563C66.3941 94.2476 66.4998 93.1388 66.3207 92.1169C66.1347 91.0559 65.6361 90.0571 64.8674 89.1158C63.3203 87.2212 60.7132 85.6008 57.5481 84.2513C51.2362 81.56 42.9299 80.0385 37.1897 79.4657L28.0758 79.2747L28.0968 78.275L37.1929 78.4655C53.237 76.3932 57.667 65.1534 57.9448 59.6061ZM58.8983 60.2729C58.3741 65.757 54.3286 75.1989 41.8745 78.5636L59.927 78.9419C65.2459 78.5699 68.2436 76.7727 69.8616 74.7593C71.4172 72.8234 71.7469 70.6275 71.5747 69.1375L58.8983 60.2729ZM72.6157 69.8655C72.6174 71.4976 72.1166 73.5495 70.6411 75.3857C69.4407 76.8795 67.6181 78.2027 64.9546 79.0472L86.3877 79.4963L72.6157 69.8655ZM86.5274 80.4994L65.1729 80.052C67.9668 80.7451 70.8699 81.6285 73.1573 82.6478C74.1064 83.0707 74.9617 83.5223 75.6641 84.0006C76.3615 84.4756 76.9374 84.9964 77.2944 85.5682C77.5566 85.9881 77.7035 86.4425 77.6874 86.9162L86.5274 80.4994ZM75.5061 88.4995C76.1918 88.0018 76.5179 87.5577 76.6343 87.1877C76.7434 86.8408 76.6902 86.4886 76.4462 86.0978C76.193 85.6923 75.7432 85.2644 75.1012 84.8272C74.4641 84.3933 73.6662 83.9693 72.7503 83.5612C69.0878 81.9291 63.7335 80.6348 59.8892 79.9413L45.1665 79.6328C49.4709 80.4639 54.0632 81.6783 57.9403 83.3314C61.1601 84.7042 63.9431 86.4027 65.642 88.4833C66.4963 89.5295 67.0845 90.6823 67.3057 91.9443C67.4488 92.761 67.4359 93.6103 67.2527 94.4904L75.5061 88.4995ZM69.4964 94.0974C73.4451 92.9204 78.5379 92.2094 83.6748 93.0437C88.5445 93.8345 93.4462 96.0147 97.4332 100.478L92.638 90.639C91.1347 87.5543 88.1647 86.6349 84.9002 86.8013C81.6465 86.967 78.2278 88.2165 76.0628 89.331L69.4964 94.0974ZM79.4845 86.8474C81.1634 86.308 83.0232 85.8956 84.8493 85.8026C87.0277 85.6916 89.2089 86.0372 90.9639 87.2037L87.8359 80.7853L79.4845 86.8474ZM88.9881 80.8669L93.1624 89.4324C94.014 88.3027 95.3455 86.9712 97.0576 85.9867C98.1476 85.3599 99.3968 84.8715 100.775 84.6682L88.9881 80.8669ZM104.662 85.9215C101.898 85.1327 99.4782 85.7483 97.5561 86.8536C95.7502 87.892 94.4001 89.3554 93.6607 90.4549L100.777 105.056C100.997 101.683 101.798 97.5177 103.612 94.162C104.716 92.1206 106.209 90.3506 108.202 89.2576C109.226 88.696 110.37 88.3198 111.642 88.1726L104.662 85.9215ZM106.215 85.3719C103.964 84.2403 101.77 83.0064 99.8997 81.7383C97.6525 80.2141 95.8057 78.5958 94.932 76.9973C94.5741 76.3426 94.3661 75.6666 94.3802 74.9893L89.0049 79.8216L104.961 84.9672L106.215 85.3719ZM87.9855 79.3933L94.7573 73.3055C92.3182 73.5151 88.9338 73.574 85.2878 73.202C82.4387 72.9112 79.4129 72.3557 76.5461 71.3938L87.9855 79.3933ZM77.1539 102.659C76.4109 103.934 74.3012 106.202 71.03 106.873L80.8301 110.678C83.3688 110.868 84.9871 110.179 85.9906 109.298C87.0172 108.396 87.4448 107.253 87.5276 106.506L88.5215 106.616C88.414 107.586 87.8826 108.967 86.6506 110.049C85.8187 110.78 84.6865 111.359 83.1897 111.595L100.079 118.153L100.629 118.367L100.328 118.874L93.491 130.391C94.1637 130.018 94.8909 129.709 95.5996 129.563C96.3475 129.41 97.1342 129.427 97.8145 129.813C98.5055 130.205 98.9924 130.924 99.2427 131.975L98.2699 132.207C98.0635 131.34 97.7033 130.9 97.3208 130.683C96.9276 130.459 96.4145 130.417 95.8008 130.543C94.5873 130.792 93.2142 131.655 92.2866 132.42L86.4342 142.279L81.1477 151.184L80.2878 150.673L85.5469 141.814C86.547 138.798 86.2421 136.484 85.1573 134.694C84.0538 132.873 82.0966 131.516 79.6601 130.537C74.7991 128.583 68.2531 128.224 63.6715 128.507L54.3853 130.909C58.7022 131.167 63.7246 132.106 67.6579 134.232C70.2337 135.625 72.3776 137.546 73.5224 140.153C74.6705 142.767 74.7826 146 73.4273 149.949L72.4815 149.625C73.7749 145.856 73.632 142.889 72.6068 140.555C71.5784 138.213 69.6308 136.436 67.1823 135.112C62.2879 132.466 55.5332 131.712 50.7624 131.846L44.0088 133.593C47.6511 135.124 52.3509 137.561 56.062 140.512C58.1675 142.187 59.983 144.05 61.0968 146.033C62.2162 148.026 62.6391 150.168 61.8967 152.346L60.9502 152.023C61.5778 150.182 61.2443 148.338 60.2249 146.523C59.1998 144.697 57.494 142.929 55.4395 141.295C51.387 138.072 46.0883 135.456 42.3839 134.013L34.2625 136.114L34.0121 135.146L42.2893 133.005L50.5135 130.877C56.2479 127.951 58.3654 124.263 58.7663 120.896C59.1728 117.483 57.827 114.293 56.4525 112.406L57.2609 111.817C58.7407 113.849 60.2033 117.286 59.7593 121.015C59.3944 124.079 57.7506 127.27 53.9142 129.998L63.4464 127.532C68.0771 125.89 69.8864 122.175 70.2558 118.091C70.6193 114.073 69.5735 109.765 68.4609 106.948L45.0306 97.8499L45.3926 96.9177L68.9439 106.063C72.9503 106.142 75.5191 103.479 76.2899 102.156L77.1539 102.659ZM71.2518 118.181C71.5979 114.354 70.7317 110.322 69.7096 107.433L80.3996 111.584C81.301 112.849 82.2455 114.912 82.2585 117.115C82.2717 119.332 81.3453 121.739 78.3459 123.678L67.254 126.547C69.8365 124.419 70.9649 121.352 71.2518 118.181ZM83.2585 117.109C83.2475 115.258 82.6547 113.52 81.9406 112.182L98.2707 118.524L80.7255 123.062C82.5982 121.222 83.2704 119.114 83.2585 117.109ZM82.3856 123.666L98.8488 119.407L92.4971 130.106C92.3918 129.097 92.0434 128.219 91.5029 127.464C90.6311 126.246 89.2938 125.396 87.8016 124.811C86.126 124.154 84.2019 123.809 82.3856 123.666ZM90.6897 128.046C91.3859 129.018 91.7166 130.271 91.425 131.913L87.124 139.158C87.2762 137.237 86.8657 135.584 86.0125 134.176C84.7529 132.097 82.574 130.63 80.033 129.609C76.3549 128.131 71.8008 127.54 67.8028 127.438L78.6293 124.637C81.0999 124.467 84.6689 124.657 87.4365 125.742C88.8254 126.287 89.9703 127.041 90.6897 128.046Z" fill="#8E8E8E"/>
</g>
<path d="M98.8152 133.086C101.127 126.149 106.394 112.404 82.5003 104.054C78.9865 103.09 75.7376 102.056 72.7376 100.962M98.8152 133.086C122.067 117.799 122.195 102.384 119.754 91.9784C117.314 81.5731 105.331 74.5204 89.1806 67.8278M98.8152 133.086C85.1469 142.335 76.2061 148.159 71.5815 151.07C66.9569 153.982 53.2116 153.126 46.7885 142.849C40.3655 132.572 45.2042 121.738 49.1008 117.799C54.7531 113.997 67.2138 104.99 72.7376 100.962M67.7273 34.5564L83.3995 24.1511L79.9072 18.7266C78.8682 17.1127 80.1343 15.0086 82.0469 15.1709L120.726 18.4521C124.073 18.736 126.252 22.1012 125.141 25.2708L112.038 62.6795C111.408 64.4802 108.991 64.7853 107.932 63.1978L104.339 57.8078L89.1806 67.8278M67.7273 34.5564L52.0551 44.9617C38.5745 55.0724 28.1389 84.6936 72.7376 100.962M67.7273 34.5564C61.7326 39.6948 54.342 52.2069 72.7376 61.1478C78.1468 63.7768 84.213 65.7692 89.1806 67.8278" stroke="white" stroke-width="4"/>
</svg>
