<svg width="32" height="32" viewBox="0 0 32 32" fill="none" xmlns="http://www.w3.org/2000/svg">
<circle cx="16" cy="16" r="16" fill="white"/>
<mask id="mask0_208_1191" style="mask-type:alpha" maskUnits="userSpaceOnUse" x="0" y="0" width="32" height="32">
<g clip-path="url(#clip0_208_1191)">
<path d="M23.9181 25.2204C23.4413 25.5511 22.9733 25.8975 22.484 26.2076C22.1003 26.4555 21.6999 26.6764 21.2855 26.8687C20.8141 27.0804 20.3312 27.2652 19.8389 27.4222C19.3581 27.5785 18.8694 27.7094 18.3748 27.8142C17.7437 27.9478 17.1036 28.028 16.4542 28.0006C16.3117 27.9945 16.3117 27.9061 16.2782 27.8103C16.0893 27.2885 15.8897 26.771 15.6958 26.2511C15.4196 25.5091 15.1474 24.7653 14.8694 24.024C14.4998 23.0378 14.1249 22.0535 13.7553 21.0659C13.4167 20.1628 13.0831 19.258 12.746 18.3541C12.3301 17.2397 11.9152 16.1246 11.4929 15.0126C11.4306 14.8483 11.437 14.7631 11.6148 14.6737C11.9145 14.5226 12.1968 14.3351 12.4791 14.1512C12.5667 14.0938 12.6131 14.0942 12.6875 14.1676C13.7973 15.2605 14.9088 16.3517 16.0219 17.4411C16.9723 18.3722 17.9247 19.3021 18.8791 20.2309C19.9229 21.2526 20.9663 22.2742 22.0093 23.2959C22.4607 23.7364 22.9153 24.1738 23.3729 24.6081C23.56 24.7845 23.7624 24.9452 23.9577 25.1131L23.9181 25.2204Z" fill="#E7878D"/>
<path d="M28.2729 16.3516C28.1681 19.1571 27.1948 21.6116 25.3861 23.7702L24.6494 23.0524C23.9709 22.391 23.2924 21.7295 22.6141 21.0681C21.63 20.1051 20.647 19.1411 19.6653 18.1759C17.8285 16.3804 15.99 14.5866 14.1498 12.7944C14.0646 12.7114 14.0429 12.6569 14.1202 12.545C14.3187 12.2599 14.5019 11.9601 14.6773 11.6583C14.7403 11.5513 14.7877 11.5268 14.9103 11.5713C16.0276 11.9765 17.1485 12.3728 18.2675 12.7734C19.1917 13.1041 20.1144 13.4381 21.0385 13.7685C22.0402 14.1265 23.0422 14.4837 24.0446 14.8401C24.7884 15.106 25.5311 15.3747 26.2749 15.6416C26.9346 15.8765 27.5961 16.1107 28.2729 16.3516Z" fill="#E7878D"/>
<path d="M13.4534 8.46322C13.457 10.5125 12.2527 12.3151 10.3496 13.1084C8.36523 13.9352 6.09859 13.4766 4.61814 11.9498C4.54686 11.8785 4.53225 11.8151 4.57145 11.7142C5.21095 10.0563 6.21452 8.56314 7.50812 7.34487C8.41157 6.48953 9.4419 5.81239 10.5595 5.26746C10.9159 5.09497 11.2809 4.94386 11.6487 4.79952C11.7039 4.77778 11.813 4.82839 11.8671 4.87829C12.3625 5.33552 12.7588 5.88945 13.0316 6.50586C13.3045 7.12227 13.448 7.78808 13.4534 8.46215V8.46322Z" fill="#E7878D"/>
<path d="M28.1236 14.1844C27.6731 14.0229 27.2508 13.8718 26.8281 13.7211L23.5208 12.541C22.2727 12.0958 21.0244 11.651 19.7758 11.2067C18.6665 10.8133 17.5567 10.4212 16.4464 10.0306C16.1178 9.91444 15.7885 9.80039 15.4631 9.67423C15.4218 9.65819 15.3783 9.57872 15.3804 9.53167C15.3972 9.13572 15.4296 8.74049 15.446 8.34454C15.4514 8.22408 15.5105 8.21303 15.6046 8.2116C16.1986 8.20234 16.7919 8.19117 17.3844 8.1781C18.4161 8.15434 19.4478 8.12939 20.4797 8.10326C21.4044 8.0795 22.3291 8.05574 23.2538 8.03198C23.8287 8.01666 24.4036 8.00383 24.9781 7.97959C25.1003 7.9746 25.1737 8.01773 25.25 8.10362C26.1076 9.06472 26.8055 10.1572 27.3171 11.3393C27.6948 12.2107 27.9518 13.1212 28.1221 14.0539C28.1258 14.0973 28.1262 14.1409 28.1236 14.1844V14.1844Z" fill="#E7878D"/>
<path d="M8.04586 15.457C8.33774 15.457 8.62108 15.4635 8.90405 15.4542C9.0461 15.447 9.18715 15.4263 9.32531 15.3925C9.44149 15.3662 9.49175 15.4025 9.53202 15.513C9.88508 16.4802 10.2415 17.4462 10.6012 18.4108C11.2085 20.0438 11.8167 21.6765 12.4259 23.3091C12.9356 24.679 13.4445 26.0495 13.9527 27.4204C14.0037 27.5579 14.0543 27.6955 14.1188 27.8709C13.8768 27.8309 13.6676 27.8053 13.4627 27.7611C12.6432 27.5854 11.8422 27.3324 11.0705 27.0055C9.95397 26.5294 8.94147 25.8904 8.00202 25.1234C7.83773 24.9894 7.7971 24.8697 7.80209 24.6808C7.85128 22.8948 7.89689 21.1088 7.93894 19.3228C7.96959 18.0947 8.0006 16.8667 8.03196 15.6388C8.0341 15.5868 8.04016 15.5351 8.04586 15.457Z" fill="#E7878D"/>
<path d="M13.9296 4.15801C17.1428 3.66406 20.0834 4.28738 22.7944 6.0059L22.7902 6.07005C22.4979 6.07789 22.2053 6.08716 21.9131 6.09357C20.2466 6.12898 18.58 6.16462 16.9133 6.20049C16.3431 6.21332 15.7757 6.24005 15.2069 6.25074C15.1488 6.25074 15.0536 6.20156 15.0358 6.15309C14.7826 5.46882 14.4246 4.828 13.9748 4.25353C13.9577 4.22267 13.9426 4.19077 13.9296 4.15801V4.15801Z" fill="#E7878D"/>
<path d="M3.89573 13.9898C4.21328 14.1908 4.49162 14.3918 4.79242 14.5514C5.13527 14.7336 5.49522 14.8843 5.85304 15.0365C5.96602 15.0843 6.02054 15.1331 6.01697 15.2653C5.98526 16.4218 5.96174 17.5779 5.93323 18.7344C5.90258 19.9918 5.87014 21.249 5.83592 22.5061C5.83584 22.5538 5.82357 22.6006 5.80029 22.6422C4.02688 20.0167 3.38787 17.1453 3.89573 13.9898Z" fill="#E7878D"/>
<path d="M15.9997 0C7.16334 0 -0.00012207 7.16346 -0.00012207 16.002C-0.00012207 24.8405 7.16334 32.0018 15.9997 32.0018C24.8361 32.0018 31.9995 24.8383 31.9995 16.002C31.9995 7.1656 24.8364 0 15.9997 0ZM15.9997 29.9368C8.30165 29.9368 2.06481 23.6975 2.06481 16.002C2.06481 8.30641 8.30379 2.06707 15.9997 2.06707C23.6956 2.06707 29.9346 8.30605 29.9346 16.002C29.9346 23.6979 23.6963 29.9358 15.9997 29.9358V29.9368Z" fill="#E7878D"/>
</g>
</mask>
<g mask="url(#mask0_208_1191)">
<circle cx="16" cy="16" r="16" fill="url(#paint0_linear_208_1191)"/>
</g>
<defs>
<linearGradient id="paint0_linear_208_1191" x1="16" y1="0" x2="16" y2="32" gradientUnits="userSpaceOnUse">
<stop stop-color="#D74FA0"/>
<stop offset="1" stop-color="#FAC679"/>
</linearGradient>
<clipPath id="clip0_208_1191">
<rect width="32" height="32" fill="white"/>
</clipPath>
</defs>
</svg>
