<svg width="100" height="100" viewBox="0 0 100 100" fill="none" xmlns="http://www.w3.org/2000/svg">
<circle cx="50" cy="50" r="50" fill="#8866DD"/>
<path d="M47.9996 40.8052C46.8366 41.0072 45.6826 41.2212 44.5476 41.4482C44.1386 41.5282 43.7306 41.6102 43.3256 41.6962C42.1746 41.9352 41.0366 42.1892 39.9236 42.4552C39.4966 42.5562 39.2246 42.9692 39.3036 43.3922L39.5026 44.4972C39.5866 44.9652 40.0546 45.2622 40.5226 45.1492C41.6016 44.8922 42.6996 44.6442 43.8156 44.4112C44.2206 44.3252 44.6266 44.2432 45.0376 44.1602C46.1756 43.9332 47.3266 43.7162 48.4896 43.5172C55.5586 42.2922 62.3686 41.6892 68.0966 41.7562C69.3906 41.7712 70.6286 41.8172 71.8006 41.9032C71.9506 41.9152 72.0966 41.9272 72.2406 41.9372C78.9696 42.4852 81.0306 44.0382 81.1836 44.8862C81.3366 45.7342 79.9396 47.8812 73.8056 50.6552C73.8186 49.7762 73.7806 48.8912 73.6876 48.0002C73.6316 47.4092 73.5476 46.8212 73.4416 46.2272C73.3696 45.8292 73.2886 45.4342 73.1986 45.0452C73.1176 44.6992 72.8086 44.4482 72.4466 44.4232L70.2736 44.2762C69.7096 44.2392 69.2666 44.7542 69.4066 45.2902C69.5436 45.8042 69.6596 46.3282 69.7556 46.8642C69.9176 47.7672 70.0176 48.6672 70.0486 49.5622C70.0856 50.4532 70.0606 51.3412 69.9736 52.2172C69.9486 52.4742 69.9176 52.7312 69.8836 52.9892L69.8776 53.0412C69.7686 53.8252 69.6096 54.6002 69.4096 55.3562C69.1416 56.3762 68.7856 57.3682 68.3586 58.3202C65.7206 64.2452 60.2046 68.8102 53.2476 70.0172C46.4036 71.2022 39.7366 68.8632 35.1966 64.3312C35.0376 64.1722 34.8196 64.0802 34.5916 64.0832L31.8286 64.1172C31.1266 64.1262 30.7466 64.9312 31.1956 65.4612C36.5466 71.7662 45.0936 75.1642 53.8956 73.6392C63.3126 72.0072 70.4966 65.1792 72.9166 56.6882C73.1906 55.7392 73.3996 54.7711 73.5466 53.7821C73.8866 53.6381 74.2236 53.4942 74.5506 53.3502C81.3166 50.3652 84.4726 47.3552 83.9456 44.4092C83.4186 41.4632 79.4026 39.6972 72.0066 39.1612C71.6476 39.1372 71.2836 39.1122 70.9116 39.0942C69.5086 39.0212 68.0216 38.9902 66.4716 39.0052C60.9336 39.0572 54.5666 39.6702 47.9996 40.8092V40.8052Z" fill="white"/>
<path d="M27.0066 60.8401C27.3656 60.8651 27.7296 60.8891 28.1006 60.9071C29.5036 60.9841 30.9876 61.0141 32.5376 60.9961C38.0756 60.9441 44.4456 60.3321 51.0116 59.1921C52.1746 58.9901 53.3316 58.7761 54.4666 58.5461C54.8746 58.4661 55.2836 58.3841 55.6886 58.2981C56.8426 58.0591 57.9776 57.8051 59.0906 57.5391C59.5176 57.4381 59.7886 57.0251 59.7106 56.6021L59.5106 55.4961C59.4266 55.0281 58.9586 54.7311 58.4906 54.8441C57.4116 55.1011 56.3116 55.3491 55.1976 55.5821C54.7926 55.6681 54.3866 55.7531 53.9756 55.8331C52.8376 56.0601 51.6866 56.2771 50.5206 56.4791C43.4526 57.7041 36.6396 58.3101 30.9116 58.2431C29.6176 58.2251 28.3796 58.1761 27.2076 58.0901C27.0616 58.0781 26.9116 58.0661 26.7676 58.0561C20.0426 57.5081 17.9776 55.9581 17.8256 55.1101C17.6726 54.2621 19.0726 52.1121 25.2026 49.3381C25.1896 50.2171 25.2276 51.1021 25.3206 51.9961C25.3766 52.5871 25.4606 53.1781 25.5666 53.7721C25.6386 54.1701 25.7196 54.5621 25.8096 54.9511C25.8906 55.2971 26.1996 55.5481 26.5606 55.5731L28.7306 55.7201C29.2946 55.7571 29.7376 55.2421 29.5976 54.7061C29.4606 54.1921 29.3446 53.6681 29.2486 53.1351C29.0866 52.2321 28.9896 51.3251 28.9526 50.4311C28.9186 49.5371 28.9466 48.6521 29.0306 47.7791C29.1306 46.7131 29.3236 45.6661 29.5916 44.6471C29.8626 43.6301 30.2116 42.6411 30.6396 41.6891C33.2746 35.7581 38.7896 31.1891 45.7556 29.9821C52.5996 28.7971 59.2596 31.1331 63.7996 35.6651C63.9586 35.8241 64.1766 35.9161 64.4046 35.9131L67.1736 35.8821C67.8746 35.8731 68.2556 35.0671 67.8066 34.5381C62.4566 28.2361 53.9066 24.8371 45.1046 26.3621C35.6886 27.9941 28.5046 34.8261 26.0846 43.3141C25.8136 44.2631 25.6016 45.2311 25.4546 46.2171C25.1116 46.3581 24.7776 46.5021 24.4476 46.6461C17.6876 49.6311 14.5296 52.6391 15.0566 55.5871C15.5836 58.5361 19.6026 60.2961 26.9956 60.8321L27.0046 60.8381L27.0066 60.8401Z" fill="white"/>
</svg>
