<svg width="32" height="32" viewBox="0 0 32 32" fill="none" xmlns="http://www.w3.org/2000/svg">
<path d="M6.63122 2.07788L31.383 20.322L25.2529 30.0467L0.501099 11.6779L6.63122 2.07788Z" fill="url(#paint0_linear_843_7718)"/>
<path d="M31.3832 20.2806C29.2627 23.5637 22.0531 22.2754 15.2675 17.1221C8.36634 12.1351 4.62658 5.36109 6.63139 2.07797C8.75188 -1.24671 15.9615 0.0416069 22.7471 5.23641C29.6483 10.0987 33.388 16.9974 31.3832 20.2806Z" fill="url(#paint1_linear_843_7718)"/>
<path d="M25.253 29.9221C23.1325 33.2052 15.9229 31.9169 9.13733 26.7637C2.35178 21.6104 -1.50364 15.0026 0.616843 11.5533C2.73732 8.27018 9.94697 9.55849 16.7325 14.7117C23.5181 19.865 27.2578 26.5974 25.253 29.9221Z" fill="url(#paint2_linear_843_7718)"/>
<path d="M31.3831 20.2806L25.253 30.0468C23.1325 33.3299 15.9229 31.9169 9.13734 26.8884C7.78794 25.891 6.59276 24.8935 5.39758 23.7299C6.32288 23.6052 7.51806 23.0234 8.71325 21.5689C10.8337 19.1169 11.9132 18.5351 12.8385 18.7013C13.7638 18.7013 14.8434 19.6987 16.5783 22.1507C18.3132 24.6026 20.7036 25.3091 22.1687 24.0208C22.2843 23.8961 22.4385 23.8961 22.5542 23.7299C23.7494 22.7325 24.1349 22.2754 26.4096 17.7039C26.9494 16.5403 28.8 14.6702 31.3446 15.5429C32.0771 17.413 32.0771 18.9923 31.3831 20.2806Z" fill="#0E0F23"/>
<path fill-rule="evenodd" clip-rule="evenodd" d="M30.4578 19.7402C28.6072 22.6077 22.053 21.1948 15.8072 16.4571C9.40722 11.6779 5.70602 5.6519 7.55662 2.78437C9.40722 -0.0831633 15.9614 1.32982 22.2072 6.06748C28.453 10.8051 32.1928 16.8727 30.4578 19.7402ZM24.5976 15.4181C23.6723 16.8727 20.4723 16.1246 17.2723 13.8389C14.2265 11.5532 12.3373 8.51943 13.3012 7.10644C14.2651 5.69346 17.4265 6.39995 20.6265 8.68567C23.6723 10.9714 25.5229 13.9636 24.5976 15.4181Z" fill="white"/>
<path d="M6.09152 5.361C6.09152 5.23633 5.97585 5.07009 5.82164 5.23633C5.70597 5.361 5.55176 5.361 5.55176 5.52723C5.66742 5.94282 5.82164 6.23373 5.82164 6.52464C5.82164 6.64931 5.9373 6.81555 6.09152 6.64931C6.20718 6.64931 6.3614 6.52464 6.20718 6.3584C6.24573 6.10905 6.24573 5.81814 6.09152 5.361Z" fill="white"/>
<path d="M6.74699 7.68827C6.74699 7.5636 6.63133 7.39736 6.47711 7.5636C6.36145 7.68827 6.36145 7.68827 6.36145 7.8545C7.82651 11.4285 10.8723 15.335 14.8819 18.2026C14.9976 18.3272 15.1518 18.2026 15.2675 18.2026C15.3831 18.0779 15.2675 17.9116 15.2675 17.787C11.1422 14.8363 8.21205 11.0961 6.74699 7.68827Z" fill="white"/>
<path d="M22.8627 21.7351C22.7471 21.7351 22.5928 21.7351 22.5928 21.8598C22.5928 21.9845 22.5928 22.1507 22.7085 22.1507C23.094 22.2754 23.6338 22.4416 24.0579 22.5663C24.1736 22.5663 24.3278 22.5663 24.3278 22.4416C24.3278 22.3169 24.3278 22.1507 24.2121 22.1507C23.788 22.026 23.2868 21.8598 22.8627 21.7351Z" fill="white"/>
<path d="M25.2529 22.3169C25.1373 22.3169 24.983 22.4416 24.983 22.6078C24.983 22.774 25.0987 22.8987 25.2529 22.8987C26.3324 23.0234 27.5276 23.1896 28.4529 23.0234C28.5686 23.0234 28.7228 22.8987 28.7228 22.7325C28.7228 22.5662 28.6071 22.4416 28.4529 22.4416C27.4119 22.6078 26.3324 22.4416 25.2529 22.3169Z" fill="white"/>
<defs>
<linearGradient id="paint0_linear_843_7718" x1="11.4857" y1="-0.523511" x2="17.1212" y2="17.4291" gradientUnits="userSpaceOnUse">
<stop stop-color="#03B8FF"/>
<stop offset="1" stop-color="#FA52A0"/>
</linearGradient>
<linearGradient id="paint1_linear_843_7718" x1="15.51" y1="-1.78676" x2="21.1456" y2="16.1659" gradientUnits="userSpaceOnUse">
<stop stop-color="#03B8FF"/>
<stop offset="1" stop-color="#FA52A0"/>
</linearGradient>
<linearGradient id="paint2_linear_843_7718" x1="7.50915" y1="0.724744" x2="13.1448" y2="18.6776" gradientUnits="userSpaceOnUse">
<stop stop-color="#03B8FF"/>
<stop offset="1" stop-color="#FA52A0"/>
</linearGradient>
</defs>
</svg>
