<svg class="max-md:w-[115px] w-[150px] text-black" width="150" height="43" viewBox="0 0 150 43" fill="none" xmlns="http://www.w3.org/2000/svg">
<path d="M52.7393 0.414216C47.0821 -0.605977 42.8898 0.481062 40.6524 1.2848C36.8496 2.64718 33.8941 4.90084 30.9992 7.10993C28.9358 8.68558 27.3176 10.1435 26.2117 11.1955C25.492 9.79808 24.244 7.74178 22.2093 5.80325C19.0416 2.78406 15.8451 1.82753 15.1461 1.62858C11.4645 0.586105 8.37497 1.19886 6.82701 1.62858C8.24252 5.90671 10.1815 7.85956 11.7725 8.84792C15.0711 10.8931 18.2069 11.9769 18.2069 11.9769C19.3847 12.3828 20.5241 12.6915 21.0316 13.8056C21.721 15.3129 20.7172 17.1447 20.6406 17.2832C19.3799 19.521 16.7005 19.4637 16.5201 19.4557C15.5802 19.3777 9.3213 18.9782 4.47314 24.3243C0.381406 28.8443 0.0478752 34.4164 0 35.7215V37.2685C0 38.8648 1.16816 40.1572 2.60601 40.1572H35.5378C36.8735 40.1572 37.9954 39.0399 38.131 37.5677C38.455 34.0392 37.8102 31.5866 37.0426 29.8932C34.51 24.3211 28.9741 23.3821 28.8017 19.0212C28.6932 16.2328 30.8588 14.1096 31.0008 13.9775C34.2962 10.8406 38.139 14.2863 46.5411 13.021C48.579 12.7154 51.9462 12.1711 55.5656 9.80286C58.7493 7.72268 60.8031 5.09819 62 3.28062L52.7377 0.411033L52.7409 0.414216H52.7393Z" fill="#10B68B"></path>
<path d="M17.3983 36.7137C17.0181 37.2295 16.0537 38.5395 14.566 38.6388C12.3559 38.7894 10.8929 36.1516 10.6806 35.7512C9.66846 33.8437 9.64871 31.3629 10.6806 29.4058C11.5445 27.7706 13.5276 25.767 15.4563 26.2988C16.9753 26.7184 17.683 28.4961 18.0483 29.4058C18.9024 31.5487 18.9847 34.5628 17.3999 36.7137H17.3983Z" fill="white"></path><path d="M29.2089 29.748C30.1992 33.7075 27.1261 36.678 26.9964 36.8006C26.562 37.204 24.63 39.0111 22.8729 38.3221C20.372 37.3411 20.487 32.186 20.5065 31.397C20.5357 30.132 20.6199 26.3855 22.7984 25.3141C23.792 24.8236 24.8455 25.0834 25.4712 25.3141C25.7872 25.4513 28.4341 26.6404 29.2137 29.748H29.2105H29.2089Z" fill="white"></path>
<path d="M17.567 28.9791C17.1404 28.3204 16.3797 27.9024 15.5827 27.8918C14.5475 27.8776 13.5422 28.5683 13.1354 29.5706C12.722 30.5907 12.9733 31.8693 13.7307 32.6095C14.23 33.0983 14.9246 33.3214 15.586 33.2576C15.9498 33.2222 16.3036 33.1018 16.6112 32.8928C17.2627 32.4466 17.7819 31.6461 17.9308 30.8563C18.0564 30.1904 17.9308 29.5388 17.5703 28.9791H17.567Z" fill="#112731"></path><path d="M28.4888 28.643C28.0622 27.9842 27.3016 27.5663 26.5046 27.5556C25.4694 27.5415 24.464 28.2321 24.0572 29.2344C23.6439 30.2545 23.8952 31.5331 24.6525 32.2733C25.1519 32.7621 25.8464 32.9852 26.5079 32.9215C26.8716 32.886 27.2255 32.7656 27.5331 32.5567C28.1846 32.1104 28.7038 31.3099 28.8526 30.5201C28.9783 29.8543 28.8526 29.2026 28.4922 28.643H28.4888Z" fill="#112731"></path>
<path d="M26.6313 31.9241C27.3272 31.9241 27.8914 31.3599 27.8914 30.664C27.8914 29.968 27.3272 29.4038 26.6313 29.4038C25.9353 29.4038 25.3711 29.968 25.3711 30.664C25.3711 31.3599 25.9353 31.9241 26.6313 31.9241Z" fill="white"></path><path d="M16.2972 31.9241C16.9468 31.9241 17.4734 31.3599 17.4734 30.664C17.4734 29.968 16.9468 29.4038 16.2972 29.4038C15.6477 29.4038 15.1211 29.968 15.1211 30.664C15.1211 31.3599 15.6477 31.9241 16.2972 31.9241Z" fill="white"></path>
</svg>