<svg width="32" height="32" viewBox="0 0 32 32" fill="none" xmlns="http://www.w3.org/2000/svg">
<path d="M32 16C32 7.16344 24.8366 0 16 0C7.16344 0 0 7.16344 0 16C0 24.8366 7.16344 32 16 32C24.8366 32 32 24.8366 32 16Z" fill="#E1147B" fill-opacity="0.4"/>
<g clip-path="url(#clip0_1788_12381)">
<path d="M17.6154 6.97925C17.9714 6.97925 18.2599 6.69068 18.2599 6.33472C18.2599 5.97875 17.9714 5.69019 17.6154 5.69019C17.2594 5.69019 16.9709 5.97875 16.9709 6.33472C16.9709 6.69068 17.2594 6.97925 17.6154 6.97925Z" fill="#9BCADA"/>
<path d="M25.6651 8.35987C26.0211 8.35987 26.3096 8.0713 26.3096 7.71533C26.3096 7.35937 26.0211 7.0708 25.6651 7.0708C25.3091 7.0708 25.0205 7.35937 25.0205 7.71533C25.0205 8.0713 25.3091 8.35987 25.6651 8.35987Z" fill="#C6E0EA"/>
<path d="M23.594 21.4771C23.9499 21.4771 24.2385 21.1885 24.2385 20.8325C24.2385 20.4766 23.9499 20.188 23.594 20.188C23.238 20.188 22.9494 20.4766 22.9494 20.8325C22.9494 21.1885 23.238 21.4771 23.594 21.4771Z" fill="#F0F5FA"/>
<path d="M19.4518 24.9287C19.8078 24.9287 20.0963 24.6401 20.0963 24.2842C20.0963 23.9282 19.8078 23.6396 19.4518 23.6396C19.0958 23.6396 18.8073 23.9282 18.8073 24.2842C18.8073 24.6401 19.0958 24.9287 19.4518 24.9287Z" fill="#9BCADA"/>
<path d="M7.02524 13.8828C7.3812 13.8828 7.66977 13.5942 7.66977 13.2383C7.66977 12.8823 7.3812 12.5938 7.02524 12.5938C6.66927 12.5938 6.38071 12.8823 6.38071 13.2383C6.38071 13.5942 6.66927 13.8828 7.02524 13.8828Z" fill="#F0F5FA"/>
<path d="M26.3555 24.6752H25.9644V24.2842C25.9644 23.9282 25.6758 23.6396 25.3199 23.6396C24.964 23.6396 24.6754 23.9282 24.6754 24.2842V24.6752H24.2843C23.9284 24.6752 23.6398 24.9637 23.6398 25.3197C23.6398 25.6757 23.9284 25.9643 24.2843 25.9643H24.6754V26.3552C24.6754 26.7112 24.964 26.9998 25.3199 26.9998C25.6758 26.9998 25.9644 26.7112 25.9644 26.3552V25.9643H26.3555C26.7114 25.9643 27 25.6757 27 25.3197C27 24.9637 26.7114 24.6752 26.3555 24.6752Z" fill="#C6E0EA"/>
<path d="M15.5255 25.1919C17.9337 22.7837 17.9337 18.8793 15.5255 16.4711C13.1173 14.063 9.21292 14.063 6.80473 16.4711C4.39654 18.8794 4.39653 22.7838 6.8047 25.1919C9.21287 27.6001 13.1173 27.6001 15.5255 25.1919Z" fill="#00F4FF"/>
<path d="M22.2133 18.7153C24.8569 18.7153 27 16.5722 27 13.9286C27 11.2849 24.8569 9.14185 22.2133 9.14185C19.5696 9.14185 17.4266 11.2849 17.4266 13.9286C17.4266 16.5722 19.5696 18.7153 22.2133 18.7153Z" fill="#FF6378"/>
<path d="M12.6866 10.8871C14.2486 10.2396 14.99 8.44856 14.3425 6.8866C13.6951 5.32465 11.904 4.58328 10.3421 5.23071C8.78011 5.87815 8.03874 7.66922 8.68617 9.23117C9.33361 10.7931 11.1247 11.5345 12.6866 10.8871Z" fill="#FFB428"/>
<path d="M11.1674 14.6648V26.9997C14.5682 26.9997 17.3349 24.233 17.3349 20.8323C17.3349 17.4316 14.5682 14.6648 11.1674 14.6648Z" fill="#00B4FC"/>
<path d="M17.3349 20.8323C17.3349 17.4315 14.5682 14.6648 11.1675 14.6648C8.51007 14.6648 6.23986 16.3542 5.3743 18.7154H11.8578C12.2637 18.7154 12.594 19.0456 12.594 19.4515C12.594 19.864 12.2599 20.1877 11.8578 20.1877H10.4771C9.38195 20.1877 8.45185 21.0708 8.45185 22.2129C8.45185 23.3297 9.36038 24.2382 10.4771 24.2382H16.3065C16.9559 23.2617 17.3349 22.0905 17.3349 20.8323Z" fill="#00B4FC"/>
<path d="M17.3349 20.8323C17.3349 17.4315 14.5682 14.6648 11.1674 14.6648V18.7154H11.8578C12.2637 18.7154 12.594 19.0456 12.594 19.4515C12.594 19.864 12.2599 20.1877 11.8578 20.1877H11.1674V24.2383H16.3065C16.9559 23.2617 17.3349 22.0905 17.3349 20.8323Z" fill="#0073F9"/>
<path d="M22.2133 18.7153V9.14185C24.8527 9.14185 27 11.2891 27 13.9286C27 16.568 24.8527 18.7153 22.2133 18.7153Z" fill="#D000B1"/>
<path d="M22.9037 14.6648H17.4832C17.5536 15.1186 17.6881 15.5513 17.8768 15.9539H22.9036C23.2596 15.9539 23.5481 15.6653 23.5481 15.3093C23.5481 14.9534 23.2596 14.6648 22.9037 14.6648Z" fill="#D000B1"/>
<path d="M26.5498 11.9036H21.5229C21.1669 11.9036 20.8784 12.1921 20.8784 12.5481C20.8784 12.904 21.1669 13.1926 21.5229 13.1926H26.9433C26.873 12.7388 26.7385 12.306 26.5498 11.9036Z" fill="#D000B1"/>
<path d="M23.5482 15.3093C23.5482 14.9534 23.2596 14.6648 22.9037 14.6648H22.2133V15.9539H22.9036C23.2596 15.9539 23.5482 15.6653 23.5482 15.3093Z" fill="#9330A0"/>
<path d="M26.9165 13.038C26.9147 13.0284 26.9129 13.0188 26.911 13.0092C26.8905 12.9046 26.8668 12.8012 26.8396 12.6992C26.838 12.693 26.8363 12.6869 26.8346 12.6807C26.8209 12.63 26.8065 12.5795 26.7912 12.5295C26.7911 12.5292 26.791 12.5289 26.7909 12.5285C26.7579 12.4212 26.7213 12.3154 26.6812 12.2113C26.6811 12.2111 26.6811 12.2109 26.6809 12.2107C26.6407 12.1065 26.597 12.0041 26.5498 11.9036H22.2133V13.1926H26.9433C26.9353 13.1407 26.9262 13.0892 26.9165 13.038Z" fill="#9330A0"/>
<path d="M14.5734 8.06079C14.5734 6.37307 13.2004 5 11.5126 5V11.1216C13.2004 11.1216 14.5734 9.74857 14.5734 8.06079Z" fill="#FF8C00"/>
</g>
<defs>
<clipPath id="clip0_1788_12381">
<rect width="22" height="22" fill="white" transform="translate(5 5)"/>
</clipPath>
</defs>
</svg>
