<svg width="200" height="200" viewBox="0 0 200 200" fill="none" xmlns="http://www.w3.org/2000/svg">
<g clip-path="url(#clip0_702_436)">
<path fill-rule="evenodd" clip-rule="evenodd" d="M125.002 21.4524C98.225 33.5024 67.566 57.7944 54.657 71.2294C54.162 71.6694 53.677 72.1244 53.203 72.5944C37.107 88.5894 39.627 116.989 58.254 138.01L57.866 138.009C28.263 138.009 3.88099 147.571 0.679991 159.868C-0.340009 162.675 0.0369905 170.575 0.233991 174.708C0.283991 175.773 0.32399 176.587 0.32399 177C0.32399 188.292 26.406 200 57.95 200C89.494 200 115.064 189.888 115.064 177.417C115.064 177.158 115.081 176.455 115.105 175.474C115.17 172.778 115.286 167.981 115.241 164.517C115.553 162.769 115.43 160.971 114.883 159.281C121.342 157.786 127.23 154.8 132.041 150.268L131.687 150.625C130.52 151.786 129.273 152.863 127.955 153.848C136.022 149.695 141.938 140.872 149.354 129.433C172.877 89.0384 195.382 47.1184 199.456 17.9234C202.339 -2.74062 193.788 -2.10262 173.05 2.98438C162.992 5.45238 133.794 17.4944 125.002 21.4524V21.4524ZM113.008 155.564C106.626 146.429 88.174 139.521 65.568 138.228C65.002 138.196 64.433 138.167 63.862 138.141C43.649 117.827 41.32 90.0414 56.022 75.4314C71.023 60.5264 100.124 62.7974 121.169 83.1744L65.569 138.228L121.17 83.1744C142.209 103.558 144.821 131.941 129.902 146.772H129.901C125.359 151.289 119.523 154.228 113.008 155.564V155.564ZM164.913 58.1944C164.913 53.1084 155.919 35.9734 149.36 32.7544C138.985 27.6684 138.985 32.7544 149.36 42.9284C153.741 47.2304 157.197 51.5304 159.727 54.6784C163.185 58.9814 164.913 61.1324 164.913 58.1954V58.1944ZM155.212 97.0264C156.207 93.8264 153.894 81.3544 150.401 78.0904C144.866 72.9364 143.864 76.1374 148.404 84.4934C150.319 88.0204 151.652 91.3734 152.63 93.8314C153.967 97.1934 154.636 98.8764 155.212 97.0264V97.0264ZM108.042 169.391C110.458 166.948 111.409 164.666 111.409 162.623C111.409 160.58 110.458 158.297 108.042 155.855C105.61 153.395 101.892 150.997 96.982 148.896C87.175 144.701 73.348 142.009 57.866 142.009C42.384 142.009 28.556 144.701 18.75 148.896C13.84 150.997 10.121 153.395 7.68999 155.855C5.27399 158.297 4.32299 160.58 4.32299 162.623C4.32299 164.666 5.27399 166.948 7.68899 169.391C10.121 171.85 13.839 174.249 18.75 176.349C28.557 180.544 42.384 183.236 57.866 183.236C73.348 183.236 87.175 180.544 96.982 176.349C101.892 174.249 105.61 171.85 108.042 169.391Z" fill="white"/>
<path fill-rule="evenodd" clip-rule="evenodd" d="M125.002 21.4524C98.225 33.5024 67.566 57.7944 54.657 71.2294C54.162 71.6694 53.677 72.1244 53.203 72.5944C37.107 88.5894 39.627 116.989 58.254 138.01L57.866 138.009C28.263 138.009 3.88099 147.571 0.679991 159.868C-0.340009 162.675 0.0369905 170.575 0.233991 174.708C0.283991 175.773 0.32399 176.587 0.32399 177C0.32399 188.292 26.406 200 57.95 200C89.494 200 115.064 189.888 115.064 177.417C115.064 177.158 115.081 176.455 115.105 175.474C115.17 172.778 115.286 167.981 115.241 164.517C115.553 162.769 115.43 160.971 114.883 159.281C121.342 157.786 127.23 154.8 132.041 150.268L131.687 150.625C130.52 151.786 129.273 152.863 127.955 153.848C136.022 149.695 141.938 140.872 149.354 129.433C172.877 89.0384 195.382 47.1184 199.456 17.9234C202.339 -2.74062 193.788 -2.10262 173.05 2.98438C162.992 5.45238 133.794 17.4944 125.002 21.4524V21.4524ZM113.596 156.47C107.573 146.459 87.196 138.913 62.407 138.085C42.652 117.604 40.263 89.6834 55.318 74.7224C70.848 59.2904 100.591 61.8574 121.865 82.4554C143.135 103.062 146.075 132.105 130.607 147.481H130.606C125.993 152.068 120.125 155.065 113.596 156.47V156.47ZM164.913 58.1954C164.913 53.1084 155.919 35.9734 149.36 32.7554C138.985 27.6684 138.985 32.7554 149.36 42.9284C153.741 47.2304 157.197 51.5304 159.727 54.6784C163.185 58.9814 164.913 61.1324 164.913 58.1954V58.1954ZM155.212 97.0264C156.207 93.8264 153.894 81.3544 150.401 78.0904C144.866 72.9364 143.864 76.1374 148.404 84.4934C150.319 88.0204 151.652 91.3734 152.63 93.8304C153.967 97.1934 154.636 98.8764 155.212 97.0264V97.0264ZM108.753 170.094C111.293 167.526 112.409 165.005 112.409 162.623C112.409 160.241 111.293 157.719 108.753 155.151C106.201 152.571 102.36 150.109 97.375 147.977C87.416 143.717 73.45 141.009 57.865 141.009C42.282 141.009 28.315 143.717 18.357 147.977C13.372 150.109 9.52999 152.571 6.97799 155.151C4.43799 157.719 3.32299 160.241 3.32299 162.623C3.32299 165.005 4.43899 167.526 6.97799 170.094C9.52999 172.675 13.372 175.137 18.357 177.269C28.315 181.528 42.282 184.236 57.866 184.236C73.45 184.236 87.416 181.528 97.375 177.269C102.36 175.137 106.201 172.675 108.753 170.094Z" fill="#8878C3"/>
<path d="M149.36 32.7554C155.92 35.9734 164.914 53.1084 164.914 58.1954C164.914 63.2824 159.729 53.1084 149.36 42.9284C138.985 32.7554 138.985 27.6684 149.36 32.7554V32.7554ZM150.401 78.0904C153.894 81.3544 156.207 93.8254 155.212 97.0264C154.216 100.228 152.939 92.8494 148.405 84.4934C143.865 76.1374 144.866 72.9364 150.401 78.0904V78.0904Z" fill="#6D619A"/>
<path d="M131.311 148.19C115.258 164.153 84.878 161.281 63.37 140.466C41.87 119.636 38.597 89.9284 54.613 74.0134C70.673 58.0554 101.059 60.9184 122.56 81.7374C144.06 102.566 147.328 132.269 131.311 148.19Z" fill="#BFB7DE" stroke="#6D619A" stroke-width="4"/>
<path d="M113.409 162.623C113.409 165.343 112.128 168.103 109.465 170.797C106.793 173.499 102.827 176.024 97.768 178.188C87.658 182.513 73.552 185.236 57.866 185.236C42.18 185.236 28.074 182.513 17.964 178.188C12.905 176.024 8.939 173.499 6.267 170.797C3.604 168.103 2.323 165.343 2.323 162.623C2.323 159.902 3.603 157.142 6.267 154.448C8.939 151.746 12.905 149.221 17.964 147.057C28.074 142.733 42.18 140.009 57.866 140.009C73.552 140.009 87.658 142.733 97.768 147.057C102.827 149.221 106.793 151.746 109.465 154.448C112.128 157.142 113.409 159.902 113.409 162.623Z" fill="#E3DFF3" stroke="#6D619A" stroke-width="4"/>
</g>
<defs>
<clipPath id="clip0_702_436">
<rect width="200" height="200" fill="white"/>
</clipPath>
</defs>
</svg>
