<svg width="32" height="32" viewBox="0 0 32 32" fill="none" xmlns="http://www.w3.org/2000/svg">
<path d="M32 16C32 7.16344 24.8366 0 16 0C7.16344 0 0 7.16344 0 16C0 24.8366 7.16344 32 16 32C24.8366 32 32 24.8366 32 16Z" fill="#00805C"/>
<path d="M13.054 24.2604C22.243 21.7989 23.7199 18.6813 23.7199 18.6813C21.6692 21.1427 13.8533 22.9909 13.8533 22.9909L13.054 24.2604Z" fill="white"/>
<path d="M25.4629 13.1844C25.4629 13.1844 24.0593 7.72211 19.6169 7.09222C15.1746 6.46234 12.9793 7.68685 12.9793 7.68685L12.5796 8.60921C12.5354 8.76825 12.4441 8.91021 12.3178 9.01645C12.1914 9.12269 12.0359 9.18825 11.8716 9.20452L10.7481 9.09942C10.5927 9.11468 10.441 9.15606 10.2993 9.22181C9.67704 9.50805 7.87934 10.3371 7.11878 10.6406C6.19573 11.0098 3.99078 11.6459 5.22151 12.8767C5.22151 12.8767 4.91383 11.9536 6.45224 11.4613C7.99066 10.969 11.6213 10.1075 12.6675 10.7844C13.7136 11.4613 12.2332 16.5682 11.7403 16.5682H10.2641C10.2641 16.5682 11.3102 17.5528 12.2332 17.2451C13.1563 16.9374 13.3997 16.5682 13.3997 16.5682C13.3997 16.5682 14.2605 12.0739 14.6912 11.4613C15.122 10.8487 23.3707 8.5691 25.4629 13.1844ZM14.2328 10.7844L14.0786 10.3212C20.3761 8.34301 23.2179 10.5383 23.2179 10.5383C18.8785 8.87679 14.2328 10.7844 14.2328 10.7844Z" fill="white"/>
<path d="M12.2741 11.5429C12.2741 11.5429 10.7972 11.3355 9.3611 13.1021C7.83236 14.98 6.57051 18.1066 3.55314 18.2297C3.55314 18.2297 5.17453 18.7634 6.28219 18.2297C6.28219 18.2297 4.8461 19.625 3 19.6657C3 19.6657 5.88739 19.9485 7.26608 18.025C8.99188 15.6216 9.3611 12.4044 12.2741 11.5429Z" fill="white"/>
<path d="M5.29907 13.9387C5.53484 14.0693 5.78258 14.1769 6.03889 14.2602C6.03889 14.2602 5.46432 13.6151 5.3205 13.2812L4.82614 13.0903L4.33384 12.3021C4.37437 12.5634 4.44156 12.8199 4.53436 13.0675C4.24119 12.6444 4.03861 12.15 4.29305 11.7683C4.84619 10.9386 7.55449 10.2299 8.35447 9.6761C8.8841 9.30895 10.4882 8.39143 11.3877 7.72974C11.9361 7.32646 12.5581 7.03448 13.2186 6.8703C28.1077 3.16012 26.7553 16.5682 26.7553 16.5682C28.069 7.35914 21.8939 5 17.836 5C13.778 5 10.818 6.41534 10.6341 6.59995C10.4502 6.78456 9.03414 8.44606 8.04955 9.06142C7.06497 9.67679 3.49584 10.5998 3.5553 11.8921C3.612 13.0502 5.01005 13.7963 5.29907 13.9387Z" fill="white"/>
<path d="M5.95654 12.1161C6.24255 12.4346 6.60711 12.6724 7.01381 12.8059C7.42051 12.9393 7.85511 12.9638 8.27419 12.8767C7.49496 12.7944 7.00267 11.536 7.00267 11.536C6.01808 11.713 5.95654 12.1161 5.95654 12.1161ZM7.63809 12.7737C7.63809 12.7737 7.00267 12.8352 6.20269 12.0131L6.42809 11.8285C6.42809 11.8285 6.87061 12.5434 7.63809 12.7737Z" fill="white"/>
<path d="M27.4528 11.536C27.4528 11.536 29.832 19.0912 23.7191 23.6449L23.2178 25.778C23.2178 25.778 30.5289 20.7174 27.4528 11.536Z" fill="white"/>
<path d="M12.0072 15.1942C12.0072 15.1942 12.7456 13.0376 12.541 12.116C12.541 12.116 12.1102 14.6404 11.1872 15.5219L9.95642 15.748C9.95642 15.748 11.0433 15.9942 11.4741 15.9942C11.9049 15.9942 12.0072 15.1942 12.0072 15.1942Z" fill="white"/>
<path d="M24.8269 20.3089C26.7815 16.3761 24.0069 11.0099 15.2451 13.2813C15.2451 13.2813 22.7346 11.8293 24.2938 16.2198C26.4427 22.2711 14.6941 25.0009 11.779 25.4911L9.95367 27.8295C9.95367 27.8295 22.7111 24.5681 24.8269 20.3089Z" fill="white"/>
</svg>
