<svg width="32" height="32" viewBox="0 0 32 32" fill="none" xmlns="http://www.w3.org/2000/svg">
    <g clip-path="url(#clip0_1617_159)">
        <path d="M16 32C24.8366 32 32 24.8366 32 16C32 7.16344 24.8366 0 16 0C7.16344 0 0 7.16344 0 16C0 24.8366 7.16344 32 16 32Z" fill="#1F2A37"/>
        <path d="M21.1198 24.0718L13.0558 26.3178V25.0278L20.3358 23.0688V22.9188L13.0558 20.9728V19.6828L21.1198 21.9168V24.0718ZM11.8698 18.4008C10.8798 18.4008 10.0928 18.1248 9.50979 17.5708C8.92479 17.0108 8.63379 16.2048 8.63379 15.1528V13.2628C8.63379 12.2108 8.92479 11.4088 9.50879 10.8558C10.0928 10.2948 10.8788 10.0148 11.8708 10.0148C12.8608 10.0148 13.6488 10.2948 14.2318 10.8548C14.8238 11.4088 15.1188 12.2108 15.1188 13.2628V15.1528C15.1188 16.2048 14.8238 17.0108 14.2318 17.5718C13.6488 18.1248 12.8618 18.4018 11.8708 18.4018L11.8698 18.4008ZM11.8698 17.2838C12.5078 17.2838 12.9998 17.0998 13.3448 16.7308C13.6908 16.3538 13.8638 15.8438 13.8638 15.1988V13.2168C13.8638 12.5718 13.6908 12.0648 13.3448 11.6968C12.9998 11.3198 12.5078 11.1318 11.8708 11.1318C11.2488 11.1318 10.7608 11.3198 10.4078 11.6968C10.0538 12.0648 9.87779 12.5718 9.87779 13.2168V15.1998C9.87779 15.8448 10.0538 16.3548 10.4078 16.7318C10.7608 17.0998 11.2478 17.2848 11.8708 17.2848L11.8698 17.2838ZM19.6218 18.4008C18.6318 18.4008 17.8438 18.1248 17.2598 17.5708C16.6768 17.0108 16.3848 16.2048 16.3848 15.1528V13.2628C16.3848 12.2108 16.6768 11.4088 17.2598 10.8558C17.8438 10.2948 18.6308 10.0148 19.6218 10.0148C20.6128 10.0148 21.3998 10.2948 21.9838 10.8548C22.5738 11.4088 22.8708 12.2108 22.8708 13.2628V15.1528C22.8708 16.2048 22.5748 17.0108 21.9838 17.5718C21.3998 18.1248 20.6128 18.4018 19.6218 18.4018V18.4008ZM19.6218 17.2838C20.2588 17.2838 20.7508 17.0998 21.0968 16.7308C21.4418 16.3538 21.6148 15.8438 21.6148 15.1988V13.2168C21.6148 12.5718 21.4418 12.0648 21.0968 11.6968C20.7508 11.3198 20.2588 11.1318 19.6218 11.1318C18.9998 11.1318 18.5118 11.3198 18.1588 11.6968C17.8058 12.0648 17.6288 12.5718 17.6288 13.2168V15.1998C17.6288 15.8448 17.8058 16.3548 18.1588 16.7318C18.5118 17.0998 18.9988 17.2838 19.6218 17.2838ZM11.8398 6.27979H19.9038V7.52479H11.8398V6.27979Z" fill="white"/>
    </g>
    <defs>
        <clipPath id="clip0_1617_159">
            <rect width="32" height="32" fill="white"/>
        </clipPath>
    </defs>
</svg>
