<?xml version="1.0" encoding="UTF-8"?>
<svg xmlns="http://www.w3.org/2000/svg" xmlns:xlink="http://www.w3.org/1999/xlink" width="200px" height="px" viewBox="0 0 200 200" version="1.1">
<g id="surface1">
<path style=" stroke:none;fill-rule:evenodd;fill:rgb(94.901961%,94.901961%,94.901961%);fill-opacity:1;" d="M 146.84375 168.421875 C 126.578125 171.632812 104.738281 167.632812 85.683594 155.578125 C 45.316406 130.105469 32.367188 78.050781 56.84375 39.367188 C 58.421875 36.738281 60.210938 34.316406 62.105469 32 C 44.578125 68.316406 57.949219 113.738281 94.421875 136.738281 C 127.738281 157.789062 169.472656 153.527344 195.789062 128.789062 C 209.421875 83.328125 189.222656 34.546875 147.441406 12.03125 C 105.660156 -10.484375 53.804688 -0.527344 23.335938 35.863281 C -7.136719 72.25 -7.832031 125.046875 21.671875 162.222656 C 51.171875 199.402344 102.746094 210.722656 145.105469 189.316406 C 117.167969 197.589844 87.046875 193.851562 61.980469 179 C 36.914062 164.148438 19.164062 139.527344 13 111.050781 C 34.847656 163.105469 94.019531 188.480469 146.789062 168.421875 Z M 146.84375 168.421875 "/>
<path style=" stroke:none;fill-rule:evenodd;fill:rgb(94.901961%,94.901961%,94.901961%);fill-opacity:1;" d="M 146.84375 168.421875 C 126.578125 171.632812 104.738281 167.632812 85.683594 155.578125 C 45.316406 130.105469 32.367188 78.050781 56.84375 39.367188 C 58.421875 36.738281 60.210938 34.316406 62.105469 32 C 44.578125 68.316406 57.949219 113.738281 94.421875 136.738281 C 127.738281 157.789062 169.472656 153.527344 195.789062 128.789062 C 209.421875 83.328125 189.222656 34.546875 147.441406 12.03125 C 105.660156 -10.484375 53.804688 -0.527344 23.335938 35.863281 C -7.136719 72.25 -7.832031 125.046875 21.671875 162.222656 C 51.171875 199.402344 102.746094 210.722656 145.105469 189.316406 C 117.167969 197.589844 87.046875 193.851562 61.980469 179 C 36.914062 164.148438 19.164062 139.527344 13 111.050781 C 34.847656 163.105469 94.019531 188.480469 146.789062 168.421875 Z M 146.84375 168.421875 "/>
</g>
</svg>
