<svg width="25" height="25" viewBox="0 0 25 25" fill="none" xmlns="http://www.w3.org/2000/svg">
<path d="M12.5 25C19.4036 25 25 19.4036 25 12.5C25 5.59644 19.4036 0 12.5 0C5.59644 0 0 5.59644 0 12.5C0 19.4036 5.59644 25 12.5 25Z" fill="#4C4E67"/>
<path fill-rule="evenodd" clip-rule="evenodd" d="M16.0001 14.6C14.9508 14.6 14.1001 15.4507 14.1001 16.5C14.1001 17.5493 14.9508 18.4 16.0001 18.4C17.0495 18.4 17.9001 17.5493 17.9001 16.5C17.9001 15.4507 17.0495 14.6 16.0001 14.6ZM12.9001 16.5C12.9001 14.7879 14.288 13.4 16.0001 13.4C17.7122 13.4 19.1001 14.7879 19.1001 16.5C19.1001 18.2121 17.7122 19.6 16.0001 19.6C14.288 19.6 12.9001 18.2121 12.9001 16.5Z" fill="white"/>
<path fill-rule="evenodd" clip-rule="evenodd" d="M5.90011 15C5.90011 14.1163 6.61645 13.4 7.50011 13.4H10.5001C11.3838 13.4 12.1001 14.1163 12.1001 15V18C12.1001 18.8837 11.3838 19.6 10.5001 19.6H7.50011C6.61645 19.6 5.90011 18.8837 5.90011 18V15ZM7.50011 14.6C7.2792 14.6 7.10011 14.7791 7.10011 15V18C7.10011 18.2209 7.2792 18.4 7.50011 18.4H10.5001C10.721 18.4 10.9001 18.2209 10.9001 18V15C10.9001 14.7791 10.721 14.6 10.5001 14.6H7.50011Z" fill="white"/>
<path fill-rule="evenodd" clip-rule="evenodd" d="M7.86863 6.28284C8.49347 5.658 9.50653 5.658 10.1314 6.28284L11.7173 7.86874C12.3421 8.49357 12.3421 9.50664 11.7173 10.1315L10.1314 11.7174C9.50653 12.3422 8.49347 12.3422 7.86863 11.7174L6.28273 10.1315C5.65789 9.50664 5.65789 8.49357 6.28273 7.86874L7.86863 6.28284ZM9.28284 7.13137C9.12663 6.97516 8.87337 6.97516 8.71716 7.13137L7.13126 8.71726C6.97505 8.87347 6.97505 9.12674 7.13126 9.28295L8.71716 10.8688C8.87337 11.0251 9.12663 11.0251 9.28284 10.8688L10.8687 9.28295C11.0249 9.12674 11.0249 8.87347 10.8687 8.71726L9.28284 7.13137Z" fill="white"/>
<path fill-rule="evenodd" clip-rule="evenodd" d="M14.6182 7.17844C15.2356 6.12003 16.7648 6.12003 17.3822 7.17844L19.1412 10.1938C19.7634 11.2605 18.994 12.6 17.7592 12.6H14.2412C13.0064 12.6 12.237 11.2605 12.8592 10.1938L14.6182 7.17844ZM16.3457 7.78308C16.1914 7.51848 15.809 7.51848 15.6547 7.78308L13.8957 10.7984C13.7402 11.0651 13.9325 11.4 14.2412 11.4H17.7592C18.0679 11.4 18.2602 11.0651 18.1047 10.7984L16.3457 7.78308Z" fill="white"/>
</svg>
