<svg width="13" height="11" viewBox="0 0 13 11" fill="none" xmlns="http://www.w3.org/2000/svg">
<path d="M7.02643 6.53177C6.89818 6.58747 6.75986 6.6162 6.62005 6.6162C6.48022 6.6162 6.34191 6.58747 6.21366 6.53177L1.28519 4.24911C1.20516 4.20875 1.1379 4.14696 1.09091 4.07063C1.04392 3.9943 1.01904 3.90643 1.01904 3.81679C1.01904 3.72715 1.04392 3.63928 1.09091 3.56295C1.1379 3.48663 1.20516 3.42484 1.28519 3.38447L6.21366 1.08452C6.34191 1.02883 6.48022 1.00009 6.62005 1.00009C6.75986 1.00009 6.89818 1.02883 7.02643 1.08452L11.9549 3.36718C12.0349 3.40755 12.1022 3.46933 12.1492 3.54566C12.1962 3.62199 12.221 3.70986 12.221 3.7995C12.221 3.88914 12.1962 3.97701 12.1492 4.05334C12.1022 4.12967 12.0349 4.19146 11.9549 4.23182L7.02643 6.53177Z" stroke="#101010" stroke-width="1.2" stroke-linecap="round" stroke-linejoin="round"/>
<path d="M12.2404 6.92093L6.96604 9.3506C6.8534 9.40196 6.73103 9.42859 6.60722 9.42859C6.48341 9.42859 6.36104 9.40196 6.24839 9.3506L1 6.92093" stroke="#101010" stroke-width="1.2" stroke-linecap="round" stroke-linejoin="round"/>
</svg>
