<svg width="11" height="14" viewBox="0 0 11 14" fill="none" xmlns="http://www.w3.org/2000/svg">
<path d="M2.09114 6.88002L5.3336 8.77831C5.6206 8.94633 5.97578 8.94704 6.26345 8.78017L9.54005 6.87942C9.82482 6.71423 10.0001 6.40992 10.0001 6.0807V3.45053C10.0001 3.11905 9.82242 2.813 9.53456 2.64865L6.25794 0.777822C5.97307 0.615175 5.6233 0.615868 5.33908 0.779643L2.09664 2.64802C1.81057 2.81287 1.63428 3.11791 1.63428 3.44808V6.08316C1.63428 6.41105 1.80817 6.71435 2.09114 6.88002Z" stroke="#101010" stroke-width="1.31264"/>
<path d="M1.63428 9.26811V10.4457C1.63428 10.7736 1.80817 11.0769 2.09114 11.2426L5.3336 13.1408C5.6206 13.3089 5.97578 13.3096 6.26345 13.1427L9.54005 11.242C9.82482 11.0768 10.0001 10.7725 10.0001 10.4432V9.35259" stroke="#101010" stroke-width="1.31264" stroke-linecap="round"/>
</svg>
