<svg width="10" height="14" viewBox="0 0 10 14" fill="none" xmlns="http://www.w3.org/2000/svg">
<path d="M5.77927 6.34722C6.34743 6.3171 6.9677 6.12255 7.36027 5.74231C7.75283 5.36209 7.97408 4.85836 7.9792 4.3332C7.98432 3.80805 7.77291 3.30074 7.38782 2.91406C7.00272 2.52737 6.47275 2.29024 5.90526 2.2507H1.81468C1.59861 2.2507 1.39139 2.32991 1.23861 2.4709C1.08583 2.61189 1 2.80311 1 3.0025V10.5112C1 10.7106 1.08583 10.9019 1.23861 11.0429C1.39139 11.1839 1.59861 11.263 1.81468 11.263H5.86503C6.56659 11.263 7.2394 11.0059 7.73548 10.5481C8.23158 10.0903 8.51028 9.46941 8.51028 8.82201C8.51028 8.1746 8.23158 7.55372 7.73548 7.09594C7.2394 6.63815 6.48083 6.34722 5.77927 6.34722Z" stroke="white" stroke-width="1.2" stroke-linecap="round" stroke-linejoin="round"/>
<path d="M2.84375 1.62519V1" stroke="white" stroke-width="1.2" stroke-linecap="round" stroke-linejoin="round"/>
<path d="M5.34424 1.62519V1" stroke="white" stroke-width="1.2" stroke-linecap="round" stroke-linejoin="round"/>
<path d="M2.84375 12.5672V11.6294" stroke="white" stroke-width="1.2" stroke-linecap="round" stroke-linejoin="round"/>
<path d="M5.34424 12.5672V11.6294" stroke="white" stroke-width="1.2" stroke-linecap="round" stroke-linejoin="round"/>
<path d="M6.46203 6.3465H1" stroke="white" stroke-width="1.2" stroke-linecap="round" stroke-linejoin="round"/>
</svg>
