<svg width="16" height="16" viewBox="0 0 16 16" fill="none" xmlns="http://www.w3.org/2000/svg">
<g clip-path="url(#clip0_161_5214)">
<path d="M6.99344 1.48703L3.66677 2.74036C2.9001 3.02703 2.27344 3.9337 2.27344 4.74703V9.70036C2.27344 10.487 2.79344 11.5204 3.42677 11.9937L6.29344 14.1337C7.23344 14.8404 8.7801 14.8404 9.7201 14.1337L12.5868 11.9937C13.2201 11.5204 13.7401 10.487 13.7401 9.70036V4.74703C13.7401 3.92703 13.1134 3.02036 12.3468 2.7337L9.0201 1.48703C8.45344 1.28036 7.54677 1.28036 6.99344 1.48703Z" stroke="#101010" stroke-linecap="round" stroke-linejoin="round"/>
<path d="M8.00008 8.33366C8.73646 8.33366 9.33341 7.73671 9.33341 7.00033C9.33341 6.26395 8.73646 5.66699 8.00008 5.66699C7.2637 5.66699 6.66675 6.26395 6.66675 7.00033C6.66675 7.73671 7.2637 8.33366 8.00008 8.33366Z" stroke="#101010" stroke-miterlimit="10" stroke-linecap="round" stroke-linejoin="round"/>
<path d="M8 8.33301V10.333" stroke="#101010" stroke-miterlimit="10" stroke-linecap="round" stroke-linejoin="round"/>
</g>
<defs>
<clipPath id="clip0_161_5214">
<rect width="16" height="16" fill="white"/>
</clipPath>
</defs>
</svg>
