<svg width="30" height="14" viewBox="0 0 30 14" fill="none" xmlns="http://www.w3.org/2000/svg">
<path d="M0 12.417V11.0518C0.000140438 10.5398 0.255661 10.0613 0.681641 9.77734L5.44141 6.60449C5.53366 6.54299 5.58984 6.439 5.58984 6.32812V4.03223C5.58984 3.8491 5.44093 3.70024 5.25781 3.7002H1.53125C1.3481 3.7002 1.19922 3.84908 1.19922 4.03223V5.59961C1.19919 5.93096 0.930962 6.19922 0.599609 6.19922C0.268256 6.19922 2.90081e-05 5.93096 0 5.59961V4.03223C0 3.18633 0.685357 2.50098 1.53125 2.50098H5.25781C6.10367 2.50102 6.78906 3.18636 6.78906 4.03223V6.32812C6.78906 6.84014 6.53338 7.31846 6.10742 7.60254L1.34766 10.7764C1.25552 10.8378 1.19936 10.941 1.19922 11.0518V12.417C1.1993 12.6001 1.34815 12.748 1.53125 12.748H6.18945C6.52078 12.7481 6.78906 13.0173 6.78906 13.3486C6.78897 13.6799 6.52073 13.9482 6.18945 13.9482H1.53125C0.685408 13.9482 8.24794e-05 13.2628 0 12.417Z" fill="white"/>
<path d="M15.7509 3.75L15.3593 3.75C15.0781 3.75008 14.8262 3.92424 14.7274 4.1875L11.5233 12.7324C11.2488 13.464 10.5489 13.9482 9.76746 13.9482L8.73914 13.9482C8.40776 13.9482 8.13953 13.68 8.13953 13.3486C8.13953 13.0173 8.40776 12.749 8.73914 12.749L9.76746 12.749C10.0488 12.749 10.3015 12.5739 10.4003 12.3105L13.6044 3.7666C13.8788 3.0349 14.5778 2.54989 15.3593 2.5498L15.7509 2.5498C16.0821 2.54982 16.3503 2.81823 16.3505 3.14941C16.3505 3.48078 16.0822 3.74999 15.7509 3.75Z" fill="white"/>
<path d="M19.5751 3.75L19.1835 3.75C18.9024 3.75019 18.6504 3.92427 18.5516 4.1875L15.3475 12.7324C15.073 13.4639 14.3739 13.9482 13.5927 13.9482L13.201 13.9482C12.8697 13.9482 12.6014 13.68 12.6014 13.3486C12.6014 13.0173 12.8697 12.749 13.201 12.749L13.5927 12.749C13.8739 12.7489 14.1257 12.5739 14.2245 12.3105L17.4286 3.7666C17.7029 3.03498 18.4021 2.55 19.1835 2.5498L19.5751 2.5498C19.9063 2.5498 20.1754 2.81822 20.1757 3.14941C20.1757 3.48078 19.9064 3.75 19.5751 3.75Z" fill="white"/>
<path d="M17.4172 13.9482L17.0256 13.9482C16.6943 13.9482 16.426 13.68 16.426 13.3486C16.426 13.0173 16.6943 12.749 17.0256 12.749L17.4172 12.749C17.6985 12.7489 17.9503 12.5739 18.0491 12.3105L20.6067 5.48926C20.723 5.17911 21.069 5.02162 21.3792 5.1377C21.6894 5.25404 21.847 5.59989 21.7307 5.91016L19.1721 12.7324C18.8976 13.4639 18.1985 13.9482 17.4172 13.9482Z" fill="#3B3D4F"/>
<path d="M19.5753 3.75008C19.2439 3.75008 18.9757 3.48087 18.9757 3.1495C18.9758 2.81817 19.244 2.54989 19.5753 2.54989L27.4259 2.54989L25.5743 1.06844C25.3158 0.861388 25.2746 0.483358 25.4816 0.224691C25.6886 -0.0335658 26.0657 -0.0756973 26.3243 0.130941L29.121 2.36868C29.6213 2.76901 29.6213 3.52998 29.121 3.9303L26.3243 6.16805C26.0657 6.37481 25.6886 6.3327 25.4816 6.0743C25.2746 5.8156 25.3157 5.43759 25.5743 5.23055L27.4249 3.75008L19.5753 3.75008Z" fill="white"/>
</svg>
