<svg width="30" height="14" viewBox="0 0 30 14" fill="none" xmlns="http://www.w3.org/2000/svg">
<path d="M0 12.4658V10.8126C0 10.4812 0.268239 10.212 0.599609 10.212C0.93098 10.212 1.19922 10.4812 1.19922 10.8126V12.4658C1.1993 12.6489 1.34815 12.7969 1.53125 12.7969H5.25781C5.44088 12.7968 5.58976 12.6489 5.58984 12.4658V10.7119C5.58967 10.5866 5.51831 10.4722 5.40625 10.416L3.86133 9.64355C2.73245 9.07911 2.73244 7.46776 3.86133 6.90332L5.40625 6.13086C5.51849 6.07465 5.58984 5.95952 5.58984 5.83398V4.08105C5.58984 3.89793 5.44093 3.74906 5.25781 3.74902H1.53125C1.3481 3.74902 1.19922 3.8979 1.19922 4.08105V5.6917C1.19919 6.02304 0.930962 6.29131 0.599609 6.29131C0.268256 6.29131 2.88792e-05 6.02304 0 5.6917V4.08105C0 3.23516 0.685357 2.5498 1.53125 2.5498H5.25781C6.10367 2.54985 6.78906 3.23519 6.78906 4.08105V5.83398C6.78906 6.41412 6.46127 6.94466 5.94238 7.2041L4.39746 7.97656C4.15321 8.09883 4.15316 8.44809 4.39746 8.57031L5.94238 9.34277C6.46113 9.60215 6.78889 10.132 6.78906 10.7119V12.4658C6.78898 13.3116 6.10362 13.997 5.25781 13.9971H1.53125C0.685408 13.9971 8.24793e-05 13.3116 0 12.4658Z" fill="white"/>
<path d="M15.8978 3.74951L15.5062 3.74951C15.225 3.74959 14.9732 3.92375 14.8744 4.18701L11.6703 12.7319C11.3958 13.4635 10.6958 13.9478 9.91443 13.9478L8.88611 13.9478C8.55474 13.9478 8.2865 13.6795 8.2865 13.3481C8.2865 13.0168 8.55474 12.7485 8.88611 12.7485L9.91443 12.7485C10.1957 12.7485 10.4485 12.5735 10.5472 12.3101L13.7513 3.76611C14.0257 3.03441 14.7248 2.5494 15.5062 2.54932L15.8978 2.54932C16.2291 2.54933 16.4972 2.81774 16.4974 3.14893C16.4974 3.48029 16.2292 3.7495 15.8978 3.74951Z" fill="white"/>
<path d="M19.7222 3.74951L19.3306 3.74951C19.0495 3.7497 18.7975 3.92378 18.6987 4.18701L15.4946 12.7319C15.2201 13.4634 14.521 13.9477 13.7397 13.9478L13.3481 13.9478C13.0168 13.9478 12.7485 13.6795 12.7485 13.3481C12.7485 13.0168 13.0168 12.7485 13.3481 12.7485L13.7397 12.7485C14.021 12.7484 14.2728 12.5734 14.3716 12.3101L17.5757 3.76611C17.85 3.0345 18.5492 2.54951 19.3306 2.54932L19.7222 2.54932C20.0534 2.54932 20.3225 2.81773 20.3228 3.14893C20.3228 3.4803 20.0535 3.74951 19.7222 3.74951Z" fill="white"/>
<path d="M23.155 3.74951C22.8739 3.74971 22.6219 3.92379 22.5232 4.18701L19.3191 12.7319C19.0446 13.4634 18.3455 13.9477 17.5642 13.9478L17.1726 13.9478C16.8412 13.9478 16.573 13.6795 16.573 13.3481C16.573 13.0168 16.8412 12.7485 17.1726 12.7485L17.5642 12.7485C17.8454 12.7484 18.0973 12.5734 18.196 12.3101L21.4001 3.76611C21.6745 3.0345 22.3737 2.54951 23.155 2.54932L27.573 2.54932L25.7214 1.06787C25.4631 0.860906 25.4211 0.483723 25.6277 0.225097C25.8347 -0.0336594 26.2127 -0.0756583 26.4714 0.131347L29.2678 2.36814C29.7682 2.76843 29.7683 3.5295 29.2679 3.92986L26.4714 6.16748C26.2127 6.37449 25.8347 6.33249 25.6277 6.07373C25.421 5.81513 25.4632 5.43797 25.7214 5.23096L27.573 3.74951L23.155 3.74951Z" fill="white"/>
</svg>
