<svg width="30" height="14" viewBox="0 0 30 14" fill="none" xmlns="http://www.w3.org/2000/svg">
<path d="M3.26074 3.92578C3.26055 3.80153 3.15942 3.70131 3.03516 3.70117C2.94133 3.70117 2.85731 3.75891 2.82422 3.84668L1.62695 7.03809C1.5105 7.34818 1.16467 7.50499 0.854492 7.38867C0.544456 7.27219 0.387599 6.92636 0.503906 6.61621L1.7002 3.42578C1.90883 2.86943 2.44098 2.50098 3.03516 2.50098C3.82216 2.50111 4.45977 3.13879 4.45996 3.92578V12.749H6.18945C6.52079 12.7491 6.78906 13.0173 6.78906 13.3486C6.78904 13.68 6.52078 13.9482 6.18945 13.9482H0.599609C0.268265 13.9482 2.47522e-05 13.68 0 13.3486C0 13.0173 0.26825 12.749 0.599609 12.749H3.26074V3.92578Z" fill="white"/>
<path d="M15.8978 3.75L15.5062 3.75C15.225 3.75008 14.9732 3.92424 14.8744 4.1875L11.6703 12.7324C11.3958 13.464 10.6958 13.9482 9.91443 13.9482L8.88611 13.9482C8.55474 13.9482 8.2865 13.68 8.2865 13.3486C8.2865 13.0173 8.55474 12.749 8.88611 12.749L9.91443 12.749C10.1957 12.749 10.4485 12.5739 10.5472 12.3105L13.7513 3.7666C14.0257 3.0349 14.7248 2.54989 15.5062 2.5498L15.8978 2.5498C16.2291 2.54982 16.4972 2.81823 16.4974 3.14941C16.4974 3.48078 16.2292 3.74999 15.8978 3.75Z" fill="white"/>
<path d="M17.5643 13.9482L17.1727 13.9482C16.8414 13.9482 16.5731 13.68 16.5731 13.3486C16.5731 13.0173 16.8414 12.749 17.1727 12.749L17.5643 12.749C17.8456 12.7489 18.0974 12.5739 18.1962 12.3105L20.7538 5.48926C20.8701 5.17911 21.2161 5.02162 21.5262 5.1377C21.8365 5.25404 21.9941 5.59989 21.8778 5.91016L19.3192 12.7324C19.0447 13.4639 18.3456 13.9482 17.5643 13.9482Z" fill="#3B3D4F"/>
<path d="M13.7397 13.9482L13.3481 13.9482C13.0168 13.9482 12.7485 13.68 12.7485 13.3486C12.7485 13.0173 13.0168 12.749 13.3481 12.749L13.7397 12.749C14.021 12.7489 14.2728 12.5739 14.3716 12.3105L16.9292 5.48926C17.0455 5.17911 17.3915 5.02162 17.7017 5.1377C18.0119 5.25404 18.1696 5.59989 18.0532 5.91016L15.4946 12.7324C15.2201 13.4639 14.521 13.9482 13.7397 13.9482Z" fill="#3B3D4F"/>
<path d="M15.8978 3.75012C15.5665 3.75012 15.2982 3.4809 15.2982 3.14953C15.2983 2.81821 15.5665 2.54992 15.8978 2.54992L27.5726 2.54992L25.722 1.06848C25.4633 0.861471 25.4213 0.483483 25.6283 0.224726C25.8352 -0.0336094 26.2124 -0.0755172 26.4711 0.130976L29.2683 2.36864C29.7688 2.76897 29.7688 3.53009 29.2683 3.93042L26.4711 6.16809C26.2124 6.3747 25.8352 6.33281 25.6283 6.07434C25.4213 5.81558 25.4633 5.43759 25.722 5.23059L27.5717 3.75012L15.8978 3.75012Z" fill="white"/>
</svg>
