<svg width="37" height="36" viewBox="0 0 37 36" fill="none" xmlns="http://www.w3.org/2000/svg">
<path d="M33.8485 13.5575H31.5471C32.0069 12.1244 32.1832 10.5768 32.017 8.98563C31.871 7.59265 31.4729 6.28412 30.873 5.10352C32.551 6.55419 33.7 8.61523 33.948 10.9856C34.04 11.8652 34.002 12.7298 33.8476 13.5584L33.8485 13.5575Z" fill="white"/>
<path d="M30.0451 13.5606H27.9453C29.0091 10.574 28.8008 7.16347 27.0815 4.20443C26.3779 2.99122 25.4778 1.95526 24.4443 1.11914C26.5736 1.76714 28.4675 3.18854 29.6688 5.25293C31.2025 7.89507 31.2422 10.9862 30.0451 13.5606Z" fill="white"/>
<path d="M25.9467 13.5585H24.9529C26.0049 9.26754 24.4332 4.58274 20.6099 1.82187C19.4685 0.997453 18.2208 0.413004 16.9326 0.066013C19.1437 -0.199874 21.4578 0.333572 23.4015 1.73659C27.207 4.48325 28.2421 9.60199 25.9467 13.5577V13.5585Z" fill="white"/>
<path d="M22.6864 13.5568C22.9328 13.0024 23.126 12.4146 23.2584 11.7984C24.3138 6.90795 21.1696 2.09606 16.237 1.05091C13.885 0.552582 11.5532 0.998235 9.6416 2.13202C10.961 1.93135 12.3386 1.96145 13.7205 2.25409C19.1559 3.40627 22.8417 8.23989 22.6864 13.5568Z" fill="white"/>
<path d="M20.4348 12.1419C20.4331 11.5357 20.3673 10.9212 20.2357 10.3049C19.193 5.41194 14.3465 2.28401 9.41046 3.31746C7.05762 3.80993 5.11055 5.15776 3.8291 6.96378C4.95195 6.24806 6.22328 5.72047 7.60512 5.43117C13.0439 4.29238 18.3941 7.22215 20.434 12.1419H20.4348Z" fill="white"/>
<path d="M17.795 11.7556C17.5444 11.2029 17.2323 10.6678 16.8594 10.1577C13.8983 6.10756 8.18703 5.20455 4.10224 8.13767C2.15518 9.5365 0.929401 11.5524 0.5 13.7188C1.23226 12.6126 2.17711 11.6176 3.32105 10.7965C7.82174 7.56409 13.9118 8.08332 17.795 11.7556Z" fill="white"/>
<path d="M15.2244 12.4643C14.7689 12.0605 14.2644 11.6976 13.7143 11.3816C9.34779 8.87569 3.75883 10.3523 1.23136 14.6792C0.0266764 16.7419 -0.266057 19.0781 0.230833 21.2302C0.445955 19.925 0.900665 18.6349 1.60846 17.4234C4.39408 12.6558 10.1703 10.675 15.2244 12.4643Z" fill="white"/>
<path d="M13.1681 14.1488C12.586 13.9632 11.9761 13.8353 11.3442 13.7684C6.32641 13.2391 1.82741 16.8411 1.2934 21.8127C1.03863 24.1831 1.7304 26.4348 3.06753 28.2007C2.72839 26.9214 2.6145 25.5602 2.76382 24.1673C3.35182 18.689 7.81624 14.551 13.1681 14.148V14.1488Z" fill="white"/>
<path d="M11.9823 16.5195C11.3749 16.5847 10.765 16.7135 10.1601 16.9075C5.35906 18.4468 2.72698 23.5513 4.28007 28.308C5.01992 30.5756 6.5764 32.354 8.52178 33.4284C7.6866 32.3967 7.02436 31.1985 6.58905 29.8665C4.8782 24.6249 7.25888 19.0446 11.9823 16.5195Z" fill="white"/>
<path d="M11.8685 19.1572C11.3404 19.4616 10.8359 19.8253 10.3626 20.2459C6.60854 23.5878 6.29894 29.3119 9.66919 33.0318C11.2763 34.8053 13.4275 35.8027 15.6462 35.9992C14.4601 35.393 13.3625 34.5661 12.4185 33.5243C8.70409 29.4256 8.58936 23.3679 11.8676 19.1572H11.8685Z" fill="white"/>
<path d="M12.8509 21.6182C12.4932 22.1098 12.1819 22.6449 11.9221 23.2202C9.86364 27.7862 11.9297 33.1408 16.5358 35.1801C18.7317 36.1525 21.1057 36.1968 23.2139 35.4819C21.8818 35.4067 20.5396 35.0931 19.2497 34.522C14.1745 32.2754 11.5838 26.7879 12.8509 21.619V21.6182Z" fill="white"/>
<path d="M14.7571 23.4697C14.6322 24.0625 14.5673 24.6771 14.5664 25.3075C14.5605 30.3092 18.6445 34.3669 23.6893 34.3736C26.0944 34.3769 28.2819 33.4597 29.9135 31.9572C28.6658 32.4254 27.3109 32.6796 25.8979 32.6779C20.3393 32.6713 15.7205 28.703 14.7571 23.4697Z" fill="white"/>
<path d="M17.2567 24.3896C17.3858 24.9816 17.579 25.5694 17.8363 26.1455C19.8829 30.7166 25.2795 32.7776 29.8907 30.75C32.0892 29.7835 33.7106 28.0636 34.5854 26.0335C33.6372 26.9649 32.5042 27.7425 31.2126 28.3111C26.1315 30.5452 20.2836 28.7826 17.2559 24.3905L17.2567 24.3896Z" fill="white"/>
<path d="M35.3013 23.2373C34.9656 23.8401 34.5572 24.4129 34.0713 24.9455C30.6901 28.6554 24.9156 28.9489 21.1699 25.5977C20.6983 25.1754 20.2799 24.7156 19.918 24.2281C24.0627 26.759 29.4382 26.3803 33.1813 23.2373H35.3005H35.3013Z" fill="white"/>
<path d="M22.7246 23.2373H30.9187C28.8434 24.2682 26.3716 24.5216 23.9883 23.7507C23.5488 23.6102 23.1262 23.438 22.7246 23.2373Z" fill="white"/>
<path d="M34.9912 13.5588C35.1093 12.8155 35.1473 12.0721 35.111 11.3389C35.4409 12.042 35.6813 12.7895 35.8171 13.5588H34.9912Z" fill="white"/>
</svg>
