<svg width="22" height="15" viewBox="0 0 22 15" fill="none" xmlns="http://www.w3.org/2000/svg">
<path fill-rule="evenodd" clip-rule="evenodd" d="M9.42188 4.33594C10.9382 4.33606 12.3205 5.20463 12.9795 6.57031C13.1233 6.86874 12.9986 7.22812 12.7002 7.37207C12.4018 7.51581 12.0434 7.39005 11.8994 7.0918C11.4407 6.14081 10.4777 5.53626 9.42188 5.53613H4.45703C2.65821 5.53619 1.19922 6.99511 1.19922 8.79395V10.3076C1.19935 12.1063 2.65829 13.5654 4.45703 13.5654H9.01855C10.2833 13.5654 11.4195 12.7899 11.8809 11.6123C12.0018 11.3039 12.3497 11.1517 12.6582 11.2725C12.9667 11.3933 13.1187 11.7413 12.998 12.0498C12.3566 13.6872 10.7771 14.7646 9.01855 14.7646H4.45703C1.99555 14.7646 0.000131926 12.7691 0 10.3076V8.79395C0 6.33237 1.99547 4.33599 4.45703 4.33594H9.42188ZM17.0312 0C19.4928 9.74615e-05 21.4883 1.99646 21.4883 4.45801V5.97168C21.488 8.43301 19.4926 10.4286 17.0312 10.4287H12.5146C10.7442 10.4287 9.21613 9.18774 8.85254 7.45508C8.78458 7.13075 8.99208 6.8121 9.31641 6.74414C9.64052 6.67629 9.95818 6.88402 10.0264 7.20801C10.2733 8.38513 11.3119 9.22949 12.5146 9.22949H17.0312C18.8299 9.22939 20.2888 7.77027 20.2891 5.97168V4.45801C20.2891 2.6592 18.83 1.20029 17.0312 1.2002H12.2549C11.191 1.2002 10.2664 1.93295 10.0234 2.96875C9.94754 3.29078 9.62492 3.49123 9.30273 3.41602C8.98026 3.34037 8.78006 3.01681 8.85547 2.69434C9.22577 1.1162 10.6339 0 12.2549 0H17.0312Z" fill="white"/>
</svg>
