<svg width="45" height="15" viewBox="0 0 45 15" fill="none" xmlns="http://www.w3.org/2000/svg">
<path d="M21.4619 0.204148C21.9628 -0.0680531 22.5704 -0.0680458 23.0713 0.204148C24.0358 0.728445 26.1091 1.76491 27.8643 2.07134C28.638 2.20647 29.3545 2.85843 29.3545 3.75688C29.3545 5.76679 29.3555 7.97163 29.3555 9.50298C29.3553 10.9236 28.5192 12.2092 27.2227 12.7881L22.918 14.71C22.5032 14.8949 22.029 14.8951 21.6143 14.71L17.1201 12.7041C15.9388 12.1767 15.1778 11.0028 15.1777 9.70903C15.1777 8.68783 15.1778 5.4307 15.1777 3.75688C15.1777 2.85803 15.8955 2.20677 16.6689 2.07134C18.424 1.76481 20.4975 0.728397 21.4619 0.204148ZM22.498 1.25786C22.3547 1.18 22.1786 1.18012 22.0352 1.25786C21.0664 1.78444 18.8422 2.9105 16.876 3.25395C16.5613 3.30913 16.3779 3.55091 16.3779 3.75688C16.378 5.43067 16.3779 8.688 16.3779 9.70903C16.378 10.5292 16.8604 11.274 17.6094 11.6084L22.1035 13.6143C22.207 13.6604 22.3262 13.6603 22.4297 13.6143L26.7334 11.6924C27.5983 11.3062 28.1551 10.4494 28.1553 9.50298C28.1553 7.97163 28.1553 5.76679 28.1553 3.75688C28.1553 3.55084 27.9715 3.3088 27.6572 3.25395C25.6907 2.91053 23.4666 1.78437 22.498 1.25786ZM20.6748 5.7647C20.9336 5.55771 21.3116 5.5997 21.5186 5.85845C21.725 6.1171 21.6831 6.4943 21.4248 6.70122L19.4463 8.28423C19.2462 8.44437 19.2461 8.74911 19.4463 8.90923L21.4248 10.4913C21.6834 10.6983 21.7255 11.0763 21.5186 11.335C21.3116 11.5937 20.9335 11.6355 20.6748 11.4288L18.6963 9.84575C17.896 9.20518 17.8958 7.98718 18.6963 7.34673L20.6748 5.7647ZM22.7832 3.49419C22.9902 3.23559 23.3682 3.19354 23.627 3.40044L25.6055 4.98345C26.4055 5.6239 26.4054 6.84096 25.6055 7.48149L23.627 9.0645C23.3682 9.27151 22.9902 9.22951 22.7832 8.97075C22.5764 8.712 22.6183 8.33394 22.877 8.127L24.8555 6.54497C25.0555 6.38481 25.0556 6.08006 24.8555 5.91997L22.877 4.33794C22.6183 4.13095 22.5763 3.75292 22.7832 3.49419Z" fill="white"/>
<path d="M6.28418 0.204104C6.78499 -0.068068 7.39272 -0.0680012 7.89355 0.204104C8.8581 0.728395 10.9314 1.76485 12.6865 2.07129C13.4603 2.20643 14.1767 2.8584 14.1768 3.75684L14.1777 9.50293C14.1777 10.9238 13.3415 12.2091 12.0449 12.7881L7.74023 14.71C7.3254 14.8949 6.85131 14.8951 6.43652 14.71L1.94238 12.7041C0.760993 12.1765 -9.82089e-05 11.0028 9.50514e-09 9.70899C0.000134855 9.37792 0.268592 9.10969 0.599609 9.10938C0.930882 9.1094 1.20006 9.37775 1.2002 9.70899C1.20013 10.5293 1.68267 11.2739 2.43164 11.6084L6.92578 13.6143C7.02935 13.6604 7.14838 13.6604 7.25195 13.6143L11.5557 11.6924C12.4207 11.3061 12.9775 10.4495 12.9775 9.50293V3.75684C12.9775 3.5508 12.7938 3.30876 12.4795 3.25391C10.513 2.91048 8.2889 1.78433 7.32031 1.25781C7.17697 1.18004 7.00079 1.1801 6.85742 1.25781C5.88879 1.78435 3.66455 2.91044 1.69824 3.25391C1.38394 3.30898 1.20023 3.55139 1.2002 3.75782V4.73828C1.20018 5.06965 0.93098 5.33889 0.599609 5.33887C0.268488 5.33856 -1.76238e-05 5.06947 9.50514e-09 4.73828V3.75782C0.000106018 2.85935 0.71726 2.20677 1.49121 2.07129C3.2464 1.76475 5.31981 0.72832 6.28418 0.204104ZM4.78125 4.06348C4.98826 3.80472 5.36624 3.76272 5.625 3.96973L8.92731 6.61173C9.42769 7.01205 9.42769 7.77311 8.92731 8.17343L5.625 10.8154C5.36637 11.0223 4.9883 10.9801 4.78125 10.7217C4.57432 10.463 4.61633 10.0849 4.875 9.87793L7.21875 8.00293L0.804688 8.04102C0.473449 8.043 0.203354 7.77553 0.201172 7.44434C0.199282 7.11316 0.465714 6.84298 0.796875 6.84082L7.24512 6.80274L4.875 4.90625C4.61664 4.69933 4.57477 4.32213 4.78125 4.06348Z" fill="white"/>
<path d="M36.6396 0.204102C37.1405 -0.0680023 37.7482 -0.0680691 38.249 0.204102C39.2134 0.728317 41.2868 1.76474 43.042 2.07129C43.8159 2.20676 44.5331 2.85935 44.5332 3.75781V4.73828C44.5332 5.06947 44.2647 5.33856 43.9336 5.33887C43.6022 5.33888 43.333 5.06965 43.333 4.73828V3.75781C43.333 3.55139 43.1493 3.30898 42.835 3.25391C40.8687 2.91043 38.6444 1.78435 37.6758 1.25781C37.5324 1.1801 37.3562 1.18004 37.2129 1.25781C36.2443 1.78432 34.0203 2.91047 32.0537 3.25391C31.7395 3.30875 31.5557 3.55079 31.5557 3.75684V9.50293C31.5557 10.4495 32.1125 11.3061 32.9775 11.6924L37.2812 13.6143C37.3848 13.6604 37.5038 13.6604 37.6074 13.6143L42.1016 11.6084C42.8505 11.2739 43.3331 10.5293 43.333 9.70898C43.3331 9.37775 43.6023 9.1094 43.9336 9.10938C44.2646 9.10968 44.5331 9.37792 44.5332 9.70898C44.5333 11.0028 43.7722 12.1765 42.5908 12.7041L38.0967 14.71C37.6819 14.895 37.2078 14.8949 36.793 14.71L32.4883 12.7881C31.1917 12.2091 30.3555 10.9237 30.3555 9.50293L30.3564 3.75684C30.3565 2.8584 31.0729 2.20642 31.8467 2.07129C33.6019 1.76485 35.6751 0.728393 36.6396 0.204102ZM39.8105 4.06348C40.0176 3.80472 40.3955 3.76272 40.6543 3.96973L43.957 6.61133C44.4571 7.01155 44.4569 7.77245 43.957 8.17285L40.6543 10.8154C40.3957 11.0222 40.0176 10.98 39.8105 10.7217C39.6036 10.463 39.6457 10.0849 39.9043 9.87793L42.248 8.00293L35.834 8.04102C35.5028 8.04299 35.2327 7.77547 35.2305 7.44434C35.2286 7.11316 35.495 6.84298 35.8262 6.84082L42.2744 6.80273L39.9043 4.90625C39.646 4.69935 39.6041 4.32213 39.8105 4.06348Z" fill="white"/>
</svg>
