<svg width="15" height="15" viewBox="0 0 15 15" fill="none" xmlns="http://www.w3.org/2000/svg">
<path d="M6.28418 0.204148C6.78505 -0.0680531 7.39268 -0.0680458 7.89355 0.204148C8.85811 0.728445 10.9313 1.76491 12.6865 2.07134C13.4603 2.20647 14.1768 2.85843 14.1768 3.75688C14.1768 5.76679 14.1777 7.97163 14.1777 9.50298C14.1776 10.9236 13.3414 12.2092 12.0449 12.7881L7.74023 14.71C7.32545 14.8949 6.85125 14.8951 6.43652 14.71L1.94238 12.7041C0.761035 12.1767 6.14152e-05 11.0028 4.51422e-10 9.70903C-1.55002e-07 8.68783 3.99163e-05 5.4307 4.51422e-10 3.75688C-6.22767e-06 2.85803 0.717717 2.20677 1.49121 2.07134C3.24628 1.76481 5.31973 0.728397 6.28418 0.204148ZM7.32031 1.25786C7.17694 1.18 7.00085 1.18012 6.85742 1.25786C5.88869 1.78444 3.66442 2.9105 1.69824 3.25395C1.38357 3.30913 1.20019 3.55091 1.2002 3.75688C1.20024 5.43067 1.2002 8.688 1.2002 9.70903C1.20029 10.5292 1.68271 11.274 2.43164 11.6084L6.92578 13.6143C7.0293 13.6604 7.14842 13.6603 7.25195 13.6143L11.5557 11.6924C12.4206 11.3062 12.9774 10.4494 12.9775 9.50298C12.9775 7.97163 12.9775 5.76679 12.9775 3.75688C12.9775 3.55084 12.7938 3.3088 12.4795 3.25395C10.5129 2.91053 8.28891 1.78437 7.32031 1.25786ZM5.49707 5.7647C5.75583 5.55771 6.13382 5.5997 6.34082 5.85845C6.54729 6.1171 6.50541 6.4943 6.24707 6.70122L4.26855 8.28423C4.06844 8.44437 4.06841 8.74911 4.26855 8.90923L6.24707 10.4913C6.50562 10.6983 6.54777 11.0763 6.34082 11.335C6.13387 11.5937 5.75581 11.6355 5.49707 11.4288L3.51855 9.84575C2.71822 9.20518 2.71806 7.98718 3.51855 7.34673L5.49707 5.7647ZM7.60547 3.49419C7.81248 3.23559 8.19052 3.19354 8.44922 3.40044L10.4277 4.98345C11.2278 5.6239 11.2277 6.84096 10.4277 7.48149L8.44922 9.0645C8.19046 9.27151 7.81247 9.22951 7.60547 8.97075C7.39868 8.712 7.44054 8.33394 7.69922 8.127L9.67773 6.54497C9.87776 6.38481 9.87785 6.08006 9.67773 5.91997L7.69922 4.33794C7.44057 4.13095 7.39859 3.75292 7.60547 3.49419Z" fill="white"/>
</svg>
