<svg width="31" height="15" viewBox="0 0 31 15" fill="none" xmlns="http://www.w3.org/2000/svg">
<path d="M22.4619 0.204148C22.9628 -0.0680531 23.5704 -0.0680458 24.0713 0.204148C25.0358 0.728445 27.1091 1.76491 28.8643 2.07134C29.638 2.20647 30.3545 2.85843 30.3545 3.75688C30.3545 5.76679 30.3555 7.97163 30.3555 9.50298C30.3553 10.9236 29.5192 12.2092 28.2227 12.7881L23.918 14.71C23.5032 14.8949 23.029 14.8951 22.6143 14.71L18.1201 12.7041C16.9388 12.1767 16.1778 11.0028 16.1777 9.70903C16.1777 8.68783 16.1778 5.4307 16.1777 3.75688C16.1777 2.85803 16.8955 2.20677 17.6689 2.07134C19.424 1.76481 21.4975 0.728397 22.4619 0.204148ZM23.498 1.25786C23.3547 1.18 23.1786 1.18012 23.0352 1.25786C22.0664 1.78444 19.8422 2.9105 17.876 3.25395C17.5613 3.30913 17.3779 3.55091 17.3779 3.75688C17.378 5.43067 17.3779 8.688 17.3779 9.70903C17.378 10.5292 17.8604 11.274 18.6094 11.6084L23.1035 13.6143C23.207 13.6604 23.3262 13.6603 23.4297 13.6143L27.7334 11.6924C28.5983 11.3062 29.1551 10.4494 29.1553 9.50298C29.1553 7.97163 29.1553 5.76679 29.1553 3.75688C29.1553 3.55084 28.9715 3.3088 28.6572 3.25395C26.6907 2.91053 24.4666 1.78437 23.498 1.25786ZM21.6748 5.7647C21.9336 5.55771 22.3116 5.5997 22.5186 5.85845C22.725 6.1171 22.6831 6.4943 22.4248 6.70122L20.4463 8.28423C20.2462 8.44437 20.2461 8.74911 20.4463 8.90923L22.4248 10.4913C22.6834 10.6983 22.7255 11.0763 22.5186 11.335C22.3116 11.5937 21.9335 11.6355 21.6748 11.4288L19.6963 9.84575C18.896 9.20518 18.8958 7.98718 19.6963 7.34673L21.6748 5.7647ZM23.7832 3.49419C23.9902 3.23559 24.3682 3.19354 24.627 3.40044L26.6055 4.98345C27.4055 5.6239 27.4054 6.84096 26.6055 7.48149L24.627 9.0645C24.3682 9.27151 23.9902 9.22951 23.7832 8.97075C23.5764 8.712 23.6183 8.33394 23.877 8.127L25.8555 6.54497C26.0555 6.38481 26.0556 6.08006 25.8555 5.91997L23.877 4.33794C23.6183 4.13095 23.5763 3.75292 23.7832 3.49419Z" fill="white"/>
<path d="M6.28418 0.204104C6.78499 -0.068068 7.39272 -0.0680012 7.89355 0.204104C8.8581 0.728395 10.9314 1.76485 12.6865 2.07129C13.4603 2.20643 14.1767 2.8584 14.1768 3.75684L14.1777 9.50293C14.1777 10.9238 13.3415 12.2091 12.0449 12.7881L7.74023 14.71C7.3254 14.8949 6.85131 14.8951 6.43652 14.71L1.94238 12.7041C0.760993 12.1765 -9.82089e-05 11.0028 9.50514e-09 9.70899C0.000134855 9.37792 0.268592 9.10969 0.599609 9.10938C0.930882 9.1094 1.20006 9.37775 1.2002 9.70899C1.20013 10.5293 1.68267 11.2739 2.43164 11.6084L6.92578 13.6143C7.02935 13.6604 7.14838 13.6604 7.25195 13.6143L11.5557 11.6924C12.4207 11.3061 12.9775 10.4495 12.9775 9.50293V3.75684C12.9775 3.5508 12.7938 3.30876 12.4795 3.25391C10.513 2.91048 8.2889 1.78433 7.32031 1.25781C7.17697 1.18004 7.00079 1.1801 6.85742 1.25781C5.88879 1.78435 3.66455 2.91044 1.69824 3.25391C1.38394 3.30898 1.20023 3.55139 1.2002 3.75782V4.73828C1.20018 5.06965 0.93098 5.33889 0.599609 5.33887C0.268488 5.33856 -1.76238e-05 5.06947 9.50514e-09 4.73828V3.75782C0.000106018 2.85935 0.71726 2.20677 1.49121 2.07129C3.2464 1.76475 5.31981 0.72832 6.28418 0.204104ZM4.78125 4.06348C4.98826 3.80472 5.36624 3.76272 5.625 3.96973L8.92731 6.61173C9.42769 7.01205 9.42769 7.77311 8.92731 8.17343L5.625 10.8154C5.36637 11.0223 4.9883 10.9801 4.78125 10.7217C4.57432 10.463 4.61633 10.0849 4.875 9.87793L7.21875 8.00293L0.804688 8.04102C0.473449 8.043 0.203354 7.77553 0.201172 7.44434C0.199282 7.11316 0.465714 6.84298 0.796875 6.84082L7.24512 6.80274L4.875 4.90625C4.61664 4.69933 4.57477 4.32213 4.78125 4.06348Z" fill="white"/>
</svg>
