<svg width="9" height="16" viewBox="0 0 9 16" fill="none" xmlns="http://www.w3.org/2000/svg">
<path d="M4.09961 0C4.43098 0 4.69922 0.268239 4.69922 0.599609V1.40039H7.59961C7.93082 1.4004 8.19897 1.66885 8.19922 2C8.19921 2.33136 7.93097 2.60059 7.59961 2.60059L4.69922 2.59961V6.89941H5.59961C7.03543 6.89941 8.19903 8.06422 8.19922 9.5V10.999C8.19922 12.435 7.03555 13.5996 5.59961 13.5996H4.69922V14.5C4.69922 14.8314 4.43098 15.0996 4.09961 15.0996C3.76826 15.0996 3.5 14.8314 3.5 14.5V13.5996H0.599609C0.268266 13.5996 -4.76809e-07 13.3304 0 12.999C0.000446093 12.6681 0.268541 12.3994 0.599609 12.3994H3.5V8.09961H2.59961C1.16379 8.09958 0.000140199 6.9358 0 5.5V4C0.000188421 2.56424 1.16382 1.40042 2.59961 1.40039H3.5V0.599609C3.5 0.268257 3.76826 2.9848e-05 4.09961 0ZM4.69922 12.3994H5.59961C6.37281 12.3994 7 11.7722 7 10.999V9.5C6.99981 8.72696 6.37269 8.09961 5.59961 8.09961H4.69922V12.3994ZM2.59961 2.59961C1.82656 2.59964 1.19941 3.22698 1.19922 4V5.5C1.19936 6.27306 1.82653 6.89938 2.59961 6.89941H3.5V2.59961H2.59961Z" fill="#3B3D4F"/>
</svg>
