<svg width="10" height="17" viewBox="0 0 10 17" fill="none" xmlns="http://www.w3.org/2000/svg">
<path d="M4.70117 0C5.0324 0.000167715 5.30078 0.268342 5.30078 0.599609V2.09961H8.60059C8.93196 2.0996 9.20116 2.36785 9.20117 2.69922C9.20117 3.03058 8.93195 3.29882 8.60059 3.29883H5.30078V7.59961H6.60059C8.03655 7.59957 9.20117 8.76325 9.20117 10.1992V11.6992C9.20109 13.1351 8.03645 14.2988 6.60059 14.2988H5.30078V15.5996C5.30078 15.9309 5.0324 16.1991 4.70117 16.1992C4.3698 16.1992 4.10156 15.931 4.10156 15.5996V14.2988H0.599609C0.268423 14.2986 8.46045e-06 14.0305 0 13.6992C-2.17299e-07 13.368 0.268421 13.0998 0.599609 13.0996L4.10156 13.0986V8.79883H2.59961C1.16385 8.79862 0 7.63503 0 6.19922V4.69922C8.27223e-05 3.2635 1.16392 2.09985 2.59961 2.09961H4.10156V0.599609C4.10156 0.268239 4.3698 0 4.70117 0ZM5.30078 13.0986H6.60059C7.37372 13.0986 8.00089 12.4723 8.00098 11.6992V10.1992C8.00098 9.42601 7.3738 8.79881 6.60059 8.79883H5.30078V13.0986ZM2.59961 3.2998C1.82665 3.30003 1.1993 3.92623 1.19922 4.69922V6.19922C1.19922 6.97229 1.82659 7.5994 2.59961 7.59961H4.10156V3.29883L2.59961 3.2998Z" fill="white"/>
</svg>
