<svg width="12" height="16" viewBox="0 0 12 16" fill="none" xmlns="http://www.w3.org/2000/svg">
<path fill-rule="evenodd" clip-rule="evenodd" d="M1.03057 2.25973C1.03057 1.58088 1.58088 1.03057 2.25973 1.03057H9.5059C10.1848 1.03057 10.7351 1.58088 10.7351 2.25973V13.9473L9.93115 13.0898C9.55434 12.6879 8.91492 12.6924 8.54378 13.0995L7.64738 14.083L6.53704 13.0171C6.17149 12.6662 5.59415 12.6662 5.22859 13.0171L4.11826 14.083L3.22186 13.0995C2.85072 12.6924 2.2113 12.6879 1.83448 13.0898L1.03057 13.9473V2.25973ZM2.25973 0C1.01172 0 0 1.01172 0 2.25973V14.1645C0 15.0209 1.04815 15.4354 1.63387 14.8106L2.52278 13.8624L3.41597 14.8424C3.77387 15.2351 4.3851 15.2554 4.76838 14.8875L5.88282 13.8176L6.99726 14.8875C7.38054 15.2554 7.99176 15.2351 8.34967 14.8424L9.24286 13.8624L10.1318 14.8106C10.7175 15.4354 11.7656 15.0209 11.7656 14.1645V2.25973C11.7656 1.01172 10.7539 0 9.5059 0H2.25973ZM2.52811 2.68377C2.24353 2.68377 2.01283 2.91447 2.01283 3.19905C2.01283 3.48363 2.24353 3.71433 2.52811 3.71433H4.54094C4.82552 3.71433 5.05622 3.48363 5.05622 3.19905C5.05622 2.91447 4.82552 2.68377 4.54094 2.68377H2.52811ZM2.52811 4.69659C2.24353 4.69659 2.01283 4.92729 2.01283 5.21188C2.01283 5.49646 2.24353 5.72716 2.52811 5.72716H4.54094C4.82552 5.72716 5.05622 5.49646 5.05622 5.21188C5.05622 4.92729 4.82552 4.69659 4.54094 4.69659H2.52811ZM2.52811 6.70942C2.24353 6.70942 2.01283 6.94012 2.01283 7.2247C2.01283 7.50928 2.24353 7.73998 2.52811 7.73998H4.54094C4.82552 7.73998 5.05622 7.50928 5.05622 7.2247C5.05622 6.94012 4.82552 6.70942 4.54094 6.70942H2.52811ZM8.41093 2.68377V2.52811C8.41093 2.24353 8.18023 2.01283 7.89564 2.01283C7.61106 2.01283 7.38036 2.24353 7.38036 2.52811V2.68377C6.63901 2.68524 6.03848 3.28668 6.03848 4.02838C6.03848 4.53768 6.32623 5.00327 6.78176 5.23104L7.38036 5.53034V6.70942H5.88282C5.59824 6.70942 5.36754 6.94012 5.36754 7.2247C5.36754 7.50928 5.59824 7.73998 5.88282 7.73998H7.38036V7.89564C7.38036 8.18023 7.61106 8.41093 7.89564 8.41093C8.18023 8.41093 8.41093 8.18023 8.41093 7.89564V7.73998C9.15228 7.73851 9.75281 7.13707 9.75281 6.39537C9.75281 5.88607 9.46506 5.42048 9.00953 5.19271L8.41093 4.89341V3.71433H9.23753C9.52211 3.71433 9.75281 3.48363 9.75281 3.19905C9.75281 2.91447 9.52211 2.68377 9.23753 2.68377H8.41093ZM7.38036 3.71435C7.20817 3.71581 7.06904 3.85585 7.06904 4.02838C7.06904 4.14733 7.13625 4.25608 7.24264 4.30927L7.38036 4.37813V3.71435ZM8.41093 6.04562V6.70941C8.58311 6.70794 8.72224 6.5679 8.72224 6.39537C8.72224 6.27642 8.65504 6.16768 8.54864 6.11448L8.41093 6.04562Z" fill="white"/>
</svg>
