<svg width="16" height="14" viewBox="0 0 16 14" fill="none" xmlns="http://www.w3.org/2000/svg">
<path d="M16 7.96846C16 8.71688 15.3903 9.32412 14.639 9.32412H11.2867L13.6572 11.6853C14.1889 12.2149 14.1889 13.0737 13.6572 13.6029C13.3912 13.8671 13.0432 14 12.6949 14C12.3465 14 11.9981 13.8671 11.7325 13.6029L8.66526 10.5485V10.5477C8.66604 9.48894 9.52746 8.6305 10.5904 8.6305V7.30519C9.52746 7.30519 8.66526 6.44714 8.66526 5.38763H7.33551C7.33551 6.44714 6.47331 7.30519 5.4104 7.30519V8.6305C6.47331 8.6305 7.33512 9.48855 7.33551 10.5477V10.5485L4.26829 13.6029C4.00307 13.8671 3.65431 14 3.30593 14C2.95756 14 2.60959 13.8671 2.34357 13.6029C1.81191 13.0733 1.81191 12.2145 2.34357 11.6853L4.71406 9.32412H1.36101C0.609645 9.32412 0 8.71688 0 7.96846C0 7.22003 0.609645 6.61277 1.36101 6.61277H4.71406L2.34317 4.25118C1.81151 3.72162 1.81151 2.86356 2.34317 2.33399C2.87483 1.80442 3.73626 1.80442 4.26791 2.33399L6.63878 4.69559V1.35568C6.63878 0.606465 7.24805 0 7.99981 0C8.75156 0 9.3608 0.606861 9.3608 1.35568V4.69559L11.7317 2.33399C12.2634 1.80442 13.1248 1.80442 13.6564 2.33399C14.1881 2.86356 14.1881 3.72162 13.6564 4.25118L11.2856 6.61277H14.6386C15.39 6.61277 15.9996 7.21965 15.9996 7.96846H16Z" fill="white"/>
</svg>
