<svg width="20" height="16" viewBox="0 0 20 16" fill="none" xmlns="http://www.w3.org/2000/svg">
<path d="M11.8951 13.4978C11.8957 13.4784 11.8957 13.4578 11.8957 13.4384C11.8957 13.4101 11.8951 13.381 11.8938 13.3526C11.8931 13.3378 11.8924 13.323 11.8919 13.308C11.8912 13.2855 11.8899 13.2629 11.8879 13.241C11.886 13.2158 11.884 13.1906 11.8808 13.1655C11.8808 13.1616 11.8802 13.157 11.8795 13.1532C11.8783 13.139 11.8763 13.1248 11.8743 13.1106C11.8723 13.0912 11.8691 13.0718 11.8659 13.0519C11.8653 13.0442 11.864 13.037 11.8626 13.0299C11.8601 13.0132 11.8575 12.9958 11.8536 12.9789C11.8529 12.9725 11.8517 12.9667 11.8504 12.9602C11.8485 12.9499 11.8465 12.9402 11.8446 12.9305C11.84 12.9067 11.8349 12.8828 11.8291 12.859C11.8284 12.8544 11.8271 12.8506 11.8258 12.8467C11.8213 12.8247 11.8155 12.8034 11.8096 12.7815C11.8092 12.781 11.809 12.7807 11.809 12.7802C11.8051 12.7634 11.7999 12.7467 11.7947 12.7298C11.7922 12.7189 11.7889 12.708 11.785 12.6969C11.7805 12.6809 11.776 12.6654 11.7701 12.6499C11.7695 12.6473 11.7689 12.6441 11.7675 12.6415C11.7643 12.6311 11.7611 12.6214 11.7571 12.6112C11.7565 12.6092 11.7553 12.6073 11.7546 12.6053C11.7488 12.5872 11.7423 12.5698 11.7352 12.5517C11.7216 12.5137 11.7067 12.4756 11.6899 12.4382C11.6892 12.4369 11.6886 12.4356 11.6879 12.4343C11.6782 12.4104 11.6672 12.3872 11.6562 12.3633C11.6445 12.3387 11.6323 12.3143 11.62 12.2898C11.618 12.2859 11.6161 12.282 11.6141 12.2787C11.44 11.8684 11.2129 11.4863 10.9423 11.1417C10.9138 11.101 10.884 11.061 10.8536 11.021C10.851 11.0172 10.8478 11.0139 10.8452 11.01C10.8413 11.0056 10.8381 11.0003 10.8342 10.9959C10.7229 10.8513 10.6031 10.7125 10.4762 10.5816C10.2271 10.3234 9.9513 10.0931 9.65551 9.8956C9.65551 9.8956 9.65487 9.8956 9.65487 9.89492C9.50858 9.79744 9.35843 9.70712 9.20309 9.62647C9.2005 9.62518 9.19727 9.62324 9.19468 9.62195C9.19403 9.62195 9.19403 9.6213 9.19338 9.6213C9.17526 9.60969 9.15713 9.59742 9.139 9.58452C9.13835 9.58452 9.13835 9.58387 9.13771 9.58387C9.05875 9.52902 8.98043 9.47159 8.90471 9.41222C8.89628 9.40641 8.88722 9.39931 8.87881 9.39156C8.54353 9.12762 8.24127 8.81851 7.98236 8.47519C7.98236 8.47477 7.98214 8.47434 7.98171 8.4739C7.97264 8.46229 7.96359 8.45002 7.95452 8.43842C7.95452 8.43777 7.95387 8.43777 7.95387 8.43712C7.86649 8.31903 7.78365 8.19641 7.70663 8.07057C7.70079 8.06154 7.69497 8.05186 7.68979 8.04282C7.43089 7.61497 7.23348 7.14517 7.10855 6.64504C7.10661 6.60374 7.10078 6.56372 7.09237 6.525C7.08265 6.48177 7.07037 6.44046 7.05353 6.40045C6.95968 6.16168 6.75321 5.97905 6.49947 5.91646C6.47618 5.91 6.45223 5.90549 6.42828 5.90162C6.39204 5.8958 6.35513 5.89323 6.3176 5.89258H6.30594C6.30013 5.89258 6.29494 5.89258 6.28976 5.89323C6.28458 5.89258 6.27941 5.89323 6.27358 5.89388C6.22245 5.89516 6.17197 5.90226 6.12342 5.91324C6.104 5.91775 6.08523 5.92291 6.06646 5.92871C6.06582 5.92871 6.06517 5.92936 6.06387 5.92936C5.11045 6.19976 4.39135 7.05676 4.30268 8.09574C4.30137 8.10607 4.30073 8.11703 4.30008 8.12736C4.29555 8.18932 4.29297 8.25191 4.29297 8.31451C4.29297 8.50617 4.31432 8.69332 4.35511 8.87272C4.35511 8.87272 4.35511 8.87337 4.35575 8.87402C4.36805 8.93015 4.38229 8.985 4.39911 9.03986C4.39976 9.04245 4.40041 9.04438 4.40106 9.04696C4.403 9.0547 4.40559 9.06309 4.40818 9.07084C4.40883 9.07341 4.41012 9.076 4.41077 9.07858C4.45349 9.21346 4.50721 9.34252 4.57065 9.46578C4.58294 9.49289 4.59523 9.51934 4.60753 9.5458C4.60818 9.54645 4.60818 9.5471 4.60818 9.5471C4.62695 9.58711 4.64702 9.62647 4.66708 9.66519C4.67161 9.67489 4.6768 9.68457 4.68198 9.69357C4.70139 9.73161 4.72145 9.7684 4.74281 9.80586C4.75122 9.82067 4.75964 9.83558 4.7687 9.85039C4.77388 9.8594 4.77907 9.86908 4.78553 9.87818C4.96741 10.188 5.18877 10.4725 5.44122 10.7229C5.44639 10.7287 5.45156 10.7332 5.45675 10.7384C5.45933 10.741 5.46257 10.7435 5.46515 10.7461C5.49686 10.7752 5.52729 10.8035 5.55578 10.832C5.55901 10.8352 5.56224 10.8384 5.56548 10.841C5.56742 10.8429 5.56872 10.8449 5.57066 10.8461L5.57843 10.8539C5.58166 10.8565 5.58425 10.8591 5.5862 10.8616L5.58943 10.8655C5.65222 10.9287 5.71176 10.992 5.77066 11.0584L5.77196 11.0598C6.02245 11.343 6.23346 11.6579 6.40109 11.9987L6.40369 12.0032C6.41922 12.0335 6.43347 12.0645 6.4477 12.0962V12.0968C6.4477 12.0974 6.44835 12.0974 6.44835 12.0981C6.50465 12.2207 6.5558 12.3478 6.60045 12.4769C6.60175 12.4788 6.6024 12.4814 6.60304 12.4834L6.61469 12.5182C6.70918 12.7951 6.77392 13.0803 6.80952 13.3714V13.3797C6.80822 13.399 6.80822 13.4191 6.80822 13.4384C6.80822 13.572 6.81923 13.7049 6.83993 13.8366V13.8385C6.88395 14.1147 6.97392 14.3832 7.10597 14.6297C7.10726 14.6329 7.1092 14.6368 7.11114 14.6401C7.11438 14.6465 7.11826 14.653 7.12215 14.6594V14.66C7.12474 14.6639 7.12667 14.6684 7.12927 14.6723C7.14092 14.6936 7.15321 14.7142 7.16551 14.7349C7.18039 14.7601 7.19528 14.7846 7.21081 14.8085C7.22635 14.8323 7.24253 14.8562 7.25872 14.8802C7.2749 14.9034 7.29173 14.9266 7.30855 14.9492C7.32538 14.9724 7.34286 14.995 7.36033 15.0169C7.37846 15.0388 7.39594 15.0608 7.41471 15.0828C7.43284 15.1041 7.4516 15.1254 7.47037 15.146C7.48979 15.1666 7.50921 15.1873 7.52863 15.2073C7.53962 15.2189 7.55063 15.2299 7.56229 15.2415C7.56293 15.2421 7.56423 15.2435 7.56487 15.244C7.56875 15.2479 7.57264 15.2518 7.57653 15.2551C7.58041 15.2589 7.58428 15.2628 7.58882 15.2667C7.60889 15.2861 7.62959 15.3054 7.65031 15.3241C7.66261 15.3357 7.67555 15.3467 7.68785 15.357C7.69626 15.3648 7.70533 15.3725 7.71438 15.3796C7.783 15.4376 7.85485 15.4913 7.92993 15.5416C7.94805 15.5538 7.96683 15.5661 7.98494 15.5777C8.00889 15.5925 8.03284 15.6073 8.05679 15.6216C8.10144 15.648 8.14611 15.6726 8.19207 15.6964C8.20307 15.7016 8.21407 15.7068 8.22509 15.7126C8.22702 15.7138 8.22961 15.7145 8.23155 15.7158C8.23349 15.7171 8.23608 15.7177 8.23802 15.7191C8.24708 15.7235 8.25551 15.7274 8.26391 15.7313C8.27298 15.7358 8.28138 15.7397 8.29046 15.7436C8.3118 15.7532 8.33382 15.7636 8.35647 15.7726C8.45744 15.8159 8.5623 15.852 8.6691 15.8817C8.68463 15.8861 8.70017 15.89 8.7157 15.8939C8.72931 15.8978 8.7429 15.9011 8.75649 15.9042C8.86587 15.9307 8.97719 15.9495 9.09046 15.9611C9.11378 15.9636 9.13641 15.9655 9.15973 15.9675C9.16232 15.9675 9.16491 15.9681 9.1675 15.9681C9.19662 15.9701 9.22574 15.9713 9.25552 15.9727C9.28723 15.9739 9.3196 15.9746 9.35196 15.9746C9.47558 15.9746 9.59921 15.9655 9.71766 15.9481H9.72155C9.72281 15.9481 9.72475 15.9481 9.72611 15.9475H9.72805C9.95781 15.9243 10.1824 15.8681 10.3966 15.7803C11.229 15.4403 11.7986 14.6762 11.884 13.7843V13.7831C11.8919 13.7081 11.8957 13.6314 11.8957 13.5533C11.8957 13.5365 11.8957 13.5198 11.8951 13.5036V13.4978ZM7.12862 14.6046H7.12927C7.1325 14.611 7.13574 14.6181 7.13962 14.6246L7.12862 14.6046ZM9.46912 15.9391C9.52412 15.9365 9.57914 15.9326 9.63352 15.9262C9.57914 15.9326 9.52412 15.9372 9.46912 15.9391ZM10.6089 15.6455C10.6109 15.6441 10.6128 15.6429 10.6148 15.6416C10.6368 15.63 10.6581 15.6184 10.6802 15.6061C10.6568 15.6196 10.6329 15.6325 10.6089 15.6455Z" fill="white"/>
<path d="M19.7345 12.5658C19.7345 14.4595 18.1915 16 16.2951 16C16.1322 16 15.9728 15.9885 15.8161 15.9667C15.7936 15.964 15.7712 15.9606 15.7494 15.9565C15.7432 15.9559 15.7371 15.9552 15.731 15.9538C15.7119 15.9503 15.6922 15.9469 15.6731 15.9436C15.6281 15.9354 15.5839 15.9266 15.5396 15.9164C15.5178 15.9116 15.4952 15.9062 15.4735 15.9008C15.3911 15.881 15.31 15.8579 15.2302 15.8314C15.2092 15.8246 15.1887 15.8177 15.1676 15.8103C15.1261 15.7959 15.0852 15.781 15.0443 15.7647C15.028 15.7586 15.0116 15.7518 14.9952 15.745C14.8413 15.6824 14.6921 15.6082 14.5497 15.5239C14.5314 15.5131 14.5122 15.5015 14.4939 15.4906C14.4564 15.4668 14.419 15.443 14.3822 15.4185C14.3481 15.3954 14.314 15.3715 14.2806 15.3471C14.2738 15.3423 14.2671 15.3376 14.2602 15.3321C14.2316 15.311 14.203 15.2899 14.175 15.2675C14.1676 15.2621 14.1608 15.2566 14.1533 15.2498C14.1267 15.2294 14.1008 15.2083 14.0756 15.1866C14.0681 15.1805 14.0613 15.1743 14.0538 15.1682C14.0279 15.1457 14.0021 15.1232 13.9768 15.0995C13.9482 15.0737 13.9196 15.0472 13.8917 15.0192C13.8719 15.0002 13.8522 14.9805 13.8337 14.9607C13.8222 14.9499 13.812 14.9389 13.8017 14.9281C13.7874 14.9131 13.7732 14.8982 13.7595 14.8825C13.7384 14.86 13.7179 14.8376 13.6982 14.8145C13.6941 14.8104 13.6907 14.8056 13.6866 14.8009C13.6649 14.7757 13.6437 14.7505 13.6233 14.7247C13.6096 14.7083 13.5967 14.6921 13.5845 14.6757C13.5722 14.6608 13.5599 14.6451 13.5484 14.6294C13.5279 14.6029 13.5081 14.5757 13.4897 14.5485C13.4857 14.5438 13.4823 14.5384 13.4789 14.5336C13.4618 14.5105 13.4462 14.4867 13.4304 14.4628C13.4175 14.4445 13.4053 14.4261 13.3937 14.4071C13.3835 14.3921 13.3739 14.3765 13.3651 14.3608C13.3514 14.3397 13.3385 14.3179 13.3263 14.2961C13.3153 14.2785 13.3044 14.2601 13.2949 14.2417C13.2847 14.2248 13.2745 14.2071 13.2656 14.1887C13.2534 14.1669 13.2424 14.1452 13.2309 14.1234C13.222 14.1057 13.2132 14.088 13.205 14.0704C13.1914 14.0439 13.1785 14.016 13.1661 13.9888C13.1627 13.9819 13.1593 13.9745 13.1566 13.9677C13.1403 13.9323 13.1253 13.8969 13.1103 13.8609C13.1096 13.8581 13.1083 13.8547 13.1069 13.8513C13.0905 13.8126 13.0756 13.7731 13.0613 13.733C13.053 13.7126 13.0456 13.6922 13.0388 13.6711C13.0354 13.6629 13.0327 13.6541 13.0299 13.6459C13.0272 13.6459 12.9761 13.5133 12.9598 13.4541C12.9591 13.4521 12.9591 13.4508 12.9584 13.4487C12.9386 13.3474 12.9155 13.2467 12.8903 13.1474C12.8903 13.1467 12.8903 13.146 12.8896 13.1453C12.7356 12.5414 12.4966 11.9726 12.1872 11.4537C12.1811 11.4428 12.1743 11.4327 12.1682 11.4217C12.1545 11.3986 12.1409 11.3761 12.1266 11.3538C12.1232 11.3476 12.1198 11.3415 12.1157 11.3354C12.1157 11.3347 12.115 11.334 12.1143 11.3334C11.9447 11.0619 11.7554 10.8048 11.5482 10.564C11.5414 10.5559 11.5346 10.5477 11.5272 10.5402C11.5258 10.5382 11.5244 10.5362 11.5224 10.5341C11.5204 10.5314 11.5182 10.5294 11.5162 10.5274C11.5121 10.5225 11.5087 10.5178 11.5046 10.5137L11.504 10.513C11.4992 10.5076 11.4944 10.5022 11.4904 10.4967C11.487 10.4933 11.4836 10.4899 11.4815 10.4865C11.0728 10.0253 10.5979 9.62607 10.0734 9.30435C10.072 9.30368 10.0707 9.30299 10.0693 9.30231C10.0332 9.27987 9.9971 9.2581 9.96032 9.23634C9.9576 9.23565 9.9542 9.23361 9.95148 9.23158C9.88538 9.19144 9.81996 9.1486 9.75531 9.10506C9.75114 9.10234 9.74706 9.09962 9.74299 9.0969C9.74231 9.0969 9.74163 9.0969 9.74095 9.09622C9.73755 9.09417 9.73415 9.09146 9.73076 9.08873C9.73008 9.08873 9.72872 9.08805 9.72804 9.08738C9.69532 9.06493 9.66194 9.0418 9.62992 9.01868C9.44191 8.88537 9.26275 8.74117 9.09313 8.58609C9.08835 8.58065 9.0829 8.5752 9.07813 8.56977C9.07813 8.57044 9.07813 8.57112 9.07746 8.5718C9.06723 8.56227 9.05634 8.55276 9.04612 8.54323C8.74978 8.26708 8.48206 7.95964 8.24772 7.62499C8.24091 7.61615 8.23478 7.60731 8.22796 7.59778C7.87509 7.08765 7.59919 6.51698 7.42071 5.90414C7.41594 5.89053 7.41186 5.87693 7.40845 5.86333C7.25993 5.34503 7.18092 4.79681 7.18092 4.22953C7.18092 4.20505 7.18092 4.18125 7.18228 4.15743H7.18092V0.830001C7.18092 0.830001 7.05217 0.0647994 8.08354 0.00766704L8.12238 0.00562446C8.14486 0.00494364 8.16802 0.00426272 8.19187 0.00426272H8.20821C8.45686 0.000862545 8.7055 0.00222426 8.95484 0.00290513H9.00388C9.119 0.00358598 9.23481 0.00358598 9.34994 0.00358598V0.00222426C9.66739 0.00222426 9.93236 0.0103864 10.2499 0.0015434C11.5714 -0.0351849 11.5306 0.592619 11.5401 0.923185C11.5408 0.931348 11.5408 1.02113 11.5408 1.02998V2.24614C11.5592 2.59847 11.6109 2.94196 11.6933 3.2732C11.694 3.27525 11.6947 3.27797 11.6954 3.28069C11.6961 3.28273 11.6961 3.28408 11.6974 3.28613C11.7989 3.69084 11.9454 4.07717 12.1314 4.43903C12.1531 4.48188 12.1763 4.52474 12.1995 4.56691C12.2199 4.605 12.2411 4.6424 12.2628 4.67982C12.2628 4.6805 12.2642 4.68117 12.2642 4.68117C12.3903 4.89883 12.5313 5.10765 12.6866 5.30423C12.7356 5.36611 12.7853 5.42733 12.8378 5.48719C12.8691 5.5246 12.9018 5.56133 12.9345 5.59738C13.1819 5.86945 13.4564 6.11431 13.7534 6.32789C13.7541 6.32857 13.7554 6.32925 13.7561 6.32993C13.7561 6.33061 13.7568 6.33061 13.7568 6.33061C13.7575 6.33129 13.7588 6.33197 13.7595 6.33266C13.7609 6.33401 13.7615 6.33469 13.7629 6.33538C13.8787 6.41836 13.9987 6.49725 14.1213 6.57072C14.5402 6.79246 15.1349 7.04003 15.3767 7.14683C15.3781 7.14751 15.3801 7.14818 15.3815 7.14887C15.3821 7.14887 15.3821 7.14955 15.3828 7.14955C20.071 9.26763 19.7345 12.1699 19.7345 12.5658Z" fill="white"/>
<path d="M5.3043 11.6459C5.27258 11.6143 5.24022 11.5833 5.20721 11.553L5.20463 11.5504C5.18197 11.5284 5.16061 11.5071 5.14055 11.4858C5.13473 11.48 5.12889 11.4736 5.12307 11.4678C5.12114 11.4652 5.11855 11.4632 5.11596 11.4613V11.4606C5.08229 11.4258 5.04928 11.3897 5.01627 11.3541C5.01563 11.3536 5.01563 11.3529 5.01563 11.3529C4.94572 11.2767 4.8797 11.1987 4.81562 11.1193C4.81562 11.1186 4.81562 11.1179 4.81497 11.1179C4.78326 11.078 4.75219 11.0373 4.72177 10.9966L4.71854 10.9915C4.49523 10.6946 4.30623 10.37 4.15478 10.0273C4.15218 10.0222 4.15024 10.0171 4.14765 10.0119C4.147 10.0106 4.147 10.0099 4.14636 10.0087C4.14441 10.0048 4.14247 10.0009 4.14118 9.99705C4.13599 9.98669 4.13212 9.97643 4.12759 9.96607C4.12694 9.96413 4.12629 9.9622 4.12564 9.96094C4.12435 9.95765 4.12305 9.95513 4.12176 9.95184L4.11917 9.94603C4.04279 9.76472 3.97548 9.57242 3.91852 9.37367C3.91528 9.36399 3.91205 9.35366 3.90946 9.34334L3.90881 9.3414L3.90364 9.32268L3.90039 9.31042C3.86868 9.19297 3.84149 9.07488 3.81949 8.95484C3.81884 8.9542 3.81819 8.95356 3.81884 8.95291C3.73275 8.70316 3.60072 8.51989 3.42725 8.40696L3.42078 8.4018H3.41884C3.27837 8.31145 3.1088 8.26562 2.91591 8.26562C2.89844 8.26562 2.80802 8.27855 2.75539 8.30177C2.7541 8.30241 2.75216 8.30306 2.75086 8.30306C2.74957 8.30371 2.74892 8.30371 2.74762 8.30435C2.70166 8.31984 2.65571 8.33597 2.61105 8.35275C2.60976 8.3534 2.60911 8.3534 2.60782 8.35405H2.60717C2.56316 8.36954 2.52044 8.38695 2.47771 8.40437C1.53206 8.79544 0.778657 9.50983 0.356641 10.4165C0.120398 10.925 0 11.4684 0 12.0311C0 12.2576 0.0200689 12.4854 0.0601985 12.7075C0.0640782 12.7288 0.0679656 12.7506 0.0725004 12.7719L0.0731483 12.7772C0.0789632 12.8075 0.0860902 12.8411 0.0944968 12.8752C0.150817 13.1294 0.235603 13.3799 0.345642 13.6206C0.553411 14.0769 0.845973 14.4866 1.21556 14.8383C1.21599 14.8387 1.21642 14.8392 1.21685 14.8396C1.2285 14.8506 1.23951 14.8609 1.25116 14.8712C1.54955 15.15 1.88871 15.381 2.257 15.5586C2.82659 15.8341 3.44084 15.9741 4.08163 15.9741C4.11853 15.9741 4.15541 15.9735 4.19101 15.9722H4.19944C4.34377 15.9683 4.48941 15.9567 4.63504 15.9373H4.63697C4.67711 15.9296 4.71725 15.9192 4.75866 15.9069C4.76385 15.9057 4.76967 15.9044 4.7755 15.9025C4.78003 15.9011 4.7852 15.8999 4.78973 15.8979H4.79038C5.1166 15.7985 5.39751 15.607 5.60852 15.3578C5.76256 15.1765 5.87907 14.9642 5.94833 14.7338C6.08037 14.4014 6.15027 14.044 6.15027 13.6812C6.15027 12.9127 5.84995 12.1893 5.3043 11.6459ZM5.96258 13.7806C5.96323 13.7832 5.96387 13.7858 5.96451 13.7884C5.96387 13.7852 5.96323 13.7826 5.96193 13.78L5.96258 13.7806Z" fill="white"/>
</svg>
