<svg width="16" height="16" viewBox="0 0 16 16" fill="none" xmlns="http://www.w3.org/2000/svg">
<path d="M8 0C12.4183 0 16 3.58172 16 8C16 12.4183 12.4183 16 8 16C3.58172 16 0 12.4183 0 8C0 3.58172 3.58172 0 8 0ZM8.62305 2.94434C8.60536 2.88372 8.48405 2.88376 8.47754 2.94531L8.43262 3.38379C8.42141 3.48915 8.4102 3.59888 8.34961 3.68652C8.19757 3.91016 7.84512 3.89423 7.54688 3.86719C6.68645 3.78887 5.81001 3.82869 5.01855 4.08887C4.56364 4.239 4.1406 4.46524 3.79102 4.7627C3.61578 4.9119 3.45861 5.07997 3.32812 5.26367C3.20433 5.43701 3.13713 5.63284 3.08496 5.83594C2.95919 6.33109 3.13766 6.87606 3.40332 7.33203C3.5571 7.59675 3.74226 7.8459 3.92676 8.0957C4.13366 8.37538 4.33985 8.65395 4.50391 8.9541C4.81247 9.51829 4.95053 10.2114 4.6084 10.7188C4.60665 10.7216 4.60862 10.7266 4.6123 10.7266C5.19025 10.8441 5.73144 11.0967 6.18262 11.4473C6.52458 11.713 6.81519 12.0358 7.03418 12.3975C7.17484 12.6304 7.28481 12.8773 7.35938 13.1299C7.37707 13.1904 7.55828 13.206 7.58105 13.1484C7.61274 13.0664 7.6449 12.9802 7.67285 12.873C7.67748 12.8555 7.68196 12.8358 7.6875 12.8164C7.73505 12.6327 7.80044 12.383 7.85449 12.3037C7.97385 12.1276 8.18279 12.1598 8.41113 12.1943C8.47266 12.2036 8.53626 12.2122 8.60059 12.2178C9.46087 12.2961 10.1823 12.2464 10.9736 11.9863C11.4286 11.8362 11.8526 11.61 12.2021 11.3125C12.3773 11.1634 12.5336 10.9951 12.6641 10.8115C12.787 10.6381 12.855 10.4424 12.9072 10.2393C13.033 9.74408 12.8555 9.19918 12.5898 8.74316C12.436 8.47837 12.2509 8.22936 12.0654 7.97949C11.8585 7.69982 11.6523 7.42125 11.4883 7.12109C11.1797 6.55695 11.0417 5.86374 11.3838 5.35645C11.3856 5.35374 11.3843 5.34894 11.3809 5.34863C10.8029 5.23113 10.2618 4.97857 9.81055 4.62793C9.46846 4.36218 9.16827 4.03951 8.94922 3.67773C8.80855 3.44474 8.69857 3.19782 8.62305 2.94434ZM6.11328 5.37305C6.60358 5.32642 7.03151 5.32904 7.52832 5.38965C7.72037 5.4139 7.7585 5.44058 7.81445 5.54688C7.81538 5.54963 7.81646 5.55191 7.81738 5.55469C7.85373 5.66739 7.91016 6.14775 7.91016 6.15332L8.02734 7.06348C8.03417 7.11619 8.10027 7.12714 8.11621 7.07812C8.16278 6.93464 8.19587 6.78174 8.22754 6.62988C8.31143 6.23354 8.39476 5.84103 8.72852 5.61816C9.1993 5.3042 9.90066 5.34965 10.5596 5.3916C10.6955 5.4 10.8306 5.4094 10.9609 5.41406C11.0159 5.41593 11.0439 5.50466 11.0068 5.54297C10.7952 5.76211 10.8155 6.08854 10.8379 6.43262C10.8407 6.47739 10.8439 6.52266 10.8467 6.56836C10.871 7.02876 10.9973 7.48168 11.124 7.93555C11.2228 8.28801 11.3217 8.64087 11.3721 8.99707C11.4345 9.42978 11.4119 9.90107 11.1191 10.2256V10.2275C10.832 10.5462 10.3461 10.6554 9.88379 10.6992C9.83453 10.7039 9.78988 10.7082 9.74805 10.7119C9.37328 10.7492 9.26297 10.7601 8.81641 10.7051C8.65423 10.6845 8.36688 10.5944 8.27539 10.5654C8.25767 10.5598 8.24393 10.546 8.23926 10.5273C8.22056 10.4525 8.17162 10.2445 8.14648 10.0293C8.12317 9.82876 8.10096 9.48829 8.1084 9.16016C8.10911 9.10065 8.0273 9.0788 8.00684 9.13281C7.99106 9.17553 7.97476 9.21805 7.95898 9.26074C7.80427 9.68216 7.65045 10.1019 7.2666 10.3574C6.75107 10.7015 5.9435 10.6788 5.22754 10.6592C5.15481 10.6573 5.08258 10.6552 5.01172 10.6533C4.95704 10.6519 4.92967 10.5655 4.96777 10.5273C5.19685 10.297 5.17578 9.94739 5.15527 9.58105C5.15341 9.55504 5.15322 9.52894 5.15137 9.50293C5.12714 9.0423 4.99983 8.58889 4.87305 8.13477C4.77422 7.78226 4.67535 7.42948 4.625 7.07324C4.56256 6.64057 4.58524 6.16921 4.87793 5.84473C5.1651 5.52596 5.65101 5.41687 6.11328 5.37305Z" fill="white"/>
</svg>
