<svg width="23" height="23" viewBox="0 0 20 20" fill="none" xmlns="http://www.w3.org/2000/svg">
<path fill-rule="evenodd" clip-rule="evenodd" d="M6.2334 0.254268C6.82063 -0.0847711 7.54459 -0.0847411 8.13184 0.254268L13.416 3.30505C14.0033 3.6441 14.3652 4.27147 14.3652 4.94958V11.0511C14.3652 11.7293 14.0033 12.3556 13.416 12.6947L8.13184 15.7455C7.54458 16.0845 6.82066 16.0845 6.2334 15.7455L0.949219 12.6947C0.362064 12.3556 0 11.7292 0 11.0511V4.94958C0 4.27147 0.361959 3.6441 0.949219 3.30505L6.2334 0.254268ZM7.18359 4.68298C6.26765 4.683 5.52559 5.42528 5.52539 6.34118C5.52539 7.06256 5.98584 7.67632 6.62891 7.90466L5.94824 11.3929C5.87211 11.7835 6.17145 12.1467 6.56934 12.1468H7.79785C8.19586 12.1468 8.49512 11.7836 8.41895 11.3929L7.73926 7.90466C8.38204 7.67616 8.84277 7.06235 8.84277 6.34118C8.84257 5.42527 8.09956 4.68298 7.18359 4.68298Z" fill="white"/>
</svg>
