<svg width="17" height="17" viewBox="0 0 17 17" fill="none" xmlns="http://www.w3.org/2000/svg">
<path d="M7.04395 1.29883C7.81739 0.852439 8.77055 0.852311 9.54395 1.29883L13.7266 3.71387C14.4998 4.1605 14.9766 4.98589 14.9766 5.87891V10.708C14.9766 11.601 14.4998 12.4264 13.7266 12.873L9.54395 15.2881C8.77051 15.7346 7.81741 15.7346 7.04395 15.2881L2.86133 12.873C2.08784 12.4265 1.61133 11.6012 1.61133 10.708V5.87891C1.61133 4.98574 2.08783 4.16045 2.86133 3.71387L7.04395 1.29883Z" stroke="white"/>
<path d="M8.29154 4.97656C7.37545 4.97656 6.63281 5.7192 6.63281 6.63529C6.63281 7.35667 7.09331 7.97049 7.73638 8.19883L7.14175 11.2495C7.0214 11.8669 7.49422 12.4408 8.12328 12.4408H8.45999C9.08907 12.4408 9.5619 11.8669 9.44151 11.2494L8.84669 8.19883C9.48976 7.97049 9.95026 7.35667 9.95026 6.63529C9.95026 5.7192 9.20762 4.97656 8.29154 4.97656Z" fill="white"/>
</svg>
