<svg width="15" height="16" viewBox="0 0 15 16" fill="none" xmlns="http://www.w3.org/2000/svg">
<path fill-rule="evenodd" clip-rule="evenodd" d="M7.42676 0.00121234C12.8338 0.0830697 14.8027 4.1196 14.8027 6.06371V14.9036C14.8026 15.4573 14.129 15.7305 13.7432 15.3332C13.5052 15.0882 13.1132 15.0835 12.8691 15.3225L12.5186 15.6663C12.0886 16.0872 11.4008 16.087 10.9707 15.6663L10.9014 15.5989C10.5005 15.2064 9.85815 15.2115 9.46387 15.6106L9.32715 15.7493C8.9721 16.1085 8.38297 16.0784 8.06641 15.6848C7.73437 15.2717 7.10887 15.2623 6.76465 15.6653L6.74316 15.6897C6.40756 16.0822 5.80583 16.0985 5.44922 15.7248L5.35742 15.6282C4.97101 15.2234 4.32592 15.2183 3.93262 15.6164L3.88086 15.6692C3.4688 16.0863 2.79698 16.0919 2.37793 15.6819L2.02441 15.3362C1.7704 15.0878 1.36427 15.0876 1.11035 15.3362C0.696777 15.7411 0 15.4482 0 14.8694V6.06371C0 3.99173 2.01988 -0.0805307 7.42676 0.00121234ZM7.28809 7.26586V7.6184C7.12074 7.63161 6.96684 7.66776 6.82812 7.72777C6.65058 7.80368 6.50971 7.91059 6.40625 8.04809C6.30384 8.18563 6.25305 8.34654 6.25293 8.52953C6.25293 8.75193 6.32919 8.93107 6.48145 9.06567C6.63514 9.19923 6.84492 9.29965 7.10938 9.36547L7.28809 9.40942V10.3215C7.21456 10.3135 7.14489 10.3006 7.08105 10.2776C6.98433 10.2422 6.90519 10.1889 6.84473 10.1174C6.78434 10.0457 6.74961 9.95489 6.74121 9.84692H6.16797C6.17637 10.0531 6.23172 10.2287 6.33398 10.3723C6.43747 10.516 6.58178 10.6255 6.76465 10.7004C6.91654 10.7622 7.09136 10.7971 7.28809 10.8079V11.1545H7.5459V10.8069C7.7476 10.7959 7.92367 10.7611 8.07324 10.6975C8.25529 10.6195 8.39398 10.511 8.49023 10.3733C8.58641 10.2346 8.63477 10.074 8.63477 9.89184C8.63467 9.75767 8.60871 9.64024 8.55664 9.54027C8.50435 9.44024 8.43261 9.3542 8.34277 9.28344C8.25396 9.21273 8.15283 9.15318 8.04004 9.10668C7.92838 9.06027 7.81145 9.02361 7.69043 8.99633L7.5459 8.96117V8.09496C7.66412 8.10859 7.76437 8.14476 7.8457 8.20043C7.95427 8.27425 8.01652 8.37766 8.03125 8.51H8.59082C8.5876 8.33502 8.53674 8.17971 8.43848 8.04516C8.34017 7.90981 8.20457 7.80359 8.03223 7.72777C7.88975 7.66398 7.72729 7.62723 7.5459 7.61645V7.26586H7.28809ZM7.5459 9.47582C7.63159 9.49948 7.70882 9.52528 7.77637 9.55395C7.86273 9.58919 7.93044 9.63349 7.97852 9.68676C8.02656 9.73932 8.05161 9.80712 8.05273 9.88793C8.05163 9.97679 8.02393 10.0546 7.96973 10.1213C7.91532 10.1871 7.83942 10.2391 7.74316 10.2766C7.6837 10.2993 7.61758 10.312 7.5459 10.3205V9.47582ZM7.28809 8.89379C7.25661 8.88474 7.22361 8.87815 7.19238 8.86742C7.12792 8.84524 7.06871 8.81759 7.01562 8.78539C6.96253 8.75206 6.91996 8.71072 6.88867 8.66332C6.85853 8.61583 6.84277 8.55896 6.84277 8.49438C6.84399 8.41677 6.86723 8.34689 6.91309 8.28637C6.95901 8.22585 7.02586 8.17819 7.1123 8.14281C7.16437 8.12156 7.2236 8.10835 7.28809 8.09984V8.89379ZM5.39551 5.01488C4.91294 5.01488 4.52148 5.40466 4.52148 5.885C4.52149 6.36533 4.91295 6.75512 5.39551 6.75512C5.87805 6.75509 6.26952 6.36532 6.26953 5.885C6.26953 5.40468 5.87805 5.01491 5.39551 5.01488ZM9.4043 5.01488C8.92176 5.01488 8.53032 5.4047 8.53027 5.885C8.53027 6.36534 8.92173 6.75512 9.4043 6.75512C9.88669 6.75491 10.2773 6.36521 10.2773 5.885C10.2773 5.40483 9.88666 5.01509 9.4043 5.01488Z" fill="white"/>
</svg>
