<svg width="16" height="16" viewBox="0 0 16 16" fill="none" xmlns="http://www.w3.org/2000/svg">
<path d="M9.89941 0C11.2494 0 12.3036 0.31559 13.1445 1.05664C13.6439 1.47568 14.0461 1.99833 14.3242 2.58789C14.6022 3.17734 14.749 3.81998 14.7549 4.47168C14.7784 5.44258 14.4901 6.39587 13.9316 7.19043C13.3731 7.98502 12.5739 8.57906 11.6523 8.88574L15.3613 16H12.4834L9.18164 9.16992H6.07812V16H3.65234V7.01074H9.74219C11.5624 7.01059 12.4609 5.81837 12.4609 4.47168C12.4824 4.1257 12.42 3.77969 12.2793 3.46289C12.1385 3.14603 11.9236 2.86734 11.6523 2.65137C11.1678 2.30359 10.5822 2.12986 9.98828 2.15137V4.53711H0V1.95996H3.65234V0H9.89941Z" fill="white"/>
</svg>
