<svg width="16" height="16" viewBox="0 0 16 16" fill="none" xmlns="http://www.w3.org/2000/svg">
<path d="M12.2061 0.00488281C14.3194 0.112115 16 1.85996 16 4V12L15.9951 12.2061C15.8879 14.3194 14.14 16 12 16H4C1.79086 16 0 14.2091 0 12V4C0 1.79086 1.79086 0 4 0H12L12.2061 0.00488281ZM4 1.5C2.61929 1.5 1.5 2.61929 1.5 4V12C1.5 13.3807 2.61929 14.5 4 14.5H12C13.3807 14.5 14.5 13.3807 14.5 12V4C14.5 2.61929 13.3807 1.5 12 1.5H4ZM7.31445 3.69531C7.48268 3.3168 7.92617 3.14622 8.30469 3.31445C8.6832 3.48268 8.85378 3.92617 8.68555 4.30469L7.30957 7.39941L9.81836 6.77246L11.2412 6.41699L10.6963 7.77832L8.69629 12.7783C8.54248 13.1629 8.10623 13.35 7.72168 13.1963C7.33715 13.0425 7.15 12.6062 7.30371 12.2217L8.75879 8.58301L6.18164 9.22754L4.69043 9.60059L5.31445 8.19531L7.31445 3.69531Z" fill="#DF4523"/>
</svg>
