<svg width="15" height="16" viewBox="0 0 15 16" fill="none" xmlns="http://www.w3.org/2000/svg">
<path fill-rule="evenodd" clip-rule="evenodd" d="M6.70215 0.156214C6.98386 -0.0520563 7.3687 -0.0520863 7.65039 0.156214L8.52051 0.799769C10.0051 1.89752 11.666 2.73466 13.4316 3.27438C13.9782 3.44145 14.3516 3.94599 14.3516 4.51754V9.54L14.3428 9.80563C14.2547 11.1263 13.5147 12.3246 12.3584 12.9922L7.97363 15.5244L7.7832 15.6172C7.39428 15.7774 6.95727 15.7775 6.56836 15.6172L6.37891 15.5244L1.99316 12.9922C0.836964 12.3245 0.096879 11.1262 0.00878906 9.80563L0 9.54V4.51754C0 3.98177 0.328064 3.50481 0.819336 3.30953L0.919922 3.27438C2.68563 2.73468 4.34645 1.89747 5.83105 0.799769L6.70215 0.156214ZM6.54492 1.76461C4.95068 2.94337 3.16661 3.84228 1.27051 4.42184C1.22861 4.43479 1.2002 4.47367 1.2002 4.51754V9.54C1.20032 10.5355 1.73165 11.4554 2.59375 11.9531L6.97852 14.4853C7.10047 14.5557 7.25106 14.5556 7.37305 14.4853L11.7588 11.9531C12.6208 11.4553 13.1522 10.5354 13.1523 9.54V4.51754C13.1523 4.47362 13.1231 4.43468 13.0811 4.42184C11.185 3.84229 9.4018 2.9434 7.80762 1.76461L7.17578 1.29782L6.54492 1.76461ZM11 5.40035C11.3314 5.40035 11.5996 5.66859 11.5996 5.99996C11.5996 7.46074 11.6088 8.71732 11.1816 9.78512C10.7318 10.9096 9.84138 11.7507 8.26855 12.5371C7.97218 12.6853 7.61109 12.5649 7.46289 12.2685C7.3147 11.9721 7.43507 11.6111 7.73145 11.4629C9.15859 10.7493 9.76815 10.0903 10.0684 9.33981C10.3912 8.53262 10.4004 7.53916 10.4004 5.99996C10.4004 5.66859 10.6686 5.40035 11 5.40035Z" fill="#9A9AB0"/>
</svg>
