<svg width="9" height="9" viewBox="0 0 9 9" fill="none" xmlns="http://www.w3.org/2000/svg">
<path d="M3.87056 0.504057C4.04309 -0.168018 4.95691 -0.168019 5.12944 0.504056L5.64801 2.52405C5.72764 2.83422 6.00431 3.04399 6.31158 3.02717L8.31272 2.91764C8.97853 2.8812 9.26091 3.78817 8.70174 4.16709L7.02109 5.30599C6.76303 5.48086 6.65735 5.82029 6.76763 6.12006L7.48583 8.07236C7.72479 8.72191 6.9855 9.28245 6.46738 8.84456L4.91011 7.52844C4.67099 7.32635 4.32901 7.32635 4.08989 7.52844L2.53262 8.84456C2.0145 9.28245 1.27521 8.72191 1.51417 8.07236L2.23237 6.12006C2.34265 5.82029 2.23697 5.48086 1.97891 5.30599L0.298261 4.16709C-0.260911 3.78817 0.0214711 2.8812 0.687275 2.91764L2.68842 3.02717C2.99569 3.04399 3.27236 2.83422 3.35199 2.52405L3.87056 0.504057Z" fill="white"/>
</svg>
