<svg width="64" height="64" viewBox="0 0 64 64" fill="none" xmlns="http://www.w3.org/2000/svg">
<path d="M32.2723 63.3417C49.7636 63.3417 63.9431 49.1621 63.9431 31.6708C63.9431 14.1795 49.7636 0 32.2723 0C14.781 0 0.60144 14.1795 0.60144 31.6708C0.60144 49.1621 14.781 63.3417 32.2723 63.3417Z" fill="#4AA956"/>
<path fill-rule="evenodd" clip-rule="evenodd" d="M41.7678 30.2259C41.1344 29.3773 40.1796 28.7943 38.9018 28.4778C40.5287 27.618 41.2438 26.1579 41.0469 24.0977C40.9813 23.3508 40.7828 22.7032 40.4497 22.1547C40.1157 21.6062 39.6665 21.1647 39.0987 20.8309C38.5309 20.4963 37.9134 20.2419 37.248 20.0668C36.5826 19.8918 35.8179 19.7641 34.9557 19.6848V15.4073H32.4346V19.5658C31.998 19.5658 31.3318 19.577 30.4367 19.6003V15.4073H27.9156V19.6848C27.5547 19.696 27.0256 19.702 26.3274 19.702L22.8557 19.6848V22.4686H24.6736C25.503 22.4686 25.9884 22.8541 26.1305 23.6234V28.495C26.2399 28.495 26.3274 28.5011 26.393 28.5123H26.1305V35.3364C26.0431 35.9134 25.7268 36.2023 25.1808 36.2023H23.3638L22.8566 39.3086H26.1305C26.3383 39.3086 26.6386 39.3121 27.0315 39.3173C27.4243 39.3224 27.7188 39.325 27.9156 39.325V43.6543H30.4376V39.3768C30.896 39.388 31.5614 39.3932 32.4346 39.3932V43.6543H34.9565V39.325C35.8516 39.2802 36.6457 39.1957 37.338 39.0706C38.0312 38.9456 38.6949 38.7507 39.3275 38.4851C39.9609 38.2194 40.49 37.8883 40.9157 37.4916C41.3413 37.0957 41.693 36.5921 41.9722 35.9807C42.2498 35.3701 42.4273 34.6621 42.5039 33.8592C42.6461 32.2861 42.4004 31.0753 41.7678 30.2259ZM30.4865 22.655C30.5622 22.655 30.7784 22.6524 31.1326 22.6464C31.4876 22.6412 31.7828 22.6351 32.0175 22.63C32.2522 22.6239 32.5685 22.6386 32.9672 22.6722C33.3651 22.7059 33.7008 22.7516 33.9742 22.8076C34.2467 22.8645 34.547 22.9577 34.8743 23.0879C35.2023 23.2181 35.464 23.3768 35.66 23.5631C35.8568 23.7502 36.0234 23.9874 36.1596 24.2763C36.2959 24.5652 36.364 24.8955 36.364 25.2689C36.364 25.5863 36.3153 25.8752 36.2168 26.1356C36.1193 26.3952 35.9712 26.6134 35.7752 26.7885C35.5792 26.9644 35.3765 27.117 35.1687 27.2472C34.9617 27.3775 34.6968 27.4818 34.3746 27.5612C34.0532 27.6405 33.7723 27.7026 33.5317 27.7483C33.292 27.7931 32.9916 27.8242 32.6316 27.8414C32.2716 27.8578 31.9982 27.8699 31.8131 27.8751C31.6272 27.8811 31.3732 27.8811 31.051 27.8751L30.8101 27.8711C30.6334 27.8682 30.5258 27.8665 30.4865 27.8665V22.655ZM36.9704 34.8951C37.1335 34.7028 37.2673 34.476 37.3716 34.2155C37.4751 33.9551 37.5272 33.667 37.5272 33.3496C37.5272 32.9426 37.4448 32.5803 37.2808 32.263C37.1176 31.9465 36.9157 31.686 36.6751 31.4825C36.4353 31.2789 36.1216 31.1056 35.7338 30.965C35.346 30.8227 34.9885 30.7184 34.6612 30.6502C34.334 30.5821 33.9294 30.5321 33.4499 30.4984C32.9695 30.4639 32.5927 30.4475 32.3193 30.4475C32.0467 30.4475 31.6951 30.4527 31.2636 30.4639C30.832 30.4751 30.5729 30.4812 30.4855 30.4812V36.219C30.5648 36.219 30.7383 36.2218 31.0066 36.2262L31.092 36.2276C31.4083 36.2327 31.6707 36.2362 31.8777 36.2362C32.0854 36.2362 32.3748 36.2276 32.7458 36.2103C33.1168 36.1939 33.4356 36.1707 33.7031 36.1431C33.9706 36.1146 34.2818 36.0663 34.6368 35.9982C34.9918 35.93 35.2947 35.8516 35.5453 35.7601C35.7969 35.6696 36.056 35.5514 36.3235 35.404C36.591 35.2573 36.8063 35.0874 36.9704 34.8951Z" fill="white"/>
</svg>
