<svg width="44" height="44" viewBox="0 0 44 44" fill="none" xmlns="http://www.w3.org/2000/svg">
<path d="M21.6777 43.3417C33.6461 43.3417 43.3485 33.6393 43.3485 21.6708C43.3485 9.70236 33.6461 0 21.6777 0C9.7092 0 0.00683594 9.70236 0.00683594 21.6708C0.00683594 33.6393 9.7092 43.3417 21.6777 43.3417Z" fill="white"/>
<path fill-rule="evenodd" clip-rule="evenodd" d="M28.175 20.6821C27.7416 20.1015 27.0883 19.7026 26.214 19.486C27.3272 18.8977 27.8164 17.8986 27.6817 16.4889C27.6368 15.9779 27.501 15.5347 27.2731 15.1594C27.0445 14.7841 26.7372 14.482 26.3486 14.2536C25.9601 14.0246 25.5376 13.8506 25.0823 13.7308C24.627 13.611 24.1038 13.5237 23.5138 13.4694V10.5425H21.7887V13.3879C21.49 13.3879 21.0341 13.3956 20.4217 13.4115V10.5425H18.6966V13.4694C18.4497 13.477 18.0876 13.4812 17.6099 13.4812L15.2344 13.4694V15.3742H16.4782C17.0458 15.3742 17.3779 15.638 17.4752 16.1643V19.4978C17.55 19.4978 17.6099 19.5019 17.6548 19.5096H17.4752V24.179C17.4153 24.5738 17.1989 24.7715 16.8253 24.7715H15.582L15.235 26.897H17.4752C17.6174 26.897 17.8229 26.8994 18.0917 26.9029C18.3605 26.9065 18.5619 26.9082 18.6966 26.9082V29.8705H20.4223V26.9436C20.736 26.9513 21.1913 26.9548 21.7887 26.9548V29.8705H23.5144V26.9082C24.1268 26.8775 24.6702 26.8197 25.1439 26.7342C25.6182 26.6486 26.0724 26.5152 26.5052 26.3335C26.9386 26.1517 27.3007 25.9251 27.5919 25.6537C27.8832 25.3828 28.1238 25.0382 28.3149 24.6198C28.5049 24.202 28.6263 23.7176 28.6787 23.1682C28.776 22.0919 28.6079 21.2634 28.175 20.6821ZM20.4558 15.5017C20.5076 15.5017 20.6555 15.4999 20.8979 15.4958C21.1408 15.4922 21.3428 15.4881 21.5034 15.4845C21.664 15.4804 21.8804 15.4905 22.1532 15.5135C22.4255 15.5365 22.6552 15.5678 22.8422 15.6061C23.0287 15.6451 23.2342 15.7088 23.4581 15.7979C23.6826 15.887 23.8616 15.9956 23.9957 16.123C24.1304 16.2511 24.2444 16.4134 24.3376 16.611C24.4309 16.8087 24.4775 17.0347 24.4775 17.2902C24.4775 17.5074 24.4441 17.7051 24.3768 17.8833C24.31 18.0609 24.2087 18.2102 24.0746 18.33C23.9405 18.4504 23.8018 18.5548 23.6596 18.6439C23.518 18.733 23.3367 18.8044 23.1162 18.8587C22.8963 18.913 22.7041 18.9555 22.5395 18.9868C22.3754 19.0175 22.1699 19.0387 21.9236 19.0505C21.6772 19.0617 21.4902 19.07 21.3635 19.0735C21.2363 19.0777 21.0625 19.0777 20.842 19.0735L20.6771 19.0708L20.6769 19.0708C20.5562 19.0688 20.4826 19.0676 20.4558 19.0676V15.5017ZM24.8924 23.877C25.0041 23.7454 25.0956 23.5902 25.1669 23.412C25.2377 23.2338 25.2734 23.0367 25.2734 22.8195C25.2734 22.541 25.217 22.2931 25.1048 22.0759C24.9931 21.8594 24.855 21.6812 24.6903 21.5419C24.5263 21.4026 24.3116 21.284 24.0463 21.1878C23.7809 21.0904 23.5363 21.019 23.3124 20.9724C23.0885 20.9258 22.8116 20.8916 22.4835 20.8686C22.1548 20.845 21.897 20.8337 21.7099 20.8337C21.5234 20.8337 21.2828 20.8373 20.9875 20.845C20.6922 20.8526 20.5149 20.8568 20.4551 20.8568V24.7828C20.5094 24.7828 20.6281 24.7848 20.8117 24.7878L20.8701 24.7887C21.0865 24.7923 21.2661 24.7946 21.4077 24.7946C21.5499 24.7946 21.7479 24.7887 22.0017 24.7769C22.2556 24.7657 22.4737 24.7498 22.6568 24.7309C22.8398 24.7114 23.0528 24.6784 23.2957 24.6318C23.5386 24.5851 23.7458 24.5314 23.9173 24.4689C24.0894 24.4069 24.2667 24.3261 24.4497 24.2252C24.6328 24.1248 24.7801 24.0086 24.8924 23.877Z" fill="#4AA956"/>
</svg>
