<svg width="75" height="74" viewBox="0 0 75 74" fill="none" xmlns="http://www.w3.org/2000/svg">
<rect width="74.0234" height="74" fill="black" fill-opacity="0"/>
<rect width="74.0234" height="74" fill="black" fill-opacity="0"/>
<ellipse cx="37.0117" cy="37" rx="37.0117" ry="37" fill="#526478"/>
<rect width="23.4032" height="32.7541" fill="black" fill-opacity="0" transform="translate(25.4835 18.1968)"/>
<rect width="23.4032" height="32.7541" fill="black" fill-opacity="0" transform="translate(25.4835 18.1968)"/>
<path d="M47.9647 35.3803C47.2123 34.3963 46.0768 33.7205 44.5585 33.3531C46.492 32.3557 47.3417 30.6628 47.1084 28.2742C47.0305 27.4081 46.7938 26.6574 46.3978 26.0211C46.0016 25.3847 45.4669 24.873 44.7917 24.486C44.117 24.0985 43.3833 23.8034 42.5921 23.6001C41.8007 23.3967 40.8922 23.249 39.8671 23.1572V18.1968H36.8698V23.0194C36.3508 23.0194 35.5593 23.0325 34.4954 23.0588V18.1968H31.4978V23.1572C31.0694 23.1704 30.4402 23.1771 29.6098 23.1771L25.4835 23.1572V26.3855H27.6438C28.63 26.3855 29.2075 26.8318 29.3761 27.724V33.3735C29.5061 33.3735 29.6098 33.3802 29.6877 33.3933H29.3761V41.306C29.2724 41.9752 28.8962 42.31 28.2473 42.31H26.0871L25.4836 45.9123H29.3765C29.6231 45.9123 29.9797 45.9156 30.447 45.9216C30.9141 45.9282 31.2643 45.9315 31.4979 45.9315V50.9509H34.496V45.9905C35.0409 46.0039 35.8324 46.0104 36.8705 46.0104V50.9509H39.8677V45.9315C40.932 45.8791 41.8759 45.7812 42.6996 45.6363C43.5236 45.4915 44.3121 45.2655 45.0645 44.9569C45.8169 44.6487 46.4461 44.2646 46.9521 43.8053C47.4584 43.3464 47.8765 42.7622 48.208 42.0534C48.5383 41.3447 48.7495 40.5245 48.84 39.5926C49.0094 37.769 48.7173 36.3647 47.9647 35.3803ZM34.5537 26.6014C34.6446 26.6014 34.9008 26.5981 35.3226 26.5915C35.7445 26.5847 36.0947 26.5783 36.3737 26.5716C36.6527 26.5652 37.029 26.5816 37.5028 26.6209C37.9764 26.6603 38.3754 26.7129 38.6997 26.7784C39.024 26.8439 39.3812 26.9522 39.7701 27.1031C40.1597 27.2539 40.4709 27.4377 40.7042 27.6542C40.938 27.8707 41.1358 28.1464 41.2978 28.4811C41.4601 28.8157 41.5413 29.1995 41.5413 29.6324C41.5413 29.9999 41.483 30.3347 41.3663 30.6366C41.2499 30.9384 41.0743 31.1911 40.841 31.3945C40.6076 31.5979 40.3671 31.7753 40.1205 31.926C39.8742 32.0768 39.5592 32.1983 39.1766 32.2901C38.794 32.382 38.4599 32.4542 38.1746 32.5066C37.889 32.5591 37.5323 32.5953 37.104 32.6149C36.6757 32.6344 36.3512 32.6478 36.1307 32.6543C35.91 32.6608 35.6084 32.6608 35.2255 32.6543C34.8425 32.6478 34.6189 32.6444 34.5539 32.6444V26.6014H34.5537V26.6014ZM42.7387 40.0062C42.6151 40.3081 42.4564 40.5707 42.2619 40.794C42.067 41.0167 41.8106 41.2137 41.4929 41.3841C41.1752 41.5549 40.8667 41.6925 40.5685 41.7975C40.2699 41.9029 39.9097 41.9943 39.4883 42.0733C39.0661 42.1521 38.6965 42.2075 38.3783 42.2405C38.0605 42.2734 37.6811 42.2995 37.2398 42.3194C36.7987 42.3387 36.4547 42.3487 36.2082 42.3487C35.9616 42.3487 35.6501 42.3451 35.2738 42.3387C34.8973 42.3326 34.6575 42.3293 34.5536 42.3293V35.6757C34.6572 35.6757 34.9655 35.6693 35.4781 35.6559C35.9909 35.6427 36.4091 35.6366 36.7336 35.6366C37.0579 35.6366 37.5058 35.656 38.0769 35.6956C38.6476 35.7347 39.1277 35.7935 39.5173 35.8722C39.9065 35.9511 40.3311 36.0723 40.7921 36.2365C41.2526 36.4005 41.6259 36.6006 41.9115 36.8368C42.197 37.0734 42.4369 37.3747 42.6314 37.7423C42.8265 38.1096 42.9238 38.5296 42.9238 39.0022C42.9237 39.37 42.8621 39.7041 42.7387 40.0062Z" fill="white"/>
</svg>
