<svg width="26" height="26" viewBox="0 0 26 26" fill="none" xmlns="http://www.w3.org/2000/svg">
<path fill-rule="evenodd" clip-rule="evenodd" d="M23.6333 13.0577C23.6886 14.1935 23.3153 15.0965 22.608 15.5366C22.1477 15.8232 21.6058 15.8588 21.1938 15.6298C20.6705 15.3388 20.3828 14.6571 20.3828 13.7089V10.8724C20.3828 9.68302 19.9684 8.79149 19.2573 8.40505C19.1496 8.34646 19.035 8.29947 18.914 8.26483C18.8204 8.23798 18.7283 8.21952 18.6375 8.20868C17.2189 8.03914 16.1595 9.73612 15.7452 10.3996L12.9974 14.7889V9.42532C12.9677 8.23752 12.5897 7.50915 11.8727 7.25774C11.8447 7.24795 11.8163 7.23888 11.7874 7.23054C11.7775 7.22769 11.7675 7.22492 11.7574 7.22224C11.2467 7.08609 10.4973 7.16405 9.76883 8.26229L3.61415 17.9989C3.37941 17.5599 3.17667 17.1066 3.00681 16.6426C2.58049 15.4779 2.36128 14.2455 2.36288 13C2.36288 7.13478 7.13369 2.36346 12.9974 2.36346C18.8611 2.36346 23.6314 7.13478 23.6314 13C23.6314 13.0058 23.6323 13.0113 23.633 13.0167C23.6336 13.0206 23.6342 13.0245 23.6346 13.0285C23.6346 13.0329 23.6342 13.037 23.6339 13.0412C23.6334 13.0466 23.6329 13.052 23.6333 13.0577ZM20.227 20.8C20.3402 20.6946 20.4734 20.6127 20.6191 20.5588C20.7647 20.5048 20.9198 20.4802 21.0754 20.486C21.2309 20.492 21.3836 20.5284 21.5247 20.5931C21.6657 20.658 21.7922 20.7499 21.8967 20.8634C22.3408 21.3415 22.3125 22.0892 21.8336 22.5331C19.4244 24.7685 16.2859 26 12.9974 26C5.83092 26 0 20.1677 0 13C0 5.83161 5.83092 0 12.9968 0C20.1441 0 25.9608 5.79863 25.9936 12.9417L25.9942 12.9708V13.0006C26.0753 14.9931 25.2984 16.6463 23.8566 17.5437C22.6672 18.2831 21.2073 18.3414 20.0461 17.6958C18.7583 16.9799 18.0192 15.5265 18.0192 13.7089V11.2434C17.9369 11.3607 17.8468 11.4964 17.749 11.6537L14.6961 16.5297C13.8131 17.9425 12.966 18.2369 12.3375 18.1765C12.2325 18.1664 12.1336 18.1464 12.0416 18.1201C11.9492 18.0936 11.8543 18.0579 11.7593 18.0104C11.1953 17.7279 10.6346 17.0278 10.6346 15.3635V11.3157L5.08428 20.0961C7.03263 22.2674 9.85767 23.6365 12.9974 23.6365C15.6869 23.637 18.2742 22.6219 20.227 20.8Z" fill="white" stroke="#0E110E"/>
</svg>
