<svg width="26" height="26" viewBox="0 0 26 26" fill="none" xmlns="http://www.w3.org/2000/svg">
<path fill-rule="evenodd" clip-rule="evenodd" d="M20.9493 4.29352L20.9391 4.29051C19.7665 3.94571 18.5689 3.47043 17.4199 3.01438L16.6925 2.72571L16.5509 2.15213C16.5464 2.14227 16.5278 2.10272 16.4765 2.03329C16.3981 1.92716 16.2614 1.7756 16.0356 1.58336L16.0262 1.5752C15.8925 1.45893 15.6072 1.33035 15.1042 1.29514C14.6186 1.26113 14.0476 1.32382 13.4899 1.46089L13.3982 1.48342C14.466 2.26675 15.1585 3.53753 15.1585 4.96948C15.1585 7.32539 13.2725 9.27579 10.8917 9.27579C8.52947 9.27579 6.62483 7.34429 6.62483 4.96948C6.62483 3.68099 7.18896 2.51379 8.08965 1.72064C6.10341 2.43526 4.98012 3.30211 4.30791 4.20983C3.49931 5.30171 3.2128 6.62324 3.09849 8.29868L3.09744 8.31408L3.0503 8.89469C2.78141 12.2227 2.5577 14.9912 1.32159 18.0516C3.97526 21.8689 9.55376 24.7683 14.7502 23.9495C14.7256 21.6093 15.6273 19.3959 16.7429 17.5338C17.6642 15.9962 18.7741 14.6275 19.7566 13.5321C19.7447 13.5352 19.7328 13.5382 19.721 13.5414C18.6574 13.8173 17.4318 14.0628 16.1462 13.9418C14.9181 13.8261 13.4678 13.3937 12.4754 12.2477L11.7666 11.4291L13.2365 9.94034L14.0373 10.4617C14.6716 10.8747 15.4521 11.0516 16.338 11.0852C17.2542 11.1195 18.1872 11.0397 19.1013 10.855C20.0467 10.6537 20.9622 10.3712 21.8378 9.99781L21.8501 9.99259C21.8859 9.97777 21.9218 9.96296 21.9574 9.94799C20.9414 9.94048 20.1235 9.11475 20.1235 8.10427C20.1235 7.10513 20.9205 6.24778 21.9588 6.24778C22.9813 6.24778 23.8067 7.07646 23.8067 8.09157C23.8067 8.51596 23.6629 8.91477 23.4179 9.23316C23.7247 9.05301 24.0133 8.8578 24.2798 8.6419L24.3682 8.57025C24.7531 7.91409 24.8827 7.34283 24.808 6.89215C24.6917 6.19135 23.934 5.11227 20.9596 4.29634L20.9493 4.29352ZM25.6845 8.5612C25.587 8.7881 25.4682 9.01555 25.3301 9.24254C25.2893 9.30957 25.2469 9.37656 25.2028 9.44348C25.1639 9.50247 25.1238 9.56142 25.0824 9.62029C25.0809 9.62249 25.0793 9.62469 25.0778 9.62688C24.7258 10.1267 24.2849 10.6214 23.7761 11.1003C23.4488 11.4487 23.1092 11.7847 22.7877 12.0972C22.7841 12.1006 22.7806 12.104 22.7771 12.1076C22.7677 12.1166 22.7583 12.1257 22.7491 12.1347C22.7457 12.138 22.7423 12.1413 22.739 12.1446C22.7298 12.1535 22.7205 12.1625 22.7113 12.1714C22.6346 12.2457 22.559 12.3187 22.4851 12.3901C22.3701 12.5013 22.2591 12.6085 22.1536 12.7115C21.9949 12.8662 21.8488 13.011 21.7207 13.144C19.427 15.5176 15.3286 20.1635 15.9928 24.8981V24.9108C15.9258 24.9221 15.8564 24.9359 15.7854 24.95C15.6972 24.9676 15.6069 24.9856 15.5165 24.9996C9.41269 26.2689 2.80751 22.7275 0 18.1706C1.37781 15.0522 1.59889 12.3166 1.8894 8.72199L1.93017 8.21898C2.1683 4.7283 3.15846 1.83422 9.02415 0.196774C10.3778 -0.133258 11.7815 -0.0190174 13.2104 0.323703C14.5013 0.00636955 15.9928 -0.00632439 16.7949 0.691808C17.3464 1.16146 17.6096 1.55496 17.6848 1.8596L17.8248 1.91511C18.9929 2.37876 20.1486 2.83745 21.2695 3.16702C25.6526 4.36944 26.596 6.44113 25.6845 8.5612ZM21.4969 11.7167C21.5772 11.6838 21.6573 11.6501 21.7372 11.6159C21.959 11.5209 22.1789 11.421 22.397 11.3164C22.3967 11.3165 22.3971 11.3164 22.397 11.3164C22.3977 11.316 22.3988 11.3155 22.3995 11.3151C22.7439 11.1431 23.0866 10.9624 23.4214 10.7671C23.4302 10.7619 23.439 10.7568 23.4479 10.7516C23.8268 10.5292 24.1956 10.2877 24.545 10.0178C24.7187 9.88371 24.8876 9.74261 25.0507 9.59342C25.0519 9.59224 25.0532 9.59106 25.0545 9.58987L25.0169 9.55179C24.4956 9.97426 23.9177 10.3187 23.3194 10.6151C23.3064 10.6216 23.2933 10.628 23.2803 10.6344C22.9564 10.7935 22.6268 10.9389 22.2972 11.075C22.2929 11.0768 22.2886 11.0787 22.2844 11.0804C22.2831 11.081 22.2817 11.0816 22.2804 11.0821C22.2057 11.1138 22.1308 11.145 22.0557 11.1755C21.1777 11.5319 20.2689 11.804 19.3393 12.0016C19.3336 12.0027 19.3281 12.0039 19.3225 12.005C18.3289 12.205 17.3109 12.2927 16.305 12.2559C16.3012 12.2558 16.2974 12.2556 16.2936 12.2555C15.2923 12.2174 14.2785 12.0149 13.402 11.4454C13.4008 11.4446 13.3996 11.4439 13.3983 11.4431L13.3607 11.4812C13.3632 11.484 13.3657 11.4868 13.3681 11.4896C13.4714 11.6081 13.5828 11.717 13.7009 11.8171C13.8015 11.9023 13.9069 11.9808 14.0165 12.0534C14.6692 12.4857 15.4692 12.7017 16.256 12.7759C16.2619 12.7764 16.2679 12.777 16.2738 12.7775C16.2737 12.7775 16.2738 12.7775 16.2738 12.7775C17.3437 12.8751 18.4014 12.6735 19.4218 12.4091C19.4231 12.4089 19.4244 12.4085 19.4257 12.4082C19.4262 12.408 19.4265 12.4079 19.427 12.4078C20.1349 12.2242 20.8248 11.9924 21.4969 11.7167ZM10.8917 8.10475C9.18709 8.10475 7.79587 6.70847 7.79587 4.96948C7.79587 3.24318 9.17456 1.83422 10.8917 1.83422C12.5962 1.83422 13.9875 3.23048 13.9875 4.96948C13.9875 6.69578 12.6087 8.10475 10.8917 8.10475ZM22.6356 8.09157C22.6356 8.47237 22.3348 8.77701 21.9713 8.77701C21.5953 8.77701 21.2945 8.47237 21.2945 8.10427C21.2945 7.72346 21.5953 7.41882 21.9588 7.41882C22.3348 7.41882 22.6356 7.72346 22.6356 8.09157Z" fill="#202622"/>
</svg>
