<svg width="64" height="64" viewBox="0 0 64 64" fill="none" xmlns="http://www.w3.org/2000/svg">
<path d="M31.6708 63.3417C49.1621 63.3417 63.3417 49.1621 63.3417 31.6708C63.3417 14.1795 49.1621 0 31.6708 0C14.1795 0 0 14.1795 0 31.6708C0 49.1621 14.1795 63.3417 31.6708 63.3417Z" fill="white"/>
<path fill-rule="evenodd" clip-rule="evenodd" d="M45.3033 35.1098C44.6661 35.5177 43.9157 35.5682 43.3453 35.2424C42.6207 34.8282 42.2223 33.8581 42.2223 32.5089V28.4723C42.2223 26.523 41.4612 25.136 40.1886 24.7615C38.0318 24.1253 36.4098 26.7974 35.8002 27.8009L31.9965 34.0458V26.413C31.9537 24.6568 31.3904 23.6064 30.321 23.2896C29.6133 23.0802 28.5546 23.1642 27.5261 24.7579L19.0042 38.6139C17.8633 36.4208 17.2686 33.9788 17.2717 31.5C17.2717 23.1533 23.8774 16.3634 31.9965 16.3634C40.1155 16.3634 46.7203 23.1533 46.7203 31.5C46.7203 31.5144 46.7239 31.5271 46.7248 31.5406C46.7248 31.555 46.7221 31.5677 46.723 31.5821C46.7997 33.1984 46.2827 34.4835 45.3033 35.1098ZM49.992 31.5009V31.4585L49.9911 31.417C49.9457 21.2519 41.8917 13 31.9956 13C22.0736 13 14 21.2988 14 31.5C14 41.7003 22.0736 50 31.9965 50C36.5497 50 40.8953 48.2475 44.2312 45.0664C44.8942 44.4347 44.9334 43.3707 44.3185 42.6902C44.1738 42.5286 43.9986 42.3979 43.8034 42.3057C43.6081 42.2135 43.3966 42.1616 43.1813 42.1532C42.966 42.1448 42.7512 42.18 42.5495 42.2567C42.3478 42.3334 42.1633 42.4501 42.0067 42.6C39.3028 45.1927 35.7203 46.6373 31.9965 46.6366C27.6491 46.6366 23.7375 44.6882 21.0398 41.5983L28.7248 29.1031V34.8634C28.7248 37.6303 29.7844 38.5246 30.673 38.7863C31.5624 39.048 32.9215 38.8693 34.3484 36.523L38.5755 29.5841C38.7109 29.3603 38.8357 29.1672 38.9498 29.0002V32.5089C38.9498 35.0953 39.9729 37.1637 41.7562 38.1826C43.364 39.1012 45.3853 39.0182 47.0323 37.966C49.0286 36.689 50.1043 34.3364 49.992 31.5009Z" fill="#4AA956"/>
</svg>
