<svg width="64" height="64" viewBox="0 0 64 64" fill="none" xmlns="http://www.w3.org/2000/svg">
<path d="M31.6708 63.3417C49.1621 63.3417 63.3417 49.1621 63.3417 31.6708C63.3417 14.1795 49.1621 0 31.6708 0C14.1795 0 0 14.1795 0 31.6708C0 49.1621 14.1795 63.3417 31.6708 63.3417Z" fill="#fff"/>
<path d="M32.0876 22.6926C32.0876 24.0983 30.9598 25.2404 29.5718 25.2404C28.1838 25.2404 27.0706 24.0983 27.0706 22.6926C27.0706 21.2869 28.1838 20.1448 29.5718 20.1448C30.9598 20.1448 32.0876 21.2869 32.0876 22.6926Z" fill="#4AA956"/>
<path fill-rule="evenodd" clip-rule="evenodd" d="M37.5694 19.1403C38.9169 19.6752 40.2501 20.2043 41.5431 20.5845C48.6421 22.532 47.9192 26.4562 44.4347 29.7361C43.9361 30.2668 43.4127 30.7725 42.9455 31.2239C42.6135 31.5447 42.3098 31.8381 42.0636 32.0935C39.4177 34.8317 34.6899 40.1909 35.4562 45.6525V45.6672C35.3789 45.6802 35.2987 45.6962 35.217 45.7125C35.1152 45.7327 35.011 45.7534 34.9068 45.7697C27.8657 47.2339 20.2462 43.1487 17.0076 37.892C18.5969 34.2948 18.852 31.1391 19.1871 26.9925C19.2026 26.8012 19.2182 26.6078 19.2341 26.4122C19.5088 22.3855 20.651 19.047 27.4175 17.1581C28.9789 16.7774 30.5983 16.9092 32.2465 17.3046C33.7357 16.9385 35.4562 16.9239 36.3815 17.7292C37.0177 18.271 37.3213 18.7249 37.4081 19.0763C37.4619 19.0977 37.5156 19.119 37.5694 19.1403ZM26.0006 22.6637C26.0006 24.6698 27.6054 26.2804 29.5717 26.2804C31.5525 26.2804 33.1429 24.6551 33.1429 22.6637C33.1429 20.6577 31.538 19.047 29.5717 19.047C27.591 19.047 26.0006 20.6724 26.0006 22.6637ZM39.4177 31.2443C40.6033 30.9368 41.7455 30.5121 42.8443 29.985C43.9287 29.4432 44.9986 28.8282 45.9095 27.9936L45.8661 27.9497C44.9263 28.7111 43.8275 29.2529 42.7287 29.7068C41.6298 30.1754 40.4876 30.5268 39.3165 30.7757C38.1599 31.01 36.9743 31.1125 35.8032 31.0686C34.6465 31.0246 33.4754 30.7904 32.4634 30.1314L32.42 30.1754C33.2441 31.1271 34.5164 31.5518 35.7598 31.6689C37.0032 31.786 38.2322 31.5518 39.4177 31.2443ZM42.3526 27.056C42.7719 27.056 43.1189 26.7045 43.1189 26.2653C43.1189 25.8406 42.7719 25.4892 42.3381 25.4892C41.9189 25.4892 41.5719 25.8406 41.5719 26.2799C41.5719 26.7045 41.9189 27.056 42.3526 27.056Z" fill="#4AA956"/>
</svg>
