<svg width="21" height="24" viewBox="0 0 21 24" fill="none" xmlns="http://www.w3.org/2000/svg">
<path d="M17.149 6.30382C19.2029 8.35772 20.1478 10.658 20.1478 13.6157C20.1478 19.3666 15.9714 23.3649 9.98767 23.3649H4.12727L0.717773 19.9554V0.511719H6.68787C9.89197 0.511719 12.5895 1.66192 14.4242 3.59262L17.149 6.30382ZM3.94927 3.57892H3.90817V4.26352L6.82477 7.15272V6.45442L3.94927 3.57892ZM7.31767 6.35852L4.53807 3.57892H4.14097L6.92057 6.35852H7.31767ZM8.28987 6.35852L5.51027 3.57892H4.72977L7.50937 6.35852H8.28987ZM6.72887 3.57892H5.70197L8.48157 6.35852H9.50857L6.72887 3.57892ZM10.5081 6.37222L7.78327 3.64742C7.49577 3.60632 7.22187 3.59262 6.92067 3.57892L9.70027 6.35852H9.98777C10.1658 6.35852 10.3437 6.35852 10.5081 6.37222ZM11.3845 6.46812L8.72807 3.81182C8.49527 3.75702 8.24887 3.71592 8.00237 3.67482L10.7135 6.38592C10.9463 6.39962 11.1791 6.44072 11.3845 6.46812ZM12.1786 6.65982L9.59067 4.07192C9.39897 4.00342 9.19357 3.93502 8.98817 3.88022L11.6308 6.52292C11.8226 6.56392 12.0006 6.60502 12.1786 6.65982ZM12.4799 6.75562C12.6578 6.83782 12.8496 6.91992 13.0139 7.00202L10.4945 4.48262C10.3165 4.38682 10.1248 4.29092 9.93307 4.20872L12.4799 6.75562ZM3.90817 9.67222L4.40107 10.1651L4.29157 10.2746L3.90817 9.89122V17.0662H6.82477V7.34442L3.90817 4.48262V5.15352L6.67407 7.90572L6.56457 8.00162L3.90817 5.35902V6.04362L6.20857 8.35772L6.11267 8.46722L3.90817 6.24902V6.94732L5.75667 8.80962L5.66087 8.91912L3.90817 7.15272V7.85102L5.30477 9.26132L5.20897 9.37092L3.90817 8.05642V8.76842L4.85297 9.71322L4.74347 9.82282L3.90817 8.97392V9.67222ZM12.7948 6.59132C12.3293 5.86562 11.7131 5.24942 10.9736 4.77022L12.7948 6.59132ZM16.8752 6.57762L15.7661 5.44112C16.5055 6.82412 16.9848 8.53562 16.9848 10.3157C16.9848 10.5074 16.9848 10.6991 16.9711 10.8771L19.7644 13.6841V13.6156C19.7643 10.7539 18.8333 8.59042 16.8752 6.57762ZM7.20807 17.0525C11.1927 16.8334 13.7669 14.218 13.7669 10.3157C13.7669 9.30242 13.5889 8.37132 13.2603 7.54982C12.425 6.97472 11.4665 6.74192 9.98767 6.74192H7.20807V17.0525ZM16.396 13.8347L19.2988 16.7376C19.5726 15.8476 19.7369 14.8891 19.7643 13.8758L16.9574 11.0688C16.8889 12.0547 16.6973 12.9721 16.396 13.8347ZM19.244 16.8745L16.3412 13.9716C16.081 14.6564 15.7523 15.2999 15.3553 15.8749L18.3129 18.8325C18.6963 18.2301 19.0113 17.5729 19.244 16.8745ZM17.108 20.3114C17.5324 19.9006 17.9021 19.435 18.2309 18.9421L15.287 15.9982C14.9446 16.4775 14.5612 16.9294 14.1231 17.3264L17.108 20.3114ZM12.8222 18.3533L15.8209 21.352C16.2453 21.0644 16.6424 20.7495 17.0121 20.4072L14.0271 17.4221C13.6574 17.7646 13.2603 18.0794 12.8222 18.3533ZM11.5076 19.079L14.5064 22.0777C14.9171 21.886 15.3142 21.6669 15.6976 21.4341L12.6989 18.4354C12.3293 18.6819 11.9322 18.8873 11.5076 19.079ZM10.2205 19.5583L13.2056 22.5433C13.6027 22.4337 13.9998 22.2831 14.3696 22.1326L11.3708 19.1339C11.0011 19.2981 10.6177 19.4487 10.2205 19.5583ZM8.97447 19.8595L11.9459 22.8308C12.3293 22.7624 12.6989 22.6802 13.055 22.5844L10.0836 19.613C9.72757 19.7089 9.35787 19.7911 8.97447 19.8595ZM8.79647 19.8869C8.46787 19.9554 8.12557 19.9964 7.78317 20.0238L10.7271 22.954C11.0832 22.9403 11.4255 22.8993 11.7677 22.8582L8.79647 19.8869ZM9.59067 22.9814H9.98777C10.1795 22.9814 10.3574 22.9814 10.5356 22.9677L7.60527 20.0374C7.30397 20.0512 7.00277 20.0648 6.68787 20.0648H6.67417L9.59067 22.9814ZM1.37507 20.0649L4.29167 22.9814H4.48337L1.58047 20.0649H1.37507ZM1.77217 20.0649L4.68877 22.9814H4.93527L2.01857 20.0649H1.77217ZM2.21027 20.0649L5.12687 22.9814H5.44177L2.52517 20.0649H2.21027ZM2.71697 20.0649L5.63347 22.9814H6.03057L3.11397 20.0649H2.71697ZM3.30577 20.0649L6.22237 22.9814H6.70157L3.78497 20.0649H3.30577ZM3.97667 20.0649L6.89327 22.9814H7.46837L4.55177 20.0649H3.97667ZM4.75717 20.0649L7.67377 22.9814H8.37207L5.45557 20.0649H4.75717ZM5.64717 20.0649L8.56377 22.9814H9.39907L6.46877 20.0649H5.64717Z" fill="white"/>
</svg>
