<svg width="24" height="24" viewBox="0 0 24 24" fill="none" xmlns="http://www.w3.org/2000/svg">
<path d="M19.1495 6.30382C21.2034 8.35772 22.1483 10.658 22.1483 13.6157C22.1483 19.3666 17.9719 23.3649 11.9882 23.3649H6.12776L2.71826 19.9554V0.511719H8.68836C11.8925 0.511719 14.59 1.66192 16.4247 3.59262L19.1495 6.30382ZM5.94976 3.57892H5.90866V4.26352L8.82526 7.15272V6.45442L5.94976 3.57892ZM9.31816 6.35852L6.53856 3.57892H6.14146L8.92106 6.35852H9.31816ZM10.2904 6.35852L7.51076 3.57892H6.73026L9.50986 6.35852H10.2904ZM8.72936 3.57892H7.70246L10.4821 6.35852H11.5091L8.72936 3.57892ZM12.5086 6.37222L9.78376 3.64742C9.49626 3.60632 9.22236 3.59262 8.92116 3.57892L11.7008 6.35852H11.9883C12.1663 6.35852 12.3442 6.35852 12.5086 6.37222ZM13.385 6.46812L10.7286 3.81182C10.4958 3.75702 10.2494 3.71592 10.0029 3.67482L12.714 6.38592C12.9468 6.39962 13.1796 6.44072 13.385 6.46812ZM14.1791 6.65982L11.5912 4.07192C11.3995 4.00342 11.1941 3.93502 10.9887 3.88022L13.6313 6.52292C13.8231 6.56392 14.0011 6.60502 14.1791 6.65982ZM14.4804 6.75562C14.6583 6.83782 14.8501 6.91992 15.0144 7.00202L12.495 4.48262C12.317 4.38682 12.1253 4.29092 11.9336 4.20872L14.4804 6.75562ZM5.90866 9.67222L6.40156 10.1651L6.29206 10.2746L5.90866 9.89122V17.0662H8.82526V7.34442L5.90866 4.48262V5.15352L8.67456 7.90572L8.56506 8.00162L5.90866 5.35902V6.04362L8.20906 8.35772L8.11316 8.46722L5.90866 6.24902V6.94732L7.75716 8.80962L7.66136 8.91912L5.90866 7.15272V7.85102L7.30526 9.26132L7.20946 9.37092L5.90866 8.05642V8.76842L6.85346 9.71322L6.74396 9.82282L5.90866 8.97392V9.67222ZM14.7953 6.59132C14.3298 5.86562 13.7136 5.24942 12.9741 4.77022L14.7953 6.59132ZM18.8757 6.57762L17.7666 5.44112C18.506 6.82412 18.9853 8.53562 18.9853 10.3157C18.9853 10.5074 18.9853 10.6991 18.9716 10.8771L21.7649 13.6841V13.6156C21.7648 10.7539 20.8338 8.59042 18.8757 6.57762ZM9.20856 17.0525C13.1932 16.8334 15.7674 14.218 15.7674 10.3157C15.7674 9.30242 15.5894 8.37132 15.2608 7.54982C14.4255 6.97472 13.467 6.74192 11.9882 6.74192H9.20856V17.0525ZM18.3965 13.8347L21.2993 16.7376C21.5731 15.8476 21.7374 14.8891 21.7648 13.8758L18.9579 11.0688C18.8894 12.0547 18.6978 12.9721 18.3965 13.8347ZM21.2445 16.8745L18.3417 13.9716C18.0815 14.6564 17.7528 15.2999 17.3558 15.8749L20.3134 18.8325C20.6968 18.2301 21.0118 17.5729 21.2445 16.8745ZM19.1085 20.3114C19.5329 19.9006 19.9026 19.435 20.2314 18.9421L17.2875 15.9982C16.9451 16.4775 16.5617 16.9294 16.1236 17.3264L19.1085 20.3114ZM14.8227 18.3533L17.8214 21.352C18.2458 21.0644 18.6429 20.7495 19.0126 20.4072L16.0276 17.4221C15.6579 17.7646 15.2608 18.0794 14.8227 18.3533ZM13.5081 19.079L16.5069 22.0777C16.9176 21.886 17.3147 21.6669 17.6981 21.4341L14.6994 18.4354C14.3298 18.6819 13.9327 18.8873 13.5081 19.079ZM12.221 19.5583L15.2061 22.5433C15.6032 22.4337 16.0003 22.2831 16.3701 22.1326L13.3713 19.1339C13.0016 19.2981 12.6182 19.4487 12.221 19.5583ZM10.975 19.8595L13.9464 22.8308C14.3298 22.7624 14.6994 22.6802 15.0555 22.5844L12.0841 19.613C11.7281 19.7089 11.3584 19.7911 10.975 19.8595ZM10.797 19.8869C10.4684 19.9554 10.1261 19.9964 9.78366 20.0238L12.7276 22.954C13.0837 22.9403 13.426 22.8993 13.7682 22.8582L10.797 19.8869ZM11.5912 22.9814H11.9883C12.18 22.9814 12.3579 22.9814 12.5361 22.9677L9.60576 20.0374C9.30446 20.0512 9.00326 20.0648 8.68836 20.0648H8.67466L11.5912 22.9814ZM3.37556 20.0649L6.29216 22.9814H6.48386L3.58096 20.0649H3.37556ZM3.77266 20.0649L6.68926 22.9814H6.93576L4.01906 20.0649H3.77266ZM4.21076 20.0649L7.12736 22.9814H7.44226L4.52566 20.0649H4.21076ZM4.71746 20.0649L7.63396 22.9814H8.03106L5.11446 20.0649H4.71746ZM5.30626 20.0649L8.22286 22.9814H8.70206L5.78546 20.0649H5.30626ZM5.97716 20.0649L8.89376 22.9814H9.46886L6.55226 20.0649H5.97716ZM6.75766 20.0649L9.67426 22.9814H10.3726L7.45606 20.0649H6.75766ZM7.64766 20.0649L10.5643 22.9814H11.3996L8.46926 20.0649H7.64766Z" fill="#202622"/>
</svg>
