<svg width="26" height="26" viewBox="0 0 26 26" fill="none" xmlns="http://www.w3.org/2000/svg">
<path fill-rule="evenodd" clip-rule="evenodd" d="M21.7529 17.9719C20.8395 18.5723 19.9718 19.0033 19.1955 19.2958C18.6219 19.5422 18.0605 19.7433 17.5071 19.9058C16.9882 20.058 16.4765 20.1763 15.9684 20.2657C15.9497 20.2691 15.9311 20.2727 15.9123 20.2761C13.8028 20.664 11.8588 20.5554 10.199 20.2503C10.1611 20.2428 10.1232 20.2354 10.0855 20.2278C9.52995 20.1157 9.00736 19.9831 8.51907 19.8378C7.93893 19.6654 7.40723 19.475 6.9262 19.2804C6.40864 19.0803 5.86064 18.834 5.29741 18.5107C5.26696 18.4876 5.23271 18.4722 5.19846 18.4568C5.16421 18.4414 5.12995 18.426 5.09951 18.4029C5.07235 18.3938 5.05596 18.3791 5.04072 18.3656C5.03035 18.3564 5.02052 18.3476 5.00818 18.3413C4.6124 18.1104 4.38406 17.9565 4.38406 17.9565L3.36457 18.5596L5.04588 16.9746C5.04615 16.9742 5.04589 16.9746 5.04588 16.9746L5.05002 16.9769L5.07416 16.9927C5.09689 17.0075 5.13268 17.0308 5.18058 17.0611C5.27438 17.1203 5.41429 17.2067 5.59323 17.3112C5.60452 17.3176 5.61542 17.324 5.62591 17.3303L5.66121 17.3423L5.74052 17.4023C5.7573 17.4104 5.77636 17.4197 5.79593 17.4299C5.83142 17.4484 5.87581 17.4731 5.92514 17.505C6.41232 17.7817 6.89097 17.9967 7.35342 18.1756L7.36193 18.1789L7.37041 18.1823C8.22071 18.5263 9.24174 18.8563 10.4194 19.0864C11.9789 19.3726 13.791 19.4693 15.7497 19.1015L15.7631 19.0989C16.7242 18.9299 17.7017 18.6482 18.7281 18.2075L18.7527 18.1968L18.7778 18.1873C19.4685 17.9271 20.2584 17.5367 21.1022 16.9821L22.7679 18.5825L21.7529 17.9719ZM4.92642 18.6312C4.91204 18.6161 4.89798 18.6012 4.88421 18.5865C4.88027 18.5822 4.87636 18.5781 4.87247 18.574C4.53448 18.2108 4.38406 17.9565 4.38406 17.9565C3.36457 18.5596 3.36429 18.5591 3.36457 18.5596L3.36704 18.5638L3.36993 18.5685L3.37697 18.5801L3.39626 18.611C3.41144 18.6351 3.43134 18.6656 3.45614 18.702C3.50571 18.7748 3.575 18.8714 3.66556 18.9859C3.84653 19.2149 4.11342 19.517 4.47854 19.8454C4.94305 20.2633 5.56466 20.7221 6.36562 21.1263C6.36461 21.1274 6.36361 21.1287 6.36261 21.1299C6.32547 21.1759 6.28974 21.2201 6.25567 21.2621C4.38895 21.0869 3.10464 20.4018 2.27739 19.7593C1.81757 19.4022 1.49287 19.053 1.28807 18.8014C1.25033 18.7549 1.21678 18.7121 1.18729 18.6732C1.2381 15.3576 1.97891 12.3459 2.72817 10.1283C3.11524 8.98272 3.50157 8.05785 3.78902 7.42341C3.83732 7.31683 3.88278 7.21851 3.92495 7.1288L4.42105 7.79316C4.42106 7.79316 4.42162 7.79418 4.42105 7.79316L4.42246 7.79371L4.43421 7.78715C4.44569 7.78076 4.46437 7.77044 4.48998 7.75655C4.54119 7.72876 4.62 7.68669 4.72405 7.63318C4.93211 7.5262 5.24027 7.3739 5.62978 7.1988C7.86782 6.19784 9.63638 5.9345 10.2927 5.88244L10.312 5.88091L10.3313 5.87874C10.3918 5.87195 10.4447 5.86391 10.4852 5.8574L10.5742 5.84277C10.5829 5.8414 10.589 5.84051 10.593 5.83996H10.66L10.7396 5.8291C12.0044 5.65666 13.4418 5.61351 14.9337 5.78589C16.9111 6.01613 19.0288 6.60495 21.1954 7.80143L21.9186 6.81902C21.9954 6.97494 22.095 7.18306 22.2109 7.43881C22.4983 8.07324 22.8847 8.99812 23.2718 10.1437C24.0208 12.3608 24.7615 15.3717 24.8126 18.6864C24.7852 18.7219 24.7542 18.7609 24.7198 18.8028C24.5147 19.052 24.1879 19.3999 23.7251 19.7559C22.8911 20.3973 21.5975 21.0805 19.7258 21.249C19.706 21.2248 19.6855 21.1999 19.6647 21.1745C20.4911 20.7734 21.1336 20.3117 21.6143 19.8889C21.9922 19.5564 22.2687 19.2492 22.4564 19.0161C22.5502 18.8996 22.622 18.8013 22.6733 18.7271C22.699 18.69 22.7196 18.6589 22.7352 18.6346L22.7551 18.6032L22.7625 18.5915L22.7654 18.5866L22.7679 18.5825C22.7681 18.5819 22.7679 18.5825 21.7529 17.9719C21.7529 17.9719 21.0983 19.06 19.4729 19.9417C19.4634 19.9468 19.4541 19.9519 19.4446 19.957C19.2724 20.0495 19.0892 20.1398 18.8951 20.226C18.5408 20.3836 18.1496 20.5281 17.7189 20.6505C17.809 20.7645 17.9016 20.8807 17.9944 20.9964C18.1736 21.2198 18.3534 21.4417 18.5173 21.6427C18.8996 22.1114 19.1955 22.4671 19.1955 22.4671C21.9513 22.3808 23.7603 21.3128 24.8154 20.3934C25.0494 20.1894 25.2463 19.9929 25.4082 19.8159C25.8113 19.3755 25.9977 19.0568 26 19.0495C26 18.686 25.9918 18.3258 25.9765 17.9697C25.6859 11.2237 22.7879 5.91781 22.7879 5.91781C22.3369 5.57618 21.8891 5.28374 21.4525 5.03343C18.7809 3.50152 16.5316 3.54702 16.5316 3.54702L16.2271 3.9011C16.3332 3.93399 16.4378 3.96729 16.5407 4.00096C16.8476 4.10134 17.1406 4.20495 17.4195 4.3105C18.9857 4.90311 20.113 5.55667 20.8268 6.04023C21.4602 6.4693 21.768 6.76451 21.768 6.76451C19.7785 5.66579 17.8226 5.04515 15.9682 4.73619C15.6662 4.68583 15.3666 4.64377 15.0703 4.60925C14.8023 4.5783 14.5363 4.55383 14.2724 4.53541C13.2694 4.46537 12.2995 4.48276 11.394 4.56368C11.1161 4.58852 10.8444 4.61933 10.5796 4.65544C10.4924 4.65544 10.4175 4.66792 10.3392 4.68096C10.2946 4.6884 10.2488 4.69603 10.199 4.70162C10.1282 4.70724 10.048 4.71478 9.95886 4.72466C9.0715 4.82299 7.30319 5.15263 5.14518 6.11794C4.95059 6.2054 4.77476 6.28769 4.61973 6.36235C4.45492 6.44171 4.3136 6.51245 4.19821 6.57164C4.0168 6.66468 3.89942 6.72914 3.8555 6.7536C3.84261 6.76078 3.83605 6.76451 3.83605 6.76451C3.83605 6.76451 3.84144 6.75933 3.85228 6.74935C3.89337 6.71147 4.0127 6.60452 4.21317 6.44894C4.40891 6.29704 4.68201 6.09876 5.03517 5.87318C5.0353 5.87308 5.03503 5.87326 5.03517 5.87318C5.84858 5.35362 7.08693 4.68898 8.78226 4.11236C9.001 4.03797 9.22735 3.96503 9.46139 3.89405C9.53897 3.87052 9.6174 3.84721 9.69669 3.82412L9.46835 3.54702C9.46835 3.54702 6.91729 3.49568 4.04024 5.32683C3.79728 5.48145 3.55201 5.64951 3.30575 5.83216C3.27449 5.85534 3.24322 5.87876 3.21193 5.90241C3.21193 5.90241 3.18635 5.94925 3.13975 6.03972C3.13971 6.0398 3.1398 6.03965 3.13975 6.03972C3.13611 6.04679 3.13221 6.05437 3.12832 6.06198C2.62313 7.04771 0 12.4814 0 19.0341C0 19.0341 1.87235 22.3131 6.7892 22.4825C6.7892 22.4825 7.10148 22.1024 7.49793 21.6088C7.6685 21.3964 7.85464 21.1631 8.0382 20.9301C8.1202 20.826 8.20167 20.7219 8.28101 20.6197C7.85607 20.4904 7.47092 20.3398 7.12317 20.1774C6.96375 20.1029 6.81219 20.0259 6.66827 19.9474C6.66503 19.9456 6.66177 19.9439 6.65854 19.9421C5.9851 19.5733 5.47946 19.1695 5.11811 18.8231C5.10688 18.8123 5.09579 18.8016 5.08485 18.791C5.0548 18.7617 5.02579 18.7329 4.99782 18.7046C4.97323 18.6797 4.94943 18.6552 4.92642 18.6312ZM5.39157 14.4465C5.39157 12.5366 6.8177 10.768 8.84424 10.768C10.8575 10.768 12.3151 12.5229 12.2969 14.4532C12.2936 16.3604 10.8684 18.1249 8.84424 18.1249C6.83782 18.1249 5.39157 16.3617 5.39157 14.4465ZM11.1124 14.4465C11.1124 15.8166 10.1077 16.9404 8.84424 16.9404C7.596 16.9404 6.57609 15.8166 6.57609 14.4465C6.57609 13.0763 7.58077 11.9525 8.84424 11.9525C10.1077 11.9525 11.1276 13.0763 11.1124 14.4465ZM13.5203 14.4465C13.5203 12.5366 14.9465 10.768 16.973 10.768C18.9996 10.768 20.4256 12.5366 20.4256 14.4465C20.4256 16.3563 18.9996 18.1249 16.973 18.1249C14.9666 18.1249 13.5203 16.3617 13.5203 14.4465ZM14.7048 14.4465C14.7048 13.0763 15.7095 11.9525 16.973 11.9525C18.2365 11.9525 19.2411 13.0763 19.2411 14.4465C19.2411 15.8166 18.2365 16.9404 16.973 16.9404C15.7247 16.9404 14.7048 15.8166 14.7048 14.4465Z" fill="#202622"/>
</svg>
