<svg width="44" height="44" viewBox="0 0 44 44" fill="none" xmlns="http://www.w3.org/2000/svg">
<path d="M21.6708 43.3417C33.6393 43.3417 43.3417 33.6393 43.3417 21.6708C43.3417 9.70236 33.6393 0 21.6708 0C9.70236 0 0 9.70236 0 21.6708C0 33.6393 9.70236 43.3417 21.6708 43.3417Z" fill="#FAFAFA"/>
<path d="M27.2329 30.0001C27.2329 30.0001 26.5506 29.1799 25.9842 28.4639C28.4558 27.7609 29.3956 26.1987 29.3956 26.1987C28.6232 26.7064 27.8894 27.0709 27.2329 27.3183C26.2932 27.7218 25.392 27.9822 24.5038 28.1384C22.7016 28.4769 21.041 28.3858 19.6249 28.1254C18.5565 27.9171 17.6296 27.6177 16.8572 27.3052C16.4195 27.136 15.9561 26.9277 15.4798 26.6543C15.4283 26.6153 15.364 26.6022 15.3125 26.5632C15.2738 26.5502 15.261 26.5241 15.2352 26.5111C14.9005 26.3158 14.7074 26.1856 14.7074 26.1856C14.7074 26.1856 15.6085 27.7088 18.0029 28.4379C17.4365 29.1669 16.7414 30.0131 16.7414 30.0131C12.5834 29.8699 11 27.0969 11 27.0969C11 20.9651 13.7162 15.992 13.7162 15.992C16.4195 13.948 19.007 14.0001 19.007 14.0001L19.2001 14.2345C15.8016 15.2239 14.244 16.721 14.244 16.721C14.244 16.721 14.6559 16.4867 15.3511 16.1742C17.3593 15.276 18.9684 15.0286 19.6249 14.9765C19.7408 14.9635 19.8309 14.9375 19.9468 14.9375C21.0925 14.7812 22.3926 14.7422 23.7443 14.8984C25.5336 15.1067 27.4517 15.6405 29.4084 16.721C29.4084 16.721 27.9152 15.289 24.7226 14.2996L24.9801 14.0001C24.9801 14.0001 27.5547 13.948 30.2709 16.005C30.2709 16.005 32.9871 20.9782 32.9871 27.11C33 27.0969 31.3909 29.8699 27.2329 30.0001ZM18.4792 21.1083C17.4108 21.1083 16.5611 22.0587 16.5611 23.2174C16.5611 24.376 17.4236 25.3264 18.4792 25.3264C19.5477 25.3264 20.3973 24.376 20.3973 23.2174C20.4102 22.0587 19.5477 21.1083 18.4792 21.1083ZM25.3534 21.1083C24.285 21.1083 23.4353 22.0587 23.4353 23.2174C23.4353 24.376 24.2978 25.3264 25.3534 25.3264C26.4219 25.3264 27.2715 24.376 27.2715 23.2174C27.2715 22.0587 26.4219 21.1083 25.3534 21.1083Z" fill="#4AA956"/>
</svg>
