<svg width="64" height="64" viewBox="0 0 64 64" fill="none" xmlns="http://www.w3.org/2000/svg">
<path d="M31.6708 63.3417C49.1621 63.3417 63.3417 49.1621 63.3417 31.6708C63.3417 14.1795 49.1621 0 31.6708 0C14.1795 0 0 14.1795 0 31.6708C0 49.1621 14.1795 63.3417 31.6708 63.3417Z" fill="#4AA956"/>
<path d="M31.4047 43.6542H26.9432V31.2423H23.9669V26.9648L26.9432 26.964L26.9384 24.4437C26.9384 20.9541 27.846 18.8312 31.7888 18.8312H35.0715V23.1094H33.0199C31.4845 23.1094 31.4106 23.7071 31.4106 24.8231L31.4045 26.964H35.0945L34.6595 31.2414L31.4076 31.2423L31.4047 43.6542Z" fill="white"/>
</svg>
