<svg width="44" height="44" viewBox="0 0 44 44" fill="none" xmlns="http://www.w3.org/2000/svg">
<path d="M21.6708 43.3417C33.6393 43.3417 43.3417 33.6393 43.3417 21.6708C43.3417 9.70236 33.6393 0 21.6708 0C9.70236 0 0 9.70236 0 21.6708C0 33.6393 9.70236 43.3417 21.6708 43.3417Z" fill="white"/>
<path d="M21.4887 29.8705H18.436V21.3776H16.3994V18.4507L18.436 18.4502L18.4326 16.7257C18.4326 14.3379 19.0537 12.8853 21.7515 12.8853H23.9977V15.8127H22.594C21.5433 15.8127 21.4928 16.2216 21.4928 16.9853L21.4886 18.4502H24.0135L23.7158 21.377L21.4907 21.3776L21.4887 29.8705Z" fill="#4AA956"/>
</svg>
