<svg width="12" height="22" viewBox="0 0 12 22" fill="none" xmlns="http://www.w3.org/2000/svg">
<path d="M10.7715 5.06892C11.1212 5.06892 11.4051 4.78506 11.4051 4.43531V0.633616C11.4051 0.28386 11.1212 0 10.7715 0H6.96977C4.52401 0 2.53446 1.98955 2.53446 4.43531V7.60339H0.633615C0.283859 7.60339 0 7.88725 0 8.237V12.0387C0 12.3885 0.283859 12.6723 0.633615 12.6723H2.53446V20.9938C2.53446 21.3436 2.81832 21.6274 3.16808 21.6274H6.96977C7.31953 21.6274 7.60339 21.3436 7.60339 20.9938V12.6723H10.1378C10.4475 12.6723 10.7119 12.4484 10.763 12.143L11.3966 8.34134C11.427 8.15759 11.3755 7.96962 11.2551 7.82726C11.1347 7.68533 10.9577 7.60339 10.7715 7.60339H7.60339V5.06892H10.7715ZM6.96977 8.87062H10.0234L9.60097 11.4051H6.96977C6.62002 11.4051 6.33616 11.6889 6.33616 12.0387V20.3602H3.80169V12.0387C3.80169 11.6889 3.51783 11.4051 3.16808 11.4051H1.26723V8.87062H3.16808C3.51783 8.87062 3.80169 8.58676 3.80169 8.237V4.43531C3.80169 2.68864 5.2231 1.26723 6.96977 1.26723H10.1378V3.80169H6.96977C6.62002 3.80169 6.33616 4.08555 6.33616 4.43531V8.237C6.33616 8.58676 6.62002 8.87062 6.96977 8.87062Z" fill="white"/>
</svg>
