<svg width="26" height="26" viewBox="0 0 26 26" fill="none" xmlns="http://www.w3.org/2000/svg">
<path d="M18.8584 6.09375C19.2788 6.09375 19.6201 5.7525 19.6201 5.33204V0.76172C19.6201 0.34125 19.2788 0 18.8584 0H14.2881C11.3478 0 8.95605 2.39179 8.95605 5.33204V9.14063H6.6709C6.25043 9.14063 5.90918 9.48188 5.90918 9.90235V14.4727C5.90918 14.8932 6.25043 15.2344 6.6709 15.2344H8.95605V25.2383C8.95605 25.6588 9.2973 26 9.71778 26H14.2881C14.7086 26 15.0498 25.6588 15.0498 25.2383V15.2344H18.0966C18.4689 15.2344 18.7868 14.9652 18.8482 14.5981L19.6099 10.0278C19.6465 9.80688 19.5846 9.58091 19.4398 9.40977C19.2951 9.23914 19.0823 9.14063 18.8584 9.14063H15.0498V6.09375H18.8584ZM14.2881 10.6641H17.9591L17.4513 13.711H14.2881C13.8676 13.711 13.5264 14.0521 13.5264 14.4727V24.4766H10.4795V14.4727C10.4795 14.0521 10.1382 13.711 9.71778 13.711H7.43262V10.6641H9.71778C10.1382 10.6641 10.4795 10.3228 10.4795 9.90235V5.33204C10.4795 3.23223 12.1883 1.52344 14.2881 1.52344H18.0966V4.57031H14.2881C13.8676 4.57031 13.5264 4.91156 13.5264 5.33204V9.90235C13.5264 10.3228 13.8676 10.6641 14.2881 10.6641Z" fill="#202622"/>
</svg>
