<svg width="68" height="68" viewBox="0 0 68 68" fill="none" xmlns="http://www.w3.org/2000/svg">
<path d="M34 68C52.7777 68 68 52.7777 68 34C68 15.2223 52.7777 0 34 0C15.2223 0 0 15.2223 0 34C0 52.7777 15.2223 68 34 68Z" fill="white"/>
<path d="M40.9528 35.5495C39.5901 35.5495 38.4846 37.0675 38.4846 38.9411C38.4846 40.8148 39.5901 42.3337 40.9528 42.3337C42.3147 42.3337 43.4192 40.8148 43.4192 38.9411C43.4192 37.0675 42.3147 35.5495 40.9528 35.5495Z" fill="#2873FB"/>
<path fill-rule="evenodd" clip-rule="evenodd" d="M48.3391 18.3782C49.8369 22.1219 49.8231 26.0337 49.5419 26.722C51.3026 28.6205 52.3786 30.9013 52.3786 34.0173C52.3786 47.5631 41.0649 47.78 38.208 47.78C37.6217 47.78 36.5064 47.7815 35.2884 47.7831L34.9192 47.7836L34.5465 47.7831C33.33 47.7815 32.2169 47.78 31.6304 47.78C28.7734 47.78 17.4597 47.5631 17.4597 34.0173C17.4597 30.9013 18.5358 28.6205 20.2964 26.722C20.0152 26.0337 20.0014 22.1219 21.5002 18.3782C21.5002 18.3782 24.937 18.7522 30.1371 22.2974C31.2288 21.9979 33.074 21.849 34.9192 21.849C36.7644 21.849 38.6105 21.9988 39.7003 22.2974C44.9014 18.7522 48.3391 18.3782 48.3391 18.3782ZM22.1346 38.3565C22.1346 45.2659 27.7087 46.115 34.8662 46.115H34.9728C42.1312 46.115 47.7053 45.2659 47.7053 38.3565C47.7053 36.7025 47.1172 35.1651 45.7205 33.8905C44.0208 32.3404 41.4621 32.5201 38.4649 32.7305C37.3543 32.8085 36.1834 32.8908 34.9737 32.8908C34.9562 32.8908 34.9388 32.8908 34.9195 32.8898C34.902 32.8908 34.8837 32.8908 34.8662 32.8908C33.6565 32.8908 32.4857 32.8085 31.3751 32.7305C28.3781 32.5201 25.8195 32.3404 24.1185 33.8905C22.7217 35.1651 22.1346 36.7025 22.1346 38.3565Z" fill="#2873FB"/>
<path d="M28.8853 35.5495C27.5235 35.5495 26.4189 37.0675 26.4189 38.9411C26.4189 40.8148 27.5235 42.3337 28.8853 42.3337C30.249 42.3337 31.3535 40.8148 31.3535 38.9411C31.3526 37.0675 30.2481 35.5495 28.8853 35.5495Z" fill="#2873FB"/>
</svg>
