<svg width="65" height="64" viewBox="0 0 65 64" fill="none" xmlns="http://www.w3.org/2000/svg">
<path d="M32.4371 63.3417C49.9284 63.3417 64.1079 49.1621 64.1079 31.6708C64.1079 14.1795 49.9284 0 32.4371 0C14.9457 0 0.766235 14.1795 0.766235 31.6708C0.766235 49.1621 14.9457 63.3417 32.4371 63.3417Z" fill="#4AA956"/>
<path d="M38.9137 33.1138C37.6443 33.1138 36.6146 34.5279 36.6146 36.2731C36.6146 38.0184 37.6443 39.4333 38.9137 39.4333C40.1822 39.4333 41.2111 38.0184 41.2111 36.2731C41.2111 34.5279 40.1822 33.1138 38.9137 33.1138Z" fill="white"/>
<path fill-rule="evenodd" clip-rule="evenodd" d="M45.7945 17.1192C47.1898 20.6064 47.1769 24.2503 46.915 24.8914C48.555 26.6599 49.5574 28.7844 49.5574 31.687C49.5574 44.3048 39.0187 44.5068 36.3575 44.5068C35.8113 44.5068 34.7722 44.5082 33.6375 44.5097L33.294 44.5102L32.9473 44.5097C31.8139 44.5082 30.7769 44.5068 30.2305 44.5068C27.5693 44.5068 17.0306 44.3048 17.0306 31.687C17.0306 28.7844 18.0329 26.6599 19.673 24.8914C19.411 24.2503 19.3982 20.6064 20.7943 17.1192C20.7943 17.1192 23.9956 17.4676 28.8395 20.7699C29.8564 20.4909 31.5752 20.3522 33.294 20.3522C35.0128 20.3522 36.7324 20.4917 37.7476 20.7699C42.5924 17.4676 45.7945 17.1192 45.7945 17.1192ZM21.385 35.7289C21.385 42.165 26.5773 42.9559 33.2444 42.9559H33.3437C40.0117 42.9559 45.204 42.165 45.204 35.7289C45.204 34.1882 44.6562 32.7561 43.3551 31.5689C41.7719 30.125 39.3885 30.2923 36.5966 30.4884C35.562 30.561 34.4714 30.6376 33.3446 30.6376C33.3283 30.6376 33.312 30.6376 33.2941 30.6367C33.2778 30.6376 33.2607 30.6376 33.2444 30.6376C32.1176 30.6376 31.027 30.561 29.9925 30.4884C27.2007 30.2923 24.8175 30.125 23.233 31.5689C21.9319 32.7561 21.385 34.1882 21.385 35.7289Z" fill="white"/>
<path d="M27.6728 33.1138C26.4043 33.1138 25.3754 34.5279 25.3754 36.2731C25.3754 38.0184 26.4043 39.4333 27.6728 39.4333C28.9431 39.4333 29.972 38.0184 29.972 36.2731C29.9711 34.5279 28.9422 33.1138 27.6728 33.1138Z" fill="white"/>
</svg>
