<svg width="75" height="74" viewBox="0 0 75 74" fill="none" xmlns="http://www.w3.org/2000/svg">
<rect width="74.0234" height="74" fill="black" fill-opacity="0" transform="translate(0.976562)"/>
<rect width="74.0234" height="74" fill="black" fill-opacity="0" transform="translate(0.976562)"/>
<ellipse cx="37.9883" cy="37" rx="37.0117" ry="37" fill="#526478"/>
<rect width="38" height="32" fill="black" fill-opacity="0" transform="translate(20 20)"/>
<rect width="38" height="32" fill="black" fill-opacity="0" transform="translate(20 20)"/>
<path d="M45.5657 38.6864C44.0829 38.6864 42.8801 40.3381 42.8801 42.377C42.8801 44.4164 44.0829 46.0689 45.5657 46.0689C47.0477 46.0689 48.2497 44.4164 48.2497 42.377C48.2501 40.3381 47.0477 38.6864 45.5657 38.6864ZM54.9133 29.0798C55.219 28.3307 55.2343 24.0743 53.604 20C53.604 20 49.863 20.4074 44.2031 24.265C43.0168 23.9397 41.0078 23.7768 39 23.7768C36.9922 23.7768 34.984 23.9393 33.7965 24.2646C28.1365 20.4074 24.3968 20 24.3968 20C22.7662 24.0743 22.7806 28.3307 23.0867 29.0798C21.1706 31.1463 20 33.6279 20 37.0187C20 51.76 32.3124 51.9963 35.4206 51.9963C36.124 51.9963 37.5221 51.9979 39 52C40.4779 51.9979 41.8768 51.9963 42.5794 51.9963C45.6876 51.9963 58 51.76 58 37.0187C58 33.6279 56.8294 31.1463 54.9133 29.0798ZM39.0582 50.1842H38.9422C31.1526 50.1842 25.0866 49.2603 25.0866 41.7411C25.0866 39.9405 25.7264 38.2683 27.2464 36.8808C29.7829 34.5686 34.0728 35.7932 38.9422 35.7932C38.9608 35.7932 38.9806 35.7928 39.0004 35.792C39.0207 35.7928 39.0401 35.7932 39.0587 35.7932C43.928 35.7932 48.2191 34.569 50.7544 36.8808C52.2744 38.2683 52.9142 39.9405 52.9142 41.7411C52.9138 49.2603 46.8478 50.1842 39.0582 50.1842ZM32.4343 38.6864C30.9523 38.6864 29.7503 40.3381 29.7503 42.377C29.7503 44.4164 30.9523 46.0689 32.4343 46.0689C33.9179 46.0689 35.1199 44.4164 35.1199 42.377C35.1195 40.3381 33.9175 38.6864 32.4343 38.6864Z" fill="white"/>
</svg>
