<svg width="44" height="44" viewBox="0 0 44 44" fill="none" xmlns="http://www.w3.org/2000/svg">
<path d="M22.0331 43.3417C34.0016 43.3417 43.704 33.6393 43.704 21.6708C43.704 9.70236 34.0016 0 22.0331 0C10.0647 0 0.362305 9.70236 0.362305 21.6708C0.362305 33.6393 10.0647 43.3417 22.0331 43.3417Z" fill="white"/>
<path d="M19.492 16.0943V26.9716C19.492 27.1257 19.4517 27.2578 19.3741 27.3649C19.296 27.4715 19.1799 27.5277 19.0271 27.5277C18.9199 27.5277 18.8157 27.5022 18.715 27.453L14.3062 25.2926C14.1723 25.2318 14.0616 25.1263 13.9698 24.9827C13.878 24.8384 13.833 24.6941 13.833 24.5516V13.9797C13.833 13.8563 13.8638 13.7509 13.9284 13.6645C13.9905 13.5782 14.0823 13.5342 14.2037 13.5342C14.292 13.5342 14.4305 13.5799 14.6212 13.6732L19.4659 16.0468C19.4813 16.0671 19.492 16.0821 19.492 16.0943Z" fill="#4AA956"/>
<path d="M20.0986 17.0317L25.1595 25.0621L20.0986 22.5952V17.0317Z" fill="#4AA956"/>
<path d="M30.8189 17.1982V26.9718C30.8189 27.1259 30.7739 27.2516 30.6856 27.346C30.5974 27.4428 30.4778 27.4903 30.325 27.4903C30.1728 27.4903 30.0253 27.4497 29.8797 27.3698L25.7012 25.3305L30.8189 17.1982Z" fill="#4AA956"/>
<path d="M30.7909 16.0853C30.7909 16.1038 29.9796 17.401 28.3588 19.9751C26.7385 22.5508 25.7886 24.0566 25.5115 24.4957L21.8145 18.6171L24.8856 13.7303C24.9927 13.5576 25.1574 13.4707 25.3777 13.4707C25.4659 13.4707 25.5476 13.4898 25.624 13.5269L30.7524 16.0314C30.7767 16.0413 30.7909 16.0598 30.7909 16.0853Z" fill="#4AA956"/>
</svg>
