<svg width="75" height="74" viewBox="0 0 75 74" fill="none" xmlns="http://www.w3.org/2000/svg">
<rect width="74.0234" height="74" fill="black" fill-opacity="0"/>
<rect width="74.0234" height="74" fill="black" fill-opacity="0"/>
<ellipse cx="37.0117" cy="37" rx="37.0117" ry="37" fill="#526478"/>
<rect width="28.6827" height="24.2623" fill="black" fill-opacity="0" transform="translate(23.0565 23.0491)"/>
<rect width="28.6827" height="24.2623" fill="black" fill-opacity="0" transform="translate(23.0565 23.0491)"/>
<rect width="28.6827" height="24.2623" fill="black" fill-opacity="0" transform="translate(23.0565 23.0491)"/>
<path d="M32.6125 27.5767V46.3514C32.6125 46.6177 32.5452 46.846 32.4135 47.0304C32.2817 47.2148 32.0857 47.3114 31.8281 47.3114C31.6466 47.3114 31.471 47.2675 31.3013 47.1826L23.8555 43.454C23.6301 43.3486 23.4428 43.1672 23.2877 42.9184C23.1326 42.6696 23.0565 42.4209 23.0565 42.175V23.9271C23.0565 23.7134 23.1091 23.532 23.2174 23.3827C23.3228 23.2335 23.4779 23.1574 23.6828 23.1574C23.8321 23.1574 24.0662 23.2364 24.3882 23.3973L32.5686 27.4947C32.5949 27.5298 32.6125 27.5562 32.6125 27.5767ZM33.6369 29.1951L42.1831 43.056L33.6369 38.7976V29.1951ZM51.7392 29.4819V46.3514C51.7392 46.6177 51.6631 46.8343 51.5138 46.9982C51.3645 47.165 51.1626 47.247 50.905 47.247C50.6475 47.247 50.3987 47.1767 50.1528 47.0392L43.0963 43.5184L51.7392 29.4819ZM51.6923 27.562C51.6923 27.5942 50.3226 29.8331 47.586 34.2759C44.8495 38.7215 43.2456 41.3204 42.7773 42.0784L36.5344 31.9316L41.7207 23.4969C41.9022 23.1983 42.1802 23.0491 42.5519 23.0491C42.7012 23.0491 42.8387 23.0813 42.9675 23.1457L51.6279 27.4684C51.6689 27.4859 51.6923 27.5181 51.6923 27.562Z" fill="white"/>
</svg>
