<svg width="26" height="26" viewBox="0 0 26 26" fill="none" xmlns="http://www.w3.org/2000/svg">
<path fill-rule="evenodd" clip-rule="evenodd" d="M3.21279 3.66267C2.15968 3.66267 1.29939 4.52272 1.29939 5.58349V20.2029C1.29939 21.2637 2.15968 22.1238 3.21279 22.1238H22.7871C23.8407 22.1238 24.7006 21.2633 24.7006 20.2053V5.58349C24.7006 4.52272 23.8403 3.66267 22.7871 3.66267H3.21279ZM0 5.58349C0 3.80861 1.43851 2.36328 3.21279 2.36328H22.7871C24.5614 2.36328 26 3.80861 26 5.58349V20.2053C26 21.9782 24.5611 23.4232 22.7871 23.4232H3.21279C1.43851 23.4232 0 21.9778 0 20.2029V5.58349Z" fill="#202622"/>
<path d="M12.5925 14.5404C12.0557 14.5404 11.5182 14.3514 11.0793 13.9701L1.71946 5.91013C1.42742 5.65956 1.3899 5.21251 1.63462 4.91365C1.87935 4.6148 2.31658 4.57567 2.60862 4.82624L11.9676 12.8896C12.3274 13.2009 12.8494 13.2009 13.2092 12.8896L22.5682 4.82624C22.861 4.57318 23.2974 4.6148 23.5421 4.91365C23.7869 5.21251 23.7494 5.65956 23.4574 5.91013L14.1032 13.9726C13.666 14.3514 13.1292 14.5404 12.5925 14.5404Z" fill="#202622"/>
</svg>
