<svg width="64" height="64" viewBox="0 0 64 64" fill="none" xmlns="http://www.w3.org/2000/svg">
<path d="M31.9856 63.3417C49.4769 63.3417 63.6564 49.1621 63.6564 31.6708C63.6564 14.1795 49.4769 0 31.9856 0C14.4943 0 0.314743 14.1795 0.314743 31.6708C0.314743 49.1621 14.4943 63.3417 31.9856 63.3417Z" fill="#4AA956"/>
<path fill-rule="evenodd" clip-rule="evenodd" d="M22.6675 41.0863H43.0173C44.487 41.0863 45.6819 39.888 45.6819 38.4166V23.2154C45.6819 21.7414 44.487 20.5431 43.0173 20.5431H22.6675C21.1978 20.5431 20.0029 21.7414 20.0029 23.2154V38.414C20.0029 39.888 21.1978 41.0863 22.6675 41.0863ZM30.8455 31.9339C31.3017 32.3303 31.8606 32.5267 32.4186 32.5267C32.9766 32.5267 33.5346 32.3303 33.9892 31.9365L43.7139 23.5546C44.0175 23.2941 44.0565 22.8293 43.8021 22.5186C43.5476 22.2079 43.0939 22.1647 42.7895 22.4278L33.0597 30.8105C32.6857 31.1342 32.143 31.1342 31.769 30.8105L22.0392 22.4278C21.7356 22.1673 21.2811 22.2079 21.0267 22.5186C20.7722 22.8293 20.8113 23.2941 21.1149 23.5546L30.8455 31.9339Z" fill="white"/>
</svg>
