<svg width="64" height="64" viewBox="0 0 64 64" fill="none" xmlns="http://www.w3.org/2000/svg">
<path d="M31.7089 63.3417C49.2002 63.3417 63.3797 49.1621 63.3797 31.6708C63.3797 14.1795 49.2002 0 31.7089 0C14.2176 0 0.0380859 14.1795 0.0380859 31.6708C0.0380859 49.1621 14.2176 63.3417 31.7089 63.3417Z" fill="#4AA956"/>
<path d="M27.9952 23.521V39.4176C27.9952 39.6428 27.9363 39.8358 27.8229 39.9925C27.7087 40.1483 27.5391 40.2304 27.3158 40.2304C27.1591 40.2304 27.0068 40.1931 26.8597 40.1212L20.4164 36.9639C20.2208 36.875 20.0589 36.7209 19.9248 36.5109C19.7906 36.3001 19.7249 36.0893 19.7249 35.881V20.4306C19.7249 20.2503 19.7699 20.0962 19.8642 19.97C19.9551 19.8439 20.0892 19.7795 20.2666 19.7795C20.3956 19.7795 20.5981 19.8464 20.8768 19.9827L27.9571 23.4516C27.9796 23.4812 27.9952 23.5033 27.9952 23.521Z" fill="white"/>
<path d="M28.8817 24.891L36.2779 36.627L28.8817 33.0218V24.891Z" fill="white"/>
<path d="M44.5489 25.1344V39.4179C44.5489 39.6431 44.4831 39.8268 44.3541 39.9648C44.2252 40.1062 44.0504 40.1757 43.8271 40.1757C43.6046 40.1757 43.3891 40.1164 43.1762 39.9996L37.0696 37.0192L44.5489 25.1344Z" fill="white"/>
<path d="M44.5079 23.5079C44.5079 23.535 43.3222 25.4307 40.9535 29.1925C38.5856 32.9569 37.1974 35.1575 36.7923 35.7993L31.3893 27.2079L35.8775 20.0661C36.0342 19.8138 36.2748 19.6868 36.5967 19.6868C36.7257 19.6868 36.8451 19.7147 36.9568 19.7689L44.4516 23.4291C44.4871 23.4435 44.5079 23.4706 44.5079 23.5079Z" fill="white"/>
</svg>
