<svg width="26" height="26" viewBox="0 0 26 26" fill="none" xmlns="http://www.w3.org/2000/svg">
<g clip-path="url(#clip0_3059_13605)">
<path fill-rule="evenodd" clip-rule="evenodd" d="M1.34182 3.84937V19.1198C1.34182 19.1785 1.35892 19.2647 1.43525 19.3848C1.51672 19.5121 1.58657 19.5624 1.6354 19.5846L1.64426 19.5886L8.05279 22.7289C8.10685 22.7553 8.15269 22.7663 8.1938 22.7686C8.20545 22.7389 8.21497 22.696 8.21497 22.6326V7.21044L1.52033 3.93051C1.45102 3.89662 1.39154 3.86985 1.34182 3.84937ZM0.268554 2.91809C0.501925 2.5976 0.849856 2.45508 1.20906 2.45508C1.50769 2.45508 1.83379 2.59009 2.10992 2.72516L9.28614 6.24102L9.38238 6.36777L9.38389 6.36976C9.39447 6.38365 9.42575 6.42473 9.45399 6.47285C9.47767 6.51321 9.55679 6.65068 9.55679 6.84246V22.6326C9.55679 22.9772 9.46493 23.3116 9.25829 23.597L9.25584 23.6004C9.00023 23.949 8.61842 24.1109 8.21103 24.1109C7.94534 24.1109 7.69373 24.0469 7.46319 23.9342L1.07014 20.8016C0.735546 20.6467 0.487166 20.3931 0.304111 20.1067C0.114193 19.8081 0 19.4745 0 19.1198V3.77274C0 3.47971 0.0746824 3.17971 0.268554 2.91809Z" fill="#202622"/>
<path fill-rule="evenodd" clip-rule="evenodd" d="M9.09619 5.88086L18.9374 21.4964L9.09619 16.6994V5.88086ZM10.438 10.5267V15.8608L15.2902 18.2259L10.438 10.5267Z" fill="#202622"/>
<path fill-rule="evenodd" clip-rule="evenodd" d="M26.0001 6.11914V22.6329C26.0001 22.9921 25.8918 23.3479 25.6287 23.6312C25.3512 23.9336 24.985 24.0564 24.6123 24.0564C24.2716 24.0564 23.9525 23.9657 23.6582 23.8071L16.9341 20.5254L26.0001 6.11914ZM18.8659 19.9751L24.2745 22.6148L24.2886 22.6224C24.413 22.6907 24.517 22.7146 24.6123 22.7146C24.6285 22.7146 24.6403 22.7136 24.6482 22.7126C24.6484 22.7123 24.6481 22.7128 24.6482 22.7126C24.6512 22.7044 24.6583 22.6796 24.6583 22.6329V10.7706L18.8659 19.9751Z" fill="#202622"/>
<path fill-rule="evenodd" clip-rule="evenodd" d="M17.3235 3.72209C17.3193 3.72432 17.3058 3.73144 17.2851 3.76485L17.2831 3.76797L13.0493 10.5049L17.6246 17.78C18.3079 16.6964 19.4964 14.8101 21.1892 12.1192C22.3655 10.2509 23.2479 8.84647 23.8358 7.90619C24.048 7.56683 24.2215 7.28846 24.3567 7.07076L17.4942 3.71934C17.4939 3.71927 17.4943 3.71942 17.4942 3.71934C17.4749 3.71009 17.4561 3.7051 17.4295 3.7051C17.3585 3.7051 17.3299 3.71874 17.3235 3.72209ZM16.1462 3.05533C16.436 2.58987 16.9014 2.36328 17.4295 2.36328C17.6588 2.36328 17.8775 2.41395 18.08 2.5122L18.0815 2.51291L25.516 6.14365C25.7536 6.25313 25.9585 6.49624 25.9585 6.82974C25.9585 6.94048 25.9295 7.026 25.9251 7.03917C25.925 7.03972 25.9249 7.04015 25.9247 7.04045C25.9157 7.06789 25.9067 7.08906 25.9023 7.09915C25.8931 7.12053 25.8845 7.1375 25.8807 7.14488C25.872 7.16176 25.8631 7.17753 25.8571 7.18813C25.8439 7.21123 25.8269 7.24 25.8078 7.27188C25.7688 7.3369 25.7119 7.4301 25.638 7.55002C25.4896 7.79059 25.268 8.14673 24.9735 8.6176C24.3844 9.55971 23.5014 10.9653 22.3249 12.8336C19.9727 16.5731 18.5935 18.7592 18.1911 19.397L17.6227 20.2975L11.4644 10.5051L16.1462 3.05533Z" fill="#202622"/>
</g>
<defs>
<clipPath id="clip0_3059_13605">
<rect width="26" height="26" fill="white"/>
</clipPath>
</defs>
</svg>
