<svg width="44" height="44" viewBox="0 0 44 44" fill="none" xmlns="http://www.w3.org/2000/svg">
<path d="M21.6708 43.3417C33.6393 43.3417 43.3417 33.6393 43.3417 21.6708C43.3417 9.70236 33.6393 0 21.6708 0C9.70236 0 0 9.70236 0 21.6708C0 33.6393 9.70236 43.3417 21.6708 43.3417Z" fill="white"/>
<path d="M18.659 17.6236V28.5009C18.659 28.655 18.6187 28.7871 18.5411 28.8942C18.463 29.0008 18.3469 29.057 18.1941 29.057C18.0869 29.057 17.9827 29.0315 17.882 28.9823L13.4732 26.8219C13.3393 26.7611 13.2286 26.6556 13.1368 26.512C13.045 26.3677 13 26.2234 13 26.0809V15.509C13 15.3856 13.0308 15.2802 13.0953 15.1938C13.1575 15.1075 13.2493 15.0635 13.3707 15.0635C13.4589 15.0635 13.5975 15.1092 13.7882 15.2025L18.6329 17.5761C18.6483 17.5964 18.659 17.6114 18.659 17.6236Z" fill="#4AA956"/>
<path d="M19.2656 18.561L24.3265 26.5914L19.2656 24.1245V18.561Z" fill="#4AA956"/>
<path d="M29.9888 18.7275V28.5011C29.9888 28.6552 29.9438 28.7809 29.8556 28.8753C29.7673 28.9721 29.6477 29.0196 29.4949 29.0196C29.3427 29.0196 29.1953 28.979 29.0496 28.8991L24.8711 26.8598L29.9888 18.7275Z" fill="#4AA956"/>
<path d="M29.9569 17.6146C29.9569 17.6331 29.1456 18.9303 27.5248 21.5044C25.9045 24.0801 24.9547 25.5859 24.6775 26.025L20.9805 20.1464L24.0516 15.2595C24.1588 15.0869 24.3234 15 24.5437 15C24.6319 15 24.7136 15.0191 24.79 15.0562L29.9184 17.5607C29.9427 17.5706 29.9569 17.5891 29.9569 17.6146Z" fill="#4AA956"/>
</svg>
