<svg width="20" height="17" viewBox="0 0 20 17" fill="none" xmlns="http://www.w3.org/2000/svg">
<path fill-rule="evenodd" clip-rule="evenodd" d="M1 1.55778V12.9381C1 12.9819 1.01274 13.0461 1.06963 13.1356C1.13034 13.2305 1.1824 13.268 1.21879 13.2845L1.22539 13.2875L6.00138 15.6278C6.04167 15.6475 6.07583 15.6557 6.10647 15.6574C6.11515 15.6353 6.12224 15.6033 6.12224 15.5561V4.06263L1.13303 1.61825C1.08138 1.59299 1.03705 1.57304 1 1.55778ZM0.200141 0.863737C0.374062 0.624895 0.633359 0.518677 0.901059 0.518677C1.12361 0.518677 1.36664 0.619292 1.57243 0.719958L6.92054 3.34017L6.99226 3.43463L6.99339 3.43611C7.00127 3.44646 7.02458 3.47708 7.04563 3.51294C7.06328 3.54302 7.12224 3.64547 7.12224 3.78839V15.5561C7.12224 15.8129 7.05378 16.0621 6.89978 16.2748L6.89796 16.2773C6.70746 16.5371 6.42292 16.6578 6.11931 16.6578C5.9213 16.6578 5.73379 16.6101 5.56198 16.5261L0.797527 14.1915C0.548169 14.0761 0.363063 13.8871 0.22664 13.6736C0.0851027 13.4511 0 13.2025 0 12.9381V1.50067C0 1.28229 0.0556574 1.05871 0.200141 0.863737Z" fill="white"/>
<path fill-rule="evenodd" clip-rule="evenodd" d="M6.77881 3.07141L14.113 14.709L6.77881 11.134V3.07141ZM7.77881 6.53373V10.509L11.3949 12.2716L7.77881 6.53373Z" fill="white"/>
<path fill-rule="evenodd" clip-rule="evenodd" d="M19.3766 3.24927V15.5562C19.3766 15.8239 19.2959 16.0891 19.0998 16.3002C18.893 16.5256 18.6201 16.6171 18.3423 16.6171C18.0884 16.6171 17.8506 16.5495 17.6313 16.4313L12.6201 13.9856L19.3766 3.24927ZM14.0598 13.5755L18.0906 15.5427L18.1011 15.5484C18.1938 15.5993 18.2713 15.6171 18.3423 15.6171C18.3544 15.6171 18.3632 15.6164 18.3691 15.6156C18.3692 15.6154 18.369 15.6158 18.3691 15.6156C18.3713 15.6095 18.3766 15.591 18.3766 15.5562V6.71582L14.0598 13.5755Z" fill="white"/>
<path fill-rule="evenodd" clip-rule="evenodd" d="M12.9105 1.46261C12.9074 1.46427 12.8973 1.46958 12.8819 1.49448L12.8804 1.4968L9.72514 6.51752L13.1349 11.9393C13.6441 11.1318 14.5299 9.72601 15.7914 7.72056C16.6681 6.32826 17.3257 5.28158 17.7638 4.58083C17.922 4.32792 18.0513 4.12046 18.152 3.95822L13.0377 1.46056C13.0375 1.46051 13.0378 1.46062 13.0377 1.46056C13.0233 1.45367 13.0093 1.44995 12.9895 1.44995C12.9366 1.44995 12.9153 1.46011 12.9105 1.46261ZM12.0331 0.965702C12.2491 0.618817 12.5959 0.449951 12.9895 0.449951C13.1604 0.449951 13.3234 0.487711 13.4743 0.560933L13.4754 0.561463L19.016 3.26729C19.1931 3.34888 19.3458 3.53006 19.3458 3.7786C19.3458 3.86113 19.3242 3.92486 19.3209 3.93468C19.3208 3.93509 19.3207 3.93541 19.3206 3.93563C19.3139 3.95608 19.3072 3.97186 19.3039 3.97938C19.297 3.99531 19.2906 4.00796 19.2878 4.01346C19.2813 4.02604 19.2747 4.03779 19.2702 4.04569C19.2604 4.06291 19.2477 4.08435 19.2335 4.10811C19.2044 4.15656 19.162 4.22602 19.1069 4.31539C18.9963 4.49468 18.8312 4.76009 18.6117 5.11101C18.1727 5.81312 17.5146 6.86063 16.6378 8.253C14.8848 11.0399 13.857 12.6691 13.5571 13.1444L13.1335 13.8155L8.54395 6.51771L12.0331 0.965702Z" fill="white"/>
</svg>
