<svg width="22" height="21" viewBox="0 0 22 21" fill="none" xmlns="http://www.w3.org/2000/svg">
<path d="M21.6274 9.50423C21.6274 7.75757 20.2064 6.33616 18.4593 6.33616C17.4912 6.33616 16.594 6.77335 15.9992 7.5075C14.7083 6.86797 13.2037 6.4595 11.5867 6.36023L12.5553 1.66345L15.2507 2.60627C15.2891 3.97066 16.4102 5.06892 17.7835 5.06892C19.1808 5.06892 20.3179 3.9318 20.3179 2.53446C20.3179 1.13713 19.1808 0 17.7835 0C16.8081 0 15.9604 0.554202 15.5367 1.36396L12.29 0.228102C12.1177 0.167697 11.9276 0.185016 11.7688 0.274989C11.6095 0.364963 11.4972 0.519142 11.4604 0.698244L10.2954 6.34714C8.58169 6.41726 6.98625 6.8346 5.6282 7.5075C5.03344 6.77335 4.13624 6.33616 3.16808 6.33616C1.42099 6.33616 0 7.75757 0 9.50423C0 10.6029 0.556737 11.5973 1.45732 12.1722C1.3327 12.6411 1.26723 13.1264 1.26723 13.6227C1.26723 17.6407 5.54963 20.9093 10.8137 20.9093C16.0778 20.9093 20.3602 17.6407 20.3602 13.6227C20.3602 13.1264 20.2947 12.6411 20.1701 12.1722C21.0707 11.5973 21.6274 10.6029 21.6274 9.50423ZM17.7835 1.26723C18.4821 1.26723 19.0507 1.8358 19.0507 2.53446C19.0507 3.23313 18.4821 3.80169 17.7835 3.80169C17.0848 3.80169 16.5162 3.23313 16.5162 2.53446C16.5162 1.8358 17.0848 1.26723 17.7835 1.26723ZM1.26723 9.50423C1.26723 8.45623 2.12008 7.60339 3.16808 7.60339C3.67962 7.60339 4.15736 7.80741 4.50839 8.15674C3.38351 8.9137 2.49264 9.86877 1.93211 10.9501C1.51645 10.5957 1.26723 10.0736 1.26723 9.50423ZM16.7258 17.8168C15.1464 18.9941 13.0466 19.6421 10.8137 19.6421C8.58084 19.6421 6.48104 18.9941 4.90165 17.8168C3.37506 16.6797 2.53446 15.1899 2.53446 13.6227C2.53446 12.0556 3.37506 10.5658 4.90165 9.42862C6.47597 8.25559 8.56733 7.60761 10.7922 7.60339C10.7998 7.60381 10.8069 7.60465 10.8145 7.60465C10.8226 7.60465 10.831 7.60381 10.8395 7.60381C13.0626 7.60846 15.1523 8.25601 16.7258 9.42862C18.2524 10.5658 19.0929 12.0556 19.0929 13.6227C19.0929 15.1899 18.2524 16.6797 16.7258 17.8168ZM19.6953 10.9501C19.1348 9.86877 18.2439 8.9137 17.119 8.15674C17.47 7.80741 17.9478 7.60339 18.4593 7.60339C19.5073 7.60339 20.3602 8.45623 20.3602 9.50423C20.3602 10.0736 20.111 10.5957 19.6953 10.9501Z" fill="white"/>
</svg>
