<svg width="26" height="26" viewBox="0 0 26 26" fill="none" xmlns="http://www.w3.org/2000/svg">
<path d="M26 11.4258C26 9.32599 24.2917 7.6172 22.1914 7.6172C21.0275 7.6172 19.949 8.14278 19.2339 9.02536C17.682 8.25653 15.8732 7.76547 13.9293 7.64613L15.0937 1.99976L18.3341 3.1332C18.3802 4.77344 19.728 6.09375 21.3789 6.09375C23.0588 6.09375 24.4257 4.72673 24.4257 3.04687C24.4257 1.36703 23.0588 0 21.3789 0C20.2063 0 19.1873 0.66625 18.6779 1.63972L14.7748 0.274219C14.5676 0.201602 14.3391 0.222422 14.1482 0.330586C13.9567 0.438751 13.8217 0.624101 13.7774 0.839414L12.3769 7.6304C10.3167 7.71469 8.39872 8.21641 6.7661 9.02536C6.05109 8.14278 4.9725 7.6172 3.8086 7.6172C1.70828 7.6172 0 9.32599 0 11.4258C0 12.7466 0.669297 13.942 1.75196 14.6332C1.60214 15.1969 1.52344 15.7803 1.52344 16.3769C1.52344 21.2073 6.67165 25.1367 13 25.1367C19.3284 25.1367 24.4766 21.2073 24.4766 16.3769C24.4766 15.7803 24.3979 15.1969 24.2481 14.6332C25.3307 13.942 26 12.7466 26 11.4258ZM21.3789 1.52344C22.2188 1.52344 22.9023 2.20696 22.9023 3.04687C22.9023 3.8868 22.2188 4.57031 21.3789 4.57031C20.539 4.57031 19.8554 3.8868 19.8554 3.04687C19.8554 2.20696 20.539 1.52344 21.3789 1.52344ZM1.52344 11.4258C1.52344 10.1659 2.54872 9.14063 3.8086 9.14063C4.42356 9.14063 4.99789 9.3859 5.41989 9.80586C4.06758 10.7159 2.9966 11.864 2.32274 13.164C1.82304 12.7379 1.52344 12.1103 1.52344 11.4258ZM20.1074 21.419C18.2087 22.8343 15.6843 23.6133 13 23.6133C10.3157 23.6133 7.79137 22.8343 5.89266 21.419C4.05743 20.052 3.04687 18.261 3.04687 16.3769C3.04687 14.493 4.05743 12.702 5.89266 11.3349C7.78527 9.9247 10.2995 9.14571 12.9742 9.14063C12.9833 9.14114 12.9918 9.14215 13.001 9.14215C13.0107 9.14215 13.0208 9.14114 13.031 9.14114C15.7036 9.14673 18.2158 9.9252 20.1074 11.3349C21.9426 12.702 22.9531 14.493 22.9531 16.3769C22.9531 18.261 21.9426 20.052 20.1074 21.419ZM23.6773 13.164C23.0034 11.864 21.9324 10.7159 20.5801 9.80586C21.0021 9.3859 21.5765 9.14063 22.1914 9.14063C23.4513 9.14063 24.4766 10.1659 24.4766 11.4258C24.4766 12.1103 24.177 12.7379 23.6773 13.164Z" fill="#202622"/>
</svg>
