<svg width="65" height="64" viewBox="0 0 65 64" fill="none" xmlns="http://www.w3.org/2000/svg">
<path d="M32.4022 63.3417C49.8935 63.3417 64.073 49.1621 64.073 31.6708C64.073 14.1795 49.8935 0 32.4022 0C14.9109 0 0.731384 14.1795 0.731384 31.6708C0.731384 49.1621 14.9109 63.3417 32.4022 63.3417Z" fill="#4AA956"/>
<path fill-rule="evenodd" clip-rule="evenodd" d="M34.436 18.957C34.7039 18.8646 35.0052 18.8158 35.2723 18.8355C36.0701 18.8988 36.7891 19.4278 37.0613 20.2392L37.9267 22.7754L40.3482 21.9691C41.4276 21.6096 42.584 22.2071 42.9444 23.2856C43.3091 24.3641 42.7398 25.5205 41.6604 25.88L39.2106 26.6872L40.8541 31.5498L43.3912 30.7144C44.4706 30.3549 45.6279 30.9181 45.9874 31.9966C46.3521 33.076 45.7837 34.2615 44.7043 34.6253L42.1663 35.4907L42.9735 37.9096C43.333 38.9838 42.7398 40.1445 41.6604 40.504C40.5811 40.8635 39.4246 40.3003 39.0643 39.2218L38.2579 36.7729L33.3866 38.4155L34.2271 40.9517C34.5824 42.0302 34.0234 43.1866 32.9389 43.5461C31.8595 43.9056 30.6731 43.3415 30.3136 42.263L29.4482 39.7268L27.0275 40.5288C25.9481 40.8926 24.7908 40.2951 24.4262 39.2166C24.0667 38.1381 24.6308 36.9817 25.7093 36.6222L28.16 35.8159L26.5165 30.9524L23.9785 31.7878C22.9 32.1473 21.7427 31.5841 21.3832 30.5056C21.0228 29.4271 21.5869 28.2364 22.6663 27.8769L25.2086 27.0124L24.4022 24.5926C24.0376 23.5141 24.635 22.3577 25.7144 21.9982C26.7938 21.6387 27.9511 22.2019 28.3106 23.2813L29.1178 25.7293L34.0131 24.0876L33.1477 21.5514C32.7882 20.4729 33.3523 19.3165 34.436 18.957ZM36.9449 32.8624L35.3014 27.9988L30.43 29.6414L32.0735 34.5041L36.9449 32.8624Z" fill="white"/>
</svg>
