<svg width="68" height="68" viewBox="0 0 68 68" fill="none" xmlns="http://www.w3.org/2000/svg">
<path d="M34 68C52.7777 68 68 52.7777 68 34C68 15.2223 52.7777 0 34 0C15.2223 0 0 15.2223 0 34C0 52.7777 15.2223 68 34 68Z" fill="white"/>
<path fill-rule="evenodd" clip-rule="evenodd" d="M23.9958 44.108H45.8422C47.42 44.108 48.7028 42.8215 48.7028 41.2418V24.9228C48.7028 23.3404 47.42 22.0539 45.8422 22.0539H23.9958C22.4181 22.0539 21.1353 23.3404 21.1353 24.9228V41.2391C21.1353 42.8215 22.4181 44.108 23.9958 44.108ZM32.775 34.2822C33.2648 34.7078 33.8648 34.9187 34.4638 34.9187C35.0629 34.9187 35.662 34.7078 36.1499 34.285L46.5898 25.2867C46.9157 25.007 46.9576 24.5081 46.6845 24.1746C46.4113 23.841 45.9243 23.7946 45.5974 24.077L35.1521 33.0763C34.7506 33.4237 34.1679 33.4237 33.7664 33.0763L23.3211 24.077C22.9952 23.7973 22.5072 23.841 22.2341 24.1746C21.961 24.5081 22.0028 25.007 22.3288 25.2867L32.775 34.2822Z" fill="#4AA956"/>
</svg>
