<svg width="75" height="74" viewBox="0 0 75 74" fill="none" xmlns="http://www.w3.org/2000/svg">
<rect width="74.0234" height="74" fill="black" fill-opacity="0" transform="translate(0.847168)"/>
<rect width="74.0234" height="74" fill="black" fill-opacity="0" transform="translate(0.847168)"/>
<ellipse cx="37.8589" cy="37" rx="37.0117" ry="37" fill="#526478"/>
<rect width="30" height="24" fill="black" fill-opacity="0" transform="translate(24.0001 24)"/>
<rect width="30" height="24" fill="black" fill-opacity="0" transform="translate(24.0001 24)"/>
<path d="M38.9603 37.9708C38.3021 37.9708 37.6439 37.7436 37.1052 37.2862L25.6317 27.6039C25.2735 27.3031 25.2276 26.7659 25.5276 26.4067C25.8276 26.0475 26.3633 26.0015 26.7215 26.3023L38.195 35.9877C38.6358 36.3622 39.2756 36.3622 39.7164 35.9877L51.1899 26.3023C51.548 25.9984 52.0837 26.0475 52.3837 26.4067C52.6837 26.7659 52.6378 27.3031 52.2797 27.6039L40.8123 37.2893C40.2766 37.7436 39.6184 37.9708 38.9603 37.9708Z" fill="white"/>
<path d="M50.8868 48H27.1133C25.396 48 24.0001 46.6002 24.0001 44.878V27.122C24.0001 25.3998 25.396 24 27.1133 24H50.8868C52.6041 24 54.0001 25.3998 54.0001 27.122V44.881C54.0001 46.6002 52.6041 48 50.8868 48ZM27.1133 25.7007C26.3327 25.7007 25.699 26.3361 25.699 27.119V44.878C25.699 45.6608 26.3327 46.2962 27.1133 46.2962H50.8868C51.6674 46.2962 52.3011 45.6608 52.3011 44.878V27.122C52.3011 26.3392 51.6674 25.7038 50.8868 25.7038L27.1133 25.7007Z" fill="white"/>
</svg>
