<svg width="26" height="26" viewBox="0 0 26 26" fill="none" xmlns="http://www.w3.org/2000/svg">
<g clip-path="url(#clip0_3059_13599)">
<path d="M25.8065 1.42793C25.5815 1.18419 25.2266 1.11883 24.9326 1.24316L0.456202 11.6118C0.185033 11.7268 0.00679133 11.9838 0.000189819 12.2708C-0.00641169 12.5573 0.159641 12.8217 0.425733 12.9485L6.2701 15.7298L7.72649 24.185C7.77372 24.5059 8.03422 24.7639 8.37344 24.8106C8.61719 24.8445 8.85942 24.7614 9.02699 24.5943L13.6409 20.1294L20.2252 24.6808C20.4365 24.8263 20.7086 24.8582 20.9483 24.7664C21.1885 24.6744 21.3642 24.4704 21.415 24.2253L25.9852 2.06283C26.0305 1.84317 25.972 1.60778 25.8065 1.42793ZM6.87337 14.374L2.5697 12.3259L19.5721 5.12331L6.87337 14.374ZM9.25703 16.5652L8.54863 19.9928L7.78439 15.5554L17.1266 8.74989L9.46472 16.1893C9.35707 16.2934 9.28546 16.4291 9.25703 16.5652ZM9.72066 21.838L10.5199 17.9721L12.3842 19.2606L9.72066 21.838ZM20.1515 22.8179L11.1771 16.6149L23.9976 4.16703L20.1515 22.8179Z" fill="#202622"/>
</g>
<defs>
<clipPath id="clip0_3059_13599">
<rect width="26" height="26" fill="white"/>
</clipPath>
</defs>
</svg>
