<svg width="64" height="64" viewBox="0 0 64 64" fill="none" xmlns="http://www.w3.org/2000/svg">
<path d="M32.1075 63.3417C49.5988 63.3417 63.7783 49.1621 63.7783 31.6708C63.7783 14.1795 49.5988 0 32.1075 0C14.6162 0 0.436646 14.1795 0.436646 31.6708C0.436646 49.1621 14.6162 63.3417 32.1075 63.3417Z" fill="#4AA956"/>
<path fill-rule="evenodd" clip-rule="evenodd" d="M21.9963 33.1857L15.4873 30.7336C14.826 30.4838 14.8208 29.5417 15.4795 29.2851L42.1917 18.8843C42.7581 18.6635 43.3427 19.164 43.2185 19.7642L38.4251 43.0373C38.3121 43.5873 37.6742 43.8362 37.2233 43.5054L30.6797 38.7105C30.2823 38.4197 29.7409 38.4351 29.3607 38.748L25.732 41.7329C25.3112 42.0807 24.6767 41.8872 24.5155 41.3629L21.9963 33.1857ZM36.8298 23.9735L24.1091 31.8804C23.6211 32.1848 23.3918 32.7791 23.5496 33.335L24.9247 38.2126C25.0221 38.5579 25.5195 38.523 25.567 38.1657L25.9247 35.4912C25.992 34.9873 26.2299 34.5235 26.5989 34.1765L37.0971 24.3273C37.2936 24.1432 37.0583 23.8311 36.8298 23.9735Z" fill="white"/>
</svg>
