<svg width="75" height="74" viewBox="0 0 75 74" fill="none" xmlns="http://www.w3.org/2000/svg">
<rect width="74.0234" height="74" fill="black" fill-opacity="0"/>
<rect width="74.0234" height="74" fill="black" fill-opacity="0"/>
<ellipse cx="37.0117" cy="37" rx="37.0117" ry="37" fill="#526478"/>
<rect width="32.7645" height="29.1148" fill="black" fill-opacity="0" transform="translate(16.989 21.8362)"/>
<rect width="32.7645" height="29.1148" fill="black" fill-opacity="0" transform="translate(16.989 21.8362)"/>
<path d="M17.5677 35.7966L25.1173 38.6724L28.0395 48.2637C28.2265 48.878 28.9625 49.105 29.451 48.6974L33.6593 45.196C34.1004 44.8292 34.7287 44.8109 35.1897 45.1524L42.7799 50.7767C43.3025 51.1643 44.0429 50.8721 44.1739 50.2276L49.7342 22.9307C49.8772 22.2267 49.1995 21.6394 48.5426 21.8987L17.5589 34.0975C16.7943 34.3985 16.8009 35.5033 17.5677 35.7966ZM27.5686 37.1415L42.3233 27.8668C42.5885 27.7006 42.8613 28.0666 42.6336 28.2822L30.4566 39.8344C30.0286 40.2411 29.7525 40.7852 29.6743 41.3759L29.2595 44.5132C29.2046 44.9321 28.628 44.9737 28.5148 44.5683L26.9195 38.8473C26.7368 38.1948 27.003 37.4978 27.5686 37.1415Z" fill="white"/>
</svg>
