<svg width="22" height="20" viewBox="0 0 22 20" fill="none" xmlns="http://www.w3.org/2000/svg">
<path d="M21.8363 0.208398C21.6459 0.00215864 21.3456 -0.0531435 21.0968 0.0520553L0.386017 8.82555C0.156566 8.92285 0.00574651 9.14032 0.000160616 9.38315C-0.00542528 9.62556 0.135081 9.84927 0.360236 9.95654L5.30547 12.31L6.5378 19.4644C6.57776 19.7359 6.79819 19.9542 7.08522 19.9937C7.29147 20.0224 7.49643 19.9521 7.63822 19.8107L11.5423 16.0327L17.1136 19.8839C17.2924 20.007 17.5227 20.034 17.7255 19.9563C17.9287 19.8785 18.0774 19.7059 18.1204 19.4985L21.9875 0.745619C22.0258 0.559754 21.9763 0.360583 21.8363 0.208398ZM5.81593 11.1628L2.17436 9.42972L16.561 3.33526L5.81593 11.1628ZM7.83287 13.0169L7.23346 15.9171L6.58679 12.1624L14.4917 6.4039L8.00861 12.6988C7.91752 12.7869 7.85693 12.9017 7.83287 13.0169ZM8.22517 17.4785L8.90149 14.2073L10.4789 15.2976L8.22517 17.4785ZM17.0513 18.3076L9.45751 13.0589L20.3057 2.5261L17.0513 18.3076Z" fill="white"/>
</svg>
