<svg width="68" height="68" viewBox="0 0 68 68" fill="none" xmlns="http://www.w3.org/2000/svg">
<path d="M34 68C52.7777 68 68 52.7777 68 34C68 15.2223 52.7777 0 34 0C15.2223 0 0 15.2223 0 34C0 52.7777 15.2223 68 34 68Z" fill="white"/>
<path fill-rule="evenodd" clip-rule="evenodd" d="M23.1452 35.6263L16.1574 32.9939C15.4475 32.7257 15.4419 31.7143 16.149 31.4388L44.8258 20.2732C45.4338 20.0361 46.0614 20.5734 45.9281 21.2177L40.7821 46.2025C40.6609 46.7928 39.976 47.0601 39.4919 46.705L32.4671 41.5574C32.0405 41.2452 31.4592 41.2617 31.0511 41.5976L27.1555 44.8021C26.7038 45.1755 26.0226 44.9677 25.8496 44.4048L23.1452 35.6263ZM39.0693 25.7365L25.4131 34.2249C24.8892 34.5517 24.6431 35.1896 24.8124 35.7864L26.2887 41.0228C26.3932 41.3935 26.9273 41.356 26.9782 40.9725L27.3623 38.1012C27.4345 37.5602 27.6899 37.0623 28.086 36.6898L39.3562 26.1163C39.5673 25.9186 39.3146 25.5836 39.0693 25.7365Z" fill="#4AA956"/>
</svg>
