<svg width="75" height="74" viewBox="0 0 75 74" fill="none" xmlns="http://www.w3.org/2000/svg">
<rect width="74.0234" height="74" fill="black" fill-opacity="0" transform="translate(0.694336)"/>
<rect width="74.0234" height="74" fill="black" fill-opacity="0" transform="translate(0.694336)"/>
<ellipse cx="37.706" cy="37" rx="37.0117" ry="37" fill="#526478"/>
<rect width="36.9327" height="30" fill="black" fill-opacity="0" transform="translate(20.0001 20)"/>
<rect width="36.9327" height="30" fill="black" fill-opacity="0" transform="translate(20.0001 20)"/>
<rect width="36.9327" height="30" fill="black" fill-opacity="0" transform="translate(20.0001 20)"/>
<path d="M56.9329 23.5495C55.5735 24.1518 54.115 24.5603 52.5825 24.7427C54.1473 23.8056 55.3451 22.3194 55.9128 20.5539C54.445 21.4216 52.8248 22.0517 51.0985 22.3933C49.7161 20.9186 47.7498 20 45.5688 20C41.3847 20 37.9921 23.3926 37.9921 27.5744C37.9921 28.1675 38.0591 28.7468 38.1883 29.3007C31.8925 28.9845 26.3098 25.9681 22.5733 21.3847C21.9202 22.5017 21.5486 23.8033 21.5486 25.1927C21.5486 27.8214 22.8872 30.1408 24.9182 31.4978C23.6765 31.4562 22.5087 31.1147 21.4864 30.5469V30.6415C21.4864 34.311 24.0989 37.3736 27.563 38.0706C26.9283 38.2414 26.259 38.336 25.5667 38.336C25.0774 38.336 24.6043 38.2875 24.1404 38.1952C25.1051 41.207 27.9022 43.3971 31.2163 43.4572C28.6246 45.4881 25.3566 46.6951 21.8072 46.6951C21.1956 46.6951 20.5932 46.6582 20.0001 46.5913C23.3535 48.7445 27.3345 50 31.6133 50C45.5505 50 53.1688 38.456 53.1688 28.4445L53.1434 27.4637C54.6319 26.402 55.9197 25.0681 56.9329 23.5495Z" fill="white"/>
</svg>
