<svg width="44" height="44" viewBox="0 0 44 44" fill="none" xmlns="http://www.w3.org/2000/svg">
<path d="M21.9736 43.3417C33.942 43.3417 43.6444 33.6393 43.6444 21.6708C43.6444 9.70236 33.942 0 21.9736 0C10.0051 0 0.302734 9.70236 0.302734 21.6708C0.302734 33.6393 10.0051 43.3417 21.9736 43.3417Z" fill="white"/>
<path d="M33.1025 13.7925C32.3045 14.1457 31.449 14.3847 30.5495 14.4918C31.4678 13.943 32.1707 13.0721 32.504 12.0383C31.6426 12.5467 30.6921 12.9157 29.6787 13.1154C28.8678 12.2521 27.7142 11.7139 26.4345 11.7139C23.9795 11.7139 21.9886 13.7011 21.9886 16.1499C21.9886 16.4978 22.028 16.837 22.1036 17.1614C18.4094 16.9764 15.1341 15.2093 12.9414 12.5251C12.5582 13.1793 12.3405 13.9413 12.3405 14.7554C12.3405 16.2946 13.1256 17.6534 14.3173 18.4482C13.5886 18.4236 12.9038 18.2239 12.3036 17.8912V17.9469C12.3036 20.0958 13.8368 21.8898 15.8693 22.298C15.4967 22.3976 15.1042 22.4532 14.6981 22.4532C14.4106 22.4532 14.1331 22.4251 13.8608 22.3706C14.4271 24.1348 16.0682 25.4174 18.0127 25.4526C16.4919 26.6421 14.5749 27.3491 12.4919 27.3491C12.1328 27.3491 11.7796 27.3274 11.4316 27.2882C13.399 28.5498 15.7349 29.2848 18.2457 29.2848C26.4234 29.2848 30.8939 22.5235 30.8939 16.6601L30.8786 16.0855C31.7523 15.4635 32.5081 14.6822 33.1025 13.7925Z" fill="#4AA956"/>
</svg>
