<svg width="22" height="18" viewBox="0 0 22 18" fill="none" xmlns="http://www.w3.org/2000/svg">
<path d="M21.4796 2.37717L21.4728 2.36872C21.4724 2.3683 21.4719 2.36788 21.4715 2.36703C21.4711 2.36661 21.4703 2.36577 21.4698 2.36534L21.4631 2.35732C21.295 2.16259 21.0698 2.10303 20.8675 2.13894C20.7754 2.13936 20.6854 2.14147 20.5972 2.14527C20.7682 1.87916 20.9186 1.5801 21.0314 1.2443C21.1087 1.01367 21.047 0.759386 20.8734 0.589582C20.6994 0.419778 20.4438 0.364444 20.2153 0.446811C19.999 0.524955 18.5671 1.03944 18.0708 1.22445C18.0522 1.23163 18.0391 1.23501 18.0315 1.2367C18.0172 1.22951 17.9842 1.21051 17.9276 1.16278C16.5979 0.0535587 14.8255 -0.287739 13.1866 0.249974C11.6153 0.765722 10.4444 2.01771 10.055 3.59959C9.9464 4.04184 9.92992 4.49 9.91641 4.92423C6.97187 4.59349 4.44086 3.2659 2.38463 0.971852C2.24735 0.818944 2.0446 0.742068 1.84016 0.765299C1.63572 0.788954 1.45577 0.910182 1.35693 1.09055C0.876245 1.96829 0.670537 2.81646 0.728405 3.68238C0.778248 4.43171 0.987758 5.11473 1.35398 5.72805C1.19684 5.71918 1.03971 5.76903 0.915528 5.87082C0.757973 5.99965 0.672227 6.19607 0.684898 6.39924C0.753749 7.53718 1.11448 8.5087 1.75694 9.28676C1.93773 9.50598 2.13921 9.70958 2.36309 9.89881C2.31662 9.93683 2.27565 9.98202 2.24143 10.0331C2.12359 10.2076 2.10035 10.4298 2.17934 10.6249C2.74958 12.0328 3.68266 12.9768 5.01152 13.4816C3.67759 14.13 2.24608 14.3995 0.672649 14.3032C0.382884 14.2854 0.11804 14.467 0.0297592 14.7437C-0.0580996 15.0204 0.0534135 15.3216 0.300516 15.4745C2.35928 16.7488 4.78765 17.3398 7.13069 17.3398C9.53202 17.3398 11.8278 16.6893 13.8312 15.4318C14.9556 14.726 15.9521 13.8482 16.7926 12.8235C17.218 12.3052 17.5981 11.7548 17.9318 11.177C18.2655 10.5991 18.5519 9.993 18.7893 9.36321C19.3046 7.99464 19.5775 6.54032 19.5999 5.03997C19.6104 5.00702 19.6531 4.92719 19.7203 4.85791C20.0409 4.52506 20.3991 4.19179 20.7458 3.8695C20.9393 3.68956 21.1383 3.50455 21.3321 3.31827C21.5221 3.19734 21.6274 2.98948 21.6274 2.78183C21.6274 2.64624 21.5826 2.50516 21.4796 2.37717ZM18.8079 3.97848C18.6981 4.09211 18.3399 4.50268 18.3327 5.00491C18.3145 6.36461 18.0691 7.68038 17.6032 8.91631C15.8283 13.6273 11.1811 16.4836 6.03837 16.0236C5.01743 15.9323 4.05141 15.7313 3.14748 15.4229C4.53125 15.1657 5.81915 14.609 7.04114 13.7452C7.2553 13.5935 7.35414 13.3257 7.28951 13.0719C7.22489 12.8176 7.01031 12.6292 6.75011 12.5984C5.38492 12.437 4.4472 11.9398 3.81487 11.0207H4.4755C4.78005 11.0207 5.04193 10.8036 5.09811 10.5041C5.15429 10.2046 4.98913 9.90726 4.70528 9.79659C3.26617 9.23649 2.41842 8.40648 2.09317 7.22081C2.47671 7.32176 2.8518 7.4206 3.23154 7.52113C3.53144 7.60012 3.84444 7.45059 3.97158 7.16758C4.0983 6.88458 4.00157 6.55131 3.74306 6.38024C2.64145 5.65118 2.0691 4.74133 1.99264 3.59832C1.96857 3.23802 2.00827 2.88574 2.11598 2.52416C4.42946 4.79244 7.23883 6.04316 10.4803 6.24507C10.8267 6.26661 11.1262 6.00557 11.1515 5.6592C11.1684 5.43153 11.1752 5.21357 11.1815 5.0028C11.1937 4.60447 11.2056 4.2277 11.2854 3.90245C11.5739 2.73072 12.4111 1.83819 13.582 1.45381C14.8027 1.05337 16.1235 1.30808 17.1158 2.13598C17.2792 2.27199 17.776 2.68679 18.5135 2.41181C18.5861 2.38477 18.6584 2.35816 18.731 2.33113C18.671 2.38055 18.6089 2.42997 18.5443 2.47939C18.2452 2.62748 18.1103 2.98627 18.244 3.29715L18.2524 3.31743C18.391 3.63887 18.7635 3.78756 19.085 3.64901C19.0888 3.64732 19.093 3.64563 19.0968 3.64394C19.1158 3.6393 19.1352 3.63465 19.1547 3.63C19.0372 3.74489 18.9211 3.86105 18.8079 3.97848Z" fill="white"/>
</svg>
