<svg width="26" height="26" viewBox="0 0 26 26" fill="none" xmlns="http://www.w3.org/2000/svg">
<path d="M25.8223 5.22106L25.8141 5.21091C25.8137 5.2104 25.8131 5.2099 25.8126 5.20887C25.8121 5.20837 25.8111 5.20736 25.8105 5.20684L25.8025 5.1972C25.6004 4.9631 25.3297 4.8915 25.0865 4.93467C24.9757 4.93517 24.8675 4.93771 24.7615 4.94228C24.9671 4.62237 25.1479 4.26284 25.2835 3.85915C25.3764 3.58189 25.3023 3.2762 25.0936 3.07206C24.8844 2.86793 24.5771 2.80141 24.3024 2.90043C24.0424 2.99437 22.321 3.61287 21.7243 3.83529C21.702 3.84392 21.6862 3.84798 21.6771 3.85002C21.6599 3.84137 21.6202 3.81853 21.5522 3.76115C19.9536 2.42767 17.8229 2.01737 15.8526 2.66379C13.9637 3.28382 12.556 4.78893 12.0879 6.69063C11.9574 7.2223 11.9375 7.76106 11.9213 8.28309C8.38143 7.88548 5.33871 6.28948 2.86675 3.53162C2.70172 3.3478 2.45797 3.25538 2.2122 3.28331C1.96643 3.31174 1.7501 3.45748 1.63127 3.67432C1.0534 4.72952 0.806105 5.74917 0.875673 6.79016C0.935593 7.69099 1.18746 8.5121 1.62773 9.24942C1.43882 9.23876 1.24992 9.29869 1.10063 9.42106C0.911219 9.57593 0.808137 9.81206 0.82337 10.0563C0.906141 11.4243 1.3398 12.5923 2.11216 13.5276C2.3295 13.7912 2.57171 14.0359 2.84086 14.2634C2.78499 14.3091 2.73574 14.3635 2.6946 14.4249C2.55293 14.6346 2.525 14.9018 2.61996 15.1363C3.30549 16.8289 4.42722 17.9637 6.02474 18.5706C4.42112 19.3501 2.70019 19.6741 0.808644 19.5583C0.460295 19.5369 0.141905 19.7552 0.0357759 20.0878C-0.0698461 20.4205 0.0642126 20.7826 0.361274 20.9664C2.83628 22.4983 5.75561 23.2088 8.57236 23.2088C11.4592 23.2088 14.2191 22.4268 16.6276 20.9151C17.9793 20.0666 19.1773 19.0113 20.1877 17.7794C20.6991 17.1563 21.1561 16.4947 21.5572 15.8C21.9584 15.1053 22.3027 14.3767 22.5881 13.6195C23.2076 11.9743 23.5357 10.2259 23.5626 8.42223C23.5752 8.38261 23.6265 8.28664 23.7073 8.20336C24.0927 7.80321 24.5234 7.40256 24.9402 7.01511C25.1728 6.79879 25.412 6.57638 25.645 6.35243C25.8734 6.20706 26 5.95717 26 5.70754C26 5.54453 25.9461 5.37493 25.8223 5.22106ZM22.6105 7.14613C22.4785 7.28273 22.0478 7.77631 22.0392 8.38008C22.0173 10.0147 21.7223 11.5965 21.1622 13.0823C19.0284 18.7457 13.4417 22.1795 7.2592 21.6265C6.03185 21.5168 4.87052 21.2751 3.78383 20.9044C5.44737 20.5952 6.99566 19.9259 8.46471 18.8875C8.72217 18.7051 8.84099 18.3832 8.76329 18.078C8.68561 17.7723 8.42765 17.5458 8.11484 17.5088C6.47364 17.3148 5.34633 16.7171 4.58616 15.6121H5.38035C5.74647 15.6121 6.0613 15.3511 6.12884 14.9911C6.19638 14.631 5.99783 14.2736 5.65659 14.1405C3.92652 13.4672 2.90737 12.4694 2.51636 11.044C2.97745 11.1653 3.42837 11.2842 3.88489 11.405C4.24542 11.5 4.6217 11.3202 4.77455 10.98C4.92689 10.6398 4.8106 10.2391 4.49983 10.0335C3.1755 9.15701 2.48743 8.06321 2.39551 6.6891C2.36657 6.25596 2.4143 5.83246 2.54379 5.39777C5.325 8.12465 8.70237 9.62824 12.5992 9.87097C13.0156 9.89687 13.3757 9.58305 13.4061 9.16665C13.4264 8.89295 13.4346 8.63092 13.4422 8.37754C13.4568 7.89868 13.4711 7.44573 13.5671 7.05472C13.9139 5.64609 14.9204 4.57311 16.328 4.11102C17.7955 3.62962 19.3833 3.93583 20.5763 4.93111C20.7727 5.09462 21.3699 5.59328 22.2565 5.26271C22.3438 5.2302 22.4307 5.19821 22.518 5.16572C22.4459 5.22513 22.3712 5.28454 22.2936 5.34395C21.934 5.52198 21.7718 5.95331 21.9325 6.32704L21.9426 6.35143C22.1093 6.73785 22.5571 6.91661 22.9436 6.75004C22.9481 6.74801 22.9532 6.74598 22.9578 6.74395C22.9806 6.73837 23.0039 6.73278 23.0274 6.72719C22.8861 6.86531 22.7465 7.00495 22.6105 7.14613Z" fill="#202622"/>
</svg>
