<svg width="64" height="64" viewBox="0 0 64 64" fill="none" xmlns="http://www.w3.org/2000/svg">
<path d="M32.0004 63.3417C49.4917 63.3417 63.6712 49.1621 63.6712 31.6708C63.6712 14.1795 49.4917 0 32.0004 0C14.5091 0 0.32959 14.1795 0.32959 31.6708C0.32959 49.1621 14.5091 63.3417 32.0004 63.3417Z" fill="#4AA956"/>
<path d="M48.2648 20.1571C47.0985 20.6732 45.8483 21.0224 44.5337 21.1791C45.8757 20.377 46.903 19.1042 47.3901 17.5934C46.1312 18.3364 44.7421 18.8757 43.2611 19.1676C42.076 17.9059 40.3901 17.1192 38.5199 17.1192C34.932 17.1192 32.0225 20.0235 32.0225 23.6023C32.0225 24.1108 32.0799 24.6064 32.1905 25.0806C26.7916 24.8101 22.0049 22.2276 18.8003 18.3047C18.2404 19.2609 17.9222 20.3745 17.9222 21.5643C17.9222 23.8138 19.0696 25.7996 20.8112 26.9612C19.7462 26.9252 18.7455 26.6333 17.8682 26.1471V26.2284C17.8682 29.369 20.1089 31.9908 23.0794 32.5874C22.5348 32.7329 21.9612 32.8143 21.3678 32.8143C20.9476 32.8143 20.542 32.7732 20.1441 32.6936C20.9716 35.2717 23.3701 37.1463 26.2119 37.1977C23.9892 38.9362 21.1877 39.9693 18.1435 39.9693C17.6187 39.9693 17.1024 39.9376 16.5939 39.8803C19.4692 41.724 22.883 42.7983 26.5523 42.7983C38.5036 42.7983 45.0371 32.917 45.0371 24.3479L45.0148 23.5082C46.2916 22.5991 47.3961 21.4573 48.2648 20.1571Z" fill="white"/>
</svg>
