<?xml version="1.0" encoding="UTF-8" standalone="no"?>
<svg
   xmlns:dc="http://purl.org/dc/elements/1.1/"
   xmlns:cc="http://creativecommons.org/ns#"
   xmlns:rdf="http://www.w3.org/1999/02/22-rdf-syntax-ns#"
   xmlns:svg="http://www.w3.org/2000/svg"
   xmlns="http://www.w3.org/2000/svg"
   xmlns:sodipodi="http://sodipodi.sourceforge.net/DTD/sodipodi-0.dtd"
   xmlns:inkscape="http://www.inkscape.org/namespaces/inkscape"
   width="75"
   height="74"
   viewBox="0 0 75 74"
   fill="none"
   version="1.1"
   id="svg12768"
   sodipodi:docname="youtube.svg"
   inkscape:version="0.92.3 (2405546, 2018-03-11)">
  <metadata
     id="metadata12774">
    <rdf:RDF>
      <cc:Work
         rdf:about="">
        <dc:format>image/svg+xml</dc:format>
        <dc:type
           rdf:resource="http://purl.org/dc/dcmitype/StillImage" />
        <dc:title></dc:title>
      </cc:Work>
    </rdf:RDF>
  </metadata>
  <defs
     id="defs12772" />
  <sodipodi:namedview
     pagecolor="#ffffff"
     bordercolor="#666666"
     borderopacity="1"
     objecttolerance="10"
     gridtolerance="10"
     guidetolerance="10"
     inkscape:pageopacity="0"
     inkscape:pageshadow="2"
     inkscape:window-width="1399"
     inkscape:window-height="696"
     id="namedview12770"
     showgrid="false"
     inkscape:zoom="6.3783784"
     inkscape:cx="35.671813"
     inkscape:cy="32.95082"
     inkscape:window-x="242"
     inkscape:window-y="160"
     inkscape:window-maximized="0"
     inkscape:current-layer="svg12768" />
  <rect
     width="74.0234"
     height="74"
     fill="black"
     fill-opacity="0"
     transform="translate(0.694336)"
     id="rect12754" />
  <rect
     width="74.0234"
     height="74"
     fill="black"
     fill-opacity="0"
     transform="translate(0.694336)"
     id="rect12756" />
  <ellipse
     cx="37.706"
     cy="37"
     rx="37.0117"
     ry="37"
     fill="#526478"
     id="ellipse12758" />
  <rect
     width="36.9327"
     height="30"
     fill="black"
     fill-opacity="0"
     transform="translate(20.0001 20)"
     id="rect12760" />
  <rect
     width="36.9327"
     height="30"
     transform="translate(20.0001 20)"
     id="rect12762"
     fill-opacity="0"
     fill="black" />
  <rect
     width="36.9327"
     height="30"
     fill="black"
     fill-opacity="0"
     transform="translate(20.0001 20)"
     id="rect12764" />
  <path
     style="fill:#ffffff;fill-opacity:1"
     d="m 56.058686,47.724652 c 2.769805,-3.424676 2.768248,-17.856956 -0.0023,-21.278432 -1.861906,-2.299356 -2.319556,-2.360784 -17.588353,-2.360784 -15.268797,0 -15.726447,0.06143 -17.588353,2.360784 -1.524144,1.882238 -1.911647,3.973304 -1.911647,10.315741 0,8.633558 0.941147,11.436812 4.315372,12.85355 1.201545,0.504494 8.63792,0.816611 16.525276,0.693594 13.734215,-0.214211 14.42139,-0.323501 16.25,-2.584453 z M 34.968038,37.085436 c 0,-2.475 0.3375,-4.498318 0.75,-4.496262 1.048757,0.0052 7.25,3.851077 7.25,4.496262 0,0.645185 -6.201243,4.491035 -7.25,4.496262 -0.4125,0.0021 -0.75,-2.021262 -0.75,-4.496262 z"
     id="path12667"
     inkscape:connector-curvature="0"
     sodipodi:nodetypes="cssssssccscscs" />
</svg>
