<svg width="26" height="26" viewBox="0 0 26 26" fill="none" xmlns="http://www.w3.org/2000/svg">
<path d="M9.4 9.1618V16.8382C9.4 17.3586 9.94762 17.697 10.413 17.4643L18.0894 13.6261C18.6054 13.3681 18.6054 12.6319 18.0894 12.3739L10.413 8.5357C9.94761 8.30299 9.4 8.64144 9.4 9.1618ZM16.6584 13L10.6 16.0292V9.97082L16.6584 13ZM3.11915 21.8888L2.85082 22.4254L3.11914 21.8888L2.86691 21.7626C1.96858 21.3135 1.26632 20.5503 0.893309 19.6177L0.337071 19.8402L0.893309 19.6177C0.69955 19.1333 0.6 18.6164 0.6 18.0947V7.90531C0.6 7.38359 0.69955 6.86667 0.893309 6.38228C1.26632 5.44975 1.96858 4.68653 2.86691 4.23736L3.11914 4.11125C3.79157 3.77504 4.53303 3.6 5.28483 3.6H20.7152C21.467 3.6 22.2084 3.77504 22.8809 4.11125L23.1331 4.23736C24.0314 4.68653 24.7337 5.44975 25.1067 6.38228L25.6638 6.15944L25.1067 6.38228C25.3004 6.86667 25.4 7.3836 25.4 7.90531V18.0947C25.4 18.6164 25.3004 19.1333 25.1067 19.6177C24.7337 20.5503 24.0314 21.3135 23.1331 21.7626L22.8809 21.8888C22.2084 22.225 21.467 22.4 20.7152 22.4H5.28483C4.53304 22.4 3.79157 22.225 3.11915 21.8888Z" stroke="white" stroke-width="1.2"/>
</svg>
