<svg width="65" height="45" viewBox="0 0 65 45" fill="none" xmlns="http://www.w3.org/2000/svg">
<path d="M54 0H11C8.08262 0 5.28472 1.15892 3.22182 3.22182C1.15892 5.28472 0 8.08262 0 11V34C0 36.9174 1.15892 39.7153 3.22182 41.7782C5.28472 43.8411 8.08262 45 11 45H54C56.9174 45 59.7153 43.8411 61.7782 41.7782C63.8411 39.7153 65 36.9174 65 34V11C65 8.08262 63.8411 5.28472 61.7782 3.22182C59.7153 1.15892 56.9174 0 54 0ZM45.23 22.94L25.73 32.94C25.6541 32.9793 25.5693 32.9985 25.4839 32.9958C25.3984 32.993 25.3151 32.9684 25.2419 32.9243C25.1686 32.8801 25.108 32.818 25.0656 32.7437C25.0233 32.6694 25.0007 32.5855 25 32.5V12.5C25.0007 12.4145 25.0233 12.3306 25.0656 12.2563C25.108 12.182 25.1686 12.1199 25.2419 12.0757C25.3151 12.0316 25.3984 12.007 25.4839 12.0042C25.5693 12.0015 25.6541 12.0207 25.73 12.06L45.23 22.06C45.3119 22.102 45.3806 22.1657 45.4286 22.2442C45.4766 22.3227 45.502 22.413 45.502 22.505C45.502 22.597 45.4766 22.6873 45.4286 22.7658C45.3806 22.8443 45.3119 22.908 45.23 22.95V22.94Z" fill="white"/>
</svg>
