<svg width="14" height="14" viewBox="0 0 14 14" fill="none" xmlns="http://www.w3.org/2000/svg">
<g clip-path="url(#clip0)">
<path d="M12.2909 1.67285H1.71198C0.767639 1.67285 0 2.44049 0 3.38483V10.6151C0 11.5595 0.767639 12.3271 1.71198 12.3271H12.288C13.2324 12.3271 14 11.5595 14 10.6151V3.38773C14.0029 2.44339 13.2353 1.67285 12.2909 1.67285ZM13.2208 10.6151C13.2208 11.1278 12.8036 11.545 12.2909 11.545H1.71198C1.19926 11.545 0.782123 11.1278 0.782123 10.6151V3.38773C0.782123 2.875 1.19926 2.45787 1.71198 2.45787H12.288C12.8007 2.45787 13.2179 2.875 13.2179 3.38773V10.6151H13.2208Z" fill="#A6B1C1"/>
<path d="M8.82928 6.91023L12.2532 3.83968C12.4126 3.69484 12.427 3.44861 12.2822 3.2864C12.1374 3.12707 11.8911 3.11259 11.7289 3.25743L7.00722 7.49538L6.08606 6.6727C6.08316 6.6698 6.08026 6.66691 6.08026 6.66401C6.05999 6.64373 6.03971 6.62635 6.01653 6.60897L2.26814 3.25453C2.10592 3.10969 1.8597 3.12418 1.71486 3.2864C1.57002 3.44861 1.58451 3.69484 1.74672 3.83968L5.21124 6.9363L1.76121 10.1662C1.60478 10.3139 1.59609 10.5601 1.74383 10.7195C1.82204 10.8006 1.92632 10.844 2.03061 10.844C2.1262 10.844 2.22179 10.8093 2.29711 10.7397L5.79928 7.46351L6.74941 8.31226C6.82473 8.37889 6.91742 8.41075 7.01012 8.41075C7.10282 8.41075 7.19841 8.37599 7.27083 8.30936L8.24703 7.43454L11.7289 10.7426C11.8042 10.8151 11.9027 10.8498 11.9983 10.8498C12.1026 10.8498 12.204 10.8093 12.2822 10.7282C12.4299 10.5717 12.4241 10.3226 12.2677 10.1749L8.82928 6.91023Z" fill="#A6B1C1"/>
</g>
<defs>
<clipPath id="clip0">
<rect width="14" height="14" fill="white"/>
</clipPath>
</defs>
</svg>
