<svg width="14" height="14" viewBox="0 0 14 14" fill="none" xmlns="http://www.w3.org/2000/svg">
<path d="M6.97686 7.81615C9.04584 7.81615 10.724 6.13797 10.724 4.06902C10.724 2.00007 9.04581 0.333374 6.97686 0.333374C4.90791 0.333374 3.22974 2.01155 3.22974 4.06902C3.22974 6.12649 4.90788 7.81615 6.97686 7.81615ZM6.97686 1.31039C8.49409 1.31039 9.73549 2.55176 9.73549 4.06902C9.73549 5.58628 8.49409 6.82763 6.97686 6.82763C5.45963 6.82763 4.21823 5.58625 4.21823 4.069C4.21823 2.55174 5.4596 1.31039 6.97686 1.31039Z" fill="#A6B1C1"/>
<path d="M0.494248 13.6667H13.5058C13.7816 13.6667 14 13.4483 14 13.1724C14 10.5862 11.8966 8.47125 9.29884 8.47125H4.70116C2.11495 8.47125 0 10.5747 0 13.1724C0 13.4483 0.218387 13.6667 0.494248 13.6667ZM4.70116 9.45975H9.29884C11.1839 9.45975 12.7356 10.8621 12.977 12.6781H1.02298C1.26436 10.8736 2.8161 9.45975 4.70116 9.45975Z" fill="#A6B1C1"/>
</svg>
