<svg width="14" height="14" viewBox="0 0 14 14" fill="none" xmlns="http://www.w3.org/2000/svg">
<g clip-path="url(#clip0)">
<path d="M11.2704 13.2613C11.161 13.2613 11.0524 13.229 10.9593 13.1658L7.4391 10.778L5.55108 12.1365C5.40301 12.243 5.21215 12.2698 5.04021 12.2083C4.86849 12.1467 4.73808 12.0045 4.69153 11.8281L3.74353 8.23547L0.356232 6.94027C0.142988 6.8587 0.00156457 6.65469 1.28942e-05 6.42637C-0.00153878 6.19805 0.137077 5.99213 0.349287 5.90767L13.2291 0.782719C13.2875 0.757892 13.3493 0.743558 13.4117 0.739715C13.434 0.738385 13.4564 0.738385 13.4787 0.739642C13.6078 0.747326 13.7347 0.799935 13.8337 0.897025C13.844 0.907074 13.8537 0.917345 13.8629 0.928059C13.945 1.02175 13.99 1.13598 13.9985 1.25236C14.0006 1.28162 14.0005 1.31125 13.9979 1.34088C13.9961 1.36201 13.9931 1.38307 13.9888 1.40398L11.8147 12.8109C11.7798 12.9942 11.6551 13.1475 11.4828 13.219C11.4144 13.2474 11.3422 13.2613 11.2704 13.2613ZM7.74818 9.64838L10.8838 11.7753L12.5754 2.89942L6.46576 8.77848L7.7334 9.63841C7.7385 9.64158 7.74337 9.64498 7.74818 9.64838ZM5.1379 9.17542L5.55773 10.7662L6.46228 10.1154L5.27784 9.31189C5.22279 9.27465 5.17565 9.22825 5.1379 9.17542ZM2.07896 6.41226L4.40484 7.30151C4.57146 7.36521 4.69722 7.5053 4.74274 7.67776L5.0377 8.79563C5.05122 8.66669 5.10967 8.54536 5.20462 8.45396L11.0263 2.85213L2.07896 6.41226Z" fill="#A6B1C1"/>
</g>
<defs>
<clipPath id="clip0">
<rect width="14" height="14" fill="white"/>
</clipPath>
</defs>
</svg>
