<svg width="90" height="86" viewBox="0 0 90 86" fill="none" xmlns="http://www.w3.org/2000/svg">
<path fill-rule="evenodd" clip-rule="evenodd" d="M25.6866 6.01358H63.6981V1.39344H25.6866V6.01358ZM30.2366 15.0359H59.1481V7.40892H30.2366V15.0359ZM6.7776 85.5969C6.45342 85.5969 6.06667 85.4755 6.06667 84.8992V43.4961H0.710938C0.38675 43.4961 0 43.3748 0 42.7984V20.2437C0 17.3734 2.36031 15.0359 5.26094 15.0359H28.8167V7.40892H24.9776C24.6534 7.40892 24.2667 7.28758 24.2667 6.71125V0.697667C24.2667 0.121333 24.6534 0 24.9776 0H64.4109C64.7351 0 65.1219 0.121333 65.1219 0.697667V6.71125C65.1219 7.28758 64.7351 7.40892 64.4109 7.40892H60.5719V15.0359H84.1276C87.0282 15.0359 89.3885 17.3734 89.3885 20.2437V42.7984C89.3885 43.3748 89.0018 43.4961 88.6776 43.4961H84.9314V42.1008H87.9667V20.2437C87.9667 18.1412 86.2452 16.4312 84.1276 16.4312H5.26094C3.14329 16.4312 1.42188 18.1412 1.42188 20.2437V42.1008H28.72V43.4961H7.48665V84.2015H45.4033V85.5969H6.7776Z" fill="#FCD600"/>
<path fill-rule="evenodd" clip-rule="evenodd" d="M68.9602 35.9774C65.9572 35.9774 63.6064 38.313 63.6064 41.2952V45.8054C63.6064 48.7875 65.9572 51.1213 68.9602 51.1213H71.9955C74.9985 51.1213 77.3493 48.7875 77.3493 45.8054V41.2952C77.3493 38.313 74.9985 35.9774 71.9955 35.9774H68.9602ZM68.9602 52.5185C65.1591 52.5185 62.1826 49.5686 62.1826 45.8054V41.2952C62.1826 37.5301 65.1591 34.582 68.9602 34.582H71.9955C75.7947 34.582 78.7731 37.5301 78.7731 41.2952V45.8054C78.7731 49.5686 75.7947 52.5185 71.9955 52.5185H68.9602Z" fill="#FCD600"/>
<path fill-rule="evenodd" clip-rule="evenodd" d="M60.6667 85.5967H62.0885V70.667H60.6667V85.5967Z" fill="#FCD600"/>
<path fill-rule="evenodd" clip-rule="evenodd" d="M78.8649 85.5967H80.2887V70.667H78.8649V85.5967Z" fill="#FCD600"/>
<path fill-rule="evenodd" clip-rule="evenodd" d="M33.8214 47.2051H56.1746V37.7889H33.8214V47.2051ZM33.7531 48C33.4097 48 33 47.8699 33 47.2632V37.7348C33 37.1261 33.4097 37 33.7531 37H56.2449C56.5883 37 57 37.1261 57 37.7348V47.2632C57 47.8699 56.5883 48 56.2449 48H33.7531Z" fill="#FCD600"/>
<path fill-rule="evenodd" clip-rule="evenodd" d="M70.628 68.1936L75.1685 56.3845H66.0893L70.628 68.1936ZM86.4487 85.5974V65.3518C86.4487 60.6842 82.7632 57.0272 78.0596 57.0272H75.8358L71.4564 68.5026C71.0792 68.8515 70.719 69.0562 70.4763 69.0562C70.2052 69.0562 69.917 68.8211 69.8772 68.7036L65.4201 57.0272H62.893C58.1875 57.0272 54.5039 60.6842 54.5039 65.3518V85.5974H53.082V65.3518C53.082 59.9013 57.3932 55.6318 62.893 55.6318H78.0596C83.5613 55.6318 87.8725 59.9013 87.8725 65.3518V85.5974H86.4487Z" fill="#FCD600"/>
</svg>
