<svg width="96" height="96" viewBox="0 0 96 96" fill="none" xmlns="http://www.w3.org/2000/svg">
<path fill-rule="evenodd" clip-rule="evenodd" d="M43.5474 21.7344H50.8729C53.1302 21.7344 54.9651 19.8975 54.9651 17.6423C54.9651 15.385 53.1302 13.5501 50.8729 13.5501H43.5474V21.7344ZM43.5474 31.4344H50.8729C53.1302 31.4344 54.9651 29.5995 54.9651 27.3423C54.9651 25.085 53.1302 23.2501 50.8729 23.2501H43.5474V31.4344ZM45.1641 37.9011H50.1151V32.948H45.1641V37.9011ZM51.6328 12.0728L52.2794 12.2385C53.2515 12.4851 54.1427 12.9943 54.856 13.7077C55.9068 14.7646 56.4828 16.1691 56.4808 17.6584C56.4767 19.1498 55.8927 20.5523 54.8378 21.6031L54.5387 21.8436L53.789 22.4963L54.5428 23.145C55.4198 23.8967 56.0321 24.8849 56.311 26.0004C56.6748 27.4413 56.4565 28.9347 55.6947 30.2078C54.9328 31.4829 53.7203 32.3842 52.2815 32.746L51.6328 32.9096V37.9011H60.769L61.0135 37.6909C64.5964 34.5748 66.9588 30.2725 67.6681 25.576C67.8237 24.5697 67.9005 23.531 67.8985 22.4902C67.8884 11.3332 58.8007 2.2435 47.6416 2.2334C36.4806 2.2435 27.3929 11.3332 27.3808 22.4923C27.3787 23.5168 27.4576 24.5555 27.6132 25.574C28.3366 30.2603 30.699 34.5627 34.2637 37.6889L34.5062 37.9011H43.6505V32.948H40.4172V31.4344H42.0318V13.5501H40.4172V12.0344H43.6505V8.80111H45.1641V12.0344H50.1151V8.80111H51.6328V12.0728ZM9.59743 44.3698L10.4583 44.4648L84.0651 44.3678V26.4834H69.0483L68.9008 27.1563C68.6704 28.2051 68.3532 29.2519 67.9652 30.2684L67.5185 31.4344H79.1161V32.948H66.7244L66.4758 33.3785C65.8433 34.4738 65.1097 35.5206 64.2973 36.4906L63.1152 37.9011H79.1161V39.4167H9.69847V37.9011H32.1459L30.9617 36.4906C30.1513 35.5206 29.4178 34.4738 28.7852 33.3785L28.5387 32.948H9.69847V31.4344H27.7688L27.3201 30.2684C26.9321 29.258 26.6189 28.2112 26.3885 27.1584L26.239 26.4834H10.4563C5.52747 26.4834 1.51409 30.4948 1.51409 35.4256C1.51409 40.0674 5.06874 43.8929 9.59743 44.3274V44.3698ZM85.5828 57.3314L86.6134 57.1233C90.1377 56.4059 92.878 53.6656 93.5974 50.1393C94.5775 45.3054 91.4432 40.5767 86.6134 39.5946L85.5828 39.3864V57.3314ZM60.575 58.8167C55.6421 58.8167 51.6328 62.8261 51.6328 67.7569C51.6328 72.6898 55.6421 76.6991 60.575 76.6991H84.825C89.7477 76.695 93.7611 72.6857 93.7672 67.7589V54.1506L92.2919 55.6642C90.3398 57.6669 87.6218 58.8167 84.833 58.8167H60.575ZM1.51409 85.5423C1.52015 90.469 5.53151 94.4784 10.4563 94.4844H84.0651V78.2167H60.575C54.8075 78.2167 50.1151 73.5244 50.1151 67.7569C50.1151 61.9915 54.8075 57.3011 60.575 57.3011H84.0651V45.8814L11.3071 45.9784L10.4563 45.8834C7.66147 45.8834 4.9394 44.7335 2.9893 42.7309L1.51409 41.2173V85.5423ZM10.4563 96.0001C4.6969 95.992 0.00655078 91.3016 0.000488281 85.5423V35.4256C0.00655078 29.6662 4.6969 24.9738 10.4583 24.9678H25.9904L25.9258 24.0483C25.8894 23.535 25.8651 23.0156 25.8651 22.4923C25.8651 10.4865 35.6338 0.717773 47.6396 0.717773C59.6474 0.717773 69.4161 10.4865 69.4161 22.4923C69.4161 23.0177 69.3898 23.537 69.3555 24.0503L69.2949 24.9678H84.825C85.2433 24.9678 85.5828 25.3073 85.5828 25.7256V37.9153L86.3184 38.0224C91.421 38.7579 95.2767 43.2038 95.2828 48.3589V67.7569C95.2767 72.9141 91.421 77.3579 86.3184 78.0955L85.5828 78.2006V95.2423C85.5828 95.6606 85.2433 96.0001 84.825 96.0001H10.4563Z" fill="#FCD600"/>
<path fill-rule="evenodd" clip-rule="evenodd" d="M60.5747 65.2832C59.2086 65.2832 58.0972 66.3926 58.0972 67.7587C58.0972 69.1228 59.2086 70.2342 60.5747 70.2342C61.9408 70.2342 63.0502 69.1228 63.0502 67.7587C63.0502 66.3926 61.9408 65.2832 60.5747 65.2832M60.5747 71.7499C58.374 71.7499 56.5815 69.9574 56.5815 67.7587C56.5815 65.558 58.374 63.7676 60.5747 63.7676C62.7754 63.7676 64.5659 65.558 64.5659 67.7587C64.5659 69.9574 62.7754 71.7499 60.5747 71.7499" fill="#FCD600"/>
<path fill-rule="evenodd" clip-rule="evenodd" d="M74.3647 52.3503H77.4991V50.8326H74.3647V52.3503Z" fill="#FCD600"/>
<path fill-rule="evenodd" clip-rule="evenodd" d="M66.2812 52.3503H69.4156V50.8326H66.2812V52.3503Z" fill="#FCD600"/>
<path fill-rule="evenodd" clip-rule="evenodd" d="M58.1978 52.3503H61.3321V50.8326H58.1978V52.3503Z" fill="#FCD600"/>
<path fill-rule="evenodd" clip-rule="evenodd" d="M50.1147 52.3503H53.2491V50.8326H50.1147V52.3503Z" fill="#FCD600"/>
<path fill-rule="evenodd" clip-rule="evenodd" d="M42.0332 52.3503H45.1655V50.8326H42.0332V52.3503Z" fill="#FCD600"/>
<path fill-rule="evenodd" clip-rule="evenodd" d="M33.9497 52.3503H37.082V50.8326H33.9497V52.3503Z" fill="#FCD600"/>
<path fill-rule="evenodd" clip-rule="evenodd" d="M25.8667 52.3503H28.999V50.8326H25.8667V52.3503Z" fill="#FCD600"/>
<path fill-rule="evenodd" clip-rule="evenodd" d="M17.7832 52.3503H20.9155V50.8326H17.7832V52.3503Z" fill="#FCD600"/>
<path fill-rule="evenodd" clip-rule="evenodd" d="M9.69971 52.3503H12.832V50.8326H9.69971V52.3503Z" fill="#FCD600"/>
<path fill-rule="evenodd" clip-rule="evenodd" d="M74.3647 89.5339H77.4991V88.0182H74.3647V89.5339Z" fill="#FCD600"/>
<path fill-rule="evenodd" clip-rule="evenodd" d="M66.2812 89.5339H69.4156V88.0182H66.2812V89.5339Z" fill="#FCD600"/>
<path fill-rule="evenodd" clip-rule="evenodd" d="M58.1978 89.5339H61.3321V88.0182H58.1978V89.5339Z" fill="#FCD600"/>
<path fill-rule="evenodd" clip-rule="evenodd" d="M50.1147 89.5339H53.2491V88.0182H50.1147V89.5339Z" fill="#FCD600"/>
<path fill-rule="evenodd" clip-rule="evenodd" d="M42.0332 89.5339H45.1655V88.0182H42.0332V89.5339Z" fill="#FCD600"/>
<path fill-rule="evenodd" clip-rule="evenodd" d="M33.9497 89.5339H37.082V88.0182H33.9497V89.5339Z" fill="#FCD600"/>
<path fill-rule="evenodd" clip-rule="evenodd" d="M25.8667 89.5339H28.999V88.0182H25.8667V89.5339Z" fill="#FCD600"/>
<path fill-rule="evenodd" clip-rule="evenodd" d="M17.7832 89.5339H20.9155V88.0182H17.7832V89.5339Z" fill="#FCD600"/>
<path fill-rule="evenodd" clip-rule="evenodd" d="M9.69971 89.5339H12.832V88.0182H9.69971V89.5339Z" fill="#FCD600"/>
</svg>
