<svg width="94" height="94" viewBox="0 0 94 94" fill="none" xmlns="http://www.w3.org/2000/svg">
<path fill-rule="evenodd" clip-rule="evenodd" d="M88.6541 85.945H90.1385V76.5439H88.6541V85.945Z" fill="#FCD600"/>
<path fill-rule="evenodd" clip-rule="evenodd" d="M88.6541 93.8617H90.1385V90.792H88.6541V93.8617Z" fill="#FCD600"/>
<path fill-rule="evenodd" clip-rule="evenodd" d="M24.48 46.3613C22.2693 46.3613 20.4722 48.1604 20.4722 50.3691C20.4722 52.5799 22.2693 54.377 24.48 54.377C26.6907 54.377 28.4878 52.5799 28.4878 50.3691C28.4878 48.1604 26.6907 46.3613 24.48 46.3613M24.48 55.8613C21.4519 55.8613 18.9878 53.3973 18.9878 50.3691C18.9878 47.341 21.4519 44.877 24.48 44.877C27.5081 44.877 29.9722 47.341 29.9722 50.3691C29.9722 53.3973 27.5081 55.8613 24.48 55.8613" fill="#FCD600"/>
<path fill-rule="evenodd" clip-rule="evenodd" d="M12.5553 27.4606H34.821V22.6097H12.5553V27.4606ZM1.68773 47.0722L2.73668 47.3651C3.22356 47.4977 3.72627 47.567 4.23096 47.567C5.92314 47.567 7.5045 46.8149 8.57127 45.5007L12.8245 40.3945C12.965 40.2243 13.1728 40.1273 13.3945 40.1273C17.8338 40.1154 22.091 38.1184 24.9449 34.7479L26.1344 35.6405C25.1943 36.7667 24.1077 37.7562 22.8945 38.5934L20.664 40.1273H34.821V28.945H12.2327L1.68773 47.0722ZM9.70929 46.4586C8.92554 47.3928 7.90627 48.1172 6.76231 48.5526L6.222 48.7604V61.6547L7.42929 61.0708C10.0616 59.7982 13.0006 59.1253 15.9298 59.1253H33.014C36.3311 59.1253 39.5334 58.2367 42.3299 56.5524L42.7376 56.307V39.0862L41.5303 39.6681C38.8961 40.9387 35.957 41.6117 33.0338 41.6117H13.7468L9.70929 46.4586ZM15.8922 60.6117C15.0214 60.6117 14.1387 60.677 13.2698 60.8115L12.5256 60.9224L12.5553 61.6745C12.6761 64.6868 15.1302 67.0439 18.1425 67.042H29.2298C32.3134 67.042 34.821 64.5363 34.821 61.4528V60.6117H15.8922ZM18.1465 68.5283C14.5919 68.5105 11.5875 65.8347 11.162 62.3019L11.0373 61.2747L10.0576 61.6032C8.57721 62.102 7.16408 62.7887 5.85783 63.6457C5.74106 63.7209 5.60252 63.7625 5.45804 63.7625C5.34127 63.7625 5.2245 63.7328 5.1196 63.6813C4.89002 63.5567 4.7396 63.3073 4.7396 63.0342V49.0217L3.93012 48.99C2.64168 48.9405 1.39679 48.5348 0.328039 47.8163C0.00543496 47.6006 -0.0955025 47.1672 0.0984558 46.8307L11.071 28.0029V22.6117H10.2298C9.82012 22.6117 9.48762 22.2792 9.48762 21.8695V0.543945H10.972V21.1273H36.4063V0.543945H37.8887V21.8695C37.8887 22.2792 37.5562 22.6117 37.1465 22.6117H36.3053V39.8482L37.3444 39.5988C39.4007 39.1021 41.3403 38.2589 43.1038 37.0893C43.2186 37.016 43.3571 36.9764 43.4996 36.9764C43.6184 36.9764 43.7351 37.0042 43.84 37.0576C44.0716 37.1803 44.222 37.4317 44.222 37.7028V56.7028C44.22 56.9462 44.0953 57.1778 43.8875 57.3144C41.7837 58.7235 39.4601 59.6933 36.9782 60.2L36.3053 60.3405V61.4528C36.3053 65.3537 33.1307 68.5283 29.2298 68.5283H18.1465Z" fill="#FCD600"/>
<path fill-rule="evenodd" clip-rule="evenodd" d="M3.15413 22.6103H4.63851V6.87793H3.15413V22.6103Z" fill="#FCD600"/>
<path fill-rule="evenodd" clip-rule="evenodd" d="M3.15413 2.02865H4.63851V0.544271H3.15413V2.02865Z" fill="#FCD600"/>
<path fill-rule="evenodd" clip-rule="evenodd" d="M5.54834 74.5849L9.1049 71.0283L10.1539 72.0753L6.5973 75.6319L5.54834 74.5849Z" fill="#FCD600"/>
<path fill-rule="evenodd" clip-rule="evenodd" d="M22.1541 81.195H23.6385V76.5439H22.1541V81.195Z" fill="#FCD600"/>
<path fill-rule="evenodd" clip-rule="evenodd" d="M13.1094 79.3877L15.522 74.5625L16.85 75.2275L14.4374 80.0527L13.1094 79.3877Z" fill="#FCD600"/>
<path fill-rule="evenodd" clip-rule="evenodd" d="M64.0635 27.3604C60.9799 27.3604 58.4723 29.8699 58.4723 32.9515V33.7926H77.3635C78.26 33.7926 79.1487 33.7273 80.0215 33.5947L80.7676 33.4819L80.738 32.7279C80.6152 29.7175 78.1631 27.3604 75.1508 27.3604H64.0635ZM60.2298 35.277C56.9682 35.277 53.7619 36.1676 50.9634 37.8519L50.5557 38.0973V55.3181L51.761 54.7362C54.3972 53.4656 57.3363 52.7946 60.2536 52.7946H79.5465L83.584 47.9457C84.3638 47.0155 85.3811 46.295 86.525 45.8695L87.0713 45.6657V32.7516L85.866 33.3355C83.2337 34.6061 80.2946 35.277 77.3694 35.277H60.2298ZM58.4723 65.4593H81.0606L91.6056 47.3321L90.5546 47.0412C90.0697 46.9046 89.567 46.8373 89.0623 46.8373C87.3701 46.8373 85.7888 47.5914 84.722 48.9036L80.4688 54.0098C80.3283 54.18 80.1185 54.279 79.8968 54.279C75.4595 54.2889 71.2023 56.2839 68.3504 59.6564L67.1589 58.7638C68.101 57.6357 69.1875 56.6461 70.3988 55.8129L72.6293 54.279H58.4723V65.4593ZM58.4723 71.7926H80.738V66.9457H58.4723V71.7926ZM82.3213 93.8623V73.277H56.889V93.8623H55.4046V72.5348C55.4046 72.1251 55.7371 71.7926 56.1468 71.7926H56.988V54.5561L55.9489 54.8074C53.8945 55.3022 51.9569 56.1454 50.1875 57.315C50.0747 57.3883 49.9342 57.4279 49.7917 57.4279C49.673 57.4279 49.5582 57.4001 49.4533 57.3467C49.2237 57.224 49.0733 56.9746 49.0713 56.6995V37.7035C49.0733 37.4581 49.198 37.2285 49.4058 37.0919C51.5116 35.6788 53.8351 34.709 56.315 34.2043L56.988 34.0677V32.9515C56.988 29.0506 60.1625 25.876 64.0635 25.876H75.1468C78.7172 25.8799 81.7355 28.5558 82.1649 32.1024L82.2896 33.1336L83.2713 32.7991C84.7398 32.2984 86.1431 31.6116 87.4394 30.7566C87.5522 30.6834 87.6908 30.6418 87.8352 30.6418C87.952 30.6418 88.0688 30.6715 88.1757 30.7249C88.4033 30.8476 88.5537 31.097 88.5557 31.3721V45.3648L89.3612 45.3985C90.6496 45.4539 91.8945 45.8636 92.9633 46.586C93.2898 46.8037 93.3888 47.2371 93.1968 47.5756L82.2223 66.4034V71.7926H83.0635C83.4732 71.7926 83.8076 72.1251 83.8076 72.5348V93.8623H82.3213Z" fill="#FCD600"/>
<path fill-rule="evenodd" clip-rule="evenodd" d="M68.814 40.0273C66.6032 40.0273 64.8062 41.8264 64.8062 44.0351C64.8062 46.2459 66.6032 48.0429 68.814 48.0429C71.0227 48.0429 72.8198 46.2459 72.8198 44.0351C72.8198 41.8264 71.0227 40.0273 68.814 40.0273M68.814 49.5273C65.7858 49.5273 63.3218 47.0633 63.3218 44.0351C63.3218 41.009 65.7858 38.5449 68.814 38.5449C71.8401 38.5449 74.3042 41.009 74.3042 44.0351C74.3042 47.0633 71.8401 49.5273 68.814 49.5273" fill="#FCD600"/>
<path fill-rule="evenodd" clip-rule="evenodd" d="M83.1382 22.33L86.6947 18.7734L87.7437 19.8224L84.1871 23.379L83.1382 22.33Z" fill="#FCD600"/>
<path fill-rule="evenodd" clip-rule="evenodd" d="M69.6541 17.862H71.1385V13.2109H69.6541V17.862Z" fill="#FCD600"/>
<path fill-rule="evenodd" clip-rule="evenodd" d="M76.4507 19.2168L78.8653 14.3916L80.1913 15.0546L77.7767 19.8798L76.4507 19.2168Z" fill="#FCD600"/>
<path fill-rule="evenodd" clip-rule="evenodd" d="M61.7376 79.6117H63.222V78.1273H61.7376V79.6117Z" fill="#FCD600"/>
<path fill-rule="evenodd" clip-rule="evenodd" d="M30.0711 16.2767H31.5555V14.7943H30.0711V16.2767Z" fill="#FCD600"/>
</svg>
