<svg width="97" height="87" viewBox="0 0 97 87" fill="none" xmlns="http://www.w3.org/2000/svg">
<path fill-rule="evenodd" clip-rule="evenodd" d="M1.37526 85.626H95.347V13.5888H18.437C18.0564 13.5888 17.7494 13.286 17.7494 12.9114C17.7494 12.5369 18.0564 12.232 18.437 12.232H95.347V1.35684H1.37526V12.232H11.7736C12.1522 12.232 12.4612 12.5369 12.4612 12.9114C12.4612 13.286 12.1522 13.5888 11.7736 13.5888H1.37526V85.626ZM0.687628 86.9849C0.309023 86.9849 0 86.68 0 86.3055V0.679442C0 0.30493 0.309023 0 0.687628 0H96.0346C96.4153 0 96.7243 0.30493 96.7243 0.679442V86.3055C96.7243 86.68 96.4153 86.9849 96.0367 86.9849H0.687628Z" fill="#FCD600"/>
<path fill-rule="evenodd" clip-rule="evenodd" d="M89.5838 7.80577C89.1949 7.80577 88.8757 7.44763 88.8757 7.00763C88.8757 6.56763 89.1949 6.20949 89.5838 6.20949C90.1691 6.20949 90.4863 6.56763 90.4863 7.00763C90.4863 7.44763 90.1691 7.80577 89.7802 7.80577H89.5838Z" fill="#FCD600"/>
<path fill-rule="evenodd" clip-rule="evenodd" d="M42.862 68.2067C40.6559 68.2067 38.8631 70.0036 38.8631 72.2138C38.8631 74.422 40.6559 76.2188 42.862 76.2188H52.3025C54.5066 76.2188 56.2994 74.422 56.2994 72.2138C56.2994 70.0036 54.5066 68.2067 52.3025 68.2067H42.862ZM42.862 77.6698C39.8618 77.6698 37.4224 75.2222 37.4224 72.2138C37.4224 69.2054 39.8618 66.7578 42.862 66.7578H52.3025C55.3027 66.7578 57.7422 69.2054 57.7422 72.2138C57.7422 75.2222 55.3027 77.6698 52.3025 77.6698H42.862Z" fill="#FCD600"/>
<path fill-rule="evenodd" clip-rule="evenodd" d="M83.3485 7.80577C82.9576 7.80577 82.6384 7.44763 82.6384 7.00763C82.6384 6.56763 82.9576 6.20949 83.3485 6.20949C83.9318 6.20949 84.249 6.56763 84.249 7.00763C84.249 7.44763 83.9318 7.80577 83.5429 7.80577H83.3485Z" fill="#FCD600"/>
<path fill-rule="evenodd" clip-rule="evenodd" d="M77.1112 7.80577C76.7203 7.80577 76.401 7.44763 76.401 7.00763C76.401 6.56763 76.7203 6.20949 77.1112 6.20949C77.6965 6.20949 78.0137 6.56763 78.0137 7.00763C78.0137 7.44763 77.6965 7.80577 77.3056 7.80577H77.1112Z" fill="#FCD600"/>
<path fill-rule="evenodd" clip-rule="evenodd" d="M24.745 61.2236H63.1806L59.4989 47.8967C59.4293 47.6409 59.5398 47.4444 59.6135 47.3482C59.7486 47.1702 59.9532 47.0658 60.162 47.0658L72.2875 50.3054V32.3698H24.745V61.2236ZM73.1246 64.1399C73.3087 64.1399 73.4807 64.2074 73.6055 64.3302L83.9281 74.5218L87.2966 71.1942L76.9618 60.9903C76.8349 60.8654 76.7653 60.7017 76.7653 60.5278C76.7653 60.3538 76.8349 60.188 76.9618 60.0632L82.6327 54.4639L61.1156 48.6703L66.9871 69.911L72.6375 64.3322C72.7644 64.2074 72.9363 64.1399 73.1246 64.1399V64.1399ZM83.9281 76.116C83.7398 76.116 83.57 76.0485 83.4451 75.9278L73.1225 65.7341L67.1221 71.6608C66.9666 71.8122 66.7824 71.845 66.6555 71.845C66.3956 71.845 66.0723 71.6956 65.9822 71.3681L63.5448 62.5456H24.0656C23.6931 62.5456 23.3882 62.2468 23.3882 61.8825V31.7108C23.3882 31.3445 23.6931 31.0498 24.0656 31.0498H72.967C73.3415 31.0498 73.6485 31.3445 73.6485 31.7108V50.6718L84.1082 53.4898C84.3353 53.5512 84.5093 53.7292 84.5707 53.9646C84.6014 54.0772 84.6444 54.3596 84.409 54.5888L78.3964 60.5257L88.7333 70.7317C88.8581 70.8565 88.9277 71.0202 88.9277 71.1942C88.9277 71.3681 88.8581 71.5339 88.7333 71.6608L84.409 75.9257C84.2842 76.0485 84.1143 76.116 83.9281 76.116V76.116Z" fill="#FCD600"/>
<path fill-rule="evenodd" clip-rule="evenodd" d="M24.1045 26.4366C23.7095 26.4366 23.3882 26.0785 23.3882 25.6385C23.3882 25.1985 23.7095 24.8404 24.1045 24.8404H55.4673C55.8622 24.8404 56.1835 25.1985 56.1835 25.6385C56.1835 26.0785 55.8622 26.4366 55.4673 26.4366H24.1045Z" fill="#FCD600"/>
<path fill-rule="evenodd" clip-rule="evenodd" d="M58.4149 26.4366C58.0179 26.4366 57.6904 26.0785 57.6904 25.6385C57.6904 25.1985 58.0179 24.8404 58.4149 24.8404H74.171C74.5701 24.8404 74.8955 25.1985 74.8955 25.6385C74.8955 26.0785 74.5701 26.4366 74.171 26.4366H58.4149Z" fill="#FCD600"/>
</svg>
