<svg width="54" height="86" viewBox="0 0 54 86" fill="none" xmlns="http://www.w3.org/2000/svg">
<path fill-rule="evenodd" clip-rule="evenodd" d="M23.5119 13.9463C22.1579 14.9187 21.3495 16.4912 21.3495 18.1526C21.3495 19.8145 22.1579 21.3866 23.5119 22.3586L25.4826 23.7734V12.5312L23.5119 13.9463ZM27.3849 35.9982L29.3094 34.743C30.7853 33.7801 31.6669 32.1575 31.6669 30.402C31.6669 28.6457 30.7853 27.0231 29.3083 26.0621L27.3849 24.8105V35.9982ZM26.4337 40.5408C25.9093 40.5408 25.4826 40.1141 25.4826 39.5897V37.4419L24.6003 37.1736C21.3382 36.1815 18.6919 33.1481 18.4006 32.8056C18.2352 32.6109 18.1558 32.3653 18.1759 32.1125C18.1964 31.8592 18.3143 31.6294 18.5078 31.4647C18.7285 31.277 18.9642 31.2375 19.1234 31.2375C19.4026 31.2375 19.6668 31.3597 19.8483 31.5723C20.4203 32.2391 21.942 33.7446 23.628 34.6921L25.4826 35.7351V25.2156L24.5794 24.958C21.5577 24.0965 19.4476 21.298 19.4476 18.1526C19.4476 15.0072 21.5577 12.2088 24.5794 11.3469L25.4826 11.0897V8.96345C25.4826 8.4394 25.9093 8.0127 26.4337 8.0127C26.9582 8.0127 27.3849 8.4394 27.3849 8.96345V11.0732L28.3378 11.303C31.6029 12.0898 34.1459 14.6427 34.4252 14.9311C34.6019 15.1137 34.6967 15.3538 34.6923 15.6078C34.6887 15.8618 34.5851 16.0993 34.4025 16.276C34.225 16.4473 33.99 16.5424 33.7419 16.5424C33.4821 16.5424 33.2395 16.44 33.0587 16.2541C32.4234 15.6041 30.8805 14.3086 29.1133 13.5632L27.3849 12.8342V23.3163L28.3107 23.5615C31.4067 24.382 33.5688 27.1951 33.5688 30.402C33.5688 33.61 31.4067 36.4238 28.3107 37.2443L27.3849 37.4895V39.5897C27.3849 40.1141 26.9582 40.5408 26.4337 40.5408V40.5408Z" fill="#F1C633"/>
<mask id="mask0" mask-type="alpha" maskUnits="userSpaceOnUse" x="0" y="0" width="54" height="86">
<path fill-rule="evenodd" clip-rule="evenodd" d="M0 0.366211H53.4388V85.7019H0V0.366211Z" fill="white"/>
</mask>
<g mask="url(#mask0)">
<path fill-rule="evenodd" clip-rule="evenodd" d="M26.4335 2.26809C14.4059 2.26809 4.62094 12.0768 4.62094 24.1337C4.62094 36.1902 14.4059 45.9993 26.4335 45.9993C38.4603 45.9993 48.2449 36.1902 48.2449 24.1337C48.2449 12.0768 38.4603 2.26809 26.4335 2.26809V2.26809ZM1.90188 61.1254C1.90188 65.8122 5.71406 69.6251 10.3998 69.6251H18.8969V61.1254C18.8969 56.4404 15.0855 52.6271 10.4001 52.6257H1.90188V61.1254ZM43.0388 62.0762C38.3531 62.0762 34.5409 65.8887 34.5409 70.5748L34.542 79.0738H43.0388C47.723 79.0738 51.5356 75.262 51.5371 70.5766V62.0762H43.0388ZM26.4335 85.702C25.9091 85.702 25.4823 85.2753 25.4823 84.7509V71.527H10.3998C4.66523 71.527 0 66.8607 0 61.1254V51.6745C0 51.4246 0.10137 51.1798 0.278494 51.0023C0.455617 50.8252 0.700809 50.7238 0.950757 50.7238L10.3998 50.7253C16.1336 50.7253 20.7988 55.3916 20.7988 61.1265V69.6251H25.4823V47.903L24.3464 47.8031C18.4702 47.2874 13.0182 44.5944 8.99523 40.2201C4.94811 35.8194 2.71906 30.1065 2.71906 24.1337C2.71906 11.028 13.3574 0.366211 26.4335 0.366211C39.5088 0.366211 50.1468 11.028 50.1468 24.1337C50.1468 30.1065 47.9177 35.8194 43.8702 40.2201C39.8476 44.5944 34.3963 47.2874 28.5202 47.8031L27.3846 47.903V79.0738H32.6405L32.639 70.5759C32.639 64.8406 37.3042 60.1743 43.0388 60.1743L52.4874 60.1757C53.0122 60.1757 53.4389 60.6024 53.4389 61.1265V70.5762C53.4375 76.3104 48.7722 80.976 43.0388 80.976H27.3846V84.7509C27.3846 85.2753 26.9579 85.702 26.4335 85.702V85.702Z" fill="#F1C633"/>
</g>
</svg>
