<svg width="19" height="18" viewBox="0 0 19 18" fill="none" xmlns="http://www.w3.org/2000/svg">
<path fill-rule="evenodd" clip-rule="evenodd" d="M9.94123 0C4.9871 0 0.96875 4.13039 0.96875 9.22266C0.96875 13.2965 3.55591 16.7479 7.07884 17.9927C7.51921 18.0493 7.68435 17.7664 7.68435 17.54C7.68435 17.3137 7.68435 16.7479 7.68435 15.9558C5.20728 16.5216 4.65682 14.711 4.65682 14.711C4.2715 13.636 3.666 13.3531 3.666 13.3531C2.84031 12.7873 3.72104 12.7873 3.72104 12.7873C4.60178 12.8438 5.09719 13.7491 5.09719 13.7491C5.92288 15.1636 7.18893 14.7676 7.68435 14.5413C7.73939 13.9189 8.01462 13.5228 8.23481 13.2965C6.25315 13.0702 4.16141 12.278 4.16141 8.71344C4.16141 7.69498 4.49169 6.90285 5.09719 6.22388C5.04214 6.05414 4.71187 5.09227 5.20728 3.84749C5.20728 3.84749 5.97792 3.62117 7.68435 4.80936C8.39994 4.58304 9.17058 4.52646 9.94123 4.52646C10.7119 4.52646 11.4825 4.63962 12.1981 4.80936C13.9045 3.62117 14.6752 3.84749 14.6752 3.84749C15.1706 5.09227 14.8403 6.05414 14.7853 6.28046C15.3357 6.90285 15.721 7.75156 15.721 8.77002C15.721 12.3346 13.6293 13.0702 11.6476 13.2965C11.9779 13.5794 12.2532 14.1452 12.2532 14.9939C12.2532 16.2387 12.2532 17.2006 12.2532 17.54C12.2532 17.7664 12.4183 18.0493 12.8587 17.9927C16.4366 16.7479 18.9688 13.2965 18.9688 9.22266C18.9137 4.13039 14.8954 0 9.94123 0Z" fill="#4AA956"/>
</svg>
