<svg width="15" height="14" viewBox="0 0 15 14" fill="none" xmlns="http://www.w3.org/2000/svg">
<path fill-rule="evenodd" clip-rule="evenodd" d="M1.81611 0C0.718155 0 0 0.70417 0 1.63018C0 2.53601 0.697378 3.26155 1.77352 3.26155H1.79495C2.91418 3.26155 3.61023 2.53614 3.61023 1.63018C3.58914 0.70417 2.91418 0 1.81611 0ZM14.9678 8.5749V13.9862H11.7594V8.93732C11.7594 7.66901 11.2953 6.80344 10.134 6.80344C9.24745 6.80344 8.71988 7.38677 8.48778 7.95104C8.40314 8.15277 8.38135 8.43355 8.38135 8.71592V13.9862H5.17188C5.17188 13.9862 5.2151 5.43508 5.17188 4.54912H8.38104V5.88679C8.37797 5.89151 8.37446 5.8964 8.37098 5.90127L8.37097 5.90128C8.36707 5.90673 8.36318 5.91216 8.35995 5.91728H8.38104V5.88679C8.80741 5.24469 9.56886 4.32742 11.2732 4.32742C13.3848 4.32739 14.9678 5.67621 14.9678 8.5749ZM3.39887 13.9861H0.190614V4.54912H3.39887V13.9861Z" fill="#4AA956"/>
</svg>
