<svg width="17" height="15" viewBox="0 0 17 15" fill="none" xmlns="http://www.w3.org/2000/svg">
<path fill-rule="evenodd" clip-rule="evenodd" d="M4.21762 8.63906L0.300232 7.16333C-0.0977331 7.01298 -0.100846 6.44599 0.295563 6.29154L16.3719 0.0320098C16.7128 -0.100888 17.0646 0.200313 16.9899 0.561548L14.105 14.5681C14.037 14.8991 13.6531 15.0489 13.3817 14.8498L9.44358 11.9641C9.20438 11.7891 8.87854 11.7983 8.64972 11.9866L6.46584 13.7831C6.21264 13.9924 5.83076 13.8759 5.73373 13.5604L4.21762 8.63906ZM13.1449 3.0948L5.48916 7.85347C5.19548 8.03665 5.05746 8.3943 5.15242 8.72885L5.98 11.6644C6.03863 11.8722 6.33801 11.8512 6.36655 11.6362L6.58187 10.0265C6.62234 9.72328 6.76555 9.44414 6.98762 9.2353L13.3058 3.30775C13.4241 3.19691 13.2824 3.00911 13.1449 3.0948Z" fill="#4AA956"/>
</svg>
