<svg width="16" height="16" viewBox="0 0 16 16" fill="none" xmlns="http://www.w3.org/2000/svg">
<path d="M7.97344 14.618H1.99334C1.62656 14.618 1.32891 14.3203 1.32891 13.9535V1.99338C1.32891 1.62659 1.62659 1.32894 1.99334 1.32894H7.97344C8.34087 1.32894 8.63787 1.03194 8.63787 0.6645C8.63787 0.297062 8.34087 0 7.97344 0H1.99334C0.894344 0 0 0.894375 0 1.99338V13.9535C0 15.0525 0.894344 15.9468 1.99334 15.9468H7.97344C8.34087 15.9468 8.63787 15.6498 8.63787 15.2824C8.63787 14.915 8.34087 14.618 7.97344 14.618Z" fill="#00e28e"/>
<path d="M15.8027 7.50052L11.7629 3.5138C11.5024 3.25599 11.0812 3.25933 10.8234 3.52046C10.5655 3.78158 10.5682 4.20218 10.83 4.45999L13.717 7.30914H5.98084C5.61341 7.30914 5.31641 7.60614 5.31641 7.97358C5.31641 8.34102 5.61341 8.63805 5.98084 8.63805H13.717L10.83 11.4872C10.5682 11.745 10.5662 12.1656 10.8234 12.4267C10.9536 12.5583 11.125 12.6247 11.2965 12.6247C11.4652 12.6247 11.634 12.561 11.7629 12.4334L15.8027 8.44664C15.929 8.32174 16.0007 8.15161 16.0007 7.97355C16.0007 7.79555 15.9297 7.62611 15.8027 7.50052Z" fill="#00e28e"/>
</svg>
