<svg width="16" height="17" viewBox="0 0 16 17" fill="none" xmlns="http://www.w3.org/2000/svg">
<path fill-rule="evenodd" clip-rule="evenodd" d="M7.38293 1.62C7.58608 1.60263 7.79189 1.59375 8 1.59375C8.20811 1.59375 8.41393 1.60263 8.61708 1.62C8.65542 1.62328 8.73388 1.65908 8.76481 1.77536L9.0771 2.94973C9.23548 3.54531 9.67035 3.97669 10.1545 4.21253C10.3419 4.30384 10.5226 4.40675 10.6956 4.52033C11.1457 4.8159 11.7435 4.97076 12.3475 4.80778L13.539 4.48625C13.6566 4.45449 13.7275 4.5032 13.7497 4.5343C13.9858 4.86463 14.193 5.21607 14.368 5.58507C14.384 5.61892 14.3919 5.70342 14.3049 5.78793L13.4247 6.64337C12.9801 7.07541 12.8172 7.66071 12.8515 8.191C12.8581 8.29307 12.8614 8.39609 12.8614 8.5C12.8614 8.60391 12.8581 8.70693 12.8515 8.809C12.8172 9.33929 12.9801 9.92459 13.4247 10.3566L14.3049 11.212C14.3919 11.2966 14.384 11.3811 14.368 11.415C14.193 11.784 13.9858 12.1353 13.7497 12.4657C13.7275 12.4968 13.6566 12.5455 13.539 12.5138L12.3475 12.1922C11.7435 12.0292 11.1457 12.1841 10.6956 12.4797C10.5226 12.5933 10.3419 12.6961 10.1545 12.7875C9.67035 13.0233 9.23548 13.4546 9.0771 14.0503L8.76481 15.2247C8.73388 15.3409 8.65542 15.3767 8.61708 15.38C8.41393 15.3973 8.20811 15.4062 8 15.4062C7.79189 15.4062 7.58608 15.3973 7.38293 15.38C7.34458 15.3767 7.26612 15.3409 7.2352 15.2247L6.92289 14.0502C6.76452 13.4546 6.32966 13.0233 5.84556 12.7875C5.65811 12.6961 5.47743 12.5933 5.30449 12.4797C4.85441 12.1841 4.25652 12.0292 3.65258 12.1922L2.46101 12.5138C2.34335 12.5455 2.27247 12.4968 2.25024 12.4657C2.01422 12.1353 1.80699 11.784 1.63203 11.415C1.61598 11.3811 1.6081 11.2966 1.69506 11.212L2.57538 10.3566C3.01995 9.92454 3.18289 9.33924 3.14858 8.80895C3.14199 8.70691 3.13863 8.60389 3.13863 8.5C3.13863 8.39611 3.14199 8.29309 3.14858 8.19105C3.18289 7.66076 3.01995 7.07546 2.57538 6.64343L1.69506 5.78793C1.6081 5.70343 1.61598 5.61894 1.63203 5.58508C1.80699 5.21607 2.01422 4.86463 2.25025 4.5343C2.27247 4.5032 2.34335 4.4545 2.46101 4.48625L3.65258 4.80779C4.25652 4.97077 4.85441 4.81591 5.30449 4.52034C5.47743 4.40677 5.65811 4.30386 5.84556 4.21255C6.32965 3.97671 6.76452 3.54533 6.92289 2.94977L7.2352 1.77536C7.26612 1.65908 7.34458 1.62328 7.38293 1.62ZM8 0C7.74498 0 7.49235 0.0108853 7.24259 0.03224C6.44015 0.100846 5.85009 0.685357 5.66746 1.37209L5.35515 2.5465C5.33629 2.61746 5.26992 2.71443 5.1263 2.7844C4.87609 2.90629 4.63511 3.04355 4.40464 3.19491C4.27178 3.28215 4.15337 3.29029 4.08136 3.27085L2.88978 2.9493C2.19488 2.76178 1.38663 2.97106 0.924405 3.61797C0.634093 4.02429 0.37894 4.4569 0.163387 4.91153C-0.176877 5.62921 0.0433167 6.42329 0.556094 6.92161L1.43642 7.77711C1.48951 7.8287 1.54151 7.93344 1.53139 8.08986C1.52262 8.22557 1.51817 8.36233 1.51817 8.5C1.51817 8.63767 1.52262 8.77443 1.53139 8.91014C1.54151 9.06656 1.48951 9.1713 1.43642 9.22289L0.556094 10.0784C0.0433156 10.5767 -0.176877 11.3708 0.163387 12.0885C0.378939 12.5431 0.634093 12.9757 0.924405 13.382C1.38663 14.0289 2.19488 14.2382 2.88978 14.0507L4.08136 13.7292C4.15337 13.7098 4.27179 13.7178 4.40464 13.8051C4.63511 13.9565 4.87609 14.0937 5.1263 14.2156C5.26992 14.2855 5.33629 14.3825 5.35515 14.4535L5.66746 15.6279C5.85009 16.3147 6.44015 16.8992 7.24259 16.9678C7.49235 16.9892 7.74498 17 8 17C8.25502 17 8.50765 16.9892 8.75741 16.9678C9.55984 16.8992 10.1499 16.3147 10.3325 15.6279L10.6448 14.4535C10.6637 14.3825 10.7301 14.2856 10.8737 14.2156C11.1239 14.0937 11.365 13.9565 11.5954 13.8051C11.7283 13.7178 11.8467 13.7098 11.9187 13.7292L13.1102 14.0507C13.8052 14.2382 14.6133 14.0289 15.0756 13.3821C15.3659 12.9757 15.6211 12.5431 15.8366 12.0885C16.1769 11.3708 15.9567 10.5767 15.4439 10.0784L14.5637 9.22295C14.5105 9.17136 14.4585 9.06661 14.4687 8.91019C14.4774 8.77446 14.4819 8.63769 14.4819 8.5C14.4819 8.36231 14.4774 8.22554 14.4687 8.08981C14.4585 7.93339 14.5105 7.82864 14.5637 7.77705L15.4439 6.9216C15.9567 6.42328 16.1769 5.6292 15.8366 4.91152C15.6211 4.45689 15.3659 4.02428 15.0756 3.61797C14.6133 2.97105 13.8052 2.76178 13.1102 2.9493L11.9187 3.27083C11.8467 3.29026 11.7283 3.28214 11.5954 3.19489C11.365 3.04353 11.1239 2.90626 10.8737 2.78436C10.7301 2.7144 10.6637 2.61743 10.6448 2.54646L10.3325 1.37209C10.1499 0.685355 9.55984 0.100845 8.75741 0.032239C8.50765 0.010885 8.25502 0 8 0ZM9.62047 8.5C9.62047 9.38021 8.89497 10.0938 8 10.0938C7.10504 10.0938 6.37954 9.38021 6.37954 8.5C6.37954 7.61979 7.10504 6.90625 8 6.90625C8.89497 6.90625 9.62047 7.61979 9.62047 8.5ZM11.2409 8.5C11.2409 10.2604 9.78992 11.6875 8 11.6875C6.21009 11.6875 4.75907 10.2604 4.75907 8.5C4.75907 6.7396 6.21009 5.3125 8 5.3125C9.78992 5.3125 11.2409 6.7396 11.2409 8.5Z" fill="#00e28e"/>
</svg>
