<svg width="109" height="29" viewBox="0 0 109 29" fill="none" xmlns="http://www.w3.org/2000/svg">
<mask id="mask0" mask-type="alpha" maskUnits="userSpaceOnUse" x="49" y="0" width="60" height="29">
<path fill-rule="evenodd" clip-rule="evenodd" d="M51.3869 0H106.223C107.424 0.195946 108.34 1.22933 108.34 2.47493V25.8864C108.34 27.2719 107.207 28.3948 105.809 28.3948H51.8014C50.4031 28.3948 49.2698 27.2719 49.2698 25.8864V2.47493C49.2698 1.22933 50.1858 0.195946 51.3869 0V0Z" fill="white"/>
</mask>
<g mask="url(#mask0)">
<path fill-rule="evenodd" clip-rule="evenodd" d="M49.2529 28.3948H108.391V0H49.2529V28.3948Z" fill="#FCCE26"/>
</g>
<mask id="mask1" mask-type="alpha" maskUnits="userSpaceOnUse" x="0" y="4" width="48" height="19">
<path fill-rule="evenodd" clip-rule="evenodd" d="M4.54482 20.8696H3.70095V22.5419H1.16936V20.8696H0.116211V6.66213H1.16936V4.98318H3.70095V6.66213H4.54482V4.98318H7.07642V6.75578C7.22663 6.77752 7.37684 6.8026 7.52873 6.8327C8.08484 6.93722 8.61901 7.13371 9.10845 7.41465C9.58101 7.6889 9.96582 8.06014 10.2629 8.52837C10.5599 8.9966 10.7084 9.59193 10.7084 10.3143C10.7084 11.1036 10.4924 11.7558 10.0603 12.2709C9.62827 12.7859 9.06119 13.1572 8.3591 13.3846V13.4247C8.76415 13.4916 9.14558 13.6154 9.50338 13.796C9.85274 13.9707 10.1683 14.2049 10.435 14.4883C10.6983 14.7692 10.9076 15.097 11.0628 15.4716C11.2181 15.8462 11.2958 16.2676 11.2958 16.7358C11.2958 17.5117 11.1405 18.1639 10.8299 18.6924C10.5295 19.2108 10.1051 19.648 9.59452 19.9666C9.05613 20.2977 8.46289 20.5318 7.84265 20.6589C7.58949 20.7133 7.33464 20.7568 7.07642 20.7902V22.5419H4.54482V20.8696ZM7.36679 10.7759C7.36679 10.2943 7.18114 9.9431 6.80984 9.72237C6.43853 9.50163 5.88833 9.39127 5.15923 9.39127H3.458V12.321H5.32125C5.96934 12.321 6.47229 12.1906 6.83009 11.9297C7.18789 11.6688 7.36679 11.2842 7.36679 10.7759ZM7.8326 16.4147C7.8326 15.8261 7.60982 15.4181 7.16426 15.1906C6.7187 14.9632 6.12462 14.8495 5.38201 14.8495H3.458V18.1004H5.40227C5.6723 18.1004 5.95247 18.077 6.24276 18.0302C6.53305 17.9834 6.79633 17.8998 7.03262 17.7793C7.2689 17.6589 7.4613 17.4884 7.60982 17.2676C7.75834 17.0469 7.8326 16.7626 7.8326 16.4147ZM13.5844 20.8695V6.66233H23.2247V9.57199H16.9261V12.2409H22.8804V14.99H16.9261V17.9398H23.5892V20.8695H13.5844ZM33.4524 10.3544C33.1418 9.96899 32.7418 9.66297 32.2878 9.46146C31.8085 9.24073 31.3461 9.13036 30.9005 9.13036C30.671 9.13036 30.4381 9.15043 30.2018 9.19056C29.9655 9.23069 29.7529 9.30762 29.5638 9.42133C29.3757 9.5342 29.2136 9.68471 29.0879 9.8628C28.9596 10.0434 28.8955 10.2742 28.8955 10.5551C28.8955 10.7959 28.9461 10.9966 29.0474 11.1571C29.1487 11.3176 29.2972 11.4581 29.493 11.5785C29.6887 11.6989 29.9216 11.8093 30.1917 11.9096C30.4617 12.01 30.7655 12.1136 31.1031 12.2207C31.5891 12.3812 32.0954 12.5584 32.622 12.7524C33.1486 12.9464 33.6279 13.2039 34.06 13.525C34.492 13.8461 34.8498 14.2441 35.1334 14.719C35.4169 15.1939 35.5587 15.7859 35.5587 16.4949C35.5587 17.311 35.4068 18.0166 35.103 18.612C34.8135 19.1897 34.3941 19.6947 33.8777 20.0869C33.3503 20.4815 32.7528 20.7742 32.1157 20.9497C31.4507 21.1379 30.7621 21.2324 30.0702 21.2307C29.0533 21.2324 28.0449 21.0526 27.093 20.6989C26.1344 20.3444 25.3378 19.8394 24.7032 19.1839L26.9715 16.8962C27.3225 17.3243 27.785 17.6822 28.3588 17.9698C28.9326 18.2574 29.5031 18.4013 30.0702 18.4013C30.3267 18.4013 30.5765 18.3745 30.8195 18.321C31.0625 18.2675 31.2752 18.1805 31.4575 18.0601C31.6398 17.9397 31.7849 17.7792 31.8929 17.5785C32.0009 17.3778 32.0549 17.137 32.0549 16.8561C32.0549 16.5885 31.9874 16.3611 31.8524 16.1738C31.6963 15.9673 31.4997 15.7934 31.2752 15.6621C30.9815 15.4882 30.6685 15.3469 30.3436 15.2407C29.9723 15.1136 29.5503 14.9765 29.0778 14.8294C28.6187 14.6822 28.1689 14.5083 27.731 14.3076C27.3006 14.1128 26.9048 13.8519 26.5563 13.535C26.2061 13.2123 25.9234 12.8235 25.7259 12.3912C25.5167 11.9431 25.412 11.3979 25.412 10.7558C25.412 9.96648 25.574 9.29089 25.8981 8.72902C26.212 8.17802 26.6483 7.70477 27.174 7.34441C27.7158 6.97651 28.3191 6.70812 28.9563 6.55177C29.6178 6.38454 30.2862 6.30093 30.9613 6.30093C31.7714 6.30093 32.5984 6.44809 33.4422 6.7424C34.2633 7.02334 35.0177 7.46732 35.6599 8.04675L33.4524 10.3544ZM43.7206 9.59206V20.8695H40.2573V9.59206H36.2068V6.66233H47.7711V9.59206H43.7206Z" fill="white"/>
</mask>
<g mask="url(#mask1)">
<path fill-rule="evenodd" clip-rule="evenodd" d="M0.0385742 22.5752H47.8352V4.91638H0.0385742V22.5752Z" fill="black"/>
</g>
<mask id="mask2" mask-type="alpha" maskUnits="userSpaceOnUse" x="55" y="6" width="50" height="15">
<path fill-rule="evenodd" clip-rule="evenodd" d="M66.9487 20.811L72.9385 6.66232H76.3005L82.2548 20.8695H78.4067L77.2928 18.0803H71.7436L70.6904 20.8695H62.9336L59.8349 15.2308H58.6603V20.8695H55.2578V6.66232H60.7261C61.4147 6.66232 62.0864 6.73256 62.7412 6.87302C63.3674 7.00178 63.9648 7.24342 64.5032 7.58539C65.023 7.91983 65.4382 8.3613 65.7488 8.90979C66.0593 9.45828 66.2146 10.1405 66.2146 10.9566C66.2146 11.9198 65.9513 12.7291 65.4247 13.3847C64.8981 14.0402 64.169 14.5084 63.2374 14.7893L66.9479 20.811H66.9487ZM62.7919 11.0168C62.7919 10.6823 62.721 10.4114 62.5792 10.204C62.4417 10 62.2527 9.83446 62.0324 9.72241C61.797 9.60451 61.5438 9.52675 61.2831 9.49163C61.0181 9.45233 60.7506 9.43226 60.4831 9.43142H58.6401V12.7427H60.2806C60.5641 12.7427 60.8544 12.7193 61.1514 12.6724C61.4485 12.6256 61.7185 12.542 61.9615 12.4216C62.2046 12.3012 62.4037 12.1272 62.559 11.8998C62.7143 11.6724 62.7919 11.378 62.7919 11.0168ZM74.5588 10.4548L72.7361 15.3311H76.3411L74.5588 10.4548ZM88.3713 9.59206V20.8695H84.908V9.59206H80.8575V6.66233H92.4218V9.59206H88.3713ZM94.0015 20.8695V6.66233H103.642V9.57199H97.3432V12.2409H103.298V14.99H97.3432V17.9398H104.006V20.8695H94.0015Z" fill="white"/>
</mask>
<g mask="url(#mask2)">
<path fill-rule="evenodd" clip-rule="evenodd" d="M55.2273 20.8696H104.037V6.62216H55.2273V20.8696Z" fill="#0A1834"/>
</g>
</svg>
