<?xml version="1.0" encoding="UTF-8"?>
<svg width="172px" height="40px" viewBox="0 0 172 40" version="1.1" xmlns="http://www.w3.org/2000/svg" xmlns:xlink="http://www.w3.org/1999/xlink">
    <defs></defs>
    <g id="Symbols" stroke="none" stroke-width="1" fill="none" fill-rule="evenodd">
        <g id="Logo2018/new-logo-light">
            <g id="Page-1" transform="translate(6.000000, 0.000000)">
                <path d="M42.0809779,20.1780706 C42.0809779,16.0928941 45.2640166,12.6232471 49.480674,12.6232471 C52.2166409,12.6232471 53.9199282,13.7705412 55.2602044,15.1973647 L53.892221,16.6528941 C52.7473039,15.4491294 51.4070276,14.5263059 49.4524972,14.5263059 C46.5207017,14.5263059 44.2867514,17.0161882 44.2867514,20.1780706 C44.2867514,23.3117176 46.576116,25.8020706 49.5919724,25.8020706 C51.4347348,25.8020706 52.8031878,24.8510118 53.948105,23.6194824 L55.3719724,24.9343059 C53.9199282,26.5578353 52.1889337,27.7328941 49.480674,27.7328941 C45.2640166,27.7328941 42.0809779,24.2910118 42.0809779,20.1780706" id="Fill-1" fill="#FFFFFF"></path>
                <path d="M57.7853149,8.03284706 L59.9352044,6.97167059 L59.9352044,15.4493176 C60.8847624,13.8827294 62.3926906,12.6234353 64.877884,12.6234353 C68.3675801,12.6234353 70.4061713,14.9740235 70.4061713,18.4154353 L70.4061713,27.3970824 L68.2562818,27.3970824 L68.2562818,18.9467294 C68.2562818,16.2606118 66.8042376,14.5820235 64.2631602,14.5820235 C61.7779669,14.5820235 59.9352044,16.4008471 59.9352044,19.1152 L59.9352044,27.3970824 L57.7853149,27.3970824 L57.7853149,8.03284706 Z" id="Fill-3" fill="#FFFFFF"></path>
                <path d="M83.5358536,22.0811294 L83.5358536,20.7380706 C82.4745276,20.4298353 81.0783674,20.1220706 79.3191961,20.1220706 C76.6386436,20.1220706 75.1030083,21.2976 75.1030083,23.0886588 C75.1030083,24.9070118 76.7785884,25.9705412 78.7331188,25.9705412 C81.3854945,25.9705412 83.5358536,24.3752471 83.5358536,22.0811294 M72.9254116,23.1441882 C72.9254116,20.0383059 75.4383122,18.4157176 79.0956602,18.4157176 C80.9388923,18.4157176 82.2232845,18.6670118 83.5076768,19.0312471 L83.5076768,18.5832471 C83.5076768,16.0091294 81.9443343,14.6660706 79.235605,14.6660706 C77.5323177,14.6660706 76.1920414,15.0858353 74.8517652,15.7008941 L74.2098039,13.9385412 C75.8013232,13.2105412 77.3369586,12.7070118 79.4591409,12.7070118 C81.4972624,12.7070118 83.0887818,13.2670118 84.1224006,14.3023059 C85.1273729,15.3093647 85.6298591,16.7088941 85.6298591,18.5554824 L85.6298591,27.3973647 L83.5076768,27.3973647 L83.5076768,25.2425412 C82.5027044,26.5296 80.8553011,27.7051294 78.3142238,27.7051294 C75.6059641,27.7051294 72.9254116,26.1663059 72.9254116,23.1441882" id="Fill-5" fill="#FFFFFF"></path>
                <path d="M89.2635856,12.9312941 L91.4134751,12.9312941 L91.4134751,15.4494118 C92.3630331,13.8823529 93.8709613,12.6235294 96.3561547,12.6235294 C99.8458508,12.6235294 101.884442,14.9741176 101.884442,18.4155294 L101.884442,27.3971765 L99.7345525,27.3971765 L99.7345525,18.9468235 C99.7345525,16.2607059 98.2825083,14.5821176 95.7414309,14.5821176 C93.2562376,14.5821176 91.4134751,16.4009412 91.4134751,19.1152941 L91.4134751,27.3971765 L89.2635856,27.3971765 L89.2635856,12.9312941 Z" id="Fill-7" fill="#FFFFFF"></path>
                <path d="M117.088876,19.4225882 C117.088876,16.4564706 114.519622,14.5265882 111.783185,14.5265882 C109.046749,14.5265882 106.785091,16.4291765 106.785091,19.4508235 C106.785091,22.3604706 109.102633,24.3750588 111.783185,24.3750588 C114.519622,24.3750588 117.088876,22.3891765 117.088876,19.4225882 M105.249456,29.9152941 L106.226721,28.2362353 C107.874124,29.4395294 109.716887,30.0832941 111.783185,30.0832941 C114.966224,30.0832941 117.032992,28.3204706 117.032992,24.9345882 L117.032992,23.2282353 C115.776307,24.9068235 114.016666,26.2781176 111.36476,26.2781176 C107.902301,26.2781176 104.579318,23.6757647 104.579318,19.4508235 C104.579318,15.2258824 107.930008,12.6235294 111.36476,12.6235294 C114.073019,12.6235294 115.832191,13.9665882 117.004815,15.5336471 L117.004815,12.9312941 L119.154704,12.9312941 L119.154704,24.8790588 C119.154704,27.1176471 118.484566,28.8244706 117.311942,29.9995294 C116.02755,31.2865882 114.101196,31.9298824 111.811362,31.9298824 C109.40976,31.9298824 107.175809,31.2583529 105.249456,29.9152941" id="Fill-9" fill="#FFFFFF"></path>
                <path d="M133.585403,19.3109176 C133.33416,16.6803294 131.826232,14.4417412 128.978028,14.4417412 C126.492834,14.4417412 124.594657,16.5128 124.28753,19.3109176 L133.585403,19.3109176 Z M129.368746,25.8582118 C131.351453,25.8582118 132.747613,25.0464471 133.920707,23.8153882 L135.260983,25.0191529 C133.808939,26.6417412 132.049298,27.7325647 129.313331,27.7325647 C125.347917,27.7325647 122.109464,24.6831529 122.109464,20.1782118 C122.109464,15.9810353 125.04126,12.6233882 129.034381,12.6233882 C133.306453,12.6233882 135.763939,16.0370353 135.763939,20.2902118 C135.763939,20.4859765 135.763939,20.7099765 135.735762,21.0459765 L124.28753,21.0459765 C124.594657,24.0953882 126.828608,25.8582118 129.368746,25.8582118 Z" id="Fill-11" fill="#FFFFFF"></path>
                <polygon id="Fill-13" fill="#FFFFFF" points="138.763312 8.96578824 140.913202 7.90414118 140.913202 27.3973176 138.763312 27.3973176"></polygon>
                <polygon id="Fill-15" fill="#FFFFFF" points="144.844898 8.03284706 146.994787 6.97167059 146.994787 27.3970824 144.844898 27.3970824"></polygon>
                <path d="M149.845528,31.2304941 L150.57108,29.5236706 C151.269395,29.8874353 151.911356,30.0554353 152.832738,30.0554353 C154.11713,30.0554353 154.927213,29.3839059 155.79318,27.3410824 L149.230804,12.9312 L151.604699,12.9312 L156.853566,24.9904941 L161.489119,12.9312 L163.778483,12.9312 L157.719533,27.8723765 C156.491025,30.8667294 155.094865,31.9580235 152.917268,31.9580235 C151.715997,31.9580235 150.822793,31.7062588 149.845528,31.2304941" id="Fill-17" fill="#FFFFFF"></path>
                <g id="Group-21" transform="translate(0.574586, 0.203341)"></g>
            </g>
            <path d="M20.2697293,33.5801882 C19.9452265,33.8846588 19.6080442,34.1736 19.2520773,34.4361882 C18.5514144,34.9745412 17.8000331,35.4347765 17.0270497,35.8413647 C16.2512486,36.2446588 15.4477403,36.5858353 14.6263867,36.8705412 C13.8059724,37.1571294 12.9672431,37.3881882 12.1153646,37.5608941 C11.6931823,37.6583059 11.2611381,37.7204235 10.8347293,37.7976 L10.1880718,37.8818353 L9.86544751,37.9241882 L9.54047514,37.9552471 L8.891,38.0173647 L8.23823757,38.0521882 C7.80478453,38.0856 7.36757459,38.0832471 6.93224309,38.0954824 C5.65677348,38.1086588 4.37801657,38.0446588 3.10160773,37.9204235 C3.25047514,37.7100706 3.39699448,37.4983059 3.53834807,37.2813647 C3.94738122,36.6465412 4.31414917,35.9806588 4.63630387,35.3001882 C5.27216022,33.9331294 5.73285083,32.5270118 6.12826519,31.1227765 C6.50818232,29.7397176 6.95102762,28.3943059 7.46854144,27.0545412 C7.99216022,25.7213647 8.56931492,24.4008941 9.24978453,23.1176 C8.77265746,23.6672471 8.34437017,24.2587765 7.93862431,24.8653647 C7.53006077,25.4710118 7.1520221,26.0978353 6.79652486,26.7383059 C6.0930442,28.0187765 5.47597238,29.3698353 4.97489503,30.7411294 C4.46630387,32.0813647 3.94080663,33.4027765 3.29039227,34.6263059 C2.64890055,35.8545412 1.85196685,36.9731294 0.946082873,38.0517176 L-0.000187845304,39.1778353 L1.4678232,39.3872471 C3.28053039,39.6465412 5.12141436,39.7830118 6.96652486,39.7157176 C7.42768508,39.6912471 7.88837569,39.6841882 8.3490663,39.6343059 L9.03892818,39.5688941 L9.7269116,39.4747765 C10.1861934,39.4230118 10.6403094,39.3190118 11.0953646,39.2380706 C11.546663,39.1288941 12.0017182,39.0413647 12.4455028,38.9039529 C12.8935138,38.7844235 13.3330718,38.6314824 13.7721602,38.4841882 C14.2060829,38.3180706 14.6385967,38.1510118 15.0603094,37.9561882 C15.904674,37.5717176 16.7189834,37.1208941 17.4811657,36.5961882 C18.2424088,36.0719529 18.9571602,35.4804235 19.5897293,34.8131294 C20.2157238,34.1439529 20.7924088,33.4183059 21.1878232,32.6004235 C20.9079337,32.9552471 20.5961105,33.2766588 20.2697293,33.5801882 M30.4058619,9.14498824 C30.9346464,8.61557647 31.6292044,8.35063529 32.3237624,8.35063529 C33.0183204,8.35063529 33.7128785,8.61557647 34.2421326,9.14498824 C35.299232,10.2052235 35.299232,11.9294588 34.2421326,12.9892235 C33.1845635,14.0489882 31.4634309,14.0489882 30.4058619,12.9892235 C29.8935138,12.4758118 29.6112762,11.7934588 29.6112762,11.0673412 C29.6112762,10.3412235 29.8935138,9.65887059 30.4058619,9.14498824 M32.3237624,15.4452235 C33.4433204,15.4452235 34.5624088,15.0179294 35.4147569,14.1642824 C37.1185138,12.4565176 37.1185138,9.67816471 35.4147569,7.9704 C33.711,6.26263529 30.9379337,6.26216471 29.2332376,7.9704 C28.4076575,8.79769412 27.9530718,9.89745882 27.9530718,11.0673412 C27.9530718,12.2367529 28.4076575,13.3369882 29.2332376,14.1642824 C30.085116,15.0179294 31.204674,15.4452235 32.3237624,15.4452235 M33.6007348,21.7167059 C27.3497127,27.2258824 24.7414807,27.7543529 22.1543812,26.5472941 L24.9781657,22.9722353 C25.3951823,22.4489412 25.6980829,21.8277647 25.8535249,21.1774118 L26.9928066,16.4094118 L22.2346851,17.5510588 C21.5852099,17.7068235 20.9657901,18.0103529 20.4468674,18.4258824 L16.8763978,21.2574118 C15.6713702,18.6658824 16.1987459,16.0517647 21.6965083,9.78729412 C26.8909006,3.86917647 37.8831381,2.51011765 41.1408453,2.23247059 C40.8633039,5.496 39.5070608,16.5110588 33.6007348,21.7167059 Z M29.4390221,30.2555294 C29.3854862,30.5209412 29.2333315,30.752 29.0102652,30.9054118 C28.3509282,31.3590588 27.3365635,31.9891765 26.4367845,32.5350588 C26.4513425,32.4785882 26.4663702,32.4221176 26.4809282,32.3651765 C26.9186077,30.6437647 26.9139116,29.3157647 26.4696575,28.4122353 C27.6540221,28.0512941 28.9341878,27.3882353 30.3848232,26.3962353 C30.0326133,27.7298824 29.627337,29.3218824 29.4390221,30.2555294 Z M19.5513149,27.1651765 C19.1789116,27.6367059 18.5994088,27.9002353 17.9992431,27.8687059 L17.9767017,27.8672941 L16.5561215,27.8701176 L21.4842431,21.9294118 L15.5553757,26.8672941 L15.558663,25.4663529 L15.5572541,25.4216471 C15.5262597,24.8211765 15.7883039,24.2390588 16.259326,23.8658824 L21.4786077,19.7265882 C21.8115635,19.4602353 22.2069779,19.2668235 22.6211768,19.1670588 L24.7508729,18.656 L24.2408729,20.7901176 C24.1413149,21.2051765 23.9483039,21.6009412 23.6801547,21.9383529 L19.5513149,27.1651765 Z M11.0700994,16.9223529 C11.0132762,16.9369412 10.956453,16.9515294 10.9005691,16.9665882 C11.4453204,16.0649412 12.073663,15.0484706 12.5268398,14.3882353 C12.6799337,14.1642353 12.9105138,14.0112941 13.1753757,13.9581176 C14.1070884,13.7694118 15.6953204,13.3632941 17.0262044,13.0108235 C16.0357901,14.4644706 15.3750442,15.7463529 15.0153204,16.9341176 C14.113663,16.4889412 12.788884,16.4842353 11.0700994,16.9223529 Z M42.0007072,0.506823529 C41.392558,0.531294118 27.0299061,1.19482353 20.4515635,8.69035294 C19.781895,9.45270588 19.1770331,10.1727059 18.6299337,10.8569412 C17.6766188,11.1185882 14.3278066,12.0296471 12.8475856,12.3289412 C12.1577238,12.4687059 11.5584972,12.8654118 11.1597956,13.4470588 C10.1524751,14.9167059 8.39330387,17.9369412 8.31863536,18.0644706 L7.04316575,20.256 L9.36587293,19.2447059 C10.8874199,18.5821176 13.4411768,17.9007059 14.3522265,18.4616471 C14.5015635,18.5534118 14.6579448,18.7058824 14.6833039,19.1350588 L14.688,19.1350588 C14.7058453,20.2155294 15.0007624,21.2503529 15.5455138,22.3129412 L15.2299337,22.5632941 C14.3451823,23.2649412 13.8492707,24.3552941 13.899989,25.4837647 L13.8920055,29.5374118 L17.9372541,29.5294118 C19.0671436,29.5825882 20.1514807,29.0828235 20.8521436,28.1967059 L21.1015083,27.8804706 C22.161895,28.4263529 23.1945746,28.7195294 24.2732762,28.7378824 L24.2728066,28.7444706 C24.7010939,28.7698824 24.8532486,28.9265882 24.9448232,29.0762353 C25.5046022,29.9891765 24.8246022,32.5482353 24.1633867,34.0729412 L23.1494917,36.4032941 L25.3411768,35.1223529 C25.4689116,35.048 28.4824199,33.2847059 29.9490221,32.2752941 C30.5289945,31.8757647 30.9253481,31.2752941 31.0648232,30.584 C31.3634972,29.1007059 32.2726685,25.7458824 32.5342431,24.7896471 C33.2170608,24.2418824 33.9346298,23.6352941 34.6958729,22.9642353 C42.1758729,16.3722353 42.8380276,1.98023529 42.8624475,1.37082353 L42.8986077,0.470588235 L42.0007072,0.506823529 Z" id="Fill-24" fill="#10D078"></path>
        </g>
    </g>
</svg>