<svg width="109" height="25" viewBox="0 0 109 25" fill="none" xmlns="http://www.w3.org/2000/svg">
<path fill-rule="evenodd" clip-rule="evenodd" d="M31.4397 12.5211C31.4397 9.92556 33.462 7.72113 36.1411 7.72113C37.8794 7.72113 38.9615 8.45006 39.8131 9.35659L38.9439 10.2814C38.2165 9.51654 37.365 8.93023 36.1232 8.93023C34.2605 8.93023 32.8411 10.5122 32.8411 12.5211C32.8411 14.512 34.2957 16.0942 36.2118 16.0942C37.3826 16.0942 38.252 15.49 38.9794 14.7075L39.8841 15.5429C38.9615 16.5744 37.8617 17.321 36.1411 17.321C33.462 17.321 31.4397 15.1342 31.4397 12.5211Z" fill="black"/>
<path fill-rule="evenodd" clip-rule="evenodd" d="M41.417 4.80462L42.7829 4.1304V9.51664C43.3862 8.52132 44.3443 7.72123 45.9232 7.72123C48.1404 7.72123 49.4356 9.21467 49.4356 11.4012V17.1076H48.0697V11.7387C48.0697 10.0321 47.1471 8.96561 45.5327 8.96561C43.9537 8.96561 42.7829 10.1212 42.7829 11.8457V17.1076H41.417V4.80462Z" fill="black"/>
<path fill-rule="evenodd" clip-rule="evenodd" d="M57.7777 13.7302V12.8769C57.1034 12.6811 56.2163 12.4855 55.0986 12.4855C53.3956 12.4855 52.4199 13.2324 52.4199 14.3704C52.4199 15.5256 53.4845 16.2013 54.7263 16.2013C56.4115 16.2013 57.7777 15.1878 57.7777 13.7302ZM51.0364 14.4056C51.0364 12.4323 52.6329 11.4014 54.9566 11.4014C56.1277 11.4014 56.9437 11.5611 57.7598 11.7925V11.5079C57.7598 9.8724 56.7665 9.01909 55.0455 9.01909C53.9634 9.01909 53.1118 9.28579 52.2603 9.67657L51.8524 8.55686C52.8636 8.09433 53.8392 7.77441 55.1876 7.77441C56.4825 7.77441 57.4936 8.13021 58.1503 8.78798C58.7888 9.42781 59.1081 10.317 59.1081 11.4902V17.1079H57.7598V15.7388C57.1213 16.5565 56.0746 17.3034 54.4601 17.3034C52.7395 17.3034 51.0364 16.3257 51.0364 14.4056Z" fill="black"/>
<path fill-rule="evenodd" clip-rule="evenodd" d="M61.4167 7.91685H62.7827V9.51673C63.386 8.5211 64.344 7.72131 65.923 7.72131C68.1401 7.72131 69.4354 9.21475 69.4354 11.4012V17.1077H68.0694V11.7388C68.0694 10.0322 67.1469 8.9657 65.5324 8.9657C63.9535 8.9657 62.7827 10.1213 62.7827 11.8458V17.1077H61.4167V7.91685Z" fill="black"/>
<path fill-rule="evenodd" clip-rule="evenodd" d="M79.0956 12.0411C79.0956 10.1566 77.4632 8.93041 75.7247 8.93041C73.9861 8.93041 72.5491 10.1392 72.5491 12.059C72.5491 13.9076 74.0216 15.1876 75.7247 15.1876C77.4632 15.1876 79.0956 13.9259 79.0956 12.0411ZM71.5735 18.7076L72.1944 17.6408C73.2411 18.4053 74.4118 18.8143 75.7247 18.8143C77.747 18.8143 79.0601 17.6943 79.0601 15.5431V14.459C78.2617 15.5255 77.1437 16.3967 75.4588 16.3967C73.259 16.3967 71.1477 14.7433 71.1477 12.059C71.1477 9.37471 73.2766 7.72131 75.4588 7.72131C77.1795 7.72131 78.2972 8.57462 79.0422 9.57025V7.91685H80.4081V15.5078C80.4081 16.9301 79.9824 18.0145 79.2373 18.7611C78.4213 19.5788 77.1974 19.9875 75.7426 19.9875C74.2167 19.9875 72.7974 19.5609 71.5735 18.7076Z" fill="black"/>
<path fill-rule="evenodd" clip-rule="evenodd" d="M89.5763 11.97C89.4167 10.2987 88.4587 8.87641 86.6491 8.87641C85.0701 8.87641 83.8641 10.1923 83.669 11.97H89.5763ZM86.8973 16.1298C88.157 16.1298 89.0441 15.6141 89.7894 14.8319L90.6409 15.5967C89.7184 16.6276 88.6004 17.3207 86.8621 17.3207C84.3427 17.3207 82.2852 15.3833 82.2852 12.5211C82.2852 9.8544 84.1479 7.72113 86.6849 7.72113C89.3991 7.72113 90.9605 9.88998 90.9605 12.5922C90.9605 12.7166 90.9605 12.8589 90.9426 13.0724H83.669C83.8641 15.0098 85.2834 16.1298 86.8973 16.1298Z" fill="black"/>
<path fill-rule="evenodd" clip-rule="evenodd" d="M92.866 5.39723L94.2319 4.72272V17.1076H92.866V5.39723Z" fill="black"/>
<path fill-rule="evenodd" clip-rule="evenodd" d="M96.73 4.80462L98.0959 4.1304V17.1076H96.73V4.80462Z" fill="black"/>
<path fill-rule="evenodd" clip-rule="evenodd" d="M99.9074 19.5432L100.368 18.4587C100.812 18.6899 101.22 18.7966 101.805 18.7966C102.621 18.7966 103.136 18.3699 103.686 17.072L99.5168 7.91678H101.025L104.36 15.5786L107.305 7.91678H108.76L104.91 17.4096C104.13 19.312 103.243 20.0054 101.859 20.0054C101.096 20.0054 100.528 19.8454 99.9074 19.5432Z" fill="black"/>
<path fill-rule="evenodd" clip-rule="evenodd" d="M13.77 21.0361C13.5638 21.2295 13.3496 21.4131 13.1235 21.5799C12.6783 21.922 12.2009 22.2144 11.7098 22.4727C11.2169 22.7289 10.7064 22.9457 10.1845 23.1266C9.66329 23.3087 9.13041 23.4555 8.58917 23.5652C8.32094 23.6271 8.04644 23.6665 7.77552 23.7156L7.36467 23.7691L7.15969 23.796L6.95322 23.8157L6.54058 23.8552L6.12585 23.8773C5.85046 23.8986 5.57268 23.8971 5.29609 23.9048C4.48573 23.9132 3.67328 23.8725 2.86232 23.7936C2.9569 23.66 3.04999 23.5254 3.1398 23.3876C3.39967 22.9843 3.6327 22.5612 3.83738 22.1289C4.24137 21.2603 4.53407 20.3669 4.78529 19.4747C5.02667 18.596 5.30803 17.7412 5.63683 16.89C5.96951 16.043 6.3362 15.204 6.76854 14.3887C6.46539 14.7379 6.19328 15.1137 5.93549 15.4991C5.67592 15.8839 5.43573 16.2822 5.20987 16.6891C4.76291 17.5026 4.37086 18.361 4.0525 19.2323C3.72937 20.0838 3.3955 20.9233 2.98226 21.7007C2.57469 22.4811 2.06836 23.1917 1.49281 23.877L0.891602 24.5925L1.8243 24.7255C2.97599 24.8903 4.14559 24.977 5.31788 24.9342C5.61087 24.9187 5.90357 24.9142 6.19627 24.8825L6.63457 24.841L7.07168 24.7812C7.36348 24.7483 7.652 24.6822 7.94112 24.6308C8.22785 24.5614 8.51697 24.5058 8.79892 24.4185C9.08356 24.3425 9.36284 24.2454 9.64181 24.1518C9.9175 24.0463 10.1923 23.9401 10.4602 23.8163C10.9967 23.5721 11.5141 23.2856 11.9983 22.9523C12.482 22.6192 12.9361 22.2434 13.338 21.8194C13.7357 21.3942 14.1021 20.9332 14.3533 20.4136C14.1755 20.639 13.9774 20.8432 13.77 21.0361ZM20.21 5.51125C20.5459 5.17489 20.9872 5.00656 21.4285 5.00656C21.8698 5.00656 22.3111 5.17489 22.6473 5.51125C23.319 6.18486 23.319 7.28035 22.6473 7.95367C21.9754 8.62698 20.8819 8.62698 20.21 7.95367C19.8844 7.62747 19.7051 7.19394 19.7051 6.73261C19.7051 6.27127 19.8844 5.83774 20.21 5.51125ZM21.4285 9.51408C22.1398 9.51408 22.8508 9.2426 23.3923 8.70024C24.4748 7.61521 24.4748 5.85 23.3923 4.76498C22.3099 3.67995 20.548 3.67966 19.4649 4.76498C18.9404 5.29059 18.6516 5.98933 18.6516 6.73261C18.6516 7.47559 18.9404 8.17462 19.4649 8.70024C20.0062 9.2426 20.7175 9.51408 21.4285 9.51408ZM22.2398 13.4986C18.2683 16.9989 16.6111 17.3346 14.9674 16.5677L16.7615 14.2963C17.0265 13.9639 17.2189 13.5692 17.3177 13.156L18.0415 10.1267L15.0184 10.852C14.6058 10.951 14.2123 11.1438 13.8826 11.4078L11.6141 13.2068C10.8485 11.5603 11.1835 9.89944 14.6765 5.91933C17.9767 2.15928 24.9606 1.29581 27.0304 1.11941C26.8541 3.19288 25.9924 10.1912 22.2398 13.4986ZM19.5957 18.9237C19.5617 19.0924 19.465 19.2392 19.3233 19.3366C18.9044 19.6249 18.2599 20.0252 17.6882 20.372C17.6975 20.3362 17.707 20.3003 17.7163 20.2641C17.9944 19.1704 17.9914 18.3267 17.7091 17.7526C18.4616 17.5233 19.2749 17.102 20.1966 16.4718C19.9728 17.3191 19.7153 18.3306 19.5957 18.9237ZM13.3136 16.9603C13.077 17.2599 12.7088 17.4273 12.3275 17.4073L12.3131 17.4064L11.4106 17.4082L14.5417 13.6338L10.7748 16.771L10.7769 15.881L10.776 15.8526C10.7563 15.4711 10.9228 15.1012 11.222 14.8641L14.5381 12.2342C14.7496 12.065 15.0008 11.9421 15.264 11.8787L16.6171 11.554L16.2931 12.9099C16.2298 13.1736 16.1072 13.4251 15.9368 13.6395L13.3136 16.9603ZM7.92507 10.4526C7.88896 10.4618 7.85286 10.4711 7.81736 10.4807C8.16346 9.90781 8.56268 9.262 8.8506 8.84252C8.94787 8.7002 9.09437 8.60303 9.26264 8.56925C9.8546 8.44936 10.8637 8.19133 11.7093 7.96739C11.08 8.89096 10.6602 9.7054 10.4316 10.46C9.85878 10.1772 9.01709 10.1742 7.92507 10.4526ZM27.5767 0.023022C27.1903 0.0385693 18.0651 0.46014 13.8855 5.2224C13.4601 5.70675 13.0758 6.1642 12.7282 6.59893C12.1225 6.76517 9.99484 7.344 9.05438 7.53416C8.61608 7.62296 8.23537 7.875 7.98205 8.24455C7.34206 9.17828 6.22437 11.0972 6.17693 11.1782L5.36657 12.5706L6.84229 11.9281C7.809 11.5071 9.43152 11.0742 10.0104 11.4305C10.1052 11.4889 10.2046 11.5857 10.2207 11.8584H10.2237C10.235 12.5449 10.4224 13.2023 10.7685 13.8775L10.568 14.0365C10.0059 14.4823 9.6908 15.1751 9.72303 15.892L9.71795 18.4675L12.2881 18.4624C13.006 18.4962 13.6949 18.1787 14.14 17.6157L14.2985 17.4148C14.9722 17.7616 15.6283 17.9479 16.3137 17.9595L16.3134 17.9637C16.5855 17.9798 16.6821 18.0794 16.7403 18.1745C17.096 18.7545 16.6639 20.3804 16.2438 21.3491L15.5997 22.8297L16.9921 22.0159C17.0733 21.9686 18.9879 20.8483 19.9197 20.207C20.2882 19.9532 20.54 19.5716 20.6286 19.1324C20.8184 18.19 21.396 16.0586 21.5622 15.451C21.9961 15.103 22.452 14.7176 22.9356 14.2913C27.688 10.103 28.1087 0.959148 28.1242 0.571961L28.1472 0L27.5767 0.023022Z" fill="#10D078"/>
</svg>
