<?xml version="1.0" encoding="UTF-8" standalone="no"?>
<!-- Created with Inkscape (http://www.inkscape.org/) -->

<svg
   xmlns:dc="http://purl.org/dc/elements/1.1/"
   xmlns:cc="http://creativecommons.org/ns#"
   xmlns:rdf="http://www.w3.org/1999/02/22-rdf-syntax-ns#"
   xmlns:svg="http://www.w3.org/2000/svg"
   xmlns="http://www.w3.org/2000/svg"
   xmlns:sodipodi="http://sodipodi.sourceforge.net/DTD/sodipodi-0.dtd"
   xmlns:inkscape="http://www.inkscape.org/namespaces/inkscape"
   width="620px"
   height="120px"
   viewBox="0 0 620 120"
   version="1.1"
   id="SVGRoot"
   inkscape:version="0.92.4 (unknown)"
   sodipodi:docname="daps-logo.svg">
  <defs
     id="defs899" />
  <sodipodi:namedview
     id="base"
     pagecolor="#ffffff"
     bordercolor="#666666"
     borderopacity="1.0"
     inkscape:pageopacity="0.0"
     inkscape:pageshadow="2"
     inkscape:zoom="0.82580645"
     inkscape:cx="310"
     inkscape:cy="60"
     inkscape:document-units="px"
     inkscape:current-layer="layer1"
     showgrid="false"
     inkscape:window-width="1920"
     inkscape:window-height="1025"
     inkscape:window-x="0"
     inkscape:window-y="27"
     inkscape:window-maximized="1" />
  <metadata
     id="metadata902">
    <rdf:RDF>
      <cc:Work
         rdf:about="">
        <dc:format>image/svg+xml</dc:format>
        <dc:type
           rdf:resource="http://purl.org/dc/dcmitype/StillImage" />
        <dc:title></dc:title>
      </cc:Work>
    </rdf:RDF>
  </metadata>
  <g
     inkscape:label="Layer 1"
     inkscape:groupmode="layer"
     id="layer1">
    <g
       transform="matrix(0.03779528,0,0,0.03779528,-90.233122,-499.38491)"
       style="clip-rule:evenodd;fill-rule:evenodd;image-rendering:optimizeQuality;shape-rendering:geometricPrecision;text-rendering:geometricPrecision;fill:#ffffff;fill-opacity:1"
       id="Слой_x0020_1">
      <metadata
         id="CorelCorpID_0Corel-Layer" />
      <path
         inkscape:connector-curvature="0"
         class="fil0"
         d="m 6280,15519 v -1351 l 30,-20 h 1311 c 18,0 41,9 67,28 26,19 50,42 73,68 23,27 43,56 59,87 16,31 23,58 23,81 v 874 c 0,24 -7,52 -23,83 -16,31 -36,60 -59,87 -23,26 -47,49 -73,68 -26,19 -49,28 -67,28 H 6310 Z m 350,-272 h 777 c 14,0 27,-4 37,-11 11,-7 20,-15 27,-25 8,-9 13,-19 18,-30 4,-11 6,-21 6,-29 v -615 c 0,-18 -10,-37 -29,-57 -19,-19 -39,-29 -57,-29 h -779 z"
         id="path7"
         style="fill:#ffffff;fill-opacity:1" />
      <path
         inkscape:connector-curvature="0"
         id="1"
         class="fil0"
         d="m 7973,15511 9,-39 701,-1324 h 313 l 695,1302 c 5,10 9,18 11,24 1,6 2,12 2,20 v 30 c 0,7 -1,14 -4,19 -2,6 -7,9 -16,9 h -344 l -493,-976 -11,-2 -331,630 v 26 c 0,11 5,17 13,17 h 543 l 22,28 v 255 l -22,22 H 7993 c -6,0 -11,-5 -14,-15 -4,-10 -6,-19 -6,-26 z"
         style="fill:#ffffff;fill-opacity:1" />
      <path
         inkscape:connector-curvature="0"
         id="2"
         class="fil0"
         d="m 10967,14745 v -294 h -733 v 1079 l -31,22 h -289 l -29,-22 v -1352 l 29,-30 h 1245 c 19,0 38,7 57,21 18,13 35,30 51,50 15,21 27,43 36,66 10,24 14,46 14,64 v 498 c 0,20 -4,42 -14,65 -9,23 -21,44 -36,65 -16,20 -33,37 -51,50 -19,14 -38,21 -57,21 h -815 l -22,-24 v -255 l 22,-24 z"
         style="fill:#ffffff;fill-opacity:1" />
      <path
         inkscape:connector-curvature="0"
         id="3"
         class="fil0"
         d="m 11531,14801 v -452 c 0,-18 5,-40 15,-64 9,-23 21,-45 35,-66 15,-20 31,-37 50,-50 19,-14 38,-21 58,-21 h 1197 l 19,28 v 245 l -22,30 h -1003 v 247 h 867 c 19,0 38,6 56,20 19,14 36,31 51,51 15,20 28,42 37,66 9,24 14,45 14,64 v 452 c 0,20 -5,42 -14,65 -9,23 -22,44 -37,65 -15,20 -32,37 -51,50 -18,14 -37,21 -56,21 h -1198 l -18,-30 v -245 l 20,-30 h 1006 v -244 h -868 c -20,0 -39,-7 -58,-21 -19,-14 -35,-31 -50,-52 -14,-21 -26,-43 -35,-66 -10,-23 -15,-44 -15,-63 z"
         style="fill:#ffffff;fill-opacity:1" />
      <path
         inkscape:connector-curvature="0"
         id="4"
         class="fil0"
         d="m 13470,14451 v 796 h 677 v -89 l 30,-32 h 298 l 20,30 v 195 c 0,20 -5,42 -14,65 -10,23 -22,44 -37,65 -15,20 -32,37 -51,50 -19,14 -37,21 -56,21 h -1058 c -20,0 -39,-7 -58,-21 -19,-13 -35,-30 -50,-50 -14,-21 -26,-42 -36,-65 -9,-23 -14,-45 -14,-65 v -1002 c 0,-18 5,-40 14,-64 10,-23 22,-45 36,-66 15,-20 31,-37 50,-50 19,-14 38,-21 58,-21 h 1058 c 19,0 37,7 56,21 19,13 36,30 51,50 15,21 27,43 37,66 9,24 14,46 14,64 v 195 l -20,30 h -298 l -30,-32 v -91 z"
         style="fill:#ffffff;fill-opacity:1" />
      <path
         inkscape:connector-curvature="0"
         id="5"
         class="fil0"
         d="m 14869,15552 c -20,0 -40,-7 -58,-21 -19,-13 -36,-30 -50,-50 -14,-21 -26,-42 -36,-65 -9,-23 -14,-45 -14,-65 v -1002 c 0,-18 5,-40 14,-64 10,-23 22,-45 36,-66 14,-20 31,-37 50,-50 18,-14 38,-21 58,-21 h 1246 c 19,0 38,7 57,21 20,13 37,30 51,50 15,21 26,43 36,66 9,24 14,46 14,64 v 1002 c 0,20 -5,42 -14,65 -10,23 -21,44 -36,65 -14,20 -31,37 -51,50 -19,14 -38,21 -57,21 z m 1056,-1101 h -866 v 796 h 866 z"
         style="fill:#ffffff;fill-opacity:1" />
      <polygon
         id="6"
         class="fil0"
         points="16837,15522 16818,15552 16517,15552 16489,15519 16489,14168 16517,14148 16807,14148 16837,14168 "
         style="fill:#ffffff;fill-opacity:1" />
      <polygon
         id="7"
         class="fil0"
         points="18548,14148 18259,14148 18228,14168 18228,15026 17406,14163 17370,14148 17080,14148 17052,14168 17052,15519 17080,15552 17380,15552 17400,15522 17400,14667 18220,15519 18259,15552 18557,15552 18577,15522 18577,14168 "
         style="fill:#ffffff;fill-opacity:1" />
      <path
         inkscape:connector-curvature="0"
         class="fil1"
         d="m 3989,16120 c -701,0 -1269,-569 -1269,-1270 0,-701 568,-1270 1269,-1270 702,0 1270,569 1270,1270 0,701 -568,1270 -1270,1270 z m -600,-927 c 40,48 103,72 191,72 h 199 c 81,0 138,-19 173,-57 34,-38 51,-101 51,-187 v -371 h -423 c -88,0 -151,24 -191,72 -40,49 -60,127 -60,236 0,109 20,188 60,235 z m -539,-343 c 0,629 510,1139 1139,1139 629,0 1139,-510 1139,-1139 0,-629 -510,-1139 -1139,-1139 -629,0 -1139,510 -1139,1139 z m 988,611 h -277 c -135,0 -240,-42 -318,-124 -78,-82 -117,-209 -117,-379 0,-170 39,-296 117,-378 78,-83 183,-124 318,-124 h 442 v -436 h 203 v 440 h 147 v 191 h -147 v 155 h 149 v 234 h -149 c -1,64 -7,121 -21,170 h 52 v 87 h -85 c -11,21 -25,41 -40,58 -63,71 -154,106 -274,106 z m 552,-677 v -146 h 146 v 146 z m 143,212 v -146 h 145 v 146 z m 123,-149 v -146 h 146 v 146 z m -180,422 v -113 h 113 v 113 z m 294,-117 v -112 h 111 v 112 z m -19,172 v -56 h 55 v 56 z m 626,-474 c 0,-766 -621,-1387 -1388,-1387 -766,0 -1387,621 -1387,1387 0,766 621,1387 1387,1387 767,0 1388,-621 1388,-1387 z"
         id="path16"
         style="fill:#ffffff;fill-opacity:1" />
    </g>
  </g>
</svg>
