<svg width="149" height="30" viewBox="0 0 149 30" fill="none" xmlns="http://www.w3.org/2000/svg">
<path fill-rule="evenodd" clip-rule="evenodd" d="M130.654 29.4136H140.806L136.224 16.4352L148.666 4.71289H138.897L132.835 11.2021L131.257 4.71289H121.245L125.371 16.5396L111.923 29.4136H121.762L128.645 22.1916L130.654 29.4136ZM93.6069 29.4136H111.19L113.67 22.506H103.902L104.729 20.203H113.346L115.663 13.749H107.046L107.81 11.6205H116.985L119.465 4.71289H102.475L93.6069 29.4136ZM72.5699 29.4136H90.1529L92.6331 22.506H82.8648L83.691 20.203H92.3083L94.626 13.749H86.008L86.7721 11.6205H95.9478L98.4277 4.71289H81.4376L72.5699 29.4136ZM55.618 29.4136C62.9445 29.4136 71.0778 25.6106 74.1966 16.9235C77.5909 7.46891 71.5676 4.71289 63.7878 4.71289H62.5566L60.0366 11.7601H61.8856C65.3745 11.7601 66.9538 13.6792 65.8138 16.854C64.4359 20.6916 61.6615 22.2966 57.7891 22.2966H56.2542L60.0366 11.7601L53.7669 6.97085L54.5775 4.71289L45.7101 29.4136H55.618Z" fill="white"/>
<mask id="mask0" mask-type="alpha" maskUnits="userSpaceOnUse" x="0" y="4" width="38" height="26">
<path fill-rule="evenodd" clip-rule="evenodd" d="M0 4.71289H37.7507V29.4135H0V4.71289Z" fill="white"/>
</mask>
<g mask="url(#mask0)">
<path fill-rule="evenodd" clip-rule="evenodd" d="M19.789 12.9464H11.9247L17.8472 29.4136H25.8086L19.789 12.9464ZM5.9048 29.4136H13.8664L0 12.9464L5.9048 29.4136ZM34.6926 4.71289H26.7312L29.7891 29.4136H37.7507L34.6926 4.71289Z" fill="#1C1C1C"/>
</g>
<path fill-rule="evenodd" clip-rule="evenodd" d="M11.8275 12.9463H19.7891L13.8665 29.4135H5.90491L11.8275 12.9463Z" fill="#EE2222"/>
<path fill-rule="evenodd" clip-rule="evenodd" d="M26.731 4.71289H34.6927L31.7312 12.9464L28.7698 21.1798L25.8084 29.4136H17.847L20.8085 21.1798L23.7696 12.9464L26.731 4.71289Z" fill="#EE2222"/>
<path fill-rule="evenodd" clip-rule="evenodd" d="M43.674 12.9462L37.7508 29.4135H29.7892L35.7117 12.9462L38.6903 4.71245L30.7207 1.86061H39.837L34.6464 0H56.2611L54.5845 4.71245L52.7165 3.28714L46.6354 4.71276L43.674 12.9462Z" fill="#EE2222"/>
</svg>
