<svg width="104" height="36" viewBox="0 0 104 36" fill="none" xmlns="http://www.w3.org/2000/svg">
<path fill-rule="evenodd" clip-rule="evenodd" d="M85 15.2222H91.2222V9H85V15.2222Z" fill="white"/>
<path fill-rule="evenodd" clip-rule="evenodd" d="M97 15.2222H103.222V9H97V15.2222Z" fill="white"/>
<path fill-rule="evenodd" clip-rule="evenodd" d="M97 27.2222H103.222V21H97V27.2222Z" fill="white"/>
<path fill-rule="evenodd" clip-rule="evenodd" d="M91 21.2222H97.2222V15H91V21.2222Z" fill="white"/>
<path fill-rule="evenodd" clip-rule="evenodd" d="M85 27.2222H91.2222V21H85V27.2222Z" fill="white"/>
<mask id="mask0" mask-type="alpha" maskUnits="userSpaceOnUse" x="0" y="0" width="19" height="28">
<path fill-rule="evenodd" clip-rule="evenodd" d="M0 0H18.3496V27.6788H0V0Z" fill="white"/>
</mask>
<g mask="url(#mask0)">
<path fill-rule="evenodd" clip-rule="evenodd" d="M18.3496 16.1335V27.6789H12.729V16.3968C12.729 15.068 12.4871 14.0967 12.003 13.4821C11.5195 12.868 10.7569 12.5608 9.71436 12.5608C8.4734 12.5608 7.48091 12.962 6.73691 13.7644C5.99233 14.5667 5.6199 15.6447 5.6199 16.9981V27.6789H-6.10352e-05V0H5.6199V11.2069C6.29005 10.2044 7.14598 9.43937 8.18828 8.91295C9.23028 8.38653 10.3845 8.12303 11.6501 8.12303C16.1161 8.12303 18.3496 10.7933 18.3496 16.1335Z" fill="white"/>
</g>
<path fill-rule="evenodd" clip-rule="evenodd" d="M32.6164 22.2258C33.3607 21.2731 33.7326 19.894 33.7326 18.0888C33.7326 16.284 33.3607 14.8988 32.6164 13.9333C31.8716 12.9684 30.8047 12.4854 29.4151 12.4854C28.0256 12.4854 26.9458 12.9872 26.1772 13.9897C25.4077 14.9928 25.0232 16.3843 25.0232 18.1643C25.0232 19.9446 25.4011 21.3043 26.1586 22.2446C26.9152 23.1847 28.001 23.6547 29.4151 23.6547C30.8047 23.6547 31.8716 23.1789 32.6164 22.2258ZM39.2784 8.61186V27.6786H33.7326V24.8582C33.1618 25.8358 32.3556 26.6006 31.3133 27.1522C30.2713 27.7032 29.0925 27.9797 27.7774 27.9797C26.14 27.9797 24.6937 27.5785 23.4416 26.7762C22.1881 25.9738 21.2082 24.8273 20.5011 23.3351C19.7937 21.8438 19.4405 20.1196 19.4405 18.1643C19.4405 16.2085 19.7937 14.4661 20.5011 12.9366C21.2082 11.4077 22.1947 10.2232 23.4602 9.38269C24.7255 8.54331 26.1646 8.12305 27.7774 8.12305C29.0925 8.12305 30.2713 8.41142 31.3133 8.98788C32.3556 9.5652 33.1618 10.3418 33.7326 11.3197V8.61186H39.2784Z" fill="white"/>
<mask id="mask1" mask-type="alpha" maskUnits="userSpaceOnUse" x="41" y="8" width="21" height="28">
<path fill-rule="evenodd" clip-rule="evenodd" d="M41.4779 8.12305H61.6513V35.8019H41.4779V8.12305Z" fill="white"/>
</mask>
<g mask="url(#mask1)">
<path fill-rule="evenodd" clip-rule="evenodd" d="M54.9146 22.2446C55.6589 21.3046 56.0311 19.9446 56.0311 18.1643C56.0311 16.3843 55.6526 14.9928 54.896 13.9897C54.1386 12.9872 53.078 12.4854 51.7133 12.4854C50.3238 12.4854 49.2509 12.9684 48.494 13.9333C47.7368 14.8988 47.3587 16.284 47.3587 18.0888C47.3587 19.894 47.7368 21.2731 48.494 22.2258C49.2509 23.1789 50.3238 23.6547 51.7133 23.6547C53.1029 23.6547 54.1701 23.1847 54.9146 22.2446ZM57.6316 9.38269C58.8972 10.2232 59.8833 11.4077 60.5904 12.9366C61.2978 14.4661 61.6513 16.2085 61.6513 18.1643C61.6513 20.1196 61.3035 21.8438 60.6093 23.3351C59.9143 24.8273 58.9344 25.9741 57.6688 26.7762C56.4032 27.5785 54.9518 27.9797 53.3141 27.9797C51.9982 27.9797 50.8202 27.7035 49.7779 27.1522C48.7359 26.6009 47.9415 25.8361 47.3959 24.8582V35.8019H41.7762V14.0649C41.7762 12.0342 41.6763 10.2169 41.4779 8.61186H46.7629L47.1354 11.7709C47.6318 10.6426 48.4319 9.75292 49.536 9.10097C50.6401 8.44902 51.9 8.12305 53.3141 8.12305C54.9267 8.12305 56.366 8.54331 57.6316 9.38269Z" fill="white"/>
</g>
<path fill-rule="evenodd" clip-rule="evenodd" d="M75.5495 22.2258C76.2938 21.2731 76.666 19.894 76.666 18.0888C76.666 16.284 76.2938 14.8988 75.5495 13.9333C74.8047 12.9684 73.7378 12.4854 72.3482 12.4854C70.9587 12.4854 69.8789 12.9872 69.1106 13.9897C68.3408 14.9928 67.9563 16.3843 67.9563 18.1643C67.9563 19.9446 68.3345 21.3043 69.0917 22.2446C69.8483 23.1847 70.9341 23.6547 72.3482 23.6547C73.7378 23.6547 74.8047 23.1789 75.5495 22.2258ZM82.2118 8.61186V27.6786H76.666V24.8582C76.0949 25.8358 75.2887 26.6006 74.2467 27.1522C73.2044 27.7032 72.0256 27.9797 70.7108 27.9797C69.0731 27.9797 67.6271 27.5785 66.3747 26.7762C65.1212 25.9738 64.1413 24.8273 63.4342 23.3351C62.7268 21.8438 62.3736 20.1196 62.3736 18.1643C62.3736 16.2085 62.7268 14.4661 63.4342 12.9366C64.1413 11.4077 65.128 10.2232 66.3936 9.38269C67.6586 8.54331 69.0977 8.12305 70.7108 8.12305C72.0256 8.12305 73.2044 8.41142 74.2467 8.98788C75.2887 9.5652 76.0949 10.3418 76.666 11.3197V8.61186H82.2118Z" fill="white"/>
</svg>
