<?xml version="1.0" encoding="UTF-8" standalone="no"?>
<!-- Generator: Adobe Illustrator 21.0.0, SVG Export Plug-In . SVG Version: 6.00 Build 0)  -->

<svg
   xmlns:dc="http://purl.org/dc/elements/1.1/"
   xmlns:cc="http://creativecommons.org/ns#"
   xmlns:rdf="http://www.w3.org/1999/02/22-rdf-syntax-ns#"
   xmlns:svg="http://www.w3.org/2000/svg"
   xmlns="http://www.w3.org/2000/svg"
   xmlns:sodipodi="http://sodipodi.sourceforge.net/DTD/sodipodi-0.dtd"
   xmlns:inkscape="http://www.inkscape.org/namespaces/inkscape"
   version="1.1"
   id="Layer_1"
   x="0px"
   y="0px"
   viewBox="0 0 695 145.991"
   style="enable-background:new 0 0 695 145.991;"
   xml:space="preserve"
   inkscape:version="0.91 r13725"
   sodipodi:docname="my_wish_logo.svg"><metadata
     id="metadata17"><rdf:RDF><cc:Work
         rdf:about=""><dc:format>image/svg+xml</dc:format><dc:type
           rdf:resource="http://purl.org/dc/dcmitype/StillImage" /><dc:title></dc:title></cc:Work></rdf:RDF></metadata><defs
     id="defs15" /><sodipodi:namedview
     pagecolor="#ffffff"
     bordercolor="#666666"
     borderopacity="1"
     objecttolerance="10"
     gridtolerance="10"
     guidetolerance="10"
     inkscape:pageopacity="0"
     inkscape:pageshadow="2"
     inkscape:window-width="1920"
     inkscape:window-height="1056"
     id="namedview13"
     showgrid="false"
     inkscape:zoom="2.5557586"
     inkscape:cx="136.93526"
     inkscape:cy="39.969708"
     inkscape:window-x="0"
     inkscape:window-y="24"
     inkscape:window-maximized="1"
     inkscape:current-layer="Layer_1" /><path
     style="fill-rule:evenodd;clip-rule:evenodd;fill:#4D525D;"
     d="M135.325,106.817c-8.277,0-14.986-6.686-14.986-14.933v-34.49  V55c0-8.248-6.71-14.933-14.986-14.933c-8.277,0-13.517,6.686-13.517,14.933v3.066v33.817c0,8.247-8.18,14.933-16.456,14.933  c-8.277,0-14.986-6.686-14.986-14.933v-8.42v-25.82c-0.148-0.082-0.299-0.156-0.447-0.237V55c0-8.248-5.368-14.933-13.644-14.933  c-8.277,0-14.986,6.686-14.986,14.933v3.055c0,0,0.447,34.921,2.237,44.74c1.789,9.82,7.605,15.869,15.21,23.903  c7.605,8.034-4.026,26.533-19.236,16.267c-15.21-10.266-22.93-23.301-25.499-40.17C1.411,85.62,0,55.325,0,55.325  s0.597-10.855,2-13.283c5.669-18.325,22.757-31.639,42.96-31.639c11.623,0,22.216,4.408,30.196,11.641  c7.98-7.233,18.573-11.641,30.197-11.641c20.202,0,37.29,13.314,42.959,31.639c1.403,2.428,2,13.283,2,13.283v28.139v8.42  C150.312,100.131,143.602,106.817,135.325,106.817z"
     id="path3" /><path
     style="fill-rule:evenodd;clip-rule:evenodd;fill:#FCD600;"
     d="M46.22,39.174c8.277,0,14.986,6.686,14.986,14.933v34.49v2.394  c0,8.248,6.71,14.934,14.986,14.934c8.277,0,14.987-6.686,14.987-14.934v-3.066V54.107c0-8.247,6.709-14.933,14.986-14.933  s14.987,6.686,14.987,14.933v8.42v25.82c0.148,0.082,0.299,0.156,0.447,0.237v2.407c0,8.248,5.368,14.934,13.644,14.934  c8.277,0,14.986-6.686,14.986-14.934v-3.055c0,0-0.447-34.921-2.237-44.74s-7.605-15.869-15.21-23.903  c-7.605-8.034,4.026-26.533,19.236-16.267c15.21,10.266,22.93,23.301,25.499,40.17c2.616,17.175,4.026,47.47,4.026,47.47  s-0.597,10.855-2,13.283c-5.669,18.325-22.757,31.639-42.96,31.639c-11.623,0-22.216-4.408-30.196-11.641  c-7.98,7.233-18.573,11.641-30.197,11.641c-20.202,0-37.29-13.314-42.959-31.639c-1.403-2.428-2-13.283-2-13.283V62.527v-8.42  C31.234,45.86,37.943,39.174,46.22,39.174z"
     id="path5" /><g
     id="g7"><g
       id="g9"><path
         style="fill:#ffffff"
         d="M298.408,31.14c-1.809-1.209-4.249-1.814-7.322-1.814h-4.99c-3.002,0-5.18,0.271-6.536,0.812    c-1.356,0.541-2.359,1.516-3.01,2.923c-0.651,1.407-1.392,3.7-2.224,6.875l-11.553,43.469L251.22,39.936    c-0.832-3.175-1.573-5.467-2.224-6.875c-0.651-1.407-1.654-2.382-3.01-2.923c-1.356-0.541-3.535-0.812-6.536-0.812h-4.99    c-3.074,0-5.515,0.605-7.322,1.814c-1.808,1.209-2.712,3.546-2.712,7.01v62.794c0,3.068,0.686,5.351,2.061,6.848    c1.374,1.497,3.146,2.247,5.315,2.247c2.242,0,4.041-0.758,5.397-2.273c1.356-1.516,2.034-3.789,2.034-6.821V46.162l12.746,50.56    c0.434,1.66,0.858,3.257,1.275,4.791c0.415,1.534,0.985,2.932,1.708,4.195c0.723,1.264,1.736,2.301,3.037,3.113    c1.302,0.812,2.893,1.218,4.773,1.218c2.495,0,4.448-0.632,5.858-1.895c1.41-1.263,2.377-2.661,2.902-4.195    c0.524-1.534,1.202-3.942,2.034-7.227l12.746-50.56v54.783c0,3.031,0.687,5.305,2.061,6.821c1.374,1.516,3.127,2.273,5.261,2.273    c2.278,0,4.095-0.758,5.451-2.273c1.356-1.516,2.034-3.789,2.034-6.821V38.15C301.119,34.685,300.215,32.349,298.408,31.14z     M368.863,27.973c-1.302,0-2.405,0.235-3.309,0.704c-0.904,0.469-1.727,1.146-2.468,2.03c-0.742,0.885-1.419,1.832-2.034,2.842    c-0.615,1.011-1.375,2.256-2.278,3.735l-15.024,24.089L328.89,37.284c-2.278-3.717-3.987-6.198-5.126-7.443    c-1.139-1.245-2.812-1.868-5.017-1.868c-2.097,0-3.86,0.668-5.288,2.003c-1.429,1.336-2.142,2.923-2.142,4.764    c0,1.119,0.353,2.436,1.058,3.952c0.705,1.516,1.907,3.627,3.607,6.334l19.417,30.044v25.172c0,3.321,0.741,5.784,2.224,7.389    c1.482,1.605,3.417,2.409,5.803,2.409c2.35,0,4.285-0.812,5.804-2.436s2.278-4.078,2.278-7.362V75.069l19.906-30.477    c1.663-2.49,2.838-4.439,3.526-5.846c0.686-1.407,1.031-2.815,1.031-4.222c0-1.732-0.678-3.256-2.034-4.574    C372.579,28.632,370.888,27.973,368.863,27.973z M500.826,27.973c-2.098,0-3.698,0.541-4.8,1.624    c-1.103,1.083-1.881,2.31-2.332,3.681c-0.453,1.372-0.931,3.266-1.437,5.684L481.842,85.3l-11.77-43.36    c-0.976-3.573-1.754-6.135-2.332-7.687c-0.579-1.551-1.619-2.986-3.119-4.303c-1.501-1.317-3.607-1.976-6.319-1.976    c-2.676,0-4.792,0.632-6.346,1.895c-1.555,1.264-2.676,2.761-3.363,4.493c-0.687,1.732-1.465,4.259-2.332,7.579L434.601,85.3    l-10.414-46.338c-0.759-3.573-1.646-6.297-2.658-8.174c-1.013-1.876-2.983-2.815-5.912-2.815c-2.134,0-3.924,0.704-5.37,2.111    c-1.447,1.407-2.17,3.14-2.17,5.197c0,1.624,0.397,3.988,1.193,7.091l13.234,53.429c0.398,1.589,0.849,3.311,1.356,5.17    c0.506,1.859,1.157,3.464,1.953,4.818c0.795,1.353,1.835,2.401,3.119,3.14c1.283,0.739,2.919,1.11,4.909,1.11    c2.458,0,4.429-0.622,5.912-1.867c1.482-1.245,2.522-2.653,3.119-4.222c0.597-1.57,1.401-4.159,2.414-7.768l13.017-47.583    l12.854,47.583c1.048,3.717,1.862,6.343,2.441,7.876c0.578,1.534,1.609,2.915,3.092,4.141c1.482,1.227,3.453,1.841,5.912,1.841    c2.603,0,4.619-0.632,6.048-1.895c1.428-1.263,2.441-2.734,3.037-4.412c0.597-1.678,1.347-4.321,2.251-7.93l13.234-53.429    c0.795-3.248,1.193-5.611,1.193-7.091c0-2.093-0.732-3.834-2.197-5.224C504.704,28.668,502.923,27.973,500.826,27.973z     M527.674,27.973c-2.351,0-4.267,0.812-5.749,2.436c-1.483,1.624-2.224,4.06-2.224,7.308v62.523c0,3.248,0.75,5.693,2.251,7.335    c1.5,1.642,3.408,2.463,5.722,2.463c2.422,0,4.384-0.812,5.885-2.436c1.5-1.624,2.251-4.078,2.251-7.362V37.717    c0-3.283-0.751-5.729-2.251-7.335C532.058,28.777,530.096,27.973,527.674,27.973z M606.13,67.869    c-2.549-1.804-5.641-3.338-9.275-4.601c-3.634-1.263-7.693-2.417-12.177-3.464c-3.58-0.902-6.148-1.588-7.702-2.057    c-1.555-0.469-3.091-1.118-4.61-1.949c-1.519-0.83-2.712-1.822-3.58-2.977c-0.868-1.154-1.302-2.526-1.302-4.114    c0-2.562,1.275-4.754,3.824-6.577c2.549-1.822,5.903-2.734,10.061-2.734c4.483,0,7.737,0.839,9.763,2.517    c2.025,1.678,3.76,4.015,5.207,7.01c1.12,2.093,2.16,3.6,3.119,4.52c0.958,0.92,2.359,1.38,4.203,1.38    c2.025,0,3.715-0.766,5.071-2.301c1.356-1.533,2.034-3.256,2.034-5.17c0-2.093-0.542-4.24-1.627-6.442    c-1.085-2.201-2.803-4.304-5.153-6.307c-2.351-2.003-5.307-3.608-8.868-4.818c-3.562-1.209-7.783-1.813-12.665-1.813    c-6.111,0-11.426,0.912-15.946,2.734c-4.521,1.823-7.973,4.43-10.36,7.822c-2.387,3.393-3.58,7.272-3.58,11.639    c0,4.584,1.13,8.418,3.39,11.503c2.259,3.086,5.315,5.521,9.166,7.308c3.851,1.786,8.632,3.348,14.346,4.682    c4.266,0.974,7.675,1.895,10.224,2.761s4.628,2.12,6.237,3.762c1.609,1.643,2.414,3.781,2.414,6.415    c0,3.321-1.491,6.09-4.475,8.309c-2.983,2.219-6.861,3.329-11.634,3.329c-3.471,0-6.274-0.55-8.407-1.651    c-2.134-1.1-3.788-2.499-4.963-4.195c-1.175-1.696-2.27-3.807-3.281-6.334c-0.832-2.129-1.836-3.735-3.01-4.818    c-1.175-1.083-2.613-1.624-4.312-1.624c-2.098,0-3.824,0.695-5.18,2.084c-1.356,1.39-2.034,3.058-2.034,5.007    c0,3.356,1.13,6.812,3.39,10.366c2.259,3.555,5.198,6.397,8.814,8.526c5.098,2.96,11.571,4.439,19.417,4.439    c6.544,0,12.204-1.083,16.977-3.248c4.773-2.165,8.398-5.16,10.875-8.986c2.476-3.825,3.715-8.138,3.715-12.938    c0-4.006-0.714-7.389-2.142-10.15C610.668,71.956,608.679,69.674,606.13,67.869z M692.749,30.382    c-1.501-1.605-3.463-2.409-5.885-2.409c-2.386,0-4.312,0.812-5.776,2.436c-1.465,1.624-2.197,4.06-2.197,7.308v22.736h-34.767    V37.717c0-3.283-0.751-5.729-2.251-7.335c-1.501-1.605-3.463-2.409-5.885-2.409c-2.459,0-4.403,0.812-5.831,2.436    c-1.429,1.624-2.142,4.06-2.142,7.308v62.523c0,3.248,0.723,5.693,2.17,7.335c1.446,1.642,3.381,2.463,5.803,2.463    c2.387,0,4.339-0.812,5.858-2.436c1.519-1.624,2.278-4.078,2.278-7.362V73.553h34.767v26.688c0,3.248,0.723,5.693,2.17,7.335    c1.446,1.642,3.381,2.463,5.803,2.463c2.387,0,4.339-0.812,5.858-2.436S695,103.525,695,100.24V37.717    C695,34.433,694.249,31.988,692.749,30.382z"
         id="path11" /></g></g></svg>