<svg width="22" height="22" viewBox="0 0 22 22" fill="none" xmlns="http://www.w3.org/2000/svg">
<path d="M16.0738 0.749788C15.6987 0.374752 15.1901 0.164062 14.6597 0.164062H7.34294C6.81254 0.164062 6.30386 0.374753 5.92879 0.749789L0.753815 5.92432C0.378705 6.2994 0.167969 6.80814 0.167969 7.3386V14.6557C0.167969 15.1861 0.378682 15.6948 0.753755 16.0699L5.92878 21.2449C6.30386 21.62 6.81256 21.8307 7.343 21.8307H14.6596C15.19 21.8307 15.6987 21.62 16.0738 21.2449L21.2489 16.0699C21.6239 15.6948 21.8346 15.1861 21.8346 14.6557V7.3386C21.8346 6.80814 21.6239 6.2994 21.2488 5.92432L16.0738 0.749788ZM11.0013 16.5766C10.755 16.5766 10.514 16.5035 10.3092 16.3666C10.1043 16.2297 9.94462 16.0351 9.85026 15.8075C9.75601 15.5799 9.73131 15.3293 9.77941 15.0876C9.82751 14.846 9.94614 14.6241 10.1203 14.4498C10.2946 14.2756 10.5166 14.1569 10.7582 14.1088C10.9999 14.0607 11.2505 14.0854 11.4781 14.1797C11.7057 14.274 11.9003 14.4337 12.0372 14.6386C12.1741 14.8434 12.2471 15.0844 12.2471 15.3307C12.2471 15.6611 12.1158 15.978 11.8823 16.2117C11.6486 16.4453 11.3317 16.5766 11.0013 16.5766ZM11.8803 11.8035C11.8476 12.2648 11.4638 12.6224 11.0013 12.6224C10.5388 12.6224 10.155 12.2648 10.1223 11.8035L9.77435 6.89779C9.72386 6.18598 10.2877 5.58073 11.0013 5.58073C11.7149 5.58073 12.2787 6.18598 12.2283 6.89779L11.8803 11.8035Z" fill="#F45725"/>
</svg>
