<svg width="20" height="24" viewBox="0 0 20 24" fill="none" xmlns="http://www.w3.org/2000/svg">
<path d="M10.7362 0.291448C10.2633 0.104218 9.73675 0.104219 9.26381 0.291449L1.51381 3.35959C0.751014 3.66158 0.25 4.39877 0.25 5.21917V12.0637C0.253174 14.1548 0.805133 16.2086 1.85072 18.0196C2.89631 19.8306 4.39891 21.3355 6.20833 22.3838C8.55469 23.7381 11.4454 23.7378 13.7917 22.3834C15.6011 21.3351 17.1036 19.8303 18.1492 18.0194C19.1948 16.2084 19.7467 14.1548 19.75 12.0637V5.21917C19.75 4.39877 19.249 3.66157 18.4862 3.35959L10.7362 0.291448ZM10.0545 14.1695C9.6639 14.5601 9.03072 14.56 8.64022 14.1695L6.3871 11.916C6.02775 11.5566 6.02764 10.974 6.38685 10.6144C6.74629 10.2547 7.32935 10.2545 7.68899 10.6141L9.34729 12.272L12.5141 9.1064C12.8738 8.7469 13.4568 8.74709 13.8162 9.10683C14.1754 9.4664 14.1753 10.0491 13.8159 10.4085L10.0545 14.1695Z" fill="#00e28e"/>
</svg>
