<svg width="186" height="40" viewBox="0 0 186 40" fill="none" xmlns="http://www.w3.org/2000/svg">
<path d="M13.4688 28.085C13.8328 27.5996 14.0755 27.2356 14.4396 26.7502C14.6822 26.5075 14.8036 26.2649 15.0463 26.0222C15.289 25.6581 15.5316 25.2941 15.7743 24.9301C16.017 24.5661 16.2597 24.3234 16.5024 23.9594C16.8664 23.474 17.2304 22.8673 17.7158 22.3819C17.9585 22.0179 18.2012 21.7752 18.4439 21.4112C18.5652 21.1685 18.8079 20.9258 18.9292 20.6831C19.1719 20.4404 19.2932 20.0764 19.2932 19.7124C19.2932 19.3484 19.2932 18.863 19.0506 18.499C18.8079 18.1349 18.5652 17.7709 18.3225 17.4069C17.9585 16.9215 17.7158 16.5575 17.3518 16.0721C17.1091 15.8294 16.9877 15.5868 16.7451 15.3441C16.5024 14.98 16.2597 14.616 16.017 14.252C15.8957 14.0093 15.653 13.7666 15.5316 13.5239C15.289 13.1599 15.0463 12.7959 14.8036 12.4319C14.5609 12.0678 14.3182 11.8251 14.0755 11.4611C13.5902 11.3398 13.3475 10.9758 13.1048 10.6117C12.8621 10.369 12.7408 10.1264 12.4981 9.88367C11.8914 9.64099 11.2847 9.76233 10.9206 10.2477C10.678 10.6117 10.4353 10.9757 10.1926 11.4611C9.9499 11.8251 9.70722 12.3105 9.46453 12.6745C9.22185 13.1599 8.85782 13.6453 8.61514 14.252C8.49379 14.3733 8.37245 14.616 8.37245 14.7374C8.25111 14.98 8.00843 15.3441 7.88708 15.5868C7.76574 15.8294 7.6444 15.9508 7.52306 16.1935C7.28037 16.6788 7.03769 17.0429 6.795 17.5282C6.55232 17.8923 6.43098 18.1349 6.18829 18.499C5.94561 18.863 5.70293 19.3484 5.82427 19.8337C5.82427 20.3191 5.94561 20.6831 6.18829 21.0471C6.30964 21.1685 6.30964 21.2898 6.43098 21.5325C6.55232 21.8965 6.795 22.1392 6.91635 22.5033C7.03769 22.7459 7.28037 23.11 7.52306 23.474C7.6444 23.5953 7.76574 23.838 7.76574 23.9594C8.00843 24.3234 8.12977 24.5661 8.37245 24.9301C8.49379 25.1728 8.49379 25.2941 8.61514 25.5368C8.85782 26.0222 9.10051 26.3862 9.34319 26.8716C9.46453 27.1143 9.58587 27.2356 9.70722 27.4783C9.9499 27.9637 10.1926 28.3277 10.4353 28.813C10.5566 29.0557 10.7993 29.4198 11.042 29.5411C11.2847 29.6624 11.6487 29.7838 12.0127 29.6624C12.3767 29.5411 12.4981 29.2984 12.7408 29.0557C12.9835 28.813 13.2261 28.449 13.4688 28.085Z" fill="#A8A8A8"/>
<path d="M37.0092 24.6874C37.1305 24.4447 37.3732 24.0807 37.4946 23.838C37.6159 23.5953 37.7373 23.474 37.8586 23.2313C38.1013 22.7459 38.344 22.3819 38.5866 21.8965C38.708 21.6539 38.9507 21.2898 39.072 21.0471C39.3147 20.6831 39.436 20.1978 39.436 19.8337C39.436 19.7124 39.436 19.591 39.436 19.4697C39.436 19.3484 39.436 19.1057 39.3147 18.9843C39.072 18.499 38.8293 18.1349 38.5866 17.6496C38.344 17.2855 38.2226 17.0429 37.9799 16.6788C37.8586 16.3148 37.6159 16.0721 37.4946 15.7081C37.3732 15.3441 37.1305 15.1014 36.8879 14.7374C36.6452 14.3733 36.5238 14.1306 36.2811 13.7666C35.9171 13.1599 35.6744 12.6745 35.3104 12.1892C35.0677 11.7038 34.825 11.2184 34.461 10.7331C34.3397 10.4904 34.2183 10.2477 33.9756 10.1264C33.733 9.88367 33.4903 9.76233 33.2476 9.76233C33.0049 9.76233 32.7622 9.88367 32.5195 10.005C32.1555 10.369 31.9128 10.8544 31.5488 11.2184C31.5488 11.7038 31.4275 11.9465 31.3061 12.1892C31.0634 12.4319 30.9421 12.7959 30.6994 13.0386C30.5781 13.2813 30.3354 13.5239 30.214 13.7666C29.9714 14.0093 29.85 14.3733 29.6073 14.616C29.486 14.8587 29.2433 15.1014 29.122 15.3441C28.8793 15.5868 28.7579 15.9508 28.5153 16.1935C28.3939 16.4361 28.1512 16.6788 28.0299 16.9215C27.7872 17.1642 27.6659 17.5282 27.4232 17.7709C27.1805 18.0136 27.0591 18.2563 26.9378 18.499C26.6951 18.863 26.4524 19.227 26.5738 19.7124C26.5738 20.0764 26.6951 20.3191 26.8165 20.6831C27.0591 21.0471 27.3018 21.4112 27.6659 21.7752C27.9085 22.1392 28.1512 22.5033 28.3939 22.8673C28.5153 23.11 28.7579 23.3526 28.8793 23.5953C29.122 23.9594 29.3646 24.3234 29.6073 24.6874C29.85 25.0514 30.214 25.5368 30.4567 25.9008C30.8208 26.3862 31.3061 26.9929 31.6701 27.4783C31.9128 27.721 32.1555 28.085 32.2769 28.3277C32.5195 28.5704 32.6409 28.9344 32.8836 29.1771C33.2476 29.4198 33.4903 29.6624 33.9756 29.5411C34.2183 29.4198 34.461 29.2984 34.5824 29.0557C34.7037 28.813 34.825 28.5704 34.9464 28.449C35.1891 28.085 35.3104 27.721 35.5531 27.4783C35.6744 27.2356 35.7958 27.1143 35.9171 26.8716C36.1598 26.3862 36.4025 26.0222 36.6452 25.5368C36.7665 25.1728 36.8879 24.9301 37.0092 24.6874Z" fill="#A8A8A8"/>
<path d="M23.9041 25.2941C23.7828 25.1727 23.7828 25.0514 23.6614 24.93C23.4187 24.6873 23.2974 24.4447 23.0547 24.202C22.9334 24.0806 22.9334 24.0806 22.812 23.9593C22.6907 23.838 22.5693 23.838 22.5693 23.9593L22.448 24.0806C22.3266 24.3233 22.2053 24.4447 21.9626 24.6873C21.5986 25.1727 21.2346 25.6581 20.8705 26.1435C20.6279 26.5075 20.3852 26.7502 20.1425 27.1142C20.0211 27.3569 19.8998 27.4782 19.6571 27.7209C19.4144 28.0849 19.1717 28.449 18.9291 28.813C18.6864 29.177 18.4437 29.4197 18.201 29.7837C17.7156 30.3904 17.3516 30.9971 16.8662 31.6038C16.5022 32.0892 16.1382 32.5746 15.7742 33.1813C15.7742 33.3026 15.7742 33.424 15.7742 33.5453C15.7742 33.6667 15.8955 33.9093 15.8955 34.0307C16.1382 34.3947 16.3809 34.6374 16.8662 34.6374C18.8077 34.6374 20.7492 34.6374 22.812 34.6374C24.7535 34.6374 26.8163 34.6374 28.7578 34.6374C29.0005 34.6374 29.2431 34.5161 29.3645 34.3947C29.6072 34.2734 29.7285 34.0307 29.8499 33.788C29.9712 33.5453 29.9712 33.424 29.7285 33.1813C29.6072 33.0599 29.4858 32.8173 29.3645 32.6959C29.1218 32.3319 28.8791 31.9679 28.6364 31.6038C28.2724 31.1185 27.9084 30.5118 27.423 30.0264C26.9376 29.4197 26.5736 28.813 26.0883 28.2063C25.7242 27.7209 25.4815 27.3569 25.1175 26.8715C24.7535 26.3861 24.2681 25.9008 23.9041 25.2941Z" fill="#A8A8A8"/>
<path d="M27.6662 9.0342C27.9088 8.67017 28.2729 8.1848 28.6369 7.82078C28.8796 7.45675 29.2436 6.97138 29.4863 6.60736C29.6076 6.36467 29.729 6.12199 29.6076 5.8793C29.6076 5.75796 29.4863 5.63662 29.3649 5.51528C29.3649 5.39393 29.2436 5.39393 29.2436 5.27259C29.0009 5.02991 28.7582 5.02991 28.3942 5.02991C26.5741 5.02991 24.7539 5.02991 22.8125 5.02991C20.871 5.02991 19.1722 5.02991 17.2307 5.02991C17.1094 5.02991 16.988 5.02991 16.8667 5.02991C16.5027 5.02991 16.26 5.27259 16.0173 5.63662C15.896 5.8793 15.7746 6.12199 16.0173 6.36467C16.1387 6.48601 16.26 6.7287 16.3813 6.85004C16.624 7.21407 16.8667 7.57809 17.1094 7.94212C17.3521 8.30614 17.7161 8.79151 17.9588 9.15554C18.2015 9.51957 18.5655 10.0049 18.9295 10.369C19.1722 10.733 19.4149 10.9757 19.6576 11.3397C19.9003 11.7037 20.2643 12.1891 20.507 12.5531C20.6283 12.7958 20.871 13.0385 20.9923 13.1598C21.3564 13.6452 21.5991 14.0092 21.9631 14.4946C22.2058 14.7373 22.4484 15.1013 22.5698 15.344C22.6911 15.4653 22.8125 15.4653 22.8125 15.344C23.0552 15.1013 23.1765 14.98 23.4192 14.7373C23.7832 14.3733 24.0259 13.8879 24.3899 13.5239C24.7539 13.0385 25.118 12.5531 25.3607 12.0678C25.6033 11.8251 25.7247 11.461 25.9674 11.2184C26.3314 10.733 26.5741 10.369 26.9381 9.88359C27.1808 9.64091 27.4235 9.27688 27.6662 9.0342Z" fill="#A8A8A8"/>
<path d="M36.2813 6.00061C36.2813 6.12195 36.2813 6.24329 36.4026 6.24329C38.4654 10.6116 40.5282 15.1013 42.591 19.4696C42.7124 19.5909 42.7124 19.7123 42.591 19.955C41.7416 21.6537 41.0136 23.3525 40.1642 25.0513C38.8294 27.8422 37.616 30.6331 36.2813 33.3026C36.2813 33.4239 36.1599 33.4239 36.1599 33.5453C39.1935 28.9343 42.1057 24.3233 45.1392 19.7123C42.227 15.1013 39.1935 10.4903 36.2813 6.00061Z" fill="#A8A8A8"/>
<path d="M2.66953 20.0764C2.54819 19.9551 2.54819 19.8337 2.66953 19.7124C4.73234 15.1014 6.9165 10.6117 8.97932 6.12208C8.97932 6.00074 8.97932 6.00074 9.10066 5.87939C5.94577 10.6117 3.03355 15.2227 0 19.8337C3.03355 24.4447 5.94577 28.9344 8.97932 33.5454C8.97932 33.4241 8.97932 33.4241 8.97932 33.3027C6.79516 28.9344 4.73234 24.4447 2.66953 20.0764Z" fill="#A8A8A8"/>
<path d="M31.4279 38.0349C30.2145 37.9136 28.8797 37.6709 27.6663 37.5496C26.2102 37.4282 24.7541 37.1856 23.298 37.0642C23.1766 37.0642 23.0553 37.0642 22.9339 37.0642C22.4486 37.0642 21.8419 37.1856 21.3565 37.3069C20.0217 37.4282 18.687 37.6709 17.3522 37.7923C15.8961 37.9136 14.44 38.1563 12.9839 38.2776H12.8625H12.9839C13.5906 38.399 14.1973 38.399 14.6827 38.5203C16.0174 38.6417 17.3522 38.8843 18.687 39.0057C19.9004 39.127 20.9925 39.2484 22.2059 39.3697C22.5699 39.3697 22.9339 39.4911 23.298 39.4911C24.8754 39.2484 26.3315 39.127 27.909 38.8843C29.6078 38.6417 31.1852 38.5203 32.884 38.2776H33.0053C32.884 38.2776 32.884 38.1563 32.7627 38.1563C32.2773 38.1563 31.9133 38.1563 31.4279 38.0349Z" fill="#A8A8A8"/>
<path d="M12.8626 1.3897C14.3187 1.51104 15.6534 1.75372 17.1095 1.87506C18.687 2.11775 20.3858 2.23909 21.9632 2.48177C22.3272 2.48177 22.5699 2.48177 22.934 2.48177C23.7833 2.36043 24.6327 2.23909 25.4821 2.23909C26.5742 2.11775 27.7876 1.99641 28.8797 1.87506C30.2145 1.75372 31.4279 1.63238 32.7627 1.3897C32.884 1.3897 32.884 1.3897 33.0054 1.3897C32.7627 1.26835 32.6413 1.26835 32.52 1.14701C31.0639 1.02567 29.6078 0.782985 28.1517 0.661642C26.5742 0.418958 24.9968 0.297616 23.4193 0.0549316C23.0553 0.0549316 22.6913 0.0549316 22.3272 0.0549316C20.8711 0.297616 19.415 0.418958 17.9589 0.5403C16.2601 0.782985 14.44 1.02567 12.8626 1.3897C12.7412 1.26835 12.7412 1.26835 12.6199 1.26835C12.7412 1.26835 12.7412 1.3897 12.8626 1.3897Z" fill="#A8A8A8"/>
<path d="M61.3994 26.3861V23.4739H64.1903L61.3994 16.1934L57.3951 26.3861H54.1189L59.9433 11.8251H62.8555L68.68 26.3861H61.3994Z" fill="#A8A8A8"/>
<path d="M88.7016 19.1056L83.2412 11.8251H86.8815L90.5217 16.6788L94.162 11.8251H97.8023L92.3419 19.1056L97.8023 26.3861H94.162L90.5217 21.5324L86.8815 26.3861H83.2412L88.7016 19.1056Z" fill="#A8A8A8"/>
<path d="M120.978 11.8251V26.3861H118.066V11.8251H120.978Z" fill="#A8A8A8"/>
<path d="M141.364 26.3861V11.8251H155.925V26.3861H141.364ZM153.013 23.4739V14.7373H144.276V23.4739H153.013Z" fill="#A8A8A8"/>
<path d="M170.486 26.3861V11.8251H173.398L182.134 22.1392V11.8251H185.047V26.3861H182.134L173.398 16.4361V26.3861H170.486Z" fill="#A8A8A8"/>
</svg>
