<svg width="202" height="41" viewBox="0 0 202 41" fill="none" xmlns="http://www.w3.org/2000/svg">
<path d="M12.3025 17.5133L20.1153 9.81905L27.9322 17.5173L32.4783 13.0401L20.1153 0.864014L7.75652 13.0361L12.3025 17.5133ZM4.546 16.1971L9.09202 20.674L4.546 25.1515L0 20.6742L4.546 16.1971ZM12.3025 23.8363L20.1153 31.5304L27.9319 23.8325L32.4804 28.3071L32.4783 28.3096L20.1153 40.4855L7.75621 28.3137L7.74985 28.3075L12.3025 23.8363ZM40.2309 20.6761L35.6852 25.1534L31.1389 20.6765L35.6849 16.199L40.2309 20.6761Z" fill="#A8A8A8"/>
<path d="M24.7262 20.6725H24.7281L20.1151 16.1292L16.706 19.4868H16.7057L16.3141 19.8727L15.5061 20.6685L15.4998 20.6748L15.5061 20.6813L20.1151 25.2204L24.7281 20.6772L24.7304 20.6748L24.7262 20.6725ZM47.3178 10.4648H57.2051C59.659 10.4648 61.5147 11.0851 62.7723 12.3255C63.7455 13.2862 64.2321 14.4769 64.2321 15.8974V15.9575C64.2321 16.5577 64.1568 17.0882 64.0051 17.5482C63.8634 17.9891 63.6594 18.4085 63.3992 18.7936C63.1535 19.157 62.8582 19.4852 62.5213 19.7691C62.1911 20.0475 61.8306 20.2891 61.4463 20.4895C62.6799 20.9501 63.651 21.5751 64.3588 22.3655C65.0665 23.1563 65.4208 24.2519 65.4208 25.6524V25.7121C65.4208 26.6728 65.2332 27.5131 64.858 28.2338C64.4827 28.9539 63.9451 29.5544 63.2451 30.0348C62.5452 30.515 61.7034 30.875 60.7196 31.1152C59.7359 31.3554 58.6458 31.4752 57.4495 31.4752H47.3178V10.4648ZM56.2165 18.9589C57.2531 18.9589 58.076 18.7842 58.6852 18.4338C59.2946 18.0836 59.5993 17.5181 59.5993 16.738V16.6779C59.5993 15.9778 59.335 15.4427 58.8068 15.0722C58.2784 14.702 57.5165 14.5167 56.5212 14.5167H51.8888V18.9589H56.2165ZM57.4662 27.4235C58.5024 27.4235 59.3146 27.239 59.9043 26.8685C60.4935 26.4982 60.7883 25.9226 60.7883 25.1423V25.0824C60.7883 24.3821 60.5137 23.8269 59.9653 23.4164C59.4167 23.0068 58.533 22.8014 57.3137 22.8014H51.8888V27.4238H57.4662V27.4235ZM71.3092 10.4648H76.003V31.4758H71.3092V10.4648ZM83.112 10.4648H87.439L97.4357 23.4016V10.4648H102.068V31.4758H98.076L87.7441 18.119V31.4758H83.112V10.4648ZM116.278 10.3149H120.605L129.749 31.4758H124.842L122.891 26.7635H113.87L111.92 31.4758H107.134L116.278 10.3149ZM121.215 22.681L118.38 15.8677L115.547 22.681H121.215ZM134.815 10.4648H139.144L149.139 23.4016V10.4648H153.772V31.4758H149.78L139.448 18.119V31.4758H134.815V10.4648ZM170.663 31.8356C169.098 31.8356 167.645 31.5553 166.304 30.9954C164.964 30.4356 163.806 29.6699 162.83 28.699C161.854 27.7287 161.092 26.5829 160.544 25.2623C159.996 23.9415 159.722 22.5308 159.722 21.0299V20.9702C159.722 19.4693 159.996 18.0638 160.544 16.753C161.093 15.4424 161.854 14.2917 162.83 13.3013C163.805 12.3108 164.973 11.53 166.335 10.9599C167.696 10.3897 169.2 10.1046 170.846 10.1046C171.841 10.1046 172.75 10.185 173.573 10.3446C174.396 10.5052 175.142 10.7249 175.814 11.0049C176.469 11.2773 177.093 11.6195 177.673 12.0254C178.237 12.4223 178.766 12.8641 179.256 13.3463L176.27 16.738C175.437 15.9979 174.589 15.417 173.726 14.9971C172.862 14.5771 171.891 14.3668 170.815 14.3668C169.921 14.3668 169.093 14.537 168.332 14.8772C167.583 15.2073 166.914 15.6878 166.365 16.2876C165.817 16.8879 165.391 17.5836 165.085 18.3737C164.78 19.1645 164.628 20.0098 164.628 20.9101V20.9698C164.628 21.8702 164.78 22.721 165.085 23.5209C165.391 24.3217 165.811 25.0218 166.35 25.622C166.888 26.2222 167.538 26.6979 168.301 27.0481C169.063 27.3985 169.9 27.5732 170.815 27.5732C172.034 27.5732 173.064 27.3531 173.908 26.9129C174.751 26.4732 175.589 25.8726 176.423 25.1119L179.41 28.0836C178.881 28.6451 178.31 29.1669 177.703 29.6442C177.105 30.1099 176.455 30.5078 175.767 30.8302C175.066 31.1601 174.298 31.4106 173.467 31.5804C172.633 31.7502 171.698 31.8356 170.663 31.8356ZM184.933 10.4648H200.994V14.5771H189.566V18.8394H199.622V22.9514H189.566V27.3638H201.147V31.4758H184.933V10.4648Z" fill="#A8A8A8"/>
</svg>
