<svg width="155" height="31" viewBox="0 0 155 31" fill="none" xmlns="http://www.w3.org/2000/svg">
<path d="M9.43352 12.9627L15.4243 6.97219L21.4183 12.9659L24.9042 9.48005L15.4243 0L5.94766 9.47689L9.43352 12.9627ZM3.48585 11.938L6.97171 15.4236L3.48585 18.9097L0 15.4238L3.48585 11.938ZM9.43352 17.8857L15.4243 23.8762L21.4181 17.8828L24.9058 21.3666L24.9042 21.3685L15.4243 30.8484L5.94742 21.3717L5.94254 21.3669L9.43352 17.8857ZM30.8488 15.4252L27.3632 18.9111L23.8771 15.4256L27.363 11.9394L30.8488 15.4252Z" fill="#4AA956"/>
<path d="M18.9598 15.4223H18.9612L15.4241 11.885L12.8099 14.4992H12.8097L12.5095 14.7996L11.8899 15.4192L11.885 15.4241L11.8899 15.4292L15.4241 18.9632L18.9612 15.426L18.963 15.4241L18.9598 15.4223ZM36.2829 7.47483H43.8645C45.7461 7.47483 47.169 7.95774 48.1333 8.92355C48.8796 9.67155 49.2527 10.5986 49.2527 11.7045V11.7513C49.2527 12.2186 49.195 12.6316 49.0787 12.9898C48.97 13.3331 48.8136 13.6596 48.6141 13.9594C48.4257 14.2424 48.1992 14.4979 47.9409 14.719C47.6877 14.9357 47.4112 15.1238 47.1166 15.2799C48.0625 15.6385 48.8071 16.125 49.3498 16.7404C49.8925 17.3561 50.1642 18.2091 50.1642 19.2995V19.346C50.1642 20.094 50.0204 20.7482 49.7326 21.3093C49.4449 21.87 49.0326 22.3375 48.4959 22.7116C47.9592 23.0855 47.3137 23.3657 46.5594 23.5528C45.8051 23.7397 44.9692 23.833 44.0518 23.833H36.2829V7.47483ZM43.1064 14.0881C43.9013 14.0881 44.5323 13.9521 44.9994 13.6793C45.4667 13.4067 45.7003 12.9664 45.7003 12.359V12.3122C45.7003 11.7672 45.4976 11.3505 45.0927 11.062C44.6875 10.7738 44.1032 10.6295 43.3401 10.6295H39.788V14.0881H43.1064ZM44.0647 20.6785C44.8592 20.6785 45.482 20.5348 45.9342 20.2463C46.386 19.9581 46.612 19.51 46.612 18.9024V18.8558C46.612 18.3105 46.4015 17.8783 45.981 17.5586C45.5603 17.2397 44.8827 17.0799 43.9477 17.0799H39.788V20.6787H44.0647V20.6785ZM54.6794 7.47483H58.2786V23.8335H54.6794V7.47483ZM63.7297 7.47483H67.0476L74.7131 17.5472V7.47483H78.2652V23.8335H75.204L67.2816 13.4342V23.8335H63.7297V7.47483ZM89.1611 7.35812H92.4793L99.4904 23.8335H95.7278L94.2321 20.1646H87.3147L85.8192 23.8335H82.1496L89.1611 7.35812ZM92.9468 16.9861L90.7733 11.6814L88.6004 16.9861H92.9468ZM103.375 7.47483H106.695L114.359 17.5472V7.47483H117.911V23.8335H114.85L106.928 13.4342V23.8335H103.375V7.47483ZM130.863 24.1137C129.664 24.1137 128.55 23.8954 127.521 23.4595C126.493 23.0237 125.605 22.4275 124.857 21.6716C124.109 20.9161 123.524 20.0241 123.104 18.9959C122.684 17.9675 122.474 16.8691 122.474 15.7006V15.6541C122.474 14.4855 122.684 13.3913 123.104 12.3707C123.525 11.3503 124.109 10.4544 124.857 9.68325C125.604 8.91211 126.501 8.30421 127.545 7.86028C128.588 7.41635 129.742 7.1944 131.004 7.1944C131.767 7.1944 132.464 7.25701 133.094 7.38127C133.726 7.50626 134.298 7.6773 134.813 7.89536C135.315 8.10743 135.794 8.37386 136.239 8.6899C136.671 8.9989 137.076 9.34286 137.453 9.71833L135.163 12.359C134.524 11.7828 133.874 11.3305 133.212 11.0036C132.549 10.6765 131.805 10.5128 130.98 10.5128C130.294 10.5128 129.659 10.6454 129.076 10.9102C128.502 11.1672 127.989 11.5413 127.568 12.0083C127.148 12.4757 126.821 13.0173 126.586 13.6325C126.353 14.2482 126.236 14.9063 126.236 15.6073V15.6538C126.236 16.3548 126.353 17.0172 126.586 17.64C126.821 18.2635 127.143 18.8086 127.556 19.2759C127.969 19.7432 128.467 20.1136 129.052 20.3862C129.637 20.659 130.278 20.795 130.98 20.795C131.915 20.795 132.705 20.6237 133.352 20.2809C133.998 19.9386 134.641 19.471 135.28 18.8787L137.57 21.1924C137.165 21.6296 136.727 22.0358 136.261 22.4075C135.803 22.77 135.305 23.0799 134.777 23.3309C134.24 23.5877 133.651 23.7828 133.013 23.9149C132.374 24.0472 131.657 24.1137 130.863 24.1137ZM141.806 7.47483H154.121V10.6765H145.358V13.9951H153.069V17.1966H145.358V20.632H154.239V23.8335H141.806V7.47483Z" fill="#4AA956"/>
</svg>
