<svg width="182" height="38" viewBox="0 0 182 38" fill="none" xmlns="http://www.w3.org/2000/svg">
<g clip-path="url(#clip0)">
<path d="M0.438793 5.36603C-0.263063 4.08014 -0.131465 3.54805 1.00905 3.63673C5.79044 4.0358 10.2209 2.39518 14.783 1.59704C15.7042 1.41968 16.4937 1.10929 17.3272 0.488513C18.7748 -0.620014 20.9242 0.577195 21.5383 1.15363C23.2491 2.79425 25.1792 2.48386 27.0216 2.66123C28.3814 2.79425 29.0394 3.23766 29.2149 4.52355C29.6974 7.4944 31.1889 9.53409 34.1717 10.2436C34.6104 10.3322 35.0491 10.5539 35.0929 11.086C35.4 13.9239 36.1457 16.673 36.6721 19.4665C36.8476 20.5307 36.8914 21.6836 35.9264 22.526C35.5316 22.8808 35.3123 23.4572 35.4439 23.9449C36.0141 26.2063 35.0929 27.7583 33.3821 29.0442C33.0312 29.3102 32.6803 29.7093 32.6364 30.1084C32.1978 32.9905 29.5658 33.1679 27.7234 34.4538C23.4684 37.4246 18.8625 37.5133 13.9934 36.9812C10.0016 36.5378 5.96591 36.5378 1.9741 36.4048C1.31611 36.3605 0.570391 36.4491 0.482659 35.518C0.394927 34.7642 0.965185 34.4538 1.53544 34.3651C4.4306 33.8773 4.73766 32.0594 4.69379 29.4432C4.51833 23.1911 4.51833 16.9391 4.78153 10.687C4.91312 8.0265 3.94807 6.74061 1.66704 5.98681C1.22838 5.85378 0.570391 5.98681 0.394927 5.32169C2.1057 4.65658 3.42168 6.07549 4.95699 6.16417C5.08859 7.00665 5.30792 7.84913 5.30792 8.69161C5.35178 16.4513 5.30792 24.1667 5.35178 31.9263C5.35178 32.8575 5.30792 33.6556 4.38673 34.1434C3.72874 34.4094 2.98302 34.4538 2.63209 35.2076C4.73766 36.1831 7.01869 35.7397 9.25586 35.8727C10.0016 35.917 9.73838 35.3849 9.65065 34.9415C10.2209 34.8972 10.7912 34.8529 11.3614 34.7642C10.8789 33.833 9.73838 32.9462 11.0982 31.882C11.3176 31.9263 11.5369 31.9707 11.7562 31.9707C12.6335 33.2122 13.8618 34.0104 14.9584 34.9415C14.2566 35.9614 12.9845 35.6953 12.0194 36.0944C15.6164 36.0501 19.1696 37.336 22.7666 36.0057C24.0387 35.518 24.7844 35.2076 23.7316 33.833C26.2759 34.2321 28.513 33.2566 30.7502 32.2811C31.145 32.1037 31.3204 31.7933 31.0573 31.4386C30.8818 31.1725 30.5309 31.2612 30.3115 31.4386C30.3554 30.7291 29.0394 30.2414 29.9606 29.3546C30.8818 28.4234 31.145 27.1375 31.7591 26.0733C32.11 25.5412 31.8907 24.5657 32.8996 24.5657C36.4089 21.9053 36.9792 19.4222 34.6543 16.806C34.6104 15.1654 34.3472 13.6578 32.6364 12.8597C30.6186 11.6625 30.487 9.31239 29.4342 7.4944C28.513 4.21316 26.4513 3.14898 23.4684 4.30185C22.635 3.99146 22.1525 3.37068 21.8015 2.57254C21.0119 1.02061 18.3361 0.532854 17.1079 1.68572C16.4937 2.17347 15.8358 2.57254 15.0023 2.57254C13.4231 2.79425 11.8439 3.01595 9.91385 3.282C11.6685 4.21316 13.1161 3.45937 14.5198 3.63673C14.2127 4.87828 13.1161 5.27735 12.1949 5.80944C10.2209 7.00665 9.38745 8.46991 10.5718 10.6426C10.6596 11.1304 10.7912 11.6625 10.835 12.1502C10.9228 12.904 11.4053 13.7022 10.1332 14.0125C9.08039 14.2786 8.15921 14.988 7.67668 13.037C7.28189 14.2786 6.53617 14.855 5.65885 15.8749C5.65885 13.037 5.65885 10.5539 5.65885 8.07084C5.65885 7.36138 6.00977 6.56324 5.08859 6.11983C4.78153 4.65658 7.01869 5.32169 6.84323 3.94712C5.00086 3.99146 3.15848 4.61223 1.27225 4.25751C0.482659 4.25751 0.570391 4.92262 0.438793 5.36603Z" fill="#A8A8A8"/>
<path d="M24.0823 9.62202C22.9856 10.8636 21.4942 11.3957 20.0905 12.1051C19.6957 12.3268 19.0377 12.6816 18.8622 11.8834C18.3797 10.1098 18.5552 11.7504 18.5113 11.9278C18.2481 12.5929 17.7656 12.5929 17.2831 12.3268C16.4057 11.8391 15.353 11.44 14.7388 10.6862C13.9931 9.75504 13.0281 9.31163 12.1507 9.57768C11.1418 9.88807 11.9753 11.1296 11.5366 11.9721C11.1857 11.4843 10.8348 11.0409 10.5277 10.5975C9.34331 8.38047 10.1768 6.91721 12.1507 5.76435C13.0719 5.23225 14.1686 4.83318 14.4756 3.59163C14.6511 3.2369 14.7827 2.88218 14.9582 2.52745C15.7916 2.52745 16.4057 2.12838 17.0637 1.64062C17.5463 2.70481 18.8184 1.55194 19.3448 2.52745C21.0994 4.83318 22.6786 7.18326 24.0823 9.62202Z" fill="#A8A8A8"/>
<path d="M25.3107 25.3631C24.872 23.8555 25.6177 22.3036 24.872 20.7073C24.5211 19.9535 26.2319 19.8205 26.7144 19.0223C29.3025 19.8205 32.066 19.3771 34.7857 19.8648C34.2593 21.5054 33.1627 22.9244 32.8556 24.6537C31.8467 24.6537 32.066 25.6292 31.7151 26.1613C30.1798 26.2943 30.3114 28.1566 28.9954 28.733C28.9077 28.1566 28.8638 27.6245 28.6884 26.5603C28.5129 27.6688 28.5568 28.467 27.5917 28.3783C27.6794 26.649 26.6267 25.8952 25.3107 25.3631Z" fill="#A8A8A8"/>
<path d="M6.71154 26.7821C6.09741 25.9839 5.74648 25.2745 6.97473 24.6094C7.63272 24.2546 8.15911 23.6339 8.72937 23.1018C8.90483 23.0574 9.0803 23.0574 9.25576 23.0131C10.7472 22.3036 11.2736 22.7914 10.8788 24.3877C10.8349 24.5207 10.7911 24.6537 10.7911 24.8311C10.7033 25.4519 10.0454 26.1613 10.6595 26.6491C10.9227 26.8708 11.5368 25.9396 12.2825 26.0726C12.1509 26.5604 12.0632 27.0481 11.9316 27.5802C11.6684 28.7774 11.6684 28.7774 12.8089 29.6199C13.0282 29.7973 12.9844 30.285 13.0282 30.6841C12.5896 31.1275 12.1509 31.5709 11.7561 32.0587C11.5368 32.0143 11.3175 31.97 11.0981 31.97C10.1769 30.7728 8.99257 29.7529 8.6855 28.2453C8.51004 27.3142 7.80819 27.7132 7.36953 27.4915C7.1502 27.2255 6.93087 27.0038 6.71154 26.7821Z" fill="#A8A8A8"/>
<path d="M24.0824 9.62207C22.6787 7.1833 21.0995 4.83323 19.301 2.66051C20.1345 1.90671 20.9241 2.92656 21.7575 2.66051C22.1084 3.45865 22.6348 4.07943 23.4244 4.38981C24.8281 5.454 25.7055 6.9616 26.6705 8.38051C26.7144 9.04563 27.0214 9.40036 27.7672 9.31168C28.4252 9.26734 28.3374 9.75509 28.2058 10.1985C27.504 10.7749 26.7144 10.9966 25.8371 11.041C25.0475 10.8636 24.6088 10.1985 24.0824 9.62207Z" fill="#A8A8A8"/>
<path d="M26.6704 8.38046C25.7053 6.96155 24.828 5.45395 23.4243 4.38976C26.4072 3.19255 28.4689 4.25674 29.3901 7.53798C29.1708 10.1541 27.5916 8.24744 26.6704 8.38046Z" fill="#A8A8A8"/>
<path d="M30.75 14.2778C30.6184 13.5684 30.092 12.7259 30.8377 12.2825C31.4519 11.8834 31.9344 12.8589 32.5924 12.9476C34.3032 13.7457 34.5664 15.2533 34.6102 16.894C34.4786 17.027 34.347 17.16 34.2154 17.293C32.5924 16.8496 32.0221 15.1646 30.75 14.2778Z" fill="#A8A8A8"/>
<path d="M16.2304 34.054C15.8356 34.4087 15.8794 35.3842 14.9144 35.0295C13.7739 34.0984 12.5456 33.2559 11.7122 32.0587C12.1508 31.6153 12.5895 31.1718 12.9843 30.6841C14.5196 30.5954 14.2125 32.5464 15.353 32.8568C15.6601 33.2559 15.9233 33.6549 16.2304 34.054Z" fill="#A8A8A8"/>
<path d="M4.34285 34.187C5.08858 34.0097 5.8343 33.9653 6.44842 34.6304C6.79935 34.7635 7.10641 34.8965 7.45734 35.0295C5.87816 35.9607 4.25512 35.6946 2.63208 35.2512C2.93914 34.4531 3.72873 34.4087 4.34285 34.187Z" fill="#A8A8A8"/>
<path d="M26.7581 28.334C27.9425 29.3538 29.1269 30.418 30.3112 31.4379C27.9425 32.3247 25.5299 32.6794 22.5908 32.2803C23.5998 32.7681 24.3893 32.3247 24.9596 32.9898C24.8719 33.7436 24.0823 33.5662 23.6875 33.8766C22.7663 33.2115 21.1871 34.7191 20.573 32.9454C21.538 32.1473 22.2399 31.0388 23.5559 30.6841C24.17 30.5067 23.7752 30.3293 23.7313 29.9303C23.5997 28.8217 23.4243 27.5802 24.0823 26.516C25.0035 27.1811 25.8808 27.7575 26.7581 28.334Z" fill="#A8A8A8"/>
<path d="M9.65048 35.0295C8.90475 35.0295 8.15903 35.0295 7.41331 34.9852C7.06238 34.8522 6.75532 34.7192 6.40439 34.5861C5.13228 32.2804 5.26387 28.201 6.66759 26.7821C6.88692 27.0038 7.10625 27.2255 7.32558 27.4029C8.37836 29.3095 9.51888 31.1719 9.91367 33.3446C10.0453 34.0097 10.0453 34.5418 9.65048 35.0295Z" fill="#A8A8A8"/>
<path d="M30.7499 14.2779C32.0221 15.1647 32.5923 16.8496 34.2154 17.2931C34.5663 17.8695 35.0488 18.6676 33.8206 18.6233C31.4079 18.4903 29.1269 19.6875 26.6704 19.111C27.3284 18.0469 28.3812 18.845 29.3462 18.4016C26.9775 18.1355 28.3373 16.4062 27.9864 15.2977C29.3024 15.9628 29.6094 13.9231 30.7499 14.2779Z" fill="#A8A8A8"/>
<path d="M16.2303 34.054C15.9233 33.6549 15.6601 33.2558 15.353 32.8124C16.4935 31.0831 17.985 32.1473 19.3448 32.3246C19.7396 33.4775 20.3099 34.5417 21.5381 35.6502C19.1694 36.271 17.5463 35.6946 16.2303 34.054Z" fill="#A8A8A8"/>
<path d="M28.2058 10.1985C28.8638 9.71071 29.4341 9.2673 29.7411 10.5089C30.2237 12.5485 29.2586 13.9675 27.1969 14.2335C26.8021 13.125 25.7493 12.3268 25.8809 11.0409C26.7144 11.0409 27.504 10.7749 28.2058 10.1985Z" fill="#A8A8A8"/>
<path d="M16.9762 24.698C20.1784 22.6583 17.5026 22.1706 16.2305 21.0177C17.8974 21.0177 19.345 21.0177 20.9241 21.0177C20.2223 22.0819 17.0201 22.5696 20.2661 24.698C19.0379 24.698 18.2044 24.698 16.9762 24.698Z" fill="#A8A8A8"/>
<path d="M26.7583 28.3339C25.881 27.7575 25.0037 27.1367 24.1264 26.5603C24.0825 25.6735 24.258 25.0527 25.3546 25.3187C26.6706 25.8508 27.7234 26.6046 27.6795 28.2452C27.3286 28.3339 27.0215 28.3339 26.7583 28.3339Z" fill="#A8A8A8"/>
<path d="M24.6966 15.5194C23.9508 17.1601 22.0646 16.5836 20.7925 18.1799C21.4943 15.5194 22.6787 14.8543 24.6966 15.5194Z" fill="#A8A8A8"/>
<path d="M12.1509 15.342C13.7739 15.2977 15.2215 14.8099 15.7918 16.8496C14.3003 17.2043 13.2914 16.5836 12.1509 15.342Z" fill="#A8A8A8"/>
<path d="M9.21181 23.013C9.03635 23.0574 8.86088 23.0574 8.68542 23.1017C8.33449 23.1461 7.98356 23.1904 7.9397 22.7026C7.9397 22.5696 8.02743 22.3923 8.11516 22.3479C8.72929 22.1706 8.99248 22.5696 9.21181 23.013Z" fill="#A8A8A8"/>
<path d="M50.4459 8.86825C52.8586 8.91259 55.5782 8.55786 58.2102 9.40034C62.1581 10.6862 64.3953 13.258 65.6236 17.3374C66.6763 20.8403 65.141 23.4121 63.6935 26.0282C62.202 28.7331 59.4385 29.7529 56.5433 30.1963C52.5515 30.8171 48.5158 30.285 44.524 30.5954C44.0415 30.6397 43.6028 30.551 43.4712 30.0189C43.3396 29.4869 43.6467 29.2208 44.1292 29.0878C46.3664 28.334 46.7173 26.5603 46.6735 24.4763C46.5857 21.062 46.5419 17.6921 46.6296 14.2779C46.6735 12.4599 46.1471 11.1296 44.5679 10.2428C44.1292 9.97677 43.2958 9.75507 43.6028 9.00127C43.9099 8.24747 44.6118 8.82391 45.182 8.82391C46.8051 8.86825 48.472 8.86825 50.4459 8.86825ZM47.7701 19.9979C47.5069 17.1157 48.779 14.2779 47.9894 11.3513C47.2437 14.2335 46.7612 17.0713 47.7701 19.9979C47.6824 21.6385 47.6385 23.2791 47.463 24.9197C47.3753 26.0282 47.4192 27.0924 48.2088 27.9349C47.3753 28.0236 46.498 27.9349 45.9277 29.0878C49.1299 29.0878 52.1567 29.0878 55.1396 29.0878C53.9552 28.8661 52.727 28.9104 51.5426 28.8217C50.3582 28.7331 48.9984 29.2651 48.1649 27.9349C49.3931 24.6093 48.4281 21.1951 48.5597 17.8251C48.121 18.4903 48.472 19.4214 47.7701 19.9979ZM63.1671 21.7272C63.0793 22.6583 63.0355 23.6338 62.9477 24.565C64.2637 22.0819 64.483 19.3771 64.0883 16.761C63.7812 14.7213 63.1671 12.5486 60.579 12.1051C59.921 11.8834 59.3946 11.041 58.2541 11.5731C60.1403 13.125 61.544 14.81 61.8511 17.1157C62.1581 19.2441 61.9388 21.3724 61.7195 23.6338C62.6845 23.1461 62.5968 22.1706 63.1671 21.7272ZM51.3233 19.111C51.3233 21.0177 51.3233 22.9687 51.3233 24.8754C51.3233 25.7179 51.3671 26.516 52.3322 26.9151C55.7976 28.334 60.1403 26.1169 61.0615 22.481C61.5879 20.3526 61.5002 18.2242 60.7983 16.1402C60.228 14.4552 59.2191 12.9033 57.4645 12.5929C56.1924 12.3712 55.008 12.1051 53.7797 11.7504C52.3322 11.3513 51.1917 11.8391 51.3233 13.7901C51.411 15.5638 51.3233 17.3374 51.3233 19.111ZM49.7002 26.8707C49.7002 21.8602 49.7002 16.8053 49.7002 11.7948C49.0422 16.8053 49.0861 21.8158 49.7002 26.8707ZM61.0176 25.3188C58.0786 28.4227 54.3061 27.9793 50.6214 27.8462C55.1396 29.1321 59.7894 28.0236 61.0176 25.3188ZM50.8407 9.31166C49.3054 9.31166 48.2965 9.26732 47.2876 9.31166C46.8489 9.31166 46.0593 9.08995 46.0593 9.75507C46.0593 10.5089 46.8489 10.8193 47.5069 10.6419C48.472 10.4202 49.3931 9.93243 50.8407 9.31166Z" fill="#A8A8A8"/>
<path d="M67.6413 18.3572C67.6413 16.8053 67.5974 15.2533 67.6413 13.7014C67.729 12.0608 67.2904 10.7749 65.7551 10.0654C65.3603 9.88807 64.8339 9.75505 65.0094 9.17861C65.1848 8.60218 65.7112 8.77954 66.106 8.77954C68.6502 8.77954 71.2383 8.77954 73.7825 8.7352C74.1335 8.7352 74.5721 8.64652 74.7476 9.04559C75.0108 9.62202 74.5721 9.84373 74.1773 10.0654C72.8614 10.8636 72.7298 12.1051 72.642 13.4797C72.4227 16.4949 72.4227 19.5101 72.6859 22.5253C72.9491 25.4961 74.4405 26.8264 77.3357 26.9151C79.1342 26.9594 79.8361 25.9839 80.187 24.5206C80.8011 21.9045 80.5818 19.244 80.5818 16.5836C80.5818 15.8741 80.494 15.1203 80.5818 14.4109C80.7572 12.6816 80.494 11.174 78.8271 10.2428C78.4762 10.0654 77.9498 9.79939 78.0814 9.2673C78.2569 8.55784 78.871 8.86823 79.3535 8.86823C81.4591 8.86823 83.6085 8.86823 85.7141 8.82388C86.1528 8.82388 86.5914 8.60218 86.8546 9.17861C87.0301 9.62202 86.723 9.93241 86.416 10.1098C84.6613 11.1296 84.749 12.8146 84.7052 14.5882C84.6174 18.6233 85.1438 22.7026 83.8279 26.6933C83.3015 28.334 82.3803 29.2651 80.9766 29.9746C75.8004 32.5907 69.0012 29.8416 67.7729 24.3876C67.3342 22.4366 67.6852 20.3526 67.6413 18.3572C67.6852 18.3572 67.6852 18.3572 67.6413 18.3572ZM70.5803 11.5287C70.8874 10.9079 71.8086 10.7306 71.8086 9.75505C70.3171 9.57768 68.9134 9.44466 67.3342 9.84373C68.1238 10.5088 68.6941 11.0409 69.3082 11.5287C68.9134 11.7061 68.5186 11.9721 68.5186 12.4599C68.5625 16.6279 67.9922 20.8403 68.9134 24.964C69.7469 28.6444 76.6777 31.0388 79.9238 28.9547C80.1431 28.8217 80.7134 28.6 80.1431 28.2009C80.0115 28.1123 79.7483 28.2009 79.529 28.2009C84.0472 24.2102 81.9855 18.978 82.2926 14.1448C80.6256 18.7563 82.9505 24.3876 78.6517 28.334C75.4495 29.3538 72.3788 28.2896 71.019 25.7178C71.8524 26.0726 72.2911 27.1811 73.3878 27.0481C70.9313 23.3234 70.5365 19.244 71.2822 14.8986C71.4577 13.8344 72.1156 12.3712 70.5803 11.5287ZM80.3186 9.79939C82.6873 11.7947 82.6873 11.7947 84.0911 9.84373C82.9067 9.57768 81.7662 9.66637 80.3186 9.79939Z" fill="#A8A8A8"/>
<path d="M148.969 20.1309C148.574 17.5591 149.539 15.2977 147.828 13.4797C147.653 13.3024 147.741 12.6816 147.96 12.4599C148.969 11.3514 148.179 10.7749 147.39 10.1985C147.083 9.93244 146.469 9.84376 146.6 9.26733C146.776 8.55787 147.434 8.82391 147.872 8.82391C150.153 8.82391 152.391 8.82391 154.672 8.82391C155.154 8.82391 155.768 8.55787 155.988 9.22298C156.163 9.75508 155.637 9.97678 155.286 10.1985C154.189 10.9079 153.882 11.9721 153.882 13.258C153.882 15.7855 153.75 18.2686 153.75 20.796C153.75 22.0376 153.882 23.3234 154.365 24.4763C155.154 26.3386 156.909 27.1811 159.278 26.9594C161.208 26.7377 161.602 25.1414 161.69 23.7225C161.909 20.0422 161.866 16.3619 161.909 12.7259C161.909 11.3957 160.944 10.8193 160.067 10.1985C159.716 9.93244 159.234 9.75508 159.453 9.17864C159.628 8.69089 160.023 8.82391 160.374 8.82391C162.699 8.82391 165.024 8.77957 167.393 8.82391C167.656 8.82391 168.007 8.9126 168.138 9.08996C168.402 9.44469 168.182 9.84376 167.875 10.0211C165.814 11.2183 166.077 13.1693 166.077 15.1203C166.077 17.8695 166.164 20.6186 165.901 23.3234C165.463 27.8906 163.138 30.4624 159.453 30.7284C153.882 31.1718 150.197 29.0434 149.101 24.3876C148.662 22.8357 148.969 21.1507 148.969 20.1309ZM150.417 11.4844C150.855 11.4844 151.294 11.5287 151.776 11.5287C151.25 16.0959 150.855 20.6186 152.04 25.1414C150.022 22.9687 151.382 20.1752 150.768 17.6478C150.066 19.1997 149.934 20.7517 149.89 22.2593C149.802 24.7424 150.373 27.1811 152.917 28.4227C155.066 29.4869 157.391 29.8416 159.76 29.4425C161.909 29.0878 163.357 27.8019 164.059 25.7622C165.506 21.4168 164.673 16.9827 164.673 12.5929C164.147 14.9873 164.059 17.3817 164.322 19.8205C164.541 21.7715 164.234 23.5895 163.269 25.2745C163.357 23.6782 164.147 22.0376 163.313 20.4413C164.541 17.4704 163.182 14.4996 163.269 11.5287C164.278 11.44 165.024 10.9966 165.506 9.75508C164.234 9.75508 163.094 9.44469 161.866 10.0211C162.348 10.6862 163.094 10.8636 163.313 11.5731C162.611 14.5439 163.006 17.5148 163.357 20.4856C162.26 22.3923 162.918 24.698 161.471 26.8707C162.699 26.4717 162.787 25.6735 163.313 25.2745C163.313 26.6934 162.392 27.7132 161.295 28.201C159.058 29.2208 156.777 28.9991 154.628 27.8462C155.066 27.8906 155.549 28.0679 156.075 27.7132C153.443 26.2943 152.785 23.8999 152.698 21.3281C152.61 18.7563 152.698 16.1845 152.698 13.6128C152.698 12.859 152.961 11.9278 151.82 11.6174C152.259 11.0853 153.049 10.8193 153.18 9.75508C151.82 9.75508 150.548 9.44469 149.101 9.97678C149.583 10.5976 150.022 11.041 150.417 11.4844C149.715 13.5241 149.583 15.6081 149.802 17.7365C150.197 15.6968 151.162 13.7014 150.417 11.4844Z" fill="#A8A8A8"/>
<path d="M97.2511 8.73519C98.1722 8.77953 98.8741 8.69085 99.4882 8.86821C101.725 9.57767 103.305 8.91255 104.489 6.91721C104.708 6.51814 104.971 6.07472 105.498 6.29643C106.112 6.51814 106.068 7.05023 105.937 7.62666C105.454 10.1541 104.928 12.6815 104.445 15.209C104.357 15.6967 104.182 16.0958 103.699 16.1402C103.173 16.1845 102.998 15.7854 102.91 15.2977C102.296 12.2381 99.883 12.3268 97.602 12.2825C94.6191 12.2381 92.8645 13.258 91.9871 15.6081C90.9344 18.5346 90.8466 21.4611 92.9961 23.9885C95.1894 26.5603 98.1722 26.8707 101.243 26.4273C102.647 26.2056 103.568 25.0084 104.489 23.8998C104.796 23.5008 105.059 22.9243 105.673 23.2791C106.287 23.5895 106.068 24.0772 105.893 24.6093C105.366 26.3386 105.366 28.6443 104.226 29.7529C102.866 31.0831 100.366 30.5953 98.3916 30.9501C94.7946 31.5709 88.9604 27.1367 87.6444 23.4564C85.9336 18.6676 87.3812 13.258 91.1098 10.4202C93.0399 9.00124 95.1894 8.51349 97.2511 8.73519ZM93.0399 12.0608C96.2421 10.4645 99.4444 10.7749 103.217 12.1938C100.234 10.1541 98.3038 10.0211 93.3908 11.174C93.8295 10.6862 94.2243 10.2428 94.8823 9.53333C89.9254 10.8636 87.0741 15.6081 88.0831 20.5743C89.1797 19.0223 88.6533 17.027 89.7061 15.5637C89.5306 16.7166 89.3552 17.9138 89.8377 19.111C90.1448 16.4062 90.8905 13.9231 93.0399 12.0608ZM89.9254 21.8158C89.4429 21.9045 89.1358 20.9733 88.6095 21.5054C88.1708 21.9488 88.2147 22.5696 88.434 23.146C89.4868 25.5848 91.1537 27.3584 94.005 28.4226C93.4786 27.7575 93.2154 27.3584 92.9522 27.0037C95.5841 28.1122 98.26 28.9104 101.155 27.8462C97.7336 28.2009 94.6191 27.6245 92.1626 24.964C91.3291 24.0329 90.6712 22.88 89.9254 21.8158Z" fill="#A8A8A8"/>
<path d="M124.799 30.152C124.009 30.152 123.176 30.152 122.386 30.152C121.29 30.152 119.316 31.0388 121.158 28.5113C121.948 27.4028 120.456 26.1169 119.974 24.9641C119.535 23.9442 115.631 23.3234 114.315 24.1216C112.911 25.0084 112.867 26.6934 112.516 28.201C112.472 28.334 112.736 28.6 112.867 28.6887C113.306 28.9991 114.227 28.9991 113.964 29.7972C113.701 30.6841 112.823 30.1963 112.253 30.1963C110.411 30.2406 108.612 30.2406 106.77 30.2406C106.287 30.2406 105.629 30.4623 105.454 29.7972C105.278 29.0434 105.893 28.9991 106.419 28.9104C107.998 28.6444 108.7 27.4915 109.27 26.1169C111.551 20.3969 114.359 14.8543 116.333 9.00126C116.464 8.64653 116.596 8.20312 116.947 8.20312C117.693 8.11444 117.824 8.8239 118.087 9.35599C119.93 13.2137 121.86 17.027 123.571 20.929C124.492 23.0574 126.334 24.6537 126.685 27.0924C126.817 27.9349 127.738 28.467 128.571 28.8217C129.01 28.9991 129.493 29.2208 129.361 29.7085C129.229 30.418 128.615 30.2406 128.133 30.2406C126.992 30.1963 125.895 30.1963 124.799 30.152C124.799 30.152 124.799 30.1963 124.799 30.152ZM122.386 24.5206C121.509 24.6537 121.509 23.1904 120.412 23.4121C120.719 25.1414 121.377 26.5603 122.737 28.0236C122.737 27.1811 122.737 26.649 122.737 26.1613C123.395 27.0037 123.746 28.334 125.325 27.8019C125.018 26.6047 123.878 26.1169 123.483 25.0971C123.746 24.9641 123.965 24.698 123.834 24.3876C121.728 19.9535 119.623 15.5637 117.342 10.7749C116.991 12.1938 117.605 12.9476 117.605 13.8344C117.385 13.8788 117.035 13.9231 117.035 13.9231C117.342 16.4949 118.307 18.8893 119.316 21.1951C119.579 21.8158 120.193 21.9932 120.544 21.1064C121.465 22.1262 122.43 23.1461 122.913 24.5206C122.781 24.6093 122.562 24.565 122.386 24.5206ZM116.552 17.027C116.201 18.0025 115.85 18.7563 115.631 19.5101C115.455 20.0865 114.754 20.796 115.412 21.2837C116.113 21.8158 117.166 21.7272 117.912 21.3281C118.701 20.8847 118 20.1309 117.824 19.5544C117.605 18.8006 117.517 17.8695 116.552 17.027ZM115.368 13.4354C113.92 16.8496 112.472 20.2639 111.025 23.6782C113.525 20.7516 114.271 17.0713 115.368 13.4354Z" fill="#A8A8A8"/>
<path d="M132.212 9.35597C136.16 8.9569 140.108 9.66636 144.012 9.00124C144.495 8.91256 145.021 9.00124 145.065 9.48899C145.197 11.0409 145.284 12.5929 145.197 14.1448C145.153 14.8543 144.495 14.7656 144.056 14.3665C143.617 14.0118 143.223 13.5684 142.74 13.1693C141.643 12.3268 140.327 12.2825 139.187 12.7702C138.222 13.1693 138.704 14.3665 138.704 15.209C138.661 18.4459 138.792 21.6828 138.704 24.8754C138.661 26.4716 139.099 27.6245 140.591 28.2453C141.117 28.467 141.819 28.6 141.687 29.3981C141.512 30.285 140.722 30.1076 140.064 30.1076C137.432 30.1076 134.8 30.1076 132.168 30.1519C131.642 30.1519 131.072 30.1076 130.852 29.5755C130.633 28.9547 131.116 28.733 131.598 28.4226C133.704 27.1811 134.449 24.964 133.44 22.614C133.09 21.8158 133.046 21.2394 133.353 20.3969C134.186 18.1355 134.055 15.6524 133.528 13.4354C133.177 11.7947 131.203 12.5485 129.975 12.9476C129.273 13.1693 128.659 13.8788 128.045 14.4109C127.606 14.7656 127.168 15.0316 126.641 14.6769C126.115 14.3222 126.203 13.7901 126.51 13.3023C126.597 13.1693 126.685 13.0363 126.773 12.9476C127.738 11.8834 125.983 9.7107 128.001 9.26729C129.361 8.91256 130.809 9.26729 132.212 9.35597ZM136.818 21.4167C137.915 18.8893 137.52 12.0608 136.116 10.9079C135.853 13.9231 136.204 16.8053 136.687 19.6874C135.371 21.3724 136.204 23.3234 136.116 25.1414C136.116 25.4961 136.467 25.8509 136.862 25.7622C137.345 25.6735 137.257 25.2301 137.213 24.8754C137.125 23.7668 136.95 22.5696 136.818 21.4167ZM136.906 10.2871C139.319 12.1938 141.731 10.6862 143.793 11.8391C143.881 10.7305 143.837 9.88806 142.565 9.9324C140.81 10.0211 139.099 10.1541 136.906 10.2871ZM128.089 12.3712C129.185 10.6862 131.379 11.6174 132.739 10.4202C128.747 9.66636 128.001 9.9324 128.089 12.3712ZM135.327 10.9523C134.406 13.1693 134.318 15.7411 134.976 17.9138C135.678 15.6524 135.59 13.4797 135.327 10.9523Z" fill="#A8A8A8"/>
<path d="M174.85 30.684C174.236 30.6397 173.709 30.5953 173.183 30.5066C169.279 29.9302 168.796 29.2651 169.367 25.4074C169.498 24.3876 169.586 23.3677 169.674 22.3479C169.717 21.9488 169.761 21.5497 170.156 21.4611C170.726 21.3724 170.814 21.8158 170.902 22.3035C171.033 23.013 171.297 23.7225 171.472 24.4319C171.998 26.3829 173.358 26.8707 175.201 26.5603C176.034 26.4273 176.736 26.0725 177.043 25.1857C177.35 24.2102 176.999 23.4121 176.253 22.8356C174.938 21.7714 173.534 20.8403 172.262 19.7318C169.63 17.426 169.016 14.9873 170.244 12.0164C171.165 9.71068 173.578 8.55781 176.868 8.82385C178.008 8.91254 179.105 9.22292 180.026 8.02571C180.64 7.22757 181.254 7.5823 181.21 8.55781C180.991 10.9079 180.684 13.258 180.377 15.608C180.333 16.0071 180.201 16.4062 179.763 16.3618C179.543 16.3618 179.236 16.0958 179.105 15.8741C178.71 15.1646 178.403 14.4108 178.008 13.7014C177.219 12.2381 176.034 12.3268 174.806 12.9476C173.446 13.657 173.534 14.7656 174.104 15.9628C174.543 16.8496 175.332 17.426 176.122 17.9581C177.219 18.7119 178.359 19.377 179.412 20.1308C181.474 21.5941 182.351 23.5451 181.781 26.0725C181.21 28.6443 179.5 29.9302 177.087 30.3736C176.341 30.551 175.552 30.5953 174.85 30.684ZM172.569 16.9826C171.384 17.4704 171.691 18.1355 172.393 18.8006C174.104 20.4412 175.99 21.9045 178.096 22.9687C179.719 22.1705 178.973 21.328 178.052 20.6629C176.21 19.3327 174.06 18.3572 172.744 16.3175C172.525 16.0071 172.613 16.7609 172.569 16.9826ZM178.096 10.1984C177.833 11.3513 178.666 11.9721 179.412 12.5928C178.491 12.0608 181.824 9.26726 178.096 10.1984C175.596 9.22292 172.92 9.62199 171.604 11.2626C170.332 12.9032 170.288 14.7212 170.858 17.1156C171.691 15.6967 171.165 14.6325 171.735 13.657C173.271 11.1739 175.42 10.2428 178.096 10.1984ZM178.227 27.3141C176.385 29.4425 173.929 28.4226 171.472 28.467C174.367 30.0189 178.491 29.4868 179.894 27.5358C180.991 25.9839 180.903 23.9442 179.675 22.6583C178.885 23.9442 180.465 25.6735 178.885 26.7376C178.798 26.1612 178.929 25.5404 178.184 25.1414C176.868 27.7575 174.63 27.8462 172.13 27.4028C174.236 28.6 176.21 28.1122 178.227 27.3141Z" fill="#A8A8A8"/>
<path d="M61.6758 13.7014C64.1762 16.0072 63.7375 18.845 63.1672 21.7272C63.255 18.978 63.2111 16.1845 61.6758 13.7014Z" fill="#A8A8A8"/>
<path d="M69.2644 11.5287C69.7031 11.5287 70.1856 11.5287 70.6243 11.5287C70.4049 16.2732 69.3521 21.062 71.0629 25.7622C69.7469 24.6536 69.7908 23.1017 69.7031 21.5498C69.5715 18.1799 70.1417 14.8099 69.2644 11.5287Z" fill="#A8A8A8"/>
</g>
<defs>
<clipPath id="clip0">
<rect width="182" height="37.2465" fill="white"/>
</clipPath>
</defs>
</svg>
