<svg width="68" height="16" viewBox="0 0 68 16" fill="none" xmlns="http://www.w3.org/2000/svg">
<path fill-rule="evenodd" clip-rule="evenodd" d="M13.932 11.1027C13.1063 11.1027 12.437 10.4357 12.437 9.61301V6.17246V5.93364C12.437 5.11086 11.7677 4.444 10.9421 4.444C10.1164 4.444 9.59373 5.11096 9.59373 5.93364V6.23949V9.61291C9.59373 10.4356 8.77773 11.1026 7.95216 11.1026C7.12648 11.1026 6.45723 10.4356 6.45723 9.61291V8.77297V6.19729C6.44246 6.18912 6.4274 6.18173 6.41264 6.17365V5.93364C6.41264 5.11086 5.87715 4.444 5.05158 4.444C4.22591 4.444 3.55665 5.11096 3.55665 5.93364V6.23839C3.55665 6.23839 3.60124 9.72194 3.7798 10.7014C3.95826 11.681 4.53844 12.2845 5.29708 13.0859C6.05571 13.8873 4.89546 15.7327 3.37819 14.7086C1.86091 13.6845 1.0908 12.3842 0.834531 10.7014C0.573372 8.98814 0.432617 5.96606 0.432617 5.96606C0.432617 5.96606 0.492171 4.88322 0.632127 4.64102C1.19764 2.813 2.90225 1.48486 4.91761 1.48486C6.07706 1.48486 7.13377 1.92458 7.92981 2.64611C8.72586 1.92458 9.78257 1.48486 10.9421 1.48486C12.9574 1.48486 14.662 2.813 15.2275 4.64102C15.3675 4.88322 15.427 5.96606 15.427 5.96606V8.77307V9.61301C15.427 10.4357 14.7577 11.1027 13.932 11.1027Z" fill="#4D525D"/>
<path fill-rule="evenodd" clip-rule="evenodd" d="M5.04333 4.35478C5.869 4.35478 6.53826 5.02175 6.53826 5.84443V9.28498V9.52379C6.53826 10.3466 7.20761 11.0135 8.03319 11.0135C8.85886 11.0135 9.52822 10.3466 9.52822 9.52379V9.21794V5.84443C9.52822 5.02175 10.1975 4.35478 11.0231 4.35478C11.8488 4.35478 12.5182 5.02175 12.5182 5.84443V6.68436V9.26004C12.5329 9.26822 12.548 9.2756 12.5628 9.28368V9.52379C12.5628 10.3466 13.0983 11.0135 13.9238 11.0135C14.7495 11.0135 15.4188 10.3466 15.4188 9.52379V9.21904C15.4188 9.21904 15.3742 5.73549 15.1956 4.756C15.017 3.7765 14.437 3.17298 13.6783 2.37155C12.9197 1.57012 14.0799 -0.275251 15.5972 0.748835C17.1145 1.77292 17.8846 3.07323 18.1409 4.756C18.4018 6.46929 18.5425 9.49137 18.5425 9.49137C18.5425 9.49137 18.4829 10.5742 18.343 10.8164C17.7775 12.6444 16.0728 13.9726 14.0575 13.9726C12.898 13.9726 11.8413 13.5329 11.0453 12.8113C10.2492 13.5329 9.19254 13.9726 8.03299 13.9726C6.01773 13.9726 4.31312 12.6444 3.74761 10.8164C3.60765 10.5742 3.5481 9.49137 3.5481 9.49137V6.68436V5.84443C3.54839 5.02175 4.21765 4.35478 5.04333 4.35478Z" fill="#FCD600"/>
<path d="M30.2004 3.55333C30.0199 3.43272 29.7765 3.37237 29.47 3.37237H28.9722C28.6727 3.37237 28.4555 3.39941 28.3202 3.45337C28.1849 3.50734 28.0849 3.6046 28.0199 3.74496C27.955 3.88531 27.8811 4.11405 27.7981 4.43077L26.6456 8.76703L25.4932 4.43077C25.4102 4.11405 25.3362 3.88541 25.2713 3.74496C25.2064 3.6046 25.1063 3.50734 24.971 3.45337C24.8358 3.39941 24.6184 3.37237 24.319 3.37237H23.8213C23.5146 3.37237 23.2711 3.43272 23.0908 3.55333C22.9105 3.67393 22.8203 3.90706 22.8203 4.25261V10.5166C22.8203 10.8227 22.8887 11.0504 23.0259 11.1998C23.163 11.3491 23.3397 11.4239 23.5561 11.4239C23.7798 11.4239 23.9592 11.3483 24.0945 11.1972C24.2298 11.0459 24.2974 10.8192 24.2974 10.5167V5.05185L25.5689 10.0955C25.6122 10.2611 25.6545 10.4204 25.6961 10.5734C25.7375 10.7264 25.7943 10.8659 25.8664 10.9919C25.9386 11.118 26.0396 11.2214 26.1694 11.3024C26.2993 11.3834 26.458 11.4239 26.6455 11.4239C26.8944 11.4239 27.0892 11.3609 27.2299 11.2349C27.3705 11.1089 27.467 10.9694 27.5194 10.8164C27.5717 10.6634 27.6393 10.4232 27.7223 10.0955L28.9938 5.05185V10.5167C28.9938 10.8191 29.0623 11.0459 29.1994 11.1972C29.3364 11.3484 29.5113 11.4239 29.7242 11.4239C29.9514 11.4239 30.1327 11.3483 30.2679 11.1972C30.4032 11.0459 30.4708 10.8192 30.4708 10.5167V4.25261C30.4708 3.90696 30.3807 3.67393 30.2004 3.55333ZM37.2286 3.2374C37.0988 3.2374 36.9887 3.26085 36.8986 3.30763C36.8084 3.35442 36.7263 3.42195 36.6524 3.51013C36.5783 3.59842 36.5108 3.69289 36.4495 3.79364C36.3881 3.89449 36.3123 4.01869 36.2222 4.16622L34.7235 6.56923L33.2411 4.16622C33.0139 3.79543 32.8434 3.54794 32.7298 3.42375C32.6162 3.29955 32.4493 3.2374 32.2293 3.2374C32.0201 3.2374 31.8443 3.30404 31.7018 3.43721C31.5593 3.57049 31.4881 3.7288 31.4881 3.91245C31.4881 4.02407 31.5233 4.15545 31.5937 4.30668C31.664 4.45791 31.7839 4.66849 31.9535 4.93853L33.8904 7.93557V10.4466C33.8904 10.7779 33.9644 11.0236 34.1123 11.1837C34.2601 11.3438 34.4532 11.424 34.6912 11.424C34.9256 11.424 35.1186 11.343 35.2702 11.181C35.4217 11.019 35.4974 10.7742 35.4974 10.4466V7.93547L37.4831 4.89523C37.649 4.64684 37.7662 4.45242 37.8349 4.31207C37.9033 4.17171 37.9377 4.03126 37.9377 3.8909C37.9377 3.71812 37.8701 3.5661 37.7348 3.43462C37.5993 3.30314 37.4306 3.2374 37.2286 3.2374ZM48.2978 3.2374C48.0885 3.2374 47.9289 3.29137 47.8189 3.39941C47.7089 3.50744 47.6313 3.62984 47.5863 3.76661C47.5411 3.90347 47.4934 4.09241 47.443 4.33361L46.404 8.95607L45.2299 4.63068C45.1325 4.27426 45.0549 4.01869 44.9973 3.86387C44.9395 3.70915 44.8358 3.566 44.6861 3.43462C44.5364 3.30324 44.3263 3.2375 44.0558 3.2375C43.7888 3.2375 43.5778 3.30055 43.4227 3.42654C43.2676 3.55263 43.1558 3.70196 43.0873 3.87474C43.0187 4.04752 42.9411 4.2996 42.8546 4.63078L41.6915 8.95607L40.6526 4.33361C40.5769 3.97719 40.4884 3.70546 40.3875 3.51822C40.2864 3.33107 40.0899 3.2374 39.7977 3.2374C39.5849 3.2374 39.4063 3.30763 39.2621 3.44799C39.1177 3.58834 39.0456 3.76122 39.0456 3.96641C39.0456 4.12842 39.0852 4.36424 39.1646 4.67378L40.4847 10.0036C40.5245 10.1621 40.5694 10.3339 40.62 10.5193C40.6705 10.7048 40.7354 10.8649 40.8148 10.9999C40.8941 11.1349 40.9979 11.2395 41.126 11.3132C41.254 11.3869 41.4172 11.4239 41.6157 11.4239C41.8609 11.4239 42.0575 11.3619 42.2054 11.2377C42.3533 11.1135 42.457 10.973 42.5166 10.8165C42.5761 10.6599 42.6563 10.4016 42.7574 10.0416L44.0559 5.29495L45.3381 10.0416C45.4427 10.4124 45.5239 10.6743 45.5816 10.8273C45.6393 10.9803 45.7421 11.1181 45.8901 11.2404C46.0379 11.3628 46.2345 11.424 46.4798 11.424C46.7395 11.424 46.9406 11.361 47.0832 11.235C47.2256 11.109 47.3267 10.9622 47.3861 10.7949C47.4457 10.6275 47.5205 10.3638 47.6107 10.0038L48.9308 4.67398C49.0101 4.34997 49.0498 4.11425 49.0498 3.96661C49.0498 3.75783 48.9768 3.58415 48.8307 3.44549C48.6846 3.30673 48.507 3.2374 48.2978 3.2374ZM50.976 3.2374C50.7415 3.2374 50.5503 3.31841 50.4025 3.48041C50.2546 3.64241 50.1806 3.88541 50.1806 4.20942V10.4464C50.1806 10.7704 50.2555 11.0143 50.4052 11.1781C50.5548 11.3419 50.7452 11.4238 50.976 11.4238C51.2176 11.4238 51.4133 11.3428 51.5631 11.1808C51.7127 11.0188 51.7876 10.774 51.7876 10.4464V4.20942C51.7876 3.88192 51.7127 3.63792 51.5631 3.47771C51.4133 3.31761 51.2176 3.2374 50.976 3.2374ZM58.8024 7.21723C58.5481 7.03728 58.2397 6.88425 57.8772 6.75826C57.5146 6.63227 57.1097 6.51715 56.6624 6.41271C56.3053 6.32273 56.0491 6.2543 55.8941 6.20751C55.739 6.16073 55.5858 6.09599 55.4343 6.01309C55.2827 5.93029 55.1637 5.83134 55.0771 5.71612C54.9905 5.601 54.9472 5.46414 54.9472 5.30573C54.9472 5.05015 55.0744 4.83149 55.3287 4.64964C55.583 4.46788 55.9176 4.37691 56.3323 4.37691C56.7795 4.37691 57.1042 4.4606 57.3063 4.62799C57.5083 4.79538 57.6813 5.02851 57.8257 5.32727C57.9374 5.53606 58.0412 5.68639 58.1368 5.77817C58.2324 5.86994 58.3721 5.91583 58.5561 5.91583C58.7581 5.91583 58.9267 5.83942 59.0619 5.68629C59.1972 5.53337 59.2648 5.36149 59.2648 5.17056C59.2648 4.96177 59.2108 4.7476 59.1025 4.52794C58.9943 4.30838 58.8229 4.09859 58.5885 3.89878C58.354 3.69897 58.0591 3.53886 57.7039 3.41816C57.3485 3.29756 56.9275 3.2373 56.4405 3.2373C55.8309 3.2373 55.3007 3.32828 54.8498 3.51004C54.3988 3.69189 54.0544 3.95195 53.8163 4.29032C53.5782 4.62879 53.4592 5.01574 53.4592 5.45137C53.4592 5.90865 53.5719 6.29111 53.7974 6.59885C54.0227 6.9067 54.3276 7.1496 54.7117 7.32786C55.0959 7.50603 55.5728 7.66184 56.1428 7.79492C56.5684 7.89208 56.9084 7.98395 57.1627 8.07034C57.417 8.15673 57.6244 8.28182 57.7849 8.44562C57.9454 8.60952 58.0257 8.82279 58.0257 9.08555C58.0257 9.41683 57.877 9.69306 57.5793 9.91441C57.2817 10.1358 56.8949 10.2465 56.4187 10.2465C56.0725 10.2465 55.7929 10.1916 55.5801 10.0818C55.3672 9.97207 55.2022 9.83251 55.085 9.66333C54.9678 9.49414 54.8586 9.28356 54.7577 9.03148C54.6747 8.8191 54.5746 8.6589 54.4574 8.55086C54.3402 8.44283 54.1968 8.38886 54.0273 8.38886C53.818 8.38886 53.6458 8.45819 53.5106 8.59675C53.3753 8.73541 53.3077 8.9018 53.3077 9.09622C53.3077 9.431 53.4204 9.77575 53.6458 10.1303C53.8712 10.4849 54.1644 10.7684 54.5251 10.9808C55.0336 11.2761 55.6793 11.4236 56.462 11.4236C57.1148 11.4236 57.6794 11.3156 58.1556 11.0996C58.6317 10.8836 58.9933 10.5849 59.2404 10.2032C59.4874 9.82164 59.611 9.3914 59.611 8.91257C59.611 8.51295 59.5398 8.17548 59.3973 7.90006C59.2551 7.62493 59.0567 7.39729 58.8024 7.21723ZM67.4431 3.47771C67.2933 3.31761 67.0976 3.2374 66.856 3.2374C66.618 3.2374 66.4259 3.31841 66.2798 3.48041C66.1337 3.64241 66.0607 3.88541 66.0607 4.20942V6.47745H62.5925V4.20942C62.5925 3.88192 62.5176 3.63792 62.3679 3.47771C62.2182 3.31761 62.0225 3.2374 61.7809 3.2374C61.5356 3.2374 61.3416 3.31841 61.1992 3.48041C61.0566 3.64241 60.9855 3.88541 60.9855 4.20942V10.4464C60.9855 10.7704 61.0576 11.0143 61.202 11.1781C61.3462 11.3419 61.5393 11.4238 61.7809 11.4238C62.019 11.4238 62.2137 11.3428 62.3652 11.1808C62.5168 11.0188 62.5925 10.774 62.5925 10.4464V7.78424H66.0607V10.4465C66.0607 10.7705 66.1328 11.0144 66.2771 11.1782C66.4214 11.342 66.6144 11.4239 66.856 11.4239C67.0941 11.4239 67.2888 11.3429 67.4404 11.1809C67.5919 11.0189 67.6676 10.7741 67.6676 10.4464V4.20942C67.6676 3.88182 67.5927 3.63792 67.4431 3.47771Z" fill="#4D525D"/>
</svg>
