<svg width="136" height="54" viewBox="0 0 136 54" fill="none" xmlns="http://www.w3.org/2000/svg">
<path d="M74.1492 17.393C75.9833 19.0088 76.9004 21.4106 76.9004 24.511V40.6248H72.8828V25.9084C72.8828 23.2883 72.3151 21.3669 71.1797 20.1878C70.0444 19.0088 68.5596 18.4411 66.6819 18.4411C65.3655 18.4392 64.0661 18.7379 62.8827 19.3144C61.6584 19.9695 60.6556 20.9724 60.0005 22.1966C59.2145 23.5067 58.8651 25.2097 58.8651 27.2185V40.6248H54.804V16.1703L58.5158 17.6987L58.6031 19.3581C59.3718 17.8878 60.598 16.7075 62.0966 15.9956C63.6456 15.2409 65.3522 14.8666 67.0749 14.9039C69.9279 14.9039 72.286 15.7336 74.1492 17.393Z" fill="#A8A8A8"/>
<path d="M105.591 29.5329H86.5947C86.813 32.1094 87.6864 34.0745 89.1275 35.4719C90.5686 36.8693 92.49 37.6116 94.8044 37.6116C96.4011 37.656 97.9862 37.327 99.4333 36.6509C100.592 36.0748 101.484 35.0736 101.922 33.8561L105.285 35.6465C104.369 37.3621 102.973 38.7734 101.267 39.7077C99.608 40.6685 97.4246 41.1488 94.8044 41.1488C91.0052 41.1488 88.0358 39.9698 85.8523 37.6553C83.6689 35.3409 82.6208 32.1094 82.6208 28.0045C82.6208 23.8996 83.6252 20.7118 85.7213 18.3974C87.8174 16.0829 90.6996 14.9039 94.4987 14.9039C96.6435 14.8466 98.7613 15.3912 100.612 16.476C102.291 17.4811 103.642 18.9528 104.499 20.7118C105.388 22.5793 105.837 24.6262 105.809 26.6944C105.801 27.6445 105.728 28.5929 105.591 29.5329ZM89.1275 20.4061C87.7738 21.7162 86.944 23.5503 86.6384 25.9521H101.922C101.66 23.594 100.874 21.7599 99.608 20.4498C98.3416 19.1398 96.6385 18.441 94.4987 18.441C92.359 18.441 90.4812 19.0961 89.1275 20.4061Z" fill="#A8A8A8"/>
<path d="M132.49 18.3973C134.674 20.7118 135.766 23.8996 135.766 28.0044C135.766 32.1093 134.674 35.3408 132.49 37.6552C130.307 39.9697 127.338 41.1487 123.538 41.1487C119.739 41.1487 116.77 39.9697 114.586 37.6552C112.403 35.3408 111.355 32.1093 111.355 28.0044C111.355 23.8996 112.446 20.7118 114.586 18.3973C116.726 16.0829 119.739 14.9038 123.538 14.9038C127.338 14.9038 130.351 16.0829 132.49 18.3973ZM117.556 20.9738C116.115 22.6768 115.372 25.035 115.372 28.0044C115.372 30.9739 116.115 33.3757 117.556 35.0788C118.997 36.7819 121.006 37.6552 123.538 37.6552C126.071 37.6552 128.124 36.7819 129.565 35.0788C131.006 33.3757 131.704 31.0176 131.704 28.0044C131.704 24.9913 131.006 22.6768 129.565 20.9738C128.124 19.2707 126.115 18.3973 123.538 18.3973C120.962 18.3973 118.997 19.227 117.556 20.9738Z" fill="#A8A8A8"/>
<path d="M0 10.0565V45.1226L22.7951 53.2886V17.9169L47.3806 8.87749L25.0659 0.886108L0 10.0565Z" fill="#A8A8A8"/>
<path d="M24.6292 19.227V38.1356L47.3806 46.258V10.799L24.6292 19.227Z" fill="#A8A8A8"/>
</svg>
