<svg width="153" height="55" viewBox="0 0 153 55" fill="none" xmlns="http://www.w3.org/2000/svg">
<path d="M85.8893 27.2319C85.8893 29.0375 85.6087 30.7414 85.022 32.3182C84.4353 33.9203 83.619 35.2936 82.5221 36.4889C81.4252 37.6842 80.0988 38.6251 78.4917 39.3372C76.8846 40.0493 75.0735 40.3799 73.0327 40.3799C70.992 40.3799 69.1809 40.0239 67.5738 39.3372C65.9667 38.6251 64.6402 37.6842 63.5434 36.4889C62.4465 35.2936 61.6047 33.8949 61.0435 32.3182C60.4823 30.716 60.2017 29.0375 60.2017 27.2319C60.2017 25.4517 60.4823 23.7478 61.0435 22.1456C61.6047 20.5435 62.4465 19.1447 63.5434 17.9495C64.6402 16.7542 65.9922 15.8132 67.5738 15.1012C69.1809 14.3891 70.992 14.0585 73.0327 14.0585C75.0735 14.0585 76.8846 14.4145 78.4917 15.1012C80.0988 15.8132 81.4252 16.7542 82.5221 17.9495C83.619 19.1447 84.4353 20.5435 85.022 22.1456C85.6087 23.7478 85.8893 25.4517 85.8893 27.2319ZM73.0582 36.2092C74.3082 36.2092 75.4051 35.9803 76.3234 35.5225C77.2673 35.0648 78.0325 34.429 78.6702 33.6406C79.308 32.8268 79.7671 31.8858 80.0732 30.7923C80.3794 29.6987 80.5324 28.5035 80.5324 27.2319C80.5324 25.9603 80.3794 24.7651 80.0732 23.6715C79.7671 22.578 79.308 21.637 78.6702 20.8232C78.0325 20.0094 77.2673 19.3991 76.3234 18.9413C75.3796 18.4835 74.3082 18.2546 73.0582 18.2546C71.8083 18.2546 70.7114 18.4835 69.7931 18.9413C68.8492 19.3991 68.084 20.0348 67.4462 20.8232C66.8085 21.637 66.3494 22.578 66.0432 23.6715C65.7371 24.7651 65.5841 25.9603 65.5841 27.2319C65.5841 28.5035 65.7371 29.6987 66.0432 30.7923C66.3494 31.8858 66.8085 32.8268 67.4462 33.6406C68.084 34.4544 68.8492 35.0648 69.7931 35.5225C70.7114 35.9803 71.8083 36.2092 73.0582 36.2092ZM89.2565 39.9476V14.5162H94.6134V26.7233L103.465 14.5162H109.664L100.276 27.0793L110.302 39.9476H103.669L94.5879 27.4608V39.9476H89.2565ZM112.444 14.5162H127.775V18.7633H117.827V24.9177H127.316V29.1393H117.827V35.7005H127.903V39.9476H112.47V14.5162H112.444ZM146.882 14.5162H152.698L144.305 27.1556L152.851 39.9476H146.984L141.474 31.2755L135.964 39.9476H130.097L138.642 27.1556L130.25 14.5162H136.066L141.474 23.112L146.882 14.5162Z" fill="#A8A8A8"/>
<path opacity="0.9" d="M27.04 24.7396C33.8024 24.7396 39.2844 19.2744 39.2844 12.5326C39.2844 5.79084 33.8024 0.325562 27.04 0.325562C20.2776 0.325562 14.7957 5.79084 14.7957 12.5326C14.7957 19.2744 20.2776 24.7396 27.04 24.7396Z" fill="#A8A8A8" fill-opacity="0.9"/>
<path opacity="0.9" d="M27.04 54.2401C33.8024 54.2401 39.2844 48.7749 39.2844 42.0331C39.2844 35.2913 33.8024 29.826 27.04 29.826C20.2776 29.826 14.7957 35.2913 14.7957 42.0331C14.7957 48.7749 20.2776 54.2401 27.04 54.2401Z" fill="#A8A8A8" fill-opacity="0.9"/>
<path opacity="0.9" d="M41.8349 39.4896C48.5973 39.4896 54.0793 34.0244 54.0793 27.2826C54.0793 20.5408 48.5973 15.0756 41.8349 15.0756C35.0726 15.0756 29.5906 20.5408 29.5906 27.2826C29.5906 34.0244 35.0726 39.4896 41.8349 39.4896Z" fill="#A8A8A8" fill-opacity="0.9"/>
<path opacity="0.9" d="M12.2444 39.4896C19.0068 39.4896 24.4887 34.0244 24.4887 27.2826C24.4887 20.5408 19.0068 15.0756 12.2444 15.0756C5.48199 15.0756 0 20.5408 0 27.2826C0 34.0244 5.48199 39.4896 12.2444 39.4896Z" fill="#A8A8A8" fill-opacity="0.9"/>
<path fill-rule="evenodd" clip-rule="evenodd" d="M24.1448 24.3964C19.7079 23.324 16.2155 19.8422 15.1399 15.4189C19.5767 16.4913 23.0691 19.9731 24.1448 24.3964Z" fill="#A8A8A8"/>
<path fill-rule="evenodd" clip-rule="evenodd" d="M15.1399 39.1467C16.2155 34.7234 19.7079 31.2417 24.1448 30.1693C23.0691 34.5926 19.5767 38.0743 15.1399 39.1467Z" fill="#A8A8A8"/>
<path fill-rule="evenodd" clip-rule="evenodd" d="M29.9351 30.1693C34.3719 31.2417 37.8643 34.7234 38.9399 39.1467C34.5031 38.0743 31.0107 34.5926 29.9351 30.1693Z" fill="#A8A8A8"/>
<path fill-rule="evenodd" clip-rule="evenodd" d="M38.9399 15.4189C37.8643 19.8422 34.3719 23.324 29.9351 24.3964C31.0107 19.9731 34.5031 16.4913 38.9399 15.4189Z" fill="#A8A8A8"/>
</svg>
