<svg width="140" height="42" viewBox="0 0 140 42" fill="none" xmlns="http://www.w3.org/2000/svg">
<path d="M17.9661 0.569458C27.9036 0.569458 35.9321 8.51757 35.9321 18.3554C35.9321 19.9117 35.7076 21.4124 35.3146 22.8575C38.8517 24.4138 41.2659 27.9154 41.2659 31.9728C41.2659 37.4754 36.7182 41.9775 31.1599 41.9775C26.893 41.9775 23.2998 39.4207 21.7839 35.7524C20.5487 35.9747 19.2574 36.1414 17.9661 36.1414C8.02859 36.1414 0 28.1934 0 18.3554C0 8.51757 8.02859 0.569458 17.9661 0.569458ZM31.1599 25.8589C27.7351 25.8589 24.9841 28.5823 24.9841 31.9728C24.9841 35.3633 27.7351 38.0867 31.1599 38.0867C34.5848 38.0867 37.3358 35.3633 37.3358 31.9728C37.3358 28.5823 34.5848 25.8589 31.1599 25.8589ZM17.9661 4.40456C10.2182 4.40456 3.93008 10.6297 3.93008 18.2999C3.93008 25.97 10.2182 32.1952 17.9661 32.1952C19.0328 32.1952 20.0434 32.084 21.054 31.8617C21.1101 26.3591 25.6017 21.9682 31.1599 21.9126H31.4968C31.8336 20.7454 32.0021 19.5783 32.0021 18.2999C32.0021 10.6297 25.7139 4.40456 17.9661 4.40456ZM50.2489 10.2406C51.4278 10.2406 52.4946 11.3522 52.4946 13.0196V22.1349C52.4946 23.3577 52.8876 24.3582 53.6174 25.1363C54.3474 25.9145 55.358 26.3591 56.5369 26.3591C57.7159 26.3591 58.7265 25.97 59.4565 25.1363C60.2424 24.3026 60.6355 23.3577 60.6355 22.1349V13.0752C60.6355 11.4078 61.5338 10.2962 62.825 10.2962H63.8356C63.948 10.2962 64.1164 10.3517 64.2287 10.4629C64.3409 10.574 64.3971 10.6852 64.3971 10.852V22.4128C64.3971 24.5249 63.6672 26.3591 62.1514 27.8598C60.6355 29.3605 58.7827 30.083 56.5931 30.083C54.4035 30.083 52.5507 29.3605 51.0348 27.8598C49.4628 26.3036 48.6768 24.4693 48.6768 22.3573V10.7964C48.6768 10.6852 48.733 10.5185 48.8452 10.4073C48.9575 10.2962 49.0697 10.2406 49.2383 10.2406H50.2489ZM132.5 9.90712C134.577 9.90712 136.43 10.5185 138.114 11.7413C138.227 11.7969 138.339 11.9636 138.395 12.1859C138.451 12.4083 138.395 12.575 138.339 12.6862L137.272 14.2424C136.992 14.6871 136.655 14.7982 136.261 14.576C134.634 13.5755 133.342 13.0197 132.331 13.0197C131.602 13.0197 130.984 13.242 130.535 13.6311C130.086 14.0202 129.861 14.4648 129.861 14.9651C129.861 15.632 130.142 16.1878 130.647 16.6325C131.152 17.1327 131.995 17.5774 133.174 18.022C133.96 18.3554 134.69 18.6334 135.251 18.9669C135.813 19.3003 136.43 19.6894 137.048 20.1896C137.666 20.6899 138.171 21.3012 138.508 21.9682C138.845 22.6352 139.013 23.4133 139.013 24.3026C139.013 25.8033 138.395 27.0818 137.216 28.1934C136.037 29.305 134.465 29.8052 132.556 29.8052C131.489 29.8052 130.479 29.6385 129.524 29.3605C128.57 29.027 127.896 28.7492 127.447 28.4712C127.166 28.3601 126.773 28.0822 126.493 27.8043C126.212 27.5263 126.212 27.2485 126.38 26.9705L127.391 25.2475C127.503 25.0808 127.672 24.9696 127.896 24.914C128.121 24.914 128.233 24.914 128.345 25.0251L128.457 25.0808C128.57 25.1364 128.682 25.2475 128.794 25.3031C128.907 25.3587 129.075 25.4698 129.244 25.5811C129.412 25.6922 129.637 25.8033 129.805 25.9145C129.973 26.0256 130.198 26.1369 130.423 26.1924C130.647 26.3036 130.928 26.3591 131.096 26.4703C131.321 26.5258 131.545 26.5815 131.77 26.6371C131.995 26.6927 132.276 26.6927 132.444 26.6927C133.174 26.6927 133.792 26.4703 134.24 26.0813C134.745 25.6366 134.971 25.1364 134.971 24.5806C134.971 23.9135 134.69 23.3022 134.127 22.7464C133.566 22.1906 132.668 21.6903 131.434 21.2457C129.861 20.6343 128.57 19.8005 127.615 18.9112C126.661 17.9665 126.156 16.7436 126.156 15.2429C126.156 13.8533 126.717 12.575 127.784 11.519C128.851 10.4629 130.423 9.90712 132.5 9.90712ZM84.7214 10.2406C86.4056 10.2406 87.8654 10.7964 89.0444 12.0192C90.2234 13.1864 90.8409 14.576 90.8409 16.2434C90.8409 17.5217 90.448 18.6334 89.7181 19.6338C88.9883 20.6343 87.9777 21.3568 86.6863 21.857L90.5603 28.9159C90.6725 29.0826 90.6725 29.305 90.5603 29.4717C90.448 29.6384 90.2795 29.7496 90.055 29.7496H87.1355C86.9109 29.7496 86.7987 29.6384 86.6863 29.4717L82.9247 22.0793H79.8368V29.1937C79.8368 29.305 79.7806 29.4717 79.6684 29.5828C79.556 29.6939 79.4437 29.7496 79.2753 29.7496H76.6927C76.5242 29.7496 76.4119 29.6939 76.2997 29.5828C76.2436 29.4717 76.1874 29.3605 76.1874 29.1937V10.7964C76.1874 10.6296 76.2436 10.5185 76.3558 10.4073C76.4681 10.2962 76.5805 10.2406 76.7489 10.2406H84.7214ZM108.863 10.0182C109.088 10.0182 109.256 10.1294 109.312 10.2961L117.958 29.027C118.071 29.1937 118.071 29.3605 117.958 29.5272C117.846 29.6939 117.678 29.7495 117.509 29.7495H115.039C114.702 29.7495 114.421 29.5828 114.197 29.1937L112.793 26.1923H104.372L103.024 29.1937C102.856 29.5828 102.575 29.7495 102.182 29.7495H99.824C99.5994 29.7495 99.4871 29.6939 99.3749 29.5272C99.2626 29.3605 99.2626 29.1937 99.3749 29.027L108.077 10.2961C108.189 10.0738 108.358 10.0182 108.582 10.0182H108.863ZM108.639 16.9659H108.582L105.831 23.0798H111.446L108.639 16.9659ZM84.4406 13.6311H79.8368V19.1336H84.4406C85.1704 19.1336 85.8442 18.8557 86.4056 18.2999C86.9671 17.7441 87.2477 17.077 87.2477 16.2989C87.2477 15.5764 86.9671 14.9094 86.4056 14.4091C85.8442 13.9089 85.2267 13.6311 84.4406 13.6311Z" fill="#A8A8A8"/>
</svg>
