<svg width="57" height="18" viewBox="0 0 57 18" fill="none" xmlns="http://www.w3.org/2000/svg">
<path d="M28.8282 12.3667L26.8203 9.33534H25.5637V12.3667H23.6853V2.83215H26.5741C27.7573 2.83215 28.6728 3.12147 29.3205 3.70011C29.9769 4.27011 30.305 5.0517 30.305 6.04488C30.305 6.63215 30.1798 7.18488 29.9294 7.70306C29.6875 8.21261 29.3119 8.6142 28.8023 8.90784L31.0175 12.3667H28.8282ZM25.5637 7.5217H26.898C27.4075 7.5217 27.7789 7.37488 28.0121 7.08124C28.2453 6.77897 28.3619 6.45511 28.3619 6.10965C28.3619 5.7642 28.2625 5.43602 28.0639 5.12511C27.8653 4.80556 27.481 4.64579 26.911 4.64579H25.5637V7.5217ZM37.9683 6.70556V12.3667H36.323L36.1935 11.4599C35.9949 11.8226 35.7142 12.1119 35.3514 12.3278C34.9974 12.5351 34.5785 12.6387 34.0949 12.6387C33.5767 12.6387 33.1449 12.479 32.7994 12.1594C32.4539 11.8399 32.2769 11.434 32.2683 10.9417V6.70556H34.0819V10.2681C34.1078 10.8208 34.3626 11.0972 34.8462 11.0972C35.2435 11.0972 35.5587 10.9028 35.7919 10.5142C36.0337 10.1256 36.1546 9.62465 36.1546 9.01147V6.70556H37.9683ZM43.7976 6.42056C44.2899 6.42056 44.739 6.54147 45.1449 6.78329C45.5594 7.01647 45.8876 7.35761 46.1294 7.8067C46.3712 8.25579 46.4922 8.79124 46.4922 9.41306C46.4922 10.0349 46.3583 10.5833 46.0906 11.0583C45.8228 11.5247 45.4644 11.8874 45.0153 12.1465C44.5662 12.3969 44.0783 12.5222 43.5515 12.5222C42.7828 12.5222 42.1481 12.2803 41.6472 11.7967V12.3667H39.8335V2.14556H41.6342V7.0942C41.876 6.89556 42.1826 6.73579 42.554 6.61488C42.9253 6.48534 43.3399 6.42056 43.7976 6.42056ZM43.1499 10.9935C43.4176 10.9935 43.6637 10.9244 43.8883 10.7862C44.1215 10.6481 44.3072 10.4581 44.4453 10.2162C44.5835 9.96579 44.6526 9.69374 44.6526 9.40011C44.6526 8.95102 44.5058 8.57965 44.2122 8.28602C43.9185 7.99238 43.5644 7.84556 43.1499 7.84556C42.7958 7.84556 42.4849 7.92761 42.2172 8.0917C41.9494 8.25579 41.7594 8.47602 41.6472 8.75238V10.1385C41.9581 10.7085 42.459 10.9935 43.1499 10.9935ZM49.7311 6.70556V12.3667H47.9175V6.70556H49.7311ZM47.8786 4.69761C47.8786 4.43852 47.9779 4.22261 48.1765 4.04988C48.3838 3.86852 48.617 3.77783 48.8761 3.77783C49.1265 3.77783 49.3511 3.86852 49.5497 4.04988C49.7484 4.22261 49.8477 4.43852 49.8477 4.69761C49.8477 4.9567 49.7484 5.17261 49.5497 5.34533C49.3511 5.51806 49.1265 5.60443 48.8761 5.60443C48.617 5.60443 48.3838 5.51806 48.1765 5.34533C47.9779 5.17261 47.8786 4.9567 47.8786 4.69761ZM56.405 11.8615C56.1546 12.0601 55.8393 12.2199 55.4593 12.3408C55.088 12.4617 54.7209 12.5222 54.3582 12.5222C53.3736 12.5222 52.5921 12.2587 52.0134 11.7319C51.4434 11.1965 51.1584 10.4624 51.1584 9.52965C51.1584 8.92511 51.2966 8.39829 51.573 7.9492C51.858 7.49147 52.2293 7.14602 52.6871 6.91283C53.1448 6.67102 53.6371 6.55011 54.1639 6.55011C55.1052 6.55011 55.8696 6.80056 56.4568 7.30147L55.5759 8.46738C55.2046 8.17374 54.79 8.02693 54.3323 8.02693C53.9523 8.02693 53.6284 8.16943 53.3607 8.45443C53.1016 8.73943 52.9721 9.09784 52.9721 9.52965C52.9721 9.96147 53.1146 10.3242 53.3996 10.6178C53.6846 10.9028 54.0559 11.0453 54.5136 11.0453C54.9109 11.0453 55.2391 10.9374 55.4982 10.7215L56.405 11.8615Z" fill="#4AA956"/>
<path d="M13.2969 4.20891L7.12033 7.76908L2.85 5.30219L7.12033 2.83531L9.49377 4.20891L11.4 3.10629L7.12033 0.639404L0 4.75088V5.84416L6.17656 9.41367V14.3474L1.90623 11.8806V9.14268L0 8.04006V12.9738L7.12033 17.0853L8.07344 16.5433V9.41367L12.3438 6.94678V11.8806L9.97033 13.2448V15.4501L14.25 12.9738V4.75088L13.2969 4.20891Z" fill="#4AA956"/>
</svg>
