<svg width="150" height="46" viewBox="0 0 150 46" fill="none" xmlns="http://www.w3.org/2000/svg">
<path d="M8.66481 23.381C3.68868 10.9205 -0.196782 0.491494 0.0077162 0.220612C0.28038 0.0174506 8.39214 1.23642 18.0036 2.92943L35.5904 6.1123L40.1575 10.6496L44.6565 15.2546L31.9776 30.6271C24.9565 39.0922 18.8897 45.9997 18.4807 45.9997C18.0717 46.0674 13.7091 35.8416 8.66481 23.381ZM19.2987 27.9183C19.9122 22.9747 20.3212 18.8438 20.1849 18.7083C20.0485 18.6406 17.3219 16.4058 14.1181 13.8324C5.052 6.4509 5.6655 6.7895 6.75616 9.49832C7.30149 10.785 10.0281 17.5571 12.8229 24.5323C15.6177 31.4398 17.9354 37.0606 18.0036 36.9928C18.0717 36.9251 18.6852 32.8619 19.2987 27.9183ZM30.0008 27.4443C34.3634 22.2298 37.7717 17.8957 37.7035 17.7602C37.4991 17.5571 24.2067 19.7918 23.7977 20.0627C23.4568 20.2659 21.6845 33.6745 21.6164 35.8416C21.6164 36.722 21.7527 37.3315 21.889 37.196C22.0254 37.0606 25.7063 32.6587 30.0008 27.4443ZM34.0907 14.916L38.7942 14.0356L36.7492 12.004C34.4316 9.70148 34.2271 9.7692 29.1146 14.2388C27.3423 15.7963 27.0696 16.2704 28.0921 15.9995C28.842 15.864 31.5686 15.3223 34.0907 14.916ZM26.4561 12.0717C28.7738 10.1078 30.4098 8.48251 30.0689 8.34707C27.8195 7.80531 9.75546 4.75789 9.34647 4.89333C8.80114 5.09649 20.8665 15.4577 21.7527 15.5254C21.9572 15.5932 24.0703 14.0356 26.4561 12.0717Z" fill="#A8A8A8"/>
<path d="M141.543 27.2214L133.555 17.603L133.354 26.1908C133.219 34.229 133.085 34.7786 131.877 34.7786C130.602 34.7786 130.534 34.229 130.534 22.0687C130.534 15.0611 130.669 9.35876 130.803 9.35876C131.004 9.35876 134.696 13.5496 139.059 18.7023L146.98 28.0458L147.181 19.7328C147.315 11.9695 147.449 11.4198 148.658 11.4198C149.933 11.4198 150 11.9695 150 24.1298C150 31.1374 149.933 36.8397 149.799 36.8397C149.664 36.8397 145.973 32.5114 141.543 27.2214Z" fill="#A8A8A8"/>
<path d="M58.397 26.5343C58.397 18.9866 58.4829 18.519 60.1145 18.519C61.7462 18.519 61.8321 18.9866 61.8321 26.5343C61.8321 34.082 61.7462 34.5496 60.1145 34.5496C58.4829 34.5496 58.397 34.082 58.397 26.5343Z" fill="#A8A8A8"/>
<path d="M62.9771 26.5343C62.9771 18.9866 63.0343 18.519 64.1221 18.519C65.2099 18.519 65.2671 18.9866 65.2671 26.5343C65.2671 34.082 65.2099 34.5496 64.1221 34.5496C63.0343 34.5496 62.9771 34.082 62.9771 26.5343Z" fill="#A8A8A8"/>
<path d="M76.7175 23.0993V11.6489H84.687C89.0152 11.6489 93.2061 11.9857 93.9618 12.3225C94.6488 12.7266 95.7481 13.939 96.2977 15.0167C97.9465 18.115 97.603 20.7419 95.2671 23.3687L93.1374 25.7262L95.2671 29.7675C96.3664 31.9902 97.3282 34.0108 97.3282 34.2129C97.3282 34.415 96.6412 34.5497 95.8168 34.5497C94.5801 34.5497 93.687 33.5394 91.832 30.1716C89.5649 25.9956 89.29 25.7935 86.8855 25.7935H84.2748V30.1716C84.2748 34.0782 84.1374 34.5497 82.9007 34.5497C81.6641 34.5497 81.5267 34.0782 81.5267 28.8919V23.3014L86.7481 22.9646C92.1068 22.6278 93.3435 21.9543 94.2366 19.2601C94.5114 18.115 94.1679 17.3068 92.9313 16.027C91.3511 14.4778 90.6641 14.3431 85.3053 14.3431H79.4656V24.4464C79.4656 34.0782 79.3969 34.5497 78.0916 34.5497C76.7862 34.5497 76.7175 34.0782 76.7175 23.0993Z" fill="#A8A8A8"/>
<path d="M109.493 33.9055C102.443 31.3717 99.663 22.6745 103.934 16.4427C105.968 13.361 109.425 11.6489 113.629 11.6489C122.035 11.6489 127.323 20.62 123.594 28.5639C121.425 33.2892 114.781 35.823 109.493 33.9055ZM118.984 29.4542C122.713 25.8932 122.849 20.4831 119.256 17.059C113.832 11.9229 105.019 15.5524 105.087 22.8115C105.154 26.304 106.239 28.427 108.883 30.2075C111.527 32.0565 116.679 31.6456 118.984 29.4542Z" fill="#A8A8A8"/>
<path d="M112.214 22.6363C112.214 21.1606 112.565 20.8092 114.041 20.8092C115.516 20.8092 115.797 21.0903 115.587 22.4255C115.446 23.4093 114.814 24.0417 113.83 24.1822C112.495 24.3931 112.214 24.112 112.214 22.6363Z" fill="#A8A8A8"/>
<path d="M133.969 29.9694C133.969 25.8473 134.141 25.3893 135.687 25.3893C137.233 25.3893 137.405 25.8473 137.405 29.9694C137.405 34.0916 137.233 34.5496 135.687 34.5496C134.141 34.5496 133.969 34.0916 133.969 29.9694Z" fill="#A8A8A8"/>
<path d="M51.5266 12.794C51.5266 11.7062 52.0075 11.6489 61.832 11.6489C71.6564 11.6489 72.1373 11.7062 72.1373 12.794C72.1373 13.8818 71.6564 13.939 61.832 13.939C52.0075 13.939 51.5266 13.8818 51.5266 12.794Z" fill="#A8A8A8"/>
</svg>
