<svg width="131" height="40" viewBox="0 0 131 40" fill="none" xmlns="http://www.w3.org/2000/svg">
<path d="M7.56726 20.2461C3.22145 9.36385 -0.171856 0.255893 0.00673882 0.0193232C0.244866 -0.158105 7.32914 0.906462 15.7231 2.38503L31.0823 5.16473L35.0709 9.12728L39 13.149L27.9271 26.5743C21.7953 33.9672 16.497 39.9997 16.1398 39.9997C15.7826 40.0588 11.9726 31.1283 7.56726 20.2461ZM16.8542 24.2086C17.39 19.8912 17.7472 16.2835 17.6281 16.1652C17.5091 16.1061 15.1278 14.1544 12.3298 11.907C4.41208 5.46044 4.94787 5.75615 5.90038 8.12186C6.37663 9.24557 8.7579 15.1598 11.1987 21.2515C13.6395 27.2841 15.6636 32.1929 15.7231 32.1337C15.7826 32.0746 16.3184 28.526 16.8542 24.2086ZM26.2007 23.7946C30.0107 19.2407 32.9873 15.4555 32.9278 15.3373C32.7492 15.1598 21.1405 17.1115 20.7833 17.3481C20.4856 17.5255 18.9378 29.2358 18.8783 31.1283C18.8783 31.8972 18.9973 32.4295 19.1164 32.3112C19.2355 32.1929 22.4502 28.3486 26.2007 23.7946ZM29.7726 12.8533L33.8803 12.0844L32.0943 10.3101C30.0702 8.29928 29.8916 8.35843 25.4268 12.2618C23.8789 13.6221 23.6408 14.0361 24.5338 13.7995C25.1886 13.6813 27.5699 13.2081 29.7726 12.8533ZM23.105 10.3693C25.1291 8.65414 26.5579 7.23472 26.2602 7.11643C24.2957 6.64329 8.51977 3.98188 8.16258 4.10016C7.68633 4.27759 18.2234 13.3264 18.9973 13.3855C19.1759 13.4447 21.0214 12.0844 23.105 10.3693Z" fill="#4AA956"/>
<path d="M123.614 23.6L116.638 15.2L116.462 22.7C116.345 29.72 116.228 30.2 115.172 30.2C114.059 30.2 114 29.72 114 19.1C114 12.98 114.117 8 114.234 8C114.41 8 117.634 11.66 121.445 16.16L128.362 24.32L128.538 17.06C128.655 10.28 128.772 9.8 129.828 9.8C130.941 9.8 131 10.28 131 20.9C131 27.02 130.941 32 130.824 32C130.707 32 127.483 28.22 123.614 23.6Z" fill="#4AA956"/>
<path d="M51 23C51 16.4083 51.075 16 52.5 16C53.925 16 54 16.4083 54 23C54 29.5917 53.925 30 52.5 30C51.075 30 51 29.5917 51 23Z" fill="#4AA956"/>
<path d="M55 23C55 16.4083 55.05 16 56 16C56.95 16 57 16.4083 57 23C57 29.5917 56.95 30 56 30C55.05 30 55 29.5917 55 23Z" fill="#4AA956"/>
<path d="M67 20V10H73.96C77.74 10 81.4 10.2941 82.06 10.5882C82.66 10.9412 83.62 12 84.1 12.9412C85.54 15.6471 85.24 17.9412 83.2 20.2353L81.34 22.2941L83.2 25.8235C84.16 27.7647 85 29.5294 85 29.7059C85 29.8824 84.4 30 83.68 30C82.6 30 81.82 29.1176 80.2 26.1765C78.22 22.5294 77.98 22.3529 75.88 22.3529H73.6V26.1765C73.6 29.5882 73.48 30 72.4 30C71.32 30 71.2 29.5882 71.2 25.0588V20.1765L75.76 19.8824C80.44 19.5882 81.52 19 82.3 16.6471C82.54 15.6471 82.24 14.9412 81.16 13.8235C79.78 12.4706 79.18 12.3529 74.5 12.3529H69.4V21.1765C69.4 29.5882 69.34 30 68.2 30C67.06 30 67 29.5882 67 20Z" fill="#4AA956"/>
<path d="M95.624 29.4374C89.4664 27.2246 87.0389 19.629 90.769 14.1865C92.5452 11.4952 95.5648 10 99.2356 10C106.577 10 111.196 17.8348 107.939 24.7724C106.044 28.8992 100.242 31.112 95.624 29.4374ZM103.913 25.5499C107.169 22.44 107.288 17.7152 104.15 14.7248C99.4133 10.2392 91.7163 13.409 91.7755 19.7486C91.8347 22.7988 92.782 24.6528 95.0911 26.2078C97.4002 27.8226 101.9 27.4638 103.913 25.5499Z" fill="#4AA956"/>
<path d="M98 19.5956C98 18.3069 98.3069 18 99.5956 18C100.884 18 101.13 18.2455 100.946 19.4115C100.823 20.2707 100.271 20.823 99.4115 20.9458C98.2455 21.1299 98 20.8844 98 19.5956Z" fill="#4AA956"/>
<path d="M117 26C117 22.4 117.15 22 118.5 22C119.85 22 120 22.4 120 26C120 29.6 119.85 30 118.5 30C117.15 30 117 29.6 117 26Z" fill="#4AA956"/>
<path d="M45 11C45 10.05 45.42 10 54 10C62.58 10 63 10.05 63 11C63 11.95 62.58 12 54 12C45.42 12 45 11.95 45 11Z" fill="#4AA956"/>
</svg>
