<svg width="145" height="31" viewBox="0 0 145 31" fill="none" xmlns="http://www.w3.org/2000/svg">
<path fill-rule="evenodd" clip-rule="evenodd" d="M144.928 8.06657L137.374 15.606L129.82 8.06657L137.374 0.5271L144.928 8.06657Z" fill="#A8A8A8"/>
<path fill-rule="evenodd" clip-rule="evenodd" d="M33.7927 8.35281H29.5306L29.0846 8.73766L24.7113 23.5205H24.6826L19.7796 8.73891L19.3335 8.35406H14.8765L14.4305 8.73891L9.55491 23.4393L9.47245 23.3843L9.44371 23.358L5.07046 8.73891L4.62314 8.35156H0.278638L0 8.73891L6.82476 29.5555L7.29957 29.9679H11.5891L12.0639 29.5555L16.9369 14.6628H17.0494L21.9524 29.5568L22.4272 29.9679H26.7717L27.2466 29.5555L34.0713 8.73891L33.7927 8.35281ZM82.0158 8.35281H77.725L77.2515 8.73766L71.2626 24.124L71.2064 24.1515L65.2738 8.73891L64.8002 8.35406H60.427L60.1483 8.73891L68.6999 29.5555L69.2022 29.9679H73.1581L73.6592 29.5555L82.2957 8.73891L82.0158 8.35281Z" fill="#A8A8A8"/>
<path d="M104.136 20.3118L104.553 19.9282V19.2972C104.553 15.9236 103.579 13.016 101.656 10.9868C99.7352 8.95639 97.1425 7.91431 93.9676 7.91431C90.9025 7.91431 88.3398 9.03885 86.3619 11.233C84.3839 13.4271 83.4093 16.0873 83.4093 19.1048C83.4093 22.3135 84.4401 25.0024 86.4731 27.1141C88.5073 29.2257 91.1812 30.2953 94.4124 30.2953C96.7527 30.2953 98.7594 29.7468 100.375 28.6222C101.991 27.5252 103.69 25.7147 104.275 23.2469L103.969 22.8346H99.9577L99.3991 23.2469C98.397 25.2211 96.8652 26.1545 94.3299 26.1545C92.7162 26.1674 91.1595 25.5584 89.9829 24.4539C88.8134 23.3831 88.1449 22.0949 87.9775 20.2568L104.136 20.3118ZM88.2561 16.4721C88.9533 13.9206 91.1262 12.0289 93.9663 12.0289C97.7273 12.0289 99.2892 14.6616 99.734 16.4721H88.2561ZM53.1827 8.35288L52.7641 8.76522V10.9044L52.6804 10.9868C52.1231 10.2734 51.3709 9.64236 50.48 9.12132C50.2694 9.00554 50.0557 8.89554 49.839 8.79145C48.6408 8.21669 47.2763 7.9418 45.7994 7.9418C43.0418 7.9418 40.6178 9.03886 38.6123 11.178C36.6069 13.3171 35.6035 16.0061 35.6035 19.1598C35.6035 22.3135 36.6069 25.0024 38.6123 27.1416C40.6178 29.2807 43.0418 30.3778 45.7994 30.3778C47.2763 30.3778 48.6133 30.1029 49.8103 29.5281C50.0352 29.4182 50.2851 29.3082 50.5075 29.1708C51.3709 28.6497 52.0956 28.0737 52.6529 27.3877C52.6804 27.3602 52.7654 27.4152 52.7929 27.3877V29.6093L53.2102 30.0217H56.8587L57.2773 29.6093V8.73898L56.86 8.32664H53.1827V8.35413V8.35288ZM50.9261 24.3165C49.7004 25.6059 48.2234 26.2357 46.4404 26.2357C44.7136 26.2357 43.4316 25.6059 42.1784 24.289C40.9251 22.9995 40.3116 21.2714 40.3116 19.1048C40.3116 16.9657 40.9526 15.2376 42.1784 13.9206C43.4316 12.6324 44.6849 11.9739 46.4404 11.9739C48.196 11.9739 49.6716 12.6049 50.9261 13.8932C51.7333 14.7428 52.2631 15.7587 52.5692 16.9919V21.1615C52.2906 22.451 51.7333 23.493 50.9261 24.3165Z" fill="#A8A8A8"/>
<path fill-rule="evenodd" clip-rule="evenodd" d="M119.597 17.4591C119.597 17.4591 117.201 16.9655 115.224 16.5269C113.412 16.1146 112.493 15.5936 112.493 14.3328C112.493 12.9883 113.802 11.8638 116.616 11.8638C119.375 11.8638 120.907 13.0708 120.907 14.1404L121.38 14.5527H125.391L125.699 14.1679C125.699 11.3428 123.219 7.96912 116.727 7.96912C109.959 7.96912 107.841 11.8913 107.841 14.414C107.841 16.5257 108.621 19.0222 113.802 20.2017L118.261 21.1888C120.517 21.6836 121.464 22.4508 121.464 23.7403C121.464 24.9198 120.266 26.3455 117.146 26.3455C114.248 26.3455 112.493 24.9748 112.41 23.3567L111.908 22.9443H107.813L107.507 23.3567C107.87 26.9765 110.599 30.3776 117.118 30.3776C124.5 30.3776 126.005 25.9344 126.005 23.6028C126.005 20.4766 124.193 18.4462 119.597 17.4591Z" fill="#A8A8A8"/>
</svg>
