<svg width="22" height="21" viewBox="0 0 22 21" fill="none" xmlns="http://www.w3.org/2000/svg">
<path d="M1.21533 12.7195V15.2001C1.21533 17.3312 2.94294 19.0588 5.07405 19.0588H16.9258C19.057 19.0588 20.7846 17.3312 20.7846 15.2001V12.7195" stroke="white" stroke-width="2.21538" stroke-linecap="round"/>
<path d="M12.4768 1.74133C12.4768 1.12957 11.9809 0.633641 11.3691 0.633641C10.7574 0.633641 10.2614 1.12957 10.2614 1.74133L12.4768 1.74133ZM10.5859 15.0784C11.0185 15.511 11.7198 15.511 12.1524 15.0784L19.2017 8.02912C19.6343 7.59654 19.6343 6.89519 19.2017 6.46261C18.7691 6.03003 18.0678 6.03003 17.6352 6.46261L11.3691 12.7287L5.10309 6.46261C4.67051 6.03003 3.96915 6.03003 3.53657 6.46261C3.10399 6.89519 3.10399 7.59654 3.53657 8.02913L10.5859 15.0784ZM10.2614 1.74133L10.2614 14.2952L12.4768 14.2952L12.4768 1.74133L10.2614 1.74133Z" fill="white"/>
</svg>
