<svg width="329" height="181" viewBox="0 0 329 181" fill="none" xmlns="http://www.w3.org/2000/svg">
<path d="M274.006 61.2124C274.348 61.7112 273.925 62.3765 273.328 62.2782L253.03 58.9329C252.645 58.8694 252.39 58.4978 252.469 58.1156L256.661 37.9748C256.785 37.3828 257.558 37.2277 257.9 37.7264L263.474 45.855C263.689 46.1677 264.116 46.2473 264.429 46.0329L317.48 9.65088C317.792 9.43642 318.22 9.51607 318.434 9.82879L321.839 14.7928C322.053 15.1056 321.973 15.5329 321.661 15.7474L268.61 52.1294C268.297 52.3438 268.217 52.7712 268.432 53.0839L274.006 61.2124Z" fill="#7D5CA4"/>
<path d="M87.1063 100.332C87.5263 100.948 88.4791 100.759 88.6326 100.03L93.8541 75.2305C93.9532 74.7598 93.6403 74.3013 93.1659 74.222L68.1698 70.0433C67.4349 69.9204 66.9117 70.7389 67.3317 71.3542L74.1757 81.3836C74.439 81.7694 74.3397 82.2956 73.9538 82.5589L8.49707 127.227C8.11123 127.49 8.01189 128.016 8.27519 128.402L12.4548 134.527C12.7181 134.913 13.2443 135.012 13.6302 134.749L79.0869 90.0811C79.4728 89.8178 79.999 89.9171 80.2623 90.303L87.1063 100.332Z" fill="#5D22A4"/>
<path d="M253.531 152.437C253.787 152.812 254.368 152.697 254.461 152.252L257.643 137.142C257.703 136.855 257.513 136.576 257.224 136.527L241.993 133.981C241.545 133.906 241.226 134.405 241.482 134.78L245.652 140.891C245.813 141.126 245.752 141.447 245.517 141.607L205.633 168.824C205.398 168.984 205.338 169.305 205.498 169.54L208.045 173.272C208.205 173.507 208.526 173.568 208.761 173.407L248.645 146.19C248.88 146.03 249.201 146.091 249.361 146.326L253.531 152.437Z" fill="#382054"/>
<path d="M135.88 121.83C143.146 119.96 149.674 121.238 153.265 121.238C150.288 124.531 146.009 121.013 138.591 125.582C137.079 126.514 135.436 127.782 133.647 129.513C132.455 130.666 131.198 132.024 129.872 133.625C127.57 136.404 125.369 138.842 123.208 140.962C120.336 143.78 117.536 146.036 114.667 147.784C107.426 152.195 99.7447 153.372 89.3599 152.18C101.811 150.355 107.665 147.262 111.502 143.461C114.037 140.951 115.692 138.132 117.787 135.167C119.361 132.941 121.182 130.632 123.811 128.309C125.813 126.539 127.848 125.173 129.872 124.123C131.899 123.07 133.916 122.335 135.88 121.83Z" fill="#00E28D"/>
<path fill-rule="evenodd" clip-rule="evenodd" d="M150.277 120.097C151.449 120.184 152.459 120.258 153.265 120.258C153.652 120.258 154.003 120.486 154.16 120.84C154.317 121.194 154.251 121.607 153.991 121.895C152.325 123.739 150.249 123.814 148.197 123.889C148.009 123.895 147.822 123.902 147.636 123.91C145.346 124.01 142.612 124.256 139.105 126.417C137.661 127.306 136.073 128.528 134.328 130.217C133.165 131.342 131.932 132.674 130.626 134.25C128.309 137.048 126.085 139.512 123.894 141.661C120.982 144.518 118.124 146.825 115.176 148.621C107.696 153.177 99.7773 154.362 89.248 153.153C88.7593 153.097 88.3879 152.687 88.3802 152.195C88.3726 151.703 88.7309 151.282 89.2177 151.211C101.557 149.403 107.18 146.363 110.813 142.765C112.669 140.926 114.018 138.941 115.498 136.763C115.974 136.063 116.463 135.343 116.987 134.602C118.585 132.341 120.456 129.966 123.162 127.575C125.224 125.752 127.325 124.34 129.421 123.253C131.519 122.164 133.606 121.404 135.635 120.881C141.27 119.431 146.582 119.824 150.277 120.097ZM136.881 122.595C136.932 123.061 137.054 123.344 137.216 123.56C137.436 123.852 137.813 124.135 138.528 124.478C142.228 122.318 145.197 122.055 147.551 121.953C147.693 121.947 147.831 121.941 147.966 121.935C148.052 121.932 148.137 121.928 148.221 121.925C144.999 121.717 141.115 121.624 136.881 122.595ZM136.675 125.682C136.275 125.413 135.928 125.107 135.651 124.739C135.282 124.249 135.074 123.704 134.974 123.101C133.659 123.499 132.325 124.01 130.984 124.661C131.191 125.521 131.458 126.135 131.83 126.658C132.213 127.196 132.742 127.691 133.544 128.26C134.635 127.246 135.677 126.396 136.675 125.682ZM132.121 129.648C131.35 129.073 130.725 128.486 130.233 127.793C129.768 127.139 129.446 126.426 129.207 125.604C127.773 126.435 126.335 127.44 124.909 128.653C125.324 130.165 125.812 131 126.435 131.525C127.07 132.06 127.972 132.383 129.462 132.588C130.379 131.5 131.264 130.524 132.121 129.648ZM128.01 134.32C126.903 134.073 125.956 133.684 125.172 133.023C124.323 132.307 123.745 131.342 123.31 130.107C121.483 131.88 120.084 133.641 118.843 135.372C119.225 136.893 119.651 137.815 120.24 138.453C120.8 139.058 121.594 139.501 122.916 139.873C124.574 138.221 126.262 136.374 128.01 134.32ZM121.322 141.411C120.309 141.022 119.476 140.513 118.801 139.782C118.201 139.132 117.765 138.35 117.42 137.423C117.344 137.536 117.268 137.648 117.192 137.76C115.791 139.823 114.401 141.87 112.597 143.745C112.848 144.587 113.109 145.137 113.425 145.559C113.718 145.952 114.093 146.282 114.655 146.638C116.88 145.232 119.079 143.501 121.322 141.411ZM112.812 147.725C112.455 147.433 112.137 147.109 111.855 146.731C111.524 146.288 111.26 145.793 111.035 145.227C108.044 147.812 103.946 149.991 97.396 151.628C103.241 151.507 108.156 150.278 112.812 147.725Z" fill="#0B9561"/>
<path d="M193.534 129.251C196.185 132.564 204.314 139.087 211.288 135.047C218.261 131.007 207.85 124.022 204.034 120.279C202.149 118.431 195.896 107.93 190.35 112.787C184.804 117.644 190.884 125.938 193.534 129.251Z" fill="#00E28D"/>
<path fill-rule="evenodd" clip-rule="evenodd" d="M199.948 136.676C196.412 134.993 193.491 132.334 192.004 130.476C190.665 128.802 188.309 125.694 187.033 122.286C185.755 118.87 185.381 114.535 189.059 111.314C190.925 109.68 193.006 109.268 195.014 109.743C196.881 110.185 198.537 111.355 199.877 112.565C201.243 113.797 202.454 115.231 203.408 116.42C203.682 116.76 203.962 117.117 204.213 117.436C204.38 117.648 204.535 117.844 204.664 118.007C205.036 118.474 205.269 118.747 205.405 118.881C206.012 119.476 206.777 120.141 207.659 120.908C208.098 121.29 208.566 121.697 209.057 122.132C210.472 123.386 212.016 124.825 213.228 126.317C214.394 127.754 215.507 129.54 215.59 131.478C215.685 133.686 214.451 135.479 212.27 136.743C208.006 139.213 203.494 138.364 199.948 136.676ZM211.288 135.048C204.314 139.088 196.185 132.565 193.534 129.252C190.884 125.939 184.804 117.645 190.35 112.788C194.917 108.788 199.964 115.203 202.655 118.624C203.232 119.358 203.701 119.954 204.034 120.28C204.682 120.916 205.522 121.646 206.434 122.439C210.887 126.312 217.076 131.695 211.288 135.048Z" fill="#0B9561"/>
<path fill-rule="evenodd" clip-rule="evenodd" d="M164.237 75.5072C164.535 75.9591 164.41 76.5666 163.958 76.8643L128.125 100.47C127.673 100.767 127.065 100.642 126.768 100.191C126.47 99.7387 126.595 99.1311 127.047 98.8335L162.88 75.2281C163.332 74.9304 163.94 75.0554 164.237 75.5072ZM160.462 83.4289C160.76 83.8807 160.635 84.4883 160.183 84.7859L124.35 108.391C123.898 108.689 123.29 108.564 122.993 108.112C122.695 107.66 122.82 107.053 123.272 106.755L159.105 83.1497C159.557 82.8521 160.165 82.9771 160.462 83.4289ZM123.531 92.8146C123.813 93.2764 123.667 93.8793 123.205 94.1611L112.838 100.488C112.376 100.77 111.773 100.624 111.491 100.162C111.209 99.7001 111.355 99.0972 111.817 98.8154L122.184 92.4887C122.646 92.2068 123.249 92.3528 123.531 92.8146ZM152.807 94.4341C153.104 94.8859 152.979 95.4935 152.528 95.7911L116.694 119.397C116.242 119.694 115.635 119.569 115.337 119.117C115.039 118.666 115.164 118.058 115.616 117.76L151.45 94.1549C151.901 93.8573 152.509 93.9823 152.807 94.4341ZM121.61 103.277C121.898 103.735 121.76 104.34 121.302 104.628L110.137 111.646C109.679 111.934 109.074 111.796 108.786 111.338C108.498 110.88 108.636 110.275 109.094 109.987L120.259 102.969C120.717 102.681 121.322 102.819 121.61 103.277ZM116.97 112.453C117.27 112.903 117.149 113.511 116.699 113.811L105.693 121.148C105.243 121.448 104.635 121.326 104.335 120.876C104.035 120.426 104.156 119.818 104.607 119.518L115.612 112.181C116.062 111.881 116.67 112.003 116.97 112.453ZM164.237 120.751C164.535 121.203 164.41 121.81 163.958 122.108L128.125 145.713C127.673 146.011 127.065 145.886 126.768 145.434C126.47 144.982 126.595 144.375 127.047 144.077L162.88 120.472C163.332 120.174 163.94 120.299 164.237 120.751ZM159.346 130.906C159.644 131.357 159.519 131.965 159.067 132.263L123.233 155.868C122.782 156.166 122.174 156.041 121.876 155.589C121.579 155.137 121.704 154.529 122.156 154.232L157.989 130.626C158.441 130.329 159.048 130.454 159.346 130.906Z" fill="#0B9561"/>
<path d="M146.079 120.193C139.31 95.8368 153.042 75.3128 156.579 73.4654C160.116 71.618 162.294 67.931 164.341 65.0925C165.197 63.9058 169.092 56.887 169.74 56.2556C168.428 55.8833 164.154 54.4554 160.836 52.3379C156.125 49.3322 149.047 42.1876 153.826 33.5104C159.8 22.664 175.521 29.0772 178.757 31.4221C181.638 33.5105 183.629 35.534 185.702 38.9984C186.916 37.3634 190.348 35.874 193.1 36.0359C195.852 36.1978 197.341 36.9263 199.786 38.9984C201.162 38.448 202.214 37.4767 206.456 38.0918C208.155 36.0359 211.069 32.9438 219.034 30.6774C226.999 28.411 236.842 32.0535 238.801 38.4156C240.759 44.7778 239.626 51.8361 225.688 56.7089C225.941 57.6438 226.153 60.2302 222.774 61.2331C222.405 63.6084 218.235 63.3445 216.476 63.2167C216.25 64.7385 212.575 64.0262 211.717 63.9938C213.767 65.4828 214.373 66.8629 215.102 68.2759C219.177 68.6355 218.458 71.301 216.385 72.1144C219.309 71.59 218.661 76.9105 214.274 76.9105C213.445 79.7015 211.24 80.1096 210.529 80.8162C220.684 98.4969 214.579 120.193 202.456 126.581C190.332 132.969 184.043 130.843 171.468 131.225C183.384 145.424 165.868 143.327 159.486 138.721C153.104 134.115 147.226 124.321 146.079 120.193Z" fill="#00E28D"/>
<path fill-rule="evenodd" clip-rule="evenodd" d="M216.385 72.1144C216.424 72.1073 216.462 72.1014 216.5 72.0964C217.706 71.9389 218.262 72.8162 218.156 73.8636C218.016 75.2402 216.732 76.9105 214.274 76.9105C213.665 78.96 212.314 79.7246 211.358 80.2659C211.012 80.4618 210.717 80.6285 210.528 80.8162C220.684 98.4969 214.579 120.193 202.455 126.581C193.16 131.479 187.294 131.372 179.395 131.227C177.844 131.199 176.215 131.169 174.466 131.176C173.505 131.179 172.508 131.194 171.468 131.225C172.167 132.058 172.765 132.835 173.269 133.559C181.367 145.17 165.493 143.057 159.486 138.721C153.104 134.115 147.226 124.321 146.078 120.193C139.31 95.8368 153.042 75.3128 156.579 73.4654C159.591 71.8919 161.618 68.9839 163.418 66.4023C163.731 65.9529 164.038 65.5134 164.341 65.0925C164.711 64.5793 165.65 62.9756 166.648 61.2694C167.242 60.2543 167.857 59.203 168.386 58.3235C169.025 57.2625 169.538 56.4515 169.739 56.2556C169.27 56.1224 168.422 55.854 167.373 55.4673C165.492 54.7732 162.967 53.6977 160.836 52.3379C156.125 49.3322 149.047 42.1876 153.826 33.5104C159.8 22.664 175.521 29.0772 178.756 31.4221C181.014 33.0579 182.724 34.6539 184.356 36.9337C184.807 37.5645 185.252 38.2476 185.701 38.9984C186.106 38.4534 186.757 37.9247 187.547 37.4678C189.128 36.554 191.265 35.9279 193.1 36.0359C195.852 36.1978 197.341 36.9263 199.786 38.9984C200.002 38.912 200.21 38.8153 200.423 38.7159C201.571 38.1822 202.88 37.5732 206.455 38.0918C208.155 36.0359 211.069 32.9438 219.034 30.6774C226.999 28.411 236.842 32.0534 238.801 38.4156C240.759 44.7778 239.626 51.8361 225.688 56.7089C225.941 57.6438 226.153 60.2302 222.774 61.2331C222.405 63.6084 218.235 63.3445 216.476 63.2167C216.4 63.7296 215.932 63.9887 215.312 64.1056C214.399 64.2778 213.156 64.1415 212.351 64.0531C212.081 64.0234 211.86 63.9992 211.717 63.9938C212.934 64.8775 213.642 65.7228 214.169 66.5594C214.467 67.0323 214.707 67.5023 214.948 67.9749C214.999 68.0751 215.05 68.1755 215.102 68.2759C217.043 68.4472 217.896 69.1415 218.034 69.9097C218.18 70.726 217.517 71.6257 216.493 72.0697C216.457 72.0852 216.421 72.1001 216.385 72.1144ZM220.1 71.7057C220.65 72.7829 220.619 73.9861 220.359 74.9397C219.851 76.8008 218.295 78.5336 215.93 79.0937C215.321 80.2258 214.522 81.0048 213.749 81.565C213.719 81.5869 213.689 81.6085 213.659 81.6297C218.112 90.4819 218.917 100.095 217.167 108.421C215.298 117.315 210.429 125.061 203.561 128.679C193.687 133.882 187.149 133.757 179.105 133.605C178.127 133.586 177.127 133.567 176.096 133.557C176.342 133.966 176.561 134.363 176.755 134.749C177.505 136.242 177.944 137.716 177.89 139.125C177.832 140.622 177.219 141.903 176.162 142.832C175.171 143.703 173.936 144.144 172.765 144.358C170.442 144.783 167.644 144.45 165.119 143.782C162.573 143.109 159.993 142.012 158.098 140.644C154.593 138.114 151.346 134.265 148.859 130.613C146.39 126.987 144.468 123.257 143.793 120.828C140.248 108.07 142.079 96.3377 145.233 87.5845C146.81 83.2075 148.73 79.5414 150.51 76.8218C151.4 75.4634 152.27 74.3171 153.065 73.426C153.809 72.592 154.644 71.8006 155.481 71.3634C156.857 70.6446 158.049 69.5247 159.189 68.1421C160 67.1578 160.693 66.1633 161.411 65.1336C161.737 64.6656 162.068 64.1903 162.418 63.7053C162.715 63.2931 163.585 61.8073 164.611 60.0536C164.762 59.7962 164.916 59.533 165.072 59.2666C165.421 58.6714 165.772 58.0752 166.101 57.5231C164.158 56.7838 161.696 55.7001 159.56 54.3372C157 52.7037 153.704 49.8992 151.687 46.1817C149.607 42.3457 148.908 37.5247 151.749 32.3664C155.398 25.7399 162.038 24.5729 167.569 25.1613C173.041 25.7435 178.178 28.0741 180.148 29.5018C182.577 31.2621 184.46 33.0196 186.237 35.4873C186.783 35.1622 187.356 34.8824 187.922 34.6498C189.518 33.994 191.423 33.5616 193.239 33.6684C194.814 33.7611 196.176 34.0265 197.534 34.6393C198.446 35.0513 199.292 35.5921 200.151 36.2454C200.56 36.081 201.025 35.9156 201.486 35.8037C202.562 35.542 203.83 35.4458 205.485 35.5907C207.559 33.3228 211.023 30.4912 218.385 28.3964C222.905 27.1101 227.884 27.5073 232.02 29.0971C236.108 30.6683 239.795 33.5877 241.067 37.7178C242.153 41.2445 242.49 45.3374 240.273 49.2825C238.266 52.854 234.392 55.8935 228.154 58.3259C228.107 58.7892 228.001 59.2838 227.81 59.7879C227.291 61.1542 226.239 62.3244 224.596 63.0785C224.233 63.701 223.729 64.1888 223.179 64.5485C222.318 65.1107 221.342 65.3704 220.531 65.5038C219.515 65.6706 218.451 65.6836 217.587 65.6548C217.306 65.87 217.012 66.0298 216.743 66.1441C217.433 66.3137 218.069 66.5694 218.622 66.9353C219.598 67.5814 220.304 68.5811 220.412 69.8206C220.472 70.5145 220.347 71.1459 220.1 71.7057Z" fill="#0B9561"/>
<path d="M196.429 50.3835C190.789 50.6975 186.934 53.4214 181.919 54.741C184.254 55.9512 191.511 59.3736 197.135 60.0342C202.259 60.636 208.478 60.2674 208.809 55.7257C209.14 51.1841 200.616 50.3139 196.429 50.3835Z" fill="white"/>
<path d="M216.071 52.6781C211.461 52.4968 208.851 53.7357 208.123 54.3779L208.398 57.6804C208.673 58.587 210.47 60.562 216.751 61.5171C224.036 62.1161 226.011 60.0601 225.833 57.4052C225.655 54.7502 221.835 52.9047 216.071 52.6781Z" fill="white"/>
<path d="M212.128 52.8947C211.032 53.8255 210.326 55.0968 210.245 56.5296C210.168 57.8828 210.663 59.1556 211.547 60.1759C212.787 60.6907 214.474 61.1709 216.751 61.5171C218.221 61.638 219.476 61.6508 220.539 61.5722C222.168 60.6391 223.273 59.0842 223.375 57.2705C223.448 55.9788 223.001 54.7604 222.191 53.765C220.58 53.1559 218.498 52.7735 216.071 52.6781C214.537 52.6177 213.224 52.7147 212.128 52.8947Z" fill="#484848"/>
<path d="M194.213 59.8812C196.9 60.4772 199.581 59.9839 202.333 59.8813C204.234 58.899 205.503 57.1412 205.509 55.1322C205.514 53.5538 204.74 52.1254 203.489 51.1032C201.056 50.5099 198.306 50.3521 196.428 50.3833C195.974 50.4086 195.516 50.4395 195.056 50.4764C193.297 51.4801 191.509 52.7949 191.466 55.3242C191.422 57.8535 193 58.8629 194.213 59.8812Z" fill="#484848"/>
<path d="M210.654 82.013C210.872 81.01 215.058 78.7424 215.233 76.5619C214.81 76.7644 214.207 76.7892 213.837 76.7364C213.401 79.6146 208.037 80.574 210.654 82.013Z" fill="#0B9561"/>
<path d="M215.058 68.6251C215.217 68.6251 215.859 68.5723 216.018 68.6251C215.625 65.8777 213.326 64.9812 211.765 63.9941C212.956 64.3478 216.177 64.9284 216.476 63.217C218.129 63.556 223.302 63.3901 223.302 61.0751C218.023 62.2364 212.449 61.3658 208.944 58.5943C210.586 60.8057 213.888 61.7083 216.476 62.1836C215.184 62.2953 212.375 61.6558 209.683 60.5473C212.903 62.5003 214.459 62.5176 215.49 62.8698C216.598 63.4908 214.329 64.0838 211.199 63.7513C210.915 65.0056 214.622 65.9214 215.058 68.6251Z" fill="#0B9561"/>
<path d="M237.376 37.995C241.978 47.0277 234.494 53.3743 225.687 56.7092C239.626 51.8364 240.953 44.7781 238.995 38.4159C237.036 32.0538 228.503 27.8771 218.644 30.3701C211.44 32.42 208.943 35.4529 206.877 37.4043C206.658 37.6104 206.449 37.8079 206.245 37.995C203.739 37.6316 201.777 37.8008 199.786 38.9987C197.341 36.9266 195.852 36.1981 193.1 36.0362C190.347 35.8743 187.61 37.0399 185.701 38.675C183.629 35.2106 180.796 32.9493 179.113 31.6167C174.92 28.298 159.395 22.7938 153.421 33.6403C148.953 43.1916 155.849 49.802 160.56 52.8077C163.373 54.6025 167.169 55.5856 169.01 56.0623C169.309 56.1398 169.556 56.2039 169.739 56.2559C166.666 59.2524 164.287 64.6407 160.56 68.4122C163.442 72.3946 168.159 76.6214 172.787 79.7619C177.139 82.7147 185.761 84.6404 189.198 84.6296C190.337 84.6889 195.39 84.2411 200.493 82.4927C193.1 83.801 187.353 83.712 177.073 79.7619C169.145 76.1828 164.322 70.6194 162.291 68.7995C166.609 63.217 167.72 58.8054 170.16 56.7254C170.479 56.5044 171.371 56.0623 172.394 56.0623C169.739 55.4141 162.309 53.0343 158.213 49.2462C154.117 45.458 151.122 40.6014 154.328 34.2069C157.533 27.8123 174.839 23.7328 185.701 39.5491C185.727 39.5296 185.756 39.5067 185.79 39.4807C187.18 38.4003 195.351 32.0485 202.149 43.9525C202.424 42.8193 201.728 40.6176 201.323 40.132C201.373 40.1203 201.43 40.1059 201.495 40.0896C202.947 39.7239 208.118 38.4219 213.854 45.8466C213.854 45.8466 210.308 45.3771 207.734 46.4779C217.82 46.1056 221.416 49.7512 221.219 50.2823C221.136 50.507 219.671 50.2481 218.182 50.088C215.721 49.8236 212.351 48.971 209.24 50.2823C217.232 49.4625 226.058 53.748 221.608 52.8077C216.169 51.6583 213.936 51.785 208.182 53.5269C208.371 53.7374 208.3 53.8809 208.446 54.1076C217.11 51.3231 222.879 53.5683 224.492 55.0577C225.172 54.8418 226.102 54.0316 225.364 52.7106C233.678 49.0325 231.235 46.8827 228.974 46.2675C231.629 46.1272 232.016 40.8767 230.156 38.9987C224.729 33.5204 215.838 38.9286 212.071 42.3175C210.996 40.7302 209.494 39.1571 207.588 38.4159C209.126 36.984 212.981 33.5489 218.645 32.0052C225.148 30.233 234.324 32.0052 237.376 37.995Z" fill="#0B9561"/>
<path d="M171.196 54.4913C166.048 52.403 155.273 43.0135 160.722 37.0399C167.619 29.4798 183.483 40.8119 184.082 45.0857C183.816 45.1035 183.53 45.1177 183.228 45.1328C180.499 45.2687 176.387 45.4736 172.249 48.971C174.871 48.1777 176.182 48.971 176.182 50.088C173.042 51.2698 171.196 54.4913 171.196 54.4913Z" fill="#0B9561"/>
<path d="M177.642 67.516C174.397 66.172 175.435 63.4134 178.011 62.4082C176.619 63.7842 176.37 66.1326 177.642 67.516Z" fill="#0B9561"/>
<path d="M208.575 54.4238C207.694 49.7114 198.681 48.6173 196.675 48.6703C187.999 48.8993 186.809 51.8107 179.995 53.3154C184.535 53.695 188.652 50.0427 196.411 50.0427C189.655 50.7011 187.759 52.751 181.391 54.6878C188.675 53.8412 199.534 46.9946 208.575 54.4238Z" fill="#0B9561"/>
<path d="M208.047 50.5966C206.651 45.7671 197.022 44.9675 193.848 45.4309C191.235 45.8125 185.983 46.0115 179.649 50.9203C181.3 49.7529 185.682 47.8287 187.389 47.7175C194.498 46.2644 201.604 47.0554 208.047 50.5966Z" fill="#0B9561"/>
<path d="M208.364 57.379C208.259 60.5462 199.322 61.8282 195.522 61.0361C191.721 60.244 187.778 58.647 182.974 55.3743C187.197 57.0106 192.419 58.9636 195.216 59.597C198.014 60.2304 203.138 60.0711 208.364 57.379Z" fill="#0B9561"/>
<path fill-rule="evenodd" clip-rule="evenodd" d="M208.403 57.3171L208.347 57.3462C203.129 60.0343 198.013 60.1924 195.224 59.5609C192.43 58.9283 187.211 56.9765 182.988 55.3399L182.953 55.4054C187.76 58.6805 191.708 60.2796 195.514 61.0728C197.421 61.4703 200.611 61.3471 203.336 60.7289C204.7 60.4198 205.95 59.9863 206.866 59.4302C207.782 58.8748 208.374 58.1915 208.401 57.3806L208.403 57.3171ZM183.111 55.4676C183.066 55.4368 183.02 55.4058 182.974 55.3746C183.026 55.3945 183.077 55.4144 183.129 55.4344C187.323 57.0582 192.452 58.9716 195.216 59.5973C198.007 60.2291 203.113 60.0721 208.326 57.3989C208.338 57.3924 208.351 57.3859 208.364 57.3793C208.363 57.3937 208.363 57.408 208.362 57.4223C208.178 60.5581 199.305 61.8249 195.521 61.0364C191.757 60.2518 187.853 58.6777 183.111 55.4676Z" fill="#0B9561"/>
<path d="M212.866 43.0137C212.866 43.0137 214.291 44.0012 215.116 45.8629C222.364 46.2329 224.813 50.9877 224.603 51.5937C224.451 52.0308 223.599 51.8365 222.773 51.5937C221.948 51.3509 220.896 50.93 219.584 50.7843L222.239 51.0595C222.952 51.1566 223.618 51.0757 223.405 50.59C221.851 47.0447 216.395 46.3162 214.582 46.0572C214.66 45.5003 213.346 43.7206 212.866 43.0137Z" fill="#B2FFE2"/>
<path d="M212.311 82.6237C205.502 86.0547 195.493 88.1754 182.613 84.5861C169.734 80.9967 161.376 70.9365 159.169 68.3066C143.671 85.371 143.802 99.6747 143.802 115.984C163.437 112.131 190.463 113.586 213.925 119.473C217.195 104.079 217.422 96.2879 212.311 82.6237Z" fill="#5E4E72"/>
<path fill-rule="evenodd" clip-rule="evenodd" d="M213.462 79.6828L214.286 81.8849C216.895 88.8598 218.186 94.4573 218.368 100.334C218.55 106.176 217.63 112.175 215.987 119.911L215.532 122.05L213.411 121.518C190.178 115.688 163.473 114.273 144.207 118.053L141.693 118.546V115.984C141.693 115.814 141.693 115.644 141.693 115.474C141.692 107.546 141.691 99.795 143.626 91.9251C145.62 83.8153 149.639 75.6637 157.608 66.889L159.232 65.1016L160.814 66.9874C163.059 69.6628 171.038 79.1713 183.179 82.555C195.539 85.9994 205.008 83.9423 211.362 80.7407L213.462 79.6828ZM143.802 113.837C143.82 98.913 144.32 85.5242 157.757 69.9035C158.212 69.3738 158.683 68.8415 159.169 68.3065C159.187 68.328 159.206 68.3501 159.225 68.3727C159.548 68.758 159.991 69.2869 160.551 69.9211C163.954 73.7775 171.644 81.5288 182.613 84.5859C194.333 87.8519 203.676 86.3902 210.394 83.5154C211.059 83.2309 211.698 82.9325 212.311 82.6235C212.565 83.3026 212.806 83.9673 213.034 84.619C217.182 96.4812 217.056 104.086 214.354 117.407C214.217 118.081 214.074 118.769 213.925 119.473C213.245 119.302 212.561 119.135 211.876 118.972C189.738 113.705 164.758 112.34 145.91 115.596C145.198 115.719 144.495 115.848 143.801 115.984C143.801 115.849 143.801 115.713 143.801 115.578C143.801 114.995 143.801 114.415 143.802 113.837Z" fill="#0B9561"/>
<path d="M213.612 92.8887C213.536 93.3599 212.86 94.752 212.34 94.9464C212.499 93.0714 212.564 88.8864 209.628 88.3432C206.692 87.8001 202.929 88.8574 198.639 88.7706C195.207 88.7012 191.576 87.9225 190.19 87.5418C197.248 89.386 207.352 86.5655 210.781 85.4001C213 85.999 213.807 91.6786 213.612 92.8887Z" fill="#7E62A1"/>
<path d="M206.939 49.6206C205.505 48.5788 202.241 47.1925 200.13 46.7702C202.927 46.7702 206.436 47.8242 206.939 49.6206Z" fill="#B2FFE2"/>
<path d="M216.105 63.9582C219.506 64.3126 222.123 63.1363 223.483 62.2977C222.646 64.1326 219.942 65.0048 216.105 63.9582Z" fill="#B2FFE2"/>
<path d="M199.466 42.3819C197.478 39.0879 193.809 38.6408 191.604 37.5565C193.59 37.2638 198.707 38.0264 199.466 42.3819Z" fill="#B2FFE2"/>
<path d="M183.362 39.1475C180.579 35.7498 171.308 30.5439 168.254 30.2916C172.754 29.2978 181.844 34.8823 183.362 39.1475Z" fill="#B2FFE2"/>
<path d="M234.689 48.8347C238.539 41.6779 234.31 34.1415 224.37 32.9126C233.189 31.9367 241.723 40.3405 234.689 48.8347Z" fill="#B2FFE2"/>
<path d="M211.177 44.0992C208.014 41.6232 205.863 41.5147 203.658 40.4304C205.645 40.1377 208.375 40.4304 211.177 44.0992Z" fill="#B2FFE2"/>
<path d="M216.634 72.0263C219.288 71.7647 218.322 76.2602 215.653 76.7297C199.009 79.6579 191.658 75.5541 185.622 72.8112C179.585 70.0684 177.271 65.6116 178.469 63.7845C179.668 61.9574 186.232 65.7476 191.901 67.2293C197.57 68.711 202.912 69.0051 207.644 69.0611C212.376 69.1171 214.722 67.7576 216.634 68.494C218.546 69.2304 218.764 71.0233 216.634 72.0263Z" fill="#D7821E"/>
<path d="M210.325 63.4755C210.059 62.7632 208.998 62.6499 207.265 62.5527C204.95 62.6499 204.808 63.1873 204.756 63.5888C204.691 64.0907 206.084 65.2401 206.294 65.4829C206.504 65.7257 207.103 66.9237 206.294 67.377C206.618 67.5065 207.201 68.0245 208.318 67.377C209.435 66.7294 210.681 64.4306 210.325 63.4755Z" fill="#4B4B4B"/>
<path d="M209.907 63.6854C209.872 63.8995 209.414 64.0019 208.885 63.914C208.356 63.8262 207.956 63.5814 207.992 63.3672C208.027 63.1531 208.485 63.0507 209.014 63.1386C209.543 63.2264 209.943 63.4712 209.907 63.6854Z" fill="white"/>
<path d="M203.887 53.4581C203.828 54.3433 202.667 54.9862 201.295 54.894C199.922 54.8018 198.858 54.0095 198.917 53.1243C198.977 52.2391 200.138 51.5962 201.51 51.6884C202.882 51.7805 203.946 52.5729 203.887 53.4581Z" fill="white"/>
<path d="M198.88 54.9423C198.849 55.3962 198.254 55.7259 197.55 55.6786C196.847 55.6314 196.301 55.2251 196.331 54.7711C196.362 54.3172 196.957 53.9875 197.661 54.0348C198.364 54.0821 198.91 54.4884 198.88 54.9423Z" fill="white"/>
<path d="M218.398 57.2632C218.169 57.7392 217.385 57.8375 216.647 57.4826C215.909 57.1278 215.497 56.4542 215.725 55.9782C215.954 55.5021 216.738 55.4039 217.476 55.7587C218.214 56.1135 218.627 56.7871 218.398 57.2632Z" fill="white"/>
<path d="M200.91 55.9209C200.891 56.195 200.532 56.394 200.107 56.3655C199.682 56.337 199.353 56.0916 199.371 55.8176C199.389 55.5435 199.749 55.3444 200.174 55.373C200.599 55.4015 200.928 55.6468 200.91 55.9209Z" fill="white"/>
<path d="M219.905 57.5519C219.891 57.751 219.63 57.8956 219.321 57.8749C219.013 57.8541 218.773 57.6759 218.787 57.4768C218.8 57.2776 219.061 57.133 219.37 57.1538C219.678 57.1745 219.918 57.3527 219.905 57.5519Z" fill="white"/>
<path d="M222.154 56.0405C221.922 56.6974 220.909 56.9392 219.891 56.5804C218.872 56.2216 218.234 55.3982 218.466 54.7413C218.697 54.0843 219.71 53.8426 220.729 54.2014C221.747 54.5601 222.385 55.3835 222.154 56.0405Z" fill="white"/>
<path d="M186.407 68.7009C196.975 72.4083 207.906 73.8146 215.8 72.1575C209.651 74.5123 200.711 74.5559 186.407 68.7009Z" fill="#8F4E02"/>
<path d="M212.18 72.6807C209.345 72.8987 207.95 72.8987 204.286 72.6807C206.943 75.0872 206.689 79.2363 206.689 79.2363C208.345 80.0648 210.388 79.6128 211.511 78.6155C212.364 76.4379 212.481 74.2484 212.18 72.6807Z" fill="#F1F1F1"/>
<path d="M211.512 78.6159C212.365 76.4383 212.394 74.5105 212.093 72.9427C212.031 74.501 211.957 75.9992 211.131 78.1098C210.848 78.4282 210.237 78.7156 209.753 78.7535C209.837 77.9674 210.18 75.9109 209.737 74.4029C209.577 76.5101 209.63 77.188 209.174 79.0423C208.834 79.188 207.815 79.0122 207.366 78.7615C207.416 76.6954 206.322 74.5401 205.102 73.2715C206.154 75.3002 206.864 77.3231 206.689 79.2367C208.345 80.0652 210.388 79.6131 211.512 78.6159Z" fill="#8B8B8B"/>
<path d="M236.032 68.1747C232.444 67.1872 220.08 65.3461 211.404 65.0539C211.367 65.0527 211.338 65.0826 211.338 65.1196C211.338 65.1547 211.363 65.183 211.398 65.1837C216.592 65.3001 231.513 67.6989 235.834 68.8348C236.091 68.9022 236.325 68.6655 236.257 68.409C236.227 68.2947 236.146 68.2061 236.032 68.1747Z" fill="#382F43"/>
<path d="M233.974 72.2499C231.484 71.1292 219.029 67.4604 211.252 66.22C211.219 66.2147 211.191 66.2407 211.191 66.2741C211.192 66.2998 211.21 66.3216 211.235 66.3263C219.73 67.897 230.334 71.8463 233.639 73.1618C233.907 73.2683 234.198 73.0694 234.195 72.7814L234.192 72.593C234.19 72.4454 234.108 72.3105 233.974 72.2499Z" fill="#382F43"/>
<path d="M173.665 60.4339C188.233 59.5327 198.801 62.8339 203.724 63.7744C203.747 63.7788 203.765 63.7948 203.773 63.8168C203.79 63.8655 203.751 63.9153 203.701 63.9045C201.257 63.382 193.042 61.8874 188.778 61.4201C184.665 60.9695 176.703 61.0517 173.726 61.2789C173.491 61.2968 173.291 61.114 173.288 60.8785L173.287 60.8391C173.285 60.6257 173.452 60.4471 173.665 60.4339Z" fill="#382F43"/>
<path d="M181.249 64.0325L181.359 64.4615C181.412 64.6674 181.616 64.7962 181.825 64.7575C188.718 63.4791 197.136 63.7843 203.929 65.4651C203.98 65.4777 204.023 65.4272 204.003 65.3788C203.995 65.3599 203.979 65.3458 203.959 65.341C197.007 63.6474 188.779 63.0253 181.606 63.5339C181.357 63.5516 181.187 63.7909 181.249 64.0325Z" fill="#382F43"/>
<path fill-rule="evenodd" clip-rule="evenodd" d="M204.468 65.189L204.468 65.1891C204.64 65.6111 204.264 66.0654 203.808 65.9525C197.082 64.2883 188.737 63.9863 181.916 65.2512C181.449 65.3377 180.992 65.0497 180.873 64.5868L180.763 64.1578C180.623 63.6162 181.005 63.0734 181.57 63.0333C188.792 62.5213 197.073 63.1467 204.078 64.8534C204.255 64.8967 204.399 65.0224 204.468 65.189ZM211.833 65.1979C214.629 65.3134 219.641 65.9563 224.461 66.7072C229.198 67.445 233.75 68.2869 235.834 68.8349C236.091 68.9023 236.325 68.6656 236.257 68.4092C236.227 68.2949 236.146 68.2062 236.032 68.1749C234.098 67.6426 229.614 66.8622 224.532 66.2102C220.342 65.6725 215.745 65.2221 211.837 65.0698C211.692 65.0641 211.547 65.0589 211.404 65.054C211.403 65.054 211.402 65.054 211.401 65.054C211.366 65.0544 211.337 65.0837 211.338 65.1198C211.338 65.1548 211.363 65.1831 211.398 65.1839C211.399 65.1839 211.399 65.1839 211.4 65.1839C211.537 65.187 211.682 65.1917 211.833 65.1979ZM211.39 65.5558C211.389 65.5558 211.388 65.5558 211.387 65.5557ZM211.421 64.5524C220.123 64.8455 232.528 66.69 236.165 67.6909C236.466 67.7737 236.671 68.009 236.743 68.2811C236.907 68.9051 236.339 69.4866 235.706 69.3204C233.574 68.7598 228.787 67.8794 223.867 67.1232C218.945 66.3665 213.947 65.743 211.387 65.6857C211.05 65.6782 210.84 65.3988 210.836 65.1263C210.832 64.8117 211.089 64.5412 211.421 64.5524ZM211.672 66.4089C215.147 67.0786 218.943 68.1258 222.431 69.2157C227.392 70.766 231.731 72.4026 233.639 73.1619C233.906 73.2684 234.198 73.0695 234.194 72.7815L234.192 72.5931C234.19 72.4455 234.108 72.3106 233.974 72.25C232.541 71.6052 227.81 70.1171 222.569 68.7331C218.871 67.7565 214.919 66.8318 211.693 66.2921C211.647 66.2845 211.601 66.2769 211.556 66.2694C211.455 66.2527 211.354 66.2364 211.254 66.2205C211.254 66.2204 211.253 66.2202 211.252 66.2201C211.219 66.2149 211.191 66.2408 211.191 66.2742C211.191 66.2999 211.21 66.3217 211.235 66.3264C211.235 66.3265 211.235 66.3265 211.235 66.3265C211.38 66.3533 211.526 66.3808 211.672 66.4089ZM224.729 68.7961C229.12 70.0067 232.893 71.2134 234.18 71.7923C234.506 71.9393 234.69 72.2596 234.694 72.5866L234.696 72.775C234.705 73.4241 234.05 73.8657 233.453 73.6283C230.153 72.3147 219.588 68.3812 211.144 66.82C210.879 66.771 210.693 66.5418 210.689 66.2807C210.685 65.9517 210.975 65.6677 211.331 65.7244C215.247 66.3489 220.325 67.5819 224.729 68.7961ZM200.798 62.6221C201.97 62.8903 202.98 63.1213 203.818 63.2815C204.026 63.3213 204.181 63.4691 204.245 63.6487C204.374 64.0116 204.087 64.5005 203.596 64.3955C201.161 63.8749 192.964 62.3839 188.723 61.9192C184.649 61.4729 176.72 61.5539 173.764 61.7795C173.241 61.8194 172.793 61.411 172.786 60.8852L172.785 60.8457C172.779 60.3621 173.156 59.9626 173.634 59.933C185.763 59.1827 195.158 61.3319 200.798 62.6221ZM189.506 60.9995C184.98 60.4041 179.661 60.0631 173.665 60.434C173.452 60.4472 173.285 60.6258 173.287 60.8392L173.288 60.8787C173.291 61.1141 173.491 61.2969 173.726 61.279C176.703 61.0518 184.665 60.9696 188.777 61.4202C188.999 61.4445 189.232 61.4716 189.474 61.5012C193.64 62.0109 200.573 63.262 203.275 63.8158C203.388 63.8389 203.494 63.8608 203.591 63.8814C203.628 63.8892 203.664 63.8968 203.699 63.9043C203.7 63.9044 203.7 63.9045 203.701 63.9046C203.751 63.9154 203.79 63.8657 203.772 63.817C203.765 63.7963 203.749 63.781 203.728 63.7755C203.727 63.7752 203.725 63.7748 203.724 63.7745C203.587 63.7485 203.447 63.7206 203.301 63.691C202.541 63.5361 201.663 63.3353 200.671 63.1086C197.835 62.4603 194.074 61.6004 189.506 60.9995ZM190.678 63.4681C187.584 63.3076 184.508 63.3282 181.606 63.534C181.357 63.5517 181.187 63.791 181.249 64.0327L181.359 64.4616C181.412 64.6675 181.616 64.7964 181.825 64.7576C184.594 64.2441 187.609 63.9861 190.666 63.9702C195.062 63.9472 199.545 64.4249 203.507 65.3632C203.62 65.3898 203.732 65.4168 203.843 65.4442C203.872 65.4512 203.9 65.4582 203.929 65.4653C203.98 65.4778 204.023 65.4273 204.003 65.3789C203.995 65.3601 203.979 65.3462 203.96 65.3412C203.959 65.3412 203.959 65.3411 203.959 65.3411C203.819 65.307 203.678 65.2733 203.537 65.24C199.51 64.2907 195.075 63.6964 190.678 63.4681Z" fill="white"/>
<path d="M205.534 112.369C210.672 115.773 228.818 122.929 231.021 117.862C233.225 112.796 219.301 105.801 212.524 102.008C211.224 106.61 209.828 109.489 205.534 112.369Z" fill="#00E28D"/>
<path fill-rule="evenodd" clip-rule="evenodd" d="M212.7 100.198C211.94 100.093 210.997 99.989 210.184 99.9096C209.756 99.8678 209.367 99.8332 209.065 99.8094C208.914 99.7974 208.786 99.7884 208.688 99.7824C208.638 99.7794 208.598 99.7774 208.567 99.7761C208.551 99.7754 208.539 99.775 208.53 99.7748L208.519 99.7746C208.516 99.7746 208.515 99.7746 208.515 99.7746L208.504 98.0679C208.741 98.0664 209.506 98.1285 210.35 98.211C211.221 98.296 212.254 98.4106 213.069 98.5268C214.017 98.6619 214.641 99.5881 214.381 100.526C213.834 102.494 212.537 106.06 210.673 108.593C208.816 111.119 206.857 113.154 205.11 114.379C204.359 114.905 203.383 114.671 202.887 113.993L200.406 110.609L201.782 109.6L204.216 112.92C205.741 111.83 207.538 109.976 209.298 107.582C210.946 105.342 212.158 102.103 212.7 100.198ZM204.263 112.984L204.263 112.984Z" fill="#3C2A53"/>
<path d="M259.164 112.415C259.707 113.257 260.982 113.107 261.314 112.161L272.941 79.0117C273.198 78.2798 272.707 77.4996 271.936 77.4154L237.081 73.6058C236.08 73.4964 235.394 74.5906 235.929 75.4436L242.542 85.9857C242.898 86.5529 242.723 87.3013 242.153 87.652L140.212 150.355C139.645 150.703 139.468 151.445 139.817 152.012L146.743 163.272C147.091 163.839 147.833 164.016 148.4 163.667L250.372 100.946C250.93 100.603 251.66 100.769 252.016 101.32L259.164 112.415Z" fill="#9857E4"/>
<path d="M184.249 107.843C190.105 113.011 211.141 125.798 214.128 120.688C217.115 115.577 201.084 104.076 193.309 98.042C191.428 102.869 189.56 105.735 184.249 107.843Z" fill="#00E28D"/>
<path fill-rule="evenodd" clip-rule="evenodd" d="M193.357 97.0225C192.62 96.8094 191.701 96.5708 190.908 96.3757C190.49 96.2728 190.11 96.1829 189.815 96.116C189.667 96.0825 189.542 96.0552 189.445 96.0352C189.397 96.0252 189.357 96.0173 189.327 96.0116C189.311 96.0087 189.299 96.0065 189.29 96.005L189.279 96.0032C189.277 96.0028 189.275 96.0026 189.276 96.0027L189.51 94.3121C189.744 94.3446 190.492 94.5157 191.316 94.7185C192.165 94.9275 193.171 95.1891 193.961 95.421C194.88 95.6907 195.365 96.6969 194.973 97.5877C194.15 99.457 192.354 102.8 190.146 105.04C187.946 107.273 185.716 109.006 183.811 109.967C182.992 110.381 182.06 110.008 181.666 109.267L179.696 105.561L181.203 104.76L183.136 108.396C184.801 107.536 186.845 105.958 188.931 103.842C190.883 101.861 192.547 98.8295 193.357 97.0225ZM183.173 108.466L183.173 108.466Z" fill="#3C2A53"/>
<path d="M158.308 140.233C164.362 146.096 186.44 147.66 171.181 130.435L150.473 131.139C152.977 134.472 155.765 137.77 158.308 140.233Z" fill="#00E28D"/>
<path fill-rule="evenodd" clip-rule="evenodd" d="M152.208 131.139C154.69 134.443 157.234 136.988 159.719 139.395C161.042 140.676 163.289 141.812 165.798 142.519C168.302 143.224 170.882 143.45 172.808 143.073C173.767 142.886 174.485 142.565 174.963 142.157C175.412 141.772 175.693 141.275 175.751 140.583C175.876 139.072 173.695 134.922 170.344 130.929L172.808 130.169C176.21 134.223 178.286 138.27 178.078 140.776C177.968 142.093 177.389 143.154 176.48 143.932C175.599 144.685 174.46 145.13 173.256 145.365C170.855 145.834 167.886 145.533 165.165 144.767C162.45 144.002 159.798 142.722 158.094 141.072C155.493 138.552 152.282 134.502 149.756 131.139H152.208Z" fill="#0B9561"/>
</svg>
