<svg width="315" height="165" viewBox="0 0 315 165" fill="none" xmlns="http://www.w3.org/2000/svg">
<path d="M266.646 51.9717C266.989 52.4705 266.565 53.1358 265.969 53.0375L245.67 49.6922C245.285 49.6287 245.03 49.2572 245.11 48.8749L249.302 28.7342C249.425 28.1421 250.198 27.987 250.54 28.4858L256.114 36.6143C256.329 36.927 256.756 37.0067 257.069 36.7922L310.12 0.410218C310.433 0.19576 310.86 0.275414 311.075 0.588129L314.479 5.55219C314.693 5.8649 314.614 6.29226 314.301 6.50672L261.25 42.8887C260.937 43.1032 260.858 43.5305 261.072 43.8432L266.646 51.9717Z" fill="#7D5CA4"/>
<path d="M79.7465 91.0916C80.1664 91.707 81.1193 91.5181 81.2728 90.7891L86.4942 65.9898C86.5933 65.5191 86.2804 65.0607 85.806 64.9813L60.8099 60.8026C60.0751 60.6797 59.5519 61.4982 59.9718 62.1135L66.8158 72.1429C67.0791 72.5287 66.9798 73.0549 66.5939 73.3182L1.1372 117.986C0.751355 118.249 0.652014 118.776 0.915314 119.161L5.09494 125.286C5.35824 125.672 5.88447 125.771 6.27031 125.508L71.7271 80.8404C72.1129 80.5771 72.6391 80.6764 72.9024 81.0623L79.7465 91.0916Z" fill="#5D22A4"/>
<path d="M246.172 143.196C246.427 143.571 247.008 143.456 247.102 143.012L250.283 127.901C250.343 127.614 250.153 127.335 249.864 127.286L234.633 124.74C234.185 124.665 233.867 125.164 234.123 125.539L238.293 131.65C238.453 131.885 238.393 132.206 238.158 132.366L198.273 159.583C198.038 159.744 197.978 160.064 198.138 160.299L200.685 164.031C200.845 164.266 201.166 164.327 201.401 164.167L241.285 136.95C241.52 136.789 241.841 136.85 242.001 137.085L246.172 143.196Z" fill="#382054"/>
<path d="M128.52 112.59C135.786 110.719 142.314 111.997 145.905 111.997C142.929 115.291 138.649 111.772 131.231 116.342C129.719 117.274 128.076 118.542 126.287 120.273C125.095 121.426 123.838 122.784 122.512 124.385C120.21 127.164 118.009 129.602 115.848 131.722C112.977 134.54 110.176 136.796 107.307 138.544C100.067 142.954 92.3849 144.132 82.0001 142.94C94.4512 141.115 100.305 138.022 104.142 134.221C106.677 131.711 108.332 128.892 110.427 125.927C112.001 123.701 113.823 121.392 116.451 119.068C118.453 117.299 120.488 115.933 122.512 114.882C124.54 113.83 126.557 113.095 128.52 112.59Z" fill="#00E28D"/>
<path d="M186.175 120.011C188.825 123.324 196.955 129.847 203.928 125.807C210.901 121.767 200.49 114.782 196.674 111.039C194.789 109.191 188.536 98.6906 182.99 103.548C177.444 108.405 183.524 116.698 186.175 120.011Z" fill="#00E28D"/>
<path d="M138.719 110.953C131.95 86.5966 145.683 66.0726 149.219 64.2252C152.756 62.3778 154.935 58.6908 156.982 55.8523C157.837 54.6656 161.732 47.6468 162.38 47.0154C161.068 46.6431 156.795 45.2152 153.476 43.0977C148.765 40.092 141.687 32.9474 146.466 24.2702C152.44 13.4238 168.161 19.837 171.397 22.1819C174.278 24.2703 176.27 26.2938 178.342 29.7582C179.556 28.1232 182.988 26.6338 185.74 26.7957C188.492 26.9576 189.981 27.6861 192.426 29.7582C193.802 29.2078 194.854 28.2365 199.096 28.8516C200.795 26.7957 203.709 23.7036 211.674 21.4372C219.639 19.1708 229.482 22.8133 231.441 29.1754C233.4 35.5376 232.266 42.5959 218.328 47.4687C218.582 48.4036 218.793 50.99 215.415 51.9929C215.045 54.3682 210.875 54.1043 209.117 53.9765C208.89 55.4983 205.215 54.786 204.357 54.7536C206.407 56.2426 207.013 57.6227 207.742 59.0357C211.817 59.3953 211.098 62.0608 209.025 62.8742C211.949 62.3498 211.301 67.6703 206.914 67.6703C206.085 70.4613 203.88 70.8694 203.169 71.576C213.324 89.2567 207.219 110.953 195.096 117.341C182.972 123.728 176.683 121.603 164.108 121.985C176.024 136.184 158.508 134.087 152.126 129.481C145.744 124.875 139.866 115.081 138.719 110.953Z" fill="#00E28D"/>
<path d="M189.069 41.1431C183.429 41.4571 179.574 44.1809 174.559 45.5005C176.894 46.7107 184.151 50.1331 189.775 50.7937C194.899 51.3955 201.118 51.0269 201.449 46.4853C201.78 41.9436 193.256 41.0734 189.069 41.1431Z" fill="white"/>
<path d="M208.712 43.4379C204.101 43.2566 201.491 44.4956 200.763 45.1377L201.038 48.4402C201.313 49.3468 203.11 51.3218 209.392 52.277C216.676 52.8759 218.651 50.82 218.473 48.165C218.295 45.5101 214.475 43.6645 208.712 43.4379Z" fill="white"/>
<path d="M204.768 43.6545C203.672 44.5853 202.966 45.8566 202.885 47.2894C202.809 48.6427 203.303 49.9155 204.187 50.9358C205.427 51.4505 207.115 51.9307 209.392 52.277C210.862 52.3979 212.116 52.4106 213.18 52.3321C214.808 51.3989 215.913 49.8441 216.015 48.0303C216.088 46.7387 215.641 45.5202 214.831 44.5248C213.22 43.9158 211.138 43.5333 208.712 43.4379C207.177 43.3776 205.864 43.4745 204.768 43.6545Z" fill="#484848"/>
<path d="M186.853 50.6413C189.54 51.2373 192.221 50.744 194.974 50.6414C196.874 49.6591 198.143 47.9013 198.149 45.8923C198.155 44.3139 197.38 42.8855 196.129 41.8633C193.696 41.27 190.947 41.1118 189.069 41.1431C188.615 41.1683 188.156 41.1996 187.696 41.2365C185.937 42.2402 184.149 43.5551 184.106 46.0844C184.062 48.6136 185.64 49.623 186.853 50.6413Z" fill="#484848"/>
<path d="M203.294 72.7724C203.512 71.7694 207.699 69.5017 207.873 67.3213C207.451 67.5238 206.847 67.5485 206.478 67.4957C206.041 70.3739 200.678 71.3333 203.294 72.7724Z" fill="#0B9561"/>
<path d="M207.699 59.3845C207.857 59.3845 208.5 59.3317 208.658 59.3845C208.265 56.6371 205.967 55.7405 204.406 54.7535C205.596 55.1071 208.817 55.6879 209.117 53.9765C210.769 54.3155 215.942 54.1495 215.942 51.8345C210.664 52.9957 205.089 52.1252 201.585 49.3536C203.226 51.565 206.528 52.4677 209.116 52.943C207.824 53.0547 205.016 52.4151 202.324 51.3066C205.544 53.2597 207.1 53.277 208.13 53.6292C209.239 54.2502 206.97 54.8432 203.839 54.5106C203.556 55.7649 207.262 56.6807 207.699 59.3845Z" fill="#0B9561"/>
<path d="M230.016 28.7544C234.618 37.7871 227.135 44.1338 218.328 47.4687C232.266 42.5959 233.594 35.5375 231.635 29.1753C229.676 22.8131 221.143 18.6364 211.284 21.1295C204.081 23.1794 201.584 26.2123 199.517 28.1636C199.299 28.3698 199.089 28.5673 198.885 28.7544C196.379 28.391 194.417 28.5603 192.426 29.7582C189.981 27.6861 188.492 26.9576 185.74 26.7957C182.988 26.6338 180.25 27.7993 178.342 29.4343C176.269 25.97 173.436 23.7086 171.753 22.376C167.56 19.0574 152.035 13.5532 146.061 24.3996C141.593 33.951 148.49 40.5614 153.201 43.5671C156.014 45.3619 159.809 46.3449 161.65 46.8217C161.949 46.8991 162.196 46.9634 162.38 47.0154C159.306 50.0119 156.927 55.4001 153.201 59.1715C156.082 63.1539 160.799 67.3808 165.427 70.5213C169.779 73.4741 178.401 75.3997 181.838 75.3889C182.977 75.4483 188.03 75.0005 193.133 73.2521C185.74 74.5604 179.993 74.4713 169.713 70.5213C161.786 66.9421 156.962 61.3788 154.932 59.5589C159.249 53.9764 160.36 49.5647 162.8 47.4847C163.119 47.2637 164.011 46.8217 165.035 46.8217C162.38 46.1734 154.949 43.7937 150.853 40.0055C146.757 36.2174 143.763 31.3608 146.968 24.9662C150.173 18.5717 167.479 14.4921 178.342 30.3085C178.367 30.2889 178.397 30.266 178.43 30.2401C179.82 29.1597 187.992 22.8079 194.789 34.7118C195.065 33.5786 194.368 31.377 193.964 30.8913C194.013 30.8796 194.071 30.8652 194.135 30.849C195.588 30.4832 200.759 29.1812 206.494 36.6059C206.494 36.6059 202.949 36.1365 200.375 37.2373C210.46 36.865 214.056 40.5105 213.86 41.0416C213.777 41.2664 212.311 41.0074 210.822 40.8474C208.362 40.5829 204.991 39.7303 201.88 41.0416C209.872 40.2219 218.698 44.5074 214.248 43.5671C208.809 42.4177 206.576 42.5444 200.822 44.2863C201.012 44.4967 200.94 44.6403 201.086 44.8669C209.75 42.0825 215.519 44.3277 217.133 45.817C217.813 45.6012 218.742 44.791 218.004 43.47C226.319 39.7919 223.875 37.642 221.614 37.0268C224.269 36.8865 224.656 31.636 222.796 29.7581C217.369 24.2798 208.478 29.6879 204.711 33.0768C203.637 31.4895 202.135 29.9164 200.229 29.1753C201.766 27.7434 205.621 24.3083 211.286 22.7646C217.789 20.9923 226.964 22.7646 230.016 28.7544Z" fill="#0B9561"/>
<path d="M163.837 45.2507C158.689 43.1624 147.913 33.7729 153.362 27.7993C160.259 20.2391 176.124 31.5712 176.723 35.845C176.456 35.8628 176.171 35.8771 175.868 35.8921C173.14 36.0281 169.027 36.233 164.889 39.7304C167.511 38.9371 168.823 39.7303 168.823 40.8474C165.682 42.0291 163.837 45.2507 163.837 45.2507Z" fill="#0B9561"/>
<path d="M170.282 58.2758C167.037 56.9318 168.075 54.1732 170.651 53.1681C169.259 54.5441 169.01 56.8925 170.282 58.2758Z" fill="#0B9561"/>
<path d="M201.215 45.1839C200.334 40.4716 191.321 39.3774 189.315 39.4304C180.639 39.6595 179.449 42.5708 172.635 44.0755C177.175 44.4552 181.292 40.8028 189.051 40.8028C182.295 41.4612 180.399 43.5111 174.031 45.4479C181.315 44.6013 192.174 37.7547 201.215 45.1839Z" fill="#0B9561"/>
<path d="M200.688 41.3567C199.292 36.5272 189.663 35.7276 186.488 36.191C183.875 36.5726 178.624 36.7716 172.289 41.6804C173.94 40.513 178.322 38.5888 180.03 38.4776C187.139 37.0245 194.245 37.8155 200.688 41.3567Z" fill="#0B9561"/>
<path d="M201.004 48.1393C200.899 51.3064 191.962 52.5884 188.162 51.7963C184.361 51.0042 180.418 49.4072 175.615 46.1345C179.837 47.7708 185.059 49.7238 187.856 50.3572C190.654 50.9906 195.778 50.8313 201.004 48.1393Z" fill="#0B9561"/>
<path d="M205.506 33.7734C205.506 33.7734 206.931 34.7609 207.757 36.6226C215.004 36.9927 217.453 41.7474 217.243 42.3535C217.092 42.7905 216.24 42.5963 215.414 42.3535C214.588 42.1106 213.536 41.6897 212.225 41.544L214.88 41.8192C215.592 41.9164 216.258 41.8354 216.045 41.3498C214.491 37.8044 209.035 37.0759 207.222 36.8169C207.3 36.26 205.987 34.4803 205.506 33.7734Z" fill="#B2FFE2"/>
<path d="M204.951 73.3831C198.142 76.8141 188.133 78.9348 175.254 75.3455C162.374 71.7561 154.016 61.6959 151.809 59.0661C136.311 76.1305 136.442 90.4342 136.442 106.744C156.078 102.891 183.103 104.345 206.565 110.233C209.836 94.8387 210.062 87.0474 204.951 73.3831Z" fill="#5E4E72"/>
<path d="M206.252 83.6484C206.176 84.1195 205.5 85.5117 204.98 85.706C205.139 83.831 205.205 79.646 202.269 79.1029C199.333 78.5597 195.569 79.617 191.279 79.5303C187.847 79.4608 184.217 78.6821 182.83 78.3014C189.888 80.1456 199.992 77.3251 203.421 76.1598C205.64 76.7587 206.447 82.4382 206.252 83.6484Z" fill="#7E62A1"/>
<path d="M199.579 40.38C198.145 39.3382 194.881 37.9519 192.77 37.5296C195.567 37.5296 199.076 38.5836 199.579 40.38Z" fill="#B2FFE2"/>
<path d="M208.745 54.718C212.146 55.0724 214.763 53.8962 216.123 53.0576C215.286 54.8925 212.582 55.7646 208.745 54.718Z" fill="#B2FFE2"/>
<path d="M192.106 33.142C190.118 29.848 186.449 29.4009 184.244 28.3165C186.231 28.0239 191.347 28.7864 192.106 33.142Z" fill="#B2FFE2"/>
<path d="M176.003 29.9071C173.219 26.5094 163.948 21.3035 160.894 21.0512C165.394 20.0574 174.484 25.6419 176.003 29.9071Z" fill="#B2FFE2"/>
<path d="M227.329 39.5944C231.179 32.4376 226.95 24.9012 217.01 23.6722C225.829 22.6963 234.363 31.1002 227.329 39.5944Z" fill="#B2FFE2"/>
<path d="M203.817 34.8585C200.654 32.3825 198.503 32.2741 196.299 31.1897C198.285 30.8971 201.016 31.1897 203.817 34.8585Z" fill="#B2FFE2"/>
<path d="M209.274 62.7862C211.928 62.5245 210.962 67.0201 208.294 67.4895C191.649 70.4178 184.299 66.314 178.262 63.5711C172.225 60.8282 169.911 56.3715 171.11 54.5444C172.309 52.7173 178.872 56.5074 184.541 57.9892C190.211 59.4709 195.552 59.765 200.284 59.821C205.016 59.877 207.362 58.5175 209.274 59.2539C211.186 59.9903 211.405 61.7832 209.274 62.7862Z" fill="#D7821E"/>
<path d="M202.965 54.2355C202.7 53.5232 201.638 53.4098 199.906 53.3127C197.591 53.4098 197.448 53.9473 197.396 54.3488C197.332 54.8506 198.724 56 198.934 56.2429C199.145 56.4857 199.744 57.6837 198.934 58.1369C199.258 58.2664 199.841 58.7845 200.958 58.1369C202.075 57.4894 203.321 55.1906 202.965 54.2355Z" fill="#4B4B4B"/>
<path d="M202.547 54.4447C202.512 54.6589 202.054 54.7612 201.525 54.6734C200.996 54.5855 200.596 54.3407 200.632 54.1266C200.667 53.9124 201.125 53.8101 201.654 53.8979C202.183 53.9858 202.583 54.2306 202.547 54.4447Z" fill="white"/>
<path d="M196.527 44.2178C196.468 45.103 195.307 45.7459 193.935 45.6537C192.563 45.5615 191.498 44.7692 191.558 43.884C191.617 42.9988 192.778 42.3559 194.15 42.4481C195.522 42.5403 196.587 43.3326 196.527 44.2178Z" fill="white"/>
<path d="M191.52 45.7023C191.489 46.1563 190.894 46.4859 190.191 46.4387C189.487 46.3914 188.941 45.9851 188.972 45.5312C189.002 45.0772 189.597 44.7476 190.301 44.7948C191.005 44.8421 191.55 45.2484 191.52 45.7023Z" fill="white"/>
<path d="M211.038 48.0234C210.809 48.4995 210.026 48.5977 209.288 48.2429C208.55 47.8881 208.137 47.2145 208.366 46.7384C208.595 46.2624 209.378 46.1641 210.116 46.519C210.854 46.8738 211.267 47.5474 211.038 48.0234Z" fill="white"/>
<path d="M193.55 46.6809C193.531 46.955 193.172 47.154 192.747 47.1255C192.322 47.097 191.993 46.8516 192.011 46.5775C192.03 46.3035 192.389 46.1044 192.814 46.1329C193.239 46.1615 193.568 46.4068 193.55 46.6809Z" fill="white"/>
<path d="M212.545 48.3115C212.531 48.5106 212.27 48.6552 211.962 48.6345C211.653 48.6137 211.413 48.4355 211.427 48.2364C211.44 48.0372 211.701 47.8926 212.01 47.9134C212.319 47.9341 212.558 48.1123 212.545 48.3115Z" fill="white"/>
<path d="M214.794 46.8003C214.563 47.4572 213.549 47.699 212.531 47.3402C211.513 46.9814 210.875 46.158 211.106 45.5011C211.337 44.8441 212.351 44.6024 213.369 44.9612C214.387 45.3199 215.025 46.1433 214.794 46.8003Z" fill="white"/>
<path d="M179.048 59.461C189.615 63.1684 200.547 64.5747 208.44 62.9176C202.291 65.2725 193.351 65.3161 179.048 59.461Z" fill="#8F4E02"/>
<path d="M204.82 63.4402C201.985 63.6583 200.59 63.6583 196.927 63.4402C199.583 65.8468 199.329 69.9959 199.329 69.9959C200.985 70.8244 203.028 70.3723 204.152 69.3751C205.004 67.1974 205.121 65.008 204.82 63.4402Z" fill="#F1F1F1"/>
<path d="M204.152 69.3751C205.004 67.1974 205.034 65.2703 204.733 63.7025C204.671 65.2609 204.597 66.7591 203.771 68.8696C203.488 69.188 202.877 69.4755 202.393 69.5133C202.478 68.7273 202.82 66.6707 202.377 65.1627C202.217 67.2699 202.27 67.9478 201.815 69.8021C201.474 69.9478 200.455 69.7721 200.007 69.5213C200.056 67.4552 198.962 65.2999 197.742 64.0313C198.794 66.06 199.504 68.0823 199.329 69.9959C200.985 70.8244 203.028 70.3723 204.152 69.3751Z" fill="#8B8B8B"/>
<path d="M228.672 58.9343C225.084 57.9468 212.72 56.1057 204.044 55.8135C204.007 55.8123 203.978 55.8422 203.978 55.8792C203.979 55.9143 204.004 55.9425 204.039 55.9433C209.232 56.0597 224.153 58.4585 228.474 59.5944C228.731 59.6618 228.965 59.425 228.898 59.1686C228.867 59.0543 228.786 58.9657 228.672 58.9343Z" fill="#382F43"/>
<path d="M226.614 63.0095C224.124 61.8888 211.669 58.22 203.893 56.9796C203.86 56.9743 203.831 57.0003 203.831 57.0337C203.832 57.0594 203.85 57.0812 203.875 57.0859C212.371 58.6566 222.974 62.6059 226.279 63.9213C226.547 64.0278 226.838 63.829 226.835 63.541L226.832 63.3526C226.83 63.205 226.749 63.0701 226.614 63.0095Z" fill="#382F43"/>
<path d="M166.305 51.1935C180.873 50.2923 191.441 53.5935 196.364 54.534C196.387 54.5384 196.405 54.5544 196.413 54.5764C196.43 54.6251 196.391 54.6748 196.341 54.664C193.897 54.1416 185.682 52.6469 181.418 52.1797C177.305 51.7291 169.343 51.8113 166.366 52.0385C166.132 52.0564 165.931 51.8736 165.928 51.6381L165.928 51.5987C165.925 51.3853 166.092 51.2067 166.305 51.1935Z" fill="#382F43"/>
<path d="M173.889 54.7921L174 55.2211C174.053 55.427 174.256 55.5558 174.465 55.5171C181.359 54.2387 189.776 54.5439 196.569 56.2247C196.62 56.2373 196.663 56.1868 196.643 56.1384C196.636 56.1195 196.619 56.1054 196.599 56.1006C189.648 54.4069 181.419 53.7849 174.246 54.2935C173.997 54.3112 173.827 54.5505 173.889 54.7921Z" fill="#382F43"/>
<path d="M198.174 103.129C203.313 106.533 221.459 113.688 223.662 108.622C225.865 103.556 211.942 96.5604 205.164 92.7672C203.864 97.3702 202.468 100.249 198.174 103.129Z" fill="#00E28D"/>
<path d="M251.805 103.175C252.348 104.018 253.622 103.867 253.954 102.921L265.582 69.7718C265.839 69.04 265.347 68.2597 264.576 68.1755L229.721 64.366C228.72 64.2565 228.034 65.3507 228.57 66.2037L235.183 76.7458C235.538 77.313 235.363 78.0614 234.793 78.4122L132.852 141.115C132.285 141.463 132.108 142.205 132.457 142.772L139.383 154.033C139.732 154.599 140.474 154.776 141.04 154.428L243.012 91.7062C243.57 91.3628 244.301 91.5288 244.656 92.0798L251.805 103.175Z" fill="#9857E4"/>
<path d="M176.89 98.6021C182.746 103.77 203.781 116.557 206.768 111.447C209.755 106.336 193.724 94.8353 185.949 88.8012C184.069 93.628 182.2 96.4941 176.89 98.6021Z" fill="#00E28D"/>
<path d="M150.949 130.992C157.003 136.855 179.08 138.42 163.821 121.194L143.114 121.899C145.618 125.232 148.405 128.529 150.949 130.992Z" fill="#00E28D"/>
<path fill-rule="evenodd" clip-rule="evenodd" d="M144.849 121.899C147.33 125.203 149.874 127.748 152.359 130.155C153.683 131.436 155.93 132.572 158.439 133.279C160.942 133.984 163.522 134.209 165.448 133.833C166.407 133.646 167.126 133.325 167.603 132.917C168.053 132.532 168.333 132.035 168.391 131.342C168.517 129.831 166.335 125.682 162.984 121.689L165.448 120.929C168.85 124.983 170.927 129.029 170.718 131.536C170.608 132.852 170.03 133.914 169.121 134.691C168.239 135.445 167.1 135.89 165.896 136.125C163.495 136.594 160.526 136.293 157.806 135.526C155.09 134.762 152.438 133.482 150.735 131.832C148.133 129.312 144.922 125.262 142.396 121.899H144.849Z" fill="#0B9561"/>
</svg>
