<svg width="274" height="234" viewBox="0 0 274 234" fill="none" xmlns="http://www.w3.org/2000/svg">
<g opacity="0.29">
<path d="M79.0824 187.793C85.74 190.008 96.5667 189.104 103.902 187.793C95.076 193.188 83.3165 197.342 75.6282 197.583C67.2705 197.844 60.3695 196 54.8174 191.543C49.453 187.236 44.7877 180.781 43.4392 173.38C41.8223 164.506 44.7248 155.782 49.516 148.232C52.1335 144.107 55.9392 138.557 58.6842 134.01C62.2151 128.16 63.7421 124.103 65.2866 116.622C66.9386 108.62 62.8402 90.9037 56.3438 72.3498C68.7055 87.1582 74.1105 107.869 73.9705 116.793C73.8416 125.012 71.6897 132.167 69.3216 139.323C67.7636 144.031 65.9804 148.843 64.4378 152.912C62.5101 157.998 61.0169 163.57 61.5072 169.235C61.8997 173.771 63.1565 177.179 66.6547 180.576C70.088 183.909 73.8682 186.057 79.0824 187.793Z" fill="#00E28D"/>
<path d="M79.0824 187.793C85.74 190.008 96.5667 189.104 103.902 187.793C95.076 193.188 83.3165 197.342 75.6282 197.583M79.0824 187.793C73.8682 186.057 70.088 183.909 66.6547 180.576M79.0824 187.793C79.0824 187.793 77.0246 189.763 75.949 191.969C74.8734 194.175 75.6282 197.583 75.6282 197.583M75.6282 197.583C67.2705 197.844 60.3695 196 54.8174 191.543M66.6547 180.576C63.1565 177.179 61.8997 173.771 61.5072 169.235M66.6547 180.576C66.6547 180.576 61.7616 182.027 59.0818 184.65C56.4019 187.274 54.8174 191.543 54.8174 191.543M54.8174 191.543C49.453 187.236 44.7877 180.781 43.4392 173.38M61.5072 169.235C61.0169 163.57 62.5101 157.998 64.4378 152.912M61.5072 169.235C61.5072 169.235 56.1735 168.796 52.2872 169.589C48.401 170.382 43.4392 173.38 43.4392 173.38M43.4392 173.38C41.8223 164.506 44.7248 155.782 49.516 148.232M64.4378 152.912C65.9804 148.843 67.7636 144.031 69.3216 139.323M64.4378 152.912C64.4378 152.912 60.8114 149.735 57.9511 148.904C55.0908 148.074 49.516 148.232 49.516 148.232M49.516 148.232C52.1335 144.107 55.9392 138.557 58.6842 134.01M69.3216 139.323C71.6897 132.167 73.8416 125.012 73.9705 116.793M69.3216 139.323C69.3216 139.323 66.4036 136.57 64.4048 135.671C62.406 134.771 58.6842 134.01 58.6842 134.01M58.6842 134.01C62.2151 128.16 63.7421 124.103 65.2866 116.622M73.9705 116.793C74.1105 107.869 68.7055 87.1582 56.3438 72.3498C62.8402 90.9037 66.9386 108.62 65.2866 116.622M73.9705 116.793C73.9705 116.793 71.34 116.426 69.6897 116.269C68.0395 116.112 65.2866 116.622 65.2866 116.622" stroke="#0B9561" stroke-width="3.74818" stroke-linejoin="round"/>
</g>
<g opacity="0.29">
<path d="M77.9906 191.524C85.0071 191.482 95.5531 188.398 102.078 184.798C95.4541 192.744 85.0696 199.206 77.8668 201.905C70.0367 204.839 62.9092 205.311 56.2189 202.875C49.7548 200.522 43.2622 195.909 39.6063 189.334C35.2226 181.451 35.1666 172.256 37.2764 163.567C38.4291 158.819 40.249 152.341 41.3865 147.153C42.8496 140.478 42.9915 136.146 42.0491 128.565C41.0411 120.457 31.4654 104.998 19.3497 89.5174C35.8155 99.5662 47.591 117.44 50.3272 125.936C52.8472 133.76 53.1093 141.227 53.1671 148.764C53.2052 153.723 53.0635 158.853 52.9109 163.202C52.7202 168.637 53.0973 174.394 55.3828 179.601C57.2126 183.77 59.4981 186.593 63.9025 188.685C68.2252 190.738 72.4953 191.557 77.9906 191.524Z" fill="#00E28D"/>
<path d="M77.9906 191.524C85.0071 191.482 95.5531 188.398 102.078 184.798C95.4541 192.744 85.0696 199.206 77.8668 201.905M77.9906 191.524C72.4953 191.557 68.2252 190.738 63.9025 188.685M77.9906 191.524C77.9906 191.524 76.6755 194.052 76.366 196.486C76.0564 198.92 77.8668 201.905 77.8668 201.905M77.8668 201.905C70.0367 204.839 62.9092 205.311 56.2189 202.875M63.9025 188.685C59.4981 186.593 57.2126 183.77 55.3828 179.601M63.9025 188.685C63.9025 188.685 59.7358 191.632 58.0414 194.978C56.347 198.323 56.2189 202.875 56.2189 202.875M56.2189 202.875C49.7548 200.522 43.2622 195.909 39.6063 189.334M55.3828 179.601C53.0973 174.394 52.7202 168.637 52.9109 163.202M55.3828 179.601C55.3828 179.601 50.1908 180.899 46.7658 182.899C43.3408 184.9 39.6063 189.334 39.6063 189.334M39.6063 189.334C35.2226 181.451 35.1666 172.256 37.2764 163.567M52.9109 163.202C53.0635 158.853 53.2052 153.723 53.1671 148.764M52.9109 163.202C52.9109 163.202 48.4555 161.359 45.4801 161.492C42.5047 161.625 37.2764 163.567 37.2764 163.567M37.2764 163.567C38.4291 158.819 40.249 152.341 41.3865 147.153M53.1671 148.764C53.1093 141.227 52.8472 133.76 50.3272 125.936M53.1671 148.764C53.1671 148.764 49.5192 147.096 47.3373 146.887C45.1555 146.677 41.3865 147.153 41.3865 147.153M41.3865 147.153C42.8496 140.478 42.9915 136.146 42.0491 128.565M50.3272 125.936C47.591 117.44 35.8155 99.5662 19.3497 89.5174C31.4654 104.998 41.0411 120.457 42.0491 128.565M50.3272 125.936C50.3272 125.936 47.7182 126.434 46.1052 126.816C44.4921 127.198 42.0491 128.565 42.0491 128.565" stroke="#0B9561" stroke-width="3.74818" stroke-linejoin="round"/>
</g>
<path d="M80.5855 188.767C87.5517 189.607 95.1604 188.78 102.085 186.028C94.5161 193.079 86.6433 197.277 79.1584 199.05C71.0217 200.978 63.8913 200.551 57.5601 197.293C51.443 194.146 45.5814 188.754 42.7805 181.772C39.422 173.401 40.5216 164.272 43.7065 155.916C45.4465 151.351 48.0659 145.153 49.8463 140.148C52.1364 133.711 52.8215 129.43 52.839 121.792C52.8578 113.621 45.3002 97.0817 35.2255 80.2012C50.2982 92.2392 59.7347 111.451 61.3818 120.223C62.8988 128.302 62.2207 135.743 61.3311 143.227C60.7458 148.152 59.9607 153.223 59.2629 157.519C58.3908 162.887 58.0418 168.645 59.6548 174.098C60.9464 178.464 62.8591 181.552 66.9658 184.18C70.9963 186.76 75.1296 188.109 80.5855 188.767Z" fill="#00E28D"/>
<path d="M80.5855 188.767C87.5517 189.607 95.1604 188.78 102.085 186.028C94.5161 193.079 86.6433 197.277 79.1584 199.05M80.5855 188.767C75.1296 188.109 70.9963 186.76 66.9658 184.18M80.5855 188.767C80.5855 188.767 78.9632 191.11 78.3503 193.486C77.7374 195.862 79.1584 199.05 79.1584 199.05M79.1584 199.05C71.0217 200.978 63.8913 200.551 57.5601 197.293M66.9658 184.18C62.8591 181.552 60.9464 178.464 59.6548 174.098M66.9658 184.18C66.9658 184.18 62.4617 186.581 60.3604 189.687C58.2591 192.793 57.5601 197.293 57.5601 197.293M57.5601 197.293C51.443 194.146 45.5814 188.754 42.7805 181.772M59.6548 174.098C58.0418 168.645 58.3908 162.887 59.2629 157.519M59.6548 174.098C59.6548 174.098 54.3409 174.734 50.6918 176.288C47.0426 177.842 42.7805 181.772 42.7805 181.772M42.7805 181.772C39.422 173.401 40.5216 164.272 43.7065 155.916M59.2629 157.519C59.9607 153.223 60.7458 148.152 61.3311 143.227M59.2629 157.519C59.2629 157.519 55.0744 155.131 52.1058 154.889C49.1373 154.647 43.7065 155.916 43.7065 155.916M43.7065 155.916C45.4465 151.351 48.0659 145.153 49.8463 140.148M61.3311 143.227C62.2207 135.743 62.8988 128.302 61.3818 120.223M61.3311 143.227C61.3311 143.227 57.9217 141.114 55.7834 140.632C53.6451 140.15 49.8463 140.148 49.8463 140.148M49.8463 140.148C52.1364 133.711 52.8215 129.43 52.839 121.792M61.3818 120.223C59.7347 111.451 50.2982 92.2392 35.2255 80.2012C45.3002 97.0817 52.8578 113.621 52.839 121.792M61.3818 120.223C61.3818 120.223 58.731 120.389 57.0827 120.565C55.4344 120.742 52.839 121.792 52.839 121.792" stroke="#0B9561" stroke-width="3.74818" stroke-linejoin="round"/>
<path d="M179.046 208.979C181.267 212.703 185.949 218.324 191.984 222.289C198.029 226.261 205.76 228.765 213.77 225.492C217.829 223.833 220.057 221.211 220.377 217.819C220.672 214.701 219.281 211.426 217.486 208.463C215.652 205.438 213.173 202.387 210.819 199.639C210.032 198.72 209.266 197.843 208.539 197.01C207.038 195.291 205.698 193.758 204.668 192.425C204.367 192.035 203.944 191.362 203.366 190.388C203.147 190.02 202.901 189.6 202.638 189.15C202.252 188.491 201.828 187.767 201.396 187.044C199.904 184.552 198.035 181.605 195.854 179.013C193.695 176.447 191.085 174.051 188.056 172.878C184.891 171.652 181.425 171.828 177.926 174.131C170.99 178.696 170.478 186.076 171.945 192.608C173.41 199.133 176.948 205.46 179.046 208.979Z" fill="#00E28D" stroke="#0B9561" stroke-width="3.98588"/>
<path d="M108.247 91.6618C107.06 92.2819 105.701 93.519 104.309 95.0795C102.874 96.688 101.267 98.7985 99.6008 101.343C96.2672 106.435 92.6445 113.345 89.6618 121.623C83.6966 138.178 80.2528 160.315 86.9356 184.363C88.1303 188.662 91.6667 195.604 96.3797 202.526C101.108 209.468 107.19 216.642 113.627 221.288C116.966 223.698 121.641 225.708 126.356 226.955C131.053 228.198 136.047 228.751 140.017 228.025C142.01 227.66 143.9 226.945 145.342 225.678C146.839 224.361 147.721 222.559 147.805 220.355C147.887 218.226 147.224 215.822 145.884 213.153C144.962 211.316 143.691 209.298 142.037 207.083C145.965 207.042 149.603 207.109 153.064 207.173C168.474 207.459 180.384 207.68 198.852 197.95C211.257 191.414 220.336 177.222 223.846 160.521C227.258 144.284 225.475 125.422 216.181 108.289C216.758 107.963 217.498 107.541 218.249 106.997C219.713 105.936 221.22 104.408 222.223 102C226.55 101.47 229.245 98.5699 230.056 95.5977C230.489 94.0103 230.432 92.1788 229.474 90.7348C229.329 90.5161 229.169 90.3152 228.996 90.1321C229.748 89.1244 230.19 87.9185 230.076 86.6006C229.948 85.1142 229.105 83.8448 227.767 82.9592C226.707 82.2576 225.335 81.7872 223.681 81.536C223.017 80.2393 222.29 78.8766 221.196 77.4688C222.221 77.4451 223.365 77.3265 224.36 76.952C225.009 76.7078 225.706 76.3033 226.23 75.6761C227.958 75.7727 230.303 75.821 232.471 75.4648C233.869 75.2352 235.358 74.8137 236.596 74.005C237.571 73.368 238.395 72.4822 238.863 71.3157C241.981 70.1291 243.736 68.1828 244.549 66.0458C245.055 64.7137 245.156 63.4105 245.089 62.3313C257.829 57.6364 265.188 51.8427 268.824 45.3725C272.635 38.5895 272.126 31.4787 270.142 25.0341C268.002 18.0824 261.674 12.8921 254.189 10.0151C246.663 7.12248 237.608 6.41224 229.451 8.73321C214.635 12.9492 208.454 18.674 204.842 22.8746C201.178 22.4328 198.651 22.6047 196.66 23.0889C195.253 23.4313 194.02 23.9872 193.079 24.4223C191.066 22.7828 189.259 21.5492 187.334 20.68C185.075 19.6602 182.77 19.1935 179.941 19.0271C176.909 18.8488 173.616 19.5753 170.794 20.7354C168.998 21.4736 167.27 22.4383 165.873 23.5645C162.168 17.8822 158.395 14.2093 153.245 10.477L152.075 12.0907L153.245 10.477C149.819 7.99429 140.316 3.63985 130.157 2.55903C119.948 1.47296 108.434 3.66642 102.098 15.1694C97.0963 24.2518 98.3127 32.6314 101.988 39.4076C105.61 46.0841 111.604 51.2176 116.333 54.2349C121.466 57.5096 127.682 59.9395 131.459 61.2211C131.313 61.4546 131.161 61.7001 131.004 61.9554C130.084 63.4553 128.964 65.3549 127.841 67.2713C127.536 67.791 127.233 68.3092 126.934 68.8195C124.982 72.1559 123.226 75.1565 122.571 76.0642C121.946 76.9311 121.332 77.8119 120.714 78.6978C119.297 80.7316 117.86 82.7933 116.222 84.7804C113.904 87.5919 111.339 90.047 108.247 91.6618Z" fill="#00E28D" stroke="#0B9561" stroke-width="3.98588"/>
<path d="M213.784 109.964C214.206 108.024 222.305 103.637 222.643 99.4184C221.826 99.8101 220.658 99.858 219.943 99.7559C219.1 105.324 208.722 107.18 213.784 109.964Z" fill="#0B9561"/>
<path d="M222.305 84.0637C222.612 84.0637 223.855 83.9616 224.162 84.0637C223.402 78.7486 218.955 77.0141 215.935 75.1045C218.239 75.7887 224.469 76.912 225.049 73.6012C228.246 74.257 238.254 73.936 238.254 69.4574C228.042 71.704 217.257 70.0198 210.478 64.6579C213.653 68.9361 220.042 70.6824 225.049 71.6019C222.548 71.818 217.115 70.5807 211.907 68.4362C218.137 72.2146 221.147 72.2481 223.14 72.9294C225.285 74.1309 220.895 75.2781 214.839 74.6348C214.291 77.0613 221.462 78.833 222.305 84.0637Z" fill="#0B9561"/>
<path d="M265.481 24.8064C274.384 42.2811 259.906 54.5594 242.869 61.011C269.835 51.584 272.403 37.929 268.613 25.6206C264.824 13.3123 248.316 5.23207 229.243 10.0551C215.306 14.0209 210.476 19.8883 206.477 23.6635C206.055 24.0623 205.65 24.4443 205.255 24.8064C200.407 24.1033 196.611 24.4306 192.759 26.7481C188.03 22.7393 185.148 21.33 179.824 21.0168C174.5 20.7036 169.203 22.9586 165.511 26.1218C161.502 19.4196 156.022 15.0448 152.764 12.4667C144.653 6.04637 114.618 -4.60205 103.061 16.3816C94.4173 34.8598 107.759 47.6483 116.873 53.4632C122.315 56.9355 129.658 58.8373 133.219 59.7596C133.798 59.9094 134.276 60.0334 134.631 60.1341C128.685 65.9312 124.082 76.3554 116.873 83.6518C122.448 91.3562 131.573 99.5334 140.527 105.609C148.946 111.322 165.626 115.047 172.276 115.026C174.479 115.141 184.255 114.275 194.127 110.892C179.824 113.423 168.706 113.251 148.818 105.609C133.482 98.6848 124.15 87.9219 120.222 84.4012C128.574 73.6012 130.724 65.0664 135.445 61.0423C136.061 60.6147 137.788 59.7596 139.767 59.7596C134.631 58.5055 120.255 53.9016 112.332 46.573C104.408 39.2444 98.6141 29.8487 104.815 17.4777C111.016 5.10677 144.496 -2.78559 165.511 27.813C165.56 27.7752 165.618 27.7308 165.682 27.6806C168.371 25.5904 184.18 13.3022 197.331 36.3318C197.864 34.1394 196.517 29.8801 195.734 28.9405C195.83 28.9179 195.94 28.89 196.065 28.8586C198.875 28.1511 208.88 25.6322 219.975 39.9961C219.975 39.9961 213.116 39.0878 208.136 41.2175C227.648 40.4972 234.605 47.55 234.225 48.5775C234.064 49.0122 231.229 48.5112 228.348 48.2016C223.589 47.6901 217.068 46.0406 211.049 48.5775C226.51 46.9915 243.586 55.2823 234.977 53.4632C224.453 51.2396 220.133 51.4847 209.002 54.8546C209.369 55.2617 209.231 55.5394 209.513 55.9779C226.275 50.591 237.435 54.9347 240.557 57.816C241.872 57.3984 243.671 55.8309 242.243 53.2753C258.328 46.1597 253.601 42.0005 249.227 40.8104C254.363 40.5389 255.112 30.3812 251.513 26.7481C241.015 16.1498 223.814 26.6124 216.525 33.1686C214.447 30.0978 211.541 27.0545 207.854 25.6206C210.829 22.8504 218.287 16.2048 229.245 13.2184C241.826 9.78981 259.577 13.2184 265.481 24.8064Z" fill="#0B9561"/>
<path d="M137.449 56.7204C127.49 52.6802 106.644 34.5152 117.186 22.9586C130.528 8.33262 161.221 30.2558 162.379 38.524C161.863 38.5584 161.311 38.586 160.725 38.6152C155.447 38.8781 147.492 39.2746 139.485 46.0406C144.559 44.506 147.096 46.0406 147.096 48.2016C141.02 50.4879 137.449 56.7204 137.449 56.7204Z" fill="#0B9561"/>
<path d="M140.235 66.3765C140.302 59.5822 146.003 59.4519 149.668 63.3491C146.193 61.8442 141.798 63.0937 140.235 66.3765Z" fill="#0B9561"/>
<path d="M209.763 56.5911C208.057 47.4744 190.621 45.3577 186.741 45.4602C169.956 45.9033 167.653 51.5357 154.472 54.4466C163.254 55.1812 171.219 48.1152 186.23 48.1152C173.159 49.389 169.492 53.3548 157.172 57.1018C171.264 55.464 192.271 42.2184 209.763 56.5911Z" fill="#0B9561"/>
<path d="M208.742 49.1869C206.041 39.8437 187.413 38.2967 181.272 39.1932C176.216 39.9315 166.057 40.3165 153.803 49.8132C156.997 47.5547 165.473 43.8321 168.777 43.6169C182.53 40.8058 196.277 42.336 208.742 49.1869Z" fill="#0B9561"/>
<path d="M218.064 34.5151C218.064 34.5151 220.821 36.4256 222.418 40.0273C236.44 40.7432 241.177 49.9417 240.771 51.1142C240.478 51.9598 238.829 51.584 237.232 51.1142C235.634 50.6444 233.599 49.8301 231.062 49.5482L236.198 50.0806C237.576 50.2685 238.865 50.112 238.453 49.1724C235.446 42.3135 224.892 40.9042 221.384 40.4031C221.535 39.3257 218.994 35.8827 218.064 34.5151Z" fill="#B2FFE2"/>
<path d="M218.65 110.524L217.958 108.674L216.193 109.563C203.403 116.008 184.492 120.057 160.012 113.235C135.832 106.496 120.016 87.6459 115.625 82.4122L115.538 82.3084L114.234 80.754L112.869 82.2561C97.6927 98.9664 90.1111 114.398 86.3517 129.691C82.6764 144.641 82.6777 159.392 82.679 174.81C82.679 175.101 82.6791 175.393 82.6791 175.685L82.6791 177.839L84.7919 177.424C122.468 170.031 174.483 172.812 219.681 184.153L221.463 184.6L221.845 182.803C225.016 167.879 226.745 156.496 226.403 145.48C226.06 134.435 223.639 123.862 218.65 110.524Z" fill="#5E4E72" stroke="#0B9561" stroke-width="3.54339"/>
<path d="M219.507 131.004C219.36 131.915 218.052 134.609 217.046 134.984C217.354 131.357 217.481 123.261 211.801 122.21C206.121 121.159 198.841 123.205 190.541 123.037C183.901 122.903 176.877 121.396 174.195 120.66C187.849 124.227 207.397 118.771 214.03 116.516C218.323 117.675 219.885 128.663 219.507 131.004Z" fill="#7E62A1"/>
<path d="M206.597 47.2978C203.823 45.2824 197.509 42.6003 193.424 41.7834C198.836 41.7834 205.624 43.8224 206.597 47.2978Z" fill="#B2FFE2"/>
<path d="M224.33 75.0363C230.911 75.7218 235.973 73.4463 238.604 71.8239C236.985 75.3737 231.755 77.0611 224.33 75.0363Z" fill="#B2FFE2"/>
<path d="M192.14 33.2951C188.294 26.9225 181.196 26.0575 176.931 23.9598C180.774 23.3936 190.671 24.8689 192.14 33.2951Z" fill="#B2FFE2"/>
<path d="M160.987 27.0372C155.602 20.4639 137.666 10.3926 131.757 9.90448C140.463 7.98183 158.05 18.7857 160.987 27.0372Z" fill="#B2FFE2"/>
<path d="M260.284 45.7778C267.731 31.9322 259.55 17.3522 240.319 14.9746C257.382 13.0866 273.891 29.3448 260.284 45.7778Z" fill="#B2FFE2"/>
<path d="M214.796 36.6167C208.677 31.8267 204.516 31.6168 200.251 29.519C204.094 28.9528 209.376 29.519 214.796 36.6167Z" fill="#B2FFE2"/>
<path d="M225.355 90.6457C230.489 90.1395 228.621 98.8367 223.458 99.7449C191.258 105.41 178.098 99.4194 165.358 92.1643C152.619 84.9092 141.779 69.5451 144.098 66.0104C146.417 62.4757 167.214 78.8352 178.182 81.7018C189.15 84.5684 198.808 84.8009 207.963 84.9093C217.118 85.0176 221.656 82.3874 225.355 83.8121C229.054 85.2368 229.477 88.7053 225.355 90.6457Z" fill="#D7821E"/>
<path d="M213.147 74.1026C212.633 72.7246 210.579 72.5053 207.228 72.3174C202.749 72.5053 202.474 73.5451 202.374 74.3218C202.248 75.2927 204.942 77.5163 205.349 77.9861C205.756 78.4559 206.915 80.7735 205.349 81.6504C205.975 81.901 207.103 82.9032 209.264 81.6504C211.425 80.3977 213.836 75.9504 213.147 74.1026Z" fill="#4B4B4B"/>
<ellipse cx="210.487" cy="74.199" rx="1.87834" ry="0.760405" transform="rotate(9.42988 210.487 74.199)" fill="white"/>
<path d="M262.993 82.7871C256.01 80.8654 232.056 77.3007 215.25 76.7346C214.931 76.7239 214.682 76.984 214.686 77.2889C214.69 77.5562 214.894 77.8219 215.215 77.8291C220.207 77.9409 229.91 79.153 239.43 80.6163C248.948 82.0794 258.235 83.7862 262.391 84.8787C263.203 85.0922 263.937 84.3445 263.725 83.5394C263.632 83.1857 263.37 82.891 262.993 82.7871ZM200.869 74.6216L200.471 74.763L200.869 74.6216C200.807 74.4465 200.657 74.3048 200.457 74.2666C198.82 73.9539 196.855 73.5045 194.578 72.9838C183.645 70.4835 165.526 66.3397 142.102 67.8033C141.522 67.8396 141.064 68.325 141.072 68.911L141.075 69.1952C141.084 69.8337 141.627 70.3324 142.265 70.2821C147.917 69.8375 163.441 69.6717 171.416 70.5455C179.647 71.4474 195.524 74.3358 200.244 75.345C200.713 75.4451 200.996 74.9798 200.869 74.6216ZM259.133 90.7207C256.759 89.6363 249.499 87.3074 240.974 84.9543C232.437 82.5979 222.585 80.2041 215.008 78.9956C214.673 78.9421 214.398 79.2092 214.402 79.5222C214.405 79.7698 214.581 79.9863 214.832 80.0326C231.356 83.0877 252.035 90.8134 258.246 93.2939C258.981 93.5872 259.76 93.0335 259.75 92.2548L259.743 91.6751C259.737 91.2792 259.521 90.8978 259.133 90.7207ZM156.458 75.1678L156.726 76.2084C156.871 76.7701 157.425 77.1211 157.994 77.015C171.287 74.533 187.555 75.1157 200.673 78.3613C201.112 78.4699 201.474 78.0328 201.308 77.6252C201.242 77.4644 201.103 77.3434 200.933 77.3017C187.399 74.0047 171.382 72.801 157.436 73.8035C156.752 73.8527 156.289 74.5098 156.458 75.1678ZM200.733 78.1214C200.733 78.1214 200.732 78.1213 200.732 78.1213L200.733 78.1214Z" fill="#382F43" stroke="white" stroke-width="0.843664"/>
<path d="M166.877 84.2105C187.321 91.3829 208.469 94.1035 223.74 90.8977C209.482 100.178 185.691 96.2127 166.877 84.2105Z" fill="#F1F1F1"/>
<path d="M216.737 91.9097C211.253 92.3315 208.554 92.3315 201.467 91.9097C206.606 96.5655 206.114 104.592 206.114 104.592C209.318 106.195 213.271 105.321 215.444 103.391C217.094 99.1784 217.32 94.9427 216.737 91.9097Z" fill="#F1F1F1"/>
<path d="M215.445 103.391C217.094 99.1782 217.151 95.4488 216.569 92.4157C216.448 95.4304 216.305 98.3289 214.708 102.412C214.16 103.028 212.978 103.584 212.041 103.657C212.205 102.137 212.868 98.158 212.011 95.2406C211.702 99.3172 211.804 100.629 210.923 104.216C210.264 104.498 208.292 104.158 207.424 103.673C207.52 99.6757 205.404 95.506 203.044 93.0518C205.079 96.9765 206.453 100.89 206.114 104.592C209.318 106.195 213.271 105.32 215.445 103.391Z" fill="#8B8B8B"/>
<path d="M208.481 59.3125L208.495 59.3198L208.496 59.3354C208.762 61.8906 207.854 63.8564 206.236 65.3433C204.618 66.829 202.293 67.8359 199.721 68.4786C194.578 69.7639 188.438 69.5953 184.977 68.874C178.06 67.4324 171.334 65.3193 162.592 59.3627L162.619 59.3109C170.301 62.2875 181.192 65.3591 184.987 65.8375C186.885 66.0768 191.77 66.5767 196.431 66.227C198.761 66.0522 201.034 65.665 202.85 64.9278C204.656 64.1942 206.005 63.116 206.511 61.5601C204.404 60.4646 201.471 59.6774 198.414 59.1276C195.346 58.5759 192.154 58.2635 189.548 58.1178C183.344 57.771 177.359 57.9747 173.001 58.2352C170.823 58.3655 169.051 58.51 167.861 58.607L167.86 58.607C167.266 58.6555 166.817 58.6921 166.535 58.7091C166.395 58.7176 166.295 58.7213 166.239 58.719C166.225 58.7184 166.213 58.7174 166.203 58.7158C166.199 58.715 166.194 58.714 166.189 58.7124C166.185 58.7111 166.178 58.7085 166.173 58.7029C166.165 58.6958 166.16 58.6838 166.164 58.6701C166.167 58.6599 166.174 58.6538 166.177 58.6512C166.184 58.6453 166.194 58.6407 166.204 58.6369C166.268 58.6118 166.392 58.5778 166.568 58.5363C166.745 58.4946 166.975 58.4448 167.252 58.3883C167.807 58.2754 168.551 58.1353 169.431 57.9784C171.191 57.6647 173.495 57.2836 175.919 56.9177C180.764 56.1861 186.09 55.5142 188.494 55.5623C190.896 55.6103 194.594 55.8509 198.341 56.4277C202.086 57.0044 205.884 57.9176 208.481 59.3125Z" fill="#0B9561" stroke="#0B9561" stroke-width="0.0589024"/>
<path d="M214.88 164.79C222.098 167.357 246.691 168.332 248.585 158.585C250.479 148.837 231.332 145.588 221.94 143.361C221.119 151.794 219.858 157.42 214.88 164.79Z" fill="#00E28D"/>
<path d="M213.812 139.94C214.452 139.765 218.984 138.986 221.87 138.647C222.622 138.558 223.271 139.132 223.265 139.889C223.239 143.476 222.648 150.165 220.657 155.249C218.609 160.475 216.19 164.802 213.838 167.577C213.387 168.109 212.598 168.155 212.055 167.717L206.078 162.908" stroke="#3C2A53" stroke-width="3.2928"/>
<g filter="url(#filter0_d_96_2168)">
<path fill-rule="evenodd" clip-rule="evenodd" d="M206.934 191.526C205.165 191.481 203.664 191.457 202.005 191.421C188.65 191.139 178.208 172.79 178.681 150.439C179.154 128.087 190.364 110.197 203.718 110.48C205.378 110.515 206.625 110.549 208.352 110.578C210.08 110.607 211.748 110.65 213.408 110.685C226.762 110.967 237.205 129.316 236.731 151.668C236.258 174.019 225.049 191.909 211.694 191.627C210.035 191.591 208.703 191.571 206.934 191.526Z" fill="#00E28D" stroke="#0B9561" stroke-width="2.50505"/>
<path fill-rule="evenodd" clip-rule="evenodd" d="M192.792 114.719C192.803 114.237 193.202 113.855 193.684 113.865L207.369 114.155C207.851 114.165 208.233 114.564 208.223 115.046C208.213 115.528 207.814 115.91 207.332 115.9L193.647 115.611C193.165 115.6 192.782 115.201 192.792 114.719ZM188.503 118.656C188.513 118.173 188.912 117.791 189.394 117.801L203.08 118.091C203.562 118.101 203.944 118.5 203.934 118.982C203.924 119.464 203.525 119.847 203.043 119.837L189.358 119.547C188.875 119.537 188.493 119.138 188.503 118.656ZM187.163 121.78C186.681 121.77 186.281 122.153 186.271 122.635C186.261 123.117 186.644 123.516 187.126 123.526L200.811 123.816C201.293 123.826 201.692 123.444 201.702 122.961C201.712 122.479 201.33 122.08 200.848 122.07L187.163 121.78ZM183.95 126.613C183.96 126.131 184.359 125.748 184.841 125.758L198.526 126.048C199.008 126.058 199.391 126.457 199.381 126.939C199.371 127.421 198.971 127.804 198.489 127.794L184.804 127.504C184.322 127.494 183.94 127.095 183.95 126.613ZM183.414 129.755C182.932 129.745 182.533 130.128 182.523 130.61C182.513 131.092 182.895 131.491 183.377 131.501L197.063 131.791C197.545 131.801 197.944 131.418 197.954 130.936C197.964 130.454 197.582 130.055 197.1 130.045L183.414 129.755ZM181.275 134.61C181.285 134.128 181.684 133.746 182.166 133.756L195.852 134.046C196.334 134.056 196.716 134.455 196.706 134.937C196.696 135.419 196.297 135.802 195.815 135.791L182.129 135.502C181.647 135.491 181.265 135.092 181.275 134.61ZM180.382 137.745C179.9 137.735 179.501 138.117 179.49 138.599C179.48 139.081 179.863 139.48 180.345 139.49L194.03 139.78C194.512 139.79 194.911 139.408 194.921 138.926C194.931 138.444 194.549 138.045 194.067 138.034L180.382 137.745ZM179.405 142.624C179.415 142.142 179.814 141.76 180.296 141.77L193.982 142.059C194.464 142.07 194.846 142.469 194.836 142.951C194.826 143.433 194.427 143.815 193.945 143.805L180.259 143.515C179.777 143.505 179.395 143.106 179.405 142.624ZM180.211 145.795C179.729 145.785 179.33 146.167 179.32 146.649C179.31 147.131 179.692 147.53 180.174 147.54L193.859 147.83C194.341 147.84 194.741 147.458 194.751 146.976C194.761 146.494 194.378 146.095 193.896 146.085L180.211 145.795ZM179.235 150.674C179.245 150.192 179.644 149.81 180.126 149.82L193.811 150.11C194.293 150.12 194.676 150.519 194.666 151.001C194.655 151.483 194.256 151.865 193.774 151.855L180.089 151.565C179.607 151.555 179.225 151.156 179.235 150.674ZM180.043 153.755C179.561 153.745 179.162 154.128 179.151 154.61C179.141 155.092 179.524 155.491 180.006 155.501L193.691 155.791C194.173 155.801 194.572 155.418 194.582 154.936C194.592 154.454 194.21 154.055 193.728 154.045L180.043 153.755ZM179.066 158.635C179.076 158.153 179.475 157.77 179.957 157.78L193.643 158.07C194.125 158.08 194.507 158.479 194.497 158.961C194.487 159.443 194.088 159.826 193.606 159.816L179.92 159.526C179.438 159.516 179.056 159.117 179.066 158.635ZM179.872 161.805C179.39 161.795 178.991 162.178 178.981 162.66C178.971 163.142 179.353 163.541 179.835 163.551L193.521 163.841C194.003 163.851 194.402 163.469 194.412 162.986C194.422 162.504 194.04 162.105 193.557 162.095L179.872 161.805ZM180.595 166.721C180.605 166.239 181.005 165.857 181.487 165.867L195.172 166.157C195.654 166.167 196.036 166.566 196.026 167.048C196.016 167.53 195.617 167.912 195.135 167.902L181.45 167.612C180.968 167.602 180.585 167.203 180.595 166.721ZM182.564 169.916C182.082 169.906 181.683 170.288 181.673 170.77C181.663 171.252 182.045 171.651 182.527 171.662L196.212 171.951C196.694 171.962 197.093 171.579 197.104 171.097C197.114 170.615 196.731 170.216 196.249 170.206L182.564 169.916ZM182.929 174.824C182.94 174.342 183.339 173.96 183.821 173.97L197.506 174.26C197.988 174.27 198.37 174.669 198.36 175.151C198.35 175.633 197.951 176.016 197.469 176.005L183.784 175.716C183.302 175.705 182.919 175.306 182.929 174.824ZM186.24 178.048C185.758 178.038 185.359 178.42 185.349 178.903C185.338 179.385 185.721 179.784 186.203 179.794L199.888 180.084C200.37 180.094 200.769 179.711 200.779 179.229C200.79 178.747 200.407 178.348 199.925 178.338L186.24 178.048ZM188.215 182.99C188.225 182.508 188.624 182.126 189.106 182.136L202.792 182.425C203.274 182.436 203.656 182.835 203.646 183.317C203.636 183.799 203.237 184.181 202.755 184.171L189.069 183.881C188.587 183.871 188.205 183.472 188.215 182.99ZM192.867 186.242C192.385 186.232 191.986 186.614 191.976 187.097C191.966 187.579 192.348 187.978 192.83 187.988L206.516 188.278C206.998 188.288 207.397 187.905 207.407 187.423C207.417 186.941 207.035 186.542 206.553 186.532L192.867 186.242Z" fill="#0B9561"/>
<path d="M236.776 151.668C236.549 162.39 233.583 171.977 229.039 178.809C224.485 185.656 218.471 189.581 212.129 189.446C205.786 189.312 199.944 185.136 195.683 178.102C191.433 171.085 188.875 161.381 189.102 150.659C189.329 139.937 192.295 130.35 196.839 123.519C201.393 116.672 207.407 112.747 213.749 112.881C220.092 113.015 225.934 117.191 230.195 124.225C234.445 131.243 237.003 140.947 236.776 151.668Z" fill="url(#paint0_linear_96_2168)" stroke="#0B9561" stroke-width="2.59451"/>
<path d="M201.32 163.411L209.516 171.206C211.157 172.768 213.717 172.828 215.43 171.345L224.039 163.894C224.98 163.079 225.533 161.903 225.559 160.659L225.956 141.903C225.983 140.647 225.47 139.438 224.549 138.583L216.26 130.894C214.618 129.371 212.095 129.324 210.397 130.783L201.881 138.105C200.933 138.92 200.377 140.099 200.35 141.349L199.953 160.129C199.926 161.366 200.423 162.558 201.32 163.411Z" fill="#00E28D"/>
<g filter="url(#filter1_f_96_2168)">
<ellipse cx="212.943" cy="151.106" rx="9.02727" ry="14.0563" transform="rotate(1.21274 212.943 151.106)" fill="white"/>
</g>
<path fill-rule="evenodd" clip-rule="evenodd" d="M210.044 146.626C211.685 148.186 214.243 148.246 215.956 146.764L224.596 139.291L225.665 142.361L215.48 151.17C214.538 151.985 213.985 153.161 213.959 154.407L213.59 171.799L211.329 171.751L211.698 154.342C211.724 153.104 211.227 151.912 210.33 151.058L200.617 141.828L201.823 138.813L210.044 146.626Z" fill="#00E28D"/>
</g>
<path d="M151.328 160.97C160.14 164.729 190.364 169.123 192.944 158.825C195.523 148.527 172.056 142.409 160.562 138.723C159.335 147.744 157.64 153.664 151.328 160.97Z" fill="#00E28D"/>
<path d="M152.569 136.276C153.219 136.146 157.795 135.685 160.697 135.547C161.454 135.511 162.061 136.129 162.003 136.884C161.727 140.46 160.672 147.092 158.331 152.025C155.924 157.095 153.21 161.243 150.67 163.848C150.183 164.347 149.393 164.338 148.882 163.864L143.254 158.651" stroke="#3C2A53" stroke-width="3.2928"/>
<path d="M243.732 65.3876C242.812 62.5164 235.044 60.6206 231.501 60.2726C227.959 59.9247 219.521 59.26 212.603 62.3816C217.075 62.3947 233.789 61.1404 243.732 65.3876Z" fill="#0B9561"/>
<defs>
<filter id="filter0_d_96_2168" x="164.545" y="94.8195" width="85.6416" height="108.626" filterUnits="userSpaceOnUse" color-interpolation-filters="sRGB">
<feFlood flood-opacity="0" result="BackgroundImageFix"/>
<feColorMatrix in="SourceAlpha" type="matrix" values="0 0 0 0 0 0 0 0 0 0 0 0 0 0 0 0 0 0 127 0" result="hardAlpha"/>
<feOffset dx="-0.384111" dy="-1.92056"/>
<feGaussianBlur stdDeviation="6.24181"/>
<feComposite in2="hardAlpha" operator="out"/>
<feColorMatrix type="matrix" values="0 0 0 0 1 0 0 0 0 1 0 0 0 0 1 0 0 0 1 0"/>
<feBlend mode="normal" in2="BackgroundImageFix" result="effect1_dropShadow_96_2168"/>
<feBlend mode="normal" in="SourceGraphic" in2="effect1_dropShadow_96_2168" result="shape"/>
</filter>
<filter id="filter1_f_96_2168" x="195.989" y="129.128" width="33.9069" height="43.9552" filterUnits="userSpaceOnUse" color-interpolation-filters="sRGB">
<feFlood flood-opacity="0" result="BackgroundImageFix"/>
<feBlend mode="normal" in="SourceGraphic" in2="BackgroundImageFix" result="shape"/>
<feGaussianBlur stdDeviation="3.96158" result="effect1_foregroundBlur_96_2168"/>
</filter>
<linearGradient id="paint0_linear_96_2168" x1="240.661" y1="128.797" x2="166.526" y2="204.678" gradientUnits="userSpaceOnUse">
<stop offset="0.0733165" stop-color="#D9D9D9"/>
<stop offset="1" stop-color="#20FFAB"/>
</linearGradient>
</defs>
</svg>
