<svg width="1527" height="295" viewBox="0 0 1527 295" fill="none" xmlns="http://www.w3.org/2000/svg">
<mask id="mask0_309_11" style="mask-type:alpha" maskUnits="userSpaceOnUse" x="551" y="0" width="401" height="295">
<rect x="551" width="400.068" height="295" fill="white"/>
</mask>
<g mask="url(#mask0_309_11)">
<path d="M562.745 258.589C562.747 258.589 562.748 258.589 562.749 258.589L562.745 258.589ZM572.283 301.106H572.523C612.167 302.704 739.534 303.1 801.586 301.103L801.694 301.1L801.801 301.091C808.796 300.539 811.436 300.048 813.298 299.672C813.395 299.653 813.487 299.634 813.577 299.615C814.766 299.372 815.451 299.232 818.521 299.232H821.049L822.418 297.105C824.93 293.202 827.068 286.767 828.65 279.663C830.265 272.405 831.416 263.913 831.702 255.551C831.987 247.232 831.426 238.785 829.462 231.733C827.814 225.815 824.956 220.132 820.062 216.803C819.895 215.551 819.534 214.004 818.764 212.416C817.553 209.917 815.507 207.599 812.354 205.816C812.812 204.573 813.255 203.151 813.639 201.583C814.457 198.243 815.028 194.151 814.862 189.616C819.781 188.434 823.651 185.501 825.427 181.382C826.598 178.665 826.739 175.599 825.638 172.707C825.38 172.031 825.062 171.382 824.687 170.763C825.003 170.449 825.3 170.118 825.577 169.769C827.319 167.569 827.97 165.014 827.866 162.603C827.731 159.438 826.301 156.37 824.134 154.121C824.48 152.598 824.772 150.802 824.887 148.938C824.961 147.726 824.972 146.316 824.817 144.835C825.817 144.894 826.858 144.93 827.896 144.922C830.064 144.905 832.639 144.701 834.886 143.858C836.222 143.356 837.699 142.51 838.826 141.183C839.245 141.187 839.714 141.192 840.258 141.195C842.576 141.207 845.673 141.18 848.776 140.868C851.788 140.566 855.253 139.957 858.095 138.572C860.23 137.531 862.474 135.781 863.539 133.11C869.305 130.577 872.663 126.999 874.311 122.812C875.031 120.983 875.367 119.123 875.512 117.428C895.035 119.893 911.019 115.78 922.498 108.875C934.732 101.515 942.491 90.4811 942.491 80.6325C942.491 65.86 932.559 53.4278 919.907 44.3437C907.13 35.1704 890.664 28.6998 875.458 25.9994C844.352 20.475 817.414 25.3042 797.057 36.8595C789.512 35.9016 784.314 36.2262 780.205 37.2228C777.614 37.8511 775.268 38.8611 773.464 39.685C769.634 36.6013 766.139 34.2426 762.403 32.5606C757.876 30.5223 753.268 29.5978 747.666 29.2692C741.595 28.913 735.035 30.3625 729.434 32.6589C725.678 34.1983 722.036 36.2501 719.144 38.6793C714.288 34.6933 708.889 31.6576 703.265 29.0086C698.967 26.9841 694.279 25.0772 689.555 23.1557C686.772 22.0238 683.977 20.8868 681.242 19.7178C676.833 17.8337 669.491 16.0508 660.897 14.8963C652.214 13.7299 641.927 13.1608 631.516 13.8656C611.099 15.2479 588.425 21.6844 578.15 40.2907C566.756 60.9214 571.035 82.2691 586.625 96.9966C600.53 110.133 623.024 117.707 650.584 115.822C649.05 119.014 647.291 122.853 645.55 126.723C643.369 131.569 641.242 136.404 639.57 140.205C638.177 143.373 637.1 145.822 636.57 146.961C635.755 148.715 635.15 150.335 634.697 151.613C634.536 151.491 634.369 151.363 634.193 151.229C633.877 150.989 633.536 150.729 633.181 150.464C631.087 148.898 628.18 148.304 626.251 148.021C624.074 147.701 621.904 147.621 620.51 147.645L617.899 147.69L616.585 149.947L615.886 151.146C614.862 152.119 614.166 153.308 613.826 154.662C613.463 156.112 613.591 157.503 613.658 158.232L613.659 158.241C613.668 158.342 613.677 158.44 613.686 158.535C613.803 159.786 613.867 160.472 613.688 161.212C613.579 161.34 613.407 161.538 613.148 161.817C612.537 162.473 611.687 163.323 610.628 164.343C608.515 166.378 605.744 168.92 602.766 171.637C602.261 172.097 601.75 172.563 601.234 173.033C595.781 178.003 589.858 183.402 586.757 186.76C583.098 190.722 579.089 197.433 576.019 203.142C574.446 206.067 573.052 208.859 571.993 211.108C570.998 213.219 570.146 215.171 569.829 216.241C569.439 217.559 569.375 218.957 569.354 219.988C569.343 220.54 569.344 221.118 569.346 221.66L569.346 221.681C569.347 222.247 569.348 222.795 569.339 223.358C569.304 225.619 569.102 227.774 568.302 229.814C567.01 233.107 566.65 235.414 566.539 237.406C566.499 238.136 566.486 238.654 566.476 239.063C566.456 239.843 566.447 240.226 566.275 240.923C565.395 244.505 563.401 249.488 561.598 253.88C561.47 254.192 561.343 254.501 561.217 254.807C560.495 256.564 559.821 258.201 559.361 259.435C559.104 260.124 558.829 260.905 558.669 261.585L558.669 261.588C558.611 261.831 558.438 262.567 558.504 263.421C558.534 263.808 558.654 264.933 559.502 266.02C560.354 267.112 561.523 267.661 562.656 267.798C562.498 268.829 562.239 269.955 561.919 271.344C561.786 271.925 561.642 272.552 561.49 273.237C561.002 275.438 560.49 278.042 560.371 280.706C560.256 283.288 560.6 284.961 560.839 286.128C560.899 286.42 560.952 286.68 560.99 286.915C561.178 288.074 561.37 290.117 560.793 295.586L560.358 299.702L564.399 300.597C564.511 300.622 564.624 300.648 564.74 300.675C565.369 300.821 566.065 300.982 567.151 301.048C568.119 301.106 569.589 301.106 572.283 301.106ZM836.608 141.191C836.612 141.19 836.64 141.188 836.695 141.184C836.634 141.192 836.602 141.193 836.608 141.191ZM564.299 267.781C564.299 267.781 564.296 267.781 564.289 267.78C564.296 267.78 564.299 267.781 564.299 267.781Z" fill="#00E28D" stroke="#0B9561" stroke-width="9.26884"/>
<path d="M714.091 179.664C732.625 183.764 774.044 214.637 793.234 198.725C764.089 200.381 741.626 180.373 714.091 179.664Z" fill="#0B9561"/>
<path d="M834.446 96.7884C816.975 96.1032 807.085 100.786 804.325 103.212L805.368 115.693C806.411 119.119 813.22 126.583 837.023 130.193C864.629 132.456 872.114 124.687 871.439 114.653C870.764 104.619 856.286 97.645 834.446 96.7884Z" fill="white"/>
<path d="M766.289 84.124C721.424 90.4062 715.023 87.813 709.788 90.8537C717.641 96.9718 742.302 112.573 762.792 118.935C781.46 124.732 804.238 129.589 808.636 112.948C813.034 96.3067 781.933 86.7752 766.289 84.124Z" fill="white"/>
<path d="M750.428 117.535C760.021 121.617 776.109 124.981 786.433 126.512C792.634 126.512 794.516 127.012 795.941 119.553C800.771 94.2655 750.838 85.5292 746.145 110.094C745.045 115.853 746.618 112.91 750.428 117.535Z" fill="url(#paint0_linear_309_11)"/>
<path d="M812.236 122.124C812.236 124.916 814.837 125.021 818.437 126.512C829.107 130.931 840.743 133.343 852.242 132.497C859.643 131.499 859.843 131.898 861.259 125.622C862.634 101.324 813.493 99.9175 812.236 122.124Z" fill="url(#paint1_linear_309_11)"/>
<path d="M806.042 208.198C807.514 206.362 813.956 196.329 812.238 184.888C811.624 184.44 810.459 184.215 808.987 184.215C810.41 187.054 810.213 197.797 806.042 208.198Z" fill="#0B9561"/>
<path d="M817.023 155.522C817.636 155.522 818.373 155.706 818.925 155.95C821.204 150.597 821.685 144.565 818.127 139.554C818.519 139.569 818.969 139.621 819.575 139.691C819.714 139.707 819.862 139.724 820.019 139.742C820.124 139.753 820.233 139.766 820.347 139.778C825.471 140.339 835.264 141.41 835.98 136.617C844.44 136.687 857.862 139.949 865.843 126.514C850.041 134.493 821.355 130.951 806.435 117.736C793.522 128.642 773.529 122.213 759.602 117.223C744.137 111.683 733.468 106.823 714.389 96.2998C744.449 119.976 767.332 124.381 783.466 127.318C775.841 128.391 765.968 125.373 758.065 122.957C755.604 122.205 753.333 121.51 751.381 121.017C758.007 125.238 769.847 130.989 784.325 132.09C798.803 133.191 803.649 125.666 801.134 123.831C803.833 122.95 806.035 119.332 806.435 117.736C813.236 128.309 828.942 131.234 833.324 131.953C833.654 132.007 833.929 132.052 834.139 132.09C838.843 133.314 827.597 134.476 820.347 132.09C821.471 132.71 822.34 133.199 823.044 133.594C826.02 135.266 826.048 135.282 829.967 136.617C834.814 138.269 821.468 139.017 815.98 138.636C817.964 140.9 820.765 149.159 817.023 155.522Z" fill="#0B9561"/>
<path d="M935.254 71.7054C942.473 96.2386 915.051 117.138 869.659 109.158C868.859 108.959 870.644 110.754 870.886 112.023C918.451 122.957 948.478 95.015 941.054 70.9713C933.631 46.9276 903.449 30.9614 877.045 27.1712C850.642 23.3811 827.038 25.5754 797.208 41.2991C787.712 39.9256 780.276 40.565 772.73 45.0922C763.467 37.2612 757.823 34.5081 747.394 33.8962C736.964 33.2844 726.589 37.6894 719.358 43.8687C705.739 30.7619 685.418 23.3811 677.416 20.3889C669.415 17.3966 599.801 3.16275 580.003 41.2991C567.401 68.2738 578.953 90.6178 596.805 101.977C614.512 113.244 643.837 114.345 658.869 110.31C656.977 112.15 648.629 131.121 643.837 142.011L643.837 142.012C642.414 145.245 641.305 147.766 640.772 148.915C639.858 150.88 639.265 152.583 638.789 153.949C638.05 156.069 637.594 157.379 636.661 157.602C636.348 157.677 636.013 157.663 635.657 157.575C636.186 157.949 636.596 158.249 636.845 158.459C636.17 159.682 634.269 161.334 631.876 162.252C642.796 177.302 655.625 187.275 673.163 199.143C689.653 210.302 726.883 221.27 739.909 221.229C744.224 221.453 768.546 218.109 787.883 211.502C751.197 217.008 725.615 214.071 686.659 199.143C663.091 188.531 652.304 176.893 645.034 169.049C643.038 166.895 641.306 165.027 639.648 163.545C642.736 160.482 646.854 155.737 649.115 150.383C647.765 151.423 644.612 153.674 642.796 154.36C648.624 142.371 658.414 112.55 668.378 106.333C639.612 110.754 611.652 106.333 595.406 95.0761C579.159 83.819 572.627 60.414 586.203 41.2991C604.607 16.1997 660.214 8.60389 719.358 47.1723C723.468 44.0244 755.307 17.7448 781.687 63.8133C782.73 59.5307 780.092 51.2103 778.558 49.3749C778.746 49.3306 778.962 49.2762 779.207 49.2149C784.711 47.8327 804.308 42.9122 826.041 70.9713C826.041 70.9713 812.606 69.1972 802.852 73.3574C841.071 71.9503 854.699 85.7275 853.954 87.7347C853.639 88.5839 849.838 88.1765 844.195 87.5717C834.872 86.5724 820.521 85.0341 808.557 87.7347C840.887 82.1061 872.29 100.832 855.427 97.2787C834.814 92.935 809.435 93.8691 801.434 99.0556C805.635 100.98 807.835 105.967 807.835 109.578C830.838 99.0556 855.427 110.954 870.044 110.356C872.621 109.54 874.045 106.333 869.659 96.9117C910.85 106.333 932.053 87.0005 905.449 93.7985C931.853 80.6327 923.9 69.3771 916.851 62.28C896.287 41.5767 839.24 39.698 821.237 56.4951C817.166 50.4964 810.371 46.1302 804.835 43.9277C810.661 38.5162 833.042 28.7671 859.443 29.964C897.248 32.4999 928.034 47.1723 935.254 71.7054Z" fill="#0B9561"/>
<path d="M769.63 93.7985C782.759 93.3995 798.834 96.3918 803.835 100.65C805.552 99.6714 806.226 92.9963 799.539 87.7347C801.563 81.9225 794.999 71.6443 784.325 71.7054C789.601 77.1505 789.969 81.3107 789.969 83.3296C787.032 82.0448 776.631 76.0446 765.429 75.2467C754.228 74.4488 747.31 73.1003 727.624 80.6327C718.739 83.4254 703.62 84.6223 700.62 84.6223C703.02 88.7589 724.823 86.2128 734.625 83.8191C744.426 81.4253 751.027 77.2415 781.687 83.3296C753.828 79.9822 742.96 85.4193 731.424 87.7347C721.667 89.6931 711.858 87.9726 709.221 90.8063C735.663 100.182 756.501 94.1975 769.63 93.7985Z" fill="#0B9561"/>
<path d="M779.207 75.2467C772.03 68.0958 739.989 65.5756 733.825 70.9713C741.153 69.8102 770.83 70.5874 779.207 75.2467Z" fill="#0B9561"/>
<path d="M705.739 95.0761C708.07 97.401 717.517 103.519 720.585 104.62C719.48 104.62 716.082 105.403 715.738 106.333C711.873 104.824 706.229 98.8938 705.739 95.0761Z" fill="#0B9561"/>
<path d="M695.419 171.198C684.218 180.972 670.416 165.566 682.817 156.508C681.417 159.582 681.817 163.172 682.417 165.766C683.017 168.359 684.818 172.793 695.419 171.198Z" fill="#0B9561"/>
<path d="M664.39 103.641C637.129 103.641 613.875 101.026 600.806 91.8033C587.613 82.493 582.804 67.125 593.805 52.7049C626.61 15.2023 715.738 54.8992 713.223 68.0958C703.101 68.7689 673.637 69.9391 656.214 84.6223C666.152 81.6245 683.285 82.7791 683.285 87.0005C671.384 91.4666 664.39 103.641 664.39 103.641Z" fill="#0B9561"/>
<path d="M822.299 60.2646C822.299 60.2646 827.698 63.9966 830.827 71.0323C858.293 72.4308 867.572 90.3998 866.776 92.6901C866.203 94.3419 862.974 93.6078 859.844 92.6901C856.714 91.7724 852.728 90.1816 847.759 89.631L857.82 90.6711C860.519 91.0381 863.043 90.7322 862.237 88.8969C856.347 75.4984 835.673 72.7454 828.802 71.7665C829.097 69.6619 824.119 62.9362 822.299 60.2646Z" fill="#B2FFE2"/>
<path d="M594.205 265.153C593.472 267.547 592.125 273.451 592.605 277.92C593.085 282.388 593.872 289.224 594.205 292.083C592.472 291.019 588.965 287.614 588.805 282.508C588.645 277.401 588.738 268.81 588.805 265.153H594.205Z" fill="#0B9561"/>
<path d="M815.551 219.577C821.625 222.269 828.639 243.808 826.438 257.971C824.238 272.134 820.501 284.635 816.5 295.806C776.897 297.867 704.221 297.867 704.221 297.867C704.221 297.867 684.218 298.466 654.814 297.867C654.814 288.935 656.852 272.927 652.742 271.303C636.406 265.609 622.977 265.669 609.063 265.732C606.831 265.742 604.585 265.752 602.314 265.738C596.27 265.702 594.149 266.093 592.845 266.653C590.078 267.84 588.915 267.351 586.128 265.738L586.128 265.738C582.829 263.829 578.301 261.208 570.229 261.208C567.67 261.208 567.319 264.656 567.434 266.736C566.795 266.011 565.985 265.745 565.246 265.502L565.246 265.502C564.16 265.145 563.229 264.839 563.229 263.198C563.229 261.246 565.768 254.943 567.915 249.613C569.269 246.255 570.466 243.283 570.774 242.03C571.069 240.829 571.096 239.847 571.124 238.8C571.171 237.019 571.224 235.052 572.615 231.507C573.994 227.992 573.985 224.478 573.979 221.678C573.975 219.994 573.972 218.569 574.271 217.558C575.069 214.866 583.719 196.879 590.16 189.904C593.116 186.704 598.888 181.443 604.411 176.408C610.924 170.47 617.092 164.847 617.889 163.291C618.616 161.312 618.451 159.637 618.312 158.221C618.145 156.53 618.015 155.208 619.484 154.175L620.588 152.279C622.961 152.238 628.245 152.56 630.404 154.175C630.76 154.442 631.105 154.704 631.438 154.957L631.439 154.958C633.63 156.625 637.478 158.54 638.809 158.221C638.4 159.075 636.588 161.138 632.613 162.557C636.662 167.268 658.256 195.472 710.647 214.07C745.836 223.957 788.906 214.274 806.042 208.197C815.692 210.997 815.585 217.466 815.554 219.336L815.554 219.34C815.552 219.43 815.551 219.509 815.551 219.577Z" fill="#5E4E72"/>
<path d="M631.324 156.745C642.06 160.538 628.748 158.222 624.821 156.745C623.84 159.07 632.674 162.557 629.975 162.557C637.704 171.245 644.514 182.563 657.52 192.535C637.398 183.848 628.441 164.882 622.92 165.983C617.398 167.085 601.264 185.072 593.964 191.434C586.663 197.797 587.645 199.388 582.124 208.198C576.602 217.007 576.173 234.627 575.989 242.214C576.664 240.256 578.136 236.646 578.749 229.978C579.363 223.309 585.62 209.972 586.541 212.541C587.461 215.111 580.651 226.98 582.124 235.667C583.596 244.355 580.406 253.838 578.136 260.23C579.731 260.428 582.124 260.23 587.645 263.105C588.258 261.299 588.504 256.285 591.387 252.737C595.068 249.898 600.773 242.948 603.166 239.828C602.314 244.416 594.27 254.755 595.068 263.105C598.994 262.339 644.575 262.525 653.471 268.337C657.299 264.765 652.53 244.375 649.667 234.627C652.317 241.43 653.716 243.07 656.852 242.214C667.779 237.258 667.642 228.632 671.568 227.714C670.219 235.361 664.023 244.661 656.852 250.779C656.852 255.184 665.986 265.503 661.63 271.303C661.237 272.674 661.63 279.915 661.63 285.5C661.63 291.086 660.015 298.067 660.015 298.067C658.414 298.067 656.062 297.956 654.614 298.067C654.614 289.135 656.852 272.927 652.742 271.303C636.406 265.61 622.977 265.67 609.063 265.732C606.831 265.742 604.585 265.752 602.314 265.738C596.27 265.702 594.149 266.093 592.845 266.653C590.078 267.84 588.915 267.351 586.128 265.738L586.128 265.738C582.829 263.829 578.301 261.209 570.229 261.209C567.67 261.209 567.319 264.656 567.434 266.736C566.795 266.011 565.985 265.745 565.246 265.503C564.16 265.146 563.229 264.84 563.229 263.198C563.229 261.247 565.768 254.944 567.915 249.614L567.915 249.614C569.269 246.255 570.466 243.283 570.774 242.03C571.069 240.83 571.096 239.847 571.124 238.801C571.171 237.02 571.224 235.052 572.615 231.507C573.994 227.993 573.985 224.478 573.979 221.678C573.975 219.994 573.972 218.569 574.271 217.558C575.069 214.866 583.719 196.879 590.16 189.905C593.116 186.704 598.888 181.443 604.411 176.408L604.411 176.408L604.652 176.188C611.073 170.335 616.98 164.951 617.766 163.414C618.493 161.434 620.046 159.638 619.907 158.222C619.74 156.53 619.61 155.208 621.079 154.176L623.595 154.176C625.967 154.135 625.177 153.111 627.337 154.726L631.324 156.745Z" fill="#382F43"/>
<path d="M819.733 294.875C818.521 295.806 816.904 295.403 816.5 295C831.515 241.122 821.477 226.086 811.318 222.513C811.502 218.945 810.741 213.508 804.263 212.969C795.797 216.212 774.203 221.29 752.792 220.739C735.664 220.299 717.559 216.11 710.647 214.071C745.836 223.957 788.906 214.274 806.042 208.197C816.164 211.134 815.551 218.109 815.551 219.577C839.13 230.519 820.945 293.945 819.733 294.875Z" fill="#7E62A1"/>
<path d="M803.711 222.453C782.915 229.183 776.918 239.583 776.166 240.378C775.415 241.174 774.265 241.357 773.344 240.745C772.424 240.134 764.854 232.89 746.106 229.366C727.358 225.842 706.312 224.39 698.132 224.105C757.517 222.453 769.786 232.241 773.835 233.771C784.019 225.083 799.969 221.168 802.362 220.679C804.754 220.189 807.331 220.434 803.711 222.453Z" fill="#7E62A2"/>
<path d="M741.924 286.834C768.528 286.657 768.129 283.242 770.329 280.45C772.528 277.658 773.669 277.857 776.329 282.046C778.33 284.041 786.131 284.44 803.333 284.44C786.731 287.233 776.869 286.348 773.669 283.954C765.528 290.225 749.526 288.23 743.925 288.23C741.482 288.23 739.924 286.834 741.924 286.834Z" fill="#7E62A2"/>
<path d="M798.807 87.7108C796.87 82.2648 794.461 78.2168 788.365 73.7272C794.238 73.7272 800.351 80.8305 798.807 87.7108Z" fill="#B2FFE2"/>
<path d="M771.518 57.8807C763.984 45.4321 750.081 43.7425 741.726 39.6445C749.254 38.5385 768.642 41.4204 771.518 57.8807Z" fill="#B2FFE2"/>
<path d="M712.614 59.7582C688.877 40.9711 668.97 35.1023 643.487 31.301C665.506 27.7294 700.636 41.985 712.614 59.7582Z" fill="#B2FFE2"/>
<path d="M921.529 98.9076C939.931 79.3584 924.801 48.7635 885.198 41.5094C923.185 41.5094 949.732 81.9516 921.529 98.9076Z" fill="#B2FFE2"/>
<path d="M815.897 64.3704C803.912 55.0133 795.762 54.6033 787.407 50.5054C794.934 49.3994 805.282 50.5054 815.897 64.3704Z" fill="#B2FFE2"/>
<path d="M630.862 272.737C627.704 281.724 627.984 287.84 628.918 291.161C634.96 291.206 635.525 284.003 635.525 284.003C636.335 280.635 632.615 267.745 630.862 272.737Z" fill="#B2FFE2"/>
<path d="M817.086 169.776C825.368 174.242 822.439 184.474 812.037 185.758C771.631 190.745 733.625 159.626 691.419 167.606C687.096 168.423 685.619 162.429 685.619 159.626C686.819 146.261 702.421 133.295 727.025 140.476C746.917 147.561 773.555 153.612 794.634 155.827C804.035 156.815 813.851 153.443 818.742 155.827C824.263 158.519 825.981 167.757 817.086 169.776Z" fill="#D7821E"/>
<path d="M812.667 137.596C811.661 134.904 807.637 134.475 801.073 134.108C792.3 134.475 791.76 136.507 791.564 138.024C791.318 139.92 796.594 144.264 797.392 145.182C798.189 146.1 800.459 150.627 797.392 152.34C798.619 152.829 800.827 154.787 805.06 152.34C809.293 149.893 814.017 141.205 812.667 137.596Z" fill="#4B4B4B"/>
<ellipse cx="3.67903" cy="1.48552" rx="3.67903" ry="1.48552" transform="matrix(0.986559 0.163405 -0.164277 0.986414 804.072 135.719)" fill="white"/>
<ellipse cx="8.58049" cy="5.52019" rx="8.58049" ry="5.52019" transform="matrix(0.993517 0.113684 -0.114299 0.993446 775.493 108.161)" fill="white"/>
<ellipse cx="3.87207" cy="2.60111" rx="3.87207" ry="2.60111" transform="matrix(0.968576 0.248716 -0.249996 0.968247 766.33 110.155)" fill="white"/>
<ellipse cx="2.86864" cy="1.8251" rx="2.86864" ry="1.8251" transform="matrix(0.999978 0.00660087 -0.00663709 0.999978 835.161 118.021)" fill="white"/>
<ellipse cx="7.40887" cy="4.76617" rx="7.40887" ry="4.76617" transform="matrix(0.998528 0.0542385 -0.0545352 0.998512 842.241 118.175)" fill="white"/>
<path d="M644.208 229.916C647.937 234.713 651.181 253.226 651.569 263.137C647.459 261.974 636.539 259.466 625.742 258.732C627.582 258.059 638.564 254.327 646.907 257.325C648.072 256.162 646.907 242.58 644.208 229.916Z" fill="#7E62A1"/>
<path d="M809.232 169.348C803.834 170.511 793.221 169.776 778.988 166.84C788.313 176.69 786.963 192.78 786.963 192.78C792.975 196.39 800.828 195.289 805.367 191.862C809.232 183.909 809.907 175.344 809.232 169.348Z" fill="#F1F1F1"/>
<path d="M805.367 191.862C809.232 183.908 809.907 175.343 809.232 169.348C808.537 175.201 807.821 182.134 804.079 189.843C802.913 190.959 800.521 191.862 798.68 191.862C799.232 188.925 801.134 181.278 799.907 175.466C798.68 183.358 798.68 185.927 796.41 192.78C795.081 193.228 791.282 192.266 789.662 191.189C790.46 183.419 786.963 174.976 782.73 169.837C786.104 177.79 788.19 185.622 786.963 192.78C792.975 196.389 800.828 195.288 805.367 191.862Z" fill="#8B8B8B"/>
<path d="M699.62 155.039C714.422 143.27 746.19 160.326 774.241 166.137C745.19 164.782 721.223 145.664 699.62 155.039Z" fill="#8F4E02"/>
<path d="M816.744 142.178L815.537 142.005V143.224V144.937V145.874L816.467 145.986C843.423 149.238 860.168 166.75 871.036 180.399L871.938 181.531L872.742 180.328L874.358 177.91L874.827 177.209L874.248 176.596C873.711 176.028 873.173 175.457 872.633 174.884C859.764 161.225 845.735 146.336 816.744 142.178ZM815.358 148.006L814.628 147.876L814.257 148.517L813.337 150.108L812.613 151.361L814.026 151.67C848.896 159.301 860.424 184.68 864.022 193.054L864.919 195.142L865.938 193.11L867.959 189.08L868.186 188.626L867.974 188.165C866.413 184.771 861.389 176.199 852.714 167.749C844.029 159.289 831.641 150.906 815.358 148.006ZM788.864 138.175L788.627 137.756L788.155 137.661C778.701 135.744 769.922 135.17 759.765 137.465C749.631 139.755 738.196 144.886 723.393 154.264L722.426 154.877L723.114 155.792L724.327 157.404L724.892 158.156L725.705 157.681C727.34 156.725 729.117 155.581 731.048 154.338C743.149 146.548 761.302 134.863 788.505 141.134L790.847 141.673L789.662 139.582L788.864 138.175ZM789.644 144.08L789.421 143.714L789.005 143.607C760.783 136.344 739.863 152.005 719.892 166.956C718.88 167.714 717.87 168.469 716.862 169.221L715.953 169.898L716.692 170.757L719.116 173.578L719.877 174.463L720.682 173.619C736.795 156.747 760.743 139.521 789.331 147.06L791.872 147.73L790.503 145.487L789.644 144.08Z" fill="white" stroke="#382F43" stroke-width="2.11395"/>
</g>
<mask id="mask1_309_11" style="mask-type:alpha" maskUnits="userSpaceOnUse" x="0" y="0" width="1527" height="295">
<rect width="1527" height="295" rx="25" fill="white"/>
</mask>
<g mask="url(#mask1_309_11)">
<path d="M385.262 136.841C386.334 134.503 425.877 99.8145 445.281 83.9775C429.095 101.186 393.78 137.332 390.972 138.653C388.164 139.974 384.189 139.178 385.262 136.841Z" fill="#BBBBBB"/>
<path d="M476.569 112.621C477.642 110.284 517.185 75.5947 536.588 59.7578C520.403 76.9667 485.088 113.112 482.28 114.433C479.472 115.754 475.496 114.958 476.569 112.621Z" fill="#BBBBBB"/>
<path d="M485.565 164.264C486.638 161.926 526.18 127.237 545.584 111.4C529.399 128.609 494.084 164.755 491.276 166.076C488.468 167.397 484.492 166.601 485.565 164.264Z" fill="#BBBBBB"/>
<path d="M575.947 120.594C577.02 118.256 616.562 83.5674 635.966 67.7305C619.78 84.9394 584.465 121.085 581.657 122.406C578.849 123.727 574.874 122.931 575.947 120.594Z" fill="#BBBBBB"/>
<path d="M593.019 176.124C594.092 173.786 633.634 139.098 653.038 123.261C636.852 140.47 601.537 176.615 598.729 177.936C595.922 179.257 591.946 178.461 593.019 176.124Z" fill="#BBBBBB"/>
<path d="M1077.06 213.324C1078.14 210.987 1117.68 176.298 1137.08 160.461C1120.9 177.67 1085.58 213.815 1082.78 215.136C1079.97 216.458 1075.99 215.662 1077.06 213.324Z" fill="#BBBBBB"/>
<path d="M699.469 75.8466C700.541 73.5091 740.084 38.8203 759.488 22.9834C743.302 40.1923 707.987 76.3378 705.179 77.6589C702.371 78.9801 698.396 78.184 699.469 75.8466Z" fill="#BBBBBB"/>
<path d="M589.002 54.2811C590.075 51.9437 629.617 17.2549 649.021 1.41797C632.836 18.6269 597.521 54.7723 594.713 56.0935C591.905 57.4146 587.929 56.6186 589.002 54.2811Z" fill="#BBBBBB"/>
<path d="M386.777 205.27C387.849 202.933 427.392 168.244 446.796 152.407C430.61 169.616 395.295 205.762 392.487 207.083C389.679 208.404 385.704 207.608 386.777 205.27Z" fill="#BBBBBB"/>
<path d="M639.214 240.281C640.287 237.944 679.83 203.255 699.233 187.418C683.048 204.627 647.733 240.772 644.925 242.093C642.117 243.415 638.141 242.619 639.214 240.281Z" fill="#BBBBBB"/>
<path d="M810.94 209.012C812.013 206.674 851.555 171.985 870.959 156.148C854.774 173.357 819.459 209.503 816.651 210.824C813.843 212.145 809.867 211.349 810.94 209.012Z" fill="#BBBBBB"/>
<path d="M910.36 80.6981C911.433 78.3607 950.975 43.6719 970.379 27.835C954.194 45.0439 918.879 81.1893 916.071 82.5105C913.263 83.8316 909.287 83.0356 910.36 80.6981Z" fill="#BBBBBB"/>
<path d="M908.81 172.886C909.883 170.548 949.425 135.859 968.829 120.022C952.643 137.231 917.328 173.377 914.521 174.698C911.713 176.019 907.737 175.223 908.81 172.886Z" fill="#BBBBBB"/>
<path d="M858.139 244.594C859.212 242.256 898.755 207.567 918.158 191.73C901.973 208.939 866.658 245.085 863.85 246.406C861.042 247.727 857.067 246.931 858.139 244.594Z" fill="#BBBBBB"/>
<path d="M943.011 238.231C944.084 235.894 983.626 201.205 1003.03 185.368C986.844 202.577 951.529 238.723 948.721 240.044C945.913 241.365 941.938 240.569 943.011 238.231Z" fill="#BBBBBB"/>
<path d="M1052.96 161.568C1054.04 159.231 1093.58 124.542 1112.98 108.705C1096.8 125.914 1061.48 162.059 1058.67 163.381C1055.87 164.702 1051.89 163.906 1052.96 161.568Z" fill="#BBBBBB"/>
<path d="M827.008 54.2811C828.081 51.9437 867.623 17.2549 887.027 1.41797C870.841 18.6269 835.526 54.7723 832.719 56.0935C829.911 57.4146 825.935 56.6186 827.008 54.2811Z" fill="#BBBBBB"/>
<path d="M456.061 52.8632C457.134 50.5257 496.677 15.8369 516.08 0C499.895 17.2089 464.58 53.3544 461.772 54.6755C458.964 55.9967 454.989 55.2006 456.061 52.8632Z" fill="#BBBBBB"/>
<path d="M346.179 27.8632C347.252 25.5257 386.795 -9.16307 406.198 -25C390.013 -7.7911 354.698 28.3544 351.89 29.6755C349.082 30.9967 345.107 30.2006 346.179 27.8632Z" fill="#BBBBBB"/>
<path d="M337.179 96.122C338.252 93.7845 377.795 59.0957 397.198 43.2588C381.013 60.4677 345.698 96.6132 342.89 97.9343C340.082 99.2555 336.107 98.4594 337.179 96.122Z" fill="#BBBBBB"/>
<path d="M480.986 241.552C482.059 239.214 521.602 204.525 541.005 188.688C524.82 205.897 489.505 242.043 486.697 243.364C483.889 244.685 479.914 243.889 480.986 241.552Z" fill="#BBBBBB"/>
<path d="M687.011 293.551C688.083 291.213 727.626 256.524 747.03 240.688C730.844 257.896 695.529 294.042 692.721 295.363C689.913 296.684 685.938 295.888 687.011 293.551Z" fill="#BBBBBB"/>
<path d="M385.787 277.863C386.86 275.526 426.402 240.837 445.806 225C429.621 242.209 394.306 278.354 391.498 279.676C388.69 280.997 384.714 280.201 385.787 277.863Z" fill="#BBBBBB"/>
<path d="M1002.13 141.863C1003.21 139.526 1042.75 104.837 1062.15 89C1045.97 106.209 1010.65 142.354 1007.84 143.676C1005.04 144.997 1001.06 144.201 1002.13 141.863Z" fill="#BBBBBB"/>
<path d="M998.245 65.8632C999.317 63.5257 1038.86 28.8369 1058.26 13C1042.08 30.2089 1006.76 66.3544 1003.96 67.6755C1001.15 68.9967 997.172 68.2006 998.245 65.8632Z" fill="#BBBBBB"/>
<path d="M1082.82 24.8632C1083.89 22.5257 1123.44 -12.1631 1142.84 -28C1126.66 -10.7911 1091.34 25.3544 1088.53 26.6755C1085.72 27.9967 1081.75 27.2006 1082.82 24.8632Z" fill="#BBBBBB"/>
<path d="M489.808 312.863C490.88 310.526 530.423 275.837 549.827 260C533.641 277.209 498.326 313.354 495.518 314.676C492.71 315.997 488.735 315.201 489.808 312.863Z" fill="#BBBBBB"/>
<path d="M853.394 312.863C854.466 310.526 894.009 275.837 913.413 260C897.227 277.209 861.912 313.354 859.104 314.676C856.296 315.997 852.321 315.201 853.394 312.863Z" fill="#BBBBBB"/>
<path d="M990.467 272.863C991.54 270.526 1031.08 235.837 1050.49 220C1034.3 237.209 998.986 273.354 996.178 274.676C993.37 275.997 989.395 275.201 990.467 272.863Z" fill="#BBBBBB"/>
<path d="M1101.29 306.863C1102.37 304.526 1141.91 269.837 1161.31 254C1145.13 271.209 1109.81 307.354 1107 308.676C1104.2 309.997 1100.22 309.201 1101.29 306.863Z" fill="#BBBBBB"/>
<path d="M1169.26 113.841C1170.33 111.503 1209.88 76.8145 1229.28 60.9775C1213.1 78.1864 1177.78 114.332 1174.97 115.653C1172.16 116.974 1168.19 116.178 1169.26 113.841Z" fill="#BBBBBB"/>
<path d="M1260.57 89.621C1261.64 87.2836 1301.18 52.5947 1320.59 36.7578C1304.4 53.9667 1269.09 90.1122 1266.28 91.4333C1263.47 92.7545 1259.5 91.9584 1260.57 89.621Z" fill="#BBBBBB"/>
<path d="M1269.57 141.264C1270.64 138.926 1310.18 104.237 1329.58 88.4004C1313.4 105.609 1278.08 141.755 1275.28 143.076C1272.47 144.397 1268.49 143.601 1269.57 141.264Z" fill="#BBBBBB"/>
<path d="M1359.95 97.5936C1361.02 95.2562 1400.56 60.5674 1419.97 44.7305C1403.78 61.9394 1368.47 98.0848 1365.66 99.406C1362.85 100.727 1358.87 99.9311 1359.95 97.5936Z" fill="#BBBBBB"/>
<path d="M1377.02 153.124C1378.09 150.786 1417.63 116.098 1437.04 100.261C1420.85 117.47 1385.54 153.615 1382.73 154.936C1379.92 156.257 1375.95 155.461 1377.02 153.124Z" fill="#BBBBBB"/>
<path d="M1483.47 52.8466C1484.54 50.5091 1524.08 15.8203 1543.49 -0.0166016C1527.3 17.1923 1491.99 53.3378 1489.18 54.6589C1486.37 55.9801 1482.4 55.184 1483.47 52.8466Z" fill="#BBBBBB"/>
<path d="M1373 31.2811C1374.07 28.9437 1413.62 -5.7451 1433.02 -21.582C1416.84 -4.37313 1381.52 31.7723 1378.71 33.0935C1375.9 34.4146 1371.93 33.6186 1373 31.2811Z" fill="#BBBBBB"/>
<path d="M1170.78 182.27C1171.85 179.933 1211.39 145.244 1230.8 129.407C1214.61 146.616 1179.3 182.762 1176.49 184.083C1173.68 185.404 1169.7 184.608 1170.78 182.27Z" fill="#BBBBBB"/>
<path d="M1423.21 217.281C1424.29 214.944 1463.83 180.255 1483.23 164.418C1467.05 181.627 1431.73 217.772 1428.92 219.093C1426.12 220.415 1422.14 219.619 1423.21 217.281Z" fill="#BBBBBB"/>
<path d="M1361.18 312.863C1362.25 310.526 1401.79 275.837 1421.2 260C1405.01 277.209 1369.7 313.354 1366.89 314.676C1364.08 315.997 1360.11 315.201 1361.18 312.863Z" fill="#BBBBBB"/>
<path d="M1240.06 29.8632C1241.13 27.5257 1280.68 -7.16307 1300.08 -23C1283.89 -5.7911 1248.58 30.3544 1245.77 31.6755C1242.96 32.9967 1238.99 32.2006 1240.06 29.8632Z" fill="#BBBBBB"/>
<path d="M1121.18 73.122C1122.25 70.7845 1161.79 36.0957 1181.2 20.2588C1165.01 37.4677 1129.7 73.6132 1126.89 74.9343C1124.08 76.2555 1120.11 75.4594 1121.18 73.122Z" fill="#BBBBBB"/>
<path d="M1264.99 218.552C1266.06 216.214 1305.6 181.525 1325.01 165.688C1308.82 182.897 1273.51 219.043 1270.7 220.364C1267.89 221.685 1263.91 220.889 1264.99 218.552Z" fill="#BBBBBB"/>
<path d="M1471.01 270.551C1472.08 268.213 1511.63 233.524 1531.03 217.688C1514.84 234.896 1479.53 271.042 1476.72 272.363C1473.91 273.684 1469.94 272.888 1471.01 270.551Z" fill="#BBBBBB"/>
<path d="M1169.79 254.863C1170.86 252.526 1210.4 217.837 1229.81 202C1213.62 219.209 1178.31 255.354 1175.5 256.676C1172.69 257.997 1168.71 257.201 1169.79 254.863Z" fill="#BBBBBB"/>
<path d="M1273.81 289.863C1274.88 287.526 1314.42 252.837 1333.83 237C1317.64 254.209 1282.33 290.354 1279.52 291.676C1276.71 292.997 1272.73 292.201 1273.81 289.863Z" fill="#BBBBBB"/>
<path d="M278.065 171.324C279.137 168.987 318.68 134.298 338.083 118.461C321.898 135.67 286.583 171.815 283.775 173.136C280.967 174.458 276.992 173.662 278.065 171.324Z" fill="#BBBBBB"/>
<path d="M11.94 167.012C13.0127 164.674 52.5555 129.985 71.959 114.148C55.7736 131.357 20.4586 167.503 17.6506 168.824C14.8426 170.145 10.8673 169.349 11.94 167.012Z" fill="#BBBBBB"/>
<path d="M17.1793 99.8632C18.252 97.5257 57.7947 62.8369 77.1982 47C61.0129 64.2089 25.6979 100.354 22.8899 101.676C20.0819 102.997 16.1065 102.201 17.1793 99.8632Z" fill="#BBBBBB"/>
<path d="M-22.8207 283.863C-21.748 281.526 17.7947 246.837 37.1982 231C21.0129 248.209 -14.3021 284.354 -17.1101 285.676C-19.9181 286.997 -23.8935 286.201 -22.8207 283.863Z" fill="#BBBBBB"/>
<path d="M218.179 290.863C219.252 288.526 258.795 253.837 278.198 238C262.013 255.209 226.698 291.354 223.89 292.676C221.082 293.997 217.107 293.201 218.179 290.863Z" fill="#BBBBBB"/>
<path d="M111.36 38.6981C112.433 36.3607 151.975 1.67189 171.379 -14.165C155.194 3.04386 119.879 39.1893 117.071 40.5105C114.263 41.8316 110.287 41.0356 111.36 38.6981Z" fill="#BBBBBB"/>
<path d="M109.81 130.886C110.883 128.548 150.425 93.8594 169.829 78.0225C153.643 95.2314 118.328 131.377 115.521 132.698C112.713 134.019 108.737 133.223 109.81 130.886Z" fill="#BBBBBB"/>
<path d="M59.1392 202.594C60.2119 200.256 99.7547 165.567 119.158 149.73C102.973 166.939 67.6578 203.085 64.8499 204.406C62.0419 205.727 58.0665 204.931 59.1392 202.594Z" fill="#BBBBBB"/>
<path d="M144.011 196.231C145.084 193.894 184.626 159.205 204.03 143.368C187.844 160.577 152.529 196.723 149.721 198.044C146.913 199.365 142.938 198.569 144.011 196.231Z" fill="#BBBBBB"/>
<path d="M253.963 119.568C255.036 117.231 294.578 82.542 313.982 66.7051C297.797 83.914 262.482 120.059 259.674 121.381C256.866 122.702 252.89 121.906 253.963 119.568Z" fill="#BBBBBB"/>
<path d="M28.0079 12.2811C29.0806 9.94371 68.6233 -24.7451 88.0268 -40.582C71.8415 -23.3731 36.5265 12.7723 33.7185 14.0935C30.9105 15.4146 26.9352 14.6186 28.0079 12.2811Z" fill="#BBBBBB"/>
<path d="M203.133 99.8632C204.206 97.5257 243.749 62.8369 263.152 47C246.967 64.2089 211.652 100.354 208.844 101.676C206.036 102.997 202.06 102.201 203.133 99.8632Z" fill="#BBBBBB"/>
<path d="M199.245 23.8632C200.317 21.5257 239.86 -13.1631 259.264 -29C243.078 -11.7911 207.763 24.3544 204.955 25.6755C202.147 26.9967 198.172 26.2006 199.245 23.8632Z" fill="#BBBBBB"/>
<path d="M54.3936 270.863C55.4663 268.526 95.0091 233.837 114.413 218C98.2272 235.209 62.9122 271.354 60.1042 272.676C57.2963 273.997 53.3209 273.201 54.3936 270.863Z" fill="#BBBBBB"/>
<path d="M191.467 230.863C192.54 228.526 232.083 193.837 251.486 178C235.301 195.209 199.986 231.354 197.178 232.676C194.37 233.997 190.395 233.201 191.467 230.863Z" fill="#BBBBBB"/>
<path d="M99.1793 319.863C100.252 317.526 139.795 282.837 159.198 267C143.013 284.209 107.698 320.354 104.89 321.676C102.082 322.997 98.1065 322.201 99.1793 319.863Z" fill="#BBBBBB"/>
<path d="M302.293 264.863C303.366 262.526 342.908 227.837 362.312 212C346.127 229.209 310.812 265.354 308.004 266.676C305.196 267.997 301.22 267.201 302.293 264.863Z" fill="#BBBBBB"/>
</g>
<defs>
<linearGradient id="paint0_linear_309_11" x1="807.938" y1="96.8866" x2="793.964" y2="183.896" gradientUnits="userSpaceOnUse">
<stop offset="0.276121" stop-color="#484848"/>
<stop offset="1" stop-color="#00E28D"/>
</linearGradient>
<linearGradient id="paint1_linear_309_11" x1="807.938" y1="96.8866" x2="793.964" y2="183.896" gradientUnits="userSpaceOnUse">
<stop offset="0.276121" stop-color="#484848"/>
<stop offset="1" stop-color="#00E28D"/>
</linearGradient>
</defs>
</svg>
