<svg width="826" height="454" viewBox="0 0 826 454" fill="none" xmlns="http://www.w3.org/2000/svg">
<mask id="mask0_1217_1088" style="mask-type:alpha" maskUnits="userSpaceOnUse" x="205" y="89" width="495" height="365">
<rect x="205" y="89" width="495" height="365" fill="white"/>
</mask>
<g mask="url(#mask0_1217_1088)">
<path d="M231.394 460.454H231.652C280.647 462.431 438.245 462.922 515.011 460.452L515.119 460.448L515.227 460.44C523.845 459.76 527.066 459.158 529.32 458.703C529.432 458.68 529.54 458.658 529.644 458.637C531.198 458.319 532.099 458.136 536 458.136H538.529L539.897 456.009C542.896 451.35 545.508 443.546 547.459 434.784C549.444 425.868 550.858 415.428 551.21 405.152C551.56 394.919 550.867 384.591 548.478 376.015C546.419 368.621 542.868 361.746 536.875 357.884C536.715 356.346 536.308 354.355 535.312 352.299C533.819 349.219 531.205 346.325 527 344.163C527.668 342.468 528.331 340.443 528.892 338.154C529.938 333.881 530.651 328.595 530.333 322.735C536.569 321.489 541.4 317.939 543.535 312.986C544.876 309.875 545.035 306.378 543.778 303.079C543.38 302.032 542.851 301.038 542.204 300.104C542.816 299.574 543.372 298.996 543.868 298.37C545.842 295.878 546.583 292.983 546.465 290.234C546.3 286.393 544.466 282.659 541.735 280.036C542.207 278.1 542.625 275.708 542.779 273.212C542.892 271.375 542.879 269.218 542.524 267.014C544.135 267.137 545.871 267.223 547.591 267.21C550.234 267.19 553.265 266.939 555.863 265.963C557.532 265.337 559.328 264.27 560.598 262.578C560.746 262.579 560.899 262.581 561.058 262.583C561.6 262.588 562.206 262.595 562.901 262.598C565.76 262.614 569.544 262.58 573.324 262.2C577.013 261.829 581.144 261.091 584.483 259.464C587.091 258.194 589.718 256.084 590.832 252.872C598.015 249.823 602.053 245.512 604.005 240.551C605.018 237.979 605.386 235.358 605.495 233.049C629.95 236.383 649.882 231.31 664.084 222.766C679.045 213.766 688.288 200.412 688.288 188.765C688.288 171.008 676.339 155.913 660.803 144.759C645.142 133.515 624.927 125.567 606.256 122.251C567.823 115.425 534.64 121.458 509.668 135.743C500.227 134.513 493.837 134.915 488.852 136.124C485.391 136.963 482.386 138.329 480.093 139.388C475.181 135.39 470.791 132.394 466.115 130.289C460.669 127.837 455.108 126.713 448.269 126.312C440.96 125.883 433.01 127.63 426.191 130.425C421.29 132.434 416.61 135.135 413.055 138.299C406.964 133.154 400.12 129.274 392.927 125.886C387.63 123.391 381.885 121.055 376.065 118.688C372.616 117.285 369.14 115.871 365.714 114.407C360.392 112.133 351.42 109.943 340.827 108.52C330.147 107.086 317.493 106.386 304.696 107.252C279.506 108.958 251.979 116.885 239.555 139.382C225.707 164.458 230.899 190.326 249.833 208.213C267.079 224.504 295.298 233.87 330.036 231.066C330 231.139 329.964 231.213 329.928 231.287C327.879 235.485 325.422 240.835 322.988 246.244C320.302 252.213 317.671 258.193 315.6 262.903C313.869 266.837 312.528 269.885 311.872 271.296C310.633 273.964 309.8 276.358 309.211 278.051C309.173 278.159 309.137 278.263 309.102 278.365C308.629 278.023 308.111 277.629 307.507 277.169C307.064 276.832 306.575 276.46 306.023 276.048C303.673 274.29 300.325 273.581 297.947 273.232C295.323 272.846 292.699 272.75 291.023 272.778L288.412 272.823L287.098 275.08L286.152 276.704C284.968 277.789 284.18 279.115 283.801 280.628C283.4 282.227 283.539 283.783 283.622 284.688C283.636 284.835 283.649 284.978 283.662 285.116C283.814 286.733 283.912 287.77 283.562 288.984C283.431 289.144 283.168 289.46 282.7 289.963C281.924 290.796 280.856 291.864 279.54 293.132C276.913 295.661 273.474 298.816 269.79 302.176C269.17 302.743 268.541 303.316 267.907 303.893C261.144 310.058 253.852 316.704 250.049 320.822C245.626 325.611 240.722 333.802 236.924 340.866C234.987 344.468 233.271 347.905 231.969 350.669C230.732 353.296 229.716 355.634 229.351 356.865C228.914 358.342 228.835 359.944 228.809 361.21C228.795 361.88 228.797 362.585 228.799 363.26L228.799 363.28C228.8 363.979 228.802 364.667 228.791 365.376C228.746 368.217 228.493 371.04 227.431 373.747C225.877 377.708 225.455 380.447 225.325 382.801C225.28 383.605 225.264 384.215 225.251 384.72C225.224 385.773 225.208 386.375 224.968 387.353C223.855 391.88 221.353 398.125 219.13 403.54C218.971 403.928 218.813 404.312 218.657 404.691C217.763 406.866 216.938 408.872 216.375 410.38C216.058 411.23 215.74 412.14 215.559 412.908C215.492 413.193 215.313 413.964 215.381 414.843C215.412 415.241 215.534 416.374 216.386 417.466C217.513 418.911 219.193 419.41 220.616 419.26C220.628 419.259 220.641 419.258 220.653 419.257C220.634 419.547 220.596 419.917 220.528 420.379C220.328 421.735 219.985 423.224 219.572 425.021C219.408 425.732 219.234 426.492 219.052 427.31C218.452 430.021 217.836 433.167 217.694 436.362C217.558 439.403 217.948 441.311 218.243 442.758C218.321 443.14 218.393 443.49 218.446 443.82C218.7 445.387 218.93 448.022 218.21 454.84L217.775 458.956L221.816 459.851C221.966 459.884 222.112 459.918 222.259 459.952C223.033 460.131 223.804 460.309 225.049 460.384C226.213 460.454 228.002 460.454 231.394 460.454ZM558.31 262.597C558.31 262.596 558.334 262.593 558.387 262.59C558.337 262.596 558.31 262.598 558.31 262.597ZM221.649 419.244C221.647 419.245 221.627 419.242 221.592 419.232C221.633 419.237 221.65 419.242 221.649 419.244Z" fill="#00E28D" stroke="#0B9561" stroke-width="9.26884"/>
<path d="M406.79 311.296C429.723 316.369 480.97 354.567 504.713 334.88C468.652 336.928 440.859 312.173 406.79 311.296Z" fill="#0B9561"/>
<path d="M555.705 208.755C534.087 207.907 521.851 213.7 518.436 216.703L519.726 232.145C521.016 236.384 529.442 245.619 558.893 250.086C593.05 252.886 602.31 243.273 601.475 230.858C600.64 218.444 582.727 209.815 555.705 208.755Z" fill="white"/>
<path d="M471.375 193.086C415.863 200.859 407.943 197.65 401.467 201.412C411.183 208.982 441.696 228.285 467.048 236.158C490.145 243.33 518.328 249.339 523.77 228.749C529.212 208.159 490.731 196.366 471.375 193.086Z" fill="white"/>
<path d="M451.75 234.426C463.619 239.476 483.525 243.638 496.298 245.533C503.971 245.533 506.3 246.151 508.062 236.923C514.038 205.634 452.257 194.825 446.451 225.219C445.09 232.345 447.036 228.703 451.75 234.426Z" fill="url(#paint0_linear_1217_1088)"/>
<path d="M528.225 240.103C528.225 243.558 531.442 243.688 535.897 245.533C549.099 251 563.495 253.985 577.723 252.937C586.881 251.703 587.128 252.197 588.881 244.431C590.582 214.368 529.779 212.628 528.225 240.103Z" fill="url(#paint1_linear_1217_1088)"/>
<path d="M520.56 346.601C522.382 344.33 530.351 331.915 528.226 317.76C527.467 317.205 526.025 316.927 524.203 316.927C525.964 320.44 525.721 333.732 520.56 346.601Z" fill="#0B9561"/>
<path d="M534.147 281.425C534.906 281.425 535.817 281.652 536.5 281.955C539.32 275.332 539.914 267.868 535.513 261.668C535.997 261.687 536.554 261.751 537.304 261.837C537.476 261.857 537.659 261.878 537.853 261.9C537.983 261.915 538.118 261.93 538.259 261.946C544.6 262.639 556.716 263.965 557.601 258.035C568.07 258.121 584.677 262.157 594.552 245.534C575 255.406 539.506 251.024 521.046 234.674C505.069 248.167 480.333 240.212 463.1 234.039C443.965 227.184 430.765 221.17 407.158 208.15C444.352 237.445 472.664 242.895 492.627 246.529C483.193 247.856 470.978 244.122 461.199 241.133C458.153 240.202 455.344 239.343 452.929 238.732C461.127 243.955 475.776 251.071 493.69 252.433C511.603 253.796 517.6 244.485 514.487 242.214C517.827 241.124 520.551 236.648 521.046 234.674C529.461 247.755 548.894 251.374 554.316 252.263C554.725 252.33 555.064 252.386 555.324 252.433C561.144 253.947 547.229 255.385 538.259 252.433C539.65 253.201 540.725 253.805 541.597 254.294C545.279 256.363 545.313 256.382 550.163 258.035C556.159 260.079 539.647 261.004 532.856 260.533C535.311 263.334 538.777 273.553 534.147 281.425Z" fill="#0B9561"/>
<path d="M680.432 177.72C689.364 208.075 655.435 233.933 599.273 224.06C598.283 223.814 600.492 226.034 600.791 227.604C659.643 241.133 696.794 206.561 687.609 176.812C678.425 147.063 641.081 127.308 608.412 122.618C575.743 117.929 546.539 120.644 509.63 140.099C497.88 138.399 488.68 139.19 479.344 144.792C467.882 135.103 460.899 131.696 447.995 130.939C435.091 130.182 422.254 135.632 413.307 143.278C396.456 127.061 371.313 117.929 361.413 114.227C351.513 110.524 265.381 92.913 240.884 140.099C225.293 173.474 239.585 201.12 261.674 215.175C283.583 229.115 319.866 230.478 338.465 225.485C336.124 227.761 325.795 251.235 319.866 264.709L319.866 264.71C318.106 268.71 316.733 271.829 316.073 273.25C314.943 275.682 314.209 277.789 313.62 279.479C312.706 282.102 312.142 283.723 310.987 283.999C310.599 284.092 310.186 284.074 309.745 283.965C310.399 284.428 310.907 284.799 311.215 285.059C310.38 286.573 308.027 288.617 305.067 289.752C318.578 308.373 334.45 320.713 356.151 335.397C376.554 349.205 422.618 362.774 438.735 362.724C444.073 363.001 474.167 358.863 498.092 350.688C452.701 357.501 421.049 353.867 372.85 335.397C343.688 322.267 330.342 307.867 321.347 298.162C318.877 295.497 316.735 293.185 314.683 291.352C318.504 287.562 323.599 281.691 326.396 275.067C324.726 276.354 320.825 279.139 318.578 279.987C325.789 265.154 337.901 228.256 350.23 220.565C314.638 226.034 280.044 220.565 259.942 206.636C239.84 192.708 231.758 163.749 248.556 140.099C271.327 109.043 340.129 99.6452 413.307 147.365C418.392 143.471 457.787 110.955 490.426 167.955C491.716 162.656 488.452 152.362 486.554 150.091C486.787 150.036 487.055 149.969 487.357 149.893C494.168 148.183 518.414 142.094 545.305 176.812C545.305 176.812 528.682 174.617 516.613 179.764C563.901 178.023 580.763 195.069 579.841 197.553C579.452 198.604 574.749 198.1 567.767 197.351C556.231 196.115 538.474 194.211 523.672 197.553C563.674 190.589 602.528 213.758 581.663 209.361C556.159 203.987 524.759 205.143 514.859 211.56C520.056 213.941 522.779 220.111 522.779 224.58C551.24 211.56 581.663 226.282 599.749 225.541C602.937 224.532 604.699 220.565 599.273 208.907C650.238 220.565 676.472 196.644 643.556 205.055C676.225 188.766 666.385 174.839 657.663 166.058C632.22 140.442 561.636 138.118 539.361 158.9C534.324 151.478 525.916 146.076 519.067 143.351C526.276 136.655 553.967 124.593 586.632 126.074C633.408 129.211 671.5 147.365 680.432 177.72Z" fill="#0B9561"/>
<path d="M475.508 205.055C491.752 204.562 511.642 208.264 517.829 213.533C519.954 212.322 520.788 204.063 512.514 197.553C515.019 190.361 506.897 177.644 493.69 177.72C500.217 184.457 500.673 189.604 500.673 192.102C497.04 190.513 484.17 183.089 470.31 182.102C456.451 181.114 447.892 179.446 423.534 188.766C412.541 192.221 393.835 193.702 390.123 193.702C393.093 198.82 420.069 195.67 432.196 192.708C444.324 189.746 452.491 184.57 490.426 192.102C455.956 187.961 442.509 194.688 428.237 197.553C416.164 199.976 404.028 197.847 400.765 201.353C433.481 212.954 459.263 205.549 475.508 205.055Z" fill="#0B9561"/>
<path d="M487.357 182.102C478.477 173.254 438.833 170.136 431.206 176.812C440.273 175.375 476.992 176.337 487.357 182.102Z" fill="#0B9561"/>
<path d="M396.456 206.636C399.34 209.513 411.03 217.083 414.825 218.445C413.459 218.445 409.253 219.414 408.828 220.565C404.046 218.697 397.063 211.36 396.456 206.636Z" fill="#0B9561"/>
<path d="M383.688 300.82C369.828 312.914 352.751 293.853 368.096 282.645C366.363 286.448 366.858 290.891 367.601 294.1C368.343 297.308 370.571 302.795 383.688 300.82Z" fill="#0B9561"/>
<path d="M345.296 217.234C311.566 217.234 282.794 213.997 266.624 202.587C250.3 191.067 244.35 172.053 257.962 154.211C298.551 107.809 408.828 156.926 405.716 173.254C393.192 174.087 356.737 175.535 335.18 193.702C347.476 189.993 368.675 191.421 368.675 196.644C353.949 202.17 345.296 217.234 345.296 217.234Z" fill="#0B9561"/>
<path d="M540.675 163.564C540.675 163.564 547.355 168.182 551.226 176.887C585.209 178.617 596.69 200.85 595.706 203.684C594.996 205.727 591.001 204.819 587.129 203.684C583.257 202.548 578.324 200.58 572.176 199.899L584.624 201.186C587.964 201.64 591.087 201.261 590.089 198.99C582.802 182.413 557.222 179.006 548.721 177.795C549.086 175.191 542.927 166.87 540.675 163.564Z" fill="#B2FFE2"/>
<path d="M258.458 417.07C257.55 420.032 255.884 427.337 256.478 432.866C257.072 438.395 258.045 446.852 258.458 450.39C256.313 449.074 251.973 444.861 251.775 438.543C251.577 432.224 251.693 421.595 251.775 417.07H258.458Z" fill="#0B9561"/>
<path d="M532.326 360.679C539.84 364.01 548.519 390.66 545.796 408.184C543.074 425.708 538.45 441.175 533.5 454.997C484.5 457.548 394.578 457.548 394.578 457.548C394.578 457.548 369.829 458.288 333.447 457.548C333.447 446.496 335.969 426.689 330.883 424.68C310.672 417.635 294.056 417.709 276.84 417.786C274.078 417.799 271.3 417.811 268.49 417.794C261.011 417.749 258.388 418.233 256.774 418.926C253.351 420.395 251.911 419.79 248.463 417.794C244.381 415.432 238.779 412.19 228.792 412.19C225.626 412.19 225.191 416.456 225.333 419.029C224.542 418.132 223.54 417.803 222.626 417.503H222.626C221.282 417.061 220.13 416.683 220.13 414.652C220.13 412.237 223.272 404.438 225.929 397.844L225.929 397.844C227.603 393.688 229.085 390.011 229.466 388.46C229.831 386.975 229.864 385.76 229.898 384.465C229.957 382.261 230.022 379.827 231.743 375.44C233.45 371.092 233.439 366.743 233.431 363.279C233.426 361.196 233.422 359.432 233.793 358.181C234.779 354.851 245.482 332.596 253.452 323.966C257.109 320.007 264.25 313.497 271.084 307.267C279.143 299.92 286.775 292.963 287.761 291.038C288.66 288.589 288.456 286.517 288.284 284.765C288.078 282.673 287.917 281.036 289.734 279.759L291.101 277.413C294.036 277.362 300.574 277.761 303.245 279.759C303.687 280.089 304.113 280.414 304.525 280.727C307.236 282.791 311.997 285.159 313.644 284.765C313.138 285.822 310.897 288.374 305.978 290.13C310.988 295.958 337.706 330.855 402.529 353.867C446.068 366.099 499.358 354.119 520.56 346.6C532.5 350.064 532.368 358.069 532.329 360.382L532.329 360.385C532.327 360.497 532.326 360.596 532.326 360.679Z" fill="#5E4E72"/>
<path d="M304.384 282.939C317.667 287.632 301.196 284.765 296.338 282.939C295.124 285.815 306.054 290.13 302.714 290.13C312.278 300.879 320.703 314.883 336.795 327.222C311.899 316.473 300.816 293.006 293.985 294.369C287.154 295.731 267.191 317.986 258.158 325.859C249.125 333.731 250.34 335.7 243.508 346.6C236.677 357.5 236.146 379.301 235.918 388.688C236.753 386.265 238.575 381.799 239.334 373.548C240.093 365.297 247.835 348.795 248.974 351.975C250.112 355.154 241.687 369.839 243.508 380.588C245.33 391.337 241.383 403.07 238.575 410.979C240.548 411.225 243.508 410.979 250.34 414.536C251.099 412.301 251.403 406.098 254.97 401.708C259.524 398.195 266.583 389.596 269.544 385.735C268.49 391.413 258.538 404.206 259.524 414.536C264.382 413.588 320.779 413.819 331.786 421.01C336.522 416.59 330.622 391.362 327.079 379.301C330.359 387.719 332.089 389.747 335.969 388.688C349.489 382.556 349.319 371.883 354.177 370.747C352.507 380.21 344.841 391.716 335.969 399.285C335.969 404.735 347.27 417.503 341.881 424.68C341.395 426.375 341.881 435.335 341.881 442.245C341.881 449.156 339.882 457.795 339.882 457.795C337.902 457.795 334.992 457.657 333.2 457.795C333.2 446.743 335.969 426.689 330.883 424.68C310.672 417.635 294.056 417.71 276.84 417.787C274.078 417.799 271.3 417.811 268.49 417.794C261.011 417.75 258.388 418.233 256.774 418.926C253.351 420.395 251.911 419.79 248.463 417.794C244.381 415.432 238.779 412.19 228.792 412.19C225.626 412.19 225.191 416.456 225.333 419.029C224.542 418.132 223.54 417.803 222.626 417.503H222.626C221.282 417.061 220.13 416.683 220.13 414.652C220.13 412.237 223.272 404.438 225.929 397.844L225.929 397.844C227.603 393.688 229.085 390.011 229.466 388.46C229.831 386.975 229.864 385.76 229.898 384.465C229.957 382.261 230.022 379.827 231.743 375.441C233.45 371.092 233.439 366.744 233.431 363.28C233.426 361.196 233.422 359.433 233.793 358.182C234.779 354.851 245.482 332.596 253.452 323.966C257.109 320.007 264.25 313.497 271.084 307.267L271.383 306.995C279.327 299.753 286.635 293.091 287.609 291.19C288.508 288.74 290.43 286.517 290.257 284.765C290.051 282.673 289.89 281.037 291.708 279.759L294.82 279.759C297.755 279.709 296.778 278.442 299.45 280.441L304.384 282.939Z" fill="#382F43"/>
<path d="M537.5 453.846C536 454.997 534 454.498 533.5 454C552.078 387.337 539.659 368.734 527.089 364.313C527.316 359.897 526.375 353.17 518.36 352.504C507.885 356.516 481.166 362.799 454.676 362.118C433.483 361.573 411.081 356.39 402.529 353.867C446.068 366.099 499.358 354.119 520.561 346.6C533.085 350.233 532.326 358.863 532.326 360.679C561.5 374.218 539 452.694 537.5 453.846Z" fill="#7E62A1"/>
<path d="M517.677 364.238C491.945 372.565 484.525 385.433 483.596 386.417C482.666 387.401 481.243 387.628 480.104 386.871C478.965 386.114 469.599 377.152 446.402 372.792C423.206 368.431 397.166 366.635 387.045 366.282C460.521 364.238 475.701 376.349 480.711 378.242C493.311 367.493 513.047 362.648 516.007 362.043C518.967 361.437 522.155 361.74 517.677 364.238Z" fill="#7E62A2"/>
<path d="M441.228 443.897C474.144 443.678 473.651 439.453 476.372 435.998C479.094 432.543 480.506 432.79 483.797 437.973C486.272 440.44 495.924 440.934 517.208 440.934C496.667 444.39 484.465 443.295 480.506 440.333C470.433 448.092 450.633 445.624 443.703 445.624C440.681 445.624 438.753 443.897 441.228 443.897Z" fill="#7E62A2"/>
<path d="M511.609 197.523C509.212 190.785 506.231 185.776 498.69 180.221C505.955 180.221 513.519 189.01 511.609 197.523Z" fill="#B2FFE2"/>
<path d="M477.844 160.615C468.523 145.212 451.321 143.122 440.983 138.051C450.297 136.683 474.285 140.249 477.844 160.615Z" fill="#B2FFE2"/>
<path d="M404.964 162.938C375.593 139.693 350.963 132.432 319.434 127.728C346.677 123.309 390.143 140.948 404.964 162.938Z" fill="#B2FFE2"/>
<path d="M663.451 211.377C686.22 187.189 667.5 149.335 618.5 140.359C665.5 140.359 698.347 190.398 663.451 211.377Z" fill="#B2FFE2"/>
<path d="M532.754 168.644C517.925 157.067 507.841 156.56 497.503 151.489C506.817 150.121 519.62 151.489 532.754 168.644Z" fill="#B2FFE2"/>
<path d="M303.812 426.454C299.905 437.574 300.251 445.141 301.406 449.25C308.882 449.305 309.582 440.394 309.582 440.394C310.583 436.226 305.981 420.278 303.812 426.454Z" fill="#B2FFE2"/>
<path d="M534.225 299.062C544.472 304.588 540.848 317.248 527.977 318.837C477.984 325.007 430.96 286.504 378.739 296.376C373.389 297.388 371.562 289.971 371.562 286.504C373.047 269.967 392.351 253.924 422.793 262.81C447.405 271.576 480.365 279.062 506.445 281.803C518.078 283.025 530.223 278.853 536.274 281.803C543.105 285.134 545.231 296.564 534.225 299.062Z" fill="#D7821E"/>
<path d="M528.758 259.246C527.513 255.915 522.534 255.385 514.412 254.931C503.558 255.385 502.89 257.898 502.647 259.776C502.343 262.122 508.871 267.497 509.858 268.632C510.845 269.768 513.653 275.369 509.858 277.489C511.376 278.094 514.109 280.517 519.346 277.489C524.584 274.461 530.428 263.712 528.758 259.246Z" fill="#4B4B4B"/>
<ellipse cx="4.55202" cy="1.83802" rx="4.55202" ry="1.83802" transform="matrix(0.986559 0.163405 -0.164277 0.986414 518.123 256.923)" fill="white"/>
<ellipse cx="10.6165" cy="6.83006" rx="10.6165" ry="6.83006" transform="matrix(0.993517 0.113684 -0.114299 0.993446 482.762 222.826)" fill="white"/>
<ellipse cx="4.79086" cy="3.21832" rx="4.79086" ry="3.21832" transform="matrix(0.968576 0.248716 -0.249996 0.968247 471.426 225.293)" fill="white"/>
<ellipse cx="3.54933" cy="2.25817" rx="3.54933" ry="2.25817" transform="matrix(0.999978 0.00660087 -0.00663709 0.999978 556.589 235.026)" fill="white"/>
<ellipse cx="9.16691" cy="5.89713" rx="9.16691" ry="5.89713" transform="matrix(0.998528 0.0542385 -0.0545352 0.998512 565.349 235.216)" fill="white"/>
<path d="M320.325 373.472C324.94 379.407 328.953 402.313 329.433 414.576C324.348 413.138 310.837 410.034 297.478 409.126C299.755 408.293 313.342 403.676 323.665 407.385C325.107 405.947 323.665 389.142 320.325 373.472Z" fill="#7E62A1"/>
<path d="M524.508 298.532C517.828 299.97 504.697 299.062 487.087 295.428C498.624 307.616 496.955 327.524 496.955 327.524C504.393 331.99 514.109 330.628 519.726 326.389C524.508 316.548 525.343 305.95 524.508 298.532Z" fill="#F1F1F1"/>
<path d="M519.726 326.389C524.508 316.548 525.343 305.951 524.508 298.532C523.647 305.774 522.762 314.353 518.132 323.891C516.689 325.272 513.729 326.389 511.452 326.389C512.135 322.755 514.488 313.293 512.97 306.102C511.452 315.867 511.452 319.046 508.644 327.524C506.999 328.079 502.298 326.888 500.294 325.556C501.281 315.943 496.954 305.496 491.717 299.138C495.892 308.978 498.472 318.668 496.954 327.524C504.393 331.99 514.109 330.628 519.726 326.389Z" fill="#8B8B8B"/>
<path d="M388.886 280.827C407.2 266.265 446.506 287.369 481.214 294.558C445.269 292.882 415.615 269.227 388.886 280.827Z" fill="#8F4E02"/>
<path d="M533.766 265.163L532.559 264.99V266.209V268.329V269.266L533.49 269.378C566.943 273.414 587.716 295.149 601.173 312.049L602.075 313.181L602.879 311.978L604.879 308.986L605.347 308.285L604.768 307.672C604.105 306.971 603.441 306.266 602.774 305.558C586.854 288.661 569.549 270.295 533.766 265.163ZM532.042 272.373L531.313 272.243L530.942 272.884L529.804 274.852L529.079 276.105L530.493 276.414C573.759 285.882 588.067 317.382 592.529 327.764L593.426 329.852L594.445 327.82L596.945 322.834L597.173 322.38L596.96 321.918C595.041 317.746 588.842 307.167 578.132 296.733C567.412 286.29 552.127 275.95 532.042 272.373ZM499.088 260.086L498.851 259.667L498.379 259.572C486.705 257.205 475.88 256.498 463.357 259.328C450.858 262.153 436.738 268.485 418.434 280.081L417.467 280.694L418.155 281.609L419.655 283.603L420.221 284.356L421.033 283.881C423.049 282.703 425.241 281.291 427.627 279.755C442.597 270.116 465.15 255.595 498.918 263.378L501.26 263.918L500.075 261.827L499.088 260.086ZM500.058 267.399L499.834 267.033L499.419 266.926C464.619 257.97 438.829 277.275 414.098 295.788C412.853 296.721 411.61 297.651 410.369 298.576L409.46 299.253L410.198 300.112L413.198 303.603L413.959 304.487L414.764 303.644C434.712 282.755 464.435 261.347 499.949 270.713L502.489 271.383L501.12 269.14L500.058 267.399Z" fill="white" stroke="#382F43" stroke-width="2.11395"/>
</g>
<mask id="mask1_1217_1088" style="mask-type:alpha" maskUnits="userSpaceOnUse" x="0" y="0" width="826" height="454">
<rect width="826" height="454" fill="white"/>
</mask>
<g mask="url(#mask1_1217_1088)">
<path d="M90.2996 292.189C91.3678 287.854 130.743 223.511 150.065 194.136C133.948 226.056 98.7822 293.1 95.9861 295.551C93.19 298.001 89.2314 296.525 90.2996 292.189Z" fill="#BBBBBB"/>
<path d="M181.22 247.263C182.289 242.927 221.664 178.585 240.986 149.21C224.869 181.13 189.703 248.174 186.907 250.624C184.111 253.075 180.152 251.598 181.22 247.263Z" fill="#BBBBBB"/>
<path d="M190.179 343.053C191.247 338.717 230.622 274.375 249.944 245C233.827 276.92 198.661 343.964 195.865 346.415C193.069 348.865 189.11 347.388 190.179 343.053Z" fill="#BBBBBB"/>
<path d="M280.179 262.053C281.247 257.717 320.622 193.375 339.944 164C323.827 195.92 288.661 262.964 285.865 265.415C283.069 267.865 279.11 266.388 280.179 262.053Z" fill="#BBBBBB"/>
<path d="M297.179 365.053C298.247 360.717 337.622 296.375 356.944 267C340.827 298.92 305.661 365.964 302.865 368.415C300.069 370.865 296.11 369.388 297.179 365.053Z" fill="#BBBBBB"/>
<path d="M779.179 434.053C780.247 429.717 819.622 365.375 838.944 336C822.827 367.92 787.661 434.964 784.865 437.414C782.069 439.865 778.11 438.388 779.179 434.053Z" fill="#BBBBBB"/>
<path d="M403.179 179.053C404.247 174.717 443.622 110.375 462.944 81.0001C446.827 112.92 411.661 179.964 408.865 182.415C406.069 184.865 402.11 183.388 403.179 179.053Z" fill="#BBBBBB"/>
<path d="M293.179 139.053C294.247 134.717 333.622 70.3747 352.944 40.9998C336.827 72.9195 301.661 139.964 298.865 142.414C296.069 144.865 292.11 143.388 293.179 139.053Z" fill="#BBBBBB"/>
<path d="M91.8079 419.114C92.8761 414.779 132.252 350.437 151.573 321.062C135.456 352.981 100.291 420.025 97.4944 422.476C94.6983 424.926 90.7397 423.45 91.8079 419.114Z" fill="#BBBBBB"/>
<path d="M343.179 484.053C344.247 479.717 383.622 415.375 402.944 386C386.827 417.92 351.661 484.964 348.865 487.414C346.069 489.865 342.11 488.388 343.179 484.053Z" fill="#BBBBBB"/>
<path d="M514.179 426.053C515.247 421.717 554.622 357.375 573.944 328C557.827 359.92 522.661 426.964 519.865 429.414C517.069 431.865 513.11 430.388 514.179 426.053Z" fill="#BBBBBB"/>
<path d="M613.179 188.053C614.247 183.717 653.622 119.375 672.944 90.0001C656.827 121.92 621.661 188.964 618.865 191.415C616.069 193.865 612.11 192.388 613.179 188.053Z" fill="#BBBBBB"/>
<path d="M611.635 359.045C612.703 354.709 652.079 290.367 671.4 260.992C655.283 292.912 620.118 359.956 617.322 362.406C614.525 364.857 610.567 363.38 611.635 359.045Z" fill="#BBBBBB"/>
<path d="M561.179 492.053C562.247 487.717 601.622 423.375 620.944 394C604.827 425.92 569.661 492.964 566.865 495.414C564.069 497.865 560.11 496.388 561.179 492.053Z" fill="#BBBBBB"/>
<path d="M645.691 480.252C646.759 475.917 686.135 411.574 705.457 382.199C689.34 414.119 654.174 481.163 651.378 483.614C648.582 486.064 644.623 484.588 645.691 480.252Z" fill="#BBBBBB"/>
<path d="M755.179 338.053C756.247 333.717 795.622 269.375 814.944 240C798.827 271.92 763.661 338.964 760.865 341.414C758.069 343.865 754.11 342.388 755.179 338.053Z" fill="#BBBBBB"/>
<path d="M530.179 139.053C531.247 134.717 570.622 70.3747 589.944 40.9998C573.827 72.9195 538.661 139.964 535.865 142.414C533.069 144.865 529.11 143.388 530.179 139.053Z" fill="#BBBBBB"/>
<path d="M160.8 136.423C161.868 132.088 201.243 67.7454 220.565 38.3704C204.448 70.2901 169.282 137.334 166.486 139.785C163.69 142.235 159.731 140.759 160.8 136.423Z" fill="#BBBBBB"/>
<path d="M42.4202 216.663C43.4884 212.327 82.864 147.985 102.186 118.61C86.0686 150.53 50.9028 217.574 48.1067 220.024C45.3106 222.475 41.352 220.998 42.4202 216.663Z" fill="#BBBBBB"/>
<path d="M185.619 486.41C186.687 482.074 226.063 417.732 245.384 388.357C229.267 420.277 194.102 487.321 191.305 489.771C188.509 492.222 184.551 490.745 185.619 486.41Z" fill="#BBBBBB"/>
</g>
<defs>
<linearGradient id="paint0_linear_1217_1088" x1="522.907" y1="208.877" x2="505.617" y2="316.534" gradientUnits="userSpaceOnUse">
<stop offset="0.276121" stop-color="#484848"/>
<stop offset="1" stop-color="#00E28D"/>
</linearGradient>
<linearGradient id="paint1_linear_1217_1088" x1="522.907" y1="208.877" x2="505.617" y2="316.534" gradientUnits="userSpaceOnUse">
<stop offset="0.276121" stop-color="#484848"/>
<stop offset="1" stop-color="#00E28D"/>
</linearGradient>
</defs>
</svg>
