<svg width="263" height="167" viewBox="0 0 263 167" fill="none" xmlns="http://www.w3.org/2000/svg">
<path d="M15.6761 165.281V107.334L0 113.604V98.4684L22.1628 89.6033H33.1902V165.281H15.6761Z" fill="#2D1747"/>
<path d="M79.1426 166.47C72.2955 166.47 66.2773 164.849 61.088 161.605C55.9707 158.362 51.9706 153.821 49.0876 147.983C46.2767 142.073 44.8713 135.226 44.8713 127.442C44.8713 119.586 46.2767 112.739 49.0876 106.901C51.9706 101.063 55.9707 96.5224 61.088 93.2791C66.2773 90.0357 72.2955 88.4141 79.1426 88.4141C85.9896 88.4141 91.9718 90.0357 97.089 93.2791C102.278 96.5224 106.279 101.063 109.089 106.901C111.972 112.739 113.414 119.586 113.414 127.442C113.414 135.226 111.972 142.073 109.089 147.983C106.279 153.821 102.278 158.362 97.089 161.605C91.9718 164.849 85.9896 166.47 79.1426 166.47ZM79.1426 151.335C82.6742 151.335 85.7013 150.398 88.2239 148.524C90.8186 146.578 92.8006 143.803 94.17 140.199C95.6115 136.596 96.3323 132.343 96.3323 127.442C96.3323 122.469 95.6115 118.217 94.17 114.685C92.8006 111.081 90.8186 108.343 88.2239 106.469C85.7013 104.523 82.6742 103.55 79.1426 103.55C75.6109 103.55 72.5478 104.523 69.9531 106.469C67.4305 108.343 65.4485 111.081 64.007 114.685C62.6376 118.217 61.9529 122.469 61.9529 127.442C61.9529 132.343 62.6376 136.596 64.007 140.199C65.4485 143.803 67.4305 146.578 69.9531 148.524C72.5478 150.398 75.6109 151.335 79.1426 151.335Z" fill="#2D1747"/>
<path d="M157.451 166.47C150.604 166.47 144.586 164.849 139.397 161.605C134.28 158.362 130.28 153.821 127.397 147.983C124.586 142.073 123.18 135.226 123.18 127.442C123.18 119.586 124.586 112.739 127.397 106.901C130.28 101.063 134.28 96.5224 139.397 93.2791C144.586 90.0357 150.604 88.4141 157.451 88.4141C164.299 88.4141 170.281 90.0357 175.398 93.2791C180.587 96.5224 184.587 101.063 187.398 106.901C190.281 112.739 191.723 119.586 191.723 127.442C191.723 135.226 190.281 142.073 187.398 147.983C184.587 153.821 180.587 158.362 175.398 161.605C170.281 164.849 164.299 166.47 157.451 166.47ZM157.451 151.335C160.983 151.335 164.01 150.398 166.533 148.524C169.128 146.578 171.11 143.803 172.479 140.199C173.92 136.596 174.641 132.343 174.641 127.442C174.641 122.469 173.92 118.217 172.479 114.685C171.11 111.081 169.128 108.343 166.533 106.469C164.01 104.523 160.983 103.55 157.451 103.55C153.92 103.55 150.857 104.523 148.262 106.469C145.739 108.343 143.757 111.081 142.316 114.685C140.946 118.217 140.262 122.469 140.262 127.442C140.262 132.343 140.946 136.596 142.316 140.199C143.757 143.803 145.739 146.578 148.262 148.524C150.857 150.398 153.92 151.335 157.451 151.335Z" fill="#2D1747"/>
<path d="M185.072 29.2814V24.7513L197.262 12.6845C197.729 12.2452 198.1 11.8197 198.374 11.4078C198.649 10.9685 198.855 10.5292 198.992 10.0899C199.129 9.65066 199.198 9.21137 199.198 8.77208C199.198 7.83858 198.786 7.06983 197.962 6.4658C197.166 5.83432 196.164 5.51858 194.956 5.51858C193.666 5.51858 192.458 5.79314 191.332 6.34225C190.206 6.86391 188.984 7.76994 187.667 9.06036L184.125 4.7361C185.772 3.17113 187.516 1.99053 189.355 1.19432C191.222 0.398107 193.158 0 195.162 0C197.221 0 199.006 0.356923 200.516 1.07077C202.053 1.75716 203.248 2.73184 204.099 3.9948C204.95 5.2303 205.375 6.68545 205.375 8.36024C205.375 9.26628 205.238 10.1449 204.964 10.996C204.716 11.8197 204.318 12.6296 203.769 13.4258C203.22 14.222 202.506 15.0457 201.628 15.8968L193.309 23.9276L205.787 23.8864V29.2814H185.072Z" fill="#5C4379"/>
<path d="M220.281 29.7345C216.245 29.7345 212.731 28.444 209.738 25.8632L213.527 21.4566C214.735 22.445 215.902 23.1588 217.028 23.5981C218.153 24.0374 219.348 24.2571 220.611 24.2571C221.627 24.2571 222.505 24.0923 223.246 23.7629C223.988 23.4059 224.564 22.9117 224.976 22.2803C225.415 21.6488 225.635 20.9212 225.635 20.0975C225.635 18.8895 225.127 17.8873 224.111 17.0911C223.123 16.2949 221.86 15.8968 220.322 15.8968C219.554 15.8968 218.785 16.0204 218.016 16.2675C217.247 16.4871 216.451 16.8303 215.628 17.2971L211.056 15.938L211.756 0.453017H230.618V5.84805H217.357L217.069 12.1079C218.057 11.6412 218.991 11.3392 219.869 11.2019C220.748 11.0646 221.599 10.996 222.423 10.996C224.372 10.996 226.074 11.3666 227.53 12.1079C228.985 12.8218 230.11 13.8376 230.907 15.1555C231.73 16.4734 232.142 18.0109 232.142 19.7681C232.142 21.7449 231.648 23.4883 230.659 24.9984C229.671 26.481 228.285 27.6478 226.5 28.499C224.715 29.3226 222.642 29.7345 220.281 29.7345Z" fill="#5C4379"/>
<path d="M249.365 29.7345C246.756 29.7345 244.464 29.1167 242.487 27.8812C240.538 26.6457 239.014 24.916 237.916 22.6921C236.845 20.4407 236.309 17.8324 236.309 14.8672C236.309 11.8746 236.845 9.26628 237.916 7.04237C239.014 4.81846 240.538 3.08876 242.487 1.85326C244.464 0.617752 246.756 0 249.365 0C251.973 0 254.252 0.617752 256.201 1.85326C258.178 3.08876 259.702 4.81846 260.772 7.04237C261.871 9.26628 262.42 11.8746 262.42 14.8672C262.42 17.8324 261.871 20.4407 260.772 22.6921C259.702 24.916 258.178 26.6457 256.201 27.8812C254.252 29.1167 251.973 29.7345 249.365 29.7345ZM249.365 23.9688C250.71 23.9688 251.863 23.6119 252.824 22.898C253.812 22.1567 254.567 21.0997 255.089 19.7269C255.638 18.3541 255.913 16.7342 255.913 14.8672C255.913 12.9728 255.638 11.3529 255.089 10.0076C254.567 8.6348 253.812 7.59149 252.824 6.87764C251.863 6.13634 250.71 5.76568 249.365 5.76568C248.019 5.76568 246.852 6.13634 245.864 6.87764C244.903 7.59149 244.148 8.6348 243.599 10.0076C243.077 11.3529 242.816 12.9728 242.816 14.8672C242.816 16.7342 243.077 18.3541 243.599 19.7269C244.148 21.0997 244.903 22.1567 245.864 22.898C246.852 23.6119 248.019 23.9688 249.365 23.9688Z" fill="#5C4379"/>
<path d="M43.6755 101.572C41.0821 101.572 38.8239 100.743 36.9009 99.0848L39.3355 96.2532C40.1118 96.8883 40.8615 97.347 41.5849 97.6293C42.3082 97.9115 43.0756 98.0527 43.8872 98.0527C44.5399 98.0527 45.1045 97.9468 45.5808 97.7351C46.0572 97.5058 46.4277 97.1882 46.6923 96.7824C46.9746 96.3767 47.1157 95.9092 47.1157 95.3799C47.1157 94.6036 46.7893 93.9597 46.1366 93.4481C45.5014 92.9365 44.6899 92.6806 43.7019 92.6806C43.208 92.6806 42.714 92.76 42.22 92.9188C41.726 93.0599 41.2144 93.2805 40.6851 93.5804L37.7477 92.7071L38.1976 82.7569H50.3178V86.2236H41.7966L41.6113 90.246C42.2465 89.9461 42.8463 89.752 43.4108 89.6638C43.9754 89.5756 44.5223 89.5315 45.0516 89.5315C46.3042 89.5315 47.398 89.7697 48.333 90.246C49.268 90.7047 49.9914 91.3575 50.503 92.2043C51.0323 93.0511 51.2969 94.0391 51.2969 95.1682C51.2969 96.4384 50.9793 97.5587 50.3442 98.529C49.7091 99.4817 48.8182 100.231 47.6714 100.778C46.5247 101.308 45.1927 101.572 43.6755 101.572Z" fill="#623C8F"/>
<path d="M62.3635 101.572C60.6875 101.572 59.2144 101.175 57.9441 100.381C56.6915 99.5876 55.7124 98.4761 55.0067 97.0471C54.3187 95.6004 53.9746 93.9244 53.9746 92.0191C53.9746 90.0961 54.3187 88.4201 55.0067 86.991C55.7124 85.562 56.6915 84.4506 57.9441 83.6567C59.2144 82.8628 60.6875 82.4658 62.3635 82.4658C64.0395 82.4658 65.5038 82.8628 66.7564 83.6567C68.0266 84.4506 69.0058 85.562 69.6938 86.991C70.3995 88.4201 70.7524 90.0961 70.7524 92.0191C70.7524 93.9244 70.3995 95.6004 69.6938 97.0471C69.0058 98.4761 68.0266 99.5876 66.7564 100.381C65.5038 101.175 64.0395 101.572 62.3635 101.572ZM62.3635 97.8674C63.228 97.8674 63.9689 97.6381 64.5864 97.1794C65.2215 96.7031 65.7067 96.0238 66.0419 95.1417C66.3947 94.2596 66.5712 93.2187 66.5712 92.0191C66.5712 90.8017 66.3947 89.7609 66.0419 88.8964C65.7067 88.0143 65.2215 87.3439 64.5864 86.8852C63.9689 86.4088 63.228 86.1707 62.3635 86.1707C61.499 86.1707 60.7492 86.4088 60.1141 86.8852C59.4966 87.3439 59.0115 88.0143 58.6586 88.8964C58.3234 89.7609 58.1558 90.8017 58.1558 92.0191C58.1558 93.2187 58.3234 94.2596 58.6586 95.1417C59.0115 96.0238 59.4966 96.7031 60.1141 97.1794C60.7492 97.6381 61.499 97.8674 62.3635 97.8674Z" fill="#623C8F"/>
<path d="M207.205 107.839C203.386 109.459 198.927 110.238 194.542 109.811C199.999 112.574 205.161 113.667 209.704 113.446C214.643 113.205 218.623 111.793 221.685 108.903C224.644 106.111 227.089 102.086 227.534 97.6596C228.068 92.3526 225.945 87.3471 222.764 83.1229C221.026 80.8152 218.521 77.7241 216.688 75.1731C214.331 71.8919 213.239 69.5727 211.975 65.2359C210.623 60.5972 212.202 49.961 215.155 38.7178C208.568 48.0304 206.361 60.4933 206.865 65.747C207.329 70.5856 208.935 74.7013 210.669 78.8073C211.81 81.5087 213.088 84.261 214.19 86.5867C215.566 89.4932 216.71 92.7071 216.688 96.0697C216.671 98.762 216.091 100.83 214.19 102.997C212.324 105.125 210.197 106.569 207.205 107.839Z" fill="#00E28D"/>
<path fill-rule="evenodd" clip-rule="evenodd" d="M215.623 37.7133C215.138 37.4869 214.56 37.6403 214.25 38.0777C210.862 42.8686 208.616 48.4422 207.28 53.4697C205.948 58.4797 205.493 63.049 205.762 65.8527C206.243 70.8729 207.91 75.1228 209.648 79.2383C210.798 81.9619 212.085 84.7312 213.188 87.061C214.539 89.9123 215.6 92.9468 215.58 96.0626C215.564 98.5436 215.049 100.337 213.357 102.266C211.621 104.244 209.643 105.601 206.773 106.818C203.113 108.371 198.84 109.116 194.649 108.708C194.119 108.657 193.626 108.99 193.478 109.502C193.329 110.014 193.566 110.559 194.041 110.8C199.644 113.637 204.995 114.785 209.758 114.553C214.885 114.303 219.143 112.826 222.446 109.709C225.55 106.78 228.159 102.521 228.637 97.7705C229.208 92.0901 226.929 86.8116 223.65 82.4562C222.957 81.5362 222.164 80.5196 221.347 79.4707C220.059 77.8184 218.709 76.0863 217.588 74.5264C215.313 71.3602 214.273 69.1582 213.039 64.9258C212.433 62.8465 212.456 59.2307 213.05 54.5942C213.637 50.0105 214.759 44.5894 216.227 38.9992C216.363 38.481 216.109 37.9396 215.623 37.7133ZM212.293 45.9778C211.673 48.9253 211.181 51.7406 210.852 54.3127C210.361 58.1406 210.213 61.5416 210.592 64.0524C210.133 64.0482 209.613 64.0664 209.171 64.1445C208.789 64.2119 208.327 64.3038 207.905 64.391C207.875 61.8643 208.327 58.1575 209.422 54.0391C210.117 51.4224 211.065 48.6692 212.293 45.9778ZM208.079 66.6189C208.56 66.5177 209.122 66.4037 209.556 66.3272C209.913 66.2642 210.464 66.2584 210.987 66.2793C211.036 66.2813 211.084 66.2834 211.131 66.2857C212.179 69.7367 213.18 71.9614 214.927 74.5782C214.268 74.8096 213.462 75.1204 212.861 75.4513C212.242 75.7916 211.574 76.3607 211.053 76.8466C209.71 73.564 208.56 70.2921 208.079 66.6189ZM211.974 79.0432C212.093 78.9227 212.228 78.7883 212.374 78.6482C212.91 78.1329 213.501 77.6288 213.929 77.3933C214.407 77.1305 215.152 76.8438 215.828 76.6115C215.98 76.559 216.126 76.5105 216.259 76.4671C217.301 77.8847 218.516 79.4436 219.655 80.9057C219.999 81.3481 220.337 81.7817 220.661 82.1999C219.647 82.3228 218.357 82.5303 217.431 82.8816C216.423 83.264 215.395 84.0355 214.677 84.6372C214.633 84.6741 214.59 84.7106 214.548 84.7468C213.709 82.9568 212.812 80.9954 211.974 79.0432ZM215.528 86.8389C215.692 86.6881 215.887 86.5156 216.101 86.3357C216.789 85.7592 217.578 85.1963 218.217 84.954C218.9 84.6949 220.013 84.5072 221.041 84.3867C221.5 84.3329 221.917 84.2951 222.233 84.27C224.793 87.8113 226.498 91.8076 226.508 95.985C226.383 95.9333 226.253 95.8805 226.118 95.8271C225.038 95.3996 223.583 94.902 222.274 94.7424C220.995 94.5865 219.542 94.6511 218.446 94.7454C218.199 94.7667 217.966 94.7898 217.755 94.8129C217.55 91.9627 216.623 89.2677 215.528 86.8389ZM217.765 97.0422C218.018 97.0126 218.313 96.9814 218.636 96.9537C219.683 96.8635 220.956 96.8145 222.005 96.9425C223.025 97.0668 224.266 97.4778 225.302 97.8878C225.696 98.0439 226.048 98.1949 226.331 98.3211C225.808 101.624 224.103 104.688 221.937 107.066C221.906 107.016 221.874 106.965 221.842 106.913C221.319 106.084 220.537 105.008 219.556 104.19C218.55 103.353 217.237 102.789 216.246 102.441C216.183 102.419 216.122 102.398 216.061 102.378C217.173 100.697 217.645 98.9893 217.765 97.0422ZM214.563 104.234C214.824 104.307 215.152 104.406 215.512 104.533C216.424 104.852 217.438 105.311 218.137 105.893C218.859 106.495 219.496 107.349 219.967 108.096C220.094 108.296 220.205 108.485 220.301 108.652C217.82 110.733 214.706 111.895 210.862 112.254C210.862 112.246 210.861 112.239 210.861 112.232C210.838 111.511 210.718 110.458 210.204 109.588C209.89 109.058 209.501 108.571 209.14 108.172C211.292 107.108 213.019 105.872 214.563 104.234ZM206.981 109.127C207.039 109.183 207.1 109.243 207.164 109.307C207.554 109.7 207.993 110.204 208.296 110.716C208.52 111.095 208.626 111.689 208.646 112.303C208.647 112.324 208.647 112.345 208.648 112.365C205.944 112.376 203.007 111.908 199.907 110.87C202.372 110.598 204.77 109.996 206.981 109.127ZM216.997 76.2375C216.997 76.2375 216.997 76.2375 216.997 76.2375L216.997 76.2375Z" fill="#0B9561"/>
<path d="M144.461 121.696C142.14 125.588 134.491 133.676 126.523 130.42C118.555 127.164 128.551 118.253 132.042 113.736C133.766 111.505 138.849 99.4823 145.426 103.811C152.003 108.14 146.781 117.803 144.461 121.696Z" fill="#00E28D"/>
<path fill-rule="evenodd" clip-rule="evenodd" d="M138.827 130.591C142.34 128.282 145.055 125.027 146.365 122.831C147.538 120.863 149.586 117.216 150.443 113.403C151.301 109.581 151.07 104.873 146.645 101.96C144.398 100.481 142.094 100.345 140.002 101.155C138.062 101.907 136.465 103.405 135.218 104.887C133.947 106.398 132.871 108.098 132.034 109.497C131.795 109.897 131.549 110.317 131.329 110.692C131.183 110.941 131.049 111.171 130.936 111.36C130.611 111.909 130.408 112.225 130.288 112.38C129.736 113.095 129.027 113.907 128.208 114.845C127.799 115.313 127.362 115.813 126.903 116.349C125.589 117.883 124.16 119.637 123.09 121.402C122.063 123.097 121.128 125.179 121.327 127.283C121.554 129.692 123.163 131.441 125.685 132.472C130.609 134.484 135.303 132.906 138.827 130.591ZM126.523 130.42C134.491 133.676 142.14 125.588 144.461 121.696C146.781 117.803 152.003 108.14 145.426 103.811C140.01 100.246 135.607 107.77 133.259 111.783C132.755 112.643 132.346 113.342 132.042 113.736C131.449 114.504 130.667 115.399 129.818 116.371C125.672 121.119 119.91 127.717 126.523 130.42Z" fill="#0B9561"/>
<path d="M195.565 108.277C202.846 82.0753 188.073 59.9962 184.268 58.0088C180.464 56.0214 178.12 52.055 175.918 49.0015C174.997 47.7249 170.807 40.1742 170.111 39.495C171.521 39.0944 176.119 37.5584 179.689 35.2805C184.757 32.047 192.371 24.3611 187.23 15.0264C180.804 3.35815 163.891 10.2573 160.41 12.7799C157.311 15.0265 155.168 17.2033 152.939 20.9302C151.633 19.1713 147.941 17.5691 144.981 17.7432C142.02 17.9174 140.418 18.7011 137.788 20.9302C136.308 20.3381 135.176 19.2932 130.613 19.955C128.784 17.7432 125.649 14.4169 117.081 11.9787C108.513 9.54059 97.9241 13.459 95.8168 20.3033C93.7096 27.1475 95.6517 34.8929 110.646 40.1349C110.083 40.9793 109.423 43.7708 113.057 44.8497C113.455 47.405 117.941 47.1211 119.833 46.9836C120.076 48.6206 124.03 47.8544 124.953 47.8195C122.747 49.4213 122.095 50.9061 121.311 52.4261C116.927 52.813 117.701 55.6805 119.931 56.5554C116.786 55.9913 117.482 61.715 122.202 61.715C123.094 64.7174 125.466 65.1564 126.231 65.9166C115.306 84.937 121.874 108.277 134.916 115.149C147.958 122.021 154.723 119.734 168.251 120.145C155.433 135.42 174.276 133.164 181.141 128.209C188.007 123.254 194.331 112.718 195.565 108.277Z" fill="#00E28D"/>
<path fill-rule="evenodd" clip-rule="evenodd" d="M119.931 56.5557C119.895 56.5492 119.859 56.5435 119.823 56.5386C118.675 56.3809 118.069 57.0912 118.016 58.0322C117.929 59.5668 119.311 61.7152 122.202 61.7152C122.857 63.92 124.31 64.7425 125.339 65.3249C125.711 65.5356 126.028 65.7149 126.231 65.9169C115.306 84.9373 121.874 108.278 134.916 115.149C144.916 120.418 151.226 120.303 159.724 120.148C161.516 120.115 163.405 120.081 165.447 120.095C166.35 120.101 167.283 120.116 168.251 120.146C167.605 120.916 167.039 121.641 166.548 122.324C157.303 135.186 174.622 132.914 181.141 128.209C188.007 123.254 194.331 112.719 195.565 108.278C202.846 82.0756 188.073 59.9965 184.268 58.0091C181.028 56.3164 178.847 53.1881 176.911 50.4109C176.574 49.9274 176.244 49.4546 175.918 49.0018C175.52 48.4497 174.51 46.7245 173.436 44.889C172.73 43.6811 171.995 42.4255 171.388 41.425C170.785 40.4301 170.308 39.6875 170.111 39.4953C170.566 39.366 171.354 39.1182 172.332 38.7654C174.383 38.0254 177.272 36.8232 179.689 35.2808C184.757 32.0473 192.371 24.3614 187.23 15.0267C180.804 3.35845 163.891 10.2576 160.41 12.7802C157.892 14.6057 156.005 16.3852 154.19 18.9876C153.772 19.5879 153.357 20.232 152.939 20.9305C152.554 20.4117 151.961 19.9064 151.241 19.4564C149.519 18.3809 147.068 17.6207 144.981 17.7435C142.02 17.9177 140.418 18.7014 137.788 20.9305C137.556 20.8376 137.332 20.7335 137.102 20.6266C135.868 20.0525 134.459 19.3973 130.613 19.9553C128.784 17.7435 125.649 14.4172 117.081 11.979C108.513 9.54089 97.9241 13.4593 95.8168 20.3036C93.8123 26.8141 95.4719 34.14 108.545 39.351C109.215 39.6181 109.915 39.8796 110.646 40.1352C110.478 40.388 110.3 40.8155 110.232 41.3193C110.073 42.4979 110.511 44.0942 113.057 44.85C113.455 47.4053 117.941 47.1213 119.833 46.9839C119.93 47.6395 120.623 47.9096 121.477 47.9957C122.401 48.0887 123.515 47.9666 124.27 47.8836C124.561 47.8517 124.799 47.8256 124.953 47.8198C123.808 48.6514 123.081 49.4514 122.538 50.2412C122.109 50.8645 121.794 51.4815 121.477 52.1026C121.422 52.2104 121.367 52.3183 121.311 52.4264C118.922 52.6373 118.065 53.5849 118.14 54.5453C118.201 55.3201 118.869 56.1032 119.83 56.5142C119.863 56.5285 119.897 56.5423 119.931 56.5557ZM116.309 56.1258C115.687 57.2252 115.702 58.4924 115.979 59.507C116.503 61.4301 118.137 63.235 120.644 63.7712C121.28 65.0114 122.136 65.8516 122.963 66.4514C123.075 66.5324 123.186 66.6091 123.295 66.6813C118.425 76.2036 117.532 86.5746 119.417 95.5448C121.414 105.048 126.608 113.278 133.883 117.11C144.423 122.664 151.361 122.533 159.995 122.37C161.248 122.346 162.537 122.322 163.877 122.314C163.485 122.929 163.147 123.52 162.863 124.086C162.07 125.664 161.622 127.192 161.677 128.631C161.736 130.152 162.356 131.443 163.423 132.381C164.427 133.264 165.692 133.72 166.916 133.944C169.348 134.389 172.304 134.042 174.995 133.33C177.707 132.613 180.442 131.447 182.439 130.006C186.165 127.317 189.632 123.211 192.297 119.298C194.945 115.409 196.988 111.432 197.7 108.871C201.491 95.2283 199.534 82.679 196.159 73.3115C194.471 68.6274 192.418 64.707 190.517 61.8033C189.567 60.3526 188.641 59.1333 187.799 58.1896C187.005 57.2992 186.139 56.4858 185.295 56.0446C183.759 55.2424 182.443 54.0004 181.202 52.4954C180.321 51.4259 179.563 50.3385 178.787 49.2252C178.438 48.724 178.085 48.2177 177.716 47.7054C177.386 47.2477 176.441 45.6336 175.341 43.7551C175.178 43.4762 175.011 43.1914 174.843 42.9038C174.393 42.1374 173.942 41.3709 173.531 40.6866C175.656 39.8973 178.467 38.6896 180.881 37.1493C183.607 35.4104 187.103 32.4311 189.236 28.4985C191.429 24.455 192.164 19.391 189.171 13.9575C185.339 6.99878 178.368 5.75164 172.481 6.37792C166.649 6.99836 161.179 9.48564 159.11 10.9855C156.442 12.9192 154.398 14.8442 152.455 17.602C151.808 17.1942 151.113 16.8459 150.423 16.5621C148.741 15.8707 146.742 15.4197 144.85 15.5309C143.184 15.6289 141.761 15.9085 140.348 16.5463C139.343 17.0002 138.41 17.6062 137.446 18.3515C136.982 18.1573 136.433 17.9535 135.88 17.819C134.731 17.5395 133.355 17.4384 131.521 17.6132C129.34 15.1936 125.673 12.1194 117.688 9.84725C112.901 8.48511 107.619 8.90492 103.231 10.5916C98.888 12.2608 95.0252 15.3424 93.6985 19.6514C92.5153 23.4945 92.4103 27.8375 94.9247 31.9719C97.183 35.6852 101.369 38.9188 107.992 41.5154C107.972 41.9615 108.008 42.4307 108.119 42.9081C108.483 44.4684 109.561 45.7663 111.331 46.569C111.697 47.2362 112.223 47.7557 112.805 48.1363C113.676 48.705 114.674 48.974 115.525 49.1138C116.638 49.2967 117.812 49.3035 118.749 49.2676C119.103 49.5587 119.487 49.7573 119.825 49.8844C119.914 49.9179 120.004 49.9484 120.094 49.9761C120.012 50.1209 119.935 50.2637 119.86 50.4042C119.055 50.5776 118.327 50.8548 117.709 51.2635C116.73 51.9115 116.038 52.9012 115.933 54.117C115.869 54.8592 116.02 55.5332 116.309 56.1258Z" fill="#0B9561"/>
<path d="M126.096 67.2042C125.861 66.1252 121.358 63.6857 121.17 61.3401C121.624 61.5579 122.274 61.5845 122.671 61.5277C123.141 64.624 128.911 65.6561 126.096 67.2042Z" fill="#0B9561"/>
<path d="M121.358 52.8019C121.187 52.8019 120.496 52.7451 120.326 52.8019C120.748 49.8464 123.221 48.8819 124.9 47.82C123.619 48.2004 120.155 48.8251 119.832 46.9841C118.054 47.3487 112.49 47.1702 112.49 44.6798C118.168 45.9291 124.165 44.9925 127.935 42.011C126.169 44.39 122.617 45.361 119.832 45.8723C121.223 45.9925 124.244 45.3045 127.14 44.112C123.676 46.213 122.002 46.2316 120.894 46.6105C119.701 47.2786 122.142 47.9165 125.51 47.5588C125.815 48.9081 121.827 49.8933 121.358 52.8019Z" fill="#0B9561"/>
<path d="M97.3493 19.851C92.3986 29.568 100.449 36.3956 109.923 39.9831C94.9286 34.7411 93.5005 27.148 95.6078 20.3037C97.715 13.4595 106.894 8.96636 117.5 11.6483C125.25 13.8535 127.936 17.1162 130.159 19.2154C130.394 19.4372 130.619 19.6496 130.839 19.851C133.535 19.46 135.646 19.642 137.788 20.9307C140.417 18.7015 142.02 17.9178 144.98 17.7437C147.941 17.5695 150.886 18.8234 152.939 20.5824C155.168 16.8555 158.216 14.4229 160.027 12.9893C164.538 9.41917 181.239 3.49795 187.665 15.1662C192.472 25.4413 185.053 32.5525 179.985 35.786C176.959 37.7168 172.876 38.7743 170.896 39.2872C170.574 39.3705 170.308 39.4395 170.111 39.4954C173.417 42.719 175.976 48.5156 179.985 52.5728C176.885 56.857 171.811 61.4041 166.832 64.7825C162.151 67.9591 152.875 70.0306 149.177 70.019C147.952 70.0829 142.516 69.6011 137.027 67.7203C144.98 69.1277 151.163 69.0319 162.221 64.7825C170.75 60.9322 175.938 54.9473 178.123 52.9895C173.478 46.9841 172.283 42.2381 169.658 40.0005C169.315 39.7627 168.355 39.2872 167.255 39.2872C170.111 38.5899 178.104 36.0298 182.51 31.9546C186.916 27.8794 190.138 22.6548 186.69 15.7757C183.242 8.89669 164.625 4.50802 152.939 21.5228C152.912 21.5018 152.88 21.4771 152.844 21.4492C151.349 20.2869 142.558 13.4539 135.245 26.2598C134.949 25.0407 135.698 22.6723 136.133 22.1498C136.08 22.1372 136.018 22.1217 135.949 22.1042C134.386 21.7108 128.823 20.3101 122.654 28.2974C122.654 28.2974 126.468 27.7924 129.237 28.9766C118.387 28.5761 114.518 32.4979 114.73 33.0692C114.819 33.311 116.396 33.0324 117.998 32.8602C120.644 32.5758 124.58 32.9576 127.535 35.1156C117.449 30.8342 109.377 36.6931 114.165 35.6815C120.016 34.4451 128.189 36.4908 128.989 37.8835C128.786 38.1098 128.818 38.3903 128.661 38.6341C120.498 35.2563 111.209 38.4934 110.74 40.0884C110.009 39.8562 109.477 37.1026 110.271 35.6815C101.327 31.7248 103.956 29.412 106.388 28.7502C103.532 28.5993 103.115 22.9509 105.117 20.9307C110.954 15.0373 120.519 20.8552 124.572 24.5009C125.728 22.7933 127.343 21.101 129.394 20.3037C127.74 18.7633 123.592 15.0679 117.499 13.4073C110.503 11.5008 100.632 13.4073 97.3493 19.851Z" fill="#0B9561"/>
<path d="M168.543 37.5972C174.081 35.3506 185.673 25.2497 179.811 18.8234C172.392 10.6905 155.325 22.8812 154.681 27.4789C154.968 27.498 155.275 27.5133 155.6 27.5295C158.535 27.6758 162.959 27.8962 167.411 31.6586C164.59 30.8052 163.179 31.6586 163.179 32.8602C166.558 34.1315 168.543 37.5972 168.543 37.5972Z" fill="#0B9561"/>
<path d="M123.716 25.25C123.716 25.25 122.184 26.3123 121.295 28.3151C113.498 28.7132 110.864 33.8282 111.09 34.4802C111.253 34.9504 112.169 34.7414 113.058 34.4802C113.946 34.2189 115.078 33.7661 116.489 33.6094L113.633 33.9054C112.866 34.0099 112.15 33.9228 112.379 33.4004C114.051 29.5864 119.92 28.8027 121.87 28.5241C121.786 27.925 123.199 26.0105 123.716 25.25Z" fill="#B2FFE2"/>
<path d="M124.313 67.8608C131.638 71.5518 142.406 73.8332 156.261 69.9719C170.116 66.1106 179.108 55.2881 181.482 52.459C198.155 70.8163 198.014 86.2039 198.014 103.749C176.89 99.6042 147.817 101.169 122.577 107.502C119.059 90.9421 118.815 82.5604 124.313 67.8608Z" fill="#5E4E72"/>
<path fill-rule="evenodd" clip-rule="evenodd" d="M123.238 65.1126L122.468 67.1707C119.669 74.6539 118.29 80.6425 118.095 86.9228C117.901 93.1707 118.883 99.5953 120.65 107.912L121.075 109.911L123.057 109.414C148.084 103.134 176.857 101.606 197.635 105.683L199.984 106.144V103.75C199.984 103.571 199.984 103.393 199.984 103.215C199.985 94.6762 199.986 86.3692 197.914 77.9384C195.782 69.2653 191.483 60.5397 182.941 51.1344L181.423 49.4639L179.936 51.2359C177.515 54.1215 168.883 64.4091 155.732 68.074C142.363 71.7999 132.1 69.5779 125.2 66.1013L123.238 65.1126ZM198.014 101.742C198 85.4931 197.543 70.957 182.804 53.9489C182.376 53.4544 181.935 52.9579 181.482 52.4591C181.463 52.4823 181.443 52.5061 181.422 52.5304C181.113 52.8984 180.703 53.3882 180.193 53.971C176.638 58.0355 168.28 66.6226 156.261 69.972C143.494 73.5301 133.349 71.8723 126.102 68.7021C125.485 68.4319 124.889 68.1508 124.313 67.8609C124.077 68.4935 123.851 69.1144 123.635 69.7248C119.04 82.7353 119.189 90.9541 122.175 105.572C122.304 106.203 122.438 106.847 122.577 107.503C123.213 107.343 123.852 107.187 124.492 107.033C148.495 101.281 175.651 99.8006 196.044 103.383C196.708 103.5 197.365 103.622 198.014 103.75C198.014 103.604 198.014 103.458 198.014 103.313C198.014 102.787 198.014 102.264 198.014 101.742Z" fill="#0B9561"/>
<path d="M122.914 78.9039C122.996 79.4107 123.723 80.9084 124.282 81.1174C124.111 79.1003 124.04 74.5983 127.199 74.0139C130.357 73.4296 134.406 74.5671 139.021 74.4737C142.713 74.399 146.619 73.5613 148.11 73.1518C140.518 75.1357 129.648 72.1015 125.959 70.8478C123.572 71.4921 122.704 77.602 122.914 78.9039Z" fill="#7E62A1"/>
<path d="M120.232 47.7816C116.573 48.1628 113.758 46.8974 112.295 45.9953C113.195 47.9692 116.104 48.9075 120.232 47.7816Z" fill="#B2FFE2"/>
<path d="M138.132 24.5711C140.27 21.0275 144.217 20.5465 146.589 19.38C144.452 19.0652 138.948 19.8855 138.132 24.5711Z" fill="#B2FFE2"/>
<path d="M155.455 21.0908C158.449 17.4357 168.423 11.8353 171.708 11.5639C166.868 10.4948 157.088 16.5024 155.455 21.0908Z" fill="#B2FFE2"/>
<path d="M100.239 31.5127C96.0981 23.8136 100.648 15.7062 111.341 14.3841C101.853 13.3343 92.6729 22.3749 100.239 31.5127Z" fill="#B2FFE2"/>
<path d="M125.533 26.4181C128.936 23.7545 131.249 23.6378 133.621 22.4713C131.484 22.1564 128.547 22.4713 125.533 26.4181Z" fill="#B2FFE2"/>
<path d="M119.662 56.4612C116.807 56.1798 117.846 61.0159 120.717 61.5209C138.622 64.6711 146.53 60.2563 153.024 57.3056C159.518 54.3549 162.008 49.5605 160.718 47.5949C159.428 45.6294 152.368 49.7067 146.269 51.3007C140.17 52.8947 134.424 53.2111 129.333 53.2714C124.242 53.3316 121.719 51.8691 119.662 52.6613C117.605 53.4535 117.37 55.3822 119.662 56.4612Z" fill="#D7821E"/>
<path d="M126.45 47.2622C126.736 46.496 127.878 46.374 129.742 46.2695C132.232 46.374 132.386 46.9522 132.441 47.3841C132.511 47.924 131.013 49.1605 130.787 49.4217C130.56 49.6829 129.916 50.9717 130.787 51.4593C130.438 51.5986 129.811 52.1559 128.61 51.4593C127.408 50.7627 126.067 48.2897 126.45 47.2622Z" fill="#4B4B4B"/>
<path d="M126.899 47.4879C126.937 47.7183 127.43 47.8284 127.999 47.7339C128.568 47.6394 128.998 47.376 128.96 47.1456C128.921 46.9153 128.429 46.8051 127.86 46.8996C127.291 46.9942 126.861 47.2575 126.899 47.4879Z" fill="white"/>
<path d="M98.7953 52.318C102.655 51.2556 115.956 49.275 125.289 48.9607C125.329 48.9593 125.361 48.9916 125.36 49.0314C125.36 49.0691 125.333 49.0995 125.295 49.1003C119.708 49.2255 103.656 51.8061 99.0079 53.028C98.732 53.1006 98.4798 52.8459 98.5526 52.57C98.5851 52.4471 98.6727 52.3517 98.7953 52.318Z" fill="#382F43"/>
<path d="M100.977 56.7168C103.577 55.529 117.052 51.5551 125.452 50.2151C125.488 50.2095 125.519 50.2374 125.518 50.2733C125.518 50.301 125.498 50.3244 125.471 50.3295C116.258 52.0328 104.742 56.3362 101.285 57.7165C101.035 57.8163 100.767 57.6287 100.771 57.3595L100.775 57.0372C100.777 56.8992 100.851 56.7741 100.977 56.7168Z" fill="#382F43"/>
<path d="M165.942 43.994C150.242 43.013 138.853 46.5713 133.551 47.5842C133.526 47.589 133.507 47.6062 133.499 47.6299C133.48 47.6823 133.522 47.7357 133.576 47.7241C136.205 47.1621 145.042 45.5542 149.63 45.0515C154.083 44.5636 162.731 44.6564 165.884 44.9044C166.103 44.9216 166.29 44.7508 166.292 44.5308L166.295 44.3728C166.297 44.1733 166.141 44.0064 165.942 43.994Z" fill="#382F43"/>
<path d="M157.746 47.7965L157.597 48.3751C157.548 48.5675 157.358 48.688 157.162 48.6516C149.737 47.265 140.656 47.5906 133.331 49.4031C133.276 49.4166 133.23 49.3622 133.251 49.3102C133.259 49.2898 133.277 49.2747 133.298 49.2695C140.798 47.4422 149.68 46.7745 157.413 47.3303C157.645 47.347 157.804 47.5707 157.746 47.7965Z" fill="#382F43"/>
<path fill-rule="evenodd" clip-rule="evenodd" d="M157.788 47.8072L158.2 47.9134C158.331 47.4075 157.974 46.9003 157.446 46.8624C149.669 46.3032 140.738 46.9742 133.187 48.8137C133.018 48.8548 132.882 48.9742 132.817 49.1327L133.251 49.3101C133.259 49.2899 133.277 49.2749 133.298 49.2696C133.298 49.2695 133.298 49.2695 133.298 49.2695C133.426 49.2384 133.554 49.2077 133.682 49.1773C137.634 48.2409 141.954 47.623 146.277 47.3325C150.068 47.0778 153.861 47.075 157.413 47.3303C157.645 47.347 157.804 47.5706 157.746 47.7965L157.597 48.3751C157.548 48.5675 157.358 48.688 157.163 48.6515C153.777 48.0193 150.047 47.7431 146.296 47.8014C141.964 47.8688 137.604 48.3825 133.715 49.3098C133.617 49.3331 133.52 49.3566 133.423 49.3803C133.392 49.3879 133.361 49.3954 133.331 49.403C133.276 49.4165 133.23 49.3622 133.251 49.3101L132.817 49.1327C132.653 49.534 133.01 49.9657 133.443 49.8584L133.41 49.725C133.41 49.7251 133.41 49.7252 133.409 49.7253M133.41 49.725L133.443 49.8584C140.706 48.0615 149.719 47.7389 157.076 49.1127C157.513 49.1943 157.94 48.9243 158.052 48.4921L158.2 47.9134L157.788 47.8072M133.218 48.9476C133.219 48.9475 133.219 48.9474 133.22 48.9472ZM100.977 56.7167L100.782 56.29C100.476 56.4296 100.31 56.7288 100.306 57.031L100.302 57.3534C100.294 57.9502 100.893 58.3784 101.459 58.1521C104.911 56.7737 116.392 52.4851 125.557 50.7907C125.808 50.7443 125.984 50.527 125.987 50.2793C125.991 49.9671 125.716 49.698 125.379 49.7518C121.153 50.4258 115.665 51.7596 110.915 53.0708C106.178 54.3783 102.122 55.6779 100.782 56.29L100.977 56.7167ZM133.057 47.4725L133.057 47.4726C132.934 47.8186 133.208 48.2826 133.674 48.1828C136.295 47.6226 145.115 46.0181 149.681 45.5178C154.098 45.034 162.715 45.1256 165.847 45.372C166.338 45.4106 166.755 45.0269 166.762 44.5368L166.764 44.3788C166.77 43.9265 166.417 43.5536 165.971 43.5257C152.908 42.7095 142.794 45.0231 136.717 46.4131C135.455 46.7018 134.367 46.9507 133.463 47.1234C133.265 47.1612 133.118 47.3016 133.057 47.4725ZM124.9 49.1125C122.375 49.2104 118.113 49.7209 113.705 50.3668C107.79 51.2334 101.611 52.3437 99.008 53.028C98.7321 53.1005 98.48 52.8458 98.5528 52.57C98.5852 52.447 98.6728 52.3517 98.7954 52.3179C101.186 51.6601 107.196 50.6501 113.643 49.9017C117.461 49.4585 121.433 49.107 124.895 48.9748C125.027 48.9698 125.159 48.965 125.289 48.9606C125.29 48.9606 125.291 48.9606 125.292 48.9606C125.33 48.961 125.361 48.9926 125.36 49.0313C125.36 49.069 125.333 49.0995 125.295 49.1003C125.295 49.1003 125.294 49.1003 125.294 49.1003C125.168 49.1032 125.036 49.1073 124.9 49.1125ZM125.303 49.4296C125.303 49.4296 125.304 49.4295 125.305 49.4295ZM125.273 48.4918C115.916 48.807 102.576 50.7908 98.6709 51.8656C98.3736 51.9474 98.1705 52.1799 98.0992 52.4503C97.9357 53.0697 98.4999 53.6466 99.1273 53.4817C101.425 52.8776 106.578 51.9301 111.871 51.1165C117.166 50.3026 122.547 49.6311 125.306 49.5693C125.626 49.5622 125.826 49.2971 125.829 49.0375C125.833 48.7382 125.589 48.4811 125.273 48.4918ZM125.071 50.4047C121.824 51.0268 118.312 51.958 114.98 52.961C108.934 54.7817 103.482 56.8393 101.285 57.7164C101.035 57.8162 100.767 57.6286 100.771 57.3595L100.775 57.0371C100.777 56.8991 100.851 56.7741 100.977 56.7167C102.615 55.9683 108.572 54.1136 114.855 52.5087C118.386 51.607 122.02 50.7842 125.049 50.2808C125.075 50.2765 125.1 50.2723 125.126 50.2681C125.235 50.2501 125.343 50.2326 125.45 50.2155C125.451 50.2153 125.452 50.2152 125.452 50.2151C125.488 50.2094 125.519 50.2373 125.518 50.2732C125.518 50.3009 125.498 50.3244 125.471 50.3294C125.471 50.3295 125.471 50.3295 125.471 50.3295C125.338 50.354 125.205 50.3791 125.071 50.4047ZM143.583 45.4368C149.408 44.3549 156.971 43.4334 165.942 43.9939C166.141 44.0064 166.297 44.1733 166.295 44.3727L166.293 44.5307C166.29 44.7508 166.103 44.9216 165.884 44.9043C162.731 44.6563 154.083 44.5636 149.63 45.0515C148.018 45.2281 145.882 45.5412 143.674 45.8973C139.879 46.5098 135.873 47.2497 133.963 47.643C133.868 47.6626 133.778 47.6813 133.694 47.6991C133.694 47.6991 133.694 47.6991 133.694 47.6991C133.654 47.7075 133.615 47.7157 133.578 47.7237C133.577 47.7239 133.577 47.724 133.576 47.7241C133.522 47.7357 133.48 47.6822 133.499 47.6298C133.507 47.6076 133.524 47.5911 133.547 47.5853C133.548 47.5848 133.55 47.5845 133.551 47.5842C133.676 47.5604 133.804 47.5352 133.935 47.5086C134.769 47.3402 135.738 47.1187 136.835 46.8679L136.835 46.8678L136.835 46.8678C138.716 46.4378 140.975 45.9212 143.583 45.4368Z" fill="white"/>
<path d="M152.18 52.8833C140.811 56.8716 129.051 58.3845 120.56 56.6019C127.175 59.1351 136.792 59.182 152.18 52.8833Z" fill="#8F4E02"/>
<path d="M124.454 57.165C127.503 57.3996 129.005 57.3996 132.945 57.165C130.088 59.754 130.361 64.2174 130.361 64.2174C128.58 65.1087 126.382 64.6224 125.173 63.5496C124.256 61.207 124.13 58.8516 124.454 57.165Z" fill="#F1F1F1"/>
<path d="M125.173 63.5492C124.256 61.2065 124.224 59.1327 124.548 57.4461C124.615 59.1225 124.694 60.7342 125.582 63.0047C125.888 63.3472 126.545 63.6564 127.066 63.6972C126.974 62.8516 126.606 60.6392 127.082 59.0169C127.254 61.2838 127.197 62.013 127.688 64.0079C128.054 64.1646 129.15 63.9755 129.633 63.7058C129.579 61.4831 130.757 59.1645 132.069 57.7998C130.937 59.9822 130.173 62.1584 130.361 64.217C128.58 65.1083 126.382 64.622 125.173 63.5492Z" fill="#8B8B8B"/>
<path d="M127.737 99.6042C123.35 100.732 108.815 99.9997 108.217 94.1585C107.62 88.3173 119.069 87.4208 124.719 86.6083C124.754 91.6189 125.198 94.9989 127.737 99.6042Z" fill="#00E28D"/>
<path fill-rule="evenodd" clip-rule="evenodd" d="M125.064 84.835C125.781 84.9915 126.639 85.2005 127.413 85.3986C127.907 85.5252 128.36 85.6459 128.713 85.7434C128.889 85.7922 129.038 85.8346 129.152 85.8685C129.209 85.8855 129.256 85.8997 129.292 85.9111C129.31 85.9168 129.324 85.9214 129.334 85.925C129.344 85.9284 129.349 85.9301 129.349 85.9302L129.349 85.9302L130.024 84.1214C129.768 84.0258 128.866 83.7781 127.892 83.5284C126.89 83.2717 125.715 82.9886 124.867 82.8218C124.058 82.6628 123.277 83.2258 123.193 84.0609C122.985 86.1215 122.913 90.5055 123.916 93.9482C124.905 97.3433 126.209 100.241 127.604 102.119C128.069 102.747 128.923 102.854 129.531 102.448L133.556 99.7673L132.486 98.1605L128.871 100.569C127.758 98.925 126.65 96.4305 125.769 93.4083C124.947 90.5866 124.916 86.9379 125.064 84.835Z" fill="#3C2A53"/>
<path d="M119.25 36.8267C123.872 36.6577 127.996 37.4817 128.553 38.5764C130.51 42.4199 123.63 45.0101 119.25 45.3449C111.947 45.9031 110.13 43.8254 110.13 41.5692C110.13 39.3129 113.472 37.0379 119.25 36.8267Z" fill="white"/>
<path d="M137.822 34.7613C142.537 34.5997 150.616 35.7256 153.76 38.2589C148.599 42.7157 142.29 42.5889 137.822 42.9091C130.373 43.443 128.52 41.4557 128.52 39.2975C128.52 37.1394 131.929 34.9633 137.822 34.7613Z" fill="white"/>
<path d="M125.689 42.0989C126.054 45.4237 113.802 45.6945 113.479 42.7471C113.082 39.1353 125.222 37.8433 125.689 42.0989Z" fill="url(#paint0_linear_319_218)"/>
<path d="M145.524 40.0376C146.077 43.3452 130.397 44.1676 129.906 41.2354C129.304 37.6423 144.815 35.804 145.524 40.0376Z" fill="url(#paint1_linear_319_218)"/>
<path d="M128.848 40.6979C129.318 44.6391 135.651 44.4977 137.95 44.31C140.248 44.1224 147.707 43.2778 153.759 38.2581C147.191 41.8704 140.489 42.6203 137.527 42.9972C134.565 43.3742 130.169 42.763 128.848 40.6979Z" fill="#0B9561"/>
<path fill-rule="evenodd" clip-rule="evenodd" d="M128.816 40.7026L128.876 40.6809C129.529 41.7019 130.947 42.3685 132.58 42.7318C134.21 43.0948 136.046 43.1532 137.523 42.9652C137.622 42.9527 137.724 42.9398 137.831 42.9263C140.93 42.5353 147.4 41.7191 153.743 38.23L153.78 38.2843C147.72 43.3108 140.253 44.1559 137.952 44.3437C136.802 44.4376 134.64 44.5202 132.706 44.0852C130.773 43.6507 129.053 42.6953 128.816 40.7026ZM153.623 38.371C153.669 38.3339 153.714 38.2965 153.759 38.2589C153.708 38.2873 153.656 38.3155 153.605 38.3435C147.305 41.7643 140.91 42.5712 137.835 42.9591C137.729 42.9725 137.626 42.9854 137.527 42.998C134.596 43.3711 130.259 42.7761 128.89 40.7613C128.876 40.7406 128.862 40.7197 128.848 40.6987C128.851 40.7238 128.855 40.7487 128.858 40.7735C129.398 44.638 135.666 44.4972 137.95 44.3108C140.231 44.1245 147.596 43.2912 153.623 38.371Z" fill="#0B9561"/>
<path d="M114.117 43.6779C114.126 44.0966 115.026 44.4172 116.127 44.3941C117.229 44.3709 118.115 44.0128 118.106 43.5941C118.097 43.1754 117.197 42.8547 116.096 42.8778C114.994 42.901 114.108 43.2592 114.117 43.6779Z" fill="white"/>
<path d="M117.926 42.9806C117.931 43.206 118.416 43.3786 119.009 43.3661C119.601 43.3537 120.078 43.1609 120.074 42.9355C120.069 42.7101 119.584 42.5374 118.991 42.5499C118.398 42.5624 117.922 42.7552 117.926 42.9806Z" fill="white"/>
<path d="M131.761 41.9376C131.769 42.3563 132.669 42.677 133.771 42.6538C134.872 42.6307 135.758 42.2725 135.749 41.8538C135.74 41.4351 134.84 41.1145 133.739 41.1376C132.638 41.1608 131.752 41.5189 131.761 41.9376Z" fill="white"/>
<path d="M135.488 41.0448C135.492 41.2449 135.922 41.3981 136.448 41.387C136.974 41.376 137.397 41.2048 137.393 41.0048C137.389 40.8047 136.959 40.6515 136.433 40.6626C135.906 40.6737 135.483 40.8448 135.488 41.0448Z" fill="white"/>
<path d="M103.187 43.1846L95.0242 78.0218L137.704 67.2477L149.042 96.7595L167.411 63.9202L103.187 43.1846Z" fill="url(#paint2_linear_319_218)"/>
<path fill-rule="evenodd" clip-rule="evenodd" d="M96.6272 75.6735L136.443 64.4359C137.525 64.1305 138.66 64.7083 139.05 65.7629L154.379 107.236C154.753 108.249 154.415 109.197 153.82 110.184C153.226 111.172 152.727 111.593 151.768 111.816L117.286 119.838C116.34 120.058 115.363 119.618 114.901 118.763L94.2388 80.5053C93.6696 79.4515 93.5905 79.0858 94.2388 77.7631C94.887 76.4404 95.7067 75.9333 96.6272 75.6735Z" fill="#5E4E72"/>
<path d="M135.172 65.9696L96.0303 77.0171C94.5036 77.448 93.7697 79.1827 94.5235 80.5784L114.878 118.266C115.409 119.248 116.531 119.754 117.619 119.501L151.506 111.618C152.958 111.28 153.785 109.745 153.268 108.346L138.169 67.4949C137.721 66.2826 136.416 65.6185 135.172 65.9696Z" fill="#433555"/>
<path fill-rule="evenodd" clip-rule="evenodd" d="M140.132 70.7531C140.355 70.6711 140.603 70.7857 140.685 71.0091L143.918 79.8172C143.999 80.0405 143.885 80.2881 143.662 80.37C143.438 80.452 143.191 80.3374 143.109 80.114L139.876 71.3059C139.794 71.0826 139.908 70.835 140.132 70.7531ZM144.063 81.5774C144.286 81.493 144.534 81.6049 144.619 81.8274L145.649 84.5448C145.734 84.7673 145.622 85.016 145.399 85.1004C145.177 85.1848 144.928 85.0729 144.844 84.8504L143.813 82.133C143.729 81.9105 143.841 81.6618 144.063 81.5774Z" fill="#2C2139"/>
<path d="M132.131 71.3918C132.468 72.3154 132.111 73.2943 131.333 73.5784C130.556 73.8624 129.652 73.344 129.314 72.4204C128.977 71.4968 129.334 70.5178 130.112 70.2337C130.89 69.9497 131.794 70.4682 132.131 71.3918Z" fill="#2A1E3A"/>
<path d="M134.15 75.7345C134.487 76.6581 134.13 77.6371 133.352 77.9212C132.574 78.2052 131.67 77.6867 131.333 76.7631C130.996 75.8395 131.353 74.8606 132.131 74.5765C132.908 74.2925 133.812 74.8109 134.15 75.7345Z" fill="#2A1E3A"/>
<path d="M129.746 74.8908C130.083 75.8144 129.726 76.7934 128.948 77.0774C128.171 77.3615 127.267 76.843 126.929 75.9194C126.592 74.9958 126.949 74.0168 127.727 73.7328C128.505 73.4487 129.409 73.9672 129.746 74.8908Z" fill="#2A1E3A"/>
<path d="M165.757 97.1036C160.307 98.6496 142.25 98.9662 141.507 92.7327C140.764 86.4991 154.987 84.6658 162.005 83.3633C162.05 88.7467 162.601 92.3462 165.757 97.1036Z" fill="#00E28D"/>
<path fill-rule="evenodd" clip-rule="evenodd" d="M162.25 82.4867C162.972 82.6195 163.837 82.8002 164.616 82.9729C165.114 83.0832 165.571 83.1889 165.926 83.2748C166.104 83.3179 166.254 83.3553 166.37 83.3855C166.428 83.4005 166.474 83.4132 166.511 83.4235C166.529 83.4286 166.543 83.4327 166.554 83.4359C166.564 83.439 166.569 83.4405 166.569 83.4407L166.569 83.4407L167.184 81.6106C166.925 81.5235 166.016 81.3056 165.034 81.088C164.024 80.8643 162.84 80.6199 161.987 80.481C161.173 80.3487 160.411 80.9371 160.354 81.7744C160.214 83.8408 160.286 88.2247 161.402 91.6327C162.501 94.9935 163.9 97.8469 165.356 99.6783C165.842 100.29 166.698 100.369 167.293 99.9439L171.228 97.1323L170.106 95.5614L166.571 98.0869C165.405 96.4807 164.215 94.0239 163.236 91.0322C162.322 88.239 162.171 84.5933 162.25 82.4867Z" fill="#3C2A53"/>
<path d="M128.473 39.1027C128.473 35.5373 134.507 32.1602 138.747 32.1602C146.389 31.6561 149.772 34.2244 156.199 35.3306C150.71 35.6318 144.799 32.4346 138.09 33.5207C141.937 33.4867 149.866 34.3182 154.557 38.6812C146.113 35.4388 133.915 31.5496 128.473 39.1027Z" fill="#0B9561"/>
<path d="M128.929 34.017C129.763 29.6601 138.159 28.1747 140.985 28.3238C143.313 28.4466 147.943 28.1945 153.907 31.9927C152.362 31.1012 148.356 29.7667 146.846 29.8078C140.482 29.109 134.302 30.3817 128.929 34.017Z" fill="#0B9561"/>
<path d="M130.196 32.7354C131.462 31.8161 134.342 30.5928 136.205 30.2201C133.736 30.2201 130.64 31.1502 130.196 32.7354Z" fill="#B2FFE2"/>
<path d="M123.168 38.5464C124.632 42.4906 123.021 46.7894 119.57 48.148C116.119 49.5067 112.135 47.4108 110.671 43.4667C109.208 39.5226 110.819 35.2238 114.27 33.8651C117.721 32.5064 121.705 34.6023 123.168 38.5464Z" fill="white"/>
<path fill-rule="evenodd" clip-rule="evenodd" d="M119.015 46.6527C121.476 45.6837 122.909 42.4317 121.684 39.1308C120.459 35.8298 117.286 34.3915 114.825 35.3604C112.363 36.3294 110.93 39.5814 112.156 42.8824C113.381 46.1833 116.554 47.6216 119.015 46.6527ZM119.57 48.148C123.021 46.7894 124.632 42.4906 123.168 38.5464C121.705 34.6023 117.721 32.5064 114.27 33.8651C110.819 35.2238 109.208 39.5226 110.671 43.4667C112.135 47.4108 116.119 49.5067 119.57 48.148Z" fill="#2B1448"/>
<path fill-rule="evenodd" clip-rule="evenodd" d="M125.505 36.8501C124.225 37.2807 123.289 38.456 122.868 39.4318L121.952 39.0346C122.445 37.8951 123.554 36.4523 125.187 35.9028C126.877 35.334 128.958 35.774 131.241 38.0821L130.533 38.7855C128.427 36.6567 126.727 36.4387 125.505 36.8501Z" fill="#2B1448"/>
<path fill-rule="evenodd" clip-rule="evenodd" d="M125.21 37.623C123.874 38.0387 122.886 39.2097 122.434 40.1869L121.488 39.7738C122.016 38.6327 123.188 37.1946 124.893 36.664C126.657 36.1148 128.813 36.5874 131.154 38.9452L130.408 39.644C128.25 37.4694 126.486 37.2257 125.21 37.623Z" fill="#5E4E72"/>
<path d="M143.716 36.064C145.18 40.0081 143.569 44.3069 140.118 45.6656C136.667 47.0243 132.683 44.9284 131.219 40.9843C129.755 37.0401 131.366 32.7413 134.817 31.3826C138.268 30.0239 142.253 32.1199 143.716 36.064Z" fill="white"/>
<path fill-rule="evenodd" clip-rule="evenodd" d="M139.563 44.1702C142.024 43.2013 143.457 39.9493 142.232 36.6483C141.007 33.3474 137.833 31.9091 135.372 32.878C132.911 33.847 131.478 37.099 132.703 40.3999C133.928 43.7009 137.102 45.1392 139.563 44.1702ZM140.118 45.6656C143.569 44.3069 145.18 40.0081 143.716 36.064C142.253 32.1199 138.268 30.0239 134.817 31.3826C131.366 32.7413 129.755 37.0401 131.219 40.9843C132.683 44.9284 136.667 47.0243 140.118 45.6656Z" fill="#2B1448"/>
<path d="M135.041 33.7081C133.765 34.0834 133.133 36.0383 133.071 36.8046C133.816 34.7039 136.555 33.6499 138.56 34.3182C137.809 33.6614 136.636 33.2389 135.041 33.7081Z" fill="url(#paint3_linear_319_218)"/>
<path d="M114.54 36.148C113.264 36.5233 112.147 38.353 112.147 40.9802C112.992 36.5702 116.664 36.2305 118.668 36.8987C117.355 36.195 116.135 35.6789 114.54 36.148Z" fill="url(#paint4_linear_319_218)"/>
<path fill-rule="evenodd" clip-rule="evenodd" d="M118.403 46.8939C120.865 45.9249 122.298 42.6729 121.072 39.372C119.847 36.071 116.674 34.6327 114.213 35.6017C111.752 36.5706 110.319 39.8226 111.544 43.1236C112.769 46.4245 115.942 47.8628 118.403 46.8939ZM118.958 48.3893C122.409 47.0306 124.02 42.7318 122.557 38.7876C121.093 34.8435 117.109 32.7476 113.658 34.1063C110.207 35.465 108.596 39.7638 110.06 43.7079C111.523 47.652 115.507 49.748 118.958 48.3893Z" fill="#5E4E72"/>
<path fill-rule="evenodd" clip-rule="evenodd" d="M138.952 44.4114C141.413 43.4425 142.846 40.1905 141.621 36.8895C140.396 33.5886 137.222 32.1503 134.761 33.1192C132.3 34.0882 130.867 37.3402 132.092 40.6411C133.317 43.9421 136.491 45.3804 138.952 44.4114ZM139.507 45.9068C142.958 44.5481 144.568 40.2493 143.105 36.3052C141.641 32.3611 137.657 30.2652 134.206 31.6238C130.755 32.9825 129.144 37.2813 130.608 41.2255C132.071 45.1696 136.056 47.2655 139.507 45.9068Z" fill="#5E4E72"/>
<path d="M141.609 40.8392C140.53 44.217 138.85 44.1302 137.668 44.2165C133.727 44.2165 132.132 38.4723 135.276 42.4341C134.161 38.9993 137.621 38.0247 140.436 41.6366C140.014 38.6813 142.266 37.4144 141.609 40.8392Z" fill="url(#paint5_linear_319_218)"/>
<path d="M121.085 43.2715C120.006 46.6493 118.326 46.5624 117.144 46.6487C113.203 46.6487 111.819 41.4746 114.962 45.4365C112.898 42.1057 115.9 39.9946 119.935 44.2168C120.216 41.4019 121.741 39.8467 121.085 43.2715Z" fill="url(#paint6_linear_319_218)"/>
<path d="M136.093 42.205C135.849 42.5451 136.036 43.0678 136.512 43.3725C136.987 43.6771 137.57 43.6484 137.814 43.3082C138.059 42.9681 137.871 42.4454 137.396 42.1408C136.921 41.8361 136.337 41.8648 136.093 42.205Z" fill="white"/>
<path d="M115.765 44.7775C115.768 45.1962 116.083 45.5168 116.468 45.4937C116.853 45.4705 117.162 45.1124 117.159 44.6937C117.156 44.275 116.842 43.9543 116.457 43.9775C116.072 44.0006 115.762 44.3588 115.765 44.7775Z" fill="white"/>
<path d="M137.905 41.9921C137.907 42.1921 138.057 42.3453 138.241 42.3343C138.425 42.3232 138.573 42.1521 138.571 41.9521C138.57 41.752 138.42 41.5988 138.236 41.6099C138.052 41.6209 137.904 41.7921 137.905 41.9921Z" fill="white"/>
<path d="M117.827 43.7743C117.828 43.9744 117.978 44.1276 118.162 44.1165C118.346 44.1055 118.494 43.9343 118.493 43.7343C118.491 43.5342 118.341 43.381 118.157 43.3921C117.973 43.4032 117.825 43.5743 117.827 43.7743Z" fill="white"/>
<path d="M117.97 45.4011C117.682 45.537 117.488 45.7206 117.537 45.811C117.586 45.9014 117.858 45.8645 118.146 45.7286C118.434 45.5926 118.627 45.4091 118.579 45.3187C118.53 45.2283 118.257 45.2652 117.97 45.4011Z" fill="white"/>
<defs>
<linearGradient id="paint0_linear_319_218" x1="119.529" y1="39.4415" x2="119.626" y2="44.7824" gradientUnits="userSpaceOnUse">
<stop stop-color="#484848"/>
<stop offset="1" stop-color="#1C7553"/>
</linearGradient>
<linearGradient id="paint1_linear_319_218" x1="137.567" y1="37.6581" x2="137.831" y2="42.9934" gradientUnits="userSpaceOnUse">
<stop stop-color="#484848"/>
<stop offset="1" stop-color="#1C7553"/>
</linearGradient>
<linearGradient id="paint2_linear_319_218" x1="113.998" y1="115.778" x2="139.62" y2="52.3491" gradientUnits="userSpaceOnUse">
<stop offset="0.472067" stop-color="#76FF9C"/>
<stop offset="0.861938" stop-color="white" stop-opacity="0"/>
</linearGradient>
<linearGradient id="paint3_linear_319_218" x1="136.19" y1="33.7217" x2="136.19" y2="36.3943" gradientUnits="userSpaceOnUse">
<stop stop-color="#484848"/>
<stop offset="1" stop-color="#1C7553"/>
</linearGradient>
<linearGradient id="paint4_linear_319_218" x1="115.595" y1="36.3609" x2="115.595" y2="39.0335" gradientUnits="userSpaceOnUse">
<stop stop-color="#484848"/>
<stop offset="1" stop-color="#1C7553"/>
</linearGradient>
<linearGradient id="paint5_linear_319_218" x1="136.776" y1="38.2221" x2="137.517" y2="43.4656" gradientUnits="userSpaceOnUse">
<stop stop-color="#484848"/>
<stop offset="1" stop-color="#1C7553"/>
</linearGradient>
<linearGradient id="paint6_linear_319_218" x1="116.252" y1="40.6543" x2="116.993" y2="45.8978" gradientUnits="userSpaceOnUse">
<stop stop-color="#484848"/>
<stop offset="1" stop-color="#1C7553"/>
</linearGradient>
</defs>
</svg>
