<svg width="263" height="168" viewBox="0 0 263 168" fill="none" xmlns="http://www.w3.org/2000/svg">
<path d="M15.7201 166V108.052L0.0439453 114.323V99.1871L22.2068 90.322H33.2341V166H15.7201Z" fill="#2D1747"/>
<path d="M79.1865 167.189C72.3395 167.189 66.3213 165.567 61.1319 162.324C56.0146 159.081 52.0145 154.54 49.1316 148.702C46.3207 142.792 44.9152 135.945 44.9152 128.161C44.9152 120.305 46.3207 113.458 49.1316 107.62C52.0145 101.782 56.0146 97.2411 61.1319 93.9978C66.3213 90.7545 72.3395 89.1328 79.1865 89.1328C86.0336 89.1328 92.0157 90.7545 97.133 93.9978C102.322 97.2411 106.322 101.782 109.133 107.62C112.016 113.458 113.458 120.305 113.458 128.161C113.458 135.945 112.016 142.792 109.133 148.702C106.322 154.54 102.322 159.081 97.133 162.324C92.0157 165.567 86.0336 167.189 79.1865 167.189ZM79.1865 152.054C82.7181 152.054 85.7453 151.117 88.2679 149.243C90.8625 147.297 92.8446 144.522 94.214 140.918C95.6555 137.314 96.3762 133.062 96.3762 128.161C96.3762 123.188 95.6555 118.935 94.214 115.404C92.8446 111.8 90.8625 109.061 88.2679 107.187C85.7453 105.241 82.7181 104.268 79.1865 104.268C75.6549 104.268 72.5917 105.241 69.997 107.187C67.4744 109.061 65.4924 111.8 64.0509 115.404C62.6815 118.935 61.9968 123.188 61.9968 128.161C61.9968 133.062 62.6815 137.314 64.0509 140.918C65.4924 144.522 67.4744 147.297 69.997 149.243C72.5917 151.117 75.6549 152.054 79.1865 152.054Z" fill="#2D1747"/>
<path d="M157.495 167.189C150.648 167.189 144.63 165.567 139.441 162.324C134.324 159.081 130.323 154.54 127.44 148.702C124.63 142.792 123.224 135.945 123.224 128.161C123.224 120.305 124.63 113.458 127.44 107.62C130.323 101.782 134.324 97.2411 139.441 93.9978C144.63 90.7545 150.648 89.1328 157.495 89.1328C164.342 89.1328 170.325 90.7545 175.442 93.9978C180.631 97.2411 184.631 101.782 187.442 107.62C190.325 113.458 191.767 120.305 191.767 128.161C191.767 135.945 190.325 142.792 187.442 148.702C184.631 154.54 180.631 159.081 175.442 162.324C170.325 165.567 164.342 167.189 157.495 167.189ZM157.495 152.054C161.027 152.054 164.054 151.117 166.577 149.243C169.171 147.297 171.153 144.522 172.523 140.918C173.964 137.314 174.685 133.062 174.685 128.161C174.685 123.188 173.964 118.935 172.523 115.404C171.153 111.8 169.171 109.061 166.577 107.187C164.054 105.241 161.027 104.268 157.495 104.268C153.964 104.268 150.901 105.241 148.306 107.187C145.783 109.061 143.801 111.8 142.36 115.404C140.99 118.935 140.306 123.188 140.306 128.161C140.306 133.062 140.99 137.314 142.36 140.918C143.801 144.522 145.783 147.297 148.306 149.243C150.901 151.117 153.964 152.054 157.495 152.054Z" fill="#2D1747"/>
<path d="M185.116 29.9999V25.4698L197.306 13.403C197.773 12.9637 198.144 12.5382 198.418 12.1263C198.693 11.687 198.899 11.2477 199.036 10.8085C199.173 10.3692 199.242 9.92987 199.242 9.49058C199.242 8.55709 198.83 7.78833 198.006 7.18431C197.21 6.55283 196.208 6.23709 195 6.23709C193.71 6.23709 192.501 6.51165 191.376 7.06076C190.25 7.58241 189.028 8.48845 187.71 9.77887L184.169 5.4546C185.816 3.88963 187.559 2.70904 189.399 1.91283C191.266 1.11661 193.202 0.718506 195.206 0.718506C197.265 0.718506 199.05 1.07543 200.56 1.78927C202.097 2.47567 203.292 3.45034 204.143 4.7133C204.994 5.94881 205.419 7.40395 205.419 9.07875C205.419 9.98478 205.282 10.8634 205.008 11.7145C204.76 12.5382 204.362 13.3481 203.813 14.1443C203.264 14.9405 202.55 15.7642 201.672 16.6153L193.353 24.6461L205.831 24.6049V29.9999H185.116Z" fill="#5C4379"/>
<path d="M220.325 30.453C216.289 30.453 212.775 29.1625 209.782 26.5817L213.571 22.1751C214.779 23.1635 215.946 23.8773 217.072 24.3166C218.197 24.7559 219.392 24.9756 220.655 24.9756C221.671 24.9756 222.549 24.8108 223.29 24.4814C224.032 24.1244 224.608 23.6302 225.02 22.9988C225.459 22.3673 225.679 21.6397 225.679 20.816C225.679 19.608 225.171 18.6059 224.155 17.8096C223.167 17.0134 221.904 16.6153 220.366 16.6153C219.598 16.6153 218.829 16.7389 218.06 16.986C217.291 17.2056 216.495 17.5488 215.671 18.0156L211.1 16.6565L211.8 1.17152H230.662V6.56656H217.401L217.113 12.8264C218.101 12.3597 219.035 12.0577 219.913 11.9204C220.792 11.7831 221.643 11.7145 222.467 11.7145C224.416 11.7145 226.118 12.0851 227.574 12.8264C229.029 13.5403 230.154 14.5561 230.951 15.874C231.774 17.1919 232.186 18.7294 232.186 20.4866C232.186 22.4634 231.692 24.2068 230.703 25.7169C229.715 27.1995 228.329 28.3663 226.544 29.2175C224.759 30.0411 222.686 30.453 220.325 30.453Z" fill="#5C4379"/>
<path d="M249.408 30.453C246.8 30.453 244.508 29.8352 242.531 28.5997C240.581 27.3642 239.058 25.6345 237.959 23.4106C236.889 21.1592 236.353 18.5509 236.353 15.5857C236.353 12.5931 236.889 9.98478 237.959 7.76088C239.058 5.53697 240.581 3.80726 242.531 2.57176C244.508 1.33626 246.8 0.718506 249.408 0.718506C252.017 0.718506 254.296 1.33626 256.245 2.57176C258.222 3.80726 259.746 5.53697 260.816 7.76088C261.915 9.98478 262.464 12.5931 262.464 15.5857C262.464 18.5509 261.915 21.1592 260.816 23.4106C259.746 25.6345 258.222 27.3642 256.245 28.5997C254.296 29.8352 252.017 30.453 249.408 30.453ZM249.408 24.6873C250.754 24.6873 251.907 24.3304 252.868 23.6165C253.856 22.8752 254.611 21.8182 255.133 20.4454C255.682 19.0726 255.957 17.4527 255.957 15.5857C255.957 13.6913 255.682 12.0714 255.133 10.7261C254.611 9.3533 253.856 8.30999 252.868 7.59614C251.907 6.85484 250.754 6.48419 249.408 6.48419C248.063 6.48419 246.896 6.85484 245.908 7.59614C244.947 8.30999 244.192 9.3533 243.643 10.7261C243.121 12.0714 242.86 13.6913 242.86 15.5857C242.86 17.4527 243.121 19.0726 243.643 20.4454C244.192 21.8182 244.947 22.8752 245.908 23.6165C246.896 24.3304 248.063 24.6873 249.408 24.6873Z" fill="#5C4379"/>
<path d="M43.7194 102.291C41.126 102.291 38.8678 101.462 36.9448 99.8035L39.3794 96.9719C40.1556 97.607 40.9054 98.0657 41.6288 98.348C42.3521 98.6303 43.1195 98.7714 43.9311 98.7714C44.5838 98.7714 45.1484 98.6656 45.6247 98.4539C46.1011 98.2245 46.4715 97.907 46.7362 97.5012C47.0185 97.0954 47.1596 96.6279 47.1596 96.0986C47.1596 95.3224 46.8332 94.6784 46.1804 94.1668C45.5453 93.6552 44.7338 93.3994 43.7458 93.3994C43.2518 93.3994 42.7579 93.4788 42.2639 93.6376C41.7699 93.7787 41.2583 93.9992 40.729 94.2991L37.7916 93.4258L38.2415 83.4757H50.3616V86.9423H41.8405L41.6552 90.9648C42.2903 90.6648 42.8902 90.4708 43.4547 90.3826C44.0193 90.2944 44.5662 90.2503 45.0955 90.2503C46.348 90.2503 47.4419 90.4884 48.3769 90.9648C49.3119 91.4235 50.0353 92.0762 50.5469 92.923C51.0761 93.7699 51.3408 94.7578 51.3408 95.8869C51.3408 97.1572 51.0232 98.2774 50.3881 99.2478C49.753 100.2 48.8621 100.95 47.7153 101.497C46.5686 102.026 45.2366 102.291 43.7194 102.291Z" fill="#623C8F"/>
<path d="M62.4074 102.291C60.7314 102.291 59.2583 101.894 57.988 101.1C56.7354 100.306 55.7563 99.1948 55.0506 97.7658C54.3626 96.3192 54.0185 94.6432 54.0185 92.7378C54.0185 90.8148 54.3626 89.1388 55.0506 87.7098C55.7563 86.2808 56.7354 85.1693 57.988 84.3754C59.2583 83.5815 60.7314 83.1846 62.4074 83.1846C64.0834 83.1846 65.5477 83.5815 66.8003 84.3754C68.0705 85.1693 69.0497 86.2808 69.7377 87.7098C70.4434 89.1388 70.7962 90.8148 70.7962 92.7378C70.7962 94.6432 70.4434 96.3192 69.7377 97.7658C69.0497 99.1948 68.0705 100.306 66.8003 101.1C65.5477 101.894 64.0834 102.291 62.4074 102.291ZM62.4074 98.5862C63.2719 98.5862 64.0128 98.3568 64.6303 97.8981C65.2654 97.4218 65.7506 96.7426 66.0858 95.8605C66.4386 94.9784 66.6151 93.9375 66.6151 92.7378C66.6151 91.5205 66.4386 90.4796 66.0858 89.6151C65.7506 88.733 65.2654 88.0626 64.6303 87.6039C64.0128 87.1276 63.2719 86.8894 62.4074 86.8894C61.5429 86.8894 60.7931 87.1276 60.158 87.6039C59.5405 88.0626 59.0554 88.733 58.7025 89.6151C58.3673 90.4796 58.1997 91.5205 58.1997 92.7378C58.1997 93.9375 58.3673 94.9784 58.7025 95.8605C59.0554 96.7426 59.5405 97.4218 60.158 97.8981C60.7931 98.3568 61.5429 98.5862 62.4074 98.5862Z" fill="#623C8F"/>
<path d="M15.7201 166V108.052L0.0439453 114.323V99.1871L22.2068 90.322H33.2341V166H15.7201Z" fill="#2D1747"/>
<path d="M79.1865 167.189C72.3395 167.189 66.3213 165.567 61.1319 162.324C56.0146 159.081 52.0145 154.54 49.1316 148.702C46.3207 142.792 44.9152 135.945 44.9152 128.161C44.9152 120.305 46.3207 113.458 49.1316 107.62C52.0145 101.782 56.0146 97.2411 61.1319 93.9978C66.3213 90.7545 72.3395 89.1328 79.1865 89.1328C86.0336 89.1328 92.0157 90.7545 97.133 93.9978C102.322 97.2411 106.322 101.782 109.133 107.62C112.016 113.458 113.458 120.305 113.458 128.161C113.458 135.945 112.016 142.792 109.133 148.702C106.322 154.54 102.322 159.081 97.133 162.324C92.0157 165.567 86.0336 167.189 79.1865 167.189ZM79.1865 152.054C82.7181 152.054 85.7453 151.117 88.2679 149.243C90.8625 147.297 92.8446 144.522 94.214 140.918C95.6555 137.314 96.3762 133.062 96.3762 128.161C96.3762 123.188 95.6555 118.935 94.214 115.404C92.8446 111.8 90.8625 109.061 88.2679 107.187C85.7453 105.241 82.7181 104.268 79.1865 104.268C75.6549 104.268 72.5917 105.241 69.997 107.187C67.4744 109.061 65.4924 111.8 64.0509 115.404C62.6815 118.935 61.9968 123.188 61.9968 128.161C61.9968 133.062 62.6815 137.314 64.0509 140.918C65.4924 144.522 67.4744 147.297 69.997 149.243C72.5917 151.117 75.6549 152.054 79.1865 152.054Z" fill="#2D1747"/>
<path d="M157.495 167.189C150.648 167.189 144.63 165.567 139.441 162.324C134.324 159.081 130.323 154.54 127.44 148.702C124.63 142.792 123.224 135.945 123.224 128.161C123.224 120.305 124.63 113.458 127.44 107.62C130.323 101.782 134.324 97.2411 139.441 93.9978C144.63 90.7545 150.648 89.1328 157.495 89.1328C164.342 89.1328 170.325 90.7545 175.442 93.9978C180.631 97.2411 184.631 101.782 187.442 107.62C190.325 113.458 191.767 120.305 191.767 128.161C191.767 135.945 190.325 142.792 187.442 148.702C184.631 154.54 180.631 159.081 175.442 162.324C170.325 165.567 164.342 167.189 157.495 167.189ZM157.495 152.054C161.027 152.054 164.054 151.117 166.577 149.243C169.171 147.297 171.153 144.522 172.523 140.918C173.964 137.314 174.685 133.062 174.685 128.161C174.685 123.188 173.964 118.935 172.523 115.404C171.153 111.8 169.171 109.061 166.577 107.187C164.054 105.241 161.027 104.268 157.495 104.268C153.964 104.268 150.901 105.241 148.306 107.187C145.783 109.061 143.801 111.8 142.36 115.404C140.99 118.935 140.306 123.188 140.306 128.161C140.306 133.062 140.99 137.314 142.36 140.918C143.801 144.522 145.783 147.297 148.306 149.243C150.901 151.117 153.964 152.054 157.495 152.054Z" fill="#2D1747"/>
<path d="M185.116 29.9999V25.4698L197.306 13.403C197.773 12.9637 198.144 12.5382 198.418 12.1263C198.693 11.687 198.899 11.2477 199.036 10.8085C199.173 10.3692 199.242 9.92987 199.242 9.49058C199.242 8.55709 198.83 7.78833 198.006 7.18431C197.21 6.55283 196.208 6.23709 195 6.23709C193.71 6.23709 192.501 6.51165 191.376 7.06076C190.25 7.58241 189.028 8.48845 187.71 9.77887L184.169 5.4546C185.816 3.88963 187.559 2.70904 189.399 1.91283C191.266 1.11661 193.202 0.718506 195.206 0.718506C197.265 0.718506 199.05 1.07543 200.56 1.78927C202.097 2.47567 203.292 3.45034 204.143 4.7133C204.994 5.94881 205.419 7.40395 205.419 9.07875C205.419 9.98478 205.282 10.8634 205.008 11.7145C204.76 12.5382 204.362 13.3481 203.813 14.1443C203.264 14.9405 202.55 15.7642 201.672 16.6153L193.353 24.6461L205.831 24.6049V29.9999H185.116Z" fill="#5C4379"/>
<path d="M220.325 30.453C216.289 30.453 212.775 29.1625 209.782 26.5817L213.571 22.1751C214.779 23.1635 215.946 23.8773 217.072 24.3166C218.197 24.7559 219.392 24.9756 220.655 24.9756C221.671 24.9756 222.549 24.8108 223.29 24.4814C224.032 24.1244 224.608 23.6302 225.02 22.9988C225.459 22.3673 225.679 21.6397 225.679 20.816C225.679 19.608 225.171 18.6059 224.155 17.8096C223.167 17.0134 221.904 16.6153 220.366 16.6153C219.598 16.6153 218.829 16.7389 218.06 16.986C217.291 17.2056 216.495 17.5488 215.671 18.0156L211.1 16.6565L211.8 1.17152H230.662V6.56656H217.401L217.113 12.8264C218.101 12.3597 219.035 12.0577 219.913 11.9204C220.792 11.7831 221.643 11.7145 222.467 11.7145C224.416 11.7145 226.118 12.0851 227.574 12.8264C229.029 13.5403 230.154 14.5561 230.951 15.874C231.774 17.1919 232.186 18.7294 232.186 20.4866C232.186 22.4634 231.692 24.2068 230.703 25.7169C229.715 27.1995 228.329 28.3663 226.544 29.2175C224.759 30.0411 222.686 30.453 220.325 30.453Z" fill="#5C4379"/>
<path d="M249.408 30.453C246.8 30.453 244.508 29.8352 242.531 28.5997C240.581 27.3642 239.058 25.6345 237.959 23.4106C236.889 21.1592 236.353 18.5509 236.353 15.5857C236.353 12.5931 236.889 9.98478 237.959 7.76088C239.058 5.53697 240.581 3.80726 242.531 2.57176C244.508 1.33626 246.8 0.718506 249.408 0.718506C252.017 0.718506 254.296 1.33626 256.245 2.57176C258.222 3.80726 259.746 5.53697 260.816 7.76088C261.915 9.98478 262.464 12.5931 262.464 15.5857C262.464 18.5509 261.915 21.1592 260.816 23.4106C259.746 25.6345 258.222 27.3642 256.245 28.5997C254.296 29.8352 252.017 30.453 249.408 30.453ZM249.408 24.6873C250.754 24.6873 251.907 24.3304 252.868 23.6165C253.856 22.8752 254.611 21.8182 255.133 20.4454C255.682 19.0726 255.957 17.4527 255.957 15.5857C255.957 13.6913 255.682 12.0714 255.133 10.7261C254.611 9.3533 253.856 8.30999 252.868 7.59614C251.907 6.85484 250.754 6.48419 249.408 6.48419C248.063 6.48419 246.896 6.85484 245.908 7.59614C244.947 8.30999 244.192 9.3533 243.643 10.7261C243.121 12.0714 242.86 13.6913 242.86 15.5857C242.86 17.4527 243.121 19.0726 243.643 20.4454C244.192 21.8182 244.947 22.8752 245.908 23.6165C246.896 24.3304 248.063 24.6873 249.408 24.6873Z" fill="#5C4379"/>
<path d="M43.7194 102.291C41.126 102.291 38.8678 101.462 36.9448 99.8035L39.3794 96.9719C40.1556 97.607 40.9054 98.0657 41.6288 98.348C42.3521 98.6303 43.1195 98.7714 43.9311 98.7714C44.5838 98.7714 45.1484 98.6656 45.6247 98.4539C46.1011 98.2245 46.4715 97.907 46.7362 97.5012C47.0185 97.0954 47.1596 96.6279 47.1596 96.0986C47.1596 95.3224 46.8332 94.6784 46.1804 94.1668C45.5453 93.6552 44.7338 93.3994 43.7458 93.3994C43.2518 93.3994 42.7579 93.4788 42.2639 93.6376C41.7699 93.7787 41.2583 93.9992 40.729 94.2991L37.7916 93.4258L38.2415 83.4757H50.3616V86.9423H41.8405L41.6552 90.9648C42.2903 90.6648 42.8902 90.4708 43.4547 90.3826C44.0193 90.2944 44.5662 90.2503 45.0955 90.2503C46.348 90.2503 47.4419 90.4884 48.3769 90.9648C49.3119 91.4235 50.0353 92.0762 50.5469 92.923C51.0761 93.7699 51.3408 94.7578 51.3408 95.8869C51.3408 97.1572 51.0232 98.2774 50.3881 99.2478C49.753 100.2 48.8621 100.95 47.7153 101.497C46.5686 102.026 45.2366 102.291 43.7194 102.291Z" fill="#623C8F"/>
<path d="M62.4074 102.291C60.7314 102.291 59.2583 101.894 57.988 101.1C56.7354 100.306 55.7563 99.1948 55.0506 97.7658C54.3626 96.3192 54.0185 94.6432 54.0185 92.7378C54.0185 90.8148 54.3626 89.1388 55.0506 87.7098C55.7563 86.2808 56.7354 85.1693 57.988 84.3754C59.2583 83.5815 60.7314 83.1846 62.4074 83.1846C64.0834 83.1846 65.5477 83.5815 66.8003 84.3754C68.0705 85.1693 69.0497 86.2808 69.7377 87.7098C70.4434 89.1388 70.7962 90.8148 70.7962 92.7378C70.7962 94.6432 70.4434 96.3192 69.7377 97.7658C69.0497 99.1948 68.0705 100.306 66.8003 101.1C65.5477 101.894 64.0834 102.291 62.4074 102.291ZM62.4074 98.5862C63.2719 98.5862 64.0128 98.3568 64.6303 97.8981C65.2654 97.4218 65.7506 96.7426 66.0858 95.8605C66.4386 94.9784 66.6151 93.9375 66.6151 92.7378C66.6151 91.5205 66.4386 90.4796 66.0858 89.6151C65.7506 88.733 65.2654 88.0626 64.6303 87.6039C64.0128 87.1276 63.2719 86.8894 62.4074 86.8894C61.5429 86.8894 60.7931 87.1276 60.158 87.6039C59.5405 88.0626 59.0554 88.733 58.7025 89.6151C58.3673 90.4796 58.1997 91.5205 58.1997 92.7378C58.1997 93.9375 58.3673 94.9784 58.7025 95.8605C59.0554 96.7426 59.5405 97.4218 60.158 97.8981C60.7931 98.3568 61.5429 98.5862 62.4074 98.5862Z" fill="#623C8F"/>
<path d="M208.151 109.557C204.332 111.178 199.873 111.956 195.488 111.53C200.945 114.293 206.107 115.386 210.65 115.164C215.589 114.924 219.569 113.511 222.631 110.621C225.59 107.829 228.035 103.804 228.48 99.3781C229.014 94.0711 226.891 89.0656 223.71 84.8414C221.972 82.5336 219.467 79.4426 217.634 76.8916C215.277 73.6104 214.185 71.2911 212.921 66.9544C211.569 62.3156 213.148 51.6795 216.101 40.4362C209.514 49.7488 207.307 62.2117 207.811 67.4655C208.275 72.3041 209.881 76.4197 211.615 80.5258C212.756 83.2272 214.034 85.9795 215.136 88.3052C216.512 91.2117 217.656 94.4256 217.634 97.7882C217.617 100.48 217.037 102.548 215.136 104.716C213.269 106.843 211.143 108.288 208.151 109.557Z" fill="#00E28D"/>
<path d="M145.407 123.414C143.086 127.306 135.437 135.394 127.469 132.138C119.502 128.882 129.497 119.972 132.988 115.454C134.712 113.224 139.795 101.201 146.372 105.53C152.949 109.859 147.727 119.522 145.407 123.414Z" fill="#00E28D"/>
<path d="M196.511 109.997C203.792 83.7944 189.019 61.7153 185.214 59.7279C181.41 57.7405 179.066 53.7741 176.864 50.7206C175.943 49.444 171.753 41.8933 171.057 41.2141C172.467 40.8136 177.065 39.2775 180.635 36.9996C185.703 33.7662 193.317 26.0802 188.176 16.7455C181.75 5.07726 164.837 11.9764 161.356 14.499C158.256 16.7456 156.114 18.9225 153.885 22.6493C152.579 20.8904 148.887 19.2882 145.926 19.4623C142.966 19.6365 141.364 20.4202 138.734 22.6493C137.254 22.0572 136.122 21.0123 131.559 21.6741C129.73 19.4623 126.595 16.136 118.027 13.6979C109.459 11.2597 98.87 15.1782 96.7628 22.0224C94.6555 28.8666 96.5976 36.612 111.592 41.854C111.029 42.6984 110.369 45.4899 114.003 46.5688C114.401 49.1241 118.887 48.8402 120.779 48.7027C121.022 50.3398 124.976 49.5735 125.899 49.5387C123.693 51.1405 123.041 52.6252 122.257 54.1452C117.873 54.5321 118.647 57.3996 120.877 58.2745C117.732 57.7104 118.428 63.4341 123.148 63.4341C124.04 66.4365 126.412 66.8755 127.177 67.6357C116.252 86.6561 122.82 109.997 135.862 116.868C148.904 123.74 155.669 121.454 169.197 121.864C156.379 137.139 175.222 134.883 182.087 129.928C188.953 124.973 195.276 114.437 196.511 109.997Z" fill="#00E28D"/>
<path d="M127.042 68.9229C126.807 67.8439 122.304 65.4044 122.116 63.0588C122.57 63.2766 123.22 63.3032 123.617 63.2464C124.086 66.3427 129.857 67.3748 127.042 68.9229Z" fill="#0B9561"/>
<path d="M122.304 54.5206C122.133 54.5206 121.442 54.4638 121.272 54.5206C121.694 51.565 124.167 50.6006 125.846 49.5387C124.565 49.9191 121.101 50.5437 120.779 48.7027C119 49.0673 113.435 48.8889 113.435 46.3985C119.114 47.6478 125.111 46.7112 128.881 43.7297C127.115 46.1086 123.563 47.0797 120.778 47.591C122.169 47.7112 125.19 47.0232 128.086 45.8307C124.622 47.9317 122.948 47.9503 121.84 48.3292C120.647 48.9973 123.088 49.6352 126.456 49.2775C126.761 50.6268 122.773 51.612 122.304 54.5206Z" fill="#0B9561"/>
<path d="M98.2952 21.5697C93.3445 31.2867 101.395 38.1143 110.869 41.7018C95.8745 36.4597 94.4464 28.8667 96.5537 22.0224C98.661 15.1782 107.84 10.6851 118.446 13.367C126.196 15.5722 128.882 18.8349 131.105 20.9341C131.34 21.1559 131.565 21.3683 131.785 21.5697C134.481 21.1787 136.592 21.3607 138.734 22.6493C141.364 20.4202 142.966 19.6365 145.926 19.4623C148.887 19.2882 151.832 20.5421 153.885 22.3011C156.114 18.5742 159.162 16.1416 160.973 14.708C165.484 11.1379 182.185 5.21665 188.611 16.8849C193.418 27.16 185.999 34.2712 180.931 37.5047C177.905 39.4355 173.822 40.493 171.842 41.0059C171.52 41.0892 171.254 41.1581 171.057 41.2141C174.363 44.4377 176.922 50.2343 180.931 54.2915C177.831 58.5757 172.757 63.1228 167.778 66.5012C163.097 69.6778 153.821 71.7493 150.123 71.7377C148.898 71.8016 143.462 71.3198 137.973 69.439C145.926 70.8464 152.109 70.7506 163.167 66.5012C171.696 62.6509 176.884 56.666 179.069 54.7082C174.424 48.7027 173.229 43.9568 170.604 41.7192C170.261 41.4814 169.301 41.0059 168.2 41.0059C171.057 40.3086 179.05 37.7485 183.456 33.6733C187.862 29.5981 191.084 24.3735 187.636 17.4944C184.188 10.6154 165.571 6.22671 153.885 23.2415C153.858 23.2205 153.826 23.1958 153.79 23.1679C152.295 22.0056 143.504 15.1726 136.191 27.9785C135.895 26.7594 136.644 24.3909 137.079 23.8685C137.026 23.8559 136.964 23.8404 136.895 23.8229C135.332 23.4295 129.769 22.0288 123.6 30.0161C123.6 30.0161 127.414 29.5111 130.183 30.6953C119.333 30.2948 115.464 34.2166 115.676 34.7879C115.765 35.0297 117.342 34.7511 118.944 34.5789C121.59 34.2945 125.525 34.6763 128.481 36.8343C118.395 32.5529 110.323 38.4118 115.111 37.4002C120.962 36.1638 129.135 38.2095 129.935 39.6022C129.732 39.8285 129.764 40.109 129.607 40.3528C121.444 36.975 112.155 40.212 111.686 41.8071C110.955 41.5749 110.423 38.8213 111.217 37.4002C102.273 33.4435 104.901 31.1307 107.334 30.4689C104.478 30.318 104.061 24.6696 106.062 22.6494C111.9 16.756 121.465 22.5739 125.518 26.2196C126.674 24.512 128.289 22.8197 130.339 22.0224C128.686 20.482 124.538 16.7866 118.445 15.126C111.449 13.2195 101.578 15.126 98.2952 21.5697Z" fill="#0B9561"/>
<path d="M169.489 39.3159C175.027 37.0693 186.619 26.9684 180.757 20.5421C173.338 12.4092 156.271 24.5999 155.627 29.1976C155.913 29.2167 156.221 29.232 156.546 29.2482C159.481 29.3945 163.905 29.6149 168.357 33.3773C165.536 32.5239 164.125 33.3773 164.125 34.5789C167.504 35.8502 169.489 39.3159 169.489 39.3159Z" fill="#0B9561"/>
<path d="M124.662 26.9685C124.662 26.9685 123.13 28.0309 122.241 30.0336C114.444 30.4317 111.81 35.5467 112.036 36.1987C112.199 36.6689 113.115 36.4599 114.004 36.1987C114.892 35.9375 116.024 35.4846 117.435 35.3279L114.579 35.624C113.812 35.7284 113.096 35.6414 113.325 35.1189C114.997 31.3049 120.866 30.5213 122.816 30.2426C122.732 29.6435 124.145 27.729 124.662 26.9685Z" fill="#B2FFE2"/>
<path d="M125.259 69.5797C132.584 73.2706 143.352 75.5521 157.207 71.6908C171.063 67.8294 180.054 57.0069 182.428 54.1778C199.101 72.5352 198.96 87.9227 198.96 105.468C177.836 101.323 148.763 102.888 123.523 109.221C120.005 92.661 119.761 84.2793 125.259 69.5797Z" fill="#5E4E72"/>
<path d="M123.86 80.6223C123.942 81.1292 124.669 82.6268 125.228 82.8359C125.057 80.8188 124.986 76.3167 128.145 75.7324C131.304 75.1481 135.352 76.2855 139.967 76.1922C143.659 76.1175 147.565 75.2798 149.056 74.8703C141.464 76.8542 130.594 73.8199 126.905 72.5663C124.518 73.2106 123.65 79.3205 123.86 80.6223Z" fill="#7E62A1"/>
<path d="M121.178 49.5009C117.519 49.8821 114.704 48.6167 113.241 47.7146C114.141 49.6885 117.049 50.6268 121.178 49.5009Z" fill="#B2FFE2"/>
<path d="M139.078 26.2899C141.216 22.7463 145.163 22.2653 147.535 21.0988C145.398 20.784 139.894 21.6044 139.078 26.2899Z" fill="#B2FFE2"/>
<path d="M156.401 22.8101C159.395 19.1549 169.369 13.5546 172.654 13.2832C167.814 12.2141 158.034 18.2217 156.401 22.8101Z" fill="#B2FFE2"/>
<path d="M101.185 33.2311C97.044 25.532 101.593 17.4246 112.287 16.1025C102.799 15.0526 93.6188 24.0933 101.185 33.2311Z" fill="#B2FFE2"/>
<path d="M126.48 28.1371C129.882 25.4735 132.196 25.3568 134.568 24.1903C132.431 23.8755 129.493 24.1903 126.48 28.1371Z" fill="#B2FFE2"/>
<path d="M120.608 58.1797C117.753 57.8982 118.792 62.7344 121.663 63.2394C139.568 66.3896 147.476 61.9748 153.97 59.0241C160.464 56.0734 162.954 51.2789 161.664 49.3134C160.375 47.3479 153.314 51.4252 147.215 53.0192C141.116 54.6132 135.37 54.9296 130.279 54.9899C125.189 55.0501 122.665 53.5876 120.608 54.3798C118.551 55.172 118.316 57.1007 120.608 58.1797Z" fill="#D7821E"/>
<path d="M127.396 48.9813C127.682 48.2151 128.824 48.0931 130.688 47.9886C133.178 48.0931 133.331 48.6713 133.387 49.1032C133.457 49.6431 131.959 50.8796 131.733 51.1408C131.506 51.402 130.862 52.6908 131.733 53.1784C131.384 53.3177 130.757 53.875 129.556 53.1784C128.354 52.4818 127.013 50.0088 127.396 48.9813Z" fill="#4B4B4B"/>
<path d="M127.845 49.2063C127.883 49.4367 128.376 49.5468 128.945 49.4523C129.514 49.3578 129.944 49.0944 129.906 48.8641C129.867 48.6337 129.375 48.5236 128.806 48.6181C128.237 48.7126 127.807 48.976 127.845 49.2063Z" fill="white"/>
<path d="M99.7413 54.0367C103.601 52.9743 116.902 50.9937 126.235 50.6794C126.275 50.678 126.307 50.7103 126.306 50.7501C126.306 50.7878 126.279 50.8182 126.241 50.819C120.655 50.9442 104.602 53.5248 99.9539 54.7467C99.678 54.8192 99.4259 54.5646 99.4987 54.2887C99.5311 54.1657 99.6187 54.0704 99.7413 54.0367Z" fill="#382F43"/>
<path d="M101.923 58.4355C104.523 57.2477 117.998 53.2738 126.398 51.9338C126.434 51.9282 126.465 51.956 126.464 51.992C126.464 52.0197 126.444 52.0431 126.417 52.0482C117.205 53.7515 105.688 58.0549 102.231 59.4352C101.981 59.535 101.713 59.3474 101.717 59.0782L101.721 58.7559C101.723 58.6179 101.797 58.4928 101.923 58.4355Z" fill="#382F43"/>
<path d="M166.888 45.7127C151.188 44.7317 139.799 48.29 134.497 49.3029C134.472 49.3077 134.453 49.3249 134.445 49.3486C134.426 49.4009 134.468 49.4544 134.522 49.4428C137.151 48.8808 145.988 47.2729 150.576 46.7702C155.029 46.2823 163.677 46.3751 166.83 46.6231C167.049 46.6403 167.236 46.4695 167.239 46.2495L167.241 46.0915C167.243 45.892 167.087 45.7251 166.888 45.7127Z" fill="#382F43"/>
<path d="M158.692 49.5152L158.543 50.0938C158.494 50.2862 158.304 50.4067 158.108 50.3703C150.683 48.9837 141.602 49.3093 134.277 51.1218C134.222 51.1353 134.176 51.0809 134.197 51.0289C134.205 51.0085 134.223 50.9934 134.244 50.9882C141.744 49.1609 150.626 48.4932 158.359 49.049C158.591 49.0657 158.75 49.2894 158.692 49.5152Z" fill="#382F43"/>
<path d="M153.126 54.6021C141.757 58.5904 129.997 60.1033 121.506 58.3206C128.121 60.8539 137.738 60.9008 153.126 54.6021Z" fill="#8F4E02"/>
<path d="M125.4 58.8834C128.449 59.118 129.951 59.118 133.891 58.8834C131.034 61.4724 131.307 65.9358 131.307 65.9358C129.526 66.8271 127.328 66.3408 126.119 65.268C125.202 62.9254 125.076 60.57 125.4 58.8834Z" fill="#F1F1F1"/>
<path d="M126.119 65.268C125.202 62.9254 125.17 60.8516 125.494 59.1651C125.561 60.8414 125.64 62.4532 126.528 64.7237C126.834 65.0662 127.491 65.3754 128.011 65.4161C127.92 64.5705 127.552 62.3581 128.028 60.7359C128.2 63.0028 128.143 63.732 128.634 65.7268C129 65.8836 130.096 65.6945 130.579 65.4248C130.525 63.2021 131.702 60.8835 133.015 59.5187C131.883 61.7012 131.119 63.8773 131.307 65.9358C129.526 66.8271 127.328 66.3408 126.119 65.268Z" fill="#8B8B8B"/>
<path d="M128.684 101.323C124.296 102.452 109.761 101.719 109.163 95.8778C108.566 90.0365 120.015 89.1401 125.665 88.3276C125.7 93.3382 126.144 96.7181 128.684 101.323Z" fill="#00E28D"/>
<path d="M120.196 38.5451C124.818 38.3762 128.942 39.2001 129.499 40.2949C131.456 44.1384 124.576 46.7285 120.196 47.0633C112.893 47.6215 111.076 45.5438 111.076 43.2876C111.076 41.0313 114.418 38.7563 120.196 38.5451Z" fill="white"/>
<path d="M138.768 36.4798C143.482 36.3182 151.562 37.4441 154.705 39.9775C149.545 44.4342 143.236 44.3074 138.768 44.6276C131.319 45.1616 129.466 43.1742 129.466 41.0161C129.466 38.8579 132.875 36.6818 138.768 36.4798Z" fill="white"/>
<path d="M126.635 43.818C127 47.1428 114.749 47.4136 114.425 44.4662C114.028 40.8543 126.168 39.5623 126.635 43.818Z" fill="url(#paint0_linear_1204_792)"/>
<path d="M146.47 41.7562C147.023 45.0638 131.343 45.8861 130.852 42.954C130.25 39.3608 145.761 37.5226 146.47 41.7562Z" fill="url(#paint1_linear_1204_792)"/>
<path d="M129.794 42.4172C130.264 46.3583 136.597 46.2169 138.896 46.0293C141.194 45.8417 148.654 44.9971 154.705 39.9775C148.138 43.5897 141.435 44.3395 138.474 44.7165C135.512 45.0935 131.116 44.4823 129.794 42.4172Z" fill="#0B9561"/>
<path d="M115.063 45.3967C115.072 45.8154 115.972 46.1361 117.074 46.1129C118.175 46.0898 119.061 45.7316 119.052 45.3129C119.043 44.8942 118.143 44.5735 117.042 44.5967C115.94 44.6198 115.055 44.978 115.063 45.3967Z" fill="white"/>
<path d="M118.872 44.6997C118.877 44.9251 119.362 45.0978 119.955 45.0853C120.547 45.0728 121.024 44.88 121.02 44.6546C121.015 44.4292 120.53 44.2566 119.937 44.2691C119.344 44.2815 118.868 44.4743 118.872 44.6997Z" fill="white"/>
<path d="M132.707 43.6562C132.715 44.0749 133.615 44.3956 134.717 44.3724C135.818 44.3493 136.704 43.9911 136.695 43.5724C136.686 43.1537 135.786 42.8331 134.685 42.8562C133.584 42.8793 132.698 43.2375 132.707 43.6562Z" fill="white"/>
<path d="M136.434 42.7634C136.438 42.9635 136.868 43.1167 137.394 43.1056C137.92 43.0946 138.343 42.9234 138.339 42.7234C138.335 42.5233 137.905 42.3701 137.379 42.3812C136.853 42.3923 136.429 42.5634 136.434 42.7634Z" fill="white"/>
<path d="M104.133 44.9033L95.9701 79.7406L138.65 68.9665L149.988 98.4782L168.357 65.6389L104.133 44.9033Z" fill="url(#paint2_linear_1204_792)"/>
<path fill-rule="evenodd" clip-rule="evenodd" d="M97.5732 77.3927L137.389 66.1552C138.471 65.8498 139.606 66.4275 139.996 67.4821L155.324 108.955C155.699 109.968 155.361 110.916 154.766 111.904C154.171 112.891 153.673 113.312 152.714 113.535L118.232 121.557C117.285 121.777 116.309 121.337 115.847 120.482L95.1847 82.2245C94.6155 81.1707 94.5364 80.805 95.1847 79.4823C95.833 78.1596 96.6527 77.6525 97.5732 77.3927Z" fill="#5E4E72"/>
<path d="M136.118 67.6884L96.9763 78.7359C95.4496 79.1668 94.7157 80.9015 95.4695 82.2972L115.824 119.985C116.355 120.967 117.477 121.473 118.565 121.22L152.452 113.337C153.904 112.999 154.731 111.464 154.214 110.065L139.115 69.2137C138.667 68.0014 137.362 67.3373 136.118 67.6884Z" fill="#433555"/>
<path d="M133.077 73.1114C133.414 74.035 133.057 75.014 132.279 75.2981C131.501 75.5821 130.598 75.0637 130.26 74.1401C129.923 73.2165 130.28 72.2375 131.058 71.9534C131.836 71.6694 132.739 72.1878 133.077 73.1114Z" fill="#2A1E3A"/>
<path d="M135.096 77.4533C135.433 78.3769 135.076 79.3559 134.298 79.64C133.52 79.924 132.616 79.4056 132.279 78.482C131.942 77.5584 132.299 76.5794 133.077 76.2953C133.854 76.0113 134.758 76.5297 135.096 77.4533Z" fill="#2A1E3A"/>
<path d="M130.692 76.61C131.029 77.5336 130.672 78.5126 129.894 78.7967C129.116 79.0807 128.212 78.5623 127.875 77.6387C127.538 76.7151 127.895 75.7361 128.673 75.452C129.45 75.168 130.354 75.6864 130.692 76.61Z" fill="#2A1E3A"/>
<path d="M166.703 98.822C161.253 100.368 143.196 100.685 142.453 94.451C141.71 88.2175 155.933 86.3842 162.951 85.0817C162.996 90.4651 163.547 94.0646 166.703 98.822Z" fill="#00E28D"/>
<path d="M129.419 40.8212C129.419 37.2558 135.453 33.8788 139.693 33.8788C147.335 33.3747 150.718 35.943 157.145 37.0492C151.656 37.3503 145.745 34.1531 139.036 35.2393C142.883 35.2053 150.812 36.0368 155.503 40.3997C147.059 37.1573 134.861 33.2682 129.419 40.8212Z" fill="#0B9561"/>
<path d="M129.875 35.7356C130.709 31.3787 139.105 29.8932 141.931 30.0424C144.259 30.1652 148.889 29.9131 154.853 33.7113C153.308 32.8197 149.302 31.4853 147.792 31.5264C141.428 30.8276 135.248 32.1003 129.875 35.7356Z" fill="#0B9561"/>
<path d="M131.142 34.4541C132.408 33.5348 135.288 32.3115 137.151 31.9389C134.682 31.9389 131.586 32.8689 131.142 34.4541Z" fill="#B2FFE2"/>
<path d="M124.114 40.2656C125.578 44.2098 123.967 48.5086 120.516 49.8673C117.065 51.2259 113.081 49.13 111.617 45.1859C110.154 41.2418 111.765 36.943 115.215 35.5843C118.666 34.2256 122.651 36.3215 124.114 40.2656Z" fill="white"/>
<path fill-rule="evenodd" clip-rule="evenodd" d="M126.45 38.5687C125.171 38.9993 124.235 40.1747 123.813 41.1504L122.898 40.7533C123.391 39.6138 124.5 38.1709 126.133 37.6214C127.823 37.0527 129.904 37.4926 132.187 39.8007L131.479 40.5042C129.373 38.3754 127.673 38.1574 126.45 38.5687Z" fill="#2B1448"/>
<path fill-rule="evenodd" clip-rule="evenodd" d="M126.156 39.3422C124.82 39.758 123.832 40.929 123.38 41.9061L122.435 41.4931C122.962 40.3519 124.134 38.9139 125.839 38.3833C127.603 37.8341 129.76 38.3067 132.1 40.6645L131.354 41.3632C129.196 39.1886 127.432 38.945 126.156 39.3422Z" fill="#5E4E72"/>
<path d="M144.662 37.7832C146.126 41.7274 144.515 46.0262 141.064 47.3849C137.613 48.7436 133.629 46.6477 132.165 42.7035C130.702 38.7594 132.313 34.4606 135.763 33.1019C139.214 31.7432 143.199 33.8391 144.662 37.7832Z" fill="white"/>
<path d="M135.987 35.4268C134.711 35.8021 134.079 37.757 134.017 38.5233C134.762 36.4226 137.501 35.3686 139.506 36.0369C138.755 35.3801 137.582 34.9577 135.987 35.4268Z" fill="url(#paint3_linear_1204_792)"/>
<path d="M115.486 37.8664C114.21 38.2417 113.094 40.0714 113.093 42.6985C113.938 38.2886 117.61 37.9488 119.614 38.6171C118.301 37.9133 117.081 37.3972 115.486 37.8664Z" fill="url(#paint4_linear_1204_792)"/>
<path d="M142.555 42.558C141.476 45.9358 139.796 45.849 138.614 45.9353C134.674 45.9353 133.078 40.1911 136.222 44.1529C135.107 40.7181 138.567 39.7435 141.382 43.3554C140.96 40.4001 143.212 39.1332 142.555 42.558Z" fill="url(#paint5_linear_1204_792)"/>
<path d="M122.031 44.9901C120.952 48.3679 119.272 48.281 118.09 48.3673C114.149 48.3673 112.765 43.1932 115.908 47.1551C113.844 43.8243 116.846 41.7132 120.881 45.9354C121.162 43.1205 122.687 41.5653 122.031 44.9901Z" fill="url(#paint6_linear_1204_792)"/>
<path d="M137.039 43.9241C136.795 44.2642 136.982 44.7869 137.458 45.0916C137.933 45.3962 138.516 45.3675 138.761 45.0273C139.005 44.6872 138.817 44.1645 138.342 43.8599C137.867 43.5552 137.283 43.584 137.039 43.9241Z" fill="white"/>
<path d="M116.711 46.496C116.714 46.9147 117.029 47.2353 117.414 47.2122C117.799 47.189 118.108 46.8309 118.105 46.4122C118.102 45.9935 117.788 45.6728 117.403 45.696C117.018 45.7191 116.708 46.0773 116.711 46.496Z" fill="white"/>
<path d="M138.851 43.7106C138.853 43.9107 139.003 44.0639 139.187 44.0528C139.371 44.0418 139.519 43.8706 139.517 43.6706C139.516 43.4705 139.366 43.3173 139.182 43.3284C138.998 43.3395 138.85 43.5106 138.851 43.7106Z" fill="white"/>
<path d="M118.773 45.4932C118.774 45.6932 118.924 45.8464 119.108 45.8354C119.292 45.8243 119.44 45.6532 119.439 45.4531C119.437 45.2531 119.287 45.0999 119.103 45.111C118.919 45.122 118.771 45.2931 118.773 45.4932Z" fill="white"/>
<path d="M118.916 47.1199C118.628 47.2559 118.434 47.4394 118.483 47.5298C118.532 47.6202 118.804 47.5833 119.092 47.4474C119.38 47.3114 119.573 47.1279 119.525 47.0375C119.476 46.9471 119.203 46.984 118.916 47.1199Z" fill="white"/>
<defs>
<linearGradient id="paint0_linear_1204_792" x1="131.254" y1="0.718506" x2="131.254" y2="167.189" gradientUnits="userSpaceOnUse">
<stop stop-color="#484848"/>
<stop offset="1" stop-color="#1C7553"/>
</linearGradient>
<linearGradient id="paint1_linear_1204_792" x1="131.254" y1="0.718506" x2="131.254" y2="167.189" gradientUnits="userSpaceOnUse">
<stop stop-color="#484848"/>
<stop offset="1" stop-color="#1C7553"/>
</linearGradient>
<linearGradient id="paint2_linear_1204_792" x1="68.8296" y1="226.285" x2="139.705" y2="21.5753" gradientUnits="userSpaceOnUse">
<stop offset="0.472067" stop-color="#76FF9C"/>
<stop offset="0.861938" stop-color="white" stop-opacity="0"/>
</linearGradient>
<linearGradient id="paint3_linear_1204_792" x1="149.183" y1="11.4703" x2="149.183" y2="146.467" gradientUnits="userSpaceOnUse">
<stop stop-color="#484848"/>
<stop offset="1" stop-color="#1C7553"/>
</linearGradient>
<linearGradient id="paint4_linear_1204_792" x1="138.794" y1="13.7739" x2="138.794" y2="102.538" gradientUnits="userSpaceOnUse">
<stop stop-color="#484848"/>
<stop offset="1" stop-color="#1C7553"/>
</linearGradient>
<linearGradient id="paint5_linear_1204_792" x1="158.827" y1="-35.8625" x2="158.827" y2="140.18" gradientUnits="userSpaceOnUse">
<stop stop-color="#484848"/>
<stop offset="1" stop-color="#1C7553"/>
</linearGradient>
<linearGradient id="paint6_linear_1204_792" x1="162.136" y1="-36.7333" x2="162.136" y2="140.064" gradientUnits="userSpaceOnUse">
<stop stop-color="#484848"/>
<stop offset="1" stop-color="#1C7553"/>
</linearGradient>
</defs>
</svg>
