<svg width="302" height="186" viewBox="0 0 302 186" fill="none" xmlns="http://www.w3.org/2000/svg">
<path fill-rule="evenodd" clip-rule="evenodd" d="M178.767 168.301C177.048 170.576 175.607 172.519 174.004 174.66C161.098 191.891 127.256 188.348 98.4177 166.746C69.5789 145.145 56.6632 113.665 69.5696 96.4348C71.1731 94.294 72.3884 92.6916 74.048 90.4559C75.7075 88.2202 77.33 86.0743 78.9335 83.9335C91.8399 66.7029 125.681 70.246 154.52 91.8474C183.359 113.449 196.274 144.928 183.368 162.159C181.764 164.3 180.487 166.025 178.767 168.301Z" fill="#402461"/>
<path d="M64.8672 114.729C64.2453 114.263 64.1188 113.381 64.5846 112.759L77.8106 95.102C78.2764 94.4801 79.1583 94.3535 79.7802 94.8194C80.4022 95.2853 80.5287 96.1671 80.0628 96.7891L66.8369 114.446C66.371 115.068 65.4892 115.195 64.8672 114.729Z" fill="#0B9561"/>
<path d="M65.9982 124.044C65.3763 123.578 65.2497 122.696 65.7156 122.074L78.9416 104.417C79.4074 103.795 80.2893 103.668 80.9112 104.134C81.5332 104.6 81.6597 105.482 81.1938 106.104L67.9679 123.761C67.502 124.383 66.6202 124.51 65.9982 124.044Z" fill="#0B9561"/>
<path d="M68.8344 128.733C68.3685 129.355 68.495 130.237 69.117 130.703C69.7389 131.169 70.6208 131.042 71.0867 130.421L84.3126 112.763C84.7785 112.141 84.6519 111.259 84.03 110.794C83.408 110.328 82.5262 110.454 82.0603 111.076L68.8344 128.733Z" fill="#0B9561"/>
<path d="M72.1485 137.478C71.5265 137.012 71.4 136.13 71.8659 135.508L85.0918 117.851C85.5577 117.229 86.4395 117.103 87.0615 117.569C87.6834 118.034 87.81 118.916 87.3441 119.538L74.1182 137.196C73.6523 137.817 72.7705 137.944 72.1485 137.478Z" fill="#0B9561"/>
<path d="M75.7627 141.129C75.2968 141.751 75.4234 142.633 76.0453 143.099C76.6673 143.565 77.5491 143.438 78.015 142.817L91.2409 125.159C91.7068 124.537 91.5803 123.656 90.9583 123.19C90.3364 122.724 89.4545 122.85 88.9886 123.472L75.7627 141.129Z" fill="#0B9561"/>
<path d="M80.1154 148.489C79.4934 148.024 79.3669 147.142 79.8328 146.52L93.0587 128.863C93.5246 128.241 94.4064 128.114 95.0284 128.58C95.6504 129.046 95.7769 129.928 95.311 130.55L82.0851 148.207C81.6192 148.829 80.7374 148.955 80.1154 148.489Z" fill="#0B9561"/>
<path d="M83.3837 152.603C82.9179 153.225 83.0444 154.107 83.6664 154.573C84.2883 155.038 85.1702 154.912 85.636 154.29L98.862 136.633C99.3278 136.011 99.2013 135.129 98.5793 134.663C97.9574 134.197 97.0755 134.324 96.6097 134.946L83.3837 152.603Z" fill="#0B9561"/>
<path d="M88.8598 158.462C88.2378 157.996 88.1113 157.114 88.5772 156.492L101.803 138.835C102.269 138.213 103.151 138.086 103.773 138.552C104.395 139.018 104.521 139.9 104.055 140.522L90.8294 158.179C90.3636 158.801 89.4817 158.928 88.8598 158.462Z" fill="#0B9561"/>
<path d="M93.7697 160.382C93.3038 161.004 93.4303 161.886 94.0523 162.352C94.6742 162.817 95.5561 162.691 96.0219 162.069L109.248 144.412C109.714 143.79 109.587 142.908 108.965 142.442C108.343 141.976 107.461 142.103 106.996 142.725L93.7697 160.382Z" fill="#0B9561"/>
<path d="M99.2463 166.242C98.6244 165.776 98.4978 164.894 98.9637 164.272L112.19 146.615C112.656 145.993 113.537 145.867 114.159 146.332C114.781 146.798 114.908 147.68 114.442 148.302L101.216 165.959C100.75 166.581 99.8683 166.708 99.2463 166.242Z" fill="#0B9561"/>
<path d="M104.041 168.076C103.575 168.698 103.702 169.58 104.324 170.045C104.946 170.511 105.828 170.385 106.293 169.763L119.519 152.106C119.985 151.484 119.859 150.602 119.237 150.136C118.615 149.67 117.733 149.797 117.267 150.419L104.041 168.076Z" fill="#0B9561"/>
<path d="M109.517 173.935C108.895 173.469 108.769 172.588 109.235 171.966L122.46 154.308C122.926 153.686 123.808 153.56 124.43 154.026C125.052 154.492 125.179 155.373 124.713 155.995L111.487 173.653C111.021 174.275 110.139 174.401 109.517 173.935Z" fill="#0B9561"/>
<path d="M114.427 175.856C113.961 176.478 114.088 177.36 114.71 177.826C115.332 178.292 116.214 178.165 116.68 177.543L129.906 159.886C130.371 159.264 130.245 158.382 129.623 157.916C129.001 157.45 128.119 157.577 127.653 158.199L114.427 175.856Z" fill="#0B9561"/>
<path d="M121.546 179.523C120.924 179.057 120.798 178.175 121.264 177.553L134.49 159.896C134.955 159.274 135.837 159.147 136.459 159.613C137.081 160.079 137.208 160.961 136.742 161.583L123.516 179.24C123.05 179.862 122.168 179.988 121.546 179.523Z" fill="#0B9561"/>
<path d="M127.581 179.942C127.115 180.564 127.241 181.446 127.863 181.912C128.485 182.378 129.367 182.251 129.833 181.629L143.059 163.972C143.525 163.35 143.398 162.468 142.776 162.002C142.154 161.537 141.272 161.663 140.807 162.285L127.581 179.942Z" fill="#0B9561"/>
<path d="M134.353 184.072C133.731 183.606 133.605 182.724 134.071 182.102L147.297 164.445C147.762 163.823 148.644 163.696 149.266 164.162C149.888 164.628 150.015 165.51 149.549 166.132L136.323 183.789C135.857 184.411 134.975 184.538 134.353 184.072Z" fill="#0B9561"/>
<path d="M141.684 182.761C141.218 183.383 141.345 184.265 141.967 184.73C142.589 185.196 143.471 185.07 143.937 184.448L157.163 166.791C157.628 166.169 157.502 165.287 156.88 164.821C156.258 164.355 155.376 164.482 154.91 165.104L141.684 182.761Z" fill="#0B9561"/>
<path d="M150.013 184.812C149.391 184.346 149.265 183.464 149.731 182.842L162.956 165.185C163.422 164.563 164.304 164.436 164.926 164.902C165.548 165.368 165.675 166.25 165.209 166.872L151.983 184.529C151.517 185.151 150.635 185.278 150.013 184.812Z" fill="#0B9561"/>
<path d="M158.641 181.769C158.175 182.391 158.301 183.273 158.923 183.739C159.545 184.205 160.427 184.078 160.893 183.456L174.119 165.799C174.585 165.177 174.458 164.295 173.836 163.829C173.214 163.363 172.333 163.49 171.867 164.112L158.641 181.769Z" fill="#0B9561"/>
<path d="M155.817 90.1166C184.021 111.242 196.009 142.887 182.594 160.797C169.178 178.707 135.439 176.101 107.236 154.975C79.0319 133.849 67.0436 102.205 80.459 84.2943C93.8745 66.3842 127.613 68.9908 155.817 90.1166Z" fill="url(#paint0_linear_1204_970)"/>
<path fill-rule="evenodd" clip-rule="evenodd" d="M108.025 62.7016C107.56 63.3166 107.171 63.8417 106.738 64.4203C103.249 69.077 94.1036 68.1194 86.3096 62.2814C78.5156 56.4435 75.025 47.9358 78.5131 43.279C78.9464 42.7005 79.2749 42.2674 79.7234 41.6632C80.1719 41.0589 80.6104 40.479 81.0438 39.9004C84.5319 35.2437 93.6778 36.2012 101.472 42.0392C109.266 47.8772 112.756 56.3849 109.268 61.0417C108.835 61.6202 108.49 62.0866 108.025 62.7016Z" fill="#402461"/>
<path d="M77.2422 48.2233C77.0741 48.0973 77.0399 47.859 77.1658 47.6909L80.7403 42.9189C80.8662 42.7508 81.1045 42.7166 81.2726 42.8425C81.4407 42.9684 81.4749 43.2067 81.349 43.3748L77.7745 48.1469C77.6486 48.315 77.4103 48.3492 77.2422 48.2233Z" fill="#0B9561"/>
<path d="M77.5479 50.7407C77.3798 50.6148 77.3456 50.3765 77.4715 50.2084L81.0459 45.4363C81.1718 45.2682 81.4102 45.234 81.5783 45.36C81.7463 45.4859 81.7805 45.7242 81.6546 45.8923L78.0802 50.6643C77.9543 50.8324 77.716 50.8666 77.5479 50.7407Z" fill="#0B9561"/>
<path d="M78.3144 52.0081C78.1884 52.1762 78.2227 52.4145 78.3907 52.5405C78.5588 52.6664 78.7972 52.6322 78.9231 52.4641L82.4975 47.692C82.6234 47.5239 82.5892 47.2856 82.4211 47.1597C82.253 47.0338 82.0147 47.068 81.8888 47.2361L78.3144 52.0081Z" fill="#0B9561"/>
<path d="M79.21 54.3715C79.0419 54.2456 79.0077 54.0072 79.1337 53.8391L82.7081 49.0671C82.834 48.899 83.0723 48.8648 83.2404 48.9907C83.4085 49.1166 83.4427 49.3549 83.3168 49.523L79.7424 54.2951C79.6165 54.4632 79.3781 54.4974 79.21 54.3715Z" fill="#0B9561"/>
<path d="M80.1868 55.3583C80.0609 55.5264 80.0951 55.7647 80.2632 55.8906C80.4313 56.0165 80.6696 55.9823 80.7955 55.8142L84.37 51.0422C84.4959 50.8741 84.4617 50.6358 84.2936 50.5099C84.1255 50.3839 83.8872 50.4181 83.7613 50.5862L80.1868 55.3583Z" fill="#0B9561"/>
<path d="M81.3632 57.3474C81.1951 57.2215 81.1609 56.9831 81.2868 56.8151L84.8612 52.043C84.9871 51.8749 85.2255 51.8407 85.3936 51.9666C85.5617 52.0925 85.5959 52.3309 85.4699 52.4989L81.8955 57.271C81.7696 57.4391 81.5313 57.4733 81.3632 57.3474Z" fill="#0B9561"/>
<path d="M82.2465 58.4591C82.1206 58.6272 82.1548 58.8655 82.3229 58.9914C82.4909 59.1173 82.7293 59.0831 82.8552 58.9151L86.4296 54.143C86.5555 53.9749 86.5213 53.7366 86.3532 53.6107C86.1852 53.4848 85.9468 53.519 85.8209 53.6871L82.2465 58.4591Z" fill="#0B9561"/>
<path d="M83.7264 60.0425C83.5583 59.9166 83.5241 59.6783 83.6501 59.5102L87.2245 54.7381C87.3504 54.5701 87.5887 54.5359 87.7568 54.6618C87.9249 54.7877 87.9591 55.026 87.8332 55.1941L84.2588 59.9661C84.1329 60.1342 83.8945 60.1684 83.7264 60.0425Z" fill="#0B9561"/>
<path d="M85.0534 60.5615C84.9275 60.7295 84.9617 60.9679 85.1298 61.0938C85.2978 61.2197 85.5362 61.1855 85.6621 61.0174L89.2365 56.2453C89.3624 56.0773 89.3282 55.8389 89.1601 55.713C88.9921 55.5871 88.7537 55.6213 88.6278 55.7894L85.0534 60.5615Z" fill="#0B9561"/>
<path d="M86.5335 62.1452C86.3654 62.0193 86.3312 61.781 86.4571 61.6129L90.0316 56.8408C90.1575 56.6727 90.3958 56.6385 90.5639 56.7644C90.732 56.8904 90.7662 57.1287 90.6403 57.2968L87.0658 62.0688C86.9399 62.2369 86.7016 62.2711 86.5335 62.1452Z" fill="#0B9561"/>
<path d="M87.8293 62.6408C87.7034 62.8089 87.7376 63.0472 87.9057 63.1731C88.0738 63.299 88.3122 63.2648 88.4381 63.0967L92.0125 58.3247C92.1384 58.1566 92.1042 57.9183 91.9361 57.7924C91.768 57.6665 91.5297 57.7007 91.4038 57.8688L87.8293 62.6408Z" fill="#0B9561"/>
<path d="M89.3093 64.2244C89.1412 64.0985 89.107 63.8601 89.2329 63.6921L92.8074 58.92C92.9333 58.7519 93.1716 58.7177 93.3397 58.8436C93.5078 58.9695 93.542 59.2079 93.4161 59.376L89.8416 64.148C89.7157 64.3161 89.4774 64.3503 89.3093 64.2244Z" fill="#0B9561"/>
<path d="M90.6363 64.7435C90.5104 64.9116 90.5446 65.1499 90.7127 65.2758C90.8808 65.4017 91.1191 65.3675 91.245 65.1994L94.8195 60.4274C94.9454 60.2593 94.9112 60.021 94.7431 59.8951C94.575 59.7691 94.3367 59.8033 94.2108 59.9714L90.6363 64.7435Z" fill="#0B9561"/>
<path d="M92.5603 65.7344C92.3922 65.6085 92.358 65.3702 92.4839 65.2021L96.0583 60.43C96.1842 60.262 96.4226 60.2278 96.5907 60.3537C96.7588 60.4796 96.793 60.7179 96.667 60.886L93.0926 65.658C92.9667 65.8261 92.7284 65.8603 92.5603 65.7344Z" fill="#0B9561"/>
<path d="M94.1911 65.8478C94.0652 66.0159 94.0994 66.2543 94.2675 66.3802C94.4356 66.5061 94.674 66.4719 94.7999 66.3038L98.3743 61.5317C98.5002 61.3637 98.466 61.1253 98.2979 60.9994C98.1298 60.8735 97.8915 60.9077 97.7656 61.0758L94.1911 65.8478Z" fill="#0B9561"/>
<path d="M96.0215 66.9639C95.8534 66.838 95.8192 66.5996 95.9451 66.4315L99.5196 61.6595C99.6455 61.4914 99.8838 61.4572 100.052 61.5831C100.22 61.709 100.254 61.9474 100.128 62.1154L96.5539 66.8875C96.428 67.0556 96.1896 67.0898 96.0215 66.9639Z" fill="#0B9561"/>
<path d="M98.0028 66.6096C97.8769 66.7777 97.9111 67.016 98.0792 67.1419C98.2473 67.2678 98.4856 67.2336 98.6115 67.0655L102.186 62.2935C102.312 62.1254 102.278 61.887 102.11 61.7611C101.942 61.6352 101.703 61.6694 101.577 61.8375L98.0028 66.6096Z" fill="#0B9561"/>
<path d="M100.254 67.1639C100.086 67.038 100.051 66.7997 100.177 66.6316L103.752 61.8595C103.878 61.6914 104.116 61.6572 104.284 61.7831C104.452 61.909 104.486 62.1474 104.361 62.3155L100.786 67.0875C100.66 67.2556 100.422 67.2898 100.254 67.1639Z" fill="#0B9561"/>
<path d="M102.585 66.3415C102.46 66.5096 102.494 66.748 102.662 66.8739C102.83 66.9998 103.068 66.9656 103.194 66.7975L106.769 62.0254C106.895 61.8573 106.86 61.619 106.692 61.4931C106.524 61.3672 106.286 61.4014 106.16 61.5695L102.585 66.3415Z" fill="#0B9561"/>
<path d="M101.822 41.5715C109.445 47.2809 112.685 55.8333 109.059 60.6737C105.433 65.5141 96.3151 64.8096 88.6927 59.1002C81.0704 53.3908 77.8304 44.8384 81.456 39.998C85.0817 35.1576 94.2 35.8621 101.822 41.5715Z" fill="url(#paint1_linear_1204_970)"/>
<path fill-rule="evenodd" clip-rule="evenodd" d="M43.6792 56.783C43.0373 57.6324 42.4997 58.3577 41.9012 59.1567C37.0838 65.5881 24.4524 64.2657 13.6882 56.2028C2.92389 48.14 -1.89696 36.39 2.92043 29.9586C3.51895 29.1595 3.97258 28.5614 4.59201 27.7269C5.21144 26.8924 5.81706 26.0915 6.41557 25.2924C11.233 18.861 23.8644 20.1835 34.6286 28.2463C45.3929 36.3092 50.2138 48.0591 45.3964 54.4905C44.7979 55.2896 44.321 55.9337 43.6792 56.783Z" fill="#402461"/>
<path d="M1.16544 36.787C0.933294 36.6131 0.886064 36.284 1.05995 36.0518L5.99662 29.4611C6.1705 29.229 6.49966 29.1818 6.73181 29.3557C6.96396 29.5295 7.01118 29.8587 6.8373 30.0908L1.90063 36.6815C1.72675 36.9137 1.39759 36.9609 1.16544 36.787Z" fill="#0B9561"/>
<path d="M1.58759 40.264C1.35545 40.0901 1.30822 39.761 1.4821 39.5288L6.41877 32.9382C6.59266 32.706 6.92181 32.6588 7.15396 32.8327C7.38611 33.0066 7.43334 33.3357 7.25945 33.5679L2.32279 40.1585C2.1489 40.3907 1.81974 40.4379 1.58759 40.264Z" fill="#0B9561"/>
<path d="M2.64606 42.0145C2.47217 42.2467 2.5194 42.5758 2.75155 42.7497C2.98369 42.9236 3.31285 42.8764 3.48674 42.6442L8.4234 36.0536C8.59729 35.8214 8.55006 35.4923 8.31791 35.3184C8.08576 35.1445 7.75661 35.1917 7.58272 35.4239L2.64606 42.0145Z" fill="#0B9561"/>
<path d="M3.88313 45.2779C3.65098 45.104 3.60375 44.7749 3.77764 44.5427L8.7143 37.9521C8.88819 37.7199 9.21735 37.6727 9.4495 37.8466C9.68164 38.0205 9.72887 38.3496 9.55499 38.5818L4.61832 45.1724C4.44443 45.4046 4.11528 45.4518 3.88313 45.2779Z" fill="#0B9561"/>
<path d="M5.23224 46.6414C5.05836 46.8735 5.10559 47.2027 5.33773 47.3765C5.56988 47.5504 5.89904 47.5032 6.07293 47.2711L11.0096 40.6804C11.1835 40.4482 11.1362 40.1191 10.9041 39.9452C10.672 39.7713 10.3428 39.8185 10.1689 40.0507L5.23224 46.6414Z" fill="#0B9561"/>
<path d="M6.85674 49.3882C6.62459 49.2143 6.57736 48.8851 6.75125 48.653L11.6879 42.0623C11.8618 41.8302 12.191 41.7829 12.4231 41.9568C12.6553 42.1307 12.7025 42.4599 12.5286 42.692L7.59193 49.2827C7.41804 49.5148 7.08889 49.5621 6.85674 49.3882Z" fill="#0B9561"/>
<path d="M8.07671 50.9236C7.90283 51.1557 7.95005 51.4849 8.1822 51.6588C8.41435 51.8327 8.74351 51.7854 8.9174 51.5533L13.8541 44.9626C14.0279 44.7305 13.9807 44.4013 13.7486 44.2274C13.5164 44.0535 13.1873 44.1008 13.0134 44.3329L8.07671 50.9236Z" fill="#0B9561"/>
<path d="M10.1207 53.1107C9.88852 52.9368 9.84129 52.6076 10.0152 52.3755L14.9518 45.7848C15.1257 45.5527 15.4549 45.5054 15.687 45.6793C15.9192 45.8532 15.9664 46.1824 15.7925 46.4145L10.8559 53.0052C10.682 53.2373 10.3528 53.2846 10.1207 53.1107Z" fill="#0B9561"/>
<path d="M11.9533 53.8274C11.7794 54.0595 11.8266 54.3887 12.0588 54.5626C12.2909 54.7365 12.6201 54.6892 12.794 54.4571L17.7306 47.8664C17.9045 47.6343 17.8573 47.3051 17.6252 47.1312C17.393 46.9573 17.0638 47.0046 16.89 47.2367L11.9533 53.8274Z" fill="#0B9561"/>
<path d="M13.9976 56.0145C13.7654 55.8406 13.7182 55.5114 13.8921 55.2793L18.8288 48.6886C19.0026 48.4565 19.3318 48.4092 19.564 48.5831C19.7961 48.757 19.8433 49.0862 19.6694 49.3183L14.7328 55.909C14.5589 56.1411 14.2297 56.1884 13.9976 56.0145Z" fill="#0B9561"/>
<path d="M15.7871 56.6988C15.6132 56.931 15.6604 57.2601 15.8925 57.434C16.1247 57.6079 16.4539 57.5607 16.6277 57.3285L21.5644 50.7379C21.7383 50.5057 21.6911 50.1766 21.4589 50.0027C21.2268 49.8288 20.8976 49.876 20.7237 50.1082L15.7871 56.6988Z" fill="#0B9561"/>
<path d="M17.831 58.8859C17.5989 58.712 17.5516 58.3829 17.7255 58.1507L22.6622 51.5601C22.8361 51.3279 23.1652 51.2807 23.3974 51.4546C23.6295 51.6285 23.6768 51.9576 23.5029 52.1898L18.5662 58.7804C18.3923 59.0126 18.0632 59.0598 17.831 58.8859Z" fill="#0B9561"/>
<path d="M19.664 59.6033C19.4901 59.8355 19.5373 60.1646 19.7695 60.3385C20.0016 60.5124 20.3308 60.4652 20.5047 60.233L25.4413 53.6424C25.6152 53.4102 25.568 53.081 25.3358 52.9072C25.1037 52.7333 24.7745 52.7805 24.6006 53.0126L19.664 59.6033Z" fill="#0B9561"/>
<path d="M22.3209 60.9717C22.0888 60.7978 22.0415 60.4687 22.2154 60.2365L27.1521 53.6459C27.326 53.4137 27.6551 53.3665 27.8873 53.5404C28.1194 53.7143 28.1667 54.0434 27.9928 54.2756L23.0561 60.8662C22.8822 61.0984 22.5531 61.1456 22.3209 60.9717Z" fill="#0B9561"/>
<path d="M24.5734 61.1281C24.3995 61.3602 24.4467 61.6894 24.6788 61.8632C24.911 62.0371 25.2401 61.9899 25.414 61.7578L30.3507 55.1671C30.5246 54.9349 30.4774 54.6058 30.2452 54.4319C30.0131 54.258 29.6839 54.3052 29.51 54.5374L24.5734 61.1281Z" fill="#0B9561"/>
<path d="M27.1015 62.6698C26.8693 62.4959 26.8221 62.1667 26.996 61.9346L31.9327 55.3439C32.1066 55.1118 32.4357 55.0646 32.6679 55.2384C32.9 55.4123 32.9472 55.7415 32.7734 55.9736L27.8367 62.5643C27.6628 62.7964 27.3336 62.8437 27.1015 62.6698Z" fill="#0B9561"/>
<path d="M29.8378 62.1801C29.6639 62.4122 29.7111 62.7414 29.9433 62.9153C30.1754 63.0891 30.5046 63.0419 30.6785 62.8098L35.6151 56.2191C35.789 55.9869 35.7418 55.6578 35.5096 55.4839C35.2775 55.31 34.9483 55.3572 34.7744 55.5894L29.8378 62.1801Z" fill="#0B9561"/>
<path d="M32.9465 62.9456C32.7144 62.7717 32.6672 62.4426 32.8411 62.2104L37.7777 55.6197C37.9516 55.3876 38.2808 55.3404 38.5129 55.5143C38.7451 55.6881 38.7923 56.0173 38.6184 56.2494L33.6817 62.8401C33.5079 63.0723 33.1787 63.1195 32.9465 62.9456Z" fill="#0B9561"/>
<path d="M36.167 61.8098C35.9931 62.042 36.0404 62.3711 36.2725 62.545C36.5047 62.7189 36.8338 62.6717 37.0077 62.4395L41.9444 55.8489C42.1183 55.6167 42.071 55.2876 41.8389 55.1137C41.6067 54.9398 41.2776 54.987 41.1037 55.2192L36.167 61.8098Z" fill="#0B9561"/>
<path d="M35.1129 27.6002C45.6401 35.4855 50.1149 47.2971 45.1075 53.9822C40.1001 60.6673 27.5068 59.6943 16.9795 51.809C6.45232 43.9237 1.9776 32.1121 6.98499 25.427C11.9924 18.7419 24.5857 19.7149 35.1129 27.6002Z" fill="url(#paint2_linear_1204_970)"/>
<path fill-rule="evenodd" clip-rule="evenodd" d="M75.4044 71.7656C75.1293 72.1296 74.8989 72.4405 74.6424 72.7829C72.5777 75.5394 67.1639 74.9726 62.5504 71.5169C57.9368 68.0612 55.8706 63.0252 57.9353 60.2687C58.1919 59.9262 58.3863 59.6699 58.6518 59.3122C58.9173 58.9546 59.1768 58.6113 59.4334 58.2688C61.4981 55.5123 66.9119 56.0791 71.5254 59.5348C76.1389 62.9906 78.2051 68.0265 76.1404 70.783C75.8839 71.1255 75.6795 71.4016 75.4044 71.7656Z" fill="#402461"/>
<path d="M57.1831 63.1952C57.0836 63.1207 57.0634 62.9796 57.1379 62.8801L59.2537 60.0554C59.3283 59.9559 59.4693 59.9356 59.5688 60.0102C59.6683 60.0847 59.6886 60.2258 59.6141 60.3253L57.4982 63.15C57.4237 63.2495 57.2826 63.2697 57.1831 63.1952Z" fill="#0B9561"/>
<path d="M57.364 64.6854C57.2646 64.6109 57.2443 64.4699 57.3188 64.3704L59.4347 61.5456C59.5092 61.4461 59.6503 61.4259 59.7498 61.5004C59.8493 61.5749 59.8695 61.716 59.795 61.8155L57.6791 64.6402C57.6046 64.7397 57.4635 64.76 57.364 64.6854Z" fill="#0B9561"/>
<path d="M57.8177 65.4357C57.7432 65.5352 57.7634 65.6763 57.8629 65.7508C57.9624 65.8253 58.1035 65.8051 58.178 65.7056L60.2939 62.8809C60.3684 62.7814 60.3481 62.6403 60.2486 62.5658C60.1491 62.4912 60.0081 62.5115 59.9335 62.611L57.8177 65.4357Z" fill="#0B9561"/>
<path d="M58.3479 66.8344C58.2484 66.7599 58.2282 66.6188 58.3027 66.5193L60.4185 63.6946C60.4931 63.5951 60.6341 63.5748 60.7336 63.6493C60.8331 63.7239 60.8534 63.8649 60.7788 63.9644L58.663 66.7892C58.5885 66.8887 58.4474 66.9089 58.3479 66.8344Z" fill="#0B9561"/>
<path d="M58.9261 67.4188C58.8516 67.5183 58.8718 67.6593 58.9713 67.7339C59.0708 67.8084 59.2119 67.7881 59.2864 67.6886L61.4023 64.8639C61.4768 64.7644 61.4566 64.6233 61.3571 64.5488C61.2576 64.4743 61.1165 64.4945 61.042 64.594L58.9261 67.4188Z" fill="#0B9561"/>
<path d="M59.6224 68.596C59.5229 68.5215 59.5026 68.3804 59.5772 68.2809L61.693 65.4562C61.7675 65.3567 61.9086 65.3365 62.0081 65.411C62.1076 65.4855 62.1279 65.6266 62.0533 65.7261L59.9375 68.5508C59.863 68.6503 59.7219 68.6706 59.6224 68.596Z" fill="#0B9561"/>
<path d="M60.1453 69.2541C60.0707 69.3536 60.091 69.4947 60.1905 69.5692C60.29 69.6437 60.431 69.6235 60.5056 69.524L62.6214 66.6992C62.6959 66.5998 62.6757 66.4587 62.5762 66.3841C62.4767 66.3096 62.3356 66.3299 62.2611 66.4294L60.1453 69.2541Z" fill="#0B9561"/>
<path d="M61.0213 70.1915C60.9218 70.117 60.9016 69.9759 60.9761 69.8764L63.0919 67.0516C63.1664 66.9521 63.3075 66.9319 63.407 67.0064C63.5065 67.081 63.5268 67.222 63.4522 67.3215L61.3364 70.1463C61.2619 70.2458 61.1208 70.266 61.0213 70.1915Z" fill="#0B9561"/>
<path d="M61.8068 70.4987C61.7322 70.5982 61.7525 70.7392 61.852 70.8138C61.9515 70.8883 62.0925 70.8681 62.1671 70.7686L64.2829 67.9438C64.3574 67.8443 64.3372 67.7032 64.2377 67.6287C64.1382 67.5542 63.9971 67.5744 63.9226 67.6739L61.8068 70.4987Z" fill="#0B9561"/>
<path d="M62.6829 71.4361C62.5834 71.3615 62.5632 71.2204 62.6377 71.1209L64.7536 68.2962C64.8281 68.1967 64.9692 68.1765 65.0687 68.251C65.1682 68.3255 65.1884 68.4666 65.1139 68.5661L62.998 71.3908C62.9235 71.4903 62.7824 71.5106 62.6829 71.4361Z" fill="#0B9561"/>
<path d="M63.4499 71.7294C63.3754 71.8289 63.3956 71.9699 63.4951 72.0445C63.5946 72.119 63.7357 72.0987 63.8102 71.9992L65.926 69.1745C66.0006 69.075 65.9803 68.9339 65.8808 68.8594C65.7813 68.7849 65.6403 68.8051 65.5657 68.9046L63.4499 71.7294Z" fill="#0B9561"/>
<path d="M64.3259 72.6667C64.2264 72.5922 64.2062 72.4511 64.2807 72.3516L66.3966 69.5269C66.4711 69.4274 66.6122 69.4072 66.7117 69.4817C66.8112 69.5562 66.8314 69.6973 66.7569 69.7968L64.641 72.6215C64.5665 72.721 64.4254 72.7413 64.3259 72.6667Z" fill="#0B9561"/>
<path d="M65.1115 72.9742C65.037 73.0737 65.0572 73.2148 65.1567 73.2893C65.2562 73.3638 65.3973 73.3436 65.4718 73.2441L67.5877 70.4194C67.6622 70.3199 67.642 70.1788 67.5425 70.1043C67.443 70.0297 67.3019 70.05 67.2274 70.1495L65.1115 72.9742Z" fill="#0B9561"/>
<path d="M66.2503 73.5607C66.1508 73.4862 66.1306 73.3451 66.2051 73.2456L68.3209 70.4209C68.3954 70.3214 68.5365 70.3011 68.636 70.3757C68.7355 70.4502 68.7558 70.5913 68.6812 70.6908L66.5654 73.5155C66.4909 73.615 66.3498 73.6352 66.2503 73.5607Z" fill="#0B9561"/>
<path d="M67.2157 73.6277C67.1411 73.7272 67.1614 73.8683 67.2609 73.9428C67.3604 74.0173 67.5015 73.9971 67.576 73.8976L69.6918 71.0729C69.7664 70.9734 69.7461 70.8323 69.6466 70.7578C69.5471 70.6832 69.406 70.7035 69.3315 70.803L67.2157 73.6277Z" fill="#0B9561"/>
<path d="M68.2992 74.2885C68.1997 74.214 68.1795 74.0729 68.254 73.9734L70.3699 71.1487C70.4444 71.0492 70.5855 71.0289 70.685 71.1034C70.7845 71.178 70.8047 71.319 70.7302 71.4185L68.6143 74.2433C68.5398 74.3428 68.3987 74.363 68.2992 74.2885Z" fill="#0B9561"/>
<path d="M69.472 74.0786C69.3975 74.1781 69.4177 74.3192 69.5172 74.3937C69.6167 74.4682 69.7578 74.448 69.8323 74.3485L71.9481 71.5237C72.0227 71.4242 72.0024 71.2832 71.9029 71.2086C71.8034 71.1341 71.6624 71.1544 71.5878 71.2539L69.472 74.0786Z" fill="#0B9561"/>
<path d="M70.8044 74.4067C70.7049 74.3322 70.6847 74.1911 70.7592 74.0916L72.875 71.2669C72.9496 71.1674 73.0906 71.1471 73.1901 71.2216C73.2896 71.2962 73.3099 71.4373 73.2353 71.5368L71.1195 74.3615C71.045 74.461 70.9039 74.4812 70.8044 74.4067Z" fill="#0B9561"/>
<path d="M72.1847 73.9199C72.1102 74.0194 72.1304 74.1605 72.2299 74.235C72.3294 74.3095 72.4705 74.2893 72.545 74.1898L74.6608 71.3651C74.7354 71.2656 74.7151 71.1245 74.6156 71.05C74.5161 70.9754 74.375 70.9957 74.3005 71.0952L72.1847 73.9199Z" fill="#0B9561"/>
<path d="M71.7329 59.2578C76.2448 62.6374 78.1627 67.6998 76.0165 70.565C73.8704 73.4302 68.4729 73.0132 63.961 69.6336C59.4491 66.254 57.5312 61.1916 59.6774 58.3263C61.8235 55.4611 67.221 55.8781 71.7329 59.2578Z" fill="url(#paint3_linear_1204_970)"/>
<path fill-rule="evenodd" clip-rule="evenodd" d="M297.458 87.4727C296.806 88.3354 296.26 89.0721 295.652 89.8837C290.759 96.4164 277.929 95.0731 266.995 86.8833C256.061 78.6936 251.165 66.7587 256.058 60.226C256.666 59.4144 257.126 58.8068 257.756 57.9592C258.385 57.1116 259 56.298 259.608 55.4864C264.501 48.9537 277.331 50.297 288.265 58.4867C299.199 66.6765 304.096 78.6114 299.202 85.1441C298.594 85.9557 298.11 86.6099 297.458 87.4727Z" fill="#402461"/>
<path d="M254.275 67.1618C254.039 66.9852 253.991 66.6509 254.168 66.4151L259.182 59.7206C259.359 59.4848 259.693 59.4369 259.929 59.6135C260.165 59.7901 260.213 60.1245 260.036 60.3603L255.022 67.0547C254.845 67.2905 254.511 67.3384 254.275 67.1618Z" fill="#0B9561"/>
<path d="M254.704 70.6936C254.468 70.5169 254.42 70.1826 254.597 69.9468L259.611 63.2524C259.788 63.0166 260.122 62.9686 260.358 63.1452C260.594 63.3219 260.642 63.6562 260.465 63.892L255.451 70.5864C255.274 70.8222 254.94 70.8702 254.704 70.6936Z" fill="#0B9561"/>
<path d="M255.779 72.4716C255.603 72.7075 255.651 73.0418 255.886 73.2184C256.122 73.395 256.456 73.3471 256.633 73.1113L261.647 66.4168C261.824 66.181 261.776 65.8467 261.54 65.6701C261.305 65.4935 260.97 65.5414 260.794 65.7772L255.779 72.4716Z" fill="#0B9561"/>
<path d="M257.036 75.7864C256.8 75.6098 256.752 75.2754 256.929 75.0396L261.943 68.3452C262.12 68.1094 262.454 68.0615 262.69 68.2381C262.926 68.4147 262.973 68.749 262.797 68.9848L257.783 75.6793C257.606 75.9151 257.272 75.963 257.036 75.7864Z" fill="#0B9561"/>
<path d="M258.406 77.1713C258.229 77.4071 258.277 77.7414 258.513 77.9181C258.749 78.0947 259.083 78.0467 259.26 77.8109L264.274 71.1165C264.451 70.8807 264.403 70.5464 264.167 70.3697C263.931 70.1931 263.597 70.2411 263.42 70.4769L258.406 77.1713Z" fill="#0B9561"/>
<path d="M260.056 79.9614C259.82 79.7847 259.772 79.4504 259.949 79.2146L264.963 72.5202C265.14 72.2844 265.474 72.2364 265.71 72.413C265.946 72.5896 265.994 72.924 265.817 73.1598L260.803 79.8542C260.626 80.09 260.292 80.138 260.056 79.9614Z" fill="#0B9561"/>
<path d="M261.295 81.5209C261.119 81.7567 261.167 82.0911 261.402 82.2677C261.638 82.4443 261.973 82.3963 262.149 82.1605L267.164 75.4661C267.34 75.2303 267.292 74.896 267.056 74.7194C266.821 74.5427 266.486 74.5907 266.31 74.8265L261.295 81.5209Z" fill="#0B9561"/>
<path d="M263.371 83.7424C263.136 83.5658 263.088 83.2315 263.264 82.9957L268.279 76.3013C268.455 76.0655 268.79 76.0175 269.025 76.1941C269.261 76.3707 269.309 76.7051 269.133 76.9409L264.118 83.6353C263.942 83.8711 263.607 83.9191 263.371 83.7424Z" fill="#0B9561"/>
<path d="M265.233 84.4704C265.056 84.7062 265.104 85.0406 265.34 85.2172C265.576 85.3938 265.91 85.3459 266.087 85.1101L271.101 78.4156C271.278 78.1798 271.23 77.8455 270.994 77.6689C270.758 77.4923 270.424 77.5402 270.247 77.776L265.233 84.4704Z" fill="#0B9561"/>
<path d="M267.309 86.692C267.074 86.5153 267.026 86.181 267.202 85.9452L272.217 79.2508C272.393 79.015 272.728 78.967 272.963 79.1436C273.199 79.3203 273.247 79.6546 273.071 79.8904L268.056 86.5848C267.88 86.8206 267.545 86.8686 267.309 86.692Z" fill="#0B9561"/>
<path d="M269.127 87.3871C268.95 87.6229 268.998 87.9572 269.234 88.1339C269.47 88.3105 269.804 88.2625 269.981 88.0267L274.995 81.3323C275.172 81.0965 275.124 80.7622 274.888 80.5855C274.652 80.4089 274.318 80.4569 274.141 80.6927L269.127 87.3871Z" fill="#0B9561"/>
<path d="M271.203 89.6086C270.967 89.432 270.919 89.0977 271.096 88.8619L276.11 82.1674C276.287 81.9316 276.621 81.8837 276.857 82.0603C277.093 82.2369 277.141 82.5713 276.964 82.8071L271.95 89.5015C271.773 89.7373 271.439 89.7852 271.203 89.6086Z" fill="#0B9561"/>
<path d="M273.065 90.3373C272.888 90.5731 272.936 90.9074 273.172 91.0841C273.408 91.2607 273.742 91.2127 273.919 90.9769L278.933 84.2825C279.11 84.0467 279.062 83.7124 278.826 83.5357C278.59 83.3591 278.256 83.4071 278.079 83.6429L273.065 90.3373Z" fill="#0B9561"/>
<path d="M275.764 91.7273C275.528 91.5506 275.48 91.2163 275.657 90.9805L280.671 84.2861C280.848 84.0503 281.182 84.0023 281.418 84.1789C281.654 84.3556 281.702 84.6899 281.525 84.9257L276.511 91.6201C276.334 91.8559 276 91.9039 275.764 91.7273Z" fill="#0B9561"/>
<path d="M278.052 91.886C277.875 92.1218 277.923 92.4562 278.159 92.6328C278.395 92.8094 278.729 92.7615 278.906 92.5257L283.92 85.8312C284.097 85.5954 284.049 85.2611 283.813 85.0845C283.577 84.9078 283.243 84.9558 283.066 85.1916L278.052 91.886Z" fill="#0B9561"/>
<path d="M280.62 93.452C280.384 93.2754 280.336 92.9411 280.512 92.7053L285.527 86.0109C285.703 85.7751 286.038 85.7271 286.274 85.9037C286.509 86.0803 286.557 86.4147 286.381 86.6505L281.366 93.3449C281.19 93.5807 280.855 93.6287 280.62 93.452Z" fill="#0B9561"/>
<path d="M283.399 92.9546C283.222 93.1904 283.27 93.5248 283.506 93.7014C283.742 93.878 284.076 93.83 284.253 93.5942L289.267 86.8998C289.444 86.664 289.396 86.3297 289.16 86.153C288.924 85.9764 288.59 86.0244 288.413 86.2602L283.399 92.9546Z" fill="#0B9561"/>
<path d="M286.557 93.7322C286.321 93.5556 286.273 93.2212 286.45 92.9854L291.464 86.291C291.641 86.0552 291.975 86.0072 292.211 86.1839C292.446 86.3605 292.494 86.6948 292.318 86.9306L287.303 93.625C287.127 93.8608 286.792 93.9088 286.557 93.7322Z" fill="#0B9561"/>
<path d="M289.828 92.5786C289.651 92.8144 289.699 93.1487 289.935 93.3253C290.171 93.5019 290.505 93.454 290.682 93.2182L295.696 86.5238C295.873 86.2879 295.825 85.9536 295.589 85.777C295.353 85.6004 295.019 85.6483 294.842 85.8841L289.828 92.5786Z" fill="#0B9561"/>
<path d="M288.757 57.8304C299.45 65.8398 303.995 77.8374 298.909 84.6277C293.823 91.418 281.031 90.4297 270.338 82.4203C259.645 74.4109 255.1 62.4133 260.186 55.623C265.273 48.8327 278.064 49.8209 288.757 57.8304Z" fill="url(#paint4_linear_1204_970)"/>
<path d="M152.029 101.87C155.719 103.098 161.72 102.597 165.785 101.87C160.893 104.86 154.376 107.163 150.114 107.297C145.482 107.442 141.657 106.419 138.58 103.949C135.606 101.562 133.02 97.9839 132.273 93.882C131.377 88.9634 132.986 84.1277 135.641 79.9428C137.092 77.6565 139.201 74.5808 140.723 72.0601C142.68 68.8179 143.526 66.5692 144.382 62.4226C145.298 57.9873 143.026 48.1679 139.426 37.8841C146.277 46.0919 149.273 57.571 149.195 62.5175C149.124 67.0731 147.931 71.0387 146.619 75.005C145.755 77.6143 144.767 80.2816 143.912 82.5371C142.843 85.3558 142.016 88.4442 142.287 91.5843C142.505 94.0985 143.202 95.9872 145.141 97.8699C147.044 99.7177 149.139 100.908 152.029 101.87Z" fill="#00E28D"/>
<path d="M151.424 103.938C155.313 103.915 161.158 102.205 164.774 100.21C161.103 104.614 155.347 108.196 151.355 109.692C147.015 111.318 143.065 111.58 139.356 110.23C135.774 108.925 132.175 106.368 130.149 102.724C127.719 98.355 127.688 93.2588 128.857 88.4423C129.496 85.811 130.505 82.2205 131.135 79.3446C131.946 75.6453 132.025 73.2439 131.503 69.0422C130.944 64.5479 125.636 55.9799 118.921 47.3994C128.047 52.9691 134.574 62.876 136.091 67.5848C137.488 71.9216 137.633 76.0602 137.665 80.2379C137.686 82.9863 137.607 85.8297 137.523 88.2404C137.417 91.2529 137.626 94.4434 138.893 97.3296C139.907 99.6404 141.174 101.205 143.615 102.364C146.011 103.502 148.378 103.956 151.424 103.938Z" fill="#00E28D"/>
<path d="M152.862 102.41C156.723 102.876 160.94 102.417 164.779 100.892C160.583 104.8 156.219 107.127 152.071 108.11C147.561 109.178 143.609 108.941 140.1 107.136C136.709 105.392 133.46 102.403 131.908 98.5331C130.046 93.8931 130.656 88.8334 132.421 84.202C133.386 81.6717 134.837 78.2365 135.824 75.4625C137.093 71.8944 137.473 69.5219 137.483 65.288C137.493 60.7591 133.304 51.5921 127.72 42.2359C136.075 48.9081 141.305 59.5565 142.218 64.4186C143.059 68.8965 142.683 73.0205 142.19 77.1691C141.865 79.8984 141.43 82.7095 141.043 85.0904C140.56 88.0657 140.367 91.2573 141.261 94.2797C141.977 96.6996 143.037 98.4109 145.313 99.868C147.547 101.298 149.838 102.046 152.862 102.41Z" fill="#00E28D"/>
<path d="M208.384 113.047C210.697 116.926 218.321 124.989 226.263 121.743C234.205 118.497 224.243 109.616 220.762 105.113C219.044 102.889 213.977 90.9055 207.422 95.2205C200.866 99.5356 206.071 109.167 208.384 113.047Z" fill="#00E28D"/>
<path d="M157.446 99.673C150.188 73.5556 164.913 51.548 168.706 49.567C172.498 47.586 174.834 43.6325 177.029 40.5888C177.947 39.3163 182.123 31.7901 182.817 31.1131C181.411 30.7139 176.829 29.1827 173.27 26.9122C168.218 23.6892 160.629 16.0281 165.753 6.72371C172.159 -4.90682 189.017 1.97004 192.486 4.4844C195.576 6.72373 197.711 8.89358 199.933 12.6084C201.235 10.8551 204.915 9.25811 207.866 9.43171C210.817 9.60531 212.414 10.3865 215.036 12.6084C216.511 12.0182 217.64 10.9767 222.188 11.6363C224.01 9.43171 227.135 6.11614 235.676 3.68588C244.216 1.25562 254.77 5.1614 256.871 11.9835C258.971 18.8056 257.756 26.3741 242.81 31.5992C243.082 32.6016 243.309 35.3751 239.686 36.4505C239.29 38.9975 234.819 38.7145 232.933 38.5775C232.69 40.2092 228.749 39.4454 227.829 39.4107C230.028 41.0073 230.678 42.4873 231.459 44.0024C235.829 44.388 235.057 47.2462 232.835 48.1183C235.97 47.556 235.275 53.2612 230.571 53.2612C229.682 56.2539 227.318 56.6915 226.555 57.4492C237.445 76.4081 230.898 99.673 217.898 106.522C204.899 113.372 198.155 111.093 184.671 111.503C197.448 126.728 178.666 124.479 171.822 119.54C164.979 114.601 158.676 104.099 157.446 99.673Z" fill="#00E28D"/>
<path d="M226.69 58.7323C226.923 57.6568 231.412 55.2252 231.6 52.8872C231.147 53.1043 230.499 53.1308 230.103 53.0742C229.636 56.1605 223.884 57.1892 226.69 58.7323Z" fill="#0B9561"/>
<path d="M231.412 44.3766C231.582 44.3766 232.271 44.32 232.441 44.3766C232.02 41.4306 229.555 40.4692 227.881 39.4108C229.158 39.79 232.612 40.4125 232.933 38.5775C234.705 38.9409 240.252 38.7632 240.252 36.2808C234.592 37.526 228.614 36.5925 224.857 33.6206C226.617 35.9919 230.158 36.9598 232.933 37.4694C231.547 37.5892 228.536 36.9034 225.649 35.7148C229.102 37.809 230.77 37.8276 231.875 38.2052C233.064 38.8711 230.631 39.507 227.274 39.1504C226.97 40.4954 230.945 41.4774 231.412 44.3766Z" fill="#0B9561"/>
<path d="M255.343 11.5323C260.278 21.2179 252.253 28.0232 242.81 31.5992C257.756 26.3741 259.18 18.8057 257.079 11.9836C254.979 5.1615 245.829 0.682894 235.258 3.35615C227.533 5.55423 224.856 8.80636 222.639 10.8988C222.405 11.1198 222.181 11.3316 221.962 11.5323C219.275 11.1426 217.171 11.3239 215.036 12.6084C212.414 10.3865 210.817 9.60531 207.866 9.43171C204.915 9.25811 201.98 10.5081 199.933 12.2614C197.711 8.54655 194.674 6.12174 192.868 4.6928C188.372 1.13423 171.725 -4.76782 165.32 6.86271C160.528 17.1045 167.923 24.1928 172.975 27.4157C175.991 29.3403 180.061 30.3944 182.035 30.9056C182.356 30.9887 182.621 31.0573 182.817 31.1131C179.522 34.3263 176.971 40.1042 172.975 44.1483C176.065 48.4186 181.123 52.9509 186.086 56.3185C190.752 59.4848 199.997 61.5496 203.683 61.538C204.904 61.6017 210.323 61.1215 215.794 59.2467C207.866 60.6496 201.704 60.5541 190.681 56.3185C182.18 52.4806 177.008 46.515 174.831 44.5636C179.461 38.5776 180.652 33.847 183.269 31.6166C183.61 31.3796 184.567 30.9056 185.664 30.9056C182.817 30.2105 174.85 27.6588 170.458 23.5968C166.066 19.5348 162.855 14.3271 166.292 7.47025C169.729 0.613447 188.286 -3.76102 199.933 13.1987C199.961 13.1778 199.992 13.1532 200.028 13.1253C201.519 11.9668 210.281 5.15591 217.57 17.9204C217.865 16.7053 217.119 14.3444 216.685 13.8237C216.738 13.8111 216.799 13.7957 216.868 13.7783C218.426 13.3861 223.971 11.99 230.121 19.9514C230.121 19.9514 226.319 19.448 223.559 20.6284C234.374 20.2291 238.23 24.1383 238.019 24.7078C237.93 24.9487 236.359 24.6711 234.762 24.4994C232.124 24.2159 228.509 23.3017 225.173 24.7078C233.743 23.8287 243.207 28.424 238.436 27.4157C232.603 26.1833 230.209 26.3192 224.039 28.187C224.242 28.4126 224.166 28.5665 224.322 28.8096C233.613 25.8238 239.798 28.2314 241.529 29.8284C242.258 29.5969 243.255 28.7281 242.463 27.3116C251.379 23.3677 248.758 21.0624 246.334 20.4027C249.181 20.2523 249.596 14.6222 247.601 12.6085C241.782 6.7342 232.248 12.5333 228.209 16.1672C227.057 14.4651 225.446 12.7783 223.403 11.9836C225.051 10.4482 229.185 6.76473 235.259 5.10944C242.232 3.2091 252.071 5.10944 255.343 11.5323Z" fill="#0B9561"/>
<path d="M184.38 29.2211C178.86 26.9818 167.305 16.9136 173.148 10.5081C180.543 2.40142 197.555 14.5527 198.198 19.1355C197.912 19.1546 197.605 19.1698 197.281 19.186C194.355 19.3318 189.946 19.5515 185.508 23.3017C188.32 22.4511 189.726 23.3017 189.726 24.4994C186.359 25.7667 184.38 29.2211 184.38 29.2211Z" fill="#0B9561"/>
<path d="M185.923 34.5729C185.961 30.807 189.121 30.7348 191.152 32.8949C189.226 32.0608 186.79 32.7533 185.923 34.5729Z" fill="#0B9561"/>
<path d="M224.461 29.1493C223.515 24.0962 213.851 22.923 211.7 22.9798C202.397 23.2254 201.121 26.3473 193.815 27.9607C198.682 28.3678 203.097 24.4514 211.417 24.4514C204.172 25.1574 202.14 27.3555 195.311 29.4323C203.122 28.5246 214.765 21.183 224.461 29.1493Z" fill="#0B9561"/>
<path d="M223.895 25.0454C222.398 19.8668 212.073 19.0093 208.669 19.5063C205.867 19.9154 200.236 20.1289 193.444 25.3925C195.214 24.1407 199.912 22.0774 201.743 21.9582C209.366 20.4 216.986 21.2482 223.895 25.0454Z" fill="#0B9561"/>
<path d="M229.062 16.9138C229.062 16.9138 230.589 17.9727 231.475 19.969C239.247 20.3658 241.872 25.4642 241.647 26.1141C241.485 26.5828 240.571 26.3745 239.686 26.1141C238.8 25.8537 237.672 25.4024 236.266 25.2461L239.113 25.5412C239.876 25.6454 240.591 25.5586 240.363 25.0378C238.696 21.2362 232.846 20.455 230.902 20.1773C230.985 19.5801 229.577 17.6718 229.062 16.9138Z" fill="#B2FFE2"/>
<path d="M228.466 59.3871C221.165 63.0661 210.432 65.3402 196.622 61.4914C182.811 57.6425 173.849 46.855 171.483 44.0351C154.864 62.3331 155.004 77.6708 155.004 95.1596C176.06 91.0278 205.039 92.5877 230.197 98.9005C233.704 82.3937 233.947 74.0392 228.466 59.3871Z" fill="#5E4E72"/>
<path d="M229.862 70.3942C229.78 70.8994 229.055 72.3922 228.498 72.6006C228.668 70.59 228.739 66.1025 225.59 65.5201C222.442 64.9377 218.407 66.0714 213.807 65.9784C210.126 65.904 206.233 65.069 204.746 64.6608C212.315 66.6382 223.15 63.6138 226.826 62.3642C229.205 63.0065 230.071 69.0966 229.862 70.3942Z" fill="#7E62A1"/>
<path d="M222.706 23.9987C221.168 22.8816 217.669 21.3951 215.404 20.9423C218.404 20.9423 222.166 22.0724 222.706 23.9987Z" fill="#B2FFE2"/>
<path d="M232.535 39.3733C236.182 39.7533 238.988 38.492 240.446 37.5928C239.549 39.5604 236.65 40.4956 232.535 39.3733Z" fill="#B2FFE2"/>
<path d="M214.693 16.2374C212.561 12.7052 208.627 12.2258 206.263 11.0631C208.393 10.7493 213.879 11.567 214.693 16.2374Z" fill="#B2FFE2"/>
<path d="M197.426 12.7685C194.441 9.12521 184.5 3.54299 181.225 3.27246C186.05 2.2068 195.798 8.195 197.426 12.7685Z" fill="#B2FFE2"/>
<path d="M252.463 23.156C256.59 15.4819 252.056 7.4007 241.397 6.08289C250.854 5.03643 260.005 14.0478 252.463 23.156Z" fill="#B2FFE2"/>
<path d="M227.25 18.0787C223.859 15.4237 221.553 15.3074 219.188 14.1447C221.318 13.8309 224.246 14.1447 227.25 18.0787Z" fill="#B2FFE2"/>
<path d="M233.103 48.0247C235.948 47.7441 234.913 52.5647 232.052 53.068C214.204 56.208 206.91 52.8876 199.849 48.8664C192.788 44.8451 186.779 36.3293 188.065 34.3702C189.35 32.411 200.877 41.4785 206.956 43.0674C213.035 44.6562 218.389 44.7851 223.463 44.8452C228.537 44.9052 231.053 43.4474 233.103 44.237C235.153 45.0267 235.387 46.9492 233.103 48.0247Z" fill="#D7821E"/>
<path d="M226.336 38.8553C226.052 38.0915 224.913 37.97 223.056 37.8658C220.573 37.97 220.421 38.5463 220.365 38.9768C220.296 39.5149 221.788 40.7474 222.014 41.0078C222.24 41.2682 222.882 42.5527 222.014 43.0388C222.361 43.1777 222.986 43.7331 224.184 43.0388C225.382 42.3444 226.718 39.8794 226.336 38.8553Z" fill="#4B4B4B"/>
<path d="M225.889 39.0794C225.851 39.309 225.36 39.4188 224.793 39.3246C224.226 39.2304 223.797 38.9679 223.835 38.7383C223.873 38.5086 224.364 38.3989 224.931 38.4931C225.498 38.5873 225.927 38.8498 225.889 39.0794Z" fill="white"/>
<path d="M253.902 43.8944C250.054 42.8355 236.797 40.8613 227.494 40.5479C227.454 40.5466 227.423 40.5787 227.423 40.6184C227.424 40.656 227.45 40.6863 227.488 40.6872C233.056 40.8119 249.057 43.3841 253.69 44.6021C253.965 44.6744 254.216 44.4206 254.144 44.1456C254.111 44.023 254.024 43.928 253.902 43.8944Z" fill="#382F43"/>
<path d="M251.728 48.2789C249.136 47.095 235.704 43.1339 227.331 41.7983C227.296 41.7927 227.265 41.8205 227.266 41.8563C227.266 41.8839 227.285 41.9073 227.312 41.9123C236.495 43.6101 247.975 47.8996 251.42 49.2754C251.669 49.3749 251.936 49.1879 251.933 48.9196L251.929 48.5983C251.927 48.4608 251.853 48.3361 251.728 48.2789Z" fill="#382F43"/>
<path d="M186.973 35.5973C202.622 34.6195 213.974 38.1663 219.259 39.176C219.283 39.1807 219.302 39.1978 219.311 39.2215C219.329 39.2737 219.288 39.327 219.234 39.3154C216.613 38.7552 207.805 37.1525 203.232 36.6515C198.793 36.1651 190.173 36.2575 187.031 36.5048C186.812 36.522 186.626 36.3517 186.623 36.1324L186.621 35.9749C186.618 35.7761 186.774 35.6097 186.973 35.5973Z" fill="#382F43"/>
<path d="M195.142 39.3876L195.29 39.9643C195.34 40.1561 195.529 40.2762 195.724 40.2398C203.125 38.8578 212.177 39.1823 219.478 40.9889C219.533 41.0024 219.579 40.9482 219.558 40.8963C219.549 40.876 219.532 40.861 219.511 40.8558C212.035 39.0344 203.182 38.3688 195.474 38.9229C195.242 38.9395 195.084 39.1624 195.142 39.3876Z" fill="#382F43"/>
<path d="M200.69 44.458C212.022 48.4334 223.744 49.9414 232.208 48.1645C224.305 53.3082 211.118 51.1104 200.69 44.458Z" fill="#F1F1F1"/>
<path d="M228.326 48.7252C225.287 48.959 223.79 48.959 219.862 48.7252C222.711 51.3057 222.438 55.7547 222.438 55.7547C224.214 56.6432 226.405 56.1584 227.61 55.0891C228.524 52.754 228.649 50.4063 228.326 48.7252Z" fill="#F1F1F1"/>
<path d="M227.61 55.0891C228.524 52.754 228.556 50.6869 228.233 49.0058C228.166 50.6767 228.087 52.2833 227.202 54.5464C226.897 54.8878 226.242 55.196 225.723 55.2366C225.814 54.3937 226.181 52.1885 225.707 50.5715C225.535 52.8311 225.592 53.5579 225.103 55.5463C224.738 55.7025 223.645 55.5141 223.164 55.2452C223.217 53.0297 222.044 50.7186 220.736 49.3583C221.864 51.5337 222.626 53.7029 222.438 55.7547C224.214 56.6432 226.405 56.1584 227.61 55.0891Z" fill="#8B8B8B"/>
<path d="M223.742 30.6724C224.328 36.3153 214.558 36.7403 210.726 35.9416C206.894 35.1429 203.168 33.9724 198.324 30.6723C202.582 32.3223 208.621 34.0254 210.726 34.2907C212.831 34.5561 221.56 35.3998 222.678 31.8956C220.336 30.6724 216.147 30.1411 213.257 29.9795C206.378 29.5949 199.986 30.4313 200.323 30.2987C200.87 30.0842 210.01 28.5425 212.672 28.5957C215.333 28.6489 220.868 29.1289 223.742 30.6724Z" fill="#0B9561"/>
<path d="M227.297 89.1205C231.297 90.5432 244.929 91.0836 245.978 85.681C247.028 80.2784 236.415 78.4771 231.21 77.2428C230.755 81.9173 230.056 85.0352 227.297 89.1205Z" fill="#00E28D"/>
<path fill-rule="evenodd" clip-rule="evenodd" d="M222.892 103.939C221.912 103.915 221.08 103.901 220.16 103.882C212.758 103.725 206.971 93.5549 207.233 81.1662C207.495 68.7775 213.708 58.8616 221.11 59.0183C222.03 59.0378 222.721 59.0566 223.679 59.0727C224.636 59.0888 225.561 59.1125 226.48 59.132C233.883 59.2887 239.67 69.4587 239.408 81.8474C239.146 94.236 232.933 104.152 225.531 103.995C224.611 103.976 223.873 103.964 222.892 103.939Z" fill="#00E28D"/>
<path d="M215.054 61.3679C215.06 61.1007 215.281 60.8887 215.548 60.8944L223.133 61.0549C223.4 61.0606 223.612 61.2818 223.607 61.549C223.601 61.8161 223.38 62.0281 223.113 62.0225L215.528 61.8619C215.26 61.8563 215.048 61.6351 215.054 61.3679Z" fill="#0B9561"/>
<path d="M212.677 63.5495C212.682 63.2823 212.904 63.0703 213.171 63.076L220.756 63.2365C221.023 63.2422 221.235 63.4634 221.23 63.7305C221.224 63.9977 221.003 64.2097 220.736 64.2041L213.15 64.0435C212.883 64.0378 212.671 63.8167 212.677 63.5495Z" fill="#0B9561"/>
<path d="M211.934 65.2816C211.667 65.2759 211.445 65.4879 211.44 65.7551C211.434 66.0223 211.646 66.2435 211.913 66.2491L219.499 66.4097C219.766 66.4154 219.987 66.2034 219.993 65.9362C219.998 65.669 219.786 65.4478 219.519 65.4422L211.934 65.2816Z" fill="#0B9561"/>
<path d="M210.153 67.9598C210.159 67.6926 210.38 67.4806 210.647 67.4862L218.232 67.6468C218.5 67.6525 218.712 67.8737 218.706 68.1408C218.7 68.408 218.479 68.62 218.212 68.6144L210.627 68.4538C210.359 68.4481 210.147 68.227 210.153 67.9598Z" fill="#0B9561"/>
<path d="M209.856 69.7015C209.589 69.6958 209.368 69.9078 209.362 70.175C209.357 70.4422 209.569 70.6634 209.836 70.669L217.421 70.8296C217.688 70.8353 217.909 70.6233 217.915 70.3561C217.921 70.0889 217.709 69.8677 217.442 69.8621L209.856 69.7015Z" fill="#0B9561"/>
<path d="M208.671 72.3927C208.676 72.1255 208.897 71.9135 209.165 71.9191L216.75 72.0797C217.017 72.0854 217.229 72.3065 217.223 72.5737C217.218 72.8409 216.997 73.0529 216.729 73.0473L209.144 72.8867C208.877 72.881 208.665 72.6598 208.671 72.3927Z" fill="#0B9561"/>
<path d="M208.175 74.13C207.908 74.1244 207.687 74.3364 207.681 74.6036C207.676 74.8708 207.888 75.0919 208.155 75.0976L215.74 75.2582C216.007 75.2638 216.229 75.0518 216.234 74.7846C216.24 74.5175 216.028 74.2963 215.761 74.2906L208.175 74.13Z" fill="#0B9561"/>
<path d="M207.634 76.8347C207.64 76.5675 207.861 76.3555 208.128 76.3611L215.713 76.5217C215.981 76.5274 216.193 76.7486 216.187 77.0157C216.181 77.2829 215.96 77.4949 215.693 77.4893L208.108 77.3287C207.84 77.323 207.628 77.1019 207.634 76.8347Z" fill="#0B9561"/>
<path d="M208.081 78.5918C207.814 78.5861 207.592 78.7981 207.587 79.0653C207.581 79.3325 207.793 79.5537 208.06 79.5593L215.646 79.7199C215.913 79.7256 216.134 79.5135 216.14 79.2464C216.145 78.9792 215.933 78.758 215.666 78.7523L208.081 78.5918Z" fill="#0B9561"/>
<path d="M207.54 81.2964C207.545 81.0292 207.766 80.8172 208.034 80.8229L215.619 80.9835C215.886 80.9891 216.098 81.2103 216.092 81.4775C216.087 81.7446 215.866 81.9567 215.598 81.951L208.013 81.7904C207.746 81.7848 207.534 81.5636 207.54 81.2964Z" fill="#0B9561"/>
<path d="M207.987 83.0045C207.72 82.9988 207.499 83.2108 207.493 83.478C207.488 83.7452 207.7 83.9664 207.967 83.972L215.552 84.1326C215.819 84.1382 216.041 83.9262 216.046 83.6591C216.052 83.3919 215.84 83.1707 215.573 83.165L207.987 83.0045Z" fill="#0B9561"/>
<path d="M207.446 85.7086C207.452 85.4414 207.673 85.2294 207.94 85.2351L215.525 85.3957C215.793 85.4013 216.005 85.6225 215.999 85.8897C215.993 86.1569 215.772 86.3689 215.505 86.3632L207.92 86.2026C207.652 86.197 207.44 85.9758 207.446 85.7086Z" fill="#0B9561"/>
<path d="M207.893 87.4662C207.626 87.4605 207.405 87.6725 207.399 87.9397C207.393 88.2069 207.605 88.4281 207.873 88.4337L215.458 88.5943C215.725 88.6 215.946 88.388 215.952 88.1208C215.957 87.8536 215.745 87.6324 215.478 87.6268L207.893 87.4662Z" fill="#0B9561"/>
<path d="M208.294 90.1905C208.299 89.9234 208.52 89.7113 208.788 89.717L216.373 89.8776C216.64 89.8832 216.852 90.1044 216.846 90.3716C216.841 90.6388 216.62 90.8508 216.352 90.8451L208.767 90.6846C208.5 90.6789 208.288 90.4577 208.294 90.1905Z" fill="#0B9561"/>
<path d="M209.385 91.9616C209.118 91.9559 208.897 92.1679 208.891 92.4351C208.885 92.7023 209.097 92.9235 209.365 92.9291L216.95 93.0897C217.217 93.0953 217.438 92.8833 217.444 92.6162C217.449 92.349 217.237 92.1278 216.97 92.1221L209.385 91.9616Z" fill="#0B9561"/>
<path d="M209.588 94.6821C209.593 94.4149 209.814 94.2029 210.082 94.2085L217.667 94.3691C217.934 94.3748 218.146 94.5959 218.14 94.8631C218.135 95.1303 217.914 95.3423 217.646 95.3367L210.061 95.1761C209.794 95.1704 209.582 94.9493 209.588 94.6821Z" fill="#0B9561"/>
<path d="M211.422 96.4685C211.155 96.4628 210.934 96.6748 210.928 96.942C210.923 97.2092 211.135 97.4304 211.402 97.436L218.987 97.5966C219.254 97.6023 219.475 97.3903 219.481 97.1231C219.487 96.8559 219.275 96.6347 219.008 96.6291L211.422 96.4685Z" fill="#0B9561"/>
<path d="M212.517 99.2077C212.523 98.9406 212.744 98.7286 213.011 98.7342L220.596 98.8948C220.864 98.9004 221.076 99.1216 221.07 99.3888C221.064 99.656 220.843 99.868 220.576 99.8623L212.991 99.7018C212.724 99.6961 212.512 99.4749 212.517 99.2077Z" fill="#0B9561"/>
<path d="M215.096 101.01C214.828 101.005 214.607 101.217 214.602 101.484C214.596 101.751 214.808 101.972 215.075 101.978L222.66 102.139C222.928 102.144 223.149 101.932 223.154 101.665C223.16 101.398 222.948 101.177 222.681 101.171L215.096 101.01Z" fill="#0B9561"/>
<path d="M240.152 81.8629C239.895 93.9788 233.45 103.669 225.756 103.506C218.062 103.343 212.033 93.389 212.29 81.2731C212.546 69.1572 218.991 59.4674 226.685 59.6303C234.379 59.7931 240.408 69.747 240.152 81.8629Z" fill="url(#paint5_linear_1204_970)"/>
<path d="M219.781 88.3557L224.323 92.6763C225.233 93.5418 226.652 93.5751 227.601 92.7532L232.373 88.6231C232.895 88.1714 233.201 87.5199 233.216 86.83L233.436 76.4346C233.45 75.7379 233.167 75.0682 232.656 74.5943L228.062 70.3326C227.152 69.4884 225.753 69.462 224.812 70.2712L220.092 74.3291C219.567 74.7808 219.258 75.4347 219.243 76.1275L219.023 86.5362C219.008 87.2223 219.283 87.8827 219.781 88.3557Z" fill="#00E28D"/>
<path d="M231.225 81.6413C231.134 85.9431 228.821 89.383 226.058 89.3245C223.295 89.2661 221.129 85.7313 221.221 81.4295C221.312 77.1276 223.625 73.6877 226.388 73.7462C229.151 73.8047 231.316 77.3394 231.225 81.6413Z" fill="white"/>
<path fill-rule="evenodd" clip-rule="evenodd" d="M224.616 79.0518C225.526 79.9165 226.943 79.9498 227.893 79.1287L232.682 74.9867L233.274 76.6882L227.629 81.5709C227.107 82.0225 226.801 82.6743 226.786 83.3645L226.582 93.0047L225.329 92.9782L225.533 83.3287C225.547 82.6424 225.272 81.9816 224.774 81.5087L219.391 76.3924L220.06 74.7215L224.616 79.0518Z" fill="#00E28D"/>
<path d="M192.072 87.0029C196.956 89.0865 213.708 91.522 215.138 85.8142C216.568 80.1063 203.561 76.7154 197.19 74.6721C196.51 79.6723 195.57 82.9537 192.072 87.0029Z" fill="#00E28D"/>
<path d="M243.288 34.0249C242.779 32.4335 238.473 31.3827 236.51 31.1898C234.546 30.997 229.869 30.6286 226.035 32.3588C228.513 32.366 237.777 31.6708 243.288 34.0249Z" fill="#0B9561"/>
<defs>
<linearGradient id="paint0_linear_1204_970" x1="313.65" y1="39.0035" x2="203.314" y2="339.084" gradientUnits="userSpaceOnUse">
<stop offset="0.0733165" stop-color="#765C97"/>
<stop offset="1" stop-color="#0B070F"/>
</linearGradient>
<linearGradient id="paint1_linear_1204_970" x1="313.65" y1="39.0035" x2="203.314" y2="339.084" gradientUnits="userSpaceOnUse">
<stop offset="0.0733165" stop-color="#765C97"/>
<stop offset="1" stop-color="#0B070F"/>
</linearGradient>
<linearGradient id="paint2_linear_1204_970" x1="313.65" y1="39.0035" x2="203.314" y2="339.084" gradientUnits="userSpaceOnUse">
<stop offset="0.0733165" stop-color="#765C97"/>
<stop offset="1" stop-color="#0B070F"/>
</linearGradient>
<linearGradient id="paint3_linear_1204_970" x1="313.65" y1="39.0035" x2="203.314" y2="339.084" gradientUnits="userSpaceOnUse">
<stop offset="0.0733165" stop-color="#765C97"/>
<stop offset="1" stop-color="#0B070F"/>
</linearGradient>
<linearGradient id="paint4_linear_1204_970" x1="313.65" y1="39.0035" x2="203.314" y2="339.084" gradientUnits="userSpaceOnUse">
<stop offset="0.0733165" stop-color="#765C97"/>
<stop offset="1" stop-color="#0B070F"/>
</linearGradient>
<linearGradient id="paint5_linear_1204_970" x1="313.65" y1="39.0035" x2="203.314" y2="339.084" gradientUnits="userSpaceOnUse">
<stop offset="0.0733165" stop-color="#D9D9D9"/>
<stop offset="1" stop-color="#20FFAB"/>
</linearGradient>
</defs>
</svg>
