<svg width="317" height="211" viewBox="0 0 317 211" fill="none" xmlns="http://www.w3.org/2000/svg">
<g opacity="0.61">
<path fill-rule="evenodd" clip-rule="evenodd" d="M185.626 170.34C183.906 172.616 182.466 174.559 180.863 176.7C167.956 193.93 134.115 190.387 105.276 168.786C76.4374 147.184 63.5217 115.705 76.4281 98.4743C78.0316 96.3336 79.247 94.7312 80.9065 92.4955C82.566 90.2597 84.1886 88.1138 85.7921 85.9731C98.6985 68.7424 132.54 72.2856 161.378 93.8869C190.217 115.488 203.133 146.968 190.226 164.198C188.623 166.339 187.346 168.065 185.626 170.34Z" fill="#402461"/>
<path fill-rule="evenodd" clip-rule="evenodd" d="M85.7975 89.3283C84.7186 90.7641 83.6328 92.2093 82.5274 93.6984C81.4306 95.1761 80.5237 96.3826 79.5755 97.6441C79.0865 98.2946 78.5865 98.9598 78.0438 99.6844C72.1852 107.506 71.987 118.847 77.0653 131.225C82.1252 143.557 92.3083 156.55 106.486 167.17C120.665 177.79 135.996 183.909 149.254 185.297C162.56 186.69 173.388 183.311 179.247 175.489C179.78 174.778 180.296 174.086 180.812 173.395C181.841 172.016 182.868 170.641 184.015 169.123C185.15 167.621 186.089 166.364 187.06 165.063C187.558 164.396 188.065 163.717 188.611 162.988C194.469 155.167 194.668 143.825 189.589 131.448C184.529 119.115 174.346 106.122 160.168 95.5024C145.99 84.8825 130.658 78.7636 117.4 77.3755C104.094 75.9824 93.2663 79.3616 87.4077 87.1831C86.8717 87.8987 86.3355 88.6124 85.7975 89.3283ZM82.5795 86.8901C83.1156 86.1766 83.648 85.4681 84.1763 84.7626C91.2242 75.3535 103.77 71.8889 117.821 73.3601C131.92 74.8362 147.928 81.2896 162.589 92.271C177.249 103.252 187.943 116.8 193.324 129.915C198.687 142.986 198.89 155.999 191.842 165.408C191.304 166.127 190.801 166.801 190.304 167.466C189.329 168.773 188.378 170.047 187.236 171.557C186.096 173.067 185.081 174.425 184.056 175.798C183.539 176.491 183.019 177.188 182.478 177.91C175.43 187.319 162.885 190.783 148.834 189.312C134.735 187.836 118.727 181.383 104.066 170.401C89.4053 159.42 78.7111 145.872 73.3301 132.757C67.9674 119.687 67.7646 106.673 74.8124 97.2639C75.3636 96.5281 75.8672 95.8581 76.3575 95.2058C77.301 93.9506 78.1955 92.7607 79.2855 91.2921C80.3977 89.7938 81.4962 88.3317 82.5795 86.8901Z" fill="#2D1747"/>
<path fill-rule="evenodd" clip-rule="evenodd" d="M71.7258 116.768C71.1039 116.302 70.9773 115.42 71.4432 114.798L84.6692 97.141C85.1351 96.519 86.0169 96.3925 86.6389 96.8583C87.2608 97.3242 87.3873 98.2061 86.9215 98.828L73.6955 116.485C73.2296 117.107 72.3478 117.234 71.7258 116.768ZM72.8568 126.083C72.2349 125.617 72.1083 124.735 72.5742 124.113L85.8002 106.456C86.266 105.834 87.1479 105.707 87.7698 106.173C88.3918 106.639 88.5183 107.521 88.0525 108.143L74.8265 125.8C74.3606 126.422 73.4788 126.549 72.8568 126.083ZM75.6929 130.772C75.2271 131.394 75.3536 132.276 75.9755 132.742C76.5975 133.208 77.4794 133.081 77.9452 132.46L91.1712 114.802C91.6371 114.18 91.5105 113.298 90.8886 112.833C90.2666 112.367 89.3848 112.493 88.9189 113.115L75.6929 130.772ZM79.0071 139.517C78.3851 139.051 78.2586 138.169 78.7244 137.547L91.9504 119.89C92.4163 119.268 93.2981 119.142 93.9201 119.608C94.542 120.073 94.6686 120.955 94.2027 121.577L80.9767 139.235C80.5109 139.856 79.629 139.983 79.0071 139.517ZM82.6213 143.169C82.1554 143.79 82.2819 144.672 82.9039 145.138C83.5258 145.604 84.4077 145.478 84.8735 144.856L98.0995 127.198C98.5654 126.576 98.4389 125.694 97.8169 125.229C97.195 124.763 96.3131 124.889 95.8472 125.511L82.6213 143.169ZM86.9739 150.528C86.352 150.063 86.2255 149.181 86.6913 148.559L99.9173 130.901C100.383 130.28 101.265 130.153 101.887 130.619C102.509 131.085 102.635 131.967 102.17 132.589L88.9436 150.246C88.4778 150.868 87.5959 150.994 86.9739 150.528ZM90.2423 154.642C89.7764 155.264 89.9029 156.146 90.5249 156.612C91.1468 157.078 92.0287 156.951 92.4946 156.329L105.721 138.672C106.186 138.05 106.06 137.168 105.438 136.702C104.816 136.236 103.934 136.363 103.468 136.985L90.2423 154.642ZM95.7183 160.501C95.0964 160.035 94.9698 159.153 95.4357 158.531L108.662 140.874C109.128 140.252 110.009 140.125 110.631 140.591C111.253 141.057 111.38 141.939 110.914 142.561L97.688 160.218C97.2221 160.84 96.3403 160.967 95.7183 160.501ZM100.628 162.421C100.162 163.043 100.289 163.925 100.911 164.391C101.533 164.856 102.415 164.73 102.88 164.108L116.106 146.451C116.572 145.829 116.446 144.947 115.824 144.481C115.202 144.015 114.32 144.142 113.854 144.764L100.628 162.421ZM106.105 168.281C105.483 167.815 105.356 166.933 105.822 166.311L119.048 148.654C119.514 148.032 120.396 147.906 121.018 148.371C121.64 148.837 121.766 149.719 121.301 150.341L108.075 167.998C107.609 168.62 106.727 168.747 106.105 168.281ZM110.9 170.115C110.434 170.737 110.56 171.619 111.182 172.084C111.804 172.55 112.686 172.424 113.152 171.802L126.378 154.145C126.844 153.523 126.717 152.641 126.095 152.175C125.473 151.709 124.591 151.836 124.126 152.458L110.9 170.115ZM116.376 175.974C115.754 175.508 115.627 174.627 116.093 174.005L129.319 156.347C129.785 155.725 130.667 155.599 131.289 156.065C131.911 156.531 132.037 157.412 131.571 158.034L118.345 175.692C117.879 176.314 116.998 176.44 116.376 175.974ZM121.286 177.895C120.82 178.517 120.947 179.399 121.568 179.865C122.19 180.331 123.072 180.204 123.538 179.582L136.764 161.925C137.23 161.303 137.103 160.421 136.482 159.955C135.86 159.489 134.978 159.616 134.512 160.238L121.286 177.895ZM128.405 181.562C127.783 181.096 127.656 180.214 128.122 179.592L141.348 161.935C141.814 161.313 142.696 161.186 143.318 161.652C143.94 162.118 144.066 163 143.6 163.622L130.374 181.279C129.909 181.901 129.027 182.028 128.405 181.562ZM134.439 181.981C133.973 182.603 134.1 183.485 134.722 183.951C135.344 184.417 136.226 184.29 136.691 183.668L149.917 166.011C150.383 165.389 150.257 164.507 149.635 164.041C149.013 163.576 148.131 163.702 147.665 164.324L134.439 181.981ZM141.212 186.111C140.59 185.645 140.463 184.763 140.929 184.141L154.155 166.484C154.621 165.862 155.503 165.735 156.125 166.201C156.747 166.667 156.873 167.549 156.407 168.171L143.181 185.828C142.716 186.45 141.834 186.577 141.212 186.111ZM148.543 184.8C148.077 185.422 148.204 186.304 148.825 186.769C149.447 187.235 150.329 187.109 150.795 186.487L164.021 168.83C164.487 168.208 164.36 167.326 163.739 166.86C163.117 166.394 162.235 166.521 161.769 167.142L148.543 184.8ZM156.872 186.851C156.25 186.385 156.123 185.503 156.589 184.881L169.815 167.224C170.281 166.602 171.163 166.475 171.785 166.941C172.407 167.407 172.533 168.289 172.067 168.911L158.841 186.568C158.375 187.19 157.494 187.317 156.872 186.851ZM165.499 183.808C165.033 184.43 165.16 185.312 165.782 185.778C166.404 186.244 167.286 186.117 167.752 185.495L180.978 167.838C181.443 167.216 181.317 166.334 180.695 165.868C180.073 165.402 179.191 165.529 178.725 166.151L165.499 183.808Z" fill="#2D1747"/>
<path d="M162.676 92.1556C190.88 113.281 202.868 144.926 189.453 162.836C176.037 180.747 142.298 178.14 114.094 157.014C85.8905 135.888 73.9022 104.244 87.3176 86.3334C100.733 68.4232 134.472 71.0299 162.676 92.1556Z" fill="url(#paint0_linear_319_219)"/>
<path fill-rule="evenodd" clip-rule="evenodd" d="M187.761 130.183C183.237 118.242 173.734 105.663 160.169 95.5024C146.604 85.3417 131.86 79.7588 119.129 78.7752C106.338 77.787 96.2152 81.4297 90.6644 88.8403C85.1136 96.2509 84.4642 106.99 89.0091 118.987C93.5328 130.928 103.036 143.507 116.601 153.667C130.166 163.828 144.91 169.411 157.641 170.395C170.432 171.383 180.555 167.74 186.106 160.33C191.657 152.919 192.306 142.18 187.761 130.183ZM189.453 162.836C202.868 144.926 190.88 113.281 162.676 92.1556C134.472 71.0299 100.733 68.4232 87.3176 86.3334C73.9022 104.244 85.8905 135.888 114.094 157.014C142.298 178.14 176.037 180.747 189.453 162.836Z" fill="#2D1747"/>
</g>
<g opacity="0.61">
<path fill-rule="evenodd" clip-rule="evenodd" d="M114.883 64.7406C114.419 65.3556 114.029 65.8808 113.596 66.4593C110.108 71.1161 100.962 70.1585 93.1681 64.3205C85.3741 58.4825 81.8835 49.9748 85.3716 45.3181C85.805 44.7395 86.1334 44.3065 86.5819 43.7022C87.0304 43.098 87.4689 42.5181 87.9023 41.9395C91.3904 37.2827 100.536 38.2403 108.33 44.0783C116.124 49.9163 119.615 58.424 116.127 63.0807C115.693 63.6593 115.348 64.1256 114.883 64.7406Z" fill="#402461"/>
<path fill-rule="evenodd" clip-rule="evenodd" d="M87.9038 42.8461C87.6123 43.2342 87.3188 43.6247 87.0201 44.0272C86.7236 44.4266 86.4786 44.7526 86.2223 45.0936C86.0901 45.2694 85.955 45.4491 85.8083 45.645C84.225 47.7588 84.1714 50.8239 85.5439 54.169C86.9114 57.502 89.6635 61.0135 93.4952 63.8836C97.327 66.7538 101.471 68.4075 105.054 68.7826C108.65 69.1591 111.576 68.2459 113.159 66.132C113.303 65.9398 113.443 65.7528 113.583 65.566C113.861 65.1935 114.138 64.8219 114.448 64.4115C114.755 64.0056 115.009 63.6658 115.271 63.3141C115.406 63.1339 115.543 62.9505 115.69 62.7534C117.274 60.6396 117.327 57.5745 115.955 54.2294C114.587 50.8963 111.835 47.3849 108.003 44.5147C104.171 41.6446 100.028 39.9909 96.4448 39.6158C92.8488 39.2393 89.9224 40.1525 88.339 42.2664C88.1941 42.4598 88.0492 42.6526 87.9038 42.8461ZM87.0341 42.1872C87.179 41.9943 87.3229 41.8029 87.4657 41.6122C89.3705 39.0693 92.761 38.133 96.5585 38.5305C100.369 38.9295 104.695 40.6736 108.657 43.6414C112.62 46.6093 115.51 50.2707 116.964 53.8152C118.413 57.3476 118.468 60.8647 116.564 63.4076C116.418 63.6017 116.282 63.7839 116.148 63.9637C115.884 64.3169 115.627 64.6611 115.319 65.0693C115.01 65.4773 114.736 65.8445 114.459 66.2156C114.319 66.4029 114.179 66.5912 114.033 66.7862C112.128 69.3291 108.737 70.2654 104.94 69.8678C101.13 69.4689 96.8033 67.7248 92.8411 64.757C88.8789 61.7891 85.9887 58.1277 84.5344 54.5832C83.0851 51.0508 83.0303 47.5337 84.935 44.9908C85.084 44.7919 85.2201 44.6109 85.3526 44.4346C85.6076 44.0954 85.8493 43.7738 86.1439 43.3769C86.4445 42.9719 86.7414 42.5768 87.0341 42.1872Z" fill="#2D1747"/>
<path fill-rule="evenodd" clip-rule="evenodd" d="M84.1008 50.2619C83.9327 50.136 83.8985 49.8977 84.0244 49.7296L87.5989 44.9575C87.7248 44.7894 87.9631 44.7552 88.1312 44.8811C88.2993 45.007 88.3335 45.2454 88.2076 45.4135L84.6331 50.1855C84.5072 50.3536 84.2689 50.3878 84.1008 50.2619ZM84.4064 52.7794C84.2384 52.6535 84.2042 52.4151 84.3301 52.247L87.9045 47.475C88.0304 47.3069 88.2688 47.2727 88.4368 47.3986C88.6049 47.5245 88.6391 47.7628 88.5132 47.9309L84.9388 52.703C84.8129 52.8711 84.5745 52.9053 84.4064 52.7794ZM85.1729 54.0468C85.047 54.2149 85.0812 54.4532 85.2493 54.5791C85.4174 54.705 85.6557 54.6708 85.7816 54.5027L89.3561 49.7307C89.482 49.5626 89.4478 49.3242 89.2797 49.1983C89.1116 49.0724 88.8733 49.1066 88.7474 49.2747L85.1729 54.0468ZM86.0686 56.4101C85.9005 56.2842 85.8663 56.0459 85.9922 55.8778L89.5667 51.1057C89.6926 50.9377 89.9309 50.9035 90.099 51.0294C90.2671 51.1553 90.3013 51.3936 90.1754 51.5617L86.6009 56.3337C86.475 56.5018 86.2367 56.536 86.0686 56.4101ZM87.0454 57.3969C86.9195 57.565 86.9537 57.8034 87.1218 57.9293C87.2899 58.0552 87.5282 58.021 87.6541 57.8529L91.2286 53.0808C91.3545 52.9127 91.3203 52.6744 91.1522 52.5485C90.9841 52.4226 90.7458 52.4568 90.6198 52.6249L87.0454 57.3969ZM88.2217 59.386C88.0537 59.2601 88.0195 59.0218 88.1454 58.8537L91.7198 54.0817C91.8457 53.9136 92.0841 53.8794 92.2521 54.0053C92.4202 54.1312 92.4544 54.3695 92.3285 54.5376L88.7541 59.3097C88.6282 59.4778 88.3898 59.5119 88.2217 59.386ZM89.105 60.4978C88.9791 60.6659 89.0133 60.9042 89.1814 61.0301C89.3495 61.156 89.5878 61.1218 89.7137 60.9537L93.2882 56.1817C93.4141 56.0136 93.3799 55.7752 93.2118 55.6493C93.0437 55.5234 92.8054 55.5576 92.6795 55.7257L89.105 60.4978ZM90.585 62.0812C90.4169 61.9553 90.3827 61.717 90.5086 61.5489L94.0831 56.7768C94.209 56.6087 94.4473 56.5745 94.6154 56.7004C94.7835 56.8263 94.8177 57.0647 94.6918 57.2327L91.1173 62.0048C90.9914 62.1729 90.7531 62.2071 90.585 62.0812ZM91.9119 62.6001C91.786 62.7682 91.8202 63.0065 91.9883 63.1324C92.1564 63.2584 92.3947 63.2242 92.5207 63.0561L96.0951 58.284C96.221 58.1159 96.1868 57.8776 96.0187 57.7517C95.8506 57.6258 95.6123 57.66 95.4864 57.8281L91.9119 62.6001ZM93.3921 64.1839C93.224 64.058 93.1898 63.8196 93.3157 63.6515L96.8902 58.8795C97.0161 58.7114 97.2544 58.6772 97.4225 58.8031C97.5906 58.929 97.6248 59.1673 97.4989 59.3354L93.9244 64.1075C93.7985 64.2756 93.5602 64.3098 93.3921 64.1839ZM94.6879 64.6795C94.562 64.8476 94.5962 65.0859 94.7643 65.2118C94.9324 65.3377 95.1707 65.3035 95.2966 65.1354L98.8711 60.3633C98.997 60.1953 98.9628 59.9569 98.7947 59.831C98.6266 59.7051 98.3883 59.7393 98.2624 59.9074L94.6879 64.6795ZM96.1679 66.263C95.9998 66.1371 95.9656 65.8988 96.0915 65.7307L99.6659 60.9587C99.7919 60.7906 100.03 60.7564 100.198 60.8823C100.366 61.0082 100.401 61.2465 100.275 61.4146L96.7002 66.1867C96.5743 66.3548 96.336 66.389 96.1679 66.263ZM97.4949 66.7821C97.369 66.9502 97.4032 67.1886 97.5713 67.3145C97.7394 67.4404 97.9777 67.4062 98.1036 67.2381L101.678 62.466C101.804 62.2979 101.77 62.0596 101.602 61.9337C101.434 61.8078 101.195 61.842 101.069 62.0101L97.4949 66.7821ZM99.4188 67.7731C99.2508 67.6472 99.2166 67.4089 99.3425 67.2408L102.917 62.4687C103.043 62.3006 103.281 62.2664 103.449 62.3923C103.617 62.5182 103.652 62.7566 103.526 62.9246L99.9512 67.6967C99.8253 67.8648 99.5869 67.899 99.4188 67.7731ZM101.05 67.8865C100.924 68.0546 100.958 68.2929 101.126 68.4188C101.294 68.5447 101.533 68.5105 101.658 68.3424L105.233 63.5704C105.359 63.4023 105.325 63.164 105.157 63.0381C104.988 62.9122 104.75 62.9464 104.624 63.1144L101.05 67.8865ZM102.88 69.0025C102.712 68.8766 102.678 68.6383 102.804 68.4702L106.378 63.6981C106.504 63.53 106.742 63.4959 106.91 63.6218C107.079 63.7477 107.113 63.986 106.987 64.1541L103.412 68.9261C103.287 69.0942 103.048 69.1284 102.88 69.0025ZM104.861 68.6482C104.735 68.8163 104.77 69.0546 104.938 69.1805C105.106 69.3065 105.344 69.2723 105.47 69.1042L109.045 64.3321C109.17 64.164 109.136 63.9257 108.968 63.7998C108.8 63.6739 108.562 63.7081 108.436 63.8762L104.861 68.6482ZM107.112 69.2025C106.944 69.0766 106.91 68.8383 107.036 68.6702L110.61 63.8982C110.736 63.7301 110.975 63.6959 111.143 63.8218C111.311 63.9477 111.345 64.186 111.219 64.3541L107.645 69.1262C107.519 69.2943 107.28 69.3285 107.112 69.2025ZM109.444 68.3802C109.318 68.5483 109.352 68.7866 109.52 68.9125C109.689 69.0384 109.927 69.0042 110.053 68.8361L113.627 64.0641C113.753 63.896 113.719 63.6576 113.551 63.5317C113.383 63.4058 113.144 63.44 113.019 63.6081L109.444 68.3802Z" fill="#2D1747"/>
<path d="M108.681 43.6099C116.303 49.3194 119.543 57.8717 115.918 62.7122C112.292 67.5526 103.174 66.8481 95.5513 61.1386C87.9289 55.4292 84.6889 46.8768 88.3146 42.0364C91.9402 37.196 101.059 37.9005 108.681 43.6099Z" fill="url(#paint1_linear_319_219)"/>
<path fill-rule="evenodd" clip-rule="evenodd" d="M115.46 53.8873C114.238 50.6601 111.67 47.2605 108.003 44.5145C104.337 41.7684 100.353 40.2596 96.9119 39.9937C93.455 39.7267 90.7193 40.7112 89.2191 42.7139C87.7189 44.7167 87.5434 47.619 88.7717 50.8613C89.9943 54.0885 92.5627 57.4881 96.2288 60.2341C99.8949 62.9802 103.88 64.489 107.32 64.7548C110.777 65.0219 113.513 64.0374 115.013 62.0346C116.513 60.0319 116.689 57.1296 115.46 53.8873ZM115.918 62.7122C119.543 57.8717 116.303 49.3194 108.681 43.6099C101.059 37.9005 91.9402 37.196 88.3146 42.0364C84.6889 46.8768 87.9289 55.4292 95.5513 61.1386C103.174 66.8481 112.292 67.5526 115.918 62.7122Z" fill="#2D1747"/>
</g>
<g opacity="0.61">
<path fill-rule="evenodd" clip-rule="evenodd" d="M50.5377 58.8221C49.8959 59.6715 49.3583 60.3967 48.7598 61.1958C43.9424 67.6272 31.311 66.3047 20.5467 58.2419C9.78243 50.179 4.96158 38.4291 9.77897 31.9977C10.3775 31.1986 10.8311 30.6005 11.4506 29.766C12.07 28.9315 12.6756 28.1305 13.2741 27.3315C18.0915 20.9 30.7229 22.2225 41.4872 30.2854C52.2514 38.3482 57.0723 50.0981 52.2549 56.5296C51.6564 57.3286 51.1796 57.9727 50.5377 58.8221Z" fill="#402461"/>
<path fill-rule="evenodd" clip-rule="evenodd" d="M13.2763 28.5839C12.8736 29.1199 12.4683 29.6593 12.0557 30.2151C11.6463 30.7667 11.3078 31.217 10.9538 31.6879C10.7713 31.9307 10.5847 32.1789 10.3821 32.4494C8.19539 35.3688 8.1214 39.6021 10.0169 44.222C11.9056 48.8252 15.7065 53.6749 20.9985 57.6388C26.2906 61.6028 32.0133 63.8867 36.9619 64.4048C41.9284 64.9248 45.9701 63.6635 48.1568 60.7441C48.3557 60.4786 48.5485 60.2203 48.741 59.9624C49.1252 59.4478 49.5084 58.9346 49.9367 58.3679C50.3603 57.8073 50.7106 57.338 51.0731 56.8524C51.259 56.6034 51.4481 56.35 51.6519 56.0779C53.8387 53.1585 53.9127 48.9252 52.0172 44.3053C50.1285 39.7021 46.3276 34.8524 41.0356 30.8885C35.7435 26.9245 30.0208 24.6406 25.0722 24.1225C20.1057 23.6025 16.064 24.8638 13.8773 27.7832C13.6772 28.0503 13.4771 28.3167 13.2763 28.5839ZM12.0751 27.6739C12.2752 27.4075 12.4739 27.1431 12.6711 26.8798C15.3018 23.3677 19.9845 22.0746 25.2291 22.6237C30.4917 23.1747 36.4668 25.5834 41.939 29.6823C47.4112 33.7812 51.4029 38.838 53.4114 43.7333C55.413 48.6119 55.4887 53.4693 52.8581 56.9813C52.6573 57.2494 52.4695 57.5009 52.2842 57.7492C51.9199 58.2371 51.5651 58.7125 51.139 59.2764C50.7132 59.8398 50.3346 60.3469 49.9521 60.8593C49.7589 61.118 49.5647 61.3781 49.3629 61.6475C46.7323 65.1595 42.0496 66.4527 36.8049 65.9036C31.5424 65.3526 25.5673 62.9438 20.0951 58.845C14.6229 54.7461 10.6312 49.6893 8.62272 44.794C6.62107 39.9154 6.54535 35.058 9.176 31.546C9.38173 31.2713 9.5697 31.0212 9.75272 30.7777C10.1049 30.3092 10.4387 29.8651 10.8456 29.3169C11.2607 28.7577 11.6708 28.212 12.0751 27.6739Z" fill="#2D1747"/>
<path fill-rule="evenodd" clip-rule="evenodd" d="M8.02404 38.8266C7.79189 38.6527 7.74466 38.3235 7.91855 38.0914L12.8552 31.5007C13.0291 31.2686 13.3583 31.2213 13.5904 31.3952C13.8226 31.5691 13.8698 31.8983 13.6959 32.1304L8.75923 38.7211C8.58534 38.9532 8.25619 39.0005 8.02404 38.8266ZM8.44619 42.3036C8.21404 42.1297 8.16681 41.8005 8.3407 41.5684L13.2774 34.9777C13.4513 34.7456 13.7804 34.6984 14.0126 34.8722C14.2447 35.0461 14.2919 35.3753 14.118 35.6074L9.18138 42.1981C9.0075 42.4302 8.67834 42.4775 8.44619 42.3036ZM9.50465 44.0541C9.33077 44.2863 9.378 44.6154 9.61014 44.7893C9.84229 44.9632 10.1714 44.916 10.3453 44.6838L15.282 38.0931C15.4559 37.861 15.4087 37.5318 15.1765 37.3579C14.9444 37.1841 14.6152 37.2313 14.4413 37.4634L9.50465 44.0541ZM10.7417 47.3175C10.5096 47.1436 10.4624 46.8144 10.6362 46.5823L15.5729 39.9916C15.7468 39.7595 16.0759 39.7123 16.3081 39.8861C16.5402 40.06 16.5875 40.3892 16.4136 40.6213L11.4769 47.212C11.303 47.4441 10.9739 47.4914 10.7417 47.3175ZM12.0908 48.6809C11.917 48.9131 11.9642 49.2422 12.1963 49.4161C12.4285 49.59 12.7576 49.5428 12.9315 49.3106L17.8682 42.72C18.0421 42.4878 17.9948 42.1586 17.7627 41.9848C17.5305 41.8109 17.2014 41.8581 17.0275 42.0903L12.0908 48.6809ZM13.7153 51.4277C13.4832 51.2539 13.436 50.9247 13.6098 50.6925L18.5465 44.1019C18.7204 43.8697 19.0496 43.8225 19.2817 43.9964C19.5139 44.1703 19.5611 44.4994 19.3872 44.7316L14.4505 51.3223C14.2766 51.5544 13.9475 51.6016 13.7153 51.4277ZM14.9353 52.9631C14.7614 53.1953 14.8087 53.5244 15.0408 53.6983C15.2729 53.8722 15.6021 53.825 15.776 53.5928L20.7127 47.0022C20.8865 46.77 20.8393 46.4409 20.6072 46.267C20.375 46.0931 20.0459 46.1403 19.872 46.3725L14.9353 52.9631ZM16.9793 55.1502C16.7471 54.9763 16.6999 54.6472 16.8738 54.415L21.8104 47.8244C21.9843 47.5922 22.3135 47.545 22.5456 47.7189C22.7778 47.8928 22.825 48.2219 22.6511 48.4541L17.7145 55.0447C17.5406 55.2769 17.2114 55.3241 16.9793 55.1502ZM18.8119 55.8669C18.638 56.0991 18.6852 56.4282 18.9174 56.6021C19.1495 56.776 19.4787 56.7288 19.6526 56.4966L24.5892 49.906C24.7631 49.6738 24.7159 49.3447 24.4838 49.1708C24.2516 48.9969 23.9224 49.0441 23.7486 49.2763L18.8119 55.8669ZM20.8562 58.054C20.624 57.8802 20.5768 57.551 20.7507 57.3189L25.6874 50.7282C25.8612 50.496 26.1904 50.4488 26.4225 50.6227C26.6547 50.7966 26.7019 51.1257 26.528 51.3579L21.5914 57.9486C21.4175 58.1807 21.0883 58.2279 20.8562 58.054ZM22.6457 58.7384C22.4718 58.9705 22.519 59.2997 22.7511 59.4736C22.9833 59.6475 23.3125 59.6002 23.4863 59.3681L28.423 52.7774C28.5969 52.5453 28.5497 52.2161 28.3175 52.0422C28.0854 51.8683 27.7562 51.9156 27.5823 52.1477L22.6457 58.7384ZM24.6896 60.9255C24.4575 60.7516 24.4102 60.4224 24.5841 60.1903L29.5208 53.5996C29.6947 53.3675 30.0238 53.3203 30.256 53.4941C30.4881 53.668 30.5354 53.9972 30.3615 54.2293L25.4248 60.82C25.2509 61.0521 24.9218 61.0994 24.6896 60.9255ZM26.5226 61.6429C26.3487 61.875 26.3959 62.2042 26.6281 62.3781C26.8602 62.552 27.1894 62.5047 27.3633 62.2726L32.2999 55.6819C32.4738 55.4498 32.4266 55.1206 32.1944 54.9467C31.9623 54.7728 31.6331 54.8201 31.4592 55.0522L26.5226 61.6429ZM29.1795 63.0113C28.9474 62.8374 28.9001 62.5083 29.074 62.2761L34.0107 55.6854C34.1846 55.4533 34.5137 55.4061 34.7459 55.5799C34.978 55.7538 35.0253 56.083 34.8514 56.3151L29.9147 62.9058C29.7408 63.138 29.4117 63.1852 29.1795 63.0113ZM31.4319 63.1676C31.2581 63.3998 31.3053 63.7289 31.5374 63.9028C31.7696 64.0767 32.0987 64.0295 32.2726 63.7973L37.2093 57.2066C37.3832 56.9745 37.336 56.6453 37.1038 56.4715C36.8717 56.2976 36.5425 56.3448 36.3686 56.5769L31.4319 63.1676ZM33.9601 64.7093C33.7279 64.5355 33.6807 64.2063 33.8546 63.9742L38.7913 57.3835C38.9652 57.1513 39.2943 57.1041 39.5265 57.278C39.7586 57.4519 39.8058 57.781 39.632 58.0132L34.6953 64.6039C34.5214 64.836 34.1922 64.8832 33.9601 64.7093ZM36.6964 64.2196C36.5225 64.4518 36.5697 64.7809 36.8019 64.9548C37.034 65.1287 37.3632 65.0815 37.5371 64.8493L42.4737 58.2587C42.6476 58.0265 42.6004 57.6974 42.3682 57.5235C42.1361 57.3496 41.8069 57.3968 41.633 57.629L36.6964 64.2196ZM39.8051 64.9852C39.573 64.8113 39.5258 64.4821 39.6997 64.25L44.6363 57.6593C44.8102 57.4272 45.1394 57.3799 45.3715 57.5538C45.6037 57.7277 45.6509 58.0569 45.477 58.289L40.5403 64.8797C40.3665 65.1118 40.0373 65.159 39.8051 64.9852ZM43.0256 63.8494C42.8517 64.0815 42.899 64.4107 43.1311 64.5846C43.3633 64.7585 43.6924 64.7112 43.8663 64.4791L48.803 57.8884C48.9769 57.6563 48.9296 57.3271 48.6975 57.1532C48.4653 56.9794 48.1362 57.0266 47.9623 57.2587L43.0256 63.8494Z" fill="#2D1747"/>
<path d="M41.9715 29.6391C52.4987 37.5244 56.9734 49.336 51.966 56.0211C46.9586 62.7062 34.3653 61.7332 23.8381 53.8479C13.3109 45.9626 8.83615 34.151 13.8435 27.4659C18.8509 20.7808 31.4442 21.7538 41.9715 29.6391Z" fill="url(#paint2_linear_319_219)"/>
<path fill-rule="evenodd" clip-rule="evenodd" d="M51.3347 43.8331C49.6461 39.3761 46.099 34.6808 41.0357 30.8883C35.9725 27.0957 30.4693 25.0119 25.7173 24.6447C20.943 24.2759 17.1646 25.6356 15.0927 28.4016C13.0209 31.1676 12.7785 35.1759 14.4749 39.6539C16.1634 44.1109 19.7106 48.8062 24.7738 52.5987C29.837 56.3913 35.3402 58.4751 40.0922 58.8422C44.8665 59.2111 48.6449 57.8514 50.7168 55.0854C52.7887 52.3193 53.0311 48.3111 51.3347 43.8331ZM51.966 56.0211C56.9734 49.336 52.4987 37.5244 41.9715 29.6391C31.4442 21.7538 18.8509 20.7808 13.8435 27.4659C8.83615 34.151 13.3109 45.9626 23.8381 53.8479C34.3653 61.7332 46.9586 62.7062 51.966 56.0211Z" fill="#2D1747"/>
</g>
<g opacity="0.61">
<path fill-rule="evenodd" clip-rule="evenodd" d="M82.263 73.8051C81.9879 74.1692 81.7575 74.48 81.5009 74.8225C79.4362 77.579 74.0224 77.0122 69.4089 73.5565C64.7954 70.1007 62.7292 65.0648 64.7939 62.3083C65.0504 61.9658 65.2448 61.7095 65.5103 61.3518C65.7758 60.9941 66.0354 60.6508 66.2919 60.3084C68.3566 57.5519 73.7704 58.1187 78.3839 61.5744C82.9975 65.0301 85.0637 70.0661 82.9989 72.8226C82.7424 73.1651 82.5381 73.4411 82.263 73.8051Z" fill="#402461"/>
<path fill-rule="evenodd" clip-rule="evenodd" d="M66.2927 60.8447C66.1201 61.0744 65.9464 61.3056 65.7696 61.5439C65.5941 61.7803 65.449 61.9733 65.2973 62.1751C65.2191 62.2791 65.1391 62.3855 65.0523 62.5015C64.1151 63.7527 64.0833 65.5671 64.8958 67.5472C65.7052 69.5201 67.3343 71.5986 69.6024 73.2976C71.8706 74.9965 74.3233 75.9754 76.4443 76.1974C78.5729 76.4203 80.3052 75.8797 81.2424 74.6285C81.3276 74.5147 81.4103 74.404 81.4928 74.2934C81.6575 74.0729 81.8217 73.8529 82.0052 73.61C82.1868 73.3698 82.3369 73.1686 82.4923 72.9605C82.572 72.8538 82.653 72.7452 82.7404 72.6286C83.6776 71.3773 83.7093 69.5629 82.8969 67.5829C82.0875 65.6099 80.4584 63.5314 78.1903 61.8325C75.9221 60.1335 73.4693 59.1546 71.3484 58.9326C69.2198 58.7097 67.4875 59.2503 66.5503 60.5016C66.4645 60.616 66.3788 60.7302 66.2927 60.8447ZM65.7779 60.4547C65.8637 60.3405 65.9488 60.2272 66.0334 60.1143C67.1608 58.6091 69.1678 58.0549 71.4157 58.2902C73.6712 58.5263 76.2321 59.5587 78.5775 61.3155C80.9228 63.0723 82.6337 65.2396 83.4945 67.3377C84.3524 69.4287 84.3848 71.5105 83.2573 73.0158C83.1713 73.1307 83.0908 73.2385 83.0114 73.3449C82.8553 73.554 82.7032 73.7577 82.5205 73.9994C82.3381 74.2409 82.1758 74.4583 82.0118 74.6779C81.929 74.7888 81.8458 74.9002 81.7593 75.0157C80.6319 76.5209 78.6249 77.0752 76.377 76.8398C74.1215 76.6037 71.5606 75.5713 69.2152 73.8145C66.8699 72.0577 65.159 69.8904 64.2982 67.7923C63.4403 65.7014 63.4079 63.6195 64.5353 62.1142C64.6235 61.9965 64.7041 61.8894 64.7825 61.785C64.9335 61.5842 65.0766 61.3938 65.2509 61.1589C65.4289 60.9192 65.6046 60.6853 65.7779 60.4547Z" fill="#2D1747"/>
<path fill-rule="evenodd" clip-rule="evenodd" d="M64.0415 65.234C63.942 65.1595 63.9218 65.0184 63.9963 64.9189L66.1121 62.0943C66.1866 61.9948 66.3277 61.9745 66.4272 62.0491C66.5267 62.1236 66.5469 62.2647 66.4724 62.3642L64.3566 65.1888C64.2821 65.2883 64.141 65.3086 64.0415 65.234ZM64.2225 66.7243C64.123 66.6497 64.1027 66.5087 64.1773 66.4092L66.293 63.5845C66.3676 63.485 66.5086 63.4648 66.6081 63.5393C66.7076 63.6138 66.7279 63.7549 66.6534 63.8544L64.5376 66.6791C64.4631 66.7786 64.322 66.7988 64.2225 66.7243ZM64.6761 67.4745C64.6016 67.574 64.6219 67.7151 64.7214 67.7896C64.8209 67.8642 64.9619 67.8439 65.0365 67.7444L67.1522 64.9197C67.2268 64.8203 67.2065 64.6792 67.107 64.6047C67.0075 64.5301 66.8664 64.5504 66.7919 64.6499L64.6761 67.4745ZM65.2064 68.8732C65.1069 68.7987 65.0866 68.6576 65.1611 68.5581L67.2769 65.7334C67.3515 65.6339 67.4925 65.6137 67.592 65.6882C67.6915 65.7627 67.7118 65.9038 67.6372 66.0033L65.5215 68.828C65.4469 68.9275 65.3059 68.9477 65.2064 68.8732ZM65.7846 69.4575C65.7101 69.557 65.7303 69.6981 65.8298 69.7726C65.9293 69.8472 66.0704 69.8269 66.1449 69.7274L68.2607 66.9028C68.3352 66.8033 68.315 66.6622 68.2155 66.5877C68.116 66.5131 67.9749 66.5334 67.9004 66.6329L65.7846 69.4575ZM66.4809 70.6348C66.3814 70.5603 66.3611 70.4192 66.4356 70.3197L68.5514 67.4951C68.626 67.3956 68.767 67.3753 68.8665 67.4499C68.966 67.5244 68.9863 67.6655 68.9117 67.7649L66.796 70.5896C66.7214 70.6891 66.5804 70.7093 66.4809 70.6348ZM67.0037 71.2929C66.9292 71.3924 66.9495 71.5335 67.049 71.608C67.1485 71.6825 67.2895 71.6623 67.3641 71.5628L69.4798 68.7381C69.5544 68.6386 69.5341 68.4975 69.4346 68.423C69.3351 68.3485 69.194 68.3687 69.1195 68.4682L67.0037 71.2929ZM67.8798 72.2303C67.7803 72.1557 67.76 72.0147 67.8346 71.9152L69.9503 69.0905C70.0249 68.991 70.1659 68.9708 70.2654 69.0453C70.3649 69.1198 70.3852 69.2609 70.3107 69.3604L68.1949 72.1851C68.1204 72.2846 67.9793 72.3048 67.8798 72.2303ZM68.6652 72.5375C68.5907 72.6369 68.611 72.778 68.7105 72.8525C68.81 72.9271 68.951 72.9068 69.0256 72.8073L71.1413 69.9827C71.2159 69.8832 71.1956 69.7421 71.0961 69.6676C70.9966 69.5931 70.8555 69.6133 70.781 69.7128L68.6652 72.5375ZM69.5414 73.4748C69.4419 73.4003 69.4217 73.2592 69.4962 73.1597L71.612 70.3351C71.6865 70.2356 71.8276 70.2153 71.9271 70.2899C72.0266 70.3644 72.0468 70.5055 71.9723 70.605L69.8565 73.4296C69.782 73.5291 69.6409 73.5494 69.5414 73.4748ZM70.3084 73.7681C70.2339 73.8676 70.2541 74.0087 70.3536 74.0832C70.4531 74.1578 70.5942 74.1375 70.6687 74.038L72.7845 71.2134C72.859 71.1139 72.8388 70.9728 72.7393 70.8983C72.6398 70.8237 72.4987 70.844 72.4242 70.9435L70.3084 73.7681ZM71.1844 74.7055C71.0849 74.631 71.0647 74.4899 71.1392 74.3904L73.255 71.5658C73.3295 71.4663 73.4706 71.446 73.5701 71.5206C73.6696 71.5951 73.6898 71.7362 73.6153 71.8357L71.4995 74.6603C71.425 74.7598 71.2839 74.7801 71.1844 74.7055ZM71.97 75.013C71.8955 75.1125 71.9157 75.2536 72.0152 75.3281C72.1147 75.4026 72.2558 75.3824 72.3303 75.2829L74.4461 72.4582C74.5206 72.3587 74.5004 72.2177 74.4009 72.1431C74.3014 72.0686 74.1603 72.0888 74.0858 72.1883L71.97 75.013ZM73.1088 75.5995C73.0093 75.525 72.989 75.3839 73.0636 75.2844L75.1794 72.4598C75.2539 72.3603 75.3949 72.34 75.4944 72.4145C75.5939 72.4891 75.6142 72.6301 75.5397 72.7296L73.4239 75.5543C73.3494 75.6538 73.2083 75.674 73.1088 75.5995ZM74.0742 75.6665C73.9996 75.766 74.0199 75.9071 74.1194 75.9816C74.2189 76.0561 74.3599 76.0359 74.4345 75.9364L76.5503 73.1117C76.6248 73.0123 76.6045 72.8712 76.505 72.7967C76.4055 72.7221 76.2645 72.7424 76.1899 72.8419L74.0742 75.6665ZM75.1577 76.3273C75.0582 76.2528 75.038 76.1117 75.1125 76.0122L77.2283 73.1875C77.3028 73.0881 77.4439 73.0678 77.5434 73.1423C77.6429 73.2169 77.6631 73.3579 77.5886 73.4574L75.4728 76.2821C75.3983 76.3816 75.2572 76.4018 75.1577 76.3273ZM76.3305 76.1174C76.2559 76.2169 76.2762 76.358 76.3757 76.4325C76.4752 76.5071 76.6163 76.4868 76.6908 76.3873L78.8066 73.5627C78.8811 73.4632 78.8608 73.3221 78.7613 73.2476C78.6619 73.173 78.5208 73.1933 78.4463 73.2928L76.3305 76.1174ZM77.6629 76.4456C77.5634 76.371 77.5431 76.23 77.6177 76.1305L79.7334 73.3058C79.808 73.2063 79.949 73.1861 80.0485 73.2606C80.148 73.3351 80.1683 73.4762 80.0938 73.5757L77.978 76.4004C77.9034 76.4998 77.7624 76.5201 77.6629 76.4456ZM79.0431 75.9588C78.9686 76.0583 78.9889 76.1994 79.0884 76.2739C79.1879 76.3484 79.3289 76.3282 79.4035 76.2287L81.5192 73.404C81.5938 73.3045 81.5735 73.1635 81.474 73.0889C81.3745 73.0144 81.2334 73.0346 81.1589 73.1341L79.0431 75.9588Z" fill="#2D1747"/>
<path d="M78.5914 61.2972C83.1033 64.6768 85.0212 69.7393 82.875 72.6045C80.7289 75.4697 75.3314 75.0527 70.8195 71.673C66.3076 68.2934 64.3897 63.231 66.5359 60.3658C68.682 57.5006 74.0795 57.9176 78.5914 61.2972Z" fill="url(#paint3_linear_319_219)"/>
<path fill-rule="evenodd" clip-rule="evenodd" d="M82.6044 67.3807C81.8807 65.4705 80.3604 63.4581 78.1904 61.8326C76.0203 60.2071 73.6616 59.314 71.6249 59.1567C69.5787 58.9986 67.9593 59.5813 67.0713 60.7668C66.1833 61.9523 66.0794 63.6703 66.8065 65.5895C67.5301 67.4998 69.0504 69.5122 71.2205 71.1376C73.3906 72.7631 75.7493 73.6562 77.786 73.8136C79.8322 73.9717 81.4516 73.3889 82.3396 72.2034C83.2276 71.0179 83.3315 69.3 82.6044 67.3807ZM82.875 72.6045C85.0212 69.7393 83.1033 64.6768 78.5914 61.2972C74.0795 57.9176 68.682 57.5006 66.5359 60.3658C64.3897 63.231 66.3076 68.2934 70.8195 71.673C75.3314 75.0527 80.7289 75.4697 82.875 72.6045Z" fill="#2D1747"/>
</g>
<g opacity="0.61">
<path fill-rule="evenodd" clip-rule="evenodd" d="M304.317 89.5122C303.665 90.375 303.119 91.1117 302.511 91.9233C297.618 98.456 284.787 97.1126 273.854 88.9229C262.92 80.7331 258.023 68.7982 262.916 62.2655C263.524 61.4539 263.985 60.8464 264.614 59.9987C265.243 59.1511 265.859 58.3375 266.466 57.5259C271.36 50.9932 284.19 52.3365 295.124 60.5263C306.057 68.7161 310.954 80.651 306.061 87.1836C305.453 87.9953 304.969 88.6495 304.317 89.5122Z" fill="#402461"/>
<path fill-rule="evenodd" clip-rule="evenodd" d="M266.469 58.7976C266.06 59.342 265.648 59.8899 265.229 60.4545C264.813 61.0147 264.469 61.4721 264.11 61.9504C263.924 62.1971 263.735 62.4492 263.529 62.724C261.308 65.6893 261.233 69.9892 263.158 74.6819C265.076 79.3575 268.937 84.2835 274.312 88.3099C279.688 92.3363 285.501 94.6561 290.527 95.1824C295.572 95.7106 299.677 94.4294 301.898 91.464C302.1 91.1944 302.296 90.9321 302.492 90.6701C302.882 90.1474 303.271 89.6261 303.706 89.0504C304.136 88.481 304.492 88.0044 304.861 87.5111C305.049 87.2581 305.241 87.0008 305.448 86.7244C307.67 83.759 307.745 79.4591 305.819 74.7665C303.901 70.0908 300.04 65.1648 294.665 61.1385C289.29 57.1121 283.477 54.7922 278.45 54.266C273.406 53.7378 269.3 55.019 267.079 57.9843C266.876 58.2556 266.673 58.5262 266.469 58.7976ZM265.249 57.8732C265.452 57.6027 265.654 57.3341 265.854 57.0667C268.526 53.4993 273.283 52.1858 278.61 52.7436C283.955 53.3032 290.024 55.7499 295.583 59.9133C301.141 64.0767 305.195 69.2131 307.236 74.1855C309.269 79.1409 309.346 84.0747 306.674 87.6421C306.47 87.9145 306.279 88.17 306.09 88.4222C305.721 88.9178 305.36 89.4005 304.927 89.9733C304.495 90.5456 304.11 91.0607 303.722 91.5813C303.526 91.844 303.328 92.1081 303.123 92.3817C300.451 95.949 295.695 97.2625 290.368 96.7048C285.022 96.1451 278.953 93.6984 273.395 89.535C267.836 85.3716 263.782 80.2353 261.742 75.2629C259.709 70.3075 259.632 65.3736 262.304 61.8063C262.513 61.5273 262.704 61.2733 262.89 61.026C263.247 60.5501 263.586 60.099 264 59.5422C264.421 58.9741 264.838 58.4198 265.249 57.8732Z" fill="#2D1747"/>
<path fill-rule="evenodd" clip-rule="evenodd" d="M261.134 69.2013C260.898 69.0247 260.85 68.6904 261.027 68.4546L266.041 61.7602C266.218 61.5244 266.552 61.4764 266.788 61.653C267.024 61.8296 267.072 62.164 266.895 62.3998L261.881 69.0942C261.704 69.33 261.37 69.378 261.134 69.2013ZM261.563 72.7331C261.327 72.5565 261.279 72.2221 261.455 71.9863L266.47 65.2919C266.646 65.0561 266.981 65.0081 267.217 65.1848C267.452 65.3614 267.5 65.6957 267.324 65.9315L262.309 72.626C262.133 72.8618 261.798 72.9097 261.563 72.7331ZM262.638 74.5112C262.461 74.747 262.509 75.0813 262.745 75.2579C262.981 75.4346 263.315 75.3866 263.492 75.1508L268.506 68.4564C268.683 68.2206 268.635 67.8862 268.399 67.7096C268.163 67.533 267.829 67.581 267.652 67.8168L262.638 74.5112ZM263.894 77.8259C263.658 77.6493 263.611 77.315 263.787 77.0792L268.802 70.3847C268.978 70.1489 269.312 70.101 269.548 70.2776C269.784 70.4542 269.832 70.7886 269.655 71.0244L264.641 77.7188C264.464 77.9546 264.13 78.0026 263.894 77.8259ZM265.265 79.2108C265.088 79.4466 265.136 79.781 265.372 79.9576C265.608 80.1342 265.942 80.0862 266.119 79.8504L271.133 73.156C271.31 72.9202 271.262 72.5859 271.026 72.4093C270.79 72.2326 270.456 72.2806 270.279 72.5164L265.265 79.2108ZM266.915 82.0009C266.679 81.8243 266.631 81.4899 266.808 81.2541L271.822 74.5597C271.999 74.3239 272.333 74.2759 272.569 74.4526C272.804 74.6292 272.852 74.9635 272.676 75.1993L267.661 81.8937C267.485 82.1295 267.151 82.1775 266.915 82.0009ZM268.154 83.5604C267.977 83.7963 268.025 84.1306 268.261 84.3072C268.497 84.4838 268.831 84.4359 269.008 84.2001L274.022 77.5056C274.199 77.2698 274.151 76.9355 273.915 76.7589C273.679 76.5823 273.345 76.6302 273.168 76.866L268.154 83.5604ZM270.23 85.782C269.994 85.6054 269.946 85.271 270.123 85.0352L275.137 78.3408C275.314 78.105 275.648 78.057 275.884 78.2336C276.12 78.4103 276.168 78.7446 275.991 78.9804L270.977 85.6748C270.8 85.9106 270.466 85.9586 270.23 85.782ZM272.091 86.51C271.915 86.7458 271.963 87.0801 272.199 87.2567C272.434 87.4334 272.769 87.3854 272.945 87.1496L277.96 80.4552C278.136 80.2194 278.088 79.885 277.853 79.7084C277.617 79.5318 277.282 79.5798 277.106 79.8156L272.091 86.51ZM274.168 88.7315C273.932 88.5549 273.884 88.2205 274.061 87.9847L279.075 81.2903C279.252 81.0545 279.586 81.0065 279.822 81.1832C280.058 81.3598 280.106 81.6941 279.929 81.9299L274.915 88.6244C274.738 88.8602 274.404 88.9081 274.168 88.7315ZM275.986 89.4266C275.809 89.6624 275.857 89.9968 276.093 90.1734C276.329 90.35 276.663 90.302 276.84 90.0662L281.854 83.3718C282.031 83.136 281.983 82.8017 281.747 82.6251C281.511 82.4484 281.177 82.4964 281 82.7322L275.986 89.4266ZM278.062 91.6481C277.826 91.4715 277.778 91.1372 277.955 90.9014L282.969 84.207C283.146 83.9712 283.48 83.9232 283.716 84.0998C283.952 84.2764 283.999 84.6108 283.823 84.8466L278.808 91.541C278.632 91.7768 278.298 91.8248 278.062 91.6481ZM279.924 92.3768C279.747 92.6126 279.795 92.947 280.031 93.1236C280.267 93.3002 280.601 93.2522 280.777 93.0164L285.792 86.322C285.968 86.0862 285.92 85.7519 285.685 85.5753C285.449 85.3986 285.115 85.4466 284.938 85.6824L279.924 92.3768ZM282.622 93.7668C282.387 93.5902 282.339 93.2558 282.515 93.02L287.53 86.3256C287.706 86.0898 288.041 86.0418 288.276 86.2185C288.512 86.3951 288.56 86.7294 288.383 86.9652L283.369 93.6596C283.192 93.8954 282.858 93.9434 282.622 93.7668ZM284.91 93.9256C284.734 94.1614 284.782 94.4957 285.017 94.6723C285.253 94.849 285.587 94.801 285.764 94.5652L290.778 87.8708C290.955 87.635 290.907 87.3006 290.671 87.124C290.436 86.9474 290.101 86.9953 289.925 87.2312L284.91 93.9256ZM287.478 95.4916C287.242 95.3149 287.194 94.9806 287.371 94.7448L292.385 88.0504C292.562 87.8146 292.896 87.7666 293.132 87.9432C293.368 88.1199 293.416 88.4542 293.239 88.69L288.225 95.3844C288.048 95.6202 287.714 95.6682 287.478 95.4916ZM290.258 94.9941C290.081 95.2299 290.129 95.5643 290.365 95.7409C290.6 95.9175 290.935 95.8696 291.111 95.6338L296.126 88.9393C296.302 88.7035 296.254 88.3692 296.019 88.1926C295.783 88.0159 295.449 88.0639 295.272 88.2997L290.258 94.9941ZM293.415 95.7717C293.179 95.5951 293.131 95.2608 293.308 95.025L298.322 88.3305C298.499 88.0947 298.833 88.0468 299.069 88.2234C299.305 88.4 299.353 88.7344 299.176 88.9702L294.162 95.6646C293.985 95.9004 293.651 95.9484 293.415 95.7717ZM296.686 94.6181C296.51 94.8539 296.558 95.1882 296.794 95.3648C297.029 95.5415 297.364 95.4935 297.54 95.2577L302.555 88.5633C302.731 88.3275 302.683 87.9931 302.448 87.8165C302.212 87.6399 301.877 87.6879 301.701 87.9237L296.686 94.6181Z" fill="#2D1747"/>
<path d="M295.616 59.8694C306.309 67.8789 310.854 79.8764 305.768 86.6668C300.681 93.4571 287.89 92.4688 277.197 84.4594C266.504 76.45 261.959 64.4524 267.045 57.6621C272.131 50.8717 284.923 51.86 295.616 59.8694Z" fill="url(#paint4_linear_319_219)"/>
<path fill-rule="evenodd" clip-rule="evenodd" d="M305.126 74.2869C303.411 69.7597 299.808 64.9906 294.665 61.1383C289.522 57.2861 283.933 55.1694 279.106 54.7965C274.256 54.4218 270.418 55.8029 268.314 58.6125C266.209 61.4221 265.963 65.4934 267.686 70.0419C269.401 74.5691 273.004 79.3383 278.147 83.1905C283.29 87.0428 288.88 89.1594 293.707 89.5323C298.556 89.907 302.394 88.5259 304.499 85.7163C306.603 82.9068 306.85 78.8354 305.126 74.2869ZM305.768 86.6668C310.854 79.8764 306.309 67.8789 295.616 59.8694C284.923 51.86 272.131 50.8717 267.045 57.6621C261.959 64.4524 266.504 76.45 277.197 84.4594C287.89 92.4688 300.681 93.4571 305.768 86.6668Z" fill="#2D1747"/>
</g>
<path opacity="0.29" d="M158.887 103.909C162.577 105.138 168.578 104.636 172.644 103.909C167.752 106.9 161.234 109.202 156.973 109.336C152.34 109.481 148.515 108.459 145.438 105.988C142.465 103.601 139.879 100.023 139.132 95.9212C138.235 91.0027 139.844 86.167 142.5 81.982C143.95 79.6957 146.06 76.6201 147.581 74.0994C149.538 70.8571 150.385 68.6085 151.241 64.4619C152.156 60.0266 149.885 50.2072 146.284 39.9234C153.136 48.1312 156.132 59.6103 156.054 64.5567C155.983 69.1124 154.79 73.078 153.477 77.0442C152.614 79.6536 151.625 82.3209 150.77 84.5764C149.702 87.395 148.874 90.4834 149.146 93.6236C149.364 96.1378 150.06 98.0265 151.999 99.9092C153.902 101.757 155.997 102.948 158.887 103.909Z" fill="#00E28D"/>
<path opacity="0.29" fill-rule="evenodd" clip-rule="evenodd" d="M156.054 64.5565C156.059 64.233 156.051 63.8814 156.03 63.5047C155.8 59.4681 154.035 52.5371 150.466 46.0879C149.276 43.9377 147.885 41.8411 146.284 39.9232C147.114 42.2927 147.873 44.6375 148.539 46.8975C150.547 53.7156 151.707 59.7616 151.393 63.3832C151.36 63.7712 151.309 64.1314 151.241 64.4617C150.47 68.1949 149.707 70.3897 148.135 73.1563C147.96 73.4626 147.776 73.776 147.581 74.0992C146.645 75.6504 145.486 77.4118 144.395 79.07C143.971 79.7138 143.558 80.3421 143.172 80.9365C142.936 81.2989 142.711 81.6488 142.5 81.9818C140.044 85.8522 138.483 90.2791 138.971 94.8134C139.011 95.182 139.064 95.5513 139.132 95.921C139.808 99.6343 141.991 102.918 144.605 105.278C144.878 105.525 145.156 105.762 145.438 105.988C148.279 108.268 151.756 109.315 155.918 109.348C156.265 109.351 156.616 109.347 156.973 109.336C159.794 109.247 163.605 108.208 167.278 106.648C169.152 105.852 170.991 104.92 172.644 103.909C170.931 104.215 168.875 104.482 166.793 104.595C163.932 104.752 161.023 104.62 158.887 103.909C158.516 103.786 158.158 103.659 157.812 103.527C155.463 102.631 153.658 101.52 151.999 99.909C151.713 99.6312 151.454 99.3533 151.22 99.0733C149.865 97.4553 149.331 95.7666 149.146 93.6234C149.116 93.2742 149.099 92.9257 149.095 92.5781C149.061 89.7997 149.821 87.0814 150.77 84.5761C150.897 84.2415 151.027 83.8977 151.159 83.5464C151.916 81.5303 152.742 79.2662 153.477 77.044C153.596 76.6837 153.715 76.3234 153.831 75.9627C154.997 72.3524 155.989 68.6983 156.054 64.5565ZM174.586 103.172C174.941 104.106 174.58 105.161 173.727 105.682C168.648 108.787 161.778 111.264 157.038 111.412C152.053 111.568 147.699 110.467 144.137 107.608C140.872 104.987 137.945 100.998 137.088 96.2934C136.065 90.683 137.925 85.3137 140.746 80.8687C141.345 79.9248 142.017 78.903 142.705 77.8576C143.773 76.2357 144.878 74.5573 145.803 73.0256C147.623 70.0107 148.391 67.9886 149.206 64.0417C149.569 62.2831 149.324 59.0935 148.423 54.8133C147.543 50.6305 146.104 45.6941 144.323 40.6097C143.991 39.6618 144.385 38.6121 145.259 38.1164C146.132 37.6206 147.235 37.8208 147.879 38.5919C151.503 42.933 154.072 48.0901 155.726 52.7705C157.37 57.419 158.175 61.7829 158.131 64.5891C158.054 69.4865 156.768 73.7122 155.45 77.6967C154.572 80.3489 153.571 83.0492 152.713 85.3125C151.685 88.0243 150.984 90.7652 151.216 93.4443C151.399 95.5639 151.934 96.9498 153.446 98.4185C155.082 100.007 156.888 101.054 159.543 101.938C161.049 102.439 163.188 102.626 165.572 102.566C167.917 102.506 170.327 102.213 172.278 101.864C173.262 101.688 174.232 102.238 174.586 103.172Z" fill="#0B9561"/>
<path opacity="0.29" d="M158.282 105.977C162.171 105.954 168.016 104.244 171.633 102.249C167.962 106.653 162.206 110.235 158.214 111.731C153.874 113.357 149.923 113.619 146.215 112.269C142.632 110.964 139.033 108.407 137.007 104.763C134.577 100.394 134.546 95.2978 135.716 90.4813C136.355 87.85 137.363 84.2595 137.994 81.3836C138.805 77.6843 138.883 75.2829 138.361 71.0812C137.802 66.5869 132.495 58.0189 125.78 49.4384C134.906 55.0081 141.433 64.915 142.949 69.6238C144.346 73.9606 144.491 78.0992 144.523 82.2769C144.545 85.0253 144.466 87.8687 144.381 90.2794C144.276 93.2919 144.485 96.4824 145.751 99.3686C146.766 101.679 148.032 103.244 150.474 104.403C152.87 105.541 155.236 105.995 158.282 105.977Z" fill="#00E28D"/>
<path opacity="0.29" fill-rule="evenodd" clip-rule="evenodd" d="M142.949 69.6237C142.85 69.3157 142.73 68.9854 142.588 68.6355C141.073 64.887 137.174 58.8912 131.721 53.9316C129.903 52.2781 127.912 50.7398 125.78 49.4382C127.327 51.4153 128.799 53.3916 130.156 55.3177C134.25 61.1283 137.292 66.4807 138.159 70.0108C138.252 70.3891 138.32 70.7464 138.361 71.0811C138.831 74.8639 138.815 77.1875 138.215 80.3127C138.148 80.6588 138.075 81.0147 137.994 81.3834C137.606 83.1533 137.075 85.1938 136.574 87.1147C136.38 87.8606 136.191 88.5883 136.016 89.2753C135.91 89.6942 135.809 90.0979 135.716 90.4812C134.634 94.9356 134.58 99.6292 136.499 103.766C136.655 104.102 136.824 104.435 137.007 104.763C138.841 108.062 141.964 110.47 145.198 111.864C145.536 112.01 145.876 112.145 146.215 112.269C149.638 113.515 153.267 113.388 157.219 112.082C157.548 111.973 157.88 111.856 158.214 111.731C160.894 110.726 164.37 108.781 167.476 106.279C168.996 105.054 170.427 103.696 171.633 102.249C170.178 103.052 168.363 103.808 166.46 104.427C163.631 105.347 160.607 105.963 158.282 105.977C157.891 105.979 157.511 105.974 157.141 105.96C154.628 105.867 152.562 105.395 150.474 104.403C150.114 104.232 149.779 104.052 149.467 103.863C147.664 102.766 146.616 101.338 145.752 99.3685C145.611 99.0475 145.483 98.7228 145.367 98.395C144.442 95.775 144.287 92.9568 144.381 90.2792C144.394 89.9215 144.406 89.5543 144.418 89.1792C144.487 87.0268 144.541 84.6173 144.523 82.2767C144.521 81.8972 144.517 81.5181 144.511 81.139C144.455 77.3455 144.219 73.5666 142.949 69.6237ZM173.235 100.927C173.871 101.697 173.868 102.812 173.229 103.579C169.293 108.301 163.219 112.074 158.943 113.676C154.272 115.426 149.796 115.784 145.504 114.221C141.57 112.788 137.515 109.952 135.192 105.773C132.42 100.789 132.455 95.1067 133.697 89.991C133.961 88.9047 134.269 87.7209 134.585 86.5098C135.075 84.6307 135.581 82.6862 135.965 80.9386C136.719 77.4986 136.797 75.3368 136.299 71.3374C136.078 69.5555 134.82 66.6141 132.592 62.8505C130.414 59.1726 127.464 54.9609 124.144 50.7186C123.525 49.9277 123.56 48.8072 124.228 48.0569C124.896 47.3067 126.005 47.1417 126.862 47.6649C131.689 50.6107 135.779 54.6684 138.85 58.5685C141.901 62.4421 144.066 66.3154 144.927 68.9868C146.428 73.649 146.569 78.0639 146.601 82.2608C146.622 85.0544 146.543 87.9331 146.458 90.3521C146.356 93.2503 146.573 96.0712 147.654 98.5335C148.509 100.482 149.461 101.622 151.365 102.527C153.425 103.505 155.471 103.916 158.27 103.9C161.755 103.879 167.262 102.288 170.629 100.43C171.504 99.9475 172.599 100.156 173.235 100.927Z" fill="#0B9561"/>
<path d="M159.721 104.449C163.582 104.915 167.799 104.456 171.637 102.931C167.442 106.839 163.078 109.166 158.93 110.149C154.42 111.217 150.468 110.98 146.958 109.175C143.568 107.43 140.319 104.442 138.767 100.572C136.905 95.9319 137.515 90.8722 139.28 86.2408C140.244 83.7105 141.696 80.2753 142.683 77.5013C143.952 73.9332 144.332 71.5607 144.342 67.3268C144.352 62.7979 140.163 53.6309 134.579 44.2747C142.933 50.9469 148.164 61.5953 149.077 66.4574C149.917 70.9353 149.542 75.0593 149.048 79.2079C148.724 81.9372 148.289 84.7483 147.902 87.1292C147.419 90.1045 147.225 93.2961 148.119 96.3185C148.835 98.7384 149.895 100.45 152.172 101.907C154.406 103.337 156.697 104.085 159.721 104.449Z" fill="#00E28D"/>
<path fill-rule="evenodd" clip-rule="evenodd" d="M133.896 43.4927C134.274 43.1625 134.835 43.1503 135.227 43.4637C139.525 46.8962 142.997 51.331 145.508 55.5105C148.011 59.6755 149.61 63.6717 150.097 66.2664C150.97 70.9123 150.574 75.1731 150.08 79.3312C149.753 82.0829 149.315 84.9114 148.927 87.2964C148.453 90.2154 148.287 93.224 149.115 96.0245C149.775 98.2546 150.705 99.7357 152.731 101.033C154.809 102.362 156.943 103.069 159.845 103.419C163.544 103.865 167.586 103.424 171.253 101.966C171.718 101.782 172.248 101.954 172.515 102.376C172.782 102.799 172.711 103.351 172.345 103.692C168.038 107.704 163.518 110.13 159.169 111.16C154.487 112.269 150.268 112.047 146.483 110.099C142.926 108.269 139.469 105.113 137.802 100.959C135.81 95.9929 136.489 90.6467 138.309 85.8715C138.693 84.8628 139.142 83.7411 139.606 82.584C140.335 80.7611 141.101 78.8501 141.704 77.1539C142.929 73.7108 143.293 71.4571 143.303 67.3251C143.307 65.295 142.346 62.045 140.605 58.0244C138.884 54.0495 136.463 49.4597 133.687 44.8077C133.429 44.3765 133.517 43.8229 133.896 43.4927ZM139.045 50.0684C140.371 52.5612 141.545 54.9685 142.511 57.1989C143.949 60.5184 144.967 63.5424 145.279 65.9019C145.692 65.7787 146.164 65.6598 146.583 65.615C146.944 65.5764 147.384 65.539 147.787 65.5078C147.156 63.2247 145.785 60.0043 143.728 56.5805C142.421 54.4052 140.851 52.1724 139.045 50.0684ZM148.21 67.5592C147.75 67.5933 147.214 67.6368 146.804 67.6807C146.466 67.7169 145.968 67.855 145.503 68.0099C145.459 68.0245 145.416 68.039 145.375 68.0533C145.329 71.4334 145.006 73.6972 144.114 76.508C144.768 76.5449 145.574 76.6153 146.202 76.7568C146.847 76.9022 147.597 77.2408 148.193 77.5429C148.548 74.2374 148.733 70.9919 148.21 67.5592ZM147.935 79.7605C147.796 79.6829 147.64 79.5971 147.472 79.5089C146.855 79.1844 146.192 78.8841 145.745 78.7834C145.246 78.6711 144.501 78.6068 143.832 78.5734C143.681 78.5658 143.537 78.56 143.406 78.5556C142.836 80.1033 142.148 81.823 141.503 83.4359C141.308 83.924 141.116 84.4024 140.933 84.8632C141.879 84.71 143.094 84.5613 144.019 84.6367C145.026 84.7188 146.153 85.1461 146.956 85.5013C147.005 85.523 147.053 85.5447 147.101 85.5662C147.39 83.7362 147.688 81.7365 147.935 79.7605ZM146.763 87.705C146.575 87.6121 146.355 87.5073 146.115 87.4012C145.346 87.0609 144.489 86.7594 143.851 86.7074C143.168 86.6518 142.117 86.7724 141.16 86.9312C140.733 87.0021 140.347 87.0767 140.056 87.1364C138.673 90.9911 138.177 95.0334 139.255 98.7977C139.354 98.7187 139.457 98.6372 139.565 98.5541C140.426 97.8883 141.607 97.0615 142.744 96.5772C143.855 96.1041 145.18 95.7842 146.192 95.584C146.42 95.5389 146.635 95.4993 146.832 95.4649C146.275 92.845 146.408 90.1772 146.763 87.705ZM147.403 97.4751C147.167 97.5143 146.893 97.5631 146.595 97.622C145.629 97.8133 144.47 98.1003 143.558 98.4886C142.673 98.8656 141.662 99.5587 140.836 100.197C140.522 100.44 140.244 100.668 140.021 100.855C141.352 103.693 143.684 106.009 146.254 107.587C146.268 107.534 146.284 107.48 146.3 107.425C146.555 106.542 146.979 105.369 147.65 104.378C148.337 103.362 149.373 102.513 150.175 101.942C150.226 101.906 150.276 101.871 150.325 101.836C148.886 100.612 148.017 99.1974 147.403 97.4751ZM152.157 103.118C151.941 103.252 151.671 103.427 151.38 103.634C150.643 104.159 149.848 104.836 149.371 105.542C148.877 106.272 148.525 107.206 148.295 108.002C148.234 108.215 148.182 108.414 148.14 108.59C150.915 109.818 154.021 110.054 157.576 109.377C157.575 109.37 157.573 109.364 157.571 109.357C157.404 108.702 157.239 107.722 157.476 106.806C157.62 106.246 157.844 105.707 158.065 105.253C155.85 104.855 153.974 104.191 152.157 103.118ZM160.258 105.552C160.22 105.617 160.18 105.687 160.14 105.762C159.891 106.217 159.626 106.785 159.487 107.324C159.384 107.725 159.443 108.287 159.585 108.845C159.589 108.864 159.594 108.883 159.599 108.901C162.037 108.208 164.56 107.023 167.081 105.281C164.79 105.677 162.475 105.759 160.258 105.552Z" fill="#0B9561"/>
<path d="M215.242 115.086C217.555 118.966 225.18 127.028 233.122 123.782C241.064 120.537 231.101 111.655 227.621 107.152C225.903 104.929 220.836 92.9447 214.28 97.2597C207.724 101.575 212.929 111.207 215.242 115.086Z" fill="#00E28D"/>
<path fill-rule="evenodd" clip-rule="evenodd" d="M220.858 123.952C217.357 121.651 214.65 118.407 213.345 116.217C212.176 114.256 210.134 110.621 209.28 106.82C208.424 103.011 208.655 98.3172 213.066 95.4142C215.305 93.94 217.601 93.8044 219.687 94.612C221.62 95.361 223.212 96.854 224.455 98.3314C225.722 99.8378 226.795 101.532 227.629 102.927C227.868 103.325 228.113 103.744 228.331 104.118C228.477 104.367 228.611 104.595 228.723 104.784C229.048 105.331 229.25 105.646 229.369 105.801C229.92 106.514 230.626 107.322 231.443 108.257C231.851 108.724 232.286 109.223 232.743 109.756C234.054 111.286 235.478 113.034 236.544 114.793C237.568 116.483 238.5 118.558 238.302 120.655C238.075 123.056 236.472 124.8 233.957 125.827C229.05 127.833 224.371 126.261 220.858 123.952ZM233.122 123.782C225.18 127.028 217.555 118.965 215.242 115.086C212.929 111.206 207.724 101.575 214.28 97.2596C219.679 93.7062 224.067 101.206 226.408 105.205C226.91 106.063 227.318 106.759 227.621 107.152C228.212 107.917 228.991 108.809 229.838 109.779C233.971 114.511 239.714 121.088 233.122 123.782Z" fill="#0B9561"/>
<path d="M164.304 101.712C157.046 75.5949 171.772 53.5872 175.564 51.6063C179.356 49.6253 181.693 45.6717 183.888 42.6281C184.805 41.3556 188.982 33.8294 189.676 33.1524C188.27 32.7531 183.687 31.222 180.128 28.9515C175.077 25.7285 167.488 18.0674 172.612 8.76296C179.017 -2.86757 195.875 4.00929 199.345 6.52365C202.435 8.76299 204.57 10.9328 206.792 14.6477C208.094 12.8944 211.774 11.2974 214.725 11.471C217.676 11.6446 219.273 12.4257 221.894 14.6477C223.37 14.0575 224.498 13.0159 229.046 13.6756C230.869 11.471 233.993 8.15539 242.534 5.72513C251.075 3.29487 261.629 7.20065 263.729 14.0227C265.83 20.8448 264.615 28.4133 249.669 33.6384C249.941 34.6409 250.167 37.4143 246.545 38.4897C246.149 41.0367 241.677 40.7537 239.791 40.6167C239.548 42.2485 235.608 41.4847 234.688 41.45C236.886 43.0466 237.536 44.5265 238.318 46.0417C242.688 46.4272 241.916 49.2854 239.693 50.1576C242.828 49.5953 242.134 55.3004 237.429 55.3004C236.541 58.2931 234.176 58.7308 233.414 59.4884C244.303 78.4473 237.757 101.712 224.757 108.562C211.757 115.411 205.014 113.132 191.529 113.542C204.306 128.767 185.524 126.518 178.681 121.579C171.838 116.64 165.535 106.139 164.304 101.712Z" fill="#00E28D"/>
<path fill-rule="evenodd" clip-rule="evenodd" d="M239.693 50.1575C239.73 50.151 239.766 50.1453 239.801 50.1405C240.946 49.9833 241.549 50.6913 241.602 51.6293C241.689 53.1589 240.312 55.3004 237.43 55.3004C236.777 57.498 235.329 58.3179 234.303 58.8984C233.932 59.1084 233.616 59.2871 233.414 59.4884C244.303 78.4473 237.757 101.712 224.757 108.562C214.79 113.813 208.5 113.699 200.03 113.544C198.243 113.511 196.36 113.477 194.325 113.491C193.425 113.497 192.494 113.512 191.529 113.542C192.174 114.309 192.738 115.033 193.227 115.713C202.443 128.534 185.179 126.269 178.681 121.579C171.838 116.64 165.535 106.139 164.305 101.712C157.047 75.5948 171.772 53.5872 175.564 51.6062C178.794 49.919 180.968 46.8008 182.898 44.0326C183.234 43.5507 183.562 43.0793 183.888 42.628C184.285 42.0778 185.291 40.3581 186.361 38.5286C187.066 37.3246 187.798 36.073 188.403 35.0758C189.004 34.0841 189.48 33.3439 189.676 33.1523C189.222 33.0234 188.437 32.7765 187.462 32.4248C185.417 31.6872 182.538 30.4888 180.129 28.9515C175.077 25.7285 167.488 18.0674 172.612 8.76293C179.018 -2.8676 195.876 4.00926 199.345 6.52362C201.856 8.34324 203.736 10.117 205.545 12.711C205.962 13.3094 206.376 13.9514 206.792 14.6476C207.176 14.1304 207.767 13.6269 208.485 13.1783C210.202 12.1062 212.644 11.3485 214.725 11.4709C217.676 11.6445 219.273 12.4257 221.894 14.6476C222.126 14.555 222.349 14.4513 222.578 14.3447C223.808 13.7724 225.212 13.1194 229.046 13.6755C230.869 11.4709 233.994 8.15536 242.534 5.7251C251.075 3.29484 261.629 7.20062 263.73 14.0227C265.83 20.8448 264.615 28.4133 249.669 33.6384C249.941 34.6409 250.167 37.4143 246.545 38.4897C246.149 41.0367 241.677 40.7537 239.792 40.6167C239.694 41.2701 239.004 41.5394 238.152 41.6252C237.231 41.718 236.121 41.5962 235.368 41.5135C235.078 41.4817 234.841 41.4557 234.688 41.4499C235.829 42.2788 236.553 43.0762 237.095 43.8634C237.523 44.4848 237.837 45.0998 238.153 45.7189C238.208 45.8263 238.262 45.9339 238.318 46.0416C240.7 46.2518 241.554 47.1964 241.478 48.1536C241.418 48.9259 240.752 49.7065 239.794 50.1162C239.761 50.1304 239.727 50.1442 239.693 50.1575ZM243.304 49.729C243.924 50.8248 243.909 52.088 243.633 53.0993C243.11 55.0161 241.481 56.8152 238.982 57.3497C238.349 58.5858 237.496 59.4234 236.671 60.0212C236.56 60.102 236.449 60.1784 236.34 60.2504C241.195 69.7419 242.085 80.0793 240.206 89.0205C238.215 98.4926 233.038 106.696 225.787 110.516C215.281 116.052 208.365 115.921 199.759 115.758C198.51 115.735 197.226 115.711 195.89 115.703C196.28 116.316 196.617 116.905 196.901 117.47C197.69 119.043 198.137 120.566 198.082 122C198.024 123.516 197.406 124.802 196.342 125.737C195.341 126.617 194.081 127.072 192.861 127.295C190.437 127.739 187.49 127.393 184.808 126.684C182.104 125.969 179.378 124.807 177.388 123.37C173.674 120.69 170.218 116.597 167.562 112.697C164.922 108.821 162.885 104.856 162.176 102.304C158.397 88.705 160.348 76.1963 163.712 66.8592C165.395 62.1902 167.441 58.2825 169.336 55.3881C170.283 53.9422 171.206 52.7268 172.045 51.7862C172.837 50.8986 173.699 50.0879 174.541 49.6481C176.072 48.8485 177.384 47.6105 178.62 46.1104C179.499 45.0444 180.254 43.9604 181.028 42.8507C181.376 42.3512 181.728 41.8465 182.096 41.3358C182.425 40.8796 183.367 39.2707 184.463 37.3982C184.626 37.1202 184.792 36.8365 184.96 36.5498C185.407 35.7858 185.857 35.0219 186.267 34.3398C184.149 33.553 181.347 32.3493 178.94 30.8139C176.224 29.0807 172.739 26.111 170.613 22.1911C168.426 18.1607 167.694 13.1131 170.677 7.69715C174.497 0.760961 181.446 -0.482146 187.313 0.142104C193.126 0.760536 198.579 3.23977 200.641 4.73477C203.301 6.66217 205.338 8.58099 207.275 11.3298C207.919 10.9234 208.612 10.5763 209.3 10.2934C210.977 9.60413 212.97 9.15461 214.855 9.26551C216.515 9.3632 217.934 9.64181 219.342 10.2776C220.345 10.7301 221.275 11.334 222.235 12.077C222.698 11.8834 223.245 11.6802 223.796 11.5462C224.942 11.2676 226.313 11.1668 228.141 11.341C230.315 8.92924 233.97 5.86502 241.93 3.60022C246.701 2.24248 251.966 2.66093 256.34 4.34212C260.668 6.00591 264.519 9.07756 265.841 13.3726C266.99 17.1057 267.333 21.3906 265.018 25.5117C262.897 29.2853 258.762 32.5311 251.999 35.1363C251.962 35.664 251.855 36.2368 251.632 36.8215C251.1 38.2228 250.008 39.4355 248.262 40.2093C247.898 40.8714 247.375 41.3872 246.796 41.7654C245.928 42.3323 244.933 42.6004 244.085 42.7397C242.975 42.922 241.806 42.9288 240.872 42.893C240.519 43.1831 240.136 43.3812 239.799 43.5078C239.71 43.5412 239.621 43.5716 239.531 43.5992C239.612 43.7436 239.69 43.8859 239.764 44.0259C240.566 44.1988 241.293 44.475 241.908 44.8824C242.884 45.5283 243.574 46.5149 243.679 47.7267C243.743 48.4665 243.592 49.1384 243.304 49.729Z" fill="#0B9561"/>
<path d="M233.548 60.7714C233.782 59.6959 238.271 57.2643 238.458 54.9262C238.005 55.1433 237.358 55.1699 236.962 55.1133C236.494 58.1995 230.742 59.2283 233.548 60.7714Z" fill="#0B9561"/>
<path d="M238.271 46.4156C238.441 46.4156 239.13 46.359 239.3 46.4156C238.879 43.4697 236.414 42.5083 234.74 41.4499C236.017 41.8291 239.47 42.4517 239.791 40.6166C241.564 40.9801 247.111 40.8022 247.111 38.3199C241.451 39.5651 235.473 38.6316 231.715 35.6597C233.475 38.0309 237.016 38.9988 239.791 39.5085C238.406 39.6283 235.394 38.9425 232.508 37.7539C235.96 39.8481 237.629 39.8666 238.734 40.2443C239.922 40.9102 237.489 41.5461 234.132 41.1895C233.829 42.5344 237.803 43.5164 238.271 46.4156Z" fill="#0B9561"/>
<path d="M262.202 13.5713C267.136 23.257 259.112 30.0624 249.669 33.6383C264.615 28.4133 266.038 20.8447 263.938 14.0226C261.837 7.20056 252.688 2.72196 242.116 5.39522C234.391 7.59329 231.714 10.8454 229.498 12.9379C229.264 13.1589 229.039 13.3707 228.82 13.5713C226.133 13.1816 224.029 13.3631 221.894 14.6476C219.273 12.4256 217.676 11.6445 214.725 11.4709C211.774 11.2973 208.838 12.5471 206.792 14.3004C204.57 10.5856 201.532 8.16081 199.727 6.73187C195.231 3.1733 178.584 -2.72876 172.178 8.90177C167.387 19.1436 174.782 26.2318 179.833 29.4548C182.85 31.3794 186.92 32.4335 188.893 32.9447C189.214 33.0277 189.479 33.0965 189.676 33.1523C186.38 36.3654 183.829 42.1432 179.833 46.1873C182.923 50.4576 187.981 54.99 192.944 58.3575C197.61 61.5238 206.856 63.5887 210.541 63.5771C211.762 63.6407 217.181 63.1605 222.653 61.2858C214.725 62.6886 208.563 62.5931 197.54 58.3575C189.039 54.5196 183.867 48.5541 181.69 46.6027C186.319 40.6166 187.51 35.8861 190.127 33.6557C190.469 33.4187 191.426 32.9447 192.523 32.9447C189.676 32.2496 181.708 29.6978 177.316 25.6358C172.924 21.5738 169.713 16.3661 173.15 9.50931C176.587 2.65251 195.144 -1.72196 206.792 15.2378C206.819 15.2168 206.851 15.1922 206.887 15.1644C208.377 14.0059 217.139 7.19497 224.429 19.9594C224.724 18.7443 223.977 16.3835 223.543 15.8627C223.596 15.8502 223.658 15.8347 223.727 15.8173C225.284 15.4252 230.829 14.029 236.979 21.9904C236.979 21.9904 233.178 21.4871 230.417 22.6675C241.232 22.2682 245.088 26.1773 244.878 26.7468C244.788 26.9878 243.217 26.7101 241.62 26.5385C238.982 26.255 235.368 25.3407 232.032 26.7468C240.602 25.8678 250.066 30.4631 245.294 29.4548C239.462 28.2224 237.067 28.3582 230.898 30.226C231.101 30.4517 231.024 30.6056 231.181 30.8486C240.471 27.8629 246.657 30.2704 248.387 31.8674C249.116 31.636 250.113 30.7672 249.321 29.3507C258.237 25.4067 255.617 23.1014 253.193 22.4418C256.039 22.2913 256.454 16.6613 254.46 14.6476C248.641 8.77326 239.107 14.5724 235.067 18.2062C233.915 16.5042 232.305 14.8174 230.261 14.0226C231.91 12.4872 236.044 8.80379 242.117 7.14851C249.091 5.24816 258.929 7.14851 262.202 13.5713Z" fill="#0B9561"/>
<path d="M191.238 31.2602C185.718 29.0208 174.164 18.9526 180.007 12.5471C187.402 4.44049 204.414 16.5918 205.056 21.1746C204.77 21.1936 204.464 21.2089 204.139 21.2251C201.214 21.3708 196.804 21.5905 192.367 25.3407C195.179 24.4901 196.585 25.3407 196.585 26.5385C193.217 27.8057 191.238 31.2602 191.238 31.2602Z" fill="#0B9561"/>
<path d="M192.782 36.6123C192.819 32.8464 195.979 32.7742 198.01 34.9344C196.084 34.1002 193.648 34.7928 192.782 36.6123Z" fill="#0B9561"/>
<path d="M231.319 31.1882C230.374 26.1351 220.71 24.9619 218.559 25.0187C209.256 25.2643 207.979 28.3861 200.673 29.9996C205.541 30.4067 209.956 26.4903 218.276 26.4903C211.031 27.1963 208.998 29.3944 202.17 31.4712C209.98 30.5634 221.624 23.2219 231.319 31.1882Z" fill="#0B9561"/>
<path d="M230.753 27.0843C229.256 21.9057 218.931 21.0482 215.528 21.5451C212.725 21.9543 207.094 22.1677 200.302 27.4314C202.073 26.1796 206.771 24.1163 208.602 23.997C216.225 22.4389 223.844 23.287 230.753 27.0843Z" fill="#0B9561"/>
<path d="M235.92 18.9531C235.92 18.9531 237.448 20.012 238.333 22.0083C246.105 22.4051 248.731 27.5036 248.506 28.1534C248.343 28.6221 247.43 28.4138 246.544 28.1534C245.659 27.893 244.53 27.4417 243.124 27.2854L245.971 27.5805C246.735 27.6847 247.449 27.5979 247.221 27.0771C245.555 23.2755 239.705 22.4944 237.76 22.2166C237.844 21.6195 236.435 19.7111 235.92 18.9531Z" fill="#B2FFE2"/>
<path d="M235.325 61.4262C228.024 65.1052 217.291 67.3793 203.48 63.5305C189.67 59.6817 180.708 48.8942 178.341 46.0742C161.723 64.3722 161.863 79.7099 161.863 97.1987C182.918 93.0669 211.898 94.6268 237.055 100.94C240.562 84.4328 240.806 76.0783 235.325 61.4262Z" fill="#5E4E72"/>
<path fill-rule="evenodd" clip-rule="evenodd" d="M236.397 58.687L237.164 60.7384C239.954 68.1974 241.329 74.1667 241.523 80.4266C241.717 86.6542 240.737 93.0581 238.976 101.348L238.553 103.341L236.577 102.845C211.632 96.5852 182.951 95.062 162.241 99.1261L159.899 99.5857V97.1989C159.899 97.0211 159.899 96.8434 159.899 96.6658C159.898 88.1549 159.897 79.8748 161.963 71.4713C164.088 62.8262 168.373 54.1289 176.887 44.754L178.4 43.0889L179.882 44.8552C182.295 47.7314 190.9 57.9857 204.008 61.6388C217.334 65.3526 227.564 63.1378 234.441 59.6725L236.397 58.687ZM161.863 95.1982C161.876 79.0015 162.332 64.5125 177.023 47.5594C177.45 47.0665 177.89 46.5716 178.341 46.0744C178.361 46.0976 178.38 46.1213 178.401 46.1455C178.709 46.5123 179.118 47.0005 179.626 47.5814C183.169 51.6327 191.501 60.1921 203.48 63.5307C216.206 67.0773 226.319 65.4248 233.542 62.2648C234.157 61.9956 234.752 61.7153 235.325 61.4264C235.561 62.057 235.786 62.6759 236.001 63.2842C240.581 76.2527 240.433 84.4448 237.456 99.0156C237.328 99.6448 237.194 100.286 237.055 100.94C236.421 100.781 235.785 100.625 235.147 100.472C211.221 94.7387 184.154 93.2628 163.827 96.8339C163.165 96.9502 162.51 97.0719 161.863 97.1989C161.863 97.0536 161.863 96.9084 161.863 96.7634C161.863 96.2398 161.863 95.7181 161.863 95.1982Z" fill="#0B9561"/>
<path d="M236.72 72.4338C236.638 72.939 235.913 74.4318 235.356 74.6401C235.526 72.6296 235.597 68.1421 232.449 67.5597C229.3 66.9772 225.265 68.111 220.665 68.0179C216.985 67.9435 213.092 67.1085 211.605 66.7003C219.173 68.6778 230.008 65.6534 233.685 64.4038C236.064 65.046 236.93 71.1361 236.72 72.4338Z" fill="#7E62A1"/>
<path d="M229.564 26.0378C228.027 24.9206 224.527 23.4341 222.263 22.9813C225.263 22.9813 229.025 24.1114 229.564 26.0378Z" fill="#B2FFE2"/>
<path d="M239.393 41.4126C243.041 41.7925 245.847 40.5313 247.305 39.6321C246.408 41.5996 243.508 42.5348 239.393 41.4126Z" fill="#B2FFE2"/>
<path d="M221.551 18.2761C219.42 14.744 215.486 14.2646 213.121 13.1018C215.251 12.788 220.737 13.6057 221.551 18.2761Z" fill="#B2FFE2"/>
<path d="M204.284 14.8073C201.3 11.164 191.358 5.58176 188.083 5.31123C192.909 4.24558 202.656 10.2338 204.284 14.8073Z" fill="#B2FFE2"/>
<path d="M259.321 25.1958C263.449 17.5216 258.914 9.44041 248.256 8.1226C257.713 7.07613 266.863 16.0875 259.321 25.1958Z" fill="#B2FFE2"/>
<path d="M234.109 20.1181C230.717 17.4632 228.411 17.3468 226.047 16.1841C228.177 15.8703 231.105 16.1841 234.109 20.1181Z" fill="#B2FFE2"/>
<path d="M239.961 50.064C242.807 49.7834 241.771 54.604 238.91 55.1073C221.062 58.2473 213.768 54.9269 206.707 50.9057C199.646 46.8844 193.638 38.3686 194.923 36.4094C196.209 34.4503 207.736 43.5178 213.815 45.1067C219.894 46.6955 225.247 46.8244 230.321 46.8845C235.396 46.9445 237.911 45.4867 239.961 46.2763C242.011 47.066 242.246 48.9885 239.961 50.064Z" fill="#D7821E"/>
<path d="M233.195 40.8947C232.91 40.131 231.772 40.0094 229.914 39.9053C227.432 40.0094 227.279 40.5857 227.224 41.0162C227.154 41.5544 228.647 42.7869 228.873 43.0473C229.098 43.3076 229.741 44.5922 228.873 45.0783C229.22 45.2171 229.845 45.7726 231.043 45.0783C232.24 44.3839 233.577 41.9189 233.195 40.8947Z" fill="#4B4B4B"/>
<path d="M232.748 41.1182C232.71 41.3479 232.219 41.4577 231.652 41.3634C231.084 41.2692 230.656 41.0067 230.694 40.7771C230.732 40.5475 231.223 40.4377 231.79 40.5319C232.357 40.6261 232.786 40.8886 232.748 41.1182Z" fill="white"/>
<path d="M260.76 45.9333C256.913 44.8744 243.655 42.9002 234.353 42.5869C234.313 42.5855 234.281 42.6176 234.282 42.6573C234.282 42.6949 234.309 42.7252 234.346 42.7261C239.915 42.8508 255.915 45.4231 260.549 46.641C260.824 46.7133 261.075 46.4595 261.002 46.1845C260.97 46.062 260.883 45.9669 260.76 45.9333Z" fill="#382F43"/>
<path d="M258.586 50.3179C255.994 49.134 242.563 45.1728 234.19 43.8372C234.154 43.8316 234.124 43.8594 234.124 43.8952C234.124 43.9228 234.144 43.9462 234.171 43.9512C243.354 45.649 254.833 49.9386 258.279 51.3143C258.528 51.4138 258.795 51.2268 258.791 50.9585L258.787 50.6372C258.786 50.4997 258.711 50.375 258.586 50.3179Z" fill="#382F43"/>
<path d="M193.831 37.6362C209.48 36.6584 220.832 40.2052 226.117 41.2149C226.142 41.2196 226.161 41.2367 226.169 41.2604C226.188 41.3126 226.146 41.3659 226.092 41.3543C223.472 40.7941 214.663 39.1914 210.09 38.6904C205.651 38.204 197.032 38.2965 193.889 38.5437C193.67 38.5609 193.485 38.3906 193.482 38.1713L193.48 38.0138C193.477 37.815 193.633 37.6486 193.831 37.6362Z" fill="#382F43"/>
<path d="M202 41.4265L202.149 42.0032C202.198 42.195 202.388 42.3151 202.582 42.2787C209.984 40.8967 219.035 41.2212 226.337 43.0278C226.391 43.0413 226.438 42.9871 226.416 42.9352C226.408 42.9149 226.391 42.8999 226.369 42.8947C218.893 41.0733 210.04 40.4077 202.333 40.9618C202.101 40.9784 201.943 41.2014 202 41.4265Z" fill="#382F43"/>
<path fill-rule="evenodd" clip-rule="evenodd" d="M226.448 42.5739L226.48 42.4408C226.648 42.4817 226.785 42.6008 226.849 42.7588C227.013 43.1587 226.657 43.5891 226.225 43.4821C218.985 41.691 210.002 41.3695 202.668 42.7388C202.232 42.8202 201.807 42.5511 201.696 42.1202L201.548 41.5435C201.418 41.0391 201.773 40.5336 202.299 40.4958C210.052 39.9385 218.954 40.6072 226.48 42.4408L226.448 42.5739ZM226.076 41.429L226.076 41.4291L226.076 41.429C237.257 42.8362 241.505 43.3451 245.899 43.9889C251.795 44.8527 257.954 45.9594 260.549 46.6414C260.824 46.7137 261.075 46.4599 261.002 46.1849C260.97 46.0624 260.883 45.9673 260.76 45.9337C258.378 45.278 252.387 44.2713 245.961 43.5253C242.155 43.0835 238.197 42.7332 234.745 42.6014C234.613 42.5964 234.483 42.5917 234.353 42.5873C234.352 42.5872 234.351 42.5872 234.35 42.5872C234.311 42.5876 234.281 42.6191 234.282 42.6578C234.282 42.6953 234.309 42.7256 234.346 42.7265C234.347 42.7265 234.347 42.7265 234.348 42.7265C234.474 42.7293 234.605 42.7334 234.741 42.7387M234.339 43.0547C234.338 43.0547 234.338 43.0546 234.337 43.0546ZM234.368 42.1199C243.696 42.4341 256.992 44.4115 260.885 45.4828C261.181 45.5644 261.383 45.7961 261.455 46.0656C261.617 46.6831 261.055 47.2581 260.43 47.0937C258.139 46.4916 253.003 45.5471 247.727 44.7362C242.449 43.9249 237.086 43.2556 234.336 43.194C234.017 43.1868 233.817 42.9226 233.814 42.6638C233.81 42.3656 234.054 42.1093 234.368 42.1199ZM234.569 44.0266C237.807 44.6468 241.307 45.5749 244.628 46.5747C250.655 48.3895 256.089 50.4404 258.279 51.3147C258.528 51.4142 258.795 51.2272 258.792 50.9589L258.787 50.6376C258.786 50.5001 258.711 50.3754 258.586 50.3183C256.953 49.5723 251.016 47.7236 244.752 46.1239C241.233 45.2251 237.611 44.405 234.592 43.9031C234.566 43.8989 234.541 43.8947 234.516 43.8905C234.407 43.8726 234.299 43.8551 234.192 43.838C234.191 43.8379 234.19 43.8378 234.19 43.8377C234.154 43.832 234.124 43.8598 234.124 43.8956C234.124 43.9232 234.144 43.9466 234.171 43.9516C234.171 43.9517 234.171 43.9517 234.171 43.9517C234.304 43.9762 234.436 44.0011 234.569 44.0266ZM248.68 46.6841C253.402 47.9874 257.445 49.2828 258.781 49.8929C259.085 50.0321 259.251 50.3303 259.255 50.6316L259.259 50.9529C259.267 51.5478 258.67 51.9745 258.105 51.749C254.664 50.375 243.221 46.1004 234.086 44.4115C233.836 44.3652 233.66 44.1485 233.657 43.9017C233.652 43.5905 233.927 43.3223 234.263 43.3759C238.475 44.0477 243.946 45.3772 248.68 46.6841ZM222.961 40.048C224.219 40.3358 225.304 40.5838 226.205 40.756C226.402 40.7937 226.549 40.9336 226.61 41.104C226.732 41.4489 226.459 41.9114 225.994 41.812C223.382 41.2536 214.591 39.6543 210.039 39.1556C205.637 38.6733 197.048 38.7647 193.926 39.0103C193.437 39.0488 193.02 38.6663 193.014 38.1778L193.012 38.0203C193.006 37.5695 193.358 37.1977 193.802 37.1699C206.823 36.3563 216.905 38.6625 222.961 40.048ZM216.027 39.5339C213.827 39.1789 211.697 38.8668 210.09 38.6908C205.651 38.2045 197.032 38.2969 193.889 38.5441C193.67 38.5613 193.485 38.391 193.482 38.1717L193.48 38.0142C193.477 37.8154 193.633 37.649 193.831 37.6366C202.773 37.0779 210.312 37.9965 216.118 39.0749C218.717 39.5577 220.969 40.0726 222.844 40.5012C223.938 40.7513 224.903 40.972 225.734 41.14C225.865 41.1664 225.993 41.1915 226.117 41.2153C226.119 41.2156 226.12 41.2159 226.122 41.2163C226.144 41.2222 226.161 41.2386 226.169 41.2608C226.188 41.313 226.146 41.3663 226.092 41.3547C226.092 41.3546 226.091 41.3545 226.091 41.3544C226.053 41.3464 226.015 41.3382 225.975 41.3298C225.891 41.3121 225.801 41.2934 225.706 41.2739C223.803 40.8819 219.81 40.1443 216.027 39.5339ZM213.413 41.4318C217.732 41.4989 222.077 42.011 225.954 42.9353C226.052 42.9585 226.148 42.9819 226.245 43.0056C226.276 43.0131 226.306 43.0207 226.337 43.0282L226.259 43.3494M225.987 42.8032C222.047 41.8699 217.742 41.2539 213.433 40.9644C209.654 40.7105 205.873 40.7077 202.333 40.9622C202.101 40.9789 201.943 41.2018 202.001 41.4269L202.149 42.0036C202.198 42.1954 202.388 42.3155 202.582 42.2792C205.957 41.649 209.675 41.3736 213.413 41.4318M225.987 42.8032C226.115 42.8335 226.242 42.8641 226.369 42.8951C226.37 42.8951 226.37 42.8952 226.37 42.8952C226.391 42.9005 226.408 42.9155 226.416 42.9356C226.438 42.9875 226.391 43.0417 226.337 43.0282" fill="white"/>
<path d="M207.549 46.4973C218.881 50.4727 230.602 51.9807 239.066 50.2038C231.163 55.3475 217.977 53.1497 207.549 46.4973Z" fill="#F1F1F1"/>
<path d="M235.185 50.7646C232.145 50.9985 230.649 50.9985 226.721 50.7646C229.569 53.3452 229.297 57.7942 229.297 57.7942C231.073 58.6826 233.263 58.1979 234.468 57.1286C235.383 54.7935 235.508 52.4458 235.185 50.7646Z" fill="#F1F1F1"/>
<path d="M234.468 57.1282C235.383 54.7932 235.414 52.726 235.091 51.0449C235.025 52.7159 234.945 54.3224 234.06 56.5855C233.756 56.9269 233.101 57.2352 232.582 57.2758C232.673 56.4329 233.04 54.2277 232.565 52.6106C232.394 54.8702 232.451 55.5971 231.962 57.5854C231.597 57.7417 230.504 57.5532 230.023 57.2844C230.076 55.0689 228.903 52.7578 227.595 51.3975C228.723 53.5728 229.484 55.742 229.297 57.7939C231.073 58.6823 233.263 58.1975 234.468 57.1282Z" fill="#8B8B8B"/>
<path d="M230.601 32.7121C231.186 38.355 221.417 38.78 217.585 37.9813C213.752 37.1826 210.027 36.0121 205.183 32.712C209.441 34.362 215.479 36.0651 217.585 36.3304C219.69 36.5958 228.419 37.4395 229.537 33.9353C227.195 32.7121 223.005 32.1808 220.116 32.0192C213.236 31.6346 206.845 32.4709 207.182 32.3384C207.728 32.1239 216.869 30.5822 219.53 30.6354C222.191 30.6886 227.727 31.1686 230.601 32.7121Z" fill="#0B9561"/>
<path fill-rule="evenodd" clip-rule="evenodd" d="M230.632 32.6911L230.616 32.6829C229.174 31.9084 227.067 31.4019 224.991 31.0822C222.913 30.7624 220.863 30.629 219.531 30.6024C218.197 30.5757 215.243 30.9484 212.558 31.3538C211.215 31.5567 209.937 31.7679 208.962 31.9418C208.474 32.0288 208.061 32.1064 207.754 32.1691C207.6 32.2004 207.472 32.228 207.374 32.2512C207.277 32.2742 207.207 32.2932 207.17 32.3076C207.164 32.3098 207.157 32.3131 207.151 32.318C207.148 32.3201 207.141 32.3262 207.138 32.3367C207.134 32.3512 207.14 32.3639 207.147 32.3712C207.153 32.3768 207.159 32.3792 207.162 32.3802C207.166 32.3814 207.17 32.3822 207.173 32.3827C207.179 32.3838 207.187 32.3843 207.195 32.3847C207.226 32.386 207.283 32.3839 207.361 32.3792C207.517 32.3697 207.766 32.3494 208.095 32.3226L208.096 32.3225C208.755 32.2688 209.737 32.1887 210.944 32.1165C213.359 31.9721 216.676 31.8593 220.114 32.0514C221.558 32.1322 223.326 32.3053 225.026 32.6109C226.714 32.9145 228.332 33.3485 229.497 33.9512C229.215 34.8 228.475 35.3909 227.481 35.7946C226.477 36.2023 225.219 36.4167 223.928 36.5135C221.346 36.7072 218.64 36.4303 217.588 36.2977C215.487 36.0328 209.452 34.3308 205.195 32.6812L205.165 32.7386C210.012 36.0416 213.742 37.2135 217.578 38.0129C219.498 38.4132 222.904 38.5067 225.757 37.7936C227.184 37.4371 228.476 36.8781 229.375 36.052C230.275 35.2246 230.781 34.1301 230.633 32.7083L230.632 32.6911ZM229.536 33.935C227.194 32.7117 223.005 32.1804 220.116 32.0189C214.956 31.7304 210.07 32.1288 208.093 32.29C207.664 32.3249 207.373 32.3487 207.244 32.352C207.227 32.3525 207.212 32.3525 207.201 32.3522C207.196 32.3521 207.191 32.3519 207.187 32.3515C207.165 32.3498 207.163 32.3454 207.182 32.338C207.187 32.3361 207.192 32.3342 207.198 32.3321C207.21 32.3282 207.223 32.324 207.239 32.3195C208.181 32.0474 216.935 30.5831 219.53 30.635C222.191 30.6882 227.727 31.1682 230.601 32.7117C231.186 38.3546 221.417 38.7796 217.584 37.9809C213.784 37.1888 210.088 36.0309 205.302 32.7928C205.263 32.7659 205.223 32.7388 205.183 32.7117C205.228 32.729 205.273 32.7463 205.318 32.7636C209.567 34.3972 215.501 36.0675 217.584 36.3301C219.69 36.5954 228.419 37.4391 229.536 33.935Z" fill="#0B9561"/>
<path d="M234.155 91.1598C238.156 92.5826 251.787 93.123 252.837 87.7204C253.886 82.3177 243.274 80.5165 238.068 79.2821C237.613 83.9567 236.914 87.0746 234.155 91.1598Z" fill="#00E28D"/>
<path fill-rule="evenodd" clip-rule="evenodd" d="M237.887 77.6062C237.148 77.6991 236.254 77.8348 235.478 77.9625C235.046 78.0335 234.655 78.1014 234.351 78.1572C234.199 78.1851 234.071 78.2096 233.973 78.2295C233.924 78.2395 233.884 78.2479 233.853 78.2548C233.838 78.2582 233.826 78.261 233.817 78.2631C233.808 78.2654 233.804 78.2664 233.804 78.2663L233.323 76.5059C233.557 76.4418 234.331 76.3015 235.182 76.1616C236.06 76.0171 237.103 75.8597 237.923 75.7632C238.878 75.6507 239.723 76.3892 239.716 77.3648C239.701 79.4003 239.37 83.2359 238.207 86.2044C237.051 89.1545 235.666 91.6525 234.274 93.2947C233.679 93.9964 232.673 94.0212 232.017 93.4934L228.705 90.8279L229.849 89.4059L233.015 91.9538C234.192 90.5111 235.434 88.2777 236.507 85.5386C237.508 82.9841 237.848 79.5933 237.887 77.6062Z" fill="#3C2A53"/>
<g filter="url(#filter0_d_319_219)">
<path fill-rule="evenodd" clip-rule="evenodd" d="M229.751 105.979C228.77 105.954 227.939 105.941 227.019 105.921C219.617 105.765 213.829 95.5947 214.091 83.206C214.354 70.8173 220.567 60.9013 227.969 61.058C228.889 61.0775 229.58 61.0963 230.537 61.1124C231.495 61.1285 232.42 61.1523 233.339 61.1717C240.741 61.3284 246.529 71.4984 246.267 83.8871C246.005 96.2758 239.791 106.192 232.389 106.035C231.47 106.016 230.732 106.004 229.751 105.979Z" fill="#00E28D"/>
<path fill-rule="evenodd" clip-rule="evenodd" d="M232.402 61.8451C231.785 61.8311 231.163 61.817 230.526 61.8063C229.893 61.7957 229.374 61.7838 228.831 61.7714C228.551 61.765 228.265 61.7585 227.954 61.7519C224.594 61.6808 221.384 63.8971 218.941 67.7959C216.507 71.6806 214.914 77.1298 214.786 83.2204C214.657 89.3111 216.017 94.8228 218.285 98.8071C220.56 102.806 223.674 105.156 227.034 105.227C227.339 105.234 227.636 105.239 227.933 105.245C228.524 105.257 229.114 105.268 229.769 105.285C230.416 105.301 230.955 105.312 231.513 105.323C231.8 105.328 232.091 105.334 232.404 105.341C235.764 105.412 238.974 103.196 241.417 99.2968C243.851 95.412 245.444 89.9629 245.573 83.8722C245.702 77.7815 244.341 72.2699 242.074 68.2856C239.798 64.2869 236.684 61.9367 233.324 61.8656C233.017 61.8591 232.71 61.8521 232.402 61.8451ZM232.439 60.4572C232.746 60.4641 233.051 60.471 233.354 60.4774C237.396 60.563 240.877 63.3762 243.28 67.5988C245.692 71.8359 247.094 77.6036 246.961 83.9016C246.828 90.1996 245.182 95.9027 242.594 100.034C240.014 104.151 236.417 106.814 232.375 106.729C232.066 106.722 231.777 106.717 231.492 106.711C230.931 106.7 230.384 106.69 229.733 106.673C229.083 106.656 228.5 106.645 227.911 106.633C227.613 106.628 227.314 106.622 227.004 106.615C222.962 106.53 219.481 103.716 217.078 99.4938C214.666 95.2567 213.264 89.4891 213.397 83.1911C213.531 76.8931 215.176 71.1899 217.764 67.0587C220.344 62.9415 223.941 60.2782 227.984 60.3638C228.3 60.3704 228.588 60.377 228.868 60.3834C229.408 60.3958 229.92 60.4075 230.549 60.4181C231.19 60.4288 231.819 60.4431 232.439 60.4572Z" fill="#0B9561"/>
<path fill-rule="evenodd" clip-rule="evenodd" d="M221.913 63.4073C221.918 63.1401 222.14 62.9281 222.407 62.9338L229.992 63.0943C230.259 63.1 230.471 63.3212 230.465 63.5884C230.46 63.8555 230.239 64.0675 229.971 64.0619L222.386 63.9013C222.119 63.8957 221.907 63.6745 221.913 63.4073ZM219.535 65.5889C219.541 65.3217 219.762 65.1097 220.029 65.1154L227.615 65.2759C227.882 65.2816 228.094 65.5028 228.088 65.7699C228.083 66.0371 227.861 66.2491 227.594 66.2435L220.009 66.0829C219.742 66.0772 219.53 65.8561 219.535 65.5889ZM218.793 67.321C218.525 67.3153 218.304 67.5273 218.299 67.7945C218.293 68.0617 218.505 68.2829 218.772 68.2885L226.357 68.4491C226.624 68.4548 226.846 68.2428 226.851 67.9756C226.857 67.7084 226.645 67.4872 226.378 67.4816L218.793 67.321ZM217.012 69.9992C217.018 69.732 217.239 69.52 217.506 69.5257L225.091 69.6862C225.358 69.6919 225.57 69.9131 225.565 70.1802C225.559 70.4474 225.338 70.6594 225.071 70.6538L217.485 70.4932C217.218 70.4875 217.006 70.2664 217.012 69.9992ZM216.715 71.7409C216.448 71.7352 216.227 71.9473 216.221 72.2144C216.215 72.4816 216.427 72.7028 216.695 72.7084L224.28 72.869C224.547 72.8747 224.768 72.6627 224.774 72.3955C224.779 72.1283 224.567 71.9071 224.3 71.9015L216.715 71.7409ZM215.529 74.4321C215.535 74.1649 215.756 73.9529 216.023 73.9585L223.609 74.1191C223.876 74.1248 224.088 74.346 224.082 74.6131C224.076 74.8803 223.855 75.0923 223.588 75.0867L216.003 74.9261C215.736 74.9204 215.524 74.6993 215.529 74.4321ZM215.034 76.1695C214.767 76.1638 214.546 76.3758 214.54 76.643C214.534 76.9102 214.746 77.1314 215.014 77.137L222.599 77.2976C222.866 77.3032 223.087 77.0912 223.093 76.8241C223.099 76.5569 222.887 76.3357 222.619 76.33L215.034 76.1695ZM214.493 78.8741C214.498 78.6069 214.72 78.3949 214.987 78.4006L222.572 78.5612C222.839 78.5668 223.051 78.788 223.046 79.0552C223.04 79.3223 222.819 79.5344 222.552 79.5287L214.966 79.3681C214.699 79.3625 214.487 79.1413 214.493 78.8741ZM214.939 80.6312C214.672 80.6255 214.451 80.8376 214.445 81.1047C214.44 81.3719 214.652 81.5931 214.919 81.5988L222.504 81.7593C222.771 81.765 222.993 81.553 222.998 81.2858C223.004 81.0186 222.792 80.7974 222.525 80.7918L214.939 80.6312ZM214.398 83.3358C214.404 83.0687 214.625 82.8567 214.892 82.8623L222.478 83.0229C222.745 83.0285 222.957 83.2497 222.951 83.5169C222.945 83.7841 222.724 83.9961 222.457 83.9904L214.872 83.8299C214.605 83.8242 214.393 83.603 214.398 83.3358ZM214.846 85.0439C214.579 85.0382 214.358 85.2503 214.352 85.5174C214.347 85.7846 214.559 86.0058 214.826 86.0115L222.411 86.172C222.678 86.1777 222.899 85.9657 222.905 85.6985C222.911 85.4313 222.699 85.2101 222.431 85.2045L214.846 85.0439ZM214.305 87.7481C214.31 87.4809 214.532 87.2689 214.799 87.2745L222.384 87.4351C222.651 87.4408 222.863 87.6619 222.858 87.9291C222.852 88.1963 222.631 88.4083 222.364 88.4027L214.778 88.2421C214.511 88.2364 214.299 88.0152 214.305 87.7481ZM214.752 89.5056C214.485 89.5 214.263 89.712 214.258 89.9792C214.252 90.2464 214.464 90.4675 214.731 90.4732L222.316 90.6338C222.584 90.6394 222.805 90.4274 222.81 90.1602C222.816 89.8931 222.604 89.6719 222.337 89.6662L214.752 89.5056ZM215.152 92.23C215.158 91.9628 215.379 91.7508 215.646 91.7565L223.232 91.917C223.499 91.9227 223.711 92.1439 223.705 92.4111C223.699 92.6782 223.478 92.8902 223.211 92.8846L215.626 92.724C215.359 92.7184 215.147 92.4972 215.152 92.23ZM216.244 94.001C215.977 93.9954 215.755 94.2074 215.75 94.4746C215.744 94.7417 215.956 94.9629 216.223 94.9686L223.808 95.1292C224.076 95.1348 224.297 94.9228 224.302 94.6556C224.308 94.3884 224.096 94.1673 223.829 94.1616L216.244 94.001ZM216.446 96.7215C216.452 96.4544 216.673 96.2424 216.94 96.248L224.526 96.4086C224.793 96.4142 225.005 96.6354 224.999 96.9026C224.993 97.1698 224.772 97.3818 224.505 97.3761L216.92 97.2156C216.653 97.2099 216.441 96.9887 216.446 96.7215ZM218.281 98.508C218.014 98.5023 217.793 98.7143 217.787 98.9815C217.781 99.2487 217.993 99.4699 218.261 99.4755L225.846 99.6361C226.113 99.6417 226.334 99.4297 226.34 99.1626C226.345 98.8954 226.133 98.6742 225.866 98.6685L218.281 98.508ZM219.376 101.247C219.382 100.98 219.603 100.768 219.87 100.774L227.455 100.934C227.722 100.94 227.934 101.161 227.929 101.428C227.923 101.695 227.702 101.907 227.435 101.902L219.849 101.741C219.582 101.736 219.37 101.514 219.376 101.247ZM221.954 103.05C221.687 103.044 221.466 103.256 221.46 103.524C221.455 103.791 221.667 104.012 221.934 104.018L229.519 104.178C229.786 104.184 230.007 103.972 230.013 103.705C230.019 103.437 229.807 103.216 229.54 103.211L221.954 103.05Z" fill="#0B9561"/>
<path d="M247.011 83.9026C246.754 96.0184 240.309 105.708 232.615 105.545C224.921 105.383 218.892 95.4286 219.148 83.3127C219.405 71.1969 225.85 61.507 233.544 61.6699C241.238 61.8328 247.267 71.7867 247.011 83.9026Z" fill="url(#paint5_linear_319_219)"/>
<path fill-rule="evenodd" clip-rule="evenodd" d="M241.404 98.5321C243.836 94.8757 245.449 89.6994 245.573 83.8721C245.696 78.0448 244.304 72.8049 242.029 69.0489C239.743 65.2752 236.697 63.175 233.513 63.1076C230.33 63.0402 227.198 65.0096 224.754 68.6832C222.322 72.3396 220.709 77.5159 220.586 83.3432C220.463 89.1705 221.855 94.4104 224.13 98.1664C226.416 101.94 229.462 104.04 232.645 104.108C235.829 104.175 238.961 102.206 241.404 98.5321ZM232.615 105.545C240.309 105.708 246.754 96.0184 247.011 83.9026C247.267 71.7867 241.238 61.8328 233.544 61.6699C225.85 61.507 219.405 71.1969 219.148 83.3127C218.892 95.4286 224.921 105.383 232.615 105.545Z" fill="#0B9561"/>
<path d="M226.639 90.3956L231.182 94.7162C232.092 95.5818 233.51 95.615 234.46 94.7931L239.232 90.663C239.753 90.2114 240.06 89.5599 240.074 88.87L240.294 78.4746C240.309 77.7779 240.025 77.1082 239.514 76.6343L234.92 72.3725C234.01 71.5284 232.612 71.502 231.67 72.3111L226.951 76.3691C226.425 76.8208 226.117 77.4747 226.102 78.1674L225.881 88.5762C225.867 89.2622 226.142 89.9227 226.639 90.3956Z" fill="#00E28D"/>
<g filter="url(#filter1_f_319_219)">
<path d="M238.084 83.6816C237.993 87.9835 235.679 91.4234 232.916 91.3649C230.154 91.3064 227.988 87.7717 228.079 83.4698C228.17 79.168 230.484 75.7281 233.246 75.7866C236.009 75.845 238.175 79.3798 238.084 83.6816Z" fill="white"/>
</g>
<path fill-rule="evenodd" clip-rule="evenodd" d="M231.474 81.0918C232.384 81.9565 233.802 81.9898 234.751 81.1687L239.54 77.0267L240.133 78.7282L234.488 83.6109C233.965 84.0625 233.659 84.7143 233.644 85.4045L233.44 95.0447L232.187 95.0182L232.391 85.3687C232.406 84.6824 232.131 84.0216 231.633 83.5486L226.25 78.4324L226.918 76.7615L231.474 81.0918Z" fill="#00E28D"/>
</g>
<path d="M198.931 89.0424C203.815 91.126 220.567 93.5614 221.997 87.8536C223.427 82.1458 210.419 78.7548 204.048 76.7116C203.369 81.7117 202.429 84.9931 198.931 89.0424Z" fill="#00E28D"/>
<path fill-rule="evenodd" clip-rule="evenodd" d="M203.916 75.876C203.173 75.9172 202.271 75.9903 201.488 76.0637C201.052 76.1045 200.657 76.145 200.35 76.1795C200.196 76.1968 200.068 76.2123 199.968 76.2253C199.918 76.2318 199.878 76.2375 199.847 76.2422C199.831 76.2445 199.819 76.2465 199.81 76.248C199.801 76.2496 199.797 76.2503 199.797 76.2503L199.439 74.4606C199.678 74.4129 200.459 74.3269 201.318 74.2465C202.204 74.1636 203.256 74.0792 204.08 74.04C205.041 73.9943 205.832 74.7898 205.757 75.7625C205.6 77.792 205.003 81.5953 203.636 84.4756C202.278 87.3381 200.722 89.7336 199.219 91.2748C198.577 91.9334 197.572 91.8882 196.954 91.316L193.835 88.4262L195.076 87.0874L198.057 89.8495C199.331 88.4923 200.726 86.3508 201.987 83.6931C203.164 81.2145 203.738 77.8555 203.916 75.876Z" fill="#3C2A53"/>
<path d="M250.147 36.0638C249.637 34.4724 245.332 33.4216 243.368 33.2287C241.405 33.0358 236.728 32.6674 232.894 34.3976C235.372 34.4049 244.636 33.7097 250.147 36.0638Z" fill="#0B9561"/>
<defs>
<filter id="filter0_d_319_219" x="206.257" y="52.3776" width="47.4684" height="60.2076" filterUnits="userSpaceOnUse" color-interpolation-filters="sRGB">
<feFlood flood-opacity="0" result="BackgroundImageFix"/>
<feColorMatrix in="SourceAlpha" type="matrix" values="0 0 0 0 0 0 0 0 0 0 0 0 0 0 0 0 0 0 127 0" result="hardAlpha"/>
<feOffset dx="-0.2129" dy="-1.0645"/>
<feGaussianBlur stdDeviation="3.45962"/>
<feComposite in2="hardAlpha" operator="out"/>
<feColorMatrix type="matrix" values="0 0 0 0 1 0 0 0 0 1 0 0 0 0 1 0 0 0 1 0"/>
<feBlend mode="normal" in2="BackgroundImageFix" result="effect1_dropShadow_319_219"/>
<feBlend mode="normal" in="SourceGraphic" in2="effect1_dropShadow_319_219" result="shape"/>
</filter>
<filter id="filter1_f_319_219" x="223.685" y="71.3946" width="18.7933" height="24.3622" filterUnits="userSpaceOnUse" color-interpolation-filters="sRGB">
<feFlood flood-opacity="0" result="BackgroundImageFix"/>
<feBlend mode="normal" in="SourceGraphic" in2="BackgroundImageFix" result="shape"/>
<feGaussianBlur stdDeviation="2.19577" result="effect1_foregroundBlur_319_219"/>
</filter>
<linearGradient id="paint0_linear_319_219" x1="135.105" y1="67.2707" x2="164.927" y2="235.625" gradientUnits="userSpaceOnUse">
<stop offset="0.0733165" stop-color="#765C97"/>
<stop offset="1" stop-color="#0B070F"/>
</linearGradient>
<linearGradient id="paint1_linear_319_219" x1="101.23" y1="36.8845" x2="109.289" y2="82.3841" gradientUnits="userSpaceOnUse">
<stop offset="0.0733165" stop-color="#765C97"/>
<stop offset="1" stop-color="#0B070F"/>
</linearGradient>
<linearGradient id="paint2_linear_319_219" x1="31.6806" y1="20.3506" x2="42.8117" y2="83.1899" gradientUnits="userSpaceOnUse">
<stop offset="0.0733165" stop-color="#765C97"/>
<stop offset="1" stop-color="#0B070F"/>
</linearGradient>
<linearGradient id="paint3_linear_319_219" x1="74.1808" y1="57.3162" x2="78.9515" y2="84.2489" gradientUnits="userSpaceOnUse">
<stop offset="0.0733165" stop-color="#765C97"/>
<stop offset="1" stop-color="#0B070F"/>
</linearGradient>
<linearGradient id="paint4_linear_319_219" x1="285.163" y1="50.4348" x2="296.469" y2="114.263" gradientUnits="userSpaceOnUse">
<stop offset="0.0733165" stop-color="#765C97"/>
<stop offset="1" stop-color="#0B070F"/>
</linearGradient>
<linearGradient id="paint5_linear_319_219" x1="248.445" y1="71.2108" x2="207.354" y2="113.269" gradientUnits="userSpaceOnUse">
<stop offset="0.0733165" stop-color="#D9D9D9"/>
<stop offset="1" stop-color="#20FFAB"/>
</linearGradient>
</defs>
</svg>
