<svg width="77" height="55" viewBox="0 0 77 55" fill="none" xmlns="http://www.w3.org/2000/svg">
<path d="M17.9961 53.5294L17.5986 53.2261C17.4361 53.439 17.4703 53.7422 17.676 53.9136C17.8818 54.085 18.1861 54.0639 18.3662 53.8656L17.9961 53.5294ZM23.3241 46.5474V46.0474H23.0767L22.9267 46.244L23.3241 46.5474ZM38.1666 46.5474H38.6666V46.0474H38.1666V46.5474ZM38.1666 48.4868L38.2064 48.9852L38.6666 48.9484V48.4868H38.1666ZM18.3936 53.8328L23.7216 46.8507L22.9267 46.244L17.5986 53.2261L18.3936 53.8328ZM23.3241 47.0474H38.1666V46.0474H23.3241V47.0474ZM37.6666 46.5474V48.4868H38.6666V46.5474H37.6666ZM38.1666 48.4868C38.1267 47.9884 38.1266 47.9884 38.1266 47.9884C38.1265 47.9884 38.1264 47.9885 38.1262 47.9885C38.1259 47.9885 38.1254 47.9885 38.1248 47.9886C38.1236 47.9887 38.1218 47.9888 38.1195 47.989C38.1147 47.9894 38.1077 47.99 38.0984 47.9907C38.0798 47.9922 38.0522 47.9944 38.016 47.9974C37.9438 48.0033 37.8374 48.012 37.7006 48.0234C37.427 48.0462 37.0319 48.0796 36.5453 48.1221C35.5722 48.207 34.2329 48.3284 32.768 48.4742C29.8464 48.7648 26.3986 49.1546 24.3707 49.5475L24.561 50.5293C26.5365 50.1465 29.939 49.7605 32.867 49.4692C34.3268 49.324 35.662 49.203 36.6323 49.1183C37.1174 49.0759 37.5112 49.0426 37.7835 49.02C37.9197 49.0086 38.0256 48.9999 38.0973 48.9941C38.1332 48.9912 38.1605 48.9889 38.1789 48.9875C38.188 48.9867 38.195 48.9862 38.1996 48.9858C38.2019 48.9856 38.2036 48.9855 38.2048 48.9854C38.2053 48.9853 38.2058 48.9853 38.206 48.9853C38.2062 48.9853 38.2063 48.9853 38.2063 48.9852C38.2064 48.9852 38.2064 48.9852 38.1666 48.4868ZM24.3707 49.5475C22.2821 49.9523 20.6005 50.8613 19.4445 51.6642C18.8655 52.0663 18.4152 52.4439 18.108 52.7229C17.9542 52.8624 17.836 52.9775 17.7552 53.0589C17.7147 53.0996 17.6836 53.1319 17.662 53.1547C17.6512 53.1661 17.6428 53.1751 17.6368 53.1816C17.6338 53.1848 17.6314 53.1874 17.6296 53.1894C17.6287 53.1903 17.6279 53.1911 17.6273 53.1918C17.627 53.1921 17.6268 53.1924 17.6265 53.1927C17.6264 53.1928 17.6263 53.1929 17.6262 53.193C17.6261 53.1931 17.626 53.1933 17.9961 53.5294C18.3662 53.8656 18.3661 53.8657 18.366 53.8658C18.366 53.8659 18.3659 53.866 18.3659 53.866C18.3658 53.8661 18.3658 53.8661 18.3658 53.8661C18.3658 53.8661 18.3659 53.8659 18.3662 53.8656C18.3668 53.8649 18.368 53.8636 18.3698 53.8617C18.3734 53.8579 18.3793 53.8515 18.3875 53.8428C18.404 53.8255 18.4298 53.7987 18.4646 53.7636C18.5343 53.6935 18.64 53.5904 18.7801 53.4633C19.0604 53.2088 19.4769 52.8592 20.0149 52.4855C21.0929 51.7368 22.6463 50.9003 24.561 50.5293L24.3707 49.5475Z" fill="#343434"/>
<path d="M58.3379 53.5294L58.7354 53.2261C58.8979 53.439 58.8637 53.7422 58.6579 53.9136C58.4522 54.085 58.1479 54.0639 57.9678 53.8656L58.3379 53.5294ZM53.0098 46.5474V46.0474H53.2572L53.4073 46.244L53.0098 46.5474ZM38.1674 46.5474H37.6674V46.0474H38.1674V46.5474ZM38.1674 48.4868L38.1276 48.9852L37.6674 48.9484V48.4868H38.1674ZM57.9404 53.8328L52.6124 46.8507L53.4073 46.244L58.7354 53.2261L57.9404 53.8328ZM53.0098 47.0474H38.1674V46.0474H53.0098V47.0474ZM38.6674 46.5474V48.4868H37.6674V46.5474H38.6674ZM38.1674 48.4868C38.2073 47.9884 38.2073 47.9884 38.2074 47.9884C38.2075 47.9884 38.2076 47.9885 38.2078 47.9885C38.2081 47.9885 38.2086 47.9885 38.2092 47.9886C38.2104 47.9887 38.2122 47.9888 38.2145 47.989C38.2193 47.9894 38.2263 47.99 38.2356 47.9907C38.2542 47.9922 38.2818 47.9944 38.3179 47.9974C38.3902 48.0033 38.4966 48.012 38.6334 48.0234C38.907 48.0462 39.3021 48.0796 39.7887 48.1221C40.7618 48.207 42.1011 48.3284 43.566 48.4742C46.4876 48.7648 49.9354 49.1546 51.9632 49.5475L51.773 50.5293C49.7975 50.1465 46.3949 49.7605 43.467 49.4692C42.0072 49.324 40.672 49.203 39.7017 49.1183C39.2166 49.0759 38.8228 49.0426 38.5504 49.02C38.4142 49.0086 38.3084 48.9999 38.2367 48.9941C38.2008 48.9912 38.1735 48.9889 38.1551 48.9875C38.1459 48.9867 38.139 48.9862 38.1344 48.9858C38.1321 48.9856 38.1304 48.9855 38.1292 48.9854C38.1287 48.9853 38.1282 48.9853 38.1279 48.9853C38.1278 48.9853 38.1277 48.9853 38.1276 48.9852C38.1276 48.9852 38.1276 48.9852 38.1674 48.4868ZM51.9632 49.5475C54.0519 49.9523 55.7334 50.8613 56.8895 51.6642C57.4684 52.0663 57.9188 52.4439 58.226 52.7229C58.3797 52.8624 58.4979 52.9775 58.5788 53.0589C58.6193 53.0996 58.6504 53.1319 58.672 53.1547C58.6828 53.1661 58.6912 53.1751 58.6972 53.1816C58.7002 53.1848 58.7026 53.1874 58.7044 53.1894C58.7053 53.1903 58.7061 53.1911 58.7067 53.1918C58.707 53.1921 58.7072 53.1924 58.7074 53.1927C58.7076 53.1928 58.7077 53.1929 58.7077 53.193C58.7079 53.1931 58.708 53.1933 58.3379 53.5294C57.9678 53.8656 57.9679 53.8657 57.968 53.8658C57.968 53.8659 57.9681 53.866 57.9681 53.866C57.9682 53.8661 57.9682 53.8661 57.9682 53.8661C57.9682 53.8661 57.9681 53.8659 57.9678 53.8656C57.9671 53.8649 57.966 53.8636 57.9642 53.8617C57.9606 53.8579 57.9547 53.8515 57.9464 53.8428C57.93 53.8255 57.9042 53.7987 57.8694 53.7636C57.7997 53.6935 57.694 53.5904 57.5539 53.4633C57.2736 53.2088 56.8571 52.8592 56.319 52.4855C55.241 51.7368 53.6877 50.9003 51.773 50.5293L51.9632 49.5475Z" fill="#343434"/>
<path d="M24.8731 46.0583C24.6032 46.1165 24.4315 46.3826 24.4898 46.6525C24.548 46.9224 24.814 47.0941 25.0839 47.0358L24.8731 46.0583ZM38.6662 0.802867C38.6812 0.527135 38.4699 0.291417 38.1941 0.276377C37.9184 0.261337 37.6827 0.47267 37.6676 0.748403L38.6662 0.802867ZM24.9785 46.5471C25.0839 47.0358 25.0842 47.0358 25.0844 47.0357C25.0845 47.0357 25.0848 47.0356 25.0851 47.0356C25.0855 47.0355 25.0861 47.0354 25.0867 47.0352C25.0879 47.035 25.0895 47.0346 25.0914 47.0342C25.0952 47.0334 25.1003 47.0322 25.1066 47.0307C25.1193 47.0278 25.1371 47.0236 25.1598 47.018C25.205 47.0068 25.2696 46.9901 25.3517 46.967C25.5158 46.9208 25.7499 46.849 26.0385 46.7445C26.6155 46.5357 27.4125 46.1958 28.3051 45.6684C30.0916 44.613 32.2651 42.8039 33.8156 39.794L32.9266 39.336C31.4798 42.1445 29.457 43.8264 27.7965 44.8075C26.9657 45.2983 26.2265 45.613 25.6982 45.8042C25.4342 45.8997 25.2234 45.9643 25.0807 46.0044C25.0094 46.0245 24.9552 46.0385 24.9199 46.0472C24.9023 46.0515 24.8894 46.0546 24.8815 46.0564C24.8776 46.0573 24.8749 46.0579 24.8735 46.0582C24.8728 46.0584 24.8724 46.0585 24.8723 46.0585C24.8723 46.0585 24.8723 46.0585 24.8725 46.0585C24.8725 46.0584 24.8727 46.0584 24.8727 46.0584C24.8729 46.0584 24.8731 46.0583 24.9785 46.5471ZM33.8156 39.794C34.2205 39.008 34.5875 37.8049 34.925 36.34C35.265 34.8644 35.5833 33.0854 35.8794 31.1241C36.4716 27.201 36.9784 22.5231 37.3909 18.0342C37.8035 13.5439 38.1223 9.23648 38.3379 6.05203C38.4457 4.45967 38.5278 3.14777 38.5829 2.2338C38.6104 1.77681 38.6312 1.41929 38.6452 1.17591C38.6521 1.05422 38.6574 0.961062 38.6609 0.898277C38.6626 0.866885 38.6639 0.843085 38.6648 0.827107C38.6653 0.819118 38.6656 0.813084 38.6658 0.809035C38.6659 0.80701 38.666 0.805481 38.6661 0.804452C38.6661 0.803937 38.6661 0.803541 38.6661 0.803283C38.6661 0.803013 38.6662 0.802867 38.1669 0.775635C37.6676 0.748403 37.6676 0.748509 37.6676 0.74874C37.6676 0.748984 37.6676 0.749341 37.6676 0.749829C37.6675 0.750805 37.6674 0.75228 37.6673 0.754252C37.6671 0.758194 37.6668 0.76412 37.6663 0.772001C37.6655 0.787763 37.6642 0.811342 37.6624 0.842512C37.6589 0.90485 37.6537 0.997545 37.6468 1.11876C37.6329 1.3612 37.6122 1.71771 37.5847 2.17363C37.5297 3.08549 37.4478 4.39491 37.3402 5.98448C37.1249 9.16392 36.8068 13.4629 36.3951 17.9427C35.9833 22.4237 35.4786 27.0796 34.8906 30.9749C34.5965 32.9228 34.2826 34.6743 33.9505 36.1155C33.616 37.5674 33.2711 38.6674 32.9266 39.336L33.8156 39.794Z" fill="#343434"/>
<path d="M51.4609 46.0583C51.7308 46.1165 51.9025 46.3826 51.8442 46.6525C51.786 46.9224 51.52 47.0941 51.25 47.0358L51.4609 46.0583ZM37.6678 0.802867C37.6528 0.527135 37.8641 0.291417 38.1399 0.276377C38.4156 0.261337 38.6513 0.47267 38.6663 0.748403L37.6678 0.802867ZM51.3555 46.5471C51.25 47.0358 51.2498 47.0358 51.2496 47.0357C51.2494 47.0357 51.2492 47.0356 51.2489 47.0356C51.2485 47.0355 51.2479 47.0354 51.2473 47.0352C51.2461 47.035 51.2445 47.0346 51.2426 47.0342C51.2388 47.0334 51.2337 47.0322 51.2274 47.0307C51.2146 47.0278 51.1969 47.0236 51.1742 47.018C51.129 47.0068 51.0643 46.9901 50.9823 46.967C50.8182 46.9208 50.5841 46.849 50.2955 46.7445C49.7185 46.5357 48.9215 46.1958 48.0288 45.6684C46.2424 44.613 44.0689 42.8039 42.5184 39.794L43.4073 39.336C44.8541 42.1445 46.877 43.8264 48.5375 44.8075C49.3683 45.2983 50.1075 45.613 50.6358 45.8042C50.8998 45.8997 51.1106 45.9643 51.2533 46.0044C51.3246 46.0245 51.3788 46.0385 51.4141 46.0472C51.4317 46.0515 51.4446 46.0546 51.4524 46.0564C51.4564 46.0573 51.4591 46.0579 51.4605 46.0582C51.4612 46.0584 51.4616 46.0585 51.4617 46.0585C51.4617 46.0585 51.4616 46.0585 51.4615 46.0585C51.4615 46.0584 51.4613 46.0584 51.4613 46.0584C51.4611 46.0584 51.4609 46.0583 51.3555 46.5471ZM42.5184 39.794C42.1135 39.008 41.7465 37.8049 41.409 36.34C41.069 34.8644 40.7507 33.0854 40.4546 31.1241C39.8624 27.201 39.3556 22.5231 38.9431 18.0342C38.5304 13.5439 38.2117 9.23648 37.9961 6.05203C37.8883 4.45967 37.8062 3.14777 37.7511 2.2338C37.7236 1.77681 37.7028 1.41929 37.6888 1.17591C37.6819 1.05422 37.6766 0.961062 37.6731 0.898277C37.6714 0.866885 37.67 0.843085 37.6692 0.827107C37.6687 0.819118 37.6684 0.813084 37.6682 0.809035C37.6681 0.80701 37.668 0.805481 37.6679 0.804452C37.6679 0.803937 37.6679 0.803541 37.6678 0.803283C37.6678 0.803013 37.6678 0.802867 38.1671 0.775635C38.6663 0.748403 38.6663 0.748509 38.6664 0.74874C38.6664 0.748984 38.6664 0.749341 38.6664 0.749829C38.6665 0.750805 38.6666 0.75228 38.6667 0.754252C38.6669 0.758194 38.6672 0.76412 38.6676 0.772001C38.6685 0.787763 38.6698 0.811342 38.6716 0.842512C38.675 0.90485 38.6803 0.997545 38.6872 1.11876C38.7011 1.3612 38.7218 1.71771 38.7493 2.17363C38.8043 3.08549 38.8862 4.39491 38.9938 5.98448C39.209 9.16392 39.5272 13.4629 39.9389 17.9427C40.3506 22.4237 40.8554 27.0796 41.4434 30.9749C41.7375 32.9228 42.0514 34.6743 42.3835 36.1155C42.718 37.5674 43.0629 38.6674 43.4073 39.336L42.5184 39.794Z" fill="#343434"/>
<circle cx="38.1672" cy="24.0493" r="5.7063" fill="white" stroke="#343434"/>
<path d="M32.3487 23.2737H32.8487V22.7737H32.3487V23.2737ZM1.70508 23.2737V22.7737C1.53419 22.7737 1.37514 22.861 1.28334 23.0051C1.19155 23.1492 1.17972 23.3303 1.25199 23.4851L1.70508 23.2737ZM17.9966 24.4374V23.9374H17.7094L17.5647 24.1854L17.9966 24.4374ZM32.3487 24.4374V24.9374H32.8487V24.4374H32.3487ZM32.3487 22.7737H1.70508V23.7737H32.3487V22.7737ZM1.70508 23.2737C1.25199 23.4851 1.25208 23.4853 1.25218 23.4855C1.25222 23.4856 1.25233 23.4859 1.25243 23.4861C1.25262 23.4865 1.25285 23.487 1.25312 23.4875C1.25367 23.4887 1.25438 23.4902 1.25527 23.4921C1.25703 23.4958 1.25947 23.5009 1.26257 23.5074C1.26879 23.5203 1.27769 23.5385 1.28929 23.5618C1.31247 23.6084 1.34643 23.6751 1.39118 23.759C1.48064 23.9267 1.61343 24.1637 1.78966 24.447C2.14152 25.0125 2.66976 25.7674 3.37599 26.524C4.7838 28.0324 6.94315 29.5921 9.85084 29.5921V28.5921C7.32802 28.5921 5.4145 27.2426 4.10705 25.8417C3.45566 25.1438 2.96567 24.4441 2.63872 23.9187C2.47554 23.6564 2.35378 23.4389 2.27353 23.2884C2.23343 23.2132 2.20375 23.1549 2.18451 23.1162C2.17489 23.0969 2.16788 23.0825 2.16349 23.0734C2.1613 23.0688 2.15975 23.0656 2.15887 23.0637C2.15842 23.0628 2.15814 23.0622 2.15803 23.0619C2.15797 23.0618 2.15795 23.0618 2.15798 23.0618C2.15799 23.0618 2.15804 23.062 2.15804 23.062C2.1581 23.0621 2.15817 23.0622 1.70508 23.2737ZM9.85084 29.5921C12.7189 29.5921 14.8665 28.3607 16.2856 27.1444C16.995 26.5363 17.5268 25.9286 17.8822 25.4716C18.0601 25.2429 18.1945 25.0511 18.2854 24.9147C18.3308 24.8465 18.3655 24.7921 18.3893 24.7538C18.4012 24.7346 18.4105 24.7195 18.417 24.7086C18.4203 24.7032 18.4228 24.6989 18.4248 24.6956C18.4257 24.694 18.4265 24.6927 18.4271 24.6916C18.4274 24.6911 18.4277 24.6906 18.4279 24.6902C18.4281 24.6901 18.4282 24.6898 18.4283 24.6897C18.4284 24.6895 18.4285 24.6893 17.9966 24.4374C17.5647 24.1854 17.5648 24.1853 17.5649 24.1851C17.5649 24.1851 17.565 24.185 17.565 24.1849C17.5651 24.1848 17.5651 24.1848 17.5651 24.1848C17.565 24.1849 17.5648 24.1852 17.5645 24.1858C17.5637 24.1871 17.5624 24.1894 17.5603 24.1928C17.5562 24.1996 17.5496 24.2106 17.5403 24.2255C17.5217 24.2554 17.4927 24.3009 17.4533 24.36C17.3745 24.4782 17.2543 24.6501 17.0928 24.8577C16.7694 25.2735 16.283 25.8295 15.6348 26.3851C14.3386 27.4961 12.4133 28.5921 9.85084 28.5921V29.5921ZM17.9966 24.9374H32.3487V23.9374H17.9966V24.9374ZM32.8487 24.4374V23.2737H31.8487V24.4374H32.8487Z" fill="#343434"/>
<path d="M44.373 23.2737H43.873V22.7737H44.373V23.2737ZM75.0166 23.2737V22.7737C75.1875 22.7737 75.3465 22.861 75.4383 23.0051C75.5301 23.1492 75.542 23.3303 75.4697 23.4851L75.0166 23.2737ZM58.7251 24.4374V23.9374H59.0123L59.157 24.1854L58.7251 24.4374ZM44.373 24.4374V24.9374H43.873V24.4374H44.373ZM44.373 22.7737H75.0166V23.7737H44.373V22.7737ZM75.0166 23.2737C75.4697 23.4851 75.4696 23.4853 75.4695 23.4855C75.4695 23.4856 75.4693 23.4859 75.4693 23.4861C75.4691 23.4865 75.4688 23.487 75.4686 23.4875C75.468 23.4887 75.4673 23.4902 75.4664 23.4921C75.4646 23.4958 75.4622 23.5009 75.4591 23.5074C75.4529 23.5203 75.444 23.5385 75.4324 23.5618C75.4092 23.6084 75.3752 23.6751 75.3305 23.759C75.241 23.9267 75.1083 24.1637 74.932 24.447C74.5802 25.0125 74.0519 25.7674 73.3457 26.524C71.9379 28.0324 69.7785 29.5921 66.8708 29.5921V28.5921C69.3937 28.5921 71.3072 27.2426 72.6146 25.8417C73.266 25.1438 73.756 24.4441 74.083 23.9187C74.2461 23.6564 74.3679 23.4389 74.4481 23.2884C74.4883 23.2132 74.5179 23.1549 74.5372 23.1162C74.5468 23.0969 74.5538 23.0825 74.5582 23.0734C74.5604 23.0688 74.5619 23.0656 74.5628 23.0637C74.5633 23.0628 74.5635 23.0622 74.5637 23.0619C74.5637 23.0618 74.5637 23.0618 74.5637 23.0618C74.5637 23.0618 74.5636 23.062 74.5636 23.062C74.5636 23.0621 74.5635 23.0622 75.0166 23.2737ZM66.8708 29.5921C64.0027 29.5921 61.8552 28.3607 60.4361 27.1444C59.7267 26.5363 59.1949 25.9286 58.8395 25.4716C58.6616 25.2429 58.5272 25.0511 58.4363 24.9147C58.3909 24.8465 58.3562 24.7921 58.3324 24.7538C58.3204 24.7346 58.3112 24.7195 58.3047 24.7086C58.3014 24.7032 58.2988 24.6989 58.2969 24.6956C58.296 24.694 58.2952 24.6927 58.2945 24.6916C58.2942 24.6911 58.294 24.6906 58.2937 24.6902C58.2936 24.6901 58.2935 24.6898 58.2934 24.6897C58.2933 24.6895 58.2932 24.6893 58.7251 24.4374C59.157 24.1854 59.1569 24.1853 59.1568 24.1851C59.1568 24.1851 59.1567 24.185 59.1567 24.1849C59.1566 24.1848 59.1566 24.1848 59.1566 24.1848C59.1566 24.1849 59.1568 24.1852 59.1572 24.1858C59.1579 24.1871 59.1593 24.1894 59.1614 24.1928C59.1654 24.1996 59.1721 24.2106 59.1814 24.2255C59.2 24.2554 59.229 24.3009 59.2684 24.36C59.3472 24.4782 59.4674 24.6501 59.6289 24.8577C59.9523 25.2735 60.4387 25.8295 61.0869 26.3851C62.3831 27.4961 64.3084 28.5921 66.8708 28.5921V29.5921ZM58.7251 24.9374H44.373V23.9374H58.7251V24.9374ZM43.873 24.4374V23.2737H44.873V24.4374H43.873Z" fill="#343434"/>
<path d="M33.6799 20.1705L28.8574 13.5048C32.4218 10.4749 37.3911 10.4731 37.3911 10.4731" stroke="#343434"/>
<path d="M42.6541 20.1705L47.4766 13.5048C43.9121 10.4749 38.9429 10.4731 38.9429 10.4731" stroke="#343434"/>
<path d="M42.046 24.0493L38.167 27.9283L34.2881 24.0493L38.167 20.1704L42.046 24.0493Z" fill="url(#paint0_linear_2891_13269)"/>
<path d="M74.6507 4.2578L67.9729 0.400671C67.0469 -0.133557 65.8929 -0.133557 64.9669 0.400671L58.2891 4.2578C57.3631 4.79203 56.7861 5.78925 56.7861 6.86127V14.572C56.7861 15.6404 57.3631 16.6377 58.2891 17.1754L64.9669 21.0326C65.4299 21.2997 65.9499 21.435 66.4699 21.435C66.9899 21.435 67.5099 21.2997 67.9729 21.0326L74.6507 17.179C75.5767 16.6448 76.1537 15.6475 76.1537 14.5755V6.86483C76.1537 5.78926 75.5767 4.79203 74.6507 4.2578ZM75.2206 14.572C75.2206 15.3092 74.8217 15.9966 74.1842 16.367L67.5063 20.2205C66.8652 20.5909 66.071 20.5909 65.4335 20.2205L58.7557 16.3634C58.1181 15.993 57.7193 15.3056 57.7193 14.5684V6.85771C57.7193 6.12048 58.1181 5.4331 58.7557 5.0627L65.4335 1.20557C66.0746 0.835175 66.8688 0.835175 67.5063 1.20557L74.1842 5.0627C74.8217 5.4331 75.2206 6.12048 75.2206 6.85771V14.572Z" fill="url(#paint1_linear_2891_13269)"/>
<path d="M67.0765 4.01597C66.7025 3.79871 66.2395 3.79871 65.8656 4.01597L60.7939 6.94354L66.471 10.2201L72.1481 6.94354L67.0765 4.01597Z" fill="url(#paint2_linear_2891_13269)"/>
<path d="M71.9694 14.59C72.3434 14.3763 72.5749 13.9738 72.5749 13.5429V7.68774L68.3189 10.1452L66.9014 10.9643V17.5175L71.9694 14.59Z" fill="url(#paint3_linear_2891_13269)"/>
<path d="M60.3643 7.68774V13.5429C60.3643 13.9738 60.5958 14.3763 60.9697 14.59L66.0413 17.5175V10.9643L60.3643 7.68774Z" fill="url(#paint4_linear_2891_13269)"/>
<path d="M19.5209 14.572V6.85771C19.5209 5.78925 18.9439 4.79203 18.0179 4.25424L11.3401 0.400671C10.4141 -0.133557 9.26013 -0.133557 8.33414 0.400671L1.65628 4.2578C0.730286 4.79203 0.15332 5.78925 0.15332 6.86127V14.572C0.15332 15.6404 0.730286 16.6376 1.65628 17.1754L8.33414 21.0326C8.79713 21.2997 9.31712 21.435 9.8371 21.435C10.3571 21.435 10.8771 21.2997 11.3401 21.0326L18.0179 17.1754C18.9439 16.6376 19.5209 15.6404 19.5209 14.572ZM17.5514 16.367L10.8735 20.2205C10.236 20.5909 9.44177 20.5909 8.8007 20.2205L2.12284 16.3634C1.48533 15.993 1.08644 15.3056 1.08644 14.5684V6.85771C1.08644 6.12047 1.48533 5.4331 2.12284 5.0627L8.8007 1.20557C9.44177 0.835176 10.236 0.835176 10.8735 1.20557L17.5514 5.0627C18.1889 5.4331 18.5878 6.12047 18.5878 6.85771V14.5684C18.5878 15.3092 18.1889 15.9966 17.5514 16.367Z" fill="#343434"/>
<path d="M15.3356 14.5896C15.7096 14.3759 15.9411 13.9735 15.9411 13.5425V7.68384L11.6851 10.1413L10.2676 10.9604V17.5136L15.3356 14.5896Z" fill="url(#paint5_linear_2891_13269)"/>
<path d="M3.7334 7.68384V13.539C3.7334 13.9699 3.9649 14.3724 4.33886 14.5861L9.41047 17.5136V10.9604L3.7334 7.68384Z" fill="url(#paint6_linear_2891_13269)"/>
<path d="M10.4417 4.01621C10.0677 3.79896 9.60475 3.79896 9.23079 4.01621L4.15918 6.94378L9.83625 10.2204L15.5133 6.94378L10.4417 4.01621Z" fill="url(#paint7_linear_2891_13269)"/>
<defs>
<linearGradient id="paint0_linear_2891_13269" x1="21.6476" y1="7.52944" x2="80.8963" y2="66.7776" gradientUnits="userSpaceOnUse">
<stop stop-color="#00FF50"/>
<stop offset="1" stop-color="#00A2FF"/>
</linearGradient>
<linearGradient id="paint1_linear_2891_13269" x1="22.6469" y1="-30.4806" x2="92.8007" y2="35.4687" gradientUnits="userSpaceOnUse">
<stop stop-color="#00FF50"/>
<stop offset="1" stop-color="#00A2FF"/>
</linearGradient>
<linearGradient id="paint2_linear_2891_13269" x1="61.052" y1="3.85303" x2="62.6944" y2="12.1023" gradientUnits="userSpaceOnUse">
<stop stop-color="#90FF87"/>
<stop offset="1" stop-color="#00e28e"/>
</linearGradient>
<linearGradient id="paint3_linear_2891_13269" x1="67.0303" y1="7.68774" x2="72.9391" y2="17.2935" gradientUnits="userSpaceOnUse">
<stop stop-color="#90FF87"/>
<stop offset="1" stop-color="#00e28e"/>
</linearGradient>
<linearGradient id="paint4_linear_2891_13269" x1="60.4933" y1="7.68774" x2="66.4004" y2="17.2968" gradientUnits="userSpaceOnUse">
<stop stop-color="#90FF87"/>
<stop offset="1" stop-color="#00e28e"/>
</linearGradient>
<linearGradient id="paint5_linear_2891_13269" x1="-4.51477" y1="-3.96035" x2="65.639" y2="61.9889" gradientUnits="userSpaceOnUse">
<stop stop-color="#00FF50"/>
<stop offset="1" stop-color="#00A2FF"/>
</linearGradient>
<linearGradient id="paint6_linear_2891_13269" x1="-7.53491" y1="-0.746397" x2="62.6189" y2="65.2029" gradientUnits="userSpaceOnUse">
<stop stop-color="#00FF50"/>
<stop offset="1" stop-color="#00A2FF"/>
</linearGradient>
<linearGradient id="paint7_linear_2891_13269" x1="-3.22397" y1="-5.33311" x2="66.9297" y2="60.6162" gradientUnits="userSpaceOnUse">
<stop stop-color="#00FF50"/>
<stop offset="1" stop-color="#00A2FF"/>
</linearGradient>
</defs>
</svg>
