<svg width="65" height="62" viewBox="0 0 65 62" fill="none" xmlns="http://www.w3.org/2000/svg">
<path d="M39.416 17.2707L26.6533 24.5771C24.1638 26.0023 22.6279 28.6514 22.6279 31.5199V45.9092C22.6279 48.8345 24.2246 51.5266 26.7917 52.9294L39.5544 59.9037C41.9451 61.2101 44.8362 61.2101 47.2269 59.9037L59.9897 52.9294C62.5568 51.5266 64.1535 48.8345 64.1535 45.9092V31.52C64.1535 28.6514 62.6176 26.0023 60.1281 24.5771L47.3652 17.2707C44.903 15.8611 41.8783 15.8611 39.416 17.2707Z" stroke="white"/>
<path d="M17.7881 2.27538L5.02539 9.58178C2.53588 11.007 1 13.656 1 16.5246V30.9138C1 33.8392 2.5967 36.5312 5.16376 37.934L17.9265 44.9083C20.3171 46.2147 23.2083 46.2147 25.599 44.9083L38.3618 37.934C40.9289 36.5312 42.5256 33.8391 42.5256 30.9138V16.5246C42.5256 13.656 40.9897 11.007 38.5002 9.58179L25.7373 2.27536C23.275 0.865775 20.2504 0.86578 17.7881 2.27538Z" stroke="white"/>
<path d="M34.93 16.1437L21.7668 23.7175L8.59766 16.1437L21.7668 8.56982L34.93 16.1437Z" fill="url(#paint0_linear_2891_13196)"/>
<path d="M21.766 24.3806C21.6518 24.3806 21.5375 24.3505 21.4353 24.2902L8.27214 16.7224C8.06769 16.6018 7.94141 16.3847 7.94141 16.1495C7.94141 15.9143 8.06769 15.6912 8.27214 15.5766L21.4353 8.00281C21.6397 7.8822 21.8983 7.8822 22.1028 8.00281L35.2659 15.5766C35.4704 15.6972 35.5967 15.9143 35.5967 16.1495C35.5967 16.3847 35.4704 16.6078 35.2659 16.7224L22.1028 24.2962C22.0005 24.3565 21.8863 24.3866 21.772 24.3866L21.766 24.3806ZM9.93182 16.1435L21.766 22.9515L33.6002 16.1435L21.766 9.33546L9.93182 16.1435V16.1435Z" fill="black"/>
<path d="M34.9288 31.2911L21.7656 38.8649V23.7232L34.9288 16.1494V31.2911V31.2911Z" fill="url(#paint1_linear_2891_13196)"/>
<path d="M21.7669 39.5221C21.6527 39.5221 21.5384 39.4919 21.4362 39.4316C21.2317 39.311 21.1055 39.0939 21.1055 38.8588V23.7171C21.1055 23.482 21.2317 23.2588 21.4362 23.1443L34.5994 15.5704C34.8038 15.4498 35.0624 15.4498 35.2668 15.5704C35.4713 15.691 35.5976 15.9081 35.5976 16.1433V31.2849C35.5976 31.5201 35.4713 31.7432 35.2668 31.8578L22.1037 39.4316C22.0015 39.4859 21.8872 39.5161 21.7729 39.5161L21.7669 39.5221ZM22.4344 24.097V37.707L34.2686 30.899V17.289L22.4344 24.097Z" fill="black"/>
<path d="M8.59683 16.1436L21.76 23.7174V38.859L8.59082 31.2852V16.1436H8.59683Z" fill="url(#paint2_linear_2891_13196)"/>
<path d="M21.766 39.5221C21.6518 39.5221 21.5375 39.4919 21.4353 39.4316L8.27214 31.8578C8.06769 31.7372 7.94141 31.5201 7.94141 31.2849V16.1433C7.94141 15.9081 8.06769 15.685 8.27214 15.5704C8.47659 15.4498 8.73516 15.4498 8.93962 15.5704L22.1028 23.1443C22.3072 23.2649 22.4335 23.482 22.4335 23.7171V38.8588C22.4335 39.0939 22.3072 39.3171 22.1028 39.4316C22.0005 39.4919 21.8863 39.5221 21.772 39.5221H21.766ZM9.27035 30.905L21.1046 37.7131V24.1031L9.26434 17.295V30.905H9.27035Z" fill="black"/>
<path d="M56.553 31.2916L43.3899 38.8654L30.2207 31.2916L43.3899 23.7178L56.553 31.2916V31.2916Z" fill="url(#paint3_linear_2891_13196)"/>
<path d="M43.3891 39.5226C43.2748 39.5226 43.1606 39.4925 43.0583 39.4322L29.8952 31.8584C29.6907 31.7377 29.5645 31.5207 29.5645 31.2855C29.5645 31.0503 29.6907 30.8272 29.8952 30.7126L43.0583 23.1388C43.2628 23.0182 43.5214 23.0182 43.7258 23.1388L56.889 30.7126C57.0934 30.8332 57.2197 31.0503 57.2197 31.2855C57.2197 31.5207 57.0934 31.7438 56.889 31.8584L43.7258 39.4322C43.6236 39.4925 43.5093 39.5226 43.3951 39.5226H43.3891ZM31.5549 31.2855L43.3891 38.0935L55.2233 31.2855L43.3891 24.4775L31.5549 31.2855Z" fill="black"/>
<path d="M56.5518 46.4331L43.3887 54.007V38.8653L56.5518 31.2915V46.4331Z" fill="url(#paint4_linear_2891_13196)"/>
<path d="M43.39 54.6642C43.2757 54.6642 43.1615 54.634 43.0592 54.5737C42.8548 54.4531 42.7285 54.236 42.7285 54.0009V38.8592C42.7285 38.624 42.8548 38.4009 43.0592 38.2864L56.2224 30.7125C56.4269 30.5919 56.6854 30.5919 56.8899 30.7125C57.0943 30.8331 57.2206 31.0502 57.2206 31.2854V46.427C57.2206 46.6622 57.0943 46.8853 56.8899 46.9999L43.7267 54.5737C43.6245 54.628 43.5102 54.6581 43.396 54.6581L43.39 54.6642ZM44.0575 39.2391V52.8491L55.8917 46.0411V32.4311L44.0575 39.2391V39.2391Z" fill="black"/>
<path d="M30.2267 31.2915L43.3899 38.8653V54.007L30.2207 46.4331V31.2915H30.2267Z" fill="url(#paint5_linear_2891_13196)"/>
<path d="M43.3891 54.6642C43.2748 54.6642 43.1606 54.634 43.0583 54.5737L29.8952 46.9999C29.6907 46.8793 29.5645 46.6622 29.5645 46.427V31.2854C29.5645 31.0502 29.6907 30.8271 29.8952 30.7125C30.0996 30.5919 30.3582 30.5919 30.5627 30.7125L43.7258 38.2864C43.9303 38.407 44.0566 38.624 44.0566 38.8592V54.0009C44.0566 54.236 43.9303 54.4592 43.7258 54.5737C43.6236 54.634 43.5093 54.6642 43.3951 54.6642H43.3891ZM30.8934 46.0471L42.7276 52.8551V39.2451L30.8934 32.4371V46.0471V46.0471Z" fill="black"/>
<defs>
<linearGradient id="paint0_linear_2891_13196" x1="-4.30091" y1="-10.1658" x2="78.6808" y2="73.1259" gradientUnits="userSpaceOnUse">
<stop stop-color="#00FF50"/>
<stop offset="1" stop-color="#00A2FF"/>
</linearGradient>
<linearGradient id="paint1_linear_2891_13196" x1="-6.64731" y1="-7.82635" x2="76.3284" y2="75.4714" gradientUnits="userSpaceOnUse">
<stop stop-color="#00FF50"/>
<stop offset="1" stop-color="#00A2FF"/>
</linearGradient>
<linearGradient id="paint2_linear_2891_13196" x1="-13.2736" y1="-1.2232" x2="69.7021" y2="82.0685" gradientUnits="userSpaceOnUse">
<stop stop-color="#00FF50"/>
<stop offset="1" stop-color="#00A2FF"/>
</linearGradient>
<linearGradient id="paint3_linear_2891_13196" x1="17.3281" y1="4.97615" x2="100.304" y2="88.2739" gradientUnits="userSpaceOnUse">
<stop offset="0.13" stop-color="#00FF50"/>
<stop offset="0.37" stop-color="#00A2FF"/>
</linearGradient>
<linearGradient id="paint4_linear_2891_13196" x1="14.9757" y1="7.31573" x2="97.9514" y2="90.6135" gradientUnits="userSpaceOnUse">
<stop offset="0.24" stop-color="#00FF50"/>
<stop offset="0.4" stop-color="#00A2FF"/>
</linearGradient>
<linearGradient id="paint5_linear_2891_13196" x1="8.35026" y1="13.9187" x2="91.326" y2="97.2164" gradientUnits="userSpaceOnUse">
<stop offset="0.24" stop-color="#00FF50"/>
<stop offset="0.39" stop-color="#00A2FF"/>
</linearGradient>
</defs>
</svg>
