<svg width="36" height="36" viewBox="0 0 36 36" fill="none" xmlns="http://www.w3.org/2000/svg">
<path d="M18 36C27.9411 36 36 27.9411 36 18C36 8.05887 27.9411 0 18 0C8.05887 0 0 8.05887 0 18C0 27.9411 8.05887 36 18 36Z" fill="#2775CA"/>
<path d="M14.625 30.5161C14.625 30.938 14.2875 31.177 13.8938 31.0505C8.4375 29.3067 4.5 24.2161 4.5 18.1833C4.5 12.1645 8.4375 7.05985 13.8938 5.3161C14.3016 5.18954 14.625 5.4286 14.625 5.85047V6.90516C14.625 7.18641 14.4141 7.50985 14.1469 7.60829C9.82969 9.19735 6.75 13.3458 6.75 18.1833C6.75 23.0348 9.82969 27.1692 14.1469 28.7442C14.4141 28.8427 14.625 29.1661 14.625 29.4473V30.5161Z" fill="white"/>
<path d="M19.125 26.6201C19.125 26.9295 18.8719 27.1826 18.5625 27.1826H17.4375C17.1281 27.1826 16.875 26.9295 16.875 26.6201V24.8482C14.4141 24.5107 13.2187 23.1467 12.8953 21.2623C12.8391 20.9389 13.0922 20.6576 13.4156 20.6576H14.6953C14.9625 20.6576 15.1875 20.8545 15.2437 21.1076C15.4828 22.2186 16.1297 23.0764 18.0984 23.0764C19.5469 23.0764 20.5875 22.2607 20.5875 21.0514C20.5875 19.842 19.9828 19.3779 17.8453 19.0264C14.6953 18.6045 13.2047 17.6482 13.2047 15.1873C13.2047 13.2889 14.6531 11.7982 16.875 11.4889V9.74512C16.875 9.43574 17.1281 9.18262 17.4375 9.18262H18.5625C18.8719 9.18262 19.125 9.43574 19.125 9.74512V11.5311C20.9391 11.8545 22.0922 12.8811 22.4719 14.5967C22.5422 14.9201 22.2891 15.2154 21.9516 15.2154H20.7703C20.5172 15.2154 20.3062 15.0467 20.2359 14.8076C19.9125 13.7248 19.1391 13.2467 17.7891 13.2467C16.2984 13.2467 15.525 13.9639 15.525 14.9764C15.525 16.0451 15.9609 16.5795 18.2531 16.9029C21.3469 17.3248 22.95 18.2107 22.95 20.8404C22.95 22.8373 21.4594 24.4545 19.1391 24.8201V26.6201H19.125Z" fill="white"/>
<path d="M22.1062 31.0497C21.6984 31.1763 21.375 30.9372 21.375 30.5153V29.4606C21.375 29.1513 21.5578 28.8559 21.8531 28.7575C26.1562 27.1825 29.25 23.0341 29.25 18.1966C29.25 13.345 26.1703 9.21063 21.8531 7.63563C21.5859 7.53719 21.375 7.21376 21.375 6.93251V5.87782C21.375 5.45594 21.7125 5.21688 22.1062 5.34344C27.5625 7.05907 31.5 12.1638 31.5 18.1825C31.5 24.2153 27.5625 29.3059 22.1062 31.0497Z" fill="white"/>
</svg>
