<svg width="23" height="20" viewBox="0 0 23 20" fill="none" xmlns="http://www.w3.org/2000/svg">
<path d="M16.9688 4.41782V9.16244C16.9688 11.62 14.9702 13.6202 12.511 13.6202H6.65078V14.0935C6.65078 15.861 8.04691 17.3018 9.81439 17.3018H16.6978L19.4423 19.9076C19.4885 19.9538 19.5809 20 19.675 20C19.7212 20 19.7674 20 19.8136 19.9538C19.9539 19.9076 20.0463 19.7673 20.0463 19.6287V17.2555C21.5811 17.0691 22.7908 15.6745 22.7908 14.0935V7.58143C22.7908 5.86017 21.3946 4.41782 19.6288 4.41782H16.9688Z" fill="black"/>
<path d="M12.511 0H3.02336C1.34832 0 0 1.34991 0 3.02336V9.16411C0 10.6989 1.16185 11.9548 2.65042 12.1397V14.3725C2.65042 14.5128 2.74445 14.6514 2.88311 14.6992C2.92933 14.6992 2.97555 14.7455 3.02336 14.7455C3.1158 14.7455 3.20824 14.6992 3.25605 14.6514L5.90648 12.1875H12.511C14.1861 12.1875 15.5344 10.8376 15.5344 9.16411V3.02336C15.5344 1.39613 14.1861 0 12.511 0ZM7.76639 9.9339C7.3807 9.9339 7.06833 9.62152 7.06833 9.23743C7.06833 8.85174 7.3807 8.53936 7.76639 8.53936C8.15208 8.53936 8.46446 8.85174 8.46446 9.23743C8.46446 9.62152 8.15208 9.9339 7.76639 9.9339ZM8.41665 6.49297V7.17032C8.41665 7.58948 8.18396 7.82217 7.76639 7.82217C7.39345 7.82217 7.11454 7.54167 7.11454 7.17032C7.11454 7.17032 7.11454 6.49297 7.11454 6.21407C7.16076 5.23709 8.78959 5.93516 8.78959 4.44659C8.78959 3.88718 8.41665 3.51583 7.81261 3.51583C7.30101 3.51583 7.02211 3.7023 6.83564 4.2139C6.7432 4.53903 6.55673 4.67928 6.27782 4.67928C6.09135 4.67928 5.95269 4.63146 5.81244 4.49281C5.67379 4.35256 5.62597 4.2139 5.62597 4.02743C5.67379 3.00424 6.78942 2.35239 7.76639 2.35239C9.06849 2.35239 10.0917 3.23692 10.0917 4.39878C10.0917 5.46978 9.48765 6.21407 8.41665 6.49297Z" fill="black"/>
</svg>
