<svg width="26" height="26" viewBox="0 0 26 26" fill="none" xmlns="http://www.w3.org/2000/svg">
<path d="M1 5C1 3.34314 2.34315 2 4 2H15C16.6569 2 18 3.34315 18 5V11.35C18 13.0069 16.6569 14.35 15 14.35H8.19312C7.83336 14.35 7.50133 14.5432 7.32363 14.8561L5.70282 17.7091C5.19564 18.6019 3.83333 18.242 3.83333 17.2152V15.0583C3.83333 14.6671 3.5162 14.35 3.125 14.35C1.95139 14.35 1 13.3986 1 12.225V5Z" stroke="white" stroke-width="1"/>
<path d="M20.4994 8H21.9608C23.6177 8 24.9608 9.34314 24.9608 11V17.9943C24.9608 19.1679 24.0094 20.1193 22.8358 20.1193C22.4446 20.1193 22.1275 20.4364 22.1275 20.8276V22.9845C22.1275 24.0113 20.7652 24.3712 20.258 23.4784L18.6372 20.6253C18.4595 20.3125 18.1274 20.1193 17.7677 20.1193H13.0317C11.3749 20.1193 10.0317 18.7761 10.0317 17.1193V16.7943" stroke="white" stroke-width="1" stroke-linecap="round"/>
<path d="M9.60364 10.5V9.46955C9.60364 8.89543 9.99599 8.39645 10.5518 8.26368C11.1076 8.13092 11.5 7.63194 11.5 7.05782V6.92066C11.5 6.14704 10.881 5.51725 10.1112 5.50772L9.49985 5.50015C8.39937 5.48653 7.5 6.37926 7.5 7.48524" stroke="white" stroke-width="1" stroke-linecap="round"/>
</svg>
