<svg width="32" height="32" viewBox="0 0 32 32" fill="none" xmlns="http://www.w3.org/2000/svg">
<path d="M18.0688 4.00465C11.2821 3.81799 5.72213 9.27132 5.72213 16.0047H3.33546C2.73546 16.0047 2.44213 16.7247 2.86879 17.138L6.58879 20.8713C6.85546 21.138 7.26879 21.138 7.53546 20.8713L11.2555 17.138C11.3476 17.044 11.4099 16.9248 11.4344 16.7955C11.4589 16.6662 11.4446 16.5325 11.3933 16.4113C11.3419 16.2901 11.2559 16.1868 11.1459 16.1145C11.036 16.0421 10.9071 16.0039 10.7755 16.0047H8.38879C8.38879 10.8047 12.6288 6.60465 17.8555 6.67132C22.8155 6.73799 26.9888 10.9113 27.0555 15.8713C27.1221 21.0847 22.9221 25.338 17.7221 25.338C15.5755 25.338 13.5888 24.6047 12.0155 23.3647C11.7601 23.1635 11.4397 23.0632 11.1151 23.0828C10.7906 23.1025 10.4847 23.2408 10.2555 23.4713C9.69546 24.0313 9.73546 24.978 10.3621 25.458C12.457 27.1146 15.0514 28.0123 17.7221 28.0047C24.4555 28.0047 29.9088 22.4447 29.7221 15.658C29.5488 9.40465 24.3221 4.17799 18.0688 4.00465ZM17.3888 10.6713C16.8421 10.6713 16.3888 11.1247 16.3888 11.6713V16.578C16.3888 17.0447 16.6421 17.4847 17.0421 17.7247L21.2021 20.1913C21.6821 20.4713 22.2955 20.3113 22.5755 19.8447C22.8555 19.3647 22.6955 18.7513 22.2288 18.4713L18.3888 16.1913V11.658C18.3888 11.1247 17.9355 10.6713 17.3888 10.6713Z" fill="black"/>
</svg>
