<svg width="28" height="26" viewBox="0 0 28 26" fill="none" xmlns="http://www.w3.org/2000/svg">
<g clip-path="url(#clip0_4149_151)">
<path fill-rule="evenodd" clip-rule="evenodd" d="M5.40126 22.7483C5.40126 24.2681 6.63396 25.4997 8.1537 25.4983L19.1537 25.4886C20.6715 25.4872 21.9013 24.2564 21.9013 22.7386V18.1482V6.54071V3.79833C21.9013 1.97672 20.4246 0.500014 18.6029 0.500012L3.5 0.5C1.98122 0.5 0.75 1.73121 0.75 3.25C0.75 4.76878 1.98122 6 3.5 6H5.40126V22.7483ZM5.38727 4.5H3.5C2.80964 4.5 2.25 3.94035 2.25 3.25C2.25 2.55964 2.80964 2 3.5 2H3.8402C4.59647 2.11324 4.88203 2.34381 5.0561 2.67264C5.24342 3.0265 5.35097 3.58297 5.38727 4.5ZM6.39702 2L18.6029 2.00001C19.5961 2.00001 20.4013 2.80515 20.4013 3.79833V6.54071H21.9013V18.1482H20.4013V22.7386C20.4013 23.4285 19.8423 23.988 19.1524 23.9886L8.15237 23.9983C7.46158 23.9989 6.90126 23.4391 6.90126 22.7483V5.24898C6.89945 3.91037 6.81271 2.8075 6.39702 2Z" fill="black"/>
<path fill-rule="evenodd" clip-rule="evenodd" d="M23.7143 7.5H19.2857C17.7472 7.5 16.5 8.74721 16.5 10.2857V14.7143C16.5 16.2528 17.7472 17.5 19.2857 17.5H23.7143C25.2528 17.5 26.5 16.2528 26.5 14.7143V10.2857C26.5 8.74721 25.2528 7.5 23.7143 7.5ZM19.2857 6C16.9188 6 15 7.91878 15 10.2857V14.7143C15 17.0812 16.9188 19 19.2857 19H23.7143C26.0812 19 28 17.0812 28 14.7143V10.2857C28 7.91878 26.0812 6 23.7143 6H19.2857Z" fill="black"/>
<path d="M20 11V14.544L24.0001 10" stroke="black" stroke-width="1.5" stroke-linecap="round" stroke-linejoin="round"/>
<path d="M9.72656 11H13.001M9.72656 5H16.001M9.72656 17H13.501" stroke="black" stroke-width="1.5" stroke-linecap="round"/>
</g>
<defs>
<clipPath id="clip0_4149_151">
<rect width="28" height="26" fill="white"/>
</clipPath>
</defs>
</svg>
