<svg width="28" height="26" viewBox="0 0 28 26" fill="none" xmlns="http://www.w3.org/2000/svg">
<path fill-rule="evenodd" clip-rule="evenodd" d="M5.40126 22.7485C5.40126 24.2683 6.63396 25.4999 8.1537 25.4985L19.1537 25.4888C20.6715 25.4874 21.9013 24.2566 21.9013 22.7388V18.1484V6.54093V3.79855C21.9013 1.97694 20.4246 0.500231 18.6029 0.500229L3.5 0.500217C1.98122 0.500217 0.75 1.73143 0.75 3.25022C0.75 4.769 1.98122 6.00022 3.5 6.00022H5.40126V22.7485ZM5.38727 4.50022H3.5C2.80964 4.50022 2.25 3.94057 2.25 3.25022C2.25 2.55986 2.80964 2.00022 3.5 2.00022H3.8402C4.59647 2.11346 4.88203 2.34403 5.0561 2.67286C5.24342 3.02672 5.35097 3.58319 5.38727 4.50022ZM6.39702 2.00022L18.6029 2.00023C19.5961 2.00023 20.4013 2.80537 20.4013 3.79855V6.54093H21.9013V18.1484H20.4013V22.7388C20.4013 23.4287 19.8423 23.9882 19.1524 23.9888L8.15237 23.9985C7.46158 23.9991 6.90126 23.4393 6.90126 22.7485L6.90126 5.2492C6.89945 3.91059 6.81271 2.80772 6.39702 2.00022Z" fill="white"/>
<path fill-rule="evenodd" clip-rule="evenodd" d="M23.7143 7.5H19.2857C17.7472 7.5 16.5 8.74721 16.5 10.2857V14.7143C16.5 16.2528 17.7472 17.5 19.2857 17.5H23.7143C25.2528 17.5 26.5 16.2528 26.5 14.7143V10.2857C26.5 8.74721 25.2528 7.5 23.7143 7.5ZM19.2857 6C16.9188 6 15 7.91878 15 10.2857V14.7143C15 17.0812 16.9188 19 19.2857 19H23.7143C26.0812 19 28 17.0812 28 14.7143V10.2857C28 7.91878 26.0812 6 23.7143 6H19.2857Z" fill="white"/>
<path d="M20 11V14.544L24.0001 10" stroke="white" stroke-width="1.5" stroke-linecap="round" stroke-linejoin="round"/>
<path d="M9.72559 11L13 11M9.72559 5H16M9.72559 17H13.5" stroke="white" stroke-width="1.5" stroke-linecap="round"/>
</svg>
