<svg width="37" height="41" viewBox="0 0 37 41" fill="none" xmlns="http://www.w3.org/2000/svg">
<path fill-rule="evenodd" clip-rule="evenodd" d="M21.035 0.691167C19.4145 -0.234074 17.4248 -0.23013 15.808 0.701525L2.63021 8.29491C1.00284 9.23265 0 10.9679 0 12.8461V27.8717C0 29.737 0.989192 31.4624 2.5989 32.4048L15.7768 40.1197C17.4094 41.0755 19.4299 41.0796 21.0664 40.1303L34.383 32.4054C36.0029 31.4656 37 29.7345 37 27.8617V12.8561C37 10.9704 35.9893 9.22945 34.3517 8.29449L21.035 0.691167ZM17.3058 3.30086C17.9992 2.9013 18.8525 2.89961 19.5475 3.29642L32.6027 10.7504L20.3213 17.8695C19.1527 18.5469 17.7102 18.544 16.5443 17.8619L4.38289 10.7474L17.3058 3.30086ZM3 13.4166V27.8717C3 28.6717 3.42424 29.4116 4.11459 29.8158L16.926 37.3162V23.7158C16.926 22.3827 16.2188 21.1497 15.0682 20.4766L3 13.4166ZM19.9282 37.3223L32.8776 29.8104C33.5724 29.4074 34 28.6649 34 27.8617V13.4106L21.799 20.483C20.641 21.1542 19.9282 22.3913 19.9282 23.7298V37.3223Z" fill="#D9D9D9"/>
</svg>
