<svg width="20" height="20" viewBox="0 0 20 20" fill="none" xmlns="http://www.w3.org/2000/svg">
<path d="M16.2935 2.79652C14.567 1.06837 12.1808 0 9.545 0C6.90924 0 4.52299 1.06837 2.79652 2.79652C1.06837 4.52299 0 6.90924 0 9.545C0 14.8165 4.27348 19.09 9.545 19.09C12.1808 19.09 14.567 18.0216 16.2935 16.2935C18.0216 14.567 19.09 12.1808 19.09 9.545C19.09 6.90924 18.0216 4.52299 16.2935 2.79652ZM15.0978 7.90393L10.6636 12.3382C10.5229 12.4788 10.3304 12.5592 10.1311 12.5592C9.93182 12.5592 9.73925 12.4788 9.59859 12.3382L7.11689 9.85647L4.90312 12.0702C4.60839 12.365 4.13114 12.365 3.83809 12.0702C3.54337 11.7755 3.54337 11.2983 3.83809 11.0052L6.58438 8.25894C6.8791 7.96421 7.35467 7.96421 7.6494 8.25894L10.1311 10.739L14.0328 6.83891C14.3259 6.54419 14.8031 6.54419 15.0978 6.83891C15.3926 7.13196 15.3926 7.60921 15.0978 7.90393Z" fill="black"/>
</svg>
