<svg width="32" height="32" viewBox="0 0 32 32" fill="none" xmlns="http://www.w3.org/2000/svg">
<g clip-path="url(#clip0_3496_11502)">
<path fill-rule="evenodd" clip-rule="evenodd" d="M30.9347 5.65729C30.9347 8.78172 28.4018 11.3146 25.2774 11.3146C22.153 11.3146 19.6201 8.78172 19.6201 5.65729C19.6201 2.53285 22.153 0 25.2774 0C28.4018 0 30.9347 2.53285 30.9347 5.65729ZM29.6935 26.3428C29.6935 29.4673 27.1606 32.0001 24.0362 32.0001C20.9118 32.0001 18.3789 29.4673 18.3789 26.3428C18.3789 23.2184 20.9118 20.6855 24.0362 20.6855C27.1606 20.6855 29.6935 23.2184 29.6935 26.3428ZM6.65729 21.2716C9.78172 21.2716 12.3146 18.7388 12.3146 15.6143C12.3146 12.4899 9.78172 9.95703 6.65729 9.95703C3.53285 9.95703 1 12.4899 1 15.6143C1 18.7388 3.53285 21.2716 6.65729 21.2716ZM17.3861 6.50667L11.5515 9.17328L11.6226 9.2549C12.6576 10.4428 13.3803 11.8698 13.7255 13.4071L19.6161 10.6371L19.5681 10.5867C18.4845 9.44958 17.7303 8.0393 17.3861 6.50667ZM13.8446 17.2348L19.2768 20.8215C18.0175 21.69 17.1772 23.0441 16.9578 24.5581L16.9117 24.8761L11.4796 21.2895C12.6127 20.3589 13.4088 19.0819 13.7455 17.6548L13.8446 17.2348Z" fill="black"/>
</g>
<defs>
<clipPath id="clip0_3496_11502">
<rect width="32" height="32" fill="black"/>
</clipPath>
</defs>
</svg>
