<svg width="21" height="25" viewBox="0 0 21 25" fill="none" xmlns="http://www.w3.org/2000/svg">
<path fill-rule="evenodd" clip-rule="evenodd" d="M18.3227 4.23262C18.304 4.2103 18.2853 4.18807 18.2664 4.16595C15.1983 0.564053 9.90424 -0.450501 5.65987 1.99999C1.4155 4.45047 -0.352893 9.54253 1.23238 14.0005C1.24212 14.0279 1.25198 14.0553 1.26198 14.0826C1.51785 14.7827 2.4855 14.7863 2.92379 14.1835C4.1223 12.5349 6.44835 10.1383 9.67731 10.4767C10.2266 10.5342 10.7674 10.222 10.9922 9.71754C12.3136 6.75198 15.5521 5.93585 17.5791 5.7222C18.3204 5.64407 18.801 4.80424 18.3227 4.23262ZM6.40987 3.29902C9.69736 1.40099 13.7257 1.9486 16.3882 4.37734C15.9861 4.44973 15.5612 4.54469 15.1265 4.66905C13.1949 5.2216 10.8753 6.42514 9.68364 8.96935C6.88447 8.72923 4.68235 10.1363 3.23804 11.5329C2.91298 11.8472 2.61832 12.1676 2.35455 12.4797C1.58244 8.95952 3.12239 5.19706 6.40987 3.29902Z" fill="white"/>
<path d="M4.54405 14.8442C4.16738 14.6719 3.72234 14.8376 3.55002 15.2142C3.3777 15.5909 3.54336 16.0359 3.92003 16.2083L9.49923 18.7606C9.8759 18.9329 10.3209 18.7673 10.4933 18.3906C10.6656 18.0139 10.4999 17.5689 10.1232 17.3966L4.54405 14.8442Z" fill="white"/>
<path d="M18.8351 7.59703C18.8742 7.18467 18.5716 6.81868 18.1593 6.77958C17.7469 6.74048 17.3809 7.04306 17.3418 7.45543L16.7626 13.5633C16.7235 13.9757 17.0261 14.3417 17.4384 14.3808C17.8508 14.4199 18.2168 14.1173 18.2559 13.7049L18.8351 7.59703Z" fill="white"/>
<path d="M11.0348 11.3097C11.3935 11.1026 11.8522 11.2255 12.0593 11.5842L13.5593 14.1823C13.7664 14.541 13.6435 14.9997 13.2848 15.2068C12.9261 15.4139 12.4674 15.291 12.2603 14.9323L10.7603 12.3342C10.5531 11.9755 10.6761 11.5168 11.0348 11.3097Z" fill="white"/>
<path fill-rule="evenodd" clip-rule="evenodd" d="M12.9223 16.7312C13.2795 16.1124 13.9398 15.7312 14.6543 15.7312H17.3449C18.0595 15.7312 18.7197 16.1124 19.077 16.7312L20.4223 19.0613C20.7795 19.6801 20.7795 20.4425 20.4223 21.0613L19.077 23.3914C18.7197 24.0102 18.0595 24.3914 17.3449 24.3914H14.6543C13.9398 24.3914 13.2795 24.0102 12.9223 23.3914L11.577 21.0613C11.2197 20.4425 11.2197 19.6801 11.577 19.0613L12.9223 16.7312ZM14.6543 17.2312H17.3449C17.5236 17.2312 17.6886 17.3265 17.7779 17.4812L19.1232 19.8113C19.2125 19.966 19.2125 20.1566 19.1232 20.3113L17.7779 22.6414C17.6886 22.7961 17.5236 22.8914 17.3449 22.8914H14.6543C14.4757 22.8914 14.3106 22.7961 14.2213 22.6414L12.876 20.3113C12.7867 20.1566 12.7867 19.966 12.876 19.8113L14.2213 17.4812C14.3106 17.3265 14.4757 17.2312 14.6543 17.2312Z" fill="white"/>
</svg>
