<svg width="22" height="22" viewBox="0 0 22 22" fill="none" xmlns="http://www.w3.org/2000/svg">
<g clip-path="url(#clip0_1_2577)">
<path d="M11.7361 3.61094C11.5914 3.52594 11.4266 3.48418 11.2602 3.49034H9.27573C8.89859 3.49034 8.59328 3.67588 8.60226 3.89853V5.08599C8.60951 5.14709 8.63137 5.20537 8.66585 5.25557C8.70034 5.30578 8.74638 5.34633 8.79981 5.37357C8.9485 5.45676 9.11566 5.49833 9.28471 5.49417C9.65287 5.49417 9.9492 5.30863 9.95818 5.08599V4.89117L13.1819 6.82078C14.008 7.31247 14.017 8.10101 13.1819 8.58341C12.7233 8.82603 12.2154 8.95255 11.7002 8.95255C11.185 8.95255 10.6772 8.82603 10.2186 8.58341L7.09369 6.72801C6.94465 6.65052 6.78013 6.61016 6.61328 6.61016C6.44643 6.61016 6.28191 6.65052 6.13287 6.72801C5.87246 6.88572 5.88144 7.14548 6.13287 7.30319L9.25777 9.15859C10.011 9.5516 10.843 9.75635 11.6867 9.75635C12.5305 9.75635 13.3625 9.5516 14.1157 9.15859C15.4537 8.35149 15.4537 7.04343 14.1157 6.24561L10.8382 4.29744H11.2692C11.6374 4.29744 11.9427 4.12118 11.9337 3.89853C11.93 3.83632 11.9096 3.77642 11.8746 3.7256C11.8397 3.67478 11.7918 3.63506 11.7361 3.61094Z" fill="#D9D9D9"/>
<path d="M21.9731 6.49579C21.8798 5.93589 21.6573 5.40746 21.3243 4.95529C20.9914 4.50311 20.5578 4.14052 20.0604 3.89823L15.4449 1.11513C14.0546 0.382153 12.516 0 10.9551 0C9.39424 0 7.8556 0.382153 6.46531 1.11513L1.87673 3.89823C1.45257 4.12066 1.07539 4.42791 0.767091 4.80216C0.458795 5.1764 0.225523 5.61019 0.0808163 6.07833L0 7.80385V15.4017C0.0727792 15.983 0.287289 16.5357 0.623407 17.0079C0.959525 17.4801 1.40624 17.8563 1.92163 18.1013L6.53714 20.8844C7.91644 21.6475 9.46266 22.0309 11.0269 21.9977C12.5915 22.0338 14.1385 21.6503 15.5167 20.8844L20.1053 18.1013C20.6319 17.853 21.0849 17.4643 21.4179 16.9752C21.7509 16.486 21.9518 15.9141 22 15.3182V6.49579H21.9731ZM11.5747 13.3608C12.9467 13.3194 14.2903 12.9478 15.4988 12.2754L16.4865 11.6816L19.1804 13.2958C19.5726 13.4699 19.9144 13.746 20.1725 14.0972C20.4306 14.4483 20.5961 14.8627 20.6531 15.2997C20.6094 15.7358 20.4553 16.1524 20.2062 16.5074C19.9571 16.8625 19.6219 17.1434 19.2343 17.3221L14.6457 20.1052C13.7029 20.6323 12.655 20.9275 11.5837 20.9679L11.5747 13.3608ZM20.8327 8.94492V13.0361C20.5877 12.8284 20.3264 12.6422 20.0514 12.4795L17.5731 10.9951L20.0873 9.48299C20.3505 9.32642 20.5999 9.14638 20.8327 8.94492ZM2.76571 13.2587L5.45959 11.6167L6.5102 12.2383C7.70369 12.8979 9.02768 13.266 10.3804 13.3144V20.9308C9.32501 20.8792 8.29413 20.5845 7.36327 20.068L2.74776 17.2849C2.3554 17.1058 2.01587 16.8226 1.76356 16.4642C1.51125 16.1058 1.35513 15.6848 1.31102 15.244C1.36315 14.8102 1.52507 14.3982 1.78047 14.0497C2.03587 13.7011 2.3757 13.4283 2.76571 13.2587ZM2.76571 8.70372C2.37795 8.52277 2.04288 8.23995 1.79393 7.88347C1.54498 7.52698 1.39086 7.10929 1.34694 6.67206C1.38909 6.23426 1.54252 5.81576 1.79168 5.45897C2.04084 5.10218 2.37687 4.81978 2.76571 4.64039L7.35429 1.85729C8.46902 1.2795 9.69896 0.978626 10.9461 0.978626C12.1933 0.978626 13.4232 1.2795 14.538 1.85729L19.1535 4.64039C19.5555 4.81372 19.9059 5.09381 20.1693 5.45225C20.4326 5.81069 20.5995 6.23473 20.6531 6.68133C20.6112 7.11806 20.4578 7.53546 20.2085 7.8908C19.9592 8.24615 19.623 8.52669 19.2343 8.70372L14.6457 11.4868C13.5242 12.0744 12.2844 12.3806 11.0269 12.3806C9.76945 12.3806 8.52967 12.0744 7.40816 11.4868L2.76571 8.70372ZM4.4 10.9673L1.88571 12.4795C1.61976 12.636 1.36739 12.8161 1.13143 13.0175V8.92637C1.37417 9.13707 1.63576 9.32345 1.91265 9.48299L4.4 10.9673Z" fill="#D9D9D9"/>
</g>
<defs>
<clipPath id="clip0_1_2577">
<rect width="22" height="22" fill="white"/>
</clipPath>
</defs>
</svg>
