<svg width="24" height="23" viewBox="0 0 24 23" fill="none" xmlns="http://www.w3.org/2000/svg">
<path d="M12 4V8.5M12 8.5L10 7M12 8.5L14 7" stroke="white" stroke-linecap="round" stroke-linejoin="round"/>
<path d="M7 13.481H3C1.75736 13.481 0.75 14.4883 0.75 15.731V19.731C0.75 20.9736 1.75736 21.981 3 21.981H7C8.24264 21.981 9.25 20.9736 9.25 19.731V15.731C9.25 14.4883 8.24264 13.481 7 13.481Z" stroke="white"/>
<path d="M21 13.481H17C15.7574 13.481 14.75 14.4883 14.75 15.731V19.731C14.75 20.9736 15.7574 21.981 17 21.981H21C22.2426 21.981 23.25 20.9736 23.25 19.731V15.731C23.25 14.4883 22.2426 13.481 21 13.481Z" stroke="white"/>
<path d="M11.375 1.95799C11.7618 1.7347 12.2382 1.7347 12.625 1.95799L15.625 3.69004C16.0118 3.91333 16.25 4.32599 16.25 4.77257V8.23667C16.25 8.68326 16.0118 9.09592 15.625 9.31921L12.625 11.0512C12.2382 11.2745 11.7618 11.2745 11.375 11.0512L8.375 9.31921C7.98825 9.09592 7.75 8.68326 7.75 8.23667V4.77257C7.75 4.32599 7.98825 3.91333 8.375 3.69004L11.375 1.95799Z" stroke="white"/>
</svg>
