<svg width="32" height="32" viewBox="0 0 32 32" fill="none" xmlns="http://www.w3.org/2000/svg">
<path fill-rule="evenodd" clip-rule="evenodd" d="M30 28.6C31.1046 28.6 32 27.7046 32 26.6V10.4153C32 9.3107 31.0949 8.41929 30.0231 8.15207C29.9639 8.13731 29.905 8.12241 29.8462 8.10751C29.2586 7.95889 28.6711 7.81027 27.7872 7.80029H4.21277C3.32887 7.81027 2.74136 7.95889 2.15384 8.10751C2.09495 8.12241 2.03606 8.13731 1.97687 8.15207C0.905109 8.41929 0 9.31069 0 10.4153V26.6C0 27.7046 0.895431 28.6 2 28.6H30ZM4.497 5.95414H14.6273L14.5421 4.8466C14.4619 3.80461 13.593 3 12.5479 3H6.60535C5.5798 3 4.72043 3.77573 4.61579 4.79593L4.497 5.95414ZM17.3727 5.95414H27.503L27.3842 4.79593C27.2796 3.77573 26.4202 3 25.3946 3H19.4521C18.407 3 17.5381 3.80461 17.4579 4.8466L17.3727 5.95414Z" fill="black"/>
</svg>
