<svg width="24" height="20" viewBox="0 0 24 20" fill="none" xmlns="http://www.w3.org/2000/svg">
<path d="M14.7773 0H8.40939L0.505826 3.10237C0.133422 3.24777 -0.072809 3.64688 0.0236301 4.03561L0.927191 7.69436C1.01473 8.05045 1.33372 8.2997 1.70019 8.2997H4.22096V18.9614C4.22096 19.5341 4.68535 20 5.25954 20H17.9272C18.4999 20 18.9658 19.5356 18.9658 18.9614V8.2997H21.4865C21.853 8.2997 22.172 8.04896 22.2595 7.69436L23.1631 4.03561C23.2595 3.64688 23.0533 3.24926 22.6809 3.10237L14.7773 0Z" fill="black"/>
<path d="M14.4409 1.16766C14.0314 2.3457 12.9098 3.18991 11.5922 3.18991C10.2747 3.18991 9.15308 2.3457 8.74358 1.16766H14.4409Z" fill="white"/>
</svg>
