<svg width="22" height="18" viewBox="0 0 22 18" fill="none" xmlns="http://www.w3.org/2000/svg">
<path d="M5.99976 7.33578C6.07743 7.19312 6.14083 7.04095 6.18997 6.88402C6.26288 6.64784 6.3041 6.39581 6.3041 6.13427C6.3041 5.95991 6.28666 5.79031 6.25337 5.62546C6.01878 4.47627 5.00115 3.61239 3.7838 3.61239C3.00869 3.61239 2.316 3.96269 1.85315 4.51431C1.83572 4.53491 1.81828 4.5571 1.80243 4.5793C1.7628 4.62843 1.72634 4.67916 1.69147 4.73147C1.62173 4.83608 1.55832 4.94545 1.50443 5.06116C1.47748 5.11823 1.45212 5.17688 1.42993 5.23711C1.38238 5.36233 1.34117 5.49231 1.31422 5.62546C1.28093 5.79031 1.2635 5.95991 1.2635 6.13427C1.2635 6.57017 1.37445 6.97913 1.56783 7.33578C1.60588 7.4071 1.64867 7.47685 1.69464 7.54342C1.78499 7.67816 1.88802 7.80179 2.00215 7.91592C2.08299 7.99676 2.17176 8.07126 2.26369 8.141C2.49353 8.31536 2.75349 8.45327 3.03405 8.54203C3.27023 8.61495 3.52226 8.65616 3.7838 8.65616C4.04534 8.65616 4.29737 8.61653 4.53355 8.54203C4.84898 8.44376 5.13905 8.28525 5.38791 8.07919C5.44973 8.02846 5.50996 7.97298 5.56703 7.91592C5.68116 7.80179 5.78419 7.67657 5.87454 7.54342C5.91892 7.47685 5.96013 7.4071 5.99976 7.33578Z" fill="black"/>
<path d="M4.40187 10.2381C4.34164 10.2302 4.27982 10.2238 4.218 10.2207C4.13558 10.2143 4.05315 10.2112 3.96914 10.2112H3.47776C2.99748 10.2112 2.53939 10.3079 2.12409 10.4854C2.01948 10.5298 1.91803 10.5789 1.81976 10.6312C1.67234 10.7121 1.52968 10.8024 1.39654 10.9023C1.2618 11.0021 1.13658 11.1115 1.0177 11.2304C0.741893 11.5062 0.512054 11.828 0.342449 12.1814C0.286971 12.2956 0.237833 12.4129 0.19662 12.5333C0.133217 12.714 0.0840786 12.9027 0.0507917 13.0945C0.0175047 13.2894 6.86646e-05 13.4876 6.86646e-05 13.6905V16.97C6.86646e-05 17.0635 0.0159196 17.1539 0.0460364 17.2379C0.055547 17.2664 0.0666426 17.2934 0.0793234 17.3187C0.0967594 17.3536 0.115781 17.3885 0.137972 17.4202C0.282215 17.6342 0.527905 17.7752 0.806881 17.7752H4.67927C4.52234 17.4646 4.43199 17.1158 4.43199 16.7449V12.6839C4.43199 11.8517 4.61269 11.0608 4.93447 10.3459C4.84887 10.3205 4.76169 10.2999 4.67293 10.2809C4.58257 10.2635 4.49381 10.2492 4.40187 10.2381Z" fill="black"/>
<path d="M17.3823 8.65617C17.4774 8.65617 17.571 8.65142 17.6645 8.64032C17.8499 8.61971 18.029 8.5785 18.1986 8.52144C18.2842 8.49291 18.3667 8.45803 18.4475 8.42158C18.6425 8.33123 18.8232 8.21551 18.9864 8.08078C19.1259 7.96507 19.2543 7.83509 19.3669 7.69243C19.4794 7.54977 19.5761 7.39444 19.6553 7.22959C19.8154 6.8983 19.9042 6.52739 19.9042 6.13587C19.9042 5.74435 19.8154 5.37344 19.6553 5.04216C19.5761 4.87731 19.4778 4.72197 19.3669 4.57931C19.2559 4.43665 19.1275 4.30667 18.9864 4.19096C18.7994 4.03721 18.5902 3.90881 18.3635 3.81371C18.1368 3.7186 17.8943 3.6552 17.6391 3.62825C17.5551 3.62033 17.4679 3.61557 17.3807 3.61557C17.2286 3.61557 17.0796 3.62984 16.9337 3.6552C16.7166 3.69324 16.5089 3.7614 16.314 3.85175C16.119 3.9421 15.9383 4.05781 15.775 4.19254C15.6657 4.2829 15.5642 4.38117 15.4723 4.48737C15.1949 4.80756 14.9968 5.19908 14.908 5.62864C14.8747 5.79349 14.8573 5.9631 14.8573 6.13746C14.8573 6.399 14.8969 6.65103 14.9714 6.88721C15.0205 7.04572 15.0839 7.1963 15.1616 7.33896C15.1996 7.41029 15.2424 7.48003 15.2884 7.5466C15.3788 7.68134 15.4818 7.80498 15.5959 7.9191C15.653 7.97617 15.7132 8.03006 15.775 8.08237C16.0239 8.28843 16.314 8.44694 16.6294 8.54521C16.8703 8.61654 17.1224 8.65617 17.3823 8.65617Z" fill="black"/>
<path d="M21.0406 13.4178C21.0342 13.3275 21.0231 13.2387 21.0089 13.1515C20.9994 13.0929 20.9899 13.0342 20.9772 12.9772C20.9613 12.9011 20.9423 12.825 20.9217 12.7505C20.871 12.5714 20.806 12.397 20.7299 12.2306C20.7141 12.1973 20.6982 12.164 20.6824 12.1323C20.611 11.9896 20.5286 11.8517 20.4382 11.7202C20.3479 11.5886 20.2496 11.4634 20.1418 11.3461C19.9833 11.1717 19.8058 11.0132 19.6156 10.8753C19.5205 10.8056 19.4206 10.7406 19.3176 10.6819C19.1131 10.5631 18.8944 10.4632 18.6645 10.3887C18.5504 10.3507 18.4331 10.319 18.3126 10.2936C18.0733 10.2413 17.826 10.2143 17.5708 10.2143H17.0794C16.913 10.2143 16.7481 10.227 16.5865 10.2492C16.4248 10.2714 16.2679 10.3063 16.1157 10.3507C16.4375 11.0655 16.6182 11.8549 16.6182 12.6887V16.7497C16.6182 17.1206 16.5278 17.4693 16.3709 17.78H20.2433C20.4652 17.78 20.6665 17.6896 20.8123 17.5438C20.8488 17.5074 20.8821 17.4677 20.9106 17.4249C20.9328 17.3932 20.9518 17.3584 20.9693 17.3235C20.9819 17.2965 20.993 17.2696 21.0025 17.2426C21.0327 17.1586 21.0485 17.0683 21.0485 16.9748V13.6905C21.0501 13.5985 21.0469 13.5082 21.0406 13.4178Z" fill="black"/>
<path d="M9.95773 6.29448C10.1654 6.33728 10.3794 6.35947 10.5981 6.35947C10.7075 6.35947 10.8169 6.35313 10.9231 6.34362C11.137 6.32143 11.3447 6.27863 11.5428 6.21681C11.7425 6.15499 11.9328 6.07415 12.1135 5.97588C12.2942 5.8776 12.4638 5.76347 12.6207 5.6335C12.7776 5.50352 12.9219 5.35927 13.0518 5.20235C13.2785 4.92813 13.4608 4.61428 13.5844 4.27348C13.6462 4.10229 13.6954 3.92635 13.7271 3.74248C13.7429 3.65054 13.7556 3.55861 13.7635 3.46509C13.7715 3.37157 13.7762 3.27646 13.7762 3.17977C13.7762 2.63133 13.6367 2.11459 13.3926 1.66442C13.3261 1.54078 13.25 1.4219 13.1675 1.30777C13.0851 1.19523 12.9948 1.08744 12.8981 0.985998C12.8014 0.884552 12.6984 0.789446 12.589 0.702266C12.5351 0.657883 12.478 0.616671 12.421 0.575458C12.3068 0.494618 12.1864 0.421704 12.0612 0.356715C11.8107 0.226737 11.5412 0.128461 11.2575 0.0682277C11.0451 0.0238451 10.8248 6.86646e-05 10.5981 6.86646e-05C10.2684 6.86646e-05 9.95139 0.0507917 9.65339 0.142727C9.45367 0.204546 9.26346 0.285386 9.08276 0.383662C8.99241 0.4328 8.90523 0.485108 8.82122 0.542171C8.65161 0.656298 8.49469 0.786276 8.35045 0.930519C8.2062 1.07476 8.07623 1.23169 7.9621 1.40129C7.61972 1.90852 7.41841 2.52037 7.41841 3.17818C7.41841 3.72663 7.5579 4.24337 7.802 4.69353C7.8876 4.85046 7.98746 4.99946 8.09842 5.13895C8.17767 5.23881 8.2601 5.33708 8.35045 5.42585C8.42178 5.49718 8.49786 5.56692 8.57553 5.63033C8.81171 5.82529 9.07483 5.98539 9.36015 6.10585C9.55036 6.18986 9.75008 6.25168 9.95773 6.29448Z" fill="black"/>
<path d="M15.2598 11.7883C15.2297 11.6441 15.1932 11.5014 15.1504 11.362C15.1029 11.2082 15.0458 11.0592 14.9824 10.9134C14.9602 10.8611 14.9364 10.8072 14.9111 10.7564C14.8492 10.6265 14.7795 10.5012 14.705 10.3792C14.6305 10.2571 14.5512 10.1383 14.4657 10.0241C14.4165 9.95915 14.3658 9.89574 14.3151 9.83392C13.4987 8.85909 12.2735 8.23773 10.9024 8.23773H10.1447C9.45992 8.23773 8.81003 8.39307 8.22989 8.67046C8.01273 8.77508 7.80508 8.89555 7.60853 9.03186C7.41198 9.16818 7.22811 9.32035 7.05692 9.4852C6.94279 9.59616 6.83501 9.71187 6.73197 9.83392C6.67967 9.89574 6.62894 9.95915 6.58139 10.0241C6.4958 10.1383 6.41654 10.2571 6.34204 10.3792C6.26754 10.5012 6.19938 10.6281 6.13598 10.7564C6.11062 10.8088 6.08843 10.8611 6.06465 10.9134C6.00125 11.0592 5.94418 11.2082 5.89663 11.362C5.85383 11.5014 5.81737 11.6441 5.78726 11.7883C5.77299 11.8613 5.75873 11.9342 5.74763 12.0071C5.71434 12.2274 5.69691 12.4541 5.69691 12.6839V16.7449C5.69691 16.8702 5.72068 16.9906 5.7619 17.1016C5.77141 17.1269 5.78092 17.1523 5.7936 17.1777C5.81737 17.2268 5.84274 17.2759 5.87285 17.3203C5.90931 17.3758 5.95211 17.4265 5.99808 17.4725C6.17244 17.6469 6.40703 17.7562 6.66857 17.7721C6.68759 17.7737 6.70661 17.7752 6.72563 17.7752H8.55166H12.4922H14.3182C14.3198 17.7752 14.3198 17.7752 14.3214 17.7752C14.3388 17.7752 14.3579 17.7737 14.3753 17.7721C14.472 17.7673 14.5639 17.7451 14.6511 17.715C14.7858 17.669 14.9095 17.5993 15.0125 17.5058C15.049 17.4725 15.0823 17.4392 15.114 17.4012C15.1346 17.3758 15.1552 17.3489 15.1726 17.3219C15.2836 17.1571 15.3485 16.9589 15.3485 16.7465V12.6839C15.3485 12.4541 15.3311 12.2274 15.2978 12.0071C15.2883 11.9342 15.2756 11.8597 15.2598 11.7883Z" fill="black"/>
</svg>
