<svg width="25" height="25" viewBox="0 0 25 25" fill="none" xmlns="http://www.w3.org/2000/svg">
<path d="M15.4204 4.67017C15.4204 6.28294 14.113 7.59034 12.5002 7.59034C10.8875 7.59034 9.58008 6.28294 9.58008 4.67017C9.58008 3.05741 10.8875 1.75 12.5002 1.75C14.113 1.75 15.4204 3.05741 15.4204 4.67017Z" stroke="white" stroke-width="1"/>
<circle cx="20.0855" cy="6.91504" r="1.69678" stroke="white" stroke-width="1"/>
<circle cx="4.91553" cy="6.91504" r="1.69678" stroke="white" stroke-width="1"/>
<path d="M19 11H20C22.2091 11 24 12.7909 24 15V18C24 19.6569 22.6569 21 21 21H20.5" stroke="white" stroke-width="1" stroke-linecap="round"/>
<path d="M6 11H5C2.79086 11 1 12.7909 1 15V18C1 19.6569 2.34315 21 4 21H4.49996" stroke="white" stroke-width="1" stroke-linecap="round"/>
<path d="M18.2497 17.5931L18.2494 21.0002C18.2493 22.2428 17.2419 23.25 15.9994 23.25H9C7.75736 23.25 6.75 22.2426 6.75 21V17.593C6.75 15.579 7.80384 13.7117 9.52798 12.6706C11.3556 11.5671 13.6443 11.5671 15.4719 12.6706C17.1961 13.7116 18.2499 15.579 18.2497 17.5931Z" stroke="white" stroke-width="1"/>
</svg>
