<svg width="32" height="32" viewBox="0 0 32 32" fill="none" xmlns="http://www.w3.org/2000/svg">
<path d="M9.727 13.6707C9.83997 13.4632 9.93219 13.2419 10.0037 13.0136C10.1097 12.6701 10.1697 12.3035 10.1697 11.9231C10.1697 11.6695 10.1443 11.4228 10.0959 11.183C9.75466 9.51144 8.27447 8.25488 6.50378 8.25488C5.37635 8.25488 4.3688 8.76441 3.69556 9.56677C3.67021 9.59673 3.64484 9.62901 3.62179 9.6613C3.56415 9.73276 3.51111 9.80655 3.46039 9.88264C3.35895 10.0348 3.26672 10.1939 3.18833 10.3622C3.14913 10.4452 3.11225 10.5305 3.07997 10.6181C3.01081 10.8003 2.95087 10.9893 2.91167 11.183C2.86324 11.4228 2.83789 11.6695 2.83789 11.9231C2.83789 12.5571 2.99927 13.152 3.28055 13.6707C3.3359 13.7745 3.39814 13.8759 3.465 13.9727C3.59642 14.1687 3.74628 14.3486 3.91229 14.5146C4.02988 14.6321 4.159 14.7405 4.29271 14.842C4.62703 15.0956 5.00515 15.2962 5.41324 15.4253C5.75677 15.5313 6.12336 15.5913 6.50378 15.5913C6.8842 15.5913 7.25079 15.5336 7.59433 15.4253C8.05313 15.2823 8.47505 15.0518 8.83703 14.752C8.92695 14.6783 9.01456 14.5976 9.09757 14.5146C9.26358 14.3486 9.41344 14.1664 9.54486 13.9727C9.60941 13.8759 9.66935 13.7745 9.727 13.6707Z" fill="black"/>
<path d="M7.40262 17.8917C7.31501 17.8802 7.22509 17.8709 7.13517 17.8664C7.01529 17.857 6.89539 17.8525 6.77319 17.8525H6.05846C5.35987 17.8525 4.69356 17.9932 4.08949 18.2514C3.93733 18.316 3.78976 18.3874 3.64682 18.4634C3.43239 18.5811 3.22489 18.7125 3.03123 18.8578C2.83525 19.0029 2.65311 19.1621 2.48019 19.335C2.07902 19.7362 1.74471 20.2042 1.49801 20.7183C1.41731 20.8844 1.34584 21.055 1.28589 21.2301C1.19367 21.493 1.1222 21.7674 1.07378 22.0464C1.02536 22.3299 1 22.6182 1 22.9133V27.6835C1 27.8195 1.02306 27.951 1.06686 28.0732C1.0807 28.1146 1.09683 28.1539 1.11528 28.1907C1.14064 28.2415 1.16831 28.2923 1.20059 28.3384C1.41039 28.6496 1.76776 28.8547 2.17355 28.8547H7.80611C7.57785 28.4029 7.44643 27.8956 7.44643 27.3561V21.4492C7.44643 20.2387 7.70927 19.0883 8.17731 18.0485C8.0528 18.0115 7.92599 17.9816 7.79689 17.9539C7.66546 17.9286 7.53635 17.9078 7.40262 17.8917Z" fill="black"/>
<path d="M26.2831 15.5906C26.4214 15.5906 26.5576 15.5837 26.6936 15.5675C26.9632 15.5375 27.2237 15.4776 27.4704 15.3946C27.5949 15.3531 27.7149 15.3024 27.8325 15.2494C28.1161 15.1179 28.3789 14.9496 28.6163 14.7536C28.8192 14.5853 29.006 14.3963 29.1698 14.1888C29.3334 13.9813 29.4741 13.7553 29.5893 13.5155C29.8221 13.0337 29.9513 12.4942 29.9513 11.9247C29.9513 11.3552 29.8221 10.8157 29.5893 10.3338C29.4741 10.094 29.3311 9.8681 29.1698 9.66059C29.0083 9.45309 28.8216 9.26403 28.6163 9.09572C28.3443 8.87208 28.04 8.68532 27.7103 8.54699C27.3805 8.40865 27.0278 8.31643 26.6566 8.27723C26.5344 8.26571 26.4076 8.25879 26.2808 8.25879C26.0595 8.25879 25.8428 8.27955 25.6306 8.31643C25.3148 8.37176 25.0127 8.47091 24.7292 8.60232C24.4456 8.73374 24.1827 8.90205 23.9452 9.09802C23.7862 9.22945 23.6386 9.37239 23.5049 9.52686C23.1014 9.99259 22.8133 10.5621 22.6841 11.1869C22.6357 11.4267 22.6104 11.6734 22.6104 11.927C22.6104 12.3074 22.668 12.674 22.7763 13.0175C22.8477 13.2481 22.94 13.4671 23.053 13.6746C23.1082 13.7784 23.1705 13.8798 23.2374 13.9767C23.3689 14.1726 23.5187 14.3525 23.6847 14.5185C23.7677 14.6015 23.8553 14.6799 23.9452 14.756C24.3072 15.0557 24.7292 15.2862 25.188 15.4292C25.5384 15.5329 25.905 15.5906 26.2831 15.5906Z" fill="black"/>
<path d="M31.6044 22.5161C31.5951 22.3847 31.579 22.2556 31.5583 22.1287C31.5445 22.0435 31.5307 21.9581 31.5122 21.8752C31.4891 21.7645 31.4614 21.6538 31.4315 21.5455C31.3577 21.285 31.2632 21.0313 31.1525 20.7892C31.1295 20.7408 31.1064 20.6924 31.0834 20.6463C30.9795 20.4387 30.8597 20.2381 30.7282 20.0468C30.5968 19.8554 30.4539 19.6733 30.2971 19.5027C30.0665 19.249 29.8083 19.0185 29.5317 18.8179C29.3934 18.7165 29.248 18.622 29.0982 18.5366C28.8008 18.3638 28.4827 18.2185 28.1483 18.1101C27.9823 18.0548 27.8117 18.0087 27.6364 17.9718C27.2883 17.8957 26.9286 17.8564 26.5574 17.8564H25.8427C25.6006 17.8564 25.3608 17.8749 25.1257 17.9072C24.8905 17.9395 24.6623 17.9903 24.4409 18.0548C24.909 19.0946 25.1718 20.2428 25.1718 21.4556V27.3625C25.1718 27.902 25.0403 28.4092 24.8121 28.8611H30.4447C30.7675 28.8611 31.0603 28.7296 31.2723 28.5175C31.3254 28.4646 31.3739 28.4068 31.4153 28.3446C31.4476 28.2985 31.4752 28.2479 31.5007 28.1971C31.519 28.1578 31.5352 28.1187 31.549 28.0794C31.5929 27.9572 31.6159 27.8259 31.6159 27.6899V22.9127C31.6182 22.7789 31.6136 22.6476 31.6044 22.5161Z" fill="black"/>
<path d="M15.4846 12.1555C15.7866 12.2178 16.0979 12.25 16.416 12.25C16.5751 12.25 16.7343 12.2408 16.8887 12.227C17.1999 12.1947 17.502 12.1325 17.7901 12.0425C18.0806 11.9526 18.3574 11.835 18.6202 11.6921C18.8831 11.5491 19.1298 11.3831 19.358 11.1941C19.5862 11.005 19.7961 10.7952 19.985 10.567C20.3148 10.1681 20.5799 9.71158 20.7597 9.21587C20.8496 8.96687 20.9212 8.71096 20.9673 8.44351C20.9903 8.30978 21.0087 8.17606 21.0202 8.04003C21.0319 7.904 21.0387 7.76566 21.0387 7.62502C21.0387 6.82729 20.8358 6.07567 20.4807 5.42087C20.384 5.24103 20.2733 5.06812 20.1533 4.90211C20.0335 4.73842 19.9021 4.58163 19.7615 4.43408C19.6208 4.28652 19.471 4.14819 19.3119 4.02138C19.2335 3.95682 19.1504 3.89688 19.0675 3.83693C18.9014 3.71934 18.7263 3.61329 18.5442 3.51876C18.1798 3.3297 17.7878 3.18675 17.3751 3.09914C17.0662 3.03458 16.7458 3 16.416 3C15.9365 3 15.4753 3.07378 15.0419 3.2075C14.7514 3.29742 14.4747 3.41501 14.2119 3.55795C14.0805 3.62943 13.9537 3.70551 13.8315 3.78851C13.5848 3.95452 13.3565 4.14357 13.1467 4.35338C12.9369 4.56319 12.7478 4.79145 12.5818 5.03814C12.0838 5.77593 11.791 6.66589 11.791 7.62271C11.791 8.42045 11.9939 9.17208 12.349 9.82685C12.4735 10.0551 12.6187 10.2718 12.7801 10.4747C12.8954 10.62 13.0153 10.7629 13.1467 10.892C13.2505 10.9958 13.3611 11.0972 13.4741 11.1895C13.8176 11.4731 14.2004 11.7059 14.6154 11.8811C14.892 12.0033 15.1825 12.0933 15.4846 12.1555Z" fill="black"/>
<path d="M23.1958 20.1469C23.152 19.9371 23.0989 19.7296 23.0367 19.5268C22.9676 19.3031 22.8845 19.0864 22.7923 18.8743C22.76 18.7982 22.7254 18.7198 22.6886 18.6459C22.5986 18.457 22.4972 18.2747 22.3888 18.0973C22.2804 17.9197 22.1651 17.7469 22.0407 17.5808C21.9692 17.4863 21.8954 17.3941 21.8217 17.3042C20.6342 15.8862 18.8521 14.9824 16.8578 14.9824H15.7556C14.7596 14.9824 13.8143 15.2084 12.9705 15.6118C12.6546 15.764 12.3526 15.9393 12.0667 16.1375C11.7808 16.3358 11.5133 16.5571 11.2643 16.7969C11.0983 16.9583 10.9416 17.1266 10.7917 17.3042C10.7156 17.3941 10.6418 17.4863 10.5726 17.5808C10.4482 17.7469 10.3329 17.9197 10.2245 18.0973C10.1161 18.2747 10.017 18.4593 9.92478 18.6459C9.88789 18.7222 9.85562 18.7982 9.82103 18.8743C9.72881 19.0864 9.6458 19.3031 9.57663 19.5268C9.51438 19.7296 9.46135 19.9371 9.41755 20.1469C9.39679 20.2531 9.37605 20.3591 9.35991 20.4651C9.31149 20.7856 9.28613 21.1153 9.28613 21.4496V27.3565C9.28613 27.5387 9.32071 27.7139 9.38066 27.8753C9.3945 27.9121 9.40833 27.9491 9.42677 27.986C9.46135 28.0574 9.49825 28.1288 9.54205 28.1934C9.59508 28.2742 9.65733 28.3479 9.7242 28.4148C9.97781 28.6685 10.319 28.8275 10.6995 28.8506C10.7271 28.8529 10.7548 28.8551 10.7825 28.8551H13.4385H19.1702H21.8262C21.8285 28.8551 21.8285 28.8551 21.8308 28.8551C21.8562 28.8551 21.8839 28.8529 21.9092 28.8506C22.0499 28.8436 22.1836 28.8113 22.3104 28.7675C22.5063 28.7006 22.6863 28.5992 22.8361 28.4632C22.8892 28.4148 22.9376 28.3664 22.9837 28.3111C23.0137 28.2742 23.0436 28.235 23.069 28.1958C23.2304 27.956 23.3248 27.6678 23.3248 27.3588V21.4496C23.3248 21.1153 23.2995 20.7856 23.2511 20.4651C23.2372 20.3591 23.2188 20.2507 23.1958 20.1469Z" fill="black"/>
</svg>
