<svg xmlns="http://www.w3.org/2000/svg" width="177" height="187" viewBox="0 0 177 187" fill="none">
    <path d="M157 16C161.418 16 165 12.4183 165 8C165 3.58173 161.418 0 157 0C152.582 0 149 3.58173 149 8C149 12.4183 152.582 16 157 16Z" fill="#D9D9D9"/>
    <path d="M137.5 41C140.538 41 143 38.5376 143 35.5C143 32.4624 140.538 30 137.5 30C134.462 30 132 32.4624 132 35.5C132 38.5376 134.462 41 137.5 41Z" fill="#D9D9D9"/>
    <path fill-rule="evenodd" clip-rule="evenodd" d="M68.5341 88.5949C65.6073 86.9238 62.0137 86.9309 59.0935 88.6136L35.097 102.441C32.1578 104.135 30.3466 107.269 30.3466 110.661V138.022C30.3466 141.391 32.1332 144.507 35.0405 146.21L59.0371 160.258C61.9858 161.985 65.6351 161.992 68.5907 160.277L92.84 146.21C95.7657 144.513 97.5667 141.387 97.5667 138.004V110.679C97.5667 107.273 95.7411 104.129 92.7836 102.44L68.5341 88.5949ZM61.743 93.2117C63.0297 92.4703 64.6132 92.4671 65.9028 93.2035L89.7153 106.799L67.2731 119.808C65.1451 121.042 62.5184 121.037 60.3954 119.795L38.1721 106.794L61.743 93.2117ZM69.964 124.568L92.2598 111.644V138.004C92.2598 139.495 91.4663 140.872 90.1771 141.62L66.5574 155.322V130.48C66.5574 128.043 67.8553 125.79 69.964 124.568ZM61.0905 130.454V155.311L37.7217 141.63C36.4407 140.88 35.6534 139.507 35.6534 138.022V111.654L57.7074 124.556C59.8026 125.782 61.0905 128.027 61.0905 130.454Z" fill="#D9D9D9"/>
    <path fill-rule="evenodd" clip-rule="evenodd" d="M103.461 40.5022C99.6437 44.3108 99.6437 50.4916 103.461 54.3003L104.519 55.3557L92.2465 67.5997C83.5698 63.1454 73.7301 60.6325 63.3168 60.6325C28.3611 60.6325 0 88.9077 0 123.816C0 158.725 28.3611 187 63.3168 187C98.2726 187 126.634 158.725 126.634 123.816C126.634 113.964 124.37 104.626 120.33 96.3039L132.947 83.7172L134.688 85.4551C138.498 89.2562 144.67 89.256 148.479 85.4552L151.137 82.8037C154.954 78.9951 154.954 72.8143 151.137 69.0056L119.91 37.8508C116.1 34.0498 109.929 34.0497 106.119 37.8508L103.461 40.5022ZM107.699 50.0527C106.231 48.5883 106.231 46.2141 107.699 44.7498L110.357 42.0983C111.824 40.6339 114.204 40.6339 115.672 42.0983L146.899 73.2531C148.367 74.7175 148.367 77.0918 146.899 78.5561L144.242 81.2076C142.774 82.6719 140.394 82.672 138.926 81.2076L133.653 75.9464C133.262 75.557 132.631 75.557 132.24 75.9464L113.493 94.6499C113.172 94.9705 113.108 95.4669 113.33 95.8625C117.981 104.128 120.634 113.663 120.634 123.816C120.634 155.398 94.972 181 63.3168 181C31.6616 181 6 155.398 6 123.816C6 92.2346 31.6616 66.6325 63.3168 66.6325C74.0143 66.6325 84.0272 69.5563 92.5967 74.6465C92.9938 74.8824 93.5011 74.8234 93.8281 74.4971L112.305 56.0636C112.696 55.6729 112.696 55.0385 112.305 54.6478L107.699 50.0527Z" fill="#D9D9D9"/>
    <path d="M177 41.5C177 47.8513 171.851 53 165.5 53C159.149 53 154 47.8513 154 41.5C154 35.1487 159.149 30 165.5 30C171.851 30 177 35.1487 177 41.5Z" fill="#D9D9D9"/>
</svg>
