<svg width="199" height="210" viewBox="0 0 199 210" fill="none" xmlns="http://www.w3.org/2000/svg">
<path d="M146.36 106.331L144.306 104.272L146.36 106.331L149.018 103.68C151.661 101.043 151.661 96.7659 149.018 94.1294L117.791 62.9745C115.152 60.3418 110.876 60.3418 108.238 62.9745L105.58 65.626C102.937 68.2625 102.937 72.54 105.58 75.1765L107.676 73.0761L105.58 75.1765L108.767 78.3557L92.79 94.2951C84.0722 89.4146 74.0158 86.6325 63.3168 86.6325C30.0113 86.6325 3 113.571 3 146.816C3 180.061 30.0113 207 63.3168 207C96.6223 207 123.634 180.061 123.634 146.816C123.634 136.673 121.116 127.108 116.67 118.718L132.947 102.479L136.807 106.331C139.446 108.964 143.722 108.964 146.36 106.331Z" fill="white" stroke="white" stroke-width="6"/>
<path d="M147.004 72.734L168.321 85.1711C170.208 86.2719 172.543 86.2766 174.434 85.1833L195.975 72.7301C197.848 71.6478 199 69.654 199 67.4971V43.3069C199 41.1351 197.832 39.13 195.939 38.0532L174.398 25.796C172.525 24.7304 170.225 24.735 168.357 25.808L147.04 38.0491C145.159 39.1291 144 41.1277 144 43.2908V67.5132C144 69.6615 145.143 71.6486 147.004 72.734Z" fill="white"/>
<path d="M127.529 24.301L138.381 30.6326C139.342 31.193 140.531 31.1954 141.494 30.6387L152.46 24.299C153.413 23.748 154 22.733 154 21.6349V9.31985C154 8.21423 153.405 7.19344 152.442 6.64524L141.475 0.405254C140.522 -0.137245 139.351 -0.134933 138.4 0.411327L127.548 6.64317C126.59 7.19299 126 8.21045 126 9.3117V21.6431C126 22.7368 126.582 23.7484 127.529 24.301Z" fill="white"/>
</svg>
