<svg width="22" height="22" viewBox="0 0 22 22" fill="none" xmlns="http://www.w3.org/2000/svg">
<rect x="0.75" y="12.75" width="8.5" height="8.5" rx="2.25" stroke="white" stroke-width="1"/>
<circle cx="17" cy="17" r="4.25" stroke="white" stroke-width="1"/>
<path d="M5.69861 0.920844L8.59915 2.45756C9.02407 2.68268 9.25 3.07543 9.25 3.46328V6.53672C9.25 6.92457 9.02407 7.31732 8.59915 7.54244L5.69861 9.07916C5.26865 9.30695 4.73135 9.30695 4.30139 9.07916L1.40085 7.54244C0.975936 7.31732 0.75 6.92457 0.75 6.53672V3.46328C0.75 3.07543 0.975936 2.68268 1.40085 2.45756L4.30139 0.920843C4.73135 0.693052 5.26866 0.693052 5.69861 0.920844Z" stroke="white" stroke-width="1"/>
<path d="M18.0578 1.43253L21.0683 7.1082C21.6177 8.14386 20.8716 9.25 20.0106 9.25H13.9894C13.1284 9.25 12.3823 8.14386 12.9317 7.1082L15.9422 1.43252C16.4249 0.522492 17.5751 0.522491 18.0578 1.43253Z" stroke="white" stroke-width="1"/>
</svg>
