<?xml version="1.0" encoding="UTF-8"?>
<svg width="48px" height="44px" viewBox="0 0 48 44" version="1.1" xmlns="http://www.w3.org/2000/svg" xmlns:xlink="http://www.w3.org/1999/xlink">
    <!-- Generator: Sketch 53.2 (72643) - https://sketchapp.com -->
    <title>ic_hw_02</title>
    <desc>Created with Sketch.</desc>
    <g id="Page-2" stroke="none" stroke-width="1" fill="none" fill-rule="evenodd">
        <g id="ts_01-copy-7" transform="translate(-330.000000, -823.000000)" fill="#FCD600" fill-rule="nonzero">
            <g id="ic_hw_02" transform="translate(330.000000, 823.000000)">
                <path d="M47.2953764,0.722965517 L0.704529874,0.722965517 C0.315468134,0.722965517 0,1.03662158 0,1.42344851 L0,43.2638618 C0,43.6506888 0.315468134,43.9643448 0.704529874,43.9643448 L47.2954701,43.9643448 C47.6845319,43.9643448 48,43.6506888 48,43.2638618 L48,1.42344851 C47.9999063,1.03662158 47.6844381,0.722965517 47.2953764,0.722965517 Z M46.5909403,6.70014079 L9.37760668,6.70014079 C8.98854494,6.70014079 8.67307681,7.01379685 8.67307681,7.40062378 C8.67307681,7.78745072 8.98854494,8.10110678 9.37760668,8.10110678 L46.5908465,8.10110678 L46.5909403,42.5633788 L1.408966,42.5633788 L1.408966,8.10110678 L6.12130054,8.10110678 C6.51036228,8.10110678 6.82583042,7.78745072 6.82583042,7.40062378 C6.82583042,7.01379685 6.51036228,6.70014079 6.12130054,6.70014079 L1.408966,6.70014079 L1.408966,2.1238383 L46.5909403,2.1238383 L46.5908465,6.70014079 L46.5909403,6.70014079 Z" id="Shape"></path>
                <path d="M25.925341,33.3436552 L21.3127543,33.3436552 C19.6436719,33.3436552 18.2857143,34.7049517 18.2857143,36.3781379 C18.2857143,38.0513242 19.6436719,39.4126207 21.3127543,39.4126207 L25.925341,39.4126207 C27.5944233,39.4126207 28.952381,38.0513242 28.952381,36.3781379 C28.952381,34.7048556 27.5944233,33.3436552 25.925341,33.3436552 Z M25.925341,37.9675831 L21.3127543,37.9675831 C20.4384593,37.9675831 19.7272076,37.2545825 19.7272076,36.3781379 C19.7272076,35.5016933 20.4385553,34.7886927 21.3127543,34.7886927 L25.925341,34.7886927 C26.7996359,34.7886927 27.5108877,35.5017895 27.5108877,36.3781379 C27.5108877,37.2544864 26.7996359,37.9675831 25.925341,37.9675831 Z" id="Shape"></path>
                <path d="M41.1904762,3.75744828 L41.0952381,3.75744828 C40.7007889,3.75744828 40.3809524,4.09713672 40.3809524,4.51606897 C40.3809524,4.93500122 40.7007889,5.27468966 41.0952381,5.27468966 L41.1904762,5.27468966 C41.5849254,5.27468966 41.9047619,4.93500122 41.9047619,4.51606897 C41.9047619,4.09713672 41.5849254,3.75744828 41.1904762,3.75744828 Z" id="Path"></path>
                <path d="M44.2380952,3.75744828 L44.1428571,3.75744828 C43.7484079,3.75744828 43.4285714,4.09713672 43.4285714,4.51606897 C43.4285714,4.93500122 43.7484079,5.27468966 44.1428571,5.27468966 L44.2380952,5.27468966 C44.6325444,5.27468966 44.952381,4.93500122 44.952381,4.51606897 C44.952381,4.09713672 44.6325444,3.75744828 44.2380952,3.75744828 Z" id="Path"></path>
                <path d="M38.1428571,3.75744828 L38.047619,3.75744828 C37.6531699,3.75744828 37.3333333,4.09713672 37.3333333,4.51606897 C37.3333333,4.93500122 37.6531699,5.27468966 38.047619,5.27468966 L38.1428571,5.27468966 C38.5373063,5.27468966 38.8571429,4.93500122 38.8571429,4.51606897 C38.8571429,4.09713672 38.5374014,3.75744828 38.1428571,3.75744828 Z" id="Path"></path>
                <path d="M43.985403,35.3918568 L39.2004941,30.6676732 L41.873537,28.0286566 C42.247096,27.6598528 42.071309,27.0100775 41.5627657,26.8731327 L36.7234533,25.5700872 L36.7234533,16.5865416 C36.7234533,16.2048618 36.4099804,15.8953793 36.0233795,15.8953793 L12.1286452,15.8953793 C11.7420443,15.8953793 11.4285714,16.2048618 11.4285714,16.5865416 L11.4285714,31.3306923 C11.4285714,31.712372 11.7420443,32.0218545 12.1286452,32.0218545 L31.138979,32.0218545 L32.2550914,36.0623255 C32.3938019,36.5644873 33.0519551,36.7379447 33.4255141,36.3692328 L36.098557,33.7302163 L40.8835591,38.4543079 C41.1532482,38.720564 41.6038479,38.720564 41.873537,38.4543079 L43.9854962,36.3692328 C44.2588184,36.0992979 44.2588184,35.6616998 43.985403,35.3918568 Z M12.8286259,30.639622 L12.8286259,17.2777038 L35.3233988,17.2777038 L35.3233988,25.193098 L29.9465713,23.7453821 C29.4336496,23.6072416 28.9470913,24.0876063 29.0870129,24.5939987 L30.7570359,30.63953 L12.8286259,30.639622 L12.8286259,30.639622 Z M41.3785946,36.9882898 L36.5935926,32.2641982 C36.3239035,31.9978501 35.8733038,31.9979421 35.6036147,32.2641982 L33.2884804,34.5497701 L30.7602033,25.3973656 L40.0306149,27.8934592 L37.7155738,30.1791231 C37.4421584,30.449058 37.4421584,30.8866562 37.7155738,31.1564992 L42.5005758,35.8805908 L41.3785946,36.9882898 Z" id="Shape"></path>
                <path d="M27.4720802,12.8608966 L12.1469675,12.8608966 C11.7502484,12.8608966 11.4285714,13.200585 11.4285714,13.6195172 C11.4285714,14.0384495 11.7502484,14.3781379 12.1469675,14.3781379 L27.4720802,14.3781379 C27.8687992,14.3781379 28.1904762,14.0384495 28.1904762,13.6195172 C28.1904762,13.200585 27.8687992,12.8608966 27.4720802,12.8608966 Z" id="Path"></path>
                <path d="M36.61141,12.8608966 L28.9123035,12.8608966 C28.5136896,12.8608966 28.1904762,13.200585 28.1904762,13.6195172 C28.1904762,14.0384495 28.5136896,14.3781379 28.9123035,14.3781379 L36.6115061,14.3781379 C37.0101199,14.3781379 37.3333333,14.0384495 37.3333333,13.6195172 C37.3333333,13.200585 37.0100239,12.8608966 36.61141,12.8608966 Z" id="Path"></path>
            </g>
        </g>
    </g>
</svg>