<?xml version="1.0" encoding="UTF-8"?>
<svg width="53px" height="43px" viewBox="0 0 53 43" version="1.1" xmlns="http://www.w3.org/2000/svg" xmlns:xlink="http://www.w3.org/1999/xlink">
    <!-- Generator: Sketch 53.2 (72643) - https://sketchapp.com -->
    <title>ic_hw_01</title>
    <desc>Created with Sketch.</desc>
    <g id="Page-2" stroke="none" stroke-width="1" fill="none" fill-rule="evenodd">
        <g id="ts_01-copy-7" transform="translate(-145.000000, -824.000000)" fill="#FCD600" fill-rule="nonzero">
            <path d="M154.485079,854.595494 C154.284106,854.188616 154.153848,853.522417 154.039152,852.571132 C153.986072,852.130881 153.941834,851.66177 153.905839,851.193021 C153.884252,850.911908 153.870146,850.692477 153.86198,850.522469 L153.86198,840.128942 C153.86198,837.361325 156.10222,835.124774 158.857519,835.124774 C161.612857,835.124774 163.853342,837.361363 163.853046,840.15038 L163.622357,848.474979 L163.622357,850.86874 C163.622357,852.790421 165.190115,854.355598 167.132133,854.355598 C169.172566,854.355598 171.058762,852.697087 171.058878,850.882169 L170.872611,840.128942 C170.872611,837.361325 173.112852,835.124774 175.868151,835.124774 C178.62345,835.124774 180.86369,837.361325 180.86369,840.128942 L180.863576,842.509407 L180.990817,849.930568 L180.990817,850.614865 C180.990817,852.640585 182.273052,854.101439 184.119496,854.101439 C186.061515,854.101439 187.628989,852.536546 187.628989,850.614865 L187.628991,849.7444 L187.653422,840.51797 C187.647002,840.401006 187.633602,840.192565 187.612943,839.923557 C187.578527,839.475438 187.536293,839.027681 187.48618,838.61219 C187.390914,837.822317 187.269283,837.22606 187.187529,837.084315 L187.119123,836.927413 C185.578122,831.936857 180.94675,828.463213 175.637449,828.463213 C172.608999,828.463213 169.758483,829.586877 167.56227,831.580964 L167.068539,832.029255 L166.574835,831.580933 C164.379014,829.586952 161.528238,828.463213 158.49969,828.463213 C153.190389,828.463213 148.559017,831.936857 147.018016,836.927413 L146.94961,837.084315 C146.867856,837.22606 146.746225,837.822317 146.650959,838.61219 C146.600847,839.027681 146.558612,839.475438 146.524197,839.923557 C146.503537,840.192565 146.490138,840.401006 146.484046,840.439514 C146.490069,840.569081 146.502101,840.813281 146.520062,841.155711 C146.550031,841.727103 146.585771,842.363963 146.627199,843.049873 C146.745533,845.009093 146.885653,846.968078 147.046812,848.7949 C147.223078,850.792966 147.414068,852.509186 147.618523,853.85452 C148.33507,858.566563 150.492105,862.027737 154.530575,864.758138 C156.174086,865.869602 157.714183,865.648351 158.742543,864.47537 C159.652402,863.437556 159.806682,862.020752 159.119306,861.238334 C156.977541,859.583908 155.33254,857.288924 154.485079,854.595494 Z M159.849686,865.48766 C158.334274,867.216188 155.974968,867.555127 153.710161,866.023497 C149.321632,863.056422 146.930524,859.219656 146.150067,854.087334 C145.939922,852.70456 145.745633,850.958689 145.566759,848.93107 C145.404199,847.088366 145.263102,845.115717 145.143971,843.143302 C145.102286,842.453139 145.066319,841.812218 145.036142,841.236883 C145.018015,840.891277 145.005833,840.644023 145,840.433025 C145.007002,840.305481 145.021109,840.086031 145.0427,839.804896 C145.078703,839.336108 145.122955,838.866958 145.176058,838.426669 C145.2908,837.475319 145.421127,836.80906 145.622241,836.402108 C147.379262,830.817388 152.565724,826.945618 158.49969,826.945618 C161.672622,826.945618 164.676287,828.047728 167.068595,830.01962 C169.461177,828.047668 172.464597,826.945618 175.637449,826.945618 C177.914927,826.945618 180.082294,827.51595 181.987922,828.534562 C181.989203,827.492335 182.401077,826.398266 183.161109,825.522831 C184.668741,823.786279 187.02421,823.441956 189.290142,824.974198 C193.678548,827.941385 196.069816,831.778552 196.849927,836.910589 C197.060154,838.293378 197.254485,840.039262 197.433366,842.066894 C197.595933,843.909605 197.737007,845.88226 197.856098,847.854681 C197.897768,848.544845 197.93372,849.185768 197.96388,849.761105 C197.981998,850.106712 197.994173,850.353968 198,850.564945 C197.992998,850.692481 197.978891,850.911917 197.957299,851.193034 C197.921295,851.661791 197.877042,852.130911 197.823937,852.571171 C197.709196,853.522422 197.57887,854.18863 197.377762,854.595569 C195.620762,860.18052 190.434336,864.052349 184.50031,864.052349 C181.327524,864.052349 178.323898,862.950164 175.931688,860.978114 C173.539215,862.950185 170.535593,864.052349 167.362835,864.052349 C165.094414,864.052349 162.935235,863.486545 161.035103,862.475525 C161.032747,863.51858 160.616267,864.613273 159.849686,865.48766 Z M188.514898,836.402108 C188.716012,836.80906 188.846339,837.475319 188.961081,838.426669 C189.014184,838.866958 189.058437,839.336108 189.09444,839.804896 C189.116031,840.086031 189.130138,840.305481 189.138302,840.477442 L189.115035,849.746345 L189.115035,850.614865 C189.115035,853.382482 186.874795,855.619033 184.119496,855.619033 C181.413891,855.619033 179.504771,853.443968 179.504771,850.614865 L179.504885,849.943864 L179.377643,842.522703 L179.377643,840.128942 C179.377643,838.207261 177.81017,836.642368 175.868151,836.642368 C173.926132,836.642368 172.358658,838.207261 172.358542,840.115513 L172.544808,850.86874 C172.544808,853.589866 169.94802,855.873193 167.132133,855.873193 C164.376834,855.873193 162.13631,853.636357 162.13631,850.86874 L162.136607,848.453541 L162.367296,840.128942 C162.367296,838.207331 160.799607,836.642368 158.857519,836.642368 C156.9155,836.642368 155.348026,838.207261 155.348026,840.128942 L155.348026,842.522703 L155.346861,850.479993 C155.353282,850.596952 155.366681,850.805382 155.387337,851.074375 C155.421746,851.52247 155.463968,851.970203 155.514061,852.385673 C155.609293,853.175527 155.73086,853.771769 155.812589,853.913571 L155.880869,854.070244 C157.422149,859.061093 162.053516,862.534754 167.362835,862.534754 C170.391191,862.534754 173.241938,861.410956 175.437976,859.416753 L175.931745,858.968365 L176.425487,859.416784 C178.621191,861.410933 181.471924,862.534754 184.50031,862.534754 C189.809662,862.534754 194.440994,859.061062 195.981981,854.07028 L196.05039,853.913367 C196.132145,853.77162 196.253773,853.175425 196.349038,852.385633 C196.399151,851.970173 196.441386,851.522449 196.475803,851.074362 C196.496463,850.805373 196.509863,850.596948 196.515953,850.558427 C196.509934,850.428861 196.49791,850.184662 196.479959,849.842234 C196.450005,849.270843 196.414281,848.633985 196.372868,847.948078 C196.254575,845.988863 196.114478,844.029884 195.953314,842.203069 C195.777043,840.205016 195.586015,838.488808 195.381471,837.143402 C194.665238,832.431591 192.508045,828.970034 188.469737,826.239563 C186.827422,825.129016 185.294475,825.353103 184.273053,826.529618 C183.367552,827.572609 183.217754,828.996667 183.90782,829.780412 C186.036408,831.433192 187.671113,833.720124 188.514898,836.402108 Z" id="ic_hw_01"></path>
        </g>
    </g>
</svg>