<?xml version="1.0" encoding="UTF-8"?>
<svg width="44px" height="50px" viewBox="0 0 44 50" version="1.1" xmlns="http://www.w3.org/2000/svg" xmlns:xlink="http://www.w3.org/1999/xlink">
    <!-- Generator: Sketch 53.2 (72643) - https://sketchapp.com -->
    <title>Group 11</title>
    <desc>Created with Sketch.</desc>
    <g id="Page-2" stroke="none" stroke-width="1" fill="none" fill-rule="evenodd">
        <g id="ts_01-copy-5" transform="translate(-515.000000, -814.000000)" fill="#FCD600" fill-rule="nonzero">
            <g id="Group-11" transform="translate(515.000000, 814.000000)">
                <path d="M41.85286,8.61151921 L26.5511641,0.345889669 C25.0996198,-0.438440141 23.1037464,0.164890482 22.3174933,1.61288398 L13.3663035,18.2044761 L2.47972147,18.2044761 C1.08865821,18.2044761 -1.77635684e-13,19.2904713 -1.77635684e-13,20.6781317 L-1.77635684e-13,25.0221122 L-1.77635684e-13,47.5263444 C-1.77635684e-13,48.9140049 1.08865821,50 2.47972147,50 L37.2563031,50 C38.6473664,50 39.7360246,48.9140049 39.7360246,47.5263444 L39.7360246,41.251706 L40.7642018,41.251706 C41.3085309,41.251706 41.731898,40.8293745 41.731898,40.286377 L41.731898,33.1067425 C41.731898,32.563745 41.3085309,32.1414135 40.7642018,32.1414135 L39.7360246,32.1414135 L39.7360246,25.0824452 C39.7360246,23.9361171 38.8892904,22.910455 37.8006322,22.6691227 L43.1229612,12.8348336 C43.9092144,11.326507 43.3648853,9.45618209 41.85286,8.61151921 Z M30.9662779,4.93120241 L21.4102781,22.6087897 L18.6886326,22.6087897 L28.9099235,3.84520729 L30.9662779,4.93120241 Z M24.0714426,2.51787991 C24.3738476,1.97488235 25.0996198,1.7335501 25.6439489,2.03521542 L27.1559742,2.87987829 L16.5113161,22.6087897 L13.1848605,22.6087897 L24.0714426,2.51787991 Z M1.87491136,20.6177986 C1.87491136,20.4367994 2.1168354,20.1351341 2.41924046,20.1351341 L12.2776453,20.1351341 L10.9470631,22.5484566 L2.41924046,22.5484566 C2.23779743,22.5484566 2.05635439,22.5484566 1.87491136,22.6087897 L1.87491136,20.6177986 Z M37.7401512,47.5263444 C37.7401512,47.8280098 37.4982271,48.069342 37.1958221,48.069342 L2.41924046,48.069342 C2.1168354,48.069342 1.87491136,47.8280098 1.87491136,47.5263444 L1.87491136,25.0824452 C1.87491136,24.7807799 2.1168354,24.5394477 2.41924046,24.5394477 L11.5518732,24.5394477 L15.4226579,24.5394477 L22.4989363,24.5394477 L36.1071639,24.5394477 L37.1353411,24.5394477 C37.4377461,24.5394477 37.6796702,24.7807799 37.6796702,25.0824452 L37.6796702,32.1414135 L33.9903285,32.1414135 L33.9903285,32.1414135 C32.3573412,32.1414135 31.0872399,33.4687409 31.0872399,35.0374005 L31.0872399,38.355719 C31.0872399,39.9847116 32.4178222,41.251706 33.9903285,41.251706 L37.7401512,41.251706 L37.7401512,47.5263444 Z M39.6755436,34.0720715 L39.7360246,34.0720715 L39.7360246,39.321048 L39.6755436,39.321048 L33.9903285,39.321048 C33.4459994,39.321048 33.0226323,38.8987165 33.0226323,38.355719 L33.0226323,35.0374005 C33.0226323,34.494403 33.4459994,34.0720715 33.9903285,34.0720715 L39.6755436,34.0720715 L39.6755436,34.0720715 Z M41.3690119,11.8695046 L35.5628348,22.6087897 L23.5875945,22.6087897 L32.6597462,5.89653141 L40.8851638,10.361178 C41.4899739,10.6025103 41.6714169,11.326507 41.3690119,11.8695046 Z" id="Shape"></path>
                <path d="M38.0661978,11.0193882 L37.5679671,10.780354 C36.3223905,10.12301 34.6408621,10.6010784 33.955795,11.7962492 L33.3330067,12.9316615 C33.0216125,13.529247 32.8970549,14.2463495 33.1461702,14.9036934 C33.3330067,15.5610374 33.8312373,16.0988643 34.4540256,16.397657 L34.9522563,16.6366912 C35.3259292,16.8159668 35.7618811,16.9354839 36.1978329,16.9354839 C37.1942942,16.9354839 38.0661978,16.397657 38.5644284,15.6207959 L39.1872167,14.4853836 C39.810005,13.2304542 39.3117744,11.6767321 38.0661978,11.0193882 Z M37.3811307,13.5890055 L36.7583424,14.7244178 C36.5715059,15.0232105 36.135554,15.1427276 35.8241599,14.963452 L35.3259292,14.6646593 C35.2013716,14.6049007 35.0768139,14.4256251 35.0145351,14.306108 C34.9522563,14.1268324 34.9522563,13.9475568 35.0768139,13.8280397 L35.6996022,12.6926274 C35.8241599,12.5133517 36.0732752,12.3340761 36.3223905,12.3340761 C36.4469482,12.3340761 36.509227,12.3340761 36.6337847,12.3938346 L37.1320153,12.6328688 C37.3811307,12.871903 37.5056883,13.2304542 37.3811307,13.5890055 Z" id="Shape"></path>
            </g>
        </g>
    </g>
</svg>