<?xml version="1.0" encoding="UTF-8"?>
<svg width="51px" height="51px" viewBox="0 0 51 51" version="1.1" xmlns="http://www.w3.org/2000/svg" xmlns:xlink="http://www.w3.org/1999/xlink">
    <!-- Generator: Sketch 53.2 (72643) - https://sketchapp.com -->
    <title>ic_hw_04</title>
    <desc>Created with Sketch.</desc>
    <g id="Page-2" stroke="none" stroke-width="1" fill="none" fill-rule="evenodd">
        <g id="ts_01-copy-7" transform="translate(-874.000000, -816.000000)" fill="#FCD600" fill-rule="nonzero">
            <g id="ic_hw_04" transform="translate(874.000000, 816.000000)">
                <path d="M48.4399173,33.9962795 C48.0614086,33.9977663 47.68821,34.084853 47.3481469,34.2511672 L44.5443785,31.4474017 L38.244396,31.4474017 L38.244396,25.5000204 L46.0473683,25.5000204 C46.5165747,26.8272423 47.9729412,27.5227673 49.3000582,27.0534552 C50.6272814,26.5842492 51.3228072,25.1278842 50.8534946,23.8007686 C50.3842882,22.4735467 48.9279217,21.7780217 47.6008047,22.2473338 C46.8749048,22.5039208 46.3039556,23.0749756 46.0473683,23.8007686 L38.244396,23.8007686 L38.244396,17.8533872 L44.5435289,17.8533872 L47.3472973,15.0496217 C47.6875728,15.2160422 48.06109,15.3031288 48.4399173,15.3045095 C49.8476427,15.3045095 50.9887976,14.1633557 50.9887976,12.7556318 C50.9887976,11.3479078 49.8476427,10.206754 48.4399173,10.206754 C47.0321919,10.206754 45.891037,11.3479078 45.891037,12.7556318 C45.8925238,13.1341401 45.9796106,13.5073383 46.145925,13.8474011 L43.8400379,16.1541354 L38.244396,16.1541354 L38.244396,12.7556318 L33.9962621,12.7556318 L33.9962621,7.15999553 L36.3029988,4.85411081 C36.6430619,5.02042508 37.0162605,5.10751174 37.3947692,5.10899858 C38.8024946,5.10899858 39.9436496,3.96784478 39.9436496,2.56012086 C39.9436496,1.15239693 38.8024946,0.0112431321 37.3947692,0.0112431321 C35.9870439,0.0112431321 34.8458889,1.15239693 34.8458889,2.56012086 C34.8473757,2.9386292 34.9344625,3.31182738 35.1007769,3.65189015 L32.2970086,6.45650527 L32.2970086,12.7556318 L26.3496211,12.7556318 L26.3496211,4.95266742 C27.6768444,4.48346151 28.3723701,3.0270965 27.9030575,1.69998083 C27.4337449,0.372865159 25.9775908,-0.322766053 24.6503676,0.146439855 C23.3231444,0.615645763 22.6276187,2.07201077 23.0969312,3.39912644 C23.3535185,4.12502558 23.9245739,4.69597419 24.6503676,4.95256121 L24.6503676,12.7555256 L18.7029802,12.7555256 L18.7029802,6.45650527 L15.8992118,3.65273978 C16.0656325,3.3124646 16.1527192,2.93894781 16.1540998,2.56012086 C16.1540998,1.15239693 15.0129449,0.0112431321 13.6052195,0.0112431321 C12.1974942,0.0112431321 11.0563392,1.15239693 11.0563392,2.56012086 C11.0563392,3.96784478 12.1974942,5.10899858 13.6052195,5.10899858 C13.9837282,5.10751174 14.3569268,5.02042508 14.6969899,4.85411081 L17.0037266,7.15999553 L17.0037266,12.7556318 L12.7555927,12.7556318 L12.7555927,16.1541354 L7.1599508,16.1541354 L4.85406373,13.8474011 C5.02037817,13.5073383 5.10746492,13.1341401 5.10895177,12.7556318 C5.10895177,11.3479078 3.9677968,10.206754 2.56007144,10.206754 C1.15234608,10.206754 0.0111911138,11.3479078 0.0111911138,12.7556318 C0.0111911138,14.1633557 1.15234608,15.3045095 2.56007144,15.3045095 C2.93858017,15.3030226 3.31177873,15.215936 3.65184185,15.0496217 L6.4556102,17.8533872 L12.7555927,17.8533872 L12.7555927,23.8007686 L4.95262044,23.8007686 C4.48341405,22.4735467 3.02704756,21.7780217 1.69993053,22.2473338 C0.37281351,22.7166459 -0.322818412,24.1729047 0.146494178,25.5000204 C0.615700564,26.8272423 2.07206706,27.5227673 3.39918408,27.0534552 C4.12508396,26.7968681 4.69603315,26.2258133 4.95262044,25.5000204 L12.7555927,25.5000204 L12.7555927,31.4474017 L6.45645983,31.4474017 L3.65269147,34.2511672 C3.31241595,34.0847468 2.93889878,33.9976601 2.56007144,33.9962795 C1.15234608,33.9962795 0.0111911138,35.1374333 0.0111911138,36.5451572 C0.0111911138,37.9528811 1.15234608,39.0940349 2.56007144,39.0940349 C3.9677968,39.0940349 5.10895177,37.9528811 5.10895177,36.5451572 C5.10746492,36.1666489 5.02037817,35.7934507 4.85406373,35.4533879 L7.1599508,33.1466536 L12.7555927,33.1466536 L12.7555927,38.244409 L17.0037266,38.244409 L17.0037266,43.8400452 L14.6969899,46.14593 C14.3569268,45.9796157 13.9837282,45.892529 13.6052195,45.8910422 C12.1974942,45.8910422 11.0563392,47.032196 11.0563392,48.4399199 C11.0563392,49.8476438 12.1974942,50.9887976 13.6052195,50.9887976 C15.0129449,50.9887976 16.1540998,49.8476438 16.1540998,48.4399199 C16.152613,48.0614116 16.0655263,47.6882134 15.8992118,47.3481506 L18.7029802,44.5443851 L18.7029802,38.244409 L24.6503676,38.244409 L24.6503676,46.0473734 C23.3231444,46.5165793 22.6276187,47.9729443 23.0969312,49.3000599 C23.5661376,50.6272818 25.0225041,51.3228068 26.3496211,50.8534947 C27.6767382,50.3841826 28.3723701,48.9279238 27.9030575,47.6008081 C27.6464702,46.874909 27.0754148,46.3039604 26.3496211,46.0473734 L26.3496211,38.244409 L32.2970086,38.244409 L32.2970086,44.5435355 L35.1007769,47.347301 C34.9343563,47.6875762 34.8472695,48.061093 34.8458889,48.4399199 C34.8458889,49.8476438 35.9870439,50.9887976 37.3947692,50.9887976 C38.8024946,50.9887976 39.9436496,49.8476438 39.9436496,48.4399199 C39.9436496,47.032196 38.8024946,45.8910422 37.3947692,45.8910422 C37.0162605,45.892529 36.6430619,45.9796157 36.3029988,46.14593 L33.9962621,43.8400452 L33.9962621,38.244409 L38.244396,38.244409 L38.244396,33.1466536 L43.8400379,33.1466536 L46.145925,35.4533879 C45.9796106,35.7934507 45.8925238,36.1666489 45.891037,36.5451572 C45.891037,37.9528811 47.0321919,39.0940349 48.4399173,39.0940349 C49.8476427,39.0940349 50.9887976,37.9528811 50.9887976,36.5451572 C50.9887976,35.1374333 49.8476427,33.9962795 48.4399173,33.9962795 Z M48.4399173,23.8007686 C48.9091237,23.8007686 49.2895441,24.1811886 49.2895441,24.6503945 C49.2895441,25.1196004 48.9091237,25.5000204 48.4399173,25.5000204 C47.9707109,25.5000204 47.5902905,25.1196004 47.5902905,24.6503945 C47.5902905,24.1811886 47.9707109,23.8007686 48.4399173,23.8007686 Z M48.4399173,11.9060059 C48.9091237,11.9060059 49.2895441,12.2864259 49.2895441,12.7556318 C49.2895441,13.2248377 48.9091237,13.6052577 48.4399173,13.6052577 C47.9707109,13.6052577 47.5902905,13.2248377 47.5902905,12.7556318 C47.5902905,12.2864259 47.9707109,11.9060059 48.4399173,11.9060059 Z M37.3947692,1.71049495 C37.8639756,1.71049495 38.244396,2.09091495 38.244396,2.56012086 C38.244396,3.02932677 37.8639756,3.40974677 37.3947692,3.40974677 C36.9255628,3.40974677 36.5451425,3.02932677 36.5451425,2.56012086 C36.5451425,2.09091495 36.9255628,1.71049495 37.3947692,1.71049495 Z M13.6052195,3.40974677 C13.1360131,3.40974677 12.7555927,3.02932677 12.7555927,2.56012086 C12.7555927,2.09091495 13.1360131,1.71049495 13.6052195,1.71049495 C14.0744259,1.71049495 14.4548463,2.09091495 14.4548463,2.56012086 C14.4548463,3.02932677 14.0744259,3.40974677 13.6052195,3.40974677 Z M2.56007144,13.6052577 C2.09086505,13.6052577 1.71044466,13.2248377 1.71044466,12.7556318 C1.71044466,12.2864259 2.09086505,11.9060059 2.56007144,11.9060059 C3.02927783,11.9060059 3.40969821,12.2864259 3.40969821,12.7556318 C3.40969821,13.2248377 3.02927783,13.6052577 2.56007144,13.6052577 Z M2.56007144,25.5000204 C2.09086505,25.5000204 1.71044466,25.1196004 1.71044466,24.6503945 C1.71044466,24.1811886 2.09086505,23.8007686 2.56007144,23.8007686 C3.02927783,23.8007686 3.40969821,24.1811886 3.40969821,24.6503945 C3.40969821,25.1196004 3.02927783,25.5000204 2.56007144,25.5000204 Z M2.56007144,37.3947831 C2.09086505,37.3947831 1.71044466,37.0143631 1.71044466,36.5451572 C1.71044466,36.0759513 2.09086505,35.6955313 2.56007144,35.6955313 C3.02927783,35.6955313 3.40969821,36.0759513 3.40969821,36.5451572 C3.40969821,37.0143631 3.02927783,37.3947831 2.56007144,37.3947831 Z M13.6052195,49.2895458 C13.1360131,49.2895458 12.7555927,48.9091258 12.7555927,48.4399199 C12.7555927,47.970714 13.1360131,47.590294 13.6052195,47.590294 C14.0744259,47.590294 14.4548463,47.970714 14.4548463,48.4399199 C14.4548463,48.9091258 14.0744259,49.2895458 13.6052195,49.2895458 Z M37.3947692,47.590294 C37.8639756,47.590294 38.244396,47.970714 38.244396,48.4399199 C38.244396,48.9091258 37.8639756,49.2895458 37.3947692,49.2895458 C36.9255628,49.2895458 36.5451425,48.9091258 36.5451425,48.4399199 C36.5451425,47.970714 36.9255628,47.590294 37.3947692,47.590294 Z M25.4999944,1.71049495 C25.9692008,1.71049495 26.3496211,2.09091495 26.3496211,2.56012086 C26.3496211,3.02932677 25.9692008,3.40974677 25.4999944,3.40974677 C25.030788,3.40974677 24.6503676,3.02932677 24.6503676,2.56012086 C24.6503676,2.09091495 25.030788,1.71049495 25.4999944,1.71049495 Z M25.4999944,49.2895458 C25.030788,49.2895458 24.6503676,48.9091258 24.6503676,48.4399199 C24.6503676,47.970714 25.030788,47.590294 25.4999944,47.590294 C25.9692008,47.590294 26.3496211,47.970714 26.3496211,48.4399199 C26.3496211,48.9091258 25.9692008,49.2895458 25.4999944,49.2895458 Z M36.5451425,36.5451572 L14.4548463,36.5451572 L14.4548463,14.4548836 L36.5451425,14.4548836 L36.5451425,36.5451572 Z M48.4399173,37.3947831 C47.9707109,37.3947831 47.5902905,37.0143631 47.5902905,36.5451572 C47.5902905,36.0759513 47.9707109,35.6955313 48.4399173,35.6955313 C48.9091237,35.6955313 49.2895441,36.0759513 49.2895441,36.5451572 C49.2895441,37.0143631 48.9091237,37.3947831 48.4399173,37.3947831 Z" id="Shape"></path>
            </g>
        </g>
    </g>
</svg>