<?xml version="1.0" encoding="UTF-8"?>
<svg width="56px" height="56px" viewBox="0 0 56 56" version="1.1" xmlns="http://www.w3.org/2000/svg" xmlns:xlink="http://www.w3.org/1999/xlink">
    <!-- Generator: Sketch 53.2 (72643) - https://sketchapp.com -->
    <title>ic_hw_05</title>
    <desc>Created with Sketch.</desc>
    <g id="Page-2" stroke="none" stroke-width="1" fill="none" fill-rule="evenodd">
        <g id="ts_01-copy-7" transform="translate(-1054.000000, -814.000000)" fill="#FCD600" fill-rule="nonzero">
            <g id="ic_hw_05" transform="translate(1054.000000, 814.000000)">
                <path d="M29.7075,26.2932867 C29.3165,25.9022378 28.6835,25.9022378 28.2925,26.2932867 C27.9025,26.6833354 27.9025,27.3164146 28.2925,27.7074634 C28.6835,28.0975122 29.3165,28.0975122 29.7075,27.7074634 C30.0975,27.3164146 30.0975,26.6833354 29.7075,26.2932867 Z" id="Path"></path>
                <path d="M44.3877041,12.6122607 C42.2379763,10.4626348 38.7579256,10.4625248 36.6080877,12.6122607 C34.4639708,14.7563857 34.4638607,18.246131 36.6084178,20.3920162 C38.7533049,22.5355912 42.2430371,22.5364713 44.3877041,20.3917962 C46.5372119,18.2422804 46.537652,14.7621066 44.3877041,12.6122607 Z M42.8318469,18.8358231 C41.5454207,20.1223641 39.4513613,20.1223641 38.1642751,18.8360431 C36.8776288,17.548622 36.8775188,15.4545548 38.164055,14.1681238 C39.4537817,12.8783922 41.5419001,12.8781722 42.8318469,14.1681238 C44.1215735,15.4577453 44.1217936,17.5459816 42.8318469,18.8358231 Z" id="Shape"></path>
                <path d="M55.6761612,0.323905362 C55.4589779,0.106832999 55.1626179,-0.0108261936 54.8545361,0.000784910915 C54.60451,0.00974204867 48.6513222,0.249041383 41.5746201,2.75029446 C35.9039696,4.7524912 31.1773585,7.61910703 27.5260478,11.2705229 C26.7078508,12.0887188 25.9116596,12.9563447 25.1498595,13.8576982 C21.5395748,11.7325343 18.6465257,12.3989011 16.8176082,13.377662 C12.6065309,15.631322 10,21.7504847 10,26.1273182 C10.0003317,26.5745116 10.2698203,26.9778039 10.6829551,27.1488742 C10.8197452,27.2056028 10.9635019,27.2331377 11.1059317,27.2331377 C11.3937769,27.2331377 11.6765354,27.1206758 11.8880789,26.9092431 C14.1088994,24.6884259 16.8481288,24.8273168 17.7429593,24.944976 L18.1302178,25.332234 C17.3680859,27.1457779 16.754134,28.9491483 16.3038437,30.7030886 C16.141288,31.337829 16.1961367,32.0095037 16.4377586,32.623897 C15.3730741,33.1145491 14.3458769,33.8349905 13.4514888,34.7293773 C10.6049947,37.5759778 10.026982,44.5132257 10.0037598,44.8071525 C9.97832591,45.1297201 10.0953218,45.4473114 10.3241162,45.6761055 C10.5323423,45.8842207 10.8139949,46 11.1059317,46 C11.1349042,46 11.1639873,45.9988942 11.1930704,45.996572 C11.4869976,45.9734603 18.4244768,45.3954485 21.2709709,42.5489586 C22.1650272,41.6549035 22.8853591,40.6278184 23.3760119,39.5633566 C24.0264558,39.8191326 24.6959199,39.8506485 25.2979289,39.6963867 C27.0510977,39.2462075 28.8542496,38.6324777 30.6680173,37.8702364 L31.0552758,38.2574944 C31.1728246,39.1524341 31.3117158,41.8916595 29.0910058,44.1122556 C28.7748516,44.4285199 28.6801933,44.9041329 28.8513744,45.3172671 C29.0224449,45.7305118 29.4256273,45.9998894 29.8729319,45.9998894 C34.2497718,45.9998894 40.3688328,43.3933623 42.6224962,39.1822912 C43.6012584,37.3535975 44.2676262,34.4605526 42.1424592,30.8501626 C43.0433717,30.0886953 43.9111095,29.2925053 44.7296383,28.4739777 C48.3810595,24.8225618 51.2475689,20.0959576 53.2497686,14.4257577 C55.7511359,7.34873417 55.990325,1.39544443 55.9992821,1.14552923 C56.0103403,0.838664328 55.8932339,0.541088307 55.6761612,0.323905362 Z M12.4723948,23.7488111 C13.1593308,20.424386 15.1545638,16.7763981 17.8616139,15.3275534 C19.6706266,14.3595191 21.6479453,14.4543984 23.7503323,15.6052247 C21.9592339,17.9608414 20.4021272,20.4986971 19.104225,23.1786506 C19.0877483,23.168477 18.8887005,22.9182301 18.5189139,22.8348513 C18.3668635,22.8004603 15.4409715,22.1711384 12.4723948,23.7488111 Z M19.7071187,40.9849981 C18.1866147,42.5054999 14.6197888,43.3074402 12.3653513,43.6348733 C12.6928955,41.3803286 13.4949475,37.8136184 15.015341,36.2932272 C15.8668232,35.4417462 16.8541003,34.7961688 17.8464641,34.4325754 L21.5677732,38.1538791 C21.2041793,39.1462415 20.5587115,40.1335171 19.7071187,40.9849981 Z M24.748557,37.553972 C24.4285324,37.6359132 24.0578612,37.5156001 23.7822906,37.2404722 C22.3516898,35.8098735 21.7920338,35.2502183 21.6164294,35.0747247 C21.2944143,34.7527101 20.5047474,33.9630444 18.7605358,32.2187248 C18.484744,31.9423805 18.3644307,31.5718204 18.4461509,31.2523491 C18.8003454,29.8729499 19.2635738,28.4577222 19.8268791,27.0288928 L28.9714666,36.173467 C27.542414,36.736882 26.1274053,37.1999992 24.748557,37.553972 Z M40.672823,38.1387293 C39.2239762,40.8456648 35.5760936,42.8410055 32.2517743,43.52783 C33.3117038,41.5332634 33.5453638,38.9941913 33.1581052,37.4545588 C33.068202,37.0969368 32.8348737,36.9171306 32.821825,36.8960094 C35.5015613,35.5981091 38.0393101,34.0410047 40.3951513,32.2499089 C41.5459793,34.352514 41.6407482,36.330051 40.672823,38.1387293 Z M43.1660072,26.9101278 C42.1695519,27.9064711 41.0965737,28.869087 39.9768192,29.7711039 C37.2850295,31.9385101 34.3223137,33.7743916 31.1614347,35.2358426 L20.7645048,24.8391491 C22.225958,21.6780535 24.0618421,18.715342 26.2290303,16.023888 C27.1318226,14.9033611 28.0943293,13.8302739 29.0903424,12.8343728 C32.3663373,9.55827206 36.5943337,6.9509709 41.6603212,5.07417409 L50.9262173,14.3400566 C49.0496389,19.4059262 46.442334,23.6339164 43.1660072,26.9101278 Z M51.7218556,12.0077728 L43.9926085,4.27853697 C48.2036858,2.9705737 51.8671605,2.48080625 53.6957462,2.30475979 C53.5195889,4.13367462 53.0297102,7.79714397 51.7218556,12.0077728 Z" id="Shape"></path>
                <path d="M25.6359498,44.3637748 C25.1504047,43.8785761 24.3634909,43.8788246 23.8783185,44.3640233 L20.3638016,47.8790731 C19.8786293,48.364396 19.8787535,49.1511509 20.3640502,49.6362253 C20.8495953,50.1212997 21.6365091,50.1212997 22.1216815,49.6359768 L25.6361984,46.1209269 C26.1213707,45.635604 26.1212465,44.8488491 25.6359498,44.3637748 Z" id="Path"></path>
                <path d="M11.6362874,28.3640986 C11.151213,27.8786752 10.3645824,27.8786752 9.87913521,28.3638501 L6.36408538,31.8783852 C5.87876249,32.3635601 5.87863824,33.1504779 6.36371263,33.6359013 C6.84866277,34.1210762 7.6352934,34.1215733 8.12086479,33.6361499 L11.6359146,30.1216147 C12.1212375,29.6364399 12.1213618,28.8495221 11.6362874,28.3640986 Z" id="Path"></path>
                <path d="M17.6995948,47.3004676 C17.2992426,46.8998612 16.649632,46.8998612 16.2489721,47.300365 L9.30050775,54.2486549 C8.89984785,54.6492614 8.89984785,55.298849 9.30040517,55.6994554 C9.70075735,56.1000618 10.350368,56.100267 10.7510279,55.699558 L17.6994923,48.7512681 C18.1001522,48.3506617 18.1001522,47.701074 17.6995948,47.3004676 Z" id="Path"></path>
                <path d="M9.69959483,47.3004676 C9.29914007,46.8998612 8.64952943,46.8998612 8.24897211,47.300365 L1.30050775,54.2486549 C0.899847848,54.6492614 0.899847848,55.298849 1.30040517,55.6994554 C1.70075735,56.1000618 2.35036799,56.100267 2.75102789,55.699558 L9.69949225,48.7512681 C10.1001522,48.3506617 10.1001522,47.701074 9.69959483,47.3004676 Z" id="Path"></path>
                <path d="M8.699458,38.3003274 C8.2989576,37.8998738 7.64927291,37.8998738 7.24866993,38.30043 L0.300439416,45.2488745 C-0.100163568,45.6495333 -0.100163568,46.2989369 0.300542003,46.6995957 C0.701144988,47.1001519 1.35072709,47.1001519 1.75133007,46.6994931 L8.69956058,39.7510485 C9.10016357,39.3503898 9.10016357,38.7009861 8.699458,38.3003274 Z" id="Path"></path>
                <path d="M33.7426444,22.2573556 C33.3994157,21.9142148 32.8431848,21.9142148 32.4998682,22.2573556 L31.2573556,23.4998682 C30.9142148,23.843009 30.9142148,24.3994157 31.2573556,24.7426444 C31.6005843,25.0857852 32.1569031,25.0857852 32.5001318,24.7426444 L33.7426444,23.5001318 C34.0857852,23.156991 34.0857852,22.6005843 33.7426444,22.2573556 Z" id="Path"></path>
            </g>
        </g>
    </g>
</svg>