<?xml version="1.0" encoding="UTF-8"?>
<svg width="53px" height="47px" viewBox="0 0 53 47" version="1.1" xmlns="http://www.w3.org/2000/svg" xmlns:xlink="http://www.w3.org/1999/xlink">
    <!-- Generator: Sketch 53.2 (72643) - https://sketchapp.com -->
    <title>ic_hw_03</title>
    <desc>Created with Sketch.</desc>
    <g id="Page-2" stroke="none" stroke-width="1" fill="none" fill-rule="evenodd">
        <g id="ts_01-copy-7" transform="translate(-691.000000, -816.000000)" fill="#FCD600" fill-rule="nonzero">
            <g id="ic_hw_03" transform="translate(691.000000, 816.000000)">
                <path d="M47.4109865,2.99511288e-15 L13.1393576,2.99511288e-15 C10.1650651,2.99511288e-15 7.74523052,2.35461043 7.74523052,5.23941984 L7.52436926,34.8811659 L0.836087627,34.8811659 C0.362095081,34.8811659 0,35.2928111 0,35.7583818 L0,39.8377855 C0,43.6566179 3.11133551,46.7797698 6.86639561,46.9510142 L6.86639561,47 L35.7267147,47 L35.7267147,46.9448395 C35.9412895,46.9534841 36.0712079,47 36.2187282,47 L36.2392636,47 C40.2441023,46.9769479 43.4723642,43.7706436 43.4514097,39.8369623 L43.4514097,13.9103139 L52.1639035,13.9103139 C52.637896,13.9103139 52.9999911,13.4887892 52.9999911,13.0236302 L52.9999911,5.53868591 C53.0054393,2.49662799 50.5080729,0.0218171682 47.4109865,2.99511288e-15 Z M7.24190162,45.3139013 L7.23603428,45.3139013 C4.18295252,45.3139013 1.7165989,42.8353857 1.7165989,39.8369623 L1.7165989,36.5672646 L28.9676065,36.5672646 L28.9676065,39.8229663 C28.960901,41.7206506 29.7240667,43.5425921 31.0882096,44.886202 C31.2332153,45.0294545 31.3849264,45.103139 31.5399902,45.3139013 L7.24190162,45.3139013 Z M41.7348108,39.8361389 C41.7348108,42.8353857 39.2923454,45.3139013 36.2380063,45.3139013 L36.2204044,45.3139013 C33.1509782,45.2920842 30.6770808,42.8382672 30.6842054,39.823378 L30.6842054,35.7583818 C30.68672,35.2862248 30.3066039,34.8976317 29.8259059,34.8811659 L9.24096816,34.8811659 L9.46182942,5.24518293 C9.46182942,3.28451691 11.1113737,1.68609865 13.1393576,1.68609865 L43.3587905,1.68609865 C42.3806308,2.73991031 41.7348108,4.07322908 41.7348108,5.56132643 L41.7348108,39.8361389 Z M51.2833922,5.55350514 L51.2834358,12.2242152 L43.4514097,12.2242152 L43.4514097,5.55967974 C43.4514097,3.4495866 45.238416,1.68609865 47.385841,1.68609865 L47.4097292,1.68609865 C49.5626024,1.70709259 51.2934504,3.43229745 51.2833922,5.54733044 L51.2833922,5.55350514 Z" id="Shape"></path>
                <path d="M20.2894597,20.8069224 L24.6412126,23.812464 C24.925175,24.0102244 25.3006316,24.0102244 25.5845939,23.812464 L29.9231584,20.8077551 C31.430343,19.7689926 32.5435246,17.5973753 32.5435246,15.7559139 L32.5435246,9.67488593 C32.5525916,9.35347325 32.3770213,9.05537548 32.0934711,8.90924093 L25.4675471,5.61684267 C25.2351019,5.50026813 24.9622672,5.50026813 24.7298221,5.61684267 L18.1162621,8.90008156 C17.8327119,9.046216 17.6575538,9.34431387 17.667033,9.66572644 L17.667033,15.7559139 C17.667033,17.5973753 18.7826874,19.7689926 20.2894597,20.8069224 Z M19.3551455,10.197806 L25.1052788,7.33173754 L30.855412,10.2057165 L30.855412,15.7559139 C30.855412,17.0403156 30.0220713,18.6740246 28.9707103,19.3980357 L25.0953875,22.0755033 L21.2353137,19.3984521 C20.1839527,18.6736083 19.3551455,17.0403156 19.3551455,15.7559139 L19.3551455,10.197806 Z" id="Shape"></path>
                <path d="M23.2618518,17.2789394 C23.4137513,17.4255797 23.6213207,17.5086759 23.8384336,17.5098039 L23.8404219,17.5098039 C24.0567395,17.509052 24.2639113,17.4270837 24.4162085,17.2819474 L27.6558032,14.2175407 C27.9743151,13.9167401 27.9743151,13.4286909 27.6562009,13.1278903 C27.3384844,12.8267136 26.8223442,12.8267136 26.50423,13.1275143 L23.8432054,15.6433358 L22.7795112,14.6277576 C22.4625901,14.325453 21.9468474,14.3231969 21.6271427,14.6228696 C21.307438,14.9225423 21.3054498,15.4102153 21.6219734,15.71252 L23.2618518,17.2789394 Z" id="Path"></path>
                <path d="M35.4048583,25.8039216 L14.805668,25.8039216 C14.3316754,25.8039216 13.9473684,26.2165575 13.9473684,26.7254902 C13.9473684,27.2344229 14.3316754,27.6470588 14.805668,27.6470588 L35.4048583,27.6470588 C35.8788509,27.6470588 36.2631579,27.2344229 36.2631579,26.7254902 C36.2631579,26.2165575 35.8788509,25.8039216 35.4048583,25.8039216 Z" id="Path"></path>
                <path d="M35.4048583,30.4117647 L14.805668,30.4117647 C14.3316754,30.4117647 13.9473684,30.8244006 13.9473684,31.3333333 C13.9473684,31.842266 14.3316754,32.254902 14.805668,32.254902 L35.4048583,32.254902 C35.8788509,32.254902 36.2631579,31.842266 36.2631579,31.3333333 C36.2631579,30.8244006 35.8788509,30.4117647 35.4048583,30.4117647 Z" id="Path"></path>
            </g>
        </g>
    </g>
</svg>