<svg width="31" height="28" viewBox="0 0 31 28" fill="none" xmlns="http://www.w3.org/2000/svg">
  <path fill-rule="evenodd" clip-rule="evenodd" d="M0.699219 0H30.0992V28H0.699219L0.699219 0Z" fill="white"/>
  <path d="M23.4357 19.1723L20.2497 22.693L20.2443 22.6979C20.2103 22.7355 20.1726 22.7706 20.1323 22.8023C19.7484 23.1024 19.1754 23.0554 18.8531 22.6979L15.667 19.1772C15.3442 18.8197 15.3946 18.2862 15.7786 17.9855C16.1625 17.6849 16.7354 17.7319 17.0583 18.0894L18.6513 19.8349L18.6513 11.4683L20.4514 11.4683L20.4514 19.8299L22.0444 18.0844C22.3673 17.7269 22.9402 17.6799 23.3242 17.9806C23.7081 18.2812 23.7585 18.8148 23.4357 19.1723Z" fill="#4AA956"/>
  <path d="M12.0122 8.14043L12.0122 16.5071L10.1962 16.507L10.1962 8.16509L8.60317 9.9106C8.28033 10.2681 7.70738 10.3151 7.32343 10.0145C6.93948 9.71382 6.88906 9.18025 7.2119 8.82275L10.3979 5.30205C10.4319 5.26445 10.4696 5.22936 10.51 5.19771C10.8939 4.89755 11.4668 4.94455 11.7892 5.30205L14.9753 8.82275C15.065 8.89052 15.1393 8.97408 15.1951 9.06802C15.4378 9.477 15.2785 9.99126 14.8393 10.2172C14.4001 10.4432 13.8479 10.2949 13.6052 9.88593L12.0122 8.14043Z" fill="#979797"/>
</svg>
