<svg width="28" height="28" viewBox="0 0 28 28" fill="black" xmlns="http://www.w3.org/2000/svg">
<path fill-rule="evenodd" clip-rule="evenodd" d="M0 0H28V28H0L0 0Z" fill="#e8e8e8"/>
<path d="M21.6528 19.1723L18.6186 22.693L18.6134 22.6979C18.5811 22.7355 18.5452 22.7706 18.5067 22.8023C18.1411 23.1024 17.5955 23.0554 17.2885 22.6979L14.2541 19.1772C13.9467 18.8197 13.9947 18.2862 14.3604 17.9855C14.726 17.6849 15.2717 17.7319 15.5791 18.0894L17.0963 19.8349L17.0963 11.4683L18.8107 11.4683L18.8107 19.8299L20.3278 18.0844C20.6353 17.7269 21.181 17.6799 21.5466 17.9806C21.9123 18.2812 21.9603 18.8148 21.6528 19.1723Z" fill="#4AA956"/>
<path d="M10.7747 8.14043L10.7747 16.5071L9.04518 16.507L9.04518 8.1651L7.52801 9.9106C7.22055 10.2681 6.67489 10.3151 6.30922 10.0145C5.94356 9.71382 5.89554 9.18025 6.203 8.82275L9.2373 5.30205C9.26967 5.26445 9.30556 5.22936 9.34401 5.19771C9.70963 4.89755 10.2553 4.94455 10.5623 5.30205L13.5966 8.82275C13.6821 8.89052 13.7529 8.97408 13.806 9.06802C14.0371 9.477 13.8854 9.99126 13.4671 10.2172C13.0489 10.4432 12.5229 10.2949 12.2918 9.88593L10.7747 8.14043Z" fill="#979797"/>
</svg>
