<svg width="30" height="28" viewBox="0 0 30 28" fill="none" xmlns="http://www.w3.org/2000/svg">
  <path fill-rule="evenodd" clip-rule="evenodd" d="M0.550781 0H29.9507V28H0.550781L0.550781 0Z" fill="white"/>
  <path d="M23.2872 19.1723L20.1012 22.693L20.0959 22.6979C20.0619 22.7355 20.0242 22.7706 19.9838 22.8023C19.5999 23.1024 19.027 23.0554 18.7046 22.6979L15.5186 19.1772C15.1957 18.8197 15.2462 18.2862 15.6301 17.9855C16.014 17.6849 16.587 17.7319 16.9098 18.0894L18.5029 19.8349L18.5029 11.4683L20.303 11.4683L20.303 19.8299L21.896 18.0844C22.2188 17.7269 22.7918 17.6799 23.1757 17.9806C23.5597 18.2812 23.6101 18.8148 23.2872 19.1723Z" fill="#979797"/>
  <path d="M11.8638 8.14043L11.8638 16.5071L10.0479 16.507L10.0479 8.16509L8.45483 9.9106C8.132 10.2681 7.55906 10.3151 7.17511 10.0145C6.79116 9.71382 6.74074 9.18025 7.06358 8.82275L10.2496 5.30205C10.2836 5.26445 10.3213 5.22936 10.3616 5.19771C10.7455 4.89755 11.3185 4.94455 11.6408 5.30205L14.8268 8.82275C14.9166 8.89052 14.9909 8.97408 15.0467 9.06802C15.2893 9.477 15.13 9.99126 14.6909 10.2172C14.2517 10.4432 13.6995 10.2949 13.4568 9.88593L11.8638 8.14043Z" fill="#4AA956"/>
</svg>
