<svg width="97" height="106" viewBox="0 0 97 106" fill="none" xmlns="http://www.w3.org/2000/svg">
<path opacity="0.1" d="M14.2092 98.4414C33.1548 108.324 63.8452 108.324 82.7908 98.4414C101.736 88.5589 101.736 72.5184 82.7908 62.6111C63.8452 52.7286 33.1548 52.7286 14.2092 62.6111C-4.7364 72.4936 -4.7364 88.534 14.2092 98.4414Z" fill="#4AA956"/>
<g opacity="0.1">
<path opacity="0.1" d="M65.0123 85.9277L59.8973 88.8826C59.053 89.3543 58.3578 90.0744 57.9357 90.9435C57.6625 91.5146 57.5384 92.0857 57.9605 92.334C58.3081 92.5326 58.9785 92.5326 59.7234 92.4333C61.5112 92.2347 63.1997 91.6387 64.764 90.7448L68.9355 88.3363C69.01 88.3114 69.01 88.2121 68.9355 88.1625L65.0123 85.9277Z" fill="black"/>
</g>
<g opacity="0.1">
<path opacity="0.1" d="M82.7913 62.6122C80.5566 61.4451 78.1729 60.4271 75.665 59.5332L20.7649 91.0927L11.2549 96.7292C12.1984 97.3003 13.1668 97.8714 14.2345 98.4176C16.8417 99.7833 19.6972 100.95 22.7017 101.944L86.789 64.9462C85.5475 64.1517 84.2315 63.3571 82.7913 62.6122Z" fill="black"/>
<path opacity="0.1" d="M82.8372 62.7215C80.6025 61.5545 78.2188 60.5365 75.7109 59.6426L20.8108 91.202L11.3008 96.8385C12.2443 97.4096 13.2127 97.9807 14.2804 98.527C16.8876 99.8927 19.7431 101.06 22.7476 102.053L86.8349 65.0556C85.5934 64.261 84.2774 63.4665 82.8372 62.7215Z" fill="black"/>
</g>
<path d="M57.5633 90.9413C58.0599 91.2393 58.631 91.4131 59.2021 91.5124C60.8906 91.8352 62.6287 91.4876 64.1186 90.6434L68.4887 88.1107C68.588 88.061 68.6625 87.9368 68.6625 87.8375V86.8691C68.6625 86.8691 55.5521 89.7743 57.5633 90.9413Z" fill="#46752E"/>
<path d="M64.6393 84.5371L59.5242 87.4919C58.68 87.9637 57.9847 88.6838 57.5626 89.5529C57.2895 90.124 57.1653 90.695 57.5874 90.9434C57.9351 91.142 58.6055 91.142 59.3504 91.0427C61.1382 90.844 62.8266 90.2481 64.391 89.3542L68.6866 86.8712L64.6393 84.5371Z" fill="#396420"/>
<path d="M64.6396 84.5371V85.1082L68.1407 87.1691L68.6622 86.8712L64.6396 84.5371Z" fill="#274517"/>
<path d="M57.5382 89.5529C57.2899 90.0743 57.1658 90.5957 57.4637 90.8689C57.1409 90.5212 57.6624 89.6273 58.3824 88.9321C59.177 88.1872 60.0957 87.7154 61.0393 87.1691L64.6149 85.1082V84.5371L59.4998 87.4919C58.6804 87.9885 57.9852 88.6838 57.5382 89.5529Z" fill="#274517"/>
<path d="M63.7959 80.3158C63.7959 80.2909 63.7711 80.2661 63.7463 80.2413C63.6718 80.2164 63.5725 80.2164 63.5228 80.2413C63.498 80.2661 63.4731 80.2909 63.4731 80.3158V80.5392V87.7152V87.9387C63.4731 87.9635 63.498 87.9884 63.5228 88.0132C63.5973 88.038 63.6966 88.038 63.7463 88.0132C63.7711 87.9884 63.7959 87.9635 63.7959 87.9387V87.7152V80.5392V80.3158Z" fill="#274517"/>
<path d="M63.9443 80.6387V87.7153L66.7998 86.0269L63.9443 80.6387Z" fill="#DEFFD7"/>
<path d="M63.2993 80.6387V88.0133C61.8839 88.2616 60.2948 89.23 58.5815 90.7198C58.358 86.8214 59.9223 83.4693 63.2993 80.6387Z" fill="#DEFFD7"/>
<path d="M75.6646 65.244C75.6646 65.244 76.1115 63.183 76.9309 62.165C77.8496 60.9731 78.7187 60.8738 79.3394 61.0973C79.8361 61.2711 79.8112 61.9415 79.0663 62.3636C78.0234 62.9347 77.0054 63.9776 76.4343 65.2688L75.6646 65.244Z" fill="#274517"/>
<path d="M75.9872 65.2435C75.9624 65.2435 75.9624 65.2187 75.9624 65.1939C76.7818 62.4873 78.2716 61.4693 78.9421 61.3203C78.9669 61.3203 78.9917 61.3203 78.9917 61.3451C78.9917 61.37 78.9917 61.3948 78.9669 61.3948C78.2965 61.5438 76.8563 62.537 76.0369 65.2187C76.0369 65.2435 76.0121 65.2435 75.9872 65.2435Z" fill="#AAE798"/>
<path d="M76.7823 68.124C77.1548 68.2978 77.7507 68.1985 77.9742 67.8509C78.1977 67.5281 78.0735 66.9322 78.297 66.7087C78.5205 66.4604 78.9922 66.4852 79.4392 66.4852C80.0103 66.4852 80.4572 65.9886 80.2338 65.492C80.0103 64.9954 79.8861 64.5981 80.3331 64.1263C80.78 63.6545 81.227 63.1828 80.8049 62.6613C80.3827 62.1647 79.4888 62.6117 79.0916 62.9345C78.6943 63.2324 78.446 63.2076 78.148 62.86C77.85 62.5372 77.2293 62.6862 77.0803 63.2573C76.9313 63.8532 77.0306 64.3746 76.7078 64.5484C76.385 64.7223 76.1864 64.4988 75.8139 64.6478C75.1435 64.9209 75.1932 65.7651 75.3918 66.3611C75.6153 66.9818 76.7823 68.124 76.7823 68.124Z" fill="#46752E"/>
<path d="M76.1117 67.2284C76.0869 67.2284 76.0869 67.2036 76.0869 67.1787C77.2291 64.9688 79.6873 63.0569 80.4571 62.8086C80.4819 62.8086 80.5067 62.8086 80.5067 62.8334C80.5067 62.8583 80.5067 62.8831 80.4819 62.8831C79.7122 63.1314 77.3036 65.0185 76.1614 67.2036C76.1614 67.2284 76.1366 67.2284 76.1117 67.2284Z" fill="#AAE798"/>
<path d="M77.6022 65.1672L77.5774 65.1424C77.4781 64.3478 77.776 63.2801 77.776 63.2553C77.776 63.2305 77.8009 63.2305 77.8257 63.2305C77.8505 63.2305 77.8505 63.2553 77.8505 63.2801C77.8505 63.2801 77.5526 64.3478 77.6519 65.1424C77.6519 65.1424 77.6271 65.1672 77.6022 65.1672Z" fill="#AAE798"/>
<path d="M78.8924 65.2909C78.6192 65.1667 78.2716 64.9929 77.9488 64.7695C77.924 64.7695 77.924 64.7446 77.9488 64.7198C77.9488 64.695 77.9736 64.695 77.9985 64.7198C78.8427 65.2909 79.6869 65.5144 79.6869 65.5144C79.7118 65.5144 79.7118 65.5392 79.7118 65.564C79.7118 65.5889 79.6869 65.5889 79.6621 65.5889C79.6621 65.5889 79.3393 65.4895 78.8924 65.2909Z" fill="#AAE798"/>
<path d="M21.6827 78.3528C21.6827 78.3528 22.229 77.2106 22.1545 75.8697C22.08 74.5289 21.2854 72.5673 20.1681 72.7659C19.0755 72.9646 19.8949 74.5537 20.2674 75.2738C20.6398 75.9691 20.8881 76.9871 20.8385 78.0548L21.6827 78.3528Z" fill="#46752E"/>
<path d="M21.2858 78.2032C21.261 78.2032 21.2362 78.1783 21.261 78.1535C21.6831 75.7201 21.3603 73.833 20.3175 73.0136C20.2926 73.0136 20.2926 72.9888 20.3175 72.9639C20.3175 72.9391 20.3423 72.9391 20.3671 72.9639C21.41 73.8082 21.7576 75.6953 21.3355 78.1535C21.3355 78.2032 21.3107 78.2032 21.2858 78.2032Z" fill="#AAE798"/>
<path d="M20.8885 80.1142C20.8885 80.1142 20.2926 80.3128 19.4732 80.139C18.6786 79.9404 18.4799 79.4437 18.4799 79.4437C18.4799 79.4437 19.0759 78.8478 19.5725 78.8478C19.5725 78.8478 18.7779 78.6988 18.033 78.8478C18.033 78.8478 17.5612 78.674 17.6854 77.8794C17.6854 77.8794 18.1323 77.5815 19.1504 77.7305C19.1504 77.7305 18.6538 77.358 17.7599 77.2338C17.6854 77.2338 17.8095 76.2158 17.9088 75.7688C18.0082 75.3219 18.182 75.3964 18.5296 75.446C18.8772 75.4957 20.0194 75.893 20.1684 76.1661C20.2926 76.4393 20.1436 77.0849 20.1436 77.0849C20.1436 77.0849 20.4912 76.8117 20.5657 76.4889C20.5657 76.4889 20.9382 76.5138 21.2609 76.7869C21.5837 77.06 21.5093 77.3332 21.4596 77.6311C21.4099 77.9043 21.2361 78.4505 20.9878 78.6243C20.9878 78.6243 21.4099 78.4754 21.6582 77.6311C21.6582 77.6311 21.9314 77.9788 21.981 78.4257C22.0307 78.8726 21.6086 79.7665 20.8885 80.1142Z" fill="#274517"/>
<path d="M20.8888 80.1653C20.864 80.1653 20.864 80.1404 20.864 80.1404C20.7895 78.6258 19.1258 76.2172 18.3809 75.7206C18.3561 75.7206 18.3561 75.6958 18.3809 75.671C18.3809 75.6461 18.4058 75.6461 18.4306 75.671C19.1755 76.1676 20.864 78.601 20.9385 80.1404C20.9385 80.1404 20.9136 80.1653 20.8888 80.1653Z" fill="#AAE798"/>
<path d="M74.5973 62.7855L66.875 58.3409V57.3477L74.5973 61.7923V62.7855Z" fill="#82BD70"/>
<path d="M74.176 66.6333C74.0766 66.6333 73.9773 66.5836 73.9028 66.5091L67.0248 58.5882C66.9006 58.4392 66.9006 58.1909 67.0496 58.0668C67.1986 57.9426 67.4469 57.9426 67.5711 58.0916L74.4491 66.0125C74.5732 66.1615 74.5732 66.4098 74.4243 66.534C74.3498 66.5836 74.2753 66.6333 74.176 66.6333Z" fill="#82BD70"/>
<path d="M67.2973 62.659C67.0986 62.659 66.9248 62.4852 66.9248 62.2865C66.9248 62.0879 67.0986 61.9141 67.2973 61.9141H74.1753C74.3739 61.9141 74.5477 62.0879 74.5477 62.2865C74.5477 62.4852 74.3739 62.659 74.1753 62.659H67.2973Z" fill="#82BD70"/>
<path d="M74.175 61.9653C74.0757 61.9653 73.9763 61.9156 73.9018 61.8412L67.0238 53.9203C66.8997 53.7713 66.8997 53.523 67.0486 53.3988C67.1976 53.2747 67.4459 53.2747 67.5701 53.4236L74.4481 61.3445C74.5723 61.4935 74.5723 61.7418 74.4233 61.866C74.3488 61.9405 74.2743 61.9653 74.175 61.9653Z" fill="#82BD70"/>
<path d="M67.2977 58.0183C67.0991 58.0183 66.9253 57.8445 66.9253 57.6459C66.9253 57.4473 67.0991 57.2734 67.2977 57.2734H74.1758C74.3744 57.2734 74.5482 57.4473 74.5482 57.6459C74.5482 57.8445 74.3744 58.0183 74.1758 58.0183H67.2977Z" fill="#82BD70"/>
<g opacity="0.3">
<g opacity="0.3">
<path opacity="0.3" d="M74.5973 62.7855L66.875 58.3409V57.3477L74.5973 61.7923V62.7855Z" fill="#AAE798"/>
</g>
<g opacity="0.3">
<g opacity="0.3">
<path opacity="0.3" d="M74.176 66.6333C74.0766 66.6333 73.9773 66.5836 73.9028 66.5091L67.0248 58.5882C66.9006 58.4392 66.9006 58.1909 67.0496 58.0668C67.1986 57.9426 67.4469 57.9426 67.5711 58.0916L74.4491 66.0125C74.5732 66.1615 74.5732 66.4098 74.4243 66.534C74.3498 66.5836 74.2753 66.6333 74.176 66.6333Z" fill="#AAE798"/>
</g>
<g opacity="0.3">
<path opacity="0.3" d="M67.2973 62.659C67.0986 62.659 66.9248 62.4852 66.9248 62.2865C66.9248 62.0879 67.0986 61.9141 67.2973 61.9141H74.1753C74.3739 61.9141 74.5477 62.0879 74.5477 62.2865C74.5477 62.4852 74.3739 62.659 74.1753 62.659H67.2973Z" fill="#AAE798"/>
</g>
<g opacity="0.3">
<path opacity="0.3" d="M74.175 61.9653C74.0757 61.9653 73.9763 61.9156 73.9018 61.8412L67.0238 53.9203C66.8997 53.7713 66.8997 53.523 67.0486 53.3988C67.1976 53.2747 67.4459 53.2747 67.5701 53.4236L74.4481 61.3445C74.5723 61.4935 74.5723 61.7418 74.4233 61.866C74.3488 61.9405 74.2743 61.9653 74.175 61.9653Z" fill="#AAE798"/>
</g>
<g opacity="0.3">
<path opacity="0.3" d="M67.2977 58.0183C67.0991 58.0183 66.9253 57.8445 66.9253 57.6459C66.9253 57.4473 67.0991 57.2734 67.2977 57.2734H74.1758C74.3744 57.2734 74.5482 57.4473 74.5482 57.6459C74.5482 57.8445 74.3744 58.0183 74.1758 58.0183H67.2977Z" fill="#AAE798"/>
</g>
</g>
</g>
<path d="M64.3169 65.5423V63.978C64.3169 63.8538 64.3914 63.7296 64.4907 63.6552L66.7006 62.3888C66.7999 62.3391 66.9737 62.3391 67.0731 62.3888L77.8495 68.6212C77.9488 68.6709 78.0233 68.8199 78.0233 68.944V70.5084C78.0233 70.6325 77.9488 70.7567 77.8495 70.8311L75.6396 72.0975C75.5402 72.1472 75.3664 72.1472 75.2671 72.0975L64.4907 65.8651C64.3914 65.8154 64.3169 65.6664 64.3169 65.5423Z" fill="#DEFFD7"/>
<path d="M64.491 63.6806L66.7009 62.4142C66.8002 62.3645 66.974 62.3645 67.0734 62.4142L77.8498 68.6466C77.9491 68.6963 77.9491 68.7956 77.8498 68.8701L75.6398 70.1365C75.5405 70.1861 75.3667 70.1861 75.2674 70.1365L64.491 63.904C64.3917 63.8295 64.3917 63.7302 64.491 63.6806Z" fill="#EEFFEA"/>
<path d="M82.0707 16.9252C78.9172 16.9252 76.2107 15.7581 74.1994 14.5166C69.5065 11.5866 66.0054 6.37223 66.0054 3.64088C66.0054 3.4919 66.1047 3.39258 66.2537 3.39258C66.4027 3.39258 66.502 3.4919 66.502 3.64088C66.502 5.92528 69.5313 11.0155 74.4477 14.0945C77.5267 16.0064 82.3438 17.7197 87.8561 15.0132C87.9803 14.9635 88.1293 15.0132 88.1789 15.1374C88.2286 15.2615 88.1789 15.4105 88.0548 15.4602C85.9939 16.5279 83.9578 16.9252 82.0707 16.9252Z" fill="#396420"/>
<path d="M65.1602 63.5778V63.0067C65.1602 62.8826 65.2347 62.7584 65.334 62.6839L66.6748 61.9142C66.7741 61.8645 66.9479 61.8645 67.0473 61.9142L69.2572 63.1806C69.3565 63.2302 69.431 63.3792 69.431 63.5033V64.0744C69.431 64.1986 69.3565 64.3227 69.2572 64.3972L67.9163 65.167C67.817 65.2166 67.6432 65.2166 67.5439 65.167L65.334 63.9006C65.2347 63.8261 65.1602 63.6772 65.1602 63.5778Z" fill="#CDF3C4"/>
<path d="M69.4555 63.503C69.4555 63.3789 69.381 63.2547 69.2817 63.1802L69.0334 63.0312L67.7422 63.7762V65.1915C67.8167 65.1915 67.8663 65.1667 67.916 65.1418L69.2568 64.3721C69.3562 64.3224 69.4307 64.1735 69.4307 64.0493V63.503H69.4555Z" fill="#B1DBA7"/>
<path d="M65.3338 62.6839L66.6746 61.9142C66.7739 61.8645 66.9477 61.8645 67.0471 61.9142L69.257 63.1806C69.3563 63.2302 69.3563 63.3295 69.257 63.404L67.9161 64.1738C67.8168 64.2234 67.643 64.2234 67.5437 64.1738L65.3338 62.9074C65.2344 62.8329 65.2344 62.7336 65.3338 62.6839Z" fill="#FAFAFA"/>
<path d="M67.0727 63.3806L67.7432 63.7779L68.6122 63.2813V52.6042C68.6122 52.4801 68.5377 52.3559 68.4384 52.2814L67.0976 51.5117C66.9983 51.462 66.9238 51.5117 66.9238 51.611V63.0578C66.8741 63.182 66.9486 63.3309 67.0727 63.3806Z" fill="#82BD70"/>
<g opacity="0.4">
<path opacity="0.4" d="M67.0727 63.3806L67.7432 63.7779L68.6122 63.2813V52.6042C68.6122 52.4801 68.5377 52.3559 68.4384 52.2814L67.0976 51.5117C66.9983 51.462 66.9238 51.5117 66.9238 51.611V63.0578C66.8741 63.182 66.9486 63.3309 67.0727 63.3806Z" fill="black"/>
</g>
<path d="M66.0288 0.633175V62.5851C66.0288 62.7092 66.1033 62.8334 66.2026 62.9078L66.6992 63.181C66.7986 63.2306 66.9724 63.2306 67.0717 63.181L67.5683 62.9078C67.6676 62.8582 67.7421 62.7092 67.7421 62.5851V0.633175C67.7421 0.509023 67.6676 0.384871 67.5683 0.31038L67.0717 0.0372456C66.9724 -0.0124152 66.7986 -0.0124152 66.6992 0.0372456L66.2026 0.31038C66.1033 0.384871 66.0288 0.509023 66.0288 0.633175Z" fill="#82BD70"/>
<path d="M67.5439 0.31038L67.0473 0.0372456C66.948 -0.0124152 66.7741 -0.0124152 66.6748 0.0372456L66.1782 0.335211C66.0789 0.384871 66.0044 0.533854 66.0044 0.658006V1.42775L67.668 0.459363C67.6432 0.384871 67.5935 0.335211 67.5439 0.31038Z" fill="#82BD70"/>
<path d="M66.873 1.13093V63.0828C66.873 63.207 66.7986 63.2566 66.6992 63.1821L66.2026 62.909C66.1033 62.8593 66.0288 62.7104 66.0288 62.5862V0.634321C66.0288 0.510169 66.1033 0.460508 66.2026 0.534999L66.6992 0.808134C66.7986 0.857795 66.873 1.00678 66.873 1.13093Z" fill="#82BD70"/>
<g opacity="0.4">
<path opacity="0.4" d="M66.873 1.13093V63.0828C66.873 63.207 66.7986 63.2566 66.6992 63.1821L66.2026 62.909C66.1033 62.8593 66.0288 62.7104 66.0288 62.5862V0.634321C66.0288 0.510169 66.1033 0.460508 66.2026 0.534999L66.6992 0.808134C66.7986 0.857795 66.873 1.00678 66.873 1.13093Z" fill="#AAE798"/>
</g>
<path d="M67.544 51.7834L66.2031 51.0136C66.1038 50.964 66.0293 51.0136 66.0293 51.1129V62.7832L67.7426 63.7765V52.1062C67.7426 51.982 67.6433 51.8579 67.544 51.7834Z" fill="#82BD70"/>
<g opacity="0.4">
<path opacity="0.4" d="M67.544 51.7834L66.2031 51.0136C66.1038 50.964 66.0293 51.0136 66.0293 51.1129V62.7832L67.7426 63.7765V52.1062C67.7426 51.982 67.6433 51.8579 67.544 51.7834Z" fill="#AAE798"/>
</g>
<path d="M67.2959 38.7213L68.1401 38.2247V29.3105L67.2959 29.832V38.7213Z" fill="#82BD70"/>
<g opacity="0.2">
<path opacity="0.2" d="M67.2959 38.7213L68.1401 38.2247V29.3105L67.2959 29.832V38.7213Z" fill="black"/>
</g>
<path d="M68.1396 30.3038L69.0087 29.832V29.3354L68.5866 29.5837L68.1396 29.3105V30.3038Z" fill="#82BD70"/>
<g opacity="0.2">
<path opacity="0.2" d="M68.1396 30.3038L69.0087 29.832V29.3354L68.5866 29.5837L68.1396 29.3105V30.3038Z" fill="black"/>
</g>
<path d="M68.5869 28.5918V29.585L69.456 29.0884L68.5869 28.5918Z" fill="#82BD70"/>
<g opacity="0.2">
<path opacity="0.2" d="M68.5869 28.5918V29.585L69.456 29.0884L68.5869 28.5918Z" fill="black"/>
</g>
<path d="M67.2964 26.8053L68.1406 26.3086V17.3945L67.2964 17.916V26.8053Z" fill="#82BD70"/>
<g opacity="0.2">
<path opacity="0.2" d="M67.2964 26.8053L68.1406 26.3086V17.3945L67.2964 17.916V26.8053Z" fill="black"/>
</g>
<path d="M68.1401 18.3877L69.0092 17.916V17.4194L68.5871 17.6677L68.1401 17.3945V18.3877Z" fill="#82BD70"/>
<g opacity="0.2">
<path opacity="0.2" d="M68.1401 18.3877L69.0092 17.916V17.4194L68.5871 17.6677L68.1401 17.3945V18.3877Z" fill="black"/>
</g>
<path d="M68.5879 16.6738V17.667L69.457 17.1704L68.5879 16.6738Z" fill="#82BD70"/>
<g opacity="0.2">
<path opacity="0.2" d="M68.5879 16.6738V17.667L69.457 17.1704L68.5879 16.6738Z" fill="black"/>
</g>
<path d="M67.2959 16.8736L68.1401 16.377V7.46289L67.2959 7.98433V16.8736Z" fill="#82BD70"/>
<g opacity="0.2">
<path opacity="0.2" d="M67.2959 16.8736L68.1401 16.377V7.46289L67.2959 7.98433V16.8736Z" fill="black"/>
</g>
<path d="M68.1406 8.45611L69.0097 7.98433V7.48772L68.5876 7.73603L68.1406 7.46289V8.45611Z" fill="#82BD70"/>
<g opacity="0.2">
<path opacity="0.2" d="M68.1406 8.45611L69.0097 7.98433V7.48772L68.5876 7.73603L68.1406 7.46289V8.45611Z" fill="black"/>
</g>
<path d="M68.5874 6.74219V7.7354L69.4565 7.2388L68.5874 6.74219Z" fill="#82BD70"/>
<g opacity="0.2">
<path opacity="0.2" d="M68.5874 6.74219V7.7354L69.4565 7.2388L68.5874 6.74219Z" fill="black"/>
</g>
<path d="M67.2959 51.6353L68.1401 51.1387V42.2246L67.2959 42.746V51.6353Z" fill="#82BD70"/>
<g opacity="0.3">
<path opacity="0.3" d="M67.2959 51.6353L68.1401 51.1387V42.2246L67.2959 42.746V51.6353Z" fill="black"/>
</g>
<path d="M68.1396 43.2178L69.0087 42.746V42.2494L68.5866 42.4977L68.1396 42.2246V43.2178Z" fill="#82BD70"/>
<g opacity="0.3">
<path opacity="0.3" d="M68.1396 43.2178L69.0087 42.746V42.2494L68.5866 42.4977L68.1396 42.2246V43.2178Z" fill="black"/>
</g>
<path d="M68.5869 41.5039V42.4971L69.456 42.0005L68.5869 41.5039Z" fill="#82BD70"/>
<g opacity="0.3">
<path opacity="0.3" d="M68.5869 41.5039V42.4971L69.456 42.0005L68.5869 41.5039Z" fill="black"/>
</g>
<path d="M66.874 36.563L67.7431 36.0664L74.5963 40.0144V41.0077L66.874 36.563Z" fill="#82BD70"/>
<path d="M66.874 51.413L67.2961 51.6365V42.7472L68.1404 43.219V42.2258L68.5873 42.4989V41.5057L72.883 43.9887V44.982L73.3299 45.2303V46.2235L74.1742 46.7201V55.6094L74.5963 55.8577V41.0091L66.874 36.5645V51.413Z" fill="#82BD70"/>
<g opacity="0.4">
<path opacity="0.4" d="M66.874 51.413L67.2961 51.6365V42.7472L68.1404 43.219V42.2258L68.5873 42.4989V41.5057L72.883 43.9887V44.982L73.3299 45.2303V46.2235L74.1742 46.7201V55.6094L74.5963 55.8577V41.0091L66.874 36.5645V51.413Z" fill="#AAE798"/>
</g>
<path d="M73.7279 43.8163C73.7031 43.8163 73.6782 43.8163 73.6782 43.7915L67.6693 40.3152C67.6196 40.2904 67.5948 40.2159 67.6196 40.1414C67.6444 40.0918 67.7189 40.0669 67.7934 40.0918L73.8024 43.568C73.852 43.5929 73.8769 43.6674 73.852 43.7418C73.8272 43.7915 73.7775 43.8163 73.7279 43.8163Z" fill="#82BD70"/>
<g opacity="0.6">
<path opacity="0.6" d="M73.7279 43.8163C73.7031 43.8163 73.6782 43.8163 73.6782 43.7915L67.6693 40.3152C67.6196 40.2904 67.5948 40.2159 67.6196 40.1414C67.6444 40.0918 67.7189 40.0669 67.7934 40.0918L73.8024 43.568C73.852 43.5929 73.8769 43.6674 73.852 43.7418C73.8272 43.7915 73.7775 43.8163 73.7279 43.8163Z" fill="#AAE798"/>
</g>
<path d="M67.7429 39.6182C67.6932 39.6182 67.6436 39.5685 67.6436 39.5188V38.029C67.6436 37.9793 67.6932 37.9297 67.7429 37.9297C67.7925 37.9297 67.8422 37.9793 67.8422 38.029V39.5188C67.8174 39.5685 67.7925 39.6182 67.7429 39.6182Z" fill="#82BD70"/>
<path d="M68.4128 40.0146C68.3631 40.0146 68.3135 39.965 68.3135 39.9153V38.4255C68.3135 38.3758 68.3631 38.3262 68.4128 38.3262C68.4625 38.3262 68.5121 38.3758 68.5121 38.4255V39.9153C68.4873 39.965 68.4625 40.0146 68.4128 40.0146Z" fill="#82BD70"/>
<path d="M69.0583 40.3896C69.0086 40.3896 68.959 40.34 68.959 40.2903V38.8005C68.959 38.7508 69.0086 38.7012 69.0583 38.7012C69.108 38.7012 69.1576 38.7508 69.1576 38.8005V40.2903C69.1576 40.34 69.108 40.3896 69.0583 40.3896Z" fill="#82BD70"/>
<path d="M69.7287 40.7842C69.6791 40.7842 69.6294 40.7345 69.6294 40.6848V39.195C69.6294 39.1454 69.6791 39.0957 69.7287 39.0957C69.7784 39.0957 69.828 39.1454 69.828 39.195V40.6848C69.828 40.7345 69.7784 40.7842 69.7287 40.7842Z" fill="#82BD70"/>
<path d="M70.3996 41.1592C70.35 41.1592 70.3003 41.1095 70.3003 41.0598V39.57C70.3003 39.5204 70.35 39.4707 70.3996 39.4707C70.4493 39.4707 70.4989 39.5204 70.4989 39.57V41.0598C70.4989 41.1095 70.4493 41.1592 70.3996 41.1592Z" fill="#82BD70"/>
<path d="M71.07 41.5557C71.0204 41.5557 70.9707 41.506 70.9707 41.4563V39.9665C70.9707 39.9168 71.0204 39.8672 71.07 39.8672C71.1197 39.8672 71.1694 39.9168 71.1694 39.9665V41.4563C71.1694 41.506 71.1197 41.5557 71.07 41.5557Z" fill="#82BD70"/>
<path d="M71.7399 41.9267C71.6903 41.9267 71.6406 41.8771 71.6406 41.8274V40.3376C71.6406 40.2879 71.6903 40.2383 71.7399 40.2383C71.7896 40.2383 71.8393 40.2879 71.8393 40.3376V41.8274C71.8393 41.8771 71.7896 41.9267 71.7399 41.9267Z" fill="#82BD70"/>
<path d="M72.4104 42.3252C72.3607 42.3252 72.311 42.2755 72.311 42.2259V40.736C72.311 40.6864 72.3607 40.6367 72.4104 40.6367C72.46 40.6367 72.5097 40.6864 72.5097 40.736V42.2259C72.4848 42.2755 72.46 42.3252 72.4104 42.3252Z" fill="#82BD70"/>
<path d="M73.0817 42.6963C73.0321 42.6963 72.9824 42.6466 72.9824 42.597V41.1071C72.9824 41.0575 73.0321 41.0078 73.0817 41.0078C73.1314 41.0078 73.1811 41.0575 73.1811 41.1071V42.597C73.1562 42.6466 73.1314 42.6963 73.0817 42.6963Z" fill="#82BD70"/>
<path d="M73.7268 43.0947C73.6771 43.0947 73.6274 43.0451 73.6274 42.9954V41.5056C73.6274 41.4559 73.6771 41.4062 73.7268 41.4062C73.7764 41.4062 73.8261 41.4559 73.8261 41.5056V42.9954C73.8261 43.0451 73.7764 43.0947 73.7268 43.0947Z" fill="#82BD70"/>
<g opacity="0.2">
<g opacity="0.2">
<path opacity="0.2" d="M67.7429 39.6182C67.6932 39.6182 67.6436 39.5685 67.6436 39.5188V38.029C67.6436 37.9793 67.6932 37.9297 67.7429 37.9297C67.7925 37.9297 67.8422 37.9793 67.8422 38.029V39.5188C67.8174 39.5685 67.7925 39.6182 67.7429 39.6182Z" fill="black"/>
</g>
<g opacity="0.2">
<path opacity="0.2" d="M68.4128 40.0146C68.3631 40.0146 68.3135 39.965 68.3135 39.9153V38.4255C68.3135 38.3758 68.3631 38.3262 68.4128 38.3262C68.4625 38.3262 68.5121 38.3758 68.5121 38.4255V39.9153C68.4873 39.965 68.4625 40.0146 68.4128 40.0146Z" fill="black"/>
</g>
<g opacity="0.2">
<path opacity="0.2" d="M69.0583 40.3896C69.0086 40.3896 68.959 40.34 68.959 40.2903V38.8005C68.959 38.7508 69.0086 38.7012 69.0583 38.7012C69.108 38.7012 69.1576 38.7508 69.1576 38.8005V40.2903C69.1576 40.34 69.108 40.3896 69.0583 40.3896Z" fill="black"/>
</g>
<g opacity="0.2">
<path opacity="0.2" d="M69.7287 40.7842C69.6791 40.7842 69.6294 40.7345 69.6294 40.6848V39.195C69.6294 39.1454 69.6791 39.0957 69.7287 39.0957C69.7784 39.0957 69.828 39.1454 69.828 39.195V40.6848C69.828 40.7345 69.7784 40.7842 69.7287 40.7842Z" fill="black"/>
</g>
<g opacity="0.2">
<path opacity="0.2" d="M70.3996 41.1592C70.35 41.1592 70.3003 41.1095 70.3003 41.0598V39.57C70.3003 39.5204 70.35 39.4707 70.3996 39.4707C70.4493 39.4707 70.4989 39.5204 70.4989 39.57V41.0598C70.4989 41.1095 70.4493 41.1592 70.3996 41.1592Z" fill="black"/>
</g>
<g opacity="0.2">
<path opacity="0.2" d="M71.07 41.5557C71.0204 41.5557 70.9707 41.506 70.9707 41.4563V39.9665C70.9707 39.9168 71.0204 39.8672 71.07 39.8672C71.1197 39.8672 71.1694 39.9168 71.1694 39.9665V41.4563C71.1694 41.506 71.1197 41.5557 71.07 41.5557Z" fill="black"/>
</g>
<g opacity="0.2">
<path opacity="0.2" d="M71.7399 41.9267C71.6903 41.9267 71.6406 41.8771 71.6406 41.8274V40.3376C71.6406 40.2879 71.6903 40.2383 71.7399 40.2383C71.7896 40.2383 71.8393 40.2879 71.8393 40.3376V41.8274C71.8393 41.8771 71.7896 41.9267 71.7399 41.9267Z" fill="black"/>
</g>
<g opacity="0.2">
<path opacity="0.2" d="M72.4104 42.3252C72.3607 42.3252 72.311 42.2755 72.311 42.2259V40.736C72.311 40.6864 72.3607 40.6367 72.4104 40.6367C72.46 40.6367 72.5097 40.6864 72.5097 40.736V42.2259C72.4848 42.2755 72.46 42.3252 72.4104 42.3252Z" fill="black"/>
</g>
<g opacity="0.2">
<path opacity="0.2" d="M73.0817 42.6963C73.0321 42.6963 72.9824 42.6466 72.9824 42.597V41.1071C72.9824 41.0575 73.0321 41.0078 73.0817 41.0078C73.1314 41.0078 73.1811 41.0575 73.1811 41.1071V42.597C73.1562 42.6466 73.1314 42.6963 73.0817 42.6963Z" fill="black"/>
</g>
<g opacity="0.2">
<path opacity="0.2" d="M73.7268 43.0947C73.6771 43.0947 73.6274 43.0451 73.6274 42.9954V41.5056C73.6274 41.4559 73.6771 41.4062 73.7268 41.4062C73.7764 41.4062 73.8261 41.4559 73.8261 41.5056V42.9954C73.8261 43.0451 73.7764 43.0947 73.7268 43.0947Z" fill="black"/>
</g>
</g>
<path d="M66.874 23.6763L67.7431 23.1797L74.5963 27.1526V28.1458L66.874 23.6763Z" fill="#82BD70"/>
<path d="M66.874 36.5628L67.2961 36.7862V29.8586L68.1404 30.3552V29.3619L68.5873 29.6351V28.6419L72.883 31.1001V32.0933L73.3299 32.3664V33.3596L74.1742 33.8314V40.7591L74.5963 41.0074V28.1453L66.874 23.6758V36.5628Z" fill="#82BD70"/>
<path d="M66.874 36.5628L67.2961 36.7862V29.8586L68.1404 30.3552V29.3619L68.5873 29.6351V28.6419L72.883 31.1001V32.0933L73.3299 32.3664V33.3596L74.1742 33.8314V40.7591L74.5963 41.0074V28.1453L66.874 23.6758V36.5628Z" fill="#AAE798"/>
<path d="M73.7269 30.9511C73.7021 30.9511 73.6773 30.9511 73.6773 30.9263L67.6683 27.45C67.6186 27.4252 67.5938 27.3507 67.6186 27.2762C67.6435 27.2265 67.718 27.2017 67.7924 27.2265L73.8014 30.7028C73.8511 30.7276 73.8759 30.8021 73.8511 30.8766C73.8262 30.9263 73.7766 30.9511 73.7269 30.9511Z" fill="#82BD70"/>
<path d="M73.7269 30.9511C73.7021 30.9511 73.6773 30.9511 73.6773 30.9263L67.6683 27.45C67.6186 27.4252 67.5938 27.3507 67.6186 27.2762C67.6435 27.2265 67.718 27.2017 67.7924 27.2265L73.8014 30.7028C73.8511 30.7276 73.8759 30.8021 73.8511 30.8766C73.8262 30.9263 73.7766 30.9511 73.7269 30.9511Z" fill="#AAE798"/>
<path d="M67.7424 26.7549C67.6927 26.7549 67.6431 26.7052 67.6431 26.6556V25.1657C67.6431 25.1161 67.6927 25.0664 67.7424 25.0664C67.792 25.0664 67.8417 25.1161 67.8417 25.1657V26.6556C67.8169 26.7052 67.792 26.7549 67.7424 26.7549Z" fill="#82BD70"/>
<path d="M68.4123 27.1279C68.3626 27.1279 68.313 27.0783 68.313 27.0286V25.5388C68.313 25.4891 68.3626 25.4395 68.4123 25.4395C68.462 25.4395 68.5116 25.4891 68.5116 25.5388V27.0286C68.4868 27.1031 68.462 27.1279 68.4123 27.1279Z" fill="#82BD70"/>
<path d="M69.0578 27.5225C69.0082 27.5225 68.9585 27.4728 68.9585 27.4231V25.9333C68.9585 25.8836 69.0082 25.834 69.0578 25.834C69.1075 25.834 69.1571 25.8836 69.1571 25.9333V27.4231C69.1571 27.4728 69.1075 27.5225 69.0578 27.5225Z" fill="#82BD70"/>
<path d="M69.7282 27.8975C69.6786 27.8975 69.6289 27.8478 69.6289 27.7981V26.3083C69.6289 26.2586 69.6786 26.209 69.7282 26.209C69.7779 26.209 69.8276 26.2586 69.8276 26.3083V27.7981C69.8276 27.8726 69.7779 27.8975 69.7282 27.8975Z" fill="#82BD70"/>
<path d="M70.3986 28.2939C70.349 28.2939 70.2993 28.2443 70.2993 28.1946V26.7048C70.2993 26.6551 70.349 26.6055 70.3986 26.6055C70.4483 26.6055 70.498 26.6551 70.498 26.7048V28.1946C70.498 28.2443 70.4483 28.2939 70.3986 28.2939Z" fill="#82BD70"/>
<path d="M71.0695 28.665C71.0199 28.665 70.9702 28.6154 70.9702 28.5657V27.0759C70.9702 27.0262 71.0199 26.9766 71.0695 26.9766C71.1192 26.9766 71.1689 27.0262 71.1689 27.0759V28.5657C71.1689 28.6402 71.1192 28.665 71.0695 28.665Z" fill="#82BD70"/>
<path d="M71.739 29.0635C71.6893 29.0635 71.6396 29.0138 71.6396 28.9641V27.4743C71.6396 27.4247 71.6893 27.375 71.739 27.375C71.7886 27.375 71.8383 27.4247 71.8383 27.4743V28.9641C71.8383 29.0138 71.7886 29.0635 71.739 29.0635Z" fill="#82BD70"/>
<path d="M72.4099 29.4346C72.3602 29.4346 72.3105 29.3849 72.3105 29.3352V27.8454C72.3105 27.7958 72.3602 27.7461 72.4099 27.7461C72.4595 27.7461 72.5092 27.7958 72.5092 27.8454V29.3352C72.4844 29.4097 72.4595 29.4346 72.4099 29.4346Z" fill="#82BD70"/>
<path d="M73.0803 29.835C73.0306 29.835 72.981 29.7853 72.981 29.7356V28.2458C72.981 28.1961 73.0306 28.1465 73.0803 28.1465C73.1299 28.1465 73.1796 28.1961 73.1796 28.2458V29.7356C73.1548 29.7853 73.1299 29.835 73.0803 29.835Z" fill="#82BD70"/>
<path d="M73.7258 30.206C73.6761 30.206 73.6265 30.1564 73.6265 30.1067V28.6169C73.6265 28.5672 73.6761 28.5176 73.7258 28.5176C73.7754 28.5176 73.8251 28.5672 73.8251 28.6169V30.1067C73.8251 30.1812 73.7754 30.206 73.7258 30.206Z" fill="#82BD70"/>
<g opacity="0.2">
<path opacity="0.2" d="M67.7424 26.7549C67.6927 26.7549 67.6431 26.7052 67.6431 26.6556V25.1657C67.6431 25.1161 67.6927 25.0664 67.7424 25.0664C67.792 25.0664 67.8417 25.1161 67.8417 25.1657V26.6556C67.8169 26.7052 67.792 26.7549 67.7424 26.7549Z" fill="black"/>
</g>
<g opacity="0.2">
<path opacity="0.2" d="M68.4123 27.1279C68.3626 27.1279 68.313 27.0783 68.313 27.0286V25.5388C68.313 25.4891 68.3626 25.4395 68.4123 25.4395C68.462 25.4395 68.5116 25.4891 68.5116 25.5388V27.0286C68.4868 27.1031 68.462 27.1279 68.4123 27.1279Z" fill="black"/>
</g>
<g opacity="0.2">
<path opacity="0.2" d="M69.0578 27.5225C69.0082 27.5225 68.9585 27.4728 68.9585 27.4231V25.9333C68.9585 25.8836 69.0082 25.834 69.0578 25.834C69.1075 25.834 69.1571 25.8836 69.1571 25.9333V27.4231C69.1571 27.4728 69.1075 27.5225 69.0578 27.5225Z" fill="black"/>
</g>
<g opacity="0.2">
<path opacity="0.2" d="M69.7282 27.8975C69.6786 27.8975 69.6289 27.8478 69.6289 27.7981V26.3083C69.6289 26.2586 69.6786 26.209 69.7282 26.209C69.7779 26.209 69.8276 26.2586 69.8276 26.3083V27.7981C69.8276 27.8726 69.7779 27.8975 69.7282 27.8975Z" fill="black"/>
</g>
<g opacity="0.2">
<path opacity="0.2" d="M70.3986 28.2939C70.349 28.2939 70.2993 28.2443 70.2993 28.1946V26.7048C70.2993 26.6551 70.349 26.6055 70.3986 26.6055C70.4483 26.6055 70.498 26.6551 70.498 26.7048V28.1946C70.498 28.2443 70.4483 28.2939 70.3986 28.2939Z" fill="black"/>
</g>
<g opacity="0.2">
<path opacity="0.2" d="M71.0695 28.665C71.0199 28.665 70.9702 28.6154 70.9702 28.5657V27.0759C70.9702 27.0262 71.0199 26.9766 71.0695 26.9766C71.1192 26.9766 71.1689 27.0262 71.1689 27.0759V28.5657C71.1689 28.6402 71.1192 28.665 71.0695 28.665Z" fill="black"/>
</g>
<g opacity="0.2">
<path opacity="0.2" d="M71.739 29.0635C71.6893 29.0635 71.6396 29.0138 71.6396 28.9641V27.4743C71.6396 27.4247 71.6893 27.375 71.739 27.375C71.7886 27.375 71.8383 27.4247 71.8383 27.4743V28.9641C71.8383 29.0138 71.7886 29.0635 71.739 29.0635Z" fill="black"/>
</g>
<g opacity="0.2">
<path opacity="0.2" d="M72.4099 29.4346C72.3602 29.4346 72.3105 29.3849 72.3105 29.3352V27.8454C72.3105 27.7958 72.3602 27.7461 72.4099 27.7461C72.4595 27.7461 72.5092 27.7958 72.5092 27.8454V29.3352C72.4844 29.4097 72.4595 29.4346 72.4099 29.4346Z" fill="black"/>
</g>
<g opacity="0.2">
<path opacity="0.2" d="M73.0803 29.835C73.0306 29.835 72.981 29.7853 72.981 29.7356V28.2458C72.981 28.1961 73.0306 28.1465 73.0803 28.1465C73.1299 28.1465 73.1796 28.1961 73.1796 28.2458V29.7356C73.1548 29.7853 73.1299 29.835 73.0803 29.835Z" fill="black"/>
</g>
<g opacity="0.2">
<path opacity="0.2" d="M73.7258 30.206C73.6761 30.206 73.6265 30.1564 73.6265 30.1067V28.6169C73.6265 28.5672 73.6761 28.5176 73.7258 28.5176C73.7754 28.5176 73.8251 28.5672 73.8251 28.6169V30.1067C73.8251 30.1812 73.7754 30.206 73.7258 30.206Z" fill="black"/>
</g>
<path d="M66.874 11.8072L67.7431 11.3105L74.5963 15.2586V16.2518L66.874 11.8072Z" fill="#82BD70"/>
<path d="M66.874 23.6736L67.2961 23.9219V17.9875L68.1404 18.4592V17.4909L68.5873 17.7392V16.7459L72.883 19.229V20.2222L73.3299 20.4953V21.4637L74.1742 21.9603V27.8948L74.5963 28.1431V16.2493L66.874 11.8047V23.6736Z" fill="#82BD70"/>
<g opacity="0.4">
<path opacity="0.4" d="M66.874 23.6736L67.2961 23.9219V17.9875L68.1404 18.4592V17.4909L68.5873 17.7392V16.7459L72.883 19.229V20.2222L73.3299 20.4953V21.4637L74.1742 21.9603V27.8948L74.5963 28.1431V16.2493L66.874 11.8047V23.6736Z" fill="#AAE798"/>
</g>
<path d="M73.7269 19.0839C73.7021 19.0839 73.6773 19.0839 73.6773 19.0591L67.6683 15.5828C67.6186 15.558 67.5938 15.4835 67.6186 15.409C67.6435 15.3593 67.718 15.3345 67.7924 15.3594L73.8014 18.8356C73.8511 18.8604 73.8759 18.9349 73.8511 19.0094C73.8262 19.0591 73.7766 19.0839 73.7269 19.0839Z" fill="#82BD70"/>
<g opacity="0.6">
<path opacity="0.6" d="M73.7269 19.0839C73.7021 19.0839 73.6773 19.0839 73.6773 19.0591L67.6683 15.5828C67.6186 15.558 67.5938 15.4835 67.6186 15.409C67.6435 15.3593 67.718 15.3345 67.7924 15.3594L73.8014 18.8356C73.8511 18.8604 73.8759 18.9349 73.8511 19.0094C73.8262 19.0591 73.7766 19.0839 73.7269 19.0839Z" fill="#AAE798"/>
</g>
<path d="M66.874 1.90091L67.7431 1.4043L74.7701 5.47648L74.5963 6.37038L66.874 1.90091Z" fill="#82BD70"/>
<path d="M66.874 11.8058L67.2961 12.0541V8.08121L68.1404 8.57782V7.5846L68.5873 7.83291V6.86452L72.883 9.32273V10.3159L73.3299 10.5891V11.5823L74.1742 12.0541V16.0269L74.5963 16.2504V6.36791L66.874 1.89844V11.8058Z" fill="#82BD70"/>
<g opacity="0.4">
<path opacity="0.4" d="M66.874 11.8058L67.2961 12.0541V8.08121L68.1404 8.57782V7.5846L68.5873 7.83291V6.86452L72.883 9.32273V10.3159L73.3299 10.5891V11.5823L74.1742 12.0541V16.0269L74.5963 16.2504V6.36791L66.874 1.89844V11.8058Z" fill="#AAE798"/>
</g>
<path d="M73.7269 9.17571C73.7021 9.17571 73.6773 9.17571 73.6773 9.15088L67.6683 5.67462C67.6186 5.64979 67.5938 5.5753 67.6186 5.50081C67.6435 5.45115 67.718 5.42632 67.7924 5.45115L73.8014 8.92741C73.8511 8.95224 73.8759 9.02673 73.8511 9.10122C73.8262 9.15088 73.7766 9.17571 73.7269 9.17571Z" fill="#82BD70"/>
<g opacity="0.6">
<path opacity="0.6" d="M73.7269 9.17571C73.7021 9.17571 73.6773 9.17571 73.6773 9.15088L67.6683 5.67462C67.6186 5.64979 67.5938 5.5753 67.6186 5.50081C67.6435 5.45115 67.718 5.42632 67.7924 5.45115L73.8014 8.92741C73.8511 8.95224 73.8759 9.02673 73.8511 9.10122C73.8262 9.15088 73.7766 9.17571 73.7269 9.17571Z" fill="#AAE798"/>
</g>
<path d="M67.7429 14.8389C67.6932 14.8389 67.6436 14.7892 67.6436 14.7395V13.2497C67.6436 13.2001 67.6932 13.1504 67.7429 13.1504C67.7925 13.1504 67.8422 13.2001 67.8422 13.2497V14.7395C67.8174 14.7892 67.7925 14.8389 67.7429 14.8389Z" fill="#82BD70"/>
<path d="M68.4128 15.21C68.3631 15.21 68.3135 15.1603 68.3135 15.1106V13.6208C68.3135 13.5711 68.3631 13.5215 68.4128 13.5215C68.4625 13.5215 68.5121 13.5711 68.5121 13.6208V15.1106C68.4873 15.1851 68.4625 15.21 68.4128 15.21Z" fill="#82BD70"/>
<path d="M69.0588 15.6064C69.0091 15.6064 68.9595 15.5568 68.9595 15.5071V14.0173C68.9595 13.9676 69.0091 13.918 69.0588 13.918C69.1085 13.918 69.1581 13.9676 69.1581 14.0173V15.5071C69.1581 15.5568 69.1085 15.6064 69.0588 15.6064Z" fill="#82BD70"/>
<path d="M69.7287 15.9814C69.6791 15.9814 69.6294 15.9318 69.6294 15.8821V14.3923C69.6294 14.3426 69.6791 14.293 69.7287 14.293C69.7784 14.293 69.828 14.3426 69.828 14.3923V15.8821C69.828 15.9566 69.7784 15.9814 69.7287 15.9814Z" fill="#82BD70"/>
<path d="M70.3996 16.3779C70.35 16.3779 70.3003 16.3283 70.3003 16.2786V14.7888C70.3003 14.7391 70.35 14.6895 70.3996 14.6895C70.4493 14.6895 70.4989 14.7391 70.4989 14.7888V16.2786C70.4989 16.3283 70.4493 16.3779 70.3996 16.3779Z" fill="#82BD70"/>
<path d="M71.07 16.751C71.0204 16.751 70.9707 16.7013 70.9707 16.6516V15.1618C70.9707 15.1122 71.0204 15.0625 71.07 15.0625C71.1197 15.0625 71.1694 15.1122 71.1694 15.1618V16.6516C71.1694 16.7261 71.1197 16.751 71.07 16.751Z" fill="#82BD70"/>
<path d="M71.7399 17.1455C71.6903 17.1455 71.6406 17.0958 71.6406 17.0462V15.5564C71.6406 15.5067 71.6903 15.457 71.7399 15.457C71.7896 15.457 71.8393 15.5067 71.8393 15.5564V17.0462C71.8393 17.0958 71.7896 17.1455 71.7399 17.1455Z" fill="#82BD70"/>
<path d="M72.4104 17.5205C72.3607 17.5205 72.311 17.4708 72.311 17.4212V15.9314C72.311 15.8817 72.3607 15.832 72.4104 15.832C72.46 15.832 72.5097 15.8817 72.5097 15.9314V17.4212C72.4848 17.4957 72.46 17.5205 72.4104 17.5205Z" fill="#82BD70"/>
<path d="M73.0817 17.917C73.0321 17.917 72.9824 17.8673 72.9824 17.8177V16.3278C72.9824 16.2782 73.0321 16.2285 73.0817 16.2285C73.1314 16.2285 73.1811 16.2782 73.1811 16.3278V17.8177C73.1562 17.8673 73.1314 17.917 73.0817 17.917Z" fill="#82BD70"/>
<path d="M73.7272 18.292C73.6776 18.292 73.6279 18.2423 73.6279 18.1927V16.7028C73.6279 16.6532 73.6776 16.6035 73.7272 16.6035C73.7769 16.6035 73.8266 16.6532 73.8266 16.7028V18.1927C73.8266 18.2672 73.7769 18.292 73.7272 18.292Z" fill="#82BD70"/>
<g opacity="0.2">
<path opacity="0.2" d="M67.7429 14.8389C67.6932 14.8389 67.6436 14.7892 67.6436 14.7395V13.2497C67.6436 13.2001 67.6932 13.1504 67.7429 13.1504C67.7925 13.1504 67.8422 13.2001 67.8422 13.2497V14.7395C67.8174 14.7892 67.7925 14.8389 67.7429 14.8389Z" fill="black"/>
</g>
<g opacity="0.2">
<path opacity="0.2" d="M68.4128 15.21C68.3631 15.21 68.3135 15.1603 68.3135 15.1106V13.6208C68.3135 13.5711 68.3631 13.5215 68.4128 13.5215C68.4625 13.5215 68.5121 13.5711 68.5121 13.6208V15.1106C68.4873 15.1851 68.4625 15.21 68.4128 15.21Z" fill="black"/>
</g>
<g opacity="0.2">
<path opacity="0.2" d="M69.0588 15.6064C69.0091 15.6064 68.9595 15.5568 68.9595 15.5071V14.0173C68.9595 13.9676 69.0091 13.918 69.0588 13.918C69.1085 13.918 69.1581 13.9676 69.1581 14.0173V15.5071C69.1581 15.5568 69.1085 15.6064 69.0588 15.6064Z" fill="black"/>
</g>
<g opacity="0.2">
<path opacity="0.2" d="M69.7287 15.9814C69.6791 15.9814 69.6294 15.9318 69.6294 15.8821V14.3923C69.6294 14.3426 69.6791 14.293 69.7287 14.293C69.7784 14.293 69.828 14.3426 69.828 14.3923V15.8821C69.828 15.9566 69.7784 15.9814 69.7287 15.9814Z" fill="black"/>
</g>
<g opacity="0.2">
<path opacity="0.2" d="M70.3996 16.3779C70.35 16.3779 70.3003 16.3283 70.3003 16.2786V14.7888C70.3003 14.7391 70.35 14.6895 70.3996 14.6895C70.4493 14.6895 70.4989 14.7391 70.4989 14.7888V16.2786C70.4989 16.3283 70.4493 16.3779 70.3996 16.3779Z" fill="black"/>
</g>
<g opacity="0.2">
<path opacity="0.2" d="M71.07 16.751C71.0204 16.751 70.9707 16.7013 70.9707 16.6516V15.1618C70.9707 15.1122 71.0204 15.0625 71.07 15.0625C71.1197 15.0625 71.1694 15.1122 71.1694 15.1618V16.6516C71.1694 16.7261 71.1197 16.751 71.07 16.751Z" fill="black"/>
</g>
<g opacity="0.2">
<path opacity="0.2" d="M71.7399 17.1455C71.6903 17.1455 71.6406 17.0958 71.6406 17.0462V15.5564C71.6406 15.5067 71.6903 15.457 71.7399 15.457C71.7896 15.457 71.8393 15.5067 71.8393 15.5564V17.0462C71.8393 17.0958 71.7896 17.1455 71.7399 17.1455Z" fill="black"/>
</g>
<g opacity="0.2">
<path opacity="0.2" d="M72.4104 17.5205C72.3607 17.5205 72.311 17.4708 72.311 17.4212V15.9314C72.311 15.8817 72.3607 15.832 72.4104 15.832C72.46 15.832 72.5097 15.8817 72.5097 15.9314V17.4212C72.4848 17.4957 72.46 17.5205 72.4104 17.5205Z" fill="black"/>
</g>
<g opacity="0.2">
<path opacity="0.2" d="M73.0817 17.917C73.0321 17.917 72.9824 17.8673 72.9824 17.8177V16.3278C72.9824 16.2782 73.0321 16.2285 73.0817 16.2285C73.1314 16.2285 73.1811 16.2782 73.1811 16.3278V17.8177C73.1562 17.8673 73.1314 17.917 73.0817 17.917Z" fill="black"/>
</g>
<g opacity="0.2">
<path opacity="0.2" d="M73.7272 18.292C73.6776 18.292 73.6279 18.2423 73.6279 18.1927V16.7028C73.6279 16.6532 73.6776 16.6035 73.7272 16.6035C73.7769 16.6035 73.8266 16.6532 73.8266 16.7028V18.1927C73.8266 18.2672 73.7769 18.292 73.7272 18.292Z" fill="black"/>
</g>
<path d="M67.7424 4.90331C67.6927 4.90331 67.6431 4.85365 67.6431 4.80399V3.31417C67.6431 3.2645 67.6927 3.21484 67.7424 3.21484C67.792 3.21484 67.8417 3.2645 67.8417 3.31417V4.80399C67.8169 4.85365 67.792 4.90331 67.7424 4.90331Z" fill="#82BD70"/>
<path d="M68.4123 5.27441C68.3626 5.27441 68.313 5.22474 68.313 5.17508V3.68526C68.313 3.6356 68.3626 3.58594 68.4123 3.58594C68.462 3.58594 68.5116 3.6356 68.5116 3.68526V5.17508C68.4868 5.24958 68.462 5.27441 68.4123 5.27441Z" fill="#82BD70"/>
<path d="M69.0583 5.67284C69.0086 5.67284 68.959 5.62318 68.959 5.57352V4.0837C68.959 4.03404 69.0086 3.98438 69.0583 3.98438C69.108 3.98438 69.1576 4.03404 69.1576 4.0837V5.57352C69.1576 5.62318 69.108 5.67284 69.0583 5.67284Z" fill="#82BD70"/>
<path d="M69.7282 6.04784C69.6786 6.04784 69.6289 5.99818 69.6289 5.94852V4.4587C69.6289 4.40904 69.6786 4.35938 69.7282 4.35938C69.7779 4.35938 69.8276 4.40904 69.8276 4.4587V5.94852C69.8276 6.02301 69.7779 6.04784 69.7282 6.04784Z" fill="#82BD70"/>
<path d="M70.3986 6.44433C70.349 6.44433 70.2993 6.39467 70.2993 6.34501V4.85518C70.2993 4.80552 70.349 4.75586 70.3986 4.75586C70.4483 4.75586 70.498 4.80552 70.498 4.85518V6.34501C70.498 6.39467 70.4483 6.44433 70.3986 6.44433Z" fill="#82BD70"/>
<path d="M71.07 6.81542C71.0204 6.81542 70.9707 6.76576 70.9707 6.7161V5.22627C70.9707 5.17661 71.0204 5.12695 71.07 5.12695C71.1197 5.12695 71.1694 5.17661 71.1694 5.22627V6.7161C71.1694 6.79059 71.1197 6.81542 71.07 6.81542Z" fill="#82BD70"/>
<path d="M71.739 7.21386C71.6893 7.21386 71.6396 7.1642 71.6396 7.11454V5.62471C71.6396 5.57505 71.6893 5.52539 71.739 5.52539C71.7886 5.52539 71.8383 5.57505 71.8383 5.62471V7.11454C71.8383 7.1642 71.7886 7.21386 71.739 7.21386Z" fill="#82BD70"/>
<path d="M72.4104 7.58691C72.3607 7.58691 72.311 7.53725 72.311 7.48758V5.99776C72.311 5.9481 72.3607 5.89844 72.4104 5.89844C72.46 5.89844 72.5097 5.9481 72.5097 5.99776V7.48758C72.4848 7.56208 72.46 7.58691 72.4104 7.58691Z" fill="#82BD70"/>
<path d="M73.0808 7.98339C73.0311 7.98339 72.9814 7.93373 72.9814 7.88407V6.39424C72.9814 6.34458 73.0311 6.29492 73.0808 6.29492C73.1304 6.29492 73.1801 6.34458 73.1801 6.39424V7.88407C73.1553 7.93373 73.1304 7.98339 73.0808 7.98339Z" fill="#82BD70"/>
<path d="M73.7263 8.35644C73.6766 8.35644 73.627 8.30678 73.627 8.25712V6.76729C73.627 6.71763 73.6766 6.66797 73.7263 6.66797C73.7759 6.66797 73.8256 6.71763 73.8256 6.76729V8.25712C73.8256 8.33161 73.7759 8.35644 73.7263 8.35644Z" fill="#82BD70"/>
<g opacity="0.2">
<path opacity="0.2" d="M67.7424 4.90331C67.6927 4.90331 67.6431 4.85365 67.6431 4.80399V3.31417C67.6431 3.2645 67.6927 3.21484 67.7424 3.21484C67.792 3.21484 67.8417 3.2645 67.8417 3.31417V4.80399C67.8169 4.85365 67.792 4.90331 67.7424 4.90331Z" fill="black"/>
</g>
<g opacity="0.2">
<path opacity="0.2" d="M68.4123 5.27441C68.3626 5.27441 68.313 5.22474 68.313 5.17508V3.68526C68.313 3.6356 68.3626 3.58594 68.4123 3.58594C68.462 3.58594 68.5116 3.6356 68.5116 3.68526V5.17508C68.4868 5.24958 68.462 5.27441 68.4123 5.27441Z" fill="black"/>
</g>
<g opacity="0.2">
<path opacity="0.2" d="M69.0583 5.67284C69.0086 5.67284 68.959 5.62318 68.959 5.57352V4.0837C68.959 4.03404 69.0086 3.98438 69.0583 3.98438C69.108 3.98438 69.1576 4.03404 69.1576 4.0837V5.57352C69.1576 5.62318 69.108 5.67284 69.0583 5.67284Z" fill="black"/>
</g>
<g opacity="0.2">
<path opacity="0.2" d="M69.7282 6.04784C69.6786 6.04784 69.6289 5.99818 69.6289 5.94852V4.4587C69.6289 4.40904 69.6786 4.35938 69.7282 4.35938C69.7779 4.35938 69.8276 4.40904 69.8276 4.4587V5.94852C69.8276 6.02301 69.7779 6.04784 69.7282 6.04784Z" fill="black"/>
</g>
<g opacity="0.2">
<path opacity="0.2" d="M70.3986 6.44433C70.349 6.44433 70.2993 6.39467 70.2993 6.34501V4.85518C70.2993 4.80552 70.349 4.75586 70.3986 4.75586C70.4483 4.75586 70.498 4.80552 70.498 4.85518V6.34501C70.498 6.39467 70.4483 6.44433 70.3986 6.44433Z" fill="black"/>
</g>
<g opacity="0.2">
<path opacity="0.2" d="M71.07 6.81542C71.0204 6.81542 70.9707 6.76576 70.9707 6.7161V5.22627C70.9707 5.17661 71.0204 5.12695 71.07 5.12695C71.1197 5.12695 71.1694 5.17661 71.1694 5.22627V6.7161C71.1694 6.79059 71.1197 6.81542 71.07 6.81542Z" fill="black"/>
</g>
<g opacity="0.2">
<path opacity="0.2" d="M71.739 7.21386C71.6893 7.21386 71.6396 7.1642 71.6396 7.11454V5.62471C71.6396 5.57505 71.6893 5.52539 71.739 5.52539C71.7886 5.52539 71.8383 5.57505 71.8383 5.62471V7.11454C71.8383 7.1642 71.7886 7.21386 71.739 7.21386Z" fill="black"/>
</g>
<g opacity="0.2">
<path opacity="0.2" d="M72.4104 7.58691C72.3607 7.58691 72.311 7.53725 72.311 7.48758V5.99776C72.311 5.9481 72.3607 5.89844 72.4104 5.89844C72.46 5.89844 72.5097 5.9481 72.5097 5.99776V7.48758C72.4848 7.56208 72.46 7.58691 72.4104 7.58691Z" fill="black"/>
</g>
<g opacity="0.2">
<path opacity="0.2" d="M73.0808 7.98339C73.0311 7.98339 72.9814 7.93373 72.9814 7.88407V6.39424C72.9814 6.34458 73.0311 6.29492 73.0808 6.29492C73.1304 6.29492 73.1801 6.34458 73.1801 6.39424V7.88407C73.1553 7.93373 73.1304 7.98339 73.0808 7.98339Z" fill="black"/>
</g>
<g opacity="0.2">
<path opacity="0.2" d="M73.7263 8.35644C73.6766 8.35644 73.627 8.30678 73.627 8.25712V6.76729C73.627 6.71763 73.6766 6.66797 73.7263 6.66797C73.7759 6.66797 73.8256 6.71763 73.8256 6.76729V8.25712C73.8256 8.33161 73.7759 8.35644 73.7263 8.35644Z" fill="black"/>
</g>
<path d="M29.479 81.4294L74.0744 55.7051V56.6983L29.479 82.3978V81.4294Z" fill="#274517"/>
<path d="M91.6052 19.4335C88.2531 19.4335 84.8514 18.1423 81.7724 15.6841C77.8492 12.5307 75.5151 8.38399 75.5151 6.17409C75.5151 6.0251 75.6145 5.92578 75.7634 5.92578C75.9124 5.92578 76.0117 6.0251 76.0117 6.17409C76.0117 8.21018 78.3458 12.2575 82.0952 15.2868C84.8017 17.4471 89.0974 19.7811 94.2621 18.639C94.3862 18.6141 94.5352 18.6886 94.5601 18.8376C94.5849 18.9617 94.5104 19.1107 94.3614 19.1356C93.4675 19.3342 92.5488 19.4335 91.6052 19.4335Z" fill="#396420"/>
<path d="M41.4233 64.9201C40.3059 64.9201 39.1637 64.5973 38.0215 63.9269C28.7598 58.5883 21.5093 33.0627 21.5093 29.1395C21.5093 28.9905 21.6086 28.8912 21.7576 28.8912C21.9066 28.8912 22.0059 28.9905 22.0059 29.1395C22.0059 30.9769 23.8433 38.3764 26.7237 45.751C29.2812 52.3063 33.3782 60.6989 38.245 63.5296C40.3059 64.7215 42.342 64.7711 44.3036 63.6289C50.5609 60.0037 56.0732 44.7578 59.5991 32.5909C63.5223 19.0087 66.0054 5.57541 66.0054 3.53932C66.0054 3.39034 66.1047 3.29102 66.2537 3.29102C66.4027 3.29102 66.502 3.39034 66.502 3.53932C66.502 5.67474 64.0686 18.9093 60.0709 32.7399C56.5202 44.9813 50.9581 60.3761 44.5519 64.0759C43.5339 64.6221 42.491 64.9201 41.4233 64.9201Z" fill="#396420"/>
<path d="M84.3312 49.7502L74.0762 55.7095L67.1733 51.7118L77.4531 45.7773L84.3312 49.7502Z" fill="#46752E"/>
<path d="M76.1865 54.4658V55.459L84.3309 50.7413V49.748L76.1865 54.4658Z" fill="#274517"/>
<path d="M19.6226 91.3645V89.8002C19.6226 89.6761 19.697 89.5519 19.7964 89.4774L22.0063 88.2111C22.1056 88.1614 22.2794 88.1614 22.3787 88.2111L33.1551 94.4435C33.2545 94.4932 33.3289 94.6422 33.3289 94.7663V96.3306C33.3289 96.4548 33.2545 96.5789 33.1551 96.6534L30.9452 97.9198C30.8459 97.9694 30.6721 97.9694 30.5728 97.9198L19.7964 91.6873C19.697 91.6377 19.6226 91.4887 19.6226 91.3645Z" fill="#DEFFD7"/>
<path d="M33.328 94.767C33.328 94.6428 33.2535 94.5187 33.1542 94.4442L32.4838 94.0469L30.7705 95.0401V97.9453C30.845 97.9453 30.8947 97.9204 30.9443 97.8956L33.1542 96.6292C33.2535 96.5796 33.328 96.4306 33.328 96.3064V94.767Z" fill="#B1DBA7"/>
<path d="M19.7957 89.5028L22.0056 88.2365C22.1049 88.1868 22.2787 88.1868 22.378 88.2365L33.1544 94.4689C33.2538 94.5186 33.2538 94.6179 33.1544 94.6924L30.9445 95.9587C30.8452 96.0084 30.6714 96.0084 30.5721 95.9587L19.7957 89.7263C19.6964 89.6518 19.6964 89.5525 19.7957 89.5028Z" fill="#EEFFEA"/>
<path d="M28.189 93.8474V93.2763C28.189 93.1521 28.2635 93.028 28.3628 92.9535L29.7036 92.1837C29.8029 92.1341 29.9768 92.1341 30.0761 92.1837L32.286 93.4501C32.3853 93.4997 32.4598 93.6487 32.4598 93.7729V94.344C32.4598 94.4681 32.3853 94.5923 32.286 94.6668L30.9451 95.4365C30.8458 95.4862 30.672 95.4862 30.5727 95.4365L28.3628 94.1702C28.2635 94.0957 28.189 93.9715 28.189 93.8474Z" fill="#CDF3C4"/>
<path d="M32.4848 93.7745C32.4848 93.6504 32.4103 93.5262 32.311 93.4517L32.0627 93.3027L30.7715 94.0476V95.463C30.846 95.463 30.8956 95.4381 30.9453 95.4133L32.2861 94.6436C32.3855 94.5939 32.46 94.4449 32.46 94.3208V93.7745H32.4848Z" fill="#B1DBA7"/>
<path d="M28.3631 92.9535L29.7039 92.1837C29.8032 92.1341 29.977 92.1341 30.0764 92.1837L32.2863 93.4501C32.3856 93.4997 32.3856 93.5991 32.2863 93.6736L30.9454 94.4433C30.8461 94.493 30.6723 94.493 30.573 94.4433L28.3631 93.1769C28.2637 93.1273 28.2637 93.028 28.3631 92.9535Z" fill="#FAFAFA"/>
<path d="M31.4418 31.1014L30.9452 30.8283C30.8459 30.7786 30.6721 30.7786 30.5728 30.8283L30.0762 31.1262C29.9768 31.1759 29.9023 31.3249 29.9023 31.449V32.2188L31.566 31.2504C31.5163 31.1759 31.4915 31.1262 31.4418 31.1014Z" fill="#82BD70"/>
<path d="M78.0238 68.9447C78.0238 68.8205 77.9494 68.6964 77.85 68.6219L77.1796 68.2246L75.4663 69.2178V72.123C75.5408 72.123 75.5905 72.0982 75.6401 72.0733L77.85 70.807C77.9494 70.7573 78.0238 70.6083 78.0238 70.4842V68.9447Z" fill="#B1DBA7"/>
<path d="M72.8833 68.0232V67.4521C72.8833 67.3279 72.9578 67.2037 73.0571 67.1293L74.398 66.3595C74.4973 66.3099 74.6711 66.3099 74.7704 66.3595L76.9803 67.6259C77.0796 67.6755 77.1541 67.8245 77.1541 67.9487V68.5198C77.1541 68.6439 77.0796 68.7681 76.9803 68.8426L75.6395 69.6123C75.5402 69.662 75.3663 69.662 75.267 69.6123L73.0571 68.3459C72.9578 68.2715 72.8833 68.1473 72.8833 68.0232Z" fill="#CDF3C4"/>
<path d="M77.1796 67.9483C77.1796 67.8242 77.1051 67.7 77.0058 67.6255L76.7575 67.4766L75.4663 68.2215V69.6368C75.5408 69.6368 75.5905 69.612 75.6401 69.5871L76.981 68.8174C77.0803 68.7678 77.1548 68.6188 77.1548 68.4946V67.9483H77.1796Z" fill="#B1DBA7"/>
<path d="M73.0584 67.1293L74.3992 66.3595C74.4985 66.3099 74.6724 66.3099 74.7717 66.3595L76.9816 67.6259C77.0809 67.6755 77.0809 67.7748 76.9816 67.8493L75.6407 68.6191C75.5414 68.6687 75.3676 68.6687 75.2683 68.6191L73.0584 67.3527C72.9591 67.3031 72.9591 67.2037 73.0584 67.1293Z" fill="#FAFAFA"/>
<path d="M74.5972 5.57458V67.5265C74.5972 67.6506 74.6717 67.7748 74.771 67.8492L75.4414 68.2465L76.3105 67.7499V5.57458C76.3105 5.45043 76.236 5.32628 76.1367 5.25179L75.64 4.97865C75.5407 4.92899 75.3669 4.92899 75.2676 4.97865L74.771 5.25179C74.6717 5.32628 74.5972 5.47526 74.5972 5.57458Z" fill="#82BD70"/>
<g opacity="0.2">
<path opacity="0.2" d="M74.5972 5.57458V67.5265C74.5972 67.6506 74.6717 67.7748 74.771 67.8492L75.4414 68.2465L76.3105 67.7499V5.57458C76.3105 5.45043 76.236 5.32628 76.1367 5.25179L75.64 4.97865C75.5407 4.92899 75.3669 4.92899 75.2676 4.97865L74.771 5.25179C74.6717 5.32628 74.5972 5.47526 74.5972 5.57458Z" fill="black"/>
</g>
<path d="M76.1367 5.27718L75.64 5.00404C75.5407 4.95438 75.3669 4.95438 75.2676 5.00404L74.771 5.30201C74.6717 5.35167 74.5972 5.50065 74.5972 5.6248V6.39455L76.2608 5.42616C76.2111 5.35167 76.1863 5.30201 76.1367 5.27718Z" fill="#82BD70"/>
<path d="M75.4414 6.07234V68.0242C75.4414 68.1484 75.3669 68.198 75.2676 68.1235L74.771 67.8504C74.6717 67.8007 74.5972 67.6518 74.5972 67.5276V5.57573C74.5972 5.45158 74.6717 5.40191 74.771 5.47641L75.2676 5.74954C75.3669 5.82403 75.4414 5.97301 75.4414 6.07234Z" fill="#82BD70"/>
<path d="M75.4414 6.07234V68.0242C75.4414 68.1484 75.3669 68.198 75.2676 68.1235L74.771 67.8504C74.6717 67.8007 74.5972 67.6518 74.5972 67.5276V5.57573C74.5972 5.45158 74.6717 5.40191 74.771 5.47641L75.2676 5.74954C75.3669 5.82403 75.4414 5.97301 75.4414 6.07234Z" fill="#AAE798"/>
<path d="M75.2671 56.256L73.9263 55.4863C73.8269 55.4366 73.7524 55.4863 73.7524 55.5856V67.2559L75.4657 68.2491V56.5788C75.4409 56.4547 75.3664 56.3057 75.2671 56.256Z" fill="#82BD70"/>
<path d="M75.2671 56.256L73.9263 55.4863C73.8269 55.4366 73.7524 55.4863 73.7524 55.5856V67.2559L75.4657 68.2491V56.5788C75.4409 56.4547 75.3664 56.3057 75.2671 56.256Z" fill="#AAE798"/>
<path d="M68.0163 51.2148L29.4795 73.3884V81.4335L74.0749 55.7091V54.7159L68.0163 51.2148Z" fill="#46752E"/>
<path d="M20.4663 89.4001V88.829C20.4663 88.7048 20.5408 88.5807 20.6401 88.5062L21.981 87.7365C22.0803 87.6868 22.2541 87.6868 22.3534 87.7365L24.5633 89.0028C24.6626 89.0525 24.7371 89.2015 24.7371 89.3256V89.8967C24.7371 90.0209 24.6626 90.145 24.5633 90.2195L23.2225 90.9892C23.1232 91.0389 22.9493 91.0389 22.85 90.9892L20.6401 89.7229C20.5408 89.6484 20.4663 89.4994 20.4663 89.4001Z" fill="#CDF3C4"/>
<path d="M24.7621 89.3272C24.7621 89.2031 24.6876 89.0789 24.5883 89.0045L24.34 88.8555L23.0488 89.6004V91.0157C23.1233 91.0157 23.173 90.9909 23.2226 90.9661L24.5635 90.1963C24.6628 90.1466 24.7373 89.9977 24.7373 89.8735V89.3272H24.7621Z" fill="#B1DBA7"/>
<path d="M20.6399 88.5062L21.9808 87.7365C22.0801 87.6868 22.2539 87.6868 22.3532 87.7365L24.5631 89.0028C24.6624 89.0525 24.6624 89.1518 24.5631 89.2263L23.2223 89.996C23.123 90.0457 22.9491 90.0457 22.8498 89.996L20.6399 88.7297C20.5406 88.6552 20.5406 88.5559 20.6399 88.5062Z" fill="#FAFAFA"/>
<path d="M22.3784 89.2048L23.0488 89.6021L23.9179 89.1055V78.4284C23.9179 78.3043 23.8434 78.1801 23.7441 78.1056L22.4032 77.3359C22.3039 77.2862 22.2294 77.3359 22.2294 77.4352V88.882C22.1798 89.0062 22.2543 89.1552 22.3784 89.2048Z" fill="#82BD70"/>
<g opacity="0.4">
<path opacity="0.4" d="M22.3784 89.2048L23.0488 89.6021L23.9179 89.1055V78.4284C23.9179 78.3043 23.8434 78.1801 23.7441 78.1056L22.4032 77.3359C22.3039 77.2862 22.2294 77.3359 22.2294 77.4352V88.882C22.1798 89.0062 22.2543 89.1552 22.3784 89.2048Z" fill="black"/>
</g>
<path d="M21.3364 26.4574V88.4093C21.3364 88.5334 21.4109 88.6576 21.5102 88.7321L22.0068 89.0052C22.1062 89.0549 22.28 89.0549 22.3793 89.0052L22.8759 88.7321C22.9752 88.6824 23.0497 88.5334 23.0497 88.4093V26.4574C23.0497 26.3332 22.9752 26.2091 22.8759 26.1346L22.3793 25.8615C22.28 25.8118 22.1062 25.8118 22.0068 25.8615L21.5102 26.1346C21.4109 26.2091 21.3364 26.3332 21.3364 26.4574Z" fill="#82BD70"/>
<path d="M22.8505 26.1346L22.3539 25.8615C22.2546 25.8118 22.0808 25.8118 21.9815 25.8615L21.4848 26.1594C21.3855 26.2091 21.311 26.3581 21.311 26.4822V27.252L22.9747 26.2836C22.9498 26.2091 22.9002 26.1594 22.8505 26.1346Z" fill="#82BD70"/>
<path d="M22.1807 26.9551V88.907C22.1807 89.0312 22.1062 89.0808 22.0068 89.0063L21.5102 88.7332C21.4109 88.6836 21.3364 88.5346 21.3364 88.4104V26.4585C21.3364 26.3344 21.4109 26.2847 21.5102 26.3592L22.0068 26.6324C22.1062 26.682 22.1807 26.831 22.1807 26.9551Z" fill="#82BD70"/>
<path d="M22.1807 26.9551V88.907C22.1807 89.0312 22.1062 89.0808 22.0068 89.0063L21.5102 88.7332C21.4109 88.6836 21.3364 88.5346 21.3364 88.4104V26.4585C21.3364 26.3344 21.4109 26.2847 21.5102 26.3592L22.0068 26.6324C22.1062 26.682 22.1807 26.831 22.1807 26.9551Z" fill="#AAE798"/>
<path d="M22.8501 77.6095L21.5093 76.8398C21.4099 76.7901 21.3354 76.8398 21.3354 76.9391V88.6094L23.0487 89.6026V77.9323C23.0487 77.8082 22.9494 77.684 22.8501 77.6095Z" fill="#82BD70"/>
<g opacity="0.4">
<path opacity="0.4" d="M22.8501 77.6095L21.5093 76.8398C21.4099 76.7901 21.3354 76.8398 21.3354 76.9391V88.6094L23.0487 89.6026V77.9323C23.0487 77.8082 22.9494 77.684 22.8501 77.6095Z" fill="#AAE798"/>
</g>
<path d="M22.6025 64.5474L23.4468 64.0508V55.1367L22.6025 55.6582V64.5474Z" fill="#82BD70"/>
<g opacity="0.2">
<path opacity="0.2" d="M22.6025 64.5474L23.4468 64.0508V55.1367L22.6025 55.6582V64.5474Z" fill="black"/>
</g>
<path d="M23.4473 56.1299L24.3163 55.6582V55.1615L23.8942 55.4099L23.4473 55.1367V56.1299Z" fill="#82BD70"/>
<g opacity="0.2">
<path opacity="0.2" d="M23.4473 56.1299L24.3163 55.6582V55.1615L23.8942 55.4099L23.4473 55.1367V56.1299Z" fill="black"/>
</g>
<path d="M23.8936 54.416V55.4092L24.7626 54.9126L23.8936 54.416Z" fill="#82BD70"/>
<g opacity="0.2">
<path opacity="0.2" d="M23.8936 54.416V55.4092L24.7626 54.9126L23.8936 54.416Z" fill="black"/>
</g>
<path d="M22.6025 52.6275L23.4468 52.1309V43.2168L22.6025 43.7382V52.6275Z" fill="#82BD70"/>
<g opacity="0.2">
<path opacity="0.2" d="M22.6025 52.6275L23.4468 52.1309V43.2168L22.6025 43.7382V52.6275Z" fill="black"/>
</g>
<path d="M23.4463 44.21L24.3154 43.7382V43.2416L23.8932 43.4899L23.4463 43.2168V44.21Z" fill="#82BD70"/>
<g opacity="0.2">
<path opacity="0.2" d="M23.4463 44.21L24.3154 43.7382V43.2416L23.8932 43.4899L23.4463 43.2168V44.21Z" fill="black"/>
</g>
<path d="M23.8936 42.4961V43.4893L24.7626 42.9927L23.8936 42.4961Z" fill="#82BD70"/>
<g opacity="0.2">
<path opacity="0.2" d="M23.8936 42.4961V43.4893L24.7626 42.9927L23.8936 42.4961Z" fill="black"/>
</g>
<path d="M22.6025 42.6978L23.4468 42.2012V33.2871L22.6025 33.8085V42.6978Z" fill="#82BD70"/>
<g opacity="0.2">
<path opacity="0.2" d="M22.6025 42.6978L23.4468 42.2012V33.2871L22.6025 33.8085V42.6978Z" fill="black"/>
</g>
<path d="M23.4468 34.2803L24.3158 33.8085V33.3119L23.8937 33.5602L23.4468 33.2871V34.2803Z" fill="#82BD70"/>
<g opacity="0.2">
<path opacity="0.2" d="M23.4468 34.2803L24.3158 33.8085V33.3119L23.8937 33.5602L23.4468 33.2871V34.2803Z" fill="black"/>
</g>
<path d="M23.8936 32.5645V33.5577L24.7626 33.0611L23.8936 32.5645Z" fill="#82BD70"/>
<g opacity="0.2">
<path opacity="0.2" d="M23.8936 32.5645V33.5577L24.7626 33.0611L23.8936 32.5645Z" fill="black"/>
</g>
<path d="M22.1802 49.5005L23.0492 49.0039L29.9024 52.9768V53.97L22.1802 49.5005Z" fill="#82BD70"/>
<path d="M22.1802 62.3889L22.6023 62.6124V55.6847L23.4465 56.1813V55.1881L23.8935 55.4613V54.468L28.1891 56.9262V57.9195L28.6361 58.1926V59.1858L29.4803 59.6576V66.5853L29.9024 66.8336V53.9714L22.1802 49.502V62.3889Z" fill="#82BD70"/>
<path d="M22.1802 62.3889L22.6023 62.6124V55.6847L23.4465 56.1813V55.1881L23.8935 55.4613V54.468L28.1891 56.9262V57.9195L28.6361 58.1926V59.1858L29.4803 59.6576V66.5853L29.9024 66.8336V53.9714L22.1802 49.502V62.3889Z" fill="#AAE798"/>
<path d="M29.034 56.7753C29.0092 56.7753 28.9844 56.7753 28.9844 56.7505L22.9754 53.2742C22.9258 53.2494 22.9009 53.1749 22.9258 53.1004C22.9506 53.0508 23.0251 53.0259 23.0996 53.0508L29.1085 56.527C29.1582 56.5518 29.183 56.6263 29.1582 56.7008C29.1334 56.7505 29.0837 56.7753 29.034 56.7753Z" fill="#82BD70"/>
<path d="M29.034 56.7753C29.0092 56.7753 28.9844 56.7753 28.9844 56.7505L22.9754 53.2742C22.9258 53.2494 22.9009 53.1749 22.9258 53.1004C22.9506 53.0508 23.0251 53.0259 23.0996 53.0508L29.1085 56.527C29.1582 56.5518 29.183 56.6263 29.1582 56.7008C29.1334 56.7505 29.0837 56.7753 29.034 56.7753Z" fill="#AAE798"/>
<path d="M23.0485 52.581C22.9989 52.581 22.9492 52.5314 22.9492 52.4817V50.9919C22.9492 50.9422 22.9989 50.8926 23.0485 50.8926C23.0982 50.8926 23.1479 50.9422 23.1479 50.9919V52.4817C23.123 52.5314 23.0982 52.581 23.0485 52.581Z" fill="#82BD70"/>
<path d="M23.7185 52.9502C23.6688 52.9502 23.6191 52.9005 23.6191 52.8509V51.361C23.6191 51.3114 23.6688 51.2617 23.7185 51.2617C23.7681 51.2617 23.8178 51.3114 23.8178 51.361V52.8509C23.793 52.9254 23.7681 52.9502 23.7185 52.9502Z" fill="#82BD70"/>
<path d="M24.3649 53.3506C24.3153 53.3506 24.2656 53.3009 24.2656 53.2513V51.7614C24.2656 51.7118 24.3153 51.6621 24.3649 51.6621C24.4146 51.6621 24.4643 51.7118 24.4643 51.7614V53.2513C24.4643 53.3009 24.4146 53.3506 24.3649 53.3506Z" fill="#82BD70"/>
<path d="M25.0349 53.7217C24.9852 53.7217 24.9355 53.672 24.9355 53.6223V52.1325C24.9355 52.0829 24.9852 52.0332 25.0349 52.0332C25.0845 52.0332 25.1342 52.0829 25.1342 52.1325V53.6223C25.1342 53.6968 25.0845 53.7217 25.0349 53.7217Z" fill="#82BD70"/>
<path d="M25.7053 54.1221C25.6556 54.1221 25.606 54.0724 25.606 54.0227V52.5329C25.606 52.4833 25.6556 52.4336 25.7053 52.4336C25.7549 52.4336 25.8046 52.4833 25.8046 52.5329V54.0227C25.8046 54.0724 25.7549 54.1221 25.7053 54.1221Z" fill="#82BD70"/>
<path d="M26.3762 54.4912C26.3265 54.4912 26.2769 54.4415 26.2769 54.3919V52.9021C26.2769 52.8524 26.3265 52.8027 26.3762 52.8027C26.4258 52.8027 26.4755 52.8524 26.4755 52.9021V54.3919C26.4755 54.4664 26.4258 54.4912 26.3762 54.4912Z" fill="#82BD70"/>
<path d="M27.0466 54.8916C26.9969 54.8916 26.9473 54.8419 26.9473 54.7923V53.3024C26.9473 53.2528 26.9969 53.2031 27.0466 53.2031C27.0962 53.2031 27.1459 53.2528 27.1459 53.3024V54.7923C27.1459 54.8419 27.0962 54.8916 27.0466 54.8916Z" fill="#82BD70"/>
<path d="M27.717 55.2627C27.6673 55.2627 27.6177 55.213 27.6177 55.1634V53.6735C27.6177 53.6239 27.6673 53.5742 27.717 53.5742C27.7667 53.5742 27.8163 53.6239 27.8163 53.6735V55.1634C27.7915 55.2379 27.7667 55.2627 27.717 55.2627Z" fill="#82BD70"/>
<path d="M28.3874 55.6611C28.3377 55.6611 28.2881 55.6115 28.2881 55.5618V54.072C28.2881 54.0223 28.3377 53.9727 28.3874 53.9727C28.4371 53.9727 28.4867 54.0223 28.4867 54.072V55.5618C28.4619 55.6115 28.4371 55.6611 28.3874 55.6611Z" fill="#82BD70"/>
<path d="M29.0329 56.0322C28.9833 56.0322 28.9336 55.9826 28.9336 55.9329V54.4431C28.9336 54.3934 28.9833 54.3438 29.0329 54.3438C29.0826 54.3438 29.1322 54.3934 29.1322 54.4431V55.9329C29.1322 56.0074 29.0826 56.0322 29.0329 56.0322Z" fill="#82BD70"/>
<g opacity="0.2">
<path opacity="0.2" d="M23.0485 52.581C22.9989 52.581 22.9492 52.5314 22.9492 52.4817V50.9919C22.9492 50.9422 22.9989 50.8926 23.0485 50.8926C23.0982 50.8926 23.1479 50.9422 23.1479 50.9919V52.4817C23.123 52.5314 23.0982 52.581 23.0485 52.581Z" fill="black"/>
</g>
<g opacity="0.2">
<path opacity="0.2" d="M23.7185 52.9502C23.6688 52.9502 23.6191 52.9005 23.6191 52.8509V51.361C23.6191 51.3114 23.6688 51.2617 23.7185 51.2617C23.7681 51.2617 23.8178 51.3114 23.8178 51.361V52.8509C23.793 52.9254 23.7681 52.9502 23.7185 52.9502Z" fill="black"/>
</g>
<g opacity="0.2">
<path opacity="0.2" d="M24.3649 53.3506C24.3153 53.3506 24.2656 53.3009 24.2656 53.2513V51.7614C24.2656 51.7118 24.3153 51.6621 24.3649 51.6621C24.4146 51.6621 24.4643 51.7118 24.4643 51.7614V53.2513C24.4643 53.3009 24.4146 53.3506 24.3649 53.3506Z" fill="black"/>
</g>
<g opacity="0.2">
<path opacity="0.2" d="M25.0349 53.7217C24.9852 53.7217 24.9355 53.672 24.9355 53.6223V52.1325C24.9355 52.0829 24.9852 52.0332 25.0349 52.0332C25.0845 52.0332 25.1342 52.0829 25.1342 52.1325V53.6223C25.1342 53.6968 25.0845 53.7217 25.0349 53.7217Z" fill="black"/>
</g>
<g opacity="0.2">
<path opacity="0.2" d="M25.7053 54.1221C25.6556 54.1221 25.606 54.0724 25.606 54.0227V52.5329C25.606 52.4833 25.6556 52.4336 25.7053 52.4336C25.7549 52.4336 25.8046 52.4833 25.8046 52.5329V54.0227C25.8046 54.0724 25.7549 54.1221 25.7053 54.1221Z" fill="black"/>
</g>
<g opacity="0.2">
<path opacity="0.2" d="M26.3762 54.4912C26.3265 54.4912 26.2769 54.4415 26.2769 54.3919V52.9021C26.2769 52.8524 26.3265 52.8027 26.3762 52.8027C26.4258 52.8027 26.4755 52.8524 26.4755 52.9021V54.3919C26.4755 54.4664 26.4258 54.4912 26.3762 54.4912Z" fill="black"/>
</g>
<g opacity="0.2">
<path opacity="0.2" d="M27.0466 54.8916C26.9969 54.8916 26.9473 54.8419 26.9473 54.7923V53.3024C26.9473 53.2528 26.9969 53.2031 27.0466 53.2031C27.0962 53.2031 27.1459 53.2528 27.1459 53.3024V54.7923C27.1459 54.8419 27.0962 54.8916 27.0466 54.8916Z" fill="black"/>
</g>
<g opacity="0.2">
<path opacity="0.2" d="M27.717 55.2627C27.6673 55.2627 27.6177 55.213 27.6177 55.1634V53.6735C27.6177 53.6239 27.6673 53.5742 27.717 53.5742C27.7667 53.5742 27.8163 53.6239 27.8163 53.6735V55.1634C27.7915 55.2379 27.7667 55.2627 27.717 55.2627Z" fill="black"/>
</g>
<g opacity="0.2">
<path opacity="0.2" d="M28.3874 55.6611C28.3377 55.6611 28.2881 55.6115 28.2881 55.5618V54.072C28.2881 54.0223 28.3377 53.9727 28.3874 53.9727C28.4371 53.9727 28.4867 54.0223 28.4867 54.072V55.5618C28.4619 55.6115 28.4371 55.6611 28.3874 55.6611Z" fill="black"/>
</g>
<g opacity="0.2">
<path opacity="0.2" d="M29.0329 56.0322C28.9833 56.0322 28.9336 55.9826 28.9336 55.9329V54.4431C28.9336 54.3934 28.9833 54.3438 29.0329 54.3438C29.0826 54.3438 29.1322 54.3934 29.1322 54.4431V55.9329C29.1322 56.0074 29.0826 56.0322 29.0329 56.0322Z" fill="black"/>
</g>
<path d="M22.1802 37.6314L23.0492 37.1348L29.9024 41.0828V42.076L22.1802 37.6314Z" fill="#82BD70"/>
<path d="M22.1797 49.4998L22.6018 49.7481V43.8136L23.446 44.2854V43.317L23.893 43.5653V42.5721L28.1886 45.0552V46.0484L28.6356 46.3215V47.2899L29.4798 47.7865V53.721L29.9019 53.9693V42.0755L22.1797 37.6309V49.4998Z" fill="#82BD70"/>
<g opacity="0.4">
<path opacity="0.4" d="M22.1797 49.4998L22.6018 49.7481V43.8136L23.446 44.2854V43.317L23.893 43.5653V42.5721L28.1886 45.0552V46.0484L28.6356 46.3215V47.2899L29.4798 47.7865V53.721L29.9019 53.9693V42.0755L22.1797 37.6309V49.4998Z" fill="#AAE798"/>
</g>
<path d="M29.0331 44.9101C29.0082 44.9101 28.9834 44.9101 28.9834 44.8853L22.9744 41.409C22.9248 41.3842 22.8999 41.3097 22.9248 41.2352C22.9496 41.1855 23.0241 41.1607 23.0986 41.1855L29.1076 44.6618C29.1572 44.6866 29.182 44.7611 29.1572 44.8356C29.1324 44.8853 29.0827 44.9101 29.0331 44.9101Z" fill="#82BD70"/>
<g opacity="0.6">
<path opacity="0.6" d="M29.0331 44.9101C29.0082 44.9101 28.9834 44.9101 28.9834 44.8853L22.9744 41.409C22.9248 41.3842 22.8999 41.3097 22.9248 41.2352C22.9496 41.1855 23.0241 41.1607 23.0986 41.1855L29.1076 44.6618C29.1572 44.6866 29.182 44.7611 29.1572 44.8356C29.1324 44.8853 29.0827 44.9101 29.0331 44.9101Z" fill="#AAE798"/>
</g>
<path d="M22.1802 27.7251L23.0492 27.2285L30.0762 31.3007L29.9024 32.1946L22.1802 27.7251Z" fill="#82BD70"/>
<path d="M22.1797 37.6319L22.6018 37.8802V33.9074L23.446 34.404V33.4108L23.893 33.6591V32.6907L28.1886 35.1489V36.1421L28.6356 36.4153V37.4085L29.4798 37.8802V41.8531L29.9019 42.0766V32.1941L22.1797 27.7246V37.6319Z" fill="#82BD70"/>
<g opacity="0.4">
<path opacity="0.4" d="M22.1797 37.6319L22.6018 37.8802V33.9074L23.446 34.404V33.4108L23.893 33.6591V32.6907L28.1886 35.1489V36.1421L28.6356 36.4153V37.4085L29.4798 37.8802V41.8531L29.9019 42.0766V32.1941L22.1797 27.7246V37.6319Z" fill="#AAE798"/>
</g>
<path d="M29.0331 34.9999C29.0082 34.9999 28.9834 34.9999 28.9834 34.9751L22.9744 31.4988C22.9248 31.474 22.8999 31.3995 22.9248 31.325C22.9496 31.2754 23.0241 31.2505 23.0986 31.2754L29.1076 34.7516C29.1572 34.7765 29.182 34.8509 29.1572 34.9254C29.1324 34.9751 29.0827 34.9999 29.0331 34.9999Z" fill="#82BD70"/>
<g opacity="0.6">
<path opacity="0.6" d="M29.0331 34.9999C29.0082 34.9999 28.9834 34.9999 28.9834 34.9751L22.9744 31.4988C22.9248 31.474 22.8999 31.3995 22.9248 31.325C22.9496 31.2754 23.0241 31.2505 23.0986 31.2754L29.1076 34.7516C29.1572 34.7765 29.182 34.8509 29.1572 34.9254C29.1324 34.9751 29.0827 34.9999 29.0331 34.9999Z" fill="#AAE798"/>
</g>
<path d="M23.0495 40.6631C22.9999 40.6631 22.9502 40.6134 22.9502 40.5638V39.0739C22.9502 39.0243 22.9999 38.9746 23.0495 38.9746C23.0992 38.9746 23.1488 39.0243 23.1488 39.0739V40.5638C23.124 40.6134 23.0992 40.6631 23.0495 40.6631Z" fill="#82BD70"/>
<path d="M23.7194 41.0342C23.6698 41.0342 23.6201 40.9845 23.6201 40.9348V39.445C23.6201 39.3954 23.6698 39.3457 23.7194 39.3457C23.7691 39.3457 23.8188 39.3954 23.8188 39.445V40.9348C23.7939 41.0093 23.7691 41.0342 23.7194 41.0342Z" fill="#82BD70"/>
<path d="M24.3654 41.4326C24.3158 41.4326 24.2661 41.3829 24.2661 41.3333V39.8435C24.2661 39.7938 24.3158 39.7441 24.3654 39.7441C24.4151 39.7441 24.4648 39.7938 24.4648 39.8435V41.3333C24.4648 41.3829 24.4151 41.4326 24.3654 41.4326Z" fill="#82BD70"/>
<path d="M25.0358 41.8037C24.9862 41.8037 24.9365 41.754 24.9365 41.7044V40.2146C24.9365 40.1649 24.9862 40.1152 25.0358 40.1152C25.0855 40.1152 25.1352 40.1649 25.1352 40.2146V41.7044C25.1352 41.7789 25.0855 41.8037 25.0358 41.8037Z" fill="#82BD70"/>
<path d="M25.7063 42.2021C25.6566 42.2021 25.6069 42.1525 25.6069 42.1028V40.613C25.6069 40.5633 25.6566 40.5137 25.7063 40.5137C25.7559 40.5137 25.8056 40.5633 25.8056 40.613V42.1028C25.8056 42.1525 25.7559 42.2021 25.7063 42.2021Z" fill="#82BD70"/>
<path d="M26.3767 42.5713C26.327 42.5713 26.2773 42.5216 26.2773 42.472V40.9821C26.2773 40.9325 26.327 40.8828 26.3767 40.8828C26.4263 40.8828 26.476 40.9325 26.476 40.9821V42.472C26.476 42.5465 26.4263 42.5713 26.3767 42.5713Z" fill="#82BD70"/>
<path d="M27.0471 42.9697C26.9974 42.9697 26.9478 42.9201 26.9478 42.8704V41.3806C26.9478 41.3309 26.9974 41.2812 27.0471 41.2812C27.0967 41.2812 27.1464 41.3309 27.1464 41.3806V42.8704C27.1464 42.9201 27.0967 42.9697 27.0471 42.9697Z" fill="#82BD70"/>
<path d="M27.7175 43.3428C27.6678 43.3428 27.6182 43.2931 27.6182 43.2434V41.7536C27.6182 41.704 27.6678 41.6543 27.7175 41.6543C27.7671 41.6543 27.8168 41.704 27.8168 41.7536V43.2434C27.792 43.3179 27.7671 43.3428 27.7175 43.3428Z" fill="#82BD70"/>
<path d="M28.3884 43.7412C28.3387 43.7412 28.2891 43.6915 28.2891 43.6419V42.1521C28.2891 42.1024 28.3387 42.0527 28.3884 42.0527C28.438 42.0527 28.4877 42.1024 28.4877 42.1521V43.6419C28.4629 43.6915 28.438 43.7412 28.3884 43.7412Z" fill="#82BD70"/>
<path d="M29.0329 44.1123C28.9833 44.1123 28.9336 44.0626 28.9336 44.013V42.5232C28.9336 42.4735 28.9833 42.4238 29.0329 42.4238C29.0826 42.4238 29.1322 42.4735 29.1322 42.5232V44.013C29.1322 44.0875 29.0826 44.1123 29.0329 44.1123Z" fill="#82BD70"/>
<g opacity="0.2">
<path opacity="0.2" d="M23.0495 40.6631C22.9999 40.6631 22.9502 40.6134 22.9502 40.5638V39.0739C22.9502 39.0243 22.9999 38.9746 23.0495 38.9746C23.0992 38.9746 23.1488 39.0243 23.1488 39.0739V40.5638C23.124 40.6134 23.0992 40.6631 23.0495 40.6631Z" fill="black"/>
</g>
<g opacity="0.2">
<path opacity="0.2" d="M23.7194 41.0342C23.6698 41.0342 23.6201 40.9845 23.6201 40.9348V39.445C23.6201 39.3954 23.6698 39.3457 23.7194 39.3457C23.7691 39.3457 23.8188 39.3954 23.8188 39.445V40.9348C23.7939 41.0093 23.7691 41.0342 23.7194 41.0342Z" fill="black"/>
</g>
<g opacity="0.2">
<path opacity="0.2" d="M24.3654 41.4326C24.3158 41.4326 24.2661 41.3829 24.2661 41.3333V39.8435C24.2661 39.7938 24.3158 39.7441 24.3654 39.7441C24.4151 39.7441 24.4648 39.7938 24.4648 39.8435V41.3333C24.4648 41.3829 24.4151 41.4326 24.3654 41.4326Z" fill="black"/>
</g>
<g opacity="0.2">
<path opacity="0.2" d="M25.0358 41.8037C24.9862 41.8037 24.9365 41.754 24.9365 41.7044V40.2146C24.9365 40.1649 24.9862 40.1152 25.0358 40.1152C25.0855 40.1152 25.1352 40.1649 25.1352 40.2146V41.7044C25.1352 41.7789 25.0855 41.8037 25.0358 41.8037Z" fill="black"/>
</g>
<g opacity="0.2">
<path opacity="0.2" d="M25.7063 42.2021C25.6566 42.2021 25.6069 42.1525 25.6069 42.1028V40.613C25.6069 40.5633 25.6566 40.5137 25.7063 40.5137C25.7559 40.5137 25.8056 40.5633 25.8056 40.613V42.1028C25.8056 42.1525 25.7559 42.2021 25.7063 42.2021Z" fill="black"/>
</g>
<g opacity="0.2">
<path opacity="0.2" d="M26.3767 42.5713C26.327 42.5713 26.2773 42.5216 26.2773 42.472V40.9821C26.2773 40.9325 26.327 40.8828 26.3767 40.8828C26.4263 40.8828 26.476 40.9325 26.476 40.9821V42.472C26.476 42.5465 26.4263 42.5713 26.3767 42.5713Z" fill="black"/>
</g>
<g opacity="0.2">
<path opacity="0.2" d="M27.0471 42.9697C26.9974 42.9697 26.9478 42.9201 26.9478 42.8704V41.3806C26.9478 41.3309 26.9974 41.2812 27.0471 41.2812C27.0967 41.2812 27.1464 41.3309 27.1464 41.3806V42.8704C27.1464 42.9201 27.0967 42.9697 27.0471 42.9697Z" fill="black"/>
</g>
<g opacity="0.2">
<path opacity="0.2" d="M27.7175 43.3428C27.6678 43.3428 27.6182 43.2931 27.6182 43.2434V41.7536C27.6182 41.704 27.6678 41.6543 27.7175 41.6543C27.7671 41.6543 27.8168 41.704 27.8168 41.7536V43.2434C27.792 43.3179 27.7671 43.3428 27.7175 43.3428Z" fill="black"/>
</g>
<g opacity="0.2">
<path opacity="0.2" d="M28.3884 43.7412C28.3387 43.7412 28.2891 43.6915 28.2891 43.6419V42.1521C28.2891 42.1024 28.3387 42.0527 28.3884 42.0527C28.438 42.0527 28.4877 42.1024 28.4877 42.1521V43.6419C28.4629 43.6915 28.438 43.7412 28.3884 43.7412Z" fill="black"/>
</g>
<g opacity="0.2">
<path opacity="0.2" d="M29.0329 44.1123C28.9833 44.1123 28.9336 44.0626 28.9336 44.013V42.5232C28.9336 42.4735 28.9833 42.4238 29.0329 42.4238C29.0826 42.4238 29.1322 42.4735 29.1322 42.5232V44.013C29.1322 44.0875 29.0826 44.1123 29.0329 44.1123Z" fill="black"/>
</g>
<path d="M23.0495 30.7295C22.9999 30.7295 22.9502 30.6798 22.9502 30.6302V29.1403C22.9502 29.0907 22.9999 29.041 23.0495 29.041C23.0992 29.041 23.1488 29.0907 23.1488 29.1403V30.6302C23.124 30.6798 23.0992 30.7295 23.0495 30.7295Z" fill="#82BD70"/>
<path d="M23.7194 31.1006C23.6698 31.1006 23.6201 31.0509 23.6201 31.0013V29.5114C23.6201 29.4618 23.6698 29.4121 23.7194 29.4121C23.7691 29.4121 23.8188 29.4618 23.8188 29.5114V31.0013C23.7939 31.0757 23.7691 31.1006 23.7194 31.1006Z" fill="#82BD70"/>
<path d="M24.3654 31.499C24.3158 31.499 24.2661 31.4494 24.2661 31.3997V29.9099C24.2661 29.8602 24.3158 29.8105 24.3654 29.8105C24.4151 29.8105 24.4648 29.8602 24.4648 29.9099V31.3997C24.4648 31.4494 24.4151 31.499 24.3654 31.499Z" fill="#82BD70"/>
<path d="M25.0354 31.8701C24.9857 31.8701 24.936 31.8204 24.936 31.7708V30.281C24.936 30.2313 24.9857 30.1816 25.0354 30.1816C25.085 30.1816 25.1347 30.2313 25.1347 30.281V31.7708C25.1347 31.8453 25.085 31.8701 25.0354 31.8701Z" fill="#82BD70"/>
<path d="M25.7063 32.2705C25.6566 32.2705 25.6069 32.2208 25.6069 32.1712V30.6814C25.6069 30.6317 25.6566 30.582 25.7063 30.582C25.7559 30.582 25.8056 30.6317 25.8056 30.6814V32.1712C25.8056 32.2208 25.7559 32.2705 25.7063 32.2705Z" fill="#82BD70"/>
<path d="M26.3762 32.6416C26.3265 32.6416 26.2769 32.5919 26.2769 32.5423V31.0524C26.2769 31.0028 26.3265 30.9531 26.3762 30.9531C26.4258 30.9531 26.4755 31.0028 26.4755 31.0524V32.5423C26.4755 32.6168 26.4258 32.6416 26.3762 32.6416Z" fill="#82BD70"/>
<path d="M27.0466 33.04C26.9969 33.04 26.9473 32.9904 26.9473 32.9407V31.4509C26.9473 31.4012 26.9969 31.3516 27.0466 31.3516C27.0962 31.3516 27.1459 31.4012 27.1459 31.4509V32.9407C27.1459 32.9904 27.0962 33.04 27.0466 33.04Z" fill="#82BD70"/>
<path d="M27.7175 33.4111C27.6678 33.4111 27.6182 33.3615 27.6182 33.3118V31.822C27.6182 31.7723 27.6678 31.7227 27.7175 31.7227C27.7671 31.7227 27.8168 31.7723 27.8168 31.822V33.3118C27.792 33.3863 27.7671 33.4111 27.7175 33.4111Z" fill="#82BD70"/>
<path d="M28.3879 33.8076C28.3382 33.8076 28.2886 33.758 28.2886 33.7083V32.2185C28.2886 32.1688 28.3382 32.1191 28.3879 32.1191C28.4376 32.1191 28.4872 32.1688 28.4872 32.2185V33.7083C28.4624 33.758 28.4376 33.8076 28.3879 33.8076Z" fill="#82BD70"/>
<path d="M29.0329 34.1787C28.9833 34.1787 28.9336 34.129 28.9336 34.0794V32.5896C28.9336 32.5399 28.9833 32.4902 29.0329 32.4902C29.0826 32.4902 29.1322 32.5399 29.1322 32.5896V34.0794C29.1322 34.1539 29.0826 34.1787 29.0329 34.1787Z" fill="#82BD70"/>
<g opacity="0.2">
<path opacity="0.2" d="M23.0495 30.7295C22.9999 30.7295 22.9502 30.6798 22.9502 30.6302V29.1403C22.9502 29.0907 22.9999 29.041 23.0495 29.041C23.0992 29.041 23.1488 29.0907 23.1488 29.1403V30.6302C23.124 30.6798 23.0992 30.7295 23.0495 30.7295Z" fill="black"/>
</g>
<g opacity="0.2">
<path opacity="0.2" d="M23.7194 31.1006C23.6698 31.1006 23.6201 31.0509 23.6201 31.0013V29.5114C23.6201 29.4618 23.6698 29.4121 23.7194 29.4121C23.7691 29.4121 23.8188 29.4618 23.8188 29.5114V31.0013C23.7939 31.0757 23.7691 31.1006 23.7194 31.1006Z" fill="black"/>
</g>
<g opacity="0.2">
<path opacity="0.2" d="M24.3654 31.499C24.3158 31.499 24.2661 31.4494 24.2661 31.3997V29.9099C24.2661 29.8602 24.3158 29.8105 24.3654 29.8105C24.4151 29.8105 24.4648 29.8602 24.4648 29.9099V31.3997C24.4648 31.4494 24.4151 31.499 24.3654 31.499Z" fill="black"/>
</g>
<g opacity="0.2">
<path opacity="0.2" d="M25.0354 31.8701C24.9857 31.8701 24.936 31.8204 24.936 31.7708V30.281C24.936 30.2313 24.9857 30.1816 25.0354 30.1816C25.085 30.1816 25.1347 30.2313 25.1347 30.281V31.7708C25.1347 31.8453 25.085 31.8701 25.0354 31.8701Z" fill="black"/>
</g>
<g opacity="0.2">
<path opacity="0.2" d="M25.7063 32.2705C25.6566 32.2705 25.6069 32.2208 25.6069 32.1712V30.6814C25.6069 30.6317 25.6566 30.582 25.7063 30.582C25.7559 30.582 25.8056 30.6317 25.8056 30.6814V32.1712C25.8056 32.2208 25.7559 32.2705 25.7063 32.2705Z" fill="black"/>
</g>
<g opacity="0.2">
<path opacity="0.2" d="M26.3762 32.6416C26.3265 32.6416 26.2769 32.5919 26.2769 32.5423V31.0524C26.2769 31.0028 26.3265 30.9531 26.3762 30.9531C26.4258 30.9531 26.4755 31.0028 26.4755 31.0524V32.5423C26.4755 32.6168 26.4258 32.6416 26.3762 32.6416Z" fill="black"/>
</g>
<g opacity="0.2">
<path opacity="0.2" d="M27.0466 33.04C26.9969 33.04 26.9473 32.9904 26.9473 32.9407V31.4509C26.9473 31.4012 26.9969 31.3516 27.0466 31.3516C27.0962 31.3516 27.1459 31.4012 27.1459 31.4509V32.9407C27.1459 32.9904 27.0962 33.04 27.0466 33.04Z" fill="black"/>
</g>
<g opacity="0.2">
<path opacity="0.2" d="M27.7175 33.4111C27.6678 33.4111 27.6182 33.3615 27.6182 33.3118V31.822C27.6182 31.7723 27.6678 31.7227 27.7175 31.7227C27.7671 31.7227 27.8168 31.7723 27.8168 31.822V33.3118C27.792 33.3863 27.7671 33.4111 27.7175 33.4111Z" fill="black"/>
</g>
<g opacity="0.2">
<path opacity="0.2" d="M28.3879 33.8076C28.3382 33.8076 28.2886 33.758 28.2886 33.7083V32.2185C28.2886 32.1688 28.3382 32.1191 28.3879 32.1191C28.4376 32.1191 28.4872 32.1688 28.4872 32.2185V33.7083C28.4624 33.758 28.4376 33.8076 28.3879 33.8076Z" fill="black"/>
</g>
<g opacity="0.2">
<path opacity="0.2" d="M29.0329 34.1787C28.9833 34.1787 28.9336 34.129 28.9336 34.0794V32.5896C28.9336 32.5399 28.9833 32.4902 29.0329 32.4902C29.0826 32.4902 29.1322 32.5399 29.1322 32.5896V34.0794C29.1322 34.1539 29.0826 34.1787 29.0329 34.1787Z" fill="black"/>
</g>
<path d="M22.6011 77.4576L23.4453 76.961V68.0469L22.6011 68.5683V77.4576Z" fill="#82BD70"/>
<g opacity="0.3">
<path opacity="0.3" d="M22.6011 77.4576L23.4453 76.961V68.0469L22.6011 68.5683V77.4576Z" fill="black"/>
</g>
<path d="M23.4448 69.0401L24.3139 68.5683V68.0717L23.8918 68.32L23.4448 68.0469V69.0401Z" fill="#82BD70"/>
<g opacity="0.3">
<path opacity="0.3" d="M23.4448 69.0401L24.3139 68.5683V68.0717L23.8918 68.32L23.4448 68.0469V69.0401Z" fill="black"/>
</g>
<path d="M23.8921 67.3262V68.3194L24.7612 67.8228L23.8921 67.3262Z" fill="#82BD70"/>
<g opacity="0.3">
<path opacity="0.3" d="M23.8921 67.3262V68.3194L24.7612 67.8228L23.8921 67.3262Z" fill="black"/>
</g>
<path d="M22.1807 62.3853L23.0497 61.8887L29.9029 65.8367V66.8299L22.1807 62.3853Z" fill="#82BD70"/>
<path d="M22.1802 77.2334L22.6023 77.4568V68.5675L23.4465 69.0393V68.0461L23.8935 68.3192V67.326L28.1891 69.8091V70.8023L28.6361 71.0506V72.0438L29.4803 72.5404V81.4297L29.9024 81.678V66.8294L22.1802 62.3848V77.2334Z" fill="#82BD70"/>
<g opacity="0.4">
<path opacity="0.4" d="M22.1802 77.2334L22.6023 77.4568V68.5675L23.4465 69.0393V68.0461L23.8935 68.3192V67.326L28.1891 69.8091V70.8023L28.6361 71.0506V72.0438L29.4803 72.5404V81.4297L29.9024 81.678V66.8294L22.1802 62.3848V77.2334Z" fill="#AAE798"/>
</g>
<path d="M29.0335 69.6366C29.0087 69.6366 28.9839 69.6366 28.9839 69.6118L22.9749 66.1356C22.9253 66.1107 22.9004 66.0362 22.9253 65.9617C22.9501 65.9121 23.0246 65.8873 23.0991 65.9121L29.108 69.3883C29.1577 69.4132 29.1825 69.4877 29.1577 69.5622C29.1329 69.6118 29.0832 69.6366 29.0335 69.6366Z" fill="#82BD70"/>
<g opacity="0.6">
<path opacity="0.6" d="M29.0335 69.6366C29.0087 69.6366 28.9839 69.6366 28.9839 69.6118L22.9749 66.1356C22.9253 66.1107 22.9004 66.0362 22.9253 65.9617C22.9501 65.9121 23.0246 65.8873 23.0991 65.9121L29.108 69.3883C29.1577 69.4132 29.1825 69.4877 29.1577 69.5622C29.1329 69.6118 29.0832 69.6366 29.0335 69.6366Z" fill="#AAE798"/>
</g>
<path d="M23.0485 65.4404C22.9989 65.4404 22.9492 65.3908 22.9492 65.3411V63.8513C22.9492 63.8016 22.9989 63.752 23.0485 63.752C23.0982 63.752 23.1479 63.8016 23.1479 63.8513V65.3411C23.123 65.3908 23.0982 65.4404 23.0485 65.4404Z" fill="#82BD70"/>
<path d="M23.719 65.8369C23.6693 65.8369 23.6196 65.7872 23.6196 65.7376V64.2478C23.6196 64.1981 23.6693 64.1484 23.719 64.1484C23.7686 64.1484 23.8183 64.1981 23.8183 64.2478V65.7376C23.7934 65.7872 23.7686 65.8369 23.719 65.8369Z" fill="#82BD70"/>
<path d="M24.3649 66.21C24.3153 66.21 24.2656 66.1603 24.2656 66.1106V64.6208C24.2656 64.5711 24.3153 64.5215 24.3649 64.5215C24.4146 64.5215 24.4643 64.5711 24.4643 64.6208V66.1106C24.4643 66.1603 24.4146 66.21 24.3649 66.21Z" fill="#82BD70"/>
<path d="M25.0349 66.6084C24.9852 66.6084 24.9355 66.5587 24.9355 66.5091V65.0192C24.9355 64.9696 24.9852 64.9199 25.0349 64.9199C25.0845 64.9199 25.1342 64.9696 25.1342 65.0192V66.5091C25.1342 66.5587 25.0845 66.6084 25.0349 66.6084Z" fill="#82BD70"/>
<path d="M25.7053 66.9814C25.6556 66.9814 25.606 66.9318 25.606 66.8821V65.3923C25.606 65.3426 25.6556 65.293 25.7053 65.293C25.7549 65.293 25.8046 65.3426 25.8046 65.3923V66.8821C25.8046 66.9318 25.7549 66.9814 25.7053 66.9814Z" fill="#82BD70"/>
<path d="M26.3757 67.3779C26.326 67.3779 26.2764 67.3283 26.2764 67.2786V65.7888C26.2764 65.7391 26.326 65.6895 26.3757 65.6895C26.4253 65.6895 26.475 65.7391 26.475 65.7888V67.2786C26.475 67.3283 26.4253 67.3779 26.3757 67.3779Z" fill="#82BD70"/>
<path d="M27.0456 67.751C26.996 67.751 26.9463 67.7013 26.9463 67.6516V66.1618C26.9463 66.1122 26.996 66.0625 27.0456 66.0625C27.0953 66.0625 27.1449 66.1122 27.1449 66.1618V67.6516C27.1449 67.7013 27.0953 67.751 27.0456 67.751Z" fill="#82BD70"/>
<path d="M27.717 68.1474C27.6673 68.1474 27.6177 68.0978 27.6177 68.0481V66.5583C27.6177 66.5086 27.6673 66.459 27.717 66.459C27.7667 66.459 27.8163 66.5086 27.8163 66.5583V68.0481C27.7915 68.0978 27.7667 68.1474 27.717 68.1474Z" fill="#82BD70"/>
<path d="M28.3874 68.5185C28.3377 68.5185 28.2881 68.4689 28.2881 68.4192V66.9294C28.2881 66.8797 28.3377 66.8301 28.3874 66.8301C28.4371 66.8301 28.4867 66.8797 28.4867 66.9294V68.4192C28.4619 68.4689 28.4371 68.5185 28.3874 68.5185Z" fill="#82BD70"/>
<path d="M29.0319 68.917C28.9823 68.917 28.9326 68.8673 28.9326 68.8177V67.3278C28.9326 67.2782 28.9823 67.2285 29.0319 67.2285C29.0816 67.2285 29.1313 67.2782 29.1313 67.3278V68.8177C29.1313 68.8673 29.0816 68.917 29.0319 68.917Z" fill="#82BD70"/>
<g opacity="0.2">
<g opacity="0.2">
<path opacity="0.2" d="M23.0485 65.4404C22.9989 65.4404 22.9492 65.3908 22.9492 65.3411V63.8513C22.9492 63.8016 22.9989 63.752 23.0485 63.752C23.0982 63.752 23.1479 63.8016 23.1479 63.8513V65.3411C23.123 65.3908 23.0982 65.4404 23.0485 65.4404Z" fill="black"/>
</g>
<g opacity="0.2">
<path opacity="0.2" d="M23.719 65.8369C23.6693 65.8369 23.6196 65.7872 23.6196 65.7376V64.2478C23.6196 64.1981 23.6693 64.1484 23.719 64.1484C23.7686 64.1484 23.8183 64.1981 23.8183 64.2478V65.7376C23.7934 65.7872 23.7686 65.8369 23.719 65.8369Z" fill="black"/>
</g>
<g opacity="0.2">
<path opacity="0.2" d="M24.3649 66.21C24.3153 66.21 24.2656 66.1603 24.2656 66.1106V64.6208C24.2656 64.5711 24.3153 64.5215 24.3649 64.5215C24.4146 64.5215 24.4643 64.5711 24.4643 64.6208V66.1106C24.4643 66.1603 24.4146 66.21 24.3649 66.21Z" fill="black"/>
</g>
<g opacity="0.2">
<path opacity="0.2" d="M25.0349 66.6084C24.9852 66.6084 24.9355 66.5587 24.9355 66.5091V65.0192C24.9355 64.9696 24.9852 64.9199 25.0349 64.9199C25.0845 64.9199 25.1342 64.9696 25.1342 65.0192V66.5091C25.1342 66.5587 25.0845 66.6084 25.0349 66.6084Z" fill="black"/>
</g>
<g opacity="0.2">
<path opacity="0.2" d="M25.7053 66.9814C25.6556 66.9814 25.606 66.9318 25.606 66.8821V65.3923C25.606 65.3426 25.6556 65.293 25.7053 65.293C25.7549 65.293 25.8046 65.3426 25.8046 65.3923V66.8821C25.8046 66.9318 25.7549 66.9814 25.7053 66.9814Z" fill="black"/>
</g>
<g opacity="0.2">
<path opacity="0.2" d="M26.3757 67.3779C26.326 67.3779 26.2764 67.3283 26.2764 67.2786V65.7888C26.2764 65.7391 26.326 65.6895 26.3757 65.6895C26.4253 65.6895 26.475 65.7391 26.475 65.7888V67.2786C26.475 67.3283 26.4253 67.3779 26.3757 67.3779Z" fill="black"/>
</g>
<g opacity="0.2">
<path opacity="0.2" d="M27.0456 67.751C26.996 67.751 26.9463 67.7013 26.9463 67.6516V66.1618C26.9463 66.1122 26.996 66.0625 27.0456 66.0625C27.0953 66.0625 27.1449 66.1122 27.1449 66.1618V67.6516C27.1449 67.7013 27.0953 67.751 27.0456 67.751Z" fill="black"/>
</g>
<g opacity="0.2">
<path opacity="0.2" d="M27.717 68.1474C27.6673 68.1474 27.6177 68.0978 27.6177 68.0481V66.5583C27.6177 66.5086 27.6673 66.459 27.717 66.459C27.7667 66.459 27.8163 66.5086 27.8163 66.5583V68.0481C27.7915 68.0978 27.7667 68.1474 27.717 68.1474Z" fill="black"/>
</g>
<g opacity="0.2">
<path opacity="0.2" d="M28.3874 68.5185C28.3377 68.5185 28.2881 68.4689 28.2881 68.4192V66.9294C28.2881 66.8797 28.3377 66.8301 28.3874 66.8301C28.4371 66.8301 28.4867 66.8797 28.4867 66.9294V68.4192C28.4619 68.4689 28.4371 68.5185 28.3874 68.5185Z" fill="black"/>
</g>
<g opacity="0.2">
<path opacity="0.2" d="M29.0319 68.917C28.9823 68.917 28.9326 68.8673 28.9326 68.8177V67.3278C28.9326 67.2782 28.9823 67.2285 29.0319 67.2285C29.0816 67.2285 29.1313 67.2782 29.1313 67.3278V68.8177C29.1313 68.8673 29.0816 68.917 29.0319 68.917Z" fill="black"/>
</g>
</g>
<path d="M29.9023 31.4008V93.3526C29.9023 93.4768 29.9768 93.6009 30.0762 93.6754L30.7466 94.0727L31.6156 93.5761V31.4008C31.6156 31.2766 31.5412 31.1524 31.4418 31.078L30.9452 30.8048C30.8459 30.7552 30.6721 30.7552 30.5728 30.8048L30.0762 31.078C29.9768 31.1524 29.9023 31.3014 29.9023 31.4008Z" fill="#82BD70"/>
<g opacity="0.2">
<path opacity="0.2" d="M29.9023 31.4008V93.3526C29.9023 93.4768 29.9768 93.6009 30.0762 93.6754L30.7466 94.0727L31.6156 93.5761V31.4008C31.6156 31.2766 31.5412 31.1524 31.4418 31.078L30.9452 30.8048C30.8459 30.7552 30.6721 30.7552 30.5728 30.8048L30.0762 31.078C29.9768 31.1524 29.9023 31.3014 29.9023 31.4008Z" fill="black"/>
</g>
<path d="M30.7466 31.8946V93.8465C30.7466 93.9706 30.6721 94.0203 30.5728 93.9458L30.0762 93.6727C29.9768 93.623 29.9023 93.474 29.9023 93.3499V31.398C29.9023 31.2738 29.9768 31.2242 30.0762 31.2987L30.5728 31.5718C30.6721 31.6463 30.7466 31.7953 30.7466 31.8946Z" fill="#82BD70"/>
<path d="M30.7466 31.8946V93.8465C30.7466 93.9706 30.6721 94.0203 30.5728 93.9458L30.0762 93.6727C29.9768 93.623 29.9023 93.474 29.9023 93.3499V31.398C29.9023 31.2738 29.9768 31.2242 30.0762 31.2987L30.5728 31.5718C30.6721 31.6463 30.7466 31.7953 30.7466 31.8946Z" fill="#AAE798"/>
<path d="M30.5723 82.0783L29.2314 81.3085C29.1321 81.2589 29.0576 81.3085 29.0576 81.4079V93.0782L30.7709 94.0714V82.4011C30.7461 82.2769 30.6716 82.128 30.5723 82.0783Z" fill="#82BD70"/>
<path d="M30.5723 82.0783L29.2314 81.3085C29.1321 81.2589 29.0576 81.3085 29.0576 81.4079V93.0782L30.7709 94.0714V82.4011C30.7461 82.2769 30.6716 82.128 30.5723 82.0783Z" fill="#AAE798"/>
<path d="M29.9019 88.6097L22.1797 84.1651V83.1719L29.9019 87.6165V88.6097Z" fill="#82BD70"/>
<path d="M29.4801 92.4594C29.3808 92.4594 29.2815 92.4098 29.207 92.3353L22.329 84.4144C22.2048 84.2654 22.2048 84.0171 22.3538 83.893C22.5028 83.7688 22.7511 83.7688 22.8753 83.9178L29.7533 91.8387C29.8774 91.9877 29.8774 92.236 29.7285 92.3601C29.654 92.4098 29.5795 92.4594 29.4801 92.4594Z" fill="#82BD70"/>
<path d="M22.6019 88.4851C22.4033 88.4851 22.2295 88.3113 22.2295 88.1127C22.2295 87.914 22.4033 87.7402 22.6019 87.7402H29.48C29.6786 87.7402 29.8524 87.914 29.8524 88.1127C29.8524 88.3113 29.6786 88.4851 29.48 88.4851H22.6019Z" fill="#82BD70"/>
<path d="M29.4806 87.7915C29.3813 87.7915 29.282 87.7418 29.2075 87.6673L22.3295 79.7464C22.2053 79.5974 22.2053 79.3491 22.3543 79.225C22.5033 79.1008 22.7516 79.1008 22.8757 79.2498L29.7538 87.1707C29.8779 87.3197 29.8779 87.568 29.7289 87.6922C29.6545 87.7667 29.58 87.7915 29.4806 87.7915Z" fill="#82BD70"/>
<path d="M22.6019 83.8406C22.4033 83.8406 22.2295 83.6668 22.2295 83.4682C22.2295 83.2695 22.4033 83.0957 22.6019 83.0957H29.48C29.6786 83.0957 29.8524 83.2695 29.8524 83.4682C29.8524 83.6668 29.6786 83.8406 29.48 83.8406H22.6019Z" fill="#82BD70"/>
<g opacity="0.3">
<g opacity="0.3">
<path opacity="0.3" d="M29.9019 88.6097L22.1797 84.1651V83.1719L29.9019 87.6165V88.6097Z" fill="#AAE798"/>
</g>
<g opacity="0.3">
<g opacity="0.3">
<path opacity="0.3" d="M29.4801 92.4594C29.3808 92.4594 29.2815 92.4098 29.207 92.3353L22.329 84.4144C22.2048 84.2654 22.2048 84.0171 22.3538 83.893C22.5028 83.7688 22.7511 83.7688 22.8753 83.9178L29.7533 91.8387C29.8774 91.9877 29.8774 92.236 29.7285 92.3601C29.654 92.4098 29.5795 92.4594 29.4801 92.4594Z" fill="#AAE798"/>
</g>
<g opacity="0.3">
<path opacity="0.3" d="M22.6019 88.4851C22.4033 88.4851 22.2295 88.3113 22.2295 88.1127C22.2295 87.914 22.4033 87.7402 22.6019 87.7402H29.48C29.6786 87.7402 29.8524 87.914 29.8524 88.1127C29.8524 88.3113 29.6786 88.4851 29.48 88.4851H22.6019Z" fill="#AAE798"/>
</g>
<g opacity="0.3">
<path opacity="0.3" d="M29.4806 87.7915C29.3813 87.7915 29.282 87.7418 29.2075 87.6673L22.3295 79.7464C22.2053 79.5974 22.2053 79.3491 22.3543 79.225C22.5033 79.1008 22.7516 79.1008 22.8757 79.2498L29.7538 87.1707C29.8779 87.3197 29.8779 87.568 29.7289 87.6922C29.6545 87.7667 29.58 87.7915 29.4806 87.7915Z" fill="#AAE798"/>
</g>
<g opacity="0.3">
<path opacity="0.3" d="M22.6019 83.8406C22.4033 83.8406 22.2295 83.6668 22.2295 83.4682C22.2295 83.2695 22.4033 83.0957 22.6019 83.0957H29.48C29.6786 83.0957 29.8524 83.2695 29.8524 83.4682C29.8524 83.6668 29.6786 83.8406 29.48 83.8406H22.6019Z" fill="#AAE798"/>
</g>
</g>
</g>
<path d="M29.4795 81.4318L20.1681 86.9441L13.29 82.9713L29.4795 73.3867V81.4318Z" fill="#46752E"/>
<path d="M20.1675 86.944V87.9372L29.4789 82.4V81.4316L20.1675 86.944Z" fill="#274517"/>
<path d="M20.1681 87.9387L13.29 83.9659V82.9727L20.1681 86.9455V87.9387Z" fill="#46752E"/>
<path d="M3.78643 71.4319C3.70578 71.4264 3.60194 71.3653 3.55371 71.2812C3.48228 71.1415 3.5471 70.9842 3.66016 70.9111C16.5797 64.0889 29.0338 38.0951 29.3582 33.373C29.3693 33.212 29.4842 33.112 29.6455 33.1231C29.8068 33.1342 29.9069 33.2489 29.8959 33.4099C29.73 35.8247 26.4369 43.6586 21.7961 51.4539C18.4049 57.1785 11.5478 67.3555 3.8958 71.4125C3.86891 71.4106 3.84019 71.4356 3.78643 71.4319Z" fill="#396420"/>
<path d="M2.68863 64.2254C2.61414 64.2254 2.53965 64.2006 2.48999 64.1261C2.39066 64.0268 2.41549 63.853 2.51482 63.7785C13.1919 54.9388 21.5101 33.0136 21.5101 29.1897C21.5101 29.0407 21.6094 28.9414 21.7584 28.9414C21.9074 28.9414 22.0067 29.0407 22.0067 29.1897C22.0067 33.0633 13.614 55.2368 2.83761 64.1509C2.78795 64.2254 2.73829 64.2254 2.68863 64.2254Z" fill="#396420"/>
</svg>
