<svg width="118" height="33" viewBox="0 0 118 33" fill="none" xmlns="http://www.w3.org/2000/svg">
<path d="M9.97754 24.0495V32.1996L19.5013 18.1406L9.97754 24.0495Z" fill="#3E3D84"/>
<path d="M9.97754 11.793V22.2238L19.5013 16.3387L9.97754 11.793Z" fill="#3E3D84"/>
<path d="M9.97754 0V11.8447L19.5013 16.3265L9.97754 0Z" fill="#3E3D84"/>
<path d="M9.97732 24.0495V32.1996L0 18.1406L9.97732 24.0495Z" fill="#3E3D84"/>
<path d="M9.97732 11.793V22.2238L0 16.3387L9.97732 11.793Z" fill="#3E3D84"/>
<path d="M9.9778 0V11.8447L0.000488281 16.3265L9.9778 0Z" fill="#3E3D84"/>
<path d="M28.9479 16.8408C29.0716 18.3261 30.2475 20.1209 32.2898 20.1209C33.7132 20.1209 34.5178 19.502 35.1366 18.6355C35.2604 18.5118 35.4461 18.4499 35.6317 18.5737C35.6936 18.6355 35.7555 18.6974 35.8174 18.8212C35.8174 18.8831 35.8174 19.0069 35.7555 19.0688C35.1985 19.8733 34.0845 20.9254 32.2279 20.8016C30.9283 20.8016 29.9381 20.1209 29.2573 19.3782C28.7003 18.7593 28.2671 17.7072 28.2671 16.4695C28.2671 15.2317 28.6384 14.2415 29.3811 13.4989C30.1237 12.7562 31.052 12.1992 32.2279 12.1992C33.4657 12.1992 34.394 12.6324 35.0747 13.437C36.0031 14.4272 36.2506 15.4174 36.2506 16.4695C36.2506 16.5933 36.2506 16.6551 36.1268 16.717C36.0649 16.7789 35.9412 16.8408 35.8793 16.8408C34.394 16.8408 28.9479 16.8408 28.9479 16.8408ZM32.2898 12.88C31.3615 12.88 30.6807 13.3132 30.1237 13.8083C29.5667 14.3034 29.1335 15.2936 29.0097 16.16H35.508C35.4461 15.2936 35.0129 14.4272 34.5178 13.8702C34.0227 13.3132 33.4657 12.88 32.2898 12.88Z" fill="#3E3D84"/>
<path d="M61.2535 16.8408C61.3154 18.3261 62.5532 20.1209 64.5955 20.1209C66.0189 20.1209 66.8234 19.502 67.4423 18.6355C67.5661 18.5118 67.7517 18.4499 67.9374 18.5737C67.9993 18.6355 68.0612 18.6974 68.1231 18.8212C68.1231 18.8831 68.1231 19.0069 68.0612 19.0688C67.5042 19.8733 66.3902 20.9254 64.5336 20.8016C63.2339 20.8016 62.2437 20.1209 61.563 19.3782C61.006 18.7593 60.5728 17.7072 60.5728 16.4695C60.5728 15.2317 60.9441 14.2415 61.6867 13.4989C62.4294 12.7562 63.3577 12.1992 64.5336 12.1992C65.7094 12.1992 66.6996 12.6324 67.3804 13.437C68.3087 14.4272 68.5563 15.4174 68.5563 16.4695C68.5563 16.5933 68.5563 16.6551 68.4325 16.717C68.3706 16.7789 68.2468 16.8408 68.1849 16.8408C66.6378 16.8408 61.2535 16.8408 61.2535 16.8408ZM64.5955 12.88C63.6671 12.88 62.9864 13.3132 62.4294 13.8083C61.8724 14.3034 61.4392 15.2936 61.3154 16.16H67.8136C67.7517 15.2936 67.3185 14.4272 66.8234 13.8702C66.2664 13.3132 65.7713 12.88 64.5955 12.88Z" fill="#3E3D84"/>
<path d="M81.2433 16.8408C81.3052 18.3261 82.5429 20.1209 84.5852 20.1209C86.0086 20.1209 86.8132 19.502 87.432 18.6355C87.5558 18.5118 87.7415 18.4499 87.9271 18.5737C87.989 18.6355 88.0509 18.6974 88.1128 18.8212C88.1128 18.8831 88.1128 19.0069 88.0509 19.0688C87.4939 19.8733 86.38 20.9254 84.5233 20.8016C83.2237 20.8016 82.2335 20.1209 81.5527 19.3782C80.9957 18.7593 80.5625 17.7072 80.5625 16.4695C80.5625 15.2317 80.9338 14.2415 81.6765 13.4989C82.4191 12.7562 83.3475 12.1992 84.5233 12.1992C85.7611 12.1992 86.6894 12.6324 87.3702 13.437C88.2985 14.4272 88.546 15.4174 88.546 16.4695C88.546 16.5933 88.546 16.6551 88.4222 16.717C88.3604 16.7789 88.2366 16.8408 88.1747 16.8408C86.6275 16.8408 81.2433 16.8408 81.2433 16.8408ZM84.5852 12.88C83.6569 12.88 82.9761 13.3132 82.4191 13.8083C81.8621 14.3034 81.4289 15.2936 81.3052 16.16H87.8034C87.7415 15.2936 87.3083 14.4272 86.8132 13.8702C86.2562 13.3132 85.7611 12.88 84.5852 12.88Z" fill="#3E3D84"/>
<path d="M42.8748 13.0029V20.3676C42.8748 20.5533 42.751 20.677 42.5654 20.677C42.3797 20.677 42.2559 20.5533 42.2559 20.3676V13.0029H40.3993C40.2136 13.0029 40.0898 12.8792 40.0898 12.6935C40.0898 12.5078 40.2136 12.3841 40.3993 12.3841H42.2559V9.661C42.2559 9.47534 42.3797 9.35156 42.5654 9.35156C42.751 9.35156 42.8748 9.47534 42.8748 9.661V12.3841H44.7933C44.979 12.3841 45.1028 12.5078 45.1028 12.6935C45.1028 12.8792 44.979 13.0029 44.7933 13.0029H42.8748Z" fill="#3E3D84"/>
<path d="M53.3929 12.3227C52.0933 12.137 50.8555 12.5702 50.051 13.9317V5.76256C50.051 5.5769 49.9272 5.45312 49.7416 5.45312C49.5559 5.45312 49.4321 5.5769 49.4321 5.76256V20.3681C49.4321 20.5537 49.5559 20.6775 49.7416 20.6775C49.9272 20.6775 50.051 20.5537 50.051 20.3681V15.4171C50.051 14.0555 51.8458 12.5702 53.3929 12.8797C54.445 13.1272 55.4352 14.1174 55.4352 15.7265V20.3062C55.4352 20.4918 55.559 20.6156 55.7447 20.6156C55.9303 20.6156 56.0541 20.4918 56.0541 20.3062V15.7884C56.1779 14.4268 55.1877 12.5702 53.3929 12.3227Z" fill="#3E3D84"/>
<path d="M95.7878 20.8002C97.0874 20.9858 98.3252 20.5526 99.1297 19.1911V20.3669C99.1297 20.5526 99.2535 20.6764 99.4392 20.6764C99.6248 20.6764 99.7486 20.5526 99.7486 20.3669V12.7548C99.7486 12.5691 99.6248 12.4453 99.4392 12.4453C99.2535 12.4453 99.1297 12.5691 99.1297 12.7548L99.1916 16.7775C99.1916 18.8816 97.5207 20.5526 95.8497 20.1813C94.7976 19.9337 93.7455 18.9435 93.7455 17.3344V12.7548C93.7455 12.5691 93.6217 12.4453 93.4361 12.4453C93.2504 12.4453 93.1266 12.5691 93.1266 12.7548V17.3344C93.0647 19.0054 93.9312 20.5526 95.7878 20.8002Z" fill="#3E3D84"/>
<path d="M114.662 12.3201C113.363 12.1344 111.816 12.6914 111.135 14.4862C110.763 13.4341 109.835 12.5057 108.597 12.3201C107.298 12.1344 106.06 12.5676 105.194 13.9292V12.6914C105.194 12.5057 105.07 12.382 104.884 12.382C104.698 12.382 104.575 12.5057 104.575 12.6914V20.3036C104.575 20.4893 104.698 20.613 104.884 20.613C105.07 20.613 105.194 20.4893 105.194 20.3036L105.132 16.2809C105.132 14.1767 106.803 12.5676 108.536 12.939C109.526 13.1246 110.578 14.1148 110.64 15.6001V20.3036C110.64 20.4893 110.825 20.613 111.011 20.613C111.197 20.613 111.32 20.4893 111.32 20.3036V19.1896C111.32 18.447 111.32 17.5187 111.32 16.776C111.32 14.548 112.373 12.5057 114.601 12.8771C115.653 13.0627 116.705 14.1148 116.705 15.7239V20.3036C116.705 20.4893 116.828 20.613 117.014 20.613C117.2 20.613 117.324 20.4893 117.324 20.3036V15.7858C117.447 14.4243 116.519 12.5676 114.662 12.3201Z" fill="#3E3D84"/>
<path d="M77.1572 12.7561C77.1572 12.6323 77.0953 12.5704 77.0335 12.5085C76.9716 12.4467 76.8478 12.4467 76.7859 12.4467C75.4244 12.4467 74.1866 13.5606 73.8772 14.4271V12.6942C73.8772 12.5085 73.7534 12.3848 73.5677 12.3848C73.3821 12.3848 73.2583 12.5085 73.2583 12.6942V20.3064C73.2583 20.4921 73.3821 20.6158 73.5677 20.6158C73.7534 20.6158 73.8772 20.4921 73.8772 20.3064V16.5312C73.8772 14.7365 75.3006 13.1893 76.9097 13.0655C77.0335 13.0655 77.1572 12.8799 77.1572 12.7561Z" fill="#3E3D84"/>
</svg>
