<svg width="169" height="169" viewBox="0 0 169 169" fill="none" xmlns="http://www.w3.org/2000/svg">
<circle opacity="0.1" cx="84.5" cy="84.5" r="84.5" fill="#00e28e"/>
<circle opacity="0.1" cx="84.5001" cy="84.4999" r="64.22" fill="#00e28e"/>
<circle cx="84.4998" cy="84.5" r="43.94" fill="#00e28e"/>
<g clip-path="url(#clip0)">
<path d="M89.8447 87.1491L85.6618 84.012V77.6216C85.6618 76.9791 85.1425 76.4597 84.4999 76.4597C83.8574 76.4597 83.338 76.9791 83.338 77.6216V84.593C83.338 84.959 83.51 85.3041 83.8028 85.5225L88.4503 89.0082C88.6594 89.1651 88.9035 89.2406 89.1463 89.2406C89.5007 89.2406 89.8493 89.0814 90.077 88.7747C90.4628 88.2622 90.3583 87.5337 89.8447 87.1491Z" fill="white"/>
<path d="M84.5 69.5C76.2285 69.5 69.5 76.2285 69.5 84.5C69.5 92.7715 76.2285 99.5 84.5 99.5C92.7715 99.5 99.5 92.7715 99.5 84.5C99.5 76.2285 92.7715 69.5 84.5 69.5ZM84.5 97.1762C77.5112 97.1762 71.8238 91.4888 71.8238 84.5C71.8238 77.5112 77.5112 71.8238 84.5 71.8238C91.4899 71.8238 97.1762 77.5112 97.1762 84.5C97.1762 91.4888 91.4888 97.1762 84.5 97.1762Z" fill="white"/>
</g>
<defs>
<clipPath id="clip0">
<rect width="30" height="30" fill="white" transform="translate(69.5 69.5)"/>
</clipPath>
</defs>
</svg>
