<svg width="55" height="55" viewBox="0 0 55 55" fill="none" xmlns="http://www.w3.org/2000/svg">
<circle cx="27.5" cy="27.5" r="27.5" fill="#EBB80D" fill-opacity="0.4"/>
<circle cx="27.4998" cy="27.5003" r="21.9495" fill="#EBB80D" fill-opacity="0.5"/>
<circle cx="27.5" cy="27.5" r="15.8945" fill="#EBB80D"/>
<path d="M28.1257 30.6489L28.3245 22.2809H26.6178L26.8166 30.6489H28.1257ZM27.4629 34.0789C27.7501 34.0789 27.9986 33.9795 28.2085 33.7806C28.4184 33.5707 28.5234 33.3222 28.5234 33.035C28.5234 32.7477 28.4184 32.5047 28.2085 32.3059C27.9986 32.096 27.7501 31.991 27.4629 31.991C27.1757 31.991 26.9326 32.096 26.7338 32.3059C26.5239 32.5047 26.4189 32.7477 26.4189 33.035C26.4189 33.3222 26.5239 33.5707 26.7338 33.7806C26.9326 33.9795 27.1757 34.0789 27.4629 34.0789Z" fill="white"/>
</svg>
