<svg width="169" height="169" viewBox="0 0 169 169" fill="none" xmlns="http://www.w3.org/2000/svg">
<circle opacity="0.1" cx="84.5" cy="84.5" r="84.5" fill="#EBB909"/>
<circle opacity="0.1" cx="84.5001" cy="84.4999" r="64.22" fill="#EBB909"/>
<circle cx="84.4998" cy="84.5" r="43.94" fill="#EBB909"/>
<path d="M85.6211 92.9727H82.3594L82.1055 72.5625H85.8945L85.6211 92.9727ZM81.9688 99.1836C81.9688 98.5977 82.1445 98.1094 82.4961 97.7188C82.8607 97.3151 83.3945 97.1133 84.0977 97.1133C84.8008 97.1133 85.3346 97.3151 85.6992 97.7188C86.0638 98.1094 86.2461 98.5977 86.2461 99.1836C86.2461 99.7695 86.0638 100.258 85.6992 100.648C85.3346 101.026 84.8008 101.215 84.0977 101.215C83.3945 101.215 82.8607 101.026 82.4961 100.648C82.1445 100.258 81.9688 99.7695 81.9688 99.1836Z" fill="white"/>
</svg>
