<svg width="12" height="11" viewBox="0 0 12 11" fill="none" xmlns="http://www.w3.org/2000/svg">
<path d="M3.71326 9.6001L8.71326 9.6001C9.81783 9.6001 10.7133 8.70467 10.7133 7.6001L10.7133 2.6001C10.7133 1.49553 9.81783 0.600098 8.71326 0.600098L4.64294 0.600097C3.53838 0.600097 2.64294 1.49553 2.64294 2.6001L2.64294 4.6001" stroke="white" stroke-width="1.2" stroke-linecap="round"/>
<path d="M8.71423 5.1001C8.71423 5.65238 8.26652 6.1001 7.71423 6.1001C7.16195 6.1001 6.71423 5.65238 6.71423 5.1001C6.71423 4.54781 7.16195 4.1001 7.71423 4.1001C8.26652 4.1001 8.71423 4.54781 8.71423 5.1001Z" fill="white"/>
<path d="M6.13843 2.60022L3.47639 7.17098C3.09794 7.82079 2.16461 7.83608 1.76508 7.19902L0.605837 5.35058" stroke="white" stroke-width="1.2" stroke-linecap="round"/>
</svg>
